<?xml version="1.0" encoding="utf-8" standalone="no"?>
<!DOCTYPE svg PUBLIC "-//W3C//DTD SVG 1.1//EN"
  "http://www.w3.org/Graphics/SVG/1.1/DTD/svg11.dtd">
<svg height="720pt" version="1.1" viewBox="0 0 1152 720" width="1152pt" xmlns="http://www.w3.org/2000/svg" xmlns:xlink="http://www.w3.org/1999/xlink">
 <metadata>
  <rdf:RDF xmlns:cc="http://creativecommons.org/ns#" xmlns:dc="http://purl.org/dc/elements/1.1/" xmlns:rdf="http://www.w3.org/1999/02/22-rdf-syntax-ns#">
   <cc:Work>
    <dc:type rdf:resource="http://purl.org/dc/dcmitype/StillImage"/>
    <dc:date>2023-09-19T13:21:05.174700</dc:date>
    <dc:format>image/svg+xml</dc:format>
    <dc:creator>
     <cc:Agent>
      <dc:title>Matplotlib v3.4.3, https://matplotlib.org/</dc:title>
     </cc:Agent>
    </dc:creator>
   </cc:Work>
  </rdf:RDF>
 </metadata>
 <defs>
  <style type="text/css">*{stroke-linecap:butt;stroke-linejoin:round;}</style>
 </defs>
 <g id="figure_1">
  <g id="patch_1">
   <path d="M 0 720 
L 1152 720 
L 1152 0 
L 0 0 
z
" style="fill:#ffffff;"/>
  </g>
  <g id="axes_1">
   <g id="patch_2">
    <path d="M 144 640.8 
L 1036.8 640.8 
L 1036.8 86.4 
L 144 86.4 
z
" style="fill:#ffffff;"/>
   </g>
   <g id="PolyCollection_1">
    <defs>
     <path d="M 233.95329 -157.664996 
L 232.60671 -157.664996 
L 232.431602 -162.217875 
L 232.221041 -166.770754 
L 231.970428 -171.323633 
L 231.675101 -175.876511 
L 231.330429 -180.42939 
L 230.931892 -184.982269 
L 230.475165 -189.535148 
L 229.956175 -194.088027 
L 229.371143 -198.640906 
L 228.716606 -203.193784 
L 227.989409 -207.746663 
L 227.186694 -212.299542 
L 226.305865 -216.852421 
L 225.344575 -221.4053 
L 224.300725 -225.958179 
L 223.172499 -230.511057 
L 221.958459 -235.063936 
L 220.657702 -239.616815 
L 219.270091 -244.169694 
L 217.796561 -248.722573 
L 216.239487 -253.275451 
L 214.603093 -257.82833 
L 212.893888 -262.381209 
L 211.121065 -266.934088 
L 209.296842 -271.486967 
L 207.436693 -276.039846 
L 205.559423 -280.592724 
L 203.687049 -285.145603 
L 201.844475 -289.698482 
L 200.058938 -294.251361 
L 198.359238 -298.80424 
L 196.774785 -303.357119 
L 195.334506 -307.909997 
L 194.065671 -312.462876 
L 192.992721 -317.015755 
L 192.136163 -321.568634 
L 191.511617 -326.121513 
L 191.129085 -330.674392 
L 190.992484 -335.22727 
L 191.099489 -339.780149 
L 191.441679 -344.333028 
L 192.00499 -348.885907 
L 192.770421 -353.438786 
L 193.714942 -357.991665 
L 194.812547 -362.544543 
L 196.035352 -367.097422 
L 197.35469 -371.650301 
L 198.742122 -376.20318 
L 200.170314 -380.756059 
L 201.613751 -385.308937 
L 203.049265 -389.861816 
L 204.456385 -394.414695 
L 205.817527 -398.967574 
L 207.118042 -403.520453 
L 208.346175 -408.073332 
L 209.492951 -412.62621 
L 210.552041 -417.179089 
L 211.519609 -421.731968 
L 212.394169 -426.284847 
L 213.176458 -430.837726 
L 213.869311 -435.390605 
L 214.477535 -439.943483 
L 215.007765 -444.496362 
L 215.468294 -449.049241 
L 215.868862 -453.60212 
L 216.220391 -458.154999 
L 216.534685 -462.707878 
L 216.824077 -467.260756 
L 217.101054 -471.813635 
L 217.377858 -476.366514 
L 217.666097 -480.919393 
L 217.976364 -485.472272 
L 218.317895 -490.02515 
L 218.698277 -494.578029 
L 219.123218 -499.130908 
L 219.596375 -503.683787 
L 220.119278 -508.236666 
L 220.691317 -512.789545 
L 221.309816 -517.342423 
L 221.970186 -521.895302 
L 222.666143 -526.448181 
L 223.39 -531.00106 
L 224.132995 -535.553939 
L 224.885669 -540.106818 
L 225.638253 -544.659696 
L 226.381061 -549.212575 
L 227.104854 -553.765454 
L 227.801179 -558.318333 
L 228.462641 -562.871212 
L 229.083118 -567.424091 
L 229.657899 -571.976969 
L 230.183746 -576.529848 
L 230.65888 -581.082727 
L 231.082905 -585.635606 
L 231.456672 -590.188485 
L 231.782103 -594.741364 
L 232.061987 -599.294242 
L 232.299765 -603.847121 
L 232.499313 -608.4 
L 234.060687 -608.4 
L 234.060687 -608.4 
L 234.260235 -603.847121 
L 234.498013 -599.294242 
L 234.777897 -594.741364 
L 235.103328 -590.188485 
L 235.477095 -585.635606 
L 235.90112 -581.082727 
L 236.376254 -576.529848 
L 236.902101 -571.976969 
L 237.476882 -567.424091 
L 238.097359 -562.871212 
L 238.758821 -558.318333 
L 239.455146 -553.765454 
L 240.178939 -549.212575 
L 240.921747 -544.659696 
L 241.674331 -540.106818 
L 242.427005 -535.553939 
L 243.17 -531.00106 
L 243.893857 -526.448181 
L 244.589814 -521.895302 
L 245.250184 -517.342423 
L 245.868683 -512.789545 
L 246.440722 -508.236666 
L 246.963625 -503.683787 
L 247.436782 -499.130908 
L 247.861723 -494.578029 
L 248.242105 -490.02515 
L 248.583636 -485.472272 
L 248.893903 -480.919393 
L 249.182142 -476.366514 
L 249.458946 -471.813635 
L 249.735923 -467.260756 
L 250.025315 -462.707878 
L 250.339609 -458.154999 
L 250.691138 -453.60212 
L 251.091706 -449.049241 
L 251.552235 -444.496362 
L 252.082465 -439.943483 
L 252.690689 -435.390605 
L 253.383542 -430.837726 
L 254.165831 -426.284847 
L 255.040391 -421.731968 
L 256.007959 -417.179089 
L 257.067049 -412.62621 
L 258.213825 -408.073332 
L 259.441958 -403.520453 
L 260.742473 -398.967574 
L 262.103615 -394.414695 
L 263.510735 -389.861816 
L 264.946249 -385.308937 
L 266.389686 -380.756059 
L 267.817878 -376.20318 
L 269.20531 -371.650301 
L 270.524648 -367.097422 
L 271.747453 -362.544543 
L 272.845058 -357.991665 
L 273.789579 -353.438786 
L 274.55501 -348.885907 
L 275.118321 -344.333028 
L 275.460511 -339.780149 
L 275.567516 -335.22727 
L 275.430915 -330.674392 
L 275.048383 -326.121513 
L 274.423837 -321.568634 
L 273.567279 -317.015755 
L 272.494329 -312.462876 
L 271.225494 -307.909997 
L 269.785215 -303.357119 
L 268.200762 -298.80424 
L 266.501062 -294.251361 
L 264.715525 -289.698482 
L 262.872951 -285.145603 
L 261.000577 -280.592724 
L 259.123307 -276.039846 
L 257.263158 -271.486967 
L 255.438935 -266.934088 
L 253.666112 -262.381209 
L 251.956907 -257.82833 
L 250.320513 -253.275451 
L 248.763439 -248.722573 
L 247.289909 -244.169694 
L 245.902298 -239.616815 
L 244.601541 -235.063936 
L 243.387501 -230.511057 
L 242.259275 -225.958179 
L 241.215425 -221.4053 
L 240.254135 -216.852421 
L 239.373306 -212.299542 
L 238.570591 -207.746663 
L 237.843394 -203.193784 
L 237.188857 -198.640906 
L 236.603825 -194.088027 
L 236.084835 -189.535148 
L 235.628108 -184.982269 
L 235.229571 -180.42939 
L 234.884899 -175.876511 
L 234.589572 -171.323633 
L 234.338959 -166.770754 
L 234.128398 -162.217875 
L 233.95329 -157.664996 
z
" id="mc4d95557da" style="stroke:#4d4d4d;stroke-width:1.5;"/>
    </defs>
    <g clip-path="url(#p1b1005d673)">
     <use style="fill:#d56b5b;stroke:#4d4d4d;stroke-width:1.5;" x="0" xlink:href="#mc4d95557da" y="720"/>
    </g>
   </g>
   <g id="PolyCollection_2">
    <defs>
     <path d="M 412.983007 -148.006985 
L 410.696993 -148.006985 
L 410.384121 -150.778781 
L 410.004558 -153.550577 
L 409.549311 -156.322373 
L 409.009422 -159.094169 
L 408.376271 -161.865965 
L 407.641924 -164.637762 
L 406.799497 -167.409558 
L 405.843526 -170.181354 
L 404.770331 -172.95315 
L 403.578339 -175.724946 
L 402.268358 -178.496742 
L 400.843768 -181.268538 
L 399.310619 -184.040334 
L 397.677603 -186.81213 
L 395.955895 -189.583926 
L 394.158854 -192.355722 
L 392.30157 -195.127518 
L 390.400277 -197.899314 
L 388.471643 -200.67111 
L 386.531969 -203.442906 
L 384.596332 -206.214702 
L 382.677732 -208.986498 
L 380.786303 -211.758294 
L 378.928645 -214.53009 
L 377.107346 -217.301886 
L 375.320765 -220.073682 
L 373.563097 -222.845479 
L 371.824788 -225.617275 
L 370.093269 -228.389071 
L 368.354019 -231.160867 
L 366.591907 -233.932663 
L 364.792732 -236.704459 
L 362.944882 -239.476255 
L 361.040986 -242.248051 
L 359.079457 -245.019847 
L 357.065776 -247.791643 
L 355.013433 -250.563439 
L 352.944401 -253.335235 
L 350.889087 -256.107031 
L 348.885714 -258.878827 
L 346.979144 -261.650623 
L 345.219178 -264.422419 
L 343.658415 -267.194215 
L 342.34979 -269.966011 
L 341.343947 -272.737807 
L 340.686588 -275.509603 
L 340.416 -278.281399 
L 340.560889 -281.053196 
L 341.138686 -283.824992 
L 342.154418 -286.596788 
L 343.600219 -289.368584 
L 345.455488 -292.14038 
L 347.687693 -294.912176 
L 350.253717 -297.683972 
L 353.101679 -300.455768 
L 356.173078 -303.227564 
L 359.405129 -305.99936 
L 362.733158 -308.771156 
L 366.09293 -311.542952 
L 369.422791 -314.314748 
L 372.665572 -317.086544 
L 375.770174 -319.85834 
L 378.692835 -322.630136 
L 381.398054 -325.401932 
L 383.859193 -328.173728 
L 386.058777 -330.945524 
L 387.988506 -333.71732 
L 389.649004 -336.489116 
L 391.049313 -339.260912 
L 392.206156 -342.032709 
L 393.142965 -344.804505 
L 393.888707 -347.576301 
L 394.476517 -350.348097 
L 394.942192 -353.119893 
L 395.322585 -355.891689 
L 395.653968 -358.663485 
L 395.970452 -361.435281 
L 396.30254 -364.207077 
L 396.675898 -366.978873 
L 397.11042 -369.750669 
L 397.619641 -372.522465 
L 398.210529 -375.294261 
L 398.883667 -378.066057 
L 399.633787 -380.837853 
L 400.450613 -383.609649 
L 401.319939 -386.381445 
L 402.224845 -389.153241 
L 403.146961 -391.925037 
L 404.067694 -394.696833 
L 404.96932 -397.468629 
L 405.835898 -400.240426 
L 406.653955 -403.012222 
L 407.41292 -405.784018 
L 408.105319 -408.555814 
L 408.726749 -411.32761 
L 409.275665 -414.099406 
L 409.753036 -416.871202 
L 410.161898 -419.642998 
L 410.506874 -422.414794 
L 413.173126 -422.414794 
L 413.173126 -422.414794 
L 413.518102 -419.642998 
L 413.926964 -416.871202 
L 414.404335 -414.099406 
L 414.953251 -411.32761 
L 415.574681 -408.555814 
L 416.26708 -405.784018 
L 417.026045 -403.012222 
L 417.844102 -400.240426 
L 418.71068 -397.468629 
L 419.612306 -394.696833 
L 420.533039 -391.925037 
L 421.455155 -389.153241 
L 422.360061 -386.381445 
L 423.229387 -383.609649 
L 424.046213 -380.837853 
L 424.796333 -378.066057 
L 425.469471 -375.294261 
L 426.060359 -372.522465 
L 426.56958 -369.750669 
L 427.004102 -366.978873 
L 427.37746 -364.207077 
L 427.709548 -361.435281 
L 428.026032 -358.663485 
L 428.357415 -355.891689 
L 428.737808 -353.119893 
L 429.203483 -350.348097 
L 429.791293 -347.576301 
L 430.537035 -344.804505 
L 431.473844 -342.032709 
L 432.630687 -339.260912 
L 434.030996 -336.489116 
L 435.691494 -333.71732 
L 437.621223 -330.945524 
L 439.820807 -328.173728 
L 442.281946 -325.401932 
L 444.987165 -322.630136 
L 447.909826 -319.85834 
L 451.014428 -317.086544 
L 454.257209 -314.314748 
L 457.58707 -311.542952 
L 460.946842 -308.771156 
L 464.274871 -305.99936 
L 467.506922 -303.227564 
L 470.578321 -300.455768 
L 473.426283 -297.683972 
L 475.992307 -294.912176 
L 478.224512 -292.14038 
L 480.079781 -289.368584 
L 481.525582 -286.596788 
L 482.541314 -283.824992 
L 483.119111 -281.053196 
L 483.264 -278.281399 
L 482.993412 -275.509603 
L 482.336053 -272.737807 
L 481.33021 -269.966011 
L 480.021585 -267.194215 
L 478.460822 -264.422419 
L 476.700856 -261.650623 
L 474.794286 -258.878827 
L 472.790913 -256.107031 
L 470.735599 -253.335235 
L 468.666567 -250.563439 
L 466.614224 -247.791643 
L 464.600543 -245.019847 
L 462.639014 -242.248051 
L 460.735118 -239.476255 
L 458.887268 -236.704459 
L 457.088093 -233.932663 
L 455.325981 -231.160867 
L 453.586731 -228.389071 
L 451.855212 -225.617275 
L 450.116903 -222.845479 
L 448.359235 -220.073682 
L 446.572654 -217.301886 
L 444.751355 -214.53009 
L 442.893697 -211.758294 
L 441.002268 -208.986498 
L 439.083668 -206.214702 
L 437.148031 -203.442906 
L 435.208357 -200.67111 
L 433.279723 -197.899314 
L 431.37843 -195.127518 
L 429.521146 -192.355722 
L 427.724105 -189.583926 
L 426.002397 -186.81213 
L 424.369381 -184.040334 
L 422.836232 -181.268538 
L 421.411642 -178.496742 
L 420.101661 -175.724946 
L 418.909669 -172.95315 
L 417.836474 -170.181354 
L 416.880503 -167.409558 
L 416.038076 -164.637762 
L 415.303729 -161.865965 
L 414.670578 -159.094169 
L 414.130689 -156.322373 
L 413.675442 -153.550577 
L 413.295879 -150.778781 
L 412.983007 -148.006985 
z
" id="m3bc92b9da2" style="stroke:#4d4d4d;stroke-width:1.5;"/>
    </defs>
    <g clip-path="url(#p1b1005d673)">
     <use style="fill:#ecbd81;stroke:#4d4d4d;stroke-width:1.5;" x="0" xlink:href="#m3bc92b9da2" y="720"/>
    </g>
   </g>
   <g id="PolyCollection_3">
    <defs>
     <path d="M 592.811895 -104.4 
L 587.988105 -104.4 
L 587.332185 -108.093916 
L 586.538833 -111.787832 
L 585.590955 -115.481748 
L 584.472311 -119.175664 
L 583.168352 -122.86958 
L 581.667116 -126.563496 
L 579.960158 -130.257412 
L 578.043428 -133.951328 
L 575.918054 -137.645244 
L 573.590963 -141.33916 
L 571.075273 -145.033076 
L 568.390411 -148.726991 
L 565.56194 -152.420907 
L 562.621056 -156.114823 
L 559.603807 -159.808739 
L 556.550042 -163.502655 
L 553.502166 -167.196571 
L 550.503777 -170.890487 
L 547.59827 -174.584403 
L 544.827496 -178.278319 
L 542.230566 -181.972235 
L 539.842855 -185.666151 
L 537.695263 -189.360067 
L 535.813744 -193.053983 
L 534.219112 -196.747899 
L 532.927071 -200.441815 
L 531.948457 -204.135731 
L 531.289587 -207.829647 
L 530.952694 -211.523563 
L 530.936348 -215.217479 
L 531.235828 -218.911395 
L 531.843416 -222.605311 
L 532.748565 -226.299227 
L 533.937969 -229.993142 
L 535.39554 -233.687058 
L 537.102331 -237.380974 
L 539.036439 -241.07489 
L 541.172951 -244.768806 
L 543.483971 -248.462722 
L 545.938772 -252.156638 
L 548.504103 -255.850554 
L 551.144665 -259.54447 
L 553.823764 -263.238386 
L 556.504111 -266.932302 
L 559.148745 -270.626218 
L 561.722031 -274.320134 
L 564.190681 -278.01405 
L 566.524725 -281.707966 
L 568.698398 -285.401882 
L 570.690856 -289.095798 
L 572.486711 -292.789714 
L 574.076321 -296.48363 
L 575.455844 -300.177546 
L 576.627045 -303.871462 
L 577.596874 -307.565378 
L 578.376849 -311.259293 
L 578.982289 -314.953209 
L 579.431439 -318.647125 
L 579.744559 -322.341041 
L 579.943007 -326.034957 
L 580.048389 -329.728873 
L 580.081797 -333.422789 
L 580.063179 -337.116705 
L 580.010857 -340.810621 
L 579.941189 -344.504537 
L 579.868387 -348.198453 
L 579.804466 -351.892369 
L 579.759303 -355.586285 
L 579.74078 -359.280201 
L 579.754986 -362.974117 
L 579.80644 -366.668033 
L 579.898318 -370.361949 
L 580.032658 -374.055865 
L 580.210531 -377.749781 
L 580.432164 -381.443697 
L 580.697022 -385.137613 
L 581.003848 -388.831529 
L 581.350675 -392.525444 
L 581.734815 -396.21936 
L 582.152857 -399.913276 
L 582.600672 -403.607192 
L 583.073444 -407.301108 
L 583.565741 -410.995024 
L 584.071624 -414.68894 
L 584.584793 -418.382856 
L 585.098768 -422.076772 
L 585.607097 -425.770688 
L 586.103564 -429.464604 
L 586.582402 -433.15852 
L 587.038479 -436.852436 
L 587.467459 -440.546352 
L 587.865914 -444.240268 
L 588.231392 -447.934184 
L 588.562428 -451.6281 
L 588.858517 -455.322016 
L 589.120034 -459.015932 
L 589.348127 -462.709848 
L 589.54458 -466.403764 
L 589.711668 -470.09768 
L 591.088332 -470.09768 
L 591.088332 -470.09768 
L 591.25542 -466.403764 
L 591.451873 -462.709848 
L 591.679966 -459.015932 
L 591.941483 -455.322016 
L 592.237572 -451.6281 
L 592.568608 -447.934184 
L 592.934086 -444.240268 
L 593.332541 -440.546352 
L 593.761521 -436.852436 
L 594.217598 -433.15852 
L 594.696436 -429.464604 
L 595.192903 -425.770688 
L 595.701232 -422.076772 
L 596.215207 -418.382856 
L 596.728376 -414.68894 
L 597.234259 -410.995024 
L 597.726556 -407.301108 
L 598.199328 -403.607192 
L 598.647143 -399.913276 
L 599.065185 -396.21936 
L 599.449325 -392.525444 
L 599.796152 -388.831529 
L 600.102978 -385.137613 
L 600.367836 -381.443697 
L 600.589469 -377.749781 
L 600.767342 -374.055865 
L 600.901682 -370.361949 
L 600.99356 -366.668033 
L 601.045014 -362.974117 
L 601.05922 -359.280201 
L 601.040697 -355.586285 
L 600.995534 -351.892369 
L 600.931613 -348.198453 
L 600.858811 -344.504537 
L 600.789143 -340.810621 
L 600.736821 -337.116705 
L 600.718203 -333.422789 
L 600.751611 -329.728873 
L 600.856993 -326.034957 
L 601.055441 -322.341041 
L 601.368561 -318.647125 
L 601.817711 -314.953209 
L 602.423151 -311.259293 
L 603.203126 -307.565378 
L 604.172955 -303.871462 
L 605.344156 -300.177546 
L 606.723679 -296.48363 
L 608.313289 -292.789714 
L 610.109144 -289.095798 
L 612.101602 -285.401882 
L 614.275275 -281.707966 
L 616.609319 -278.01405 
L 619.077969 -274.320134 
L 621.651255 -270.626218 
L 624.295889 -266.932302 
L 626.976236 -263.238386 
L 629.655335 -259.54447 
L 632.295897 -255.850554 
L 634.861228 -252.156638 
L 637.316029 -248.462722 
L 639.627049 -244.768806 
L 641.763561 -241.07489 
L 643.697669 -237.380974 
L 645.40446 -233.687058 
L 646.862031 -229.993142 
L 648.051435 -226.299227 
L 648.956584 -222.605311 
L 649.564172 -218.911395 
L 649.863652 -215.217479 
L 649.847306 -211.523563 
L 649.510413 -207.829647 
L 648.851543 -204.135731 
L 647.872929 -200.441815 
L 646.580888 -196.747899 
L 644.986256 -193.053983 
L 643.104737 -189.360067 
L 640.957145 -185.666151 
L 638.569434 -181.972235 
L 635.972504 -178.278319 
L 633.20173 -174.584403 
L 630.296223 -170.890487 
L 627.297834 -167.196571 
L 624.249958 -163.502655 
L 621.196193 -159.808739 
L 618.178944 -156.114823 
L 615.23806 -152.420907 
L 612.409589 -148.726991 
L 609.724727 -145.033076 
L 607.209037 -141.33916 
L 604.881946 -137.645244 
L 602.756572 -133.951328 
L 600.839842 -130.257412 
L 599.132884 -126.563496 
L 597.631648 -122.86958 
L 596.327689 -119.175664 
L 595.209045 -115.481748 
L 594.261167 -111.787832 
L 593.467815 -108.093916 
L 592.811895 -104.4 
z
" id="m72295acc9b" style="stroke:#4d4d4d;stroke-width:1.5;"/>
    </defs>
    <g clip-path="url(#p1b1005d673)">
     <use style="fill:#f7f7c6;stroke:#4d4d4d;stroke-width:1.5;" x="0" xlink:href="#m72295acc9b" y="720"/>
    </g>
   </g>
   <g id="matplotlib.axis_1">
    <g id="xtick_1">
     <g id="line2d_1">
      <defs>
       <path d="M 0 0 
L 0 3.5 
" id="m5c249393a3" style="stroke:#000000;stroke-width:0.8;"/>
      </defs>
      <g>
       <use style="stroke:#000000;stroke-width:0.8;" x="233.28" xlink:href="#m5c249393a3" y="640.8"/>
      </g>
     </g>
     <g id="text_1">
      <!-- Player1_healthy -->
      <g transform="translate(193.252656 655.398438)scale(0.1 -0.1)">
       <defs>
        <path d="M 1259 4147 
L 1259 2394 
L 2053 2394 
Q 2494 2394 2734 2622 
Q 2975 2850 2975 3272 
Q 2975 3691 2734 3919 
Q 2494 4147 2053 4147 
L 1259 4147 
z
M 628 4666 
L 2053 4666 
Q 2838 4666 3239 4311 
Q 3641 3956 3641 3272 
Q 3641 2581 3239 2228 
Q 2838 1875 2053 1875 
L 1259 1875 
L 1259 0 
L 628 0 
L 628 4666 
z
" id="DejaVuSans-50" transform="scale(0.015625)"/>
        <path d="M 603 4863 
L 1178 4863 
L 1178 0 
L 603 0 
L 603 4863 
z
" id="DejaVuSans-6c" transform="scale(0.015625)"/>
        <path d="M 2194 1759 
Q 1497 1759 1228 1600 
Q 959 1441 959 1056 
Q 959 750 1161 570 
Q 1363 391 1709 391 
Q 2188 391 2477 730 
Q 2766 1069 2766 1631 
L 2766 1759 
L 2194 1759 
z
M 3341 1997 
L 3341 0 
L 2766 0 
L 2766 531 
Q 2569 213 2275 61 
Q 1981 -91 1556 -91 
Q 1019 -91 701 211 
Q 384 513 384 1019 
Q 384 1609 779 1909 
Q 1175 2209 1959 2209 
L 2766 2209 
L 2766 2266 
Q 2766 2663 2505 2880 
Q 2244 3097 1772 3097 
Q 1472 3097 1187 3025 
Q 903 2953 641 2809 
L 641 3341 
Q 956 3463 1253 3523 
Q 1550 3584 1831 3584 
Q 2591 3584 2966 3190 
Q 3341 2797 3341 1997 
z
" id="DejaVuSans-61" transform="scale(0.015625)"/>
        <path d="M 2059 -325 
Q 1816 -950 1584 -1140 
Q 1353 -1331 966 -1331 
L 506 -1331 
L 506 -850 
L 844 -850 
Q 1081 -850 1212 -737 
Q 1344 -625 1503 -206 
L 1606 56 
L 191 3500 
L 800 3500 
L 1894 763 
L 2988 3500 
L 3597 3500 
L 2059 -325 
z
" id="DejaVuSans-79" transform="scale(0.015625)"/>
        <path d="M 3597 1894 
L 3597 1613 
L 953 1613 
Q 991 1019 1311 708 
Q 1631 397 2203 397 
Q 2534 397 2845 478 
Q 3156 559 3463 722 
L 3463 178 
Q 3153 47 2828 -22 
Q 2503 -91 2169 -91 
Q 1331 -91 842 396 
Q 353 884 353 1716 
Q 353 2575 817 3079 
Q 1281 3584 2069 3584 
Q 2775 3584 3186 3129 
Q 3597 2675 3597 1894 
z
M 3022 2063 
Q 3016 2534 2758 2815 
Q 2500 3097 2075 3097 
Q 1594 3097 1305 2825 
Q 1016 2553 972 2059 
L 3022 2063 
z
" id="DejaVuSans-65" transform="scale(0.015625)"/>
        <path d="M 2631 2963 
Q 2534 3019 2420 3045 
Q 2306 3072 2169 3072 
Q 1681 3072 1420 2755 
Q 1159 2438 1159 1844 
L 1159 0 
L 581 0 
L 581 3500 
L 1159 3500 
L 1159 2956 
Q 1341 3275 1631 3429 
Q 1922 3584 2338 3584 
Q 2397 3584 2469 3576 
Q 2541 3569 2628 3553 
L 2631 2963 
z
" id="DejaVuSans-72" transform="scale(0.015625)"/>
        <path d="M 794 531 
L 1825 531 
L 1825 4091 
L 703 3866 
L 703 4441 
L 1819 4666 
L 2450 4666 
L 2450 531 
L 3481 531 
L 3481 0 
L 794 0 
L 794 531 
z
" id="DejaVuSans-31" transform="scale(0.015625)"/>
        <path d="M 3263 -1063 
L 3263 -1509 
L -63 -1509 
L -63 -1063 
L 3263 -1063 
z
" id="DejaVuSans-5f" transform="scale(0.015625)"/>
        <path d="M 3513 2113 
L 3513 0 
L 2938 0 
L 2938 2094 
Q 2938 2591 2744 2837 
Q 2550 3084 2163 3084 
Q 1697 3084 1428 2787 
Q 1159 2491 1159 1978 
L 1159 0 
L 581 0 
L 581 4863 
L 1159 4863 
L 1159 2956 
Q 1366 3272 1645 3428 
Q 1925 3584 2291 3584 
Q 2894 3584 3203 3211 
Q 3513 2838 3513 2113 
z
" id="DejaVuSans-68" transform="scale(0.015625)"/>
        <path d="M 1172 4494 
L 1172 3500 
L 2356 3500 
L 2356 3053 
L 1172 3053 
L 1172 1153 
Q 1172 725 1289 603 
Q 1406 481 1766 481 
L 2356 481 
L 2356 0 
L 1766 0 
Q 1100 0 847 248 
Q 594 497 594 1153 
L 594 3053 
L 172 3053 
L 172 3500 
L 594 3500 
L 594 4494 
L 1172 4494 
z
" id="DejaVuSans-74" transform="scale(0.015625)"/>
       </defs>
       <use xlink:href="#DejaVuSans-50"/>
       <use x="60.302734" xlink:href="#DejaVuSans-6c"/>
       <use x="88.085938" xlink:href="#DejaVuSans-61"/>
       <use x="149.365234" xlink:href="#DejaVuSans-79"/>
       <use x="208.544922" xlink:href="#DejaVuSans-65"/>
       <use x="270.068359" xlink:href="#DejaVuSans-72"/>
       <use x="311.181641" xlink:href="#DejaVuSans-31"/>
       <use x="374.804688" xlink:href="#DejaVuSans-5f"/>
       <use x="424.804688" xlink:href="#DejaVuSans-68"/>
       <use x="488.183594" xlink:href="#DejaVuSans-65"/>
       <use x="549.707031" xlink:href="#DejaVuSans-61"/>
       <use x="610.986328" xlink:href="#DejaVuSans-6c"/>
       <use x="638.769531" xlink:href="#DejaVuSans-74"/>
       <use x="677.978516" xlink:href="#DejaVuSans-68"/>
       <use x="741.357422" xlink:href="#DejaVuSans-79"/>
      </g>
     </g>
    </g>
    <g id="xtick_2">
     <g id="line2d_2">
      <g>
       <use style="stroke:#000000;stroke-width:0.8;" x="411.84" xlink:href="#m5c249393a3" y="640.8"/>
      </g>
     </g>
     <g id="text_2">
      <!-- Type1_depressed -->
      <g transform="translate(368.77125 655.398438)scale(0.1 -0.1)">
       <defs>
        <path d="M -19 4666 
L 3928 4666 
L 3928 4134 
L 2272 4134 
L 2272 0 
L 1638 0 
L 1638 4134 
L -19 4134 
L -19 4666 
z
" id="DejaVuSans-54" transform="scale(0.015625)"/>
        <path d="M 1159 525 
L 1159 -1331 
L 581 -1331 
L 581 3500 
L 1159 3500 
L 1159 2969 
Q 1341 3281 1617 3432 
Q 1894 3584 2278 3584 
Q 2916 3584 3314 3078 
Q 3713 2572 3713 1747 
Q 3713 922 3314 415 
Q 2916 -91 2278 -91 
Q 1894 -91 1617 61 
Q 1341 213 1159 525 
z
M 3116 1747 
Q 3116 2381 2855 2742 
Q 2594 3103 2138 3103 
Q 1681 3103 1420 2742 
Q 1159 2381 1159 1747 
Q 1159 1113 1420 752 
Q 1681 391 2138 391 
Q 2594 391 2855 752 
Q 3116 1113 3116 1747 
z
" id="DejaVuSans-70" transform="scale(0.015625)"/>
        <path d="M 2906 2969 
L 2906 4863 
L 3481 4863 
L 3481 0 
L 2906 0 
L 2906 525 
Q 2725 213 2448 61 
Q 2172 -91 1784 -91 
Q 1150 -91 751 415 
Q 353 922 353 1747 
Q 353 2572 751 3078 
Q 1150 3584 1784 3584 
Q 2172 3584 2448 3432 
Q 2725 3281 2906 2969 
z
M 947 1747 
Q 947 1113 1208 752 
Q 1469 391 1925 391 
Q 2381 391 2643 752 
Q 2906 1113 2906 1747 
Q 2906 2381 2643 2742 
Q 2381 3103 1925 3103 
Q 1469 3103 1208 2742 
Q 947 2381 947 1747 
z
" id="DejaVuSans-64" transform="scale(0.015625)"/>
        <path d="M 2834 3397 
L 2834 2853 
Q 2591 2978 2328 3040 
Q 2066 3103 1784 3103 
Q 1356 3103 1142 2972 
Q 928 2841 928 2578 
Q 928 2378 1081 2264 
Q 1234 2150 1697 2047 
L 1894 2003 
Q 2506 1872 2764 1633 
Q 3022 1394 3022 966 
Q 3022 478 2636 193 
Q 2250 -91 1575 -91 
Q 1294 -91 989 -36 
Q 684 19 347 128 
L 347 722 
Q 666 556 975 473 
Q 1284 391 1588 391 
Q 1994 391 2212 530 
Q 2431 669 2431 922 
Q 2431 1156 2273 1281 
Q 2116 1406 1581 1522 
L 1381 1569 
Q 847 1681 609 1914 
Q 372 2147 372 2553 
Q 372 3047 722 3315 
Q 1072 3584 1716 3584 
Q 2034 3584 2315 3537 
Q 2597 3491 2834 3397 
z
" id="DejaVuSans-73" transform="scale(0.015625)"/>
       </defs>
       <use xlink:href="#DejaVuSans-54"/>
       <use x="45.458984" xlink:href="#DejaVuSans-79"/>
       <use x="104.638672" xlink:href="#DejaVuSans-70"/>
       <use x="168.115234" xlink:href="#DejaVuSans-65"/>
       <use x="229.638672" xlink:href="#DejaVuSans-31"/>
       <use x="293.261719" xlink:href="#DejaVuSans-5f"/>
       <use x="343.261719" xlink:href="#DejaVuSans-64"/>
       <use x="406.738281" xlink:href="#DejaVuSans-65"/>
       <use x="468.261719" xlink:href="#DejaVuSans-70"/>
       <use x="531.738281" xlink:href="#DejaVuSans-72"/>
       <use x="570.601562" xlink:href="#DejaVuSans-65"/>
       <use x="632.125" xlink:href="#DejaVuSans-73"/>
       <use x="684.224609" xlink:href="#DejaVuSans-73"/>
       <use x="736.324219" xlink:href="#DejaVuSans-65"/>
       <use x="797.847656" xlink:href="#DejaVuSans-64"/>
      </g>
     </g>
    </g>
    <g id="xtick_3">
     <g id="line2d_3">
      <g>
       <use style="stroke:#000000;stroke-width:0.8;" x="590.4" xlink:href="#m5c249393a3" y="640.8"/>
      </g>
     </g>
     <g id="text_3">
      <!-- Type2_depressed -->
      <g transform="translate(547.33125 655.398438)scale(0.1 -0.1)">
       <defs>
        <path d="M 1228 531 
L 3431 531 
L 3431 0 
L 469 0 
L 469 531 
Q 828 903 1448 1529 
Q 2069 2156 2228 2338 
Q 2531 2678 2651 2914 
Q 2772 3150 2772 3378 
Q 2772 3750 2511 3984 
Q 2250 4219 1831 4219 
Q 1534 4219 1204 4116 
Q 875 4013 500 3803 
L 500 4441 
Q 881 4594 1212 4672 
Q 1544 4750 1819 4750 
Q 2544 4750 2975 4387 
Q 3406 4025 3406 3419 
Q 3406 3131 3298 2873 
Q 3191 2616 2906 2266 
Q 2828 2175 2409 1742 
Q 1991 1309 1228 531 
z
" id="DejaVuSans-32" transform="scale(0.015625)"/>
       </defs>
       <use xlink:href="#DejaVuSans-54"/>
       <use x="45.458984" xlink:href="#DejaVuSans-79"/>
       <use x="104.638672" xlink:href="#DejaVuSans-70"/>
       <use x="168.115234" xlink:href="#DejaVuSans-65"/>
       <use x="229.638672" xlink:href="#DejaVuSans-32"/>
       <use x="293.261719" xlink:href="#DejaVuSans-5f"/>
       <use x="343.261719" xlink:href="#DejaVuSans-64"/>
       <use x="406.738281" xlink:href="#DejaVuSans-65"/>
       <use x="468.261719" xlink:href="#DejaVuSans-70"/>
       <use x="531.738281" xlink:href="#DejaVuSans-72"/>
       <use x="570.601562" xlink:href="#DejaVuSans-65"/>
       <use x="632.125" xlink:href="#DejaVuSans-73"/>
       <use x="684.224609" xlink:href="#DejaVuSans-73"/>
       <use x="736.324219" xlink:href="#DejaVuSans-65"/>
       <use x="797.847656" xlink:href="#DejaVuSans-64"/>
      </g>
     </g>
    </g>
    <g id="xtick_4">
     <g id="line2d_4">
      <g>
       <use style="stroke:#000000;stroke-width:0.8;" x="768.96" xlink:href="#m5c249393a3" y="640.8"/>
      </g>
     </g>
     <g id="text_4">
      <!-- Type1_social_phobia -->
      <g transform="translate(718.010781 655.398438)scale(0.1 -0.1)">
       <defs>
        <path d="M 1959 3097 
Q 1497 3097 1228 2736 
Q 959 2375 959 1747 
Q 959 1119 1226 758 
Q 1494 397 1959 397 
Q 2419 397 2687 759 
Q 2956 1122 2956 1747 
Q 2956 2369 2687 2733 
Q 2419 3097 1959 3097 
z
M 1959 3584 
Q 2709 3584 3137 3096 
Q 3566 2609 3566 1747 
Q 3566 888 3137 398 
Q 2709 -91 1959 -91 
Q 1206 -91 779 398 
Q 353 888 353 1747 
Q 353 2609 779 3096 
Q 1206 3584 1959 3584 
z
" id="DejaVuSans-6f" transform="scale(0.015625)"/>
        <path d="M 3122 3366 
L 3122 2828 
Q 2878 2963 2633 3030 
Q 2388 3097 2138 3097 
Q 1578 3097 1268 2742 
Q 959 2388 959 1747 
Q 959 1106 1268 751 
Q 1578 397 2138 397 
Q 2388 397 2633 464 
Q 2878 531 3122 666 
L 3122 134 
Q 2881 22 2623 -34 
Q 2366 -91 2075 -91 
Q 1284 -91 818 406 
Q 353 903 353 1747 
Q 353 2603 823 3093 
Q 1294 3584 2113 3584 
Q 2378 3584 2631 3529 
Q 2884 3475 3122 3366 
z
" id="DejaVuSans-63" transform="scale(0.015625)"/>
        <path d="M 603 3500 
L 1178 3500 
L 1178 0 
L 603 0 
L 603 3500 
z
M 603 4863 
L 1178 4863 
L 1178 4134 
L 603 4134 
L 603 4863 
z
" id="DejaVuSans-69" transform="scale(0.015625)"/>
        <path d="M 3116 1747 
Q 3116 2381 2855 2742 
Q 2594 3103 2138 3103 
Q 1681 3103 1420 2742 
Q 1159 2381 1159 1747 
Q 1159 1113 1420 752 
Q 1681 391 2138 391 
Q 2594 391 2855 752 
Q 3116 1113 3116 1747 
z
M 1159 2969 
Q 1341 3281 1617 3432 
Q 1894 3584 2278 3584 
Q 2916 3584 3314 3078 
Q 3713 2572 3713 1747 
Q 3713 922 3314 415 
Q 2916 -91 2278 -91 
Q 1894 -91 1617 61 
Q 1341 213 1159 525 
L 1159 0 
L 581 0 
L 581 4863 
L 1159 4863 
L 1159 2969 
z
" id="DejaVuSans-62" transform="scale(0.015625)"/>
       </defs>
       <use xlink:href="#DejaVuSans-54"/>
       <use x="45.458984" xlink:href="#DejaVuSans-79"/>
       <use x="104.638672" xlink:href="#DejaVuSans-70"/>
       <use x="168.115234" xlink:href="#DejaVuSans-65"/>
       <use x="229.638672" xlink:href="#DejaVuSans-31"/>
       <use x="293.261719" xlink:href="#DejaVuSans-5f"/>
       <use x="343.261719" xlink:href="#DejaVuSans-73"/>
       <use x="395.361328" xlink:href="#DejaVuSans-6f"/>
       <use x="456.542969" xlink:href="#DejaVuSans-63"/>
       <use x="511.523438" xlink:href="#DejaVuSans-69"/>
       <use x="539.306641" xlink:href="#DejaVuSans-61"/>
       <use x="600.585938" xlink:href="#DejaVuSans-6c"/>
       <use x="628.369141" xlink:href="#DejaVuSans-5f"/>
       <use x="678.369141" xlink:href="#DejaVuSans-70"/>
       <use x="741.845703" xlink:href="#DejaVuSans-68"/>
       <use x="805.224609" xlink:href="#DejaVuSans-6f"/>
       <use x="866.40625" xlink:href="#DejaVuSans-62"/>
       <use x="929.882812" xlink:href="#DejaVuSans-69"/>
       <use x="957.666016" xlink:href="#DejaVuSans-61"/>
      </g>
     </g>
    </g>
    <g id="xtick_5">
     <g id="line2d_5">
      <g>
       <use style="stroke:#000000;stroke-width:0.8;" x="947.52" xlink:href="#m5c249393a3" y="640.8"/>
      </g>
     </g>
     <g id="text_5">
      <!-- Type2_social_phobia -->
      <g transform="translate(896.570781 655.398438)scale(0.1 -0.1)">
       <use xlink:href="#DejaVuSans-54"/>
       <use x="45.458984" xlink:href="#DejaVuSans-79"/>
       <use x="104.638672" xlink:href="#DejaVuSans-70"/>
       <use x="168.115234" xlink:href="#DejaVuSans-65"/>
       <use x="229.638672" xlink:href="#DejaVuSans-32"/>
       <use x="293.261719" xlink:href="#DejaVuSans-5f"/>
       <use x="343.261719" xlink:href="#DejaVuSans-73"/>
       <use x="395.361328" xlink:href="#DejaVuSans-6f"/>
       <use x="456.542969" xlink:href="#DejaVuSans-63"/>
       <use x="511.523438" xlink:href="#DejaVuSans-69"/>
       <use x="539.306641" xlink:href="#DejaVuSans-61"/>
       <use x="600.585938" xlink:href="#DejaVuSans-6c"/>
       <use x="628.369141" xlink:href="#DejaVuSans-5f"/>
       <use x="678.369141" xlink:href="#DejaVuSans-70"/>
       <use x="741.845703" xlink:href="#DejaVuSans-68"/>
       <use x="805.224609" xlink:href="#DejaVuSans-6f"/>
       <use x="866.40625" xlink:href="#DejaVuSans-62"/>
       <use x="929.882812" xlink:href="#DejaVuSans-69"/>
       <use x="957.666016" xlink:href="#DejaVuSans-61"/>
      </g>
     </g>
    </g>
   </g>
   <g id="matplotlib.axis_2">
    <g id="ytick_1">
     <g id="line2d_6">
      <defs>
       <path d="M 0 0 
L -3.5 0 
" id="m22a561794e" style="stroke:#000000;stroke-width:0.8;"/>
      </defs>
      <g>
       <use style="stroke:#000000;stroke-width:0.8;" x="144" xlink:href="#m22a561794e" y="628.394377"/>
      </g>
     </g>
     <g id="text_6">
      <!-- 50 -->
      <g transform="translate(124.275 632.193596)scale(0.1 -0.1)">
       <defs>
        <path d="M 691 4666 
L 3169 4666 
L 3169 4134 
L 1269 4134 
L 1269 2991 
Q 1406 3038 1543 3061 
Q 1681 3084 1819 3084 
Q 2600 3084 3056 2656 
Q 3513 2228 3513 1497 
Q 3513 744 3044 326 
Q 2575 -91 1722 -91 
Q 1428 -91 1123 -41 
Q 819 9 494 109 
L 494 744 
Q 775 591 1075 516 
Q 1375 441 1709 441 
Q 2250 441 2565 725 
Q 2881 1009 2881 1497 
Q 2881 1984 2565 2268 
Q 2250 2553 1709 2553 
Q 1456 2553 1204 2497 
Q 953 2441 691 2322 
L 691 4666 
z
" id="DejaVuSans-35" transform="scale(0.015625)"/>
        <path d="M 2034 4250 
Q 1547 4250 1301 3770 
Q 1056 3291 1056 2328 
Q 1056 1369 1301 889 
Q 1547 409 2034 409 
Q 2525 409 2770 889 
Q 3016 1369 3016 2328 
Q 3016 3291 2770 3770 
Q 2525 4250 2034 4250 
z
M 2034 4750 
Q 2819 4750 3233 4129 
Q 3647 3509 3647 2328 
Q 3647 1150 3233 529 
Q 2819 -91 2034 -91 
Q 1250 -91 836 529 
Q 422 1150 422 2328 
Q 422 3509 836 4129 
Q 1250 4750 2034 4750 
z
" id="DejaVuSans-30" transform="scale(0.015625)"/>
       </defs>
       <use xlink:href="#DejaVuSans-35"/>
       <use x="63.623047" xlink:href="#DejaVuSans-30"/>
      </g>
     </g>
    </g>
    <g id="ytick_2">
     <g id="line2d_7">
      <g>
       <use style="stroke:#000000;stroke-width:0.8;" x="144" xlink:href="#m22a561794e" y="546.87637"/>
      </g>
     </g>
     <g id="text_7">
      <!-- 60 -->
      <g transform="translate(124.275 550.675589)scale(0.1 -0.1)">
       <defs>
        <path d="M 2113 2584 
Q 1688 2584 1439 2293 
Q 1191 2003 1191 1497 
Q 1191 994 1439 701 
Q 1688 409 2113 409 
Q 2538 409 2786 701 
Q 3034 994 3034 1497 
Q 3034 2003 2786 2293 
Q 2538 2584 2113 2584 
z
M 3366 4563 
L 3366 3988 
Q 3128 4100 2886 4159 
Q 2644 4219 2406 4219 
Q 1781 4219 1451 3797 
Q 1122 3375 1075 2522 
Q 1259 2794 1537 2939 
Q 1816 3084 2150 3084 
Q 2853 3084 3261 2657 
Q 3669 2231 3669 1497 
Q 3669 778 3244 343 
Q 2819 -91 2113 -91 
Q 1303 -91 875 529 
Q 447 1150 447 2328 
Q 447 3434 972 4092 
Q 1497 4750 2381 4750 
Q 2619 4750 2861 4703 
Q 3103 4656 3366 4563 
z
" id="DejaVuSans-36" transform="scale(0.015625)"/>
       </defs>
       <use xlink:href="#DejaVuSans-36"/>
       <use x="63.623047" xlink:href="#DejaVuSans-30"/>
      </g>
     </g>
    </g>
    <g id="ytick_3">
     <g id="line2d_8">
      <g>
       <use style="stroke:#000000;stroke-width:0.8;" x="144" xlink:href="#m22a561794e" y="465.358363"/>
      </g>
     </g>
     <g id="text_8">
      <!-- 70 -->
      <g transform="translate(124.275 469.157582)scale(0.1 -0.1)">
       <defs>
        <path d="M 525 4666 
L 3525 4666 
L 3525 4397 
L 1831 0 
L 1172 0 
L 2766 4134 
L 525 4134 
L 525 4666 
z
" id="DejaVuSans-37" transform="scale(0.015625)"/>
       </defs>
       <use xlink:href="#DejaVuSans-37"/>
       <use x="63.623047" xlink:href="#DejaVuSans-30"/>
      </g>
     </g>
    </g>
    <g id="ytick_4">
     <g id="line2d_9">
      <g>
       <use style="stroke:#000000;stroke-width:0.8;" x="144" xlink:href="#m22a561794e" y="383.840356"/>
      </g>
     </g>
     <g id="text_9">
      <!-- 80 -->
      <g transform="translate(124.275 387.639575)scale(0.1 -0.1)">
       <defs>
        <path d="M 2034 2216 
Q 1584 2216 1326 1975 
Q 1069 1734 1069 1313 
Q 1069 891 1326 650 
Q 1584 409 2034 409 
Q 2484 409 2743 651 
Q 3003 894 3003 1313 
Q 3003 1734 2745 1975 
Q 2488 2216 2034 2216 
z
M 1403 2484 
Q 997 2584 770 2862 
Q 544 3141 544 3541 
Q 544 4100 942 4425 
Q 1341 4750 2034 4750 
Q 2731 4750 3128 4425 
Q 3525 4100 3525 3541 
Q 3525 3141 3298 2862 
Q 3072 2584 2669 2484 
Q 3125 2378 3379 2068 
Q 3634 1759 3634 1313 
Q 3634 634 3220 271 
Q 2806 -91 2034 -91 
Q 1263 -91 848 271 
Q 434 634 434 1313 
Q 434 1759 690 2068 
Q 947 2378 1403 2484 
z
M 1172 3481 
Q 1172 3119 1398 2916 
Q 1625 2713 2034 2713 
Q 2441 2713 2670 2916 
Q 2900 3119 2900 3481 
Q 2900 3844 2670 4047 
Q 2441 4250 2034 4250 
Q 1625 4250 1398 4047 
Q 1172 3844 1172 3481 
z
" id="DejaVuSans-38" transform="scale(0.015625)"/>
       </defs>
       <use xlink:href="#DejaVuSans-38"/>
       <use x="63.623047" xlink:href="#DejaVuSans-30"/>
      </g>
     </g>
    </g>
    <g id="ytick_5">
     <g id="line2d_10">
      <g>
       <use style="stroke:#000000;stroke-width:0.8;" x="144" xlink:href="#m22a561794e" y="302.322349"/>
      </g>
     </g>
     <g id="text_10">
      <!-- 90 -->
      <g transform="translate(124.275 306.121568)scale(0.1 -0.1)">
       <defs>
        <path d="M 703 97 
L 703 672 
Q 941 559 1184 500 
Q 1428 441 1663 441 
Q 2288 441 2617 861 
Q 2947 1281 2994 2138 
Q 2813 1869 2534 1725 
Q 2256 1581 1919 1581 
Q 1219 1581 811 2004 
Q 403 2428 403 3163 
Q 403 3881 828 4315 
Q 1253 4750 1959 4750 
Q 2769 4750 3195 4129 
Q 3622 3509 3622 2328 
Q 3622 1225 3098 567 
Q 2575 -91 1691 -91 
Q 1453 -91 1209 -44 
Q 966 3 703 97 
z
M 1959 2075 
Q 2384 2075 2632 2365 
Q 2881 2656 2881 3163 
Q 2881 3666 2632 3958 
Q 2384 4250 1959 4250 
Q 1534 4250 1286 3958 
Q 1038 3666 1038 3163 
Q 1038 2656 1286 2365 
Q 1534 2075 1959 2075 
z
" id="DejaVuSans-39" transform="scale(0.015625)"/>
       </defs>
       <use xlink:href="#DejaVuSans-39"/>
       <use x="63.623047" xlink:href="#DejaVuSans-30"/>
      </g>
     </g>
    </g>
    <g id="ytick_6">
     <g id="line2d_11">
      <g>
       <use style="stroke:#000000;stroke-width:0.8;" x="144" xlink:href="#m22a561794e" y="220.804342"/>
      </g>
     </g>
     <g id="text_11">
      <!-- 100 -->
      <g transform="translate(117.9125 224.603561)scale(0.1 -0.1)">
       <use xlink:href="#DejaVuSans-31"/>
       <use x="63.623047" xlink:href="#DejaVuSans-30"/>
       <use x="127.246094" xlink:href="#DejaVuSans-30"/>
      </g>
     </g>
    </g>
    <g id="ytick_7">
     <g id="line2d_12">
      <g>
       <use style="stroke:#000000;stroke-width:0.8;" x="144" xlink:href="#m22a561794e" y="139.286335"/>
      </g>
     </g>
     <g id="text_12">
      <!-- 110 -->
      <g transform="translate(117.9125 143.085554)scale(0.1 -0.1)">
       <use xlink:href="#DejaVuSans-31"/>
       <use x="63.623047" xlink:href="#DejaVuSans-31"/>
       <use x="127.246094" xlink:href="#DejaVuSans-30"/>
      </g>
     </g>
    </g>
   </g>
   <g id="line2d_13">
    <path clip-path="url(#p1b1005d673)" d="M 233.28 477.586064 
L 233.28 196.34894 
" style="fill:none;stroke:#4d4d4d;stroke-linecap:square;stroke-width:1.5;"/>
   </g>
   <g id="line2d_14">
    <path clip-path="url(#p1b1005d673)" d="M 233.28 398.106007 
L 233.28 314.55005 
" style="fill:none;stroke:#4d4d4d;stroke-linecap:square;stroke-width:4.5;"/>
   </g>
   <g id="line2d_15">
    <path clip-path="url(#p1b1005d673)" d="M 411.84 522.420968 
L 411.84 355.309054 
" style="fill:none;stroke:#4d4d4d;stroke-linecap:square;stroke-width:1.5;"/>
   </g>
   <g id="line2d_16">
    <path clip-path="url(#p1b1005d673)" d="M 411.84 473.510164 
L 411.84 424.59936 
" style="fill:none;stroke:#4d4d4d;stroke-linecap:square;stroke-width:4.5;"/>
   </g>
   <g id="line2d_17">
    <path clip-path="url(#p1b1005d673)" d="M 590.4 546.87637 
L 590.4 387.916256 
" style="fill:none;stroke:#4d4d4d;stroke-linecap:square;stroke-width:1.5;"/>
   </g>
   <g id="line2d_18">
    <path clip-path="url(#p1b1005d673)" d="M 590.4 531.591744 
L 590.4 467.396313 
" style="fill:none;stroke:#4d4d4d;stroke-linecap:square;stroke-width:4.5;"/>
   </g>
   <g id="line2d_19">
    <path clip-path="url(#p1b1005d673)" d="M 697.536 538.724569 
L 840.384 538.724569 
" style="fill:none;stroke:#4d4d4d;stroke-linecap:square;stroke-width:1.5;"/>
   </g>
   <g id="line2d_20">
    <path clip-path="url(#p1b1005d673)" d="M 876.096 538.724569 
L 1018.944 538.724569 
" style="fill:none;stroke:#4d4d4d;stroke-linecap:square;stroke-width:1.5;"/>
   </g>
   <g id="patch_3">
    <path d="M 144 640.8 
L 144 86.4 
" style="fill:none;stroke:#000000;stroke-linecap:square;stroke-linejoin:miter;stroke-width:0.8;"/>
   </g>
   <g id="patch_4">
    <path d="M 1036.8 640.8 
L 1036.8 86.4 
" style="fill:none;stroke:#000000;stroke-linecap:square;stroke-linejoin:miter;stroke-width:0.8;"/>
   </g>
   <g id="patch_5">
    <path d="M 144 640.8 
L 1036.8 640.8 
" style="fill:none;stroke:#000000;stroke-linecap:square;stroke-linejoin:miter;stroke-width:0.8;"/>
   </g>
   <g id="patch_6">
    <path d="M 144 86.4 
L 1036.8 86.4 
" style="fill:none;stroke:#000000;stroke-linecap:square;stroke-linejoin:miter;stroke-width:0.8;"/>
   </g>
   <g id="PathCollection_1">
    <defs>
     <path d="M 0 1.5 
C 0.397805 1.5 0.77937 1.341951 1.06066 1.06066 
C 1.341951 0.77937 1.5 0.397805 1.5 0 
C 1.5 -0.397805 1.341951 -0.77937 1.06066 -1.06066 
C 0.77937 -1.341951 0.397805 -1.5 0 -1.5 
C -0.397805 -1.5 -0.77937 -1.341951 -1.06066 -1.06066 
C -1.341951 -0.77937 -1.5 -0.397805 -1.5 0 
C -1.5 0.397805 -1.341951 0.77937 -1.06066 1.06066 
C -0.77937 1.341951 -0.397805 1.5 0 1.5 
z
" id="m58318b2d35" style="stroke:#4d4d4d;"/>
    </defs>
    <g clip-path="url(#p1b1005d673)">
     <use style="fill:#ffffff;stroke:#4d4d4d;" x="233.28" xlink:href="#m58318b2d35" y="369.574705"/>
    </g>
   </g>
   <g id="PathCollection_2">
    <g clip-path="url(#p1b1005d673)">
     <use style="fill:#ffffff;stroke:#4d4d4d;" x="411.84" xlink:href="#m58318b2d35" y="444.978861"/>
    </g>
   </g>
   <g id="PathCollection_3">
    <g clip-path="url(#p1b1005d673)">
     <use style="fill:#ffffff;stroke:#4d4d4d;" x="590.4" xlink:href="#m58318b2d35" y="495.927616"/>
    </g>
   </g>
   <g id="text_13">
    <!-- Rewards earned per agent type - cooperative context first -->
    <g transform="translate(226.825781 80.4)scale(0.25 -0.25)">
     <defs>
      <path d="M 2841 2188 
Q 3044 2119 3236 1894 
Q 3428 1669 3622 1275 
L 4263 0 
L 3584 0 
L 2988 1197 
Q 2756 1666 2539 1819 
Q 2322 1972 1947 1972 
L 1259 1972 
L 1259 0 
L 628 0 
L 628 4666 
L 2053 4666 
Q 2853 4666 3247 4331 
Q 3641 3997 3641 3322 
Q 3641 2881 3436 2590 
Q 3231 2300 2841 2188 
z
M 1259 4147 
L 1259 2491 
L 2053 2491 
Q 2509 2491 2742 2702 
Q 2975 2913 2975 3322 
Q 2975 3731 2742 3939 
Q 2509 4147 2053 4147 
L 1259 4147 
z
" id="DejaVuSans-52" transform="scale(0.015625)"/>
      <path d="M 269 3500 
L 844 3500 
L 1563 769 
L 2278 3500 
L 2956 3500 
L 3675 769 
L 4391 3500 
L 4966 3500 
L 4050 0 
L 3372 0 
L 2619 2869 
L 1863 0 
L 1184 0 
L 269 3500 
z
" id="DejaVuSans-77" transform="scale(0.015625)"/>
      <path id="DejaVuSans-20" transform="scale(0.015625)"/>
      <path d="M 3513 2113 
L 3513 0 
L 2938 0 
L 2938 2094 
Q 2938 2591 2744 2837 
Q 2550 3084 2163 3084 
Q 1697 3084 1428 2787 
Q 1159 2491 1159 1978 
L 1159 0 
L 581 0 
L 581 3500 
L 1159 3500 
L 1159 2956 
Q 1366 3272 1645 3428 
Q 1925 3584 2291 3584 
Q 2894 3584 3203 3211 
Q 3513 2838 3513 2113 
z
" id="DejaVuSans-6e" transform="scale(0.015625)"/>
      <path d="M 2906 1791 
Q 2906 2416 2648 2759 
Q 2391 3103 1925 3103 
Q 1463 3103 1205 2759 
Q 947 2416 947 1791 
Q 947 1169 1205 825 
Q 1463 481 1925 481 
Q 2391 481 2648 825 
Q 2906 1169 2906 1791 
z
M 3481 434 
Q 3481 -459 3084 -895 
Q 2688 -1331 1869 -1331 
Q 1566 -1331 1297 -1286 
Q 1028 -1241 775 -1147 
L 775 -588 
Q 1028 -725 1275 -790 
Q 1522 -856 1778 -856 
Q 2344 -856 2625 -561 
Q 2906 -266 2906 331 
L 2906 616 
Q 2728 306 2450 153 
Q 2172 0 1784 0 
Q 1141 0 747 490 
Q 353 981 353 1791 
Q 353 2603 747 3093 
Q 1141 3584 1784 3584 
Q 2172 3584 2450 3431 
Q 2728 3278 2906 2969 
L 2906 3500 
L 3481 3500 
L 3481 434 
z
" id="DejaVuSans-67" transform="scale(0.015625)"/>
      <path d="M 313 2009 
L 1997 2009 
L 1997 1497 
L 313 1497 
L 313 2009 
z
" id="DejaVuSans-2d" transform="scale(0.015625)"/>
      <path d="M 191 3500 
L 800 3500 
L 1894 563 
L 2988 3500 
L 3597 3500 
L 2284 0 
L 1503 0 
L 191 3500 
z
" id="DejaVuSans-76" transform="scale(0.015625)"/>
      <path d="M 3513 3500 
L 2247 1797 
L 3578 0 
L 2900 0 
L 1881 1375 
L 863 0 
L 184 0 
L 1544 1831 
L 300 3500 
L 978 3500 
L 1906 2253 
L 2834 3500 
L 3513 3500 
z
" id="DejaVuSans-78" transform="scale(0.015625)"/>
      <path d="M 2375 4863 
L 2375 4384 
L 1825 4384 
Q 1516 4384 1395 4259 
Q 1275 4134 1275 3809 
L 1275 3500 
L 2222 3500 
L 2222 3053 
L 1275 3053 
L 1275 0 
L 697 0 
L 697 3053 
L 147 3053 
L 147 3500 
L 697 3500 
L 697 3744 
Q 697 4328 969 4595 
Q 1241 4863 1831 4863 
L 2375 4863 
z
" id="DejaVuSans-66" transform="scale(0.015625)"/>
     </defs>
     <use xlink:href="#DejaVuSans-52"/>
     <use x="64.982422" xlink:href="#DejaVuSans-65"/>
     <use x="126.505859" xlink:href="#DejaVuSans-77"/>
     <use x="208.292969" xlink:href="#DejaVuSans-61"/>
     <use x="269.572266" xlink:href="#DejaVuSans-72"/>
     <use x="308.935547" xlink:href="#DejaVuSans-64"/>
     <use x="372.412109" xlink:href="#DejaVuSans-73"/>
     <use x="424.511719" xlink:href="#DejaVuSans-20"/>
     <use x="456.298828" xlink:href="#DejaVuSans-65"/>
     <use x="517.822266" xlink:href="#DejaVuSans-61"/>
     <use x="579.101562" xlink:href="#DejaVuSans-72"/>
     <use x="618.464844" xlink:href="#DejaVuSans-6e"/>
     <use x="681.84375" xlink:href="#DejaVuSans-65"/>
     <use x="743.367188" xlink:href="#DejaVuSans-64"/>
     <use x="806.84375" xlink:href="#DejaVuSans-20"/>
     <use x="838.630859" xlink:href="#DejaVuSans-70"/>
     <use x="902.107422" xlink:href="#DejaVuSans-65"/>
     <use x="963.630859" xlink:href="#DejaVuSans-72"/>
     <use x="1004.744141" xlink:href="#DejaVuSans-20"/>
     <use x="1036.53125" xlink:href="#DejaVuSans-61"/>
     <use x="1097.810547" xlink:href="#DejaVuSans-67"/>
     <use x="1161.287109" xlink:href="#DejaVuSans-65"/>
     <use x="1222.810547" xlink:href="#DejaVuSans-6e"/>
     <use x="1286.189453" xlink:href="#DejaVuSans-74"/>
     <use x="1325.398438" xlink:href="#DejaVuSans-20"/>
     <use x="1357.185547" xlink:href="#DejaVuSans-74"/>
     <use x="1396.394531" xlink:href="#DejaVuSans-79"/>
     <use x="1455.574219" xlink:href="#DejaVuSans-70"/>
     <use x="1519.050781" xlink:href="#DejaVuSans-65"/>
     <use x="1580.574219" xlink:href="#DejaVuSans-20"/>
     <use x="1612.361328" xlink:href="#DejaVuSans-2d"/>
     <use x="1648.445312" xlink:href="#DejaVuSans-20"/>
     <use x="1680.232422" xlink:href="#DejaVuSans-63"/>
     <use x="1735.212891" xlink:href="#DejaVuSans-6f"/>
     <use x="1796.394531" xlink:href="#DejaVuSans-6f"/>
     <use x="1857.576172" xlink:href="#DejaVuSans-70"/>
     <use x="1921.052734" xlink:href="#DejaVuSans-65"/>
     <use x="1982.576172" xlink:href="#DejaVuSans-72"/>
     <use x="2023.689453" xlink:href="#DejaVuSans-61"/>
     <use x="2084.96875" xlink:href="#DejaVuSans-74"/>
     <use x="2124.177734" xlink:href="#DejaVuSans-69"/>
     <use x="2151.960938" xlink:href="#DejaVuSans-76"/>
     <use x="2211.140625" xlink:href="#DejaVuSans-65"/>
     <use x="2272.664062" xlink:href="#DejaVuSans-20"/>
     <use x="2304.451172" xlink:href="#DejaVuSans-63"/>
     <use x="2359.431641" xlink:href="#DejaVuSans-6f"/>
     <use x="2420.613281" xlink:href="#DejaVuSans-6e"/>
     <use x="2483.992188" xlink:href="#DejaVuSans-74"/>
     <use x="2523.201172" xlink:href="#DejaVuSans-65"/>
     <use x="2582.974609" xlink:href="#DejaVuSans-78"/>
     <use x="2642.154297" xlink:href="#DejaVuSans-74"/>
     <use x="2681.363281" xlink:href="#DejaVuSans-20"/>
     <use x="2713.150391" xlink:href="#DejaVuSans-66"/>
     <use x="2748.355469" xlink:href="#DejaVuSans-69"/>
     <use x="2776.138672" xlink:href="#DejaVuSans-72"/>
     <use x="2817.251953" xlink:href="#DejaVuSans-73"/>
     <use x="2869.351562" xlink:href="#DejaVuSans-74"/>
    </g>
   </g>
  </g>
 </g>
 <defs>
  <clipPath id="p1b1005d673">
   <rect height="554.4" width="892.8" x="144" y="86.4"/>
  </clipPath>
 </defs>
</svg>
