<?xml version="1.0" encoding="utf-8" standalone="no"?>
<!DOCTYPE svg PUBLIC "-//W3C//DTD SVG 1.1//EN"
  "http://www.w3.org/Graphics/SVG/1.1/DTD/svg11.dtd">
<svg height="720pt" version="1.1" viewBox="0 0 1152 720" width="1152pt" xmlns="http://www.w3.org/2000/svg" xmlns:xlink="http://www.w3.org/1999/xlink">
 <metadata>
  <rdf:RDF xmlns:cc="http://creativecommons.org/ns#" xmlns:dc="http://purl.org/dc/elements/1.1/" xmlns:rdf="http://www.w3.org/1999/02/22-rdf-syntax-ns#">
   <cc:Work>
    <dc:type rdf:resource="http://purl.org/dc/dcmitype/StillImage"/>
    <dc:date>2024-06-18T15:49:45.223313</dc:date>
    <dc:format>image/svg+xml</dc:format>
    <dc:creator>
     <cc:Agent>
      <dc:title>Matplotlib v3.4.3, https://matplotlib.org/</dc:title>
     </cc:Agent>
    </dc:creator>
   </cc:Work>
  </rdf:RDF>
 </metadata>
 <defs>
  <style type="text/css">*{stroke-linecap:butt;stroke-linejoin:round;}</style>
 </defs>
 <g id="figure_1">
  <g id="patch_1">
   <path d="M 0 720 
L 1152 720 
L 1152 0 
L 0 0 
z
" style="fill:#ffffff;"/>
  </g>
  <g id="axes_1">
   <g id="patch_2">
    <path d="M 144 640.8 
L 1036.8 640.8 
L 1036.8 86.4 
L 144 86.4 
z
" style="fill:#ffffff;"/>
   </g>
   <g id="PolyCollection_1">
    <defs>
     <path d="M 193.710024 -201.449293 
L 193.489976 -201.449293 
L 193.460953 -205.076348 
L 193.426812 -208.703403 
L 193.387403 -212.330458 
L 193.342792 -215.957513 
L 193.293307 -219.584568 
L 193.239569 -223.211624 
L 193.182506 -226.838679 
L 193.123345 -230.465734 
L 193.063581 -234.092789 
L 193.004911 -237.719844 
L 192.949151 -241.346899 
L 192.89812 -244.973954 
L 192.853517 -248.601009 
L 192.816787 -252.228064 
L 192.788987 -255.85512 
L 192.770673 -259.482175 
L 192.7618 -263.10923 
L 192.761665 -266.736285 
L 192.768875 -270.36334 
L 192.781364 -273.990395 
L 192.796439 -277.61745 
L 192.810865 -281.244505 
L 192.820975 -284.871561 
L 192.822804 -288.498616 
L 192.81223 -292.125671 
L 192.785127 -295.752726 
L 192.737504 -299.379781 
L 192.665652 -303.006836 
L 192.566266 -306.633891 
L 192.436564 -310.260946 
L 192.274383 -313.888001 
L 192.078263 -317.515057 
L 191.84751 -321.142112 
L 191.582247 -324.769167 
L 191.283437 -328.396222 
L 190.952896 -332.023277 
L 190.593278 -335.650332 
L 190.208045 -339.277387 
L 189.801411 -342.904442 
L 189.378265 -346.531497 
L 188.944079 -350.158553 
L 188.504784 -353.785608 
L 188.066642 -357.412663 
L 187.636091 -361.039718 
L 187.219579 -364.666773 
L 186.8234 -368.293828 
L 186.453514 -371.920883 
L 186.115384 -375.547938 
L 185.813815 -379.174993 
L 185.552823 -382.802049 
L 185.335523 -386.429104 
L 185.164056 -390.056159 
L 185.039549 -393.683214 
L 184.962116 -397.310269 
L 184.930897 -400.937324 
L 184.944124 -404.564379 
L 184.999222 -408.191434 
L 185.092928 -411.818489 
L 185.221424 -415.445545 
L 185.38048 -419.0726 
L 185.5656 -422.699655 
L 185.772173 -426.32671 
L 185.995616 -429.953765 
L 186.231526 -433.58082 
L 186.475815 -437.207875 
L 186.724844 -440.83493 
L 186.975536 -444.461985 
L 187.225475 -448.089041 
L 187.472963 -451.716096 
L 187.717047 -455.343151 
L 187.957497 -458.970206 
L 188.194732 -462.597261 
L 188.429704 -466.224316 
L 188.66374 -469.851371 
L 188.898351 -473.478426 
L 189.135036 -477.105481 
L 189.375078 -480.732537 
L 189.619377 -484.359592 
L 189.868306 -487.986647 
L 190.121633 -491.613702 
L 190.378483 -495.240757 
L 190.637374 -498.867812 
L 190.896296 -502.494867 
L 191.152839 -506.121922 
L 191.404343 -509.748978 
L 191.648074 -513.376033 
L 191.881385 -517.003088 
L 192.101876 -520.630143 
L 192.307512 -524.257198 
L 192.496724 -527.884253 
L 192.668453 -531.511308 
L 192.822174 -535.138363 
L 192.957871 -538.765418 
L 193.075994 -542.392474 
L 193.177385 -546.019529 
L 193.263199 -549.646584 
L 193.334812 -553.273639 
L 193.393738 -556.900694 
L 193.441543 -560.527749 
L 193.758457 -560.527749 
L 193.758457 -560.527749 
L 193.806262 -556.900694 
L 193.865188 -553.273639 
L 193.936801 -549.646584 
L 194.022615 -546.019529 
L 194.124006 -542.392474 
L 194.242129 -538.765418 
L 194.377826 -535.138363 
L 194.531547 -531.511308 
L 194.703276 -527.884253 
L 194.892488 -524.257198 
L 195.098124 -520.630143 
L 195.318615 -517.003088 
L 195.551926 -513.376033 
L 195.795657 -509.748978 
L 196.047161 -506.121922 
L 196.303704 -502.494867 
L 196.562626 -498.867812 
L 196.821517 -495.240757 
L 197.078367 -491.613702 
L 197.331694 -487.986647 
L 197.580623 -484.359592 
L 197.824922 -480.732537 
L 198.064964 -477.105481 
L 198.301649 -473.478426 
L 198.53626 -469.851371 
L 198.770296 -466.224316 
L 199.005268 -462.597261 
L 199.242503 -458.970206 
L 199.482953 -455.343151 
L 199.727037 -451.716096 
L 199.974525 -448.089041 
L 200.224464 -444.461985 
L 200.475156 -440.83493 
L 200.724185 -437.207875 
L 200.968474 -433.58082 
L 201.204384 -429.953765 
L 201.427827 -426.32671 
L 201.6344 -422.699655 
L 201.81952 -419.0726 
L 201.978576 -415.445545 
L 202.107072 -411.818489 
L 202.200778 -408.191434 
L 202.255876 -404.564379 
L 202.269103 -400.937324 
L 202.237884 -397.310269 
L 202.160451 -393.683214 
L 202.035944 -390.056159 
L 201.864477 -386.429104 
L 201.647177 -382.802049 
L 201.386185 -379.174993 
L 201.084616 -375.547938 
L 200.746486 -371.920883 
L 200.3766 -368.293828 
L 199.980421 -364.666773 
L 199.563909 -361.039718 
L 199.133358 -357.412663 
L 198.695216 -353.785608 
L 198.255921 -350.158553 
L 197.821735 -346.531497 
L 197.398589 -342.904442 
L 196.991955 -339.277387 
L 196.606722 -335.650332 
L 196.247104 -332.023277 
L 195.916563 -328.396222 
L 195.617753 -324.769167 
L 195.35249 -321.142112 
L 195.121737 -317.515057 
L 194.925617 -313.888001 
L 194.763436 -310.260946 
L 194.633734 -306.633891 
L 194.534348 -303.006836 
L 194.462496 -299.379781 
L 194.414873 -295.752726 
L 194.38777 -292.125671 
L 194.377196 -288.498616 
L 194.379025 -284.871561 
L 194.389135 -281.244505 
L 194.403561 -277.61745 
L 194.418636 -273.990395 
L 194.431125 -270.36334 
L 194.438335 -266.736285 
L 194.4382 -263.10923 
L 194.429327 -259.482175 
L 194.411013 -255.85512 
L 194.383213 -252.228064 
L 194.346483 -248.601009 
L 194.30188 -244.973954 
L 194.250849 -241.346899 
L 194.195089 -237.719844 
L 194.136419 -234.092789 
L 194.076655 -230.465734 
L 194.017494 -226.838679 
L 193.960431 -223.211624 
L 193.906693 -219.584568 
L 193.857208 -215.957513 
L 193.812597 -212.330458 
L 193.773188 -208.703403 
L 193.739047 -205.076348 
L 193.710024 -201.449293 
z
" id="mef487228b7" style="stroke:#484848;stroke-width:1.5;"/>
    </defs>
    <g clip-path="url(#p89b20243cd)">
     <use style="fill:#c1505d;stroke:#484848;stroke-width:1.5;" x="0" xlink:href="#mef487228b7" y="720"/>
    </g>
   </g>
   <g id="PolyCollection_2">
    <defs>
     <path d="M 293.392009 -177.946373 
L 292.207991 -177.946373 
L 292.074129 -178.85492 
L 291.916039 -179.763467 
L 291.730797 -180.672014 
L 291.515448 -181.580561 
L 291.267083 -182.489108 
L 290.982928 -183.397656 
L 290.660441 -184.306203 
L 290.297427 -185.21475 
L 289.892142 -186.123297 
L 289.44342 -187.031844 
L 288.950775 -187.940391 
L 288.414512 -188.848939 
L 287.835808 -189.757486 
L 287.216787 -190.666033 
L 286.560558 -191.57458 
L 285.87123 -192.483127 
L 285.153889 -193.391674 
L 284.414539 -194.300222 
L 283.660012 -195.208769 
L 282.897836 -196.117316 
L 282.136077 -197.025863 
L 281.38315 -197.93441 
L 280.647614 -198.842957 
L 279.937959 -199.751505 
L 279.262381 -200.660052 
L 278.628573 -201.568599 
L 278.043527 -202.477146 
L 277.513365 -203.385693 
L 277.043189 -204.29424 
L 276.63698 -205.202788 
L 276.297518 -206.111335 
L 276.026351 -207.019882 
L 275.823788 -207.928429 
L 275.688931 -208.836976 
L 275.619717 -209.745523 
L 275.612998 -210.654071 
L 275.664608 -211.562618 
L 275.769459 -212.471165 
L 275.921619 -213.379712 
L 276.114397 -214.288259 
L 276.340421 -215.196806 
L 276.591717 -216.105354 
L 276.859779 -217.013901 
L 277.135651 -217.922448 
L 277.410017 -218.830995 
L 277.673297 -219.739542 
L 277.915776 -220.648089 
L 278.127746 -221.556637 
L 278.299684 -222.465184 
L 278.422447 -223.373731 
L 278.487505 -224.282278 
L 278.487186 -225.190825 
L 278.41494 -226.099373 
L 278.265608 -227.00792 
L 278.035685 -227.916467 
L 277.723562 -228.825014 
L 277.32974 -229.733561 
L 276.856997 -230.642108 
L 276.310499 -231.550656 
L 275.697838 -232.459203 
L 275.029002 -233.36775 
L 274.316251 -234.276297 
L 273.573916 -235.184844 
L 272.818109 -236.093391 
L 272.06635 -237.001939 
L 271.337131 -237.910486 
L 270.649416 -238.819033 
L 270.022101 -239.72758 
L 269.473447 -240.636127 
L 269.020519 -241.544674 
L 268.678639 -242.453222 
L 268.460887 -243.361769 
L 268.377663 -244.270316 
L 268.436336 -245.178863 
L 268.640997 -246.08741 
L 268.992317 -246.995957 
L 269.487536 -247.904505 
L 270.120561 -248.813052 
L 270.88219 -249.721599 
L 271.760442 -250.630146 
L 272.740968 -251.538693 
L 273.807555 -252.44724 
L 274.942654 -253.355788 
L 276.127958 -254.264335 
L 277.344963 -255.172882 
L 278.575514 -256.081429 
L 279.802304 -256.989976 
L 281.009311 -257.898523 
L 282.182154 -258.807071 
L 283.308369 -259.715618 
L 284.377589 -260.624165 
L 285.381631 -261.532712 
L 286.314509 -262.441259 
L 287.172352 -263.349806 
L 287.953273 -264.258354 
L 288.657177 -265.166901 
L 289.28553 -266.075448 
L 289.841109 -266.983995 
L 290.327738 -267.892542 
L 295.272262 -267.892542 
L 295.272262 -267.892542 
L 295.758891 -266.983995 
L 296.31447 -266.075448 
L 296.942823 -265.166901 
L 297.646727 -264.258354 
L 298.427648 -263.349806 
L 299.285491 -262.441259 
L 300.218369 -261.532712 
L 301.222411 -260.624165 
L 302.291631 -259.715618 
L 303.417846 -258.807071 
L 304.590689 -257.898523 
L 305.797696 -256.989976 
L 307.024486 -256.081429 
L 308.255037 -255.172882 
L 309.472042 -254.264335 
L 310.657346 -253.355788 
L 311.792445 -252.44724 
L 312.859032 -251.538693 
L 313.839558 -250.630146 
L 314.71781 -249.721599 
L 315.479439 -248.813052 
L 316.112464 -247.904505 
L 316.607683 -246.995957 
L 316.959003 -246.08741 
L 317.163664 -245.178863 
L 317.222337 -244.270316 
L 317.139113 -243.361769 
L 316.921361 -242.453222 
L 316.579481 -241.544674 
L 316.126553 -240.636127 
L 315.577899 -239.72758 
L 314.950584 -238.819033 
L 314.262869 -237.910486 
L 313.53365 -237.001939 
L 312.781891 -236.093391 
L 312.026084 -235.184844 
L 311.283749 -234.276297 
L 310.570998 -233.36775 
L 309.902162 -232.459203 
L 309.289501 -231.550656 
L 308.743003 -230.642108 
L 308.27026 -229.733561 
L 307.876438 -228.825014 
L 307.564315 -227.916467 
L 307.334392 -227.00792 
L 307.18506 -226.099373 
L 307.112814 -225.190825 
L 307.112495 -224.282278 
L 307.177553 -223.373731 
L 307.300316 -222.465184 
L 307.472254 -221.556637 
L 307.684224 -220.648089 
L 307.926703 -219.739542 
L 308.189983 -218.830995 
L 308.464349 -217.922448 
L 308.740221 -217.013901 
L 309.008283 -216.105354 
L 309.259579 -215.196806 
L 309.485603 -214.288259 
L 309.678381 -213.379712 
L 309.830541 -212.471165 
L 309.935392 -211.562618 
L 309.987002 -210.654071 
L 309.980283 -209.745523 
L 309.911069 -208.836976 
L 309.776212 -207.928429 
L 309.573649 -207.019882 
L 309.302482 -206.111335 
L 308.96302 -205.202788 
L 308.556811 -204.29424 
L 308.086635 -203.385693 
L 307.556473 -202.477146 
L 306.971427 -201.568599 
L 306.337619 -200.660052 
L 305.662041 -199.751505 
L 304.952386 -198.842957 
L 304.21685 -197.93441 
L 303.463923 -197.025863 
L 302.702164 -196.117316 
L 301.939988 -195.208769 
L 301.185461 -194.300222 
L 300.446111 -193.391674 
L 299.72877 -192.483127 
L 299.039442 -191.57458 
L 298.383213 -190.666033 
L 297.764192 -189.757486 
L 297.185488 -188.848939 
L 296.649225 -187.940391 
L 296.15658 -187.031844 
L 295.707858 -186.123297 
L 295.302573 -185.21475 
L 294.939559 -184.306203 
L 294.617072 -183.397656 
L 294.332917 -182.489108 
L 294.084552 -181.580561 
L 293.869203 -180.672014 
L 293.683961 -179.763467 
L 293.525871 -178.85492 
L 293.392009 -177.946373 
z
" id="m64b0e0212d" style="stroke:#484848;stroke-width:1.5;"/>
    </defs>
    <g clip-path="url(#p89b20243cd)">
     <use style="fill:#de7959;stroke:#484848;stroke-width:1.5;" x="0" xlink:href="#m64b0e0212d" y="720"/>
    </g>
   </g>
   <g id="PolyCollection_3">
    <defs>
     <path d="M 392.08028 -104.4 
L 391.91972 -104.4 
L 391.898467 -109.490909 
L 391.873212 -114.581818 
L 391.843656 -119.672727 
L 391.809598 -124.763636 
L 391.770954 -129.854545 
L 391.727788 -134.945455 
L 391.680322 -140.036364 
L 391.62895 -145.127273 
L 391.574238 -150.218182 
L 391.516908 -155.309091 
L 391.457818 -160.4 
L 391.397927 -165.490909 
L 391.338257 -170.581818 
L 391.279842 -175.672727 
L 391.223678 -180.763636 
L 391.170671 -185.854545 
L 391.12159 -190.945455 
L 391.077029 -196.036364 
L 391.037365 -201.127273 
L 391.00274 -206.218182 
L 390.973046 -211.309091 
L 390.947917 -216.4 
L 390.926743 -221.490909 
L 390.908678 -226.581818 
L 390.892669 -231.672727 
L 390.877484 -236.763636 
L 390.861751 -241.854545 
L 390.843993 -246.945455 
L 390.822668 -252.036364 
L 390.796208 -257.127273 
L 390.763049 -262.218182 
L 390.721657 -267.309091 
L 390.67055 -272.4 
L 390.608306 -277.490909 
L 390.533568 -282.581818 
L 390.445052 -287.672727 
L 390.341543 -292.763636 
L 390.221909 -297.854545 
L 390.085122 -302.945455 
L 389.93029 -308.036364 
L 389.756714 -313.127273 
L 389.563955 -318.218182 
L 389.35192 -323.309091 
L 389.120955 -328.4 
L 388.871935 -333.490909 
L 388.60635 -338.581818 
L 388.326361 -343.672727 
L 388.034838 -348.763636 
L 387.735349 -353.854545 
L 387.432116 -358.945455 
L 387.129919 -364.036364 
L 386.833973 -369.127273 
L 386.549768 -374.218182 
L 386.282885 -379.309091 
L 386.038805 -384.4 
L 385.822718 -389.490909 
L 385.639343 -394.581818 
L 385.492765 -399.672727 
L 385.386296 -404.763636 
L 385.322376 -409.854545 
L 385.302492 -414.945455 
L 385.327136 -420.036364 
L 385.395803 -425.127273 
L 385.507009 -430.218182 
L 385.658348 -435.309091 
L 385.846579 -440.4 
L 386.067743 -445.490909 
L 386.3173 -450.581818 
L 386.590291 -455.672727 
L 386.881514 -460.763636 
L 387.185707 -465.854545 
L 387.49772 -470.945455 
L 387.812686 -476.036364 
L 388.12616 -481.127273 
L 388.434231 -486.218182 
L 388.733596 -491.309091 
L 389.0216 -496.4 
L 389.296233 -501.490909 
L 389.556093 -506.581818 
L 389.800326 -511.672727 
L 390.028539 -516.763636 
L 390.240712 -521.854545 
L 390.437099 -526.945455 
L 390.618145 -532.036364 
L 390.784407 -537.127273 
L 390.9365 -542.218182 
L 391.075056 -547.309091 
L 391.200697 -552.4 
L 391.314035 -557.490909 
L 391.415667 -562.581818 
L 391.506189 -567.672727 
L 391.58621 -572.763636 
L 391.656357 -577.854545 
L 391.717289 -582.945455 
L 391.769699 -588.036364 
L 391.814307 -593.127273 
L 391.851856 -598.218182 
L 391.8831 -603.309091 
L 391.908787 -608.4 
L 392.091213 -608.4 
L 392.091213 -608.4 
L 392.1169 -603.309091 
L 392.148144 -598.218182 
L 392.185693 -593.127273 
L 392.230301 -588.036364 
L 392.282711 -582.945455 
L 392.343643 -577.854545 
L 392.41379 -572.763636 
L 392.493811 -567.672727 
L 392.584333 -562.581818 
L 392.685965 -557.490909 
L 392.799303 -552.4 
L 392.924944 -547.309091 
L 393.0635 -542.218182 
L 393.215593 -537.127273 
L 393.381855 -532.036364 
L 393.562901 -526.945455 
L 393.759288 -521.854545 
L 393.971461 -516.763636 
L 394.199674 -511.672727 
L 394.443907 -506.581818 
L 394.703767 -501.490909 
L 394.9784 -496.4 
L 395.266404 -491.309091 
L 395.565769 -486.218182 
L 395.87384 -481.127273 
L 396.187314 -476.036364 
L 396.50228 -470.945455 
L 396.814293 -465.854545 
L 397.118486 -460.763636 
L 397.409709 -455.672727 
L 397.6827 -450.581818 
L 397.932257 -445.490909 
L 398.153421 -440.4 
L 398.341652 -435.309091 
L 398.492991 -430.218182 
L 398.604197 -425.127273 
L 398.672864 -420.036364 
L 398.697508 -414.945455 
L 398.677624 -409.854545 
L 398.613704 -404.763636 
L 398.507235 -399.672727 
L 398.360657 -394.581818 
L 398.177282 -389.490909 
L 397.961195 -384.4 
L 397.717115 -379.309091 
L 397.450232 -374.218182 
L 397.166027 -369.127273 
L 396.870081 -364.036364 
L 396.567884 -358.945455 
L 396.264651 -353.854545 
L 395.965162 -348.763636 
L 395.673639 -343.672727 
L 395.39365 -338.581818 
L 395.128065 -333.490909 
L 394.879045 -328.4 
L 394.64808 -323.309091 
L 394.436045 -318.218182 
L 394.243286 -313.127273 
L 394.06971 -308.036364 
L 393.914878 -302.945455 
L 393.778091 -297.854545 
L 393.658457 -292.763636 
L 393.554948 -287.672727 
L 393.466432 -282.581818 
L 393.391694 -277.490909 
L 393.32945 -272.4 
L 393.278343 -267.309091 
L 393.236951 -262.218182 
L 393.203792 -257.127273 
L 393.177332 -252.036364 
L 393.156007 -246.945455 
L 393.138249 -241.854545 
L 393.122516 -236.763636 
L 393.107331 -231.672727 
L 393.091322 -226.581818 
L 393.073257 -221.490909 
L 393.052083 -216.4 
L 393.026954 -211.309091 
L 392.99726 -206.218182 
L 392.962635 -201.127273 
L 392.922971 -196.036364 
L 392.87841 -190.945455 
L 392.829329 -185.854545 
L 392.776322 -180.763636 
L 392.720158 -175.672727 
L 392.661743 -170.581818 
L 392.602073 -165.490909 
L 392.542182 -160.4 
L 392.483092 -155.309091 
L 392.425762 -150.218182 
L 392.37105 -145.127273 
L 392.319678 -140.036364 
L 392.272212 -134.945455 
L 392.229046 -129.854545 
L 392.190402 -124.763636 
L 392.156344 -119.672727 
L 392.126788 -114.581818 
L 392.101533 -109.490909 
L 392.08028 -104.4 
z
" id="m213bf34ce1" style="stroke:#484848;stroke-width:1.5;"/>
    </defs>
    <g clip-path="url(#p89b20243cd)">
     <use style="fill:#e9ad74;stroke:#484848;stroke-width:1.5;" x="0" xlink:href="#m213bf34ce1" y="720"/>
    </g>
   </g>
   <g id="PolyCollection_4">
    <defs>
     <path d="M 491.694165 -158.737268 
L 490.705835 -158.737268 
L 490.587467 -162.020829 
L 490.447046 -165.30439 
L 490.282086 -168.587951 
L 490.090198 -171.871512 
L 489.869196 -175.155073 
L 489.617213 -178.438634 
L 489.332818 -181.722195 
L 489.015146 -185.005756 
L 488.664017 -188.289318 
L 488.280051 -191.572879 
L 487.864766 -194.85644 
L 487.420645 -198.140001 
L 486.951182 -201.423562 
L 486.460888 -204.707123 
L 485.955254 -207.990684 
L 485.440671 -211.274245 
L 484.924309 -214.557806 
L 484.413953 -217.841367 
L 483.917803 -221.124928 
L 483.444245 -224.408489 
L 483.001598 -227.692051 
L 482.597859 -230.975612 
L 482.240445 -234.259173 
L 481.935955 -237.542734 
L 481.689952 -240.826295 
L 481.50679 -244.109856 
L 481.389477 -247.393417 
L 481.339597 -250.676978 
L 481.357277 -253.960539 
L 481.441215 -257.2441 
L 481.588754 -260.527661 
L 481.795997 -263.811222 
L 482.057965 -267.094784 
L 482.368779 -270.378345 
L 482.721857 -273.661906 
L 483.110125 -276.945467 
L 483.526221 -280.229028 
L 483.96269 -283.512589 
L 484.412164 -286.79615 
L 484.867523 -290.079711 
L 485.322027 -293.363272 
L 485.769428 -296.646833 
L 486.20405 -299.930394 
L 486.620856 -303.213955 
L 487.015482 -306.497517 
L 487.384262 -309.781078 
L 487.724229 -313.064639 
L 488.033113 -316.3482 
L 488.309318 -319.631761 
L 488.551896 -322.915322 
L 488.760515 -326.198883 
L 488.935423 -329.482444 
L 489.077398 -332.766005 
L 489.187706 -336.049566 
L 489.268052 -339.333127 
L 489.320523 -342.616688 
L 489.347534 -345.90025 
L 489.351777 -349.183811 
L 489.336155 -352.467372 
L 489.303735 -355.750933 
L 489.257682 -359.034494 
L 489.201211 -362.318055 
L 489.137529 -365.601616 
L 489.06979 -368.885177 
L 489.001038 -372.168738 
L 488.93417 -375.452299 
L 488.871889 -378.73586 
L 488.816667 -382.019421 
L 488.770706 -385.302983 
L 488.735912 -388.586544 
L 488.713861 -391.870105 
L 488.70578 -395.153666 
L 488.712529 -398.437227 
L 488.734589 -401.720788 
L 488.772063 -405.004349 
L 488.82468 -408.28791 
L 488.891809 -411.571471 
L 488.972484 -414.855032 
L 489.06544 -418.138593 
L 489.169153 -421.422154 
L 489.28189 -424.705716 
L 489.401769 -427.989277 
L 489.526815 -431.272838 
L 489.655025 -434.556399 
L 489.784423 -437.83996 
L 489.913125 -441.123521 
L 490.039382 -444.407082 
L 490.161628 -447.690643 
L 490.278511 -450.974204 
L 490.388916 -454.257765 
L 490.491978 -457.541326 
L 490.587083 -460.824887 
L 490.673862 -464.108449 
L 490.752168 -467.39201 
L 490.822062 -470.675571 
L 490.883778 -473.959132 
L 490.937695 -477.242693 
L 490.984304 -480.526254 
L 491.024174 -483.809815 
L 491.375826 -483.809815 
L 491.375826 -483.809815 
L 491.415696 -480.526254 
L 491.462305 -477.242693 
L 491.516222 -473.959132 
L 491.577938 -470.675571 
L 491.647832 -467.39201 
L 491.726138 -464.108449 
L 491.812917 -460.824887 
L 491.908022 -457.541326 
L 492.011084 -454.257765 
L 492.121489 -450.974204 
L 492.238372 -447.690643 
L 492.360618 -444.407082 
L 492.486875 -441.123521 
L 492.615577 -437.83996 
L 492.744975 -434.556399 
L 492.873185 -431.272838 
L 492.998231 -427.989277 
L 493.11811 -424.705716 
L 493.230847 -421.422154 
L 493.33456 -418.138593 
L 493.427516 -414.855032 
L 493.508191 -411.571471 
L 493.57532 -408.28791 
L 493.627937 -405.004349 
L 493.665411 -401.720788 
L 493.687471 -398.437227 
L 493.69422 -395.153666 
L 493.686139 -391.870105 
L 493.664088 -388.586544 
L 493.629294 -385.302983 
L 493.583333 -382.019421 
L 493.528111 -378.73586 
L 493.46583 -375.452299 
L 493.398962 -372.168738 
L 493.33021 -368.885177 
L 493.262471 -365.601616 
L 493.198789 -362.318055 
L 493.142318 -359.034494 
L 493.096265 -355.750933 
L 493.063845 -352.467372 
L 493.048223 -349.183811 
L 493.052466 -345.90025 
L 493.079477 -342.616688 
L 493.131948 -339.333127 
L 493.212294 -336.049566 
L 493.322602 -332.766005 
L 493.464577 -329.482444 
L 493.639485 -326.198883 
L 493.848104 -322.915322 
L 494.090682 -319.631761 
L 494.366887 -316.3482 
L 494.675771 -313.064639 
L 495.015738 -309.781078 
L 495.384518 -306.497517 
L 495.779144 -303.213955 
L 496.19595 -299.930394 
L 496.630572 -296.646833 
L 497.077973 -293.363272 
L 497.532477 -290.079711 
L 497.987836 -286.79615 
L 498.43731 -283.512589 
L 498.873779 -280.229028 
L 499.289875 -276.945467 
L 499.678143 -273.661906 
L 500.031221 -270.378345 
L 500.342035 -267.094784 
L 500.604003 -263.811222 
L 500.811246 -260.527661 
L 500.958785 -257.2441 
L 501.042723 -253.960539 
L 501.060403 -250.676978 
L 501.010523 -247.393417 
L 500.89321 -244.109856 
L 500.710048 -240.826295 
L 500.464045 -237.542734 
L 500.159555 -234.259173 
L 499.802141 -230.975612 
L 499.398402 -227.692051 
L 498.955755 -224.408489 
L 498.482197 -221.124928 
L 497.986047 -217.841367 
L 497.475691 -214.557806 
L 496.959329 -211.274245 
L 496.444746 -207.990684 
L 495.939112 -204.707123 
L 495.448818 -201.423562 
L 494.979355 -198.140001 
L 494.535234 -194.85644 
L 494.119949 -191.572879 
L 493.735983 -188.289318 
L 493.384854 -185.005756 
L 493.067182 -181.722195 
L 492.782787 -178.438634 
L 492.530804 -175.155073 
L 492.309802 -171.871512 
L 492.117914 -168.587951 
L 491.952954 -165.30439 
L 491.812533 -162.020829 
L 491.694165 -158.737268 
z
" id="mb34346a816" style="stroke:#484848;stroke-width:1.5;"/>
    </defs>
    <g clip-path="url(#p89b20243cd)">
     <use style="fill:#f0d999;stroke:#484848;stroke-width:1.5;" x="0" xlink:href="#mb34346a816" y="720"/>
    </g>
   </g>
   <g id="PolyCollection_5">
    <defs>
     <path d="M 590.746818 -279.533355 
L 590.053182 -279.533355 
L 589.973342 -282.150655 
L 589.879998 -284.767955 
L 589.772083 -287.385254 
L 589.64872 -290.002554 
L 589.509289 -292.619854 
L 589.35349 -295.237153 
L 589.181395 -297.854453 
L 588.993494 -300.471753 
L 588.790726 -303.089052 
L 588.574482 -305.706352 
L 588.346601 -308.323652 
L 588.109326 -310.940951 
L 587.86525 -313.558251 
L 587.617231 -316.17555 
L 587.368292 -318.79285 
L 587.121509 -321.41015 
L 586.87989 -324.027449 
L 586.646256 -326.644749 
L 586.423124 -329.262049 
L 586.212614 -331.879348 
L 586.016368 -334.496648 
L 585.8355 -337.113948 
L 585.670566 -339.731247 
L 585.521572 -342.348547 
L 585.387999 -344.965847 
L 585.268854 -347.583146 
L 585.162737 -350.200446 
L 585.067916 -352.817746 
L 584.982412 -355.435045 
L 584.904074 -358.052345 
L 584.830653 -360.669644 
L 584.759865 -363.286944 
L 584.68944 -365.904244 
L 584.617166 -368.521543 
L 584.540921 -371.138843 
L 584.458705 -373.756143 
L 584.368671 -376.373442 
L 584.269161 -378.990742 
L 584.158758 -381.608042 
L 584.036334 -384.225341 
L 583.901121 -386.842641 
L 583.752787 -389.459941 
L 583.591503 -392.07724 
L 583.418015 -394.69454 
L 583.2337 -397.311839 
L 583.040591 -399.929139 
L 582.841379 -402.546439 
L 582.639378 -405.163738 
L 582.438443 -407.781038 
L 582.242859 -410.398338 
L 582.057187 -413.015637 
L 581.886089 -415.632937 
L 581.734135 -418.250237 
L 581.605609 -420.867536 
L 581.504323 -423.484836 
L 581.433461 -426.102136 
L 581.395451 -428.719435 
L 581.391891 -431.336735 
L 581.423515 -433.954034 
L 581.490213 -436.571334 
L 581.591095 -439.188634 
L 581.724592 -441.805933 
L 581.888587 -444.423233 
L 582.080558 -447.040533 
L 582.297726 -449.657832 
L 582.537196 -452.275132 
L 582.796077 -454.892432 
L 583.071577 -457.509731 
L 583.36107 -460.127031 
L 583.662129 -462.744331 
L 583.972539 -465.36163 
L 584.290273 -467.97893 
L 584.613463 -470.59623 
L 584.940355 -473.213529 
L 585.269263 -475.830829 
L 585.598525 -478.448128 
L 585.926471 -481.065428 
L 586.251405 -483.682728 
L 586.571596 -486.300027 
L 586.885292 -488.917327 
L 587.190742 -491.534627 
L 587.486237 -494.151926 
L 587.770144 -496.769226 
L 588.04096 -499.386526 
L 588.297351 -502.003825 
L 588.538198 -504.621125 
L 588.762624 -507.238425 
L 588.970024 -509.855724 
L 589.160067 -512.473024 
L 589.332704 -515.090323 
L 589.488155 -517.707623 
L 589.626886 -520.324923 
L 589.749579 -522.942222 
L 589.857103 -525.559522 
L 589.950466 -528.176822 
L 590.030785 -530.794121 
L 590.099237 -533.411421 
L 590.15703 -536.028721 
L 590.205363 -538.64602 
L 590.594637 -538.64602 
L 590.594637 -538.64602 
L 590.64297 -536.028721 
L 590.700763 -533.411421 
L 590.769215 -530.794121 
L 590.849534 -528.176822 
L 590.942897 -525.559522 
L 591.050421 -522.942222 
L 591.173114 -520.324923 
L 591.311845 -517.707623 
L 591.467296 -515.090323 
L 591.639933 -512.473024 
L 591.829976 -509.855724 
L 592.037376 -507.238425 
L 592.261802 -504.621125 
L 592.502649 -502.003825 
L 592.75904 -499.386526 
L 593.029856 -496.769226 
L 593.313763 -494.151926 
L 593.609258 -491.534627 
L 593.914708 -488.917327 
L 594.228404 -486.300027 
L 594.548595 -483.682728 
L 594.873529 -481.065428 
L 595.201475 -478.448128 
L 595.530737 -475.830829 
L 595.859645 -473.213529 
L 596.186537 -470.59623 
L 596.509727 -467.97893 
L 596.827461 -465.36163 
L 597.137871 -462.744331 
L 597.43893 -460.127031 
L 597.728423 -457.509731 
L 598.003923 -454.892432 
L 598.262804 -452.275132 
L 598.502274 -449.657832 
L 598.719442 -447.040533 
L 598.911413 -444.423233 
L 599.075408 -441.805933 
L 599.208905 -439.188634 
L 599.309787 -436.571334 
L 599.376485 -433.954034 
L 599.408109 -431.336735 
L 599.404549 -428.719435 
L 599.366539 -426.102136 
L 599.295677 -423.484836 
L 599.194391 -420.867536 
L 599.065865 -418.250237 
L 598.913911 -415.632937 
L 598.742813 -413.015637 
L 598.557141 -410.398338 
L 598.361557 -407.781038 
L 598.160622 -405.163738 
L 597.958621 -402.546439 
L 597.759409 -399.929139 
L 597.5663 -397.311839 
L 597.381985 -394.69454 
L 597.208497 -392.07724 
L 597.047213 -389.459941 
L 596.898879 -386.842641 
L 596.763666 -384.225341 
L 596.641242 -381.608042 
L 596.530839 -378.990742 
L 596.431329 -376.373442 
L 596.341295 -373.756143 
L 596.259079 -371.138843 
L 596.182834 -368.521543 
L 596.11056 -365.904244 
L 596.040135 -363.286944 
L 595.969347 -360.669644 
L 595.895926 -358.052345 
L 595.817588 -355.435045 
L 595.732084 -352.817746 
L 595.637263 -350.200446 
L 595.531146 -347.583146 
L 595.412001 -344.965847 
L 595.278428 -342.348547 
L 595.129434 -339.731247 
L 594.9645 -337.113948 
L 594.783632 -334.496648 
L 594.587386 -331.879348 
L 594.376876 -329.262049 
L 594.153744 -326.644749 
L 593.92011 -324.027449 
L 593.678491 -321.41015 
L 593.431708 -318.79285 
L 593.182769 -316.17555 
L 592.93475 -313.558251 
L 592.690674 -310.940951 
L 592.453399 -308.323652 
L 592.225518 -305.706352 
L 592.009274 -303.089052 
L 591.806506 -300.471753 
L 591.618605 -297.854453 
L 591.44651 -295.237153 
L 591.290711 -292.619854 
L 591.15128 -290.002554 
L 591.027917 -287.385254 
L 590.920002 -284.767955 
L 590.826658 -282.150655 
L 590.746818 -279.533355 
z
" id="m2278c7957a" style="stroke:#484848;stroke-width:1.5;"/>
    </defs>
    <g clip-path="url(#p89b20243cd)">
     <use style="fill:#f7f7c6;stroke:#484848;stroke-width:1.5;" x="0" xlink:href="#m2278c7957a" y="720"/>
    </g>
   </g>
   <g id="PolyCollection_6">
    <defs>
     <path d="M 689.835712 -166.909042 
L 689.364288 -166.909042 
L 689.302957 -168.679228 
L 689.229884 -170.449415 
L 689.143951 -172.219601 
L 689.044197 -173.989788 
L 688.929874 -175.759974 
L 688.800489 -177.530161 
L 688.655845 -179.300347 
L 688.496052 -181.070533 
L 688.321522 -182.84072 
L 688.132925 -184.610906 
L 687.931132 -186.381093 
L 687.717115 -188.151279 
L 687.491836 -189.921466 
L 687.256114 -191.691652 
L 687.010484 -193.461838 
L 686.75507 -195.232025 
L 686.489464 -197.002211 
L 686.212651 -198.772398 
L 685.922967 -200.542584 
L 685.618111 -202.312771 
L 685.295219 -204.082957 
L 684.951 -205.853143 
L 684.581922 -207.62333 
L 684.184456 -209.393516 
L 683.755348 -211.163703 
L 683.291919 -212.933889 
L 682.792356 -214.704076 
L 682.255988 -216.474262 
L 681.683516 -218.244448 
L 681.077185 -220.014635 
L 680.440877 -221.784821 
L 679.780129 -223.555008 
L 679.102049 -225.325194 
L 678.41516 -227.095381 
L 677.729159 -228.865567 
L 677.054616 -230.635753 
L 676.402625 -232.40594 
L 675.784426 -234.176126 
L 675.211021 -235.946313 
L 674.692797 -237.716499 
L 674.239179 -239.486686 
L 673.858311 -241.256872 
L 673.556799 -243.027058 
L 673.339498 -244.797245 
L 673.209369 -246.567431 
L 673.167399 -248.337618 
L 673.212585 -250.107804 
L 673.341988 -251.87799 
L 673.550852 -253.648177 
L 673.832795 -255.418363 
L 674.180044 -257.18855 
L 674.583731 -258.958736 
L 675.034224 -260.728923 
L 675.52148 -262.499109 
L 676.035397 -264.269295 
L 676.566168 -266.039482 
L 677.104581 -267.809668 
L 677.642292 -269.579855 
L 678.172022 -271.350041 
L 678.687691 -273.120228 
L 679.184488 -274.890414 
L 679.658864 -276.6606 
L 680.108487 -278.430787 
L 680.532133 -280.200973 
L 680.929571 -281.97116 
L 681.301416 -283.741346 
L 681.648994 -285.511533 
L 681.97421 -287.281719 
L 682.279425 -289.051905 
L 682.567353 -290.822092 
L 682.840962 -292.592278 
L 683.103385 -294.362465 
L 683.357822 -296.132651 
L 683.607446 -297.902838 
L 683.855289 -299.673024 
L 684.104128 -301.44321 
L 684.356366 -303.213397 
L 684.613906 -304.983583 
L 684.878056 -306.75377 
L 685.14944 -308.523956 
L 685.427952 -310.294143 
L 685.712751 -312.064329 
L 686.002293 -313.834515 
L 686.294422 -315.604702 
L 686.586483 -317.374888 
L 686.875484 -319.145075 
L 687.158263 -320.915261 
L 687.431674 -322.685448 
L 687.692751 -324.455634 
L 687.938866 -326.22582 
L 688.167848 -327.996007 
L 688.378064 -329.766193 
L 688.568468 -331.53638 
L 688.738602 -333.306566 
L 688.888567 -335.076753 
L 689.018962 -336.846939 
L 689.130804 -338.617125 
L 689.225431 -340.387312 
L 689.304411 -342.157498 
L 689.895589 -342.157498 
L 689.895589 -342.157498 
L 689.974569 -340.387312 
L 690.069196 -338.617125 
L 690.181038 -336.846939 
L 690.311433 -335.076753 
L 690.461398 -333.306566 
L 690.631532 -331.53638 
L 690.821936 -329.766193 
L 691.032152 -327.996007 
L 691.261134 -326.22582 
L 691.507249 -324.455634 
L 691.768326 -322.685448 
L 692.041737 -320.915261 
L 692.324516 -319.145075 
L 692.613517 -317.374888 
L 692.905578 -315.604702 
L 693.197707 -313.834515 
L 693.487249 -312.064329 
L 693.772048 -310.294143 
L 694.05056 -308.523956 
L 694.321944 -306.75377 
L 694.586094 -304.983583 
L 694.843634 -303.213397 
L 695.095872 -301.44321 
L 695.344711 -299.673024 
L 695.592554 -297.902838 
L 695.842178 -296.132651 
L 696.096615 -294.362465 
L 696.359038 -292.592278 
L 696.632647 -290.822092 
L 696.920575 -289.051905 
L 697.22579 -287.281719 
L 697.551006 -285.511533 
L 697.898584 -283.741346 
L 698.270429 -281.97116 
L 698.667867 -280.200973 
L 699.091513 -278.430787 
L 699.541136 -276.6606 
L 700.015512 -274.890414 
L 700.512309 -273.120228 
L 701.027978 -271.350041 
L 701.557708 -269.579855 
L 702.095419 -267.809668 
L 702.633832 -266.039482 
L 703.164603 -264.269295 
L 703.67852 -262.499109 
L 704.165776 -260.728923 
L 704.616269 -258.958736 
L 705.019956 -257.18855 
L 705.367205 -255.418363 
L 705.649148 -253.648177 
L 705.858012 -251.87799 
L 705.987415 -250.107804 
L 706.032601 -248.337618 
L 705.990631 -246.567431 
L 705.860502 -244.797245 
L 705.643201 -243.027058 
L 705.341689 -241.256872 
L 704.960821 -239.486686 
L 704.507203 -237.716499 
L 703.988979 -235.946313 
L 703.415574 -234.176126 
L 702.797375 -232.40594 
L 702.145384 -230.635753 
L 701.470841 -228.865567 
L 700.78484 -227.095381 
L 700.097951 -225.325194 
L 699.419871 -223.555008 
L 698.759123 -221.784821 
L 698.122815 -220.014635 
L 697.516484 -218.244448 
L 696.944012 -216.474262 
L 696.407644 -214.704076 
L 695.908081 -212.933889 
L 695.444652 -211.163703 
L 695.015544 -209.393516 
L 694.618078 -207.62333 
L 694.249 -205.853143 
L 693.904781 -204.082957 
L 693.581889 -202.312771 
L 693.277033 -200.542584 
L 692.987349 -198.772398 
L 692.710536 -197.002211 
L 692.44493 -195.232025 
L 692.189516 -193.461838 
L 691.943886 -191.691652 
L 691.708164 -189.921466 
L 691.482885 -188.151279 
L 691.268868 -186.381093 
L 691.067075 -184.610906 
L 690.878478 -182.84072 
L 690.703948 -181.070533 
L 690.544155 -179.300347 
L 690.399511 -177.530161 
L 690.270126 -175.759974 
L 690.155803 -173.989788 
L 690.056049 -172.219601 
L 689.970116 -170.449415 
L 689.897043 -168.679228 
L 689.835712 -166.909042 
z
" id="ma58692a2d7" style="stroke:#484848;stroke-width:1.5;"/>
    </defs>
    <g clip-path="url(#p89b20243cd)">
     <use style="fill:#dee9a4;stroke:#484848;stroke-width:1.5;" x="0" xlink:href="#ma58692a2d7" y="720"/>
    </g>
   </g>
   <g id="PolyCollection_7">
    <defs>
     <path d="M 788.933565 -123.734913 
L 788.666435 -123.734913 
L 788.634565 -128.577143 
L 788.59697 -133.419373 
L 788.553093 -138.261603 
L 788.502431 -143.103833 
L 788.444559 -147.946062 
L 788.379157 -152.788292 
L 788.306035 -157.630522 
L 788.225155 -162.472752 
L 788.136653 -167.314982 
L 788.04085 -172.157212 
L 787.93826 -176.999442 
L 787.829592 -181.841672 
L 787.715736 -186.683901 
L 787.597752 -191.526131 
L 787.476842 -196.368361 
L 787.354319 -201.210591 
L 787.231568 -206.052821 
L 787.110007 -210.895051 
L 786.99104 -215.737281 
L 786.876011 -220.579511 
L 786.766159 -225.42174 
L 786.662581 -230.26397 
L 786.566189 -235.1062 
L 786.477685 -239.94843 
L 786.397538 -244.79066 
L 786.325969 -249.63289 
L 786.262943 -254.47512 
L 786.208182 -259.317349 
L 786.161171 -264.159579 
L 786.121182 -269.001809 
L 786.087306 -273.844039 
L 786.05848 -278.686269 
L 786.03353 -283.528499 
L 786.011203 -288.370729 
L 785.990208 -293.212959 
L 785.969243 -298.055188 
L 785.947024 -302.897418 
L 785.922307 -307.739648 
L 785.893897 -312.581878 
L 785.860658 -317.424108 
L 785.821517 -322.266338 
L 785.775463 -327.108568 
L 785.721552 -331.950798 
L 785.658913 -336.793027 
L 785.586765 -341.635257 
L 785.50444 -346.477487 
L 785.411422 -351.319717 
L 785.307396 -356.161947 
L 785.192303 -361.004177 
L 785.066407 -365.846407 
L 784.930359 -370.688637 
L 784.785256 -375.530866 
L 784.632691 -380.373096 
L 784.474774 -385.215326 
L 784.314143 -390.057556 
L 784.153926 -394.899786 
L 783.997688 -399.742016 
L 783.849331 -404.584246 
L 783.71297 -409.426475 
L 783.592785 -414.268705 
L 783.49285 -419.110935 
L 783.416963 -423.953165 
L 783.368472 -428.795395 
L 783.350122 -433.637625 
L 783.363918 -438.479855 
L 783.411032 -443.322085 
L 783.491742 -448.164314 
L 783.605416 -453.006544 
L 783.750544 -457.848774 
L 783.924804 -462.691004 
L 784.125165 -467.533234 
L 784.348028 -472.375464 
L 784.589371 -477.217694 
L 784.844915 -482.059924 
L 785.110288 -486.902153 
L 785.381171 -491.744383 
L 785.653445 -496.586613 
L 785.923299 -501.428843 
L 786.187321 -506.271073 
L 786.442566 -511.113303 
L 786.686584 -515.955533 
L 786.917438 -520.797763 
L 787.133691 -525.639992 
L 787.334378 -530.482222 
L 787.518966 -535.324452 
L 787.687305 -540.166682 
L 787.839568 -545.008912 
L 787.976203 -549.851142 
L 788.097868 -554.693372 
L 788.205387 -559.535601 
L 788.299697 -564.377831 
L 788.381813 -569.220061 
L 788.452785 -574.062291 
L 788.513673 -578.904521 
L 788.565523 -583.746751 
L 788.609345 -588.588981 
L 788.646098 -593.431211 
L 788.676686 -598.27344 
L 788.701941 -603.11567 
L 788.898059 -603.11567 
L 788.898059 -603.11567 
L 788.923314 -598.27344 
L 788.953902 -593.431211 
L 788.990655 -588.588981 
L 789.034477 -583.746751 
L 789.086327 -578.904521 
L 789.147215 -574.062291 
L 789.218187 -569.220061 
L 789.300303 -564.377831 
L 789.394613 -559.535601 
L 789.502132 -554.693372 
L 789.623797 -549.851142 
L 789.760432 -545.008912 
L 789.912695 -540.166682 
L 790.081034 -535.324452 
L 790.265622 -530.482222 
L 790.466309 -525.639992 
L 790.682562 -520.797763 
L 790.913416 -515.955533 
L 791.157434 -511.113303 
L 791.412679 -506.271073 
L 791.676701 -501.428843 
L 791.946555 -496.586613 
L 792.218829 -491.744383 
L 792.489712 -486.902153 
L 792.755085 -482.059924 
L 793.010629 -477.217694 
L 793.251972 -472.375464 
L 793.474835 -467.533234 
L 793.675196 -462.691004 
L 793.849456 -457.848774 
L 793.994584 -453.006544 
L 794.108258 -448.164314 
L 794.188968 -443.322085 
L 794.236082 -438.479855 
L 794.249878 -433.637625 
L 794.231528 -428.795395 
L 794.183037 -423.953165 
L 794.10715 -419.110935 
L 794.007215 -414.268705 
L 793.88703 -409.426475 
L 793.750669 -404.584246 
L 793.602312 -399.742016 
L 793.446074 -394.899786 
L 793.285857 -390.057556 
L 793.125226 -385.215326 
L 792.967309 -380.373096 
L 792.814744 -375.530866 
L 792.669641 -370.688637 
L 792.533593 -365.846407 
L 792.407697 -361.004177 
L 792.292604 -356.161947 
L 792.188578 -351.319717 
L 792.09556 -346.477487 
L 792.013235 -341.635257 
L 791.941087 -336.793027 
L 791.878448 -331.950798 
L 791.824537 -327.108568 
L 791.778483 -322.266338 
L 791.739342 -317.424108 
L 791.706103 -312.581878 
L 791.677693 -307.739648 
L 791.652976 -302.897418 
L 791.630757 -298.055188 
L 791.609792 -293.212959 
L 791.588797 -288.370729 
L 791.56647 -283.528499 
L 791.54152 -278.686269 
L 791.512694 -273.844039 
L 791.478818 -269.001809 
L 791.438829 -264.159579 
L 791.391818 -259.317349 
L 791.337057 -254.47512 
L 791.274031 -249.63289 
L 791.202462 -244.79066 
L 791.122315 -239.94843 
L 791.033811 -235.1062 
L 790.937419 -230.26397 
L 790.833841 -225.42174 
L 790.723989 -220.579511 
L 790.60896 -215.737281 
L 790.489993 -210.895051 
L 790.368432 -206.052821 
L 790.245681 -201.210591 
L 790.123158 -196.368361 
L 790.002248 -191.526131 
L 789.884264 -186.683901 
L 789.770408 -181.841672 
L 789.66174 -176.999442 
L 789.55915 -172.157212 
L 789.463347 -167.314982 
L 789.374845 -162.472752 
L 789.293965 -157.630522 
L 789.220843 -152.788292 
L 789.155441 -147.946062 
L 789.097569 -143.103833 
L 789.046907 -138.261603 
L 789.00303 -133.419373 
L 788.965435 -128.577143 
L 788.933565 -123.734913 
z
" id="mbdbea7bb0e" style="stroke:#484848;stroke-width:1.5;"/>
    </defs>
    <g clip-path="url(#p89b20243cd)">
     <use style="fill:#afd5ab;stroke:#484848;stroke-width:1.5;" x="0" xlink:href="#mbdbea7bb0e" y="720"/>
    </g>
   </g>
   <g id="PolyCollection_8">
    <defs>
     <path d="M 889.395067 -209.640187 
L 886.604933 -209.640187 
L 886.283569 -210.901931 
L 885.911312 -212.163674 
L 885.486054 -213.425418 
L 885.007071 -214.687162 
L 884.475295 -215.948905 
L 883.89353 -217.210649 
L 883.266585 -218.472393 
L 882.601298 -219.734136 
L 881.906428 -220.99588 
L 881.19241 -222.257624 
L 880.470974 -223.519367 
L 879.754624 -224.781111 
L 879.056026 -226.042855 
L 878.38732 -227.304598 
L 877.759414 -228.566342 
L 877.181311 -229.828086 
L 876.659514 -231.08983 
L 876.197578 -232.351573 
L 875.795828 -233.613317 
L 875.45129 -234.875061 
L 875.157841 -236.136804 
L 874.906568 -237.398548 
L 874.686319 -238.660292 
L 874.484415 -239.922035 
L 874.287448 -241.183779 
L 874.082137 -242.445523 
L 873.856166 -243.707266 
L 873.598951 -244.96901 
L 873.302294 -246.230754 
L 872.960885 -247.492497 
L 872.57263 -248.754241 
L 872.138795 -250.015985 
L 871.663975 -251.277729 
L 871.155896 -252.539472 
L 870.625066 -253.801216 
L 870.084312 -255.06296 
L 869.548214 -256.324703 
L 869.032483 -257.586447 
L 868.553281 -258.848191 
L 868.126538 -260.109934 
L 867.767275 -261.371678 
L 867.488962 -262.633422 
L 867.302942 -263.895165 
L 867.217942 -265.156909 
L 867.239705 -266.418653 
L 867.370756 -267.680397 
L 867.610328 -268.94214 
L 867.954449 -270.203884 
L 868.396197 -271.465628 
L 868.926093 -272.727371 
L 869.532632 -273.989115 
L 870.202891 -275.250859 
L 870.923186 -276.512602 
L 871.679723 -277.774346 
L 872.459204 -279.03609 
L 873.24934 -280.297833 
L 874.039236 -281.559577 
L 874.819652 -282.821321 
L 875.583102 -284.083064 
L 876.323828 -285.344808 
L 877.037659 -286.606552 
L 877.721786 -287.868296 
L 878.374495 -289.130039 
L 878.994882 -290.391783 
L 879.582597 -291.653527 
L 880.137632 -292.91527 
L 880.660172 -294.177014 
L 881.150517 -295.438758 
L 881.609063 -296.700501 
L 882.036341 -297.962245 
L 882.433079 -299.223989 
L 882.800286 -300.485732 
L 883.13932 -301.747476 
L 883.45193 -303.00922 
L 883.740262 -304.270963 
L 884.006817 -305.532707 
L 884.254366 -306.794451 
L 884.485836 -308.056195 
L 884.704158 -309.317938 
L 884.91212 -310.579682 
L 885.112217 -311.841426 
L 885.306527 -313.103169 
L 885.496618 -314.364913 
L 885.683497 -315.626657 
L 885.8676 -316.8884 
L 886.048829 -318.150144 
L 886.226621 -319.411888 
L 886.40005 -320.673631 
L 886.567942 -321.935375 
L 886.728999 -323.197119 
L 886.881921 -324.458862 
L 887.02551 -325.720606 
L 887.158755 -326.98235 
L 887.280901 -328.244094 
L 887.391476 -329.505837 
L 887.490311 -330.767581 
L 887.577524 -332.029325 
L 887.653495 -333.291068 
L 887.718824 -334.552812 
L 888.281176 -334.552812 
L 888.281176 -334.552812 
L 888.346505 -333.291068 
L 888.422476 -332.029325 
L 888.509689 -330.767581 
L 888.608524 -329.505837 
L 888.719099 -328.244094 
L 888.841245 -326.98235 
L 888.97449 -325.720606 
L 889.118079 -324.458862 
L 889.271001 -323.197119 
L 889.432058 -321.935375 
L 889.59995 -320.673631 
L 889.773379 -319.411888 
L 889.951171 -318.150144 
L 890.1324 -316.8884 
L 890.316503 -315.626657 
L 890.503382 -314.364913 
L 890.693473 -313.103169 
L 890.887783 -311.841426 
L 891.08788 -310.579682 
L 891.295842 -309.317938 
L 891.514164 -308.056195 
L 891.745634 -306.794451 
L 891.993183 -305.532707 
L 892.259738 -304.270963 
L 892.54807 -303.00922 
L 892.86068 -301.747476 
L 893.199714 -300.485732 
L 893.566921 -299.223989 
L 893.963659 -297.962245 
L 894.390937 -296.700501 
L 894.849483 -295.438758 
L 895.339828 -294.177014 
L 895.862368 -292.91527 
L 896.417403 -291.653527 
L 897.005118 -290.391783 
L 897.625505 -289.130039 
L 898.278214 -287.868296 
L 898.962341 -286.606552 
L 899.676172 -285.344808 
L 900.416898 -284.083064 
L 901.180348 -282.821321 
L 901.960764 -281.559577 
L 902.75066 -280.297833 
L 903.540796 -279.03609 
L 904.320277 -277.774346 
L 905.076814 -276.512602 
L 905.797109 -275.250859 
L 906.467368 -273.989115 
L 907.073907 -272.727371 
L 907.603803 -271.465628 
L 908.045551 -270.203884 
L 908.389672 -268.94214 
L 908.629244 -267.680397 
L 908.760295 -266.418653 
L 908.782058 -265.156909 
L 908.697058 -263.895165 
L 908.511038 -262.633422 
L 908.232725 -261.371678 
L 907.873462 -260.109934 
L 907.446719 -258.848191 
L 906.967517 -257.586447 
L 906.451786 -256.324703 
L 905.915688 -255.06296 
L 905.374934 -253.801216 
L 904.844104 -252.539472 
L 904.336025 -251.277729 
L 903.861205 -250.015985 
L 903.42737 -248.754241 
L 903.039115 -247.492497 
L 902.697706 -246.230754 
L 902.401049 -244.96901 
L 902.143834 -243.707266 
L 901.917863 -242.445523 
L 901.712552 -241.183779 
L 901.515585 -239.922035 
L 901.313681 -238.660292 
L 901.093432 -237.398548 
L 900.842159 -236.136804 
L 900.54871 -234.875061 
L 900.204172 -233.613317 
L 899.802422 -232.351573 
L 899.340486 -231.08983 
L 898.818689 -229.828086 
L 898.240586 -228.566342 
L 897.61268 -227.304598 
L 896.943974 -226.042855 
L 896.245376 -224.781111 
L 895.529026 -223.519367 
L 894.80759 -222.257624 
L 894.093572 -220.99588 
L 893.398702 -219.734136 
L 892.733415 -218.472393 
L 892.10647 -217.210649 
L 891.524705 -215.948905 
L 890.992929 -214.687162 
L 890.513946 -213.425418 
L 890.088688 -212.163674 
L 889.716431 -210.901931 
L 889.395067 -209.640187 
z
" id="m8a05f40638" style="stroke:#484848;stroke-width:1.5;"/>
    </defs>
    <g clip-path="url(#p89b20243cd)">
     <use style="fill:#72b6a1;stroke:#484848;stroke-width:1.5;" x="0" xlink:href="#m8a05f40638" y="720"/>
    </g>
   </g>
   <g id="PolyCollection_9">
    <defs>
     <path d="M 992.116692 -244.012999 
L 982.283308 -244.012999 
L 981.162585 -244.935155 
L 979.867015 -245.857311 
L 978.390095 -246.779468 
L 976.730325 -247.701624 
L 974.892228 -248.62378 
L 972.88719 -249.545936 
L 970.734034 -250.468092 
L 968.45924 -251.390248 
L 966.096756 -252.312404 
L 963.68733 -253.234561 
L 961.277374 -254.156717 
L 958.917377 -255.078873 
L 956.659936 -256.001029 
L 954.557507 -256.923185 
L 952.660023 -257.845341 
L 951.012534 -258.767498 
L 949.65303 -259.689654 
L 948.610618 -260.61181 
L 947.904196 -261.533966 
L 947.541698 -262.456122 
L 947.52 -263.378278 
L 947.825455 -264.300434 
L 948.435028 -265.222591 
L 949.317913 -266.144747 
L 950.437502 -267.066903 
L 951.753537 -267.989059 
L 953.224286 -268.911215 
L 954.808568 -269.833371 
L 956.46751 -270.755528 
L 958.165913 -271.677684 
L 959.873205 -272.59984 
L 961.56393 -273.521996 
L 963.217833 -274.444152 
L 964.819592 -275.366308 
L 966.358279 -276.288464 
L 967.826656 -277.210621 
L 969.220395 -278.132777 
L 970.537316 -279.054933 
L 971.776702 -279.977089 
L 972.938743 -280.899245 
L 974.024128 -281.821401 
L 975.033783 -282.743558 
L 975.968745 -283.665714 
L 976.83014 -284.58787 
L 977.619225 -285.510026 
L 978.337476 -286.432182 
L 978.986675 -287.354338 
L 979.568989 -288.276494 
L 980.087013 -289.198651 
L 980.543783 -290.120807 
L 980.94276 -291.042963 
L 981.287775 -291.965119 
L 981.582964 -292.887275 
L 981.832687 -293.809431 
L 982.041445 -294.731588 
L 982.213789 -295.653744 
L 982.354245 -296.5759 
L 982.467235 -297.498056 
L 982.557008 -298.420212 
L 982.627571 -299.342368 
L 982.682643 -300.264524 
L 982.725602 -301.186681 
L 982.759456 -302.108837 
L 982.786832 -303.030993 
L 982.80998 -303.953149 
L 982.830803 -304.875305 
L 982.850903 -305.797461 
L 982.871651 -306.719618 
L 982.894267 -307.641774 
L 982.919898 -308.56393 
L 982.949702 -309.486086 
L 982.9849 -310.408242 
L 983.026822 -311.330398 
L 983.076906 -312.252554 
L 983.13667 -313.174711 
L 983.207653 -314.096867 
L 983.291325 -315.019023 
L 983.388975 -315.941179 
L 983.501599 -316.863335 
L 983.629786 -317.785491 
L 983.773624 -318.707648 
L 983.932634 -319.629804 
L 984.105743 -320.55196 
L 984.291294 -321.474116 
L 984.487096 -322.396272 
L 984.690523 -323.318428 
L 984.898622 -324.240584 
L 985.108266 -325.162741 
L 985.31629 -326.084897 
L 985.519649 -327.007053 
L 985.715541 -327.929209 
L 985.901519 -328.851365 
L 986.075579 -329.773521 
L 986.236202 -330.695678 
L 986.382376 -331.617834 
L 986.513588 -332.53999 
L 986.629782 -333.462146 
L 986.731308 -334.384302 
L 986.818849 -335.306458 
L 987.581151 -335.306458 
L 987.581151 -335.306458 
L 987.668692 -334.384302 
L 987.770218 -333.462146 
L 987.886412 -332.53999 
L 988.017624 -331.617834 
L 988.163798 -330.695678 
L 988.324421 -329.773521 
L 988.498481 -328.851365 
L 988.684459 -327.929209 
L 988.880351 -327.007053 
L 989.08371 -326.084897 
L 989.291734 -325.162741 
L 989.501378 -324.240584 
L 989.709477 -323.318428 
L 989.912904 -322.396272 
L 990.108706 -321.474116 
L 990.294257 -320.55196 
L 990.467366 -319.629804 
L 990.626376 -318.707648 
L 990.770214 -317.785491 
L 990.898401 -316.863335 
L 991.011025 -315.941179 
L 991.108675 -315.019023 
L 991.192347 -314.096867 
L 991.26333 -313.174711 
L 991.323094 -312.252554 
L 991.373178 -311.330398 
L 991.4151 -310.408242 
L 991.450298 -309.486086 
L 991.480102 -308.56393 
L 991.505733 -307.641774 
L 991.528349 -306.719618 
L 991.549097 -305.797461 
L 991.569197 -304.875305 
L 991.59002 -303.953149 
L 991.613168 -303.030993 
L 991.640544 -302.108837 
L 991.674398 -301.186681 
L 991.717357 -300.264524 
L 991.772429 -299.342368 
L 991.842992 -298.420212 
L 991.932765 -297.498056 
L 992.045755 -296.5759 
L 992.186211 -295.653744 
L 992.358555 -294.731588 
L 992.567313 -293.809431 
L 992.817036 -292.887275 
L 993.112225 -291.965119 
L 993.45724 -291.042963 
L 993.856217 -290.120807 
L 994.312987 -289.198651 
L 994.831011 -288.276494 
L 995.413325 -287.354338 
L 996.062524 -286.432182 
L 996.780775 -285.510026 
L 997.56986 -284.58787 
L 998.431255 -283.665714 
L 999.366217 -282.743558 
L 1000.375872 -281.821401 
L 1001.461257 -280.899245 
L 1002.623298 -279.977089 
L 1003.862684 -279.054933 
L 1005.179605 -278.132777 
L 1006.573344 -277.210621 
L 1008.041721 -276.288464 
L 1009.580408 -275.366308 
L 1011.182167 -274.444152 
L 1012.83607 -273.521996 
L 1014.526795 -272.59984 
L 1016.234087 -271.677684 
L 1017.93249 -270.755528 
L 1019.591432 -269.833371 
L 1021.175714 -268.911215 
L 1022.646463 -267.989059 
L 1023.962498 -267.066903 
L 1025.082087 -266.144747 
L 1025.964972 -265.222591 
L 1026.574545 -264.300434 
L 1026.88 -263.378278 
L 1026.858302 -262.456122 
L 1026.495804 -261.533966 
L 1025.789382 -260.61181 
L 1024.74697 -259.689654 
L 1023.387466 -258.767498 
L 1021.739977 -257.845341 
L 1019.842493 -256.923185 
L 1017.740064 -256.001029 
L 1015.482623 -255.078873 
L 1013.122626 -254.156717 
L 1010.71267 -253.234561 
L 1008.303244 -252.312404 
L 1005.94076 -251.390248 
L 1003.665966 -250.468092 
L 1001.51281 -249.545936 
L 999.507772 -248.62378 
L 997.669675 -247.701624 
L 996.009905 -246.779468 
L 994.532985 -245.857311 
L 993.237415 -244.935155 
L 992.116692 -244.012999 
z
" id="m4797d33ead" style="stroke:#484848;stroke-width:1.5;"/>
    </defs>
    <g clip-path="url(#p89b20243cd)">
     <use style="fill:#4483ab;stroke:#484848;stroke-width:1.5;" x="0" xlink:href="#m4797d33ead" y="720"/>
    </g>
   </g>
   <g id="matplotlib.axis_1">
    <g id="xtick_1">
     <g id="line2d_1">
      <defs>
       <path d="M 0 0 
L 0 3.5 
" id="m6e41b430cf" style="stroke:#000000;stroke-width:0.8;"/>
      </defs>
      <g>
       <use style="stroke:#000000;stroke-width:0.8;" x="193.6" xlink:href="#m6e41b430cf" y="640.8"/>
      </g>
     </g>
     <g id="text_1">
      <!-- Player1_healthy -->
      <g transform="translate(153.572656 655.398438)scale(0.1 -0.1)">
       <defs>
        <path d="M 1259 4147 
L 1259 2394 
L 2053 2394 
Q 2494 2394 2734 2622 
Q 2975 2850 2975 3272 
Q 2975 3691 2734 3919 
Q 2494 4147 2053 4147 
L 1259 4147 
z
M 628 4666 
L 2053 4666 
Q 2838 4666 3239 4311 
Q 3641 3956 3641 3272 
Q 3641 2581 3239 2228 
Q 2838 1875 2053 1875 
L 1259 1875 
L 1259 0 
L 628 0 
L 628 4666 
z
" id="DejaVuSans-50" transform="scale(0.015625)"/>
        <path d="M 603 4863 
L 1178 4863 
L 1178 0 
L 603 0 
L 603 4863 
z
" id="DejaVuSans-6c" transform="scale(0.015625)"/>
        <path d="M 2194 1759 
Q 1497 1759 1228 1600 
Q 959 1441 959 1056 
Q 959 750 1161 570 
Q 1363 391 1709 391 
Q 2188 391 2477 730 
Q 2766 1069 2766 1631 
L 2766 1759 
L 2194 1759 
z
M 3341 1997 
L 3341 0 
L 2766 0 
L 2766 531 
Q 2569 213 2275 61 
Q 1981 -91 1556 -91 
Q 1019 -91 701 211 
Q 384 513 384 1019 
Q 384 1609 779 1909 
Q 1175 2209 1959 2209 
L 2766 2209 
L 2766 2266 
Q 2766 2663 2505 2880 
Q 2244 3097 1772 3097 
Q 1472 3097 1187 3025 
Q 903 2953 641 2809 
L 641 3341 
Q 956 3463 1253 3523 
Q 1550 3584 1831 3584 
Q 2591 3584 2966 3190 
Q 3341 2797 3341 1997 
z
" id="DejaVuSans-61" transform="scale(0.015625)"/>
        <path d="M 2059 -325 
Q 1816 -950 1584 -1140 
Q 1353 -1331 966 -1331 
L 506 -1331 
L 506 -850 
L 844 -850 
Q 1081 -850 1212 -737 
Q 1344 -625 1503 -206 
L 1606 56 
L 191 3500 
L 800 3500 
L 1894 763 
L 2988 3500 
L 3597 3500 
L 2059 -325 
z
" id="DejaVuSans-79" transform="scale(0.015625)"/>
        <path d="M 3597 1894 
L 3597 1613 
L 953 1613 
Q 991 1019 1311 708 
Q 1631 397 2203 397 
Q 2534 397 2845 478 
Q 3156 559 3463 722 
L 3463 178 
Q 3153 47 2828 -22 
Q 2503 -91 2169 -91 
Q 1331 -91 842 396 
Q 353 884 353 1716 
Q 353 2575 817 3079 
Q 1281 3584 2069 3584 
Q 2775 3584 3186 3129 
Q 3597 2675 3597 1894 
z
M 3022 2063 
Q 3016 2534 2758 2815 
Q 2500 3097 2075 3097 
Q 1594 3097 1305 2825 
Q 1016 2553 972 2059 
L 3022 2063 
z
" id="DejaVuSans-65" transform="scale(0.015625)"/>
        <path d="M 2631 2963 
Q 2534 3019 2420 3045 
Q 2306 3072 2169 3072 
Q 1681 3072 1420 2755 
Q 1159 2438 1159 1844 
L 1159 0 
L 581 0 
L 581 3500 
L 1159 3500 
L 1159 2956 
Q 1341 3275 1631 3429 
Q 1922 3584 2338 3584 
Q 2397 3584 2469 3576 
Q 2541 3569 2628 3553 
L 2631 2963 
z
" id="DejaVuSans-72" transform="scale(0.015625)"/>
        <path d="M 794 531 
L 1825 531 
L 1825 4091 
L 703 3866 
L 703 4441 
L 1819 4666 
L 2450 4666 
L 2450 531 
L 3481 531 
L 3481 0 
L 794 0 
L 794 531 
z
" id="DejaVuSans-31" transform="scale(0.015625)"/>
        <path d="M 3263 -1063 
L 3263 -1509 
L -63 -1509 
L -63 -1063 
L 3263 -1063 
z
" id="DejaVuSans-5f" transform="scale(0.015625)"/>
        <path d="M 3513 2113 
L 3513 0 
L 2938 0 
L 2938 2094 
Q 2938 2591 2744 2837 
Q 2550 3084 2163 3084 
Q 1697 3084 1428 2787 
Q 1159 2491 1159 1978 
L 1159 0 
L 581 0 
L 581 4863 
L 1159 4863 
L 1159 2956 
Q 1366 3272 1645 3428 
Q 1925 3584 2291 3584 
Q 2894 3584 3203 3211 
Q 3513 2838 3513 2113 
z
" id="DejaVuSans-68" transform="scale(0.015625)"/>
        <path d="M 1172 4494 
L 1172 3500 
L 2356 3500 
L 2356 3053 
L 1172 3053 
L 1172 1153 
Q 1172 725 1289 603 
Q 1406 481 1766 481 
L 2356 481 
L 2356 0 
L 1766 0 
Q 1100 0 847 248 
Q 594 497 594 1153 
L 594 3053 
L 172 3053 
L 172 3500 
L 594 3500 
L 594 4494 
L 1172 4494 
z
" id="DejaVuSans-74" transform="scale(0.015625)"/>
       </defs>
       <use xlink:href="#DejaVuSans-50"/>
       <use x="60.302734" xlink:href="#DejaVuSans-6c"/>
       <use x="88.085938" xlink:href="#DejaVuSans-61"/>
       <use x="149.365234" xlink:href="#DejaVuSans-79"/>
       <use x="208.544922" xlink:href="#DejaVuSans-65"/>
       <use x="270.068359" xlink:href="#DejaVuSans-72"/>
       <use x="311.181641" xlink:href="#DejaVuSans-31"/>
       <use x="374.804688" xlink:href="#DejaVuSans-5f"/>
       <use x="424.804688" xlink:href="#DejaVuSans-68"/>
       <use x="488.183594" xlink:href="#DejaVuSans-65"/>
       <use x="549.707031" xlink:href="#DejaVuSans-61"/>
       <use x="610.986328" xlink:href="#DejaVuSans-6c"/>
       <use x="638.769531" xlink:href="#DejaVuSans-74"/>
       <use x="677.978516" xlink:href="#DejaVuSans-68"/>
       <use x="741.357422" xlink:href="#DejaVuSans-79"/>
      </g>
     </g>
    </g>
    <g id="xtick_2">
     <g id="line2d_2">
      <g>
       <use style="stroke:#000000;stroke-width:0.8;" x="292.8" xlink:href="#m6e41b430cf" y="640.8"/>
      </g>
     </g>
     <g id="text_2">
      <!-- biased_A -->
      <g transform="translate(270.396875 655.398438)scale(0.1 -0.1)">
       <defs>
        <path d="M 3116 1747 
Q 3116 2381 2855 2742 
Q 2594 3103 2138 3103 
Q 1681 3103 1420 2742 
Q 1159 2381 1159 1747 
Q 1159 1113 1420 752 
Q 1681 391 2138 391 
Q 2594 391 2855 752 
Q 3116 1113 3116 1747 
z
M 1159 2969 
Q 1341 3281 1617 3432 
Q 1894 3584 2278 3584 
Q 2916 3584 3314 3078 
Q 3713 2572 3713 1747 
Q 3713 922 3314 415 
Q 2916 -91 2278 -91 
Q 1894 -91 1617 61 
Q 1341 213 1159 525 
L 1159 0 
L 581 0 
L 581 4863 
L 1159 4863 
L 1159 2969 
z
" id="DejaVuSans-62" transform="scale(0.015625)"/>
        <path d="M 603 3500 
L 1178 3500 
L 1178 0 
L 603 0 
L 603 3500 
z
M 603 4863 
L 1178 4863 
L 1178 4134 
L 603 4134 
L 603 4863 
z
" id="DejaVuSans-69" transform="scale(0.015625)"/>
        <path d="M 2834 3397 
L 2834 2853 
Q 2591 2978 2328 3040 
Q 2066 3103 1784 3103 
Q 1356 3103 1142 2972 
Q 928 2841 928 2578 
Q 928 2378 1081 2264 
Q 1234 2150 1697 2047 
L 1894 2003 
Q 2506 1872 2764 1633 
Q 3022 1394 3022 966 
Q 3022 478 2636 193 
Q 2250 -91 1575 -91 
Q 1294 -91 989 -36 
Q 684 19 347 128 
L 347 722 
Q 666 556 975 473 
Q 1284 391 1588 391 
Q 1994 391 2212 530 
Q 2431 669 2431 922 
Q 2431 1156 2273 1281 
Q 2116 1406 1581 1522 
L 1381 1569 
Q 847 1681 609 1914 
Q 372 2147 372 2553 
Q 372 3047 722 3315 
Q 1072 3584 1716 3584 
Q 2034 3584 2315 3537 
Q 2597 3491 2834 3397 
z
" id="DejaVuSans-73" transform="scale(0.015625)"/>
        <path d="M 2906 2969 
L 2906 4863 
L 3481 4863 
L 3481 0 
L 2906 0 
L 2906 525 
Q 2725 213 2448 61 
Q 2172 -91 1784 -91 
Q 1150 -91 751 415 
Q 353 922 353 1747 
Q 353 2572 751 3078 
Q 1150 3584 1784 3584 
Q 2172 3584 2448 3432 
Q 2725 3281 2906 2969 
z
M 947 1747 
Q 947 1113 1208 752 
Q 1469 391 1925 391 
Q 2381 391 2643 752 
Q 2906 1113 2906 1747 
Q 2906 2381 2643 2742 
Q 2381 3103 1925 3103 
Q 1469 3103 1208 2742 
Q 947 2381 947 1747 
z
" id="DejaVuSans-64" transform="scale(0.015625)"/>
        <path d="M 2188 4044 
L 1331 1722 
L 3047 1722 
L 2188 4044 
z
M 1831 4666 
L 2547 4666 
L 4325 0 
L 3669 0 
L 3244 1197 
L 1141 1197 
L 716 0 
L 50 0 
L 1831 4666 
z
" id="DejaVuSans-41" transform="scale(0.015625)"/>
       </defs>
       <use xlink:href="#DejaVuSans-62"/>
       <use x="63.476562" xlink:href="#DejaVuSans-69"/>
       <use x="91.259766" xlink:href="#DejaVuSans-61"/>
       <use x="152.539062" xlink:href="#DejaVuSans-73"/>
       <use x="204.638672" xlink:href="#DejaVuSans-65"/>
       <use x="266.162109" xlink:href="#DejaVuSans-64"/>
       <use x="329.638672" xlink:href="#DejaVuSans-5f"/>
       <use x="379.638672" xlink:href="#DejaVuSans-41"/>
      </g>
     </g>
    </g>
    <g id="xtick_3">
     <g id="line2d_3">
      <g>
       <use style="stroke:#000000;stroke-width:0.8;" x="392" xlink:href="#m6e41b430cf" y="640.8"/>
      </g>
     </g>
     <g id="text_3">
      <!-- biased_B -->
      <g transform="translate(369.586719 655.398438)scale(0.1 -0.1)">
       <defs>
        <path d="M 1259 2228 
L 1259 519 
L 2272 519 
Q 2781 519 3026 730 
Q 3272 941 3272 1375 
Q 3272 1813 3026 2020 
Q 2781 2228 2272 2228 
L 1259 2228 
z
M 1259 4147 
L 1259 2741 
L 2194 2741 
Q 2656 2741 2882 2914 
Q 3109 3088 3109 3444 
Q 3109 3797 2882 3972 
Q 2656 4147 2194 4147 
L 1259 4147 
z
M 628 4666 
L 2241 4666 
Q 2963 4666 3353 4366 
Q 3744 4066 3744 3513 
Q 3744 3084 3544 2831 
Q 3344 2578 2956 2516 
Q 3422 2416 3680 2098 
Q 3938 1781 3938 1306 
Q 3938 681 3513 340 
Q 3088 0 2303 0 
L 628 0 
L 628 4666 
z
" id="DejaVuSans-42" transform="scale(0.015625)"/>
       </defs>
       <use xlink:href="#DejaVuSans-62"/>
       <use x="63.476562" xlink:href="#DejaVuSans-69"/>
       <use x="91.259766" xlink:href="#DejaVuSans-61"/>
       <use x="152.539062" xlink:href="#DejaVuSans-73"/>
       <use x="204.638672" xlink:href="#DejaVuSans-65"/>
       <use x="266.162109" xlink:href="#DejaVuSans-64"/>
       <use x="329.638672" xlink:href="#DejaVuSans-5f"/>
       <use x="379.638672" xlink:href="#DejaVuSans-42"/>
      </g>
     </g>
    </g>
    <g id="xtick_4">
     <g id="line2d_4">
      <g>
       <use style="stroke:#000000;stroke-width:0.8;" x="491.2" xlink:href="#m6e41b430cf" y="640.8"/>
      </g>
     </g>
     <g id="text_4">
      <!-- biased_C -->
      <g transform="translate(468.725781 655.398438)scale(0.1 -0.1)">
       <defs>
        <path d="M 4122 4306 
L 4122 3641 
Q 3803 3938 3442 4084 
Q 3081 4231 2675 4231 
Q 1875 4231 1450 3742 
Q 1025 3253 1025 2328 
Q 1025 1406 1450 917 
Q 1875 428 2675 428 
Q 3081 428 3442 575 
Q 3803 722 4122 1019 
L 4122 359 
Q 3791 134 3420 21 
Q 3050 -91 2638 -91 
Q 1578 -91 968 557 
Q 359 1206 359 2328 
Q 359 3453 968 4101 
Q 1578 4750 2638 4750 
Q 3056 4750 3426 4639 
Q 3797 4528 4122 4306 
z
" id="DejaVuSans-43" transform="scale(0.015625)"/>
       </defs>
       <use xlink:href="#DejaVuSans-62"/>
       <use x="63.476562" xlink:href="#DejaVuSans-69"/>
       <use x="91.259766" xlink:href="#DejaVuSans-61"/>
       <use x="152.539062" xlink:href="#DejaVuSans-73"/>
       <use x="204.638672" xlink:href="#DejaVuSans-65"/>
       <use x="266.162109" xlink:href="#DejaVuSans-64"/>
       <use x="329.638672" xlink:href="#DejaVuSans-5f"/>
       <use x="379.638672" xlink:href="#DejaVuSans-43"/>
      </g>
     </g>
    </g>
    <g id="xtick_5">
     <g id="line2d_5">
      <g>
       <use style="stroke:#000000;stroke-width:0.8;" x="590.4" xlink:href="#m6e41b430cf" y="640.8"/>
      </g>
     </g>
     <g id="text_5">
      <!-- biased_D -->
      <g transform="translate(567.567187 655.398438)scale(0.1 -0.1)">
       <defs>
        <path d="M 1259 4147 
L 1259 519 
L 2022 519 
Q 2988 519 3436 956 
Q 3884 1394 3884 2338 
Q 3884 3275 3436 3711 
Q 2988 4147 2022 4147 
L 1259 4147 
z
M 628 4666 
L 1925 4666 
Q 3281 4666 3915 4102 
Q 4550 3538 4550 2338 
Q 4550 1131 3912 565 
Q 3275 0 1925 0 
L 628 0 
L 628 4666 
z
" id="DejaVuSans-44" transform="scale(0.015625)"/>
       </defs>
       <use xlink:href="#DejaVuSans-62"/>
       <use x="63.476562" xlink:href="#DejaVuSans-69"/>
       <use x="91.259766" xlink:href="#DejaVuSans-61"/>
       <use x="152.539062" xlink:href="#DejaVuSans-73"/>
       <use x="204.638672" xlink:href="#DejaVuSans-65"/>
       <use x="266.162109" xlink:href="#DejaVuSans-64"/>
       <use x="329.638672" xlink:href="#DejaVuSans-5f"/>
       <use x="379.638672" xlink:href="#DejaVuSans-44"/>
      </g>
     </g>
    </g>
    <g id="xtick_6">
     <g id="line2d_6">
      <g>
       <use style="stroke:#000000;stroke-width:0.8;" x="689.6" xlink:href="#m6e41b430cf" y="640.8"/>
      </g>
     </g>
     <g id="text_6">
      <!-- Type1_depressed -->
      <g transform="translate(646.53125 655.398438)scale(0.1 -0.1)">
       <defs>
        <path d="M -19 4666 
L 3928 4666 
L 3928 4134 
L 2272 4134 
L 2272 0 
L 1638 0 
L 1638 4134 
L -19 4134 
L -19 4666 
z
" id="DejaVuSans-54" transform="scale(0.015625)"/>
        <path d="M 1159 525 
L 1159 -1331 
L 581 -1331 
L 581 3500 
L 1159 3500 
L 1159 2969 
Q 1341 3281 1617 3432 
Q 1894 3584 2278 3584 
Q 2916 3584 3314 3078 
Q 3713 2572 3713 1747 
Q 3713 922 3314 415 
Q 2916 -91 2278 -91 
Q 1894 -91 1617 61 
Q 1341 213 1159 525 
z
M 3116 1747 
Q 3116 2381 2855 2742 
Q 2594 3103 2138 3103 
Q 1681 3103 1420 2742 
Q 1159 2381 1159 1747 
Q 1159 1113 1420 752 
Q 1681 391 2138 391 
Q 2594 391 2855 752 
Q 3116 1113 3116 1747 
z
" id="DejaVuSans-70" transform="scale(0.015625)"/>
       </defs>
       <use xlink:href="#DejaVuSans-54"/>
       <use x="45.458984" xlink:href="#DejaVuSans-79"/>
       <use x="104.638672" xlink:href="#DejaVuSans-70"/>
       <use x="168.115234" xlink:href="#DejaVuSans-65"/>
       <use x="229.638672" xlink:href="#DejaVuSans-31"/>
       <use x="293.261719" xlink:href="#DejaVuSans-5f"/>
       <use x="343.261719" xlink:href="#DejaVuSans-64"/>
       <use x="406.738281" xlink:href="#DejaVuSans-65"/>
       <use x="468.261719" xlink:href="#DejaVuSans-70"/>
       <use x="531.738281" xlink:href="#DejaVuSans-72"/>
       <use x="570.601562" xlink:href="#DejaVuSans-65"/>
       <use x="632.125" xlink:href="#DejaVuSans-73"/>
       <use x="684.224609" xlink:href="#DejaVuSans-73"/>
       <use x="736.324219" xlink:href="#DejaVuSans-65"/>
       <use x="797.847656" xlink:href="#DejaVuSans-64"/>
      </g>
     </g>
    </g>
    <g id="xtick_7">
     <g id="line2d_7">
      <g>
       <use style="stroke:#000000;stroke-width:0.8;" x="788.8" xlink:href="#m6e41b430cf" y="640.8"/>
      </g>
     </g>
     <g id="text_7">
      <!-- Type2_depressed -->
      <g transform="translate(745.73125 655.398438)scale(0.1 -0.1)">
       <defs>
        <path d="M 1228 531 
L 3431 531 
L 3431 0 
L 469 0 
L 469 531 
Q 828 903 1448 1529 
Q 2069 2156 2228 2338 
Q 2531 2678 2651 2914 
Q 2772 3150 2772 3378 
Q 2772 3750 2511 3984 
Q 2250 4219 1831 4219 
Q 1534 4219 1204 4116 
Q 875 4013 500 3803 
L 500 4441 
Q 881 4594 1212 4672 
Q 1544 4750 1819 4750 
Q 2544 4750 2975 4387 
Q 3406 4025 3406 3419 
Q 3406 3131 3298 2873 
Q 3191 2616 2906 2266 
Q 2828 2175 2409 1742 
Q 1991 1309 1228 531 
z
" id="DejaVuSans-32" transform="scale(0.015625)"/>
       </defs>
       <use xlink:href="#DejaVuSans-54"/>
       <use x="45.458984" xlink:href="#DejaVuSans-79"/>
       <use x="104.638672" xlink:href="#DejaVuSans-70"/>
       <use x="168.115234" xlink:href="#DejaVuSans-65"/>
       <use x="229.638672" xlink:href="#DejaVuSans-32"/>
       <use x="293.261719" xlink:href="#DejaVuSans-5f"/>
       <use x="343.261719" xlink:href="#DejaVuSans-64"/>
       <use x="406.738281" xlink:href="#DejaVuSans-65"/>
       <use x="468.261719" xlink:href="#DejaVuSans-70"/>
       <use x="531.738281" xlink:href="#DejaVuSans-72"/>
       <use x="570.601562" xlink:href="#DejaVuSans-65"/>
       <use x="632.125" xlink:href="#DejaVuSans-73"/>
       <use x="684.224609" xlink:href="#DejaVuSans-73"/>
       <use x="736.324219" xlink:href="#DejaVuSans-65"/>
       <use x="797.847656" xlink:href="#DejaVuSans-64"/>
      </g>
     </g>
    </g>
    <g id="xtick_8">
     <g id="line2d_8">
      <g>
       <use style="stroke:#000000;stroke-width:0.8;" x="888" xlink:href="#m6e41b430cf" y="640.8"/>
      </g>
     </g>
     <g id="text_8">
      <!-- Type1_social_phobia -->
      <g transform="translate(837.050781 655.398438)scale(0.1 -0.1)">
       <defs>
        <path d="M 1959 3097 
Q 1497 3097 1228 2736 
Q 959 2375 959 1747 
Q 959 1119 1226 758 
Q 1494 397 1959 397 
Q 2419 397 2687 759 
Q 2956 1122 2956 1747 
Q 2956 2369 2687 2733 
Q 2419 3097 1959 3097 
z
M 1959 3584 
Q 2709 3584 3137 3096 
Q 3566 2609 3566 1747 
Q 3566 888 3137 398 
Q 2709 -91 1959 -91 
Q 1206 -91 779 398 
Q 353 888 353 1747 
Q 353 2609 779 3096 
Q 1206 3584 1959 3584 
z
" id="DejaVuSans-6f" transform="scale(0.015625)"/>
        <path d="M 3122 3366 
L 3122 2828 
Q 2878 2963 2633 3030 
Q 2388 3097 2138 3097 
Q 1578 3097 1268 2742 
Q 959 2388 959 1747 
Q 959 1106 1268 751 
Q 1578 397 2138 397 
Q 2388 397 2633 464 
Q 2878 531 3122 666 
L 3122 134 
Q 2881 22 2623 -34 
Q 2366 -91 2075 -91 
Q 1284 -91 818 406 
Q 353 903 353 1747 
Q 353 2603 823 3093 
Q 1294 3584 2113 3584 
Q 2378 3584 2631 3529 
Q 2884 3475 3122 3366 
z
" id="DejaVuSans-63" transform="scale(0.015625)"/>
       </defs>
       <use xlink:href="#DejaVuSans-54"/>
       <use x="45.458984" xlink:href="#DejaVuSans-79"/>
       <use x="104.638672" xlink:href="#DejaVuSans-70"/>
       <use x="168.115234" xlink:href="#DejaVuSans-65"/>
       <use x="229.638672" xlink:href="#DejaVuSans-31"/>
       <use x="293.261719" xlink:href="#DejaVuSans-5f"/>
       <use x="343.261719" xlink:href="#DejaVuSans-73"/>
       <use x="395.361328" xlink:href="#DejaVuSans-6f"/>
       <use x="456.542969" xlink:href="#DejaVuSans-63"/>
       <use x="511.523438" xlink:href="#DejaVuSans-69"/>
       <use x="539.306641" xlink:href="#DejaVuSans-61"/>
       <use x="600.585938" xlink:href="#DejaVuSans-6c"/>
       <use x="628.369141" xlink:href="#DejaVuSans-5f"/>
       <use x="678.369141" xlink:href="#DejaVuSans-70"/>
       <use x="741.845703" xlink:href="#DejaVuSans-68"/>
       <use x="805.224609" xlink:href="#DejaVuSans-6f"/>
       <use x="866.40625" xlink:href="#DejaVuSans-62"/>
       <use x="929.882812" xlink:href="#DejaVuSans-69"/>
       <use x="957.666016" xlink:href="#DejaVuSans-61"/>
      </g>
     </g>
    </g>
    <g id="xtick_9">
     <g id="line2d_9">
      <g>
       <use style="stroke:#000000;stroke-width:0.8;" x="987.2" xlink:href="#m6e41b430cf" y="640.8"/>
      </g>
     </g>
     <g id="text_9">
      <!-- Type2_social_phobia -->
      <g transform="translate(936.250781 655.398438)scale(0.1 -0.1)">
       <use xlink:href="#DejaVuSans-54"/>
       <use x="45.458984" xlink:href="#DejaVuSans-79"/>
       <use x="104.638672" xlink:href="#DejaVuSans-70"/>
       <use x="168.115234" xlink:href="#DejaVuSans-65"/>
       <use x="229.638672" xlink:href="#DejaVuSans-32"/>
       <use x="293.261719" xlink:href="#DejaVuSans-5f"/>
       <use x="343.261719" xlink:href="#DejaVuSans-73"/>
       <use x="395.361328" xlink:href="#DejaVuSans-6f"/>
       <use x="456.542969" xlink:href="#DejaVuSans-63"/>
       <use x="511.523438" xlink:href="#DejaVuSans-69"/>
       <use x="539.306641" xlink:href="#DejaVuSans-61"/>
       <use x="600.585938" xlink:href="#DejaVuSans-6c"/>
       <use x="628.369141" xlink:href="#DejaVuSans-5f"/>
       <use x="678.369141" xlink:href="#DejaVuSans-70"/>
       <use x="741.845703" xlink:href="#DejaVuSans-68"/>
       <use x="805.224609" xlink:href="#DejaVuSans-6f"/>
       <use x="866.40625" xlink:href="#DejaVuSans-62"/>
       <use x="929.882812" xlink:href="#DejaVuSans-69"/>
       <use x="957.666016" xlink:href="#DejaVuSans-61"/>
      </g>
     </g>
    </g>
   </g>
   <g id="matplotlib.axis_2">
    <g id="ytick_1">
     <g id="line2d_10">
      <defs>
       <path d="M 0 0 
L -3.5 0 
" id="m02cda12b9e" style="stroke:#000000;stroke-width:0.8;"/>
      </defs>
      <g>
       <use style="stroke:#000000;stroke-width:0.8;" x="144" xlink:href="#m02cda12b9e" y="584.896689"/>
      </g>
     </g>
     <g id="text_10">
      <!-- 10 -->
      <g transform="translate(124.275 588.695908)scale(0.1 -0.1)">
       <defs>
        <path d="M 2034 4250 
Q 1547 4250 1301 3770 
Q 1056 3291 1056 2328 
Q 1056 1369 1301 889 
Q 1547 409 2034 409 
Q 2525 409 2770 889 
Q 3016 1369 3016 2328 
Q 3016 3291 2770 3770 
Q 2525 4250 2034 4250 
z
M 2034 4750 
Q 2819 4750 3233 4129 
Q 3647 3509 3647 2328 
Q 3647 1150 3233 529 
Q 2819 -91 2034 -91 
Q 1250 -91 836 529 
Q 422 1150 422 2328 
Q 422 3509 836 4129 
Q 1250 4750 2034 4750 
z
" id="DejaVuSans-30" transform="scale(0.015625)"/>
       </defs>
       <use xlink:href="#DejaVuSans-31"/>
       <use x="63.623047" xlink:href="#DejaVuSans-30"/>
      </g>
     </g>
    </g>
    <g id="ytick_2">
     <g id="line2d_11">
      <g>
       <use style="stroke:#000000;stroke-width:0.8;" x="144" xlink:href="#m02cda12b9e" y="514.643772"/>
      </g>
     </g>
     <g id="text_11">
      <!-- 15 -->
      <g transform="translate(124.275 518.442991)scale(0.1 -0.1)">
       <defs>
        <path d="M 691 4666 
L 3169 4666 
L 3169 4134 
L 1269 4134 
L 1269 2991 
Q 1406 3038 1543 3061 
Q 1681 3084 1819 3084 
Q 2600 3084 3056 2656 
Q 3513 2228 3513 1497 
Q 3513 744 3044 326 
Q 2575 -91 1722 -91 
Q 1428 -91 1123 -41 
Q 819 9 494 109 
L 494 744 
Q 775 591 1075 516 
Q 1375 441 1709 441 
Q 2250 441 2565 725 
Q 2881 1009 2881 1497 
Q 2881 1984 2565 2268 
Q 2250 2553 1709 2553 
Q 1456 2553 1204 2497 
Q 953 2441 691 2322 
L 691 4666 
z
" id="DejaVuSans-35" transform="scale(0.015625)"/>
       </defs>
       <use xlink:href="#DejaVuSans-31"/>
       <use x="63.623047" xlink:href="#DejaVuSans-35"/>
      </g>
     </g>
    </g>
    <g id="ytick_3">
     <g id="line2d_12">
      <g>
       <use style="stroke:#000000;stroke-width:0.8;" x="144" xlink:href="#m02cda12b9e" y="444.390855"/>
      </g>
     </g>
     <g id="text_12">
      <!-- 20 -->
      <g transform="translate(124.275 448.190073)scale(0.1 -0.1)">
       <use xlink:href="#DejaVuSans-32"/>
       <use x="63.623047" xlink:href="#DejaVuSans-30"/>
      </g>
     </g>
    </g>
    <g id="ytick_4">
     <g id="line2d_13">
      <g>
       <use style="stroke:#000000;stroke-width:0.8;" x="144" xlink:href="#m02cda12b9e" y="374.137938"/>
      </g>
     </g>
     <g id="text_13">
      <!-- 25 -->
      <g transform="translate(124.275 377.937156)scale(0.1 -0.1)">
       <use xlink:href="#DejaVuSans-32"/>
       <use x="63.623047" xlink:href="#DejaVuSans-35"/>
      </g>
     </g>
    </g>
    <g id="ytick_5">
     <g id="line2d_14">
      <g>
       <use style="stroke:#000000;stroke-width:0.8;" x="144" xlink:href="#m02cda12b9e" y="303.88502"/>
      </g>
     </g>
     <g id="text_14">
      <!-- 30 -->
      <g transform="translate(124.275 307.684239)scale(0.1 -0.1)">
       <defs>
        <path d="M 2597 2516 
Q 3050 2419 3304 2112 
Q 3559 1806 3559 1356 
Q 3559 666 3084 287 
Q 2609 -91 1734 -91 
Q 1441 -91 1130 -33 
Q 819 25 488 141 
L 488 750 
Q 750 597 1062 519 
Q 1375 441 1716 441 
Q 2309 441 2620 675 
Q 2931 909 2931 1356 
Q 2931 1769 2642 2001 
Q 2353 2234 1838 2234 
L 1294 2234 
L 1294 2753 
L 1863 2753 
Q 2328 2753 2575 2939 
Q 2822 3125 2822 3475 
Q 2822 3834 2567 4026 
Q 2313 4219 1838 4219 
Q 1578 4219 1281 4162 
Q 984 4106 628 3988 
L 628 4550 
Q 988 4650 1302 4700 
Q 1616 4750 1894 4750 
Q 2613 4750 3031 4423 
Q 3450 4097 3450 3541 
Q 3450 3153 3228 2886 
Q 3006 2619 2597 2516 
z
" id="DejaVuSans-33" transform="scale(0.015625)"/>
       </defs>
       <use xlink:href="#DejaVuSans-33"/>
       <use x="63.623047" xlink:href="#DejaVuSans-30"/>
      </g>
     </g>
    </g>
    <g id="ytick_6">
     <g id="line2d_15">
      <g>
       <use style="stroke:#000000;stroke-width:0.8;" x="144" xlink:href="#m02cda12b9e" y="233.632103"/>
      </g>
     </g>
     <g id="text_15">
      <!-- 35 -->
      <g transform="translate(124.275 237.431322)scale(0.1 -0.1)">
       <use xlink:href="#DejaVuSans-33"/>
       <use x="63.623047" xlink:href="#DejaVuSans-35"/>
      </g>
     </g>
    </g>
    <g id="ytick_7">
     <g id="line2d_16">
      <g>
       <use style="stroke:#000000;stroke-width:0.8;" x="144" xlink:href="#m02cda12b9e" y="163.379186"/>
      </g>
     </g>
     <g id="text_16">
      <!-- 40 -->
      <g transform="translate(124.275 167.178405)scale(0.1 -0.1)">
       <defs>
        <path d="M 2419 4116 
L 825 1625 
L 2419 1625 
L 2419 4116 
z
M 2253 4666 
L 3047 4666 
L 3047 1625 
L 3713 1625 
L 3713 1100 
L 3047 1100 
L 3047 0 
L 2419 0 
L 2419 1100 
L 313 1100 
L 313 1709 
L 2253 4666 
z
" id="DejaVuSans-34" transform="scale(0.015625)"/>
       </defs>
       <use xlink:href="#DejaVuSans-34"/>
       <use x="63.623047" xlink:href="#DejaVuSans-30"/>
      </g>
     </g>
    </g>
    <g id="ytick_8">
     <g id="line2d_17">
      <g>
       <use style="stroke:#000000;stroke-width:0.8;" x="144" xlink:href="#m02cda12b9e" y="93.126269"/>
      </g>
     </g>
     <g id="text_17">
      <!-- 45 -->
      <g transform="translate(124.275 96.925488)scale(0.1 -0.1)">
       <use xlink:href="#DejaVuSans-34"/>
       <use x="63.623047" xlink:href="#DejaVuSans-35"/>
      </g>
     </g>
    </g>
   </g>
   <g id="line2d_18">
    <path clip-path="url(#p89b20243cd)" d="M 193.6 374.137938 
L 193.6 219.58152 
" style="fill:none;stroke:#484848;stroke-linecap:square;stroke-width:1.5;"/>
   </g>
   <g id="line2d_19">
    <path clip-path="url(#p89b20243cd)" d="M 193.6 335.498833 
L 193.6 281.052822 
" style="fill:none;stroke:#484848;stroke-linecap:square;stroke-width:4.5;"/>
   </g>
   <g id="line2d_20">
    <path clip-path="url(#p89b20243cd)" d="M 292.8 521.669064 
L 292.8 472.492022 
" style="fill:none;stroke:#484848;stroke-linecap:square;stroke-width:1.5;"/>
   </g>
   <g id="line2d_21">
    <path clip-path="url(#p89b20243cd)" d="M 292.8 509.374803 
L 292.8 472.492022 
" style="fill:none;stroke:#484848;stroke-linecap:square;stroke-width:4.5;"/>
   </g>
   <g id="line2d_22">
    <path clip-path="url(#p89b20243cd)" d="M 392 416.289688 
L 392 198.505645 
" style="fill:none;stroke:#484848;stroke-linecap:square;stroke-width:1.5;"/>
   </g>
   <g id="line2d_23">
    <path clip-path="url(#p89b20243cd)" d="M 392 342.524125 
L 392 282.809145 
" style="fill:none;stroke:#484848;stroke-linecap:square;stroke-width:4.5;"/>
   </g>
   <g id="line2d_24">
    <path clip-path="url(#p89b20243cd)" d="M 491.2 493.567897 
L 491.2 423.31498 
" style="fill:none;stroke:#484848;stroke-linecap:square;stroke-width:1.5;"/>
   </g>
   <g id="line2d_25">
    <path clip-path="url(#p89b20243cd)" d="M 491.2 472.492022 
L 491.2 428.583948 
" style="fill:none;stroke:#484848;stroke-linecap:square;stroke-width:4.5;"/>
   </g>
   <g id="line2d_26">
    <path clip-path="url(#p89b20243cd)" d="M 590.4 388.188521 
L 590.4 233.632103 
" style="fill:none;stroke:#484848;stroke-linecap:square;stroke-width:1.5;"/>
   </g>
   <g id="line2d_27">
    <path clip-path="url(#p89b20243cd)" d="M 590.4 342.524125 
L 590.4 284.565468 
" style="fill:none;stroke:#484848;stroke-linecap:square;stroke-width:4.5;"/>
   </g>
   <g id="line2d_28">
    <path clip-path="url(#p89b20243cd)" d="M 689.6 521.669064 
L 689.6 409.264396 
" style="fill:none;stroke:#484848;stroke-linecap:square;stroke-width:1.5;"/>
   </g>
   <g id="line2d_29">
    <path clip-path="url(#p89b20243cd)" d="M 689.6 481.273636 
L 689.6 449.659824 
" style="fill:none;stroke:#484848;stroke-linecap:square;stroke-width:4.5;"/>
   </g>
   <g id="line2d_30">
    <path clip-path="url(#p89b20243cd)" d="M 788.8 500.593188 
L 788.8 212.556228 
" style="fill:none;stroke:#484848;stroke-linecap:square;stroke-width:1.5;"/>
   </g>
   <g id="line2d_31">
    <path clip-path="url(#p89b20243cd)" d="M 788.8 400.482782 
L 788.8 274.027531 
" style="fill:none;stroke:#484848;stroke-linecap:square;stroke-width:4.5;"/>
   </g>
   <g id="line2d_32">
    <path clip-path="url(#p89b20243cd)" d="M 888 486.542605 
L 888 430.340271 
" style="fill:none;stroke:#484848;stroke-linecap:square;stroke-width:1.5;"/>
   </g>
   <g id="line2d_33">
    <path clip-path="url(#p89b20243cd)" d="M 888 470.735699 
L 888 451.416146 
" style="fill:none;stroke:#484848;stroke-linecap:square;stroke-width:4.5;"/>
   </g>
   <g id="line2d_34">
    <path clip-path="url(#p89b20243cd)" d="M 987.2 458.441438 
L 987.2 430.340271 
" style="fill:none;stroke:#484848;stroke-linecap:square;stroke-width:1.5;"/>
   </g>
   <g id="line2d_35">
    <path clip-path="url(#p89b20243cd)" d="M 987.2 458.441438 
L 987.2 444.390855 
" style="fill:none;stroke:#484848;stroke-linecap:square;stroke-width:4.5;"/>
   </g>
   <g id="patch_3">
    <path d="M 144 640.8 
L 144 86.4 
" style="fill:none;stroke:#000000;stroke-linecap:square;stroke-linejoin:miter;stroke-width:0.8;"/>
   </g>
   <g id="patch_4">
    <path d="M 1036.8 640.8 
L 1036.8 86.4 
" style="fill:none;stroke:#000000;stroke-linecap:square;stroke-linejoin:miter;stroke-width:0.8;"/>
   </g>
   <g id="patch_5">
    <path d="M 144 640.8 
L 1036.8 640.8 
" style="fill:none;stroke:#000000;stroke-linecap:square;stroke-linejoin:miter;stroke-width:0.8;"/>
   </g>
   <g id="patch_6">
    <path d="M 144 86.4 
L 1036.8 86.4 
" style="fill:none;stroke:#000000;stroke-linecap:square;stroke-linejoin:miter;stroke-width:0.8;"/>
   </g>
   <g id="PathCollection_1">
    <defs>
     <path d="M 0 1.5 
C 0.397805 1.5 0.77937 1.341951 1.06066 1.06066 
C 1.341951 0.77937 1.5 0.397805 1.5 0 
C 1.5 -0.397805 1.341951 -0.77937 1.06066 -1.06066 
C 0.77937 -1.341951 0.397805 -1.5 0 -1.5 
C -0.397805 -1.5 -0.77937 -1.341951 -1.06066 -1.06066 
C -1.341951 -0.77937 -1.5 -0.397805 -1.5 0 
C -1.5 0.397805 -1.341951 0.77937 -1.06066 1.06066 
C -0.77937 1.341951 -0.397805 1.5 0 1.5 
z
" id="ma2ed6cc4ec" style="stroke:#484848;"/>
    </defs>
    <g clip-path="url(#p89b20243cd)">
     <use style="fill:#ffffff;stroke:#484848;" x="193.6" xlink:href="#ma2ed6cc4ec" y="317.935604"/>
    </g>
   </g>
   <g id="PathCollection_2">
    <g clip-path="url(#p89b20243cd)">
     <use style="fill:#ffffff;stroke:#484848;" x="292.8" xlink:href="#ma2ed6cc4ec" y="483.029959"/>
    </g>
   </g>
   <g id="PathCollection_3">
    <g clip-path="url(#p89b20243cd)">
     <use style="fill:#ffffff;stroke:#484848;" x="392" xlink:href="#ma2ed6cc4ec" y="317.935604"/>
    </g>
   </g>
   <g id="PathCollection_4">
    <g clip-path="url(#p89b20243cd)">
     <use style="fill:#ffffff;stroke:#484848;" x="491.2" xlink:href="#ma2ed6cc4ec" y="468.979376"/>
    </g>
   </g>
   <g id="PathCollection_5">
    <g clip-path="url(#p89b20243cd)">
     <use style="fill:#ffffff;stroke:#484848;" x="590.4" xlink:href="#ma2ed6cc4ec" y="296.859729"/>
    </g>
   </g>
   <g id="PathCollection_6">
    <g clip-path="url(#p89b20243cd)">
     <use style="fill:#ffffff;stroke:#484848;" x="689.6" xlink:href="#ma2ed6cc4ec" y="465.46673"/>
    </g>
   </g>
   <g id="PathCollection_7">
    <g clip-path="url(#p89b20243cd)">
     <use style="fill:#ffffff;stroke:#484848;" x="788.8" xlink:href="#ma2ed6cc4ec" y="300.372375"/>
    </g>
   </g>
   <g id="PathCollection_8">
    <g clip-path="url(#p89b20243cd)">
     <use style="fill:#ffffff;stroke:#484848;" x="888" xlink:href="#ma2ed6cc4ec" y="451.416146"/>
    </g>
   </g>
   <g id="PathCollection_9">
    <g clip-path="url(#p89b20243cd)">
     <use style="fill:#ffffff;stroke:#484848;" x="987.2" xlink:href="#ma2ed6cc4ec" y="458.441438"/>
    </g>
   </g>
   <g id="text_18">
    <!-- Rewards earned per agent type - hostile context first -->
    <g transform="translate(259.265234 80.4)scale(0.25 -0.25)">
     <defs>
      <path d="M 2841 2188 
Q 3044 2119 3236 1894 
Q 3428 1669 3622 1275 
L 4263 0 
L 3584 0 
L 2988 1197 
Q 2756 1666 2539 1819 
Q 2322 1972 1947 1972 
L 1259 1972 
L 1259 0 
L 628 0 
L 628 4666 
L 2053 4666 
Q 2853 4666 3247 4331 
Q 3641 3997 3641 3322 
Q 3641 2881 3436 2590 
Q 3231 2300 2841 2188 
z
M 1259 4147 
L 1259 2491 
L 2053 2491 
Q 2509 2491 2742 2702 
Q 2975 2913 2975 3322 
Q 2975 3731 2742 3939 
Q 2509 4147 2053 4147 
L 1259 4147 
z
" id="DejaVuSans-52" transform="scale(0.015625)"/>
      <path d="M 269 3500 
L 844 3500 
L 1563 769 
L 2278 3500 
L 2956 3500 
L 3675 769 
L 4391 3500 
L 4966 3500 
L 4050 0 
L 3372 0 
L 2619 2869 
L 1863 0 
L 1184 0 
L 269 3500 
z
" id="DejaVuSans-77" transform="scale(0.015625)"/>
      <path id="DejaVuSans-20" transform="scale(0.015625)"/>
      <path d="M 3513 2113 
L 3513 0 
L 2938 0 
L 2938 2094 
Q 2938 2591 2744 2837 
Q 2550 3084 2163 3084 
Q 1697 3084 1428 2787 
Q 1159 2491 1159 1978 
L 1159 0 
L 581 0 
L 581 3500 
L 1159 3500 
L 1159 2956 
Q 1366 3272 1645 3428 
Q 1925 3584 2291 3584 
Q 2894 3584 3203 3211 
Q 3513 2838 3513 2113 
z
" id="DejaVuSans-6e" transform="scale(0.015625)"/>
      <path d="M 2906 1791 
Q 2906 2416 2648 2759 
Q 2391 3103 1925 3103 
Q 1463 3103 1205 2759 
Q 947 2416 947 1791 
Q 947 1169 1205 825 
Q 1463 481 1925 481 
Q 2391 481 2648 825 
Q 2906 1169 2906 1791 
z
M 3481 434 
Q 3481 -459 3084 -895 
Q 2688 -1331 1869 -1331 
Q 1566 -1331 1297 -1286 
Q 1028 -1241 775 -1147 
L 775 -588 
Q 1028 -725 1275 -790 
Q 1522 -856 1778 -856 
Q 2344 -856 2625 -561 
Q 2906 -266 2906 331 
L 2906 616 
Q 2728 306 2450 153 
Q 2172 0 1784 0 
Q 1141 0 747 490 
Q 353 981 353 1791 
Q 353 2603 747 3093 
Q 1141 3584 1784 3584 
Q 2172 3584 2450 3431 
Q 2728 3278 2906 2969 
L 2906 3500 
L 3481 3500 
L 3481 434 
z
" id="DejaVuSans-67" transform="scale(0.015625)"/>
      <path d="M 313 2009 
L 1997 2009 
L 1997 1497 
L 313 1497 
L 313 2009 
z
" id="DejaVuSans-2d" transform="scale(0.015625)"/>
      <path d="M 3513 3500 
L 2247 1797 
L 3578 0 
L 2900 0 
L 1881 1375 
L 863 0 
L 184 0 
L 1544 1831 
L 300 3500 
L 978 3500 
L 1906 2253 
L 2834 3500 
L 3513 3500 
z
" id="DejaVuSans-78" transform="scale(0.015625)"/>
      <path d="M 2375 4863 
L 2375 4384 
L 1825 4384 
Q 1516 4384 1395 4259 
Q 1275 4134 1275 3809 
L 1275 3500 
L 2222 3500 
L 2222 3053 
L 1275 3053 
L 1275 0 
L 697 0 
L 697 3053 
L 147 3053 
L 147 3500 
L 697 3500 
L 697 3744 
Q 697 4328 969 4595 
Q 1241 4863 1831 4863 
L 2375 4863 
z
" id="DejaVuSans-66" transform="scale(0.015625)"/>
     </defs>
     <use xlink:href="#DejaVuSans-52"/>
     <use x="64.982422" xlink:href="#DejaVuSans-65"/>
     <use x="126.505859" xlink:href="#DejaVuSans-77"/>
     <use x="208.292969" xlink:href="#DejaVuSans-61"/>
     <use x="269.572266" xlink:href="#DejaVuSans-72"/>
     <use x="308.935547" xlink:href="#DejaVuSans-64"/>
     <use x="372.412109" xlink:href="#DejaVuSans-73"/>
     <use x="424.511719" xlink:href="#DejaVuSans-20"/>
     <use x="456.298828" xlink:href="#DejaVuSans-65"/>
     <use x="517.822266" xlink:href="#DejaVuSans-61"/>
     <use x="579.101562" xlink:href="#DejaVuSans-72"/>
     <use x="618.464844" xlink:href="#DejaVuSans-6e"/>
     <use x="681.84375" xlink:href="#DejaVuSans-65"/>
     <use x="743.367188" xlink:href="#DejaVuSans-64"/>
     <use x="806.84375" xlink:href="#DejaVuSans-20"/>
     <use x="838.630859" xlink:href="#DejaVuSans-70"/>
     <use x="902.107422" xlink:href="#DejaVuSans-65"/>
     <use x="963.630859" xlink:href="#DejaVuSans-72"/>
     <use x="1004.744141" xlink:href="#DejaVuSans-20"/>
     <use x="1036.53125" xlink:href="#DejaVuSans-61"/>
     <use x="1097.810547" xlink:href="#DejaVuSans-67"/>
     <use x="1161.287109" xlink:href="#DejaVuSans-65"/>
     <use x="1222.810547" xlink:href="#DejaVuSans-6e"/>
     <use x="1286.189453" xlink:href="#DejaVuSans-74"/>
     <use x="1325.398438" xlink:href="#DejaVuSans-20"/>
     <use x="1357.185547" xlink:href="#DejaVuSans-74"/>
     <use x="1396.394531" xlink:href="#DejaVuSans-79"/>
     <use x="1455.574219" xlink:href="#DejaVuSans-70"/>
     <use x="1519.050781" xlink:href="#DejaVuSans-65"/>
     <use x="1580.574219" xlink:href="#DejaVuSans-20"/>
     <use x="1612.361328" xlink:href="#DejaVuSans-2d"/>
     <use x="1648.445312" xlink:href="#DejaVuSans-20"/>
     <use x="1680.232422" xlink:href="#DejaVuSans-68"/>
     <use x="1743.611328" xlink:href="#DejaVuSans-6f"/>
     <use x="1804.792969" xlink:href="#DejaVuSans-73"/>
     <use x="1856.892578" xlink:href="#DejaVuSans-74"/>
     <use x="1896.101562" xlink:href="#DejaVuSans-69"/>
     <use x="1923.884766" xlink:href="#DejaVuSans-6c"/>
     <use x="1951.667969" xlink:href="#DejaVuSans-65"/>
     <use x="2013.191406" xlink:href="#DejaVuSans-20"/>
     <use x="2044.978516" xlink:href="#DejaVuSans-63"/>
     <use x="2099.958984" xlink:href="#DejaVuSans-6f"/>
     <use x="2161.140625" xlink:href="#DejaVuSans-6e"/>
     <use x="2224.519531" xlink:href="#DejaVuSans-74"/>
     <use x="2263.728516" xlink:href="#DejaVuSans-65"/>
     <use x="2323.501953" xlink:href="#DejaVuSans-78"/>
     <use x="2382.681641" xlink:href="#DejaVuSans-74"/>
     <use x="2421.890625" xlink:href="#DejaVuSans-20"/>
     <use x="2453.677734" xlink:href="#DejaVuSans-66"/>
     <use x="2488.882812" xlink:href="#DejaVuSans-69"/>
     <use x="2516.666016" xlink:href="#DejaVuSans-72"/>
     <use x="2557.779297" xlink:href="#DejaVuSans-73"/>
     <use x="2609.878906" xlink:href="#DejaVuSans-74"/>
    </g>
   </g>
  </g>
 </g>
 <defs>
  <clipPath id="p89b20243cd">
   <rect height="554.4" width="892.8" x="144" y="86.4"/>
  </clipPath>
 </defs>
</svg>
