<?xml version="1.0" encoding="utf-8" standalone="no"?>
<!DOCTYPE svg PUBLIC "-//W3C//DTD SVG 1.1//EN"
  "http://www.w3.org/Graphics/SVG/1.1/DTD/svg11.dtd">
<svg height="582.48pt" version="1.1" viewBox="0 0 1150.56 582.48" width="1150.56pt" xmlns="http://www.w3.org/2000/svg" xmlns:xlink="http://www.w3.org/1999/xlink">
 <metadata>
  <rdf:RDF xmlns:cc="http://creativecommons.org/ns#" xmlns:dc="http://purl.org/dc/elements/1.1/" xmlns:rdf="http://www.w3.org/1999/02/22-rdf-syntax-ns#">
   <cc:Work>
    <dc:type rdf:resource="http://purl.org/dc/dcmitype/StillImage"/>
    <dc:date>2024-06-11T16:10:58.160421</dc:date>
    <dc:format>image/svg+xml</dc:format>
    <dc:creator>
     <cc:Agent>
      <dc:title>Matplotlib v3.4.3, https://matplotlib.org/</dc:title>
     </cc:Agent>
    </dc:creator>
   </cc:Work>
  </rdf:RDF>
 </metadata>
 <defs>
  <style type="text/css">*{stroke-linecap:butt;stroke-linejoin:round;}</style>
 </defs>
 <g id="figure_1">
  <g id="patch_1">
   <path d="M 0 582.48 
L 1150.56 582.48 
L 1150.56 0 
L 0 0 
z
" style="fill:#ffffff;"/>
  </g>
  <g id="axes_1">
   <g id="patch_2">
    <path d="M 143.82 518.4072 
L 1035.504 518.4072 
L 1035.504 69.8976 
L 143.82 69.8976 
z
" style="fill:#ffffff;"/>
   </g>
   <g id="PathCollection_1">
    <path clip-path="url(#p994a684fe2)" d="M 194.483864 501.564884 
L 200.607588 489.317436 
L 188.360139 489.317436 
z
" style="fill:#ff0000;stroke:#ff0000;"/>
    <path clip-path="url(#p994a684fe2)" d="M 214.749409 437.23758 
L 208.625685 449.485029 
L 220.873133 449.485029 
z
" style="fill:#0000ff;stroke:#0000ff;"/>
    <path clip-path="url(#p994a684fe2)" d="M 235.014955 285.293406 
L 228.89123 297.540855 
L 241.138679 297.540855 
z
" style="fill:#0000ff;stroke:#0000ff;"/>
    <path clip-path="url(#p994a684fe2)" d="M 255.2805 363.545666 
L 261.404224 351.298217 
L 249.156776 351.298217 
z
" style="fill:#ff0000;stroke:#ff0000;"/>
    <path clip-path="url(#p994a684fe2)" d="M 275.546045 405.320519 
L 269.422321 417.567967 
L 281.66977 417.567967 
z
" style="fill:#0000ff;stroke:#0000ff;"/>
    <path clip-path="url(#p994a684fe2)" d="M 295.811591 258.61822 
L 289.687867 270.865669 
L 301.935315 270.865669 
z
" style="fill:#0000ff;stroke:#0000ff;"/>
    <path clip-path="url(#p994a684fe2)" d="M 316.077136 182.07613 
L 309.953412 194.323579 
L 322.200861 194.323579 
z
" style="fill:#0000ff;stroke:#0000ff;"/>
    <path clip-path="url(#p994a684fe2)" d="M 336.342682 153.55087 
L 330.218957 165.798319 
L 342.466406 165.798319 
z
" style="fill:#0000ff;stroke:#0000ff;"/>
    <path clip-path="url(#p994a684fe2)" d="M 356.608227 139.457023 
L 350.484503 151.704471 
L 362.731952 151.704471 
z
" style="fill:#0000ff;stroke:#0000ff;"/>
    <path clip-path="url(#p994a684fe2)" d="M 376.873773 130.186469 
L 370.750048 142.433917 
L 382.997497 142.433917 
z
" style="fill:#0000ff;stroke:#0000ff;"/>
    <path clip-path="url(#p994a684fe2)" d="M 397.139318 123.260225 
L 391.015594 135.507674 
L 403.263043 135.507674 
z
" style="fill:#0000ff;stroke:#0000ff;"/>
    <path clip-path="url(#p994a684fe2)" d="M 417.404864 117.807388 
L 411.281139 130.054837 
L 423.528588 130.054837 
z
" style="fill:#0000ff;stroke:#0000ff;"/>
    <path clip-path="url(#p994a684fe2)" d="M 437.670409 297.153562 
L 443.794133 284.906113 
L 431.546685 284.906113 
z
" style="fill:#ff0000;stroke:#ff0000;"/>
    <path clip-path="url(#p994a684fe2)" d="M 457.935955 490.353737 
L 464.059679 478.106288 
L 451.81223 478.106288 
z
" style="fill:#ff0000;stroke:#ff0000;"/>
    <path clip-path="url(#p994a684fe2)" d="M 478.2015 395.596986 
L 472.077776 407.844435 
L 484.325224 407.844435 
z
" style="fill:#0000ff;stroke:#0000ff;"/>
    <path clip-path="url(#p994a684fe2)" d="M 498.467045 227.840147 
L 492.343321 240.087596 
L 504.59077 240.087596 
z
" style="fill:#0000ff;stroke:#0000ff;"/>
    <path clip-path="url(#p994a684fe2)" d="M 518.732591 318.462874 
L 524.856315 306.215425 
L 512.608867 306.215425 
z
" style="fill:#ff0000;stroke:#ff0000;"/>
    <path clip-path="url(#p994a684fe2)" d="M 538.998136 482.684864 
L 545.121861 470.437415 
L 532.874412 470.437415 
z
" style="fill:#ff0000;stroke:#ff0000;"/>
    <path clip-path="url(#p994a684fe2)" d="M 559.263682 395.688694 
L 553.139957 407.936143 
L 565.387406 407.936143 
z
" style="fill:#0000ff;stroke:#0000ff;"/>
    <path clip-path="url(#p994a684fe2)" d="M 579.529227 301.534166 
L 573.405503 313.781615 
L 585.652952 313.781615 
z
" style="fill:#0000ff;stroke:#0000ff;"/>
    <path clip-path="url(#p994a684fe2)" d="M 599.794773 402.013891 
L 605.918497 389.766442 
L 593.671048 389.766442 
z
" style="fill:#ff0000;stroke:#ff0000;"/>
    <path clip-path="url(#p994a684fe2)" d="M 620.060318 496.791785 
L 626.184043 484.544336 
L 613.936594 484.544336 
z
" style="fill:#ff0000;stroke:#ff0000;"/>
    <path clip-path="url(#p994a684fe2)" d="M 640.325864 510.190004 
L 646.449588 497.942556 
L 634.202139 497.942556 
z
" style="fill:#ff0000;stroke:#ff0000;"/>
    <path clip-path="url(#p994a684fe2)" d="M 660.591409 512.987039 
L 666.715133 500.73959 
L 654.467685 500.73959 
z
" style="fill:#ff0000;stroke:#ff0000;"/>
    <path clip-path="url(#p994a684fe2)" d="M 677.795092 479.606356 
L 680.856955 476.544494 
L 683.918817 479.606356 
L 686.980679 476.544494 
L 683.918817 473.482632 
L 686.980679 470.42077 
L 683.918817 467.358908 
L 680.856955 470.42077 
L 677.795092 467.358908 
L 674.73323 470.42077 
L 677.795092 473.482632 
L 674.73323 476.544494 
z
" style="stroke:#000000;"/>
    <path clip-path="url(#p994a684fe2)" d="M 701.1225 476.604679 
L 707.246224 464.35723 
L 694.998776 464.35723 
z
" style="fill:#ff0000;stroke:#ff0000;"/>
    <path clip-path="url(#p994a684fe2)" d="M 718.326183 475.987042 
L 721.388045 472.92518 
L 724.449908 475.987042 
L 727.51177 472.92518 
L 724.449908 469.863317 
L 727.51177 466.801455 
L 724.449908 463.739593 
L 721.388045 466.801455 
L 718.326183 463.739593 
L 715.264321 466.801455 
L 718.326183 469.863317 
L 715.264321 472.92518 
z
" style="stroke:#000000;"/>
    <path clip-path="url(#p994a684fe2)" d="M 741.653591 476.241416 
L 747.777315 463.993967 
L 735.529867 463.993967 
z
" style="fill:#ff0000;stroke:#ff0000;"/>
    <path clip-path="url(#p994a684fe2)" d="M 758.857274 477.582169 
L 761.919136 474.520307 
L 764.980999 477.582169 
L 768.042861 474.520307 
L 764.980999 471.458444 
L 768.042861 468.396582 
L 764.980999 465.33472 
L 761.919136 468.396582 
L 758.857274 465.33472 
L 755.795412 468.396582 
L 758.857274 471.458444 
L 755.795412 474.520307 
z
" style="stroke:#000000;"/>
    <path clip-path="url(#p994a684fe2)" d="M 782.184682 477.985959 
L 788.308406 465.73851 
L 776.060957 465.73851 
z
" style="fill:#ff0000;stroke:#ff0000;"/>
    <path clip-path="url(#p994a684fe2)" d="M 799.388365 479.301301 
L 802.450227 476.239439 
L 805.512089 479.301301 
L 808.573952 476.239439 
L 805.512089 473.177577 
L 808.573952 470.115714 
L 805.512089 467.053852 
L 802.450227 470.115714 
L 799.388365 467.053852 
L 796.326503 470.115714 
L 799.388365 473.177577 
L 796.326503 476.239439 
z
" style="stroke:#000000;"/>
    <path clip-path="url(#p994a684fe2)" d="M 822.715773 479.666153 
L 828.839497 467.418704 
L 816.592048 467.418704 
z
" style="fill:#ff0000;stroke:#ff0000;"/>
    <path clip-path="url(#p994a684fe2)" d="M 839.919456 480.857327 
L 842.981318 477.795464 
L 846.04318 480.857327 
L 849.105043 477.795464 
L 846.04318 474.733602 
L 849.105043 471.67174 
L 846.04318 468.609878 
L 842.981318 471.67174 
L 839.919456 468.609878 
L 836.857594 471.67174 
L 839.919456 474.733602 
L 836.857594 477.795464 
z
" style="stroke:#000000;"/>
    <path clip-path="url(#p994a684fe2)" d="M 863.246864 481.180707 
L 869.370588 468.933259 
L 857.123139 468.933259 
z
" style="fill:#ff0000;stroke:#ff0000;"/>
    <path clip-path="url(#p994a684fe2)" d="M 880.450547 482.260948 
L 883.512409 479.199086 
L 886.574271 482.260948 
L 889.636133 479.199086 
L 886.574271 476.137224 
L 889.636133 473.075362 
L 886.574271 470.0135 
L 883.512409 473.075362 
L 880.450547 470.0135 
L 877.388685 473.075362 
L 880.450547 476.137224 
L 877.388685 479.199086 
z
" style="stroke:#000000;"/>
    <path clip-path="url(#p994a684fe2)" d="M 903.777955 482.549457 
L 909.901679 470.302008 
L 897.65423 470.302008 
z
" style="fill:#ff0000;stroke:#ff0000;"/>
    <path clip-path="url(#p994a684fe2)" d="M 920.981638 483.534766 
L 924.0435 480.472904 
L 927.105362 483.534766 
L 930.167224 480.472904 
L 927.105362 477.411041 
L 930.167224 474.349179 
L 927.105362 471.287317 
L 924.0435 474.349179 
L 920.981638 471.287317 
L 917.919776 474.349179 
L 920.981638 477.411041 
L 917.919776 480.472904 
z
" style="stroke:#000000;"/>
    <path clip-path="url(#p994a684fe2)" d="M 944.309045 355.840088 
L 938.185321 368.087536 
L 950.43277 368.087536 
z
" style="fill:#0000ff;stroke:#0000ff;"/>
    <path clip-path="url(#p994a684fe2)" d="M 964.574591 382.935361 
L 970.698315 370.687912 
L 958.450867 370.687912 
z
" style="fill:#ff0000;stroke:#ff0000;"/>
    <path clip-path="url(#p994a684fe2)" d="M 981.778274 300.276124 
L 984.840136 297.214262 
L 987.901999 300.276124 
L 990.963861 297.214262 
L 987.901999 294.1524 
L 990.963861 291.090538 
L 987.901999 288.028676 
L 984.840136 291.090538 
L 981.778274 288.028676 
L 978.716412 291.090538 
L 981.778274 294.1524 
L 978.716412 297.214262 
z
" style="stroke:#000000;"/>
   </g>
   <g id="patch_3">
    <path clip-path="url(#p994a684fe2)" d="M 184.351091 518.4072 
L 184.351091 69.8976 
L 589.662 69.8976 
L 589.662 518.4072 
z
" style="fill:#b0e0e6;opacity:0.3;"/>
   </g>
   <g id="patch_4">
    <path clip-path="url(#p994a684fe2)" d="M 589.662 518.4072 
L 589.662 69.8976 
L 994.972909 69.8976 
L 994.972909 518.4072 
z
" style="fill:#ff7f50;opacity:0.3;"/>
   </g>
   <g id="matplotlib.axis_1">
    <g id="xtick_1">
     <g id="line2d_1">
      <defs>
       <path d="M 0 0 
L 0 3.5 
" id="md5b4ca37aa" style="stroke:#000000;stroke-width:0.8;"/>
      </defs>
      <g>
       <use style="stroke:#000000;stroke-width:0.8;" x="184.351091" xlink:href="#md5b4ca37aa" y="518.4072"/>
      </g>
     </g>
     <g id="text_1">
      <!-- 0 -->
      <g transform="translate(179.579216 536.804856)scale(0.15 -0.15)">
       <defs>
        <path d="M 2034 4250 
Q 1547 4250 1301 3770 
Q 1056 3291 1056 2328 
Q 1056 1369 1301 889 
Q 1547 409 2034 409 
Q 2525 409 2770 889 
Q 3016 1369 3016 2328 
Q 3016 3291 2770 3770 
Q 2525 4250 2034 4250 
z
M 2034 4750 
Q 2819 4750 3233 4129 
Q 3647 3509 3647 2328 
Q 3647 1150 3233 529 
Q 2819 -91 2034 -91 
Q 1250 -91 836 529 
Q 422 1150 422 2328 
Q 422 3509 836 4129 
Q 1250 4750 2034 4750 
z
" id="DejaVuSans-30" transform="scale(0.015625)"/>
       </defs>
       <use xlink:href="#DejaVuSans-30"/>
      </g>
     </g>
    </g>
    <g id="xtick_2">
     <g id="line2d_2">
      <g>
       <use style="stroke:#000000;stroke-width:0.8;" x="204.616636" xlink:href="#md5b4ca37aa" y="518.4072"/>
      </g>
     </g>
     <g id="text_2">
      <!-- 1 -->
      <g transform="translate(199.844761 536.804856)scale(0.15 -0.15)">
       <defs>
        <path d="M 794 531 
L 1825 531 
L 1825 4091 
L 703 3866 
L 703 4441 
L 1819 4666 
L 2450 4666 
L 2450 531 
L 3481 531 
L 3481 0 
L 794 0 
L 794 531 
z
" id="DejaVuSans-31" transform="scale(0.015625)"/>
       </defs>
       <use xlink:href="#DejaVuSans-31"/>
      </g>
     </g>
    </g>
    <g id="xtick_3">
     <g id="line2d_3">
      <g>
       <use style="stroke:#000000;stroke-width:0.8;" x="224.882182" xlink:href="#md5b4ca37aa" y="518.4072"/>
      </g>
     </g>
     <g id="text_3">
      <!-- 2 -->
      <g transform="translate(220.110307 536.804856)scale(0.15 -0.15)">
       <defs>
        <path d="M 1228 531 
L 3431 531 
L 3431 0 
L 469 0 
L 469 531 
Q 828 903 1448 1529 
Q 2069 2156 2228 2338 
Q 2531 2678 2651 2914 
Q 2772 3150 2772 3378 
Q 2772 3750 2511 3984 
Q 2250 4219 1831 4219 
Q 1534 4219 1204 4116 
Q 875 4013 500 3803 
L 500 4441 
Q 881 4594 1212 4672 
Q 1544 4750 1819 4750 
Q 2544 4750 2975 4387 
Q 3406 4025 3406 3419 
Q 3406 3131 3298 2873 
Q 3191 2616 2906 2266 
Q 2828 2175 2409 1742 
Q 1991 1309 1228 531 
z
" id="DejaVuSans-32" transform="scale(0.015625)"/>
       </defs>
       <use xlink:href="#DejaVuSans-32"/>
      </g>
     </g>
    </g>
    <g id="xtick_4">
     <g id="line2d_4">
      <g>
       <use style="stroke:#000000;stroke-width:0.8;" x="245.147727" xlink:href="#md5b4ca37aa" y="518.4072"/>
      </g>
     </g>
     <g id="text_4">
      <!-- 3 -->
      <g transform="translate(240.375852 536.804856)scale(0.15 -0.15)">
       <defs>
        <path d="M 2597 2516 
Q 3050 2419 3304 2112 
Q 3559 1806 3559 1356 
Q 3559 666 3084 287 
Q 2609 -91 1734 -91 
Q 1441 -91 1130 -33 
Q 819 25 488 141 
L 488 750 
Q 750 597 1062 519 
Q 1375 441 1716 441 
Q 2309 441 2620 675 
Q 2931 909 2931 1356 
Q 2931 1769 2642 2001 
Q 2353 2234 1838 2234 
L 1294 2234 
L 1294 2753 
L 1863 2753 
Q 2328 2753 2575 2939 
Q 2822 3125 2822 3475 
Q 2822 3834 2567 4026 
Q 2313 4219 1838 4219 
Q 1578 4219 1281 4162 
Q 984 4106 628 3988 
L 628 4550 
Q 988 4650 1302 4700 
Q 1616 4750 1894 4750 
Q 2613 4750 3031 4423 
Q 3450 4097 3450 3541 
Q 3450 3153 3228 2886 
Q 3006 2619 2597 2516 
z
" id="DejaVuSans-33" transform="scale(0.015625)"/>
       </defs>
       <use xlink:href="#DejaVuSans-33"/>
      </g>
     </g>
    </g>
    <g id="xtick_5">
     <g id="line2d_5">
      <g>
       <use style="stroke:#000000;stroke-width:0.8;" x="265.413273" xlink:href="#md5b4ca37aa" y="518.4072"/>
      </g>
     </g>
     <g id="text_5">
      <!-- 4 -->
      <g transform="translate(260.641398 536.804856)scale(0.15 -0.15)">
       <defs>
        <path d="M 2419 4116 
L 825 1625 
L 2419 1625 
L 2419 4116 
z
M 2253 4666 
L 3047 4666 
L 3047 1625 
L 3713 1625 
L 3713 1100 
L 3047 1100 
L 3047 0 
L 2419 0 
L 2419 1100 
L 313 1100 
L 313 1709 
L 2253 4666 
z
" id="DejaVuSans-34" transform="scale(0.015625)"/>
       </defs>
       <use xlink:href="#DejaVuSans-34"/>
      </g>
     </g>
    </g>
    <g id="xtick_6">
     <g id="line2d_6">
      <g>
       <use style="stroke:#000000;stroke-width:0.8;" x="285.678818" xlink:href="#md5b4ca37aa" y="518.4072"/>
      </g>
     </g>
     <g id="text_6">
      <!-- 5 -->
      <g transform="translate(280.906943 536.804856)scale(0.15 -0.15)">
       <defs>
        <path d="M 691 4666 
L 3169 4666 
L 3169 4134 
L 1269 4134 
L 1269 2991 
Q 1406 3038 1543 3061 
Q 1681 3084 1819 3084 
Q 2600 3084 3056 2656 
Q 3513 2228 3513 1497 
Q 3513 744 3044 326 
Q 2575 -91 1722 -91 
Q 1428 -91 1123 -41 
Q 819 9 494 109 
L 494 744 
Q 775 591 1075 516 
Q 1375 441 1709 441 
Q 2250 441 2565 725 
Q 2881 1009 2881 1497 
Q 2881 1984 2565 2268 
Q 2250 2553 1709 2553 
Q 1456 2553 1204 2497 
Q 953 2441 691 2322 
L 691 4666 
z
" id="DejaVuSans-35" transform="scale(0.015625)"/>
       </defs>
       <use xlink:href="#DejaVuSans-35"/>
      </g>
     </g>
    </g>
    <g id="xtick_7">
     <g id="line2d_7">
      <g>
       <use style="stroke:#000000;stroke-width:0.8;" x="305.944364" xlink:href="#md5b4ca37aa" y="518.4072"/>
      </g>
     </g>
     <g id="text_7">
      <!-- 6 -->
      <g transform="translate(301.172489 536.804856)scale(0.15 -0.15)">
       <defs>
        <path d="M 2113 2584 
Q 1688 2584 1439 2293 
Q 1191 2003 1191 1497 
Q 1191 994 1439 701 
Q 1688 409 2113 409 
Q 2538 409 2786 701 
Q 3034 994 3034 1497 
Q 3034 2003 2786 2293 
Q 2538 2584 2113 2584 
z
M 3366 4563 
L 3366 3988 
Q 3128 4100 2886 4159 
Q 2644 4219 2406 4219 
Q 1781 4219 1451 3797 
Q 1122 3375 1075 2522 
Q 1259 2794 1537 2939 
Q 1816 3084 2150 3084 
Q 2853 3084 3261 2657 
Q 3669 2231 3669 1497 
Q 3669 778 3244 343 
Q 2819 -91 2113 -91 
Q 1303 -91 875 529 
Q 447 1150 447 2328 
Q 447 3434 972 4092 
Q 1497 4750 2381 4750 
Q 2619 4750 2861 4703 
Q 3103 4656 3366 4563 
z
" id="DejaVuSans-36" transform="scale(0.015625)"/>
       </defs>
       <use xlink:href="#DejaVuSans-36"/>
      </g>
     </g>
    </g>
    <g id="xtick_8">
     <g id="line2d_8">
      <g>
       <use style="stroke:#000000;stroke-width:0.8;" x="326.209909" xlink:href="#md5b4ca37aa" y="518.4072"/>
      </g>
     </g>
     <g id="text_8">
      <!-- 7 -->
      <g transform="translate(321.438034 536.804856)scale(0.15 -0.15)">
       <defs>
        <path d="M 525 4666 
L 3525 4666 
L 3525 4397 
L 1831 0 
L 1172 0 
L 2766 4134 
L 525 4134 
L 525 4666 
z
" id="DejaVuSans-37" transform="scale(0.015625)"/>
       </defs>
       <use xlink:href="#DejaVuSans-37"/>
      </g>
     </g>
    </g>
    <g id="xtick_9">
     <g id="line2d_9">
      <g>
       <use style="stroke:#000000;stroke-width:0.8;" x="346.475455" xlink:href="#md5b4ca37aa" y="518.4072"/>
      </g>
     </g>
     <g id="text_9">
      <!-- 8 -->
      <g transform="translate(341.70358 536.804856)scale(0.15 -0.15)">
       <defs>
        <path d="M 2034 2216 
Q 1584 2216 1326 1975 
Q 1069 1734 1069 1313 
Q 1069 891 1326 650 
Q 1584 409 2034 409 
Q 2484 409 2743 651 
Q 3003 894 3003 1313 
Q 3003 1734 2745 1975 
Q 2488 2216 2034 2216 
z
M 1403 2484 
Q 997 2584 770 2862 
Q 544 3141 544 3541 
Q 544 4100 942 4425 
Q 1341 4750 2034 4750 
Q 2731 4750 3128 4425 
Q 3525 4100 3525 3541 
Q 3525 3141 3298 2862 
Q 3072 2584 2669 2484 
Q 3125 2378 3379 2068 
Q 3634 1759 3634 1313 
Q 3634 634 3220 271 
Q 2806 -91 2034 -91 
Q 1263 -91 848 271 
Q 434 634 434 1313 
Q 434 1759 690 2068 
Q 947 2378 1403 2484 
z
M 1172 3481 
Q 1172 3119 1398 2916 
Q 1625 2713 2034 2713 
Q 2441 2713 2670 2916 
Q 2900 3119 2900 3481 
Q 2900 3844 2670 4047 
Q 2441 4250 2034 4250 
Q 1625 4250 1398 4047 
Q 1172 3844 1172 3481 
z
" id="DejaVuSans-38" transform="scale(0.015625)"/>
       </defs>
       <use xlink:href="#DejaVuSans-38"/>
      </g>
     </g>
    </g>
    <g id="xtick_10">
     <g id="line2d_10">
      <g>
       <use style="stroke:#000000;stroke-width:0.8;" x="366.741" xlink:href="#md5b4ca37aa" y="518.4072"/>
      </g>
     </g>
     <g id="text_10">
      <!-- 9 -->
      <g transform="translate(361.969125 536.804856)scale(0.15 -0.15)">
       <defs>
        <path d="M 703 97 
L 703 672 
Q 941 559 1184 500 
Q 1428 441 1663 441 
Q 2288 441 2617 861 
Q 2947 1281 2994 2138 
Q 2813 1869 2534 1725 
Q 2256 1581 1919 1581 
Q 1219 1581 811 2004 
Q 403 2428 403 3163 
Q 403 3881 828 4315 
Q 1253 4750 1959 4750 
Q 2769 4750 3195 4129 
Q 3622 3509 3622 2328 
Q 3622 1225 3098 567 
Q 2575 -91 1691 -91 
Q 1453 -91 1209 -44 
Q 966 3 703 97 
z
M 1959 2075 
Q 2384 2075 2632 2365 
Q 2881 2656 2881 3163 
Q 2881 3666 2632 3958 
Q 2384 4250 1959 4250 
Q 1534 4250 1286 3958 
Q 1038 3666 1038 3163 
Q 1038 2656 1286 2365 
Q 1534 2075 1959 2075 
z
" id="DejaVuSans-39" transform="scale(0.015625)"/>
       </defs>
       <use xlink:href="#DejaVuSans-39"/>
      </g>
     </g>
    </g>
    <g id="xtick_11">
     <g id="line2d_11">
      <g>
       <use style="stroke:#000000;stroke-width:0.8;" x="387.006545" xlink:href="#md5b4ca37aa" y="518.4072"/>
      </g>
     </g>
     <g id="text_11">
      <!-- 10 -->
      <g transform="translate(377.462795 536.804856)scale(0.15 -0.15)">
       <use xlink:href="#DejaVuSans-31"/>
       <use x="63.623047" xlink:href="#DejaVuSans-30"/>
      </g>
     </g>
    </g>
    <g id="xtick_12">
     <g id="line2d_12">
      <g>
       <use style="stroke:#000000;stroke-width:0.8;" x="407.272091" xlink:href="#md5b4ca37aa" y="518.4072"/>
      </g>
     </g>
     <g id="text_12">
      <!-- 11 -->
      <g transform="translate(397.728341 536.804856)scale(0.15 -0.15)">
       <use xlink:href="#DejaVuSans-31"/>
       <use x="63.623047" xlink:href="#DejaVuSans-31"/>
      </g>
     </g>
    </g>
    <g id="xtick_13">
     <g id="line2d_13">
      <g>
       <use style="stroke:#000000;stroke-width:0.8;" x="427.537636" xlink:href="#md5b4ca37aa" y="518.4072"/>
      </g>
     </g>
     <g id="text_13">
      <!-- 12 -->
      <g transform="translate(417.993886 536.804856)scale(0.15 -0.15)">
       <use xlink:href="#DejaVuSans-31"/>
       <use x="63.623047" xlink:href="#DejaVuSans-32"/>
      </g>
     </g>
    </g>
    <g id="xtick_14">
     <g id="line2d_14">
      <g>
       <use style="stroke:#000000;stroke-width:0.8;" x="447.803182" xlink:href="#md5b4ca37aa" y="518.4072"/>
      </g>
     </g>
     <g id="text_14">
      <!-- 13 -->
      <g transform="translate(438.259432 536.804856)scale(0.15 -0.15)">
       <use xlink:href="#DejaVuSans-31"/>
       <use x="63.623047" xlink:href="#DejaVuSans-33"/>
      </g>
     </g>
    </g>
    <g id="xtick_15">
     <g id="line2d_15">
      <g>
       <use style="stroke:#000000;stroke-width:0.8;" x="468.068727" xlink:href="#md5b4ca37aa" y="518.4072"/>
      </g>
     </g>
     <g id="text_15">
      <!-- 14 -->
      <g transform="translate(458.524977 536.804856)scale(0.15 -0.15)">
       <use xlink:href="#DejaVuSans-31"/>
       <use x="63.623047" xlink:href="#DejaVuSans-34"/>
      </g>
     </g>
    </g>
    <g id="xtick_16">
     <g id="line2d_16">
      <g>
       <use style="stroke:#000000;stroke-width:0.8;" x="488.334273" xlink:href="#md5b4ca37aa" y="518.4072"/>
      </g>
     </g>
     <g id="text_16">
      <!-- 15 -->
      <g transform="translate(478.790523 536.804856)scale(0.15 -0.15)">
       <use xlink:href="#DejaVuSans-31"/>
       <use x="63.623047" xlink:href="#DejaVuSans-35"/>
      </g>
     </g>
    </g>
    <g id="xtick_17">
     <g id="line2d_17">
      <g>
       <use style="stroke:#000000;stroke-width:0.8;" x="508.599818" xlink:href="#md5b4ca37aa" y="518.4072"/>
      </g>
     </g>
     <g id="text_17">
      <!-- 16 -->
      <g transform="translate(499.056068 536.804856)scale(0.15 -0.15)">
       <use xlink:href="#DejaVuSans-31"/>
       <use x="63.623047" xlink:href="#DejaVuSans-36"/>
      </g>
     </g>
    </g>
    <g id="xtick_18">
     <g id="line2d_18">
      <g>
       <use style="stroke:#000000;stroke-width:0.8;" x="528.865364" xlink:href="#md5b4ca37aa" y="518.4072"/>
      </g>
     </g>
     <g id="text_18">
      <!-- 17 -->
      <g transform="translate(519.321614 536.804856)scale(0.15 -0.15)">
       <use xlink:href="#DejaVuSans-31"/>
       <use x="63.623047" xlink:href="#DejaVuSans-37"/>
      </g>
     </g>
    </g>
    <g id="xtick_19">
     <g id="line2d_19">
      <g>
       <use style="stroke:#000000;stroke-width:0.8;" x="549.130909" xlink:href="#md5b4ca37aa" y="518.4072"/>
      </g>
     </g>
     <g id="text_19">
      <!-- 18 -->
      <g transform="translate(539.587159 536.804856)scale(0.15 -0.15)">
       <use xlink:href="#DejaVuSans-31"/>
       <use x="63.623047" xlink:href="#DejaVuSans-38"/>
      </g>
     </g>
    </g>
    <g id="xtick_20">
     <g id="line2d_20">
      <g>
       <use style="stroke:#000000;stroke-width:0.8;" x="569.396455" xlink:href="#md5b4ca37aa" y="518.4072"/>
      </g>
     </g>
     <g id="text_20">
      <!-- 19 -->
      <g transform="translate(559.852705 536.804856)scale(0.15 -0.15)">
       <use xlink:href="#DejaVuSans-31"/>
       <use x="63.623047" xlink:href="#DejaVuSans-39"/>
      </g>
     </g>
    </g>
    <g id="xtick_21">
     <g id="line2d_21">
      <g>
       <use style="stroke:#000000;stroke-width:0.8;" x="589.662" xlink:href="#md5b4ca37aa" y="518.4072"/>
      </g>
     </g>
     <g id="text_21">
      <!-- 20 -->
      <g transform="translate(580.11825 536.804856)scale(0.15 -0.15)">
       <use xlink:href="#DejaVuSans-32"/>
       <use x="63.623047" xlink:href="#DejaVuSans-30"/>
      </g>
     </g>
    </g>
    <g id="xtick_22">
     <g id="line2d_22">
      <g>
       <use style="stroke:#000000;stroke-width:0.8;" x="609.927545" xlink:href="#md5b4ca37aa" y="518.4072"/>
      </g>
     </g>
     <g id="text_22">
      <!-- 21 -->
      <g transform="translate(600.383795 536.804856)scale(0.15 -0.15)">
       <use xlink:href="#DejaVuSans-32"/>
       <use x="63.623047" xlink:href="#DejaVuSans-31"/>
      </g>
     </g>
    </g>
    <g id="xtick_23">
     <g id="line2d_23">
      <g>
       <use style="stroke:#000000;stroke-width:0.8;" x="630.193091" xlink:href="#md5b4ca37aa" y="518.4072"/>
      </g>
     </g>
     <g id="text_23">
      <!-- 22 -->
      <g transform="translate(620.649341 536.804856)scale(0.15 -0.15)">
       <use xlink:href="#DejaVuSans-32"/>
       <use x="63.623047" xlink:href="#DejaVuSans-32"/>
      </g>
     </g>
    </g>
    <g id="xtick_24">
     <g id="line2d_24">
      <g>
       <use style="stroke:#000000;stroke-width:0.8;" x="650.458636" xlink:href="#md5b4ca37aa" y="518.4072"/>
      </g>
     </g>
     <g id="text_24">
      <!-- 23 -->
      <g transform="translate(640.914886 536.804856)scale(0.15 -0.15)">
       <use xlink:href="#DejaVuSans-32"/>
       <use x="63.623047" xlink:href="#DejaVuSans-33"/>
      </g>
     </g>
    </g>
    <g id="xtick_25">
     <g id="line2d_25">
      <g>
       <use style="stroke:#000000;stroke-width:0.8;" x="670.724182" xlink:href="#md5b4ca37aa" y="518.4072"/>
      </g>
     </g>
     <g id="text_25">
      <!-- 24 -->
      <g transform="translate(661.180432 536.804856)scale(0.15 -0.15)">
       <use xlink:href="#DejaVuSans-32"/>
       <use x="63.623047" xlink:href="#DejaVuSans-34"/>
      </g>
     </g>
    </g>
    <g id="xtick_26">
     <g id="line2d_26">
      <g>
       <use style="stroke:#000000;stroke-width:0.8;" x="690.989727" xlink:href="#md5b4ca37aa" y="518.4072"/>
      </g>
     </g>
     <g id="text_26">
      <!-- 25 -->
      <g transform="translate(681.445977 536.804856)scale(0.15 -0.15)">
       <use xlink:href="#DejaVuSans-32"/>
       <use x="63.623047" xlink:href="#DejaVuSans-35"/>
      </g>
     </g>
    </g>
    <g id="xtick_27">
     <g id="line2d_27">
      <g>
       <use style="stroke:#000000;stroke-width:0.8;" x="711.255273" xlink:href="#md5b4ca37aa" y="518.4072"/>
      </g>
     </g>
     <g id="text_27">
      <!-- 26 -->
      <g transform="translate(701.711523 536.804856)scale(0.15 -0.15)">
       <use xlink:href="#DejaVuSans-32"/>
       <use x="63.623047" xlink:href="#DejaVuSans-36"/>
      </g>
     </g>
    </g>
    <g id="xtick_28">
     <g id="line2d_28">
      <g>
       <use style="stroke:#000000;stroke-width:0.8;" x="731.520818" xlink:href="#md5b4ca37aa" y="518.4072"/>
      </g>
     </g>
     <g id="text_28">
      <!-- 27 -->
      <g transform="translate(721.977068 536.804856)scale(0.15 -0.15)">
       <use xlink:href="#DejaVuSans-32"/>
       <use x="63.623047" xlink:href="#DejaVuSans-37"/>
      </g>
     </g>
    </g>
    <g id="xtick_29">
     <g id="line2d_29">
      <g>
       <use style="stroke:#000000;stroke-width:0.8;" x="751.786364" xlink:href="#md5b4ca37aa" y="518.4072"/>
      </g>
     </g>
     <g id="text_29">
      <!-- 28 -->
      <g transform="translate(742.242614 536.804856)scale(0.15 -0.15)">
       <use xlink:href="#DejaVuSans-32"/>
       <use x="63.623047" xlink:href="#DejaVuSans-38"/>
      </g>
     </g>
    </g>
    <g id="xtick_30">
     <g id="line2d_30">
      <g>
       <use style="stroke:#000000;stroke-width:0.8;" x="772.051909" xlink:href="#md5b4ca37aa" y="518.4072"/>
      </g>
     </g>
     <g id="text_30">
      <!-- 29 -->
      <g transform="translate(762.508159 536.804856)scale(0.15 -0.15)">
       <use xlink:href="#DejaVuSans-32"/>
       <use x="63.623047" xlink:href="#DejaVuSans-39"/>
      </g>
     </g>
    </g>
    <g id="xtick_31">
     <g id="line2d_31">
      <g>
       <use style="stroke:#000000;stroke-width:0.8;" x="792.317455" xlink:href="#md5b4ca37aa" y="518.4072"/>
      </g>
     </g>
     <g id="text_31">
      <!-- 30 -->
      <g transform="translate(782.773705 536.804856)scale(0.15 -0.15)">
       <use xlink:href="#DejaVuSans-33"/>
       <use x="63.623047" xlink:href="#DejaVuSans-30"/>
      </g>
     </g>
    </g>
    <g id="xtick_32">
     <g id="line2d_32">
      <g>
       <use style="stroke:#000000;stroke-width:0.8;" x="812.583" xlink:href="#md5b4ca37aa" y="518.4072"/>
      </g>
     </g>
     <g id="text_32">
      <!-- 31 -->
      <g transform="translate(803.03925 536.804856)scale(0.15 -0.15)">
       <use xlink:href="#DejaVuSans-33"/>
       <use x="63.623047" xlink:href="#DejaVuSans-31"/>
      </g>
     </g>
    </g>
    <g id="xtick_33">
     <g id="line2d_33">
      <g>
       <use style="stroke:#000000;stroke-width:0.8;" x="832.848545" xlink:href="#md5b4ca37aa" y="518.4072"/>
      </g>
     </g>
     <g id="text_33">
      <!-- 32 -->
      <g transform="translate(823.304795 536.804856)scale(0.15 -0.15)">
       <use xlink:href="#DejaVuSans-33"/>
       <use x="63.623047" xlink:href="#DejaVuSans-32"/>
      </g>
     </g>
    </g>
    <g id="xtick_34">
     <g id="line2d_34">
      <g>
       <use style="stroke:#000000;stroke-width:0.8;" x="853.114091" xlink:href="#md5b4ca37aa" y="518.4072"/>
      </g>
     </g>
     <g id="text_34">
      <!-- 33 -->
      <g transform="translate(843.570341 536.804856)scale(0.15 -0.15)">
       <use xlink:href="#DejaVuSans-33"/>
       <use x="63.623047" xlink:href="#DejaVuSans-33"/>
      </g>
     </g>
    </g>
    <g id="xtick_35">
     <g id="line2d_35">
      <g>
       <use style="stroke:#000000;stroke-width:0.8;" x="873.379636" xlink:href="#md5b4ca37aa" y="518.4072"/>
      </g>
     </g>
     <g id="text_35">
      <!-- 34 -->
      <g transform="translate(863.835886 536.804856)scale(0.15 -0.15)">
       <use xlink:href="#DejaVuSans-33"/>
       <use x="63.623047" xlink:href="#DejaVuSans-34"/>
      </g>
     </g>
    </g>
    <g id="xtick_36">
     <g id="line2d_36">
      <g>
       <use style="stroke:#000000;stroke-width:0.8;" x="893.645182" xlink:href="#md5b4ca37aa" y="518.4072"/>
      </g>
     </g>
     <g id="text_36">
      <!-- 35 -->
      <g transform="translate(884.101432 536.804856)scale(0.15 -0.15)">
       <use xlink:href="#DejaVuSans-33"/>
       <use x="63.623047" xlink:href="#DejaVuSans-35"/>
      </g>
     </g>
    </g>
    <g id="xtick_37">
     <g id="line2d_37">
      <g>
       <use style="stroke:#000000;stroke-width:0.8;" x="913.910727" xlink:href="#md5b4ca37aa" y="518.4072"/>
      </g>
     </g>
     <g id="text_37">
      <!-- 36 -->
      <g transform="translate(904.366977 536.804856)scale(0.15 -0.15)">
       <use xlink:href="#DejaVuSans-33"/>
       <use x="63.623047" xlink:href="#DejaVuSans-36"/>
      </g>
     </g>
    </g>
    <g id="xtick_38">
     <g id="line2d_38">
      <g>
       <use style="stroke:#000000;stroke-width:0.8;" x="934.176273" xlink:href="#md5b4ca37aa" y="518.4072"/>
      </g>
     </g>
     <g id="text_38">
      <!-- 37 -->
      <g transform="translate(924.632523 536.804856)scale(0.15 -0.15)">
       <use xlink:href="#DejaVuSans-33"/>
       <use x="63.623047" xlink:href="#DejaVuSans-37"/>
      </g>
     </g>
    </g>
    <g id="xtick_39">
     <g id="line2d_39">
      <g>
       <use style="stroke:#000000;stroke-width:0.8;" x="954.441818" xlink:href="#md5b4ca37aa" y="518.4072"/>
      </g>
     </g>
     <g id="text_39">
      <!-- 38 -->
      <g transform="translate(944.898068 536.804856)scale(0.15 -0.15)">
       <use xlink:href="#DejaVuSans-33"/>
       <use x="63.623047" xlink:href="#DejaVuSans-38"/>
      </g>
     </g>
    </g>
    <g id="xtick_40">
     <g id="line2d_40">
      <g>
       <use style="stroke:#000000;stroke-width:0.8;" x="974.707364" xlink:href="#md5b4ca37aa" y="518.4072"/>
      </g>
     </g>
     <g id="text_40">
      <!-- 39 -->
      <g transform="translate(965.163614 536.804856)scale(0.15 -0.15)">
       <use xlink:href="#DejaVuSans-33"/>
       <use x="63.623047" xlink:href="#DejaVuSans-39"/>
      </g>
     </g>
    </g>
    <g id="text_41">
     <!-- $t$ -->
     <g transform="translate(585.662 559.121263)scale(0.2 -0.2)">
      <defs>
       <path d="M 2706 3500 
L 2619 3053 
L 1472 3053 
L 1100 1153 
Q 1081 1047 1072 975 
Q 1063 903 1063 863 
Q 1063 663 1183 572 
Q 1303 481 1569 481 
L 2150 481 
L 2053 0 
L 1503 0 
Q 991 0 739 200 
Q 488 400 488 806 
Q 488 878 497 964 
Q 506 1050 525 1153 
L 897 3053 
L 409 3053 
L 500 3500 
L 978 3500 
L 1172 4494 
L 1747 4494 
L 1556 3500 
L 2706 3500 
z
" id="DejaVuSans-Oblique-74" transform="scale(0.015625)"/>
      </defs>
      <use transform="translate(0 0.78125)" xlink:href="#DejaVuSans-Oblique-74"/>
     </g>
    </g>
   </g>
   <g id="matplotlib.axis_2">
    <g id="ytick_1">
     <g id="line2d_41">
      <defs>
       <path d="M 0 0 
L -3.5 0 
" id="m842046f637" style="stroke:#000000;stroke-width:0.8;"/>
      </defs>
      <g>
       <use style="stroke:#000000;stroke-width:0.8;" x="143.82" xlink:href="#m842046f637" y="518.4072"/>
      </g>
     </g>
     <g id="text_42">
      <!-- 0.0 -->
      <g transform="translate(112.965312 524.106028)scale(0.15 -0.15)">
       <defs>
        <path d="M 684 794 
L 1344 794 
L 1344 0 
L 684 0 
L 684 794 
z
" id="DejaVuSans-2e" transform="scale(0.015625)"/>
       </defs>
       <use xlink:href="#DejaVuSans-30"/>
       <use x="63.623047" xlink:href="#DejaVuSans-2e"/>
       <use x="95.410156" xlink:href="#DejaVuSans-30"/>
      </g>
     </g>
    </g>
    <g id="ytick_2">
     <g id="line2d_42">
      <g>
       <use style="stroke:#000000;stroke-width:0.8;" x="143.82" xlink:href="#m842046f637" y="428.70528"/>
      </g>
     </g>
     <g id="text_43">
      <!-- 0.2 -->
      <g transform="translate(112.965312 434.404108)scale(0.15 -0.15)">
       <use xlink:href="#DejaVuSans-30"/>
       <use x="63.623047" xlink:href="#DejaVuSans-2e"/>
       <use x="95.410156" xlink:href="#DejaVuSans-32"/>
      </g>
     </g>
    </g>
    <g id="ytick_3">
     <g id="line2d_43">
      <g>
       <use style="stroke:#000000;stroke-width:0.8;" x="143.82" xlink:href="#m842046f637" y="339.00336"/>
      </g>
     </g>
     <g id="text_44">
      <!-- 0.4 -->
      <g transform="translate(112.965312 344.702188)scale(0.15 -0.15)">
       <use xlink:href="#DejaVuSans-30"/>
       <use x="63.623047" xlink:href="#DejaVuSans-2e"/>
       <use x="95.410156" xlink:href="#DejaVuSans-34"/>
      </g>
     </g>
    </g>
    <g id="ytick_4">
     <g id="line2d_44">
      <g>
       <use style="stroke:#000000;stroke-width:0.8;" x="143.82" xlink:href="#m842046f637" y="249.30144"/>
      </g>
     </g>
     <g id="text_45">
      <!-- 0.6 -->
      <g transform="translate(112.965312 255.000268)scale(0.15 -0.15)">
       <use xlink:href="#DejaVuSans-30"/>
       <use x="63.623047" xlink:href="#DejaVuSans-2e"/>
       <use x="95.410156" xlink:href="#DejaVuSans-36"/>
      </g>
     </g>
    </g>
    <g id="ytick_5">
     <g id="line2d_45">
      <g>
       <use style="stroke:#000000;stroke-width:0.8;" x="143.82" xlink:href="#m842046f637" y="159.59952"/>
      </g>
     </g>
     <g id="text_46">
      <!-- 0.8 -->
      <g transform="translate(112.965312 165.298348)scale(0.15 -0.15)">
       <use xlink:href="#DejaVuSans-30"/>
       <use x="63.623047" xlink:href="#DejaVuSans-2e"/>
       <use x="95.410156" xlink:href="#DejaVuSans-38"/>
      </g>
     </g>
    </g>
    <g id="ytick_6">
     <g id="line2d_46">
      <g>
       <use style="stroke:#000000;stroke-width:0.8;" x="143.82" xlink:href="#m842046f637" y="69.8976"/>
      </g>
     </g>
     <g id="text_47">
      <!-- 1.0 -->
      <g transform="translate(112.965312 75.596428)scale(0.15 -0.15)">
       <use xlink:href="#DejaVuSans-31"/>
       <use x="63.623047" xlink:href="#DejaVuSans-2e"/>
       <use x="95.410156" xlink:href="#DejaVuSans-30"/>
      </g>
     </g>
    </g>
    <g id="text_48">
     <!-- $p(context)$ -->
     <g transform="translate(104.765312 346.2524)rotate(-90)scale(0.2 -0.2)">
      <defs>
       <path d="M 3175 2156 
Q 3175 2616 2975 2859 
Q 2775 3103 2400 3103 
Q 2144 3103 1911 2972 
Q 1678 2841 1497 2591 
Q 1319 2344 1212 1994 
Q 1106 1644 1106 1300 
Q 1106 863 1306 627 
Q 1506 391 1875 391 
Q 2147 391 2380 519 
Q 2613 647 2778 891 
Q 2956 1147 3065 1494 
Q 3175 1841 3175 2156 
z
M 1394 2969 
Q 1625 3272 1939 3428 
Q 2253 3584 2638 3584 
Q 3175 3584 3472 3232 
Q 3769 2881 3769 2247 
Q 3769 1728 3584 1258 
Q 3400 788 3053 416 
Q 2822 169 2531 39 
Q 2241 -91 1919 -91 
Q 1547 -91 1294 64 
Q 1041 219 916 525 
L 556 -1331 
L -19 -1331 
L 922 3500 
L 1497 3500 
L 1394 2969 
z
" id="DejaVuSans-Oblique-70" transform="scale(0.015625)"/>
       <path d="M 1984 4856 
Q 1566 4138 1362 3434 
Q 1159 2731 1159 2009 
Q 1159 1288 1364 580 
Q 1569 -128 1984 -844 
L 1484 -844 
Q 1016 -109 783 600 
Q 550 1309 550 2009 
Q 550 2706 781 3412 
Q 1013 4119 1484 4856 
L 1984 4856 
z
" id="DejaVuSans-28" transform="scale(0.015625)"/>
       <path d="M 3431 3366 
L 3316 2797 
Q 3109 2947 2876 3022 
Q 2644 3097 2394 3097 
Q 2119 3097 1870 3000 
Q 1622 2903 1453 2725 
Q 1184 2453 1037 2087 
Q 891 1722 891 1331 
Q 891 859 1127 628 
Q 1363 397 1844 397 
Q 2081 397 2348 469 
Q 2616 541 2906 684 
L 2797 116 
Q 2547 13 2283 -39 
Q 2019 -91 1741 -91 
Q 1044 -91 669 257 
Q 294 606 294 1253 
Q 294 1797 489 2255 
Q 684 2713 1069 3078 
Q 1331 3328 1684 3456 
Q 2038 3584 2456 3584 
Q 2700 3584 2940 3529 
Q 3181 3475 3431 3366 
z
" id="DejaVuSans-Oblique-63" transform="scale(0.015625)"/>
       <path d="M 1625 -91 
Q 1009 -91 651 289 
Q 294 669 294 1325 
Q 294 1706 417 2101 
Q 541 2497 738 2766 
Q 1047 3184 1428 3384 
Q 1809 3584 2291 3584 
Q 2888 3584 3255 3212 
Q 3622 2841 3622 2241 
Q 3622 1825 3500 1412 
Q 3378 1000 3181 728 
Q 2875 309 2494 109 
Q 2113 -91 1625 -91 
z
M 891 1344 
Q 891 869 1089 633 
Q 1288 397 1691 397 
Q 2269 397 2648 901 
Q 3028 1406 3028 2181 
Q 3028 2634 2825 2865 
Q 2622 3097 2228 3097 
Q 1903 3097 1650 2945 
Q 1397 2794 1197 2484 
Q 1050 2253 970 1956 
Q 891 1659 891 1344 
z
" id="DejaVuSans-Oblique-6f" transform="scale(0.015625)"/>
       <path d="M 3566 2113 
L 3156 0 
L 2578 0 
L 2988 2091 
Q 3016 2238 3031 2350 
Q 3047 2463 3047 2528 
Q 3047 2791 2881 2937 
Q 2716 3084 2419 3084 
Q 1956 3084 1622 2776 
Q 1288 2469 1184 1941 
L 800 0 
L 225 0 
L 903 3500 
L 1478 3500 
L 1363 2950 
Q 1603 3253 1940 3418 
Q 2278 3584 2650 3584 
Q 3113 3584 3367 3334 
Q 3622 3084 3622 2631 
Q 3622 2519 3608 2391 
Q 3594 2263 3566 2113 
z
" id="DejaVuSans-Oblique-6e" transform="scale(0.015625)"/>
       <path d="M 3078 2063 
Q 3088 2113 3092 2166 
Q 3097 2219 3097 2272 
Q 3097 2653 2873 2875 
Q 2650 3097 2266 3097 
Q 1838 3097 1509 2826 
Q 1181 2556 1013 2059 
L 3078 2063 
z
M 3578 1613 
L 903 1613 
Q 884 1494 878 1425 
Q 872 1356 872 1306 
Q 872 872 1139 634 
Q 1406 397 1894 397 
Q 2269 397 2603 481 
Q 2938 566 3225 728 
L 3116 159 
Q 2806 34 2476 -28 
Q 2147 -91 1806 -91 
Q 1078 -91 686 257 
Q 294 606 294 1247 
Q 294 1794 489 2264 
Q 684 2734 1063 3103 
Q 1306 3334 1642 3459 
Q 1978 3584 2356 3584 
Q 2950 3584 3301 3228 
Q 3653 2872 3653 2272 
Q 3653 2128 3634 1964 
Q 3616 1800 3578 1613 
z
" id="DejaVuSans-Oblique-65" transform="scale(0.015625)"/>
       <path d="M 3841 3500 
L 2234 1784 
L 3219 0 
L 2559 0 
L 1819 1388 
L 531 0 
L -166 0 
L 1556 1844 
L 641 3500 
L 1300 3500 
L 1972 2234 
L 3144 3500 
L 3841 3500 
z
" id="DejaVuSans-Oblique-78" transform="scale(0.015625)"/>
       <path d="M 513 4856 
L 1013 4856 
Q 1481 4119 1714 3412 
Q 1947 2706 1947 2009 
Q 1947 1309 1714 600 
Q 1481 -109 1013 -844 
L 513 -844 
Q 928 -128 1133 580 
Q 1338 1288 1338 2009 
Q 1338 2731 1133 3434 
Q 928 4138 513 4856 
z
" id="DejaVuSans-29" transform="scale(0.015625)"/>
      </defs>
      <use transform="translate(0 0.125)" xlink:href="#DejaVuSans-Oblique-70"/>
      <use transform="translate(63.476562 0.125)" xlink:href="#DejaVuSans-28"/>
      <use transform="translate(102.490234 0.125)" xlink:href="#DejaVuSans-Oblique-63"/>
      <use transform="translate(157.470703 0.125)" xlink:href="#DejaVuSans-Oblique-6f"/>
      <use transform="translate(218.652344 0.125)" xlink:href="#DejaVuSans-Oblique-6e"/>
      <use transform="translate(282.03125 0.125)" xlink:href="#DejaVuSans-Oblique-74"/>
      <use transform="translate(321.240234 0.125)" xlink:href="#DejaVuSans-Oblique-65"/>
      <use transform="translate(382.763672 0.125)" xlink:href="#DejaVuSans-Oblique-78"/>
      <use transform="translate(441.943359 0.125)" xlink:href="#DejaVuSans-Oblique-74"/>
      <use transform="translate(481.152344 0.125)" xlink:href="#DejaVuSans-29"/>
     </g>
    </g>
   </g>
   <g id="line2d_47">
    <path clip-path="url(#p994a684fe2)" d="M 184.351091 473.55624 
L 204.616636 517.32608 
L 224.882182 369.396529 
L 245.147727 213.437733 
L 265.413273 501.40615 
L 285.678818 321.482336 
L 305.944364 208.001554 
L 326.209909 168.398155 
L 346.475455 150.951034 
L 366.741 140.21046 
L 387.006545 132.409926 
L 407.272091 126.357973 
L 427.537636 121.504252 
L 447.803182 460.555422 
L 468.068727 507.904602 
L 488.334273 295.536819 
L 508.599818 172.390924 
L 528.865364 452.287375 
L 549.130909 500.834904 
L 569.396455 302.789934 
L 589.662 312.525847 
L 609.927545 479.254486 
L 630.193091 502.081636 
L 650.458636 506.050924 
L 670.724182 507.675705 
L 690.989727 439.289559 
L 711.255273 501.67235 
L 731.520818 438.054285 
L 751.786364 502.181099 
L 772.051909 440.73579 
L 792.317455 502.98868 
L 812.583 443.366474 
L 832.848545 503.718384 
L 853.114091 445.748821 
L 873.379636 504.365146 
L 893.645182 447.909303 
L 913.910727 504.942162 
L 934.176273 449.879921 
L 954.441818 274.047703 
L 974.707364 479.575569 
" style="fill:none;stroke:#0000ff;stroke-linecap:square;stroke-width:1.5;"/>
    <defs>
     <path d="M 0 3 
C 0.795609 3 1.55874 2.683901 2.12132 2.12132 
C 2.683901 1.55874 3 0.795609 3 0 
C 3 -0.795609 2.683901 -1.55874 2.12132 -2.12132 
C 1.55874 -2.683901 0.795609 -3 0 -3 
C -0.795609 -3 -1.55874 -2.683901 -2.12132 -2.12132 
C -2.683901 -1.55874 -3 -0.795609 -3 0 
C -3 0.795609 -2.683901 1.55874 -2.12132 2.12132 
C -1.55874 2.683901 -0.795609 3 0 3 
z
" id="m088461b81b" style="stroke:#0000ff;"/>
    </defs>
    <g clip-path="url(#p994a684fe2)">
     <use style="fill:#0000ff;stroke:#0000ff;" x="184.351091" xlink:href="#m088461b81b" y="473.55624"/>
     <use style="fill:#0000ff;stroke:#0000ff;" x="204.616636" xlink:href="#m088461b81b" y="517.32608"/>
     <use style="fill:#0000ff;stroke:#0000ff;" x="224.882182" xlink:href="#m088461b81b" y="369.396529"/>
     <use style="fill:#0000ff;stroke:#0000ff;" x="245.147727" xlink:href="#m088461b81b" y="213.437733"/>
     <use style="fill:#0000ff;stroke:#0000ff;" x="265.413273" xlink:href="#m088461b81b" y="501.40615"/>
     <use style="fill:#0000ff;stroke:#0000ff;" x="285.678818" xlink:href="#m088461b81b" y="321.482336"/>
     <use style="fill:#0000ff;stroke:#0000ff;" x="305.944364" xlink:href="#m088461b81b" y="208.001554"/>
     <use style="fill:#0000ff;stroke:#0000ff;" x="326.209909" xlink:href="#m088461b81b" y="168.398155"/>
     <use style="fill:#0000ff;stroke:#0000ff;" x="346.475455" xlink:href="#m088461b81b" y="150.951034"/>
     <use style="fill:#0000ff;stroke:#0000ff;" x="366.741" xlink:href="#m088461b81b" y="140.21046"/>
     <use style="fill:#0000ff;stroke:#0000ff;" x="387.006545" xlink:href="#m088461b81b" y="132.409926"/>
     <use style="fill:#0000ff;stroke:#0000ff;" x="407.272091" xlink:href="#m088461b81b" y="126.357973"/>
     <use style="fill:#0000ff;stroke:#0000ff;" x="427.537636" xlink:href="#m088461b81b" y="121.504252"/>
     <use style="fill:#0000ff;stroke:#0000ff;" x="447.803182" xlink:href="#m088461b81b" y="460.555422"/>
     <use style="fill:#0000ff;stroke:#0000ff;" x="468.068727" xlink:href="#m088461b81b" y="507.904602"/>
     <use style="fill:#0000ff;stroke:#0000ff;" x="488.334273" xlink:href="#m088461b81b" y="295.536819"/>
     <use style="fill:#0000ff;stroke:#0000ff;" x="508.599818" xlink:href="#m088461b81b" y="172.390924"/>
     <use style="fill:#0000ff;stroke:#0000ff;" x="528.865364" xlink:href="#m088461b81b" y="452.287375"/>
     <use style="fill:#0000ff;stroke:#0000ff;" x="549.130909" xlink:href="#m088461b81b" y="500.834904"/>
     <use style="fill:#0000ff;stroke:#0000ff;" x="569.396455" xlink:href="#m088461b81b" y="302.789934"/>
     <use style="fill:#0000ff;stroke:#0000ff;" x="589.662" xlink:href="#m088461b81b" y="312.525847"/>
     <use style="fill:#0000ff;stroke:#0000ff;" x="609.927545" xlink:href="#m088461b81b" y="479.254486"/>
     <use style="fill:#0000ff;stroke:#0000ff;" x="630.193091" xlink:href="#m088461b81b" y="502.081636"/>
     <use style="fill:#0000ff;stroke:#0000ff;" x="650.458636" xlink:href="#m088461b81b" y="506.050924"/>
     <use style="fill:#0000ff;stroke:#0000ff;" x="670.724182" xlink:href="#m088461b81b" y="507.675705"/>
     <use style="fill:#0000ff;stroke:#0000ff;" x="690.989727" xlink:href="#m088461b81b" y="439.289559"/>
     <use style="fill:#0000ff;stroke:#0000ff;" x="711.255273" xlink:href="#m088461b81b" y="501.67235"/>
     <use style="fill:#0000ff;stroke:#0000ff;" x="731.520818" xlink:href="#m088461b81b" y="438.054285"/>
     <use style="fill:#0000ff;stroke:#0000ff;" x="751.786364" xlink:href="#m088461b81b" y="502.181099"/>
     <use style="fill:#0000ff;stroke:#0000ff;" x="772.051909" xlink:href="#m088461b81b" y="440.73579"/>
     <use style="fill:#0000ff;stroke:#0000ff;" x="792.317455" xlink:href="#m088461b81b" y="502.98868"/>
     <use style="fill:#0000ff;stroke:#0000ff;" x="812.583" xlink:href="#m088461b81b" y="443.366474"/>
     <use style="fill:#0000ff;stroke:#0000ff;" x="832.848545" xlink:href="#m088461b81b" y="503.718384"/>
     <use style="fill:#0000ff;stroke:#0000ff;" x="853.114091" xlink:href="#m088461b81b" y="445.748821"/>
     <use style="fill:#0000ff;stroke:#0000ff;" x="873.379636" xlink:href="#m088461b81b" y="504.365146"/>
     <use style="fill:#0000ff;stroke:#0000ff;" x="893.645182" xlink:href="#m088461b81b" y="447.909303"/>
     <use style="fill:#0000ff;stroke:#0000ff;" x="913.910727" xlink:href="#m088461b81b" y="504.942162"/>
     <use style="fill:#0000ff;stroke:#0000ff;" x="934.176273" xlink:href="#m088461b81b" y="449.879921"/>
     <use style="fill:#0000ff;stroke:#0000ff;" x="954.441818" xlink:href="#m088461b81b" y="274.047703"/>
     <use style="fill:#0000ff;stroke:#0000ff;" x="974.707364" xlink:href="#m088461b81b" y="479.575569"/>
    </g>
   </g>
   <g id="line2d_48">
    <path clip-path="url(#p994a684fe2)" d="M 184.351091 249.30144 
L 204.616636 119.095825 
L 224.882182 386.292416 
L 245.147727 471.405204 
L 265.413273 171.980352 
L 285.678818 394.901878 
L 305.944364 464.64708 
L 326.209909 485.539685 
L 346.475455 493.652722 
L 366.741 498.146424 
L 387.006545 501.195939 
L 407.272091 503.451268 
L 427.537636 505.19188 
L 447.803182 243.138067 
L 468.068727 144.971768 
L 488.334273 394.342983 
L 508.599818 474.107535 
L 528.865364 238.361279 
L 549.130909 155.346744 
L 569.396455 381.6602 
L 589.662 357.86685 
L 609.927545 192.391443 
L 630.193091 152.520276 
L 650.458636 142.614913 
L 670.724182 137.140097 
L 690.989727 231.779562 
L 711.255273 147.193496 
L 731.520818 231.884344 
L 751.786364 145.336618 
L 772.051909 228.095437 
L 792.317455 143.04438 
L 812.583 224.425756 
L 832.848545 140.960222 
L 853.114091 221.068565 
L 873.379636 139.083572 
L 893.645182 217.99131 
L 913.910727 137.383501 
L 934.176273 215.156398 
L 954.441818 399.829168 
L 974.707364 178.539649 
" style="fill:none;stroke:#ff0000;stroke-linecap:square;stroke-width:1.5;"/>
    <defs>
     <path d="M 0 3 
C 0.795609 3 1.55874 2.683901 2.12132 2.12132 
C 2.683901 1.55874 3 0.795609 3 0 
C 3 -0.795609 2.683901 -1.55874 2.12132 -2.12132 
C 1.55874 -2.683901 0.795609 -3 0 -3 
C -0.795609 -3 -1.55874 -2.683901 -2.12132 -2.12132 
C -2.683901 -1.55874 -3 -0.795609 -3 0 
C -3 0.795609 -2.683901 1.55874 -2.12132 2.12132 
C -1.55874 2.683901 -0.795609 3 0 3 
z
" id="m7657eee9e5" style="stroke:#ff0000;"/>
    </defs>
    <g clip-path="url(#p994a684fe2)">
     <use style="fill:#ff0000;stroke:#ff0000;" x="184.351091" xlink:href="#m7657eee9e5" y="249.30144"/>
     <use style="fill:#ff0000;stroke:#ff0000;" x="204.616636" xlink:href="#m7657eee9e5" y="119.095825"/>
     <use style="fill:#ff0000;stroke:#ff0000;" x="224.882182" xlink:href="#m7657eee9e5" y="386.292416"/>
     <use style="fill:#ff0000;stroke:#ff0000;" x="245.147727" xlink:href="#m7657eee9e5" y="471.405204"/>
     <use style="fill:#ff0000;stroke:#ff0000;" x="265.413273" xlink:href="#m7657eee9e5" y="171.980352"/>
     <use style="fill:#ff0000;stroke:#ff0000;" x="285.678818" xlink:href="#m7657eee9e5" y="394.901878"/>
     <use style="fill:#ff0000;stroke:#ff0000;" x="305.944364" xlink:href="#m7657eee9e5" y="464.64708"/>
     <use style="fill:#ff0000;stroke:#ff0000;" x="326.209909" xlink:href="#m7657eee9e5" y="485.539685"/>
     <use style="fill:#ff0000;stroke:#ff0000;" x="346.475455" xlink:href="#m7657eee9e5" y="493.652722"/>
     <use style="fill:#ff0000;stroke:#ff0000;" x="366.741" xlink:href="#m7657eee9e5" y="498.146424"/>
     <use style="fill:#ff0000;stroke:#ff0000;" x="387.006545" xlink:href="#m7657eee9e5" y="501.195939"/>
     <use style="fill:#ff0000;stroke:#ff0000;" x="407.272091" xlink:href="#m7657eee9e5" y="503.451268"/>
     <use style="fill:#ff0000;stroke:#ff0000;" x="427.537636" xlink:href="#m7657eee9e5" y="505.19188"/>
     <use style="fill:#ff0000;stroke:#ff0000;" x="447.803182" xlink:href="#m7657eee9e5" y="243.138067"/>
     <use style="fill:#ff0000;stroke:#ff0000;" x="468.068727" xlink:href="#m7657eee9e5" y="144.971768"/>
     <use style="fill:#ff0000;stroke:#ff0000;" x="488.334273" xlink:href="#m7657eee9e5" y="394.342983"/>
     <use style="fill:#ff0000;stroke:#ff0000;" x="508.599818" xlink:href="#m7657eee9e5" y="474.107535"/>
     <use style="fill:#ff0000;stroke:#ff0000;" x="528.865364" xlink:href="#m7657eee9e5" y="238.361279"/>
     <use style="fill:#ff0000;stroke:#ff0000;" x="549.130909" xlink:href="#m7657eee9e5" y="155.346744"/>
     <use style="fill:#ff0000;stroke:#ff0000;" x="569.396455" xlink:href="#m7657eee9e5" y="381.6602"/>
     <use style="fill:#ff0000;stroke:#ff0000;" x="589.662" xlink:href="#m7657eee9e5" y="357.86685"/>
     <use style="fill:#ff0000;stroke:#ff0000;" x="609.927545" xlink:href="#m7657eee9e5" y="192.391443"/>
     <use style="fill:#ff0000;stroke:#ff0000;" x="630.193091" xlink:href="#m7657eee9e5" y="152.520276"/>
     <use style="fill:#ff0000;stroke:#ff0000;" x="650.458636" xlink:href="#m7657eee9e5" y="142.614913"/>
     <use style="fill:#ff0000;stroke:#ff0000;" x="670.724182" xlink:href="#m7657eee9e5" y="137.140097"/>
     <use style="fill:#ff0000;stroke:#ff0000;" x="690.989727" xlink:href="#m7657eee9e5" y="231.779562"/>
     <use style="fill:#ff0000;stroke:#ff0000;" x="711.255273" xlink:href="#m7657eee9e5" y="147.193496"/>
     <use style="fill:#ff0000;stroke:#ff0000;" x="731.520818" xlink:href="#m7657eee9e5" y="231.884344"/>
     <use style="fill:#ff0000;stroke:#ff0000;" x="751.786364" xlink:href="#m7657eee9e5" y="145.336618"/>
     <use style="fill:#ff0000;stroke:#ff0000;" x="772.051909" xlink:href="#m7657eee9e5" y="228.095437"/>
     <use style="fill:#ff0000;stroke:#ff0000;" x="792.317455" xlink:href="#m7657eee9e5" y="143.04438"/>
     <use style="fill:#ff0000;stroke:#ff0000;" x="812.583" xlink:href="#m7657eee9e5" y="224.425756"/>
     <use style="fill:#ff0000;stroke:#ff0000;" x="832.848545" xlink:href="#m7657eee9e5" y="140.960222"/>
     <use style="fill:#ff0000;stroke:#ff0000;" x="853.114091" xlink:href="#m7657eee9e5" y="221.068565"/>
     <use style="fill:#ff0000;stroke:#ff0000;" x="873.379636" xlink:href="#m7657eee9e5" y="139.083572"/>
     <use style="fill:#ff0000;stroke:#ff0000;" x="893.645182" xlink:href="#m7657eee9e5" y="217.99131"/>
     <use style="fill:#ff0000;stroke:#ff0000;" x="913.910727" xlink:href="#m7657eee9e5" y="137.383501"/>
     <use style="fill:#ff0000;stroke:#ff0000;" x="934.176273" xlink:href="#m7657eee9e5" y="215.156398"/>
     <use style="fill:#ff0000;stroke:#ff0000;" x="954.441818" xlink:href="#m7657eee9e5" y="399.829168"/>
     <use style="fill:#ff0000;stroke:#ff0000;" x="974.707364" xlink:href="#m7657eee9e5" y="178.539649"/>
    </g>
   </g>
   <g id="line2d_49">
    <path clip-path="url(#p994a684fe2)" d="M 184.351091 383.85432 
L 204.616636 470.290095 
L 224.882182 351.023056 
L 245.147727 421.869064 
L 265.413273 433.325498 
L 285.678818 390.327786 
L 305.944364 434.063366 
L 326.209909 452.77416 
L 346.475455 462.108244 
L 366.741 468.355116 
L 387.006545 473.106135 
L 407.272091 476.902759 
L 427.537636 480.015868 
L 447.803182 403.01851 
L 468.068727 453.83563 
L 488.334273 416.832198 
L 508.599818 460.21354 
L 528.865364 416.063345 
L 549.130909 450.530352 
L 569.396455 422.261866 
L 589.662 436.319303 
L 609.927545 435.066071 
L 630.193091 452.110088 
L 650.458636 458.046162 
L 670.724182 461.896198 
L 690.989727 435.642879 
L 711.255273 457.846154 
L 731.520818 436.773372 
L 751.786364 459.194283 
L 772.051909 437.880773 
L 792.317455 460.678941 
L 812.583 438.919771 
L 832.848545 462.033394 
L 853.114091 439.894615 
L 873.379636 463.263283 
L 893.645182 440.811388 
L 913.910727 464.386337 
L 934.176273 441.675681 
L 954.441818 432.835129 
L 974.707364 448.596782 
" style="fill:none;stroke:#808080;stroke-linecap:square;stroke-width:1.5;"/>
    <defs>
     <path d="M 0 3 
C 0.795609 3 1.55874 2.683901 2.12132 2.12132 
C 2.683901 1.55874 3 0.795609 3 0 
C 3 -0.795609 2.683901 -1.55874 2.12132 -2.12132 
C 1.55874 -2.683901 0.795609 -3 0 -3 
C -0.795609 -3 -1.55874 -2.683901 -2.12132 -2.12132 
C -2.683901 -1.55874 -3 -0.795609 -3 0 
C -3 0.795609 -2.683901 1.55874 -2.12132 2.12132 
C -1.55874 2.683901 -0.795609 3 0 3 
z
" id="m48a6f171bd" style="stroke:#808080;"/>
    </defs>
    <g clip-path="url(#p994a684fe2)">
     <use style="fill:#808080;stroke:#808080;" x="184.351091" xlink:href="#m48a6f171bd" y="383.85432"/>
     <use style="fill:#808080;stroke:#808080;" x="204.616636" xlink:href="#m48a6f171bd" y="470.290095"/>
     <use style="fill:#808080;stroke:#808080;" x="224.882182" xlink:href="#m48a6f171bd" y="351.023056"/>
     <use style="fill:#808080;stroke:#808080;" x="245.147727" xlink:href="#m48a6f171bd" y="421.869064"/>
     <use style="fill:#808080;stroke:#808080;" x="265.413273" xlink:href="#m48a6f171bd" y="433.325498"/>
     <use style="fill:#808080;stroke:#808080;" x="285.678818" xlink:href="#m48a6f171bd" y="390.327786"/>
     <use style="fill:#808080;stroke:#808080;" x="305.944364" xlink:href="#m48a6f171bd" y="434.063366"/>
     <use style="fill:#808080;stroke:#808080;" x="326.209909" xlink:href="#m48a6f171bd" y="452.77416"/>
     <use style="fill:#808080;stroke:#808080;" x="346.475455" xlink:href="#m48a6f171bd" y="462.108244"/>
     <use style="fill:#808080;stroke:#808080;" x="366.741" xlink:href="#m48a6f171bd" y="468.355116"/>
     <use style="fill:#808080;stroke:#808080;" x="387.006545" xlink:href="#m48a6f171bd" y="473.106135"/>
     <use style="fill:#808080;stroke:#808080;" x="407.272091" xlink:href="#m48a6f171bd" y="476.902759"/>
     <use style="fill:#808080;stroke:#808080;" x="427.537636" xlink:href="#m48a6f171bd" y="480.015868"/>
     <use style="fill:#808080;stroke:#808080;" x="447.803182" xlink:href="#m48a6f171bd" y="403.01851"/>
     <use style="fill:#808080;stroke:#808080;" x="468.068727" xlink:href="#m48a6f171bd" y="453.83563"/>
     <use style="fill:#808080;stroke:#808080;" x="488.334273" xlink:href="#m48a6f171bd" y="416.832198"/>
     <use style="fill:#808080;stroke:#808080;" x="508.599818" xlink:href="#m48a6f171bd" y="460.21354"/>
     <use style="fill:#808080;stroke:#808080;" x="528.865364" xlink:href="#m48a6f171bd" y="416.063345"/>
     <use style="fill:#808080;stroke:#808080;" x="549.130909" xlink:href="#m48a6f171bd" y="450.530352"/>
     <use style="fill:#808080;stroke:#808080;" x="569.396455" xlink:href="#m48a6f171bd" y="422.261866"/>
     <use style="fill:#808080;stroke:#808080;" x="589.662" xlink:href="#m48a6f171bd" y="436.319303"/>
     <use style="fill:#808080;stroke:#808080;" x="609.927545" xlink:href="#m48a6f171bd" y="435.066071"/>
     <use style="fill:#808080;stroke:#808080;" x="630.193091" xlink:href="#m48a6f171bd" y="452.110088"/>
     <use style="fill:#808080;stroke:#808080;" x="650.458636" xlink:href="#m48a6f171bd" y="458.046162"/>
     <use style="fill:#808080;stroke:#808080;" x="670.724182" xlink:href="#m48a6f171bd" y="461.896198"/>
     <use style="fill:#808080;stroke:#808080;" x="690.989727" xlink:href="#m48a6f171bd" y="435.642879"/>
     <use style="fill:#808080;stroke:#808080;" x="711.255273" xlink:href="#m48a6f171bd" y="457.846154"/>
     <use style="fill:#808080;stroke:#808080;" x="731.520818" xlink:href="#m48a6f171bd" y="436.773372"/>
     <use style="fill:#808080;stroke:#808080;" x="751.786364" xlink:href="#m48a6f171bd" y="459.194283"/>
     <use style="fill:#808080;stroke:#808080;" x="772.051909" xlink:href="#m48a6f171bd" y="437.880773"/>
     <use style="fill:#808080;stroke:#808080;" x="792.317455" xlink:href="#m48a6f171bd" y="460.678941"/>
     <use style="fill:#808080;stroke:#808080;" x="812.583" xlink:href="#m48a6f171bd" y="438.919771"/>
     <use style="fill:#808080;stroke:#808080;" x="832.848545" xlink:href="#m48a6f171bd" y="462.033394"/>
     <use style="fill:#808080;stroke:#808080;" x="853.114091" xlink:href="#m48a6f171bd" y="439.894615"/>
     <use style="fill:#808080;stroke:#808080;" x="873.379636" xlink:href="#m48a6f171bd" y="463.263283"/>
     <use style="fill:#808080;stroke:#808080;" x="893.645182" xlink:href="#m48a6f171bd" y="440.811388"/>
     <use style="fill:#808080;stroke:#808080;" x="913.910727" xlink:href="#m48a6f171bd" y="464.386337"/>
     <use style="fill:#808080;stroke:#808080;" x="934.176273" xlink:href="#m48a6f171bd" y="441.675681"/>
     <use style="fill:#808080;stroke:#808080;" x="954.441818" xlink:href="#m48a6f171bd" y="432.835129"/>
     <use style="fill:#808080;stroke:#808080;" x="974.707364" xlink:href="#m48a6f171bd" y="448.596782"/>
    </g>
   </g>
   <g id="patch_5">
    <path d="M 143.82 518.4072 
L 143.82 69.8976 
" style="fill:none;stroke:#000000;stroke-linecap:square;stroke-linejoin:miter;stroke-width:0.8;"/>
   </g>
   <g id="patch_6">
    <path d="M 1035.504 518.4072 
L 1035.504 69.8976 
" style="fill:none;stroke:#000000;stroke-linecap:square;stroke-linejoin:miter;stroke-width:0.8;"/>
   </g>
   <g id="patch_7">
    <path d="M 143.82 518.4072 
L 1035.504 518.4072 
" style="fill:none;stroke:#000000;stroke-linecap:square;stroke-linejoin:miter;stroke-width:0.8;"/>
   </g>
   <g id="patch_8">
    <path d="M 143.82 69.8976 
L 1035.504 69.8976 
" style="fill:none;stroke:#000000;stroke-linecap:square;stroke-linejoin:miter;stroke-width:0.8;"/>
   </g>
   <g id="text_49">
    <!-- Depression: fatalistic -->
    <g transform="translate(458.287 63.8976)scale(0.25 -0.25)">
     <defs>
      <path d="M 1259 4147 
L 1259 519 
L 2022 519 
Q 2988 519 3436 956 
Q 3884 1394 3884 2338 
Q 3884 3275 3436 3711 
Q 2988 4147 2022 4147 
L 1259 4147 
z
M 628 4666 
L 1925 4666 
Q 3281 4666 3915 4102 
Q 4550 3538 4550 2338 
Q 4550 1131 3912 565 
Q 3275 0 1925 0 
L 628 0 
L 628 4666 
z
" id="DejaVuSans-44" transform="scale(0.015625)"/>
      <path d="M 3597 1894 
L 3597 1613 
L 953 1613 
Q 991 1019 1311 708 
Q 1631 397 2203 397 
Q 2534 397 2845 478 
Q 3156 559 3463 722 
L 3463 178 
Q 3153 47 2828 -22 
Q 2503 -91 2169 -91 
Q 1331 -91 842 396 
Q 353 884 353 1716 
Q 353 2575 817 3079 
Q 1281 3584 2069 3584 
Q 2775 3584 3186 3129 
Q 3597 2675 3597 1894 
z
M 3022 2063 
Q 3016 2534 2758 2815 
Q 2500 3097 2075 3097 
Q 1594 3097 1305 2825 
Q 1016 2553 972 2059 
L 3022 2063 
z
" id="DejaVuSans-65" transform="scale(0.015625)"/>
      <path d="M 1159 525 
L 1159 -1331 
L 581 -1331 
L 581 3500 
L 1159 3500 
L 1159 2969 
Q 1341 3281 1617 3432 
Q 1894 3584 2278 3584 
Q 2916 3584 3314 3078 
Q 3713 2572 3713 1747 
Q 3713 922 3314 415 
Q 2916 -91 2278 -91 
Q 1894 -91 1617 61 
Q 1341 213 1159 525 
z
M 3116 1747 
Q 3116 2381 2855 2742 
Q 2594 3103 2138 3103 
Q 1681 3103 1420 2742 
Q 1159 2381 1159 1747 
Q 1159 1113 1420 752 
Q 1681 391 2138 391 
Q 2594 391 2855 752 
Q 3116 1113 3116 1747 
z
" id="DejaVuSans-70" transform="scale(0.015625)"/>
      <path d="M 2631 2963 
Q 2534 3019 2420 3045 
Q 2306 3072 2169 3072 
Q 1681 3072 1420 2755 
Q 1159 2438 1159 1844 
L 1159 0 
L 581 0 
L 581 3500 
L 1159 3500 
L 1159 2956 
Q 1341 3275 1631 3429 
Q 1922 3584 2338 3584 
Q 2397 3584 2469 3576 
Q 2541 3569 2628 3553 
L 2631 2963 
z
" id="DejaVuSans-72" transform="scale(0.015625)"/>
      <path d="M 2834 3397 
L 2834 2853 
Q 2591 2978 2328 3040 
Q 2066 3103 1784 3103 
Q 1356 3103 1142 2972 
Q 928 2841 928 2578 
Q 928 2378 1081 2264 
Q 1234 2150 1697 2047 
L 1894 2003 
Q 2506 1872 2764 1633 
Q 3022 1394 3022 966 
Q 3022 478 2636 193 
Q 2250 -91 1575 -91 
Q 1294 -91 989 -36 
Q 684 19 347 128 
L 347 722 
Q 666 556 975 473 
Q 1284 391 1588 391 
Q 1994 391 2212 530 
Q 2431 669 2431 922 
Q 2431 1156 2273 1281 
Q 2116 1406 1581 1522 
L 1381 1569 
Q 847 1681 609 1914 
Q 372 2147 372 2553 
Q 372 3047 722 3315 
Q 1072 3584 1716 3584 
Q 2034 3584 2315 3537 
Q 2597 3491 2834 3397 
z
" id="DejaVuSans-73" transform="scale(0.015625)"/>
      <path d="M 603 3500 
L 1178 3500 
L 1178 0 
L 603 0 
L 603 3500 
z
M 603 4863 
L 1178 4863 
L 1178 4134 
L 603 4134 
L 603 4863 
z
" id="DejaVuSans-69" transform="scale(0.015625)"/>
      <path d="M 1959 3097 
Q 1497 3097 1228 2736 
Q 959 2375 959 1747 
Q 959 1119 1226 758 
Q 1494 397 1959 397 
Q 2419 397 2687 759 
Q 2956 1122 2956 1747 
Q 2956 2369 2687 2733 
Q 2419 3097 1959 3097 
z
M 1959 3584 
Q 2709 3584 3137 3096 
Q 3566 2609 3566 1747 
Q 3566 888 3137 398 
Q 2709 -91 1959 -91 
Q 1206 -91 779 398 
Q 353 888 353 1747 
Q 353 2609 779 3096 
Q 1206 3584 1959 3584 
z
" id="DejaVuSans-6f" transform="scale(0.015625)"/>
      <path d="M 3513 2113 
L 3513 0 
L 2938 0 
L 2938 2094 
Q 2938 2591 2744 2837 
Q 2550 3084 2163 3084 
Q 1697 3084 1428 2787 
Q 1159 2491 1159 1978 
L 1159 0 
L 581 0 
L 581 3500 
L 1159 3500 
L 1159 2956 
Q 1366 3272 1645 3428 
Q 1925 3584 2291 3584 
Q 2894 3584 3203 3211 
Q 3513 2838 3513 2113 
z
" id="DejaVuSans-6e" transform="scale(0.015625)"/>
      <path d="M 750 794 
L 1409 794 
L 1409 0 
L 750 0 
L 750 794 
z
M 750 3309 
L 1409 3309 
L 1409 2516 
L 750 2516 
L 750 3309 
z
" id="DejaVuSans-3a" transform="scale(0.015625)"/>
      <path id="DejaVuSans-20" transform="scale(0.015625)"/>
      <path d="M 2375 4863 
L 2375 4384 
L 1825 4384 
Q 1516 4384 1395 4259 
Q 1275 4134 1275 3809 
L 1275 3500 
L 2222 3500 
L 2222 3053 
L 1275 3053 
L 1275 0 
L 697 0 
L 697 3053 
L 147 3053 
L 147 3500 
L 697 3500 
L 697 3744 
Q 697 4328 969 4595 
Q 1241 4863 1831 4863 
L 2375 4863 
z
" id="DejaVuSans-66" transform="scale(0.015625)"/>
      <path d="M 2194 1759 
Q 1497 1759 1228 1600 
Q 959 1441 959 1056 
Q 959 750 1161 570 
Q 1363 391 1709 391 
Q 2188 391 2477 730 
Q 2766 1069 2766 1631 
L 2766 1759 
L 2194 1759 
z
M 3341 1997 
L 3341 0 
L 2766 0 
L 2766 531 
Q 2569 213 2275 61 
Q 1981 -91 1556 -91 
Q 1019 -91 701 211 
Q 384 513 384 1019 
Q 384 1609 779 1909 
Q 1175 2209 1959 2209 
L 2766 2209 
L 2766 2266 
Q 2766 2663 2505 2880 
Q 2244 3097 1772 3097 
Q 1472 3097 1187 3025 
Q 903 2953 641 2809 
L 641 3341 
Q 956 3463 1253 3523 
Q 1550 3584 1831 3584 
Q 2591 3584 2966 3190 
Q 3341 2797 3341 1997 
z
" id="DejaVuSans-61" transform="scale(0.015625)"/>
      <path d="M 1172 4494 
L 1172 3500 
L 2356 3500 
L 2356 3053 
L 1172 3053 
L 1172 1153 
Q 1172 725 1289 603 
Q 1406 481 1766 481 
L 2356 481 
L 2356 0 
L 1766 0 
Q 1100 0 847 248 
Q 594 497 594 1153 
L 594 3053 
L 172 3053 
L 172 3500 
L 594 3500 
L 594 4494 
L 1172 4494 
z
" id="DejaVuSans-74" transform="scale(0.015625)"/>
      <path d="M 603 4863 
L 1178 4863 
L 1178 0 
L 603 0 
L 603 4863 
z
" id="DejaVuSans-6c" transform="scale(0.015625)"/>
      <path d="M 3122 3366 
L 3122 2828 
Q 2878 2963 2633 3030 
Q 2388 3097 2138 3097 
Q 1578 3097 1268 2742 
Q 959 2388 959 1747 
Q 959 1106 1268 751 
Q 1578 397 2138 397 
Q 2388 397 2633 464 
Q 2878 531 3122 666 
L 3122 134 
Q 2881 22 2623 -34 
Q 2366 -91 2075 -91 
Q 1284 -91 818 406 
Q 353 903 353 1747 
Q 353 2603 823 3093 
Q 1294 3584 2113 3584 
Q 2378 3584 2631 3529 
Q 2884 3475 3122 3366 
z
" id="DejaVuSans-63" transform="scale(0.015625)"/>
     </defs>
     <use xlink:href="#DejaVuSans-44"/>
     <use x="77.001953" xlink:href="#DejaVuSans-65"/>
     <use x="138.525391" xlink:href="#DejaVuSans-70"/>
     <use x="202.001953" xlink:href="#DejaVuSans-72"/>
     <use x="240.865234" xlink:href="#DejaVuSans-65"/>
     <use x="302.388672" xlink:href="#DejaVuSans-73"/>
     <use x="354.488281" xlink:href="#DejaVuSans-73"/>
     <use x="406.587891" xlink:href="#DejaVuSans-69"/>
     <use x="434.371094" xlink:href="#DejaVuSans-6f"/>
     <use x="495.552734" xlink:href="#DejaVuSans-6e"/>
     <use x="558.931641" xlink:href="#DejaVuSans-3a"/>
     <use x="592.623047" xlink:href="#DejaVuSans-20"/>
     <use x="624.410156" xlink:href="#DejaVuSans-66"/>
     <use x="659.615234" xlink:href="#DejaVuSans-61"/>
     <use x="720.894531" xlink:href="#DejaVuSans-74"/>
     <use x="760.103516" xlink:href="#DejaVuSans-61"/>
     <use x="821.382812" xlink:href="#DejaVuSans-6c"/>
     <use x="849.166016" xlink:href="#DejaVuSans-69"/>
     <use x="876.949219" xlink:href="#DejaVuSans-73"/>
     <use x="929.048828" xlink:href="#DejaVuSans-74"/>
     <use x="968.257812" xlink:href="#DejaVuSans-69"/>
     <use x="996.041016" xlink:href="#DejaVuSans-63"/>
    </g>
   </g>
   <g id="legend_1">
    <g id="patch_9">
     <path d="M 925.652437 165.96635 
L 1028.504 165.96635 
Q 1030.504 165.96635 1030.504 163.96635 
L 1030.504 76.8976 
Q 1030.504 74.8976 1028.504 74.8976 
L 925.652437 74.8976 
Q 923.652437 74.8976 923.652437 76.8976 
L 923.652437 163.96635 
Q 923.652437 165.96635 925.652437 165.96635 
z
" style="fill:#ffffff;opacity:0.8;stroke:#cccccc;stroke-linejoin:miter;"/>
    </g>
    <g id="line2d_50">
     <path d="M 927.652437 82.996038 
L 947.652437 82.996038 
" style="fill:none;stroke:#0000ff;stroke-linecap:square;stroke-width:1.5;"/>
    </g>
    <g id="line2d_51">
     <g>
      <use style="fill:#0000ff;stroke:#0000ff;" x="937.652437" xlink:href="#m088461b81b" y="82.996038"/>
     </g>
    </g>
    <g id="text_50">
     <!-- cooperative -->
     <g transform="translate(955.652437 86.496038)scale(0.1 -0.1)">
      <defs>
       <path d="M 191 3500 
L 800 3500 
L 1894 563 
L 2988 3500 
L 3597 3500 
L 2284 0 
L 1503 0 
L 191 3500 
z
" id="DejaVuSans-76" transform="scale(0.015625)"/>
      </defs>
      <use xlink:href="#DejaVuSans-63"/>
      <use x="54.980469" xlink:href="#DejaVuSans-6f"/>
      <use x="116.162109" xlink:href="#DejaVuSans-6f"/>
      <use x="177.34375" xlink:href="#DejaVuSans-70"/>
      <use x="240.820312" xlink:href="#DejaVuSans-65"/>
      <use x="302.34375" xlink:href="#DejaVuSans-72"/>
      <use x="343.457031" xlink:href="#DejaVuSans-61"/>
      <use x="404.736328" xlink:href="#DejaVuSans-74"/>
      <use x="443.945312" xlink:href="#DejaVuSans-69"/>
      <use x="471.728516" xlink:href="#DejaVuSans-76"/>
      <use x="530.908203" xlink:href="#DejaVuSans-65"/>
     </g>
    </g>
    <g id="line2d_52">
     <path d="M 927.652437 97.674163 
L 947.652437 97.674163 
" style="fill:none;stroke:#ff0000;stroke-linecap:square;stroke-width:1.5;"/>
    </g>
    <g id="line2d_53">
     <g>
      <use style="fill:#ff0000;stroke:#ff0000;" x="937.652437" xlink:href="#m7657eee9e5" y="97.674163"/>
     </g>
    </g>
    <g id="text_51">
     <!-- hostile -->
     <g transform="translate(955.652437 101.174163)scale(0.1 -0.1)">
      <defs>
       <path d="M 3513 2113 
L 3513 0 
L 2938 0 
L 2938 2094 
Q 2938 2591 2744 2837 
Q 2550 3084 2163 3084 
Q 1697 3084 1428 2787 
Q 1159 2491 1159 1978 
L 1159 0 
L 581 0 
L 581 4863 
L 1159 4863 
L 1159 2956 
Q 1366 3272 1645 3428 
Q 1925 3584 2291 3584 
Q 2894 3584 3203 3211 
Q 3513 2838 3513 2113 
z
" id="DejaVuSans-68" transform="scale(0.015625)"/>
      </defs>
      <use xlink:href="#DejaVuSans-68"/>
      <use x="63.378906" xlink:href="#DejaVuSans-6f"/>
      <use x="124.560547" xlink:href="#DejaVuSans-73"/>
      <use x="176.660156" xlink:href="#DejaVuSans-74"/>
      <use x="215.869141" xlink:href="#DejaVuSans-69"/>
      <use x="243.652344" xlink:href="#DejaVuSans-6c"/>
      <use x="271.435547" xlink:href="#DejaVuSans-65"/>
     </g>
    </g>
    <g id="line2d_54">
     <path d="M 927.652437 112.352288 
L 947.652437 112.352288 
" style="fill:none;stroke:#808080;stroke-linecap:square;stroke-width:1.5;"/>
    </g>
    <g id="line2d_55">
     <g>
      <use style="fill:#808080;stroke:#808080;" x="937.652437" xlink:href="#m48a6f171bd" y="112.352288"/>
     </g>
    </g>
    <g id="text_52">
     <!-- random -->
     <g transform="translate(955.652437 115.852288)scale(0.1 -0.1)">
      <defs>
       <path d="M 2906 2969 
L 2906 4863 
L 3481 4863 
L 3481 0 
L 2906 0 
L 2906 525 
Q 2725 213 2448 61 
Q 2172 -91 1784 -91 
Q 1150 -91 751 415 
Q 353 922 353 1747 
Q 353 2572 751 3078 
Q 1150 3584 1784 3584 
Q 2172 3584 2448 3432 
Q 2725 3281 2906 2969 
z
M 947 1747 
Q 947 1113 1208 752 
Q 1469 391 1925 391 
Q 2381 391 2643 752 
Q 2906 1113 2906 1747 
Q 2906 2381 2643 2742 
Q 2381 3103 1925 3103 
Q 1469 3103 1208 2742 
Q 947 2381 947 1747 
z
" id="DejaVuSans-64" transform="scale(0.015625)"/>
       <path d="M 3328 2828 
Q 3544 3216 3844 3400 
Q 4144 3584 4550 3584 
Q 5097 3584 5394 3201 
Q 5691 2819 5691 2113 
L 5691 0 
L 5113 0 
L 5113 2094 
Q 5113 2597 4934 2840 
Q 4756 3084 4391 3084 
Q 3944 3084 3684 2787 
Q 3425 2491 3425 1978 
L 3425 0 
L 2847 0 
L 2847 2094 
Q 2847 2600 2669 2842 
Q 2491 3084 2119 3084 
Q 1678 3084 1418 2786 
Q 1159 2488 1159 1978 
L 1159 0 
L 581 0 
L 581 3500 
L 1159 3500 
L 1159 2956 
Q 1356 3278 1631 3431 
Q 1906 3584 2284 3584 
Q 2666 3584 2933 3390 
Q 3200 3197 3328 2828 
z
" id="DejaVuSans-6d" transform="scale(0.015625)"/>
      </defs>
      <use xlink:href="#DejaVuSans-72"/>
      <use x="41.113281" xlink:href="#DejaVuSans-61"/>
      <use x="102.392578" xlink:href="#DejaVuSans-6e"/>
      <use x="165.771484" xlink:href="#DejaVuSans-64"/>
      <use x="229.248047" xlink:href="#DejaVuSans-6f"/>
      <use x="290.429688" xlink:href="#DejaVuSans-6d"/>
     </g>
    </g>
    <g id="line2d_56">
     <path d="M 927.652437 127.030413 
L 947.652437 127.030413 
" style="fill:none;stroke:#ffffff;stroke-linecap:square;stroke-width:1.5;"/>
    </g>
    <g id="line2d_57">
     <defs>
      <path d="M -0 5 
L 5 -5 
L -5 -5 
z
" id="mde887d0827" style="stroke:#ffffff;stroke-linejoin:miter;"/>
     </defs>
     <g>
      <use style="fill:#ff0000;stroke:#ffffff;stroke-linejoin:miter;" x="937.652437" xlink:href="#mde887d0827" y="127.030413"/>
     </g>
    </g>
    <g id="text_53">
     <!-- invest - abuse -->
     <g transform="translate(955.652437 130.530413)scale(0.1 -0.1)">
      <defs>
       <path d="M 313 2009 
L 1997 2009 
L 1997 1497 
L 313 1497 
L 313 2009 
z
" id="DejaVuSans-2d" transform="scale(0.015625)"/>
       <path d="M 3116 1747 
Q 3116 2381 2855 2742 
Q 2594 3103 2138 3103 
Q 1681 3103 1420 2742 
Q 1159 2381 1159 1747 
Q 1159 1113 1420 752 
Q 1681 391 2138 391 
Q 2594 391 2855 752 
Q 3116 1113 3116 1747 
z
M 1159 2969 
Q 1341 3281 1617 3432 
Q 1894 3584 2278 3584 
Q 2916 3584 3314 3078 
Q 3713 2572 3713 1747 
Q 3713 922 3314 415 
Q 2916 -91 2278 -91 
Q 1894 -91 1617 61 
Q 1341 213 1159 525 
L 1159 0 
L 581 0 
L 581 4863 
L 1159 4863 
L 1159 2969 
z
" id="DejaVuSans-62" transform="scale(0.015625)"/>
       <path d="M 544 1381 
L 544 3500 
L 1119 3500 
L 1119 1403 
Q 1119 906 1312 657 
Q 1506 409 1894 409 
Q 2359 409 2629 706 
Q 2900 1003 2900 1516 
L 2900 3500 
L 3475 3500 
L 3475 0 
L 2900 0 
L 2900 538 
Q 2691 219 2414 64 
Q 2138 -91 1772 -91 
Q 1169 -91 856 284 
Q 544 659 544 1381 
z
M 1991 3584 
L 1991 3584 
z
" id="DejaVuSans-75" transform="scale(0.015625)"/>
      </defs>
      <use xlink:href="#DejaVuSans-69"/>
      <use x="27.783203" xlink:href="#DejaVuSans-6e"/>
      <use x="91.162109" xlink:href="#DejaVuSans-76"/>
      <use x="150.341797" xlink:href="#DejaVuSans-65"/>
      <use x="211.865234" xlink:href="#DejaVuSans-73"/>
      <use x="263.964844" xlink:href="#DejaVuSans-74"/>
      <use x="303.173828" xlink:href="#DejaVuSans-20"/>
      <use x="334.960938" xlink:href="#DejaVuSans-2d"/>
      <use x="371.044922" xlink:href="#DejaVuSans-20"/>
      <use x="402.832031" xlink:href="#DejaVuSans-61"/>
      <use x="464.111328" xlink:href="#DejaVuSans-62"/>
      <use x="527.587891" xlink:href="#DejaVuSans-75"/>
      <use x="590.966797" xlink:href="#DejaVuSans-73"/>
      <use x="643.066406" xlink:href="#DejaVuSans-65"/>
     </g>
    </g>
    <g id="line2d_58">
     <path d="M 927.652437 141.708538 
L 947.652437 141.708538 
" style="fill:none;stroke:#ffffff;stroke-linecap:square;stroke-width:1.5;"/>
    </g>
    <g id="line2d_59">
     <defs>
      <path d="M 0 -5 
L -5 5 
L 5 5 
z
" id="m22b61fbf4b" style="stroke:#ffffff;stroke-linejoin:miter;"/>
     </defs>
     <g>
      <use style="fill:#0000ff;stroke:#ffffff;stroke-linejoin:miter;" x="937.652437" xlink:href="#m22b61fbf4b" y="141.708538"/>
     </g>
    </g>
    <g id="text_54">
     <!-- invest - return -->
     <g transform="translate(955.652437 145.208538)scale(0.1 -0.1)">
      <use xlink:href="#DejaVuSans-69"/>
      <use x="27.783203" xlink:href="#DejaVuSans-6e"/>
      <use x="91.162109" xlink:href="#DejaVuSans-76"/>
      <use x="150.341797" xlink:href="#DejaVuSans-65"/>
      <use x="211.865234" xlink:href="#DejaVuSans-73"/>
      <use x="263.964844" xlink:href="#DejaVuSans-74"/>
      <use x="303.173828" xlink:href="#DejaVuSans-20"/>
      <use x="334.960938" xlink:href="#DejaVuSans-2d"/>
      <use x="371.044922" xlink:href="#DejaVuSans-20"/>
      <use x="402.832031" xlink:href="#DejaVuSans-72"/>
      <use x="441.695312" xlink:href="#DejaVuSans-65"/>
      <use x="503.21875" xlink:href="#DejaVuSans-74"/>
      <use x="542.427734" xlink:href="#DejaVuSans-75"/>
      <use x="605.806641" xlink:href="#DejaVuSans-72"/>
      <use x="645.169922" xlink:href="#DejaVuSans-6e"/>
     </g>
    </g>
    <g id="line2d_60">
     <path d="M 927.652437 156.386663 
L 947.652437 156.386663 
" style="fill:none;stroke:#ffffff;stroke-linecap:square;stroke-width:1.5;"/>
    </g>
    <g id="line2d_61">
     <defs>
      <path d="M -2.5 5 
L 0 2.5 
L 2.5 5 
L 5 2.5 
L 2.5 0 
L 5 -2.5 
L 2.5 -5 
L 0 -2.5 
L -2.5 -5 
L -5 -2.5 
L -2.5 0 
L -5 2.5 
z
" id="m073bdc8a82" style="stroke:#ffffff;stroke-linejoin:miter;"/>
     </defs>
     <g>
      <use style="stroke:#ffffff;stroke-linejoin:miter;" x="937.652437" xlink:href="#m073bdc8a82" y="156.386663"/>
     </g>
    </g>
    <g id="text_55">
     <!-- no invest -->
     <g transform="translate(955.652437 159.886663)scale(0.1 -0.1)">
      <use xlink:href="#DejaVuSans-6e"/>
      <use x="63.378906" xlink:href="#DejaVuSans-6f"/>
      <use x="124.560547" xlink:href="#DejaVuSans-20"/>
      <use x="156.347656" xlink:href="#DejaVuSans-69"/>
      <use x="184.130859" xlink:href="#DejaVuSans-6e"/>
      <use x="247.509766" xlink:href="#DejaVuSans-76"/>
      <use x="306.689453" xlink:href="#DejaVuSans-65"/>
      <use x="368.212891" xlink:href="#DejaVuSans-73"/>
      <use x="420.3125" xlink:href="#DejaVuSans-74"/>
     </g>
    </g>
   </g>
  </g>
 </g>
 <defs>
  <clipPath id="p994a684fe2">
   <rect height="448.5096" width="891.684" x="143.82" y="69.8976"/>
  </clipPath>
 </defs>
</svg>
