<?xml version="1.0" encoding="utf-8" standalone="no"?>
<!DOCTYPE svg PUBLIC "-//W3C//DTD SVG 1.1//EN"
  "http://www.w3.org/Graphics/SVG/1.1/DTD/svg11.dtd">
<svg height="345.6pt" version="1.1" viewBox="0 0 460.8 345.6" width="460.8pt" xmlns="http://www.w3.org/2000/svg" xmlns:xlink="http://www.w3.org/1999/xlink">
 <metadata>
  <rdf:RDF xmlns:cc="http://creativecommons.org/ns#" xmlns:dc="http://purl.org/dc/elements/1.1/" xmlns:rdf="http://www.w3.org/1999/02/22-rdf-syntax-ns#">
   <cc:Work>
    <dc:type rdf:resource="http://purl.org/dc/dcmitype/StillImage"/>
    <dc:date>2023-09-18T17:59:10.778006</dc:date>
    <dc:format>image/svg+xml</dc:format>
    <dc:creator>
     <cc:Agent>
      <dc:title>Matplotlib v3.4.1, https://matplotlib.org/</dc:title>
     </cc:Agent>
    </dc:creator>
   </cc:Work>
  </rdf:RDF>
 </metadata>
 <defs>
  <style type="text/css">*{stroke-linecap:butt;stroke-linejoin:round;}</style>
 </defs>
 <g id="figure_1">
  <g id="patch_1">
   <path d="M 0 345.6 
L 460.8 345.6 
L 460.8 0 
L 0 0 
z
" style="fill:#ffffff;"/>
  </g>
  <g id="axes_1">
   <g id="patch_2">
    <path d="M 57.6 307.584 
L 414.72 307.584 
L 414.72 41.472 
L 57.6 41.472 
z
" style="fill:#ffffff;"/>
   </g>
   <g id="patch_3">
    <path clip-path="url(#p4cc1d16ba5)" d="M 73.832727 307.584 
L 73.832727 41.472 
L 236.16 41.472 
L 236.16 307.584 
z
" style="fill:#add8e6;opacity:0.2;"/>
   </g>
   <g id="patch_4">
    <path clip-path="url(#p4cc1d16ba5)" d="M 236.16 307.584 
L 236.16 41.472 
L 398.487273 41.472 
L 398.487273 307.584 
z
" style="fill:#ff7f50;opacity:0.2;"/>
   </g>
   <g id="matplotlib.axis_1">
    <g id="xtick_1">
     <g id="line2d_1">
      <defs>
       <path d="M 0 0 
L 0 3.5 
" id="m3444224b59" style="stroke:#000000;stroke-width:0.8;"/>
      </defs>
      <g>
       <use style="stroke:#000000;stroke-width:0.8;" x="73.832727" xlink:href="#m3444224b59" y="307.584"/>
      </g>
     </g>
     <g id="text_1">
      <!-- 0 -->
      <g transform="translate(70.651477 322.182437)scale(0.1 -0.1)">
       <defs>
        <path d="M 2034 4250 
Q 1547 4250 1301 3770 
Q 1056 3291 1056 2328 
Q 1056 1369 1301 889 
Q 1547 409 2034 409 
Q 2525 409 2770 889 
Q 3016 1369 3016 2328 
Q 3016 3291 2770 3770 
Q 2525 4250 2034 4250 
z
M 2034 4750 
Q 2819 4750 3233 4129 
Q 3647 3509 3647 2328 
Q 3647 1150 3233 529 
Q 2819 -91 2034 -91 
Q 1250 -91 836 529 
Q 422 1150 422 2328 
Q 422 3509 836 4129 
Q 1250 4750 2034 4750 
z
" id="DejaVuSans-30" transform="scale(0.015625)"/>
       </defs>
       <use xlink:href="#DejaVuSans-30"/>
      </g>
     </g>
    </g>
    <g id="xtick_2">
     <g id="line2d_2">
      <g>
       <use style="stroke:#000000;stroke-width:0.8;" x="114.414545" xlink:href="#m3444224b59" y="307.584"/>
      </g>
     </g>
     <g id="text_2">
      <!-- 5 -->
      <g transform="translate(111.233295 322.182437)scale(0.1 -0.1)">
       <defs>
        <path d="M 691 4666 
L 3169 4666 
L 3169 4134 
L 1269 4134 
L 1269 2991 
Q 1406 3038 1543 3061 
Q 1681 3084 1819 3084 
Q 2600 3084 3056 2656 
Q 3513 2228 3513 1497 
Q 3513 744 3044 326 
Q 2575 -91 1722 -91 
Q 1428 -91 1123 -41 
Q 819 9 494 109 
L 494 744 
Q 775 591 1075 516 
Q 1375 441 1709 441 
Q 2250 441 2565 725 
Q 2881 1009 2881 1497 
Q 2881 1984 2565 2268 
Q 2250 2553 1709 2553 
Q 1456 2553 1204 2497 
Q 953 2441 691 2322 
L 691 4666 
z
" id="DejaVuSans-35" transform="scale(0.015625)"/>
       </defs>
       <use xlink:href="#DejaVuSans-35"/>
      </g>
     </g>
    </g>
    <g id="xtick_3">
     <g id="line2d_3">
      <g>
       <use style="stroke:#000000;stroke-width:0.8;" x="154.996364" xlink:href="#m3444224b59" y="307.584"/>
      </g>
     </g>
     <g id="text_3">
      <!-- 10 -->
      <g transform="translate(148.633864 322.182437)scale(0.1 -0.1)">
       <defs>
        <path d="M 794 531 
L 1825 531 
L 1825 4091 
L 703 3866 
L 703 4441 
L 1819 4666 
L 2450 4666 
L 2450 531 
L 3481 531 
L 3481 0 
L 794 0 
L 794 531 
z
" id="DejaVuSans-31" transform="scale(0.015625)"/>
       </defs>
       <use xlink:href="#DejaVuSans-31"/>
       <use x="63.623047" xlink:href="#DejaVuSans-30"/>
      </g>
     </g>
    </g>
    <g id="xtick_4">
     <g id="line2d_4">
      <g>
       <use style="stroke:#000000;stroke-width:0.8;" x="195.578182" xlink:href="#m3444224b59" y="307.584"/>
      </g>
     </g>
     <g id="text_4">
      <!-- 15 -->
      <g transform="translate(189.215682 322.182437)scale(0.1 -0.1)">
       <use xlink:href="#DejaVuSans-31"/>
       <use x="63.623047" xlink:href="#DejaVuSans-35"/>
      </g>
     </g>
    </g>
    <g id="xtick_5">
     <g id="line2d_5">
      <g>
       <use style="stroke:#000000;stroke-width:0.8;" x="236.16" xlink:href="#m3444224b59" y="307.584"/>
      </g>
     </g>
     <g id="text_5">
      <!-- 20 -->
      <g transform="translate(229.7975 322.182437)scale(0.1 -0.1)">
       <defs>
        <path d="M 1228 531 
L 3431 531 
L 3431 0 
L 469 0 
L 469 531 
Q 828 903 1448 1529 
Q 2069 2156 2228 2338 
Q 2531 2678 2651 2914 
Q 2772 3150 2772 3378 
Q 2772 3750 2511 3984 
Q 2250 4219 1831 4219 
Q 1534 4219 1204 4116 
Q 875 4013 500 3803 
L 500 4441 
Q 881 4594 1212 4672 
Q 1544 4750 1819 4750 
Q 2544 4750 2975 4387 
Q 3406 4025 3406 3419 
Q 3406 3131 3298 2873 
Q 3191 2616 2906 2266 
Q 2828 2175 2409 1742 
Q 1991 1309 1228 531 
z
" id="DejaVuSans-32" transform="scale(0.015625)"/>
       </defs>
       <use xlink:href="#DejaVuSans-32"/>
       <use x="63.623047" xlink:href="#DejaVuSans-30"/>
      </g>
     </g>
    </g>
    <g id="xtick_6">
     <g id="line2d_6">
      <g>
       <use style="stroke:#000000;stroke-width:0.8;" x="276.741818" xlink:href="#m3444224b59" y="307.584"/>
      </g>
     </g>
     <g id="text_6">
      <!-- 25 -->
      <g transform="translate(270.379318 322.182437)scale(0.1 -0.1)">
       <use xlink:href="#DejaVuSans-32"/>
       <use x="63.623047" xlink:href="#DejaVuSans-35"/>
      </g>
     </g>
    </g>
    <g id="xtick_7">
     <g id="line2d_7">
      <g>
       <use style="stroke:#000000;stroke-width:0.8;" x="317.323636" xlink:href="#m3444224b59" y="307.584"/>
      </g>
     </g>
     <g id="text_7">
      <!-- 30 -->
      <g transform="translate(310.961136 322.182437)scale(0.1 -0.1)">
       <defs>
        <path d="M 2597 2516 
Q 3050 2419 3304 2112 
Q 3559 1806 3559 1356 
Q 3559 666 3084 287 
Q 2609 -91 1734 -91 
Q 1441 -91 1130 -33 
Q 819 25 488 141 
L 488 750 
Q 750 597 1062 519 
Q 1375 441 1716 441 
Q 2309 441 2620 675 
Q 2931 909 2931 1356 
Q 2931 1769 2642 2001 
Q 2353 2234 1838 2234 
L 1294 2234 
L 1294 2753 
L 1863 2753 
Q 2328 2753 2575 2939 
Q 2822 3125 2822 3475 
Q 2822 3834 2567 4026 
Q 2313 4219 1838 4219 
Q 1578 4219 1281 4162 
Q 984 4106 628 3988 
L 628 4550 
Q 988 4650 1302 4700 
Q 1616 4750 1894 4750 
Q 2613 4750 3031 4423 
Q 3450 4097 3450 3541 
Q 3450 3153 3228 2886 
Q 3006 2619 2597 2516 
z
" id="DejaVuSans-33" transform="scale(0.015625)"/>
       </defs>
       <use xlink:href="#DejaVuSans-33"/>
       <use x="63.623047" xlink:href="#DejaVuSans-30"/>
      </g>
     </g>
    </g>
    <g id="xtick_8">
     <g id="line2d_8">
      <g>
       <use style="stroke:#000000;stroke-width:0.8;" x="357.905455" xlink:href="#m3444224b59" y="307.584"/>
      </g>
     </g>
     <g id="text_8">
      <!-- 35 -->
      <g transform="translate(351.542955 322.182437)scale(0.1 -0.1)">
       <use xlink:href="#DejaVuSans-33"/>
       <use x="63.623047" xlink:href="#DejaVuSans-35"/>
      </g>
     </g>
    </g>
    <g id="xtick_9">
     <g id="line2d_9">
      <g>
       <use style="stroke:#000000;stroke-width:0.8;" x="398.487273" xlink:href="#m3444224b59" y="307.584"/>
      </g>
     </g>
     <g id="text_9">
      <!-- 40 -->
      <g transform="translate(392.124773 322.182437)scale(0.1 -0.1)">
       <defs>
        <path d="M 2419 4116 
L 825 1625 
L 2419 1625 
L 2419 4116 
z
M 2253 4666 
L 3047 4666 
L 3047 1625 
L 3713 1625 
L 3713 1100 
L 3047 1100 
L 3047 0 
L 2419 0 
L 2419 1100 
L 313 1100 
L 313 1709 
L 2253 4666 
z
" id="DejaVuSans-34" transform="scale(0.015625)"/>
       </defs>
       <use xlink:href="#DejaVuSans-34"/>
       <use x="63.623047" xlink:href="#DejaVuSans-30"/>
      </g>
     </g>
    </g>
    <g id="text_10">
     <!-- t -->
     <g transform="translate(234.199844 335.860562)scale(0.1 -0.1)">
      <defs>
       <path d="M 1172 4494 
L 1172 3500 
L 2356 3500 
L 2356 3053 
L 1172 3053 
L 1172 1153 
Q 1172 725 1289 603 
Q 1406 481 1766 481 
L 2356 481 
L 2356 0 
L 1766 0 
Q 1100 0 847 248 
Q 594 497 594 1153 
L 594 3053 
L 172 3053 
L 172 3500 
L 594 3500 
L 594 4494 
L 1172 4494 
z
" id="DejaVuSans-74" transform="scale(0.015625)"/>
      </defs>
      <use xlink:href="#DejaVuSans-74"/>
     </g>
    </g>
   </g>
   <g id="matplotlib.axis_2">
    <g id="ytick_1">
     <g id="line2d_10">
      <defs>
       <path d="M 0 0 
L -3.5 0 
" id="m6da090a8fc" style="stroke:#000000;stroke-width:0.8;"/>
      </defs>
      <g>
       <use style="stroke:#000000;stroke-width:0.8;" x="57.6" xlink:href="#m6da090a8fc" y="297.48178"/>
      </g>
     </g>
     <g id="text_11">
      <!-- 0.0 -->
      <g transform="translate(34.696875 301.280999)scale(0.1 -0.1)">
       <defs>
        <path d="M 684 794 
L 1344 794 
L 1344 0 
L 684 0 
L 684 794 
z
" id="DejaVuSans-2e" transform="scale(0.015625)"/>
       </defs>
       <use xlink:href="#DejaVuSans-30"/>
       <use x="63.623047" xlink:href="#DejaVuSans-2e"/>
       <use x="95.410156" xlink:href="#DejaVuSans-30"/>
      </g>
     </g>
    </g>
    <g id="ytick_2">
     <g id="line2d_11">
      <g>
       <use style="stroke:#000000;stroke-width:0.8;" x="57.6" xlink:href="#m6da090a8fc" y="243.726057"/>
      </g>
     </g>
     <g id="text_12">
      <!-- 0.2 -->
      <g transform="translate(34.696875 247.525276)scale(0.1 -0.1)">
       <use xlink:href="#DejaVuSans-30"/>
       <use x="63.623047" xlink:href="#DejaVuSans-2e"/>
       <use x="95.410156" xlink:href="#DejaVuSans-32"/>
      </g>
     </g>
    </g>
    <g id="ytick_3">
     <g id="line2d_12">
      <g>
       <use style="stroke:#000000;stroke-width:0.8;" x="57.6" xlink:href="#m6da090a8fc" y="189.970334"/>
      </g>
     </g>
     <g id="text_13">
      <!-- 0.4 -->
      <g transform="translate(34.696875 193.769552)scale(0.1 -0.1)">
       <use xlink:href="#DejaVuSans-30"/>
       <use x="63.623047" xlink:href="#DejaVuSans-2e"/>
       <use x="95.410156" xlink:href="#DejaVuSans-34"/>
      </g>
     </g>
    </g>
    <g id="ytick_4">
     <g id="line2d_13">
      <g>
       <use style="stroke:#000000;stroke-width:0.8;" x="57.6" xlink:href="#m6da090a8fc" y="136.21461"/>
      </g>
     </g>
     <g id="text_14">
      <!-- 0.6 -->
      <g transform="translate(34.696875 140.013829)scale(0.1 -0.1)">
       <defs>
        <path d="M 2113 2584 
Q 1688 2584 1439 2293 
Q 1191 2003 1191 1497 
Q 1191 994 1439 701 
Q 1688 409 2113 409 
Q 2538 409 2786 701 
Q 3034 994 3034 1497 
Q 3034 2003 2786 2293 
Q 2538 2584 2113 2584 
z
M 3366 4563 
L 3366 3988 
Q 3128 4100 2886 4159 
Q 2644 4219 2406 4219 
Q 1781 4219 1451 3797 
Q 1122 3375 1075 2522 
Q 1259 2794 1537 2939 
Q 1816 3084 2150 3084 
Q 2853 3084 3261 2657 
Q 3669 2231 3669 1497 
Q 3669 778 3244 343 
Q 2819 -91 2113 -91 
Q 1303 -91 875 529 
Q 447 1150 447 2328 
Q 447 3434 972 4092 
Q 1497 4750 2381 4750 
Q 2619 4750 2861 4703 
Q 3103 4656 3366 4563 
z
" id="DejaVuSans-36" transform="scale(0.015625)"/>
       </defs>
       <use xlink:href="#DejaVuSans-30"/>
       <use x="63.623047" xlink:href="#DejaVuSans-2e"/>
       <use x="95.410156" xlink:href="#DejaVuSans-36"/>
      </g>
     </g>
    </g>
    <g id="ytick_5">
     <g id="line2d_14">
      <g>
       <use style="stroke:#000000;stroke-width:0.8;" x="57.6" xlink:href="#m6da090a8fc" y="82.458887"/>
      </g>
     </g>
     <g id="text_15">
      <!-- 0.8 -->
      <g transform="translate(34.696875 86.258106)scale(0.1 -0.1)">
       <defs>
        <path d="M 2034 2216 
Q 1584 2216 1326 1975 
Q 1069 1734 1069 1313 
Q 1069 891 1326 650 
Q 1584 409 2034 409 
Q 2484 409 2743 651 
Q 3003 894 3003 1313 
Q 3003 1734 2745 1975 
Q 2488 2216 2034 2216 
z
M 1403 2484 
Q 997 2584 770 2862 
Q 544 3141 544 3541 
Q 544 4100 942 4425 
Q 1341 4750 2034 4750 
Q 2731 4750 3128 4425 
Q 3525 4100 3525 3541 
Q 3525 3141 3298 2862 
Q 3072 2584 2669 2484 
Q 3125 2378 3379 2068 
Q 3634 1759 3634 1313 
Q 3634 634 3220 271 
Q 2806 -91 2034 -91 
Q 1263 -91 848 271 
Q 434 634 434 1313 
Q 434 1759 690 2068 
Q 947 2378 1403 2484 
z
M 1172 3481 
Q 1172 3119 1398 2916 
Q 1625 2713 2034 2713 
Q 2441 2713 2670 2916 
Q 2900 3119 2900 3481 
Q 2900 3844 2670 4047 
Q 2441 4250 2034 4250 
Q 1625 4250 1398 4047 
Q 1172 3844 1172 3481 
z
" id="DejaVuSans-38" transform="scale(0.015625)"/>
       </defs>
       <use xlink:href="#DejaVuSans-30"/>
       <use x="63.623047" xlink:href="#DejaVuSans-2e"/>
       <use x="95.410156" xlink:href="#DejaVuSans-38"/>
      </g>
     </g>
    </g>
    <g id="text_16">
     <!-- p(context) -->
     <g transform="translate(28.617187 200.449875)rotate(-90)scale(0.1 -0.1)">
      <defs>
       <path d="M 1159 525 
L 1159 -1331 
L 581 -1331 
L 581 3500 
L 1159 3500 
L 1159 2969 
Q 1341 3281 1617 3432 
Q 1894 3584 2278 3584 
Q 2916 3584 3314 3078 
Q 3713 2572 3713 1747 
Q 3713 922 3314 415 
Q 2916 -91 2278 -91 
Q 1894 -91 1617 61 
Q 1341 213 1159 525 
z
M 3116 1747 
Q 3116 2381 2855 2742 
Q 2594 3103 2138 3103 
Q 1681 3103 1420 2742 
Q 1159 2381 1159 1747 
Q 1159 1113 1420 752 
Q 1681 391 2138 391 
Q 2594 391 2855 752 
Q 3116 1113 3116 1747 
z
" id="DejaVuSans-70" transform="scale(0.015625)"/>
       <path d="M 1984 4856 
Q 1566 4138 1362 3434 
Q 1159 2731 1159 2009 
Q 1159 1288 1364 580 
Q 1569 -128 1984 -844 
L 1484 -844 
Q 1016 -109 783 600 
Q 550 1309 550 2009 
Q 550 2706 781 3412 
Q 1013 4119 1484 4856 
L 1984 4856 
z
" id="DejaVuSans-28" transform="scale(0.015625)"/>
       <path d="M 3122 3366 
L 3122 2828 
Q 2878 2963 2633 3030 
Q 2388 3097 2138 3097 
Q 1578 3097 1268 2742 
Q 959 2388 959 1747 
Q 959 1106 1268 751 
Q 1578 397 2138 397 
Q 2388 397 2633 464 
Q 2878 531 3122 666 
L 3122 134 
Q 2881 22 2623 -34 
Q 2366 -91 2075 -91 
Q 1284 -91 818 406 
Q 353 903 353 1747 
Q 353 2603 823 3093 
Q 1294 3584 2113 3584 
Q 2378 3584 2631 3529 
Q 2884 3475 3122 3366 
z
" id="DejaVuSans-63" transform="scale(0.015625)"/>
       <path d="M 1959 3097 
Q 1497 3097 1228 2736 
Q 959 2375 959 1747 
Q 959 1119 1226 758 
Q 1494 397 1959 397 
Q 2419 397 2687 759 
Q 2956 1122 2956 1747 
Q 2956 2369 2687 2733 
Q 2419 3097 1959 3097 
z
M 1959 3584 
Q 2709 3584 3137 3096 
Q 3566 2609 3566 1747 
Q 3566 888 3137 398 
Q 2709 -91 1959 -91 
Q 1206 -91 779 398 
Q 353 888 353 1747 
Q 353 2609 779 3096 
Q 1206 3584 1959 3584 
z
" id="DejaVuSans-6f" transform="scale(0.015625)"/>
       <path d="M 3513 2113 
L 3513 0 
L 2938 0 
L 2938 2094 
Q 2938 2591 2744 2837 
Q 2550 3084 2163 3084 
Q 1697 3084 1428 2787 
Q 1159 2491 1159 1978 
L 1159 0 
L 581 0 
L 581 3500 
L 1159 3500 
L 1159 2956 
Q 1366 3272 1645 3428 
Q 1925 3584 2291 3584 
Q 2894 3584 3203 3211 
Q 3513 2838 3513 2113 
z
" id="DejaVuSans-6e" transform="scale(0.015625)"/>
       <path d="M 3597 1894 
L 3597 1613 
L 953 1613 
Q 991 1019 1311 708 
Q 1631 397 2203 397 
Q 2534 397 2845 478 
Q 3156 559 3463 722 
L 3463 178 
Q 3153 47 2828 -22 
Q 2503 -91 2169 -91 
Q 1331 -91 842 396 
Q 353 884 353 1716 
Q 353 2575 817 3079 
Q 1281 3584 2069 3584 
Q 2775 3584 3186 3129 
Q 3597 2675 3597 1894 
z
M 3022 2063 
Q 3016 2534 2758 2815 
Q 2500 3097 2075 3097 
Q 1594 3097 1305 2825 
Q 1016 2553 972 2059 
L 3022 2063 
z
" id="DejaVuSans-65" transform="scale(0.015625)"/>
       <path d="M 3513 3500 
L 2247 1797 
L 3578 0 
L 2900 0 
L 1881 1375 
L 863 0 
L 184 0 
L 1544 1831 
L 300 3500 
L 978 3500 
L 1906 2253 
L 2834 3500 
L 3513 3500 
z
" id="DejaVuSans-78" transform="scale(0.015625)"/>
       <path d="M 513 4856 
L 1013 4856 
Q 1481 4119 1714 3412 
Q 1947 2706 1947 2009 
Q 1947 1309 1714 600 
Q 1481 -109 1013 -844 
L 513 -844 
Q 928 -128 1133 580 
Q 1338 1288 1338 2009 
Q 1338 2731 1133 3434 
Q 928 4138 513 4856 
z
" id="DejaVuSans-29" transform="scale(0.015625)"/>
      </defs>
      <use xlink:href="#DejaVuSans-70"/>
      <use x="63.476562" xlink:href="#DejaVuSans-28"/>
      <use x="102.490234" xlink:href="#DejaVuSans-63"/>
      <use x="157.470703" xlink:href="#DejaVuSans-6f"/>
      <use x="218.652344" xlink:href="#DejaVuSans-6e"/>
      <use x="282.03125" xlink:href="#DejaVuSans-74"/>
      <use x="321.240234" xlink:href="#DejaVuSans-65"/>
      <use x="381.013672" xlink:href="#DejaVuSans-78"/>
      <use x="440.193359" xlink:href="#DejaVuSans-74"/>
      <use x="479.402344" xlink:href="#DejaVuSans-29"/>
     </g>
    </g>
   </g>
   <g id="line2d_15">
    <path clip-path="url(#p4cc1d16ba5)" d="M 73.832727 207.888908 
L 81.949091 126.543372 
L 90.065455 96.403468 
L 98.181818 269.905942 
L 106.298182 155.668052 
L 114.414545 109.718056 
L 122.530909 94.596199 
L 130.647273 87.427402 
L 138.763636 253.347013 
L 146.88 142.829634 
L 154.996364 105.107841 
L 163.112727 94.228689 
L 171.229091 89.661603 
L 179.345455 86.628498 
L 187.461818 84.12308 
L 195.578182 242.511894 
L 203.694545 132.421057 
L 211.810909 99.301697 
L 219.927273 90.891832 
L 228.043636 234.000783 
L 236.16 193.096515 
L 244.276364 259.572177 
L 252.392727 274.019426 
L 260.509091 278.79636 
L 268.625455 281.431979 
L 276.741818 283.362679 
L 284.858182 284.92379 
L 292.974545 286.225082 
L 301.090909 287.322857 
L 309.207273 288.256088 
L 317.323636 289.054847 
L 325.44 289.743016 
L 333.556364 290.339713 
L 341.672727 290.860302 
L 349.789091 256.329477 
L 357.905455 134.026402 
L 366.021818 91.66063 
L 374.138182 246.417353 
L 382.254545 282.072558 
L 390.370909 248.725201 
" style="fill:none;stroke:#add8e6;stroke-linecap:square;stroke-opacity:0.3;stroke-width:1.5;"/>
   </g>
   <g id="line2d_16">
    <path clip-path="url(#p4cc1d16ba5)" d="M 73.832727 207.888908 
L 81.949091 126.543372 
L 90.065455 96.403468 
L 98.181818 82.514119 
L 106.298182 74.341737 
L 114.414545 68.763232 
L 122.530909 64.616759 
L 130.647273 259.649418 
L 138.763636 127.393781 
L 146.88 262.830262 
L 154.996364 138.869264 
L 163.112727 92.411468 
L 171.229091 79.898934 
L 179.345455 75.469778 
L 187.461818 72.897415 
L 195.578182 70.874961 
L 203.694545 238.578869 
L 211.810909 123.023047 
L 219.927273 86.638486 
L 228.043636 77.635838 
L 236.16 121.814254 
L 244.276364 253.669225 
L 252.392727 130.908782 
L 260.509091 247.724011 
L 268.625455 274.713532 
L 276.741818 281.588961 
L 284.858182 284.44178 
L 292.974545 286.251783 
L 301.090909 287.63385 
L 309.207273 288.753182 
L 317.323636 289.678824 
L 325.44 290.453121 
L 333.556364 291.106799 
L 341.672727 291.66332 
L 349.789091 292.140903 
L 357.905455 292.553818 
L 366.021818 258.767244 
L 374.138182 126.153989 
L 382.254545 259.302106 
L 390.370909 286.770979 
" style="fill:none;stroke:#add8e6;stroke-linecap:square;stroke-opacity:0.3;stroke-width:1.5;"/>
   </g>
   <g id="line2d_17">
    <path clip-path="url(#p4cc1d16ba5)" d="M 73.832727 207.888908 
L 81.949091 290.985265 
L 90.065455 192.992346 
L 98.181818 134.000802 
L 106.298182 109.828818 
L 114.414545 273.11883 
L 122.530909 172.434117 
L 130.647273 274.805406 
L 138.763636 180.45437 
L 146.88 139.81429 
L 154.996364 262.317905 
L 163.112727 178.105176 
L 171.229091 146.466283 
L 179.345455 135.599301 
L 187.461818 130.580962 
L 195.578182 127.155934 
L 203.694545 124.266113 
L 211.810909 252.858954 
L 219.927273 166.337841 
L 228.043636 140.012814 
L 236.16 181.377289 
L 244.276364 253.633077 
L 252.392727 266.218402 
L 260.509091 175.344381 
L 268.625455 249.477203 
L 276.741818 262.640698 
L 284.858182 266.32907 
L 292.974545 268.331971 
L 301.090909 178.98674 
L 309.207273 250.238744 
L 317.323636 262.913343 
L 325.44 266.186286 
L 333.556364 267.797884 
L 341.672727 269.040824 
L 349.789091 270.151835 
L 357.905455 271.179732 
L 366.021818 272.138195 
L 374.138182 273.033998 
L 382.254545 273.872297 
L 390.370909 236.768125 
" style="fill:none;stroke:#add8e6;stroke-linecap:square;stroke-opacity:0.3;stroke-width:1.5;"/>
   </g>
   <g id="line2d_18">
    <path clip-path="url(#p4cc1d16ba5)" d="M 73.832727 207.888908 
L 81.949091 126.543372 
L 90.065455 276.990247 
L 98.181818 168.282742 
L 106.298182 119.846178 
L 114.414545 102.163058 
L 122.530909 93.212167 
L 130.647273 87.125118 
L 138.763636 82.375358 
L 146.88 78.469393 
L 154.996364 75.182701 
L 163.112727 72.378668 
L 171.229091 69.960812 
L 179.345455 67.856765 
L 187.461818 66.010785 
L 195.578182 64.379245 
L 203.694545 62.92757 
L 211.810909 61.628065 
L 219.927273 60.458315 
L 228.043636 256.361616 
L 236.16 199.405462 
L 244.276364 282.676452 
L 252.392727 291.524717 
L 260.509091 293.300299 
L 268.625455 159.726776 
L 276.741818 275.013761 
L 284.858182 145.221988 
L 292.974545 88.010189 
L 301.090909 247.934541 
L 309.207273 282.585182 
L 317.323636 288.814466 
L 325.44 290.5481 
L 333.556364 291.443762 
L 341.672727 292.099842 
L 349.789091 292.635096 
L 357.905455 293.085181 
L 366.021818 293.468459 
L 374.138182 172.988197 
L 382.254545 274.089504 
L 390.370909 290.04933 
" style="fill:none;stroke:#add8e6;stroke-linecap:square;stroke-opacity:0.3;stroke-width:1.5;"/>
   </g>
   <g id="line2d_19">
    <path clip-path="url(#p4cc1d16ba5)" d="M 73.832727 207.888908 
L 81.949091 126.543372 
L 90.065455 96.403468 
L 98.181818 82.514119 
L 106.298182 265.643349 
L 114.414545 145.929039 
L 122.530909 100.678162 
L 130.647273 87.037424 
L 138.763636 81.041553 
L 146.88 77.112625 
L 154.996364 74.002359 
L 163.112727 249.028965 
L 171.229091 128.788324 
L 179.345455 90.571616 
L 187.461818 80.949875 
L 195.578182 77.524934 
L 203.694545 238.161261 
L 211.810909 126.226098 
L 219.927273 92.250159 
L 228.043636 83.833517 
L 236.16 127.810799 
L 244.276364 252.338404 
L 252.392727 278.028653 
L 260.509091 284.286885 
L 268.625455 286.894888 
L 276.741818 288.535709 
L 284.858182 161.238513 
L 292.974545 100.276539 
L 301.090909 242.418713 
L 309.207273 276.823625 
L 317.323636 284.41021 
L 325.44 286.738362 
L 333.556364 287.95547 
L 341.672727 288.853857 
L 349.789091 168.084974 
L 357.905455 262.623497 
L 366.021818 282.711832 
L 374.138182 286.98536 
L 382.254545 288.297085 
L 390.370909 250.117113 
" style="fill:none;stroke:#add8e6;stroke-linecap:square;stroke-opacity:0.3;stroke-width:1.5;"/>
   </g>
   <g id="line2d_20">
    <path clip-path="url(#p4cc1d16ba5)" d="M 73.832727 207.888908 
L 81.949091 290.985265 
L 90.065455 295.488 
L 98.181818 204.927811 
L 106.298182 137.534818 
L 114.414545 109.160629 
L 122.530909 95.425878 
L 130.647273 86.848065 
L 138.763636 80.608564 
L 146.88 75.739441 
L 154.996364 71.806375 
L 163.112727 265.407186 
L 171.229091 290.455836 
L 179.345455 293.44419 
L 187.461818 176.50153 
L 195.578182 104.137506 
L 203.694545 82.137194 
L 211.810909 75.332648 
L 219.927273 254.935941 
L 228.043636 143.078711 
L 236.16 166.393696 
L 244.276364 105.299475 
L 252.392727 254.043245 
L 260.509091 148.120843 
L 268.625455 105.730388 
L 276.741818 245.28338 
L 284.858182 149.007551 
L 292.974545 250.795698 
L 301.090909 273.404426 
L 309.207273 279.017874 
L 317.323636 281.243995 
L 325.44 282.672963 
L 333.556364 283.826942 
L 341.672727 175.513286 
L 349.789091 259.844719 
L 357.905455 277.64018 
L 366.021818 281.747225 
L 374.138182 176.890232 
L 382.254545 258.277127 
L 390.370909 276.054996 
" style="fill:none;stroke:#add8e6;stroke-linecap:square;stroke-opacity:0.3;stroke-width:1.5;"/>
   </g>
   <g id="line2d_21">
    <path clip-path="url(#p4cc1d16ba5)" d="M 73.832727 207.888908 
L 81.949091 126.543372 
L 90.065455 96.403468 
L 98.181818 269.905942 
L 106.298182 155.668052 
L 114.414545 109.718056 
L 122.530909 94.596199 
L 130.647273 255.266704 
L 138.763636 148.451956 
L 146.88 110.780581 
L 154.996364 99.319537 
L 163.112727 244.538576 
L 171.229091 145.992535 
L 179.345455 114.042792 
L 187.461818 104.721782 
L 195.578182 100.793865 
L 203.694545 98.155546 
L 211.810909 95.930906 
L 219.927273 93.929164 
L 228.043636 237.350277 
L 236.16 194.940318 
L 244.276364 260.847839 
L 252.392727 146.236591 
L 260.509091 243.518663 
L 268.625455 265.375143 
L 276.741818 271.792444 
L 284.858182 274.854653 
L 292.974545 276.991683 
L 301.090909 160.46018 
L 309.207273 248.532947 
L 317.323636 268.539143 
L 325.44 273.963083 
L 333.556364 276.220855 
L 341.672727 277.69634 
L 349.789091 278.909296 
L 357.905455 164.278889 
L 366.021818 251.095593 
L 374.138182 152.885911 
L 382.254545 244.567775 
L 390.370909 266.390578 
" style="fill:none;stroke:#add8e6;stroke-linecap:square;stroke-opacity:0.3;stroke-width:1.5;"/>
   </g>
   <g id="line2d_22">
    <path clip-path="url(#p4cc1d16ba5)" d="M 73.832727 207.888908 
L 81.949091 126.543372 
L 90.065455 96.403468 
L 98.181818 82.514119 
L 106.298182 74.341737 
L 114.414545 68.763232 
L 122.530909 64.616759 
L 130.647273 259.649418 
L 138.763636 127.393781 
L 146.88 82.725091 
L 154.996364 71.589751 
L 163.112727 245.410312 
L 171.229091 283.175958 
L 179.345455 154.001393 
L 187.461818 95.174054 
L 195.578182 79.51158 
L 203.694545 74.735215 
L 211.810909 72.34767 
L 219.927273 70.566286 
L 228.043636 69.024935 
L 236.16 115.827701 
L 244.276364 261.003969 
L 252.392727 129.450514 
L 260.509091 256.061609 
L 268.625455 281.544287 
L 276.741818 286.982951 
L 284.858182 289.000638 
L 292.974545 290.224794 
L 301.090909 291.142059 
L 309.207273 291.876067 
L 317.323636 292.477627 
L 325.44 292.977455 
L 333.556364 166.621243 
L 341.672727 271.167079 
L 349.789091 288.911408 
L 357.905455 165.978111 
L 366.021818 267.868972 
L 374.138182 148.174021 
L 382.254545 92.115789 
L 390.370909 77.352251 
" style="fill:none;stroke:#add8e6;stroke-linecap:square;stroke-opacity:0.3;stroke-width:1.5;"/>
   </g>
   <g id="line2d_23">
    <path clip-path="url(#p4cc1d16ba5)" d="M 73.832727 207.888908 
L 81.949091 126.543372 
L 90.065455 96.403468 
L 98.181818 82.514119 
L 106.298182 74.341737 
L 114.414545 262.803723 
L 122.530909 289.763381 
L 130.647273 165.423774 
L 138.763636 101.577143 
L 146.88 83.307781 
L 154.996364 76.749551 
L 163.112727 248.397889 
L 171.229091 134.983419 
L 179.345455 94.775691 
L 187.461818 83.704991 
L 195.578182 79.57131 
L 203.694545 77.045966 
L 211.810909 75.008454 
L 219.927273 73.216335 
L 228.043636 71.603475 
L 236.16 120.203235 
L 244.276364 263.693783 
L 252.392727 286.294366 
L 260.509091 290.362494 
L 268.625455 156.410263 
L 276.741818 268.311302 
L 284.858182 286.321084 
L 292.974545 159.464538 
L 301.090909 264.779241 
L 309.207273 146.868403 
L 317.323636 256.350739 
L 325.44 279.268875 
L 333.556364 284.42443 
L 341.672727 168.039243 
L 349.789091 107.971236 
L 357.905455 240.177342 
L 366.021818 142.046092 
L 374.138182 245.410012 
L 382.254545 271.016594 
L 390.370909 277.585022 
" style="fill:none;stroke:#add8e6;stroke-linecap:square;stroke-opacity:0.3;stroke-width:1.5;"/>
   </g>
   <g id="line2d_24">
    <path clip-path="url(#p4cc1d16ba5)" d="M 73.832727 207.888908 
L 81.949091 290.985265 
L 90.065455 192.992346 
L 98.181818 134.000802 
L 106.298182 109.828818 
L 114.414545 97.638679 
L 122.530909 270.104035 
L 130.647273 164.201033 
L 138.763636 119.91786 
L 146.88 105.240679 
L 154.996364 98.728814 
L 163.112727 94.460848 
L 171.229091 91.023246 
L 179.345455 257.175559 
L 187.461818 148.20821 
L 195.578182 110.529188 
L 203.694545 99.84553 
L 211.810909 95.868029 
L 219.927273 93.475408 
L 228.043636 91.538413 
L 236.16 141.683864 
L 244.276364 256.237758 
L 252.392727 144.835724 
L 260.509091 249.926095 
L 268.625455 271.29257 
L 276.741818 277.140729 
L 284.858182 279.938435 
L 292.974545 281.902511 
L 301.090909 283.495995 
L 309.207273 284.8441 
L 317.323636 285.999623 
L 325.44 286.996413 
L 333.556364 287.860653 
L 341.672727 288.613663 
L 349.789091 169.061152 
L 357.905455 109.545135 
L 366.021818 93.642666 
L 374.138182 246.027246 
L 382.254545 278.827217 
L 390.370909 285.191113 
" style="fill:none;stroke:#add8e6;stroke-linecap:square;stroke-opacity:0.3;stroke-width:1.5;"/>
   </g>
   <g id="line2d_25">
    <path clip-path="url(#p4cc1d16ba5)" d="M 73.832727 207.888908 
L 81.949091 276.049094 
L 90.065455 286.385822 
L 98.181818 123.670122 
L 106.298182 249.414948 
L 114.414545 278.124244 
L 122.530909 283.635608 
L 130.647273 285.777822 
L 138.763636 144.887127 
L 146.88 253.341303 
L 154.996364 277.299326 
L 163.112727 282.108938 
L 171.229091 283.797036 
L 179.345455 284.894867 
L 187.461818 285.794009 
L 195.578182 158.300423 
L 203.694545 257.078019 
L 211.810909 278.161225 
L 219.927273 282.327715 
L 228.043636 165.306184 
L 236.16 197.997273 
L 244.276364 124.711681 
L 252.392727 98.978573 
L 260.509091 88.509639 
L 268.625455 82.268829 
L 276.741818 77.481582 
L 284.858182 73.460136 
L 292.974545 69.992476 
L 301.090909 66.975787 
L 309.207273 64.337913 
L 317.323636 62.020683 
L 325.44 59.975719 
L 333.556364 58.162634 
L 341.672727 56.547724 
L 349.789091 113.018389 
L 357.905455 259.016993 
L 366.021818 285.065787 
L 374.138182 135.028629 
L 382.254545 73.65826 
L 390.370909 122.638656 
" style="fill:none;stroke:#ff0000;stroke-linecap:square;stroke-opacity:0.1;stroke-width:1.5;"/>
   </g>
   <g id="line2d_26">
    <path clip-path="url(#p4cc1d16ba5)" d="M 73.832727 207.888908 
L 81.949091 276.049094 
L 90.065455 286.385822 
L 98.181818 289.218908 
L 106.298182 290.8763 
L 114.414545 292.033925 
L 122.530909 292.877102 
L 130.647273 137.197922 
L 138.763636 263.77862 
L 146.88 131.889186 
L 154.996364 253.995578 
L 163.112727 281.479024 
L 171.229091 286.400407 
L 179.345455 287.809318 
L 187.461818 288.616243 
L 195.578182 289.253708 
L 203.694545 160.697414 
L 211.810909 261.191883 
L 219.927273 282.332038 
L 228.043636 286.279451 
L 236.16 257.159007 
L 244.276364 138.776681 
L 252.392727 252.761 
L 260.509091 144.821813 
L 268.625455 100.508375 
L 276.741818 85.388529 
L 284.858182 78.224255 
L 292.974545 73.339359 
L 301.090909 69.409867 
L 309.207273 66.086102 
L 317.323636 63.229877 
L 325.44 60.756126 
L 333.556364 58.600305 
L 341.672727 56.710548 
L 349.789091 55.044624 
L 357.905455 53.568 
L 366.021818 108.521304 
L 374.138182 260.969928 
L 382.254545 116.358587 
L 390.370909 65.944246 
" style="fill:none;stroke:#ff0000;stroke-linecap:square;stroke-opacity:0.1;stroke-width:1.5;"/>
   </g>
   <g id="line2d_27">
    <path clip-path="url(#p4cc1d16ba5)" d="M 73.832727 207.888908 
L 81.949091 87.97608 
L 90.065455 220.80163 
L 98.181818 264.741193 
L 106.298182 275.055883 
L 114.414545 119.6607 
L 122.530909 230.976208 
L 130.647273 117.002752 
L 138.763636 221.579553 
L 146.88 252.478173 
L 154.996364 133.719688 
L 163.112727 221.239765 
L 171.229091 245.814437 
L 179.345455 252.74692 
L 187.461818 255.651804 
L 195.578182 257.590296 
L 203.694545 259.214747 
L 211.810909 145.86332 
L 219.927273 227.371703 
L 228.043636 247.822008 
L 236.16 213.545899 
L 244.276364 141.302642 
L 252.392727 120.955737 
L 260.509091 217.662905 
L 268.625455 145.520883 
L 276.741818 125.816303 
L 284.858182 118.996469 
L 292.974545 115.106814 
L 301.090909 215.020965 
L 309.207273 142.470459 
L 317.323636 123.813216 
L 325.44 118.030742 
L 333.556364 115.009916 
L 341.672727 112.638846 
L 349.789091 110.492605 
L 357.905455 108.483064 
L 366.021818 106.587734 
L 374.138182 104.796877 
L 382.254545 103.103416 
L 390.370909 152.619972 
" style="fill:none;stroke:#ff0000;stroke-linecap:square;stroke-opacity:0.1;stroke-width:1.5;"/>
   </g>
   <g id="line2d_28">
    <path clip-path="url(#p4cc1d16ba5)" d="M 73.832727 207.888908 
L 81.949091 276.049094 
L 90.065455 117.647321 
L 98.181818 243.059388 
L 106.298182 273.945014 
L 114.414545 280.515025 
L 122.530909 283.330448 
L 130.647273 285.278283 
L 138.763636 286.788997 
L 146.88 287.995677 
L 154.996364 288.976444 
L 163.112727 289.785449 
L 171.229091 290.461599 
L 179.345455 291.033395 
L 187.461818 291.52207 
L 195.578182 291.943687 
L 203.694545 292.310573 
L 211.810909 292.632313 
L 219.927273 292.91645 
L 228.043636 151.923499 
L 236.16 189.026206 
L 244.276364 93.573587 
L 252.392727 68.530358 
L 260.509091 60.350665 
L 268.625455 227.522697 
L 276.741818 107.143457 
L 284.858182 239.165322 
L 292.974545 277.488538 
L 301.090909 148.465361 
L 309.207273 88.461275 
L 317.323636 72.217549 
L 325.44 66.621821 
L 333.556364 63.376813 
L 341.672727 60.840886 
L 349.789091 58.675816 
L 357.905455 56.784249 
L 366.021818 55.117 
L 374.138182 218.049207 
L 382.254545 98.584812 
L 390.370909 64.879045 
" style="fill:none;stroke:#ff0000;stroke-linecap:square;stroke-opacity:0.1;stroke-width:1.5;"/>
   </g>
   <g id="line2d_29">
    <path clip-path="url(#p4cc1d16ba5)" d="M 73.832727 207.888908 
L 81.949091 276.049094 
L 90.065455 286.385822 
L 98.181818 289.218908 
L 106.298182 127.847553 
L 114.414545 254.366701 
L 122.530909 281.447243 
L 130.647273 286.167865 
L 138.763636 287.834138 
L 146.88 288.940754 
L 154.996364 289.816586 
L 163.112727 150.871596 
L 171.229091 260.809459 
L 179.345455 283.003522 
L 187.461818 286.868261 
L 195.578182 287.989507 
L 203.694545 161.278488 
L 211.810909 260.378923 
L 219.927273 281.056019 
L 228.043636 284.966952 
L 236.16 255.168618 
L 244.276364 140.098519 
L 252.392727 93.786848 
L 260.509091 78.324244 
L 268.625455 71.069751 
L 276.741818 66.202474 
L 284.858182 228.074853 
L 292.974545 274.271853 
L 301.090909 148.021942 
L 309.207273 90.858463 
L 317.323636 74.474083 
L 325.44 68.720582 
L 333.556364 65.43805 
L 341.672727 62.890461 
L 349.789091 222.276829 
L 357.905455 112.517207 
L 366.021818 76.174558 
L 374.138182 66.895565 
L 382.254545 63.666213 
L 390.370909 120.716961 
" style="fill:none;stroke:#ff0000;stroke-linecap:square;stroke-opacity:0.1;stroke-width:1.5;"/>
   </g>
   <g id="line2d_30">
    <path clip-path="url(#p4cc1d16ba5)" d="M 73.832727 207.888908 
L 81.949091 87.97608 
L 90.065455 60.497526 
L 98.181818 201.491397 
L 106.298182 258.990997 
L 114.414545 273.04641 
L 122.530909 278.262652 
L 130.647273 281.458823 
L 138.763636 283.786557 
L 146.88 285.567245 
L 154.996364 286.96501 
L 163.112727 129.249525 
L 171.229091 76.188094 
L 179.345455 62.348389 
L 187.461818 213.09947 
L 195.578182 268.408544 
L 203.694545 280.711316 
L 211.810909 283.80839 
L 219.927273 138.55927 
L 228.043636 240.951347 
L 236.16 216.323444 
L 244.276364 265.440367 
L 252.392727 135.291682 
L 260.509091 234.65515 
L 268.625455 265.012078 
L 276.741818 143.6702 
L 284.858182 232.78986 
L 292.974545 133.976519 
L 301.090909 99.403674 
L 309.207273 88.443937 
L 317.323636 83.535416 
L 325.44 80.196758 
L 333.556364 77.406381 
L 341.672727 210.064005 
L 349.789091 117.28038 
L 357.905455 88.978071 
L 366.021818 81.073863 
L 374.138182 208.141055 
L 382.254545 118.308834 
L 390.370909 90.994218 
" style="fill:none;stroke:#ff0000;stroke-linecap:square;stroke-opacity:0.1;stroke-width:1.5;"/>
   </g>
   <g id="line2d_31">
    <path clip-path="url(#p4cc1d16ba5)" d="M 73.832727 207.888908 
L 81.949091 276.049094 
L 90.065455 286.385822 
L 98.181818 123.670122 
L 106.298182 249.414948 
L 114.414545 278.124244 
L 122.530909 283.635608 
L 130.647273 142.305334 
L 138.763636 250.202467 
L 146.88 274.868248 
L 154.996364 280.085724 
L 163.112727 154.058159 
L 171.229091 249.442279 
L 179.345455 271.44154 
L 187.461818 276.384821 
L 195.578182 278.182564 
L 203.694545 279.345468 
L 211.810909 280.312884 
L 219.927273 281.170927 
L 228.043636 163.097235 
L 236.16 197.355328 
L 244.276364 124.105267 
L 252.392727 244.05795 
L 260.509091 150.116591 
L 268.625455 115.301181 
L 276.741818 102.72692 
L 284.858182 96.302779 
L 292.974545 91.662104 
L 301.090909 231.992122 
L 309.207273 139.15792 
L 317.323636 107.202046 
L 325.44 96.968425 
L 333.556364 92.364749 
L 341.672727 89.221707 
L 349.789091 86.56819 
L 357.905455 229.422018 
L 366.021818 132.627526 
L 374.138182 237.926014 
L 382.254545 140.858272 
L 390.370909 107.869732 
" style="fill:none;stroke:#ff0000;stroke-linecap:square;stroke-opacity:0.1;stroke-width:1.5;"/>
   </g>
   <g id="line2d_32">
    <path clip-path="url(#p4cc1d16ba5)" d="M 73.832727 207.888908 
L 81.949091 276.049094 
L 90.065455 286.385822 
L 98.181818 289.218908 
L 106.298182 290.8763 
L 114.414545 292.033925 
L 122.530909 292.877102 
L 130.647273 137.197922 
L 138.763636 263.77862 
L 146.88 287.189135 
L 154.996364 290.502784 
L 163.112727 152.542754 
L 171.229091 86.229351 
L 179.345455 237.104316 
L 187.461818 278.119653 
L 195.578182 285.618671 
L 203.694545 287.385251 
L 211.810909 288.193187 
L 219.927273 288.787427 
L 228.043636 289.294916 
L 236.16 260.136389 
L 244.276364 131.188519 
L 252.392727 252.744624 
L 260.509091 135.571685 
L 268.625455 89.353284 
L 276.741818 75.183957 
L 284.858182 69.022268 
L 292.974545 64.972165 
L 301.090909 61.760647 
L 309.207273 59.067475 
L 317.323636 56.767483 
L 325.44 54.784287 
L 333.556364 224.1432 
L 341.672727 102.25038 
L 349.789091 65.853998 
L 357.905455 221.586839 
L 366.021818 106.321526 
L 374.138182 234.289559 
L 382.254545 274.325743 
L 390.370909 283.188828 
" style="fill:none;stroke:#ff0000;stroke-linecap:square;stroke-opacity:0.1;stroke-width:1.5;"/>
   </g>
   <g id="line2d_33">
    <path clip-path="url(#p4cc1d16ba5)" d="M 73.832727 207.888908 
L 81.949091 276.049094 
L 90.065455 286.385822 
L 98.181818 289.218908 
L 106.298182 290.8763 
L 114.414545 131.593686 
L 122.530909 74.109388 
L 130.647273 231.311592 
L 138.763636 277.440235 
L 146.88 285.448642 
L 154.996364 287.532813 
L 163.112727 148.352135 
L 171.229091 254.476642 
L 179.345455 279.135337 
L 187.461818 284.077766 
L 195.578182 285.621324 
L 203.694545 286.527188 
L 211.810909 287.249423 
L 219.927273 287.874565 
L 228.043636 288.427332 
L 236.16 257.736553 
L 244.276364 128.633325 
L 252.392727 80.95285 
L 260.509091 67.367825 
L 268.625455 227.89878 
L 276.741818 115.275106 
L 284.858182 78.423457 
L 292.974545 224.431775 
L 301.090909 119.025214 
L 309.207273 234.623597 
L 317.323636 130.349223 
L 325.44 91.829814 
L 333.556364 80.419343 
L 341.672727 215.336298 
L 349.789091 262.033493 
L 357.905455 149.958479 
L 366.021818 236.916141 
L 374.138182 140.634506 
L 382.254545 103.032397 
L 390.370909 91.31218 
" style="fill:none;stroke:#ff0000;stroke-linecap:square;stroke-opacity:0.1;stroke-width:1.5;"/>
   </g>
   <g id="line2d_34">
    <path clip-path="url(#p4cc1d16ba5)" d="M 73.832727 207.888908 
L 81.949091 87.97608 
L 90.065455 220.80163 
L 98.181818 264.741193 
L 106.298182 275.055883 
L 114.414545 279.284903 
L 122.530909 123.352387 
L 130.647273 236.060759 
L 138.763636 266.787546 
L 146.88 274.086597 
L 154.996364 276.883919 
L 163.112727 278.703268 
L 171.229091 280.166165 
L 179.345455 141.404357 
L 187.461818 243.368489 
L 195.578182 269.134348 
L 203.694545 275.034673 
L 211.810909 276.965078 
L 219.927273 278.0765 
L 228.043636 278.964573 
L 236.16 244.111273 
L 244.276364 136.547931 
L 252.392727 241.907215 
L 260.509091 143.172554 
L 268.625455 107.841583 
L 276.741818 95.269227 
L 284.858182 88.721396 
L 292.974545 83.929355 
L 301.090909 79.895262 
L 309.207273 76.362917 
L 317.323636 73.237167 
L 325.44 70.459872 
L 333.556364 67.984702 
L 341.672727 65.772042 
L 349.789091 224.129693 
L 357.905455 269.362812 
L 366.021818 278.8327 
L 374.138182 139.565609 
L 382.254545 85.226904 
L 390.370909 72.016967 
" style="fill:none;stroke:#ff0000;stroke-linecap:square;stroke-opacity:0.1;stroke-width:1.5;"/>
   </g>
   <g id="line2d_35">
    <path clip-path="url(#p4cc1d16ba5)" d="M 73.832727 207.888908 
L 81.949091 175.87594 
L 90.065455 153.688375 
L 98.181818 151.108052 
L 106.298182 127.70433 
L 114.414545 134.777653 
L 122.530909 134.004366 
L 130.647273 172.743376 
L 138.763636 130.256138 
L 146.88 115.884978 
L 154.996364 107.36741 
L 163.112727 178.436778 
L 171.229091 146.040695 
L 179.345455 136.956558 
L 187.461818 104.287268 
L 195.578182 105.699042 
L 203.694545 122.827432 
L 211.810909 107.752557 
L 219.927273 108.269977 
L 228.043636 140.444038 
L 236.16 156.255313 
L 244.276364 244.897216 
L 252.392727 220.156042 
L 260.509091 246.744164 
L 268.625455 233.259703 
L 276.741818 274.065261 
L 284.858182 242.12775 
L 292.974545 228.847479 
L 301.090909 251.75786 
L 309.207273 263.779621 
L 317.323636 279.948282 
L 325.44 283.954767 
L 333.556364 272.759775 
L 341.672727 261.354776 
L 349.789091 238.40401 
L 357.905455 221.108829 
L 366.021818 223.514691 
L 374.138182 207.496632 
L 382.254545 252.243805 
L 390.370909 249.500471 
" style="fill:none;stroke:#1f77b4;stroke-linecap:square;stroke-width:1.5;"/>
   </g>
   <g id="line2d_36">
    <path clip-path="url(#p4cc1d16ba5)" d="M 73.832727 207.888908 
L 81.949091 219.62719 
L 90.065455 233.806304 
L 98.181818 237.824905 
L 106.298182 258.235413 
L 114.414545 247.878376 
L 122.530909 242.450375 
L 130.647273 213.975908 
L 138.763636 254.686386 
L 146.88 262.180496 
L 154.996364 266.577787 
L 163.112727 208.839061 
L 171.229091 231.378547 
L 179.345455 239.092196 
L 187.461818 270.350259 
L 195.578182 267.204307 
L 203.694545 253.958314 
L 211.810909 265.475663 
L 219.927273 264.047261 
L 228.043636 239.70335 
L 236.16 228.855999 
L 244.276364 142.437852 
L 252.392727 158.996684 
L 260.509091 132.055307 
L 268.625455 143.229744 
L 276.741818 99.415775 
L 284.858182 130.31808 
L 292.974545 140.917096 
L 301.090909 123.997084 
L 309.207273 104.987006 
L 317.323636 84.684674 
L 325.44 76.834415 
L 333.556364 90.290609 
L 341.672727 103.22729 
L 349.789091 131.537402 
L 357.905455 154.967773 
L 366.021818 146.723814 
L 374.138182 174.629695 
L 382.254545 117.712344 
L 390.370909 117.218081 
" style="fill:none;stroke:#ff0000;stroke-linecap:square;stroke-width:1.5;"/>
   </g>
   <g id="patch_5">
    <path d="M 57.6 307.584 
L 57.6 41.472 
" style="fill:none;stroke:#000000;stroke-linecap:square;stroke-linejoin:miter;stroke-width:0.8;"/>
   </g>
   <g id="patch_6">
    <path d="M 414.72 307.584 
L 414.72 41.472 
" style="fill:none;stroke:#000000;stroke-linecap:square;stroke-linejoin:miter;stroke-width:0.8;"/>
   </g>
   <g id="patch_7">
    <path d="M 57.6 307.584 
L 414.72 307.584 
" style="fill:none;stroke:#000000;stroke-linecap:square;stroke-linejoin:miter;stroke-width:0.8;"/>
   </g>
   <g id="patch_8">
    <path d="M 57.6 41.472 
L 414.72 41.472 
" style="fill:none;stroke:#000000;stroke-linecap:square;stroke-linejoin:miter;stroke-width:0.8;"/>
   </g>
   <g id="text_17">
    <!-- biased_B -->
    <g transform="translate(209.264062 35.472)scale(0.12 -0.12)">
     <defs>
      <path d="M 3116 1747 
Q 3116 2381 2855 2742 
Q 2594 3103 2138 3103 
Q 1681 3103 1420 2742 
Q 1159 2381 1159 1747 
Q 1159 1113 1420 752 
Q 1681 391 2138 391 
Q 2594 391 2855 752 
Q 3116 1113 3116 1747 
z
M 1159 2969 
Q 1341 3281 1617 3432 
Q 1894 3584 2278 3584 
Q 2916 3584 3314 3078 
Q 3713 2572 3713 1747 
Q 3713 922 3314 415 
Q 2916 -91 2278 -91 
Q 1894 -91 1617 61 
Q 1341 213 1159 525 
L 1159 0 
L 581 0 
L 581 4863 
L 1159 4863 
L 1159 2969 
z
" id="DejaVuSans-62" transform="scale(0.015625)"/>
      <path d="M 603 3500 
L 1178 3500 
L 1178 0 
L 603 0 
L 603 3500 
z
M 603 4863 
L 1178 4863 
L 1178 4134 
L 603 4134 
L 603 4863 
z
" id="DejaVuSans-69" transform="scale(0.015625)"/>
      <path d="M 2194 1759 
Q 1497 1759 1228 1600 
Q 959 1441 959 1056 
Q 959 750 1161 570 
Q 1363 391 1709 391 
Q 2188 391 2477 730 
Q 2766 1069 2766 1631 
L 2766 1759 
L 2194 1759 
z
M 3341 1997 
L 3341 0 
L 2766 0 
L 2766 531 
Q 2569 213 2275 61 
Q 1981 -91 1556 -91 
Q 1019 -91 701 211 
Q 384 513 384 1019 
Q 384 1609 779 1909 
Q 1175 2209 1959 2209 
L 2766 2209 
L 2766 2266 
Q 2766 2663 2505 2880 
Q 2244 3097 1772 3097 
Q 1472 3097 1187 3025 
Q 903 2953 641 2809 
L 641 3341 
Q 956 3463 1253 3523 
Q 1550 3584 1831 3584 
Q 2591 3584 2966 3190 
Q 3341 2797 3341 1997 
z
" id="DejaVuSans-61" transform="scale(0.015625)"/>
      <path d="M 2834 3397 
L 2834 2853 
Q 2591 2978 2328 3040 
Q 2066 3103 1784 3103 
Q 1356 3103 1142 2972 
Q 928 2841 928 2578 
Q 928 2378 1081 2264 
Q 1234 2150 1697 2047 
L 1894 2003 
Q 2506 1872 2764 1633 
Q 3022 1394 3022 966 
Q 3022 478 2636 193 
Q 2250 -91 1575 -91 
Q 1294 -91 989 -36 
Q 684 19 347 128 
L 347 722 
Q 666 556 975 473 
Q 1284 391 1588 391 
Q 1994 391 2212 530 
Q 2431 669 2431 922 
Q 2431 1156 2273 1281 
Q 2116 1406 1581 1522 
L 1381 1569 
Q 847 1681 609 1914 
Q 372 2147 372 2553 
Q 372 3047 722 3315 
Q 1072 3584 1716 3584 
Q 2034 3584 2315 3537 
Q 2597 3491 2834 3397 
z
" id="DejaVuSans-73" transform="scale(0.015625)"/>
      <path d="M 2906 2969 
L 2906 4863 
L 3481 4863 
L 3481 0 
L 2906 0 
L 2906 525 
Q 2725 213 2448 61 
Q 2172 -91 1784 -91 
Q 1150 -91 751 415 
Q 353 922 353 1747 
Q 353 2572 751 3078 
Q 1150 3584 1784 3584 
Q 2172 3584 2448 3432 
Q 2725 3281 2906 2969 
z
M 947 1747 
Q 947 1113 1208 752 
Q 1469 391 1925 391 
Q 2381 391 2643 752 
Q 2906 1113 2906 1747 
Q 2906 2381 2643 2742 
Q 2381 3103 1925 3103 
Q 1469 3103 1208 2742 
Q 947 2381 947 1747 
z
" id="DejaVuSans-64" transform="scale(0.015625)"/>
      <path d="M 3263 -1063 
L 3263 -1509 
L -63 -1509 
L -63 -1063 
L 3263 -1063 
z
" id="DejaVuSans-5f" transform="scale(0.015625)"/>
      <path d="M 1259 2228 
L 1259 519 
L 2272 519 
Q 2781 519 3026 730 
Q 3272 941 3272 1375 
Q 3272 1813 3026 2020 
Q 2781 2228 2272 2228 
L 1259 2228 
z
M 1259 4147 
L 1259 2741 
L 2194 2741 
Q 2656 2741 2882 2914 
Q 3109 3088 3109 3444 
Q 3109 3797 2882 3972 
Q 2656 4147 2194 4147 
L 1259 4147 
z
M 628 4666 
L 2241 4666 
Q 2963 4666 3353 4366 
Q 3744 4066 3744 3513 
Q 3744 3084 3544 2831 
Q 3344 2578 2956 2516 
Q 3422 2416 3680 2098 
Q 3938 1781 3938 1306 
Q 3938 681 3513 340 
Q 3088 0 2303 0 
L 628 0 
L 628 4666 
z
" id="DejaVuSans-42" transform="scale(0.015625)"/>
     </defs>
     <use xlink:href="#DejaVuSans-62"/>
     <use x="63.476562" xlink:href="#DejaVuSans-69"/>
     <use x="91.259766" xlink:href="#DejaVuSans-61"/>
     <use x="152.539062" xlink:href="#DejaVuSans-73"/>
     <use x="204.638672" xlink:href="#DejaVuSans-65"/>
     <use x="266.162109" xlink:href="#DejaVuSans-64"/>
     <use x="329.638672" xlink:href="#DejaVuSans-5f"/>
     <use x="379.638672" xlink:href="#DejaVuSans-42"/>
    </g>
   </g>
   <g id="legend_1">
    <g id="patch_9">
     <path d="M 64.6 78.82825 
L 120.684375 78.82825 
Q 122.684375 78.82825 122.684375 76.82825 
L 122.684375 48.472 
Q 122.684375 46.472 120.684375 46.472 
L 64.6 46.472 
Q 62.6 46.472 62.6 48.472 
L 62.6 76.82825 
Q 62.6 78.82825 64.6 78.82825 
z
" style="fill:#ffffff;opacity:0.8;stroke:#cccccc;stroke-linejoin:miter;"/>
    </g>
    <g id="line2d_37">
     <path d="M 66.6 54.570437 
L 86.6 54.570437 
" style="fill:none;stroke:#1f77b4;stroke-linecap:square;stroke-width:1.5;"/>
    </g>
    <g id="line2d_38"/>
    <g id="text_18">
     <!-- coop -->
     <g transform="translate(94.6 58.070437)scale(0.1 -0.1)">
      <use xlink:href="#DejaVuSans-63"/>
      <use x="54.980469" xlink:href="#DejaVuSans-6f"/>
      <use x="116.162109" xlink:href="#DejaVuSans-6f"/>
      <use x="177.34375" xlink:href="#DejaVuSans-70"/>
     </g>
    </g>
    <g id="line2d_39">
     <path d="M 66.6 69.248562 
L 86.6 69.248562 
" style="fill:none;stroke:#ff0000;stroke-linecap:square;stroke-width:1.5;"/>
    </g>
    <g id="line2d_40"/>
    <g id="text_19">
     <!-- host -->
     <g transform="translate(94.6 72.748562)scale(0.1 -0.1)">
      <defs>
       <path d="M 3513 2113 
L 3513 0 
L 2938 0 
L 2938 2094 
Q 2938 2591 2744 2837 
Q 2550 3084 2163 3084 
Q 1697 3084 1428 2787 
Q 1159 2491 1159 1978 
L 1159 0 
L 581 0 
L 581 4863 
L 1159 4863 
L 1159 2956 
Q 1366 3272 1645 3428 
Q 1925 3584 2291 3584 
Q 2894 3584 3203 3211 
Q 3513 2838 3513 2113 
z
" id="DejaVuSans-68" transform="scale(0.015625)"/>
      </defs>
      <use xlink:href="#DejaVuSans-68"/>
      <use x="63.378906" xlink:href="#DejaVuSans-6f"/>
      <use x="124.560547" xlink:href="#DejaVuSans-73"/>
      <use x="176.660156" xlink:href="#DejaVuSans-74"/>
     </g>
    </g>
   </g>
  </g>
 </g>
 <defs>
  <clipPath id="p4cc1d16ba5">
   <rect height="266.112" width="357.12" x="57.6" y="41.472"/>
  </clipPath>
 </defs>
</svg>
