<?xml version="1.0" encoding="utf-8" standalone="no"?>
<!DOCTYPE svg PUBLIC "-//W3C//DTD SVG 1.1//EN"
  "http://www.w3.org/Graphics/SVG/1.1/DTD/svg11.dtd">
<svg height="345.6pt" version="1.1" viewBox="0 0 460.8 345.6" width="460.8pt" xmlns="http://www.w3.org/2000/svg" xmlns:xlink="http://www.w3.org/1999/xlink">
 <metadata>
  <rdf:RDF xmlns:cc="http://creativecommons.org/ns#" xmlns:dc="http://purl.org/dc/elements/1.1/" xmlns:rdf="http://www.w3.org/1999/02/22-rdf-syntax-ns#">
   <cc:Work>
    <dc:type rdf:resource="http://purl.org/dc/dcmitype/StillImage"/>
    <dc:date>2023-10-05T17:05:48.392131</dc:date>
    <dc:format>image/svg+xml</dc:format>
    <dc:creator>
     <cc:Agent>
      <dc:title>Matplotlib v3.4.1, https://matplotlib.org/</dc:title>
     </cc:Agent>
    </dc:creator>
   </cc:Work>
  </rdf:RDF>
 </metadata>
 <defs>
  <style type="text/css">*{stroke-linecap:butt;stroke-linejoin:round;}</style>
 </defs>
 <g id="figure_1">
  <g id="patch_1">
   <path d="M 0 345.6 
L 460.8 345.6 
L 460.8 0 
L 0 0 
z
" style="fill:#ffffff;"/>
  </g>
  <g id="axes_1">
   <g id="patch_2">
    <path d="M 57.6 307.584 
L 414.72 307.584 
L 414.72 41.472 
L 57.6 41.472 
z
" style="fill:#ffffff;"/>
   </g>
   <g id="patch_3">
    <path clip-path="url(#pf5186e6c24)" d="M 73.832727 307.584 
L 73.832727 41.472 
L 236.16 41.472 
L 236.16 307.584 
z
" style="fill:#add8e6;opacity:0.2;"/>
   </g>
   <g id="patch_4">
    <path clip-path="url(#pf5186e6c24)" d="M 236.16 307.584 
L 236.16 41.472 
L 398.487273 41.472 
L 398.487273 307.584 
z
" style="fill:#ff7f50;opacity:0.2;"/>
   </g>
   <g id="matplotlib.axis_1">
    <g id="xtick_1">
     <g id="line2d_1">
      <defs>
       <path d="M 0 0 
L 0 3.5 
" id="m8a970d5346" style="stroke:#000000;stroke-width:0.8;"/>
      </defs>
      <g>
       <use style="stroke:#000000;stroke-width:0.8;" x="73.832727" xlink:href="#m8a970d5346" y="307.584"/>
      </g>
     </g>
     <g id="text_1">
      <!-- 0 -->
      <g transform="translate(70.651477 322.182437)scale(0.1 -0.1)">
       <defs>
        <path d="M 2034 4250 
Q 1547 4250 1301 3770 
Q 1056 3291 1056 2328 
Q 1056 1369 1301 889 
Q 1547 409 2034 409 
Q 2525 409 2770 889 
Q 3016 1369 3016 2328 
Q 3016 3291 2770 3770 
Q 2525 4250 2034 4250 
z
M 2034 4750 
Q 2819 4750 3233 4129 
Q 3647 3509 3647 2328 
Q 3647 1150 3233 529 
Q 2819 -91 2034 -91 
Q 1250 -91 836 529 
Q 422 1150 422 2328 
Q 422 3509 836 4129 
Q 1250 4750 2034 4750 
z
" id="DejaVuSans-30" transform="scale(0.015625)"/>
       </defs>
       <use xlink:href="#DejaVuSans-30"/>
      </g>
     </g>
    </g>
    <g id="xtick_2">
     <g id="line2d_2">
      <g>
       <use style="stroke:#000000;stroke-width:0.8;" x="114.414545" xlink:href="#m8a970d5346" y="307.584"/>
      </g>
     </g>
     <g id="text_2">
      <!-- 5 -->
      <g transform="translate(111.233295 322.182437)scale(0.1 -0.1)">
       <defs>
        <path d="M 691 4666 
L 3169 4666 
L 3169 4134 
L 1269 4134 
L 1269 2991 
Q 1406 3038 1543 3061 
Q 1681 3084 1819 3084 
Q 2600 3084 3056 2656 
Q 3513 2228 3513 1497 
Q 3513 744 3044 326 
Q 2575 -91 1722 -91 
Q 1428 -91 1123 -41 
Q 819 9 494 109 
L 494 744 
Q 775 591 1075 516 
Q 1375 441 1709 441 
Q 2250 441 2565 725 
Q 2881 1009 2881 1497 
Q 2881 1984 2565 2268 
Q 2250 2553 1709 2553 
Q 1456 2553 1204 2497 
Q 953 2441 691 2322 
L 691 4666 
z
" id="DejaVuSans-35" transform="scale(0.015625)"/>
       </defs>
       <use xlink:href="#DejaVuSans-35"/>
      </g>
     </g>
    </g>
    <g id="xtick_3">
     <g id="line2d_3">
      <g>
       <use style="stroke:#000000;stroke-width:0.8;" x="154.996364" xlink:href="#m8a970d5346" y="307.584"/>
      </g>
     </g>
     <g id="text_3">
      <!-- 10 -->
      <g transform="translate(148.633864 322.182437)scale(0.1 -0.1)">
       <defs>
        <path d="M 794 531 
L 1825 531 
L 1825 4091 
L 703 3866 
L 703 4441 
L 1819 4666 
L 2450 4666 
L 2450 531 
L 3481 531 
L 3481 0 
L 794 0 
L 794 531 
z
" id="DejaVuSans-31" transform="scale(0.015625)"/>
       </defs>
       <use xlink:href="#DejaVuSans-31"/>
       <use x="63.623047" xlink:href="#DejaVuSans-30"/>
      </g>
     </g>
    </g>
    <g id="xtick_4">
     <g id="line2d_4">
      <g>
       <use style="stroke:#000000;stroke-width:0.8;" x="195.578182" xlink:href="#m8a970d5346" y="307.584"/>
      </g>
     </g>
     <g id="text_4">
      <!-- 15 -->
      <g transform="translate(189.215682 322.182437)scale(0.1 -0.1)">
       <use xlink:href="#DejaVuSans-31"/>
       <use x="63.623047" xlink:href="#DejaVuSans-35"/>
      </g>
     </g>
    </g>
    <g id="xtick_5">
     <g id="line2d_5">
      <g>
       <use style="stroke:#000000;stroke-width:0.8;" x="236.16" xlink:href="#m8a970d5346" y="307.584"/>
      </g>
     </g>
     <g id="text_5">
      <!-- 20 -->
      <g transform="translate(229.7975 322.182437)scale(0.1 -0.1)">
       <defs>
        <path d="M 1228 531 
L 3431 531 
L 3431 0 
L 469 0 
L 469 531 
Q 828 903 1448 1529 
Q 2069 2156 2228 2338 
Q 2531 2678 2651 2914 
Q 2772 3150 2772 3378 
Q 2772 3750 2511 3984 
Q 2250 4219 1831 4219 
Q 1534 4219 1204 4116 
Q 875 4013 500 3803 
L 500 4441 
Q 881 4594 1212 4672 
Q 1544 4750 1819 4750 
Q 2544 4750 2975 4387 
Q 3406 4025 3406 3419 
Q 3406 3131 3298 2873 
Q 3191 2616 2906 2266 
Q 2828 2175 2409 1742 
Q 1991 1309 1228 531 
z
" id="DejaVuSans-32" transform="scale(0.015625)"/>
       </defs>
       <use xlink:href="#DejaVuSans-32"/>
       <use x="63.623047" xlink:href="#DejaVuSans-30"/>
      </g>
     </g>
    </g>
    <g id="xtick_6">
     <g id="line2d_6">
      <g>
       <use style="stroke:#000000;stroke-width:0.8;" x="276.741818" xlink:href="#m8a970d5346" y="307.584"/>
      </g>
     </g>
     <g id="text_6">
      <!-- 25 -->
      <g transform="translate(270.379318 322.182437)scale(0.1 -0.1)">
       <use xlink:href="#DejaVuSans-32"/>
       <use x="63.623047" xlink:href="#DejaVuSans-35"/>
      </g>
     </g>
    </g>
    <g id="xtick_7">
     <g id="line2d_7">
      <g>
       <use style="stroke:#000000;stroke-width:0.8;" x="317.323636" xlink:href="#m8a970d5346" y="307.584"/>
      </g>
     </g>
     <g id="text_7">
      <!-- 30 -->
      <g transform="translate(310.961136 322.182437)scale(0.1 -0.1)">
       <defs>
        <path d="M 2597 2516 
Q 3050 2419 3304 2112 
Q 3559 1806 3559 1356 
Q 3559 666 3084 287 
Q 2609 -91 1734 -91 
Q 1441 -91 1130 -33 
Q 819 25 488 141 
L 488 750 
Q 750 597 1062 519 
Q 1375 441 1716 441 
Q 2309 441 2620 675 
Q 2931 909 2931 1356 
Q 2931 1769 2642 2001 
Q 2353 2234 1838 2234 
L 1294 2234 
L 1294 2753 
L 1863 2753 
Q 2328 2753 2575 2939 
Q 2822 3125 2822 3475 
Q 2822 3834 2567 4026 
Q 2313 4219 1838 4219 
Q 1578 4219 1281 4162 
Q 984 4106 628 3988 
L 628 4550 
Q 988 4650 1302 4700 
Q 1616 4750 1894 4750 
Q 2613 4750 3031 4423 
Q 3450 4097 3450 3541 
Q 3450 3153 3228 2886 
Q 3006 2619 2597 2516 
z
" id="DejaVuSans-33" transform="scale(0.015625)"/>
       </defs>
       <use xlink:href="#DejaVuSans-33"/>
       <use x="63.623047" xlink:href="#DejaVuSans-30"/>
      </g>
     </g>
    </g>
    <g id="xtick_8">
     <g id="line2d_8">
      <g>
       <use style="stroke:#000000;stroke-width:0.8;" x="357.905455" xlink:href="#m8a970d5346" y="307.584"/>
      </g>
     </g>
     <g id="text_8">
      <!-- 35 -->
      <g transform="translate(351.542955 322.182437)scale(0.1 -0.1)">
       <use xlink:href="#DejaVuSans-33"/>
       <use x="63.623047" xlink:href="#DejaVuSans-35"/>
      </g>
     </g>
    </g>
    <g id="xtick_9">
     <g id="line2d_9">
      <g>
       <use style="stroke:#000000;stroke-width:0.8;" x="398.487273" xlink:href="#m8a970d5346" y="307.584"/>
      </g>
     </g>
     <g id="text_9">
      <!-- 40 -->
      <g transform="translate(392.124773 322.182437)scale(0.1 -0.1)">
       <defs>
        <path d="M 2419 4116 
L 825 1625 
L 2419 1625 
L 2419 4116 
z
M 2253 4666 
L 3047 4666 
L 3047 1625 
L 3713 1625 
L 3713 1100 
L 3047 1100 
L 3047 0 
L 2419 0 
L 2419 1100 
L 313 1100 
L 313 1709 
L 2253 4666 
z
" id="DejaVuSans-34" transform="scale(0.015625)"/>
       </defs>
       <use xlink:href="#DejaVuSans-34"/>
       <use x="63.623047" xlink:href="#DejaVuSans-30"/>
      </g>
     </g>
    </g>
    <g id="text_10">
     <!-- t -->
     <g transform="translate(234.199844 335.860562)scale(0.1 -0.1)">
      <defs>
       <path d="M 1172 4494 
L 1172 3500 
L 2356 3500 
L 2356 3053 
L 1172 3053 
L 1172 1153 
Q 1172 725 1289 603 
Q 1406 481 1766 481 
L 2356 481 
L 2356 0 
L 1766 0 
Q 1100 0 847 248 
Q 594 497 594 1153 
L 594 3053 
L 172 3053 
L 172 3500 
L 594 3500 
L 594 4494 
L 1172 4494 
z
" id="DejaVuSans-74" transform="scale(0.015625)"/>
      </defs>
      <use xlink:href="#DejaVuSans-74"/>
     </g>
    </g>
   </g>
   <g id="matplotlib.axis_2">
    <g id="ytick_1">
     <g id="line2d_10">
      <defs>
       <path d="M 0 0 
L -3.5 0 
" id="meace3667d9" style="stroke:#000000;stroke-width:0.8;"/>
      </defs>
      <g>
       <use style="stroke:#000000;stroke-width:0.8;" x="57.6" xlink:href="#meace3667d9" y="307.584"/>
      </g>
     </g>
     <g id="text_11">
      <!-- 0.0 -->
      <g transform="translate(34.696875 311.383219)scale(0.1 -0.1)">
       <defs>
        <path d="M 684 794 
L 1344 794 
L 1344 0 
L 684 0 
L 684 794 
z
" id="DejaVuSans-2e" transform="scale(0.015625)"/>
       </defs>
       <use xlink:href="#DejaVuSans-30"/>
       <use x="63.623047" xlink:href="#DejaVuSans-2e"/>
       <use x="95.410156" xlink:href="#DejaVuSans-30"/>
      </g>
     </g>
    </g>
    <g id="ytick_2">
     <g id="line2d_11">
      <g>
       <use style="stroke:#000000;stroke-width:0.8;" x="57.6" xlink:href="#meace3667d9" y="254.3616"/>
      </g>
     </g>
     <g id="text_12">
      <!-- 0.2 -->
      <g transform="translate(34.696875 258.160819)scale(0.1 -0.1)">
       <use xlink:href="#DejaVuSans-30"/>
       <use x="63.623047" xlink:href="#DejaVuSans-2e"/>
       <use x="95.410156" xlink:href="#DejaVuSans-32"/>
      </g>
     </g>
    </g>
    <g id="ytick_3">
     <g id="line2d_12">
      <g>
       <use style="stroke:#000000;stroke-width:0.8;" x="57.6" xlink:href="#meace3667d9" y="201.1392"/>
      </g>
     </g>
     <g id="text_13">
      <!-- 0.4 -->
      <g transform="translate(34.696875 204.938419)scale(0.1 -0.1)">
       <use xlink:href="#DejaVuSans-30"/>
       <use x="63.623047" xlink:href="#DejaVuSans-2e"/>
       <use x="95.410156" xlink:href="#DejaVuSans-34"/>
      </g>
     </g>
    </g>
    <g id="ytick_4">
     <g id="line2d_13">
      <g>
       <use style="stroke:#000000;stroke-width:0.8;" x="57.6" xlink:href="#meace3667d9" y="147.9168"/>
      </g>
     </g>
     <g id="text_14">
      <!-- 0.6 -->
      <g transform="translate(34.696875 151.716019)scale(0.1 -0.1)">
       <defs>
        <path d="M 2113 2584 
Q 1688 2584 1439 2293 
Q 1191 2003 1191 1497 
Q 1191 994 1439 701 
Q 1688 409 2113 409 
Q 2538 409 2786 701 
Q 3034 994 3034 1497 
Q 3034 2003 2786 2293 
Q 2538 2584 2113 2584 
z
M 3366 4563 
L 3366 3988 
Q 3128 4100 2886 4159 
Q 2644 4219 2406 4219 
Q 1781 4219 1451 3797 
Q 1122 3375 1075 2522 
Q 1259 2794 1537 2939 
Q 1816 3084 2150 3084 
Q 2853 3084 3261 2657 
Q 3669 2231 3669 1497 
Q 3669 778 3244 343 
Q 2819 -91 2113 -91 
Q 1303 -91 875 529 
Q 447 1150 447 2328 
Q 447 3434 972 4092 
Q 1497 4750 2381 4750 
Q 2619 4750 2861 4703 
Q 3103 4656 3366 4563 
z
" id="DejaVuSans-36" transform="scale(0.015625)"/>
       </defs>
       <use xlink:href="#DejaVuSans-30"/>
       <use x="63.623047" xlink:href="#DejaVuSans-2e"/>
       <use x="95.410156" xlink:href="#DejaVuSans-36"/>
      </g>
     </g>
    </g>
    <g id="ytick_5">
     <g id="line2d_14">
      <g>
       <use style="stroke:#000000;stroke-width:0.8;" x="57.6" xlink:href="#meace3667d9" y="94.6944"/>
      </g>
     </g>
     <g id="text_15">
      <!-- 0.8 -->
      <g transform="translate(34.696875 98.493619)scale(0.1 -0.1)">
       <defs>
        <path d="M 2034 2216 
Q 1584 2216 1326 1975 
Q 1069 1734 1069 1313 
Q 1069 891 1326 650 
Q 1584 409 2034 409 
Q 2484 409 2743 651 
Q 3003 894 3003 1313 
Q 3003 1734 2745 1975 
Q 2488 2216 2034 2216 
z
M 1403 2484 
Q 997 2584 770 2862 
Q 544 3141 544 3541 
Q 544 4100 942 4425 
Q 1341 4750 2034 4750 
Q 2731 4750 3128 4425 
Q 3525 4100 3525 3541 
Q 3525 3141 3298 2862 
Q 3072 2584 2669 2484 
Q 3125 2378 3379 2068 
Q 3634 1759 3634 1313 
Q 3634 634 3220 271 
Q 2806 -91 2034 -91 
Q 1263 -91 848 271 
Q 434 634 434 1313 
Q 434 1759 690 2068 
Q 947 2378 1403 2484 
z
M 1172 3481 
Q 1172 3119 1398 2916 
Q 1625 2713 2034 2713 
Q 2441 2713 2670 2916 
Q 2900 3119 2900 3481 
Q 2900 3844 2670 4047 
Q 2441 4250 2034 4250 
Q 1625 4250 1398 4047 
Q 1172 3844 1172 3481 
z
" id="DejaVuSans-38" transform="scale(0.015625)"/>
       </defs>
       <use xlink:href="#DejaVuSans-30"/>
       <use x="63.623047" xlink:href="#DejaVuSans-2e"/>
       <use x="95.410156" xlink:href="#DejaVuSans-38"/>
      </g>
     </g>
    </g>
    <g id="ytick_6">
     <g id="line2d_15">
      <g>
       <use style="stroke:#000000;stroke-width:0.8;" x="57.6" xlink:href="#meace3667d9" y="41.472"/>
      </g>
     </g>
     <g id="text_16">
      <!-- 1.0 -->
      <g transform="translate(34.696875 45.271219)scale(0.1 -0.1)">
       <use xlink:href="#DejaVuSans-31"/>
       <use x="63.623047" xlink:href="#DejaVuSans-2e"/>
       <use x="95.410156" xlink:href="#DejaVuSans-30"/>
      </g>
     </g>
    </g>
    <g id="text_17">
     <!-- p(context) -->
     <g transform="translate(28.617187 200.449875)rotate(-90)scale(0.1 -0.1)">
      <defs>
       <path d="M 1159 525 
L 1159 -1331 
L 581 -1331 
L 581 3500 
L 1159 3500 
L 1159 2969 
Q 1341 3281 1617 3432 
Q 1894 3584 2278 3584 
Q 2916 3584 3314 3078 
Q 3713 2572 3713 1747 
Q 3713 922 3314 415 
Q 2916 -91 2278 -91 
Q 1894 -91 1617 61 
Q 1341 213 1159 525 
z
M 3116 1747 
Q 3116 2381 2855 2742 
Q 2594 3103 2138 3103 
Q 1681 3103 1420 2742 
Q 1159 2381 1159 1747 
Q 1159 1113 1420 752 
Q 1681 391 2138 391 
Q 2594 391 2855 752 
Q 3116 1113 3116 1747 
z
" id="DejaVuSans-70" transform="scale(0.015625)"/>
       <path d="M 1984 4856 
Q 1566 4138 1362 3434 
Q 1159 2731 1159 2009 
Q 1159 1288 1364 580 
Q 1569 -128 1984 -844 
L 1484 -844 
Q 1016 -109 783 600 
Q 550 1309 550 2009 
Q 550 2706 781 3412 
Q 1013 4119 1484 4856 
L 1984 4856 
z
" id="DejaVuSans-28" transform="scale(0.015625)"/>
       <path d="M 3122 3366 
L 3122 2828 
Q 2878 2963 2633 3030 
Q 2388 3097 2138 3097 
Q 1578 3097 1268 2742 
Q 959 2388 959 1747 
Q 959 1106 1268 751 
Q 1578 397 2138 397 
Q 2388 397 2633 464 
Q 2878 531 3122 666 
L 3122 134 
Q 2881 22 2623 -34 
Q 2366 -91 2075 -91 
Q 1284 -91 818 406 
Q 353 903 353 1747 
Q 353 2603 823 3093 
Q 1294 3584 2113 3584 
Q 2378 3584 2631 3529 
Q 2884 3475 3122 3366 
z
" id="DejaVuSans-63" transform="scale(0.015625)"/>
       <path d="M 1959 3097 
Q 1497 3097 1228 2736 
Q 959 2375 959 1747 
Q 959 1119 1226 758 
Q 1494 397 1959 397 
Q 2419 397 2687 759 
Q 2956 1122 2956 1747 
Q 2956 2369 2687 2733 
Q 2419 3097 1959 3097 
z
M 1959 3584 
Q 2709 3584 3137 3096 
Q 3566 2609 3566 1747 
Q 3566 888 3137 398 
Q 2709 -91 1959 -91 
Q 1206 -91 779 398 
Q 353 888 353 1747 
Q 353 2609 779 3096 
Q 1206 3584 1959 3584 
z
" id="DejaVuSans-6f" transform="scale(0.015625)"/>
       <path d="M 3513 2113 
L 3513 0 
L 2938 0 
L 2938 2094 
Q 2938 2591 2744 2837 
Q 2550 3084 2163 3084 
Q 1697 3084 1428 2787 
Q 1159 2491 1159 1978 
L 1159 0 
L 581 0 
L 581 3500 
L 1159 3500 
L 1159 2956 
Q 1366 3272 1645 3428 
Q 1925 3584 2291 3584 
Q 2894 3584 3203 3211 
Q 3513 2838 3513 2113 
z
" id="DejaVuSans-6e" transform="scale(0.015625)"/>
       <path d="M 3597 1894 
L 3597 1613 
L 953 1613 
Q 991 1019 1311 708 
Q 1631 397 2203 397 
Q 2534 397 2845 478 
Q 3156 559 3463 722 
L 3463 178 
Q 3153 47 2828 -22 
Q 2503 -91 2169 -91 
Q 1331 -91 842 396 
Q 353 884 353 1716 
Q 353 2575 817 3079 
Q 1281 3584 2069 3584 
Q 2775 3584 3186 3129 
Q 3597 2675 3597 1894 
z
M 3022 2063 
Q 3016 2534 2758 2815 
Q 2500 3097 2075 3097 
Q 1594 3097 1305 2825 
Q 1016 2553 972 2059 
L 3022 2063 
z
" id="DejaVuSans-65" transform="scale(0.015625)"/>
       <path d="M 3513 3500 
L 2247 1797 
L 3578 0 
L 2900 0 
L 1881 1375 
L 863 0 
L 184 0 
L 1544 1831 
L 300 3500 
L 978 3500 
L 1906 2253 
L 2834 3500 
L 3513 3500 
z
" id="DejaVuSans-78" transform="scale(0.015625)"/>
       <path d="M 513 4856 
L 1013 4856 
Q 1481 4119 1714 3412 
Q 1947 2706 1947 2009 
Q 1947 1309 1714 600 
Q 1481 -109 1013 -844 
L 513 -844 
Q 928 -128 1133 580 
Q 1338 1288 1338 2009 
Q 1338 2731 1133 3434 
Q 928 4138 513 4856 
z
" id="DejaVuSans-29" transform="scale(0.015625)"/>
      </defs>
      <use xlink:href="#DejaVuSans-70"/>
      <use x="63.476562" xlink:href="#DejaVuSans-28"/>
      <use x="102.490234" xlink:href="#DejaVuSans-63"/>
      <use x="157.470703" xlink:href="#DejaVuSans-6f"/>
      <use x="218.652344" xlink:href="#DejaVuSans-6e"/>
      <use x="282.03125" xlink:href="#DejaVuSans-74"/>
      <use x="321.240234" xlink:href="#DejaVuSans-65"/>
      <use x="381.013672" xlink:href="#DejaVuSans-78"/>
      <use x="440.193359" xlink:href="#DejaVuSans-74"/>
      <use x="479.402344" xlink:href="#DejaVuSans-29"/>
     </g>
    </g>
   </g>
   <g id="line2d_16">
    <path clip-path="url(#pf5186e6c24)" d="M 73.832727 280.9728 
L 81.949091 126.308253 
L 90.065455 269.26844 
L 98.181818 132.253457 
L 106.298182 90.19664 
L 114.414545 77.279412 
L 122.530909 70.717014 
L 130.647273 225.484304 
L 138.763636 276.820356 
L 146.88 134.778871 
L 154.996364 244.335714 
L 163.112727 127.758744 
L 171.229091 93.393005 
L 179.345455 84.415362 
L 187.461818 80.398861 
L 195.578182 77.537027 
L 203.694545 75.150121 
L 211.810909 73.081596 
L 219.927273 71.266866 
L 228.043636 69.663296 
L 236.16 108.582718 
L 244.276364 246.701975 
L 252.392727 281.40638 
L 260.509091 289.903483 
L 268.625455 293.29699 
L 276.741818 295.469617 
L 284.858182 297.117268 
L 292.974545 146.656844 
L 301.090909 262.871886 
L 309.207273 289.711092 
L 317.323636 295.124917 
L 325.44 296.835506 
L 333.556364 297.86941 
L 341.672727 156.055428 
L 349.789091 265.189589 
L 357.905455 136.444618 
L 366.021818 253.894575 
L 374.138182 285.171271 
L 382.254545 292.060122 
L 390.370909 162.237299 
" style="fill:none;stroke:#add8e6;stroke-linecap:square;stroke-opacity:0.3;stroke-width:1.5;"/>
   </g>
   <g id="line2d_17">
    <path clip-path="url(#pf5186e6c24)" d="M 73.832727 280.9728 
L 81.949091 302.110972 
L 90.065455 183.566495 
L 98.181818 110.419377 
L 106.298182 84.068359 
L 114.414545 72.431373 
L 122.530909 66.032498 
L 130.647273 61.964113 
L 138.763636 59.1332 
L 146.88 57.043122 
L 154.996364 55.433909 
L 163.112727 54.155295 
L 171.229091 53.114025 
L 179.345455 52.249038 
L 187.461818 51.518629 
L 195.578182 233.558543 
L 203.694545 92.208096 
L 211.810909 249.434939 
L 219.927273 108.429736 
L 228.043636 66.763336 
L 236.16 90.386938 
L 244.276364 62.952711 
L 252.392727 217.350831 
L 260.509091 279.412682 
L 268.625455 292.988865 
L 276.741818 143.816166 
L 284.858182 255.496365 
L 292.974545 286.497714 
L 301.090909 293.49727 
L 309.207273 296.020953 
L 317.323636 297.594265 
L 325.44 298.805293 
L 333.556364 299.788013 
L 341.672727 161.853613 
L 349.789091 268.260281 
L 357.905455 293.726112 
L 366.021818 161.508013 
L 374.138182 264.029315 
L 382.254545 290.750475 
L 390.370909 163.731908 
" style="fill:none;stroke:#add8e6;stroke-linecap:square;stroke-opacity:0.3;stroke-width:1.5;"/>
   </g>
   <g id="line2d_18">
    <path clip-path="url(#pf5186e6c24)" d="M 73.832727 280.9728 
L 81.949091 126.308253 
L 90.065455 78.169685 
L 98.181818 64.971791 
L 106.298182 59.316425 
L 114.414545 56.065514 
L 122.530909 53.906719 
L 130.647273 52.355079 
L 138.763636 51.18123 
L 146.88 50.259976 
L 154.996364 49.516494 
L 163.112727 48.903102 
L 171.229091 48.387897 
L 179.345455 47.948687 
L 187.461818 47.56954 
L 195.578182 47.238713 
L 203.694545 46.947356 
L 211.810909 46.688667 
L 219.927273 46.457331 
L 228.043636 46.249135 
L 236.16 57.982951 
L 244.276364 225.421612 
L 252.392727 74.42674 
L 260.509091 231.044773 
L 268.625455 293.176883 
L 276.741818 120.682159 
L 284.858182 256.623097 
L 292.974545 295.026799 
L 301.090909 301.085808 
L 309.207273 302.778386 
L 317.323636 303.715271 
L 325.44 304.364901 
L 333.556364 158.21982 
L 341.672727 277.500582 
L 349.789091 300.950279 
L 357.905455 303.755683 
L 366.021818 304.367774 
L 374.138182 304.717934 
L 382.254545 304.995301 
L 390.370909 167.776668 
" style="fill:none;stroke:#add8e6;stroke-linecap:square;stroke-opacity:0.3;stroke-width:1.5;"/>
   </g>
   <g id="line2d_19">
    <path clip-path="url(#pf5186e6c24)" d="M 73.832727 280.9728 
L 81.949091 126.308253 
L 90.065455 78.169685 
L 98.181818 64.971791 
L 106.298182 59.316425 
L 114.414545 214.343366 
L 122.530909 89.118935 
L 130.647273 65.499744 
L 138.763636 60.820873 
L 146.88 58.685543 
L 154.996364 57.130385 
L 163.112727 55.870434 
L 171.229091 54.819695 
L 179.345455 203.497486 
L 187.461818 80.827586 
L 195.578182 60.09278 
L 203.694545 57.032704 
L 211.810909 56.028319 
L 219.927273 55.312872 
L 228.043636 54.691235 
L 236.16 77.21239 
L 244.276364 234.162046 
L 252.392727 287.349104 
L 260.509091 297.940764 
L 268.625455 301.074068 
L 276.741818 302.666442 
L 284.858182 303.676215 
L 292.974545 304.372755 
L 301.090909 304.877539 
L 309.207273 305.257051 
L 317.323636 154.828943 
L 325.44 280.203979 
L 333.556364 302.227094 
L 341.672727 304.598316 
L 349.789091 162.434765 
L 357.905455 279.462844 
L 366.021818 301.309398 
L 374.138182 303.97163 
L 382.254545 304.475778 
L 390.370909 168.479994 
" style="fill:none;stroke:#add8e6;stroke-linecap:square;stroke-opacity:0.3;stroke-width:1.5;"/>
   </g>
   <g id="line2d_20">
    <path clip-path="url(#pf5186e6c24)" d="M 73.832727 280.9728 
L 81.949091 302.110972 
L 90.065455 183.566495 
L 98.181818 110.419377 
L 106.298182 269.485129 
L 114.414545 151.888744 
L 122.530909 107.116844 
L 130.647273 254.526033 
L 138.763636 148.333949 
L 146.88 112.771395 
L 154.996364 244.293109 
L 163.112727 148.787309 
L 171.229091 245.957511 
L 179.345455 267.953209 
L 187.461818 167.189147 
L 195.578182 134.593606 
L 203.694545 124.458973 
L 211.810909 233.916719 
L 219.927273 155.970201 
L 228.043636 134.624109 
L 236.16 173.403622 
L 244.276364 244.669653 
L 252.392727 258.7964 
L 260.509091 164.479805 
L 268.625455 238.997792 
L 276.741818 253.651819 
L 284.858182 257.822739 
L 292.974545 260.082338 
L 301.090909 261.925121 
L 309.207273 263.609874 
L 317.323636 169.994959 
L 325.44 243.016505 
L 333.556364 256.968527 
L 341.672727 260.424117 
L 349.789091 173.13374 
L 357.905455 241.758374 
L 366.021818 254.74377 
L 374.138182 175.437455 
L 382.254545 239.567689 
L 390.370909 251.594828 
" style="fill:none;stroke:#add8e6;stroke-linecap:square;stroke-opacity:0.3;stroke-width:1.5;"/>
   </g>
   <g id="line2d_21">
    <path clip-path="url(#pf5186e6c24)" d="M 73.832727 280.9728 
L 81.949091 126.308253 
L 90.065455 78.169685 
L 98.181818 64.971791 
L 106.298182 59.316425 
L 114.414545 56.065514 
L 122.530909 53.906719 
L 130.647273 52.355079 
L 138.763636 51.18123 
L 146.88 50.259976 
L 154.996364 205.234585 
L 163.112727 75.512737 
L 171.229091 55.224816 
L 179.345455 52.510462 
L 187.461818 196.55727 
L 195.578182 77.194822 
L 203.694545 208.623232 
L 211.810909 85.47609 
L 219.927273 61.309281 
L 228.043636 57.575568 
L 236.16 81.421509 
L 244.276364 218.054734 
L 252.392727 273.89571 
L 260.509091 288.997935 
L 268.625455 294.413664 
L 276.741818 297.360758 
L 284.858182 299.31132 
L 292.974545 142.496808 
L 301.090909 257.799221 
L 309.207273 117.926702 
L 317.323636 239.813936 
L 325.44 283.195795 
L 333.556364 293.121645 
L 341.672727 150.724963 
L 349.789091 82.257092 
L 357.905455 211.88701 
L 366.021818 270.500148 
L 374.138182 286.734763 
L 382.254545 291.143783 
L 390.370909 155.423659 
" style="fill:none;stroke:#add8e6;stroke-linecap:square;stroke-opacity:0.3;stroke-width:1.5;"/>
   </g>
   <g id="line2d_22">
    <path clip-path="url(#pf5186e6c24)" d="M 73.832727 280.9728 
L 81.949091 126.308253 
L 90.065455 78.169685 
L 98.181818 64.971791 
L 106.298182 222.639374 
L 114.414545 96.377272 
L 122.530909 70.436598 
L 130.647273 64.582833 
L 138.763636 61.725573 
L 146.88 59.665612 
L 154.996364 58.031815 
L 163.112727 56.694815 
L 171.229091 55.579511 
L 179.345455 54.634895 
L 187.461818 53.82453 
L 195.578182 53.121638 
L 203.694545 52.506098 
L 211.810909 51.962499 
L 219.927273 51.478843 
L 228.043636 213.427099 
L 236.16 148.126683 
L 244.276364 273.093571 
L 252.392727 296.738612 
L 260.509091 301.245391 
L 268.625455 302.994264 
L 276.741818 304.016214 
L 284.858182 304.697285 
L 292.974545 305.179774 
L 301.090909 305.536262 
L 309.207273 305.808441 
L 317.323636 306.021855 
L 325.44 306.192922 
L 333.556364 306.332613 
L 341.672727 306.448502 
L 349.789091 161.002759 
L 357.905455 65.139067 
L 366.021818 241.057973 
L 374.138182 92.827226 
L 382.254545 58.846846 
L 390.370909 224.050062 
" style="fill:none;stroke:#add8e6;stroke-linecap:square;stroke-opacity:0.3;stroke-width:1.5;"/>
   </g>
   <g id="line2d_23">
    <path clip-path="url(#pf5186e6c24)" d="M 73.832727 280.9728 
L 81.949091 302.110972 
L 90.065455 183.566495 
L 98.181818 110.419377 
L 106.298182 84.068359 
L 114.414545 254.204603 
L 122.530909 133.695657 
L 130.647273 93.456625 
L 138.763636 81.488709 
L 146.88 75.787911 
L 154.996364 71.917057 
L 163.112727 68.92523 
L 171.229091 66.507533 
L 179.345455 64.509371 
L 187.461818 62.831101 
L 195.578182 61.402619 
L 203.694545 60.172724 
L 211.810909 59.103135 
L 219.927273 58.164687 
L 228.043636 57.334797 
L 236.16 86.839193 
L 244.276364 266.192072 
L 252.392727 109.582981 
L 260.509091 262.479495 
L 268.625455 117.243707 
L 276.741818 254.721379 
L 284.858182 288.244179 
L 292.974545 295.117272 
L 301.090909 297.624551 
L 309.207273 299.212755 
L 317.323636 300.411096 
L 325.44 301.355024 
L 333.556364 160.887864 
L 341.672727 275.467515 
L 349.789091 142.932089 
L 357.905455 83.703717 
L 366.021818 69.241248 
L 374.138182 65.700623 
L 382.254545 227.78726 
L 390.370909 284.792226 
" style="fill:none;stroke:#add8e6;stroke-linecap:square;stroke-opacity:0.3;stroke-width:1.5;"/>
   </g>
   <g id="line2d_24">
    <path clip-path="url(#pf5186e6c24)" d="M 73.832727 280.9728 
L 81.949091 126.308253 
L 90.065455 78.169685 
L 98.181818 64.971791 
L 106.298182 59.316425 
L 114.414545 214.343366 
L 122.530909 280.442579 
L 130.647273 124.812998 
L 138.763636 245.229221 
L 146.88 116.294539 
L 154.996364 80.028122 
L 163.112727 71.777453 
L 171.229091 68.42152 
L 179.345455 66.116695 
L 187.461818 208.164984 
L 195.578182 98.891864 
L 203.694545 74.08745 
L 211.810909 68.890536 
L 219.927273 66.882444 
L 228.043636 65.472768 
L 236.16 99.509564 
L 244.276364 234.348761 
L 252.392727 276.121784 
L 260.509091 287.187075 
L 268.625455 291.514434 
L 276.741818 137.553466 
L 284.858182 248.868522 
L 292.974545 281.218463 
L 301.090909 289.233095 
L 309.207273 292.123774 
L 317.323636 293.889947 
L 325.44 295.268737 
L 333.556364 296.418933 
L 341.672727 297.396953 
L 349.789091 298.236507 
L 357.905455 298.962598 
L 366.021818 299.594841 
L 374.138182 300.148876 
L 382.254545 300.637277 
L 390.370909 301.070226 
" style="fill:none;stroke:#add8e6;stroke-linecap:square;stroke-opacity:0.3;stroke-width:1.5;"/>
   </g>
   <g id="line2d_25">
    <path clip-path="url(#pf5186e6c24)" d="M 73.832727 280.9728 
L 81.949091 302.110972 
L 90.065455 183.566495 
L 98.181818 110.419377 
L 106.298182 84.068359 
L 114.414545 254.204603 
L 122.530909 133.695657 
L 130.647273 93.456625 
L 138.763636 81.488709 
L 146.88 75.787911 
L 154.996364 233.762188 
L 163.112727 120.647271 
L 171.229091 88.375042 
L 179.345455 79.959553 
L 187.461818 76.395631 
L 195.578182 73.955318 
L 203.694545 71.941537 
L 211.810909 70.19642 
L 219.927273 68.661082 
L 228.043636 225.398402 
L 236.16 172.515074 
L 244.276364 261.472051 
L 252.392727 281.833072 
L 260.509091 287.868295 
L 268.625455 291.012371 
L 276.741818 293.278108 
L 284.858182 295.070885 
L 292.974545 296.527439 
L 301.090909 151.049175 
L 309.207273 262.963668 
L 317.323636 289.190366 
L 325.44 294.423538 
L 333.556364 296.063474 
L 341.672727 297.058295 
L 349.789091 297.864248 
L 357.905455 298.561825 
L 366.021818 299.175069 
L 374.138182 299.717853 
L 382.254545 300.200778 
L 390.370909 159.480502 
" style="fill:none;stroke:#add8e6;stroke-linecap:square;stroke-opacity:0.3;stroke-width:1.5;"/>
   </g>
   <g id="line2d_26">
    <path clip-path="url(#pf5186e6c24)" d="M 73.832727 280.9728 
L 81.949091 302.110972 
L 90.065455 183.566495 
L 98.181818 110.419377 
L 106.298182 84.068359 
L 114.414545 254.204603 
L 122.530909 133.695657 
L 130.647273 93.456625 
L 138.763636 81.488709 
L 146.88 75.787911 
L 154.996364 71.917057 
L 163.112727 68.92523 
L 171.229091 66.507533 
L 179.345455 64.509371 
L 187.461818 62.831101 
L 195.578182 61.402619 
L 203.694545 60.172724 
L 211.810909 59.103135 
L 219.927273 58.164687 
L 228.043636 57.334797 
L 236.16 86.839193 
L 244.276364 244.915881 
L 252.392727 288.927769 
L 260.509091 297.279502 
L 268.625455 299.899981 
L 276.741818 147.654845 
L 284.858182 268.699516 
L 292.974545 294.641186 
L 301.090909 299.164187 
L 309.207273 300.607166 
L 317.323636 159.983993 
L 325.44 271.555524 
L 333.556364 139.337692 
L 341.672727 258.991901 
L 349.789091 290.117974 
L 357.905455 296.222731 
L 366.021818 166.504274 
L 374.138182 265.019327 
L 382.254545 145.17233 
L 390.370909 252.763743 
" style="fill:none;stroke:#add8e6;stroke-linecap:square;stroke-opacity:0.3;stroke-width:1.5;"/>
   </g>
   <g id="line2d_27">
    <path clip-path="url(#pf5186e6c24)" d="M 73.832727 280.9728 
L 81.949091 126.308253 
L 90.065455 78.169685 
L 98.181818 64.971791 
L 106.298182 59.316425 
L 114.414545 56.065514 
L 122.530909 53.906719 
L 130.647273 52.355079 
L 138.763636 51.18123 
L 146.88 50.259976 
L 154.996364 49.516494 
L 163.112727 48.903102 
L 171.229091 206.553727 
L 179.345455 73.662703 
L 187.461818 53.484339 
L 195.578182 198.810541 
L 203.694545 76.845386 
L 211.810909 56.235799 
L 219.927273 53.41632 
L 228.043636 52.655003 
L 236.16 72.658837 
L 244.276364 227.987521 
L 252.392727 287.006461 
L 260.509091 298.322834 
L 268.625455 131.136915 
L 276.741818 258.050864 
L 284.858182 293.028233 
L 292.974545 299.280168 
L 301.090909 301.155382 
L 309.207273 302.2339 
L 317.323636 303.015806 
L 325.44 303.617631 
L 333.556364 304.093433 
L 341.672727 159.300743 
L 349.789091 275.692493 
L 357.905455 300.004777 
L 366.021818 303.176345 
L 374.138182 303.819503 
L 382.254545 304.155395 
L 390.370909 304.423113 
" style="fill:none;stroke:#add8e6;stroke-linecap:square;stroke-opacity:0.3;stroke-width:1.5;"/>
   </g>
   <g id="line2d_28">
    <path clip-path="url(#pf5186e6c24)" d="M 73.832727 280.9728 
L 81.949091 126.308253 
L 90.065455 269.26844 
L 98.181818 132.253457 
L 106.298182 90.19664 
L 114.414545 77.279412 
L 122.530909 70.717014 
L 130.647273 66.40282 
L 138.763636 222.036169 
L 146.88 276.925098 
L 154.996364 130.727162 
L 163.112727 83.133587 
L 171.229091 219.28927 
L 179.345455 111.864598 
L 187.461818 84.278722 
L 195.578182 77.609493 
L 203.694545 207.838967 
L 211.810909 109.853626 
L 219.927273 213.938598 
L 228.043636 250.201646 
L 236.16 193.578948 
L 244.276364 243.448294 
L 252.392727 258.665282 
L 260.509091 264.704913 
L 268.625455 268.34833 
L 276.741818 271.229159 
L 284.858182 273.734813 
L 292.974545 275.970425 
L 301.090909 277.978334 
L 309.207273 150.824253 
L 317.323636 239.053204 
L 325.44 138.781208 
L 333.556364 106.95606 
L 341.672727 219.627114 
L 349.789091 254.708892 
L 357.905455 264.818005 
L 366.021818 268.336202 
L 374.138182 270.219086 
L 382.254545 271.658145 
L 390.370909 272.932048 
" style="fill:none;stroke:#add8e6;stroke-linecap:square;stroke-opacity:0.3;stroke-width:1.5;"/>
   </g>
   <g id="line2d_29">
    <path clip-path="url(#pf5186e6c24)" d="M 73.832727 280.9728 
L 81.949091 126.308253 
L 90.065455 78.169685 
L 98.181818 64.971791 
L 106.298182 59.316425 
L 114.414545 56.065514 
L 122.530909 53.906719 
L 130.647273 206.976868 
L 138.763636 81.055615 
L 146.88 218.262583 
L 154.996364 91.275046 
L 163.112727 65.496771 
L 171.229091 195.926506 
L 179.345455 89.536671 
L 187.461818 68.4137 
L 195.578182 64.383171 
L 203.694545 62.780124 
L 211.810909 61.606379 
L 219.927273 189.695515 
L 228.043636 251.806198 
L 236.16 180.119147 
L 244.276364 89.186901 
L 252.392727 199.660461 
L 260.509091 246.422943 
L 268.625455 263.180659 
L 276.741818 270.753547 
L 284.858182 275.600636 
L 292.974545 279.346321 
L 301.090909 282.428807 
L 309.207273 285.014535 
L 317.323636 137.224194 
L 325.44 233.913957 
L 333.556364 269.469316 
L 341.672727 279.731073 
L 349.789091 283.349082 
L 357.905455 285.353159 
L 366.021818 286.883122 
L 374.138182 288.196041 
L 382.254545 289.360193 
L 390.370909 290.402983 
" style="fill:none;stroke:#add8e6;stroke-linecap:square;stroke-opacity:0.3;stroke-width:1.5;"/>
   </g>
   <g id="line2d_30">
    <path clip-path="url(#pf5186e6c24)" d="M 73.832727 280.9728 
L 81.949091 126.308253 
L 90.065455 78.169685 
L 98.181818 64.971791 
L 106.298182 59.316425 
L 114.414545 56.065514 
L 122.530909 53.906719 
L 130.647273 206.976868 
L 138.763636 281.148343 
L 146.88 118.813189 
L 154.996364 68.090718 
L 163.112727 209.379858 
L 171.229091 93.855215 
L 179.345455 68.077034 
L 187.461818 63.073595 
L 195.578182 61.221909 
L 203.694545 59.939926 
L 211.810909 58.861799 
L 219.927273 57.918629 
L 228.043636 57.083832 
L 236.16 84.330665 
L 244.276364 59.714322 
L 252.392727 56.202558 
L 260.509091 206.502625 
L 268.625455 274.594295 
L 276.741818 291.39413 
L 284.858182 296.246005 
L 292.974545 298.648206 
L 301.090909 300.240622 
L 309.207273 301.399816 
L 317.323636 302.27767 
L 325.44 302.960361 
L 333.556364 149.756246 
L 341.672727 269.97351 
L 349.789091 122.68113 
L 357.905455 253.745885 
L 366.021818 292.246959 
L 374.138182 299.092655 
L 382.254545 158.044958 
L 390.370909 79.676292 
" style="fill:none;stroke:#add8e6;stroke-linecap:square;stroke-opacity:0.3;stroke-width:1.5;"/>
   </g>
   <g id="line2d_31">
    <path clip-path="url(#pf5186e6c24)" d="M 73.832727 280.9728 
L 81.949091 126.308253 
L 90.065455 78.169685 
L 98.181818 64.971791 
L 106.298182 222.639374 
L 114.414545 96.377272 
L 122.530909 70.436598 
L 130.647273 64.582833 
L 138.763636 61.725573 
L 146.88 59.665612 
L 154.996364 58.031815 
L 163.112727 205.890517 
L 171.229091 85.392113 
L 179.345455 213.091174 
L 187.461818 93.620859 
L 195.578182 69.082301 
L 203.694545 192.715572 
L 211.810909 92.147067 
L 219.927273 71.855508 
L 228.043636 67.950736 
L 236.16 97.750819 
L 244.276364 70.704907 
L 252.392727 66.114108 
L 260.509091 190.377599 
L 268.625455 245.176363 
L 276.741818 265.173421 
L 284.858182 274.107411 
L 292.974545 279.672416 
L 301.090909 283.800661 
L 309.207273 131.237577 
L 317.323636 230.494938 
L 325.44 268.0114 
L 333.556364 279.3393 
L 341.672727 136.36103 
L 349.789091 85.475125 
L 357.905455 75.056736 
L 366.021818 198.691392 
L 374.138182 253.357226 
L 382.254545 128.590942 
L 390.370909 219.508848 
" style="fill:none;stroke:#add8e6;stroke-linecap:square;stroke-opacity:0.3;stroke-width:1.5;"/>
   </g>
   <g id="line2d_32">
    <path clip-path="url(#pf5186e6c24)" d="M 73.832727 280.9728 
L 81.949091 126.308253 
L 90.065455 78.169685 
L 98.181818 64.971791 
L 106.298182 59.316425 
L 114.414545 56.065514 
L 122.530909 209.629368 
L 130.647273 84.36611 
L 138.763636 62.125032 
L 146.88 202.669223 
L 154.996364 87.493786 
L 163.112727 65.847829 
L 171.229091 194.714698 
L 179.345455 89.564314 
L 187.461818 69.214901 
L 195.578182 65.328343 
L 203.694545 63.730351 
L 211.810909 62.538665 
L 219.927273 189.122104 
L 228.043636 86.647378 
L 236.16 101.78346 
L 244.276364 214.34208 
L 252.392727 257.140895 
L 260.509091 272.370238 
L 268.625455 279.759142 
L 276.741818 284.588375 
L 284.858182 130.660143 
L 292.974545 232.077575 
L 301.090909 112.383504 
L 309.207273 216.988562 
L 317.323636 111.450734 
L 325.44 210.174184 
L 333.556364 250.158455 
L 341.672727 263.998873 
L 349.789091 269.621811 
L 357.905455 272.906298 
L 366.021818 275.428759 
L 374.138182 277.595754 
L 382.254545 141.451735 
L 390.370909 228.435122 
" style="fill:none;stroke:#add8e6;stroke-linecap:square;stroke-opacity:0.3;stroke-width:1.5;"/>
   </g>
   <g id="line2d_33">
    <path clip-path="url(#pf5186e6c24)" d="M 73.832727 280.9728 
L 81.949091 126.308253 
L 90.065455 78.169685 
L 98.181818 238.232133 
L 106.298182 286.454178 
L 114.414545 141.413896 
L 122.530909 89.830431 
L 130.647273 234.606282 
L 138.763636 121.862812 
L 146.88 91.018463 
L 154.996364 82.41781 
L 163.112727 78.022985 
L 171.229091 74.77517 
L 179.345455 217.040232 
L 187.461818 108.921502 
L 195.578182 83.463127 
L 203.694545 77.586624 
L 211.810909 75.029396 
L 219.927273 209.611332 
L 228.043636 257.56284 
L 236.16 194.600382 
L 244.276364 107.792493 
L 252.392727 216.166009 
L 260.509091 118.451677 
L 268.625455 213.070885 
L 276.741818 244.053344 
L 284.858182 254.63995 
L 292.974545 259.566117 
L 301.090909 262.925739 
L 309.207273 141.887318 
L 317.323636 222.709733 
L 325.44 248.309293 
L 333.556364 256.53135 
L 341.672727 260.091965 
L 349.789091 262.4181 
L 357.905455 264.35548 
L 366.021818 266.110183 
L 374.138182 146.76362 
L 382.254545 228.257111 
L 390.370909 253.03244 
" style="fill:none;stroke:#add8e6;stroke-linecap:square;stroke-opacity:0.3;stroke-width:1.5;"/>
   </g>
   <g id="line2d_34">
    <path clip-path="url(#pf5186e6c24)" d="M 73.832727 280.9728 
L 81.949091 126.308253 
L 90.065455 78.169685 
L 98.181818 64.971791 
L 106.298182 222.639374 
L 114.414545 96.377272 
L 122.530909 70.436598 
L 130.647273 64.582833 
L 138.763636 61.725573 
L 146.88 206.722257 
L 154.996364 90.106937 
L 163.112727 68.013975 
L 171.229091 199.412054 
L 179.345455 92.659178 
L 187.461818 71.633295 
L 195.578182 67.529012 
L 203.694545 65.805996 
L 211.810909 64.513823 
L 219.927273 63.392715 
L 228.043636 194.332157 
L 236.16 145.169337 
L 244.276364 237.494103 
L 252.392727 267.325079 
L 260.509091 278.175382 
L 268.625455 126.207418 
L 276.741818 227.117577 
L 284.858182 263.99094 
L 292.974545 275.809486 
L 301.090909 280.900958 
L 309.207273 284.155702 
L 317.323636 286.692069 
L 325.44 288.795377 
L 333.556364 143.251598 
L 341.672727 241.976234 
L 349.789091 275.523405 
L 357.905455 284.523949 
L 366.021818 287.533722 
L 374.138182 289.181248 
L 382.254545 290.445375 
L 390.370909 291.533878 
" style="fill:none;stroke:#add8e6;stroke-linecap:square;stroke-opacity:0.3;stroke-width:1.5;"/>
   </g>
   <g id="line2d_35">
    <path clip-path="url(#pf5186e6c24)" d="M 73.832727 280.9728 
L 81.949091 126.308253 
L 90.065455 78.169685 
L 98.181818 64.971791 
L 106.298182 222.639374 
L 114.414545 96.377272 
L 122.530909 230.032664 
L 130.647273 274.946253 
L 138.763636 132.261443 
L 146.88 87.472032 
L 154.996364 77.267435 
L 163.112727 73.134872 
L 171.229091 70.306514 
L 179.345455 68.01916 
L 187.461818 66.093264 
L 195.578182 64.446488 
L 203.694545 211.174295 
L 211.810909 268.806873 
L 219.927273 121.739329 
L 228.043636 230.853207 
L 236.16 182.000522 
L 244.276364 253.160781 
L 252.392727 273.234591 
L 260.509091 137.70131 
L 268.625455 232.131342 
L 276.741818 125.234072 
L 284.858182 220.863834 
L 292.974545 253.053302 
L 301.090909 263.596978 
L 309.207273 268.128169 
L 317.323636 271.028969 
L 325.44 273.384734 
L 333.556364 275.462187 
L 341.672727 277.33616 
L 349.789091 279.037128 
L 357.905455 280.584705 
L 366.021818 150.037056 
L 374.138182 240.112437 
L 382.254545 135.541941 
L 390.370909 101.183978 
" style="fill:none;stroke:#add8e6;stroke-linecap:square;stroke-opacity:0.3;stroke-width:1.5;"/>
   </g>
   <g id="line2d_36">
    <path clip-path="url(#pf5186e6c24)" d="M 73.832727 121.3056 
L 81.949091 277.918523 
L 90.065455 137.783737 
L 98.181818 271.497572 
L 106.298182 294.687298 
L 114.414545 299.908907 
L 122.530909 301.999569 
L 130.647273 188.343108 
L 138.763636 117.213269 
L 146.88 263.586141 
L 154.996364 157.666652 
L 163.112727 266.153922 
L 171.229091 288.138226 
L 179.345455 293.190969 
L 187.461818 295.118471 
L 195.578182 296.364411 
L 203.694545 297.358515 
L 211.810909 298.196127 
L 219.927273 298.91409 
L 228.043636 299.53542 
L 236.16 275.15595 
L 244.276364 161.783591 
L 252.392727 113.173121 
L 260.509091 99.023244 
L 268.625455 92.073298 
L 276.741818 87.015331 
L 284.858182 82.8857 
L 292.974545 248.744414 
L 301.090909 132.282512 
L 309.207273 93.745195 
L 317.323636 84.812595 
L 325.44 81.252514 
L 333.556364 78.749933 
L 341.672727 240.637332 
L 349.789091 125.460511 
L 357.905455 252.386309 
L 366.021818 138.86492 
L 374.138182 96.9979 
L 382.254545 87.024437 
L 390.370909 231.834321 
" style="fill:none;stroke:#ff0000;stroke-linecap:square;stroke-opacity:0.1;stroke-width:1.5;"/>
   </g>
   <g id="line2d_37">
    <path clip-path="url(#pf5186e6c24)" d="M 73.832727 121.3056 
L 81.949091 77.218338 
L 90.065455 226.053713 
L 98.181818 277.913259 
L 106.298182 292.823692 
L 114.414545 298.228665 
L 122.530909 300.801973 
L 130.647273 302.284859 
L 138.763636 303.245976 
L 146.88 303.917685 
L 154.996364 304.412331 
L 163.112727 304.790949 
L 171.229091 305.08956 
L 179.345455 305.330771 
L 187.461818 305.529467 
L 195.578182 185.041787 
L 203.694545 283.153517 
L 211.810909 151.886963 
L 219.927273 271.362999 
L 228.043636 297.139655 
L 236.16 281.383271 
L 244.276364 299.230647 
L 252.392727 185.507525 
L 260.509091 110.172492 
L 268.625455 90.173486 
L 276.741818 244.168275 
L 284.858182 135.762048 
L 292.974545 97.340326 
L 301.090909 86.802126 
L 309.207273 81.822465 
L 317.323636 78.19323 
L 325.44 75.18629 
L 333.556364 72.620116 
L 341.672727 230.828193 
L 349.789091 113.62784 
L 357.905455 80.770899 
L 366.021818 228.088635 
L 374.138182 117.882797 
L 382.254545 84.598538 
L 390.370909 224.142089 
" style="fill:none;stroke:#ff0000;stroke-linecap:square;stroke-opacity:0.1;stroke-width:1.5;"/>
   </g>
   <g id="line2d_38">
    <path clip-path="url(#pf5186e6c24)" d="M 73.832727 121.3056 
L 81.949091 277.918523 
L 90.065455 300.890407 
L 98.181818 304.59509 
L 106.298182 305.690089 
L 114.414545 306.201371 
L 122.530909 306.500048 
L 130.647273 306.695883 
L 138.763636 306.833769 
L 146.88 306.935795 
L 154.996364 307.014138 
L 163.112727 307.076058 
L 171.229091 307.126145 
L 179.345455 307.16744 
L 187.461818 307.202033 
L 195.578182 307.231407 
L 203.694545 307.256643 
L 211.810909 307.278543 
L 219.927273 307.29772 
L 228.043636 307.314643 
L 236.16 303.401893 
L 244.276364 195.103879 
L 252.392727 297.586571 
L 260.509091 176.574896 
L 268.625455 94.666688 
L 276.741818 270.526058 
L 284.858182 139.300396 
L 292.974545 88.529681 
L 301.090909 76.882853 
L 309.207273 71.571535 
L 317.323636 67.869474 
L 325.44 65.00824 
L 333.556364 241.02892 
L 341.672727 104.002573 
L 349.789091 70.536467 
L 357.905455 65.23808 
L 366.021818 63.239053 
L 374.138182 61.756744 
L 382.254545 60.49279 
L 390.370909 231.278442 
" style="fill:none;stroke:#ff0000;stroke-linecap:square;stroke-opacity:0.1;stroke-width:1.5;"/>
   </g>
   <g id="line2d_39">
    <path clip-path="url(#pf5186e6c24)" d="M 73.832727 121.3056 
L 81.949091 277.918523 
L 90.065455 300.890407 
L 98.181818 304.59509 
L 106.298182 305.690089 
L 114.414545 203.950551 
L 122.530909 294.072946 
L 130.647273 303.603161 
L 138.763636 304.960624 
L 146.88 305.418792 
L 154.996364 305.711762 
L 163.112727 305.934751 
L 171.229091 306.112262 
L 179.345455 212.184569 
L 187.461818 296.057122 
L 195.578182 304.393451 
L 203.694545 305.388028 
L 211.810909 305.629086 
L 219.927273 305.775277 
L 228.043636 305.896501 
L 236.16 294.771827 
L 244.276364 177.858534 
L 252.392727 104.548201 
L 260.509091 84.411279 
L 268.625455 75.596944 
L 276.741818 70.006946 
L 284.858182 66.001185 
L 292.974545 62.982178 
L 301.090909 60.630992 
L 309.207273 58.752527 
L 317.323636 249.098995 
L 325.44 101.018742 
L 333.556364 64.64798 
L 341.672727 59.707411 
L 349.789091 237.755479 
L 357.905455 100.151099 
L 366.021818 65.727148 
L 374.138182 60.716394 
L 382.254545 59.287693 
L 390.370909 229.49455 
" style="fill:none;stroke:#ff0000;stroke-linecap:square;stroke-opacity:0.1;stroke-width:1.5;"/>
   </g>
   <g id="line2d_40">
    <path clip-path="url(#pf5186e6c24)" d="M 73.832727 121.3056 
L 81.949091 77.218338 
L 90.065455 226.053713 
L 98.181818 277.913259 
L 106.298182 131.626468 
L 114.414545 245.671641 
L 122.530909 277.402146 
L 130.647273 146.467425 
L 138.763636 245.521706 
L 146.88 271.840609 
L 154.996364 155.456613 
L 163.112727 243.342723 
L 171.229091 150.925525 
L 179.345455 122.603292 
L 187.461818 227.428514 
L 195.578182 253.656858 
L 203.694545 261.193412 
L 211.810909 163.422466 
L 219.927273 235.112491 
L 228.043636 252.35833 
L 236.16 219.392943 
L 244.276364 152.410762 
L 252.392727 134.771389 
L 260.509091 226.643264 
L 268.625455 157.142507 
L 276.741818 139.542277 
L 284.858182 133.872458 
L 292.974545 130.45456 
L 301.090909 127.550358 
L 309.207273 124.858406 
L 317.323636 224.104059 
L 325.44 148.679072 
L 333.556364 132.090486 
L 341.672727 127.51034 
L 349.789091 221.507442 
L 357.905455 148.917373 
L 366.021818 133.68025 
L 374.138182 219.156086 
L 382.254545 150.873336 
L 390.370909 136.929327 
" style="fill:none;stroke:#ff0000;stroke-linecap:square;stroke-opacity:0.1;stroke-width:1.5;"/>
   </g>
   <g id="line2d_41">
    <path clip-path="url(#pf5186e6c24)" d="M 73.832727 121.3056 
L 81.949091 277.918523 
L 90.065455 300.890407 
L 98.181818 304.59509 
L 106.298182 305.690089 
L 114.414545 306.201371 
L 122.530909 306.500048 
L 130.647273 306.695883 
L 138.763636 306.833769 
L 146.88 306.935795 
L 154.996364 219.529675 
L 163.112727 298.75131 
L 171.229091 305.717689 
L 179.345455 306.430078 
L 187.461818 217.049273 
L 195.578182 297.573021 
L 203.694545 195.264866 
L 211.810909 292.999914 
L 219.927273 303.405421 
L 228.043636 304.754633 
L 236.16 291.251396 
L 244.276364 184.957731 
L 252.392727 118.162288 
L 260.509091 95.789799 
L 268.625455 85.236481 
L 276.741818 78.378333 
L 284.858182 73.351383 
L 292.974545 255.376358 
L 301.090909 128.789443 
L 309.207273 267.341659 
L 317.323636 148.787631 
L 325.44 94.923176 
L 333.556364 81.244245 
L 341.672727 242.27946 
L 349.789091 288.883469 
L 357.905455 177.8448 
L 366.021818 108.906059 
L 374.138182 88.573121 
L 382.254545 82.32859 
L 390.370909 236.261214 
" style="fill:none;stroke:#ff0000;stroke-linecap:square;stroke-opacity:0.1;stroke-width:1.5;"/>
   </g>
   <g id="line2d_42">
    <path clip-path="url(#pf5186e6c24)" d="M 73.832727 121.3056 
L 81.949091 277.918523 
L 90.065455 300.890407 
L 98.181818 304.59509 
L 106.298182 194.473103 
L 114.414545 291.177677 
L 122.530909 302.330635 
L 130.647273 304.132524 
L 138.763636 304.800492 
L 146.88 305.225242 
L 154.996364 305.539681 
L 163.112727 305.783719 
L 171.229091 305.978258 
L 179.345455 306.136566 
L 187.461818 306.267612 
L 195.578182 306.377682 
L 203.694545 306.4713 
L 211.810909 306.5518 
L 219.927273 306.621689 
L 228.043636 211.113274 
L 236.16 241.739097 
L 244.276364 125.486473 
L 252.392727 88.423289 
L 260.509091 76.853896 
L 268.625455 70.508794 
L 276.741818 66.14746 
L 284.858182 62.92586 
L 292.974545 60.452392 
L 301.090909 58.498365 
L 309.207273 56.918842 
L 317.323636 55.617531 
L 325.44 54.528109 
L 333.556364 53.603503 
L 341.672727 52.809444 
L 349.789091 247.645771 
L 357.905455 301.220771 
L 366.021818 155.475341 
L 374.138182 285.119079 
L 382.254545 303.964418 
L 390.370909 171.734192 
" style="fill:none;stroke:#ff0000;stroke-linecap:square;stroke-opacity:0.1;stroke-width:1.5;"/>
   </g>
   <g id="line2d_43">
    <path clip-path="url(#pf5186e6c24)" d="M 73.832727 121.3056 
L 81.949091 77.218338 
L 90.065455 226.053713 
L 98.181818 277.913259 
L 106.298182 292.823692 
L 114.414545 151.092276 
L 122.530909 258.461915 
L 130.647273 285.519298 
L 138.763636 292.534283 
L 146.88 295.407702 
L 154.996364 297.186795 
L 163.112727 298.494764 
L 171.229091 299.51566 
L 179.345455 300.335715 
L 187.461818 301.007622 
L 195.578182 301.567062 
L 203.694545 302.039285 
L 211.810909 302.442662 
L 219.927273 302.790845 
L 228.043636 303.094173 
L 236.16 285.692072 
L 244.276364 143.611834 
L 252.392727 269.36581 
L 260.509091 140.708961 
L 268.625455 263.053983 
L 276.741818 146.230952 
L 284.858182 101.520886 
L 292.974545 89.768437 
L 301.090909 84.008681 
L 309.207273 79.729309 
L 317.323636 76.209217 
L 325.44 73.24635 
L 333.556364 231.647915 
L 341.672727 110.434426 
L 349.789091 242.386098 
L 357.905455 285.085184 
L 366.021818 295.181803 
L 374.138182 297.514889 
L 382.254545 169.641375 
L 390.370909 96.980853 
" style="fill:none;stroke:#ff0000;stroke-linecap:square;stroke-opacity:0.1;stroke-width:1.5;"/>
   </g>
   <g id="line2d_44">
    <path clip-path="url(#pf5186e6c24)" d="M 73.832727 121.3056 
L 81.949091 277.918523 
L 90.065455 300.890407 
L 98.181818 304.59509 
L 106.298182 305.690089 
L 114.414545 203.950551 
L 122.530909 112.62842 
L 130.647273 272.121376 
L 138.763636 155.972455 
L 146.88 274.487224 
L 154.996364 295.390205 
L 163.112727 299.407142 
L 171.229091 300.745577 
L 179.345455 301.560315 
L 187.461818 197.764079 
L 195.578182 282.983288 
L 203.694545 297.237112 
L 211.810909 299.870634 
L 219.927273 300.713022 
L 228.043636 301.24023 
L 236.16 280.03896 
L 244.276364 170.169098 
L 252.392727 116.355422 
L 260.509091 99.600114 
L 268.625455 91.544752 
L 276.741818 254.459777 
L 284.858182 146.332679 
L 292.974545 104.551617 
L 301.090909 92.804508 
L 309.207273 87.639956 
L 317.323636 84.026764 
L 325.44 81.023772 
L 333.556364 78.420224 
L 341.672727 76.135349 
L 349.789091 74.117241 
L 357.905455 72.325318 
L 366.021818 70.726368 
L 374.138182 69.292908 
L 382.254545 68.002074 
L 390.370909 66.834763 
" style="fill:none;stroke:#ff0000;stroke-linecap:square;stroke-opacity:0.1;stroke-width:1.5;"/>
   </g>
   <g id="line2d_45">
    <path clip-path="url(#pf5186e6c24)" d="M 73.832727 121.3056 
L 81.949091 77.218338 
L 90.065455 226.053713 
L 98.181818 277.913259 
L 106.298182 292.823692 
L 114.414545 151.092276 
L 122.530909 258.461915 
L 130.647273 285.519298 
L 138.763636 292.534283 
L 146.88 295.407702 
L 154.996364 170.597738 
L 163.112727 264.841701 
L 171.229091 286.864048 
L 179.345455 292.094934 
L 187.461818 294.025632 
L 195.578182 295.232491 
L 203.694545 296.190723 
L 211.810909 297.0038 
L 219.927273 297.707656 
L 228.043636 180.488661 
L 236.16 216.410619 
L 244.276364 132.415618 
L 252.392727 105.372911 
L 260.509091 95.607911 
L 268.625455 89.638636 
L 276.741818 84.959068 
L 284.858182 81.053827 
L 292.974545 77.740013 
L 301.090909 241.133691 
L 309.207273 122.941527 
L 317.323636 87.681504 
L 325.44 79.73721 
L 333.556364 76.651209 
L 341.672727 74.499355 
L 349.789091 72.664611 
L 357.905455 71.033248 
L 366.021818 69.567925 
L 374.138182 68.245333 
L 382.254545 67.046889 
L 390.370909 236.668558 
" style="fill:none;stroke:#ff0000;stroke-linecap:square;stroke-opacity:0.1;stroke-width:1.5;"/>
   </g>
   <g id="line2d_46">
    <path clip-path="url(#pf5186e6c24)" d="M 73.832727 121.3056 
L 81.949091 77.218338 
L 90.065455 226.053713 
L 98.181818 277.913259 
L 106.298182 292.823692 
L 114.414545 151.092276 
L 122.530909 258.461915 
L 130.647273 285.519298 
L 138.763636 292.534283 
L 146.88 295.407702 
L 154.996364 297.186795 
L 163.112727 298.494764 
L 171.229091 299.51566 
L 179.345455 300.335715 
L 187.461818 301.007622 
L 195.578182 301.567062 
L 203.694545 302.039285 
L 211.810909 302.442662 
L 219.927273 302.790845 
L 228.043636 303.094173 
L 236.16 285.692072 
L 244.276364 159.632181 
L 252.392727 98.099726 
L 260.509091 83.013775 
L 268.625455 76.505763 
L 276.741818 240.819328 
L 284.858182 120.452663 
L 292.974545 83.734998 
L 301.090909 75.650371 
L 309.207273 72.096007 
L 317.323636 229.765554 
L 325.44 112.642766 
L 333.556364 243.081211 
L 341.672727 127.351461 
L 349.789091 87.018579 
L 357.905455 78.045517 
L 366.021818 220.80539 
L 374.138182 118.085066 
L 382.254545 236.041333 
L 390.370909 132.031904 
" style="fill:none;stroke:#ff0000;stroke-linecap:square;stroke-opacity:0.1;stroke-width:1.5;"/>
   </g>
   <g id="line2d_47">
    <path clip-path="url(#pf5186e6c24)" d="M 73.832727 121.3056 
L 81.949091 277.918523 
L 90.065455 300.890407 
L 98.181818 304.59509 
L 106.298182 305.690089 
L 114.414545 306.201371 
L 122.530909 306.500048 
L 130.647273 306.695883 
L 138.763636 306.833769 
L 146.88 306.935795 
L 154.996364 307.014138 
L 163.112727 307.076058 
L 171.229091 221.100876 
L 179.345455 299.332144 
L 187.461818 306.00547 
L 195.578182 215.126817 
L 203.694545 297.63513 
L 211.810909 305.194806 
L 219.927273 306.034728 
L 228.043636 306.206357 
L 236.16 296.352266 
L 244.276364 181.367772 
L 252.392727 104.606502 
L 260.509091 83.719339 
L 268.625455 264.740922 
L 276.741818 137.061248 
L 284.858182 89.339589 
L 292.974545 78.085961 
L 301.090909 73.109525 
L 309.207273 69.615397 
L 317.323636 66.845827 
L 325.44 64.578348 
L 333.556364 62.689941 
L 341.672727 242.867121 
L 349.789091 105.24701 
L 357.905455 69.529233 
L 366.021818 63.939036 
L 374.138182 62.200534 
L 382.254545 61.003549 
L 390.370909 59.976077 
" style="fill:none;stroke:#ff0000;stroke-linecap:square;stroke-opacity:0.1;stroke-width:1.5;"/>
   </g>
   <g id="line2d_48">
    <path clip-path="url(#pf5186e6c24)" d="M 73.832727 121.3056 
L 81.949091 277.918523 
L 90.065455 137.783737 
L 98.181818 271.497572 
L 106.298182 294.687298 
L 114.414545 299.908907 
L 122.530909 301.999569 
L 130.647273 303.195888 
L 138.763636 193.04326 
L 146.88 117.506858 
L 154.996364 265.756135 
L 163.112727 293.982492 
L 171.229091 186.781834 
L 179.345455 276.311178 
L 187.461818 293.016457 
L 195.578182 296.571673 
L 203.694545 196.582089 
L 211.810909 276.486345 
L 219.927273 186.459013 
L 228.043636 144.15352 
L 236.16 202.800338 
L 244.276364 151.822017 
L 252.392727 133.449588 
L 260.509091 125.253123 
L 268.625455 119.788519 
L 276.741818 115.241663 
L 284.858182 111.182704 
L 292.974545 107.495376 
L 301.090909 104.132268 
L 309.207273 247.354667 
L 317.323636 150.526972 
L 325.44 254.23495 
L 333.556364 277.008339 
L 341.672727 172.024125 
L 349.789091 131.536084 
L 357.905455 119.305372 
L 366.021818 114.632768 
L 374.138182 111.857325 
L 382.254545 109.617482 
L 390.370909 107.59325 
" style="fill:none;stroke:#ff0000;stroke-linecap:square;stroke-opacity:0.1;stroke-width:1.5;"/>
   </g>
   <g id="line2d_49">
    <path clip-path="url(#pf5186e6c24)" d="M 73.832727 121.3056 
L 81.949091 277.918523 
L 90.065455 300.890407 
L 98.181818 304.59509 
L 106.298182 305.690089 
L 114.414545 306.201371 
L 122.530909 306.500048 
L 130.647273 213.684828 
L 138.763636 296.950452 
L 146.88 189.04547 
L 154.996364 291.283129 
L 163.112727 302.680643 
L 171.229091 207.253557 
L 179.345455 291.305743 
L 187.461818 301.311189 
L 195.578182 302.896604 
L 203.694545 303.412087 
L 211.810909 303.752297 
L 219.927273 212.708439 
L 228.043636 141.73707 
L 236.16 213.664844 
L 244.276364 288.675368 
L 252.392727 196.3519 
L 260.509091 144.730777 
L 268.625455 124.468835 
L 276.741818 114.020576 
L 284.858182 106.630151 
L 292.974545 100.599531 
L 301.090909 95.462242 
L 309.207273 91.032497 
L 317.323636 257.511165 
L 325.44 151.327554 
L 333.556364 109.307616 
L 341.672727 96.487259 
L 349.789091 91.369633 
L 357.905455 88.177967 
L 366.021818 85.597717 
L 374.138182 83.327256 
L 382.254545 81.282958 
L 390.370909 79.428799 
" style="fill:none;stroke:#ff0000;stroke-linecap:square;stroke-opacity:0.1;stroke-width:1.5;"/>
   </g>
   <g id="line2d_50">
    <path clip-path="url(#pf5186e6c24)" d="M 73.832727 121.3056 
L 81.949091 277.918523 
L 90.065455 300.890407 
L 98.181818 304.59509 
L 106.298182 305.690089 
L 114.414545 306.201371 
L 122.530909 306.500048 
L 130.647273 213.684828 
L 138.763636 112.821102 
L 146.88 274.913271 
L 154.996364 300.714774 
L 163.112727 196.786056 
L 171.229091 287.297738 
L 179.345455 300.559466 
L 187.461818 302.734888 
L 195.578182 303.377132 
L 203.694545 303.76596 
L 211.810909 304.077159 
L 219.927273 304.341761 
L 228.043636 304.57053 
L 236.16 289.428664 
L 244.276364 303.157522 
L 252.392727 304.716685 
L 260.509091 204.128146 
L 268.625455 118.799129 
L 276.741818 93.685227 
L 284.858182 84.043818 
L 292.974545 78.089337 
L 301.090909 73.656884 
L 309.207273 70.171498 
L 317.323636 67.361449 
L 325.44 65.054667 
L 333.556364 248.883372 
L 341.672727 113.54778 
L 349.789091 262.562974 
L 357.905455 133.028156 
L 366.021818 81.453332 
L 374.138182 71.205982 
L 382.254545 235.141626 
L 390.370909 289.659422 
" style="fill:none;stroke:#ff0000;stroke-linecap:square;stroke-opacity:0.1;stroke-width:1.5;"/>
   </g>
   <g id="line2d_51">
    <path clip-path="url(#pf5186e6c24)" d="M 73.832727 121.3056 
L 81.949091 277.918523 
L 90.065455 300.890407 
L 98.181818 304.59509 
L 106.298182 194.473103 
L 114.414545 291.177677 
L 122.530909 302.330635 
L 130.647273 304.132524 
L 138.763636 304.800492 
L 146.88 305.225242 
L 154.996364 305.539681 
L 163.112727 208.515964 
L 171.229091 294.267696 
L 179.345455 191.891596 
L 187.461818 289.343971 
L 195.578182 301.167836 
L 203.694545 209.322264 
L 211.810909 289.439225 
L 219.927273 299.760961 
L 228.043636 301.476991 
L 236.16 282.574593 
L 244.276364 299.890138 
L 252.392727 302.029156 
L 260.509091 211.791695 
L 268.625455 149.596749 
L 276.741818 124.612332 
L 284.858182 111.790943 
L 292.974545 102.888302 
L 301.090909 95.844805 
L 309.207273 262.523333 
L 317.323636 159.602033 
L 325.44 114.417831 
L 333.556364 99.751435 
L 341.672727 256.255756 
L 349.789091 289.956618 
L 357.905455 296.360221 
L 366.021818 193.143315 
L 374.138182 130.074854 
L 382.254545 259.324932 
L 390.370909 168.3022 
" style="fill:none;stroke:#ff0000;stroke-linecap:square;stroke-opacity:0.1;stroke-width:1.5;"/>
   </g>
   <g id="line2d_52">
    <path clip-path="url(#pf5186e6c24)" d="M 73.832727 121.3056 
L 81.949091 277.918523 
L 90.065455 300.890407 
L 98.181818 304.59509 
L 106.298182 305.690089 
L 114.414545 306.201371 
L 122.530909 209.806332 
L 130.647273 295.809073 
L 138.763636 304.374515 
L 146.88 206.590175 
L 154.996364 293.633839 
L 163.112727 302.93924 
L 171.229091 208.5766 
L 179.345455 291.868524 
L 187.461818 301.414049 
L 195.578182 302.910909 
L 203.694545 303.411311 
L 211.810909 303.748557 
L 219.927273 213.442058 
L 228.043636 292.24321 
L 236.16 278.984558 
L 244.276364 184.889833 
L 252.392727 134.856119 
L 260.509091 114.546806 
L 268.625455 103.111773 
L 276.741818 94.875218 
L 284.858182 262.867016 
L 292.974545 157.92785 
L 301.090909 272.703847 
L 309.207273 173.567493 
L 317.323636 272.310864 
L 325.44 179.801979 
L 333.556364 134.453011 
L 341.672727 117.88967 
L 349.789091 110.486663 
L 357.905455 105.73708 
L 366.021818 101.897289 
L 374.138182 98.514897 
L 382.254545 251.228606 
L 390.370909 155.403011 
" style="fill:none;stroke:#ff0000;stroke-linecap:square;stroke-opacity:0.1;stroke-width:1.5;"/>
   </g>
   <g id="line2d_53">
    <path clip-path="url(#pf5186e6c24)" d="M 73.832727 121.3056 
L 81.949091 277.918523 
L 90.065455 300.890407 
L 98.181818 176.82894 
L 106.298182 104.00001 
L 114.414545 262.885692 
L 122.530909 293.148428 
L 130.647273 171.442075 
L 138.763636 272.804721 
L 146.88 291.502613 
L 154.996364 295.844899 
L 163.112727 297.699813 
L 171.229091 298.945226 
L 179.345455 190.271567 
L 187.461818 278.318901 
L 195.578182 293.823452 
L 203.694545 296.950428 
L 211.810909 298.080709 
L 219.927273 196.090774 
L 228.043636 137.092149 
L 236.16 201.235122 
L 244.276364 276.424142 
L 252.392727 183.708131 
L 260.509091 268.753129 
L 268.625455 185.207107 
L 276.741818 149.808145 
L 284.858182 136.784261 
L 292.974545 130.073718 
L 301.090909 125.140973 
L 309.207273 251.893897 
L 317.323636 170.492143 
L 325.44 141.241916 
L 333.556364 131.246597 
L 341.672727 126.453134 
L 349.789091 123.062367 
L 357.905455 120.136509 
L 366.021818 117.44617 
L 374.138182 248.939896 
L 382.254545 160.67817 
L 390.370909 132.269542 
" style="fill:none;stroke:#ff0000;stroke-linecap:square;stroke-opacity:0.1;stroke-width:1.5;"/>
   </g>
   <g id="line2d_54">
    <path clip-path="url(#pf5186e6c24)" d="M 73.832727 121.3056 
L 81.949091 277.918523 
L 90.065455 300.890407 
L 98.181818 304.59509 
L 106.298182 194.473103 
L 114.414545 291.177677 
L 122.530909 302.330635 
L 130.647273 304.132524 
L 138.763636 304.800492 
L 146.88 205.061389 
L 154.996364 292.480932 
L 163.112727 302.356401 
L 171.229091 205.945776 
L 179.345455 290.458888 
L 187.461818 300.67156 
L 195.578182 302.320052 
L 203.694545 302.87972 
L 211.810909 303.258295 
L 219.927273 303.573629 
L 228.043636 211.23034 
L 236.16 245.344125 
L 244.276364 160.178215 
L 252.392727 123.493245 
L 260.509091 107.786187 
L 268.625455 266.232206 
L 276.741818 167.558261 
L 284.858182 123.391057 
L 292.974545 107.826568 
L 301.090909 100.097954 
L 309.207273 94.63264 
L 317.323636 90.146678 
L 325.44 86.303438 
L 333.556364 252.990967 
L 341.672727 144.192028 
L 349.789091 102.757246 
L 357.905455 90.948514 
L 366.021818 86.436785 
L 374.138182 83.635432 
L 382.254545 81.356854 
L 390.370909 79.3444 
" style="fill:none;stroke:#ff0000;stroke-linecap:square;stroke-opacity:0.1;stroke-width:1.5;"/>
   </g>
   <g id="line2d_55">
    <path clip-path="url(#pf5186e6c24)" d="M 73.832727 121.3056 
L 81.949091 277.918523 
L 90.065455 300.890407 
L 98.181818 304.59509 
L 106.298182 194.473103 
L 114.414545 291.177677 
L 122.530909 176.528619 
L 130.647273 116.165455 
L 138.763636 267.178576 
L 146.88 293.352577 
L 154.996364 298.294189 
L 163.112727 299.934068 
L 171.229091 300.925367 
L 179.345455 301.679615 
L 187.461818 302.288596 
L 195.578182 302.791233 
L 203.694545 197.451657 
L 211.810909 124.054532 
L 219.927273 268.544547 
L 228.043636 168.468757 
L 236.16 211.28967 
L 244.276364 141.343262 
L 252.392727 116.114802 
L 260.509091 253.908413 
L 268.625455 163.818024 
L 276.741818 261.537597 
L 284.858182 174.993498 
L 292.974545 138.417981 
L 301.090909 125.52863 
L 309.207273 119.333375 
L 317.323636 114.990002 
L 325.44 111.300732 
L 333.556364 107.971104 
L 341.672727 104.91848 
L 349.789091 102.108737 
L 357.905455 99.519127 
L 366.021818 245.700483 
L 374.138182 147.24918 
L 382.254545 254.39858 
L 390.370909 278.957383 
" style="fill:none;stroke:#ff0000;stroke-linecap:square;stroke-opacity:0.1;stroke-width:1.5;"/>
   </g>
   <g id="line2d_56">
    <path clip-path="url(#pf5186e6c24)" d="M 73.832727 280.9728 
L 81.949091 170.258932 
L 90.065455 123.628763 
L 98.181818 91.724871 
L 106.298182 121.884746 
L 114.414545 121.674777 
L 122.530909 104.778385 
L 130.647273 121.8873 
L 138.763636 113.700677 
L 146.88 108.94656 
L 154.996364 105.326382 
L 163.112727 89.789056 
L 171.229091 111.825668 
L 179.345455 103.09096 
L 187.461818 88.342128 
L 195.578182 86.543197 
L 203.694545 97.085913 
L 211.810909 95.173774 
L 219.927273 98.639404 
L 228.043636 124.881377 
L 236.16 121.740598 
L 244.276364 200.790823 
L 252.392727 226.397241 
L 260.509091 250.043436 
L 268.625455 252.510919 
L 276.741818 239.423273 
L 284.858182 267.924968 
L 292.974545 268.06207 
L 301.090909 269.503755 
L 309.207273 255.894485 
L 317.323636 245.725843 
L 325.44 272.158294 
L 333.556364 242.112652 
L 341.672727 242.745844 
L 349.789091 227.544324 
L 357.905455 239.548679 
L 366.021818 247.517041 
L 374.138182 250.590692 
L 382.254545 235.157172 
L 390.370909 216.626491 
" style="fill:none;stroke:#1f77b4;stroke-linecap:square;stroke-width:1.5;"/>
   </g>
   <g id="line2d_57">
    <path clip-path="url(#pf5186e6c24)" d="M 73.832727 121.3056 
L 81.949091 227.743477 
L 90.065455 265.870567 
L 98.181818 288.226573 
L 106.298182 260.985448 
L 114.414545 263.485034 
L 122.530909 274.163294 
L 130.647273 260.79226 
L 138.763636 264.329614 
L 146.88 270.735189 
L 154.996364 273.312705 
L 163.112727 285.252127 
L 171.229091 268.341164 
L 179.345455 274.052454 
L 187.461818 286.178126 
L 195.578182 287.648711 
L 203.694545 278.250167 
L 211.810909 276.790829 
L 219.927273 276.172398 
L 228.043636 253.660431 
L 236.16 259.830214 
L 244.276364 194.520431 
L 252.392727 161.534619 
L 260.509091 140.150862 
L 268.625455 134.09523 
L 276.741818 147.032704 
L 284.858182 117.224106 
L 292.974545 115.05398 
L 301.090909 111.535551 
L 309.207273 124.877111 
L 317.323636 136.797684 
L 325.44 106.775383 
L 333.556364 138.904406 
L 341.672727 141.041535 
L 349.789091 155.034542 
L 357.905455 137.788039 
L 366.021818 132.025489 
L 374.138182 126.017284 
L 382.254545 143.166712 
L 390.370909 167.256215 
" style="fill:none;stroke:#ff0000;stroke-linecap:square;stroke-width:1.5;"/>
   </g>
   <g id="patch_5">
    <path d="M 57.6 307.584 
L 57.6 41.472 
" style="fill:none;stroke:#000000;stroke-linecap:square;stroke-linejoin:miter;stroke-width:0.8;"/>
   </g>
   <g id="patch_6">
    <path d="M 414.72 307.584 
L 414.72 41.472 
" style="fill:none;stroke:#000000;stroke-linecap:square;stroke-linejoin:miter;stroke-width:0.8;"/>
   </g>
   <g id="patch_7">
    <path d="M 57.6 307.584 
L 414.72 307.584 
" style="fill:none;stroke:#000000;stroke-linecap:square;stroke-linejoin:miter;stroke-width:0.8;"/>
   </g>
   <g id="patch_8">
    <path d="M 57.6 41.472 
L 414.72 41.472 
" style="fill:none;stroke:#000000;stroke-linecap:square;stroke-linejoin:miter;stroke-width:0.8;"/>
   </g>
   <g id="text_18">
    <!-- biased_D -->
    <g transform="translate(208.760625 35.472)scale(0.12 -0.12)">
     <defs>
      <path d="M 3116 1747 
Q 3116 2381 2855 2742 
Q 2594 3103 2138 3103 
Q 1681 3103 1420 2742 
Q 1159 2381 1159 1747 
Q 1159 1113 1420 752 
Q 1681 391 2138 391 
Q 2594 391 2855 752 
Q 3116 1113 3116 1747 
z
M 1159 2969 
Q 1341 3281 1617 3432 
Q 1894 3584 2278 3584 
Q 2916 3584 3314 3078 
Q 3713 2572 3713 1747 
Q 3713 922 3314 415 
Q 2916 -91 2278 -91 
Q 1894 -91 1617 61 
Q 1341 213 1159 525 
L 1159 0 
L 581 0 
L 581 4863 
L 1159 4863 
L 1159 2969 
z
" id="DejaVuSans-62" transform="scale(0.015625)"/>
      <path d="M 603 3500 
L 1178 3500 
L 1178 0 
L 603 0 
L 603 3500 
z
M 603 4863 
L 1178 4863 
L 1178 4134 
L 603 4134 
L 603 4863 
z
" id="DejaVuSans-69" transform="scale(0.015625)"/>
      <path d="M 2194 1759 
Q 1497 1759 1228 1600 
Q 959 1441 959 1056 
Q 959 750 1161 570 
Q 1363 391 1709 391 
Q 2188 391 2477 730 
Q 2766 1069 2766 1631 
L 2766 1759 
L 2194 1759 
z
M 3341 1997 
L 3341 0 
L 2766 0 
L 2766 531 
Q 2569 213 2275 61 
Q 1981 -91 1556 -91 
Q 1019 -91 701 211 
Q 384 513 384 1019 
Q 384 1609 779 1909 
Q 1175 2209 1959 2209 
L 2766 2209 
L 2766 2266 
Q 2766 2663 2505 2880 
Q 2244 3097 1772 3097 
Q 1472 3097 1187 3025 
Q 903 2953 641 2809 
L 641 3341 
Q 956 3463 1253 3523 
Q 1550 3584 1831 3584 
Q 2591 3584 2966 3190 
Q 3341 2797 3341 1997 
z
" id="DejaVuSans-61" transform="scale(0.015625)"/>
      <path d="M 2834 3397 
L 2834 2853 
Q 2591 2978 2328 3040 
Q 2066 3103 1784 3103 
Q 1356 3103 1142 2972 
Q 928 2841 928 2578 
Q 928 2378 1081 2264 
Q 1234 2150 1697 2047 
L 1894 2003 
Q 2506 1872 2764 1633 
Q 3022 1394 3022 966 
Q 3022 478 2636 193 
Q 2250 -91 1575 -91 
Q 1294 -91 989 -36 
Q 684 19 347 128 
L 347 722 
Q 666 556 975 473 
Q 1284 391 1588 391 
Q 1994 391 2212 530 
Q 2431 669 2431 922 
Q 2431 1156 2273 1281 
Q 2116 1406 1581 1522 
L 1381 1569 
Q 847 1681 609 1914 
Q 372 2147 372 2553 
Q 372 3047 722 3315 
Q 1072 3584 1716 3584 
Q 2034 3584 2315 3537 
Q 2597 3491 2834 3397 
z
" id="DejaVuSans-73" transform="scale(0.015625)"/>
      <path d="M 2906 2969 
L 2906 4863 
L 3481 4863 
L 3481 0 
L 2906 0 
L 2906 525 
Q 2725 213 2448 61 
Q 2172 -91 1784 -91 
Q 1150 -91 751 415 
Q 353 922 353 1747 
Q 353 2572 751 3078 
Q 1150 3584 1784 3584 
Q 2172 3584 2448 3432 
Q 2725 3281 2906 2969 
z
M 947 1747 
Q 947 1113 1208 752 
Q 1469 391 1925 391 
Q 2381 391 2643 752 
Q 2906 1113 2906 1747 
Q 2906 2381 2643 2742 
Q 2381 3103 1925 3103 
Q 1469 3103 1208 2742 
Q 947 2381 947 1747 
z
" id="DejaVuSans-64" transform="scale(0.015625)"/>
      <path d="M 3263 -1063 
L 3263 -1509 
L -63 -1509 
L -63 -1063 
L 3263 -1063 
z
" id="DejaVuSans-5f" transform="scale(0.015625)"/>
      <path d="M 1259 4147 
L 1259 519 
L 2022 519 
Q 2988 519 3436 956 
Q 3884 1394 3884 2338 
Q 3884 3275 3436 3711 
Q 2988 4147 2022 4147 
L 1259 4147 
z
M 628 4666 
L 1925 4666 
Q 3281 4666 3915 4102 
Q 4550 3538 4550 2338 
Q 4550 1131 3912 565 
Q 3275 0 1925 0 
L 628 0 
L 628 4666 
z
" id="DejaVuSans-44" transform="scale(0.015625)"/>
     </defs>
     <use xlink:href="#DejaVuSans-62"/>
     <use x="63.476562" xlink:href="#DejaVuSans-69"/>
     <use x="91.259766" xlink:href="#DejaVuSans-61"/>
     <use x="152.539062" xlink:href="#DejaVuSans-73"/>
     <use x="204.638672" xlink:href="#DejaVuSans-65"/>
     <use x="266.162109" xlink:href="#DejaVuSans-64"/>
     <use x="329.638672" xlink:href="#DejaVuSans-5f"/>
     <use x="379.638672" xlink:href="#DejaVuSans-44"/>
    </g>
   </g>
   <g id="legend_1">
    <g id="patch_9">
     <path d="M 351.635625 78.82825 
L 407.72 78.82825 
Q 409.72 78.82825 409.72 76.82825 
L 409.72 48.472 
Q 409.72 46.472 407.72 46.472 
L 351.635625 46.472 
Q 349.635625 46.472 349.635625 48.472 
L 349.635625 76.82825 
Q 349.635625 78.82825 351.635625 78.82825 
z
" style="fill:#ffffff;opacity:0.8;stroke:#cccccc;stroke-linejoin:miter;"/>
    </g>
    <g id="line2d_58">
     <path d="M 353.635625 54.570437 
L 373.635625 54.570437 
" style="fill:none;stroke:#1f77b4;stroke-linecap:square;stroke-width:1.5;"/>
    </g>
    <g id="line2d_59"/>
    <g id="text_19">
     <!-- coop -->
     <g transform="translate(381.635625 58.070437)scale(0.1 -0.1)">
      <use xlink:href="#DejaVuSans-63"/>
      <use x="54.980469" xlink:href="#DejaVuSans-6f"/>
      <use x="116.162109" xlink:href="#DejaVuSans-6f"/>
      <use x="177.34375" xlink:href="#DejaVuSans-70"/>
     </g>
    </g>
    <g id="line2d_60">
     <path d="M 353.635625 69.248562 
L 373.635625 69.248562 
" style="fill:none;stroke:#ff0000;stroke-linecap:square;stroke-width:1.5;"/>
    </g>
    <g id="line2d_61"/>
    <g id="text_20">
     <!-- host -->
     <g transform="translate(381.635625 72.748562)scale(0.1 -0.1)">
      <defs>
       <path d="M 3513 2113 
L 3513 0 
L 2938 0 
L 2938 2094 
Q 2938 2591 2744 2837 
Q 2550 3084 2163 3084 
Q 1697 3084 1428 2787 
Q 1159 2491 1159 1978 
L 1159 0 
L 581 0 
L 581 4863 
L 1159 4863 
L 1159 2956 
Q 1366 3272 1645 3428 
Q 1925 3584 2291 3584 
Q 2894 3584 3203 3211 
Q 3513 2838 3513 2113 
z
" id="DejaVuSans-68" transform="scale(0.015625)"/>
      </defs>
      <use xlink:href="#DejaVuSans-68"/>
      <use x="63.378906" xlink:href="#DejaVuSans-6f"/>
      <use x="124.560547" xlink:href="#DejaVuSans-73"/>
      <use x="176.660156" xlink:href="#DejaVuSans-74"/>
     </g>
    </g>
   </g>
  </g>
 </g>
 <defs>
  <clipPath id="pf5186e6c24">
   <rect height="266.112" width="357.12" x="57.6" y="41.472"/>
  </clipPath>
 </defs>
</svg>
