<?xml version="1.0" encoding="utf-8" standalone="no"?>
<!DOCTYPE svg PUBLIC "-//W3C//DTD SVG 1.1//EN"
  "http://www.w3.org/Graphics/SVG/1.1/DTD/svg11.dtd">
<svg height="345.6pt" version="1.1" viewBox="0 0 460.8 345.6" width="460.8pt" xmlns="http://www.w3.org/2000/svg" xmlns:xlink="http://www.w3.org/1999/xlink">
 <metadata>
  <rdf:RDF xmlns:cc="http://creativecommons.org/ns#" xmlns:dc="http://purl.org/dc/elements/1.1/" xmlns:rdf="http://www.w3.org/1999/02/22-rdf-syntax-ns#">
   <cc:Work>
    <dc:type rdf:resource="http://purl.org/dc/dcmitype/StillImage"/>
    <dc:date>2023-09-18T17:59:11.739178</dc:date>
    <dc:format>image/svg+xml</dc:format>
    <dc:creator>
     <cc:Agent>
      <dc:title>Matplotlib v3.4.1, https://matplotlib.org/</dc:title>
     </cc:Agent>
    </dc:creator>
   </cc:Work>
  </rdf:RDF>
 </metadata>
 <defs>
  <style type="text/css">*{stroke-linecap:butt;stroke-linejoin:round;}</style>
 </defs>
 <g id="figure_1">
  <g id="patch_1">
   <path d="M 0 345.6 
L 460.8 345.6 
L 460.8 0 
L 0 0 
z
" style="fill:#ffffff;"/>
  </g>
  <g id="axes_1">
   <g id="patch_2">
    <path d="M 57.6 307.584 
L 414.72 307.584 
L 414.72 41.472 
L 57.6 41.472 
z
" style="fill:#ffffff;"/>
   </g>
   <g id="patch_3">
    <path clip-path="url(#p9e68bfaab9)" d="M 73.832727 307.584 
L 73.832727 41.472 
L 236.16 41.472 
L 236.16 307.584 
z
" style="fill:#add8e6;opacity:0.2;"/>
   </g>
   <g id="patch_4">
    <path clip-path="url(#p9e68bfaab9)" d="M 236.16 307.584 
L 236.16 41.472 
L 398.487273 41.472 
L 398.487273 307.584 
z
" style="fill:#ff7f50;opacity:0.2;"/>
   </g>
   <g id="matplotlib.axis_1">
    <g id="xtick_1">
     <g id="line2d_1">
      <defs>
       <path d="M 0 0 
L 0 3.5 
" id="m009a30bdbc" style="stroke:#000000;stroke-width:0.8;"/>
      </defs>
      <g>
       <use style="stroke:#000000;stroke-width:0.8;" x="73.832727" xlink:href="#m009a30bdbc" y="307.584"/>
      </g>
     </g>
     <g id="text_1">
      <!-- 0 -->
      <g transform="translate(70.651477 322.182437)scale(0.1 -0.1)">
       <defs>
        <path d="M 2034 4250 
Q 1547 4250 1301 3770 
Q 1056 3291 1056 2328 
Q 1056 1369 1301 889 
Q 1547 409 2034 409 
Q 2525 409 2770 889 
Q 3016 1369 3016 2328 
Q 3016 3291 2770 3770 
Q 2525 4250 2034 4250 
z
M 2034 4750 
Q 2819 4750 3233 4129 
Q 3647 3509 3647 2328 
Q 3647 1150 3233 529 
Q 2819 -91 2034 -91 
Q 1250 -91 836 529 
Q 422 1150 422 2328 
Q 422 3509 836 4129 
Q 1250 4750 2034 4750 
z
" id="DejaVuSans-30" transform="scale(0.015625)"/>
       </defs>
       <use xlink:href="#DejaVuSans-30"/>
      </g>
     </g>
    </g>
    <g id="xtick_2">
     <g id="line2d_2">
      <g>
       <use style="stroke:#000000;stroke-width:0.8;" x="114.414545" xlink:href="#m009a30bdbc" y="307.584"/>
      </g>
     </g>
     <g id="text_2">
      <!-- 5 -->
      <g transform="translate(111.233295 322.182437)scale(0.1 -0.1)">
       <defs>
        <path d="M 691 4666 
L 3169 4666 
L 3169 4134 
L 1269 4134 
L 1269 2991 
Q 1406 3038 1543 3061 
Q 1681 3084 1819 3084 
Q 2600 3084 3056 2656 
Q 3513 2228 3513 1497 
Q 3513 744 3044 326 
Q 2575 -91 1722 -91 
Q 1428 -91 1123 -41 
Q 819 9 494 109 
L 494 744 
Q 775 591 1075 516 
Q 1375 441 1709 441 
Q 2250 441 2565 725 
Q 2881 1009 2881 1497 
Q 2881 1984 2565 2268 
Q 2250 2553 1709 2553 
Q 1456 2553 1204 2497 
Q 953 2441 691 2322 
L 691 4666 
z
" id="DejaVuSans-35" transform="scale(0.015625)"/>
       </defs>
       <use xlink:href="#DejaVuSans-35"/>
      </g>
     </g>
    </g>
    <g id="xtick_3">
     <g id="line2d_3">
      <g>
       <use style="stroke:#000000;stroke-width:0.8;" x="154.996364" xlink:href="#m009a30bdbc" y="307.584"/>
      </g>
     </g>
     <g id="text_3">
      <!-- 10 -->
      <g transform="translate(148.633864 322.182437)scale(0.1 -0.1)">
       <defs>
        <path d="M 794 531 
L 1825 531 
L 1825 4091 
L 703 3866 
L 703 4441 
L 1819 4666 
L 2450 4666 
L 2450 531 
L 3481 531 
L 3481 0 
L 794 0 
L 794 531 
z
" id="DejaVuSans-31" transform="scale(0.015625)"/>
       </defs>
       <use xlink:href="#DejaVuSans-31"/>
       <use x="63.623047" xlink:href="#DejaVuSans-30"/>
      </g>
     </g>
    </g>
    <g id="xtick_4">
     <g id="line2d_4">
      <g>
       <use style="stroke:#000000;stroke-width:0.8;" x="195.578182" xlink:href="#m009a30bdbc" y="307.584"/>
      </g>
     </g>
     <g id="text_4">
      <!-- 15 -->
      <g transform="translate(189.215682 322.182437)scale(0.1 -0.1)">
       <use xlink:href="#DejaVuSans-31"/>
       <use x="63.623047" xlink:href="#DejaVuSans-35"/>
      </g>
     </g>
    </g>
    <g id="xtick_5">
     <g id="line2d_5">
      <g>
       <use style="stroke:#000000;stroke-width:0.8;" x="236.16" xlink:href="#m009a30bdbc" y="307.584"/>
      </g>
     </g>
     <g id="text_5">
      <!-- 20 -->
      <g transform="translate(229.7975 322.182437)scale(0.1 -0.1)">
       <defs>
        <path d="M 1228 531 
L 3431 531 
L 3431 0 
L 469 0 
L 469 531 
Q 828 903 1448 1529 
Q 2069 2156 2228 2338 
Q 2531 2678 2651 2914 
Q 2772 3150 2772 3378 
Q 2772 3750 2511 3984 
Q 2250 4219 1831 4219 
Q 1534 4219 1204 4116 
Q 875 4013 500 3803 
L 500 4441 
Q 881 4594 1212 4672 
Q 1544 4750 1819 4750 
Q 2544 4750 2975 4387 
Q 3406 4025 3406 3419 
Q 3406 3131 3298 2873 
Q 3191 2616 2906 2266 
Q 2828 2175 2409 1742 
Q 1991 1309 1228 531 
z
" id="DejaVuSans-32" transform="scale(0.015625)"/>
       </defs>
       <use xlink:href="#DejaVuSans-32"/>
       <use x="63.623047" xlink:href="#DejaVuSans-30"/>
      </g>
     </g>
    </g>
    <g id="xtick_6">
     <g id="line2d_6">
      <g>
       <use style="stroke:#000000;stroke-width:0.8;" x="276.741818" xlink:href="#m009a30bdbc" y="307.584"/>
      </g>
     </g>
     <g id="text_6">
      <!-- 25 -->
      <g transform="translate(270.379318 322.182437)scale(0.1 -0.1)">
       <use xlink:href="#DejaVuSans-32"/>
       <use x="63.623047" xlink:href="#DejaVuSans-35"/>
      </g>
     </g>
    </g>
    <g id="xtick_7">
     <g id="line2d_7">
      <g>
       <use style="stroke:#000000;stroke-width:0.8;" x="317.323636" xlink:href="#m009a30bdbc" y="307.584"/>
      </g>
     </g>
     <g id="text_7">
      <!-- 30 -->
      <g transform="translate(310.961136 322.182437)scale(0.1 -0.1)">
       <defs>
        <path d="M 2597 2516 
Q 3050 2419 3304 2112 
Q 3559 1806 3559 1356 
Q 3559 666 3084 287 
Q 2609 -91 1734 -91 
Q 1441 -91 1130 -33 
Q 819 25 488 141 
L 488 750 
Q 750 597 1062 519 
Q 1375 441 1716 441 
Q 2309 441 2620 675 
Q 2931 909 2931 1356 
Q 2931 1769 2642 2001 
Q 2353 2234 1838 2234 
L 1294 2234 
L 1294 2753 
L 1863 2753 
Q 2328 2753 2575 2939 
Q 2822 3125 2822 3475 
Q 2822 3834 2567 4026 
Q 2313 4219 1838 4219 
Q 1578 4219 1281 4162 
Q 984 4106 628 3988 
L 628 4550 
Q 988 4650 1302 4700 
Q 1616 4750 1894 4750 
Q 2613 4750 3031 4423 
Q 3450 4097 3450 3541 
Q 3450 3153 3228 2886 
Q 3006 2619 2597 2516 
z
" id="DejaVuSans-33" transform="scale(0.015625)"/>
       </defs>
       <use xlink:href="#DejaVuSans-33"/>
       <use x="63.623047" xlink:href="#DejaVuSans-30"/>
      </g>
     </g>
    </g>
    <g id="xtick_8">
     <g id="line2d_8">
      <g>
       <use style="stroke:#000000;stroke-width:0.8;" x="357.905455" xlink:href="#m009a30bdbc" y="307.584"/>
      </g>
     </g>
     <g id="text_8">
      <!-- 35 -->
      <g transform="translate(351.542955 322.182437)scale(0.1 -0.1)">
       <use xlink:href="#DejaVuSans-33"/>
       <use x="63.623047" xlink:href="#DejaVuSans-35"/>
      </g>
     </g>
    </g>
    <g id="xtick_9">
     <g id="line2d_9">
      <g>
       <use style="stroke:#000000;stroke-width:0.8;" x="398.487273" xlink:href="#m009a30bdbc" y="307.584"/>
      </g>
     </g>
     <g id="text_9">
      <!-- 40 -->
      <g transform="translate(392.124773 322.182437)scale(0.1 -0.1)">
       <defs>
        <path d="M 2419 4116 
L 825 1625 
L 2419 1625 
L 2419 4116 
z
M 2253 4666 
L 3047 4666 
L 3047 1625 
L 3713 1625 
L 3713 1100 
L 3047 1100 
L 3047 0 
L 2419 0 
L 2419 1100 
L 313 1100 
L 313 1709 
L 2253 4666 
z
" id="DejaVuSans-34" transform="scale(0.015625)"/>
       </defs>
       <use xlink:href="#DejaVuSans-34"/>
       <use x="63.623047" xlink:href="#DejaVuSans-30"/>
      </g>
     </g>
    </g>
    <g id="text_10">
     <!-- t -->
     <g transform="translate(234.199844 335.860562)scale(0.1 -0.1)">
      <defs>
       <path d="M 1172 4494 
L 1172 3500 
L 2356 3500 
L 2356 3053 
L 1172 3053 
L 1172 1153 
Q 1172 725 1289 603 
Q 1406 481 1766 481 
L 2356 481 
L 2356 0 
L 1766 0 
Q 1100 0 847 248 
Q 594 497 594 1153 
L 594 3053 
L 172 3053 
L 172 3500 
L 594 3500 
L 594 4494 
L 1172 4494 
z
" id="DejaVuSans-74" transform="scale(0.015625)"/>
      </defs>
      <use xlink:href="#DejaVuSans-74"/>
     </g>
    </g>
   </g>
   <g id="matplotlib.axis_2">
    <g id="ytick_1">
     <g id="line2d_10">
      <defs>
       <path d="M 0 0 
L -3.5 0 
" id="ma2e4f465ed" style="stroke:#000000;stroke-width:0.8;"/>
      </defs>
      <g>
       <use style="stroke:#000000;stroke-width:0.8;" x="57.6" xlink:href="#ma2e4f465ed" y="295.797955"/>
      </g>
     </g>
     <g id="text_11">
      <!-- 0.0 -->
      <g transform="translate(34.696875 299.597174)scale(0.1 -0.1)">
       <defs>
        <path d="M 684 794 
L 1344 794 
L 1344 0 
L 684 0 
L 684 794 
z
" id="DejaVuSans-2e" transform="scale(0.015625)"/>
       </defs>
       <use xlink:href="#DejaVuSans-30"/>
       <use x="63.623047" xlink:href="#DejaVuSans-2e"/>
       <use x="95.410156" xlink:href="#DejaVuSans-30"/>
      </g>
     </g>
    </g>
    <g id="ytick_2">
     <g id="line2d_11">
      <g>
       <use style="stroke:#000000;stroke-width:0.8;" x="57.6" xlink:href="#ma2e4f465ed" y="246.48037"/>
      </g>
     </g>
     <g id="text_12">
      <!-- 0.2 -->
      <g transform="translate(34.696875 250.279589)scale(0.1 -0.1)">
       <use xlink:href="#DejaVuSans-30"/>
       <use x="63.623047" xlink:href="#DejaVuSans-2e"/>
       <use x="95.410156" xlink:href="#DejaVuSans-32"/>
      </g>
     </g>
    </g>
    <g id="ytick_3">
     <g id="line2d_12">
      <g>
       <use style="stroke:#000000;stroke-width:0.8;" x="57.6" xlink:href="#ma2e4f465ed" y="197.162785"/>
      </g>
     </g>
     <g id="text_13">
      <!-- 0.4 -->
      <g transform="translate(34.696875 200.962004)scale(0.1 -0.1)">
       <use xlink:href="#DejaVuSans-30"/>
       <use x="63.623047" xlink:href="#DejaVuSans-2e"/>
       <use x="95.410156" xlink:href="#DejaVuSans-34"/>
      </g>
     </g>
    </g>
    <g id="ytick_4">
     <g id="line2d_13">
      <g>
       <use style="stroke:#000000;stroke-width:0.8;" x="57.6" xlink:href="#ma2e4f465ed" y="147.8452"/>
      </g>
     </g>
     <g id="text_14">
      <!-- 0.6 -->
      <g transform="translate(34.696875 151.644419)scale(0.1 -0.1)">
       <defs>
        <path d="M 2113 2584 
Q 1688 2584 1439 2293 
Q 1191 2003 1191 1497 
Q 1191 994 1439 701 
Q 1688 409 2113 409 
Q 2538 409 2786 701 
Q 3034 994 3034 1497 
Q 3034 2003 2786 2293 
Q 2538 2584 2113 2584 
z
M 3366 4563 
L 3366 3988 
Q 3128 4100 2886 4159 
Q 2644 4219 2406 4219 
Q 1781 4219 1451 3797 
Q 1122 3375 1075 2522 
Q 1259 2794 1537 2939 
Q 1816 3084 2150 3084 
Q 2853 3084 3261 2657 
Q 3669 2231 3669 1497 
Q 3669 778 3244 343 
Q 2819 -91 2113 -91 
Q 1303 -91 875 529 
Q 447 1150 447 2328 
Q 447 3434 972 4092 
Q 1497 4750 2381 4750 
Q 2619 4750 2861 4703 
Q 3103 4656 3366 4563 
z
" id="DejaVuSans-36" transform="scale(0.015625)"/>
       </defs>
       <use xlink:href="#DejaVuSans-30"/>
       <use x="63.623047" xlink:href="#DejaVuSans-2e"/>
       <use x="95.410156" xlink:href="#DejaVuSans-36"/>
      </g>
     </g>
    </g>
    <g id="ytick_5">
     <g id="line2d_14">
      <g>
       <use style="stroke:#000000;stroke-width:0.8;" x="57.6" xlink:href="#ma2e4f465ed" y="98.527615"/>
      </g>
     </g>
     <g id="text_15">
      <!-- 0.8 -->
      <g transform="translate(34.696875 102.326834)scale(0.1 -0.1)">
       <defs>
        <path d="M 2034 2216 
Q 1584 2216 1326 1975 
Q 1069 1734 1069 1313 
Q 1069 891 1326 650 
Q 1584 409 2034 409 
Q 2484 409 2743 651 
Q 3003 894 3003 1313 
Q 3003 1734 2745 1975 
Q 2488 2216 2034 2216 
z
M 1403 2484 
Q 997 2584 770 2862 
Q 544 3141 544 3541 
Q 544 4100 942 4425 
Q 1341 4750 2034 4750 
Q 2731 4750 3128 4425 
Q 3525 4100 3525 3541 
Q 3525 3141 3298 2862 
Q 3072 2584 2669 2484 
Q 3125 2378 3379 2068 
Q 3634 1759 3634 1313 
Q 3634 634 3220 271 
Q 2806 -91 2034 -91 
Q 1263 -91 848 271 
Q 434 634 434 1313 
Q 434 1759 690 2068 
Q 947 2378 1403 2484 
z
M 1172 3481 
Q 1172 3119 1398 2916 
Q 1625 2713 2034 2713 
Q 2441 2713 2670 2916 
Q 2900 3119 2900 3481 
Q 2900 3844 2670 4047 
Q 2441 4250 2034 4250 
Q 1625 4250 1398 4047 
Q 1172 3844 1172 3481 
z
" id="DejaVuSans-38" transform="scale(0.015625)"/>
       </defs>
       <use xlink:href="#DejaVuSans-30"/>
       <use x="63.623047" xlink:href="#DejaVuSans-2e"/>
       <use x="95.410156" xlink:href="#DejaVuSans-38"/>
      </g>
     </g>
    </g>
    <g id="ytick_6">
     <g id="line2d_15">
      <g>
       <use style="stroke:#000000;stroke-width:0.8;" x="57.6" xlink:href="#ma2e4f465ed" y="49.21003"/>
      </g>
     </g>
     <g id="text_16">
      <!-- 1.0 -->
      <g transform="translate(34.696875 53.009249)scale(0.1 -0.1)">
       <use xlink:href="#DejaVuSans-31"/>
       <use x="63.623047" xlink:href="#DejaVuSans-2e"/>
       <use x="95.410156" xlink:href="#DejaVuSans-30"/>
      </g>
     </g>
    </g>
    <g id="text_17">
     <!-- p(context) -->
     <g transform="translate(28.617187 200.449875)rotate(-90)scale(0.1 -0.1)">
      <defs>
       <path d="M 1159 525 
L 1159 -1331 
L 581 -1331 
L 581 3500 
L 1159 3500 
L 1159 2969 
Q 1341 3281 1617 3432 
Q 1894 3584 2278 3584 
Q 2916 3584 3314 3078 
Q 3713 2572 3713 1747 
Q 3713 922 3314 415 
Q 2916 -91 2278 -91 
Q 1894 -91 1617 61 
Q 1341 213 1159 525 
z
M 3116 1747 
Q 3116 2381 2855 2742 
Q 2594 3103 2138 3103 
Q 1681 3103 1420 2742 
Q 1159 2381 1159 1747 
Q 1159 1113 1420 752 
Q 1681 391 2138 391 
Q 2594 391 2855 752 
Q 3116 1113 3116 1747 
z
" id="DejaVuSans-70" transform="scale(0.015625)"/>
       <path d="M 1984 4856 
Q 1566 4138 1362 3434 
Q 1159 2731 1159 2009 
Q 1159 1288 1364 580 
Q 1569 -128 1984 -844 
L 1484 -844 
Q 1016 -109 783 600 
Q 550 1309 550 2009 
Q 550 2706 781 3412 
Q 1013 4119 1484 4856 
L 1984 4856 
z
" id="DejaVuSans-28" transform="scale(0.015625)"/>
       <path d="M 3122 3366 
L 3122 2828 
Q 2878 2963 2633 3030 
Q 2388 3097 2138 3097 
Q 1578 3097 1268 2742 
Q 959 2388 959 1747 
Q 959 1106 1268 751 
Q 1578 397 2138 397 
Q 2388 397 2633 464 
Q 2878 531 3122 666 
L 3122 134 
Q 2881 22 2623 -34 
Q 2366 -91 2075 -91 
Q 1284 -91 818 406 
Q 353 903 353 1747 
Q 353 2603 823 3093 
Q 1294 3584 2113 3584 
Q 2378 3584 2631 3529 
Q 2884 3475 3122 3366 
z
" id="DejaVuSans-63" transform="scale(0.015625)"/>
       <path d="M 1959 3097 
Q 1497 3097 1228 2736 
Q 959 2375 959 1747 
Q 959 1119 1226 758 
Q 1494 397 1959 397 
Q 2419 397 2687 759 
Q 2956 1122 2956 1747 
Q 2956 2369 2687 2733 
Q 2419 3097 1959 3097 
z
M 1959 3584 
Q 2709 3584 3137 3096 
Q 3566 2609 3566 1747 
Q 3566 888 3137 398 
Q 2709 -91 1959 -91 
Q 1206 -91 779 398 
Q 353 888 353 1747 
Q 353 2609 779 3096 
Q 1206 3584 1959 3584 
z
" id="DejaVuSans-6f" transform="scale(0.015625)"/>
       <path d="M 3513 2113 
L 3513 0 
L 2938 0 
L 2938 2094 
Q 2938 2591 2744 2837 
Q 2550 3084 2163 3084 
Q 1697 3084 1428 2787 
Q 1159 2491 1159 1978 
L 1159 0 
L 581 0 
L 581 3500 
L 1159 3500 
L 1159 2956 
Q 1366 3272 1645 3428 
Q 1925 3584 2291 3584 
Q 2894 3584 3203 3211 
Q 3513 2838 3513 2113 
z
" id="DejaVuSans-6e" transform="scale(0.015625)"/>
       <path d="M 3597 1894 
L 3597 1613 
L 953 1613 
Q 991 1019 1311 708 
Q 1631 397 2203 397 
Q 2534 397 2845 478 
Q 3156 559 3463 722 
L 3463 178 
Q 3153 47 2828 -22 
Q 2503 -91 2169 -91 
Q 1331 -91 842 396 
Q 353 884 353 1716 
Q 353 2575 817 3079 
Q 1281 3584 2069 3584 
Q 2775 3584 3186 3129 
Q 3597 2675 3597 1894 
z
M 3022 2063 
Q 3016 2534 2758 2815 
Q 2500 3097 2075 3097 
Q 1594 3097 1305 2825 
Q 1016 2553 972 2059 
L 3022 2063 
z
" id="DejaVuSans-65" transform="scale(0.015625)"/>
       <path d="M 3513 3500 
L 2247 1797 
L 3578 0 
L 2900 0 
L 1881 1375 
L 863 0 
L 184 0 
L 1544 1831 
L 300 3500 
L 978 3500 
L 1906 2253 
L 2834 3500 
L 3513 3500 
z
" id="DejaVuSans-78" transform="scale(0.015625)"/>
       <path d="M 513 4856 
L 1013 4856 
Q 1481 4119 1714 3412 
Q 1947 2706 1947 2009 
Q 1947 1309 1714 600 
Q 1481 -109 1013 -844 
L 513 -844 
Q 928 -128 1133 580 
Q 1338 1288 1338 2009 
Q 1338 2731 1133 3434 
Q 928 4138 513 4856 
z
" id="DejaVuSans-29" transform="scale(0.015625)"/>
      </defs>
      <use xlink:href="#DejaVuSans-70"/>
      <use x="63.476562" xlink:href="#DejaVuSans-28"/>
      <use x="102.490234" xlink:href="#DejaVuSans-63"/>
      <use x="157.470703" xlink:href="#DejaVuSans-6f"/>
      <use x="218.652344" xlink:href="#DejaVuSans-6e"/>
      <use x="282.03125" xlink:href="#DejaVuSans-74"/>
      <use x="321.240234" xlink:href="#DejaVuSans-65"/>
      <use x="381.013672" xlink:href="#DejaVuSans-78"/>
      <use x="440.193359" xlink:href="#DejaVuSans-74"/>
      <use x="479.402344" xlink:href="#DejaVuSans-29"/>
     </g>
    </g>
   </g>
   <g id="line2d_16">
    <path clip-path="url(#p9e68bfaab9)" d="M 73.832727 258.809766 
L 81.949091 132.160812 
L 90.065455 90.015219 
L 98.181818 75.04925 
L 106.298182 68.028156 
L 114.414545 64.102071 
L 122.530909 61.610775 
L 130.647273 59.883595 
L 138.763636 58.611172 
L 146.88 57.632459 
L 154.996364 56.855062 
L 163.112727 56.221952 
L 171.229091 225.183878 
L 179.345455 84.998315 
L 187.461818 61.132584 
L 195.578182 212.542099 
L 203.694545 87.270252 
L 211.810909 220.78608 
L 219.927273 95.712556 
L 228.043636 68.176115 
L 236.16 91.720096 
L 244.276364 206.587256 
L 252.392727 255.874596 
L 260.509091 271.111535 
L 268.625455 277.145357 
L 276.741818 280.621233 
L 284.858182 223.423395 
L 292.974545 272.011166 
L 301.090909 220.775428 
L 309.207273 272.599136 
L 317.323636 223.261502 
L 325.44 274.027309 
L 333.556364 226.018458 
L 341.672727 105.122318 
L 349.789091 73.748999 
L 357.905455 213.702408 
L 366.021818 268.174038 
L 374.138182 221.209349 
L 382.254545 193.895643 
L 390.370909 179.215618 
" style="fill:none;stroke:#add8e6;stroke-linecap:square;stroke-opacity:0.3;stroke-width:1.5;"/>
   </g>
   <g id="line2d_17">
    <path clip-path="url(#p9e68bfaab9)" d="M 73.832727 258.809766 
L 81.949091 292.885587 
L 90.065455 202.339283 
L 98.181818 142.225177 
L 106.298182 278.796522 
L 114.414545 175.679246 
L 122.530909 133.909335 
L 130.647273 116.368447 
L 138.763636 105.857735 
L 146.88 98.294822 
L 154.996364 253.739292 
L 163.112727 146.845976 
L 171.229091 255.073621 
L 179.345455 155.551122 
L 187.461818 124.09326 
L 195.578182 114.31252 
L 203.694545 109.773916 
L 211.810909 106.586891 
L 219.927273 103.896423 
L 228.043636 101.500349 
L 236.16 147.534768 
L 244.276364 109.058131 
L 252.392727 100.254344 
L 260.509091 240.312788 
L 268.625455 264.994371 
L 276.741818 146.065338 
L 284.858182 243.608549 
L 292.974545 192.757875 
L 301.090909 253.773129 
L 309.207273 198.119629 
L 317.323636 256.007427 
L 325.44 200.805871 
L 333.556364 257.626733 
L 341.672727 203.148795 
L 349.789091 136.279056 
L 357.905455 242.005109 
L 366.021818 198.446391 
L 374.138182 186.540455 
L 382.254545 183.311538 
L 390.370909 182.450831 
" style="fill:none;stroke:#add8e6;stroke-linecap:square;stroke-opacity:0.3;stroke-width:1.5;"/>
   </g>
   <g id="line2d_18">
    <path clip-path="url(#p9e68bfaab9)" d="M 73.832727 258.809766 
L 81.949091 132.160812 
L 90.065455 90.015219 
L 98.181818 75.04925 
L 106.298182 68.028156 
L 114.414545 64.102071 
L 122.530909 61.610775 
L 130.647273 59.883595 
L 138.763636 58.611172 
L 146.88 57.632459 
L 154.996364 56.855062 
L 163.112727 56.221952 
L 171.229091 55.695913 
L 179.345455 55.251583 
L 187.461818 54.871061 
L 195.578182 54.541344 
L 203.694545 54.252749 
L 211.810909 53.99792 
L 219.927273 53.771162 
L 228.043636 53.568 
L 236.16 67.655935 
L 244.276364 263.556367 
L 252.392727 293.312914 
L 260.509091 294.845067 
L 268.625455 295.166753 
L 276.741818 295.32444 
L 284.858182 295.421867 
L 292.974545 295.488 
L 301.090909 274.635579 
L 309.207273 295.195415 
L 317.323636 275.790791 
L 325.44 295.246762 
L 333.556364 277.222218 
L 341.672727 295.294078 
L 349.789091 278.391908 
L 357.905455 295.331798 
L 366.021818 279.36309 
L 374.138182 295.36263 
L 382.254545 280.186363 
L 390.370909 112.508484 
" style="fill:none;stroke:#add8e6;stroke-linecap:square;stroke-opacity:0.3;stroke-width:1.5;"/>
   </g>
   <g id="line2d_19">
    <path clip-path="url(#p9e68bfaab9)" d="M 73.832727 258.809766 
L 81.949091 132.160812 
L 90.065455 90.015219 
L 98.181818 75.04925 
L 106.298182 244.001177 
L 114.414545 112.415218 
L 122.530909 244.106161 
L 130.647273 122.685066 
L 138.763636 89.902537 
L 146.88 81.352675 
L 154.996364 77.346766 
L 163.112727 74.516461 
L 171.229091 72.250155 
L 179.345455 70.370458 
L 187.461818 68.785371 
L 195.578182 67.432281 
L 203.694545 66.265095 
L 211.810909 217.054906 
L 219.927273 97.774896 
L 228.043636 73.365473 
L 236.16 103.074408 
L 244.276364 234.842448 
L 252.392727 270.585755 
L 260.509091 279.419305 
L 268.625455 283.021324 
L 276.741818 285.268479 
L 284.858182 286.906005 
L 292.974545 233.037658 
L 301.090909 281.314242 
L 309.207273 232.068997 
L 317.323636 281.887709 
L 325.44 234.699009 
L 333.556364 282.812445 
L 341.672727 237.279549 
L 349.789091 283.626416 
L 357.905455 239.569138 
L 366.021818 113.887391 
L 374.138182 253.960126 
L 382.254545 220.19872 
L 390.370909 107.455531 
" style="fill:none;stroke:#add8e6;stroke-linecap:square;stroke-opacity:0.3;stroke-width:1.5;"/>
   </g>
   <g id="line2d_20">
    <path clip-path="url(#p9e68bfaab9)" d="M 73.832727 258.809766 
L 81.949091 132.160812 
L 90.065455 276.132853 
L 98.181818 289.786756 
L 106.298182 169.586342 
L 114.414545 113.534359 
L 122.530909 93.428722 
L 130.647273 83.46326 
L 138.763636 77.286861 
L 146.88 238.991963 
L 154.996364 121.826934 
L 163.112727 87.991065 
L 171.229091 79.566642 
L 179.345455 76.015999 
L 187.461818 73.594165 
L 195.578182 71.639961 
L 203.694545 224.325912 
L 211.810909 271.196891 
L 219.927273 137.105621 
L 228.043636 89.631311 
L 236.16 124.688638 
L 244.276364 244.389721 
L 252.392727 273.096463 
L 260.509091 142.899933 
L 268.625455 244.00288 
L 276.741818 199.668026 
L 284.858182 260.730301 
L 292.974545 209.685161 
L 301.090909 187.013221 
L 309.207273 259.246527 
L 317.323636 209.531506 
L 325.44 188.715262 
L 333.556364 260.788845 
L 341.672727 210.883129 
L 349.789091 190.948574 
L 357.905455 116.124582 
L 366.021818 97.198094 
L 374.138182 233.335928 
L 382.254545 197.186547 
L 390.370909 184.189255 
" style="fill:none;stroke:#add8e6;stroke-linecap:square;stroke-opacity:0.3;stroke-width:1.5;"/>
   </g>
   <g id="line2d_21">
    <path clip-path="url(#p9e68bfaab9)" d="M 73.832727 258.809766 
L 81.949091 292.885587 
L 90.065455 202.339283 
L 98.181818 288.661776 
L 106.298182 195.341523 
L 114.414545 284.926276 
L 122.530909 197.233686 
L 130.647273 160.676323 
L 138.763636 274.935956 
L 146.88 192.125714 
L 154.996364 163.867442 
L 163.112727 268.104206 
L 171.229091 240.95511 
L 179.345455 235.066848 
L 187.461818 233.790635 
L 195.578182 233.50403 
L 203.694545 233.425147 
L 211.810909 233.39099 
L 219.927273 233.36852 
L 228.043636 233.350823 
L 236.16 233.336108 
L 244.276364 233.323637 
L 252.392727 233.312956 
L 260.509091 233.303734 
L 268.625455 233.295714 
L 276.741818 233.288695 
L 284.858182 233.282516 
L 292.974545 233.277048 
L 301.090909 233.272185 
L 309.207273 233.267841 
L 317.323636 233.263945 
L 325.44 233.260436 
L 333.556364 233.257265 
L 341.672727 233.254389 
L 349.789091 233.251774 
L 357.905455 233.249388 
L 366.021818 233.247205 
L 374.138182 233.245203 
L 382.254545 233.243362 
L 390.370909 233.241666 
" style="fill:none;stroke:#add8e6;stroke-linecap:square;stroke-opacity:0.3;stroke-width:1.5;"/>
   </g>
   <g id="line2d_22">
    <path clip-path="url(#p9e68bfaab9)" d="M 73.832727 258.809766 
L 81.949091 132.160812 
L 90.065455 90.015219 
L 98.181818 75.04925 
L 106.298182 68.028156 
L 114.414545 64.102071 
L 122.530909 61.610775 
L 130.647273 59.883595 
L 138.763636 226.3543 
L 146.88 91.035951 
L 154.996364 65.839854 
L 163.112727 61.887639 
L 171.229091 60.583061 
L 179.345455 59.70539 
L 187.461818 58.983101 
L 195.578182 58.36472 
L 203.694545 57.827849 
L 211.810909 57.357217 
L 219.927273 56.941251 
L 228.043636 56.570921 
L 236.16 76.011029 
L 244.276364 227.779123 
L 252.392727 280.600738 
L 260.509091 289.190047 
L 268.625455 291.383572 
L 276.741818 292.443788 
L 284.858182 141.978826 
L 292.974545 70.520257 
L 301.090909 219.33049 
L 309.207273 280.477678 
L 317.323636 235.819017 
L 325.44 284.360357 
L 333.556364 241.420517 
L 341.672727 285.584101 
L 349.789091 244.449091 
L 357.905455 107.613924 
L 366.021818 246.204277 
L 374.138182 284.212234 
L 382.254545 243.307587 
L 390.370909 213.924751 
" style="fill:none;stroke:#add8e6;stroke-linecap:square;stroke-opacity:0.3;stroke-width:1.5;"/>
   </g>
   <g id="line2d_23">
    <path clip-path="url(#p9e68bfaab9)" d="M 73.832727 258.809766 
L 81.949091 132.160812 
L 90.065455 90.015219 
L 98.181818 256.659451 
L 106.298182 126.615317 
L 114.414545 89.953342 
L 122.530909 79.466182 
L 130.647273 74.290331 
L 138.763636 227.027014 
L 146.88 110.002775 
L 154.996364 82.53521 
L 163.112727 76.208243 
L 171.229091 214.181383 
L 179.345455 108.354488 
L 187.461818 84.088157 
L 195.578182 78.561566 
L 203.694545 76.250968 
L 211.810909 74.595448 
L 219.927273 73.186534 
L 228.043636 71.94214 
L 236.16 105.420698 
L 244.276364 234.539638 
L 252.392727 268.426532 
L 260.509091 277.344805 
L 268.625455 281.223886 
L 276.741818 135.257811 
L 284.858182 245.107395 
L 292.974545 273.080964 
L 301.090909 214.288159 
L 309.207273 268.983708 
L 317.323636 214.416044 
L 325.44 110.160951 
L 333.556364 82.838348 
L 341.672727 77.119267 
L 349.789091 220.874651 
L 357.905455 185.72503 
L 366.021818 170.422568 
L 374.138182 97.906706 
L 382.254545 225.437306 
L 390.370909 187.090454 
" style="fill:none;stroke:#add8e6;stroke-linecap:square;stroke-opacity:0.3;stroke-width:1.5;"/>
   </g>
   <g id="line2d_24">
    <path clip-path="url(#p9e68bfaab9)" d="M 73.832727 258.809766 
L 81.949091 132.160812 
L 90.065455 90.015219 
L 98.181818 75.04925 
L 106.298182 68.028156 
L 114.414545 64.102071 
L 122.530909 61.610775 
L 130.647273 59.883595 
L 138.763636 58.611172 
L 146.88 57.632459 
L 154.996364 56.855062 
L 163.112727 56.221952 
L 171.229091 55.695913 
L 179.345455 55.251583 
L 187.461818 54.871061 
L 195.578182 54.541344 
L 203.694545 54.252749 
L 211.810909 53.99792 
L 219.927273 53.771162 
L 228.043636 230.768708 
L 236.16 168.406822 
L 244.276364 282.971364 
L 252.392727 292.765175 
L 260.509091 293.956078 
L 268.625455 294.438661 
L 276.741818 294.729119 
L 284.858182 294.924453 
L 292.974545 266.078235 
L 301.090909 294.160967 
L 309.207273 267.445105 
L 317.323636 294.298036 
L 325.44 269.417489 
L 333.556364 294.429838 
L 341.672727 271.048682 
L 349.789091 294.535043 
L 357.905455 272.407452 
L 366.021818 294.62085 
L 374.138182 273.561685 
L 382.254545 114.058395 
L 390.370909 277.840316 
" style="fill:none;stroke:#add8e6;stroke-linecap:square;stroke-opacity:0.3;stroke-width:1.5;"/>
   </g>
   <g id="line2d_25">
    <path clip-path="url(#p9e68bfaab9)" d="M 73.832727 258.809766 
L 81.949091 132.160812 
L 90.065455 90.015219 
L 98.181818 75.04925 
L 106.298182 68.028156 
L 114.414545 64.102071 
L 122.530909 61.610775 
L 130.647273 59.883595 
L 138.763636 58.611172 
L 146.88 57.632459 
L 154.996364 56.855062 
L 163.112727 56.221952 
L 171.229091 55.695913 
L 179.345455 55.251583 
L 187.461818 54.871061 
L 195.578182 54.541344 
L 203.694545 54.252749 
L 211.810909 53.99792 
L 219.927273 53.771162 
L 228.043636 53.568 
L 236.16 67.655935 
L 244.276364 263.556367 
L 252.392727 293.312914 
L 260.509091 127.033886 
L 268.625455 278.630617 
L 276.741818 293.424177 
L 284.858182 294.471777 
L 292.974545 294.780431 
L 301.090909 294.969707 
L 309.207273 266.625689 
L 317.323636 294.229556 
L 325.44 267.88992 
L 333.556364 294.356449 
L 341.672727 269.79098 
L 349.789091 294.48041 
L 357.905455 271.370515 
L 366.021818 294.579849 
L 374.138182 272.690611 
L 382.254545 119.152243 
L 390.370909 279.18642 
" style="fill:none;stroke:#add8e6;stroke-linecap:square;stroke-opacity:0.3;stroke-width:1.5;"/>
   </g>
   <g id="line2d_26">
    <path clip-path="url(#p9e68bfaab9)" d="M 73.832727 98.527615 
L 81.949091 244.826089 
L 90.065455 281.491192 
L 98.181818 289.012186 
L 106.298182 291.467298 
L 114.414545 292.646798 
L 122.530909 293.336623 
L 130.647273 293.786666 
L 138.763636 294.101966 
L 146.88 294.334351 
L 154.996364 294.512261 
L 163.112727 294.652555 
L 171.229091 171.19131 
L 179.345455 280.097388 
L 187.461818 292.628113 
L 195.578182 177.362929 
L 203.694545 277.756251 
L 211.810909 163.498347 
L 219.927273 271.138816 
L 228.043636 288.399297 
L 236.16 271.347031 
L 244.276364 173.198595 
L 252.392727 117.958911 
L 260.509091 98.240269 
L 268.625455 89.181977 
L 276.741818 83.365064 
L 284.858182 149.338951 
L 292.974545 93.060624 
L 301.090909 151.120554 
L 309.207273 91.745038 
L 317.323636 148.061827 
L 325.44 89.546176 
L 333.556364 144.805746 
L 341.672727 263.624299 
L 349.789091 284.954479 
L 357.905455 157.192934 
L 366.021818 94.994287 
L 374.138182 148.904984 
L 382.254545 175.254776 
L 390.370909 189.07603 
" style="fill:none;stroke:#ff0000;stroke-linecap:square;stroke-opacity:0.1;stroke-width:1.5;"/>
   </g>
   <g id="line2d_27">
    <path clip-path="url(#p9e68bfaab9)" d="M 73.832727 98.527615 
L 81.949091 62.466457 
L 90.065455 174.279883 
L 98.181818 235.512646 
L 106.298182 96.15085 
L 114.414545 202.202107 
L 122.530909 239.038838 
L 130.647273 252.586975 
L 138.763636 260.068044 
L 146.88 265.254471 
L 154.996364 127.503063 
L 163.112727 223.176821 
L 171.229091 122.660781 
L 179.345455 214.711839 
L 187.461818 241.994174 
L 195.578182 249.969776 
L 203.694545 253.372423 
L 211.810909 255.638561 
L 219.927273 257.517183 
L 228.043636 259.181036 
L 236.16 221.803429 
L 244.276364 252.29372 
L 252.392727 259.497234 
L 260.509091 143.157361 
L 268.625455 112.990434 
L 276.741818 219.896009 
L 284.858182 136.358342 
L 292.974545 179.564997 
L 301.090909 124.993154 
L 309.207273 174.550793 
L 317.323636 122.539314 
L 325.44 172.13788 
L 333.556364 120.779115 
L 341.672727 170.030013 
L 349.789091 229.288804 
L 357.905455 136.442488 
L 366.021818 174.518486 
L 374.138182 185.480154 
L 382.254545 188.483042 
L 390.370909 189.285378 
" style="fill:none;stroke:#ff0000;stroke-linecap:square;stroke-opacity:0.1;stroke-width:1.5;"/>
   </g>
   <g id="line2d_28">
    <path clip-path="url(#p9e68bfaab9)" d="M 73.832727 98.527615 
L 81.949091 244.826089 
L 90.065455 281.491192 
L 98.181818 289.012186 
L 106.298182 291.467298 
L 114.414545 292.646798 
L 122.530909 293.336623 
L 130.647273 293.786666 
L 138.763636 294.101966 
L 146.88 294.334351 
L 154.996364 294.512261 
L 163.112727 294.652555 
L 171.229091 294.765842 
L 179.345455 294.859117 
L 187.461818 294.937175 
L 195.578182 295.003404 
L 203.694545 295.060265 
L 211.810909 295.109589 
L 219.927273 295.152761 
L 228.043636 295.190851 
L 236.16 287.636753 
L 244.276364 135.124281 
L 252.392727 74.707425 
L 260.509091 64.934566 
L 268.625455 61.474018 
L 276.741818 59.430946 
L 284.858182 58.0099 
L 292.974545 56.954196 
L 301.090909 87.776597 
L 309.207273 57.718773 
L 317.323636 85.886664 
L 325.44 57.166126 
L 333.556364 83.742008 
L 341.672727 56.701406 
L 349.789091 81.968782 
L 357.905455 56.320707 
L 366.021818 80.478548 
L 374.138182 56.00138 
L 382.254545 79.201831 
L 390.370909 260.390589 
" style="fill:none;stroke:#ff0000;stroke-linecap:square;stroke-opacity:0.1;stroke-width:1.5;"/>
   </g>
   <g id="line2d_29">
    <path clip-path="url(#p9e68bfaab9)" d="M 73.832727 98.527615 
L 81.949091 244.826089 
L 90.065455 281.491192 
L 98.181818 289.012186 
L 106.298182 143.385365 
L 114.414545 264.256025 
L 122.530909 139.314192 
L 130.647273 254.729835 
L 138.763636 278.12375 
L 146.88 283.081867 
L 154.996364 285.109147 
L 163.112727 286.455653 
L 171.229091 287.497305 
L 179.345455 288.338692 
L 187.461818 289.032185 
L 195.578182 289.612255 
L 203.694545 290.103531 
L 211.810909 173.675246 
L 219.927273 269.139387 
L 228.043636 285.568796 
L 236.16 264.387698 
L 244.276364 152.2831 
L 252.392727 105.920872 
L 260.509091 91.826061 
L 268.625455 85.103222 
L 276.741818 80.471014 
L 284.858182 76.869276 
L 292.974545 140.281208 
L 301.090909 84.336783 
L 309.207273 140.731389 
L 317.323636 83.083495 
L 325.44 137.608816 
L 333.556364 81.399844 
L 341.672727 134.566968 
L 349.789091 79.910265 
L 357.905455 131.845475 
L 366.021818 256.823439 
L 374.138182 118.191335 
L 382.254545 151.234504 
L 390.370909 261.725392 
" style="fill:none;stroke:#ff0000;stroke-linecap:square;stroke-opacity:0.1;stroke-width:1.5;"/>
   </g>
   <g id="line2d_30">
    <path clip-path="url(#p9e68bfaab9)" d="M 73.832727 98.527615 
L 81.949091 244.826089 
L 90.065455 98.466876 
L 98.181818 71.995157 
L 106.298182 215.52877 
L 114.414545 263.801851 
L 122.530909 276.863354 
L 130.647273 282.289696 
L 138.763636 285.351151 
L 146.88 146.206616 
L 154.996364 251.759282 
L 163.112727 277.116715 
L 171.229091 282.607054 
L 179.345455 284.592514 
L 187.461818 285.836282 
L 195.578182 286.804252 
L 203.694545 162.247866 
L 211.810909 100.890664 
L 219.927273 234.832976 
L 228.043636 272.981275 
L 236.16 245.246848 
L 244.276364 136.265207 
L 252.392727 98.34076 
L 260.509091 228.304325 
L 268.625455 133.946151 
L 276.741818 174.143722 
L 284.858182 113.222596 
L 292.974545 164.138475 
L 301.090909 186.015957 
L 309.207273 114.971293 
L 317.323636 164.291152 
L 325.44 184.338463 
L 333.556364 112.989134 
L 341.672727 162.918065 
L 349.789091 182.130849 
L 357.905455 251.050055 
L 366.021818 266.145825 
L 374.138182 143.921843 
L 382.254545 176.215374 
L 390.370909 188.49545 
" style="fill:none;stroke:#ff0000;stroke-linecap:square;stroke-opacity:0.1;stroke-width:1.5;"/>
   </g>
   <g id="line2d_31">
    <path clip-path="url(#p9e68bfaab9)" d="M 73.832727 98.527615 
L 81.949091 62.466457 
L 90.065455 174.279883 
L 98.181818 77.115741 
L 106.298182 183.804213 
L 114.414545 83.971228 
L 122.530909 180.256564 
L 130.647273 214.470601 
L 138.763636 98.489245 
L 146.88 182.443346 
L 154.996364 208.376448 
L 163.112727 106.503883 
L 171.229091 132.408279 
L 179.345455 138.712787 
L 187.461818 140.165417 
L 195.578182 140.504658 
L 203.694545 140.601713 
L 211.810909 140.645313 
L 219.927273 140.674525 
L 228.043636 140.697667 
L 236.16 140.716952 
L 244.276364 140.733317 
L 252.392727 140.747348 
L 260.509091 140.759473 
L 268.625455 140.770026 
L 276.741818 140.779268 
L 284.858182 140.78741 
L 292.974545 140.794619 
L 301.090909 140.801035 
L 309.207273 140.806768 
L 317.323636 140.811914 
L 325.44 140.81655 
L 333.556364 140.820741 
L 341.672727 140.824543 
L 349.789091 140.828003 
L 357.905455 140.83116 
L 366.021818 140.834049 
L 374.138182 140.8367 
L 382.254545 140.839138 
L 390.370909 140.841385 
" style="fill:none;stroke:#ff0000;stroke-linecap:square;stroke-opacity:0.1;stroke-width:1.5;"/>
   </g>
   <g id="line2d_32">
    <path clip-path="url(#p9e68bfaab9)" d="M 73.832727 98.527615 
L 81.949091 244.826089 
L 90.065455 281.491192 
L 98.181818 289.012186 
L 106.298182 291.467298 
L 114.414545 292.646798 
L 122.530909 293.336623 
L 130.647273 293.786666 
L 138.763636 165.850035 
L 146.88 276.865736 
L 154.996364 291.024332 
L 163.112727 292.654901 
L 171.229091 293.089727 
L 179.345455 293.362903 
L 187.461818 293.581295 
L 195.578182 293.764049 
L 203.694545 293.919506 
L 211.810909 294.053262 
L 219.927273 294.169469 
L 228.043636 294.271295 
L 236.16 282.729825 
L 244.276364 160.076612 
L 252.392727 90.296734 
L 260.509091 74.12825 
L 268.625455 68.428613 
L 276.741818 65.125217 
L 284.858182 233.909034 
L 292.974545 285.733232 
L 301.090909 160.973991 
L 309.207273 83.377827 
L 317.323636 132.935038 
L 325.44 76.784913 
L 333.556364 126.672133 
L 341.672727 74.68012 
L 349.789091 123.095562 
L 357.905455 258.794056 
L 366.021818 123.358365 
L 374.138182 75.454301 
L 382.254545 123.804424 
L 390.370909 152.627989 
" style="fill:none;stroke:#ff0000;stroke-linecap:square;stroke-opacity:0.1;stroke-width:1.5;"/>
   </g>
   <g id="line2d_33">
    <path clip-path="url(#p9e68bfaab9)" d="M 73.832727 98.527615 
L 81.949091 244.826089 
L 90.065455 281.491192 
L 98.181818 127.931727 
L 106.298182 254.643202 
L 114.414545 280.023343 
L 122.530909 285.448008 
L 130.647273 287.742643 
L 138.763636 160.911669 
L 146.88 263.296495 
L 154.996364 282.114873 
L 163.112727 285.708968 
L 171.229091 172.282309 
L 179.345455 262.99015 
L 187.461818 280.171088 
L 195.578182 283.587975 
L 203.694545 284.82803 
L 211.810909 285.655157 
L 219.927273 286.340656 
L 228.043636 286.936948 
L 236.16 263.34866 
L 244.276364 153.324822 
L 252.392727 108.78167 
L 260.509091 94.640828 
L 268.625455 87.637694 
L 276.741818 238.713978 
L 284.858182 134.458972 
L 292.974545 98.17369 
L 301.090909 160.999014 
L 309.207273 102.771314 
L 317.323636 160.586301 
L 325.44 258.75298 
L 333.556364 279.011937 
L 341.672727 282.931399 
L 349.789091 159.866553 
L 357.905455 188.286437 
L 366.021818 202.363477 
L 374.138182 267.834538 
L 382.254545 151.977885 
L 390.370909 186.806151 
" style="fill:none;stroke:#ff0000;stroke-linecap:square;stroke-opacity:0.1;stroke-width:1.5;"/>
   </g>
   <g id="line2d_34">
    <path clip-path="url(#p9e68bfaab9)" d="M 73.832727 98.527615 
L 81.949091 244.826089 
L 90.065455 281.491192 
L 98.181818 289.012186 
L 106.298182 291.467298 
L 114.414545 292.646798 
L 122.530909 293.336623 
L 130.647273 293.786666 
L 138.763636 294.101966 
L 146.88 294.334351 
L 154.996364 294.512261 
L 163.112727 294.652555 
L 171.229091 294.765842 
L 179.345455 294.859117 
L 187.461818 294.937175 
L 195.578182 295.003404 
L 203.694545 295.060265 
L 211.810909 295.109589 
L 219.927273 295.152761 
L 228.043636 172.097664 
L 236.16 206.903654 
L 244.276364 91.1092 
L 252.392727 70.98152 
L 260.509091 65.609017 
L 268.625455 62.694356 
L 276.741818 60.705574 
L 284.858182 59.241545 
L 292.974545 98.846164 
L 301.090909 60.65186 
L 309.207273 96.707499 
L 317.323636 59.901416 
L 325.44 93.972688 
L 333.556364 59.249006 
L 341.672727 91.688235 
L 349.789091 58.714946 
L 357.905455 89.762699 
L 366.021818 58.26816 
L 374.138182 88.109966 
L 382.254545 257.424928 
L 390.370909 86.597384 
" style="fill:none;stroke:#ff0000;stroke-linecap:square;stroke-opacity:0.1;stroke-width:1.5;"/>
   </g>
   <g id="line2d_35">
    <path clip-path="url(#p9e68bfaab9)" d="M 73.832727 98.527615 
L 81.949091 244.826089 
L 90.065455 281.491192 
L 98.181818 289.012186 
L 106.298182 291.467298 
L 114.414545 292.646798 
L 122.530909 293.336623 
L 130.647273 293.786666 
L 138.763636 294.101966 
L 146.88 294.334351 
L 154.996364 294.512261 
L 163.112727 294.652555 
L 171.229091 294.765842 
L 179.345455 294.859117 
L 187.461818 294.937175 
L 195.578182 295.003404 
L 203.694545 295.060265 
L 211.810909 295.109589 
L 219.927273 295.152761 
L 228.043636 295.190851 
L 236.16 287.636753 
L 244.276364 135.124281 
L 252.392727 74.707425 
L 260.509091 247.183616 
L 268.625455 100.606631 
L 276.741818 71.110186 
L 284.858182 66.008611 
L 292.974545 63.595261 
L 301.090909 61.875648 
L 309.207273 101.149281 
L 317.323636 63.201606 
L 325.44 99.069979 
L 333.556364 62.366865 
L 341.672727 96.388908 
L 349.789091 61.641257 
L 357.905455 94.136286 
L 366.021818 61.042474 
L 374.138182 92.228098 
L 382.254545 252.272224 
L 390.370909 87.594535 
" style="fill:none;stroke:#ff0000;stroke-linecap:square;stroke-opacity:0.1;stroke-width:1.5;"/>
   </g>
   <g id="line2d_36">
    <path clip-path="url(#p9e68bfaab9)" d="M 73.832727 258.809766 
L 81.949091 164.305767 
L 90.065455 131.091796 
L 98.181818 142.762866 
L 106.298182 135.448166 
L 114.414545 109.701879 
L 122.530909 105.619796 
L 130.647273 85.69014 
L 138.763636 123.580909 
L 146.88 104.233373 
L 154.996364 99.257575 
L 163.112727 94.04414 
L 171.229091 131.488159 
L 179.345455 95.581737 
L 187.461818 86.908046 
L 195.578182 99.998121 
L 203.694545 101.789739 
L 211.810909 134.296218 
L 219.927273 95.929929 
L 228.043636 103.244184 
L 236.16 118.550444 
L 244.276364 230.060405 
L 252.392727 256.154239 
L 260.509091 244.941718 
L 268.625455 274.330313 
L 276.741818 245.609111 
L 284.858182 251.985508 
L 292.974545 234.07168 
L 301.090909 247.353311 
L 309.207273 257.402973 
L 317.323636 251.850553 
L 325.44 235.858337 
L 333.556364 245.077112 
L 341.672727 218.852529 
L 349.789091 225.058592 
L 357.905455 217.709934 
L 366.021818 219.614375 
L 374.138182 235.202493 
L 382.254545 200.99777 
L 390.370909 195.710333 
" style="fill:none;stroke:#1f77b4;stroke-linecap:square;stroke-width:1.5;"/>
   </g>
   <g id="line2d_37">
    <path clip-path="url(#p9e68bfaab9)" d="M 73.832727 98.527615 
L 81.949091 208.354163 
L 90.065455 241.746499 
L 98.181818 224.662839 
L 106.298182 235.084889 
L 114.414545 255.748855 
L 122.530909 258.760407 
L 130.647273 276.075308 
L 138.763636 242.520176 
L 146.88 259.448594 
L 154.996364 262.393619 
L 163.112727 265.022716 
L 171.229091 234.603429 
L 179.345455 264.738362 
L 187.461818 270.822008 
L 195.578182 260.661611 
L 203.694545 258.801011 
L 211.810909 229.938532 
L 219.927273 263.92713 
L 228.043636 259.051568 
L 236.16 247.17576 
L 244.276364 152.953313 
L 252.392727 114.19399 
L 260.509091 124.878376 
L 268.625455 94.283312 
L 276.741818 119.374098 
L 284.858182 116.820464 
L 292.974545 132.114247 
L 301.090909 121.954459 
L 309.207273 110.452998 
L 317.323636 116.129873 
L 325.44 131.019457 
L 333.556364 121.183653 
L 341.672727 147.435396 
L 349.789091 140.23995 
L 357.905455 150.46623 
L 366.021818 145.882711 
L 374.138182 131.69633 
L 382.254545 169.670813 
L 390.370909 174.344028 
" style="fill:none;stroke:#ff0000;stroke-linecap:square;stroke-width:1.5;"/>
   </g>
   <g id="patch_5">
    <path d="M 57.6 307.584 
L 57.6 41.472 
" style="fill:none;stroke:#000000;stroke-linecap:square;stroke-linejoin:miter;stroke-width:0.8;"/>
   </g>
   <g id="patch_6">
    <path d="M 414.72 307.584 
L 414.72 41.472 
" style="fill:none;stroke:#000000;stroke-linecap:square;stroke-linejoin:miter;stroke-width:0.8;"/>
   </g>
   <g id="patch_7">
    <path d="M 57.6 307.584 
L 414.72 307.584 
" style="fill:none;stroke:#000000;stroke-linecap:square;stroke-linejoin:miter;stroke-width:0.8;"/>
   </g>
   <g id="patch_8">
    <path d="M 57.6 41.472 
L 414.72 41.472 
" style="fill:none;stroke:#000000;stroke-linecap:square;stroke-linejoin:miter;stroke-width:0.8;"/>
   </g>
   <g id="text_18">
    <!-- Type1_depressed -->
    <g transform="translate(184.4775 35.472)scale(0.12 -0.12)">
     <defs>
      <path d="M -19 4666 
L 3928 4666 
L 3928 4134 
L 2272 4134 
L 2272 0 
L 1638 0 
L 1638 4134 
L -19 4134 
L -19 4666 
z
" id="DejaVuSans-54" transform="scale(0.015625)"/>
      <path d="M 2059 -325 
Q 1816 -950 1584 -1140 
Q 1353 -1331 966 -1331 
L 506 -1331 
L 506 -850 
L 844 -850 
Q 1081 -850 1212 -737 
Q 1344 -625 1503 -206 
L 1606 56 
L 191 3500 
L 800 3500 
L 1894 763 
L 2988 3500 
L 3597 3500 
L 2059 -325 
z
" id="DejaVuSans-79" transform="scale(0.015625)"/>
      <path d="M 3263 -1063 
L 3263 -1509 
L -63 -1509 
L -63 -1063 
L 3263 -1063 
z
" id="DejaVuSans-5f" transform="scale(0.015625)"/>
      <path d="M 2906 2969 
L 2906 4863 
L 3481 4863 
L 3481 0 
L 2906 0 
L 2906 525 
Q 2725 213 2448 61 
Q 2172 -91 1784 -91 
Q 1150 -91 751 415 
Q 353 922 353 1747 
Q 353 2572 751 3078 
Q 1150 3584 1784 3584 
Q 2172 3584 2448 3432 
Q 2725 3281 2906 2969 
z
M 947 1747 
Q 947 1113 1208 752 
Q 1469 391 1925 391 
Q 2381 391 2643 752 
Q 2906 1113 2906 1747 
Q 2906 2381 2643 2742 
Q 2381 3103 1925 3103 
Q 1469 3103 1208 2742 
Q 947 2381 947 1747 
z
" id="DejaVuSans-64" transform="scale(0.015625)"/>
      <path d="M 2631 2963 
Q 2534 3019 2420 3045 
Q 2306 3072 2169 3072 
Q 1681 3072 1420 2755 
Q 1159 2438 1159 1844 
L 1159 0 
L 581 0 
L 581 3500 
L 1159 3500 
L 1159 2956 
Q 1341 3275 1631 3429 
Q 1922 3584 2338 3584 
Q 2397 3584 2469 3576 
Q 2541 3569 2628 3553 
L 2631 2963 
z
" id="DejaVuSans-72" transform="scale(0.015625)"/>
      <path d="M 2834 3397 
L 2834 2853 
Q 2591 2978 2328 3040 
Q 2066 3103 1784 3103 
Q 1356 3103 1142 2972 
Q 928 2841 928 2578 
Q 928 2378 1081 2264 
Q 1234 2150 1697 2047 
L 1894 2003 
Q 2506 1872 2764 1633 
Q 3022 1394 3022 966 
Q 3022 478 2636 193 
Q 2250 -91 1575 -91 
Q 1294 -91 989 -36 
Q 684 19 347 128 
L 347 722 
Q 666 556 975 473 
Q 1284 391 1588 391 
Q 1994 391 2212 530 
Q 2431 669 2431 922 
Q 2431 1156 2273 1281 
Q 2116 1406 1581 1522 
L 1381 1569 
Q 847 1681 609 1914 
Q 372 2147 372 2553 
Q 372 3047 722 3315 
Q 1072 3584 1716 3584 
Q 2034 3584 2315 3537 
Q 2597 3491 2834 3397 
z
" id="DejaVuSans-73" transform="scale(0.015625)"/>
     </defs>
     <use xlink:href="#DejaVuSans-54"/>
     <use x="45.458984" xlink:href="#DejaVuSans-79"/>
     <use x="104.638672" xlink:href="#DejaVuSans-70"/>
     <use x="168.115234" xlink:href="#DejaVuSans-65"/>
     <use x="229.638672" xlink:href="#DejaVuSans-31"/>
     <use x="293.261719" xlink:href="#DejaVuSans-5f"/>
     <use x="343.261719" xlink:href="#DejaVuSans-64"/>
     <use x="406.738281" xlink:href="#DejaVuSans-65"/>
     <use x="468.261719" xlink:href="#DejaVuSans-70"/>
     <use x="531.738281" xlink:href="#DejaVuSans-72"/>
     <use x="570.601562" xlink:href="#DejaVuSans-65"/>
     <use x="632.125" xlink:href="#DejaVuSans-73"/>
     <use x="684.224609" xlink:href="#DejaVuSans-73"/>
     <use x="736.324219" xlink:href="#DejaVuSans-65"/>
     <use x="797.847656" xlink:href="#DejaVuSans-64"/>
    </g>
   </g>
   <g id="legend_1">
    <g id="patch_9">
     <path d="M 351.635625 78.82825 
L 407.72 78.82825 
Q 409.72 78.82825 409.72 76.82825 
L 409.72 48.472 
Q 409.72 46.472 407.72 46.472 
L 351.635625 46.472 
Q 349.635625 46.472 349.635625 48.472 
L 349.635625 76.82825 
Q 349.635625 78.82825 351.635625 78.82825 
z
" style="fill:#ffffff;opacity:0.8;stroke:#cccccc;stroke-linejoin:miter;"/>
    </g>
    <g id="line2d_38">
     <path d="M 353.635625 54.570437 
L 373.635625 54.570437 
" style="fill:none;stroke:#1f77b4;stroke-linecap:square;stroke-width:1.5;"/>
    </g>
    <g id="line2d_39"/>
    <g id="text_19">
     <!-- coop -->
     <g transform="translate(381.635625 58.070437)scale(0.1 -0.1)">
      <use xlink:href="#DejaVuSans-63"/>
      <use x="54.980469" xlink:href="#DejaVuSans-6f"/>
      <use x="116.162109" xlink:href="#DejaVuSans-6f"/>
      <use x="177.34375" xlink:href="#DejaVuSans-70"/>
     </g>
    </g>
    <g id="line2d_40">
     <path d="M 353.635625 69.248562 
L 373.635625 69.248562 
" style="fill:none;stroke:#ff0000;stroke-linecap:square;stroke-width:1.5;"/>
    </g>
    <g id="line2d_41"/>
    <g id="text_20">
     <!-- host -->
     <g transform="translate(381.635625 72.748562)scale(0.1 -0.1)">
      <defs>
       <path d="M 3513 2113 
L 3513 0 
L 2938 0 
L 2938 2094 
Q 2938 2591 2744 2837 
Q 2550 3084 2163 3084 
Q 1697 3084 1428 2787 
Q 1159 2491 1159 1978 
L 1159 0 
L 581 0 
L 581 4863 
L 1159 4863 
L 1159 2956 
Q 1366 3272 1645 3428 
Q 1925 3584 2291 3584 
Q 2894 3584 3203 3211 
Q 3513 2838 3513 2113 
z
" id="DejaVuSans-68" transform="scale(0.015625)"/>
      </defs>
      <use xlink:href="#DejaVuSans-68"/>
      <use x="63.378906" xlink:href="#DejaVuSans-6f"/>
      <use x="124.560547" xlink:href="#DejaVuSans-73"/>
      <use x="176.660156" xlink:href="#DejaVuSans-74"/>
     </g>
    </g>
   </g>
  </g>
 </g>
 <defs>
  <clipPath id="p9e68bfaab9">
   <rect height="266.112" width="357.12" x="57.6" y="41.472"/>
  </clipPath>
 </defs>
</svg>
