<?xml version="1.0" encoding="utf-8" standalone="no"?>
<!DOCTYPE svg PUBLIC "-//W3C//DTD SVG 1.1//EN"
  "http://www.w3.org/Graphics/SVG/1.1/DTD/svg11.dtd">
<svg height="345.6pt" version="1.1" viewBox="0 0 460.8 345.6" width="460.8pt" xmlns="http://www.w3.org/2000/svg" xmlns:xlink="http://www.w3.org/1999/xlink">
 <metadata>
  <rdf:RDF xmlns:cc="http://creativecommons.org/ns#" xmlns:dc="http://purl.org/dc/elements/1.1/" xmlns:rdf="http://www.w3.org/1999/02/22-rdf-syntax-ns#">
   <cc:Work>
    <dc:type rdf:resource="http://purl.org/dc/dcmitype/StillImage"/>
    <dc:date>2023-09-18T18:01:06.078664</dc:date>
    <dc:format>image/svg+xml</dc:format>
    <dc:creator>
     <cc:Agent>
      <dc:title>Matplotlib v3.4.1, https://matplotlib.org/</dc:title>
     </cc:Agent>
    </dc:creator>
   </cc:Work>
  </rdf:RDF>
 </metadata>
 <defs>
  <style type="text/css">*{stroke-linecap:butt;stroke-linejoin:round;}</style>
 </defs>
 <g id="figure_1">
  <g id="patch_1">
   <path d="M 0 345.6 
L 460.8 345.6 
L 460.8 0 
L 0 0 
z
" style="fill:#ffffff;"/>
  </g>
  <g id="axes_1">
   <g id="patch_2">
    <path d="M 57.6 307.584 
L 414.72 307.584 
L 414.72 41.472 
L 57.6 41.472 
z
" style="fill:#ffffff;"/>
   </g>
   <g id="patch_3">
    <path clip-path="url(#pda329b5244)" d="M 73.832727 307.584 
L 73.832727 41.472 
L 236.16 41.472 
L 236.16 307.584 
z
" style="fill:#ff7f50;opacity:0.2;"/>
   </g>
   <g id="patch_4">
    <path clip-path="url(#pda329b5244)" d="M 236.16 307.584 
L 236.16 41.472 
L 398.487273 41.472 
L 398.487273 307.584 
z
" style="fill:#add8e6;opacity:0.2;"/>
   </g>
   <g id="matplotlib.axis_1">
    <g id="xtick_1">
     <g id="line2d_1">
      <defs>
       <path d="M 0 0 
L 0 3.5 
" id="ma92efd632b" style="stroke:#000000;stroke-width:0.8;"/>
      </defs>
      <g>
       <use style="stroke:#000000;stroke-width:0.8;" x="73.832727" xlink:href="#ma92efd632b" y="307.584"/>
      </g>
     </g>
     <g id="text_1">
      <!-- 0 -->
      <g transform="translate(70.651477 322.182437)scale(0.1 -0.1)">
       <defs>
        <path d="M 2034 4250 
Q 1547 4250 1301 3770 
Q 1056 3291 1056 2328 
Q 1056 1369 1301 889 
Q 1547 409 2034 409 
Q 2525 409 2770 889 
Q 3016 1369 3016 2328 
Q 3016 3291 2770 3770 
Q 2525 4250 2034 4250 
z
M 2034 4750 
Q 2819 4750 3233 4129 
Q 3647 3509 3647 2328 
Q 3647 1150 3233 529 
Q 2819 -91 2034 -91 
Q 1250 -91 836 529 
Q 422 1150 422 2328 
Q 422 3509 836 4129 
Q 1250 4750 2034 4750 
z
" id="DejaVuSans-30" transform="scale(0.015625)"/>
       </defs>
       <use xlink:href="#DejaVuSans-30"/>
      </g>
     </g>
    </g>
    <g id="xtick_2">
     <g id="line2d_2">
      <g>
       <use style="stroke:#000000;stroke-width:0.8;" x="114.414545" xlink:href="#ma92efd632b" y="307.584"/>
      </g>
     </g>
     <g id="text_2">
      <!-- 5 -->
      <g transform="translate(111.233295 322.182437)scale(0.1 -0.1)">
       <defs>
        <path d="M 691 4666 
L 3169 4666 
L 3169 4134 
L 1269 4134 
L 1269 2991 
Q 1406 3038 1543 3061 
Q 1681 3084 1819 3084 
Q 2600 3084 3056 2656 
Q 3513 2228 3513 1497 
Q 3513 744 3044 326 
Q 2575 -91 1722 -91 
Q 1428 -91 1123 -41 
Q 819 9 494 109 
L 494 744 
Q 775 591 1075 516 
Q 1375 441 1709 441 
Q 2250 441 2565 725 
Q 2881 1009 2881 1497 
Q 2881 1984 2565 2268 
Q 2250 2553 1709 2553 
Q 1456 2553 1204 2497 
Q 953 2441 691 2322 
L 691 4666 
z
" id="DejaVuSans-35" transform="scale(0.015625)"/>
       </defs>
       <use xlink:href="#DejaVuSans-35"/>
      </g>
     </g>
    </g>
    <g id="xtick_3">
     <g id="line2d_3">
      <g>
       <use style="stroke:#000000;stroke-width:0.8;" x="154.996364" xlink:href="#ma92efd632b" y="307.584"/>
      </g>
     </g>
     <g id="text_3">
      <!-- 10 -->
      <g transform="translate(148.633864 322.182437)scale(0.1 -0.1)">
       <defs>
        <path d="M 794 531 
L 1825 531 
L 1825 4091 
L 703 3866 
L 703 4441 
L 1819 4666 
L 2450 4666 
L 2450 531 
L 3481 531 
L 3481 0 
L 794 0 
L 794 531 
z
" id="DejaVuSans-31" transform="scale(0.015625)"/>
       </defs>
       <use xlink:href="#DejaVuSans-31"/>
       <use x="63.623047" xlink:href="#DejaVuSans-30"/>
      </g>
     </g>
    </g>
    <g id="xtick_4">
     <g id="line2d_4">
      <g>
       <use style="stroke:#000000;stroke-width:0.8;" x="195.578182" xlink:href="#ma92efd632b" y="307.584"/>
      </g>
     </g>
     <g id="text_4">
      <!-- 15 -->
      <g transform="translate(189.215682 322.182437)scale(0.1 -0.1)">
       <use xlink:href="#DejaVuSans-31"/>
       <use x="63.623047" xlink:href="#DejaVuSans-35"/>
      </g>
     </g>
    </g>
    <g id="xtick_5">
     <g id="line2d_5">
      <g>
       <use style="stroke:#000000;stroke-width:0.8;" x="236.16" xlink:href="#ma92efd632b" y="307.584"/>
      </g>
     </g>
     <g id="text_5">
      <!-- 20 -->
      <g transform="translate(229.7975 322.182437)scale(0.1 -0.1)">
       <defs>
        <path d="M 1228 531 
L 3431 531 
L 3431 0 
L 469 0 
L 469 531 
Q 828 903 1448 1529 
Q 2069 2156 2228 2338 
Q 2531 2678 2651 2914 
Q 2772 3150 2772 3378 
Q 2772 3750 2511 3984 
Q 2250 4219 1831 4219 
Q 1534 4219 1204 4116 
Q 875 4013 500 3803 
L 500 4441 
Q 881 4594 1212 4672 
Q 1544 4750 1819 4750 
Q 2544 4750 2975 4387 
Q 3406 4025 3406 3419 
Q 3406 3131 3298 2873 
Q 3191 2616 2906 2266 
Q 2828 2175 2409 1742 
Q 1991 1309 1228 531 
z
" id="DejaVuSans-32" transform="scale(0.015625)"/>
       </defs>
       <use xlink:href="#DejaVuSans-32"/>
       <use x="63.623047" xlink:href="#DejaVuSans-30"/>
      </g>
     </g>
    </g>
    <g id="xtick_6">
     <g id="line2d_6">
      <g>
       <use style="stroke:#000000;stroke-width:0.8;" x="276.741818" xlink:href="#ma92efd632b" y="307.584"/>
      </g>
     </g>
     <g id="text_6">
      <!-- 25 -->
      <g transform="translate(270.379318 322.182437)scale(0.1 -0.1)">
       <use xlink:href="#DejaVuSans-32"/>
       <use x="63.623047" xlink:href="#DejaVuSans-35"/>
      </g>
     </g>
    </g>
    <g id="xtick_7">
     <g id="line2d_7">
      <g>
       <use style="stroke:#000000;stroke-width:0.8;" x="317.323636" xlink:href="#ma92efd632b" y="307.584"/>
      </g>
     </g>
     <g id="text_7">
      <!-- 30 -->
      <g transform="translate(310.961136 322.182437)scale(0.1 -0.1)">
       <defs>
        <path d="M 2597 2516 
Q 3050 2419 3304 2112 
Q 3559 1806 3559 1356 
Q 3559 666 3084 287 
Q 2609 -91 1734 -91 
Q 1441 -91 1130 -33 
Q 819 25 488 141 
L 488 750 
Q 750 597 1062 519 
Q 1375 441 1716 441 
Q 2309 441 2620 675 
Q 2931 909 2931 1356 
Q 2931 1769 2642 2001 
Q 2353 2234 1838 2234 
L 1294 2234 
L 1294 2753 
L 1863 2753 
Q 2328 2753 2575 2939 
Q 2822 3125 2822 3475 
Q 2822 3834 2567 4026 
Q 2313 4219 1838 4219 
Q 1578 4219 1281 4162 
Q 984 4106 628 3988 
L 628 4550 
Q 988 4650 1302 4700 
Q 1616 4750 1894 4750 
Q 2613 4750 3031 4423 
Q 3450 4097 3450 3541 
Q 3450 3153 3228 2886 
Q 3006 2619 2597 2516 
z
" id="DejaVuSans-33" transform="scale(0.015625)"/>
       </defs>
       <use xlink:href="#DejaVuSans-33"/>
       <use x="63.623047" xlink:href="#DejaVuSans-30"/>
      </g>
     </g>
    </g>
    <g id="xtick_8">
     <g id="line2d_8">
      <g>
       <use style="stroke:#000000;stroke-width:0.8;" x="357.905455" xlink:href="#ma92efd632b" y="307.584"/>
      </g>
     </g>
     <g id="text_8">
      <!-- 35 -->
      <g transform="translate(351.542955 322.182437)scale(0.1 -0.1)">
       <use xlink:href="#DejaVuSans-33"/>
       <use x="63.623047" xlink:href="#DejaVuSans-35"/>
      </g>
     </g>
    </g>
    <g id="xtick_9">
     <g id="line2d_9">
      <g>
       <use style="stroke:#000000;stroke-width:0.8;" x="398.487273" xlink:href="#ma92efd632b" y="307.584"/>
      </g>
     </g>
     <g id="text_9">
      <!-- 40 -->
      <g transform="translate(392.124773 322.182437)scale(0.1 -0.1)">
       <defs>
        <path d="M 2419 4116 
L 825 1625 
L 2419 1625 
L 2419 4116 
z
M 2253 4666 
L 3047 4666 
L 3047 1625 
L 3713 1625 
L 3713 1100 
L 3047 1100 
L 3047 0 
L 2419 0 
L 2419 1100 
L 313 1100 
L 313 1709 
L 2253 4666 
z
" id="DejaVuSans-34" transform="scale(0.015625)"/>
       </defs>
       <use xlink:href="#DejaVuSans-34"/>
       <use x="63.623047" xlink:href="#DejaVuSans-30"/>
      </g>
     </g>
    </g>
    <g id="text_10">
     <!-- t -->
     <g transform="translate(234.199844 335.860562)scale(0.1 -0.1)">
      <defs>
       <path d="M 1172 4494 
L 1172 3500 
L 2356 3500 
L 2356 3053 
L 1172 3053 
L 1172 1153 
Q 1172 725 1289 603 
Q 1406 481 1766 481 
L 2356 481 
L 2356 0 
L 1766 0 
Q 1100 0 847 248 
Q 594 497 594 1153 
L 594 3053 
L 172 3053 
L 172 3500 
L 594 3500 
L 594 4494 
L 1172 4494 
z
" id="DejaVuSans-74" transform="scale(0.015625)"/>
      </defs>
      <use xlink:href="#DejaVuSans-74"/>
     </g>
    </g>
   </g>
   <g id="matplotlib.axis_2">
    <g id="ytick_1">
     <g id="line2d_10">
      <defs>
       <path d="M 0 0 
L -3.5 0 
" id="m565818ce09" style="stroke:#000000;stroke-width:0.8;"/>
      </defs>
      <g>
       <use style="stroke:#000000;stroke-width:0.8;" x="57.6" xlink:href="#m565818ce09" y="296.254655"/>
      </g>
     </g>
     <g id="text_11">
      <!-- 0.0 -->
      <g transform="translate(34.696875 300.053873)scale(0.1 -0.1)">
       <defs>
        <path d="M 684 794 
L 1344 794 
L 1344 0 
L 684 0 
L 684 794 
z
" id="DejaVuSans-2e" transform="scale(0.015625)"/>
       </defs>
       <use xlink:href="#DejaVuSans-30"/>
       <use x="63.623047" xlink:href="#DejaVuSans-2e"/>
       <use x="95.410156" xlink:href="#DejaVuSans-30"/>
      </g>
     </g>
    </g>
    <g id="ytick_2">
     <g id="line2d_11">
      <g>
       <use style="stroke:#000000;stroke-width:0.8;" x="57.6" xlink:href="#m565818ce09" y="246.898367"/>
      </g>
     </g>
     <g id="text_12">
      <!-- 0.2 -->
      <g transform="translate(34.696875 250.697586)scale(0.1 -0.1)">
       <use xlink:href="#DejaVuSans-30"/>
       <use x="63.623047" xlink:href="#DejaVuSans-2e"/>
       <use x="95.410156" xlink:href="#DejaVuSans-32"/>
      </g>
     </g>
    </g>
    <g id="ytick_3">
     <g id="line2d_12">
      <g>
       <use style="stroke:#000000;stroke-width:0.8;" x="57.6" xlink:href="#m565818ce09" y="197.54208"/>
      </g>
     </g>
     <g id="text_13">
      <!-- 0.4 -->
      <g transform="translate(34.696875 201.341298)scale(0.1 -0.1)">
       <use xlink:href="#DejaVuSans-30"/>
       <use x="63.623047" xlink:href="#DejaVuSans-2e"/>
       <use x="95.410156" xlink:href="#DejaVuSans-34"/>
      </g>
     </g>
    </g>
    <g id="ytick_4">
     <g id="line2d_13">
      <g>
       <use style="stroke:#000000;stroke-width:0.8;" x="57.6" xlink:href="#m565818ce09" y="148.185792"/>
      </g>
     </g>
     <g id="text_14">
      <!-- 0.6 -->
      <g transform="translate(34.696875 151.985011)scale(0.1 -0.1)">
       <defs>
        <path d="M 2113 2584 
Q 1688 2584 1439 2293 
Q 1191 2003 1191 1497 
Q 1191 994 1439 701 
Q 1688 409 2113 409 
Q 2538 409 2786 701 
Q 3034 994 3034 1497 
Q 3034 2003 2786 2293 
Q 2538 2584 2113 2584 
z
M 3366 4563 
L 3366 3988 
Q 3128 4100 2886 4159 
Q 2644 4219 2406 4219 
Q 1781 4219 1451 3797 
Q 1122 3375 1075 2522 
Q 1259 2794 1537 2939 
Q 1816 3084 2150 3084 
Q 2853 3084 3261 2657 
Q 3669 2231 3669 1497 
Q 3669 778 3244 343 
Q 2819 -91 2113 -91 
Q 1303 -91 875 529 
Q 447 1150 447 2328 
Q 447 3434 972 4092 
Q 1497 4750 2381 4750 
Q 2619 4750 2861 4703 
Q 3103 4656 3366 4563 
z
" id="DejaVuSans-36" transform="scale(0.015625)"/>
       </defs>
       <use xlink:href="#DejaVuSans-30"/>
       <use x="63.623047" xlink:href="#DejaVuSans-2e"/>
       <use x="95.410156" xlink:href="#DejaVuSans-36"/>
      </g>
     </g>
    </g>
    <g id="ytick_5">
     <g id="line2d_14">
      <g>
       <use style="stroke:#000000;stroke-width:0.8;" x="57.6" xlink:href="#m565818ce09" y="98.829505"/>
      </g>
     </g>
     <g id="text_15">
      <!-- 0.8 -->
      <g transform="translate(34.696875 102.628724)scale(0.1 -0.1)">
       <defs>
        <path d="M 2034 2216 
Q 1584 2216 1326 1975 
Q 1069 1734 1069 1313 
Q 1069 891 1326 650 
Q 1584 409 2034 409 
Q 2484 409 2743 651 
Q 3003 894 3003 1313 
Q 3003 1734 2745 1975 
Q 2488 2216 2034 2216 
z
M 1403 2484 
Q 997 2584 770 2862 
Q 544 3141 544 3541 
Q 544 4100 942 4425 
Q 1341 4750 2034 4750 
Q 2731 4750 3128 4425 
Q 3525 4100 3525 3541 
Q 3525 3141 3298 2862 
Q 3072 2584 2669 2484 
Q 3125 2378 3379 2068 
Q 3634 1759 3634 1313 
Q 3634 634 3220 271 
Q 2806 -91 2034 -91 
Q 1263 -91 848 271 
Q 434 634 434 1313 
Q 434 1759 690 2068 
Q 947 2378 1403 2484 
z
M 1172 3481 
Q 1172 3119 1398 2916 
Q 1625 2713 2034 2713 
Q 2441 2713 2670 2916 
Q 2900 3119 2900 3481 
Q 2900 3844 2670 4047 
Q 2441 4250 2034 4250 
Q 1625 4250 1398 4047 
Q 1172 3844 1172 3481 
z
" id="DejaVuSans-38" transform="scale(0.015625)"/>
       </defs>
       <use xlink:href="#DejaVuSans-30"/>
       <use x="63.623047" xlink:href="#DejaVuSans-2e"/>
       <use x="95.410156" xlink:href="#DejaVuSans-38"/>
      </g>
     </g>
    </g>
    <g id="ytick_6">
     <g id="line2d_15">
      <g>
       <use style="stroke:#000000;stroke-width:0.8;" x="57.6" xlink:href="#m565818ce09" y="49.473217"/>
      </g>
     </g>
     <g id="text_16">
      <!-- 1.0 -->
      <g transform="translate(34.696875 53.272436)scale(0.1 -0.1)">
       <use xlink:href="#DejaVuSans-31"/>
       <use x="63.623047" xlink:href="#DejaVuSans-2e"/>
       <use x="95.410156" xlink:href="#DejaVuSans-30"/>
      </g>
     </g>
    </g>
    <g id="text_17">
     <!-- p(context) -->
     <g transform="translate(28.617187 200.449875)rotate(-90)scale(0.1 -0.1)">
      <defs>
       <path d="M 1159 525 
L 1159 -1331 
L 581 -1331 
L 581 3500 
L 1159 3500 
L 1159 2969 
Q 1341 3281 1617 3432 
Q 1894 3584 2278 3584 
Q 2916 3584 3314 3078 
Q 3713 2572 3713 1747 
Q 3713 922 3314 415 
Q 2916 -91 2278 -91 
Q 1894 -91 1617 61 
Q 1341 213 1159 525 
z
M 3116 1747 
Q 3116 2381 2855 2742 
Q 2594 3103 2138 3103 
Q 1681 3103 1420 2742 
Q 1159 2381 1159 1747 
Q 1159 1113 1420 752 
Q 1681 391 2138 391 
Q 2594 391 2855 752 
Q 3116 1113 3116 1747 
z
" id="DejaVuSans-70" transform="scale(0.015625)"/>
       <path d="M 1984 4856 
Q 1566 4138 1362 3434 
Q 1159 2731 1159 2009 
Q 1159 1288 1364 580 
Q 1569 -128 1984 -844 
L 1484 -844 
Q 1016 -109 783 600 
Q 550 1309 550 2009 
Q 550 2706 781 3412 
Q 1013 4119 1484 4856 
L 1984 4856 
z
" id="DejaVuSans-28" transform="scale(0.015625)"/>
       <path d="M 3122 3366 
L 3122 2828 
Q 2878 2963 2633 3030 
Q 2388 3097 2138 3097 
Q 1578 3097 1268 2742 
Q 959 2388 959 1747 
Q 959 1106 1268 751 
Q 1578 397 2138 397 
Q 2388 397 2633 464 
Q 2878 531 3122 666 
L 3122 134 
Q 2881 22 2623 -34 
Q 2366 -91 2075 -91 
Q 1284 -91 818 406 
Q 353 903 353 1747 
Q 353 2603 823 3093 
Q 1294 3584 2113 3584 
Q 2378 3584 2631 3529 
Q 2884 3475 3122 3366 
z
" id="DejaVuSans-63" transform="scale(0.015625)"/>
       <path d="M 1959 3097 
Q 1497 3097 1228 2736 
Q 959 2375 959 1747 
Q 959 1119 1226 758 
Q 1494 397 1959 397 
Q 2419 397 2687 759 
Q 2956 1122 2956 1747 
Q 2956 2369 2687 2733 
Q 2419 3097 1959 3097 
z
M 1959 3584 
Q 2709 3584 3137 3096 
Q 3566 2609 3566 1747 
Q 3566 888 3137 398 
Q 2709 -91 1959 -91 
Q 1206 -91 779 398 
Q 353 888 353 1747 
Q 353 2609 779 3096 
Q 1206 3584 1959 3584 
z
" id="DejaVuSans-6f" transform="scale(0.015625)"/>
       <path d="M 3513 2113 
L 3513 0 
L 2938 0 
L 2938 2094 
Q 2938 2591 2744 2837 
Q 2550 3084 2163 3084 
Q 1697 3084 1428 2787 
Q 1159 2491 1159 1978 
L 1159 0 
L 581 0 
L 581 3500 
L 1159 3500 
L 1159 2956 
Q 1366 3272 1645 3428 
Q 1925 3584 2291 3584 
Q 2894 3584 3203 3211 
Q 3513 2838 3513 2113 
z
" id="DejaVuSans-6e" transform="scale(0.015625)"/>
       <path d="M 3597 1894 
L 3597 1613 
L 953 1613 
Q 991 1019 1311 708 
Q 1631 397 2203 397 
Q 2534 397 2845 478 
Q 3156 559 3463 722 
L 3463 178 
Q 3153 47 2828 -22 
Q 2503 -91 2169 -91 
Q 1331 -91 842 396 
Q 353 884 353 1716 
Q 353 2575 817 3079 
Q 1281 3584 2069 3584 
Q 2775 3584 3186 3129 
Q 3597 2675 3597 1894 
z
M 3022 2063 
Q 3016 2534 2758 2815 
Q 2500 3097 2075 3097 
Q 1594 3097 1305 2825 
Q 1016 2553 972 2059 
L 3022 2063 
z
" id="DejaVuSans-65" transform="scale(0.015625)"/>
       <path d="M 3513 3500 
L 2247 1797 
L 3578 0 
L 2900 0 
L 1881 1375 
L 863 0 
L 184 0 
L 1544 1831 
L 300 3500 
L 978 3500 
L 1906 2253 
L 2834 3500 
L 3513 3500 
z
" id="DejaVuSans-78" transform="scale(0.015625)"/>
       <path d="M 513 4856 
L 1013 4856 
Q 1481 4119 1714 3412 
Q 1947 2706 1947 2009 
Q 1947 1309 1714 600 
Q 1481 -109 1013 -844 
L 513 -844 
Q 928 -128 1133 580 
Q 1338 1288 1338 2009 
Q 1338 2731 1133 3434 
Q 928 4138 513 4856 
z
" id="DejaVuSans-29" transform="scale(0.015625)"/>
      </defs>
      <use xlink:href="#DejaVuSans-70"/>
      <use x="63.476562" xlink:href="#DejaVuSans-28"/>
      <use x="102.490234" xlink:href="#DejaVuSans-63"/>
      <use x="157.470703" xlink:href="#DejaVuSans-6f"/>
      <use x="218.652344" xlink:href="#DejaVuSans-6e"/>
      <use x="282.03125" xlink:href="#DejaVuSans-74"/>
      <use x="321.240234" xlink:href="#DejaVuSans-65"/>
      <use x="381.013672" xlink:href="#DejaVuSans-78"/>
      <use x="440.193359" xlink:href="#DejaVuSans-74"/>
      <use x="479.402344" xlink:href="#DejaVuSans-29"/>
     </g>
    </g>
   </g>
   <g id="line2d_16">
    <path clip-path="url(#pda329b5244)" d="M 73.832727 148.185792 
L 81.949091 68.616682 
L 90.065455 216.738877 
L 98.181818 84.984589 
L 106.298182 212.318665 
L 114.414545 93.443328 
L 122.530909 204.546417 
L 130.647273 238.476921 
L 138.763636 250.573056 
L 146.88 257.453982 
L 154.996364 262.438004 
L 163.112727 266.340474 
L 171.229091 131.033039 
L 179.345455 227.760195 
L 187.461818 253.642794 
L 195.578182 260.673003 
L 203.694545 263.706575 
L 211.810909 265.792642 
L 219.927273 267.531245 
L 228.043636 269.057158 
L 236.16 231.26382 
L 244.276364 121.408661 
L 252.392727 95.57287 
L 260.509091 88.297272 
L 268.625455 84.174842 
L 276.741818 80.924791 
L 284.858182 78.178211 
L 292.974545 75.822646 
L 301.090909 73.788428 
L 309.207273 72.021185 
L 317.323636 70.476897 
L 325.44 69.119735 
L 333.556364 67.920461 
L 341.672727 66.855135 
L 349.789091 65.904073 
L 357.905455 65.051011 
L 366.021818 64.282447 
L 374.138182 63.587109 
L 382.254545 62.955544 
L 390.370909 62.379777 
" style="fill:none;stroke:#add8e6;stroke-linecap:square;stroke-opacity:0.3;stroke-width:1.5;"/>
   </g>
   <g id="line2d_17">
    <path clip-path="url(#pda329b5244)" d="M 73.832727 148.185792 
L 81.949091 273.907175 
L 90.065455 289.640982 
L 98.181818 292.708614 
L 106.298182 293.860553 
L 114.414545 294.46212 
L 122.530909 294.830017 
L 130.647273 295.07703 
L 138.763636 295.253616 
L 146.88 170.495766 
L 154.996364 284.442052 
L 163.112727 293.727154 
L 171.229091 294.514658 
L 179.345455 279.372157 
L 187.461818 293.856552 
L 195.578182 279.878541 
L 203.694545 294.011405 
L 211.810909 280.725603 
L 219.927273 294.161026 
L 228.043636 281.459157 
L 236.16 275.275105 
L 244.276364 147.203212 
L 252.392727 88.02929 
L 260.509091 73.041537 
L 268.625455 67.192154 
L 276.741818 63.824881 
L 284.858182 61.558383 
L 292.974545 59.919678 
L 301.090909 58.679949 
L 309.207273 57.710133 
L 317.323636 56.931317 
L 325.44 56.292499 
L 333.556364 55.759266 
L 341.672727 55.307572 
L 349.789091 54.92012 
L 357.905455 54.584156 
L 366.021818 54.290074 
L 374.138182 54.030509 
L 382.254545 246.763263 
L 390.370909 93.96615 
" style="fill:none;stroke:#add8e6;stroke-linecap:square;stroke-opacity:0.3;stroke-width:1.5;"/>
   </g>
   <g id="line2d_18">
    <path clip-path="url(#pda329b5244)" d="M 73.832727 148.185792 
L 81.949091 273.907175 
L 90.065455 112.880033 
L 98.181818 257.453232 
L 106.298182 281.943804 
L 114.414545 287.18867 
L 122.530909 289.469522 
L 130.647273 290.846817 
L 138.763636 291.781295 
L 146.88 166.231875 
L 154.996364 273.154628 
L 163.112727 288.048309 
L 171.229091 290.239415 
L 179.345455 290.985144 
L 187.461818 291.492957 
L 195.578182 291.906471 
L 203.694545 271.193252 
L 211.810909 290.30395 
L 219.927273 271.377582 
L 228.043636 290.58206 
L 236.16 272.367775 
L 244.276364 145.115311 
L 252.392727 92.443594 
L 260.509091 78.764419 
L 268.625455 72.910042 
L 276.741818 244.711766 
L 284.858182 123.970155 
L 292.974545 254.770683 
L 301.090909 141.575097 
L 309.207273 93.745346 
L 317.323636 81.418859 
L 325.44 76.994837 
L 333.556364 74.273386 
L 341.672727 72.127648 
L 349.789091 228.058911 
L 357.905455 277.83499 
L 366.021818 159.415825 
L 374.138182 257.373279 
L 382.254545 281.095253 
L 390.370909 251.270758 
" style="fill:none;stroke:#add8e6;stroke-linecap:square;stroke-opacity:0.3;stroke-width:1.5;"/>
   </g>
   <g id="line2d_19">
    <path clip-path="url(#pda329b5244)" d="M 73.832727 148.185792 
L 81.949091 273.907175 
L 90.065455 289.640982 
L 98.181818 292.708614 
L 106.298182 150.575173 
L 114.414545 276.050795 
L 122.530909 289.961176 
L 130.647273 291.920423 
L 138.763636 292.706005 
L 146.88 293.23143 
L 154.996364 293.625403 
L 163.112727 293.9326 
L 171.229091 294.178278 
L 179.345455 294.378764 
L 187.461818 278.829483 
L 195.578182 293.598771 
L 203.694545 279.250924 
L 211.810909 293.756965 
L 219.927273 280.077183 
L 228.043636 293.914659 
L 236.16 280.800456 
L 244.276364 141.639345 
L 252.392727 82.307354 
L 260.509091 69.875942 
L 268.625455 252.632757 
L 276.741818 120.282461 
L 284.858182 76.624307 
L 292.974545 68.52661 
L 301.090909 65.576299 
L 309.207273 63.627675 
L 317.323636 62.119726 
L 325.44 60.905003 
L 333.556364 59.905919 
L 341.672727 59.070843 
L 349.789091 58.363261 
L 357.905455 232.009767 
L 366.021818 95.968046 
L 374.138182 63.678972 
L 382.254545 59.656729 
L 390.370909 222.590186 
" style="fill:none;stroke:#add8e6;stroke-linecap:square;stroke-opacity:0.3;stroke-width:1.5;"/>
   </g>
   <g id="line2d_20">
    <path clip-path="url(#pda329b5244)" d="M 73.832727 148.185792 
L 81.949091 68.616682 
L 90.065455 216.738877 
L 98.181818 264.74632 
L 106.298182 278.788038 
L 114.414545 284.525482 
L 122.530909 287.515079 
L 130.647273 289.324423 
L 138.763636 290.528905 
L 146.88 143.387316 
L 154.996364 260.72887 
L 163.112727 284.115019 
L 171.229091 288.017131 
L 179.345455 289.154585 
L 187.461818 289.834172 
L 195.578182 157.983521 
L 203.694545 92.963099 
L 211.810909 237.723095 
L 219.927273 277.229609 
L 228.043636 253.889022 
L 236.16 241.996526 
L 244.276364 128.537732 
L 252.392727 91.677475 
L 260.509091 232.198232 
L 268.625455 130.762263 
L 276.741818 96.613781 
L 284.858182 86.862192 
L 292.974545 82.360376 
L 301.090909 79.172197 
L 309.207273 76.556983 
L 317.323636 74.332526 
L 325.44 72.417714 
L 333.556364 70.757174 
L 341.672727 69.307756 
L 349.789091 220.35797 
L 357.905455 107.598614 
L 366.021818 233.434472 
L 374.138182 272.41114 
L 382.254545 280.943554 
L 390.370909 239.886316 
" style="fill:none;stroke:#add8e6;stroke-linecap:square;stroke-opacity:0.3;stroke-width:1.5;"/>
   </g>
   <g id="line2d_21">
    <path clip-path="url(#pda329b5244)" d="M 73.832727 148.185792 
L 81.949091 273.907175 
L 90.065455 289.640982 
L 98.181818 292.708614 
L 106.298182 293.860553 
L 114.414545 294.46212 
L 122.530909 294.830017 
L 130.647273 295.07703 
L 138.763636 295.253616 
L 146.88 295.385714 
L 154.996364 295.488 
L 163.112727 284.00544 
L 171.229091 295.131375 
L 179.345455 284.559199 
L 187.461818 295.219556 
L 195.578182 285.272443 
L 203.694545 295.29923 
L 211.810909 285.871416 
L 219.927273 131.350715 
L 228.043636 281.016353 
L 236.16 274.623075 
L 244.276364 123.285688 
L 252.392727 74.57536 
L 260.509091 66.216402 
L 268.625455 244.825688 
L 276.741818 104.38726 
L 284.858182 251.312431 
L 292.974545 287.225616 
L 301.090909 271.986184 
L 309.207273 261.685803 
L 317.323636 119.431122 
L 325.44 252.532391 
L 333.556364 125.326523 
L 341.672727 81.384273 
L 349.789091 72.994609 
L 357.905455 222.375233 
L 366.021818 112.698256 
L 374.138182 80.219163 
L 382.254545 218.868042 
L 390.370909 117.949323 
" style="fill:none;stroke:#add8e6;stroke-linecap:square;stroke-opacity:0.3;stroke-width:1.5;"/>
   </g>
   <g id="line2d_22">
    <path clip-path="url(#pda329b5244)" d="M 73.832727 148.185792 
L 81.949091 273.907175 
L 90.065455 289.640982 
L 98.181818 292.708614 
L 106.298182 150.575173 
L 114.414545 276.050795 
L 122.530909 289.961176 
L 130.647273 291.920423 
L 138.763636 292.706005 
L 146.88 293.23143 
L 154.996364 293.625403 
L 163.112727 293.9326 
L 171.229091 175.298045 
L 179.345455 280.281042 
L 187.461818 291.59594 
L 195.578182 272.676677 
L 203.694545 291.303968 
L 211.810909 273.532147 
L 219.927273 291.600704 
L 228.043636 274.529427 
L 236.16 266.898143 
L 244.276364 152.292422 
L 252.392727 276.081321 
L 260.509091 265.057747 
L 268.625455 151.084762 
L 276.741818 103.119648 
L 284.858182 88.16058 
L 292.974545 80.97758 
L 301.090909 76.191436 
L 309.207273 72.620346 
L 317.323636 69.844759 
L 325.44 243.94155 
L 333.556364 122.718357 
L 341.672727 81.214051 
L 349.789091 72.514744 
L 357.905455 69.758907 
L 366.021818 68.075333 
L 374.138182 66.717256 
L 382.254545 65.550227 
L 390.370909 64.530829 
" style="fill:none;stroke:#add8e6;stroke-linecap:square;stroke-opacity:0.3;stroke-width:1.5;"/>
   </g>
   <g id="line2d_23">
    <path clip-path="url(#pda329b5244)" d="M 73.832727 148.185792 
L 81.949091 273.907175 
L 90.065455 289.640982 
L 98.181818 292.708614 
L 106.298182 293.860553 
L 114.414545 294.46212 
L 122.530909 294.830017 
L 130.647273 295.07703 
L 138.763636 295.253616 
L 146.88 295.385714 
L 154.996364 171.430892 
L 163.112727 284.952933 
L 171.229091 160.438013 
L 179.345455 279.186339 
L 187.461818 292.025696 
L 195.578182 274.528442 
L 203.694545 291.996027 
L 211.810909 275.450612 
L 219.927273 292.259841 
L 228.043636 276.373213 
L 236.16 268.919632 
L 244.276364 152.771522 
L 252.392727 98.91192 
L 260.509091 82.515251 
L 268.625455 255.207633 
L 276.741818 144.117826 
L 284.858182 95.94498 
L 292.974545 82.455005 
L 301.090909 77.068519 
L 309.207273 73.671619 
L 317.323636 71.071312 
L 325.44 68.964231 
L 333.556364 237.93581 
L 341.672727 123.2931 
L 349.789091 81.947011 
L 357.905455 72.565395 
L 366.021818 230.870021 
L 374.138182 279.985936 
L 382.254545 166.879949 
L 390.370909 100.338589 
" style="fill:none;stroke:#add8e6;stroke-linecap:square;stroke-opacity:0.3;stroke-width:1.5;"/>
   </g>
   <g id="line2d_24">
    <path clip-path="url(#pda329b5244)" d="M 73.832727 148.185792 
L 81.949091 273.907175 
L 90.065455 112.880033 
L 98.181818 257.453232 
L 106.298182 281.943804 
L 114.414545 287.18867 
L 122.530909 289.469522 
L 130.647273 290.846817 
L 138.763636 291.781295 
L 146.88 166.231875 
L 154.996364 273.154628 
L 163.112727 288.048309 
L 171.229091 290.239415 
L 179.345455 176.44892 
L 187.461818 272.007997 
L 195.578182 286.390006 
L 203.694545 182.054537 
L 211.810909 269.604019 
L 219.927273 176.737031 
L 228.043636 132.156181 
L 236.16 194.381283 
L 244.276364 270.660906 
L 252.392727 177.530132 
L 260.509091 263.924951 
L 268.625455 180.106992 
L 276.741818 145.426593 
L 284.858182 132.443712 
L 292.974545 249.587908 
L 301.090909 175.176191 
L 309.207273 147.527973 
L 317.323636 137.477346 
L 325.44 132.565561 
L 333.556364 129.134514 
L 341.672727 245.515125 
L 349.789091 170.375585 
L 357.905455 145.107979 
L 366.021818 136.653166 
L 374.138182 132.923312 
L 382.254545 130.49813 
L 390.370909 128.477378 
" style="fill:none;stroke:#add8e6;stroke-linecap:square;stroke-opacity:0.3;stroke-width:1.5;"/>
   </g>
   <g id="line2d_25">
    <path clip-path="url(#pda329b5244)" d="M 73.832727 148.185792 
L 81.949091 273.907175 
L 90.065455 289.640982 
L 98.181818 292.708614 
L 106.298182 150.575173 
L 114.414545 276.050795 
L 122.530909 149.121297 
L 130.647273 98.027012 
L 138.763636 250.390617 
L 146.88 280.3144 
L 154.996364 285.560166 
L 163.112727 167.929246 
L 171.229091 263.368943 
L 179.345455 280.406623 
L 187.461818 173.928387 
L 195.578182 125.158717 
L 203.694545 246.186678 
L 211.810909 161.040775 
L 219.927273 249.775366 
L 228.043636 169.283813 
L 236.16 198.551296 
L 244.276364 150.778077 
L 252.392727 134.790625 
L 260.509091 128.165445 
L 268.625455 124.020443 
L 276.741818 120.633643 
L 284.858182 232.527454 
L 292.974545 156.958837 
L 301.090909 134.165207 
L 309.207273 126.897846 
L 317.323636 229.53613 
L 325.44 157.766237 
L 333.556364 137.423939 
L 341.672727 227.512194 
L 349.789091 160.336768 
L 357.905455 142.104973 
L 366.021818 136.704793 
L 374.138182 134.387356 
L 382.254545 224.197179 
L 390.370909 159.407202 
" style="fill:none;stroke:#add8e6;stroke-linecap:square;stroke-opacity:0.3;stroke-width:1.5;"/>
   </g>
   <g id="line2d_26">
    <path clip-path="url(#pda329b5244)" d="M 73.832727 209.881152 
L 81.949091 288.145933 
L 90.065455 153.927353 
L 98.181818 278.090705 
L 106.298182 157.768779 
L 114.414545 270.98686 
L 122.530909 164.471235 
L 130.647273 127.085136 
L 138.763636 112.418874 
L 146.88 103.574357 
L 154.996364 96.995109 
L 163.112727 91.769277 
L 171.229091 239.900351 
L 179.345455 134.68517 
L 187.461818 105.378293 
L 195.578182 97.028136 
L 203.694545 93.171398 
L 211.810909 90.418084 
L 219.927273 88.096103 
L 228.043636 86.050014 
L 236.16 130.596718 
L 244.276364 251.524417 
L 252.392727 272.396429 
L 260.509091 277.388466 
L 268.625455 279.987302 
L 276.741818 281.944484 
L 284.858182 283.543307 
L 292.974545 284.874506 
L 301.090909 285.99353 
L 309.207273 286.941902 
L 317.323636 287.751906 
L 325.44 288.448876 
L 333.556364 289.052816 
L 341.672727 289.579621 
L 349.789091 290.042011 
L 357.905455 290.450231 
L 366.021818 290.812596 
L 374.138182 291.135897 
L 382.254545 291.425719 
L 390.370909 291.686687 
" style="fill:none;stroke:#ff0000;stroke-linecap:square;stroke-opacity:0.1;stroke-width:1.5;"/>
   </g>
   <g id="line2d_27">
    <path clip-path="url(#pda329b5244)" d="M 73.832727 209.881152 
L 81.949091 91.509028 
L 90.065455 69.237106 
L 98.181818 62.338918 
L 106.298182 59.123774 
L 114.414545 57.255743 
L 122.530909 56.024918 
L 130.647273 55.148498 
L 138.763636 54.49099 
L 146.88 206.027647 
L 154.996364 73.949679 
L 163.112727 57.611532 
L 171.229091 55.744423 
L 179.345455 76.448058 
L 187.461818 56.876963 
L 195.578182 75.730674 
L 203.694545 56.509468 
L 211.810909 74.582268 
L 219.927273 56.16096 
L 228.043636 73.580127 
L 236.16 80.850672 
L 244.276364 225.760137 
L 252.392727 275.959578 
L 260.509091 286.211432 
L 268.625455 289.451874 
L 276.741818 291.100175 
L 284.858182 292.130778 
L 292.974545 292.836554 
L 301.090909 293.347489 
L 309.207273 293.732613 
L 317.323636 294.032148 
L 325.44 294.271052 
L 333.556364 294.465578 
L 341.672727 294.626731 
L 349.789091 294.76221 
L 357.905455 294.877551 
L 366.021818 294.97683 
L 374.138182 295.063108 
L 382.254545 126.703364 
L 390.370909 263.909124 
" style="fill:none;stroke:#ff0000;stroke-linecap:square;stroke-opacity:0.1;stroke-width:1.5;"/>
   </g>
   <g id="line2d_28">
    <path clip-path="url(#pda329b5244)" d="M 73.832727 209.881152 
L 81.949091 91.509028 
L 90.065455 254.383161 
L 98.181818 113.000841 
L 106.298182 80.436354 
L 114.414545 71.482709 
L 122.530909 67.050762 
L 130.647273 64.178396 
L 138.763636 62.12606 
L 146.88 208.470196 
L 154.996364 88.304962 
L 163.112727 67.395084 
L 171.229091 63.77898 
L 179.345455 62.346739 
L 187.461818 61.310914 
L 195.578182 60.447182 
L 203.694545 87.942566 
L 211.810909 62.668078 
L 219.927273 87.532672 
L 228.043636 62.145725 
L 236.16 86.215919 
L 244.276364 231.102329 
L 252.392727 273.996947 
L 260.509091 283.337725 
L 268.625455 286.728185 
L 276.741818 120.326706 
L 284.858182 244.123341 
L 292.974545 106.592881 
L 301.090909 227.048544 
L 309.207273 268.870633 
L 317.323636 278.829135 
L 325.44 281.975004 
L 333.556364 283.718181 
L 341.672727 285.029264 
L 349.789091 139.117393 
L 357.905455 78.361043 
L 366.021818 207.241084 
L 374.138182 102.782048 
L 382.254545 74.016306 
L 390.370909 108.471983 
" style="fill:none;stroke:#ff0000;stroke-linecap:square;stroke-opacity:0.1;stroke-width:1.5;"/>
   </g>
   <g id="line2d_29">
    <path clip-path="url(#pda329b5244)" d="M 73.832727 209.881152 
L 81.949091 91.509028 
L 90.065455 69.237106 
L 98.181818 62.338918 
L 106.298182 221.428463 
L 114.414545 87.619964 
L 122.530909 66.227847 
L 130.647273 62.207649 
L 138.763636 60.377885 
L 146.88 59.090886 
L 154.996364 58.0896 
L 163.112727 57.283979 
L 171.229091 56.62181 
L 179.345455 56.0682 
L 187.461818 77.687437 
L 195.578182 57.340976 
L 203.694545 77.028135 
L 211.810909 56.969365 
L 219.927273 75.885156 
L 228.043636 56.612307 
L 236.16 74.879481 
L 244.276364 236.050761 
L 252.392727 282.461678 
L 260.509091 289.685848 
L 268.625455 111.939695 
L 276.741818 248.376667 
L 284.858182 283.757978 
L 292.974545 289.191177 
L 301.090909 290.718244 
L 309.207273 291.601556 
L 317.323636 292.24674 
L 325.44 292.745928 
L 333.556364 293.142718 
L 341.672727 293.464524 
L 349.789091 293.729943 
L 357.905455 138.870772 
L 366.021818 263.839977 
L 374.138182 289.698858 
L 382.254545 292.638433 
L 390.370909 146.947285 
" style="fill:none;stroke:#ff0000;stroke-linecap:square;stroke-opacity:0.1;stroke-width:1.5;"/>
   </g>
   <g id="line2d_30">
    <path clip-path="url(#pda329b5244)" d="M 73.832727 209.881152 
L 81.949091 288.145933 
L 90.065455 153.927353 
L 98.181818 99.866415 
L 106.298182 80.743247 
L 114.414545 71.921598 
L 122.530909 66.986025 
L 130.647273 63.852242 
L 138.763636 61.68917 
L 146.88 230.919563 
L 154.996364 99.636728 
L 163.112727 69.890404 
L 171.229091 64.493619 
L 179.345455 62.730545 
L 187.461818 61.604289 
L 195.578182 216.135524 
L 203.694545 272.134812 
L 211.810909 124.527989 
L 219.927273 77.151252 
L 228.043636 104.973457 
L 236.16 117.938414 
L 244.276364 240.938038 
L 252.392727 272.727064 
L 260.509091 129.445365 
L 268.625455 237.083292 
L 276.741818 267.534771 
L 284.858182 275.338403 
L 292.974545 278.528762 
L 301.090909 280.629321 
L 309.207273 282.292066 
L 317.323636 283.672889 
L 325.44 284.837715 
L 333.556364 285.829579 
L 341.672727 286.680929 
L 349.789091 146.57167 
L 357.905455 253.293561 
L 366.021818 129.720798 
L 374.138182 83.716978 
L 382.254545 73.283512 
L 390.370909 119.252408 
" style="fill:none;stroke:#ff0000;stroke-linecap:square;stroke-opacity:0.1;stroke-width:1.5;"/>
   </g>
   <g id="line2d_31">
    <path clip-path="url(#pda329b5244)" d="M 73.832727 209.881152 
L 81.949091 91.509028 
L 90.065455 69.237106 
L 98.181818 62.338918 
L 106.298182 59.123774 
L 114.414545 57.255743 
L 122.530909 56.024918 
L 130.647273 55.148498 
L 138.763636 54.49099 
L 146.88 53.978735 
L 154.996364 53.568 
L 163.112727 70.302843 
L 171.229091 54.271837 
L 179.345455 69.483033 
L 187.461818 53.991137 
L 195.578182 68.451998 
L 203.694545 53.741818 
L 211.810909 67.57785 
L 219.927273 248.476689 
L 228.043636 77.863204 
L 236.16 81.462053 
L 244.276364 252.718018 
L 252.392727 289.117104 
L 260.509091 292.867369 
L 268.625455 122.744899 
L 276.741818 263.182251 
L 284.858182 111.382263 
L 292.974545 64.570781 
L 301.090909 83.654313 
L 309.207273 95.025108 
L 317.323636 251.325454 
L 325.44 107.589417 
L 333.556364 244.203874 
L 341.672727 281.701958 
L 349.789091 287.710468 
L 357.905455 142.799342 
L 366.021818 253.029121 
L 374.138182 281.260503 
L 382.254545 145.542312 
L 390.370909 247.089652 
" style="fill:none;stroke:#ff0000;stroke-linecap:square;stroke-opacity:0.1;stroke-width:1.5;"/>
   </g>
   <g id="line2d_32">
    <path clip-path="url(#pda329b5244)" d="M 73.832727 209.881152 
L 81.949091 91.509028 
L 90.065455 69.237106 
L 98.181818 62.338918 
L 106.298182 221.428463 
L 114.414545 87.619964 
L 122.530909 66.227847 
L 130.647273 62.207649 
L 138.763636 60.377885 
L 146.88 59.090886 
L 154.996364 58.0896 
L 163.112727 57.283979 
L 171.229091 199.790338 
L 179.345455 78.477726 
L 187.461818 61.088916 
L 195.578182 85.524665 
L 203.694545 61.322761 
L 211.810909 84.376224 
L 219.927273 60.76729 
L 228.043636 83.074926 
L 236.16 91.846655 
L 244.276364 219.822143 
L 252.392727 82.281316 
L 260.509091 94.010709 
L 268.625455 221.812895 
L 276.741818 263.874296 
L 284.858182 275.358821 
L 292.974545 280.214708 
L 301.090909 283.205029 
L 309.207273 285.330123 
L 317.323636 286.921388 
L 325.44 122.712944 
L 333.556364 241.317406 
L 341.672727 277.06 
L 349.789091 284.043618 
L 357.905455 285.950971 
L 366.021818 286.987187 
L 374.138182 287.788169 
L 382.254545 288.463293 
L 390.370909 289.044681 
" style="fill:none;stroke:#ff0000;stroke-linecap:square;stroke-opacity:0.1;stroke-width:1.5;"/>
   </g>
   <g id="line2d_33">
    <path clip-path="url(#pda329b5244)" d="M 73.832727 209.881152 
L 81.949091 91.509028 
L 90.065455 69.237106 
L 98.181818 62.338918 
L 106.298182 59.123774 
L 114.414545 57.255743 
L 122.530909 56.024918 
L 130.647273 55.148498 
L 138.763636 54.49099 
L 146.88 53.978735 
L 154.996364 205.919356 
L 163.112727 73.055092 
L 171.229091 212.731794 
L 179.345455 80.350047 
L 187.461818 60.051571 
L 195.578182 82.354753 
L 203.694545 59.832507 
L 211.810909 81.145994 
L 219.927273 59.333666 
L 228.043636 79.952451 
L 236.16 88.643884 
L 244.276364 218.290514 
L 252.392727 266.328335 
L 260.509091 278.917598 
L 268.625455 108.764293 
L 276.741818 222.782003 
L 284.858182 266.074954 
L 292.974545 277.218884 
L 301.090909 281.124399 
L 309.207273 283.367008 
L 317.323636 285.00834 
L 325.44 286.302726 
L 333.556364 129.721475 
L 341.672727 237.898801 
L 349.789091 274.730714 
L 357.905455 282.744535 
L 366.021818 135.966597 
L 374.138182 75.49784 
L 382.254545 195.807321 
L 390.370909 257.408113 
" style="fill:none;stroke:#ff0000;stroke-linecap:square;stroke-opacity:0.1;stroke-width:1.5;"/>
   </g>
   <g id="line2d_34">
    <path clip-path="url(#pda329b5244)" d="M 73.832727 209.881152 
L 81.949091 91.509028 
L 90.065455 254.383161 
L 98.181818 113.000841 
L 106.298182 80.436354 
L 114.414545 71.482709 
L 122.530909 67.050762 
L 130.647273 64.178396 
L 138.763636 62.12606 
L 146.88 208.470196 
L 154.996364 88.304962 
L 163.112727 67.395084 
L 171.229091 63.77898 
L 179.345455 197.119266 
L 187.461818 88.503519 
L 195.578182 68.983219 
L 203.694545 189.992785 
L 211.810909 90.829123 
L 219.927273 193.601718 
L 228.043636 235.028931 
L 236.16 172.504391 
L 244.276364 90.306547 
L 252.392727 189.792452 
L 260.509091 98.259939 
L 268.625455 186.730357 
L 276.741818 219.790465 
L 284.858182 231.570224 
L 292.974545 115.44468 
L 301.090909 190.058121 
L 309.207273 216.447868 
L 317.323636 225.641537 
L 325.44 229.848254 
L 333.556364 232.642007 
L 341.672727 120.834381 
L 349.789091 192.773304 
L 357.905455 216.894099 
L 366.021818 224.709914 
L 374.138182 227.938442 
L 382.254545 229.915409 
L 390.370909 231.518696 
" style="fill:none;stroke:#ff0000;stroke-linecap:square;stroke-opacity:0.1;stroke-width:1.5;"/>
   </g>
   <g id="line2d_35">
    <path clip-path="url(#pda329b5244)" d="M 73.832727 209.881152 
L 81.949091 91.509028 
L 90.065455 69.237106 
L 98.181818 62.338918 
L 106.298182 221.428463 
L 114.414545 87.619964 
L 122.530909 220.978672 
L 130.647273 264.720039 
L 138.763636 117.923281 
L 146.88 79.4832 
L 154.996364 71.581112 
L 163.112727 201.293114 
L 171.229091 99.68691 
L 179.345455 77.831956 
L 187.461818 194.774427 
L 195.578182 239.460021 
L 203.694545 118.842093 
L 211.810909 205.445439 
L 219.927273 114.051293 
L 228.043636 197.012342 
L 236.16 167.156489 
L 244.276364 214.908513 
L 252.392727 229.507919 
L 260.509091 235.142202 
L 268.625455 238.460876 
L 276.741818 241.100428 
L 284.858182 134.128269 
L 292.974545 206.663154 
L 301.090909 227.905644 
L 309.207273 234.379943 
L 317.323636 137.5195 
L 325.44 205.026524 
L 333.556364 224.066921 
L 341.672727 139.462614 
L 349.789091 202.205499 
L 357.905455 219.335038 
L 366.021818 224.195312 
L 374.138182 226.104801 
L 382.254545 143.669799 
L 390.370909 202.259644 
" style="fill:none;stroke:#ff0000;stroke-linecap:square;stroke-opacity:0.1;stroke-width:1.5;"/>
   </g>
   <g id="line2d_36">
    <path clip-path="url(#pda329b5244)" d="M 73.832727 148.185792 
L 81.949091 232.849076 
L 90.065455 239.708371 
L 98.181818 262.088906 
L 106.298182 238.830149 
L 114.414545 266.38849 
L 122.530909 268.453424 
L 130.647273 267.659392 
L 138.763636 284.622803 
L 146.88 236.13495 
L 154.996364 269.364805 
L 163.112727 274.503208 
L 171.229091 248.245831 
L 179.345455 268.253297 
L 187.461818 273.243353 
L 195.578182 252.806659 
L 203.694545 250.79657 
L 211.810909 263.380122 
L 219.927273 253.21003 
L 228.043636 252.226105 
L 236.16 250.507711 
L 244.276364 153.369288 
L 252.392727 121.191994 
L 260.509091 134.80572 
L 268.625455 156.291758 
L 276.741818 122.404265 
L 284.858182 122.75824 
L 292.974545 139.860494 
L 301.090909 115.337951 
L 309.207273 104.606491 
L 317.323636 97.263999 
L 325.44 119.149976 
L 333.556364 108.115535 
L 341.672727 108.15877 
L 349.789091 118.577305 
L 357.905455 138.899102 
L 366.021818 129.239243 
L 374.138182 140.531403 
L 382.254545 173.740787 
L 390.370909 144.079651 
" style="fill:none;stroke:#1f77b4;stroke-linecap:square;stroke-width:1.5;"/>
   </g>
   <g id="line2d_37">
    <path clip-path="url(#pda329b5244)" d="M 73.832727 209.881152 
L 81.949091 130.836409 
L 90.065455 123.204367 
L 98.181818 97.799231 
L 106.298182 124.104145 
L 114.414545 92.0501 
L 122.530909 88.706791 
L 130.647273 87.3875 
L 138.763636 70.051219 
L 146.88 126.30844 
L 154.996364 89.443911 
L 163.112727 81.328039 
L 171.229091 111.079904 
L 179.345455 89.554074 
L 187.461818 82.126747 
L 195.578182 105.145715 
L 203.694545 107.051834 
L 211.810909 93.854041 
L 219.927273 106.10568 
L 228.043636 105.629348 
L 236.16 109.209468 
L 244.276364 218.142142 
L 252.392727 243.456882 
L 260.509091 226.526665 
L 268.625455 208.370367 
L 276.741818 242.001224 
L 284.858182 239.740834 
L 292.974545 219.613609 
L 301.090909 244.368464 
L 309.207273 253.798882 
L 317.323636 262.294904 
L 325.44 239.375844 
L 333.556364 251.816055 
L 341.672727 250.633882 
L 349.789091 240.568683 
L 357.905455 220.357714 
L 366.021818 231.147942 
L 374.138182 216.098664 
L 382.254545 186.146547 
L 390.370909 215.758827 
" style="fill:none;stroke:#ff0000;stroke-linecap:square;stroke-width:1.5;"/>
   </g>
   <g id="patch_5">
    <path d="M 57.6 307.584 
L 57.6 41.472 
" style="fill:none;stroke:#000000;stroke-linecap:square;stroke-linejoin:miter;stroke-width:0.8;"/>
   </g>
   <g id="patch_6">
    <path d="M 414.72 307.584 
L 414.72 41.472 
" style="fill:none;stroke:#000000;stroke-linecap:square;stroke-linejoin:miter;stroke-width:0.8;"/>
   </g>
   <g id="patch_7">
    <path d="M 57.6 307.584 
L 414.72 307.584 
" style="fill:none;stroke:#000000;stroke-linecap:square;stroke-linejoin:miter;stroke-width:0.8;"/>
   </g>
   <g id="patch_8">
    <path d="M 57.6 41.472 
L 414.72 41.472 
" style="fill:none;stroke:#000000;stroke-linecap:square;stroke-linejoin:miter;stroke-width:0.8;"/>
   </g>
   <g id="text_18">
    <!-- Player1_healthy -->
    <g transform="translate(188.127187 35.472)scale(0.12 -0.12)">
     <defs>
      <path d="M 1259 4147 
L 1259 2394 
L 2053 2394 
Q 2494 2394 2734 2622 
Q 2975 2850 2975 3272 
Q 2975 3691 2734 3919 
Q 2494 4147 2053 4147 
L 1259 4147 
z
M 628 4666 
L 2053 4666 
Q 2838 4666 3239 4311 
Q 3641 3956 3641 3272 
Q 3641 2581 3239 2228 
Q 2838 1875 2053 1875 
L 1259 1875 
L 1259 0 
L 628 0 
L 628 4666 
z
" id="DejaVuSans-50" transform="scale(0.015625)"/>
      <path d="M 603 4863 
L 1178 4863 
L 1178 0 
L 603 0 
L 603 4863 
z
" id="DejaVuSans-6c" transform="scale(0.015625)"/>
      <path d="M 2194 1759 
Q 1497 1759 1228 1600 
Q 959 1441 959 1056 
Q 959 750 1161 570 
Q 1363 391 1709 391 
Q 2188 391 2477 730 
Q 2766 1069 2766 1631 
L 2766 1759 
L 2194 1759 
z
M 3341 1997 
L 3341 0 
L 2766 0 
L 2766 531 
Q 2569 213 2275 61 
Q 1981 -91 1556 -91 
Q 1019 -91 701 211 
Q 384 513 384 1019 
Q 384 1609 779 1909 
Q 1175 2209 1959 2209 
L 2766 2209 
L 2766 2266 
Q 2766 2663 2505 2880 
Q 2244 3097 1772 3097 
Q 1472 3097 1187 3025 
Q 903 2953 641 2809 
L 641 3341 
Q 956 3463 1253 3523 
Q 1550 3584 1831 3584 
Q 2591 3584 2966 3190 
Q 3341 2797 3341 1997 
z
" id="DejaVuSans-61" transform="scale(0.015625)"/>
      <path d="M 2059 -325 
Q 1816 -950 1584 -1140 
Q 1353 -1331 966 -1331 
L 506 -1331 
L 506 -850 
L 844 -850 
Q 1081 -850 1212 -737 
Q 1344 -625 1503 -206 
L 1606 56 
L 191 3500 
L 800 3500 
L 1894 763 
L 2988 3500 
L 3597 3500 
L 2059 -325 
z
" id="DejaVuSans-79" transform="scale(0.015625)"/>
      <path d="M 2631 2963 
Q 2534 3019 2420 3045 
Q 2306 3072 2169 3072 
Q 1681 3072 1420 2755 
Q 1159 2438 1159 1844 
L 1159 0 
L 581 0 
L 581 3500 
L 1159 3500 
L 1159 2956 
Q 1341 3275 1631 3429 
Q 1922 3584 2338 3584 
Q 2397 3584 2469 3576 
Q 2541 3569 2628 3553 
L 2631 2963 
z
" id="DejaVuSans-72" transform="scale(0.015625)"/>
      <path d="M 3263 -1063 
L 3263 -1509 
L -63 -1509 
L -63 -1063 
L 3263 -1063 
z
" id="DejaVuSans-5f" transform="scale(0.015625)"/>
      <path d="M 3513 2113 
L 3513 0 
L 2938 0 
L 2938 2094 
Q 2938 2591 2744 2837 
Q 2550 3084 2163 3084 
Q 1697 3084 1428 2787 
Q 1159 2491 1159 1978 
L 1159 0 
L 581 0 
L 581 4863 
L 1159 4863 
L 1159 2956 
Q 1366 3272 1645 3428 
Q 1925 3584 2291 3584 
Q 2894 3584 3203 3211 
Q 3513 2838 3513 2113 
z
" id="DejaVuSans-68" transform="scale(0.015625)"/>
     </defs>
     <use xlink:href="#DejaVuSans-50"/>
     <use x="60.302734" xlink:href="#DejaVuSans-6c"/>
     <use x="88.085938" xlink:href="#DejaVuSans-61"/>
     <use x="149.365234" xlink:href="#DejaVuSans-79"/>
     <use x="208.544922" xlink:href="#DejaVuSans-65"/>
     <use x="270.068359" xlink:href="#DejaVuSans-72"/>
     <use x="311.181641" xlink:href="#DejaVuSans-31"/>
     <use x="374.804688" xlink:href="#DejaVuSans-5f"/>
     <use x="424.804688" xlink:href="#DejaVuSans-68"/>
     <use x="488.183594" xlink:href="#DejaVuSans-65"/>
     <use x="549.707031" xlink:href="#DejaVuSans-61"/>
     <use x="610.986328" xlink:href="#DejaVuSans-6c"/>
     <use x="638.769531" xlink:href="#DejaVuSans-74"/>
     <use x="677.978516" xlink:href="#DejaVuSans-68"/>
     <use x="741.357422" xlink:href="#DejaVuSans-79"/>
    </g>
   </g>
   <g id="legend_1">
    <g id="patch_9">
     <path d="M 64.6 190.706125 
L 120.684375 190.706125 
Q 122.684375 190.706125 122.684375 188.706125 
L 122.684375 160.349875 
Q 122.684375 158.349875 120.684375 158.349875 
L 64.6 158.349875 
Q 62.6 158.349875 62.6 160.349875 
L 62.6 188.706125 
Q 62.6 190.706125 64.6 190.706125 
z
" style="fill:#ffffff;opacity:0.8;stroke:#cccccc;stroke-linejoin:miter;"/>
    </g>
    <g id="line2d_38">
     <path d="M 66.6 166.448312 
L 86.6 166.448312 
" style="fill:none;stroke:#1f77b4;stroke-linecap:square;stroke-width:1.5;"/>
    </g>
    <g id="line2d_39"/>
    <g id="text_19">
     <!-- coop -->
     <g transform="translate(94.6 169.948312)scale(0.1 -0.1)">
      <use xlink:href="#DejaVuSans-63"/>
      <use x="54.980469" xlink:href="#DejaVuSans-6f"/>
      <use x="116.162109" xlink:href="#DejaVuSans-6f"/>
      <use x="177.34375" xlink:href="#DejaVuSans-70"/>
     </g>
    </g>
    <g id="line2d_40">
     <path d="M 66.6 181.126437 
L 86.6 181.126437 
" style="fill:none;stroke:#ff0000;stroke-linecap:square;stroke-width:1.5;"/>
    </g>
    <g id="line2d_41"/>
    <g id="text_20">
     <!-- host -->
     <g transform="translate(94.6 184.626437)scale(0.1 -0.1)">
      <defs>
       <path d="M 2834 3397 
L 2834 2853 
Q 2591 2978 2328 3040 
Q 2066 3103 1784 3103 
Q 1356 3103 1142 2972 
Q 928 2841 928 2578 
Q 928 2378 1081 2264 
Q 1234 2150 1697 2047 
L 1894 2003 
Q 2506 1872 2764 1633 
Q 3022 1394 3022 966 
Q 3022 478 2636 193 
Q 2250 -91 1575 -91 
Q 1294 -91 989 -36 
Q 684 19 347 128 
L 347 722 
Q 666 556 975 473 
Q 1284 391 1588 391 
Q 1994 391 2212 530 
Q 2431 669 2431 922 
Q 2431 1156 2273 1281 
Q 2116 1406 1581 1522 
L 1381 1569 
Q 847 1681 609 1914 
Q 372 2147 372 2553 
Q 372 3047 722 3315 
Q 1072 3584 1716 3584 
Q 2034 3584 2315 3537 
Q 2597 3491 2834 3397 
z
" id="DejaVuSans-73" transform="scale(0.015625)"/>
      </defs>
      <use xlink:href="#DejaVuSans-68"/>
      <use x="63.378906" xlink:href="#DejaVuSans-6f"/>
      <use x="124.560547" xlink:href="#DejaVuSans-73"/>
      <use x="176.660156" xlink:href="#DejaVuSans-74"/>
     </g>
    </g>
   </g>
  </g>
 </g>
 <defs>
  <clipPath id="pda329b5244">
   <rect height="266.112" width="357.12" x="57.6" y="41.472"/>
  </clipPath>
 </defs>
</svg>
