<?xml version="1.0" encoding="utf-8" standalone="no"?>
<!DOCTYPE svg PUBLIC "-//W3C//DTD SVG 1.1//EN"
  "http://www.w3.org/Graphics/SVG/1.1/DTD/svg11.dtd">
<svg height="345.6pt" version="1.1" viewBox="0 0 460.8 345.6" width="460.8pt" xmlns="http://www.w3.org/2000/svg" xmlns:xlink="http://www.w3.org/1999/xlink">
 <metadata>
  <rdf:RDF xmlns:cc="http://creativecommons.org/ns#" xmlns:dc="http://purl.org/dc/elements/1.1/" xmlns:rdf="http://www.w3.org/1999/02/22-rdf-syntax-ns#">
   <cc:Work>
    <dc:type rdf:resource="http://purl.org/dc/dcmitype/StillImage"/>
    <dc:date>2023-09-18T18:01:07.964269</dc:date>
    <dc:format>image/svg+xml</dc:format>
    <dc:creator>
     <cc:Agent>
      <dc:title>Matplotlib v3.4.1, https://matplotlib.org/</dc:title>
     </cc:Agent>
    </dc:creator>
   </cc:Work>
  </rdf:RDF>
 </metadata>
 <defs>
  <style type="text/css">*{stroke-linecap:butt;stroke-linejoin:round;}</style>
 </defs>
 <g id="figure_1">
  <g id="patch_1">
   <path d="M 0 345.6 
L 460.8 345.6 
L 460.8 0 
L 0 0 
z
" style="fill:#ffffff;"/>
  </g>
  <g id="axes_1">
   <g id="patch_2">
    <path d="M 57.6 307.584 
L 414.72 307.584 
L 414.72 41.472 
L 57.6 41.472 
z
" style="fill:#ffffff;"/>
   </g>
   <g id="patch_3">
    <path clip-path="url(#p13114d72c5)" d="M 73.832727 307.584 
L 73.832727 41.472 
L 236.16 41.472 
L 236.16 307.584 
z
" style="fill:#ff7f50;opacity:0.2;"/>
   </g>
   <g id="patch_4">
    <path clip-path="url(#p13114d72c5)" d="M 236.16 307.584 
L 236.16 41.472 
L 398.487273 41.472 
L 398.487273 307.584 
z
" style="fill:#add8e6;opacity:0.2;"/>
   </g>
   <g id="matplotlib.axis_1">
    <g id="xtick_1">
     <g id="line2d_1">
      <defs>
       <path d="M 0 0 
L 0 3.5 
" id="m8a46f41f11" style="stroke:#000000;stroke-width:0.8;"/>
      </defs>
      <g>
       <use style="stroke:#000000;stroke-width:0.8;" x="73.832727" xlink:href="#m8a46f41f11" y="307.584"/>
      </g>
     </g>
     <g id="text_1">
      <!-- 0 -->
      <g transform="translate(70.651477 322.182437)scale(0.1 -0.1)">
       <defs>
        <path d="M 2034 4250 
Q 1547 4250 1301 3770 
Q 1056 3291 1056 2328 
Q 1056 1369 1301 889 
Q 1547 409 2034 409 
Q 2525 409 2770 889 
Q 3016 1369 3016 2328 
Q 3016 3291 2770 3770 
Q 2525 4250 2034 4250 
z
M 2034 4750 
Q 2819 4750 3233 4129 
Q 3647 3509 3647 2328 
Q 3647 1150 3233 529 
Q 2819 -91 2034 -91 
Q 1250 -91 836 529 
Q 422 1150 422 2328 
Q 422 3509 836 4129 
Q 1250 4750 2034 4750 
z
" id="DejaVuSans-30" transform="scale(0.015625)"/>
       </defs>
       <use xlink:href="#DejaVuSans-30"/>
      </g>
     </g>
    </g>
    <g id="xtick_2">
     <g id="line2d_2">
      <g>
       <use style="stroke:#000000;stroke-width:0.8;" x="114.414545" xlink:href="#m8a46f41f11" y="307.584"/>
      </g>
     </g>
     <g id="text_2">
      <!-- 5 -->
      <g transform="translate(111.233295 322.182437)scale(0.1 -0.1)">
       <defs>
        <path d="M 691 4666 
L 3169 4666 
L 3169 4134 
L 1269 4134 
L 1269 2991 
Q 1406 3038 1543 3061 
Q 1681 3084 1819 3084 
Q 2600 3084 3056 2656 
Q 3513 2228 3513 1497 
Q 3513 744 3044 326 
Q 2575 -91 1722 -91 
Q 1428 -91 1123 -41 
Q 819 9 494 109 
L 494 744 
Q 775 591 1075 516 
Q 1375 441 1709 441 
Q 2250 441 2565 725 
Q 2881 1009 2881 1497 
Q 2881 1984 2565 2268 
Q 2250 2553 1709 2553 
Q 1456 2553 1204 2497 
Q 953 2441 691 2322 
L 691 4666 
z
" id="DejaVuSans-35" transform="scale(0.015625)"/>
       </defs>
       <use xlink:href="#DejaVuSans-35"/>
      </g>
     </g>
    </g>
    <g id="xtick_3">
     <g id="line2d_3">
      <g>
       <use style="stroke:#000000;stroke-width:0.8;" x="154.996364" xlink:href="#m8a46f41f11" y="307.584"/>
      </g>
     </g>
     <g id="text_3">
      <!-- 10 -->
      <g transform="translate(148.633864 322.182437)scale(0.1 -0.1)">
       <defs>
        <path d="M 794 531 
L 1825 531 
L 1825 4091 
L 703 3866 
L 703 4441 
L 1819 4666 
L 2450 4666 
L 2450 531 
L 3481 531 
L 3481 0 
L 794 0 
L 794 531 
z
" id="DejaVuSans-31" transform="scale(0.015625)"/>
       </defs>
       <use xlink:href="#DejaVuSans-31"/>
       <use x="63.623047" xlink:href="#DejaVuSans-30"/>
      </g>
     </g>
    </g>
    <g id="xtick_4">
     <g id="line2d_4">
      <g>
       <use style="stroke:#000000;stroke-width:0.8;" x="195.578182" xlink:href="#m8a46f41f11" y="307.584"/>
      </g>
     </g>
     <g id="text_4">
      <!-- 15 -->
      <g transform="translate(189.215682 322.182437)scale(0.1 -0.1)">
       <use xlink:href="#DejaVuSans-31"/>
       <use x="63.623047" xlink:href="#DejaVuSans-35"/>
      </g>
     </g>
    </g>
    <g id="xtick_5">
     <g id="line2d_5">
      <g>
       <use style="stroke:#000000;stroke-width:0.8;" x="236.16" xlink:href="#m8a46f41f11" y="307.584"/>
      </g>
     </g>
     <g id="text_5">
      <!-- 20 -->
      <g transform="translate(229.7975 322.182437)scale(0.1 -0.1)">
       <defs>
        <path d="M 1228 531 
L 3431 531 
L 3431 0 
L 469 0 
L 469 531 
Q 828 903 1448 1529 
Q 2069 2156 2228 2338 
Q 2531 2678 2651 2914 
Q 2772 3150 2772 3378 
Q 2772 3750 2511 3984 
Q 2250 4219 1831 4219 
Q 1534 4219 1204 4116 
Q 875 4013 500 3803 
L 500 4441 
Q 881 4594 1212 4672 
Q 1544 4750 1819 4750 
Q 2544 4750 2975 4387 
Q 3406 4025 3406 3419 
Q 3406 3131 3298 2873 
Q 3191 2616 2906 2266 
Q 2828 2175 2409 1742 
Q 1991 1309 1228 531 
z
" id="DejaVuSans-32" transform="scale(0.015625)"/>
       </defs>
       <use xlink:href="#DejaVuSans-32"/>
       <use x="63.623047" xlink:href="#DejaVuSans-30"/>
      </g>
     </g>
    </g>
    <g id="xtick_6">
     <g id="line2d_6">
      <g>
       <use style="stroke:#000000;stroke-width:0.8;" x="276.741818" xlink:href="#m8a46f41f11" y="307.584"/>
      </g>
     </g>
     <g id="text_6">
      <!-- 25 -->
      <g transform="translate(270.379318 322.182437)scale(0.1 -0.1)">
       <use xlink:href="#DejaVuSans-32"/>
       <use x="63.623047" xlink:href="#DejaVuSans-35"/>
      </g>
     </g>
    </g>
    <g id="xtick_7">
     <g id="line2d_7">
      <g>
       <use style="stroke:#000000;stroke-width:0.8;" x="317.323636" xlink:href="#m8a46f41f11" y="307.584"/>
      </g>
     </g>
     <g id="text_7">
      <!-- 30 -->
      <g transform="translate(310.961136 322.182437)scale(0.1 -0.1)">
       <defs>
        <path d="M 2597 2516 
Q 3050 2419 3304 2112 
Q 3559 1806 3559 1356 
Q 3559 666 3084 287 
Q 2609 -91 1734 -91 
Q 1441 -91 1130 -33 
Q 819 25 488 141 
L 488 750 
Q 750 597 1062 519 
Q 1375 441 1716 441 
Q 2309 441 2620 675 
Q 2931 909 2931 1356 
Q 2931 1769 2642 2001 
Q 2353 2234 1838 2234 
L 1294 2234 
L 1294 2753 
L 1863 2753 
Q 2328 2753 2575 2939 
Q 2822 3125 2822 3475 
Q 2822 3834 2567 4026 
Q 2313 4219 1838 4219 
Q 1578 4219 1281 4162 
Q 984 4106 628 3988 
L 628 4550 
Q 988 4650 1302 4700 
Q 1616 4750 1894 4750 
Q 2613 4750 3031 4423 
Q 3450 4097 3450 3541 
Q 3450 3153 3228 2886 
Q 3006 2619 2597 2516 
z
" id="DejaVuSans-33" transform="scale(0.015625)"/>
       </defs>
       <use xlink:href="#DejaVuSans-33"/>
       <use x="63.623047" xlink:href="#DejaVuSans-30"/>
      </g>
     </g>
    </g>
    <g id="xtick_8">
     <g id="line2d_8">
      <g>
       <use style="stroke:#000000;stroke-width:0.8;" x="357.905455" xlink:href="#m8a46f41f11" y="307.584"/>
      </g>
     </g>
     <g id="text_8">
      <!-- 35 -->
      <g transform="translate(351.542955 322.182437)scale(0.1 -0.1)">
       <use xlink:href="#DejaVuSans-33"/>
       <use x="63.623047" xlink:href="#DejaVuSans-35"/>
      </g>
     </g>
    </g>
    <g id="xtick_9">
     <g id="line2d_9">
      <g>
       <use style="stroke:#000000;stroke-width:0.8;" x="398.487273" xlink:href="#m8a46f41f11" y="307.584"/>
      </g>
     </g>
     <g id="text_9">
      <!-- 40 -->
      <g transform="translate(392.124773 322.182437)scale(0.1 -0.1)">
       <defs>
        <path d="M 2419 4116 
L 825 1625 
L 2419 1625 
L 2419 4116 
z
M 2253 4666 
L 3047 4666 
L 3047 1625 
L 3713 1625 
L 3713 1100 
L 3047 1100 
L 3047 0 
L 2419 0 
L 2419 1100 
L 313 1100 
L 313 1709 
L 2253 4666 
z
" id="DejaVuSans-34" transform="scale(0.015625)"/>
       </defs>
       <use xlink:href="#DejaVuSans-34"/>
       <use x="63.623047" xlink:href="#DejaVuSans-30"/>
      </g>
     </g>
    </g>
    <g id="text_10">
     <!-- t -->
     <g transform="translate(234.199844 335.860562)scale(0.1 -0.1)">
      <defs>
       <path d="M 1172 4494 
L 1172 3500 
L 2356 3500 
L 2356 3053 
L 1172 3053 
L 1172 1153 
Q 1172 725 1289 603 
Q 1406 481 1766 481 
L 2356 481 
L 2356 0 
L 1766 0 
Q 1100 0 847 248 
Q 594 497 594 1153 
L 594 3053 
L 172 3053 
L 172 3500 
L 594 3500 
L 594 4494 
L 1172 4494 
z
" id="DejaVuSans-74" transform="scale(0.015625)"/>
      </defs>
      <use xlink:href="#DejaVuSans-74"/>
     </g>
    </g>
   </g>
   <g id="matplotlib.axis_2">
    <g id="ytick_1">
     <g id="line2d_10">
      <defs>
       <path d="M 0 0 
L -3.5 0 
" id="m558e620393" style="stroke:#000000;stroke-width:0.8;"/>
      </defs>
      <g>
       <use style="stroke:#000000;stroke-width:0.8;" x="57.6" xlink:href="#m558e620393" y="296.282805"/>
      </g>
     </g>
     <g id="text_11">
      <!-- 0.0 -->
      <g transform="translate(34.696875 300.082024)scale(0.1 -0.1)">
       <defs>
        <path d="M 684 794 
L 1344 794 
L 1344 0 
L 684 0 
L 684 794 
z
" id="DejaVuSans-2e" transform="scale(0.015625)"/>
       </defs>
       <use xlink:href="#DejaVuSans-30"/>
       <use x="63.623047" xlink:href="#DejaVuSans-2e"/>
       <use x="95.410156" xlink:href="#DejaVuSans-30"/>
      </g>
     </g>
    </g>
    <g id="ytick_2">
     <g id="line2d_11">
      <g>
       <use style="stroke:#000000;stroke-width:0.8;" x="57.6" xlink:href="#m558e620393" y="246.446396"/>
      </g>
     </g>
     <g id="text_12">
      <!-- 0.2 -->
      <g transform="translate(34.696875 250.245614)scale(0.1 -0.1)">
       <use xlink:href="#DejaVuSans-30"/>
       <use x="63.623047" xlink:href="#DejaVuSans-2e"/>
       <use x="95.410156" xlink:href="#DejaVuSans-32"/>
      </g>
     </g>
    </g>
    <g id="ytick_3">
     <g id="line2d_12">
      <g>
       <use style="stroke:#000000;stroke-width:0.8;" x="57.6" xlink:href="#m558e620393" y="196.609986"/>
      </g>
     </g>
     <g id="text_13">
      <!-- 0.4 -->
      <g transform="translate(34.696875 200.409205)scale(0.1 -0.1)">
       <use xlink:href="#DejaVuSans-30"/>
       <use x="63.623047" xlink:href="#DejaVuSans-2e"/>
       <use x="95.410156" xlink:href="#DejaVuSans-34"/>
      </g>
     </g>
    </g>
    <g id="ytick_4">
     <g id="line2d_13">
      <g>
       <use style="stroke:#000000;stroke-width:0.8;" x="57.6" xlink:href="#m558e620393" y="146.773576"/>
      </g>
     </g>
     <g id="text_14">
      <!-- 0.6 -->
      <g transform="translate(34.696875 150.572795)scale(0.1 -0.1)">
       <defs>
        <path d="M 2113 2584 
Q 1688 2584 1439 2293 
Q 1191 2003 1191 1497 
Q 1191 994 1439 701 
Q 1688 409 2113 409 
Q 2538 409 2786 701 
Q 3034 994 3034 1497 
Q 3034 2003 2786 2293 
Q 2538 2584 2113 2584 
z
M 3366 4563 
L 3366 3988 
Q 3128 4100 2886 4159 
Q 2644 4219 2406 4219 
Q 1781 4219 1451 3797 
Q 1122 3375 1075 2522 
Q 1259 2794 1537 2939 
Q 1816 3084 2150 3084 
Q 2853 3084 3261 2657 
Q 3669 2231 3669 1497 
Q 3669 778 3244 343 
Q 2819 -91 2113 -91 
Q 1303 -91 875 529 
Q 447 1150 447 2328 
Q 447 3434 972 4092 
Q 1497 4750 2381 4750 
Q 2619 4750 2861 4703 
Q 3103 4656 3366 4563 
z
" id="DejaVuSans-36" transform="scale(0.015625)"/>
       </defs>
       <use xlink:href="#DejaVuSans-30"/>
       <use x="63.623047" xlink:href="#DejaVuSans-2e"/>
       <use x="95.410156" xlink:href="#DejaVuSans-36"/>
      </g>
     </g>
    </g>
    <g id="ytick_5">
     <g id="line2d_14">
      <g>
       <use style="stroke:#000000;stroke-width:0.8;" x="57.6" xlink:href="#m558e620393" y="96.937166"/>
      </g>
     </g>
     <g id="text_15">
      <!-- 0.8 -->
      <g transform="translate(34.696875 100.736385)scale(0.1 -0.1)">
       <defs>
        <path d="M 2034 2216 
Q 1584 2216 1326 1975 
Q 1069 1734 1069 1313 
Q 1069 891 1326 650 
Q 1584 409 2034 409 
Q 2484 409 2743 651 
Q 3003 894 3003 1313 
Q 3003 1734 2745 1975 
Q 2488 2216 2034 2216 
z
M 1403 2484 
Q 997 2584 770 2862 
Q 544 3141 544 3541 
Q 544 4100 942 4425 
Q 1341 4750 2034 4750 
Q 2731 4750 3128 4425 
Q 3525 4100 3525 3541 
Q 3525 3141 3298 2862 
Q 3072 2584 2669 2484 
Q 3125 2378 3379 2068 
Q 3634 1759 3634 1313 
Q 3634 634 3220 271 
Q 2806 -91 2034 -91 
Q 1263 -91 848 271 
Q 434 634 434 1313 
Q 434 1759 690 2068 
Q 947 2378 1403 2484 
z
M 1172 3481 
Q 1172 3119 1398 2916 
Q 1625 2713 2034 2713 
Q 2441 2713 2670 2916 
Q 2900 3119 2900 3481 
Q 2900 3844 2670 4047 
Q 2441 4250 2034 4250 
Q 1625 4250 1398 4047 
Q 1172 3844 1172 3481 
z
" id="DejaVuSans-38" transform="scale(0.015625)"/>
       </defs>
       <use xlink:href="#DejaVuSans-30"/>
       <use x="63.623047" xlink:href="#DejaVuSans-2e"/>
       <use x="95.410156" xlink:href="#DejaVuSans-38"/>
      </g>
     </g>
    </g>
    <g id="ytick_6">
     <g id="line2d_15">
      <g>
       <use style="stroke:#000000;stroke-width:0.8;" x="57.6" xlink:href="#m558e620393" y="47.100756"/>
      </g>
     </g>
     <g id="text_16">
      <!-- 1.0 -->
      <g transform="translate(34.696875 50.899975)scale(0.1 -0.1)">
       <use xlink:href="#DejaVuSans-31"/>
       <use x="63.623047" xlink:href="#DejaVuSans-2e"/>
       <use x="95.410156" xlink:href="#DejaVuSans-30"/>
      </g>
     </g>
    </g>
    <g id="text_17">
     <!-- p(context) -->
     <g transform="translate(28.617187 200.449875)rotate(-90)scale(0.1 -0.1)">
      <defs>
       <path d="M 1159 525 
L 1159 -1331 
L 581 -1331 
L 581 3500 
L 1159 3500 
L 1159 2969 
Q 1341 3281 1617 3432 
Q 1894 3584 2278 3584 
Q 2916 3584 3314 3078 
Q 3713 2572 3713 1747 
Q 3713 922 3314 415 
Q 2916 -91 2278 -91 
Q 1894 -91 1617 61 
Q 1341 213 1159 525 
z
M 3116 1747 
Q 3116 2381 2855 2742 
Q 2594 3103 2138 3103 
Q 1681 3103 1420 2742 
Q 1159 2381 1159 1747 
Q 1159 1113 1420 752 
Q 1681 391 2138 391 
Q 2594 391 2855 752 
Q 3116 1113 3116 1747 
z
" id="DejaVuSans-70" transform="scale(0.015625)"/>
       <path d="M 1984 4856 
Q 1566 4138 1362 3434 
Q 1159 2731 1159 2009 
Q 1159 1288 1364 580 
Q 1569 -128 1984 -844 
L 1484 -844 
Q 1016 -109 783 600 
Q 550 1309 550 2009 
Q 550 2706 781 3412 
Q 1013 4119 1484 4856 
L 1984 4856 
z
" id="DejaVuSans-28" transform="scale(0.015625)"/>
       <path d="M 3122 3366 
L 3122 2828 
Q 2878 2963 2633 3030 
Q 2388 3097 2138 3097 
Q 1578 3097 1268 2742 
Q 959 2388 959 1747 
Q 959 1106 1268 751 
Q 1578 397 2138 397 
Q 2388 397 2633 464 
Q 2878 531 3122 666 
L 3122 134 
Q 2881 22 2623 -34 
Q 2366 -91 2075 -91 
Q 1284 -91 818 406 
Q 353 903 353 1747 
Q 353 2603 823 3093 
Q 1294 3584 2113 3584 
Q 2378 3584 2631 3529 
Q 2884 3475 3122 3366 
z
" id="DejaVuSans-63" transform="scale(0.015625)"/>
       <path d="M 1959 3097 
Q 1497 3097 1228 2736 
Q 959 2375 959 1747 
Q 959 1119 1226 758 
Q 1494 397 1959 397 
Q 2419 397 2687 759 
Q 2956 1122 2956 1747 
Q 2956 2369 2687 2733 
Q 2419 3097 1959 3097 
z
M 1959 3584 
Q 2709 3584 3137 3096 
Q 3566 2609 3566 1747 
Q 3566 888 3137 398 
Q 2709 -91 1959 -91 
Q 1206 -91 779 398 
Q 353 888 353 1747 
Q 353 2609 779 3096 
Q 1206 3584 1959 3584 
z
" id="DejaVuSans-6f" transform="scale(0.015625)"/>
       <path d="M 3513 2113 
L 3513 0 
L 2938 0 
L 2938 2094 
Q 2938 2591 2744 2837 
Q 2550 3084 2163 3084 
Q 1697 3084 1428 2787 
Q 1159 2491 1159 1978 
L 1159 0 
L 581 0 
L 581 3500 
L 1159 3500 
L 1159 2956 
Q 1366 3272 1645 3428 
Q 1925 3584 2291 3584 
Q 2894 3584 3203 3211 
Q 3513 2838 3513 2113 
z
" id="DejaVuSans-6e" transform="scale(0.015625)"/>
       <path d="M 3597 1894 
L 3597 1613 
L 953 1613 
Q 991 1019 1311 708 
Q 1631 397 2203 397 
Q 2534 397 2845 478 
Q 3156 559 3463 722 
L 3463 178 
Q 3153 47 2828 -22 
Q 2503 -91 2169 -91 
Q 1331 -91 842 396 
Q 353 884 353 1716 
Q 353 2575 817 3079 
Q 1281 3584 2069 3584 
Q 2775 3584 3186 3129 
Q 3597 2675 3597 1894 
z
M 3022 2063 
Q 3016 2534 2758 2815 
Q 2500 3097 2075 3097 
Q 1594 3097 1305 2825 
Q 1016 2553 972 2059 
L 3022 2063 
z
" id="DejaVuSans-65" transform="scale(0.015625)"/>
       <path d="M 3513 3500 
L 2247 1797 
L 3578 0 
L 2900 0 
L 1881 1375 
L 863 0 
L 184 0 
L 1544 1831 
L 300 3500 
L 978 3500 
L 1906 2253 
L 2834 3500 
L 3513 3500 
z
" id="DejaVuSans-78" transform="scale(0.015625)"/>
       <path d="M 513 4856 
L 1013 4856 
Q 1481 4119 1714 3412 
Q 1947 2706 1947 2009 
Q 1947 1309 1714 600 
Q 1481 -109 1013 -844 
L 513 -844 
Q 928 -128 1133 580 
Q 1338 1288 1338 2009 
Q 1338 2731 1133 3434 
Q 928 4138 513 4856 
z
" id="DejaVuSans-29" transform="scale(0.015625)"/>
      </defs>
      <use xlink:href="#DejaVuSans-70"/>
      <use x="63.476562" xlink:href="#DejaVuSans-28"/>
      <use x="102.490234" xlink:href="#DejaVuSans-63"/>
      <use x="157.470703" xlink:href="#DejaVuSans-6f"/>
      <use x="218.652344" xlink:href="#DejaVuSans-6e"/>
      <use x="282.03125" xlink:href="#DejaVuSans-74"/>
      <use x="321.240234" xlink:href="#DejaVuSans-65"/>
      <use x="381.013672" xlink:href="#DejaVuSans-78"/>
      <use x="440.193359" xlink:href="#DejaVuSans-74"/>
      <use x="479.402344" xlink:href="#DejaVuSans-29"/>
     </g>
    </g>
   </g>
   <g id="line2d_16">
    <path clip-path="url(#p13114d72c5)" d="M 73.832727 258.905498 
L 81.949091 293.339799 
L 90.065455 295.064272 
L 98.181818 295.488 
L 106.298182 285.891377 
L 114.414545 282.370123 
L 122.530909 280.949074 
L 130.647273 280.336929 
L 138.763636 280.048035 
L 146.88 279.893358 
L 154.996364 279.798781 
L 163.112727 279.734494 
L 171.229091 279.687625 
L 179.345455 279.651921 
L 187.461818 279.623923 
L 195.578182 279.6015 
L 203.694545 279.583238 
L 211.810909 279.568157 
L 219.927273 279.555551 
L 228.043636 279.544905 
L 236.16 279.535829 
L 244.276364 279.528028 
L 252.392727 279.521273 
L 260.509091 279.515384 
L 268.625455 279.510218 
L 276.741818 279.505662 
L 284.858182 279.501624 
L 292.974545 279.498026 
L 301.090909 279.494808 
L 309.207273 279.491917 
L 317.323636 279.489311 
L 325.44 279.486953 
L 333.556364 279.484813 
L 341.672727 279.482865 
L 349.789091 279.481086 
L 357.905455 279.479457 
L 366.021818 279.477962 
L 374.138182 279.476587 
L 382.254545 279.475319 
L 390.370909 279.474147 
" style="fill:none;stroke:#add8e6;stroke-linecap:square;stroke-opacity:0.3;stroke-width:1.5;"/>
   </g>
   <g id="line2d_17">
    <path clip-path="url(#p13114d72c5)" d="M 73.832727 258.905498 
L 81.949091 293.339799 
L 90.065455 295.064272 
L 98.181818 295.488 
L 106.298182 285.891377 
L 114.414545 282.370123 
L 122.530909 280.949074 
L 130.647273 280.336929 
L 138.763636 280.048035 
L 146.88 279.893358 
L 154.996364 279.798781 
L 163.112727 279.734494 
L 171.229091 279.687625 
L 179.345455 279.651921 
L 187.461818 279.623923 
L 195.578182 279.6015 
L 203.694545 279.583238 
L 211.810909 279.568157 
L 219.927273 279.555551 
L 228.043636 279.544905 
L 236.16 279.535829 
L 244.276364 279.528028 
L 252.392727 279.521273 
L 260.509091 279.515384 
L 268.625455 279.510218 
L 276.741818 279.505662 
L 284.858182 279.501624 
L 292.974545 279.498026 
L 301.090909 279.494808 
L 309.207273 279.491917 
L 317.323636 279.489311 
L 325.44 279.486953 
L 333.556364 279.484813 
L 341.672727 279.482865 
L 349.789091 279.481086 
L 357.905455 279.479457 
L 366.021818 279.477962 
L 374.138182 279.476587 
L 382.254545 279.475319 
L 390.370909 279.474147 
" style="fill:none;stroke:#add8e6;stroke-linecap:square;stroke-opacity:0.3;stroke-width:1.5;"/>
   </g>
   <g id="line2d_18">
    <path clip-path="url(#p13114d72c5)" d="M 73.832727 258.905498 
L 81.949091 293.339799 
L 90.065455 295.064272 
L 98.181818 295.488 
L 106.298182 285.891377 
L 114.414545 282.370123 
L 122.530909 280.949074 
L 130.647273 280.336929 
L 138.763636 280.048035 
L 146.88 279.893358 
L 154.996364 279.798781 
L 163.112727 279.734494 
L 171.229091 279.687625 
L 179.345455 279.651921 
L 187.461818 279.623923 
L 195.578182 279.6015 
L 203.694545 279.583238 
L 211.810909 279.568157 
L 219.927273 279.555551 
L 228.043636 279.544905 
L 236.16 279.535829 
L 244.276364 279.528028 
L 252.392727 279.521273 
L 260.509091 279.515384 
L 268.625455 279.510218 
L 276.741818 279.505662 
L 284.858182 279.501624 
L 292.974545 279.498026 
L 301.090909 279.494808 
L 309.207273 279.491917 
L 317.323636 279.489311 
L 325.44 279.486953 
L 333.556364 279.484813 
L 341.672727 279.482865 
L 349.789091 279.481086 
L 357.905455 279.479457 
L 366.021818 279.477962 
L 374.138182 279.476587 
L 382.254545 279.475319 
L 390.370909 279.474147 
" style="fill:none;stroke:#add8e6;stroke-linecap:square;stroke-opacity:0.3;stroke-width:1.5;"/>
   </g>
   <g id="line2d_19">
    <path clip-path="url(#p13114d72c5)" d="M 73.832727 258.905498 
L 81.949091 293.339799 
L 90.065455 201.840941 
L 98.181818 141.094429 
L 106.298182 279.102516 
L 114.414545 290.049772 
L 122.530909 291.914917 
L 130.647273 266.690486 
L 138.763636 291.386062 
L 146.88 269.108867 
L 154.996364 291.958233 
L 163.112727 271.331043 
L 171.229091 264.537875 
L 179.345455 262.394981 
L 187.461818 291.991978 
L 195.578182 271.657656 
L 203.694545 265.971698 
L 211.810909 264.450506 
L 219.927273 264.049349 
L 228.043636 263.93438 
L 236.16 263.890914 
L 244.276364 263.866356 
L 252.392727 263.848117 
L 260.509091 263.833028 
L 268.625455 263.8201 
L 276.741818 263.808871 
L 284.858182 263.79904 
L 292.974545 263.790382 
L 301.090909 263.782714 
L 309.207273 263.775891 
L 317.323636 263.769791 
L 325.44 263.764317 
L 333.556364 263.759385 
L 341.672727 263.754924 
L 349.789091 263.750878 
L 357.905455 263.747195 
L 366.021818 263.743834 
L 374.138182 263.740758 
L 382.254545 263.737935 
L 390.370909 263.735339 
" style="fill:none;stroke:#add8e6;stroke-linecap:square;stroke-opacity:0.3;stroke-width:1.5;"/>
   </g>
   <g id="line2d_20">
    <path clip-path="url(#p13114d72c5)" d="M 73.832727 258.905498 
L 81.949091 293.339799 
L 90.065455 201.840941 
L 98.181818 289.071554 
L 106.298182 194.769564 
L 114.414545 285.296756 
L 122.530909 291.018358 
L 130.647273 267.260456 
L 138.763636 261.028509 
L 146.88 259.412832 
L 154.996364 258.980662 
L 163.112727 258.840966 
L 171.229091 258.776195 
L 179.345455 258.734971 
L 187.461818 258.704409 
L 195.578182 258.680391 
L 203.694545 258.661014 
L 211.810909 258.645117 
L 219.927273 258.631904 
L 228.043636 258.620798 
L 236.16 258.611371 
L 244.276364 258.603299 
L 252.392727 258.596333 
L 260.509091 258.590279 
L 268.625455 258.584985 
L 276.741818 258.580326 
L 284.858182 258.576206 
L 292.974545 258.572545 
L 301.090909 258.569276 
L 309.207273 258.566345 
L 317.323636 258.563707 
L 325.44 258.561324 
L 333.556364 258.559165 
L 341.672727 258.557201 
L 349.789091 258.555411 
L 357.905455 258.553774 
L 366.021818 258.552273 
L 374.138182 258.550894 
L 382.254545 258.549624 
L 390.370909 258.548451 
" style="fill:none;stroke:#add8e6;stroke-linecap:square;stroke-opacity:0.3;stroke-width:1.5;"/>
   </g>
   <g id="line2d_21">
    <path clip-path="url(#p13114d72c5)" d="M 73.832727 258.905498 
L 81.949091 293.339799 
L 90.065455 201.840941 
L 98.181818 289.071554 
L 106.298182 293.265506 
L 114.414545 294.088627 
L 122.530909 277.111939 
L 130.647273 271.923566 
L 138.763636 270.326848 
L 146.88 269.819139 
L 154.996364 269.632044 
L 163.112727 269.542028 
L 171.229091 269.486201 
L 179.345455 269.446118 
L 187.461818 269.415353 
L 195.578182 269.390957 
L 203.694545 269.371218 
L 211.810909 269.354999 
L 219.927273 269.341503 
L 228.043636 269.330148 
L 236.16 269.320501 
L 244.276364 269.312234 
L 252.392727 269.305095 
L 260.509091 269.298887 
L 268.625455 269.293454 
L 276.741818 269.288672 
L 284.858182 269.28444 
L 292.974545 269.280677 
L 301.090909 269.277316 
L 309.207273 269.274302 
L 317.323636 269.271588 
L 325.44 269.269136 
L 333.556364 269.266913 
L 341.672727 269.264892 
L 349.789091 269.263048 
L 357.905455 269.261361 
L 366.021818 269.259814 
L 374.138182 269.258393 
L 382.254545 269.257083 
L 390.370909 269.255873 
" style="fill:none;stroke:#add8e6;stroke-linecap:square;stroke-opacity:0.3;stroke-width:1.5;"/>
   </g>
   <g id="line2d_22">
    <path clip-path="url(#p13114d72c5)" d="M 73.832727 258.905498 
L 81.949091 293.339799 
L 90.065455 295.064272 
L 98.181818 295.488 
L 106.298182 285.891377 
L 114.414545 282.370123 
L 122.530909 280.949074 
L 130.647273 280.336929 
L 138.763636 280.048035 
L 146.88 279.893358 
L 154.996364 279.798781 
L 163.112727 279.734494 
L 171.229091 279.687625 
L 179.345455 279.651921 
L 187.461818 279.623923 
L 195.578182 279.6015 
L 203.694545 279.583238 
L 211.810909 279.568157 
L 219.927273 279.555551 
L 228.043636 279.544905 
L 236.16 279.535829 
L 244.276364 279.528028 
L 252.392727 279.521273 
L 260.509091 279.515384 
L 268.625455 279.510218 
L 276.741818 279.505662 
L 284.858182 279.501624 
L 292.974545 279.498026 
L 301.090909 279.494808 
L 309.207273 279.491917 
L 317.323636 279.489311 
L 325.44 279.486953 
L 333.556364 279.484813 
L 341.672727 279.482865 
L 349.789091 279.481086 
L 357.905455 279.479457 
L 366.021818 279.477962 
L 374.138182 279.476587 
L 382.254545 279.475319 
L 390.370909 279.474147 
" style="fill:none;stroke:#add8e6;stroke-linecap:square;stroke-opacity:0.3;stroke-width:1.5;"/>
   </g>
   <g id="line2d_23">
    <path clip-path="url(#p13114d72c5)" d="M 73.832727 258.905498 
L 81.949091 130.924187 
L 90.065455 276.410825 
L 98.181818 148.787775 
L 106.298182 269.545796 
L 114.414545 285.181958 
L 122.530909 288.554867 
L 130.647273 177.09606 
L 138.763636 272.399499 
L 146.88 248.831162 
L 154.996364 240.974764 
L 163.112727 238.438022 
L 171.229091 237.633846 
L 179.345455 281.541207 
L 187.461818 251.416618 
L 195.578182 243.557509 
L 203.694545 241.610792 
L 211.810909 241.138495 
L 219.927273 241.014137 
L 228.043636 240.969896 
L 236.16 240.94532 
L 244.276364 240.927066 
L 252.392727 240.911992 
L 260.509091 240.899127 
L 268.625455 240.888007 
L 276.741818 240.878316 
L 284.858182 240.869818 
L 292.974545 240.862321 
L 301.090909 240.855675 
L 309.207273 240.849755 
L 317.323636 240.844457 
L 325.44 240.839698 
L 333.556364 240.835406 
L 341.672727 240.831523 
L 349.789091 240.827996 
L 357.905455 240.824785 
L 366.021818 240.821852 
L 374.138182 240.819167 
L 382.254545 240.816701 
L 390.370909 240.814432 
" style="fill:none;stroke:#add8e6;stroke-linecap:square;stroke-opacity:0.3;stroke-width:1.5;"/>
   </g>
   <g id="line2d_24">
    <path clip-path="url(#p13114d72c5)" d="M 73.832727 258.905498 
L 81.949091 293.339799 
L 90.065455 295.064272 
L 98.181818 295.488 
L 106.298182 285.891377 
L 114.414545 282.370123 
L 122.530909 280.949074 
L 130.647273 280.336929 
L 138.763636 280.048035 
L 146.88 279.893358 
L 154.996364 279.798781 
L 163.112727 279.734494 
L 171.229091 279.687625 
L 179.345455 279.651921 
L 187.461818 279.623923 
L 195.578182 279.6015 
L 203.694545 279.583238 
L 211.810909 279.568157 
L 219.927273 279.555551 
L 228.043636 279.544905 
L 236.16 279.535829 
L 244.276364 279.528028 
L 252.392727 279.521273 
L 260.509091 279.515384 
L 268.625455 279.510218 
L 276.741818 279.505662 
L 284.858182 279.501624 
L 292.974545 279.498026 
L 301.090909 279.494808 
L 309.207273 279.491917 
L 317.323636 279.489311 
L 325.44 279.486953 
L 333.556364 279.484813 
L 341.672727 279.482865 
L 349.789091 279.481086 
L 357.905455 279.479457 
L 366.021818 279.477962 
L 374.138182 279.476587 
L 382.254545 279.475319 
L 390.370909 279.474147 
" style="fill:none;stroke:#add8e6;stroke-linecap:square;stroke-opacity:0.3;stroke-width:1.5;"/>
   </g>
   <g id="line2d_25">
    <path clip-path="url(#p13114d72c5)" d="M 73.832727 258.905498 
L 81.949091 293.339799 
L 90.065455 201.840941 
L 98.181818 289.071554 
L 106.298182 194.769564 
L 114.414545 285.296756 
L 122.530909 291.018358 
L 130.647273 267.260456 
L 138.763636 261.028509 
L 146.88 259.412832 
L 154.996364 258.980662 
L 163.112727 258.840966 
L 171.229091 258.776195 
L 179.345455 258.734971 
L 187.461818 258.704409 
L 195.578182 258.680391 
L 203.694545 258.661014 
L 211.810909 258.645117 
L 219.927273 258.631904 
L 228.043636 258.620798 
L 236.16 258.611371 
L 244.276364 258.603299 
L 252.392727 258.596333 
L 260.509091 258.590279 
L 268.625455 258.584985 
L 276.741818 258.580326 
L 284.858182 258.576206 
L 292.974545 258.572545 
L 301.090909 258.569276 
L 309.207273 258.566345 
L 317.323636 258.563707 
L 325.44 258.561324 
L 333.556364 258.559165 
L 341.672727 258.557201 
L 349.789091 258.555411 
L 357.905455 258.553774 
L 366.021818 258.552273 
L 374.138182 258.550894 
L 382.254545 258.549624 
L 390.370909 258.548451 
" style="fill:none;stroke:#add8e6;stroke-linecap:square;stroke-opacity:0.3;stroke-width:1.5;"/>
   </g>
   <g id="line2d_26">
    <path clip-path="url(#p13114d72c5)" d="M 73.832727 96.937166 
L 81.949091 60.496642 
L 90.065455 55.739298 
L 98.181818 53.568 
L 106.298182 69.289592 
L 114.414545 76.029729 
L 122.530909 79.032681 
L 130.647273 80.378667 
L 138.763636 81.006463 
L 146.88 81.328284 
L 154.996364 81.515684 
L 163.112727 81.638369 
L 171.229091 81.725636 
L 179.345455 81.791051 
L 187.461818 81.841767 
L 195.578182 81.882033 
L 203.694545 81.914596 
L 211.810909 81.941329 
L 219.927273 81.96356 
L 228.043636 81.982254 
L 236.16 81.998129 
L 244.276364 82.011728 
L 252.392727 82.023468 
L 260.509091 82.033675 
L 268.625455 82.042605 
L 276.741818 82.050464 
L 284.858182 82.057417 
L 292.974545 82.063599 
L 301.090909 82.069119 
L 309.207273 82.074069 
L 317.323636 82.078526 
L 325.44 82.082553 
L 333.556364 82.086203 
L 341.672727 82.089522 
L 349.789091 82.092549 
L 357.905455 82.095318 
L 366.021818 82.097856 
L 374.138182 82.10019 
L 382.254545 82.10234 
L 390.370909 82.104325 
" style="fill:none;stroke:#ff0000;stroke-linecap:square;stroke-opacity:0.1;stroke-width:1.5;"/>
   </g>
   <g id="line2d_27">
    <path clip-path="url(#p13114d72c5)" d="M 73.832727 96.937166 
L 81.949091 60.496642 
L 90.065455 55.739298 
L 98.181818 53.568 
L 106.298182 69.289592 
L 114.414545 76.029729 
L 122.530909 79.032681 
L 130.647273 80.378667 
L 138.763636 81.006463 
L 146.88 81.328284 
L 154.996364 81.515684 
L 163.112727 81.638369 
L 171.229091 81.725636 
L 179.345455 81.791051 
L 187.461818 81.841767 
L 195.578182 81.882033 
L 203.694545 81.914596 
L 211.810909 81.941329 
L 219.927273 81.96356 
L 228.043636 81.982254 
L 236.16 81.998129 
L 244.276364 82.011728 
L 252.392727 82.023468 
L 260.509091 82.033675 
L 268.625455 82.042605 
L 276.741818 82.050464 
L 284.858182 82.057417 
L 292.974545 82.063599 
L 301.090909 82.069119 
L 309.207273 82.074069 
L 317.323636 82.078526 
L 325.44 82.082553 
L 333.556364 82.086203 
L 341.672727 82.089522 
L 349.789091 82.092549 
L 357.905455 82.095318 
L 366.021818 82.097856 
L 374.138182 82.10019 
L 382.254545 82.10234 
L 390.370909 82.104325 
" style="fill:none;stroke:#ff0000;stroke-linecap:square;stroke-opacity:0.1;stroke-width:1.5;"/>
   </g>
   <g id="line2d_28">
    <path clip-path="url(#p13114d72c5)" d="M 73.832727 96.937166 
L 81.949091 60.496642 
L 90.065455 55.739298 
L 98.181818 53.568 
L 106.298182 69.289592 
L 114.414545 76.029729 
L 122.530909 79.032681 
L 130.647273 80.378667 
L 138.763636 81.006463 
L 146.88 81.328284 
L 154.996364 81.515684 
L 163.112727 81.638369 
L 171.229091 81.725636 
L 179.345455 81.791051 
L 187.461818 81.841767 
L 195.578182 81.882033 
L 203.694545 81.914596 
L 211.810909 81.941329 
L 219.927273 81.96356 
L 228.043636 81.982254 
L 236.16 81.998129 
L 244.276364 82.011728 
L 252.392727 82.023468 
L 260.509091 82.033675 
L 268.625455 82.042605 
L 276.741818 82.050464 
L 284.858182 82.057417 
L 292.974545 82.063599 
L 301.090909 82.069119 
L 309.207273 82.074069 
L 317.323636 82.078526 
L 325.44 82.082553 
L 333.556364 82.086203 
L 341.672727 82.089522 
L 349.789091 82.092549 
L 357.905455 82.095318 
L 366.021818 82.097856 
L 374.138182 82.10019 
L 382.254545 82.10234 
L 390.370909 82.104325 
" style="fill:none;stroke:#ff0000;stroke-linecap:square;stroke-opacity:0.1;stroke-width:1.5;"/>
   </g>
   <g id="line2d_29">
    <path clip-path="url(#p13114d72c5)" d="M 73.832727 96.937166 
L 81.949091 60.496642 
L 90.065455 173.486354 
L 98.181818 235.363291 
L 106.298182 94.535398 
L 114.414545 71.678532 
L 122.530909 65.633066 
L 130.647273 98.956296 
L 138.763636 66.750681 
L 146.88 96.105339 
L 154.996364 65.301196 
L 163.112727 93.153499 
L 171.229091 101.942464 
L 179.345455 104.654362 
L 187.461818 65.129276 
L 195.578182 92.713944 
L 203.694545 100.025776 
L 211.810909 101.933794 
L 219.927273 102.432675 
L 228.043636 102.576396 
L 236.16 102.631736 
L 244.276364 102.663581 
L 252.392727 102.687443 
L 260.509091 102.707245 
L 268.625455 102.724235 
L 276.741818 102.739005 
L 284.858182 102.751944 
L 292.974545 102.763348 
L 301.090909 102.773453 
L 309.207273 102.782449 
L 317.323636 102.790495 
L 325.44 102.79772 
L 333.556364 102.804232 
L 341.672727 102.810123 
L 349.789091 102.81547 
L 357.905455 102.820337 
L 366.021818 102.824782 
L 374.138182 102.82885 
L 382.254545 102.832585 
L 390.370909 102.836021 
" style="fill:none;stroke:#ff0000;stroke-linecap:square;stroke-opacity:0.1;stroke-width:1.5;"/>
   </g>
   <g id="line2d_30">
    <path clip-path="url(#p13114d72c5)" d="M 73.832727 96.937166 
L 81.949091 60.496642 
L 90.065455 173.486354 
L 98.181818 75.300038 
L 106.298182 183.110881 
L 114.414545 82.227645 
L 122.530909 68.804031 
L 130.647273 99.48878 
L 138.763636 108.062228 
L 146.88 110.372413 
L 154.996364 111.00651 
L 163.112727 111.215062 
L 171.229091 111.31258 
L 179.345455 111.374762 
L 187.461818 111.420848 
L 195.578182 111.457042 
L 203.694545 111.486225 
L 211.810909 111.510152 
L 219.927273 111.530031 
L 228.043636 111.546734 
L 236.16 111.560906 
L 244.276364 111.573037 
L 252.392727 111.583502 
L 260.509091 111.592595 
L 268.625455 111.600546 
L 276.741818 111.60754 
L 284.858182 111.613724 
L 292.974545 111.619219 
L 301.090909 111.624125 
L 309.207273 111.628522 
L 317.323636 111.632479 
L 325.44 111.636052 
L 333.556364 111.639291 
L 341.672727 111.642235 
L 349.789091 111.644919 
L 357.905455 111.647373 
L 366.021818 111.649623 
L 374.138182 111.65169 
L 382.254545 111.653594 
L 390.370909 111.655352 
" style="fill:none;stroke:#ff0000;stroke-linecap:square;stroke-opacity:0.1;stroke-width:1.5;"/>
   </g>
   <g id="line2d_31">
    <path clip-path="url(#p13114d72c5)" d="M 73.832727 96.937166 
L 81.949091 60.496642 
L 90.065455 173.486354 
L 98.181818 75.300038 
L 106.298182 63.308053 
L 114.414545 59.603305 
L 122.530909 84.539997 
L 130.647273 92.676336 
L 138.763636 95.276547 
L 146.88 96.118066 
L 154.996364 96.427982 
L 163.112727 96.575234 
L 171.229091 96.665444 
L 179.345455 96.729732 
L 187.461818 96.778861 
L 195.578182 96.817703 
L 203.694545 96.84906 
L 211.810909 96.874774 
L 219.927273 96.896137 
L 228.043636 96.914085 
L 236.16 96.929313 
L 244.276364 96.942348 
L 252.392727 96.953594 
L 260.509091 96.963365 
L 268.625455 96.971908 
L 276.741818 96.979423 
L 284.858182 96.986068 
L 292.974545 96.991973 
L 301.090909 96.997244 
L 309.207273 97.001969 
L 317.323636 97.006221 
L 325.44 97.010061 
L 333.556364 97.013541 
L 341.672727 97.016704 
L 349.789091 97.019588 
L 357.905455 97.022225 
L 366.021818 97.024643 
L 374.138182 97.026864 
L 382.254545 97.028911 
L 390.370909 97.0308 
" style="fill:none;stroke:#ff0000;stroke-linecap:square;stroke-opacity:0.1;stroke-width:1.5;"/>
   </g>
   <g id="line2d_32">
    <path clip-path="url(#p13114d72c5)" d="M 73.832727 96.937166 
L 81.949091 60.496642 
L 90.065455 55.739298 
L 98.181818 53.568 
L 106.298182 69.289592 
L 114.414545 76.029729 
L 122.530909 79.032681 
L 130.647273 80.378667 
L 138.763636 81.006463 
L 146.88 81.328284 
L 154.996364 81.515684 
L 163.112727 81.638369 
L 171.229091 81.725636 
L 179.345455 81.791051 
L 187.461818 81.841767 
L 195.578182 81.882033 
L 203.694545 81.914596 
L 211.810909 81.941329 
L 219.927273 81.96356 
L 228.043636 81.982254 
L 236.16 81.998129 
L 244.276364 82.011728 
L 252.392727 82.023468 
L 260.509091 82.033675 
L 268.625455 82.042605 
L 276.741818 82.050464 
L 284.858182 82.057417 
L 292.974545 82.063599 
L 301.090909 82.069119 
L 309.207273 82.074069 
L 317.323636 82.078526 
L 325.44 82.082553 
L 333.556364 82.086203 
L 341.672727 82.089522 
L 349.789091 82.092549 
L 357.905455 82.095318 
L 366.021818 82.097856 
L 374.138182 82.10019 
L 382.254545 82.10234 
L 390.370909 82.104325 
" style="fill:none;stroke:#ff0000;stroke-linecap:square;stroke-opacity:0.1;stroke-width:1.5;"/>
   </g>
   <g id="line2d_33">
    <path clip-path="url(#p13114d72c5)" d="M 73.832727 96.937166 
L 81.949091 244.774712 
L 90.065455 96.875789 
L 98.181818 235.479961 
L 106.298182 107.441934 
L 114.414545 79.695225 
L 122.530909 71.756897 
L 130.647273 206.57823 
L 138.763636 99.065616 
L 146.88 124.90612 
L 154.996364 133.906103 
L 163.112727 136.859877 
L 171.229091 137.805297 
L 179.345455 83.864122 
L 187.461818 121.311071 
L 195.578182 130.698175 
L 203.694545 132.987423 
L 211.810909 133.541127 
L 219.927273 133.688189 
L 228.043636 133.741648 
L 236.16 133.771951 
L 244.276364 133.794664 
L 252.392727 133.813483 
L 260.509091 133.829565 
L 268.625455 133.843483 
L 276.741818 133.855622 
L 284.858182 133.866276 
L 292.974545 133.875681 
L 301.090909 133.884024 
L 309.207273 133.891462 
L 317.323636 133.89812 
L 325.44 133.904106 
L 333.556364 133.909506 
L 341.672727 133.914395 
L 349.789091 133.918836 
L 357.905455 133.922882 
L 366.021818 133.926578 
L 374.138182 133.929965 
L 382.254545 133.933075 
L 390.370909 133.935938 
" style="fill:none;stroke:#ff0000;stroke-linecap:square;stroke-opacity:0.1;stroke-width:1.5;"/>
   </g>
   <g id="line2d_34">
    <path clip-path="url(#p13114d72c5)" d="M 73.832727 96.937166 
L 81.949091 60.496642 
L 90.065455 55.739298 
L 98.181818 53.568 
L 106.298182 69.289592 
L 114.414545 76.029729 
L 122.530909 79.032681 
L 130.647273 80.378667 
L 138.763636 81.006463 
L 146.88 81.328284 
L 154.996364 81.515684 
L 163.112727 81.638369 
L 171.229091 81.725636 
L 179.345455 81.791051 
L 187.461818 81.841767 
L 195.578182 81.882033 
L 203.694545 81.914596 
L 211.810909 81.941329 
L 219.927273 81.96356 
L 228.043636 81.982254 
L 236.16 81.998129 
L 244.276364 82.011728 
L 252.392727 82.023468 
L 260.509091 82.033675 
L 268.625455 82.042605 
L 276.741818 82.050464 
L 284.858182 82.057417 
L 292.974545 82.063599 
L 301.090909 82.069119 
L 309.207273 82.074069 
L 317.323636 82.078526 
L 325.44 82.082553 
L 333.556364 82.086203 
L 341.672727 82.089522 
L 349.789091 82.092549 
L 357.905455 82.095318 
L 366.021818 82.097856 
L 374.138182 82.10019 
L 382.254545 82.10234 
L 390.370909 82.104325 
" style="fill:none;stroke:#ff0000;stroke-linecap:square;stroke-opacity:0.1;stroke-width:1.5;"/>
   </g>
   <g id="line2d_35">
    <path clip-path="url(#p13114d72c5)" d="M 73.832727 96.937166 
L 81.949091 60.496642 
L 90.065455 173.486354 
L 98.181818 75.300038 
L 106.298182 183.110881 
L 114.414545 82.227645 
L 122.530909 68.804031 
L 130.647273 99.48878 
L 138.763636 108.062228 
L 146.88 110.372413 
L 154.996364 111.00651 
L 163.112727 111.215062 
L 171.229091 111.31258 
L 179.345455 111.374762 
L 187.461818 111.420848 
L 195.578182 111.457042 
L 203.694545 111.486225 
L 211.810909 111.510152 
L 219.927273 111.530031 
L 228.043636 111.546734 
L 236.16 111.560906 
L 244.276364 111.573037 
L 252.392727 111.583502 
L 260.509091 111.592595 
L 268.625455 111.600546 
L 276.741818 111.60754 
L 284.858182 111.613724 
L 292.974545 111.619219 
L 301.090909 111.624125 
L 309.207273 111.628522 
L 317.323636 111.632479 
L 325.44 111.636052 
L 333.556364 111.639291 
L 341.672727 111.642235 
L 349.789091 111.644919 
L 357.905455 111.647373 
L 366.021818 111.649623 
L 374.138182 111.65169 
L 382.254545 111.653594 
L 390.370909 111.655352 
" style="fill:none;stroke:#ff0000;stroke-linecap:square;stroke-opacity:0.1;stroke-width:1.5;"/>
   </g>
   <g id="line2d_36">
    <path clip-path="url(#p13114d72c5)" d="M 73.832727 258.905498 
L 81.949091 277.098238 
L 90.065455 255.909595 
L 98.181818 263.453687 
L 106.298182 266.090983 
L 114.414545 285.176448 
L 122.530909 284.436381 
L 130.647273 265.191567 
L 138.763636 275.64096 
L 146.88 270.605162 
L 154.996364 271.952027 
L 163.112727 269.566549 
L 171.229091 268.764843 
L 179.345455 272.911185 
L 187.461818 272.835238 
L 195.578182 269.99744 
L 203.694545 269.219193 
L 211.810909 269.007502 
L 219.927273 268.944655 
L 228.043636 268.920055 
L 236.16 268.905862 
L 244.276364 268.89524 
L 252.392727 268.886423 
L 260.509091 268.878852 
L 268.625455 268.872262 
L 276.741818 268.866482 
L 284.858182 268.861383 
L 292.974545 268.85686 
L 301.090909 268.85283 
L 309.207273 268.849222 
L 317.323636 268.845981 
L 325.44 268.843057 
L 333.556364 268.84041 
L 341.672727 268.838007 
L 349.789091 268.835817 
L 357.905455 268.833818 
L 366.021818 268.831986 
L 374.138182 268.830304 
L 382.254545 268.828756 
L 390.370909 268.827328 
" style="fill:none;stroke:#1f77b4;stroke-linecap:square;stroke-width:1.5;"/>
   </g>
   <g id="line2d_37">
    <path clip-path="url(#p13114d72c5)" d="M 73.832727 96.937166 
L 81.949091 78.924449 
L 90.065455 106.95177 
L 98.181818 96.458337 
L 106.298182 97.795511 
L 114.414545 75.5581 
L 122.530909 75.470143 
L 130.647273 99.908176 
L 138.763636 88.224961 
L 146.88 94.451577 
L 154.996364 92.522672 
L 163.112727 95.721058 
L 171.229091 96.766655 
L 179.345455 91.695299 
L 187.461818 91.526974 
L 195.578182 95.255407 
L 203.694545 96.240769 
L 211.810909 96.507664 
L 219.927273 96.589486 
L 228.043636 96.623687 
L 236.16 96.644546 
L 244.276364 96.660531 
L 252.392727 96.673886 
L 260.509091 96.685374 
L 268.625455 96.695374 
L 276.741818 96.704145 
L 284.858182 96.711882 
L 292.974545 96.718743 
L 301.090909 96.724856 
L 309.207273 96.730327 
L 317.323636 96.735242 
L 325.44 96.739675 
L 333.556364 96.743687 
L 341.672727 96.74733 
L 349.789091 96.750648 
L 357.905455 96.753678 
L 366.021818 96.756453 
L 374.138182 96.759001 
L 382.254545 96.761346 
L 390.370909 96.763509 
" style="fill:none;stroke:#ff0000;stroke-linecap:square;stroke-width:1.5;"/>
   </g>
   <g id="patch_5">
    <path d="M 57.6 307.584 
L 57.6 41.472 
" style="fill:none;stroke:#000000;stroke-linecap:square;stroke-linejoin:miter;stroke-width:0.8;"/>
   </g>
   <g id="patch_6">
    <path d="M 414.72 307.584 
L 414.72 41.472 
" style="fill:none;stroke:#000000;stroke-linecap:square;stroke-linejoin:miter;stroke-width:0.8;"/>
   </g>
   <g id="patch_7">
    <path d="M 57.6 307.584 
L 414.72 307.584 
" style="fill:none;stroke:#000000;stroke-linecap:square;stroke-linejoin:miter;stroke-width:0.8;"/>
   </g>
   <g id="patch_8">
    <path d="M 57.6 41.472 
L 414.72 41.472 
" style="fill:none;stroke:#000000;stroke-linecap:square;stroke-linejoin:miter;stroke-width:0.8;"/>
   </g>
   <g id="text_18">
    <!-- Type1_depressed -->
    <g transform="translate(184.4775 35.472)scale(0.12 -0.12)">
     <defs>
      <path d="M -19 4666 
L 3928 4666 
L 3928 4134 
L 2272 4134 
L 2272 0 
L 1638 0 
L 1638 4134 
L -19 4134 
L -19 4666 
z
" id="DejaVuSans-54" transform="scale(0.015625)"/>
      <path d="M 2059 -325 
Q 1816 -950 1584 -1140 
Q 1353 -1331 966 -1331 
L 506 -1331 
L 506 -850 
L 844 -850 
Q 1081 -850 1212 -737 
Q 1344 -625 1503 -206 
L 1606 56 
L 191 3500 
L 800 3500 
L 1894 763 
L 2988 3500 
L 3597 3500 
L 2059 -325 
z
" id="DejaVuSans-79" transform="scale(0.015625)"/>
      <path d="M 3263 -1063 
L 3263 -1509 
L -63 -1509 
L -63 -1063 
L 3263 -1063 
z
" id="DejaVuSans-5f" transform="scale(0.015625)"/>
      <path d="M 2906 2969 
L 2906 4863 
L 3481 4863 
L 3481 0 
L 2906 0 
L 2906 525 
Q 2725 213 2448 61 
Q 2172 -91 1784 -91 
Q 1150 -91 751 415 
Q 353 922 353 1747 
Q 353 2572 751 3078 
Q 1150 3584 1784 3584 
Q 2172 3584 2448 3432 
Q 2725 3281 2906 2969 
z
M 947 1747 
Q 947 1113 1208 752 
Q 1469 391 1925 391 
Q 2381 391 2643 752 
Q 2906 1113 2906 1747 
Q 2906 2381 2643 2742 
Q 2381 3103 1925 3103 
Q 1469 3103 1208 2742 
Q 947 2381 947 1747 
z
" id="DejaVuSans-64" transform="scale(0.015625)"/>
      <path d="M 2631 2963 
Q 2534 3019 2420 3045 
Q 2306 3072 2169 3072 
Q 1681 3072 1420 2755 
Q 1159 2438 1159 1844 
L 1159 0 
L 581 0 
L 581 3500 
L 1159 3500 
L 1159 2956 
Q 1341 3275 1631 3429 
Q 1922 3584 2338 3584 
Q 2397 3584 2469 3576 
Q 2541 3569 2628 3553 
L 2631 2963 
z
" id="DejaVuSans-72" transform="scale(0.015625)"/>
      <path d="M 2834 3397 
L 2834 2853 
Q 2591 2978 2328 3040 
Q 2066 3103 1784 3103 
Q 1356 3103 1142 2972 
Q 928 2841 928 2578 
Q 928 2378 1081 2264 
Q 1234 2150 1697 2047 
L 1894 2003 
Q 2506 1872 2764 1633 
Q 3022 1394 3022 966 
Q 3022 478 2636 193 
Q 2250 -91 1575 -91 
Q 1294 -91 989 -36 
Q 684 19 347 128 
L 347 722 
Q 666 556 975 473 
Q 1284 391 1588 391 
Q 1994 391 2212 530 
Q 2431 669 2431 922 
Q 2431 1156 2273 1281 
Q 2116 1406 1581 1522 
L 1381 1569 
Q 847 1681 609 1914 
Q 372 2147 372 2553 
Q 372 3047 722 3315 
Q 1072 3584 1716 3584 
Q 2034 3584 2315 3537 
Q 2597 3491 2834 3397 
z
" id="DejaVuSans-73" transform="scale(0.015625)"/>
     </defs>
     <use xlink:href="#DejaVuSans-54"/>
     <use x="45.458984" xlink:href="#DejaVuSans-79"/>
     <use x="104.638672" xlink:href="#DejaVuSans-70"/>
     <use x="168.115234" xlink:href="#DejaVuSans-65"/>
     <use x="229.638672" xlink:href="#DejaVuSans-31"/>
     <use x="293.261719" xlink:href="#DejaVuSans-5f"/>
     <use x="343.261719" xlink:href="#DejaVuSans-64"/>
     <use x="406.738281" xlink:href="#DejaVuSans-65"/>
     <use x="468.261719" xlink:href="#DejaVuSans-70"/>
     <use x="531.738281" xlink:href="#DejaVuSans-72"/>
     <use x="570.601562" xlink:href="#DejaVuSans-65"/>
     <use x="632.125" xlink:href="#DejaVuSans-73"/>
     <use x="684.224609" xlink:href="#DejaVuSans-73"/>
     <use x="736.324219" xlink:href="#DejaVuSans-65"/>
     <use x="797.847656" xlink:href="#DejaVuSans-64"/>
    </g>
   </g>
   <g id="legend_1">
    <g id="patch_9">
     <path d="M 351.635625 78.82825 
L 407.72 78.82825 
Q 409.72 78.82825 409.72 76.82825 
L 409.72 48.472 
Q 409.72 46.472 407.72 46.472 
L 351.635625 46.472 
Q 349.635625 46.472 349.635625 48.472 
L 349.635625 76.82825 
Q 349.635625 78.82825 351.635625 78.82825 
z
" style="fill:#ffffff;opacity:0.8;stroke:#cccccc;stroke-linejoin:miter;"/>
    </g>
    <g id="line2d_38">
     <path d="M 353.635625 54.570437 
L 373.635625 54.570437 
" style="fill:none;stroke:#1f77b4;stroke-linecap:square;stroke-width:1.5;"/>
    </g>
    <g id="line2d_39"/>
    <g id="text_19">
     <!-- coop -->
     <g transform="translate(381.635625 58.070437)scale(0.1 -0.1)">
      <use xlink:href="#DejaVuSans-63"/>
      <use x="54.980469" xlink:href="#DejaVuSans-6f"/>
      <use x="116.162109" xlink:href="#DejaVuSans-6f"/>
      <use x="177.34375" xlink:href="#DejaVuSans-70"/>
     </g>
    </g>
    <g id="line2d_40">
     <path d="M 353.635625 69.248562 
L 373.635625 69.248562 
" style="fill:none;stroke:#ff0000;stroke-linecap:square;stroke-width:1.5;"/>
    </g>
    <g id="line2d_41"/>
    <g id="text_20">
     <!-- host -->
     <g transform="translate(381.635625 72.748562)scale(0.1 -0.1)">
      <defs>
       <path d="M 3513 2113 
L 3513 0 
L 2938 0 
L 2938 2094 
Q 2938 2591 2744 2837 
Q 2550 3084 2163 3084 
Q 1697 3084 1428 2787 
Q 1159 2491 1159 1978 
L 1159 0 
L 581 0 
L 581 4863 
L 1159 4863 
L 1159 2956 
Q 1366 3272 1645 3428 
Q 1925 3584 2291 3584 
Q 2894 3584 3203 3211 
Q 3513 2838 3513 2113 
z
" id="DejaVuSans-68" transform="scale(0.015625)"/>
      </defs>
      <use xlink:href="#DejaVuSans-68"/>
      <use x="63.378906" xlink:href="#DejaVuSans-6f"/>
      <use x="124.560547" xlink:href="#DejaVuSans-73"/>
      <use x="176.660156" xlink:href="#DejaVuSans-74"/>
     </g>
    </g>
   </g>
  </g>
 </g>
 <defs>
  <clipPath id="p13114d72c5">
   <rect height="266.112" width="357.12" x="57.6" y="41.472"/>
  </clipPath>
 </defs>
</svg>
