<?xml version="1.0" encoding="utf-8" standalone="no"?>
<!DOCTYPE svg PUBLIC "-//W3C//DTD SVG 1.1//EN"
  "http://www.w3.org/Graphics/SVG/1.1/DTD/svg11.dtd">
<svg height="345.6pt" version="1.1" viewBox="0 0 460.8 345.6" width="460.8pt" xmlns="http://www.w3.org/2000/svg" xmlns:xlink="http://www.w3.org/1999/xlink">
 <metadata>
  <rdf:RDF xmlns:cc="http://creativecommons.org/ns#" xmlns:dc="http://purl.org/dc/elements/1.1/" xmlns:rdf="http://www.w3.org/1999/02/22-rdf-syntax-ns#">
   <cc:Work>
    <dc:type rdf:resource="http://purl.org/dc/dcmitype/StillImage"/>
    <dc:date>2023-09-18T17:59:11.393968</dc:date>
    <dc:format>image/svg+xml</dc:format>
    <dc:creator>
     <cc:Agent>
      <dc:title>Matplotlib v3.4.1, https://matplotlib.org/</dc:title>
     </cc:Agent>
    </dc:creator>
   </cc:Work>
  </rdf:RDF>
 </metadata>
 <defs>
  <style type="text/css">*{stroke-linecap:butt;stroke-linejoin:round;}</style>
 </defs>
 <g id="figure_1">
  <g id="patch_1">
   <path d="M 0 345.6 
L 460.8 345.6 
L 460.8 0 
L 0 0 
z
" style="fill:#ffffff;"/>
  </g>
  <g id="axes_1">
   <g id="patch_2">
    <path d="M 57.6 307.584 
L 414.72 307.584 
L 414.72 41.472 
L 57.6 41.472 
z
" style="fill:#ffffff;"/>
   </g>
   <g id="patch_3">
    <path clip-path="url(#pa6d9b364a1)" d="M 73.832727 307.584 
L 73.832727 41.472 
L 236.16 41.472 
L 236.16 307.584 
z
" style="fill:#add8e6;opacity:0.2;"/>
   </g>
   <g id="patch_4">
    <path clip-path="url(#pa6d9b364a1)" d="M 236.16 307.584 
L 236.16 41.472 
L 398.487273 41.472 
L 398.487273 307.584 
z
" style="fill:#ff7f50;opacity:0.2;"/>
   </g>
   <g id="matplotlib.axis_1">
    <g id="xtick_1">
     <g id="line2d_1">
      <defs>
       <path d="M 0 0 
L 0 3.5 
" id="m3bc6ebc247" style="stroke:#000000;stroke-width:0.8;"/>
      </defs>
      <g>
       <use style="stroke:#000000;stroke-width:0.8;" x="73.832727" xlink:href="#m3bc6ebc247" y="307.584"/>
      </g>
     </g>
     <g id="text_1">
      <!-- 0 -->
      <g transform="translate(70.651477 322.182437)scale(0.1 -0.1)">
       <defs>
        <path d="M 2034 4250 
Q 1547 4250 1301 3770 
Q 1056 3291 1056 2328 
Q 1056 1369 1301 889 
Q 1547 409 2034 409 
Q 2525 409 2770 889 
Q 3016 1369 3016 2328 
Q 3016 3291 2770 3770 
Q 2525 4250 2034 4250 
z
M 2034 4750 
Q 2819 4750 3233 4129 
Q 3647 3509 3647 2328 
Q 3647 1150 3233 529 
Q 2819 -91 2034 -91 
Q 1250 -91 836 529 
Q 422 1150 422 2328 
Q 422 3509 836 4129 
Q 1250 4750 2034 4750 
z
" id="DejaVuSans-30" transform="scale(0.015625)"/>
       </defs>
       <use xlink:href="#DejaVuSans-30"/>
      </g>
     </g>
    </g>
    <g id="xtick_2">
     <g id="line2d_2">
      <g>
       <use style="stroke:#000000;stroke-width:0.8;" x="114.414545" xlink:href="#m3bc6ebc247" y="307.584"/>
      </g>
     </g>
     <g id="text_2">
      <!-- 5 -->
      <g transform="translate(111.233295 322.182437)scale(0.1 -0.1)">
       <defs>
        <path d="M 691 4666 
L 3169 4666 
L 3169 4134 
L 1269 4134 
L 1269 2991 
Q 1406 3038 1543 3061 
Q 1681 3084 1819 3084 
Q 2600 3084 3056 2656 
Q 3513 2228 3513 1497 
Q 3513 744 3044 326 
Q 2575 -91 1722 -91 
Q 1428 -91 1123 -41 
Q 819 9 494 109 
L 494 744 
Q 775 591 1075 516 
Q 1375 441 1709 441 
Q 2250 441 2565 725 
Q 2881 1009 2881 1497 
Q 2881 1984 2565 2268 
Q 2250 2553 1709 2553 
Q 1456 2553 1204 2497 
Q 953 2441 691 2322 
L 691 4666 
z
" id="DejaVuSans-35" transform="scale(0.015625)"/>
       </defs>
       <use xlink:href="#DejaVuSans-35"/>
      </g>
     </g>
    </g>
    <g id="xtick_3">
     <g id="line2d_3">
      <g>
       <use style="stroke:#000000;stroke-width:0.8;" x="154.996364" xlink:href="#m3bc6ebc247" y="307.584"/>
      </g>
     </g>
     <g id="text_3">
      <!-- 10 -->
      <g transform="translate(148.633864 322.182437)scale(0.1 -0.1)">
       <defs>
        <path d="M 794 531 
L 1825 531 
L 1825 4091 
L 703 3866 
L 703 4441 
L 1819 4666 
L 2450 4666 
L 2450 531 
L 3481 531 
L 3481 0 
L 794 0 
L 794 531 
z
" id="DejaVuSans-31" transform="scale(0.015625)"/>
       </defs>
       <use xlink:href="#DejaVuSans-31"/>
       <use x="63.623047" xlink:href="#DejaVuSans-30"/>
      </g>
     </g>
    </g>
    <g id="xtick_4">
     <g id="line2d_4">
      <g>
       <use style="stroke:#000000;stroke-width:0.8;" x="195.578182" xlink:href="#m3bc6ebc247" y="307.584"/>
      </g>
     </g>
     <g id="text_4">
      <!-- 15 -->
      <g transform="translate(189.215682 322.182437)scale(0.1 -0.1)">
       <use xlink:href="#DejaVuSans-31"/>
       <use x="63.623047" xlink:href="#DejaVuSans-35"/>
      </g>
     </g>
    </g>
    <g id="xtick_5">
     <g id="line2d_5">
      <g>
       <use style="stroke:#000000;stroke-width:0.8;" x="236.16" xlink:href="#m3bc6ebc247" y="307.584"/>
      </g>
     </g>
     <g id="text_5">
      <!-- 20 -->
      <g transform="translate(229.7975 322.182437)scale(0.1 -0.1)">
       <defs>
        <path d="M 1228 531 
L 3431 531 
L 3431 0 
L 469 0 
L 469 531 
Q 828 903 1448 1529 
Q 2069 2156 2228 2338 
Q 2531 2678 2651 2914 
Q 2772 3150 2772 3378 
Q 2772 3750 2511 3984 
Q 2250 4219 1831 4219 
Q 1534 4219 1204 4116 
Q 875 4013 500 3803 
L 500 4441 
Q 881 4594 1212 4672 
Q 1544 4750 1819 4750 
Q 2544 4750 2975 4387 
Q 3406 4025 3406 3419 
Q 3406 3131 3298 2873 
Q 3191 2616 2906 2266 
Q 2828 2175 2409 1742 
Q 1991 1309 1228 531 
z
" id="DejaVuSans-32" transform="scale(0.015625)"/>
       </defs>
       <use xlink:href="#DejaVuSans-32"/>
       <use x="63.623047" xlink:href="#DejaVuSans-30"/>
      </g>
     </g>
    </g>
    <g id="xtick_6">
     <g id="line2d_6">
      <g>
       <use style="stroke:#000000;stroke-width:0.8;" x="276.741818" xlink:href="#m3bc6ebc247" y="307.584"/>
      </g>
     </g>
     <g id="text_6">
      <!-- 25 -->
      <g transform="translate(270.379318 322.182437)scale(0.1 -0.1)">
       <use xlink:href="#DejaVuSans-32"/>
       <use x="63.623047" xlink:href="#DejaVuSans-35"/>
      </g>
     </g>
    </g>
    <g id="xtick_7">
     <g id="line2d_7">
      <g>
       <use style="stroke:#000000;stroke-width:0.8;" x="317.323636" xlink:href="#m3bc6ebc247" y="307.584"/>
      </g>
     </g>
     <g id="text_7">
      <!-- 30 -->
      <g transform="translate(310.961136 322.182437)scale(0.1 -0.1)">
       <defs>
        <path d="M 2597 2516 
Q 3050 2419 3304 2112 
Q 3559 1806 3559 1356 
Q 3559 666 3084 287 
Q 2609 -91 1734 -91 
Q 1441 -91 1130 -33 
Q 819 25 488 141 
L 488 750 
Q 750 597 1062 519 
Q 1375 441 1716 441 
Q 2309 441 2620 675 
Q 2931 909 2931 1356 
Q 2931 1769 2642 2001 
Q 2353 2234 1838 2234 
L 1294 2234 
L 1294 2753 
L 1863 2753 
Q 2328 2753 2575 2939 
Q 2822 3125 2822 3475 
Q 2822 3834 2567 4026 
Q 2313 4219 1838 4219 
Q 1578 4219 1281 4162 
Q 984 4106 628 3988 
L 628 4550 
Q 988 4650 1302 4700 
Q 1616 4750 1894 4750 
Q 2613 4750 3031 4423 
Q 3450 4097 3450 3541 
Q 3450 3153 3228 2886 
Q 3006 2619 2597 2516 
z
" id="DejaVuSans-33" transform="scale(0.015625)"/>
       </defs>
       <use xlink:href="#DejaVuSans-33"/>
       <use x="63.623047" xlink:href="#DejaVuSans-30"/>
      </g>
     </g>
    </g>
    <g id="xtick_8">
     <g id="line2d_8">
      <g>
       <use style="stroke:#000000;stroke-width:0.8;" x="357.905455" xlink:href="#m3bc6ebc247" y="307.584"/>
      </g>
     </g>
     <g id="text_8">
      <!-- 35 -->
      <g transform="translate(351.542955 322.182437)scale(0.1 -0.1)">
       <use xlink:href="#DejaVuSans-33"/>
       <use x="63.623047" xlink:href="#DejaVuSans-35"/>
      </g>
     </g>
    </g>
    <g id="xtick_9">
     <g id="line2d_9">
      <g>
       <use style="stroke:#000000;stroke-width:0.8;" x="398.487273" xlink:href="#m3bc6ebc247" y="307.584"/>
      </g>
     </g>
     <g id="text_9">
      <!-- 40 -->
      <g transform="translate(392.124773 322.182437)scale(0.1 -0.1)">
       <defs>
        <path d="M 2419 4116 
L 825 1625 
L 2419 1625 
L 2419 4116 
z
M 2253 4666 
L 3047 4666 
L 3047 1625 
L 3713 1625 
L 3713 1100 
L 3047 1100 
L 3047 0 
L 2419 0 
L 2419 1100 
L 313 1100 
L 313 1709 
L 2253 4666 
z
" id="DejaVuSans-34" transform="scale(0.015625)"/>
       </defs>
       <use xlink:href="#DejaVuSans-34"/>
       <use x="63.623047" xlink:href="#DejaVuSans-30"/>
      </g>
     </g>
    </g>
    <g id="text_10">
     <!-- t -->
     <g transform="translate(234.199844 335.860562)scale(0.1 -0.1)">
      <defs>
       <path d="M 1172 4494 
L 1172 3500 
L 2356 3500 
L 2356 3053 
L 1172 3053 
L 1172 1153 
Q 1172 725 1289 603 
Q 1406 481 1766 481 
L 2356 481 
L 2356 0 
L 1766 0 
Q 1100 0 847 248 
Q 594 497 594 1153 
L 594 3053 
L 172 3053 
L 172 3500 
L 594 3500 
L 594 4494 
L 1172 4494 
z
" id="DejaVuSans-74" transform="scale(0.015625)"/>
      </defs>
      <use xlink:href="#DejaVuSans-74"/>
     </g>
    </g>
   </g>
   <g id="matplotlib.axis_2">
    <g id="ytick_1">
     <g id="line2d_10">
      <defs>
       <path d="M 0 0 
L -3.5 0 
" id="m5e0938f946" style="stroke:#000000;stroke-width:0.8;"/>
      </defs>
      <g>
       <use style="stroke:#000000;stroke-width:0.8;" x="57.6" xlink:href="#m5e0938f946" y="295.771572"/>
      </g>
     </g>
     <g id="text_11">
      <!-- 0.0 -->
      <g transform="translate(34.696875 299.570791)scale(0.1 -0.1)">
       <defs>
        <path d="M 684 794 
L 1344 794 
L 1344 0 
L 684 0 
L 684 794 
z
" id="DejaVuSans-2e" transform="scale(0.015625)"/>
       </defs>
       <use xlink:href="#DejaVuSans-30"/>
       <use x="63.623047" xlink:href="#DejaVuSans-2e"/>
       <use x="95.410156" xlink:href="#DejaVuSans-30"/>
      </g>
     </g>
    </g>
    <g id="ytick_2">
     <g id="line2d_11">
      <g>
       <use style="stroke:#000000;stroke-width:0.8;" x="57.6" xlink:href="#m5e0938f946" y="246.362274"/>
      </g>
     </g>
     <g id="text_12">
      <!-- 0.2 -->
      <g transform="translate(34.696875 250.161493)scale(0.1 -0.1)">
       <use xlink:href="#DejaVuSans-30"/>
       <use x="63.623047" xlink:href="#DejaVuSans-2e"/>
       <use x="95.410156" xlink:href="#DejaVuSans-32"/>
      </g>
     </g>
    </g>
    <g id="ytick_3">
     <g id="line2d_12">
      <g>
       <use style="stroke:#000000;stroke-width:0.8;" x="57.6" xlink:href="#m5e0938f946" y="196.952975"/>
      </g>
     </g>
     <g id="text_13">
      <!-- 0.4 -->
      <g transform="translate(34.696875 200.752194)scale(0.1 -0.1)">
       <use xlink:href="#DejaVuSans-30"/>
       <use x="63.623047" xlink:href="#DejaVuSans-2e"/>
       <use x="95.410156" xlink:href="#DejaVuSans-34"/>
      </g>
     </g>
    </g>
    <g id="ytick_4">
     <g id="line2d_13">
      <g>
       <use style="stroke:#000000;stroke-width:0.8;" x="57.6" xlink:href="#m5e0938f946" y="147.543677"/>
      </g>
     </g>
     <g id="text_14">
      <!-- 0.6 -->
      <g transform="translate(34.696875 151.342895)scale(0.1 -0.1)">
       <defs>
        <path d="M 2113 2584 
Q 1688 2584 1439 2293 
Q 1191 2003 1191 1497 
Q 1191 994 1439 701 
Q 1688 409 2113 409 
Q 2538 409 2786 701 
Q 3034 994 3034 1497 
Q 3034 2003 2786 2293 
Q 2538 2584 2113 2584 
z
M 3366 4563 
L 3366 3988 
Q 3128 4100 2886 4159 
Q 2644 4219 2406 4219 
Q 1781 4219 1451 3797 
Q 1122 3375 1075 2522 
Q 1259 2794 1537 2939 
Q 1816 3084 2150 3084 
Q 2853 3084 3261 2657 
Q 3669 2231 3669 1497 
Q 3669 778 3244 343 
Q 2819 -91 2113 -91 
Q 1303 -91 875 529 
Q 447 1150 447 2328 
Q 447 3434 972 4092 
Q 1497 4750 2381 4750 
Q 2619 4750 2861 4703 
Q 3103 4656 3366 4563 
z
" id="DejaVuSans-36" transform="scale(0.015625)"/>
       </defs>
       <use xlink:href="#DejaVuSans-30"/>
       <use x="63.623047" xlink:href="#DejaVuSans-2e"/>
       <use x="95.410156" xlink:href="#DejaVuSans-36"/>
      </g>
     </g>
    </g>
    <g id="ytick_5">
     <g id="line2d_14">
      <g>
       <use style="stroke:#000000;stroke-width:0.8;" x="57.6" xlink:href="#m5e0938f946" y="98.134378"/>
      </g>
     </g>
     <g id="text_15">
      <!-- 0.8 -->
      <g transform="translate(34.696875 101.933597)scale(0.1 -0.1)">
       <defs>
        <path d="M 2034 2216 
Q 1584 2216 1326 1975 
Q 1069 1734 1069 1313 
Q 1069 891 1326 650 
Q 1584 409 2034 409 
Q 2484 409 2743 651 
Q 3003 894 3003 1313 
Q 3003 1734 2745 1975 
Q 2488 2216 2034 2216 
z
M 1403 2484 
Q 997 2584 770 2862 
Q 544 3141 544 3541 
Q 544 4100 942 4425 
Q 1341 4750 2034 4750 
Q 2731 4750 3128 4425 
Q 3525 4100 3525 3541 
Q 3525 3141 3298 2862 
Q 3072 2584 2669 2484 
Q 3125 2378 3379 2068 
Q 3634 1759 3634 1313 
Q 3634 634 3220 271 
Q 2806 -91 2034 -91 
Q 1263 -91 848 271 
Q 434 634 434 1313 
Q 434 1759 690 2068 
Q 947 2378 1403 2484 
z
M 1172 3481 
Q 1172 3119 1398 2916 
Q 1625 2713 2034 2713 
Q 2441 2713 2670 2916 
Q 2900 3119 2900 3481 
Q 2900 3844 2670 4047 
Q 2441 4250 2034 4250 
Q 1625 4250 1398 4047 
Q 1172 3844 1172 3481 
z
" id="DejaVuSans-38" transform="scale(0.015625)"/>
       </defs>
       <use xlink:href="#DejaVuSans-30"/>
       <use x="63.623047" xlink:href="#DejaVuSans-2e"/>
       <use x="95.410156" xlink:href="#DejaVuSans-38"/>
      </g>
     </g>
    </g>
    <g id="ytick_6">
     <g id="line2d_15">
      <g>
       <use style="stroke:#000000;stroke-width:0.8;" x="57.6" xlink:href="#m5e0938f946" y="48.72508"/>
      </g>
     </g>
     <g id="text_16">
      <!-- 1.0 -->
      <g transform="translate(34.696875 52.524298)scale(0.1 -0.1)">
       <use xlink:href="#DejaVuSans-31"/>
       <use x="63.623047" xlink:href="#DejaVuSans-2e"/>
       <use x="95.410156" xlink:href="#DejaVuSans-30"/>
      </g>
     </g>
    </g>
    <g id="text_17">
     <!-- p(context) -->
     <g transform="translate(28.617187 200.449875)rotate(-90)scale(0.1 -0.1)">
      <defs>
       <path d="M 1159 525 
L 1159 -1331 
L 581 -1331 
L 581 3500 
L 1159 3500 
L 1159 2969 
Q 1341 3281 1617 3432 
Q 1894 3584 2278 3584 
Q 2916 3584 3314 3078 
Q 3713 2572 3713 1747 
Q 3713 922 3314 415 
Q 2916 -91 2278 -91 
Q 1894 -91 1617 61 
Q 1341 213 1159 525 
z
M 3116 1747 
Q 3116 2381 2855 2742 
Q 2594 3103 2138 3103 
Q 1681 3103 1420 2742 
Q 1159 2381 1159 1747 
Q 1159 1113 1420 752 
Q 1681 391 2138 391 
Q 2594 391 2855 752 
Q 3116 1113 3116 1747 
z
" id="DejaVuSans-70" transform="scale(0.015625)"/>
       <path d="M 1984 4856 
Q 1566 4138 1362 3434 
Q 1159 2731 1159 2009 
Q 1159 1288 1364 580 
Q 1569 -128 1984 -844 
L 1484 -844 
Q 1016 -109 783 600 
Q 550 1309 550 2009 
Q 550 2706 781 3412 
Q 1013 4119 1484 4856 
L 1984 4856 
z
" id="DejaVuSans-28" transform="scale(0.015625)"/>
       <path d="M 3122 3366 
L 3122 2828 
Q 2878 2963 2633 3030 
Q 2388 3097 2138 3097 
Q 1578 3097 1268 2742 
Q 959 2388 959 1747 
Q 959 1106 1268 751 
Q 1578 397 2138 397 
Q 2388 397 2633 464 
Q 2878 531 3122 666 
L 3122 134 
Q 2881 22 2623 -34 
Q 2366 -91 2075 -91 
Q 1284 -91 818 406 
Q 353 903 353 1747 
Q 353 2603 823 3093 
Q 1294 3584 2113 3584 
Q 2378 3584 2631 3529 
Q 2884 3475 3122 3366 
z
" id="DejaVuSans-63" transform="scale(0.015625)"/>
       <path d="M 1959 3097 
Q 1497 3097 1228 2736 
Q 959 2375 959 1747 
Q 959 1119 1226 758 
Q 1494 397 1959 397 
Q 2419 397 2687 759 
Q 2956 1122 2956 1747 
Q 2956 2369 2687 2733 
Q 2419 3097 1959 3097 
z
M 1959 3584 
Q 2709 3584 3137 3096 
Q 3566 2609 3566 1747 
Q 3566 888 3137 398 
Q 2709 -91 1959 -91 
Q 1206 -91 779 398 
Q 353 888 353 1747 
Q 353 2609 779 3096 
Q 1206 3584 1959 3584 
z
" id="DejaVuSans-6f" transform="scale(0.015625)"/>
       <path d="M 3513 2113 
L 3513 0 
L 2938 0 
L 2938 2094 
Q 2938 2591 2744 2837 
Q 2550 3084 2163 3084 
Q 1697 3084 1428 2787 
Q 1159 2491 1159 1978 
L 1159 0 
L 581 0 
L 581 3500 
L 1159 3500 
L 1159 2956 
Q 1366 3272 1645 3428 
Q 1925 3584 2291 3584 
Q 2894 3584 3203 3211 
Q 3513 2838 3513 2113 
z
" id="DejaVuSans-6e" transform="scale(0.015625)"/>
       <path d="M 3597 1894 
L 3597 1613 
L 953 1613 
Q 991 1019 1311 708 
Q 1631 397 2203 397 
Q 2534 397 2845 478 
Q 3156 559 3463 722 
L 3463 178 
Q 3153 47 2828 -22 
Q 2503 -91 2169 -91 
Q 1331 -91 842 396 
Q 353 884 353 1716 
Q 353 2575 817 3079 
Q 1281 3584 2069 3584 
Q 2775 3584 3186 3129 
Q 3597 2675 3597 1894 
z
M 3022 2063 
Q 3016 2534 2758 2815 
Q 2500 3097 2075 3097 
Q 1594 3097 1305 2825 
Q 1016 2553 972 2059 
L 3022 2063 
z
" id="DejaVuSans-65" transform="scale(0.015625)"/>
       <path d="M 3513 3500 
L 2247 1797 
L 3578 0 
L 2900 0 
L 1881 1375 
L 863 0 
L 184 0 
L 1544 1831 
L 300 3500 
L 978 3500 
L 1906 2253 
L 2834 3500 
L 3513 3500 
z
" id="DejaVuSans-78" transform="scale(0.015625)"/>
       <path d="M 513 4856 
L 1013 4856 
Q 1481 4119 1714 3412 
Q 1947 2706 1947 2009 
Q 1947 1309 1714 600 
Q 1481 -109 1013 -844 
L 513 -844 
Q 928 -128 1133 580 
Q 1338 1288 1338 2009 
Q 1338 2731 1133 3434 
Q 928 4138 513 4856 
z
" id="DejaVuSans-29" transform="scale(0.015625)"/>
      </defs>
      <use xlink:href="#DejaVuSans-70"/>
      <use x="63.476562" xlink:href="#DejaVuSans-28"/>
      <use x="102.490234" xlink:href="#DejaVuSans-63"/>
      <use x="157.470703" xlink:href="#DejaVuSans-6f"/>
      <use x="218.652344" xlink:href="#DejaVuSans-6e"/>
      <use x="282.03125" xlink:href="#DejaVuSans-74"/>
      <use x="321.240234" xlink:href="#DejaVuSans-65"/>
      <use x="381.013672" xlink:href="#DejaVuSans-78"/>
      <use x="440.193359" xlink:href="#DejaVuSans-74"/>
      <use x="479.402344" xlink:href="#DejaVuSans-29"/>
     </g>
    </g>
   </g>
   <g id="line2d_16">
    <path clip-path="url(#pa6d9b364a1)" d="M 73.832727 271.066923 
L 81.949091 127.483267 
L 90.065455 260.201118 
L 98.181818 133.002528 
L 106.298182 253.466411 
L 114.414545 139.707307 
L 122.530909 104.86103 
L 130.647273 93.488253 
L 138.763636 87.178848 
L 146.88 222.859003 
L 154.996364 121.012781 
L 163.112727 95.554298 
L 171.229091 88.76322 
L 179.345455 85.337514 
L 187.461818 82.746344 
L 195.578182 80.555313 
L 203.694545 78.652989 
L 211.810909 76.984401 
L 219.927273 214.083793 
L 228.043636 107.328269 
L 236.16 125.861028 
L 244.276364 220.879122 
L 252.392727 250.175557 
L 260.509091 260.196893 
L 268.625455 133.197321 
L 276.741818 219.96418 
L 284.858182 247.637571 
L 292.974545 134.450835 
L 301.090909 101.315431 
L 309.207273 202.139554 
L 317.323636 235.501488 
L 325.44 246.438885 
L 333.556364 139.287325 
L 341.672727 212.091161 
L 349.789091 235.239714 
L 357.905455 242.897864 
L 366.021818 246.26015 
L 374.138182 248.455072 
L 382.254545 250.285597 
L 390.370909 251.953415 
" style="fill:none;stroke:#add8e6;stroke-linecap:square;stroke-opacity:0.3;stroke-width:1.5;"/>
   </g>
   <g id="line2d_17">
    <path clip-path="url(#pa6d9b364a1)" d="M 73.832727 271.066923 
L 81.949091 127.483267 
L 90.065455 82.793571 
L 98.181818 70.541235 
L 106.298182 216.912776 
L 114.414545 99.696681 
L 122.530909 75.614519 
L 130.647273 70.180145 
L 138.763636 67.527592 
L 146.88 65.615216 
L 154.996364 64.098472 
L 163.112727 62.857261 
L 171.229091 61.821863 
L 179.345455 202.197973 
L 187.461818 86.650089 
L 195.578182 66.878262 
L 203.694545 194.656798 
L 211.810909 89.168095 
L 219.927273 69.762644 
L 228.043636 66.636668 
L 236.16 90.984483 
L 244.276364 216.717943 
L 252.392727 263.928697 
L 260.509091 277.250227 
L 268.625455 282.355672 
L 276.741818 285.248934 
L 284.858182 287.204609 
L 292.974545 288.617554 
L 301.090909 289.67613 
L 309.207273 290.491146 
L 317.323636 291.133131 
L 325.44 291.648832 
L 333.556364 292.070191 
L 341.672727 152.317029 
L 349.789091 261.465432 
L 357.905455 124.554052 
L 366.021818 246.19831 
L 374.138182 282.336554 
L 382.254545 248.172398 
L 390.370909 283.174084 
" style="fill:none;stroke:#add8e6;stroke-linecap:square;stroke-opacity:0.3;stroke-width:1.5;"/>
   </g>
   <g id="line2d_18">
    <path clip-path="url(#pa6d9b364a1)" d="M 73.832727 271.066923 
L 81.949091 127.483267 
L 90.065455 82.793571 
L 98.181818 70.541235 
L 106.298182 65.291047 
L 114.414545 62.273046 
L 122.530909 60.268917 
L 130.647273 202.372405 
L 138.763636 85.47274 
L 146.88 65.62871 
L 154.996364 62.405896 
L 163.112727 61.140948 
L 171.229091 60.221094 
L 179.345455 59.45393 
L 187.461818 195.998478 
L 195.578182 266.832289 
L 203.694545 113.960508 
L 211.810909 70.231185 
L 219.927273 63.617439 
L 228.043636 62.217575 
L 236.16 85.456379 
L 244.276364 224.790615 
L 252.392727 274.569026 
L 260.509091 123.893535 
L 268.625455 237.159829 
L 276.741818 273.678037 
L 284.858182 282.252184 
L 292.974545 285.216549 
L 301.090909 286.948745 
L 309.207273 288.212666 
L 317.323636 289.195241 
L 325.44 152.388712 
L 333.556364 255.941518 
L 341.672727 282.844741 
L 349.789091 152.006206 
L 357.905455 251.62211 
L 366.021818 279.735582 
L 374.138182 285.442832 
L 382.254545 286.95503 
L 390.370909 247.744917 
" style="fill:none;stroke:#add8e6;stroke-linecap:square;stroke-opacity:0.3;stroke-width:1.5;"/>
   </g>
   <g id="line2d_19">
    <path clip-path="url(#pa6d9b364a1)" d="M 73.832727 271.066923 
L 81.949091 127.483267 
L 90.065455 82.793571 
L 98.181818 70.541235 
L 106.298182 216.912776 
L 114.414545 99.696681 
L 122.530909 223.776377 
L 130.647273 109.842122 
L 138.763636 83.483282 
L 146.88 77.285707 
L 154.996364 201.851326 
L 163.112727 104.1884 
L 171.229091 205.778851 
L 179.345455 110.939823 
L 187.461818 201.023054 
L 195.578182 114.655008 
L 203.694545 94.77845 
L 211.810909 89.855622 
L 219.927273 87.482502 
L 228.043636 85.647034 
L 236.16 118.806933 
L 244.276364 89.085833 
L 252.392727 194.420285 
L 260.509091 229.333222 
L 268.625455 241.699783 
L 276.741818 247.853211 
L 284.858182 252.24142 
L 292.974545 255.926563 
L 301.090909 259.16849 
L 309.207273 262.049329 
L 317.323636 264.613115 
L 325.44 266.895212 
L 333.556364 268.927738 
L 341.672727 270.740159 
L 349.789091 272.359152 
L 357.905455 273.808528 
L 366.021818 275.109302 
L 374.138182 276.279874 
L 382.254545 228.645843 
L 390.370909 267.152234 
" style="fill:none;stroke:#add8e6;stroke-linecap:square;stroke-opacity:0.3;stroke-width:1.5;"/>
   </g>
   <g id="line2d_20">
    <path clip-path="url(#pa6d9b364a1)" d="M 73.832727 271.066923 
L 81.949091 127.483267 
L 90.065455 260.201118 
L 98.181818 133.002528 
L 106.298182 93.958859 
L 114.414545 81.967081 
L 122.530909 224.778224 
L 130.647273 115.267302 
L 138.763636 228.375755 
L 146.88 261.454678 
L 154.996364 142.4769 
L 163.112727 104.437972 
L 171.229091 216.873891 
L 179.345455 129.840245 
L 187.461818 106.353042 
L 195.578182 99.544128 
L 203.694545 208.431405 
L 211.810909 127.595642 
L 219.927273 211.295629 
L 228.043636 235.533915 
L 236.16 190.632833 
L 244.276364 231.156058 
L 252.392727 140.954307 
L 260.509091 212.469482 
L 268.625455 231.532116 
L 276.741818 237.328493 
L 284.858182 240.00391 
L 292.974545 149.150928 
L 301.090909 213.804871 
L 309.207273 230.322645 
L 317.323636 235.001911 
L 325.44 237.001936 
L 333.556364 238.382933 
L 341.672727 152.874352 
L 349.789091 214.982304 
L 357.905455 193.77567 
L 366.021818 225.639182 
L 374.138182 197.135601 
L 382.254545 227.145245 
L 390.370909 198.091645 
" style="fill:none;stroke:#add8e6;stroke-linecap:square;stroke-opacity:0.3;stroke-width:1.5;"/>
   </g>
   <g id="line2d_21">
    <path clip-path="url(#pa6d9b364a1)" d="M 73.832727 271.066923 
L 81.949091 127.483267 
L 90.065455 82.793571 
L 98.181818 70.541235 
L 106.298182 65.291047 
L 114.414545 62.273046 
L 122.530909 60.268917 
L 130.647273 58.828444 
L 138.763636 57.738695 
L 146.88 56.883444 
L 154.996364 200.754948 
L 163.112727 80.326979 
L 171.229091 61.492579 
L 179.345455 194.123449 
L 187.461818 83.3485 
L 195.578182 64.285383 
L 203.694545 61.492604 
L 211.810909 60.632045 
L 219.927273 186.587813 
L 228.043636 83.10074 
L 236.16 92.688056 
L 244.276364 216.16232 
L 252.392727 264.921201 
L 260.509091 115.512213 
L 268.625455 220.217475 
L 276.741818 103.149234 
L 284.858182 205.276163 
L 292.974545 249.952424 
L 301.090909 264.878843 
L 309.207273 271.04121 
L 317.323636 274.752002 
L 325.44 277.513247 
L 333.556364 279.720557 
L 341.672727 141.318004 
L 349.789091 233.629136 
L 357.905455 267.200524 
L 366.021818 138.85285 
L 374.138182 227.982381 
L 382.254545 261.821301 
L 390.370909 271.640177 
" style="fill:none;stroke:#add8e6;stroke-linecap:square;stroke-opacity:0.3;stroke-width:1.5;"/>
   </g>
   <g id="line2d_22">
    <path clip-path="url(#pa6d9b364a1)" d="M 73.832727 271.066923 
L 81.949091 127.483267 
L 90.065455 82.793571 
L 98.181818 70.541235 
L 106.298182 65.291047 
L 114.414545 62.273046 
L 122.530909 60.268917 
L 130.647273 58.828444 
L 138.763636 57.738695 
L 146.88 56.883444 
L 154.996364 56.193228 
L 163.112727 55.623783 
L 171.229091 55.14549 
L 179.345455 54.737746 
L 187.461818 54.385763 
L 195.578182 54.078639 
L 203.694545 53.808156 
L 211.810909 53.568 
L 219.927273 209.014524 
L 228.043636 76.619875 
L 236.16 78.790638 
L 244.276364 223.397002 
L 252.392727 280.389401 
L 260.509091 289.682966 
L 268.625455 291.895781 
L 276.741818 292.912544 
L 284.858182 148.255418 
L 292.974545 266.202221 
L 301.090909 289.757858 
L 309.207273 292.503079 
L 317.323636 293.127671 
L 325.44 293.48546 
L 333.556364 293.757638 
L 341.672727 267.095184 
L 349.789091 112.046638 
L 357.905455 62.335777 
L 366.021818 208.765769 
L 374.138182 281.726816 
L 382.254545 291.877842 
L 390.370909 263.67311 
" style="fill:none;stroke:#add8e6;stroke-linecap:square;stroke-opacity:0.3;stroke-width:1.5;"/>
   </g>
   <g id="line2d_23">
    <path clip-path="url(#pa6d9b364a1)" d="M 73.832727 271.066923 
L 81.949091 127.483267 
L 90.065455 82.793571 
L 98.181818 70.541235 
L 106.298182 65.291047 
L 114.414545 62.273046 
L 122.530909 60.268917 
L 130.647273 58.828444 
L 138.763636 57.738695 
L 146.88 56.883444 
L 154.996364 200.754948 
L 163.112727 80.326979 
L 171.229091 61.492579 
L 179.345455 58.972695 
L 187.461818 58.187026 
L 195.578182 57.635593 
L 203.694545 194.666323 
L 211.810909 80.509457 
L 219.927273 206.896527 
L 228.043636 88.522325 
L 236.16 94.801669 
L 244.276364 203.982335 
L 252.392727 254.355035 
L 260.509091 112.537254 
L 268.625455 73.675317 
L 276.741818 178.895438 
L 284.858182 236.400966 
L 292.974545 111.837872 
L 301.090909 196.362893 
L 309.207273 236.18845 
L 317.323636 251.499452 
L 325.44 258.493421 
L 333.556364 262.895751 
L 341.672727 130.025303 
L 349.789091 209.178908 
L 357.905455 243.757504 
L 366.021818 255.987288 
L 374.138182 131.721215 
L 382.254545 207.303106 
L 390.370909 239.766388 
" style="fill:none;stroke:#add8e6;stroke-linecap:square;stroke-opacity:0.3;stroke-width:1.5;"/>
   </g>
   <g id="line2d_24">
    <path clip-path="url(#pa6d9b364a1)" d="M 73.832727 271.066923 
L 81.949091 127.483267 
L 90.065455 82.793571 
L 98.181818 231.388397 
L 106.298182 111.105462 
L 114.414545 82.817226 
L 122.530909 217.383901 
L 130.647273 110.567493 
L 138.763636 86.316923 
L 146.88 207.615012 
L 154.996364 111.657453 
L 163.112727 209.619167 
L 171.229091 118.166161 
L 179.345455 96.774407 
L 187.461818 91.260645 
L 195.578182 88.444969 
L 203.694545 195.855444 
L 211.810909 112.347867 
L 219.927273 94.77175 
L 228.043636 191.529479 
L 236.16 157.657259 
L 244.276364 107.662729 
L 252.392727 191.010801 
L 260.509091 216.152859 
L 268.625455 125.995857 
L 276.741818 191.459888 
L 284.858182 210.502109 
L 292.974545 216.793108 
L 301.090909 219.818478 
L 309.207273 222.007477 
L 317.323636 133.213354 
L 325.44 193.913599 
L 333.556364 210.696498 
L 341.672727 134.496792 
L 349.789091 190.96099 
L 357.905455 132.793831 
L 366.021818 187.653593 
L 374.138182 201.55409 
L 382.254545 205.298317 
L 390.370909 206.702027 
" style="fill:none;stroke:#add8e6;stroke-linecap:square;stroke-opacity:0.3;stroke-width:1.5;"/>
   </g>
   <g id="line2d_25">
    <path clip-path="url(#pa6d9b364a1)" d="M 73.832727 271.066923 
L 81.949091 127.483267 
L 90.065455 260.201118 
L 98.181818 133.002528 
L 106.298182 93.958859 
L 114.414545 233.971426 
L 122.530909 124.851348 
L 130.647273 235.151762 
L 138.763636 263.873534 
L 146.88 149.951103 
L 154.996364 112.902265 
L 163.112727 102.240651 
L 171.229091 96.949166 
L 179.345455 93.043519 
L 187.461818 89.785673 
L 195.578182 86.984693 
L 203.694545 84.550178 
L 211.810909 82.419026 
L 219.927273 80.541744 
L 228.043636 78.878417 
L 236.16 117.720938 
L 244.276364 243.937987 
L 252.392727 272.153349 
L 260.509091 131.491144 
L 268.625455 240.991268 
L 276.741818 267.840769 
L 284.858182 138.047466 
L 292.974545 237.040205 
L 301.090909 129.627299 
L 309.207273 227.886023 
L 317.323636 255.494546 
L 325.44 263.629681 
L 333.556364 267.050839 
L 341.672727 148.893223 
L 349.789091 232.931746 
L 357.905455 256.416377 
L 366.021818 263.210276 
L 374.138182 265.96973 
L 382.254545 267.751217 
L 390.370909 153.064197 
" style="fill:none;stroke:#add8e6;stroke-linecap:square;stroke-opacity:0.3;stroke-width:1.5;"/>
   </g>
   <g id="line2d_26">
    <path clip-path="url(#pa6d9b364a1)" d="M 73.832727 122.839027 
L 81.949091 268.231469 
L 90.065455 138.136594 
L 98.181818 262.270544 
L 106.298182 143.46628 
L 114.414545 255.045086 
L 122.530909 276.786173 
L 130.647273 282.536225 
L 138.763636 285.223308 
L 146.88 178.775488 
L 154.996364 264.192245 
L 163.112727 279.90398 
L 171.229091 283.493309 
L 179.345455 285.020243 
L 187.461818 286.080186 
L 195.578182 286.940622 
L 203.694545 287.666507 
L 211.810909 288.287664 
L 219.927273 189.695607 
L 228.043636 270.257399 
L 236.16 255.642574 
L 244.276364 174.509283 
L 252.392727 138.665407 
L 260.509091 125.030602 
L 268.625455 251.998124 
L 276.741818 171.879928 
L 284.858182 138.960658 
L 292.974545 249.921049 
L 301.090909 272.771959 
L 309.207273 189.533036 
L 317.323636 151.801772 
L 325.44 138.670654 
L 333.556364 245.579323 
L 341.672727 176.516279 
L 349.789091 150.596821 
L 357.905455 141.492016 
L 366.021818 137.090406 
L 374.138182 133.98286 
L 382.254545 131.295102 
L 390.370909 128.807356 
" style="fill:none;stroke:#ff0000;stroke-linecap:square;stroke-opacity:0.1;stroke-width:1.5;"/>
   </g>
   <g id="line2d_27">
    <path clip-path="url(#pa6d9b364a1)" d="M 73.832727 122.839027 
L 81.949091 268.231469 
L 90.065455 289.55754 
L 98.181818 292.996802 
L 106.298182 190.764468 
L 114.414545 280.540675 
L 122.530909 290.894583 
L 130.647273 292.567376 
L 138.763636 293.187488 
L 146.88 293.581807 
L 154.996364 293.873718 
L 163.112727 294.100271 
L 171.229091 294.280873 
L 179.345455 205.401254 
L 187.461818 284.432821 
L 195.578182 292.580212 
L 203.694545 205.133184 
L 211.810909 282.791615 
L 219.927273 291.435816 
L 228.043636 292.613331 
L 236.16 278.81324 
L 244.276364 180.188441 
L 252.392727 121.406467 
L 260.509091 101.27518 
L 268.625455 91.432939 
L 276.741818 84.898777 
L 284.858182 80.047078 
L 292.974545 76.291135 
L 301.090909 73.311227 
L 309.207273 70.900596 
L 317.323636 68.917587 
L 325.44 67.262284 
L 333.556364 65.86262 
L 341.672727 243.395238 
L 349.789091 111.814025 
L 357.905455 256.697514 
L 366.021818 130.566486 
L 374.138182 80.884412 
L 382.254545 125.706184 
L 390.370909 79.326449 
" style="fill:none;stroke:#ff0000;stroke-linecap:square;stroke-opacity:0.1;stroke-width:1.5;"/>
   </g>
   <g id="line2d_28">
    <path clip-path="url(#pa6d9b364a1)" d="M 73.832727 122.839027 
L 81.949091 268.231469 
L 90.065455 289.55754 
L 98.181818 292.996802 
L 106.298182 294.013349 
L 114.414545 294.488001 
L 122.530909 294.765279 
L 130.647273 208.599776 
L 138.763636 285.899862 
L 146.88 293.267188 
L 154.996364 294.146817 
L 163.112727 294.391019 
L 171.229091 294.543775 
L 179.345455 294.664307 
L 187.461818 209.914724 
L 195.578182 119.782565 
L 203.694545 268.488167 
L 211.810909 290.148484 
L 219.927273 292.93507 
L 228.043636 293.413184 
L 236.16 280.786249 
L 244.276364 173.142125 
L 252.392727 108.150442 
L 260.509091 258.537598 
L 268.625455 153.529719 
L 276.741818 107.227821 
L 284.858182 93.990127 
L 292.974545 87.918191 
L 301.090909 83.688997 
L 309.207273 80.319134 
L 317.323636 77.535571 
L 325.44 237.505723 
L 333.556364 122.931347 
L 341.672727 86.644085 
L 349.789091 233.787561 
L 357.905455 127.234807 
L 366.021818 90.887714 
L 374.138182 82.673977 
L 382.254545 79.907428 
L 390.370909 130.654226 
" style="fill:none;stroke:#ff0000;stroke-linecap:square;stroke-opacity:0.1;stroke-width:1.5;"/>
   </g>
   <g id="line2d_29">
    <path clip-path="url(#pa6d9b364a1)" d="M 73.832727 122.839027 
L 81.949091 268.231469 
L 90.065455 289.55754 
L 98.181818 292.996802 
L 106.298182 190.764468 
L 114.414545 280.540675 
L 122.530909 174.105611 
L 130.647273 273.907922 
L 138.763636 287.308286 
L 146.88 289.788453 
L 154.996364 195.13861 
L 163.112727 275.618488 
L 171.229091 186.729246 
L 179.345455 270.82094 
L 187.461818 189.442165 
L 195.578182 267.739154 
L 203.694545 279.95789 
L 211.810909 282.609205 
L 219.927273 283.727725 
L 228.043636 284.5365 
L 236.16 261.271835 
L 244.276364 282.144277 
L 252.392727 198.911116 
L 260.509091 158.88829 
L 268.625455 143.544539 
L 276.741818 135.135742 
L 284.858182 128.7305 
L 292.974545 123.166427 
L 301.090909 118.165267 
L 309.207273 113.642443 
L 317.323636 109.552506 
L 325.44 105.856841 
L 333.556364 102.51825 
L 341.672727 99.50093 
L 349.789091 96.771183 
L 357.905455 94.297936 
L 366.021818 92.052989 
L 374.138182 90.01104 
L 382.254545 151.034517 
L 390.370909 101.335724 
" style="fill:none;stroke:#ff0000;stroke-linecap:square;stroke-opacity:0.1;stroke-width:1.5;"/>
   </g>
   <g id="line2d_30">
    <path clip-path="url(#pa6d9b364a1)" d="M 73.832727 122.839027 
L 81.949091 268.231469 
L 90.065455 138.136594 
L 98.181818 262.270544 
L 106.298182 283.798851 
L 114.414545 288.646359 
L 122.530909 178.576943 
L 130.647273 270.021327 
L 138.763636 168.328985 
L 146.88 124.18881 
L 154.996364 249.767883 
L 163.112727 274.700721 
L 171.229091 177.476875 
L 179.345455 257.007492 
L 187.461818 272.823119 
L 195.578182 276.887356 
L 203.694545 185.833594 
L 211.810909 257.246885 
L 219.927273 180.678667 
L 228.043636 152.133217 
L 236.16 199.448196 
L 244.276364 155.82156 
L 252.392727 247.497816 
L 260.509091 176.360741 
L 268.625455 154.401833 
L 276.741818 147.146989 
L 284.858182 143.392999 
L 292.974545 241.211211 
L 301.090909 172.652174 
L 309.207273 153.805284 
L 317.323636 148.035907 
L 325.44 145.244645 
L 333.556364 143.160241 
L 341.672727 238.606814 
L 349.789091 169.356892 
L 357.905455 193.972988 
L 366.021818 157.450012 
L 374.138182 190.546002 
L 382.254545 155.64024 
L 390.370909 189.45497 
" style="fill:none;stroke:#ff0000;stroke-linecap:square;stroke-opacity:0.1;stroke-width:1.5;"/>
   </g>
   <g id="line2d_31">
    <path clip-path="url(#pa6d9b364a1)" d="M 73.832727 122.839027 
L 81.949091 268.231469 
L 90.065455 289.55754 
L 98.181818 292.996802 
L 106.298182 294.013349 
L 114.414545 294.488001 
L 122.530909 294.765279 
L 130.647273 294.947084 
L 138.763636 295.075091 
L 146.88 295.169808 
L 154.996364 214.025871 
L 163.112727 287.571698 
L 171.229091 294.038972 
L 179.345455 208.892492 
L 187.461818 285.890692 
L 195.578182 293.167047 
L 203.694545 294.022106 
L 211.810909 294.221158 
L 219.927273 211.651404 
L 228.043636 285.368005 
L 236.16 275.86931 
L 244.276364 176.909756 
L 252.392727 118.526137 
L 260.509091 266.078507 
L 268.625455 168.486251 
L 276.741818 271.357704 
L 284.858182 182.340789 
L 292.974545 132.63758 
L 301.090909 114.153874 
L 309.207273 105.140799 
L 317.323636 98.965632 
L 325.44 94.033295 
L 333.556364 89.906558 
L 341.672727 245.428102 
L 349.789091 144.741527 
L 357.905455 104.834187 
L 366.021818 244.105948 
L 374.138182 150.136306 
L 382.254545 110.991287 
L 390.370909 98.963922 
" style="fill:none;stroke:#ff0000;stroke-linecap:square;stroke-opacity:0.1;stroke-width:1.5;"/>
   </g>
   <g id="line2d_32">
    <path clip-path="url(#pa6d9b364a1)" d="M 73.832727 122.839027 
L 81.949091 268.231469 
L 90.065455 289.55754 
L 98.181818 292.996802 
L 106.298182 294.013349 
L 114.414545 294.488001 
L 122.530909 294.765279 
L 130.647273 294.947084 
L 138.763636 295.075091 
L 146.88 295.169808 
L 154.996364 295.242538 
L 163.112727 295.300021 
L 171.229091 295.34652 
L 179.345455 295.384856 
L 187.461818 295.416971 
L 195.578182 295.444241 
L 203.694545 295.467668 
L 211.810909 295.488 
L 219.927273 216.294899 
L 228.043636 288.778837 
L 236.16 283.29999 
L 244.276364 175.234898 
L 252.392727 101.531685 
L 260.509091 82.945714 
L 268.625455 75.411282 
L 276.741818 70.837048 
L 284.858182 245.09165 
L 292.974545 111.788782 
L 301.090909 76.029108 
L 309.207273 70.166364 
L 317.323636 67.854345 
L 325.44 66.175248 
L 333.556364 64.795065 
L 341.672727 105.785046 
L 349.789091 267.368153 
L 357.905455 292.54179 
L 366.021818 177.464307 
L 374.138182 81.894614 
L 382.254545 66.639439 
L 390.370909 108.230625 
" style="fill:none;stroke:#ff0000;stroke-linecap:square;stroke-opacity:0.1;stroke-width:1.5;"/>
   </g>
   <g id="line2d_33">
    <path clip-path="url(#pa6d9b364a1)" d="M 73.832727 122.839027 
L 81.949091 268.231469 
L 90.065455 289.55754 
L 98.181818 292.996802 
L 106.298182 294.013349 
L 114.414545 294.488001 
L 122.530909 294.765279 
L 130.647273 294.947084 
L 138.763636 295.075091 
L 146.88 295.169808 
L 154.996364 214.025871 
L 163.112727 287.571698 
L 171.229091 294.038972 
L 179.345455 294.700322 
L 187.461818 294.841199 
L 195.578182 294.922368 
L 203.694545 212.191956 
L 211.810909 286.9299 
L 219.927273 189.861097 
L 228.043636 282.599753 
L 236.16 273.966742 
L 244.276364 185.432683 
L 252.392727 129.03196 
L 260.509091 267.635455 
L 268.625455 288.09759 
L 276.741818 207.479094 
L 284.858182 146.139867 
L 292.974545 265.670909 
L 301.090909 187.260053 
L 309.207273 144.923733 
L 317.323636 127.386451 
L 325.44 118.333087 
L 333.556364 112.021165 
L 341.672727 252.24755 
L 349.789091 169.936671 
L 357.905455 132.37826 
L 366.021818 118.390963 
L 374.138182 249.176204 
L 382.254545 170.422728 
L 390.370909 135.574367 
" style="fill:none;stroke:#ff0000;stroke-linecap:square;stroke-opacity:0.1;stroke-width:1.5;"/>
   </g>
   <g id="line2d_34">
    <path clip-path="url(#pa6d9b364a1)" d="M 73.832727 122.839027 
L 81.949091 268.231469 
L 90.065455 289.55754 
L 98.181818 174.384416 
L 106.298182 275.265122 
L 114.414545 288.650979 
L 122.530909 183.334027 
L 130.647273 273.932323 
L 138.763636 286.519067 
L 146.88 189.359259 
L 154.996364 272.116147 
L 163.112727 183.489482 
L 171.229091 267.19946 
L 179.345455 280.211454 
L 187.461818 283.086875 
L 195.578182 284.35602 
L 203.694545 198.388469 
L 211.810909 269.521432 
L 219.927273 280.44874 
L 228.043636 200.96539 
L 236.16 229.998838 
L 244.276364 271.885223 
L 252.392727 199.764127 
L 260.509091 171.645541 
L 268.625455 258.954627 
L 276.741818 197.292109 
L 284.858182 176.291928 
L 292.974545 168.73264 
L 301.090909 164.651697 
L 309.207273 161.485458 
L 317.323636 254.001464 
L 325.44 191.317429 
L 333.556364 172.92902 
L 341.672727 252.513701 
L 349.789091 193.639126 
L 357.905455 253.288317 
L 366.021818 196.918699 
L 374.138182 181.99587 
L 382.254545 177.608759 
L 390.370909 175.659375 
" style="fill:none;stroke:#ff0000;stroke-linecap:square;stroke-opacity:0.1;stroke-width:1.5;"/>
   </g>
   <g id="line2d_35">
    <path clip-path="url(#pa6d9b364a1)" d="M 73.832727 122.839027 
L 81.949091 268.231469 
L 90.065455 138.136594 
L 98.181818 262.270544 
L 106.298182 283.798851 
L 114.414545 167.577889 
L 122.530909 264.727949 
L 130.647273 161.24363 
L 138.763636 121.624669 
L 146.88 244.831964 
L 154.996364 270.147167 
L 163.112727 276.488552 
L 171.229091 279.215215 
L 179.345455 281.063155 
L 187.461818 282.535889 
L 195.578182 283.761136 
L 203.694545 284.796548 
L 211.810909 285.680313 
L 219.927273 286.441068 
L 228.043636 287.101029 
L 236.16 262.245822 
L 244.276364 156.422029 
L 252.392727 114.872353 
L 260.509091 251.652237 
L 268.625455 155.837065 
L 276.741818 119.170357 
L 284.858182 245.74101 
L 292.974545 157.802204 
L 301.090909 251.082851 
L 309.207273 166.828036 
L 317.323636 133.049141 
L 325.44 122.215648 
L 333.556364 117.069643 
L 341.672727 236.819341 
L 349.789091 157.907727 
L 357.905455 129.6204 
L 366.021818 120.807414 
L 374.138182 116.777914 
L 382.254545 113.928083 
L 390.370909 233.86171 
" style="fill:none;stroke:#ff0000;stroke-linecap:square;stroke-opacity:0.1;stroke-width:1.5;"/>
   </g>
   <g id="line2d_36">
    <path clip-path="url(#pa6d9b364a1)" d="M 73.832727 271.066923 
L 81.949091 127.483267 
L 90.065455 136.015835 
L 98.181818 105.36434 
L 106.298182 124.747933 
L 114.414545 98.694859 
L 122.530909 121.234107 
L 130.647273 111.335481 
L 138.763636 107.544476 
L 146.88 122.105976 
L 154.996364 127.410822 
L 163.112727 95.631644 
L 171.229091 102.670489 
L 179.345455 108.54213 
L 187.461818 104.973861 
L 195.578182 97.989428 
L 203.694545 128.085285 
L 211.810909 84.331134 
L 219.927273 142.405436 
L 228.043636 107.60143 
L 236.16 115.340021 
L 244.276364 197.777195 
L 252.392727 238.687766 
L 260.509091 196.851979 
L 268.625455 207.872042 
L 276.741818 229.833073 
L 284.858182 224.782182 
L 292.974545 219.518826 
L 301.090909 225.135904 
L 309.207273 252.284158 
L 317.323636 252.353191 
L 325.44 248.140899 
L 333.556364 250.873099 
L 341.672727 189.269595 
L 349.789091 211.480023 
L 357.905455 204.916224 
L 366.021818 232.74123 
L 374.138182 239.860416 
L 382.254545 247.52559 
L 390.370909 238.296219 
" style="fill:none;stroke:#1f77b4;stroke-linecap:square;stroke-width:1.5;"/>
   </g>
   <g id="line2d_37">
    <path clip-path="url(#pa6d9b364a1)" d="M 73.832727 122.839027 
L 81.949091 268.231469 
L 90.065455 244.131256 
L 98.181818 271.917686 
L 106.298182 254.391144 
L 114.414545 273.895367 
L 122.530909 254.74864 
L 130.647273 264.764983 
L 138.763636 261.331694 
L 146.88 249.930239 
L 154.996364 256.267687 
L 163.112727 274.913593 
L 171.229091 266.636322 
L 179.345455 267.316651 
L 187.461818 268.446464 
L 195.578182 269.558072 
L 203.694545 251.194609 
L 211.810909 283.292466 
L 219.927273 242.317009 
L 228.043636 263.776665 
L 236.16 260.13428 
L 244.276364 193.169027 
L 252.392727 147.835751 
L 260.509091 186.004986 
L 268.625455 174.169397 
L 276.741818 151.242557 
L 284.858182 158.072661 
L 292.974545 161.514013 
L 301.090909 151.376721 
L 309.207273 125.674488 
L 317.323636 123.710038 
L 325.44 128.661485 
L 333.556364 123.677323 
L 341.672727 193.745709 
L 349.789091 169.591968 
L 357.905455 172.635821 
L 366.021818 146.573494 
L 374.138182 135.80792 
L 382.254545 128.317377 
L 390.370909 138.186872 
" style="fill:none;stroke:#ff0000;stroke-linecap:square;stroke-width:1.5;"/>
   </g>
   <g id="patch_5">
    <path d="M 57.6 307.584 
L 57.6 41.472 
" style="fill:none;stroke:#000000;stroke-linecap:square;stroke-linejoin:miter;stroke-width:0.8;"/>
   </g>
   <g id="patch_6">
    <path d="M 414.72 307.584 
L 414.72 41.472 
" style="fill:none;stroke:#000000;stroke-linecap:square;stroke-linejoin:miter;stroke-width:0.8;"/>
   </g>
   <g id="patch_7">
    <path d="M 57.6 307.584 
L 414.72 307.584 
" style="fill:none;stroke:#000000;stroke-linecap:square;stroke-linejoin:miter;stroke-width:0.8;"/>
   </g>
   <g id="patch_8">
    <path d="M 57.6 41.472 
L 414.72 41.472 
" style="fill:none;stroke:#000000;stroke-linecap:square;stroke-linejoin:miter;stroke-width:0.8;"/>
   </g>
   <g id="text_18">
    <!-- biased_D -->
    <g transform="translate(208.760625 35.472)scale(0.12 -0.12)">
     <defs>
      <path d="M 3116 1747 
Q 3116 2381 2855 2742 
Q 2594 3103 2138 3103 
Q 1681 3103 1420 2742 
Q 1159 2381 1159 1747 
Q 1159 1113 1420 752 
Q 1681 391 2138 391 
Q 2594 391 2855 752 
Q 3116 1113 3116 1747 
z
M 1159 2969 
Q 1341 3281 1617 3432 
Q 1894 3584 2278 3584 
Q 2916 3584 3314 3078 
Q 3713 2572 3713 1747 
Q 3713 922 3314 415 
Q 2916 -91 2278 -91 
Q 1894 -91 1617 61 
Q 1341 213 1159 525 
L 1159 0 
L 581 0 
L 581 4863 
L 1159 4863 
L 1159 2969 
z
" id="DejaVuSans-62" transform="scale(0.015625)"/>
      <path d="M 603 3500 
L 1178 3500 
L 1178 0 
L 603 0 
L 603 3500 
z
M 603 4863 
L 1178 4863 
L 1178 4134 
L 603 4134 
L 603 4863 
z
" id="DejaVuSans-69" transform="scale(0.015625)"/>
      <path d="M 2194 1759 
Q 1497 1759 1228 1600 
Q 959 1441 959 1056 
Q 959 750 1161 570 
Q 1363 391 1709 391 
Q 2188 391 2477 730 
Q 2766 1069 2766 1631 
L 2766 1759 
L 2194 1759 
z
M 3341 1997 
L 3341 0 
L 2766 0 
L 2766 531 
Q 2569 213 2275 61 
Q 1981 -91 1556 -91 
Q 1019 -91 701 211 
Q 384 513 384 1019 
Q 384 1609 779 1909 
Q 1175 2209 1959 2209 
L 2766 2209 
L 2766 2266 
Q 2766 2663 2505 2880 
Q 2244 3097 1772 3097 
Q 1472 3097 1187 3025 
Q 903 2953 641 2809 
L 641 3341 
Q 956 3463 1253 3523 
Q 1550 3584 1831 3584 
Q 2591 3584 2966 3190 
Q 3341 2797 3341 1997 
z
" id="DejaVuSans-61" transform="scale(0.015625)"/>
      <path d="M 2834 3397 
L 2834 2853 
Q 2591 2978 2328 3040 
Q 2066 3103 1784 3103 
Q 1356 3103 1142 2972 
Q 928 2841 928 2578 
Q 928 2378 1081 2264 
Q 1234 2150 1697 2047 
L 1894 2003 
Q 2506 1872 2764 1633 
Q 3022 1394 3022 966 
Q 3022 478 2636 193 
Q 2250 -91 1575 -91 
Q 1294 -91 989 -36 
Q 684 19 347 128 
L 347 722 
Q 666 556 975 473 
Q 1284 391 1588 391 
Q 1994 391 2212 530 
Q 2431 669 2431 922 
Q 2431 1156 2273 1281 
Q 2116 1406 1581 1522 
L 1381 1569 
Q 847 1681 609 1914 
Q 372 2147 372 2553 
Q 372 3047 722 3315 
Q 1072 3584 1716 3584 
Q 2034 3584 2315 3537 
Q 2597 3491 2834 3397 
z
" id="DejaVuSans-73" transform="scale(0.015625)"/>
      <path d="M 2906 2969 
L 2906 4863 
L 3481 4863 
L 3481 0 
L 2906 0 
L 2906 525 
Q 2725 213 2448 61 
Q 2172 -91 1784 -91 
Q 1150 -91 751 415 
Q 353 922 353 1747 
Q 353 2572 751 3078 
Q 1150 3584 1784 3584 
Q 2172 3584 2448 3432 
Q 2725 3281 2906 2969 
z
M 947 1747 
Q 947 1113 1208 752 
Q 1469 391 1925 391 
Q 2381 391 2643 752 
Q 2906 1113 2906 1747 
Q 2906 2381 2643 2742 
Q 2381 3103 1925 3103 
Q 1469 3103 1208 2742 
Q 947 2381 947 1747 
z
" id="DejaVuSans-64" transform="scale(0.015625)"/>
      <path d="M 3263 -1063 
L 3263 -1509 
L -63 -1509 
L -63 -1063 
L 3263 -1063 
z
" id="DejaVuSans-5f" transform="scale(0.015625)"/>
      <path d="M 1259 4147 
L 1259 519 
L 2022 519 
Q 2988 519 3436 956 
Q 3884 1394 3884 2338 
Q 3884 3275 3436 3711 
Q 2988 4147 2022 4147 
L 1259 4147 
z
M 628 4666 
L 1925 4666 
Q 3281 4666 3915 4102 
Q 4550 3538 4550 2338 
Q 4550 1131 3912 565 
Q 3275 0 1925 0 
L 628 0 
L 628 4666 
z
" id="DejaVuSans-44" transform="scale(0.015625)"/>
     </defs>
     <use xlink:href="#DejaVuSans-62"/>
     <use x="63.476562" xlink:href="#DejaVuSans-69"/>
     <use x="91.259766" xlink:href="#DejaVuSans-61"/>
     <use x="152.539062" xlink:href="#DejaVuSans-73"/>
     <use x="204.638672" xlink:href="#DejaVuSans-65"/>
     <use x="266.162109" xlink:href="#DejaVuSans-64"/>
     <use x="329.638672" xlink:href="#DejaVuSans-5f"/>
     <use x="379.638672" xlink:href="#DejaVuSans-44"/>
    </g>
   </g>
   <g id="legend_1">
    <g id="patch_9">
     <path d="M 351.635625 78.82825 
L 407.72 78.82825 
Q 409.72 78.82825 409.72 76.82825 
L 409.72 48.472 
Q 409.72 46.472 407.72 46.472 
L 351.635625 46.472 
Q 349.635625 46.472 349.635625 48.472 
L 349.635625 76.82825 
Q 349.635625 78.82825 351.635625 78.82825 
z
" style="fill:#ffffff;opacity:0.8;stroke:#cccccc;stroke-linejoin:miter;"/>
    </g>
    <g id="line2d_38">
     <path d="M 353.635625 54.570437 
L 373.635625 54.570437 
" style="fill:none;stroke:#1f77b4;stroke-linecap:square;stroke-width:1.5;"/>
    </g>
    <g id="line2d_39"/>
    <g id="text_19">
     <!-- coop -->
     <g transform="translate(381.635625 58.070437)scale(0.1 -0.1)">
      <use xlink:href="#DejaVuSans-63"/>
      <use x="54.980469" xlink:href="#DejaVuSans-6f"/>
      <use x="116.162109" xlink:href="#DejaVuSans-6f"/>
      <use x="177.34375" xlink:href="#DejaVuSans-70"/>
     </g>
    </g>
    <g id="line2d_40">
     <path d="M 353.635625 69.248562 
L 373.635625 69.248562 
" style="fill:none;stroke:#ff0000;stroke-linecap:square;stroke-width:1.5;"/>
    </g>
    <g id="line2d_41"/>
    <g id="text_20">
     <!-- host -->
     <g transform="translate(381.635625 72.748562)scale(0.1 -0.1)">
      <defs>
       <path d="M 3513 2113 
L 3513 0 
L 2938 0 
L 2938 2094 
Q 2938 2591 2744 2837 
Q 2550 3084 2163 3084 
Q 1697 3084 1428 2787 
Q 1159 2491 1159 1978 
L 1159 0 
L 581 0 
L 581 4863 
L 1159 4863 
L 1159 2956 
Q 1366 3272 1645 3428 
Q 1925 3584 2291 3584 
Q 2894 3584 3203 3211 
Q 3513 2838 3513 2113 
z
" id="DejaVuSans-68" transform="scale(0.015625)"/>
      </defs>
      <use xlink:href="#DejaVuSans-68"/>
      <use x="63.378906" xlink:href="#DejaVuSans-6f"/>
      <use x="124.560547" xlink:href="#DejaVuSans-73"/>
      <use x="176.660156" xlink:href="#DejaVuSans-74"/>
     </g>
    </g>
   </g>
  </g>
 </g>
 <defs>
  <clipPath id="pa6d9b364a1">
   <rect height="266.112" width="357.12" x="57.6" y="41.472"/>
  </clipPath>
 </defs>
</svg>
