<?xml version="1.0" encoding="utf-8" standalone="no"?>
<!DOCTYPE svg PUBLIC "-//W3C//DTD SVG 1.1//EN"
  "http://www.w3.org/Graphics/SVG/1.1/DTD/svg11.dtd">
<svg height="345.6pt" version="1.1" viewBox="0 0 460.8 345.6" width="460.8pt" xmlns="http://www.w3.org/2000/svg" xmlns:xlink="http://www.w3.org/1999/xlink">
 <metadata>
  <rdf:RDF xmlns:cc="http://creativecommons.org/ns#" xmlns:dc="http://purl.org/dc/elements/1.1/" xmlns:rdf="http://www.w3.org/1999/02/22-rdf-syntax-ns#">
   <cc:Work>
    <dc:type rdf:resource="http://purl.org/dc/dcmitype/StillImage"/>
    <dc:date>2023-09-19T10:21:04.354136</dc:date>
    <dc:format>image/svg+xml</dc:format>
    <dc:creator>
     <cc:Agent>
      <dc:title>Matplotlib v3.4.1, https://matplotlib.org/</dc:title>
     </cc:Agent>
    </dc:creator>
   </cc:Work>
  </rdf:RDF>
 </metadata>
 <defs>
  <style type="text/css">*{stroke-linecap:butt;stroke-linejoin:round;}</style>
 </defs>
 <g id="figure_1">
  <g id="patch_1">
   <path d="M 0 345.6 
L 460.8 345.6 
L 460.8 0 
L 0 0 
z
" style="fill:#ffffff;"/>
  </g>
  <g id="axes_1">
   <g id="patch_2">
    <path d="M 57.6 307.584 
L 414.72 307.584 
L 414.72 41.472 
L 57.6 41.472 
z
" style="fill:#ffffff;"/>
   </g>
   <g id="patch_3">
    <path clip-path="url(#p79b28ea361)" d="M 73.832727 307.584 
L 73.832727 41.472 
L 236.16 41.472 
L 236.16 307.584 
z
" style="fill:#ff7f50;opacity:0.2;"/>
   </g>
   <g id="patch_4">
    <path clip-path="url(#p79b28ea361)" d="M 236.16 307.584 
L 236.16 41.472 
L 398.487273 41.472 
L 398.487273 307.584 
z
" style="fill:#add8e6;opacity:0.2;"/>
   </g>
   <g id="matplotlib.axis_1">
    <g id="xtick_1">
     <g id="line2d_1">
      <defs>
       <path d="M 0 0 
L 0 3.5 
" id="mce3bf2ffc1" style="stroke:#000000;stroke-width:0.8;"/>
      </defs>
      <g>
       <use style="stroke:#000000;stroke-width:0.8;" x="73.832727" xlink:href="#mce3bf2ffc1" y="307.584"/>
      </g>
     </g>
     <g id="text_1">
      <!-- 0 -->
      <g transform="translate(70.651477 322.182437)scale(0.1 -0.1)">
       <defs>
        <path d="M 2034 4250 
Q 1547 4250 1301 3770 
Q 1056 3291 1056 2328 
Q 1056 1369 1301 889 
Q 1547 409 2034 409 
Q 2525 409 2770 889 
Q 3016 1369 3016 2328 
Q 3016 3291 2770 3770 
Q 2525 4250 2034 4250 
z
M 2034 4750 
Q 2819 4750 3233 4129 
Q 3647 3509 3647 2328 
Q 3647 1150 3233 529 
Q 2819 -91 2034 -91 
Q 1250 -91 836 529 
Q 422 1150 422 2328 
Q 422 3509 836 4129 
Q 1250 4750 2034 4750 
z
" id="DejaVuSans-30" transform="scale(0.015625)"/>
       </defs>
       <use xlink:href="#DejaVuSans-30"/>
      </g>
     </g>
    </g>
    <g id="xtick_2">
     <g id="line2d_2">
      <g>
       <use style="stroke:#000000;stroke-width:0.8;" x="114.414545" xlink:href="#mce3bf2ffc1" y="307.584"/>
      </g>
     </g>
     <g id="text_2">
      <!-- 5 -->
      <g transform="translate(111.233295 322.182437)scale(0.1 -0.1)">
       <defs>
        <path d="M 691 4666 
L 3169 4666 
L 3169 4134 
L 1269 4134 
L 1269 2991 
Q 1406 3038 1543 3061 
Q 1681 3084 1819 3084 
Q 2600 3084 3056 2656 
Q 3513 2228 3513 1497 
Q 3513 744 3044 326 
Q 2575 -91 1722 -91 
Q 1428 -91 1123 -41 
Q 819 9 494 109 
L 494 744 
Q 775 591 1075 516 
Q 1375 441 1709 441 
Q 2250 441 2565 725 
Q 2881 1009 2881 1497 
Q 2881 1984 2565 2268 
Q 2250 2553 1709 2553 
Q 1456 2553 1204 2497 
Q 953 2441 691 2322 
L 691 4666 
z
" id="DejaVuSans-35" transform="scale(0.015625)"/>
       </defs>
       <use xlink:href="#DejaVuSans-35"/>
      </g>
     </g>
    </g>
    <g id="xtick_3">
     <g id="line2d_3">
      <g>
       <use style="stroke:#000000;stroke-width:0.8;" x="154.996364" xlink:href="#mce3bf2ffc1" y="307.584"/>
      </g>
     </g>
     <g id="text_3">
      <!-- 10 -->
      <g transform="translate(148.633864 322.182437)scale(0.1 -0.1)">
       <defs>
        <path d="M 794 531 
L 1825 531 
L 1825 4091 
L 703 3866 
L 703 4441 
L 1819 4666 
L 2450 4666 
L 2450 531 
L 3481 531 
L 3481 0 
L 794 0 
L 794 531 
z
" id="DejaVuSans-31" transform="scale(0.015625)"/>
       </defs>
       <use xlink:href="#DejaVuSans-31"/>
       <use x="63.623047" xlink:href="#DejaVuSans-30"/>
      </g>
     </g>
    </g>
    <g id="xtick_4">
     <g id="line2d_4">
      <g>
       <use style="stroke:#000000;stroke-width:0.8;" x="195.578182" xlink:href="#mce3bf2ffc1" y="307.584"/>
      </g>
     </g>
     <g id="text_4">
      <!-- 15 -->
      <g transform="translate(189.215682 322.182437)scale(0.1 -0.1)">
       <use xlink:href="#DejaVuSans-31"/>
       <use x="63.623047" xlink:href="#DejaVuSans-35"/>
      </g>
     </g>
    </g>
    <g id="xtick_5">
     <g id="line2d_5">
      <g>
       <use style="stroke:#000000;stroke-width:0.8;" x="236.16" xlink:href="#mce3bf2ffc1" y="307.584"/>
      </g>
     </g>
     <g id="text_5">
      <!-- 20 -->
      <g transform="translate(229.7975 322.182437)scale(0.1 -0.1)">
       <defs>
        <path d="M 1228 531 
L 3431 531 
L 3431 0 
L 469 0 
L 469 531 
Q 828 903 1448 1529 
Q 2069 2156 2228 2338 
Q 2531 2678 2651 2914 
Q 2772 3150 2772 3378 
Q 2772 3750 2511 3984 
Q 2250 4219 1831 4219 
Q 1534 4219 1204 4116 
Q 875 4013 500 3803 
L 500 4441 
Q 881 4594 1212 4672 
Q 1544 4750 1819 4750 
Q 2544 4750 2975 4387 
Q 3406 4025 3406 3419 
Q 3406 3131 3298 2873 
Q 3191 2616 2906 2266 
Q 2828 2175 2409 1742 
Q 1991 1309 1228 531 
z
" id="DejaVuSans-32" transform="scale(0.015625)"/>
       </defs>
       <use xlink:href="#DejaVuSans-32"/>
       <use x="63.623047" xlink:href="#DejaVuSans-30"/>
      </g>
     </g>
    </g>
    <g id="xtick_6">
     <g id="line2d_6">
      <g>
       <use style="stroke:#000000;stroke-width:0.8;" x="276.741818" xlink:href="#mce3bf2ffc1" y="307.584"/>
      </g>
     </g>
     <g id="text_6">
      <!-- 25 -->
      <g transform="translate(270.379318 322.182437)scale(0.1 -0.1)">
       <use xlink:href="#DejaVuSans-32"/>
       <use x="63.623047" xlink:href="#DejaVuSans-35"/>
      </g>
     </g>
    </g>
    <g id="xtick_7">
     <g id="line2d_7">
      <g>
       <use style="stroke:#000000;stroke-width:0.8;" x="317.323636" xlink:href="#mce3bf2ffc1" y="307.584"/>
      </g>
     </g>
     <g id="text_7">
      <!-- 30 -->
      <g transform="translate(310.961136 322.182437)scale(0.1 -0.1)">
       <defs>
        <path d="M 2597 2516 
Q 3050 2419 3304 2112 
Q 3559 1806 3559 1356 
Q 3559 666 3084 287 
Q 2609 -91 1734 -91 
Q 1441 -91 1130 -33 
Q 819 25 488 141 
L 488 750 
Q 750 597 1062 519 
Q 1375 441 1716 441 
Q 2309 441 2620 675 
Q 2931 909 2931 1356 
Q 2931 1769 2642 2001 
Q 2353 2234 1838 2234 
L 1294 2234 
L 1294 2753 
L 1863 2753 
Q 2328 2753 2575 2939 
Q 2822 3125 2822 3475 
Q 2822 3834 2567 4026 
Q 2313 4219 1838 4219 
Q 1578 4219 1281 4162 
Q 984 4106 628 3988 
L 628 4550 
Q 988 4650 1302 4700 
Q 1616 4750 1894 4750 
Q 2613 4750 3031 4423 
Q 3450 4097 3450 3541 
Q 3450 3153 3228 2886 
Q 3006 2619 2597 2516 
z
" id="DejaVuSans-33" transform="scale(0.015625)"/>
       </defs>
       <use xlink:href="#DejaVuSans-33"/>
       <use x="63.623047" xlink:href="#DejaVuSans-30"/>
      </g>
     </g>
    </g>
    <g id="xtick_8">
     <g id="line2d_8">
      <g>
       <use style="stroke:#000000;stroke-width:0.8;" x="357.905455" xlink:href="#mce3bf2ffc1" y="307.584"/>
      </g>
     </g>
     <g id="text_8">
      <!-- 35 -->
      <g transform="translate(351.542955 322.182437)scale(0.1 -0.1)">
       <use xlink:href="#DejaVuSans-33"/>
       <use x="63.623047" xlink:href="#DejaVuSans-35"/>
      </g>
     </g>
    </g>
    <g id="xtick_9">
     <g id="line2d_9">
      <g>
       <use style="stroke:#000000;stroke-width:0.8;" x="398.487273" xlink:href="#mce3bf2ffc1" y="307.584"/>
      </g>
     </g>
     <g id="text_9">
      <!-- 40 -->
      <g transform="translate(392.124773 322.182437)scale(0.1 -0.1)">
       <defs>
        <path d="M 2419 4116 
L 825 1625 
L 2419 1625 
L 2419 4116 
z
M 2253 4666 
L 3047 4666 
L 3047 1625 
L 3713 1625 
L 3713 1100 
L 3047 1100 
L 3047 0 
L 2419 0 
L 2419 1100 
L 313 1100 
L 313 1709 
L 2253 4666 
z
" id="DejaVuSans-34" transform="scale(0.015625)"/>
       </defs>
       <use xlink:href="#DejaVuSans-34"/>
       <use x="63.623047" xlink:href="#DejaVuSans-30"/>
      </g>
     </g>
    </g>
    <g id="text_10">
     <!-- t -->
     <g transform="translate(234.199844 335.860562)scale(0.1 -0.1)">
      <defs>
       <path d="M 1172 4494 
L 1172 3500 
L 2356 3500 
L 2356 3053 
L 1172 3053 
L 1172 1153 
Q 1172 725 1289 603 
Q 1406 481 1766 481 
L 2356 481 
L 2356 0 
L 1766 0 
Q 1100 0 847 248 
Q 594 497 594 1153 
L 594 3053 
L 172 3053 
L 172 3500 
L 594 3500 
L 594 4494 
L 1172 4494 
z
" id="DejaVuSans-74" transform="scale(0.015625)"/>
      </defs>
      <use xlink:href="#DejaVuSans-74"/>
     </g>
    </g>
   </g>
   <g id="matplotlib.axis_2">
    <g id="ytick_1">
     <g id="line2d_10">
      <defs>
       <path d="M 0 0 
L -3.5 0 
" id="m1ed8795528" style="stroke:#000000;stroke-width:0.8;"/>
      </defs>
      <g>
       <use style="stroke:#000000;stroke-width:0.8;" x="57.6" xlink:href="#m1ed8795528" y="285.772302"/>
      </g>
     </g>
     <g id="text_11">
      <!-- 0.30 -->
      <g transform="translate(28.334375 289.571521)scale(0.1 -0.1)">
       <defs>
        <path d="M 684 794 
L 1344 794 
L 1344 0 
L 684 0 
L 684 794 
z
" id="DejaVuSans-2e" transform="scale(0.015625)"/>
       </defs>
       <use xlink:href="#DejaVuSans-30"/>
       <use x="63.623047" xlink:href="#DejaVuSans-2e"/>
       <use x="95.410156" xlink:href="#DejaVuSans-33"/>
       <use x="159.033203" xlink:href="#DejaVuSans-30"/>
      </g>
     </g>
    </g>
    <g id="ytick_2">
     <g id="line2d_11">
      <g>
       <use style="stroke:#000000;stroke-width:0.8;" x="57.6" xlink:href="#m1ed8795528" y="228.115559"/>
      </g>
     </g>
     <g id="text_12">
      <!-- 0.35 -->
      <g transform="translate(28.334375 231.914778)scale(0.1 -0.1)">
       <use xlink:href="#DejaVuSans-30"/>
       <use x="63.623047" xlink:href="#DejaVuSans-2e"/>
       <use x="95.410156" xlink:href="#DejaVuSans-33"/>
       <use x="159.033203" xlink:href="#DejaVuSans-35"/>
      </g>
     </g>
    </g>
    <g id="ytick_3">
     <g id="line2d_12">
      <g>
       <use style="stroke:#000000;stroke-width:0.8;" x="57.6" xlink:href="#m1ed8795528" y="170.458816"/>
      </g>
     </g>
     <g id="text_13">
      <!-- 0.40 -->
      <g transform="translate(28.334375 174.258035)scale(0.1 -0.1)">
       <use xlink:href="#DejaVuSans-30"/>
       <use x="63.623047" xlink:href="#DejaVuSans-2e"/>
       <use x="95.410156" xlink:href="#DejaVuSans-34"/>
       <use x="159.033203" xlink:href="#DejaVuSans-30"/>
      </g>
     </g>
    </g>
    <g id="ytick_4">
     <g id="line2d_13">
      <g>
       <use style="stroke:#000000;stroke-width:0.8;" x="57.6" xlink:href="#m1ed8795528" y="112.802073"/>
      </g>
     </g>
     <g id="text_14">
      <!-- 0.45 -->
      <g transform="translate(28.334375 116.601292)scale(0.1 -0.1)">
       <use xlink:href="#DejaVuSans-30"/>
       <use x="63.623047" xlink:href="#DejaVuSans-2e"/>
       <use x="95.410156" xlink:href="#DejaVuSans-34"/>
       <use x="159.033203" xlink:href="#DejaVuSans-35"/>
      </g>
     </g>
    </g>
    <g id="ytick_5">
     <g id="line2d_14">
      <g>
       <use style="stroke:#000000;stroke-width:0.8;" x="57.6" xlink:href="#m1ed8795528" y="55.14533"/>
      </g>
     </g>
     <g id="text_15">
      <!-- 0.50 -->
      <g transform="translate(28.334375 58.944549)scale(0.1 -0.1)">
       <use xlink:href="#DejaVuSans-30"/>
       <use x="63.623047" xlink:href="#DejaVuSans-2e"/>
       <use x="95.410156" xlink:href="#DejaVuSans-35"/>
       <use x="159.033203" xlink:href="#DejaVuSans-30"/>
      </g>
     </g>
    </g>
    <g id="text_16">
     <!-- p(context) -->
     <g transform="translate(22.254687 200.449875)rotate(-90)scale(0.1 -0.1)">
      <defs>
       <path d="M 1159 525 
L 1159 -1331 
L 581 -1331 
L 581 3500 
L 1159 3500 
L 1159 2969 
Q 1341 3281 1617 3432 
Q 1894 3584 2278 3584 
Q 2916 3584 3314 3078 
Q 3713 2572 3713 1747 
Q 3713 922 3314 415 
Q 2916 -91 2278 -91 
Q 1894 -91 1617 61 
Q 1341 213 1159 525 
z
M 3116 1747 
Q 3116 2381 2855 2742 
Q 2594 3103 2138 3103 
Q 1681 3103 1420 2742 
Q 1159 2381 1159 1747 
Q 1159 1113 1420 752 
Q 1681 391 2138 391 
Q 2594 391 2855 752 
Q 3116 1113 3116 1747 
z
" id="DejaVuSans-70" transform="scale(0.015625)"/>
       <path d="M 1984 4856 
Q 1566 4138 1362 3434 
Q 1159 2731 1159 2009 
Q 1159 1288 1364 580 
Q 1569 -128 1984 -844 
L 1484 -844 
Q 1016 -109 783 600 
Q 550 1309 550 2009 
Q 550 2706 781 3412 
Q 1013 4119 1484 4856 
L 1984 4856 
z
" id="DejaVuSans-28" transform="scale(0.015625)"/>
       <path d="M 3122 3366 
L 3122 2828 
Q 2878 2963 2633 3030 
Q 2388 3097 2138 3097 
Q 1578 3097 1268 2742 
Q 959 2388 959 1747 
Q 959 1106 1268 751 
Q 1578 397 2138 397 
Q 2388 397 2633 464 
Q 2878 531 3122 666 
L 3122 134 
Q 2881 22 2623 -34 
Q 2366 -91 2075 -91 
Q 1284 -91 818 406 
Q 353 903 353 1747 
Q 353 2603 823 3093 
Q 1294 3584 2113 3584 
Q 2378 3584 2631 3529 
Q 2884 3475 3122 3366 
z
" id="DejaVuSans-63" transform="scale(0.015625)"/>
       <path d="M 1959 3097 
Q 1497 3097 1228 2736 
Q 959 2375 959 1747 
Q 959 1119 1226 758 
Q 1494 397 1959 397 
Q 2419 397 2687 759 
Q 2956 1122 2956 1747 
Q 2956 2369 2687 2733 
Q 2419 3097 1959 3097 
z
M 1959 3584 
Q 2709 3584 3137 3096 
Q 3566 2609 3566 1747 
Q 3566 888 3137 398 
Q 2709 -91 1959 -91 
Q 1206 -91 779 398 
Q 353 888 353 1747 
Q 353 2609 779 3096 
Q 1206 3584 1959 3584 
z
" id="DejaVuSans-6f" transform="scale(0.015625)"/>
       <path d="M 3513 2113 
L 3513 0 
L 2938 0 
L 2938 2094 
Q 2938 2591 2744 2837 
Q 2550 3084 2163 3084 
Q 1697 3084 1428 2787 
Q 1159 2491 1159 1978 
L 1159 0 
L 581 0 
L 581 3500 
L 1159 3500 
L 1159 2956 
Q 1366 3272 1645 3428 
Q 1925 3584 2291 3584 
Q 2894 3584 3203 3211 
Q 3513 2838 3513 2113 
z
" id="DejaVuSans-6e" transform="scale(0.015625)"/>
       <path d="M 3597 1894 
L 3597 1613 
L 953 1613 
Q 991 1019 1311 708 
Q 1631 397 2203 397 
Q 2534 397 2845 478 
Q 3156 559 3463 722 
L 3463 178 
Q 3153 47 2828 -22 
Q 2503 -91 2169 -91 
Q 1331 -91 842 396 
Q 353 884 353 1716 
Q 353 2575 817 3079 
Q 1281 3584 2069 3584 
Q 2775 3584 3186 3129 
Q 3597 2675 3597 1894 
z
M 3022 2063 
Q 3016 2534 2758 2815 
Q 2500 3097 2075 3097 
Q 1594 3097 1305 2825 
Q 1016 2553 972 2059 
L 3022 2063 
z
" id="DejaVuSans-65" transform="scale(0.015625)"/>
       <path d="M 3513 3500 
L 2247 1797 
L 3578 0 
L 2900 0 
L 1881 1375 
L 863 0 
L 184 0 
L 1544 1831 
L 300 3500 
L 978 3500 
L 1906 2253 
L 2834 3500 
L 3513 3500 
z
" id="DejaVuSans-78" transform="scale(0.015625)"/>
       <path d="M 513 4856 
L 1013 4856 
Q 1481 4119 1714 3412 
Q 1947 2706 1947 2009 
Q 1947 1309 1714 600 
Q 1481 -109 1013 -844 
L 513 -844 
Q 928 -128 1133 580 
Q 1338 1288 1338 2009 
Q 1338 2731 1133 3434 
Q 928 4138 513 4856 
z
" id="DejaVuSans-29" transform="scale(0.015625)"/>
      </defs>
      <use xlink:href="#DejaVuSans-70"/>
      <use x="63.476562" xlink:href="#DejaVuSans-28"/>
      <use x="102.490234" xlink:href="#DejaVuSans-63"/>
      <use x="157.470703" xlink:href="#DejaVuSans-6f"/>
      <use x="218.652344" xlink:href="#DejaVuSans-6e"/>
      <use x="282.03125" xlink:href="#DejaVuSans-74"/>
      <use x="321.240234" xlink:href="#DejaVuSans-65"/>
      <use x="381.013672" xlink:href="#DejaVuSans-78"/>
      <use x="440.193359" xlink:href="#DejaVuSans-74"/>
      <use x="479.402344" xlink:href="#DejaVuSans-29"/>
     </g>
    </g>
   </g>
   <g id="line2d_15">
    <path clip-path="url(#p79b28ea361)" d="M 73.832727 247.334473 
L 81.949091 147.396119 
L 90.065455 128.039633 
L 98.181818 120.384893 
L 106.298182 112.884982 
L 114.414545 105.022173 
L 122.530909 97.154458 
L 130.647273 147.457939 
L 138.763636 105.184895 
L 146.88 97.032297 
L 154.996364 146.5046 
L 163.112727 144.981855 
L 171.229091 108.732511 
L 179.345455 102.890679 
L 187.461818 142.714944 
L 195.578182 107.643638 
L 203.694545 102.78902 
L 211.810909 142.229806 
L 219.927273 107.121894 
L 228.043636 102.985308 
L 236.16 121.269281 
L 244.276364 149.893514 
L 252.392727 147.907692 
L 260.509091 106.047641 
L 268.625455 143.177172 
L 276.741818 141.463228 
L 284.858182 138.986169 
L 292.974545 136.583432 
L 301.090909 134.268484 
L 309.207273 132.038015 
L 317.323636 129.888531 
L 325.44 127.816665 
L 333.556364 125.819185 
L 341.672727 123.892984 
L 349.789091 122.035086 
L 357.905455 120.242634 
L 366.021818 118.512894 
L 374.138182 116.843248 
L 382.254545 133.317967 
L 390.370909 118.008105 
" style="fill:none;stroke:#add8e6;stroke-linecap:square;stroke-opacity:0.3;stroke-width:1.5;"/>
   </g>
   <g id="line2d_16">
    <path clip-path="url(#p79b28ea361)" d="M 73.832727 247.334473 
L 81.949091 147.396119 
L 90.065455 128.039633 
L 98.181818 120.384893 
L 106.298182 112.884982 
L 114.414545 105.022173 
L 122.530909 97.154458 
L 130.647273 147.457939 
L 138.763636 105.184895 
L 146.88 143.492099 
L 154.996364 141.33099 
L 163.112727 137.169053 
L 171.229091 117.863194 
L 179.345455 112.879813 
L 187.461818 137.461111 
L 195.578182 115.80478 
L 203.694545 135.46191 
L 211.810909 117.46964 
L 219.927273 113.711042 
L 228.043636 110.499603 
L 236.16 125.084229 
L 244.276364 146.527461 
L 252.392727 144.373973 
L 260.509091 112.474788 
L 268.625455 109.188546 
L 276.741818 143.178218 
L 284.858182 141.518769 
L 292.974545 139.203658 
L 301.090909 116.559238 
L 309.207273 114.007662 
L 317.323636 138.999853 
L 325.44 137.429461 
L 333.556364 135.458454 
L 341.672727 133.550604 
L 349.789091 131.71057 
L 357.905455 129.935512 
L 366.021818 128.222619 
L 374.138182 126.569219 
L 382.254545 124.972774 
L 390.370909 123.430868 
" style="fill:none;stroke:#add8e6;stroke-linecap:square;stroke-opacity:0.3;stroke-width:1.5;"/>
   </g>
   <g id="line2d_17">
    <path clip-path="url(#p79b28ea361)" d="M 73.832727 247.334473 
L 81.949091 147.396119 
L 90.065455 128.039633 
L 98.181818 120.384893 
L 106.298182 112.884982 
L 114.414545 140.910601 
L 122.530909 118.159244 
L 130.647273 110.581403 
L 138.763636 104.188931 
L 146.88 98.052236 
L 154.996364 92.147159 
L 163.112727 86.487696 
L 171.229091 155.635047 
L 179.345455 95.252347 
L 187.461818 88.590471 
L 195.578182 84.208435 
L 203.694545 80.090903 
L 211.810909 158.478315 
L 219.927273 88.442747 
L 228.043636 83.042359 
L 236.16 112.501513 
L 244.276364 151.357681 
L 252.392727 149.625857 
L 260.509091 146.970976 
L 268.625455 144.393269 
L 276.741818 141.912042 
L 284.858182 139.523699 
L 292.974545 137.22431 
L 301.090909 135.010102 
L 309.207273 132.87746 
L 317.323636 130.822918 
L 325.44 112.409659 
L 333.556364 109.911149 
L 341.672727 131.232154 
L 349.789091 129.827001 
L 357.905455 128.084984 
L 366.021818 114.897221 
L 374.138182 127.173759 
L 382.254545 125.795402 
L 390.370909 124.254157 
" style="fill:none;stroke:#add8e6;stroke-linecap:square;stroke-opacity:0.3;stroke-width:1.5;"/>
   </g>
   <g id="line2d_18">
    <path clip-path="url(#p79b28ea361)" d="M 73.832727 247.334473 
L 81.949091 147.396119 
L 90.065455 128.039633 
L 98.181818 120.384893 
L 106.298182 112.884982 
L 114.414545 140.910601 
L 122.530909 138.559683 
L 130.647273 133.58221 
L 138.763636 128.757521 
L 146.88 123.603327 
L 154.996364 118.521842 
L 163.112727 139.897943 
L 171.229091 121.271739 
L 179.345455 116.415265 
L 187.461818 141.296697 
L 195.578182 119.345764 
L 203.694545 115.105037 
L 211.810909 111.576757 
L 219.927273 108.198996 
L 228.043636 104.953097 
L 236.16 126.051392 
L 244.276364 107.715838 
L 252.392727 145.069903 
L 260.509091 143.322903 
L 268.625455 140.770854 
L 276.741818 115.812768 
L 284.858182 138.202647 
L 292.974545 136.340922 
L 301.090909 134.076786 
L 309.207273 131.886215 
L 317.323636 129.774812 
L 325.44 127.739495 
L 333.556364 125.77714 
L 341.672727 123.884735 
L 349.789091 130.698353 
L 357.905455 124.407483 
L 366.021818 122.633347 
L 374.138182 120.987086 
L 382.254545 119.398462 
L 390.370909 117.864131 
" style="fill:none;stroke:#add8e6;stroke-linecap:square;stroke-opacity:0.3;stroke-width:1.5;"/>
   </g>
   <g id="line2d_19">
    <path clip-path="url(#p79b28ea361)" d="M 73.832727 247.334473 
L 81.949091 147.396119 
L 90.065455 128.039633 
L 98.181818 131.991367 
L 106.298182 127.070797 
L 114.414545 134.903278 
L 122.530909 128.645821 
L 130.647273 122.70722 
L 138.763636 138.679399 
L 146.88 124.933706 
L 154.996364 137.477765 
L 163.112727 126.104641 
L 171.229091 121.39308 
L 179.345455 117.090793 
L 187.461818 112.943547 
L 195.578182 108.94726 
L 203.694545 105.103737 
L 211.810909 101.41244 
L 219.927273 154.354746 
L 228.043636 106.83734 
L 236.16 126.346101 
L 244.276364 158.486372 
L 252.392727 156.903366 
L 260.509091 154.608515 
L 268.625455 152.381804 
L 276.741818 150.237183 
L 284.858182 116.030692 
L 292.974545 147.032369 
L 301.090909 117.905435 
L 309.207273 145.038395 
L 317.323636 119.531119 
L 325.44 117.097227 
L 333.556364 145.126771 
L 341.672727 143.861293 
L 349.789091 120.868341 
L 357.905455 118.779817 
L 366.021818 143.608951 
L 374.138182 142.435809 
L 382.254545 121.976833 
L 390.370909 131.504346 
" style="fill:none;stroke:#add8e6;stroke-linecap:square;stroke-opacity:0.3;stroke-width:1.5;"/>
   </g>
   <g id="line2d_20">
    <path clip-path="url(#p79b28ea361)" d="M 73.832727 247.334473 
L 81.949091 147.396119 
L 90.065455 128.039633 
L 98.181818 120.384893 
L 106.298182 112.884982 
L 114.414545 105.022173 
L 122.530909 97.154458 
L 130.647273 89.485111 
L 138.763636 82.105243 
L 146.88 75.053067 
L 154.996364 68.341007 
L 163.112727 159.728053 
L 171.229091 80.417983 
L 179.345455 72.066159 
L 187.461818 67.005154 
L 195.578182 62.299088 
L 203.694545 57.82468 
L 211.810909 53.568 
L 219.927273 96.686392 
L 228.043636 98.11688 
L 236.16 98.175479 
L 244.276364 98.190809 
L 252.392727 98.203168 
L 260.509091 98.213971 
L 268.625455 98.22349 
L 276.741818 98.231921 
L 284.858182 98.239424 
L 292.974545 98.24613 
L 301.090909 98.252148 
L 309.207273 98.25757 
L 317.323636 98.262471 
L 325.44 98.266917 
L 333.556364 98.270962 
L 341.672727 98.274652 
L 349.789091 98.278029 
L 357.905455 98.281126 
L 366.021818 98.283975 
L 374.138182 98.286599 
L 382.254545 98.289024 
L 390.370909 98.291267 
" style="fill:none;stroke:#add8e6;stroke-linecap:square;stroke-opacity:0.3;stroke-width:1.5;"/>
   </g>
   <g id="line2d_21">
    <path clip-path="url(#p79b28ea361)" d="M 73.832727 247.334473 
L 81.949091 147.396119 
L 90.065455 128.039633 
L 98.181818 120.384893 
L 106.298182 112.884982 
L 114.414545 105.022173 
L 122.530909 97.154458 
L 130.647273 89.485111 
L 138.763636 82.105243 
L 146.88 153.56674 
L 154.996364 153.881593 
L 163.112727 98.395454 
L 171.229091 90.920028 
L 179.345455 85.802324 
L 187.461818 80.987947 
L 195.578182 76.390774 
L 203.694545 72.002338 
L 211.810909 67.815597 
L 219.927273 63.822674 
L 228.043636 60.015192 
L 236.16 102.200131 
L 244.276364 103.455191 
L 252.392727 103.500877 
L 260.509091 103.512375 
L 268.625455 103.521782 
L 276.741818 103.530096 
L 284.858182 103.537495 
L 292.974545 103.544107 
L 301.090909 103.550042 
L 309.207273 103.555389 
L 317.323636 103.560222 
L 325.44 103.564605 
L 333.556364 103.568594 
L 341.672727 103.572233 
L 349.789091 103.575563 
L 357.905455 103.578617 
L 366.021818 103.581425 
L 374.138182 103.584013 
L 382.254545 103.586404 
L 390.370909 103.588616 
" style="fill:none;stroke:#add8e6;stroke-linecap:square;stroke-opacity:0.3;stroke-width:1.5;"/>
   </g>
   <g id="line2d_22">
    <path clip-path="url(#p79b28ea361)" d="M 73.832727 247.334473 
L 81.949091 147.396119 
L 90.065455 128.039633 
L 98.181818 120.384893 
L 106.298182 136.94639 
L 114.414545 133.496792 
L 122.530909 129.991369 
L 130.647273 132.844158 
L 138.763636 128.013078 
L 146.88 134.57907 
L 154.996364 128.742482 
L 163.112727 124.027092 
L 171.229091 119.47797 
L 179.345455 115.070614 
L 187.461818 143.994532 
L 195.578182 118.42402 
L 203.694545 113.994968 
L 211.810909 144.530326 
L 219.927273 142.45378 
L 228.043636 120.26347 
L 236.16 130.740367 
L 244.276364 121.804656 
L 252.392727 137.034185 
L 260.509091 123.133308 
L 268.625455 135.931344 
L 276.741818 133.741195 
L 284.858182 131.321707 
L 292.974545 128.984237 
L 301.090909 126.731768 
L 309.207273 132.51038 
L 317.323636 130.602673 
L 325.44 129.05554 
L 333.556364 127.107877 
L 341.672727 125.22192 
L 349.789091 123.402563 
L 357.905455 121.647169 
L 366.021818 119.953092 
L 374.138182 138.859769 
L 382.254545 121.265445 
L 390.370909 119.515181 
" style="fill:none;stroke:#add8e6;stroke-linecap:square;stroke-opacity:0.3;stroke-width:1.5;"/>
   </g>
   <g id="line2d_23">
    <path clip-path="url(#p79b28ea361)" d="M 73.832727 247.334473 
L 81.949091 147.396119 
L 90.065455 128.039633 
L 98.181818 120.384893 
L 106.298182 136.94639 
L 114.414545 133.496792 
L 122.530909 129.991369 
L 130.647273 132.844158 
L 138.763636 130.444108 
L 146.88 125.541388 
L 154.996364 120.587476 
L 163.112727 115.753005 
L 171.229091 111.069345 
L 179.345455 106.55093 
L 187.461818 102.204701 
L 195.578182 98.032786 
L 203.694545 94.034102 
L 211.810909 90.205421 
L 219.927273 161.067768 
L 228.043636 97.397668 
L 236.16 121.704993 
L 244.276364 165.010411 
L 252.392727 163.895957 
L 260.509091 161.79827 
L 268.625455 103.167423 
L 276.741818 155.598903 
L 284.858182 154.686262 
L 292.974545 152.711865 
L 301.090909 150.790318 
L 309.207273 148.940373 
L 317.323636 147.159118 
L 325.44 145.443425 
L 333.556364 143.790334 
L 341.672727 142.197046 
L 349.789091 140.660909 
L 357.905455 123.12449 
L 366.021818 120.962256 
L 374.138182 141.077305 
L 382.254545 140.0416 
L 390.370909 138.727368 
" style="fill:none;stroke:#add8e6;stroke-linecap:square;stroke-opacity:0.3;stroke-width:1.5;"/>
   </g>
   <g id="line2d_24">
    <path clip-path="url(#p79b28ea361)" d="M 73.832727 247.334473 
L 81.949091 147.396119 
L 90.065455 128.039633 
L 98.181818 131.991367 
L 106.298182 129.539388 
L 114.414545 123.556619 
L 122.530909 117.044151 
L 130.647273 110.508705 
L 138.763636 104.104119 
L 146.88 148.278476 
L 154.996364 110.426043 
L 163.112727 103.78218 
L 171.229091 98.786637 
L 179.345455 94.050417 
L 187.461818 89.516538 
L 195.578182 85.180852 
L 203.694545 159.86244 
L 211.810909 93.336203 
L 219.927273 87.833436 
L 228.043636 84.386534 
L 236.16 115.087745 
L 244.276364 115.95888 
L 252.392727 115.992331 
L 260.509091 116.002869 
L 268.625455 116.011703 
L 276.741818 116.019517 
L 284.858182 116.026471 
L 292.974545 116.032686 
L 301.090909 116.038265 
L 309.207273 116.04329 
L 317.323636 116.047833 
L 325.44 116.051954 
L 333.556364 116.055703 
L 341.672727 116.059124 
L 349.789091 116.062254 
L 357.905455 116.065125 
L 366.021818 116.067766 
L 374.138182 116.070199 
L 382.254545 116.072446 
L 390.370909 116.074526 
" style="fill:none;stroke:#add8e6;stroke-linecap:square;stroke-opacity:0.3;stroke-width:1.5;"/>
   </g>
   <g id="line2d_25">
    <path clip-path="url(#p79b28ea361)" d="M 73.832727 247.334473 
L 81.949091 262.709605 
L 90.065455 271.258788 
L 98.181818 273.750934 
L 106.298182 275.930281 
L 114.414545 278.382021 
L 122.530909 280.950979 
L 130.647273 265.518896 
L 138.763636 277.274456 
L 146.88 280.383348 
L 154.996364 265.940553 
L 163.112727 265.78471 
L 171.229091 276.046892 
L 179.345455 278.171182 
L 187.461818 267.093157 
L 195.578182 276.271369 
L 203.694545 277.991509 
L 211.810909 267.371051 
L 219.927273 276.318441 
L 228.043636 277.764207 
L 236.16 272.811527 
L 244.276364 265.210781 
L 252.392727 265.534404 
L 260.509091 276.618244 
L 268.625455 267.215676 
L 276.741818 267.45703 
L 284.858182 268.100774 
L 292.974545 268.734443 
L 301.090909 269.347555 
L 309.207273 269.940589 
L 317.323636 270.514237 
L 325.44 271.069157 
L 333.556364 271.605987 
L 341.672727 272.125336 
L 349.789091 272.627797 
L 357.905455 273.113944 
L 366.021818 273.584334 
L 374.138182 274.039508 
L 382.254545 269.473123 
L 390.370909 273.62177 
" style="fill:none;stroke:#ff0000;stroke-linecap:square;stroke-opacity:0.1;stroke-width:1.5;"/>
   </g>
   <g id="line2d_26">
    <path clip-path="url(#p79b28ea361)" d="M 73.832727 247.334473 
L 81.949091 262.709605 
L 90.065455 271.258788 
L 98.181818 273.750934 
L 106.298182 275.930281 
L 114.414545 278.382021 
L 122.530909 280.950979 
L 130.647273 265.518896 
L 138.763636 277.274456 
L 146.88 266.684176 
L 154.996364 266.817854 
L 163.112727 267.998563 
L 171.229091 273.444348 
L 179.345455 275.103303 
L 187.461818 268.313238 
L 195.578182 273.944144 
L 203.694545 268.909675 
L 211.810909 273.410666 
L 219.927273 274.610678 
L 228.043636 275.560778 
L 236.16 271.592573 
L 244.276364 265.809227 
L 252.392727 266.216586 
L 260.509091 274.780231 
L 268.625455 275.895597 
L 276.741818 266.89938 
L 284.858182 267.130529 
L 292.974545 267.720459 
L 301.090909 273.653121 
L 309.207273 274.463235 
L 317.323636 267.994297 
L 325.44 268.27077 
L 333.556364 268.771299 
L 341.672727 269.260805 
L 349.789091 269.734654 
L 357.905455 270.193309 
L 366.021818 270.6373 
L 374.138182 271.067144 
L 382.254545 271.483332 
L 390.370909 271.886343 
" style="fill:none;stroke:#ff0000;stroke-linecap:square;stroke-opacity:0.1;stroke-width:1.5;"/>
   </g>
   <g id="line2d_27">
    <path clip-path="url(#p79b28ea361)" d="M 73.832727 247.334473 
L 81.949091 262.709605 
L 90.065455 271.258788 
L 98.181818 273.750934 
L 106.298182 275.930281 
L 114.414545 267.503809 
L 122.530909 273.320823 
L 130.647273 275.945728 
L 138.763636 278.006872 
L 146.88 279.991367 
L 154.996364 281.92459 
L 163.112727 283.7988 
L 171.229091 263.157431 
L 179.345455 280.05319 
L 187.461818 282.678394 
L 195.578182 284.128783 
L 203.694545 285.474471 
L 211.810909 262.733567 
L 219.927273 282.049968 
L 228.043636 284.19503 
L 236.16 275.562706 
L 244.276364 264.91203 
L 252.392727 265.109229 
L 260.509091 265.778424 
L 268.625455 266.438212 
L 276.741818 267.075101 
L 284.858182 267.689844 
L 292.974545 268.283429 
L 301.090909 268.856755 
L 309.207273 269.410642 
L 317.323636 269.945849 
L 325.44 275.486966 
L 333.556364 276.275991 
L 341.672727 270.033838 
L 349.789091 270.291876 
L 357.905455 270.738799 
L 366.021818 274.783913 
L 374.138182 271.100164 
L 382.254545 271.398897 
L 390.370909 271.796508 
" style="fill:none;stroke:#ff0000;stroke-linecap:square;stroke-opacity:0.1;stroke-width:1.5;"/>
   </g>
   <g id="line2d_28">
    <path clip-path="url(#p79b28ea361)" d="M 73.832727 247.334473 
L 81.949091 262.709605 
L 90.065455 271.258788 
L 98.181818 273.750934 
L 106.298182 275.930281 
L 114.414545 267.503809 
L 122.530909 267.539083 
L 130.647273 268.966818 
L 138.763636 270.184721 
L 146.88 271.718899 
L 154.996364 273.25633 
L 163.112727 267.340645 
L 171.229091 272.121842 
L 179.345455 273.700365 
L 187.461818 267.013924 
L 195.578182 272.552687 
L 203.694545 273.93544 
L 211.810909 274.981491 
L 219.927273 275.981546 
L 228.043636 276.947299 
L 236.16 271.064483 
L 244.276364 275.911801 
L 252.392727 266.15119 
L 260.509091 266.367594 
L 268.625455 267.020368 
L 276.741818 273.504685 
L 284.858182 267.933611 
L 292.974545 268.294388 
L 301.090909 268.88227 
L 309.207273 269.456944 
L 317.323636 270.013003 
L 325.44 270.550942 
L 333.556364 271.071358 
L 341.672727 271.574829 
L 349.789091 269.659367 
L 357.905455 271.388456 
L 366.021818 271.875788 
L 374.138182 272.312055 
L 382.254545 272.73367 
L 390.370909 273.141797 
" style="fill:none;stroke:#ff0000;stroke-linecap:square;stroke-opacity:0.1;stroke-width:1.5;"/>
   </g>
   <g id="line2d_29">
    <path clip-path="url(#p79b28ea361)" d="M 73.832727 247.334473 
L 81.949091 262.709605 
L 90.065455 271.258788 
L 98.181818 270.556028 
L 106.298182 271.660926 
L 114.414545 268.674267 
L 122.530909 270.654907 
L 130.647273 272.501052 
L 138.763636 267.430828 
L 146.88 271.458853 
L 154.996364 267.744317 
L 163.112727 271.010281 
L 171.229091 272.491059 
L 179.345455 273.788371 
L 187.461818 275.042822 
L 195.578182 276.259276 
L 203.694545 277.436529 
L 211.810909 278.573826 
L 219.927273 263.30053 
L 228.043636 276.386669 
L 236.16 271.112595 
L 244.276364 262.167934 
L 252.392727 262.301481 
L 260.509091 262.826504 
L 268.625455 263.344217 
L 276.741818 263.843878 
L 284.858182 273.967442 
L 292.974545 265.065988 
L 301.090909 273.356349 
L 309.207273 265.698496 
L 317.323636 272.83068 
L 325.44 273.615963 
L 333.556364 265.795765 
L 341.672727 265.951711 
L 349.789091 272.420865 
L 357.905455 273.078731 
L 366.021818 266.234023 
L 374.138182 266.395134 
L 382.254545 272.089422 
L 390.370909 269.523396 
" style="fill:none;stroke:#ff0000;stroke-linecap:square;stroke-opacity:0.1;stroke-width:1.5;"/>
   </g>
   <g id="line2d_30">
    <path clip-path="url(#p79b28ea361)" d="M 73.832727 247.334473 
L 81.949091 262.709605 
L 90.065455 271.258788 
L 98.181818 273.750934 
L 106.298182 275.930281 
L 114.414545 278.382021 
L 122.530909 280.950979 
L 130.647273 283.526613 
L 138.763636 286.055295 
L 146.88 288.510462 
L 154.996364 290.8785 
L 163.112727 261.925855 
L 171.229091 285.49726 
L 179.345455 289.007141 
L 187.461818 290.794663 
L 195.578182 292.430186 
L 203.694545 293.993078 
L 211.810909 295.488 
L 219.927273 281.32969 
L 228.043636 280.574314 
L 236.16 280.539492 
L 244.276364 280.532308 
L 252.392727 280.526788 
L 260.509091 280.521983 
L 268.625455 280.517758 
L 276.741818 280.514024 
L 284.858182 280.510706 
L 292.974545 280.507746 
L 301.090909 280.505093 
L 309.207273 280.502707 
L 317.323636 280.500553 
L 325.44 280.498601 
L 333.556364 280.496828 
L 341.672727 280.495211 
L 349.789091 280.493734 
L 357.905455 280.49238 
L 366.021818 280.491136 
L 374.138182 280.489991 
L 382.254545 280.488934 
L 390.370909 280.487957 
" style="fill:none;stroke:#ff0000;stroke-linecap:square;stroke-opacity:0.1;stroke-width:1.5;"/>
   </g>
   <g id="line2d_31">
    <path clip-path="url(#p79b28ea361)" d="M 73.832727 247.334473 
L 81.949091 262.709605 
L 90.065455 271.258788 
L 98.181818 273.750934 
L 106.298182 275.930281 
L 114.414545 278.382021 
L 122.530909 280.950979 
L 130.647273 283.526613 
L 138.763636 286.055295 
L 146.88 263.732302 
L 154.996364 262.683121 
L 163.112727 279.549048 
L 171.229091 282.517179 
L 179.345455 284.243782 
L 187.461818 285.850274 
L 195.578182 287.39407 
L 203.694545 288.877446 
L 211.810909 290.301042 
L 219.927273 291.665945 
L 228.043636 292.973615 
L 236.16 279.316339 
L 244.276364 278.652334 
L 252.392727 278.624892 
L 260.509091 278.619491 
L 268.625455 278.615273 
L 276.741818 278.611559 
L 284.858182 278.608259 
L 292.974545 278.605315 
L 301.090909 278.602677 
L 309.207273 278.600304 
L 317.323636 278.598162 
L 325.44 278.596221 
L 333.556364 278.594457 
L 341.672727 278.59285 
L 349.789091 278.59138 
L 357.905455 278.590034 
L 366.021818 278.588797 
L 374.138182 278.587658 
L 382.254545 278.586607 
L 390.370909 278.585635 
" style="fill:none;stroke:#ff0000;stroke-linecap:square;stroke-opacity:0.1;stroke-width:1.5;"/>
   </g>
   <g id="line2d_32">
    <path clip-path="url(#p79b28ea361)" d="M 73.832727 247.334473 
L 81.949091 262.709605 
L 90.065455 271.258788 
L 98.181818 273.750934 
L 106.298182 268.824687 
L 114.414545 269.313387 
L 122.530909 269.832863 
L 130.647273 269.405784 
L 138.763636 270.760919 
L 146.88 268.440662 
L 154.996364 270.375884 
L 163.112727 271.808854 
L 171.229091 273.183098 
L 179.345455 274.522529 
L 187.461818 265.930983 
L 195.578182 273.128851 
L 203.694545 274.628165 
L 211.810909 265.927011 
L 219.927273 266.207727 
L 228.043636 272.523451 
L 236.16 269.714667 
L 244.276364 272.135668 
L 252.392727 267.975227 
L 260.509091 271.66429 
L 268.625455 268.305174 
L 276.741818 268.796531 
L 284.858182 269.434518 
L 292.974545 270.056035 
L 301.090909 270.657339 
L 309.207273 269.22244 
L 317.323636 269.684149 
L 325.44 270.02993 
L 333.556364 270.537293 
L 341.672727 271.032842 
L 349.789091 271.512454 
L 357.905455 271.976565 
L 366.021818 272.425688 
L 374.138182 267.651018 
L 382.254545 271.972827 
L 390.370909 272.490924 
" style="fill:none;stroke:#ff0000;stroke-linecap:square;stroke-opacity:0.1;stroke-width:1.5;"/>
   </g>
   <g id="line2d_33">
    <path clip-path="url(#p79b28ea361)" d="M 73.832727 247.334473 
L 81.949091 262.709605 
L 90.065455 271.258788 
L 98.181818 273.750934 
L 106.298182 268.824687 
L 114.414545 269.313387 
L 122.530909 269.832863 
L 130.647273 269.405784 
L 138.763636 269.582207 
L 146.88 270.977147 
L 154.996364 272.45263 
L 163.112727 273.908796 
L 171.229091 275.332241 
L 179.345455 276.717187 
L 187.461818 278.060065 
L 195.578182 279.358723 
L 203.694545 280.612033 
L 211.810909 281.819619 
L 219.927273 261.648898 
L 228.043636 278.913928 
L 236.16 272.405931 
L 244.276364 260.602357 
L 252.392727 260.544803 
L 260.509091 260.996937 
L 268.625455 277.324176 
L 276.741818 263.243226 
L 284.858182 263.140618 
L 292.974545 263.586846 
L 301.090909 264.031243 
L 309.207273 264.460191 
L 317.323636 264.874122 
L 325.44 265.273708 
L 333.556364 265.659572 
L 341.672727 266.032291 
L 349.789091 266.392405 
L 357.905455 272.165086 
L 366.021818 272.827309 
L 374.138182 266.495913 
L 382.254545 266.636058 
L 390.370909 266.939248 
" style="fill:none;stroke:#ff0000;stroke-linecap:square;stroke-opacity:0.1;stroke-width:1.5;"/>
   </g>
   <g id="line2d_34">
    <path clip-path="url(#p79b28ea361)" d="M 73.832727 247.334473 
L 81.949091 262.709605 
L 90.065455 271.258788 
L 98.181818 270.556028 
L 106.298182 270.413907 
L 114.414545 272.029059 
L 122.530909 273.999383 
L 130.647273 276.042685 
L 138.763636 278.085067 
L 146.88 265.100612 
L 154.996364 275.333908 
L 163.112727 277.769633 
L 171.229091 279.374045 
L 179.345455 280.885438 
L 187.461818 282.342868 
L 195.578182 283.7468 
L 203.694545 262.073163 
L 211.810909 280.387935 
L 219.927273 282.555231 
L 228.043636 283.666913 
L 236.16 274.612301 
L 244.276364 274.152899 
L 252.392727 274.132775 
L 260.509091 274.127753 
L 268.625455 274.123685 
L 276.741818 274.120097 
L 284.858182 274.11691 
L 292.974545 274.114066 
L 301.090909 274.111518 
L 309.207273 274.109225 
L 317.323636 274.107156 
L 325.44 274.105281 
L 333.556364 274.103577 
L 341.672727 274.102024 
L 349.789091 274.100605 
L 357.905455 274.099304 
L 366.021818 274.098109 
L 374.138182 274.097009 
L 382.254545 274.095993 
L 390.370909 274.095054 
" style="fill:none;stroke:#ff0000;stroke-linecap:square;stroke-opacity:0.1;stroke-width:1.5;"/>
   </g>
   <g id="line2d_35">
    <path clip-path="url(#p79b28ea361)" d="M 73.832727 247.334473 
L 81.949091 147.396119 
L 90.065455 128.039633 
L 98.181818 122.706188 
L 106.298182 120.781286 
L 114.414545 122.736338 
L 122.530909 115.100947 
L 130.647273 121.695396 
L 138.763636 110.876743 
L 146.88 122.41324 
L 154.996364 121.796096 
L 163.112727 123.632697 
L 171.229091 112.556753 
L 179.345455 101.806934 
L 187.461818 110.671564 
L 195.578182 97.62774 
L 203.694545 103.626914 
L 211.810909 108.062251 
L 219.927273 112.369348 
L 228.043636 96.849745 
L 236.16 117.916123 
L 244.276364 131.840081 
L 252.392727 136.250731 
L 260.509091 126.608562 
L 268.625455 124.676739 
L 276.741818 129.972507 
L 284.858182 127.807333 
L 292.974545 129.590372 
L 301.090909 123.318259 
L 309.207273 125.515475 
L 317.323636 124.464955 
L 325.44 121.487495 
L 333.556364 123.088617 
L 341.672727 124.174675 
L 349.789091 121.711867 
L 357.905455 118.414696 
L 366.021818 118.672355 
L 374.138182 123.188701 
L 382.254545 120.471636 
L 390.370909 119.125857 
" style="fill:none;stroke:#1f77b4;stroke-linecap:square;stroke-width:1.5;"/>
   </g>
   <g id="line2d_36">
    <path clip-path="url(#p79b28ea361)" d="M 73.832727 247.334473 
L 81.949091 262.709605 
L 90.065455 271.258788 
L 98.181818 273.111953 
L 106.298182 273.53059 
L 114.414545 272.78658 
L 122.530909 274.898384 
L 130.647273 273.035887 
L 138.763636 276.071012 
L 146.88 272.699783 
L 154.996364 272.740769 
L 163.112727 272.089519 
L 171.229091 275.316539 
L 179.345455 278.619249 
L 187.461818 276.312039 
L 195.578182 279.921489 
L 203.694545 278.393151 
L 211.810909 277.099421 
L 219.927273 275.566866 
L 228.043636 279.95062 
L 236.16 273.873261 
L 244.276364 270.008734 
L 252.392727 268.711737 
L 260.509091 271.230145 
L 268.625455 271.880014 
L 276.741818 270.406551 
L 284.858182 271.063321 
L 292.974545 270.496872 
L 301.090909 272.200392 
L 309.207273 271.586477 
L 317.323636 271.906221 
L 325.44 272.749754 
L 333.556364 272.291213 
L 341.672727 271.920174 
L 349.789091 272.582514 
L 357.905455 273.583661 
L 366.021818 273.55464 
L 374.138182 272.223559 
L 382.254545 272.895886 
L 390.370909 273.256863 
" style="fill:none;stroke:#ff0000;stroke-linecap:square;stroke-width:1.5;"/>
   </g>
   <g id="patch_5">
    <path d="M 57.6 307.584 
L 57.6 41.472 
" style="fill:none;stroke:#000000;stroke-linecap:square;stroke-linejoin:miter;stroke-width:0.8;"/>
   </g>
   <g id="patch_6">
    <path d="M 414.72 307.584 
L 414.72 41.472 
" style="fill:none;stroke:#000000;stroke-linecap:square;stroke-linejoin:miter;stroke-width:0.8;"/>
   </g>
   <g id="patch_7">
    <path d="M 57.6 307.584 
L 414.72 307.584 
" style="fill:none;stroke:#000000;stroke-linecap:square;stroke-linejoin:miter;stroke-width:0.8;"/>
   </g>
   <g id="patch_8">
    <path d="M 57.6 41.472 
L 414.72 41.472 
" style="fill:none;stroke:#000000;stroke-linecap:square;stroke-linejoin:miter;stroke-width:0.8;"/>
   </g>
   <g id="text_17">
    <!-- biased_A -->
    <g transform="translate(209.27625 35.472)scale(0.12 -0.12)">
     <defs>
      <path d="M 3116 1747 
Q 3116 2381 2855 2742 
Q 2594 3103 2138 3103 
Q 1681 3103 1420 2742 
Q 1159 2381 1159 1747 
Q 1159 1113 1420 752 
Q 1681 391 2138 391 
Q 2594 391 2855 752 
Q 3116 1113 3116 1747 
z
M 1159 2969 
Q 1341 3281 1617 3432 
Q 1894 3584 2278 3584 
Q 2916 3584 3314 3078 
Q 3713 2572 3713 1747 
Q 3713 922 3314 415 
Q 2916 -91 2278 -91 
Q 1894 -91 1617 61 
Q 1341 213 1159 525 
L 1159 0 
L 581 0 
L 581 4863 
L 1159 4863 
L 1159 2969 
z
" id="DejaVuSans-62" transform="scale(0.015625)"/>
      <path d="M 603 3500 
L 1178 3500 
L 1178 0 
L 603 0 
L 603 3500 
z
M 603 4863 
L 1178 4863 
L 1178 4134 
L 603 4134 
L 603 4863 
z
" id="DejaVuSans-69" transform="scale(0.015625)"/>
      <path d="M 2194 1759 
Q 1497 1759 1228 1600 
Q 959 1441 959 1056 
Q 959 750 1161 570 
Q 1363 391 1709 391 
Q 2188 391 2477 730 
Q 2766 1069 2766 1631 
L 2766 1759 
L 2194 1759 
z
M 3341 1997 
L 3341 0 
L 2766 0 
L 2766 531 
Q 2569 213 2275 61 
Q 1981 -91 1556 -91 
Q 1019 -91 701 211 
Q 384 513 384 1019 
Q 384 1609 779 1909 
Q 1175 2209 1959 2209 
L 2766 2209 
L 2766 2266 
Q 2766 2663 2505 2880 
Q 2244 3097 1772 3097 
Q 1472 3097 1187 3025 
Q 903 2953 641 2809 
L 641 3341 
Q 956 3463 1253 3523 
Q 1550 3584 1831 3584 
Q 2591 3584 2966 3190 
Q 3341 2797 3341 1997 
z
" id="DejaVuSans-61" transform="scale(0.015625)"/>
      <path d="M 2834 3397 
L 2834 2853 
Q 2591 2978 2328 3040 
Q 2066 3103 1784 3103 
Q 1356 3103 1142 2972 
Q 928 2841 928 2578 
Q 928 2378 1081 2264 
Q 1234 2150 1697 2047 
L 1894 2003 
Q 2506 1872 2764 1633 
Q 3022 1394 3022 966 
Q 3022 478 2636 193 
Q 2250 -91 1575 -91 
Q 1294 -91 989 -36 
Q 684 19 347 128 
L 347 722 
Q 666 556 975 473 
Q 1284 391 1588 391 
Q 1994 391 2212 530 
Q 2431 669 2431 922 
Q 2431 1156 2273 1281 
Q 2116 1406 1581 1522 
L 1381 1569 
Q 847 1681 609 1914 
Q 372 2147 372 2553 
Q 372 3047 722 3315 
Q 1072 3584 1716 3584 
Q 2034 3584 2315 3537 
Q 2597 3491 2834 3397 
z
" id="DejaVuSans-73" transform="scale(0.015625)"/>
      <path d="M 2906 2969 
L 2906 4863 
L 3481 4863 
L 3481 0 
L 2906 0 
L 2906 525 
Q 2725 213 2448 61 
Q 2172 -91 1784 -91 
Q 1150 -91 751 415 
Q 353 922 353 1747 
Q 353 2572 751 3078 
Q 1150 3584 1784 3584 
Q 2172 3584 2448 3432 
Q 2725 3281 2906 2969 
z
M 947 1747 
Q 947 1113 1208 752 
Q 1469 391 1925 391 
Q 2381 391 2643 752 
Q 2906 1113 2906 1747 
Q 2906 2381 2643 2742 
Q 2381 3103 1925 3103 
Q 1469 3103 1208 2742 
Q 947 2381 947 1747 
z
" id="DejaVuSans-64" transform="scale(0.015625)"/>
      <path d="M 3263 -1063 
L 3263 -1509 
L -63 -1509 
L -63 -1063 
L 3263 -1063 
z
" id="DejaVuSans-5f" transform="scale(0.015625)"/>
      <path d="M 2188 4044 
L 1331 1722 
L 3047 1722 
L 2188 4044 
z
M 1831 4666 
L 2547 4666 
L 4325 0 
L 3669 0 
L 3244 1197 
L 1141 1197 
L 716 0 
L 50 0 
L 1831 4666 
z
" id="DejaVuSans-41" transform="scale(0.015625)"/>
     </defs>
     <use xlink:href="#DejaVuSans-62"/>
     <use x="63.476562" xlink:href="#DejaVuSans-69"/>
     <use x="91.259766" xlink:href="#DejaVuSans-61"/>
     <use x="152.539062" xlink:href="#DejaVuSans-73"/>
     <use x="204.638672" xlink:href="#DejaVuSans-65"/>
     <use x="266.162109" xlink:href="#DejaVuSans-64"/>
     <use x="329.638672" xlink:href="#DejaVuSans-5f"/>
     <use x="379.638672" xlink:href="#DejaVuSans-41"/>
    </g>
   </g>
   <g id="legend_1">
    <g id="patch_9">
     <path d="M 351.635625 78.82825 
L 407.72 78.82825 
Q 409.72 78.82825 409.72 76.82825 
L 409.72 48.472 
Q 409.72 46.472 407.72 46.472 
L 351.635625 46.472 
Q 349.635625 46.472 349.635625 48.472 
L 349.635625 76.82825 
Q 349.635625 78.82825 351.635625 78.82825 
z
" style="fill:#ffffff;opacity:0.8;stroke:#cccccc;stroke-linejoin:miter;"/>
    </g>
    <g id="line2d_37">
     <path d="M 353.635625 54.570437 
L 373.635625 54.570437 
" style="fill:none;stroke:#1f77b4;stroke-linecap:square;stroke-width:1.5;"/>
    </g>
    <g id="line2d_38"/>
    <g id="text_18">
     <!-- coop -->
     <g transform="translate(381.635625 58.070437)scale(0.1 -0.1)">
      <use xlink:href="#DejaVuSans-63"/>
      <use x="54.980469" xlink:href="#DejaVuSans-6f"/>
      <use x="116.162109" xlink:href="#DejaVuSans-6f"/>
      <use x="177.34375" xlink:href="#DejaVuSans-70"/>
     </g>
    </g>
    <g id="line2d_39">
     <path d="M 353.635625 69.248562 
L 373.635625 69.248562 
" style="fill:none;stroke:#ff0000;stroke-linecap:square;stroke-width:1.5;"/>
    </g>
    <g id="line2d_40"/>
    <g id="text_19">
     <!-- host -->
     <g transform="translate(381.635625 72.748562)scale(0.1 -0.1)">
      <defs>
       <path d="M 3513 2113 
L 3513 0 
L 2938 0 
L 2938 2094 
Q 2938 2591 2744 2837 
Q 2550 3084 2163 3084 
Q 1697 3084 1428 2787 
Q 1159 2491 1159 1978 
L 1159 0 
L 581 0 
L 581 4863 
L 1159 4863 
L 1159 2956 
Q 1366 3272 1645 3428 
Q 1925 3584 2291 3584 
Q 2894 3584 3203 3211 
Q 3513 2838 3513 2113 
z
" id="DejaVuSans-68" transform="scale(0.015625)"/>
      </defs>
      <use xlink:href="#DejaVuSans-68"/>
      <use x="63.378906" xlink:href="#DejaVuSans-6f"/>
      <use x="124.560547" xlink:href="#DejaVuSans-73"/>
      <use x="176.660156" xlink:href="#DejaVuSans-74"/>
     </g>
    </g>
   </g>
  </g>
 </g>
 <defs>
  <clipPath id="p79b28ea361">
   <rect height="266.112" width="357.12" x="57.6" y="41.472"/>
  </clipPath>
 </defs>
</svg>
