<?xml version="1.0" encoding="utf-8" standalone="no"?>
<!DOCTYPE svg PUBLIC "-//W3C//DTD SVG 1.1//EN"
  "http://www.w3.org/Graphics/SVG/1.1/DTD/svg11.dtd">
<svg height="345.6pt" version="1.1" viewBox="0 0 460.8 345.6" width="460.8pt" xmlns="http://www.w3.org/2000/svg" xmlns:xlink="http://www.w3.org/1999/xlink">
 <metadata>
  <rdf:RDF xmlns:cc="http://creativecommons.org/ns#" xmlns:dc="http://purl.org/dc/elements/1.1/" xmlns:rdf="http://www.w3.org/1999/02/22-rdf-syntax-ns#">
   <cc:Work>
    <dc:type rdf:resource="http://purl.org/dc/dcmitype/StillImage"/>
    <dc:date>2023-09-18T18:01:06.780720</dc:date>
    <dc:format>image/svg+xml</dc:format>
    <dc:creator>
     <cc:Agent>
      <dc:title>Matplotlib v3.4.1, https://matplotlib.org/</dc:title>
     </cc:Agent>
    </dc:creator>
   </cc:Work>
  </rdf:RDF>
 </metadata>
 <defs>
  <style type="text/css">*{stroke-linecap:butt;stroke-linejoin:round;}</style>
 </defs>
 <g id="figure_1">
  <g id="patch_1">
   <path d="M 0 345.6 
L 460.8 345.6 
L 460.8 0 
L 0 0 
z
" style="fill:#ffffff;"/>
  </g>
  <g id="axes_1">
   <g id="patch_2">
    <path d="M 57.6 307.584 
L 414.72 307.584 
L 414.72 41.472 
L 57.6 41.472 
z
" style="fill:#ffffff;"/>
   </g>
   <g id="patch_3">
    <path clip-path="url(#ped77062cf2)" d="M 73.832727 307.584 
L 73.832727 41.472 
L 236.16 41.472 
L 236.16 307.584 
z
" style="fill:#ff7f50;opacity:0.2;"/>
   </g>
   <g id="patch_4">
    <path clip-path="url(#ped77062cf2)" d="M 236.16 307.584 
L 236.16 41.472 
L 398.487273 41.472 
L 398.487273 307.584 
z
" style="fill:#add8e6;opacity:0.2;"/>
   </g>
   <g id="matplotlib.axis_1">
    <g id="xtick_1">
     <g id="line2d_1">
      <defs>
       <path d="M 0 0 
L 0 3.5 
" id="m98bf1590b9" style="stroke:#000000;stroke-width:0.8;"/>
      </defs>
      <g>
       <use style="stroke:#000000;stroke-width:0.8;" x="73.832727" xlink:href="#m98bf1590b9" y="307.584"/>
      </g>
     </g>
     <g id="text_1">
      <!-- 0 -->
      <g transform="translate(70.651477 322.182437)scale(0.1 -0.1)">
       <defs>
        <path d="M 2034 4250 
Q 1547 4250 1301 3770 
Q 1056 3291 1056 2328 
Q 1056 1369 1301 889 
Q 1547 409 2034 409 
Q 2525 409 2770 889 
Q 3016 1369 3016 2328 
Q 3016 3291 2770 3770 
Q 2525 4250 2034 4250 
z
M 2034 4750 
Q 2819 4750 3233 4129 
Q 3647 3509 3647 2328 
Q 3647 1150 3233 529 
Q 2819 -91 2034 -91 
Q 1250 -91 836 529 
Q 422 1150 422 2328 
Q 422 3509 836 4129 
Q 1250 4750 2034 4750 
z
" id="DejaVuSans-30" transform="scale(0.015625)"/>
       </defs>
       <use xlink:href="#DejaVuSans-30"/>
      </g>
     </g>
    </g>
    <g id="xtick_2">
     <g id="line2d_2">
      <g>
       <use style="stroke:#000000;stroke-width:0.8;" x="114.414545" xlink:href="#m98bf1590b9" y="307.584"/>
      </g>
     </g>
     <g id="text_2">
      <!-- 5 -->
      <g transform="translate(111.233295 322.182437)scale(0.1 -0.1)">
       <defs>
        <path d="M 691 4666 
L 3169 4666 
L 3169 4134 
L 1269 4134 
L 1269 2991 
Q 1406 3038 1543 3061 
Q 1681 3084 1819 3084 
Q 2600 3084 3056 2656 
Q 3513 2228 3513 1497 
Q 3513 744 3044 326 
Q 2575 -91 1722 -91 
Q 1428 -91 1123 -41 
Q 819 9 494 109 
L 494 744 
Q 775 591 1075 516 
Q 1375 441 1709 441 
Q 2250 441 2565 725 
Q 2881 1009 2881 1497 
Q 2881 1984 2565 2268 
Q 2250 2553 1709 2553 
Q 1456 2553 1204 2497 
Q 953 2441 691 2322 
L 691 4666 
z
" id="DejaVuSans-35" transform="scale(0.015625)"/>
       </defs>
       <use xlink:href="#DejaVuSans-35"/>
      </g>
     </g>
    </g>
    <g id="xtick_3">
     <g id="line2d_3">
      <g>
       <use style="stroke:#000000;stroke-width:0.8;" x="154.996364" xlink:href="#m98bf1590b9" y="307.584"/>
      </g>
     </g>
     <g id="text_3">
      <!-- 10 -->
      <g transform="translate(148.633864 322.182437)scale(0.1 -0.1)">
       <defs>
        <path d="M 794 531 
L 1825 531 
L 1825 4091 
L 703 3866 
L 703 4441 
L 1819 4666 
L 2450 4666 
L 2450 531 
L 3481 531 
L 3481 0 
L 794 0 
L 794 531 
z
" id="DejaVuSans-31" transform="scale(0.015625)"/>
       </defs>
       <use xlink:href="#DejaVuSans-31"/>
       <use x="63.623047" xlink:href="#DejaVuSans-30"/>
      </g>
     </g>
    </g>
    <g id="xtick_4">
     <g id="line2d_4">
      <g>
       <use style="stroke:#000000;stroke-width:0.8;" x="195.578182" xlink:href="#m98bf1590b9" y="307.584"/>
      </g>
     </g>
     <g id="text_4">
      <!-- 15 -->
      <g transform="translate(189.215682 322.182437)scale(0.1 -0.1)">
       <use xlink:href="#DejaVuSans-31"/>
       <use x="63.623047" xlink:href="#DejaVuSans-35"/>
      </g>
     </g>
    </g>
    <g id="xtick_5">
     <g id="line2d_5">
      <g>
       <use style="stroke:#000000;stroke-width:0.8;" x="236.16" xlink:href="#m98bf1590b9" y="307.584"/>
      </g>
     </g>
     <g id="text_5">
      <!-- 20 -->
      <g transform="translate(229.7975 322.182437)scale(0.1 -0.1)">
       <defs>
        <path d="M 1228 531 
L 3431 531 
L 3431 0 
L 469 0 
L 469 531 
Q 828 903 1448 1529 
Q 2069 2156 2228 2338 
Q 2531 2678 2651 2914 
Q 2772 3150 2772 3378 
Q 2772 3750 2511 3984 
Q 2250 4219 1831 4219 
Q 1534 4219 1204 4116 
Q 875 4013 500 3803 
L 500 4441 
Q 881 4594 1212 4672 
Q 1544 4750 1819 4750 
Q 2544 4750 2975 4387 
Q 3406 4025 3406 3419 
Q 3406 3131 3298 2873 
Q 3191 2616 2906 2266 
Q 2828 2175 2409 1742 
Q 1991 1309 1228 531 
z
" id="DejaVuSans-32" transform="scale(0.015625)"/>
       </defs>
       <use xlink:href="#DejaVuSans-32"/>
       <use x="63.623047" xlink:href="#DejaVuSans-30"/>
      </g>
     </g>
    </g>
    <g id="xtick_6">
     <g id="line2d_6">
      <g>
       <use style="stroke:#000000;stroke-width:0.8;" x="276.741818" xlink:href="#m98bf1590b9" y="307.584"/>
      </g>
     </g>
     <g id="text_6">
      <!-- 25 -->
      <g transform="translate(270.379318 322.182437)scale(0.1 -0.1)">
       <use xlink:href="#DejaVuSans-32"/>
       <use x="63.623047" xlink:href="#DejaVuSans-35"/>
      </g>
     </g>
    </g>
    <g id="xtick_7">
     <g id="line2d_7">
      <g>
       <use style="stroke:#000000;stroke-width:0.8;" x="317.323636" xlink:href="#m98bf1590b9" y="307.584"/>
      </g>
     </g>
     <g id="text_7">
      <!-- 30 -->
      <g transform="translate(310.961136 322.182437)scale(0.1 -0.1)">
       <defs>
        <path d="M 2597 2516 
Q 3050 2419 3304 2112 
Q 3559 1806 3559 1356 
Q 3559 666 3084 287 
Q 2609 -91 1734 -91 
Q 1441 -91 1130 -33 
Q 819 25 488 141 
L 488 750 
Q 750 597 1062 519 
Q 1375 441 1716 441 
Q 2309 441 2620 675 
Q 2931 909 2931 1356 
Q 2931 1769 2642 2001 
Q 2353 2234 1838 2234 
L 1294 2234 
L 1294 2753 
L 1863 2753 
Q 2328 2753 2575 2939 
Q 2822 3125 2822 3475 
Q 2822 3834 2567 4026 
Q 2313 4219 1838 4219 
Q 1578 4219 1281 4162 
Q 984 4106 628 3988 
L 628 4550 
Q 988 4650 1302 4700 
Q 1616 4750 1894 4750 
Q 2613 4750 3031 4423 
Q 3450 4097 3450 3541 
Q 3450 3153 3228 2886 
Q 3006 2619 2597 2516 
z
" id="DejaVuSans-33" transform="scale(0.015625)"/>
       </defs>
       <use xlink:href="#DejaVuSans-33"/>
       <use x="63.623047" xlink:href="#DejaVuSans-30"/>
      </g>
     </g>
    </g>
    <g id="xtick_8">
     <g id="line2d_8">
      <g>
       <use style="stroke:#000000;stroke-width:0.8;" x="357.905455" xlink:href="#m98bf1590b9" y="307.584"/>
      </g>
     </g>
     <g id="text_8">
      <!-- 35 -->
      <g transform="translate(351.542955 322.182437)scale(0.1 -0.1)">
       <use xlink:href="#DejaVuSans-33"/>
       <use x="63.623047" xlink:href="#DejaVuSans-35"/>
      </g>
     </g>
    </g>
    <g id="xtick_9">
     <g id="line2d_9">
      <g>
       <use style="stroke:#000000;stroke-width:0.8;" x="398.487273" xlink:href="#m98bf1590b9" y="307.584"/>
      </g>
     </g>
     <g id="text_9">
      <!-- 40 -->
      <g transform="translate(392.124773 322.182437)scale(0.1 -0.1)">
       <defs>
        <path d="M 2419 4116 
L 825 1625 
L 2419 1625 
L 2419 4116 
z
M 2253 4666 
L 3047 4666 
L 3047 1625 
L 3713 1625 
L 3713 1100 
L 3047 1100 
L 3047 0 
L 2419 0 
L 2419 1100 
L 313 1100 
L 313 1709 
L 2253 4666 
z
" id="DejaVuSans-34" transform="scale(0.015625)"/>
       </defs>
       <use xlink:href="#DejaVuSans-34"/>
       <use x="63.623047" xlink:href="#DejaVuSans-30"/>
      </g>
     </g>
    </g>
    <g id="text_10">
     <!-- t -->
     <g transform="translate(234.199844 335.860562)scale(0.1 -0.1)">
      <defs>
       <path d="M 1172 4494 
L 1172 3500 
L 2356 3500 
L 2356 3053 
L 1172 3053 
L 1172 1153 
Q 1172 725 1289 603 
Q 1406 481 1766 481 
L 2356 481 
L 2356 0 
L 1766 0 
Q 1100 0 847 248 
Q 594 497 594 1153 
L 594 3053 
L 172 3053 
L 172 3500 
L 594 3500 
L 594 4494 
L 1172 4494 
z
" id="DejaVuSans-74" transform="scale(0.015625)"/>
      </defs>
      <use xlink:href="#DejaVuSans-74"/>
     </g>
    </g>
   </g>
   <g id="matplotlib.axis_2">
    <g id="ytick_1">
     <g id="line2d_10">
      <defs>
       <path d="M 0 0 
L -3.5 0 
" id="me10346b262" style="stroke:#000000;stroke-width:0.8;"/>
      </defs>
      <g>
       <use style="stroke:#000000;stroke-width:0.8;" x="57.6" xlink:href="#me10346b262" y="296.148615"/>
      </g>
     </g>
     <g id="text_11">
      <!-- 0.0 -->
      <g transform="translate(34.696875 299.947834)scale(0.1 -0.1)">
       <defs>
        <path d="M 684 794 
L 1344 794 
L 1344 0 
L 684 0 
L 684 794 
z
" id="DejaVuSans-2e" transform="scale(0.015625)"/>
       </defs>
       <use xlink:href="#DejaVuSans-30"/>
       <use x="63.623047" xlink:href="#DejaVuSans-2e"/>
       <use x="95.410156" xlink:href="#DejaVuSans-30"/>
      </g>
     </g>
    </g>
    <g id="ytick_2">
     <g id="line2d_11">
      <g>
       <use style="stroke:#000000;stroke-width:0.8;" x="57.6" xlink:href="#me10346b262" y="244.801087"/>
      </g>
     </g>
     <g id="text_12">
      <!-- 0.2 -->
      <g transform="translate(34.696875 248.600305)scale(0.1 -0.1)">
       <use xlink:href="#DejaVuSans-30"/>
       <use x="63.623047" xlink:href="#DejaVuSans-2e"/>
       <use x="95.410156" xlink:href="#DejaVuSans-32"/>
      </g>
     </g>
    </g>
    <g id="ytick_3">
     <g id="line2d_12">
      <g>
       <use style="stroke:#000000;stroke-width:0.8;" x="57.6" xlink:href="#me10346b262" y="193.453558"/>
      </g>
     </g>
     <g id="text_13">
      <!-- 0.4 -->
      <g transform="translate(34.696875 197.252777)scale(0.1 -0.1)">
       <use xlink:href="#DejaVuSans-30"/>
       <use x="63.623047" xlink:href="#DejaVuSans-2e"/>
       <use x="95.410156" xlink:href="#DejaVuSans-34"/>
      </g>
     </g>
    </g>
    <g id="ytick_4">
     <g id="line2d_13">
      <g>
       <use style="stroke:#000000;stroke-width:0.8;" x="57.6" xlink:href="#me10346b262" y="142.106029"/>
      </g>
     </g>
     <g id="text_14">
      <!-- 0.6 -->
      <g transform="translate(34.696875 145.905248)scale(0.1 -0.1)">
       <defs>
        <path d="M 2113 2584 
Q 1688 2584 1439 2293 
Q 1191 2003 1191 1497 
Q 1191 994 1439 701 
Q 1688 409 2113 409 
Q 2538 409 2786 701 
Q 3034 994 3034 1497 
Q 3034 2003 2786 2293 
Q 2538 2584 2113 2584 
z
M 3366 4563 
L 3366 3988 
Q 3128 4100 2886 4159 
Q 2644 4219 2406 4219 
Q 1781 4219 1451 3797 
Q 1122 3375 1075 2522 
Q 1259 2794 1537 2939 
Q 1816 3084 2150 3084 
Q 2853 3084 3261 2657 
Q 3669 2231 3669 1497 
Q 3669 778 3244 343 
Q 2819 -91 2113 -91 
Q 1303 -91 875 529 
Q 447 1150 447 2328 
Q 447 3434 972 4092 
Q 1497 4750 2381 4750 
Q 2619 4750 2861 4703 
Q 3103 4656 3366 4563 
z
" id="DejaVuSans-36" transform="scale(0.015625)"/>
       </defs>
       <use xlink:href="#DejaVuSans-30"/>
       <use x="63.623047" xlink:href="#DejaVuSans-2e"/>
       <use x="95.410156" xlink:href="#DejaVuSans-36"/>
      </g>
     </g>
    </g>
    <g id="ytick_5">
     <g id="line2d_14">
      <g>
       <use style="stroke:#000000;stroke-width:0.8;" x="57.6" xlink:href="#me10346b262" y="90.758501"/>
      </g>
     </g>
     <g id="text_15">
      <!-- 0.8 -->
      <g transform="translate(34.696875 94.55772)scale(0.1 -0.1)">
       <defs>
        <path d="M 2034 2216 
Q 1584 2216 1326 1975 
Q 1069 1734 1069 1313 
Q 1069 891 1326 650 
Q 1584 409 2034 409 
Q 2484 409 2743 651 
Q 3003 894 3003 1313 
Q 3003 1734 2745 1975 
Q 2488 2216 2034 2216 
z
M 1403 2484 
Q 997 2584 770 2862 
Q 544 3141 544 3541 
Q 544 4100 942 4425 
Q 1341 4750 2034 4750 
Q 2731 4750 3128 4425 
Q 3525 4100 3525 3541 
Q 3525 3141 3298 2862 
Q 3072 2584 2669 2484 
Q 3125 2378 3379 2068 
Q 3634 1759 3634 1313 
Q 3634 634 3220 271 
Q 2806 -91 2034 -91 
Q 1263 -91 848 271 
Q 434 634 434 1313 
Q 434 1759 690 2068 
Q 947 2378 1403 2484 
z
M 1172 3481 
Q 1172 3119 1398 2916 
Q 1625 2713 2034 2713 
Q 2441 2713 2670 2916 
Q 2900 3119 2900 3481 
Q 2900 3844 2670 4047 
Q 2441 4250 2034 4250 
Q 1625 4250 1398 4047 
Q 1172 3844 1172 3481 
z
" id="DejaVuSans-38" transform="scale(0.015625)"/>
       </defs>
       <use xlink:href="#DejaVuSans-30"/>
       <use x="63.623047" xlink:href="#DejaVuSans-2e"/>
       <use x="95.410156" xlink:href="#DejaVuSans-38"/>
      </g>
     </g>
    </g>
    <g id="text_16">
     <!-- p(context) -->
     <g transform="translate(28.617187 200.449875)rotate(-90)scale(0.1 -0.1)">
      <defs>
       <path d="M 1159 525 
L 1159 -1331 
L 581 -1331 
L 581 3500 
L 1159 3500 
L 1159 2969 
Q 1341 3281 1617 3432 
Q 1894 3584 2278 3584 
Q 2916 3584 3314 3078 
Q 3713 2572 3713 1747 
Q 3713 922 3314 415 
Q 2916 -91 2278 -91 
Q 1894 -91 1617 61 
Q 1341 213 1159 525 
z
M 3116 1747 
Q 3116 2381 2855 2742 
Q 2594 3103 2138 3103 
Q 1681 3103 1420 2742 
Q 1159 2381 1159 1747 
Q 1159 1113 1420 752 
Q 1681 391 2138 391 
Q 2594 391 2855 752 
Q 3116 1113 3116 1747 
z
" id="DejaVuSans-70" transform="scale(0.015625)"/>
       <path d="M 1984 4856 
Q 1566 4138 1362 3434 
Q 1159 2731 1159 2009 
Q 1159 1288 1364 580 
Q 1569 -128 1984 -844 
L 1484 -844 
Q 1016 -109 783 600 
Q 550 1309 550 2009 
Q 550 2706 781 3412 
Q 1013 4119 1484 4856 
L 1984 4856 
z
" id="DejaVuSans-28" transform="scale(0.015625)"/>
       <path d="M 3122 3366 
L 3122 2828 
Q 2878 2963 2633 3030 
Q 2388 3097 2138 3097 
Q 1578 3097 1268 2742 
Q 959 2388 959 1747 
Q 959 1106 1268 751 
Q 1578 397 2138 397 
Q 2388 397 2633 464 
Q 2878 531 3122 666 
L 3122 134 
Q 2881 22 2623 -34 
Q 2366 -91 2075 -91 
Q 1284 -91 818 406 
Q 353 903 353 1747 
Q 353 2603 823 3093 
Q 1294 3584 2113 3584 
Q 2378 3584 2631 3529 
Q 2884 3475 3122 3366 
z
" id="DejaVuSans-63" transform="scale(0.015625)"/>
       <path d="M 1959 3097 
Q 1497 3097 1228 2736 
Q 959 2375 959 1747 
Q 959 1119 1226 758 
Q 1494 397 1959 397 
Q 2419 397 2687 759 
Q 2956 1122 2956 1747 
Q 2956 2369 2687 2733 
Q 2419 3097 1959 3097 
z
M 1959 3584 
Q 2709 3584 3137 3096 
Q 3566 2609 3566 1747 
Q 3566 888 3137 398 
Q 2709 -91 1959 -91 
Q 1206 -91 779 398 
Q 353 888 353 1747 
Q 353 2609 779 3096 
Q 1206 3584 1959 3584 
z
" id="DejaVuSans-6f" transform="scale(0.015625)"/>
       <path d="M 3513 2113 
L 3513 0 
L 2938 0 
L 2938 2094 
Q 2938 2591 2744 2837 
Q 2550 3084 2163 3084 
Q 1697 3084 1428 2787 
Q 1159 2491 1159 1978 
L 1159 0 
L 581 0 
L 581 3500 
L 1159 3500 
L 1159 2956 
Q 1366 3272 1645 3428 
Q 1925 3584 2291 3584 
Q 2894 3584 3203 3211 
Q 3513 2838 3513 2113 
z
" id="DejaVuSans-6e" transform="scale(0.015625)"/>
       <path d="M 3597 1894 
L 3597 1613 
L 953 1613 
Q 991 1019 1311 708 
Q 1631 397 2203 397 
Q 2534 397 2845 478 
Q 3156 559 3463 722 
L 3463 178 
Q 3153 47 2828 -22 
Q 2503 -91 2169 -91 
Q 1331 -91 842 396 
Q 353 884 353 1716 
Q 353 2575 817 3079 
Q 1281 3584 2069 3584 
Q 2775 3584 3186 3129 
Q 3597 2675 3597 1894 
z
M 3022 2063 
Q 3016 2534 2758 2815 
Q 2500 3097 2075 3097 
Q 1594 3097 1305 2825 
Q 1016 2553 972 2059 
L 3022 2063 
z
" id="DejaVuSans-65" transform="scale(0.015625)"/>
       <path d="M 3513 3500 
L 2247 1797 
L 3578 0 
L 2900 0 
L 1881 1375 
L 863 0 
L 184 0 
L 1544 1831 
L 300 3500 
L 978 3500 
L 1906 2253 
L 2834 3500 
L 3513 3500 
z
" id="DejaVuSans-78" transform="scale(0.015625)"/>
       <path d="M 513 4856 
L 1013 4856 
Q 1481 4119 1714 3412 
Q 1947 2706 1947 2009 
Q 1947 1309 1714 600 
Q 1481 -109 1013 -844 
L 513 -844 
Q 928 -128 1133 580 
Q 1338 1288 1338 2009 
Q 1338 2731 1133 3434 
Q 928 4138 513 4856 
z
" id="DejaVuSans-29" transform="scale(0.015625)"/>
      </defs>
      <use xlink:href="#DejaVuSans-70"/>
      <use x="63.476562" xlink:href="#DejaVuSans-28"/>
      <use x="102.490234" xlink:href="#DejaVuSans-63"/>
      <use x="157.470703" xlink:href="#DejaVuSans-6f"/>
      <use x="218.652344" xlink:href="#DejaVuSans-6e"/>
      <use x="282.03125" xlink:href="#DejaVuSans-74"/>
      <use x="321.240234" xlink:href="#DejaVuSans-65"/>
      <use x="381.013672" xlink:href="#DejaVuSans-78"/>
      <use x="440.193359" xlink:href="#DejaVuSans-74"/>
      <use x="479.402344" xlink:href="#DejaVuSans-29"/>
     </g>
    </g>
   </g>
   <g id="line2d_15">
    <path clip-path="url(#ped77062cf2)" d="M 73.832727 210.569401 
L 81.949091 132.868051 
L 90.065455 276.575079 
L 98.181818 290.847676 
L 106.298182 292.905353 
L 114.414545 293.671153 
L 122.530909 200.107637 
L 130.647273 283.02355 
L 138.763636 189.811035 
L 146.88 136.723699 
L 154.996364 267.788253 
L 163.112727 181.915564 
L 171.229091 270.490276 
L 179.345455 283.886482 
L 187.461818 286.642694 
L 195.578182 287.727197 
L 203.694545 288.434271 
L 211.810909 265.628146 
L 219.927273 176.176903 
L 228.043636 270.459324 
L 236.16 255.073008 
L 244.276364 170.573758 
L 252.392727 135.727482 
L 260.509091 123.033909 
L 268.625455 116.347765 
L 276.741818 111.354963 
L 284.858182 107.064098 
L 292.974545 103.235476 
L 301.090909 99.788703 
L 309.207273 253.140599 
L 317.323636 154.400966 
L 325.44 117.057837 
L 333.556364 106.226639 
L 341.672727 102.027509 
L 349.789091 248.069647 
L 357.905455 153.330469 
L 366.021818 255.505286 
L 374.138182 276.269331 
L 382.254545 176.078567 
L 390.370909 257.58345 
" style="fill:none;stroke:#add8e6;stroke-linecap:square;stroke-opacity:0.3;stroke-width:1.5;"/>
   </g>
   <g id="line2d_16">
    <path clip-path="url(#ped77062cf2)" d="M 73.832727 210.569401 
L 81.949091 132.868051 
L 90.065455 276.575079 
L 98.181818 290.847676 
L 106.298182 292.905353 
L 114.414545 293.671153 
L 122.530909 294.115393 
L 130.647273 294.420372 
L 138.763636 294.646897 
L 146.88 281.995684 
L 154.996364 166.318391 
L 163.112727 280.08096 
L 171.229091 292.291788 
L 179.345455 277.852893 
L 187.461818 292.649881 
L 195.578182 279.001679 
L 203.694545 292.872485 
L 211.810909 279.685616 
L 219.927273 293.031145 
L 228.043636 280.260854 
L 236.16 273.306382 
L 244.276364 163.226033 
L 252.392727 278.760812 
L 260.509091 269.499288 
L 268.625455 159.031462 
L 276.741818 111.621016 
L 284.858182 97.00647 
L 292.974545 89.914014 
L 301.090909 84.922061 
L 309.207273 258.164199 
L 317.323636 146.162616 
L 325.44 101.178755 
L 333.556364 89.790244 
L 341.672727 85.46479 
L 349.789091 82.618518 
L 357.905455 80.257795 
L 366.021818 78.185751 
L 374.138182 76.340811 
L 382.254545 249.702753 
L 390.370909 133.354541 
" style="fill:none;stroke:#add8e6;stroke-linecap:square;stroke-opacity:0.3;stroke-width:1.5;"/>
   </g>
   <g id="line2d_17">
    <path clip-path="url(#ped77062cf2)" d="M 73.832727 210.569401 
L 81.949091 289.943136 
L 90.065455 196.340187 
L 98.181818 285.978739 
L 106.298182 197.356131 
L 114.414545 282.752701 
L 122.530909 290.37414 
L 130.647273 208.174763 
L 138.763636 161.291231 
L 146.88 274.284743 
L 154.996364 198.437192 
L 163.112727 274.992013 
L 171.229091 284.231341 
L 179.345455 208.962422 
L 187.461818 175.300933 
L 195.578182 268.281053 
L 203.694545 280.194037 
L 211.810909 209.316194 
L 219.927273 270.589102 
L 228.043636 278.866279 
L 236.16 253.357425 
L 244.276364 195.788386 
L 252.392727 175.554189 
L 260.509091 264.567548 
L 268.625455 202.999988 
L 276.741818 265.581078 
L 284.858182 206.668548 
L 292.974545 263.836942 
L 301.090909 208.992876 
L 309.207273 192.905266 
L 317.323636 188.135187 
L 325.44 186.177896 
L 333.556364 184.899369 
L 341.672727 183.802054 
L 349.789091 182.773526 
L 357.905455 181.788345 
L 366.021818 180.840184 
L 374.138182 179.926811 
L 382.254545 179.046846 
L 390.370909 258.617953 
" style="fill:none;stroke:#add8e6;stroke-linecap:square;stroke-opacity:0.3;stroke-width:1.5;"/>
   </g>
   <g id="line2d_18">
    <path clip-path="url(#ped77062cf2)" d="M 73.832727 210.569401 
L 81.949091 289.943136 
L 90.065455 294.244154 
L 98.181818 294.89831 
L 106.298182 295.189194 
L 114.414545 295.365974 
L 122.530909 217.610267 
L 130.647273 290.264777 
L 138.763636 294.436172 
L 146.88 281.46885 
L 154.996364 294.256221 
L 163.112727 282.19936 
L 171.229091 294.378984 
L 179.345455 282.901039 
L 187.461818 189.685968 
L 195.578182 287.40153 
L 203.694545 293.898542 
L 211.810909 281.142065 
L 219.927273 275.13044 
L 228.043636 293.43325 
L 236.16 281.085912 
L 244.276364 275.534407 
L 252.392727 177.008611 
L 260.509091 123.146513 
L 268.625455 277.72347 
L 276.741818 187.864877 
L 284.858182 135.343145 
L 292.974545 115.761041 
L 301.090909 106.641222 
L 309.207273 100.582182 
L 317.323636 95.749242 
L 325.44 91.658517 
L 333.556364 88.130875 
L 341.672727 85.062932 
L 349.789091 82.378132 
L 357.905455 80.015172 
L 366.021818 77.924005 
L 374.138182 76.063548 
L 382.254545 74.399959 
L 390.370909 72.905252 
" style="fill:none;stroke:#add8e6;stroke-linecap:square;stroke-opacity:0.3;stroke-width:1.5;"/>
   </g>
   <g id="line2d_19">
    <path clip-path="url(#ped77062cf2)" d="M 73.832727 210.569401 
L 81.949091 289.943136 
L 90.065455 294.244154 
L 98.181818 207.740957 
L 106.298182 288.066829 
L 114.414545 293.303426 
L 122.530909 294.0703 
L 130.647273 213.86551 
L 138.763636 287.360524 
L 146.88 292.764011 
L 154.996364 214.882319 
L 163.112727 158.510772 
L 171.229091 278.159606 
L 179.345455 289.766821 
L 187.461818 291.306554 
L 195.578182 291.841063 
L 203.694545 272.943638 
L 211.810909 290.521479 
L 219.927273 272.88222 
L 228.043636 290.6883 
L 236.16 273.583356 
L 244.276364 192.588424 
L 252.392727 282.090826 
L 260.509091 268.313831 
L 268.625455 263.646081 
L 276.741818 184.5188 
L 284.858182 146.472079 
L 292.974545 130.933554 
L 301.090909 122.420921 
L 309.207273 116.118718 
L 317.323636 268.610167 
L 325.44 287.108582 
L 333.556364 263.361417 
L 341.672727 286.943268 
L 349.789091 263.888277 
L 357.905455 175.178706 
L 366.021818 134.065228 
L 374.138182 119.81742 
L 382.254545 113.507994 
L 390.370909 109.351395 
" style="fill:none;stroke:#add8e6;stroke-linecap:square;stroke-opacity:0.3;stroke-width:1.5;"/>
   </g>
   <g id="line2d_20">
    <path clip-path="url(#ped77062cf2)" d="M 73.832727 210.569401 
L 81.949091 289.943136 
L 90.065455 294.244154 
L 98.181818 294.89831 
L 106.298182 212.805653 
L 114.414545 289.143395 
L 122.530909 293.826852 
L 130.647273 213.529103 
L 138.763636 150.930618 
L 146.88 279.277789 
L 154.996364 290.947795 
L 163.112727 292.422859 
L 171.229091 292.931524 
L 179.345455 293.259693 
L 187.461818 276.267934 
L 195.578182 292.192103 
L 203.694545 276.196434 
L 211.810909 292.318447 
L 219.927273 276.883127 
L 228.043636 292.491576 
L 236.16 277.544267 
L 244.276364 190.052512 
L 252.392727 137.561584 
L 260.509091 116.447897 
L 268.625455 105.9482 
L 276.741818 98.878298 
L 284.858182 93.326465 
L 292.974545 88.728316 
L 301.090909 84.846158 
L 309.207273 266.613051 
L 317.323636 163.670435 
L 325.44 110.586948 
L 333.556364 94.267736 
L 341.672727 260.244432 
L 349.789091 164.737096 
L 357.905455 116.577332 
L 366.021818 100.893147 
L 374.138182 95.414695 
L 382.254545 92.619402 
L 390.370909 254.03686 
" style="fill:none;stroke:#add8e6;stroke-linecap:square;stroke-opacity:0.3;stroke-width:1.5;"/>
   </g>
   <g id="line2d_21">
    <path clip-path="url(#ped77062cf2)" d="M 73.832727 210.569401 
L 81.949091 289.943136 
L 90.065455 294.244154 
L 98.181818 207.740957 
L 106.298182 288.066829 
L 114.414545 293.303426 
L 122.530909 294.0703 
L 130.647273 294.42087 
L 138.763636 294.657234 
L 146.88 294.83638 
L 154.996364 282.31949 
L 163.112727 294.291465 
L 171.229091 282.432025 
L 179.345455 294.371342 
L 187.461818 283.049921 
L 195.578182 294.471388 
L 203.694545 283.622003 
L 211.810909 294.559629 
L 219.927273 284.125994 
L 228.043636 278.996209 
L 236.16 276.679452 
L 244.276364 188.134253 
L 252.392727 131.271026 
L 260.509091 107.680368 
L 268.625455 95.90538 
L 276.741818 88.299172 
L 284.858182 82.665312 
L 292.974545 78.247417 
L 301.090909 270.247509 
L 309.207273 166.112649 
L 317.323636 106.008061 
L 325.44 87.939129 
L 333.556364 82.02935 
L 341.672727 261.387867 
L 349.789091 162.486397 
L 357.905455 108.647396 
L 366.021818 91.795071 
L 374.138182 86.338701 
L 382.254545 83.710669 
L 390.370909 81.831467 
" style="fill:none;stroke:#add8e6;stroke-linecap:square;stroke-opacity:0.3;stroke-width:1.5;"/>
   </g>
   <g id="line2d_22">
    <path clip-path="url(#ped77062cf2)" d="M 73.832727 210.569401 
L 81.949091 289.943136 
L 90.065455 294.244154 
L 98.181818 294.89831 
L 106.298182 295.189194 
L 114.414545 295.365974 
L 122.530909 295.488 
L 130.647273 286.051106 
L 138.763636 295.187597 
L 146.88 286.232728 
L 154.996364 295.236044 
L 163.112727 286.768788 
L 171.229091 295.295165 
L 179.345455 287.25332 
L 187.461818 188.624786 
L 195.578182 289.015697 
L 203.694545 294.816459 
L 211.810909 285.344195 
L 219.927273 280.19811 
L 228.043636 294.616616 
L 236.16 285.407817 
L 244.276364 280.534569 
L 252.392727 171.969446 
L 260.509091 113.001781 
L 268.625455 93.2247 
L 276.741818 84.029215 
L 284.858182 78.181248 
L 292.974545 73.877946 
L 301.090909 70.518165 
L 309.207273 67.813957 
L 317.323636 65.591283 
L 325.44 63.733493 
L 333.556364 62.158552 
L 341.672727 266.16975 
L 349.789091 131.137389 
L 357.905455 76.96869 
L 366.021818 66.880767 
L 374.138182 255.855501 
L 382.254545 131.323105 
L 390.370909 80.817717 
" style="fill:none;stroke:#add8e6;stroke-linecap:square;stroke-opacity:0.3;stroke-width:1.5;"/>
   </g>
   <g id="line2d_23">
    <path clip-path="url(#ped77062cf2)" d="M 73.832727 210.569401 
L 81.949091 132.868051 
L 90.065455 104.078381 
L 98.181818 269.808143 
L 106.298182 289.548694 
L 114.414545 292.341178 
L 122.530909 293.292477 
L 130.647273 293.822856 
L 138.763636 195.43831 
L 146.88 281.385974 
L 154.996364 291.201306 
L 163.112727 196.233368 
L 171.229091 131.032978 
L 179.345455 107.703333 
L 187.461818 259.145827 
L 195.578182 284.831494 
L 203.694545 190.404337 
L 211.810909 271.223927 
L 219.927273 183.123948 
L 228.043636 138.412351 
L 236.16 192.884942 
L 244.276364 144.100619 
L 252.392727 126.488137 
L 260.509091 119.328151 
L 268.625455 115.096746 
L 276.741818 111.764742 
L 284.858182 108.823688 
L 292.974545 106.140349 
L 301.090909 245.570857 
L 309.207273 274.319317 
L 317.323636 174.143216 
L 325.44 130.261427 
L 333.556364 116.423913 
L 341.672727 111.502745 
L 349.789091 241.742276 
L 357.905455 156.868831 
L 366.021818 126.997577 
L 374.138182 117.833741 
L 382.254545 114.385437 
L 390.370909 112.418854 
" style="fill:none;stroke:#add8e6;stroke-linecap:square;stroke-opacity:0.3;stroke-width:1.5;"/>
   </g>
   <g id="line2d_24">
    <path clip-path="url(#ped77062cf2)" d="M 73.832727 210.569401 
L 81.949091 132.868051 
L 90.065455 276.575079 
L 98.181818 290.847676 
L 106.298182 292.905353 
L 114.414545 293.671153 
L 122.530909 294.115393 
L 130.647273 294.420372 
L 138.763636 294.646897 
L 146.88 281.995684 
L 154.996364 293.932034 
L 163.112727 281.908653 
L 171.229091 294.011514 
L 179.345455 282.523826 
L 187.461818 294.131397 
L 195.578182 283.115609 
L 203.694545 172.477306 
L 211.810909 111.681134 
L 219.927273 92.172827 
L 228.043636 267.279297 
L 236.16 260.114125 
L 244.276364 146.586183 
L 252.392727 101.821247 
L 260.509091 89.579922 
L 268.625455 256.383707 
L 276.741818 148.433929 
L 284.858182 104.68179 
L 292.974545 93.220822 
L 301.090909 248.099299 
L 309.207273 148.268689 
L 317.323636 108.093364 
L 325.44 245.011132 
L 333.556364 153.760848 
L 341.672727 254.496289 
L 349.789091 167.295663 
L 357.905455 254.970697 
L 366.021818 173.520765 
L 374.138182 133.040595 
L 382.254545 239.732833 
L 390.370909 168.930139 
" style="fill:none;stroke:#add8e6;stroke-linecap:square;stroke-opacity:0.3;stroke-width:1.5;"/>
   </g>
   <g id="line2d_25">
    <path clip-path="url(#ped77062cf2)" d="M 73.832727 210.569401 
L 81.949091 275.676089 
L 90.065455 124.370533 
L 98.181818 82.745334 
L 106.298182 69.981316 
L 114.414545 64.654496 
L 122.530909 211.786381 
L 130.647273 104.595101 
L 138.763636 222.054883 
L 146.88 261.172414 
L 154.996364 129.697289 
L 163.112727 224.407966 
L 171.229091 124.153404 
L 179.345455 96.10265 
L 187.461818 87.718021 
L 195.578182 84.111984 
L 203.694545 81.762353 
L 211.810909 120.042264 
L 219.927273 230.645303 
L 228.043636 119.701071 
L 236.16 136.495206 
L 244.276364 234.5971 
L 252.392727 259.849629 
L 260.509091 266.963257 
L 268.625455 270.340432 
L 276.741818 272.763985 
L 284.858182 274.785166 
L 292.974545 276.538237 
L 301.090909 278.074817 
L 309.207273 144.162824 
L 317.323636 241.94379 
L 325.44 267.655147 
L 333.556364 273.929436 
L 341.672727 276.095155 
L 349.789091 149.229273 
L 357.905455 240.73119 
L 366.021818 136.582892 
L 374.138182 102.321544 
L 382.254545 219.801687 
L 390.370909 132.310433 
" style="fill:none;stroke:#ff0000;stroke-linecap:square;stroke-opacity:0.1;stroke-width:1.5;"/>
   </g>
   <g id="line2d_26">
    <path clip-path="url(#ped77062cf2)" d="M 73.832727 210.569401 
L 81.949091 275.676089 
L 90.065455 124.370533 
L 98.181818 82.745334 
L 106.298182 69.981316 
L 114.414545 64.654496 
L 122.530909 61.588235 
L 130.647273 59.41262 
L 138.763636 57.712542 
L 146.88 87.544543 
L 154.996364 257.832336 
L 163.112727 109.839774 
L 171.229091 70.519573 
L 179.345455 97.439449 
L 187.461818 66.697862 
L 195.578182 94.782465 
L 203.694545 65.593628 
L 211.810909 93.400083 
L 219.927273 64.795627 
L 228.043636 92.211833 
L 236.16 104.205816 
L 244.276364 254.464024 
L 252.392727 104.721027 
L 260.509091 111.761095 
L 268.625455 257.002623 
L 276.741818 282.768743 
L 284.858182 287.105747 
L 292.974545 288.842984 
L 301.090909 289.99095 
L 309.207273 133.631498 
L 317.323636 257.715195 
L 325.44 283.069599 
L 333.556364 287.341848 
L 341.672727 288.635528 
L 349.789091 289.410401 
L 357.905455 290.022095 
L 366.021818 290.538537 
L 374.138182 290.982684 
L 382.254545 146.541521 
L 390.370909 260.291486 
" style="fill:none;stroke:#ff0000;stroke-linecap:square;stroke-opacity:0.1;stroke-width:1.5;"/>
   </g>
   <g id="line2d_27">
    <path clip-path="url(#ped77062cf2)" d="M 73.832727 210.569401 
L 81.949091 96.02853 
L 90.065455 222.903648 
L 98.181818 107.662623 
L 106.298182 218.677049 
L 114.414545 113.962213 
L 122.530909 90.417409 
L 130.647273 202.119444 
L 138.763636 240.643903 
L 146.88 125.044811 
L 154.996364 209.000337 
L 163.112727 124.071852 
L 171.229091 105.247292 
L 179.345455 196.518055 
L 187.461818 224.630038 
L 195.578182 132.422145 
L 203.694545 112.788542 
L 211.810909 194.388784 
L 219.927273 128.812644 
L 228.043636 114.988251 
L 236.16 146.847913 
L 244.276364 207.465104 
L 252.392727 223.211274 
L 260.509091 135.351133 
L 268.625455 199.933671 
L 276.741818 134.133864 
L 284.858182 195.791248 
L 292.974545 136.306987 
L 301.090909 193.007712 
L 309.207273 206.460052 
L 317.323636 209.947388 
L 325.44 211.209674 
L 333.556364 211.964961 
L 341.672727 212.592927 
L 349.789091 213.17737 
L 357.905455 213.736878 
L 366.021818 214.275814 
L 374.138182 214.795501 
L 382.254545 215.296642 
L 390.370909 144.42588 
" style="fill:none;stroke:#ff0000;stroke-linecap:square;stroke-opacity:0.1;stroke-width:1.5;"/>
   </g>
   <g id="line2d_28">
    <path clip-path="url(#ped77062cf2)" d="M 73.832727 210.569401 
L 81.949091 96.02853 
L 90.065455 69.780984 
L 98.181818 61.251564 
L 106.298182 57.461698 
L 114.414545 55.194424 
L 122.530909 195.65528 
L 130.647273 87.99117 
L 138.763636 66.124734 
L 146.88 92.56889 
L 154.996364 65.27564 
L 163.112727 91.150015 
L 171.229091 64.410457 
L 179.345455 89.807008 
L 187.461818 228.389534 
L 195.578182 92.46408 
L 203.694545 66.967757 
L 211.810909 93.128856 
L 219.927273 103.73679 
L 228.043636 67.653223 
L 236.16 93.217343 
L 244.276364 102.916853 
L 252.392727 238.138288 
L 260.509091 272.0832 
L 268.625455 105.241705 
L 276.741818 222.457815 
L 284.858182 260.633476 
L 292.974545 271.185852 
L 301.090909 275.479981 
L 309.207273 278.166719 
L 317.323636 280.220922 
L 325.44 281.896137 
L 333.556364 283.292687 
L 341.672727 284.470095 
L 349.789091 285.471362 
L 357.905455 286.32957 
L 366.021818 287.070659 
L 374.138182 287.715143 
L 382.254545 288.279353 
L 390.370909 288.776375 
" style="fill:none;stroke:#ff0000;stroke-linecap:square;stroke-opacity:0.1;stroke-width:1.5;"/>
   </g>
   <g id="line2d_29">
    <path clip-path="url(#ped77062cf2)" d="M 73.832727 210.569401 
L 81.949091 96.02853 
L 90.065455 69.780984 
L 98.181818 204.458491 
L 106.298182 98.398572 
L 114.414545 76.154571 
L 122.530909 69.093085 
L 130.647273 195.711511 
L 138.763636 98.002272 
L 146.88 78.34484 
L 154.996364 192.016057 
L 163.112727 239.217489 
L 171.229091 113.546932 
L 179.345455 87.369166 
L 187.461818 80.701046 
L 195.578182 77.965803 
L 203.694545 111.614365 
L 211.810909 82.558589 
L 219.927273 112.224024 
L 228.043636 81.984447 
L 236.16 111.136323 
L 244.276364 213.527756 
L 252.392727 102.217225 
L 260.509091 119.495806 
L 268.625455 125.308148 
L 276.741818 219.864278 
L 284.858182 247.443305 
L 292.974545 256.554363 
L 301.090909 261.25105 
L 309.207273 264.652796 
L 317.323636 121.002793 
L 325.44 87.198396 
L 333.556364 122.291438 
L 341.672727 86.816688 
L 349.789091 121.443602 
L 357.905455 224.191707 
L 366.021818 253.900913 
L 374.138182 262.534163 
L 382.254545 266.072248 
L 390.370909 268.307231 
" style="fill:none;stroke:#ff0000;stroke-linecap:square;stroke-opacity:0.1;stroke-width:1.5;"/>
   </g>
   <g id="line2d_30">
    <path clip-path="url(#ped77062cf2)" d="M 73.832727 210.569401 
L 81.949091 96.02853 
L 90.065455 69.780984 
L 98.181818 61.251564 
L 106.298182 198.116817 
L 114.414545 93.352822 
L 122.530909 71.868617 
L 130.647273 195.550625 
L 138.763636 248.860706 
L 146.88 112.360103 
L 154.996364 82.580347 
L 163.112727 74.713682 
L 171.229091 71.542154 
L 179.345455 69.555725 
L 187.461818 103.077797 
L 195.578182 74.248984 
L 203.694545 103.839779 
L 211.810909 73.721648 
L 219.927273 102.684877 
L 228.043636 72.902437 
L 236.16 101.490454 
L 244.276364 220.095429 
L 252.392727 257.791094 
L 260.509091 268.81823 
L 268.625455 273.759363 
L 276.741818 276.971344 
L 284.858182 279.4107 
L 292.974545 281.362863 
L 301.090909 282.95839 
L 309.207273 123.842197 
L 317.323636 232.2954 
L 325.44 268.202484 
L 333.556364 277.391243 
L 341.672727 129.832418 
L 349.789091 228.28196 
L 357.905455 262.890201 
L 366.021818 272.725362 
L 374.138182 275.868733 
L 382.254545 277.343338 
L 390.370909 136.709647 
" style="fill:none;stroke:#ff0000;stroke-linecap:square;stroke-opacity:0.1;stroke-width:1.5;"/>
   </g>
   <g id="line2d_31">
    <path clip-path="url(#ped77062cf2)" d="M 73.832727 210.569401 
L 81.949091 96.02853 
L 90.065455 69.780984 
L 98.181818 204.458491 
L 106.298182 98.398572 
L 114.414545 76.154571 
L 122.530909 69.093085 
L 130.647273 65.736683 
L 138.763636 63.516634 
L 146.88 61.778875 
L 154.996364 92.146209 
L 163.112727 65.769424 
L 171.229091 92.723792 
L 179.345455 65.231906 
L 187.461818 91.479741 
L 195.578182 64.433143 
L 203.694545 90.215734 
L 211.810909 63.691687 
L 219.927273 89.053257 
L 228.043636 98.700647 
L 236.16 102.447376 
L 244.276364 228.455105 
L 252.392727 265.683167 
L 260.509091 275.941166 
L 268.625455 280.542333 
L 276.741818 283.413616 
L 284.858182 285.451863 
L 292.974545 286.979474 
L 301.090909 116.248113 
L 309.207273 233.792915 
L 317.323636 272.707038 
L 325.44 281.847311 
L 333.556364 284.45115 
L 341.672727 126.690458 
L 349.789091 231.536928 
L 357.905455 268.782554 
L 366.021818 278.632167 
L 374.138182 281.49581 
L 382.254545 282.743239 
L 390.370909 283.579259 
" style="fill:none;stroke:#ff0000;stroke-linecap:square;stroke-opacity:0.1;stroke-width:1.5;"/>
   </g>
   <g id="line2d_32">
    <path clip-path="url(#ped77062cf2)" d="M 73.832727 210.569401 
L 81.949091 96.02853 
L 90.065455 69.780984 
L 98.181818 61.251564 
L 106.298182 57.461698 
L 114.414545 55.194424 
L 122.530909 53.568 
L 130.647273 78.991314 
L 138.763636 56.819862 
L 146.88 79.614816 
L 154.996364 56.459362 
L 163.112727 78.515401 
L 171.229091 55.83476 
L 179.345455 77.371504 
L 187.461818 242.366904 
L 195.578182 89.499567 
L 203.694545 60.056447 
L 211.810909 81.952018 
L 219.927273 91.932851 
L 228.043636 59.31315 
L 236.16 81.568393 
L 244.276364 91.090231 
L 252.392727 253.226093 
L 260.509091 284.331426 
L 268.625455 289.02015 
L 276.741818 290.791669 
L 284.858182 291.862547 
L 292.974545 292.601723 
L 301.090909 293.142124 
L 309.207273 293.551803 
L 317.323636 293.871049 
L 325.44 294.1255 
L 333.556364 294.332208 
L 341.672727 126.868982 
L 349.789091 265.187488 
L 357.905455 290.138747 
L 366.021818 292.926682 
L 374.138182 136.652353 
L 382.254545 260.368185 
L 390.370909 287.497979 
" style="fill:none;stroke:#ff0000;stroke-linecap:square;stroke-opacity:0.1;stroke-width:1.5;"/>
   </g>
   <g id="line2d_33">
    <path clip-path="url(#ped77062cf2)" d="M 73.832727 210.569401 
L 81.949091 275.676089 
L 90.065455 285.549743 
L 98.181818 130.123519 
L 106.298182 82.918899 
L 114.414545 69.016179 
L 122.530909 63.434402 
L 130.647273 60.282272 
L 138.763636 213.91987 
L 146.88 103.139313 
L 154.996364 73.975854 
L 163.112727 210.189884 
L 171.229091 263.080613 
L 179.345455 275.823418 
L 187.461818 137.154272 
L 195.578182 88.96474 
L 203.694545 209.93758 
L 211.810909 115.750116 
L 219.927273 215.44713 
L 228.043636 251.678791 
L 236.16 202.4573 
L 244.276364 246.840794 
L 252.392727 259.846018 
L 260.509091 264.400347 
L 268.625455 266.835241 
L 276.741818 268.658903 
L 284.858182 270.227566 
L 292.974545 271.633398 
L 301.090909 151.982067 
L 309.207273 105.786037 
L 317.323636 216.247119 
L 325.44 253.13312 
L 333.556364 263.398129 
L 341.672727 266.676722 
L 349.789091 154.8924 
L 357.905455 231.258434 
L 366.021818 254.999001 
L 374.138182 261.793261 
L 382.254545 264.134952 
L 390.370909 265.349617 
" style="fill:none;stroke:#ff0000;stroke-linecap:square;stroke-opacity:0.1;stroke-width:1.5;"/>
   </g>
   <g id="line2d_34">
    <path clip-path="url(#ped77062cf2)" d="M 73.832727 210.569401 
L 81.949091 275.676089 
L 90.065455 124.370533 
L 98.181818 82.745334 
L 106.298182 69.981316 
L 114.414545 64.654496 
L 122.530909 61.588235 
L 130.647273 59.41262 
L 138.763636 57.712542 
L 146.88 87.544543 
L 154.996364 61.889018 
L 163.112727 88.492258 
L 171.229091 61.470892 
L 179.345455 87.310736 
L 187.461818 60.721275 
L 195.578182 86.053101 
L 203.694545 253.45039 
L 211.810909 285.555676 
L 219.927273 289.838237 
L 228.043636 120.759459 
L 236.16 121.966701 
L 244.276364 263.168322 
L 252.392727 286.543577 
L 260.509091 289.787976 
L 268.625455 134.434631 
L 276.741818 257.587229 
L 284.858182 283.265899 
L 292.974545 287.532525 
L 301.090909 143.98353 
L 309.207273 253.555066 
L 317.323636 279.851902 
L 325.44 145.532413 
L 333.556364 246.506757 
L 341.672727 129.064627 
L 349.789091 232.494445 
L 357.905455 127.010532 
L 366.021818 224.660141 
L 374.138182 259.142498 
L 382.254545 148.149471 
L 390.370909 227.236718 
" style="fill:none;stroke:#ff0000;stroke-linecap:square;stroke-opacity:0.1;stroke-width:1.5;"/>
   </g>
   <g id="line2d_35">
    <path clip-path="url(#ped77062cf2)" d="M 73.832727 210.569401 
L 81.949091 227.113102 
L 90.065455 260.136458 
L 98.181818 272.850675 
L 106.298182 274.493858 
L 114.414545 292.258953 
L 122.530909 276.707076 
L 130.647273 267.199328 
L 138.763636 245.840652 
L 146.88 269.096554 
L 154.996364 259.531905 
L 163.112727 252.93238 
L 171.229091 271.52552 
L 179.345455 260.848117 
L 187.461818 253.68059 
L 195.578182 285.787881 
L 203.694545 264.585951 
L 211.810909 258.142083 
L 219.927273 240.431382 
L 228.043636 268.550406 
L 236.16 262.903669 
L 244.276364 194.711914 
L 252.392727 171.825336 
L 260.509091 159.459921 
L 268.625455 168.63075 
L 276.741818 139.234609 
L 284.858182 116.023284 
L 292.974545 114.389588 
L 301.090909 154.204777 
L 309.207273 184.403863 
L 317.323636 147.056454 
L 325.44 142.071372 
L 333.556364 124.104894 
L 341.672727 189.710163 
L 349.789091 172.712692 
L 357.905455 138.460343 
L 366.021818 128.660778 
L 374.138182 141.690115 
L 382.254545 145.450756 
L 390.370909 152.984763 
" style="fill:none;stroke:#1f77b4;stroke-linecap:square;stroke-width:1.5;"/>
   </g>
   <g id="line2d_36">
    <path clip-path="url(#ped77062cf2)" d="M 73.832727 210.569401 
L 81.949091 167.887554 
L 90.065455 123.046991 
L 98.181818 107.869382 
L 106.298182 102.137725 
L 114.414545 73.299269 
L 122.530909 94.809273 
L 130.647273 110.980336 
L 138.763636 132.536795 
L 146.88 108.911315 
L 154.996364 122.087245 
L 163.112727 130.636774 
L 171.229091 102.252987 
L 179.345455 114.252962 
L 187.461818 132.293649 
L 195.578182 88.494601 
L 203.694545 115.622658 
L 211.810909 120.418972 
L 219.927273 142.917074 
L 228.043636 107.989331 
L 236.16 120.183282 
L 244.276364 206.262072 
L 252.392727 225.122739 
L 260.509091 228.893363 
L 268.625455 220.24183 
L 276.741818 250.941145 
L 284.858182 267.597752 
L 292.974545 264.95384 
L 301.090909 228.611873 
L 309.207273 203.760191 
L 317.323636 240.58026 
L 325.44 237.386978 
L 333.556364 254.489986 
L 341.672727 192.77436 
L 349.789091 217.112523 
L 357.905455 243.509191 
L 366.021818 250.631217 
L 374.138182 237.330169 
L 382.254545 236.873063 
L 390.370909 229.448463 
" style="fill:none;stroke:#ff0000;stroke-linecap:square;stroke-width:1.5;"/>
   </g>
   <g id="patch_5">
    <path d="M 57.6 307.584 
L 57.6 41.472 
" style="fill:none;stroke:#000000;stroke-linecap:square;stroke-linejoin:miter;stroke-width:0.8;"/>
   </g>
   <g id="patch_6">
    <path d="M 414.72 307.584 
L 414.72 41.472 
" style="fill:none;stroke:#000000;stroke-linecap:square;stroke-linejoin:miter;stroke-width:0.8;"/>
   </g>
   <g id="patch_7">
    <path d="M 57.6 307.584 
L 414.72 307.584 
" style="fill:none;stroke:#000000;stroke-linecap:square;stroke-linejoin:miter;stroke-width:0.8;"/>
   </g>
   <g id="patch_8">
    <path d="M 57.6 41.472 
L 414.72 41.472 
" style="fill:none;stroke:#000000;stroke-linecap:square;stroke-linejoin:miter;stroke-width:0.8;"/>
   </g>
   <g id="text_17">
    <!-- biased_B -->
    <g transform="translate(209.264062 35.472)scale(0.12 -0.12)">
     <defs>
      <path d="M 3116 1747 
Q 3116 2381 2855 2742 
Q 2594 3103 2138 3103 
Q 1681 3103 1420 2742 
Q 1159 2381 1159 1747 
Q 1159 1113 1420 752 
Q 1681 391 2138 391 
Q 2594 391 2855 752 
Q 3116 1113 3116 1747 
z
M 1159 2969 
Q 1341 3281 1617 3432 
Q 1894 3584 2278 3584 
Q 2916 3584 3314 3078 
Q 3713 2572 3713 1747 
Q 3713 922 3314 415 
Q 2916 -91 2278 -91 
Q 1894 -91 1617 61 
Q 1341 213 1159 525 
L 1159 0 
L 581 0 
L 581 4863 
L 1159 4863 
L 1159 2969 
z
" id="DejaVuSans-62" transform="scale(0.015625)"/>
      <path d="M 603 3500 
L 1178 3500 
L 1178 0 
L 603 0 
L 603 3500 
z
M 603 4863 
L 1178 4863 
L 1178 4134 
L 603 4134 
L 603 4863 
z
" id="DejaVuSans-69" transform="scale(0.015625)"/>
      <path d="M 2194 1759 
Q 1497 1759 1228 1600 
Q 959 1441 959 1056 
Q 959 750 1161 570 
Q 1363 391 1709 391 
Q 2188 391 2477 730 
Q 2766 1069 2766 1631 
L 2766 1759 
L 2194 1759 
z
M 3341 1997 
L 3341 0 
L 2766 0 
L 2766 531 
Q 2569 213 2275 61 
Q 1981 -91 1556 -91 
Q 1019 -91 701 211 
Q 384 513 384 1019 
Q 384 1609 779 1909 
Q 1175 2209 1959 2209 
L 2766 2209 
L 2766 2266 
Q 2766 2663 2505 2880 
Q 2244 3097 1772 3097 
Q 1472 3097 1187 3025 
Q 903 2953 641 2809 
L 641 3341 
Q 956 3463 1253 3523 
Q 1550 3584 1831 3584 
Q 2591 3584 2966 3190 
Q 3341 2797 3341 1997 
z
" id="DejaVuSans-61" transform="scale(0.015625)"/>
      <path d="M 2834 3397 
L 2834 2853 
Q 2591 2978 2328 3040 
Q 2066 3103 1784 3103 
Q 1356 3103 1142 2972 
Q 928 2841 928 2578 
Q 928 2378 1081 2264 
Q 1234 2150 1697 2047 
L 1894 2003 
Q 2506 1872 2764 1633 
Q 3022 1394 3022 966 
Q 3022 478 2636 193 
Q 2250 -91 1575 -91 
Q 1294 -91 989 -36 
Q 684 19 347 128 
L 347 722 
Q 666 556 975 473 
Q 1284 391 1588 391 
Q 1994 391 2212 530 
Q 2431 669 2431 922 
Q 2431 1156 2273 1281 
Q 2116 1406 1581 1522 
L 1381 1569 
Q 847 1681 609 1914 
Q 372 2147 372 2553 
Q 372 3047 722 3315 
Q 1072 3584 1716 3584 
Q 2034 3584 2315 3537 
Q 2597 3491 2834 3397 
z
" id="DejaVuSans-73" transform="scale(0.015625)"/>
      <path d="M 2906 2969 
L 2906 4863 
L 3481 4863 
L 3481 0 
L 2906 0 
L 2906 525 
Q 2725 213 2448 61 
Q 2172 -91 1784 -91 
Q 1150 -91 751 415 
Q 353 922 353 1747 
Q 353 2572 751 3078 
Q 1150 3584 1784 3584 
Q 2172 3584 2448 3432 
Q 2725 3281 2906 2969 
z
M 947 1747 
Q 947 1113 1208 752 
Q 1469 391 1925 391 
Q 2381 391 2643 752 
Q 2906 1113 2906 1747 
Q 2906 2381 2643 2742 
Q 2381 3103 1925 3103 
Q 1469 3103 1208 2742 
Q 947 2381 947 1747 
z
" id="DejaVuSans-64" transform="scale(0.015625)"/>
      <path d="M 3263 -1063 
L 3263 -1509 
L -63 -1509 
L -63 -1063 
L 3263 -1063 
z
" id="DejaVuSans-5f" transform="scale(0.015625)"/>
      <path d="M 1259 2228 
L 1259 519 
L 2272 519 
Q 2781 519 3026 730 
Q 3272 941 3272 1375 
Q 3272 1813 3026 2020 
Q 2781 2228 2272 2228 
L 1259 2228 
z
M 1259 4147 
L 1259 2741 
L 2194 2741 
Q 2656 2741 2882 2914 
Q 3109 3088 3109 3444 
Q 3109 3797 2882 3972 
Q 2656 4147 2194 4147 
L 1259 4147 
z
M 628 4666 
L 2241 4666 
Q 2963 4666 3353 4366 
Q 3744 4066 3744 3513 
Q 3744 3084 3544 2831 
Q 3344 2578 2956 2516 
Q 3422 2416 3680 2098 
Q 3938 1781 3938 1306 
Q 3938 681 3513 340 
Q 3088 0 2303 0 
L 628 0 
L 628 4666 
z
" id="DejaVuSans-42" transform="scale(0.015625)"/>
     </defs>
     <use xlink:href="#DejaVuSans-62"/>
     <use x="63.476562" xlink:href="#DejaVuSans-69"/>
     <use x="91.259766" xlink:href="#DejaVuSans-61"/>
     <use x="152.539062" xlink:href="#DejaVuSans-73"/>
     <use x="204.638672" xlink:href="#DejaVuSans-65"/>
     <use x="266.162109" xlink:href="#DejaVuSans-64"/>
     <use x="329.638672" xlink:href="#DejaVuSans-5f"/>
     <use x="379.638672" xlink:href="#DejaVuSans-42"/>
    </g>
   </g>
   <g id="legend_1">
    <g id="patch_9">
     <path d="M 351.635625 78.82825 
L 407.72 78.82825 
Q 409.72 78.82825 409.72 76.82825 
L 409.72 48.472 
Q 409.72 46.472 407.72 46.472 
L 351.635625 46.472 
Q 349.635625 46.472 349.635625 48.472 
L 349.635625 76.82825 
Q 349.635625 78.82825 351.635625 78.82825 
z
" style="fill:#ffffff;opacity:0.8;stroke:#cccccc;stroke-linejoin:miter;"/>
    </g>
    <g id="line2d_37">
     <path d="M 353.635625 54.570437 
L 373.635625 54.570437 
" style="fill:none;stroke:#1f77b4;stroke-linecap:square;stroke-width:1.5;"/>
    </g>
    <g id="line2d_38"/>
    <g id="text_18">
     <!-- coop -->
     <g transform="translate(381.635625 58.070437)scale(0.1 -0.1)">
      <use xlink:href="#DejaVuSans-63"/>
      <use x="54.980469" xlink:href="#DejaVuSans-6f"/>
      <use x="116.162109" xlink:href="#DejaVuSans-6f"/>
      <use x="177.34375" xlink:href="#DejaVuSans-70"/>
     </g>
    </g>
    <g id="line2d_39">
     <path d="M 353.635625 69.248562 
L 373.635625 69.248562 
" style="fill:none;stroke:#ff0000;stroke-linecap:square;stroke-width:1.5;"/>
    </g>
    <g id="line2d_40"/>
    <g id="text_19">
     <!-- host -->
     <g transform="translate(381.635625 72.748562)scale(0.1 -0.1)">
      <defs>
       <path d="M 3513 2113 
L 3513 0 
L 2938 0 
L 2938 2094 
Q 2938 2591 2744 2837 
Q 2550 3084 2163 3084 
Q 1697 3084 1428 2787 
Q 1159 2491 1159 1978 
L 1159 0 
L 581 0 
L 581 4863 
L 1159 4863 
L 1159 2956 
Q 1366 3272 1645 3428 
Q 1925 3584 2291 3584 
Q 2894 3584 3203 3211 
Q 3513 2838 3513 2113 
z
" id="DejaVuSans-68" transform="scale(0.015625)"/>
      </defs>
      <use xlink:href="#DejaVuSans-68"/>
      <use x="63.378906" xlink:href="#DejaVuSans-6f"/>
      <use x="124.560547" xlink:href="#DejaVuSans-73"/>
      <use x="176.660156" xlink:href="#DejaVuSans-74"/>
     </g>
    </g>
   </g>
  </g>
 </g>
 <defs>
  <clipPath id="ped77062cf2">
   <rect height="266.112" width="357.12" x="57.6" y="41.472"/>
  </clipPath>
 </defs>
</svg>
