<?xml version="1.0" encoding="utf-8" standalone="no"?>
<!DOCTYPE svg PUBLIC "-//W3C//DTD SVG 1.1//EN"
  "http://www.w3.org/Graphics/SVG/1.1/DTD/svg11.dtd">
<svg height="345.6pt" version="1.1" viewBox="0 0 460.8 345.6" width="460.8pt" xmlns="http://www.w3.org/2000/svg" xmlns:xlink="http://www.w3.org/1999/xlink">
 <metadata>
  <rdf:RDF xmlns:cc="http://creativecommons.org/ns#" xmlns:dc="http://purl.org/dc/elements/1.1/" xmlns:rdf="http://www.w3.org/1999/02/22-rdf-syntax-ns#">
   <cc:Work>
    <dc:type rdf:resource="http://purl.org/dc/dcmitype/StillImage"/>
    <dc:date>2023-09-18T18:01:08.365250</dc:date>
    <dc:format>image/svg+xml</dc:format>
    <dc:creator>
     <cc:Agent>
      <dc:title>Matplotlib v3.4.1, https://matplotlib.org/</dc:title>
     </cc:Agent>
    </dc:creator>
   </cc:Work>
  </rdf:RDF>
 </metadata>
 <defs>
  <style type="text/css">*{stroke-linecap:butt;stroke-linejoin:round;}</style>
 </defs>
 <g id="figure_1">
  <g id="patch_1">
   <path d="M 0 345.6 
L 460.8 345.6 
L 460.8 0 
L 0 0 
z
" style="fill:#ffffff;"/>
  </g>
  <g id="axes_1">
   <g id="patch_2">
    <path d="M 57.6 307.584 
L 414.72 307.584 
L 414.72 41.472 
L 57.6 41.472 
z
" style="fill:#ffffff;"/>
   </g>
   <g id="patch_3">
    <path clip-path="url(#pdbc06bd12f)" d="M 73.832727 307.584 
L 73.832727 41.472 
L 236.16 41.472 
L 236.16 307.584 
z
" style="fill:#ff7f50;opacity:0.2;"/>
   </g>
   <g id="patch_4">
    <path clip-path="url(#pdbc06bd12f)" d="M 236.16 307.584 
L 236.16 41.472 
L 398.487273 41.472 
L 398.487273 307.584 
z
" style="fill:#add8e6;opacity:0.2;"/>
   </g>
   <g id="matplotlib.axis_1">
    <g id="xtick_1">
     <g id="line2d_1">
      <defs>
       <path d="M 0 0 
L 0 3.5 
" id="m5310714c0e" style="stroke:#000000;stroke-width:0.8;"/>
      </defs>
      <g>
       <use style="stroke:#000000;stroke-width:0.8;" x="73.832727" xlink:href="#m5310714c0e" y="307.584"/>
      </g>
     </g>
     <g id="text_1">
      <!-- 0 -->
      <g transform="translate(70.651477 322.182437)scale(0.1 -0.1)">
       <defs>
        <path d="M 2034 4250 
Q 1547 4250 1301 3770 
Q 1056 3291 1056 2328 
Q 1056 1369 1301 889 
Q 1547 409 2034 409 
Q 2525 409 2770 889 
Q 3016 1369 3016 2328 
Q 3016 3291 2770 3770 
Q 2525 4250 2034 4250 
z
M 2034 4750 
Q 2819 4750 3233 4129 
Q 3647 3509 3647 2328 
Q 3647 1150 3233 529 
Q 2819 -91 2034 -91 
Q 1250 -91 836 529 
Q 422 1150 422 2328 
Q 422 3509 836 4129 
Q 1250 4750 2034 4750 
z
" id="DejaVuSans-30" transform="scale(0.015625)"/>
       </defs>
       <use xlink:href="#DejaVuSans-30"/>
      </g>
     </g>
    </g>
    <g id="xtick_2">
     <g id="line2d_2">
      <g>
       <use style="stroke:#000000;stroke-width:0.8;" x="114.414545" xlink:href="#m5310714c0e" y="307.584"/>
      </g>
     </g>
     <g id="text_2">
      <!-- 5 -->
      <g transform="translate(111.233295 322.182437)scale(0.1 -0.1)">
       <defs>
        <path d="M 691 4666 
L 3169 4666 
L 3169 4134 
L 1269 4134 
L 1269 2991 
Q 1406 3038 1543 3061 
Q 1681 3084 1819 3084 
Q 2600 3084 3056 2656 
Q 3513 2228 3513 1497 
Q 3513 744 3044 326 
Q 2575 -91 1722 -91 
Q 1428 -91 1123 -41 
Q 819 9 494 109 
L 494 744 
Q 775 591 1075 516 
Q 1375 441 1709 441 
Q 2250 441 2565 725 
Q 2881 1009 2881 1497 
Q 2881 1984 2565 2268 
Q 2250 2553 1709 2553 
Q 1456 2553 1204 2497 
Q 953 2441 691 2322 
L 691 4666 
z
" id="DejaVuSans-35" transform="scale(0.015625)"/>
       </defs>
       <use xlink:href="#DejaVuSans-35"/>
      </g>
     </g>
    </g>
    <g id="xtick_3">
     <g id="line2d_3">
      <g>
       <use style="stroke:#000000;stroke-width:0.8;" x="154.996364" xlink:href="#m5310714c0e" y="307.584"/>
      </g>
     </g>
     <g id="text_3">
      <!-- 10 -->
      <g transform="translate(148.633864 322.182437)scale(0.1 -0.1)">
       <defs>
        <path d="M 794 531 
L 1825 531 
L 1825 4091 
L 703 3866 
L 703 4441 
L 1819 4666 
L 2450 4666 
L 2450 531 
L 3481 531 
L 3481 0 
L 794 0 
L 794 531 
z
" id="DejaVuSans-31" transform="scale(0.015625)"/>
       </defs>
       <use xlink:href="#DejaVuSans-31"/>
       <use x="63.623047" xlink:href="#DejaVuSans-30"/>
      </g>
     </g>
    </g>
    <g id="xtick_4">
     <g id="line2d_4">
      <g>
       <use style="stroke:#000000;stroke-width:0.8;" x="195.578182" xlink:href="#m5310714c0e" y="307.584"/>
      </g>
     </g>
     <g id="text_4">
      <!-- 15 -->
      <g transform="translate(189.215682 322.182437)scale(0.1 -0.1)">
       <use xlink:href="#DejaVuSans-31"/>
       <use x="63.623047" xlink:href="#DejaVuSans-35"/>
      </g>
     </g>
    </g>
    <g id="xtick_5">
     <g id="line2d_5">
      <g>
       <use style="stroke:#000000;stroke-width:0.8;" x="236.16" xlink:href="#m5310714c0e" y="307.584"/>
      </g>
     </g>
     <g id="text_5">
      <!-- 20 -->
      <g transform="translate(229.7975 322.182437)scale(0.1 -0.1)">
       <defs>
        <path d="M 1228 531 
L 3431 531 
L 3431 0 
L 469 0 
L 469 531 
Q 828 903 1448 1529 
Q 2069 2156 2228 2338 
Q 2531 2678 2651 2914 
Q 2772 3150 2772 3378 
Q 2772 3750 2511 3984 
Q 2250 4219 1831 4219 
Q 1534 4219 1204 4116 
Q 875 4013 500 3803 
L 500 4441 
Q 881 4594 1212 4672 
Q 1544 4750 1819 4750 
Q 2544 4750 2975 4387 
Q 3406 4025 3406 3419 
Q 3406 3131 3298 2873 
Q 3191 2616 2906 2266 
Q 2828 2175 2409 1742 
Q 1991 1309 1228 531 
z
" id="DejaVuSans-32" transform="scale(0.015625)"/>
       </defs>
       <use xlink:href="#DejaVuSans-32"/>
       <use x="63.623047" xlink:href="#DejaVuSans-30"/>
      </g>
     </g>
    </g>
    <g id="xtick_6">
     <g id="line2d_6">
      <g>
       <use style="stroke:#000000;stroke-width:0.8;" x="276.741818" xlink:href="#m5310714c0e" y="307.584"/>
      </g>
     </g>
     <g id="text_6">
      <!-- 25 -->
      <g transform="translate(270.379318 322.182437)scale(0.1 -0.1)">
       <use xlink:href="#DejaVuSans-32"/>
       <use x="63.623047" xlink:href="#DejaVuSans-35"/>
      </g>
     </g>
    </g>
    <g id="xtick_7">
     <g id="line2d_7">
      <g>
       <use style="stroke:#000000;stroke-width:0.8;" x="317.323636" xlink:href="#m5310714c0e" y="307.584"/>
      </g>
     </g>
     <g id="text_7">
      <!-- 30 -->
      <g transform="translate(310.961136 322.182437)scale(0.1 -0.1)">
       <defs>
        <path d="M 2597 2516 
Q 3050 2419 3304 2112 
Q 3559 1806 3559 1356 
Q 3559 666 3084 287 
Q 2609 -91 1734 -91 
Q 1441 -91 1130 -33 
Q 819 25 488 141 
L 488 750 
Q 750 597 1062 519 
Q 1375 441 1716 441 
Q 2309 441 2620 675 
Q 2931 909 2931 1356 
Q 2931 1769 2642 2001 
Q 2353 2234 1838 2234 
L 1294 2234 
L 1294 2753 
L 1863 2753 
Q 2328 2753 2575 2939 
Q 2822 3125 2822 3475 
Q 2822 3834 2567 4026 
Q 2313 4219 1838 4219 
Q 1578 4219 1281 4162 
Q 984 4106 628 3988 
L 628 4550 
Q 988 4650 1302 4700 
Q 1616 4750 1894 4750 
Q 2613 4750 3031 4423 
Q 3450 4097 3450 3541 
Q 3450 3153 3228 2886 
Q 3006 2619 2597 2516 
z
" id="DejaVuSans-33" transform="scale(0.015625)"/>
       </defs>
       <use xlink:href="#DejaVuSans-33"/>
       <use x="63.623047" xlink:href="#DejaVuSans-30"/>
      </g>
     </g>
    </g>
    <g id="xtick_8">
     <g id="line2d_8">
      <g>
       <use style="stroke:#000000;stroke-width:0.8;" x="357.905455" xlink:href="#m5310714c0e" y="307.584"/>
      </g>
     </g>
     <g id="text_8">
      <!-- 35 -->
      <g transform="translate(351.542955 322.182437)scale(0.1 -0.1)">
       <use xlink:href="#DejaVuSans-33"/>
       <use x="63.623047" xlink:href="#DejaVuSans-35"/>
      </g>
     </g>
    </g>
    <g id="xtick_9">
     <g id="line2d_9">
      <g>
       <use style="stroke:#000000;stroke-width:0.8;" x="398.487273" xlink:href="#m5310714c0e" y="307.584"/>
      </g>
     </g>
     <g id="text_9">
      <!-- 40 -->
      <g transform="translate(392.124773 322.182437)scale(0.1 -0.1)">
       <defs>
        <path d="M 2419 4116 
L 825 1625 
L 2419 1625 
L 2419 4116 
z
M 2253 4666 
L 3047 4666 
L 3047 1625 
L 3713 1625 
L 3713 1100 
L 3047 1100 
L 3047 0 
L 2419 0 
L 2419 1100 
L 313 1100 
L 313 1709 
L 2253 4666 
z
" id="DejaVuSans-34" transform="scale(0.015625)"/>
       </defs>
       <use xlink:href="#DejaVuSans-34"/>
       <use x="63.623047" xlink:href="#DejaVuSans-30"/>
      </g>
     </g>
    </g>
    <g id="text_10">
     <!-- t -->
     <g transform="translate(234.199844 335.860562)scale(0.1 -0.1)">
      <defs>
       <path d="M 1172 4494 
L 1172 3500 
L 2356 3500 
L 2356 3053 
L 1172 3053 
L 1172 1153 
Q 1172 725 1289 603 
Q 1406 481 1766 481 
L 2356 481 
L 2356 0 
L 1766 0 
Q 1100 0 847 248 
Q 594 497 594 1153 
L 594 3053 
L 172 3053 
L 172 3500 
L 594 3500 
L 594 4494 
L 1172 4494 
z
" id="DejaVuSans-74" transform="scale(0.015625)"/>
      </defs>
      <use xlink:href="#DejaVuSans-74"/>
     </g>
    </g>
   </g>
   <g id="matplotlib.axis_2">
    <g id="ytick_1">
     <g id="line2d_10">
      <defs>
       <path d="M 0 0 
L -3.5 0 
" id="m4c8e3414f1" style="stroke:#000000;stroke-width:0.8;"/>
      </defs>
      <g>
       <use style="stroke:#000000;stroke-width:0.8;" x="57.6" xlink:href="#m4c8e3414f1" y="295.488"/>
      </g>
     </g>
     <g id="text_11">
      <!-- 0.0 -->
      <g transform="translate(34.696875 299.287219)scale(0.1 -0.1)">
       <defs>
        <path d="M 684 794 
L 1344 794 
L 1344 0 
L 684 0 
L 684 794 
z
" id="DejaVuSans-2e" transform="scale(0.015625)"/>
       </defs>
       <use xlink:href="#DejaVuSans-30"/>
       <use x="63.623047" xlink:href="#DejaVuSans-2e"/>
       <use x="95.410156" xlink:href="#DejaVuSans-30"/>
      </g>
     </g>
    </g>
    <g id="ytick_2">
     <g id="line2d_11">
      <g>
       <use style="stroke:#000000;stroke-width:0.8;" x="57.6" xlink:href="#m4c8e3414f1" y="242.057356"/>
      </g>
     </g>
     <g id="text_12">
      <!-- 0.2 -->
      <g transform="translate(34.696875 245.856574)scale(0.1 -0.1)">
       <use xlink:href="#DejaVuSans-30"/>
       <use x="63.623047" xlink:href="#DejaVuSans-2e"/>
       <use x="95.410156" xlink:href="#DejaVuSans-32"/>
      </g>
     </g>
    </g>
    <g id="ytick_3">
     <g id="line2d_12">
      <g>
       <use style="stroke:#000000;stroke-width:0.8;" x="57.6" xlink:href="#m4c8e3414f1" y="188.626711"/>
      </g>
     </g>
     <g id="text_13">
      <!-- 0.4 -->
      <g transform="translate(34.696875 192.42593)scale(0.1 -0.1)">
       <use xlink:href="#DejaVuSans-30"/>
       <use x="63.623047" xlink:href="#DejaVuSans-2e"/>
       <use x="95.410156" xlink:href="#DejaVuSans-34"/>
      </g>
     </g>
    </g>
    <g id="ytick_4">
     <g id="line2d_13">
      <g>
       <use style="stroke:#000000;stroke-width:0.8;" x="57.6" xlink:href="#m4c8e3414f1" y="135.196066"/>
      </g>
     </g>
     <g id="text_14">
      <!-- 0.6 -->
      <g transform="translate(34.696875 138.995285)scale(0.1 -0.1)">
       <defs>
        <path d="M 2113 2584 
Q 1688 2584 1439 2293 
Q 1191 2003 1191 1497 
Q 1191 994 1439 701 
Q 1688 409 2113 409 
Q 2538 409 2786 701 
Q 3034 994 3034 1497 
Q 3034 2003 2786 2293 
Q 2538 2584 2113 2584 
z
M 3366 4563 
L 3366 3988 
Q 3128 4100 2886 4159 
Q 2644 4219 2406 4219 
Q 1781 4219 1451 3797 
Q 1122 3375 1075 2522 
Q 1259 2794 1537 2939 
Q 1816 3084 2150 3084 
Q 2853 3084 3261 2657 
Q 3669 2231 3669 1497 
Q 3669 778 3244 343 
Q 2819 -91 2113 -91 
Q 1303 -91 875 529 
Q 447 1150 447 2328 
Q 447 3434 972 4092 
Q 1497 4750 2381 4750 
Q 2619 4750 2861 4703 
Q 3103 4656 3366 4563 
z
" id="DejaVuSans-36" transform="scale(0.015625)"/>
       </defs>
       <use xlink:href="#DejaVuSans-30"/>
       <use x="63.623047" xlink:href="#DejaVuSans-2e"/>
       <use x="95.410156" xlink:href="#DejaVuSans-36"/>
      </g>
     </g>
    </g>
    <g id="ytick_5">
     <g id="line2d_14">
      <g>
       <use style="stroke:#000000;stroke-width:0.8;" x="57.6" xlink:href="#m4c8e3414f1" y="81.765422"/>
      </g>
     </g>
     <g id="text_15">
      <!-- 0.8 -->
      <g transform="translate(34.696875 85.564641)scale(0.1 -0.1)">
       <defs>
        <path d="M 2034 2216 
Q 1584 2216 1326 1975 
Q 1069 1734 1069 1313 
Q 1069 891 1326 650 
Q 1584 409 2034 409 
Q 2484 409 2743 651 
Q 3003 894 3003 1313 
Q 3003 1734 2745 1975 
Q 2488 2216 2034 2216 
z
M 1403 2484 
Q 997 2584 770 2862 
Q 544 3141 544 3541 
Q 544 4100 942 4425 
Q 1341 4750 2034 4750 
Q 2731 4750 3128 4425 
Q 3525 4100 3525 3541 
Q 3525 3141 3298 2862 
Q 3072 2584 2669 2484 
Q 3125 2378 3379 2068 
Q 3634 1759 3634 1313 
Q 3634 634 3220 271 
Q 2806 -91 2034 -91 
Q 1263 -91 848 271 
Q 434 634 434 1313 
Q 434 1759 690 2068 
Q 947 2378 1403 2484 
z
M 1172 3481 
Q 1172 3119 1398 2916 
Q 1625 2713 2034 2713 
Q 2441 2713 2670 2916 
Q 2900 3119 2900 3481 
Q 2900 3844 2670 4047 
Q 2441 4250 2034 4250 
Q 1625 4250 1398 4047 
Q 1172 3844 1172 3481 
z
" id="DejaVuSans-38" transform="scale(0.015625)"/>
       </defs>
       <use xlink:href="#DejaVuSans-30"/>
       <use x="63.623047" xlink:href="#DejaVuSans-2e"/>
       <use x="95.410156" xlink:href="#DejaVuSans-38"/>
      </g>
     </g>
    </g>
    <g id="text_16">
     <!-- p(context) -->
     <g transform="translate(28.617187 200.449875)rotate(-90)scale(0.1 -0.1)">
      <defs>
       <path d="M 1159 525 
L 1159 -1331 
L 581 -1331 
L 581 3500 
L 1159 3500 
L 1159 2969 
Q 1341 3281 1617 3432 
Q 1894 3584 2278 3584 
Q 2916 3584 3314 3078 
Q 3713 2572 3713 1747 
Q 3713 922 3314 415 
Q 2916 -91 2278 -91 
Q 1894 -91 1617 61 
Q 1341 213 1159 525 
z
M 3116 1747 
Q 3116 2381 2855 2742 
Q 2594 3103 2138 3103 
Q 1681 3103 1420 2742 
Q 1159 2381 1159 1747 
Q 1159 1113 1420 752 
Q 1681 391 2138 391 
Q 2594 391 2855 752 
Q 3116 1113 3116 1747 
z
" id="DejaVuSans-70" transform="scale(0.015625)"/>
       <path d="M 1984 4856 
Q 1566 4138 1362 3434 
Q 1159 2731 1159 2009 
Q 1159 1288 1364 580 
Q 1569 -128 1984 -844 
L 1484 -844 
Q 1016 -109 783 600 
Q 550 1309 550 2009 
Q 550 2706 781 3412 
Q 1013 4119 1484 4856 
L 1984 4856 
z
" id="DejaVuSans-28" transform="scale(0.015625)"/>
       <path d="M 3122 3366 
L 3122 2828 
Q 2878 2963 2633 3030 
Q 2388 3097 2138 3097 
Q 1578 3097 1268 2742 
Q 959 2388 959 1747 
Q 959 1106 1268 751 
Q 1578 397 2138 397 
Q 2388 397 2633 464 
Q 2878 531 3122 666 
L 3122 134 
Q 2881 22 2623 -34 
Q 2366 -91 2075 -91 
Q 1284 -91 818 406 
Q 353 903 353 1747 
Q 353 2603 823 3093 
Q 1294 3584 2113 3584 
Q 2378 3584 2631 3529 
Q 2884 3475 3122 3366 
z
" id="DejaVuSans-63" transform="scale(0.015625)"/>
       <path d="M 1959 3097 
Q 1497 3097 1228 2736 
Q 959 2375 959 1747 
Q 959 1119 1226 758 
Q 1494 397 1959 397 
Q 2419 397 2687 759 
Q 2956 1122 2956 1747 
Q 2956 2369 2687 2733 
Q 2419 3097 1959 3097 
z
M 1959 3584 
Q 2709 3584 3137 3096 
Q 3566 2609 3566 1747 
Q 3566 888 3137 398 
Q 2709 -91 1959 -91 
Q 1206 -91 779 398 
Q 353 888 353 1747 
Q 353 2609 779 3096 
Q 1206 3584 1959 3584 
z
" id="DejaVuSans-6f" transform="scale(0.015625)"/>
       <path d="M 3513 2113 
L 3513 0 
L 2938 0 
L 2938 2094 
Q 2938 2591 2744 2837 
Q 2550 3084 2163 3084 
Q 1697 3084 1428 2787 
Q 1159 2491 1159 1978 
L 1159 0 
L 581 0 
L 581 3500 
L 1159 3500 
L 1159 2956 
Q 1366 3272 1645 3428 
Q 1925 3584 2291 3584 
Q 2894 3584 3203 3211 
Q 3513 2838 3513 2113 
z
" id="DejaVuSans-6e" transform="scale(0.015625)"/>
       <path d="M 3597 1894 
L 3597 1613 
L 953 1613 
Q 991 1019 1311 708 
Q 1631 397 2203 397 
Q 2534 397 2845 478 
Q 3156 559 3463 722 
L 3463 178 
Q 3153 47 2828 -22 
Q 2503 -91 2169 -91 
Q 1331 -91 842 396 
Q 353 884 353 1716 
Q 353 2575 817 3079 
Q 1281 3584 2069 3584 
Q 2775 3584 3186 3129 
Q 3597 2675 3597 1894 
z
M 3022 2063 
Q 3016 2534 2758 2815 
Q 2500 3097 2075 3097 
Q 1594 3097 1305 2825 
Q 1016 2553 972 2059 
L 3022 2063 
z
" id="DejaVuSans-65" transform="scale(0.015625)"/>
       <path d="M 3513 3500 
L 2247 1797 
L 3578 0 
L 2900 0 
L 1881 1375 
L 863 0 
L 184 0 
L 1544 1831 
L 300 3500 
L 978 3500 
L 1906 2253 
L 2834 3500 
L 3513 3500 
z
" id="DejaVuSans-78" transform="scale(0.015625)"/>
       <path d="M 513 4856 
L 1013 4856 
Q 1481 4119 1714 3412 
Q 1947 2706 1947 2009 
Q 1947 1309 1714 600 
Q 1481 -109 1013 -844 
L 513 -844 
Q 928 -128 1133 580 
Q 1338 1288 1338 2009 
Q 1338 2731 1133 3434 
Q 928 4138 513 4856 
z
" id="DejaVuSans-29" transform="scale(0.015625)"/>
      </defs>
      <use xlink:href="#DejaVuSans-70"/>
      <use x="63.476562" xlink:href="#DejaVuSans-28"/>
      <use x="102.490234" xlink:href="#DejaVuSans-63"/>
      <use x="157.470703" xlink:href="#DejaVuSans-6f"/>
      <use x="218.652344" xlink:href="#DejaVuSans-6e"/>
      <use x="282.03125" xlink:href="#DejaVuSans-74"/>
      <use x="321.240234" xlink:href="#DejaVuSans-65"/>
      <use x="381.013672" xlink:href="#DejaVuSans-78"/>
      <use x="440.193359" xlink:href="#DejaVuSans-74"/>
      <use x="479.402344" xlink:href="#DejaVuSans-29"/>
     </g>
    </g>
   </g>
   <g id="line2d_15">
    <path clip-path="url(#pdbc06bd12f)" d="M 73.832727 268.772678 
L 81.949091 293.648119 
L 90.065455 295.382293 
L 98.181818 295.482351 
L 106.298182 295.455115 
L 114.414545 295.3665 
L 122.530909 295.478732 
L 130.647273 295.487384 
L 138.763636 295.487479 
L 146.88 295.485506 
L 154.996364 295.48783 
L 163.112727 295.487857 
L 171.229091 295.487879 
L 179.345455 295.487897 
L 187.461818 295.487913 
L 195.578182 295.487927 
L 203.694545 295.487938 
L 211.810909 295.487948 
L 219.927273 295.487956 
L 228.043636 295.487963 
L 236.16 295.487968 
L 244.276364 295.487973 
L 252.392727 295.487977 
L 260.509091 295.487981 
L 268.625455 295.487984 
L 276.741818 295.487986 
L 284.858182 295.487988 
L 292.974545 295.48799 
L 301.090909 295.487992 
L 309.207273 295.487993 
L 317.323636 295.487994 
L 325.44 295.487995 
L 333.556364 295.487996 
L 341.672727 295.487996 
L 349.789091 295.487997 
L 357.905455 295.487997 
L 366.021818 295.487998 
L 374.138182 295.487998 
L 382.254545 295.487998 
L 390.370909 295.487999 
" style="fill:none;stroke:#add8e6;stroke-linecap:square;stroke-opacity:0.3;stroke-width:1.5;"/>
   </g>
   <g id="line2d_16">
    <path clip-path="url(#pdbc06bd12f)" d="M 73.832727 268.772678 
L 81.949091 206.097491 
L 90.065455 284.459995 
L 98.181818 294.584527 
L 106.298182 295.421755 
L 114.414545 295.179394 
L 122.530909 295.461488 
L 130.647273 295.382234 
L 138.763636 295.152856 
L 146.88 295.454973 
L 154.996364 295.485021 
L 163.112727 295.485584 
L 171.229091 295.48604 
L 179.345455 295.48641 
L 187.461818 295.48671 
L 195.578182 295.486954 
L 203.694545 295.487151 
L 211.810909 295.487312 
L 219.927273 295.487442 
L 228.043636 295.487547 
L 236.16 295.487633 
L 244.276364 295.487702 
L 252.392727 295.487758 
L 260.509091 295.487804 
L 268.625455 295.487841 
L 276.741818 295.487871 
L 284.858182 295.487895 
L 292.974545 295.487915 
L 301.090909 295.487931 
L 309.207273 295.487944 
L 317.323636 295.487955 
L 325.44 295.487963 
L 333.556364 295.48797 
L 341.672727 295.487976 
L 349.789091 295.48798 
L 357.905455 295.487984 
L 366.021818 295.487987 
L 374.138182 295.48799 
L 382.254545 295.487992 
L 390.370909 295.487993 
" style="fill:none;stroke:#add8e6;stroke-linecap:square;stroke-opacity:0.3;stroke-width:1.5;"/>
   </g>
   <g id="line2d_17">
    <path clip-path="url(#pdbc06bd12f)" d="M 73.832727 268.772678 
L 81.949091 206.097491 
L 90.065455 140.306783 
L 98.181818 264.645024 
L 106.298182 292.218462 
L 114.414545 295.195067 
L 122.530909 295.463495 
L 130.647273 295.377739 
L 138.763636 295.15583 
L 146.88 294.676749 
L 154.996364 295.384475 
L 163.112727 295.476785 
L 171.229091 295.48687 
L 179.345455 295.487079 
L 187.461818 295.487249 
L 195.578182 295.487388 
L 203.694545 295.487501 
L 211.810909 295.487593 
L 219.927273 295.487669 
L 228.043636 295.48773 
L 236.16 295.48778 
L 244.276364 295.487821 
L 252.392727 295.487854 
L 260.509091 295.487881 
L 268.625455 295.487903 
L 276.741818 295.487921 
L 284.858182 295.487935 
L 292.974545 295.487947 
L 301.090909 295.487957 
L 309.207273 295.487965 
L 317.323636 295.487972 
L 325.44 295.487977 
L 333.556364 295.487981 
L 341.672727 295.487985 
L 349.789091 295.487987 
L 357.905455 295.48799 
L 366.021818 295.487992 
L 374.138182 295.487993 
L 382.254545 295.487994 
L 390.370909 295.487996 
" style="fill:none;stroke:#add8e6;stroke-linecap:square;stroke-opacity:0.3;stroke-width:1.5;"/>
   </g>
   <g id="line2d_18">
    <path clip-path="url(#pdbc06bd12f)" d="M 73.832727 268.772678 
L 81.949091 293.648119 
L 90.065455 295.382293 
L 98.181818 294.947738 
L 106.298182 295.45033 
L 114.414545 295.48565 
L 122.530909 295.487862 
L 130.647273 295.487883 
L 138.763636 295.487901 
L 146.88 295.487917 
L 154.996364 295.48793 
L 163.112727 295.48794 
L 171.229091 295.48795 
L 179.345455 295.487958 
L 187.461818 295.487964 
L 195.578182 295.48797 
L 203.694545 295.487974 
L 211.810909 295.487978 
L 219.927273 295.487982 
L 228.043636 295.487985 
L 236.16 295.487987 
L 244.276364 295.487989 
L 252.392727 295.487991 
L 260.509091 295.487992 
L 268.625455 295.487993 
L 276.741818 295.487994 
L 284.858182 295.487995 
L 292.974545 295.487996 
L 301.090909 295.487997 
L 309.207273 295.487997 
L 317.323636 295.487998 
L 325.44 295.487998 
L 333.556364 295.487998 
L 341.672727 295.487999 
L 349.789091 295.487999 
L 357.905455 295.487999 
L 366.021818 295.487999 
L 374.138182 295.487999 
L 382.254545 295.487999 
L 390.370909 295.488 
" style="fill:none;stroke:#add8e6;stroke-linecap:square;stroke-opacity:0.3;stroke-width:1.5;"/>
   </g>
   <g id="line2d_19">
    <path clip-path="url(#pdbc06bd12f)" d="M 73.832727 268.772678 
L 81.949091 293.648119 
L 90.065455 287.552869 
L 98.181818 294.875716 
L 106.298182 295.446946 
L 114.414545 295.485429 
L 122.530909 295.487847 
L 130.647273 295.487872 
L 138.763636 295.487893 
L 146.88 295.487911 
L 154.996364 295.487925 
L 163.112727 295.487938 
L 171.229091 295.487948 
L 179.345455 295.487956 
L 187.461818 295.487964 
L 195.578182 295.48797 
L 203.694545 295.487975 
L 211.810909 295.487979 
L 219.927273 295.487982 
L 228.043636 295.487985 
L 236.16 295.487988 
L 244.276364 295.48799 
L 252.392727 295.487991 
L 260.509091 295.487993 
L 268.625455 295.487994 
L 276.741818 295.487995 
L 284.858182 295.487996 
L 292.974545 295.487997 
L 301.090909 295.487997 
L 309.207273 295.487998 
L 317.323636 295.487998 
L 325.44 295.487998 
L 333.556364 295.487999 
L 341.672727 295.487999 
L 349.789091 295.487999 
L 357.905455 295.487999 
L 366.021818 295.487999 
L 374.138182 295.487999 
L 382.254545 295.488 
L 390.370909 295.488 
" style="fill:none;stroke:#add8e6;stroke-linecap:square;stroke-opacity:0.3;stroke-width:1.5;"/>
   </g>
   <g id="line2d_20">
    <path clip-path="url(#pdbc06bd12f)" d="M 73.832727 268.772678 
L 81.949091 293.648119 
L 90.065455 295.382293 
L 98.181818 295.482351 
L 106.298182 295.487713 
L 114.414545 295.487757 
L 122.530909 295.487795 
L 130.647273 295.487989 
L 138.763636 295.487991 
L 146.88 295.487992 
L 154.996364 295.487994 
L 163.112727 295.487995 
L 171.229091 295.487995 
L 179.345455 295.487996 
L 187.461818 295.487997 
L 195.578182 295.487997 
L 203.694545 295.487998 
L 211.810909 295.487998 
L 219.927273 295.487998 
L 228.043636 295.487999 
L 236.16 295.487999 
L 244.276364 295.487999 
L 252.392727 295.487999 
L 260.509091 295.487999 
L 268.625455 295.487999 
L 276.741818 295.488 
L 284.858182 295.488 
L 292.974545 295.488 
L 301.090909 295.488 
L 309.207273 295.488 
L 317.323636 295.488 
L 325.44 295.488 
L 333.556364 295.488 
L 341.672727 295.488 
L 349.789091 295.488 
L 357.905455 295.488 
L 366.021818 295.488 
L 374.138182 295.488 
L 382.254545 295.488 
L 390.370909 295.488 
" style="fill:none;stroke:#add8e6;stroke-linecap:square;stroke-opacity:0.3;stroke-width:1.5;"/>
   </g>
   <g id="line2d_21">
    <path clip-path="url(#pdbc06bd12f)" d="M 73.832727 268.772678 
L 81.949091 293.648119 
L 90.065455 295.382293 
L 98.181818 295.482351 
L 106.298182 295.487713 
L 114.414545 295.487757 
L 122.530909 295.487795 
L 130.647273 295.487989 
L 138.763636 295.487991 
L 146.88 295.487992 
L 154.996364 295.487994 
L 163.112727 295.487995 
L 171.229091 295.487995 
L 179.345455 295.487996 
L 187.461818 295.487997 
L 195.578182 295.487997 
L 203.694545 295.487998 
L 211.810909 295.487998 
L 219.927273 295.487998 
L 228.043636 295.487999 
L 236.16 295.487999 
L 244.276364 295.487999 
L 252.392727 295.487999 
L 260.509091 295.487999 
L 268.625455 295.487999 
L 276.741818 295.488 
L 284.858182 295.488 
L 292.974545 295.488 
L 301.090909 295.488 
L 309.207273 295.488 
L 317.323636 295.488 
L 325.44 295.488 
L 333.556364 295.488 
L 341.672727 295.488 
L 349.789091 295.488 
L 357.905455 295.488 
L 366.021818 295.488 
L 374.138182 295.488 
L 382.254545 295.488 
L 390.370909 295.488 
" style="fill:none;stroke:#add8e6;stroke-linecap:square;stroke-opacity:0.3;stroke-width:1.5;"/>
   </g>
   <g id="line2d_22">
    <path clip-path="url(#pdbc06bd12f)" d="M 73.832727 268.772678 
L 81.949091 293.648119 
L 90.065455 295.382293 
L 98.181818 295.482351 
L 106.298182 295.487713 
L 114.414545 295.487757 
L 122.530909 295.487795 
L 130.647273 295.486526 
L 138.763636 295.487912 
L 146.88 295.487926 
L 154.996364 295.487937 
L 163.112727 295.487947 
L 171.229091 295.487955 
L 179.345455 295.487962 
L 187.461818 295.487968 
L 195.578182 295.487973 
L 203.694545 295.487977 
L 211.810909 295.487981 
L 219.927273 295.487984 
L 228.043636 295.487986 
L 236.16 295.487988 
L 244.276364 295.48799 
L 252.392727 295.487992 
L 260.509091 295.487993 
L 268.625455 295.487994 
L 276.741818 295.487995 
L 284.858182 295.487996 
L 292.974545 295.487996 
L 301.090909 295.487997 
L 309.207273 295.487997 
L 317.323636 295.487998 
L 325.44 295.487998 
L 333.556364 295.487998 
L 341.672727 295.487999 
L 349.789091 295.487999 
L 357.905455 295.487999 
L 366.021818 295.487999 
L 374.138182 295.487999 
L 382.254545 295.487999 
L 390.370909 295.488 
" style="fill:none;stroke:#add8e6;stroke-linecap:square;stroke-opacity:0.3;stroke-width:1.5;"/>
   </g>
   <g id="line2d_23">
    <path clip-path="url(#pdbc06bd12f)" d="M 73.832727 268.772678 
L 81.949091 293.648119 
L 90.065455 295.382293 
L 98.181818 295.482351 
L 106.298182 295.487713 
L 114.414545 295.487757 
L 122.530909 295.487795 
L 130.647273 295.486526 
L 138.763636 295.487912 
L 146.88 295.487926 
L 154.996364 295.487937 
L 163.112727 295.487947 
L 171.229091 295.487955 
L 179.345455 295.487962 
L 187.461818 295.487968 
L 195.578182 295.487973 
L 203.694545 295.487977 
L 211.810909 295.487981 
L 219.927273 295.487984 
L 228.043636 295.487986 
L 236.16 295.487988 
L 244.276364 295.48799 
L 252.392727 295.487992 
L 260.509091 295.487993 
L 268.625455 295.487994 
L 276.741818 295.487995 
L 284.858182 295.487996 
L 292.974545 295.487996 
L 301.090909 295.487997 
L 309.207273 295.487997 
L 317.323636 295.487998 
L 325.44 295.487998 
L 333.556364 295.487998 
L 341.672727 295.487999 
L 349.789091 295.487999 
L 357.905455 295.487999 
L 366.021818 295.487999 
L 374.138182 295.487999 
L 382.254545 295.487999 
L 390.370909 295.488 
" style="fill:none;stroke:#add8e6;stroke-linecap:square;stroke-opacity:0.3;stroke-width:1.5;"/>
   </g>
   <g id="line2d_24">
    <path clip-path="url(#pdbc06bd12f)" d="M 73.832727 268.772678 
L 81.949091 293.648119 
L 90.065455 295.382293 
L 98.181818 295.482351 
L 106.298182 295.455115 
L 114.414545 295.485838 
L 122.530909 295.487872 
L 130.647273 295.487892 
L 138.763636 295.487909 
L 146.88 295.487923 
L 154.996364 295.487935 
L 163.112727 295.487945 
L 171.229091 295.487953 
L 179.345455 295.48796 
L 187.461818 295.487967 
L 195.578182 295.487972 
L 203.694545 295.487976 
L 211.810909 295.48798 
L 219.927273 295.487983 
L 228.043636 295.487986 
L 236.16 295.487988 
L 244.276364 295.48799 
L 252.392727 295.487991 
L 260.509091 295.487993 
L 268.625455 295.487994 
L 276.741818 295.487995 
L 284.858182 295.487996 
L 292.974545 295.487996 
L 301.090909 295.487997 
L 309.207273 295.487997 
L 317.323636 295.487998 
L 325.44 295.487998 
L 333.556364 295.487998 
L 341.672727 295.487999 
L 349.789091 295.487999 
L 357.905455 295.487999 
L 366.021818 295.487999 
L 374.138182 295.487999 
L 382.254545 295.487999 
L 390.370909 295.488 
" style="fill:none;stroke:#add8e6;stroke-linecap:square;stroke-opacity:0.3;stroke-width:1.5;"/>
   </g>
   <g id="line2d_25">
    <path clip-path="url(#pdbc06bd12f)" d="M 73.832727 135.196066 
L 81.949091 81.554738 
L 90.065455 65.263261 
L 98.181818 57.93096 
L 106.298182 169.78975 
L 114.414545 221.249619 
L 122.530909 120.122965 
L 130.647273 87.738525 
L 138.763636 112.172481 
L 146.88 202.231284 
L 154.996364 112.678539 
L 163.112727 124.198659 
L 171.229091 127.283167 
L 179.345455 128.051478 
L 187.461818 128.230191 
L 195.578182 128.269178 
L 203.694545 128.277184 
L 211.810909 128.278734 
L 219.927273 128.279016 
L 228.043636 128.279063 
L 236.16 128.279068 
L 244.276364 128.279066 
L 252.392727 128.279064 
L 260.509091 128.279062 
L 268.625455 128.279061 
L 276.741818 128.279059 
L 284.858182 128.279058 
L 292.974545 128.279057 
L 301.090909 128.279056 
L 309.207273 128.279055 
L 317.323636 128.279055 
L 325.44 128.279054 
L 333.556364 128.279054 
L 341.672727 128.279053 
L 349.789091 128.279053 
L 357.905455 128.279053 
L 366.021818 128.279053 
L 374.138182 128.279053 
L 382.254545 128.279052 
L 390.370909 128.279052 
" style="fill:none;stroke:#ff0000;stroke-linecap:square;stroke-opacity:0.1;stroke-width:1.5;"/>
   </g>
   <g id="line2d_26">
    <path clip-path="url(#pdbc06bd12f)" d="M 73.832727 135.196066 
L 81.949091 255.076825 
L 90.065455 140.624009 
L 98.181818 98.076793 
L 106.298182 83.580021 
L 114.414545 201.085223 
L 122.530909 122.894553 
L 130.647273 203.463907 
L 138.763636 226.643411 
L 146.88 139.689157 
L 154.996364 116.740986 
L 163.112727 142.447839 
L 171.229091 148.489981 
L 179.345455 149.808018 
L 187.461818 150.075738 
L 195.578182 150.126566 
L 203.694545 150.135582 
L 211.810909 150.137047 
L 219.927273 150.137234 
L 228.043636 150.137225 
L 236.16 150.137192 
L 244.276364 150.137162 
L 252.392727 150.137138 
L 260.509091 150.137117 
L 268.625455 150.137101 
L 276.741818 150.137088 
L 284.858182 150.137077 
L 292.974545 150.137068 
L 301.090909 150.137061 
L 309.207273 150.137055 
L 317.323636 150.137051 
L 325.44 150.137047 
L 333.556364 150.137044 
L 341.672727 150.137041 
L 349.789091 150.137039 
L 357.905455 150.137038 
L 366.021818 150.137036 
L 374.138182 150.137035 
L 382.254545 150.137035 
L 390.370909 150.137034 
" style="fill:none;stroke:#ff0000;stroke-linecap:square;stroke-opacity:0.1;stroke-width:1.5;"/>
   </g>
   <g id="line2d_27">
    <path clip-path="url(#pdbc06bd12f)" d="M 73.832727 135.196066 
L 81.949091 255.076825 
L 90.065455 283.529144 
L 98.181818 148.91311 
L 106.298182 94.15738 
L 114.414545 78.276408 
L 122.530909 71.090962 
L 130.647273 195.969673 
L 138.763636 237.998251 
L 146.88 253.115275 
L 154.996364 142.114442 
L 163.112727 104.122714 
L 171.229091 92.249194 
L 179.345455 128.849418 
L 187.461818 140.35015 
L 195.578182 143.737188 
L 203.694545 144.670274 
L 211.810909 144.91159 
L 219.927273 144.970392 
L 228.043636 144.983929 
L 236.16 144.986874 
L 244.276364 144.987472 
L 252.392727 144.98758 
L 260.509091 144.987591 
L 268.625455 144.987585 
L 276.741818 144.987577 
L 284.858182 144.987571 
L 292.974545 144.987565 
L 301.090909 144.987561 
L 309.207273 144.987557 
L 317.323636 144.987554 
L 325.44 144.987552 
L 333.556364 144.98755 
L 341.672727 144.987548 
L 349.789091 144.987547 
L 357.905455 144.987546 
L 366.021818 144.987545 
L 374.138182 144.987544 
L 382.254545 144.987544 
L 390.370909 144.987543 
" style="fill:none;stroke:#ff0000;stroke-linecap:square;stroke-opacity:0.1;stroke-width:1.5;"/>
   </g>
   <g id="line2d_28">
    <path clip-path="url(#pdbc06bd12f)" d="M 73.832727 135.196066 
L 81.949091 81.554738 
L 90.065455 65.263261 
L 98.181818 174.654698 
L 106.298182 102.800578 
L 114.414545 80.173132 
L 122.530909 72.495036 
L 130.647273 99.981095 
L 138.763636 108.189286 
L 146.88 110.42751 
L 154.996364 110.983691 
L 163.112727 111.110485 
L 171.229091 111.137186 
L 179.345455 111.14241 
L 187.461818 111.143362 
L 195.578182 111.143523 
L 203.694545 111.143547 
L 211.810909 111.143548 
L 219.927273 111.143547 
L 228.043636 111.143545 
L 236.16 111.143543 
L 244.276364 111.143542 
L 252.392727 111.143541 
L 260.509091 111.14354 
L 268.625455 111.143539 
L 276.741818 111.143539 
L 284.858182 111.143538 
L 292.974545 111.143538 
L 301.090909 111.143537 
L 309.207273 111.143537 
L 317.323636 111.143537 
L 325.44 111.143536 
L 333.556364 111.143536 
L 341.672727 111.143536 
L 349.789091 111.143536 
L 357.905455 111.143536 
L 366.021818 111.143536 
L 374.138182 111.143535 
L 382.254545 111.143535 
L 390.370909 111.143535 
" style="fill:none;stroke:#ff0000;stroke-linecap:square;stroke-opacity:0.1;stroke-width:1.5;"/>
   </g>
   <g id="line2d_29">
    <path clip-path="url(#pdbc06bd12f)" d="M 73.832727 135.196066 
L 81.949091 81.554738 
L 90.065455 189.205905 
L 98.181818 114.874984 
L 106.298182 89.819542 
L 114.414545 80.668391 
L 122.530909 75.837076 
L 130.647273 105.44732 
L 138.763636 113.816047 
L 146.88 115.972427 
L 154.996364 116.47852 
L 163.112727 116.587472 
L 171.229091 116.609135 
L 179.345455 116.613136 
L 187.461818 116.613823 
L 195.578182 116.613932 
L 203.694545 116.613946 
L 211.810909 116.613946 
L 219.927273 116.613944 
L 228.043636 116.613942 
L 236.16 116.613941 
L 244.276364 116.613939 
L 252.392727 116.613938 
L 260.509091 116.613937 
L 268.625455 116.613937 
L 276.741818 116.613936 
L 284.858182 116.613936 
L 292.974545 116.613935 
L 301.090909 116.613935 
L 309.207273 116.613935 
L 317.323636 116.613934 
L 325.44 116.613934 
L 333.556364 116.613934 
L 341.672727 116.613934 
L 349.789091 116.613934 
L 357.905455 116.613934 
L 366.021818 116.613933 
L 374.138182 116.613933 
L 382.254545 116.613933 
L 390.370909 116.613933 
" style="fill:none;stroke:#ff0000;stroke-linecap:square;stroke-opacity:0.1;stroke-width:1.5;"/>
   </g>
   <g id="line2d_30">
    <path clip-path="url(#pdbc06bd12f)" d="M 73.832727 135.196066 
L 81.949091 81.554738 
L 90.065455 65.263261 
L 98.181818 57.93096 
L 106.298182 53.568 
L 114.414545 78.973024 
L 122.530909 89.58415 
L 130.647273 58.36317 
L 138.763636 80.448199 
L 146.88 87.62604 
L 154.996364 89.784506 
L 163.112727 90.381339 
L 171.229091 90.53375 
L 179.345455 90.569901 
L 187.461818 90.577907 
L 195.578182 90.57957 
L 203.694545 90.579895 
L 211.810909 90.579955 
L 219.927273 90.579965 
L 228.043636 90.579967 
L 236.16 90.579967 
L 244.276364 90.579967 
L 252.392727 90.579967 
L 260.509091 90.579967 
L 268.625455 90.579967 
L 276.741818 90.579966 
L 284.858182 90.579966 
L 292.974545 90.579966 
L 301.090909 90.579966 
L 309.207273 90.579966 
L 317.323636 90.579966 
L 325.44 90.579966 
L 333.556364 90.579966 
L 341.672727 90.579966 
L 349.789091 90.579966 
L 357.905455 90.579966 
L 366.021818 90.579966 
L 374.138182 90.579966 
L 382.254545 90.579966 
L 390.370909 90.579966 
" style="fill:none;stroke:#ff0000;stroke-linecap:square;stroke-opacity:0.1;stroke-width:1.5;"/>
   </g>
   <g id="line2d_31">
    <path clip-path="url(#pdbc06bd12f)" d="M 73.832727 135.196066 
L 81.949091 81.554738 
L 90.065455 65.263261 
L 98.181818 57.93096 
L 106.298182 53.568 
L 114.414545 78.973024 
L 122.530909 89.58415 
L 130.647273 58.36317 
L 138.763636 80.448199 
L 146.88 87.62604 
L 154.996364 89.784506 
L 163.112727 90.381339 
L 171.229091 90.53375 
L 179.345455 90.569901 
L 187.461818 90.577907 
L 195.578182 90.57957 
L 203.694545 90.579895 
L 211.810909 90.579955 
L 219.927273 90.579965 
L 228.043636 90.579967 
L 236.16 90.579967 
L 244.276364 90.579967 
L 252.392727 90.579967 
L 260.509091 90.579967 
L 268.625455 90.579967 
L 276.741818 90.579966 
L 284.858182 90.579966 
L 292.974545 90.579966 
L 301.090909 90.579966 
L 309.207273 90.579966 
L 317.323636 90.579966 
L 325.44 90.579966 
L 333.556364 90.579966 
L 341.672727 90.579966 
L 349.789091 90.579966 
L 357.905455 90.579966 
L 366.021818 90.579966 
L 374.138182 90.579966 
L 382.254545 90.579966 
L 390.370909 90.579966 
" style="fill:none;stroke:#ff0000;stroke-linecap:square;stroke-opacity:0.1;stroke-width:1.5;"/>
   </g>
   <g id="line2d_32">
    <path clip-path="url(#pdbc06bd12f)" d="M 73.832727 135.196066 
L 81.949091 81.554738 
L 90.065455 65.263261 
L 98.181818 57.93096 
L 106.298182 53.568 
L 114.414545 78.973024 
L 122.530909 89.58415 
L 130.647273 222.276871 
L 138.763636 101.748909 
L 146.88 105.870117 
L 154.996364 107.257527 
L 163.112727 107.685308 
L 171.229091 107.806935 
L 179.345455 107.839026 
L 187.461818 107.846926 
L 195.578182 107.848748 
L 203.694545 107.849142 
L 211.810909 107.849221 
L 219.927273 107.849235 
L 228.043636 107.849237 
L 236.16 107.849236 
L 244.276364 107.849235 
L 252.392727 107.849234 
L 260.509091 107.849233 
L 268.625455 107.849232 
L 276.741818 107.849232 
L 284.858182 107.849231 
L 292.974545 107.849231 
L 301.090909 107.84923 
L 309.207273 107.84923 
L 317.323636 107.84923 
L 325.44 107.849229 
L 333.556364 107.849229 
L 341.672727 107.849229 
L 349.789091 107.849229 
L 357.905455 107.849229 
L 366.021818 107.849229 
L 374.138182 107.849229 
L 382.254545 107.849229 
L 390.370909 107.849229 
" style="fill:none;stroke:#ff0000;stroke-linecap:square;stroke-opacity:0.1;stroke-width:1.5;"/>
   </g>
   <g id="line2d_33">
    <path clip-path="url(#pdbc06bd12f)" d="M 73.832727 135.196066 
L 81.949091 81.554738 
L 90.065455 65.263261 
L 98.181818 57.93096 
L 106.298182 53.568 
L 114.414545 78.973024 
L 122.530909 89.58415 
L 130.647273 222.276871 
L 138.763636 101.748909 
L 146.88 105.870117 
L 154.996364 107.257527 
L 163.112727 107.685308 
L 171.229091 107.806935 
L 179.345455 107.839026 
L 187.461818 107.846926 
L 195.578182 107.848748 
L 203.694545 107.849142 
L 211.810909 107.849221 
L 219.927273 107.849235 
L 228.043636 107.849237 
L 236.16 107.849236 
L 244.276364 107.849235 
L 252.392727 107.849234 
L 260.509091 107.849233 
L 268.625455 107.849232 
L 276.741818 107.849232 
L 284.858182 107.849231 
L 292.974545 107.849231 
L 301.090909 107.84923 
L 309.207273 107.84923 
L 317.323636 107.84923 
L 325.44 107.849229 
L 333.556364 107.849229 
L 341.672727 107.849229 
L 349.789091 107.849229 
L 357.905455 107.849229 
L 366.021818 107.849229 
L 374.138182 107.849229 
L 382.254545 107.849229 
L 390.370909 107.849229 
" style="fill:none;stroke:#ff0000;stroke-linecap:square;stroke-opacity:0.1;stroke-width:1.5;"/>
   </g>
   <g id="line2d_34">
    <path clip-path="url(#pdbc06bd12f)" d="M 73.832727 135.196066 
L 81.949091 81.554738 
L 90.065455 65.263261 
L 98.181818 57.93096 
L 106.298182 169.78975 
L 114.414545 95.118643 
L 122.530909 73.206281 
L 130.647273 96.926109 
L 138.763636 104.459971 
L 146.88 106.642962 
L 154.996364 107.219185 
L 163.112727 107.358676 
L 171.229091 107.38986 
L 179.345455 107.396336 
L 187.461818 107.39759 
L 195.578182 107.397816 
L 203.694545 107.397852 
L 211.810909 107.397856 
L 219.927273 107.397855 
L 228.043636 107.397854 
L 236.16 107.397852 
L 244.276364 107.397851 
L 252.392727 107.39785 
L 260.509091 107.397849 
L 268.625455 107.397848 
L 276.741818 107.397848 
L 284.858182 107.397847 
L 292.974545 107.397847 
L 301.090909 107.397846 
L 309.207273 107.397846 
L 317.323636 107.397846 
L 325.44 107.397846 
L 333.556364 107.397845 
L 341.672727 107.397845 
L 349.789091 107.397845 
L 357.905455 107.397845 
L 366.021818 107.397845 
L 374.138182 107.397845 
L 382.254545 107.397845 
L 390.370909 107.397845 
" style="fill:none;stroke:#ff0000;stroke-linecap:square;stroke-opacity:0.1;stroke-width:1.5;"/>
   </g>
   <g id="line2d_35">
    <path clip-path="url(#pdbc06bd12f)" d="M 73.832727 268.772678 
L 81.949091 276.137993 
L 90.065455 277.99957 
L 98.181818 292.194711 
L 106.298182 295.139858 
L 114.414545 295.414891 
L 122.530909 295.481847 
L 130.647273 295.466003 
L 138.763636 295.421167 
L 146.88 295.403281 
L 154.996364 295.477298 
L 163.112727 295.486593 
L 171.229091 295.487654 
L 179.345455 295.487718 
L 187.461818 295.48777 
L 195.578182 295.487812 
L 203.694545 295.487847 
L 211.810909 295.487875 
L 219.927273 295.487898 
L 228.043636 295.487916 
L 236.16 295.487932 
L 244.276364 295.487944 
L 252.392727 295.487954 
L 260.509091 295.487963 
L 268.625455 295.48797 
L 276.741818 295.487975 
L 284.858182 295.48798 
L 292.974545 295.487983 
L 301.090909 295.487986 
L 309.207273 295.487989 
L 317.323636 295.487991 
L 325.44 295.487993 
L 333.556364 295.487994 
L 341.672727 295.487995 
L 349.789091 295.487996 
L 357.905455 295.487997 
L 366.021818 295.487997 
L 374.138182 295.487998 
L 382.254545 295.487998 
L 390.370909 295.487999 
" style="fill:none;stroke:#1f77b4;stroke-linecap:square;stroke-width:1.5;"/>
   </g>
   <g id="line2d_36">
    <path clip-path="url(#pdbc06bd12f)" d="M 73.832727 135.196066 
L 81.949091 116.259155 
L 90.065455 107.020188 
L 98.181818 88.410534 
L 106.298182 92.420902 
L 114.414545 107.246351 
L 122.530909 89.398347 
L 130.647273 135.080671 
L 138.763636 126.767366 
L 146.88 131.507093 
L 154.996364 110.029943 
L 163.112727 110.195914 
L 171.229091 109.98399 
L 179.345455 113.867865 
L 187.461818 115.066052 
L 195.578182 115.414484 
L 203.694545 115.509646 
L 211.810909 115.534107 
L 219.927273 115.540039 
L 228.043636 115.541396 
L 236.16 115.541688 
L 244.276364 115.541744 
L 252.392727 115.541751 
L 260.509091 115.54175 
L 268.625455 115.541747 
L 276.741818 115.541744 
L 284.858182 115.541742 
L 292.974545 115.54174 
L 301.090909 115.541739 
L 309.207273 115.541738 
L 317.323636 115.541737 
L 325.44 115.541736 
L 333.556364 115.541735 
L 341.672727 115.541735 
L 349.789091 115.541734 
L 357.905455 115.541734 
L 366.021818 115.541734 
L 374.138182 115.541734 
L 382.254545 115.541733 
L 390.370909 115.541733 
" style="fill:none;stroke:#ff0000;stroke-linecap:square;stroke-width:1.5;"/>
   </g>
   <g id="patch_5">
    <path d="M 57.6 307.584 
L 57.6 41.472 
" style="fill:none;stroke:#000000;stroke-linecap:square;stroke-linejoin:miter;stroke-width:0.8;"/>
   </g>
   <g id="patch_6">
    <path d="M 414.72 307.584 
L 414.72 41.472 
" style="fill:none;stroke:#000000;stroke-linecap:square;stroke-linejoin:miter;stroke-width:0.8;"/>
   </g>
   <g id="patch_7">
    <path d="M 57.6 307.584 
L 414.72 307.584 
" style="fill:none;stroke:#000000;stroke-linecap:square;stroke-linejoin:miter;stroke-width:0.8;"/>
   </g>
   <g id="patch_8">
    <path d="M 57.6 41.472 
L 414.72 41.472 
" style="fill:none;stroke:#000000;stroke-linecap:square;stroke-linejoin:miter;stroke-width:0.8;"/>
   </g>
   <g id="text_17">
    <!-- Type2_depressed -->
    <g transform="translate(184.4775 35.472)scale(0.12 -0.12)">
     <defs>
      <path d="M -19 4666 
L 3928 4666 
L 3928 4134 
L 2272 4134 
L 2272 0 
L 1638 0 
L 1638 4134 
L -19 4134 
L -19 4666 
z
" id="DejaVuSans-54" transform="scale(0.015625)"/>
      <path d="M 2059 -325 
Q 1816 -950 1584 -1140 
Q 1353 -1331 966 -1331 
L 506 -1331 
L 506 -850 
L 844 -850 
Q 1081 -850 1212 -737 
Q 1344 -625 1503 -206 
L 1606 56 
L 191 3500 
L 800 3500 
L 1894 763 
L 2988 3500 
L 3597 3500 
L 2059 -325 
z
" id="DejaVuSans-79" transform="scale(0.015625)"/>
      <path d="M 3263 -1063 
L 3263 -1509 
L -63 -1509 
L -63 -1063 
L 3263 -1063 
z
" id="DejaVuSans-5f" transform="scale(0.015625)"/>
      <path d="M 2906 2969 
L 2906 4863 
L 3481 4863 
L 3481 0 
L 2906 0 
L 2906 525 
Q 2725 213 2448 61 
Q 2172 -91 1784 -91 
Q 1150 -91 751 415 
Q 353 922 353 1747 
Q 353 2572 751 3078 
Q 1150 3584 1784 3584 
Q 2172 3584 2448 3432 
Q 2725 3281 2906 2969 
z
M 947 1747 
Q 947 1113 1208 752 
Q 1469 391 1925 391 
Q 2381 391 2643 752 
Q 2906 1113 2906 1747 
Q 2906 2381 2643 2742 
Q 2381 3103 1925 3103 
Q 1469 3103 1208 2742 
Q 947 2381 947 1747 
z
" id="DejaVuSans-64" transform="scale(0.015625)"/>
      <path d="M 2631 2963 
Q 2534 3019 2420 3045 
Q 2306 3072 2169 3072 
Q 1681 3072 1420 2755 
Q 1159 2438 1159 1844 
L 1159 0 
L 581 0 
L 581 3500 
L 1159 3500 
L 1159 2956 
Q 1341 3275 1631 3429 
Q 1922 3584 2338 3584 
Q 2397 3584 2469 3576 
Q 2541 3569 2628 3553 
L 2631 2963 
z
" id="DejaVuSans-72" transform="scale(0.015625)"/>
      <path d="M 2834 3397 
L 2834 2853 
Q 2591 2978 2328 3040 
Q 2066 3103 1784 3103 
Q 1356 3103 1142 2972 
Q 928 2841 928 2578 
Q 928 2378 1081 2264 
Q 1234 2150 1697 2047 
L 1894 2003 
Q 2506 1872 2764 1633 
Q 3022 1394 3022 966 
Q 3022 478 2636 193 
Q 2250 -91 1575 -91 
Q 1294 -91 989 -36 
Q 684 19 347 128 
L 347 722 
Q 666 556 975 473 
Q 1284 391 1588 391 
Q 1994 391 2212 530 
Q 2431 669 2431 922 
Q 2431 1156 2273 1281 
Q 2116 1406 1581 1522 
L 1381 1569 
Q 847 1681 609 1914 
Q 372 2147 372 2553 
Q 372 3047 722 3315 
Q 1072 3584 1716 3584 
Q 2034 3584 2315 3537 
Q 2597 3491 2834 3397 
z
" id="DejaVuSans-73" transform="scale(0.015625)"/>
     </defs>
     <use xlink:href="#DejaVuSans-54"/>
     <use x="45.458984" xlink:href="#DejaVuSans-79"/>
     <use x="104.638672" xlink:href="#DejaVuSans-70"/>
     <use x="168.115234" xlink:href="#DejaVuSans-65"/>
     <use x="229.638672" xlink:href="#DejaVuSans-32"/>
     <use x="293.261719" xlink:href="#DejaVuSans-5f"/>
     <use x="343.261719" xlink:href="#DejaVuSans-64"/>
     <use x="406.738281" xlink:href="#DejaVuSans-65"/>
     <use x="468.261719" xlink:href="#DejaVuSans-70"/>
     <use x="531.738281" xlink:href="#DejaVuSans-72"/>
     <use x="570.601562" xlink:href="#DejaVuSans-65"/>
     <use x="632.125" xlink:href="#DejaVuSans-73"/>
     <use x="684.224609" xlink:href="#DejaVuSans-73"/>
     <use x="736.324219" xlink:href="#DejaVuSans-65"/>
     <use x="797.847656" xlink:href="#DejaVuSans-64"/>
    </g>
   </g>
   <g id="legend_1">
    <g id="patch_9">
     <path d="M 351.635625 78.82825 
L 407.72 78.82825 
Q 409.72 78.82825 409.72 76.82825 
L 409.72 48.472 
Q 409.72 46.472 407.72 46.472 
L 351.635625 46.472 
Q 349.635625 46.472 349.635625 48.472 
L 349.635625 76.82825 
Q 349.635625 78.82825 351.635625 78.82825 
z
" style="fill:#ffffff;opacity:0.8;stroke:#cccccc;stroke-linejoin:miter;"/>
    </g>
    <g id="line2d_37">
     <path d="M 353.635625 54.570437 
L 373.635625 54.570437 
" style="fill:none;stroke:#1f77b4;stroke-linecap:square;stroke-width:1.5;"/>
    </g>
    <g id="line2d_38"/>
    <g id="text_18">
     <!-- coop -->
     <g transform="translate(381.635625 58.070437)scale(0.1 -0.1)">
      <use xlink:href="#DejaVuSans-63"/>
      <use x="54.980469" xlink:href="#DejaVuSans-6f"/>
      <use x="116.162109" xlink:href="#DejaVuSans-6f"/>
      <use x="177.34375" xlink:href="#DejaVuSans-70"/>
     </g>
    </g>
    <g id="line2d_39">
     <path d="M 353.635625 69.248562 
L 373.635625 69.248562 
" style="fill:none;stroke:#ff0000;stroke-linecap:square;stroke-width:1.5;"/>
    </g>
    <g id="line2d_40"/>
    <g id="text_19">
     <!-- host -->
     <g transform="translate(381.635625 72.748562)scale(0.1 -0.1)">
      <defs>
       <path d="M 3513 2113 
L 3513 0 
L 2938 0 
L 2938 2094 
Q 2938 2591 2744 2837 
Q 2550 3084 2163 3084 
Q 1697 3084 1428 2787 
Q 1159 2491 1159 1978 
L 1159 0 
L 581 0 
L 581 4863 
L 1159 4863 
L 1159 2956 
Q 1366 3272 1645 3428 
Q 1925 3584 2291 3584 
Q 2894 3584 3203 3211 
Q 3513 2838 3513 2113 
z
" id="DejaVuSans-68" transform="scale(0.015625)"/>
      </defs>
      <use xlink:href="#DejaVuSans-68"/>
      <use x="63.378906" xlink:href="#DejaVuSans-6f"/>
      <use x="124.560547" xlink:href="#DejaVuSans-73"/>
      <use x="176.660156" xlink:href="#DejaVuSans-74"/>
     </g>
    </g>
   </g>
  </g>
 </g>
 <defs>
  <clipPath id="pdbc06bd12f">
   <rect height="266.112" width="357.12" x="57.6" y="41.472"/>
  </clipPath>
 </defs>
</svg>
