<?xml version="1.0" encoding="utf-8" standalone="no"?>
<!DOCTYPE svg PUBLIC "-//W3C//DTD SVG 1.1//EN"
  "http://www.w3.org/Graphics/SVG/1.1/DTD/svg11.dtd">
<svg height="345.6pt" version="1.1" viewBox="0 0 460.8 345.6" width="460.8pt" xmlns="http://www.w3.org/2000/svg" xmlns:xlink="http://www.w3.org/1999/xlink">
 <metadata>
  <rdf:RDF xmlns:cc="http://creativecommons.org/ns#" xmlns:dc="http://purl.org/dc/elements/1.1/" xmlns:rdf="http://www.w3.org/1999/02/22-rdf-syntax-ns#">
   <cc:Work>
    <dc:type rdf:resource="http://purl.org/dc/dcmitype/StillImage"/>
    <dc:date>2023-09-18T17:59:12.054974</dc:date>
    <dc:format>image/svg+xml</dc:format>
    <dc:creator>
     <cc:Agent>
      <dc:title>Matplotlib v3.4.1, https://matplotlib.org/</dc:title>
     </cc:Agent>
    </dc:creator>
   </cc:Work>
  </rdf:RDF>
 </metadata>
 <defs>
  <style type="text/css">*{stroke-linecap:butt;stroke-linejoin:round;}</style>
 </defs>
 <g id="figure_1">
  <g id="patch_1">
   <path d="M 0 345.6 
L 460.8 345.6 
L 460.8 0 
L 0 0 
z
" style="fill:#ffffff;"/>
  </g>
  <g id="axes_1">
   <g id="patch_2">
    <path d="M 57.6 307.584 
L 414.72 307.584 
L 414.72 41.472 
L 57.6 41.472 
z
" style="fill:#ffffff;"/>
   </g>
   <g id="patch_3">
    <path clip-path="url(#p8dc5094399)" d="M 73.832727 307.584 
L 73.832727 41.472 
L 236.16 41.472 
L 236.16 307.584 
z
" style="fill:#add8e6;opacity:0.2;"/>
   </g>
   <g id="patch_4">
    <path clip-path="url(#p8dc5094399)" d="M 236.16 307.584 
L 236.16 41.472 
L 398.487273 41.472 
L 398.487273 307.584 
z
" style="fill:#ff7f50;opacity:0.2;"/>
   </g>
   <g id="matplotlib.axis_1">
    <g id="xtick_1">
     <g id="line2d_1">
      <defs>
       <path d="M 0 0 
L 0 3.5 
" id="m53b32eb8e6" style="stroke:#000000;stroke-width:0.8;"/>
      </defs>
      <g>
       <use style="stroke:#000000;stroke-width:0.8;" x="73.832727" xlink:href="#m53b32eb8e6" y="307.584"/>
      </g>
     </g>
     <g id="text_1">
      <!-- 0 -->
      <g transform="translate(70.651477 322.182437)scale(0.1 -0.1)">
       <defs>
        <path d="M 2034 4250 
Q 1547 4250 1301 3770 
Q 1056 3291 1056 2328 
Q 1056 1369 1301 889 
Q 1547 409 2034 409 
Q 2525 409 2770 889 
Q 3016 1369 3016 2328 
Q 3016 3291 2770 3770 
Q 2525 4250 2034 4250 
z
M 2034 4750 
Q 2819 4750 3233 4129 
Q 3647 3509 3647 2328 
Q 3647 1150 3233 529 
Q 2819 -91 2034 -91 
Q 1250 -91 836 529 
Q 422 1150 422 2328 
Q 422 3509 836 4129 
Q 1250 4750 2034 4750 
z
" id="DejaVuSans-30" transform="scale(0.015625)"/>
       </defs>
       <use xlink:href="#DejaVuSans-30"/>
      </g>
     </g>
    </g>
    <g id="xtick_2">
     <g id="line2d_2">
      <g>
       <use style="stroke:#000000;stroke-width:0.8;" x="114.414545" xlink:href="#m53b32eb8e6" y="307.584"/>
      </g>
     </g>
     <g id="text_2">
      <!-- 5 -->
      <g transform="translate(111.233295 322.182437)scale(0.1 -0.1)">
       <defs>
        <path d="M 691 4666 
L 3169 4666 
L 3169 4134 
L 1269 4134 
L 1269 2991 
Q 1406 3038 1543 3061 
Q 1681 3084 1819 3084 
Q 2600 3084 3056 2656 
Q 3513 2228 3513 1497 
Q 3513 744 3044 326 
Q 2575 -91 1722 -91 
Q 1428 -91 1123 -41 
Q 819 9 494 109 
L 494 744 
Q 775 591 1075 516 
Q 1375 441 1709 441 
Q 2250 441 2565 725 
Q 2881 1009 2881 1497 
Q 2881 1984 2565 2268 
Q 2250 2553 1709 2553 
Q 1456 2553 1204 2497 
Q 953 2441 691 2322 
L 691 4666 
z
" id="DejaVuSans-35" transform="scale(0.015625)"/>
       </defs>
       <use xlink:href="#DejaVuSans-35"/>
      </g>
     </g>
    </g>
    <g id="xtick_3">
     <g id="line2d_3">
      <g>
       <use style="stroke:#000000;stroke-width:0.8;" x="154.996364" xlink:href="#m53b32eb8e6" y="307.584"/>
      </g>
     </g>
     <g id="text_3">
      <!-- 10 -->
      <g transform="translate(148.633864 322.182437)scale(0.1 -0.1)">
       <defs>
        <path d="M 794 531 
L 1825 531 
L 1825 4091 
L 703 3866 
L 703 4441 
L 1819 4666 
L 2450 4666 
L 2450 531 
L 3481 531 
L 3481 0 
L 794 0 
L 794 531 
z
" id="DejaVuSans-31" transform="scale(0.015625)"/>
       </defs>
       <use xlink:href="#DejaVuSans-31"/>
       <use x="63.623047" xlink:href="#DejaVuSans-30"/>
      </g>
     </g>
    </g>
    <g id="xtick_4">
     <g id="line2d_4">
      <g>
       <use style="stroke:#000000;stroke-width:0.8;" x="195.578182" xlink:href="#m53b32eb8e6" y="307.584"/>
      </g>
     </g>
     <g id="text_4">
      <!-- 15 -->
      <g transform="translate(189.215682 322.182437)scale(0.1 -0.1)">
       <use xlink:href="#DejaVuSans-31"/>
       <use x="63.623047" xlink:href="#DejaVuSans-35"/>
      </g>
     </g>
    </g>
    <g id="xtick_5">
     <g id="line2d_5">
      <g>
       <use style="stroke:#000000;stroke-width:0.8;" x="236.16" xlink:href="#m53b32eb8e6" y="307.584"/>
      </g>
     </g>
     <g id="text_5">
      <!-- 20 -->
      <g transform="translate(229.7975 322.182437)scale(0.1 -0.1)">
       <defs>
        <path d="M 1228 531 
L 3431 531 
L 3431 0 
L 469 0 
L 469 531 
Q 828 903 1448 1529 
Q 2069 2156 2228 2338 
Q 2531 2678 2651 2914 
Q 2772 3150 2772 3378 
Q 2772 3750 2511 3984 
Q 2250 4219 1831 4219 
Q 1534 4219 1204 4116 
Q 875 4013 500 3803 
L 500 4441 
Q 881 4594 1212 4672 
Q 1544 4750 1819 4750 
Q 2544 4750 2975 4387 
Q 3406 4025 3406 3419 
Q 3406 3131 3298 2873 
Q 3191 2616 2906 2266 
Q 2828 2175 2409 1742 
Q 1991 1309 1228 531 
z
" id="DejaVuSans-32" transform="scale(0.015625)"/>
       </defs>
       <use xlink:href="#DejaVuSans-32"/>
       <use x="63.623047" xlink:href="#DejaVuSans-30"/>
      </g>
     </g>
    </g>
    <g id="xtick_6">
     <g id="line2d_6">
      <g>
       <use style="stroke:#000000;stroke-width:0.8;" x="276.741818" xlink:href="#m53b32eb8e6" y="307.584"/>
      </g>
     </g>
     <g id="text_6">
      <!-- 25 -->
      <g transform="translate(270.379318 322.182437)scale(0.1 -0.1)">
       <use xlink:href="#DejaVuSans-32"/>
       <use x="63.623047" xlink:href="#DejaVuSans-35"/>
      </g>
     </g>
    </g>
    <g id="xtick_7">
     <g id="line2d_7">
      <g>
       <use style="stroke:#000000;stroke-width:0.8;" x="317.323636" xlink:href="#m53b32eb8e6" y="307.584"/>
      </g>
     </g>
     <g id="text_7">
      <!-- 30 -->
      <g transform="translate(310.961136 322.182437)scale(0.1 -0.1)">
       <defs>
        <path d="M 2597 2516 
Q 3050 2419 3304 2112 
Q 3559 1806 3559 1356 
Q 3559 666 3084 287 
Q 2609 -91 1734 -91 
Q 1441 -91 1130 -33 
Q 819 25 488 141 
L 488 750 
Q 750 597 1062 519 
Q 1375 441 1716 441 
Q 2309 441 2620 675 
Q 2931 909 2931 1356 
Q 2931 1769 2642 2001 
Q 2353 2234 1838 2234 
L 1294 2234 
L 1294 2753 
L 1863 2753 
Q 2328 2753 2575 2939 
Q 2822 3125 2822 3475 
Q 2822 3834 2567 4026 
Q 2313 4219 1838 4219 
Q 1578 4219 1281 4162 
Q 984 4106 628 3988 
L 628 4550 
Q 988 4650 1302 4700 
Q 1616 4750 1894 4750 
Q 2613 4750 3031 4423 
Q 3450 4097 3450 3541 
Q 3450 3153 3228 2886 
Q 3006 2619 2597 2516 
z
" id="DejaVuSans-33" transform="scale(0.015625)"/>
       </defs>
       <use xlink:href="#DejaVuSans-33"/>
       <use x="63.623047" xlink:href="#DejaVuSans-30"/>
      </g>
     </g>
    </g>
    <g id="xtick_8">
     <g id="line2d_8">
      <g>
       <use style="stroke:#000000;stroke-width:0.8;" x="357.905455" xlink:href="#m53b32eb8e6" y="307.584"/>
      </g>
     </g>
     <g id="text_8">
      <!-- 35 -->
      <g transform="translate(351.542955 322.182437)scale(0.1 -0.1)">
       <use xlink:href="#DejaVuSans-33"/>
       <use x="63.623047" xlink:href="#DejaVuSans-35"/>
      </g>
     </g>
    </g>
    <g id="xtick_9">
     <g id="line2d_9">
      <g>
       <use style="stroke:#000000;stroke-width:0.8;" x="398.487273" xlink:href="#m53b32eb8e6" y="307.584"/>
      </g>
     </g>
     <g id="text_9">
      <!-- 40 -->
      <g transform="translate(392.124773 322.182437)scale(0.1 -0.1)">
       <defs>
        <path d="M 2419 4116 
L 825 1625 
L 2419 1625 
L 2419 4116 
z
M 2253 4666 
L 3047 4666 
L 3047 1625 
L 3713 1625 
L 3713 1100 
L 3047 1100 
L 3047 0 
L 2419 0 
L 2419 1100 
L 313 1100 
L 313 1709 
L 2253 4666 
z
" id="DejaVuSans-34" transform="scale(0.015625)"/>
       </defs>
       <use xlink:href="#DejaVuSans-34"/>
       <use x="63.623047" xlink:href="#DejaVuSans-30"/>
      </g>
     </g>
    </g>
    <g id="text_10">
     <!-- t -->
     <g transform="translate(234.199844 335.860562)scale(0.1 -0.1)">
      <defs>
       <path d="M 1172 4494 
L 1172 3500 
L 2356 3500 
L 2356 3053 
L 1172 3053 
L 1172 1153 
Q 1172 725 1289 603 
Q 1406 481 1766 481 
L 2356 481 
L 2356 0 
L 1766 0 
Q 1100 0 847 248 
Q 594 497 594 1153 
L 594 3053 
L 172 3053 
L 172 3500 
L 594 3500 
L 594 4494 
L 1172 4494 
z
" id="DejaVuSans-74" transform="scale(0.015625)"/>
      </defs>
      <use xlink:href="#DejaVuSans-74"/>
     </g>
    </g>
   </g>
   <g id="matplotlib.axis_2">
    <g id="ytick_1">
     <g id="line2d_10">
      <defs>
       <path d="M 0 0 
L -3.5 0 
" id="me052e52ab8" style="stroke:#000000;stroke-width:0.8;"/>
      </defs>
      <g>
       <use style="stroke:#000000;stroke-width:0.8;" x="57.6" xlink:href="#me052e52ab8" y="295.488"/>
      </g>
     </g>
     <g id="text_11">
      <!-- 0.0 -->
      <g transform="translate(34.696875 299.287219)scale(0.1 -0.1)">
       <defs>
        <path d="M 684 794 
L 1344 794 
L 1344 0 
L 684 0 
L 684 794 
z
" id="DejaVuSans-2e" transform="scale(0.015625)"/>
       </defs>
       <use xlink:href="#DejaVuSans-30"/>
       <use x="63.623047" xlink:href="#DejaVuSans-2e"/>
       <use x="95.410156" xlink:href="#DejaVuSans-30"/>
      </g>
     </g>
    </g>
    <g id="ytick_2">
     <g id="line2d_11">
      <g>
       <use style="stroke:#000000;stroke-width:0.8;" x="57.6" xlink:href="#me052e52ab8" y="246.981269"/>
      </g>
     </g>
     <g id="text_12">
      <!-- 0.2 -->
      <g transform="translate(34.696875 250.780488)scale(0.1 -0.1)">
       <use xlink:href="#DejaVuSans-30"/>
       <use x="63.623047" xlink:href="#DejaVuSans-2e"/>
       <use x="95.410156" xlink:href="#DejaVuSans-32"/>
      </g>
     </g>
    </g>
    <g id="ytick_3">
     <g id="line2d_12">
      <g>
       <use style="stroke:#000000;stroke-width:0.8;" x="57.6" xlink:href="#me052e52ab8" y="198.474539"/>
      </g>
     </g>
     <g id="text_13">
      <!-- 0.4 -->
      <g transform="translate(34.696875 202.273758)scale(0.1 -0.1)">
       <use xlink:href="#DejaVuSans-30"/>
       <use x="63.623047" xlink:href="#DejaVuSans-2e"/>
       <use x="95.410156" xlink:href="#DejaVuSans-34"/>
      </g>
     </g>
    </g>
    <g id="ytick_4">
     <g id="line2d_13">
      <g>
       <use style="stroke:#000000;stroke-width:0.8;" x="57.6" xlink:href="#me052e52ab8" y="149.967808"/>
      </g>
     </g>
     <g id="text_14">
      <!-- 0.6 -->
      <g transform="translate(34.696875 153.767027)scale(0.1 -0.1)">
       <defs>
        <path d="M 2113 2584 
Q 1688 2584 1439 2293 
Q 1191 2003 1191 1497 
Q 1191 994 1439 701 
Q 1688 409 2113 409 
Q 2538 409 2786 701 
Q 3034 994 3034 1497 
Q 3034 2003 2786 2293 
Q 2538 2584 2113 2584 
z
M 3366 4563 
L 3366 3988 
Q 3128 4100 2886 4159 
Q 2644 4219 2406 4219 
Q 1781 4219 1451 3797 
Q 1122 3375 1075 2522 
Q 1259 2794 1537 2939 
Q 1816 3084 2150 3084 
Q 2853 3084 3261 2657 
Q 3669 2231 3669 1497 
Q 3669 778 3244 343 
Q 2819 -91 2113 -91 
Q 1303 -91 875 529 
Q 447 1150 447 2328 
Q 447 3434 972 4092 
Q 1497 4750 2381 4750 
Q 2619 4750 2861 4703 
Q 3103 4656 3366 4563 
z
" id="DejaVuSans-36" transform="scale(0.015625)"/>
       </defs>
       <use xlink:href="#DejaVuSans-30"/>
       <use x="63.623047" xlink:href="#DejaVuSans-2e"/>
       <use x="95.410156" xlink:href="#DejaVuSans-36"/>
      </g>
     </g>
    </g>
    <g id="ytick_5">
     <g id="line2d_14">
      <g>
       <use style="stroke:#000000;stroke-width:0.8;" x="57.6" xlink:href="#me052e52ab8" y="101.461078"/>
      </g>
     </g>
     <g id="text_15">
      <!-- 0.8 -->
      <g transform="translate(34.696875 105.260297)scale(0.1 -0.1)">
       <defs>
        <path d="M 2034 2216 
Q 1584 2216 1326 1975 
Q 1069 1734 1069 1313 
Q 1069 891 1326 650 
Q 1584 409 2034 409 
Q 2484 409 2743 651 
Q 3003 894 3003 1313 
Q 3003 1734 2745 1975 
Q 2488 2216 2034 2216 
z
M 1403 2484 
Q 997 2584 770 2862 
Q 544 3141 544 3541 
Q 544 4100 942 4425 
Q 1341 4750 2034 4750 
Q 2731 4750 3128 4425 
Q 3525 4100 3525 3541 
Q 3525 3141 3298 2862 
Q 3072 2584 2669 2484 
Q 3125 2378 3379 2068 
Q 3634 1759 3634 1313 
Q 3634 634 3220 271 
Q 2806 -91 2034 -91 
Q 1263 -91 848 271 
Q 434 634 434 1313 
Q 434 1759 690 2068 
Q 947 2378 1403 2484 
z
M 1172 3481 
Q 1172 3119 1398 2916 
Q 1625 2713 2034 2713 
Q 2441 2713 2670 2916 
Q 2900 3119 2900 3481 
Q 2900 3844 2670 4047 
Q 2441 4250 2034 4250 
Q 1625 4250 1398 4047 
Q 1172 3844 1172 3481 
z
" id="DejaVuSans-38" transform="scale(0.015625)"/>
       </defs>
       <use xlink:href="#DejaVuSans-30"/>
       <use x="63.623047" xlink:href="#DejaVuSans-2e"/>
       <use x="95.410156" xlink:href="#DejaVuSans-38"/>
      </g>
     </g>
    </g>
    <g id="ytick_6">
     <g id="line2d_15">
      <g>
       <use style="stroke:#000000;stroke-width:0.8;" x="57.6" xlink:href="#me052e52ab8" y="52.954347"/>
      </g>
     </g>
     <g id="text_16">
      <!-- 1.0 -->
      <g transform="translate(34.696875 56.753566)scale(0.1 -0.1)">
       <use xlink:href="#DejaVuSans-31"/>
       <use x="63.623047" xlink:href="#DejaVuSans-2e"/>
       <use x="95.410156" xlink:href="#DejaVuSans-30"/>
      </g>
     </g>
    </g>
    <g id="text_17">
     <!-- p(context) -->
     <g transform="translate(28.617187 200.449875)rotate(-90)scale(0.1 -0.1)">
      <defs>
       <path d="M 1159 525 
L 1159 -1331 
L 581 -1331 
L 581 3500 
L 1159 3500 
L 1159 2969 
Q 1341 3281 1617 3432 
Q 1894 3584 2278 3584 
Q 2916 3584 3314 3078 
Q 3713 2572 3713 1747 
Q 3713 922 3314 415 
Q 2916 -91 2278 -91 
Q 1894 -91 1617 61 
Q 1341 213 1159 525 
z
M 3116 1747 
Q 3116 2381 2855 2742 
Q 2594 3103 2138 3103 
Q 1681 3103 1420 2742 
Q 1159 2381 1159 1747 
Q 1159 1113 1420 752 
Q 1681 391 2138 391 
Q 2594 391 2855 752 
Q 3116 1113 3116 1747 
z
" id="DejaVuSans-70" transform="scale(0.015625)"/>
       <path d="M 1984 4856 
Q 1566 4138 1362 3434 
Q 1159 2731 1159 2009 
Q 1159 1288 1364 580 
Q 1569 -128 1984 -844 
L 1484 -844 
Q 1016 -109 783 600 
Q 550 1309 550 2009 
Q 550 2706 781 3412 
Q 1013 4119 1484 4856 
L 1984 4856 
z
" id="DejaVuSans-28" transform="scale(0.015625)"/>
       <path d="M 3122 3366 
L 3122 2828 
Q 2878 2963 2633 3030 
Q 2388 3097 2138 3097 
Q 1578 3097 1268 2742 
Q 959 2388 959 1747 
Q 959 1106 1268 751 
Q 1578 397 2138 397 
Q 2388 397 2633 464 
Q 2878 531 3122 666 
L 3122 134 
Q 2881 22 2623 -34 
Q 2366 -91 2075 -91 
Q 1284 -91 818 406 
Q 353 903 353 1747 
Q 353 2603 823 3093 
Q 1294 3584 2113 3584 
Q 2378 3584 2631 3529 
Q 2884 3475 3122 3366 
z
" id="DejaVuSans-63" transform="scale(0.015625)"/>
       <path d="M 1959 3097 
Q 1497 3097 1228 2736 
Q 959 2375 959 1747 
Q 959 1119 1226 758 
Q 1494 397 1959 397 
Q 2419 397 2687 759 
Q 2956 1122 2956 1747 
Q 2956 2369 2687 2733 
Q 2419 3097 1959 3097 
z
M 1959 3584 
Q 2709 3584 3137 3096 
Q 3566 2609 3566 1747 
Q 3566 888 3137 398 
Q 2709 -91 1959 -91 
Q 1206 -91 779 398 
Q 353 888 353 1747 
Q 353 2609 779 3096 
Q 1206 3584 1959 3584 
z
" id="DejaVuSans-6f" transform="scale(0.015625)"/>
       <path d="M 3513 2113 
L 3513 0 
L 2938 0 
L 2938 2094 
Q 2938 2591 2744 2837 
Q 2550 3084 2163 3084 
Q 1697 3084 1428 2787 
Q 1159 2491 1159 1978 
L 1159 0 
L 581 0 
L 581 3500 
L 1159 3500 
L 1159 2956 
Q 1366 3272 1645 3428 
Q 1925 3584 2291 3584 
Q 2894 3584 3203 3211 
Q 3513 2838 3513 2113 
z
" id="DejaVuSans-6e" transform="scale(0.015625)"/>
       <path d="M 3597 1894 
L 3597 1613 
L 953 1613 
Q 991 1019 1311 708 
Q 1631 397 2203 397 
Q 2534 397 2845 478 
Q 3156 559 3463 722 
L 3463 178 
Q 3153 47 2828 -22 
Q 2503 -91 2169 -91 
Q 1331 -91 842 396 
Q 353 884 353 1716 
Q 353 2575 817 3079 
Q 1281 3584 2069 3584 
Q 2775 3584 3186 3129 
Q 3597 2675 3597 1894 
z
M 3022 2063 
Q 3016 2534 2758 2815 
Q 2500 3097 2075 3097 
Q 1594 3097 1305 2825 
Q 1016 2553 972 2059 
L 3022 2063 
z
" id="DejaVuSans-65" transform="scale(0.015625)"/>
       <path d="M 3513 3500 
L 2247 1797 
L 3578 0 
L 2900 0 
L 1881 1375 
L 863 0 
L 184 0 
L 1544 1831 
L 300 3500 
L 978 3500 
L 1906 2253 
L 2834 3500 
L 3513 3500 
z
" id="DejaVuSans-78" transform="scale(0.015625)"/>
       <path d="M 513 4856 
L 1013 4856 
Q 1481 4119 1714 3412 
Q 1947 2706 1947 2009 
Q 1947 1309 1714 600 
Q 1481 -109 1013 -844 
L 513 -844 
Q 928 -128 1133 580 
Q 1338 1288 1338 2009 
Q 1338 2731 1133 3434 
Q 928 4138 513 4856 
z
" id="DejaVuSans-29" transform="scale(0.015625)"/>
      </defs>
      <use xlink:href="#DejaVuSans-70"/>
      <use x="63.476562" xlink:href="#DejaVuSans-28"/>
      <use x="102.490234" xlink:href="#DejaVuSans-63"/>
      <use x="157.470703" xlink:href="#DejaVuSans-6f"/>
      <use x="218.652344" xlink:href="#DejaVuSans-6e"/>
      <use x="282.03125" xlink:href="#DejaVuSans-74"/>
      <use x="321.240234" xlink:href="#DejaVuSans-65"/>
      <use x="381.013672" xlink:href="#DejaVuSans-78"/>
      <use x="440.193359" xlink:href="#DejaVuSans-74"/>
      <use x="479.402344" xlink:href="#DejaVuSans-29"/>
     </g>
    </g>
   </g>
   <g id="line2d_16">
    <path clip-path="url(#p8dc5094399)" d="M 73.832727 271.234635 
L 81.949091 214.335295 
L 90.065455 154.607546 
L 98.181818 108.136124 
L 106.298182 242.111464 
L 114.414545 180.709438 
L 122.530909 133.122097 
L 130.647273 100.056382 
L 138.763636 79.259431 
L 146.88 67.581702 
L 154.996364 61.537855 
L 163.112727 191.535338 
L 171.229091 124.497383 
L 179.345455 91.62819 
L 187.461818 75.343759 
L 195.578182 203.435994 
L 203.694545 146.488923 
L 211.810909 111.167822 
L 219.927273 90.368373 
L 228.043636 78.196435 
L 236.16 104.243042 
L 244.276364 81.915209 
L 252.392727 212.749776 
L 260.509091 280.167327 
L 268.625455 293.351448 
L 276.741818 290.072104 
L 284.858182 294.635894 
L 292.974545 295.369992 
L 301.090909 295.472794 
L 309.207273 295.486146 
L 317.323636 295.486397 
L 325.44 295.486614 
L 333.556364 295.486802 
L 341.672727 295.486964 
L 349.789091 295.487104 
L 357.905455 295.487225 
L 366.021818 295.48733 
L 374.138182 295.487421 
L 382.254545 295.487499 
L 390.370909 295.487567 
" style="fill:none;stroke:#add8e6;stroke-linecap:square;stroke-opacity:0.3;stroke-width:1.5;"/>
   </g>
   <g id="line2d_17">
    <path clip-path="url(#p8dc5094399)" d="M 73.832727 271.234635 
L 81.949091 214.335295 
L 90.065455 154.607546 
L 98.181818 108.136124 
L 106.298182 79.155552 
L 114.414545 64.535114 
L 122.530909 58.14585 
L 130.647273 55.537188 
L 138.763636 54.474653 
L 146.88 54.013907 
L 154.996364 53.787203 
L 163.112727 53.656015 
L 171.229091 53.568 
L 179.345455 168.282336 
L 187.461818 86.025609 
L 195.578182 235.365825 
L 203.694545 157.067235 
L 211.810909 269.990932 
L 219.927273 227.531234 
L 228.043636 285.765233 
L 236.16 286.52959 
L 244.276364 294.581175 
L 252.392727 295.405434 
L 260.509091 295.480909 
L 268.625455 295.481479 
L 276.741818 295.487434 
L 284.858182 295.487479 
L 292.974545 295.487955 
L 301.090909 295.487959 
L 309.207273 295.487962 
L 317.323636 295.487965 
L 325.44 295.487968 
L 333.556364 295.48797 
L 341.672727 295.487973 
L 349.789091 295.487975 
L 357.905455 295.487977 
L 366.021818 295.487979 
L 374.138182 295.487981 
L 382.254545 295.487982 
L 390.370909 295.487984 
" style="fill:none;stroke:#add8e6;stroke-linecap:square;stroke-opacity:0.3;stroke-width:1.5;"/>
   </g>
   <g id="line2d_18">
    <path clip-path="url(#p8dc5094399)" d="M 73.832727 271.234635 
L 81.949091 214.335295 
L 90.065455 154.607546 
L 98.181818 267.487366 
L 106.298182 225.566382 
L 114.414545 179.530276 
L 122.530909 137.705926 
L 130.647273 104.845023 
L 138.763636 82.658385 
L 146.88 69.603732 
L 154.996364 203.581658 
L 163.112727 142.515097 
L 171.229091 107.39837 
L 179.345455 86.657154 
L 187.461818 74.381026 
L 195.578182 67.340792 
L 203.694545 198.097222 
L 211.810909 143.028835 
L 219.927273 110.132748 
L 228.043636 90.570575 
L 236.16 116.161042 
L 244.276364 90.643236 
L 252.392727 220.762358 
L 260.509091 281.794424 
L 268.625455 293.547933 
L 276.741818 295.239536 
L 284.858182 295.458277 
L 292.974545 295.484644 
L 301.090909 295.485115 
L 309.207273 295.487665 
L 317.323636 295.487712 
L 325.44 295.487967 
L 333.556364 295.487971 
L 341.672727 295.487997 
L 349.789091 295.487997 
L 357.905455 295.487998 
L 366.021818 295.488 
L 374.138182 295.488 
L 382.254545 295.488 
L 390.370909 295.488 
" style="fill:none;stroke:#add8e6;stroke-linecap:square;stroke-opacity:0.3;stroke-width:1.5;"/>
   </g>
   <g id="line2d_19">
    <path clip-path="url(#p8dc5094399)" d="M 73.832727 271.234635 
L 81.949091 214.335295 
L 90.065455 154.607546 
L 98.181818 108.136124 
L 106.298182 242.111464 
L 114.414545 180.709438 
L 122.530909 133.122097 
L 130.647273 100.056382 
L 138.763636 79.259431 
L 146.88 211.941859 
L 154.996364 151.582307 
L 163.112727 114.45328 
L 171.229091 91.727981 
L 179.345455 77.856663 
L 187.461818 206.62981 
L 195.578182 154.876298 
L 203.694545 121.570355 
L 211.810909 233.914089 
L 219.927273 282.240126 
L 228.043636 269.215969 
L 236.16 273.755826 
L 244.276364 290.563848 
L 252.392727 294.520155 
L 260.509091 293.620583 
L 268.625455 295.095598 
L 276.741818 295.413019 
L 284.858182 295.47453 
L 292.974545 295.459057 
L 301.090909 295.43267 
L 309.207273 295.476665 
L 317.323636 295.485852 
L 325.44 295.487613 
L 333.556364 295.487682 
L 341.672727 295.487739 
L 349.789091 295.487785 
L 357.905455 295.487824 
L 366.021818 295.487855 
L 374.138182 295.487881 
L 382.254545 295.487902 
L 390.370909 295.48792 
" style="fill:none;stroke:#add8e6;stroke-linecap:square;stroke-opacity:0.3;stroke-width:1.5;"/>
   </g>
   <g id="line2d_20">
    <path clip-path="url(#p8dc5094399)" d="M 73.832727 271.234635 
L 81.949091 214.335295 
L 90.065455 154.607546 
L 98.181818 267.487366 
L 106.298182 225.566382 
L 114.414545 179.530276 
L 122.530909 137.705926 
L 130.647273 104.845023 
L 138.763636 82.658385 
L 146.88 217.230604 
L 154.996364 161.036026 
L 163.112727 124.150942 
L 171.229091 99.56255 
L 179.345455 83.44364 
L 187.461818 73.40021 
L 195.578182 67.384681 
L 203.694545 63.821081 
L 211.810909 196.851763 
L 219.927273 141.389175 
L 228.043636 108.545117 
L 236.16 132.166528 
L 244.276364 254.806598 
L 252.392727 289.850651 
L 260.509091 282.573708 
L 268.625455 293.590168 
L 276.741818 295.248101 
L 284.858182 295.45999 
L 292.974545 295.484921 
L 301.090909 295.487679 
L 309.207273 295.487725 
L 317.323636 295.487971 
L 325.44 295.487975 
L 333.556364 295.487921 
L 341.672727 295.487991 
L 349.789091 295.487993 
L 357.905455 295.487994 
L 366.021818 295.487995 
L 374.138182 295.487995 
L 382.254545 295.487996 
L 390.370909 295.487997 
" style="fill:none;stroke:#add8e6;stroke-linecap:square;stroke-opacity:0.3;stroke-width:1.5;"/>
   </g>
   <g id="line2d_21">
    <path clip-path="url(#p8dc5094399)" d="M 73.832727 271.234635 
L 81.949091 214.335295 
L 90.065455 154.607546 
L 98.181818 267.487366 
L 106.298182 225.566382 
L 114.414545 179.530276 
L 122.530909 137.705926 
L 130.647273 104.845023 
L 138.763636 82.658385 
L 146.88 69.603732 
L 154.996364 62.632847 
L 163.112727 59.078195 
L 171.229091 57.255779 
L 179.345455 56.270463 
L 187.461818 55.688164 
L 195.578182 55.30714 
L 203.694545 55.034151 
L 211.810909 54.824864 
L 219.927273 54.656891 
L 228.043636 54.517924 
L 236.16 64.248205 
L 244.276364 235.336534 
L 252.392727 292.758835 
L 260.509091 284.451073 
L 268.625455 294.958979 
L 276.741818 295.46688 
L 284.858182 295.487222 
L 292.974545 295.487973 
L 301.090909 295.487974 
L 309.207273 295.487999 
L 317.323636 295.487999 
L 325.44 295.488 
L 333.556364 295.488 
L 341.672727 295.488 
L 349.789091 295.488 
L 357.905455 295.488 
L 366.021818 295.488 
L 374.138182 295.488 
L 382.254545 295.488 
L 390.370909 295.488 
" style="fill:none;stroke:#add8e6;stroke-linecap:square;stroke-opacity:0.3;stroke-width:1.5;"/>
   </g>
   <g id="line2d_22">
    <path clip-path="url(#p8dc5094399)" d="M 73.832727 271.234635 
L 81.949091 214.335295 
L 90.065455 154.607546 
L 98.181818 108.136124 
L 106.298182 242.111464 
L 114.414545 180.709438 
L 122.530909 133.122097 
L 130.647273 100.056382 
L 138.763636 79.259431 
L 146.88 211.941859 
L 154.996364 151.582307 
L 163.112727 255.097735 
L 171.229091 218.91554 
L 179.345455 277.120417 
L 187.461818 260.410439 
L 195.578182 240.262378 
L 203.694545 218.205082 
L 211.810909 196.142847 
L 219.927273 175.665948 
L 228.043636 157.688483 
L 236.16 186.667483 
L 244.276364 266.877532 
L 252.392727 289.782215 
L 260.509091 294.477141 
L 268.625455 295.321992 
L 276.741818 295.462403 
L 284.858182 295.484269 
L 292.974545 295.487483 
L 301.090909 295.487602 
L 309.207273 295.487091 
L 317.323636 295.487865 
L 325.44 295.487896 
L 333.556364 295.48792 
L 341.672727 295.487938 
L 349.789091 295.487952 
L 357.905455 295.487963 
L 366.021818 295.487972 
L 374.138182 295.487978 
L 382.254545 295.487983 
L 390.370909 295.487987 
" style="fill:none;stroke:#add8e6;stroke-linecap:square;stroke-opacity:0.3;stroke-width:1.5;"/>
   </g>
   <g id="line2d_23">
    <path clip-path="url(#p8dc5094399)" d="M 73.832727 271.234635 
L 81.949091 214.335295 
L 90.065455 154.607546 
L 98.181818 267.487366 
L 106.298182 225.566382 
L 114.414545 284.453737 
L 122.530909 267.702977 
L 130.647273 243.154674 
L 138.763636 286.401628 
L 146.88 276.543794 
L 154.996364 262.805493 
L 163.112727 245.75542 
L 171.229091 226.847577 
L 179.345455 207.614631 
L 187.461818 189.064639 
L 195.578182 171.637176 
L 203.694545 155.466815 
L 211.810909 140.628097 
L 219.927273 127.237037 
L 228.043636 115.433448 
L 236.16 152.022078 
L 244.276364 130.615282 
L 252.392727 116.18045 
L 260.509091 248.015122 
L 268.625455 227.776025 
L 276.741818 210.52659 
L 284.858182 276.537935 
L 292.974545 292.25288 
L 301.090909 294.992284 
L 309.207273 295.417325 
L 317.323636 295.478532 
L 325.44 295.486802 
L 333.556364 295.487856 
L 341.672727 295.487984 
L 349.789091 295.487998 
L 357.905455 295.487999 
L 366.021818 295.488 
L 374.138182 295.488 
L 382.254545 295.488 
L 390.370909 295.488 
" style="fill:none;stroke:#add8e6;stroke-linecap:square;stroke-opacity:0.3;stroke-width:1.5;"/>
   </g>
   <g id="line2d_24">
    <path clip-path="url(#p8dc5094399)" d="M 73.832727 271.234635 
L 81.949091 214.335295 
L 90.065455 285.476284 
L 98.181818 263.603635 
L 106.298182 228.587081 
L 114.414545 186.272483 
L 122.530909 144.604957 
L 130.647273 109.949618 
L 138.763636 85.598918 
L 146.88 70.946959 
L 154.996364 63.074374 
L 163.112727 59.089758 
L 171.229091 189.416072 
L 179.345455 124.194648 
L 187.461818 91.810399 
L 195.578182 221.129223 
L 203.694545 168.944776 
L 211.810909 130.566557 
L 219.927273 241.369404 
L 228.043636 204.602206 
L 236.16 217.453114 
L 244.276364 277.668965 
L 252.392727 292.40941 
L 260.509091 295.01386 
L 268.625455 295.420075 
L 276.741818 295.328058 
L 284.858182 295.462336 
L 292.974545 295.484283 
L 301.090909 295.487493 
L 309.207273 295.487571 
L 317.323636 295.487941 
L 325.44 295.48795 
L 333.556364 295.487993 
L 341.672727 295.487994 
L 349.789091 295.487999 
L 357.905455 295.487999 
L 366.021818 295.487999 
L 374.138182 295.487998 
L 382.254545 295.488 
L 390.370909 295.488 
" style="fill:none;stroke:#add8e6;stroke-linecap:square;stroke-opacity:0.3;stroke-width:1.5;"/>
   </g>
   <g id="line2d_25">
    <path clip-path="url(#p8dc5094399)" d="M 73.832727 271.234635 
L 81.949091 214.335295 
L 90.065455 285.476284 
L 98.181818 263.603635 
L 106.298182 228.587081 
L 114.414545 186.272483 
L 122.530909 144.604957 
L 130.647273 109.949618 
L 138.763636 85.598918 
L 146.88 222.057817 
L 154.996364 168.012007 
L 163.112727 130.886545 
L 171.229091 104.719078 
L 179.345455 86.813562 
L 187.461818 75.321144 
L 195.578182 68.32031 
L 203.694545 64.158071 
L 211.810909 61.665294 
L 219.927273 60.116446 
L 228.043636 59.096316 
L 236.16 78.291722 
L 244.276364 64.621754 
L 252.392727 208.593768 
L 260.509091 284.955548 
L 268.625455 294.582811 
L 276.741818 295.417373 
L 284.858182 295.253472 
L 292.974545 295.465609 
L 301.090909 295.421149 
L 309.207273 295.481402 
L 317.323636 295.487425 
L 325.44 295.487953 
L 333.556364 295.487957 
L 341.672727 295.487961 
L 349.789091 295.487997 
L 357.905455 295.487997 
L 366.021818 295.487997 
L 374.138182 295.487998 
L 382.254545 295.488 
L 390.370909 295.488 
" style="fill:none;stroke:#add8e6;stroke-linecap:square;stroke-opacity:0.3;stroke-width:1.5;"/>
   </g>
   <g id="line2d_26">
    <path clip-path="url(#p8dc5094399)" d="M 73.832727 149.967808 
L 81.949091 258.800926 
L 90.065455 284.631216 
L 98.181818 289.857004 
L 106.298182 161.206135 
L 114.414545 258.55522 
L 122.530909 280.896929 
L 130.647273 286.31441 
L 138.763636 288.853921 
L 146.88 290.493138 
L 154.996364 291.577754 
L 163.112727 165.313668 
L 171.229091 261.312731 
L 179.345455 282.745131 
L 187.461818 287.393535 
L 195.578182 164.022184 
L 203.694545 249.013089 
L 211.810909 274.008895 
L 219.927273 281.129942 
L 228.043636 283.954094 
L 236.16 256.826372 
L 244.276364 279.560419 
L 252.392727 154.526734 
L 260.509091 97.555008 
L 268.625455 85.305824 
L 276.741818 166.403854 
L 284.858182 110.73912 
L 292.974545 94.039285 
L 301.090909 88.107752 
L 309.207273 84.877728 
L 317.323636 113.072897 
L 325.44 122.551913 
L 333.556364 125.55702 
L 341.672727 126.448738 
L 349.789091 126.696904 
L 357.905455 126.761885 
L 366.021818 126.777924 
L 374.138182 126.781645 
L 382.254545 126.782437 
L 390.370909 126.782573 
" style="fill:none;stroke:#ff0000;stroke-linecap:square;stroke-opacity:0.1;stroke-width:1.5;"/>
   </g>
   <g id="line2d_27">
    <path clip-path="url(#p8dc5094399)" d="M 73.832727 149.967808 
L 81.949091 258.800926 
L 90.065455 284.631216 
L 98.181818 289.857004 
L 106.298182 292.011644 
L 114.414545 293.242182 
L 122.530909 293.931657 
L 130.647273 294.320587 
L 138.763636 294.554623 
L 146.88 294.707996 
L 154.996364 294.816541 
L 163.112727 294.897969 
L 171.229091 294.961639 
L 179.345455 181.171131 
L 187.461818 279.640861 
L 195.578182 147.526698 
L 203.694545 253.185599 
L 211.810909 140.176003 
L 219.927273 226.862218 
L 228.043636 138.172649 
L 236.16 152.49765 
L 244.276364 114.990212 
L 252.392727 104.172243 
L 260.509091 99.436741 
L 268.625455 129.309178 
L 276.741818 102.499865 
L 284.858182 128.490381 
L 292.974545 100.594986 
L 301.090909 126.500298 
L 309.207273 132.435478 
L 317.323636 133.717497 
L 325.44 133.978374 
L 333.556364 134.028529 
L 341.672727 134.037666 
L 349.789091 134.039247 
L 357.905455 134.039506 
L 366.021818 134.039546 
L 374.138182 134.039551 
L 382.254545 134.039551 
L 390.370909 134.039551 
" style="fill:none;stroke:#ff0000;stroke-linecap:square;stroke-opacity:0.1;stroke-width:1.5;"/>
   </g>
   <g id="line2d_28">
    <path clip-path="url(#p8dc5094399)" d="M 73.832727 149.967808 
L 81.949091 258.800926 
L 90.065455 284.631216 
L 98.181818 162.420754 
L 106.298182 252.342044 
L 114.414545 275.682418 
L 122.530909 282.351413 
L 130.647273 285.817209 
L 138.763636 288.349666 
L 146.88 290.178771 
L 154.996364 160.805641 
L 163.112727 258.602141 
L 171.229091 280.060469 
L 179.345455 285.100481 
L 187.461818 287.235494 
L 195.578182 288.57875 
L 203.694545 162.218672 
L 211.810909 251.480465 
L 219.927273 275.145949 
L 228.043636 281.505078 
L 236.16 253.170289 
L 244.276364 277.778023 
L 252.392727 152.932611 
L 260.509091 101.245606 
L 268.625455 89.84829 
L 276.741818 85.228763 
L 284.858182 81.770716 
L 292.974545 78.888895 
L 301.090909 110.387577 
L 309.207273 83.454481 
L 317.323636 110.704622 
L 325.44 82.274891 
L 333.556364 108.945255 
L 341.672727 80.883752 
L 349.789091 107.245495 
L 357.905455 115.853908 
L 366.021818 81.056486 
L 374.138182 106.723494 
L 382.254545 114.269809 
L 390.370909 116.405912 
" style="fill:none;stroke:#ff0000;stroke-linecap:square;stroke-opacity:0.1;stroke-width:1.5;"/>
   </g>
   <g id="line2d_29">
    <path clip-path="url(#p8dc5094399)" d="M 73.832727 149.967808 
L 81.949091 258.800926 
L 90.065455 284.631216 
L 98.181818 289.857004 
L 106.298182 161.206135 
L 114.414545 258.55522 
L 122.530909 280.896929 
L 130.647273 286.31441 
L 138.763636 288.853921 
L 146.88 159.630029 
L 154.996364 253.930112 
L 163.112727 277.375023 
L 171.229091 283.306104 
L 179.345455 285.846007 
L 187.461818 159.98036 
L 195.578182 244.870705 
L 203.694545 269.891277 
L 211.810909 153.256174 
L 219.927273 105.024952 
L 228.043636 187.080858 
L 236.16 171.783772 
L 244.276364 118.131792 
L 252.392727 102.824188 
L 260.509091 174.287953 
L 268.625455 120.573927 
L 276.741818 107.059737 
L 284.858182 102.361412 
L 292.974545 170.557819 
L 301.090909 188.794654 
L 309.207273 124.309376 
L 317.323636 111.100299 
L 325.44 107.335395 
L 333.556364 133.641669 
L 341.672727 139.064526 
L 349.789091 140.133253 
L 357.905455 140.334517 
L 366.021818 140.370788 
L 374.138182 140.377048 
L 382.254545 140.378078 
L 390.370909 140.378235 
" style="fill:none;stroke:#ff0000;stroke-linecap:square;stroke-opacity:0.1;stroke-width:1.5;"/>
   </g>
   <g id="line2d_30">
    <path clip-path="url(#p8dc5094399)" d="M 73.832727 149.967808 
L 81.949091 258.800926 
L 90.065455 284.631216 
L 98.181818 162.420754 
L 106.298182 252.342044 
L 114.414545 275.682418 
L 122.530909 282.351413 
L 130.647273 285.817209 
L 138.763636 288.349666 
L 146.88 157.027724 
L 154.996364 254.032303 
L 163.112727 276.587711 
L 171.229091 282.307305 
L 179.345455 284.958556 
L 187.461818 286.752086 
L 195.578182 288.066217 
L 203.694545 289.042516 
L 211.810909 160.212518 
L 219.927273 251.540821 
L 228.043636 275.377671 
L 236.16 247.377265 
L 244.276364 130.336762 
L 252.392727 97.842778 
L 260.509091 185.641029 
L 268.625455 123.721479 
L 276.741818 105.299679 
L 284.858182 98.592274 
L 292.974545 94.763139 
L 301.090909 91.827532 
L 309.207273 124.260684 
L 317.323636 96.252238 
L 325.44 124.225797 
L 333.556364 197.035973 
L 341.672727 113.628142 
L 349.789091 131.121527 
L 357.905455 135.610746 
L 366.021818 136.709454 
L 374.138182 136.965935 
L 382.254545 137.023147 
L 390.370909 137.035366 
" style="fill:none;stroke:#ff0000;stroke-linecap:square;stroke-opacity:0.1;stroke-width:1.5;"/>
   </g>
   <g id="line2d_31">
    <path clip-path="url(#p8dc5094399)" d="M 73.832727 149.967808 
L 81.949091 258.800926 
L 90.065455 284.631216 
L 98.181818 162.420754 
L 106.298182 252.342044 
L 114.414545 275.682418 
L 122.530909 282.351413 
L 130.647273 285.817209 
L 138.763636 288.349666 
L 146.88 290.178771 
L 154.996364 291.413517 
L 163.112727 292.227823 
L 171.229091 292.776604 
L 179.345455 293.163522 
L 187.461818 293.45008 
L 195.578182 293.671576 
L 203.694545 293.848608 
L 211.810909 293.993735 
L 219.927273 294.11504 
L 228.043636 294.218001 
L 236.16 284.801253 
L 244.276364 126.047246 
L 252.392727 84.807322 
L 260.509091 195.305547 
L 268.625455 124.889732 
L 276.741818 102.616478 
L 284.858182 94.608249 
L 292.974545 90.391574 
L 301.090909 123.955576 
L 309.207273 94.969217 
L 317.323636 123.907925 
L 325.44 93.359869 
L 333.556364 121.925636 
L 341.672727 210.915036 
L 349.789091 114.864208 
L 357.905455 130.757482 
L 366.021818 135.039096 
L 374.138182 136.137517 
L 382.254545 136.405942 
L 390.370909 136.468549 
" style="fill:none;stroke:#ff0000;stroke-linecap:square;stroke-opacity:0.1;stroke-width:1.5;"/>
   </g>
   <g id="line2d_32">
    <path clip-path="url(#p8dc5094399)" d="M 73.832727 149.967808 
L 81.949091 258.800926 
L 90.065455 284.631216 
L 98.181818 289.857004 
L 106.298182 161.206135 
L 114.414545 258.55522 
L 122.530909 280.896929 
L 130.647273 286.31441 
L 138.763636 288.853921 
L 146.88 159.630029 
L 154.996364 253.930112 
L 163.112727 141.106539 
L 171.229091 226.8639 
L 179.345455 137.670826 
L 187.461818 209.185075 
L 195.578182 234.578039 
L 203.694545 245.163598 
L 211.810909 251.224831 
L 219.927273 255.440927 
L 228.043636 258.651233 
L 236.16 218.912702 
L 244.276364 129.379039 
L 252.392727 108.20115 
L 260.509091 101.981031 
L 268.625455 98.10283 
L 276.741818 94.808945 
L 284.858182 91.903705 
L 292.974545 89.339755 
L 301.090909 127.244061 
L 309.207273 208.588101 
L 317.323636 114.486481 
L 325.44 136.190717 
L 333.556364 141.827799 
L 341.672727 143.226511 
L 349.789091 143.557968 
L 357.905455 143.63311 
L 366.021818 143.649435 
L 374.138182 143.652839 
L 382.254545 143.653521 
L 390.370909 143.653651 
" style="fill:none;stroke:#ff0000;stroke-linecap:square;stroke-opacity:0.1;stroke-width:1.5;"/>
   </g>
   <g id="line2d_33">
    <path clip-path="url(#p8dc5094399)" d="M 73.832727 149.967808 
L 81.949091 258.800926 
L 90.065455 284.631216 
L 98.181818 162.420754 
L 106.298182 252.342044 
L 114.414545 152.639335 
L 122.530909 233.574899 
L 130.647273 257.808199 
L 138.763636 161.47076 
L 146.88 229.621377 
L 154.996364 248.069971 
L 163.112727 255.198408 
L 171.229091 259.319775 
L 179.345455 262.102243 
L 187.461818 264.156402 
L 195.578182 265.901423 
L 203.694545 267.614133 
L 211.810909 269.423847 
L 219.927273 271.343554 
L 228.043636 273.316431 
L 236.16 235.105276 
L 244.276364 267.396258 
L 252.392727 272.906561 
L 260.509091 138.300459 
L 268.625455 232.868247 
L 276.741818 252.315509 
L 284.858182 149.88791 
L 292.974545 128.592755 
L 301.090909 122.804671 
L 309.207273 118.998437 
L 317.323636 115.575843 
L 325.44 112.421069 
L 333.556364 109.526255 
L 341.672727 106.875776 
L 349.789091 104.449248 
L 357.905455 149.797267 
L 366.021818 110.704776 
L 374.138182 149.931043 
L 382.254545 109.354541 
L 390.370909 148.255082 
" style="fill:none;stroke:#ff0000;stroke-linecap:square;stroke-opacity:0.1;stroke-width:1.5;"/>
   </g>
   <g id="line2d_34">
    <path clip-path="url(#p8dc5094399)" d="M 73.832727 149.967808 
L 81.949091 258.800926 
L 90.065455 154.895537 
L 98.181818 243.007409 
L 106.298182 269.431828 
L 114.414545 278.327319 
L 122.530909 282.720727 
L 130.647273 285.913658 
L 138.763636 288.501536 
L 146.88 290.410815 
L 154.996364 291.68923 
L 163.112727 292.514635 
L 171.229091 166.28781 
L 179.345455 266.828362 
L 187.461818 285.163239 
L 195.578182 162.070672 
L 203.694545 251.401047 
L 211.810909 274.712528 
L 219.927273 159.952063 
L 228.043636 237.328408 
L 236.16 215.32444 
L 244.276364 135.407357 
L 252.392727 112.759945 
L 260.509091 105.338198 
L 268.625455 100.947611 
L 276.741818 191.461788 
L 284.858182 127.44534 
L 292.974545 110.704884 
L 301.090909 105.288709 
L 309.207273 138.532469 
L 317.323636 109.415051 
L 325.44 138.376894 
L 333.556364 108.007228 
L 341.672727 136.84442 
L 349.789091 106.502513 
L 357.905455 135.380689 
L 366.021818 141.782972 
L 374.138182 200.708334 
L 382.254545 119.706578 
L 390.370909 139.654614 
" style="fill:none;stroke:#ff0000;stroke-linecap:square;stroke-opacity:0.1;stroke-width:1.5;"/>
   </g>
   <g id="line2d_35">
    <path clip-path="url(#p8dc5094399)" d="M 73.832727 149.967808 
L 81.949091 258.800926 
L 90.065455 154.895537 
L 98.181818 243.007409 
L 106.298182 269.431828 
L 114.414545 278.327319 
L 122.530909 282.720727 
L 130.647273 285.913658 
L 138.763636 288.501536 
L 146.88 155.616069 
L 154.996364 255.802034 
L 163.112727 277.332639 
L 171.229091 282.6392 
L 179.345455 285.219327 
L 187.461818 287.040609 
L 195.578182 288.397606 
L 203.694545 289.406102 
L 211.810909 290.162283 
L 219.927273 290.742396 
L 228.043636 291.200373 
L 236.16 272.919131 
L 244.276364 289.223041 
L 252.392727 152.862472 
L 260.509091 95.971672 
L 268.625455 88.289454 
L 276.741818 84.471767 
L 284.858182 191.063973 
L 292.974545 118.700102 
L 301.090909 200.135376 
L 309.207273 126.87323 
L 317.323636 105.708734 
L 325.44 99.016638 
L 333.556364 132.375851 
L 341.672727 142.978188 
L 349.789091 105.787745 
L 357.905455 133.932634 
L 366.021818 141.795998 
L 374.138182 143.895851 
L 382.254545 104.533469 
L 390.370909 133.423208 
" style="fill:none;stroke:#ff0000;stroke-linecap:square;stroke-opacity:0.1;stroke-width:1.5;"/>
   </g>
   <g id="line2d_36">
    <path clip-path="url(#p8dc5094399)" d="M 73.832727 271.234635 
L 81.949091 214.335295 
L 90.065455 180.781293 
L 98.181818 202.970123 
L 106.298182 216.492963 
L 114.414545 180.225296 
L 122.530909 142.754281 
L 130.647273 113.329531 
L 138.763636 99.782756 
L 146.88 147.146597 
L 154.996364 133.963208 
L 163.112727 137.621832 
L 171.229091 127.390833 
L 179.345455 125.98817 
L 187.461818 118.80752 
L 195.578182 148.505982 
L 203.694545 134.885371 
L 211.810909 153.87811 
L 219.927273 151.070738 
L 228.043636 142.363171 
L 236.16 161.153863 
L 244.276364 198.763013 
L 252.392727 251.301305 
L 260.509091 284.05497 
L 268.625455 287.912651 
L 276.741818 286.36615 
L 284.858182 293.474141 
L 292.974545 295.14648 
L 301.090909 295.424272 
L 309.207273 295.478755 
L 317.323636 295.486566 
L 325.44 295.487674 
L 333.556364 295.487807 
L 341.672727 295.487854 
L 349.789091 295.48788 
L 357.905455 295.487898 
L 366.021818 295.487913 
L 374.138182 295.487925 
L 382.254545 295.487936 
L 390.370909 295.487945 
" style="fill:none;stroke:#1f77b4;stroke-linecap:square;stroke-width:1.5;"/>
   </g>
   <g id="line2d_37">
    <path clip-path="url(#p8dc5094399)" d="M 73.832727 149.967808 
L 81.949091 258.800926 
L 90.065455 258.68408 
L 98.181818 229.512585 
L 106.298182 232.386188 
L 114.414545 260.524907 
L 122.530909 278.269304 
L 130.647273 284.035096 
L 138.763636 276.463922 
L 146.88 231.749472 
L 154.996364 259.606722 
L 163.112727 253.115656 
L 171.229091 262.983554 
L 179.345455 256.480559 
L 187.461818 263.999774 
L 195.578182 237.768387 
L 203.694545 257.078464 
L 211.810909 235.865128 
L 219.927273 241.129786 
L 228.043636 252.080479 
L 236.16 230.871815 
L 244.276364 186.825015 
L 252.392727 134.3836 
L 260.509091 129.506324 
L 268.625455 119.385657 
L 276.741818 129.216639 
L 284.858182 117.686308 
L 292.974545 107.65732 
L 301.090909 128.504621 
L 309.207273 123.72992 
L 317.323636 113.394159 
L 325.44 114.973156 
L 333.556364 131.287121 
L 341.672727 133.490275 
L 349.789091 121.439811 
L 357.905455 134.610174 
L 366.021818 129.192648 
L 374.138182 141.921326 
L 382.254545 126.614707 
L 390.370909 135.609674 
" style="fill:none;stroke:#ff0000;stroke-linecap:square;stroke-width:1.5;"/>
   </g>
   <g id="patch_5">
    <path d="M 57.6 307.584 
L 57.6 41.472 
" style="fill:none;stroke:#000000;stroke-linecap:square;stroke-linejoin:miter;stroke-width:0.8;"/>
   </g>
   <g id="patch_6">
    <path d="M 414.72 307.584 
L 414.72 41.472 
" style="fill:none;stroke:#000000;stroke-linecap:square;stroke-linejoin:miter;stroke-width:0.8;"/>
   </g>
   <g id="patch_7">
    <path d="M 57.6 307.584 
L 414.72 307.584 
" style="fill:none;stroke:#000000;stroke-linecap:square;stroke-linejoin:miter;stroke-width:0.8;"/>
   </g>
   <g id="patch_8">
    <path d="M 57.6 41.472 
L 414.72 41.472 
" style="fill:none;stroke:#000000;stroke-linecap:square;stroke-linejoin:miter;stroke-width:0.8;"/>
   </g>
   <g id="text_18">
    <!-- Type2_depressed -->
    <g transform="translate(184.4775 35.472)scale(0.12 -0.12)">
     <defs>
      <path d="M -19 4666 
L 3928 4666 
L 3928 4134 
L 2272 4134 
L 2272 0 
L 1638 0 
L 1638 4134 
L -19 4134 
L -19 4666 
z
" id="DejaVuSans-54" transform="scale(0.015625)"/>
      <path d="M 2059 -325 
Q 1816 -950 1584 -1140 
Q 1353 -1331 966 -1331 
L 506 -1331 
L 506 -850 
L 844 -850 
Q 1081 -850 1212 -737 
Q 1344 -625 1503 -206 
L 1606 56 
L 191 3500 
L 800 3500 
L 1894 763 
L 2988 3500 
L 3597 3500 
L 2059 -325 
z
" id="DejaVuSans-79" transform="scale(0.015625)"/>
      <path d="M 3263 -1063 
L 3263 -1509 
L -63 -1509 
L -63 -1063 
L 3263 -1063 
z
" id="DejaVuSans-5f" transform="scale(0.015625)"/>
      <path d="M 2906 2969 
L 2906 4863 
L 3481 4863 
L 3481 0 
L 2906 0 
L 2906 525 
Q 2725 213 2448 61 
Q 2172 -91 1784 -91 
Q 1150 -91 751 415 
Q 353 922 353 1747 
Q 353 2572 751 3078 
Q 1150 3584 1784 3584 
Q 2172 3584 2448 3432 
Q 2725 3281 2906 2969 
z
M 947 1747 
Q 947 1113 1208 752 
Q 1469 391 1925 391 
Q 2381 391 2643 752 
Q 2906 1113 2906 1747 
Q 2906 2381 2643 2742 
Q 2381 3103 1925 3103 
Q 1469 3103 1208 2742 
Q 947 2381 947 1747 
z
" id="DejaVuSans-64" transform="scale(0.015625)"/>
      <path d="M 2631 2963 
Q 2534 3019 2420 3045 
Q 2306 3072 2169 3072 
Q 1681 3072 1420 2755 
Q 1159 2438 1159 1844 
L 1159 0 
L 581 0 
L 581 3500 
L 1159 3500 
L 1159 2956 
Q 1341 3275 1631 3429 
Q 1922 3584 2338 3584 
Q 2397 3584 2469 3576 
Q 2541 3569 2628 3553 
L 2631 2963 
z
" id="DejaVuSans-72" transform="scale(0.015625)"/>
      <path d="M 2834 3397 
L 2834 2853 
Q 2591 2978 2328 3040 
Q 2066 3103 1784 3103 
Q 1356 3103 1142 2972 
Q 928 2841 928 2578 
Q 928 2378 1081 2264 
Q 1234 2150 1697 2047 
L 1894 2003 
Q 2506 1872 2764 1633 
Q 3022 1394 3022 966 
Q 3022 478 2636 193 
Q 2250 -91 1575 -91 
Q 1294 -91 989 -36 
Q 684 19 347 128 
L 347 722 
Q 666 556 975 473 
Q 1284 391 1588 391 
Q 1994 391 2212 530 
Q 2431 669 2431 922 
Q 2431 1156 2273 1281 
Q 2116 1406 1581 1522 
L 1381 1569 
Q 847 1681 609 1914 
Q 372 2147 372 2553 
Q 372 3047 722 3315 
Q 1072 3584 1716 3584 
Q 2034 3584 2315 3537 
Q 2597 3491 2834 3397 
z
" id="DejaVuSans-73" transform="scale(0.015625)"/>
     </defs>
     <use xlink:href="#DejaVuSans-54"/>
     <use x="45.458984" xlink:href="#DejaVuSans-79"/>
     <use x="104.638672" xlink:href="#DejaVuSans-70"/>
     <use x="168.115234" xlink:href="#DejaVuSans-65"/>
     <use x="229.638672" xlink:href="#DejaVuSans-32"/>
     <use x="293.261719" xlink:href="#DejaVuSans-5f"/>
     <use x="343.261719" xlink:href="#DejaVuSans-64"/>
     <use x="406.738281" xlink:href="#DejaVuSans-65"/>
     <use x="468.261719" xlink:href="#DejaVuSans-70"/>
     <use x="531.738281" xlink:href="#DejaVuSans-72"/>
     <use x="570.601562" xlink:href="#DejaVuSans-65"/>
     <use x="632.125" xlink:href="#DejaVuSans-73"/>
     <use x="684.224609" xlink:href="#DejaVuSans-73"/>
     <use x="736.324219" xlink:href="#DejaVuSans-65"/>
     <use x="797.847656" xlink:href="#DejaVuSans-64"/>
    </g>
   </g>
   <g id="legend_1">
    <g id="patch_9">
     <path d="M 351.635625 78.82825 
L 407.72 78.82825 
Q 409.72 78.82825 409.72 76.82825 
L 409.72 48.472 
Q 409.72 46.472 407.72 46.472 
L 351.635625 46.472 
Q 349.635625 46.472 349.635625 48.472 
L 349.635625 76.82825 
Q 349.635625 78.82825 351.635625 78.82825 
z
" style="fill:#ffffff;opacity:0.8;stroke:#cccccc;stroke-linejoin:miter;"/>
    </g>
    <g id="line2d_38">
     <path d="M 353.635625 54.570437 
L 373.635625 54.570437 
" style="fill:none;stroke:#1f77b4;stroke-linecap:square;stroke-width:1.5;"/>
    </g>
    <g id="line2d_39"/>
    <g id="text_19">
     <!-- coop -->
     <g transform="translate(381.635625 58.070437)scale(0.1 -0.1)">
      <use xlink:href="#DejaVuSans-63"/>
      <use x="54.980469" xlink:href="#DejaVuSans-6f"/>
      <use x="116.162109" xlink:href="#DejaVuSans-6f"/>
      <use x="177.34375" xlink:href="#DejaVuSans-70"/>
     </g>
    </g>
    <g id="line2d_40">
     <path d="M 353.635625 69.248562 
L 373.635625 69.248562 
" style="fill:none;stroke:#ff0000;stroke-linecap:square;stroke-width:1.5;"/>
    </g>
    <g id="line2d_41"/>
    <g id="text_20">
     <!-- host -->
     <g transform="translate(381.635625 72.748562)scale(0.1 -0.1)">
      <defs>
       <path d="M 3513 2113 
L 3513 0 
L 2938 0 
L 2938 2094 
Q 2938 2591 2744 2837 
Q 2550 3084 2163 3084 
Q 1697 3084 1428 2787 
Q 1159 2491 1159 1978 
L 1159 0 
L 581 0 
L 581 4863 
L 1159 4863 
L 1159 2956 
Q 1366 3272 1645 3428 
Q 1925 3584 2291 3584 
Q 2894 3584 3203 3211 
Q 3513 2838 3513 2113 
z
" id="DejaVuSans-68" transform="scale(0.015625)"/>
      </defs>
      <use xlink:href="#DejaVuSans-68"/>
      <use x="63.378906" xlink:href="#DejaVuSans-6f"/>
      <use x="124.560547" xlink:href="#DejaVuSans-73"/>
      <use x="176.660156" xlink:href="#DejaVuSans-74"/>
     </g>
    </g>
   </g>
  </g>
 </g>
 <defs>
  <clipPath id="p8dc5094399">
   <rect height="266.112" width="357.12" x="57.6" y="41.472"/>
  </clipPath>
 </defs>
</svg>
