<?xml version="1.0" encoding="utf-8" standalone="no"?>
<!DOCTYPE svg PUBLIC "-//W3C//DTD SVG 1.1//EN"
  "http://www.w3.org/Graphics/SVG/1.1/DTD/svg11.dtd">
<svg height="345.6pt" version="1.1" viewBox="0 0 460.8 345.6" width="460.8pt" xmlns="http://www.w3.org/2000/svg" xmlns:xlink="http://www.w3.org/1999/xlink">
 <metadata>
  <rdf:RDF xmlns:cc="http://creativecommons.org/ns#" xmlns:dc="http://purl.org/dc/elements/1.1/" xmlns:rdf="http://www.w3.org/1999/02/22-rdf-syntax-ns#">
   <cc:Work>
    <dc:type rdf:resource="http://purl.org/dc/dcmitype/StillImage"/>
    <dc:date>2023-10-05T17:25:59.031248</dc:date>
    <dc:format>image/svg+xml</dc:format>
    <dc:creator>
     <cc:Agent>
      <dc:title>Matplotlib v3.4.1, https://matplotlib.org/</dc:title>
     </cc:Agent>
    </dc:creator>
   </cc:Work>
  </rdf:RDF>
 </metadata>
 <defs>
  <style type="text/css">*{stroke-linecap:butt;stroke-linejoin:round;}</style>
 </defs>
 <g id="figure_1">
  <g id="patch_1">
   <path d="M 0 345.6 
L 460.8 345.6 
L 460.8 0 
L 0 0 
z
" style="fill:#ffffff;"/>
  </g>
  <g id="axes_1">
   <g id="patch_2">
    <path d="M 57.6 307.584 
L 414.72 307.584 
L 414.72 41.472 
L 57.6 41.472 
z
" style="fill:#ffffff;"/>
   </g>
   <g id="patch_3">
    <path clip-path="url(#p679acbc256)" d="M 73.832727 307.584 
L 73.832727 41.472 
L 236.16 41.472 
L 236.16 307.584 
z
" style="fill:#ff7f50;opacity:0.2;"/>
   </g>
   <g id="patch_4">
    <path clip-path="url(#p679acbc256)" d="M 236.16 307.584 
L 236.16 41.472 
L 398.487273 41.472 
L 398.487273 307.584 
z
" style="fill:#add8e6;opacity:0.2;"/>
   </g>
   <g id="matplotlib.axis_1">
    <g id="xtick_1">
     <g id="line2d_1">
      <defs>
       <path d="M 0 0 
L 0 3.5 
" id="m0aef9ef09e" style="stroke:#000000;stroke-width:0.8;"/>
      </defs>
      <g>
       <use style="stroke:#000000;stroke-width:0.8;" x="73.832727" xlink:href="#m0aef9ef09e" y="307.584"/>
      </g>
     </g>
     <g id="text_1">
      <!-- 0 -->
      <g transform="translate(70.651477 322.182437)scale(0.1 -0.1)">
       <defs>
        <path d="M 2034 4250 
Q 1547 4250 1301 3770 
Q 1056 3291 1056 2328 
Q 1056 1369 1301 889 
Q 1547 409 2034 409 
Q 2525 409 2770 889 
Q 3016 1369 3016 2328 
Q 3016 3291 2770 3770 
Q 2525 4250 2034 4250 
z
M 2034 4750 
Q 2819 4750 3233 4129 
Q 3647 3509 3647 2328 
Q 3647 1150 3233 529 
Q 2819 -91 2034 -91 
Q 1250 -91 836 529 
Q 422 1150 422 2328 
Q 422 3509 836 4129 
Q 1250 4750 2034 4750 
z
" id="DejaVuSans-30" transform="scale(0.015625)"/>
       </defs>
       <use xlink:href="#DejaVuSans-30"/>
      </g>
     </g>
    </g>
    <g id="xtick_2">
     <g id="line2d_2">
      <g>
       <use style="stroke:#000000;stroke-width:0.8;" x="114.414545" xlink:href="#m0aef9ef09e" y="307.584"/>
      </g>
     </g>
     <g id="text_2">
      <!-- 5 -->
      <g transform="translate(111.233295 322.182437)scale(0.1 -0.1)">
       <defs>
        <path d="M 691 4666 
L 3169 4666 
L 3169 4134 
L 1269 4134 
L 1269 2991 
Q 1406 3038 1543 3061 
Q 1681 3084 1819 3084 
Q 2600 3084 3056 2656 
Q 3513 2228 3513 1497 
Q 3513 744 3044 326 
Q 2575 -91 1722 -91 
Q 1428 -91 1123 -41 
Q 819 9 494 109 
L 494 744 
Q 775 591 1075 516 
Q 1375 441 1709 441 
Q 2250 441 2565 725 
Q 2881 1009 2881 1497 
Q 2881 1984 2565 2268 
Q 2250 2553 1709 2553 
Q 1456 2553 1204 2497 
Q 953 2441 691 2322 
L 691 4666 
z
" id="DejaVuSans-35" transform="scale(0.015625)"/>
       </defs>
       <use xlink:href="#DejaVuSans-35"/>
      </g>
     </g>
    </g>
    <g id="xtick_3">
     <g id="line2d_3">
      <g>
       <use style="stroke:#000000;stroke-width:0.8;" x="154.996364" xlink:href="#m0aef9ef09e" y="307.584"/>
      </g>
     </g>
     <g id="text_3">
      <!-- 10 -->
      <g transform="translate(148.633864 322.182437)scale(0.1 -0.1)">
       <defs>
        <path d="M 794 531 
L 1825 531 
L 1825 4091 
L 703 3866 
L 703 4441 
L 1819 4666 
L 2450 4666 
L 2450 531 
L 3481 531 
L 3481 0 
L 794 0 
L 794 531 
z
" id="DejaVuSans-31" transform="scale(0.015625)"/>
       </defs>
       <use xlink:href="#DejaVuSans-31"/>
       <use x="63.623047" xlink:href="#DejaVuSans-30"/>
      </g>
     </g>
    </g>
    <g id="xtick_4">
     <g id="line2d_4">
      <g>
       <use style="stroke:#000000;stroke-width:0.8;" x="195.578182" xlink:href="#m0aef9ef09e" y="307.584"/>
      </g>
     </g>
     <g id="text_4">
      <!-- 15 -->
      <g transform="translate(189.215682 322.182437)scale(0.1 -0.1)">
       <use xlink:href="#DejaVuSans-31"/>
       <use x="63.623047" xlink:href="#DejaVuSans-35"/>
      </g>
     </g>
    </g>
    <g id="xtick_5">
     <g id="line2d_5">
      <g>
       <use style="stroke:#000000;stroke-width:0.8;" x="236.16" xlink:href="#m0aef9ef09e" y="307.584"/>
      </g>
     </g>
     <g id="text_5">
      <!-- 20 -->
      <g transform="translate(229.7975 322.182437)scale(0.1 -0.1)">
       <defs>
        <path d="M 1228 531 
L 3431 531 
L 3431 0 
L 469 0 
L 469 531 
Q 828 903 1448 1529 
Q 2069 2156 2228 2338 
Q 2531 2678 2651 2914 
Q 2772 3150 2772 3378 
Q 2772 3750 2511 3984 
Q 2250 4219 1831 4219 
Q 1534 4219 1204 4116 
Q 875 4013 500 3803 
L 500 4441 
Q 881 4594 1212 4672 
Q 1544 4750 1819 4750 
Q 2544 4750 2975 4387 
Q 3406 4025 3406 3419 
Q 3406 3131 3298 2873 
Q 3191 2616 2906 2266 
Q 2828 2175 2409 1742 
Q 1991 1309 1228 531 
z
" id="DejaVuSans-32" transform="scale(0.015625)"/>
       </defs>
       <use xlink:href="#DejaVuSans-32"/>
       <use x="63.623047" xlink:href="#DejaVuSans-30"/>
      </g>
     </g>
    </g>
    <g id="xtick_6">
     <g id="line2d_6">
      <g>
       <use style="stroke:#000000;stroke-width:0.8;" x="276.741818" xlink:href="#m0aef9ef09e" y="307.584"/>
      </g>
     </g>
     <g id="text_6">
      <!-- 25 -->
      <g transform="translate(270.379318 322.182437)scale(0.1 -0.1)">
       <use xlink:href="#DejaVuSans-32"/>
       <use x="63.623047" xlink:href="#DejaVuSans-35"/>
      </g>
     </g>
    </g>
    <g id="xtick_7">
     <g id="line2d_7">
      <g>
       <use style="stroke:#000000;stroke-width:0.8;" x="317.323636" xlink:href="#m0aef9ef09e" y="307.584"/>
      </g>
     </g>
     <g id="text_7">
      <!-- 30 -->
      <g transform="translate(310.961136 322.182437)scale(0.1 -0.1)">
       <defs>
        <path d="M 2597 2516 
Q 3050 2419 3304 2112 
Q 3559 1806 3559 1356 
Q 3559 666 3084 287 
Q 2609 -91 1734 -91 
Q 1441 -91 1130 -33 
Q 819 25 488 141 
L 488 750 
Q 750 597 1062 519 
Q 1375 441 1716 441 
Q 2309 441 2620 675 
Q 2931 909 2931 1356 
Q 2931 1769 2642 2001 
Q 2353 2234 1838 2234 
L 1294 2234 
L 1294 2753 
L 1863 2753 
Q 2328 2753 2575 2939 
Q 2822 3125 2822 3475 
Q 2822 3834 2567 4026 
Q 2313 4219 1838 4219 
Q 1578 4219 1281 4162 
Q 984 4106 628 3988 
L 628 4550 
Q 988 4650 1302 4700 
Q 1616 4750 1894 4750 
Q 2613 4750 3031 4423 
Q 3450 4097 3450 3541 
Q 3450 3153 3228 2886 
Q 3006 2619 2597 2516 
z
" id="DejaVuSans-33" transform="scale(0.015625)"/>
       </defs>
       <use xlink:href="#DejaVuSans-33"/>
       <use x="63.623047" xlink:href="#DejaVuSans-30"/>
      </g>
     </g>
    </g>
    <g id="xtick_8">
     <g id="line2d_8">
      <g>
       <use style="stroke:#000000;stroke-width:0.8;" x="357.905455" xlink:href="#m0aef9ef09e" y="307.584"/>
      </g>
     </g>
     <g id="text_8">
      <!-- 35 -->
      <g transform="translate(351.542955 322.182437)scale(0.1 -0.1)">
       <use xlink:href="#DejaVuSans-33"/>
       <use x="63.623047" xlink:href="#DejaVuSans-35"/>
      </g>
     </g>
    </g>
    <g id="xtick_9">
     <g id="line2d_9">
      <g>
       <use style="stroke:#000000;stroke-width:0.8;" x="398.487273" xlink:href="#m0aef9ef09e" y="307.584"/>
      </g>
     </g>
     <g id="text_9">
      <!-- 40 -->
      <g transform="translate(392.124773 322.182437)scale(0.1 -0.1)">
       <defs>
        <path d="M 2419 4116 
L 825 1625 
L 2419 1625 
L 2419 4116 
z
M 2253 4666 
L 3047 4666 
L 3047 1625 
L 3713 1625 
L 3713 1100 
L 3047 1100 
L 3047 0 
L 2419 0 
L 2419 1100 
L 313 1100 
L 313 1709 
L 2253 4666 
z
" id="DejaVuSans-34" transform="scale(0.015625)"/>
       </defs>
       <use xlink:href="#DejaVuSans-34"/>
       <use x="63.623047" xlink:href="#DejaVuSans-30"/>
      </g>
     </g>
    </g>
    <g id="text_10">
     <!-- t -->
     <g transform="translate(234.199844 335.860562)scale(0.1 -0.1)">
      <defs>
       <path d="M 1172 4494 
L 1172 3500 
L 2356 3500 
L 2356 3053 
L 1172 3053 
L 1172 1153 
Q 1172 725 1289 603 
Q 1406 481 1766 481 
L 2356 481 
L 2356 0 
L 1766 0 
Q 1100 0 847 248 
Q 594 497 594 1153 
L 594 3053 
L 172 3053 
L 172 3500 
L 594 3500 
L 594 4494 
L 1172 4494 
z
" id="DejaVuSans-74" transform="scale(0.015625)"/>
      </defs>
      <use xlink:href="#DejaVuSans-74"/>
     </g>
    </g>
   </g>
   <g id="matplotlib.axis_2">
    <g id="ytick_1">
     <g id="line2d_10">
      <defs>
       <path d="M 0 0 
L -3.5 0 
" id="mddc2ed5250" style="stroke:#000000;stroke-width:0.8;"/>
      </defs>
      <g>
       <use style="stroke:#000000;stroke-width:0.8;" x="57.6" xlink:href="#mddc2ed5250" y="307.584"/>
      </g>
     </g>
     <g id="text_11">
      <!-- 0.0 -->
      <g transform="translate(34.696875 311.383219)scale(0.1 -0.1)">
       <defs>
        <path d="M 684 794 
L 1344 794 
L 1344 0 
L 684 0 
L 684 794 
z
" id="DejaVuSans-2e" transform="scale(0.015625)"/>
       </defs>
       <use xlink:href="#DejaVuSans-30"/>
       <use x="63.623047" xlink:href="#DejaVuSans-2e"/>
       <use x="95.410156" xlink:href="#DejaVuSans-30"/>
      </g>
     </g>
    </g>
    <g id="ytick_2">
     <g id="line2d_11">
      <g>
       <use style="stroke:#000000;stroke-width:0.8;" x="57.6" xlink:href="#mddc2ed5250" y="254.3616"/>
      </g>
     </g>
     <g id="text_12">
      <!-- 0.2 -->
      <g transform="translate(34.696875 258.160819)scale(0.1 -0.1)">
       <use xlink:href="#DejaVuSans-30"/>
       <use x="63.623047" xlink:href="#DejaVuSans-2e"/>
       <use x="95.410156" xlink:href="#DejaVuSans-32"/>
      </g>
     </g>
    </g>
    <g id="ytick_3">
     <g id="line2d_12">
      <g>
       <use style="stroke:#000000;stroke-width:0.8;" x="57.6" xlink:href="#mddc2ed5250" y="201.1392"/>
      </g>
     </g>
     <g id="text_13">
      <!-- 0.4 -->
      <g transform="translate(34.696875 204.938419)scale(0.1 -0.1)">
       <use xlink:href="#DejaVuSans-30"/>
       <use x="63.623047" xlink:href="#DejaVuSans-2e"/>
       <use x="95.410156" xlink:href="#DejaVuSans-34"/>
      </g>
     </g>
    </g>
    <g id="ytick_4">
     <g id="line2d_13">
      <g>
       <use style="stroke:#000000;stroke-width:0.8;" x="57.6" xlink:href="#mddc2ed5250" y="147.9168"/>
      </g>
     </g>
     <g id="text_14">
      <!-- 0.6 -->
      <g transform="translate(34.696875 151.716019)scale(0.1 -0.1)">
       <defs>
        <path d="M 2113 2584 
Q 1688 2584 1439 2293 
Q 1191 2003 1191 1497 
Q 1191 994 1439 701 
Q 1688 409 2113 409 
Q 2538 409 2786 701 
Q 3034 994 3034 1497 
Q 3034 2003 2786 2293 
Q 2538 2584 2113 2584 
z
M 3366 4563 
L 3366 3988 
Q 3128 4100 2886 4159 
Q 2644 4219 2406 4219 
Q 1781 4219 1451 3797 
Q 1122 3375 1075 2522 
Q 1259 2794 1537 2939 
Q 1816 3084 2150 3084 
Q 2853 3084 3261 2657 
Q 3669 2231 3669 1497 
Q 3669 778 3244 343 
Q 2819 -91 2113 -91 
Q 1303 -91 875 529 
Q 447 1150 447 2328 
Q 447 3434 972 4092 
Q 1497 4750 2381 4750 
Q 2619 4750 2861 4703 
Q 3103 4656 3366 4563 
z
" id="DejaVuSans-36" transform="scale(0.015625)"/>
       </defs>
       <use xlink:href="#DejaVuSans-30"/>
       <use x="63.623047" xlink:href="#DejaVuSans-2e"/>
       <use x="95.410156" xlink:href="#DejaVuSans-36"/>
      </g>
     </g>
    </g>
    <g id="ytick_5">
     <g id="line2d_14">
      <g>
       <use style="stroke:#000000;stroke-width:0.8;" x="57.6" xlink:href="#mddc2ed5250" y="94.6944"/>
      </g>
     </g>
     <g id="text_15">
      <!-- 0.8 -->
      <g transform="translate(34.696875 98.493619)scale(0.1 -0.1)">
       <defs>
        <path d="M 2034 2216 
Q 1584 2216 1326 1975 
Q 1069 1734 1069 1313 
Q 1069 891 1326 650 
Q 1584 409 2034 409 
Q 2484 409 2743 651 
Q 3003 894 3003 1313 
Q 3003 1734 2745 1975 
Q 2488 2216 2034 2216 
z
M 1403 2484 
Q 997 2584 770 2862 
Q 544 3141 544 3541 
Q 544 4100 942 4425 
Q 1341 4750 2034 4750 
Q 2731 4750 3128 4425 
Q 3525 4100 3525 3541 
Q 3525 3141 3298 2862 
Q 3072 2584 2669 2484 
Q 3125 2378 3379 2068 
Q 3634 1759 3634 1313 
Q 3634 634 3220 271 
Q 2806 -91 2034 -91 
Q 1263 -91 848 271 
Q 434 634 434 1313 
Q 434 1759 690 2068 
Q 947 2378 1403 2484 
z
M 1172 3481 
Q 1172 3119 1398 2916 
Q 1625 2713 2034 2713 
Q 2441 2713 2670 2916 
Q 2900 3119 2900 3481 
Q 2900 3844 2670 4047 
Q 2441 4250 2034 4250 
Q 1625 4250 1398 4047 
Q 1172 3844 1172 3481 
z
" id="DejaVuSans-38" transform="scale(0.015625)"/>
       </defs>
       <use xlink:href="#DejaVuSans-30"/>
       <use x="63.623047" xlink:href="#DejaVuSans-2e"/>
       <use x="95.410156" xlink:href="#DejaVuSans-38"/>
      </g>
     </g>
    </g>
    <g id="ytick_6">
     <g id="line2d_15">
      <g>
       <use style="stroke:#000000;stroke-width:0.8;" x="57.6" xlink:href="#mddc2ed5250" y="41.472"/>
      </g>
     </g>
     <g id="text_16">
      <!-- 1.0 -->
      <g transform="translate(34.696875 45.271219)scale(0.1 -0.1)">
       <use xlink:href="#DejaVuSans-31"/>
       <use x="63.623047" xlink:href="#DejaVuSans-2e"/>
       <use x="95.410156" xlink:href="#DejaVuSans-30"/>
      </g>
     </g>
    </g>
    <g id="text_17">
     <!-- p(context) -->
     <g transform="translate(28.617187 200.449875)rotate(-90)scale(0.1 -0.1)">
      <defs>
       <path d="M 1159 525 
L 1159 -1331 
L 581 -1331 
L 581 3500 
L 1159 3500 
L 1159 2969 
Q 1341 3281 1617 3432 
Q 1894 3584 2278 3584 
Q 2916 3584 3314 3078 
Q 3713 2572 3713 1747 
Q 3713 922 3314 415 
Q 2916 -91 2278 -91 
Q 1894 -91 1617 61 
Q 1341 213 1159 525 
z
M 3116 1747 
Q 3116 2381 2855 2742 
Q 2594 3103 2138 3103 
Q 1681 3103 1420 2742 
Q 1159 2381 1159 1747 
Q 1159 1113 1420 752 
Q 1681 391 2138 391 
Q 2594 391 2855 752 
Q 3116 1113 3116 1747 
z
" id="DejaVuSans-70" transform="scale(0.015625)"/>
       <path d="M 1984 4856 
Q 1566 4138 1362 3434 
Q 1159 2731 1159 2009 
Q 1159 1288 1364 580 
Q 1569 -128 1984 -844 
L 1484 -844 
Q 1016 -109 783 600 
Q 550 1309 550 2009 
Q 550 2706 781 3412 
Q 1013 4119 1484 4856 
L 1984 4856 
z
" id="DejaVuSans-28" transform="scale(0.015625)"/>
       <path d="M 3122 3366 
L 3122 2828 
Q 2878 2963 2633 3030 
Q 2388 3097 2138 3097 
Q 1578 3097 1268 2742 
Q 959 2388 959 1747 
Q 959 1106 1268 751 
Q 1578 397 2138 397 
Q 2388 397 2633 464 
Q 2878 531 3122 666 
L 3122 134 
Q 2881 22 2623 -34 
Q 2366 -91 2075 -91 
Q 1284 -91 818 406 
Q 353 903 353 1747 
Q 353 2603 823 3093 
Q 1294 3584 2113 3584 
Q 2378 3584 2631 3529 
Q 2884 3475 3122 3366 
z
" id="DejaVuSans-63" transform="scale(0.015625)"/>
       <path d="M 1959 3097 
Q 1497 3097 1228 2736 
Q 959 2375 959 1747 
Q 959 1119 1226 758 
Q 1494 397 1959 397 
Q 2419 397 2687 759 
Q 2956 1122 2956 1747 
Q 2956 2369 2687 2733 
Q 2419 3097 1959 3097 
z
M 1959 3584 
Q 2709 3584 3137 3096 
Q 3566 2609 3566 1747 
Q 3566 888 3137 398 
Q 2709 -91 1959 -91 
Q 1206 -91 779 398 
Q 353 888 353 1747 
Q 353 2609 779 3096 
Q 1206 3584 1959 3584 
z
" id="DejaVuSans-6f" transform="scale(0.015625)"/>
       <path d="M 3513 2113 
L 3513 0 
L 2938 0 
L 2938 2094 
Q 2938 2591 2744 2837 
Q 2550 3084 2163 3084 
Q 1697 3084 1428 2787 
Q 1159 2491 1159 1978 
L 1159 0 
L 581 0 
L 581 3500 
L 1159 3500 
L 1159 2956 
Q 1366 3272 1645 3428 
Q 1925 3584 2291 3584 
Q 2894 3584 3203 3211 
Q 3513 2838 3513 2113 
z
" id="DejaVuSans-6e" transform="scale(0.015625)"/>
       <path d="M 3597 1894 
L 3597 1613 
L 953 1613 
Q 991 1019 1311 708 
Q 1631 397 2203 397 
Q 2534 397 2845 478 
Q 3156 559 3463 722 
L 3463 178 
Q 3153 47 2828 -22 
Q 2503 -91 2169 -91 
Q 1331 -91 842 396 
Q 353 884 353 1716 
Q 353 2575 817 3079 
Q 1281 3584 2069 3584 
Q 2775 3584 3186 3129 
Q 3597 2675 3597 1894 
z
M 3022 2063 
Q 3016 2534 2758 2815 
Q 2500 3097 2075 3097 
Q 1594 3097 1305 2825 
Q 1016 2553 972 2059 
L 3022 2063 
z
" id="DejaVuSans-65" transform="scale(0.015625)"/>
       <path d="M 3513 3500 
L 2247 1797 
L 3578 0 
L 2900 0 
L 1881 1375 
L 863 0 
L 184 0 
L 1544 1831 
L 300 3500 
L 978 3500 
L 1906 2253 
L 2834 3500 
L 3513 3500 
z
" id="DejaVuSans-78" transform="scale(0.015625)"/>
       <path d="M 513 4856 
L 1013 4856 
Q 1481 4119 1714 3412 
Q 1947 2706 1947 2009 
Q 1947 1309 1714 600 
Q 1481 -109 1013 -844 
L 513 -844 
Q 928 -128 1133 580 
Q 1338 1288 1338 2009 
Q 1338 2731 1133 3434 
Q 928 4138 513 4856 
z
" id="DejaVuSans-29" transform="scale(0.015625)"/>
      </defs>
      <use xlink:href="#DejaVuSans-70"/>
      <use x="63.476562" xlink:href="#DejaVuSans-28"/>
      <use x="102.490234" xlink:href="#DejaVuSans-63"/>
      <use x="157.470703" xlink:href="#DejaVuSans-6f"/>
      <use x="218.652344" xlink:href="#DejaVuSans-6e"/>
      <use x="282.03125" xlink:href="#DejaVuSans-74"/>
      <use x="321.240234" xlink:href="#DejaVuSans-65"/>
      <use x="381.013672" xlink:href="#DejaVuSans-78"/>
      <use x="440.193359" xlink:href="#DejaVuSans-74"/>
      <use x="479.402344" xlink:href="#DejaVuSans-29"/>
     </g>
    </g>
   </g>
   <g id="line2d_16">
    <path clip-path="url(#p679acbc256)" d="M 73.832727 267.6672 
L 81.949091 304.441039 
L 90.065455 306.282677 
L 98.181818 306.735194 
L 106.298182 296.486556 
L 114.414545 292.726061 
L 122.530909 291.208462 
L 130.647273 290.554728 
L 138.763636 290.246206 
L 146.88 290.081019 
L 154.996364 289.980016 
L 163.112727 289.911362 
L 171.229091 289.861308 
L 179.345455 289.823178 
L 187.461818 289.793278 
L 195.578182 289.769331 
L 203.694545 289.749829 
L 211.810909 289.733723 
L 219.927273 289.720261 
L 228.043636 289.708891 
L 236.16 289.699199 
L 244.276364 289.690868 
L 252.392727 289.683654 
L 260.509091 289.677365 
L 268.625455 289.671848 
L 276.741818 289.666983 
L 284.858182 289.662669 
L 292.974545 289.658827 
L 301.090909 289.655391 
L 309.207273 289.652304 
L 317.323636 289.64952 
L 325.44 289.647002 
L 333.556364 289.644717 
L 341.672727 289.642636 
L 349.789091 289.640736 
L 357.905455 289.638997 
L 366.021818 289.637401 
L 374.138182 289.635932 
L 382.254545 289.634578 
L 390.370909 289.633326 
" style="fill:none;stroke:#add8e6;stroke-linecap:square;stroke-opacity:0.3;stroke-width:1.5;"/>
   </g>
   <g id="line2d_17">
    <path clip-path="url(#p679acbc256)" d="M 73.832727 267.6672 
L 81.949091 304.441039 
L 90.065455 306.282677 
L 98.181818 220.606009 
L 106.298182 151.369083 
L 114.414545 293.047508 
L 122.530909 302.879052 
L 130.647273 278.066306 
L 138.763636 168.496897 
L 146.88 291.783661 
L 154.996364 269.444013 
L 163.112727 262.602781 
L 171.229091 299.839842 
L 179.345455 273.862429 
L 187.461818 266.2707 
L 195.578182 264.118626 
L 203.694545 263.518009 
L 211.810909 263.33912 
L 219.927273 263.271967 
L 228.043636 263.235755 
L 236.16 263.209985 
L 244.276364 263.189246 
L 252.392727 263.17181 
L 260.509091 263.156894 
L 268.625455 263.144006 
L 276.741818 263.132786 
L 284.858182 263.122957 
L 292.974545 263.114295 
L 301.090909 263.106622 
L 309.207273 263.099791 
L 317.323636 263.093684 
L 325.44 263.0882 
L 333.556364 263.083258 
L 341.672727 263.078789 
L 349.789091 263.074733 
L 357.905455 263.071041 
L 366.021818 263.06767 
L 374.138182 263.064585 
L 382.254545 263.061753 
L 390.370909 263.059148 
" style="fill:none;stroke:#add8e6;stroke-linecap:square;stroke-opacity:0.3;stroke-width:1.5;"/>
   </g>
   <g id="line2d_18">
    <path clip-path="url(#p679acbc256)" d="M 73.832727 267.6672 
L 81.949091 304.441039 
L 90.065455 306.282677 
L 98.181818 306.735194 
L 106.298182 296.486556 
L 114.414545 292.726061 
L 122.530909 291.208462 
L 130.647273 290.554728 
L 138.763636 290.246206 
L 146.88 290.081019 
L 154.996364 289.980016 
L 163.112727 289.911362 
L 171.229091 289.861308 
L 179.345455 289.823178 
L 187.461818 289.793278 
L 195.578182 289.769331 
L 203.694545 289.749829 
L 211.810909 289.733723 
L 219.927273 289.720261 
L 228.043636 289.708891 
L 236.16 289.699199 
L 244.276364 289.690868 
L 252.392727 289.683654 
L 260.509091 289.677365 
L 268.625455 289.671848 
L 276.741818 289.666983 
L 284.858182 289.662669 
L 292.974545 289.658827 
L 301.090909 289.655391 
L 309.207273 289.652304 
L 317.323636 289.64952 
L 325.44 289.647002 
L 333.556364 289.644717 
L 341.672727 289.642636 
L 349.789091 289.640736 
L 357.905455 289.638997 
L 366.021818 289.637401 
L 374.138182 289.635932 
L 382.254545 289.634578 
L 390.370909 289.633326 
" style="fill:none;stroke:#add8e6;stroke-linecap:square;stroke-opacity:0.3;stroke-width:1.5;"/>
   </g>
   <g id="line2d_19">
    <path clip-path="url(#p679acbc256)" d="M 73.832727 267.6672 
L 81.949091 304.441039 
L 90.065455 306.282677 
L 98.181818 306.735194 
L 106.298182 296.486556 
L 114.414545 292.726061 
L 122.530909 291.208462 
L 130.647273 290.554728 
L 138.763636 290.246206 
L 146.88 290.081019 
L 154.996364 289.980016 
L 163.112727 289.911362 
L 171.229091 289.861308 
L 179.345455 289.823178 
L 187.461818 289.793278 
L 195.578182 289.769331 
L 203.694545 289.749829 
L 211.810909 289.733723 
L 219.927273 289.720261 
L 228.043636 289.708891 
L 236.16 289.699199 
L 244.276364 289.690868 
L 252.392727 289.683654 
L 260.509091 289.677365 
L 268.625455 289.671848 
L 276.741818 289.666983 
L 284.858182 289.662669 
L 292.974545 289.658827 
L 301.090909 289.655391 
L 309.207273 289.652304 
L 317.323636 289.64952 
L 325.44 289.647002 
L 333.556364 289.644717 
L 341.672727 289.642636 
L 349.789091 289.640736 
L 357.905455 289.638997 
L 366.021818 289.637401 
L 374.138182 289.635932 
L 382.254545 289.634578 
L 390.370909 289.633326 
" style="fill:none;stroke:#add8e6;stroke-linecap:square;stroke-opacity:0.3;stroke-width:1.5;"/>
   </g>
   <g id="line2d_20">
    <path clip-path="url(#p679acbc256)" d="M 73.832727 267.6672 
L 81.949091 304.441039 
L 90.065455 306.282677 
L 98.181818 306.735194 
L 106.298182 296.486556 
L 114.414545 292.726061 
L 122.530909 291.208462 
L 130.647273 290.554728 
L 138.763636 290.246206 
L 146.88 290.081019 
L 154.996364 289.980016 
L 163.112727 289.911362 
L 171.229091 289.861308 
L 179.345455 289.823178 
L 187.461818 289.793278 
L 195.578182 289.769331 
L 203.694545 289.749829 
L 211.810909 289.733723 
L 219.927273 289.720261 
L 228.043636 289.708891 
L 236.16 289.699199 
L 244.276364 289.690868 
L 252.392727 289.683654 
L 260.509091 289.677365 
L 268.625455 289.671848 
L 276.741818 289.666983 
L 284.858182 289.662669 
L 292.974545 289.658827 
L 301.090909 289.655391 
L 309.207273 289.652304 
L 317.323636 289.64952 
L 325.44 289.647002 
L 333.556364 289.644717 
L 341.672727 289.642636 
L 349.789091 289.640736 
L 357.905455 289.638997 
L 366.021818 289.637401 
L 374.138182 289.635932 
L 382.254545 289.634578 
L 390.370909 289.633326 
" style="fill:none;stroke:#add8e6;stroke-linecap:square;stroke-opacity:0.3;stroke-width:1.5;"/>
   </g>
   <g id="line2d_21">
    <path clip-path="url(#p679acbc256)" d="M 73.832727 267.6672 
L 81.949091 304.441039 
L 90.065455 306.282677 
L 98.181818 220.606009 
L 106.298182 302.132115 
L 114.414545 283.983897 
L 122.530909 304.837903 
L 130.647273 287.643025 
L 138.763636 283.119397 
L 146.88 281.901778 
L 154.996364 281.548907 
L 163.112727 281.42136 
L 171.229091 281.356808 
L 179.345455 281.314232 
L 187.461818 281.282345 
L 195.578182 281.257191 
L 203.694545 281.236845 
L 211.810909 281.220117 
L 219.927273 281.206186 
L 228.043636 281.194455 
L 236.16 281.184483 
L 244.276364 281.175932 
L 252.392727 281.168544 
L 260.509091 281.162116 
L 268.625455 281.156487 
L 276.741818 281.151531 
L 284.858182 281.147144 
L 292.974545 281.143242 
L 301.090909 281.139756 
L 309.207273 281.136628 
L 317.323636 281.133811 
L 325.44 281.131265 
L 333.556364 281.128956 
L 341.672727 281.126856 
L 349.789091 281.12494 
L 357.905455 281.123188 
L 366.021818 281.12158 
L 374.138182 281.120102 
L 382.254545 281.11874 
L 390.370909 281.117483 
" style="fill:none;stroke:#add8e6;stroke-linecap:square;stroke-opacity:0.3;stroke-width:1.5;"/>
   </g>
   <g id="line2d_22">
    <path clip-path="url(#p679acbc256)" d="M 73.832727 267.6672 
L 81.949091 304.441039 
L 90.065455 306.282677 
L 98.181818 220.606009 
L 106.298182 302.132115 
L 114.414545 283.983897 
L 122.530909 304.837903 
L 130.647273 287.643025 
L 138.763636 283.119397 
L 146.88 281.901778 
L 154.996364 281.548907 
L 163.112727 281.42136 
L 171.229091 281.356808 
L 179.345455 281.314232 
L 187.461818 281.282345 
L 195.578182 281.257191 
L 203.694545 281.236845 
L 211.810909 281.220117 
L 219.927273 281.206186 
L 228.043636 281.194455 
L 236.16 281.184483 
L 244.276364 281.175932 
L 252.392727 281.168544 
L 260.509091 281.162116 
L 268.625455 281.156487 
L 276.741818 281.151531 
L 284.858182 281.147144 
L 292.974545 281.143242 
L 301.090909 281.139756 
L 309.207273 281.136628 
L 317.323636 281.133811 
L 325.44 281.131265 
L 333.556364 281.128956 
L 341.672727 281.126856 
L 349.789091 281.12494 
L 357.905455 281.123188 
L 366.021818 281.12158 
L 374.138182 281.120102 
L 382.254545 281.11874 
L 390.370909 281.117483 
" style="fill:none;stroke:#add8e6;stroke-linecap:square;stroke-opacity:0.3;stroke-width:1.5;"/>
   </g>
   <g id="line2d_23">
    <path clip-path="url(#p679acbc256)" d="M 73.832727 267.6672 
L 81.949091 304.441039 
L 90.065455 306.282677 
L 98.181818 220.606009 
L 106.298182 151.369083 
L 114.414545 293.047508 
L 122.530909 302.879052 
L 130.647273 278.066306 
L 138.763636 302.938141 
L 146.88 280.795475 
L 154.996364 273.422359 
L 163.112727 271.021107 
L 171.229091 303.041113 
L 179.345455 281.16981 
L 187.461818 275.134967 
L 195.578182 273.513715 
L 203.694545 273.079522 
L 211.810909 272.950776 
L 219.927273 272.899519 
L 228.043636 272.869526 
L 236.16 272.847136 
L 244.276364 272.82877 
L 252.392727 272.813212 
L 260.509091 272.799849 
L 268.625455 272.788271 
L 276.741818 272.778169 
L 284.858182 272.7693 
L 292.974545 272.761471 
L 301.090909 272.754524 
L 309.207273 272.74833 
L 317.323636 272.742785 
L 325.44 272.7378 
L 333.556364 272.733302 
L 341.672727 272.72923 
L 349.789091 272.725531 
L 357.905455 272.72216 
L 366.021818 272.719081 
L 374.138182 272.716259 
L 382.254545 272.713668 
L 390.370909 272.711283 
" style="fill:none;stroke:#add8e6;stroke-linecap:square;stroke-opacity:0.3;stroke-width:1.5;"/>
   </g>
   <g id="line2d_24">
    <path clip-path="url(#p679acbc256)" d="M 73.832727 267.6672 
L 81.949091 304.441039 
L 90.065455 306.282677 
L 98.181818 306.735194 
L 106.298182 296.486556 
L 114.414545 292.726061 
L 122.530909 291.208462 
L 130.647273 290.554728 
L 138.763636 290.246206 
L 146.88 290.081019 
L 154.996364 289.980016 
L 163.112727 289.911362 
L 171.229091 289.861308 
L 179.345455 289.823178 
L 187.461818 289.793278 
L 195.578182 289.769331 
L 203.694545 289.749829 
L 211.810909 289.733723 
L 219.927273 289.720261 
L 228.043636 289.708891 
L 236.16 289.699199 
L 244.276364 289.690868 
L 252.392727 289.683654 
L 260.509091 289.677365 
L 268.625455 289.671848 
L 276.741818 289.666983 
L 284.858182 289.662669 
L 292.974545 289.658827 
L 301.090909 289.655391 
L 309.207273 289.652304 
L 317.323636 289.64952 
L 325.44 289.647002 
L 333.556364 289.644717 
L 341.672727 289.642636 
L 349.789091 289.640736 
L 357.905455 289.638997 
L 366.021818 289.637401 
L 374.138182 289.635932 
L 382.254545 289.634578 
L 390.370909 289.633326 
" style="fill:none;stroke:#add8e6;stroke-linecap:square;stroke-opacity:0.3;stroke-width:1.5;"/>
   </g>
   <g id="line2d_25">
    <path clip-path="url(#p679acbc256)" d="M 73.832727 267.6672 
L 81.949091 304.441039 
L 90.065455 306.282677 
L 98.181818 306.735194 
L 106.298182 296.486556 
L 114.414545 292.726061 
L 122.530909 291.208462 
L 130.647273 290.554728 
L 138.763636 290.246206 
L 146.88 290.081019 
L 154.996364 289.980016 
L 163.112727 289.911362 
L 171.229091 289.861308 
L 179.345455 289.823178 
L 187.461818 289.793278 
L 195.578182 289.769331 
L 203.694545 289.749829 
L 211.810909 289.733723 
L 219.927273 289.720261 
L 228.043636 289.708891 
L 236.16 289.699199 
L 244.276364 289.690868 
L 252.392727 289.683654 
L 260.509091 289.677365 
L 268.625455 289.671848 
L 276.741818 289.666983 
L 284.858182 289.662669 
L 292.974545 289.658827 
L 301.090909 289.655391 
L 309.207273 289.652304 
L 317.323636 289.64952 
L 325.44 289.647002 
L 333.556364 289.644717 
L 341.672727 289.642636 
L 349.789091 289.640736 
L 357.905455 289.638997 
L 366.021818 289.637401 
L 374.138182 289.635932 
L 382.254545 289.634578 
L 390.370909 289.633326 
" style="fill:none;stroke:#add8e6;stroke-linecap:square;stroke-opacity:0.3;stroke-width:1.5;"/>
   </g>
   <g id="line2d_26">
    <path clip-path="url(#p679acbc256)" d="M 73.832727 267.6672 
L 81.949091 304.441039 
L 90.065455 306.282677 
L 98.181818 220.606009 
L 106.298182 302.132115 
L 114.414545 283.983897 
L 122.530909 304.837903 
L 130.647273 287.643025 
L 138.763636 283.119397 
L 146.88 281.901778 
L 154.996364 281.548907 
L 163.112727 281.42136 
L 171.229091 281.356808 
L 179.345455 281.314232 
L 187.461818 281.282345 
L 195.578182 281.257191 
L 203.694545 281.236845 
L 211.810909 281.220117 
L 219.927273 281.206186 
L 228.043636 281.194455 
L 236.16 281.184483 
L 244.276364 281.175932 
L 252.392727 281.168544 
L 260.509091 281.162116 
L 268.625455 281.156487 
L 276.741818 281.151531 
L 284.858182 281.147144 
L 292.974545 281.143242 
L 301.090909 281.139756 
L 309.207273 281.136628 
L 317.323636 281.133811 
L 325.44 281.131265 
L 333.556364 281.128956 
L 341.672727 281.126856 
L 349.789091 281.12494 
L 357.905455 281.123188 
L 366.021818 281.12158 
L 374.138182 281.120102 
L 382.254545 281.11874 
L 390.370909 281.117483 
" style="fill:none;stroke:#add8e6;stroke-linecap:square;stroke-opacity:0.3;stroke-width:1.5;"/>
   </g>
   <g id="line2d_27">
    <path clip-path="url(#p679acbc256)" d="M 73.832727 267.6672 
L 81.949091 130.990571 
L 90.065455 286.361875 
L 98.181818 150.067848 
L 106.298182 279.030422 
L 114.414545 295.728937 
L 122.530909 299.331009 
L 130.647273 301.038698 
L 138.763636 273.339913 
L 146.88 261.926683 
L 154.996364 298.852235 
L 163.112727 273.549514 
L 171.229091 264.504702 
L 179.345455 261.479872 
L 187.461818 299.491669 
L 195.578182 274.024157 
L 203.694545 266.321042 
L 211.810909 264.140908 
L 219.927273 263.54233 
L 228.043636 263.369834 
L 236.16 263.308368 
L 244.276364 263.276635 
L 252.392727 263.254326 
L 260.509091 263.236263 
L 268.625455 263.220908 
L 276.741818 263.207621 
L 284.858182 263.196018 
L 292.974545 263.185818 
L 301.090909 263.176801 
L 309.207273 263.16879 
L 317.323636 263.16164 
L 325.44 263.155231 
L 333.556364 263.149463 
L 341.672727 263.144253 
L 349.789091 263.139531 
L 357.905455 263.135239 
L 366.021818 263.131324 
L 374.138182 263.127744 
L 382.254545 263.124462 
L 390.370909 263.121445 
" style="fill:none;stroke:#add8e6;stroke-linecap:square;stroke-opacity:0.3;stroke-width:1.5;"/>
   </g>
   <g id="line2d_28">
    <path clip-path="url(#p679acbc256)" d="M 73.832727 267.6672 
L 81.949091 304.441039 
L 90.065455 306.282677 
L 98.181818 220.606009 
L 106.298182 302.132115 
L 114.414545 283.983897 
L 122.530909 304.837903 
L 130.647273 287.643025 
L 138.763636 283.119397 
L 146.88 281.901778 
L 154.996364 281.548907 
L 163.112727 281.42136 
L 171.229091 281.356808 
L 179.345455 281.314232 
L 187.461818 281.282345 
L 195.578182 281.257191 
L 203.694545 281.236845 
L 211.810909 281.220117 
L 219.927273 281.206186 
L 228.043636 281.194455 
L 236.16 281.184483 
L 244.276364 281.175932 
L 252.392727 281.168544 
L 260.509091 281.162116 
L 268.625455 281.156487 
L 276.741818 281.151531 
L 284.858182 281.147144 
L 292.974545 281.143242 
L 301.090909 281.139756 
L 309.207273 281.136628 
L 317.323636 281.133811 
L 325.44 281.131265 
L 333.556364 281.128956 
L 341.672727 281.126856 
L 349.789091 281.12494 
L 357.905455 281.123188 
L 366.021818 281.12158 
L 374.138182 281.120102 
L 382.254545 281.11874 
L 390.370909 281.117483 
" style="fill:none;stroke:#add8e6;stroke-linecap:square;stroke-opacity:0.3;stroke-width:1.5;"/>
   </g>
   <g id="line2d_29">
    <path clip-path="url(#p679acbc256)" d="M 73.832727 267.6672 
L 81.949091 304.441039 
L 90.065455 306.282677 
L 98.181818 306.735194 
L 106.298182 296.486556 
L 114.414545 292.726061 
L 122.530909 291.208462 
L 130.647273 290.554728 
L 138.763636 290.246206 
L 146.88 290.081019 
L 154.996364 289.980016 
L 163.112727 289.911362 
L 171.229091 289.861308 
L 179.345455 289.823178 
L 187.461818 289.793278 
L 195.578182 289.769331 
L 203.694545 289.749829 
L 211.810909 289.733723 
L 219.927273 289.720261 
L 228.043636 289.708891 
L 236.16 289.699199 
L 244.276364 289.690868 
L 252.392727 289.683654 
L 260.509091 289.677365 
L 268.625455 289.671848 
L 276.741818 289.666983 
L 284.858182 289.662669 
L 292.974545 289.658827 
L 301.090909 289.655391 
L 309.207273 289.652304 
L 317.323636 289.64952 
L 325.44 289.647002 
L 333.556364 289.644717 
L 341.672727 289.642636 
L 349.789091 289.640736 
L 357.905455 289.638997 
L 366.021818 289.637401 
L 374.138182 289.635932 
L 382.254545 289.634578 
L 390.370909 289.633326 
" style="fill:none;stroke:#add8e6;stroke-linecap:square;stroke-opacity:0.3;stroke-width:1.5;"/>
   </g>
   <g id="line2d_30">
    <path clip-path="url(#p679acbc256)" d="M 73.832727 267.6672 
L 81.949091 304.441039 
L 90.065455 306.282677 
L 98.181818 306.735194 
L 106.298182 296.486556 
L 114.414545 292.726061 
L 122.530909 291.208462 
L 130.647273 290.554728 
L 138.763636 290.246206 
L 146.88 290.081019 
L 154.996364 289.980016 
L 163.112727 289.911362 
L 171.229091 289.861308 
L 179.345455 289.823178 
L 187.461818 289.793278 
L 195.578182 289.769331 
L 203.694545 289.749829 
L 211.810909 289.733723 
L 219.927273 289.720261 
L 228.043636 289.708891 
L 236.16 289.699199 
L 244.276364 289.690868 
L 252.392727 289.683654 
L 260.509091 289.677365 
L 268.625455 289.671848 
L 276.741818 289.666983 
L 284.858182 289.662669 
L 292.974545 289.658827 
L 301.090909 289.655391 
L 309.207273 289.652304 
L 317.323636 289.64952 
L 325.44 289.647002 
L 333.556364 289.644717 
L 341.672727 289.642636 
L 349.789091 289.640736 
L 357.905455 289.638997 
L 366.021818 289.637401 
L 374.138182 289.635932 
L 382.254545 289.634578 
L 390.370909 289.633326 
" style="fill:none;stroke:#add8e6;stroke-linecap:square;stroke-opacity:0.3;stroke-width:1.5;"/>
   </g>
   <g id="line2d_31">
    <path clip-path="url(#p679acbc256)" d="M 73.832727 267.6672 
L 81.949091 304.441039 
L 90.065455 306.282677 
L 98.181818 306.735194 
L 106.298182 296.486556 
L 114.414545 292.726061 
L 122.530909 291.208462 
L 130.647273 290.554728 
L 138.763636 290.246206 
L 146.88 290.081019 
L 154.996364 289.980016 
L 163.112727 289.911362 
L 171.229091 289.861308 
L 179.345455 289.823178 
L 187.461818 289.793278 
L 195.578182 289.769331 
L 203.694545 289.749829 
L 211.810909 289.733723 
L 219.927273 289.720261 
L 228.043636 289.708891 
L 236.16 289.699199 
L 244.276364 289.690868 
L 252.392727 289.683654 
L 260.509091 289.677365 
L 268.625455 289.671848 
L 276.741818 289.666983 
L 284.858182 289.662669 
L 292.974545 289.658827 
L 301.090909 289.655391 
L 309.207273 289.652304 
L 317.323636 289.64952 
L 325.44 289.647002 
L 333.556364 289.644717 
L 341.672727 289.642636 
L 349.789091 289.640736 
L 357.905455 289.638997 
L 366.021818 289.637401 
L 374.138182 289.635932 
L 382.254545 289.634578 
L 390.370909 289.633326 
" style="fill:none;stroke:#add8e6;stroke-linecap:square;stroke-opacity:0.3;stroke-width:1.5;"/>
   </g>
   <g id="line2d_32">
    <path clip-path="url(#p679acbc256)" d="M 73.832727 267.6672 
L 81.949091 130.990571 
L 90.065455 286.361875 
L 98.181818 301.096852 
L 106.298182 303.61558 
L 114.414545 304.667021 
L 122.530909 284.393484 
L 130.647273 304.141251 
L 138.763636 286.400314 
L 146.88 278.72756 
L 154.996364 142.835151 
L 163.112727 288.66764 
L 171.229091 274.222197 
L 179.345455 301.91866 
L 187.461818 281.914613 
L 195.578182 273.796882 
L 203.694545 302.243374 
L 211.810909 282.678473 
L 219.927273 275.375743 
L 228.043636 272.836961 
L 236.16 271.985398 
L 244.276364 271.696884 
L 252.392727 271.589084 
L 260.509091 271.538757 
L 268.625455 271.507732 
L 276.741818 271.484392 
L 284.858182 271.465083 
L 292.974545 271.44849 
L 301.090909 271.434 
L 309.207273 271.421238 
L 317.323636 271.409928 
L 325.44 271.399854 
L 333.556364 271.390841 
L 341.672727 271.382743 
L 349.789091 271.37544 
L 357.905455 271.36883 
L 366.021818 271.362827 
L 374.138182 271.35736 
L 382.254545 271.352365 
L 390.370909 271.34779 
" style="fill:none;stroke:#add8e6;stroke-linecap:square;stroke-opacity:0.3;stroke-width:1.5;"/>
   </g>
   <g id="line2d_33">
    <path clip-path="url(#p679acbc256)" d="M 73.832727 267.6672 
L 81.949091 304.441039 
L 90.065455 306.282677 
L 98.181818 306.735194 
L 106.298182 296.486556 
L 114.414545 292.726061 
L 122.530909 291.208462 
L 130.647273 290.554728 
L 138.763636 290.246206 
L 146.88 290.081019 
L 154.996364 289.980016 
L 163.112727 289.911362 
L 171.229091 289.861308 
L 179.345455 289.823178 
L 187.461818 289.793278 
L 195.578182 289.769331 
L 203.694545 289.749829 
L 211.810909 289.733723 
L 219.927273 289.720261 
L 228.043636 289.708891 
L 236.16 289.699199 
L 244.276364 289.690868 
L 252.392727 289.683654 
L 260.509091 289.677365 
L 268.625455 289.671848 
L 276.741818 289.666983 
L 284.858182 289.662669 
L 292.974545 289.658827 
L 301.090909 289.655391 
L 309.207273 289.652304 
L 317.323636 289.64952 
L 325.44 289.647002 
L 333.556364 289.644717 
L 341.672727 289.642636 
L 349.789091 289.640736 
L 357.905455 289.638997 
L 366.021818 289.637401 
L 374.138182 289.635932 
L 382.254545 289.634578 
L 390.370909 289.633326 
" style="fill:none;stroke:#add8e6;stroke-linecap:square;stroke-opacity:0.3;stroke-width:1.5;"/>
   </g>
   <g id="line2d_34">
    <path clip-path="url(#p679acbc256)" d="M 73.832727 267.6672 
L 81.949091 304.441039 
L 90.065455 206.725558 
L 98.181818 299.882801 
L 106.298182 304.361699 
L 114.414545 305.240744 
L 122.530909 287.110624 
L 130.647273 281.569743 
L 138.763636 279.864541 
L 146.88 279.322337 
L 154.996364 279.12253 
L 163.112727 279.026398 
L 171.229091 278.966778 
L 179.345455 278.923972 
L 187.461818 278.891116 
L 195.578182 278.865063 
L 203.694545 278.843983 
L 211.810909 278.826662 
L 219.927273 278.812249 
L 228.043636 278.800123 
L 236.16 278.78982 
L 244.276364 278.780992 
L 252.392727 278.773368 
L 260.509091 278.766738 
L 268.625455 278.760935 
L 276.741818 278.755828 
L 284.858182 278.751309 
L 292.974545 278.74729 
L 301.090909 278.743701 
L 309.207273 278.740482 
L 317.323636 278.737584 
L 325.44 278.734966 
L 333.556364 278.732591 
L 341.672727 278.730432 
L 349.789091 278.728463 
L 357.905455 278.726662 
L 366.021818 278.72501 
L 374.138182 278.723492 
L 382.254545 278.722093 
L 390.370909 278.720801 
" style="fill:none;stroke:#add8e6;stroke-linecap:square;stroke-opacity:0.3;stroke-width:1.5;"/>
   </g>
   <g id="line2d_35">
    <path clip-path="url(#p679acbc256)" d="M 73.832727 267.6672 
L 81.949091 130.990571 
L 90.065455 286.361875 
L 98.181818 150.067848 
L 106.298182 279.030422 
L 114.414545 295.728937 
L 122.530909 173.610849 
L 130.647273 278.376614 
L 138.763636 293.044989 
L 146.88 259.917475 
L 154.996364 248.626707 
L 163.112727 245.016419 
L 171.229091 149.500929 
L 179.345455 274.06319 
L 187.461818 249.117885 
L 195.578182 242.332381 
L 203.694545 240.551741 
L 211.810909 240.088163 
L 219.927273 239.955486 
L 228.043636 239.904521 
L 236.16 239.875223 
L 244.276364 239.853381 
L 252.392727 239.835395 
L 260.509091 239.820092 
L 268.625455 239.806892 
L 276.741818 239.795412 
L 284.858182 239.785361 
L 292.974545 239.776508 
L 301.090909 239.768671 
L 309.207273 239.761697 
L 317.323636 239.755464 
L 325.44 239.749871 
L 333.556364 239.744831 
L 341.672727 239.740275 
L 349.789091 239.736141 
L 357.905455 239.73238 
L 366.021818 239.728947 
L 374.138182 239.725806 
L 382.254545 239.722923 
L 390.370909 239.720272 
" style="fill:none;stroke:#add8e6;stroke-linecap:square;stroke-opacity:0.3;stroke-width:1.5;"/>
   </g>
   <g id="line2d_36">
    <path clip-path="url(#p679acbc256)" d="M 73.832727 94.6944 
L 81.949091 55.778031 
L 90.065455 50.697463 
L 98.181818 48.378642 
L 106.298182 65.168392 
L 114.414545 72.366468 
L 122.530909 75.573447 
L 130.647273 77.010882 
L 138.763636 77.681332 
L 146.88 78.025018 
L 154.996364 78.22515 
L 163.112727 78.35617 
L 171.229091 78.449367 
L 179.345455 78.519226 
L 187.461818 78.573388 
L 195.578182 78.61639 
L 203.694545 78.651164 
L 211.810909 78.679714 
L 219.927273 78.703455 
L 228.043636 78.72342 
L 236.16 78.740373 
L 244.276364 78.754896 
L 252.392727 78.767434 
L 260.509091 78.778334 
L 268.625455 78.787871 
L 276.741818 78.796264 
L 284.858182 78.803689 
L 292.974545 78.810291 
L 301.090909 78.816186 
L 309.207273 78.821473 
L 317.323636 78.826233 
L 325.44 78.830533 
L 333.556364 78.834431 
L 341.672727 78.837976 
L 349.789091 78.841208 
L 357.905455 78.844165 
L 366.021818 78.846876 
L 374.138182 78.849368 
L 382.254545 78.851664 
L 390.370909 78.853784 
" style="fill:none;stroke:#ff0000;stroke-linecap:square;stroke-opacity:0.1;stroke-width:1.5;"/>
   </g>
   <g id="line2d_37">
    <path clip-path="url(#p679acbc256)" d="M 73.832727 94.6944 
L 81.949091 55.778031 
L 90.065455 50.697463 
L 98.181818 162.594325 
L 106.298182 235.372944 
L 114.414545 84.951245 
L 122.530909 61.934151 
L 130.647273 93.229984 
L 138.763636 218.394217 
L 146.88 81.789064 
L 154.996364 105.095793 
L 163.112727 113.133045 
L 171.229091 65.684941 
L 179.345455 98.732243 
L 187.461818 108.410361 
L 195.578182 111.153354 
L 203.694545 111.920193 
L 211.810909 112.150159 
L 219.927273 112.2377 
L 228.043636 112.285591 
L 236.16 112.319937 
L 244.276364 112.347664 
L 252.392727 112.371007 
L 260.509091 112.390995 
L 268.625455 112.408278 
L 276.741818 112.423331 
L 284.858182 112.436528 
L 292.974545 112.448163 
L 301.090909 112.458475 
L 309.207273 112.467659 
L 317.323636 112.475873 
L 325.44 112.483251 
L 333.556364 112.489903 
L 341.672727 112.495922 
L 349.789091 112.501385 
L 357.905455 112.506359 
L 366.021818 112.510901 
L 374.138182 112.515061 
L 382.254545 112.518879 
L 390.370909 112.522392 
" style="fill:none;stroke:#ff0000;stroke-linecap:square;stroke-opacity:0.1;stroke-width:1.5;"/>
   </g>
   <g id="line2d_38">
    <path clip-path="url(#p679acbc256)" d="M 73.832727 94.6944 
L 81.949091 55.778031 
L 90.065455 50.697463 
L 98.181818 48.378642 
L 106.298182 65.168392 
L 114.414545 72.366468 
L 122.530909 75.573447 
L 130.647273 77.010882 
L 138.763636 77.681332 
L 146.88 78.025018 
L 154.996364 78.22515 
L 163.112727 78.35617 
L 171.229091 78.449367 
L 179.345455 78.519226 
L 187.461818 78.573388 
L 195.578182 78.61639 
L 203.694545 78.651164 
L 211.810909 78.679714 
L 219.927273 78.703455 
L 228.043636 78.72342 
L 236.16 78.740373 
L 244.276364 78.754896 
L 252.392727 78.767434 
L 260.509091 78.778334 
L 268.625455 78.787871 
L 276.741818 78.796264 
L 284.858182 78.803689 
L 292.974545 78.810291 
L 301.090909 78.816186 
L 309.207273 78.821473 
L 317.323636 78.826233 
L 325.44 78.830533 
L 333.556364 78.834431 
L 341.672727 78.837976 
L 349.789091 78.841208 
L 357.905455 78.844165 
L 366.021818 78.846876 
L 374.138182 78.849368 
L 382.254545 78.851664 
L 390.370909 78.853784 
" style="fill:none;stroke:#ff0000;stroke-linecap:square;stroke-opacity:0.1;stroke-width:1.5;"/>
   </g>
   <g id="line2d_39">
    <path clip-path="url(#p679acbc256)" d="M 73.832727 94.6944 
L 81.949091 55.778031 
L 90.065455 50.697463 
L 98.181818 48.378642 
L 106.298182 65.168392 
L 114.414545 72.366468 
L 122.530909 75.573447 
L 130.647273 77.010882 
L 138.763636 77.681332 
L 146.88 78.025018 
L 154.996364 78.22515 
L 163.112727 78.35617 
L 171.229091 78.449367 
L 179.345455 78.519226 
L 187.461818 78.573388 
L 195.578182 78.61639 
L 203.694545 78.651164 
L 211.810909 78.679714 
L 219.927273 78.703455 
L 228.043636 78.72342 
L 236.16 78.740373 
L 244.276364 78.754896 
L 252.392727 78.767434 
L 260.509091 78.778334 
L 268.625455 78.787871 
L 276.741818 78.796264 
L 284.858182 78.803689 
L 292.974545 78.810291 
L 301.090909 78.816186 
L 309.207273 78.821473 
L 317.323636 78.826233 
L 325.44 78.830533 
L 333.556364 78.834431 
L 341.672727 78.837976 
L 349.789091 78.841208 
L 357.905455 78.844165 
L 366.021818 78.846876 
L 374.138182 78.849368 
L 382.254545 78.851664 
L 390.370909 78.853784 
" style="fill:none;stroke:#ff0000;stroke-linecap:square;stroke-opacity:0.1;stroke-width:1.5;"/>
   </g>
   <g id="line2d_40">
    <path clip-path="url(#p679acbc256)" d="M 73.832727 94.6944 
L 81.949091 55.778031 
L 90.065455 50.697463 
L 98.181818 48.378642 
L 106.298182 65.168392 
L 114.414545 72.366468 
L 122.530909 75.573447 
L 130.647273 77.010882 
L 138.763636 77.681332 
L 146.88 78.025018 
L 154.996364 78.22515 
L 163.112727 78.35617 
L 171.229091 78.449367 
L 179.345455 78.519226 
L 187.461818 78.573388 
L 195.578182 78.61639 
L 203.694545 78.651164 
L 211.810909 78.679714 
L 219.927273 78.703455 
L 228.043636 78.72342 
L 236.16 78.740373 
L 244.276364 78.754896 
L 252.392727 78.767434 
L 260.509091 78.778334 
L 268.625455 78.787871 
L 276.741818 78.796264 
L 284.858182 78.803689 
L 292.974545 78.810291 
L 301.090909 78.816186 
L 309.207273 78.821473 
L 317.323636 78.826233 
L 325.44 78.830533 
L 333.556364 78.834431 
L 341.672727 78.837976 
L 349.789091 78.841208 
L 357.905455 78.844165 
L 366.021818 78.846876 
L 374.138182 78.849368 
L 382.254545 78.851664 
L 390.370909 78.853784 
" style="fill:none;stroke:#ff0000;stroke-linecap:square;stroke-opacity:0.1;stroke-width:1.5;"/>
   </g>
   <g id="line2d_41">
    <path clip-path="url(#p679acbc256)" d="M 73.832727 94.6944 
L 81.949091 55.778031 
L 90.065455 50.697463 
L 98.181818 162.594325 
L 106.298182 65.669958 
L 114.414545 86.999994 
L 122.530909 56.842316 
L 130.647273 80.893188 
L 138.763636 87.91647 
L 146.88 89.947099 
L 154.996364 90.559692 
L 163.112727 90.782285 
L 171.229091 90.892959 
L 179.345455 90.964741 
L 187.461818 91.018003 
L 195.578182 91.059798 
L 203.694545 91.093483 
L 211.810909 91.121099 
L 219.927273 91.144042 
L 228.043636 91.16332 
L 236.16 91.179678 
L 244.276364 91.193682 
L 252.392727 91.205764 
L 260.509091 91.216262 
L 268.625455 91.225443 
L 276.741818 91.233518 
L 284.858182 91.240659 
L 292.974545 91.247006 
L 301.090909 91.252671 
L 309.207273 91.257749 
L 317.323636 91.26232 
L 325.44 91.266448 
L 333.556364 91.270189 
L 341.672727 91.27359 
L 349.789091 91.276691 
L 357.905455 91.279526 
L 366.021818 91.282125 
L 374.138182 91.284514 
L 382.254545 91.286714 
L 390.370909 91.288745 
" style="fill:none;stroke:#ff0000;stroke-linecap:square;stroke-opacity:0.1;stroke-width:1.5;"/>
   </g>
   <g id="line2d_42">
    <path clip-path="url(#p679acbc256)" d="M 73.832727 94.6944 
L 81.949091 55.778031 
L 90.065455 50.697463 
L 98.181818 162.594325 
L 106.298182 65.669958 
L 114.414545 86.999994 
L 122.530909 56.842316 
L 130.647273 80.893188 
L 138.763636 87.91647 
L 146.88 89.947099 
L 154.996364 90.559692 
L 163.112727 90.782285 
L 171.229091 90.892959 
L 179.345455 90.964741 
L 187.461818 91.018003 
L 195.578182 91.059798 
L 203.694545 91.093483 
L 211.810909 91.121099 
L 219.927273 91.144042 
L 228.043636 91.16332 
L 236.16 91.179678 
L 244.276364 91.193682 
L 252.392727 91.205764 
L 260.509091 91.216262 
L 268.625455 91.225443 
L 276.741818 91.233518 
L 284.858182 91.240659 
L 292.974545 91.247006 
L 301.090909 91.252671 
L 309.207273 91.257749 
L 317.323636 91.26232 
L 325.44 91.266448 
L 333.556364 91.270189 
L 341.672727 91.27359 
L 349.789091 91.276691 
L 357.905455 91.279526 
L 366.021818 91.282125 
L 374.138182 91.284514 
L 382.254545 91.286714 
L 390.370909 91.288745 
" style="fill:none;stroke:#ff0000;stroke-linecap:square;stroke-opacity:0.1;stroke-width:1.5;"/>
   </g>
   <g id="line2d_43">
    <path clip-path="url(#p679acbc256)" d="M 73.832727 94.6944 
L 81.949091 55.778031 
L 90.065455 50.697463 
L 98.181818 162.594325 
L 106.298182 235.372944 
L 114.414545 84.951245 
L 122.530909 61.934151 
L 130.647273 93.229984 
L 138.763636 60.624455 
L 146.88 89.703633 
L 154.996364 99.55591 
L 163.112727 102.783779 
L 171.229091 60.464996 
L 179.345455 89.396771 
L 187.461818 97.389996 
L 195.578182 99.5359 
L 203.694545 100.111623 
L 211.810909 100.283701 
L 219.927273 100.353231 
L 228.043636 100.39443 
L 236.16 100.425358 
L 244.276364 100.450777 
L 252.392727 100.472329 
L 260.509091 100.490849 
L 268.625455 100.506902 
L 276.741818 100.520914 
L 284.858182 100.533219 
L 292.974545 100.544085 
L 301.090909 100.55373 
L 309.207273 100.56233 
L 317.323636 100.570033 
L 325.44 100.576958 
L 333.556364 100.583209 
L 341.672727 100.588869 
L 349.789091 100.594011 
L 357.905455 100.598698 
L 366.021818 100.60298 
L 374.138182 100.606904 
L 382.254545 100.610508 
L 390.370909 100.613827 
" style="fill:none;stroke:#ff0000;stroke-linecap:square;stroke-opacity:0.1;stroke-width:1.5;"/>
   </g>
   <g id="line2d_44">
    <path clip-path="url(#p679acbc256)" d="M 73.832727 94.6944 
L 81.949091 55.778031 
L 90.065455 50.697463 
L 98.181818 48.378642 
L 106.298182 65.168392 
L 114.414545 72.366468 
L 122.530909 75.573447 
L 130.647273 77.010882 
L 138.763636 77.681332 
L 146.88 78.025018 
L 154.996364 78.22515 
L 163.112727 78.35617 
L 171.229091 78.449367 
L 179.345455 78.519226 
L 187.461818 78.573388 
L 195.578182 78.61639 
L 203.694545 78.651164 
L 211.810909 78.679714 
L 219.927273 78.703455 
L 228.043636 78.72342 
L 236.16 78.740373 
L 244.276364 78.754896 
L 252.392727 78.767434 
L 260.509091 78.778334 
L 268.625455 78.787871 
L 276.741818 78.796264 
L 284.858182 78.803689 
L 292.974545 78.810291 
L 301.090909 78.816186 
L 309.207273 78.821473 
L 317.323636 78.826233 
L 325.44 78.830533 
L 333.556364 78.834431 
L 341.672727 78.837976 
L 349.789091 78.841208 
L 357.905455 78.844165 
L 366.021818 78.846876 
L 374.138182 78.849368 
L 382.254545 78.851664 
L 390.370909 78.853784 
" style="fill:none;stroke:#ff0000;stroke-linecap:square;stroke-opacity:0.1;stroke-width:1.5;"/>
   </g>
   <g id="line2d_45">
    <path clip-path="url(#p679acbc256)" d="M 73.832727 94.6944 
L 81.949091 55.778031 
L 90.065455 50.697463 
L 98.181818 48.378642 
L 106.298182 65.168392 
L 114.414545 72.366468 
L 122.530909 75.573447 
L 130.647273 77.010882 
L 138.763636 77.681332 
L 146.88 78.025018 
L 154.996364 78.22515 
L 163.112727 78.35617 
L 171.229091 78.449367 
L 179.345455 78.519226 
L 187.461818 78.573388 
L 195.578182 78.61639 
L 203.694545 78.651164 
L 211.810909 78.679714 
L 219.927273 78.703455 
L 228.043636 78.72342 
L 236.16 78.740373 
L 244.276364 78.754896 
L 252.392727 78.767434 
L 260.509091 78.778334 
L 268.625455 78.787871 
L 276.741818 78.796264 
L 284.858182 78.803689 
L 292.974545 78.810291 
L 301.090909 78.816186 
L 309.207273 78.821473 
L 317.323636 78.826233 
L 325.44 78.830533 
L 333.556364 78.834431 
L 341.672727 78.837976 
L 349.789091 78.841208 
L 357.905455 78.844165 
L 366.021818 78.846876 
L 374.138182 78.849368 
L 382.254545 78.851664 
L 390.370909 78.853784 
" style="fill:none;stroke:#ff0000;stroke-linecap:square;stroke-opacity:0.1;stroke-width:1.5;"/>
   </g>
   <g id="line2d_46">
    <path clip-path="url(#p679acbc256)" d="M 73.832727 94.6944 
L 81.949091 55.778031 
L 90.065455 50.697463 
L 98.181818 162.594325 
L 106.298182 65.669958 
L 114.414545 86.999994 
L 122.530909 56.842316 
L 130.647273 80.893188 
L 138.763636 87.91647 
L 146.88 89.947099 
L 154.996364 90.559692 
L 163.112727 90.782285 
L 171.229091 90.892959 
L 179.345455 90.964741 
L 187.461818 91.018003 
L 195.578182 91.059798 
L 203.694545 91.093483 
L 211.810909 91.121099 
L 219.927273 91.144042 
L 228.043636 91.16332 
L 236.16 91.179678 
L 244.276364 91.193682 
L 252.392727 91.205764 
L 260.509091 91.216262 
L 268.625455 91.225443 
L 276.741818 91.233518 
L 284.858182 91.240659 
L 292.974545 91.247006 
L 301.090909 91.252671 
L 309.207273 91.257749 
L 317.323636 91.26232 
L 325.44 91.266448 
L 333.556364 91.270189 
L 341.672727 91.27359 
L 349.789091 91.276691 
L 357.905455 91.279526 
L 366.021818 91.282125 
L 374.138182 91.284514 
L 382.254545 91.286714 
L 390.370909 91.288745 
" style="fill:none;stroke:#ff0000;stroke-linecap:square;stroke-opacity:0.1;stroke-width:1.5;"/>
   </g>
   <g id="line2d_47">
    <path clip-path="url(#p679acbc256)" d="M 73.832727 94.6944 
L 81.949091 252.576338 
L 90.065455 94.628852 
L 98.181818 242.650083 
L 106.298182 105.912883 
L 114.414545 76.281005 
L 122.530909 67.80333 
L 130.647273 63.516774 
L 138.763636 102.387175 
L 146.88 116.928427 
L 154.996364 67.593903 
L 163.112727 102.165086 
L 171.229091 113.469933 
L 179.345455 117.116132 
L 187.461818 66.114479 
L 195.578182 101.319504 
L 203.694545 110.945979 
L 211.810909 113.56836 
L 219.927273 114.279648 
L 228.043636 114.485139 
L 236.16 114.559487 
L 244.276364 114.598603 
L 252.392727 114.626405 
L 260.509091 114.649016 
L 268.625455 114.668273 
L 276.741818 114.684956 
L 284.858182 114.699538 
L 292.974545 114.712367 
L 301.090909 114.723716 
L 309.207273 114.733807 
L 317.323636 114.742819 
L 325.44 114.750902 
L 333.556364 114.75818 
L 341.672727 114.764757 
L 349.789091 114.770721 
L 357.905455 114.776146 
L 366.021818 114.781095 
L 374.138182 114.785622 
L 382.254545 114.789775 
L 390.370909 114.793593 
" style="fill:none;stroke:#ff0000;stroke-linecap:square;stroke-opacity:0.1;stroke-width:1.5;"/>
   </g>
   <g id="line2d_48">
    <path clip-path="url(#p679acbc256)" d="M 73.832727 94.6944 
L 81.949091 55.778031 
L 90.065455 50.697463 
L 98.181818 162.594325 
L 106.298182 65.669958 
L 114.414545 86.999994 
L 122.530909 56.842316 
L 130.647273 80.893188 
L 138.763636 87.91647 
L 146.88 89.947099 
L 154.996364 90.559692 
L 163.112727 90.782285 
L 171.229091 90.892959 
L 179.345455 90.964741 
L 187.461818 91.018003 
L 195.578182 91.059798 
L 203.694545 91.093483 
L 211.810909 91.121099 
L 219.927273 91.144042 
L 228.043636 91.16332 
L 236.16 91.179678 
L 244.276364 91.193682 
L 252.392727 91.205764 
L 260.509091 91.216262 
L 268.625455 91.225443 
L 276.741818 91.233518 
L 284.858182 91.240659 
L 292.974545 91.247006 
L 301.090909 91.252671 
L 309.207273 91.257749 
L 317.323636 91.26232 
L 325.44 91.266448 
L 333.556364 91.270189 
L 341.672727 91.27359 
L 349.789091 91.276691 
L 357.905455 91.279526 
L 366.021818 91.282125 
L 374.138182 91.284514 
L 382.254545 91.286714 
L 390.370909 91.288745 
" style="fill:none;stroke:#ff0000;stroke-linecap:square;stroke-opacity:0.1;stroke-width:1.5;"/>
   </g>
   <g id="line2d_49">
    <path clip-path="url(#p679acbc256)" d="M 73.832727 94.6944 
L 81.949091 55.778031 
L 90.065455 50.697463 
L 98.181818 48.378642 
L 106.298182 65.168392 
L 114.414545 72.366468 
L 122.530909 75.573447 
L 130.647273 77.010882 
L 138.763636 77.681332 
L 146.88 78.025018 
L 154.996364 78.22515 
L 163.112727 78.35617 
L 171.229091 78.449367 
L 179.345455 78.519226 
L 187.461818 78.573388 
L 195.578182 78.61639 
L 203.694545 78.651164 
L 211.810909 78.679714 
L 219.927273 78.703455 
L 228.043636 78.72342 
L 236.16 78.740373 
L 244.276364 78.754896 
L 252.392727 78.767434 
L 260.509091 78.778334 
L 268.625455 78.787871 
L 276.741818 78.796264 
L 284.858182 78.803689 
L 292.974545 78.810291 
L 301.090909 78.816186 
L 309.207273 78.821473 
L 317.323636 78.826233 
L 325.44 78.830533 
L 333.556364 78.834431 
L 341.672727 78.837976 
L 349.789091 78.841208 
L 357.905455 78.844165 
L 366.021818 78.846876 
L 374.138182 78.849368 
L 382.254545 78.851664 
L 390.370909 78.853784 
" style="fill:none;stroke:#ff0000;stroke-linecap:square;stroke-opacity:0.1;stroke-width:1.5;"/>
   </g>
   <g id="line2d_50">
    <path clip-path="url(#p679acbc256)" d="M 73.832727 94.6944 
L 81.949091 55.778031 
L 90.065455 50.697463 
L 98.181818 48.378642 
L 106.298182 65.168392 
L 114.414545 72.366468 
L 122.530909 75.573447 
L 130.647273 77.010882 
L 138.763636 77.681332 
L 146.88 78.025018 
L 154.996364 78.22515 
L 163.112727 78.35617 
L 171.229091 78.449367 
L 179.345455 78.519226 
L 187.461818 78.573388 
L 195.578182 78.61639 
L 203.694545 78.651164 
L 211.810909 78.679714 
L 219.927273 78.703455 
L 228.043636 78.72342 
L 236.16 78.740373 
L 244.276364 78.754896 
L 252.392727 78.767434 
L 260.509091 78.778334 
L 268.625455 78.787871 
L 276.741818 78.796264 
L 284.858182 78.803689 
L 292.974545 78.810291 
L 301.090909 78.816186 
L 309.207273 78.821473 
L 317.323636 78.826233 
L 325.44 78.830533 
L 333.556364 78.834431 
L 341.672727 78.837976 
L 349.789091 78.841208 
L 357.905455 78.844165 
L 366.021818 78.846876 
L 374.138182 78.849368 
L 382.254545 78.851664 
L 390.370909 78.853784 
" style="fill:none;stroke:#ff0000;stroke-linecap:square;stroke-opacity:0.1;stroke-width:1.5;"/>
   </g>
   <g id="line2d_51">
    <path clip-path="url(#p679acbc256)" d="M 73.832727 94.6944 
L 81.949091 55.778031 
L 90.065455 50.697463 
L 98.181818 48.378642 
L 106.298182 65.168392 
L 114.414545 72.366468 
L 122.530909 75.573447 
L 130.647273 77.010882 
L 138.763636 77.681332 
L 146.88 78.025018 
L 154.996364 78.22515 
L 163.112727 78.35617 
L 171.229091 78.449367 
L 179.345455 78.519226 
L 187.461818 78.573388 
L 195.578182 78.61639 
L 203.694545 78.651164 
L 211.810909 78.679714 
L 219.927273 78.703455 
L 228.043636 78.72342 
L 236.16 78.740373 
L 244.276364 78.754896 
L 252.392727 78.767434 
L 260.509091 78.778334 
L 268.625455 78.787871 
L 276.741818 78.796264 
L 284.858182 78.803689 
L 292.974545 78.810291 
L 301.090909 78.816186 
L 309.207273 78.821473 
L 317.323636 78.826233 
L 325.44 78.830533 
L 333.556364 78.834431 
L 341.672727 78.837976 
L 349.789091 78.841208 
L 357.905455 78.844165 
L 366.021818 78.846876 
L 374.138182 78.849368 
L 382.254545 78.851664 
L 390.370909 78.853784 
" style="fill:none;stroke:#ff0000;stroke-linecap:square;stroke-opacity:0.1;stroke-width:1.5;"/>
   </g>
   <g id="line2d_52">
    <path clip-path="url(#p679acbc256)" d="M 73.832727 94.6944 
L 81.949091 252.576338 
L 90.065455 94.628852 
L 98.181818 66.061184 
L 106.298182 58.317233 
L 114.414545 54.775957 
L 122.530909 85.191883 
L 130.647273 55.999741 
L 138.763636 82.497772 
L 146.88 92.985039 
L 154.996364 256.319291 
L 163.112727 85.20522 
L 171.229091 99.421642 
L 179.345455 59.391926 
L 187.461818 88.350718 
L 195.578182 98.922743 
L 203.694545 58.511641 
L 211.810909 87.149945 
L 219.927273 96.6662 
L 228.043636 99.850177 
L 236.16 100.905701 
L 244.276364 101.262924 
L 252.392727 101.397155 
L 260.509091 101.460471 
L 268.625455 101.499877 
L 276.741818 101.529684 
L 284.858182 101.554407 
L 292.974545 101.57568 
L 301.090909 101.594273 
L 309.207273 101.610662 
L 317.323636 101.625195 
L 325.44 101.638147 
L 333.556364 101.649743 
L 341.672727 101.660166 
L 349.789091 101.669571 
L 357.905455 101.678087 
L 366.021818 101.685824 
L 374.138182 101.692874 
L 382.254545 101.699317 
L 390.370909 101.705221 
" style="fill:none;stroke:#ff0000;stroke-linecap:square;stroke-opacity:0.1;stroke-width:1.5;"/>
   </g>
   <g id="line2d_53">
    <path clip-path="url(#p679acbc256)" d="M 73.832727 94.6944 
L 81.949091 55.778031 
L 90.065455 50.697463 
L 98.181818 48.378642 
L 106.298182 65.168392 
L 114.414545 72.366468 
L 122.530909 75.573447 
L 130.647273 77.010882 
L 138.763636 77.681332 
L 146.88 78.025018 
L 154.996364 78.22515 
L 163.112727 78.35617 
L 171.229091 78.449367 
L 179.345455 78.519226 
L 187.461818 78.573388 
L 195.578182 78.61639 
L 203.694545 78.651164 
L 211.810909 78.679714 
L 219.927273 78.703455 
L 228.043636 78.72342 
L 236.16 78.740373 
L 244.276364 78.754896 
L 252.392727 78.767434 
L 260.509091 78.778334 
L 268.625455 78.787871 
L 276.741818 78.796264 
L 284.858182 78.803689 
L 292.974545 78.810291 
L 301.090909 78.816186 
L 309.207273 78.821473 
L 317.323636 78.826233 
L 325.44 78.830533 
L 333.556364 78.834431 
L 341.672727 78.837976 
L 349.789091 78.841208 
L 357.905455 78.844165 
L 366.021818 78.846876 
L 374.138182 78.849368 
L 382.254545 78.851664 
L 390.370909 78.853784 
" style="fill:none;stroke:#ff0000;stroke-linecap:square;stroke-opacity:0.1;stroke-width:1.5;"/>
   </g>
   <g id="line2d_54">
    <path clip-path="url(#p679acbc256)" d="M 73.832727 94.6944 
L 81.949091 55.778031 
L 90.065455 176.4445 
L 98.181818 71.5872 
L 106.298182 58.780454 
L 114.414545 54.823998 
L 122.530909 81.454942 
L 130.647273 90.14408 
L 138.763636 92.920955 
L 146.88 93.819649 
L 154.996364 94.150621 
L 163.112727 94.307877 
L 171.229091 94.404216 
L 179.345455 94.472872 
L 187.461818 94.525339 
L 195.578182 94.56682 
L 203.694545 94.600308 
L 211.810909 94.627769 
L 219.927273 94.650583 
L 228.043636 94.66975 
L 236.16 94.686014 
L 244.276364 94.699934 
L 252.392727 94.711944 
L 260.509091 94.722379 
L 268.625455 94.731503 
L 276.741818 94.739528 
L 284.858182 94.746624 
L 292.974545 94.75293 
L 301.090909 94.75856 
L 309.207273 94.763605 
L 317.323636 94.768146 
L 325.44 94.772247 
L 333.556364 94.775963 
L 341.672727 94.779342 
L 349.789091 94.782422 
L 357.905455 94.785238 
L 366.021818 94.78782 
L 374.138182 94.790193 
L 382.254545 94.792378 
L 390.370909 94.794395 
" style="fill:none;stroke:#ff0000;stroke-linecap:square;stroke-opacity:0.1;stroke-width:1.5;"/>
   </g>
   <g id="line2d_55">
    <path clip-path="url(#p679acbc256)" d="M 73.832727 94.6944 
L 81.949091 252.576338 
L 90.065455 94.628852 
L 98.181818 242.650083 
L 106.298182 105.912883 
L 114.414545 76.281005 
L 122.530909 217.742564 
L 130.647273 103.344899 
L 138.763636 79.365888 
L 146.88 120.935181 
L 154.996364 134.447978 
L 163.112727 138.67947 
L 171.229091 242.121352 
L 179.345455 105.572281 
L 187.461818 133.717192 
L 195.578182 141.433453 
L 203.694545 143.463921 
L 211.810909 143.994769 
L 219.927273 144.148411 
L 228.043636 144.208635 
L 236.16 144.243873 
L 244.276364 144.270361 
L 252.392727 144.292243 
L 260.509091 144.310892 
L 268.625455 144.326995 
L 276.741818 144.341014 
L 284.858182 144.353299 
L 292.974545 144.364128 
L 301.090909 144.373723 
L 309.207273 144.382266 
L 317.323636 144.389906 
L 325.44 144.396767 
L 333.556364 144.402951 
L 341.672727 144.408546 
L 349.789091 144.413624 
L 357.905455 144.418247 
L 366.021818 144.422468 
L 374.138182 144.426332 
L 382.254545 144.42988 
L 390.370909 144.433143 
" style="fill:none;stroke:#ff0000;stroke-linecap:square;stroke-opacity:0.1;stroke-width:1.5;"/>
   </g>
   <g id="line2d_56">
    <path clip-path="url(#p679acbc256)" d="M 73.832727 267.6672 
L 81.949091 278.423469 
L 90.065455 298.316701 
L 98.181818 264.605167 
L 106.298182 282.108515 
L 114.414545 292.532842 
L 122.530909 289.082015 
L 130.647273 288.868915 
L 138.763636 281.951222 
L 146.88 284.044525 
L 154.996364 276.914939 
L 163.112727 282.234146 
L 171.229091 279.705793 
L 179.345455 284.745332 
L 187.461818 283.694156 
L 195.578182 281.468645 
L 203.694545 282.350167 
L 211.810909 281.21209 
L 219.927273 280.794232 
L 228.043636 280.644173 
L 236.16 280.587293 
L 244.276364 280.561916 
L 252.392727 280.547395 
L 260.509091 280.537035 
L 268.625455 280.528659 
L 276.741818 280.521508 
L 284.858182 280.515265 
L 292.974545 280.509756 
L 301.090909 280.504862 
L 309.207273 280.500494 
L 317.323636 280.496577 
L 325.44 280.49305 
L 333.556364 280.489864 
L 341.672727 280.486975 
L 349.789091 280.484348 
L 357.905455 280.481952 
L 366.021818 280.479759 
L 374.138182 280.477749 
L 382.254545 280.4759 
L 390.370909 280.474197 
" style="fill:none;stroke:#1f77b4;stroke-linecap:square;stroke-width:1.5;"/>
   </g>
   <g id="line2d_57">
    <path clip-path="url(#p679acbc256)" d="M 73.832727 94.6944 
L 81.949091 85.297777 
L 90.065455 63.574523 
L 98.181818 104.115046 
L 106.298182 85.701655 
L 114.414545 75.186455 
L 122.530909 77.958238 
L 130.647273 79.657352 
L 138.763636 88.233483 
L 146.88 86.809978 
L 154.996364 95.082688 
L 163.112727 89.148266 
L 171.229091 91.181629 
L 179.345455 85.686673 
L 187.461818 86.915699 
L 195.578182 89.866743 
L 203.694545 88.521962 
L 211.810909 90.152812 
L 219.927273 90.697325 
L 228.043636 90.88906 
L 236.16 90.963141 
L 244.276364 90.997698 
L 252.392727 91.018424 
L 260.509091 91.033649 
L 268.625455 91.046115 
L 276.741818 91.056807 
L 284.858182 91.066157 
L 292.974545 91.074414 
L 301.090909 91.081751 
L 309.207273 91.088303 
L 317.323636 91.094179 
L 325.44 91.09947 
L 333.556364 91.104251 
L 341.672727 91.108586 
L 349.789091 91.112529 
L 357.905455 91.116127 
L 366.021818 91.119418 
L 374.138182 91.122436 
L 382.254545 91.125212 
L 390.370909 91.12777 
" style="fill:none;stroke:#ff0000;stroke-linecap:square;stroke-width:1.5;"/>
   </g>
   <g id="patch_5">
    <path d="M 57.6 307.584 
L 57.6 41.472 
" style="fill:none;stroke:#000000;stroke-linecap:square;stroke-linejoin:miter;stroke-width:0.8;"/>
   </g>
   <g id="patch_6">
    <path d="M 414.72 307.584 
L 414.72 41.472 
" style="fill:none;stroke:#000000;stroke-linecap:square;stroke-linejoin:miter;stroke-width:0.8;"/>
   </g>
   <g id="patch_7">
    <path d="M 57.6 307.584 
L 414.72 307.584 
" style="fill:none;stroke:#000000;stroke-linecap:square;stroke-linejoin:miter;stroke-width:0.8;"/>
   </g>
   <g id="patch_8">
    <path d="M 57.6 41.472 
L 414.72 41.472 
" style="fill:none;stroke:#000000;stroke-linecap:square;stroke-linejoin:miter;stroke-width:0.8;"/>
   </g>
   <g id="text_18">
    <!-- Type1_depressed -->
    <g transform="translate(184.4775 35.472)scale(0.12 -0.12)">
     <defs>
      <path d="M -19 4666 
L 3928 4666 
L 3928 4134 
L 2272 4134 
L 2272 0 
L 1638 0 
L 1638 4134 
L -19 4134 
L -19 4666 
z
" id="DejaVuSans-54" transform="scale(0.015625)"/>
      <path d="M 2059 -325 
Q 1816 -950 1584 -1140 
Q 1353 -1331 966 -1331 
L 506 -1331 
L 506 -850 
L 844 -850 
Q 1081 -850 1212 -737 
Q 1344 -625 1503 -206 
L 1606 56 
L 191 3500 
L 800 3500 
L 1894 763 
L 2988 3500 
L 3597 3500 
L 2059 -325 
z
" id="DejaVuSans-79" transform="scale(0.015625)"/>
      <path d="M 3263 -1063 
L 3263 -1509 
L -63 -1509 
L -63 -1063 
L 3263 -1063 
z
" id="DejaVuSans-5f" transform="scale(0.015625)"/>
      <path d="M 2906 2969 
L 2906 4863 
L 3481 4863 
L 3481 0 
L 2906 0 
L 2906 525 
Q 2725 213 2448 61 
Q 2172 -91 1784 -91 
Q 1150 -91 751 415 
Q 353 922 353 1747 
Q 353 2572 751 3078 
Q 1150 3584 1784 3584 
Q 2172 3584 2448 3432 
Q 2725 3281 2906 2969 
z
M 947 1747 
Q 947 1113 1208 752 
Q 1469 391 1925 391 
Q 2381 391 2643 752 
Q 2906 1113 2906 1747 
Q 2906 2381 2643 2742 
Q 2381 3103 1925 3103 
Q 1469 3103 1208 2742 
Q 947 2381 947 1747 
z
" id="DejaVuSans-64" transform="scale(0.015625)"/>
      <path d="M 2631 2963 
Q 2534 3019 2420 3045 
Q 2306 3072 2169 3072 
Q 1681 3072 1420 2755 
Q 1159 2438 1159 1844 
L 1159 0 
L 581 0 
L 581 3500 
L 1159 3500 
L 1159 2956 
Q 1341 3275 1631 3429 
Q 1922 3584 2338 3584 
Q 2397 3584 2469 3576 
Q 2541 3569 2628 3553 
L 2631 2963 
z
" id="DejaVuSans-72" transform="scale(0.015625)"/>
      <path d="M 2834 3397 
L 2834 2853 
Q 2591 2978 2328 3040 
Q 2066 3103 1784 3103 
Q 1356 3103 1142 2972 
Q 928 2841 928 2578 
Q 928 2378 1081 2264 
Q 1234 2150 1697 2047 
L 1894 2003 
Q 2506 1872 2764 1633 
Q 3022 1394 3022 966 
Q 3022 478 2636 193 
Q 2250 -91 1575 -91 
Q 1294 -91 989 -36 
Q 684 19 347 128 
L 347 722 
Q 666 556 975 473 
Q 1284 391 1588 391 
Q 1994 391 2212 530 
Q 2431 669 2431 922 
Q 2431 1156 2273 1281 
Q 2116 1406 1581 1522 
L 1381 1569 
Q 847 1681 609 1914 
Q 372 2147 372 2553 
Q 372 3047 722 3315 
Q 1072 3584 1716 3584 
Q 2034 3584 2315 3537 
Q 2597 3491 2834 3397 
z
" id="DejaVuSans-73" transform="scale(0.015625)"/>
     </defs>
     <use xlink:href="#DejaVuSans-54"/>
     <use x="45.458984" xlink:href="#DejaVuSans-79"/>
     <use x="104.638672" xlink:href="#DejaVuSans-70"/>
     <use x="168.115234" xlink:href="#DejaVuSans-65"/>
     <use x="229.638672" xlink:href="#DejaVuSans-31"/>
     <use x="293.261719" xlink:href="#DejaVuSans-5f"/>
     <use x="343.261719" xlink:href="#DejaVuSans-64"/>
     <use x="406.738281" xlink:href="#DejaVuSans-65"/>
     <use x="468.261719" xlink:href="#DejaVuSans-70"/>
     <use x="531.738281" xlink:href="#DejaVuSans-72"/>
     <use x="570.601562" xlink:href="#DejaVuSans-65"/>
     <use x="632.125" xlink:href="#DejaVuSans-73"/>
     <use x="684.224609" xlink:href="#DejaVuSans-73"/>
     <use x="736.324219" xlink:href="#DejaVuSans-65"/>
     <use x="797.847656" xlink:href="#DejaVuSans-64"/>
    </g>
   </g>
   <g id="legend_1">
    <g id="patch_9">
     <path d="M 351.635625 78.82825 
L 407.72 78.82825 
Q 409.72 78.82825 409.72 76.82825 
L 409.72 48.472 
Q 409.72 46.472 407.72 46.472 
L 351.635625 46.472 
Q 349.635625 46.472 349.635625 48.472 
L 349.635625 76.82825 
Q 349.635625 78.82825 351.635625 78.82825 
z
" style="fill:#ffffff;opacity:0.8;stroke:#cccccc;stroke-linejoin:miter;"/>
    </g>
    <g id="line2d_58">
     <path d="M 353.635625 54.570437 
L 373.635625 54.570437 
" style="fill:none;stroke:#1f77b4;stroke-linecap:square;stroke-width:1.5;"/>
    </g>
    <g id="line2d_59"/>
    <g id="text_19">
     <!-- coop -->
     <g transform="translate(381.635625 58.070437)scale(0.1 -0.1)">
      <use xlink:href="#DejaVuSans-63"/>
      <use x="54.980469" xlink:href="#DejaVuSans-6f"/>
      <use x="116.162109" xlink:href="#DejaVuSans-6f"/>
      <use x="177.34375" xlink:href="#DejaVuSans-70"/>
     </g>
    </g>
    <g id="line2d_60">
     <path d="M 353.635625 69.248562 
L 373.635625 69.248562 
" style="fill:none;stroke:#ff0000;stroke-linecap:square;stroke-width:1.5;"/>
    </g>
    <g id="line2d_61"/>
    <g id="text_20">
     <!-- host -->
     <g transform="translate(381.635625 72.748562)scale(0.1 -0.1)">
      <defs>
       <path d="M 3513 2113 
L 3513 0 
L 2938 0 
L 2938 2094 
Q 2938 2591 2744 2837 
Q 2550 3084 2163 3084 
Q 1697 3084 1428 2787 
Q 1159 2491 1159 1978 
L 1159 0 
L 581 0 
L 581 4863 
L 1159 4863 
L 1159 2956 
Q 1366 3272 1645 3428 
Q 1925 3584 2291 3584 
Q 2894 3584 3203 3211 
Q 3513 2838 3513 2113 
z
" id="DejaVuSans-68" transform="scale(0.015625)"/>
      </defs>
      <use xlink:href="#DejaVuSans-68"/>
      <use x="63.378906" xlink:href="#DejaVuSans-6f"/>
      <use x="124.560547" xlink:href="#DejaVuSans-73"/>
      <use x="176.660156" xlink:href="#DejaVuSans-74"/>
     </g>
    </g>
   </g>
  </g>
 </g>
 <defs>
  <clipPath id="p679acbc256">
   <rect height="266.112" width="357.12" x="57.6" y="41.472"/>
  </clipPath>
 </defs>
</svg>
