<?xml version="1.0" encoding="utf-8" standalone="no"?>
<!DOCTYPE svg PUBLIC "-//W3C//DTD SVG 1.1//EN"
  "http://www.w3.org/Graphics/SVG/1.1/DTD/svg11.dtd">
<svg height="345.6pt" version="1.1" viewBox="0 0 460.8 345.6" width="460.8pt" xmlns="http://www.w3.org/2000/svg" xmlns:xlink="http://www.w3.org/1999/xlink">
 <metadata>
  <rdf:RDF xmlns:cc="http://creativecommons.org/ns#" xmlns:dc="http://purl.org/dc/elements/1.1/" xmlns:rdf="http://www.w3.org/1999/02/22-rdf-syntax-ns#">
   <cc:Work>
    <dc:type rdf:resource="http://purl.org/dc/dcmitype/StillImage"/>
    <dc:date>2023-10-20T11:35:29.214568</dc:date>
    <dc:format>image/svg+xml</dc:format>
    <dc:creator>
     <cc:Agent>
      <dc:title>Matplotlib v3.4.1, https://matplotlib.org/</dc:title>
     </cc:Agent>
    </dc:creator>
   </cc:Work>
  </rdf:RDF>
 </metadata>
 <defs>
  <style type="text/css">*{stroke-linecap:butt;stroke-linejoin:round;}</style>
 </defs>
 <g id="figure_1">
  <g id="patch_1">
   <path d="M 0 345.6 
L 460.8 345.6 
L 460.8 0 
L 0 0 
z
" style="fill:#ffffff;"/>
  </g>
  <g id="axes_1">
   <g id="patch_2">
    <path d="M 57.6 307.584 
L 414.72 307.584 
L 414.72 41.472 
L 57.6 41.472 
z
" style="fill:#ffffff;"/>
   </g>
   <g id="patch_3">
    <path clip-path="url(#pde6e54bd8a)" d="M 73.832727 307.584 
L 73.832727 41.472 
L 236.16 41.472 
L 236.16 307.584 
z
" style="fill:#add8e6;opacity:0.2;"/>
   </g>
   <g id="patch_4">
    <path clip-path="url(#pde6e54bd8a)" d="M 236.16 307.584 
L 236.16 41.472 
L 398.487273 41.472 
L 398.487273 307.584 
z
" style="fill:#ff7f50;opacity:0.2;"/>
   </g>
   <g id="matplotlib.axis_1">
    <g id="xtick_1">
     <g id="line2d_1">
      <defs>
       <path d="M 0 0 
L 0 3.5 
" id="m65945f62d4" style="stroke:#000000;stroke-width:0.8;"/>
      </defs>
      <g>
       <use style="stroke:#000000;stroke-width:0.8;" x="73.832727" xlink:href="#m65945f62d4" y="307.584"/>
      </g>
     </g>
     <g id="text_1">
      <!-- 0 -->
      <g transform="translate(70.651477 322.182437)scale(0.1 -0.1)">
       <defs>
        <path d="M 2034 4250 
Q 1547 4250 1301 3770 
Q 1056 3291 1056 2328 
Q 1056 1369 1301 889 
Q 1547 409 2034 409 
Q 2525 409 2770 889 
Q 3016 1369 3016 2328 
Q 3016 3291 2770 3770 
Q 2525 4250 2034 4250 
z
M 2034 4750 
Q 2819 4750 3233 4129 
Q 3647 3509 3647 2328 
Q 3647 1150 3233 529 
Q 2819 -91 2034 -91 
Q 1250 -91 836 529 
Q 422 1150 422 2328 
Q 422 3509 836 4129 
Q 1250 4750 2034 4750 
z
" id="DejaVuSans-30" transform="scale(0.015625)"/>
       </defs>
       <use xlink:href="#DejaVuSans-30"/>
      </g>
     </g>
    </g>
    <g id="xtick_2">
     <g id="line2d_2">
      <g>
       <use style="stroke:#000000;stroke-width:0.8;" x="114.414545" xlink:href="#m65945f62d4" y="307.584"/>
      </g>
     </g>
     <g id="text_2">
      <!-- 5 -->
      <g transform="translate(111.233295 322.182437)scale(0.1 -0.1)">
       <defs>
        <path d="M 691 4666 
L 3169 4666 
L 3169 4134 
L 1269 4134 
L 1269 2991 
Q 1406 3038 1543 3061 
Q 1681 3084 1819 3084 
Q 2600 3084 3056 2656 
Q 3513 2228 3513 1497 
Q 3513 744 3044 326 
Q 2575 -91 1722 -91 
Q 1428 -91 1123 -41 
Q 819 9 494 109 
L 494 744 
Q 775 591 1075 516 
Q 1375 441 1709 441 
Q 2250 441 2565 725 
Q 2881 1009 2881 1497 
Q 2881 1984 2565 2268 
Q 2250 2553 1709 2553 
Q 1456 2553 1204 2497 
Q 953 2441 691 2322 
L 691 4666 
z
" id="DejaVuSans-35" transform="scale(0.015625)"/>
       </defs>
       <use xlink:href="#DejaVuSans-35"/>
      </g>
     </g>
    </g>
    <g id="xtick_3">
     <g id="line2d_3">
      <g>
       <use style="stroke:#000000;stroke-width:0.8;" x="154.996364" xlink:href="#m65945f62d4" y="307.584"/>
      </g>
     </g>
     <g id="text_3">
      <!-- 10 -->
      <g transform="translate(148.633864 322.182437)scale(0.1 -0.1)">
       <defs>
        <path d="M 794 531 
L 1825 531 
L 1825 4091 
L 703 3866 
L 703 4441 
L 1819 4666 
L 2450 4666 
L 2450 531 
L 3481 531 
L 3481 0 
L 794 0 
L 794 531 
z
" id="DejaVuSans-31" transform="scale(0.015625)"/>
       </defs>
       <use xlink:href="#DejaVuSans-31"/>
       <use x="63.623047" xlink:href="#DejaVuSans-30"/>
      </g>
     </g>
    </g>
    <g id="xtick_4">
     <g id="line2d_4">
      <g>
       <use style="stroke:#000000;stroke-width:0.8;" x="195.578182" xlink:href="#m65945f62d4" y="307.584"/>
      </g>
     </g>
     <g id="text_4">
      <!-- 15 -->
      <g transform="translate(189.215682 322.182437)scale(0.1 -0.1)">
       <use xlink:href="#DejaVuSans-31"/>
       <use x="63.623047" xlink:href="#DejaVuSans-35"/>
      </g>
     </g>
    </g>
    <g id="xtick_5">
     <g id="line2d_5">
      <g>
       <use style="stroke:#000000;stroke-width:0.8;" x="236.16" xlink:href="#m65945f62d4" y="307.584"/>
      </g>
     </g>
     <g id="text_5">
      <!-- 20 -->
      <g transform="translate(229.7975 322.182437)scale(0.1 -0.1)">
       <defs>
        <path d="M 1228 531 
L 3431 531 
L 3431 0 
L 469 0 
L 469 531 
Q 828 903 1448 1529 
Q 2069 2156 2228 2338 
Q 2531 2678 2651 2914 
Q 2772 3150 2772 3378 
Q 2772 3750 2511 3984 
Q 2250 4219 1831 4219 
Q 1534 4219 1204 4116 
Q 875 4013 500 3803 
L 500 4441 
Q 881 4594 1212 4672 
Q 1544 4750 1819 4750 
Q 2544 4750 2975 4387 
Q 3406 4025 3406 3419 
Q 3406 3131 3298 2873 
Q 3191 2616 2906 2266 
Q 2828 2175 2409 1742 
Q 1991 1309 1228 531 
z
" id="DejaVuSans-32" transform="scale(0.015625)"/>
       </defs>
       <use xlink:href="#DejaVuSans-32"/>
       <use x="63.623047" xlink:href="#DejaVuSans-30"/>
      </g>
     </g>
    </g>
    <g id="xtick_6">
     <g id="line2d_6">
      <g>
       <use style="stroke:#000000;stroke-width:0.8;" x="276.741818" xlink:href="#m65945f62d4" y="307.584"/>
      </g>
     </g>
     <g id="text_6">
      <!-- 25 -->
      <g transform="translate(270.379318 322.182437)scale(0.1 -0.1)">
       <use xlink:href="#DejaVuSans-32"/>
       <use x="63.623047" xlink:href="#DejaVuSans-35"/>
      </g>
     </g>
    </g>
    <g id="xtick_7">
     <g id="line2d_7">
      <g>
       <use style="stroke:#000000;stroke-width:0.8;" x="317.323636" xlink:href="#m65945f62d4" y="307.584"/>
      </g>
     </g>
     <g id="text_7">
      <!-- 30 -->
      <g transform="translate(310.961136 322.182437)scale(0.1 -0.1)">
       <defs>
        <path d="M 2597 2516 
Q 3050 2419 3304 2112 
Q 3559 1806 3559 1356 
Q 3559 666 3084 287 
Q 2609 -91 1734 -91 
Q 1441 -91 1130 -33 
Q 819 25 488 141 
L 488 750 
Q 750 597 1062 519 
Q 1375 441 1716 441 
Q 2309 441 2620 675 
Q 2931 909 2931 1356 
Q 2931 1769 2642 2001 
Q 2353 2234 1838 2234 
L 1294 2234 
L 1294 2753 
L 1863 2753 
Q 2328 2753 2575 2939 
Q 2822 3125 2822 3475 
Q 2822 3834 2567 4026 
Q 2313 4219 1838 4219 
Q 1578 4219 1281 4162 
Q 984 4106 628 3988 
L 628 4550 
Q 988 4650 1302 4700 
Q 1616 4750 1894 4750 
Q 2613 4750 3031 4423 
Q 3450 4097 3450 3541 
Q 3450 3153 3228 2886 
Q 3006 2619 2597 2516 
z
" id="DejaVuSans-33" transform="scale(0.015625)"/>
       </defs>
       <use xlink:href="#DejaVuSans-33"/>
       <use x="63.623047" xlink:href="#DejaVuSans-30"/>
      </g>
     </g>
    </g>
    <g id="xtick_8">
     <g id="line2d_8">
      <g>
       <use style="stroke:#000000;stroke-width:0.8;" x="357.905455" xlink:href="#m65945f62d4" y="307.584"/>
      </g>
     </g>
     <g id="text_8">
      <!-- 35 -->
      <g transform="translate(351.542955 322.182437)scale(0.1 -0.1)">
       <use xlink:href="#DejaVuSans-33"/>
       <use x="63.623047" xlink:href="#DejaVuSans-35"/>
      </g>
     </g>
    </g>
    <g id="xtick_9">
     <g id="line2d_9">
      <g>
       <use style="stroke:#000000;stroke-width:0.8;" x="398.487273" xlink:href="#m65945f62d4" y="307.584"/>
      </g>
     </g>
     <g id="text_9">
      <!-- 40 -->
      <g transform="translate(392.124773 322.182437)scale(0.1 -0.1)">
       <defs>
        <path d="M 2419 4116 
L 825 1625 
L 2419 1625 
L 2419 4116 
z
M 2253 4666 
L 3047 4666 
L 3047 1625 
L 3713 1625 
L 3713 1100 
L 3047 1100 
L 3047 0 
L 2419 0 
L 2419 1100 
L 313 1100 
L 313 1709 
L 2253 4666 
z
" id="DejaVuSans-34" transform="scale(0.015625)"/>
       </defs>
       <use xlink:href="#DejaVuSans-34"/>
       <use x="63.623047" xlink:href="#DejaVuSans-30"/>
      </g>
     </g>
    </g>
    <g id="text_10">
     <!-- t -->
     <g transform="translate(234.199844 335.860562)scale(0.1 -0.1)">
      <defs>
       <path d="M 1172 4494 
L 1172 3500 
L 2356 3500 
L 2356 3053 
L 1172 3053 
L 1172 1153 
Q 1172 725 1289 603 
Q 1406 481 1766 481 
L 2356 481 
L 2356 0 
L 1766 0 
Q 1100 0 847 248 
Q 594 497 594 1153 
L 594 3053 
L 172 3053 
L 172 3500 
L 594 3500 
L 594 4494 
L 1172 4494 
z
" id="DejaVuSans-74" transform="scale(0.015625)"/>
      </defs>
      <use xlink:href="#DejaVuSans-74"/>
     </g>
    </g>
   </g>
   <g id="matplotlib.axis_2">
    <g id="ytick_1">
     <g id="line2d_10">
      <defs>
       <path d="M 0 0 
L -3.5 0 
" id="m9803868a24" style="stroke:#000000;stroke-width:0.8;"/>
      </defs>
      <g>
       <use style="stroke:#000000;stroke-width:0.8;" x="57.6" xlink:href="#m9803868a24" y="307.584"/>
      </g>
     </g>
     <g id="text_11">
      <!-- 0.0 -->
      <g transform="translate(34.696875 311.383219)scale(0.1 -0.1)">
       <defs>
        <path d="M 684 794 
L 1344 794 
L 1344 0 
L 684 0 
L 684 794 
z
" id="DejaVuSans-2e" transform="scale(0.015625)"/>
       </defs>
       <use xlink:href="#DejaVuSans-30"/>
       <use x="63.623047" xlink:href="#DejaVuSans-2e"/>
       <use x="95.410156" xlink:href="#DejaVuSans-30"/>
      </g>
     </g>
    </g>
    <g id="ytick_2">
     <g id="line2d_11">
      <g>
       <use style="stroke:#000000;stroke-width:0.8;" x="57.6" xlink:href="#m9803868a24" y="254.3616"/>
      </g>
     </g>
     <g id="text_12">
      <!-- 0.2 -->
      <g transform="translate(34.696875 258.160819)scale(0.1 -0.1)">
       <use xlink:href="#DejaVuSans-30"/>
       <use x="63.623047" xlink:href="#DejaVuSans-2e"/>
       <use x="95.410156" xlink:href="#DejaVuSans-32"/>
      </g>
     </g>
    </g>
    <g id="ytick_3">
     <g id="line2d_12">
      <g>
       <use style="stroke:#000000;stroke-width:0.8;" x="57.6" xlink:href="#m9803868a24" y="201.1392"/>
      </g>
     </g>
     <g id="text_13">
      <!-- 0.4 -->
      <g transform="translate(34.696875 204.938419)scale(0.1 -0.1)">
       <use xlink:href="#DejaVuSans-30"/>
       <use x="63.623047" xlink:href="#DejaVuSans-2e"/>
       <use x="95.410156" xlink:href="#DejaVuSans-34"/>
      </g>
     </g>
    </g>
    <g id="ytick_4">
     <g id="line2d_13">
      <g>
       <use style="stroke:#000000;stroke-width:0.8;" x="57.6" xlink:href="#m9803868a24" y="147.9168"/>
      </g>
     </g>
     <g id="text_14">
      <!-- 0.6 -->
      <g transform="translate(34.696875 151.716019)scale(0.1 -0.1)">
       <defs>
        <path d="M 2113 2584 
Q 1688 2584 1439 2293 
Q 1191 2003 1191 1497 
Q 1191 994 1439 701 
Q 1688 409 2113 409 
Q 2538 409 2786 701 
Q 3034 994 3034 1497 
Q 3034 2003 2786 2293 
Q 2538 2584 2113 2584 
z
M 3366 4563 
L 3366 3988 
Q 3128 4100 2886 4159 
Q 2644 4219 2406 4219 
Q 1781 4219 1451 3797 
Q 1122 3375 1075 2522 
Q 1259 2794 1537 2939 
Q 1816 3084 2150 3084 
Q 2853 3084 3261 2657 
Q 3669 2231 3669 1497 
Q 3669 778 3244 343 
Q 2819 -91 2113 -91 
Q 1303 -91 875 529 
Q 447 1150 447 2328 
Q 447 3434 972 4092 
Q 1497 4750 2381 4750 
Q 2619 4750 2861 4703 
Q 3103 4656 3366 4563 
z
" id="DejaVuSans-36" transform="scale(0.015625)"/>
       </defs>
       <use xlink:href="#DejaVuSans-30"/>
       <use x="63.623047" xlink:href="#DejaVuSans-2e"/>
       <use x="95.410156" xlink:href="#DejaVuSans-36"/>
      </g>
     </g>
    </g>
    <g id="ytick_5">
     <g id="line2d_14">
      <g>
       <use style="stroke:#000000;stroke-width:0.8;" x="57.6" xlink:href="#m9803868a24" y="94.6944"/>
      </g>
     </g>
     <g id="text_15">
      <!-- 0.8 -->
      <g transform="translate(34.696875 98.493619)scale(0.1 -0.1)">
       <defs>
        <path d="M 2034 2216 
Q 1584 2216 1326 1975 
Q 1069 1734 1069 1313 
Q 1069 891 1326 650 
Q 1584 409 2034 409 
Q 2484 409 2743 651 
Q 3003 894 3003 1313 
Q 3003 1734 2745 1975 
Q 2488 2216 2034 2216 
z
M 1403 2484 
Q 997 2584 770 2862 
Q 544 3141 544 3541 
Q 544 4100 942 4425 
Q 1341 4750 2034 4750 
Q 2731 4750 3128 4425 
Q 3525 4100 3525 3541 
Q 3525 3141 3298 2862 
Q 3072 2584 2669 2484 
Q 3125 2378 3379 2068 
Q 3634 1759 3634 1313 
Q 3634 634 3220 271 
Q 2806 -91 2034 -91 
Q 1263 -91 848 271 
Q 434 634 434 1313 
Q 434 1759 690 2068 
Q 947 2378 1403 2484 
z
M 1172 3481 
Q 1172 3119 1398 2916 
Q 1625 2713 2034 2713 
Q 2441 2713 2670 2916 
Q 2900 3119 2900 3481 
Q 2900 3844 2670 4047 
Q 2441 4250 2034 4250 
Q 1625 4250 1398 4047 
Q 1172 3844 1172 3481 
z
" id="DejaVuSans-38" transform="scale(0.015625)"/>
       </defs>
       <use xlink:href="#DejaVuSans-30"/>
       <use x="63.623047" xlink:href="#DejaVuSans-2e"/>
       <use x="95.410156" xlink:href="#DejaVuSans-38"/>
      </g>
     </g>
    </g>
    <g id="ytick_6">
     <g id="line2d_15">
      <g>
       <use style="stroke:#000000;stroke-width:0.8;" x="57.6" xlink:href="#m9803868a24" y="41.472"/>
      </g>
     </g>
     <g id="text_16">
      <!-- 1.0 -->
      <g transform="translate(34.696875 45.271219)scale(0.1 -0.1)">
       <use xlink:href="#DejaVuSans-31"/>
       <use x="63.623047" xlink:href="#DejaVuSans-2e"/>
       <use x="95.410156" xlink:href="#DejaVuSans-30"/>
      </g>
     </g>
    </g>
    <g id="text_17">
     <!-- p(context) -->
     <g transform="translate(28.617187 200.449875)rotate(-90)scale(0.1 -0.1)">
      <defs>
       <path d="M 1159 525 
L 1159 -1331 
L 581 -1331 
L 581 3500 
L 1159 3500 
L 1159 2969 
Q 1341 3281 1617 3432 
Q 1894 3584 2278 3584 
Q 2916 3584 3314 3078 
Q 3713 2572 3713 1747 
Q 3713 922 3314 415 
Q 2916 -91 2278 -91 
Q 1894 -91 1617 61 
Q 1341 213 1159 525 
z
M 3116 1747 
Q 3116 2381 2855 2742 
Q 2594 3103 2138 3103 
Q 1681 3103 1420 2742 
Q 1159 2381 1159 1747 
Q 1159 1113 1420 752 
Q 1681 391 2138 391 
Q 2594 391 2855 752 
Q 3116 1113 3116 1747 
z
" id="DejaVuSans-70" transform="scale(0.015625)"/>
       <path d="M 1984 4856 
Q 1566 4138 1362 3434 
Q 1159 2731 1159 2009 
Q 1159 1288 1364 580 
Q 1569 -128 1984 -844 
L 1484 -844 
Q 1016 -109 783 600 
Q 550 1309 550 2009 
Q 550 2706 781 3412 
Q 1013 4119 1484 4856 
L 1984 4856 
z
" id="DejaVuSans-28" transform="scale(0.015625)"/>
       <path d="M 3122 3366 
L 3122 2828 
Q 2878 2963 2633 3030 
Q 2388 3097 2138 3097 
Q 1578 3097 1268 2742 
Q 959 2388 959 1747 
Q 959 1106 1268 751 
Q 1578 397 2138 397 
Q 2388 397 2633 464 
Q 2878 531 3122 666 
L 3122 134 
Q 2881 22 2623 -34 
Q 2366 -91 2075 -91 
Q 1284 -91 818 406 
Q 353 903 353 1747 
Q 353 2603 823 3093 
Q 1294 3584 2113 3584 
Q 2378 3584 2631 3529 
Q 2884 3475 3122 3366 
z
" id="DejaVuSans-63" transform="scale(0.015625)"/>
       <path d="M 1959 3097 
Q 1497 3097 1228 2736 
Q 959 2375 959 1747 
Q 959 1119 1226 758 
Q 1494 397 1959 397 
Q 2419 397 2687 759 
Q 2956 1122 2956 1747 
Q 2956 2369 2687 2733 
Q 2419 3097 1959 3097 
z
M 1959 3584 
Q 2709 3584 3137 3096 
Q 3566 2609 3566 1747 
Q 3566 888 3137 398 
Q 2709 -91 1959 -91 
Q 1206 -91 779 398 
Q 353 888 353 1747 
Q 353 2609 779 3096 
Q 1206 3584 1959 3584 
z
" id="DejaVuSans-6f" transform="scale(0.015625)"/>
       <path d="M 3513 2113 
L 3513 0 
L 2938 0 
L 2938 2094 
Q 2938 2591 2744 2837 
Q 2550 3084 2163 3084 
Q 1697 3084 1428 2787 
Q 1159 2491 1159 1978 
L 1159 0 
L 581 0 
L 581 3500 
L 1159 3500 
L 1159 2956 
Q 1366 3272 1645 3428 
Q 1925 3584 2291 3584 
Q 2894 3584 3203 3211 
Q 3513 2838 3513 2113 
z
" id="DejaVuSans-6e" transform="scale(0.015625)"/>
       <path d="M 3597 1894 
L 3597 1613 
L 953 1613 
Q 991 1019 1311 708 
Q 1631 397 2203 397 
Q 2534 397 2845 478 
Q 3156 559 3463 722 
L 3463 178 
Q 3153 47 2828 -22 
Q 2503 -91 2169 -91 
Q 1331 -91 842 396 
Q 353 884 353 1716 
Q 353 2575 817 3079 
Q 1281 3584 2069 3584 
Q 2775 3584 3186 3129 
Q 3597 2675 3597 1894 
z
M 3022 2063 
Q 3016 2534 2758 2815 
Q 2500 3097 2075 3097 
Q 1594 3097 1305 2825 
Q 1016 2553 972 2059 
L 3022 2063 
z
" id="DejaVuSans-65" transform="scale(0.015625)"/>
       <path d="M 3513 3500 
L 2247 1797 
L 3578 0 
L 2900 0 
L 1881 1375 
L 863 0 
L 184 0 
L 1544 1831 
L 300 3500 
L 978 3500 
L 1906 2253 
L 2834 3500 
L 3513 3500 
z
" id="DejaVuSans-78" transform="scale(0.015625)"/>
       <path d="M 513 4856 
L 1013 4856 
Q 1481 4119 1714 3412 
Q 1947 2706 1947 2009 
Q 1947 1309 1714 600 
Q 1481 -109 1013 -844 
L 513 -844 
Q 928 -128 1133 580 
Q 1338 1288 1338 2009 
Q 1338 2731 1133 3434 
Q 928 4138 513 4856 
z
" id="DejaVuSans-29" transform="scale(0.015625)"/>
      </defs>
      <use xlink:href="#DejaVuSans-70"/>
      <use x="63.476562" xlink:href="#DejaVuSans-28"/>
      <use x="102.490234" xlink:href="#DejaVuSans-63"/>
      <use x="157.470703" xlink:href="#DejaVuSans-6f"/>
      <use x="218.652344" xlink:href="#DejaVuSans-6e"/>
      <use x="282.03125" xlink:href="#DejaVuSans-74"/>
      <use x="321.240234" xlink:href="#DejaVuSans-65"/>
      <use x="381.013672" xlink:href="#DejaVuSans-78"/>
      <use x="440.193359" xlink:href="#DejaVuSans-74"/>
      <use x="479.402344" xlink:href="#DejaVuSans-29"/>
     </g>
    </g>
   </g>
   <g id="line2d_16">
    <path clip-path="url(#pde6e54bd8a)" d="M 73.832727 218.88 
L 81.949091 303.882811 
L 90.065455 211.321417 
L 98.181818 177.582263 
L 106.298182 162.474632 
L 114.414545 296.572406 
L 122.530909 302.491442 
L 130.647273 206.737162 
L 138.763636 171.455075 
L 146.88 159.253282 
L 154.996364 152.400356 
L 163.112727 147.01248 
L 171.229091 142.31482 
L 179.345455 287.573785 
L 187.461818 186.042902 
L 195.578182 286.254641 
L 203.694545 192.141297 
L 211.810909 164.659044 
L 219.927273 156.975283 
L 228.043636 153.659818 
L 236.16 208.453945 
L 244.276364 286.181886 
L 252.392727 293.231509 
L 260.509091 295.161705 
L 268.625455 296.394341 
L 276.741818 297.396153 
L 284.858182 298.256615 
L 292.974545 299.006586 
L 301.090909 299.664305 
L 309.207273 195.208572 
L 317.323636 288.781517 
L 325.44 297.193293 
L 333.556364 298.664229 
L 341.672727 299.317188 
L 349.789091 299.811705 
L 357.905455 300.244755 
L 366.021818 198.098471 
L 374.138182 289.127843 
L 382.254545 297.847831 
L 390.370909 299.232649 
" style="fill:none;stroke:#add8e6;stroke-linecap:square;stroke-opacity:0.3;stroke-width:1.5;"/>
   </g>
   <g id="line2d_17">
    <path clip-path="url(#pde6e54bd8a)" d="M 73.832727 218.88 
L 81.949091 168.329484 
L 90.065455 148.730799 
L 98.181818 295.821361 
L 106.298182 185.35773 
L 114.414545 293.281049 
L 122.530909 193.697469 
L 130.647273 161.946535 
L 138.763636 151.266123 
L 146.88 282.958334 
L 154.996364 189.33086 
L 163.112727 162.884929 
L 171.229091 154.986655 
L 179.345455 150.8663 
L 187.461818 147.611302 
L 195.578182 144.697676 
L 203.694545 142.021367 
L 211.810909 139.548689 
L 219.927273 137.258695 
L 228.043636 135.134036 
L 236.16 190.467381 
L 244.276364 283.810159 
L 252.392727 292.599473 
L 260.509091 295.124922 
L 268.625455 177.855369 
L 276.741818 281.098879 
L 284.858182 291.758986 
L 292.974545 294.28053 
L 301.090909 295.641593 
L 309.207273 296.691205 
L 317.323636 297.584973 
L 325.44 185.325569 
L 333.556364 283.288574 
L 341.672727 294.191682 
L 349.789091 296.341722 
L 357.905455 297.257905 
L 366.021818 297.920054 
L 374.138182 298.490346 
L 382.254545 299.001734 
L 390.370909 299.464873 
" style="fill:none;stroke:#add8e6;stroke-linecap:square;stroke-opacity:0.3;stroke-width:1.5;"/>
   </g>
   <g id="line2d_18">
    <path clip-path="url(#pde6e54bd8a)" d="M 73.832727 218.88 
L 81.949091 168.329484 
L 90.065455 148.730799 
L 98.181818 135.138218 
L 106.298182 124.733456 
L 114.414545 291.371382 
L 122.530909 170.48617 
L 130.647273 134.89588 
L 138.763636 283.001995 
L 146.88 174.656322 
L 154.996364 142.246677 
L 163.112727 133.188636 
L 171.229091 128.831832 
L 179.345455 125.540062 
L 187.461818 122.66598 
L 195.578182 120.076193 
L 203.694545 271.931423 
L 211.810909 291.465324 
L 219.927273 174.581538 
L 228.043636 136.174271 
L 236.16 184.075584 
L 244.276364 279.009268 
L 252.392727 291.516408 
L 260.509091 294.868579 
L 268.625455 296.619569 
L 276.741818 297.890833 
L 284.858182 298.921195 
L 292.974545 299.784012 
L 301.090909 300.515595 
L 309.207273 301.140802 
L 317.323636 186.327965 
L 325.44 284.730983 
L 333.556364 297.516756 
L 341.672727 299.905052 
L 349.789091 300.70356 
L 357.905455 301.195588 
L 366.021818 301.598037 
L 374.138182 301.95241 
L 382.254545 190.065352 
L 390.370909 130.764697 
" style="fill:none;stroke:#add8e6;stroke-linecap:square;stroke-opacity:0.3;stroke-width:1.5;"/>
   </g>
   <g id="line2d_19">
    <path clip-path="url(#pde6e54bd8a)" d="M 73.832727 218.88 
L 81.949091 168.329484 
L 90.065455 298.706964 
L 98.181818 303.878175 
L 106.298182 204.366561 
L 114.414545 164.064916 
L 122.530909 148.387107 
L 130.647273 138.522554 
L 138.763636 130.729323 
L 146.88 124.191295 
L 154.996364 118.611438 
L 163.112727 113.808393 
L 171.229091 109.645297 
L 179.345455 106.013302 
L 187.461818 102.824763 
L 195.578182 282.42299 
L 203.694545 156.034502 
L 211.810909 118.182025 
L 219.927273 109.165929 
L 228.043636 273.4549 
L 236.16 226.83688 
L 244.276364 288.219798 
L 252.392727 295.911162 
L 260.509091 298.107588 
L 268.625455 299.375799 
L 276.741818 300.333212 
L 284.858182 301.1133 
L 292.974545 185.262721 
L 301.090909 285.007583 
L 309.207273 175.650822 
L 317.323636 130.467768 
L 325.44 117.90314 
L 333.556364 267.974409 
L 341.672727 291.94332 
L 349.789091 296.420436 
L 357.905455 297.807731 
L 366.021818 298.596841 
L 374.138182 299.220301 
L 382.254545 299.762472 
L 390.370909 300.245182 
" style="fill:none;stroke:#add8e6;stroke-linecap:square;stroke-opacity:0.3;stroke-width:1.5;"/>
   </g>
   <g id="line2d_20">
    <path clip-path="url(#pde6e54bd8a)" d="M 73.832727 218.88 
L 81.949091 168.329484 
L 90.065455 148.730799 
L 98.181818 135.138218 
L 106.298182 293.415761 
L 114.414545 302.482968 
L 122.530909 189.92399 
L 130.647273 145.310561 
L 138.763636 131.56599 
L 146.88 124.477704 
L 154.996364 119.158895 
L 163.112727 114.682331 
L 171.229091 110.804365 
L 179.345455 107.409436 
L 187.461818 104.41695 
L 195.578182 101.763547 
L 203.694545 99.397901 
L 211.810909 97.277998 
L 219.927273 95.369208 
L 228.043636 93.642813 
L 236.16 152.366093 
L 244.276364 284.963843 
L 252.392727 148.216144 
L 260.509091 277.890568 
L 268.625455 295.497176 
L 276.741818 166.654776 
L 284.858182 276.837183 
L 292.974545 293.451151 
L 301.090909 297.211988 
L 309.207273 176.307245 
L 317.323636 122.861775 
L 325.44 263.053257 
L 333.556364 157.989933 
L 341.672727 265.487923 
L 349.789091 286.305595 
L 357.905455 291.426609 
L 366.021818 293.413359 
L 374.138182 182.362455 
L 382.254545 270.351126 
L 390.370909 287.433049 
" style="fill:none;stroke:#add8e6;stroke-linecap:square;stroke-opacity:0.3;stroke-width:1.5;"/>
   </g>
   <g id="line2d_21">
    <path clip-path="url(#pde6e54bd8a)" d="M 73.832727 218.88 
L 81.949091 168.329484 
L 90.065455 148.730799 
L 98.181818 135.138218 
L 106.298182 124.733456 
L 114.414545 116.624393 
L 122.530909 289.68438 
L 130.647273 164.607625 
L 138.763636 128.356313 
L 146.88 118.737729 
L 154.996364 114.028793 
L 163.112727 278.360882 
L 171.229091 161.348405 
L 179.345455 127.846608 
L 187.461818 119.629151 
L 195.578182 269.00384 
L 203.694545 162.303428 
L 211.810909 132.253018 
L 219.927273 124.872323 
L 228.043636 122.067623 
L 236.16 172.717261 
L 244.276364 132.778564 
L 252.392727 255.033837 
L 260.509091 158.904409 
L 268.625455 254.200484 
L 276.741818 163.596896 
L 284.858182 249.808246 
L 292.974545 268.151894 
L 301.090909 274.124646 
L 309.207273 277.300056 
L 317.323636 279.662689 
L 325.44 281.6798 
L 333.556364 283.473969 
L 341.672727 285.08702 
L 349.789091 178.713028 
L 357.905455 142.009423 
L 366.021818 250.960691 
L 374.138182 274.321715 
L 382.254545 280.429318 
L 390.370909 180.431992 
" style="fill:none;stroke:#add8e6;stroke-linecap:square;stroke-opacity:0.3;stroke-width:1.5;"/>
   </g>
   <g id="line2d_22">
    <path clip-path="url(#pde6e54bd8a)" d="M 73.832727 218.88 
L 81.949091 303.882811 
L 90.065455 211.321417 
L 98.181818 301.636568 
L 106.298182 215.160644 
L 114.414545 299.433941 
L 122.530909 302.964929 
L 130.647273 303.839791 
L 138.763636 304.381997 
L 146.88 304.783712 
L 154.996364 226.672897 
L 163.112727 188.620175 
L 171.229091 173.065463 
L 179.345455 163.746278 
L 187.461818 156.30197 
L 195.578182 149.767172 
L 203.694545 143.906376 
L 211.810909 138.627379 
L 219.927273 133.866448 
L 228.043636 129.56796 
L 236.16 205.684074 
L 244.276364 297.696381 
L 252.392727 186.501148 
L 260.509091 293.380142 
L 268.625455 300.627175 
L 276.741818 301.824745 
L 284.858182 302.396182 
L 292.974545 197.202476 
L 301.090909 293.125238 
L 309.207273 300.424522 
L 317.323636 199.973512 
L 325.44 291.182936 
L 333.556364 299.073923 
L 341.672727 300.35628 
L 349.789091 300.884596 
L 357.905455 301.272977 
L 366.021818 301.611343 
L 374.138182 301.916947 
L 382.254545 202.560966 
L 390.370909 291.776312 
" style="fill:none;stroke:#add8e6;stroke-linecap:square;stroke-opacity:0.3;stroke-width:1.5;"/>
   </g>
   <g id="line2d_23">
    <path clip-path="url(#pde6e54bd8a)" d="M 73.832727 218.88 
L 81.949091 168.329484 
L 90.065455 148.730799 
L 98.181818 135.138218 
L 106.298182 124.733456 
L 114.414545 116.624393 
L 122.530909 110.189004 
L 130.647273 104.982655 
L 138.763636 100.694998 
L 146.88 97.108261 
L 154.996364 94.066787 
L 163.112727 91.456946 
L 171.229091 89.194109 
L 179.345455 87.214095 
L 187.461818 85.467425 
L 195.578182 285.067828 
L 203.694545 136.877525 
L 211.810909 97.73015 
L 219.927273 90.490421 
L 228.043636 273.842704 
L 236.16 219.109996 
L 244.276364 293.06369 
L 252.392727 163.883415 
L 260.509091 279.417648 
L 268.625455 296.657954 
L 276.741818 300.287806 
L 284.858182 301.736624 
L 292.974545 302.644544 
L 301.090909 303.321679 
L 309.207273 303.854986 
L 317.323636 304.284804 
L 325.44 188.758944 
L 333.556364 288.030026 
L 341.672727 170.039949 
L 349.789091 281.120869 
L 357.905455 298.906955 
L 366.021818 301.97175 
L 374.138182 302.790613 
L 382.254545 303.215492 
L 390.370909 303.54178 
" style="fill:none;stroke:#add8e6;stroke-linecap:square;stroke-opacity:0.3;stroke-width:1.5;"/>
   </g>
   <g id="line2d_24">
    <path clip-path="url(#pde6e54bd8a)" d="M 73.832727 218.88 
L 81.949091 168.329484 
L 90.065455 148.730799 
L 98.181818 295.821361 
L 106.298182 185.35773 
L 114.414545 151.554802 
L 122.530909 139.730643 
L 130.647273 132.418789 
L 138.763636 126.598495 
L 146.88 121.661061 
L 154.996364 117.39582 
L 163.112727 113.677512 
L 171.229091 110.412973 
L 179.345455 280.658662 
L 187.461818 156.946788 
L 195.578182 278.883933 
L 203.694545 164.970021 
L 211.810909 131.846217 
L 219.927273 123.72432 
L 228.043636 120.685837 
L 236.16 174.377164 
L 244.276364 279.630204 
L 252.392727 292.654773 
L 260.509091 296.054481 
L 268.625455 297.836323 
L 276.741818 299.115492 
L 284.858182 300.132213 
L 292.974545 300.966213 
L 301.090909 301.65971 
L 309.207273 302.241894 
L 317.323636 302.734798 
L 325.44 303.155474 
L 333.556364 303.51725 
L 341.672727 303.830615 
L 349.789091 304.103887 
L 357.905455 184.440236 
L 366.021818 289.407707 
L 374.138182 170.583921 
L 382.254545 284.312677 
L 390.370909 299.404062 
" style="fill:none;stroke:#add8e6;stroke-linecap:square;stroke-opacity:0.3;stroke-width:1.5;"/>
   </g>
   <g id="line2d_25">
    <path clip-path="url(#pde6e54bd8a)" d="M 73.832727 218.88 
L 81.949091 303.882811 
L 90.065455 305.909991 
L 98.181818 219.51827 
L 106.298182 179.635388 
L 114.414545 162.037482 
L 122.530909 150.224696 
L 130.647273 140.82422 
L 138.763636 133.01364 
L 146.88 126.430961 
L 154.996364 291.784815 
L 163.112727 179.212081 
L 171.229091 142.308911 
L 179.345455 131.779901 
L 187.461818 126.994904 
L 195.578182 123.536195 
L 203.694545 120.559416 
L 211.810909 117.886999 
L 219.927273 115.461963 
L 228.043636 113.251403 
L 236.16 174.64546 
L 244.276364 293.368796 
L 252.392727 301.152888 
L 260.509091 302.685748 
L 268.625455 175.996879 
L 276.741818 291.543185 
L 284.858182 300.515458 
L 292.974545 181.351236 
L 301.090909 288.914152 
L 309.207273 177.339375 
L 317.323636 284.409257 
L 325.44 296.252686 
L 333.556364 298.544224 
L 341.672727 299.521085 
L 349.789091 191.156055 
L 357.905455 285.444169 
L 366.021818 183.70031 
L 374.138182 142.725435 
L 382.254545 273.515779 
L 390.370909 291.796128 
" style="fill:none;stroke:#add8e6;stroke-linecap:square;stroke-opacity:0.3;stroke-width:1.5;"/>
   </g>
   <g id="line2d_26">
    <path clip-path="url(#pde6e54bd8a)" d="M 73.832727 218.88 
L 81.949091 168.329484 
L 90.065455 298.706964 
L 98.181818 194.775068 
L 106.298182 161.851533 
L 114.414545 148.676077 
L 122.530909 139.853355 
L 130.647273 132.738623 
L 138.763636 126.734976 
L 146.88 121.592815 
L 154.996364 117.149312 
L 163.112727 113.281045 
L 171.229091 109.890656 
L 179.345455 106.900274 
L 187.461818 104.24709 
L 195.578182 281.542011 
L 203.694545 298.19668 
L 211.810909 165.631551 
L 219.927273 120.437668 
L 228.043636 274.703052 
L 236.16 227.392944 
L 244.276364 288.017774 
L 252.392727 174.425853 
L 260.509091 134.510913 
L 268.625455 267.506653 
L 276.741818 287.67794 
L 284.858182 292.295502 
L 292.974545 294.323585 
L 301.090909 295.711305 
L 309.207273 296.836704 
L 317.323636 297.794756 
L 325.44 298.622408 
L 333.556364 299.342309 
L 341.672727 299.971731 
L 349.789091 300.524697 
L 357.905455 301.012771 
L 366.021818 301.445534 
L 374.138182 301.830948 
L 382.254545 302.175652 
L 390.370909 302.485201 
" style="fill:none;stroke:#add8e6;stroke-linecap:square;stroke-opacity:0.3;stroke-width:1.5;"/>
   </g>
   <g id="line2d_27">
    <path clip-path="url(#pde6e54bd8a)" d="M 73.832727 218.88 
L 81.949091 168.329484 
L 90.065455 148.730799 
L 98.181818 135.138218 
L 106.298182 124.733456 
L 114.414545 116.624393 
L 122.530909 110.189004 
L 130.647273 288.334273 
L 138.763636 159.558614 
L 146.88 122.768382 
L 154.996364 279.216238 
L 163.112727 164.532368 
L 171.229091 277.834996 
L 179.345455 172.3366 
L 187.461818 139.089275 
L 195.578182 130.219814 
L 203.694545 264.29366 
L 211.810909 285.728546 
L 219.927273 181.92462 
L 228.043636 146.305572 
L 236.16 190.620753 
L 244.276364 272.662585 
L 252.392727 177.071966 
L 260.509091 265.701146 
L 268.625455 280.63639 
L 276.741818 185.864768 
L 284.858182 264.074919 
L 292.974545 277.820133 
L 301.090909 281.757387 
L 309.207273 283.79814 
L 317.323636 285.34136 
L 325.44 286.678987 
L 333.556364 190.291108 
L 341.672727 267.602991 
L 349.789091 281.196133 
L 357.905455 284.586294 
L 366.021818 286.059288 
L 374.138182 287.098316 
L 382.254545 191.841962 
L 390.370909 268.300463 
" style="fill:none;stroke:#add8e6;stroke-linecap:square;stroke-opacity:0.3;stroke-width:1.5;"/>
   </g>
   <g id="line2d_28">
    <path clip-path="url(#pde6e54bd8a)" d="M 73.832727 218.88 
L 81.949091 168.329484 
L 90.065455 148.730799 
L 98.181818 135.138218 
L 106.298182 124.733456 
L 114.414545 291.371382 
L 122.530909 302.100464 
L 130.647273 184.390719 
L 138.763636 291.791952 
L 146.88 184.339347 
L 154.996364 145.506263 
L 163.112727 133.82918 
L 171.229091 128.208969 
L 179.345455 124.048368 
L 187.461818 120.46818 
L 195.578182 117.276392 
L 203.694545 275.891819 
L 211.810909 165.402357 
L 219.927273 276.266502 
L 228.043636 172.76823 
L 236.16 199.886152 
L 244.276364 279.19164 
L 252.392727 178.769706 
L 260.509091 271.595699 
L 268.625455 180.249752 
L 276.741818 267.292049 
L 284.858182 281.412123 
L 292.974545 285.274787 
L 301.090909 287.251479 
L 309.207273 288.73208 
L 317.323636 290.001734 
L 325.44 191.718389 
L 333.556364 271.973646 
L 341.672727 285.038949 
L 349.789091 192.468721 
L 357.905455 269.554268 
L 366.021818 282.599737 
L 374.138182 285.750426 
L 382.254545 287.089667 
L 390.370909 288.028012 
" style="fill:none;stroke:#add8e6;stroke-linecap:square;stroke-opacity:0.3;stroke-width:1.5;"/>
   </g>
   <g id="line2d_29">
    <path clip-path="url(#pde6e54bd8a)" d="M 73.832727 218.88 
L 81.949091 168.329484 
L 90.065455 148.730799 
L 98.181818 135.138218 
L 106.298182 124.733456 
L 114.414545 116.624393 
L 122.530909 110.189004 
L 130.647273 104.982655 
L 138.763636 100.694998 
L 146.88 97.108261 
L 154.996364 94.066787 
L 163.112727 285.500984 
L 171.229091 145.326892 
L 179.345455 107.091881 
L 187.461818 275.574493 
L 195.578182 150.838943 
L 203.694545 114.262378 
L 211.810909 266.22171 
L 219.927273 154.325248 
L 228.043636 120.832191 
L 236.16 164.987511 
L 244.276364 122.476635 
L 252.392727 259.738465 
L 260.509091 285.431923 
L 268.625455 291.993609 
L 276.741818 174.948389 
L 284.858182 129.778015 
L 292.974545 118.455086 
L 301.090909 253.306562 
L 309.207273 281.410533 
L 317.323636 172.993106 
L 325.44 261.51596 
L 333.556364 166.651354 
L 341.672727 255.286881 
L 349.789091 275.443002 
L 357.905455 281.435524 
L 366.021818 284.148286 
L 374.138182 181.401909 
L 382.254545 258.966066 
L 390.370909 276.676606 
" style="fill:none;stroke:#add8e6;stroke-linecap:square;stroke-opacity:0.3;stroke-width:1.5;"/>
   </g>
   <g id="line2d_30">
    <path clip-path="url(#pde6e54bd8a)" d="M 73.832727 218.88 
L 81.949091 168.329484 
L 90.065455 298.706964 
L 98.181818 303.878175 
L 106.298182 204.366561 
L 114.414545 164.064916 
L 122.530909 148.387107 
L 130.647273 290.811675 
L 138.763636 191.83079 
L 146.88 159.347481 
L 154.996364 284.788699 
L 163.112727 194.004896 
L 171.229091 166.294393 
L 179.345455 157.668333 
L 187.461818 153.210201 
L 195.578182 149.734755 
L 203.694545 146.630949 
L 211.810909 275.823379 
L 219.927273 183.244561 
L 228.043636 159.273551 
L 236.16 207.990501 
L 244.276364 163.667043 
L 252.392727 271.91231 
L 260.509091 184.23748 
L 268.625455 269.831719 
L 276.741818 188.092362 
L 284.858182 266.33642 
L 292.974545 276.543735 
L 301.090909 279.334992 
L 309.207273 281.015628 
L 317.323636 282.415591 
L 325.44 283.678471 
L 333.556364 194.173748 
L 341.672727 269.851627 
L 349.789091 279.838252 
L 357.905455 282.154108 
L 366.021818 283.344021 
L 374.138182 284.299962 
L 382.254545 285.16674 
L 390.370909 195.327001 
" style="fill:none;stroke:#add8e6;stroke-linecap:square;stroke-opacity:0.3;stroke-width:1.5;"/>
   </g>
   <g id="line2d_31">
    <path clip-path="url(#pde6e54bd8a)" d="M 73.832727 218.88 
L 81.949091 303.882811 
L 90.065455 211.321417 
L 98.181818 301.636568 
L 106.298182 215.160644 
L 114.414545 185.438152 
L 122.530909 173.162429 
L 130.647273 164.907678 
L 138.763636 158.072004 
L 146.88 291.931847 
L 154.996364 195.806342 
L 163.112727 169.685752 
L 171.229091 161.826314 
L 179.345455 285.431873 
L 187.461818 195.270865 
L 195.578182 172.778 
L 203.694545 280.4467 
L 211.810909 198.057731 
L 219.927273 178.718003 
L 228.043636 173.768197 
L 236.16 219.264466 
L 244.276364 277.798029 
L 252.392727 284.095317 
L 260.509091 286.168873 
L 268.625455 287.660711 
L 276.741818 288.952056 
L 284.858182 200.624494 
L 292.974545 177.977387 
L 301.090909 172.340044 
L 309.207273 170.121841 
L 317.323636 274.04159 
L 325.44 284.345045 
L 333.556364 286.466729 
L 341.672727 287.637485 
L 349.789091 288.611981 
L 357.905455 199.504047 
L 366.021818 277.475571 
L 374.138182 285.759438 
L 382.254545 287.446385 
L 390.370909 201.693038 
" style="fill:none;stroke:#add8e6;stroke-linecap:square;stroke-opacity:0.3;stroke-width:1.5;"/>
   </g>
   <g id="line2d_32">
    <path clip-path="url(#pde6e54bd8a)" d="M 73.832727 218.88 
L 81.949091 303.882811 
L 90.065455 211.321417 
L 98.181818 177.582263 
L 106.298182 298.62646 
L 114.414545 207.112517 
L 122.530909 178.451863 
L 130.647273 293.579152 
L 138.763636 207.588733 
L 146.88 291.78952 
L 154.996364 297.518292 
L 163.112727 216.055906 
L 171.229091 191.3437 
L 179.345455 183.696707 
L 187.461818 179.782614 
L 195.578182 176.726508 
L 203.694545 173.979461 
L 211.810909 171.433372 
L 219.927273 169.057847 
L 228.043636 166.836445 
L 236.16 220.765929 
L 244.276364 177.034451 
L 252.392727 279.132165 
L 260.509091 287.490907 
L 268.625455 289.513625 
L 276.741818 290.837773 
L 284.858182 291.961267 
L 292.974545 292.961275 
L 301.090909 197.091426 
L 309.207273 282.662536 
L 317.323636 197.490434 
L 325.44 279.716805 
L 333.556364 287.708422 
L 341.672727 289.350443 
L 349.789091 290.258367 
L 357.905455 291.01776 
L 366.021818 202.378473 
L 374.138182 280.492217 
L 382.254545 288.385519 
L 390.370909 289.853937 
" style="fill:none;stroke:#add8e6;stroke-linecap:square;stroke-opacity:0.3;stroke-width:1.5;"/>
   </g>
   <g id="line2d_33">
    <path clip-path="url(#pde6e54bd8a)" d="M 73.832727 218.88 
L 81.949091 168.329484 
L 90.065455 148.730799 
L 98.181818 135.138218 
L 106.298182 124.733456 
L 114.414545 116.624393 
L 122.530909 110.189004 
L 130.647273 104.982655 
L 138.763636 100.694998 
L 146.88 97.108261 
L 154.996364 94.066787 
L 163.112727 91.456946 
L 171.229091 89.194109 
L 179.345455 87.214095 
L 187.461818 85.467425 
L 195.578182 285.067828 
L 203.694545 302.814242 
L 211.810909 158.728206 
L 219.927273 101.507635 
L 228.043636 90.350725 
L 236.16 143.346403 
L 244.276364 290.024168 
L 252.392727 302.780774 
L 260.509091 167.190232 
L 268.625455 289.158131 
L 276.741818 301.625245 
L 284.858182 303.680275 
L 292.974545 304.414928 
L 301.090909 304.865338 
L 309.207273 305.204527 
L 317.323636 184.698205 
L 325.44 291.95878 
L 333.556364 303.014422 
L 341.672727 304.579794 
L 349.789091 305.010036 
L 357.905455 305.252995 
L 366.021818 189.908083 
L 374.138182 109.466289 
L 382.254545 275.14143 
L 390.370909 300.099663 
" style="fill:none;stroke:#add8e6;stroke-linecap:square;stroke-opacity:0.3;stroke-width:1.5;"/>
   </g>
   <g id="line2d_34">
    <path clip-path="url(#pde6e54bd8a)" d="M 73.832727 218.88 
L 81.949091 168.329484 
L 90.065455 298.706964 
L 98.181818 303.878175 
L 106.298182 305.003411 
L 114.414545 305.561439 
L 122.530909 305.909471 
L 130.647273 214.404925 
L 138.763636 161.909339 
L 146.88 141.459089 
L 154.996364 129.649357 
L 163.112727 120.82699 
L 171.229091 288.139527 
L 179.345455 301.873105 
L 187.461818 197.801516 
L 195.578182 142.961702 
L 203.694545 125.955421 
L 211.810909 118.890395 
L 219.927273 114.1995 
L 228.043636 278.767569 
L 236.16 251.227868 
L 244.276364 295.260107 
L 252.392727 300.267305 
L 260.509091 301.481577 
L 268.625455 302.100312 
L 276.741818 302.560983 
L 284.858182 201.618731 
L 292.974545 289.279275 
L 301.090909 299.640159 
L 309.207273 301.468925 
L 317.323636 302.071425 
L 325.44 302.438495 
L 333.556364 277.030834 
L 341.672727 300.021357 
L 349.789091 275.789793 
L 357.905455 300.04249 
L 366.021818 276.314959 
L 374.138182 300.239239 
L 382.254545 276.935888 
L 390.370909 300.435252 
" style="fill:none;stroke:#add8e6;stroke-linecap:square;stroke-opacity:0.3;stroke-width:1.5;"/>
   </g>
   <g id="line2d_35">
    <path clip-path="url(#pde6e54bd8a)" d="M 73.832727 218.88 
L 81.949091 168.329484 
L 90.065455 298.706964 
L 98.181818 194.775068 
L 106.298182 161.851533 
L 114.414545 292.063856 
L 122.530909 300.127635 
L 130.647273 203.120285 
L 138.763636 167.989721 
L 146.88 156.018267 
L 154.996364 149.278693 
L 163.112727 283.572554 
L 171.229091 295.131944 
L 179.345455 197.004587 
L 187.461818 164.21296 
L 195.578182 154.415251 
L 203.694545 149.823307 
L 211.810909 146.41582 
L 219.927273 143.40528 
L 228.043636 140.635346 
L 236.16 201.981525 
L 244.276364 286.452733 
L 252.392727 294.124059 
L 260.509091 296.083857 
L 268.625455 297.258804 
L 276.741818 298.191296 
L 284.858182 298.985604 
L 292.974545 299.675221 
L 301.090909 300.2785 
L 309.207273 300.808977 
L 317.323636 301.277593 
L 325.44 301.693393 
L 333.556364 302.06391 
L 341.672727 302.395437 
L 349.789091 302.693253 
L 357.905455 302.9618 
L 366.021818 303.204831 
L 374.138182 186.775468 
L 382.254545 291.79665 
L 390.370909 301.015252 
" style="fill:none;stroke:#add8e6;stroke-linecap:square;stroke-opacity:0.3;stroke-width:1.5;"/>
   </g>
   <g id="line2d_36">
    <path clip-path="url(#pde6e54bd8a)" d="M 73.832727 218.88 
L 81.949091 91.159122 
L 90.065455 222.475285 
L 98.181818 257.404581 
L 106.298182 266.669835 
L 114.414545 112.263149 
L 122.530909 86.829586 
L 130.647273 216.114788 
L 138.763636 250.585633 
L 146.88 258.958913 
L 154.996364 262.771971 
L 163.112727 265.670395 
L 171.229091 268.191927 
L 179.345455 125.748011 
L 187.461818 231.707935 
L 195.578182 125.62668 
L 203.694545 224.935871 
L 211.810909 248.534409 
L 219.927273 254.084765 
L 228.043636 256.171663 
L 236.16 209.346721 
L 244.276364 126.15708 
L 252.392727 109.053887 
L 260.509091 102.856422 
L 268.625455 98.931589 
L 276.741818 95.69469 
L 284.858182 92.824148 
L 292.974545 90.235503 
L 301.090909 87.889905 
L 309.207273 221.355858 
L 317.323636 115.339081 
L 325.44 94.95001 
L 333.556364 90.066491 
L 341.672727 87.823878 
L 349.789091 86.113487 
L 357.905455 84.588334 
L 366.021818 219.702522 
L 374.138182 112.053925 
L 382.254545 91.353921 
L 390.370909 87.012955 
" style="fill:none;stroke:#ff0000;stroke-linecap:square;stroke-opacity:0.1;stroke-width:1.5;"/>
   </g>
   <g id="line2d_37">
    <path clip-path="url(#pde6e54bd8a)" d="M 73.832727 218.88 
L 81.949091 275.925031 
L 90.065455 286.335029 
L 98.181818 115.74679 
L 106.298182 247.950292 
L 114.414545 117.654314 
L 122.530909 236.460648 
L 130.647273 263.409309 
L 138.763636 269.675045 
L 146.88 134.638512 
L 154.996364 236.304612 
L 163.112727 258.452703 
L 171.229091 263.583326 
L 179.345455 265.914822 
L 187.461818 267.717616 
L 195.578182 269.324203 
L 203.694545 270.790752 
L 211.810909 272.136109 
L 219.927273 273.373309 
L 228.043636 274.513496 
L 236.16 230.658206 
L 244.276364 133.592116 
L 252.392727 110.941032 
L 260.509091 102.517208 
L 268.625455 237.37344 
L 276.741818 134.883692 
L 284.858182 110.88761 
L 292.974545 103.277352 
L 301.090909 99.100253 
L 309.207273 95.82665 
L 317.323636 92.954299 
L 325.44 232.617718 
L 333.556364 126.634863 
L 341.672727 102.001466 
L 349.789091 95.676546 
L 357.905455 92.851306 
L 366.021818 90.771276 
L 374.138182 88.940827 
L 382.254545 87.263672 
L 390.370909 85.713143 
" style="fill:none;stroke:#ff0000;stroke-linecap:square;stroke-opacity:0.1;stroke-width:1.5;"/>
   </g>
   <g id="line2d_38">
    <path clip-path="url(#pde6e54bd8a)" d="M 73.832727 218.88 
L 81.949091 275.925031 
L 90.065455 286.335029 
L 98.181818 290.466779 
L 106.298182 293.26266 
L 114.414545 121.149637 
L 122.530909 257.235496 
L 130.647273 283.880127 
L 138.763636 133.639188 
L 146.88 251.202942 
L 154.996364 276.429475 
L 163.112727 281.511878 
L 171.229091 283.554909 
L 179.345455 285.061423 
L 187.461818 286.366239 
L 195.578182 287.526842 
L 203.694545 149.35038 
L 211.810909 106.258486 
L 219.927273 242.781588 
L 228.043636 275.113167 
L 236.16 236.065206 
L 244.276364 134.882548 
L 252.392727 106.114511 
L 260.509091 96.185767 
L 268.625455 90.796887 
L 276.741818 86.758293 
L 284.858182 83.359615 
L 292.974545 80.407984 
L 301.090909 77.819308 
L 309.207273 75.536991 
L 317.323636 234.41972 
L 325.44 117.000054 
L 333.556364 86.168198 
L 341.672727 78.894367 
L 349.789091 76.243056 
L 357.905455 74.527845 
L 366.021818 73.084191 
L 374.138182 71.785815 
L 382.254545 231.846603 
L 390.370909 279.190724 
" style="fill:none;stroke:#ff0000;stroke-linecap:square;stroke-opacity:0.1;stroke-width:1.5;"/>
   </g>
   <g id="line2d_39">
    <path clip-path="url(#pde6e54bd8a)" d="M 73.832727 218.88 
L 81.949091 275.925031 
L 90.065455 111.212206 
L 98.181818 81.028592 
L 106.298182 224.757733 
L 114.414545 263.794456 
L 122.530909 272.916814 
L 130.647273 277.328283 
L 138.763636 280.686347 
L 146.88 283.477425 
L 154.996364 285.823608 
L 163.112727 287.805344 
L 171.229091 289.489157 
L 179.345455 290.929508 
L 187.461818 292.170251 
L 195.578182 135.167757 
L 203.694545 257.106084 
L 211.810909 283.098951 
L 219.927273 287.854484 
L 228.043636 145.239088 
L 236.16 185.538351 
L 244.276364 114.147292 
L 252.392727 95.446727 
L 260.509091 88.351756 
L 268.625455 84.006456 
L 276.741818 80.587594 
L 284.858182 77.683421 
L 292.974545 229.385872 
L 301.090909 116.713793 
L 309.207273 237.510538 
L 317.323636 272.46593 
L 325.44 280.68899 
L 333.556364 143.681561 
L 341.672727 99.330764 
L 349.789091 88.172691 
L 357.905455 84.286068 
L 366.021818 81.941885 
L 374.138182 80.025406 
L 382.254545 78.316568 
L 390.370909 76.761625 
" style="fill:none;stroke:#ff0000;stroke-linecap:square;stroke-opacity:0.1;stroke-width:1.5;"/>
   </g>
   <g id="line2d_40">
    <path clip-path="url(#pde6e54bd8a)" d="M 73.832727 218.88 
L 81.949091 275.925031 
L 90.065455 286.335029 
L 98.181818 290.466779 
L 106.298182 118.525321 
L 114.414545 81.836393 
L 122.530909 234.774896 
L 130.647273 275.201714 
L 138.763636 283.027279 
L 146.88 286.018558 
L 154.996364 288.143622 
L 163.112727 289.903518 
L 171.229091 291.397499 
L 179.345455 292.676713 
L 187.461818 293.780004 
L 195.578182 294.738272 
L 203.694545 295.576196 
L 211.810909 296.313561 
L 219.927273 296.966319 
L 228.043636 297.547414 
L 236.16 258.173601 
L 244.276364 125.6867 
L 252.392727 261.156332 
L 260.509091 135.620947 
L 268.625455 94.699404 
L 276.741818 243.06903 
L 284.858182 133.533009 
L 292.974545 98.417227 
L 301.090909 87.672824 
L 309.207273 234.05676 
L 317.323636 276.906685 
L 325.44 153.473129 
L 333.556364 250.6339 
L 341.672727 146.418647 
L 349.789091 109.779941 
L 357.905455 98.503535 
L 366.021818 93.720079 
L 374.138182 228.186726 
L 382.254545 135.936567 
L 390.370909 106.052916 
" style="fill:none;stroke:#ff0000;stroke-linecap:square;stroke-opacity:0.1;stroke-width:1.5;"/>
   </g>
   <g id="line2d_41">
    <path clip-path="url(#pde6e54bd8a)" d="M 73.832727 218.88 
L 81.949091 275.925031 
L 90.065455 286.335029 
L 98.181818 290.466779 
L 106.298182 293.26266 
L 114.414545 295.402881 
L 122.530909 123.615299 
L 130.647273 260.784408 
L 138.763636 286.860732 
L 146.88 291.117942 
L 154.996364 292.769866 
L 163.112727 140.009746 
L 171.229091 259.84867 
L 179.345455 284.081117 
L 187.461818 288.403511 
L 195.578182 151.098476 
L 203.694545 257.270006 
L 211.810909 279.823904 
L 219.927273 284.247308 
L 228.043636 285.673083 
L 236.16 246.409848 
L 244.276364 278.880847 
L 252.392727 164.960281 
L 260.509091 258.06003 
L 268.625455 163.258527 
L 276.741818 253.460833 
L 284.858182 167.709961 
L 292.974545 138.323035 
L 301.090909 127.132292 
L 309.207273 120.957672 
L 317.323636 116.265044 
L 325.44 112.172377 
L 333.556364 108.456936 
L 341.672727 105.05178 
L 349.789091 240.884341 
L 357.905455 271.930776 
L 366.021818 161.170967 
L 374.138182 123.971206 
L 382.254545 112.795887 
L 390.370909 238.248733 
" style="fill:none;stroke:#ff0000;stroke-linecap:square;stroke-opacity:0.1;stroke-width:1.5;"/>
   </g>
   <g id="line2d_42">
    <path clip-path="url(#pde6e54bd8a)" d="M 73.832727 218.88 
L 81.949091 91.159122 
L 90.065455 222.475285 
L 98.181818 99.206025 
L 106.298182 214.844008 
L 114.414545 105.089056 
L 122.530909 88.366915 
L 130.647273 82.051053 
L 138.763636 78.406056 
L 146.88 75.702193 
L 154.996364 200.275406 
L 163.112727 238.344801 
L 171.229091 248.831545 
L 179.345455 254.145041 
L 187.461818 258.351771 
L 195.578182 262.051275 
L 203.694545 265.34581 
L 211.810909 268.279976 
L 219.927273 270.89296 
L 228.043636 273.221932 
L 236.16 208.346281 
L 244.276364 102.704215 
L 252.392727 226.38096 
L 260.509091 111.544005 
L 268.625455 89.95049 
L 276.741818 84.331202 
L 284.858182 81.623449 
L 292.974545 215.256812 
L 301.090909 108.599871 
L 309.207273 88.409018 
L 317.323636 211.870268 
L 325.44 111.177614 
L 333.556364 91.471775 
L 341.672727 86.85045 
L 349.789091 84.856389 
L 357.905455 83.38482 
L 366.021818 82.080751 
L 374.138182 80.878995 
L 382.254545 211.069393 
L 390.370909 107.095998 
" style="fill:none;stroke:#ff0000;stroke-linecap:square;stroke-opacity:0.1;stroke-width:1.5;"/>
   </g>
   <g id="line2d_43">
    <path clip-path="url(#pde6e54bd8a)" d="M 73.832727 218.88 
L 81.949091 275.925031 
L 90.065455 286.335029 
L 98.181818 290.466779 
L 106.298182 293.26266 
L 114.414545 295.402881 
L 122.530909 297.075858 
L 130.647273 298.397603 
L 138.763636 299.45512 
L 146.88 300.31309 
L 154.996364 301.018856 
L 163.112727 301.607024 
L 171.229091 302.103076 
L 179.345455 302.525997 
L 187.461818 302.890115 
L 195.578182 135.102458 
L 203.694545 275.922972 
L 211.810909 298.072109 
L 219.927273 300.592652 
L 228.043636 147.383087 
L 236.16 191.466441 
L 244.276364 99.836653 
L 252.392727 249.115386 
L 260.509091 129.150377 
L 268.625455 89.994549 
L 276.741818 78.370475 
L 284.858182 73.042777 
L 292.974545 69.428534 
L 301.090909 66.577674 
L 309.207273 64.228278 
L 317.323636 62.258844 
L 325.44 229.224601 
L 333.556364 104.757534 
L 341.672727 243.43494 
L 349.789091 116.743659 
L 357.905455 77.673749 
L 366.021818 69.017372 
L 374.138182 66.320556 
L 382.254545 64.755523 
L 390.370909 63.490195 
" style="fill:none;stroke:#ff0000;stroke-linecap:square;stroke-opacity:0.1;stroke-width:1.5;"/>
   </g>
   <g id="line2d_44">
    <path clip-path="url(#pde6e54bd8a)" d="M 73.832727 218.88 
L 81.949091 275.925031 
L 90.065455 286.335029 
L 98.181818 115.74679 
L 106.298182 247.950292 
L 114.414545 275.252114 
L 122.530909 281.072559 
L 130.647273 284.041132 
L 138.763636 286.375714 
L 146.88 288.337619 
L 154.996364 290.001773 
L 163.112727 291.422271 
L 171.229091 292.643288 
L 179.345455 139.240685 
L 187.461818 261.034369 
L 195.578182 137.779298 
L 203.694545 253.257072 
L 211.810909 278.166897 
L 219.927273 283.008222 
L 228.043636 284.541995 
L 236.16 243.770874 
L 244.276364 135.886448 
L 252.392727 105.16203 
L 260.509091 94.463318 
L 268.625455 88.594355 
L 276.741818 84.214472 
L 284.858182 80.575944 
L 292.974545 77.462984 
L 301.090909 74.772524 
L 309.207273 72.432685 
L 317.323636 70.38642 
L 325.44 68.587146 
L 333.556364 66.996613 
L 341.672727 65.583343 
L 349.789091 64.321365 
L 357.905455 238.669082 
L 366.021818 106.137646 
L 374.138182 248.698491 
L 382.254545 115.000098 
L 390.370909 78.328343 
" style="fill:none;stroke:#ff0000;stroke-linecap:square;stroke-opacity:0.1;stroke-width:1.5;"/>
   </g>
   <g id="line2d_45">
    <path clip-path="url(#pde6e54bd8a)" d="M 73.832727 218.88 
L 81.949091 91.159122 
L 90.065455 69.631629 
L 98.181818 206.787089 
L 106.298182 252.480156 
L 114.414545 264.61164 
L 122.530909 270.405274 
L 130.647273 274.682103 
L 138.763636 278.208563 
L 146.88 281.163535 
L 154.996364 117.583661 
L 163.112727 238.925896 
L 171.229091 268.62159 
L 179.345455 275.107331 
L 187.461818 277.6044 
L 195.578182 279.349578 
L 203.694545 280.841524 
L 211.810909 282.169968 
L 219.927273 283.364267 
L 228.043636 284.442967 
L 236.16 237.609148 
L 244.276364 113.898552 
L 252.392727 86.51681 
L 260.509091 78.27111 
L 268.625455 231.096276 
L 276.741818 112.312399 
L 284.858182 85.687688 
L 292.974545 226.318085 
L 301.090909 115.199712 
L 309.207273 230.869849 
L 317.323636 122.071052 
L 325.44 94.898134 
L 333.556364 87.541987 
L 341.672727 84.200547 
L 349.789091 217.280388 
L 357.905455 116.750277 
L 366.021818 224.504672 
L 374.138182 258.749715 
L 382.254545 136.028872 
L 390.370909 101.596985 
" style="fill:none;stroke:#ff0000;stroke-linecap:square;stroke-opacity:0.1;stroke-width:1.5;"/>
   </g>
   <g id="line2d_46">
    <path clip-path="url(#pde6e54bd8a)" d="M 73.832727 218.88 
L 81.949091 275.925031 
L 90.065455 111.212206 
L 98.181818 241.502069 
L 106.298182 269.212618 
L 114.414545 275.831148 
L 122.530909 279.524369 
L 130.647273 282.477105 
L 138.763636 284.956806 
L 146.88 287.05047 
L 154.996364 288.826376 
L 163.112727 290.342182 
L 171.229091 291.644977 
L 179.345455 292.772585 
L 187.461818 293.755265 
L 195.578182 138.828821 
L 203.694545 94.536632 
L 211.810909 247.704842 
L 219.927273 282.759769 
L 228.043636 145.434667 
L 236.16 186.835164 
L 244.276364 115.886763 
L 252.392727 239.300959 
L 260.509091 271.070741 
L 268.625455 151.976287 
L 276.741818 114.876494 
L 284.858182 103.166586 
L 292.974545 97.58283 
L 301.090909 93.616826 
L 309.207273 90.280029 
L 317.323636 87.337591 
L 325.44 84.710811 
L 333.556364 82.35508 
L 341.672727 80.235811 
L 349.789091 78.323618 
L 357.905455 76.593099 
L 366.021818 75.022269 
L 374.138182 73.592109 
L 382.254545 72.286173 
L 390.370909 71.090226 
" style="fill:none;stroke:#ff0000;stroke-linecap:square;stroke-opacity:0.1;stroke-width:1.5;"/>
   </g>
   <g id="line2d_47">
    <path clip-path="url(#pde6e54bd8a)" d="M 73.832727 218.88 
L 81.949091 275.925031 
L 90.065455 286.335029 
L 98.181818 290.466779 
L 106.298182 293.26266 
L 114.414545 295.402881 
L 122.530909 297.075858 
L 130.647273 125.823968 
L 138.763636 263.754425 
L 146.88 289.23506 
L 154.996364 138.409125 
L 163.112727 258.077482 
L 171.229091 136.949603 
L 179.345455 249.749372 
L 187.461818 275.667935 
L 195.578182 281.023335 
L 203.694545 155.910942 
L 211.810909 115.461282 
L 219.927273 237.379667 
L 228.043636 267.949703 
L 236.16 229.807522 
L 244.276364 141.378613 
L 252.392727 241.119803 
L 260.509091 151.144523 
L 268.625455 124.632759 
L 276.741818 231.957085 
L 284.858182 152.007286 
L 292.974545 128.945301 
L 301.090909 120.970292 
L 309.207273 116.652831 
L 317.323636 113.322896 
L 325.44 110.377822 
L 333.556364 229.259157 
L 341.672727 143.90186 
L 349.789091 120.89006 
L 357.905455 114.154681 
L 366.021818 111.054374 
L 374.138182 108.808357 
L 382.254545 228.188818 
L 390.370909 141.2454 
" style="fill:none;stroke:#ff0000;stroke-linecap:square;stroke-opacity:0.1;stroke-width:1.5;"/>
   </g>
   <g id="line2d_48">
    <path clip-path="url(#pde6e54bd8a)" d="M 73.832727 218.88 
L 81.949091 275.925031 
L 90.065455 286.335029 
L 98.181818 290.466779 
L 106.298182 293.26266 
L 114.414545 121.149637 
L 122.530909 81.657513 
L 130.647273 238.350955 
L 138.763636 114.707596 
L 146.88 240.333957 
L 154.996364 271.957195 
L 163.112727 278.779472 
L 171.229091 281.475209 
L 179.345455 283.395216 
L 187.461818 285.0271 
L 195.578182 286.460122 
L 203.694545 143.31527 
L 211.810909 251.267107 
L 219.927273 138.561847 
L 228.043636 243.576199 
L 236.16 218.44469 
L 244.276364 132.043411 
L 252.392727 236.516022 
L 260.509091 143.566599 
L 268.625455 235.099885 
L 276.741818 148.727343 
L 284.858182 124.07852 
L 292.974545 115.658637 
L 301.090909 111.168829 
L 309.207273 107.748204 
L 317.323636 104.750397 
L 325.44 225.168434 
L 333.556364 138.031841 
L 341.672727 114.906981 
L 349.789091 223.893576 
L 357.905455 140.946119 
L 366.021818 118.947449 
L 374.138182 112.638534 
L 382.254545 109.797874 
L 390.370909 107.759167 
" style="fill:none;stroke:#ff0000;stroke-linecap:square;stroke-opacity:0.1;stroke-width:1.5;"/>
   </g>
   <g id="line2d_49">
    <path clip-path="url(#pde6e54bd8a)" d="M 73.832727 218.88 
L 81.949091 275.925031 
L 90.065455 286.335029 
L 98.181818 290.466779 
L 106.298182 293.26266 
L 114.414545 295.402881 
L 122.530909 297.075858 
L 130.647273 298.397603 
L 138.763636 299.45512 
L 146.88 300.31309 
L 154.996364 301.018856 
L 163.112727 131.959334 
L 171.229091 271.632069 
L 179.345455 295.098525 
L 187.461818 143.650844 
L 195.578182 266.436693 
L 203.694545 290.361378 
L 211.810909 153.101386 
L 219.927273 262.460823 
L 228.043636 285.68396 
L 236.16 250.816151 
L 244.276364 284.046599 
L 252.392727 159.134992 
L 260.509091 111.806831 
L 268.625455 95.92398 
L 276.741818 240.623512 
L 284.858182 277.644201 
L 292.974545 285.132653 
L 301.090909 164.420229 
L 309.207273 116.801843 
L 317.323636 241.353694 
L 325.44 149.391885 
L 333.556364 246.851875 
L 341.672727 157.373447 
L 349.789091 125.237692 
L 357.905455 114.037867 
L 366.021818 108.604726 
L 374.138182 233.166334 
L 382.254545 149.850392 
L 390.370909 121.761355 
" style="fill:none;stroke:#ff0000;stroke-linecap:square;stroke-opacity:0.1;stroke-width:1.5;"/>
   </g>
   <g id="line2d_50">
    <path clip-path="url(#pde6e54bd8a)" d="M 73.832727 218.88 
L 81.949091 275.925031 
L 90.065455 111.212206 
L 98.181818 81.028592 
L 106.298182 224.757733 
L 114.414545 263.794456 
L 122.530909 272.916814 
L 130.647273 121.067364 
L 138.763636 234.026956 
L 146.88 260.648557 
L 154.996364 129.985918 
L 163.112727 228.729301 
L 171.229091 252.061091 
L 179.345455 257.800144 
L 187.461818 260.393496 
L 195.578182 262.364063 
L 203.694545 264.115787 
L 211.810909 142.698238 
L 219.927273 233.658992 
L 228.043636 253.570115 
L 236.16 211.570609 
L 244.276364 249.570368 
L 252.392727 147.157465 
L 260.509091 231.308725 
L 268.625455 148.356773 
L 276.741818 227.518612 
L 284.858182 152.184219 
L 292.974545 135.485859 
L 301.090909 129.80332 
L 309.207273 126.364428 
L 317.323636 123.49994 
L 325.44 120.880754 
L 333.556364 222.806717 
L 341.672727 144.267043 
L 349.789091 127.827677 
L 357.905455 123.191726 
L 366.021818 120.752054 
L 374.138182 118.787353 
L 382.254545 116.989112 
L 390.370909 222.887575 
" style="fill:none;stroke:#ff0000;stroke-linecap:square;stroke-opacity:0.1;stroke-width:1.5;"/>
   </g>
   <g id="line2d_51">
    <path clip-path="url(#pde6e54bd8a)" d="M 73.832727 218.88 
L 81.949091 91.159122 
L 90.065455 222.475285 
L 98.181818 99.206025 
L 106.298182 214.844008 
L 114.414545 243.618173 
L 122.530909 251.401304 
L 130.647273 255.749683 
L 138.763636 259.330413 
L 146.88 119.331915 
L 154.996364 224.809602 
L 163.112727 247.336311 
L 171.229091 252.568215 
L 179.345455 129.262747 
L 187.461818 222.779521 
L 195.578182 242.127614 
L 203.694545 135.88196 
L 211.810909 219.136005 
L 219.927273 235.903802 
L 228.043636 239.530467 
L 236.16 199.603664 
L 244.276364 137.885303 
L 252.392727 125.827635 
L 260.509091 120.943932 
L 268.625455 117.46665 
L 276.741818 114.430376 
L 284.858182 216.321844 
L 292.974545 236.719938 
L 301.090909 240.985066 
L 309.207273 242.45525 
L 317.323636 140.852611 
L 325.44 123.203123 
L 333.556364 118.415431 
L 341.672727 115.742041 
L 349.789091 113.519837 
L 357.905455 217.219166 
L 366.021818 133.472718 
L 374.138182 118.914141 
L 382.254545 115.21281 
L 390.370909 215.084649 
" style="fill:none;stroke:#ff0000;stroke-linecap:square;stroke-opacity:0.1;stroke-width:1.5;"/>
   </g>
   <g id="line2d_52">
    <path clip-path="url(#pde6e54bd8a)" d="M 73.832727 218.88 
L 81.949091 91.159122 
L 90.065455 222.475285 
L 98.181818 257.404581 
L 106.298182 108.794122 
L 114.414545 221.804828 
L 122.530909 247.907251 
L 130.647273 117.421107 
L 138.763636 216.90048 
L 146.88 119.538087 
L 154.996364 103.239705 
L 163.112727 205.466691 
L 171.229091 229.063169 
L 179.345455 234.59113 
L 187.461818 236.956535 
L 195.578182 238.748355 
L 203.694545 240.364406 
L 211.810909 241.866289 
L 219.927273 243.268758 
L 228.043636 244.58026 
L 236.16 197.866462 
L 244.276364 236.640373 
L 252.392727 138.088632 
L 260.509091 122.015938 
L 268.625455 116.714459 
L 276.741818 113.323861 
L 284.858182 110.448115 
L 292.974545 107.832992 
L 301.090909 219.381729 
L 309.207273 128.597899 
L 317.323636 219.118159 
L 325.44 132.640651 
L 333.556364 117.993262 
L 341.672727 114.10259 
L 349.789091 111.941915 
L 357.905455 110.140986 
L 366.021818 214.743196 
L 374.138182 129.597774 
L 382.254545 115.378812 
L 390.370909 112.041279 
" style="fill:none;stroke:#ff0000;stroke-linecap:square;stroke-opacity:0.1;stroke-width:1.5;"/>
   </g>
   <g id="line2d_53">
    <path clip-path="url(#pde6e54bd8a)" d="M 73.832727 218.88 
L 81.949091 275.925031 
L 90.065455 286.335029 
L 98.181818 290.466779 
L 106.298182 293.26266 
L 114.414545 295.402881 
L 122.530909 297.075858 
L 130.647273 298.397603 
L 138.763636 299.45512 
L 146.88 300.31309 
L 154.996364 301.018856 
L 163.112727 301.607024 
L 171.229091 302.103076 
L 179.345455 302.525997 
L 187.461818 302.890115 
L 195.578182 135.102458 
L 203.694545 76.992787 
L 211.810909 253.221495 
L 219.927273 294.312766 
L 228.043636 299.545362 
L 236.16 264.87456 
L 244.276364 119.720152 
L 252.392727 76.741592 
L 260.509091 242.813068 
L 268.625455 115.988522 
L 276.741818 79.484215 
L 284.858182 70.192407 
L 292.974545 66.379483 
L 301.090909 63.856098 
L 309.207273 61.84931 
L 317.323636 228.653153 
L 325.44 103.283608 
L 333.556364 70.814269 
L 341.672727 64.187139 
L 349.789091 62.032023 
L 357.905455 60.688189 
L 366.021818 223.53871 
L 374.138182 285.857093 
L 382.254545 135.17871 
L 390.370909 77.313131 
" style="fill:none;stroke:#ff0000;stroke-linecap:square;stroke-opacity:0.1;stroke-width:1.5;"/>
   </g>
   <g id="line2d_54">
    <path clip-path="url(#pde6e54bd8a)" d="M 73.832727 218.88 
L 81.949091 275.925031 
L 90.065455 111.212206 
L 98.181818 81.028592 
L 106.298182 70.858338 
L 114.414545 66.225044 
L 122.530909 63.392507 
L 130.647273 216.458044 
L 138.763636 268.434032 
L 146.88 279.900453 
L 154.996364 284.689559 
L 163.112727 288.047286 
L 171.229091 120.897571 
L 179.345455 80.801065 
L 187.461818 222.940678 
L 195.578182 270.329606 
L 203.694545 280.937549 
L 211.810909 284.432484 
L 219.927273 286.566116 
L 228.043636 133.929202 
L 236.16 155.318308 
L 244.276364 95.019524 
L 252.392727 80.824862 
L 260.509091 76.325964 
L 268.625455 73.91549 
L 276.741818 72.072649 
L 284.858182 213.799199 
L 292.974545 107.488896 
L 301.090909 81.611203 
L 309.207273 75.467573 
L 317.323636 73.259981 
L 325.44 71.869157 
L 333.556364 114.858621 
L 341.672727 78.782008 
L 349.789091 116.884603 
L 357.905455 78.657225 
L 366.021818 116.07486 
L 374.138182 78.030505 
L 382.254545 115.098715 
L 390.370909 77.403035 
" style="fill:none;stroke:#ff0000;stroke-linecap:square;stroke-opacity:0.1;stroke-width:1.5;"/>
   </g>
   <g id="line2d_55">
    <path clip-path="url(#pde6e54bd8a)" d="M 73.832727 218.88 
L 81.949091 275.925031 
L 90.065455 111.212206 
L 98.181818 241.502069 
L 106.298182 269.212618 
L 114.414545 121.59313 
L 122.530909 93.979122 
L 130.647273 223.24397 
L 138.763636 255.912736 
L 146.88 263.602615 
L 154.996364 267.168609 
L 163.112727 132.811238 
L 171.229091 105.53766 
L 179.345455 224.038163 
L 187.461818 253.037205 
L 195.578182 259.772927 
L 203.694545 262.466959 
L 211.810909 264.389582 
L 219.927273 266.075273 
L 228.043636 267.61686 
L 236.16 217.179897 
L 244.276364 127.503451 
L 252.392727 108.271223 
L 260.509091 101.682907 
L 268.625455 97.768142 
L 276.741818 94.622789 
L 284.858182 91.856704 
L 292.974545 89.370827 
L 301.090909 87.122966 
L 309.207273 85.08393 
L 317.323636 83.2294 
L 325.44 81.538263 
L 333.556364 79.992079 
L 341.672727 78.574734 
L 349.789091 77.272149 
L 357.905455 76.072018 
L 366.021818 74.963575 
L 374.138182 235.924593 
L 382.254545 108.284878 
L 390.370909 82.561928 
" style="fill:none;stroke:#ff0000;stroke-linecap:square;stroke-opacity:0.1;stroke-width:1.5;"/>
   </g>
   <g id="line2d_56">
    <path clip-path="url(#pde6e54bd8a)" d="M 73.832727 218.88 
L 81.949091 202.217816 
L 90.065455 206.601924 
L 98.181818 207.594453 
L 106.298182 182.288139 
L 114.414545 206.910462 
L 122.530909 193.816958 
L 130.647273 180.816921 
L 138.763636 166.396504 
L 146.88 164.886097 
L 154.996364 167.637205 
L 163.112727 164.782549 
L 171.229091 158.805217 
L 179.345455 164.595713 
L 187.461818 146.201338 
L 195.578182 190.151761 
L 203.694545 186.121894 
L 211.810909 169.090496 
L 219.927273 144.24265 
L 228.043636 163.786112 
L 236.16 196.809894 
L 244.276364 258.565388 
L 252.392727 252.150934 
L 260.509091 263.57442 
L 268.625455 272.348539 
L 276.741818 264.289242 
L 284.858182 272.612168 
L 292.974545 261.941339 
L 301.090909 280.538184 
L 309.207273 264.910968 
L 317.323636 249.260743 
L 325.44 264.580141 
L 333.556364 267.839489 
L 341.672727 283.57084 
L 349.789091 276.369784 
L 357.905455 275.87642 
L 366.021818 270.207867 
L 374.138182 253.33031 
L 382.254545 272.300435 
L 390.370909 270.400257 
" style="fill:none;stroke:#1f77b4;stroke-linecap:square;stroke-width:1.5;"/>
   </g>
   <g id="line2d_57">
    <path clip-path="url(#pde6e54bd8a)" d="M 73.832727 218.88 
L 81.949091 229.733554 
L 90.065455 218.947205 
L 98.181818 210.066301 
L 106.298182 239.184784 
L 114.414545 206.634079 
L 122.530909 216.53799 
L 130.647273 234.663896 
L 138.763636 247.192668 
L 146.88 245.559901 
L 154.996364 243.112333 
L 163.112727 247.840495 
L 171.229091 250.609881 
L 179.345455 243.27328 
L 187.461818 262.856245 
L 195.578182 222.947942 
L 203.694545 223.764017 
L 211.810909 239.306654 
L 219.927273 262.905684 
L 228.043636 245.263234 
L 236.16 218.985085 
L 244.276364 150.26835 
L 252.392727 153.391557 
L 260.509091 138.485008 
L 268.625455 127.327246 
L 276.741818 134.565981 
L 284.858182 124.931335 
L 292.974545 134.95554 
L 301.090909 113.720736 
L 309.207273 129.62428 
L 317.323636 149.515758 
L 325.44 134.892714 
L 333.556364 128.889409 
L 341.672727 109.583192 
L 349.789091 116.894751 
L 357.905455 116.743344 
L 366.021818 124.965265 
L 374.138182 142.746423 
L 382.254545 126.53167 
L 390.370909 122.631968 
" style="fill:none;stroke:#ff0000;stroke-linecap:square;stroke-width:1.5;"/>
   </g>
   <g id="patch_5">
    <path d="M 57.6 307.584 
L 57.6 41.472 
" style="fill:none;stroke:#000000;stroke-linecap:square;stroke-linejoin:miter;stroke-width:0.8;"/>
   </g>
   <g id="patch_6">
    <path d="M 414.72 307.584 
L 414.72 41.472 
" style="fill:none;stroke:#000000;stroke-linecap:square;stroke-linejoin:miter;stroke-width:0.8;"/>
   </g>
   <g id="patch_7">
    <path d="M 57.6 307.584 
L 414.72 307.584 
" style="fill:none;stroke:#000000;stroke-linecap:square;stroke-linejoin:miter;stroke-width:0.8;"/>
   </g>
   <g id="patch_8">
    <path d="M 57.6 41.472 
L 414.72 41.472 
" style="fill:none;stroke:#000000;stroke-linecap:square;stroke-linejoin:miter;stroke-width:0.8;"/>
   </g>
   <g id="text_18">
    <!-- biased_B -->
    <g transform="translate(209.264062 35.472)scale(0.12 -0.12)">
     <defs>
      <path d="M 3116 1747 
Q 3116 2381 2855 2742 
Q 2594 3103 2138 3103 
Q 1681 3103 1420 2742 
Q 1159 2381 1159 1747 
Q 1159 1113 1420 752 
Q 1681 391 2138 391 
Q 2594 391 2855 752 
Q 3116 1113 3116 1747 
z
M 1159 2969 
Q 1341 3281 1617 3432 
Q 1894 3584 2278 3584 
Q 2916 3584 3314 3078 
Q 3713 2572 3713 1747 
Q 3713 922 3314 415 
Q 2916 -91 2278 -91 
Q 1894 -91 1617 61 
Q 1341 213 1159 525 
L 1159 0 
L 581 0 
L 581 4863 
L 1159 4863 
L 1159 2969 
z
" id="DejaVuSans-62" transform="scale(0.015625)"/>
      <path d="M 603 3500 
L 1178 3500 
L 1178 0 
L 603 0 
L 603 3500 
z
M 603 4863 
L 1178 4863 
L 1178 4134 
L 603 4134 
L 603 4863 
z
" id="DejaVuSans-69" transform="scale(0.015625)"/>
      <path d="M 2194 1759 
Q 1497 1759 1228 1600 
Q 959 1441 959 1056 
Q 959 750 1161 570 
Q 1363 391 1709 391 
Q 2188 391 2477 730 
Q 2766 1069 2766 1631 
L 2766 1759 
L 2194 1759 
z
M 3341 1997 
L 3341 0 
L 2766 0 
L 2766 531 
Q 2569 213 2275 61 
Q 1981 -91 1556 -91 
Q 1019 -91 701 211 
Q 384 513 384 1019 
Q 384 1609 779 1909 
Q 1175 2209 1959 2209 
L 2766 2209 
L 2766 2266 
Q 2766 2663 2505 2880 
Q 2244 3097 1772 3097 
Q 1472 3097 1187 3025 
Q 903 2953 641 2809 
L 641 3341 
Q 956 3463 1253 3523 
Q 1550 3584 1831 3584 
Q 2591 3584 2966 3190 
Q 3341 2797 3341 1997 
z
" id="DejaVuSans-61" transform="scale(0.015625)"/>
      <path d="M 2834 3397 
L 2834 2853 
Q 2591 2978 2328 3040 
Q 2066 3103 1784 3103 
Q 1356 3103 1142 2972 
Q 928 2841 928 2578 
Q 928 2378 1081 2264 
Q 1234 2150 1697 2047 
L 1894 2003 
Q 2506 1872 2764 1633 
Q 3022 1394 3022 966 
Q 3022 478 2636 193 
Q 2250 -91 1575 -91 
Q 1294 -91 989 -36 
Q 684 19 347 128 
L 347 722 
Q 666 556 975 473 
Q 1284 391 1588 391 
Q 1994 391 2212 530 
Q 2431 669 2431 922 
Q 2431 1156 2273 1281 
Q 2116 1406 1581 1522 
L 1381 1569 
Q 847 1681 609 1914 
Q 372 2147 372 2553 
Q 372 3047 722 3315 
Q 1072 3584 1716 3584 
Q 2034 3584 2315 3537 
Q 2597 3491 2834 3397 
z
" id="DejaVuSans-73" transform="scale(0.015625)"/>
      <path d="M 2906 2969 
L 2906 4863 
L 3481 4863 
L 3481 0 
L 2906 0 
L 2906 525 
Q 2725 213 2448 61 
Q 2172 -91 1784 -91 
Q 1150 -91 751 415 
Q 353 922 353 1747 
Q 353 2572 751 3078 
Q 1150 3584 1784 3584 
Q 2172 3584 2448 3432 
Q 2725 3281 2906 2969 
z
M 947 1747 
Q 947 1113 1208 752 
Q 1469 391 1925 391 
Q 2381 391 2643 752 
Q 2906 1113 2906 1747 
Q 2906 2381 2643 2742 
Q 2381 3103 1925 3103 
Q 1469 3103 1208 2742 
Q 947 2381 947 1747 
z
" id="DejaVuSans-64" transform="scale(0.015625)"/>
      <path d="M 3263 -1063 
L 3263 -1509 
L -63 -1509 
L -63 -1063 
L 3263 -1063 
z
" id="DejaVuSans-5f" transform="scale(0.015625)"/>
      <path d="M 1259 2228 
L 1259 519 
L 2272 519 
Q 2781 519 3026 730 
Q 3272 941 3272 1375 
Q 3272 1813 3026 2020 
Q 2781 2228 2272 2228 
L 1259 2228 
z
M 1259 4147 
L 1259 2741 
L 2194 2741 
Q 2656 2741 2882 2914 
Q 3109 3088 3109 3444 
Q 3109 3797 2882 3972 
Q 2656 4147 2194 4147 
L 1259 4147 
z
M 628 4666 
L 2241 4666 
Q 2963 4666 3353 4366 
Q 3744 4066 3744 3513 
Q 3744 3084 3544 2831 
Q 3344 2578 2956 2516 
Q 3422 2416 3680 2098 
Q 3938 1781 3938 1306 
Q 3938 681 3513 340 
Q 3088 0 2303 0 
L 628 0 
L 628 4666 
z
" id="DejaVuSans-42" transform="scale(0.015625)"/>
     </defs>
     <use xlink:href="#DejaVuSans-62"/>
     <use x="63.476562" xlink:href="#DejaVuSans-69"/>
     <use x="91.259766" xlink:href="#DejaVuSans-61"/>
     <use x="152.539062" xlink:href="#DejaVuSans-73"/>
     <use x="204.638672" xlink:href="#DejaVuSans-65"/>
     <use x="266.162109" xlink:href="#DejaVuSans-64"/>
     <use x="329.638672" xlink:href="#DejaVuSans-5f"/>
     <use x="379.638672" xlink:href="#DejaVuSans-42"/>
    </g>
   </g>
   <g id="legend_1">
    <g id="patch_9">
     <path d="M 64.6 78.82825 
L 120.684375 78.82825 
Q 122.684375 78.82825 122.684375 76.82825 
L 122.684375 48.472 
Q 122.684375 46.472 120.684375 46.472 
L 64.6 46.472 
Q 62.6 46.472 62.6 48.472 
L 62.6 76.82825 
Q 62.6 78.82825 64.6 78.82825 
z
" style="fill:#ffffff;opacity:0.8;stroke:#cccccc;stroke-linejoin:miter;"/>
    </g>
    <g id="line2d_58">
     <path d="M 66.6 54.570437 
L 86.6 54.570437 
" style="fill:none;stroke:#1f77b4;stroke-linecap:square;stroke-width:1.5;"/>
    </g>
    <g id="line2d_59"/>
    <g id="text_19">
     <!-- coop -->
     <g transform="translate(94.6 58.070437)scale(0.1 -0.1)">
      <use xlink:href="#DejaVuSans-63"/>
      <use x="54.980469" xlink:href="#DejaVuSans-6f"/>
      <use x="116.162109" xlink:href="#DejaVuSans-6f"/>
      <use x="177.34375" xlink:href="#DejaVuSans-70"/>
     </g>
    </g>
    <g id="line2d_60">
     <path d="M 66.6 69.248562 
L 86.6 69.248562 
" style="fill:none;stroke:#ff0000;stroke-linecap:square;stroke-width:1.5;"/>
    </g>
    <g id="line2d_61"/>
    <g id="text_20">
     <!-- host -->
     <g transform="translate(94.6 72.748562)scale(0.1 -0.1)">
      <defs>
       <path d="M 3513 2113 
L 3513 0 
L 2938 0 
L 2938 2094 
Q 2938 2591 2744 2837 
Q 2550 3084 2163 3084 
Q 1697 3084 1428 2787 
Q 1159 2491 1159 1978 
L 1159 0 
L 581 0 
L 581 4863 
L 1159 4863 
L 1159 2956 
Q 1366 3272 1645 3428 
Q 1925 3584 2291 3584 
Q 2894 3584 3203 3211 
Q 3513 2838 3513 2113 
z
" id="DejaVuSans-68" transform="scale(0.015625)"/>
      </defs>
      <use xlink:href="#DejaVuSans-68"/>
      <use x="63.378906" xlink:href="#DejaVuSans-6f"/>
      <use x="124.560547" xlink:href="#DejaVuSans-73"/>
      <use x="176.660156" xlink:href="#DejaVuSans-74"/>
     </g>
    </g>
   </g>
  </g>
 </g>
 <defs>
  <clipPath id="pde6e54bd8a">
   <rect height="266.112" width="357.12" x="57.6" y="41.472"/>
  </clipPath>
 </defs>
</svg>
