<?xml version="1.0" encoding="utf-8" standalone="no"?>
<!DOCTYPE svg PUBLIC "-//W3C//DTD SVG 1.1//EN"
  "http://www.w3.org/Graphics/SVG/1.1/DTD/svg11.dtd">
<svg height="345.6pt" version="1.1" viewBox="0 0 460.8 345.6" width="460.8pt" xmlns="http://www.w3.org/2000/svg" xmlns:xlink="http://www.w3.org/1999/xlink">
 <metadata>
  <rdf:RDF xmlns:cc="http://creativecommons.org/ns#" xmlns:dc="http://purl.org/dc/elements/1.1/" xmlns:rdf="http://www.w3.org/1999/02/22-rdf-syntax-ns#">
   <cc:Work>
    <dc:type rdf:resource="http://purl.org/dc/dcmitype/StillImage"/>
    <dc:date>2023-10-05T17:25:55.656686</dc:date>
    <dc:format>image/svg+xml</dc:format>
    <dc:creator>
     <cc:Agent>
      <dc:title>Matplotlib v3.4.1, https://matplotlib.org/</dc:title>
     </cc:Agent>
    </dc:creator>
   </cc:Work>
  </rdf:RDF>
 </metadata>
 <defs>
  <style type="text/css">*{stroke-linecap:butt;stroke-linejoin:round;}</style>
 </defs>
 <g id="figure_1">
  <g id="patch_1">
   <path d="M 0 345.6 
L 460.8 345.6 
L 460.8 0 
L 0 0 
z
" style="fill:#ffffff;"/>
  </g>
  <g id="axes_1">
   <g id="patch_2">
    <path d="M 57.6 307.584 
L 414.72 307.584 
L 414.72 41.472 
L 57.6 41.472 
z
" style="fill:#ffffff;"/>
   </g>
   <g id="patch_3">
    <path clip-path="url(#pfdbeb1986b)" d="M 73.832727 307.584 
L 73.832727 41.472 
L 236.16 41.472 
L 236.16 307.584 
z
" style="fill:#ff7f50;opacity:0.2;"/>
   </g>
   <g id="patch_4">
    <path clip-path="url(#pfdbeb1986b)" d="M 236.16 307.584 
L 236.16 41.472 
L 398.487273 41.472 
L 398.487273 307.584 
z
" style="fill:#add8e6;opacity:0.2;"/>
   </g>
   <g id="matplotlib.axis_1">
    <g id="xtick_1">
     <g id="line2d_1">
      <defs>
       <path d="M 0 0 
L 0 3.5 
" id="m99d0484c49" style="stroke:#000000;stroke-width:0.8;"/>
      </defs>
      <g>
       <use style="stroke:#000000;stroke-width:0.8;" x="73.832727" xlink:href="#m99d0484c49" y="307.584"/>
      </g>
     </g>
     <g id="text_1">
      <!-- 0 -->
      <g transform="translate(70.651477 322.182437)scale(0.1 -0.1)">
       <defs>
        <path d="M 2034 4250 
Q 1547 4250 1301 3770 
Q 1056 3291 1056 2328 
Q 1056 1369 1301 889 
Q 1547 409 2034 409 
Q 2525 409 2770 889 
Q 3016 1369 3016 2328 
Q 3016 3291 2770 3770 
Q 2525 4250 2034 4250 
z
M 2034 4750 
Q 2819 4750 3233 4129 
Q 3647 3509 3647 2328 
Q 3647 1150 3233 529 
Q 2819 -91 2034 -91 
Q 1250 -91 836 529 
Q 422 1150 422 2328 
Q 422 3509 836 4129 
Q 1250 4750 2034 4750 
z
" id="DejaVuSans-30" transform="scale(0.015625)"/>
       </defs>
       <use xlink:href="#DejaVuSans-30"/>
      </g>
     </g>
    </g>
    <g id="xtick_2">
     <g id="line2d_2">
      <g>
       <use style="stroke:#000000;stroke-width:0.8;" x="114.414545" xlink:href="#m99d0484c49" y="307.584"/>
      </g>
     </g>
     <g id="text_2">
      <!-- 5 -->
      <g transform="translate(111.233295 322.182437)scale(0.1 -0.1)">
       <defs>
        <path d="M 691 4666 
L 3169 4666 
L 3169 4134 
L 1269 4134 
L 1269 2991 
Q 1406 3038 1543 3061 
Q 1681 3084 1819 3084 
Q 2600 3084 3056 2656 
Q 3513 2228 3513 1497 
Q 3513 744 3044 326 
Q 2575 -91 1722 -91 
Q 1428 -91 1123 -41 
Q 819 9 494 109 
L 494 744 
Q 775 591 1075 516 
Q 1375 441 1709 441 
Q 2250 441 2565 725 
Q 2881 1009 2881 1497 
Q 2881 1984 2565 2268 
Q 2250 2553 1709 2553 
Q 1456 2553 1204 2497 
Q 953 2441 691 2322 
L 691 4666 
z
" id="DejaVuSans-35" transform="scale(0.015625)"/>
       </defs>
       <use xlink:href="#DejaVuSans-35"/>
      </g>
     </g>
    </g>
    <g id="xtick_3">
     <g id="line2d_3">
      <g>
       <use style="stroke:#000000;stroke-width:0.8;" x="154.996364" xlink:href="#m99d0484c49" y="307.584"/>
      </g>
     </g>
     <g id="text_3">
      <!-- 10 -->
      <g transform="translate(148.633864 322.182437)scale(0.1 -0.1)">
       <defs>
        <path d="M 794 531 
L 1825 531 
L 1825 4091 
L 703 3866 
L 703 4441 
L 1819 4666 
L 2450 4666 
L 2450 531 
L 3481 531 
L 3481 0 
L 794 0 
L 794 531 
z
" id="DejaVuSans-31" transform="scale(0.015625)"/>
       </defs>
       <use xlink:href="#DejaVuSans-31"/>
       <use x="63.623047" xlink:href="#DejaVuSans-30"/>
      </g>
     </g>
    </g>
    <g id="xtick_4">
     <g id="line2d_4">
      <g>
       <use style="stroke:#000000;stroke-width:0.8;" x="195.578182" xlink:href="#m99d0484c49" y="307.584"/>
      </g>
     </g>
     <g id="text_4">
      <!-- 15 -->
      <g transform="translate(189.215682 322.182437)scale(0.1 -0.1)">
       <use xlink:href="#DejaVuSans-31"/>
       <use x="63.623047" xlink:href="#DejaVuSans-35"/>
      </g>
     </g>
    </g>
    <g id="xtick_5">
     <g id="line2d_5">
      <g>
       <use style="stroke:#000000;stroke-width:0.8;" x="236.16" xlink:href="#m99d0484c49" y="307.584"/>
      </g>
     </g>
     <g id="text_5">
      <!-- 20 -->
      <g transform="translate(229.7975 322.182437)scale(0.1 -0.1)">
       <defs>
        <path d="M 1228 531 
L 3431 531 
L 3431 0 
L 469 0 
L 469 531 
Q 828 903 1448 1529 
Q 2069 2156 2228 2338 
Q 2531 2678 2651 2914 
Q 2772 3150 2772 3378 
Q 2772 3750 2511 3984 
Q 2250 4219 1831 4219 
Q 1534 4219 1204 4116 
Q 875 4013 500 3803 
L 500 4441 
Q 881 4594 1212 4672 
Q 1544 4750 1819 4750 
Q 2544 4750 2975 4387 
Q 3406 4025 3406 3419 
Q 3406 3131 3298 2873 
Q 3191 2616 2906 2266 
Q 2828 2175 2409 1742 
Q 1991 1309 1228 531 
z
" id="DejaVuSans-32" transform="scale(0.015625)"/>
       </defs>
       <use xlink:href="#DejaVuSans-32"/>
       <use x="63.623047" xlink:href="#DejaVuSans-30"/>
      </g>
     </g>
    </g>
    <g id="xtick_6">
     <g id="line2d_6">
      <g>
       <use style="stroke:#000000;stroke-width:0.8;" x="276.741818" xlink:href="#m99d0484c49" y="307.584"/>
      </g>
     </g>
     <g id="text_6">
      <!-- 25 -->
      <g transform="translate(270.379318 322.182437)scale(0.1 -0.1)">
       <use xlink:href="#DejaVuSans-32"/>
       <use x="63.623047" xlink:href="#DejaVuSans-35"/>
      </g>
     </g>
    </g>
    <g id="xtick_7">
     <g id="line2d_7">
      <g>
       <use style="stroke:#000000;stroke-width:0.8;" x="317.323636" xlink:href="#m99d0484c49" y="307.584"/>
      </g>
     </g>
     <g id="text_7">
      <!-- 30 -->
      <g transform="translate(310.961136 322.182437)scale(0.1 -0.1)">
       <defs>
        <path d="M 2597 2516 
Q 3050 2419 3304 2112 
Q 3559 1806 3559 1356 
Q 3559 666 3084 287 
Q 2609 -91 1734 -91 
Q 1441 -91 1130 -33 
Q 819 25 488 141 
L 488 750 
Q 750 597 1062 519 
Q 1375 441 1716 441 
Q 2309 441 2620 675 
Q 2931 909 2931 1356 
Q 2931 1769 2642 2001 
Q 2353 2234 1838 2234 
L 1294 2234 
L 1294 2753 
L 1863 2753 
Q 2328 2753 2575 2939 
Q 2822 3125 2822 3475 
Q 2822 3834 2567 4026 
Q 2313 4219 1838 4219 
Q 1578 4219 1281 4162 
Q 984 4106 628 3988 
L 628 4550 
Q 988 4650 1302 4700 
Q 1616 4750 1894 4750 
Q 2613 4750 3031 4423 
Q 3450 4097 3450 3541 
Q 3450 3153 3228 2886 
Q 3006 2619 2597 2516 
z
" id="DejaVuSans-33" transform="scale(0.015625)"/>
       </defs>
       <use xlink:href="#DejaVuSans-33"/>
       <use x="63.623047" xlink:href="#DejaVuSans-30"/>
      </g>
     </g>
    </g>
    <g id="xtick_8">
     <g id="line2d_8">
      <g>
       <use style="stroke:#000000;stroke-width:0.8;" x="357.905455" xlink:href="#m99d0484c49" y="307.584"/>
      </g>
     </g>
     <g id="text_8">
      <!-- 35 -->
      <g transform="translate(351.542955 322.182437)scale(0.1 -0.1)">
       <use xlink:href="#DejaVuSans-33"/>
       <use x="63.623047" xlink:href="#DejaVuSans-35"/>
      </g>
     </g>
    </g>
    <g id="xtick_9">
     <g id="line2d_9">
      <g>
       <use style="stroke:#000000;stroke-width:0.8;" x="398.487273" xlink:href="#m99d0484c49" y="307.584"/>
      </g>
     </g>
     <g id="text_9">
      <!-- 40 -->
      <g transform="translate(392.124773 322.182437)scale(0.1 -0.1)">
       <defs>
        <path d="M 2419 4116 
L 825 1625 
L 2419 1625 
L 2419 4116 
z
M 2253 4666 
L 3047 4666 
L 3047 1625 
L 3713 1625 
L 3713 1100 
L 3047 1100 
L 3047 0 
L 2419 0 
L 2419 1100 
L 313 1100 
L 313 1709 
L 2253 4666 
z
" id="DejaVuSans-34" transform="scale(0.015625)"/>
       </defs>
       <use xlink:href="#DejaVuSans-34"/>
       <use x="63.623047" xlink:href="#DejaVuSans-30"/>
      </g>
     </g>
    </g>
    <g id="text_10">
     <!-- t -->
     <g transform="translate(234.199844 335.860562)scale(0.1 -0.1)">
      <defs>
       <path d="M 1172 4494 
L 1172 3500 
L 2356 3500 
L 2356 3053 
L 1172 3053 
L 1172 1153 
Q 1172 725 1289 603 
Q 1406 481 1766 481 
L 2356 481 
L 2356 0 
L 1766 0 
Q 1100 0 847 248 
Q 594 497 594 1153 
L 594 3053 
L 172 3053 
L 172 3500 
L 594 3500 
L 594 4494 
L 1172 4494 
z
" id="DejaVuSans-74" transform="scale(0.015625)"/>
      </defs>
      <use xlink:href="#DejaVuSans-74"/>
     </g>
    </g>
   </g>
   <g id="matplotlib.axis_2">
    <g id="ytick_1">
     <g id="line2d_10">
      <defs>
       <path d="M 0 0 
L -3.5 0 
" id="mcd126f95af" style="stroke:#000000;stroke-width:0.8;"/>
      </defs>
      <g>
       <use style="stroke:#000000;stroke-width:0.8;" x="57.6" xlink:href="#mcd126f95af" y="307.584"/>
      </g>
     </g>
     <g id="text_11">
      <!-- 0.0 -->
      <g transform="translate(34.696875 311.383219)scale(0.1 -0.1)">
       <defs>
        <path d="M 684 794 
L 1344 794 
L 1344 0 
L 684 0 
L 684 794 
z
" id="DejaVuSans-2e" transform="scale(0.015625)"/>
       </defs>
       <use xlink:href="#DejaVuSans-30"/>
       <use x="63.623047" xlink:href="#DejaVuSans-2e"/>
       <use x="95.410156" xlink:href="#DejaVuSans-30"/>
      </g>
     </g>
    </g>
    <g id="ytick_2">
     <g id="line2d_11">
      <g>
       <use style="stroke:#000000;stroke-width:0.8;" x="57.6" xlink:href="#mcd126f95af" y="254.3616"/>
      </g>
     </g>
     <g id="text_12">
      <!-- 0.2 -->
      <g transform="translate(34.696875 258.160819)scale(0.1 -0.1)">
       <use xlink:href="#DejaVuSans-30"/>
       <use x="63.623047" xlink:href="#DejaVuSans-2e"/>
       <use x="95.410156" xlink:href="#DejaVuSans-32"/>
      </g>
     </g>
    </g>
    <g id="ytick_3">
     <g id="line2d_12">
      <g>
       <use style="stroke:#000000;stroke-width:0.8;" x="57.6" xlink:href="#mcd126f95af" y="201.1392"/>
      </g>
     </g>
     <g id="text_13">
      <!-- 0.4 -->
      <g transform="translate(34.696875 204.938419)scale(0.1 -0.1)">
       <use xlink:href="#DejaVuSans-30"/>
       <use x="63.623047" xlink:href="#DejaVuSans-2e"/>
       <use x="95.410156" xlink:href="#DejaVuSans-34"/>
      </g>
     </g>
    </g>
    <g id="ytick_4">
     <g id="line2d_13">
      <g>
       <use style="stroke:#000000;stroke-width:0.8;" x="57.6" xlink:href="#mcd126f95af" y="147.9168"/>
      </g>
     </g>
     <g id="text_14">
      <!-- 0.6 -->
      <g transform="translate(34.696875 151.716019)scale(0.1 -0.1)">
       <defs>
        <path d="M 2113 2584 
Q 1688 2584 1439 2293 
Q 1191 2003 1191 1497 
Q 1191 994 1439 701 
Q 1688 409 2113 409 
Q 2538 409 2786 701 
Q 3034 994 3034 1497 
Q 3034 2003 2786 2293 
Q 2538 2584 2113 2584 
z
M 3366 4563 
L 3366 3988 
Q 3128 4100 2886 4159 
Q 2644 4219 2406 4219 
Q 1781 4219 1451 3797 
Q 1122 3375 1075 2522 
Q 1259 2794 1537 2939 
Q 1816 3084 2150 3084 
Q 2853 3084 3261 2657 
Q 3669 2231 3669 1497 
Q 3669 778 3244 343 
Q 2819 -91 2113 -91 
Q 1303 -91 875 529 
Q 447 1150 447 2328 
Q 447 3434 972 4092 
Q 1497 4750 2381 4750 
Q 2619 4750 2861 4703 
Q 3103 4656 3366 4563 
z
" id="DejaVuSans-36" transform="scale(0.015625)"/>
       </defs>
       <use xlink:href="#DejaVuSans-30"/>
       <use x="63.623047" xlink:href="#DejaVuSans-2e"/>
       <use x="95.410156" xlink:href="#DejaVuSans-36"/>
      </g>
     </g>
    </g>
    <g id="ytick_5">
     <g id="line2d_14">
      <g>
       <use style="stroke:#000000;stroke-width:0.8;" x="57.6" xlink:href="#mcd126f95af" y="94.6944"/>
      </g>
     </g>
     <g id="text_15">
      <!-- 0.8 -->
      <g transform="translate(34.696875 98.493619)scale(0.1 -0.1)">
       <defs>
        <path d="M 2034 2216 
Q 1584 2216 1326 1975 
Q 1069 1734 1069 1313 
Q 1069 891 1326 650 
Q 1584 409 2034 409 
Q 2484 409 2743 651 
Q 3003 894 3003 1313 
Q 3003 1734 2745 1975 
Q 2488 2216 2034 2216 
z
M 1403 2484 
Q 997 2584 770 2862 
Q 544 3141 544 3541 
Q 544 4100 942 4425 
Q 1341 4750 2034 4750 
Q 2731 4750 3128 4425 
Q 3525 4100 3525 3541 
Q 3525 3141 3298 2862 
Q 3072 2584 2669 2484 
Q 3125 2378 3379 2068 
Q 3634 1759 3634 1313 
Q 3634 634 3220 271 
Q 2806 -91 2034 -91 
Q 1263 -91 848 271 
Q 434 634 434 1313 
Q 434 1759 690 2068 
Q 947 2378 1403 2484 
z
M 1172 3481 
Q 1172 3119 1398 2916 
Q 1625 2713 2034 2713 
Q 2441 2713 2670 2916 
Q 2900 3119 2900 3481 
Q 2900 3844 2670 4047 
Q 2441 4250 2034 4250 
Q 1625 4250 1398 4047 
Q 1172 3844 1172 3481 
z
" id="DejaVuSans-38" transform="scale(0.015625)"/>
       </defs>
       <use xlink:href="#DejaVuSans-30"/>
       <use x="63.623047" xlink:href="#DejaVuSans-2e"/>
       <use x="95.410156" xlink:href="#DejaVuSans-38"/>
      </g>
     </g>
    </g>
    <g id="ytick_6">
     <g id="line2d_15">
      <g>
       <use style="stroke:#000000;stroke-width:0.8;" x="57.6" xlink:href="#mcd126f95af" y="41.472"/>
      </g>
     </g>
     <g id="text_16">
      <!-- 1.0 -->
      <g transform="translate(34.696875 45.271219)scale(0.1 -0.1)">
       <use xlink:href="#DejaVuSans-31"/>
       <use x="63.623047" xlink:href="#DejaVuSans-2e"/>
       <use x="95.410156" xlink:href="#DejaVuSans-30"/>
      </g>
     </g>
    </g>
    <g id="text_17">
     <!-- p(context) -->
     <g transform="translate(28.617187 200.449875)rotate(-90)scale(0.1 -0.1)">
      <defs>
       <path d="M 1159 525 
L 1159 -1331 
L 581 -1331 
L 581 3500 
L 1159 3500 
L 1159 2969 
Q 1341 3281 1617 3432 
Q 1894 3584 2278 3584 
Q 2916 3584 3314 3078 
Q 3713 2572 3713 1747 
Q 3713 922 3314 415 
Q 2916 -91 2278 -91 
Q 1894 -91 1617 61 
Q 1341 213 1159 525 
z
M 3116 1747 
Q 3116 2381 2855 2742 
Q 2594 3103 2138 3103 
Q 1681 3103 1420 2742 
Q 1159 2381 1159 1747 
Q 1159 1113 1420 752 
Q 1681 391 2138 391 
Q 2594 391 2855 752 
Q 3116 1113 3116 1747 
z
" id="DejaVuSans-70" transform="scale(0.015625)"/>
       <path d="M 1984 4856 
Q 1566 4138 1362 3434 
Q 1159 2731 1159 2009 
Q 1159 1288 1364 580 
Q 1569 -128 1984 -844 
L 1484 -844 
Q 1016 -109 783 600 
Q 550 1309 550 2009 
Q 550 2706 781 3412 
Q 1013 4119 1484 4856 
L 1984 4856 
z
" id="DejaVuSans-28" transform="scale(0.015625)"/>
       <path d="M 3122 3366 
L 3122 2828 
Q 2878 2963 2633 3030 
Q 2388 3097 2138 3097 
Q 1578 3097 1268 2742 
Q 959 2388 959 1747 
Q 959 1106 1268 751 
Q 1578 397 2138 397 
Q 2388 397 2633 464 
Q 2878 531 3122 666 
L 3122 134 
Q 2881 22 2623 -34 
Q 2366 -91 2075 -91 
Q 1284 -91 818 406 
Q 353 903 353 1747 
Q 353 2603 823 3093 
Q 1294 3584 2113 3584 
Q 2378 3584 2631 3529 
Q 2884 3475 3122 3366 
z
" id="DejaVuSans-63" transform="scale(0.015625)"/>
       <path d="M 1959 3097 
Q 1497 3097 1228 2736 
Q 959 2375 959 1747 
Q 959 1119 1226 758 
Q 1494 397 1959 397 
Q 2419 397 2687 759 
Q 2956 1122 2956 1747 
Q 2956 2369 2687 2733 
Q 2419 3097 1959 3097 
z
M 1959 3584 
Q 2709 3584 3137 3096 
Q 3566 2609 3566 1747 
Q 3566 888 3137 398 
Q 2709 -91 1959 -91 
Q 1206 -91 779 398 
Q 353 888 353 1747 
Q 353 2609 779 3096 
Q 1206 3584 1959 3584 
z
" id="DejaVuSans-6f" transform="scale(0.015625)"/>
       <path d="M 3513 2113 
L 3513 0 
L 2938 0 
L 2938 2094 
Q 2938 2591 2744 2837 
Q 2550 3084 2163 3084 
Q 1697 3084 1428 2787 
Q 1159 2491 1159 1978 
L 1159 0 
L 581 0 
L 581 3500 
L 1159 3500 
L 1159 2956 
Q 1366 3272 1645 3428 
Q 1925 3584 2291 3584 
Q 2894 3584 3203 3211 
Q 3513 2838 3513 2113 
z
" id="DejaVuSans-6e" transform="scale(0.015625)"/>
       <path d="M 3597 1894 
L 3597 1613 
L 953 1613 
Q 991 1019 1311 708 
Q 1631 397 2203 397 
Q 2534 397 2845 478 
Q 3156 559 3463 722 
L 3463 178 
Q 3153 47 2828 -22 
Q 2503 -91 2169 -91 
Q 1331 -91 842 396 
Q 353 884 353 1716 
Q 353 2575 817 3079 
Q 1281 3584 2069 3584 
Q 2775 3584 3186 3129 
Q 3597 2675 3597 1894 
z
M 3022 2063 
Q 3016 2534 2758 2815 
Q 2500 3097 2075 3097 
Q 1594 3097 1305 2825 
Q 1016 2553 972 2059 
L 3022 2063 
z
" id="DejaVuSans-65" transform="scale(0.015625)"/>
       <path d="M 3513 3500 
L 2247 1797 
L 3578 0 
L 2900 0 
L 1881 1375 
L 863 0 
L 184 0 
L 1544 1831 
L 300 3500 
L 978 3500 
L 1906 2253 
L 2834 3500 
L 3513 3500 
z
" id="DejaVuSans-78" transform="scale(0.015625)"/>
       <path d="M 513 4856 
L 1013 4856 
Q 1481 4119 1714 3412 
Q 1947 2706 1947 2009 
Q 1947 1309 1714 600 
Q 1481 -109 1013 -844 
L 513 -844 
Q 928 -128 1133 580 
Q 1338 1288 1338 2009 
Q 1338 2731 1133 3434 
Q 928 4138 513 4856 
z
" id="DejaVuSans-29" transform="scale(0.015625)"/>
      </defs>
      <use xlink:href="#DejaVuSans-70"/>
      <use x="63.476562" xlink:href="#DejaVuSans-28"/>
      <use x="102.490234" xlink:href="#DejaVuSans-63"/>
      <use x="157.470703" xlink:href="#DejaVuSans-6f"/>
      <use x="218.652344" xlink:href="#DejaVuSans-6e"/>
      <use x="282.03125" xlink:href="#DejaVuSans-74"/>
      <use x="321.240234" xlink:href="#DejaVuSans-65"/>
      <use x="381.013672" xlink:href="#DejaVuSans-78"/>
      <use x="440.193359" xlink:href="#DejaVuSans-74"/>
      <use x="479.402344" xlink:href="#DejaVuSans-29"/>
     </g>
    </g>
   </g>
   <g id="line2d_16">
    <path clip-path="url(#pfdbeb1986b)" d="M 73.832727 218.88 
L 81.949091 195.81696 
L 90.065455 191.350012 
L 98.181818 189.583508 
L 106.298182 187.852733 
L 114.414545 186.038212 
L 122.530909 184.222558 
L 130.647273 182.452683 
L 138.763636 180.749611 
L 146.88 179.122161 
L 154.996364 177.573201 
L 163.112727 176.102486 
L 171.229091 174.708075 
L 179.345455 200.115711 
L 187.461818 177.800611 
L 195.578182 175.885058 
L 203.694545 174.81973 
L 211.810909 173.833205 
L 219.927273 183.742591 
L 228.043636 184.076976 
L 236.16 184.090864 
L 244.276364 184.094477 
L 252.392727 184.097383 
L 260.509091 184.099923 
L 268.625455 184.102162 
L 276.741818 184.104144 
L 284.858182 184.105908 
L 292.974545 184.107485 
L 301.090909 184.1089 
L 309.207273 184.110174 
L 317.323636 184.111326 
L 325.44 184.112372 
L 333.556364 184.113322 
L 341.672727 184.11419 
L 349.789091 184.114984 
L 357.905455 184.115712 
L 366.021818 184.116381 
L 374.138182 184.116998 
L 382.254545 184.117568 
L 390.370909 184.118096 
" style="fill:none;stroke:#add8e6;stroke-linecap:square;stroke-opacity:0.3;stroke-width:1.5;"/>
   </g>
   <g id="line2d_17">
    <path clip-path="url(#pfdbeb1986b)" d="M 73.832727 218.88 
L 81.949091 195.81696 
L 90.065455 191.350012 
L 98.181818 192.261964 
L 106.298182 191.696115 
L 114.414545 192.541675 
L 122.530909 191.958381 
L 130.647273 190.70197 
L 138.763636 189.403305 
L 146.88 194.358162 
L 154.996364 190.101475 
L 163.112727 188.863988 
L 171.229091 187.798211 
L 179.345455 186.774987 
L 187.461818 196.15418 
L 195.578182 187.885987 
L 203.694545 186.791304 
L 211.810909 185.966735 
L 219.927273 185.182049 
L 228.043636 184.429557 
L 236.16 190.321684 
L 244.276364 200.142414 
L 252.392727 184.91791 
L 260.509091 198.613503 
L 268.625455 198.401632 
L 276.741818 197.900901 
L 284.858182 186.895588 
L 292.974545 196.766811 
L 301.090909 196.488043 
L 309.207273 187.969519 
L 317.323636 195.673914 
L 325.44 195.369941 
L 333.556364 194.936736 
L 341.672727 194.51688 
L 349.789091 194.112078 
L 357.905455 193.721683 
L 366.021818 193.345048 
L 374.138182 192.981564 
L 382.254545 192.630654 
L 390.370909 192.291772 
" style="fill:none;stroke:#add8e6;stroke-linecap:square;stroke-opacity:0.3;stroke-width:1.5;"/>
   </g>
   <g id="line2d_18">
    <path clip-path="url(#pfdbeb1986b)" d="M 73.832727 218.88 
L 81.949091 195.81696 
L 90.065455 191.350012 
L 98.181818 192.261964 
L 106.298182 191.126431 
L 114.414545 189.60754 
L 122.530909 188.014649 
L 130.647273 186.427304 
L 138.763636 184.876921 
L 146.88 183.378579 
L 154.996364 181.939617 
L 163.112727 197.696349 
L 171.229091 183.993551 
L 179.345455 182.342651 
L 187.461818 181.236462 
L 195.578182 180.196846 
L 203.694545 179.204721 
L 211.810909 178.257951 
L 219.927273 177.35478 
L 228.043636 176.49335 
L 236.16 185.97762 
L 244.276364 186.254605 
L 252.392727 186.264618 
L 260.509091 186.267206 
L 268.625455 186.269332 
L 276.741818 186.271211 
L 284.858182 186.272884 
L 292.974545 186.274379 
L 301.090909 186.275721 
L 309.207273 186.27693 
L 317.323636 186.278022 
L 325.44 186.279013 
L 333.556364 186.279915 
L 341.672727 186.280738 
L 349.789091 186.281491 
L 357.905455 186.282181 
L 366.021818 186.282816 
L 374.138182 186.283402 
L 382.254545 186.283942 
L 390.370909 186.284442 
" style="fill:none;stroke:#add8e6;stroke-linecap:square;stroke-opacity:0.3;stroke-width:1.5;"/>
   </g>
   <g id="line2d_19">
    <path clip-path="url(#pfdbeb1986b)" d="M 73.832727 218.88 
L 81.949091 195.81696 
L 90.065455 191.350012 
L 98.181818 189.583508 
L 106.298182 187.852733 
L 114.414545 186.038212 
L 122.530909 184.222558 
L 130.647273 182.452683 
L 138.763636 180.749611 
L 146.88 179.122161 
L 154.996364 177.573201 
L 163.112727 176.102486 
L 171.229091 174.708075 
L 179.345455 173.387093 
L 187.461818 172.136181 
L 195.578182 170.951751 
L 203.694545 202.33765 
L 211.810909 174.366393 
L 219.927273 183.276139 
L 228.043636 183.587643 
L 236.16 183.601263 
L 244.276364 183.604984 
L 252.392727 183.607987 
L 260.509091 183.610611 
L 268.625455 183.612922 
L 276.741818 183.61497 
L 284.858182 183.616792 
L 292.974545 183.61842 
L 301.090909 183.619881 
L 309.207273 183.621198 
L 317.323636 183.622388 
L 325.44 183.623467 
L 333.556364 183.624449 
L 341.672727 183.625344 
L 349.789091 183.626164 
L 357.905455 183.626916 
L 366.021818 183.627607 
L 374.138182 183.628244 
L 382.254545 183.628832 
L 390.370909 183.629377 
" style="fill:none;stroke:#add8e6;stroke-linecap:square;stroke-opacity:0.3;stroke-width:1.5;"/>
   </g>
   <g id="line2d_20">
    <path clip-path="url(#pfdbeb1986b)" d="M 73.832727 218.88 
L 81.949091 195.81696 
L 90.065455 191.350012 
L 98.181818 189.583508 
L 106.298182 193.405448 
L 114.414545 192.609375 
L 122.530909 191.299598 
L 130.647273 189.925364 
L 138.763636 188.555088 
L 146.88 187.212125 
L 154.996364 185.908521 
L 163.112727 184.650821 
L 171.229091 183.442321 
L 179.345455 182.284304 
L 187.461818 181.176762 
L 195.578182 180.118869 
L 203.694545 179.109268 
L 211.810909 178.146278 
L 219.927273 177.228025 
L 228.043636 176.352536 
L 236.16 186.281517 
L 244.276364 186.568736 
L 252.392727 186.57893 
L 260.509091 186.581498 
L 268.625455 186.583604 
L 276.741818 186.585466 
L 284.858182 186.587123 
L 292.974545 186.588604 
L 301.090909 186.589933 
L 309.207273 186.59113 
L 317.323636 186.592213 
L 325.44 186.593194 
L 333.556364 186.594088 
L 341.672727 186.594903 
L 349.789091 186.595648 
L 357.905455 186.596332 
L 366.021818 186.596961 
L 374.138182 186.597541 
L 382.254545 186.598077 
L 390.370909 186.598572 
" style="fill:none;stroke:#add8e6;stroke-linecap:square;stroke-opacity:0.3;stroke-width:1.5;"/>
   </g>
   <g id="line2d_21">
    <path clip-path="url(#pfdbeb1986b)" d="M 73.832727 218.88 
L 81.949091 195.81696 
L 90.065455 191.350012 
L 98.181818 192.261964 
L 106.298182 191.126431 
L 114.414545 192.933954 
L 122.530909 191.890268 
L 130.647273 190.593471 
L 138.763636 193.533145 
L 146.88 191.012081 
L 154.996364 189.809427 
L 163.112727 188.700865 
L 171.229091 187.629518 
L 179.345455 186.595876 
L 187.461818 185.601461 
L 195.578182 184.646794 
L 203.694545 183.731655 
L 211.810909 182.855329 
L 219.927273 182.016771 
L 228.043636 181.214727 
L 236.16 188.989269 
L 244.276364 189.2043 
L 252.392727 189.212189 
L 260.509091 189.214565 
L 268.625455 189.216552 
L 276.741818 189.218309 
L 284.858182 189.219873 
L 292.974545 189.221271 
L 301.090909 189.222526 
L 309.207273 189.223656 
L 317.323636 189.224678 
L 325.44 189.225605 
L 333.556364 189.226448 
L 341.672727 189.227218 
L 349.789091 189.227922 
L 357.905455 189.228567 
L 366.021818 189.229161 
L 374.138182 189.229709 
L 382.254545 189.230214 
L 390.370909 189.230682 
" style="fill:none;stroke:#add8e6;stroke-linecap:square;stroke-opacity:0.3;stroke-width:1.5;"/>
   </g>
   <g id="line2d_22">
    <path clip-path="url(#pfdbeb1986b)" d="M 73.832727 218.88 
L 81.949091 195.81696 
L 90.065455 191.350012 
L 98.181818 189.583508 
L 106.298182 187.852733 
L 114.414545 186.038212 
L 122.530909 184.222558 
L 130.647273 195.831226 
L 138.763636 186.075764 
L 146.88 184.194367 
L 154.996364 182.810209 
L 163.112727 181.504324 
L 171.229091 180.256921 
L 179.345455 179.066926 
L 187.461818 177.933178 
L 195.578182 176.853932 
L 203.694545 175.827079 
L 211.810909 174.850306 
L 219.927273 184.916171 
L 228.043636 185.242081 
L 236.16 185.255153 
L 244.276364 185.258588 
L 252.392727 185.261363 
L 260.509091 185.26379 
L 268.625455 185.265928 
L 276.741818 185.267822 
L 284.858182 185.269507 
L 292.974545 185.271014 
L 301.090909 185.272366 
L 309.207273 185.273584 
L 317.323636 185.274685 
L 325.44 185.275684 
L 333.556364 185.276592 
L 341.672727 185.277422 
L 349.789091 185.27818 
L 357.905455 185.278876 
L 366.021818 185.279516 
L 374.138182 185.280106 
L 382.254545 185.280651 
L 390.370909 185.281155 
" style="fill:none;stroke:#add8e6;stroke-linecap:square;stroke-opacity:0.3;stroke-width:1.5;"/>
   </g>
   <g id="line2d_23">
    <path clip-path="url(#pfdbeb1986b)" d="M 73.832727 218.88 
L 81.949091 195.81696 
L 90.065455 191.350012 
L 98.181818 192.261964 
L 106.298182 191.126431 
L 114.414545 192.933954 
L 122.530909 191.890268 
L 130.647273 190.593471 
L 138.763636 189.283594 
L 146.88 194.384077 
L 154.996364 189.999911 
L 163.112727 188.750287 
L 171.229091 194.721761 
L 179.345455 194.100576 
L 187.461818 190.369231 
L 195.578182 189.403053 
L 203.694545 194.258676 
L 211.810909 189.948148 
L 219.927273 189.099152 
L 228.043636 188.378813 
L 236.16 191.760937 
L 244.276364 187.601314 
L 252.392727 196.001177 
L 260.509091 195.608319 
L 268.625455 195.036541 
L 276.741818 194.481518 
L 284.858182 193.946647 
L 292.974545 190.411713 
L 301.090909 193.613411 
L 309.207273 193.196145 
L 317.323636 192.728662 
L 325.44 192.276866 
L 333.556364 191.841223 
L 341.672727 191.421086 
L 349.789091 191.015813 
L 357.905455 190.624789 
L 366.021818 190.247422 
L 374.138182 189.883147 
L 382.254545 194.162476 
L 390.370909 190.182068 
" style="fill:none;stroke:#add8e6;stroke-linecap:square;stroke-opacity:0.3;stroke-width:1.5;"/>
   </g>
   <g id="line2d_24">
    <path clip-path="url(#pfdbeb1986b)" d="M 73.832727 218.88 
L 81.949091 195.81696 
L 90.065455 191.350012 
L 98.181818 189.583508 
L 106.298182 187.852733 
L 114.414545 186.038212 
L 122.530909 184.222558 
L 130.647273 195.831226 
L 138.763636 186.075764 
L 146.88 184.194367 
L 154.996364 195.611222 
L 163.112727 185.762563 
L 171.229091 184.25071 
L 179.345455 195.327416 
L 187.461818 185.625217 
L 195.578182 194.352376 
L 203.694545 193.819069 
L 211.810909 187.179643 
L 219.927273 186.231409 
L 228.043636 193.567718 
L 236.16 190.238774 
L 244.276364 192.455831 
L 252.392727 191.814523 
L 260.509091 188.58393 
L 268.625455 191.421842 
L 276.741818 190.853968 
L 284.858182 190.233138 
L 292.974545 189.878696 
L 301.090909 190.155964 
L 309.207273 189.614843 
L 317.323636 189.077192 
L 325.44 188.558633 
L 333.556364 191.304079 
L 341.672727 188.749958 
L 349.789091 188.25144 
L 357.905455 187.802986 
L 366.021818 187.370718 
L 374.138182 186.953471 
L 382.254545 186.550614 
L 390.370909 193.126561 
" style="fill:none;stroke:#add8e6;stroke-linecap:square;stroke-opacity:0.3;stroke-width:1.5;"/>
   </g>
   <g id="line2d_25">
    <path clip-path="url(#pfdbeb1986b)" d="M 73.832727 218.88 
L 81.949091 195.81696 
L 90.065455 191.350012 
L 98.181818 192.261964 
L 106.298182 191.696115 
L 114.414545 190.315455 
L 122.530909 188.812556 
L 130.647273 187.304353 
L 138.763636 185.82635 
L 146.88 184.394744 
L 154.996364 183.017574 
L 163.112727 181.698498 
L 171.229091 180.438621 
L 179.345455 179.237514 
L 187.461818 199.593563 
L 195.578182 181.606395 
L 203.694545 180.049594 
L 211.810909 179.115365 
L 219.927273 178.241545 
L 228.043636 177.408266 
L 236.16 186.308831 
L 244.276364 186.570273 
L 252.392727 186.57991 
L 260.509091 186.582497 
L 268.625455 186.584629 
L 276.741818 186.586515 
L 284.858182 186.588193 
L 292.974545 186.589693 
L 301.090909 186.591039 
L 309.207273 186.592251 
L 317.323636 186.593348 
L 325.44 186.594342 
L 333.556364 186.595246 
L 341.672727 186.596072 
L 349.789091 186.596827 
L 357.905455 186.59752 
L 366.021818 186.598157 
L 374.138182 186.598744 
L 382.254545 186.599286 
L 390.370909 186.599788 
" style="fill:none;stroke:#add8e6;stroke-linecap:square;stroke-opacity:0.3;stroke-width:1.5;"/>
   </g>
   <g id="line2d_26">
    <path clip-path="url(#pfdbeb1986b)" d="M 73.832727 218.88 
L 81.949091 195.81696 
L 90.065455 191.350012 
L 98.181818 189.583508 
L 106.298182 193.405448 
L 114.414545 192.609375 
L 122.530909 191.80042 
L 130.647273 192.458765 
L 138.763636 191.904899 
L 146.88 190.773486 
L 154.996364 189.630258 
L 163.112727 188.514594 
L 171.229091 187.433734 
L 179.345455 186.391007 
L 187.461818 185.388016 
L 195.578182 184.425252 
L 203.694545 197.678052 
L 211.810909 185.870949 
L 219.927273 184.74289 
L 228.043636 183.969594 
L 236.16 190.015485 
L 244.276364 200.094221 
L 252.392727 199.845711 
L 260.509091 199.370343 
L 268.625455 185.703312 
L 276.741818 197.931939 
L 284.858182 186.447003 
L 292.974545 197.030382 
L 301.090909 196.781474 
L 309.207273 196.333534 
L 317.323636 195.898467 
L 325.44 195.479439 
L 333.556364 195.075768 
L 341.672727 194.686749 
L 349.789091 194.311716 
L 357.905455 193.950043 
L 366.021818 193.601135 
L 374.138182 193.264432 
L 382.254545 192.939402 
L 390.370909 191.355552 
" style="fill:none;stroke:#add8e6;stroke-linecap:square;stroke-opacity:0.3;stroke-width:1.5;"/>
   </g>
   <g id="line2d_27">
    <path clip-path="url(#pfdbeb1986b)" d="M 73.832727 218.88 
L 81.949091 195.81696 
L 90.065455 191.350012 
L 98.181818 189.583508 
L 106.298182 187.852733 
L 114.414545 186.038212 
L 122.530909 195.104037 
L 130.647273 187.58043 
L 138.763636 185.748426 
L 146.88 184.314813 
L 154.996364 195.938212 
L 163.112727 185.926435 
L 171.229091 184.41025 
L 179.345455 183.31115 
L 187.461818 182.272026 
L 195.578182 197.086181 
L 203.694545 183.973449 
L 211.810909 195.798959 
L 219.927273 184.875282 
L 228.043636 183.831628 
L 236.16 188.944007 
L 244.276364 183.1227 
L 252.392727 196.34028 
L 260.509091 196.030235 
L 268.625455 184.885684 
L 276.741818 184.069813 
L 284.858182 188.948729 
L 292.974545 189.058904 
L 301.090909 189.062448 
L 309.207273 189.063665 
L 317.323636 189.064726 
L 325.44 189.065687 
L 333.556364 189.066562 
L 341.672727 189.067361 
L 349.789091 189.068091 
L 357.905455 189.068761 
L 366.021818 189.069377 
L 374.138182 189.069945 
L 382.254545 189.07047 
L 390.370909 189.070955 
" style="fill:none;stroke:#add8e6;stroke-linecap:square;stroke-opacity:0.3;stroke-width:1.5;"/>
   </g>
   <g id="line2d_28">
    <path clip-path="url(#pfdbeb1986b)" d="M 73.832727 218.88 
L 81.949091 195.81696 
L 90.065455 191.350012 
L 98.181818 189.583508 
L 106.298182 187.852733 
L 114.414545 194.32028 
L 122.530909 189.069889 
L 130.647273 187.32113 
L 138.763636 185.845922 
L 146.88 184.429741 
L 154.996364 183.067011 
L 163.112727 181.760961 
L 171.229091 180.512902 
L 179.345455 179.322583 
L 187.461818 199.144966 
L 195.578182 181.639758 
L 203.694545 180.106566 
L 211.810909 179.179423 
L 219.927273 178.311719 
L 228.043636 177.48414 
L 236.16 186.216192 
L 244.276364 186.472438 
L 252.392727 186.481923 
L 260.509091 186.484503 
L 268.625455 186.486632 
L 276.741818 186.488515 
L 284.858182 186.49019 
L 292.974545 186.491688 
L 301.090909 186.493032 
L 309.207273 186.494243 
L 317.323636 186.495337 
L 325.44 186.49633 
L 333.556364 186.497234 
L 341.672727 186.498058 
L 349.789091 186.498812 
L 357.905455 186.499504 
L 366.021818 186.50014 
L 374.138182 186.500726 
L 382.254545 186.501267 
L 390.370909 186.501768 
" style="fill:none;stroke:#add8e6;stroke-linecap:square;stroke-opacity:0.3;stroke-width:1.5;"/>
   </g>
   <g id="line2d_29">
    <path clip-path="url(#pfdbeb1986b)" d="M 73.832727 218.88 
L 81.949091 195.81696 
L 90.065455 191.350012 
L 98.181818 189.583508 
L 106.298182 187.852733 
L 114.414545 194.32028 
L 122.530909 189.069889 
L 130.647273 187.32113 
L 138.763636 194.716653 
L 146.88 188.424494 
L 154.996364 186.954597 
L 163.112727 185.768396 
L 171.229091 184.636481 
L 179.345455 183.550159 
L 187.461818 182.50953 
L 195.578182 181.5142 
L 203.694545 180.563203 
L 211.810909 179.655194 
L 219.927273 199.802124 
L 228.043636 181.703843 
L 236.16 188.151717 
L 244.276364 188.337126 
L 252.392727 188.344517 
L 260.509091 188.346964 
L 268.625455 188.349021 
L 276.741818 188.350841 
L 284.858182 188.352461 
L 292.974545 188.353909 
L 301.090909 188.355208 
L 309.207273 188.356379 
L 317.323636 188.357437 
L 325.44 188.358397 
L 333.556364 188.35927 
L 341.672727 188.360067 
L 349.789091 188.360796 
L 357.905455 188.361464 
L 366.021818 188.362079 
L 374.138182 188.362646 
L 382.254545 188.36317 
L 390.370909 188.363654 
" style="fill:none;stroke:#add8e6;stroke-linecap:square;stroke-opacity:0.3;stroke-width:1.5;"/>
   </g>
   <g id="line2d_30">
    <path clip-path="url(#pfdbeb1986b)" d="M 73.832727 218.88 
L 81.949091 195.81696 
L 90.065455 191.350012 
L 98.181818 192.261964 
L 106.298182 191.126431 
L 114.414545 189.60754 
L 122.530909 193.899334 
L 130.647273 193.120683 
L 138.763636 191.977767 
L 146.88 190.817574 
L 154.996364 189.675399 
L 163.112727 188.562088 
L 171.229091 194.891751 
L 179.345455 189.362254 
L 187.461818 188.259698 
L 195.578182 187.354092 
L 203.694545 195.733883 
L 211.810909 188.28928 
L 219.927273 187.332772 
L 228.043636 186.597709 
L 236.16 191.125112 
L 244.276364 198.168527 
L 252.392727 197.779803 
L 260.509091 197.235933 
L 268.625455 196.708424 
L 276.741818 196.200292 
L 284.858182 195.710859 
L 292.974545 195.239389 
L 301.090909 194.785166 
L 309.207273 194.347495 
L 317.323636 193.925701 
L 325.44 193.519135 
L 333.556364 193.127168 
L 341.672727 192.749196 
L 349.789091 192.384637 
L 357.905455 192.032933 
L 366.021818 191.693548 
L 374.138182 191.365969 
L 382.254545 191.049703 
L 390.370909 194.154172 
" style="fill:none;stroke:#add8e6;stroke-linecap:square;stroke-opacity:0.3;stroke-width:1.5;"/>
   </g>
   <g id="line2d_31">
    <path clip-path="url(#pfdbeb1986b)" d="M 73.832727 218.88 
L 81.949091 195.81696 
L 90.065455 191.350012 
L 98.181818 189.583508 
L 106.298182 187.852733 
L 114.414545 194.32028 
L 122.530909 189.069889 
L 130.647273 187.32113 
L 138.763636 185.845922 
L 146.88 184.429741 
L 154.996364 183.067011 
L 163.112727 181.760961 
L 171.229091 180.512902 
L 179.345455 179.322583 
L 187.461818 178.188778 
L 195.578182 177.109671 
L 203.694545 176.083097 
L 211.810909 175.106705 
L 219.927273 185.266745 
L 228.043636 185.593816 
L 236.16 185.606848 
L 244.276364 185.610261 
L 252.392727 185.613018 
L 260.509091 185.615429 
L 268.625455 185.617554 
L 276.741818 185.619435 
L 284.858182 185.62111 
L 292.974545 185.622607 
L 301.090909 185.62395 
L 309.207273 185.62516 
L 317.323636 185.626254 
L 325.44 185.627247 
L 333.556364 185.62815 
L 341.672727 185.628974 
L 349.789091 185.629727 
L 357.905455 185.630419 
L 366.021818 185.631055 
L 374.138182 185.631641 
L 382.254545 185.632182 
L 390.370909 185.632683 
" style="fill:none;stroke:#add8e6;stroke-linecap:square;stroke-opacity:0.3;stroke-width:1.5;"/>
   </g>
   <g id="line2d_32">
    <path clip-path="url(#pfdbeb1986b)" d="M 73.832727 218.88 
L 81.949091 195.81696 
L 90.065455 191.350012 
L 98.181818 192.261964 
L 106.298182 191.126431 
L 114.414545 189.60754 
L 122.530909 193.899334 
L 130.647273 190.304319 
L 138.763636 193.625049 
L 146.88 190.631222 
L 154.996364 189.379767 
L 163.112727 188.244328 
L 171.229091 187.148447 
L 179.345455 186.091663 
L 187.461818 196.355888 
L 195.578182 187.29385 
L 203.694545 186.148526 
L 211.810909 185.299458 
L 219.927273 184.492259 
L 228.043636 197.42312 
L 236.16 190.985277 
L 244.276364 197.697562 
L 252.392727 197.287904 
L 260.509091 196.728431 
L 268.625455 196.185954 
L 276.741818 195.663418 
L 284.858182 195.160126 
L 292.974545 194.675324 
L 301.090909 194.208272 
L 309.207273 193.758257 
L 317.323636 193.324583 
L 325.44 192.906582 
L 333.556364 192.503607 
L 341.672727 192.115034 
L 349.789091 191.740266 
L 357.905455 191.378726 
L 366.021818 191.029863 
L 374.138182 190.693148 
L 382.254545 190.368074 
L 390.370909 190.054156 
" style="fill:none;stroke:#add8e6;stroke-linecap:square;stroke-opacity:0.3;stroke-width:1.5;"/>
   </g>
   <g id="line2d_33">
    <path clip-path="url(#pfdbeb1986b)" d="M 73.832727 218.88 
L 81.949091 195.81696 
L 90.065455 191.350012 
L 98.181818 192.261964 
L 106.298182 191.126431 
L 114.414545 189.60754 
L 122.530909 193.899334 
L 130.647273 190.304319 
L 138.763636 193.625049 
L 146.88 192.777496 
L 154.996364 191.711591 
L 163.112727 190.653935 
L 171.229091 193.320384 
L 179.345455 190.972522 
L 187.461818 193.108296 
L 195.578182 191.163136 
L 203.694545 190.30941 
L 211.810909 193.600087 
L 219.927273 190.666496 
L 228.043636 193.345963 
L 236.16 192.404976 
L 244.276364 193.69171 
L 252.392727 193.092895 
L 260.509091 192.47173 
L 268.625455 191.921178 
L 276.741818 192.3954 
L 284.858182 191.860782 
L 292.974545 191.32517 
L 301.090909 190.808688 
L 309.207273 190.311003 
L 317.323636 193.823798 
L 325.44 193.446637 
L 333.556364 190.999675 
L 341.672727 190.535503 
L 349.789091 190.118668 
L 357.905455 189.716964 
L 366.021818 194.39748 
L 374.138182 190.044 
L 382.254545 189.626447 
L 390.370909 189.277716 
" style="fill:none;stroke:#add8e6;stroke-linecap:square;stroke-opacity:0.3;stroke-width:1.5;"/>
   </g>
   <g id="line2d_34">
    <path clip-path="url(#pfdbeb1986b)" d="M 73.832727 218.88 
L 81.949091 195.81696 
L 90.065455 191.350012 
L 98.181818 189.583508 
L 106.298182 187.852733 
L 114.414545 186.038212 
L 122.530909 184.222558 
L 130.647273 182.452683 
L 138.763636 196.537897 
L 146.88 184.586832 
L 154.996364 182.677418 
L 163.112727 181.346487 
L 171.229091 180.097177 
L 179.345455 178.906156 
L 187.461818 177.771359 
L 195.578182 176.691037 
L 203.694545 175.6631 
L 211.810909 174.685252 
L 219.927273 184.715882 
L 228.043636 185.042161 
L 236.16 185.055305 
L 244.276364 185.058759 
L 252.392727 185.061549 
L 260.509091 185.063988 
L 268.625455 185.066138 
L 276.741818 185.068041 
L 284.858182 185.069735 
L 292.974545 185.07125 
L 301.090909 185.072609 
L 309.207273 185.073833 
L 317.323636 185.07494 
L 325.44 185.075944 
L 333.556364 185.076857 
L 341.672727 185.077691 
L 349.789091 185.078453 
L 357.905455 185.079153 
L 366.021818 185.079796 
L 374.138182 185.080389 
L 382.254545 185.080936 
L 390.370909 185.081443 
" style="fill:none;stroke:#add8e6;stroke-linecap:square;stroke-opacity:0.3;stroke-width:1.5;"/>
   </g>
   <g id="line2d_35">
    <path clip-path="url(#pfdbeb1986b)" d="M 73.832727 218.88 
L 81.949091 195.81696 
L 90.065455 191.350012 
L 98.181818 189.583508 
L 106.298182 187.852733 
L 114.414545 186.038212 
L 122.530909 195.104037 
L 130.647273 194.761578 
L 138.763636 188.970339 
L 146.88 193.812347 
L 154.996364 189.404609 
L 163.112727 188.133122 
L 171.229091 187.041323 
L 179.345455 185.993553 
L 187.461818 184.985695 
L 195.578182 184.018094 
L 203.694545 197.013786 
L 211.810909 185.447452 
L 219.927273 184.318603 
L 228.043636 196.543 
L 236.16 190.48508 
L 244.276364 196.822657 
L 252.392727 186.051513 
L 260.509091 195.719742 
L 268.625455 195.339598 
L 276.741818 187.287467 
L 284.858182 194.454651 
L 292.974545 187.768503 
L 301.090909 193.891319 
L 309.207273 188.181246 
L 317.323636 193.415108 
L 325.44 192.998015 
L 333.556364 192.496339 
L 341.672727 192.010938 
L 349.789091 191.542744 
L 357.905455 191.091028 
L 366.021818 190.655078 
L 374.138182 190.234214 
L 382.254545 189.827792 
L 390.370909 189.435202 
" style="fill:none;stroke:#add8e6;stroke-linecap:square;stroke-opacity:0.3;stroke-width:1.5;"/>
   </g>
   <g id="line2d_36">
    <path clip-path="url(#pfdbeb1986b)" d="M 73.832727 218.88 
L 81.949091 222.42816 
L 90.065455 224.401078 
L 98.181818 224.976197 
L 106.298182 225.479131 
L 114.414545 226.044925 
L 122.530909 226.63777 
L 130.647273 227.232156 
L 138.763636 227.815707 
L 146.88 228.382292 
L 154.996364 228.928771 
L 163.112727 229.453593 
L 171.229091 229.956135 
L 179.345455 221.819794 
L 187.461818 228.582546 
L 195.578182 229.410865 
L 203.694545 229.794139 
L 211.810909 230.142452 
L 219.927273 226.879316 
L 228.043636 226.703764 
L 236.16 226.695585 
L 244.276364 226.693901 
L 252.392727 226.69261 
L 260.509091 226.691486 
L 268.625455 226.690497 
L 276.741818 226.689624 
L 284.858182 226.688848 
L 292.974545 226.688155 
L 301.090909 226.687535 
L 309.207273 226.686977 
L 317.323636 226.686473 
L 325.44 226.686016 
L 333.556364 226.685602 
L 341.672727 226.685224 
L 349.789091 226.684878 
L 357.905455 226.684561 
L 366.021818 226.684271 
L 374.138182 226.684003 
L 382.254545 226.683756 
L 390.370909 226.683527 
" style="fill:none;stroke:#ff0000;stroke-linecap:square;stroke-opacity:0.1;stroke-width:1.5;"/>
   </g>
   <g id="line2d_37">
    <path clip-path="url(#pfdbeb1986b)" d="M 73.832727 218.88 
L 81.949091 222.42816 
L 90.065455 224.401078 
L 98.181818 224.2389 
L 106.298182 224.206102 
L 114.414545 223.990881 
L 122.530909 224.033066 
L 130.647273 224.390068 
L 138.763636 224.782021 
L 146.88 223.421281 
L 154.996364 224.486887 
L 163.112727 224.890551 
L 171.229091 225.214642 
L 179.345455 225.526121 
L 187.461818 222.941208 
L 195.578182 225.080522 
L 203.694545 225.464849 
L 211.810909 225.714849 
L 219.927273 225.951275 
L 228.043636 226.179058 
L 236.16 224.511739 
L 244.276364 221.850707 
L 252.392727 225.916626 
L 260.509091 222.35151 
L 268.625455 222.316393 
L 276.741818 222.429454 
L 284.858182 225.366138 
L 292.974545 222.827308 
L 301.090909 222.840306 
L 309.207273 225.063453 
L 317.323636 223.1199 
L 325.44 223.155545 
L 333.556364 223.259677 
L 341.672727 223.361971 
L 349.789091 223.460976 
L 357.905455 223.556787 
L 366.021818 223.649523 
L 374.138182 223.739296 
L 382.254545 223.826214 
L 390.370909 223.910379 
" style="fill:none;stroke:#ff0000;stroke-linecap:square;stroke-opacity:0.1;stroke-width:1.5;"/>
   </g>
   <g id="line2d_38">
    <path clip-path="url(#pfdbeb1986b)" d="M 73.832727 218.88 
L 81.949091 222.42816 
L 90.065455 224.401078 
L 98.181818 224.2389 
L 106.298182 224.49388 
L 114.414545 224.947697 
L 122.530909 225.452638 
L 130.647273 225.968649 
L 138.763636 226.481384 
L 146.88 226.98391 
L 154.996364 227.472421 
L 163.112727 222.469642 
L 171.229091 226.559375 
L 179.345455 227.222033 
L 187.461818 227.59729 
L 195.578182 227.945773 
L 203.694545 228.280126 
L 211.810909 228.600981 
L 219.927273 228.908606 
L 228.043636 229.203333 
L 236.16 226.11986 
L 244.276364 225.97151 
L 252.392727 225.965417 
L 260.509091 225.964191 
L 268.625455 225.963228 
L 276.741818 225.96238 
L 284.858182 225.961626 
L 292.974545 225.960954 
L 301.090909 225.960352 
L 309.207273 225.95981 
L 317.323636 225.95932 
L 325.44 225.958877 
L 333.556364 225.958474 
L 341.672727 225.958107 
L 349.789091 225.957772 
L 357.905455 225.957464 
L 366.021818 225.957182 
L 374.138182 225.956922 
L 382.254545 225.956681 
L 390.370909 225.956459 
" style="fill:none;stroke:#ff0000;stroke-linecap:square;stroke-opacity:0.1;stroke-width:1.5;"/>
   </g>
   <g id="line2d_39">
    <path clip-path="url(#pfdbeb1986b)" d="M 73.832727 218.88 
L 81.949091 222.42816 
L 90.065455 224.401078 
L 98.181818 224.976197 
L 106.298182 225.479131 
L 114.414545 226.044925 
L 122.530909 226.63777 
L 130.647273 227.232156 
L 138.763636 227.815707 
L 146.88 228.382292 
L 154.996364 228.928771 
L 163.112727 229.453593 
L 171.229091 229.956135 
L 179.345455 230.436346 
L 187.461818 230.894542 
L 195.578182 231.331274 
L 203.694545 221.168439 
L 211.810909 229.818883 
L 219.927273 227.066723 
L 228.043636 226.908522 
L 236.16 226.900739 
L 244.276364 226.899026 
L 252.392727 226.897703 
L 260.509091 226.896551 
L 268.625455 226.895538 
L 276.741818 226.894643 
L 284.858182 226.893848 
L 292.974545 226.893138 
L 301.090909 226.892502 
L 309.207273 226.891931 
L 317.323636 226.891414 
L 325.44 226.890947 
L 333.556364 226.890522 
L 341.672727 226.890134 
L 349.789091 226.88978 
L 357.905455 226.889456 
L 366.021818 226.889158 
L 374.138182 226.888884 
L 382.254545 226.88863 
L 390.370909 226.888396 
" style="fill:none;stroke:#ff0000;stroke-linecap:square;stroke-opacity:0.1;stroke-width:1.5;"/>
   </g>
   <g id="line2d_40">
    <path clip-path="url(#pfdbeb1986b)" d="M 73.832727 218.88 
L 81.949091 222.42816 
L 90.065455 224.401078 
L 98.181818 224.976197 
L 106.298182 223.839354 
L 114.414545 223.952132 
L 122.530909 224.33737 
L 130.647273 224.762987 
L 138.763636 225.194037 
L 146.88 225.621488 
L 154.996364 226.040903 
L 163.112727 226.449623 
L 171.229091 226.846014 
L 179.345455 227.229102 
L 187.461818 227.59836 
L 195.578182 227.953574 
L 203.694545 228.294751 
L 211.810909 228.622059 
L 219.927273 228.935778 
L 228.043636 229.236267 
L 236.16 225.986889 
L 244.276364 225.832014 
L 252.392727 225.825751 
L 260.509091 225.824526 
L 268.625455 225.823569 
L 276.741818 225.822725 
L 284.858182 225.821976 
L 292.974545 225.821308 
L 301.090909 225.820708 
L 309.207273 225.82017 
L 317.323636 225.819683 
L 325.44 225.819242 
L 333.556364 225.818842 
L 341.672727 225.818477 
L 349.789091 225.818143 
L 357.905455 225.817837 
L 366.021818 225.817556 
L 374.138182 225.817298 
L 382.254545 225.817059 
L 390.370909 225.816838 
" style="fill:none;stroke:#ff0000;stroke-linecap:square;stroke-opacity:0.1;stroke-width:1.5;"/>
   </g>
   <g id="line2d_41">
    <path clip-path="url(#pfdbeb1986b)" d="M 73.832727 218.88 
L 81.949091 222.42816 
L 90.065455 224.401078 
L 98.181818 224.2389 
L 106.298182 224.49388 
L 114.414545 223.804641 
L 122.530909 224.036843 
L 130.647273 224.416084 
L 138.763636 223.66413 
L 146.88 224.237334 
L 154.996364 224.608122 
L 163.112727 224.941591 
L 171.229091 225.265616 
L 179.345455 225.580843 
L 187.461818 225.886541 
L 195.578182 226.182214 
L 203.694545 226.467597 
L 211.810909 226.742598 
L 219.927273 227.007252 
L 228.043636 227.261691 
L 236.16 224.940393 
L 244.276364 224.825068 
L 252.392727 224.820203 
L 260.509091 224.819054 
L 268.625455 224.818128 
L 276.741818 224.817312 
L 284.858182 224.816587 
L 292.974545 224.81594 
L 301.090909 224.81536 
L 309.207273 224.814839 
L 317.323636 224.814368 
L 325.44 224.813941 
L 333.556364 224.813553 
L 341.672727 224.8132 
L 349.789091 224.812877 
L 357.905455 224.812581 
L 366.021818 224.812309 
L 374.138182 224.812059 
L 382.254545 224.811828 
L 390.370909 224.811614 
" style="fill:none;stroke:#ff0000;stroke-linecap:square;stroke-opacity:0.1;stroke-width:1.5;"/>
   </g>
   <g id="line2d_42">
    <path clip-path="url(#pfdbeb1986b)" d="M 73.832727 218.88 
L 81.949091 222.42816 
L 90.065455 224.401078 
L 98.181818 224.976197 
L 106.298182 225.479131 
L 114.414545 226.044925 
L 122.530909 226.63777 
L 130.647273 223.076468 
L 138.763636 225.789329 
L 146.88 226.506777 
L 154.996364 226.970944 
L 163.112727 227.405646 
L 171.229091 227.824605 
L 179.345455 228.227851 
L 187.461818 228.615107 
L 195.578182 228.986363 
L 203.694545 229.341821 
L 211.810909 229.681824 
L 219.927273 226.397305 
L 228.043636 226.22371 
L 236.16 226.215831 
L 244.276364 226.214206 
L 252.392727 226.212955 
L 260.509091 226.211866 
L 268.625455 226.210909 
L 276.741818 226.210062 
L 284.858182 226.20931 
L 292.974545 226.208639 
L 301.090909 226.208038 
L 309.207273 226.207497 
L 317.323636 226.207008 
L 325.44 226.206566 
L 333.556364 226.206164 
L 341.672727 226.205797 
L 349.789091 226.205462 
L 357.905455 226.205155 
L 366.021818 226.204874 
L 374.138182 226.204614 
L 382.254545 226.204374 
L 390.370909 226.204153 
" style="fill:none;stroke:#ff0000;stroke-linecap:square;stroke-opacity:0.1;stroke-width:1.5;"/>
   </g>
   <g id="line2d_43">
    <path clip-path="url(#pfdbeb1986b)" d="M 73.832727 218.88 
L 81.949091 222.42816 
L 90.065455 224.401078 
L 98.181818 224.2389 
L 106.298182 224.49388 
L 114.414545 223.804641 
L 122.530909 224.036843 
L 130.647273 224.416084 
L 138.763636 224.812095 
L 146.88 223.42832 
L 154.996364 224.510478 
L 163.112727 224.918699 
L 171.229091 223.340775 
L 179.345455 223.450157 
L 187.461818 224.382746 
L 195.578182 224.685275 
L 203.694545 223.466012 
L 211.810909 224.482552 
L 219.927273 224.748288 
L 228.043636 224.955374 
L 236.16 224.073871 
L 244.276364 225.152031 
L 252.392727 223.023144 
L 260.509091 223.070154 
L 268.625455 223.214268 
L 276.741818 223.356423 
L 284.858182 223.493954 
L 292.974545 224.374763 
L 301.090909 223.610694 
L 309.207273 223.700431 
L 317.323636 223.820543 
L 325.44 223.937515 
L 333.556364 224.050686 
L 341.672727 224.160168 
L 349.789091 224.266086 
L 357.905455 224.368559 
L 366.021818 224.467704 
L 374.138182 224.563635 
L 382.254545 223.43915 
L 390.370909 224.459694 
" style="fill:none;stroke:#ff0000;stroke-linecap:square;stroke-opacity:0.1;stroke-width:1.5;"/>
   </g>
   <g id="line2d_44">
    <path clip-path="url(#pfdbeb1986b)" d="M 73.832727 218.88 
L 81.949091 222.42816 
L 90.065455 224.401078 
L 98.181818 224.976197 
L 106.298182 225.479131 
L 114.414545 226.044925 
L 122.530909 226.63777 
L 130.647273 223.076468 
L 138.763636 225.789329 
L 146.88 226.506777 
L 154.996364 223.173774 
L 163.112727 225.842915 
L 171.229091 226.408459 
L 179.345455 223.300012 
L 187.461818 225.852219 
L 195.578182 223.601279 
L 203.694545 223.682877 
L 211.810909 225.387114 
L 219.927273 225.710179 
L 228.043636 223.837312 
L 236.16 224.599312 
L 244.276364 224.114671 
L 252.392727 224.279797 
L 260.509091 224.993738 
L 268.625455 224.411034 
L 276.741818 224.554679 
L 284.858182 224.729494 
L 292.974545 224.646414 
L 301.090909 224.744968 
L 309.207273 224.894872 
L 317.323636 225.046436 
L 325.44 225.193282 
L 333.556364 224.27746 
L 341.672727 225.113116 
L 349.789091 225.262742 
L 357.905455 225.38924 
L 366.021818 225.511324 
L 374.138182 225.629489 
L 382.254545 225.743872 
L 390.370909 223.819209 
" style="fill:none;stroke:#ff0000;stroke-linecap:square;stroke-opacity:0.1;stroke-width:1.5;"/>
   </g>
   <g id="line2d_45">
    <path clip-path="url(#pfdbeb1986b)" d="M 73.832727 218.88 
L 81.949091 222.42816 
L 90.065455 224.401078 
L 98.181818 224.2389 
L 106.298182 224.206102 
L 114.414545 224.578835 
L 122.530909 225.033532 
L 130.647273 225.50507 
L 138.763636 225.976396 
L 146.88 226.440098 
L 154.996364 226.892124 
L 163.112727 227.330134 
L 171.229091 227.752801 
L 179.345455 228.159437 
L 187.461818 221.978059 
L 195.578182 227.145639 
L 203.694545 227.785035 
L 211.810909 228.100484 
L 219.927273 228.390798 
L 228.043636 228.668692 
L 236.16 225.886976 
L 244.276364 225.749442 
L 252.392727 225.743666 
L 260.509091 225.742449 
L 268.625455 225.741487 
L 276.741818 225.74064 
L 284.858182 225.739887 
L 292.974545 225.739215 
L 301.090909 225.738613 
L 309.207273 225.738072 
L 317.323636 225.737583 
L 325.44 225.73714 
L 333.556364 225.736738 
L 341.672727 225.736371 
L 349.789091 225.736036 
L 357.905455 225.735729 
L 366.021818 225.735446 
L 374.138182 225.735187 
L 382.254545 225.734947 
L 390.370909 225.734725 
" style="fill:none;stroke:#ff0000;stroke-linecap:square;stroke-opacity:0.1;stroke-width:1.5;"/>
   </g>
   <g id="line2d_46">
    <path clip-path="url(#pfdbeb1986b)" d="M 73.832727 218.88 
L 81.949091 222.42816 
L 90.065455 224.401078 
L 98.181818 224.976197 
L 106.298182 223.839354 
L 114.414545 223.952132 
L 122.530909 224.072013 
L 130.647273 223.973455 
L 138.763636 224.014169 
L 146.88 224.336083 
L 154.996364 224.676584 
L 163.112727 225.012627 
L 171.229091 225.341119 
L 179.345455 225.660727 
L 187.461818 225.970627 
L 195.578182 226.270321 
L 203.694545 222.529135 
L 211.810909 225.685797 
L 219.927273 226.106326 
L 228.043636 226.346001 
L 236.16 224.622062 
L 244.276364 221.872725 
L 252.392727 221.855639 
L 260.509091 221.956647 
L 268.625455 225.761937 
L 276.741818 222.477814 
L 284.858182 225.528983 
L 292.974545 222.75169 
L 301.090909 222.751924 
L 309.207273 222.855555 
L 317.323636 222.958143 
L 325.44 223.05728 
L 333.556364 223.153065 
L 341.672727 223.245637 
L 349.789091 223.335126 
L 357.905455 223.421654 
L 366.021818 223.505335 
L 374.138182 223.58628 
L 382.254545 223.664592 
L 390.370909 224.281657 
" style="fill:none;stroke:#ff0000;stroke-linecap:square;stroke-opacity:0.1;stroke-width:1.5;"/>
   </g>
   <g id="line2d_47">
    <path clip-path="url(#pfdbeb1986b)" d="M 73.832727 218.88 
L 81.949091 222.42816 
L 90.065455 224.401078 
L 98.181818 224.976197 
L 106.298182 225.479131 
L 114.414545 226.044925 
L 122.530909 223.292361 
L 130.647273 225.321063 
L 138.763636 225.991942 
L 146.88 226.464206 
L 154.996364 223.057237 
L 163.112727 225.773421 
L 171.229091 226.341191 
L 179.345455 226.698258 
L 187.461818 227.033108 
L 195.578182 222.783417 
L 203.694545 226.335745 
L 211.810909 223.189827 
L 219.927273 226.044951 
L 228.043636 226.42961 
L 236.16 225.012772 
L 244.276364 226.613126 
L 252.392727 223.09696 
L 260.509091 223.098937 
L 268.625455 226.031197 
L 276.741818 226.328235 
L 284.858182 225.008116 
L 292.974545 224.951942 
L 301.090909 224.949873 
L 309.207273 224.949306 
L 317.323636 224.948823 
L 325.44 224.948386 
L 333.556364 224.947989 
L 341.672727 224.947628 
L 349.789091 224.947297 
L 357.905455 224.946994 
L 366.021818 224.946716 
L 374.138182 224.94646 
L 382.254545 224.946223 
L 390.370909 224.946004 
" style="fill:none;stroke:#ff0000;stroke-linecap:square;stroke-opacity:0.1;stroke-width:1.5;"/>
   </g>
   <g id="line2d_48">
    <path clip-path="url(#pfdbeb1986b)" d="M 73.832727 218.88 
L 81.949091 222.42816 
L 90.065455 224.401078 
L 98.181818 224.976197 
L 106.298182 225.479131 
L 114.414545 223.534531 
L 122.530909 224.876939 
L 130.647273 225.482695 
L 138.763636 225.958351 
L 146.88 226.416318 
L 154.996364 226.862453 
L 163.112727 227.29497 
L 171.229091 227.712518 
L 179.345455 228.114373 
L 187.461818 222.128652 
L 195.578182 227.126554 
L 203.694545 227.752876 
L 211.810909 228.065055 
L 219.927273 228.352637 
L 228.043636 228.627955 
L 236.16 225.911322 
L 244.276364 225.776752 
L 252.392727 225.771078 
L 260.509091 225.769866 
L 268.625455 225.768906 
L 276.741818 225.768061 
L 284.858182 225.767309 
L 292.974545 225.766639 
L 301.090909 225.766038 
L 309.207273 225.765498 
L 317.323636 225.76501 
L 325.44 225.764568 
L 333.556364 225.764167 
L 341.672727 225.763801 
L 349.789091 225.763466 
L 357.905455 225.763159 
L 366.021818 225.762878 
L 374.138182 225.762618 
L 382.254545 225.762379 
L 390.370909 225.762158 
" style="fill:none;stroke:#ff0000;stroke-linecap:square;stroke-opacity:0.1;stroke-width:1.5;"/>
   </g>
   <g id="line2d_49">
    <path clip-path="url(#pfdbeb1986b)" d="M 73.832727 218.88 
L 81.949091 222.42816 
L 90.065455 224.401078 
L 98.181818 224.976197 
L 106.298182 225.479131 
L 114.414545 223.534531 
L 122.530909 224.876939 
L 130.647273 225.482695 
L 138.763636 223.380935 
L 146.88 225.007602 
L 154.996364 225.520746 
L 163.112727 225.896072 
L 171.229091 226.253441 
L 179.345455 226.599231 
L 187.461818 226.933141 
L 195.578182 227.254854 
L 203.694545 227.564267 
L 211.810909 227.861448 
L 219.927273 221.989312 
L 228.043636 227.02021 
L 236.16 225.242884 
L 244.276364 225.14764 
L 252.392727 225.143284 
L 260.509091 225.142127 
L 268.625455 225.141183 
L 276.741818 225.140351 
L 284.858182 225.139611 
L 292.974545 225.138951 
L 301.090909 225.13836 
L 309.207273 225.137828 
L 317.323636 225.137348 
L 325.44 225.136913 
L 333.556364 225.136518 
L 341.672727 225.136158 
L 349.789091 225.135828 
L 357.905455 225.135527 
L 366.021818 225.135249 
L 374.138182 225.134994 
L 382.254545 225.134758 
L 390.370909 225.134541 
" style="fill:none;stroke:#ff0000;stroke-linecap:square;stroke-opacity:0.1;stroke-width:1.5;"/>
   </g>
   <g id="line2d_50">
    <path clip-path="url(#pfdbeb1986b)" d="M 73.832727 218.88 
L 81.949091 222.42816 
L 90.065455 224.401078 
L 98.181818 224.2389 
L 106.298182 224.49388 
L 114.414545 224.947697 
L 122.530909 223.523547 
L 130.647273 223.642034 
L 138.763636 223.965883 
L 146.88 224.30677 
L 154.996364 224.646028 
L 163.112727 224.97983 
L 171.229091 223.301531 
L 179.345455 224.659994 
L 187.461818 225.024405 
L 195.578182 225.295481 
L 203.694545 223.092166 
L 211.810909 224.934302 
L 219.927273 225.259409 
L 228.043636 225.476588 
L 236.16 224.264188 
L 244.276364 222.427447 
L 252.392727 222.473519 
L 260.509091 222.60356 
L 268.625455 222.731522 
L 276.741818 222.855082 
L 284.858182 222.974376 
L 292.974545 223.089584 
L 301.090909 223.20087 
L 309.207273 223.308386 
L 317.323636 223.412273 
L 325.44 223.512665 
L 333.556364 223.60969 
L 341.672727 223.703471 
L 349.789091 223.794124 
L 357.905455 223.881761 
L 366.021818 223.966493 
L 374.138182 224.048423 
L 382.254545 224.127653 
L 390.370909 223.5258 
" style="fill:none;stroke:#ff0000;stroke-linecap:square;stroke-opacity:0.1;stroke-width:1.5;"/>
   </g>
   <g id="line2d_51">
    <path clip-path="url(#pfdbeb1986b)" d="M 73.832727 218.88 
L 81.949091 222.42816 
L 90.065455 224.401078 
L 98.181818 224.976197 
L 106.298182 225.479131 
L 114.414545 223.534531 
L 122.530909 224.876939 
L 130.647273 225.482695 
L 138.763636 225.958351 
L 146.88 226.416318 
L 154.996364 226.862453 
L 163.112727 227.29497 
L 171.229091 227.712518 
L 179.345455 228.114373 
L 187.461818 228.500244 
L 195.578182 228.870136 
L 203.694545 229.224261 
L 211.810909 229.56297 
L 219.927273 226.256217 
L 228.043636 226.081618 
L 236.16 226.07373 
L 244.276364 226.072111 
L 252.392727 226.070864 
L 260.509091 226.069779 
L 268.625455 226.068825 
L 276.741818 226.067981 
L 284.858182 226.067232 
L 292.974545 226.066563 
L 301.090909 226.065964 
L 309.207273 226.065425 
L 317.323636 226.064938 
L 325.44 226.064497 
L 333.556364 226.064096 
L 341.672727 226.063731 
L 349.789091 226.063397 
L 357.905455 226.063091 
L 366.021818 226.06281 
L 374.138182 226.062552 
L 382.254545 226.062313 
L 390.370909 226.062092 
" style="fill:none;stroke:#ff0000;stroke-linecap:square;stroke-opacity:0.1;stroke-width:1.5;"/>
   </g>
   <g id="line2d_52">
    <path clip-path="url(#pfdbeb1986b)" d="M 73.832727 218.88 
L 81.949091 222.42816 
L 90.065455 224.401078 
L 98.181818 224.2389 
L 106.298182 224.49388 
L 114.414545 224.947697 
L 122.530909 223.523547 
L 130.647273 224.593021 
L 138.763636 223.576215 
L 146.88 224.458517 
L 154.996364 224.864305 
L 163.112727 225.215764 
L 171.229091 225.55611 
L 179.345455 225.886791 
L 187.461818 222.847398 
L 195.578182 225.386114 
L 203.694545 225.802178 
L 211.810909 226.066518 
L 219.927273 226.316073 
L 228.043636 222.61515 
L 236.16 224.315749 
L 244.276364 222.528958 
L 252.392727 222.580348 
L 260.509091 222.713292 
L 268.625455 222.844058 
L 276.741818 222.97037 
L 284.858182 223.092363 
L 292.974545 223.210213 
L 301.090909 223.324082 
L 309.207273 223.434121 
L 317.323636 223.540471 
L 325.44 223.643264 
L 333.556364 223.742628 
L 341.672727 223.838684 
L 349.789091 223.931552 
L 357.905455 224.021343 
L 366.021818 224.108167 
L 374.138182 224.192129 
L 382.254545 224.273333 
L 390.370909 224.351878 
" style="fill:none;stroke:#ff0000;stroke-linecap:square;stroke-opacity:0.1;stroke-width:1.5;"/>
   </g>
   <g id="line2d_53">
    <path clip-path="url(#pfdbeb1986b)" d="M 73.832727 218.88 
L 81.949091 222.42816 
L 90.065455 224.401078 
L 98.181818 224.2389 
L 106.298182 224.49388 
L 114.414545 224.947697 
L 122.530909 223.523547 
L 130.647273 224.593021 
L 138.763636 223.576215 
L 146.88 223.756389 
L 154.996364 224.061988 
L 163.112727 224.37182 
L 171.229091 223.714161 
L 179.345455 224.248931 
L 187.461818 223.767865 
L 195.578182 224.188196 
L 203.694545 224.43803 
L 211.810909 223.638053 
L 219.927273 224.3086 
L 228.043636 223.706777 
L 236.16 223.885883 
L 244.276364 223.606416 
L 252.392727 223.756271 
L 260.509091 223.923769 
L 268.625455 223.977518 
L 276.741818 223.945691 
L 284.858182 224.084668 
L 292.974545 224.228904 
L 301.090909 224.36867 
L 309.207273 224.503833 
L 317.323636 223.500821 
L 325.44 223.574787 
L 333.556364 224.297082 
L 341.672727 224.430123 
L 349.789091 224.541582 
L 357.905455 224.649077 
L 366.021818 223.3676 
L 374.138182 224.530921 
L 382.254545 224.657091 
L 390.370909 224.749926 
" style="fill:none;stroke:#ff0000;stroke-linecap:square;stroke-opacity:0.1;stroke-width:1.5;"/>
   </g>
   <g id="line2d_54">
    <path clip-path="url(#pfdbeb1986b)" d="M 73.832727 218.88 
L 81.949091 222.42816 
L 90.065455 224.401078 
L 98.181818 224.976197 
L 106.298182 225.479131 
L 114.414545 226.044925 
L 122.530909 226.63777 
L 130.647273 227.232156 
L 138.763636 222.86958 
L 146.88 226.267532 
L 154.996364 227.019128 
L 163.112727 227.472373 
L 171.229091 227.893434 
L 179.345455 228.29797 
L 187.461818 228.686454 
L 195.578182 229.0589 
L 203.694545 229.415508 
L 211.810909 229.756618 
L 219.927273 226.478539 
L 228.043636 226.305043 
L 236.16 226.297144 
L 244.276364 226.295514 
L 252.392727 226.294259 
L 260.509091 226.293166 
L 268.625455 226.292206 
L 276.741818 226.291356 
L 284.858182 226.290602 
L 292.974545 226.289929 
L 301.090909 226.289326 
L 309.207273 226.288783 
L 317.323636 226.288293 
L 325.44 226.287849 
L 333.556364 226.287446 
L 341.672727 226.287078 
L 349.789091 226.286742 
L 357.905455 226.286434 
L 366.021818 226.286152 
L 374.138182 226.285891 
L 382.254545 226.285651 
L 390.370909 226.285428 
" style="fill:none;stroke:#ff0000;stroke-linecap:square;stroke-opacity:0.1;stroke-width:1.5;"/>
   </g>
   <g id="line2d_55">
    <path clip-path="url(#pfdbeb1986b)" d="M 73.832727 218.88 
L 81.949091 222.42816 
L 90.065455 224.401078 
L 98.181818 224.976197 
L 106.298182 225.479131 
L 114.414545 226.044925 
L 122.530909 223.292361 
L 130.647273 223.21741 
L 138.763636 224.889574 
L 146.88 223.603879 
L 154.996364 224.746063 
L 163.112727 225.167859 
L 171.229091 225.505663 
L 179.345455 225.830153 
L 187.461818 226.144586 
L 195.578182 226.448637 
L 203.694545 222.740729 
L 211.810909 225.868292 
L 219.927273 226.289976 
L 228.043636 222.926982 
L 236.16 224.454968 
L 244.276364 222.84029 
L 252.392727 225.65242 
L 260.509091 223.203926 
L 268.625455 223.245595 
L 276.741818 225.298179 
L 284.858182 223.550046 
L 292.974545 225.156807 
L 301.090909 223.711155 
L 309.207273 225.037067 
L 317.323636 223.843883 
L 325.44 223.929147 
L 333.556364 224.060214 
L 341.672727 224.188295 
L 349.789091 224.312408 
L 357.905455 224.432663 
L 366.021818 224.549186 
L 374.138182 224.662099 
L 382.254545 224.771519 
L 390.370909 224.877562 
" style="fill:none;stroke:#ff0000;stroke-linecap:square;stroke-opacity:0.1;stroke-width:1.5;"/>
   </g>
   <g id="line2d_56">
    <path clip-path="url(#pfdbeb1986b)" d="M 73.832727 218.88 
L 81.949091 195.81696 
L 90.065455 191.350012 
L 98.181818 190.65489 
L 106.298182 189.774452 
L 114.414545 189.880114 
L 122.530909 189.794734 
L 130.647273 189.252996 
L 138.763636 188.696354 
L 146.88 187.318528 
L 154.996364 186.792512 
L 163.112727 185.525199 
L 171.229091 184.597656 
L 179.345455 185.122834 
L 187.461818 185.780555 
L 195.578182 183.509817 
L 203.694545 185.661091 
L 211.810909 182.372606 
L 219.927273 184.59067 
L 228.043636 185.114332 
L 236.16 188.090796 
L 244.276364 189.841574 
L 252.392727 189.511755 
L 260.509091 190.374657 
L 268.625455 189.137932 
L 276.741818 189.197999 
L 284.858182 188.542565 
L 292.974545 188.96826 
L 301.090909 189.350997 
L 309.207273 188.500712 
L 317.323636 189.209139 
L 325.44 189.044126 
L 333.556364 188.931136 
L 341.672727 188.656669 
L 349.789091 188.491723 
L 357.905455 188.334228 
L 366.021818 188.435667 
L 374.138182 188.090002 
L 382.254545 188.177088 
L 390.370909 188.313491 
" style="fill:none;stroke:#1f77b4;stroke-linecap:square;stroke-width:1.5;"/>
   </g>
   <g id="line2d_57">
    <path clip-path="url(#pfdbeb1986b)" d="M 73.832727 218.88 
L 81.949091 222.42816 
L 90.065455 224.401078 
L 98.181818 224.681278 
L 106.298182 224.892275 
L 114.414545 224.839606 
L 122.530909 224.798867 
L 130.647273 224.954822 
L 138.763636 225.115068 
L 146.88 225.547209 
L 154.996364 225.716509 
L 163.112727 226.081785 
L 171.229091 226.422812 
L 179.345455 226.253125 
L 187.461818 226.068255 
L 195.578182 226.750269 
L 203.694545 226.132027 
L 211.810909 227.096134 
L 219.927273 226.369878 
L 228.043636 226.235683 
L 236.16 225.300595 
L 244.276364 224.824178 
L 252.392727 224.903626 
L 260.509091 224.66703 
L 268.625455 224.9974 
L 276.741818 224.981053 
L 284.858182 225.161249 
L 292.974545 225.031353 
L 301.090909 224.944267 
L 309.207273 225.156193 
L 317.323636 224.978137 
L 325.44 225.015921 
L 333.556364 225.038031 
L 341.672727 225.117359 
L 349.789091 225.160314 
L 357.905455 225.200954 
L 366.021818 225.170997 
L 374.138182 225.262188 
L 382.254545 225.239601 
L 390.370909 225.213102 
" style="fill:none;stroke:#ff0000;stroke-linecap:square;stroke-width:1.5;"/>
   </g>
   <g id="patch_5">
    <path d="M 57.6 307.584 
L 57.6 41.472 
" style="fill:none;stroke:#000000;stroke-linecap:square;stroke-linejoin:miter;stroke-width:0.8;"/>
   </g>
   <g id="patch_6">
    <path d="M 414.72 307.584 
L 414.72 41.472 
" style="fill:none;stroke:#000000;stroke-linecap:square;stroke-linejoin:miter;stroke-width:0.8;"/>
   </g>
   <g id="patch_7">
    <path d="M 57.6 307.584 
L 414.72 307.584 
" style="fill:none;stroke:#000000;stroke-linecap:square;stroke-linejoin:miter;stroke-width:0.8;"/>
   </g>
   <g id="patch_8">
    <path d="M 57.6 41.472 
L 414.72 41.472 
" style="fill:none;stroke:#000000;stroke-linecap:square;stroke-linejoin:miter;stroke-width:0.8;"/>
   </g>
   <g id="text_18">
    <!-- biased_A -->
    <g transform="translate(209.27625 35.472)scale(0.12 -0.12)">
     <defs>
      <path d="M 3116 1747 
Q 3116 2381 2855 2742 
Q 2594 3103 2138 3103 
Q 1681 3103 1420 2742 
Q 1159 2381 1159 1747 
Q 1159 1113 1420 752 
Q 1681 391 2138 391 
Q 2594 391 2855 752 
Q 3116 1113 3116 1747 
z
M 1159 2969 
Q 1341 3281 1617 3432 
Q 1894 3584 2278 3584 
Q 2916 3584 3314 3078 
Q 3713 2572 3713 1747 
Q 3713 922 3314 415 
Q 2916 -91 2278 -91 
Q 1894 -91 1617 61 
Q 1341 213 1159 525 
L 1159 0 
L 581 0 
L 581 4863 
L 1159 4863 
L 1159 2969 
z
" id="DejaVuSans-62" transform="scale(0.015625)"/>
      <path d="M 603 3500 
L 1178 3500 
L 1178 0 
L 603 0 
L 603 3500 
z
M 603 4863 
L 1178 4863 
L 1178 4134 
L 603 4134 
L 603 4863 
z
" id="DejaVuSans-69" transform="scale(0.015625)"/>
      <path d="M 2194 1759 
Q 1497 1759 1228 1600 
Q 959 1441 959 1056 
Q 959 750 1161 570 
Q 1363 391 1709 391 
Q 2188 391 2477 730 
Q 2766 1069 2766 1631 
L 2766 1759 
L 2194 1759 
z
M 3341 1997 
L 3341 0 
L 2766 0 
L 2766 531 
Q 2569 213 2275 61 
Q 1981 -91 1556 -91 
Q 1019 -91 701 211 
Q 384 513 384 1019 
Q 384 1609 779 1909 
Q 1175 2209 1959 2209 
L 2766 2209 
L 2766 2266 
Q 2766 2663 2505 2880 
Q 2244 3097 1772 3097 
Q 1472 3097 1187 3025 
Q 903 2953 641 2809 
L 641 3341 
Q 956 3463 1253 3523 
Q 1550 3584 1831 3584 
Q 2591 3584 2966 3190 
Q 3341 2797 3341 1997 
z
" id="DejaVuSans-61" transform="scale(0.015625)"/>
      <path d="M 2834 3397 
L 2834 2853 
Q 2591 2978 2328 3040 
Q 2066 3103 1784 3103 
Q 1356 3103 1142 2972 
Q 928 2841 928 2578 
Q 928 2378 1081 2264 
Q 1234 2150 1697 2047 
L 1894 2003 
Q 2506 1872 2764 1633 
Q 3022 1394 3022 966 
Q 3022 478 2636 193 
Q 2250 -91 1575 -91 
Q 1294 -91 989 -36 
Q 684 19 347 128 
L 347 722 
Q 666 556 975 473 
Q 1284 391 1588 391 
Q 1994 391 2212 530 
Q 2431 669 2431 922 
Q 2431 1156 2273 1281 
Q 2116 1406 1581 1522 
L 1381 1569 
Q 847 1681 609 1914 
Q 372 2147 372 2553 
Q 372 3047 722 3315 
Q 1072 3584 1716 3584 
Q 2034 3584 2315 3537 
Q 2597 3491 2834 3397 
z
" id="DejaVuSans-73" transform="scale(0.015625)"/>
      <path d="M 2906 2969 
L 2906 4863 
L 3481 4863 
L 3481 0 
L 2906 0 
L 2906 525 
Q 2725 213 2448 61 
Q 2172 -91 1784 -91 
Q 1150 -91 751 415 
Q 353 922 353 1747 
Q 353 2572 751 3078 
Q 1150 3584 1784 3584 
Q 2172 3584 2448 3432 
Q 2725 3281 2906 2969 
z
M 947 1747 
Q 947 1113 1208 752 
Q 1469 391 1925 391 
Q 2381 391 2643 752 
Q 2906 1113 2906 1747 
Q 2906 2381 2643 2742 
Q 2381 3103 1925 3103 
Q 1469 3103 1208 2742 
Q 947 2381 947 1747 
z
" id="DejaVuSans-64" transform="scale(0.015625)"/>
      <path d="M 3263 -1063 
L 3263 -1509 
L -63 -1509 
L -63 -1063 
L 3263 -1063 
z
" id="DejaVuSans-5f" transform="scale(0.015625)"/>
      <path d="M 2188 4044 
L 1331 1722 
L 3047 1722 
L 2188 4044 
z
M 1831 4666 
L 2547 4666 
L 4325 0 
L 3669 0 
L 3244 1197 
L 1141 1197 
L 716 0 
L 50 0 
L 1831 4666 
z
" id="DejaVuSans-41" transform="scale(0.015625)"/>
     </defs>
     <use xlink:href="#DejaVuSans-62"/>
     <use x="63.476562" xlink:href="#DejaVuSans-69"/>
     <use x="91.259766" xlink:href="#DejaVuSans-61"/>
     <use x="152.539062" xlink:href="#DejaVuSans-73"/>
     <use x="204.638672" xlink:href="#DejaVuSans-65"/>
     <use x="266.162109" xlink:href="#DejaVuSans-64"/>
     <use x="329.638672" xlink:href="#DejaVuSans-5f"/>
     <use x="379.638672" xlink:href="#DejaVuSans-41"/>
    </g>
   </g>
   <g id="legend_1">
    <g id="patch_9">
     <path d="M 351.635625 78.82825 
L 407.72 78.82825 
Q 409.72 78.82825 409.72 76.82825 
L 409.72 48.472 
Q 409.72 46.472 407.72 46.472 
L 351.635625 46.472 
Q 349.635625 46.472 349.635625 48.472 
L 349.635625 76.82825 
Q 349.635625 78.82825 351.635625 78.82825 
z
" style="fill:#ffffff;opacity:0.8;stroke:#cccccc;stroke-linejoin:miter;"/>
    </g>
    <g id="line2d_58">
     <path d="M 353.635625 54.570437 
L 373.635625 54.570437 
" style="fill:none;stroke:#1f77b4;stroke-linecap:square;stroke-width:1.5;"/>
    </g>
    <g id="line2d_59"/>
    <g id="text_19">
     <!-- coop -->
     <g transform="translate(381.635625 58.070437)scale(0.1 -0.1)">
      <use xlink:href="#DejaVuSans-63"/>
      <use x="54.980469" xlink:href="#DejaVuSans-6f"/>
      <use x="116.162109" xlink:href="#DejaVuSans-6f"/>
      <use x="177.34375" xlink:href="#DejaVuSans-70"/>
     </g>
    </g>
    <g id="line2d_60">
     <path d="M 353.635625 69.248562 
L 373.635625 69.248562 
" style="fill:none;stroke:#ff0000;stroke-linecap:square;stroke-width:1.5;"/>
    </g>
    <g id="line2d_61"/>
    <g id="text_20">
     <!-- host -->
     <g transform="translate(381.635625 72.748562)scale(0.1 -0.1)">
      <defs>
       <path d="M 3513 2113 
L 3513 0 
L 2938 0 
L 2938 2094 
Q 2938 2591 2744 2837 
Q 2550 3084 2163 3084 
Q 1697 3084 1428 2787 
Q 1159 2491 1159 1978 
L 1159 0 
L 581 0 
L 581 4863 
L 1159 4863 
L 1159 2956 
Q 1366 3272 1645 3428 
Q 1925 3584 2291 3584 
Q 2894 3584 3203 3211 
Q 3513 2838 3513 2113 
z
" id="DejaVuSans-68" transform="scale(0.015625)"/>
      </defs>
      <use xlink:href="#DejaVuSans-68"/>
      <use x="63.378906" xlink:href="#DejaVuSans-6f"/>
      <use x="124.560547" xlink:href="#DejaVuSans-73"/>
      <use x="176.660156" xlink:href="#DejaVuSans-74"/>
     </g>
    </g>
   </g>
  </g>
 </g>
 <defs>
  <clipPath id="pfdbeb1986b">
   <rect height="266.112" width="357.12" x="57.6" y="41.472"/>
  </clipPath>
 </defs>
</svg>
