<?xml version="1.0" encoding="utf-8" standalone="no"?>
<!DOCTYPE svg PUBLIC "-//W3C//DTD SVG 1.1//EN"
  "http://www.w3.org/Graphics/SVG/1.1/DTD/svg11.dtd">
<svg height="345.6pt" version="1.1" viewBox="0 0 460.8 345.6" width="460.8pt" xmlns="http://www.w3.org/2000/svg" xmlns:xlink="http://www.w3.org/1999/xlink">
 <metadata>
  <rdf:RDF xmlns:cc="http://creativecommons.org/ns#" xmlns:dc="http://purl.org/dc/elements/1.1/" xmlns:rdf="http://www.w3.org/1999/02/22-rdf-syntax-ns#">
   <cc:Work>
    <dc:type rdf:resource="http://purl.org/dc/dcmitype/StillImage"/>
    <dc:date>2023-10-05T17:26:00.044971</dc:date>
    <dc:format>image/svg+xml</dc:format>
    <dc:creator>
     <cc:Agent>
      <dc:title>Matplotlib v3.4.1, https://matplotlib.org/</dc:title>
     </cc:Agent>
    </dc:creator>
   </cc:Work>
  </rdf:RDF>
 </metadata>
 <defs>
  <style type="text/css">*{stroke-linecap:butt;stroke-linejoin:round;}</style>
 </defs>
 <g id="figure_1">
  <g id="patch_1">
   <path d="M 0 345.6 
L 460.8 345.6 
L 460.8 0 
L 0 0 
z
" style="fill:#ffffff;"/>
  </g>
  <g id="axes_1">
   <g id="patch_2">
    <path d="M 57.6 307.584 
L 414.72 307.584 
L 414.72 41.472 
L 57.6 41.472 
z
" style="fill:#ffffff;"/>
   </g>
   <g id="patch_3">
    <path clip-path="url(#p21ce2c33b3)" d="M 73.832727 307.584 
L 73.832727 41.472 
L 236.16 41.472 
L 236.16 307.584 
z
" style="fill:#ff7f50;opacity:0.2;"/>
   </g>
   <g id="patch_4">
    <path clip-path="url(#p21ce2c33b3)" d="M 236.16 307.584 
L 236.16 41.472 
L 398.487273 41.472 
L 398.487273 307.584 
z
" style="fill:#add8e6;opacity:0.2;"/>
   </g>
   <g id="matplotlib.axis_1">
    <g id="xtick_1">
     <g id="line2d_1">
      <defs>
       <path d="M 0 0 
L 0 3.5 
" id="md37f4d8fb7" style="stroke:#000000;stroke-width:0.8;"/>
      </defs>
      <g>
       <use style="stroke:#000000;stroke-width:0.8;" x="73.832727" xlink:href="#md37f4d8fb7" y="307.584"/>
      </g>
     </g>
     <g id="text_1">
      <!-- 0 -->
      <g transform="translate(70.651477 322.182437)scale(0.1 -0.1)">
       <defs>
        <path d="M 2034 4250 
Q 1547 4250 1301 3770 
Q 1056 3291 1056 2328 
Q 1056 1369 1301 889 
Q 1547 409 2034 409 
Q 2525 409 2770 889 
Q 3016 1369 3016 2328 
Q 3016 3291 2770 3770 
Q 2525 4250 2034 4250 
z
M 2034 4750 
Q 2819 4750 3233 4129 
Q 3647 3509 3647 2328 
Q 3647 1150 3233 529 
Q 2819 -91 2034 -91 
Q 1250 -91 836 529 
Q 422 1150 422 2328 
Q 422 3509 836 4129 
Q 1250 4750 2034 4750 
z
" id="DejaVuSans-30" transform="scale(0.015625)"/>
       </defs>
       <use xlink:href="#DejaVuSans-30"/>
      </g>
     </g>
    </g>
    <g id="xtick_2">
     <g id="line2d_2">
      <g>
       <use style="stroke:#000000;stroke-width:0.8;" x="114.414545" xlink:href="#md37f4d8fb7" y="307.584"/>
      </g>
     </g>
     <g id="text_2">
      <!-- 5 -->
      <g transform="translate(111.233295 322.182437)scale(0.1 -0.1)">
       <defs>
        <path d="M 691 4666 
L 3169 4666 
L 3169 4134 
L 1269 4134 
L 1269 2991 
Q 1406 3038 1543 3061 
Q 1681 3084 1819 3084 
Q 2600 3084 3056 2656 
Q 3513 2228 3513 1497 
Q 3513 744 3044 326 
Q 2575 -91 1722 -91 
Q 1428 -91 1123 -41 
Q 819 9 494 109 
L 494 744 
Q 775 591 1075 516 
Q 1375 441 1709 441 
Q 2250 441 2565 725 
Q 2881 1009 2881 1497 
Q 2881 1984 2565 2268 
Q 2250 2553 1709 2553 
Q 1456 2553 1204 2497 
Q 953 2441 691 2322 
L 691 4666 
z
" id="DejaVuSans-35" transform="scale(0.015625)"/>
       </defs>
       <use xlink:href="#DejaVuSans-35"/>
      </g>
     </g>
    </g>
    <g id="xtick_3">
     <g id="line2d_3">
      <g>
       <use style="stroke:#000000;stroke-width:0.8;" x="154.996364" xlink:href="#md37f4d8fb7" y="307.584"/>
      </g>
     </g>
     <g id="text_3">
      <!-- 10 -->
      <g transform="translate(148.633864 322.182437)scale(0.1 -0.1)">
       <defs>
        <path d="M 794 531 
L 1825 531 
L 1825 4091 
L 703 3866 
L 703 4441 
L 1819 4666 
L 2450 4666 
L 2450 531 
L 3481 531 
L 3481 0 
L 794 0 
L 794 531 
z
" id="DejaVuSans-31" transform="scale(0.015625)"/>
       </defs>
       <use xlink:href="#DejaVuSans-31"/>
       <use x="63.623047" xlink:href="#DejaVuSans-30"/>
      </g>
     </g>
    </g>
    <g id="xtick_4">
     <g id="line2d_4">
      <g>
       <use style="stroke:#000000;stroke-width:0.8;" x="195.578182" xlink:href="#md37f4d8fb7" y="307.584"/>
      </g>
     </g>
     <g id="text_4">
      <!-- 15 -->
      <g transform="translate(189.215682 322.182437)scale(0.1 -0.1)">
       <use xlink:href="#DejaVuSans-31"/>
       <use x="63.623047" xlink:href="#DejaVuSans-35"/>
      </g>
     </g>
    </g>
    <g id="xtick_5">
     <g id="line2d_5">
      <g>
       <use style="stroke:#000000;stroke-width:0.8;" x="236.16" xlink:href="#md37f4d8fb7" y="307.584"/>
      </g>
     </g>
     <g id="text_5">
      <!-- 20 -->
      <g transform="translate(229.7975 322.182437)scale(0.1 -0.1)">
       <defs>
        <path d="M 1228 531 
L 3431 531 
L 3431 0 
L 469 0 
L 469 531 
Q 828 903 1448 1529 
Q 2069 2156 2228 2338 
Q 2531 2678 2651 2914 
Q 2772 3150 2772 3378 
Q 2772 3750 2511 3984 
Q 2250 4219 1831 4219 
Q 1534 4219 1204 4116 
Q 875 4013 500 3803 
L 500 4441 
Q 881 4594 1212 4672 
Q 1544 4750 1819 4750 
Q 2544 4750 2975 4387 
Q 3406 4025 3406 3419 
Q 3406 3131 3298 2873 
Q 3191 2616 2906 2266 
Q 2828 2175 2409 1742 
Q 1991 1309 1228 531 
z
" id="DejaVuSans-32" transform="scale(0.015625)"/>
       </defs>
       <use xlink:href="#DejaVuSans-32"/>
       <use x="63.623047" xlink:href="#DejaVuSans-30"/>
      </g>
     </g>
    </g>
    <g id="xtick_6">
     <g id="line2d_6">
      <g>
       <use style="stroke:#000000;stroke-width:0.8;" x="276.741818" xlink:href="#md37f4d8fb7" y="307.584"/>
      </g>
     </g>
     <g id="text_6">
      <!-- 25 -->
      <g transform="translate(270.379318 322.182437)scale(0.1 -0.1)">
       <use xlink:href="#DejaVuSans-32"/>
       <use x="63.623047" xlink:href="#DejaVuSans-35"/>
      </g>
     </g>
    </g>
    <g id="xtick_7">
     <g id="line2d_7">
      <g>
       <use style="stroke:#000000;stroke-width:0.8;" x="317.323636" xlink:href="#md37f4d8fb7" y="307.584"/>
      </g>
     </g>
     <g id="text_7">
      <!-- 30 -->
      <g transform="translate(310.961136 322.182437)scale(0.1 -0.1)">
       <defs>
        <path d="M 2597 2516 
Q 3050 2419 3304 2112 
Q 3559 1806 3559 1356 
Q 3559 666 3084 287 
Q 2609 -91 1734 -91 
Q 1441 -91 1130 -33 
Q 819 25 488 141 
L 488 750 
Q 750 597 1062 519 
Q 1375 441 1716 441 
Q 2309 441 2620 675 
Q 2931 909 2931 1356 
Q 2931 1769 2642 2001 
Q 2353 2234 1838 2234 
L 1294 2234 
L 1294 2753 
L 1863 2753 
Q 2328 2753 2575 2939 
Q 2822 3125 2822 3475 
Q 2822 3834 2567 4026 
Q 2313 4219 1838 4219 
Q 1578 4219 1281 4162 
Q 984 4106 628 3988 
L 628 4550 
Q 988 4650 1302 4700 
Q 1616 4750 1894 4750 
Q 2613 4750 3031 4423 
Q 3450 4097 3450 3541 
Q 3450 3153 3228 2886 
Q 3006 2619 2597 2516 
z
" id="DejaVuSans-33" transform="scale(0.015625)"/>
       </defs>
       <use xlink:href="#DejaVuSans-33"/>
       <use x="63.623047" xlink:href="#DejaVuSans-30"/>
      </g>
     </g>
    </g>
    <g id="xtick_8">
     <g id="line2d_8">
      <g>
       <use style="stroke:#000000;stroke-width:0.8;" x="357.905455" xlink:href="#md37f4d8fb7" y="307.584"/>
      </g>
     </g>
     <g id="text_8">
      <!-- 35 -->
      <g transform="translate(351.542955 322.182437)scale(0.1 -0.1)">
       <use xlink:href="#DejaVuSans-33"/>
       <use x="63.623047" xlink:href="#DejaVuSans-35"/>
      </g>
     </g>
    </g>
    <g id="xtick_9">
     <g id="line2d_9">
      <g>
       <use style="stroke:#000000;stroke-width:0.8;" x="398.487273" xlink:href="#md37f4d8fb7" y="307.584"/>
      </g>
     </g>
     <g id="text_9">
      <!-- 40 -->
      <g transform="translate(392.124773 322.182437)scale(0.1 -0.1)">
       <defs>
        <path d="M 2419 4116 
L 825 1625 
L 2419 1625 
L 2419 4116 
z
M 2253 4666 
L 3047 4666 
L 3047 1625 
L 3713 1625 
L 3713 1100 
L 3047 1100 
L 3047 0 
L 2419 0 
L 2419 1100 
L 313 1100 
L 313 1709 
L 2253 4666 
z
" id="DejaVuSans-34" transform="scale(0.015625)"/>
       </defs>
       <use xlink:href="#DejaVuSans-34"/>
       <use x="63.623047" xlink:href="#DejaVuSans-30"/>
      </g>
     </g>
    </g>
    <g id="text_10">
     <!-- t -->
     <g transform="translate(234.199844 335.860562)scale(0.1 -0.1)">
      <defs>
       <path d="M 1172 4494 
L 1172 3500 
L 2356 3500 
L 2356 3053 
L 1172 3053 
L 1172 1153 
Q 1172 725 1289 603 
Q 1406 481 1766 481 
L 2356 481 
L 2356 0 
L 1766 0 
Q 1100 0 847 248 
Q 594 497 594 1153 
L 594 3053 
L 172 3053 
L 172 3500 
L 594 3500 
L 594 4494 
L 1172 4494 
z
" id="DejaVuSans-74" transform="scale(0.015625)"/>
      </defs>
      <use xlink:href="#DejaVuSans-74"/>
     </g>
    </g>
   </g>
   <g id="matplotlib.axis_2">
    <g id="ytick_1">
     <g id="line2d_10">
      <defs>
       <path d="M 0 0 
L -3.5 0 
" id="me04c601a55" style="stroke:#000000;stroke-width:0.8;"/>
      </defs>
      <g>
       <use style="stroke:#000000;stroke-width:0.8;" x="57.6" xlink:href="#me04c601a55" y="307.584"/>
      </g>
     </g>
     <g id="text_11">
      <!-- 0.0 -->
      <g transform="translate(34.696875 311.383219)scale(0.1 -0.1)">
       <defs>
        <path d="M 684 794 
L 1344 794 
L 1344 0 
L 684 0 
L 684 794 
z
" id="DejaVuSans-2e" transform="scale(0.015625)"/>
       </defs>
       <use xlink:href="#DejaVuSans-30"/>
       <use x="63.623047" xlink:href="#DejaVuSans-2e"/>
       <use x="95.410156" xlink:href="#DejaVuSans-30"/>
      </g>
     </g>
    </g>
    <g id="ytick_2">
     <g id="line2d_11">
      <g>
       <use style="stroke:#000000;stroke-width:0.8;" x="57.6" xlink:href="#me04c601a55" y="254.3616"/>
      </g>
     </g>
     <g id="text_12">
      <!-- 0.2 -->
      <g transform="translate(34.696875 258.160819)scale(0.1 -0.1)">
       <use xlink:href="#DejaVuSans-30"/>
       <use x="63.623047" xlink:href="#DejaVuSans-2e"/>
       <use x="95.410156" xlink:href="#DejaVuSans-32"/>
      </g>
     </g>
    </g>
    <g id="ytick_3">
     <g id="line2d_12">
      <g>
       <use style="stroke:#000000;stroke-width:0.8;" x="57.6" xlink:href="#me04c601a55" y="201.1392"/>
      </g>
     </g>
     <g id="text_13">
      <!-- 0.4 -->
      <g transform="translate(34.696875 204.938419)scale(0.1 -0.1)">
       <use xlink:href="#DejaVuSans-30"/>
       <use x="63.623047" xlink:href="#DejaVuSans-2e"/>
       <use x="95.410156" xlink:href="#DejaVuSans-34"/>
      </g>
     </g>
    </g>
    <g id="ytick_4">
     <g id="line2d_13">
      <g>
       <use style="stroke:#000000;stroke-width:0.8;" x="57.6" xlink:href="#me04c601a55" y="147.9168"/>
      </g>
     </g>
     <g id="text_14">
      <!-- 0.6 -->
      <g transform="translate(34.696875 151.716019)scale(0.1 -0.1)">
       <defs>
        <path d="M 2113 2584 
Q 1688 2584 1439 2293 
Q 1191 2003 1191 1497 
Q 1191 994 1439 701 
Q 1688 409 2113 409 
Q 2538 409 2786 701 
Q 3034 994 3034 1497 
Q 3034 2003 2786 2293 
Q 2538 2584 2113 2584 
z
M 3366 4563 
L 3366 3988 
Q 3128 4100 2886 4159 
Q 2644 4219 2406 4219 
Q 1781 4219 1451 3797 
Q 1122 3375 1075 2522 
Q 1259 2794 1537 2939 
Q 1816 3084 2150 3084 
Q 2853 3084 3261 2657 
Q 3669 2231 3669 1497 
Q 3669 778 3244 343 
Q 2819 -91 2113 -91 
Q 1303 -91 875 529 
Q 447 1150 447 2328 
Q 447 3434 972 4092 
Q 1497 4750 2381 4750 
Q 2619 4750 2861 4703 
Q 3103 4656 3366 4563 
z
" id="DejaVuSans-36" transform="scale(0.015625)"/>
       </defs>
       <use xlink:href="#DejaVuSans-30"/>
       <use x="63.623047" xlink:href="#DejaVuSans-2e"/>
       <use x="95.410156" xlink:href="#DejaVuSans-36"/>
      </g>
     </g>
    </g>
    <g id="ytick_5">
     <g id="line2d_14">
      <g>
       <use style="stroke:#000000;stroke-width:0.8;" x="57.6" xlink:href="#me04c601a55" y="94.6944"/>
      </g>
     </g>
     <g id="text_15">
      <!-- 0.8 -->
      <g transform="translate(34.696875 98.493619)scale(0.1 -0.1)">
       <defs>
        <path d="M 2034 2216 
Q 1584 2216 1326 1975 
Q 1069 1734 1069 1313 
Q 1069 891 1326 650 
Q 1584 409 2034 409 
Q 2484 409 2743 651 
Q 3003 894 3003 1313 
Q 3003 1734 2745 1975 
Q 2488 2216 2034 2216 
z
M 1403 2484 
Q 997 2584 770 2862 
Q 544 3141 544 3541 
Q 544 4100 942 4425 
Q 1341 4750 2034 4750 
Q 2731 4750 3128 4425 
Q 3525 4100 3525 3541 
Q 3525 3141 3298 2862 
Q 3072 2584 2669 2484 
Q 3125 2378 3379 2068 
Q 3634 1759 3634 1313 
Q 3634 634 3220 271 
Q 2806 -91 2034 -91 
Q 1263 -91 848 271 
Q 434 634 434 1313 
Q 434 1759 690 2068 
Q 947 2378 1403 2484 
z
M 1172 3481 
Q 1172 3119 1398 2916 
Q 1625 2713 2034 2713 
Q 2441 2713 2670 2916 
Q 2900 3119 2900 3481 
Q 2900 3844 2670 4047 
Q 2441 4250 2034 4250 
Q 1625 4250 1398 4047 
Q 1172 3844 1172 3481 
z
" id="DejaVuSans-38" transform="scale(0.015625)"/>
       </defs>
       <use xlink:href="#DejaVuSans-30"/>
       <use x="63.623047" xlink:href="#DejaVuSans-2e"/>
       <use x="95.410156" xlink:href="#DejaVuSans-38"/>
      </g>
     </g>
    </g>
    <g id="ytick_6">
     <g id="line2d_15">
      <g>
       <use style="stroke:#000000;stroke-width:0.8;" x="57.6" xlink:href="#me04c601a55" y="41.472"/>
      </g>
     </g>
     <g id="text_16">
      <!-- 1.0 -->
      <g transform="translate(34.696875 45.271219)scale(0.1 -0.1)">
       <use xlink:href="#DejaVuSans-31"/>
       <use x="63.623047" xlink:href="#DejaVuSans-2e"/>
       <use x="95.410156" xlink:href="#DejaVuSans-30"/>
      </g>
     </g>
    </g>
    <g id="text_17">
     <!-- p(context) -->
     <g transform="translate(28.617187 200.449875)rotate(-90)scale(0.1 -0.1)">
      <defs>
       <path d="M 1159 525 
L 1159 -1331 
L 581 -1331 
L 581 3500 
L 1159 3500 
L 1159 2969 
Q 1341 3281 1617 3432 
Q 1894 3584 2278 3584 
Q 2916 3584 3314 3078 
Q 3713 2572 3713 1747 
Q 3713 922 3314 415 
Q 2916 -91 2278 -91 
Q 1894 -91 1617 61 
Q 1341 213 1159 525 
z
M 3116 1747 
Q 3116 2381 2855 2742 
Q 2594 3103 2138 3103 
Q 1681 3103 1420 2742 
Q 1159 2381 1159 1747 
Q 1159 1113 1420 752 
Q 1681 391 2138 391 
Q 2594 391 2855 752 
Q 3116 1113 3116 1747 
z
" id="DejaVuSans-70" transform="scale(0.015625)"/>
       <path d="M 1984 4856 
Q 1566 4138 1362 3434 
Q 1159 2731 1159 2009 
Q 1159 1288 1364 580 
Q 1569 -128 1984 -844 
L 1484 -844 
Q 1016 -109 783 600 
Q 550 1309 550 2009 
Q 550 2706 781 3412 
Q 1013 4119 1484 4856 
L 1984 4856 
z
" id="DejaVuSans-28" transform="scale(0.015625)"/>
       <path d="M 3122 3366 
L 3122 2828 
Q 2878 2963 2633 3030 
Q 2388 3097 2138 3097 
Q 1578 3097 1268 2742 
Q 959 2388 959 1747 
Q 959 1106 1268 751 
Q 1578 397 2138 397 
Q 2388 397 2633 464 
Q 2878 531 3122 666 
L 3122 134 
Q 2881 22 2623 -34 
Q 2366 -91 2075 -91 
Q 1284 -91 818 406 
Q 353 903 353 1747 
Q 353 2603 823 3093 
Q 1294 3584 2113 3584 
Q 2378 3584 2631 3529 
Q 2884 3475 3122 3366 
z
" id="DejaVuSans-63" transform="scale(0.015625)"/>
       <path d="M 1959 3097 
Q 1497 3097 1228 2736 
Q 959 2375 959 1747 
Q 959 1119 1226 758 
Q 1494 397 1959 397 
Q 2419 397 2687 759 
Q 2956 1122 2956 1747 
Q 2956 2369 2687 2733 
Q 2419 3097 1959 3097 
z
M 1959 3584 
Q 2709 3584 3137 3096 
Q 3566 2609 3566 1747 
Q 3566 888 3137 398 
Q 2709 -91 1959 -91 
Q 1206 -91 779 398 
Q 353 888 353 1747 
Q 353 2609 779 3096 
Q 1206 3584 1959 3584 
z
" id="DejaVuSans-6f" transform="scale(0.015625)"/>
       <path d="M 3513 2113 
L 3513 0 
L 2938 0 
L 2938 2094 
Q 2938 2591 2744 2837 
Q 2550 3084 2163 3084 
Q 1697 3084 1428 2787 
Q 1159 2491 1159 1978 
L 1159 0 
L 581 0 
L 581 3500 
L 1159 3500 
L 1159 2956 
Q 1366 3272 1645 3428 
Q 1925 3584 2291 3584 
Q 2894 3584 3203 3211 
Q 3513 2838 3513 2113 
z
" id="DejaVuSans-6e" transform="scale(0.015625)"/>
       <path d="M 3597 1894 
L 3597 1613 
L 953 1613 
Q 991 1019 1311 708 
Q 1631 397 2203 397 
Q 2534 397 2845 478 
Q 3156 559 3463 722 
L 3463 178 
Q 3153 47 2828 -22 
Q 2503 -91 2169 -91 
Q 1331 -91 842 396 
Q 353 884 353 1716 
Q 353 2575 817 3079 
Q 1281 3584 2069 3584 
Q 2775 3584 3186 3129 
Q 3597 2675 3597 1894 
z
M 3022 2063 
Q 3016 2534 2758 2815 
Q 2500 3097 2075 3097 
Q 1594 3097 1305 2825 
Q 1016 2553 972 2059 
L 3022 2063 
z
" id="DejaVuSans-65" transform="scale(0.015625)"/>
       <path d="M 3513 3500 
L 2247 1797 
L 3578 0 
L 2900 0 
L 1881 1375 
L 863 0 
L 184 0 
L 1544 1831 
L 300 3500 
L 978 3500 
L 1906 2253 
L 2834 3500 
L 3513 3500 
z
" id="DejaVuSans-78" transform="scale(0.015625)"/>
       <path d="M 513 4856 
L 1013 4856 
Q 1481 4119 1714 3412 
Q 1947 2706 1947 2009 
Q 1947 1309 1714 600 
Q 1481 -109 1013 -844 
L 513 -844 
Q 928 -128 1133 580 
Q 1338 1288 1338 2009 
Q 1338 2731 1133 3434 
Q 928 4138 513 4856 
z
" id="DejaVuSans-29" transform="scale(0.015625)"/>
      </defs>
      <use xlink:href="#DejaVuSans-70"/>
      <use x="63.476562" xlink:href="#DejaVuSans-28"/>
      <use x="102.490234" xlink:href="#DejaVuSans-63"/>
      <use x="157.470703" xlink:href="#DejaVuSans-6f"/>
      <use x="218.652344" xlink:href="#DejaVuSans-6e"/>
      <use x="282.03125" xlink:href="#DejaVuSans-74"/>
      <use x="321.240234" xlink:href="#DejaVuSans-65"/>
      <use x="381.013672" xlink:href="#DejaVuSans-78"/>
      <use x="440.193359" xlink:href="#DejaVuSans-74"/>
      <use x="479.402344" xlink:href="#DejaVuSans-29"/>
     </g>
    </g>
   </g>
   <g id="line2d_16">
    <path clip-path="url(#p21ce2c33b3)" d="M 73.832727 280.9728 
L 81.949091 218.541889 
L 90.065455 296.598976 
L 98.181818 306.684048 
L 106.298182 307.518013 
L 114.414545 307.579426 
L 122.530909 307.560318 
L 130.647273 307.58206 
L 138.763636 307.582425 
L 146.88 307.582721 
L 154.996364 307.582962 
L 163.112727 307.583157 
L 171.229091 307.583316 
L 179.345455 307.583445 
L 187.461818 307.583549 
L 195.578182 307.583634 
L 203.694545 307.583703 
L 211.810909 307.583759 
L 219.927273 307.583804 
L 228.043636 307.583841 
L 236.16 307.583871 
L 244.276364 307.583895 
L 252.392727 307.583915 
L 260.509091 307.583931 
L 268.625455 307.583944 
L 276.741818 307.583955 
L 284.858182 307.583963 
L 292.974545 307.58397 
L 301.090909 307.583976 
L 309.207273 307.58398 
L 317.323636 307.583984 
L 325.44 307.583987 
L 333.556364 307.583989 
L 341.672727 307.583991 
L 349.789091 307.583993 
L 357.905455 307.583994 
L 366.021818 307.583995 
L 374.138182 307.583996 
L 382.254545 307.583997 
L 390.370909 307.583998 
" style="fill:none;stroke:#add8e6;stroke-linecap:square;stroke-opacity:0.3;stroke-width:1.5;"/>
   </g>
   <g id="line2d_17">
    <path clip-path="url(#p21ce2c33b3)" d="M 73.832727 280.9728 
L 81.949091 305.75129 
L 90.065455 307.478705 
L 98.181818 307.578373 
L 106.298182 307.583714 
L 114.414545 307.583758 
L 122.530909 307.583795 
L 130.647273 307.583989 
L 138.763636 307.583991 
L 146.88 307.583992 
L 154.996364 307.583994 
L 163.112727 307.583995 
L 171.229091 307.583995 
L 179.345455 307.583996 
L 187.461818 307.583997 
L 195.578182 307.583997 
L 203.694545 307.583998 
L 211.810909 307.583998 
L 219.927273 307.583998 
L 228.043636 307.583999 
L 236.16 307.583999 
L 244.276364 307.583999 
L 252.392727 307.583999 
L 260.509091 307.583999 
L 268.625455 307.583999 
L 276.741818 307.583999 
L 284.858182 307.584 
L 292.974545 307.584 
L 301.090909 307.584 
L 309.207273 307.584 
L 317.323636 307.584 
L 325.44 307.584 
L 333.556364 307.584 
L 341.672727 307.584 
L 349.789091 307.584 
L 357.905455 307.584 
L 366.021818 307.584 
L 374.138182 307.584 
L 382.254545 307.584 
L 390.370909 307.584 
" style="fill:none;stroke:#add8e6;stroke-linecap:square;stroke-opacity:0.3;stroke-width:1.5;"/>
   </g>
   <g id="line2d_18">
    <path clip-path="url(#p21ce2c33b3)" d="M 73.832727 280.9728 
L 81.949091 305.75129 
L 90.065455 307.478705 
L 98.181818 307.045843 
L 106.298182 307.546477 
L 114.414545 307.58166 
L 122.530909 307.583862 
L 130.647273 307.583884 
L 138.763636 307.583902 
L 146.88 307.583917 
L 154.996364 307.58393 
L 163.112727 307.583941 
L 171.229091 307.58395 
L 179.345455 307.583958 
L 187.461818 307.583964 
L 195.578182 307.58397 
L 203.694545 307.583974 
L 211.810909 307.583978 
L 219.927273 307.583982 
L 228.043636 307.583985 
L 236.16 307.583987 
L 244.276364 307.583989 
L 252.392727 307.583991 
L 260.509091 307.583992 
L 268.625455 307.583993 
L 276.741818 307.583994 
L 284.858182 307.583995 
L 292.974545 307.583996 
L 301.090909 307.583997 
L 309.207273 307.583997 
L 317.323636 307.583998 
L 325.44 307.583998 
L 333.556364 307.583998 
L 341.672727 307.583999 
L 349.789091 307.583999 
L 357.905455 307.583999 
L 366.021818 307.583999 
L 374.138182 307.583999 
L 382.254545 307.583999 
L 390.370909 307.583999 
" style="fill:none;stroke:#add8e6;stroke-linecap:square;stroke-opacity:0.3;stroke-width:1.5;"/>
   </g>
   <g id="line2d_19">
    <path clip-path="url(#p21ce2c33b3)" d="M 73.832727 280.9728 
L 81.949091 305.75129 
L 90.065455 307.478705 
L 98.181818 307.045843 
L 106.298182 305.787137 
L 114.414545 307.437765 
L 122.530909 307.573676 
L 130.647273 307.58332 
L 138.763636 307.583426 
L 146.88 307.583962 
L 154.996364 307.583968 
L 163.112727 307.583998 
L 171.229091 307.583998 
L 179.345455 307.584 
L 187.461818 307.584 
L 195.578182 307.584 
L 203.694545 307.584 
L 211.810909 307.584 
L 219.927273 307.584 
L 228.043636 307.584 
L 236.16 307.584 
L 244.276364 307.584 
L 252.392727 307.584 
L 260.509091 307.584 
L 268.625455 307.584 
L 276.741818 307.584 
L 284.858182 307.584 
L 292.974545 307.584 
L 301.090909 307.584 
L 309.207273 307.584 
L 317.323636 307.584 
L 325.44 307.584 
L 333.556364 307.584 
L 341.672727 307.584 
L 349.789091 307.584 
L 357.905455 307.584 
L 366.021818 307.584 
L 374.138182 307.584 
L 382.254545 307.584 
L 390.370909 307.584 
" style="fill:none;stroke:#add8e6;stroke-linecap:square;stroke-opacity:0.3;stroke-width:1.5;"/>
   </g>
   <g id="line2d_20">
    <path clip-path="url(#p21ce2c33b3)" d="M 73.832727 280.9728 
L 81.949091 305.75129 
L 90.065455 307.478705 
L 98.181818 307.578373 
L 106.298182 307.583714 
L 114.414545 307.583758 
L 122.530909 307.583795 
L 130.647273 307.583989 
L 138.763636 307.583991 
L 146.88 307.583992 
L 154.996364 307.583994 
L 163.112727 307.583995 
L 171.229091 307.583995 
L 179.345455 307.583996 
L 187.461818 307.583997 
L 195.578182 307.583997 
L 203.694545 307.583998 
L 211.810909 307.583998 
L 219.927273 307.583998 
L 228.043636 307.583999 
L 236.16 307.583999 
L 244.276364 307.583999 
L 252.392727 307.583999 
L 260.509091 307.583999 
L 268.625455 307.583999 
L 276.741818 307.583999 
L 284.858182 307.584 
L 292.974545 307.584 
L 301.090909 307.584 
L 309.207273 307.584 
L 317.323636 307.584 
L 325.44 307.584 
L 333.556364 307.584 
L 341.672727 307.584 
L 349.789091 307.584 
L 357.905455 307.584 
L 366.021818 307.584 
L 374.138182 307.584 
L 382.254545 307.584 
L 390.370909 307.584 
" style="fill:none;stroke:#add8e6;stroke-linecap:square;stroke-opacity:0.3;stroke-width:1.5;"/>
   </g>
   <g id="line2d_21">
    <path clip-path="url(#p21ce2c33b3)" d="M 73.832727 280.9728 
L 81.949091 305.75129 
L 90.065455 307.478705 
L 98.181818 307.578373 
L 106.298182 307.551243 
L 114.414545 307.581846 
L 122.530909 307.583873 
L 130.647273 307.583892 
L 138.763636 307.583909 
L 146.88 307.583923 
L 154.996364 307.583935 
L 163.112727 307.583945 
L 171.229091 307.583953 
L 179.345455 307.583961 
L 187.461818 307.583967 
L 195.578182 307.583972 
L 203.694545 307.583976 
L 211.810909 307.58398 
L 219.927273 307.583983 
L 228.043636 307.583986 
L 236.16 307.583988 
L 244.276364 307.58399 
L 252.392727 307.583991 
L 260.509091 307.583993 
L 268.625455 307.583994 
L 276.741818 307.583995 
L 284.858182 307.583996 
L 292.974545 307.583996 
L 301.090909 307.583997 
L 309.207273 307.583997 
L 317.323636 307.583998 
L 325.44 307.583998 
L 333.556364 307.583998 
L 341.672727 307.583999 
L 349.789091 307.583999 
L 357.905455 307.583999 
L 366.021818 307.583999 
L 374.138182 307.583999 
L 382.254545 307.583999 
L 390.370909 307.583999 
" style="fill:none;stroke:#add8e6;stroke-linecap:square;stroke-opacity:0.3;stroke-width:1.5;"/>
   </g>
   <g id="line2d_22">
    <path clip-path="url(#p21ce2c33b3)" d="M 73.832727 280.9728 
L 81.949091 305.75129 
L 90.065455 307.478705 
L 98.181818 307.578373 
L 106.298182 307.583714 
L 114.414545 307.583758 
L 122.530909 307.583795 
L 130.647273 307.583989 
L 138.763636 307.583991 
L 146.88 307.583992 
L 154.996364 307.583994 
L 163.112727 307.583995 
L 171.229091 307.583995 
L 179.345455 307.583996 
L 187.461818 307.583997 
L 195.578182 307.583997 
L 203.694545 307.583998 
L 211.810909 307.583998 
L 219.927273 307.583998 
L 228.043636 307.583999 
L 236.16 307.583999 
L 244.276364 307.583999 
L 252.392727 307.583999 
L 260.509091 307.583999 
L 268.625455 307.583999 
L 276.741818 307.583999 
L 284.858182 307.584 
L 292.974545 307.584 
L 301.090909 307.584 
L 309.207273 307.584 
L 317.323636 307.584 
L 325.44 307.584 
L 333.556364 307.584 
L 341.672727 307.584 
L 349.789091 307.584 
L 357.905455 307.584 
L 366.021818 307.584 
L 374.138182 307.584 
L 382.254545 307.584 
L 390.370909 307.584 
" style="fill:none;stroke:#add8e6;stroke-linecap:square;stroke-opacity:0.3;stroke-width:1.5;"/>
   </g>
   <g id="line2d_23">
    <path clip-path="url(#p21ce2c33b3)" d="M 73.832727 280.9728 
L 81.949091 305.75129 
L 90.065455 307.478705 
L 98.181818 307.045843 
L 106.298182 305.787137 
L 114.414545 307.437765 
L 122.530909 307.573676 
L 130.647273 307.58332 
L 138.763636 307.583426 
L 146.88 307.583962 
L 154.996364 307.583968 
L 163.112727 307.583998 
L 171.229091 307.583998 
L 179.345455 307.584 
L 187.461818 307.584 
L 195.578182 307.584 
L 203.694545 307.584 
L 211.810909 307.584 
L 219.927273 307.584 
L 228.043636 307.584 
L 236.16 307.584 
L 244.276364 307.584 
L 252.392727 307.584 
L 260.509091 307.584 
L 268.625455 307.584 
L 276.741818 307.584 
L 284.858182 307.584 
L 292.974545 307.584 
L 301.090909 307.584 
L 309.207273 307.584 
L 317.323636 307.584 
L 325.44 307.584 
L 333.556364 307.584 
L 341.672727 307.584 
L 349.789091 307.584 
L 357.905455 307.584 
L 366.021818 307.584 
L 374.138182 307.584 
L 382.254545 307.584 
L 390.370909 307.584 
" style="fill:none;stroke:#add8e6;stroke-linecap:square;stroke-opacity:0.3;stroke-width:1.5;"/>
   </g>
   <g id="line2d_24">
    <path clip-path="url(#p21ce2c33b3)" d="M 73.832727 280.9728 
L 81.949091 218.541889 
L 90.065455 296.598976 
L 98.181818 306.684048 
L 106.298182 307.518013 
L 114.414545 307.579426 
L 122.530909 307.583696 
L 130.647273 307.583753 
L 138.763636 307.5838 
L 146.88 307.583837 
L 154.996364 307.583868 
L 163.112727 307.583893 
L 171.229091 307.583913 
L 179.345455 307.583929 
L 187.461818 307.583943 
L 195.578182 307.583953 
L 203.694545 307.583962 
L 211.810909 307.583969 
L 219.927273 307.583975 
L 228.043636 307.58398 
L 236.16 307.583984 
L 244.276364 307.583987 
L 252.392727 307.583989 
L 260.509091 307.583991 
L 268.625455 307.583993 
L 276.741818 307.583994 
L 284.858182 307.583995 
L 292.974545 307.583996 
L 301.090909 307.583997 
L 309.207273 307.583997 
L 317.323636 307.583998 
L 325.44 307.583998 
L 333.556364 307.583999 
L 341.672727 307.583999 
L 349.789091 307.583999 
L 357.905455 307.583999 
L 366.021818 307.583999 
L 374.138182 307.584 
L 382.254545 307.584 
L 390.370909 307.584 
" style="fill:none;stroke:#add8e6;stroke-linecap:square;stroke-opacity:0.3;stroke-width:1.5;"/>
   </g>
   <g id="line2d_25">
    <path clip-path="url(#p21ce2c33b3)" d="M 73.832727 280.9728 
L 81.949091 305.75129 
L 90.065455 307.478705 
L 98.181818 307.578373 
L 106.298182 307.583714 
L 114.414545 307.583758 
L 122.530909 307.583795 
L 130.647273 307.583989 
L 138.763636 307.583991 
L 146.88 307.583992 
L 154.996364 307.583994 
L 163.112727 307.583995 
L 171.229091 307.583995 
L 179.345455 307.583996 
L 187.461818 307.583997 
L 195.578182 307.583997 
L 203.694545 307.583998 
L 211.810909 307.583998 
L 219.927273 307.583998 
L 228.043636 307.583999 
L 236.16 307.583999 
L 244.276364 307.583999 
L 252.392727 307.583999 
L 260.509091 307.583999 
L 268.625455 307.583999 
L 276.741818 307.583999 
L 284.858182 307.584 
L 292.974545 307.584 
L 301.090909 307.584 
L 309.207273 307.584 
L 317.323636 307.584 
L 325.44 307.584 
L 333.556364 307.584 
L 341.672727 307.584 
L 349.789091 307.584 
L 357.905455 307.584 
L 366.021818 307.584 
L 374.138182 307.584 
L 382.254545 307.584 
L 390.370909 307.584 
" style="fill:none;stroke:#add8e6;stroke-linecap:square;stroke-opacity:0.3;stroke-width:1.5;"/>
   </g>
   <g id="line2d_26">
    <path clip-path="url(#p21ce2c33b3)" d="M 73.832727 280.9728 
L 81.949091 305.75129 
L 90.065455 307.478705 
L 98.181818 307.578373 
L 106.298182 307.551243 
L 114.414545 307.581846 
L 122.530909 307.583873 
L 130.647273 307.583892 
L 138.763636 307.583909 
L 146.88 307.583923 
L 154.996364 307.583935 
L 163.112727 307.583945 
L 171.229091 307.583953 
L 179.345455 307.583961 
L 187.461818 307.583967 
L 195.578182 307.583972 
L 203.694545 307.583976 
L 211.810909 307.58398 
L 219.927273 307.583983 
L 228.043636 307.583986 
L 236.16 307.583988 
L 244.276364 307.58399 
L 252.392727 307.583991 
L 260.509091 307.583993 
L 268.625455 307.583994 
L 276.741818 307.583995 
L 284.858182 307.583996 
L 292.974545 307.583996 
L 301.090909 307.583997 
L 309.207273 307.583997 
L 317.323636 307.583998 
L 325.44 307.583998 
L 333.556364 307.583998 
L 341.672727 307.583999 
L 349.789091 307.583999 
L 357.905455 307.583999 
L 366.021818 307.583999 
L 374.138182 307.583999 
L 382.254545 307.583999 
L 390.370909 307.583999 
" style="fill:none;stroke:#add8e6;stroke-linecap:square;stroke-opacity:0.3;stroke-width:1.5;"/>
   </g>
   <g id="line2d_27">
    <path clip-path="url(#p21ce2c33b3)" d="M 73.832727 280.9728 
L 81.949091 305.75129 
L 90.065455 307.478705 
L 98.181818 307.578373 
L 106.298182 307.583714 
L 114.414545 307.583758 
L 122.530909 307.583795 
L 130.647273 307.582531 
L 138.763636 307.583913 
L 146.88 307.583926 
L 154.996364 307.583937 
L 163.112727 307.583947 
L 171.229091 307.583955 
L 179.345455 307.583962 
L 187.461818 307.583968 
L 195.578182 307.583973 
L 203.694545 307.583977 
L 211.810909 307.583981 
L 219.927273 307.583984 
L 228.043636 307.583986 
L 236.16 307.583988 
L 244.276364 307.58399 
L 252.392727 307.583992 
L 260.509091 307.583993 
L 268.625455 307.583994 
L 276.741818 307.583995 
L 284.858182 307.583996 
L 292.974545 307.583996 
L 301.090909 307.583997 
L 309.207273 307.583997 
L 317.323636 307.583998 
L 325.44 307.583998 
L 333.556364 307.583998 
L 341.672727 307.583999 
L 349.789091 307.583999 
L 357.905455 307.583999 
L 366.021818 307.583999 
L 374.138182 307.583999 
L 382.254545 307.583999 
L 390.370909 307.584 
" style="fill:none;stroke:#add8e6;stroke-linecap:square;stroke-opacity:0.3;stroke-width:1.5;"/>
   </g>
   <g id="line2d_28">
    <path clip-path="url(#p21ce2c33b3)" d="M 73.832727 280.9728 
L 81.949091 305.75129 
L 90.065455 299.679796 
L 98.181818 306.974102 
L 106.298182 307.543106 
L 114.414545 307.581438 
L 122.530909 307.583847 
L 130.647273 307.583872 
L 138.763636 307.583893 
L 146.88 307.583911 
L 154.996364 307.583925 
L 163.112727 307.583938 
L 171.229091 307.583948 
L 179.345455 307.583956 
L 187.461818 307.583964 
L 195.578182 307.58397 
L 203.694545 307.583975 
L 211.810909 307.583979 
L 219.927273 307.583982 
L 228.043636 307.583985 
L 236.16 307.583988 
L 244.276364 307.58399 
L 252.392727 307.583991 
L 260.509091 307.583993 
L 268.625455 307.583994 
L 276.741818 307.583995 
L 284.858182 307.583996 
L 292.974545 307.583996 
L 301.090909 307.583997 
L 309.207273 307.583998 
L 317.323636 307.583998 
L 325.44 307.583998 
L 333.556364 307.583999 
L 341.672727 307.583999 
L 349.789091 307.583999 
L 357.905455 307.583999 
L 366.021818 307.583999 
L 374.138182 307.583999 
L 382.254545 307.584 
L 390.370909 307.584 
" style="fill:none;stroke:#add8e6;stroke-linecap:square;stroke-opacity:0.3;stroke-width:1.5;"/>
   </g>
   <g id="line2d_29">
    <path clip-path="url(#p21ce2c33b3)" d="M 73.832727 280.9728 
L 81.949091 305.75129 
L 90.065455 307.478705 
L 98.181818 307.578373 
L 106.298182 307.583714 
L 114.414545 307.583758 
L 122.530909 307.583795 
L 130.647273 307.583989 
L 138.763636 307.583991 
L 146.88 307.583992 
L 154.996364 307.583994 
L 163.112727 307.583995 
L 171.229091 307.583995 
L 179.345455 307.583996 
L 187.461818 307.583997 
L 195.578182 307.583997 
L 203.694545 307.583998 
L 211.810909 307.583998 
L 219.927273 307.583998 
L 228.043636 307.583999 
L 236.16 307.583999 
L 244.276364 307.583999 
L 252.392727 307.583999 
L 260.509091 307.583999 
L 268.625455 307.583999 
L 276.741818 307.583999 
L 284.858182 307.584 
L 292.974545 307.584 
L 301.090909 307.584 
L 309.207273 307.584 
L 317.323636 307.584 
L 325.44 307.584 
L 333.556364 307.584 
L 341.672727 307.584 
L 349.789091 307.584 
L 357.905455 307.584 
L 366.021818 307.584 
L 374.138182 307.584 
L 382.254545 307.584 
L 390.370909 307.584 
" style="fill:none;stroke:#add8e6;stroke-linecap:square;stroke-opacity:0.3;stroke-width:1.5;"/>
   </g>
   <g id="line2d_30">
    <path clip-path="url(#p21ce2c33b3)" d="M 73.832727 280.9728 
L 81.949091 305.75129 
L 90.065455 299.679796 
L 98.181818 306.974102 
L 106.298182 307.543106 
L 114.414545 307.415634 
L 122.530909 307.043609 
L 130.647273 307.53934 
L 138.763636 307.580645 
L 146.88 307.583761 
L 154.996364 307.583801 
L 163.112727 307.583834 
L 171.229091 307.583861 
L 179.345455 307.583884 
L 187.461818 307.583903 
L 195.578182 307.583919 
L 203.694545 307.583932 
L 211.810909 307.583944 
L 219.927273 307.583953 
L 228.043636 307.583961 
L 236.16 307.583967 
L 244.276364 307.583973 
L 252.392727 307.583977 
L 260.509091 307.583981 
L 268.625455 307.583984 
L 276.741818 307.583987 
L 284.858182 307.583989 
L 292.974545 307.583991 
L 301.090909 307.583992 
L 309.207273 307.583994 
L 317.323636 307.583995 
L 325.44 307.583995 
L 333.556364 307.583996 
L 341.672727 307.583997 
L 349.789091 307.583997 
L 357.905455 307.583998 
L 366.021818 307.583998 
L 374.138182 307.583998 
L 382.254545 307.583999 
L 390.370909 307.583999 
" style="fill:none;stroke:#add8e6;stroke-linecap:square;stroke-opacity:0.3;stroke-width:1.5;"/>
   </g>
   <g id="line2d_31">
    <path clip-path="url(#p21ce2c33b3)" d="M 73.832727 280.9728 
L 81.949091 305.75129 
L 90.065455 299.679796 
L 98.181818 306.974102 
L 106.298182 307.543106 
L 114.414545 307.415634 
L 122.530909 307.571466 
L 130.647273 307.537155 
L 138.763636 307.580373 
L 146.88 307.583737 
L 154.996364 307.583781 
L 163.112727 307.583817 
L 171.229091 307.583847 
L 179.345455 307.583872 
L 187.461818 307.583893 
L 195.578182 307.583911 
L 203.694545 307.583925 
L 211.810909 307.583938 
L 219.927273 307.583948 
L 228.043636 307.583956 
L 236.16 307.583964 
L 244.276364 307.58397 
L 252.392727 307.583975 
L 260.509091 307.583979 
L 268.625455 307.583982 
L 276.741818 307.583985 
L 284.858182 307.583988 
L 292.974545 307.58399 
L 301.090909 307.583991 
L 309.207273 307.583993 
L 317.323636 307.583994 
L 325.44 307.583995 
L 333.556364 307.583996 
L 341.672727 307.583996 
L 349.789091 307.583997 
L 357.905455 307.583998 
L 366.021818 307.583998 
L 374.138182 307.583998 
L 382.254545 307.583999 
L 390.370909 307.583999 
" style="fill:none;stroke:#add8e6;stroke-linecap:square;stroke-opacity:0.3;stroke-width:1.5;"/>
   </g>
   <g id="line2d_32">
    <path clip-path="url(#p21ce2c33b3)" d="M 73.832727 280.9728 
L 81.949091 305.75129 
L 90.065455 307.478705 
L 98.181818 307.045843 
L 106.298182 307.546477 
L 114.414545 307.58166 
L 122.530909 307.583862 
L 130.647273 307.583884 
L 138.763636 307.583902 
L 146.88 307.583917 
L 154.996364 307.58393 
L 163.112727 307.583941 
L 171.229091 307.58395 
L 179.345455 307.583958 
L 187.461818 307.583964 
L 195.578182 307.58397 
L 203.694545 307.583974 
L 211.810909 307.583978 
L 219.927273 307.583982 
L 228.043636 307.583985 
L 236.16 307.583987 
L 244.276364 307.583989 
L 252.392727 307.583991 
L 260.509091 307.583992 
L 268.625455 307.583993 
L 276.741818 307.583994 
L 284.858182 307.583995 
L 292.974545 307.583996 
L 301.090909 307.583997 
L 309.207273 307.583997 
L 317.323636 307.583998 
L 325.44 307.583998 
L 333.556364 307.583998 
L 341.672727 307.583999 
L 349.789091 307.583999 
L 357.905455 307.583999 
L 366.021818 307.583999 
L 374.138182 307.583999 
L 382.254545 307.583999 
L 390.370909 307.583999 
" style="fill:none;stroke:#add8e6;stroke-linecap:square;stroke-opacity:0.3;stroke-width:1.5;"/>
   </g>
   <g id="line2d_33">
    <path clip-path="url(#p21ce2c33b3)" d="M 73.832727 280.9728 
L 81.949091 305.75129 
L 90.065455 307.478705 
L 98.181818 307.578373 
L 106.298182 307.583714 
L 114.414545 307.583758 
L 122.530909 307.583795 
L 130.647273 307.583989 
L 138.763636 307.583991 
L 146.88 307.583992 
L 154.996364 307.583994 
L 163.112727 307.583995 
L 171.229091 307.583995 
L 179.345455 307.583996 
L 187.461818 307.583997 
L 195.578182 307.583997 
L 203.694545 307.583998 
L 211.810909 307.583998 
L 219.927273 307.583998 
L 228.043636 307.583999 
L 236.16 307.583999 
L 244.276364 307.583999 
L 252.392727 307.583999 
L 260.509091 307.583999 
L 268.625455 307.583999 
L 276.741818 307.583999 
L 284.858182 307.584 
L 292.974545 307.584 
L 301.090909 307.584 
L 309.207273 307.584 
L 317.323636 307.584 
L 325.44 307.584 
L 333.556364 307.584 
L 341.672727 307.584 
L 349.789091 307.584 
L 357.905455 307.584 
L 366.021818 307.584 
L 374.138182 307.584 
L 382.254545 307.584 
L 390.370909 307.584 
" style="fill:none;stroke:#add8e6;stroke-linecap:square;stroke-opacity:0.3;stroke-width:1.5;"/>
   </g>
   <g id="line2d_34">
    <path clip-path="url(#p21ce2c33b3)" d="M 73.832727 280.9728 
L 81.949091 305.75129 
L 90.065455 307.478705 
L 98.181818 307.578373 
L 106.298182 307.583714 
L 114.414545 307.583758 
L 122.530909 307.583795 
L 130.647273 307.583989 
L 138.763636 307.583991 
L 146.88 307.583992 
L 154.996364 307.583994 
L 163.112727 307.583995 
L 171.229091 307.583995 
L 179.345455 307.583996 
L 187.461818 307.583997 
L 195.578182 307.583997 
L 203.694545 307.583998 
L 211.810909 307.583998 
L 219.927273 307.583998 
L 228.043636 307.583999 
L 236.16 307.583999 
L 244.276364 307.583999 
L 252.392727 307.583999 
L 260.509091 307.583999 
L 268.625455 307.583999 
L 276.741818 307.583999 
L 284.858182 307.584 
L 292.974545 307.584 
L 301.090909 307.584 
L 309.207273 307.584 
L 317.323636 307.584 
L 325.44 307.584 
L 333.556364 307.584 
L 341.672727 307.584 
L 349.789091 307.584 
L 357.905455 307.584 
L 366.021818 307.584 
L 374.138182 307.584 
L 382.254545 307.584 
L 390.370909 307.584 
" style="fill:none;stroke:#add8e6;stroke-linecap:square;stroke-opacity:0.3;stroke-width:1.5;"/>
   </g>
   <g id="line2d_35">
    <path clip-path="url(#p21ce2c33b3)" d="M 73.832727 280.9728 
L 81.949091 305.75129 
L 90.065455 307.478705 
L 98.181818 307.578373 
L 106.298182 307.583714 
L 114.414545 307.583758 
L 122.530909 307.583795 
L 130.647273 307.583989 
L 138.763636 307.583991 
L 146.88 307.583992 
L 154.996364 307.583994 
L 163.112727 307.583995 
L 171.229091 307.583995 
L 179.345455 307.583996 
L 187.461818 307.583997 
L 195.578182 307.583997 
L 203.694545 307.583998 
L 211.810909 307.583998 
L 219.927273 307.583998 
L 228.043636 307.583999 
L 236.16 307.583999 
L 244.276364 307.583999 
L 252.392727 307.583999 
L 260.509091 307.583999 
L 268.625455 307.583999 
L 276.741818 307.583999 
L 284.858182 307.584 
L 292.974545 307.584 
L 301.090909 307.584 
L 309.207273 307.584 
L 317.323636 307.584 
L 325.44 307.584 
L 333.556364 307.584 
L 341.672727 307.584 
L 349.789091 307.584 
L 357.905455 307.584 
L 366.021818 307.584 
L 374.138182 307.584 
L 382.254545 307.584 
L 390.370909 307.584 
" style="fill:none;stroke:#add8e6;stroke-linecap:square;stroke-opacity:0.3;stroke-width:1.5;"/>
   </g>
   <g id="line2d_36">
    <path clip-path="url(#p21ce2c33b3)" d="M 73.832727 147.9168 
L 81.949091 267.330326 
L 90.065455 153.323587 
L 98.181818 110.942198 
L 106.298182 96.501926 
L 114.414545 89.590101 
L 122.530909 210.571404 
L 130.647273 129.049418 
L 138.763636 140.629196 
L 146.88 143.866564 
L 154.996364 144.685884 
L 163.112727 144.875078 
L 171.229091 144.915223 
L 179.345455 144.923073 
L 187.461818 144.92447 
L 195.578182 144.924674 
L 203.694545 144.924678 
L 211.810909 144.924655 
L 219.927273 144.924632 
L 228.043636 144.924613 
L 236.16 144.924597 
L 244.276364 144.924584 
L 252.392727 144.924574 
L 260.509091 144.924565 
L 268.625455 144.924558 
L 276.741818 144.924553 
L 284.858182 144.924548 
L 292.974545 144.924545 
L 301.090909 144.924542 
L 309.207273 144.924539 
L 317.323636 144.924537 
L 325.44 144.924536 
L 333.556364 144.924535 
L 341.672727 144.924534 
L 349.789091 144.924533 
L 357.905455 144.924532 
L 366.021818 144.924531 
L 374.138182 144.924531 
L 382.254545 144.924531 
L 390.370909 144.92453 
" style="fill:none;stroke:#ff0000;stroke-linecap:square;stroke-opacity:0.1;stroke-width:1.5;"/>
   </g>
   <g id="line2d_37">
    <path clip-path="url(#p21ce2c33b3)" d="M 73.832727 147.9168 
L 81.949091 94.484537 
L 90.065455 78.256555 
L 98.181818 70.952832 
L 106.298182 66.606877 
L 114.414545 91.912885 
L 122.530909 102.482655 
L 130.647273 71.383358 
L 138.763636 93.382311 
L 146.88 100.532177 
L 154.996364 102.68223 
L 163.112727 103.276737 
L 171.229091 103.428554 
L 179.345455 103.464563 
L 187.461818 103.472538 
L 195.578182 103.474195 
L 203.694545 103.474519 
L 211.810909 103.474579 
L 219.927273 103.474589 
L 228.043636 103.47459 
L 236.16 103.474591 
L 244.276364 103.47459 
L 252.392727 103.47459 
L 260.509091 103.47459 
L 268.625455 103.47459 
L 276.741818 103.47459 
L 284.858182 103.47459 
L 292.974545 103.47459 
L 301.090909 103.47459 
L 309.207273 103.47459 
L 317.323636 103.47459 
L 325.44 103.47459 
L 333.556364 103.47459 
L 341.672727 103.47459 
L 349.789091 103.47459 
L 357.905455 103.47459 
L 366.021818 103.47459 
L 374.138182 103.47459 
L 382.254545 103.47459 
L 390.370909 103.47459 
" style="fill:none;stroke:#ff0000;stroke-linecap:square;stroke-opacity:0.1;stroke-width:1.5;"/>
   </g>
   <g id="line2d_38">
    <path clip-path="url(#p21ce2c33b3)" d="M 73.832727 147.9168 
L 81.949091 94.484537 
L 90.065455 78.256555 
L 98.181818 187.221643 
L 106.298182 115.647572 
L 114.414545 93.108316 
L 122.530909 85.460146 
L 130.647273 112.839078 
L 138.763636 121.015278 
L 146.88 123.244778 
L 154.996364 123.798791 
L 163.112727 123.925091 
L 171.229091 123.951689 
L 179.345455 123.956892 
L 187.461818 123.957841 
L 195.578182 123.958001 
L 203.694545 123.958024 
L 211.810909 123.958026 
L 219.927273 123.958024 
L 228.043636 123.958023 
L 236.16 123.958021 
L 244.276364 123.95802 
L 252.392727 123.958019 
L 260.509091 123.958018 
L 268.625455 123.958017 
L 276.741818 123.958016 
L 284.858182 123.958016 
L 292.974545 123.958015 
L 301.090909 123.958015 
L 309.207273 123.958014 
L 317.323636 123.958014 
L 325.44 123.958014 
L 333.556364 123.958014 
L 341.672727 123.958014 
L 349.789091 123.958013 
L 357.905455 123.958013 
L 366.021818 123.958013 
L 374.138182 123.958013 
L 382.254545 123.958013 
L 390.370909 123.958013 
" style="fill:none;stroke:#ff0000;stroke-linecap:square;stroke-opacity:0.1;stroke-width:1.5;"/>
   </g>
   <g id="line2d_39">
    <path clip-path="url(#p21ce2c33b3)" d="M 73.832727 147.9168 
L 81.949091 94.484537 
L 90.065455 78.256555 
L 98.181818 187.221643 
L 106.298182 236.605375 
L 114.414545 140.865185 
L 122.530909 108.990899 
L 130.647273 98.683141 
L 138.763636 128.764283 
L 146.88 100.747129 
L 154.996364 127.622576 
L 163.112727 98.483991 
L 171.229091 125.434974 
L 179.345455 96.368158 
L 187.461818 123.46282 
L 195.578182 129.18659 
L 203.694545 130.330337 
L 211.810909 130.54647 
L 219.927273 130.585195 
L 228.043636 130.591792 
L 236.16 130.592863 
L 244.276364 130.593029 
L 252.392727 130.593053 
L 260.509091 130.593057 
L 268.625455 130.593057 
L 276.741818 130.593057 
L 284.858182 130.593057 
L 292.974545 130.593057 
L 301.090909 130.593057 
L 309.207273 130.593057 
L 317.323636 130.593057 
L 325.44 130.593057 
L 333.556364 130.593057 
L 341.672727 130.593057 
L 349.789091 130.593057 
L 357.905455 130.593057 
L 366.021818 130.593057 
L 374.138182 130.593057 
L 382.254545 130.593057 
L 390.370909 130.593057 
" style="fill:none;stroke:#ff0000;stroke-linecap:square;stroke-opacity:0.1;stroke-width:1.5;"/>
   </g>
   <g id="line2d_40">
    <path clip-path="url(#p21ce2c33b3)" d="M 73.832727 147.9168 
L 81.949091 94.484537 
L 90.065455 78.256555 
L 98.181818 70.952832 
L 106.298182 66.606877 
L 114.414545 91.912885 
L 122.530909 102.482655 
L 130.647273 71.383358 
L 138.763636 93.382311 
L 146.88 100.532177 
L 154.996364 102.68223 
L 163.112727 103.276737 
L 171.229091 103.428554 
L 179.345455 103.464563 
L 187.461818 103.472538 
L 195.578182 103.474195 
L 203.694545 103.474519 
L 211.810909 103.474579 
L 219.927273 103.474589 
L 228.043636 103.47459 
L 236.16 103.474591 
L 244.276364 103.47459 
L 252.392727 103.47459 
L 260.509091 103.47459 
L 268.625455 103.47459 
L 276.741818 103.47459 
L 284.858182 103.47459 
L 292.974545 103.47459 
L 301.090909 103.47459 
L 309.207273 103.47459 
L 317.323636 103.47459 
L 325.44 103.47459 
L 333.556364 103.47459 
L 341.672727 103.47459 
L 349.789091 103.47459 
L 357.905455 103.47459 
L 366.021818 103.47459 
L 374.138182 103.47459 
L 382.254545 103.47459 
L 390.370909 103.47459 
" style="fill:none;stroke:#ff0000;stroke-linecap:square;stroke-opacity:0.1;stroke-width:1.5;"/>
   </g>
   <g id="line2d_41">
    <path clip-path="url(#p21ce2c33b3)" d="M 73.832727 147.9168 
L 81.949091 94.484537 
L 90.065455 78.256555 
L 98.181818 70.952832 
L 106.298182 182.375655 
L 114.414545 107.995577 
L 122.530909 86.168618 
L 130.647273 109.795999 
L 138.763636 117.300498 
L 146.88 119.474981 
L 154.996364 120.048958 
L 163.112727 120.187905 
L 171.229091 120.218968 
L 179.345455 120.225419 
L 187.461818 120.226668 
L 195.578182 120.226893 
L 203.694545 120.226929 
L 211.810909 120.226933 
L 219.927273 120.226932 
L 228.043636 120.22693 
L 236.16 120.226929 
L 244.276364 120.226927 
L 252.392727 120.226926 
L 260.509091 120.226926 
L 268.625455 120.226925 
L 276.741818 120.226924 
L 284.858182 120.226924 
L 292.974545 120.226923 
L 301.090909 120.226923 
L 309.207273 120.226923 
L 317.323636 120.226922 
L 325.44 120.226922 
L 333.556364 120.226922 
L 341.672727 120.226922 
L 349.789091 120.226921 
L 357.905455 120.226921 
L 366.021818 120.226921 
L 374.138182 120.226921 
L 382.254545 120.226921 
L 390.370909 120.226921 
" style="fill:none;stroke:#ff0000;stroke-linecap:square;stroke-opacity:0.1;stroke-width:1.5;"/>
   </g>
   <g id="line2d_42">
    <path clip-path="url(#p21ce2c33b3)" d="M 73.832727 147.9168 
L 81.949091 94.484537 
L 90.065455 78.256555 
L 98.181818 70.952832 
L 106.298182 66.606877 
L 114.414545 91.912885 
L 122.530909 102.482655 
L 130.647273 71.383358 
L 138.763636 93.382311 
L 146.88 100.532177 
L 154.996364 102.68223 
L 163.112727 103.276737 
L 171.229091 103.428554 
L 179.345455 103.464563 
L 187.461818 103.472538 
L 195.578182 103.474195 
L 203.694545 103.474519 
L 211.810909 103.474579 
L 219.927273 103.474589 
L 228.043636 103.47459 
L 236.16 103.474591 
L 244.276364 103.47459 
L 252.392727 103.47459 
L 260.509091 103.47459 
L 268.625455 103.47459 
L 276.741818 103.47459 
L 284.858182 103.47459 
L 292.974545 103.47459 
L 301.090909 103.47459 
L 309.207273 103.47459 
L 317.323636 103.47459 
L 325.44 103.47459 
L 333.556364 103.47459 
L 341.672727 103.47459 
L 349.789091 103.47459 
L 357.905455 103.47459 
L 366.021818 103.47459 
L 374.138182 103.47459 
L 382.254545 103.47459 
L 390.370909 103.47459 
" style="fill:none;stroke:#ff0000;stroke-linecap:square;stroke-opacity:0.1;stroke-width:1.5;"/>
   </g>
   <g id="line2d_43">
    <path clip-path="url(#p21ce2c33b3)" d="M 73.832727 147.9168 
L 81.949091 94.484537 
L 90.065455 78.256555 
L 98.181818 187.221643 
L 106.298182 236.605375 
L 114.414545 140.865185 
L 122.530909 108.990899 
L 130.647273 98.683141 
L 138.763636 128.764283 
L 146.88 100.747129 
L 154.996364 127.622576 
L 163.112727 98.483991 
L 171.229091 125.434974 
L 179.345455 96.368158 
L 187.461818 123.46282 
L 195.578182 129.18659 
L 203.694545 130.330337 
L 211.810909 130.54647 
L 219.927273 130.585195 
L 228.043636 130.591792 
L 236.16 130.592863 
L 244.276364 130.593029 
L 252.392727 130.593053 
L 260.509091 130.593057 
L 268.625455 130.593057 
L 276.741818 130.593057 
L 284.858182 130.593057 
L 292.974545 130.593057 
L 301.090909 130.593057 
L 309.207273 130.593057 
L 317.323636 130.593057 
L 325.44 130.593057 
L 333.556364 130.593057 
L 341.672727 130.593057 
L 349.789091 130.593057 
L 357.905455 130.593057 
L 366.021818 130.593057 
L 374.138182 130.593057 
L 382.254545 130.593057 
L 390.370909 130.593057 
" style="fill:none;stroke:#ff0000;stroke-linecap:square;stroke-opacity:0.1;stroke-width:1.5;"/>
   </g>
   <g id="line2d_44">
    <path clip-path="url(#p21ce2c33b3)" d="M 73.832727 147.9168 
L 81.949091 267.330326 
L 90.065455 153.323587 
L 98.181818 110.942198 
L 106.298182 96.501926 
L 114.414545 89.590101 
L 122.530909 85.103995 
L 130.647273 116.342354 
L 138.763636 126.168591 
L 146.88 128.977879 
L 154.996364 129.705386 
L 163.112727 129.877326 
L 171.229091 129.914699 
L 179.345455 129.922217 
L 187.461818 129.92362 
L 195.578182 129.923862 
L 203.694545 129.923898 
L 211.810909 129.9239 
L 219.927273 129.923897 
L 228.043636 129.923895 
L 236.16 129.923892 
L 244.276364 129.92389 
L 252.392727 129.923889 
L 260.509091 129.923888 
L 268.625455 129.923887 
L 276.741818 129.923886 
L 284.858182 129.923885 
L 292.974545 129.923885 
L 301.090909 129.923884 
L 309.207273 129.923884 
L 317.323636 129.923884 
L 325.44 129.923884 
L 333.556364 129.923883 
L 341.672727 129.923883 
L 349.789091 129.923883 
L 357.905455 129.923883 
L 366.021818 129.923883 
L 374.138182 129.923883 
L 382.254545 129.923883 
L 390.370909 129.923883 
" style="fill:none;stroke:#ff0000;stroke-linecap:square;stroke-opacity:0.1;stroke-width:1.5;"/>
   </g>
   <g id="line2d_45">
    <path clip-path="url(#p21ce2c33b3)" d="M 73.832727 147.9168 
L 81.949091 94.484537 
L 90.065455 78.256555 
L 98.181818 70.952832 
L 106.298182 66.606877 
L 114.414545 91.912885 
L 122.530909 102.482655 
L 130.647273 71.383358 
L 138.763636 93.382311 
L 146.88 100.532177 
L 154.996364 102.68223 
L 163.112727 103.276737 
L 171.229091 103.428554 
L 179.345455 103.464563 
L 187.461818 103.472538 
L 195.578182 103.474195 
L 203.694545 103.474519 
L 211.810909 103.474579 
L 219.927273 103.474589 
L 228.043636 103.47459 
L 236.16 103.474591 
L 244.276364 103.47459 
L 252.392727 103.47459 
L 260.509091 103.47459 
L 268.625455 103.47459 
L 276.741818 103.47459 
L 284.858182 103.47459 
L 292.974545 103.47459 
L 301.090909 103.47459 
L 309.207273 103.47459 
L 317.323636 103.47459 
L 325.44 103.47459 
L 333.556364 103.47459 
L 341.672727 103.47459 
L 349.789091 103.47459 
L 357.905455 103.47459 
L 366.021818 103.47459 
L 374.138182 103.47459 
L 382.254545 103.47459 
L 390.370909 103.47459 
" style="fill:none;stroke:#ff0000;stroke-linecap:square;stroke-opacity:0.1;stroke-width:1.5;"/>
   </g>
   <g id="line2d_46">
    <path clip-path="url(#p21ce2c33b3)" d="M 73.832727 147.9168 
L 81.949091 94.484537 
L 90.065455 78.256555 
L 98.181818 70.952832 
L 106.298182 182.375655 
L 114.414545 107.995577 
L 122.530909 86.168618 
L 130.647273 109.795999 
L 138.763636 117.300498 
L 146.88 119.474981 
L 154.996364 120.048958 
L 163.112727 120.187905 
L 171.229091 120.218968 
L 179.345455 120.225419 
L 187.461818 120.226668 
L 195.578182 120.226893 
L 203.694545 120.226929 
L 211.810909 120.226933 
L 219.927273 120.226932 
L 228.043636 120.22693 
L 236.16 120.226929 
L 244.276364 120.226927 
L 252.392727 120.226926 
L 260.509091 120.226926 
L 268.625455 120.226925 
L 276.741818 120.226924 
L 284.858182 120.226924 
L 292.974545 120.226923 
L 301.090909 120.226923 
L 309.207273 120.226923 
L 317.323636 120.226922 
L 325.44 120.226922 
L 333.556364 120.226922 
L 341.672727 120.226922 
L 349.789091 120.226921 
L 357.905455 120.226921 
L 366.021818 120.226921 
L 374.138182 120.226921 
L 382.254545 120.226921 
L 390.370909 120.226921 
" style="fill:none;stroke:#ff0000;stroke-linecap:square;stroke-opacity:0.1;stroke-width:1.5;"/>
   </g>
   <g id="line2d_47">
    <path clip-path="url(#p21ce2c33b3)" d="M 73.832727 147.9168 
L 81.949091 94.484537 
L 90.065455 78.256555 
L 98.181818 70.952832 
L 106.298182 66.606877 
L 114.414545 91.912885 
L 122.530909 102.482655 
L 130.647273 234.65821 
L 138.763636 114.600002 
L 146.88 118.705148 
L 154.996364 120.08715 
L 163.112727 120.513264 
L 171.229091 120.634417 
L 179.345455 120.666383 
L 187.461818 120.674252 
L 195.578182 120.676067 
L 203.694545 120.67646 
L 211.810909 120.676539 
L 219.927273 120.676552 
L 228.043636 120.676554 
L 236.16 120.676553 
L 244.276364 120.676552 
L 252.392727 120.676551 
L 260.509091 120.67655 
L 268.625455 120.676549 
L 276.741818 120.676549 
L 284.858182 120.676548 
L 292.974545 120.676548 
L 301.090909 120.676547 
L 309.207273 120.676547 
L 317.323636 120.676547 
L 325.44 120.676547 
L 333.556364 120.676546 
L 341.672727 120.676546 
L 349.789091 120.676546 
L 357.905455 120.676546 
L 366.021818 120.676546 
L 374.138182 120.676546 
L 382.254545 120.676546 
L 390.370909 120.676546 
" style="fill:none;stroke:#ff0000;stroke-linecap:square;stroke-opacity:0.1;stroke-width:1.5;"/>
   </g>
   <g id="line2d_48">
    <path clip-path="url(#p21ce2c33b3)" d="M 73.832727 147.9168 
L 81.949091 94.484537 
L 90.065455 201.716136 
L 98.181818 127.674918 
L 106.298182 102.71713 
L 114.414545 93.601645 
L 122.530909 88.789159 
L 130.647273 118.283999 
L 138.763636 126.620108 
L 146.88 128.768085 
L 154.996364 129.272205 
L 163.112727 129.380732 
L 171.229091 129.402311 
L 179.345455 129.406296 
L 187.461818 129.406981 
L 195.578182 129.407089 
L 203.694545 129.407103 
L 211.810909 129.407103 
L 219.927273 129.407101 
L 228.043636 129.407099 
L 236.16 129.407097 
L 244.276364 129.407096 
L 252.392727 129.407095 
L 260.509091 129.407094 
L 268.625455 129.407094 
L 276.741818 129.407093 
L 284.858182 129.407093 
L 292.974545 129.407092 
L 301.090909 129.407092 
L 309.207273 129.407091 
L 317.323636 129.407091 
L 325.44 129.407091 
L 333.556364 129.407091 
L 341.672727 129.407091 
L 349.789091 129.407091 
L 357.905455 129.40709 
L 366.021818 129.40709 
L 374.138182 129.40709 
L 382.254545 129.40709 
L 390.370909 129.40709 
" style="fill:none;stroke:#ff0000;stroke-linecap:square;stroke-opacity:0.1;stroke-width:1.5;"/>
   </g>
   <g id="line2d_49">
    <path clip-path="url(#p21ce2c33b3)" d="M 73.832727 147.9168 
L 81.949091 94.484537 
L 90.065455 78.256555 
L 98.181818 70.952832 
L 106.298182 66.606877 
L 114.414545 91.912885 
L 122.530909 102.482655 
L 130.647273 71.383358 
L 138.763636 93.382311 
L 146.88 100.532177 
L 154.996364 102.68223 
L 163.112727 103.276737 
L 171.229091 103.428554 
L 179.345455 103.464563 
L 187.461818 103.472538 
L 195.578182 103.474195 
L 203.694545 103.474519 
L 211.810909 103.474579 
L 219.927273 103.474589 
L 228.043636 103.47459 
L 236.16 103.474591 
L 244.276364 103.47459 
L 252.392727 103.47459 
L 260.509091 103.47459 
L 268.625455 103.47459 
L 276.741818 103.47459 
L 284.858182 103.47459 
L 292.974545 103.47459 
L 301.090909 103.47459 
L 309.207273 103.47459 
L 317.323636 103.47459 
L 325.44 103.47459 
L 333.556364 103.47459 
L 341.672727 103.47459 
L 349.789091 103.47459 
L 357.905455 103.47459 
L 366.021818 103.47459 
L 374.138182 103.47459 
L 382.254545 103.47459 
L 390.370909 103.47459 
" style="fill:none;stroke:#ff0000;stroke-linecap:square;stroke-opacity:0.1;stroke-width:1.5;"/>
   </g>
   <g id="line2d_50">
    <path clip-path="url(#p21ce2c33b3)" d="M 73.832727 147.9168 
L 81.949091 94.484537 
L 90.065455 201.716136 
L 98.181818 127.674918 
L 106.298182 102.71713 
L 114.414545 194.20767 
L 122.530909 223.987844 
L 130.647273 140.579379 
L 138.763636 118.745893 
L 146.88 112.093924 
L 154.996364 140.377997 
L 163.112727 146.761171 
L 171.229091 148.097586 
L 179.345455 148.357718 
L 187.461818 148.405016 
L 195.578182 148.41308 
L 203.694545 148.414371 
L 211.810909 148.414562 
L 219.927273 148.414585 
L 228.043636 148.414585 
L 236.16 148.414582 
L 244.276364 148.41458 
L 252.392727 148.414577 
L 260.509091 148.414575 
L 268.625455 148.414574 
L 276.741818 148.414572 
L 284.858182 148.414571 
L 292.974545 148.41457 
L 301.090909 148.414569 
L 309.207273 148.414569 
L 317.323636 148.414568 
L 325.44 148.414568 
L 333.556364 148.414567 
L 341.672727 148.414567 
L 349.789091 148.414567 
L 357.905455 148.414566 
L 366.021818 148.414566 
L 374.138182 148.414566 
L 382.254545 148.414566 
L 390.370909 148.414566 
" style="fill:none;stroke:#ff0000;stroke-linecap:square;stroke-opacity:0.1;stroke-width:1.5;"/>
   </g>
   <g id="line2d_51">
    <path clip-path="url(#p21ce2c33b3)" d="M 73.832727 147.9168 
L 81.949091 94.484537 
L 90.065455 201.716136 
L 98.181818 127.674918 
L 106.298182 102.71713 
L 114.414545 194.20767 
L 122.530909 127.920422 
L 130.647273 193.949701 
L 138.763636 133.221319 
L 146.88 118.95623 
L 154.996364 141.250466 
L 163.112727 145.839727 
L 171.229091 146.715139 
L 179.345455 146.870413 
L 187.461818 146.896142 
L 195.578182 146.900137 
L 203.694545 146.900716 
L 211.810909 146.900791 
L 219.927273 146.900796 
L 228.043636 146.900793 
L 236.16 146.900789 
L 244.276364 146.900786 
L 252.392727 146.900784 
L 260.509091 146.900781 
L 268.625455 146.900779 
L 276.741818 146.900778 
L 284.858182 146.900777 
L 292.974545 146.900776 
L 301.090909 146.900775 
L 309.207273 146.900774 
L 317.323636 146.900773 
L 325.44 146.900773 
L 333.556364 146.900772 
L 341.672727 146.900772 
L 349.789091 146.900772 
L 357.905455 146.900771 
L 366.021818 146.900771 
L 374.138182 146.900771 
L 382.254545 146.900771 
L 390.370909 146.900771 
" style="fill:none;stroke:#ff0000;stroke-linecap:square;stroke-opacity:0.1;stroke-width:1.5;"/>
   </g>
   <g id="line2d_52">
    <path clip-path="url(#p21ce2c33b3)" d="M 73.832727 147.9168 
L 81.949091 94.484537 
L 90.065455 78.256555 
L 98.181818 187.221643 
L 106.298182 115.647572 
L 114.414545 93.108316 
L 122.530909 85.460146 
L 130.647273 112.839078 
L 138.763636 121.015278 
L 146.88 123.244778 
L 154.996364 123.798791 
L 163.112727 123.925091 
L 171.229091 123.951689 
L 179.345455 123.956892 
L 187.461818 123.957841 
L 195.578182 123.958001 
L 203.694545 123.958024 
L 211.810909 123.958026 
L 219.927273 123.958024 
L 228.043636 123.958023 
L 236.16 123.958021 
L 244.276364 123.95802 
L 252.392727 123.958019 
L 260.509091 123.958018 
L 268.625455 123.958017 
L 276.741818 123.958016 
L 284.858182 123.958016 
L 292.974545 123.958015 
L 301.090909 123.958015 
L 309.207273 123.958014 
L 317.323636 123.958014 
L 325.44 123.958014 
L 333.556364 123.958014 
L 341.672727 123.958014 
L 349.789091 123.958013 
L 357.905455 123.958013 
L 366.021818 123.958013 
L 374.138182 123.958013 
L 382.254545 123.958013 
L 390.370909 123.958013 
" style="fill:none;stroke:#ff0000;stroke-linecap:square;stroke-opacity:0.1;stroke-width:1.5;"/>
   </g>
   <g id="line2d_53">
    <path clip-path="url(#p21ce2c33b3)" d="M 73.832727 147.9168 
L 81.949091 94.484537 
L 90.065455 78.256555 
L 98.181818 70.952832 
L 106.298182 66.606877 
L 114.414545 91.912885 
L 122.530909 102.482655 
L 130.647273 71.383358 
L 138.763636 93.382311 
L 146.88 100.532177 
L 154.996364 102.68223 
L 163.112727 103.276737 
L 171.229091 103.428554 
L 179.345455 103.464563 
L 187.461818 103.472538 
L 195.578182 103.474195 
L 203.694545 103.474519 
L 211.810909 103.474579 
L 219.927273 103.474589 
L 228.043636 103.47459 
L 236.16 103.474591 
L 244.276364 103.47459 
L 252.392727 103.47459 
L 260.509091 103.47459 
L 268.625455 103.47459 
L 276.741818 103.47459 
L 284.858182 103.47459 
L 292.974545 103.47459 
L 301.090909 103.47459 
L 309.207273 103.47459 
L 317.323636 103.47459 
L 325.44 103.47459 
L 333.556364 103.47459 
L 341.672727 103.47459 
L 349.789091 103.47459 
L 357.905455 103.47459 
L 366.021818 103.47459 
L 374.138182 103.47459 
L 382.254545 103.47459 
L 390.370909 103.47459 
" style="fill:none;stroke:#ff0000;stroke-linecap:square;stroke-opacity:0.1;stroke-width:1.5;"/>
   </g>
   <g id="line2d_54">
    <path clip-path="url(#p21ce2c33b3)" d="M 73.832727 147.9168 
L 81.949091 94.484537 
L 90.065455 78.256555 
L 98.181818 70.952832 
L 106.298182 66.606877 
L 114.414545 91.912885 
L 122.530909 102.482655 
L 130.647273 71.383358 
L 138.763636 93.382311 
L 146.88 100.532177 
L 154.996364 102.68223 
L 163.112727 103.276737 
L 171.229091 103.428554 
L 179.345455 103.464563 
L 187.461818 103.472538 
L 195.578182 103.474195 
L 203.694545 103.474519 
L 211.810909 103.474579 
L 219.927273 103.474589 
L 228.043636 103.47459 
L 236.16 103.474591 
L 244.276364 103.47459 
L 252.392727 103.47459 
L 260.509091 103.47459 
L 268.625455 103.47459 
L 276.741818 103.47459 
L 284.858182 103.47459 
L 292.974545 103.47459 
L 301.090909 103.47459 
L 309.207273 103.47459 
L 317.323636 103.47459 
L 325.44 103.47459 
L 333.556364 103.47459 
L 341.672727 103.47459 
L 349.789091 103.47459 
L 357.905455 103.47459 
L 366.021818 103.47459 
L 374.138182 103.47459 
L 382.254545 103.47459 
L 390.370909 103.47459 
" style="fill:none;stroke:#ff0000;stroke-linecap:square;stroke-opacity:0.1;stroke-width:1.5;"/>
   </g>
   <g id="line2d_55">
    <path clip-path="url(#p21ce2c33b3)" d="M 73.832727 147.9168 
L 81.949091 94.484537 
L 90.065455 78.256555 
L 98.181818 70.952832 
L 106.298182 66.606877 
L 114.414545 91.912885 
L 122.530909 102.482655 
L 130.647273 71.383358 
L 138.763636 93.382311 
L 146.88 100.532177 
L 154.996364 102.68223 
L 163.112727 103.276737 
L 171.229091 103.428554 
L 179.345455 103.464563 
L 187.461818 103.472538 
L 195.578182 103.474195 
L 203.694545 103.474519 
L 211.810909 103.474579 
L 219.927273 103.474589 
L 228.043636 103.47459 
L 236.16 103.474591 
L 244.276364 103.47459 
L 252.392727 103.47459 
L 260.509091 103.47459 
L 268.625455 103.47459 
L 276.741818 103.47459 
L 284.858182 103.47459 
L 292.974545 103.47459 
L 301.090909 103.47459 
L 309.207273 103.47459 
L 317.323636 103.47459 
L 325.44 103.47459 
L 333.556364 103.47459 
L 341.672727 103.47459 
L 349.789091 103.47459 
L 357.905455 103.47459 
L 366.021818 103.47459 
L 374.138182 103.47459 
L 382.254545 103.47459 
L 390.370909 103.47459 
" style="fill:none;stroke:#ff0000;stroke-linecap:square;stroke-opacity:0.1;stroke-width:1.5;"/>
   </g>
   <g id="line2d_56">
    <path clip-path="url(#p21ce2c33b3)" d="M 73.832727 280.9728 
L 81.949091 297.030349 
L 90.065455 305.220896 
L 98.181818 307.291794 
L 106.298182 307.384424 
L 114.414545 307.551396 
L 122.530909 307.553996 
L 130.647273 307.579141 
L 138.763636 307.583473 
L 146.88 307.583872 
L 154.996364 307.583894 
L 163.112727 307.583915 
L 171.229091 307.58393 
L 179.345455 307.583943 
L 187.461818 307.583953 
L 195.578182 307.583961 
L 203.694545 307.583968 
L 211.810909 307.583973 
L 219.927273 307.583978 
L 228.043636 307.583982 
L 236.16 307.583985 
L 244.276364 307.583988 
L 252.392727 307.58399 
L 260.509091 307.583992 
L 268.625455 307.583993 
L 276.741818 307.583994 
L 284.858182 307.583995 
L 292.974545 307.583996 
L 301.090909 307.583997 
L 309.207273 307.583997 
L 317.323636 307.583998 
L 325.44 307.583998 
L 333.556364 307.583998 
L 341.672727 307.583999 
L 349.789091 307.583999 
L 357.905455 307.583999 
L 366.021818 307.583999 
L 374.138182 307.583999 
L 382.254545 307.583999 
L 390.370909 307.584 
" style="fill:none;stroke:#1f77b4;stroke-linecap:square;stroke-width:1.5;"/>
   </g>
   <g id="line2d_57">
    <path clip-path="url(#p21ce2c33b3)" d="M 73.832727 147.9168 
L 81.949091 111.769116 
L 90.065455 104.282196 
L 98.181818 106.713844 
L 106.298182 108.493717 
L 114.414545 108.617565 
L 122.530909 110.997802 
L 130.647273 107.328318 
L 138.763636 112.060186 
L 146.88 112.127951 
L 154.996364 118.488879 
L 163.112727 116.432758 
L 171.229091 119.315953 
L 179.345455 116.448177 
L 187.461818 119.165272 
L 195.578182 119.739072 
L 203.694545 119.853698 
L 211.810909 119.875352 
L 219.927273 119.879229 
L 228.043636 119.879888 
L 236.16 119.879993 
L 244.276364 119.880008 
L 252.392727 119.880009 
L 260.509091 119.880009 
L 268.625455 119.880008 
L 276.741818 119.880007 
L 284.858182 119.880007 
L 292.974545 119.880006 
L 301.090909 119.880006 
L 309.207273 119.880006 
L 317.323636 119.880005 
L 325.44 119.880005 
L 333.556364 119.880005 
L 341.672727 119.880005 
L 349.789091 119.880005 
L 357.905455 119.880005 
L 366.021818 119.880004 
L 374.138182 119.880004 
L 382.254545 119.880004 
L 390.370909 119.880004 
" style="fill:none;stroke:#ff0000;stroke-linecap:square;stroke-width:1.5;"/>
   </g>
   <g id="patch_5">
    <path d="M 57.6 307.584 
L 57.6 41.472 
" style="fill:none;stroke:#000000;stroke-linecap:square;stroke-linejoin:miter;stroke-width:0.8;"/>
   </g>
   <g id="patch_6">
    <path d="M 414.72 307.584 
L 414.72 41.472 
" style="fill:none;stroke:#000000;stroke-linecap:square;stroke-linejoin:miter;stroke-width:0.8;"/>
   </g>
   <g id="patch_7">
    <path d="M 57.6 307.584 
L 414.72 307.584 
" style="fill:none;stroke:#000000;stroke-linecap:square;stroke-linejoin:miter;stroke-width:0.8;"/>
   </g>
   <g id="patch_8">
    <path d="M 57.6 41.472 
L 414.72 41.472 
" style="fill:none;stroke:#000000;stroke-linecap:square;stroke-linejoin:miter;stroke-width:0.8;"/>
   </g>
   <g id="text_18">
    <!-- Type2_depressed -->
    <g transform="translate(184.4775 35.472)scale(0.12 -0.12)">
     <defs>
      <path d="M -19 4666 
L 3928 4666 
L 3928 4134 
L 2272 4134 
L 2272 0 
L 1638 0 
L 1638 4134 
L -19 4134 
L -19 4666 
z
" id="DejaVuSans-54" transform="scale(0.015625)"/>
      <path d="M 2059 -325 
Q 1816 -950 1584 -1140 
Q 1353 -1331 966 -1331 
L 506 -1331 
L 506 -850 
L 844 -850 
Q 1081 -850 1212 -737 
Q 1344 -625 1503 -206 
L 1606 56 
L 191 3500 
L 800 3500 
L 1894 763 
L 2988 3500 
L 3597 3500 
L 2059 -325 
z
" id="DejaVuSans-79" transform="scale(0.015625)"/>
      <path d="M 3263 -1063 
L 3263 -1509 
L -63 -1509 
L -63 -1063 
L 3263 -1063 
z
" id="DejaVuSans-5f" transform="scale(0.015625)"/>
      <path d="M 2906 2969 
L 2906 4863 
L 3481 4863 
L 3481 0 
L 2906 0 
L 2906 525 
Q 2725 213 2448 61 
Q 2172 -91 1784 -91 
Q 1150 -91 751 415 
Q 353 922 353 1747 
Q 353 2572 751 3078 
Q 1150 3584 1784 3584 
Q 2172 3584 2448 3432 
Q 2725 3281 2906 2969 
z
M 947 1747 
Q 947 1113 1208 752 
Q 1469 391 1925 391 
Q 2381 391 2643 752 
Q 2906 1113 2906 1747 
Q 2906 2381 2643 2742 
Q 2381 3103 1925 3103 
Q 1469 3103 1208 2742 
Q 947 2381 947 1747 
z
" id="DejaVuSans-64" transform="scale(0.015625)"/>
      <path d="M 2631 2963 
Q 2534 3019 2420 3045 
Q 2306 3072 2169 3072 
Q 1681 3072 1420 2755 
Q 1159 2438 1159 1844 
L 1159 0 
L 581 0 
L 581 3500 
L 1159 3500 
L 1159 2956 
Q 1341 3275 1631 3429 
Q 1922 3584 2338 3584 
Q 2397 3584 2469 3576 
Q 2541 3569 2628 3553 
L 2631 2963 
z
" id="DejaVuSans-72" transform="scale(0.015625)"/>
      <path d="M 2834 3397 
L 2834 2853 
Q 2591 2978 2328 3040 
Q 2066 3103 1784 3103 
Q 1356 3103 1142 2972 
Q 928 2841 928 2578 
Q 928 2378 1081 2264 
Q 1234 2150 1697 2047 
L 1894 2003 
Q 2506 1872 2764 1633 
Q 3022 1394 3022 966 
Q 3022 478 2636 193 
Q 2250 -91 1575 -91 
Q 1294 -91 989 -36 
Q 684 19 347 128 
L 347 722 
Q 666 556 975 473 
Q 1284 391 1588 391 
Q 1994 391 2212 530 
Q 2431 669 2431 922 
Q 2431 1156 2273 1281 
Q 2116 1406 1581 1522 
L 1381 1569 
Q 847 1681 609 1914 
Q 372 2147 372 2553 
Q 372 3047 722 3315 
Q 1072 3584 1716 3584 
Q 2034 3584 2315 3537 
Q 2597 3491 2834 3397 
z
" id="DejaVuSans-73" transform="scale(0.015625)"/>
     </defs>
     <use xlink:href="#DejaVuSans-54"/>
     <use x="45.458984" xlink:href="#DejaVuSans-79"/>
     <use x="104.638672" xlink:href="#DejaVuSans-70"/>
     <use x="168.115234" xlink:href="#DejaVuSans-65"/>
     <use x="229.638672" xlink:href="#DejaVuSans-32"/>
     <use x="293.261719" xlink:href="#DejaVuSans-5f"/>
     <use x="343.261719" xlink:href="#DejaVuSans-64"/>
     <use x="406.738281" xlink:href="#DejaVuSans-65"/>
     <use x="468.261719" xlink:href="#DejaVuSans-70"/>
     <use x="531.738281" xlink:href="#DejaVuSans-72"/>
     <use x="570.601562" xlink:href="#DejaVuSans-65"/>
     <use x="632.125" xlink:href="#DejaVuSans-73"/>
     <use x="684.224609" xlink:href="#DejaVuSans-73"/>
     <use x="736.324219" xlink:href="#DejaVuSans-65"/>
     <use x="797.847656" xlink:href="#DejaVuSans-64"/>
    </g>
   </g>
   <g id="legend_1">
    <g id="patch_9">
     <path d="M 351.635625 78.82825 
L 407.72 78.82825 
Q 409.72 78.82825 409.72 76.82825 
L 409.72 48.472 
Q 409.72 46.472 407.72 46.472 
L 351.635625 46.472 
Q 349.635625 46.472 349.635625 48.472 
L 349.635625 76.82825 
Q 349.635625 78.82825 351.635625 78.82825 
z
" style="fill:#ffffff;opacity:0.8;stroke:#cccccc;stroke-linejoin:miter;"/>
    </g>
    <g id="line2d_58">
     <path d="M 353.635625 54.570437 
L 373.635625 54.570437 
" style="fill:none;stroke:#1f77b4;stroke-linecap:square;stroke-width:1.5;"/>
    </g>
    <g id="line2d_59"/>
    <g id="text_19">
     <!-- coop -->
     <g transform="translate(381.635625 58.070437)scale(0.1 -0.1)">
      <use xlink:href="#DejaVuSans-63"/>
      <use x="54.980469" xlink:href="#DejaVuSans-6f"/>
      <use x="116.162109" xlink:href="#DejaVuSans-6f"/>
      <use x="177.34375" xlink:href="#DejaVuSans-70"/>
     </g>
    </g>
    <g id="line2d_60">
     <path d="M 353.635625 69.248562 
L 373.635625 69.248562 
" style="fill:none;stroke:#ff0000;stroke-linecap:square;stroke-width:1.5;"/>
    </g>
    <g id="line2d_61"/>
    <g id="text_20">
     <!-- host -->
     <g transform="translate(381.635625 72.748562)scale(0.1 -0.1)">
      <defs>
       <path d="M 3513 2113 
L 3513 0 
L 2938 0 
L 2938 2094 
Q 2938 2591 2744 2837 
Q 2550 3084 2163 3084 
Q 1697 3084 1428 2787 
Q 1159 2491 1159 1978 
L 1159 0 
L 581 0 
L 581 4863 
L 1159 4863 
L 1159 2956 
Q 1366 3272 1645 3428 
Q 1925 3584 2291 3584 
Q 2894 3584 3203 3211 
Q 3513 2838 3513 2113 
z
" id="DejaVuSans-68" transform="scale(0.015625)"/>
      </defs>
      <use xlink:href="#DejaVuSans-68"/>
      <use x="63.378906" xlink:href="#DejaVuSans-6f"/>
      <use x="124.560547" xlink:href="#DejaVuSans-73"/>
      <use x="176.660156" xlink:href="#DejaVuSans-74"/>
     </g>
    </g>
   </g>
  </g>
 </g>
 <defs>
  <clipPath id="p21ce2c33b3">
   <rect height="266.112" width="357.12" x="57.6" y="41.472"/>
  </clipPath>
 </defs>
</svg>
