<?xml version="1.0" encoding="utf-8" standalone="no"?>
<!DOCTYPE svg PUBLIC "-//W3C//DTD SVG 1.1//EN"
  "http://www.w3.org/Graphics/SVG/1.1/DTD/svg11.dtd">
<svg height="345.6pt" version="1.1" viewBox="0 0 460.8 345.6" width="460.8pt" xmlns="http://www.w3.org/2000/svg" xmlns:xlink="http://www.w3.org/1999/xlink">
 <metadata>
  <rdf:RDF xmlns:cc="http://creativecommons.org/ns#" xmlns:dc="http://purl.org/dc/elements/1.1/" xmlns:rdf="http://www.w3.org/1999/02/22-rdf-syntax-ns#">
   <cc:Work>
    <dc:type rdf:resource="http://purl.org/dc/dcmitype/StillImage"/>
    <dc:date>2023-10-05T17:25:55.155322</dc:date>
    <dc:format>image/svg+xml</dc:format>
    <dc:creator>
     <cc:Agent>
      <dc:title>Matplotlib v3.4.1, https://matplotlib.org/</dc:title>
     </cc:Agent>
    </dc:creator>
   </cc:Work>
  </rdf:RDF>
 </metadata>
 <defs>
  <style type="text/css">*{stroke-linecap:butt;stroke-linejoin:round;}</style>
 </defs>
 <g id="figure_1">
  <g id="patch_1">
   <path d="M 0 345.6 
L 460.8 345.6 
L 460.8 0 
L 0 0 
z
" style="fill:#ffffff;"/>
  </g>
  <g id="axes_1">
   <g id="patch_2">
    <path d="M 57.6 307.584 
L 414.72 307.584 
L 414.72 41.472 
L 57.6 41.472 
z
" style="fill:#ffffff;"/>
   </g>
   <g id="patch_3">
    <path clip-path="url(#p167efbc4fb)" d="M 73.832727 307.584 
L 73.832727 41.472 
L 236.16 41.472 
L 236.16 307.584 
z
" style="fill:#ff7f50;opacity:0.2;"/>
   </g>
   <g id="patch_4">
    <path clip-path="url(#p167efbc4fb)" d="M 236.16 307.584 
L 236.16 41.472 
L 398.487273 41.472 
L 398.487273 307.584 
z
" style="fill:#add8e6;opacity:0.2;"/>
   </g>
   <g id="matplotlib.axis_1">
    <g id="xtick_1">
     <g id="line2d_1">
      <defs>
       <path d="M 0 0 
L 0 3.5 
" id="m36295393aa" style="stroke:#000000;stroke-width:0.8;"/>
      </defs>
      <g>
       <use style="stroke:#000000;stroke-width:0.8;" x="73.832727" xlink:href="#m36295393aa" y="307.584"/>
      </g>
     </g>
     <g id="text_1">
      <!-- 0 -->
      <g transform="translate(70.651477 322.182437)scale(0.1 -0.1)">
       <defs>
        <path d="M 2034 4250 
Q 1547 4250 1301 3770 
Q 1056 3291 1056 2328 
Q 1056 1369 1301 889 
Q 1547 409 2034 409 
Q 2525 409 2770 889 
Q 3016 1369 3016 2328 
Q 3016 3291 2770 3770 
Q 2525 4250 2034 4250 
z
M 2034 4750 
Q 2819 4750 3233 4129 
Q 3647 3509 3647 2328 
Q 3647 1150 3233 529 
Q 2819 -91 2034 -91 
Q 1250 -91 836 529 
Q 422 1150 422 2328 
Q 422 3509 836 4129 
Q 1250 4750 2034 4750 
z
" id="DejaVuSans-30" transform="scale(0.015625)"/>
       </defs>
       <use xlink:href="#DejaVuSans-30"/>
      </g>
     </g>
    </g>
    <g id="xtick_2">
     <g id="line2d_2">
      <g>
       <use style="stroke:#000000;stroke-width:0.8;" x="114.414545" xlink:href="#m36295393aa" y="307.584"/>
      </g>
     </g>
     <g id="text_2">
      <!-- 5 -->
      <g transform="translate(111.233295 322.182437)scale(0.1 -0.1)">
       <defs>
        <path d="M 691 4666 
L 3169 4666 
L 3169 4134 
L 1269 4134 
L 1269 2991 
Q 1406 3038 1543 3061 
Q 1681 3084 1819 3084 
Q 2600 3084 3056 2656 
Q 3513 2228 3513 1497 
Q 3513 744 3044 326 
Q 2575 -91 1722 -91 
Q 1428 -91 1123 -41 
Q 819 9 494 109 
L 494 744 
Q 775 591 1075 516 
Q 1375 441 1709 441 
Q 2250 441 2565 725 
Q 2881 1009 2881 1497 
Q 2881 1984 2565 2268 
Q 2250 2553 1709 2553 
Q 1456 2553 1204 2497 
Q 953 2441 691 2322 
L 691 4666 
z
" id="DejaVuSans-35" transform="scale(0.015625)"/>
       </defs>
       <use xlink:href="#DejaVuSans-35"/>
      </g>
     </g>
    </g>
    <g id="xtick_3">
     <g id="line2d_3">
      <g>
       <use style="stroke:#000000;stroke-width:0.8;" x="154.996364" xlink:href="#m36295393aa" y="307.584"/>
      </g>
     </g>
     <g id="text_3">
      <!-- 10 -->
      <g transform="translate(148.633864 322.182437)scale(0.1 -0.1)">
       <defs>
        <path d="M 794 531 
L 1825 531 
L 1825 4091 
L 703 3866 
L 703 4441 
L 1819 4666 
L 2450 4666 
L 2450 531 
L 3481 531 
L 3481 0 
L 794 0 
L 794 531 
z
" id="DejaVuSans-31" transform="scale(0.015625)"/>
       </defs>
       <use xlink:href="#DejaVuSans-31"/>
       <use x="63.623047" xlink:href="#DejaVuSans-30"/>
      </g>
     </g>
    </g>
    <g id="xtick_4">
     <g id="line2d_4">
      <g>
       <use style="stroke:#000000;stroke-width:0.8;" x="195.578182" xlink:href="#m36295393aa" y="307.584"/>
      </g>
     </g>
     <g id="text_4">
      <!-- 15 -->
      <g transform="translate(189.215682 322.182437)scale(0.1 -0.1)">
       <use xlink:href="#DejaVuSans-31"/>
       <use x="63.623047" xlink:href="#DejaVuSans-35"/>
      </g>
     </g>
    </g>
    <g id="xtick_5">
     <g id="line2d_5">
      <g>
       <use style="stroke:#000000;stroke-width:0.8;" x="236.16" xlink:href="#m36295393aa" y="307.584"/>
      </g>
     </g>
     <g id="text_5">
      <!-- 20 -->
      <g transform="translate(229.7975 322.182437)scale(0.1 -0.1)">
       <defs>
        <path d="M 1228 531 
L 3431 531 
L 3431 0 
L 469 0 
L 469 531 
Q 828 903 1448 1529 
Q 2069 2156 2228 2338 
Q 2531 2678 2651 2914 
Q 2772 3150 2772 3378 
Q 2772 3750 2511 3984 
Q 2250 4219 1831 4219 
Q 1534 4219 1204 4116 
Q 875 4013 500 3803 
L 500 4441 
Q 881 4594 1212 4672 
Q 1544 4750 1819 4750 
Q 2544 4750 2975 4387 
Q 3406 4025 3406 3419 
Q 3406 3131 3298 2873 
Q 3191 2616 2906 2266 
Q 2828 2175 2409 1742 
Q 1991 1309 1228 531 
z
" id="DejaVuSans-32" transform="scale(0.015625)"/>
       </defs>
       <use xlink:href="#DejaVuSans-32"/>
       <use x="63.623047" xlink:href="#DejaVuSans-30"/>
      </g>
     </g>
    </g>
    <g id="xtick_6">
     <g id="line2d_6">
      <g>
       <use style="stroke:#000000;stroke-width:0.8;" x="276.741818" xlink:href="#m36295393aa" y="307.584"/>
      </g>
     </g>
     <g id="text_6">
      <!-- 25 -->
      <g transform="translate(270.379318 322.182437)scale(0.1 -0.1)">
       <use xlink:href="#DejaVuSans-32"/>
       <use x="63.623047" xlink:href="#DejaVuSans-35"/>
      </g>
     </g>
    </g>
    <g id="xtick_7">
     <g id="line2d_7">
      <g>
       <use style="stroke:#000000;stroke-width:0.8;" x="317.323636" xlink:href="#m36295393aa" y="307.584"/>
      </g>
     </g>
     <g id="text_7">
      <!-- 30 -->
      <g transform="translate(310.961136 322.182437)scale(0.1 -0.1)">
       <defs>
        <path d="M 2597 2516 
Q 3050 2419 3304 2112 
Q 3559 1806 3559 1356 
Q 3559 666 3084 287 
Q 2609 -91 1734 -91 
Q 1441 -91 1130 -33 
Q 819 25 488 141 
L 488 750 
Q 750 597 1062 519 
Q 1375 441 1716 441 
Q 2309 441 2620 675 
Q 2931 909 2931 1356 
Q 2931 1769 2642 2001 
Q 2353 2234 1838 2234 
L 1294 2234 
L 1294 2753 
L 1863 2753 
Q 2328 2753 2575 2939 
Q 2822 3125 2822 3475 
Q 2822 3834 2567 4026 
Q 2313 4219 1838 4219 
Q 1578 4219 1281 4162 
Q 984 4106 628 3988 
L 628 4550 
Q 988 4650 1302 4700 
Q 1616 4750 1894 4750 
Q 2613 4750 3031 4423 
Q 3450 4097 3450 3541 
Q 3450 3153 3228 2886 
Q 3006 2619 2597 2516 
z
" id="DejaVuSans-33" transform="scale(0.015625)"/>
       </defs>
       <use xlink:href="#DejaVuSans-33"/>
       <use x="63.623047" xlink:href="#DejaVuSans-30"/>
      </g>
     </g>
    </g>
    <g id="xtick_8">
     <g id="line2d_8">
      <g>
       <use style="stroke:#000000;stroke-width:0.8;" x="357.905455" xlink:href="#m36295393aa" y="307.584"/>
      </g>
     </g>
     <g id="text_8">
      <!-- 35 -->
      <g transform="translate(351.542955 322.182437)scale(0.1 -0.1)">
       <use xlink:href="#DejaVuSans-33"/>
       <use x="63.623047" xlink:href="#DejaVuSans-35"/>
      </g>
     </g>
    </g>
    <g id="xtick_9">
     <g id="line2d_9">
      <g>
       <use style="stroke:#000000;stroke-width:0.8;" x="398.487273" xlink:href="#m36295393aa" y="307.584"/>
      </g>
     </g>
     <g id="text_9">
      <!-- 40 -->
      <g transform="translate(392.124773 322.182437)scale(0.1 -0.1)">
       <defs>
        <path d="M 2419 4116 
L 825 1625 
L 2419 1625 
L 2419 4116 
z
M 2253 4666 
L 3047 4666 
L 3047 1625 
L 3713 1625 
L 3713 1100 
L 3047 1100 
L 3047 0 
L 2419 0 
L 2419 1100 
L 313 1100 
L 313 1709 
L 2253 4666 
z
" id="DejaVuSans-34" transform="scale(0.015625)"/>
       </defs>
       <use xlink:href="#DejaVuSans-34"/>
       <use x="63.623047" xlink:href="#DejaVuSans-30"/>
      </g>
     </g>
    </g>
    <g id="text_10">
     <!-- t -->
     <g transform="translate(234.199844 335.860562)scale(0.1 -0.1)">
      <defs>
       <path d="M 1172 4494 
L 1172 3500 
L 2356 3500 
L 2356 3053 
L 1172 3053 
L 1172 1153 
Q 1172 725 1289 603 
Q 1406 481 1766 481 
L 2356 481 
L 2356 0 
L 1766 0 
Q 1100 0 847 248 
Q 594 497 594 1153 
L 594 3053 
L 172 3053 
L 172 3500 
L 594 3500 
L 594 4494 
L 1172 4494 
z
" id="DejaVuSans-74" transform="scale(0.015625)"/>
      </defs>
      <use xlink:href="#DejaVuSans-74"/>
     </g>
    </g>
   </g>
   <g id="matplotlib.axis_2">
    <g id="ytick_1">
     <g id="line2d_10">
      <defs>
       <path d="M 0 0 
L -3.5 0 
" id="m9947d5d89c" style="stroke:#000000;stroke-width:0.8;"/>
      </defs>
      <g>
       <use style="stroke:#000000;stroke-width:0.8;" x="57.6" xlink:href="#m9947d5d89c" y="307.584"/>
      </g>
     </g>
     <g id="text_11">
      <!-- 0.0 -->
      <g transform="translate(34.696875 311.383219)scale(0.1 -0.1)">
       <defs>
        <path d="M 684 794 
L 1344 794 
L 1344 0 
L 684 0 
L 684 794 
z
" id="DejaVuSans-2e" transform="scale(0.015625)"/>
       </defs>
       <use xlink:href="#DejaVuSans-30"/>
       <use x="63.623047" xlink:href="#DejaVuSans-2e"/>
       <use x="95.410156" xlink:href="#DejaVuSans-30"/>
      </g>
     </g>
    </g>
    <g id="ytick_2">
     <g id="line2d_11">
      <g>
       <use style="stroke:#000000;stroke-width:0.8;" x="57.6" xlink:href="#m9947d5d89c" y="254.3616"/>
      </g>
     </g>
     <g id="text_12">
      <!-- 0.2 -->
      <g transform="translate(34.696875 258.160819)scale(0.1 -0.1)">
       <use xlink:href="#DejaVuSans-30"/>
       <use x="63.623047" xlink:href="#DejaVuSans-2e"/>
       <use x="95.410156" xlink:href="#DejaVuSans-32"/>
      </g>
     </g>
    </g>
    <g id="ytick_3">
     <g id="line2d_12">
      <g>
       <use style="stroke:#000000;stroke-width:0.8;" x="57.6" xlink:href="#m9947d5d89c" y="201.1392"/>
      </g>
     </g>
     <g id="text_13">
      <!-- 0.4 -->
      <g transform="translate(34.696875 204.938419)scale(0.1 -0.1)">
       <use xlink:href="#DejaVuSans-30"/>
       <use x="63.623047" xlink:href="#DejaVuSans-2e"/>
       <use x="95.410156" xlink:href="#DejaVuSans-34"/>
      </g>
     </g>
    </g>
    <g id="ytick_4">
     <g id="line2d_13">
      <g>
       <use style="stroke:#000000;stroke-width:0.8;" x="57.6" xlink:href="#m9947d5d89c" y="147.9168"/>
      </g>
     </g>
     <g id="text_14">
      <!-- 0.6 -->
      <g transform="translate(34.696875 151.716019)scale(0.1 -0.1)">
       <defs>
        <path d="M 2113 2584 
Q 1688 2584 1439 2293 
Q 1191 2003 1191 1497 
Q 1191 994 1439 701 
Q 1688 409 2113 409 
Q 2538 409 2786 701 
Q 3034 994 3034 1497 
Q 3034 2003 2786 2293 
Q 2538 2584 2113 2584 
z
M 3366 4563 
L 3366 3988 
Q 3128 4100 2886 4159 
Q 2644 4219 2406 4219 
Q 1781 4219 1451 3797 
Q 1122 3375 1075 2522 
Q 1259 2794 1537 2939 
Q 1816 3084 2150 3084 
Q 2853 3084 3261 2657 
Q 3669 2231 3669 1497 
Q 3669 778 3244 343 
Q 2819 -91 2113 -91 
Q 1303 -91 875 529 
Q 447 1150 447 2328 
Q 447 3434 972 4092 
Q 1497 4750 2381 4750 
Q 2619 4750 2861 4703 
Q 3103 4656 3366 4563 
z
" id="DejaVuSans-36" transform="scale(0.015625)"/>
       </defs>
       <use xlink:href="#DejaVuSans-30"/>
       <use x="63.623047" xlink:href="#DejaVuSans-2e"/>
       <use x="95.410156" xlink:href="#DejaVuSans-36"/>
      </g>
     </g>
    </g>
    <g id="ytick_5">
     <g id="line2d_14">
      <g>
       <use style="stroke:#000000;stroke-width:0.8;" x="57.6" xlink:href="#m9947d5d89c" y="94.6944"/>
      </g>
     </g>
     <g id="text_15">
      <!-- 0.8 -->
      <g transform="translate(34.696875 98.493619)scale(0.1 -0.1)">
       <defs>
        <path d="M 2034 2216 
Q 1584 2216 1326 1975 
Q 1069 1734 1069 1313 
Q 1069 891 1326 650 
Q 1584 409 2034 409 
Q 2484 409 2743 651 
Q 3003 894 3003 1313 
Q 3003 1734 2745 1975 
Q 2488 2216 2034 2216 
z
M 1403 2484 
Q 997 2584 770 2862 
Q 544 3141 544 3541 
Q 544 4100 942 4425 
Q 1341 4750 2034 4750 
Q 2731 4750 3128 4425 
Q 3525 4100 3525 3541 
Q 3525 3141 3298 2862 
Q 3072 2584 2669 2484 
Q 3125 2378 3379 2068 
Q 3634 1759 3634 1313 
Q 3634 634 3220 271 
Q 2806 -91 2034 -91 
Q 1263 -91 848 271 
Q 434 634 434 1313 
Q 434 1759 690 2068 
Q 947 2378 1403 2484 
z
M 1172 3481 
Q 1172 3119 1398 2916 
Q 1625 2713 2034 2713 
Q 2441 2713 2670 2916 
Q 2900 3119 2900 3481 
Q 2900 3844 2670 4047 
Q 2441 4250 2034 4250 
Q 1625 4250 1398 4047 
Q 1172 3844 1172 3481 
z
" id="DejaVuSans-38" transform="scale(0.015625)"/>
       </defs>
       <use xlink:href="#DejaVuSans-30"/>
       <use x="63.623047" xlink:href="#DejaVuSans-2e"/>
       <use x="95.410156" xlink:href="#DejaVuSans-38"/>
      </g>
     </g>
    </g>
    <g id="ytick_6">
     <g id="line2d_15">
      <g>
       <use style="stroke:#000000;stroke-width:0.8;" x="57.6" xlink:href="#m9947d5d89c" y="41.472"/>
      </g>
     </g>
     <g id="text_16">
      <!-- 1.0 -->
      <g transform="translate(34.696875 45.271219)scale(0.1 -0.1)">
       <use xlink:href="#DejaVuSans-31"/>
       <use x="63.623047" xlink:href="#DejaVuSans-2e"/>
       <use x="95.410156" xlink:href="#DejaVuSans-30"/>
      </g>
     </g>
    </g>
    <g id="text_17">
     <!-- p(context) -->
     <g transform="translate(28.617187 200.449875)rotate(-90)scale(0.1 -0.1)">
      <defs>
       <path d="M 1159 525 
L 1159 -1331 
L 581 -1331 
L 581 3500 
L 1159 3500 
L 1159 2969 
Q 1341 3281 1617 3432 
Q 1894 3584 2278 3584 
Q 2916 3584 3314 3078 
Q 3713 2572 3713 1747 
Q 3713 922 3314 415 
Q 2916 -91 2278 -91 
Q 1894 -91 1617 61 
Q 1341 213 1159 525 
z
M 3116 1747 
Q 3116 2381 2855 2742 
Q 2594 3103 2138 3103 
Q 1681 3103 1420 2742 
Q 1159 2381 1159 1747 
Q 1159 1113 1420 752 
Q 1681 391 2138 391 
Q 2594 391 2855 752 
Q 3116 1113 3116 1747 
z
" id="DejaVuSans-70" transform="scale(0.015625)"/>
       <path d="M 1984 4856 
Q 1566 4138 1362 3434 
Q 1159 2731 1159 2009 
Q 1159 1288 1364 580 
Q 1569 -128 1984 -844 
L 1484 -844 
Q 1016 -109 783 600 
Q 550 1309 550 2009 
Q 550 2706 781 3412 
Q 1013 4119 1484 4856 
L 1984 4856 
z
" id="DejaVuSans-28" transform="scale(0.015625)"/>
       <path d="M 3122 3366 
L 3122 2828 
Q 2878 2963 2633 3030 
Q 2388 3097 2138 3097 
Q 1578 3097 1268 2742 
Q 959 2388 959 1747 
Q 959 1106 1268 751 
Q 1578 397 2138 397 
Q 2388 397 2633 464 
Q 2878 531 3122 666 
L 3122 134 
Q 2881 22 2623 -34 
Q 2366 -91 2075 -91 
Q 1284 -91 818 406 
Q 353 903 353 1747 
Q 353 2603 823 3093 
Q 1294 3584 2113 3584 
Q 2378 3584 2631 3529 
Q 2884 3475 3122 3366 
z
" id="DejaVuSans-63" transform="scale(0.015625)"/>
       <path d="M 1959 3097 
Q 1497 3097 1228 2736 
Q 959 2375 959 1747 
Q 959 1119 1226 758 
Q 1494 397 1959 397 
Q 2419 397 2687 759 
Q 2956 1122 2956 1747 
Q 2956 2369 2687 2733 
Q 2419 3097 1959 3097 
z
M 1959 3584 
Q 2709 3584 3137 3096 
Q 3566 2609 3566 1747 
Q 3566 888 3137 398 
Q 2709 -91 1959 -91 
Q 1206 -91 779 398 
Q 353 888 353 1747 
Q 353 2609 779 3096 
Q 1206 3584 1959 3584 
z
" id="DejaVuSans-6f" transform="scale(0.015625)"/>
       <path d="M 3513 2113 
L 3513 0 
L 2938 0 
L 2938 2094 
Q 2938 2591 2744 2837 
Q 2550 3084 2163 3084 
Q 1697 3084 1428 2787 
Q 1159 2491 1159 1978 
L 1159 0 
L 581 0 
L 581 3500 
L 1159 3500 
L 1159 2956 
Q 1366 3272 1645 3428 
Q 1925 3584 2291 3584 
Q 2894 3584 3203 3211 
Q 3513 2838 3513 2113 
z
" id="DejaVuSans-6e" transform="scale(0.015625)"/>
       <path d="M 3597 1894 
L 3597 1613 
L 953 1613 
Q 991 1019 1311 708 
Q 1631 397 2203 397 
Q 2534 397 2845 478 
Q 3156 559 3463 722 
L 3463 178 
Q 3153 47 2828 -22 
Q 2503 -91 2169 -91 
Q 1331 -91 842 396 
Q 353 884 353 1716 
Q 353 2575 817 3079 
Q 1281 3584 2069 3584 
Q 2775 3584 3186 3129 
Q 3597 2675 3597 1894 
z
M 3022 2063 
Q 3016 2534 2758 2815 
Q 2500 3097 2075 3097 
Q 1594 3097 1305 2825 
Q 1016 2553 972 2059 
L 3022 2063 
z
" id="DejaVuSans-65" transform="scale(0.015625)"/>
       <path d="M 3513 3500 
L 2247 1797 
L 3578 0 
L 2900 0 
L 1881 1375 
L 863 0 
L 184 0 
L 1544 1831 
L 300 3500 
L 978 3500 
L 1906 2253 
L 2834 3500 
L 3513 3500 
z
" id="DejaVuSans-78" transform="scale(0.015625)"/>
       <path d="M 513 4856 
L 1013 4856 
Q 1481 4119 1714 3412 
Q 1947 2706 1947 2009 
Q 1947 1309 1714 600 
Q 1481 -109 1013 -844 
L 513 -844 
Q 928 -128 1133 580 
Q 1338 1288 1338 2009 
Q 1338 2731 1133 3434 
Q 928 4138 513 4856 
z
" id="DejaVuSans-29" transform="scale(0.015625)"/>
      </defs>
      <use xlink:href="#DejaVuSans-70"/>
      <use x="63.476562" xlink:href="#DejaVuSans-28"/>
      <use x="102.490234" xlink:href="#DejaVuSans-63"/>
      <use x="157.470703" xlink:href="#DejaVuSans-6f"/>
      <use x="218.652344" xlink:href="#DejaVuSans-6e"/>
      <use x="282.03125" xlink:href="#DejaVuSans-74"/>
      <use x="321.240234" xlink:href="#DejaVuSans-65"/>
      <use x="381.013672" xlink:href="#DejaVuSans-78"/>
      <use x="440.193359" xlink:href="#DejaVuSans-74"/>
      <use x="479.402344" xlink:href="#DejaVuSans-29"/>
     </g>
    </g>
   </g>
   <g id="line2d_16">
    <path clip-path="url(#p167efbc4fb)" d="M 73.832727 147.9168 
L 81.949091 62.114985 
L 90.065455 221.839696 
L 98.181818 273.607595 
L 106.298182 288.749211 
L 114.414545 294.936074 
L 122.530909 298.159847 
L 130.647273 300.110918 
L 138.763636 301.409749 
L 146.88 142.742456 
L 154.996364 269.275456 
L 163.112727 294.493459 
L 171.229091 298.701226 
L 179.345455 299.927777 
L 187.461818 300.660596 
L 195.578182 301.238956 
L 203.694545 276.700453 
L 211.810909 298.747887 
L 219.927273 276.490025 
L 228.043636 119.500346 
L 236.16 183.342464 
L 244.276364 85.000513 
L 252.392727 67.244462 
L 260.509091 243.8925 
L 268.625455 290.611375 
L 276.741818 141.857989 
L 284.858182 81.680932 
L 292.974545 69.686378 
L 301.090909 65.713265 
L 309.207273 63.155652 
L 317.323636 61.115854 
L 325.44 59.415699 
L 333.556364 57.976903 
L 341.672727 56.746337 
L 349.789091 55.68411 
L 357.905455 54.759512 
L 366.021818 53.948578 
L 374.138182 53.232398 
L 382.254545 52.595888 
L 390.370909 52.026903 
" style="fill:none;stroke:#add8e6;stroke-linecap:square;stroke-opacity:0.3;stroke-width:1.5;"/>
   </g>
   <g id="line2d_17">
    <path clip-path="url(#p167efbc4fb)" d="M 73.832727 147.9168 
L 81.949091 283.486027 
L 90.065455 109.845516 
L 98.181818 265.743235 
L 106.298182 292.15217 
L 114.414545 297.807871 
L 122.530909 154.069258 
L 130.647273 273.274142 
L 138.763636 292.675257 
L 146.88 296.526712 
L 154.996364 170.319579 
L 163.112727 273.673434 
L 171.229091 291.079477 
L 179.345455 294.521535 
L 187.461818 179.823571 
L 195.578182 272.954755 
L 203.694545 289.127119 
L 211.810909 185.187336 
L 219.927273 270.416434 
L 228.043636 285.807986 
L 236.16 257.169053 
L 244.276364 283.073797 
L 252.392727 197.393893 
L 260.509091 161.703261 
L 268.625455 148.086224 
L 276.741818 141.028465 
L 284.858182 256.844951 
L 292.974545 183.788702 
L 301.090909 261.654479 
L 309.207273 190.582327 
L 317.323636 166.344639 
L 325.44 157.938645 
L 333.556364 153.926455 
L 341.672727 151.119182 
L 349.789091 148.689876 
L 357.905455 252.666453 
L 366.021818 182.473616 
L 374.138182 161.955893 
L 382.254545 155.575974 
L 390.370909 250.466486 
" style="fill:none;stroke:#add8e6;stroke-linecap:square;stroke-opacity:0.3;stroke-width:1.5;"/>
   </g>
   <g id="line2d_18">
    <path clip-path="url(#p167efbc4fb)" d="M 73.832727 147.9168 
L 81.949091 62.114985 
L 90.065455 221.839696 
L 98.181818 273.607595 
L 106.298182 288.749211 
L 114.414545 294.936074 
L 122.530909 298.159847 
L 130.647273 300.110918 
L 138.763636 301.409749 
L 146.88 302.332429 
L 154.996364 144.736022 
L 163.112727 271.404946 
L 171.229091 295.93219 
L 179.345455 299.798226 
L 187.461818 300.834565 
L 195.578182 301.434025 
L 203.694545 277.328983 
L 211.810909 298.993184 
L 219.927273 277.106176 
L 228.043636 120.026257 
L 236.16 183.309947 
L 244.276364 88.069153 
L 252.392727 69.79827 
L 260.509091 64.470276 
L 268.625455 229.312011 
L 276.741818 100.304744 
L 284.858182 69.971941 
L 292.974545 64.135341 
L 301.090909 218.377947 
L 309.207273 98.956275 
L 317.323636 230.088824 
L 325.44 111.968716 
L 333.556364 77.108318 
L 341.672727 69.550356 
L 349.789091 66.787683 
L 357.905455 64.923758 
L 366.021818 63.362387 
L 374.138182 208.920358 
L 382.254545 98.722213 
L 390.370909 70.781999 
" style="fill:none;stroke:#add8e6;stroke-linecap:square;stroke-opacity:0.3;stroke-width:1.5;"/>
   </g>
   <g id="line2d_19">
    <path clip-path="url(#p167efbc4fb)" d="M 73.832727 147.9168 
L 81.949091 283.486027 
L 90.065455 300.452274 
L 98.181818 303.760196 
L 106.298182 305.002367 
L 114.414545 305.651055 
L 122.530909 306.04777 
L 130.647273 306.314131 
L 138.763636 306.504549 
L 146.88 171.97433 
L 154.996364 294.846108 
L 163.112727 304.858519 
L 171.229091 179.757961 
L 179.345455 292.231601 
L 187.461818 171.088246 
L 195.578182 286.725939 
L 203.694545 175.941606 
L 211.810909 283.2198 
L 219.927273 182.258867 
L 228.043636 280.367163 
L 236.16 264.41057 
L 244.276364 170.934078 
L 252.392727 275.244347 
L 260.509091 260.494155 
L 268.625455 255.447346 
L 276.741818 253.747722 
L 284.858182 253.205543 
L 292.974545 253.049087 
L 301.090909 253.01498 
L 309.207273 253.01708 
L 317.323636 253.028506 
L 325.44 253.041338 
L 333.556364 253.05346 
L 341.672727 253.064438 
L 349.789091 253.074291 
L 357.905455 253.083135 
L 366.021818 253.091099 
L 374.138182 253.098295 
L 382.254545 253.104818 
L 390.370909 253.110752 
" style="fill:none;stroke:#add8e6;stroke-linecap:square;stroke-opacity:0.3;stroke-width:1.5;"/>
   </g>
   <g id="line2d_20">
    <path clip-path="url(#p167efbc4fb)" d="M 73.832727 147.9168 
L 81.949091 283.486027 
L 90.065455 300.452274 
L 98.181818 303.760196 
L 106.298182 305.002367 
L 114.414545 305.651055 
L 122.530909 306.04777 
L 130.647273 306.314131 
L 138.763636 306.504549 
L 146.88 171.97433 
L 154.996364 294.846108 
L 163.112727 161.399807 
L 171.229091 288.575333 
L 179.345455 302.566484 
L 187.461818 185.373966 
L 195.578182 288.392404 
L 203.694545 177.871787 
L 211.810909 283.192583 
L 219.927273 298.000167 
L 228.043636 275.339044 
L 236.16 265.838932 
L 244.276364 296.39711 
L 252.392727 275.056486 
L 260.509091 266.830813 
L 268.625455 161.707411 
L 276.741818 116.998832 
L 284.858182 100.247333 
L 292.974545 91.079236 
L 301.090909 84.501599 
L 309.207273 258.004503 
L 317.323636 292.495914 
L 325.44 264.263641 
L 333.556364 145.261532 
L 341.672727 97.975543 
L 349.789091 84.788825 
L 357.905455 79.453374 
L 366.021818 75.950287 
L 374.138182 73.116393 
L 382.254545 248.391914 
L 390.370909 290.233919 
" style="fill:none;stroke:#add8e6;stroke-linecap:square;stroke-opacity:0.3;stroke-width:1.5;"/>
   </g>
   <g id="line2d_21">
    <path clip-path="url(#p167efbc4fb)" d="M 73.832727 147.9168 
L 81.949091 62.114985 
L 90.065455 221.839696 
L 98.181818 273.607595 
L 106.298182 103.999924 
L 114.414545 69.116239 
L 122.530909 214.379646 
L 130.647273 262.946576 
L 138.763636 276.906956 
L 146.88 124.926689 
L 154.996364 233.236941 
L 163.112727 264.328129 
L 171.229091 273.35219 
L 179.345455 277.491572 
L 187.461818 280.337648 
L 195.578182 282.631323 
L 203.694545 143.29482 
L 211.810909 243.680815 
L 219.927273 270.262753 
L 228.043636 276.960154 
L 236.16 237.557964 
L 244.276364 138.801509 
L 252.392727 107.873172 
L 260.509091 97.80447 
L 268.625455 92.440859 
L 276.741818 88.347397 
L 284.858182 84.838617 
L 292.974545 81.748988 
L 301.090909 79.009844 
L 309.207273 76.573596 
L 317.323636 74.400546 
L 325.44 72.45642 
L 333.556364 70.711596 
L 341.672727 69.140552 
L 349.789091 67.721354 
L 357.905455 66.435164 
L 366.021818 226.623981 
L 374.138182 104.869132 
L 382.254545 75.41313 
L 390.370909 69.478702 
" style="fill:none;stroke:#add8e6;stroke-linecap:square;stroke-opacity:0.3;stroke-width:1.5;"/>
   </g>
   <g id="line2d_22">
    <path clip-path="url(#p167efbc4fb)" d="M 73.832727 147.9168 
L 81.949091 283.486027 
L 90.065455 300.452274 
L 98.181818 303.760196 
L 106.298182 305.002367 
L 114.414545 158.965222 
L 122.530909 289.374827 
L 130.647273 302.378954 
L 138.763636 303.955352 
L 146.88 304.540439 
L 154.996364 304.939566 
L 163.112727 305.247804 
L 171.229091 305.494259 
L 179.345455 288.031655 
L 187.461818 304.651241 
L 195.578182 288.590292 
L 203.694545 304.840825 
L 211.810909 289.57259 
L 219.927273 305.024741 
L 228.043636 290.423391 
L 236.16 283.437125 
L 244.276364 304.796244 
L 252.392727 290.612089 
L 260.509091 143.329586 
L 268.625455 79.762211 
L 276.741818 65.358825 
L 284.858182 59.749092 
L 292.974545 56.4302 
L 301.090909 54.156759 
L 309.207273 52.494297 
L 317.323636 253.523803 
L 325.44 99.146159 
L 333.556364 58.802413 
L 341.672727 53.68918 
L 349.789091 52.328247 
L 357.905455 238.81908 
L 366.021818 96.798479 
L 374.138182 59.241624 
L 382.254545 232.352139 
L 390.370909 102.166457 
" style="fill:none;stroke:#add8e6;stroke-linecap:square;stroke-opacity:0.3;stroke-width:1.5;"/>
   </g>
   <g id="line2d_23">
    <path clip-path="url(#p167efbc4fb)" d="M 73.832727 147.9168 
L 81.949091 283.486027 
L 90.065455 300.452274 
L 98.181818 303.760196 
L 106.298182 150.493343 
L 114.414545 82.425122 
L 122.530909 261.416516 
L 130.647273 295.447783 
L 138.763636 300.341014 
L 146.88 301.814083 
L 154.996364 302.692686 
L 163.112727 303.33872 
L 171.229091 303.840856 
L 179.345455 304.241912 
L 187.461818 304.568775 
L 195.578182 304.839676 
L 203.694545 285.179641 
L 211.810909 303.524728 
L 219.927273 285.346879 
L 228.043636 303.715799 
L 236.16 286.292016 
L 244.276364 130.966615 
L 252.392727 72.135434 
L 260.509091 61.521988 
L 268.625455 57.650716 
L 276.741818 55.210583 
L 284.858182 53.429776 
L 292.974545 244.658937 
L 301.090909 94.616918 
L 309.207273 59.020181 
L 317.323636 54.363938 
L 325.44 231.41039 
L 333.556364 294.115188 
L 341.672727 269.781053 
L 349.789091 111.465294 
L 357.905455 257.667324 
L 366.021818 113.092971 
L 374.138182 251.523795 
L 382.254545 292.2732 
L 390.370909 265.213621 
" style="fill:none;stroke:#add8e6;stroke-linecap:square;stroke-opacity:0.3;stroke-width:1.5;"/>
   </g>
   <g id="line2d_24">
    <path clip-path="url(#p167efbc4fb)" d="M 73.832727 147.9168 
L 81.949091 283.486027 
L 90.065455 109.845516 
L 98.181818 69.670189 
L 106.298182 242.403559 
L 114.414545 285.054601 
L 122.530909 294.187399 
L 130.647273 297.751003 
L 138.763636 299.810013 
L 146.88 301.188771 
L 154.996364 302.175981 
L 163.112727 302.913896 
L 171.229091 162.306005 
L 179.345455 278.944778 
L 187.461818 298.221765 
L 195.578182 169.305087 
L 203.694545 275.633027 
L 211.810909 158.904081 
L 219.927273 104.271925 
L 228.043636 249.421525 
L 236.16 237.324815 
L 244.276364 139.072991 
L 252.392727 102.741637 
L 260.509091 90.714307 
L 268.625455 84.806639 
L 276.741818 235.961933 
L 284.858182 135.739993 
L 292.974545 100.162198 
L 301.090909 89.300395 
L 309.207273 84.636006 
L 317.323636 81.542356 
L 325.44 230.355481 
L 333.556364 130.007106 
L 341.672727 96.456845 
L 349.789091 86.816506 
L 357.905455 226.839824 
L 366.021818 131.49216 
L 374.138182 99.80829 
L 382.254545 226.220457 
L 390.370909 264.682786 
" style="fill:none;stroke:#add8e6;stroke-linecap:square;stroke-opacity:0.3;stroke-width:1.5;"/>
   </g>
   <g id="line2d_25">
    <path clip-path="url(#p167efbc4fb)" d="M 73.832727 147.9168 
L 81.949091 283.486027 
L 90.065455 300.452274 
L 98.181818 303.760196 
L 106.298182 150.493343 
L 114.414545 82.425122 
L 122.530909 261.416516 
L 130.647273 295.447783 
L 138.763636 300.341014 
L 146.88 301.814083 
L 154.996364 302.692686 
L 163.112727 303.33872 
L 171.229091 303.840856 
L 179.345455 304.241912 
L 187.461818 171.499526 
L 195.578182 284.840642 
L 203.694545 158.212605 
L 211.810909 277.094982 
L 219.927273 297.179646 
L 228.043636 272.709362 
L 236.16 260.615408 
L 244.276364 295.405585 
L 252.392727 272.142819 
L 260.509091 148.446608 
L 268.625455 97.258944 
L 276.741818 82.299212 
L 284.858182 75.582856 
L 292.974545 71.089102 
L 301.090909 67.624778 
L 309.207273 64.840253 
L 317.323636 62.558939 
L 325.44 60.663392 
L 333.556364 59.068947 
L 341.672727 243.769671 
L 349.789091 109.574709 
L 357.905455 69.223943 
L 366.021818 61.725865 
L 374.138182 59.670709 
L 382.254545 58.485494 
L 390.370909 57.516411 
" style="fill:none;stroke:#add8e6;stroke-linecap:square;stroke-opacity:0.3;stroke-width:1.5;"/>
   </g>
   <g id="line2d_26">
    <path clip-path="url(#p167efbc4fb)" d="M 73.832727 147.9168 
L 81.949091 283.486027 
L 90.065455 300.452274 
L 98.181818 303.760196 
L 106.298182 150.493343 
L 114.414545 82.425122 
L 122.530909 261.416516 
L 130.647273 295.447783 
L 138.763636 300.341014 
L 146.88 301.814083 
L 154.996364 302.692686 
L 163.112727 169.102615 
L 171.229091 281.420427 
L 179.345455 298.411345 
L 187.461818 300.956643 
L 195.578182 178.355517 
L 203.694545 106.360166 
L 211.810909 83.976281 
L 219.927273 249.009757 
L 228.043636 289.136126 
L 236.16 259.718707 
L 244.276364 142.227534 
L 252.392727 95.505138 
L 260.509091 81.942029 
L 268.625455 76.224942 
L 276.741818 72.475002 
L 284.858182 69.509789 
L 292.974545 67.038253 
L 301.090909 64.94158 
L 309.207273 63.144875 
L 317.323636 61.592403 
L 325.44 60.240783 
L 333.556364 59.05575 
L 341.672727 58.009982 
L 349.789091 57.081525 
L 357.905455 238.599707 
L 366.021818 105.218867 
L 374.138182 67.158805 
L 382.254545 60.035765 
L 390.370909 58.303546 
" style="fill:none;stroke:#add8e6;stroke-linecap:square;stroke-opacity:0.3;stroke-width:1.5;"/>
   </g>
   <g id="line2d_27">
    <path clip-path="url(#p167efbc4fb)" d="M 73.832727 147.9168 
L 81.949091 283.486027 
L 90.065455 300.452274 
L 98.181818 303.760196 
L 106.298182 150.493343 
L 114.414545 285.797558 
L 122.530909 300.797549 
L 130.647273 302.910265 
L 138.763636 303.757383 
L 146.88 304.323964 
L 154.996364 304.748797 
L 163.112727 305.080058 
L 171.229091 305.34498 
L 179.345455 305.56117 
L 187.461818 288.793903 
L 195.578182 304.720079 
L 203.694545 289.248356 
L 211.810909 304.890665 
L 219.927273 290.139336 
L 228.043636 305.060711 
L 236.16 290.919263 
L 244.276364 140.857564 
L 252.392727 76.878057 
L 260.509091 63.472885 
L 268.625455 260.545169 
L 276.741818 300.265525 
L 284.858182 283.526929 
L 292.974545 126.047101 
L 301.090909 69.42104 
L 309.207273 60.783906 
L 317.323636 243.811225 
L 325.44 104.785773 
L 333.556364 67.126427 
L 341.672727 60.865803 
L 349.789091 58.629885 
L 357.905455 57.065693 
L 366.021818 55.781592 
L 374.138182 54.694896 
L 382.254545 53.76343 
L 390.370909 52.957124 
" style="fill:none;stroke:#add8e6;stroke-linecap:square;stroke-opacity:0.3;stroke-width:1.5;"/>
   </g>
   <g id="line2d_28">
    <path clip-path="url(#p167efbc4fb)" d="M 73.832727 147.9168 
L 81.949091 283.486027 
L 90.065455 300.452274 
L 98.181818 303.760196 
L 106.298182 305.002367 
L 114.414545 305.651055 
L 122.530909 306.04777 
L 130.647273 306.314131 
L 138.763636 170.394791 
L 146.88 294.101144 
L 154.996364 304.50496 
L 163.112727 178.784939 
L 171.229091 291.39562 
L 179.345455 302.840555 
L 187.461818 304.11856 
L 195.578182 284.425015 
L 203.694545 302.977008 
L 211.810909 284.835382 
L 219.927273 150.657049 
L 228.043636 89.656453 
L 236.16 173.644179 
L 244.276364 94.750455 
L 252.392727 74.931015 
L 260.509091 247.259073 
L 268.625455 127.51661 
L 276.741818 84.896633 
L 284.858182 73.942801 
L 292.974545 69.450021 
L 301.090909 66.451804 
L 309.207273 64.06857 
L 317.323636 232.377309 
L 325.44 112.447607 
L 333.556364 75.066245 
L 341.672727 229.683841 
L 349.789091 282.928693 
L 357.905455 294.351597 
L 366.021818 258.977456 
L 374.138182 290.438202 
L 382.254545 257.264112 
L 390.370909 290.452342 
" style="fill:none;stroke:#add8e6;stroke-linecap:square;stroke-opacity:0.3;stroke-width:1.5;"/>
   </g>
   <g id="line2d_29">
    <path clip-path="url(#p167efbc4fb)" d="M 73.832727 147.9168 
L 81.949091 283.486027 
L 90.065455 300.452274 
L 98.181818 303.760196 
L 106.298182 305.002367 
L 114.414545 305.651055 
L 122.530909 306.04777 
L 130.647273 306.314131 
L 138.763636 306.504549 
L 146.88 306.646995 
L 154.996364 306.757293 
L 163.112727 294.375296 
L 171.229091 306.372733 
L 179.345455 294.972431 
L 187.461818 306.467821 
L 195.578182 295.741544 
L 203.694545 306.553736 
L 211.810909 296.387435 
L 219.927273 306.624156 
L 228.043636 296.935329 
L 236.16 291.790156 
L 244.276364 306.514906 
L 252.392727 297.059031 
L 260.509091 292.387108 
L 268.625455 306.576385 
L 276.741818 297.266559 
L 284.858182 292.950415 
L 292.974545 128.068418 
L 301.090909 294.085689 
L 309.207273 288.612123 
L 317.323636 121.479328 
L 325.44 68.447713 
L 333.556364 59.72581 
L 341.672727 56.07644 
L 349.789091 53.739773 
L 357.905455 52.072013 
L 366.021818 50.818481 
L 374.138182 49.841741 
L 382.254545 49.059331 
L 390.370909 48.418599 
" style="fill:none;stroke:#add8e6;stroke-linecap:square;stroke-opacity:0.3;stroke-width:1.5;"/>
   </g>
   <g id="line2d_30">
    <path clip-path="url(#p167efbc4fb)" d="M 73.832727 147.9168 
L 81.949091 283.486027 
L 90.065455 300.452274 
L 98.181818 303.760196 
L 106.298182 305.002367 
L 114.414545 305.651055 
L 122.530909 306.04777 
L 130.647273 306.314131 
L 138.763636 170.394791 
L 146.88 294.101144 
L 154.996364 304.50496 
L 163.112727 178.784939 
L 171.229091 291.39562 
L 179.345455 302.840555 
L 187.461818 304.11856 
L 195.578182 284.425015 
L 203.694545 302.977008 
L 211.810909 284.835382 
L 219.927273 303.221395 
L 228.043636 285.826668 
L 236.16 278.021098 
L 244.276364 154.493625 
L 252.392727 96.957037 
L 260.509091 78.666703 
L 268.625455 265.080864 
L 276.741818 298.325638 
L 284.858182 277.387148 
L 292.974545 146.71393 
L 301.090909 88.842843 
L 309.207273 74.373787 
L 317.323636 68.887761 
L 325.44 65.412701 
L 333.556364 62.750807 
L 341.672727 60.605116 
L 349.789091 58.838833 
L 357.905455 57.363384 
L 366.021818 56.11545 
L 374.138182 55.048277 
L 382.254545 246.292521 
L 390.370909 106.0262 
" style="fill:none;stroke:#add8e6;stroke-linecap:square;stroke-opacity:0.3;stroke-width:1.5;"/>
   </g>
   <g id="line2d_31">
    <path clip-path="url(#p167efbc4fb)" d="M 73.832727 147.9168 
L 81.949091 283.486027 
L 90.065455 300.452274 
L 98.181818 303.760196 
L 106.298182 150.493343 
L 114.414545 285.797558 
L 122.530909 300.797549 
L 130.647273 166.461251 
L 138.763636 100.353495 
L 146.88 262.969498 
L 154.996364 292.718465 
L 163.112727 297.554769 
L 171.229091 299.096496 
L 179.345455 300.066109 
L 187.461818 300.826438 
L 195.578182 177.45186 
L 203.694545 280.246585 
L 211.810909 296.315621 
L 219.927273 298.905519 
L 228.043636 271.985695 
L 236.16 259.850867 
L 244.276364 147.825438 
L 252.392727 103.134517 
L 260.509091 88.340692 
L 268.625455 80.965507 
L 276.741818 75.852046 
L 284.858182 71.862209 
L 292.974545 68.633292 
L 301.090909 65.975548 
L 309.207273 63.760303 
L 317.323636 61.893196 
L 325.44 60.303346 
L 333.556364 58.936811 
L 341.672727 245.385352 
L 349.789091 111.304159 
L 357.905455 70.060853 
L 366.021818 62.075294 
L 374.138182 59.97936 
L 382.254545 237.21814 
L 390.370909 111.170598 
" style="fill:none;stroke:#add8e6;stroke-linecap:square;stroke-opacity:0.3;stroke-width:1.5;"/>
   </g>
   <g id="line2d_32">
    <path clip-path="url(#p167efbc4fb)" d="M 73.832727 147.9168 
L 81.949091 283.486027 
L 90.065455 300.452274 
L 98.181818 303.760196 
L 106.298182 150.493343 
L 114.414545 285.797558 
L 122.530909 148.925584 
L 130.647273 277.451495 
L 138.763636 295.805947 
L 146.88 171.673195 
L 154.996364 276.492212 
L 163.112727 292.640589 
L 171.229091 180.529945 
L 179.345455 273.98924 
L 187.461818 289.292024 
L 195.578182 292.465074 
L 203.694545 293.856984 
L 211.810909 294.885865 
L 219.927273 295.759454 
L 228.043636 267.292713 
L 236.16 256.915853 
L 244.276364 158.783665 
L 252.392727 273.307914 
L 260.509091 176.509375 
L 268.625455 137.392861 
L 276.741818 122.619753 
L 284.858182 114.414409 
L 292.974545 108.166929 
L 301.090909 102.818281 
L 309.207273 98.101199 
L 317.323636 93.915603 
L 325.44 252.568817 
L 333.556364 284.801892 
L 341.672727 167.694587 
L 349.789091 265.243496 
L 357.905455 163.062941 
L 366.021818 123.458167 
L 374.138182 110.634531 
L 382.254545 105.356683 
L 390.370909 102.084302 
" style="fill:none;stroke:#add8e6;stroke-linecap:square;stroke-opacity:0.3;stroke-width:1.5;"/>
   </g>
   <g id="line2d_33">
    <path clip-path="url(#p167efbc4fb)" d="M 73.832727 147.9168 
L 81.949091 283.486027 
L 90.065455 300.452274 
L 98.181818 136.459166 
L 106.298182 279.360659 
L 114.414545 297.954074 
L 122.530909 301.122276 
L 130.647273 165.124903 
L 138.763636 281.181167 
L 146.88 297.038619 
L 154.996364 299.700013 
L 163.112727 300.790487 
L 171.229091 301.557836 
L 179.345455 302.170424 
L 187.461818 302.674891 
L 195.578182 180.365274 
L 203.694545 285.206205 
L 211.810909 299.161847 
L 219.927273 276.184145 
L 228.043636 298.624722 
L 236.16 276.941496 
L 244.276364 156.292154 
L 252.392727 103.693479 
L 260.509091 86.568299 
L 268.625455 78.238297 
L 276.741818 254.024138 
L 284.858182 137.937245 
L 292.974545 92.954876 
L 301.090909 80.350046 
L 309.207273 75.12851 
L 317.323636 71.68962 
L 325.44 68.947521 
L 333.556364 66.644799 
L 341.672727 64.678389 
L 349.789091 240.818682 
L 357.905455 118.253437 
L 366.021818 77.531707 
L 374.138182 238.327016 
L 382.254545 124.08358 
L 390.370909 251.927841 
" style="fill:none;stroke:#add8e6;stroke-linecap:square;stroke-opacity:0.3;stroke-width:1.5;"/>
   </g>
   <g id="line2d_34">
    <path clip-path="url(#p167efbc4fb)" d="M 73.832727 147.9168 
L 81.949091 283.486027 
L 90.065455 109.845516 
L 98.181818 265.743235 
L 106.298182 120.872836 
L 114.414545 255.72656 
L 122.530909 282.645724 
L 130.647273 289.556015 
L 138.763636 292.971833 
L 146.88 295.28358 
L 154.996364 162.915506 
L 163.112727 269.537532 
L 171.229091 288.801712 
L 179.345455 292.754393 
L 187.461818 294.394145 
L 195.578182 174.059406 
L 203.694545 270.58198 
L 211.810909 288.209243 
L 219.927273 179.682726 
L 228.043636 131.887642 
L 236.16 195.533479 
L 244.276364 139.330958 
L 252.392727 119.936007 
L 260.509091 111.366627 
L 268.625455 105.65336 
L 276.741818 241.760544 
L 284.858182 151.554487 
L 292.974545 248.770716 
L 301.090909 270.907391 
L 309.207273 170.95757 
L 317.323636 134.794361 
L 325.44 239.587616 
L 333.556364 162.880474 
L 341.672727 242.894843 
L 349.789091 168.696683 
L 357.905455 144.708079 
L 366.021818 136.778304 
L 374.138182 133.099653 
L 382.254545 130.544448 
L 390.370909 128.335885 
" style="fill:none;stroke:#add8e6;stroke-linecap:square;stroke-opacity:0.3;stroke-width:1.5;"/>
   </g>
   <g id="line2d_35">
    <path clip-path="url(#p167efbc4fb)" d="M 73.832727 147.9168 
L 81.949091 283.486027 
L 90.065455 300.452274 
L 98.181818 303.760196 
L 106.298182 305.002367 
L 114.414545 158.965222 
L 122.530909 289.374827 
L 130.647273 154.75678 
L 138.763636 281.828283 
L 146.88 298.39862 
L 154.996364 300.908848 
L 163.112727 301.854739 
L 171.229091 302.506551 
L 179.345455 303.025017 
L 187.461818 303.451488 
L 195.578182 281.543036 
L 203.694545 142.105034 
L 211.810909 280.483794 
L 219.927273 299.645805 
L 228.043636 277.882276 
L 236.16 267.926121 
L 244.276364 138.8889 
L 252.392727 91.154371 
L 260.509091 260.635412 
L 268.625455 143.201879 
L 276.741818 97.288818 
L 284.858182 83.792768 
L 292.974545 77.598074 
L 301.090909 73.342429 
L 309.207273 69.977718 
L 317.323636 240.925706 
L 325.44 122.088017 
L 333.556364 82.409859 
L 341.672727 72.956918 
L 349.789091 69.57758 
L 357.905455 67.429569 
L 366.021818 65.673432 
L 374.138182 64.146065 
L 382.254545 233.828322 
L 390.370909 113.230123 
" style="fill:none;stroke:#add8e6;stroke-linecap:square;stroke-opacity:0.3;stroke-width:1.5;"/>
   </g>
   <g id="line2d_36">
    <path clip-path="url(#p167efbc4fb)" d="M 73.832727 214.4448 
L 81.949091 298.840117 
L 90.065455 154.108101 
L 98.181818 95.812532 
L 106.298182 75.191433 
L 114.414545 65.678778 
L 122.530909 60.356599 
L 130.647273 56.977343 
L 138.763636 54.644837 
L 146.88 237.131165 
L 154.996364 95.564854 
L 163.112727 63.488479 
L 171.229091 57.66896 
L 179.345455 55.767784 
L 187.461818 54.553307 
L 195.578182 53.572726 
L 203.694545 84.752129 
L 211.810909 56.70529 
L 219.927273 84.770477 
L 228.043636 260.449265 
L 236.16 186.358962 
L 244.276364 285.472483 
L 252.392727 298.262004 
L 260.509091 123.08917 
L 268.625455 66.533401 
L 276.741818 234.781952 
L 284.858182 286.376155 
L 292.974545 295.253694 
L 301.090909 297.664389 
L 309.207273 299.033768 
L 317.323636 300.069508 
L 325.44 300.903452 
L 333.556364 301.588851 
L 341.672727 302.159866 
L 349.789091 302.641141 
L 357.905455 303.051011 
L 366.021818 303.40335 
L 374.138182 303.708809 
L 382.254545 303.975666 
L 390.370909 304.210433 
" style="fill:none;stroke:#ff0000;stroke-linecap:square;stroke-opacity:0.1;stroke-width:1.5;"/>
   </g>
   <g id="line2d_37">
    <path clip-path="url(#p167efbc4fb)" d="M 73.832727 214.4448 
L 81.949091 86.800505 
L 90.065455 262.432683 
L 98.181818 109.975787 
L 106.298182 74.860501 
L 114.414545 65.20551 
L 122.530909 223.258365 
L 130.647273 97.020309 
L 138.763636 71.251485 
L 146.88 65.183426 
L 154.996364 207.216456 
L 163.112727 94.383371 
L 171.229091 71.866776 
L 179.345455 66.824516 
L 187.461818 197.540038 
L 195.578182 93.861339 
L 203.694545 73.390088 
L 211.810909 191.300555 
L 219.927273 96.244175 
L 228.043636 77.157218 
L 236.16 111.274604 
L 244.276364 80.75124 
L 252.392727 177.11909 
L 260.509091 211.011923 
L 268.625455 223.188487 
L 276.741818 229.129616 
L 284.858182 112.641923 
L 292.974545 187.649798 
L 301.090909 106.714549 
L 309.207273 180.631991 
L 317.323636 203.818213 
L 325.44 211.425079 
L 333.556364 214.769779 
L 341.672727 216.967668 
L 349.789091 218.825283 
L 357.905455 118.628183 
L 366.021818 185.990451 
L 374.138182 205.564582 
L 382.254545 211.382332 
L 390.370909 121.27107 
" style="fill:none;stroke:#ff0000;stroke-linecap:square;stroke-opacity:0.1;stroke-width:1.5;"/>
   </g>
   <g id="line2d_38">
    <path clip-path="url(#p167efbc4fb)" d="M 73.832727 214.4448 
L 81.949091 298.840117 
L 90.065455 154.108101 
L 98.181818 95.812532 
L 106.298182 75.191433 
L 114.414545 65.678778 
L 122.530909 60.356599 
L 130.647273 56.977343 
L 138.763636 54.644837 
L 146.88 52.939097 
L 154.996364 235.96289 
L 163.112727 92.731847 
L 171.229091 61.269982 
L 179.345455 55.904286 
L 187.461818 54.287215 
L 195.578182 53.279821 
L 203.694545 83.94285 
L 211.810909 56.366915 
L 219.927273 83.983287 
L 228.043636 259.838729 
L 236.16 186.437227 
L 244.276364 284.613876 
L 252.392727 297.821024 
L 260.509091 300.552042 
L 268.625455 138.541178 
L 276.741818 271.548004 
L 284.858182 295.8523 
L 292.974545 299.574369 
L 301.090909 150.618461 
L 309.207273 270.458305 
L 317.323636 136.094589 
L 325.44 258.156845 
L 333.556364 288.568282 
L 341.672727 294.463387 
L 349.789091 296.258138 
L 357.905455 297.332505 
L 366.021818 298.193814 
L 374.138182 161.658356 
L 382.254545 267.384613 
L 390.370909 291.713251 
" style="fill:none;stroke:#ff0000;stroke-linecap:square;stroke-opacity:0.1;stroke-width:1.5;"/>
   </g>
   <g id="line2d_39">
    <path clip-path="url(#p167efbc4fb)" d="M 73.832727 214.4448 
L 81.949091 86.800505 
L 90.065455 62.784008 
L 98.181818 55.34548 
L 106.298182 51.878491 
L 114.414545 49.864136 
L 122.530909 48.5369 
L 130.647273 47.591829 
L 138.763636 46.882818 
L 146.88 210.289448 
L 154.996364 67.86572 
L 163.112727 50.247794 
L 171.229091 198.988348 
L 179.345455 70.430663 
L 187.461818 204.92872 
L 195.578182 77.087175 
L 203.694545 198.354853 
L 211.810909 80.77898 
L 219.927273 190.810511 
L 228.043636 83.688949 
L 236.16 100.282177 
L 244.276364 202.416416 
L 252.392727 89.092653 
L 260.509091 104.618905 
L 268.625455 110.244595 
L 276.741818 112.161919 
L 284.858182 112.777454 
L 292.974545 112.957702 
L 301.090909 112.999556 
L 309.207273 113.000224 
L 317.323636 112.990079 
L 325.44 112.978092 
L 333.556364 112.966682 
L 341.672727 112.956365 
L 349.789091 112.947144 
L 357.905455 112.938904 
L 366.021818 112.931518 
L 374.138182 112.924875 
L 382.254545 112.918877 
L 390.370909 112.913445 
" style="fill:none;stroke:#ff0000;stroke-linecap:square;stroke-opacity:0.1;stroke-width:1.5;"/>
   </g>
   <g id="line2d_40">
    <path clip-path="url(#p167efbc4fb)" d="M 73.832727 214.4448 
L 81.949091 86.800505 
L 90.065455 62.784008 
L 98.181818 55.34548 
L 106.298182 51.878491 
L 114.414545 49.864136 
L 122.530909 48.5369 
L 130.647273 47.591829 
L 138.763636 46.882818 
L 146.88 210.289448 
L 154.996364 67.86572 
L 163.112727 216.675631 
L 171.229091 75.719358 
L 179.345455 53.86683 
L 187.461818 190.747231 
L 195.578182 74.583967 
L 203.694545 196.484313 
L 211.810909 80.71812 
L 219.927273 59.9846 
L 228.043636 87.577823 
L 236.16 98.476749 
L 244.276364 61.954529 
L 252.392727 87.852636 
L 260.509091 97.281304 
L 268.625455 213.596388 
L 276.741818 255.129851 
L 284.858182 269.250805 
L 292.974545 276.327178 
L 301.090909 281.139687 
L 309.207273 111.029094 
L 317.323636 66.887984 
L 325.44 99.252571 
L 333.556364 226.196436 
L 341.672727 269.254729 
L 349.789091 280.43012 
L 357.905455 284.50315 
L 366.021818 286.984501 
L 374.138182 288.927619 
L 382.254545 121.947555 
L 390.370909 69.741516 
" style="fill:none;stroke:#ff0000;stroke-linecap:square;stroke-opacity:0.1;stroke-width:1.5;"/>
   </g>
   <g id="line2d_41">
    <path clip-path="url(#p167efbc4fb)" d="M 73.832727 214.4448 
L 81.949091 298.840117 
L 90.065455 154.108101 
L 98.181818 95.812532 
L 106.298182 269.104568 
L 114.414545 294.441302 
L 122.530909 159.715605 
L 130.647273 105.384079 
L 138.763636 88.002048 
L 146.88 249.075577 
L 154.996364 136.52304 
L 163.112727 101.115614 
L 171.229091 90.133941 
L 179.345455 84.727848 
L 187.461818 80.867185 
L 195.578182 77.707611 
L 203.694545 233.321936 
L 211.810909 121.710933 
L 219.927273 91.389114 
L 228.043636 83.464583 
L 236.16 129.421564 
L 244.276364 235.414239 
L 252.392727 262.664643 
L 260.509091 270.786954 
L 268.625455 274.835213 
L 276.741818 277.814962 
L 284.858182 280.322124 
L 292.974545 282.501386 
L 301.090909 284.412136 
L 309.207273 286.094464 
L 317.323636 287.580986 
L 325.44 288.899278 
L 333.556364 290.07275 
L 341.672727 291.121255 
L 349.789091 292.061619 
L 357.905455 292.908103 
L 366.021818 146.174154 
L 374.138182 259.537251 
L 382.254545 285.063024 
L 390.370909 290.000732 
" style="fill:none;stroke:#ff0000;stroke-linecap:square;stroke-opacity:0.1;stroke-width:1.5;"/>
   </g>
   <g id="line2d_42">
    <path clip-path="url(#p167efbc4fb)" d="M 73.832727 214.4448 
L 81.949091 86.800505 
L 90.065455 62.784008 
L 98.181818 55.34548 
L 106.298182 51.878491 
L 114.414545 219.526648 
L 122.530909 77.022067 
L 130.647273 56.188485 
L 138.763636 52.786141 
L 146.88 51.342362 
L 154.996364 50.311419 
L 163.112727 49.489227 
L 171.229091 48.813417 
L 179.345455 72.784235 
L 187.461818 50.210374 
L 195.578182 71.960309 
L 203.694545 49.769728 
L 211.810909 70.620754 
L 219.927273 49.353413 
L 228.043636 69.452841 
L 236.16 77.56102 
L 244.276364 49.579392 
L 252.392727 69.091916 
L 260.509091 239.470181 
L 268.625455 290.117443 
L 276.741818 298.953652 
L 284.858182 301.672865 
L 292.974545 303.085396 
L 301.090909 303.979058 
L 309.207273 304.594407 
L 317.323636 118.631274 
L 325.44 268.217318 
L 333.556364 299.868833 
L 341.672727 303.330589 
L 349.789091 304.012864 
L 357.905455 133.762889 
L 366.021818 267.896941 
L 374.138182 298.579442 
L 382.254545 138.11459 
L 390.370909 262.079548 
" style="fill:none;stroke:#ff0000;stroke-linecap:square;stroke-opacity:0.1;stroke-width:1.5;"/>
   </g>
   <g id="line2d_43">
    <path clip-path="url(#p167efbc4fb)" d="M 73.832727 214.4448 
L 81.949091 86.800505 
L 90.065455 62.784008 
L 98.181818 55.34548 
L 106.298182 226.896621 
L 114.414545 283.929153 
L 122.530909 112.638186 
L 130.647273 67.329437 
L 138.763636 59.209901 
L 146.88 56.342004 
L 154.996364 54.501564 
L 163.112727 53.094381 
L 171.229091 51.967591 
L 179.345455 51.044429 
L 187.461818 50.274987 
L 195.578182 49.62439 
L 203.694545 76.050097 
L 211.810909 51.533316 
L 219.927273 75.648529 
L 228.043636 51.124477 
L 236.16 74.375363 
L 244.276364 249.516895 
L 252.392727 294.827573 
L 260.509091 301.056273 
L 268.625455 302.800168 
L 276.741818 303.766313 
L 284.858182 304.42318 
L 292.974545 127.226738 
L 301.090909 273.016007 
L 309.207273 300.353095 
L 317.323636 303.353967 
L 325.44 140.281122 
L 333.556364 63.332381 
L 341.672727 91.921671 
L 349.789091 259.095363 
L 357.905455 106.446846 
L 366.021818 255.851708 
L 374.138182 112.537246 
L 382.254545 64.555913 
L 390.370909 96.621846 
" style="fill:none;stroke:#ff0000;stroke-linecap:square;stroke-opacity:0.1;stroke-width:1.5;"/>
   </g>
   <g id="line2d_44">
    <path clip-path="url(#p167efbc4fb)" d="M 73.832727 214.4448 
L 81.949091 86.800505 
L 90.065455 262.432683 
L 98.181818 293.075888 
L 106.298182 136.279397 
L 114.414545 84.406871 
L 122.530909 70.591287 
L 130.647273 64.368394 
L 138.763636 60.474218 
L 146.88 57.723306 
L 154.996364 55.669416 
L 163.112727 54.079827 
L 171.229091 218.046503 
L 179.345455 86.19703 
L 187.461818 60.462481 
L 195.578182 208.6512 
L 203.694545 89.315924 
L 211.810909 215.976109 
L 219.927273 264.553197 
L 228.043636 119.562549 
L 236.16 130.577377 
L 244.276364 233.56369 
L 252.392727 265.904309 
L 260.509091 275.813581 
L 268.625455 280.301236 
L 276.741818 134.492619 
L 284.858182 234.164101 
L 292.974545 266.143304 
L 301.090909 275.411559 
L 309.207273 279.090335 
L 317.323636 281.386226 
L 325.44 141.468764 
L 333.556364 237.352609 
L 341.672727 267.691103 
L 349.789091 276.104881 
L 357.905455 144.855213 
L 366.021818 235.118541 
L 374.138182 264.045096 
L 382.254545 144.717999 
L 390.370909 101.022339 
" style="fill:none;stroke:#ff0000;stroke-linecap:square;stroke-opacity:0.1;stroke-width:1.5;"/>
   </g>
   <g id="line2d_45">
    <path clip-path="url(#p167efbc4fb)" d="M 73.832727 214.4448 
L 81.949091 86.800505 
L 90.065455 62.784008 
L 98.181818 55.34548 
L 106.298182 226.896621 
L 114.414545 283.929153 
L 122.530909 112.638186 
L 130.647273 67.329437 
L 138.763636 59.209901 
L 146.88 56.342004 
L 154.996364 54.501564 
L 163.112727 53.094381 
L 171.229091 51.967591 
L 179.345455 51.044429 
L 187.461818 208.21219 
L 195.578182 78.443192 
L 203.694545 217.563326 
L 211.810909 87.424877 
L 219.927273 60.866028 
L 228.043636 90.862913 
L 236.16 104.221893 
L 244.276364 62.901143 
L 252.392727 91.351915 
L 260.509091 227.930421 
L 268.625455 272.837241 
L 276.741818 284.592026 
L 284.858182 289.294667 
L 292.974545 292.216706 
L 301.090909 294.377326 
L 309.207273 296.062145 
L 317.323636 297.40754 
L 325.44 298.500299 
L 333.556364 299.400879 
L 341.672727 129.125429 
L 349.789091 256.513206 
L 357.905455 290.838068 
L 366.021818 296.869551 
L 374.138182 298.308629 
L 382.254545 299.038686 
L 390.370909 299.610202 
" style="fill:none;stroke:#ff0000;stroke-linecap:square;stroke-opacity:0.1;stroke-width:1.5;"/>
   </g>
   <g id="line2d_46">
    <path clip-path="url(#p167efbc4fb)" d="M 73.832727 214.4448 
L 81.949091 86.800505 
L 90.065455 62.784008 
L 98.181818 55.34548 
L 106.298182 226.896621 
L 114.414545 283.929153 
L 122.530909 112.638186 
L 130.647273 67.329437 
L 138.763636 59.209901 
L 146.88 56.342004 
L 154.996364 54.501564 
L 163.112727 208.264583 
L 171.229091 83.701055 
L 179.345455 60.440624 
L 187.461818 56.443145 
L 195.578182 198.121122 
L 203.694545 262.945432 
L 211.810909 281.410481 
L 219.927273 121.30697 
L 228.043636 71.806156 
L 236.16 105.584666 
L 244.276364 230.272106 
L 252.392727 271.690594 
L 260.509091 282.791161 
L 268.625455 287.03417 
L 276.741818 289.631692 
L 284.858182 291.617361 
L 292.974545 293.238473 
L 301.090909 294.591128 
L 309.207273 295.733427 
L 317.323636 296.707415 
L 325.44 297.54512 
L 333.556364 298.271382 
L 341.672727 298.905678 
L 349.789091 299.463429 
L 357.905455 137.137362 
L 366.021818 258.324453 
L 374.138182 290.914648 
L 382.254545 296.834985 
L 390.370909 298.142033 
" style="fill:none;stroke:#ff0000;stroke-linecap:square;stroke-opacity:0.1;stroke-width:1.5;"/>
   </g>
   <g id="line2d_47">
    <path clip-path="url(#p167efbc4fb)" d="M 73.832727 214.4448 
L 81.949091 86.800505 
L 90.065455 62.784008 
L 98.181818 55.34548 
L 106.298182 226.896621 
L 114.414545 82.606808 
L 122.530909 59.539032 
L 130.647273 55.203929 
L 138.763636 53.230837 
L 146.88 51.843027 
L 154.996364 50.76331 
L 163.112727 49.894584 
L 171.229091 49.180547 
L 179.345455 48.583572 
L 187.461818 71.896259 
L 195.578182 49.956046 
L 203.694545 71.185313 
L 211.810909 49.555326 
L 219.927273 69.952804 
L 228.043636 49.170299 
L 236.16 68.868354 
L 244.276364 242.664293 
L 252.392727 292.71061 
L 260.509091 300.500654 
L 268.625455 108.83152 
L 276.741818 55.609924 
L 284.858182 77.071005 
L 292.974545 253.249936 
L 301.090909 296.868321 
L 309.207273 301.976446 
L 317.323636 126.333849 
L 325.44 266.680601 
L 333.556364 296.809542 
L 341.672727 300.962418 
L 349.789091 302.07454 
L 357.905455 302.751828 
L 366.021818 303.280557 
L 374.138182 303.713291 
L 382.254545 304.073673 
L 390.370909 304.377611 
" style="fill:none;stroke:#ff0000;stroke-linecap:square;stroke-opacity:0.1;stroke-width:1.5;"/>
   </g>
   <g id="line2d_48">
    <path clip-path="url(#p167efbc4fb)" d="M 73.832727 214.4448 
L 81.949091 86.800505 
L 90.065455 62.784008 
L 98.181818 55.34548 
L 106.298182 51.878491 
L 114.414545 49.864136 
L 122.530909 48.5369 
L 130.647273 47.591829 
L 138.763636 210.962611 
L 146.88 69.160714 
L 154.996364 51.167389 
L 163.112727 199.389091 
L 171.229091 71.754504 
L 179.345455 53.602984 
L 187.461818 51.120528 
L 195.578182 76.922872 
L 203.694545 52.906871 
L 211.810909 76.346559 
L 219.927273 227.885217 
L 228.043636 280.810295 
L 236.16 198.439244 
L 244.276364 275.647463 
L 252.392727 291.528568 
L 260.509091 122.695336 
L 268.625455 244.564492 
L 276.741818 282.137079 
L 284.858182 290.804222 
L 292.974545 293.836617 
L 301.090909 295.665732 
L 309.207273 297.055356 
L 317.323636 140.691769 
L 325.44 254.489549 
L 333.556364 287.355166 
L 341.672727 141.596026 
L 349.789091 77.552992 
L 357.905455 63.265255 
L 366.021818 103.918596 
L 374.138182 67.940329 
L 382.254545 105.631797 
L 390.370909 67.857351 
" style="fill:none;stroke:#ff0000;stroke-linecap:square;stroke-opacity:0.1;stroke-width:1.5;"/>
   </g>
   <g id="line2d_49">
    <path clip-path="url(#p167efbc4fb)" d="M 73.832727 214.4448 
L 81.949091 86.800505 
L 90.065455 62.784008 
L 98.181818 55.34548 
L 106.298182 51.878491 
L 114.414545 49.864136 
L 122.530909 48.5369 
L 130.647273 47.591829 
L 138.763636 46.882818 
L 146.88 46.330438 
L 154.996364 45.88753 
L 163.112727 63.933225 
L 171.229091 46.646499 
L 179.345455 63.049199 
L 187.461818 46.343812 
L 195.578182 61.937402 
L 203.694545 46.074963 
L 211.810909 60.994781 
L 219.927273 45.850063 
L 228.043636 60.187849 
L 236.16 66.264161 
L 244.276364 45.950652 
L 252.392727 59.917029 
L 260.509091 65.432084 
L 268.625455 45.772628 
L 276.741818 59.557479 
L 284.858182 64.657014 
L 292.974545 256.607102 
L 301.090909 66.433647 
L 309.207273 70.094371 
L 317.323636 262.852026 
L 325.44 300.605734 
L 333.556364 304.176568 
L 341.672727 305.178795 
L 349.789091 305.728957 
L 357.905455 306.086091 
L 366.021818 306.33535 
L 374.138182 306.518037 
L 382.254545 306.656978 
L 390.370909 306.765775 
" style="fill:none;stroke:#ff0000;stroke-linecap:square;stroke-opacity:0.1;stroke-width:1.5;"/>
   </g>
   <g id="line2d_50">
    <path clip-path="url(#p167efbc4fb)" d="M 73.832727 214.4448 
L 81.949091 86.800505 
L 90.065455 62.784008 
L 98.181818 55.34548 
L 106.298182 51.878491 
L 114.414545 49.864136 
L 122.530909 48.5369 
L 130.647273 47.591829 
L 138.763636 210.962611 
L 146.88 69.160714 
L 154.996364 51.167389 
L 163.112727 199.389091 
L 171.229091 71.754504 
L 179.345455 53.602984 
L 187.461818 51.120528 
L 195.578182 76.922872 
L 203.694545 52.906871 
L 211.810909 76.346559 
L 219.927273 52.429237 
L 228.043636 75.059512 
L 236.16 84.131697 
L 244.276364 222.041697 
L 252.392727 273.132222 
L 260.509091 287.260278 
L 268.625455 103.115759 
L 276.741818 58.905828 
L 284.858182 84.290138 
L 292.974545 227.757136 
L 301.090909 278.728798 
L 309.207273 290.141058 
L 317.323636 293.86565 
L 325.44 296.001848 
L 333.556364 297.562792 
L 341.672727 298.783032 
L 349.789091 299.762451 
L 357.905455 300.562568 
L 366.021818 301.225889 
L 374.138182 301.782926 
L 382.254545 127.476438 
L 390.370909 258.454115 
" style="fill:none;stroke:#ff0000;stroke-linecap:square;stroke-opacity:0.1;stroke-width:1.5;"/>
   </g>
   <g id="line2d_51">
    <path clip-path="url(#p167efbc4fb)" d="M 73.832727 214.4448 
L 81.949091 86.800505 
L 90.065455 62.784008 
L 98.181818 55.34548 
L 106.298182 226.896621 
L 114.414545 82.606808 
L 122.530909 59.539032 
L 130.647273 209.984434 
L 138.763636 268.224531 
L 146.88 108.914035 
L 154.996364 70.122736 
L 163.112727 62.745372 
L 171.229091 60.079908 
L 179.345455 58.29662 
L 187.461818 56.85817 
L 195.578182 199.409044 
L 203.694545 84.183564 
L 211.810909 62.838155 
L 219.927273 59.028911 
L 228.043636 92.51153 
L 236.16 105.921617 
L 244.276364 227.494144 
L 252.392727 266.96406 
L 260.509091 278.840163 
L 268.625455 284.25285 
L 276.741818 287.798437 
L 284.858182 290.473676 
L 292.974545 292.585633 
L 301.090909 294.287712 
L 309.207273 295.680048 
L 317.323636 296.833902 
L 325.44 297.801468 
L 333.556364 298.62159 
L 341.672727 128.883524 
L 349.789091 253.916453 
L 357.905455 289.175196 
L 366.021818 295.741688 
L 374.138182 297.290278 
L 382.254545 136.820517 
L 390.370909 252.95557 
" style="fill:none;stroke:#ff0000;stroke-linecap:square;stroke-opacity:0.1;stroke-width:1.5;"/>
   </g>
   <g id="line2d_52">
    <path clip-path="url(#p167efbc4fb)" d="M 73.832727 214.4448 
L 81.949091 86.800505 
L 90.065455 62.784008 
L 98.181818 55.34548 
L 106.298182 226.896621 
L 114.414545 82.606808 
L 122.530909 226.411597 
L 130.647273 92.065878 
L 138.763636 66.508202 
L 146.88 203.375155 
L 154.996364 91.509017 
L 163.112727 69.97458 
L 171.229091 193.959844 
L 179.345455 93.412787 
L 187.461818 73.701609 
L 195.578182 69.118076 
L 203.694545 66.912877 
L 211.810909 65.221321 
L 219.927273 63.7634 
L 228.043636 98.900961 
L 236.16 110.411831 
L 244.276364 217.930352 
L 252.392727 91.47249 
L 260.509091 199.782387 
L 268.625455 236.120089 
L 276.741818 248.905887 
L 284.858182 255.585325 
L 292.974545 260.487945 
L 301.090909 264.609853 
L 309.207273 268.203922 
L 317.323636 271.363863 
L 325.44 118.351084 
L 333.556364 78.696179 
L 341.672727 202.733667 
L 349.789091 101.97128 
L 357.905455 206.668363 
L 366.021818 243.636568 
L 374.138182 255.207504 
L 382.254545 259.698701 
L 390.370909 262.329216 
" style="fill:none;stroke:#ff0000;stroke-linecap:square;stroke-opacity:0.1;stroke-width:1.5;"/>
   </g>
   <g id="line2d_53">
    <path clip-path="url(#p167efbc4fb)" d="M 73.832727 214.4448 
L 81.949091 86.800505 
L 90.065455 62.784008 
L 98.181818 239.455794 
L 106.298182 92.040447 
L 114.414545 65.027346 
L 122.530909 58.990942 
L 130.647273 212.166095 
L 138.763636 86.693699 
L 146.88 64.425843 
L 154.996364 59.923309 
L 163.112727 57.84296 
L 171.229091 56.30899 
L 179.345455 55.052497 
L 187.461818 53.996308 
L 195.578182 199.759907 
L 203.694545 78.45692 
L 211.810909 58.970877 
L 219.927273 88.164565 
L 228.043636 59.553782 
L 236.16 87.141683 
L 244.276364 223.199202 
L 252.392727 269.096701 
L 260.509091 282.369962 
L 268.625455 288.14662 
L 276.741818 115.817793 
L 284.858182 235.202512 
L 292.974545 274.728329 
L 301.090909 284.965402 
L 309.207273 288.747996 
L 317.323636 291.046874 
L 325.44 292.812904 
L 333.556364 294.263603 
L 341.672727 295.480914 
L 349.789091 133.024168 
L 357.905455 248.744126 
L 366.021818 284.270178 
L 374.138182 133.681423 
L 382.254545 242.693828 
L 390.370909 116.120116 
" style="fill:none;stroke:#ff0000;stroke-linecap:square;stroke-opacity:0.1;stroke-width:1.5;"/>
   </g>
   <g id="line2d_54">
    <path clip-path="url(#p167efbc4fb)" d="M 73.832727 214.4448 
L 81.949091 86.800505 
L 90.065455 262.432683 
L 98.181818 109.975787 
L 106.298182 252.560685 
L 114.414545 119.823258 
L 122.530909 86.321625 
L 130.647273 76.177751 
L 138.763636 70.667599 
L 146.88 66.75147 
L 154.996364 215.560522 
L 163.112727 98.927856 
L 171.229091 74.536872 
L 179.345455 68.933483 
L 187.461818 66.334795 
L 195.578182 204.931643 
L 203.694545 95.850248 
L 211.810909 73.837057 
L 219.927273 198.191004 
L 228.043636 241.879817 
L 236.16 176.882893 
L 244.276364 234.961001 
L 252.392727 252.179584 
L 260.509091 259.181076 
L 268.625455 263.596422 
L 276.741818 129.341917 
L 284.858182 220.844518 
L 292.974545 120.631854 
L 301.090909 94.587403 
L 309.207273 202.144387 
L 317.323636 236.12464 
L 325.44 130.506971 
L 333.556364 209.072387 
L 341.672727 126.436125 
L 349.789091 203.180644 
L 357.905455 225.951678 
L 366.021818 233.093933 
L 374.138182 236.154301 
L 382.254545 238.153797 
L 390.370909 239.841382 
" style="fill:none;stroke:#ff0000;stroke-linecap:square;stroke-opacity:0.1;stroke-width:1.5;"/>
   </g>
   <g id="line2d_55">
    <path clip-path="url(#p167efbc4fb)" d="M 73.832727 214.4448 
L 81.949091 86.800505 
L 90.065455 62.784008 
L 98.181818 55.34548 
L 106.298182 51.878491 
L 114.414545 219.526648 
L 122.530909 77.022067 
L 130.647273 221.096404 
L 138.763636 85.863303 
L 146.88 61.975082 
L 154.996364 57.571993 
L 163.112727 55.711592 
L 171.229091 54.371053 
L 179.345455 53.277124 
L 187.461818 52.358426 
L 195.578182 81.103883 
L 203.694545 237.818725 
L 211.810909 83.87499 
L 219.927273 57.299475 
L 228.043636 85.137911 
L 236.16 96.469955 
L 244.276364 240.222005 
L 252.392727 280.785339 
L 260.509091 106.871398 
L 268.625455 233.331854 
L 276.741818 273.99509 
L 284.858182 284.685329 
L 292.974545 288.983406 
L 301.090909 291.700466 
L 309.207273 293.756373 
L 317.323636 131.236171 
L 325.44 247.811033 
L 333.556364 282.68641 
L 341.672727 290.431051 
L 349.789091 292.84252 
L 357.905455 294.219082 
L 366.021818 295.298296 
L 374.138182 296.218825 
L 382.254545 140.547693 
L 390.370909 253.072249 
" style="fill:none;stroke:#ff0000;stroke-linecap:square;stroke-opacity:0.1;stroke-width:1.5;"/>
   </g>
   <g id="line2d_56">
    <path clip-path="url(#p167efbc4fb)" d="M 73.832727 147.9168 
L 81.949091 250.280371 
L 90.065455 260.069373 
L 98.181818 275.366058 
L 106.298182 232.71321 
L 114.414545 237.319263 
L 122.530909 274.324137 
L 130.647273 275.537361 
L 138.763636 274.669573 
L 146.88 262.309258 
L 154.996364 273.785244 
L 163.112727 268.67517 
L 171.229091 277.565114 
L 179.345455 295.931435 
L 187.461818 274.607718 
L 195.578182 261.725246 
L 203.694545 247.212196 
L 211.810909 266.804975 
L 219.927273 260.809348 
L 228.043636 249.427968 
L 236.16 250.527976 
L 244.276364 175.62414 
L 252.392727 153.139959 
L 260.509091 151.317808 
L 268.625455 153.923981 
L 276.741818 156.294518 
L 284.858182 136.408462 
L 292.974545 117.463489 
L 301.090909 122.255381 
L 309.207273 111.509437 
L 317.323636 143.041492 
L 325.44 134.774489 
L 333.556364 113.97154 
L 341.672727 131.007221 
L 349.789091 120.18951 
L 357.905455 141.341942 
L 366.021818 112.549409 
L 374.138182 122.440272 
L 382.254545 159.529078 
L 390.370909 146.92923 
" style="fill:none;stroke:#1f77b4;stroke-linecap:square;stroke-width:1.5;"/>
   </g>
   <g id="line2d_57">
    <path clip-path="url(#p167efbc4fb)" d="M 73.832727 214.4448 
L 81.949091 118.606447 
L 90.065455 106.429923 
L 98.181818 87.970605 
L 106.298182 134.987881 
L 114.414545 127.412185 
L 122.530909 89.986194 
L 130.647273 87.177895 
L 138.763636 87.659756 
L 146.88 102.246816 
L 154.996364 88.70787 
L 163.112727 94.723674 
L 171.229091 84.436812 
L 179.345455 62.842196 
L 187.461818 86.612865 
L 195.578182 102.84773 
L 203.694545 117.609351 
L 211.810909 95.126598 
L 219.927273 102.073749 
L 228.043636 114.909873 
L 236.16 114.955152 
L 244.276364 195.328341 
L 252.392727 214.173248 
L 260.509091 216.866763 
L 268.625455 213.388088 
L 276.741818 210.203602 
L 284.858182 229.100334 
L 292.974545 250.252135 
L 301.090909 242.13856 
L 309.207273 252.194061 
L 317.323636 222.763826 
L 325.44 231.134457 
L 333.556364 249.081655 
L 341.672727 233.419165 
L 349.789091 243.42036 
L 357.905455 222.991321 
L 366.021818 250.727002 
L 374.138182 239.760673 
L 382.254545 205.384383 
L 390.370909 215.45499 
" style="fill:none;stroke:#ff0000;stroke-linecap:square;stroke-width:1.5;"/>
   </g>
   <g id="patch_5">
    <path d="M 57.6 307.584 
L 57.6 41.472 
" style="fill:none;stroke:#000000;stroke-linecap:square;stroke-linejoin:miter;stroke-width:0.8;"/>
   </g>
   <g id="patch_6">
    <path d="M 414.72 307.584 
L 414.72 41.472 
" style="fill:none;stroke:#000000;stroke-linecap:square;stroke-linejoin:miter;stroke-width:0.8;"/>
   </g>
   <g id="patch_7">
    <path d="M 57.6 307.584 
L 414.72 307.584 
" style="fill:none;stroke:#000000;stroke-linecap:square;stroke-linejoin:miter;stroke-width:0.8;"/>
   </g>
   <g id="patch_8">
    <path d="M 57.6 41.472 
L 414.72 41.472 
" style="fill:none;stroke:#000000;stroke-linecap:square;stroke-linejoin:miter;stroke-width:0.8;"/>
   </g>
   <g id="text_18">
    <!-- Player1_healthy -->
    <g transform="translate(188.127187 35.472)scale(0.12 -0.12)">
     <defs>
      <path d="M 1259 4147 
L 1259 2394 
L 2053 2394 
Q 2494 2394 2734 2622 
Q 2975 2850 2975 3272 
Q 2975 3691 2734 3919 
Q 2494 4147 2053 4147 
L 1259 4147 
z
M 628 4666 
L 2053 4666 
Q 2838 4666 3239 4311 
Q 3641 3956 3641 3272 
Q 3641 2581 3239 2228 
Q 2838 1875 2053 1875 
L 1259 1875 
L 1259 0 
L 628 0 
L 628 4666 
z
" id="DejaVuSans-50" transform="scale(0.015625)"/>
      <path d="M 603 4863 
L 1178 4863 
L 1178 0 
L 603 0 
L 603 4863 
z
" id="DejaVuSans-6c" transform="scale(0.015625)"/>
      <path d="M 2194 1759 
Q 1497 1759 1228 1600 
Q 959 1441 959 1056 
Q 959 750 1161 570 
Q 1363 391 1709 391 
Q 2188 391 2477 730 
Q 2766 1069 2766 1631 
L 2766 1759 
L 2194 1759 
z
M 3341 1997 
L 3341 0 
L 2766 0 
L 2766 531 
Q 2569 213 2275 61 
Q 1981 -91 1556 -91 
Q 1019 -91 701 211 
Q 384 513 384 1019 
Q 384 1609 779 1909 
Q 1175 2209 1959 2209 
L 2766 2209 
L 2766 2266 
Q 2766 2663 2505 2880 
Q 2244 3097 1772 3097 
Q 1472 3097 1187 3025 
Q 903 2953 641 2809 
L 641 3341 
Q 956 3463 1253 3523 
Q 1550 3584 1831 3584 
Q 2591 3584 2966 3190 
Q 3341 2797 3341 1997 
z
" id="DejaVuSans-61" transform="scale(0.015625)"/>
      <path d="M 2059 -325 
Q 1816 -950 1584 -1140 
Q 1353 -1331 966 -1331 
L 506 -1331 
L 506 -850 
L 844 -850 
Q 1081 -850 1212 -737 
Q 1344 -625 1503 -206 
L 1606 56 
L 191 3500 
L 800 3500 
L 1894 763 
L 2988 3500 
L 3597 3500 
L 2059 -325 
z
" id="DejaVuSans-79" transform="scale(0.015625)"/>
      <path d="M 2631 2963 
Q 2534 3019 2420 3045 
Q 2306 3072 2169 3072 
Q 1681 3072 1420 2755 
Q 1159 2438 1159 1844 
L 1159 0 
L 581 0 
L 581 3500 
L 1159 3500 
L 1159 2956 
Q 1341 3275 1631 3429 
Q 1922 3584 2338 3584 
Q 2397 3584 2469 3576 
Q 2541 3569 2628 3553 
L 2631 2963 
z
" id="DejaVuSans-72" transform="scale(0.015625)"/>
      <path d="M 3263 -1063 
L 3263 -1509 
L -63 -1509 
L -63 -1063 
L 3263 -1063 
z
" id="DejaVuSans-5f" transform="scale(0.015625)"/>
      <path d="M 3513 2113 
L 3513 0 
L 2938 0 
L 2938 2094 
Q 2938 2591 2744 2837 
Q 2550 3084 2163 3084 
Q 1697 3084 1428 2787 
Q 1159 2491 1159 1978 
L 1159 0 
L 581 0 
L 581 4863 
L 1159 4863 
L 1159 2956 
Q 1366 3272 1645 3428 
Q 1925 3584 2291 3584 
Q 2894 3584 3203 3211 
Q 3513 2838 3513 2113 
z
" id="DejaVuSans-68" transform="scale(0.015625)"/>
     </defs>
     <use xlink:href="#DejaVuSans-50"/>
     <use x="60.302734" xlink:href="#DejaVuSans-6c"/>
     <use x="88.085938" xlink:href="#DejaVuSans-61"/>
     <use x="149.365234" xlink:href="#DejaVuSans-79"/>
     <use x="208.544922" xlink:href="#DejaVuSans-65"/>
     <use x="270.068359" xlink:href="#DejaVuSans-72"/>
     <use x="311.181641" xlink:href="#DejaVuSans-31"/>
     <use x="374.804688" xlink:href="#DejaVuSans-5f"/>
     <use x="424.804688" xlink:href="#DejaVuSans-68"/>
     <use x="488.183594" xlink:href="#DejaVuSans-65"/>
     <use x="549.707031" xlink:href="#DejaVuSans-61"/>
     <use x="610.986328" xlink:href="#DejaVuSans-6c"/>
     <use x="638.769531" xlink:href="#DejaVuSans-74"/>
     <use x="677.978516" xlink:href="#DejaVuSans-68"/>
     <use x="741.357422" xlink:href="#DejaVuSans-79"/>
    </g>
   </g>
   <g id="legend_1">
    <g id="patch_9">
     <path d="M 351.635625 190.706125 
L 407.72 190.706125 
Q 409.72 190.706125 409.72 188.706125 
L 409.72 160.349875 
Q 409.72 158.349875 407.72 158.349875 
L 351.635625 158.349875 
Q 349.635625 158.349875 349.635625 160.349875 
L 349.635625 188.706125 
Q 349.635625 190.706125 351.635625 190.706125 
z
" style="fill:#ffffff;opacity:0.8;stroke:#cccccc;stroke-linejoin:miter;"/>
    </g>
    <g id="line2d_58">
     <path d="M 353.635625 166.448312 
L 373.635625 166.448312 
" style="fill:none;stroke:#1f77b4;stroke-linecap:square;stroke-width:1.5;"/>
    </g>
    <g id="line2d_59"/>
    <g id="text_19">
     <!-- coop -->
     <g transform="translate(381.635625 169.948312)scale(0.1 -0.1)">
      <use xlink:href="#DejaVuSans-63"/>
      <use x="54.980469" xlink:href="#DejaVuSans-6f"/>
      <use x="116.162109" xlink:href="#DejaVuSans-6f"/>
      <use x="177.34375" xlink:href="#DejaVuSans-70"/>
     </g>
    </g>
    <g id="line2d_60">
     <path d="M 353.635625 181.126437 
L 373.635625 181.126437 
" style="fill:none;stroke:#ff0000;stroke-linecap:square;stroke-width:1.5;"/>
    </g>
    <g id="line2d_61"/>
    <g id="text_20">
     <!-- host -->
     <g transform="translate(381.635625 184.626437)scale(0.1 -0.1)">
      <defs>
       <path d="M 2834 3397 
L 2834 2853 
Q 2591 2978 2328 3040 
Q 2066 3103 1784 3103 
Q 1356 3103 1142 2972 
Q 928 2841 928 2578 
Q 928 2378 1081 2264 
Q 1234 2150 1697 2047 
L 1894 2003 
Q 2506 1872 2764 1633 
Q 3022 1394 3022 966 
Q 3022 478 2636 193 
Q 2250 -91 1575 -91 
Q 1294 -91 989 -36 
Q 684 19 347 128 
L 347 722 
Q 666 556 975 473 
Q 1284 391 1588 391 
Q 1994 391 2212 530 
Q 2431 669 2431 922 
Q 2431 1156 2273 1281 
Q 2116 1406 1581 1522 
L 1381 1569 
Q 847 1681 609 1914 
Q 372 2147 372 2553 
Q 372 3047 722 3315 
Q 1072 3584 1716 3584 
Q 2034 3584 2315 3537 
Q 2597 3491 2834 3397 
z
" id="DejaVuSans-73" transform="scale(0.015625)"/>
      </defs>
      <use xlink:href="#DejaVuSans-68"/>
      <use x="63.378906" xlink:href="#DejaVuSans-6f"/>
      <use x="124.560547" xlink:href="#DejaVuSans-73"/>
      <use x="176.660156" xlink:href="#DejaVuSans-74"/>
     </g>
    </g>
   </g>
  </g>
 </g>
 <defs>
  <clipPath id="p167efbc4fb">
   <rect height="266.112" width="357.12" x="57.6" y="41.472"/>
  </clipPath>
 </defs>
</svg>
