<?xml version="1.0" encoding="utf-8" standalone="no"?>
<!DOCTYPE svg PUBLIC "-//W3C//DTD SVG 1.1//EN"
  "http://www.w3.org/Graphics/SVG/1.1/DTD/svg11.dtd">
<svg xmlns:xlink="http://www.w3.org/1999/xlink" width="720pt" height="288pt" viewBox="0 0 720 288" xmlns="http://www.w3.org/2000/svg" version="1.1">
 <metadata>
  <rdf:RDF xmlns:dc="http://purl.org/dc/elements/1.1/" xmlns:cc="http://creativecommons.org/ns#" xmlns:rdf="http://www.w3.org/1999/02/22-rdf-syntax-ns#">
   <cc:Work>
    <dc:type rdf:resource="http://purl.org/dc/dcmitype/StillImage"/>
    <dc:date>2024-07-03T15:55:10.391014</dc:date>
    <dc:format>image/svg+xml</dc:format>
    <dc:creator>
     <cc:Agent>
      <dc:title>Matplotlib v3.7.2, https://matplotlib.org/</dc:title>
     </cc:Agent>
    </dc:creator>
   </cc:Work>
  </rdf:RDF>
 </metadata>
 <defs>
  <style type="text/css">*{stroke-linejoin: round; stroke-linecap: butt}</style>
 </defs>
 <g id="figure_1">
  <g id="patch_1">
   <path d="M 0 288 
L 720 288 
L 720 0 
L 0 0 
z
" style="fill: #ffffff"/>
  </g>
  <g id="axes_1">
   <g id="patch_2">
    <path d="M 90 256.32 
L 254.117647 256.32 
L 254.117647 34.56 
L 90 34.56 
z
" style="fill: #ffffff"/>
   </g>
   <g id="PolyCollection_1">
    <defs>
     <path id="m1d6c94e3f2" d="M 173.75839 -103.147465 
L 170.359257 -103.147465 
L 169.910468 -103.227533 
L 169.364347 -103.307601 
L 168.705534 -103.387669 
L 167.917675 -103.467738 
L 166.983729 -103.547806 
L 165.886371 -103.627874 
L 164.608525 -103.707942 
L 163.134002 -103.78801 
L 161.448262 -103.868079 
L 159.539276 -103.948147 
L 157.398473 -104.028215 
L 155.021729 -104.108283 
L 152.410374 -104.188351 
L 149.572146 -104.26842 
L 146.522035 -104.348488 
L 143.282946 -104.428556 
L 139.886116 -104.508624 
L 136.371201 -104.588692 
L 132.785996 -104.668761 
L 129.185721 -104.748829 
L 125.631872 -104.828897 
L 122.190629 -104.908965 
L 118.930864 -104.989033 
L 115.921824 -105.069102 
L 113.230579 -105.14917 
L 110.919371 -105.229238 
L 109.043012 -105.309306 
L 107.646474 -105.389374 
L 106.762845 -105.469443 
L 106.411765 -105.549511 
L 106.598473 -105.629579 
L 107.313529 -105.709647 
L 108.533237 -105.789716 
L 110.220759 -105.869784 
L 112.327847 -105.949852 
L 114.797082 -106.02992 
L 117.564482 -106.109988 
L 120.562308 -106.190057 
L 123.721891 -106.270125 
L 126.976319 -106.350193 
L 130.262821 -106.430261 
L 133.524737 -106.510329 
L 136.712976 -106.590398 
L 139.786935 -106.670466 
L 142.714865 -106.750534 
L 145.47373 -106.830602 
L 148.04862 -106.91067 
L 150.431826 -106.990739 
L 152.621672 -107.070807 
L 154.621215 -107.150875 
L 156.436934 -107.230943 
L 158.077482 -107.311011 
L 159.552582 -107.39108 
L 160.872127 -107.471148 
L 162.045501 -107.551216 
L 163.081142 -107.631284 
L 163.986323 -107.711353 
L 164.767142 -107.791421 
L 165.428674 -107.871489 
L 165.975251 -107.951557 
L 166.410818 -108.031625 
L 166.739341 -108.111694 
L 166.9652 -108.191762 
L 167.093563 -108.27183 
L 167.130695 -108.351898 
L 167.084182 -108.431966 
L 166.963066 -108.512035 
L 166.777862 -108.592103 
L 166.540483 -108.672171 
L 166.264042 -108.752239 
L 165.962571 -108.832307 
L 165.650648 -108.912376 
L 165.342966 -108.992444 
L 165.05385 -109.072512 
L 164.796773 -109.15258 
L 164.583875 -109.232648 
L 164.425524 -109.312717 
L 164.329946 -109.392785 
L 164.302946 -109.472853 
L 164.34774 -109.552921 
L 164.464895 -109.632989 
L 164.652408 -109.713058 
L 164.90589 -109.793126 
L 165.218859 -109.873194 
L 165.583119 -109.953262 
L 165.989201 -110.033331 
L 166.426836 -110.113399 
L 166.885434 -110.193467 
L 167.354539 -110.273535 
L 167.824242 -110.353603 
L 168.285524 -110.433672 
L 168.730523 -110.51374 
L 169.152715 -110.593808 
L 169.547011 -110.673876 
L 169.909768 -110.753944 
L 170.238738 -110.834013 
L 170.532948 -110.914081 
L 170.792546 -110.994149 
L 171.018613 -111.074217 
L 173.099034 -111.074217 
L 173.099034 -111.074217 
L 173.325101 -110.994149 
L 173.584699 -110.914081 
L 173.878909 -110.834013 
L 174.207879 -110.753944 
L 174.570636 -110.673876 
L 174.964932 -110.593808 
L 175.387124 -110.51374 
L 175.832123 -110.433672 
L 176.293405 -110.353603 
L 176.763108 -110.273535 
L 177.232213 -110.193467 
L 177.690811 -110.113399 
L 178.128446 -110.033331 
L 178.534528 -109.953262 
L 178.898788 -109.873194 
L 179.211757 -109.793126 
L 179.465239 -109.713058 
L 179.652752 -109.632989 
L 179.769908 -109.552921 
L 179.814701 -109.472853 
L 179.787701 -109.392785 
L 179.692123 -109.312717 
L 179.533772 -109.232648 
L 179.320874 -109.15258 
L 179.063797 -109.072512 
L 178.774682 -108.992444 
L 178.466999 -108.912376 
L 178.155076 -108.832307 
L 177.853605 -108.752239 
L 177.577164 -108.672171 
L 177.339785 -108.592103 
L 177.154581 -108.512035 
L 177.033465 -108.431966 
L 176.986952 -108.351898 
L 177.024084 -108.27183 
L 177.152447 -108.191762 
L 177.378306 -108.111694 
L 177.706829 -108.031625 
L 178.142396 -107.951557 
L 178.688973 -107.871489 
L 179.350505 -107.791421 
L 180.131324 -107.711353 
L 181.036505 -107.631284 
L 182.072146 -107.551216 
L 183.24552 -107.471148 
L 184.565065 -107.39108 
L 186.040165 -107.311011 
L 187.680713 -107.230943 
L 189.496432 -107.150875 
L 191.495976 -107.070807 
L 193.685821 -106.990739 
L 196.069027 -106.91067 
L 198.643917 -106.830602 
L 201.402782 -106.750534 
L 204.330712 -106.670466 
L 207.404671 -106.590398 
L 210.59291 -106.510329 
L 213.854826 -106.430261 
L 217.141328 -106.350193 
L 220.395756 -106.270125 
L 223.555339 -106.190057 
L 226.553165 -106.109988 
L 229.320565 -106.02992 
L 231.7898 -105.949852 
L 233.896888 -105.869784 
L 235.58441 -105.789716 
L 236.804118 -105.709647 
L 237.519174 -105.629579 
L 237.705882 -105.549511 
L 237.354802 -105.469443 
L 236.471173 -105.389374 
L 235.074635 -105.309306 
L 233.198276 -105.229238 
L 230.887068 -105.14917 
L 228.195823 -105.069102 
L 225.186783 -104.989033 
L 221.927018 -104.908965 
L 218.485775 -104.828897 
L 214.931926 -104.748829 
L 211.331651 -104.668761 
L 207.746446 -104.588692 
L 204.231531 -104.508624 
L 200.834701 -104.428556 
L 197.595612 -104.348488 
L 194.545501 -104.26842 
L 191.707273 -104.188351 
L 189.095919 -104.108283 
L 186.719174 -104.028215 
L 184.578371 -103.948147 
L 182.669385 -103.868079 
L 180.983645 -103.78801 
L 179.509122 -103.707942 
L 178.231276 -103.627874 
L 177.133918 -103.547806 
L 176.199972 -103.467738 
L 175.412114 -103.387669 
L 174.7533 -103.307601 
L 174.207179 -103.227533 
L 173.75839 -103.147465 
z
" style="stroke: #343434; stroke-opacity: 0.5; stroke-width: 1.5"/>
    </defs>
    <g clip-path="url(#p17cd464bc5)">
     <use xlink:href="#m1d6c94e3f2" x="0" y="288" style="fill: #2f7e2f; fill-opacity: 0.5; stroke: #343434; stroke-opacity: 0.5; stroke-width: 1.5"/>
    </g>
   </g>
   <g id="matplotlib.axis_1">
    <g id="xtick_1">
     <g id="line2d_1">
      <defs>
       <path id="m78a755108a" d="M 0 0 
L 0 3.5 
" style="stroke: #000000; stroke-width: 0.8"/>
      </defs>
      <g>
       <use xlink:href="#m78a755108a" x="172.058824" y="256.32" style="stroke: #000000; stroke-width: 0.8"/>
      </g>
     </g>
     <g id="text_1">
      <!-- 0 -->
      <g transform="translate(168.877574 270.918437) scale(0.1 -0.1)">
       <defs>
        <path id="DejaVuSans-30" d="M 2034 4250 
Q 1547 4250 1301 3770 
Q 1056 3291 1056 2328 
Q 1056 1369 1301 889 
Q 1547 409 2034 409 
Q 2525 409 2770 889 
Q 3016 1369 3016 2328 
Q 3016 3291 2770 3770 
Q 2525 4250 2034 4250 
z
M 2034 4750 
Q 2819 4750 3233 4129 
Q 3647 3509 3647 2328 
Q 3647 1150 3233 529 
Q 2819 -91 2034 -91 
Q 1250 -91 836 529 
Q 422 1150 422 2328 
Q 422 3509 836 4129 
Q 1250 4750 2034 4750 
z
" transform="scale(0.015625)"/>
       </defs>
       <use xlink:href="#DejaVuSans-30"/>
      </g>
     </g>
    </g>
   </g>
   <g id="matplotlib.axis_2">
    <g id="ytick_1">
     <g id="line2d_2">
      <defs>
       <path id="me7c9fbab1b" d="M 0 0 
L -3.5 0 
" style="stroke: #000000; stroke-width: 0.8"/>
      </defs>
      <g>
       <use xlink:href="#me7c9fbab1b" x="90" y="256.32" style="stroke: #000000; stroke-width: 0.8"/>
      </g>
     </g>
     <g id="text_2">
      <!-- 0.0 -->
      <g transform="translate(67.096875 260.119219) scale(0.1 -0.1)">
       <defs>
        <path id="DejaVuSans-2e" d="M 684 794 
L 1344 794 
L 1344 0 
L 684 0 
L 684 794 
z
" transform="scale(0.015625)"/>
       </defs>
       <use xlink:href="#DejaVuSans-30"/>
       <use xlink:href="#DejaVuSans-2e" x="63.623047"/>
       <use xlink:href="#DejaVuSans-30" x="95.410156"/>
      </g>
     </g>
    </g>
    <g id="ytick_2">
     <g id="line2d_3">
      <g>
       <use xlink:href="#me7c9fbab1b" x="90" y="211.968" style="stroke: #000000; stroke-width: 0.8"/>
      </g>
     </g>
     <g id="text_3">
      <!-- 0.2 -->
      <g transform="translate(67.096875 215.767219) scale(0.1 -0.1)">
       <defs>
        <path id="DejaVuSans-32" d="M 1228 531 
L 3431 531 
L 3431 0 
L 469 0 
L 469 531 
Q 828 903 1448 1529 
Q 2069 2156 2228 2338 
Q 2531 2678 2651 2914 
Q 2772 3150 2772 3378 
Q 2772 3750 2511 3984 
Q 2250 4219 1831 4219 
Q 1534 4219 1204 4116 
Q 875 4013 500 3803 
L 500 4441 
Q 881 4594 1212 4672 
Q 1544 4750 1819 4750 
Q 2544 4750 2975 4387 
Q 3406 4025 3406 3419 
Q 3406 3131 3298 2873 
Q 3191 2616 2906 2266 
Q 2828 2175 2409 1742 
Q 1991 1309 1228 531 
z
" transform="scale(0.015625)"/>
       </defs>
       <use xlink:href="#DejaVuSans-30"/>
       <use xlink:href="#DejaVuSans-2e" x="63.623047"/>
       <use xlink:href="#DejaVuSans-32" x="95.410156"/>
      </g>
     </g>
    </g>
    <g id="ytick_3">
     <g id="line2d_4">
      <g>
       <use xlink:href="#me7c9fbab1b" x="90" y="167.616" style="stroke: #000000; stroke-width: 0.8"/>
      </g>
     </g>
     <g id="text_4">
      <!-- 0.4 -->
      <g transform="translate(67.096875 171.415219) scale(0.1 -0.1)">
       <defs>
        <path id="DejaVuSans-34" d="M 2419 4116 
L 825 1625 
L 2419 1625 
L 2419 4116 
z
M 2253 4666 
L 3047 4666 
L 3047 1625 
L 3713 1625 
L 3713 1100 
L 3047 1100 
L 3047 0 
L 2419 0 
L 2419 1100 
L 313 1100 
L 313 1709 
L 2253 4666 
z
" transform="scale(0.015625)"/>
       </defs>
       <use xlink:href="#DejaVuSans-30"/>
       <use xlink:href="#DejaVuSans-2e" x="63.623047"/>
       <use xlink:href="#DejaVuSans-34" x="95.410156"/>
      </g>
     </g>
    </g>
    <g id="ytick_4">
     <g id="line2d_5">
      <g>
       <use xlink:href="#me7c9fbab1b" x="90" y="123.264" style="stroke: #000000; stroke-width: 0.8"/>
      </g>
     </g>
     <g id="text_5">
      <!-- 0.6 -->
      <g transform="translate(67.096875 127.063219) scale(0.1 -0.1)">
       <defs>
        <path id="DejaVuSans-36" d="M 2113 2584 
Q 1688 2584 1439 2293 
Q 1191 2003 1191 1497 
Q 1191 994 1439 701 
Q 1688 409 2113 409 
Q 2538 409 2786 701 
Q 3034 994 3034 1497 
Q 3034 2003 2786 2293 
Q 2538 2584 2113 2584 
z
M 3366 4563 
L 3366 3988 
Q 3128 4100 2886 4159 
Q 2644 4219 2406 4219 
Q 1781 4219 1451 3797 
Q 1122 3375 1075 2522 
Q 1259 2794 1537 2939 
Q 1816 3084 2150 3084 
Q 2853 3084 3261 2657 
Q 3669 2231 3669 1497 
Q 3669 778 3244 343 
Q 2819 -91 2113 -91 
Q 1303 -91 875 529 
Q 447 1150 447 2328 
Q 447 3434 972 4092 
Q 1497 4750 2381 4750 
Q 2619 4750 2861 4703 
Q 3103 4656 3366 4563 
z
" transform="scale(0.015625)"/>
       </defs>
       <use xlink:href="#DejaVuSans-30"/>
       <use xlink:href="#DejaVuSans-2e" x="63.623047"/>
       <use xlink:href="#DejaVuSans-36" x="95.410156"/>
      </g>
     </g>
    </g>
    <g id="ytick_5">
     <g id="line2d_6">
      <g>
       <use xlink:href="#me7c9fbab1b" x="90" y="78.912" style="stroke: #000000; stroke-width: 0.8"/>
      </g>
     </g>
     <g id="text_6">
      <!-- 0.8 -->
      <g transform="translate(67.096875 82.711219) scale(0.1 -0.1)">
       <defs>
        <path id="DejaVuSans-38" d="M 2034 2216 
Q 1584 2216 1326 1975 
Q 1069 1734 1069 1313 
Q 1069 891 1326 650 
Q 1584 409 2034 409 
Q 2484 409 2743 651 
Q 3003 894 3003 1313 
Q 3003 1734 2745 1975 
Q 2488 2216 2034 2216 
z
M 1403 2484 
Q 997 2584 770 2862 
Q 544 3141 544 3541 
Q 544 4100 942 4425 
Q 1341 4750 2034 4750 
Q 2731 4750 3128 4425 
Q 3525 4100 3525 3541 
Q 3525 3141 3298 2862 
Q 3072 2584 2669 2484 
Q 3125 2378 3379 2068 
Q 3634 1759 3634 1313 
Q 3634 634 3220 271 
Q 2806 -91 2034 -91 
Q 1263 -91 848 271 
Q 434 634 434 1313 
Q 434 1759 690 2068 
Q 947 2378 1403 2484 
z
M 1172 3481 
Q 1172 3119 1398 2916 
Q 1625 2713 2034 2713 
Q 2441 2713 2670 2916 
Q 2900 3119 2900 3481 
Q 2900 3844 2670 4047 
Q 2441 4250 2034 4250 
Q 1625 4250 1398 4047 
Q 1172 3844 1172 3481 
z
" transform="scale(0.015625)"/>
       </defs>
       <use xlink:href="#DejaVuSans-30"/>
       <use xlink:href="#DejaVuSans-2e" x="63.623047"/>
       <use xlink:href="#DejaVuSans-38" x="95.410156"/>
      </g>
     </g>
    </g>
    <g id="ytick_6">
     <g id="line2d_7">
      <g>
       <use xlink:href="#me7c9fbab1b" x="90" y="34.56" style="stroke: #000000; stroke-width: 0.8"/>
      </g>
     </g>
     <g id="text_7">
      <!-- 1.0 -->
      <g transform="translate(67.096875 38.359219) scale(0.1 -0.1)">
       <defs>
        <path id="DejaVuSans-31" d="M 794 531 
L 1825 531 
L 1825 4091 
L 703 3866 
L 703 4441 
L 1819 4666 
L 2450 4666 
L 2450 531 
L 3481 531 
L 3481 0 
L 794 0 
L 794 531 
z
" transform="scale(0.015625)"/>
       </defs>
       <use xlink:href="#DejaVuSans-31"/>
       <use xlink:href="#DejaVuSans-2e" x="63.623047"/>
       <use xlink:href="#DejaVuSans-30" x="95.410156"/>
      </g>
     </g>
    </g>
    <g id="text_8">
     <!-- $p$ -->
     <g transform="translate(60.996875 148.64) rotate(-90) scale(0.1 -0.1)">
      <defs>
       <path id="DejaVuSans-Oblique-70" d="M 3175 2156 
Q 3175 2616 2975 2859 
Q 2775 3103 2400 3103 
Q 2144 3103 1911 2972 
Q 1678 2841 1497 2591 
Q 1319 2344 1212 1994 
Q 1106 1644 1106 1300 
Q 1106 863 1306 627 
Q 1506 391 1875 391 
Q 2147 391 2380 519 
Q 2613 647 2778 891 
Q 2956 1147 3065 1494 
Q 3175 1841 3175 2156 
z
M 1394 2969 
Q 1625 3272 1939 3428 
Q 2253 3584 2638 3584 
Q 3175 3584 3472 3232 
Q 3769 2881 3769 2247 
Q 3769 1728 3584 1258 
Q 3400 788 3053 416 
Q 2822 169 2531 39 
Q 2241 -91 1919 -91 
Q 1547 -91 1294 64 
Q 1041 219 916 525 
L 556 -1331 
L -19 -1331 
L 922 3500 
L 1497 3500 
L 1394 2969 
z
" transform="scale(0.015625)"/>
      </defs>
      <use xlink:href="#DejaVuSans-Oblique-70"/>
     </g>
    </g>
   </g>
   <g id="line2d_8">
    <path d="M 172.058824 182.718497 
L 172.058824 182.040326 
" clip-path="url(#p17cd464bc5)" style="fill: none; stroke: #343434; stroke-width: 1.5; stroke-linecap: square"/>
   </g>
   <g id="line2d_9">
    <path d="M 172.058824 182.498266 
L 172.058824 182.168131 
" clip-path="url(#p17cd464bc5)" style="fill: none; stroke: #343434; stroke-width: 4.5; stroke-linecap: square"/>
   </g>
   <g id="patch_3">
    <path d="M 90 256.32 
L 90 34.56 
" style="fill: none; stroke: #000000; stroke-width: 0.8; stroke-linejoin: miter; stroke-linecap: square"/>
   </g>
   <g id="patch_4">
    <path d="M 254.117647 256.32 
L 254.117647 34.56 
" style="fill: none; stroke: #000000; stroke-width: 0.8; stroke-linejoin: miter; stroke-linecap: square"/>
   </g>
   <g id="patch_5">
    <path d="M 90 256.32 
L 254.117647 256.32 
" style="fill: none; stroke: #000000; stroke-width: 0.8; stroke-linejoin: miter; stroke-linecap: square"/>
   </g>
   <g id="patch_6">
    <path d="M 90 34.56 
L 254.117647 34.56 
" style="fill: none; stroke: #000000; stroke-width: 0.8; stroke-linejoin: miter; stroke-linecap: square"/>
   </g>
   <g id="PathCollection_1">
    <defs>
     <path id="m91808dc086" d="M 0 1.5 
C 0.397805 1.5 0.77937 1.341951 1.06066 1.06066 
C 1.341951 0.77937 1.5 0.397805 1.5 0 
C 1.5 -0.397805 1.341951 -0.77937 1.06066 -1.06066 
C 0.77937 -1.341951 0.397805 -1.5 0 -1.5 
C -0.397805 -1.5 -0.77937 -1.341951 -1.06066 -1.06066 
C -1.341951 -0.77937 -1.5 -0.397805 -1.5 0 
C -1.5 0.397805 -1.341951 0.77937 -1.06066 1.06066 
C -0.77937 1.341951 -0.397805 1.5 0 1.5 
z
" style="stroke: #343434; stroke-opacity: 0.5"/>
    </defs>
    <g clip-path="url(#p17cd464bc5)">
     <use xlink:href="#m91808dc086" x="172.058824" y="182.401841" style="fill: #ffffff; fill-opacity: 0.5; stroke: #343434; stroke-opacity: 0.5"/>
    </g>
   </g>
   <g id="text_9">
    <!-- win -->
    <g transform="translate(161.682574 28.56) scale(0.12 -0.12)">
     <defs>
      <path id="DejaVuSans-77" d="M 269 3500 
L 844 3500 
L 1563 769 
L 2278 3500 
L 2956 3500 
L 3675 769 
L 4391 3500 
L 4966 3500 
L 4050 0 
L 3372 0 
L 2619 2869 
L 1863 0 
L 1184 0 
L 269 3500 
z
" transform="scale(0.015625)"/>
      <path id="DejaVuSans-69" d="M 603 3500 
L 1178 3500 
L 1178 0 
L 603 0 
L 603 3500 
z
M 603 4863 
L 1178 4863 
L 1178 4134 
L 603 4134 
L 603 4863 
z
" transform="scale(0.015625)"/>
      <path id="DejaVuSans-6e" d="M 3513 2113 
L 3513 0 
L 2938 0 
L 2938 2094 
Q 2938 2591 2744 2837 
Q 2550 3084 2163 3084 
Q 1697 3084 1428 2787 
Q 1159 2491 1159 1978 
L 1159 0 
L 581 0 
L 581 3500 
L 1159 3500 
L 1159 2956 
Q 1366 3272 1645 3428 
Q 1925 3584 2291 3584 
Q 2894 3584 3203 3211 
Q 3513 2838 3513 2113 
z
" transform="scale(0.015625)"/>
     </defs>
     <use xlink:href="#DejaVuSans-77"/>
     <use xlink:href="#DejaVuSans-69" x="81.787109"/>
     <use xlink:href="#DejaVuSans-6e" x="109.570312"/>
    </g>
   </g>
  </g>
  <g id="axes_2">
   <g id="patch_7">
    <path d="M 286.941176 256.32 
L 451.058824 256.32 
L 451.058824 34.56 
L 286.941176 34.56 
z
" style="fill: #ffffff"/>
   </g>
   <g id="PolyCollection_2">
    <defs>
     <path id="m4661366c7a" d="M 369.946382 -94.863765 
L 368.053618 -94.863765 
L 367.854515 -95.007951 
L 367.626738 -95.152136 
L 367.369361 -95.296321 
L 367.082201 -95.440506 
L 366.76597 -95.584691 
L 366.422399 -95.728876 
L 366.054338 -95.873061 
L 365.665805 -96.017246 
L 365.261997 -96.161431 
L 364.849225 -96.305616 
L 364.434803 -96.449801 
L 364.02686 -96.593986 
L 363.634098 -96.738172 
L 363.265494 -96.882357 
L 362.929974 -97.026542 
L 362.63605 -97.170727 
L 362.391465 -97.314912 
L 362.202853 -97.459097 
L 362.075438 -97.603282 
L 362.012785 -97.747467 
L 362.016631 -97.891652 
L 362.086796 -98.035837 
L 362.221179 -98.180022 
L 362.415846 -98.324208 
L 362.665195 -98.468393 
L 362.962193 -98.612578 
L 363.298663 -98.756763 
L 363.665595 -98.900948 
L 364.053479 -99.045133 
L 364.452618 -99.189318 
L 364.853407 -99.333503 
L 365.246573 -99.477688 
L 365.623338 -99.621873 
L 365.975527 -99.766058 
L 366.295591 -99.910243 
L 366.576563 -100.054429 
L 366.811947 -100.198614 
L 366.995549 -100.342799 
L 367.121269 -100.486984 
L 367.182862 -100.631169 
L 367.173691 -100.775354 
L 367.086482 -100.919539 
L 366.913111 -101.063724 
L 366.644428 -101.207909 
L 366.270141 -101.352094 
L 365.778773 -101.496279 
L 365.157708 -101.640465 
L 364.39334 -101.78465 
L 363.47133 -101.928835 
L 362.37698 -102.07302 
L 361.095736 -102.217205 
L 359.613802 -102.36139 
L 357.918873 -102.505575 
L 356.000962 -102.64976 
L 353.853311 -102.793945 
L 351.473331 -102.93813 
L 348.863563 -103.082315 
L 346.032577 -103.2265 
L 342.995777 -103.370686 
L 339.776038 -103.514871 
L 336.404117 -103.659056 
L 332.918772 -103.803241 
L 329.366549 -103.947426 
L 325.801177 -104.091611 
L 322.282576 -104.235796 
L 318.875452 -104.379981 
L 315.647527 -104.524166 
L 312.667452 -104.668351 
L 310.00247 -104.812536 
L 307.715963 -104.956722 
L 305.864972 -105.100907 
L 304.497846 -105.245092 
L 303.652147 -105.389277 
L 303.352941 -105.533462 
L 303.611575 -105.677647 
L 304.42503 -105.821832 
L 305.775907 -105.966017 
L 307.633027 -106.110202 
L 309.952652 -106.254387 
L 312.680233 -106.398572 
L 315.752598 -106.542757 
L 319.100442 -106.686943 
L 322.650999 -106.831128 
L 326.330727 -106.975313 
L 330.067871 -107.119498 
L 333.794792 -107.263683 
L 337.449931 -107.407868 
L 340.979365 -107.552053 
L 344.337882 -107.696238 
L 347.489587 -107.840423 
L 350.408044 -107.984608 
L 353.076006 -108.128793 
L 355.48479 -108.272979 
L 357.633381 -108.417164 
L 359.527342 -108.561349 
L 361.177611 -108.705534 
L 362.599273 -108.849719 
L 363.81036 -108.993904 
L 364.830737 -109.138089 
L 373.169263 -109.138089 
L 373.169263 -109.138089 
L 374.18964 -108.993904 
L 375.400727 -108.849719 
L 376.822389 -108.705534 
L 378.472658 -108.561349 
L 380.366619 -108.417164 
L 382.51521 -108.272979 
L 384.923994 -108.128793 
L 387.591956 -107.984608 
L 390.510413 -107.840423 
L 393.662118 -107.696238 
L 397.020635 -107.552053 
L 400.550069 -107.407868 
L 404.205208 -107.263683 
L 407.932129 -107.119498 
L 411.669273 -106.975313 
L 415.349001 -106.831128 
L 418.899558 -106.686943 
L 422.247402 -106.542757 
L 425.319767 -106.398572 
L 428.047348 -106.254387 
L 430.366973 -106.110202 
L 432.224093 -105.966017 
L 433.57497 -105.821832 
L 434.388425 -105.677647 
L 434.647059 -105.533462 
L 434.347853 -105.389277 
L 433.502154 -105.245092 
L 432.135028 -105.100907 
L 430.284037 -104.956722 
L 427.99753 -104.812536 
L 425.332548 -104.668351 
L 422.352473 -104.524166 
L 419.124548 -104.379981 
L 415.717424 -104.235796 
L 412.198823 -104.091611 
L 408.633451 -103.947426 
L 405.081228 -103.803241 
L 401.595883 -103.659056 
L 398.223962 -103.514871 
L 395.004223 -103.370686 
L 391.967423 -103.2265 
L 389.136437 -103.082315 
L 386.526669 -102.93813 
L 384.146689 -102.793945 
L 381.999038 -102.64976 
L 380.081127 -102.505575 
L 378.386198 -102.36139 
L 376.904264 -102.217205 
L 375.62302 -102.07302 
L 374.52867 -101.928835 
L 373.60666 -101.78465 
L 372.842292 -101.640465 
L 372.221227 -101.496279 
L 371.729859 -101.352094 
L 371.355572 -101.207909 
L 371.086889 -101.063724 
L 370.913518 -100.919539 
L 370.826309 -100.775354 
L 370.817138 -100.631169 
L 370.878731 -100.486984 
L 371.004451 -100.342799 
L 371.188053 -100.198614 
L 371.423437 -100.054429 
L 371.704409 -99.910243 
L 372.024473 -99.766058 
L 372.376662 -99.621873 
L 372.753427 -99.477688 
L 373.146593 -99.333503 
L 373.547382 -99.189318 
L 373.946521 -99.045133 
L 374.334405 -98.900948 
L 374.701337 -98.756763 
L 375.037807 -98.612578 
L 375.334805 -98.468393 
L 375.584154 -98.324208 
L 375.778821 -98.180022 
L 375.913204 -98.035837 
L 375.983369 -97.891652 
L 375.987215 -97.747467 
L 375.924562 -97.603282 
L 375.797147 -97.459097 
L 375.608535 -97.314912 
L 375.36395 -97.170727 
L 375.070026 -97.026542 
L 374.734506 -96.882357 
L 374.365902 -96.738172 
L 373.97314 -96.593986 
L 373.565197 -96.449801 
L 373.150775 -96.305616 
L 372.738003 -96.161431 
L 372.334195 -96.017246 
L 371.945662 -95.873061 
L 371.577601 -95.728876 
L 371.23403 -95.584691 
L 370.917799 -95.440506 
L 370.630639 -95.296321 
L 370.373262 -95.152136 
L 370.145485 -95.007951 
L 369.946382 -94.863765 
z
" style="stroke: #646464; stroke-width: 1.5"/>
    </defs>
    <g clip-path="url(#p51bcb3b33e)">
     <use xlink:href="#m4661366c7a" x="0" y="288" style="fill: #e98966; stroke: #646464; stroke-width: 1.5"/>
    </g>
   </g>
   <g id="matplotlib.axis_3">
    <g id="xtick_2">
     <g id="line2d_10">
      <g>
       <use xlink:href="#m78a755108a" x="369" y="256.32" style="stroke: #000000; stroke-width: 0.8"/>
      </g>
     </g>
     <g id="text_10">
      <!-- 0 -->
      <g transform="translate(365.81875 270.918437) scale(0.1 -0.1)">
       <use xlink:href="#DejaVuSans-30"/>
      </g>
     </g>
    </g>
   </g>
   <g id="matplotlib.axis_4">
    <g id="ytick_7">
     <g id="line2d_11">
      <g>
       <use xlink:href="#me7c9fbab1b" x="286.941176" y="256.32" style="stroke: #000000; stroke-width: 0.8"/>
      </g>
     </g>
     <g id="text_11">
      <!-- 0.0 -->
      <g transform="translate(264.038051 260.119219) scale(0.1 -0.1)">
       <use xlink:href="#DejaVuSans-30"/>
       <use xlink:href="#DejaVuSans-2e" x="63.623047"/>
       <use xlink:href="#DejaVuSans-30" x="95.410156"/>
      </g>
     </g>
    </g>
    <g id="ytick_8">
     <g id="line2d_12">
      <g>
       <use xlink:href="#me7c9fbab1b" x="286.941176" y="211.968" style="stroke: #000000; stroke-width: 0.8"/>
      </g>
     </g>
     <g id="text_12">
      <!-- 0.2 -->
      <g transform="translate(264.038051 215.767219) scale(0.1 -0.1)">
       <use xlink:href="#DejaVuSans-30"/>
       <use xlink:href="#DejaVuSans-2e" x="63.623047"/>
       <use xlink:href="#DejaVuSans-32" x="95.410156"/>
      </g>
     </g>
    </g>
    <g id="ytick_9">
     <g id="line2d_13">
      <g>
       <use xlink:href="#me7c9fbab1b" x="286.941176" y="167.616" style="stroke: #000000; stroke-width: 0.8"/>
      </g>
     </g>
     <g id="text_13">
      <!-- 0.4 -->
      <g transform="translate(264.038051 171.415219) scale(0.1 -0.1)">
       <use xlink:href="#DejaVuSans-30"/>
       <use xlink:href="#DejaVuSans-2e" x="63.623047"/>
       <use xlink:href="#DejaVuSans-34" x="95.410156"/>
      </g>
     </g>
    </g>
    <g id="ytick_10">
     <g id="line2d_14">
      <g>
       <use xlink:href="#me7c9fbab1b" x="286.941176" y="123.264" style="stroke: #000000; stroke-width: 0.8"/>
      </g>
     </g>
     <g id="text_14">
      <!-- 0.6 -->
      <g transform="translate(264.038051 127.063219) scale(0.1 -0.1)">
       <use xlink:href="#DejaVuSans-30"/>
       <use xlink:href="#DejaVuSans-2e" x="63.623047"/>
       <use xlink:href="#DejaVuSans-36" x="95.410156"/>
      </g>
     </g>
    </g>
    <g id="ytick_11">
     <g id="line2d_15">
      <g>
       <use xlink:href="#me7c9fbab1b" x="286.941176" y="78.912" style="stroke: #000000; stroke-width: 0.8"/>
      </g>
     </g>
     <g id="text_15">
      <!-- 0.8 -->
      <g transform="translate(264.038051 82.711219) scale(0.1 -0.1)">
       <use xlink:href="#DejaVuSans-30"/>
       <use xlink:href="#DejaVuSans-2e" x="63.623047"/>
       <use xlink:href="#DejaVuSans-38" x="95.410156"/>
      </g>
     </g>
    </g>
    <g id="ytick_12">
     <g id="line2d_16">
      <g>
       <use xlink:href="#me7c9fbab1b" x="286.941176" y="34.56" style="stroke: #000000; stroke-width: 0.8"/>
      </g>
     </g>
     <g id="text_16">
      <!-- 1.0 -->
      <g transform="translate(264.038051 38.359219) scale(0.1 -0.1)">
       <use xlink:href="#DejaVuSans-31"/>
       <use xlink:href="#DejaVuSans-2e" x="63.623047"/>
       <use xlink:href="#DejaVuSans-30" x="95.410156"/>
      </g>
     </g>
    </g>
   </g>
   <g id="line2d_17">
    <path d="M 369 183.12206 
L 369 181.80858 
" clip-path="url(#p51bcb3b33e)" style="fill: none; stroke: #646464; stroke-width: 1.5; stroke-linecap: square"/>
   </g>
   <g id="line2d_18">
    <path d="M 369 182.762584 
L 369 182.319927 
" clip-path="url(#p51bcb3b33e)" style="fill: none; stroke: #646464; stroke-width: 4.5; stroke-linecap: square"/>
   </g>
   <g id="patch_8">
    <path d="M 286.941176 256.32 
L 286.941176 34.56 
" style="fill: none; stroke: #000000; stroke-width: 0.8; stroke-linejoin: miter; stroke-linecap: square"/>
   </g>
   <g id="patch_9">
    <path d="M 451.058824 256.32 
L 451.058824 34.56 
" style="fill: none; stroke: #000000; stroke-width: 0.8; stroke-linejoin: miter; stroke-linecap: square"/>
   </g>
   <g id="patch_10">
    <path d="M 286.941176 256.32 
L 451.058824 256.32 
" style="fill: none; stroke: #000000; stroke-width: 0.8; stroke-linejoin: miter; stroke-linecap: square"/>
   </g>
   <g id="patch_11">
    <path d="M 286.941176 34.56 
L 451.058824 34.56 
" style="fill: none; stroke: #000000; stroke-width: 0.8; stroke-linejoin: miter; stroke-linecap: square"/>
   </g>
   <g id="PathCollection_2">
    <defs>
     <path id="m49bf15b7c3" d="M 0 1.5 
C 0.397805 1.5 0.77937 1.341951 1.06066 1.06066 
C 1.341951 0.77937 1.5 0.397805 1.5 0 
C 1.5 -0.397805 1.341951 -0.77937 1.06066 -1.06066 
C 0.77937 -1.341951 0.397805 -1.5 0 -1.5 
C -0.397805 -1.5 -0.77937 -1.341951 -1.06066 -1.06066 
C -1.341951 -0.77937 -1.5 -0.397805 -1.5 0 
C -1.5 0.397805 -1.341951 0.77937 -1.06066 1.06066 
C -0.77937 1.341951 -0.397805 1.5 0 1.5 
z
" style="stroke: #646464"/>
    </defs>
    <g clip-path="url(#p51bcb3b33e)">
     <use xlink:href="#m49bf15b7c3" x="369" y="182.396626" style="fill: #ffffff; stroke: #646464"/>
    </g>
   </g>
   <g id="text_17">
    <!-- loss -->
    <g transform="translate(357.410625 28.56) scale(0.12 -0.12)">
     <defs>
      <path id="DejaVuSans-6c" d="M 603 4863 
L 1178 4863 
L 1178 0 
L 603 0 
L 603 4863 
z
" transform="scale(0.015625)"/>
      <path id="DejaVuSans-6f" d="M 1959 3097 
Q 1497 3097 1228 2736 
Q 959 2375 959 1747 
Q 959 1119 1226 758 
Q 1494 397 1959 397 
Q 2419 397 2687 759 
Q 2956 1122 2956 1747 
Q 2956 2369 2687 2733 
Q 2419 3097 1959 3097 
z
M 1959 3584 
Q 2709 3584 3137 3096 
Q 3566 2609 3566 1747 
Q 3566 888 3137 398 
Q 2709 -91 1959 -91 
Q 1206 -91 779 398 
Q 353 888 353 1747 
Q 353 2609 779 3096 
Q 1206 3584 1959 3584 
z
" transform="scale(0.015625)"/>
      <path id="DejaVuSans-73" d="M 2834 3397 
L 2834 2853 
Q 2591 2978 2328 3040 
Q 2066 3103 1784 3103 
Q 1356 3103 1142 2972 
Q 928 2841 928 2578 
Q 928 2378 1081 2264 
Q 1234 2150 1697 2047 
L 1894 2003 
Q 2506 1872 2764 1633 
Q 3022 1394 3022 966 
Q 3022 478 2636 193 
Q 2250 -91 1575 -91 
Q 1294 -91 989 -36 
Q 684 19 347 128 
L 347 722 
Q 666 556 975 473 
Q 1284 391 1588 391 
Q 1994 391 2212 530 
Q 2431 669 2431 922 
Q 2431 1156 2273 1281 
Q 2116 1406 1581 1522 
L 1381 1569 
Q 847 1681 609 1914 
Q 372 2147 372 2553 
Q 372 3047 722 3315 
Q 1072 3584 1716 3584 
Q 2034 3584 2315 3537 
Q 2597 3491 2834 3397 
z
" transform="scale(0.015625)"/>
     </defs>
     <use xlink:href="#DejaVuSans-6c"/>
     <use xlink:href="#DejaVuSans-6f" x="27.783203"/>
     <use xlink:href="#DejaVuSans-73" x="88.964844"/>
     <use xlink:href="#DejaVuSans-73" x="141.064453"/>
    </g>
   </g>
  </g>
  <g id="axes_3">
   <g id="patch_12">
    <path d="M 483.882353 256.32 
L 648 256.32 
L 648 34.56 
L 483.882353 34.56 
z
" style="fill: #ffffff"/>
   </g>
   <g id="PolyCollection_3">
    <defs>
     <path id="m29a9a26983" d="M 571.521823 -104.025268 
L 560.36053 -104.025268 
L 559.078356 -104.095198 
L 557.578009 -104.165128 
L 555.841879 -104.235058 
L 553.85564 -104.304988 
L 551.609492 -104.374917 
L 549.099421 -104.444847 
L 546.328421 -104.514777 
L 543.307597 -104.584707 
L 540.057043 -104.654637 
L 536.606446 -104.724567 
L 532.995299 -104.794496 
L 529.272695 -104.864426 
L 525.496618 -104.934356 
L 521.732752 -105.004286 
L 518.052793 -105.074216 
L 514.532314 -105.144145 
L 511.248275 -105.214075 
L 508.276275 -105.284005 
L 505.687681 -105.353935 
L 503.546791 -105.423865 
L 501.908183 -105.493795 
L 500.8144 -105.563724 
L 500.294118 -105.633654 
L 500.360892 -105.703584 
L 501.012577 -105.773514 
L 502.231433 -105.843444 
L 503.984933 -105.913374 
L 506.227198 -105.983303 
L 508.900996 -106.053233 
L 511.940154 -106.123163 
L 515.272274 -106.193093 
L 518.821571 -106.263023 
L 522.511688 -106.332953 
L 526.268357 -106.402882 
L 530.021755 -106.472812 
L 533.708485 -106.542742 
L 537.273098 -106.612672 
L 540.669123 -106.682602 
L 543.859612 -106.752532 
L 546.817222 -106.822461 
L 549.523876 -106.892391 
L 551.970093 -106.962321 
L 554.154036 -107.032251 
L 556.080391 -107.102181 
L 557.759139 -107.17211 
L 559.2043 -107.24204 
L 560.432722 -107.31197 
L 561.462957 -107.3819 
L 562.314269 -107.45183 
L 563.005794 -107.52176 
L 563.555875 -107.591689 
L 563.981554 -107.661619 
L 564.298245 -107.731549 
L 564.519537 -107.801479 
L 564.657149 -107.871409 
L 564.720983 -107.941339 
L 564.719278 -108.011268 
L 564.65883 -108.081198 
L 564.545261 -108.151128 
L 564.383322 -108.221058 
L 564.177207 -108.290988 
L 563.930858 -108.360918 
L 563.648252 -108.430847 
L 563.333657 -108.500777 
L 562.991835 -108.570707 
L 562.628188 -108.640637 
L 562.248844 -108.710567 
L 561.860668 -108.780497 
L 561.4712 -108.850426 
L 561.088531 -108.920356 
L 560.721106 -108.990286 
L 560.37748 -109.060216 
L 560.06604 -109.130146 
L 559.794689 -109.200075 
L 559.570545 -109.270005 
L 559.399644 -109.339935 
L 559.286683 -109.409865 
L 559.23481 -109.479795 
L 559.245489 -109.549725 
L 559.318433 -109.619654 
L 559.451616 -109.689584 
L 559.641375 -109.759514 
L 559.882573 -109.829444 
L 560.168833 -109.899374 
L 560.492816 -109.969304 
L 560.846538 -110.039233 
L 561.22169 -110.109163 
L 561.609958 -110.179093 
L 562.003326 -110.249023 
L 562.394331 -110.318953 
L 562.776282 -110.388883 
L 563.14342 -110.458812 
L 563.491016 -110.528742 
L 563.815422 -110.598672 
L 564.114064 -110.668602 
L 564.385385 -110.738532 
L 564.62876 -110.808462 
L 564.844381 -110.878391 
L 565.033119 -110.948321 
L 566.849234 -110.948321 
L 566.849234 -110.948321 
L 567.037971 -110.878391 
L 567.253593 -110.808462 
L 567.496968 -110.738532 
L 567.768289 -110.668602 
L 568.066931 -110.598672 
L 568.391337 -110.528742 
L 568.738933 -110.458812 
L 569.10607 -110.388883 
L 569.488022 -110.318953 
L 569.879027 -110.249023 
L 570.272395 -110.179093 
L 570.660663 -110.109163 
L 571.035814 -110.039233 
L 571.389536 -109.969304 
L 571.71352 -109.899374 
L 571.99978 -109.829444 
L 572.240977 -109.759514 
L 572.430737 -109.689584 
L 572.56392 -109.619654 
L 572.636864 -109.549725 
L 572.647543 -109.479795 
L 572.59567 -109.409865 
L 572.482709 -109.339935 
L 572.311808 -109.270005 
L 572.087664 -109.200075 
L 571.816313 -109.130146 
L 571.504872 -109.060216 
L 571.161247 -108.990286 
L 570.793822 -108.920356 
L 570.411153 -108.850426 
L 570.021685 -108.780497 
L 569.633509 -108.710567 
L 569.254165 -108.640637 
L 568.890518 -108.570707 
L 568.548696 -108.500777 
L 568.234101 -108.430847 
L 567.951495 -108.360918 
L 567.705146 -108.290988 
L 567.499031 -108.221058 
L 567.337092 -108.151128 
L 567.223523 -108.081198 
L 567.163075 -108.011268 
L 567.16137 -107.941339 
L 567.225204 -107.871409 
L 567.362816 -107.801479 
L 567.584108 -107.731549 
L 567.900798 -107.661619 
L 568.326478 -107.591689 
L 568.876559 -107.52176 
L 569.568084 -107.45183 
L 570.419396 -107.3819 
L 571.449631 -107.31197 
L 572.678053 -107.24204 
L 574.123214 -107.17211 
L 575.801962 -107.102181 
L 577.728317 -107.032251 
L 579.91226 -106.962321 
L 582.358477 -106.892391 
L 585.065131 -106.822461 
L 588.022741 -106.752532 
L 591.21323 -106.682602 
L 594.609255 -106.612672 
L 598.173868 -106.542742 
L 601.860598 -106.472812 
L 605.613996 -106.402882 
L 609.370664 -106.332953 
L 613.060782 -106.263023 
L 616.610078 -106.193093 
L 619.942199 -106.123163 
L 622.981357 -106.053233 
L 625.655154 -105.983303 
L 627.89742 -105.913374 
L 629.65092 -105.843444 
L 630.869776 -105.773514 
L 631.521461 -105.703584 
L 631.588235 -105.633654 
L 631.067952 -105.563724 
L 629.97417 -105.493795 
L 628.335562 -105.423865 
L 626.194672 -105.353935 
L 623.606078 -105.284005 
L 620.634078 -105.214075 
L 617.350039 -105.144145 
L 613.82956 -105.074216 
L 610.149601 -105.004286 
L 606.385735 -104.934356 
L 602.609658 -104.864426 
L 598.887054 -104.794496 
L 595.275907 -104.724567 
L 591.82531 -104.654637 
L 588.574756 -104.584707 
L 585.553932 -104.514777 
L 582.782932 -104.444847 
L 580.272861 -104.374917 
L 578.026713 -104.304988 
L 576.040474 -104.235058 
L 574.304344 -104.165128 
L 572.803997 -104.095198 
L 571.521823 -104.025268 
z
" style="stroke: #3f3f3f; stroke-width: 1.5"/>
    </defs>
    <g clip-path="url(#pb9583ba068)">
     <use xlink:href="#m29a9a26983" x="0" y="288" style="fill: #3274a1; stroke: #3f3f3f; stroke-width: 1.5"/>
    </g>
   </g>
   <g id="matplotlib.axis_5">
    <g id="xtick_3">
     <g id="line2d_19">
      <g>
       <use xlink:href="#m78a755108a" x="565.941176" y="256.32" style="stroke: #000000; stroke-width: 0.8"/>
      </g>
     </g>
     <g id="text_18">
      <!-- 0 -->
      <g transform="translate(562.759926 270.918437) scale(0.1 -0.1)">
       <use xlink:href="#DejaVuSans-30"/>
      </g>
     </g>
    </g>
   </g>
   <g id="matplotlib.axis_6">
    <g id="ytick_13">
     <g id="line2d_20">
      <g>
       <use xlink:href="#me7c9fbab1b" x="483.882353" y="256.32" style="stroke: #000000; stroke-width: 0.8"/>
      </g>
     </g>
     <g id="text_19">
      <!-- 0.0 -->
      <g transform="translate(460.979228 260.119219) scale(0.1 -0.1)">
       <use xlink:href="#DejaVuSans-30"/>
       <use xlink:href="#DejaVuSans-2e" x="63.623047"/>
       <use xlink:href="#DejaVuSans-30" x="95.410156"/>
      </g>
     </g>
    </g>
    <g id="ytick_14">
     <g id="line2d_21">
      <g>
       <use xlink:href="#me7c9fbab1b" x="483.882353" y="211.968" style="stroke: #000000; stroke-width: 0.8"/>
      </g>
     </g>
     <g id="text_20">
      <!-- 0.2 -->
      <g transform="translate(460.979228 215.767219) scale(0.1 -0.1)">
       <use xlink:href="#DejaVuSans-30"/>
       <use xlink:href="#DejaVuSans-2e" x="63.623047"/>
       <use xlink:href="#DejaVuSans-32" x="95.410156"/>
      </g>
     </g>
    </g>
    <g id="ytick_15">
     <g id="line2d_22">
      <g>
       <use xlink:href="#me7c9fbab1b" x="483.882353" y="167.616" style="stroke: #000000; stroke-width: 0.8"/>
      </g>
     </g>
     <g id="text_21">
      <!-- 0.4 -->
      <g transform="translate(460.979228 171.415219) scale(0.1 -0.1)">
       <use xlink:href="#DejaVuSans-30"/>
       <use xlink:href="#DejaVuSans-2e" x="63.623047"/>
       <use xlink:href="#DejaVuSans-34" x="95.410156"/>
      </g>
     </g>
    </g>
    <g id="ytick_16">
     <g id="line2d_23">
      <g>
       <use xlink:href="#me7c9fbab1b" x="483.882353" y="123.264" style="stroke: #000000; stroke-width: 0.8"/>
      </g>
     </g>
     <g id="text_22">
      <!-- 0.6 -->
      <g transform="translate(460.979228 127.063219) scale(0.1 -0.1)">
       <use xlink:href="#DejaVuSans-30"/>
       <use xlink:href="#DejaVuSans-2e" x="63.623047"/>
       <use xlink:href="#DejaVuSans-36" x="95.410156"/>
      </g>
     </g>
    </g>
    <g id="ytick_17">
     <g id="line2d_24">
      <g>
       <use xlink:href="#me7c9fbab1b" x="483.882353" y="78.912" style="stroke: #000000; stroke-width: 0.8"/>
      </g>
     </g>
     <g id="text_23">
      <!-- 0.8 -->
      <g transform="translate(460.979228 82.711219) scale(0.1 -0.1)">
       <use xlink:href="#DejaVuSans-30"/>
       <use xlink:href="#DejaVuSans-2e" x="63.623047"/>
       <use xlink:href="#DejaVuSans-38" x="95.410156"/>
      </g>
     </g>
    </g>
    <g id="ytick_18">
     <g id="line2d_25">
      <g>
       <use xlink:href="#me7c9fbab1b" x="483.882353" y="34.56" style="stroke: #000000; stroke-width: 0.8"/>
      </g>
     </g>
     <g id="text_24">
      <!-- 1.0 -->
      <g transform="translate(460.979228 38.359219) scale(0.1 -0.1)">
       <use xlink:href="#DejaVuSans-31"/>
       <use xlink:href="#DejaVuSans-2e" x="63.623047"/>
       <use xlink:href="#DejaVuSans-30" x="95.410156"/>
      </g>
     </g>
    </g>
   </g>
   <g id="line2d_26">
    <path d="M 565.941176 182.529314 
L 565.941176 182.037614 
" clip-path="url(#pb9583ba068)" style="fill: none; stroke: #3f3f3f; stroke-width: 1.5; stroke-linecap: square"/>
   </g>
   <g id="line2d_27">
    <path d="M 565.941176 182.401431 
L 565.941176 182.186472 
" clip-path="url(#pb9583ba068)" style="fill: none; stroke: #3f3f3f; stroke-width: 4.5; stroke-linecap: square"/>
   </g>
   <g id="patch_13">
    <path d="M 483.882353 256.32 
L 483.882353 34.56 
" style="fill: none; stroke: #000000; stroke-width: 0.8; stroke-linejoin: miter; stroke-linecap: square"/>
   </g>
   <g id="patch_14">
    <path d="M 648 256.32 
L 648 34.56 
" style="fill: none; stroke: #000000; stroke-width: 0.8; stroke-linejoin: miter; stroke-linecap: square"/>
   </g>
   <g id="patch_15">
    <path d="M 483.882353 256.32 
L 648 256.32 
" style="fill: none; stroke: #000000; stroke-width: 0.8; stroke-linejoin: miter; stroke-linecap: square"/>
   </g>
   <g id="patch_16">
    <path d="M 483.882353 34.56 
L 648 34.56 
" style="fill: none; stroke: #000000; stroke-width: 0.8; stroke-linejoin: miter; stroke-linecap: square"/>
   </g>
   <g id="PathCollection_3">
    <defs>
     <path id="m16595475fa" d="M 0 1.5 
C 0.397805 1.5 0.77937 1.341951 1.06066 1.06066 
C 1.341951 0.77937 1.5 0.397805 1.5 0 
C 1.5 -0.397805 1.341951 -0.77937 1.06066 -1.06066 
C 0.77937 -1.341951 0.397805 -1.5 0 -1.5 
C -0.397805 -1.5 -0.77937 -1.341951 -1.06066 -1.06066 
C -1.341951 -0.77937 -1.5 -0.397805 -1.5 0 
C -1.5 0.397805 -1.341951 0.77937 -1.06066 1.06066 
C -0.77937 1.341951 -0.397805 1.5 0 1.5 
z
" style="stroke: #3f3f3f"/>
    </defs>
    <g clip-path="url(#pb9583ba068)">
     <use xlink:href="#m16595475fa" x="565.941176" y="182.376943" style="fill: #ffffff; stroke: #3f3f3f"/>
    </g>
   </g>
   <g id="text_25">
    <!-- keep budget -->
    <g transform="translate(528.310864 28.56) scale(0.12 -0.12)">
     <defs>
      <path id="DejaVuSans-6b" d="M 581 4863 
L 1159 4863 
L 1159 1991 
L 2875 3500 
L 3609 3500 
L 1753 1863 
L 3688 0 
L 2938 0 
L 1159 1709 
L 1159 0 
L 581 0 
L 581 4863 
z
" transform="scale(0.015625)"/>
      <path id="DejaVuSans-65" d="M 3597 1894 
L 3597 1613 
L 953 1613 
Q 991 1019 1311 708 
Q 1631 397 2203 397 
Q 2534 397 2845 478 
Q 3156 559 3463 722 
L 3463 178 
Q 3153 47 2828 -22 
Q 2503 -91 2169 -91 
Q 1331 -91 842 396 
Q 353 884 353 1716 
Q 353 2575 817 3079 
Q 1281 3584 2069 3584 
Q 2775 3584 3186 3129 
Q 3597 2675 3597 1894 
z
M 3022 2063 
Q 3016 2534 2758 2815 
Q 2500 3097 2075 3097 
Q 1594 3097 1305 2825 
Q 1016 2553 972 2059 
L 3022 2063 
z
" transform="scale(0.015625)"/>
      <path id="DejaVuSans-70" d="M 1159 525 
L 1159 -1331 
L 581 -1331 
L 581 3500 
L 1159 3500 
L 1159 2969 
Q 1341 3281 1617 3432 
Q 1894 3584 2278 3584 
Q 2916 3584 3314 3078 
Q 3713 2572 3713 1747 
Q 3713 922 3314 415 
Q 2916 -91 2278 -91 
Q 1894 -91 1617 61 
Q 1341 213 1159 525 
z
M 3116 1747 
Q 3116 2381 2855 2742 
Q 2594 3103 2138 3103 
Q 1681 3103 1420 2742 
Q 1159 2381 1159 1747 
Q 1159 1113 1420 752 
Q 1681 391 2138 391 
Q 2594 391 2855 752 
Q 3116 1113 3116 1747 
z
" transform="scale(0.015625)"/>
      <path id="DejaVuSans-20" transform="scale(0.015625)"/>
      <path id="DejaVuSans-62" d="M 3116 1747 
Q 3116 2381 2855 2742 
Q 2594 3103 2138 3103 
Q 1681 3103 1420 2742 
Q 1159 2381 1159 1747 
Q 1159 1113 1420 752 
Q 1681 391 2138 391 
Q 2594 391 2855 752 
Q 3116 1113 3116 1747 
z
M 1159 2969 
Q 1341 3281 1617 3432 
Q 1894 3584 2278 3584 
Q 2916 3584 3314 3078 
Q 3713 2572 3713 1747 
Q 3713 922 3314 415 
Q 2916 -91 2278 -91 
Q 1894 -91 1617 61 
Q 1341 213 1159 525 
L 1159 0 
L 581 0 
L 581 4863 
L 1159 4863 
L 1159 2969 
z
" transform="scale(0.015625)"/>
      <path id="DejaVuSans-75" d="M 544 1381 
L 544 3500 
L 1119 3500 
L 1119 1403 
Q 1119 906 1312 657 
Q 1506 409 1894 409 
Q 2359 409 2629 706 
Q 2900 1003 2900 1516 
L 2900 3500 
L 3475 3500 
L 3475 0 
L 2900 0 
L 2900 538 
Q 2691 219 2414 64 
Q 2138 -91 1772 -91 
Q 1169 -91 856 284 
Q 544 659 544 1381 
z
M 1991 3584 
L 1991 3584 
z
" transform="scale(0.015625)"/>
      <path id="DejaVuSans-64" d="M 2906 2969 
L 2906 4863 
L 3481 4863 
L 3481 0 
L 2906 0 
L 2906 525 
Q 2725 213 2448 61 
Q 2172 -91 1784 -91 
Q 1150 -91 751 415 
Q 353 922 353 1747 
Q 353 2572 751 3078 
Q 1150 3584 1784 3584 
Q 2172 3584 2448 3432 
Q 2725 3281 2906 2969 
z
M 947 1747 
Q 947 1113 1208 752 
Q 1469 391 1925 391 
Q 2381 391 2643 752 
Q 2906 1113 2906 1747 
Q 2906 2381 2643 2742 
Q 2381 3103 1925 3103 
Q 1469 3103 1208 2742 
Q 947 2381 947 1747 
z
" transform="scale(0.015625)"/>
      <path id="DejaVuSans-67" d="M 2906 1791 
Q 2906 2416 2648 2759 
Q 2391 3103 1925 3103 
Q 1463 3103 1205 2759 
Q 947 2416 947 1791 
Q 947 1169 1205 825 
Q 1463 481 1925 481 
Q 2391 481 2648 825 
Q 2906 1169 2906 1791 
z
M 3481 434 
Q 3481 -459 3084 -895 
Q 2688 -1331 1869 -1331 
Q 1566 -1331 1297 -1286 
Q 1028 -1241 775 -1147 
L 775 -588 
Q 1028 -725 1275 -790 
Q 1522 -856 1778 -856 
Q 2344 -856 2625 -561 
Q 2906 -266 2906 331 
L 2906 616 
Q 2728 306 2450 153 
Q 2172 0 1784 0 
Q 1141 0 747 490 
Q 353 981 353 1791 
Q 353 2603 747 3093 
Q 1141 3584 1784 3584 
Q 2172 3584 2450 3431 
Q 2728 3278 2906 2969 
L 2906 3500 
L 3481 3500 
L 3481 434 
z
" transform="scale(0.015625)"/>
      <path id="DejaVuSans-74" d="M 1172 4494 
L 1172 3500 
L 2356 3500 
L 2356 3053 
L 1172 3053 
L 1172 1153 
Q 1172 725 1289 603 
Q 1406 481 1766 481 
L 2356 481 
L 2356 0 
L 1766 0 
Q 1100 0 847 248 
Q 594 497 594 1153 
L 594 3053 
L 172 3053 
L 172 3500 
L 594 3500 
L 594 4494 
L 1172 4494 
z
" transform="scale(0.015625)"/>
     </defs>
     <use xlink:href="#DejaVuSans-6b"/>
     <use xlink:href="#DejaVuSans-65" x="54.285156"/>
     <use xlink:href="#DejaVuSans-65" x="115.808594"/>
     <use xlink:href="#DejaVuSans-70" x="177.332031"/>
     <use xlink:href="#DejaVuSans-20" x="240.808594"/>
     <use xlink:href="#DejaVuSans-62" x="272.595703"/>
     <use xlink:href="#DejaVuSans-75" x="336.072266"/>
     <use xlink:href="#DejaVuSans-64" x="399.451172"/>
     <use xlink:href="#DejaVuSans-67" x="462.927734"/>
     <use xlink:href="#DejaVuSans-65" x="526.404297"/>
     <use xlink:href="#DejaVuSans-74" x="587.927734"/>
    </g>
   </g>
  </g>
  <g id="text_26">
   <!-- $C$: high BDI score -->
   <g transform="translate(308.22 14.88) scale(0.12 -0.12)">
    <defs>
     <path id="DejaVuSans-Oblique-43" d="M 4447 4306 
L 4319 3641 
Q 4019 3944 3683 4091 
Q 3347 4238 2956 4238 
Q 2422 4238 2017 3981 
Q 1613 3725 1319 3200 
Q 1131 2863 1032 2486 
Q 934 2109 934 1728 
Q 934 1091 1264 756 
Q 1594 422 2222 422 
Q 2656 422 3056 561 
Q 3456 700 3834 978 
L 3688 231 
Q 3316 72 2936 -9 
Q 2556 -91 2175 -91 
Q 1278 -91 773 396 
Q 269 884 269 1753 
Q 269 2309 461 2846 
Q 653 3384 1013 3828 
Q 1394 4300 1883 4525 
Q 2372 4750 3022 4750 
Q 3422 4750 3780 4639 
Q 4138 4528 4447 4306 
z
" transform="scale(0.015625)"/>
     <path id="DejaVuSans-3a" d="M 750 794 
L 1409 794 
L 1409 0 
L 750 0 
L 750 794 
z
M 750 3309 
L 1409 3309 
L 1409 2516 
L 750 2516 
L 750 3309 
z
" transform="scale(0.015625)"/>
     <path id="DejaVuSans-68" d="M 3513 2113 
L 3513 0 
L 2938 0 
L 2938 2094 
Q 2938 2591 2744 2837 
Q 2550 3084 2163 3084 
Q 1697 3084 1428 2787 
Q 1159 2491 1159 1978 
L 1159 0 
L 581 0 
L 581 4863 
L 1159 4863 
L 1159 2956 
Q 1366 3272 1645 3428 
Q 1925 3584 2291 3584 
Q 2894 3584 3203 3211 
Q 3513 2838 3513 2113 
z
" transform="scale(0.015625)"/>
     <path id="DejaVuSans-42" d="M 1259 2228 
L 1259 519 
L 2272 519 
Q 2781 519 3026 730 
Q 3272 941 3272 1375 
Q 3272 1813 3026 2020 
Q 2781 2228 2272 2228 
L 1259 2228 
z
M 1259 4147 
L 1259 2741 
L 2194 2741 
Q 2656 2741 2882 2914 
Q 3109 3088 3109 3444 
Q 3109 3797 2882 3972 
Q 2656 4147 2194 4147 
L 1259 4147 
z
M 628 4666 
L 2241 4666 
Q 2963 4666 3353 4366 
Q 3744 4066 3744 3513 
Q 3744 3084 3544 2831 
Q 3344 2578 2956 2516 
Q 3422 2416 3680 2098 
Q 3938 1781 3938 1306 
Q 3938 681 3513 340 
Q 3088 0 2303 0 
L 628 0 
L 628 4666 
z
" transform="scale(0.015625)"/>
     <path id="DejaVuSans-44" d="M 1259 4147 
L 1259 519 
L 2022 519 
Q 2988 519 3436 956 
Q 3884 1394 3884 2338 
Q 3884 3275 3436 3711 
Q 2988 4147 2022 4147 
L 1259 4147 
z
M 628 4666 
L 1925 4666 
Q 3281 4666 3915 4102 
Q 4550 3538 4550 2338 
Q 4550 1131 3912 565 
Q 3275 0 1925 0 
L 628 0 
L 628 4666 
z
" transform="scale(0.015625)"/>
     <path id="DejaVuSans-49" d="M 628 4666 
L 1259 4666 
L 1259 0 
L 628 0 
L 628 4666 
z
" transform="scale(0.015625)"/>
     <path id="DejaVuSans-63" d="M 3122 3366 
L 3122 2828 
Q 2878 2963 2633 3030 
Q 2388 3097 2138 3097 
Q 1578 3097 1268 2742 
Q 959 2388 959 1747 
Q 959 1106 1268 751 
Q 1578 397 2138 397 
Q 2388 397 2633 464 
Q 2878 531 3122 666 
L 3122 134 
Q 2881 22 2623 -34 
Q 2366 -91 2075 -91 
Q 1284 -91 818 406 
Q 353 903 353 1747 
Q 353 2603 823 3093 
Q 1294 3584 2113 3584 
Q 2378 3584 2631 3529 
Q 2884 3475 3122 3366 
z
" transform="scale(0.015625)"/>
     <path id="DejaVuSans-72" d="M 2631 2963 
Q 2534 3019 2420 3045 
Q 2306 3072 2169 3072 
Q 1681 3072 1420 2755 
Q 1159 2438 1159 1844 
L 1159 0 
L 581 0 
L 581 3500 
L 1159 3500 
L 1159 2956 
Q 1341 3275 1631 3429 
Q 1922 3584 2338 3584 
Q 2397 3584 2469 3576 
Q 2541 3569 2628 3553 
L 2631 2963 
z
" transform="scale(0.015625)"/>
    </defs>
    <use xlink:href="#DejaVuSans-Oblique-43" transform="translate(0 0.015625)"/>
    <use xlink:href="#DejaVuSans-3a" transform="translate(69.824219 0.015625)"/>
    <use xlink:href="#DejaVuSans-20" transform="translate(103.515625 0.015625)"/>
    <use xlink:href="#DejaVuSans-68" transform="translate(135.302734 0.015625)"/>
    <use xlink:href="#DejaVuSans-69" transform="translate(198.681641 0.015625)"/>
    <use xlink:href="#DejaVuSans-67" transform="translate(226.464844 0.015625)"/>
    <use xlink:href="#DejaVuSans-68" transform="translate(289.941406 0.015625)"/>
    <use xlink:href="#DejaVuSans-20" transform="translate(353.320312 0.015625)"/>
    <use xlink:href="#DejaVuSans-42" transform="translate(385.107422 0.015625)"/>
    <use xlink:href="#DejaVuSans-44" transform="translate(453.710938 0.015625)"/>
    <use xlink:href="#DejaVuSans-49" transform="translate(530.712891 0.015625)"/>
    <use xlink:href="#DejaVuSans-20" transform="translate(560.205078 0.015625)"/>
    <use xlink:href="#DejaVuSans-73" transform="translate(591.992188 0.015625)"/>
    <use xlink:href="#DejaVuSans-63" transform="translate(644.091797 0.015625)"/>
    <use xlink:href="#DejaVuSans-6f" transform="translate(699.072266 0.015625)"/>
    <use xlink:href="#DejaVuSans-72" transform="translate(760.253906 0.015625)"/>
    <use xlink:href="#DejaVuSans-65" transform="translate(801.367188 0.015625)"/>
   </g>
  </g>
 </g>
 <defs>
  <clipPath id="p17cd464bc5">
   <rect x="90" y="34.56" width="164.117647" height="221.76"/>
  </clipPath>
  <clipPath id="p51bcb3b33e">
   <rect x="286.941176" y="34.56" width="164.117647" height="221.76"/>
  </clipPath>
  <clipPath id="pb9583ba068">
   <rect x="483.882353" y="34.56" width="164.117647" height="221.76"/>
  </clipPath>
 </defs>
</svg>
