<?xml version="1.0" encoding="UTF-8" standalone="no"?>
<svg
   width="460.8pt"
   height="288pt"
   viewBox="0 0 460.8 288"
   version="1.1"
   id="svg15779"
   sodipodi:docname="reward_stats_data.svg"
   inkscape:version="1.1.1 (3bf5ae0d25, 2021-09-20)"
   xmlns:inkscape="http://www.inkscape.org/namespaces/inkscape"
   xmlns:sodipodi="http://sodipodi.sourceforge.net/DTD/sodipodi-0.dtd"
   xmlns:xlink="http://www.w3.org/1999/xlink"
   xmlns="http://www.w3.org/2000/svg"
   xmlns:svg="http://www.w3.org/2000/svg"
   xmlns:rdf="http://www.w3.org/1999/02/22-rdf-syntax-ns#"
   xmlns:cc="http://creativecommons.org/ns#"
   xmlns:dc="http://purl.org/dc/elements/1.1/">
  <sodipodi:namedview
     id="namedview15781"
     pagecolor="#ffffff"
     bordercolor="#666666"
     borderopacity="1.0"
     inkscape:pageshadow="2"
     inkscape:pageopacity="0.0"
     inkscape:pagecheckerboard="0"
     inkscape:document-units="pt"
     showgrid="false"
     inkscape:zoom="2.0885417"
     inkscape:cx="307.15212"
     inkscape:cy="115.15212"
     inkscape:window-width="2400"
     inkscape:window-height="1261"
     inkscape:window-x="-9"
     inkscape:window-y="-9"
     inkscape:window-maximized="1"
     inkscape:current-layer="svg15779" />
  <metadata
     id="metadata15244">
    <rdf:RDF>
      <cc:Work>
        <dc:type
           rdf:resource="http://purl.org/dc/dcmitype/StillImage" />
        <dc:date>2024-07-01T15:13:59.726741</dc:date>
        <dc:format>image/svg+xml</dc:format>
        <dc:creator>
          <cc:Agent>
            <dc:title>Matplotlib v3.7.2, https://matplotlib.org/</dc:title>
          </cc:Agent>
        </dc:creator>
      </cc:Work>
    </rdf:RDF>
  </metadata>
  <defs
     id="defs15248">
    <style
       type="text/css"
       id="style15246">*{stroke-linejoin: round; stroke-linecap: butt}</style>
  </defs>
  <g
     id="figure_1">
    <g
       id="patch_1">
      <path
         d="M 0 288  L 460.8 288  L 460.8 0  L 0 0  z "
         style="fill: #ffffff"
         id="path15250" />
    </g>
    <g
       id="axes_1">
      <g
         id="patch_2">
        <path
           d="M 50.195 260.12  L 148.11 260.12  L 148.11 32.4  L 50.195 32.4  z "
           style="fill: #ffffff"
           id="path15253" />
      </g>
      <g
         id="PolyCollection_1">
        <defs
           id="defs15257">
          <path
             id="mca12574d65"
             d="M 100.006445 -38.230909  L 98.298555 -38.230909  L 98.107476 -40.322002  L 97.882956 -42.413095  L 97.621336 -44.504187  L 97.319018 -46.59528  L 96.972572 -48.686373  L 96.578855 -50.777466  L 96.135138 -52.868558  L 95.639239 -54.959651  L 95.089652 -57.050744  L 94.485682 -59.141837  L 93.827555 -61.232929  L 93.116526 -63.324022  L 92.354962 -65.415115  L 91.546398 -67.506208  L 90.695567 -69.5973  L 89.808395 -71.688393  L 88.891962 -73.779486  L 87.954428 -75.870579  L 87.004919 -77.961671  L 86.053376 -80.052764  L 85.110374 -82.143857  L 84.186908 -84.234949  L 83.294146 -86.326042  L 82.443164 -88.417135  L 81.644665 -90.508228  L 80.908679 -92.59932  L 80.244271 -94.690413  L 79.659246 -96.781506  L 79.159865 -98.872599  L 78.750596 -100.963691  L 78.433881 -103.054784  L 78.209955 -105.145877  L 78.076711 -107.23697  L 78.029628 -109.328062  L 78.061753 -111.419155  L 78.163767 -113.510248  L 78.324115 -115.601341  L 78.529213 -117.692433  L 78.763727 -119.783526  L 79.010923 -121.874619  L 79.253066 -123.965712  L 79.471886 -126.056804  L 79.649059 -128.147897  L 79.766733 -130.23899  L 79.808038 -132.330083  L 79.757608 -134.421175  L 79.602057 -136.512268  L 79.330431 -138.603361  L 78.93459 -140.694454  L 78.409534 -142.785546  L 77.753646 -144.876639  L 76.968858 -146.967732  L 76.060721 -149.058825  L 75.038395 -151.149917  L 73.914544 -153.24101  L 72.705148 -155.332103  L 71.429229 -157.423196  L 70.108503 -159.514288  L 68.766953 -161.605381  L 67.430345 -163.696474  L 66.125676 -165.787567  L 64.880581 -167.878659  L 63.722695 -169.969752  L 62.678989 -172.060845  L 61.775092 -174.151938  L 61.034623 -176.24303  L 60.478541 -178.334123  L 60.124537 -180.425216  L 59.9865 -182.516309  L 60.074066 -184.607401  L 60.392283 -186.698494  L 60.941399 -188.789587  L 61.716802 -190.88068  L 62.709108 -192.971772  L 63.904406 -195.062865  L 65.284659 -197.153958  L 66.828235 -199.245051  L 68.510564 -201.336143  L 70.304885 -203.427236  L 72.183049 -205.518329  L 74.116361 -207.609421  L 76.076394 -209.700514  L 78.035773 -211.791607  L 79.968878 -213.8827  L 81.852446 -215.973792  L 83.666046 -218.064885  L 85.392426 -220.155978  L 87.017715 -222.247071  L 88.531491 -224.338163  L 89.926716 -226.429256  L 91.199566 -228.520349  L 92.349158 -230.611442  L 93.377215 -232.702534  L 94.287674 -234.793627  L 95.086271 -236.88472  L 95.780127 -238.975813  L 96.377338 -241.066905  L 96.886601 -243.157998  L 97.316876 -245.249091  L 100.988124 -245.249091  L 100.988124 -245.249091  L 101.418399 -243.157998  L 101.927662 -241.066905  L 102.524873 -238.975813  L 103.218729 -236.88472  L 104.017326 -234.793627  L 104.927785 -232.702534  L 105.955842 -230.611442  L 107.105434 -228.520349  L 108.378284 -226.429256  L 109.773509 -224.338163  L 111.287285 -222.247071  L 112.912574 -220.155978  L 114.638954 -218.064885  L 116.452554 -215.973792  L 118.336122 -213.8827  L 120.269227 -211.791607  L 122.228606 -209.700514  L 124.188639 -207.609421  L 126.121951 -205.518329  L 128.000115 -203.427236  L 129.794436 -201.336143  L 131.476765 -199.245051  L 133.020341 -197.153958  L 134.400594 -195.062865  L 135.595892 -192.971772  L 136.588198 -190.88068  L 137.363601 -188.789587  L 137.912717 -186.698494  L 138.230934 -184.607401  L 138.3185 -182.516309  L 138.180463 -180.425216  L 137.826459 -178.334123  L 137.270377 -176.24303  L 136.529908 -174.151938  L 135.626011 -172.060845  L 134.582305 -169.969752  L 133.424419 -167.878659  L 132.179324 -165.787567  L 130.874655 -163.696474  L 129.538047 -161.605381  L 128.196497 -159.514288  L 126.875771 -157.423196  L 125.599852 -155.332103  L 124.390456 -153.24101  L 123.266605 -151.149917  L 122.244279 -149.058825  L 121.336142 -146.967732  L 120.551354 -144.876639  L 119.895466 -142.785546  L 119.37041 -140.694454  L 118.974569 -138.603361  L 118.702943 -136.512268  L 118.547392 -134.421175  L 118.496962 -132.330083  L 118.538267 -130.23899  L 118.655941 -128.147897  L 118.833114 -126.056804  L 119.051934 -123.965712  L 119.294077 -121.874619  L 119.541273 -119.783526  L 119.775787 -117.692433  L 119.980885 -115.601341  L 120.141233 -113.510248  L 120.243247 -111.419155  L 120.275372 -109.328062  L 120.228289 -107.23697  L 120.095045 -105.145877  L 119.871119 -103.054784  L 119.554404 -100.963691  L 119.145135 -98.872599  L 118.645754 -96.781506  L 118.060729 -94.690413  L 117.396321 -92.59932  L 116.660335 -90.508228  L 115.861836 -88.417135  L 115.010854 -86.326042  L 114.118092 -84.234949  L 113.194626 -82.143857  L 112.251624 -80.052764  L 111.300081 -77.961671  L 110.350572 -75.870579  L 109.413038 -73.779486  L 108.496605 -71.688393  L 107.609433 -69.5973  L 106.758602 -67.506208  L 105.950038 -65.415115  L 105.188474 -63.324022  L 104.477445 -61.232929  L 103.819318 -59.141837  L 103.215348 -57.050744  L 102.665761 -54.959651  L 102.169862 -52.868558  L 101.726145 -50.777466  L 101.332428 -48.686373  L 100.985982 -46.59528  L 100.683664 -44.504187  L 100.422044 -42.413095  L 100.197524 -40.322002  L 100.006445 -38.230909  z "
             style="stroke: #7f7f7f; stroke-width: 1.5" />
        </defs>
        <g
           clip-path="url(#p2a70443b04)"
           id="g15261">
          <use
             xlink:href="#mca12574d65"
             x="0"
             y="288"
             style="fill: #d3d3d3; stroke: #7f7f7f; stroke-width: 1.5"
             id="use15259" />
        </g>
      </g>
      <g
         id="matplotlib.axis_1">
        <g
           id="xtick_1">
          <g
             id="line2d_1">
            <defs
               id="defs15265">
              <path
                 id="mcf63bf6bf5"
                 d="M 0 0  L 0 3.5  "
                 style="stroke: #000000; stroke-width: 0.8" />
            </defs>
            <g
               id="g15269">
              <use
                 xlink:href="#mcf63bf6bf5"
                 x="99.1525"
                 y="260.12"
                 style="stroke: #000000; stroke-width: 0.8"
                 id="use15267" />
            </g>
          </g>
          <g
             id="text_1">
            <!-- 0 -->
            <g
               transform="translate(95.97125 274.718437) scale(0.1 -0.1)"
               id="g15277">
              <defs
                 id="defs15273">
                <path
                   id="DejaVuSans-30"
                   d="M 2034 4250  Q 1547 4250 1301 3770  Q 1056 3291 1056 2328  Q 1056 1369 1301 889  Q 1547 409 2034 409  Q 2525 409 2770 889  Q 3016 1369 3016 2328  Q 3016 3291 2770 3770  Q 2525 4250 2034 4250  z M 2034 4750  Q 2819 4750 3233 4129  Q 3647 3509 3647 2328  Q 3647 1150 3233 529  Q 2819 -91 2034 -91  Q 1250 -91 836 529  Q 422 1150 422 2328  Q 422 3509 836 4129  Q 1250 4750 2034 4750  z "
                   transform="scale(0.015625)" />
              </defs>
              <use
                 xlink:href="#DejaVuSans-30"
                 id="use15275" />
            </g>
          </g>
        </g>
      </g>
      <g
         id="matplotlib.axis_2">
        <g
           id="ytick_1">
          <g
             id="line2d_2">
            <defs
               id="defs15283">
              <path
                 id="md8ba07f975"
                 d="M 0 0  L -3.5 0  "
                 style="stroke: #000000; stroke-width: 0.8" />
            </defs>
            <g
               id="g15287">
              <use
                 xlink:href="#md8ba07f975"
                 x="50.195"
                 y="235.15637"
                 style="stroke: #000000; stroke-width: 0.8"
                 id="use15285" />
            </g>
          </g>
          <g
             id="text_2">
            <!-- 25 -->
            <g
               transform="translate(30.47 238.955589) scale(0.1 -0.1)"
               id="g15298">
              <defs
                 id="defs15292">
                <path
                   id="DejaVuSans-32"
                   d="M 1228 531  L 3431 531  L 3431 0  L 469 0  L 469 531  Q 828 903 1448 1529  Q 2069 2156 2228 2338  Q 2531 2678 2651 2914  Q 2772 3150 2772 3378  Q 2772 3750 2511 3984  Q 2250 4219 1831 4219  Q 1534 4219 1204 4116  Q 875 4013 500 3803  L 500 4441  Q 881 4594 1212 4672  Q 1544 4750 1819 4750  Q 2544 4750 2975 4387  Q 3406 4025 3406 3419  Q 3406 3131 3298 2873  Q 3191 2616 2906 2266  Q 2828 2175 2409 1742  Q 1991 1309 1228 531  z "
                   transform="scale(0.015625)" />
                <path
                   id="DejaVuSans-35"
                   d="M 691 4666  L 3169 4666  L 3169 4134  L 1269 4134  L 1269 2991  Q 1406 3038 1543 3061  Q 1681 3084 1819 3084  Q 2600 3084 3056 2656  Q 3513 2228 3513 1497  Q 3513 744 3044 326  Q 2575 -91 1722 -91  Q 1428 -91 1123 -41  Q 819 9 494 109  L 494 744  Q 775 591 1075 516  Q 1375 441 1709 441  Q 2250 441 2565 725  Q 2881 1009 2881 1497  Q 2881 1984 2565 2268  Q 2250 2553 1709 2553  Q 1456 2553 1204 2497  Q 953 2441 691 2322  L 691 4666  z "
                   transform="scale(0.015625)" />
              </defs>
              <use
                 xlink:href="#DejaVuSans-32"
                 id="use15294" />
              <use
                 xlink:href="#DejaVuSans-35"
                 x="63.623047"
                 id="use15296" />
            </g>
          </g>
        </g>
        <g
           id="ytick_2">
          <g
             id="line2d_3">
            <g
               id="g15304">
              <use
                 xlink:href="#md8ba07f975"
                 x="50.195"
                 y="200.965459"
                 style="stroke: #000000; stroke-width: 0.8"
                 id="use15302" />
            </g>
          </g>
          <g
             id="text_3">
            <!-- 30 -->
            <g
               transform="translate(30.47 204.764678) scale(0.1 -0.1)"
               id="g15314">
              <defs
                 id="defs15308">
                <path
                   id="DejaVuSans-33"
                   d="M 2597 2516  Q 3050 2419 3304 2112  Q 3559 1806 3559 1356  Q 3559 666 3084 287  Q 2609 -91 1734 -91  Q 1441 -91 1130 -33  Q 819 25 488 141  L 488 750  Q 750 597 1062 519  Q 1375 441 1716 441  Q 2309 441 2620 675  Q 2931 909 2931 1356  Q 2931 1769 2642 2001  Q 2353 2234 1838 2234  L 1294 2234  L 1294 2753  L 1863 2753  Q 2328 2753 2575 2939  Q 2822 3125 2822 3475  Q 2822 3834 2567 4026  Q 2313 4219 1838 4219  Q 1578 4219 1281 4162  Q 984 4106 628 3988  L 628 4550  Q 988 4650 1302 4700  Q 1616 4750 1894 4750  Q 2613 4750 3031 4423  Q 3450 4097 3450 3541  Q 3450 3153 3228 2886  Q 3006 2619 2597 2516  z "
                   transform="scale(0.015625)" />
              </defs>
              <use
                 xlink:href="#DejaVuSans-33"
                 id="use15310" />
              <use
                 xlink:href="#DejaVuSans-30"
                 x="63.623047"
                 id="use15312" />
            </g>
          </g>
        </g>
        <g
           id="ytick_3">
          <g
             id="line2d_4">
            <g
               id="g15320">
              <use
                 xlink:href="#md8ba07f975"
                 x="50.195"
                 y="166.774547"
                 style="stroke: #000000; stroke-width: 0.8"
                 id="use15318" />
            </g>
          </g>
          <g
             id="text_4">
            <!-- 35 -->
            <g
               transform="translate(30.47 170.573766) scale(0.1 -0.1)"
               id="g15327">
              <use
                 xlink:href="#DejaVuSans-33"
                 id="use15323" />
              <use
                 xlink:href="#DejaVuSans-35"
                 x="63.623047"
                 id="use15325" />
            </g>
          </g>
        </g>
        <g
           id="ytick_4">
          <g
             id="line2d_5">
            <g
               id="g15333">
              <use
                 xlink:href="#md8ba07f975"
                 x="50.195"
                 y="132.583635"
                 style="stroke: #000000; stroke-width: 0.8"
                 id="use15331" />
            </g>
          </g>
          <g
             id="text_5">
            <!-- 40 -->
            <g
               transform="translate(30.47 136.382854) scale(0.1 -0.1)"
               id="g15343">
              <defs
                 id="defs15337">
                <path
                   id="DejaVuSans-34"
                   d="M 2419 4116  L 825 1625  L 2419 1625  L 2419 4116  z M 2253 4666  L 3047 4666  L 3047 1625  L 3713 1625  L 3713 1100  L 3047 1100  L 3047 0  L 2419 0  L 2419 1100  L 313 1100  L 313 1709  L 2253 4666  z "
                   transform="scale(0.015625)" />
              </defs>
              <use
                 xlink:href="#DejaVuSans-34"
                 id="use15339" />
              <use
                 xlink:href="#DejaVuSans-30"
                 x="63.623047"
                 id="use15341" />
            </g>
          </g>
        </g>
        <g
           id="ytick_5">
          <g
             id="line2d_6">
            <g
               id="g15349">
              <use
                 xlink:href="#md8ba07f975"
                 x="50.195"
                 y="98.392724"
                 style="stroke: #000000; stroke-width: 0.8"
                 id="use15347" />
            </g>
          </g>
          <g
             id="text_6">
            <!-- 45 -->
            <g
               transform="translate(30.47 102.191942) scale(0.1 -0.1)"
               id="g15356">
              <use
                 xlink:href="#DejaVuSans-34"
                 id="use15352" />
              <use
                 xlink:href="#DejaVuSans-35"
                 x="63.623047"
                 id="use15354" />
            </g>
          </g>
        </g>
        <g
           id="ytick_6">
          <g
             id="line2d_7">
            <g
               id="g15362">
              <use
                 xlink:href="#md8ba07f975"
                 x="50.195"
                 y="64.201812"
                 style="stroke: #000000; stroke-width: 0.8"
                 id="use15360" />
            </g>
          </g>
          <g
             id="text_7">
            <!-- 50 -->
            <g
               transform="translate(30.47 68.001031) scale(0.1 -0.1)"
               id="g15369">
              <use
                 xlink:href="#DejaVuSans-35"
                 id="use15365" />
              <use
                 xlink:href="#DejaVuSans-30"
                 x="63.623047"
                 id="use15367" />
            </g>
          </g>
        </g>
        <g
           id="text_8">
          <!-- $\sum$ reward -->
          <g
             transform="translate(23.67 170.16) rotate(-90) scale(0.1 -0.1)"
             id="g15398">
            <defs
               id="defs15380">
              <path
                 id="DejaVuSansDisplay-2211"
                 d="M 244 6509  L 5803 6509  L 5803 5656  L 1566 5656  L 4534 2488  L 1469 -888  L 5919 -888  L 5919 -1738  L 109 -1738  L 109 -1078  L 3316 2463  L 244 5728  L 244 6509  z "
                 transform="scale(0.015625)" />
              <path
                 id="DejaVuSans-20"
                 transform="scale(0.015625)" />
              <path
                 id="DejaVuSans-72"
                 d="M 2631 2963  Q 2534 3019 2420 3045  Q 2306 3072 2169 3072  Q 1681 3072 1420 2755  Q 1159 2438 1159 1844  L 1159 0  L 581 0  L 581 3500  L 1159 3500  L 1159 2956  Q 1341 3275 1631 3429  Q 1922 3584 2338 3584  Q 2397 3584 2469 3576  Q 2541 3569 2628 3553  L 2631 2963  z "
                 transform="scale(0.015625)" />
              <path
                 id="DejaVuSans-65"
                 d="M 3597 1894  L 3597 1613  L 953 1613  Q 991 1019 1311 708  Q 1631 397 2203 397  Q 2534 397 2845 478  Q 3156 559 3463 722  L 3463 178  Q 3153 47 2828 -22  Q 2503 -91 2169 -91  Q 1331 -91 842 396  Q 353 884 353 1716  Q 353 2575 817 3079  Q 1281 3584 2069 3584  Q 2775 3584 3186 3129  Q 3597 2675 3597 1894  z M 3022 2063  Q 3016 2534 2758 2815  Q 2500 3097 2075 3097  Q 1594 3097 1305 2825  Q 1016 2553 972 2059  L 3022 2063  z "
                 transform="scale(0.015625)" />
              <path
                 id="DejaVuSans-77"
                 d="M 269 3500  L 844 3500  L 1563 769  L 2278 3500  L 2956 3500  L 3675 769  L 4391 3500  L 4966 3500  L 4050 0  L 3372 0  L 2619 2869  L 1863 0  L 1184 0  L 269 3500  z "
                 transform="scale(0.015625)" />
              <path
                 id="DejaVuSans-61"
                 d="M 2194 1759  Q 1497 1759 1228 1600  Q 959 1441 959 1056  Q 959 750 1161 570  Q 1363 391 1709 391  Q 2188 391 2477 730  Q 2766 1069 2766 1631  L 2766 1759  L 2194 1759  z M 3341 1997  L 3341 0  L 2766 0  L 2766 531  Q 2569 213 2275 61  Q 1981 -91 1556 -91  Q 1019 -91 701 211  Q 384 513 384 1019  Q 384 1609 779 1909  Q 1175 2209 1959 2209  L 2766 2209  L 2766 2266  Q 2766 2663 2505 2880  Q 2244 3097 1772 3097  Q 1472 3097 1187 3025  Q 903 2953 641 2809  L 641 3341  Q 956 3463 1253 3523  Q 1550 3584 1831 3584  Q 2591 3584 2966 3190  Q 3341 2797 3341 1997  z "
                 transform="scale(0.015625)" />
              <path
                 id="DejaVuSans-64"
                 d="M 2906 2969  L 2906 4863  L 3481 4863  L 3481 0  L 2906 0  L 2906 525  Q 2725 213 2448 61  Q 2172 -91 1784 -91  Q 1150 -91 751 415  Q 353 922 353 1747  Q 353 2572 751 3078  Q 1150 3584 1784 3584  Q 2172 3584 2448 3432  Q 2725 3281 2906 2969  z M 947 1747  Q 947 1113 1208 752  Q 1469 391 1925 391  Q 2381 391 2643 752  Q 2906 1113 2906 1747  Q 2906 2381 2643 2742  Q 2381 3103 1925 3103  Q 1469 3103 1208 2742  Q 947 2381 947 1747  z "
                 transform="scale(0.015625)" />
            </defs>
            <use
               xlink:href="#DejaVuSansDisplay-2211"
               transform="translate(0 0.296875)"
               id="use15382" />
            <use
               xlink:href="#DejaVuSans-20"
               transform="translate(95.263672 0.296875)"
               id="use15384" />
            <use
               xlink:href="#DejaVuSans-72"
               transform="translate(127.050781 0.296875)"
               id="use15386" />
            <use
               xlink:href="#DejaVuSans-65"
               transform="translate(168.164062 0.296875)"
               id="use15388" />
            <use
               xlink:href="#DejaVuSans-77"
               transform="translate(229.6875 0.296875)"
               id="use15390" />
            <use
               xlink:href="#DejaVuSans-61"
               transform="translate(311.474609 0.296875)"
               id="use15392" />
            <use
               xlink:href="#DejaVuSans-72"
               transform="translate(372.753906 0.296875)"
               id="use15394" />
            <use
               xlink:href="#DejaVuSans-64"
               transform="translate(413.867188 0.296875)"
               id="use15396" />
          </g>
        </g>
      </g>
      <g
         id="line2d_8">
        <path
           d="M 99.1525 204.38455  L 99.1525 88.13545  "
           clip-path="url(#p2a70443b04)"
           style="fill: none; stroke: #7f7f7f; stroke-width: 1.5; stroke-linecap: square"
           id="path15402" />
      </g>
      <g
         id="line2d_9">
        <path
           d="M 99.1525 173.612729  L 99.1525 98.392724  "
           clip-path="url(#p2a70443b04)"
           style="fill: none; stroke: #7f7f7f; stroke-width: 4.5; stroke-linecap: square"
           id="path15405" />
      </g>
      <g
         id="patch_3">
        <path
           d="M 50.195 260.12  L 50.195 32.4  "
           style="fill: none; stroke: #000000; stroke-width: 0.8; stroke-linejoin: miter; stroke-linecap: square"
           id="path15408" />
      </g>
      <g
         id="patch_4">
        <path
           d="M 148.11 260.12  L 148.11 32.4  "
           style="fill: none; stroke: #000000; stroke-width: 0.8; stroke-linejoin: miter; stroke-linecap: square"
           id="path15411" />
      </g>
      <g
         id="patch_5">
        <path
           d="M 50.195 260.12  L 148.11 260.12  "
           style="fill: none; stroke: #000000; stroke-width: 0.8; stroke-linejoin: miter; stroke-linecap: square"
           id="path15414" />
      </g>
      <g
         id="patch_6">
        <path
           d="M 50.195 32.4  L 148.11 32.4  "
           style="fill: none; stroke: #000000; stroke-width: 0.8; stroke-linejoin: miter; stroke-linecap: square"
           id="path15417" />
      </g>
      <g
         id="PathCollection_1">
        <defs
           id="defs15421">
          <path
             id="m373b2a3842"
             d="M 0 1.5  C 0.397805 1.5 0.77937 1.341951 1.06066 1.06066  C 1.341951 0.77937 1.5 0.397805 1.5 0  C 1.5 -0.397805 1.341951 -0.77937 1.06066 -1.06066  C 0.77937 -1.341951 0.397805 -1.5 0 -1.5  C -0.397805 -1.5 -0.77937 -1.341951 -1.06066 -1.06066  C -1.341951 -0.77937 -1.5 -0.397805 -1.5 0  C -1.5 0.397805 -1.341951 0.77937 -1.06066 1.06066  C -0.77937 1.341951 -0.397805 1.5 0 1.5  z "
             style="stroke: #7f7f7f" />
        </defs>
        <g
           clip-path="url(#p2a70443b04)"
           id="g15425">
          <use
             xlink:href="#m373b2a3842"
             x="99.1525"
             y="118.907271"
             style="fill: #ffffff; stroke: #7f7f7f"
             id="use15423" />
        </g>
      </g>
    </g>
    <g
       id="axes_2">
      <g
         id="patch_7">
        <path
           d="M 201.14 260.12  L 299.055 260.12  L 299.055 32.4  L 201.14 32.4  z "
           style="fill: #ffffff"
           id="path15429" />
      </g>
      <g
         id="PolyCollection_2">
        <defs
           id="defs15433">
          <path
             id="m8584673fc5"
             d="M 250.672652 -38.230909  L 249.522348 -38.230909  L 249.395513 -40.322002  L 249.248805 -42.413095  L 249.081042 -44.504187  L 248.891392 -46.59528  L 248.679448 -48.686373  L 248.445286 -50.777466  L 248.189513 -52.868558  L 247.913273 -54.959651  L 247.618235 -57.050744  L 247.306537 -59.141837  L 246.980697 -61.232929  L 246.643486 -63.324022  L 246.297776 -65.415115  L 245.946354 -67.506208  L 245.591737 -69.5973  L 245.235975 -71.688393  L 244.88047 -73.779486  L 244.52582 -75.870579  L 244.171702 -77.961671  L 243.816805 -80.052764  L 243.458815 -82.143857  L 243.094475 -84.234949  L 242.719695 -86.326042  L 242.329739 -88.417135  L 241.919454 -90.508228  L 241.483562 -92.59932  L 241.01697 -94.690413  L 240.515114 -96.781506  L 239.974288 -98.872599  L 239.39197 -100.963691  L 238.767103 -103.054784  L 238.100313 -105.145877  L 237.394065 -107.23697  L 236.65271 -109.328062  L 235.882436 -111.419155  L 235.091098 -113.510248  L 234.287937 -115.601341  L 233.48318 -117.692433  L 232.687537 -119.783526  L 231.911635 -121.874619  L 231.165379 -123.965712  L 230.457323 -126.056804  L 229.794056 -128.147897  L 229.179664 -130.23899  L 228.615309 -132.330083  L 228.098963 -134.421175  L 227.625323 -136.512268  L 227.185935 -138.603361  L 226.769521 -140.694454  L 226.362515 -142.785546  L 225.94977 -144.876639  L 225.515409 -146.967732  L 225.043767 -149.058825  L 224.52037 -151.149917  L 223.9329 -153.24101  L 223.272075 -155.332103  L 222.532406 -157.423196  L 221.712778 -159.514288  L 220.816832 -161.605381  L 219.853114 -163.696474  L 218.835002 -165.787567  L 217.780405 -167.878659  L 216.711247 -169.969752  L 215.652778 -172.060845  L 214.632724 -174.151938  L 213.680329 -176.24303  L 212.825323 -178.334123  L 212.09685 -180.425216  L 211.522416 -182.516309  L 211.126874 -184.607401  L 210.9315 -186.698494  L 210.953189 -188.789587  L 211.203801 -190.88068  L 211.689686 -192.971772  L 212.411405 -195.062865  L 213.363662 -197.153958  L 214.535453 -199.245051  L 215.910425 -201.336143  L 217.467435 -203.427236  L 219.181276 -205.518329  L 221.023553 -207.609421  L 222.963659 -209.700514  L 224.969805 -211.791607  L 227.010059 -213.8827  L 229.053356 -215.973792  L 231.070412 -218.064885  L 233.034525 -220.155978  L 234.922225 -222.247071  L 236.713745 -224.338163  L 238.393313 -226.429256  L 239.949265 -228.520349  L 241.37398 -230.611442  L 242.663668 -232.702534  L 243.818033 -234.793627  L 244.839836 -236.88472  L 245.734397 -238.975813  L 246.509072 -241.066905  L 247.17271 -243.157998  L 247.735156 -245.249091  L 252.459844 -245.249091  L 252.459844 -245.249091  L 253.02229 -243.157998  L 253.685928 -241.066905  L 254.460603 -238.975813  L 255.355164 -236.88472  L 256.376967 -234.793627  L 257.531332 -232.702534  L 258.82102 -230.611442  L 260.245735 -228.520349  L 261.801687 -226.429256  L 263.481255 -224.338163  L 265.272775 -222.247071  L 267.160475 -220.155978  L 269.124588 -218.064885  L 271.141644 -215.973792  L 273.184941 -213.8827  L 275.225195 -211.791607  L 277.231341 -209.700514  L 279.171447 -207.609421  L 281.013724 -205.518329  L 282.727565 -203.427236  L 284.284575 -201.336143  L 285.659547 -199.245051  L 286.831338 -197.153958  L 287.783595 -195.062865  L 288.505314 -192.971772  L 288.991199 -190.88068  L 289.241811 -188.789587  L 289.2635 -186.698494  L 289.068126 -184.607401  L 288.672584 -182.516309  L 288.09815 -180.425216  L 287.369677 -178.334123  L 286.514671 -176.24303  L 285.562276 -174.151938  L 284.542222 -172.060845  L 283.483753 -169.969752  L 282.414595 -167.878659  L 281.359998 -165.787567  L 280.341886 -163.696474  L 279.378168 -161.605381  L 278.482222 -159.514288  L 277.662594 -157.423196  L 276.922925 -155.332103  L 276.2621 -153.24101  L 275.67463 -151.149917  L 275.151233 -149.058825  L 274.679591 -146.967732  L 274.24523 -144.876639  L 273.832485 -142.785546  L 273.425479 -140.694454  L 273.009065 -138.603361  L 272.569677 -136.512268  L 272.096037 -134.421175  L 271.579691 -132.330083  L 271.015336 -130.23899  L 270.400944 -128.147897  L 269.737677 -126.056804  L 269.029621 -123.965712  L 268.283365 -121.874619  L 267.507463 -119.783526  L 266.71182 -117.692433  L 265.907063 -115.601341  L 265.103902 -113.510248  L 264.312564 -111.419155  L 263.54229 -109.328062  L 262.800935 -107.23697  L 262.094687 -105.145877  L 261.427897 -103.054784  L 260.80303 -100.963691  L 260.220712 -98.872599  L 259.679886 -96.781506  L 259.17803 -94.690413  L 258.711438 -92.59932  L 258.275546 -90.508228  L 257.865261 -88.417135  L 257.475305 -86.326042  L 257.100525 -84.234949  L 256.736185 -82.143857  L 256.378195 -80.052764  L 256.023298 -77.961671  L 255.66918 -75.870579  L 255.31453 -73.779486  L 254.959025 -71.688393  L 254.603263 -69.5973  L 254.248646 -67.506208  L 253.897224 -65.415115  L 253.551514 -63.324022  L 253.214303 -61.232929  L 252.888463 -59.141837  L 252.576765 -57.050744  L 252.281727 -54.959651  L 252.005487 -52.868558  L 251.749714 -50.777466  L 251.515552 -48.686373  L 251.303608 -46.59528  L 251.113958 -44.504187  L 250.946195 -42.413095  L 250.799487 -40.322002  L 250.672652 -38.230909  z "
             style="stroke: #797979; stroke-width: 1.5" />
        </defs>
        <g
           clip-path="url(#p84d8febd67)"
           id="g15437">
          <use
             xlink:href="#m8584673fc5"
             x="0"
             y="288"
             style="fill: #b4d4df; stroke: #797979; stroke-width: 1.5"
             id="use15435" />
        </g>
      </g>
      <g
         id="matplotlib.axis_3">
        <g
           id="xtick_2">
          <g
             id="line2d_10">
            <g
               id="g15442">
              <use
                 xlink:href="#mcf63bf6bf5"
                 x="250.0975"
                 y="260.12"
                 style="stroke: #000000; stroke-width: 0.8"
                 id="use15440" />
            </g>
          </g>
          <g
             id="text_9">
            <!-- 0 -->
            <g
               transform="translate(246.91625 274.718437) scale(0.1 -0.1)"
               id="g15447">
              <use
                 xlink:href="#DejaVuSans-30"
                 id="use15445" />
            </g>
          </g>
        </g>
      </g>
      <g
         id="matplotlib.axis_4">
        <g
           id="ytick_7">
          <g
             id="line2d_11">
            <g
               id="g15454">
              <use
                 xlink:href="#md8ba07f975"
                 x="201.14"
                 y="249.278123"
                 style="stroke: #000000; stroke-width: 0.8"
                 id="use15452" />
            </g>
          </g>
          <g
             id="text_10">
            <!-- −10 -->
            <g
               transform="translate(173.035312 253.077342) scale(0.1 -0.1)"
               id="g15467">
              <defs
                 id="defs15459">
                <path
                   id="DejaVuSans-2212"
                   d="M 678 2272  L 4684 2272  L 4684 1741  L 678 1741  L 678 2272  z "
                   transform="scale(0.015625)" />
                <path
                   id="DejaVuSans-31"
                   d="M 794 531  L 1825 531  L 1825 4091  L 703 3866  L 703 4441  L 1819 4666  L 2450 4666  L 2450 531  L 3481 531  L 3481 0  L 794 0  L 794 531  z "
                   transform="scale(0.015625)" />
              </defs>
              <use
                 xlink:href="#DejaVuSans-2212"
                 id="use15461" />
              <use
                 xlink:href="#DejaVuSans-31"
                 x="83.789062"
                 id="use15463" />
              <use
                 xlink:href="#DejaVuSans-30"
                 x="147.412109"
                 id="use15465" />
            </g>
          </g>
        </g>
        <g
           id="ytick_8">
          <g
             id="line2d_12">
            <g
               id="g15473">
              <use
                 xlink:href="#md8ba07f975"
                 x="201.14"
                 y="208.070874"
                 style="stroke: #000000; stroke-width: 0.8"
                 id="use15471" />
            </g>
          </g>
          <g
             id="text_11">
            <!-- 0 -->
            <g
               transform="translate(187.7775 211.870093) scale(0.1 -0.1)"
               id="g15478">
              <use
                 xlink:href="#DejaVuSans-30"
                 id="use15476" />
            </g>
          </g>
        </g>
        <g
           id="ytick_9">
          <g
             id="line2d_13">
            <g
               id="g15484">
              <use
                 xlink:href="#md8ba07f975"
                 x="201.14"
                 y="166.863625"
                 style="stroke: #000000; stroke-width: 0.8"
                 id="use15482" />
            </g>
          </g>
          <g
             id="text_12">
            <!-- 10 -->
            <g
               transform="translate(181.415 170.662843) scale(0.1 -0.1)"
               id="g15491">
              <use
                 xlink:href="#DejaVuSans-31"
                 id="use15487" />
              <use
                 xlink:href="#DejaVuSans-30"
                 x="63.623047"
                 id="use15489" />
            </g>
          </g>
        </g>
        <g
           id="ytick_10">
          <g
             id="line2d_14">
            <g
               id="g15497">
              <use
                 xlink:href="#md8ba07f975"
                 x="201.14"
                 y="125.656375"
                 style="stroke: #000000; stroke-width: 0.8"
                 id="use15495" />
            </g>
          </g>
          <g
             id="text_13">
            <!-- 20 -->
            <g
               transform="translate(181.415 129.455594) scale(0.1 -0.1)"
               id="g15504">
              <use
                 xlink:href="#DejaVuSans-32"
                 id="use15500" />
              <use
                 xlink:href="#DejaVuSans-30"
                 x="63.623047"
                 id="use15502" />
            </g>
          </g>
        </g>
        <g
           id="ytick_11">
          <g
             id="line2d_15">
            <g
               id="g15510">
              <use
                 xlink:href="#md8ba07f975"
                 x="201.14"
                 y="84.449126"
                 style="stroke: #000000; stroke-width: 0.8"
                 id="use15508" />
            </g>
          </g>
          <g
             id="text_14">
            <!-- 30 -->
            <g
               transform="translate(181.415 88.248345) scale(0.1 -0.1)"
               id="g15517">
              <use
                 xlink:href="#DejaVuSans-33"
                 id="use15513" />
              <use
                 xlink:href="#DejaVuSans-30"
                 x="63.623047"
                 id="use15515" />
            </g>
          </g>
        </g>
        <g
           id="ytick_12">
          <g
             id="line2d_16">
            <g
               id="g15523">
              <use
                 xlink:href="#md8ba07f975"
                 x="201.14"
                 y="43.241877"
                 style="stroke: #000000; stroke-width: 0.8"
                 id="use15521" />
            </g>
          </g>
          <g
             id="text_15">
            <!-- 40 -->
            <g
               transform="translate(181.415 47.041095) scale(0.1 -0.1)"
               id="g15530">
              <use
                 xlink:href="#DejaVuSans-34"
                 id="use15526" />
              <use
                 xlink:href="#DejaVuSans-30"
                 x="63.623047"
                 id="use15528" />
            </g>
          </g>
        </g>
        <g
           id="text_16">
          <!-- # wins -->
          <g
             transform="translate(166.955625 163.290469) rotate(-90) scale(0.1 -0.1)"
             id="g15552">
            <defs
               id="defs15538">
              <path
                 id="DejaVuSans-23"
                 d="M 3272 2816  L 2363 2816  L 2100 1772  L 3016 1772  L 3272 2816  z M 2803 4594  L 2478 3297  L 3391 3297  L 3719 4594  L 4219 4594  L 3897 3297  L 4872 3297  L 4872 2816  L 3775 2816  L 3519 1772  L 4513 1772  L 4513 1294  L 3397 1294  L 3072 0  L 2572 0  L 2894 1294  L 1978 1294  L 1656 0  L 1153 0  L 1478 1294  L 494 1294  L 494 1772  L 1594 1772  L 1856 2816  L 850 2816  L 850 3297  L 1978 3297  L 2297 4594  L 2803 4594  z "
                 transform="scale(0.015625)" />
              <path
                 id="DejaVuSans-69"
                 d="M 603 3500  L 1178 3500  L 1178 0  L 603 0  L 603 3500  z M 603 4863  L 1178 4863  L 1178 4134  L 603 4134  L 603 4863  z "
                 transform="scale(0.015625)" />
              <path
                 id="DejaVuSans-6e"
                 d="M 3513 2113  L 3513 0  L 2938 0  L 2938 2094  Q 2938 2591 2744 2837  Q 2550 3084 2163 3084  Q 1697 3084 1428 2787  Q 1159 2491 1159 1978  L 1159 0  L 581 0  L 581 3500  L 1159 3500  L 1159 2956  Q 1366 3272 1645 3428  Q 1925 3584 2291 3584  Q 2894 3584 3203 3211  Q 3513 2838 3513 2113  z "
                 transform="scale(0.015625)" />
              <path
                 id="DejaVuSans-73"
                 d="M 2834 3397  L 2834 2853  Q 2591 2978 2328 3040  Q 2066 3103 1784 3103  Q 1356 3103 1142 2972  Q 928 2841 928 2578  Q 928 2378 1081 2264  Q 1234 2150 1697 2047  L 1894 2003  Q 2506 1872 2764 1633  Q 3022 1394 3022 966  Q 3022 478 2636 193  Q 2250 -91 1575 -91  Q 1294 -91 989 -36  Q 684 19 347 128  L 347 722  Q 666 556 975 473  Q 1284 391 1588 391  Q 1994 391 2212 530  Q 2431 669 2431 922  Q 2431 1156 2273 1281  Q 2116 1406 1581 1522  L 1381 1569  Q 847 1681 609 1914  Q 372 2147 372 2553  Q 372 3047 722 3315  Q 1072 3584 1716 3584  Q 2034 3584 2315 3537  Q 2597 3491 2834 3397  z "
                 transform="scale(0.015625)" />
            </defs>
            <use
               xlink:href="#DejaVuSans-23"
               id="use15540" />
            <use
               xlink:href="#DejaVuSans-20"
               x="83.789062"
               id="use15542" />
            <use
               xlink:href="#DejaVuSans-77"
               x="115.576172"
               id="use15544" />
            <use
               xlink:href="#DejaVuSans-69"
               x="197.363281"
               id="use15546" />
            <use
               xlink:href="#DejaVuSans-6e"
               x="225.146484"
               id="use15548" />
            <use
               xlink:href="#DejaVuSans-73"
               x="288.525391"
               id="use15550" />
          </g>
        </g>
      </g>
      <g
         id="line2d_17">
        <path
           d="M 250.0975 208.070874  L 250.0975 84.449126  "
           clip-path="url(#p84d8febd67)"
           style="fill: none; stroke: #797979; stroke-width: 1.5; stroke-linecap: square"
           id="path15556" />
      </g>
      <g
         id="line2d_18">
        <path
           d="M 250.0975 150.380725  L 250.0975 96.811301  "
           clip-path="url(#p84d8febd67)"
           style="fill: none; stroke: #797979; stroke-width: 4.5; stroke-linecap: square"
           id="path15559" />
      </g>
      <g
         id="patch_8">
        <path
           d="M 201.14 260.12  L 201.14 32.4  "
           style="fill: none; stroke: #000000; stroke-width: 0.8; stroke-linejoin: miter; stroke-linecap: square"
           id="path15562" />
      </g>
      <g
         id="patch_9">
        <path
           d="M 299.055 260.12  L 299.055 32.4  "
           style="fill: none; stroke: #000000; stroke-width: 0.8; stroke-linejoin: miter; stroke-linecap: square"
           id="path15565" />
      </g>
      <g
         id="patch_10">
        <path
           d="M 201.14 260.12  L 299.055 260.12  "
           style="fill: none; stroke: #000000; stroke-width: 0.8; stroke-linejoin: miter; stroke-linecap: square"
           id="path15568" />
      </g>
      <g
         id="patch_11">
        <path
           d="M 201.14 32.4  L 299.055 32.4  "
           style="fill: none; stroke: #000000; stroke-width: 0.8; stroke-linejoin: miter; stroke-linecap: square"
           id="path15571" />
      </g>
      <g
         id="PathCollection_2">
        <defs
           id="defs15575">
          <path
             id="m7b20050e3a"
             d="M 0 1.5  C 0.397805 1.5 0.77937 1.341951 1.06066 1.06066  C 1.341951 0.77937 1.5 0.397805 1.5 0  C 1.5 -0.397805 1.341951 -0.77937 1.06066 -1.06066  C 0.77937 -1.341951 0.397805 -1.5 0 -1.5  C -0.397805 -1.5 -0.77937 -1.341951 -1.06066 -1.06066  C -1.341951 -0.77937 -1.5 -0.397805 -1.5 0  C -1.5 0.397805 -1.341951 0.77937 -1.06066 1.06066  C -0.77937 1.341951 -0.397805 1.5 0 1.5  z "
             style="stroke: #797979" />
        </defs>
        <g
           clip-path="url(#p84d8febd67)"
           id="g15579">
          <use
             xlink:href="#m7b20050e3a"
             x="250.0975"
             y="113.294201"
             style="fill: #ffffff; stroke: #797979"
             id="use15577" />
        </g>
      </g>
    </g>
    <g
       id="axes_3">
      <g
         id="patch_12">
        <path
           d="M 352.085 260.12  L 450 260.12  L 450 32.4  L 352.085 32.4  z "
           style="fill: #ffffff"
           id="path15583" />
      </g>
      <g
         id="PolyCollection_3">
        <defs
           id="defs15587">
          <path
             id="m586ea1eaaf"
             d="M 401.682648 -38.230909  L 400.402352 -38.230909  L 400.24206 -40.322002  L 400.052307 -42.413095  L 399.830486 -44.504187  L 399.574415 -46.59528  L 399.282487 -48.686373  L 398.95381 -50.777466  L 398.588325 -52.868558  L 398.186893 -54.959651  L 397.751336 -57.050744  L 397.284425 -59.141837  L 396.789819 -61.232929  L 396.271939 -63.324022  L 395.735795 -65.415115  L 395.186776 -67.506208  L 394.630396 -69.5973  L 394.072041 -71.688393  L 393.51671 -73.779486  L 392.968772 -75.870579  L 392.431765 -77.961671  L 391.90823 -80.052764  L 391.399604 -82.143857  L 390.906152 -84.234949  L 390.426959 -86.326042  L 389.959956 -88.417135  L 389.501971 -90.508228  L 389.048807 -92.59932  L 388.595322 -94.690413  L 388.135517 -96.781506  L 387.662615 -98.872599  L 387.169162 -100.963691  L 386.64713 -103.054784  L 386.088056 -105.145877  L 385.483231 -107.23697  L 384.823952 -109.328062  L 384.101847 -111.419155  L 383.309284 -113.510248  L 382.439853 -115.601341  L 381.488902 -117.692433  L 380.454094 -119.783526  L 379.335944 -121.874619  L 378.138287 -123.965712  L 376.86861 -126.056804  L 375.538215 -128.147897  L 374.162164 -130.23899  L 372.75898 -132.330083  L 371.350113 -134.421175  L 369.959182 -136.512268  L 368.611046 -138.603361  L 367.330773 -140.694454  L 366.142574 -142.785546  L 365.068803 -144.876639  L 364.129092 -146.967732  L 363.339693 -149.058825  L 362.713071 -151.149917  L 362.257763 -153.24101  L 361.978492 -155.332103  L 361.8765 -157.423196  L 361.950038 -159.514288  L 362.194936 -161.605381  L 362.605178 -163.696474  L 363.173419 -165.787567  L 363.891384 -167.878659  L 364.750117 -169.969752  L 365.740086 -172.060845  L 366.851149 -174.151938  L 368.072437 -176.24303  L 369.392197 -178.334123  L 370.797651 -180.425216  L 372.274934 -182.516309  L 373.809133 -184.607401  L 375.384465 -186.698494  L 376.98458 -188.789587  L 378.592974 -190.88068  L 380.193477 -192.971772  L 381.770755 -195.062865  L 383.310799 -197.153958  L 384.801324 -199.245051  L 386.23207 -201.336143  L 387.594966 -203.427236  L 388.884147 -205.518329  L 390.095854 -207.609421  L 391.228221 -209.700514  L 392.280986 -211.791607  L 393.255168 -213.8827  L 394.152734 -215.973792  L 394.976302 -218.064885  L 395.728884 -220.155978  L 396.413692 -222.247071  L 397.034009 -224.338163  L 397.59312 -226.429256  L 398.094287 -228.520349  L 398.54076 -230.611442  L 398.935808 -232.702534  L 399.282744 -234.793627  L 399.584956 -236.88472  L 399.845911 -238.975813  L 400.069144 -241.066905  L 400.258235 -243.157998  L 400.416762 -245.249091  L 401.668238 -245.249091  L 401.668238 -245.249091  L 401.826765 -243.157998  L 402.015856 -241.066905  L 402.239089 -238.975813  L 402.500044 -236.88472  L 402.802256 -234.793627  L 403.149192 -232.702534  L 403.54424 -230.611442  L 403.990713 -228.520349  L 404.49188 -226.429256  L 405.050991 -224.338163  L 405.671308 -222.247071  L 406.356116 -220.155978  L 407.108698 -218.064885  L 407.932266 -215.973792  L 408.829832 -213.8827  L 409.804014 -211.791607  L 410.856779 -209.700514  L 411.989146 -207.609421  L 413.200853 -205.518329  L 414.490034 -203.427236  L 415.85293 -201.336143  L 417.283676 -199.245051  L 418.774201 -197.153958  L 420.314245 -195.062865  L 421.891523 -192.971772  L 423.492026 -190.88068  L 425.10042 -188.789587  L 426.700535 -186.698494  L 428.275867 -184.607401  L 429.810066 -182.516309  L 431.287349 -180.425216  L 432.692803 -178.334123  L 434.012563 -176.24303  L 435.233851 -174.151938  L 436.344914 -172.060845  L 437.334883 -169.969752  L 438.193616 -167.878659  L 438.911581 -165.787567  L 439.479822 -163.696474  L 439.890064 -161.605381  L 440.134962 -159.514288  L 440.2085 -157.423196  L 440.106508 -155.332103  L 439.827237 -153.24101  L 439.371929 -151.149917  L 438.745307 -149.058825  L 437.955908 -146.967732  L 437.016197 -144.876639  L 435.942426 -142.785546  L 434.754227 -140.694454  L 433.473954 -138.603361  L 432.125818 -136.512268  L 430.734887 -134.421175  L 429.32602 -132.330083  L 427.922836 -130.23899  L 426.546785 -128.147897  L 425.21639 -126.056804  L 423.946713 -123.965712  L 422.749056 -121.874619  L 421.630906 -119.783526  L 420.596098 -117.692433  L 419.645147 -115.601341  L 418.775716 -113.510248  L 417.983153 -111.419155  L 417.261048 -109.328062  L 416.601769 -107.23697  L 415.996944 -105.145877  L 415.43787 -103.054784  L 414.915838 -100.963691  L 414.422385 -98.872599  L 413.949483 -96.781506  L 413.489678 -94.690413  L 413.036193 -92.59932  L 412.583029 -90.508228  L 412.125044 -88.417135  L 411.658041 -86.326042  L 411.178848 -84.234949  L 410.685396 -82.143857  L 410.17677 -80.052764  L 409.653235 -77.961671  L 409.116228 -75.870579  L 408.56829 -73.779486  L 408.012959 -71.688393  L 407.454604 -69.5973  L 406.898224 -67.506208  L 406.349205 -65.415115  L 405.813061 -63.324022  L 405.295181 -61.232929  L 404.800575 -59.141837  L 404.333664 -57.050744  L 403.898107 -54.959651  L 403.496675 -52.868558  L 403.13119 -50.777466  L 402.802513 -48.686373  L 402.510585 -46.59528  L 402.254514 -44.504187  L 402.032693 -42.413095  L 401.84294 -40.322002  L 401.682648 -38.230909  z "
             style="stroke: #646464; stroke-width: 1.5" />
        </defs>
        <g
           clip-path="url(#p619c54184b)"
           id="g15591">
          <use
             xlink:href="#m586ea1eaaf"
             x="0"
             y="288"
             style="fill: #e98966; stroke: #646464; stroke-width: 1.5"
             id="use15589" />
        </g>
      </g>
      <g
         id="matplotlib.axis_5">
        <g
           id="xtick_3">
          <g
             id="line2d_19">
            <g
               id="g15596">
              <use
                 xlink:href="#mcf63bf6bf5"
                 x="401.0425"
                 y="260.12"
                 style="stroke: #000000; stroke-width: 0.8"
                 id="use15594" />
            </g>
          </g>
          <g
             id="text_17">
            <!-- 0 -->
            <g
               transform="translate(397.86125 274.718437) scale(0.1 -0.1)"
               id="g15601">
              <use
                 xlink:href="#DejaVuSans-30"
                 id="use15599" />
            </g>
          </g>
        </g>
      </g>
      <g
         id="matplotlib.axis_6">
        <g
           id="ytick_13">
          <g
             id="line2d_20">
            <g
               id="g15608">
              <use
                 xlink:href="#md8ba07f975"
                 x="352.085"
                 y="220.117635"
                 style="stroke: #000000; stroke-width: 0.8"
                 id="use15606" />
            </g>
          </g>
          <g
             id="text_18">
            <!-- −10 -->
            <g
               transform="translate(323.980312 223.916854) scale(0.1 -0.1)"
               id="g15617">
              <use
                 xlink:href="#DejaVuSans-2212"
                 id="use15611" />
              <use
                 xlink:href="#DejaVuSans-31"
                 x="83.789062"
                 id="use15613" />
              <use
                 xlink:href="#DejaVuSans-30"
                 x="147.412109"
                 id="use15615" />
            </g>
          </g>
        </g>
        <g
           id="ytick_14">
          <g
             id="line2d_21">
            <g
               id="g15623">
              <use
                 xlink:href="#md8ba07f975"
                 x="352.085"
                 y="176.671967"
                 style="stroke: #000000; stroke-width: 0.8"
                 id="use15621" />
            </g>
          </g>
          <g
             id="text_19">
            <!-- −5 -->
            <g
               transform="translate(330.342812 180.471186) scale(0.1 -0.1)"
               id="g15630">
              <use
                 xlink:href="#DejaVuSans-2212"
                 id="use15626" />
              <use
                 xlink:href="#DejaVuSans-35"
                 x="83.789062"
                 id="use15628" />
            </g>
          </g>
        </g>
        <g
           id="ytick_15">
          <g
             id="line2d_22">
            <g
               id="g15636">
              <use
                 xlink:href="#md8ba07f975"
                 x="352.085"
                 y="133.2263"
                 style="stroke: #000000; stroke-width: 0.8"
                 id="use15634" />
            </g>
          </g>
          <g
             id="text_20">
            <!-- 0 -->
            <g
               transform="translate(338.7225 137.025518) scale(0.1 -0.1)"
               id="g15641">
              <use
                 xlink:href="#DejaVuSans-30"
                 id="use15639" />
            </g>
          </g>
        </g>
        <g
           id="ytick_16">
          <g
             id="line2d_23">
            <g
               id="g15647">
              <use
                 xlink:href="#md8ba07f975"
                 x="352.085"
                 y="89.780632"
                 style="stroke: #000000; stroke-width: 0.8"
                 id="use15645" />
            </g>
          </g>
          <g
             id="text_21">
            <!-- 5 -->
            <g
               transform="translate(338.7225 93.579851) scale(0.1 -0.1)"
               id="g15652">
              <use
                 xlink:href="#DejaVuSans-35"
                 id="use15650" />
            </g>
          </g>
        </g>
        <g
           id="ytick_17">
          <g
             id="line2d_24">
            <g
               id="g15658">
              <use
                 xlink:href="#md8ba07f975"
                 x="352.085"
                 y="46.334964"
                 style="stroke: #000000; stroke-width: 0.8"
                 id="use15656" />
            </g>
          </g>
          <g
             id="text_22">
            <!-- 10 -->
            <g
               transform="translate(332.36 50.134183) scale(0.1 -0.1)"
               id="g15665">
              <use
                 xlink:href="#DejaVuSans-31"
                 id="use15661" />
              <use
                 xlink:href="#DejaVuSans-30"
                 x="63.623047"
                 id="use15663" />
            </g>
          </g>
        </g>
        <g
           id="text_23">
          <!-- net wins -->
          <g
             transform="translate(317.900625 167.306094) rotate(-90) scale(0.1 -0.1)"
             id="g15688">
            <defs
               id="defs15670">
              <path
                 id="DejaVuSans-74"
                 d="M 1172 4494  L 1172 3500  L 2356 3500  L 2356 3053  L 1172 3053  L 1172 1153  Q 1172 725 1289 603  Q 1406 481 1766 481  L 2356 481  L 2356 0  L 1766 0  Q 1100 0 847 248  Q 594 497 594 1153  L 594 3053  L 172 3053  L 172 3500  L 594 3500  L 594 4494  L 1172 4494  z "
                 transform="scale(0.015625)" />
            </defs>
            <use
               xlink:href="#DejaVuSans-6e"
               id="use15672" />
            <use
               xlink:href="#DejaVuSans-65"
               x="63.378906"
               id="use15674" />
            <use
               xlink:href="#DejaVuSans-74"
               x="124.902344"
               id="use15676" />
            <use
               xlink:href="#DejaVuSans-20"
               x="164.111328"
               id="use15678" />
            <use
               xlink:href="#DejaVuSans-77"
               x="195.898438"
               id="use15680" />
            <use
               xlink:href="#DejaVuSans-69"
               x="277.685547"
               id="use15682" />
            <use
               xlink:href="#DejaVuSans-6e"
               x="305.46875"
               id="use15684" />
            <use
               xlink:href="#DejaVuSans-73"
               x="368.847656"
               id="use15686" />
          </g>
        </g>
      </g>
      <g
         id="line2d_25">
        <path
           d="M 401.0425 194.050234  L 401.0425 81.091498  "
           clip-path="url(#p619c54184b)"
           style="fill: none; stroke: #646464; stroke-width: 1.5; stroke-linecap: square"
           id="path15692" />
      </g>
      <g
         id="line2d_26">
        <path
           d="M 401.0425 150.604567  L 401.0425 115.848033  "
           clip-path="url(#p619c54184b)"
           style="fill: none; stroke: #646464; stroke-width: 4.5; stroke-linecap: square"
           id="path15695" />
      </g>
      <g
         id="patch_13">
        <path
           d="M 352.085 260.12  L 352.085 32.4  "
           style="fill: none; stroke: #000000; stroke-width: 0.8; stroke-linejoin: miter; stroke-linecap: square"
           id="path15698" />
      </g>
      <g
         id="patch_14">
        <path
           d="M 450 260.12  L 450 32.4  "
           style="fill: none; stroke: #000000; stroke-width: 0.8; stroke-linejoin: miter; stroke-linecap: square"
           id="path15701" />
      </g>
      <g
         id="patch_15">
        <path
           d="M 352.085 260.12  L 450 260.12  "
           style="fill: none; stroke: #000000; stroke-width: 0.8; stroke-linejoin: miter; stroke-linecap: square"
           id="path15704" />
      </g>
      <g
         id="patch_16">
        <path
           d="M 352.085 32.4  L 450 32.4  "
           style="fill: none; stroke: #000000; stroke-width: 0.8; stroke-linejoin: miter; stroke-linecap: square"
           id="path15707" />
      </g>
      <g
         id="PathCollection_3">
        <defs
           id="defs15711">
          <path
             id="mfb2fc8d38a"
             d="M 0 1.5  C 0.397805 1.5 0.77937 1.341951 1.06066 1.06066  C 1.341951 0.77937 1.5 0.397805 1.5 0  C 1.5 -0.397805 1.341951 -0.77937 1.06066 -1.06066  C 0.77937 -1.341951 0.397805 -1.5 0 -1.5  C -0.397805 -1.5 -0.77937 -1.341951 -1.06066 -1.06066  C -1.341951 -0.77937 -1.5 -0.397805 -1.5 0  C -1.5 0.397805 -1.341951 0.77937 -1.06066 1.06066  C -0.77937 1.341951 -0.397805 1.5 0 1.5  z "
             style="stroke: #646464" />
        </defs>
        <g
           clip-path="url(#p619c54184b)"
           id="g15715">
          <use
             xlink:href="#mfb2fc8d38a"
             x="401.0425"
             y="133.2263"
             style="fill: #ffffff; stroke: #646464"
             id="use15713" />
        </g>
      </g>
    </g>
    <g
       id="text_24">
      <!-- Total earned rewards -->
      <g
         transform="translate(167.637188 14.878125) scale(0.12 -0.12)"
         id="g15764">
        <defs
           id="defs15722">
          <path
             id="DejaVuSans-54"
             d="M -19 4666  L 3928 4666  L 3928 4134  L 2272 4134  L 2272 0  L 1638 0  L 1638 4134  L -19 4134  L -19 4666  z "
             transform="scale(0.015625)" />
          <path
             id="DejaVuSans-6f"
             d="M 1959 3097  Q 1497 3097 1228 2736  Q 959 2375 959 1747  Q 959 1119 1226 758  Q 1494 397 1959 397  Q 2419 397 2687 759  Q 2956 1122 2956 1747  Q 2956 2369 2687 2733  Q 2419 3097 1959 3097  z M 1959 3584  Q 2709 3584 3137 3096  Q 3566 2609 3566 1747  Q 3566 888 3137 398  Q 2709 -91 1959 -91  Q 1206 -91 779 398  Q 353 888 353 1747  Q 353 2609 779 3096  Q 1206 3584 1959 3584  z "
             transform="scale(0.015625)" />
          <path
             id="DejaVuSans-6c"
             d="M 603 4863  L 1178 4863  L 1178 0  L 603 0  L 603 4863  z "
             transform="scale(0.015625)" />
        </defs>
        <use
           xlink:href="#DejaVuSans-54"
           id="use15724" />
        <use
           xlink:href="#DejaVuSans-6f"
           x="44.083984"
           id="use15726" />
        <use
           xlink:href="#DejaVuSans-74"
           x="105.265625"
           id="use15728" />
        <use
           xlink:href="#DejaVuSans-61"
           x="144.474609"
           id="use15730" />
        <use
           xlink:href="#DejaVuSans-6c"
           x="205.753906"
           id="use15732" />
        <use
           xlink:href="#DejaVuSans-20"
           x="233.537109"
           id="use15734" />
        <use
           xlink:href="#DejaVuSans-65"
           x="265.324219"
           id="use15736" />
        <use
           xlink:href="#DejaVuSans-61"
           x="326.847656"
           id="use15738" />
        <use
           xlink:href="#DejaVuSans-72"
           x="388.126953"
           id="use15740" />
        <use
           xlink:href="#DejaVuSans-6e"
           x="427.490234"
           id="use15742" />
        <use
           xlink:href="#DejaVuSans-65"
           x="490.869141"
           id="use15744" />
        <use
           xlink:href="#DejaVuSans-64"
           x="552.392578"
           id="use15746" />
        <use
           xlink:href="#DejaVuSans-20"
           x="615.869141"
           id="use15748" />
        <use
           xlink:href="#DejaVuSans-72"
           x="647.65625"
           id="use15750" />
        <use
           xlink:href="#DejaVuSans-65"
           x="686.519531"
           id="use15752" />
        <use
           xlink:href="#DejaVuSans-77"
           x="748.042969"
           id="use15754" />
        <use
           xlink:href="#DejaVuSans-61"
           x="829.830078"
           id="use15756" />
        <use
           xlink:href="#DejaVuSans-72"
           x="891.109375"
           id="use15758" />
        <use
           xlink:href="#DejaVuSans-64"
           x="930.472656"
           id="use15760" />
        <use
           xlink:href="#DejaVuSans-73"
           x="993.949219"
           id="use15762" />
      </g>
    </g>
  </g>
  <defs
     id="defs15777">
    <clipPath
       id="p2a70443b04">
      <rect
         x="50.195"
         y="32.4"
         width="97.915"
         height="227.72"
         id="rect15768" />
    </clipPath>
    <clipPath
       id="p84d8febd67">
      <rect
         x="201.14"
         y="32.4"
         width="97.915"
         height="227.72"
         id="rect15771" />
    </clipPath>
    <clipPath
       id="p619c54184b">
      <rect
         x="352.085"
         y="32.4"
         width="97.915"
         height="227.72"
         id="rect15774" />
    </clipPath>
  </defs>
  <text
     xml:space="preserve"
     style="font-size:22px;line-height:1.25;font-family:sans-serif;stroke-width:0.75"
     x="25.855362"
     y="47.187412"
     id="text17096"><tspan
       sodipodi:role="line"
       id="tspan17094"
       style="font-size:22px;stroke-width:0.75"
       x="25.855362"
       y="47.187412">A</tspan></text>
  <text
     xml:space="preserve"
     style="font-size:22px;line-height:1.25;font-family:sans-serif;stroke-width:0.75"
     x="162.67331"
     y="47.187412"
     id="text18904"><tspan
       sodipodi:role="line"
       id="tspan18902"
       style="font-size:22px;stroke-width:0.75"
       x="162.67331"
       y="47.187412">B</tspan></text>
  <text
     xml:space="preserve"
     style="font-size:22px;line-height:1.25;font-family:sans-serif;stroke-width:0.75"
     x="314.21448"
     y="47.187412"
     id="text19490"><tspan
       sodipodi:role="line"
       id="tspan19488"
       style="font-size:22px;stroke-width:0.75"
       x="314.21448"
       y="47.187412">C</tspan></text>
</svg>
