<?xml version="1.0" encoding="utf-8" standalone="no"?>
<!DOCTYPE svg PUBLIC "-//W3C//DTD SVG 1.1//EN"
  "http://www.w3.org/Graphics/SVG/1.1/DTD/svg11.dtd">
<svg xmlns:xlink="http://www.w3.org/1999/xlink" width="720pt" height="288pt" viewBox="0 0 720 288" xmlns="http://www.w3.org/2000/svg" version="1.1">
 <metadata>
  <rdf:RDF xmlns:dc="http://purl.org/dc/elements/1.1/" xmlns:cc="http://creativecommons.org/ns#" xmlns:rdf="http://www.w3.org/1999/02/22-rdf-syntax-ns#">
   <cc:Work>
    <dc:type rdf:resource="http://purl.org/dc/dcmitype/StillImage"/>
    <dc:date>2024-07-03T15:14:24.032480</dc:date>
    <dc:format>image/svg+xml</dc:format>
    <dc:creator>
     <cc:Agent>
      <dc:title>Matplotlib v3.7.2, https://matplotlib.org/</dc:title>
     </cc:Agent>
    </dc:creator>
   </cc:Work>
  </rdf:RDF>
 </metadata>
 <defs>
  <style type="text/css">*{stroke-linejoin: round; stroke-linecap: butt}</style>
 </defs>
 <g id="figure_1">
  <g id="patch_1">
   <path d="M 0 288 
L 720 288 
L 720 0 
L 0 0 
z
" style="fill: #ffffff"/>
  </g>
  <g id="axes_1">
   <g id="patch_2">
    <path d="M 90 256.32 
L 254.117647 256.32 
L 254.117647 34.56 
L 90 34.56 
z
" style="fill: #ffffff"/>
   </g>
   <g id="PolyCollection_1">
    <defs>
     <path id="m7ac0958412" d="M 172.540034 -57.349107 
L 171.577614 -57.349107 
L 171.401782 -58.350822 
L 171.185028 -59.352537 
L 170.926981 -60.354252 
L 170.630845 -61.355967 
L 170.304069 -62.357681 
L 169.958573 -63.359396 
L 169.610404 -64.361111 
L 169.278714 -65.362826 
L 168.984134 -66.364541 
L 168.746692 -67.366256 
L 168.583557 -68.367971 
L 168.506958 -69.369686 
L 168.522604 -70.371401 
L 168.628887 -71.373116 
L 168.816973 -72.37483 
L 169.071773 -73.376545 
L 169.37359 -74.37826 
L 169.700136 -75.379975 
L 170.028598 -76.38169 
L 170.337409 -77.383405 
L 170.607535 -78.38512 
L 170.823138 -79.386835 
L 170.971673 -80.38855 
L 171.043492 -81.390265 
L 171.03111 -82.39198 
L 170.928239 -83.393694 
L 170.728663 -84.395409 
L 170.424906 -85.397124 
L 170.006668 -86.398839 
L 169.458946 -87.400554 
L 168.759916 -88.402269 
L 167.8788 -89.403984 
L 166.77417 -90.405699 
L 165.393383 -91.407414 
L 163.673919 -92.409129 
L 161.547379 -93.410843 
L 158.946535 -94.412558 
L 155.815341 -95.414273 
L 152.121027 -96.415988 
L 147.866689 -97.417703 
L 143.102203 -98.419418 
L 137.93106 -99.421133 
L 132.511063 -100.422848 
L 127.047632 -101.424563 
L 121.779733 -102.426278 
L 116.959866 -103.427993 
L 112.830771 -104.429707 
L 109.602303 -105.431422 
L 107.431939 -106.433137 
L 106.411765 -107.434852 
L 106.563496 -108.436567 
L 107.841628 -109.438282 
L 110.14336 -110.439997 
L 113.322991 -111.441712 
L 117.208061 -112.443427 
L 121.614794 -113.445142 
L 126.361049 -114.446856 
L 131.275927 -115.448571 
L 136.206008 -116.450286 
L 141.018815 -117.452001 
L 145.604347 -118.453716 
L 149.875464 -119.455431 
L 153.767657 -120.457146 
L 157.23841 -121.458861 
L 160.266095 -122.460576 
L 162.848252 -123.462291 
L 164.999107 -124.464006 
L 166.74634 -125.46572 
L 168.127287 -126.467435 
L 169.184896 -127.46915 
L 169.963869 -128.470865 
L 170.507366 -129.47258 
L 170.85459 -130.474295 
L 171.039431 -131.47601 
L 171.090164 -132.477725 
L 171.030086 -133.47944 
L 170.878834 -134.481155 
L 170.654059 -135.482869 
L 170.373089 -136.484584 
L 170.054268 -137.486299 
L 169.717666 -138.488014 
L 169.385033 -139.489729 
L 169.078947 -140.491444 
L 168.821305 -141.493159 
L 168.631413 -142.494874 
L 168.524029 -143.496589 
L 168.507736 -144.498304 
L 168.583969 -145.500019 
L 168.746903 -146.501733 
L 168.984239 -147.503448 
L 169.278765 -148.505163 
L 169.610428 -149.506878 
L 169.958584 -150.508593 
L 170.304074 -151.510308 
L 170.630848 -152.512023 
L 170.926982 -153.513738 
L 171.185029 -154.515453 
L 171.401782 -155.517168 
L 171.577614 -156.518882 
L 172.540034 -156.518882 
L 172.540034 -156.518882 
L 172.715865 -155.517168 
L 172.932619 -154.515453 
L 173.190665 -153.513738 
L 173.486799 -152.512023 
L 173.813574 -151.510308 
L 174.159063 -150.508593 
L 174.507219 -149.506878 
L 174.838882 -148.505163 
L 175.133408 -147.503448 
L 175.370744 -146.501733 
L 175.533678 -145.500019 
L 175.609911 -144.498304 
L 175.593618 -143.496589 
L 175.486234 -142.494874 
L 175.296342 -141.493159 
L 175.0387 -140.491444 
L 174.732614 -139.489729 
L 174.399981 -138.488014 
L 174.063379 -137.486299 
L 173.744558 -136.484584 
L 173.463588 -135.482869 
L 173.238813 -134.481155 
L 173.087561 -133.47944 
L 173.027483 -132.477725 
L 173.078216 -131.47601 
L 173.263057 -130.474295 
L 173.610282 -129.47258 
L 174.153778 -128.470865 
L 174.932751 -127.46915 
L 175.99036 -126.467435 
L 177.371307 -125.46572 
L 179.118541 -124.464006 
L 181.269395 -123.462291 
L 183.851552 -122.460576 
L 186.879237 -121.458861 
L 190.34999 -120.457146 
L 194.242183 -119.455431 
L 198.513301 -118.453716 
L 203.098832 -117.452001 
L 207.911639 -116.450286 
L 212.84172 -115.448571 
L 217.756598 -114.446856 
L 222.502853 -113.445142 
L 226.909586 -112.443427 
L 230.794656 -111.441712 
L 233.974287 -110.439997 
L 236.27602 -109.438282 
L 237.554151 -108.436567 
L 237.705882 -107.434852 
L 236.685708 -106.433137 
L 234.515345 -105.431422 
L 231.286876 -104.429707 
L 227.157781 -103.427993 
L 222.337914 -102.426278 
L 217.070015 -101.424563 
L 211.606584 -100.422848 
L 206.186587 -99.421133 
L 201.015444 -98.419418 
L 196.250958 -97.417703 
L 191.99662 -96.415988 
L 188.302306 -95.414273 
L 185.171112 -94.412558 
L 182.570268 -93.410843 
L 180.443728 -92.409129 
L 178.724264 -91.407414 
L 177.343477 -90.405699 
L 176.238847 -89.403984 
L 175.357731 -88.402269 
L 174.658701 -87.400554 
L 174.110979 -86.398839 
L 173.692741 -85.397124 
L 173.388984 -84.395409 
L 173.189408 -83.393694 
L 173.086537 -82.39198 
L 173.074155 -81.390265 
L 173.145974 -80.38855 
L 173.294509 -79.386835 
L 173.510112 -78.38512 
L 173.780238 -77.383405 
L 174.089049 -76.38169 
L 174.417511 -75.379975 
L 174.744057 -74.37826 
L 175.045874 -73.376545 
L 175.300675 -72.37483 
L 175.48876 -71.373116 
L 175.595043 -70.371401 
L 175.610689 -69.369686 
L 175.53409 -68.367971 
L 175.370955 -67.366256 
L 175.133513 -66.364541 
L 174.838933 -65.362826 
L 174.507243 -64.361111 
L 174.159074 -63.359396 
L 173.813578 -62.357681 
L 173.486802 -61.355967 
L 173.190666 -60.354252 
L 172.932619 -59.352537 
L 172.715865 -58.350822 
L 172.540034 -57.349107 
z
" style="stroke: #797979; stroke-width: 1.5"/>
    </defs>
    <g clip-path="url(#pbf09505ec9)">
     <use xlink:href="#m7ac0958412" x="0" y="288" style="fill: #b4d4df; stroke: #797979; stroke-width: 1.5"/>
    </g>
   </g>
   <g id="matplotlib.axis_1">
    <g id="xtick_1">
     <g id="line2d_1">
      <defs>
       <path id="m4f637f4589" d="M 0 0 
L 0 3.5 
" style="stroke: #000000; stroke-width: 0.8"/>
      </defs>
      <g>
       <use xlink:href="#m4f637f4589" x="172.058824" y="256.32" style="stroke: #000000; stroke-width: 0.8"/>
      </g>
     </g>
     <g id="text_1">
      <!-- 0 -->
      <g transform="translate(168.877574 270.918437) scale(0.1 -0.1)">
       <defs>
        <path id="DejaVuSans-30" d="M 2034 4250 
Q 1547 4250 1301 3770 
Q 1056 3291 1056 2328 
Q 1056 1369 1301 889 
Q 1547 409 2034 409 
Q 2525 409 2770 889 
Q 3016 1369 3016 2328 
Q 3016 3291 2770 3770 
Q 2525 4250 2034 4250 
z
M 2034 4750 
Q 2819 4750 3233 4129 
Q 3647 3509 3647 2328 
Q 3647 1150 3233 529 
Q 2819 -91 2034 -91 
Q 1250 -91 836 529 
Q 422 1150 422 2328 
Q 422 3509 836 4129 
Q 1250 4750 2034 4750 
z
" transform="scale(0.015625)"/>
       </defs>
       <use xlink:href="#DejaVuSans-30"/>
      </g>
     </g>
    </g>
   </g>
   <g id="matplotlib.axis_2">
    <g id="ytick_1">
     <g id="line2d_2">
      <defs>
       <path id="m7c1ee1f7db" d="M 0 0 
L -3.5 0 
" style="stroke: #000000; stroke-width: 0.8"/>
      </defs>
      <g>
       <use xlink:href="#m7c1ee1f7db" x="90" y="256.32" style="stroke: #000000; stroke-width: 0.8"/>
      </g>
     </g>
     <g id="text_2">
      <!-- 0.0 -->
      <g transform="translate(67.096875 260.119219) scale(0.1 -0.1)">
       <defs>
        <path id="DejaVuSans-2e" d="M 684 794 
L 1344 794 
L 1344 0 
L 684 0 
L 684 794 
z
" transform="scale(0.015625)"/>
       </defs>
       <use xlink:href="#DejaVuSans-30"/>
       <use xlink:href="#DejaVuSans-2e" x="63.623047"/>
       <use xlink:href="#DejaVuSans-30" x="95.410156"/>
      </g>
     </g>
    </g>
    <g id="ytick_2">
     <g id="line2d_3">
      <g>
       <use xlink:href="#m7c1ee1f7db" x="90" y="211.968" style="stroke: #000000; stroke-width: 0.8"/>
      </g>
     </g>
     <g id="text_3">
      <!-- 0.2 -->
      <g transform="translate(67.096875 215.767219) scale(0.1 -0.1)">
       <defs>
        <path id="DejaVuSans-32" d="M 1228 531 
L 3431 531 
L 3431 0 
L 469 0 
L 469 531 
Q 828 903 1448 1529 
Q 2069 2156 2228 2338 
Q 2531 2678 2651 2914 
Q 2772 3150 2772 3378 
Q 2772 3750 2511 3984 
Q 2250 4219 1831 4219 
Q 1534 4219 1204 4116 
Q 875 4013 500 3803 
L 500 4441 
Q 881 4594 1212 4672 
Q 1544 4750 1819 4750 
Q 2544 4750 2975 4387 
Q 3406 4025 3406 3419 
Q 3406 3131 3298 2873 
Q 3191 2616 2906 2266 
Q 2828 2175 2409 1742 
Q 1991 1309 1228 531 
z
" transform="scale(0.015625)"/>
       </defs>
       <use xlink:href="#DejaVuSans-30"/>
       <use xlink:href="#DejaVuSans-2e" x="63.623047"/>
       <use xlink:href="#DejaVuSans-32" x="95.410156"/>
      </g>
     </g>
    </g>
    <g id="ytick_3">
     <g id="line2d_4">
      <g>
       <use xlink:href="#m7c1ee1f7db" x="90" y="167.616" style="stroke: #000000; stroke-width: 0.8"/>
      </g>
     </g>
     <g id="text_4">
      <!-- 0.4 -->
      <g transform="translate(67.096875 171.415219) scale(0.1 -0.1)">
       <defs>
        <path id="DejaVuSans-34" d="M 2419 4116 
L 825 1625 
L 2419 1625 
L 2419 4116 
z
M 2253 4666 
L 3047 4666 
L 3047 1625 
L 3713 1625 
L 3713 1100 
L 3047 1100 
L 3047 0 
L 2419 0 
L 2419 1100 
L 313 1100 
L 313 1709 
L 2253 4666 
z
" transform="scale(0.015625)"/>
       </defs>
       <use xlink:href="#DejaVuSans-30"/>
       <use xlink:href="#DejaVuSans-2e" x="63.623047"/>
       <use xlink:href="#DejaVuSans-34" x="95.410156"/>
      </g>
     </g>
    </g>
    <g id="ytick_4">
     <g id="line2d_5">
      <g>
       <use xlink:href="#m7c1ee1f7db" x="90" y="123.264" style="stroke: #000000; stroke-width: 0.8"/>
      </g>
     </g>
     <g id="text_5">
      <!-- 0.6 -->
      <g transform="translate(67.096875 127.063219) scale(0.1 -0.1)">
       <defs>
        <path id="DejaVuSans-36" d="M 2113 2584 
Q 1688 2584 1439 2293 
Q 1191 2003 1191 1497 
Q 1191 994 1439 701 
Q 1688 409 2113 409 
Q 2538 409 2786 701 
Q 3034 994 3034 1497 
Q 3034 2003 2786 2293 
Q 2538 2584 2113 2584 
z
M 3366 4563 
L 3366 3988 
Q 3128 4100 2886 4159 
Q 2644 4219 2406 4219 
Q 1781 4219 1451 3797 
Q 1122 3375 1075 2522 
Q 1259 2794 1537 2939 
Q 1816 3084 2150 3084 
Q 2853 3084 3261 2657 
Q 3669 2231 3669 1497 
Q 3669 778 3244 343 
Q 2819 -91 2113 -91 
Q 1303 -91 875 529 
Q 447 1150 447 2328 
Q 447 3434 972 4092 
Q 1497 4750 2381 4750 
Q 2619 4750 2861 4703 
Q 3103 4656 3366 4563 
z
" transform="scale(0.015625)"/>
       </defs>
       <use xlink:href="#DejaVuSans-30"/>
       <use xlink:href="#DejaVuSans-2e" x="63.623047"/>
       <use xlink:href="#DejaVuSans-36" x="95.410156"/>
      </g>
     </g>
    </g>
    <g id="ytick_5">
     <g id="line2d_6">
      <g>
       <use xlink:href="#m7c1ee1f7db" x="90" y="78.912" style="stroke: #000000; stroke-width: 0.8"/>
      </g>
     </g>
     <g id="text_6">
      <!-- 0.8 -->
      <g transform="translate(67.096875 82.711219) scale(0.1 -0.1)">
       <defs>
        <path id="DejaVuSans-38" d="M 2034 2216 
Q 1584 2216 1326 1975 
Q 1069 1734 1069 1313 
Q 1069 891 1326 650 
Q 1584 409 2034 409 
Q 2484 409 2743 651 
Q 3003 894 3003 1313 
Q 3003 1734 2745 1975 
Q 2488 2216 2034 2216 
z
M 1403 2484 
Q 997 2584 770 2862 
Q 544 3141 544 3541 
Q 544 4100 942 4425 
Q 1341 4750 2034 4750 
Q 2731 4750 3128 4425 
Q 3525 4100 3525 3541 
Q 3525 3141 3298 2862 
Q 3072 2584 2669 2484 
Q 3125 2378 3379 2068 
Q 3634 1759 3634 1313 
Q 3634 634 3220 271 
Q 2806 -91 2034 -91 
Q 1263 -91 848 271 
Q 434 634 434 1313 
Q 434 1759 690 2068 
Q 947 2378 1403 2484 
z
M 1172 3481 
Q 1172 3119 1398 2916 
Q 1625 2713 2034 2713 
Q 2441 2713 2670 2916 
Q 2900 3119 2900 3481 
Q 2900 3844 2670 4047 
Q 2441 4250 2034 4250 
Q 1625 4250 1398 4047 
Q 1172 3844 1172 3481 
z
" transform="scale(0.015625)"/>
       </defs>
       <use xlink:href="#DejaVuSans-30"/>
       <use xlink:href="#DejaVuSans-2e" x="63.623047"/>
       <use xlink:href="#DejaVuSans-38" x="95.410156"/>
      </g>
     </g>
    </g>
    <g id="ytick_6">
     <g id="line2d_7">
      <g>
       <use xlink:href="#m7c1ee1f7db" x="90" y="34.56" style="stroke: #000000; stroke-width: 0.8"/>
      </g>
     </g>
     <g id="text_7">
      <!-- 1.0 -->
      <g transform="translate(67.096875 38.359219) scale(0.1 -0.1)">
       <defs>
        <path id="DejaVuSans-31" d="M 794 531 
L 1825 531 
L 1825 4091 
L 703 3866 
L 703 4441 
L 1819 4666 
L 2450 4666 
L 2450 531 
L 3481 531 
L 3481 0 
L 794 0 
L 794 531 
z
" transform="scale(0.015625)"/>
       </defs>
       <use xlink:href="#DejaVuSans-31"/>
       <use xlink:href="#DejaVuSans-2e" x="63.623047"/>
       <use xlink:href="#DejaVuSans-30" x="95.410156"/>
      </g>
     </g>
    </g>
    <g id="text_8">
     <!-- $p$ -->
     <g transform="translate(60.996875 148.64) rotate(-90) scale(0.1 -0.1)">
      <defs>
       <path id="DejaVuSans-Oblique-70" d="M 3175 2156 
Q 3175 2616 2975 2859 
Q 2775 3103 2400 3103 
Q 2144 3103 1911 2972 
Q 1678 2841 1497 2591 
Q 1319 2344 1212 1994 
Q 1106 1644 1106 1300 
Q 1106 863 1306 627 
Q 1506 391 1875 391 
Q 2147 391 2380 519 
Q 2613 647 2778 891 
Q 2956 1147 3065 1494 
Q 3175 1841 3175 2156 
z
M 1394 2969 
Q 1625 3272 1939 3428 
Q 2253 3584 2638 3584 
Q 3175 3584 3472 3232 
Q 3769 2881 3769 2247 
Q 3769 1728 3584 1258 
Q 3400 788 3053 416 
Q 2822 169 2531 39 
Q 2241 -91 1919 -91 
Q 1547 -91 1294 64 
Q 1041 219 916 525 
L 556 -1331 
L -19 -1331 
L 922 3500 
L 1497 3500 
L 1394 2969 
z
" transform="scale(0.015625)"/>
      </defs>
      <use xlink:href="#DejaVuSans-Oblique-70"/>
     </g>
    </g>
   </g>
   <g id="line2d_8">
    <path d="M 172.058824 183.302881 
L 172.058824 171.752007 
" clip-path="url(#pbf09505ec9)" style="fill: none; stroke: #797979; stroke-width: 1.5; stroke-linecap: square"/>
   </g>
   <g id="line2d_9">
    <path d="M 172.058824 182.583227 
L 172.058824 176.540351 
" clip-path="url(#pbf09505ec9)" style="fill: none; stroke: #797979; stroke-width: 4.5; stroke-linecap: square"/>
   </g>
   <g id="patch_3">
    <path d="M 90 256.32 
L 90 34.56 
" style="fill: none; stroke: #000000; stroke-width: 0.8; stroke-linejoin: miter; stroke-linecap: square"/>
   </g>
   <g id="patch_4">
    <path d="M 254.117647 256.32 
L 254.117647 34.56 
" style="fill: none; stroke: #000000; stroke-width: 0.8; stroke-linejoin: miter; stroke-linecap: square"/>
   </g>
   <g id="patch_5">
    <path d="M 90 256.32 
L 254.117647 256.32 
" style="fill: none; stroke: #000000; stroke-width: 0.8; stroke-linejoin: miter; stroke-linecap: square"/>
   </g>
   <g id="patch_6">
    <path d="M 90 34.56 
L 254.117647 34.56 
" style="fill: none; stroke: #000000; stroke-width: 0.8; stroke-linejoin: miter; stroke-linecap: square"/>
   </g>
   <g id="PathCollection_1">
    <defs>
     <path id="m365d38c894" d="M 0 1.5 
C 0.397805 1.5 0.77937 1.341951 1.06066 1.06066 
C 1.341951 0.77937 1.5 0.397805 1.5 0 
C 1.5 -0.397805 1.341951 -0.77937 1.06066 -1.06066 
C 0.77937 -1.341951 0.397805 -1.5 0 -1.5 
C -0.397805 -1.5 -0.77937 -1.341951 -1.06066 -1.06066 
C -1.341951 -0.77937 -1.5 -0.397805 -1.5 0 
C -1.5 0.397805 -1.341951 0.77937 -1.06066 1.06066 
C -0.77937 1.341951 -0.397805 1.5 0 1.5 
z
" style="stroke: #797979"/>
    </defs>
    <g clip-path="url(#pbf09505ec9)">
     <use xlink:href="#m365d38c894" x="172.058824" y="182.253506" style="fill: #ffffff; stroke: #797979"/>
    </g>
   </g>
   <g id="text_9">
    <!-- win -->
    <g transform="translate(161.682574 28.56) scale(0.12 -0.12)">
     <defs>
      <path id="DejaVuSans-77" d="M 269 3500 
L 844 3500 
L 1563 769 
L 2278 3500 
L 2956 3500 
L 3675 769 
L 4391 3500 
L 4966 3500 
L 4050 0 
L 3372 0 
L 2619 2869 
L 1863 0 
L 1184 0 
L 269 3500 
z
" transform="scale(0.015625)"/>
      <path id="DejaVuSans-69" d="M 603 3500 
L 1178 3500 
L 1178 0 
L 603 0 
L 603 3500 
z
M 603 4863 
L 1178 4863 
L 1178 4134 
L 603 4134 
L 603 4863 
z
" transform="scale(0.015625)"/>
      <path id="DejaVuSans-6e" d="M 3513 2113 
L 3513 0 
L 2938 0 
L 2938 2094 
Q 2938 2591 2744 2837 
Q 2550 3084 2163 3084 
Q 1697 3084 1428 2787 
Q 1159 2491 1159 1978 
L 1159 0 
L 581 0 
L 581 3500 
L 1159 3500 
L 1159 2956 
Q 1366 3272 1645 3428 
Q 1925 3584 2291 3584 
Q 2894 3584 3203 3211 
Q 3513 2838 3513 2113 
z
" transform="scale(0.015625)"/>
     </defs>
     <use xlink:href="#DejaVuSans-77"/>
     <use xlink:href="#DejaVuSans-69" x="81.787109"/>
     <use xlink:href="#DejaVuSans-6e" x="109.570312"/>
    </g>
   </g>
  </g>
  <g id="axes_2">
   <g id="patch_7">
    <path d="M 286.941176 256.32 
L 451.058824 256.32 
L 451.058824 34.56 
L 286.941176 34.56 
z
" style="fill: #ffffff"/>
   </g>
   <g id="PolyCollection_2">
    <defs>
     <path id="mf0579b9c4e" d="M 369.486901 -43.790467 
L 368.513099 -43.790467 
L 368.364697 -44.569278 
L 368.186649 -45.34809 
L 367.978277 -46.126901 
L 367.740653 -46.905713 
L 367.476947 -47.684524 
L 367.19265 -48.463336 
L 366.895608 -49.242147 
L 366.595811 -50.020959 
L 366.304943 -50.79977 
L 366.035682 -51.578582 
L 365.800818 -52.357393 
L 365.612256 -53.136204 
L 365.480025 -53.915016 
L 365.411392 -54.693827 
L 365.410204 -55.472639 
L 365.476526 -56.25145 
L 365.606642 -57.030262 
L 365.793392 -57.809073 
L 366.026831 -58.587885 
L 366.295102 -59.366696 
L 366.585428 -60.145508 
L 366.885107 -60.924319 
L 367.182406 -61.70313 
L 367.467255 -62.481942 
L 367.731717 -63.260753 
L 367.970193 -64.039565 
L 368.179393 -64.818376 
L 368.358113 -65.597188 
L 368.506867 -66.375999 
L 368.627446 -67.154811 
L 368.722446 -67.933622 
L 368.794825 -68.712434 
L 368.847504 -69.491245 
L 368.883039 -70.270057 
L 368.90336 -71.048868 
L 368.909571 -71.827679 
L 368.901805 -72.606491 
L 368.879123 -73.385302 
L 368.839441 -74.164114 
L 368.779494 -74.942925 
L 368.694826 -75.721737 
L 368.579814 -76.500548 
L 368.427734 -77.27936 
L 368.230861 -78.058171 
L 367.980619 -78.836983 
L 367.667753 -79.615794 
L 367.282524 -80.394606 
L 366.814907 -81.173417 
L 366.25476 -81.952228 
L 365.591957 -82.73104 
L 364.816459 -83.509851 
L 363.91832 -84.288663 
L 362.887641 -85.067474 
L 361.714479 -85.846286 
L 360.388757 -86.625097 
L 358.900209 -87.403909 
L 357.23842 -88.18272 
L 355.393008 -88.961532 
L 353.35401 -89.740343 
L 351.112506 -90.519154 
L 348.661523 -91.297966 
L 345.997224 -92.076777 
L 343.120372 -92.855589 
L 340.038012 -93.6344 
L 336.765291 -94.413212 
L 333.327267 -95.192023 
L 329.760547 -95.970835 
L 326.114534 -96.749646 
L 322.45206 -97.528458 
L 318.84917 -98.307269 
L 315.393884 -99.086081 
L 312.183779 -99.864892 
L 309.322369 -100.643703 
L 306.914354 -101.422515 
L 305.059953 -102.201326 
L 303.848664 -102.980138 
L 303.352941 -103.758949 
L 303.622318 -104.537761 
L 304.678601 -105.316572 
L 306.51266 -106.095384 
L 309.083284 -106.874195 
L 312.31834 -107.653007 
L 316.118288 -108.431818 
L 320.361811 -109.21063 
L 324.913097 -109.989441 
L 329.630109 -110.768252 
L 334.373071 -111.547064 
L 339.012379 -112.325875 
L 343.435255 -113.104687 
L 347.550599 -113.883498 
L 351.291769 -114.66231 
L 354.617237 -115.441121 
L 357.509324 -116.219933 
L 359.971376 -116.998744 
L 362.023878 -117.777556 
L 363.70003 -118.556367 
L 365.041272 -119.335179 
L 366.093151 -120.11399 
L 366.901831 -120.892801 
L 371.098169 -120.892801 
L 371.098169 -120.892801 
L 371.906849 -120.11399 
L 372.958728 -119.335179 
L 374.29997 -118.556367 
L 375.976122 -117.777556 
L 378.028624 -116.998744 
L 380.490676 -116.219933 
L 383.382763 -115.441121 
L 386.708231 -114.66231 
L 390.449401 -113.883498 
L 394.564745 -113.104687 
L 398.987621 -112.325875 
L 403.626929 -111.547064 
L 408.369891 -110.768252 
L 413.086903 -109.989441 
L 417.638189 -109.21063 
L 421.881712 -108.431818 
L 425.68166 -107.653007 
L 428.916716 -106.874195 
L 431.48734 -106.095384 
L 433.321399 -105.316572 
L 434.377682 -104.537761 
L 434.647059 -103.758949 
L 434.151336 -102.980138 
L 432.940047 -102.201326 
L 431.085646 -101.422515 
L 428.677631 -100.643703 
L 425.816221 -99.864892 
L 422.606116 -99.086081 
L 419.15083 -98.307269 
L 415.54794 -97.528458 
L 411.885466 -96.749646 
L 408.239453 -95.970835 
L 404.672733 -95.192023 
L 401.234709 -94.413212 
L 397.961988 -93.6344 
L 394.879628 -92.855589 
L 392.002776 -92.076777 
L 389.338477 -91.297966 
L 386.887494 -90.519154 
L 384.64599 -89.740343 
L 382.606992 -88.961532 
L 380.76158 -88.18272 
L 379.099791 -87.403909 
L 377.611243 -86.625097 
L 376.285521 -85.846286 
L 375.112359 -85.067474 
L 374.08168 -84.288663 
L 373.183541 -83.509851 
L 372.408043 -82.73104 
L 371.74524 -81.952228 
L 371.185093 -81.173417 
L 370.717476 -80.394606 
L 370.332247 -79.615794 
L 370.019381 -78.836983 
L 369.769139 -78.058171 
L 369.572266 -77.27936 
L 369.420186 -76.500548 
L 369.305174 -75.721737 
L 369.220506 -74.942925 
L 369.160559 -74.164114 
L 369.120877 -73.385302 
L 369.098195 -72.606491 
L 369.090429 -71.827679 
L 369.09664 -71.048868 
L 369.116961 -70.270057 
L 369.152496 -69.491245 
L 369.205175 -68.712434 
L 369.277554 -67.933622 
L 369.372554 -67.154811 
L 369.493133 -66.375999 
L 369.641887 -65.597188 
L 369.820607 -64.818376 
L 370.029807 -64.039565 
L 370.268283 -63.260753 
L 370.532745 -62.481942 
L 370.817594 -61.70313 
L 371.114893 -60.924319 
L 371.414572 -60.145508 
L 371.704898 -59.366696 
L 371.973169 -58.587885 
L 372.206608 -57.809073 
L 372.393358 -57.030262 
L 372.523474 -56.25145 
L 372.589796 -55.472639 
L 372.588608 -54.693827 
L 372.519975 -53.915016 
L 372.387744 -53.136204 
L 372.199182 -52.357393 
L 371.964318 -51.578582 
L 371.695057 -50.79977 
L 371.404189 -50.020959 
L 371.104392 -49.242147 
L 370.80735 -48.463336 
L 370.523053 -47.684524 
L 370.259347 -46.905713 
L 370.021723 -46.126901 
L 369.813351 -45.34809 
L 369.635303 -44.569278 
L 369.486901 -43.790467 
z
" style="stroke: #646464; stroke-width: 1.5"/>
    </defs>
    <g clip-path="url(#pb540bfe8b8)">
     <use xlink:href="#mf0579b9c4e" x="0" y="288" style="fill: #e98966; stroke: #646464; stroke-width: 1.5"/>
    </g>
   </g>
   <g id="matplotlib.axis_3">
    <g id="xtick_2">
     <g id="line2d_10">
      <g>
       <use xlink:href="#m4f637f4589" x="369" y="256.32" style="stroke: #000000; stroke-width: 0.8"/>
      </g>
     </g>
     <g id="text_10">
      <!-- 0 -->
      <g transform="translate(365.81875 270.918437) scale(0.1 -0.1)">
       <use xlink:href="#DejaVuSans-30"/>
      </g>
     </g>
    </g>
   </g>
   <g id="matplotlib.axis_4">
    <g id="ytick_7">
     <g id="line2d_11">
      <g>
       <use xlink:href="#m7c1ee1f7db" x="286.941176" y="256.32" style="stroke: #000000; stroke-width: 0.8"/>
      </g>
     </g>
     <g id="text_11">
      <!-- 0.0 -->
      <g transform="translate(264.038051 260.119219) scale(0.1 -0.1)">
       <use xlink:href="#DejaVuSans-30"/>
       <use xlink:href="#DejaVuSans-2e" x="63.623047"/>
       <use xlink:href="#DejaVuSans-30" x="95.410156"/>
      </g>
     </g>
    </g>
    <g id="ytick_8">
     <g id="line2d_12">
      <g>
       <use xlink:href="#m7c1ee1f7db" x="286.941176" y="211.968" style="stroke: #000000; stroke-width: 0.8"/>
      </g>
     </g>
     <g id="text_12">
      <!-- 0.2 -->
      <g transform="translate(264.038051 215.767219) scale(0.1 -0.1)">
       <use xlink:href="#DejaVuSans-30"/>
       <use xlink:href="#DejaVuSans-2e" x="63.623047"/>
       <use xlink:href="#DejaVuSans-32" x="95.410156"/>
      </g>
     </g>
    </g>
    <g id="ytick_9">
     <g id="line2d_13">
      <g>
       <use xlink:href="#m7c1ee1f7db" x="286.941176" y="167.616" style="stroke: #000000; stroke-width: 0.8"/>
      </g>
     </g>
     <g id="text_13">
      <!-- 0.4 -->
      <g transform="translate(264.038051 171.415219) scale(0.1 -0.1)">
       <use xlink:href="#DejaVuSans-30"/>
       <use xlink:href="#DejaVuSans-2e" x="63.623047"/>
       <use xlink:href="#DejaVuSans-34" x="95.410156"/>
      </g>
     </g>
    </g>
    <g id="ytick_10">
     <g id="line2d_14">
      <g>
       <use xlink:href="#m7c1ee1f7db" x="286.941176" y="123.264" style="stroke: #000000; stroke-width: 0.8"/>
      </g>
     </g>
     <g id="text_14">
      <!-- 0.6 -->
      <g transform="translate(264.038051 127.063219) scale(0.1 -0.1)">
       <use xlink:href="#DejaVuSans-30"/>
       <use xlink:href="#DejaVuSans-2e" x="63.623047"/>
       <use xlink:href="#DejaVuSans-36" x="95.410156"/>
      </g>
     </g>
    </g>
    <g id="ytick_11">
     <g id="line2d_15">
      <g>
       <use xlink:href="#m7c1ee1f7db" x="286.941176" y="78.912" style="stroke: #000000; stroke-width: 0.8"/>
      </g>
     </g>
     <g id="text_15">
      <!-- 0.8 -->
      <g transform="translate(264.038051 82.711219) scale(0.1 -0.1)">
       <use xlink:href="#DejaVuSans-30"/>
       <use xlink:href="#DejaVuSans-2e" x="63.623047"/>
       <use xlink:href="#DejaVuSans-38" x="95.410156"/>
      </g>
     </g>
    </g>
    <g id="ytick_12">
     <g id="line2d_16">
      <g>
       <use xlink:href="#m7c1ee1f7db" x="286.941176" y="34.56" style="stroke: #000000; stroke-width: 0.8"/>
      </g>
     </g>
     <g id="text_16">
      <!-- 1.0 -->
      <g transform="translate(264.038051 38.359219) scale(0.1 -0.1)">
       <use xlink:href="#DejaVuSans-31"/>
       <use xlink:href="#DejaVuSans-2e" x="63.623047"/>
       <use xlink:href="#DejaVuSans-30" x="95.410156"/>
      </g>
     </g>
    </g>
   </g>
   <g id="line2d_17">
    <path d="M 369 193.76527 
L 369 178.413554 
" clip-path="url(#pb540bfe8b8)" style="fill: none; stroke: #646464; stroke-width: 1.5; stroke-linecap: square"/>
   </g>
   <g id="line2d_18">
    <path d="M 369 188.017599 
L 369 181.179997 
" clip-path="url(#pb540bfe8b8)" style="fill: none; stroke: #646464; stroke-width: 4.5; stroke-linecap: square"/>
   </g>
   <g id="patch_8">
    <path d="M 286.941176 256.32 
L 286.941176 34.56 
" style="fill: none; stroke: #000000; stroke-width: 0.8; stroke-linejoin: miter; stroke-linecap: square"/>
   </g>
   <g id="patch_9">
    <path d="M 451.058824 256.32 
L 451.058824 34.56 
" style="fill: none; stroke: #000000; stroke-width: 0.8; stroke-linejoin: miter; stroke-linecap: square"/>
   </g>
   <g id="patch_10">
    <path d="M 286.941176 256.32 
L 451.058824 256.32 
" style="fill: none; stroke: #000000; stroke-width: 0.8; stroke-linejoin: miter; stroke-linecap: square"/>
   </g>
   <g id="patch_11">
    <path d="M 286.941176 34.56 
L 451.058824 34.56 
" style="fill: none; stroke: #000000; stroke-width: 0.8; stroke-linejoin: miter; stroke-linecap: square"/>
   </g>
   <g id="PathCollection_2">
    <defs>
     <path id="m4124154774" d="M 0 1.5 
C 0.397805 1.5 0.77937 1.341951 1.06066 1.06066 
C 1.341951 0.77937 1.5 0.397805 1.5 0 
C 1.5 -0.397805 1.341951 -0.77937 1.06066 -1.06066 
C 0.77937 -1.341951 0.397805 -1.5 0 -1.5 
C -0.397805 -1.5 -0.77937 -1.341951 -1.06066 -1.06066 
C -1.341951 -0.77937 -1.5 -0.397805 -1.5 0 
C -1.5 0.397805 -1.341951 0.77937 -1.06066 1.06066 
C -0.77937 1.341951 -0.397805 1.5 0 1.5 
z
" style="stroke: #646464"/>
    </defs>
    <g clip-path="url(#pb540bfe8b8)">
     <use xlink:href="#m4124154774" x="369" y="185.116265" style="fill: #ffffff; stroke: #646464"/>
    </g>
   </g>
   <g id="text_17">
    <!-- loss -->
    <g transform="translate(357.410625 28.56) scale(0.12 -0.12)">
     <defs>
      <path id="DejaVuSans-6c" d="M 603 4863 
L 1178 4863 
L 1178 0 
L 603 0 
L 603 4863 
z
" transform="scale(0.015625)"/>
      <path id="DejaVuSans-6f" d="M 1959 3097 
Q 1497 3097 1228 2736 
Q 959 2375 959 1747 
Q 959 1119 1226 758 
Q 1494 397 1959 397 
Q 2419 397 2687 759 
Q 2956 1122 2956 1747 
Q 2956 2369 2687 2733 
Q 2419 3097 1959 3097 
z
M 1959 3584 
Q 2709 3584 3137 3096 
Q 3566 2609 3566 1747 
Q 3566 888 3137 398 
Q 2709 -91 1959 -91 
Q 1206 -91 779 398 
Q 353 888 353 1747 
Q 353 2609 779 3096 
Q 1206 3584 1959 3584 
z
" transform="scale(0.015625)"/>
      <path id="DejaVuSans-73" d="M 2834 3397 
L 2834 2853 
Q 2591 2978 2328 3040 
Q 2066 3103 1784 3103 
Q 1356 3103 1142 2972 
Q 928 2841 928 2578 
Q 928 2378 1081 2264 
Q 1234 2150 1697 2047 
L 1894 2003 
Q 2506 1872 2764 1633 
Q 3022 1394 3022 966 
Q 3022 478 2636 193 
Q 2250 -91 1575 -91 
Q 1294 -91 989 -36 
Q 684 19 347 128 
L 347 722 
Q 666 556 975 473 
Q 1284 391 1588 391 
Q 1994 391 2212 530 
Q 2431 669 2431 922 
Q 2431 1156 2273 1281 
Q 2116 1406 1581 1522 
L 1381 1569 
Q 847 1681 609 1914 
Q 372 2147 372 2553 
Q 372 3047 722 3315 
Q 1072 3584 1716 3584 
Q 2034 3584 2315 3537 
Q 2597 3491 2834 3397 
z
" transform="scale(0.015625)"/>
     </defs>
     <use xlink:href="#DejaVuSans-6c"/>
     <use xlink:href="#DejaVuSans-6f" x="27.783203"/>
     <use xlink:href="#DejaVuSans-73" x="88.964844"/>
     <use xlink:href="#DejaVuSans-73" x="141.064453"/>
    </g>
   </g>
  </g>
  <g id="axes_3">
   <g id="patch_12">
    <path d="M 483.882353 256.32 
L 648 256.32 
L 648 34.56 
L 483.882353 34.56 
z
" style="fill: #ffffff"/>
   </g>
   <g id="PolyCollection_3">
    <defs>
     <path id="mc87337d345" d="M 566.447459 -64.300452 
L 565.434893 -64.300452 
L 565.243947 -65.78881 
L 564.99779 -67.277167 
L 564.685769 -68.765524 
L 564.296103 -70.253882 
L 563.815548 -71.742239 
L 563.228789 -73.230596 
L 562.517553 -74.718954 
L 561.659512 -76.207311 
L 560.62712 -77.695668 
L 559.386687 -79.184026 
L 557.898043 -80.672383 
L 556.115253 -82.16074 
L 553.988816 -83.649098 
L 551.469659 -85.137455 
L 548.515046 -86.625812 
L 545.096172 -88.11417 
L 541.206821 -89.602527 
L 536.872087 -91.090885 
L 532.155803 -92.579242 
L 527.165204 -94.067599 
L 522.051433 -95.555957 
L 517.004862 -97.044314 
L 512.244875 -98.532671 
L 508.004574 -100.021029 
L 504.511776 -101.509386 
L 501.968399 -102.997743 
L 500.530858 -104.486101 
L 500.294118 -105.974458 
L 501.281669 -107.462815 
L 503.442885 -108.951173 
L 506.658131 -110.43953 
L 510.750859 -111.927887 
L 515.504932 -113.416245 
L 520.684712 -114.904602 
L 526.055289 -116.39296 
L 531.400391 -117.881317 
L 536.536132 -119.369674 
L 541.319606 -120.858032 
L 545.652128 -122.346389 
L 549.477758 -123.834746 
L 552.7782 -125.323104 
L 555.565456 -126.811461 
L 557.873581 -128.299818 
L 559.750666 -129.788176 
L 561.251861 -131.276533 
L 562.433857 -132.76489 
L 563.350955 -134.253248 
L 564.052599 -135.741605 
L 564.582112 -137.229962 
L 564.976323 -138.71832 
L 565.265783 -140.206677 
L 565.475326 -141.695034 
L 565.624779 -143.183392 
L 565.72972 -144.671749 
L 565.802197 -146.160107 
L 565.851372 -147.648464 
L 565.884092 -149.136821 
L 565.905368 -150.625179 
L 565.918774 -152.113536 
L 565.926763 -153.601893 
L 565.930917 -155.090251 
L 565.932123 -156.578608 
L 565.930687 -158.066965 
L 565.926395 -159.555323 
L 565.918527 -161.04368 
L 565.905833 -162.532037 
L 565.886496 -164.020395 
L 565.858102 -165.508752 
L 565.817631 -166.997109 
L 565.761523 -168.485467 
L 565.685823 -169.973824 
L 565.58645 -171.462182 
L 565.459589 -172.950539 
L 565.302206 -174.438896 
L 565.112648 -175.927254 
L 564.891259 -177.415611 
L 564.640935 -178.903968 
L 564.367508 -180.392326 
L 564.079846 -181.880683 
L 563.789613 -183.36904 
L 563.510621 -184.857398 
L 563.257824 -186.345755 
L 563.046029 -187.834112 
L 562.888476 -189.32247 
L 562.795468 -190.810827 
L 562.773262 -192.299184 
L 562.82337 -193.787542 
L 562.94239 -195.275899 
L 563.122387 -196.764256 
L 563.351769 -198.252614 
L 563.616519 -199.740971 
L 563.901609 -201.229329 
L 564.192385 -202.717686 
L 564.475768 -204.206043 
L 564.741125 -205.694401 
L 564.980755 -207.182758 
L 565.189996 -208.671115 
L 565.366997 -210.159473 
L 565.512261 -211.64783 
L 566.370092 -211.64783 
L 566.370092 -211.64783 
L 566.515356 -210.159473 
L 566.692357 -208.671115 
L 566.901598 -207.182758 
L 567.141228 -205.694401 
L 567.406585 -204.206043 
L 567.689968 -202.717686 
L 567.980744 -201.229329 
L 568.265834 -199.740971 
L 568.530584 -198.252614 
L 568.759966 -196.764256 
L 568.939963 -195.275899 
L 569.058983 -193.787542 
L 569.109091 -192.299184 
L 569.086885 -190.810827 
L 568.993877 -189.32247 
L 568.836324 -187.834112 
L 568.624529 -186.345755 
L 568.371732 -184.857398 
L 568.09274 -183.36904 
L 567.802507 -181.880683 
L 567.514845 -180.392326 
L 567.241418 -178.903968 
L 566.991094 -177.415611 
L 566.769705 -175.927254 
L 566.580147 -174.438896 
L 566.422764 -172.950539 
L 566.295903 -171.462182 
L 566.19653 -169.973824 
L 566.12083 -168.485467 
L 566.064722 -166.997109 
L 566.024251 -165.508752 
L 565.995857 -164.020395 
L 565.97652 -162.532037 
L 565.963826 -161.04368 
L 565.955958 -159.555323 
L 565.951666 -158.066965 
L 565.95023 -156.578608 
L 565.951436 -155.090251 
L 565.95559 -153.601893 
L 565.963579 -152.113536 
L 565.976985 -150.625179 
L 565.998261 -149.136821 
L 566.030981 -147.648464 
L 566.080156 -146.160107 
L 566.152633 -144.671749 
L 566.257574 -143.183392 
L 566.407027 -141.695034 
L 566.61657 -140.206677 
L 566.90603 -138.71832 
L 567.300241 -137.229962 
L 567.829754 -135.741605 
L 568.531398 -134.253248 
L 569.448496 -132.76489 
L 570.630492 -131.276533 
L 572.131687 -129.788176 
L 574.008772 -128.299818 
L 576.316897 -126.811461 
L 579.104153 -125.323104 
L 582.404595 -123.834746 
L 586.230225 -122.346389 
L 590.562747 -120.858032 
L 595.346221 -119.369674 
L 600.481962 -117.881317 
L 605.827063 -116.39296 
L 611.197641 -114.904602 
L 616.377421 -113.416245 
L 621.131493 -111.927887 
L 625.224222 -110.43953 
L 628.439468 -108.951173 
L 630.600684 -107.462815 
L 631.588235 -105.974458 
L 631.351495 -104.486101 
L 629.913954 -102.997743 
L 627.370577 -101.509386 
L 623.877779 -100.021029 
L 619.637478 -98.532671 
L 614.877491 -97.044314 
L 609.83092 -95.555957 
L 604.717149 -94.067599 
L 599.72655 -92.579242 
L 595.010266 -91.090885 
L 590.675532 -89.602527 
L 586.786181 -88.11417 
L 583.367307 -86.625812 
L 580.412694 -85.137455 
L 577.893537 -83.649098 
L 575.7671 -82.16074 
L 573.98431 -80.672383 
L 572.495666 -79.184026 
L 571.255233 -77.695668 
L 570.222841 -76.207311 
L 569.364799 -74.718954 
L 568.653564 -73.230596 
L 568.066804 -71.742239 
L 567.58625 -70.253882 
L 567.196584 -68.765524 
L 566.884563 -67.277167 
L 566.638406 -65.78881 
L 566.447459 -64.300452 
z
" style="stroke: #3f3f3f; stroke-width: 1.5"/>
    </defs>
    <g clip-path="url(#p12f5157dff)">
     <use xlink:href="#mc87337d345" x="0" y="288" style="fill: #3274a1; stroke: #3f3f3f; stroke-width: 1.5"/>
    </g>
   </g>
   <g id="matplotlib.axis_5">
    <g id="xtick_3">
     <g id="line2d_19">
      <g>
       <use xlink:href="#m4f637f4589" x="565.941176" y="256.32" style="stroke: #000000; stroke-width: 0.8"/>
      </g>
     </g>
     <g id="text_18">
      <!-- 0 -->
      <g transform="translate(562.759926 270.918437) scale(0.1 -0.1)">
       <use xlink:href="#DejaVuSans-30"/>
      </g>
     </g>
    </g>
   </g>
   <g id="matplotlib.axis_6">
    <g id="ytick_13">
     <g id="line2d_20">
      <g>
       <use xlink:href="#m7c1ee1f7db" x="483.882353" y="256.32" style="stroke: #000000; stroke-width: 0.8"/>
      </g>
     </g>
     <g id="text_19">
      <!-- 0.0 -->
      <g transform="translate(460.979228 260.119219) scale(0.1 -0.1)">
       <use xlink:href="#DejaVuSans-30"/>
       <use xlink:href="#DejaVuSans-2e" x="63.623047"/>
       <use xlink:href="#DejaVuSans-30" x="95.410156"/>
      </g>
     </g>
    </g>
    <g id="ytick_14">
     <g id="line2d_21">
      <g>
       <use xlink:href="#m7c1ee1f7db" x="483.882353" y="211.968" style="stroke: #000000; stroke-width: 0.8"/>
      </g>
     </g>
     <g id="text_20">
      <!-- 0.2 -->
      <g transform="translate(460.979228 215.767219) scale(0.1 -0.1)">
       <use xlink:href="#DejaVuSans-30"/>
       <use xlink:href="#DejaVuSans-2e" x="63.623047"/>
       <use xlink:href="#DejaVuSans-32" x="95.410156"/>
      </g>
     </g>
    </g>
    <g id="ytick_15">
     <g id="line2d_22">
      <g>
       <use xlink:href="#m7c1ee1f7db" x="483.882353" y="167.616" style="stroke: #000000; stroke-width: 0.8"/>
      </g>
     </g>
     <g id="text_21">
      <!-- 0.4 -->
      <g transform="translate(460.979228 171.415219) scale(0.1 -0.1)">
       <use xlink:href="#DejaVuSans-30"/>
       <use xlink:href="#DejaVuSans-2e" x="63.623047"/>
       <use xlink:href="#DejaVuSans-34" x="95.410156"/>
      </g>
     </g>
    </g>
    <g id="ytick_16">
     <g id="line2d_23">
      <g>
       <use xlink:href="#m7c1ee1f7db" x="483.882353" y="123.264" style="stroke: #000000; stroke-width: 0.8"/>
      </g>
     </g>
     <g id="text_22">
      <!-- 0.6 -->
      <g transform="translate(460.979228 127.063219) scale(0.1 -0.1)">
       <use xlink:href="#DejaVuSans-30"/>
       <use xlink:href="#DejaVuSans-2e" x="63.623047"/>
       <use xlink:href="#DejaVuSans-36" x="95.410156"/>
      </g>
     </g>
    </g>
    <g id="ytick_17">
     <g id="line2d_24">
      <g>
       <use xlink:href="#m7c1ee1f7db" x="483.882353" y="78.912" style="stroke: #000000; stroke-width: 0.8"/>
      </g>
     </g>
     <g id="text_23">
      <!-- 0.8 -->
      <g transform="translate(460.979228 82.711219) scale(0.1 -0.1)">
       <use xlink:href="#DejaVuSans-30"/>
       <use xlink:href="#DejaVuSans-2e" x="63.623047"/>
       <use xlink:href="#DejaVuSans-38" x="95.410156"/>
      </g>
     </g>
    </g>
    <g id="ytick_18">
     <g id="line2d_25">
      <g>
       <use xlink:href="#m7c1ee1f7db" x="483.882353" y="34.56" style="stroke: #000000; stroke-width: 0.8"/>
      </g>
     </g>
     <g id="text_24">
      <!-- 1.0 -->
      <g transform="translate(460.979228 38.359219) scale(0.1 -0.1)">
       <use xlink:href="#DejaVuSans-31"/>
       <use xlink:href="#DejaVuSans-2e" x="63.623047"/>
       <use xlink:href="#DejaVuSans-30" x="95.410156"/>
      </g>
     </g>
    </g>
   </g>
   <g id="line2d_26">
    <path d="M 565.941176 184.49136 
L 565.941176 176.476471 
" clip-path="url(#p12f5157dff)" style="fill: none; stroke: #3f3f3f; stroke-width: 1.5; stroke-linecap: square"/>
   </g>
   <g id="line2d_27">
    <path d="M 565.941176 183.445688 
L 565.941176 180.423592 
" clip-path="url(#p12f5157dff)" style="fill: none; stroke: #3f3f3f; stroke-width: 4.5; stroke-linecap: square"/>
   </g>
   <g id="patch_13">
    <path d="M 483.882353 256.32 
L 483.882353 34.56 
" style="fill: none; stroke: #000000; stroke-width: 0.8; stroke-linejoin: miter; stroke-linecap: square"/>
   </g>
   <g id="patch_14">
    <path d="M 648 256.32 
L 648 34.56 
" style="fill: none; stroke: #000000; stroke-width: 0.8; stroke-linejoin: miter; stroke-linecap: square"/>
   </g>
   <g id="patch_15">
    <path d="M 483.882353 256.32 
L 648 256.32 
" style="fill: none; stroke: #000000; stroke-width: 0.8; stroke-linejoin: miter; stroke-linecap: square"/>
   </g>
   <g id="patch_16">
    <path d="M 483.882353 34.56 
L 648 34.56 
" style="fill: none; stroke: #000000; stroke-width: 0.8; stroke-linejoin: miter; stroke-linecap: square"/>
   </g>
   <g id="PathCollection_3">
    <defs>
     <path id="m58fcff1d12" d="M 0 1.5 
C 0.397805 1.5 0.77937 1.341951 1.06066 1.06066 
C 1.341951 0.77937 1.5 0.397805 1.5 0 
C 1.5 -0.397805 1.341951 -0.77937 1.06066 -1.06066 
C 0.77937 -1.341951 0.397805 -1.5 0 -1.5 
C -0.397805 -1.5 -0.77937 -1.341951 -1.06066 -1.06066 
C -1.341951 -0.77937 -1.5 -0.397805 -1.5 0 
C -1.5 0.397805 -1.341951 0.77937 -1.06066 1.06066 
C -0.77937 1.341951 -0.397805 1.5 0 1.5 
z
" style="stroke: #3f3f3f"/>
    </defs>
    <g clip-path="url(#p12f5157dff)">
     <use xlink:href="#m58fcff1d12" x="565.941176" y="183.360718" style="fill: #ffffff; stroke: #3f3f3f"/>
    </g>
   </g>
   <g id="text_25">
    <!-- keep budget -->
    <g transform="translate(528.310864 28.56) scale(0.12 -0.12)">
     <defs>
      <path id="DejaVuSans-6b" d="M 581 4863 
L 1159 4863 
L 1159 1991 
L 2875 3500 
L 3609 3500 
L 1753 1863 
L 3688 0 
L 2938 0 
L 1159 1709 
L 1159 0 
L 581 0 
L 581 4863 
z
" transform="scale(0.015625)"/>
      <path id="DejaVuSans-65" d="M 3597 1894 
L 3597 1613 
L 953 1613 
Q 991 1019 1311 708 
Q 1631 397 2203 397 
Q 2534 397 2845 478 
Q 3156 559 3463 722 
L 3463 178 
Q 3153 47 2828 -22 
Q 2503 -91 2169 -91 
Q 1331 -91 842 396 
Q 353 884 353 1716 
Q 353 2575 817 3079 
Q 1281 3584 2069 3584 
Q 2775 3584 3186 3129 
Q 3597 2675 3597 1894 
z
M 3022 2063 
Q 3016 2534 2758 2815 
Q 2500 3097 2075 3097 
Q 1594 3097 1305 2825 
Q 1016 2553 972 2059 
L 3022 2063 
z
" transform="scale(0.015625)"/>
      <path id="DejaVuSans-70" d="M 1159 525 
L 1159 -1331 
L 581 -1331 
L 581 3500 
L 1159 3500 
L 1159 2969 
Q 1341 3281 1617 3432 
Q 1894 3584 2278 3584 
Q 2916 3584 3314 3078 
Q 3713 2572 3713 1747 
Q 3713 922 3314 415 
Q 2916 -91 2278 -91 
Q 1894 -91 1617 61 
Q 1341 213 1159 525 
z
M 3116 1747 
Q 3116 2381 2855 2742 
Q 2594 3103 2138 3103 
Q 1681 3103 1420 2742 
Q 1159 2381 1159 1747 
Q 1159 1113 1420 752 
Q 1681 391 2138 391 
Q 2594 391 2855 752 
Q 3116 1113 3116 1747 
z
" transform="scale(0.015625)"/>
      <path id="DejaVuSans-20" transform="scale(0.015625)"/>
      <path id="DejaVuSans-62" d="M 3116 1747 
Q 3116 2381 2855 2742 
Q 2594 3103 2138 3103 
Q 1681 3103 1420 2742 
Q 1159 2381 1159 1747 
Q 1159 1113 1420 752 
Q 1681 391 2138 391 
Q 2594 391 2855 752 
Q 3116 1113 3116 1747 
z
M 1159 2969 
Q 1341 3281 1617 3432 
Q 1894 3584 2278 3584 
Q 2916 3584 3314 3078 
Q 3713 2572 3713 1747 
Q 3713 922 3314 415 
Q 2916 -91 2278 -91 
Q 1894 -91 1617 61 
Q 1341 213 1159 525 
L 1159 0 
L 581 0 
L 581 4863 
L 1159 4863 
L 1159 2969 
z
" transform="scale(0.015625)"/>
      <path id="DejaVuSans-75" d="M 544 1381 
L 544 3500 
L 1119 3500 
L 1119 1403 
Q 1119 906 1312 657 
Q 1506 409 1894 409 
Q 2359 409 2629 706 
Q 2900 1003 2900 1516 
L 2900 3500 
L 3475 3500 
L 3475 0 
L 2900 0 
L 2900 538 
Q 2691 219 2414 64 
Q 2138 -91 1772 -91 
Q 1169 -91 856 284 
Q 544 659 544 1381 
z
M 1991 3584 
L 1991 3584 
z
" transform="scale(0.015625)"/>
      <path id="DejaVuSans-64" d="M 2906 2969 
L 2906 4863 
L 3481 4863 
L 3481 0 
L 2906 0 
L 2906 525 
Q 2725 213 2448 61 
Q 2172 -91 1784 -91 
Q 1150 -91 751 415 
Q 353 922 353 1747 
Q 353 2572 751 3078 
Q 1150 3584 1784 3584 
Q 2172 3584 2448 3432 
Q 2725 3281 2906 2969 
z
M 947 1747 
Q 947 1113 1208 752 
Q 1469 391 1925 391 
Q 2381 391 2643 752 
Q 2906 1113 2906 1747 
Q 2906 2381 2643 2742 
Q 2381 3103 1925 3103 
Q 1469 3103 1208 2742 
Q 947 2381 947 1747 
z
" transform="scale(0.015625)"/>
      <path id="DejaVuSans-67" d="M 2906 1791 
Q 2906 2416 2648 2759 
Q 2391 3103 1925 3103 
Q 1463 3103 1205 2759 
Q 947 2416 947 1791 
Q 947 1169 1205 825 
Q 1463 481 1925 481 
Q 2391 481 2648 825 
Q 2906 1169 2906 1791 
z
M 3481 434 
Q 3481 -459 3084 -895 
Q 2688 -1331 1869 -1331 
Q 1566 -1331 1297 -1286 
Q 1028 -1241 775 -1147 
L 775 -588 
Q 1028 -725 1275 -790 
Q 1522 -856 1778 -856 
Q 2344 -856 2625 -561 
Q 2906 -266 2906 331 
L 2906 616 
Q 2728 306 2450 153 
Q 2172 0 1784 0 
Q 1141 0 747 490 
Q 353 981 353 1791 
Q 353 2603 747 3093 
Q 1141 3584 1784 3584 
Q 2172 3584 2450 3431 
Q 2728 3278 2906 2969 
L 2906 3500 
L 3481 3500 
L 3481 434 
z
" transform="scale(0.015625)"/>
      <path id="DejaVuSans-74" d="M 1172 4494 
L 1172 3500 
L 2356 3500 
L 2356 3053 
L 1172 3053 
L 1172 1153 
Q 1172 725 1289 603 
Q 1406 481 1766 481 
L 2356 481 
L 2356 0 
L 1766 0 
Q 1100 0 847 248 
Q 594 497 594 1153 
L 594 3053 
L 172 3053 
L 172 3500 
L 594 3500 
L 594 4494 
L 1172 4494 
z
" transform="scale(0.015625)"/>
     </defs>
     <use xlink:href="#DejaVuSans-6b"/>
     <use xlink:href="#DejaVuSans-65" x="54.285156"/>
     <use xlink:href="#DejaVuSans-65" x="115.808594"/>
     <use xlink:href="#DejaVuSans-70" x="177.332031"/>
     <use xlink:href="#DejaVuSans-20" x="240.808594"/>
     <use xlink:href="#DejaVuSans-62" x="272.595703"/>
     <use xlink:href="#DejaVuSans-75" x="336.072266"/>
     <use xlink:href="#DejaVuSans-64" x="399.451172"/>
     <use xlink:href="#DejaVuSans-67" x="462.927734"/>
     <use xlink:href="#DejaVuSans-65" x="526.404297"/>
     <use xlink:href="#DejaVuSans-74" x="587.927734"/>
    </g>
   </g>
  </g>
  <g id="text_26">
   <!-- $C$: all participants -->
   <g transform="translate(307.2 14.88) scale(0.12 -0.12)">
    <defs>
     <path id="DejaVuSans-Oblique-43" d="M 4447 4306 
L 4319 3641 
Q 4019 3944 3683 4091 
Q 3347 4238 2956 4238 
Q 2422 4238 2017 3981 
Q 1613 3725 1319 3200 
Q 1131 2863 1032 2486 
Q 934 2109 934 1728 
Q 934 1091 1264 756 
Q 1594 422 2222 422 
Q 2656 422 3056 561 
Q 3456 700 3834 978 
L 3688 231 
Q 3316 72 2936 -9 
Q 2556 -91 2175 -91 
Q 1278 -91 773 396 
Q 269 884 269 1753 
Q 269 2309 461 2846 
Q 653 3384 1013 3828 
Q 1394 4300 1883 4525 
Q 2372 4750 3022 4750 
Q 3422 4750 3780 4639 
Q 4138 4528 4447 4306 
z
" transform="scale(0.015625)"/>
     <path id="DejaVuSans-3a" d="M 750 794 
L 1409 794 
L 1409 0 
L 750 0 
L 750 794 
z
M 750 3309 
L 1409 3309 
L 1409 2516 
L 750 2516 
L 750 3309 
z
" transform="scale(0.015625)"/>
     <path id="DejaVuSans-61" d="M 2194 1759 
Q 1497 1759 1228 1600 
Q 959 1441 959 1056 
Q 959 750 1161 570 
Q 1363 391 1709 391 
Q 2188 391 2477 730 
Q 2766 1069 2766 1631 
L 2766 1759 
L 2194 1759 
z
M 3341 1997 
L 3341 0 
L 2766 0 
L 2766 531 
Q 2569 213 2275 61 
Q 1981 -91 1556 -91 
Q 1019 -91 701 211 
Q 384 513 384 1019 
Q 384 1609 779 1909 
Q 1175 2209 1959 2209 
L 2766 2209 
L 2766 2266 
Q 2766 2663 2505 2880 
Q 2244 3097 1772 3097 
Q 1472 3097 1187 3025 
Q 903 2953 641 2809 
L 641 3341 
Q 956 3463 1253 3523 
Q 1550 3584 1831 3584 
Q 2591 3584 2966 3190 
Q 3341 2797 3341 1997 
z
" transform="scale(0.015625)"/>
     <path id="DejaVuSans-72" d="M 2631 2963 
Q 2534 3019 2420 3045 
Q 2306 3072 2169 3072 
Q 1681 3072 1420 2755 
Q 1159 2438 1159 1844 
L 1159 0 
L 581 0 
L 581 3500 
L 1159 3500 
L 1159 2956 
Q 1341 3275 1631 3429 
Q 1922 3584 2338 3584 
Q 2397 3584 2469 3576 
Q 2541 3569 2628 3553 
L 2631 2963 
z
" transform="scale(0.015625)"/>
     <path id="DejaVuSans-63" d="M 3122 3366 
L 3122 2828 
Q 2878 2963 2633 3030 
Q 2388 3097 2138 3097 
Q 1578 3097 1268 2742 
Q 959 2388 959 1747 
Q 959 1106 1268 751 
Q 1578 397 2138 397 
Q 2388 397 2633 464 
Q 2878 531 3122 666 
L 3122 134 
Q 2881 22 2623 -34 
Q 2366 -91 2075 -91 
Q 1284 -91 818 406 
Q 353 903 353 1747 
Q 353 2603 823 3093 
Q 1294 3584 2113 3584 
Q 2378 3584 2631 3529 
Q 2884 3475 3122 3366 
z
" transform="scale(0.015625)"/>
    </defs>
    <use xlink:href="#DejaVuSans-Oblique-43" transform="translate(0 0.015625)"/>
    <use xlink:href="#DejaVuSans-3a" transform="translate(69.824219 0.015625)"/>
    <use xlink:href="#DejaVuSans-20" transform="translate(103.515625 0.015625)"/>
    <use xlink:href="#DejaVuSans-61" transform="translate(135.302734 0.015625)"/>
    <use xlink:href="#DejaVuSans-6c" transform="translate(196.582031 0.015625)"/>
    <use xlink:href="#DejaVuSans-6c" transform="translate(224.365234 0.015625)"/>
    <use xlink:href="#DejaVuSans-20" transform="translate(252.148438 0.015625)"/>
    <use xlink:href="#DejaVuSans-70" transform="translate(283.935547 0.015625)"/>
    <use xlink:href="#DejaVuSans-61" transform="translate(347.412109 0.015625)"/>
    <use xlink:href="#DejaVuSans-72" transform="translate(408.691406 0.015625)"/>
    <use xlink:href="#DejaVuSans-74" transform="translate(449.804688 0.015625)"/>
    <use xlink:href="#DejaVuSans-69" transform="translate(489.013672 0.015625)"/>
    <use xlink:href="#DejaVuSans-63" transform="translate(516.796875 0.015625)"/>
    <use xlink:href="#DejaVuSans-69" transform="translate(571.777344 0.015625)"/>
    <use xlink:href="#DejaVuSans-70" transform="translate(599.560547 0.015625)"/>
    <use xlink:href="#DejaVuSans-61" transform="translate(663.037109 0.015625)"/>
    <use xlink:href="#DejaVuSans-6e" transform="translate(724.316406 0.015625)"/>
    <use xlink:href="#DejaVuSans-74" transform="translate(787.695312 0.015625)"/>
    <use xlink:href="#DejaVuSans-73" transform="translate(826.904297 0.015625)"/>
   </g>
  </g>
 </g>
 <defs>
  <clipPath id="pbf09505ec9">
   <rect x="90" y="34.56" width="164.117647" height="221.76"/>
  </clipPath>
  <clipPath id="pb540bfe8b8">
   <rect x="286.941176" y="34.56" width="164.117647" height="221.76"/>
  </clipPath>
  <clipPath id="p12f5157dff">
   <rect x="483.882353" y="34.56" width="164.117647" height="221.76"/>
  </clipPath>
 </defs>
</svg>
