<?xml version="1.0" encoding="utf-8" standalone="no"?>
<!DOCTYPE svg PUBLIC "-//W3C//DTD SVG 1.1//EN"
  "http://www.w3.org/Graphics/SVG/1.1/DTD/svg11.dtd">
<svg xmlns:xlink="http://www.w3.org/1999/xlink" width="720pt" height="288pt" viewBox="0 0 720 288" xmlns="http://www.w3.org/2000/svg" version="1.1">
 <metadata>
  <rdf:RDF xmlns:dc="http://purl.org/dc/elements/1.1/" xmlns:cc="http://creativecommons.org/ns#" xmlns:rdf="http://www.w3.org/1999/02/22-rdf-syntax-ns#">
   <cc:Work>
    <dc:type rdf:resource="http://purl.org/dc/dcmitype/StillImage"/>
    <dc:date>2024-07-03T15:14:53.043763</dc:date>
    <dc:format>image/svg+xml</dc:format>
    <dc:creator>
     <cc:Agent>
      <dc:title>Matplotlib v3.7.2, https://matplotlib.org/</dc:title>
     </cc:Agent>
    </dc:creator>
   </cc:Work>
  </rdf:RDF>
 </metadata>
 <defs>
  <style type="text/css">*{stroke-linejoin: round; stroke-linecap: butt}</style>
 </defs>
 <g id="figure_1">
  <g id="patch_1">
   <path d="M 0 288 
L 720 288 
L 720 0 
L 0 0 
z
" style="fill: #ffffff"/>
  </g>
  <g id="axes_1">
   <g id="patch_2">
    <path d="M 90 256.32 
L 254.117647 256.32 
L 254.117647 34.56 
L 90 34.56 
z
" style="fill: #ffffff"/>
   </g>
   <g id="PolyCollection_1">
    <defs>
     <path id="maf31c59208" d="M 173.151037 -53.213806 
L 170.96661 -53.213806 
L 170.73778 -54.016967 
L 170.476112 -54.820127 
L 170.180538 -55.623288 
L 169.850831 -56.426449 
L 169.487775 -57.22961 
L 169.093302 -58.032771 
L 168.670603 -58.835931 
L 168.224188 -59.639092 
L 167.759885 -60.442253 
L 167.284772 -61.245414 
L 166.80704 -62.048575 
L 166.335776 -62.851735 
L 165.880679 -63.654896 
L 165.451713 -64.458057 
L 165.058719 -65.261218 
L 164.710987 -66.064379 
L 164.416832 -66.86754 
L 164.183178 -67.6707 
L 164.015189 -68.473861 
L 163.915955 -69.277022 
L 163.886267 -70.080183 
L 163.924477 -70.883344 
L 164.026472 -71.686504 
L 164.185744 -72.489665 
L 164.393573 -73.292826 
L 164.639286 -74.095987 
L 164.910604 -74.899148 
L 165.194033 -75.702308 
L 165.475298 -76.505469 
L 165.739774 -77.30863 
L 165.972911 -78.111791 
L 166.160618 -78.914952 
L 166.289593 -79.718112 
L 166.347585 -80.521273 
L 166.323579 -81.324434 
L 166.207888 -82.127595 
L 165.992178 -82.930756 
L 165.669394 -83.733917 
L 165.233637 -84.537077 
L 164.679976 -85.340238 
L 164.004227 -86.143399 
L 163.202724 -86.94656 
L 162.272095 -87.749721 
L 161.209078 -88.552881 
L 160.010396 -89.356042 
L 158.672718 -90.159203 
L 157.192718 -90.962364 
L 155.567257 -91.765525 
L 153.793673 -92.568685 
L 151.870202 -93.371846 
L 149.796494 -94.175007 
L 147.574212 -94.978168 
L 145.207677 -95.781329 
L 142.704522 -96.584489 
L 140.07631 -97.38765 
L 137.339052 -98.190811 
L 134.513604 -98.993972 
L 131.625866 -99.797133 
L 128.70678 -100.600294 
L 125.792065 -101.403454 
L 122.921712 -102.206615 
L 120.139219 -103.009776 
L 117.490583 -103.812937 
L 115.023101 -104.616098 
L 112.783999 -105.419258 
L 110.818967 -106.222419 
L 109.170655 -107.02558 
L 107.877195 -107.828741 
L 106.970824 -108.631902 
L 106.476671 -109.435062 
L 106.411765 -110.238223 
L 106.784309 -111.041384 
L 107.593267 -111.844545 
L 108.828269 -112.647706 
L 110.469855 -113.450867 
L 112.490039 -114.254027 
L 114.853179 -115.057188 
L 117.517095 -115.860349 
L 120.434413 -116.66351 
L 123.554049 -117.466671 
L 126.822786 -118.269831 
L 130.186864 -119.072992 
L 133.59353 -119.876153 
L 136.992466 -120.679314 
L 140.337061 -121.482475 
L 143.585466 -122.285635 
L 146.701412 -123.088796 
L 149.654763 -123.891957 
L 152.42181 -124.695118 
L 154.985309 -125.498279 
L 157.334278 -126.301439 
L 159.463606 -127.1046 
L 161.373481 -127.907761 
L 163.068709 -128.710922 
L 164.55795 -129.514083 
L 165.852921 -130.317244 
L 166.9676 -131.120404 
L 167.917473 -131.923565 
L 168.718845 -132.726726 
L 175.398802 -132.726726 
L 175.398802 -132.726726 
L 176.200174 -131.923565 
L 177.150047 -131.120404 
L 178.264726 -130.317244 
L 179.559697 -129.514083 
L 181.048938 -128.710922 
L 182.744166 -127.907761 
L 184.654041 -127.1046 
L 186.783369 -126.301439 
L 189.132338 -125.498279 
L 191.695837 -124.695118 
L 194.462884 -123.891957 
L 197.416236 -123.088796 
L 200.532181 -122.285635 
L 203.780586 -121.482475 
L 207.125181 -120.679314 
L 210.524117 -119.876153 
L 213.930783 -119.072992 
L 217.294861 -118.269831 
L 220.563598 -117.466671 
L 223.683234 -116.66351 
L 226.600552 -115.860349 
L 229.264468 -115.057188 
L 231.627608 -114.254027 
L 233.647792 -113.450867 
L 235.289378 -112.647706 
L 236.52438 -111.844545 
L 237.333338 -111.041384 
L 237.705882 -110.238223 
L 237.640976 -109.435062 
L 237.146823 -108.631902 
L 236.240452 -107.828741 
L 234.946992 -107.02558 
L 233.29868 -106.222419 
L 231.333648 -105.419258 
L 229.094546 -104.616098 
L 226.627064 -103.812937 
L 223.978429 -103.009776 
L 221.195935 -102.206615 
L 218.325583 -101.403454 
L 215.410867 -100.600294 
L 212.491781 -99.797133 
L 209.604044 -98.993972 
L 206.778595 -98.190811 
L 204.041338 -97.38765 
L 201.413125 -96.584489 
L 198.90997 -95.781329 
L 196.543435 -94.978168 
L 194.321153 -94.175007 
L 192.247445 -93.371846 
L 190.323974 -92.568685 
L 188.55039 -91.765525 
L 186.924929 -90.962364 
L 185.444929 -90.159203 
L 184.107251 -89.356042 
L 182.908569 -88.552881 
L 181.845552 -87.749721 
L 180.914923 -86.94656 
L 180.11342 -86.143399 
L 179.437671 -85.340238 
L 178.88401 -84.537077 
L 178.448253 -83.733917 
L 178.125469 -82.930756 
L 177.909759 -82.127595 
L 177.794069 -81.324434 
L 177.770062 -80.521273 
L 177.828054 -79.718112 
L 177.957029 -78.914952 
L 178.144736 -78.111791 
L 178.377873 -77.30863 
L 178.642349 -76.505469 
L 178.923614 -75.702308 
L 179.207043 -74.899148 
L 179.478361 -74.095987 
L 179.724074 -73.292826 
L 179.931903 -72.489665 
L 180.091175 -71.686504 
L 180.19317 -70.883344 
L 180.23138 -70.080183 
L 180.201692 -69.277022 
L 180.102458 -68.473861 
L 179.934469 -67.6707 
L 179.700815 -66.86754 
L 179.40666 -66.064379 
L 179.058928 -65.261218 
L 178.665934 -64.458057 
L 178.236969 -63.654896 
L 177.781871 -62.851735 
L 177.310607 -62.048575 
L 176.832875 -61.245414 
L 176.357762 -60.442253 
L 175.893459 -59.639092 
L 175.447044 -58.835931 
L 175.024345 -58.032771 
L 174.629872 -57.22961 
L 174.266816 -56.426449 
L 173.937109 -55.623288 
L 173.641535 -54.820127 
L 173.379867 -54.016967 
L 173.151037 -53.213806 
z
" style="stroke: #797979; stroke-width: 1.5"/>
    </defs>
    <g clip-path="url(#p6518e00cd8)">
     <use xlink:href="#maf31c59208" x="0" y="288" style="fill: #b4d4df; stroke: #797979; stroke-width: 1.5"/>
    </g>
   </g>
   <g id="matplotlib.axis_1">
    <g id="xtick_1">
     <g id="line2d_1">
      <defs>
       <path id="m0723d317c1" d="M 0 0 
L 0 3.5 
" style="stroke: #000000; stroke-width: 0.8"/>
      </defs>
      <g>
       <use xlink:href="#m0723d317c1" x="172.058824" y="256.32" style="stroke: #000000; stroke-width: 0.8"/>
      </g>
     </g>
     <g id="text_1">
      <!-- 0 -->
      <g transform="translate(168.877574 270.918437) scale(0.1 -0.1)">
       <defs>
        <path id="DejaVuSans-30" d="M 2034 4250 
Q 1547 4250 1301 3770 
Q 1056 3291 1056 2328 
Q 1056 1369 1301 889 
Q 1547 409 2034 409 
Q 2525 409 2770 889 
Q 3016 1369 3016 2328 
Q 3016 3291 2770 3770 
Q 2525 4250 2034 4250 
z
M 2034 4750 
Q 2819 4750 3233 4129 
Q 3647 3509 3647 2328 
Q 3647 1150 3233 529 
Q 2819 -91 2034 -91 
Q 1250 -91 836 529 
Q 422 1150 422 2328 
Q 422 3509 836 4129 
Q 1250 4750 2034 4750 
z
" transform="scale(0.015625)"/>
       </defs>
       <use xlink:href="#DejaVuSans-30"/>
      </g>
     </g>
    </g>
   </g>
   <g id="matplotlib.axis_2">
    <g id="ytick_1">
     <g id="line2d_2">
      <defs>
       <path id="m28c0ce30f8" d="M 0 0 
L -3.5 0 
" style="stroke: #000000; stroke-width: 0.8"/>
      </defs>
      <g>
       <use xlink:href="#m28c0ce30f8" x="90" y="256.32" style="stroke: #000000; stroke-width: 0.8"/>
      </g>
     </g>
     <g id="text_2">
      <!-- 0.0 -->
      <g transform="translate(67.096875 260.119219) scale(0.1 -0.1)">
       <defs>
        <path id="DejaVuSans-2e" d="M 684 794 
L 1344 794 
L 1344 0 
L 684 0 
L 684 794 
z
" transform="scale(0.015625)"/>
       </defs>
       <use xlink:href="#DejaVuSans-30"/>
       <use xlink:href="#DejaVuSans-2e" x="63.623047"/>
       <use xlink:href="#DejaVuSans-30" x="95.410156"/>
      </g>
     </g>
    </g>
    <g id="ytick_2">
     <g id="line2d_3">
      <g>
       <use xlink:href="#m28c0ce30f8" x="90" y="211.968" style="stroke: #000000; stroke-width: 0.8"/>
      </g>
     </g>
     <g id="text_3">
      <!-- 0.2 -->
      <g transform="translate(67.096875 215.767219) scale(0.1 -0.1)">
       <defs>
        <path id="DejaVuSans-32" d="M 1228 531 
L 3431 531 
L 3431 0 
L 469 0 
L 469 531 
Q 828 903 1448 1529 
Q 2069 2156 2228 2338 
Q 2531 2678 2651 2914 
Q 2772 3150 2772 3378 
Q 2772 3750 2511 3984 
Q 2250 4219 1831 4219 
Q 1534 4219 1204 4116 
Q 875 4013 500 3803 
L 500 4441 
Q 881 4594 1212 4672 
Q 1544 4750 1819 4750 
Q 2544 4750 2975 4387 
Q 3406 4025 3406 3419 
Q 3406 3131 3298 2873 
Q 3191 2616 2906 2266 
Q 2828 2175 2409 1742 
Q 1991 1309 1228 531 
z
" transform="scale(0.015625)"/>
       </defs>
       <use xlink:href="#DejaVuSans-30"/>
       <use xlink:href="#DejaVuSans-2e" x="63.623047"/>
       <use xlink:href="#DejaVuSans-32" x="95.410156"/>
      </g>
     </g>
    </g>
    <g id="ytick_3">
     <g id="line2d_4">
      <g>
       <use xlink:href="#m28c0ce30f8" x="90" y="167.616" style="stroke: #000000; stroke-width: 0.8"/>
      </g>
     </g>
     <g id="text_4">
      <!-- 0.4 -->
      <g transform="translate(67.096875 171.415219) scale(0.1 -0.1)">
       <defs>
        <path id="DejaVuSans-34" d="M 2419 4116 
L 825 1625 
L 2419 1625 
L 2419 4116 
z
M 2253 4666 
L 3047 4666 
L 3047 1625 
L 3713 1625 
L 3713 1100 
L 3047 1100 
L 3047 0 
L 2419 0 
L 2419 1100 
L 313 1100 
L 313 1709 
L 2253 4666 
z
" transform="scale(0.015625)"/>
       </defs>
       <use xlink:href="#DejaVuSans-30"/>
       <use xlink:href="#DejaVuSans-2e" x="63.623047"/>
       <use xlink:href="#DejaVuSans-34" x="95.410156"/>
      </g>
     </g>
    </g>
    <g id="ytick_4">
     <g id="line2d_5">
      <g>
       <use xlink:href="#m28c0ce30f8" x="90" y="123.264" style="stroke: #000000; stroke-width: 0.8"/>
      </g>
     </g>
     <g id="text_5">
      <!-- 0.6 -->
      <g transform="translate(67.096875 127.063219) scale(0.1 -0.1)">
       <defs>
        <path id="DejaVuSans-36" d="M 2113 2584 
Q 1688 2584 1439 2293 
Q 1191 2003 1191 1497 
Q 1191 994 1439 701 
Q 1688 409 2113 409 
Q 2538 409 2786 701 
Q 3034 994 3034 1497 
Q 3034 2003 2786 2293 
Q 2538 2584 2113 2584 
z
M 3366 4563 
L 3366 3988 
Q 3128 4100 2886 4159 
Q 2644 4219 2406 4219 
Q 1781 4219 1451 3797 
Q 1122 3375 1075 2522 
Q 1259 2794 1537 2939 
Q 1816 3084 2150 3084 
Q 2853 3084 3261 2657 
Q 3669 2231 3669 1497 
Q 3669 778 3244 343 
Q 2819 -91 2113 -91 
Q 1303 -91 875 529 
Q 447 1150 447 2328 
Q 447 3434 972 4092 
Q 1497 4750 2381 4750 
Q 2619 4750 2861 4703 
Q 3103 4656 3366 4563 
z
" transform="scale(0.015625)"/>
       </defs>
       <use xlink:href="#DejaVuSans-30"/>
       <use xlink:href="#DejaVuSans-2e" x="63.623047"/>
       <use xlink:href="#DejaVuSans-36" x="95.410156"/>
      </g>
     </g>
    </g>
    <g id="ytick_5">
     <g id="line2d_6">
      <g>
       <use xlink:href="#m28c0ce30f8" x="90" y="78.912" style="stroke: #000000; stroke-width: 0.8"/>
      </g>
     </g>
     <g id="text_6">
      <!-- 0.8 -->
      <g transform="translate(67.096875 82.711219) scale(0.1 -0.1)">
       <defs>
        <path id="DejaVuSans-38" d="M 2034 2216 
Q 1584 2216 1326 1975 
Q 1069 1734 1069 1313 
Q 1069 891 1326 650 
Q 1584 409 2034 409 
Q 2484 409 2743 651 
Q 3003 894 3003 1313 
Q 3003 1734 2745 1975 
Q 2488 2216 2034 2216 
z
M 1403 2484 
Q 997 2584 770 2862 
Q 544 3141 544 3541 
Q 544 4100 942 4425 
Q 1341 4750 2034 4750 
Q 2731 4750 3128 4425 
Q 3525 4100 3525 3541 
Q 3525 3141 3298 2862 
Q 3072 2584 2669 2484 
Q 3125 2378 3379 2068 
Q 3634 1759 3634 1313 
Q 3634 634 3220 271 
Q 2806 -91 2034 -91 
Q 1263 -91 848 271 
Q 434 634 434 1313 
Q 434 1759 690 2068 
Q 947 2378 1403 2484 
z
M 1172 3481 
Q 1172 3119 1398 2916 
Q 1625 2713 2034 2713 
Q 2441 2713 2670 2916 
Q 2900 3119 2900 3481 
Q 2900 3844 2670 4047 
Q 2441 4250 2034 4250 
Q 1625 4250 1398 4047 
Q 1172 3844 1172 3481 
z
" transform="scale(0.015625)"/>
       </defs>
       <use xlink:href="#DejaVuSans-30"/>
       <use xlink:href="#DejaVuSans-2e" x="63.623047"/>
       <use xlink:href="#DejaVuSans-38" x="95.410156"/>
      </g>
     </g>
    </g>
    <g id="ytick_6">
     <g id="line2d_7">
      <g>
       <use xlink:href="#m28c0ce30f8" x="90" y="34.56" style="stroke: #000000; stroke-width: 0.8"/>
      </g>
     </g>
     <g id="text_7">
      <!-- 1.0 -->
      <g transform="translate(67.096875 38.359219) scale(0.1 -0.1)">
       <defs>
        <path id="DejaVuSans-31" d="M 794 531 
L 1825 531 
L 1825 4091 
L 703 3866 
L 703 4441 
L 1819 4666 
L 2450 4666 
L 2450 531 
L 3481 531 
L 3481 0 
L 794 0 
L 794 531 
z
" transform="scale(0.015625)"/>
       </defs>
       <use xlink:href="#DejaVuSans-31"/>
       <use xlink:href="#DejaVuSans-2e" x="63.623047"/>
       <use xlink:href="#DejaVuSans-30" x="95.410156"/>
      </g>
     </g>
    </g>
    <g id="text_8">
     <!-- $p$ -->
     <g transform="translate(60.996875 148.64) rotate(-90) scale(0.1 -0.1)">
      <defs>
       <path id="DejaVuSans-Oblique-70" d="M 3175 2156 
Q 3175 2616 2975 2859 
Q 2775 3103 2400 3103 
Q 2144 3103 1911 2972 
Q 1678 2841 1497 2591 
Q 1319 2344 1212 1994 
Q 1106 1644 1106 1300 
Q 1106 863 1306 627 
Q 1506 391 1875 391 
Q 2147 391 2380 519 
Q 2613 647 2778 891 
Q 2956 1147 3065 1494 
Q 3175 1841 3175 2156 
z
M 1394 2969 
Q 1625 3272 1939 3428 
Q 2253 3584 2638 3584 
Q 3175 3584 3472 3232 
Q 3769 2881 3769 2247 
Q 3769 1728 3584 1258 
Q 3400 788 3053 416 
Q 2822 169 2531 39 
Q 2241 -91 1919 -91 
Q 1547 -91 1294 64 
Q 1041 219 916 525 
L 556 -1331 
L -19 -1331 
L 922 3500 
L 1497 3500 
L 1394 2969 
z
" transform="scale(0.015625)"/>
      </defs>
      <use xlink:href="#DejaVuSans-Oblique-70"/>
     </g>
    </g>
   </g>
   <g id="line2d_8">
    <path d="M 172.058824 193.730631 
L 172.058824 171.752007 
" clip-path="url(#p6518e00cd8)" style="fill: none; stroke: #797979; stroke-width: 1.5; stroke-linecap: square"/>
   </g>
   <g id="line2d_9">
    <path d="M 172.058824 182.925258 
L 172.058824 175.12132 
" clip-path="url(#p6518e00cd8)" style="fill: none; stroke: #797979; stroke-width: 4.5; stroke-linecap: square"/>
   </g>
   <g id="patch_3">
    <path d="M 90 256.32 
L 90 34.56 
" style="fill: none; stroke: #000000; stroke-width: 0.8; stroke-linejoin: miter; stroke-linecap: square"/>
   </g>
   <g id="patch_4">
    <path d="M 254.117647 256.32 
L 254.117647 34.56 
" style="fill: none; stroke: #000000; stroke-width: 0.8; stroke-linejoin: miter; stroke-linecap: square"/>
   </g>
   <g id="patch_5">
    <path d="M 90 256.32 
L 254.117647 256.32 
" style="fill: none; stroke: #000000; stroke-width: 0.8; stroke-linejoin: miter; stroke-linecap: square"/>
   </g>
   <g id="patch_6">
    <path d="M 90 34.56 
L 254.117647 34.56 
" style="fill: none; stroke: #000000; stroke-width: 0.8; stroke-linejoin: miter; stroke-linecap: square"/>
   </g>
   <g id="PathCollection_1">
    <defs>
     <path id="me4b5e3229f" d="M 0 1.5 
C 0.397805 1.5 0.77937 1.341951 1.06066 1.06066 
C 1.341951 0.77937 1.5 0.397805 1.5 0 
C 1.5 -0.397805 1.341951 -0.77937 1.06066 -1.06066 
C 0.77937 -1.341951 0.397805 -1.5 0 -1.5 
C -0.397805 -1.5 -0.77937 -1.341951 -1.06066 -1.06066 
C -1.341951 -0.77937 -1.5 -0.397805 -1.5 0 
C -1.5 0.397805 -1.341951 0.77937 -1.06066 1.06066 
C -0.77937 1.341951 -0.397805 1.5 0 1.5 
z
" style="stroke: #797979"/>
    </defs>
    <g clip-path="url(#p6518e00cd8)">
     <use xlink:href="#me4b5e3229f" x="172.058824" y="177.969922" style="fill: #ffffff; stroke: #797979"/>
    </g>
   </g>
   <g id="text_9">
    <!-- win -->
    <g transform="translate(161.682574 28.56) scale(0.12 -0.12)">
     <defs>
      <path id="DejaVuSans-77" d="M 269 3500 
L 844 3500 
L 1563 769 
L 2278 3500 
L 2956 3500 
L 3675 769 
L 4391 3500 
L 4966 3500 
L 4050 0 
L 3372 0 
L 2619 2869 
L 1863 0 
L 1184 0 
L 269 3500 
z
" transform="scale(0.015625)"/>
      <path id="DejaVuSans-69" d="M 603 3500 
L 1178 3500 
L 1178 0 
L 603 0 
L 603 3500 
z
M 603 4863 
L 1178 4863 
L 1178 4134 
L 603 4134 
L 603 4863 
z
" transform="scale(0.015625)"/>
      <path id="DejaVuSans-6e" d="M 3513 2113 
L 3513 0 
L 2938 0 
L 2938 2094 
Q 2938 2591 2744 2837 
Q 2550 3084 2163 3084 
Q 1697 3084 1428 2787 
Q 1159 2491 1159 1978 
L 1159 0 
L 581 0 
L 581 3500 
L 1159 3500 
L 1159 2956 
Q 1366 3272 1645 3428 
Q 1925 3584 2291 3584 
Q 2894 3584 3203 3211 
Q 3513 2838 3513 2113 
z
" transform="scale(0.015625)"/>
     </defs>
     <use xlink:href="#DejaVuSans-77"/>
     <use xlink:href="#DejaVuSans-69" x="81.787109"/>
     <use xlink:href="#DejaVuSans-6e" x="109.570312"/>
    </g>
   </g>
  </g>
  <g id="axes_2">
   <g id="patch_7">
    <path d="M 286.941176 256.32 
L 451.058824 256.32 
L 451.058824 34.56 
L 286.941176 34.56 
z
" style="fill: #ffffff"/>
   </g>
   <g id="PolyCollection_2">
    <defs>
     <path id="m8dbf1a2a28" d="M 369.98691 -36.985838 
L 368.01309 -36.985838 
L 367.797895 -37.902117 
L 367.550692 -38.818395 
L 367.270452 -39.734674 
L 366.957048 -40.650953 
L 366.611435 -41.567231 
L 366.235799 -42.48351 
L 365.833674 -43.399789 
L 365.409993 -44.316068 
L 364.971081 -45.232346 
L 364.524563 -46.148625 
L 364.079197 -47.064904 
L 363.644619 -47.981182 
L 363.231025 -48.897461 
L 362.848782 -49.81374 
L 362.508006 -50.730019 
L 362.218118 -51.646297 
L 361.987413 -52.562576 
L 361.822657 -53.478855 
L 361.728757 -54.395133 
L 361.708505 -55.311412 
L 361.762429 -56.227691 
L 361.88875 -57.14397 
L 362.083454 -58.060248 
L 362.340467 -58.976527 
L 362.651918 -59.892806 
L 363.00847 -60.809084 
L 363.399698 -61.725363 
L 363.814473 -62.641642 
L 364.241337 -63.557921 
L 364.668831 -64.474199 
L 365.085759 -65.390478 
L 365.481373 -66.306757 
L 365.845458 -67.223035 
L 366.168333 -68.139314 
L 366.44075 -69.055593 
L 366.653724 -69.971872 
L 366.7983 -70.88815 
L 366.865277 -71.804429 
L 366.844928 -72.720708 
L 366.726739 -73.636986 
L 366.499186 -74.553265 
L 366.1496 -75.469544 
L 365.664124 -76.385823 
L 365.027811 -77.302101 
L 364.224848 -78.21838 
L 363.238953 -79.134659 
L 362.053921 -80.050937 
L 360.654331 -80.967216 
L 359.026385 -81.883495 
L 357.15887 -82.799774 
L 355.044186 -83.716052 
L 352.679409 -84.632331 
L 350.067328 -85.54861 
L 347.217385 -86.464888 
L 344.146469 -87.381167 
L 340.879476 -88.297446 
L 337.44959 -89.213725 
L 333.898227 -90.130003 
L 330.274599 -91.046282 
L 326.63488 -91.962561 
L 323.040981 -92.878839 
L 319.558946 -93.795118 
L 316.257041 -94.711397 
L 313.203578 -95.627676 
L 310.464605 -96.543954 
L 308.101539 -97.460233 
L 306.168881 -98.376512 
L 304.712122 -99.29279 
L 303.765964 -100.209069 
L 303.352941 -101.125348 
L 303.482529 -102.041627 
L 304.150785 -102.957905 
L 305.340547 -103.874184 
L 307.022165 -104.790463 
L 309.154736 -105.706741 
L 311.687755 -106.62302 
L 314.563102 -107.539299 
L 317.717249 -108.455578 
L 321.083567 -109.371856 
L 324.59463 -110.288135 
L 328.184388 -111.204414 
L 331.790135 -112.120692 
L 335.354181 -113.036971 
L 338.825189 -113.95325 
L 342.159128 -114.869529 
L 345.319863 -115.785807 
L 348.27937 -116.702086 
L 351.017619 -117.618365 
L 353.522179 -118.534643 
L 355.787582 -119.450922 
L 357.814518 -120.367201 
L 359.608918 -121.28348 
L 361.180982 -122.199758 
L 362.544195 -123.116037 
L 363.714395 -124.032316 
L 364.708902 -124.948594 
L 365.54575 -125.864873 
L 366.243032 -126.781152 
L 366.818361 -127.697431 
L 371.181639 -127.697431 
L 371.181639 -127.697431 
L 371.756968 -126.781152 
L 372.45425 -125.864873 
L 373.291098 -124.948594 
L 374.285605 -124.032316 
L 375.455805 -123.116037 
L 376.819018 -122.199758 
L 378.391082 -121.28348 
L 380.185482 -120.367201 
L 382.212418 -119.450922 
L 384.477821 -118.534643 
L 386.982381 -117.618365 
L 389.72063 -116.702086 
L 392.680137 -115.785807 
L 395.840872 -114.869529 
L 399.174811 -113.95325 
L 402.645819 -113.036971 
L 406.209865 -112.120692 
L 409.815612 -111.204414 
L 413.40537 -110.288135 
L 416.916433 -109.371856 
L 420.282751 -108.455578 
L 423.436898 -107.539299 
L 426.312245 -106.62302 
L 428.845264 -105.706741 
L 430.977835 -104.790463 
L 432.659453 -103.874184 
L 433.849215 -102.957905 
L 434.517471 -102.041627 
L 434.647059 -101.125348 
L 434.234036 -100.209069 
L 433.287878 -99.29279 
L 431.831119 -98.376512 
L 429.898461 -97.460233 
L 427.535395 -96.543954 
L 424.796422 -95.627676 
L 421.742959 -94.711397 
L 418.441054 -93.795118 
L 414.959019 -92.878839 
L 411.36512 -91.962561 
L 407.725401 -91.046282 
L 404.101773 -90.130003 
L 400.55041 -89.213725 
L 397.120524 -88.297446 
L 393.853531 -87.381167 
L 390.782615 -86.464888 
L 387.932672 -85.54861 
L 385.320591 -84.632331 
L 382.955814 -83.716052 
L 380.84113 -82.799774 
L 378.973615 -81.883495 
L 377.345669 -80.967216 
L 375.946079 -80.050937 
L 374.761047 -79.134659 
L 373.775152 -78.21838 
L 372.972189 -77.302101 
L 372.335876 -76.385823 
L 371.8504 -75.469544 
L 371.500814 -74.553265 
L 371.273261 -73.636986 
L 371.155072 -72.720708 
L 371.134723 -71.804429 
L 371.2017 -70.88815 
L 371.346276 -69.971872 
L 371.55925 -69.055593 
L 371.831667 -68.139314 
L 372.154542 -67.223035 
L 372.518627 -66.306757 
L 372.914241 -65.390478 
L 373.331169 -64.474199 
L 373.758663 -63.557921 
L 374.185527 -62.641642 
L 374.600302 -61.725363 
L 374.99153 -60.809084 
L 375.348082 -59.892806 
L 375.659533 -58.976527 
L 375.916546 -58.060248 
L 376.11125 -57.14397 
L 376.237571 -56.227691 
L 376.291495 -55.311412 
L 376.271243 -54.395133 
L 376.177343 -53.478855 
L 376.012587 -52.562576 
L 375.781882 -51.646297 
L 375.491994 -50.730019 
L 375.151218 -49.81374 
L 374.768975 -48.897461 
L 374.355381 -47.981182 
L 373.920803 -47.064904 
L 373.475437 -46.148625 
L 373.028919 -45.232346 
L 372.590007 -44.316068 
L 372.166326 -43.399789 
L 371.764201 -42.48351 
L 371.388565 -41.567231 
L 371.042952 -40.650953 
L 370.729548 -39.734674 
L 370.449308 -38.818395 
L 370.202105 -37.902117 
L 369.98691 -36.985838 
z
" style="stroke: #646464; stroke-width: 1.5"/>
    </defs>
    <g clip-path="url(#paf5f61a3a8)">
     <use xlink:href="#m8dbf1a2a28" x="0" y="288" style="fill: #e98966; stroke: #646464; stroke-width: 1.5"/>
    </g>
   </g>
   <g id="matplotlib.axis_3">
    <g id="xtick_2">
     <g id="line2d_10">
      <g>
       <use xlink:href="#m0723d317c1" x="369" y="256.32" style="stroke: #000000; stroke-width: 0.8"/>
      </g>
     </g>
     <g id="text_10">
      <!-- 0 -->
      <g transform="translate(365.81875 270.918437) scale(0.1 -0.1)">
       <use xlink:href="#DejaVuSans-30"/>
      </g>
     </g>
    </g>
   </g>
   <g id="matplotlib.axis_4">
    <g id="ytick_7">
     <g id="line2d_11">
      <g>
       <use xlink:href="#m28c0ce30f8" x="286.941176" y="256.32" style="stroke: #000000; stroke-width: 0.8"/>
      </g>
     </g>
     <g id="text_11">
      <!-- 0.0 -->
      <g transform="translate(264.038051 260.119219) scale(0.1 -0.1)">
       <use xlink:href="#DejaVuSans-30"/>
       <use xlink:href="#DejaVuSans-2e" x="63.623047"/>
       <use xlink:href="#DejaVuSans-30" x="95.410156"/>
      </g>
     </g>
    </g>
    <g id="ytick_8">
     <g id="line2d_12">
      <g>
       <use xlink:href="#m28c0ce30f8" x="286.941176" y="211.968" style="stroke: #000000; stroke-width: 0.8"/>
      </g>
     </g>
     <g id="text_12">
      <!-- 0.2 -->
      <g transform="translate(264.038051 215.767219) scale(0.1 -0.1)">
       <use xlink:href="#DejaVuSans-30"/>
       <use xlink:href="#DejaVuSans-2e" x="63.623047"/>
       <use xlink:href="#DejaVuSans-32" x="95.410156"/>
      </g>
     </g>
    </g>
    <g id="ytick_9">
     <g id="line2d_13">
      <g>
       <use xlink:href="#m28c0ce30f8" x="286.941176" y="167.616" style="stroke: #000000; stroke-width: 0.8"/>
      </g>
     </g>
     <g id="text_13">
      <!-- 0.4 -->
      <g transform="translate(264.038051 171.415219) scale(0.1 -0.1)">
       <use xlink:href="#DejaVuSans-30"/>
       <use xlink:href="#DejaVuSans-2e" x="63.623047"/>
       <use xlink:href="#DejaVuSans-34" x="95.410156"/>
      </g>
     </g>
    </g>
    <g id="ytick_10">
     <g id="line2d_14">
      <g>
       <use xlink:href="#m28c0ce30f8" x="286.941176" y="123.264" style="stroke: #000000; stroke-width: 0.8"/>
      </g>
     </g>
     <g id="text_14">
      <!-- 0.6 -->
      <g transform="translate(264.038051 127.063219) scale(0.1 -0.1)">
       <use xlink:href="#DejaVuSans-30"/>
       <use xlink:href="#DejaVuSans-2e" x="63.623047"/>
       <use xlink:href="#DejaVuSans-36" x="95.410156"/>
      </g>
     </g>
    </g>
    <g id="ytick_11">
     <g id="line2d_15">
      <g>
       <use xlink:href="#m28c0ce30f8" x="286.941176" y="78.912" style="stroke: #000000; stroke-width: 0.8"/>
      </g>
     </g>
     <g id="text_15">
      <!-- 0.8 -->
      <g transform="translate(264.038051 82.711219) scale(0.1 -0.1)">
       <use xlink:href="#DejaVuSans-30"/>
       <use xlink:href="#DejaVuSans-2e" x="63.623047"/>
       <use xlink:href="#DejaVuSans-38" x="95.410156"/>
      </g>
     </g>
    </g>
    <g id="ytick_12">
     <g id="line2d_16">
      <g>
       <use xlink:href="#m28c0ce30f8" x="286.941176" y="34.56" style="stroke: #000000; stroke-width: 0.8"/>
      </g>
     </g>
     <g id="text_16">
      <!-- 1.0 -->
      <g transform="translate(264.038051 38.359219) scale(0.1 -0.1)">
       <use xlink:href="#DejaVuSans-31"/>
       <use xlink:href="#DejaVuSans-2e" x="63.623047"/>
       <use xlink:href="#DejaVuSans-30" x="95.410156"/>
      </g>
     </g>
    </g>
   </g>
   <g id="line2d_17">
    <path d="M 369 193.76527 
L 369 178.413554 
" clip-path="url(#paf5f61a3a8)" style="fill: none; stroke: #646464; stroke-width: 1.5; stroke-linecap: square"/>
   </g>
   <g id="line2d_18">
    <path d="M 369 190.221264 
L 369 185.253881 
" clip-path="url(#paf5f61a3a8)" style="fill: none; stroke: #646464; stroke-width: 4.5; stroke-linecap: square"/>
   </g>
   <g id="patch_8">
    <path d="M 286.941176 256.32 
L 286.941176 34.56 
" style="fill: none; stroke: #000000; stroke-width: 0.8; stroke-linejoin: miter; stroke-linecap: square"/>
   </g>
   <g id="patch_9">
    <path d="M 451.058824 256.32 
L 451.058824 34.56 
" style="fill: none; stroke: #000000; stroke-width: 0.8; stroke-linejoin: miter; stroke-linecap: square"/>
   </g>
   <g id="patch_10">
    <path d="M 286.941176 256.32 
L 451.058824 256.32 
" style="fill: none; stroke: #000000; stroke-width: 0.8; stroke-linejoin: miter; stroke-linecap: square"/>
   </g>
   <g id="patch_11">
    <path d="M 286.941176 34.56 
L 451.058824 34.56 
" style="fill: none; stroke: #000000; stroke-width: 0.8; stroke-linejoin: miter; stroke-linecap: square"/>
   </g>
   <g id="PathCollection_2">
    <defs>
     <path id="md53fe8774e" d="M 0 1.5 
C 0.397805 1.5 0.77937 1.341951 1.06066 1.06066 
C 1.341951 0.77937 1.5 0.397805 1.5 0 
C 1.5 -0.397805 1.341951 -0.77937 1.06066 -1.06066 
C 0.77937 -1.341951 0.397805 -1.5 0 -1.5 
C -0.397805 -1.5 -0.77937 -1.341951 -1.06066 -1.06066 
C -1.341951 -0.77937 -1.5 -0.397805 -1.5 0 
C -1.5 0.397805 -1.341951 0.77937 -1.06066 1.06066 
C -0.77937 1.341951 -0.397805 1.5 0 1.5 
z
" style="stroke: #646464"/>
    </defs>
    <g clip-path="url(#paf5f61a3a8)">
     <use xlink:href="#md53fe8774e" x="369" y="187.393033" style="fill: #ffffff; stroke: #646464"/>
    </g>
   </g>
   <g id="text_17">
    <!-- loss -->
    <g transform="translate(357.410625 28.56) scale(0.12 -0.12)">
     <defs>
      <path id="DejaVuSans-6c" d="M 603 4863 
L 1178 4863 
L 1178 0 
L 603 0 
L 603 4863 
z
" transform="scale(0.015625)"/>
      <path id="DejaVuSans-6f" d="M 1959 3097 
Q 1497 3097 1228 2736 
Q 959 2375 959 1747 
Q 959 1119 1226 758 
Q 1494 397 1959 397 
Q 2419 397 2687 759 
Q 2956 1122 2956 1747 
Q 2956 2369 2687 2733 
Q 2419 3097 1959 3097 
z
M 1959 3584 
Q 2709 3584 3137 3096 
Q 3566 2609 3566 1747 
Q 3566 888 3137 398 
Q 2709 -91 1959 -91 
Q 1206 -91 779 398 
Q 353 888 353 1747 
Q 353 2609 779 3096 
Q 1206 3584 1959 3584 
z
" transform="scale(0.015625)"/>
      <path id="DejaVuSans-73" d="M 2834 3397 
L 2834 2853 
Q 2591 2978 2328 3040 
Q 2066 3103 1784 3103 
Q 1356 3103 1142 2972 
Q 928 2841 928 2578 
Q 928 2378 1081 2264 
Q 1234 2150 1697 2047 
L 1894 2003 
Q 2506 1872 2764 1633 
Q 3022 1394 3022 966 
Q 3022 478 2636 193 
Q 2250 -91 1575 -91 
Q 1294 -91 989 -36 
Q 684 19 347 128 
L 347 722 
Q 666 556 975 473 
Q 1284 391 1588 391 
Q 1994 391 2212 530 
Q 2431 669 2431 922 
Q 2431 1156 2273 1281 
Q 2116 1406 1581 1522 
L 1381 1569 
Q 847 1681 609 1914 
Q 372 2147 372 2553 
Q 372 3047 722 3315 
Q 1072 3584 1716 3584 
Q 2034 3584 2315 3537 
Q 2597 3491 2834 3397 
z
" transform="scale(0.015625)"/>
     </defs>
     <use xlink:href="#DejaVuSans-6c"/>
     <use xlink:href="#DejaVuSans-6f" x="27.783203"/>
     <use xlink:href="#DejaVuSans-73" x="88.964844"/>
     <use xlink:href="#DejaVuSans-73" x="141.064453"/>
    </g>
   </g>
  </g>
  <g id="axes_3">
   <g id="patch_12">
    <path d="M 483.882353 256.32 
L 648 256.32 
L 648 34.56 
L 483.882353 34.56 
z
" style="fill: #ffffff"/>
   </g>
   <g id="PolyCollection_3">
    <defs>
     <path id="m21ddb09f83" d="M 568.156575 -59.150206 
L 563.725778 -59.150206 
L 563.138642 -60.827443 
L 562.426307 -62.50468 
L 561.570565 -64.181918 
L 560.552717 -65.859155 
L 559.354142 -67.536392 
L 557.956991 -69.213629 
L 556.345013 -70.890867 
L 554.504472 -72.568104 
L 552.425155 -74.245341 
L 550.101411 -75.922579 
L 547.533192 -77.599816 
L 544.727017 -79.277053 
L 541.696821 -80.954291 
L 538.464602 -82.631528 
L 535.06082 -84.308765 
L 531.524466 -85.986003 
L 527.902773 -87.66324 
L 524.250529 -89.340477 
L 520.628972 -91.017715 
L 517.10429 -92.694952 
L 513.745754 -94.372189 
L 510.623555 -96.049427 
L 507.806428 -97.726664 
L 505.359168 -99.403901 
L 503.340168 -101.081139 
L 501.799108 -102.758376 
L 500.774915 -104.435613 
L 500.294118 -106.11285 
L 500.369698 -107.790088 
L 501.000494 -109.467325 
L 502.171217 -111.144562 
L 503.853053 -112.8218 
L 506.004851 -114.499037 
L 508.574799 -116.176274 
L 511.502505 -117.853512 
L 514.72137 -119.530749 
L 518.161106 -121.207986 
L 521.75028 -122.885224 
L 525.418739 -124.562461 
L 529.099823 -126.239698 
L 532.732248 -127.916936 
L 536.261608 -129.594173 
L 539.641445 -131.27141 
L 542.833888 -132.948648 
L 545.809858 -134.625885 
L 548.548895 -136.303122 
L 551.038644 -137.98036 
L 553.27408 -139.657597 
L 555.25654 -141.334834 
L 556.992632 -143.012071 
L 558.493106 -144.689309 
L 559.771728 -146.366546 
L 560.844233 -148.043783 
L 561.727386 -149.721021 
L 562.438185 -151.398258 
L 562.993221 -153.075495 
L 563.408211 -154.752733 
L 563.697691 -156.42997 
L 563.874866 -158.107207 
L 563.951601 -159.784445 
L 563.938524 -161.461682 
L 563.845225 -163.138919 
L 563.680515 -164.816157 
L 563.452723 -166.493394 
L 563.169997 -168.170631 
L 562.840588 -169.847869 
L 562.473082 -171.525106 
L 562.076575 -173.202343 
L 561.660759 -174.879581 
L 561.23592 -176.556818 
L 560.812837 -178.234055 
L 560.402597 -179.911292 
L 560.01632 -181.58853 
L 559.664828 -183.265767 
L 559.358272 -184.943004 
L 559.105745 -186.620242 
L 558.914908 -188.297479 
L 558.791662 -189.974716 
L 558.739887 -191.651954 
L 558.761267 -193.329191 
L 558.855226 -195.006428 
L 559.018964 -196.683666 
L 559.24761 -198.360903 
L 559.534468 -200.03814 
L 559.87135 -201.715378 
L 560.248964 -203.392615 
L 560.657343 -205.069852 
L 561.086278 -206.74709 
L 561.525736 -208.424327 
L 561.966235 -210.101564 
L 562.399163 -211.778802 
L 562.817023 -213.456039 
L 563.213598 -215.133276 
L 563.584039 -216.810513 
L 563.924876 -218.487751 
L 564.233962 -220.164988 
L 564.510361 -221.842225 
L 564.7542 -223.519463 
L 564.966494 -225.1967 
L 566.915859 -225.1967 
L 566.915859 -225.1967 
L 567.128153 -223.519463 
L 567.371992 -221.842225 
L 567.648391 -220.164988 
L 567.957476 -218.487751 
L 568.298314 -216.810513 
L 568.668755 -215.133276 
L 569.06533 -213.456039 
L 569.48319 -211.778802 
L 569.916118 -210.101564 
L 570.356617 -208.424327 
L 570.796075 -206.74709 
L 571.22501 -205.069852 
L 571.633389 -203.392615 
L 572.011003 -201.715378 
L 572.347885 -200.03814 
L 572.634743 -198.360903 
L 572.863389 -196.683666 
L 573.027127 -195.006428 
L 573.121086 -193.329191 
L 573.142466 -191.651954 
L 573.090691 -189.974716 
L 572.967445 -188.297479 
L 572.776608 -186.620242 
L 572.524081 -184.943004 
L 572.217525 -183.265767 
L 571.866033 -181.58853 
L 571.479756 -179.911292 
L 571.069516 -178.234055 
L 570.646433 -176.556818 
L 570.221594 -174.879581 
L 569.805778 -173.202343 
L 569.409271 -171.525106 
L 569.041765 -169.847869 
L 568.712356 -168.170631 
L 568.42963 -166.493394 
L 568.201838 -164.816157 
L 568.037128 -163.138919 
L 567.943829 -161.461682 
L 567.930752 -159.784445 
L 568.007487 -158.107207 
L 568.184662 -156.42997 
L 568.474142 -154.752733 
L 568.889132 -153.075495 
L 569.444168 -151.398258 
L 570.154967 -149.721021 
L 571.03812 -148.043783 
L 572.110625 -146.366546 
L 573.389247 -144.689309 
L 574.889721 -143.012071 
L 576.625813 -141.334834 
L 578.608273 -139.657597 
L 580.843709 -137.98036 
L 583.333458 -136.303122 
L 586.072495 -134.625885 
L 589.048465 -132.948648 
L 592.240908 -131.27141 
L 595.620745 -129.594173 
L 599.150104 -127.916936 
L 602.78253 -126.239698 
L 606.463614 -124.562461 
L 610.132073 -122.885224 
L 613.721246 -121.207986 
L 617.160983 -119.530749 
L 620.379848 -117.853512 
L 623.307554 -116.176274 
L 625.877502 -114.499037 
L 628.0293 -112.8218 
L 629.711136 -111.144562 
L 630.881859 -109.467325 
L 631.512655 -107.790088 
L 631.588235 -106.11285 
L 631.107438 -104.435613 
L 630.083245 -102.758376 
L 628.542185 -101.081139 
L 626.523185 -99.403901 
L 624.075925 -97.726664 
L 621.258798 -96.049427 
L 618.136599 -94.372189 
L 614.778063 -92.694952 
L 611.253381 -91.017715 
L 607.631824 -89.340477 
L 603.97958 -87.66324 
L 600.357887 -85.986003 
L 596.821533 -84.308765 
L 593.417751 -82.631528 
L 590.185532 -80.954291 
L 587.155336 -79.277053 
L 584.349161 -77.599816 
L 581.780941 -75.922579 
L 579.457198 -74.245341 
L 577.377881 -72.568104 
L 575.53734 -70.890867 
L 573.925362 -69.213629 
L 572.528211 -67.536392 
L 571.329636 -65.859155 
L 570.311788 -64.181918 
L 569.456046 -62.50468 
L 568.743711 -60.827443 
L 568.156575 -59.150206 
z
" style="stroke: #3f3f3f; stroke-width: 1.5"/>
    </defs>
    <g clip-path="url(#p8be361bf8d)">
     <use xlink:href="#m21ddb09f83" x="0" y="288" style="fill: #3274a1; stroke: #3f3f3f; stroke-width: 1.5"/>
    </g>
   </g>
   <g id="matplotlib.axis_5">
    <g id="xtick_3">
     <g id="line2d_19">
      <g>
       <use xlink:href="#m0723d317c1" x="565.941176" y="256.32" style="stroke: #000000; stroke-width: 0.8"/>
      </g>
     </g>
     <g id="text_18">
      <!-- 0 -->
      <g transform="translate(562.759926 270.918437) scale(0.1 -0.1)">
       <use xlink:href="#DejaVuSans-30"/>
      </g>
     </g>
    </g>
   </g>
   <g id="matplotlib.axis_6">
    <g id="ytick_13">
     <g id="line2d_20">
      <g>
       <use xlink:href="#m28c0ce30f8" x="483.882353" y="256.32" style="stroke: #000000; stroke-width: 0.8"/>
      </g>
     </g>
     <g id="text_19">
      <!-- 0.0 -->
      <g transform="translate(460.979228 260.119219) scale(0.1 -0.1)">
       <use xlink:href="#DejaVuSans-30"/>
       <use xlink:href="#DejaVuSans-2e" x="63.623047"/>
       <use xlink:href="#DejaVuSans-30" x="95.410156"/>
      </g>
     </g>
    </g>
    <g id="ytick_14">
     <g id="line2d_21">
      <g>
       <use xlink:href="#m28c0ce30f8" x="483.882353" y="211.968" style="stroke: #000000; stroke-width: 0.8"/>
      </g>
     </g>
     <g id="text_20">
      <!-- 0.2 -->
      <g transform="translate(460.979228 215.767219) scale(0.1 -0.1)">
       <use xlink:href="#DejaVuSans-30"/>
       <use xlink:href="#DejaVuSans-2e" x="63.623047"/>
       <use xlink:href="#DejaVuSans-32" x="95.410156"/>
      </g>
     </g>
    </g>
    <g id="ytick_15">
     <g id="line2d_22">
      <g>
       <use xlink:href="#m28c0ce30f8" x="483.882353" y="167.616" style="stroke: #000000; stroke-width: 0.8"/>
      </g>
     </g>
     <g id="text_21">
      <!-- 0.4 -->
      <g transform="translate(460.979228 171.415219) scale(0.1 -0.1)">
       <use xlink:href="#DejaVuSans-30"/>
       <use xlink:href="#DejaVuSans-2e" x="63.623047"/>
       <use xlink:href="#DejaVuSans-34" x="95.410156"/>
      </g>
     </g>
    </g>
    <g id="ytick_16">
     <g id="line2d_23">
      <g>
       <use xlink:href="#m28c0ce30f8" x="483.882353" y="123.264" style="stroke: #000000; stroke-width: 0.8"/>
      </g>
     </g>
     <g id="text_22">
      <!-- 0.6 -->
      <g transform="translate(460.979228 127.063219) scale(0.1 -0.1)">
       <use xlink:href="#DejaVuSans-30"/>
       <use xlink:href="#DejaVuSans-2e" x="63.623047"/>
       <use xlink:href="#DejaVuSans-36" x="95.410156"/>
      </g>
     </g>
    </g>
    <g id="ytick_17">
     <g id="line2d_24">
      <g>
       <use xlink:href="#m28c0ce30f8" x="483.882353" y="78.912" style="stroke: #000000; stroke-width: 0.8"/>
      </g>
     </g>
     <g id="text_23">
      <!-- 0.8 -->
      <g transform="translate(460.979228 82.711219) scale(0.1 -0.1)">
       <use xlink:href="#DejaVuSans-30"/>
       <use xlink:href="#DejaVuSans-2e" x="63.623047"/>
       <use xlink:href="#DejaVuSans-38" x="95.410156"/>
      </g>
     </g>
    </g>
    <g id="ytick_18">
     <g id="line2d_25">
      <g>
       <use xlink:href="#m28c0ce30f8" x="483.882353" y="34.56" style="stroke: #000000; stroke-width: 0.8"/>
      </g>
     </g>
     <g id="text_24">
      <!-- 1.0 -->
      <g transform="translate(460.979228 38.359219) scale(0.1 -0.1)">
       <use xlink:href="#DejaVuSans-31"/>
       <use xlink:href="#DejaVuSans-2e" x="63.623047"/>
       <use xlink:href="#DejaVuSans-30" x="95.410156"/>
      </g>
     </g>
    </g>
   </g>
   <g id="line2d_26">
    <path d="M 565.941176 190.038323 
L 565.941176 167.276871 
" clip-path="url(#p8be361bf8d)" style="fill: none; stroke: #3f3f3f; stroke-width: 1.5; stroke-linecap: square"/>
   </g>
   <g id="line2d_27">
    <path d="M 565.941176 183.926039 
L 565.941176 176.490278 
" clip-path="url(#p8be361bf8d)" style="fill: none; stroke: #3f3f3f; stroke-width: 4.5; stroke-linecap: square"/>
   </g>
   <g id="patch_13">
    <path d="M 483.882353 256.32 
L 483.882353 34.56 
" style="fill: none; stroke: #000000; stroke-width: 0.8; stroke-linejoin: miter; stroke-linecap: square"/>
   </g>
   <g id="patch_14">
    <path d="M 648 256.32 
L 648 34.56 
" style="fill: none; stroke: #000000; stroke-width: 0.8; stroke-linejoin: miter; stroke-linecap: square"/>
   </g>
   <g id="patch_15">
    <path d="M 483.882353 256.32 
L 648 256.32 
" style="fill: none; stroke: #000000; stroke-width: 0.8; stroke-linejoin: miter; stroke-linecap: square"/>
   </g>
   <g id="patch_16">
    <path d="M 483.882353 34.56 
L 648 34.56 
" style="fill: none; stroke: #000000; stroke-width: 0.8; stroke-linejoin: miter; stroke-linecap: square"/>
   </g>
   <g id="PathCollection_3">
    <defs>
     <path id="mac53d537ee" d="M 0 1.5 
C 0.397805 1.5 0.77937 1.341951 1.06066 1.06066 
C 1.341951 0.77937 1.5 0.397805 1.5 0 
C 1.5 -0.397805 1.341951 -0.77937 1.06066 -1.06066 
C 0.77937 -1.341951 0.397805 -1.5 0 -1.5 
C -0.397805 -1.5 -0.77937 -1.341951 -1.06066 -1.06066 
C -1.341951 -0.77937 -1.5 -0.397805 -1.5 0 
C -1.5 0.397805 -1.341951 0.77937 -1.06066 1.06066 
C -0.77937 1.341951 -0.397805 1.5 0 1.5 
z
" style="stroke: #3f3f3f"/>
    </defs>
    <g clip-path="url(#p8be361bf8d)">
     <use xlink:href="#mac53d537ee" x="565.941176" y="181.212479" style="fill: #ffffff; stroke: #3f3f3f"/>
    </g>
   </g>
   <g id="text_25">
    <!-- keep budget -->
    <g transform="translate(528.310864 28.56) scale(0.12 -0.12)">
     <defs>
      <path id="DejaVuSans-6b" d="M 581 4863 
L 1159 4863 
L 1159 1991 
L 2875 3500 
L 3609 3500 
L 1753 1863 
L 3688 0 
L 2938 0 
L 1159 1709 
L 1159 0 
L 581 0 
L 581 4863 
z
" transform="scale(0.015625)"/>
      <path id="DejaVuSans-65" d="M 3597 1894 
L 3597 1613 
L 953 1613 
Q 991 1019 1311 708 
Q 1631 397 2203 397 
Q 2534 397 2845 478 
Q 3156 559 3463 722 
L 3463 178 
Q 3153 47 2828 -22 
Q 2503 -91 2169 -91 
Q 1331 -91 842 396 
Q 353 884 353 1716 
Q 353 2575 817 3079 
Q 1281 3584 2069 3584 
Q 2775 3584 3186 3129 
Q 3597 2675 3597 1894 
z
M 3022 2063 
Q 3016 2534 2758 2815 
Q 2500 3097 2075 3097 
Q 1594 3097 1305 2825 
Q 1016 2553 972 2059 
L 3022 2063 
z
" transform="scale(0.015625)"/>
      <path id="DejaVuSans-70" d="M 1159 525 
L 1159 -1331 
L 581 -1331 
L 581 3500 
L 1159 3500 
L 1159 2969 
Q 1341 3281 1617 3432 
Q 1894 3584 2278 3584 
Q 2916 3584 3314 3078 
Q 3713 2572 3713 1747 
Q 3713 922 3314 415 
Q 2916 -91 2278 -91 
Q 1894 -91 1617 61 
Q 1341 213 1159 525 
z
M 3116 1747 
Q 3116 2381 2855 2742 
Q 2594 3103 2138 3103 
Q 1681 3103 1420 2742 
Q 1159 2381 1159 1747 
Q 1159 1113 1420 752 
Q 1681 391 2138 391 
Q 2594 391 2855 752 
Q 3116 1113 3116 1747 
z
" transform="scale(0.015625)"/>
      <path id="DejaVuSans-20" transform="scale(0.015625)"/>
      <path id="DejaVuSans-62" d="M 3116 1747 
Q 3116 2381 2855 2742 
Q 2594 3103 2138 3103 
Q 1681 3103 1420 2742 
Q 1159 2381 1159 1747 
Q 1159 1113 1420 752 
Q 1681 391 2138 391 
Q 2594 391 2855 752 
Q 3116 1113 3116 1747 
z
M 1159 2969 
Q 1341 3281 1617 3432 
Q 1894 3584 2278 3584 
Q 2916 3584 3314 3078 
Q 3713 2572 3713 1747 
Q 3713 922 3314 415 
Q 2916 -91 2278 -91 
Q 1894 -91 1617 61 
Q 1341 213 1159 525 
L 1159 0 
L 581 0 
L 581 4863 
L 1159 4863 
L 1159 2969 
z
" transform="scale(0.015625)"/>
      <path id="DejaVuSans-75" d="M 544 1381 
L 544 3500 
L 1119 3500 
L 1119 1403 
Q 1119 906 1312 657 
Q 1506 409 1894 409 
Q 2359 409 2629 706 
Q 2900 1003 2900 1516 
L 2900 3500 
L 3475 3500 
L 3475 0 
L 2900 0 
L 2900 538 
Q 2691 219 2414 64 
Q 2138 -91 1772 -91 
Q 1169 -91 856 284 
Q 544 659 544 1381 
z
M 1991 3584 
L 1991 3584 
z
" transform="scale(0.015625)"/>
      <path id="DejaVuSans-64" d="M 2906 2969 
L 2906 4863 
L 3481 4863 
L 3481 0 
L 2906 0 
L 2906 525 
Q 2725 213 2448 61 
Q 2172 -91 1784 -91 
Q 1150 -91 751 415 
Q 353 922 353 1747 
Q 353 2572 751 3078 
Q 1150 3584 1784 3584 
Q 2172 3584 2448 3432 
Q 2725 3281 2906 2969 
z
M 947 1747 
Q 947 1113 1208 752 
Q 1469 391 1925 391 
Q 2381 391 2643 752 
Q 2906 1113 2906 1747 
Q 2906 2381 2643 2742 
Q 2381 3103 1925 3103 
Q 1469 3103 1208 2742 
Q 947 2381 947 1747 
z
" transform="scale(0.015625)"/>
      <path id="DejaVuSans-67" d="M 2906 1791 
Q 2906 2416 2648 2759 
Q 2391 3103 1925 3103 
Q 1463 3103 1205 2759 
Q 947 2416 947 1791 
Q 947 1169 1205 825 
Q 1463 481 1925 481 
Q 2391 481 2648 825 
Q 2906 1169 2906 1791 
z
M 3481 434 
Q 3481 -459 3084 -895 
Q 2688 -1331 1869 -1331 
Q 1566 -1331 1297 -1286 
Q 1028 -1241 775 -1147 
L 775 -588 
Q 1028 -725 1275 -790 
Q 1522 -856 1778 -856 
Q 2344 -856 2625 -561 
Q 2906 -266 2906 331 
L 2906 616 
Q 2728 306 2450 153 
Q 2172 0 1784 0 
Q 1141 0 747 490 
Q 353 981 353 1791 
Q 353 2603 747 3093 
Q 1141 3584 1784 3584 
Q 2172 3584 2450 3431 
Q 2728 3278 2906 2969 
L 2906 3500 
L 3481 3500 
L 3481 434 
z
" transform="scale(0.015625)"/>
      <path id="DejaVuSans-74" d="M 1172 4494 
L 1172 3500 
L 2356 3500 
L 2356 3053 
L 1172 3053 
L 1172 1153 
Q 1172 725 1289 603 
Q 1406 481 1766 481 
L 2356 481 
L 2356 0 
L 1766 0 
Q 1100 0 847 248 
Q 594 497 594 1153 
L 594 3053 
L 172 3053 
L 172 3500 
L 594 3500 
L 594 4494 
L 1172 4494 
z
" transform="scale(0.015625)"/>
     </defs>
     <use xlink:href="#DejaVuSans-6b"/>
     <use xlink:href="#DejaVuSans-65" x="54.285156"/>
     <use xlink:href="#DejaVuSans-65" x="115.808594"/>
     <use xlink:href="#DejaVuSans-70" x="177.332031"/>
     <use xlink:href="#DejaVuSans-20" x="240.808594"/>
     <use xlink:href="#DejaVuSans-62" x="272.595703"/>
     <use xlink:href="#DejaVuSans-75" x="336.072266"/>
     <use xlink:href="#DejaVuSans-64" x="399.451172"/>
     <use xlink:href="#DejaVuSans-67" x="462.927734"/>
     <use xlink:href="#DejaVuSans-65" x="526.404297"/>
     <use xlink:href="#DejaVuSans-74" x="587.927734"/>
    </g>
   </g>
  </g>
  <g id="text_26">
   <!-- $C$: high BDI score -->
   <g transform="translate(308.22 14.88) scale(0.12 -0.12)">
    <defs>
     <path id="DejaVuSans-Oblique-43" d="M 4447 4306 
L 4319 3641 
Q 4019 3944 3683 4091 
Q 3347 4238 2956 4238 
Q 2422 4238 2017 3981 
Q 1613 3725 1319 3200 
Q 1131 2863 1032 2486 
Q 934 2109 934 1728 
Q 934 1091 1264 756 
Q 1594 422 2222 422 
Q 2656 422 3056 561 
Q 3456 700 3834 978 
L 3688 231 
Q 3316 72 2936 -9 
Q 2556 -91 2175 -91 
Q 1278 -91 773 396 
Q 269 884 269 1753 
Q 269 2309 461 2846 
Q 653 3384 1013 3828 
Q 1394 4300 1883 4525 
Q 2372 4750 3022 4750 
Q 3422 4750 3780 4639 
Q 4138 4528 4447 4306 
z
" transform="scale(0.015625)"/>
     <path id="DejaVuSans-3a" d="M 750 794 
L 1409 794 
L 1409 0 
L 750 0 
L 750 794 
z
M 750 3309 
L 1409 3309 
L 1409 2516 
L 750 2516 
L 750 3309 
z
" transform="scale(0.015625)"/>
     <path id="DejaVuSans-68" d="M 3513 2113 
L 3513 0 
L 2938 0 
L 2938 2094 
Q 2938 2591 2744 2837 
Q 2550 3084 2163 3084 
Q 1697 3084 1428 2787 
Q 1159 2491 1159 1978 
L 1159 0 
L 581 0 
L 581 4863 
L 1159 4863 
L 1159 2956 
Q 1366 3272 1645 3428 
Q 1925 3584 2291 3584 
Q 2894 3584 3203 3211 
Q 3513 2838 3513 2113 
z
" transform="scale(0.015625)"/>
     <path id="DejaVuSans-42" d="M 1259 2228 
L 1259 519 
L 2272 519 
Q 2781 519 3026 730 
Q 3272 941 3272 1375 
Q 3272 1813 3026 2020 
Q 2781 2228 2272 2228 
L 1259 2228 
z
M 1259 4147 
L 1259 2741 
L 2194 2741 
Q 2656 2741 2882 2914 
Q 3109 3088 3109 3444 
Q 3109 3797 2882 3972 
Q 2656 4147 2194 4147 
L 1259 4147 
z
M 628 4666 
L 2241 4666 
Q 2963 4666 3353 4366 
Q 3744 4066 3744 3513 
Q 3744 3084 3544 2831 
Q 3344 2578 2956 2516 
Q 3422 2416 3680 2098 
Q 3938 1781 3938 1306 
Q 3938 681 3513 340 
Q 3088 0 2303 0 
L 628 0 
L 628 4666 
z
" transform="scale(0.015625)"/>
     <path id="DejaVuSans-44" d="M 1259 4147 
L 1259 519 
L 2022 519 
Q 2988 519 3436 956 
Q 3884 1394 3884 2338 
Q 3884 3275 3436 3711 
Q 2988 4147 2022 4147 
L 1259 4147 
z
M 628 4666 
L 1925 4666 
Q 3281 4666 3915 4102 
Q 4550 3538 4550 2338 
Q 4550 1131 3912 565 
Q 3275 0 1925 0 
L 628 0 
L 628 4666 
z
" transform="scale(0.015625)"/>
     <path id="DejaVuSans-49" d="M 628 4666 
L 1259 4666 
L 1259 0 
L 628 0 
L 628 4666 
z
" transform="scale(0.015625)"/>
     <path id="DejaVuSans-63" d="M 3122 3366 
L 3122 2828 
Q 2878 2963 2633 3030 
Q 2388 3097 2138 3097 
Q 1578 3097 1268 2742 
Q 959 2388 959 1747 
Q 959 1106 1268 751 
Q 1578 397 2138 397 
Q 2388 397 2633 464 
Q 2878 531 3122 666 
L 3122 134 
Q 2881 22 2623 -34 
Q 2366 -91 2075 -91 
Q 1284 -91 818 406 
Q 353 903 353 1747 
Q 353 2603 823 3093 
Q 1294 3584 2113 3584 
Q 2378 3584 2631 3529 
Q 2884 3475 3122 3366 
z
" transform="scale(0.015625)"/>
     <path id="DejaVuSans-72" d="M 2631 2963 
Q 2534 3019 2420 3045 
Q 2306 3072 2169 3072 
Q 1681 3072 1420 2755 
Q 1159 2438 1159 1844 
L 1159 0 
L 581 0 
L 581 3500 
L 1159 3500 
L 1159 2956 
Q 1341 3275 1631 3429 
Q 1922 3584 2338 3584 
Q 2397 3584 2469 3576 
Q 2541 3569 2628 3553 
L 2631 2963 
z
" transform="scale(0.015625)"/>
    </defs>
    <use xlink:href="#DejaVuSans-Oblique-43" transform="translate(0 0.015625)"/>
    <use xlink:href="#DejaVuSans-3a" transform="translate(69.824219 0.015625)"/>
    <use xlink:href="#DejaVuSans-20" transform="translate(103.515625 0.015625)"/>
    <use xlink:href="#DejaVuSans-68" transform="translate(135.302734 0.015625)"/>
    <use xlink:href="#DejaVuSans-69" transform="translate(198.681641 0.015625)"/>
    <use xlink:href="#DejaVuSans-67" transform="translate(226.464844 0.015625)"/>
    <use xlink:href="#DejaVuSans-68" transform="translate(289.941406 0.015625)"/>
    <use xlink:href="#DejaVuSans-20" transform="translate(353.320312 0.015625)"/>
    <use xlink:href="#DejaVuSans-42" transform="translate(385.107422 0.015625)"/>
    <use xlink:href="#DejaVuSans-44" transform="translate(453.710938 0.015625)"/>
    <use xlink:href="#DejaVuSans-49" transform="translate(530.712891 0.015625)"/>
    <use xlink:href="#DejaVuSans-20" transform="translate(560.205078 0.015625)"/>
    <use xlink:href="#DejaVuSans-73" transform="translate(591.992188 0.015625)"/>
    <use xlink:href="#DejaVuSans-63" transform="translate(644.091797 0.015625)"/>
    <use xlink:href="#DejaVuSans-6f" transform="translate(699.072266 0.015625)"/>
    <use xlink:href="#DejaVuSans-72" transform="translate(760.253906 0.015625)"/>
    <use xlink:href="#DejaVuSans-65" transform="translate(801.367188 0.015625)"/>
   </g>
  </g>
 </g>
 <defs>
  <clipPath id="p6518e00cd8">
   <rect x="90" y="34.56" width="164.117647" height="221.76"/>
  </clipPath>
  <clipPath id="paf5f61a3a8">
   <rect x="286.941176" y="34.56" width="164.117647" height="221.76"/>
  </clipPath>
  <clipPath id="p8be361bf8d">
   <rect x="483.882353" y="34.56" width="164.117647" height="221.76"/>
  </clipPath>
 </defs>
</svg>
