<?xml version="1.0" encoding="utf-8" standalone="no"?>
<!DOCTYPE svg PUBLIC "-//W3C//DTD SVG 1.1//EN"
  "http://www.w3.org/Graphics/SVG/1.1/DTD/svg11.dtd">
<svg height="542.16pt" version="1.1" viewBox="0 0 1105.92 542.16" width="1105.92pt" xmlns="http://www.w3.org/2000/svg" xmlns:xlink="http://www.w3.org/1999/xlink">
 <metadata>
  <rdf:RDF xmlns:cc="http://creativecommons.org/ns#" xmlns:dc="http://purl.org/dc/elements/1.1/" xmlns:rdf="http://www.w3.org/1999/02/22-rdf-syntax-ns#">
   <cc:Work>
    <dc:type rdf:resource="http://purl.org/dc/dcmitype/StillImage"/>
    <dc:date>2023-10-20T11:43:06.461378</dc:date>
    <dc:format>image/svg+xml</dc:format>
    <dc:creator>
     <cc:Agent>
      <dc:title>Matplotlib v3.4.3, https://matplotlib.org/</dc:title>
     </cc:Agent>
    </dc:creator>
   </cc:Work>
  </rdf:RDF>
 </metadata>
 <defs>
  <style type="text/css">*{stroke-linecap:butt;stroke-linejoin:round;}</style>
 </defs>
 <g id="figure_1">
  <g id="patch_1">
   <path d="M 0 542.16 
L 1105.92 542.16 
L 1105.92 0 
L 0 0 
z
" style="fill:#ffffff;"/>
  </g>
  <g id="axes_1">
   <g id="patch_2">
    <path d="M 138.24 482.5224 
L 995.328 482.5224 
L 995.328 65.0592 
L 138.24 65.0592 
z
" style="fill:#ffffff;"/>
   </g>
   <g id="PolyCollection_1">
    <defs>
     <path d="M 185.964022 -239.680855 
L 185.747978 -239.680855 
L 185.723529 -241.49178 
L 185.694876 -243.302705 
L 185.66162 -245.11363 
L 185.6234 -246.924555 
L 185.579905 -248.73548 
L 185.530901 -250.546405 
L 185.476247 -252.35733 
L 185.415915 -254.168255 
L 185.350007 -255.97918 
L 185.278773 -257.790104 
L 185.202617 -259.601029 
L 185.122106 -261.411954 
L 185.037969 -263.222879 
L 184.951089 -265.033804 
L 184.862486 -266.844729 
L 184.773299 -268.655654 
L 184.684752 -270.466579 
L 184.598122 -272.277504 
L 184.514692 -274.088429 
L 184.435715 -275.899354 
L 184.362357 -277.710279 
L 184.295657 -279.521204 
L 184.236481 -281.332129 
L 184.18548 -283.143054 
L 184.143065 -284.953979 
L 184.109374 -286.764903 
L 184.084267 -288.575828 
L 184.06732 -290.386753 
L 184.057839 -292.197678 
L 184.054879 -294.008603 
L 184.057279 -295.819528 
L 184.063701 -297.630453 
L 184.072686 -299.441378 
L 184.082702 -301.252303 
L 184.092202 -303.063228 
L 184.099684 -304.874153 
L 184.10374 -306.685078 
L 184.103108 -308.496003 
L 184.096709 -310.306928 
L 184.083685 -312.117853 
L 184.063416 -313.928778 
L 184.03554 -315.739702 
L 183.999952 -317.550627 
L 183.956804 -319.361552 
L 183.906493 -321.172477 
L 183.849639 -322.983402 
L 183.787065 -324.794327 
L 183.719772 -326.605252 
L 183.648902 -328.416177 
L 183.575712 -330.227102 
L 183.501539 -332.038027 
L 183.427768 -333.848952 
L 183.355797 -335.659877 
L 183.287007 -337.470802 
L 183.22273 -339.281727 
L 183.164224 -341.092652 
L 183.112642 -342.903577 
L 183.069015 -344.714501 
L 183.034231 -346.525426 
L 183.009022 -348.336351 
L 182.993955 -350.147276 
L 182.989429 -351.958201 
L 182.995678 -353.769126 
L 183.012774 -355.580051 
L 183.040638 -357.390976 
L 183.079054 -359.201901 
L 183.127684 -361.012826 
L 183.186079 -362.823751 
L 183.253701 -364.634676 
L 183.329928 -366.445601 
L 183.414076 -368.256526 
L 183.5054 -370.067451 
L 183.603107 -371.878375 
L 183.706358 -373.6893 
L 183.814279 -375.500225 
L 183.925959 -377.31115 
L 184.040461 -379.122075 
L 184.156826 -380.933 
L 184.274083 -382.743925 
L 184.391259 -384.55485 
L 184.507394 -386.365775 
L 184.621555 -388.1767 
L 184.732853 -389.987625 
L 184.840461 -391.79855 
L 184.943631 -393.609475 
L 185.041708 -395.4204 
L 185.134144 -397.231325 
L 185.220509 -399.04225 
L 185.300492 -400.853174 
L 185.37391 -402.664099 
L 185.440697 -404.475024 
L 185.500906 -406.285949 
L 185.554689 -408.096874 
L 185.602295 -409.907799 
L 185.644045 -411.718724 
L 185.680321 -413.529649 
L 185.71155 -415.340574 
L 185.738184 -417.151499 
L 185.760687 -418.962424 
L 185.951313 -418.962424 
L 185.951313 -418.962424 
L 185.973816 -417.151499 
L 186.00045 -415.340574 
L 186.031679 -413.529649 
L 186.067955 -411.718724 
L 186.109705 -409.907799 
L 186.157311 -408.096874 
L 186.211094 -406.285949 
L 186.271303 -404.475024 
L 186.33809 -402.664099 
L 186.411508 -400.853174 
L 186.491491 -399.04225 
L 186.577856 -397.231325 
L 186.670292 -395.4204 
L 186.768369 -393.609475 
L 186.871539 -391.79855 
L 186.979147 -389.987625 
L 187.090445 -388.1767 
L 187.204606 -386.365775 
L 187.320741 -384.55485 
L 187.437917 -382.743925 
L 187.555174 -380.933 
L 187.671539 -379.122075 
L 187.786041 -377.31115 
L 187.897721 -375.500225 
L 188.005642 -373.6893 
L 188.108893 -371.878375 
L 188.2066 -370.067451 
L 188.297924 -368.256526 
L 188.382072 -366.445601 
L 188.458299 -364.634676 
L 188.525921 -362.823751 
L 188.584316 -361.012826 
L 188.632946 -359.201901 
L 188.671362 -357.390976 
L 188.699226 -355.580051 
L 188.716322 -353.769126 
L 188.722571 -351.958201 
L 188.718045 -350.147276 
L 188.702978 -348.336351 
L 188.677769 -346.525426 
L 188.642985 -344.714501 
L 188.599358 -342.903577 
L 188.547776 -341.092652 
L 188.48927 -339.281727 
L 188.424993 -337.470802 
L 188.356203 -335.659877 
L 188.284232 -333.848952 
L 188.210461 -332.038027 
L 188.136288 -330.227102 
L 188.063098 -328.416177 
L 187.992228 -326.605252 
L 187.924935 -324.794327 
L 187.862361 -322.983402 
L 187.805507 -321.172477 
L 187.755196 -319.361552 
L 187.712048 -317.550627 
L 187.67646 -315.739702 
L 187.648584 -313.928778 
L 187.628315 -312.117853 
L 187.615291 -310.306928 
L 187.608892 -308.496003 
L 187.60826 -306.685078 
L 187.612316 -304.874153 
L 187.619798 -303.063228 
L 187.629298 -301.252303 
L 187.639314 -299.441378 
L 187.648299 -297.630453 
L 187.654721 -295.819528 
L 187.657121 -294.008603 
L 187.654161 -292.197678 
L 187.64468 -290.386753 
L 187.627733 -288.575828 
L 187.602626 -286.764903 
L 187.568935 -284.953979 
L 187.52652 -283.143054 
L 187.475519 -281.332129 
L 187.416343 -279.521204 
L 187.349643 -277.710279 
L 187.276285 -275.899354 
L 187.197308 -274.088429 
L 187.113878 -272.277504 
L 187.027248 -270.466579 
L 186.938701 -268.655654 
L 186.849514 -266.844729 
L 186.760911 -265.033804 
L 186.674031 -263.222879 
L 186.589894 -261.411954 
L 186.509383 -259.601029 
L 186.433227 -257.790104 
L 186.361993 -255.97918 
L 186.296085 -254.168255 
L 186.235753 -252.35733 
L 186.181099 -250.546405 
L 186.132095 -248.73548 
L 186.0886 -246.924555 
L 186.05038 -245.11363 
L 186.017124 -243.302705 
L 185.988471 -241.49178 
L 185.964022 -239.680855 
z
" id="m1dc513c81e" style="stroke:#484848;stroke-width:1.5;"/>
    </defs>
    <g clip-path="url(#pa31593be79)">
     <use style="fill:#c1505d;stroke:#484848;stroke-width:1.5;" x="0" xlink:href="#m1dc513c81e" y="542.16"/>
    </g>
   </g>
   <g id="PolyCollection_2">
    <defs>
     <path d="M 281.202301 -78.6132 
L 280.973699 -78.6132 
L 280.947146 -82.222792 
L 280.915853 -85.832384 
L 280.879335 -89.441976 
L 280.83714 -93.051568 
L 280.788876 -96.66116 
L 280.734232 -100.270752 
L 280.673003 -103.880344 
L 280.605119 -107.489936 
L 280.530665 -111.099528 
L 280.449902 -114.70912 
L 280.363289 -118.318712 
L 280.271484 -121.928304 
L 280.175355 -125.537896 
L 280.075969 -129.147488 
L 279.974582 -132.75708 
L 279.872613 -136.366672 
L 279.771615 -139.976264 
L 279.673231 -143.585856 
L 279.579151 -147.195448 
L 279.491058 -150.80504 
L 279.41058 -154.414632 
L 279.339232 -158.024224 
L 279.278366 -161.633816 
L 279.229129 -165.243408 
L 279.192422 -168.853 
L 279.168872 -172.462592 
L 279.158811 -176.072184 
L 279.162274 -179.681776 
L 279.178995 -183.291368 
L 279.208428 -186.90096 
L 279.249766 -190.510552 
L 279.301974 -194.120144 
L 279.363828 -197.729736 
L 279.433955 -201.339328 
L 279.510877 -204.94892 
L 279.593054 -208.558512 
L 279.67893 -212.168104 
L 279.766967 -215.777696 
L 279.855681 -219.387288 
L 279.943671 -222.99688 
L 280.029645 -226.606472 
L 280.112436 -230.216064 
L 280.191014 -233.825656 
L 280.264497 -237.435248 
L 280.332156 -241.044839 
L 280.393412 -244.654431 
L 280.447837 -248.264023 
L 280.495149 -251.873615 
L 280.535209 -255.483207 
L 280.568009 -259.092799 
L 280.593668 -262.702391 
L 280.612422 -266.311983 
L 280.624616 -269.921575 
L 280.630693 -273.531167 
L 280.631182 -277.140759 
L 280.626689 -280.750351 
L 280.617883 -284.359943 
L 280.605484 -287.969535 
L 280.59025 -291.579127 
L 280.572956 -295.188719 
L 280.554389 -298.798311 
L 280.535326 -302.407903 
L 280.516518 -306.017495 
L 280.498682 -309.627087 
L 280.482478 -313.236679 
L 280.468505 -316.846271 
L 280.457283 -320.455863 
L 280.449247 -324.065455 
L 280.444738 -327.675047 
L 280.444002 -331.284639 
L 280.447181 -334.894231 
L 280.454319 -338.503823 
L 280.465364 -342.113415 
L 280.480172 -345.723007 
L 280.498514 -349.332599 
L 280.520089 -352.942191 
L 280.544533 -356.551783 
L 280.571432 -360.161375 
L 280.600339 -363.770967 
L 280.630781 -367.380559 
L 280.66228 -370.990151 
L 280.694364 -374.599743 
L 280.726576 -378.209335 
L 280.75849 -381.818927 
L 280.789717 -385.428519 
L 280.819913 -389.038111 
L 280.848785 -392.647703 
L 280.876093 -396.257295 
L 280.901652 -399.866887 
L 280.92533 -403.476479 
L 280.947049 -407.086071 
L 280.966775 -410.695663 
L 280.98452 -414.305255 
L 281.000332 -417.914847 
L 281.014291 -421.524439 
L 281.026498 -425.134031 
L 281.037077 -428.743623 
L 281.046161 -432.353215 
L 281.05389 -435.962807 
L 281.12211 -435.962807 
L 281.12211 -435.962807 
L 281.129839 -432.353215 
L 281.138923 -428.743623 
L 281.149502 -425.134031 
L 281.161709 -421.524439 
L 281.175668 -417.914847 
L 281.19148 -414.305255 
L 281.209225 -410.695663 
L 281.228951 -407.086071 
L 281.25067 -403.476479 
L 281.274348 -399.866887 
L 281.299907 -396.257295 
L 281.327215 -392.647703 
L 281.356087 -389.038111 
L 281.386283 -385.428519 
L 281.41751 -381.818927 
L 281.449424 -378.209335 
L 281.481636 -374.599743 
L 281.51372 -370.990151 
L 281.545219 -367.380559 
L 281.575661 -363.770967 
L 281.604568 -360.161375 
L 281.631467 -356.551783 
L 281.655911 -352.942191 
L 281.677486 -349.332599 
L 281.695828 -345.723007 
L 281.710636 -342.113415 
L 281.721681 -338.503823 
L 281.728819 -334.894231 
L 281.731998 -331.284639 
L 281.731262 -327.675047 
L 281.726753 -324.065455 
L 281.718717 -320.455863 
L 281.707495 -316.846271 
L 281.693522 -313.236679 
L 281.677318 -309.627087 
L 281.659482 -306.017495 
L 281.640674 -302.407903 
L 281.621611 -298.798311 
L 281.603044 -295.188719 
L 281.58575 -291.579127 
L 281.570516 -287.969535 
L 281.558117 -284.359943 
L 281.549311 -280.750351 
L 281.544818 -277.140759 
L 281.545307 -273.531167 
L 281.551384 -269.921575 
L 281.563578 -266.311983 
L 281.582332 -262.702391 
L 281.607991 -259.092799 
L 281.640791 -255.483207 
L 281.680851 -251.873615 
L 281.728163 -248.264023 
L 281.782588 -244.654431 
L 281.843844 -241.044839 
L 281.911503 -237.435248 
L 281.984986 -233.825656 
L 282.063564 -230.216064 
L 282.146355 -226.606472 
L 282.232329 -222.99688 
L 282.320319 -219.387288 
L 282.409033 -215.777696 
L 282.49707 -212.168104 
L 282.582946 -208.558512 
L 282.665123 -204.94892 
L 282.742045 -201.339328 
L 282.812172 -197.729736 
L 282.874026 -194.120144 
L 282.926234 -190.510552 
L 282.967572 -186.90096 
L 282.997005 -183.291368 
L 283.013726 -179.681776 
L 283.017189 -176.072184 
L 283.007128 -172.462592 
L 282.983578 -168.853 
L 282.946871 -165.243408 
L 282.897634 -161.633816 
L 282.836768 -158.024224 
L 282.76542 -154.414632 
L 282.684942 -150.80504 
L 282.596849 -147.195448 
L 282.502769 -143.585856 
L 282.404385 -139.976264 
L 282.303387 -136.366672 
L 282.201418 -132.75708 
L 282.100031 -129.147488 
L 282.000645 -125.537896 
L 281.904516 -121.928304 
L 281.812711 -118.318712 
L 281.726098 -114.70912 
L 281.645335 -111.099528 
L 281.570881 -107.489936 
L 281.502997 -103.880344 
L 281.441768 -100.270752 
L 281.387124 -96.66116 
L 281.33886 -93.051568 
L 281.296665 -89.441976 
L 281.260147 -85.832384 
L 281.228854 -82.222792 
L 281.202301 -78.6132 
z
" id="m11e1b2ab4b" style="stroke:#484848;stroke-width:1.5;"/>
    </defs>
    <g clip-path="url(#pa31593be79)">
     <use style="fill:#de7959;stroke:#484848;stroke-width:1.5;" x="0" xlink:href="#m11e1b2ab4b" y="542.16"/>
    </g>
   </g>
   <g id="PolyCollection_3">
    <defs>
     <path d="M 376.354658 -132.986545 
L 376.285342 -132.986545 
L 376.276368 -136.270774 
L 376.265715 -139.555003 
L 376.253255 -142.839232 
L 376.238894 -146.123461 
L 376.222595 -149.407689 
L 376.204381 -152.691918 
L 376.184352 -155.976147 
L 376.162688 -159.260376 
L 376.139654 -162.544605 
L 376.1156 -165.828834 
L 376.090945 -169.113062 
L 376.066168 -172.397291 
L 376.041786 -175.68152 
L 376.018322 -178.965749 
L 375.996277 -182.249978 
L 375.976095 -185.534207 
L 375.958128 -188.818435 
L 375.942603 -192.102664 
L 375.929597 -195.386893 
L 375.919014 -198.671122 
L 375.910579 -201.955351 
L 375.903837 -205.23958 
L 375.898166 -208.523808 
L 375.892802 -211.808037 
L 375.886875 -215.092266 
L 375.87945 -218.376495 
L 375.869581 -221.660724 
L 375.85636 -224.944953 
L 375.838968 -228.229181 
L 375.816725 -231.51341 
L 375.789126 -234.797639 
L 375.755874 -238.081868 
L 375.716889 -241.366097 
L 375.672321 -244.650326 
L 375.622531 -247.934554 
L 375.568068 -251.218783 
L 375.509636 -254.503012 
L 375.448051 -257.787241 
L 375.384186 -261.07147 
L 375.318922 -264.355699 
L 375.253099 -267.639927 
L 375.187469 -270.924156 
L 375.122658 -274.208385 
L 375.059145 -277.492614 
L 374.997247 -280.776843 
L 374.937122 -284.061072 
L 374.878788 -287.3453 
L 374.822151 -290.629529 
L 374.767055 -293.913758 
L 374.713324 -297.197987 
L 374.660827 -300.482216 
L 374.609528 -303.766445 
L 374.559539 -307.050674 
L 374.51116 -310.334902 
L 374.464902 -313.619131 
L 374.421495 -316.90336 
L 374.381872 -320.187589 
L 374.347135 -323.471818 
L 374.318499 -326.756047 
L 374.29722 -330.040275 
L 374.284516 -333.324504 
L 374.281483 -336.608733 
L 374.289011 -339.892962 
L 374.307712 -343.177191 
L 374.337875 -346.46142 
L 374.379424 -349.745648 
L 374.431921 -353.029877 
L 374.494577 -356.314106 
L 374.566301 -359.598335 
L 374.645755 -362.882564 
L 374.73143 -366.166793 
L 374.821729 -369.451021 
L 374.915044 -372.73525 
L 375.009832 -376.019479 
L 375.104674 -379.303708 
L 375.198323 -382.587937 
L 375.28973 -385.872166 
L 375.378057 -389.156394 
L 375.462673 -392.440623 
L 375.543134 -395.724852 
L 375.619158 -399.009081 
L 375.690598 -402.29331 
L 375.757405 -405.577539 
L 375.819602 -408.861767 
L 375.877259 -412.145996 
L 375.930473 -415.430225 
L 375.979358 -418.714454 
L 376.024034 -421.998683 
L 376.06463 -425.282912 
L 376.101281 -428.56714 
L 376.134135 -431.851369 
L 376.163355 -435.135598 
L 376.189122 -438.419827 
L 376.211635 -441.704056 
L 376.231115 -444.988285 
L 376.247797 -448.272513 
L 376.261932 -451.556742 
L 376.273776 -454.840971 
L 376.283587 -458.1252 
L 376.356413 -458.1252 
L 376.356413 -458.1252 
L 376.366224 -454.840971 
L 376.378068 -451.556742 
L 376.392203 -448.272513 
L 376.408885 -444.988285 
L 376.428365 -441.704056 
L 376.450878 -438.419827 
L 376.476645 -435.135598 
L 376.505865 -431.851369 
L 376.538719 -428.56714 
L 376.57537 -425.282912 
L 376.615966 -421.998683 
L 376.660642 -418.714454 
L 376.709527 -415.430225 
L 376.762741 -412.145996 
L 376.820398 -408.861767 
L 376.882595 -405.577539 
L 376.949402 -402.29331 
L 377.020842 -399.009081 
L 377.096866 -395.724852 
L 377.177327 -392.440623 
L 377.261943 -389.156394 
L 377.35027 -385.872166 
L 377.441677 -382.587937 
L 377.535326 -379.303708 
L 377.630168 -376.019479 
L 377.724956 -372.73525 
L 377.818271 -369.451021 
L 377.90857 -366.166793 
L 377.994245 -362.882564 
L 378.073699 -359.598335 
L 378.145423 -356.314106 
L 378.208079 -353.029877 
L 378.260576 -349.745648 
L 378.302125 -346.46142 
L 378.332288 -343.177191 
L 378.350989 -339.892962 
L 378.358517 -336.608733 
L 378.355484 -333.324504 
L 378.34278 -330.040275 
L 378.321501 -326.756047 
L 378.292865 -323.471818 
L 378.258128 -320.187589 
L 378.218505 -316.90336 
L 378.175098 -313.619131 
L 378.12884 -310.334902 
L 378.080461 -307.050674 
L 378.030472 -303.766445 
L 377.979173 -300.482216 
L 377.926676 -297.197987 
L 377.872945 -293.913758 
L 377.817849 -290.629529 
L 377.761212 -287.3453 
L 377.702878 -284.061072 
L 377.642753 -280.776843 
L 377.580855 -277.492614 
L 377.517342 -274.208385 
L 377.452531 -270.924156 
L 377.386901 -267.639927 
L 377.321078 -264.355699 
L 377.255814 -261.07147 
L 377.191949 -257.787241 
L 377.130364 -254.503012 
L 377.071932 -251.218783 
L 377.017469 -247.934554 
L 376.967679 -244.650326 
L 376.923111 -241.366097 
L 376.884126 -238.081868 
L 376.850874 -234.797639 
L 376.823275 -231.51341 
L 376.801032 -228.229181 
L 376.78364 -224.944953 
L 376.770419 -221.660724 
L 376.76055 -218.376495 
L 376.753125 -215.092266 
L 376.747198 -211.808037 
L 376.741834 -208.523808 
L 376.736163 -205.23958 
L 376.729421 -201.955351 
L 376.720986 -198.671122 
L 376.710403 -195.386893 
L 376.697397 -192.102664 
L 376.681872 -188.818435 
L 376.663905 -185.534207 
L 376.643723 -182.249978 
L 376.621678 -178.965749 
L 376.598214 -175.68152 
L 376.573832 -172.397291 
L 376.549055 -169.113062 
L 376.5244 -165.828834 
L 376.500346 -162.544605 
L 376.477312 -159.260376 
L 376.455648 -155.976147 
L 376.435619 -152.691918 
L 376.417405 -149.407689 
L 376.401106 -146.123461 
L 376.386745 -142.839232 
L 376.374285 -139.555003 
L 376.363632 -136.270774 
L 376.354658 -132.986545 
z
" id="m486fde9403" style="stroke:#484848;stroke-width:1.5;"/>
    </defs>
    <g clip-path="url(#pa31593be79)">
     <use style="fill:#e9ad74;stroke:#484848;stroke-width:1.5;" x="0" xlink:href="#m486fde9403" y="542.16"/>
    </g>
   </g>
   <g id="PolyCollection_4">
    <defs>
     <path d="M 566.830793 -100.497171 
L 566.737207 -100.497171 
L 566.726509 -103.892042 
L 566.714129 -107.286912 
L 566.699999 -110.681783 
L 566.684095 -114.076653 
L 566.666447 -117.471524 
L 566.647145 -120.866394 
L 566.626345 -124.261264 
L 566.604267 -127.656135 
L 566.581194 -131.051005 
L 566.557459 -134.445876 
L 566.533438 -137.840746 
L 566.509527 -141.235617 
L 566.486126 -144.630487 
L 566.463611 -148.025358 
L 566.442315 -151.420228 
L 566.422501 -154.815099 
L 566.404345 -158.209969 
L 566.387919 -161.60484 
L 566.373182 -164.99971 
L 566.359975 -168.39458 
L 566.348032 -171.789451 
L 566.336985 -175.184321 
L 566.326386 -178.579192 
L 566.31573 -181.974062 
L 566.304482 -185.368933 
L 566.292101 -188.763803 
L 566.278072 -192.158674 
L 566.261923 -195.553544 
L 566.24325 -198.948415 
L 566.221724 -202.343285 
L 566.197102 -205.738156 
L 566.169224 -209.133026 
L 566.138013 -212.527896 
L 566.103462 -215.922767 
L 566.065626 -219.317637 
L 566.02461 -222.712508 
L 565.980561 -226.107378 
L 565.93366 -229.502249 
L 565.884115 -232.897119 
L 565.832166 -236.29199 
L 565.778085 -239.68686 
L 565.722183 -243.081731 
L 565.664817 -246.476601 
L 565.6064 -249.871472 
L 565.547402 -253.266342 
L 565.488357 -256.661212 
L 565.429857 -260.056083 
L 565.372547 -263.450953 
L 565.317112 -266.845824 
L 565.264254 -270.240694 
L 565.214677 -273.635565 
L 565.169056 -277.030435 
L 565.128015 -280.425306 
L 565.092101 -283.820176 
L 565.061765 -287.215047 
L 565.037344 -290.609917 
L 565.019055 -294.004788 
L 565.006992 -297.399658 
L 565.001132 -300.794528 
L 565.001353 -304.189399 
L 565.007444 -307.584269 
L 565.01914 -310.97914 
L 565.036135 -314.37401 
L 565.058116 -317.768881 
L 565.084777 -321.163751 
L 565.115844 -324.558622 
L 565.151078 -327.953492 
L 565.190283 -331.348363 
L 565.233304 -334.743233 
L 565.280014 -338.138104 
L 565.3303 -341.532974 
L 565.384047 -344.927844 
L 565.441116 -348.322715 
L 565.501323 -351.717585 
L 565.564425 -355.112456 
L 565.630106 -358.507326 
L 565.697974 -361.902197 
L 565.767552 -365.297067 
L 565.838296 -368.691938 
L 565.909597 -372.086808 
L 565.980804 -375.481679 
L 566.051244 -378.876549 
L 566.120246 -382.27142 
L 566.187164 -385.66629 
L 566.2514 -389.06116 
L 566.312423 -392.456031 
L 566.369789 -395.850901 
L 566.423149 -399.245772 
L 566.472255 -402.640642 
L 566.516964 -406.035513 
L 566.557236 -409.430383 
L 566.593122 -412.825254 
L 566.624756 -416.220124 
L 566.652342 -419.614995 
L 566.67614 -423.009865 
L 566.696449 -426.404736 
L 566.713595 -429.799606 
L 566.727913 -433.194476 
L 566.739742 -436.589347 
L 566.828258 -436.589347 
L 566.828258 -436.589347 
L 566.840087 -433.194476 
L 566.854405 -429.799606 
L 566.871551 -426.404736 
L 566.89186 -423.009865 
L 566.915658 -419.614995 
L 566.943244 -416.220124 
L 566.974878 -412.825254 
L 567.010764 -409.430383 
L 567.051036 -406.035513 
L 567.095745 -402.640642 
L 567.144851 -399.245772 
L 567.198211 -395.850901 
L 567.255577 -392.456031 
L 567.3166 -389.06116 
L 567.380836 -385.66629 
L 567.447754 -382.27142 
L 567.516756 -378.876549 
L 567.587196 -375.481679 
L 567.658403 -372.086808 
L 567.729704 -368.691938 
L 567.800448 -365.297067 
L 567.870026 -361.902197 
L 567.937894 -358.507326 
L 568.003575 -355.112456 
L 568.066677 -351.717585 
L 568.126884 -348.322715 
L 568.183953 -344.927844 
L 568.2377 -341.532974 
L 568.287986 -338.138104 
L 568.334696 -334.743233 
L 568.377717 -331.348363 
L 568.416922 -327.953492 
L 568.452156 -324.558622 
L 568.483223 -321.163751 
L 568.509884 -317.768881 
L 568.531865 -314.37401 
L 568.54886 -310.97914 
L 568.560556 -307.584269 
L 568.566647 -304.189399 
L 568.566868 -300.794528 
L 568.561008 -297.399658 
L 568.548945 -294.004788 
L 568.530656 -290.609917 
L 568.506235 -287.215047 
L 568.475899 -283.820176 
L 568.439985 -280.425306 
L 568.398944 -277.030435 
L 568.353323 -273.635565 
L 568.303746 -270.240694 
L 568.250888 -266.845824 
L 568.195453 -263.450953 
L 568.138143 -260.056083 
L 568.079643 -256.661212 
L 568.020598 -253.266342 
L 567.9616 -249.871472 
L 567.903183 -246.476601 
L 567.845817 -243.081731 
L 567.789915 -239.68686 
L 567.735834 -236.29199 
L 567.683885 -232.897119 
L 567.63434 -229.502249 
L 567.587439 -226.107378 
L 567.54339 -222.712508 
L 567.502374 -219.317637 
L 567.464538 -215.922767 
L 567.429987 -212.527896 
L 567.398776 -209.133026 
L 567.370898 -205.738156 
L 567.346276 -202.343285 
L 567.32475 -198.948415 
L 567.306077 -195.553544 
L 567.289928 -192.158674 
L 567.275899 -188.763803 
L 567.263518 -185.368933 
L 567.25227 -181.974062 
L 567.241614 -178.579192 
L 567.231015 -175.184321 
L 567.219968 -171.789451 
L 567.208025 -168.39458 
L 567.194818 -164.99971 
L 567.180081 -161.60484 
L 567.163655 -158.209969 
L 567.145499 -154.815099 
L 567.125685 -151.420228 
L 567.104389 -148.025358 
L 567.081874 -144.630487 
L 567.058473 -141.235617 
L 567.034562 -137.840746 
L 567.010541 -134.445876 
L 566.986806 -131.051005 
L 566.963733 -127.656135 
L 566.941655 -124.261264 
L 566.920855 -120.866394 
L 566.901553 -117.471524 
L 566.883905 -114.076653 
L 566.868001 -110.681783 
L 566.853871 -107.286912 
L 566.841491 -103.892042 
L 566.830793 -100.497171 
z
" id="m8c8d104e15" style="stroke:#484848;stroke-width:1.5;"/>
    </defs>
    <g clip-path="url(#pa31593be79)">
     <use style="fill:#f7f7c6;stroke:#484848;stroke-width:1.5;" x="0" xlink:href="#m8c8d104e15" y="542.16"/>
    </g>
   </g>
   <g id="PolyCollection_5">
    <defs>
     <path d="M 662.792132 -206.12654 
L 661.239868 -206.12654 
L 661.052484 -206.341541 
L 660.83396 -206.556542 
L 660.582817 -206.771543 
L 660.298385 -206.986543 
L 659.980929 -207.201544 
L 659.631715 -207.416545 
L 659.252986 -207.631546 
L 658.847836 -207.846547 
L 658.419956 -208.061548 
L 657.973262 -208.276549 
L 657.511392 -208.49155 
L 657.037119 -208.70655 
L 656.551694 -208.921551 
L 656.054187 -209.136552 
L 655.540881 -209.351553 
L 655.004805 -209.566554 
L 654.435467 -209.781555 
L 653.81887 -209.996556 
L 653.137866 -210.211557 
L 652.372884 -210.426557 
L 651.503038 -210.641558 
L 650.507595 -210.856559 
L 649.367732 -211.07156 
L 648.068483 -211.286561 
L 646.600734 -211.501562 
L 644.963105 -211.716563 
L 643.163544 -211.931564 
L 641.220458 -212.146564 
L 639.163218 -212.361565 
L 637.031925 -212.576566 
L 634.876369 -212.791567 
L 632.754182 -213.006568 
L 630.728243 -213.221569 
L 628.863494 -213.43657 
L 627.223365 -213.651571 
L 625.866059 -213.866571 
L 624.840991 -214.081572 
L 624.185658 -214.296573 
L 623.9232 -214.511574 
L 624.060863 -214.726575 
L 624.589497 -214.941576 
L 625.484133 -215.156577 
L 626.705607 -215.371577 
L 628.203078 -215.586578 
L 629.91725 -215.801579 
L 631.784026 -216.01658 
L 633.738306 -216.231581 
L 635.717635 -216.446582 
L 637.665432 -216.661583 
L 639.533589 -216.876584 
L 641.284287 -217.091584 
L 642.890938 -217.306585 
L 644.338274 -217.521586 
L 645.621643 -217.736587 
L 646.74563 -217.951588 
L 647.722206 -218.166589 
L 648.568565 -218.38159 
L 649.304886 -218.596591 
L 649.952179 -218.811591 
L 650.530401 -219.026592 
L 651.056956 -219.241593 
L 651.545649 -219.456594 
L 652.006145 -219.671595 
L 652.443905 -219.886596 
L 652.860548 -220.101597 
L 653.254562 -220.316598 
L 653.62225 -220.531598 
L 653.958803 -220.746599 
L 654.25938 -220.9616 
L 654.520096 -221.176601 
L 654.738823 -221.391602 
L 654.915751 -221.606603 
L 655.053671 -221.821604 
L 655.157961 -222.036605 
L 655.236316 -222.251605 
L 655.298245 -222.466606 
L 655.354403 -222.681607 
L 655.415823 -222.896608 
L 655.493126 -223.111609 
L 655.595782 -223.32661 
L 655.731477 -223.541611 
L 655.905635 -223.756612 
L 656.121136 -223.971612 
L 656.378228 -224.186613 
L 656.674634 -224.401614 
L 657.005838 -224.616615 
L 657.365494 -224.831616 
L 657.745943 -225.046617 
L 658.13876 -225.261618 
L 658.535313 -225.476619 
L 658.927265 -225.691619 
L 659.307013 -225.90662 
L 659.668017 -226.121621 
L 660.005025 -226.336622 
L 660.314184 -226.551623 
L 660.59305 -226.766624 
L 660.840508 -226.981625 
L 661.056623 -227.196626 
L 661.242452 -227.411626 
L 662.789548 -227.411626 
L 662.789548 -227.411626 
L 662.975377 -227.196626 
L 663.191492 -226.981625 
L 663.43895 -226.766624 
L 663.717816 -226.551623 
L 664.026975 -226.336622 
L 664.363983 -226.121621 
L 664.724987 -225.90662 
L 665.104735 -225.691619 
L 665.496687 -225.476619 
L 665.89324 -225.261618 
L 666.286057 -225.046617 
L 666.666506 -224.831616 
L 667.026162 -224.616615 
L 667.357366 -224.401614 
L 667.653772 -224.186613 
L 667.910864 -223.971612 
L 668.126365 -223.756612 
L 668.300523 -223.541611 
L 668.436218 -223.32661 
L 668.538874 -223.111609 
L 668.616177 -222.896608 
L 668.677597 -222.681607 
L 668.733755 -222.466606 
L 668.795684 -222.251605 
L 668.874039 -222.036605 
L 668.978329 -221.821604 
L 669.116249 -221.606603 
L 669.293177 -221.391602 
L 669.511904 -221.176601 
L 669.77262 -220.9616 
L 670.073197 -220.746599 
L 670.40975 -220.531598 
L 670.777438 -220.316598 
L 671.171452 -220.101597 
L 671.588095 -219.886596 
L 672.025855 -219.671595 
L 672.486351 -219.456594 
L 672.975044 -219.241593 
L 673.501599 -219.026592 
L 674.079821 -218.811591 
L 674.727114 -218.596591 
L 675.463435 -218.38159 
L 676.309794 -218.166589 
L 677.28637 -217.951588 
L 678.410357 -217.736587 
L 679.693726 -217.521586 
L 681.141062 -217.306585 
L 682.747713 -217.091584 
L 684.498411 -216.876584 
L 686.366568 -216.661583 
L 688.314365 -216.446582 
L 690.293694 -216.231581 
L 692.247974 -216.01658 
L 694.11475 -215.801579 
L 695.828922 -215.586578 
L 697.326393 -215.371577 
L 698.547867 -215.156577 
L 699.442503 -214.941576 
L 699.971137 -214.726575 
L 700.1088 -214.511574 
L 699.846342 -214.296573 
L 699.191009 -214.081572 
L 698.165941 -213.866571 
L 696.808635 -213.651571 
L 695.168506 -213.43657 
L 693.303757 -213.221569 
L 691.277818 -213.006568 
L 689.155631 -212.791567 
L 687.000075 -212.576566 
L 684.868782 -212.361565 
L 682.811542 -212.146564 
L 680.868456 -211.931564 
L 679.068895 -211.716563 
L 677.431266 -211.501562 
L 675.963517 -211.286561 
L 674.664268 -211.07156 
L 673.524405 -210.856559 
L 672.528962 -210.641558 
L 671.659116 -210.426557 
L 670.894134 -210.211557 
L 670.21313 -209.996556 
L 669.596533 -209.781555 
L 669.027195 -209.566554 
L 668.491119 -209.351553 
L 667.977813 -209.136552 
L 667.480306 -208.921551 
L 666.994881 -208.70655 
L 666.520608 -208.49155 
L 666.058738 -208.276549 
L 665.612044 -208.061548 
L 665.184164 -207.846547 
L 664.779014 -207.631546 
L 664.400285 -207.416545 
L 664.051071 -207.201544 
L 663.733615 -206.986543 
L 663.449183 -206.771543 
L 663.19804 -206.556542 
L 662.979516 -206.341541 
L 662.792132 -206.12654 
z
" id="m378404a5e6" style="stroke:#484848;stroke-width:1.5;"/>
    </defs>
    <g clip-path="url(#pa31593be79)">
     <use style="fill:#dee9a4;stroke:#484848;stroke-width:1.5;" x="0" xlink:href="#m378404a5e6" y="542.16"/>
    </g>
   </g>
   <g id="PolyCollection_6">
    <defs>
     <path d="M 758.185331 -194.136151 
L 756.310669 -194.136151 
L 756.096592 -194.729809 
L 755.848337 -195.323467 
L 755.564133 -195.917126 
L 755.242974 -196.510784 
L 754.88478 -197.104442 
L 754.490528 -197.698101 
L 754.062337 -198.291759 
L 753.603497 -198.885417 
L 753.118432 -199.479076 
L 752.612591 -200.072734 
L 752.092274 -200.666392 
L 751.564387 -201.26005 
L 751.036158 -201.853709 
L 750.514822 -202.447367 
L 750.007303 -203.041025 
L 749.519919 -203.634684 
L 749.058134 -204.228342 
L 748.626386 -204.822 
L 748.227994 -205.415659 
L 747.865163 -206.009317 
L 747.53908 -206.602975 
L 747.250087 -207.196633 
L 746.997912 -207.790292 
L 746.781935 -208.38395 
L 746.601447 -208.977608 
L 746.455886 -209.571267 
L 746.345005 -210.164925 
L 746.268973 -210.758583 
L 746.228381 -211.352241 
L 746.224164 -211.9459 
L 746.257445 -212.539558 
L 746.329327 -213.133216 
L 746.440657 -213.726875 
L 746.591789 -214.320533 
L 746.782387 -214.914191 
L 747.011277 -215.50785 
L 747.276379 -216.101508 
L 747.574721 -216.695166 
L 747.902533 -217.288824 
L 748.255408 -217.882483 
L 748.62852 -218.476141 
L 749.016853 -219.069799 
L 749.415446 -219.663458 
L 749.819599 -220.257116 
L 750.225039 -220.850774 
L 750.628031 -221.444433 
L 751.025421 -222.038091 
L 751.414619 -222.631749 
L 751.793531 -223.225407 
L 752.160458 -223.819066 
L 752.513969 -224.412724 
L 752.852784 -225.006382 
L 753.175667 -225.600041 
L 753.481352 -226.193699 
L 753.76851 -226.787357 
L 754.035751 -227.381015 
L 754.281674 -227.974674 
L 754.504943 -228.568332 
L 754.704389 -229.16199 
L 754.879121 -229.755649 
L 755.028633 -230.349307 
L 755.152897 -230.942965 
L 755.252436 -231.536624 
L 755.328357 -232.130282 
L 755.382358 -232.72394 
L 755.416694 -233.317598 
L 755.43411 -233.911257 
L 755.437745 -234.504915 
L 755.43102 -235.098573 
L 755.417501 -235.692232 
L 755.400763 -236.28589 
L 755.384256 -236.879548 
L 755.371176 -237.473207 
L 755.364356 -238.066865 
L 755.36617 -238.660523 
L 755.378475 -239.254181 
L 755.402559 -239.84784 
L 755.439134 -240.441498 
L 755.488346 -241.035156 
L 755.549806 -241.628815 
L 755.622649 -242.222473 
L 755.705602 -242.816131 
L 755.797074 -243.409789 
L 755.895237 -244.003448 
L 755.998129 -244.597106 
L 756.103741 -245.190764 
L 756.210102 -245.784423 
L 756.315353 -246.378081 
L 756.417812 -246.971739 
L 756.516021 -247.565398 
L 756.608774 -248.159056 
L 756.695142 -248.752714 
L 756.774469 -249.346372 
L 756.846363 -249.940031 
L 756.91068 -250.533689 
L 756.96749 -251.127347 
L 757.017043 -251.721006 
L 757.059737 -252.314664 
L 757.096075 -252.908322 
L 757.399925 -252.908322 
L 757.399925 -252.908322 
L 757.436263 -252.314664 
L 757.478957 -251.721006 
L 757.52851 -251.127347 
L 757.58532 -250.533689 
L 757.649637 -249.940031 
L 757.721531 -249.346372 
L 757.800858 -248.752714 
L 757.887226 -248.159056 
L 757.979979 -247.565398 
L 758.078188 -246.971739 
L 758.180647 -246.378081 
L 758.285898 -245.784423 
L 758.392259 -245.190764 
L 758.497871 -244.597106 
L 758.600763 -244.003448 
L 758.698926 -243.409789 
L 758.790398 -242.816131 
L 758.873351 -242.222473 
L 758.946194 -241.628815 
L 759.007654 -241.035156 
L 759.056866 -240.441498 
L 759.093441 -239.84784 
L 759.117525 -239.254181 
L 759.12983 -238.660523 
L 759.131644 -238.066865 
L 759.124824 -237.473207 
L 759.111744 -236.879548 
L 759.095237 -236.28589 
L 759.078499 -235.692232 
L 759.06498 -235.098573 
L 759.058255 -234.504915 
L 759.06189 -233.911257 
L 759.079306 -233.317598 
L 759.113642 -232.72394 
L 759.167643 -232.130282 
L 759.243564 -231.536624 
L 759.343103 -230.942965 
L 759.467367 -230.349307 
L 759.616879 -229.755649 
L 759.791611 -229.16199 
L 759.991057 -228.568332 
L 760.214326 -227.974674 
L 760.460249 -227.381015 
L 760.72749 -226.787357 
L 761.014648 -226.193699 
L 761.320333 -225.600041 
L 761.643216 -225.006382 
L 761.982031 -224.412724 
L 762.335542 -223.819066 
L 762.702469 -223.225407 
L 763.081381 -222.631749 
L 763.470579 -222.038091 
L 763.867969 -221.444433 
L 764.270961 -220.850774 
L 764.676401 -220.257116 
L 765.080554 -219.663458 
L 765.479147 -219.069799 
L 765.86748 -218.476141 
L 766.240592 -217.882483 
L 766.593467 -217.288824 
L 766.921279 -216.695166 
L 767.219621 -216.101508 
L 767.484723 -215.50785 
L 767.713613 -214.914191 
L 767.904211 -214.320533 
L 768.055343 -213.726875 
L 768.166673 -213.133216 
L 768.238555 -212.539558 
L 768.271836 -211.9459 
L 768.267619 -211.352241 
L 768.227027 -210.758583 
L 768.150995 -210.164925 
L 768.040114 -209.571267 
L 767.894553 -208.977608 
L 767.714065 -208.38395 
L 767.498088 -207.790292 
L 767.245913 -207.196633 
L 766.95692 -206.602975 
L 766.630837 -206.009317 
L 766.268006 -205.415659 
L 765.869614 -204.822 
L 765.437866 -204.228342 
L 764.976081 -203.634684 
L 764.488697 -203.041025 
L 763.981178 -202.447367 
L 763.459842 -201.853709 
L 762.931613 -201.26005 
L 762.403726 -200.666392 
L 761.883409 -200.072734 
L 761.377568 -199.479076 
L 760.892503 -198.885417 
L 760.433663 -198.291759 
L 760.005472 -197.698101 
L 759.61122 -197.104442 
L 759.253026 -196.510784 
L 758.931867 -195.917126 
L 758.647663 -195.323467 
L 758.399408 -194.729809 
L 758.185331 -194.136151 
z
" id="m04d1779594" style="stroke:#484848;stroke-width:1.5;"/>
    </defs>
    <g clip-path="url(#pa31593be79)">
     <use style="fill:#afd5ab;stroke:#484848;stroke-width:1.5;" x="0" xlink:href="#m04d1779594" y="542.16"/>
    </g>
   </g>
   <g id="matplotlib.axis_1">
    <g id="xtick_1">
     <g id="line2d_1">
      <defs>
       <path d="M 0 0 
L 0 3.5 
" id="mf9654767d0" style="stroke:#000000;stroke-width:0.8;"/>
      </defs>
      <g>
       <use style="stroke:#000000;stroke-width:0.8;" x="185.856" xlink:href="#mf9654767d0" y="482.5224"/>
      </g>
     </g>
     <g id="text_1">
      <!-- Player1_healthy -->
      <g transform="translate(145.828656 497.120837)scale(0.1 -0.1)">
       <defs>
        <path d="M 1259 4147 
L 1259 2394 
L 2053 2394 
Q 2494 2394 2734 2622 
Q 2975 2850 2975 3272 
Q 2975 3691 2734 3919 
Q 2494 4147 2053 4147 
L 1259 4147 
z
M 628 4666 
L 2053 4666 
Q 2838 4666 3239 4311 
Q 3641 3956 3641 3272 
Q 3641 2581 3239 2228 
Q 2838 1875 2053 1875 
L 1259 1875 
L 1259 0 
L 628 0 
L 628 4666 
z
" id="DejaVuSans-50" transform="scale(0.015625)"/>
        <path d="M 603 4863 
L 1178 4863 
L 1178 0 
L 603 0 
L 603 4863 
z
" id="DejaVuSans-6c" transform="scale(0.015625)"/>
        <path d="M 2194 1759 
Q 1497 1759 1228 1600 
Q 959 1441 959 1056 
Q 959 750 1161 570 
Q 1363 391 1709 391 
Q 2188 391 2477 730 
Q 2766 1069 2766 1631 
L 2766 1759 
L 2194 1759 
z
M 3341 1997 
L 3341 0 
L 2766 0 
L 2766 531 
Q 2569 213 2275 61 
Q 1981 -91 1556 -91 
Q 1019 -91 701 211 
Q 384 513 384 1019 
Q 384 1609 779 1909 
Q 1175 2209 1959 2209 
L 2766 2209 
L 2766 2266 
Q 2766 2663 2505 2880 
Q 2244 3097 1772 3097 
Q 1472 3097 1187 3025 
Q 903 2953 641 2809 
L 641 3341 
Q 956 3463 1253 3523 
Q 1550 3584 1831 3584 
Q 2591 3584 2966 3190 
Q 3341 2797 3341 1997 
z
" id="DejaVuSans-61" transform="scale(0.015625)"/>
        <path d="M 2059 -325 
Q 1816 -950 1584 -1140 
Q 1353 -1331 966 -1331 
L 506 -1331 
L 506 -850 
L 844 -850 
Q 1081 -850 1212 -737 
Q 1344 -625 1503 -206 
L 1606 56 
L 191 3500 
L 800 3500 
L 1894 763 
L 2988 3500 
L 3597 3500 
L 2059 -325 
z
" id="DejaVuSans-79" transform="scale(0.015625)"/>
        <path d="M 3597 1894 
L 3597 1613 
L 953 1613 
Q 991 1019 1311 708 
Q 1631 397 2203 397 
Q 2534 397 2845 478 
Q 3156 559 3463 722 
L 3463 178 
Q 3153 47 2828 -22 
Q 2503 -91 2169 -91 
Q 1331 -91 842 396 
Q 353 884 353 1716 
Q 353 2575 817 3079 
Q 1281 3584 2069 3584 
Q 2775 3584 3186 3129 
Q 3597 2675 3597 1894 
z
M 3022 2063 
Q 3016 2534 2758 2815 
Q 2500 3097 2075 3097 
Q 1594 3097 1305 2825 
Q 1016 2553 972 2059 
L 3022 2063 
z
" id="DejaVuSans-65" transform="scale(0.015625)"/>
        <path d="M 2631 2963 
Q 2534 3019 2420 3045 
Q 2306 3072 2169 3072 
Q 1681 3072 1420 2755 
Q 1159 2438 1159 1844 
L 1159 0 
L 581 0 
L 581 3500 
L 1159 3500 
L 1159 2956 
Q 1341 3275 1631 3429 
Q 1922 3584 2338 3584 
Q 2397 3584 2469 3576 
Q 2541 3569 2628 3553 
L 2631 2963 
z
" id="DejaVuSans-72" transform="scale(0.015625)"/>
        <path d="M 794 531 
L 1825 531 
L 1825 4091 
L 703 3866 
L 703 4441 
L 1819 4666 
L 2450 4666 
L 2450 531 
L 3481 531 
L 3481 0 
L 794 0 
L 794 531 
z
" id="DejaVuSans-31" transform="scale(0.015625)"/>
        <path d="M 3263 -1063 
L 3263 -1509 
L -63 -1509 
L -63 -1063 
L 3263 -1063 
z
" id="DejaVuSans-5f" transform="scale(0.015625)"/>
        <path d="M 3513 2113 
L 3513 0 
L 2938 0 
L 2938 2094 
Q 2938 2591 2744 2837 
Q 2550 3084 2163 3084 
Q 1697 3084 1428 2787 
Q 1159 2491 1159 1978 
L 1159 0 
L 581 0 
L 581 4863 
L 1159 4863 
L 1159 2956 
Q 1366 3272 1645 3428 
Q 1925 3584 2291 3584 
Q 2894 3584 3203 3211 
Q 3513 2838 3513 2113 
z
" id="DejaVuSans-68" transform="scale(0.015625)"/>
        <path d="M 1172 4494 
L 1172 3500 
L 2356 3500 
L 2356 3053 
L 1172 3053 
L 1172 1153 
Q 1172 725 1289 603 
Q 1406 481 1766 481 
L 2356 481 
L 2356 0 
L 1766 0 
Q 1100 0 847 248 
Q 594 497 594 1153 
L 594 3053 
L 172 3053 
L 172 3500 
L 594 3500 
L 594 4494 
L 1172 4494 
z
" id="DejaVuSans-74" transform="scale(0.015625)"/>
       </defs>
       <use xlink:href="#DejaVuSans-50"/>
       <use x="60.302734" xlink:href="#DejaVuSans-6c"/>
       <use x="88.085938" xlink:href="#DejaVuSans-61"/>
       <use x="149.365234" xlink:href="#DejaVuSans-79"/>
       <use x="208.544922" xlink:href="#DejaVuSans-65"/>
       <use x="270.068359" xlink:href="#DejaVuSans-72"/>
       <use x="311.181641" xlink:href="#DejaVuSans-31"/>
       <use x="374.804688" xlink:href="#DejaVuSans-5f"/>
       <use x="424.804688" xlink:href="#DejaVuSans-68"/>
       <use x="488.183594" xlink:href="#DejaVuSans-65"/>
       <use x="549.707031" xlink:href="#DejaVuSans-61"/>
       <use x="610.986328" xlink:href="#DejaVuSans-6c"/>
       <use x="638.769531" xlink:href="#DejaVuSans-74"/>
       <use x="677.978516" xlink:href="#DejaVuSans-68"/>
       <use x="741.357422" xlink:href="#DejaVuSans-79"/>
      </g>
     </g>
    </g>
    <g id="xtick_2">
     <g id="line2d_2">
      <g>
       <use style="stroke:#000000;stroke-width:0.8;" x="281.088" xlink:href="#mf9654767d0" y="482.5224"/>
      </g>
     </g>
     <g id="text_2">
      <!-- biased_A -->
      <g transform="translate(258.684875 497.120837)scale(0.1 -0.1)">
       <defs>
        <path d="M 3116 1747 
Q 3116 2381 2855 2742 
Q 2594 3103 2138 3103 
Q 1681 3103 1420 2742 
Q 1159 2381 1159 1747 
Q 1159 1113 1420 752 
Q 1681 391 2138 391 
Q 2594 391 2855 752 
Q 3116 1113 3116 1747 
z
M 1159 2969 
Q 1341 3281 1617 3432 
Q 1894 3584 2278 3584 
Q 2916 3584 3314 3078 
Q 3713 2572 3713 1747 
Q 3713 922 3314 415 
Q 2916 -91 2278 -91 
Q 1894 -91 1617 61 
Q 1341 213 1159 525 
L 1159 0 
L 581 0 
L 581 4863 
L 1159 4863 
L 1159 2969 
z
" id="DejaVuSans-62" transform="scale(0.015625)"/>
        <path d="M 603 3500 
L 1178 3500 
L 1178 0 
L 603 0 
L 603 3500 
z
M 603 4863 
L 1178 4863 
L 1178 4134 
L 603 4134 
L 603 4863 
z
" id="DejaVuSans-69" transform="scale(0.015625)"/>
        <path d="M 2834 3397 
L 2834 2853 
Q 2591 2978 2328 3040 
Q 2066 3103 1784 3103 
Q 1356 3103 1142 2972 
Q 928 2841 928 2578 
Q 928 2378 1081 2264 
Q 1234 2150 1697 2047 
L 1894 2003 
Q 2506 1872 2764 1633 
Q 3022 1394 3022 966 
Q 3022 478 2636 193 
Q 2250 -91 1575 -91 
Q 1294 -91 989 -36 
Q 684 19 347 128 
L 347 722 
Q 666 556 975 473 
Q 1284 391 1588 391 
Q 1994 391 2212 530 
Q 2431 669 2431 922 
Q 2431 1156 2273 1281 
Q 2116 1406 1581 1522 
L 1381 1569 
Q 847 1681 609 1914 
Q 372 2147 372 2553 
Q 372 3047 722 3315 
Q 1072 3584 1716 3584 
Q 2034 3584 2315 3537 
Q 2597 3491 2834 3397 
z
" id="DejaVuSans-73" transform="scale(0.015625)"/>
        <path d="M 2906 2969 
L 2906 4863 
L 3481 4863 
L 3481 0 
L 2906 0 
L 2906 525 
Q 2725 213 2448 61 
Q 2172 -91 1784 -91 
Q 1150 -91 751 415 
Q 353 922 353 1747 
Q 353 2572 751 3078 
Q 1150 3584 1784 3584 
Q 2172 3584 2448 3432 
Q 2725 3281 2906 2969 
z
M 947 1747 
Q 947 1113 1208 752 
Q 1469 391 1925 391 
Q 2381 391 2643 752 
Q 2906 1113 2906 1747 
Q 2906 2381 2643 2742 
Q 2381 3103 1925 3103 
Q 1469 3103 1208 2742 
Q 947 2381 947 1747 
z
" id="DejaVuSans-64" transform="scale(0.015625)"/>
        <path d="M 2188 4044 
L 1331 1722 
L 3047 1722 
L 2188 4044 
z
M 1831 4666 
L 2547 4666 
L 4325 0 
L 3669 0 
L 3244 1197 
L 1141 1197 
L 716 0 
L 50 0 
L 1831 4666 
z
" id="DejaVuSans-41" transform="scale(0.015625)"/>
       </defs>
       <use xlink:href="#DejaVuSans-62"/>
       <use x="63.476562" xlink:href="#DejaVuSans-69"/>
       <use x="91.259766" xlink:href="#DejaVuSans-61"/>
       <use x="152.539062" xlink:href="#DejaVuSans-73"/>
       <use x="204.638672" xlink:href="#DejaVuSans-65"/>
       <use x="266.162109" xlink:href="#DejaVuSans-64"/>
       <use x="329.638672" xlink:href="#DejaVuSans-5f"/>
       <use x="379.638672" xlink:href="#DejaVuSans-41"/>
      </g>
     </g>
    </g>
    <g id="xtick_3">
     <g id="line2d_3">
      <g>
       <use style="stroke:#000000;stroke-width:0.8;" x="376.32" xlink:href="#mf9654767d0" y="482.5224"/>
      </g>
     </g>
     <g id="text_3">
      <!-- biased_B -->
      <g transform="translate(353.906719 497.120837)scale(0.1 -0.1)">
       <defs>
        <path d="M 1259 2228 
L 1259 519 
L 2272 519 
Q 2781 519 3026 730 
Q 3272 941 3272 1375 
Q 3272 1813 3026 2020 
Q 2781 2228 2272 2228 
L 1259 2228 
z
M 1259 4147 
L 1259 2741 
L 2194 2741 
Q 2656 2741 2882 2914 
Q 3109 3088 3109 3444 
Q 3109 3797 2882 3972 
Q 2656 4147 2194 4147 
L 1259 4147 
z
M 628 4666 
L 2241 4666 
Q 2963 4666 3353 4366 
Q 3744 4066 3744 3513 
Q 3744 3084 3544 2831 
Q 3344 2578 2956 2516 
Q 3422 2416 3680 2098 
Q 3938 1781 3938 1306 
Q 3938 681 3513 340 
Q 3088 0 2303 0 
L 628 0 
L 628 4666 
z
" id="DejaVuSans-42" transform="scale(0.015625)"/>
       </defs>
       <use xlink:href="#DejaVuSans-62"/>
       <use x="63.476562" xlink:href="#DejaVuSans-69"/>
       <use x="91.259766" xlink:href="#DejaVuSans-61"/>
       <use x="152.539062" xlink:href="#DejaVuSans-73"/>
       <use x="204.638672" xlink:href="#DejaVuSans-65"/>
       <use x="266.162109" xlink:href="#DejaVuSans-64"/>
       <use x="329.638672" xlink:href="#DejaVuSans-5f"/>
       <use x="379.638672" xlink:href="#DejaVuSans-42"/>
      </g>
     </g>
    </g>
    <g id="xtick_4">
     <g id="line2d_4">
      <g>
       <use style="stroke:#000000;stroke-width:0.8;" x="471.552" xlink:href="#mf9654767d0" y="482.5224"/>
      </g>
     </g>
     <g id="text_4">
      <!-- biased_C -->
      <g transform="translate(449.077781 497.120837)scale(0.1 -0.1)">
       <defs>
        <path d="M 4122 4306 
L 4122 3641 
Q 3803 3938 3442 4084 
Q 3081 4231 2675 4231 
Q 1875 4231 1450 3742 
Q 1025 3253 1025 2328 
Q 1025 1406 1450 917 
Q 1875 428 2675 428 
Q 3081 428 3442 575 
Q 3803 722 4122 1019 
L 4122 359 
Q 3791 134 3420 21 
Q 3050 -91 2638 -91 
Q 1578 -91 968 557 
Q 359 1206 359 2328 
Q 359 3453 968 4101 
Q 1578 4750 2638 4750 
Q 3056 4750 3426 4639 
Q 3797 4528 4122 4306 
z
" id="DejaVuSans-43" transform="scale(0.015625)"/>
       </defs>
       <use xlink:href="#DejaVuSans-62"/>
       <use x="63.476562" xlink:href="#DejaVuSans-69"/>
       <use x="91.259766" xlink:href="#DejaVuSans-61"/>
       <use x="152.539062" xlink:href="#DejaVuSans-73"/>
       <use x="204.638672" xlink:href="#DejaVuSans-65"/>
       <use x="266.162109" xlink:href="#DejaVuSans-64"/>
       <use x="329.638672" xlink:href="#DejaVuSans-5f"/>
       <use x="379.638672" xlink:href="#DejaVuSans-43"/>
      </g>
     </g>
    </g>
    <g id="xtick_5">
     <g id="line2d_5">
      <g>
       <use style="stroke:#000000;stroke-width:0.8;" x="566.784" xlink:href="#mf9654767d0" y="482.5224"/>
      </g>
     </g>
     <g id="text_5">
      <!-- biased_D -->
      <g transform="translate(543.951187 497.120837)scale(0.1 -0.1)">
       <defs>
        <path d="M 1259 4147 
L 1259 519 
L 2022 519 
Q 2988 519 3436 956 
Q 3884 1394 3884 2338 
Q 3884 3275 3436 3711 
Q 2988 4147 2022 4147 
L 1259 4147 
z
M 628 4666 
L 1925 4666 
Q 3281 4666 3915 4102 
Q 4550 3538 4550 2338 
Q 4550 1131 3912 565 
Q 3275 0 1925 0 
L 628 0 
L 628 4666 
z
" id="DejaVuSans-44" transform="scale(0.015625)"/>
       </defs>
       <use xlink:href="#DejaVuSans-62"/>
       <use x="63.476562" xlink:href="#DejaVuSans-69"/>
       <use x="91.259766" xlink:href="#DejaVuSans-61"/>
       <use x="152.539062" xlink:href="#DejaVuSans-73"/>
       <use x="204.638672" xlink:href="#DejaVuSans-65"/>
       <use x="266.162109" xlink:href="#DejaVuSans-64"/>
       <use x="329.638672" xlink:href="#DejaVuSans-5f"/>
       <use x="379.638672" xlink:href="#DejaVuSans-44"/>
      </g>
     </g>
    </g>
    <g id="xtick_6">
     <g id="line2d_6">
      <g>
       <use style="stroke:#000000;stroke-width:0.8;" x="662.016" xlink:href="#mf9654767d0" y="482.5224"/>
      </g>
     </g>
     <g id="text_6">
      <!-- Type1_depressed -->
      <g transform="translate(618.94725 497.120837)scale(0.1 -0.1)">
       <defs>
        <path d="M -19 4666 
L 3928 4666 
L 3928 4134 
L 2272 4134 
L 2272 0 
L 1638 0 
L 1638 4134 
L -19 4134 
L -19 4666 
z
" id="DejaVuSans-54" transform="scale(0.015625)"/>
        <path d="M 1159 525 
L 1159 -1331 
L 581 -1331 
L 581 3500 
L 1159 3500 
L 1159 2969 
Q 1341 3281 1617 3432 
Q 1894 3584 2278 3584 
Q 2916 3584 3314 3078 
Q 3713 2572 3713 1747 
Q 3713 922 3314 415 
Q 2916 -91 2278 -91 
Q 1894 -91 1617 61 
Q 1341 213 1159 525 
z
M 3116 1747 
Q 3116 2381 2855 2742 
Q 2594 3103 2138 3103 
Q 1681 3103 1420 2742 
Q 1159 2381 1159 1747 
Q 1159 1113 1420 752 
Q 1681 391 2138 391 
Q 2594 391 2855 752 
Q 3116 1113 3116 1747 
z
" id="DejaVuSans-70" transform="scale(0.015625)"/>
       </defs>
       <use xlink:href="#DejaVuSans-54"/>
       <use x="45.458984" xlink:href="#DejaVuSans-79"/>
       <use x="104.638672" xlink:href="#DejaVuSans-70"/>
       <use x="168.115234" xlink:href="#DejaVuSans-65"/>
       <use x="229.638672" xlink:href="#DejaVuSans-31"/>
       <use x="293.261719" xlink:href="#DejaVuSans-5f"/>
       <use x="343.261719" xlink:href="#DejaVuSans-64"/>
       <use x="406.738281" xlink:href="#DejaVuSans-65"/>
       <use x="468.261719" xlink:href="#DejaVuSans-70"/>
       <use x="531.738281" xlink:href="#DejaVuSans-72"/>
       <use x="570.601562" xlink:href="#DejaVuSans-65"/>
       <use x="632.125" xlink:href="#DejaVuSans-73"/>
       <use x="684.224609" xlink:href="#DejaVuSans-73"/>
       <use x="736.324219" xlink:href="#DejaVuSans-65"/>
       <use x="797.847656" xlink:href="#DejaVuSans-64"/>
      </g>
     </g>
    </g>
    <g id="xtick_7">
     <g id="line2d_7">
      <g>
       <use style="stroke:#000000;stroke-width:0.8;" x="757.248" xlink:href="#mf9654767d0" y="482.5224"/>
      </g>
     </g>
     <g id="text_7">
      <!-- Type2_depressed -->
      <g transform="translate(714.17925 497.120837)scale(0.1 -0.1)">
       <defs>
        <path d="M 1228 531 
L 3431 531 
L 3431 0 
L 469 0 
L 469 531 
Q 828 903 1448 1529 
Q 2069 2156 2228 2338 
Q 2531 2678 2651 2914 
Q 2772 3150 2772 3378 
Q 2772 3750 2511 3984 
Q 2250 4219 1831 4219 
Q 1534 4219 1204 4116 
Q 875 4013 500 3803 
L 500 4441 
Q 881 4594 1212 4672 
Q 1544 4750 1819 4750 
Q 2544 4750 2975 4387 
Q 3406 4025 3406 3419 
Q 3406 3131 3298 2873 
Q 3191 2616 2906 2266 
Q 2828 2175 2409 1742 
Q 1991 1309 1228 531 
z
" id="DejaVuSans-32" transform="scale(0.015625)"/>
       </defs>
       <use xlink:href="#DejaVuSans-54"/>
       <use x="45.458984" xlink:href="#DejaVuSans-79"/>
       <use x="104.638672" xlink:href="#DejaVuSans-70"/>
       <use x="168.115234" xlink:href="#DejaVuSans-65"/>
       <use x="229.638672" xlink:href="#DejaVuSans-32"/>
       <use x="293.261719" xlink:href="#DejaVuSans-5f"/>
       <use x="343.261719" xlink:href="#DejaVuSans-64"/>
       <use x="406.738281" xlink:href="#DejaVuSans-65"/>
       <use x="468.261719" xlink:href="#DejaVuSans-70"/>
       <use x="531.738281" xlink:href="#DejaVuSans-72"/>
       <use x="570.601562" xlink:href="#DejaVuSans-65"/>
       <use x="632.125" xlink:href="#DejaVuSans-73"/>
       <use x="684.224609" xlink:href="#DejaVuSans-73"/>
       <use x="736.324219" xlink:href="#DejaVuSans-65"/>
       <use x="797.847656" xlink:href="#DejaVuSans-64"/>
      </g>
     </g>
    </g>
    <g id="xtick_8">
     <g id="line2d_8">
      <g>
       <use style="stroke:#000000;stroke-width:0.8;" x="852.48" xlink:href="#mf9654767d0" y="482.5224"/>
      </g>
     </g>
     <g id="text_8">
      <!-- Type1_social_phobia -->
      <g transform="translate(801.530781 497.120837)scale(0.1 -0.1)">
       <defs>
        <path d="M 1959 3097 
Q 1497 3097 1228 2736 
Q 959 2375 959 1747 
Q 959 1119 1226 758 
Q 1494 397 1959 397 
Q 2419 397 2687 759 
Q 2956 1122 2956 1747 
Q 2956 2369 2687 2733 
Q 2419 3097 1959 3097 
z
M 1959 3584 
Q 2709 3584 3137 3096 
Q 3566 2609 3566 1747 
Q 3566 888 3137 398 
Q 2709 -91 1959 -91 
Q 1206 -91 779 398 
Q 353 888 353 1747 
Q 353 2609 779 3096 
Q 1206 3584 1959 3584 
z
" id="DejaVuSans-6f" transform="scale(0.015625)"/>
        <path d="M 3122 3366 
L 3122 2828 
Q 2878 2963 2633 3030 
Q 2388 3097 2138 3097 
Q 1578 3097 1268 2742 
Q 959 2388 959 1747 
Q 959 1106 1268 751 
Q 1578 397 2138 397 
Q 2388 397 2633 464 
Q 2878 531 3122 666 
L 3122 134 
Q 2881 22 2623 -34 
Q 2366 -91 2075 -91 
Q 1284 -91 818 406 
Q 353 903 353 1747 
Q 353 2603 823 3093 
Q 1294 3584 2113 3584 
Q 2378 3584 2631 3529 
Q 2884 3475 3122 3366 
z
" id="DejaVuSans-63" transform="scale(0.015625)"/>
       </defs>
       <use xlink:href="#DejaVuSans-54"/>
       <use x="45.458984" xlink:href="#DejaVuSans-79"/>
       <use x="104.638672" xlink:href="#DejaVuSans-70"/>
       <use x="168.115234" xlink:href="#DejaVuSans-65"/>
       <use x="229.638672" xlink:href="#DejaVuSans-31"/>
       <use x="293.261719" xlink:href="#DejaVuSans-5f"/>
       <use x="343.261719" xlink:href="#DejaVuSans-73"/>
       <use x="395.361328" xlink:href="#DejaVuSans-6f"/>
       <use x="456.542969" xlink:href="#DejaVuSans-63"/>
       <use x="511.523438" xlink:href="#DejaVuSans-69"/>
       <use x="539.306641" xlink:href="#DejaVuSans-61"/>
       <use x="600.585938" xlink:href="#DejaVuSans-6c"/>
       <use x="628.369141" xlink:href="#DejaVuSans-5f"/>
       <use x="678.369141" xlink:href="#DejaVuSans-70"/>
       <use x="741.845703" xlink:href="#DejaVuSans-68"/>
       <use x="805.224609" xlink:href="#DejaVuSans-6f"/>
       <use x="866.40625" xlink:href="#DejaVuSans-62"/>
       <use x="929.882812" xlink:href="#DejaVuSans-69"/>
       <use x="957.666016" xlink:href="#DejaVuSans-61"/>
      </g>
     </g>
    </g>
    <g id="xtick_9">
     <g id="line2d_9">
      <g>
       <use style="stroke:#000000;stroke-width:0.8;" x="947.712" xlink:href="#mf9654767d0" y="482.5224"/>
      </g>
     </g>
     <g id="text_9">
      <!-- Type2_social_phobia -->
      <g transform="translate(896.762781 497.120837)scale(0.1 -0.1)">
       <use xlink:href="#DejaVuSans-54"/>
       <use x="45.458984" xlink:href="#DejaVuSans-79"/>
       <use x="104.638672" xlink:href="#DejaVuSans-70"/>
       <use x="168.115234" xlink:href="#DejaVuSans-65"/>
       <use x="229.638672" xlink:href="#DejaVuSans-32"/>
       <use x="293.261719" xlink:href="#DejaVuSans-5f"/>
       <use x="343.261719" xlink:href="#DejaVuSans-73"/>
       <use x="395.361328" xlink:href="#DejaVuSans-6f"/>
       <use x="456.542969" xlink:href="#DejaVuSans-63"/>
       <use x="511.523438" xlink:href="#DejaVuSans-69"/>
       <use x="539.306641" xlink:href="#DejaVuSans-61"/>
       <use x="600.585938" xlink:href="#DejaVuSans-6c"/>
       <use x="628.369141" xlink:href="#DejaVuSans-5f"/>
       <use x="678.369141" xlink:href="#DejaVuSans-70"/>
       <use x="741.845703" xlink:href="#DejaVuSans-68"/>
       <use x="805.224609" xlink:href="#DejaVuSans-6f"/>
       <use x="866.40625" xlink:href="#DejaVuSans-62"/>
       <use x="929.882812" xlink:href="#DejaVuSans-69"/>
       <use x="957.666016" xlink:href="#DejaVuSans-61"/>
      </g>
     </g>
    </g>
   </g>
   <g id="matplotlib.axis_2">
    <g id="ytick_1">
     <g id="line2d_10">
      <defs>
       <path d="M 0 0 
L -3.5 0 
" id="mffbe48fab6" style="stroke:#000000;stroke-width:0.8;"/>
      </defs>
      <g>
       <use style="stroke:#000000;stroke-width:0.8;" x="138.24" xlink:href="#mffbe48fab6" y="404.177706"/>
      </g>
     </g>
     <g id="text_10">
      <!-- 10 -->
      <g transform="translate(118.515 407.976925)scale(0.1 -0.1)">
       <defs>
        <path d="M 2034 4250 
Q 1547 4250 1301 3770 
Q 1056 3291 1056 2328 
Q 1056 1369 1301 889 
Q 1547 409 2034 409 
Q 2525 409 2770 889 
Q 3016 1369 3016 2328 
Q 3016 3291 2770 3770 
Q 2525 4250 2034 4250 
z
M 2034 4750 
Q 2819 4750 3233 4129 
Q 3647 3509 3647 2328 
Q 3647 1150 3233 529 
Q 2819 -91 2034 -91 
Q 1250 -91 836 529 
Q 422 1150 422 2328 
Q 422 3509 836 4129 
Q 1250 4750 2034 4750 
z
" id="DejaVuSans-30" transform="scale(0.015625)"/>
       </defs>
       <use xlink:href="#DejaVuSans-31"/>
       <use x="63.623047" xlink:href="#DejaVuSans-30"/>
      </g>
     </g>
    </g>
    <g id="ytick_2">
     <g id="line2d_11">
      <g>
       <use style="stroke:#000000;stroke-width:0.8;" x="138.24" xlink:href="#mffbe48fab6" y="314.135661"/>
      </g>
     </g>
     <g id="text_11">
      <!-- 20 -->
      <g transform="translate(118.515 317.93488)scale(0.1 -0.1)">
       <use xlink:href="#DejaVuSans-32"/>
       <use x="63.623047" xlink:href="#DejaVuSans-30"/>
      </g>
     </g>
    </g>
    <g id="ytick_3">
     <g id="line2d_12">
      <g>
       <use style="stroke:#000000;stroke-width:0.8;" x="138.24" xlink:href="#mffbe48fab6" y="224.093616"/>
      </g>
     </g>
     <g id="text_12">
      <!-- 30 -->
      <g transform="translate(118.515 227.892835)scale(0.1 -0.1)">
       <defs>
        <path d="M 2597 2516 
Q 3050 2419 3304 2112 
Q 3559 1806 3559 1356 
Q 3559 666 3084 287 
Q 2609 -91 1734 -91 
Q 1441 -91 1130 -33 
Q 819 25 488 141 
L 488 750 
Q 750 597 1062 519 
Q 1375 441 1716 441 
Q 2309 441 2620 675 
Q 2931 909 2931 1356 
Q 2931 1769 2642 2001 
Q 2353 2234 1838 2234 
L 1294 2234 
L 1294 2753 
L 1863 2753 
Q 2328 2753 2575 2939 
Q 2822 3125 2822 3475 
Q 2822 3834 2567 4026 
Q 2313 4219 1838 4219 
Q 1578 4219 1281 4162 
Q 984 4106 628 3988 
L 628 4550 
Q 988 4650 1302 4700 
Q 1616 4750 1894 4750 
Q 2613 4750 3031 4423 
Q 3450 4097 3450 3541 
Q 3450 3153 3228 2886 
Q 3006 2619 2597 2516 
z
" id="DejaVuSans-33" transform="scale(0.015625)"/>
       </defs>
       <use xlink:href="#DejaVuSans-33"/>
       <use x="63.623047" xlink:href="#DejaVuSans-30"/>
      </g>
     </g>
    </g>
    <g id="ytick_4">
     <g id="line2d_13">
      <g>
       <use style="stroke:#000000;stroke-width:0.8;" x="138.24" xlink:href="#mffbe48fab6" y="134.051571"/>
      </g>
     </g>
     <g id="text_13">
      <!-- 40 -->
      <g transform="translate(118.515 137.85079)scale(0.1 -0.1)">
       <defs>
        <path d="M 2419 4116 
L 825 1625 
L 2419 1625 
L 2419 4116 
z
M 2253 4666 
L 3047 4666 
L 3047 1625 
L 3713 1625 
L 3713 1100 
L 3047 1100 
L 3047 0 
L 2419 0 
L 2419 1100 
L 313 1100 
L 313 1709 
L 2253 4666 
z
" id="DejaVuSans-34" transform="scale(0.015625)"/>
       </defs>
       <use xlink:href="#DejaVuSans-34"/>
       <use x="63.623047" xlink:href="#DejaVuSans-30"/>
      </g>
     </g>
    </g>
   </g>
   <g id="line2d_14">
    <path clip-path="url(#pa31593be79)" d="M 185.856 264.612536 
L 185.856 161.064185 
" style="fill:none;stroke:#484848;stroke-linecap:square;stroke-width:1.5;"/>
   </g>
   <g id="line2d_15">
    <path clip-path="url(#pa31593be79)" d="M 185.856 246.604127 
L 185.856 186.951273 
" style="fill:none;stroke:#484848;stroke-linecap:square;stroke-width:4.5;"/>
   </g>
   <g id="line2d_16">
    <path clip-path="url(#pa31593be79)" d="M 281.088 386.169297 
L 281.088 183.574696 
" style="fill:none;stroke:#484848;stroke-linecap:square;stroke-width:1.5;"/>
   </g>
   <g id="line2d_17">
    <path clip-path="url(#pa31593be79)" d="M 281.088 377.165093 
L 281.088 298.378303 
" style="fill:none;stroke:#484848;stroke-linecap:square;stroke-width:4.5;"/>
   </g>
   <g id="line2d_18">
    <path clip-path="url(#pa31593be79)" d="M 376.32 336.646172 
L 376.32 143.055776 
" style="fill:none;stroke:#484848;stroke-linecap:square;stroke-width:1.5;"/>
   </g>
   <g id="line2d_19">
    <path clip-path="url(#pa31593be79)" d="M 376.32 255.608332 
L 376.32 194.829952 
" style="fill:none;stroke:#484848;stroke-linecap:square;stroke-width:4.5;"/>
   </g>
   <g id="line2d_20">
    <path clip-path="url(#pa31593be79)" d="M 433.4592 314.135661 
L 509.6448 314.135661 
" style="fill:none;stroke:#484848;stroke-linecap:square;stroke-width:1.5;"/>
   </g>
   <g id="line2d_21">
    <path clip-path="url(#pa31593be79)" d="M 566.784 377.165093 
L 566.784 170.068389 
" style="fill:none;stroke:#484848;stroke-linecap:square;stroke-width:1.5;"/>
   </g>
   <g id="line2d_22">
    <path clip-path="url(#pa31593be79)" d="M 566.784 281.49542 
L 566.784 208.336258 
" style="fill:none;stroke:#484848;stroke-linecap:square;stroke-width:4.5;"/>
   </g>
   <g id="line2d_23">
    <path clip-path="url(#pa31593be79)" d="M 662.016 327.641968 
L 662.016 327.641968 
" style="fill:none;stroke:#484848;stroke-linecap:square;stroke-width:1.5;"/>
   </g>
   <g id="line2d_24">
    <path clip-path="url(#pa31593be79)" d="M 662.016 327.641968 
L 662.016 326.516442 
" style="fill:none;stroke:#484848;stroke-linecap:square;stroke-width:4.5;"/>
   </g>
   <g id="line2d_25">
    <path clip-path="url(#pa31593be79)" d="M 757.248 336.646172 
L 757.248 318.637763 
" style="fill:none;stroke:#484848;stroke-linecap:square;stroke-width:1.5;"/>
   </g>
   <g id="line2d_26">
    <path clip-path="url(#pa31593be79)" d="M 757.248 336.646172 
L 757.248 325.390917 
" style="fill:none;stroke:#484848;stroke-linecap:square;stroke-width:4.5;"/>
   </g>
   <g id="line2d_27">
    <path clip-path="url(#pa31593be79)" d="M 814.3872 314.135661 
L 890.5728 314.135661 
" style="fill:none;stroke:#484848;stroke-linecap:square;stroke-width:1.5;"/>
   </g>
   <g id="line2d_28">
    <path clip-path="url(#pa31593be79)" d="M 909.6192 314.135661 
L 985.8048 314.135661 
" style="fill:none;stroke:#484848;stroke-linecap:square;stroke-width:1.5;"/>
   </g>
   <g id="patch_3">
    <path d="M 138.24 482.5224 
L 138.24 65.0592 
" style="fill:none;stroke:#000000;stroke-linecap:square;stroke-linejoin:miter;stroke-width:0.8;"/>
   </g>
   <g id="patch_4">
    <path d="M 995.328 482.5224 
L 995.328 65.0592 
" style="fill:none;stroke:#000000;stroke-linecap:square;stroke-linejoin:miter;stroke-width:0.8;"/>
   </g>
   <g id="patch_5">
    <path d="M 138.24 482.5224 
L 995.328 482.5224 
" style="fill:none;stroke:#000000;stroke-linecap:square;stroke-linejoin:miter;stroke-width:0.8;"/>
   </g>
   <g id="patch_6">
    <path d="M 138.24 65.0592 
L 995.328 65.0592 
" style="fill:none;stroke:#000000;stroke-linecap:square;stroke-linejoin:miter;stroke-width:0.8;"/>
   </g>
   <g id="PathCollection_1">
    <defs>
     <path d="M 0 1.5 
C 0.397805 1.5 0.77937 1.341951 1.06066 1.06066 
C 1.341951 0.77937 1.5 0.397805 1.5 0 
C 1.5 -0.397805 1.341951 -0.77937 1.06066 -1.06066 
C 0.77937 -1.341951 0.397805 -1.5 0 -1.5 
C -0.397805 -1.5 -0.77937 -1.341951 -1.06066 -1.06066 
C -1.341951 -0.77937 -1.5 -0.397805 -1.5 0 
C -1.5 0.397805 -1.341951 0.77937 -1.06066 1.06066 
C -0.77937 1.341951 -0.397805 1.5 0 1.5 
z
" id="m13c94ca09b" style="stroke:#484848;"/>
    </defs>
    <g clip-path="url(#pa31593be79)">
     <use style="fill:#ffffff;stroke:#484848;" x="185.856" xlink:href="#m13c94ca09b" y="197.081003"/>
    </g>
   </g>
   <g id="PathCollection_2">
    <g clip-path="url(#pa31593be79)">
     <use style="fill:#ffffff;stroke:#484848;" x="281.088" xlink:href="#m13c94ca09b" y="361.407735"/>
    </g>
   </g>
   <g id="PathCollection_3">
    <g clip-path="url(#pa31593be79)">
     <use style="fill:#ffffff;stroke:#484848;" x="376.32" xlink:href="#m13c94ca09b" y="208.336258"/>
    </g>
   </g>
   <g id="PathCollection_4">
    <g clip-path="url(#pa31593be79)">
     <use style="fill:#ffffff;stroke:#484848;" x="566.784" xlink:href="#m13c94ca09b" y="246.604127"/>
    </g>
   </g>
   <g id="PathCollection_5">
    <g clip-path="url(#pa31593be79)">
     <use style="fill:#ffffff;stroke:#484848;" x="662.016" xlink:href="#m13c94ca09b" y="327.641968"/>
    </g>
   </g>
   <g id="PathCollection_6">
    <g clip-path="url(#pa31593be79)">
     <use style="fill:#ffffff;stroke:#484848;" x="757.248" xlink:href="#m13c94ca09b" y="327.641968"/>
    </g>
   </g>
   <g id="text_14">
    <!-- Rewards earned per agent type - hostile context first -->
    <g transform="translate(235.649234 59.0592)scale(0.25 -0.25)">
     <defs>
      <path d="M 2841 2188 
Q 3044 2119 3236 1894 
Q 3428 1669 3622 1275 
L 4263 0 
L 3584 0 
L 2988 1197 
Q 2756 1666 2539 1819 
Q 2322 1972 1947 1972 
L 1259 1972 
L 1259 0 
L 628 0 
L 628 4666 
L 2053 4666 
Q 2853 4666 3247 4331 
Q 3641 3997 3641 3322 
Q 3641 2881 3436 2590 
Q 3231 2300 2841 2188 
z
M 1259 4147 
L 1259 2491 
L 2053 2491 
Q 2509 2491 2742 2702 
Q 2975 2913 2975 3322 
Q 2975 3731 2742 3939 
Q 2509 4147 2053 4147 
L 1259 4147 
z
" id="DejaVuSans-52" transform="scale(0.015625)"/>
      <path d="M 269 3500 
L 844 3500 
L 1563 769 
L 2278 3500 
L 2956 3500 
L 3675 769 
L 4391 3500 
L 4966 3500 
L 4050 0 
L 3372 0 
L 2619 2869 
L 1863 0 
L 1184 0 
L 269 3500 
z
" id="DejaVuSans-77" transform="scale(0.015625)"/>
      <path id="DejaVuSans-20" transform="scale(0.015625)"/>
      <path d="M 3513 2113 
L 3513 0 
L 2938 0 
L 2938 2094 
Q 2938 2591 2744 2837 
Q 2550 3084 2163 3084 
Q 1697 3084 1428 2787 
Q 1159 2491 1159 1978 
L 1159 0 
L 581 0 
L 581 3500 
L 1159 3500 
L 1159 2956 
Q 1366 3272 1645 3428 
Q 1925 3584 2291 3584 
Q 2894 3584 3203 3211 
Q 3513 2838 3513 2113 
z
" id="DejaVuSans-6e" transform="scale(0.015625)"/>
      <path d="M 2906 1791 
Q 2906 2416 2648 2759 
Q 2391 3103 1925 3103 
Q 1463 3103 1205 2759 
Q 947 2416 947 1791 
Q 947 1169 1205 825 
Q 1463 481 1925 481 
Q 2391 481 2648 825 
Q 2906 1169 2906 1791 
z
M 3481 434 
Q 3481 -459 3084 -895 
Q 2688 -1331 1869 -1331 
Q 1566 -1331 1297 -1286 
Q 1028 -1241 775 -1147 
L 775 -588 
Q 1028 -725 1275 -790 
Q 1522 -856 1778 -856 
Q 2344 -856 2625 -561 
Q 2906 -266 2906 331 
L 2906 616 
Q 2728 306 2450 153 
Q 2172 0 1784 0 
Q 1141 0 747 490 
Q 353 981 353 1791 
Q 353 2603 747 3093 
Q 1141 3584 1784 3584 
Q 2172 3584 2450 3431 
Q 2728 3278 2906 2969 
L 2906 3500 
L 3481 3500 
L 3481 434 
z
" id="DejaVuSans-67" transform="scale(0.015625)"/>
      <path d="M 313 2009 
L 1997 2009 
L 1997 1497 
L 313 1497 
L 313 2009 
z
" id="DejaVuSans-2d" transform="scale(0.015625)"/>
      <path d="M 3513 3500 
L 2247 1797 
L 3578 0 
L 2900 0 
L 1881 1375 
L 863 0 
L 184 0 
L 1544 1831 
L 300 3500 
L 978 3500 
L 1906 2253 
L 2834 3500 
L 3513 3500 
z
" id="DejaVuSans-78" transform="scale(0.015625)"/>
      <path d="M 2375 4863 
L 2375 4384 
L 1825 4384 
Q 1516 4384 1395 4259 
Q 1275 4134 1275 3809 
L 1275 3500 
L 2222 3500 
L 2222 3053 
L 1275 3053 
L 1275 0 
L 697 0 
L 697 3053 
L 147 3053 
L 147 3500 
L 697 3500 
L 697 3744 
Q 697 4328 969 4595 
Q 1241 4863 1831 4863 
L 2375 4863 
z
" id="DejaVuSans-66" transform="scale(0.015625)"/>
     </defs>
     <use xlink:href="#DejaVuSans-52"/>
     <use x="64.982422" xlink:href="#DejaVuSans-65"/>
     <use x="126.505859" xlink:href="#DejaVuSans-77"/>
     <use x="208.292969" xlink:href="#DejaVuSans-61"/>
     <use x="269.572266" xlink:href="#DejaVuSans-72"/>
     <use x="308.935547" xlink:href="#DejaVuSans-64"/>
     <use x="372.412109" xlink:href="#DejaVuSans-73"/>
     <use x="424.511719" xlink:href="#DejaVuSans-20"/>
     <use x="456.298828" xlink:href="#DejaVuSans-65"/>
     <use x="517.822266" xlink:href="#DejaVuSans-61"/>
     <use x="579.101562" xlink:href="#DejaVuSans-72"/>
     <use x="618.464844" xlink:href="#DejaVuSans-6e"/>
     <use x="681.84375" xlink:href="#DejaVuSans-65"/>
     <use x="743.367188" xlink:href="#DejaVuSans-64"/>
     <use x="806.84375" xlink:href="#DejaVuSans-20"/>
     <use x="838.630859" xlink:href="#DejaVuSans-70"/>
     <use x="902.107422" xlink:href="#DejaVuSans-65"/>
     <use x="963.630859" xlink:href="#DejaVuSans-72"/>
     <use x="1004.744141" xlink:href="#DejaVuSans-20"/>
     <use x="1036.53125" xlink:href="#DejaVuSans-61"/>
     <use x="1097.810547" xlink:href="#DejaVuSans-67"/>
     <use x="1161.287109" xlink:href="#DejaVuSans-65"/>
     <use x="1222.810547" xlink:href="#DejaVuSans-6e"/>
     <use x="1286.189453" xlink:href="#DejaVuSans-74"/>
     <use x="1325.398438" xlink:href="#DejaVuSans-20"/>
     <use x="1357.185547" xlink:href="#DejaVuSans-74"/>
     <use x="1396.394531" xlink:href="#DejaVuSans-79"/>
     <use x="1455.574219" xlink:href="#DejaVuSans-70"/>
     <use x="1519.050781" xlink:href="#DejaVuSans-65"/>
     <use x="1580.574219" xlink:href="#DejaVuSans-20"/>
     <use x="1612.361328" xlink:href="#DejaVuSans-2d"/>
     <use x="1648.445312" xlink:href="#DejaVuSans-20"/>
     <use x="1680.232422" xlink:href="#DejaVuSans-68"/>
     <use x="1743.611328" xlink:href="#DejaVuSans-6f"/>
     <use x="1804.792969" xlink:href="#DejaVuSans-73"/>
     <use x="1856.892578" xlink:href="#DejaVuSans-74"/>
     <use x="1896.101562" xlink:href="#DejaVuSans-69"/>
     <use x="1923.884766" xlink:href="#DejaVuSans-6c"/>
     <use x="1951.667969" xlink:href="#DejaVuSans-65"/>
     <use x="2013.191406" xlink:href="#DejaVuSans-20"/>
     <use x="2044.978516" xlink:href="#DejaVuSans-63"/>
     <use x="2099.958984" xlink:href="#DejaVuSans-6f"/>
     <use x="2161.140625" xlink:href="#DejaVuSans-6e"/>
     <use x="2224.519531" xlink:href="#DejaVuSans-74"/>
     <use x="2263.728516" xlink:href="#DejaVuSans-65"/>
     <use x="2323.501953" xlink:href="#DejaVuSans-78"/>
     <use x="2382.681641" xlink:href="#DejaVuSans-74"/>
     <use x="2421.890625" xlink:href="#DejaVuSans-20"/>
     <use x="2453.677734" xlink:href="#DejaVuSans-66"/>
     <use x="2488.882812" xlink:href="#DejaVuSans-69"/>
     <use x="2516.666016" xlink:href="#DejaVuSans-72"/>
     <use x="2557.779297" xlink:href="#DejaVuSans-73"/>
     <use x="2609.878906" xlink:href="#DejaVuSans-74"/>
    </g>
   </g>
  </g>
 </g>
 <defs>
  <clipPath id="pa31593be79">
   <rect height="417.4632" width="857.088" x="138.24" y="65.0592"/>
  </clipPath>
 </defs>
</svg>
