<?xml version="1.0" encoding="utf-8" standalone="no"?>
<!DOCTYPE svg PUBLIC "-//W3C//DTD SVG 1.1//EN"
  "http://www.w3.org/Graphics/SVG/1.1/DTD/svg11.dtd">
<svg height="697.68pt" version="1.1" viewBox="0 0 1382.4 697.68" width="1382.4pt" xmlns="http://www.w3.org/2000/svg" xmlns:xlink="http://www.w3.org/1999/xlink">
 <metadata>
  <rdf:RDF xmlns:cc="http://creativecommons.org/ns#" xmlns:dc="http://purl.org/dc/elements/1.1/" xmlns:rdf="http://www.w3.org/1999/02/22-rdf-syntax-ns#">
   <cc:Work>
    <dc:type rdf:resource="http://purl.org/dc/dcmitype/StillImage"/>
    <dc:date>2023-09-19T13:09:28.579329</dc:date>
    <dc:format>image/svg+xml</dc:format>
    <dc:creator>
     <cc:Agent>
      <dc:title>Matplotlib v3.4.3, https://matplotlib.org/</dc:title>
     </cc:Agent>
    </dc:creator>
   </cc:Work>
  </rdf:RDF>
 </metadata>
 <defs>
  <style type="text/css">*{stroke-linecap:butt;stroke-linejoin:round;}</style>
 </defs>
 <g id="figure_1">
  <g id="patch_1">
   <path d="M 0 697.68 
L 1382.4 697.68 
L 1382.4 0 
L 0 0 
z
" style="fill:#ffffff;"/>
  </g>
  <g id="axes_1">
   <g id="patch_2">
    <path d="M 172.8 620.9352 
L 1244.16 620.9352 
L 1244.16 83.7216 
L 172.8 83.7216 
z
" style="fill:#ffffff;"/>
   </g>
   <g id="PolyCollection_1">
    <defs>
     <path d="M 280.652831 -138.841186 
L 279.219169 -138.841186 
L 279.022563 -143.393695 
L 278.785214 -147.946204 
L 278.502367 -152.498714 
L 278.169597 -157.051223 
L 277.783025 -161.603732 
L 277.33953 -166.156241 
L 276.836933 -170.708751 
L 276.27415 -175.26126 
L 275.651282 -179.813769 
L 274.969627 -184.366278 
L 274.231623 -188.918787 
L 273.440693 -193.471297 
L 272.601012 -198.023806 
L 271.717208 -202.576315 
L 270.794008 -207.128824 
L 269.835869 -211.681334 
L 268.846608 -216.233843 
L 267.829092 -220.786352 
L 266.785 -225.338861 
L 265.714702 -229.891371 
L 264.617281 -234.44388 
L 263.490708 -238.996389 
L 262.332185 -243.548898 
L 261.138636 -248.101407 
L 259.907318 -252.653917 
L 258.636516 -257.206426 
L 257.326257 -261.758935 
L 255.978973 -266.311444 
L 254.600035 -270.863954 
L 253.198092 -275.416463 
L 251.785139 -279.968972 
L 250.376288 -284.521481 
L 248.989211 -289.073991 
L 247.643283 -293.6265 
L 246.358493 -298.179009 
L 245.15419 -302.731518 
L 244.047811 -307.284028 
L 243.053708 -311.836537 
L 242.182216 -316.389046 
L 241.439077 -320.941555 
L 240.825299 -325.494064 
L 240.33749 -330.046574 
L 239.96865 -334.599083 
L 239.709329 -339.151592 
L 239.549048 -343.704101 
L 239.477802 -348.256611 
L 239.487487 -352.80912 
L 239.573063 -357.361629 
L 239.733325 -361.914138 
L 239.971175 -366.466648 
L 240.293356 -371.019157 
L 240.709681 -375.571666 
L 241.231827 -380.124175 
L 241.871832 -384.676684 
L 242.640467 -389.229194 
L 243.545649 -393.781703 
L 244.591076 -398.334212 
L 245.775216 -402.886721 
L 247.090757 -407.439231 
L 248.524564 -411.99174 
L 250.05813 -416.544249 
L 251.668484 -421.096758 
L 253.329433 -425.649268 
L 255.013038 -430.201777 
L 256.69117 -434.754286 
L 258.337026 -439.306795 
L 259.926473 -443.859305 
L 261.439134 -448.411814 
L 262.859164 -452.964323 
L 264.17567 -457.516832 
L 265.382794 -462.069341 
L 266.47948 -466.621851 
L 267.468981 -471.17436 
L 268.35817 -475.726869 
L 269.156715 -480.279378 
L 269.876191 -484.831888 
L 270.529185 -489.384397 
L 271.128465 -493.936906 
L 271.686221 -498.489415 
L 272.213451 -503.041925 
L 272.719483 -507.594434 
L 273.211656 -512.146943 
L 273.695163 -516.699452 
L 274.173046 -521.251961 
L 274.646327 -525.804471 
L 275.114253 -530.35698 
L 275.574631 -534.909489 
L 276.024215 -539.461998 
L 276.459124 -544.014508 
L 276.875246 -548.567017 
L 277.26861 -553.119526 
L 277.635697 -557.672035 
L 277.973681 -562.224545 
L 278.280586 -566.777054 
L 278.555358 -571.329563 
L 278.797866 -575.882072 
L 279.008834 -580.434582 
L 279.189724 -584.987091 
L 279.342591 -589.5396 
L 280.529409 -589.5396 
L 280.529409 -589.5396 
L 280.682276 -584.987091 
L 280.863166 -580.434582 
L 281.074134 -575.882072 
L 281.316642 -571.329563 
L 281.591414 -566.777054 
L 281.898319 -562.224545 
L 282.236303 -557.672035 
L 282.60339 -553.119526 
L 282.996754 -548.567017 
L 283.412876 -544.014508 
L 283.847785 -539.461998 
L 284.297369 -534.909489 
L 284.757747 -530.35698 
L 285.225673 -525.804471 
L 285.698954 -521.251961 
L 286.176837 -516.699452 
L 286.660344 -512.146943 
L 287.152517 -507.594434 
L 287.658549 -503.041925 
L 288.185779 -498.489415 
L 288.743535 -493.936906 
L 289.342815 -489.384397 
L 289.995809 -484.831888 
L 290.715285 -480.279378 
L 291.51383 -475.726869 
L 292.403019 -471.17436 
L 293.39252 -466.621851 
L 294.489206 -462.069341 
L 295.69633 -457.516832 
L 297.012836 -452.964323 
L 298.432866 -448.411814 
L 299.945527 -443.859305 
L 301.534974 -439.306795 
L 303.18083 -434.754286 
L 304.858962 -430.201777 
L 306.542567 -425.649268 
L 308.203516 -421.096758 
L 309.81387 -416.544249 
L 311.347436 -411.99174 
L 312.781243 -407.439231 
L 314.096784 -402.886721 
L 315.280924 -398.334212 
L 316.326351 -393.781703 
L 317.231533 -389.229194 
L 318.000168 -384.676684 
L 318.640173 -380.124175 
L 319.162319 -375.571666 
L 319.578644 -371.019157 
L 319.900825 -366.466648 
L 320.138675 -361.914138 
L 320.298937 -357.361629 
L 320.384513 -352.80912 
L 320.394198 -348.256611 
L 320.322952 -343.704101 
L 320.162671 -339.151592 
L 319.90335 -334.599083 
L 319.53451 -330.046574 
L 319.046701 -325.494064 
L 318.432923 -320.941555 
L 317.689784 -316.389046 
L 316.818292 -311.836537 
L 315.824189 -307.284028 
L 314.71781 -302.731518 
L 313.513507 -298.179009 
L 312.228717 -293.6265 
L 310.882789 -289.073991 
L 309.495712 -284.521481 
L 308.086861 -279.968972 
L 306.673908 -275.416463 
L 305.271965 -270.863954 
L 303.893027 -266.311444 
L 302.545743 -261.758935 
L 301.235484 -257.206426 
L 299.964682 -252.653917 
L 298.733364 -248.101407 
L 297.539815 -243.548898 
L 296.381292 -238.996389 
L 295.254719 -234.44388 
L 294.157298 -229.891371 
L 293.087 -225.338861 
L 292.042908 -220.786352 
L 291.025392 -216.233843 
L 290.036131 -211.681334 
L 289.077992 -207.128824 
L 288.154792 -202.576315 
L 287.270988 -198.023806 
L 286.431307 -193.471297 
L 285.640377 -188.918787 
L 284.902373 -184.366278 
L 284.220718 -179.813769 
L 283.59785 -175.26126 
L 283.035067 -170.708751 
L 282.53247 -166.156241 
L 282.088975 -161.603732 
L 281.702403 -157.051223 
L 281.369633 -152.498714 
L 281.086786 -147.946204 
L 280.849437 -143.393695 
L 280.652831 -138.841186 
z
" id="m22ad242243" style="stroke:#4d4d4d;stroke-width:1.5;"/>
    </defs>
    <g clip-path="url(#p6ae1926548)">
     <use style="fill:#d56b5b;stroke:#4d4d4d;stroke-width:1.5;" x="0" xlink:href="#m22ad242243" y="697.68"/>
    </g>
   </g>
   <g id="PolyCollection_2">
    <defs>
     <path d="M 497.021221 -154.758832 
L 491.394779 -154.758832 
L 490.649904 -156.87762 
L 489.759035 -158.996408 
L 488.707655 -161.115197 
L 487.483213 -163.233985 
L 486.075948 -165.352773 
L 484.479692 -167.471562 
L 482.692555 -169.59035 
L 480.717441 -171.709138 
L 478.562337 -173.827927 
L 476.240323 -175.946715 
L 473.769277 -178.065503 
L 471.171278 -180.184292 
L 468.471722 -182.30308 
L 465.698212 -184.421868 
L 462.879286 -186.540657 
L 460.043078 -188.659445 
L 457.216015 -190.778233 
L 454.421644 -192.897022 
L 451.679684 -195.01581 
L 449.005375 -197.134598 
L 446.409167 -199.253387 
L 443.896776 -201.372175 
L 441.469587 -203.490963 
L 439.125367 -205.609752 
L 436.859219 -207.72854 
L 434.664688 -209.847328 
L 432.534919 -211.966117 
L 430.463776 -214.084905 
L 428.446809 -216.203693 
L 426.482007 -218.322482 
L 424.570262 -220.44127 
L 422.715536 -222.560058 
L 420.924712 -224.678847 
L 419.20718 -226.797635 
L 417.574221 -228.916423 
L 416.038267 -231.035212 
L 414.612148 -233.154 
L 413.30843 -235.272788 
L 412.138918 -237.391577 
L 411.114415 -239.510365 
L 410.244749 -241.629153 
L 409.539073 -243.747942 
L 409.006391 -245.86673 
L 408.656206 -247.985518 
L 408.4992 -250.104307 
L 408.547795 -252.223095 
L 408.81648 -254.341883 
L 409.32179 -256.460672 
L 410.08187 -258.57946 
L 411.115591 -260.698248 
L 412.441263 -262.817037 
L 414.075001 -264.935825 
L 416.028897 -267.054613 
L 418.309151 -269.173402 
L 420.914334 -271.29219 
L 423.833975 -273.410978 
L 427.047616 -275.529767 
L 430.524466 -277.648555 
L 434.223708 -279.767343 
L 438.095501 -281.886132 
L 442.082595 -284.00492 
L 446.1225 -286.123708 
L 450.150037 -288.242497 
L 454.10013 -290.361285 
L 457.910626 -292.480073 
L 461.524982 -294.598862 
L 464.894638 -296.71765 
L 467.980933 -298.836438 
L 470.756462 -300.955227 
L 473.205813 -303.074015 
L 475.325649 -305.192803 
L 477.124168 -307.311592 
L 478.619991 -309.43038 
L 479.840573 -311.549168 
L 480.820245 -313.667957 
L 481.59803 -315.786745 
L 482.215358 -317.905533 
L 482.713826 -320.024322 
L 483.133124 -322.14311 
L 483.509255 -324.261898 
L 483.873105 -326.380687 
L 484.249455 -328.499475 
L 484.656436 -330.618263 
L 485.105443 -332.737052 
L 485.601452 -334.85584 
L 486.143695 -336.974628 
L 486.72661 -339.093417 
L 487.340955 -341.212205 
L 487.975021 -343.330993 
L 488.615816 -345.449782 
L 489.250163 -347.56857 
L 489.865639 -349.687358 
L 490.451307 -351.806147 
L 490.998232 -353.924935 
L 491.499767 -356.043723 
L 491.951631 -358.162512 
L 492.351815 -360.2813 
L 492.700349 -362.400088 
L 492.998975 -364.518877 
L 495.417025 -364.518877 
L 495.417025 -364.518877 
L 495.715651 -362.400088 
L 496.064185 -360.2813 
L 496.464369 -358.162512 
L 496.916233 -356.043723 
L 497.417768 -353.924935 
L 497.964693 -351.806147 
L 498.550361 -349.687358 
L 499.165837 -347.56857 
L 499.800184 -345.449782 
L 500.440979 -343.330993 
L 501.075045 -341.212205 
L 501.68939 -339.093417 
L 502.272305 -336.974628 
L 502.814548 -334.85584 
L 503.310557 -332.737052 
L 503.759564 -330.618263 
L 504.166545 -328.499475 
L 504.542895 -326.380687 
L 504.906745 -324.261898 
L 505.282876 -322.14311 
L 505.702174 -320.024322 
L 506.200642 -317.905533 
L 506.81797 -315.786745 
L 507.595755 -313.667957 
L 508.575427 -311.549168 
L 509.796009 -309.43038 
L 511.291832 -307.311592 
L 513.090351 -305.192803 
L 515.210187 -303.074015 
L 517.659538 -300.955227 
L 520.435067 -298.836438 
L 523.521362 -296.71765 
L 526.891018 -294.598862 
L 530.505374 -292.480073 
L 534.31587 -290.361285 
L 538.265963 -288.242497 
L 542.2935 -286.123708 
L 546.333405 -284.00492 
L 550.320499 -281.886132 
L 554.192292 -279.767343 
L 557.891534 -277.648555 
L 561.368384 -275.529767 
L 564.582025 -273.410978 
L 567.501666 -271.29219 
L 570.106849 -269.173402 
L 572.387103 -267.054613 
L 574.340999 -264.935825 
L 575.974737 -262.817037 
L 577.300409 -260.698248 
L 578.33413 -258.57946 
L 579.09421 -256.460672 
L 579.59952 -254.341883 
L 579.868205 -252.223095 
L 579.9168 -250.104307 
L 579.759794 -247.985518 
L 579.409609 -245.86673 
L 578.876927 -243.747942 
L 578.171251 -241.629153 
L 577.301585 -239.510365 
L 576.277082 -237.391577 
L 575.10757 -235.272788 
L 573.803852 -233.154 
L 572.377733 -231.035212 
L 570.841779 -228.916423 
L 569.20882 -226.797635 
L 567.491288 -224.678847 
L 565.700464 -222.560058 
L 563.845738 -220.44127 
L 561.933993 -218.322482 
L 559.969191 -216.203693 
L 557.952224 -214.084905 
L 555.881081 -211.966117 
L 553.751312 -209.847328 
L 551.556781 -207.72854 
L 549.290633 -205.609752 
L 546.946413 -203.490963 
L 544.519224 -201.372175 
L 542.006833 -199.253387 
L 539.410625 -197.134598 
L 536.736316 -195.01581 
L 533.994356 -192.897022 
L 531.199985 -190.778233 
L 528.372922 -188.659445 
L 525.536714 -186.540657 
L 522.717788 -184.421868 
L 519.944278 -182.30308 
L 517.244722 -180.184292 
L 514.646723 -178.065503 
L 512.175677 -175.946715 
L 509.853663 -173.827927 
L 507.698559 -171.709138 
L 505.723445 -169.59035 
L 503.936308 -167.471562 
L 502.340052 -165.352773 
L 500.932787 -163.233985 
L 499.708345 -161.115197 
L 498.656965 -158.996408 
L 497.766096 -156.87762 
L 497.021221 -154.758832 
z
" id="mb80b2bc4ca" style="stroke:#4d4d4d;stroke-width:1.5;"/>
    </defs>
    <g clip-path="url(#p6ae1926548)">
     <use style="fill:#ecbd81;stroke:#4d4d4d;stroke-width:1.5;" x="0" xlink:href="#mb80b2bc4ca" y="697.68"/>
    </g>
   </g>
   <g id="PolyCollection_3">
    <defs>
     <path d="M 710.179079 -101.1636 
L 706.780921 -101.1636 
L 706.304789 -105.201181 
L 705.726389 -109.238761 
L 705.033085 -113.276342 
L 704.213211 -117.313922 
L 703.256829 -121.351503 
L 702.15656 -125.389083 
L 700.908397 -129.426664 
L 699.512475 -133.464245 
L 697.973691 -137.501825 
L 696.30212 -141.539406 
L 694.513148 -145.576986 
L 692.627276 -149.614567 
L 690.669553 -153.652147 
L 688.66864 -157.689728 
L 686.655549 -161.727309 
L 684.662114 -165.764889 
L 682.719301 -169.80247 
L 680.855495 -173.84005 
L 679.094903 -177.877631 
L 677.456224 -181.915211 
L 675.951712 -185.952792 
L 674.586742 -189.990373 
L 673.359926 -194.027953 
L 672.263788 -198.065534 
L 671.28595 -202.103114 
L 670.410714 -206.140695 
L 669.620893 -210.178275 
L 668.899729 -214.215856 
L 668.232687 -218.253437 
L 667.608978 -222.291017 
L 667.022653 -226.328598 
L 666.473171 -230.366178 
L 665.965415 -234.403759 
L 665.509149 -238.441339 
L 665.118022 -242.47892 
L 664.808206 -246.516501 
L 664.596838 -250.554081 
L 664.500417 -254.591662 
L 664.533312 -258.629242 
L 664.706509 -262.666823 
L 665.026711 -266.704403 
L 665.495828 -270.741984 
L 666.110892 -274.779565 
L 666.864353 -278.817145 
L 667.744714 -282.854726 
L 668.737409 -286.892306 
L 669.825835 -290.929887 
L 670.992434 -294.967467 
L 672.219737 -299.005048 
L 673.491277 -303.042629 
L 674.792331 -307.080209 
L 676.110427 -311.11779 
L 677.435607 -315.15537 
L 678.760455 -319.192951 
L 680.079888 -323.230531 
L 681.390777 -327.268112 
L 682.691415 -331.305693 
L 683.980918 -335.343273 
L 685.258591 -339.380854 
L 686.52335 -343.418434 
L 687.773236 -347.456015 
L 689.005062 -351.493595 
L 690.214254 -355.531176 
L 691.394864 -359.568757 
L 692.539787 -363.606337 
L 693.641136 -367.643918 
L 694.690753 -371.681498 
L 695.680805 -375.719079 
L 696.604399 -379.756659 
L 697.456163 -383.79424 
L 698.232734 -387.83182 
L 698.933101 -391.869401 
L 699.558776 -395.906982 
L 700.113771 -399.944562 
L 700.604375 -403.982143 
L 701.038772 -408.019723 
L 701.426511 -412.057304 
L 701.777889 -416.094884 
L 702.103301 -420.132465 
L 702.4126 -424.170046 
L 702.714537 -428.207626 
L 703.016304 -432.245207 
L 703.323227 -436.282787 
L 703.638605 -440.320368 
L 703.963721 -444.357948 
L 704.297981 -448.395529 
L 704.639185 -452.43311 
L 704.98388 -456.47069 
L 705.327761 -460.508271 
L 705.666086 -464.545851 
L 705.994074 -468.583432 
L 706.307247 -472.621012 
L 706.601709 -476.658593 
L 706.87434 -480.696174 
L 707.122911 -484.733754 
L 707.346121 -488.771335 
L 707.543558 -492.808915 
L 707.715614 -496.846496 
L 707.863361 -500.884076 
L 709.096639 -500.884076 
L 709.096639 -500.884076 
L 709.244386 -496.846496 
L 709.416442 -492.808915 
L 709.613879 -488.771335 
L 709.837089 -484.733754 
L 710.08566 -480.696174 
L 710.358291 -476.658593 
L 710.652753 -472.621012 
L 710.965926 -468.583432 
L 711.293914 -464.545851 
L 711.632239 -460.508271 
L 711.97612 -456.47069 
L 712.320815 -452.43311 
L 712.662019 -448.395529 
L 712.996279 -444.357948 
L 713.321395 -440.320368 
L 713.636773 -436.282787 
L 713.943696 -432.245207 
L 714.245463 -428.207626 
L 714.5474 -424.170046 
L 714.856699 -420.132465 
L 715.182111 -416.094884 
L 715.533489 -412.057304 
L 715.921228 -408.019723 
L 716.355625 -403.982143 
L 716.846229 -399.944562 
L 717.401224 -395.906982 
L 718.026899 -391.869401 
L 718.727266 -387.83182 
L 719.503837 -383.79424 
L 720.355601 -379.756659 
L 721.279195 -375.719079 
L 722.269247 -371.681498 
L 723.318864 -367.643918 
L 724.420213 -363.606337 
L 725.565136 -359.568757 
L 726.745746 -355.531176 
L 727.954938 -351.493595 
L 729.186764 -347.456015 
L 730.43665 -343.418434 
L 731.701409 -339.380854 
L 732.979082 -335.343273 
L 734.268585 -331.305693 
L 735.569223 -327.268112 
L 736.880112 -323.230531 
L 738.199545 -319.192951 
L 739.524393 -315.15537 
L 740.849573 -311.11779 
L 742.167669 -307.080209 
L 743.468723 -303.042629 
L 744.740263 -299.005048 
L 745.967566 -294.967467 
L 747.134165 -290.929887 
L 748.222591 -286.892306 
L 749.215286 -282.854726 
L 750.095647 -278.817145 
L 750.849108 -274.779565 
L 751.464172 -270.741984 
L 751.933289 -266.704403 
L 752.253491 -262.666823 
L 752.426688 -258.629242 
L 752.459583 -254.591662 
L 752.363162 -250.554081 
L 752.151794 -246.516501 
L 751.841978 -242.47892 
L 751.450851 -238.441339 
L 750.994585 -234.403759 
L 750.486829 -230.366178 
L 749.937347 -226.328598 
L 749.351022 -222.291017 
L 748.727313 -218.253437 
L 748.060271 -214.215856 
L 747.339107 -210.178275 
L 746.549286 -206.140695 
L 745.67405 -202.103114 
L 744.696212 -198.065534 
L 743.600074 -194.027953 
L 742.373258 -189.990373 
L 741.008288 -185.952792 
L 739.503776 -181.915211 
L 737.865097 -177.877631 
L 736.104505 -173.84005 
L 734.240699 -169.80247 
L 732.297886 -165.764889 
L 730.304451 -161.727309 
L 728.29136 -157.689728 
L 726.290447 -153.652147 
L 724.332724 -149.614567 
L 722.446852 -145.576986 
L 720.65788 -141.539406 
L 718.986309 -137.501825 
L 717.447525 -133.464245 
L 716.051603 -129.426664 
L 714.80344 -125.389083 
L 713.703171 -121.351503 
L 712.746789 -117.313922 
L 711.926915 -113.276342 
L 711.233611 -109.238761 
L 710.655211 -105.201181 
L 710.179079 -101.1636 
z
" id="m5b33f6ba3c" style="stroke:#4d4d4d;stroke-width:1.5;"/>
    </defs>
    <g clip-path="url(#p6ae1926548)">
     <use style="fill:#f7f7c6;stroke:#4d4d4d;stroke-width:1.5;" x="0" xlink:href="#m5b33f6ba3c" y="697.68"/>
    </g>
   </g>
   <g id="matplotlib.axis_1">
    <g id="xtick_1">
     <g id="line2d_1">
      <defs>
       <path d="M 0 0 
L 0 3.5 
" id="mc6b7e7065e" style="stroke:#000000;stroke-width:0.8;"/>
      </defs>
      <g>
       <use style="stroke:#000000;stroke-width:0.8;" x="279.936" xlink:href="#mc6b7e7065e" y="620.9352"/>
      </g>
     </g>
     <g id="text_1">
      <!-- Player1_healthy -->
      <g transform="translate(239.908656 635.533637)scale(0.1 -0.1)">
       <defs>
        <path d="M 1259 4147 
L 1259 2394 
L 2053 2394 
Q 2494 2394 2734 2622 
Q 2975 2850 2975 3272 
Q 2975 3691 2734 3919 
Q 2494 4147 2053 4147 
L 1259 4147 
z
M 628 4666 
L 2053 4666 
Q 2838 4666 3239 4311 
Q 3641 3956 3641 3272 
Q 3641 2581 3239 2228 
Q 2838 1875 2053 1875 
L 1259 1875 
L 1259 0 
L 628 0 
L 628 4666 
z
" id="DejaVuSans-50" transform="scale(0.015625)"/>
        <path d="M 603 4863 
L 1178 4863 
L 1178 0 
L 603 0 
L 603 4863 
z
" id="DejaVuSans-6c" transform="scale(0.015625)"/>
        <path d="M 2194 1759 
Q 1497 1759 1228 1600 
Q 959 1441 959 1056 
Q 959 750 1161 570 
Q 1363 391 1709 391 
Q 2188 391 2477 730 
Q 2766 1069 2766 1631 
L 2766 1759 
L 2194 1759 
z
M 3341 1997 
L 3341 0 
L 2766 0 
L 2766 531 
Q 2569 213 2275 61 
Q 1981 -91 1556 -91 
Q 1019 -91 701 211 
Q 384 513 384 1019 
Q 384 1609 779 1909 
Q 1175 2209 1959 2209 
L 2766 2209 
L 2766 2266 
Q 2766 2663 2505 2880 
Q 2244 3097 1772 3097 
Q 1472 3097 1187 3025 
Q 903 2953 641 2809 
L 641 3341 
Q 956 3463 1253 3523 
Q 1550 3584 1831 3584 
Q 2591 3584 2966 3190 
Q 3341 2797 3341 1997 
z
" id="DejaVuSans-61" transform="scale(0.015625)"/>
        <path d="M 2059 -325 
Q 1816 -950 1584 -1140 
Q 1353 -1331 966 -1331 
L 506 -1331 
L 506 -850 
L 844 -850 
Q 1081 -850 1212 -737 
Q 1344 -625 1503 -206 
L 1606 56 
L 191 3500 
L 800 3500 
L 1894 763 
L 2988 3500 
L 3597 3500 
L 2059 -325 
z
" id="DejaVuSans-79" transform="scale(0.015625)"/>
        <path d="M 3597 1894 
L 3597 1613 
L 953 1613 
Q 991 1019 1311 708 
Q 1631 397 2203 397 
Q 2534 397 2845 478 
Q 3156 559 3463 722 
L 3463 178 
Q 3153 47 2828 -22 
Q 2503 -91 2169 -91 
Q 1331 -91 842 396 
Q 353 884 353 1716 
Q 353 2575 817 3079 
Q 1281 3584 2069 3584 
Q 2775 3584 3186 3129 
Q 3597 2675 3597 1894 
z
M 3022 2063 
Q 3016 2534 2758 2815 
Q 2500 3097 2075 3097 
Q 1594 3097 1305 2825 
Q 1016 2553 972 2059 
L 3022 2063 
z
" id="DejaVuSans-65" transform="scale(0.015625)"/>
        <path d="M 2631 2963 
Q 2534 3019 2420 3045 
Q 2306 3072 2169 3072 
Q 1681 3072 1420 2755 
Q 1159 2438 1159 1844 
L 1159 0 
L 581 0 
L 581 3500 
L 1159 3500 
L 1159 2956 
Q 1341 3275 1631 3429 
Q 1922 3584 2338 3584 
Q 2397 3584 2469 3576 
Q 2541 3569 2628 3553 
L 2631 2963 
z
" id="DejaVuSans-72" transform="scale(0.015625)"/>
        <path d="M 794 531 
L 1825 531 
L 1825 4091 
L 703 3866 
L 703 4441 
L 1819 4666 
L 2450 4666 
L 2450 531 
L 3481 531 
L 3481 0 
L 794 0 
L 794 531 
z
" id="DejaVuSans-31" transform="scale(0.015625)"/>
        <path d="M 3263 -1063 
L 3263 -1509 
L -63 -1509 
L -63 -1063 
L 3263 -1063 
z
" id="DejaVuSans-5f" transform="scale(0.015625)"/>
        <path d="M 3513 2113 
L 3513 0 
L 2938 0 
L 2938 2094 
Q 2938 2591 2744 2837 
Q 2550 3084 2163 3084 
Q 1697 3084 1428 2787 
Q 1159 2491 1159 1978 
L 1159 0 
L 581 0 
L 581 4863 
L 1159 4863 
L 1159 2956 
Q 1366 3272 1645 3428 
Q 1925 3584 2291 3584 
Q 2894 3584 3203 3211 
Q 3513 2838 3513 2113 
z
" id="DejaVuSans-68" transform="scale(0.015625)"/>
        <path d="M 1172 4494 
L 1172 3500 
L 2356 3500 
L 2356 3053 
L 1172 3053 
L 1172 1153 
Q 1172 725 1289 603 
Q 1406 481 1766 481 
L 2356 481 
L 2356 0 
L 1766 0 
Q 1100 0 847 248 
Q 594 497 594 1153 
L 594 3053 
L 172 3053 
L 172 3500 
L 594 3500 
L 594 4494 
L 1172 4494 
z
" id="DejaVuSans-74" transform="scale(0.015625)"/>
       </defs>
       <use xlink:href="#DejaVuSans-50"/>
       <use x="60.302734" xlink:href="#DejaVuSans-6c"/>
       <use x="88.085938" xlink:href="#DejaVuSans-61"/>
       <use x="149.365234" xlink:href="#DejaVuSans-79"/>
       <use x="208.544922" xlink:href="#DejaVuSans-65"/>
       <use x="270.068359" xlink:href="#DejaVuSans-72"/>
       <use x="311.181641" xlink:href="#DejaVuSans-31"/>
       <use x="374.804688" xlink:href="#DejaVuSans-5f"/>
       <use x="424.804688" xlink:href="#DejaVuSans-68"/>
       <use x="488.183594" xlink:href="#DejaVuSans-65"/>
       <use x="549.707031" xlink:href="#DejaVuSans-61"/>
       <use x="610.986328" xlink:href="#DejaVuSans-6c"/>
       <use x="638.769531" xlink:href="#DejaVuSans-74"/>
       <use x="677.978516" xlink:href="#DejaVuSans-68"/>
       <use x="741.357422" xlink:href="#DejaVuSans-79"/>
      </g>
     </g>
    </g>
    <g id="xtick_2">
     <g id="line2d_2">
      <g>
       <use style="stroke:#000000;stroke-width:0.8;" x="494.208" xlink:href="#mc6b7e7065e" y="620.9352"/>
      </g>
     </g>
     <g id="text_2">
      <!-- Type1_depressed -->
      <g transform="translate(451.13925 635.533637)scale(0.1 -0.1)">
       <defs>
        <path d="M -19 4666 
L 3928 4666 
L 3928 4134 
L 2272 4134 
L 2272 0 
L 1638 0 
L 1638 4134 
L -19 4134 
L -19 4666 
z
" id="DejaVuSans-54" transform="scale(0.015625)"/>
        <path d="M 1159 525 
L 1159 -1331 
L 581 -1331 
L 581 3500 
L 1159 3500 
L 1159 2969 
Q 1341 3281 1617 3432 
Q 1894 3584 2278 3584 
Q 2916 3584 3314 3078 
Q 3713 2572 3713 1747 
Q 3713 922 3314 415 
Q 2916 -91 2278 -91 
Q 1894 -91 1617 61 
Q 1341 213 1159 525 
z
M 3116 1747 
Q 3116 2381 2855 2742 
Q 2594 3103 2138 3103 
Q 1681 3103 1420 2742 
Q 1159 2381 1159 1747 
Q 1159 1113 1420 752 
Q 1681 391 2138 391 
Q 2594 391 2855 752 
Q 3116 1113 3116 1747 
z
" id="DejaVuSans-70" transform="scale(0.015625)"/>
        <path d="M 2906 2969 
L 2906 4863 
L 3481 4863 
L 3481 0 
L 2906 0 
L 2906 525 
Q 2725 213 2448 61 
Q 2172 -91 1784 -91 
Q 1150 -91 751 415 
Q 353 922 353 1747 
Q 353 2572 751 3078 
Q 1150 3584 1784 3584 
Q 2172 3584 2448 3432 
Q 2725 3281 2906 2969 
z
M 947 1747 
Q 947 1113 1208 752 
Q 1469 391 1925 391 
Q 2381 391 2643 752 
Q 2906 1113 2906 1747 
Q 2906 2381 2643 2742 
Q 2381 3103 1925 3103 
Q 1469 3103 1208 2742 
Q 947 2381 947 1747 
z
" id="DejaVuSans-64" transform="scale(0.015625)"/>
        <path d="M 2834 3397 
L 2834 2853 
Q 2591 2978 2328 3040 
Q 2066 3103 1784 3103 
Q 1356 3103 1142 2972 
Q 928 2841 928 2578 
Q 928 2378 1081 2264 
Q 1234 2150 1697 2047 
L 1894 2003 
Q 2506 1872 2764 1633 
Q 3022 1394 3022 966 
Q 3022 478 2636 193 
Q 2250 -91 1575 -91 
Q 1294 -91 989 -36 
Q 684 19 347 128 
L 347 722 
Q 666 556 975 473 
Q 1284 391 1588 391 
Q 1994 391 2212 530 
Q 2431 669 2431 922 
Q 2431 1156 2273 1281 
Q 2116 1406 1581 1522 
L 1381 1569 
Q 847 1681 609 1914 
Q 372 2147 372 2553 
Q 372 3047 722 3315 
Q 1072 3584 1716 3584 
Q 2034 3584 2315 3537 
Q 2597 3491 2834 3397 
z
" id="DejaVuSans-73" transform="scale(0.015625)"/>
       </defs>
       <use xlink:href="#DejaVuSans-54"/>
       <use x="45.458984" xlink:href="#DejaVuSans-79"/>
       <use x="104.638672" xlink:href="#DejaVuSans-70"/>
       <use x="168.115234" xlink:href="#DejaVuSans-65"/>
       <use x="229.638672" xlink:href="#DejaVuSans-31"/>
       <use x="293.261719" xlink:href="#DejaVuSans-5f"/>
       <use x="343.261719" xlink:href="#DejaVuSans-64"/>
       <use x="406.738281" xlink:href="#DejaVuSans-65"/>
       <use x="468.261719" xlink:href="#DejaVuSans-70"/>
       <use x="531.738281" xlink:href="#DejaVuSans-72"/>
       <use x="570.601562" xlink:href="#DejaVuSans-65"/>
       <use x="632.125" xlink:href="#DejaVuSans-73"/>
       <use x="684.224609" xlink:href="#DejaVuSans-73"/>
       <use x="736.324219" xlink:href="#DejaVuSans-65"/>
       <use x="797.847656" xlink:href="#DejaVuSans-64"/>
      </g>
     </g>
    </g>
    <g id="xtick_3">
     <g id="line2d_3">
      <g>
       <use style="stroke:#000000;stroke-width:0.8;" x="708.48" xlink:href="#mc6b7e7065e" y="620.9352"/>
      </g>
     </g>
     <g id="text_3">
      <!-- Type2_depressed -->
      <g transform="translate(665.41125 635.533637)scale(0.1 -0.1)">
       <defs>
        <path d="M 1228 531 
L 3431 531 
L 3431 0 
L 469 0 
L 469 531 
Q 828 903 1448 1529 
Q 2069 2156 2228 2338 
Q 2531 2678 2651 2914 
Q 2772 3150 2772 3378 
Q 2772 3750 2511 3984 
Q 2250 4219 1831 4219 
Q 1534 4219 1204 4116 
Q 875 4013 500 3803 
L 500 4441 
Q 881 4594 1212 4672 
Q 1544 4750 1819 4750 
Q 2544 4750 2975 4387 
Q 3406 4025 3406 3419 
Q 3406 3131 3298 2873 
Q 3191 2616 2906 2266 
Q 2828 2175 2409 1742 
Q 1991 1309 1228 531 
z
" id="DejaVuSans-32" transform="scale(0.015625)"/>
       </defs>
       <use xlink:href="#DejaVuSans-54"/>
       <use x="45.458984" xlink:href="#DejaVuSans-79"/>
       <use x="104.638672" xlink:href="#DejaVuSans-70"/>
       <use x="168.115234" xlink:href="#DejaVuSans-65"/>
       <use x="229.638672" xlink:href="#DejaVuSans-32"/>
       <use x="293.261719" xlink:href="#DejaVuSans-5f"/>
       <use x="343.261719" xlink:href="#DejaVuSans-64"/>
       <use x="406.738281" xlink:href="#DejaVuSans-65"/>
       <use x="468.261719" xlink:href="#DejaVuSans-70"/>
       <use x="531.738281" xlink:href="#DejaVuSans-72"/>
       <use x="570.601562" xlink:href="#DejaVuSans-65"/>
       <use x="632.125" xlink:href="#DejaVuSans-73"/>
       <use x="684.224609" xlink:href="#DejaVuSans-73"/>
       <use x="736.324219" xlink:href="#DejaVuSans-65"/>
       <use x="797.847656" xlink:href="#DejaVuSans-64"/>
      </g>
     </g>
    </g>
    <g id="xtick_4">
     <g id="line2d_4">
      <g>
       <use style="stroke:#000000;stroke-width:0.8;" x="922.752" xlink:href="#mc6b7e7065e" y="620.9352"/>
      </g>
     </g>
     <g id="text_4">
      <!-- Type1_social_phobia -->
      <g transform="translate(871.802781 635.533637)scale(0.1 -0.1)">
       <defs>
        <path d="M 1959 3097 
Q 1497 3097 1228 2736 
Q 959 2375 959 1747 
Q 959 1119 1226 758 
Q 1494 397 1959 397 
Q 2419 397 2687 759 
Q 2956 1122 2956 1747 
Q 2956 2369 2687 2733 
Q 2419 3097 1959 3097 
z
M 1959 3584 
Q 2709 3584 3137 3096 
Q 3566 2609 3566 1747 
Q 3566 888 3137 398 
Q 2709 -91 1959 -91 
Q 1206 -91 779 398 
Q 353 888 353 1747 
Q 353 2609 779 3096 
Q 1206 3584 1959 3584 
z
" id="DejaVuSans-6f" transform="scale(0.015625)"/>
        <path d="M 3122 3366 
L 3122 2828 
Q 2878 2963 2633 3030 
Q 2388 3097 2138 3097 
Q 1578 3097 1268 2742 
Q 959 2388 959 1747 
Q 959 1106 1268 751 
Q 1578 397 2138 397 
Q 2388 397 2633 464 
Q 2878 531 3122 666 
L 3122 134 
Q 2881 22 2623 -34 
Q 2366 -91 2075 -91 
Q 1284 -91 818 406 
Q 353 903 353 1747 
Q 353 2603 823 3093 
Q 1294 3584 2113 3584 
Q 2378 3584 2631 3529 
Q 2884 3475 3122 3366 
z
" id="DejaVuSans-63" transform="scale(0.015625)"/>
        <path d="M 603 3500 
L 1178 3500 
L 1178 0 
L 603 0 
L 603 3500 
z
M 603 4863 
L 1178 4863 
L 1178 4134 
L 603 4134 
L 603 4863 
z
" id="DejaVuSans-69" transform="scale(0.015625)"/>
        <path d="M 3116 1747 
Q 3116 2381 2855 2742 
Q 2594 3103 2138 3103 
Q 1681 3103 1420 2742 
Q 1159 2381 1159 1747 
Q 1159 1113 1420 752 
Q 1681 391 2138 391 
Q 2594 391 2855 752 
Q 3116 1113 3116 1747 
z
M 1159 2969 
Q 1341 3281 1617 3432 
Q 1894 3584 2278 3584 
Q 2916 3584 3314 3078 
Q 3713 2572 3713 1747 
Q 3713 922 3314 415 
Q 2916 -91 2278 -91 
Q 1894 -91 1617 61 
Q 1341 213 1159 525 
L 1159 0 
L 581 0 
L 581 4863 
L 1159 4863 
L 1159 2969 
z
" id="DejaVuSans-62" transform="scale(0.015625)"/>
       </defs>
       <use xlink:href="#DejaVuSans-54"/>
       <use x="45.458984" xlink:href="#DejaVuSans-79"/>
       <use x="104.638672" xlink:href="#DejaVuSans-70"/>
       <use x="168.115234" xlink:href="#DejaVuSans-65"/>
       <use x="229.638672" xlink:href="#DejaVuSans-31"/>
       <use x="293.261719" xlink:href="#DejaVuSans-5f"/>
       <use x="343.261719" xlink:href="#DejaVuSans-73"/>
       <use x="395.361328" xlink:href="#DejaVuSans-6f"/>
       <use x="456.542969" xlink:href="#DejaVuSans-63"/>
       <use x="511.523438" xlink:href="#DejaVuSans-69"/>
       <use x="539.306641" xlink:href="#DejaVuSans-61"/>
       <use x="600.585938" xlink:href="#DejaVuSans-6c"/>
       <use x="628.369141" xlink:href="#DejaVuSans-5f"/>
       <use x="678.369141" xlink:href="#DejaVuSans-70"/>
       <use x="741.845703" xlink:href="#DejaVuSans-68"/>
       <use x="805.224609" xlink:href="#DejaVuSans-6f"/>
       <use x="866.40625" xlink:href="#DejaVuSans-62"/>
       <use x="929.882812" xlink:href="#DejaVuSans-69"/>
       <use x="957.666016" xlink:href="#DejaVuSans-61"/>
      </g>
     </g>
    </g>
    <g id="xtick_5">
     <g id="line2d_5">
      <g>
       <use style="stroke:#000000;stroke-width:0.8;" x="1137.024" xlink:href="#mc6b7e7065e" y="620.9352"/>
      </g>
     </g>
     <g id="text_5">
      <!-- Type2_social_phobia -->
      <g transform="translate(1086.074781 635.533637)scale(0.1 -0.1)">
       <use xlink:href="#DejaVuSans-54"/>
       <use x="45.458984" xlink:href="#DejaVuSans-79"/>
       <use x="104.638672" xlink:href="#DejaVuSans-70"/>
       <use x="168.115234" xlink:href="#DejaVuSans-65"/>
       <use x="229.638672" xlink:href="#DejaVuSans-32"/>
       <use x="293.261719" xlink:href="#DejaVuSans-5f"/>
       <use x="343.261719" xlink:href="#DejaVuSans-73"/>
       <use x="395.361328" xlink:href="#DejaVuSans-6f"/>
       <use x="456.542969" xlink:href="#DejaVuSans-63"/>
       <use x="511.523438" xlink:href="#DejaVuSans-69"/>
       <use x="539.306641" xlink:href="#DejaVuSans-61"/>
       <use x="600.585938" xlink:href="#DejaVuSans-6c"/>
       <use x="628.369141" xlink:href="#DejaVuSans-5f"/>
       <use x="678.369141" xlink:href="#DejaVuSans-70"/>
       <use x="741.845703" xlink:href="#DejaVuSans-68"/>
       <use x="805.224609" xlink:href="#DejaVuSans-6f"/>
       <use x="866.40625" xlink:href="#DejaVuSans-62"/>
       <use x="929.882812" xlink:href="#DejaVuSans-69"/>
       <use x="957.666016" xlink:href="#DejaVuSans-61"/>
      </g>
     </g>
    </g>
   </g>
   <g id="matplotlib.axis_2">
    <g id="ytick_1">
     <g id="line2d_6">
      <defs>
       <path d="M 0 0 
L -3.5 0 
" id="m189365d47c" style="stroke:#000000;stroke-width:0.8;"/>
      </defs>
      <g>
       <use style="stroke:#000000;stroke-width:0.8;" x="172.8" xlink:href="#m189365d47c" y="610.115554"/>
      </g>
     </g>
     <g id="text_6">
      <!-- 50 -->
      <g transform="translate(153.075 613.914772)scale(0.1 -0.1)">
       <defs>
        <path d="M 691 4666 
L 3169 4666 
L 3169 4134 
L 1269 4134 
L 1269 2991 
Q 1406 3038 1543 3061 
Q 1681 3084 1819 3084 
Q 2600 3084 3056 2656 
Q 3513 2228 3513 1497 
Q 3513 744 3044 326 
Q 2575 -91 1722 -91 
Q 1428 -91 1123 -41 
Q 819 9 494 109 
L 494 744 
Q 775 591 1075 516 
Q 1375 441 1709 441 
Q 2250 441 2565 725 
Q 2881 1009 2881 1497 
Q 2881 1984 2565 2268 
Q 2250 2553 1709 2553 
Q 1456 2553 1204 2497 
Q 953 2441 691 2322 
L 691 4666 
z
" id="DejaVuSans-35" transform="scale(0.015625)"/>
        <path d="M 2034 4250 
Q 1547 4250 1301 3770 
Q 1056 3291 1056 2328 
Q 1056 1369 1301 889 
Q 1547 409 2034 409 
Q 2525 409 2770 889 
Q 3016 1369 3016 2328 
Q 3016 3291 2770 3770 
Q 2525 4250 2034 4250 
z
M 2034 4750 
Q 2819 4750 3233 4129 
Q 3647 3509 3647 2328 
Q 3647 1150 3233 529 
Q 2819 -91 2034 -91 
Q 1250 -91 836 529 
Q 422 1150 422 2328 
Q 422 3509 836 4129 
Q 1250 4750 2034 4750 
z
" id="DejaVuSans-30" transform="scale(0.015625)"/>
       </defs>
       <use xlink:href="#DejaVuSans-35"/>
       <use x="63.623047" xlink:href="#DejaVuSans-30"/>
      </g>
     </g>
    </g>
    <g id="ytick_2">
     <g id="line2d_7">
      <g>
       <use style="stroke:#000000;stroke-width:0.8;" x="172.8" xlink:href="#m189365d47c" y="522.989271"/>
      </g>
     </g>
     <g id="text_7">
      <!-- 60 -->
      <g transform="translate(153.075 526.78849)scale(0.1 -0.1)">
       <defs>
        <path d="M 2113 2584 
Q 1688 2584 1439 2293 
Q 1191 2003 1191 1497 
Q 1191 994 1439 701 
Q 1688 409 2113 409 
Q 2538 409 2786 701 
Q 3034 994 3034 1497 
Q 3034 2003 2786 2293 
Q 2538 2584 2113 2584 
z
M 3366 4563 
L 3366 3988 
Q 3128 4100 2886 4159 
Q 2644 4219 2406 4219 
Q 1781 4219 1451 3797 
Q 1122 3375 1075 2522 
Q 1259 2794 1537 2939 
Q 1816 3084 2150 3084 
Q 2853 3084 3261 2657 
Q 3669 2231 3669 1497 
Q 3669 778 3244 343 
Q 2819 -91 2113 -91 
Q 1303 -91 875 529 
Q 447 1150 447 2328 
Q 447 3434 972 4092 
Q 1497 4750 2381 4750 
Q 2619 4750 2861 4703 
Q 3103 4656 3366 4563 
z
" id="DejaVuSans-36" transform="scale(0.015625)"/>
       </defs>
       <use xlink:href="#DejaVuSans-36"/>
       <use x="63.623047" xlink:href="#DejaVuSans-30"/>
      </g>
     </g>
    </g>
    <g id="ytick_3">
     <g id="line2d_8">
      <g>
       <use style="stroke:#000000;stroke-width:0.8;" x="172.8" xlink:href="#m189365d47c" y="435.862989"/>
      </g>
     </g>
     <g id="text_8">
      <!-- 70 -->
      <g transform="translate(153.075 439.662208)scale(0.1 -0.1)">
       <defs>
        <path d="M 525 4666 
L 3525 4666 
L 3525 4397 
L 1831 0 
L 1172 0 
L 2766 4134 
L 525 4134 
L 525 4666 
z
" id="DejaVuSans-37" transform="scale(0.015625)"/>
       </defs>
       <use xlink:href="#DejaVuSans-37"/>
       <use x="63.623047" xlink:href="#DejaVuSans-30"/>
      </g>
     </g>
    </g>
    <g id="ytick_4">
     <g id="line2d_9">
      <g>
       <use style="stroke:#000000;stroke-width:0.8;" x="172.8" xlink:href="#m189365d47c" y="348.736706"/>
      </g>
     </g>
     <g id="text_9">
      <!-- 80 -->
      <g transform="translate(153.075 352.535925)scale(0.1 -0.1)">
       <defs>
        <path d="M 2034 2216 
Q 1584 2216 1326 1975 
Q 1069 1734 1069 1313 
Q 1069 891 1326 650 
Q 1584 409 2034 409 
Q 2484 409 2743 651 
Q 3003 894 3003 1313 
Q 3003 1734 2745 1975 
Q 2488 2216 2034 2216 
z
M 1403 2484 
Q 997 2584 770 2862 
Q 544 3141 544 3541 
Q 544 4100 942 4425 
Q 1341 4750 2034 4750 
Q 2731 4750 3128 4425 
Q 3525 4100 3525 3541 
Q 3525 3141 3298 2862 
Q 3072 2584 2669 2484 
Q 3125 2378 3379 2068 
Q 3634 1759 3634 1313 
Q 3634 634 3220 271 
Q 2806 -91 2034 -91 
Q 1263 -91 848 271 
Q 434 634 434 1313 
Q 434 1759 690 2068 
Q 947 2378 1403 2484 
z
M 1172 3481 
Q 1172 3119 1398 2916 
Q 1625 2713 2034 2713 
Q 2441 2713 2670 2916 
Q 2900 3119 2900 3481 
Q 2900 3844 2670 4047 
Q 2441 4250 2034 4250 
Q 1625 4250 1398 4047 
Q 1172 3844 1172 3481 
z
" id="DejaVuSans-38" transform="scale(0.015625)"/>
       </defs>
       <use xlink:href="#DejaVuSans-38"/>
       <use x="63.623047" xlink:href="#DejaVuSans-30"/>
      </g>
     </g>
    </g>
    <g id="ytick_5">
     <g id="line2d_10">
      <g>
       <use style="stroke:#000000;stroke-width:0.8;" x="172.8" xlink:href="#m189365d47c" y="261.610424"/>
      </g>
     </g>
     <g id="text_10">
      <!-- 90 -->
      <g transform="translate(153.075 265.409643)scale(0.1 -0.1)">
       <defs>
        <path d="M 703 97 
L 703 672 
Q 941 559 1184 500 
Q 1428 441 1663 441 
Q 2288 441 2617 861 
Q 2947 1281 2994 2138 
Q 2813 1869 2534 1725 
Q 2256 1581 1919 1581 
Q 1219 1581 811 2004 
Q 403 2428 403 3163 
Q 403 3881 828 4315 
Q 1253 4750 1959 4750 
Q 2769 4750 3195 4129 
Q 3622 3509 3622 2328 
Q 3622 1225 3098 567 
Q 2575 -91 1691 -91 
Q 1453 -91 1209 -44 
Q 966 3 703 97 
z
M 1959 2075 
Q 2384 2075 2632 2365 
Q 2881 2656 2881 3163 
Q 2881 3666 2632 3958 
Q 2384 4250 1959 4250 
Q 1534 4250 1286 3958 
Q 1038 3666 1038 3163 
Q 1038 2656 1286 2365 
Q 1534 2075 1959 2075 
z
" id="DejaVuSans-39" transform="scale(0.015625)"/>
       </defs>
       <use xlink:href="#DejaVuSans-39"/>
       <use x="63.623047" xlink:href="#DejaVuSans-30"/>
      </g>
     </g>
    </g>
    <g id="ytick_6">
     <g id="line2d_11">
      <g>
       <use style="stroke:#000000;stroke-width:0.8;" x="172.8" xlink:href="#m189365d47c" y="174.484142"/>
      </g>
     </g>
     <g id="text_11">
      <!-- 100 -->
      <g transform="translate(146.7125 178.28336)scale(0.1 -0.1)">
       <use xlink:href="#DejaVuSans-31"/>
       <use x="63.623047" xlink:href="#DejaVuSans-30"/>
       <use x="127.246094" xlink:href="#DejaVuSans-30"/>
      </g>
     </g>
    </g>
    <g id="ytick_7">
     <g id="line2d_12">
      <g>
       <use style="stroke:#000000;stroke-width:0.8;" x="172.8" xlink:href="#m189365d47c" y="87.357859"/>
      </g>
     </g>
     <g id="text_12">
      <!-- 110 -->
      <g transform="translate(146.7125 91.157078)scale(0.1 -0.1)">
       <use xlink:href="#DejaVuSans-31"/>
       <use x="63.623047" xlink:href="#DejaVuSans-31"/>
       <use x="127.246094" xlink:href="#DejaVuSans-30"/>
      </g>
     </g>
    </g>
   </g>
   <g id="line2d_13">
    <path clip-path="url(#p6ae1926548)" d="M 279.936 479.42613 
L 279.936 187.553084 
" style="fill:none;stroke:#4d4d4d;stroke-linecap:square;stroke-width:1.5;"/>
   </g>
   <g id="line2d_14">
    <path clip-path="url(#p6ae1926548)" d="M 279.936 380.319984 
L 279.936 299.728173 
" style="fill:none;stroke:#4d4d4d;stroke-linecap:square;stroke-width:4.5;"/>
   </g>
   <g id="line2d_15">
    <path clip-path="url(#p6ae1926548)" d="M 494.208 505.564015 
L 494.208 370.518277 
" style="fill:none;stroke:#4d4d4d;stroke-linecap:square;stroke-width:1.5;"/>
   </g>
   <g id="line2d_16">
    <path clip-path="url(#p6ae1926548)" d="M 494.208 476.158894 
L 494.208 430.417596 
" style="fill:none;stroke:#4d4d4d;stroke-linecap:square;stroke-width:4.5;"/>
   </g>
   <g id="line2d_17">
    <path clip-path="url(#p6ae1926548)" d="M 708.48 522.989271 
L 708.48 270.323052 
" style="fill:none;stroke:#4d4d4d;stroke-linecap:square;stroke-width:1.5;"/>
   </g>
   <g id="line2d_18">
    <path clip-path="url(#p6ae1926548)" d="M 708.48 502.296779 
L 708.48 396.656162 
" style="fill:none;stroke:#4d4d4d;stroke-linecap:square;stroke-width:4.5;"/>
   </g>
   <g id="line2d_19">
    <path clip-path="url(#p6ae1926548)" d="M 837.0432 514.276643 
L 1008.4608 514.276643 
" style="fill:none;stroke:#4d4d4d;stroke-linecap:square;stroke-width:1.5;"/>
   </g>
   <g id="line2d_20">
    <path clip-path="url(#p6ae1926548)" d="M 1051.3152 514.276643 
L 1222.7328 514.276643 
" style="fill:none;stroke:#4d4d4d;stroke-linecap:square;stroke-width:1.5;"/>
   </g>
   <g id="patch_3">
    <path d="M 172.8 620.9352 
L 172.8 83.7216 
" style="fill:none;stroke:#000000;stroke-linecap:square;stroke-linejoin:miter;stroke-width:0.8;"/>
   </g>
   <g id="patch_4">
    <path d="M 1244.16 620.9352 
L 1244.16 83.7216 
" style="fill:none;stroke:#000000;stroke-linecap:square;stroke-linejoin:miter;stroke-width:0.8;"/>
   </g>
   <g id="patch_5">
    <path d="M 172.8 620.9352 
L 1244.16 620.9352 
" style="fill:none;stroke:#000000;stroke-linecap:square;stroke-linejoin:miter;stroke-width:0.8;"/>
   </g>
   <g id="patch_6">
    <path d="M 172.8 83.7216 
L 1244.16 83.7216 
" style="fill:none;stroke:#000000;stroke-linecap:square;stroke-linejoin:miter;stroke-width:0.8;"/>
   </g>
   <g id="PathCollection_1">
    <defs>
     <path d="M 0 1.5 
C 0.397805 1.5 0.77937 1.341951 1.06066 1.06066 
C 1.341951 0.77937 1.5 0.397805 1.5 0 
C 1.5 -0.397805 1.341951 -0.77937 1.06066 -1.06066 
C 0.77937 -1.341951 0.397805 -1.5 0 -1.5 
C -0.397805 -1.5 -0.77937 -1.341951 -1.06066 -1.06066 
C -1.341951 -0.77937 -1.5 -0.397805 -1.5 0 
C -1.5 0.397805 -1.341951 0.77937 -1.06066 1.06066 
C -0.77937 1.341951 -0.397805 1.5 0 1.5 
z
" id="m34d5551ebf" style="stroke:#4d4d4d;"/>
    </defs>
    <g clip-path="url(#p6ae1926548)">
     <use style="fill:#ffffff;stroke:#4d4d4d;" x="279.936" xlink:href="#m34d5551ebf" y="353.093021"/>
    </g>
   </g>
   <g id="PathCollection_2">
    <g clip-path="url(#p6ae1926548)">
     <use style="fill:#ffffff;stroke:#4d4d4d;" x="494.208" xlink:href="#m34d5551ebf" y="453.288245"/>
    </g>
   </g>
   <g id="PathCollection_3">
    <g clip-path="url(#p6ae1926548)">
     <use style="fill:#ffffff;stroke:#4d4d4d;" x="708.48" xlink:href="#m34d5551ebf" y="442.39746"/>
    </g>
   </g>
   <g id="text_13">
    <!-- Rewards earned per agent type - cooperative context first -->
    <g transform="translate(344.905781 77.7216)scale(0.25 -0.25)">
     <defs>
      <path d="M 2841 2188 
Q 3044 2119 3236 1894 
Q 3428 1669 3622 1275 
L 4263 0 
L 3584 0 
L 2988 1197 
Q 2756 1666 2539 1819 
Q 2322 1972 1947 1972 
L 1259 1972 
L 1259 0 
L 628 0 
L 628 4666 
L 2053 4666 
Q 2853 4666 3247 4331 
Q 3641 3997 3641 3322 
Q 3641 2881 3436 2590 
Q 3231 2300 2841 2188 
z
M 1259 4147 
L 1259 2491 
L 2053 2491 
Q 2509 2491 2742 2702 
Q 2975 2913 2975 3322 
Q 2975 3731 2742 3939 
Q 2509 4147 2053 4147 
L 1259 4147 
z
" id="DejaVuSans-52" transform="scale(0.015625)"/>
      <path d="M 269 3500 
L 844 3500 
L 1563 769 
L 2278 3500 
L 2956 3500 
L 3675 769 
L 4391 3500 
L 4966 3500 
L 4050 0 
L 3372 0 
L 2619 2869 
L 1863 0 
L 1184 0 
L 269 3500 
z
" id="DejaVuSans-77" transform="scale(0.015625)"/>
      <path id="DejaVuSans-20" transform="scale(0.015625)"/>
      <path d="M 3513 2113 
L 3513 0 
L 2938 0 
L 2938 2094 
Q 2938 2591 2744 2837 
Q 2550 3084 2163 3084 
Q 1697 3084 1428 2787 
Q 1159 2491 1159 1978 
L 1159 0 
L 581 0 
L 581 3500 
L 1159 3500 
L 1159 2956 
Q 1366 3272 1645 3428 
Q 1925 3584 2291 3584 
Q 2894 3584 3203 3211 
Q 3513 2838 3513 2113 
z
" id="DejaVuSans-6e" transform="scale(0.015625)"/>
      <path d="M 2906 1791 
Q 2906 2416 2648 2759 
Q 2391 3103 1925 3103 
Q 1463 3103 1205 2759 
Q 947 2416 947 1791 
Q 947 1169 1205 825 
Q 1463 481 1925 481 
Q 2391 481 2648 825 
Q 2906 1169 2906 1791 
z
M 3481 434 
Q 3481 -459 3084 -895 
Q 2688 -1331 1869 -1331 
Q 1566 -1331 1297 -1286 
Q 1028 -1241 775 -1147 
L 775 -588 
Q 1028 -725 1275 -790 
Q 1522 -856 1778 -856 
Q 2344 -856 2625 -561 
Q 2906 -266 2906 331 
L 2906 616 
Q 2728 306 2450 153 
Q 2172 0 1784 0 
Q 1141 0 747 490 
Q 353 981 353 1791 
Q 353 2603 747 3093 
Q 1141 3584 1784 3584 
Q 2172 3584 2450 3431 
Q 2728 3278 2906 2969 
L 2906 3500 
L 3481 3500 
L 3481 434 
z
" id="DejaVuSans-67" transform="scale(0.015625)"/>
      <path d="M 313 2009 
L 1997 2009 
L 1997 1497 
L 313 1497 
L 313 2009 
z
" id="DejaVuSans-2d" transform="scale(0.015625)"/>
      <path d="M 191 3500 
L 800 3500 
L 1894 563 
L 2988 3500 
L 3597 3500 
L 2284 0 
L 1503 0 
L 191 3500 
z
" id="DejaVuSans-76" transform="scale(0.015625)"/>
      <path d="M 3513 3500 
L 2247 1797 
L 3578 0 
L 2900 0 
L 1881 1375 
L 863 0 
L 184 0 
L 1544 1831 
L 300 3500 
L 978 3500 
L 1906 2253 
L 2834 3500 
L 3513 3500 
z
" id="DejaVuSans-78" transform="scale(0.015625)"/>
      <path d="M 2375 4863 
L 2375 4384 
L 1825 4384 
Q 1516 4384 1395 4259 
Q 1275 4134 1275 3809 
L 1275 3500 
L 2222 3500 
L 2222 3053 
L 1275 3053 
L 1275 0 
L 697 0 
L 697 3053 
L 147 3053 
L 147 3500 
L 697 3500 
L 697 3744 
Q 697 4328 969 4595 
Q 1241 4863 1831 4863 
L 2375 4863 
z
" id="DejaVuSans-66" transform="scale(0.015625)"/>
     </defs>
     <use xlink:href="#DejaVuSans-52"/>
     <use x="64.982422" xlink:href="#DejaVuSans-65"/>
     <use x="126.505859" xlink:href="#DejaVuSans-77"/>
     <use x="208.292969" xlink:href="#DejaVuSans-61"/>
     <use x="269.572266" xlink:href="#DejaVuSans-72"/>
     <use x="308.935547" xlink:href="#DejaVuSans-64"/>
     <use x="372.412109" xlink:href="#DejaVuSans-73"/>
     <use x="424.511719" xlink:href="#DejaVuSans-20"/>
     <use x="456.298828" xlink:href="#DejaVuSans-65"/>
     <use x="517.822266" xlink:href="#DejaVuSans-61"/>
     <use x="579.101562" xlink:href="#DejaVuSans-72"/>
     <use x="618.464844" xlink:href="#DejaVuSans-6e"/>
     <use x="681.84375" xlink:href="#DejaVuSans-65"/>
     <use x="743.367188" xlink:href="#DejaVuSans-64"/>
     <use x="806.84375" xlink:href="#DejaVuSans-20"/>
     <use x="838.630859" xlink:href="#DejaVuSans-70"/>
     <use x="902.107422" xlink:href="#DejaVuSans-65"/>
     <use x="963.630859" xlink:href="#DejaVuSans-72"/>
     <use x="1004.744141" xlink:href="#DejaVuSans-20"/>
     <use x="1036.53125" xlink:href="#DejaVuSans-61"/>
     <use x="1097.810547" xlink:href="#DejaVuSans-67"/>
     <use x="1161.287109" xlink:href="#DejaVuSans-65"/>
     <use x="1222.810547" xlink:href="#DejaVuSans-6e"/>
     <use x="1286.189453" xlink:href="#DejaVuSans-74"/>
     <use x="1325.398438" xlink:href="#DejaVuSans-20"/>
     <use x="1357.185547" xlink:href="#DejaVuSans-74"/>
     <use x="1396.394531" xlink:href="#DejaVuSans-79"/>
     <use x="1455.574219" xlink:href="#DejaVuSans-70"/>
     <use x="1519.050781" xlink:href="#DejaVuSans-65"/>
     <use x="1580.574219" xlink:href="#DejaVuSans-20"/>
     <use x="1612.361328" xlink:href="#DejaVuSans-2d"/>
     <use x="1648.445312" xlink:href="#DejaVuSans-20"/>
     <use x="1680.232422" xlink:href="#DejaVuSans-63"/>
     <use x="1735.212891" xlink:href="#DejaVuSans-6f"/>
     <use x="1796.394531" xlink:href="#DejaVuSans-6f"/>
     <use x="1857.576172" xlink:href="#DejaVuSans-70"/>
     <use x="1921.052734" xlink:href="#DejaVuSans-65"/>
     <use x="1982.576172" xlink:href="#DejaVuSans-72"/>
     <use x="2023.689453" xlink:href="#DejaVuSans-61"/>
     <use x="2084.96875" xlink:href="#DejaVuSans-74"/>
     <use x="2124.177734" xlink:href="#DejaVuSans-69"/>
     <use x="2151.960938" xlink:href="#DejaVuSans-76"/>
     <use x="2211.140625" xlink:href="#DejaVuSans-65"/>
     <use x="2272.664062" xlink:href="#DejaVuSans-20"/>
     <use x="2304.451172" xlink:href="#DejaVuSans-63"/>
     <use x="2359.431641" xlink:href="#DejaVuSans-6f"/>
     <use x="2420.613281" xlink:href="#DejaVuSans-6e"/>
     <use x="2483.992188" xlink:href="#DejaVuSans-74"/>
     <use x="2523.201172" xlink:href="#DejaVuSans-65"/>
     <use x="2582.974609" xlink:href="#DejaVuSans-78"/>
     <use x="2642.154297" xlink:href="#DejaVuSans-74"/>
     <use x="2681.363281" xlink:href="#DejaVuSans-20"/>
     <use x="2713.150391" xlink:href="#DejaVuSans-66"/>
     <use x="2748.355469" xlink:href="#DejaVuSans-69"/>
     <use x="2776.138672" xlink:href="#DejaVuSans-72"/>
     <use x="2817.251953" xlink:href="#DejaVuSans-73"/>
     <use x="2869.351562" xlink:href="#DejaVuSans-74"/>
    </g>
   </g>
  </g>
 </g>
 <defs>
  <clipPath id="p6ae1926548">
   <rect height="537.2136" width="1071.36" x="172.8" y="83.7216"/>
  </clipPath>
 </defs>
</svg>
