<?xml version="1.0" encoding="utf-8" standalone="no"?>
<!DOCTYPE svg PUBLIC "-//W3C//DTD SVG 1.1//EN"
  "http://www.w3.org/Graphics/SVG/1.1/DTD/svg11.dtd">
<svg height="702pt" version="1.1" viewBox="0 0 1382.4 702" width="1382.4pt" xmlns="http://www.w3.org/2000/svg" xmlns:xlink="http://www.w3.org/1999/xlink">
 <metadata>
  <rdf:RDF xmlns:cc="http://creativecommons.org/ns#" xmlns:dc="http://purl.org/dc/elements/1.1/" xmlns:rdf="http://www.w3.org/1999/02/22-rdf-syntax-ns#">
   <cc:Work>
    <dc:type rdf:resource="http://purl.org/dc/dcmitype/StillImage"/>
    <dc:date>2024-06-18T18:50:40.526169</dc:date>
    <dc:format>image/svg+xml</dc:format>
    <dc:creator>
     <cc:Agent>
      <dc:title>Matplotlib v3.4.3, https://matplotlib.org/</dc:title>
     </cc:Agent>
    </dc:creator>
   </cc:Work>
  </rdf:RDF>
 </metadata>
 <defs>
  <style type="text/css">*{stroke-linecap:butt;stroke-linejoin:round;}</style>
 </defs>
 <g id="figure_1">
  <g id="patch_1">
   <path d="M 0 702 
L 1382.4 702 
L 1382.4 0 
L 0 0 
z
" style="fill:#ffffff;"/>
  </g>
  <g id="axes_1">
   <g id="patch_2">
    <path d="M 81.024 647.049 
L 1369.44 647.049 
L 1369.44 34.9128 
L 81.024 34.9128 
z
" style="fill:#ffffff;"/>
   </g>
   <g id="PathCollection_1">
    <path clip-path="url(#p2ac7907363)" d="M 154.229455 113.652567 
L 160.353179 101.405119 
L 148.10573 101.405119 
z
" style="fill:#ff0000;stroke:#ff0000;"/>
    <path clip-path="url(#p2ac7907363)" d="M 183.511636 61.145496 
L 189.635361 48.898048 
L 177.387912 48.898048 
z
" style="fill:#ff0000;stroke:#ff0000;"/>
    <path clip-path="url(#p2ac7907363)" d="M 212.793818 57.618576 
L 218.917543 45.371128 
L 206.670094 45.371128 
z
" style="fill:#ff0000;stroke:#ff0000;"/>
    <path clip-path="url(#p2ac7907363)" d="M 242.076 56.453626 
L 248.199724 44.206177 
L 235.952276 44.206177 
z
" style="fill:#ff0000;stroke:#ff0000;"/>
    <path clip-path="url(#p2ac7907363)" d="M 271.358182 55.937399 
L 277.481906 43.68995 
L 265.234457 43.68995 
z
" style="fill:#ff0000;stroke:#ff0000;"/>
    <path clip-path="url(#p2ac7907363)" d="M 300.640364 55.629743 
L 306.764088 43.382295 
L 294.516639 43.382295 
z
" style="fill:#ff0000;stroke:#ff0000;"/>
    <path clip-path="url(#p2ac7907363)" d="M 329.922545 55.408044 
L 336.04627 43.160595 
L 323.798821 43.160595 
z
" style="fill:#ff0000;stroke:#ff0000;"/>
    <path clip-path="url(#p2ac7907363)" d="M 359.204727 55.234246 
L 365.328452 42.986797 
L 353.081003 42.986797 
z
" style="fill:#ff0000;stroke:#ff0000;"/>
    <path clip-path="url(#p2ac7907363)" d="M 388.486909 272.158931 
L 382.363185 284.40638 
L 394.610633 284.40638 
z
" style="fill:#0000ff;stroke:#0000ff;"/>
    <path clip-path="url(#p2ac7907363)" d="M 417.769091 312.363636 
L 423.892815 300.116187 
L 411.645367 300.116187 
z
" style="fill:#ff0000;stroke:#ff0000;"/>
    <path clip-path="url(#p2ac7907363)" d="M 443.989411 131.835757 
L 447.051273 128.773895 
L 450.113135 131.835757 
L 453.174997 128.773895 
L 450.113135 125.712032 
L 453.174997 122.65017 
L 450.113135 119.588308 
L 447.051273 122.65017 
L 443.989411 119.588308 
L 440.927548 122.65017 
L 443.989411 125.712032 
L 440.927548 128.773895 
z
" style="stroke:#000000;"/>
    <path clip-path="url(#p2ac7907363)" d="M 473.271592 158.86431 
L 476.333455 155.802448 
L 479.395317 158.86431 
L 482.457179 155.802448 
L 479.395317 152.740586 
L 482.457179 149.678724 
L 479.395317 146.616861 
L 476.333455 149.678724 
L 473.271592 146.616861 
L 470.20973 149.678724 
L 473.271592 152.740586 
L 470.20973 155.802448 
z
" style="stroke:#000000;"/>
    <path clip-path="url(#p2ac7907363)" d="M 502.553774 168.219017 
L 505.615636 165.157155 
L 508.677499 168.219017 
L 511.739361 165.157155 
L 508.677499 162.095293 
L 511.739361 159.033431 
L 508.677499 155.971569 
L 505.615636 159.033431 
L 502.553774 155.971569 
L 499.491912 159.033431 
L 502.553774 162.095293 
L 499.491912 165.157155 
z
" style="stroke:#000000;"/>
    <path clip-path="url(#p2ac7907363)" d="M 534.897818 125.999661 
L 541.021543 113.752213 
L 528.774094 113.752213 
z
" style="fill:#ff0000;stroke:#ff0000;"/>
    <path clip-path="url(#p2ac7907363)" d="M 561.118138 105.891974 
L 564.18 102.830112 
L 567.241862 105.891974 
L 570.303724 102.830112 
L 567.241862 99.768249 
L 570.303724 96.706387 
L 567.241862 93.644525 
L 564.18 96.706387 
L 561.118138 93.644525 
L 558.056276 96.706387 
L 561.118138 99.768249 
L 558.056276 102.830112 
z
" style="stroke:#000000;"/>
    <path clip-path="url(#p2ac7907363)" d="M 590.40032 140.914095 
L 593.462182 137.852233 
L 596.524044 140.914095 
L 599.585906 137.852233 
L 596.524044 134.790371 
L 599.585906 131.728508 
L 596.524044 128.666646 
L 593.462182 131.728508 
L 590.40032 128.666646 
L 587.338457 131.728508 
L 590.40032 134.790371 
L 587.338457 137.852233 
z
" style="stroke:#000000;"/>
    <path clip-path="url(#p2ac7907363)" d="M 619.682501 156.258645 
L 622.744364 153.196783 
L 625.806226 156.258645 
L 628.868088 153.196783 
L 625.806226 150.134921 
L 628.868088 147.073059 
L 625.806226 144.011197 
L 622.744364 147.073059 
L 619.682501 144.011197 
L 616.620639 147.073059 
L 619.682501 150.134921 
L 616.620639 153.196783 
z
" style="stroke:#000000;"/>
    <path clip-path="url(#p2ac7907363)" d="M 648.964683 165.294739 
L 652.026545 162.232877 
L 655.088408 165.294739 
L 658.15027 162.232877 
L 655.088408 159.171015 
L 658.15027 156.109153 
L 655.088408 153.047291 
L 652.026545 156.109153 
L 648.964683 153.047291 
L 645.902821 156.109153 
L 648.964683 159.171015 
L 645.902821 162.232877 
z
" style="stroke:#000000;"/>
    <path clip-path="url(#p2ac7907363)" d="M 681.308727 124.391006 
L 687.432452 112.143557 
L 675.185003 112.143557 
z
" style="fill:#ff0000;stroke:#ff0000;"/>
    <path clip-path="url(#p2ac7907363)" d="M 707.529047 105.270975 
L 710.590909 102.209112 
L 713.652771 105.270975 
L 716.714633 102.209112 
L 713.652771 99.14725 
L 716.714633 96.085388 
L 713.652771 93.023526 
L 710.590909 96.085388 
L 707.529047 93.023526 
L 704.467185 96.085388 
L 707.529047 99.14725 
L 704.467185 102.209112 
z
" style="stroke:#000000;"/>
    <path clip-path="url(#p2ac7907363)" d="M 736.811229 140.471783 
L 739.873091 137.409921 
L 742.934953 140.471783 
L 745.996815 137.409921 
L 742.934953 134.348059 
L 745.996815 131.286196 
L 742.934953 128.224334 
L 739.873091 131.286196 
L 736.811229 128.224334 
L 733.749367 131.286196 
L 736.811229 134.348059 
L 733.749367 137.409921 
z
" style="stroke:#000000;"/>
    <path clip-path="url(#p2ac7907363)" d="M 766.093411 155.962238 
L 769.155273 152.900376 
L 772.217135 155.962238 
L 775.278997 152.900376 
L 772.217135 149.838514 
L 775.278997 146.776652 
L 772.217135 143.714789 
L 769.155273 146.776652 
L 766.093411 143.714789 
L 763.031548 146.776652 
L 766.093411 149.838514 
L 763.031548 152.900376 
z
" style="stroke:#000000;"/>
    <path clip-path="url(#p2ac7907363)" d="M 795.375592 165.098527 
L 798.437455 162.036665 
L 801.499317 165.098527 
L 804.561179 162.036665 
L 801.499317 158.974803 
L 804.561179 155.912941 
L 801.499317 152.851079 
L 798.437455 155.912941 
L 795.375592 152.851079 
L 792.31373 155.912941 
L 795.375592 158.974803 
L 792.31373 162.036665 
z
" style="stroke:#000000;"/>
    <path clip-path="url(#p2ac7907363)" d="M 827.719636 354.111414 
L 821.595912 366.358862 
L 833.843361 366.358862 
z
" style="fill:#0000ff;stroke:#0000ff;"/>
    <path clip-path="url(#p2ac7907363)" d="M 857.001818 578.968736 
L 850.878094 591.216184 
L 863.125543 591.216184 
z
" style="fill:#0000ff;stroke:#0000ff;"/>
    <path clip-path="url(#p2ac7907363)" d="M 886.284 608.153152 
L 880.160276 620.400601 
L 892.407724 620.400601 
z
" style="fill:#0000ff;stroke:#0000ff;"/>
    <path clip-path="url(#p2ac7907363)" d="M 915.566182 610.60639 
L 909.442457 622.853839 
L 921.689906 622.853839 
z
" style="fill:#0000ff;stroke:#0000ff;"/>
    <path clip-path="url(#p2ac7907363)" d="M 944.848364 611.436271 
L 938.724639 623.68372 
L 950.972088 623.68372 
z
" style="fill:#0000ff;stroke:#0000ff;"/>
    <path clip-path="url(#p2ac7907363)" d="M 974.130545 612.312674 
L 968.006821 624.560122 
L 980.25427 624.560122 
z
" style="fill:#0000ff;stroke:#0000ff;"/>
    <path clip-path="url(#p2ac7907363)" d="M 1003.412727 613.265463 
L 997.289003 625.512912 
L 1009.536452 625.512912 
z
" style="fill:#0000ff;stroke:#0000ff;"/>
    <path clip-path="url(#p2ac7907363)" d="M 1032.694909 614.24807 
L 1026.571185 626.495518 
L 1038.818633 626.495518 
z
" style="fill:#0000ff;stroke:#0000ff;"/>
    <path clip-path="url(#p2ac7907363)" d="M 1061.977091 615.226493 
L 1055.853367 627.473942 
L 1068.100815 627.473942 
z
" style="fill:#0000ff;stroke:#0000ff;"/>
    <path clip-path="url(#p2ac7907363)" d="M 1091.259273 616.177739 
L 1085.135548 628.425188 
L 1097.382997 628.425188 
z
" style="fill:#0000ff;stroke:#0000ff;"/>
    <path clip-path="url(#p2ac7907363)" d="M 1120.541455 617.086289 
L 1114.41773 629.333737 
L 1126.665179 629.333737 
z
" style="fill:#0000ff;stroke:#0000ff;"/>
    <path clip-path="url(#p2ac7907363)" d="M 1149.823636 617.942117 
L 1143.699912 630.189566 
L 1155.947361 630.189566 
z
" style="fill:#0000ff;stroke:#0000ff;"/>
    <path clip-path="url(#p2ac7907363)" d="M 1179.105818 389.782867 
L 1185.229543 377.535418 
L 1172.982094 377.535418 
z
" style="fill:#ff0000;stroke:#ff0000;"/>
    <path clip-path="url(#p2ac7907363)" d="M 1205.326138 164.934938 
L 1208.388 161.873076 
L 1211.449862 164.934938 
L 1214.511724 161.873076 
L 1211.449862 158.811214 
L 1214.511724 155.749351 
L 1211.449862 152.687489 
L 1208.388 155.749351 
L 1205.326138 152.687489 
L 1202.264276 155.749351 
L 1205.326138 158.811214 
L 1202.264276 161.873076 
z
" style="stroke:#000000;"/>
    <path clip-path="url(#p2ac7907363)" d="M 1234.60832 182.588417 
L 1237.670182 179.526555 
L 1240.732044 182.588417 
L 1243.793906 179.526555 
L 1240.732044 176.464693 
L 1243.793906 173.402831 
L 1240.732044 170.340969 
L 1237.670182 173.402831 
L 1234.60832 170.340969 
L 1231.546457 173.402831 
L 1234.60832 176.464693 
L 1231.546457 179.526555 
z
" style="stroke:#000000;"/>
    <path clip-path="url(#p2ac7907363)" d="M 1263.890501 184.136629 
L 1266.952364 181.074767 
L 1270.014226 184.136629 
L 1273.076088 181.074767 
L 1270.014226 178.012905 
L 1273.076088 174.951042 
L 1270.014226 171.88918 
L 1266.952364 174.951042 
L 1263.890501 171.88918 
L 1260.828639 174.951042 
L 1263.890501 178.012905 
L 1260.828639 181.074767 
z
" style="stroke:#000000;"/>
    <path clip-path="url(#p2ac7907363)" d="M 1293.172683 347.104624 
L 1296.234545 344.042762 
L 1299.296408 347.104624 
L 1302.35827 344.042762 
L 1299.296408 340.9809 
L 1302.35827 337.919038 
L 1299.296408 334.857176 
L 1296.234545 337.919038 
L 1293.172683 334.857176 
L 1290.110821 337.919038 
L 1293.172683 340.9809 
L 1290.110821 344.042762 
z
" style="stroke:#000000;"/>
   </g>
   <g id="patch_3">
    <path clip-path="url(#p2ac7907363)" d="M 139.588364 647.049 
L 139.588364 34.9128 
L 725.232 34.9128 
L 725.232 647.049 
z
" style="fill:#ff7f50;opacity:0.3;"/>
   </g>
   <g id="patch_4">
    <path clip-path="url(#p2ac7907363)" d="M 725.232 647.049 
L 725.232 34.9128 
L 1310.875636 34.9128 
L 1310.875636 647.049 
z
" style="fill:#b0e0e6;opacity:0.3;"/>
   </g>
   <g id="matplotlib.axis_1">
    <g id="xtick_1">
     <g id="line2d_1">
      <defs>
       <path d="M 0 0 
L 0 3.5 
" id="m8b3133d6f1" style="stroke:#000000;stroke-width:0.8;"/>
      </defs>
      <g>
       <use style="stroke:#000000;stroke-width:0.8;" x="139.588364" xlink:href="#m8b3133d6f1" y="647.049"/>
      </g>
     </g>
     <g id="text_1">
      <!-- 0 -->
      <g transform="translate(134.816489 665.446656)scale(0.15 -0.15)">
       <defs>
        <path d="M 2034 4250 
Q 1547 4250 1301 3770 
Q 1056 3291 1056 2328 
Q 1056 1369 1301 889 
Q 1547 409 2034 409 
Q 2525 409 2770 889 
Q 3016 1369 3016 2328 
Q 3016 3291 2770 3770 
Q 2525 4250 2034 4250 
z
M 2034 4750 
Q 2819 4750 3233 4129 
Q 3647 3509 3647 2328 
Q 3647 1150 3233 529 
Q 2819 -91 2034 -91 
Q 1250 -91 836 529 
Q 422 1150 422 2328 
Q 422 3509 836 4129 
Q 1250 4750 2034 4750 
z
" id="DejaVuSans-30" transform="scale(0.015625)"/>
       </defs>
       <use xlink:href="#DejaVuSans-30"/>
      </g>
     </g>
    </g>
    <g id="xtick_2">
     <g id="line2d_2">
      <g>
       <use style="stroke:#000000;stroke-width:0.8;" x="168.870545" xlink:href="#m8b3133d6f1" y="647.049"/>
      </g>
     </g>
     <g id="text_2">
      <!-- 1 -->
      <g transform="translate(164.09867 665.446656)scale(0.15 -0.15)">
       <defs>
        <path d="M 794 531 
L 1825 531 
L 1825 4091 
L 703 3866 
L 703 4441 
L 1819 4666 
L 2450 4666 
L 2450 531 
L 3481 531 
L 3481 0 
L 794 0 
L 794 531 
z
" id="DejaVuSans-31" transform="scale(0.015625)"/>
       </defs>
       <use xlink:href="#DejaVuSans-31"/>
      </g>
     </g>
    </g>
    <g id="xtick_3">
     <g id="line2d_3">
      <g>
       <use style="stroke:#000000;stroke-width:0.8;" x="198.152727" xlink:href="#m8b3133d6f1" y="647.049"/>
      </g>
     </g>
     <g id="text_3">
      <!-- 2 -->
      <g transform="translate(193.380852 665.446656)scale(0.15 -0.15)">
       <defs>
        <path d="M 1228 531 
L 3431 531 
L 3431 0 
L 469 0 
L 469 531 
Q 828 903 1448 1529 
Q 2069 2156 2228 2338 
Q 2531 2678 2651 2914 
Q 2772 3150 2772 3378 
Q 2772 3750 2511 3984 
Q 2250 4219 1831 4219 
Q 1534 4219 1204 4116 
Q 875 4013 500 3803 
L 500 4441 
Q 881 4594 1212 4672 
Q 1544 4750 1819 4750 
Q 2544 4750 2975 4387 
Q 3406 4025 3406 3419 
Q 3406 3131 3298 2873 
Q 3191 2616 2906 2266 
Q 2828 2175 2409 1742 
Q 1991 1309 1228 531 
z
" id="DejaVuSans-32" transform="scale(0.015625)"/>
       </defs>
       <use xlink:href="#DejaVuSans-32"/>
      </g>
     </g>
    </g>
    <g id="xtick_4">
     <g id="line2d_4">
      <g>
       <use style="stroke:#000000;stroke-width:0.8;" x="227.434909" xlink:href="#m8b3133d6f1" y="647.049"/>
      </g>
     </g>
     <g id="text_4">
      <!-- 3 -->
      <g transform="translate(222.663034 665.446656)scale(0.15 -0.15)">
       <defs>
        <path d="M 2597 2516 
Q 3050 2419 3304 2112 
Q 3559 1806 3559 1356 
Q 3559 666 3084 287 
Q 2609 -91 1734 -91 
Q 1441 -91 1130 -33 
Q 819 25 488 141 
L 488 750 
Q 750 597 1062 519 
Q 1375 441 1716 441 
Q 2309 441 2620 675 
Q 2931 909 2931 1356 
Q 2931 1769 2642 2001 
Q 2353 2234 1838 2234 
L 1294 2234 
L 1294 2753 
L 1863 2753 
Q 2328 2753 2575 2939 
Q 2822 3125 2822 3475 
Q 2822 3834 2567 4026 
Q 2313 4219 1838 4219 
Q 1578 4219 1281 4162 
Q 984 4106 628 3988 
L 628 4550 
Q 988 4650 1302 4700 
Q 1616 4750 1894 4750 
Q 2613 4750 3031 4423 
Q 3450 4097 3450 3541 
Q 3450 3153 3228 2886 
Q 3006 2619 2597 2516 
z
" id="DejaVuSans-33" transform="scale(0.015625)"/>
       </defs>
       <use xlink:href="#DejaVuSans-33"/>
      </g>
     </g>
    </g>
    <g id="xtick_5">
     <g id="line2d_5">
      <g>
       <use style="stroke:#000000;stroke-width:0.8;" x="256.717091" xlink:href="#m8b3133d6f1" y="647.049"/>
      </g>
     </g>
     <g id="text_5">
      <!-- 4 -->
      <g transform="translate(251.945216 665.446656)scale(0.15 -0.15)">
       <defs>
        <path d="M 2419 4116 
L 825 1625 
L 2419 1625 
L 2419 4116 
z
M 2253 4666 
L 3047 4666 
L 3047 1625 
L 3713 1625 
L 3713 1100 
L 3047 1100 
L 3047 0 
L 2419 0 
L 2419 1100 
L 313 1100 
L 313 1709 
L 2253 4666 
z
" id="DejaVuSans-34" transform="scale(0.015625)"/>
       </defs>
       <use xlink:href="#DejaVuSans-34"/>
      </g>
     </g>
    </g>
    <g id="xtick_6">
     <g id="line2d_6">
      <g>
       <use style="stroke:#000000;stroke-width:0.8;" x="285.999273" xlink:href="#m8b3133d6f1" y="647.049"/>
      </g>
     </g>
     <g id="text_6">
      <!-- 5 -->
      <g transform="translate(281.227398 665.446656)scale(0.15 -0.15)">
       <defs>
        <path d="M 691 4666 
L 3169 4666 
L 3169 4134 
L 1269 4134 
L 1269 2991 
Q 1406 3038 1543 3061 
Q 1681 3084 1819 3084 
Q 2600 3084 3056 2656 
Q 3513 2228 3513 1497 
Q 3513 744 3044 326 
Q 2575 -91 1722 -91 
Q 1428 -91 1123 -41 
Q 819 9 494 109 
L 494 744 
Q 775 591 1075 516 
Q 1375 441 1709 441 
Q 2250 441 2565 725 
Q 2881 1009 2881 1497 
Q 2881 1984 2565 2268 
Q 2250 2553 1709 2553 
Q 1456 2553 1204 2497 
Q 953 2441 691 2322 
L 691 4666 
z
" id="DejaVuSans-35" transform="scale(0.015625)"/>
       </defs>
       <use xlink:href="#DejaVuSans-35"/>
      </g>
     </g>
    </g>
    <g id="xtick_7">
     <g id="line2d_7">
      <g>
       <use style="stroke:#000000;stroke-width:0.8;" x="315.281455" xlink:href="#m8b3133d6f1" y="647.049"/>
      </g>
     </g>
     <g id="text_7">
      <!-- 6 -->
      <g transform="translate(310.50958 665.446656)scale(0.15 -0.15)">
       <defs>
        <path d="M 2113 2584 
Q 1688 2584 1439 2293 
Q 1191 2003 1191 1497 
Q 1191 994 1439 701 
Q 1688 409 2113 409 
Q 2538 409 2786 701 
Q 3034 994 3034 1497 
Q 3034 2003 2786 2293 
Q 2538 2584 2113 2584 
z
M 3366 4563 
L 3366 3988 
Q 3128 4100 2886 4159 
Q 2644 4219 2406 4219 
Q 1781 4219 1451 3797 
Q 1122 3375 1075 2522 
Q 1259 2794 1537 2939 
Q 1816 3084 2150 3084 
Q 2853 3084 3261 2657 
Q 3669 2231 3669 1497 
Q 3669 778 3244 343 
Q 2819 -91 2113 -91 
Q 1303 -91 875 529 
Q 447 1150 447 2328 
Q 447 3434 972 4092 
Q 1497 4750 2381 4750 
Q 2619 4750 2861 4703 
Q 3103 4656 3366 4563 
z
" id="DejaVuSans-36" transform="scale(0.015625)"/>
       </defs>
       <use xlink:href="#DejaVuSans-36"/>
      </g>
     </g>
    </g>
    <g id="xtick_8">
     <g id="line2d_8">
      <g>
       <use style="stroke:#000000;stroke-width:0.8;" x="344.563636" xlink:href="#m8b3133d6f1" y="647.049"/>
      </g>
     </g>
     <g id="text_8">
      <!-- 7 -->
      <g transform="translate(339.791761 665.446656)scale(0.15 -0.15)">
       <defs>
        <path d="M 525 4666 
L 3525 4666 
L 3525 4397 
L 1831 0 
L 1172 0 
L 2766 4134 
L 525 4134 
L 525 4666 
z
" id="DejaVuSans-37" transform="scale(0.015625)"/>
       </defs>
       <use xlink:href="#DejaVuSans-37"/>
      </g>
     </g>
    </g>
    <g id="xtick_9">
     <g id="line2d_9">
      <g>
       <use style="stroke:#000000;stroke-width:0.8;" x="373.845818" xlink:href="#m8b3133d6f1" y="647.049"/>
      </g>
     </g>
     <g id="text_9">
      <!-- 8 -->
      <g transform="translate(369.073943 665.446656)scale(0.15 -0.15)">
       <defs>
        <path d="M 2034 2216 
Q 1584 2216 1326 1975 
Q 1069 1734 1069 1313 
Q 1069 891 1326 650 
Q 1584 409 2034 409 
Q 2484 409 2743 651 
Q 3003 894 3003 1313 
Q 3003 1734 2745 1975 
Q 2488 2216 2034 2216 
z
M 1403 2484 
Q 997 2584 770 2862 
Q 544 3141 544 3541 
Q 544 4100 942 4425 
Q 1341 4750 2034 4750 
Q 2731 4750 3128 4425 
Q 3525 4100 3525 3541 
Q 3525 3141 3298 2862 
Q 3072 2584 2669 2484 
Q 3125 2378 3379 2068 
Q 3634 1759 3634 1313 
Q 3634 634 3220 271 
Q 2806 -91 2034 -91 
Q 1263 -91 848 271 
Q 434 634 434 1313 
Q 434 1759 690 2068 
Q 947 2378 1403 2484 
z
M 1172 3481 
Q 1172 3119 1398 2916 
Q 1625 2713 2034 2713 
Q 2441 2713 2670 2916 
Q 2900 3119 2900 3481 
Q 2900 3844 2670 4047 
Q 2441 4250 2034 4250 
Q 1625 4250 1398 4047 
Q 1172 3844 1172 3481 
z
" id="DejaVuSans-38" transform="scale(0.015625)"/>
       </defs>
       <use xlink:href="#DejaVuSans-38"/>
      </g>
     </g>
    </g>
    <g id="xtick_10">
     <g id="line2d_10">
      <g>
       <use style="stroke:#000000;stroke-width:0.8;" x="403.128" xlink:href="#m8b3133d6f1" y="647.049"/>
      </g>
     </g>
     <g id="text_10">
      <!-- 9 -->
      <g transform="translate(398.356125 665.446656)scale(0.15 -0.15)">
       <defs>
        <path d="M 703 97 
L 703 672 
Q 941 559 1184 500 
Q 1428 441 1663 441 
Q 2288 441 2617 861 
Q 2947 1281 2994 2138 
Q 2813 1869 2534 1725 
Q 2256 1581 1919 1581 
Q 1219 1581 811 2004 
Q 403 2428 403 3163 
Q 403 3881 828 4315 
Q 1253 4750 1959 4750 
Q 2769 4750 3195 4129 
Q 3622 3509 3622 2328 
Q 3622 1225 3098 567 
Q 2575 -91 1691 -91 
Q 1453 -91 1209 -44 
Q 966 3 703 97 
z
M 1959 2075 
Q 2384 2075 2632 2365 
Q 2881 2656 2881 3163 
Q 2881 3666 2632 3958 
Q 2384 4250 1959 4250 
Q 1534 4250 1286 3958 
Q 1038 3666 1038 3163 
Q 1038 2656 1286 2365 
Q 1534 2075 1959 2075 
z
" id="DejaVuSans-39" transform="scale(0.015625)"/>
       </defs>
       <use xlink:href="#DejaVuSans-39"/>
      </g>
     </g>
    </g>
    <g id="xtick_11">
     <g id="line2d_11">
      <g>
       <use style="stroke:#000000;stroke-width:0.8;" x="432.410182" xlink:href="#m8b3133d6f1" y="647.049"/>
      </g>
     </g>
     <g id="text_11">
      <!-- 10 -->
      <g transform="translate(422.866432 665.446656)scale(0.15 -0.15)">
       <use xlink:href="#DejaVuSans-31"/>
       <use x="63.623047" xlink:href="#DejaVuSans-30"/>
      </g>
     </g>
    </g>
    <g id="xtick_12">
     <g id="line2d_12">
      <g>
       <use style="stroke:#000000;stroke-width:0.8;" x="461.692364" xlink:href="#m8b3133d6f1" y="647.049"/>
      </g>
     </g>
     <g id="text_12">
      <!-- 11 -->
      <g transform="translate(452.148614 665.446656)scale(0.15 -0.15)">
       <use xlink:href="#DejaVuSans-31"/>
       <use x="63.623047" xlink:href="#DejaVuSans-31"/>
      </g>
     </g>
    </g>
    <g id="xtick_13">
     <g id="line2d_13">
      <g>
       <use style="stroke:#000000;stroke-width:0.8;" x="490.974545" xlink:href="#m8b3133d6f1" y="647.049"/>
      </g>
     </g>
     <g id="text_13">
      <!-- 12 -->
      <g transform="translate(481.430795 665.446656)scale(0.15 -0.15)">
       <use xlink:href="#DejaVuSans-31"/>
       <use x="63.623047" xlink:href="#DejaVuSans-32"/>
      </g>
     </g>
    </g>
    <g id="xtick_14">
     <g id="line2d_14">
      <g>
       <use style="stroke:#000000;stroke-width:0.8;" x="520.256727" xlink:href="#m8b3133d6f1" y="647.049"/>
      </g>
     </g>
     <g id="text_14">
      <!-- 13 -->
      <g transform="translate(510.712977 665.446656)scale(0.15 -0.15)">
       <use xlink:href="#DejaVuSans-31"/>
       <use x="63.623047" xlink:href="#DejaVuSans-33"/>
      </g>
     </g>
    </g>
    <g id="xtick_15">
     <g id="line2d_15">
      <g>
       <use style="stroke:#000000;stroke-width:0.8;" x="549.538909" xlink:href="#m8b3133d6f1" y="647.049"/>
      </g>
     </g>
     <g id="text_15">
      <!-- 14 -->
      <g transform="translate(539.995159 665.446656)scale(0.15 -0.15)">
       <use xlink:href="#DejaVuSans-31"/>
       <use x="63.623047" xlink:href="#DejaVuSans-34"/>
      </g>
     </g>
    </g>
    <g id="xtick_16">
     <g id="line2d_16">
      <g>
       <use style="stroke:#000000;stroke-width:0.8;" x="578.821091" xlink:href="#m8b3133d6f1" y="647.049"/>
      </g>
     </g>
     <g id="text_16">
      <!-- 15 -->
      <g transform="translate(569.277341 665.446656)scale(0.15 -0.15)">
       <use xlink:href="#DejaVuSans-31"/>
       <use x="63.623047" xlink:href="#DejaVuSans-35"/>
      </g>
     </g>
    </g>
    <g id="xtick_17">
     <g id="line2d_17">
      <g>
       <use style="stroke:#000000;stroke-width:0.8;" x="608.103273" xlink:href="#m8b3133d6f1" y="647.049"/>
      </g>
     </g>
     <g id="text_17">
      <!-- 16 -->
      <g transform="translate(598.559523 665.446656)scale(0.15 -0.15)">
       <use xlink:href="#DejaVuSans-31"/>
       <use x="63.623047" xlink:href="#DejaVuSans-36"/>
      </g>
     </g>
    </g>
    <g id="xtick_18">
     <g id="line2d_18">
      <g>
       <use style="stroke:#000000;stroke-width:0.8;" x="637.385455" xlink:href="#m8b3133d6f1" y="647.049"/>
      </g>
     </g>
     <g id="text_18">
      <!-- 17 -->
      <g transform="translate(627.841705 665.446656)scale(0.15 -0.15)">
       <use xlink:href="#DejaVuSans-31"/>
       <use x="63.623047" xlink:href="#DejaVuSans-37"/>
      </g>
     </g>
    </g>
    <g id="xtick_19">
     <g id="line2d_19">
      <g>
       <use style="stroke:#000000;stroke-width:0.8;" x="666.667636" xlink:href="#m8b3133d6f1" y="647.049"/>
      </g>
     </g>
     <g id="text_19">
      <!-- 18 -->
      <g transform="translate(657.123886 665.446656)scale(0.15 -0.15)">
       <use xlink:href="#DejaVuSans-31"/>
       <use x="63.623047" xlink:href="#DejaVuSans-38"/>
      </g>
     </g>
    </g>
    <g id="xtick_20">
     <g id="line2d_20">
      <g>
       <use style="stroke:#000000;stroke-width:0.8;" x="695.949818" xlink:href="#m8b3133d6f1" y="647.049"/>
      </g>
     </g>
     <g id="text_20">
      <!-- 19 -->
      <g transform="translate(686.406068 665.446656)scale(0.15 -0.15)">
       <use xlink:href="#DejaVuSans-31"/>
       <use x="63.623047" xlink:href="#DejaVuSans-39"/>
      </g>
     </g>
    </g>
    <g id="xtick_21">
     <g id="line2d_21">
      <g>
       <use style="stroke:#000000;stroke-width:0.8;" x="725.232" xlink:href="#m8b3133d6f1" y="647.049"/>
      </g>
     </g>
     <g id="text_21">
      <!-- 20 -->
      <g transform="translate(715.68825 665.446656)scale(0.15 -0.15)">
       <use xlink:href="#DejaVuSans-32"/>
       <use x="63.623047" xlink:href="#DejaVuSans-30"/>
      </g>
     </g>
    </g>
    <g id="xtick_22">
     <g id="line2d_22">
      <g>
       <use style="stroke:#000000;stroke-width:0.8;" x="754.514182" xlink:href="#m8b3133d6f1" y="647.049"/>
      </g>
     </g>
     <g id="text_22">
      <!-- 21 -->
      <g transform="translate(744.970432 665.446656)scale(0.15 -0.15)">
       <use xlink:href="#DejaVuSans-32"/>
       <use x="63.623047" xlink:href="#DejaVuSans-31"/>
      </g>
     </g>
    </g>
    <g id="xtick_23">
     <g id="line2d_23">
      <g>
       <use style="stroke:#000000;stroke-width:0.8;" x="783.796364" xlink:href="#m8b3133d6f1" y="647.049"/>
      </g>
     </g>
     <g id="text_23">
      <!-- 22 -->
      <g transform="translate(774.252614 665.446656)scale(0.15 -0.15)">
       <use xlink:href="#DejaVuSans-32"/>
       <use x="63.623047" xlink:href="#DejaVuSans-32"/>
      </g>
     </g>
    </g>
    <g id="xtick_24">
     <g id="line2d_24">
      <g>
       <use style="stroke:#000000;stroke-width:0.8;" x="813.078545" xlink:href="#m8b3133d6f1" y="647.049"/>
      </g>
     </g>
     <g id="text_24">
      <!-- 23 -->
      <g transform="translate(803.534795 665.446656)scale(0.15 -0.15)">
       <use xlink:href="#DejaVuSans-32"/>
       <use x="63.623047" xlink:href="#DejaVuSans-33"/>
      </g>
     </g>
    </g>
    <g id="xtick_25">
     <g id="line2d_25">
      <g>
       <use style="stroke:#000000;stroke-width:0.8;" x="842.360727" xlink:href="#m8b3133d6f1" y="647.049"/>
      </g>
     </g>
     <g id="text_25">
      <!-- 24 -->
      <g transform="translate(832.816977 665.446656)scale(0.15 -0.15)">
       <use xlink:href="#DejaVuSans-32"/>
       <use x="63.623047" xlink:href="#DejaVuSans-34"/>
      </g>
     </g>
    </g>
    <g id="xtick_26">
     <g id="line2d_26">
      <g>
       <use style="stroke:#000000;stroke-width:0.8;" x="871.642909" xlink:href="#m8b3133d6f1" y="647.049"/>
      </g>
     </g>
     <g id="text_26">
      <!-- 25 -->
      <g transform="translate(862.099159 665.446656)scale(0.15 -0.15)">
       <use xlink:href="#DejaVuSans-32"/>
       <use x="63.623047" xlink:href="#DejaVuSans-35"/>
      </g>
     </g>
    </g>
    <g id="xtick_27">
     <g id="line2d_27">
      <g>
       <use style="stroke:#000000;stroke-width:0.8;" x="900.925091" xlink:href="#m8b3133d6f1" y="647.049"/>
      </g>
     </g>
     <g id="text_27">
      <!-- 26 -->
      <g transform="translate(891.381341 665.446656)scale(0.15 -0.15)">
       <use xlink:href="#DejaVuSans-32"/>
       <use x="63.623047" xlink:href="#DejaVuSans-36"/>
      </g>
     </g>
    </g>
    <g id="xtick_28">
     <g id="line2d_28">
      <g>
       <use style="stroke:#000000;stroke-width:0.8;" x="930.207273" xlink:href="#m8b3133d6f1" y="647.049"/>
      </g>
     </g>
     <g id="text_28">
      <!-- 27 -->
      <g transform="translate(920.663523 665.446656)scale(0.15 -0.15)">
       <use xlink:href="#DejaVuSans-32"/>
       <use x="63.623047" xlink:href="#DejaVuSans-37"/>
      </g>
     </g>
    </g>
    <g id="xtick_29">
     <g id="line2d_29">
      <g>
       <use style="stroke:#000000;stroke-width:0.8;" x="959.489455" xlink:href="#m8b3133d6f1" y="647.049"/>
      </g>
     </g>
     <g id="text_29">
      <!-- 28 -->
      <g transform="translate(949.945705 665.446656)scale(0.15 -0.15)">
       <use xlink:href="#DejaVuSans-32"/>
       <use x="63.623047" xlink:href="#DejaVuSans-38"/>
      </g>
     </g>
    </g>
    <g id="xtick_30">
     <g id="line2d_30">
      <g>
       <use style="stroke:#000000;stroke-width:0.8;" x="988.771636" xlink:href="#m8b3133d6f1" y="647.049"/>
      </g>
     </g>
     <g id="text_30">
      <!-- 29 -->
      <g transform="translate(979.227886 665.446656)scale(0.15 -0.15)">
       <use xlink:href="#DejaVuSans-32"/>
       <use x="63.623047" xlink:href="#DejaVuSans-39"/>
      </g>
     </g>
    </g>
    <g id="xtick_31">
     <g id="line2d_31">
      <g>
       <use style="stroke:#000000;stroke-width:0.8;" x="1018.053818" xlink:href="#m8b3133d6f1" y="647.049"/>
      </g>
     </g>
     <g id="text_31">
      <!-- 30 -->
      <g transform="translate(1008.510068 665.446656)scale(0.15 -0.15)">
       <use xlink:href="#DejaVuSans-33"/>
       <use x="63.623047" xlink:href="#DejaVuSans-30"/>
      </g>
     </g>
    </g>
    <g id="xtick_32">
     <g id="line2d_32">
      <g>
       <use style="stroke:#000000;stroke-width:0.8;" x="1047.336" xlink:href="#m8b3133d6f1" y="647.049"/>
      </g>
     </g>
     <g id="text_32">
      <!-- 31 -->
      <g transform="translate(1037.79225 665.446656)scale(0.15 -0.15)">
       <use xlink:href="#DejaVuSans-33"/>
       <use x="63.623047" xlink:href="#DejaVuSans-31"/>
      </g>
     </g>
    </g>
    <g id="xtick_33">
     <g id="line2d_33">
      <g>
       <use style="stroke:#000000;stroke-width:0.8;" x="1076.618182" xlink:href="#m8b3133d6f1" y="647.049"/>
      </g>
     </g>
     <g id="text_33">
      <!-- 32 -->
      <g transform="translate(1067.074432 665.446656)scale(0.15 -0.15)">
       <use xlink:href="#DejaVuSans-33"/>
       <use x="63.623047" xlink:href="#DejaVuSans-32"/>
      </g>
     </g>
    </g>
    <g id="xtick_34">
     <g id="line2d_34">
      <g>
       <use style="stroke:#000000;stroke-width:0.8;" x="1105.900364" xlink:href="#m8b3133d6f1" y="647.049"/>
      </g>
     </g>
     <g id="text_34">
      <!-- 33 -->
      <g transform="translate(1096.356614 665.446656)scale(0.15 -0.15)">
       <use xlink:href="#DejaVuSans-33"/>
       <use x="63.623047" xlink:href="#DejaVuSans-33"/>
      </g>
     </g>
    </g>
    <g id="xtick_35">
     <g id="line2d_35">
      <g>
       <use style="stroke:#000000;stroke-width:0.8;" x="1135.182545" xlink:href="#m8b3133d6f1" y="647.049"/>
      </g>
     </g>
     <g id="text_35">
      <!-- 34 -->
      <g transform="translate(1125.638795 665.446656)scale(0.15 -0.15)">
       <use xlink:href="#DejaVuSans-33"/>
       <use x="63.623047" xlink:href="#DejaVuSans-34"/>
      </g>
     </g>
    </g>
    <g id="xtick_36">
     <g id="line2d_36">
      <g>
       <use style="stroke:#000000;stroke-width:0.8;" x="1164.464727" xlink:href="#m8b3133d6f1" y="647.049"/>
      </g>
     </g>
     <g id="text_36">
      <!-- 35 -->
      <g transform="translate(1154.920977 665.446656)scale(0.15 -0.15)">
       <use xlink:href="#DejaVuSans-33"/>
       <use x="63.623047" xlink:href="#DejaVuSans-35"/>
      </g>
     </g>
    </g>
    <g id="xtick_37">
     <g id="line2d_37">
      <g>
       <use style="stroke:#000000;stroke-width:0.8;" x="1193.746909" xlink:href="#m8b3133d6f1" y="647.049"/>
      </g>
     </g>
     <g id="text_37">
      <!-- 36 -->
      <g transform="translate(1184.203159 665.446656)scale(0.15 -0.15)">
       <use xlink:href="#DejaVuSans-33"/>
       <use x="63.623047" xlink:href="#DejaVuSans-36"/>
      </g>
     </g>
    </g>
    <g id="xtick_38">
     <g id="line2d_38">
      <g>
       <use style="stroke:#000000;stroke-width:0.8;" x="1223.029091" xlink:href="#m8b3133d6f1" y="647.049"/>
      </g>
     </g>
     <g id="text_38">
      <!-- 37 -->
      <g transform="translate(1213.485341 665.446656)scale(0.15 -0.15)">
       <use xlink:href="#DejaVuSans-33"/>
       <use x="63.623047" xlink:href="#DejaVuSans-37"/>
      </g>
     </g>
    </g>
    <g id="xtick_39">
     <g id="line2d_39">
      <g>
       <use style="stroke:#000000;stroke-width:0.8;" x="1252.311273" xlink:href="#m8b3133d6f1" y="647.049"/>
      </g>
     </g>
     <g id="text_39">
      <!-- 38 -->
      <g transform="translate(1242.767523 665.446656)scale(0.15 -0.15)">
       <use xlink:href="#DejaVuSans-33"/>
       <use x="63.623047" xlink:href="#DejaVuSans-38"/>
      </g>
     </g>
    </g>
    <g id="xtick_40">
     <g id="line2d_40">
      <g>
       <use style="stroke:#000000;stroke-width:0.8;" x="1281.593455" xlink:href="#m8b3133d6f1" y="647.049"/>
      </g>
     </g>
     <g id="text_40">
      <!-- 39 -->
      <g transform="translate(1272.049705 665.446656)scale(0.15 -0.15)">
       <use xlink:href="#DejaVuSans-33"/>
       <use x="63.623047" xlink:href="#DejaVuSans-39"/>
      </g>
     </g>
    </g>
    <g id="text_41">
     <!-- $t$ -->
     <g transform="translate(721.232 687.763063)scale(0.2 -0.2)">
      <defs>
       <path d="M 2706 3500 
L 2619 3053 
L 1472 3053 
L 1100 1153 
Q 1081 1047 1072 975 
Q 1063 903 1063 863 
Q 1063 663 1183 572 
Q 1303 481 1569 481 
L 2150 481 
L 2053 0 
L 1503 0 
Q 991 0 739 200 
Q 488 400 488 806 
Q 488 878 497 964 
Q 506 1050 525 1153 
L 897 3053 
L 409 3053 
L 500 3500 
L 978 3500 
L 1172 4494 
L 1747 4494 
L 1556 3500 
L 2706 3500 
z
" id="DejaVuSans-Oblique-74" transform="scale(0.015625)"/>
      </defs>
      <use transform="translate(0 0.78125)" xlink:href="#DejaVuSans-Oblique-74"/>
     </g>
    </g>
   </g>
   <g id="matplotlib.axis_2">
    <g id="ytick_1">
     <g id="line2d_41">
      <defs>
       <path d="M 0 0 
L -3.5 0 
" id="m76f4b70890" style="stroke:#000000;stroke-width:0.8;"/>
      </defs>
      <g>
       <use style="stroke:#000000;stroke-width:0.8;" x="81.024" xlink:href="#m76f4b70890" y="647.049"/>
      </g>
     </g>
     <g id="text_42">
      <!-- 0.0 -->
      <g transform="translate(50.169313 652.747828)scale(0.15 -0.15)">
       <defs>
        <path d="M 684 794 
L 1344 794 
L 1344 0 
L 684 0 
L 684 794 
z
" id="DejaVuSans-2e" transform="scale(0.015625)"/>
       </defs>
       <use xlink:href="#DejaVuSans-30"/>
       <use x="63.623047" xlink:href="#DejaVuSans-2e"/>
       <use x="95.410156" xlink:href="#DejaVuSans-30"/>
      </g>
     </g>
    </g>
    <g id="ytick_2">
     <g id="line2d_42">
      <g>
       <use style="stroke:#000000;stroke-width:0.8;" x="81.024" xlink:href="#m76f4b70890" y="524.62176"/>
      </g>
     </g>
     <g id="text_43">
      <!-- 0.2 -->
      <g transform="translate(50.169313 530.320588)scale(0.15 -0.15)">
       <use xlink:href="#DejaVuSans-30"/>
       <use x="63.623047" xlink:href="#DejaVuSans-2e"/>
       <use x="95.410156" xlink:href="#DejaVuSans-32"/>
      </g>
     </g>
    </g>
    <g id="ytick_3">
     <g id="line2d_43">
      <g>
       <use style="stroke:#000000;stroke-width:0.8;" x="81.024" xlink:href="#m76f4b70890" y="402.19452"/>
      </g>
     </g>
     <g id="text_44">
      <!-- 0.4 -->
      <g transform="translate(50.169313 407.893348)scale(0.15 -0.15)">
       <use xlink:href="#DejaVuSans-30"/>
       <use x="63.623047" xlink:href="#DejaVuSans-2e"/>
       <use x="95.410156" xlink:href="#DejaVuSans-34"/>
      </g>
     </g>
    </g>
    <g id="ytick_4">
     <g id="line2d_44">
      <g>
       <use style="stroke:#000000;stroke-width:0.8;" x="81.024" xlink:href="#m76f4b70890" y="279.76728"/>
      </g>
     </g>
     <g id="text_45">
      <!-- 0.6 -->
      <g transform="translate(50.169313 285.466108)scale(0.15 -0.15)">
       <use xlink:href="#DejaVuSans-30"/>
       <use x="63.623047" xlink:href="#DejaVuSans-2e"/>
       <use x="95.410156" xlink:href="#DejaVuSans-36"/>
      </g>
     </g>
    </g>
    <g id="ytick_5">
     <g id="line2d_45">
      <g>
       <use style="stroke:#000000;stroke-width:0.8;" x="81.024" xlink:href="#m76f4b70890" y="157.34004"/>
      </g>
     </g>
     <g id="text_46">
      <!-- 0.8 -->
      <g transform="translate(50.169313 163.038868)scale(0.15 -0.15)">
       <use xlink:href="#DejaVuSans-30"/>
       <use x="63.623047" xlink:href="#DejaVuSans-2e"/>
       <use x="95.410156" xlink:href="#DejaVuSans-38"/>
      </g>
     </g>
    </g>
    <g id="ytick_6">
     <g id="line2d_46">
      <g>
       <use style="stroke:#000000;stroke-width:0.8;" x="81.024" xlink:href="#m76f4b70890" y="34.9128"/>
      </g>
     </g>
     <g id="text_47">
      <!-- 1.0 -->
      <g transform="translate(50.169313 40.611628)scale(0.15 -0.15)">
       <use xlink:href="#DejaVuSans-31"/>
       <use x="63.623047" xlink:href="#DejaVuSans-2e"/>
       <use x="95.410156" xlink:href="#DejaVuSans-30"/>
      </g>
     </g>
    </g>
    <g id="text_48">
     <!-- $p(context)$ -->
     <g transform="translate(41.969313 393.0809)rotate(-90)scale(0.2 -0.2)">
      <defs>
       <path d="M 3175 2156 
Q 3175 2616 2975 2859 
Q 2775 3103 2400 3103 
Q 2144 3103 1911 2972 
Q 1678 2841 1497 2591 
Q 1319 2344 1212 1994 
Q 1106 1644 1106 1300 
Q 1106 863 1306 627 
Q 1506 391 1875 391 
Q 2147 391 2380 519 
Q 2613 647 2778 891 
Q 2956 1147 3065 1494 
Q 3175 1841 3175 2156 
z
M 1394 2969 
Q 1625 3272 1939 3428 
Q 2253 3584 2638 3584 
Q 3175 3584 3472 3232 
Q 3769 2881 3769 2247 
Q 3769 1728 3584 1258 
Q 3400 788 3053 416 
Q 2822 169 2531 39 
Q 2241 -91 1919 -91 
Q 1547 -91 1294 64 
Q 1041 219 916 525 
L 556 -1331 
L -19 -1331 
L 922 3500 
L 1497 3500 
L 1394 2969 
z
" id="DejaVuSans-Oblique-70" transform="scale(0.015625)"/>
       <path d="M 1984 4856 
Q 1566 4138 1362 3434 
Q 1159 2731 1159 2009 
Q 1159 1288 1364 580 
Q 1569 -128 1984 -844 
L 1484 -844 
Q 1016 -109 783 600 
Q 550 1309 550 2009 
Q 550 2706 781 3412 
Q 1013 4119 1484 4856 
L 1984 4856 
z
" id="DejaVuSans-28" transform="scale(0.015625)"/>
       <path d="M 3431 3366 
L 3316 2797 
Q 3109 2947 2876 3022 
Q 2644 3097 2394 3097 
Q 2119 3097 1870 3000 
Q 1622 2903 1453 2725 
Q 1184 2453 1037 2087 
Q 891 1722 891 1331 
Q 891 859 1127 628 
Q 1363 397 1844 397 
Q 2081 397 2348 469 
Q 2616 541 2906 684 
L 2797 116 
Q 2547 13 2283 -39 
Q 2019 -91 1741 -91 
Q 1044 -91 669 257 
Q 294 606 294 1253 
Q 294 1797 489 2255 
Q 684 2713 1069 3078 
Q 1331 3328 1684 3456 
Q 2038 3584 2456 3584 
Q 2700 3584 2940 3529 
Q 3181 3475 3431 3366 
z
" id="DejaVuSans-Oblique-63" transform="scale(0.015625)"/>
       <path d="M 1625 -91 
Q 1009 -91 651 289 
Q 294 669 294 1325 
Q 294 1706 417 2101 
Q 541 2497 738 2766 
Q 1047 3184 1428 3384 
Q 1809 3584 2291 3584 
Q 2888 3584 3255 3212 
Q 3622 2841 3622 2241 
Q 3622 1825 3500 1412 
Q 3378 1000 3181 728 
Q 2875 309 2494 109 
Q 2113 -91 1625 -91 
z
M 891 1344 
Q 891 869 1089 633 
Q 1288 397 1691 397 
Q 2269 397 2648 901 
Q 3028 1406 3028 2181 
Q 3028 2634 2825 2865 
Q 2622 3097 2228 3097 
Q 1903 3097 1650 2945 
Q 1397 2794 1197 2484 
Q 1050 2253 970 1956 
Q 891 1659 891 1344 
z
" id="DejaVuSans-Oblique-6f" transform="scale(0.015625)"/>
       <path d="M 3566 2113 
L 3156 0 
L 2578 0 
L 2988 2091 
Q 3016 2238 3031 2350 
Q 3047 2463 3047 2528 
Q 3047 2791 2881 2937 
Q 2716 3084 2419 3084 
Q 1956 3084 1622 2776 
Q 1288 2469 1184 1941 
L 800 0 
L 225 0 
L 903 3500 
L 1478 3500 
L 1363 2950 
Q 1603 3253 1940 3418 
Q 2278 3584 2650 3584 
Q 3113 3584 3367 3334 
Q 3622 3084 3622 2631 
Q 3622 2519 3608 2391 
Q 3594 2263 3566 2113 
z
" id="DejaVuSans-Oblique-6e" transform="scale(0.015625)"/>
       <path d="M 3078 2063 
Q 3088 2113 3092 2166 
Q 3097 2219 3097 2272 
Q 3097 2653 2873 2875 
Q 2650 3097 2266 3097 
Q 1838 3097 1509 2826 
Q 1181 2556 1013 2059 
L 3078 2063 
z
M 3578 1613 
L 903 1613 
Q 884 1494 878 1425 
Q 872 1356 872 1306 
Q 872 872 1139 634 
Q 1406 397 1894 397 
Q 2269 397 2603 481 
Q 2938 566 3225 728 
L 3116 159 
Q 2806 34 2476 -28 
Q 2147 -91 1806 -91 
Q 1078 -91 686 257 
Q 294 606 294 1247 
Q 294 1794 489 2264 
Q 684 2734 1063 3103 
Q 1306 3334 1642 3459 
Q 1978 3584 2356 3584 
Q 2950 3584 3301 3228 
Q 3653 2872 3653 2272 
Q 3653 2128 3634 1964 
Q 3616 1800 3578 1613 
z
" id="DejaVuSans-Oblique-65" transform="scale(0.015625)"/>
       <path d="M 3841 3500 
L 2234 1784 
L 3219 0 
L 2559 0 
L 1819 1388 
L 531 0 
L -166 0 
L 1556 1844 
L 641 3500 
L 1300 3500 
L 1972 2234 
L 3144 3500 
L 3841 3500 
z
" id="DejaVuSans-Oblique-78" transform="scale(0.015625)"/>
       <path d="M 513 4856 
L 1013 4856 
Q 1481 4119 1714 3412 
Q 1947 2706 1947 2009 
Q 1947 1309 1714 600 
Q 1481 -109 1013 -844 
L 513 -844 
Q 928 -128 1133 580 
Q 1338 1288 1338 2009 
Q 1338 2731 1133 3434 
Q 928 4138 513 4856 
z
" id="DejaVuSans-29" transform="scale(0.015625)"/>
      </defs>
      <use transform="translate(0 0.125)" xlink:href="#DejaVuSans-Oblique-70"/>
      <use transform="translate(63.476562 0.125)" xlink:href="#DejaVuSans-28"/>
      <use transform="translate(102.490234 0.125)" xlink:href="#DejaVuSans-Oblique-63"/>
      <use transform="translate(157.470703 0.125)" xlink:href="#DejaVuSans-Oblique-6f"/>
      <use transform="translate(218.652344 0.125)" xlink:href="#DejaVuSans-Oblique-6e"/>
      <use transform="translate(282.03125 0.125)" xlink:href="#DejaVuSans-Oblique-74"/>
      <use transform="translate(321.240234 0.125)" xlink:href="#DejaVuSans-Oblique-65"/>
      <use transform="translate(382.763672 0.125)" xlink:href="#DejaVuSans-Oblique-78"/>
      <use transform="translate(441.943359 0.125)" xlink:href="#DejaVuSans-Oblique-74"/>
      <use transform="translate(481.152344 0.125)" xlink:href="#DejaVuSans-29"/>
     </g>
    </g>
   </g>
   <g id="line2d_47">
    <path clip-path="url(#p2ac7907363)" d="M 139.588364 555.22857 
L 168.870545 646.289655 
L 198.152727 646.555958 
L 227.434909 646.577935 
L 256.717091 646.590279 
L 285.999273 646.599113 
L 315.281455 646.606146 
L 344.563636 646.612002 
L 373.845818 646.616979 
L 403.128 301.91852 
L 432.410182 643.092536 
L 461.692364 609.240887 
L 490.974545 603.395418 
L 520.256727 601.85032 
L 549.538909 645.420252 
L 578.821091 612.395433 
L 608.103273 605.703741 
L 637.385455 603.405183 
L 666.667636 602.185319 
L 695.949818 645.433435 
L 725.232 612.467478 
L 754.514182 605.760158 
L 783.796364 603.443652 
L 813.078545 602.210875 
L 842.360727 322.116941 
L 871.642909 285.255373 
L 900.925091 289.273133 
L 930.207273 298.373961 
L 959.489455 308.818938 
L 988.771636 319.744834 
L 1018.053818 330.732165 
L 1047.336 341.522328 
L 1076.618182 351.94507 
L 1105.900364 361.88823 
L 1135.182545 371.282187 
L 1164.464727 380.090053 
L 1193.746909 642.89072 
L 1223.029091 605.44169 
L 1252.311273 600.374728 
L 1281.593455 599.785194 
" style="fill:none;stroke:#0000ff;stroke-linecap:square;stroke-width:1.5;"/>
    <defs>
     <path d="M 0 3 
C 0.795609 3 1.55874 2.683901 2.12132 2.12132 
C 2.683901 1.55874 3 0.795609 3 0 
C 3 -0.795609 2.683901 -1.55874 2.12132 -2.12132 
C 1.55874 -2.683901 0.795609 -3 0 -3 
C -0.795609 -3 -1.55874 -2.683901 -2.12132 -2.12132 
C -2.683901 -1.55874 -3 -0.795609 -3 0 
C -3 0.795609 -2.683901 1.55874 -2.12132 2.12132 
C -1.55874 2.683901 -0.795609 3 0 3 
z
" id="m85aa2fbb0b" style="stroke:#0000ff;"/>
    </defs>
    <g clip-path="url(#p2ac7907363)">
     <use style="fill:#0000ff;stroke:#0000ff;" x="139.588364" xlink:href="#m85aa2fbb0b" y="555.22857"/>
     <use style="fill:#0000ff;stroke:#0000ff;" x="168.870545" xlink:href="#m85aa2fbb0b" y="646.289655"/>
     <use style="fill:#0000ff;stroke:#0000ff;" x="198.152727" xlink:href="#m85aa2fbb0b" y="646.555958"/>
     <use style="fill:#0000ff;stroke:#0000ff;" x="227.434909" xlink:href="#m85aa2fbb0b" y="646.577935"/>
     <use style="fill:#0000ff;stroke:#0000ff;" x="256.717091" xlink:href="#m85aa2fbb0b" y="646.590279"/>
     <use style="fill:#0000ff;stroke:#0000ff;" x="285.999273" xlink:href="#m85aa2fbb0b" y="646.599113"/>
     <use style="fill:#0000ff;stroke:#0000ff;" x="315.281455" xlink:href="#m85aa2fbb0b" y="646.606146"/>
     <use style="fill:#0000ff;stroke:#0000ff;" x="344.563636" xlink:href="#m85aa2fbb0b" y="646.612002"/>
     <use style="fill:#0000ff;stroke:#0000ff;" x="373.845818" xlink:href="#m85aa2fbb0b" y="646.616979"/>
     <use style="fill:#0000ff;stroke:#0000ff;" x="403.128" xlink:href="#m85aa2fbb0b" y="301.91852"/>
     <use style="fill:#0000ff;stroke:#0000ff;" x="432.410182" xlink:href="#m85aa2fbb0b" y="643.092536"/>
     <use style="fill:#0000ff;stroke:#0000ff;" x="461.692364" xlink:href="#m85aa2fbb0b" y="609.240887"/>
     <use style="fill:#0000ff;stroke:#0000ff;" x="490.974545" xlink:href="#m85aa2fbb0b" y="603.395418"/>
     <use style="fill:#0000ff;stroke:#0000ff;" x="520.256727" xlink:href="#m85aa2fbb0b" y="601.85032"/>
     <use style="fill:#0000ff;stroke:#0000ff;" x="549.538909" xlink:href="#m85aa2fbb0b" y="645.420252"/>
     <use style="fill:#0000ff;stroke:#0000ff;" x="578.821091" xlink:href="#m85aa2fbb0b" y="612.395433"/>
     <use style="fill:#0000ff;stroke:#0000ff;" x="608.103273" xlink:href="#m85aa2fbb0b" y="605.703741"/>
     <use style="fill:#0000ff;stroke:#0000ff;" x="637.385455" xlink:href="#m85aa2fbb0b" y="603.405183"/>
     <use style="fill:#0000ff;stroke:#0000ff;" x="666.667636" xlink:href="#m85aa2fbb0b" y="602.185319"/>
     <use style="fill:#0000ff;stroke:#0000ff;" x="695.949818" xlink:href="#m85aa2fbb0b" y="645.433435"/>
     <use style="fill:#0000ff;stroke:#0000ff;" x="725.232" xlink:href="#m85aa2fbb0b" y="612.467478"/>
     <use style="fill:#0000ff;stroke:#0000ff;" x="754.514182" xlink:href="#m85aa2fbb0b" y="605.760158"/>
     <use style="fill:#0000ff;stroke:#0000ff;" x="783.796364" xlink:href="#m85aa2fbb0b" y="603.443652"/>
     <use style="fill:#0000ff;stroke:#0000ff;" x="813.078545" xlink:href="#m85aa2fbb0b" y="602.210875"/>
     <use style="fill:#0000ff;stroke:#0000ff;" x="842.360727" xlink:href="#m85aa2fbb0b" y="322.116941"/>
     <use style="fill:#0000ff;stroke:#0000ff;" x="871.642909" xlink:href="#m85aa2fbb0b" y="285.255373"/>
     <use style="fill:#0000ff;stroke:#0000ff;" x="900.925091" xlink:href="#m85aa2fbb0b" y="289.273133"/>
     <use style="fill:#0000ff;stroke:#0000ff;" x="930.207273" xlink:href="#m85aa2fbb0b" y="298.373961"/>
     <use style="fill:#0000ff;stroke:#0000ff;" x="959.489455" xlink:href="#m85aa2fbb0b" y="308.818938"/>
     <use style="fill:#0000ff;stroke:#0000ff;" x="988.771636" xlink:href="#m85aa2fbb0b" y="319.744834"/>
     <use style="fill:#0000ff;stroke:#0000ff;" x="1018.053818" xlink:href="#m85aa2fbb0b" y="330.732165"/>
     <use style="fill:#0000ff;stroke:#0000ff;" x="1047.336" xlink:href="#m85aa2fbb0b" y="341.522328"/>
     <use style="fill:#0000ff;stroke:#0000ff;" x="1076.618182" xlink:href="#m85aa2fbb0b" y="351.94507"/>
     <use style="fill:#0000ff;stroke:#0000ff;" x="1105.900364" xlink:href="#m85aa2fbb0b" y="361.88823"/>
     <use style="fill:#0000ff;stroke:#0000ff;" x="1135.182545" xlink:href="#m85aa2fbb0b" y="371.282187"/>
     <use style="fill:#0000ff;stroke:#0000ff;" x="1164.464727" xlink:href="#m85aa2fbb0b" y="380.090053"/>
     <use style="fill:#0000ff;stroke:#0000ff;" x="1193.746909" xlink:href="#m85aa2fbb0b" y="642.89072"/>
     <use style="fill:#0000ff;stroke:#0000ff;" x="1223.029091" xlink:href="#m85aa2fbb0b" y="605.44169"/>
     <use style="fill:#0000ff;stroke:#0000ff;" x="1252.311273" xlink:href="#m85aa2fbb0b" y="600.374728"/>
     <use style="fill:#0000ff;stroke:#0000ff;" x="1281.593455" xlink:href="#m85aa2fbb0b" y="599.785194"/>
    </g>
   </g>
   <g id="line2d_48">
    <path clip-path="url(#p2ac7907363)" d="M 139.588364 157.34004 
L 168.870545 57.717646 
L 198.152727 52.325898 
L 227.434909 50.663806 
L 256.717091 49.995997 
L 285.999273 49.631353 
L 315.281455 49.380685 
L 344.563636 49.187954 
L 373.845818 49.033088 
L 403.128 507.532223 
L 432.410182 104.9476 
L 461.692364 146.476465 
L 490.974545 159.004706 
L 520.256727 165.18588 
L 549.538909 74.565994 
L 578.821091 124.970505 
L 608.103273 144.610237 
L 637.385455 155.659605 
L 666.667636 162.682425 
L 695.949818 73.852138 
L 725.232 124.442363 
L 754.514182 144.253755 
L 783.796364 155.423273 
L 813.078545 162.526333 
L 842.360727 557.943943 
L 871.642909 612.240978 
L 900.925091 616.312776 
L 930.207273 617.147453 
L 959.489455 617.972538 
L 988.771636 618.900258 
L 1018.053818 619.878116 
L 1047.336 620.865472 
L 1076.618182 621.834964 
L 1105.900364 622.767964 
L 1135.182545 623.652062 
L 1164.464727 624.479621 
L 1193.746909 142.838663 
L 1223.029091 174.783764 
L 1252.311273 178.145622 
L 1281.593455 177.880187 
" style="fill:none;stroke:#ff0000;stroke-linecap:square;stroke-width:1.5;"/>
    <defs>
     <path d="M 0 3 
C 0.795609 3 1.55874 2.683901 2.12132 2.12132 
C 2.683901 1.55874 3 0.795609 3 0 
C 3 -0.795609 2.683901 -1.55874 2.12132 -2.12132 
C 1.55874 -2.683901 0.795609 -3 0 -3 
C -0.795609 -3 -1.55874 -2.683901 -2.12132 -2.12132 
C -2.683901 -1.55874 -3 -0.795609 -3 0 
C -3 0.795609 -2.683901 1.55874 -2.12132 2.12132 
C -1.55874 2.683901 -0.795609 3 0 3 
z
" id="mf586ad56d6" style="stroke:#ff0000;"/>
    </defs>
    <g clip-path="url(#p2ac7907363)">
     <use style="fill:#ff0000;stroke:#ff0000;" x="139.588364" xlink:href="#mf586ad56d6" y="157.34004"/>
     <use style="fill:#ff0000;stroke:#ff0000;" x="168.870545" xlink:href="#mf586ad56d6" y="57.717646"/>
     <use style="fill:#ff0000;stroke:#ff0000;" x="198.152727" xlink:href="#mf586ad56d6" y="52.325898"/>
     <use style="fill:#ff0000;stroke:#ff0000;" x="227.434909" xlink:href="#mf586ad56d6" y="50.663806"/>
     <use style="fill:#ff0000;stroke:#ff0000;" x="256.717091" xlink:href="#mf586ad56d6" y="49.995997"/>
     <use style="fill:#ff0000;stroke:#ff0000;" x="285.999273" xlink:href="#mf586ad56d6" y="49.631353"/>
     <use style="fill:#ff0000;stroke:#ff0000;" x="315.281455" xlink:href="#mf586ad56d6" y="49.380685"/>
     <use style="fill:#ff0000;stroke:#ff0000;" x="344.563636" xlink:href="#mf586ad56d6" y="49.187954"/>
     <use style="fill:#ff0000;stroke:#ff0000;" x="373.845818" xlink:href="#mf586ad56d6" y="49.033088"/>
     <use style="fill:#ff0000;stroke:#ff0000;" x="403.128" xlink:href="#mf586ad56d6" y="507.532223"/>
     <use style="fill:#ff0000;stroke:#ff0000;" x="432.410182" xlink:href="#mf586ad56d6" y="104.9476"/>
     <use style="fill:#ff0000;stroke:#ff0000;" x="461.692364" xlink:href="#mf586ad56d6" y="146.476465"/>
     <use style="fill:#ff0000;stroke:#ff0000;" x="490.974545" xlink:href="#mf586ad56d6" y="159.004706"/>
     <use style="fill:#ff0000;stroke:#ff0000;" x="520.256727" xlink:href="#mf586ad56d6" y="165.18588"/>
     <use style="fill:#ff0000;stroke:#ff0000;" x="549.538909" xlink:href="#mf586ad56d6" y="74.565994"/>
     <use style="fill:#ff0000;stroke:#ff0000;" x="578.821091" xlink:href="#mf586ad56d6" y="124.970505"/>
     <use style="fill:#ff0000;stroke:#ff0000;" x="608.103273" xlink:href="#mf586ad56d6" y="144.610237"/>
     <use style="fill:#ff0000;stroke:#ff0000;" x="637.385455" xlink:href="#mf586ad56d6" y="155.659605"/>
     <use style="fill:#ff0000;stroke:#ff0000;" x="666.667636" xlink:href="#mf586ad56d6" y="162.682425"/>
     <use style="fill:#ff0000;stroke:#ff0000;" x="695.949818" xlink:href="#mf586ad56d6" y="73.852138"/>
     <use style="fill:#ff0000;stroke:#ff0000;" x="725.232" xlink:href="#mf586ad56d6" y="124.442363"/>
     <use style="fill:#ff0000;stroke:#ff0000;" x="754.514182" xlink:href="#mf586ad56d6" y="144.253755"/>
     <use style="fill:#ff0000;stroke:#ff0000;" x="783.796364" xlink:href="#mf586ad56d6" y="155.423273"/>
     <use style="fill:#ff0000;stroke:#ff0000;" x="813.078545" xlink:href="#mf586ad56d6" y="162.526333"/>
     <use style="fill:#ff0000;stroke:#ff0000;" x="842.360727" xlink:href="#mf586ad56d6" y="557.943943"/>
     <use style="fill:#ff0000;stroke:#ff0000;" x="871.642909" xlink:href="#mf586ad56d6" y="612.240978"/>
     <use style="fill:#ff0000;stroke:#ff0000;" x="900.925091" xlink:href="#mf586ad56d6" y="616.312776"/>
     <use style="fill:#ff0000;stroke:#ff0000;" x="930.207273" xlink:href="#mf586ad56d6" y="617.147453"/>
     <use style="fill:#ff0000;stroke:#ff0000;" x="959.489455" xlink:href="#mf586ad56d6" y="617.972538"/>
     <use style="fill:#ff0000;stroke:#ff0000;" x="988.771636" xlink:href="#mf586ad56d6" y="618.900258"/>
     <use style="fill:#ff0000;stroke:#ff0000;" x="1018.053818" xlink:href="#mf586ad56d6" y="619.878116"/>
     <use style="fill:#ff0000;stroke:#ff0000;" x="1047.336" xlink:href="#mf586ad56d6" y="620.865472"/>
     <use style="fill:#ff0000;stroke:#ff0000;" x="1076.618182" xlink:href="#mf586ad56d6" y="621.834964"/>
     <use style="fill:#ff0000;stroke:#ff0000;" x="1105.900364" xlink:href="#mf586ad56d6" y="622.767964"/>
     <use style="fill:#ff0000;stroke:#ff0000;" x="1135.182545" xlink:href="#mf586ad56d6" y="623.652062"/>
     <use style="fill:#ff0000;stroke:#ff0000;" x="1164.464727" xlink:href="#mf586ad56d6" y="624.479621"/>
     <use style="fill:#ff0000;stroke:#ff0000;" x="1193.746909" xlink:href="#mf586ad56d6" y="142.838663"/>
     <use style="fill:#ff0000;stroke:#ff0000;" x="1223.029091" xlink:href="#mf586ad56d6" y="174.783764"/>
     <use style="fill:#ff0000;stroke:#ff0000;" x="1252.311273" xlink:href="#mf586ad56d6" y="178.145622"/>
     <use style="fill:#ff0000;stroke:#ff0000;" x="1281.593455" xlink:href="#mf586ad56d6" y="177.880187"/>
    </g>
   </g>
   <g id="line2d_49">
    <path clip-path="url(#p2ac7907363)" d="M 139.588364 616.44219 
L 168.870545 625.003499 
L 198.152727 630.128944 
L 227.434909 631.769059 
L 256.717091 632.424524 
L 285.999273 632.780335 
L 315.281455 633.023969 
L 344.563636 633.210844 
L 373.845818 633.360732 
L 403.128 519.560057 
L 432.410182 580.970664 
L 461.692364 573.293448 
L 490.974545 566.610676 
L 520.256727 561.9746 
L 549.538909 609.024553 
L 578.821091 591.644862 
L 608.103273 578.696822 
L 637.385455 569.946011 
L 666.667636 564.143057 
L 695.949818 609.725227 
L 725.232 592.10096 
L 754.514182 578.996888 
L 783.796364 570.143875 
L 813.078545 564.273591 
L 842.360727 448.949916 
L 871.642909 431.514449 
L 900.925091 423.424891 
L 930.207273 413.489386 
L 959.489455 402.219324 
L 988.771636 390.365707 
L 1018.053818 378.400519 
L 1047.336 366.623001 
L 1076.618182 355.230766 
L 1105.900364 344.354606 
L 1135.182545 334.076551 
L 1164.464727 324.441125 
L 1193.746909 543.281416 
L 1223.029091 548.785347 
L 1252.311273 550.49045 
L 1281.593455 551.345419 
" style="fill:none;stroke:#808080;stroke-linecap:square;stroke-width:1.5;"/>
    <defs>
     <path d="M 0 3 
C 0.795609 3 1.55874 2.683901 2.12132 2.12132 
C 2.683901 1.55874 3 0.795609 3 0 
C 3 -0.795609 2.683901 -1.55874 2.12132 -2.12132 
C 1.55874 -2.683901 0.795609 -3 0 -3 
C -0.795609 -3 -1.55874 -2.683901 -2.12132 -2.12132 
C -2.683901 -1.55874 -3 -0.795609 -3 0 
C -3 0.795609 -2.683901 1.55874 -2.12132 2.12132 
C -1.55874 2.683901 -0.795609 3 0 3 
z
" id="me140cf5a18" style="stroke:#808080;"/>
    </defs>
    <g clip-path="url(#p2ac7907363)">
     <use style="fill:#808080;stroke:#808080;" x="139.588364" xlink:href="#me140cf5a18" y="616.44219"/>
     <use style="fill:#808080;stroke:#808080;" x="168.870545" xlink:href="#me140cf5a18" y="625.003499"/>
     <use style="fill:#808080;stroke:#808080;" x="198.152727" xlink:href="#me140cf5a18" y="630.128944"/>
     <use style="fill:#808080;stroke:#808080;" x="227.434909" xlink:href="#me140cf5a18" y="631.769059"/>
     <use style="fill:#808080;stroke:#808080;" x="256.717091" xlink:href="#me140cf5a18" y="632.424524"/>
     <use style="fill:#808080;stroke:#808080;" x="285.999273" xlink:href="#me140cf5a18" y="632.780335"/>
     <use style="fill:#808080;stroke:#808080;" x="315.281455" xlink:href="#me140cf5a18" y="633.023969"/>
     <use style="fill:#808080;stroke:#808080;" x="344.563636" xlink:href="#me140cf5a18" y="633.210844"/>
     <use style="fill:#808080;stroke:#808080;" x="373.845818" xlink:href="#me140cf5a18" y="633.360732"/>
     <use style="fill:#808080;stroke:#808080;" x="403.128" xlink:href="#me140cf5a18" y="519.560057"/>
     <use style="fill:#808080;stroke:#808080;" x="432.410182" xlink:href="#me140cf5a18" y="580.970664"/>
     <use style="fill:#808080;stroke:#808080;" x="461.692364" xlink:href="#me140cf5a18" y="573.293448"/>
     <use style="fill:#808080;stroke:#808080;" x="490.974545" xlink:href="#me140cf5a18" y="566.610676"/>
     <use style="fill:#808080;stroke:#808080;" x="520.256727" xlink:href="#me140cf5a18" y="561.9746"/>
     <use style="fill:#808080;stroke:#808080;" x="549.538909" xlink:href="#me140cf5a18" y="609.024553"/>
     <use style="fill:#808080;stroke:#808080;" x="578.821091" xlink:href="#me140cf5a18" y="591.644862"/>
     <use style="fill:#808080;stroke:#808080;" x="608.103273" xlink:href="#me140cf5a18" y="578.696822"/>
     <use style="fill:#808080;stroke:#808080;" x="637.385455" xlink:href="#me140cf5a18" y="569.946011"/>
     <use style="fill:#808080;stroke:#808080;" x="666.667636" xlink:href="#me140cf5a18" y="564.143057"/>
     <use style="fill:#808080;stroke:#808080;" x="695.949818" xlink:href="#me140cf5a18" y="609.725227"/>
     <use style="fill:#808080;stroke:#808080;" x="725.232" xlink:href="#me140cf5a18" y="592.10096"/>
     <use style="fill:#808080;stroke:#808080;" x="754.514182" xlink:href="#me140cf5a18" y="578.996888"/>
     <use style="fill:#808080;stroke:#808080;" x="783.796364" xlink:href="#me140cf5a18" y="570.143875"/>
     <use style="fill:#808080;stroke:#808080;" x="813.078545" xlink:href="#me140cf5a18" y="564.273591"/>
     <use style="fill:#808080;stroke:#808080;" x="842.360727" xlink:href="#me140cf5a18" y="448.949916"/>
     <use style="fill:#808080;stroke:#808080;" x="871.642909" xlink:href="#me140cf5a18" y="431.514449"/>
     <use style="fill:#808080;stroke:#808080;" x="900.925091" xlink:href="#me140cf5a18" y="423.424891"/>
     <use style="fill:#808080;stroke:#808080;" x="930.207273" xlink:href="#me140cf5a18" y="413.489386"/>
     <use style="fill:#808080;stroke:#808080;" x="959.489455" xlink:href="#me140cf5a18" y="402.219324"/>
     <use style="fill:#808080;stroke:#808080;" x="988.771636" xlink:href="#me140cf5a18" y="390.365707"/>
     <use style="fill:#808080;stroke:#808080;" x="1018.053818" xlink:href="#me140cf5a18" y="378.400519"/>
     <use style="fill:#808080;stroke:#808080;" x="1047.336" xlink:href="#me140cf5a18" y="366.623001"/>
     <use style="fill:#808080;stroke:#808080;" x="1076.618182" xlink:href="#me140cf5a18" y="355.230766"/>
     <use style="fill:#808080;stroke:#808080;" x="1105.900364" xlink:href="#me140cf5a18" y="344.354606"/>
     <use style="fill:#808080;stroke:#808080;" x="1135.182545" xlink:href="#me140cf5a18" y="334.076551"/>
     <use style="fill:#808080;stroke:#808080;" x="1164.464727" xlink:href="#me140cf5a18" y="324.441125"/>
     <use style="fill:#808080;stroke:#808080;" x="1193.746909" xlink:href="#me140cf5a18" y="543.281416"/>
     <use style="fill:#808080;stroke:#808080;" x="1223.029091" xlink:href="#me140cf5a18" y="548.785347"/>
     <use style="fill:#808080;stroke:#808080;" x="1252.311273" xlink:href="#me140cf5a18" y="550.49045"/>
     <use style="fill:#808080;stroke:#808080;" x="1281.593455" xlink:href="#me140cf5a18" y="551.345419"/>
    </g>
   </g>
   <g id="patch_5">
    <path d="M 81.024 647.049 
L 81.024 34.9128 
" style="fill:none;stroke:#000000;stroke-linecap:square;stroke-linejoin:miter;stroke-width:0.8;"/>
   </g>
   <g id="patch_6">
    <path d="M 1369.44 647.049 
L 1369.44 34.9128 
" style="fill:none;stroke:#000000;stroke-linecap:square;stroke-linejoin:miter;stroke-width:0.8;"/>
   </g>
   <g id="patch_7">
    <path d="M 81.024 647.049 
L 1369.44 647.049 
" style="fill:none;stroke:#000000;stroke-linecap:square;stroke-linejoin:miter;stroke-width:0.8;"/>
   </g>
   <g id="patch_8">
    <path d="M 81.024 34.9128 
L 1369.44 34.9128 
" style="fill:none;stroke:#000000;stroke-linecap:square;stroke-linejoin:miter;stroke-width:0.8;"/>
   </g>
   <g id="text_49">
    <!-- Depression: insensitive-pessimistic -->
    <g transform="translate(506.175359 28.9128)scale(0.25 -0.25)">
     <defs>
      <path d="M 1259 4147 
L 1259 519 
L 2022 519 
Q 2988 519 3436 956 
Q 3884 1394 3884 2338 
Q 3884 3275 3436 3711 
Q 2988 4147 2022 4147 
L 1259 4147 
z
M 628 4666 
L 1925 4666 
Q 3281 4666 3915 4102 
Q 4550 3538 4550 2338 
Q 4550 1131 3912 565 
Q 3275 0 1925 0 
L 628 0 
L 628 4666 
z
" id="DejaVuSans-44" transform="scale(0.015625)"/>
      <path d="M 3597 1894 
L 3597 1613 
L 953 1613 
Q 991 1019 1311 708 
Q 1631 397 2203 397 
Q 2534 397 2845 478 
Q 3156 559 3463 722 
L 3463 178 
Q 3153 47 2828 -22 
Q 2503 -91 2169 -91 
Q 1331 -91 842 396 
Q 353 884 353 1716 
Q 353 2575 817 3079 
Q 1281 3584 2069 3584 
Q 2775 3584 3186 3129 
Q 3597 2675 3597 1894 
z
M 3022 2063 
Q 3016 2534 2758 2815 
Q 2500 3097 2075 3097 
Q 1594 3097 1305 2825 
Q 1016 2553 972 2059 
L 3022 2063 
z
" id="DejaVuSans-65" transform="scale(0.015625)"/>
      <path d="M 1159 525 
L 1159 -1331 
L 581 -1331 
L 581 3500 
L 1159 3500 
L 1159 2969 
Q 1341 3281 1617 3432 
Q 1894 3584 2278 3584 
Q 2916 3584 3314 3078 
Q 3713 2572 3713 1747 
Q 3713 922 3314 415 
Q 2916 -91 2278 -91 
Q 1894 -91 1617 61 
Q 1341 213 1159 525 
z
M 3116 1747 
Q 3116 2381 2855 2742 
Q 2594 3103 2138 3103 
Q 1681 3103 1420 2742 
Q 1159 2381 1159 1747 
Q 1159 1113 1420 752 
Q 1681 391 2138 391 
Q 2594 391 2855 752 
Q 3116 1113 3116 1747 
z
" id="DejaVuSans-70" transform="scale(0.015625)"/>
      <path d="M 2631 2963 
Q 2534 3019 2420 3045 
Q 2306 3072 2169 3072 
Q 1681 3072 1420 2755 
Q 1159 2438 1159 1844 
L 1159 0 
L 581 0 
L 581 3500 
L 1159 3500 
L 1159 2956 
Q 1341 3275 1631 3429 
Q 1922 3584 2338 3584 
Q 2397 3584 2469 3576 
Q 2541 3569 2628 3553 
L 2631 2963 
z
" id="DejaVuSans-72" transform="scale(0.015625)"/>
      <path d="M 2834 3397 
L 2834 2853 
Q 2591 2978 2328 3040 
Q 2066 3103 1784 3103 
Q 1356 3103 1142 2972 
Q 928 2841 928 2578 
Q 928 2378 1081 2264 
Q 1234 2150 1697 2047 
L 1894 2003 
Q 2506 1872 2764 1633 
Q 3022 1394 3022 966 
Q 3022 478 2636 193 
Q 2250 -91 1575 -91 
Q 1294 -91 989 -36 
Q 684 19 347 128 
L 347 722 
Q 666 556 975 473 
Q 1284 391 1588 391 
Q 1994 391 2212 530 
Q 2431 669 2431 922 
Q 2431 1156 2273 1281 
Q 2116 1406 1581 1522 
L 1381 1569 
Q 847 1681 609 1914 
Q 372 2147 372 2553 
Q 372 3047 722 3315 
Q 1072 3584 1716 3584 
Q 2034 3584 2315 3537 
Q 2597 3491 2834 3397 
z
" id="DejaVuSans-73" transform="scale(0.015625)"/>
      <path d="M 603 3500 
L 1178 3500 
L 1178 0 
L 603 0 
L 603 3500 
z
M 603 4863 
L 1178 4863 
L 1178 4134 
L 603 4134 
L 603 4863 
z
" id="DejaVuSans-69" transform="scale(0.015625)"/>
      <path d="M 1959 3097 
Q 1497 3097 1228 2736 
Q 959 2375 959 1747 
Q 959 1119 1226 758 
Q 1494 397 1959 397 
Q 2419 397 2687 759 
Q 2956 1122 2956 1747 
Q 2956 2369 2687 2733 
Q 2419 3097 1959 3097 
z
M 1959 3584 
Q 2709 3584 3137 3096 
Q 3566 2609 3566 1747 
Q 3566 888 3137 398 
Q 2709 -91 1959 -91 
Q 1206 -91 779 398 
Q 353 888 353 1747 
Q 353 2609 779 3096 
Q 1206 3584 1959 3584 
z
" id="DejaVuSans-6f" transform="scale(0.015625)"/>
      <path d="M 3513 2113 
L 3513 0 
L 2938 0 
L 2938 2094 
Q 2938 2591 2744 2837 
Q 2550 3084 2163 3084 
Q 1697 3084 1428 2787 
Q 1159 2491 1159 1978 
L 1159 0 
L 581 0 
L 581 3500 
L 1159 3500 
L 1159 2956 
Q 1366 3272 1645 3428 
Q 1925 3584 2291 3584 
Q 2894 3584 3203 3211 
Q 3513 2838 3513 2113 
z
" id="DejaVuSans-6e" transform="scale(0.015625)"/>
      <path d="M 750 794 
L 1409 794 
L 1409 0 
L 750 0 
L 750 794 
z
M 750 3309 
L 1409 3309 
L 1409 2516 
L 750 2516 
L 750 3309 
z
" id="DejaVuSans-3a" transform="scale(0.015625)"/>
      <path id="DejaVuSans-20" transform="scale(0.015625)"/>
      <path d="M 1172 4494 
L 1172 3500 
L 2356 3500 
L 2356 3053 
L 1172 3053 
L 1172 1153 
Q 1172 725 1289 603 
Q 1406 481 1766 481 
L 2356 481 
L 2356 0 
L 1766 0 
Q 1100 0 847 248 
Q 594 497 594 1153 
L 594 3053 
L 172 3053 
L 172 3500 
L 594 3500 
L 594 4494 
L 1172 4494 
z
" id="DejaVuSans-74" transform="scale(0.015625)"/>
      <path d="M 191 3500 
L 800 3500 
L 1894 563 
L 2988 3500 
L 3597 3500 
L 2284 0 
L 1503 0 
L 191 3500 
z
" id="DejaVuSans-76" transform="scale(0.015625)"/>
      <path d="M 313 2009 
L 1997 2009 
L 1997 1497 
L 313 1497 
L 313 2009 
z
" id="DejaVuSans-2d" transform="scale(0.015625)"/>
      <path d="M 3328 2828 
Q 3544 3216 3844 3400 
Q 4144 3584 4550 3584 
Q 5097 3584 5394 3201 
Q 5691 2819 5691 2113 
L 5691 0 
L 5113 0 
L 5113 2094 
Q 5113 2597 4934 2840 
Q 4756 3084 4391 3084 
Q 3944 3084 3684 2787 
Q 3425 2491 3425 1978 
L 3425 0 
L 2847 0 
L 2847 2094 
Q 2847 2600 2669 2842 
Q 2491 3084 2119 3084 
Q 1678 3084 1418 2786 
Q 1159 2488 1159 1978 
L 1159 0 
L 581 0 
L 581 3500 
L 1159 3500 
L 1159 2956 
Q 1356 3278 1631 3431 
Q 1906 3584 2284 3584 
Q 2666 3584 2933 3390 
Q 3200 3197 3328 2828 
z
" id="DejaVuSans-6d" transform="scale(0.015625)"/>
      <path d="M 3122 3366 
L 3122 2828 
Q 2878 2963 2633 3030 
Q 2388 3097 2138 3097 
Q 1578 3097 1268 2742 
Q 959 2388 959 1747 
Q 959 1106 1268 751 
Q 1578 397 2138 397 
Q 2388 397 2633 464 
Q 2878 531 3122 666 
L 3122 134 
Q 2881 22 2623 -34 
Q 2366 -91 2075 -91 
Q 1284 -91 818 406 
Q 353 903 353 1747 
Q 353 2603 823 3093 
Q 1294 3584 2113 3584 
Q 2378 3584 2631 3529 
Q 2884 3475 3122 3366 
z
" id="DejaVuSans-63" transform="scale(0.015625)"/>
     </defs>
     <use xlink:href="#DejaVuSans-44"/>
     <use x="77.001953" xlink:href="#DejaVuSans-65"/>
     <use x="138.525391" xlink:href="#DejaVuSans-70"/>
     <use x="202.001953" xlink:href="#DejaVuSans-72"/>
     <use x="240.865234" xlink:href="#DejaVuSans-65"/>
     <use x="302.388672" xlink:href="#DejaVuSans-73"/>
     <use x="354.488281" xlink:href="#DejaVuSans-73"/>
     <use x="406.587891" xlink:href="#DejaVuSans-69"/>
     <use x="434.371094" xlink:href="#DejaVuSans-6f"/>
     <use x="495.552734" xlink:href="#DejaVuSans-6e"/>
     <use x="558.931641" xlink:href="#DejaVuSans-3a"/>
     <use x="592.623047" xlink:href="#DejaVuSans-20"/>
     <use x="624.410156" xlink:href="#DejaVuSans-69"/>
     <use x="652.193359" xlink:href="#DejaVuSans-6e"/>
     <use x="715.572266" xlink:href="#DejaVuSans-73"/>
     <use x="767.671875" xlink:href="#DejaVuSans-65"/>
     <use x="829.195312" xlink:href="#DejaVuSans-6e"/>
     <use x="892.574219" xlink:href="#DejaVuSans-73"/>
     <use x="944.673828" xlink:href="#DejaVuSans-69"/>
     <use x="972.457031" xlink:href="#DejaVuSans-74"/>
     <use x="1011.666016" xlink:href="#DejaVuSans-69"/>
     <use x="1039.449219" xlink:href="#DejaVuSans-76"/>
     <use x="1098.628906" xlink:href="#DejaVuSans-65"/>
     <use x="1160.152344" xlink:href="#DejaVuSans-2d"/>
     <use x="1196.236328" xlink:href="#DejaVuSans-70"/>
     <use x="1259.712891" xlink:href="#DejaVuSans-65"/>
     <use x="1321.236328" xlink:href="#DejaVuSans-73"/>
     <use x="1373.335938" xlink:href="#DejaVuSans-73"/>
     <use x="1425.435547" xlink:href="#DejaVuSans-69"/>
     <use x="1453.21875" xlink:href="#DejaVuSans-6d"/>
     <use x="1550.630859" xlink:href="#DejaVuSans-69"/>
     <use x="1578.414062" xlink:href="#DejaVuSans-73"/>
     <use x="1630.513672" xlink:href="#DejaVuSans-74"/>
     <use x="1669.722656" xlink:href="#DejaVuSans-69"/>
     <use x="1697.505859" xlink:href="#DejaVuSans-63"/>
    </g>
   </g>
   <g id="legend_1">
    <g id="patch_9">
     <path d="M 1259.588437 130.98155 
L 1362.44 130.98155 
Q 1364.44 130.98155 1364.44 128.98155 
L 1364.44 41.9128 
Q 1364.44 39.9128 1362.44 39.9128 
L 1259.588437 39.9128 
Q 1257.588437 39.9128 1257.588437 41.9128 
L 1257.588437 128.98155 
Q 1257.588437 130.98155 1259.588437 130.98155 
z
" style="fill:#ffffff;opacity:0.8;stroke:#cccccc;stroke-linejoin:miter;"/>
    </g>
    <g id="line2d_50">
     <path d="M 1261.588437 48.011237 
L 1281.588437 48.011237 
" style="fill:none;stroke:#0000ff;stroke-linecap:square;stroke-width:1.5;"/>
    </g>
    <g id="line2d_51">
     <g>
      <use style="fill:#0000ff;stroke:#0000ff;" x="1271.588437" xlink:href="#m85aa2fbb0b" y="48.011237"/>
     </g>
    </g>
    <g id="text_50">
     <!-- cooperative -->
     <g transform="translate(1289.588437 51.511237)scale(0.1 -0.1)">
      <defs>
       <path d="M 2194 1759 
Q 1497 1759 1228 1600 
Q 959 1441 959 1056 
Q 959 750 1161 570 
Q 1363 391 1709 391 
Q 2188 391 2477 730 
Q 2766 1069 2766 1631 
L 2766 1759 
L 2194 1759 
z
M 3341 1997 
L 3341 0 
L 2766 0 
L 2766 531 
Q 2569 213 2275 61 
Q 1981 -91 1556 -91 
Q 1019 -91 701 211 
Q 384 513 384 1019 
Q 384 1609 779 1909 
Q 1175 2209 1959 2209 
L 2766 2209 
L 2766 2266 
Q 2766 2663 2505 2880 
Q 2244 3097 1772 3097 
Q 1472 3097 1187 3025 
Q 903 2953 641 2809 
L 641 3341 
Q 956 3463 1253 3523 
Q 1550 3584 1831 3584 
Q 2591 3584 2966 3190 
Q 3341 2797 3341 1997 
z
" id="DejaVuSans-61" transform="scale(0.015625)"/>
      </defs>
      <use xlink:href="#DejaVuSans-63"/>
      <use x="54.980469" xlink:href="#DejaVuSans-6f"/>
      <use x="116.162109" xlink:href="#DejaVuSans-6f"/>
      <use x="177.34375" xlink:href="#DejaVuSans-70"/>
      <use x="240.820312" xlink:href="#DejaVuSans-65"/>
      <use x="302.34375" xlink:href="#DejaVuSans-72"/>
      <use x="343.457031" xlink:href="#DejaVuSans-61"/>
      <use x="404.736328" xlink:href="#DejaVuSans-74"/>
      <use x="443.945312" xlink:href="#DejaVuSans-69"/>
      <use x="471.728516" xlink:href="#DejaVuSans-76"/>
      <use x="530.908203" xlink:href="#DejaVuSans-65"/>
     </g>
    </g>
    <g id="line2d_52">
     <path d="M 1261.588437 62.689363 
L 1281.588437 62.689363 
" style="fill:none;stroke:#ff0000;stroke-linecap:square;stroke-width:1.5;"/>
    </g>
    <g id="line2d_53">
     <g>
      <use style="fill:#ff0000;stroke:#ff0000;" x="1271.588437" xlink:href="#mf586ad56d6" y="62.689363"/>
     </g>
    </g>
    <g id="text_51">
     <!-- hostile -->
     <g transform="translate(1289.588437 66.189363)scale(0.1 -0.1)">
      <defs>
       <path d="M 3513 2113 
L 3513 0 
L 2938 0 
L 2938 2094 
Q 2938 2591 2744 2837 
Q 2550 3084 2163 3084 
Q 1697 3084 1428 2787 
Q 1159 2491 1159 1978 
L 1159 0 
L 581 0 
L 581 4863 
L 1159 4863 
L 1159 2956 
Q 1366 3272 1645 3428 
Q 1925 3584 2291 3584 
Q 2894 3584 3203 3211 
Q 3513 2838 3513 2113 
z
" id="DejaVuSans-68" transform="scale(0.015625)"/>
       <path d="M 603 4863 
L 1178 4863 
L 1178 0 
L 603 0 
L 603 4863 
z
" id="DejaVuSans-6c" transform="scale(0.015625)"/>
      </defs>
      <use xlink:href="#DejaVuSans-68"/>
      <use x="63.378906" xlink:href="#DejaVuSans-6f"/>
      <use x="124.560547" xlink:href="#DejaVuSans-73"/>
      <use x="176.660156" xlink:href="#DejaVuSans-74"/>
      <use x="215.869141" xlink:href="#DejaVuSans-69"/>
      <use x="243.652344" xlink:href="#DejaVuSans-6c"/>
      <use x="271.435547" xlink:href="#DejaVuSans-65"/>
     </g>
    </g>
    <g id="line2d_54">
     <path d="M 1261.588437 77.367488 
L 1281.588437 77.367488 
" style="fill:none;stroke:#808080;stroke-linecap:square;stroke-width:1.5;"/>
    </g>
    <g id="line2d_55">
     <g>
      <use style="fill:#808080;stroke:#808080;" x="1271.588437" xlink:href="#me140cf5a18" y="77.367488"/>
     </g>
    </g>
    <g id="text_52">
     <!-- random -->
     <g transform="translate(1289.588437 80.867488)scale(0.1 -0.1)">
      <defs>
       <path d="M 2906 2969 
L 2906 4863 
L 3481 4863 
L 3481 0 
L 2906 0 
L 2906 525 
Q 2725 213 2448 61 
Q 2172 -91 1784 -91 
Q 1150 -91 751 415 
Q 353 922 353 1747 
Q 353 2572 751 3078 
Q 1150 3584 1784 3584 
Q 2172 3584 2448 3432 
Q 2725 3281 2906 2969 
z
M 947 1747 
Q 947 1113 1208 752 
Q 1469 391 1925 391 
Q 2381 391 2643 752 
Q 2906 1113 2906 1747 
Q 2906 2381 2643 2742 
Q 2381 3103 1925 3103 
Q 1469 3103 1208 2742 
Q 947 2381 947 1747 
z
" id="DejaVuSans-64" transform="scale(0.015625)"/>
      </defs>
      <use xlink:href="#DejaVuSans-72"/>
      <use x="41.113281" xlink:href="#DejaVuSans-61"/>
      <use x="102.392578" xlink:href="#DejaVuSans-6e"/>
      <use x="165.771484" xlink:href="#DejaVuSans-64"/>
      <use x="229.248047" xlink:href="#DejaVuSans-6f"/>
      <use x="290.429688" xlink:href="#DejaVuSans-6d"/>
     </g>
    </g>
    <g id="line2d_56">
     <path d="M 1261.588437 92.045612 
L 1281.588437 92.045612 
" style="fill:none;stroke:#ffffff;stroke-linecap:square;stroke-width:1.5;"/>
    </g>
    <g id="line2d_57">
     <defs>
      <path d="M -0 5 
L 5 -5 
L -5 -5 
z
" id="macf948a155" style="stroke:#ffffff;stroke-linejoin:miter;"/>
     </defs>
     <g>
      <use style="fill:#ff0000;stroke:#ffffff;stroke-linejoin:miter;" x="1271.588437" xlink:href="#macf948a155" y="92.045612"/>
     </g>
    </g>
    <g id="text_53">
     <!-- invest - abuse -->
     <g transform="translate(1289.588437 95.545612)scale(0.1 -0.1)">
      <defs>
       <path d="M 3116 1747 
Q 3116 2381 2855 2742 
Q 2594 3103 2138 3103 
Q 1681 3103 1420 2742 
Q 1159 2381 1159 1747 
Q 1159 1113 1420 752 
Q 1681 391 2138 391 
Q 2594 391 2855 752 
Q 3116 1113 3116 1747 
z
M 1159 2969 
Q 1341 3281 1617 3432 
Q 1894 3584 2278 3584 
Q 2916 3584 3314 3078 
Q 3713 2572 3713 1747 
Q 3713 922 3314 415 
Q 2916 -91 2278 -91 
Q 1894 -91 1617 61 
Q 1341 213 1159 525 
L 1159 0 
L 581 0 
L 581 4863 
L 1159 4863 
L 1159 2969 
z
" id="DejaVuSans-62" transform="scale(0.015625)"/>
       <path d="M 544 1381 
L 544 3500 
L 1119 3500 
L 1119 1403 
Q 1119 906 1312 657 
Q 1506 409 1894 409 
Q 2359 409 2629 706 
Q 2900 1003 2900 1516 
L 2900 3500 
L 3475 3500 
L 3475 0 
L 2900 0 
L 2900 538 
Q 2691 219 2414 64 
Q 2138 -91 1772 -91 
Q 1169 -91 856 284 
Q 544 659 544 1381 
z
M 1991 3584 
L 1991 3584 
z
" id="DejaVuSans-75" transform="scale(0.015625)"/>
      </defs>
      <use xlink:href="#DejaVuSans-69"/>
      <use x="27.783203" xlink:href="#DejaVuSans-6e"/>
      <use x="91.162109" xlink:href="#DejaVuSans-76"/>
      <use x="150.341797" xlink:href="#DejaVuSans-65"/>
      <use x="211.865234" xlink:href="#DejaVuSans-73"/>
      <use x="263.964844" xlink:href="#DejaVuSans-74"/>
      <use x="303.173828" xlink:href="#DejaVuSans-20"/>
      <use x="334.960938" xlink:href="#DejaVuSans-2d"/>
      <use x="371.044922" xlink:href="#DejaVuSans-20"/>
      <use x="402.832031" xlink:href="#DejaVuSans-61"/>
      <use x="464.111328" xlink:href="#DejaVuSans-62"/>
      <use x="527.587891" xlink:href="#DejaVuSans-75"/>
      <use x="590.966797" xlink:href="#DejaVuSans-73"/>
      <use x="643.066406" xlink:href="#DejaVuSans-65"/>
     </g>
    </g>
    <g id="line2d_58">
     <path d="M 1261.588437 106.723737 
L 1281.588437 106.723737 
" style="fill:none;stroke:#ffffff;stroke-linecap:square;stroke-width:1.5;"/>
    </g>
    <g id="line2d_59">
     <defs>
      <path d="M 0 -5 
L -5 5 
L 5 5 
z
" id="mabe3e66d99" style="stroke:#ffffff;stroke-linejoin:miter;"/>
     </defs>
     <g>
      <use style="fill:#0000ff;stroke:#ffffff;stroke-linejoin:miter;" x="1271.588437" xlink:href="#mabe3e66d99" y="106.723737"/>
     </g>
    </g>
    <g id="text_54">
     <!-- invest - return -->
     <g transform="translate(1289.588437 110.223737)scale(0.1 -0.1)">
      <use xlink:href="#DejaVuSans-69"/>
      <use x="27.783203" xlink:href="#DejaVuSans-6e"/>
      <use x="91.162109" xlink:href="#DejaVuSans-76"/>
      <use x="150.341797" xlink:href="#DejaVuSans-65"/>
      <use x="211.865234" xlink:href="#DejaVuSans-73"/>
      <use x="263.964844" xlink:href="#DejaVuSans-74"/>
      <use x="303.173828" xlink:href="#DejaVuSans-20"/>
      <use x="334.960938" xlink:href="#DejaVuSans-2d"/>
      <use x="371.044922" xlink:href="#DejaVuSans-20"/>
      <use x="402.832031" xlink:href="#DejaVuSans-72"/>
      <use x="441.695312" xlink:href="#DejaVuSans-65"/>
      <use x="503.21875" xlink:href="#DejaVuSans-74"/>
      <use x="542.427734" xlink:href="#DejaVuSans-75"/>
      <use x="605.806641" xlink:href="#DejaVuSans-72"/>
      <use x="645.169922" xlink:href="#DejaVuSans-6e"/>
     </g>
    </g>
    <g id="line2d_60">
     <path d="M 1261.588437 121.401862 
L 1281.588437 121.401862 
" style="fill:none;stroke:#ffffff;stroke-linecap:square;stroke-width:1.5;"/>
    </g>
    <g id="line2d_61">
     <defs>
      <path d="M -2.5 5 
L 0 2.5 
L 2.5 5 
L 5 2.5 
L 2.5 0 
L 5 -2.5 
L 2.5 -5 
L 0 -2.5 
L -2.5 -5 
L -5 -2.5 
L -2.5 0 
L -5 2.5 
z
" id="mabd9aac011" style="stroke:#ffffff;stroke-linejoin:miter;"/>
     </defs>
     <g>
      <use style="stroke:#ffffff;stroke-linejoin:miter;" x="1271.588437" xlink:href="#mabd9aac011" y="121.401862"/>
     </g>
    </g>
    <g id="text_55">
     <!-- no invest -->
     <g transform="translate(1289.588437 124.901862)scale(0.1 -0.1)">
      <use xlink:href="#DejaVuSans-6e"/>
      <use x="63.378906" xlink:href="#DejaVuSans-6f"/>
      <use x="124.560547" xlink:href="#DejaVuSans-20"/>
      <use x="156.347656" xlink:href="#DejaVuSans-69"/>
      <use x="184.130859" xlink:href="#DejaVuSans-6e"/>
      <use x="247.509766" xlink:href="#DejaVuSans-76"/>
      <use x="306.689453" xlink:href="#DejaVuSans-65"/>
      <use x="368.212891" xlink:href="#DejaVuSans-73"/>
      <use x="420.3125" xlink:href="#DejaVuSans-74"/>
     </g>
    </g>
   </g>
  </g>
 </g>
 <defs>
  <clipPath id="p2ac7907363">
   <rect height="612.1362" width="1288.416" x="81.024" y="34.9128"/>
  </clipPath>
 </defs>
</svg>
