<?xml version="1.0" encoding="utf-8" standalone="no"?>
<!DOCTYPE svg PUBLIC "-//W3C//DTD SVG 1.1//EN"
  "http://www.w3.org/Graphics/SVG/1.1/DTD/svg11.dtd">
<svg height="570.96pt" version="1.1" viewBox="0 0 921.6 570.96" width="921.6pt" xmlns="http://www.w3.org/2000/svg" xmlns:xlink="http://www.w3.org/1999/xlink">
 <metadata>
  <rdf:RDF xmlns:cc="http://creativecommons.org/ns#" xmlns:dc="http://purl.org/dc/elements/1.1/" xmlns:rdf="http://www.w3.org/1999/02/22-rdf-syntax-ns#">
   <cc:Work>
    <dc:type rdf:resource="http://purl.org/dc/dcmitype/StillImage"/>
    <dc:date>2024-06-18T15:46:07.791549</dc:date>
    <dc:format>image/svg+xml</dc:format>
    <dc:creator>
     <cc:Agent>
      <dc:title>Matplotlib v3.4.3, https://matplotlib.org/</dc:title>
     </cc:Agent>
    </dc:creator>
   </cc:Work>
  </rdf:RDF>
 </metadata>
 <defs>
  <style type="text/css">*{stroke-linecap:butt;stroke-linejoin:round;}</style>
 </defs>
 <g id="figure_1">
  <g id="patch_1">
   <path d="M 0 570.96 
L 921.6 570.96 
L 921.6 0 
L 0 0 
z
" style="fill:#ffffff;"/>
  </g>
  <g id="axes_1">
   <g id="patch_2">
    <path d="M 115.2 508.1544 
L 829.44 508.1544 
L 829.44 68.5152 
L 115.2 68.5152 
z
" style="fill:#ffffff;"/>
   </g>
   <g id="PathCollection_1">
    <path clip-path="url(#p649a1a5e7d)" d="M 155.781818 350.09089 
L 149.658094 362.338339 
L 161.905543 362.338339 
z
" style="fill:#0000ff;stroke:#0000ff;"/>
    <path clip-path="url(#p649a1a5e7d)" d="M 172.014545 378.246602 
L 178.13827 365.999154 
L 165.890821 365.999154 
z
" style="fill:#ff0000;stroke:#ff0000;"/>
    <path clip-path="url(#p649a1a5e7d)" d="M 188.247273 390.319669 
L 182.123548 402.567118 
L 194.370997 402.567118 
z
" style="fill:#0000ff;stroke:#0000ff;"/>
    <path clip-path="url(#p649a1a5e7d)" d="M 204.48 229.960367 
L 198.356276 242.207816 
L 210.603724 242.207816 
z
" style="fill:#0000ff;stroke:#0000ff;"/>
    <path clip-path="url(#p649a1a5e7d)" d="M 220.712727 329.326803 
L 226.836452 317.079354 
L 214.589003 317.079354 
z
" style="fill:#ff0000;stroke:#ff0000;"/>
    <path clip-path="url(#p649a1a5e7d)" d="M 236.945455 491.888845 
L 243.069179 479.641396 
L 230.82173 479.641396 
z
" style="fill:#ff0000;stroke:#ff0000;"/>
    <path clip-path="url(#p649a1a5e7d)" d="M 253.178182 401.809757 
L 247.054457 414.057206 
L 259.301906 414.057206 
z
" style="fill:#0000ff;stroke:#0000ff;"/>
    <path clip-path="url(#p649a1a5e7d)" d="M 269.410909 249.385275 
L 263.287185 261.632723 
L 275.534633 261.632723 
z
" style="fill:#0000ff;stroke:#0000ff;"/>
    <path clip-path="url(#p649a1a5e7d)" d="M 285.643636 332.040268 
L 291.767361 319.792819 
L 279.519912 319.792819 
z
" style="fill:#ff0000;stroke:#ff0000;"/>
    <path clip-path="url(#p649a1a5e7d)" d="M 301.876364 361.004969 
L 295.752639 373.252418 
L 308.000088 373.252418 
z
" style="fill:#0000ff;stroke:#0000ff;"/>
    <path clip-path="url(#p649a1a5e7d)" d="M 318.109091 232.096792 
L 311.985367 244.344241 
L 324.232815 244.344241 
z
" style="fill:#0000ff;stroke:#0000ff;"/>
    <path clip-path="url(#p649a1a5e7d)" d="M 334.341818 179.762158 
L 328.218094 192.009607 
L 340.465543 192.009607 
z
" style="fill:#0000ff;stroke:#0000ff;"/>
    <path clip-path="url(#p649a1a5e7d)" d="M 350.574545 161.588349 
L 344.450821 173.835798 
L 356.69827 173.835798 
z
" style="fill:#0000ff;stroke:#0000ff;"/>
    <path clip-path="url(#p649a1a5e7d)" d="M 366.807273 152.220264 
L 360.683548 164.467712 
L 372.930997 164.467712 
z
" style="fill:#0000ff;stroke:#0000ff;"/>
    <path clip-path="url(#p649a1a5e7d)" d="M 383.04 145.430086 
L 376.916276 157.677535 
L 389.163724 157.677535 
z
" style="fill:#0000ff;stroke:#0000ff;"/>
    <path clip-path="url(#p649a1a5e7d)" d="M 399.272727 139.825195 
L 393.149003 152.072644 
L 405.396452 152.072644 
z
" style="fill:#0000ff;stroke:#0000ff;"/>
    <path clip-path="url(#p649a1a5e7d)" d="M 415.505455 135.016927 
L 409.38173 147.264376 
L 421.629179 147.264376 
z
" style="fill:#0000ff;stroke:#0000ff;"/>
    <path clip-path="url(#p649a1a5e7d)" d="M 431.738182 130.833021 
L 425.614457 143.08047 
L 437.861906 143.08047 
z
" style="fill:#0000ff;stroke:#0000ff;"/>
    <path clip-path="url(#p649a1a5e7d)" d="M 447.970909 127.161636 
L 441.847185 139.409085 
L 454.094633 139.409085 
z
" style="fill:#0000ff;stroke:#0000ff;"/>
    <path clip-path="url(#p649a1a5e7d)" d="M 464.203636 168.272067 
L 458.079912 180.519516 
L 470.327361 180.519516 
z
" style="fill:#0000ff;stroke:#0000ff;"/>
    <path clip-path="url(#p649a1a5e7d)" d="M 480.436364 346.64065 
L 486.560088 334.393201 
L 474.312639 334.393201 
z
" style="fill:#ff0000;stroke:#ff0000;"/>
    <path clip-path="url(#p649a1a5e7d)" d="M 496.669091 485.306154 
L 502.792815 473.058706 
L 490.545367 473.058706 
z
" style="fill:#ff0000;stroke:#ff0000;"/>
    <path clip-path="url(#p649a1a5e7d)" d="M 512.901818 502.900039 
L 519.025543 490.65259 
L 506.778094 490.65259 
z
" style="fill:#ff0000;stroke:#ff0000;"/>
    <path clip-path="url(#p649a1a5e7d)" d="M 529.134545 505.886823 
L 535.25827 493.639375 
L 523.010821 493.639375 
z
" style="fill:#ff0000;stroke:#ff0000;"/>
    <path clip-path="url(#p649a1a5e7d)" d="M 545.367273 507.166685 
L 551.490997 494.919236 
L 539.243548 494.919236 
z
" style="fill:#ff0000;stroke:#ff0000;"/>
    <path clip-path="url(#p649a1a5e7d)" d="M 561.6 508.081724 
L 567.723724 495.834275 
L 555.476276 495.834275 
z
" style="fill:#ff0000;stroke:#ff0000;"/>
    <path clip-path="url(#p649a1a5e7d)" d="M 574.770865 475.441497 
L 577.832727 472.379634 
L 580.894589 475.441497 
L 583.956452 472.379634 
L 580.894589 469.317772 
L 583.956452 466.25591 
L 580.894589 463.194048 
L 577.832727 466.25591 
L 574.770865 463.194048 
L 571.709003 466.25591 
L 574.770865 469.317772 
L 571.709003 472.379634 
z
" style="stroke:#000000;"/>
    <path clip-path="url(#p649a1a5e7d)" d="M 594.065455 319.584011 
L 587.94173 331.83146 
L 600.189179 331.83146 
z
" style="fill:#0000ff;stroke:#0000ff;"/>
    <path clip-path="url(#p649a1a5e7d)" d="M 610.298182 345.37376 
L 616.421906 333.126312 
L 604.174457 333.126312 
z
" style="fill:#ff0000;stroke:#ff0000;"/>
    <path clip-path="url(#p649a1a5e7d)" d="M 626.530909 347.085725 
L 620.407185 359.333174 
L 632.654633 359.333174 
z
" style="fill:#0000ff;stroke:#0000ff;"/>
    <path clip-path="url(#p649a1a5e7d)" d="M 642.763636 357.506955 
L 648.887361 345.259506 
L 636.639912 345.259506 
z
" style="fill:#ff0000;stroke:#ff0000;"/>
    <path clip-path="url(#p649a1a5e7d)" d="M 655.934501 436.425135 
L 658.996364 433.363272 
L 662.058226 436.425135 
L 665.120088 433.363272 
L 662.058226 430.30141 
L 665.120088 427.239548 
L 662.058226 424.177686 
L 658.996364 427.239548 
L 655.934501 424.177686 
L 652.872639 427.239548 
L 655.934501 430.30141 
L 652.872639 433.363272 
z
" style="stroke:#000000;"/>
    <path clip-path="url(#p649a1a5e7d)" d="M 675.229091 450.24897 
L 681.352815 438.001521 
L 669.105367 438.001521 
z
" style="fill:#ff0000;stroke:#ff0000;"/>
    <path clip-path="url(#p649a1a5e7d)" d="M 688.399956 460.988641 
L 691.461818 457.926779 
L 694.52368 460.988641 
L 697.585543 457.926779 
L 694.52368 454.864917 
L 697.585543 451.803054 
L 694.52368 448.741192 
L 691.461818 451.803054 
L 688.399956 448.741192 
L 685.338094 451.803054 
L 688.399956 454.864917 
L 685.338094 457.926779 
z
" style="stroke:#000000;"/>
    <path clip-path="url(#p649a1a5e7d)" d="M 707.694545 462.477547 
L 713.81827 450.230098 
L 701.570821 450.230098 
z
" style="fill:#ff0000;stroke:#ff0000;"/>
    <path clip-path="url(#p649a1a5e7d)" d="M 720.865411 464.501664 
L 723.927273 461.439802 
L 726.989135 464.501664 
L 730.050997 461.439802 
L 726.989135 458.37794 
L 730.050997 455.316078 
L 726.989135 452.254216 
L 723.927273 455.316078 
L 720.865411 452.254216 
L 717.803548 455.316078 
L 720.865411 458.37794 
L 717.803548 461.439802 
z
" style="stroke:#000000;"/>
    <path clip-path="url(#p649a1a5e7d)" d="M 740.16 464.970804 
L 746.283724 452.723355 
L 734.036276 452.723355 
z
" style="fill:#ff0000;stroke:#ff0000;"/>
    <path clip-path="url(#p649a1a5e7d)" d="M 753.330865 466.214198 
L 756.392727 463.152335 
L 759.454589 466.214198 
L 762.516452 463.152335 
L 759.454589 460.090473 
L 762.516452 457.028611 
L 759.454589 453.966749 
L 756.392727 457.028611 
L 753.330865 453.966749 
L 750.269003 457.028611 
L 753.330865 460.090473 
L 750.269003 463.152335 
z
" style="stroke:#000000;"/>
    <path clip-path="url(#p649a1a5e7d)" d="M 769.563592 416.613257 
L 772.625455 413.551395 
L 775.687317 416.613257 
L 778.749179 413.551395 
L 775.687317 410.489532 
L 778.749179 407.42767 
L 775.687317 404.365808 
L 772.625455 407.42767 
L 769.563592 404.365808 
L 766.50173 407.42767 
L 769.563592 410.489532 
L 766.50173 413.551395 
z
" style="stroke:#000000;"/>
    <path clip-path="url(#p649a1a5e7d)" d="M 788.858182 282.211076 
L 782.734457 294.458524 
L 794.981906 294.458524 
z
" style="fill:#0000ff;stroke:#0000ff;"/>
   </g>
   <g id="patch_3">
    <path clip-path="url(#p649a1a5e7d)" d="M 147.665455 508.1544 
L 147.665455 68.5152 
L 472.32 68.5152 
L 472.32 508.1544 
z
" style="fill:#b0e0e6;opacity:0.3;"/>
   </g>
   <g id="patch_4">
    <path clip-path="url(#p649a1a5e7d)" d="M 472.32 508.1544 
L 472.32 68.5152 
L 796.974545 68.5152 
L 796.974545 508.1544 
z
" style="fill:#ff7f50;opacity:0.3;"/>
   </g>
   <g id="matplotlib.axis_1">
    <g id="xtick_1">
     <g id="line2d_1">
      <defs>
       <path d="M 0 0 
L 0 3.5 
" id="mfe8bb05cb3" style="stroke:#000000;stroke-width:0.8;"/>
      </defs>
      <g>
       <use style="stroke:#000000;stroke-width:0.8;" x="147.665455" xlink:href="#mfe8bb05cb3" y="508.1544"/>
      </g>
     </g>
     <g id="text_1">
      <!-- 0 -->
      <g transform="translate(142.89358 526.552056)scale(0.15 -0.15)">
       <defs>
        <path d="M 2034 4250 
Q 1547 4250 1301 3770 
Q 1056 3291 1056 2328 
Q 1056 1369 1301 889 
Q 1547 409 2034 409 
Q 2525 409 2770 889 
Q 3016 1369 3016 2328 
Q 3016 3291 2770 3770 
Q 2525 4250 2034 4250 
z
M 2034 4750 
Q 2819 4750 3233 4129 
Q 3647 3509 3647 2328 
Q 3647 1150 3233 529 
Q 2819 -91 2034 -91 
Q 1250 -91 836 529 
Q 422 1150 422 2328 
Q 422 3509 836 4129 
Q 1250 4750 2034 4750 
z
" id="DejaVuSans-30" transform="scale(0.015625)"/>
       </defs>
       <use xlink:href="#DejaVuSans-30"/>
      </g>
     </g>
    </g>
    <g id="xtick_2">
     <g id="line2d_2">
      <g>
       <use style="stroke:#000000;stroke-width:0.8;" x="163.898182" xlink:href="#mfe8bb05cb3" y="508.1544"/>
      </g>
     </g>
     <g id="text_2">
      <!-- 1 -->
      <g transform="translate(159.126307 526.552056)scale(0.15 -0.15)">
       <defs>
        <path d="M 794 531 
L 1825 531 
L 1825 4091 
L 703 3866 
L 703 4441 
L 1819 4666 
L 2450 4666 
L 2450 531 
L 3481 531 
L 3481 0 
L 794 0 
L 794 531 
z
" id="DejaVuSans-31" transform="scale(0.015625)"/>
       </defs>
       <use xlink:href="#DejaVuSans-31"/>
      </g>
     </g>
    </g>
    <g id="xtick_3">
     <g id="line2d_3">
      <g>
       <use style="stroke:#000000;stroke-width:0.8;" x="180.130909" xlink:href="#mfe8bb05cb3" y="508.1544"/>
      </g>
     </g>
     <g id="text_3">
      <!-- 2 -->
      <g transform="translate(175.359034 526.552056)scale(0.15 -0.15)">
       <defs>
        <path d="M 1228 531 
L 3431 531 
L 3431 0 
L 469 0 
L 469 531 
Q 828 903 1448 1529 
Q 2069 2156 2228 2338 
Q 2531 2678 2651 2914 
Q 2772 3150 2772 3378 
Q 2772 3750 2511 3984 
Q 2250 4219 1831 4219 
Q 1534 4219 1204 4116 
Q 875 4013 500 3803 
L 500 4441 
Q 881 4594 1212 4672 
Q 1544 4750 1819 4750 
Q 2544 4750 2975 4387 
Q 3406 4025 3406 3419 
Q 3406 3131 3298 2873 
Q 3191 2616 2906 2266 
Q 2828 2175 2409 1742 
Q 1991 1309 1228 531 
z
" id="DejaVuSans-32" transform="scale(0.015625)"/>
       </defs>
       <use xlink:href="#DejaVuSans-32"/>
      </g>
     </g>
    </g>
    <g id="xtick_4">
     <g id="line2d_4">
      <g>
       <use style="stroke:#000000;stroke-width:0.8;" x="196.363636" xlink:href="#mfe8bb05cb3" y="508.1544"/>
      </g>
     </g>
     <g id="text_4">
      <!-- 3 -->
      <g transform="translate(191.591761 526.552056)scale(0.15 -0.15)">
       <defs>
        <path d="M 2597 2516 
Q 3050 2419 3304 2112 
Q 3559 1806 3559 1356 
Q 3559 666 3084 287 
Q 2609 -91 1734 -91 
Q 1441 -91 1130 -33 
Q 819 25 488 141 
L 488 750 
Q 750 597 1062 519 
Q 1375 441 1716 441 
Q 2309 441 2620 675 
Q 2931 909 2931 1356 
Q 2931 1769 2642 2001 
Q 2353 2234 1838 2234 
L 1294 2234 
L 1294 2753 
L 1863 2753 
Q 2328 2753 2575 2939 
Q 2822 3125 2822 3475 
Q 2822 3834 2567 4026 
Q 2313 4219 1838 4219 
Q 1578 4219 1281 4162 
Q 984 4106 628 3988 
L 628 4550 
Q 988 4650 1302 4700 
Q 1616 4750 1894 4750 
Q 2613 4750 3031 4423 
Q 3450 4097 3450 3541 
Q 3450 3153 3228 2886 
Q 3006 2619 2597 2516 
z
" id="DejaVuSans-33" transform="scale(0.015625)"/>
       </defs>
       <use xlink:href="#DejaVuSans-33"/>
      </g>
     </g>
    </g>
    <g id="xtick_5">
     <g id="line2d_5">
      <g>
       <use style="stroke:#000000;stroke-width:0.8;" x="212.596364" xlink:href="#mfe8bb05cb3" y="508.1544"/>
      </g>
     </g>
     <g id="text_5">
      <!-- 4 -->
      <g transform="translate(207.824489 526.552056)scale(0.15 -0.15)">
       <defs>
        <path d="M 2419 4116 
L 825 1625 
L 2419 1625 
L 2419 4116 
z
M 2253 4666 
L 3047 4666 
L 3047 1625 
L 3713 1625 
L 3713 1100 
L 3047 1100 
L 3047 0 
L 2419 0 
L 2419 1100 
L 313 1100 
L 313 1709 
L 2253 4666 
z
" id="DejaVuSans-34" transform="scale(0.015625)"/>
       </defs>
       <use xlink:href="#DejaVuSans-34"/>
      </g>
     </g>
    </g>
    <g id="xtick_6">
     <g id="line2d_6">
      <g>
       <use style="stroke:#000000;stroke-width:0.8;" x="228.829091" xlink:href="#mfe8bb05cb3" y="508.1544"/>
      </g>
     </g>
     <g id="text_6">
      <!-- 5 -->
      <g transform="translate(224.057216 526.552056)scale(0.15 -0.15)">
       <defs>
        <path d="M 691 4666 
L 3169 4666 
L 3169 4134 
L 1269 4134 
L 1269 2991 
Q 1406 3038 1543 3061 
Q 1681 3084 1819 3084 
Q 2600 3084 3056 2656 
Q 3513 2228 3513 1497 
Q 3513 744 3044 326 
Q 2575 -91 1722 -91 
Q 1428 -91 1123 -41 
Q 819 9 494 109 
L 494 744 
Q 775 591 1075 516 
Q 1375 441 1709 441 
Q 2250 441 2565 725 
Q 2881 1009 2881 1497 
Q 2881 1984 2565 2268 
Q 2250 2553 1709 2553 
Q 1456 2553 1204 2497 
Q 953 2441 691 2322 
L 691 4666 
z
" id="DejaVuSans-35" transform="scale(0.015625)"/>
       </defs>
       <use xlink:href="#DejaVuSans-35"/>
      </g>
     </g>
    </g>
    <g id="xtick_7">
     <g id="line2d_7">
      <g>
       <use style="stroke:#000000;stroke-width:0.8;" x="245.061818" xlink:href="#mfe8bb05cb3" y="508.1544"/>
      </g>
     </g>
     <g id="text_7">
      <!-- 6 -->
      <g transform="translate(240.289943 526.552056)scale(0.15 -0.15)">
       <defs>
        <path d="M 2113 2584 
Q 1688 2584 1439 2293 
Q 1191 2003 1191 1497 
Q 1191 994 1439 701 
Q 1688 409 2113 409 
Q 2538 409 2786 701 
Q 3034 994 3034 1497 
Q 3034 2003 2786 2293 
Q 2538 2584 2113 2584 
z
M 3366 4563 
L 3366 3988 
Q 3128 4100 2886 4159 
Q 2644 4219 2406 4219 
Q 1781 4219 1451 3797 
Q 1122 3375 1075 2522 
Q 1259 2794 1537 2939 
Q 1816 3084 2150 3084 
Q 2853 3084 3261 2657 
Q 3669 2231 3669 1497 
Q 3669 778 3244 343 
Q 2819 -91 2113 -91 
Q 1303 -91 875 529 
Q 447 1150 447 2328 
Q 447 3434 972 4092 
Q 1497 4750 2381 4750 
Q 2619 4750 2861 4703 
Q 3103 4656 3366 4563 
z
" id="DejaVuSans-36" transform="scale(0.015625)"/>
       </defs>
       <use xlink:href="#DejaVuSans-36"/>
      </g>
     </g>
    </g>
    <g id="xtick_8">
     <g id="line2d_8">
      <g>
       <use style="stroke:#000000;stroke-width:0.8;" x="261.294545" xlink:href="#mfe8bb05cb3" y="508.1544"/>
      </g>
     </g>
     <g id="text_8">
      <!-- 7 -->
      <g transform="translate(256.52267 526.552056)scale(0.15 -0.15)">
       <defs>
        <path d="M 525 4666 
L 3525 4666 
L 3525 4397 
L 1831 0 
L 1172 0 
L 2766 4134 
L 525 4134 
L 525 4666 
z
" id="DejaVuSans-37" transform="scale(0.015625)"/>
       </defs>
       <use xlink:href="#DejaVuSans-37"/>
      </g>
     </g>
    </g>
    <g id="xtick_9">
     <g id="line2d_9">
      <g>
       <use style="stroke:#000000;stroke-width:0.8;" x="277.527273" xlink:href="#mfe8bb05cb3" y="508.1544"/>
      </g>
     </g>
     <g id="text_9">
      <!-- 8 -->
      <g transform="translate(272.755398 526.552056)scale(0.15 -0.15)">
       <defs>
        <path d="M 2034 2216 
Q 1584 2216 1326 1975 
Q 1069 1734 1069 1313 
Q 1069 891 1326 650 
Q 1584 409 2034 409 
Q 2484 409 2743 651 
Q 3003 894 3003 1313 
Q 3003 1734 2745 1975 
Q 2488 2216 2034 2216 
z
M 1403 2484 
Q 997 2584 770 2862 
Q 544 3141 544 3541 
Q 544 4100 942 4425 
Q 1341 4750 2034 4750 
Q 2731 4750 3128 4425 
Q 3525 4100 3525 3541 
Q 3525 3141 3298 2862 
Q 3072 2584 2669 2484 
Q 3125 2378 3379 2068 
Q 3634 1759 3634 1313 
Q 3634 634 3220 271 
Q 2806 -91 2034 -91 
Q 1263 -91 848 271 
Q 434 634 434 1313 
Q 434 1759 690 2068 
Q 947 2378 1403 2484 
z
M 1172 3481 
Q 1172 3119 1398 2916 
Q 1625 2713 2034 2713 
Q 2441 2713 2670 2916 
Q 2900 3119 2900 3481 
Q 2900 3844 2670 4047 
Q 2441 4250 2034 4250 
Q 1625 4250 1398 4047 
Q 1172 3844 1172 3481 
z
" id="DejaVuSans-38" transform="scale(0.015625)"/>
       </defs>
       <use xlink:href="#DejaVuSans-38"/>
      </g>
     </g>
    </g>
    <g id="xtick_10">
     <g id="line2d_10">
      <g>
       <use style="stroke:#000000;stroke-width:0.8;" x="293.76" xlink:href="#mfe8bb05cb3" y="508.1544"/>
      </g>
     </g>
     <g id="text_10">
      <!-- 9 -->
      <g transform="translate(288.988125 526.552056)scale(0.15 -0.15)">
       <defs>
        <path d="M 703 97 
L 703 672 
Q 941 559 1184 500 
Q 1428 441 1663 441 
Q 2288 441 2617 861 
Q 2947 1281 2994 2138 
Q 2813 1869 2534 1725 
Q 2256 1581 1919 1581 
Q 1219 1581 811 2004 
Q 403 2428 403 3163 
Q 403 3881 828 4315 
Q 1253 4750 1959 4750 
Q 2769 4750 3195 4129 
Q 3622 3509 3622 2328 
Q 3622 1225 3098 567 
Q 2575 -91 1691 -91 
Q 1453 -91 1209 -44 
Q 966 3 703 97 
z
M 1959 2075 
Q 2384 2075 2632 2365 
Q 2881 2656 2881 3163 
Q 2881 3666 2632 3958 
Q 2384 4250 1959 4250 
Q 1534 4250 1286 3958 
Q 1038 3666 1038 3163 
Q 1038 2656 1286 2365 
Q 1534 2075 1959 2075 
z
" id="DejaVuSans-39" transform="scale(0.015625)"/>
       </defs>
       <use xlink:href="#DejaVuSans-39"/>
      </g>
     </g>
    </g>
    <g id="xtick_11">
     <g id="line2d_11">
      <g>
       <use style="stroke:#000000;stroke-width:0.8;" x="309.992727" xlink:href="#mfe8bb05cb3" y="508.1544"/>
      </g>
     </g>
     <g id="text_11">
      <!-- 10 -->
      <g transform="translate(300.448977 526.552056)scale(0.15 -0.15)">
       <use xlink:href="#DejaVuSans-31"/>
       <use x="63.623047" xlink:href="#DejaVuSans-30"/>
      </g>
     </g>
    </g>
    <g id="xtick_12">
     <g id="line2d_12">
      <g>
       <use style="stroke:#000000;stroke-width:0.8;" x="326.225455" xlink:href="#mfe8bb05cb3" y="508.1544"/>
      </g>
     </g>
     <g id="text_12">
      <!-- 11 -->
      <g transform="translate(316.681705 526.552056)scale(0.15 -0.15)">
       <use xlink:href="#DejaVuSans-31"/>
       <use x="63.623047" xlink:href="#DejaVuSans-31"/>
      </g>
     </g>
    </g>
    <g id="xtick_13">
     <g id="line2d_13">
      <g>
       <use style="stroke:#000000;stroke-width:0.8;" x="342.458182" xlink:href="#mfe8bb05cb3" y="508.1544"/>
      </g>
     </g>
     <g id="text_13">
      <!-- 12 -->
      <g transform="translate(332.914432 526.552056)scale(0.15 -0.15)">
       <use xlink:href="#DejaVuSans-31"/>
       <use x="63.623047" xlink:href="#DejaVuSans-32"/>
      </g>
     </g>
    </g>
    <g id="xtick_14">
     <g id="line2d_14">
      <g>
       <use style="stroke:#000000;stroke-width:0.8;" x="358.690909" xlink:href="#mfe8bb05cb3" y="508.1544"/>
      </g>
     </g>
     <g id="text_14">
      <!-- 13 -->
      <g transform="translate(349.147159 526.552056)scale(0.15 -0.15)">
       <use xlink:href="#DejaVuSans-31"/>
       <use x="63.623047" xlink:href="#DejaVuSans-33"/>
      </g>
     </g>
    </g>
    <g id="xtick_15">
     <g id="line2d_15">
      <g>
       <use style="stroke:#000000;stroke-width:0.8;" x="374.923636" xlink:href="#mfe8bb05cb3" y="508.1544"/>
      </g>
     </g>
     <g id="text_15">
      <!-- 14 -->
      <g transform="translate(365.379886 526.552056)scale(0.15 -0.15)">
       <use xlink:href="#DejaVuSans-31"/>
       <use x="63.623047" xlink:href="#DejaVuSans-34"/>
      </g>
     </g>
    </g>
    <g id="xtick_16">
     <g id="line2d_16">
      <g>
       <use style="stroke:#000000;stroke-width:0.8;" x="391.156364" xlink:href="#mfe8bb05cb3" y="508.1544"/>
      </g>
     </g>
     <g id="text_16">
      <!-- 15 -->
      <g transform="translate(381.612614 526.552056)scale(0.15 -0.15)">
       <use xlink:href="#DejaVuSans-31"/>
       <use x="63.623047" xlink:href="#DejaVuSans-35"/>
      </g>
     </g>
    </g>
    <g id="xtick_17">
     <g id="line2d_17">
      <g>
       <use style="stroke:#000000;stroke-width:0.8;" x="407.389091" xlink:href="#mfe8bb05cb3" y="508.1544"/>
      </g>
     </g>
     <g id="text_17">
      <!-- 16 -->
      <g transform="translate(397.845341 526.552056)scale(0.15 -0.15)">
       <use xlink:href="#DejaVuSans-31"/>
       <use x="63.623047" xlink:href="#DejaVuSans-36"/>
      </g>
     </g>
    </g>
    <g id="xtick_18">
     <g id="line2d_18">
      <g>
       <use style="stroke:#000000;stroke-width:0.8;" x="423.621818" xlink:href="#mfe8bb05cb3" y="508.1544"/>
      </g>
     </g>
     <g id="text_18">
      <!-- 17 -->
      <g transform="translate(414.078068 526.552056)scale(0.15 -0.15)">
       <use xlink:href="#DejaVuSans-31"/>
       <use x="63.623047" xlink:href="#DejaVuSans-37"/>
      </g>
     </g>
    </g>
    <g id="xtick_19">
     <g id="line2d_19">
      <g>
       <use style="stroke:#000000;stroke-width:0.8;" x="439.854545" xlink:href="#mfe8bb05cb3" y="508.1544"/>
      </g>
     </g>
     <g id="text_19">
      <!-- 18 -->
      <g transform="translate(430.310795 526.552056)scale(0.15 -0.15)">
       <use xlink:href="#DejaVuSans-31"/>
       <use x="63.623047" xlink:href="#DejaVuSans-38"/>
      </g>
     </g>
    </g>
    <g id="xtick_20">
     <g id="line2d_20">
      <g>
       <use style="stroke:#000000;stroke-width:0.8;" x="456.087273" xlink:href="#mfe8bb05cb3" y="508.1544"/>
      </g>
     </g>
     <g id="text_20">
      <!-- 19 -->
      <g transform="translate(446.543523 526.552056)scale(0.15 -0.15)">
       <use xlink:href="#DejaVuSans-31"/>
       <use x="63.623047" xlink:href="#DejaVuSans-39"/>
      </g>
     </g>
    </g>
    <g id="xtick_21">
     <g id="line2d_21">
      <g>
       <use style="stroke:#000000;stroke-width:0.8;" x="472.32" xlink:href="#mfe8bb05cb3" y="508.1544"/>
      </g>
     </g>
     <g id="text_21">
      <!-- 20 -->
      <g transform="translate(462.77625 526.552056)scale(0.15 -0.15)">
       <use xlink:href="#DejaVuSans-32"/>
       <use x="63.623047" xlink:href="#DejaVuSans-30"/>
      </g>
     </g>
    </g>
    <g id="xtick_22">
     <g id="line2d_22">
      <g>
       <use style="stroke:#000000;stroke-width:0.8;" x="488.552727" xlink:href="#mfe8bb05cb3" y="508.1544"/>
      </g>
     </g>
     <g id="text_22">
      <!-- 21 -->
      <g transform="translate(479.008977 526.552056)scale(0.15 -0.15)">
       <use xlink:href="#DejaVuSans-32"/>
       <use x="63.623047" xlink:href="#DejaVuSans-31"/>
      </g>
     </g>
    </g>
    <g id="xtick_23">
     <g id="line2d_23">
      <g>
       <use style="stroke:#000000;stroke-width:0.8;" x="504.785455" xlink:href="#mfe8bb05cb3" y="508.1544"/>
      </g>
     </g>
     <g id="text_23">
      <!-- 22 -->
      <g transform="translate(495.241705 526.552056)scale(0.15 -0.15)">
       <use xlink:href="#DejaVuSans-32"/>
       <use x="63.623047" xlink:href="#DejaVuSans-32"/>
      </g>
     </g>
    </g>
    <g id="xtick_24">
     <g id="line2d_24">
      <g>
       <use style="stroke:#000000;stroke-width:0.8;" x="521.018182" xlink:href="#mfe8bb05cb3" y="508.1544"/>
      </g>
     </g>
     <g id="text_24">
      <!-- 23 -->
      <g transform="translate(511.474432 526.552056)scale(0.15 -0.15)">
       <use xlink:href="#DejaVuSans-32"/>
       <use x="63.623047" xlink:href="#DejaVuSans-33"/>
      </g>
     </g>
    </g>
    <g id="xtick_25">
     <g id="line2d_25">
      <g>
       <use style="stroke:#000000;stroke-width:0.8;" x="537.250909" xlink:href="#mfe8bb05cb3" y="508.1544"/>
      </g>
     </g>
     <g id="text_25">
      <!-- 24 -->
      <g transform="translate(527.707159 526.552056)scale(0.15 -0.15)">
       <use xlink:href="#DejaVuSans-32"/>
       <use x="63.623047" xlink:href="#DejaVuSans-34"/>
      </g>
     </g>
    </g>
    <g id="xtick_26">
     <g id="line2d_26">
      <g>
       <use style="stroke:#000000;stroke-width:0.8;" x="553.483636" xlink:href="#mfe8bb05cb3" y="508.1544"/>
      </g>
     </g>
     <g id="text_26">
      <!-- 25 -->
      <g transform="translate(543.939886 526.552056)scale(0.15 -0.15)">
       <use xlink:href="#DejaVuSans-32"/>
       <use x="63.623047" xlink:href="#DejaVuSans-35"/>
      </g>
     </g>
    </g>
    <g id="xtick_27">
     <g id="line2d_27">
      <g>
       <use style="stroke:#000000;stroke-width:0.8;" x="569.716364" xlink:href="#mfe8bb05cb3" y="508.1544"/>
      </g>
     </g>
     <g id="text_27">
      <!-- 26 -->
      <g transform="translate(560.172614 526.552056)scale(0.15 -0.15)">
       <use xlink:href="#DejaVuSans-32"/>
       <use x="63.623047" xlink:href="#DejaVuSans-36"/>
      </g>
     </g>
    </g>
    <g id="xtick_28">
     <g id="line2d_28">
      <g>
       <use style="stroke:#000000;stroke-width:0.8;" x="585.949091" xlink:href="#mfe8bb05cb3" y="508.1544"/>
      </g>
     </g>
     <g id="text_28">
      <!-- 27 -->
      <g transform="translate(576.405341 526.552056)scale(0.15 -0.15)">
       <use xlink:href="#DejaVuSans-32"/>
       <use x="63.623047" xlink:href="#DejaVuSans-37"/>
      </g>
     </g>
    </g>
    <g id="xtick_29">
     <g id="line2d_29">
      <g>
       <use style="stroke:#000000;stroke-width:0.8;" x="602.181818" xlink:href="#mfe8bb05cb3" y="508.1544"/>
      </g>
     </g>
     <g id="text_29">
      <!-- 28 -->
      <g transform="translate(592.638068 526.552056)scale(0.15 -0.15)">
       <use xlink:href="#DejaVuSans-32"/>
       <use x="63.623047" xlink:href="#DejaVuSans-38"/>
      </g>
     </g>
    </g>
    <g id="xtick_30">
     <g id="line2d_30">
      <g>
       <use style="stroke:#000000;stroke-width:0.8;" x="618.414545" xlink:href="#mfe8bb05cb3" y="508.1544"/>
      </g>
     </g>
     <g id="text_30">
      <!-- 29 -->
      <g transform="translate(608.870795 526.552056)scale(0.15 -0.15)">
       <use xlink:href="#DejaVuSans-32"/>
       <use x="63.623047" xlink:href="#DejaVuSans-39"/>
      </g>
     </g>
    </g>
    <g id="xtick_31">
     <g id="line2d_31">
      <g>
       <use style="stroke:#000000;stroke-width:0.8;" x="634.647273" xlink:href="#mfe8bb05cb3" y="508.1544"/>
      </g>
     </g>
     <g id="text_31">
      <!-- 30 -->
      <g transform="translate(625.103523 526.552056)scale(0.15 -0.15)">
       <use xlink:href="#DejaVuSans-33"/>
       <use x="63.623047" xlink:href="#DejaVuSans-30"/>
      </g>
     </g>
    </g>
    <g id="xtick_32">
     <g id="line2d_32">
      <g>
       <use style="stroke:#000000;stroke-width:0.8;" x="650.88" xlink:href="#mfe8bb05cb3" y="508.1544"/>
      </g>
     </g>
     <g id="text_32">
      <!-- 31 -->
      <g transform="translate(641.33625 526.552056)scale(0.15 -0.15)">
       <use xlink:href="#DejaVuSans-33"/>
       <use x="63.623047" xlink:href="#DejaVuSans-31"/>
      </g>
     </g>
    </g>
    <g id="xtick_33">
     <g id="line2d_33">
      <g>
       <use style="stroke:#000000;stroke-width:0.8;" x="667.112727" xlink:href="#mfe8bb05cb3" y="508.1544"/>
      </g>
     </g>
     <g id="text_33">
      <!-- 32 -->
      <g transform="translate(657.568977 526.552056)scale(0.15 -0.15)">
       <use xlink:href="#DejaVuSans-33"/>
       <use x="63.623047" xlink:href="#DejaVuSans-32"/>
      </g>
     </g>
    </g>
    <g id="xtick_34">
     <g id="line2d_34">
      <g>
       <use style="stroke:#000000;stroke-width:0.8;" x="683.345455" xlink:href="#mfe8bb05cb3" y="508.1544"/>
      </g>
     </g>
     <g id="text_34">
      <!-- 33 -->
      <g transform="translate(673.801705 526.552056)scale(0.15 -0.15)">
       <use xlink:href="#DejaVuSans-33"/>
       <use x="63.623047" xlink:href="#DejaVuSans-33"/>
      </g>
     </g>
    </g>
    <g id="xtick_35">
     <g id="line2d_35">
      <g>
       <use style="stroke:#000000;stroke-width:0.8;" x="699.578182" xlink:href="#mfe8bb05cb3" y="508.1544"/>
      </g>
     </g>
     <g id="text_35">
      <!-- 34 -->
      <g transform="translate(690.034432 526.552056)scale(0.15 -0.15)">
       <use xlink:href="#DejaVuSans-33"/>
       <use x="63.623047" xlink:href="#DejaVuSans-34"/>
      </g>
     </g>
    </g>
    <g id="xtick_36">
     <g id="line2d_36">
      <g>
       <use style="stroke:#000000;stroke-width:0.8;" x="715.810909" xlink:href="#mfe8bb05cb3" y="508.1544"/>
      </g>
     </g>
     <g id="text_36">
      <!-- 35 -->
      <g transform="translate(706.267159 526.552056)scale(0.15 -0.15)">
       <use xlink:href="#DejaVuSans-33"/>
       <use x="63.623047" xlink:href="#DejaVuSans-35"/>
      </g>
     </g>
    </g>
    <g id="xtick_37">
     <g id="line2d_37">
      <g>
       <use style="stroke:#000000;stroke-width:0.8;" x="732.043636" xlink:href="#mfe8bb05cb3" y="508.1544"/>
      </g>
     </g>
     <g id="text_37">
      <!-- 36 -->
      <g transform="translate(722.499886 526.552056)scale(0.15 -0.15)">
       <use xlink:href="#DejaVuSans-33"/>
       <use x="63.623047" xlink:href="#DejaVuSans-36"/>
      </g>
     </g>
    </g>
    <g id="xtick_38">
     <g id="line2d_38">
      <g>
       <use style="stroke:#000000;stroke-width:0.8;" x="748.276364" xlink:href="#mfe8bb05cb3" y="508.1544"/>
      </g>
     </g>
     <g id="text_38">
      <!-- 37 -->
      <g transform="translate(738.732614 526.552056)scale(0.15 -0.15)">
       <use xlink:href="#DejaVuSans-33"/>
       <use x="63.623047" xlink:href="#DejaVuSans-37"/>
      </g>
     </g>
    </g>
    <g id="xtick_39">
     <g id="line2d_39">
      <g>
       <use style="stroke:#000000;stroke-width:0.8;" x="764.509091" xlink:href="#mfe8bb05cb3" y="508.1544"/>
      </g>
     </g>
     <g id="text_39">
      <!-- 38 -->
      <g transform="translate(754.965341 526.552056)scale(0.15 -0.15)">
       <use xlink:href="#DejaVuSans-33"/>
       <use x="63.623047" xlink:href="#DejaVuSans-38"/>
      </g>
     </g>
    </g>
    <g id="xtick_40">
     <g id="line2d_40">
      <g>
       <use style="stroke:#000000;stroke-width:0.8;" x="780.741818" xlink:href="#mfe8bb05cb3" y="508.1544"/>
      </g>
     </g>
     <g id="text_40">
      <!-- 39 -->
      <g transform="translate(771.198068 526.552056)scale(0.15 -0.15)">
       <use xlink:href="#DejaVuSans-33"/>
       <use x="63.623047" xlink:href="#DejaVuSans-39"/>
      </g>
     </g>
    </g>
    <g id="text_41">
     <!-- $t$ -->
     <g transform="translate(468.32 548.868463)scale(0.2 -0.2)">
      <defs>
       <path d="M 2706 3500 
L 2619 3053 
L 1472 3053 
L 1100 1153 
Q 1081 1047 1072 975 
Q 1063 903 1063 863 
Q 1063 663 1183 572 
Q 1303 481 1569 481 
L 2150 481 
L 2053 0 
L 1503 0 
Q 991 0 739 200 
Q 488 400 488 806 
Q 488 878 497 964 
Q 506 1050 525 1153 
L 897 3053 
L 409 3053 
L 500 3500 
L 978 3500 
L 1172 4494 
L 1747 4494 
L 1556 3500 
L 2706 3500 
z
" id="DejaVuSans-Oblique-74" transform="scale(0.015625)"/>
      </defs>
      <use transform="translate(0 0.78125)" xlink:href="#DejaVuSans-Oblique-74"/>
     </g>
    </g>
   </g>
   <g id="matplotlib.axis_2">
    <g id="ytick_1">
     <g id="line2d_41">
      <defs>
       <path d="M 0 0 
L -3.5 0 
" id="m2cba696dfa" style="stroke:#000000;stroke-width:0.8;"/>
      </defs>
      <g>
       <use style="stroke:#000000;stroke-width:0.8;" x="115.2" xlink:href="#m2cba696dfa" y="508.1544"/>
      </g>
     </g>
     <g id="text_42">
      <!-- 0.0 -->
      <g transform="translate(84.345313 513.853228)scale(0.15 -0.15)">
       <defs>
        <path d="M 684 794 
L 1344 794 
L 1344 0 
L 684 0 
L 684 794 
z
" id="DejaVuSans-2e" transform="scale(0.015625)"/>
       </defs>
       <use xlink:href="#DejaVuSans-30"/>
       <use x="63.623047" xlink:href="#DejaVuSans-2e"/>
       <use x="95.410156" xlink:href="#DejaVuSans-30"/>
      </g>
     </g>
    </g>
    <g id="ytick_2">
     <g id="line2d_42">
      <g>
       <use style="stroke:#000000;stroke-width:0.8;" x="115.2" xlink:href="#m2cba696dfa" y="420.22656"/>
      </g>
     </g>
     <g id="text_43">
      <!-- 0.2 -->
      <g transform="translate(84.345313 425.925388)scale(0.15 -0.15)">
       <use xlink:href="#DejaVuSans-30"/>
       <use x="63.623047" xlink:href="#DejaVuSans-2e"/>
       <use x="95.410156" xlink:href="#DejaVuSans-32"/>
      </g>
     </g>
    </g>
    <g id="ytick_3">
     <g id="line2d_43">
      <g>
       <use style="stroke:#000000;stroke-width:0.8;" x="115.2" xlink:href="#m2cba696dfa" y="332.29872"/>
      </g>
     </g>
     <g id="text_44">
      <!-- 0.4 -->
      <g transform="translate(84.345313 337.997548)scale(0.15 -0.15)">
       <use xlink:href="#DejaVuSans-30"/>
       <use x="63.623047" xlink:href="#DejaVuSans-2e"/>
       <use x="95.410156" xlink:href="#DejaVuSans-34"/>
      </g>
     </g>
    </g>
    <g id="ytick_4">
     <g id="line2d_44">
      <g>
       <use style="stroke:#000000;stroke-width:0.8;" x="115.2" xlink:href="#m2cba696dfa" y="244.37088"/>
      </g>
     </g>
     <g id="text_45">
      <!-- 0.6 -->
      <g transform="translate(84.345313 250.069708)scale(0.15 -0.15)">
       <use xlink:href="#DejaVuSans-30"/>
       <use x="63.623047" xlink:href="#DejaVuSans-2e"/>
       <use x="95.410156" xlink:href="#DejaVuSans-36"/>
      </g>
     </g>
    </g>
    <g id="ytick_5">
     <g id="line2d_45">
      <g>
       <use style="stroke:#000000;stroke-width:0.8;" x="115.2" xlink:href="#m2cba696dfa" y="156.44304"/>
      </g>
     </g>
     <g id="text_46">
      <!-- 0.8 -->
      <g transform="translate(84.345313 162.141868)scale(0.15 -0.15)">
       <use xlink:href="#DejaVuSans-30"/>
       <use x="63.623047" xlink:href="#DejaVuSans-2e"/>
       <use x="95.410156" xlink:href="#DejaVuSans-38"/>
      </g>
     </g>
    </g>
    <g id="ytick_6">
     <g id="line2d_46">
      <g>
       <use style="stroke:#000000;stroke-width:0.8;" x="115.2" xlink:href="#m2cba696dfa" y="68.5152"/>
      </g>
     </g>
     <g id="text_47">
      <!-- 1.0 -->
      <g transform="translate(84.345313 74.214028)scale(0.15 -0.15)">
       <use xlink:href="#DejaVuSans-31"/>
       <use x="63.623047" xlink:href="#DejaVuSans-2e"/>
       <use x="95.410156" xlink:href="#DejaVuSans-30"/>
      </g>
     </g>
    </g>
    <g id="text_48">
     <!-- $p(context)$ -->
     <g transform="translate(76.145313 340.4348)rotate(-90)scale(0.2 -0.2)">
      <defs>
       <path d="M 3175 2156 
Q 3175 2616 2975 2859 
Q 2775 3103 2400 3103 
Q 2144 3103 1911 2972 
Q 1678 2841 1497 2591 
Q 1319 2344 1212 1994 
Q 1106 1644 1106 1300 
Q 1106 863 1306 627 
Q 1506 391 1875 391 
Q 2147 391 2380 519 
Q 2613 647 2778 891 
Q 2956 1147 3065 1494 
Q 3175 1841 3175 2156 
z
M 1394 2969 
Q 1625 3272 1939 3428 
Q 2253 3584 2638 3584 
Q 3175 3584 3472 3232 
Q 3769 2881 3769 2247 
Q 3769 1728 3584 1258 
Q 3400 788 3053 416 
Q 2822 169 2531 39 
Q 2241 -91 1919 -91 
Q 1547 -91 1294 64 
Q 1041 219 916 525 
L 556 -1331 
L -19 -1331 
L 922 3500 
L 1497 3500 
L 1394 2969 
z
" id="DejaVuSans-Oblique-70" transform="scale(0.015625)"/>
       <path d="M 1984 4856 
Q 1566 4138 1362 3434 
Q 1159 2731 1159 2009 
Q 1159 1288 1364 580 
Q 1569 -128 1984 -844 
L 1484 -844 
Q 1016 -109 783 600 
Q 550 1309 550 2009 
Q 550 2706 781 3412 
Q 1013 4119 1484 4856 
L 1984 4856 
z
" id="DejaVuSans-28" transform="scale(0.015625)"/>
       <path d="M 3431 3366 
L 3316 2797 
Q 3109 2947 2876 3022 
Q 2644 3097 2394 3097 
Q 2119 3097 1870 3000 
Q 1622 2903 1453 2725 
Q 1184 2453 1037 2087 
Q 891 1722 891 1331 
Q 891 859 1127 628 
Q 1363 397 1844 397 
Q 2081 397 2348 469 
Q 2616 541 2906 684 
L 2797 116 
Q 2547 13 2283 -39 
Q 2019 -91 1741 -91 
Q 1044 -91 669 257 
Q 294 606 294 1253 
Q 294 1797 489 2255 
Q 684 2713 1069 3078 
Q 1331 3328 1684 3456 
Q 2038 3584 2456 3584 
Q 2700 3584 2940 3529 
Q 3181 3475 3431 3366 
z
" id="DejaVuSans-Oblique-63" transform="scale(0.015625)"/>
       <path d="M 1625 -91 
Q 1009 -91 651 289 
Q 294 669 294 1325 
Q 294 1706 417 2101 
Q 541 2497 738 2766 
Q 1047 3184 1428 3384 
Q 1809 3584 2291 3584 
Q 2888 3584 3255 3212 
Q 3622 2841 3622 2241 
Q 3622 1825 3500 1412 
Q 3378 1000 3181 728 
Q 2875 309 2494 109 
Q 2113 -91 1625 -91 
z
M 891 1344 
Q 891 869 1089 633 
Q 1288 397 1691 397 
Q 2269 397 2648 901 
Q 3028 1406 3028 2181 
Q 3028 2634 2825 2865 
Q 2622 3097 2228 3097 
Q 1903 3097 1650 2945 
Q 1397 2794 1197 2484 
Q 1050 2253 970 1956 
Q 891 1659 891 1344 
z
" id="DejaVuSans-Oblique-6f" transform="scale(0.015625)"/>
       <path d="M 3566 2113 
L 3156 0 
L 2578 0 
L 2988 2091 
Q 3016 2238 3031 2350 
Q 3047 2463 3047 2528 
Q 3047 2791 2881 2937 
Q 2716 3084 2419 3084 
Q 1956 3084 1622 2776 
Q 1288 2469 1184 1941 
L 800 0 
L 225 0 
L 903 3500 
L 1478 3500 
L 1363 2950 
Q 1603 3253 1940 3418 
Q 2278 3584 2650 3584 
Q 3113 3584 3367 3334 
Q 3622 3084 3622 2631 
Q 3622 2519 3608 2391 
Q 3594 2263 3566 2113 
z
" id="DejaVuSans-Oblique-6e" transform="scale(0.015625)"/>
       <path d="M 3078 2063 
Q 3088 2113 3092 2166 
Q 3097 2219 3097 2272 
Q 3097 2653 2873 2875 
Q 2650 3097 2266 3097 
Q 1838 3097 1509 2826 
Q 1181 2556 1013 2059 
L 3078 2063 
z
M 3578 1613 
L 903 1613 
Q 884 1494 878 1425 
Q 872 1356 872 1306 
Q 872 872 1139 634 
Q 1406 397 1894 397 
Q 2269 397 2603 481 
Q 2938 566 3225 728 
L 3116 159 
Q 2806 34 2476 -28 
Q 2147 -91 1806 -91 
Q 1078 -91 686 257 
Q 294 606 294 1247 
Q 294 1794 489 2264 
Q 684 2734 1063 3103 
Q 1306 3334 1642 3459 
Q 1978 3584 2356 3584 
Q 2950 3584 3301 3228 
Q 3653 2872 3653 2272 
Q 3653 2128 3634 1964 
Q 3616 1800 3578 1613 
z
" id="DejaVuSans-Oblique-65" transform="scale(0.015625)"/>
       <path d="M 3841 3500 
L 2234 1784 
L 3219 0 
L 2559 0 
L 1819 1388 
L 531 0 
L -166 0 
L 1556 1844 
L 641 3500 
L 1300 3500 
L 1972 2234 
L 3144 3500 
L 3841 3500 
z
" id="DejaVuSans-Oblique-78" transform="scale(0.015625)"/>
       <path d="M 513 4856 
L 1013 4856 
Q 1481 4119 1714 3412 
Q 1947 2706 1947 2009 
Q 1947 1309 1714 600 
Q 1481 -109 1013 -844 
L 513 -844 
Q 928 -128 1133 580 
Q 1338 1288 1338 2009 
Q 1338 2731 1133 3434 
Q 928 4138 513 4856 
z
" id="DejaVuSans-29" transform="scale(0.015625)"/>
      </defs>
      <use transform="translate(0 0.125)" xlink:href="#DejaVuSans-Oblique-70"/>
      <use transform="translate(63.476562 0.125)" xlink:href="#DejaVuSans-28"/>
      <use transform="translate(102.490234 0.125)" xlink:href="#DejaVuSans-Oblique-63"/>
      <use transform="translate(157.470703 0.125)" xlink:href="#DejaVuSans-Oblique-6f"/>
      <use transform="translate(218.652344 0.125)" xlink:href="#DejaVuSans-Oblique-6e"/>
      <use transform="translate(282.03125 0.125)" xlink:href="#DejaVuSans-Oblique-74"/>
      <use transform="translate(321.240234 0.125)" xlink:href="#DejaVuSans-Oblique-65"/>
      <use transform="translate(382.763672 0.125)" xlink:href="#DejaVuSans-Oblique-78"/>
      <use transform="translate(441.943359 0.125)" xlink:href="#DejaVuSans-Oblique-74"/>
      <use transform="translate(481.152344 0.125)" xlink:href="#DejaVuSans-29"/>
     </g>
    </g>
   </g>
   <g id="line2d_47">
    <path clip-path="url(#p649a1a5e7d)" d="M 147.665455 464.19048 
L 163.898182 248.23875 
L 180.130909 496.007006 
L 196.363636 296.879781 
L 212.596364 175.288402 
L 228.829091 471.117755 
L 245.061818 500.412486 
L 261.294545 315.454477 
L 277.527273 195.563522 
L 293.76 456.269566 
L 309.992727 277.987821 
L 326.225455 198.453212 
L 342.458182 173.318553 
L 358.690909 162.105594 
L 374.923636 154.582383 
L 391.156364 148.525239 
L 407.389091 143.372601 
L 423.621818 138.908702 
L 439.854545 135.004789 
L 456.087273 131.565932 
L 472.32 217.225651 
L 488.552727 463.8082 
L 504.785455 494.55666 
L 521.018182 498.995969 
L 537.250909 500.530229 
L 553.483636 501.555691 
L 569.716364 502.360307 
L 585.949091 436.275237 
L 602.181818 215.140233 
L 618.414545 463.359838 
L 634.647273 243.05906 
L 650.88 459.707401 
L 667.112727 400.895419 
L 683.345455 487.355072 
L 699.578182 422.374761 
L 715.810909 490.332884 
L 732.043636 426.422996 
L 748.276364 491.271163 
L 764.509091 428.909784 
L 780.741818 392.069281 
" style="fill:none;stroke:#0000ff;stroke-linecap:square;stroke-width:1.5;"/>
    <defs>
     <path d="M 0 3 
C 0.795609 3 1.55874 2.683901 2.12132 2.12132 
C 2.683901 1.55874 3 0.795609 3 0 
C 3 -0.795609 2.683901 -1.55874 2.12132 -2.12132 
C 1.55874 -2.683901 0.795609 -3 0 -3 
C -0.795609 -3 -1.55874 -2.683901 -2.12132 -2.12132 
C -2.683901 -1.55874 -3 -0.795609 -3 0 
C -3 0.795609 -2.683901 1.55874 -2.12132 2.12132 
C -1.55874 2.683901 -0.795609 3 0 3 
z
" id="m39ecdd427b" style="stroke:#0000ff;"/>
    </defs>
    <g clip-path="url(#p649a1a5e7d)">
     <use style="fill:#0000ff;stroke:#0000ff;" x="147.665455" xlink:href="#m39ecdd427b" y="464.19048"/>
     <use style="fill:#0000ff;stroke:#0000ff;" x="163.898182" xlink:href="#m39ecdd427b" y="248.23875"/>
     <use style="fill:#0000ff;stroke:#0000ff;" x="180.130909" xlink:href="#m39ecdd427b" y="496.007006"/>
     <use style="fill:#0000ff;stroke:#0000ff;" x="196.363636" xlink:href="#m39ecdd427b" y="296.879781"/>
     <use style="fill:#0000ff;stroke:#0000ff;" x="212.596364" xlink:href="#m39ecdd427b" y="175.288402"/>
     <use style="fill:#0000ff;stroke:#0000ff;" x="228.829091" xlink:href="#m39ecdd427b" y="471.117755"/>
     <use style="fill:#0000ff;stroke:#0000ff;" x="245.061818" xlink:href="#m39ecdd427b" y="500.412486"/>
     <use style="fill:#0000ff;stroke:#0000ff;" x="261.294545" xlink:href="#m39ecdd427b" y="315.454477"/>
     <use style="fill:#0000ff;stroke:#0000ff;" x="277.527273" xlink:href="#m39ecdd427b" y="195.563522"/>
     <use style="fill:#0000ff;stroke:#0000ff;" x="293.76" xlink:href="#m39ecdd427b" y="456.269566"/>
     <use style="fill:#0000ff;stroke:#0000ff;" x="309.992727" xlink:href="#m39ecdd427b" y="277.987821"/>
     <use style="fill:#0000ff;stroke:#0000ff;" x="326.225455" xlink:href="#m39ecdd427b" y="198.453212"/>
     <use style="fill:#0000ff;stroke:#0000ff;" x="342.458182" xlink:href="#m39ecdd427b" y="173.318553"/>
     <use style="fill:#0000ff;stroke:#0000ff;" x="358.690909" xlink:href="#m39ecdd427b" y="162.105594"/>
     <use style="fill:#0000ff;stroke:#0000ff;" x="374.923636" xlink:href="#m39ecdd427b" y="154.582383"/>
     <use style="fill:#0000ff;stroke:#0000ff;" x="391.156364" xlink:href="#m39ecdd427b" y="148.525239"/>
     <use style="fill:#0000ff;stroke:#0000ff;" x="407.389091" xlink:href="#m39ecdd427b" y="143.372601"/>
     <use style="fill:#0000ff;stroke:#0000ff;" x="423.621818" xlink:href="#m39ecdd427b" y="138.908702"/>
     <use style="fill:#0000ff;stroke:#0000ff;" x="439.854545" xlink:href="#m39ecdd427b" y="135.004789"/>
     <use style="fill:#0000ff;stroke:#0000ff;" x="456.087273" xlink:href="#m39ecdd427b" y="131.565932"/>
     <use style="fill:#0000ff;stroke:#0000ff;" x="472.32" xlink:href="#m39ecdd427b" y="217.225651"/>
     <use style="fill:#0000ff;stroke:#0000ff;" x="488.552727" xlink:href="#m39ecdd427b" y="463.8082"/>
     <use style="fill:#0000ff;stroke:#0000ff;" x="504.785455" xlink:href="#m39ecdd427b" y="494.55666"/>
     <use style="fill:#0000ff;stroke:#0000ff;" x="521.018182" xlink:href="#m39ecdd427b" y="498.995969"/>
     <use style="fill:#0000ff;stroke:#0000ff;" x="537.250909" xlink:href="#m39ecdd427b" y="500.530229"/>
     <use style="fill:#0000ff;stroke:#0000ff;" x="553.483636" xlink:href="#m39ecdd427b" y="501.555691"/>
     <use style="fill:#0000ff;stroke:#0000ff;" x="569.716364" xlink:href="#m39ecdd427b" y="502.360307"/>
     <use style="fill:#0000ff;stroke:#0000ff;" x="585.949091" xlink:href="#m39ecdd427b" y="436.275237"/>
     <use style="fill:#0000ff;stroke:#0000ff;" x="602.181818" xlink:href="#m39ecdd427b" y="215.140233"/>
     <use style="fill:#0000ff;stroke:#0000ff;" x="618.414545" xlink:href="#m39ecdd427b" y="463.359838"/>
     <use style="fill:#0000ff;stroke:#0000ff;" x="634.647273" xlink:href="#m39ecdd427b" y="243.05906"/>
     <use style="fill:#0000ff;stroke:#0000ff;" x="650.88" xlink:href="#m39ecdd427b" y="459.707401"/>
     <use style="fill:#0000ff;stroke:#0000ff;" x="667.112727" xlink:href="#m39ecdd427b" y="400.895419"/>
     <use style="fill:#0000ff;stroke:#0000ff;" x="683.345455" xlink:href="#m39ecdd427b" y="487.355072"/>
     <use style="fill:#0000ff;stroke:#0000ff;" x="699.578182" xlink:href="#m39ecdd427b" y="422.374761"/>
     <use style="fill:#0000ff;stroke:#0000ff;" x="715.810909" xlink:href="#m39ecdd427b" y="490.332884"/>
     <use style="fill:#0000ff;stroke:#0000ff;" x="732.043636" xlink:href="#m39ecdd427b" y="426.422996"/>
     <use style="fill:#0000ff;stroke:#0000ff;" x="748.276364" xlink:href="#m39ecdd427b" y="491.271163"/>
     <use style="fill:#0000ff;stroke:#0000ff;" x="764.509091" xlink:href="#m39ecdd427b" y="428.909784"/>
     <use style="fill:#0000ff;stroke:#0000ff;" x="780.741818" xlink:href="#m39ecdd427b" y="392.069281"/>
    </g>
   </g>
   <g id="line2d_48">
    <path clip-path="url(#p649a1a5e7d)" d="M 147.665455 244.37088 
L 163.898182 471.245601 
L 180.130909 161.211931 
L 196.363636 426.078337 
L 212.596364 482.57145 
L 228.829091 210.515883 
L 245.061818 137.876474 
L 261.294545 392.601109 
L 277.527273 464.775969 
L 293.76 226.015779 
L 309.992727 408.392188 
L 326.225455 459.423926 
L 342.458182 473.805347 
L 358.690909 479.355671 
L 374.923636 482.682716 
L 391.156364 485.208086 
L 407.389091 487.279866 
L 423.621818 489.024235 
L 439.854545 490.512051 
L 456.087273 491.793185 
L 472.32 437.579548 
L 488.552727 217.575177 
L 504.785455 151.605795 
L 521.018182 137.886207 
L 537.250909 131.261695 
L 553.483636 126.14709 
L 569.716364 121.824325 
L 585.949091 220.810438 
L 602.181818 444.618448 
L 618.414545 201.647959 
L 634.647273 423.469634 
L 650.88 201.974737 
L 667.112727 258.197866 
L 683.345455 149.925121 
L 699.578182 235.081959 
L 715.810909 143.662389 
L 732.043636 229.9659 
L 748.276364 141.218106 
L 764.509091 226.512979 
L 780.741818 264.154522 
" style="fill:none;stroke:#ff0000;stroke-linecap:square;stroke-width:1.5;"/>
    <defs>
     <path d="M 0 3 
C 0.795609 3 1.55874 2.683901 2.12132 2.12132 
C 2.683901 1.55874 3 0.795609 3 0 
C 3 -0.795609 2.683901 -1.55874 2.12132 -2.12132 
C 1.55874 -2.683901 0.795609 -3 0 -3 
C -0.795609 -3 -1.55874 -2.683901 -2.12132 -2.12132 
C -2.683901 -1.55874 -3 -0.795609 -3 0 
C -3 0.795609 -2.683901 1.55874 -2.12132 2.12132 
C -1.55874 2.683901 -0.795609 3 0 3 
z
" id="m54840cc63b" style="stroke:#ff0000;"/>
    </defs>
    <g clip-path="url(#p649a1a5e7d)">
     <use style="fill:#ff0000;stroke:#ff0000;" x="147.665455" xlink:href="#m54840cc63b" y="244.37088"/>
     <use style="fill:#ff0000;stroke:#ff0000;" x="163.898182" xlink:href="#m54840cc63b" y="471.245601"/>
     <use style="fill:#ff0000;stroke:#ff0000;" x="180.130909" xlink:href="#m54840cc63b" y="161.211931"/>
     <use style="fill:#ff0000;stroke:#ff0000;" x="196.363636" xlink:href="#m54840cc63b" y="426.078337"/>
     <use style="fill:#ff0000;stroke:#ff0000;" x="212.596364" xlink:href="#m54840cc63b" y="482.57145"/>
     <use style="fill:#ff0000;stroke:#ff0000;" x="228.829091" xlink:href="#m54840cc63b" y="210.515883"/>
     <use style="fill:#ff0000;stroke:#ff0000;" x="245.061818" xlink:href="#m54840cc63b" y="137.876474"/>
     <use style="fill:#ff0000;stroke:#ff0000;" x="261.294545" xlink:href="#m54840cc63b" y="392.601109"/>
     <use style="fill:#ff0000;stroke:#ff0000;" x="277.527273" xlink:href="#m54840cc63b" y="464.775969"/>
     <use style="fill:#ff0000;stroke:#ff0000;" x="293.76" xlink:href="#m54840cc63b" y="226.015779"/>
     <use style="fill:#ff0000;stroke:#ff0000;" x="309.992727" xlink:href="#m54840cc63b" y="408.392188"/>
     <use style="fill:#ff0000;stroke:#ff0000;" x="326.225455" xlink:href="#m54840cc63b" y="459.423926"/>
     <use style="fill:#ff0000;stroke:#ff0000;" x="342.458182" xlink:href="#m54840cc63b" y="473.805347"/>
     <use style="fill:#ff0000;stroke:#ff0000;" x="358.690909" xlink:href="#m54840cc63b" y="479.355671"/>
     <use style="fill:#ff0000;stroke:#ff0000;" x="374.923636" xlink:href="#m54840cc63b" y="482.682716"/>
     <use style="fill:#ff0000;stroke:#ff0000;" x="391.156364" xlink:href="#m54840cc63b" y="485.208086"/>
     <use style="fill:#ff0000;stroke:#ff0000;" x="407.389091" xlink:href="#m54840cc63b" y="487.279866"/>
     <use style="fill:#ff0000;stroke:#ff0000;" x="423.621818" xlink:href="#m54840cc63b" y="489.024235"/>
     <use style="fill:#ff0000;stroke:#ff0000;" x="439.854545" xlink:href="#m54840cc63b" y="490.512051"/>
     <use style="fill:#ff0000;stroke:#ff0000;" x="456.087273" xlink:href="#m54840cc63b" y="491.793185"/>
     <use style="fill:#ff0000;stroke:#ff0000;" x="472.32" xlink:href="#m54840cc63b" y="437.579548"/>
     <use style="fill:#ff0000;stroke:#ff0000;" x="488.552727" xlink:href="#m54840cc63b" y="217.575177"/>
     <use style="fill:#ff0000;stroke:#ff0000;" x="504.785455" xlink:href="#m54840cc63b" y="151.605795"/>
     <use style="fill:#ff0000;stroke:#ff0000;" x="521.018182" xlink:href="#m54840cc63b" y="137.886207"/>
     <use style="fill:#ff0000;stroke:#ff0000;" x="537.250909" xlink:href="#m54840cc63b" y="131.261695"/>
     <use style="fill:#ff0000;stroke:#ff0000;" x="553.483636" xlink:href="#m54840cc63b" y="126.14709"/>
     <use style="fill:#ff0000;stroke:#ff0000;" x="569.716364" xlink:href="#m54840cc63b" y="121.824325"/>
     <use style="fill:#ff0000;stroke:#ff0000;" x="585.949091" xlink:href="#m54840cc63b" y="220.810438"/>
     <use style="fill:#ff0000;stroke:#ff0000;" x="602.181818" xlink:href="#m54840cc63b" y="444.618448"/>
     <use style="fill:#ff0000;stroke:#ff0000;" x="618.414545" xlink:href="#m54840cc63b" y="201.647959"/>
     <use style="fill:#ff0000;stroke:#ff0000;" x="634.647273" xlink:href="#m54840cc63b" y="423.469634"/>
     <use style="fill:#ff0000;stroke:#ff0000;" x="650.88" xlink:href="#m54840cc63b" y="201.974737"/>
     <use style="fill:#ff0000;stroke:#ff0000;" x="667.112727" xlink:href="#m54840cc63b" y="258.197866"/>
     <use style="fill:#ff0000;stroke:#ff0000;" x="683.345455" xlink:href="#m54840cc63b" y="149.925121"/>
     <use style="fill:#ff0000;stroke:#ff0000;" x="699.578182" xlink:href="#m54840cc63b" y="235.081959"/>
     <use style="fill:#ff0000;stroke:#ff0000;" x="715.810909" xlink:href="#m54840cc63b" y="143.662389"/>
     <use style="fill:#ff0000;stroke:#ff0000;" x="732.043636" xlink:href="#m54840cc63b" y="229.9659"/>
     <use style="fill:#ff0000;stroke:#ff0000;" x="748.276364" xlink:href="#m54840cc63b" y="141.218106"/>
     <use style="fill:#ff0000;stroke:#ff0000;" x="764.509091" xlink:href="#m54840cc63b" y="226.512979"/>
     <use style="fill:#ff0000;stroke:#ff0000;" x="780.741818" xlink:href="#m54840cc63b" y="264.154522"/>
    </g>
   </g>
   <g id="line2d_49">
    <path clip-path="url(#p649a1a5e7d)" d="M 147.665455 376.26264 
L 163.898182 365.33965 
L 180.130909 427.605063 
L 196.363636 361.865882 
L 212.596364 426.964148 
L 228.829091 403.190362 
L 245.061818 446.53504 
L 261.294545 376.768415 
L 277.527273 424.48451 
L 293.76 402.538655 
L 309.992727 398.44399 
L 326.225455 426.946862 
L 342.458182 437.7001 
L 358.690909 443.362735 
L 374.923636 447.558901 
L 391.156364 451.090675 
L 407.389091 454.171533 
L 423.621818 456.891063 
L 439.854545 459.307159 
L 456.087273 461.464883 
L 472.32 430.018801 
L 488.552727 403.440623 
L 504.785455 438.661545 
L 521.018182 447.941824 
L 537.250909 453.032075 
L 553.483636 457.121219 
L 569.716364 460.639368 
L 585.949091 427.738324 
L 602.181818 425.065319 
L 618.414545 419.816203 
L 634.647273 418.295306 
L 650.88 423.141862 
L 667.112727 425.730715 
L 683.345455 447.543807 
L 699.578182 427.36728 
L 715.810909 450.828726 
L 732.043636 428.435105 
L 748.276364 452.334731 
L 764.509091 429.401238 
L 780.741818 428.600197 
" style="fill:none;stroke:#808080;stroke-linecap:square;stroke-width:1.5;"/>
    <defs>
     <path d="M 0 3 
C 0.795609 3 1.55874 2.683901 2.12132 2.12132 
C 2.683901 1.55874 3 0.795609 3 0 
C 3 -0.795609 2.683901 -1.55874 2.12132 -2.12132 
C 1.55874 -2.683901 0.795609 -3 0 -3 
C -0.795609 -3 -1.55874 -2.683901 -2.12132 -2.12132 
C -2.683901 -1.55874 -3 -0.795609 -3 0 
C -3 0.795609 -2.683901 1.55874 -2.12132 2.12132 
C -1.55874 2.683901 -0.795609 3 0 3 
z
" id="m9eca8cad76" style="stroke:#808080;"/>
    </defs>
    <g clip-path="url(#p649a1a5e7d)">
     <use style="fill:#808080;stroke:#808080;" x="147.665455" xlink:href="#m9eca8cad76" y="376.26264"/>
     <use style="fill:#808080;stroke:#808080;" x="163.898182" xlink:href="#m9eca8cad76" y="365.33965"/>
     <use style="fill:#808080;stroke:#808080;" x="180.130909" xlink:href="#m9eca8cad76" y="427.605063"/>
     <use style="fill:#808080;stroke:#808080;" x="196.363636" xlink:href="#m9eca8cad76" y="361.865882"/>
     <use style="fill:#808080;stroke:#808080;" x="212.596364" xlink:href="#m9eca8cad76" y="426.964148"/>
     <use style="fill:#808080;stroke:#808080;" x="228.829091" xlink:href="#m9eca8cad76" y="403.190362"/>
     <use style="fill:#808080;stroke:#808080;" x="245.061818" xlink:href="#m9eca8cad76" y="446.53504"/>
     <use style="fill:#808080;stroke:#808080;" x="261.294545" xlink:href="#m9eca8cad76" y="376.768415"/>
     <use style="fill:#808080;stroke:#808080;" x="277.527273" xlink:href="#m9eca8cad76" y="424.48451"/>
     <use style="fill:#808080;stroke:#808080;" x="293.76" xlink:href="#m9eca8cad76" y="402.538655"/>
     <use style="fill:#808080;stroke:#808080;" x="309.992727" xlink:href="#m9eca8cad76" y="398.44399"/>
     <use style="fill:#808080;stroke:#808080;" x="326.225455" xlink:href="#m9eca8cad76" y="426.946862"/>
     <use style="fill:#808080;stroke:#808080;" x="342.458182" xlink:href="#m9eca8cad76" y="437.7001"/>
     <use style="fill:#808080;stroke:#808080;" x="358.690909" xlink:href="#m9eca8cad76" y="443.362735"/>
     <use style="fill:#808080;stroke:#808080;" x="374.923636" xlink:href="#m9eca8cad76" y="447.558901"/>
     <use style="fill:#808080;stroke:#808080;" x="391.156364" xlink:href="#m9eca8cad76" y="451.090675"/>
     <use style="fill:#808080;stroke:#808080;" x="407.389091" xlink:href="#m9eca8cad76" y="454.171533"/>
     <use style="fill:#808080;stroke:#808080;" x="423.621818" xlink:href="#m9eca8cad76" y="456.891063"/>
     <use style="fill:#808080;stroke:#808080;" x="439.854545" xlink:href="#m9eca8cad76" y="459.307159"/>
     <use style="fill:#808080;stroke:#808080;" x="456.087273" xlink:href="#m9eca8cad76" y="461.464883"/>
     <use style="fill:#808080;stroke:#808080;" x="472.32" xlink:href="#m9eca8cad76" y="430.018801"/>
     <use style="fill:#808080;stroke:#808080;" x="488.552727" xlink:href="#m9eca8cad76" y="403.440623"/>
     <use style="fill:#808080;stroke:#808080;" x="504.785455" xlink:href="#m9eca8cad76" y="438.661545"/>
     <use style="fill:#808080;stroke:#808080;" x="521.018182" xlink:href="#m9eca8cad76" y="447.941824"/>
     <use style="fill:#808080;stroke:#808080;" x="537.250909" xlink:href="#m9eca8cad76" y="453.032075"/>
     <use style="fill:#808080;stroke:#808080;" x="553.483636" xlink:href="#m9eca8cad76" y="457.121219"/>
     <use style="fill:#808080;stroke:#808080;" x="569.716364" xlink:href="#m9eca8cad76" y="460.639368"/>
     <use style="fill:#808080;stroke:#808080;" x="585.949091" xlink:href="#m9eca8cad76" y="427.738324"/>
     <use style="fill:#808080;stroke:#808080;" x="602.181818" xlink:href="#m9eca8cad76" y="425.065319"/>
     <use style="fill:#808080;stroke:#808080;" x="618.414545" xlink:href="#m9eca8cad76" y="419.816203"/>
     <use style="fill:#808080;stroke:#808080;" x="634.647273" xlink:href="#m9eca8cad76" y="418.295306"/>
     <use style="fill:#808080;stroke:#808080;" x="650.88" xlink:href="#m9eca8cad76" y="423.141862"/>
     <use style="fill:#808080;stroke:#808080;" x="667.112727" xlink:href="#m9eca8cad76" y="425.730715"/>
     <use style="fill:#808080;stroke:#808080;" x="683.345455" xlink:href="#m9eca8cad76" y="447.543807"/>
     <use style="fill:#808080;stroke:#808080;" x="699.578182" xlink:href="#m9eca8cad76" y="427.36728"/>
     <use style="fill:#808080;stroke:#808080;" x="715.810909" xlink:href="#m9eca8cad76" y="450.828726"/>
     <use style="fill:#808080;stroke:#808080;" x="732.043636" xlink:href="#m9eca8cad76" y="428.435105"/>
     <use style="fill:#808080;stroke:#808080;" x="748.276364" xlink:href="#m9eca8cad76" y="452.334731"/>
     <use style="fill:#808080;stroke:#808080;" x="764.509091" xlink:href="#m9eca8cad76" y="429.401238"/>
     <use style="fill:#808080;stroke:#808080;" x="780.741818" xlink:href="#m9eca8cad76" y="428.600197"/>
    </g>
   </g>
   <g id="patch_5">
    <path d="M 115.2 508.1544 
L 115.2 68.5152 
" style="fill:none;stroke:#000000;stroke-linecap:square;stroke-linejoin:miter;stroke-width:0.8;"/>
   </g>
   <g id="patch_6">
    <path d="M 829.44 508.1544 
L 829.44 68.5152 
" style="fill:none;stroke:#000000;stroke-linecap:square;stroke-linejoin:miter;stroke-width:0.8;"/>
   </g>
   <g id="patch_7">
    <path d="M 115.2 508.1544 
L 829.44 508.1544 
" style="fill:none;stroke:#000000;stroke-linecap:square;stroke-linejoin:miter;stroke-width:0.8;"/>
   </g>
   <g id="patch_8">
    <path d="M 115.2 68.5152 
L 829.44 68.5152 
" style="fill:none;stroke:#000000;stroke-linecap:square;stroke-linejoin:miter;stroke-width:0.8;"/>
   </g>
   <g id="text_49">
    <!-- Depression: fatalistic -->
    <g transform="translate(340.945 62.5152)scale(0.25 -0.25)">
     <defs>
      <path d="M 1259 4147 
L 1259 519 
L 2022 519 
Q 2988 519 3436 956 
Q 3884 1394 3884 2338 
Q 3884 3275 3436 3711 
Q 2988 4147 2022 4147 
L 1259 4147 
z
M 628 4666 
L 1925 4666 
Q 3281 4666 3915 4102 
Q 4550 3538 4550 2338 
Q 4550 1131 3912 565 
Q 3275 0 1925 0 
L 628 0 
L 628 4666 
z
" id="DejaVuSans-44" transform="scale(0.015625)"/>
      <path d="M 3597 1894 
L 3597 1613 
L 953 1613 
Q 991 1019 1311 708 
Q 1631 397 2203 397 
Q 2534 397 2845 478 
Q 3156 559 3463 722 
L 3463 178 
Q 3153 47 2828 -22 
Q 2503 -91 2169 -91 
Q 1331 -91 842 396 
Q 353 884 353 1716 
Q 353 2575 817 3079 
Q 1281 3584 2069 3584 
Q 2775 3584 3186 3129 
Q 3597 2675 3597 1894 
z
M 3022 2063 
Q 3016 2534 2758 2815 
Q 2500 3097 2075 3097 
Q 1594 3097 1305 2825 
Q 1016 2553 972 2059 
L 3022 2063 
z
" id="DejaVuSans-65" transform="scale(0.015625)"/>
      <path d="M 1159 525 
L 1159 -1331 
L 581 -1331 
L 581 3500 
L 1159 3500 
L 1159 2969 
Q 1341 3281 1617 3432 
Q 1894 3584 2278 3584 
Q 2916 3584 3314 3078 
Q 3713 2572 3713 1747 
Q 3713 922 3314 415 
Q 2916 -91 2278 -91 
Q 1894 -91 1617 61 
Q 1341 213 1159 525 
z
M 3116 1747 
Q 3116 2381 2855 2742 
Q 2594 3103 2138 3103 
Q 1681 3103 1420 2742 
Q 1159 2381 1159 1747 
Q 1159 1113 1420 752 
Q 1681 391 2138 391 
Q 2594 391 2855 752 
Q 3116 1113 3116 1747 
z
" id="DejaVuSans-70" transform="scale(0.015625)"/>
      <path d="M 2631 2963 
Q 2534 3019 2420 3045 
Q 2306 3072 2169 3072 
Q 1681 3072 1420 2755 
Q 1159 2438 1159 1844 
L 1159 0 
L 581 0 
L 581 3500 
L 1159 3500 
L 1159 2956 
Q 1341 3275 1631 3429 
Q 1922 3584 2338 3584 
Q 2397 3584 2469 3576 
Q 2541 3569 2628 3553 
L 2631 2963 
z
" id="DejaVuSans-72" transform="scale(0.015625)"/>
      <path d="M 2834 3397 
L 2834 2853 
Q 2591 2978 2328 3040 
Q 2066 3103 1784 3103 
Q 1356 3103 1142 2972 
Q 928 2841 928 2578 
Q 928 2378 1081 2264 
Q 1234 2150 1697 2047 
L 1894 2003 
Q 2506 1872 2764 1633 
Q 3022 1394 3022 966 
Q 3022 478 2636 193 
Q 2250 -91 1575 -91 
Q 1294 -91 989 -36 
Q 684 19 347 128 
L 347 722 
Q 666 556 975 473 
Q 1284 391 1588 391 
Q 1994 391 2212 530 
Q 2431 669 2431 922 
Q 2431 1156 2273 1281 
Q 2116 1406 1581 1522 
L 1381 1569 
Q 847 1681 609 1914 
Q 372 2147 372 2553 
Q 372 3047 722 3315 
Q 1072 3584 1716 3584 
Q 2034 3584 2315 3537 
Q 2597 3491 2834 3397 
z
" id="DejaVuSans-73" transform="scale(0.015625)"/>
      <path d="M 603 3500 
L 1178 3500 
L 1178 0 
L 603 0 
L 603 3500 
z
M 603 4863 
L 1178 4863 
L 1178 4134 
L 603 4134 
L 603 4863 
z
" id="DejaVuSans-69" transform="scale(0.015625)"/>
      <path d="M 1959 3097 
Q 1497 3097 1228 2736 
Q 959 2375 959 1747 
Q 959 1119 1226 758 
Q 1494 397 1959 397 
Q 2419 397 2687 759 
Q 2956 1122 2956 1747 
Q 2956 2369 2687 2733 
Q 2419 3097 1959 3097 
z
M 1959 3584 
Q 2709 3584 3137 3096 
Q 3566 2609 3566 1747 
Q 3566 888 3137 398 
Q 2709 -91 1959 -91 
Q 1206 -91 779 398 
Q 353 888 353 1747 
Q 353 2609 779 3096 
Q 1206 3584 1959 3584 
z
" id="DejaVuSans-6f" transform="scale(0.015625)"/>
      <path d="M 3513 2113 
L 3513 0 
L 2938 0 
L 2938 2094 
Q 2938 2591 2744 2837 
Q 2550 3084 2163 3084 
Q 1697 3084 1428 2787 
Q 1159 2491 1159 1978 
L 1159 0 
L 581 0 
L 581 3500 
L 1159 3500 
L 1159 2956 
Q 1366 3272 1645 3428 
Q 1925 3584 2291 3584 
Q 2894 3584 3203 3211 
Q 3513 2838 3513 2113 
z
" id="DejaVuSans-6e" transform="scale(0.015625)"/>
      <path d="M 750 794 
L 1409 794 
L 1409 0 
L 750 0 
L 750 794 
z
M 750 3309 
L 1409 3309 
L 1409 2516 
L 750 2516 
L 750 3309 
z
" id="DejaVuSans-3a" transform="scale(0.015625)"/>
      <path id="DejaVuSans-20" transform="scale(0.015625)"/>
      <path d="M 2375 4863 
L 2375 4384 
L 1825 4384 
Q 1516 4384 1395 4259 
Q 1275 4134 1275 3809 
L 1275 3500 
L 2222 3500 
L 2222 3053 
L 1275 3053 
L 1275 0 
L 697 0 
L 697 3053 
L 147 3053 
L 147 3500 
L 697 3500 
L 697 3744 
Q 697 4328 969 4595 
Q 1241 4863 1831 4863 
L 2375 4863 
z
" id="DejaVuSans-66" transform="scale(0.015625)"/>
      <path d="M 2194 1759 
Q 1497 1759 1228 1600 
Q 959 1441 959 1056 
Q 959 750 1161 570 
Q 1363 391 1709 391 
Q 2188 391 2477 730 
Q 2766 1069 2766 1631 
L 2766 1759 
L 2194 1759 
z
M 3341 1997 
L 3341 0 
L 2766 0 
L 2766 531 
Q 2569 213 2275 61 
Q 1981 -91 1556 -91 
Q 1019 -91 701 211 
Q 384 513 384 1019 
Q 384 1609 779 1909 
Q 1175 2209 1959 2209 
L 2766 2209 
L 2766 2266 
Q 2766 2663 2505 2880 
Q 2244 3097 1772 3097 
Q 1472 3097 1187 3025 
Q 903 2953 641 2809 
L 641 3341 
Q 956 3463 1253 3523 
Q 1550 3584 1831 3584 
Q 2591 3584 2966 3190 
Q 3341 2797 3341 1997 
z
" id="DejaVuSans-61" transform="scale(0.015625)"/>
      <path d="M 1172 4494 
L 1172 3500 
L 2356 3500 
L 2356 3053 
L 1172 3053 
L 1172 1153 
Q 1172 725 1289 603 
Q 1406 481 1766 481 
L 2356 481 
L 2356 0 
L 1766 0 
Q 1100 0 847 248 
Q 594 497 594 1153 
L 594 3053 
L 172 3053 
L 172 3500 
L 594 3500 
L 594 4494 
L 1172 4494 
z
" id="DejaVuSans-74" transform="scale(0.015625)"/>
      <path d="M 603 4863 
L 1178 4863 
L 1178 0 
L 603 0 
L 603 4863 
z
" id="DejaVuSans-6c" transform="scale(0.015625)"/>
      <path d="M 3122 3366 
L 3122 2828 
Q 2878 2963 2633 3030 
Q 2388 3097 2138 3097 
Q 1578 3097 1268 2742 
Q 959 2388 959 1747 
Q 959 1106 1268 751 
Q 1578 397 2138 397 
Q 2388 397 2633 464 
Q 2878 531 3122 666 
L 3122 134 
Q 2881 22 2623 -34 
Q 2366 -91 2075 -91 
Q 1284 -91 818 406 
Q 353 903 353 1747 
Q 353 2603 823 3093 
Q 1294 3584 2113 3584 
Q 2378 3584 2631 3529 
Q 2884 3475 3122 3366 
z
" id="DejaVuSans-63" transform="scale(0.015625)"/>
     </defs>
     <use xlink:href="#DejaVuSans-44"/>
     <use x="77.001953" xlink:href="#DejaVuSans-65"/>
     <use x="138.525391" xlink:href="#DejaVuSans-70"/>
     <use x="202.001953" xlink:href="#DejaVuSans-72"/>
     <use x="240.865234" xlink:href="#DejaVuSans-65"/>
     <use x="302.388672" xlink:href="#DejaVuSans-73"/>
     <use x="354.488281" xlink:href="#DejaVuSans-73"/>
     <use x="406.587891" xlink:href="#DejaVuSans-69"/>
     <use x="434.371094" xlink:href="#DejaVuSans-6f"/>
     <use x="495.552734" xlink:href="#DejaVuSans-6e"/>
     <use x="558.931641" xlink:href="#DejaVuSans-3a"/>
     <use x="592.623047" xlink:href="#DejaVuSans-20"/>
     <use x="624.410156" xlink:href="#DejaVuSans-66"/>
     <use x="659.615234" xlink:href="#DejaVuSans-61"/>
     <use x="720.894531" xlink:href="#DejaVuSans-74"/>
     <use x="760.103516" xlink:href="#DejaVuSans-61"/>
     <use x="821.382812" xlink:href="#DejaVuSans-6c"/>
     <use x="849.166016" xlink:href="#DejaVuSans-69"/>
     <use x="876.949219" xlink:href="#DejaVuSans-73"/>
     <use x="929.048828" xlink:href="#DejaVuSans-74"/>
     <use x="968.257812" xlink:href="#DejaVuSans-69"/>
     <use x="996.041016" xlink:href="#DejaVuSans-63"/>
    </g>
   </g>
   <g id="legend_1">
    <g id="patch_9">
     <path d="M 719.588438 164.58395 
L 822.44 164.58395 
Q 824.44 164.58395 824.44 162.58395 
L 824.44 75.5152 
Q 824.44 73.5152 822.44 73.5152 
L 719.588438 73.5152 
Q 717.588438 73.5152 717.588438 75.5152 
L 717.588438 162.58395 
Q 717.588438 164.58395 719.588438 164.58395 
z
" style="fill:#ffffff;opacity:0.8;stroke:#cccccc;stroke-linejoin:miter;"/>
    </g>
    <g id="line2d_50">
     <path d="M 721.588438 81.613637 
L 741.588438 81.613637 
" style="fill:none;stroke:#0000ff;stroke-linecap:square;stroke-width:1.5;"/>
    </g>
    <g id="line2d_51">
     <g>
      <use style="fill:#0000ff;stroke:#0000ff;" x="731.588438" xlink:href="#m39ecdd427b" y="81.613637"/>
     </g>
    </g>
    <g id="text_50">
     <!-- cooperative -->
     <g transform="translate(749.588438 85.113637)scale(0.1 -0.1)">
      <defs>
       <path d="M 191 3500 
L 800 3500 
L 1894 563 
L 2988 3500 
L 3597 3500 
L 2284 0 
L 1503 0 
L 191 3500 
z
" id="DejaVuSans-76" transform="scale(0.015625)"/>
      </defs>
      <use xlink:href="#DejaVuSans-63"/>
      <use x="54.980469" xlink:href="#DejaVuSans-6f"/>
      <use x="116.162109" xlink:href="#DejaVuSans-6f"/>
      <use x="177.34375" xlink:href="#DejaVuSans-70"/>
      <use x="240.820312" xlink:href="#DejaVuSans-65"/>
      <use x="302.34375" xlink:href="#DejaVuSans-72"/>
      <use x="343.457031" xlink:href="#DejaVuSans-61"/>
      <use x="404.736328" xlink:href="#DejaVuSans-74"/>
      <use x="443.945312" xlink:href="#DejaVuSans-69"/>
      <use x="471.728516" xlink:href="#DejaVuSans-76"/>
      <use x="530.908203" xlink:href="#DejaVuSans-65"/>
     </g>
    </g>
    <g id="line2d_52">
     <path d="M 721.588438 96.291763 
L 741.588438 96.291763 
" style="fill:none;stroke:#ff0000;stroke-linecap:square;stroke-width:1.5;"/>
    </g>
    <g id="line2d_53">
     <g>
      <use style="fill:#ff0000;stroke:#ff0000;" x="731.588438" xlink:href="#m54840cc63b" y="96.291763"/>
     </g>
    </g>
    <g id="text_51">
     <!-- hostile -->
     <g transform="translate(749.588438 99.791763)scale(0.1 -0.1)">
      <defs>
       <path d="M 3513 2113 
L 3513 0 
L 2938 0 
L 2938 2094 
Q 2938 2591 2744 2837 
Q 2550 3084 2163 3084 
Q 1697 3084 1428 2787 
Q 1159 2491 1159 1978 
L 1159 0 
L 581 0 
L 581 4863 
L 1159 4863 
L 1159 2956 
Q 1366 3272 1645 3428 
Q 1925 3584 2291 3584 
Q 2894 3584 3203 3211 
Q 3513 2838 3513 2113 
z
" id="DejaVuSans-68" transform="scale(0.015625)"/>
      </defs>
      <use xlink:href="#DejaVuSans-68"/>
      <use x="63.378906" xlink:href="#DejaVuSans-6f"/>
      <use x="124.560547" xlink:href="#DejaVuSans-73"/>
      <use x="176.660156" xlink:href="#DejaVuSans-74"/>
      <use x="215.869141" xlink:href="#DejaVuSans-69"/>
      <use x="243.652344" xlink:href="#DejaVuSans-6c"/>
      <use x="271.435547" xlink:href="#DejaVuSans-65"/>
     </g>
    </g>
    <g id="line2d_54">
     <path d="M 721.588438 110.969887 
L 741.588438 110.969887 
" style="fill:none;stroke:#808080;stroke-linecap:square;stroke-width:1.5;"/>
    </g>
    <g id="line2d_55">
     <g>
      <use style="fill:#808080;stroke:#808080;" x="731.588438" xlink:href="#m9eca8cad76" y="110.969887"/>
     </g>
    </g>
    <g id="text_52">
     <!-- random -->
     <g transform="translate(749.588438 114.469887)scale(0.1 -0.1)">
      <defs>
       <path d="M 2906 2969 
L 2906 4863 
L 3481 4863 
L 3481 0 
L 2906 0 
L 2906 525 
Q 2725 213 2448 61 
Q 2172 -91 1784 -91 
Q 1150 -91 751 415 
Q 353 922 353 1747 
Q 353 2572 751 3078 
Q 1150 3584 1784 3584 
Q 2172 3584 2448 3432 
Q 2725 3281 2906 2969 
z
M 947 1747 
Q 947 1113 1208 752 
Q 1469 391 1925 391 
Q 2381 391 2643 752 
Q 2906 1113 2906 1747 
Q 2906 2381 2643 2742 
Q 2381 3103 1925 3103 
Q 1469 3103 1208 2742 
Q 947 2381 947 1747 
z
" id="DejaVuSans-64" transform="scale(0.015625)"/>
       <path d="M 3328 2828 
Q 3544 3216 3844 3400 
Q 4144 3584 4550 3584 
Q 5097 3584 5394 3201 
Q 5691 2819 5691 2113 
L 5691 0 
L 5113 0 
L 5113 2094 
Q 5113 2597 4934 2840 
Q 4756 3084 4391 3084 
Q 3944 3084 3684 2787 
Q 3425 2491 3425 1978 
L 3425 0 
L 2847 0 
L 2847 2094 
Q 2847 2600 2669 2842 
Q 2491 3084 2119 3084 
Q 1678 3084 1418 2786 
Q 1159 2488 1159 1978 
L 1159 0 
L 581 0 
L 581 3500 
L 1159 3500 
L 1159 2956 
Q 1356 3278 1631 3431 
Q 1906 3584 2284 3584 
Q 2666 3584 2933 3390 
Q 3200 3197 3328 2828 
z
" id="DejaVuSans-6d" transform="scale(0.015625)"/>
      </defs>
      <use xlink:href="#DejaVuSans-72"/>
      <use x="41.113281" xlink:href="#DejaVuSans-61"/>
      <use x="102.392578" xlink:href="#DejaVuSans-6e"/>
      <use x="165.771484" xlink:href="#DejaVuSans-64"/>
      <use x="229.248047" xlink:href="#DejaVuSans-6f"/>
      <use x="290.429688" xlink:href="#DejaVuSans-6d"/>
     </g>
    </g>
    <g id="line2d_56">
     <path d="M 721.588438 125.648012 
L 741.588438 125.648012 
" style="fill:none;stroke:#ffffff;stroke-linecap:square;stroke-width:1.5;"/>
    </g>
    <g id="line2d_57">
     <defs>
      <path d="M -0 5 
L 5 -5 
L -5 -5 
z
" id="m4518f371d4" style="stroke:#ffffff;stroke-linejoin:miter;"/>
     </defs>
     <g>
      <use style="fill:#ff0000;stroke:#ffffff;stroke-linejoin:miter;" x="731.588438" xlink:href="#m4518f371d4" y="125.648012"/>
     </g>
    </g>
    <g id="text_53">
     <!-- invest - abuse -->
     <g transform="translate(749.588438 129.148012)scale(0.1 -0.1)">
      <defs>
       <path d="M 313 2009 
L 1997 2009 
L 1997 1497 
L 313 1497 
L 313 2009 
z
" id="DejaVuSans-2d" transform="scale(0.015625)"/>
       <path d="M 3116 1747 
Q 3116 2381 2855 2742 
Q 2594 3103 2138 3103 
Q 1681 3103 1420 2742 
Q 1159 2381 1159 1747 
Q 1159 1113 1420 752 
Q 1681 391 2138 391 
Q 2594 391 2855 752 
Q 3116 1113 3116 1747 
z
M 1159 2969 
Q 1341 3281 1617 3432 
Q 1894 3584 2278 3584 
Q 2916 3584 3314 3078 
Q 3713 2572 3713 1747 
Q 3713 922 3314 415 
Q 2916 -91 2278 -91 
Q 1894 -91 1617 61 
Q 1341 213 1159 525 
L 1159 0 
L 581 0 
L 581 4863 
L 1159 4863 
L 1159 2969 
z
" id="DejaVuSans-62" transform="scale(0.015625)"/>
       <path d="M 544 1381 
L 544 3500 
L 1119 3500 
L 1119 1403 
Q 1119 906 1312 657 
Q 1506 409 1894 409 
Q 2359 409 2629 706 
Q 2900 1003 2900 1516 
L 2900 3500 
L 3475 3500 
L 3475 0 
L 2900 0 
L 2900 538 
Q 2691 219 2414 64 
Q 2138 -91 1772 -91 
Q 1169 -91 856 284 
Q 544 659 544 1381 
z
M 1991 3584 
L 1991 3584 
z
" id="DejaVuSans-75" transform="scale(0.015625)"/>
      </defs>
      <use xlink:href="#DejaVuSans-69"/>
      <use x="27.783203" xlink:href="#DejaVuSans-6e"/>
      <use x="91.162109" xlink:href="#DejaVuSans-76"/>
      <use x="150.341797" xlink:href="#DejaVuSans-65"/>
      <use x="211.865234" xlink:href="#DejaVuSans-73"/>
      <use x="263.964844" xlink:href="#DejaVuSans-74"/>
      <use x="303.173828" xlink:href="#DejaVuSans-20"/>
      <use x="334.960938" xlink:href="#DejaVuSans-2d"/>
      <use x="371.044922" xlink:href="#DejaVuSans-20"/>
      <use x="402.832031" xlink:href="#DejaVuSans-61"/>
      <use x="464.111328" xlink:href="#DejaVuSans-62"/>
      <use x="527.587891" xlink:href="#DejaVuSans-75"/>
      <use x="590.966797" xlink:href="#DejaVuSans-73"/>
      <use x="643.066406" xlink:href="#DejaVuSans-65"/>
     </g>
    </g>
    <g id="line2d_58">
     <path d="M 721.588438 140.326137 
L 741.588438 140.326137 
" style="fill:none;stroke:#ffffff;stroke-linecap:square;stroke-width:1.5;"/>
    </g>
    <g id="line2d_59">
     <defs>
      <path d="M 0 -5 
L -5 5 
L 5 5 
z
" id="m0a875a851a" style="stroke:#ffffff;stroke-linejoin:miter;"/>
     </defs>
     <g>
      <use style="fill:#0000ff;stroke:#ffffff;stroke-linejoin:miter;" x="731.588438" xlink:href="#m0a875a851a" y="140.326137"/>
     </g>
    </g>
    <g id="text_54">
     <!-- invest - return -->
     <g transform="translate(749.588438 143.826137)scale(0.1 -0.1)">
      <use xlink:href="#DejaVuSans-69"/>
      <use x="27.783203" xlink:href="#DejaVuSans-6e"/>
      <use x="91.162109" xlink:href="#DejaVuSans-76"/>
      <use x="150.341797" xlink:href="#DejaVuSans-65"/>
      <use x="211.865234" xlink:href="#DejaVuSans-73"/>
      <use x="263.964844" xlink:href="#DejaVuSans-74"/>
      <use x="303.173828" xlink:href="#DejaVuSans-20"/>
      <use x="334.960938" xlink:href="#DejaVuSans-2d"/>
      <use x="371.044922" xlink:href="#DejaVuSans-20"/>
      <use x="402.832031" xlink:href="#DejaVuSans-72"/>
      <use x="441.695312" xlink:href="#DejaVuSans-65"/>
      <use x="503.21875" xlink:href="#DejaVuSans-74"/>
      <use x="542.427734" xlink:href="#DejaVuSans-75"/>
      <use x="605.806641" xlink:href="#DejaVuSans-72"/>
      <use x="645.169922" xlink:href="#DejaVuSans-6e"/>
     </g>
    </g>
    <g id="line2d_60">
     <path d="M 721.588438 155.004262 
L 741.588438 155.004262 
" style="fill:none;stroke:#ffffff;stroke-linecap:square;stroke-width:1.5;"/>
    </g>
    <g id="line2d_61">
     <defs>
      <path d="M -2.5 5 
L 0 2.5 
L 2.5 5 
L 5 2.5 
L 2.5 0 
L 5 -2.5 
L 2.5 -5 
L 0 -2.5 
L -2.5 -5 
L -5 -2.5 
L -2.5 0 
L -5 2.5 
z
" id="m6d9d74c0c8" style="stroke:#ffffff;stroke-linejoin:miter;"/>
     </defs>
     <g>
      <use style="stroke:#ffffff;stroke-linejoin:miter;" x="731.588438" xlink:href="#m6d9d74c0c8" y="155.004262"/>
     </g>
    </g>
    <g id="text_55">
     <!-- no invest -->
     <g transform="translate(749.588438 158.504262)scale(0.1 -0.1)">
      <use xlink:href="#DejaVuSans-6e"/>
      <use x="63.378906" xlink:href="#DejaVuSans-6f"/>
      <use x="124.560547" xlink:href="#DejaVuSans-20"/>
      <use x="156.347656" xlink:href="#DejaVuSans-69"/>
      <use x="184.130859" xlink:href="#DejaVuSans-6e"/>
      <use x="247.509766" xlink:href="#DejaVuSans-76"/>
      <use x="306.689453" xlink:href="#DejaVuSans-65"/>
      <use x="368.212891" xlink:href="#DejaVuSans-73"/>
      <use x="420.3125" xlink:href="#DejaVuSans-74"/>
     </g>
    </g>
   </g>
  </g>
 </g>
 <defs>
  <clipPath id="p649a1a5e7d">
   <rect height="439.6392" width="714.24" x="115.2" y="68.5152"/>
  </clipPath>
 </defs>
</svg>
