<?xml version="1.0" encoding="utf-8" standalone="no"?>
<!DOCTYPE svg PUBLIC "-//W3C//DTD SVG 1.1//EN"
  "http://www.w3.org/Graphics/SVG/1.1/DTD/svg11.dtd">
<svg height="570.96pt" version="1.1" viewBox="0 0 921.6 570.96" width="921.6pt" xmlns="http://www.w3.org/2000/svg" xmlns:xlink="http://www.w3.org/1999/xlink">
 <metadata>
  <rdf:RDF xmlns:cc="http://creativecommons.org/ns#" xmlns:dc="http://purl.org/dc/elements/1.1/" xmlns:rdf="http://www.w3.org/1999/02/22-rdf-syntax-ns#">
   <cc:Work>
    <dc:type rdf:resource="http://purl.org/dc/dcmitype/StillImage"/>
    <dc:date>2024-06-19T10:09:53.722378</dc:date>
    <dc:format>image/svg+xml</dc:format>
    <dc:creator>
     <cc:Agent>
      <dc:title>Matplotlib v3.4.3, https://matplotlib.org/</dc:title>
     </cc:Agent>
    </dc:creator>
   </cc:Work>
  </rdf:RDF>
 </metadata>
 <defs>
  <style type="text/css">*{stroke-linecap:butt;stroke-linejoin:round;}</style>
 </defs>
 <g id="figure_1">
  <g id="patch_1">
   <path d="M 0 570.96 
L 921.6 570.96 
L 921.6 0 
L 0 0 
z
" style="fill:#ffffff;"/>
  </g>
  <g id="axes_1">
   <g id="patch_2">
    <path d="M 54.016 526.26652 
L 912.96 526.26652 
L 912.96 28.395744 
L 54.016 28.395744 
z
" style="fill:#ffffff;"/>
   </g>
   <g id="PathCollection_1">
    <path clip-path="url(#pc401d9bea6)" d="M 102.819636 348.078114 
L 96.695912 360.325563 
L 108.943361 360.325563 
z
" style="fill:#0000ff;stroke:#0000ff;"/>
    <path clip-path="url(#pc401d9bea6)" d="M 122.341091 167.116583 
L 116.217367 179.364032 
L 128.464815 179.364032 
z
" style="fill:#0000ff;stroke:#0000ff;"/>
    <path clip-path="url(#pc401d9bea6)" d="M 141.862545 92.492338 
L 135.738821 104.739787 
L 147.98627 104.739787 
z
" style="fill:#0000ff;stroke:#0000ff;"/>
    <path clip-path="url(#pc401d9bea6)" d="M 161.384 70.240434 
L 155.260276 82.487883 
L 167.507724 82.487883 
z
" style="fill:#0000ff;stroke:#0000ff;"/>
    <path clip-path="url(#pc401d9bea6)" d="M 180.905455 60.362786 
L 174.78173 72.610235 
L 187.029179 72.610235 
z
" style="fill:#0000ff;stroke:#0000ff;"/>
    <path clip-path="url(#pc401d9bea6)" d="M 200.426909 54.418014 
L 194.303185 66.665463 
L 206.550633 66.665463 
z
" style="fill:#0000ff;stroke:#0000ff;"/>
    <path clip-path="url(#pc401d9bea6)" d="M 219.948364 267.966983 
L 226.072088 255.719535 
L 213.824639 255.719535 
z
" style="fill:#ff0000;stroke:#ff0000;"/>
    <path clip-path="url(#pc401d9bea6)" d="M 239.469818 318.454987 
L 233.346094 330.702435 
L 245.593543 330.702435 
z
" style="fill:#0000ff;stroke:#0000ff;"/>
    <path clip-path="url(#pc401d9bea6)" d="M 258.991273 336.98361 
L 265.114997 324.736161 
L 252.867548 324.736161 
z
" style="fill:#ff0000;stroke:#ff0000;"/>
    <path clip-path="url(#pc401d9bea6)" d="M 278.512727 341.11951 
L 272.389003 353.366959 
L 284.636452 353.366959 
z
" style="fill:#0000ff;stroke:#0000ff;"/>
    <path clip-path="url(#pc401d9bea6)" d="M 298.034182 152.411317 
L 291.910457 164.658765 
L 304.157906 164.658765 
z
" style="fill:#0000ff;stroke:#0000ff;"/>
    <path clip-path="url(#pc401d9bea6)" d="M 317.555636 83.05807 
L 311.431912 95.305518 
L 323.679361 95.305518 
z
" style="fill:#0000ff;stroke:#0000ff;"/>
    <path clip-path="url(#pc401d9bea6)" d="M 337.077091 68.611442 
L 330.953367 80.85889 
L 343.200815 80.85889 
z
" style="fill:#0000ff;stroke:#0000ff;"/>
    <path clip-path="url(#pc401d9bea6)" d="M 356.598545 64.103686 
L 350.474821 76.351134 
L 362.72227 76.351134 
z
" style="fill:#0000ff;stroke:#0000ff;"/>
    <path clip-path="url(#pc401d9bea6)" d="M 376.12 61.354062 
L 369.996276 73.601511 
L 382.243724 73.601511 
z
" style="fill:#0000ff;stroke:#0000ff;"/>
    <path clip-path="url(#pc401d9bea6)" d="M 395.641455 59.126178 
L 389.51773 71.373627 
L 401.765179 71.373627 
z
" style="fill:#0000ff;stroke:#0000ff;"/>
    <path clip-path="url(#pc401d9bea6)" d="M 415.162909 57.199795 
L 409.039185 69.447244 
L 421.286633 69.447244 
z
" style="fill:#0000ff;stroke:#0000ff;"/>
    <path clip-path="url(#pc401d9bea6)" d="M 434.684364 55.504906 
L 428.560639 67.752355 
L 440.808088 67.752355 
z
" style="fill:#0000ff;stroke:#0000ff;"/>
    <path clip-path="url(#pc401d9bea6)" d="M 454.205818 243.886529 
L 460.329543 231.639081 
L 448.082094 231.639081 
z
" style="fill:#ff0000;stroke:#ff0000;"/>
    <path clip-path="url(#pc401d9bea6)" d="M 473.727273 366.358582 
L 467.603548 378.60603 
L 479.850997 378.60603 
z
" style="fill:#0000ff;stroke:#0000ff;"/>
    <path clip-path="url(#pc401d9bea6)" d="M 493.248727 420.538161 
L 499.372452 408.290713 
L 487.125003 408.290713 
z
" style="fill:#ff0000;stroke:#ff0000;"/>
    <path clip-path="url(#pc401d9bea6)" d="M 512.770182 513.866465 
L 518.893906 501.619016 
L 506.646457 501.619016 
z
" style="fill:#ff0000;stroke:#ff0000;"/>
    <path clip-path="url(#pc401d9bea6)" d="M 532.291636 524.463666 
L 538.415361 512.216217 
L 526.167912 512.216217 
z
" style="fill:#ff0000;stroke:#ff0000;"/>
    <path clip-path="url(#pc401d9bea6)" d="M 551.813091 526.498472 
L 557.936815 514.251023 
L 545.689367 514.251023 
z
" style="fill:#ff0000;stroke:#ff0000;"/>
    <path clip-path="url(#pc401d9bea6)" d="M 571.334545 527.550318 
L 577.45827 515.30287 
L 565.210821 515.30287 
z
" style="fill:#ff0000;stroke:#ff0000;"/>
    <path clip-path="url(#pc401d9bea6)" d="M 590.856 528.299483 
L 596.979724 516.052034 
L 584.732276 516.052034 
z
" style="fill:#ff0000;stroke:#ff0000;"/>
    <path clip-path="url(#pc401d9bea6)" d="M 607.315592 498.938162 
L 610.377455 495.8763 
L 613.439317 498.938162 
L 616.501179 495.8763 
L 613.439317 492.814438 
L 616.501179 489.752576 
L 613.439317 486.690713 
L 610.377455 489.752576 
L 607.315592 486.690713 
L 604.25373 489.752576 
L 607.315592 492.814438 
L 604.25373 495.8763 
z
" style="stroke:#000000;"/>
    <path clip-path="url(#pc401d9bea6)" d="M 629.898909 318.364623 
L 623.775185 330.612072 
L 636.022633 330.612072 
z
" style="fill:#0000ff;stroke:#0000ff;"/>
    <path clip-path="url(#pc401d9bea6)" d="M 649.420364 127.299727 
L 643.296639 139.547176 
L 655.544088 139.547176 
z
" style="fill:#0000ff;stroke:#0000ff;"/>
    <path clip-path="url(#pc401d9bea6)" d="M 668.941818 258.855112 
L 675.065543 246.607664 
L 662.818094 246.607664 
z
" style="fill:#ff0000;stroke:#ff0000;"/>
    <path clip-path="url(#pc401d9bea6)" d="M 688.463273 474.05482 
L 694.586997 461.807371 
L 682.339548 461.807371 
z
" style="fill:#ff0000;stroke:#ff0000;"/>
    <path clip-path="url(#pc401d9bea6)" d="M 704.922865 486.561531 
L 707.984727 483.499669 
L 711.046589 486.561531 
L 714.108452 483.499669 
L 711.046589 480.437807 
L 714.108452 477.375945 
L 711.046589 474.314082 
L 707.984727 477.375945 
L 704.922865 474.314082 
L 701.861003 477.375945 
L 704.922865 480.437807 
L 701.861003 483.499669 
z
" style="stroke:#000000;"/>
    <path clip-path="url(#pc401d9bea6)" d="M 727.506182 488.281417 
L 733.629906 476.033969 
L 721.382457 476.033969 
z
" style="fill:#ff0000;stroke:#ff0000;"/>
    <path clip-path="url(#pc401d9bea6)" d="M 743.965774 491.097635 
L 747.027636 488.035773 
L 750.089499 491.097635 
L 753.151361 488.035773 
L 750.089499 484.973911 
L 753.151361 481.912049 
L 750.089499 478.850187 
L 747.027636 481.912049 
L 743.965774 478.850187 
L 740.903912 481.912049 
L 743.965774 484.973911 
L 740.903912 488.035773 
z
" style="stroke:#000000;"/>
    <path clip-path="url(#pc401d9bea6)" d="M 766.549091 491.540999 
L 772.672815 479.29355 
L 760.425367 479.29355 
z
" style="fill:#ff0000;stroke:#ff0000;"/>
    <path clip-path="url(#pc401d9bea6)" d="M 783.008683 493.067085 
L 786.070545 490.005223 
L 789.132408 493.067085 
L 792.19427 490.005223 
L 789.132408 486.943361 
L 792.19427 483.881498 
L 789.132408 480.819636 
L 786.070545 483.881498 
L 783.008683 480.819636 
L 779.946821 483.881498 
L 783.008683 486.943361 
L 779.946821 490.005223 
z
" style="stroke:#000000;"/>
    <path clip-path="url(#pc401d9bea6)" d="M 805.592 493.37033 
L 811.715724 481.122881 
L 799.468276 481.122881 
z
" style="fill:#ff0000;stroke:#ff0000;"/>
    <path clip-path="url(#pc401d9bea6)" d="M 822.051592 494.652422 
L 825.113455 491.59056 
L 828.175317 494.652422 
L 831.237179 491.59056 
L 828.175317 488.528698 
L 831.237179 485.466836 
L 828.175317 482.404973 
L 825.113455 485.466836 
L 822.051592 482.404973 
L 818.98973 485.466836 
L 822.051592 488.528698 
L 818.98973 491.59056 
z
" style="stroke:#000000;"/>
    <path clip-path="url(#pc401d9bea6)" d="M 844.634909 494.909208 
L 850.758633 482.661759 
L 838.511185 482.661759 
z
" style="fill:#ff0000;stroke:#ff0000;"/>
    <path clip-path="url(#pc401d9bea6)" d="M 861.094501 283.454856 
L 864.156364 280.392994 
L 867.218226 283.454856 
L 870.280088 280.392994 
L 867.218226 277.331132 
L 870.280088 274.26927 
L 867.218226 271.207408 
L 864.156364 274.26927 
L 861.094501 271.207408 
L 858.032639 274.26927 
L 861.094501 277.331132 
L 858.032639 280.392994 
z
" style="stroke:#000000;"/>
   </g>
   <g id="patch_3">
    <path clip-path="url(#pc401d9bea6)" d="M 93.058909 526.26652 
L 93.058909 28.395744 
L 483.488 28.395744 
L 483.488 526.26652 
z
" style="fill:#b0e0e6;opacity:0.3;"/>
   </g>
   <g id="patch_4">
    <path clip-path="url(#pc401d9bea6)" d="M 483.488 526.26652 
L 483.488 28.395744 
L 873.917091 28.395744 
L 873.917091 526.26652 
z
" style="fill:#ff7f50;opacity:0.3;"/>
   </g>
   <g id="matplotlib.axis_1">
    <g id="xtick_1">
     <g id="line2d_1">
      <defs>
       <path d="M 0 0 
L 0 3.5 
" id="mfc5b3d5174" style="stroke:#000000;stroke-width:0.8;"/>
      </defs>
      <g>
       <use style="stroke:#000000;stroke-width:0.8;" x="93.058909" xlink:href="#mfc5b3d5174" y="526.26652"/>
      </g>
     </g>
     <g id="text_1">
      <!-- 0 -->
      <g transform="translate(88.287034 544.664176)scale(0.15 -0.15)">
       <defs>
        <path d="M 2034 4250 
Q 1547 4250 1301 3770 
Q 1056 3291 1056 2328 
Q 1056 1369 1301 889 
Q 1547 409 2034 409 
Q 2525 409 2770 889 
Q 3016 1369 3016 2328 
Q 3016 3291 2770 3770 
Q 2525 4250 2034 4250 
z
M 2034 4750 
Q 2819 4750 3233 4129 
Q 3647 3509 3647 2328 
Q 3647 1150 3233 529 
Q 2819 -91 2034 -91 
Q 1250 -91 836 529 
Q 422 1150 422 2328 
Q 422 3509 836 4129 
Q 1250 4750 2034 4750 
z
" id="DejaVuSans-30" transform="scale(0.015625)"/>
       </defs>
       <use xlink:href="#DejaVuSans-30"/>
      </g>
     </g>
    </g>
    <g id="xtick_2">
     <g id="line2d_2">
      <g>
       <use style="stroke:#000000;stroke-width:0.8;" x="112.580364" xlink:href="#mfc5b3d5174" y="526.26652"/>
      </g>
     </g>
     <g id="text_2">
      <!-- 1 -->
      <g transform="translate(107.808489 544.664176)scale(0.15 -0.15)">
       <defs>
        <path d="M 794 531 
L 1825 531 
L 1825 4091 
L 703 3866 
L 703 4441 
L 1819 4666 
L 2450 4666 
L 2450 531 
L 3481 531 
L 3481 0 
L 794 0 
L 794 531 
z
" id="DejaVuSans-31" transform="scale(0.015625)"/>
       </defs>
       <use xlink:href="#DejaVuSans-31"/>
      </g>
     </g>
    </g>
    <g id="xtick_3">
     <g id="line2d_3">
      <g>
       <use style="stroke:#000000;stroke-width:0.8;" x="132.101818" xlink:href="#mfc5b3d5174" y="526.26652"/>
      </g>
     </g>
     <g id="text_3">
      <!-- 2 -->
      <g transform="translate(127.329943 544.664176)scale(0.15 -0.15)">
       <defs>
        <path d="M 1228 531 
L 3431 531 
L 3431 0 
L 469 0 
L 469 531 
Q 828 903 1448 1529 
Q 2069 2156 2228 2338 
Q 2531 2678 2651 2914 
Q 2772 3150 2772 3378 
Q 2772 3750 2511 3984 
Q 2250 4219 1831 4219 
Q 1534 4219 1204 4116 
Q 875 4013 500 3803 
L 500 4441 
Q 881 4594 1212 4672 
Q 1544 4750 1819 4750 
Q 2544 4750 2975 4387 
Q 3406 4025 3406 3419 
Q 3406 3131 3298 2873 
Q 3191 2616 2906 2266 
Q 2828 2175 2409 1742 
Q 1991 1309 1228 531 
z
" id="DejaVuSans-32" transform="scale(0.015625)"/>
       </defs>
       <use xlink:href="#DejaVuSans-32"/>
      </g>
     </g>
    </g>
    <g id="xtick_4">
     <g id="line2d_4">
      <g>
       <use style="stroke:#000000;stroke-width:0.8;" x="151.623273" xlink:href="#mfc5b3d5174" y="526.26652"/>
      </g>
     </g>
     <g id="text_4">
      <!-- 3 -->
      <g transform="translate(146.851398 544.664176)scale(0.15 -0.15)">
       <defs>
        <path d="M 2597 2516 
Q 3050 2419 3304 2112 
Q 3559 1806 3559 1356 
Q 3559 666 3084 287 
Q 2609 -91 1734 -91 
Q 1441 -91 1130 -33 
Q 819 25 488 141 
L 488 750 
Q 750 597 1062 519 
Q 1375 441 1716 441 
Q 2309 441 2620 675 
Q 2931 909 2931 1356 
Q 2931 1769 2642 2001 
Q 2353 2234 1838 2234 
L 1294 2234 
L 1294 2753 
L 1863 2753 
Q 2328 2753 2575 2939 
Q 2822 3125 2822 3475 
Q 2822 3834 2567 4026 
Q 2313 4219 1838 4219 
Q 1578 4219 1281 4162 
Q 984 4106 628 3988 
L 628 4550 
Q 988 4650 1302 4700 
Q 1616 4750 1894 4750 
Q 2613 4750 3031 4423 
Q 3450 4097 3450 3541 
Q 3450 3153 3228 2886 
Q 3006 2619 2597 2516 
z
" id="DejaVuSans-33" transform="scale(0.015625)"/>
       </defs>
       <use xlink:href="#DejaVuSans-33"/>
      </g>
     </g>
    </g>
    <g id="xtick_5">
     <g id="line2d_5">
      <g>
       <use style="stroke:#000000;stroke-width:0.8;" x="171.144727" xlink:href="#mfc5b3d5174" y="526.26652"/>
      </g>
     </g>
     <g id="text_5">
      <!-- 4 -->
      <g transform="translate(166.372852 544.664176)scale(0.15 -0.15)">
       <defs>
        <path d="M 2419 4116 
L 825 1625 
L 2419 1625 
L 2419 4116 
z
M 2253 4666 
L 3047 4666 
L 3047 1625 
L 3713 1625 
L 3713 1100 
L 3047 1100 
L 3047 0 
L 2419 0 
L 2419 1100 
L 313 1100 
L 313 1709 
L 2253 4666 
z
" id="DejaVuSans-34" transform="scale(0.015625)"/>
       </defs>
       <use xlink:href="#DejaVuSans-34"/>
      </g>
     </g>
    </g>
    <g id="xtick_6">
     <g id="line2d_6">
      <g>
       <use style="stroke:#000000;stroke-width:0.8;" x="190.666182" xlink:href="#mfc5b3d5174" y="526.26652"/>
      </g>
     </g>
     <g id="text_6">
      <!-- 5 -->
      <g transform="translate(185.894307 544.664176)scale(0.15 -0.15)">
       <defs>
        <path d="M 691 4666 
L 3169 4666 
L 3169 4134 
L 1269 4134 
L 1269 2991 
Q 1406 3038 1543 3061 
Q 1681 3084 1819 3084 
Q 2600 3084 3056 2656 
Q 3513 2228 3513 1497 
Q 3513 744 3044 326 
Q 2575 -91 1722 -91 
Q 1428 -91 1123 -41 
Q 819 9 494 109 
L 494 744 
Q 775 591 1075 516 
Q 1375 441 1709 441 
Q 2250 441 2565 725 
Q 2881 1009 2881 1497 
Q 2881 1984 2565 2268 
Q 2250 2553 1709 2553 
Q 1456 2553 1204 2497 
Q 953 2441 691 2322 
L 691 4666 
z
" id="DejaVuSans-35" transform="scale(0.015625)"/>
       </defs>
       <use xlink:href="#DejaVuSans-35"/>
      </g>
     </g>
    </g>
    <g id="xtick_7">
     <g id="line2d_7">
      <g>
       <use style="stroke:#000000;stroke-width:0.8;" x="210.187636" xlink:href="#mfc5b3d5174" y="526.26652"/>
      </g>
     </g>
     <g id="text_7">
      <!-- 6 -->
      <g transform="translate(205.415761 544.664176)scale(0.15 -0.15)">
       <defs>
        <path d="M 2113 2584 
Q 1688 2584 1439 2293 
Q 1191 2003 1191 1497 
Q 1191 994 1439 701 
Q 1688 409 2113 409 
Q 2538 409 2786 701 
Q 3034 994 3034 1497 
Q 3034 2003 2786 2293 
Q 2538 2584 2113 2584 
z
M 3366 4563 
L 3366 3988 
Q 3128 4100 2886 4159 
Q 2644 4219 2406 4219 
Q 1781 4219 1451 3797 
Q 1122 3375 1075 2522 
Q 1259 2794 1537 2939 
Q 1816 3084 2150 3084 
Q 2853 3084 3261 2657 
Q 3669 2231 3669 1497 
Q 3669 778 3244 343 
Q 2819 -91 2113 -91 
Q 1303 -91 875 529 
Q 447 1150 447 2328 
Q 447 3434 972 4092 
Q 1497 4750 2381 4750 
Q 2619 4750 2861 4703 
Q 3103 4656 3366 4563 
z
" id="DejaVuSans-36" transform="scale(0.015625)"/>
       </defs>
       <use xlink:href="#DejaVuSans-36"/>
      </g>
     </g>
    </g>
    <g id="xtick_8">
     <g id="line2d_8">
      <g>
       <use style="stroke:#000000;stroke-width:0.8;" x="229.709091" xlink:href="#mfc5b3d5174" y="526.26652"/>
      </g>
     </g>
     <g id="text_8">
      <!-- 7 -->
      <g transform="translate(224.937216 544.664176)scale(0.15 -0.15)">
       <defs>
        <path d="M 525 4666 
L 3525 4666 
L 3525 4397 
L 1831 0 
L 1172 0 
L 2766 4134 
L 525 4134 
L 525 4666 
z
" id="DejaVuSans-37" transform="scale(0.015625)"/>
       </defs>
       <use xlink:href="#DejaVuSans-37"/>
      </g>
     </g>
    </g>
    <g id="xtick_9">
     <g id="line2d_9">
      <g>
       <use style="stroke:#000000;stroke-width:0.8;" x="249.230545" xlink:href="#mfc5b3d5174" y="526.26652"/>
      </g>
     </g>
     <g id="text_9">
      <!-- 8 -->
      <g transform="translate(244.45867 544.664176)scale(0.15 -0.15)">
       <defs>
        <path d="M 2034 2216 
Q 1584 2216 1326 1975 
Q 1069 1734 1069 1313 
Q 1069 891 1326 650 
Q 1584 409 2034 409 
Q 2484 409 2743 651 
Q 3003 894 3003 1313 
Q 3003 1734 2745 1975 
Q 2488 2216 2034 2216 
z
M 1403 2484 
Q 997 2584 770 2862 
Q 544 3141 544 3541 
Q 544 4100 942 4425 
Q 1341 4750 2034 4750 
Q 2731 4750 3128 4425 
Q 3525 4100 3525 3541 
Q 3525 3141 3298 2862 
Q 3072 2584 2669 2484 
Q 3125 2378 3379 2068 
Q 3634 1759 3634 1313 
Q 3634 634 3220 271 
Q 2806 -91 2034 -91 
Q 1263 -91 848 271 
Q 434 634 434 1313 
Q 434 1759 690 2068 
Q 947 2378 1403 2484 
z
M 1172 3481 
Q 1172 3119 1398 2916 
Q 1625 2713 2034 2713 
Q 2441 2713 2670 2916 
Q 2900 3119 2900 3481 
Q 2900 3844 2670 4047 
Q 2441 4250 2034 4250 
Q 1625 4250 1398 4047 
Q 1172 3844 1172 3481 
z
" id="DejaVuSans-38" transform="scale(0.015625)"/>
       </defs>
       <use xlink:href="#DejaVuSans-38"/>
      </g>
     </g>
    </g>
    <g id="xtick_10">
     <g id="line2d_10">
      <g>
       <use style="stroke:#000000;stroke-width:0.8;" x="268.752" xlink:href="#mfc5b3d5174" y="526.26652"/>
      </g>
     </g>
     <g id="text_10">
      <!-- 9 -->
      <g transform="translate(263.980125 544.664176)scale(0.15 -0.15)">
       <defs>
        <path d="M 703 97 
L 703 672 
Q 941 559 1184 500 
Q 1428 441 1663 441 
Q 2288 441 2617 861 
Q 2947 1281 2994 2138 
Q 2813 1869 2534 1725 
Q 2256 1581 1919 1581 
Q 1219 1581 811 2004 
Q 403 2428 403 3163 
Q 403 3881 828 4315 
Q 1253 4750 1959 4750 
Q 2769 4750 3195 4129 
Q 3622 3509 3622 2328 
Q 3622 1225 3098 567 
Q 2575 -91 1691 -91 
Q 1453 -91 1209 -44 
Q 966 3 703 97 
z
M 1959 2075 
Q 2384 2075 2632 2365 
Q 2881 2656 2881 3163 
Q 2881 3666 2632 3958 
Q 2384 4250 1959 4250 
Q 1534 4250 1286 3958 
Q 1038 3666 1038 3163 
Q 1038 2656 1286 2365 
Q 1534 2075 1959 2075 
z
" id="DejaVuSans-39" transform="scale(0.015625)"/>
       </defs>
       <use xlink:href="#DejaVuSans-39"/>
      </g>
     </g>
    </g>
    <g id="xtick_11">
     <g id="line2d_11">
      <g>
       <use style="stroke:#000000;stroke-width:0.8;" x="288.273455" xlink:href="#mfc5b3d5174" y="526.26652"/>
      </g>
     </g>
     <g id="text_11">
      <!-- 10 -->
      <g transform="translate(278.729705 544.664176)scale(0.15 -0.15)">
       <use xlink:href="#DejaVuSans-31"/>
       <use x="63.623047" xlink:href="#DejaVuSans-30"/>
      </g>
     </g>
    </g>
    <g id="xtick_12">
     <g id="line2d_12">
      <g>
       <use style="stroke:#000000;stroke-width:0.8;" x="307.794909" xlink:href="#mfc5b3d5174" y="526.26652"/>
      </g>
     </g>
     <g id="text_12">
      <!-- 11 -->
      <g transform="translate(298.251159 544.664176)scale(0.15 -0.15)">
       <use xlink:href="#DejaVuSans-31"/>
       <use x="63.623047" xlink:href="#DejaVuSans-31"/>
      </g>
     </g>
    </g>
    <g id="xtick_13">
     <g id="line2d_13">
      <g>
       <use style="stroke:#000000;stroke-width:0.8;" x="327.316364" xlink:href="#mfc5b3d5174" y="526.26652"/>
      </g>
     </g>
     <g id="text_13">
      <!-- 12 -->
      <g transform="translate(317.772614 544.664176)scale(0.15 -0.15)">
       <use xlink:href="#DejaVuSans-31"/>
       <use x="63.623047" xlink:href="#DejaVuSans-32"/>
      </g>
     </g>
    </g>
    <g id="xtick_14">
     <g id="line2d_14">
      <g>
       <use style="stroke:#000000;stroke-width:0.8;" x="346.837818" xlink:href="#mfc5b3d5174" y="526.26652"/>
      </g>
     </g>
     <g id="text_14">
      <!-- 13 -->
      <g transform="translate(337.294068 544.664176)scale(0.15 -0.15)">
       <use xlink:href="#DejaVuSans-31"/>
       <use x="63.623047" xlink:href="#DejaVuSans-33"/>
      </g>
     </g>
    </g>
    <g id="xtick_15">
     <g id="line2d_15">
      <g>
       <use style="stroke:#000000;stroke-width:0.8;" x="366.359273" xlink:href="#mfc5b3d5174" y="526.26652"/>
      </g>
     </g>
     <g id="text_15">
      <!-- 14 -->
      <g transform="translate(356.815523 544.664176)scale(0.15 -0.15)">
       <use xlink:href="#DejaVuSans-31"/>
       <use x="63.623047" xlink:href="#DejaVuSans-34"/>
      </g>
     </g>
    </g>
    <g id="xtick_16">
     <g id="line2d_16">
      <g>
       <use style="stroke:#000000;stroke-width:0.8;" x="385.880727" xlink:href="#mfc5b3d5174" y="526.26652"/>
      </g>
     </g>
     <g id="text_16">
      <!-- 15 -->
      <g transform="translate(376.336977 544.664176)scale(0.15 -0.15)">
       <use xlink:href="#DejaVuSans-31"/>
       <use x="63.623047" xlink:href="#DejaVuSans-35"/>
      </g>
     </g>
    </g>
    <g id="xtick_17">
     <g id="line2d_17">
      <g>
       <use style="stroke:#000000;stroke-width:0.8;" x="405.402182" xlink:href="#mfc5b3d5174" y="526.26652"/>
      </g>
     </g>
     <g id="text_17">
      <!-- 16 -->
      <g transform="translate(395.858432 544.664176)scale(0.15 -0.15)">
       <use xlink:href="#DejaVuSans-31"/>
       <use x="63.623047" xlink:href="#DejaVuSans-36"/>
      </g>
     </g>
    </g>
    <g id="xtick_18">
     <g id="line2d_18">
      <g>
       <use style="stroke:#000000;stroke-width:0.8;" x="424.923636" xlink:href="#mfc5b3d5174" y="526.26652"/>
      </g>
     </g>
     <g id="text_18">
      <!-- 17 -->
      <g transform="translate(415.379886 544.664176)scale(0.15 -0.15)">
       <use xlink:href="#DejaVuSans-31"/>
       <use x="63.623047" xlink:href="#DejaVuSans-37"/>
      </g>
     </g>
    </g>
    <g id="xtick_19">
     <g id="line2d_19">
      <g>
       <use style="stroke:#000000;stroke-width:0.8;" x="444.445091" xlink:href="#mfc5b3d5174" y="526.26652"/>
      </g>
     </g>
     <g id="text_19">
      <!-- 18 -->
      <g transform="translate(434.901341 544.664176)scale(0.15 -0.15)">
       <use xlink:href="#DejaVuSans-31"/>
       <use x="63.623047" xlink:href="#DejaVuSans-38"/>
      </g>
     </g>
    </g>
    <g id="xtick_20">
     <g id="line2d_20">
      <g>
       <use style="stroke:#000000;stroke-width:0.8;" x="463.966545" xlink:href="#mfc5b3d5174" y="526.26652"/>
      </g>
     </g>
     <g id="text_20">
      <!-- 19 -->
      <g transform="translate(454.422795 544.664176)scale(0.15 -0.15)">
       <use xlink:href="#DejaVuSans-31"/>
       <use x="63.623047" xlink:href="#DejaVuSans-39"/>
      </g>
     </g>
    </g>
    <g id="xtick_21">
     <g id="line2d_21">
      <g>
       <use style="stroke:#000000;stroke-width:0.8;" x="483.488" xlink:href="#mfc5b3d5174" y="526.26652"/>
      </g>
     </g>
     <g id="text_21">
      <!-- 20 -->
      <g transform="translate(473.94425 544.664176)scale(0.15 -0.15)">
       <use xlink:href="#DejaVuSans-32"/>
       <use x="63.623047" xlink:href="#DejaVuSans-30"/>
      </g>
     </g>
    </g>
    <g id="xtick_22">
     <g id="line2d_22">
      <g>
       <use style="stroke:#000000;stroke-width:0.8;" x="503.009455" xlink:href="#mfc5b3d5174" y="526.26652"/>
      </g>
     </g>
     <g id="text_22">
      <!-- 21 -->
      <g transform="translate(493.465705 544.664176)scale(0.15 -0.15)">
       <use xlink:href="#DejaVuSans-32"/>
       <use x="63.623047" xlink:href="#DejaVuSans-31"/>
      </g>
     </g>
    </g>
    <g id="xtick_23">
     <g id="line2d_23">
      <g>
       <use style="stroke:#000000;stroke-width:0.8;" x="522.530909" xlink:href="#mfc5b3d5174" y="526.26652"/>
      </g>
     </g>
     <g id="text_23">
      <!-- 22 -->
      <g transform="translate(512.987159 544.664176)scale(0.15 -0.15)">
       <use xlink:href="#DejaVuSans-32"/>
       <use x="63.623047" xlink:href="#DejaVuSans-32"/>
      </g>
     </g>
    </g>
    <g id="xtick_24">
     <g id="line2d_24">
      <g>
       <use style="stroke:#000000;stroke-width:0.8;" x="542.052364" xlink:href="#mfc5b3d5174" y="526.26652"/>
      </g>
     </g>
     <g id="text_24">
      <!-- 23 -->
      <g transform="translate(532.508614 544.664176)scale(0.15 -0.15)">
       <use xlink:href="#DejaVuSans-32"/>
       <use x="63.623047" xlink:href="#DejaVuSans-33"/>
      </g>
     </g>
    </g>
    <g id="xtick_25">
     <g id="line2d_25">
      <g>
       <use style="stroke:#000000;stroke-width:0.8;" x="561.573818" xlink:href="#mfc5b3d5174" y="526.26652"/>
      </g>
     </g>
     <g id="text_25">
      <!-- 24 -->
      <g transform="translate(552.030068 544.664176)scale(0.15 -0.15)">
       <use xlink:href="#DejaVuSans-32"/>
       <use x="63.623047" xlink:href="#DejaVuSans-34"/>
      </g>
     </g>
    </g>
    <g id="xtick_26">
     <g id="line2d_26">
      <g>
       <use style="stroke:#000000;stroke-width:0.8;" x="581.095273" xlink:href="#mfc5b3d5174" y="526.26652"/>
      </g>
     </g>
     <g id="text_26">
      <!-- 25 -->
      <g transform="translate(571.551523 544.664176)scale(0.15 -0.15)">
       <use xlink:href="#DejaVuSans-32"/>
       <use x="63.623047" xlink:href="#DejaVuSans-35"/>
      </g>
     </g>
    </g>
    <g id="xtick_27">
     <g id="line2d_27">
      <g>
       <use style="stroke:#000000;stroke-width:0.8;" x="600.616727" xlink:href="#mfc5b3d5174" y="526.26652"/>
      </g>
     </g>
     <g id="text_27">
      <!-- 26 -->
      <g transform="translate(591.072977 544.664176)scale(0.15 -0.15)">
       <use xlink:href="#DejaVuSans-32"/>
       <use x="63.623047" xlink:href="#DejaVuSans-36"/>
      </g>
     </g>
    </g>
    <g id="xtick_28">
     <g id="line2d_28">
      <g>
       <use style="stroke:#000000;stroke-width:0.8;" x="620.138182" xlink:href="#mfc5b3d5174" y="526.26652"/>
      </g>
     </g>
     <g id="text_28">
      <!-- 27 -->
      <g transform="translate(610.594432 544.664176)scale(0.15 -0.15)">
       <use xlink:href="#DejaVuSans-32"/>
       <use x="63.623047" xlink:href="#DejaVuSans-37"/>
      </g>
     </g>
    </g>
    <g id="xtick_29">
     <g id="line2d_29">
      <g>
       <use style="stroke:#000000;stroke-width:0.8;" x="639.659636" xlink:href="#mfc5b3d5174" y="526.26652"/>
      </g>
     </g>
     <g id="text_29">
      <!-- 28 -->
      <g transform="translate(630.115886 544.664176)scale(0.15 -0.15)">
       <use xlink:href="#DejaVuSans-32"/>
       <use x="63.623047" xlink:href="#DejaVuSans-38"/>
      </g>
     </g>
    </g>
    <g id="xtick_30">
     <g id="line2d_30">
      <g>
       <use style="stroke:#000000;stroke-width:0.8;" x="659.181091" xlink:href="#mfc5b3d5174" y="526.26652"/>
      </g>
     </g>
     <g id="text_30">
      <!-- 29 -->
      <g transform="translate(649.637341 544.664176)scale(0.15 -0.15)">
       <use xlink:href="#DejaVuSans-32"/>
       <use x="63.623047" xlink:href="#DejaVuSans-39"/>
      </g>
     </g>
    </g>
    <g id="xtick_31">
     <g id="line2d_31">
      <g>
       <use style="stroke:#000000;stroke-width:0.8;" x="678.702545" xlink:href="#mfc5b3d5174" y="526.26652"/>
      </g>
     </g>
     <g id="text_31">
      <!-- 30 -->
      <g transform="translate(669.158795 544.664176)scale(0.15 -0.15)">
       <use xlink:href="#DejaVuSans-33"/>
       <use x="63.623047" xlink:href="#DejaVuSans-30"/>
      </g>
     </g>
    </g>
    <g id="xtick_32">
     <g id="line2d_32">
      <g>
       <use style="stroke:#000000;stroke-width:0.8;" x="698.224" xlink:href="#mfc5b3d5174" y="526.26652"/>
      </g>
     </g>
     <g id="text_32">
      <!-- 31 -->
      <g transform="translate(688.68025 544.664176)scale(0.15 -0.15)">
       <use xlink:href="#DejaVuSans-33"/>
       <use x="63.623047" xlink:href="#DejaVuSans-31"/>
      </g>
     </g>
    </g>
    <g id="xtick_33">
     <g id="line2d_33">
      <g>
       <use style="stroke:#000000;stroke-width:0.8;" x="717.745455" xlink:href="#mfc5b3d5174" y="526.26652"/>
      </g>
     </g>
     <g id="text_33">
      <!-- 32 -->
      <g transform="translate(708.201705 544.664176)scale(0.15 -0.15)">
       <use xlink:href="#DejaVuSans-33"/>
       <use x="63.623047" xlink:href="#DejaVuSans-32"/>
      </g>
     </g>
    </g>
    <g id="xtick_34">
     <g id="line2d_34">
      <g>
       <use style="stroke:#000000;stroke-width:0.8;" x="737.266909" xlink:href="#mfc5b3d5174" y="526.26652"/>
      </g>
     </g>
     <g id="text_34">
      <!-- 33 -->
      <g transform="translate(727.723159 544.664176)scale(0.15 -0.15)">
       <use xlink:href="#DejaVuSans-33"/>
       <use x="63.623047" xlink:href="#DejaVuSans-33"/>
      </g>
     </g>
    </g>
    <g id="xtick_35">
     <g id="line2d_35">
      <g>
       <use style="stroke:#000000;stroke-width:0.8;" x="756.788364" xlink:href="#mfc5b3d5174" y="526.26652"/>
      </g>
     </g>
     <g id="text_35">
      <!-- 34 -->
      <g transform="translate(747.244614 544.664176)scale(0.15 -0.15)">
       <use xlink:href="#DejaVuSans-33"/>
       <use x="63.623047" xlink:href="#DejaVuSans-34"/>
      </g>
     </g>
    </g>
    <g id="xtick_36">
     <g id="line2d_36">
      <g>
       <use style="stroke:#000000;stroke-width:0.8;" x="776.309818" xlink:href="#mfc5b3d5174" y="526.26652"/>
      </g>
     </g>
     <g id="text_36">
      <!-- 35 -->
      <g transform="translate(766.766068 544.664176)scale(0.15 -0.15)">
       <use xlink:href="#DejaVuSans-33"/>
       <use x="63.623047" xlink:href="#DejaVuSans-35"/>
      </g>
     </g>
    </g>
    <g id="xtick_37">
     <g id="line2d_37">
      <g>
       <use style="stroke:#000000;stroke-width:0.8;" x="795.831273" xlink:href="#mfc5b3d5174" y="526.26652"/>
      </g>
     </g>
     <g id="text_37">
      <!-- 36 -->
      <g transform="translate(786.287523 544.664176)scale(0.15 -0.15)">
       <use xlink:href="#DejaVuSans-33"/>
       <use x="63.623047" xlink:href="#DejaVuSans-36"/>
      </g>
     </g>
    </g>
    <g id="xtick_38">
     <g id="line2d_38">
      <g>
       <use style="stroke:#000000;stroke-width:0.8;" x="815.352727" xlink:href="#mfc5b3d5174" y="526.26652"/>
      </g>
     </g>
     <g id="text_38">
      <!-- 37 -->
      <g transform="translate(805.808977 544.664176)scale(0.15 -0.15)">
       <use xlink:href="#DejaVuSans-33"/>
       <use x="63.623047" xlink:href="#DejaVuSans-37"/>
      </g>
     </g>
    </g>
    <g id="xtick_39">
     <g id="line2d_39">
      <g>
       <use style="stroke:#000000;stroke-width:0.8;" x="834.874182" xlink:href="#mfc5b3d5174" y="526.26652"/>
      </g>
     </g>
     <g id="text_39">
      <!-- 38 -->
      <g transform="translate(825.330432 544.664176)scale(0.15 -0.15)">
       <use xlink:href="#DejaVuSans-33"/>
       <use x="63.623047" xlink:href="#DejaVuSans-38"/>
      </g>
     </g>
    </g>
    <g id="xtick_40">
     <g id="line2d_40">
      <g>
       <use style="stroke:#000000;stroke-width:0.8;" x="854.395636" xlink:href="#mfc5b3d5174" y="526.26652"/>
      </g>
     </g>
     <g id="text_40">
      <!-- 39 -->
      <g transform="translate(844.851886 544.664176)scale(0.15 -0.15)">
       <use xlink:href="#DejaVuSans-33"/>
       <use x="63.623047" xlink:href="#DejaVuSans-39"/>
      </g>
     </g>
    </g>
    <g id="text_41">
     <!-- $t$ -->
     <g transform="translate(479.488 566.980583)scale(0.2 -0.2)">
      <defs>
       <path d="M 2706 3500 
L 2619 3053 
L 1472 3053 
L 1100 1153 
Q 1081 1047 1072 975 
Q 1063 903 1063 863 
Q 1063 663 1183 572 
Q 1303 481 1569 481 
L 2150 481 
L 2053 0 
L 1503 0 
Q 991 0 739 200 
Q 488 400 488 806 
Q 488 878 497 964 
Q 506 1050 525 1153 
L 897 3053 
L 409 3053 
L 500 3500 
L 978 3500 
L 1172 4494 
L 1747 4494 
L 1556 3500 
L 2706 3500 
z
" id="DejaVuSans-Oblique-74" transform="scale(0.015625)"/>
      </defs>
      <use transform="translate(0 0.78125)" xlink:href="#DejaVuSans-Oblique-74"/>
     </g>
    </g>
   </g>
   <g id="matplotlib.axis_2">
    <g id="ytick_1">
     <g id="line2d_41">
      <defs>
       <path d="M 0 0 
L -3.5 0 
" id="m301d1203d0" style="stroke:#000000;stroke-width:0.8;"/>
      </defs>
      <g>
       <use style="stroke:#000000;stroke-width:0.8;" x="54.016" xlink:href="#m301d1203d0" y="526.26652"/>
      </g>
     </g>
     <g id="text_42">
      <!-- 0.0 -->
      <g transform="translate(23.161313 531.965348)scale(0.15 -0.15)">
       <defs>
        <path d="M 684 794 
L 1344 794 
L 1344 0 
L 684 0 
L 684 794 
z
" id="DejaVuSans-2e" transform="scale(0.015625)"/>
       </defs>
       <use xlink:href="#DejaVuSans-30"/>
       <use x="63.623047" xlink:href="#DejaVuSans-2e"/>
       <use x="95.410156" xlink:href="#DejaVuSans-30"/>
      </g>
     </g>
    </g>
    <g id="ytick_2">
     <g id="line2d_42">
      <g>
       <use style="stroke:#000000;stroke-width:0.8;" x="54.016" xlink:href="#m301d1203d0" y="426.692365"/>
      </g>
     </g>
     <g id="text_43">
      <!-- 0.2 -->
      <g transform="translate(23.161313 432.391193)scale(0.15 -0.15)">
       <use xlink:href="#DejaVuSans-30"/>
       <use x="63.623047" xlink:href="#DejaVuSans-2e"/>
       <use x="95.410156" xlink:href="#DejaVuSans-32"/>
      </g>
     </g>
    </g>
    <g id="ytick_3">
     <g id="line2d_43">
      <g>
       <use style="stroke:#000000;stroke-width:0.8;" x="54.016" xlink:href="#m301d1203d0" y="327.11821"/>
      </g>
     </g>
     <g id="text_44">
      <!-- 0.4 -->
      <g transform="translate(23.161313 332.817038)scale(0.15 -0.15)">
       <use xlink:href="#DejaVuSans-30"/>
       <use x="63.623047" xlink:href="#DejaVuSans-2e"/>
       <use x="95.410156" xlink:href="#DejaVuSans-34"/>
      </g>
     </g>
    </g>
    <g id="ytick_4">
     <g id="line2d_44">
      <g>
       <use style="stroke:#000000;stroke-width:0.8;" x="54.016" xlink:href="#m301d1203d0" y="227.544054"/>
      </g>
     </g>
     <g id="text_45">
      <!-- 0.6 -->
      <g transform="translate(23.161313 233.242883)scale(0.15 -0.15)">
       <use xlink:href="#DejaVuSans-30"/>
       <use x="63.623047" xlink:href="#DejaVuSans-2e"/>
       <use x="95.410156" xlink:href="#DejaVuSans-36"/>
      </g>
     </g>
    </g>
    <g id="ytick_5">
     <g id="line2d_45">
      <g>
       <use style="stroke:#000000;stroke-width:0.8;" x="54.016" xlink:href="#m301d1203d0" y="127.969899"/>
      </g>
     </g>
     <g id="text_46">
      <!-- 0.8 -->
      <g transform="translate(23.161313 133.668727)scale(0.15 -0.15)">
       <use xlink:href="#DejaVuSans-30"/>
       <use x="63.623047" xlink:href="#DejaVuSans-2e"/>
       <use x="95.410156" xlink:href="#DejaVuSans-38"/>
      </g>
     </g>
    </g>
    <g id="ytick_6">
     <g id="line2d_46">
      <g>
       <use style="stroke:#000000;stroke-width:0.8;" x="54.016" xlink:href="#m301d1203d0" y="28.395744"/>
      </g>
     </g>
     <g id="text_47">
      <!-- 1.0 -->
      <g transform="translate(23.161313 34.094572)scale(0.15 -0.15)">
       <use xlink:href="#DejaVuSans-31"/>
       <use x="63.623047" xlink:href="#DejaVuSans-2e"/>
       <use x="95.410156" xlink:href="#DejaVuSans-30"/>
      </g>
     </g>
    </g>
    <g id="text_48">
     <!-- $p(context)$ -->
     <g transform="translate(14.961313 329.431132)rotate(-90)scale(0.2 -0.2)">
      <defs>
       <path d="M 3175 2156 
Q 3175 2616 2975 2859 
Q 2775 3103 2400 3103 
Q 2144 3103 1911 2972 
Q 1678 2841 1497 2591 
Q 1319 2344 1212 1994 
Q 1106 1644 1106 1300 
Q 1106 863 1306 627 
Q 1506 391 1875 391 
Q 2147 391 2380 519 
Q 2613 647 2778 891 
Q 2956 1147 3065 1494 
Q 3175 1841 3175 2156 
z
M 1394 2969 
Q 1625 3272 1939 3428 
Q 2253 3584 2638 3584 
Q 3175 3584 3472 3232 
Q 3769 2881 3769 2247 
Q 3769 1728 3584 1258 
Q 3400 788 3053 416 
Q 2822 169 2531 39 
Q 2241 -91 1919 -91 
Q 1547 -91 1294 64 
Q 1041 219 916 525 
L 556 -1331 
L -19 -1331 
L 922 3500 
L 1497 3500 
L 1394 2969 
z
" id="DejaVuSans-Oblique-70" transform="scale(0.015625)"/>
       <path d="M 1984 4856 
Q 1566 4138 1362 3434 
Q 1159 2731 1159 2009 
Q 1159 1288 1364 580 
Q 1569 -128 1984 -844 
L 1484 -844 
Q 1016 -109 783 600 
Q 550 1309 550 2009 
Q 550 2706 781 3412 
Q 1013 4119 1484 4856 
L 1984 4856 
z
" id="DejaVuSans-28" transform="scale(0.015625)"/>
       <path d="M 3431 3366 
L 3316 2797 
Q 3109 2947 2876 3022 
Q 2644 3097 2394 3097 
Q 2119 3097 1870 3000 
Q 1622 2903 1453 2725 
Q 1184 2453 1037 2087 
Q 891 1722 891 1331 
Q 891 859 1127 628 
Q 1363 397 1844 397 
Q 2081 397 2348 469 
Q 2616 541 2906 684 
L 2797 116 
Q 2547 13 2283 -39 
Q 2019 -91 1741 -91 
Q 1044 -91 669 257 
Q 294 606 294 1253 
Q 294 1797 489 2255 
Q 684 2713 1069 3078 
Q 1331 3328 1684 3456 
Q 2038 3584 2456 3584 
Q 2700 3584 2940 3529 
Q 3181 3475 3431 3366 
z
" id="DejaVuSans-Oblique-63" transform="scale(0.015625)"/>
       <path d="M 1625 -91 
Q 1009 -91 651 289 
Q 294 669 294 1325 
Q 294 1706 417 2101 
Q 541 2497 738 2766 
Q 1047 3184 1428 3384 
Q 1809 3584 2291 3584 
Q 2888 3584 3255 3212 
Q 3622 2841 3622 2241 
Q 3622 1825 3500 1412 
Q 3378 1000 3181 728 
Q 2875 309 2494 109 
Q 2113 -91 1625 -91 
z
M 891 1344 
Q 891 869 1089 633 
Q 1288 397 1691 397 
Q 2269 397 2648 901 
Q 3028 1406 3028 2181 
Q 3028 2634 2825 2865 
Q 2622 3097 2228 3097 
Q 1903 3097 1650 2945 
Q 1397 2794 1197 2484 
Q 1050 2253 970 1956 
Q 891 1659 891 1344 
z
" id="DejaVuSans-Oblique-6f" transform="scale(0.015625)"/>
       <path d="M 3566 2113 
L 3156 0 
L 2578 0 
L 2988 2091 
Q 3016 2238 3031 2350 
Q 3047 2463 3047 2528 
Q 3047 2791 2881 2937 
Q 2716 3084 2419 3084 
Q 1956 3084 1622 2776 
Q 1288 2469 1184 1941 
L 800 0 
L 225 0 
L 903 3500 
L 1478 3500 
L 1363 2950 
Q 1603 3253 1940 3418 
Q 2278 3584 2650 3584 
Q 3113 3584 3367 3334 
Q 3622 3084 3622 2631 
Q 3622 2519 3608 2391 
Q 3594 2263 3566 2113 
z
" id="DejaVuSans-Oblique-6e" transform="scale(0.015625)"/>
       <path d="M 3078 2063 
Q 3088 2113 3092 2166 
Q 3097 2219 3097 2272 
Q 3097 2653 2873 2875 
Q 2650 3097 2266 3097 
Q 1838 3097 1509 2826 
Q 1181 2556 1013 2059 
L 3078 2063 
z
M 3578 1613 
L 903 1613 
Q 884 1494 878 1425 
Q 872 1356 872 1306 
Q 872 872 1139 634 
Q 1406 397 1894 397 
Q 2269 397 2603 481 
Q 2938 566 3225 728 
L 3116 159 
Q 2806 34 2476 -28 
Q 2147 -91 1806 -91 
Q 1078 -91 686 257 
Q 294 606 294 1247 
Q 294 1794 489 2264 
Q 684 2734 1063 3103 
Q 1306 3334 1642 3459 
Q 1978 3584 2356 3584 
Q 2950 3584 3301 3228 
Q 3653 2872 3653 2272 
Q 3653 2128 3634 1964 
Q 3616 1800 3578 1613 
z
" id="DejaVuSans-Oblique-65" transform="scale(0.015625)"/>
       <path d="M 3841 3500 
L 2234 1784 
L 3219 0 
L 2559 0 
L 1819 1388 
L 531 0 
L -166 0 
L 1556 1844 
L 641 3500 
L 1300 3500 
L 1972 2234 
L 3144 3500 
L 3841 3500 
z
" id="DejaVuSans-Oblique-78" transform="scale(0.015625)"/>
       <path d="M 513 4856 
L 1013 4856 
Q 1481 4119 1714 3412 
Q 1947 2706 1947 2009 
Q 1947 1309 1714 600 
Q 1481 -109 1013 -844 
L 513 -844 
Q 928 -128 1133 580 
Q 1338 1288 1338 2009 
Q 1338 2731 1133 3434 
Q 928 4138 513 4856 
z
" id="DejaVuSans-29" transform="scale(0.015625)"/>
      </defs>
      <use transform="translate(0 0.125)" xlink:href="#DejaVuSans-Oblique-70"/>
      <use transform="translate(63.476562 0.125)" xlink:href="#DejaVuSans-28"/>
      <use transform="translate(102.490234 0.125)" xlink:href="#DejaVuSans-Oblique-63"/>
      <use transform="translate(157.470703 0.125)" xlink:href="#DejaVuSans-Oblique-6f"/>
      <use transform="translate(218.652344 0.125)" xlink:href="#DejaVuSans-Oblique-6e"/>
      <use transform="translate(282.03125 0.125)" xlink:href="#DejaVuSans-Oblique-74"/>
      <use transform="translate(321.240234 0.125)" xlink:href="#DejaVuSans-Oblique-65"/>
      <use transform="translate(382.763672 0.125)" xlink:href="#DejaVuSans-Oblique-78"/>
      <use transform="translate(441.943359 0.125)" xlink:href="#DejaVuSans-Oblique-74"/>
      <use transform="translate(481.152344 0.125)" xlink:href="#DejaVuSans-29"/>
     </g>
    </g>
   </g>
   <g id="line2d_47">
    <path clip-path="url(#pc401d9bea6)" d="M 93.058909 476.479442 
L 112.580364 231.924235 
L 132.101818 114.556379 
L 151.623273 82.675746 
L 171.144727 70.052571 
L 190.666182 62.92045 
L 210.187636 58.163027 
L 229.709091 465.523491 
L 249.230545 183.633931 
L 268.752 478.08584 
L 288.273455 216.400629 
L 307.794909 100.669453 
L 327.316364 77.694135 
L 346.837818 71.776197 
L 366.359273 68.678623 
L 385.880727 66.276949 
L 405.402182 64.222855 
L 424.923636 62.424183 
L 444.445091 60.833077 
L 463.966545 414.692532 
L 483.488 330.272079 
L 503.009455 498.556795 
L 522.530909 516.928687 
L 542.052364 519.751196 
L 561.573818 520.9983 
L 581.095273 521.854888 
L 600.616727 522.496629 
L 620.138182 463.132246 
L 639.659636 185.844449 
L 659.181091 81.002454 
L 678.702545 424.460322 
L 698.224 511.401869 
L 717.745455 449.473744 
L 737.266909 514.841642 
L 756.788364 455.10618 
L 776.309818 515.728368 
L 795.831273 458.158353 
L 815.352727 516.334857 
L 834.874182 460.722538 
L 854.395636 516.848429 
" style="fill:none;stroke:#0000ff;stroke-linecap:square;stroke-width:1.5;"/>
    <defs>
     <path d="M 0 3 
C 0.795609 3 1.55874 2.683901 2.12132 2.12132 
C 2.683901 1.55874 3 0.795609 3 0 
C 3 -0.795609 2.683901 -1.55874 2.12132 -2.12132 
C 1.55874 -2.683901 0.795609 -3 0 -3 
C -0.795609 -3 -1.55874 -2.683901 -2.12132 -2.12132 
C -2.683901 -1.55874 -3 -0.795609 -3 0 
C -3 0.795609 -2.683901 1.55874 -2.12132 2.12132 
C -1.55874 2.683901 -0.795609 3 0 3 
z
" id="mc67db96a6c" style="stroke:#0000ff;"/>
    </defs>
    <g clip-path="url(#pc401d9bea6)">
     <use style="fill:#0000ff;stroke:#0000ff;" x="93.058909" xlink:href="#mc67db96a6c" y="476.479442"/>
     <use style="fill:#0000ff;stroke:#0000ff;" x="112.580364" xlink:href="#mc67db96a6c" y="231.924235"/>
     <use style="fill:#0000ff;stroke:#0000ff;" x="132.101818" xlink:href="#mc67db96a6c" y="114.556379"/>
     <use style="fill:#0000ff;stroke:#0000ff;" x="151.623273" xlink:href="#mc67db96a6c" y="82.675746"/>
     <use style="fill:#0000ff;stroke:#0000ff;" x="171.144727" xlink:href="#mc67db96a6c" y="70.052571"/>
     <use style="fill:#0000ff;stroke:#0000ff;" x="190.666182" xlink:href="#mc67db96a6c" y="62.92045"/>
     <use style="fill:#0000ff;stroke:#0000ff;" x="210.187636" xlink:href="#mc67db96a6c" y="58.163027"/>
     <use style="fill:#0000ff;stroke:#0000ff;" x="229.709091" xlink:href="#mc67db96a6c" y="465.523491"/>
     <use style="fill:#0000ff;stroke:#0000ff;" x="249.230545" xlink:href="#mc67db96a6c" y="183.633931"/>
     <use style="fill:#0000ff;stroke:#0000ff;" x="268.752" xlink:href="#mc67db96a6c" y="478.08584"/>
     <use style="fill:#0000ff;stroke:#0000ff;" x="288.273455" xlink:href="#mc67db96a6c" y="216.400629"/>
     <use style="fill:#0000ff;stroke:#0000ff;" x="307.794909" xlink:href="#mc67db96a6c" y="100.669453"/>
     <use style="fill:#0000ff;stroke:#0000ff;" x="327.316364" xlink:href="#mc67db96a6c" y="77.694135"/>
     <use style="fill:#0000ff;stroke:#0000ff;" x="346.837818" xlink:href="#mc67db96a6c" y="71.776197"/>
     <use style="fill:#0000ff;stroke:#0000ff;" x="366.359273" xlink:href="#mc67db96a6c" y="68.678623"/>
     <use style="fill:#0000ff;stroke:#0000ff;" x="385.880727" xlink:href="#mc67db96a6c" y="66.276949"/>
     <use style="fill:#0000ff;stroke:#0000ff;" x="405.402182" xlink:href="#mc67db96a6c" y="64.222855"/>
     <use style="fill:#0000ff;stroke:#0000ff;" x="424.923636" xlink:href="#mc67db96a6c" y="62.424183"/>
     <use style="fill:#0000ff;stroke:#0000ff;" x="444.445091" xlink:href="#mc67db96a6c" y="60.833077"/>
     <use style="fill:#0000ff;stroke:#0000ff;" x="463.966545" xlink:href="#mc67db96a6c" y="414.692532"/>
     <use style="fill:#0000ff;stroke:#0000ff;" x="483.488" xlink:href="#mc67db96a6c" y="330.272079"/>
     <use style="fill:#0000ff;stroke:#0000ff;" x="503.009455" xlink:href="#mc67db96a6c" y="498.556795"/>
     <use style="fill:#0000ff;stroke:#0000ff;" x="522.530909" xlink:href="#mc67db96a6c" y="516.928687"/>
     <use style="fill:#0000ff;stroke:#0000ff;" x="542.052364" xlink:href="#mc67db96a6c" y="519.751196"/>
     <use style="fill:#0000ff;stroke:#0000ff;" x="561.573818" xlink:href="#mc67db96a6c" y="520.9983"/>
     <use style="fill:#0000ff;stroke:#0000ff;" x="581.095273" xlink:href="#mc67db96a6c" y="521.854888"/>
     <use style="fill:#0000ff;stroke:#0000ff;" x="600.616727" xlink:href="#mc67db96a6c" y="522.496629"/>
     <use style="fill:#0000ff;stroke:#0000ff;" x="620.138182" xlink:href="#mc67db96a6c" y="463.132246"/>
     <use style="fill:#0000ff;stroke:#0000ff;" x="639.659636" xlink:href="#mc67db96a6c" y="185.844449"/>
     <use style="fill:#0000ff;stroke:#0000ff;" x="659.181091" xlink:href="#mc67db96a6c" y="81.002454"/>
     <use style="fill:#0000ff;stroke:#0000ff;" x="678.702545" xlink:href="#mc67db96a6c" y="424.460322"/>
     <use style="fill:#0000ff;stroke:#0000ff;" x="698.224" xlink:href="#mc67db96a6c" y="511.401869"/>
     <use style="fill:#0000ff;stroke:#0000ff;" x="717.745455" xlink:href="#mc67db96a6c" y="449.473744"/>
     <use style="fill:#0000ff;stroke:#0000ff;" x="737.266909" xlink:href="#mc67db96a6c" y="514.841642"/>
     <use style="fill:#0000ff;stroke:#0000ff;" x="756.788364" xlink:href="#mc67db96a6c" y="455.10618"/>
     <use style="fill:#0000ff;stroke:#0000ff;" x="776.309818" xlink:href="#mc67db96a6c" y="515.728368"/>
     <use style="fill:#0000ff;stroke:#0000ff;" x="795.831273" xlink:href="#mc67db96a6c" y="458.158353"/>
     <use style="fill:#0000ff;stroke:#0000ff;" x="815.352727" xlink:href="#mc67db96a6c" y="516.334857"/>
     <use style="fill:#0000ff;stroke:#0000ff;" x="834.874182" xlink:href="#mc67db96a6c" y="460.722538"/>
     <use style="fill:#0000ff;stroke:#0000ff;" x="854.395636" xlink:href="#mc67db96a6c" y="516.848429"/>
    </g>
   </g>
   <g id="line2d_48">
    <path clip-path="url(#pc401d9bea6)" d="M 93.058909 227.544054 
L 112.580364 484.469036 
L 132.101818 515.246554 
L 151.623273 521.055413 
L 171.144727 522.867827 
L 190.666182 523.733574 
L 210.187636 524.250151 
L 229.709091 217.776912 
L 249.230545 485.384309 
L 268.752 178.717863 
L 288.273455 458.213571 
L 307.794909 509.063448 
L 327.316364 517.586753 
L 346.837818 519.409481 
L 366.359273 520.183112 
L 385.880727 520.729283 
L 405.402182 521.177372 
L 424.923636 521.558427 
L 444.445091 521.887055 
L 463.966545 274.069187 
L 483.488 323.026295 
L 503.009455 134.440762 
L 522.530909 97.707987 
L 542.052364 86.708475 
L 561.573818 79.653632 
L 581.095273 74.168358 
L 600.616727 69.735814 
L 620.138182 171.143325 
L 639.659636 466.144347 
L 659.181091 515.015729 
L 678.702545 230.263446 
L 698.224 88.419904 
L 717.745455 183.554925 
L 737.266909 80.524896 
L 756.788364 175.64853 
L 776.309818 77.798398 
L 795.831273 170.582628 
L 815.352727 75.696578 
L 834.874182 166.209815 
L 854.395636 73.877332 
" style="fill:none;stroke:#ff0000;stroke-linecap:square;stroke-width:1.5;"/>
    <defs>
     <path d="M 0 3 
C 0.795609 3 1.55874 2.683901 2.12132 2.12132 
C 2.683901 1.55874 3 0.795609 3 0 
C 3 -0.795609 2.683901 -1.55874 2.12132 -2.12132 
C 1.55874 -2.683901 0.795609 -3 0 -3 
C -0.795609 -3 -1.55874 -2.683901 -2.12132 -2.12132 
C -2.683901 -1.55874 -3 -0.795609 -3 0 
C -3 0.795609 -2.683901 1.55874 -2.12132 2.12132 
C -1.55874 2.683901 -0.795609 3 0 3 
z
" id="md1ae3e0a25" style="stroke:#ff0000;"/>
    </defs>
    <g clip-path="url(#pc401d9bea6)">
     <use style="fill:#ff0000;stroke:#ff0000;" x="93.058909" xlink:href="#md1ae3e0a25" y="227.544054"/>
     <use style="fill:#ff0000;stroke:#ff0000;" x="112.580364" xlink:href="#md1ae3e0a25" y="484.469036"/>
     <use style="fill:#ff0000;stroke:#ff0000;" x="132.101818" xlink:href="#md1ae3e0a25" y="515.246554"/>
     <use style="fill:#ff0000;stroke:#ff0000;" x="151.623273" xlink:href="#md1ae3e0a25" y="521.055413"/>
     <use style="fill:#ff0000;stroke:#ff0000;" x="171.144727" xlink:href="#md1ae3e0a25" y="522.867827"/>
     <use style="fill:#ff0000;stroke:#ff0000;" x="190.666182" xlink:href="#md1ae3e0a25" y="523.733574"/>
     <use style="fill:#ff0000;stroke:#ff0000;" x="210.187636" xlink:href="#md1ae3e0a25" y="524.250151"/>
     <use style="fill:#ff0000;stroke:#ff0000;" x="229.709091" xlink:href="#md1ae3e0a25" y="217.776912"/>
     <use style="fill:#ff0000;stroke:#ff0000;" x="249.230545" xlink:href="#md1ae3e0a25" y="485.384309"/>
     <use style="fill:#ff0000;stroke:#ff0000;" x="268.752" xlink:href="#md1ae3e0a25" y="178.717863"/>
     <use style="fill:#ff0000;stroke:#ff0000;" x="288.273455" xlink:href="#md1ae3e0a25" y="458.213571"/>
     <use style="fill:#ff0000;stroke:#ff0000;" x="307.794909" xlink:href="#md1ae3e0a25" y="509.063448"/>
     <use style="fill:#ff0000;stroke:#ff0000;" x="327.316364" xlink:href="#md1ae3e0a25" y="517.586753"/>
     <use style="fill:#ff0000;stroke:#ff0000;" x="346.837818" xlink:href="#md1ae3e0a25" y="519.409481"/>
     <use style="fill:#ff0000;stroke:#ff0000;" x="366.359273" xlink:href="#md1ae3e0a25" y="520.183112"/>
     <use style="fill:#ff0000;stroke:#ff0000;" x="385.880727" xlink:href="#md1ae3e0a25" y="520.729283"/>
     <use style="fill:#ff0000;stroke:#ff0000;" x="405.402182" xlink:href="#md1ae3e0a25" y="521.177372"/>
     <use style="fill:#ff0000;stroke:#ff0000;" x="424.923636" xlink:href="#md1ae3e0a25" y="521.558427"/>
     <use style="fill:#ff0000;stroke:#ff0000;" x="444.445091" xlink:href="#md1ae3e0a25" y="521.887055"/>
     <use style="fill:#ff0000;stroke:#ff0000;" x="463.966545" xlink:href="#md1ae3e0a25" y="274.069187"/>
     <use style="fill:#ff0000;stroke:#ff0000;" x="483.488" xlink:href="#md1ae3e0a25" y="323.026295"/>
     <use style="fill:#ff0000;stroke:#ff0000;" x="503.009455" xlink:href="#md1ae3e0a25" y="134.440762"/>
     <use style="fill:#ff0000;stroke:#ff0000;" x="522.530909" xlink:href="#md1ae3e0a25" y="97.707987"/>
     <use style="fill:#ff0000;stroke:#ff0000;" x="542.052364" xlink:href="#md1ae3e0a25" y="86.708475"/>
     <use style="fill:#ff0000;stroke:#ff0000;" x="561.573818" xlink:href="#md1ae3e0a25" y="79.653632"/>
     <use style="fill:#ff0000;stroke:#ff0000;" x="581.095273" xlink:href="#md1ae3e0a25" y="74.168358"/>
     <use style="fill:#ff0000;stroke:#ff0000;" x="600.616727" xlink:href="#md1ae3e0a25" y="69.735814"/>
     <use style="fill:#ff0000;stroke:#ff0000;" x="620.138182" xlink:href="#md1ae3e0a25" y="171.143325"/>
     <use style="fill:#ff0000;stroke:#ff0000;" x="639.659636" xlink:href="#md1ae3e0a25" y="466.144347"/>
     <use style="fill:#ff0000;stroke:#ff0000;" x="659.181091" xlink:href="#md1ae3e0a25" y="515.015729"/>
     <use style="fill:#ff0000;stroke:#ff0000;" x="678.702545" xlink:href="#md1ae3e0a25" y="230.263446"/>
     <use style="fill:#ff0000;stroke:#ff0000;" x="698.224" xlink:href="#md1ae3e0a25" y="88.419904"/>
     <use style="fill:#ff0000;stroke:#ff0000;" x="717.745455" xlink:href="#md1ae3e0a25" y="183.554925"/>
     <use style="fill:#ff0000;stroke:#ff0000;" x="737.266909" xlink:href="#md1ae3e0a25" y="80.524896"/>
     <use style="fill:#ff0000;stroke:#ff0000;" x="756.788364" xlink:href="#md1ae3e0a25" y="175.64853"/>
     <use style="fill:#ff0000;stroke:#ff0000;" x="776.309818" xlink:href="#md1ae3e0a25" y="77.798398"/>
     <use style="fill:#ff0000;stroke:#ff0000;" x="795.831273" xlink:href="#md1ae3e0a25" y="170.582628"/>
     <use style="fill:#ff0000;stroke:#ff0000;" x="815.352727" xlink:href="#md1ae3e0a25" y="75.696578"/>
     <use style="fill:#ff0000;stroke:#ff0000;" x="834.874182" xlink:href="#md1ae3e0a25" y="166.209815"/>
     <use style="fill:#ff0000;stroke:#ff0000;" x="854.395636" xlink:href="#md1ae3e0a25" y="73.877332"/>
    </g>
   </g>
   <g id="line2d_49">
    <path clip-path="url(#pc401d9bea6)" d="M 93.058909 376.905287 
L 112.580364 364.535513 
L 132.101818 451.12585 
L 151.623273 477.197625 
L 171.144727 488.008386 
L 190.666182 494.27476 
L 210.187636 498.515606 
L 229.709091 397.628381 
L 249.230545 411.910544 
L 268.752 424.125081 
L 288.273455 406.314584 
L 307.794909 471.195883 
L 327.316364 485.647896 
L 346.837818 489.743106 
L 366.359273 492.067048 
L 385.880727 493.922551 
L 405.402182 495.528557 
L 424.923636 496.946174 
L 444.445091 498.208652 
L 463.966545 392.167065 
L 483.488 427.63041 
L 503.009455 447.931228 
L 522.530909 466.29211 
L 542.052364 474.469113 
L 561.573818 480.276853 
L 581.095273 484.905538 
L 600.616727 488.696341 
L 620.138182 446.653212 
L 639.659636 428.939988 
L 659.181091 484.910601 
L 678.702545 426.205016 
L 698.224 481.10701 
L 717.745455 447.900115 
L 737.266909 485.562246 
L 756.788364 450.174074 
L 776.309818 487.402017 
L 795.831273 452.187803 
L 815.352727 488.897349 
L 834.874182 453.996431 
L 854.395636 490.203023 
" style="fill:none;stroke:#808080;stroke-linecap:square;stroke-width:1.5;"/>
    <defs>
     <path d="M 0 3 
C 0.795609 3 1.55874 2.683901 2.12132 2.12132 
C 2.683901 1.55874 3 0.795609 3 0 
C 3 -0.795609 2.683901 -1.55874 2.12132 -2.12132 
C 1.55874 -2.683901 0.795609 -3 0 -3 
C -0.795609 -3 -1.55874 -2.683901 -2.12132 -2.12132 
C -2.683901 -1.55874 -3 -0.795609 -3 0 
C -3 0.795609 -2.683901 1.55874 -2.12132 2.12132 
C -1.55874 2.683901 -0.795609 3 0 3 
z
" id="m100c976862" style="stroke:#808080;"/>
    </defs>
    <g clip-path="url(#pc401d9bea6)">
     <use style="fill:#808080;stroke:#808080;" x="93.058909" xlink:href="#m100c976862" y="376.905287"/>
     <use style="fill:#808080;stroke:#808080;" x="112.580364" xlink:href="#m100c976862" y="364.535513"/>
     <use style="fill:#808080;stroke:#808080;" x="132.101818" xlink:href="#m100c976862" y="451.12585"/>
     <use style="fill:#808080;stroke:#808080;" x="151.623273" xlink:href="#m100c976862" y="477.197625"/>
     <use style="fill:#808080;stroke:#808080;" x="171.144727" xlink:href="#m100c976862" y="488.008386"/>
     <use style="fill:#808080;stroke:#808080;" x="190.666182" xlink:href="#m100c976862" y="494.27476"/>
     <use style="fill:#808080;stroke:#808080;" x="210.187636" xlink:href="#m100c976862" y="498.515606"/>
     <use style="fill:#808080;stroke:#808080;" x="229.709091" xlink:href="#m100c976862" y="397.628381"/>
     <use style="fill:#808080;stroke:#808080;" x="249.230545" xlink:href="#m100c976862" y="411.910544"/>
     <use style="fill:#808080;stroke:#808080;" x="268.752" xlink:href="#m100c976862" y="424.125081"/>
     <use style="fill:#808080;stroke:#808080;" x="288.273455" xlink:href="#m100c976862" y="406.314584"/>
     <use style="fill:#808080;stroke:#808080;" x="307.794909" xlink:href="#m100c976862" y="471.195883"/>
     <use style="fill:#808080;stroke:#808080;" x="327.316364" xlink:href="#m100c976862" y="485.647896"/>
     <use style="fill:#808080;stroke:#808080;" x="346.837818" xlink:href="#m100c976862" y="489.743106"/>
     <use style="fill:#808080;stroke:#808080;" x="366.359273" xlink:href="#m100c976862" y="492.067048"/>
     <use style="fill:#808080;stroke:#808080;" x="385.880727" xlink:href="#m100c976862" y="493.922551"/>
     <use style="fill:#808080;stroke:#808080;" x="405.402182" xlink:href="#m100c976862" y="495.528557"/>
     <use style="fill:#808080;stroke:#808080;" x="424.923636" xlink:href="#m100c976862" y="496.946174"/>
     <use style="fill:#808080;stroke:#808080;" x="444.445091" xlink:href="#m100c976862" y="498.208652"/>
     <use style="fill:#808080;stroke:#808080;" x="463.966545" xlink:href="#m100c976862" y="392.167065"/>
     <use style="fill:#808080;stroke:#808080;" x="483.488" xlink:href="#m100c976862" y="427.63041"/>
     <use style="fill:#808080;stroke:#808080;" x="503.009455" xlink:href="#m100c976862" y="447.931228"/>
     <use style="fill:#808080;stroke:#808080;" x="522.530909" xlink:href="#m100c976862" y="466.29211"/>
     <use style="fill:#808080;stroke:#808080;" x="542.052364" xlink:href="#m100c976862" y="474.469113"/>
     <use style="fill:#808080;stroke:#808080;" x="561.573818" xlink:href="#m100c976862" y="480.276853"/>
     <use style="fill:#808080;stroke:#808080;" x="581.095273" xlink:href="#m100c976862" y="484.905538"/>
     <use style="fill:#808080;stroke:#808080;" x="600.616727" xlink:href="#m100c976862" y="488.696341"/>
     <use style="fill:#808080;stroke:#808080;" x="620.138182" xlink:href="#m100c976862" y="446.653212"/>
     <use style="fill:#808080;stroke:#808080;" x="639.659636" xlink:href="#m100c976862" y="428.939988"/>
     <use style="fill:#808080;stroke:#808080;" x="659.181091" xlink:href="#m100c976862" y="484.910601"/>
     <use style="fill:#808080;stroke:#808080;" x="678.702545" xlink:href="#m100c976862" y="426.205016"/>
     <use style="fill:#808080;stroke:#808080;" x="698.224" xlink:href="#m100c976862" y="481.10701"/>
     <use style="fill:#808080;stroke:#808080;" x="717.745455" xlink:href="#m100c976862" y="447.900115"/>
     <use style="fill:#808080;stroke:#808080;" x="737.266909" xlink:href="#m100c976862" y="485.562246"/>
     <use style="fill:#808080;stroke:#808080;" x="756.788364" xlink:href="#m100c976862" y="450.174074"/>
     <use style="fill:#808080;stroke:#808080;" x="776.309818" xlink:href="#m100c976862" y="487.402017"/>
     <use style="fill:#808080;stroke:#808080;" x="795.831273" xlink:href="#m100c976862" y="452.187803"/>
     <use style="fill:#808080;stroke:#808080;" x="815.352727" xlink:href="#m100c976862" y="488.897349"/>
     <use style="fill:#808080;stroke:#808080;" x="834.874182" xlink:href="#m100c976862" y="453.996431"/>
     <use style="fill:#808080;stroke:#808080;" x="854.395636" xlink:href="#m100c976862" y="490.203023"/>
    </g>
   </g>
   <g id="patch_5">
    <path d="M 54.016 526.26652 
L 54.016 28.395744 
" style="fill:none;stroke:#000000;stroke-linecap:square;stroke-linejoin:miter;stroke-width:0.8;"/>
   </g>
   <g id="patch_6">
    <path d="M 912.96 526.26652 
L 912.96 28.395744 
" style="fill:none;stroke:#000000;stroke-linecap:square;stroke-linejoin:miter;stroke-width:0.8;"/>
   </g>
   <g id="patch_7">
    <path d="M 54.016 526.26652 
L 912.96 526.26652 
" style="fill:none;stroke:#000000;stroke-linecap:square;stroke-linejoin:miter;stroke-width:0.8;"/>
   </g>
   <g id="patch_8">
    <path d="M 54.016 28.395744 
L 912.96 28.395744 
" style="fill:none;stroke:#000000;stroke-linecap:square;stroke-linejoin:miter;stroke-width:0.8;"/>
   </g>
   <g id="text_49">
    <!-- Depression: fatalistic -->
    <g transform="translate(352.113 22.395744)scale(0.25 -0.25)">
     <defs>
      <path d="M 1259 4147 
L 1259 519 
L 2022 519 
Q 2988 519 3436 956 
Q 3884 1394 3884 2338 
Q 3884 3275 3436 3711 
Q 2988 4147 2022 4147 
L 1259 4147 
z
M 628 4666 
L 1925 4666 
Q 3281 4666 3915 4102 
Q 4550 3538 4550 2338 
Q 4550 1131 3912 565 
Q 3275 0 1925 0 
L 628 0 
L 628 4666 
z
" id="DejaVuSans-44" transform="scale(0.015625)"/>
      <path d="M 3597 1894 
L 3597 1613 
L 953 1613 
Q 991 1019 1311 708 
Q 1631 397 2203 397 
Q 2534 397 2845 478 
Q 3156 559 3463 722 
L 3463 178 
Q 3153 47 2828 -22 
Q 2503 -91 2169 -91 
Q 1331 -91 842 396 
Q 353 884 353 1716 
Q 353 2575 817 3079 
Q 1281 3584 2069 3584 
Q 2775 3584 3186 3129 
Q 3597 2675 3597 1894 
z
M 3022 2063 
Q 3016 2534 2758 2815 
Q 2500 3097 2075 3097 
Q 1594 3097 1305 2825 
Q 1016 2553 972 2059 
L 3022 2063 
z
" id="DejaVuSans-65" transform="scale(0.015625)"/>
      <path d="M 1159 525 
L 1159 -1331 
L 581 -1331 
L 581 3500 
L 1159 3500 
L 1159 2969 
Q 1341 3281 1617 3432 
Q 1894 3584 2278 3584 
Q 2916 3584 3314 3078 
Q 3713 2572 3713 1747 
Q 3713 922 3314 415 
Q 2916 -91 2278 -91 
Q 1894 -91 1617 61 
Q 1341 213 1159 525 
z
M 3116 1747 
Q 3116 2381 2855 2742 
Q 2594 3103 2138 3103 
Q 1681 3103 1420 2742 
Q 1159 2381 1159 1747 
Q 1159 1113 1420 752 
Q 1681 391 2138 391 
Q 2594 391 2855 752 
Q 3116 1113 3116 1747 
z
" id="DejaVuSans-70" transform="scale(0.015625)"/>
      <path d="M 2631 2963 
Q 2534 3019 2420 3045 
Q 2306 3072 2169 3072 
Q 1681 3072 1420 2755 
Q 1159 2438 1159 1844 
L 1159 0 
L 581 0 
L 581 3500 
L 1159 3500 
L 1159 2956 
Q 1341 3275 1631 3429 
Q 1922 3584 2338 3584 
Q 2397 3584 2469 3576 
Q 2541 3569 2628 3553 
L 2631 2963 
z
" id="DejaVuSans-72" transform="scale(0.015625)"/>
      <path d="M 2834 3397 
L 2834 2853 
Q 2591 2978 2328 3040 
Q 2066 3103 1784 3103 
Q 1356 3103 1142 2972 
Q 928 2841 928 2578 
Q 928 2378 1081 2264 
Q 1234 2150 1697 2047 
L 1894 2003 
Q 2506 1872 2764 1633 
Q 3022 1394 3022 966 
Q 3022 478 2636 193 
Q 2250 -91 1575 -91 
Q 1294 -91 989 -36 
Q 684 19 347 128 
L 347 722 
Q 666 556 975 473 
Q 1284 391 1588 391 
Q 1994 391 2212 530 
Q 2431 669 2431 922 
Q 2431 1156 2273 1281 
Q 2116 1406 1581 1522 
L 1381 1569 
Q 847 1681 609 1914 
Q 372 2147 372 2553 
Q 372 3047 722 3315 
Q 1072 3584 1716 3584 
Q 2034 3584 2315 3537 
Q 2597 3491 2834 3397 
z
" id="DejaVuSans-73" transform="scale(0.015625)"/>
      <path d="M 603 3500 
L 1178 3500 
L 1178 0 
L 603 0 
L 603 3500 
z
M 603 4863 
L 1178 4863 
L 1178 4134 
L 603 4134 
L 603 4863 
z
" id="DejaVuSans-69" transform="scale(0.015625)"/>
      <path d="M 1959 3097 
Q 1497 3097 1228 2736 
Q 959 2375 959 1747 
Q 959 1119 1226 758 
Q 1494 397 1959 397 
Q 2419 397 2687 759 
Q 2956 1122 2956 1747 
Q 2956 2369 2687 2733 
Q 2419 3097 1959 3097 
z
M 1959 3584 
Q 2709 3584 3137 3096 
Q 3566 2609 3566 1747 
Q 3566 888 3137 398 
Q 2709 -91 1959 -91 
Q 1206 -91 779 398 
Q 353 888 353 1747 
Q 353 2609 779 3096 
Q 1206 3584 1959 3584 
z
" id="DejaVuSans-6f" transform="scale(0.015625)"/>
      <path d="M 3513 2113 
L 3513 0 
L 2938 0 
L 2938 2094 
Q 2938 2591 2744 2837 
Q 2550 3084 2163 3084 
Q 1697 3084 1428 2787 
Q 1159 2491 1159 1978 
L 1159 0 
L 581 0 
L 581 3500 
L 1159 3500 
L 1159 2956 
Q 1366 3272 1645 3428 
Q 1925 3584 2291 3584 
Q 2894 3584 3203 3211 
Q 3513 2838 3513 2113 
z
" id="DejaVuSans-6e" transform="scale(0.015625)"/>
      <path d="M 750 794 
L 1409 794 
L 1409 0 
L 750 0 
L 750 794 
z
M 750 3309 
L 1409 3309 
L 1409 2516 
L 750 2516 
L 750 3309 
z
" id="DejaVuSans-3a" transform="scale(0.015625)"/>
      <path id="DejaVuSans-20" transform="scale(0.015625)"/>
      <path d="M 2375 4863 
L 2375 4384 
L 1825 4384 
Q 1516 4384 1395 4259 
Q 1275 4134 1275 3809 
L 1275 3500 
L 2222 3500 
L 2222 3053 
L 1275 3053 
L 1275 0 
L 697 0 
L 697 3053 
L 147 3053 
L 147 3500 
L 697 3500 
L 697 3744 
Q 697 4328 969 4595 
Q 1241 4863 1831 4863 
L 2375 4863 
z
" id="DejaVuSans-66" transform="scale(0.015625)"/>
      <path d="M 2194 1759 
Q 1497 1759 1228 1600 
Q 959 1441 959 1056 
Q 959 750 1161 570 
Q 1363 391 1709 391 
Q 2188 391 2477 730 
Q 2766 1069 2766 1631 
L 2766 1759 
L 2194 1759 
z
M 3341 1997 
L 3341 0 
L 2766 0 
L 2766 531 
Q 2569 213 2275 61 
Q 1981 -91 1556 -91 
Q 1019 -91 701 211 
Q 384 513 384 1019 
Q 384 1609 779 1909 
Q 1175 2209 1959 2209 
L 2766 2209 
L 2766 2266 
Q 2766 2663 2505 2880 
Q 2244 3097 1772 3097 
Q 1472 3097 1187 3025 
Q 903 2953 641 2809 
L 641 3341 
Q 956 3463 1253 3523 
Q 1550 3584 1831 3584 
Q 2591 3584 2966 3190 
Q 3341 2797 3341 1997 
z
" id="DejaVuSans-61" transform="scale(0.015625)"/>
      <path d="M 1172 4494 
L 1172 3500 
L 2356 3500 
L 2356 3053 
L 1172 3053 
L 1172 1153 
Q 1172 725 1289 603 
Q 1406 481 1766 481 
L 2356 481 
L 2356 0 
L 1766 0 
Q 1100 0 847 248 
Q 594 497 594 1153 
L 594 3053 
L 172 3053 
L 172 3500 
L 594 3500 
L 594 4494 
L 1172 4494 
z
" id="DejaVuSans-74" transform="scale(0.015625)"/>
      <path d="M 603 4863 
L 1178 4863 
L 1178 0 
L 603 0 
L 603 4863 
z
" id="DejaVuSans-6c" transform="scale(0.015625)"/>
      <path d="M 3122 3366 
L 3122 2828 
Q 2878 2963 2633 3030 
Q 2388 3097 2138 3097 
Q 1578 3097 1268 2742 
Q 959 2388 959 1747 
Q 959 1106 1268 751 
Q 1578 397 2138 397 
Q 2388 397 2633 464 
Q 2878 531 3122 666 
L 3122 134 
Q 2881 22 2623 -34 
Q 2366 -91 2075 -91 
Q 1284 -91 818 406 
Q 353 903 353 1747 
Q 353 2603 823 3093 
Q 1294 3584 2113 3584 
Q 2378 3584 2631 3529 
Q 2884 3475 3122 3366 
z
" id="DejaVuSans-63" transform="scale(0.015625)"/>
     </defs>
     <use xlink:href="#DejaVuSans-44"/>
     <use x="77.001953" xlink:href="#DejaVuSans-65"/>
     <use x="138.525391" xlink:href="#DejaVuSans-70"/>
     <use x="202.001953" xlink:href="#DejaVuSans-72"/>
     <use x="240.865234" xlink:href="#DejaVuSans-65"/>
     <use x="302.388672" xlink:href="#DejaVuSans-73"/>
     <use x="354.488281" xlink:href="#DejaVuSans-73"/>
     <use x="406.587891" xlink:href="#DejaVuSans-69"/>
     <use x="434.371094" xlink:href="#DejaVuSans-6f"/>
     <use x="495.552734" xlink:href="#DejaVuSans-6e"/>
     <use x="558.931641" xlink:href="#DejaVuSans-3a"/>
     <use x="592.623047" xlink:href="#DejaVuSans-20"/>
     <use x="624.410156" xlink:href="#DejaVuSans-66"/>
     <use x="659.615234" xlink:href="#DejaVuSans-61"/>
     <use x="720.894531" xlink:href="#DejaVuSans-74"/>
     <use x="760.103516" xlink:href="#DejaVuSans-61"/>
     <use x="821.382812" xlink:href="#DejaVuSans-6c"/>
     <use x="849.166016" xlink:href="#DejaVuSans-69"/>
     <use x="876.949219" xlink:href="#DejaVuSans-73"/>
     <use x="929.048828" xlink:href="#DejaVuSans-74"/>
     <use x="968.257812" xlink:href="#DejaVuSans-69"/>
     <use x="996.041016" xlink:href="#DejaVuSans-63"/>
    </g>
   </g>
   <g id="legend_1">
    <g id="patch_9">
     <path d="M 803.108438 124.464494 
L 905.96 124.464494 
Q 907.96 124.464494 907.96 122.464494 
L 907.96 35.395744 
Q 907.96 33.395744 905.96 33.395744 
L 803.108438 33.395744 
Q 801.108438 33.395744 801.108438 35.395744 
L 801.108438 122.464494 
Q 801.108438 124.464494 803.108438 124.464494 
z
" style="fill:#ffffff;opacity:0.8;stroke:#cccccc;stroke-linejoin:miter;"/>
    </g>
    <g id="line2d_50">
     <path d="M 805.108438 41.494182 
L 825.108438 41.494182 
" style="fill:none;stroke:#0000ff;stroke-linecap:square;stroke-width:1.5;"/>
    </g>
    <g id="line2d_51">
     <g>
      <use style="fill:#0000ff;stroke:#0000ff;" x="815.108438" xlink:href="#mc67db96a6c" y="41.494182"/>
     </g>
    </g>
    <g id="text_50">
     <!-- cooperative -->
     <g transform="translate(833.108438 44.994182)scale(0.1 -0.1)">
      <defs>
       <path d="M 191 3500 
L 800 3500 
L 1894 563 
L 2988 3500 
L 3597 3500 
L 2284 0 
L 1503 0 
L 191 3500 
z
" id="DejaVuSans-76" transform="scale(0.015625)"/>
      </defs>
      <use xlink:href="#DejaVuSans-63"/>
      <use x="54.980469" xlink:href="#DejaVuSans-6f"/>
      <use x="116.162109" xlink:href="#DejaVuSans-6f"/>
      <use x="177.34375" xlink:href="#DejaVuSans-70"/>
      <use x="240.820312" xlink:href="#DejaVuSans-65"/>
      <use x="302.34375" xlink:href="#DejaVuSans-72"/>
      <use x="343.457031" xlink:href="#DejaVuSans-61"/>
      <use x="404.736328" xlink:href="#DejaVuSans-74"/>
      <use x="443.945312" xlink:href="#DejaVuSans-69"/>
      <use x="471.728516" xlink:href="#DejaVuSans-76"/>
      <use x="530.908203" xlink:href="#DejaVuSans-65"/>
     </g>
    </g>
    <g id="line2d_52">
     <path d="M 805.108438 56.172307 
L 825.108438 56.172307 
" style="fill:none;stroke:#ff0000;stroke-linecap:square;stroke-width:1.5;"/>
    </g>
    <g id="line2d_53">
     <g>
      <use style="fill:#ff0000;stroke:#ff0000;" x="815.108438" xlink:href="#md1ae3e0a25" y="56.172307"/>
     </g>
    </g>
    <g id="text_51">
     <!-- hostile -->
     <g transform="translate(833.108438 59.672307)scale(0.1 -0.1)">
      <defs>
       <path d="M 3513 2113 
L 3513 0 
L 2938 0 
L 2938 2094 
Q 2938 2591 2744 2837 
Q 2550 3084 2163 3084 
Q 1697 3084 1428 2787 
Q 1159 2491 1159 1978 
L 1159 0 
L 581 0 
L 581 4863 
L 1159 4863 
L 1159 2956 
Q 1366 3272 1645 3428 
Q 1925 3584 2291 3584 
Q 2894 3584 3203 3211 
Q 3513 2838 3513 2113 
z
" id="DejaVuSans-68" transform="scale(0.015625)"/>
      </defs>
      <use xlink:href="#DejaVuSans-68"/>
      <use x="63.378906" xlink:href="#DejaVuSans-6f"/>
      <use x="124.560547" xlink:href="#DejaVuSans-73"/>
      <use x="176.660156" xlink:href="#DejaVuSans-74"/>
      <use x="215.869141" xlink:href="#DejaVuSans-69"/>
      <use x="243.652344" xlink:href="#DejaVuSans-6c"/>
      <use x="271.435547" xlink:href="#DejaVuSans-65"/>
     </g>
    </g>
    <g id="line2d_54">
     <path d="M 805.108438 70.850432 
L 825.108438 70.850432 
" style="fill:none;stroke:#808080;stroke-linecap:square;stroke-width:1.5;"/>
    </g>
    <g id="line2d_55">
     <g>
      <use style="fill:#808080;stroke:#808080;" x="815.108438" xlink:href="#m100c976862" y="70.850432"/>
     </g>
    </g>
    <g id="text_52">
     <!-- random -->
     <g transform="translate(833.108438 74.350432)scale(0.1 -0.1)">
      <defs>
       <path d="M 2906 2969 
L 2906 4863 
L 3481 4863 
L 3481 0 
L 2906 0 
L 2906 525 
Q 2725 213 2448 61 
Q 2172 -91 1784 -91 
Q 1150 -91 751 415 
Q 353 922 353 1747 
Q 353 2572 751 3078 
Q 1150 3584 1784 3584 
Q 2172 3584 2448 3432 
Q 2725 3281 2906 2969 
z
M 947 1747 
Q 947 1113 1208 752 
Q 1469 391 1925 391 
Q 2381 391 2643 752 
Q 2906 1113 2906 1747 
Q 2906 2381 2643 2742 
Q 2381 3103 1925 3103 
Q 1469 3103 1208 2742 
Q 947 2381 947 1747 
z
" id="DejaVuSans-64" transform="scale(0.015625)"/>
       <path d="M 3328 2828 
Q 3544 3216 3844 3400 
Q 4144 3584 4550 3584 
Q 5097 3584 5394 3201 
Q 5691 2819 5691 2113 
L 5691 0 
L 5113 0 
L 5113 2094 
Q 5113 2597 4934 2840 
Q 4756 3084 4391 3084 
Q 3944 3084 3684 2787 
Q 3425 2491 3425 1978 
L 3425 0 
L 2847 0 
L 2847 2094 
Q 2847 2600 2669 2842 
Q 2491 3084 2119 3084 
Q 1678 3084 1418 2786 
Q 1159 2488 1159 1978 
L 1159 0 
L 581 0 
L 581 3500 
L 1159 3500 
L 1159 2956 
Q 1356 3278 1631 3431 
Q 1906 3584 2284 3584 
Q 2666 3584 2933 3390 
Q 3200 3197 3328 2828 
z
" id="DejaVuSans-6d" transform="scale(0.015625)"/>
      </defs>
      <use xlink:href="#DejaVuSans-72"/>
      <use x="41.113281" xlink:href="#DejaVuSans-61"/>
      <use x="102.392578" xlink:href="#DejaVuSans-6e"/>
      <use x="165.771484" xlink:href="#DejaVuSans-64"/>
      <use x="229.248047" xlink:href="#DejaVuSans-6f"/>
      <use x="290.429688" xlink:href="#DejaVuSans-6d"/>
     </g>
    </g>
    <g id="line2d_56">
     <path d="M 805.108438 85.528557 
L 825.108438 85.528557 
" style="fill:none;stroke:#ffffff;stroke-linecap:square;stroke-width:1.5;"/>
    </g>
    <g id="line2d_57">
     <defs>
      <path d="M -0 5 
L 5 -5 
L -5 -5 
z
" id="md4422fcf9a" style="stroke:#ffffff;stroke-linejoin:miter;"/>
     </defs>
     <g>
      <use style="fill:#ff0000;stroke:#ffffff;stroke-linejoin:miter;" x="815.108438" xlink:href="#md4422fcf9a" y="85.528557"/>
     </g>
    </g>
    <g id="text_53">
     <!-- invest - abuse -->
     <g transform="translate(833.108438 89.028557)scale(0.1 -0.1)">
      <defs>
       <path d="M 313 2009 
L 1997 2009 
L 1997 1497 
L 313 1497 
L 313 2009 
z
" id="DejaVuSans-2d" transform="scale(0.015625)"/>
       <path d="M 3116 1747 
Q 3116 2381 2855 2742 
Q 2594 3103 2138 3103 
Q 1681 3103 1420 2742 
Q 1159 2381 1159 1747 
Q 1159 1113 1420 752 
Q 1681 391 2138 391 
Q 2594 391 2855 752 
Q 3116 1113 3116 1747 
z
M 1159 2969 
Q 1341 3281 1617 3432 
Q 1894 3584 2278 3584 
Q 2916 3584 3314 3078 
Q 3713 2572 3713 1747 
Q 3713 922 3314 415 
Q 2916 -91 2278 -91 
Q 1894 -91 1617 61 
Q 1341 213 1159 525 
L 1159 0 
L 581 0 
L 581 4863 
L 1159 4863 
L 1159 2969 
z
" id="DejaVuSans-62" transform="scale(0.015625)"/>
       <path d="M 544 1381 
L 544 3500 
L 1119 3500 
L 1119 1403 
Q 1119 906 1312 657 
Q 1506 409 1894 409 
Q 2359 409 2629 706 
Q 2900 1003 2900 1516 
L 2900 3500 
L 3475 3500 
L 3475 0 
L 2900 0 
L 2900 538 
Q 2691 219 2414 64 
Q 2138 -91 1772 -91 
Q 1169 -91 856 284 
Q 544 659 544 1381 
z
M 1991 3584 
L 1991 3584 
z
" id="DejaVuSans-75" transform="scale(0.015625)"/>
      </defs>
      <use xlink:href="#DejaVuSans-69"/>
      <use x="27.783203" xlink:href="#DejaVuSans-6e"/>
      <use x="91.162109" xlink:href="#DejaVuSans-76"/>
      <use x="150.341797" xlink:href="#DejaVuSans-65"/>
      <use x="211.865234" xlink:href="#DejaVuSans-73"/>
      <use x="263.964844" xlink:href="#DejaVuSans-74"/>
      <use x="303.173828" xlink:href="#DejaVuSans-20"/>
      <use x="334.960938" xlink:href="#DejaVuSans-2d"/>
      <use x="371.044922" xlink:href="#DejaVuSans-20"/>
      <use x="402.832031" xlink:href="#DejaVuSans-61"/>
      <use x="464.111328" xlink:href="#DejaVuSans-62"/>
      <use x="527.587891" xlink:href="#DejaVuSans-75"/>
      <use x="590.966797" xlink:href="#DejaVuSans-73"/>
      <use x="643.066406" xlink:href="#DejaVuSans-65"/>
     </g>
    </g>
    <g id="line2d_58">
     <path d="M 805.108438 100.206682 
L 825.108438 100.206682 
" style="fill:none;stroke:#ffffff;stroke-linecap:square;stroke-width:1.5;"/>
    </g>
    <g id="line2d_59">
     <defs>
      <path d="M 0 -5 
L -5 5 
L 5 5 
z
" id="me62e832afc" style="stroke:#ffffff;stroke-linejoin:miter;"/>
     </defs>
     <g>
      <use style="fill:#0000ff;stroke:#ffffff;stroke-linejoin:miter;" x="815.108438" xlink:href="#me62e832afc" y="100.206682"/>
     </g>
    </g>
    <g id="text_54">
     <!-- invest - return -->
     <g transform="translate(833.108438 103.706682)scale(0.1 -0.1)">
      <use xlink:href="#DejaVuSans-69"/>
      <use x="27.783203" xlink:href="#DejaVuSans-6e"/>
      <use x="91.162109" xlink:href="#DejaVuSans-76"/>
      <use x="150.341797" xlink:href="#DejaVuSans-65"/>
      <use x="211.865234" xlink:href="#DejaVuSans-73"/>
      <use x="263.964844" xlink:href="#DejaVuSans-74"/>
      <use x="303.173828" xlink:href="#DejaVuSans-20"/>
      <use x="334.960938" xlink:href="#DejaVuSans-2d"/>
      <use x="371.044922" xlink:href="#DejaVuSans-20"/>
      <use x="402.832031" xlink:href="#DejaVuSans-72"/>
      <use x="441.695312" xlink:href="#DejaVuSans-65"/>
      <use x="503.21875" xlink:href="#DejaVuSans-74"/>
      <use x="542.427734" xlink:href="#DejaVuSans-75"/>
      <use x="605.806641" xlink:href="#DejaVuSans-72"/>
      <use x="645.169922" xlink:href="#DejaVuSans-6e"/>
     </g>
    </g>
    <g id="line2d_60">
     <path d="M 805.108438 114.884807 
L 825.108438 114.884807 
" style="fill:none;stroke:#ffffff;stroke-linecap:square;stroke-width:1.5;"/>
    </g>
    <g id="line2d_61">
     <defs>
      <path d="M -2.5 5 
L 0 2.5 
L 2.5 5 
L 5 2.5 
L 2.5 0 
L 5 -2.5 
L 2.5 -5 
L 0 -2.5 
L -2.5 -5 
L -5 -2.5 
L -2.5 0 
L -5 2.5 
z
" id="mc928d43dd0" style="stroke:#ffffff;stroke-linejoin:miter;"/>
     </defs>
     <g>
      <use style="stroke:#ffffff;stroke-linejoin:miter;" x="815.108438" xlink:href="#mc928d43dd0" y="114.884807"/>
     </g>
    </g>
    <g id="text_55">
     <!-- no invest -->
     <g transform="translate(833.108438 118.384807)scale(0.1 -0.1)">
      <use xlink:href="#DejaVuSans-6e"/>
      <use x="63.378906" xlink:href="#DejaVuSans-6f"/>
      <use x="124.560547" xlink:href="#DejaVuSans-20"/>
      <use x="156.347656" xlink:href="#DejaVuSans-69"/>
      <use x="184.130859" xlink:href="#DejaVuSans-6e"/>
      <use x="247.509766" xlink:href="#DejaVuSans-76"/>
      <use x="306.689453" xlink:href="#DejaVuSans-65"/>
      <use x="368.212891" xlink:href="#DejaVuSans-73"/>
      <use x="420.3125" xlink:href="#DejaVuSans-74"/>
     </g>
    </g>
   </g>
  </g>
 </g>
 <defs>
  <clipPath id="pc401d9bea6">
   <rect height="497.870776" width="858.944" x="54.016" y="28.395744"/>
  </clipPath>
 </defs>
</svg>
