<?xml version="1.0" encoding="utf-8" standalone="no"?>
<!DOCTYPE svg PUBLIC "-//W3C//DTD SVG 1.1//EN"
  "http://www.w3.org/Graphics/SVG/1.1/DTD/svg11.dtd">
<svg height="570.96pt" version="1.1" viewBox="0 0 921.6 570.96" width="921.6pt" xmlns="http://www.w3.org/2000/svg" xmlns:xlink="http://www.w3.org/1999/xlink">
 <metadata>
  <rdf:RDF xmlns:cc="http://creativecommons.org/ns#" xmlns:dc="http://purl.org/dc/elements/1.1/" xmlns:rdf="http://www.w3.org/1999/02/22-rdf-syntax-ns#">
   <cc:Work>
    <dc:type rdf:resource="http://purl.org/dc/dcmitype/StillImage"/>
    <dc:date>2024-06-19T10:14:53.414535</dc:date>
    <dc:format>image/svg+xml</dc:format>
    <dc:creator>
     <cc:Agent>
      <dc:title>Matplotlib v3.4.3, https://matplotlib.org/</dc:title>
     </cc:Agent>
    </dc:creator>
   </cc:Work>
  </rdf:RDF>
 </metadata>
 <defs>
  <style type="text/css">*{stroke-linecap:butt;stroke-linejoin:round;}</style>
 </defs>
 <g id="figure_1">
  <g id="patch_1">
   <path d="M 0 570.96 
L 921.6 570.96 
L 921.6 0 
L 0 0 
z
" style="fill:#ffffff;"/>
  </g>
  <g id="axes_1">
   <g id="patch_2">
    <path d="M 54.016 526.26652 
L 912.96 526.26652 
L 912.96 28.395744 
L 54.016 28.395744 
z
" style="fill:#ffffff;"/>
   </g>
   <g id="PathCollection_1">
    <path clip-path="url(#p1cae57e990)" d="M 102.819636 314.443554 
L 96.695912 326.691003 
L 108.943361 326.691003 
z
" style="fill:#0000ff;stroke:#0000ff;"/>
    <path clip-path="url(#p1cae57e990)" d="M 122.341091 307.804912 
L 116.217367 320.052361 
L 128.464815 320.052361 
z
" style="fill:#0000ff;stroke:#0000ff;"/>
    <path clip-path="url(#p1cae57e990)" d="M 141.862545 311.753784 
L 135.738821 324.001232 
L 147.98627 324.001232 
z
" style="fill:#0000ff;stroke:#0000ff;"/>
    <path clip-path="url(#p1cae57e990)" d="M 161.384 319.491745 
L 155.260276 331.739194 
L 167.507724 331.739194 
z
" style="fill:#0000ff;stroke:#0000ff;"/>
    <path clip-path="url(#p1cae57e990)" d="M 180.905455 416.006631 
L 187.029179 403.759182 
L 174.78173 403.759182 
z
" style="fill:#ff0000;stroke:#ff0000;"/>
    <path clip-path="url(#p1cae57e990)" d="M 200.426909 426.073302 
L 194.303185 438.32075 
L 206.550633 438.32075 
z
" style="fill:#0000ff;stroke:#0000ff;"/>
    <path clip-path="url(#p1cae57e990)" d="M 219.948364 354.988848 
L 213.824639 367.236296 
L 226.072088 367.236296 
z
" style="fill:#0000ff;stroke:#0000ff;"/>
    <path clip-path="url(#p1cae57e990)" d="M 239.469818 344.21518 
L 233.346094 356.462628 
L 245.593543 356.462628 
z
" style="fill:#0000ff;stroke:#0000ff;"/>
    <path clip-path="url(#p1cae57e990)" d="M 258.991273 348.524871 
L 252.867548 360.77232 
L 265.114997 360.77232 
z
" style="fill:#0000ff;stroke:#0000ff;"/>
    <path clip-path="url(#p1cae57e990)" d="M 278.512727 428.41864 
L 284.636452 416.171191 
L 272.389003 416.171191 
z
" style="fill:#ff0000;stroke:#ff0000;"/>
    <path clip-path="url(#p1cae57e990)" d="M 298.034182 435.5003 
L 291.910457 447.747748 
L 304.157906 447.747748 
z
" style="fill:#0000ff;stroke:#0000ff;"/>
    <path clip-path="url(#p1cae57e990)" d="M 317.555636 376.341718 
L 311.431912 388.589166 
L 323.679361 388.589166 
z
" style="fill:#0000ff;stroke:#0000ff;"/>
    <path clip-path="url(#p1cae57e990)" d="M 337.077091 364.334964 
L 330.953367 376.582413 
L 343.200815 376.582413 
z
" style="fill:#0000ff;stroke:#0000ff;"/>
    <path clip-path="url(#p1cae57e990)" d="M 356.598545 366.894255 
L 350.474821 379.141704 
L 362.72227 379.141704 
z
" style="fill:#0000ff;stroke:#0000ff;"/>
    <path clip-path="url(#p1cae57e990)" d="M 376.12 369.726735 
L 369.996276 381.974184 
L 382.243724 381.974184 
z
" style="fill:#0000ff;stroke:#0000ff;"/>
    <path clip-path="url(#p1cae57e990)" d="M 395.641455 437.305966 
L 401.765179 425.058518 
L 389.51773 425.058518 
z
" style="fill:#ff0000;stroke:#ff0000;"/>
    <path clip-path="url(#p1cae57e990)" d="M 415.162909 497.999483 
L 421.286633 485.752035 
L 409.039185 485.752035 
z
" style="fill:#ff0000;stroke:#ff0000;"/>
    <path clip-path="url(#p1cae57e990)" d="M 434.684364 449.329035 
L 428.560639 461.576483 
L 440.808088 461.576483 
z
" style="fill:#0000ff;stroke:#0000ff;"/>
    <path clip-path="url(#p1cae57e990)" d="M 454.205818 391.496979 
L 448.082094 403.744428 
L 460.329543 403.744428 
z
" style="fill:#0000ff;stroke:#0000ff;"/>
    <path clip-path="url(#p1cae57e990)" d="M 473.727273 401.256679 
L 467.603548 413.504127 
L 479.850997 413.504127 
z
" style="fill:#0000ff;stroke:#0000ff;"/>
    <path clip-path="url(#p1cae57e990)" d="M 493.248727 466.752268 
L 499.372452 454.504819 
L 487.125003 454.504819 
z
" style="fill:#ff0000;stroke:#ff0000;"/>
    <path clip-path="url(#p1cae57e990)" d="M 512.770182 499.683947 
L 518.893906 487.436498 
L 506.646457 487.436498 
z
" style="fill:#ff0000;stroke:#ff0000;"/>
    <path clip-path="url(#p1cae57e990)" d="M 529.229774 484.128896 
L 532.291636 481.067033 
L 535.353499 484.128896 
L 538.415361 481.067033 
L 535.353499 478.005171 
L 538.415361 474.943309 
L 535.353499 471.881447 
L 532.291636 474.943309 
L 529.229774 471.881447 
L 526.167912 474.943309 
L 529.229774 478.005171 
L 526.167912 481.067033 
z
" style="stroke:#000000;"/>
    <path clip-path="url(#p1cae57e990)" d="M 551.813091 420.731163 
L 545.689367 432.978612 
L 557.936815 432.978612 
z
" style="fill:#0000ff;stroke:#0000ff;"/>
    <path clip-path="url(#p1cae57e990)" d="M 571.334545 382.661239 
L 565.210821 394.908688 
L 577.45827 394.908688 
z
" style="fill:#0000ff;stroke:#0000ff;"/>
    <path clip-path="url(#p1cae57e990)" d="M 590.856 376.672736 
L 584.732276 388.920185 
L 596.979724 388.920185 
z
" style="fill:#0000ff;stroke:#0000ff;"/>
    <path clip-path="url(#p1cae57e990)" d="M 610.377455 439.458459 
L 616.501179 427.21101 
L 604.25373 427.21101 
z
" style="fill:#ff0000;stroke:#ff0000;"/>
    <path clip-path="url(#p1cae57e990)" d="M 626.837047 475.698628 
L 629.898909 472.636765 
L 632.960771 475.698628 
L 636.022633 472.636765 
L 632.960771 469.574903 
L 636.022633 466.513041 
L 632.960771 463.451179 
L 629.898909 466.513041 
L 626.837047 463.451179 
L 623.775185 466.513041 
L 626.837047 469.574903 
L 623.775185 472.636765 
z
" style="stroke:#000000;"/>
    <path clip-path="url(#p1cae57e990)" d="M 646.358501 456.345543 
L 649.420364 453.28368 
L 652.482226 456.345543 
L 655.544088 453.28368 
L 652.482226 450.221818 
L 655.544088 447.159956 
L 652.482226 444.098094 
L 649.420364 447.159956 
L 646.358501 444.098094 
L 643.296639 447.159956 
L 646.358501 450.221818 
L 643.296639 453.28368 
z
" style="stroke:#000000;"/>
    <path clip-path="url(#p1cae57e990)" d="M 665.879956 450.105158 
L 668.941818 447.043296 
L 672.00368 450.105158 
L 675.065543 447.043296 
L 672.00368 443.981433 
L 675.065543 440.919571 
L 672.00368 437.857709 
L 668.941818 440.919571 
L 665.879956 437.857709 
L 662.818094 440.919571 
L 665.879956 443.981433 
L 662.818094 447.043296 
z
" style="stroke:#000000;"/>
    <path clip-path="url(#p1cae57e990)" d="M 685.401411 449.481119 
L 688.463273 446.419257 
L 691.525135 449.481119 
L 694.586997 446.419257 
L 691.525135 443.357395 
L 694.586997 440.295533 
L 691.525135 437.233671 
L 688.463273 440.295533 
L 685.401411 437.233671 
L 682.339548 440.295533 
L 685.401411 443.357395 
L 682.339548 446.419257 
z
" style="stroke:#000000;"/>
    <path clip-path="url(#p1cae57e990)" d="M 704.922865 449.418715 
L 707.984727 446.356853 
L 711.046589 449.418715 
L 714.108452 446.356853 
L 711.046589 443.294991 
L 714.108452 440.233129 
L 711.046589 437.171267 
L 707.984727 440.233129 
L 704.922865 437.171267 
L 701.861003 440.233129 
L 704.922865 443.294991 
L 701.861003 446.356853 
z
" style="stroke:#000000;"/>
    <path clip-path="url(#p1cae57e990)" d="M 724.44432 449.412475 
L 727.506182 446.350613 
L 730.568044 449.412475 
L 733.629906 446.350613 
L 730.568044 443.288751 
L 733.629906 440.226889 
L 730.568044 437.165026 
L 727.506182 440.226889 
L 724.44432 437.165026 
L 721.382457 440.226889 
L 724.44432 443.288751 
L 721.382457 446.350613 
z
" style="stroke:#000000;"/>
    <path clip-path="url(#p1cae57e990)" d="M 743.965774 449.411851 
L 747.027636 446.349989 
L 750.089499 449.411851 
L 753.151361 446.349989 
L 750.089499 443.288127 
L 753.151361 440.226264 
L 750.089499 437.164402 
L 747.027636 440.226264 
L 743.965774 437.164402 
L 740.903912 440.226264 
L 743.965774 443.288127 
L 740.903912 446.349989 
z
" style="stroke:#000000;"/>
    <path clip-path="url(#p1cae57e990)" d="M 763.487229 449.411789 
L 766.549091 446.349926 
L 769.610953 449.411789 
L 772.672815 446.349926 
L 769.610953 443.288064 
L 772.672815 440.226202 
L 769.610953 437.16434 
L 766.549091 440.226202 
L 763.487229 437.16434 
L 760.425367 440.226202 
L 763.487229 443.288064 
L 760.425367 446.349926 
z
" style="stroke:#000000;"/>
    <path clip-path="url(#p1cae57e990)" d="M 783.008683 449.411782 
L 786.070545 446.34992 
L 789.132408 449.411782 
L 792.19427 446.34992 
L 789.132408 443.288058 
L 792.19427 440.226196 
L 789.132408 437.164334 
L 786.070545 440.226196 
L 783.008683 437.164334 
L 779.946821 440.226196 
L 783.008683 443.288058 
L 779.946821 446.34992 
z
" style="stroke:#000000;"/>
    <path clip-path="url(#p1cae57e990)" d="M 802.530138 449.411782 
L 805.592 446.34992 
L 808.653862 449.411782 
L 811.715724 446.34992 
L 808.653862 443.288057 
L 811.715724 440.226195 
L 808.653862 437.164333 
L 805.592 440.226195 
L 802.530138 437.164333 
L 799.468276 440.226195 
L 802.530138 443.288057 
L 799.468276 446.34992 
z
" style="stroke:#000000;"/>
    <path clip-path="url(#p1cae57e990)" d="M 822.051592 449.411782 
L 825.113455 446.34992 
L 828.175317 449.411782 
L 831.237179 446.34992 
L 828.175317 443.288057 
L 831.237179 440.226195 
L 828.175317 437.164333 
L 825.113455 440.226195 
L 822.051592 437.164333 
L 818.98973 440.226195 
L 822.051592 443.288057 
L 818.98973 446.34992 
z
" style="stroke:#000000;"/>
    <path clip-path="url(#p1cae57e990)" d="M 841.573047 449.411782 
L 844.634909 446.34992 
L 847.696771 449.411782 
L 850.758633 446.34992 
L 847.696771 443.288057 
L 850.758633 440.226195 
L 847.696771 437.164333 
L 844.634909 440.226195 
L 841.573047 437.164333 
L 838.511185 440.226195 
L 841.573047 443.288057 
L 838.511185 446.34992 
z
" style="stroke:#000000;"/>
    <path clip-path="url(#p1cae57e990)" d="M 861.094501 283.454856 
L 864.156364 280.392994 
L 867.218226 283.454856 
L 870.280088 280.392994 
L 867.218226 277.331132 
L 870.280088 274.26927 
L 867.218226 271.207408 
L 864.156364 274.26927 
L 861.094501 271.207408 
L 858.032639 274.26927 
L 861.094501 277.331132 
L 858.032639 280.392994 
z
" style="stroke:#000000;"/>
   </g>
   <g id="patch_3">
    <path clip-path="url(#p1cae57e990)" d="M 93.058909 526.26652 
L 93.058909 28.395744 
L 483.488 28.395744 
L 483.488 526.26652 
z
" style="fill:#b0e0e6;opacity:0.3;"/>
   </g>
   <g id="patch_4">
    <path clip-path="url(#p1cae57e990)" d="M 483.488 526.26652 
L 483.488 28.395744 
L 873.917091 28.395744 
L 873.917091 526.26652 
z
" style="fill:#ff7f50;opacity:0.3;"/>
   </g>
   <g id="matplotlib.axis_1">
    <g id="xtick_1">
     <g id="line2d_1">
      <defs>
       <path d="M 0 0 
L 0 3.5 
" id="m16adba3677" style="stroke:#000000;stroke-width:0.8;"/>
      </defs>
      <g>
       <use style="stroke:#000000;stroke-width:0.8;" x="93.058909" xlink:href="#m16adba3677" y="526.26652"/>
      </g>
     </g>
     <g id="text_1">
      <!-- 0 -->
      <g transform="translate(88.287034 544.664176)scale(0.15 -0.15)">
       <defs>
        <path d="M 2034 4250 
Q 1547 4250 1301 3770 
Q 1056 3291 1056 2328 
Q 1056 1369 1301 889 
Q 1547 409 2034 409 
Q 2525 409 2770 889 
Q 3016 1369 3016 2328 
Q 3016 3291 2770 3770 
Q 2525 4250 2034 4250 
z
M 2034 4750 
Q 2819 4750 3233 4129 
Q 3647 3509 3647 2328 
Q 3647 1150 3233 529 
Q 2819 -91 2034 -91 
Q 1250 -91 836 529 
Q 422 1150 422 2328 
Q 422 3509 836 4129 
Q 1250 4750 2034 4750 
z
" id="DejaVuSans-30" transform="scale(0.015625)"/>
       </defs>
       <use xlink:href="#DejaVuSans-30"/>
      </g>
     </g>
    </g>
    <g id="xtick_2">
     <g id="line2d_2">
      <g>
       <use style="stroke:#000000;stroke-width:0.8;" x="112.580364" xlink:href="#m16adba3677" y="526.26652"/>
      </g>
     </g>
     <g id="text_2">
      <!-- 1 -->
      <g transform="translate(107.808489 544.664176)scale(0.15 -0.15)">
       <defs>
        <path d="M 794 531 
L 1825 531 
L 1825 4091 
L 703 3866 
L 703 4441 
L 1819 4666 
L 2450 4666 
L 2450 531 
L 3481 531 
L 3481 0 
L 794 0 
L 794 531 
z
" id="DejaVuSans-31" transform="scale(0.015625)"/>
       </defs>
       <use xlink:href="#DejaVuSans-31"/>
      </g>
     </g>
    </g>
    <g id="xtick_3">
     <g id="line2d_3">
      <g>
       <use style="stroke:#000000;stroke-width:0.8;" x="132.101818" xlink:href="#m16adba3677" y="526.26652"/>
      </g>
     </g>
     <g id="text_3">
      <!-- 2 -->
      <g transform="translate(127.329943 544.664176)scale(0.15 -0.15)">
       <defs>
        <path d="M 1228 531 
L 3431 531 
L 3431 0 
L 469 0 
L 469 531 
Q 828 903 1448 1529 
Q 2069 2156 2228 2338 
Q 2531 2678 2651 2914 
Q 2772 3150 2772 3378 
Q 2772 3750 2511 3984 
Q 2250 4219 1831 4219 
Q 1534 4219 1204 4116 
Q 875 4013 500 3803 
L 500 4441 
Q 881 4594 1212 4672 
Q 1544 4750 1819 4750 
Q 2544 4750 2975 4387 
Q 3406 4025 3406 3419 
Q 3406 3131 3298 2873 
Q 3191 2616 2906 2266 
Q 2828 2175 2409 1742 
Q 1991 1309 1228 531 
z
" id="DejaVuSans-32" transform="scale(0.015625)"/>
       </defs>
       <use xlink:href="#DejaVuSans-32"/>
      </g>
     </g>
    </g>
    <g id="xtick_4">
     <g id="line2d_4">
      <g>
       <use style="stroke:#000000;stroke-width:0.8;" x="151.623273" xlink:href="#m16adba3677" y="526.26652"/>
      </g>
     </g>
     <g id="text_4">
      <!-- 3 -->
      <g transform="translate(146.851398 544.664176)scale(0.15 -0.15)">
       <defs>
        <path d="M 2597 2516 
Q 3050 2419 3304 2112 
Q 3559 1806 3559 1356 
Q 3559 666 3084 287 
Q 2609 -91 1734 -91 
Q 1441 -91 1130 -33 
Q 819 25 488 141 
L 488 750 
Q 750 597 1062 519 
Q 1375 441 1716 441 
Q 2309 441 2620 675 
Q 2931 909 2931 1356 
Q 2931 1769 2642 2001 
Q 2353 2234 1838 2234 
L 1294 2234 
L 1294 2753 
L 1863 2753 
Q 2328 2753 2575 2939 
Q 2822 3125 2822 3475 
Q 2822 3834 2567 4026 
Q 2313 4219 1838 4219 
Q 1578 4219 1281 4162 
Q 984 4106 628 3988 
L 628 4550 
Q 988 4650 1302 4700 
Q 1616 4750 1894 4750 
Q 2613 4750 3031 4423 
Q 3450 4097 3450 3541 
Q 3450 3153 3228 2886 
Q 3006 2619 2597 2516 
z
" id="DejaVuSans-33" transform="scale(0.015625)"/>
       </defs>
       <use xlink:href="#DejaVuSans-33"/>
      </g>
     </g>
    </g>
    <g id="xtick_5">
     <g id="line2d_5">
      <g>
       <use style="stroke:#000000;stroke-width:0.8;" x="171.144727" xlink:href="#m16adba3677" y="526.26652"/>
      </g>
     </g>
     <g id="text_5">
      <!-- 4 -->
      <g transform="translate(166.372852 544.664176)scale(0.15 -0.15)">
       <defs>
        <path d="M 2419 4116 
L 825 1625 
L 2419 1625 
L 2419 4116 
z
M 2253 4666 
L 3047 4666 
L 3047 1625 
L 3713 1625 
L 3713 1100 
L 3047 1100 
L 3047 0 
L 2419 0 
L 2419 1100 
L 313 1100 
L 313 1709 
L 2253 4666 
z
" id="DejaVuSans-34" transform="scale(0.015625)"/>
       </defs>
       <use xlink:href="#DejaVuSans-34"/>
      </g>
     </g>
    </g>
    <g id="xtick_6">
     <g id="line2d_6">
      <g>
       <use style="stroke:#000000;stroke-width:0.8;" x="190.666182" xlink:href="#m16adba3677" y="526.26652"/>
      </g>
     </g>
     <g id="text_6">
      <!-- 5 -->
      <g transform="translate(185.894307 544.664176)scale(0.15 -0.15)">
       <defs>
        <path d="M 691 4666 
L 3169 4666 
L 3169 4134 
L 1269 4134 
L 1269 2991 
Q 1406 3038 1543 3061 
Q 1681 3084 1819 3084 
Q 2600 3084 3056 2656 
Q 3513 2228 3513 1497 
Q 3513 744 3044 326 
Q 2575 -91 1722 -91 
Q 1428 -91 1123 -41 
Q 819 9 494 109 
L 494 744 
Q 775 591 1075 516 
Q 1375 441 1709 441 
Q 2250 441 2565 725 
Q 2881 1009 2881 1497 
Q 2881 1984 2565 2268 
Q 2250 2553 1709 2553 
Q 1456 2553 1204 2497 
Q 953 2441 691 2322 
L 691 4666 
z
" id="DejaVuSans-35" transform="scale(0.015625)"/>
       </defs>
       <use xlink:href="#DejaVuSans-35"/>
      </g>
     </g>
    </g>
    <g id="xtick_7">
     <g id="line2d_7">
      <g>
       <use style="stroke:#000000;stroke-width:0.8;" x="210.187636" xlink:href="#m16adba3677" y="526.26652"/>
      </g>
     </g>
     <g id="text_7">
      <!-- 6 -->
      <g transform="translate(205.415761 544.664176)scale(0.15 -0.15)">
       <defs>
        <path d="M 2113 2584 
Q 1688 2584 1439 2293 
Q 1191 2003 1191 1497 
Q 1191 994 1439 701 
Q 1688 409 2113 409 
Q 2538 409 2786 701 
Q 3034 994 3034 1497 
Q 3034 2003 2786 2293 
Q 2538 2584 2113 2584 
z
M 3366 4563 
L 3366 3988 
Q 3128 4100 2886 4159 
Q 2644 4219 2406 4219 
Q 1781 4219 1451 3797 
Q 1122 3375 1075 2522 
Q 1259 2794 1537 2939 
Q 1816 3084 2150 3084 
Q 2853 3084 3261 2657 
Q 3669 2231 3669 1497 
Q 3669 778 3244 343 
Q 2819 -91 2113 -91 
Q 1303 -91 875 529 
Q 447 1150 447 2328 
Q 447 3434 972 4092 
Q 1497 4750 2381 4750 
Q 2619 4750 2861 4703 
Q 3103 4656 3366 4563 
z
" id="DejaVuSans-36" transform="scale(0.015625)"/>
       </defs>
       <use xlink:href="#DejaVuSans-36"/>
      </g>
     </g>
    </g>
    <g id="xtick_8">
     <g id="line2d_8">
      <g>
       <use style="stroke:#000000;stroke-width:0.8;" x="229.709091" xlink:href="#m16adba3677" y="526.26652"/>
      </g>
     </g>
     <g id="text_8">
      <!-- 7 -->
      <g transform="translate(224.937216 544.664176)scale(0.15 -0.15)">
       <defs>
        <path d="M 525 4666 
L 3525 4666 
L 3525 4397 
L 1831 0 
L 1172 0 
L 2766 4134 
L 525 4134 
L 525 4666 
z
" id="DejaVuSans-37" transform="scale(0.015625)"/>
       </defs>
       <use xlink:href="#DejaVuSans-37"/>
      </g>
     </g>
    </g>
    <g id="xtick_9">
     <g id="line2d_9">
      <g>
       <use style="stroke:#000000;stroke-width:0.8;" x="249.230545" xlink:href="#m16adba3677" y="526.26652"/>
      </g>
     </g>
     <g id="text_9">
      <!-- 8 -->
      <g transform="translate(244.45867 544.664176)scale(0.15 -0.15)">
       <defs>
        <path d="M 2034 2216 
Q 1584 2216 1326 1975 
Q 1069 1734 1069 1313 
Q 1069 891 1326 650 
Q 1584 409 2034 409 
Q 2484 409 2743 651 
Q 3003 894 3003 1313 
Q 3003 1734 2745 1975 
Q 2488 2216 2034 2216 
z
M 1403 2484 
Q 997 2584 770 2862 
Q 544 3141 544 3541 
Q 544 4100 942 4425 
Q 1341 4750 2034 4750 
Q 2731 4750 3128 4425 
Q 3525 4100 3525 3541 
Q 3525 3141 3298 2862 
Q 3072 2584 2669 2484 
Q 3125 2378 3379 2068 
Q 3634 1759 3634 1313 
Q 3634 634 3220 271 
Q 2806 -91 2034 -91 
Q 1263 -91 848 271 
Q 434 634 434 1313 
Q 434 1759 690 2068 
Q 947 2378 1403 2484 
z
M 1172 3481 
Q 1172 3119 1398 2916 
Q 1625 2713 2034 2713 
Q 2441 2713 2670 2916 
Q 2900 3119 2900 3481 
Q 2900 3844 2670 4047 
Q 2441 4250 2034 4250 
Q 1625 4250 1398 4047 
Q 1172 3844 1172 3481 
z
" id="DejaVuSans-38" transform="scale(0.015625)"/>
       </defs>
       <use xlink:href="#DejaVuSans-38"/>
      </g>
     </g>
    </g>
    <g id="xtick_10">
     <g id="line2d_10">
      <g>
       <use style="stroke:#000000;stroke-width:0.8;" x="268.752" xlink:href="#m16adba3677" y="526.26652"/>
      </g>
     </g>
     <g id="text_10">
      <!-- 9 -->
      <g transform="translate(263.980125 544.664176)scale(0.15 -0.15)">
       <defs>
        <path d="M 703 97 
L 703 672 
Q 941 559 1184 500 
Q 1428 441 1663 441 
Q 2288 441 2617 861 
Q 2947 1281 2994 2138 
Q 2813 1869 2534 1725 
Q 2256 1581 1919 1581 
Q 1219 1581 811 2004 
Q 403 2428 403 3163 
Q 403 3881 828 4315 
Q 1253 4750 1959 4750 
Q 2769 4750 3195 4129 
Q 3622 3509 3622 2328 
Q 3622 1225 3098 567 
Q 2575 -91 1691 -91 
Q 1453 -91 1209 -44 
Q 966 3 703 97 
z
M 1959 2075 
Q 2384 2075 2632 2365 
Q 2881 2656 2881 3163 
Q 2881 3666 2632 3958 
Q 2384 4250 1959 4250 
Q 1534 4250 1286 3958 
Q 1038 3666 1038 3163 
Q 1038 2656 1286 2365 
Q 1534 2075 1959 2075 
z
" id="DejaVuSans-39" transform="scale(0.015625)"/>
       </defs>
       <use xlink:href="#DejaVuSans-39"/>
      </g>
     </g>
    </g>
    <g id="xtick_11">
     <g id="line2d_11">
      <g>
       <use style="stroke:#000000;stroke-width:0.8;" x="288.273455" xlink:href="#m16adba3677" y="526.26652"/>
      </g>
     </g>
     <g id="text_11">
      <!-- 10 -->
      <g transform="translate(278.729705 544.664176)scale(0.15 -0.15)">
       <use xlink:href="#DejaVuSans-31"/>
       <use x="63.623047" xlink:href="#DejaVuSans-30"/>
      </g>
     </g>
    </g>
    <g id="xtick_12">
     <g id="line2d_12">
      <g>
       <use style="stroke:#000000;stroke-width:0.8;" x="307.794909" xlink:href="#m16adba3677" y="526.26652"/>
      </g>
     </g>
     <g id="text_12">
      <!-- 11 -->
      <g transform="translate(298.251159 544.664176)scale(0.15 -0.15)">
       <use xlink:href="#DejaVuSans-31"/>
       <use x="63.623047" xlink:href="#DejaVuSans-31"/>
      </g>
     </g>
    </g>
    <g id="xtick_13">
     <g id="line2d_13">
      <g>
       <use style="stroke:#000000;stroke-width:0.8;" x="327.316364" xlink:href="#m16adba3677" y="526.26652"/>
      </g>
     </g>
     <g id="text_13">
      <!-- 12 -->
      <g transform="translate(317.772614 544.664176)scale(0.15 -0.15)">
       <use xlink:href="#DejaVuSans-31"/>
       <use x="63.623047" xlink:href="#DejaVuSans-32"/>
      </g>
     </g>
    </g>
    <g id="xtick_14">
     <g id="line2d_14">
      <g>
       <use style="stroke:#000000;stroke-width:0.8;" x="346.837818" xlink:href="#m16adba3677" y="526.26652"/>
      </g>
     </g>
     <g id="text_14">
      <!-- 13 -->
      <g transform="translate(337.294068 544.664176)scale(0.15 -0.15)">
       <use xlink:href="#DejaVuSans-31"/>
       <use x="63.623047" xlink:href="#DejaVuSans-33"/>
      </g>
     </g>
    </g>
    <g id="xtick_15">
     <g id="line2d_15">
      <g>
       <use style="stroke:#000000;stroke-width:0.8;" x="366.359273" xlink:href="#m16adba3677" y="526.26652"/>
      </g>
     </g>
     <g id="text_15">
      <!-- 14 -->
      <g transform="translate(356.815523 544.664176)scale(0.15 -0.15)">
       <use xlink:href="#DejaVuSans-31"/>
       <use x="63.623047" xlink:href="#DejaVuSans-34"/>
      </g>
     </g>
    </g>
    <g id="xtick_16">
     <g id="line2d_16">
      <g>
       <use style="stroke:#000000;stroke-width:0.8;" x="385.880727" xlink:href="#m16adba3677" y="526.26652"/>
      </g>
     </g>
     <g id="text_16">
      <!-- 15 -->
      <g transform="translate(376.336977 544.664176)scale(0.15 -0.15)">
       <use xlink:href="#DejaVuSans-31"/>
       <use x="63.623047" xlink:href="#DejaVuSans-35"/>
      </g>
     </g>
    </g>
    <g id="xtick_17">
     <g id="line2d_17">
      <g>
       <use style="stroke:#000000;stroke-width:0.8;" x="405.402182" xlink:href="#m16adba3677" y="526.26652"/>
      </g>
     </g>
     <g id="text_17">
      <!-- 16 -->
      <g transform="translate(395.858432 544.664176)scale(0.15 -0.15)">
       <use xlink:href="#DejaVuSans-31"/>
       <use x="63.623047" xlink:href="#DejaVuSans-36"/>
      </g>
     </g>
    </g>
    <g id="xtick_18">
     <g id="line2d_18">
      <g>
       <use style="stroke:#000000;stroke-width:0.8;" x="424.923636" xlink:href="#m16adba3677" y="526.26652"/>
      </g>
     </g>
     <g id="text_18">
      <!-- 17 -->
      <g transform="translate(415.379886 544.664176)scale(0.15 -0.15)">
       <use xlink:href="#DejaVuSans-31"/>
       <use x="63.623047" xlink:href="#DejaVuSans-37"/>
      </g>
     </g>
    </g>
    <g id="xtick_19">
     <g id="line2d_19">
      <g>
       <use style="stroke:#000000;stroke-width:0.8;" x="444.445091" xlink:href="#m16adba3677" y="526.26652"/>
      </g>
     </g>
     <g id="text_19">
      <!-- 18 -->
      <g transform="translate(434.901341 544.664176)scale(0.15 -0.15)">
       <use xlink:href="#DejaVuSans-31"/>
       <use x="63.623047" xlink:href="#DejaVuSans-38"/>
      </g>
     </g>
    </g>
    <g id="xtick_20">
     <g id="line2d_20">
      <g>
       <use style="stroke:#000000;stroke-width:0.8;" x="463.966545" xlink:href="#m16adba3677" y="526.26652"/>
      </g>
     </g>
     <g id="text_20">
      <!-- 19 -->
      <g transform="translate(454.422795 544.664176)scale(0.15 -0.15)">
       <use xlink:href="#DejaVuSans-31"/>
       <use x="63.623047" xlink:href="#DejaVuSans-39"/>
      </g>
     </g>
    </g>
    <g id="xtick_21">
     <g id="line2d_21">
      <g>
       <use style="stroke:#000000;stroke-width:0.8;" x="483.488" xlink:href="#m16adba3677" y="526.26652"/>
      </g>
     </g>
     <g id="text_21">
      <!-- 20 -->
      <g transform="translate(473.94425 544.664176)scale(0.15 -0.15)">
       <use xlink:href="#DejaVuSans-32"/>
       <use x="63.623047" xlink:href="#DejaVuSans-30"/>
      </g>
     </g>
    </g>
    <g id="xtick_22">
     <g id="line2d_22">
      <g>
       <use style="stroke:#000000;stroke-width:0.8;" x="503.009455" xlink:href="#m16adba3677" y="526.26652"/>
      </g>
     </g>
     <g id="text_22">
      <!-- 21 -->
      <g transform="translate(493.465705 544.664176)scale(0.15 -0.15)">
       <use xlink:href="#DejaVuSans-32"/>
       <use x="63.623047" xlink:href="#DejaVuSans-31"/>
      </g>
     </g>
    </g>
    <g id="xtick_23">
     <g id="line2d_23">
      <g>
       <use style="stroke:#000000;stroke-width:0.8;" x="522.530909" xlink:href="#m16adba3677" y="526.26652"/>
      </g>
     </g>
     <g id="text_23">
      <!-- 22 -->
      <g transform="translate(512.987159 544.664176)scale(0.15 -0.15)">
       <use xlink:href="#DejaVuSans-32"/>
       <use x="63.623047" xlink:href="#DejaVuSans-32"/>
      </g>
     </g>
    </g>
    <g id="xtick_24">
     <g id="line2d_24">
      <g>
       <use style="stroke:#000000;stroke-width:0.8;" x="542.052364" xlink:href="#m16adba3677" y="526.26652"/>
      </g>
     </g>
     <g id="text_24">
      <!-- 23 -->
      <g transform="translate(532.508614 544.664176)scale(0.15 -0.15)">
       <use xlink:href="#DejaVuSans-32"/>
       <use x="63.623047" xlink:href="#DejaVuSans-33"/>
      </g>
     </g>
    </g>
    <g id="xtick_25">
     <g id="line2d_25">
      <g>
       <use style="stroke:#000000;stroke-width:0.8;" x="561.573818" xlink:href="#m16adba3677" y="526.26652"/>
      </g>
     </g>
     <g id="text_25">
      <!-- 24 -->
      <g transform="translate(552.030068 544.664176)scale(0.15 -0.15)">
       <use xlink:href="#DejaVuSans-32"/>
       <use x="63.623047" xlink:href="#DejaVuSans-34"/>
      </g>
     </g>
    </g>
    <g id="xtick_26">
     <g id="line2d_26">
      <g>
       <use style="stroke:#000000;stroke-width:0.8;" x="581.095273" xlink:href="#m16adba3677" y="526.26652"/>
      </g>
     </g>
     <g id="text_26">
      <!-- 25 -->
      <g transform="translate(571.551523 544.664176)scale(0.15 -0.15)">
       <use xlink:href="#DejaVuSans-32"/>
       <use x="63.623047" xlink:href="#DejaVuSans-35"/>
      </g>
     </g>
    </g>
    <g id="xtick_27">
     <g id="line2d_27">
      <g>
       <use style="stroke:#000000;stroke-width:0.8;" x="600.616727" xlink:href="#m16adba3677" y="526.26652"/>
      </g>
     </g>
     <g id="text_27">
      <!-- 26 -->
      <g transform="translate(591.072977 544.664176)scale(0.15 -0.15)">
       <use xlink:href="#DejaVuSans-32"/>
       <use x="63.623047" xlink:href="#DejaVuSans-36"/>
      </g>
     </g>
    </g>
    <g id="xtick_28">
     <g id="line2d_28">
      <g>
       <use style="stroke:#000000;stroke-width:0.8;" x="620.138182" xlink:href="#m16adba3677" y="526.26652"/>
      </g>
     </g>
     <g id="text_28">
      <!-- 27 -->
      <g transform="translate(610.594432 544.664176)scale(0.15 -0.15)">
       <use xlink:href="#DejaVuSans-32"/>
       <use x="63.623047" xlink:href="#DejaVuSans-37"/>
      </g>
     </g>
    </g>
    <g id="xtick_29">
     <g id="line2d_29">
      <g>
       <use style="stroke:#000000;stroke-width:0.8;" x="639.659636" xlink:href="#m16adba3677" y="526.26652"/>
      </g>
     </g>
     <g id="text_29">
      <!-- 28 -->
      <g transform="translate(630.115886 544.664176)scale(0.15 -0.15)">
       <use xlink:href="#DejaVuSans-32"/>
       <use x="63.623047" xlink:href="#DejaVuSans-38"/>
      </g>
     </g>
    </g>
    <g id="xtick_30">
     <g id="line2d_30">
      <g>
       <use style="stroke:#000000;stroke-width:0.8;" x="659.181091" xlink:href="#m16adba3677" y="526.26652"/>
      </g>
     </g>
     <g id="text_30">
      <!-- 29 -->
      <g transform="translate(649.637341 544.664176)scale(0.15 -0.15)">
       <use xlink:href="#DejaVuSans-32"/>
       <use x="63.623047" xlink:href="#DejaVuSans-39"/>
      </g>
     </g>
    </g>
    <g id="xtick_31">
     <g id="line2d_31">
      <g>
       <use style="stroke:#000000;stroke-width:0.8;" x="678.702545" xlink:href="#m16adba3677" y="526.26652"/>
      </g>
     </g>
     <g id="text_31">
      <!-- 30 -->
      <g transform="translate(669.158795 544.664176)scale(0.15 -0.15)">
       <use xlink:href="#DejaVuSans-33"/>
       <use x="63.623047" xlink:href="#DejaVuSans-30"/>
      </g>
     </g>
    </g>
    <g id="xtick_32">
     <g id="line2d_32">
      <g>
       <use style="stroke:#000000;stroke-width:0.8;" x="698.224" xlink:href="#m16adba3677" y="526.26652"/>
      </g>
     </g>
     <g id="text_32">
      <!-- 31 -->
      <g transform="translate(688.68025 544.664176)scale(0.15 -0.15)">
       <use xlink:href="#DejaVuSans-33"/>
       <use x="63.623047" xlink:href="#DejaVuSans-31"/>
      </g>
     </g>
    </g>
    <g id="xtick_33">
     <g id="line2d_33">
      <g>
       <use style="stroke:#000000;stroke-width:0.8;" x="717.745455" xlink:href="#m16adba3677" y="526.26652"/>
      </g>
     </g>
     <g id="text_33">
      <!-- 32 -->
      <g transform="translate(708.201705 544.664176)scale(0.15 -0.15)">
       <use xlink:href="#DejaVuSans-33"/>
       <use x="63.623047" xlink:href="#DejaVuSans-32"/>
      </g>
     </g>
    </g>
    <g id="xtick_34">
     <g id="line2d_34">
      <g>
       <use style="stroke:#000000;stroke-width:0.8;" x="737.266909" xlink:href="#m16adba3677" y="526.26652"/>
      </g>
     </g>
     <g id="text_34">
      <!-- 33 -->
      <g transform="translate(727.723159 544.664176)scale(0.15 -0.15)">
       <use xlink:href="#DejaVuSans-33"/>
       <use x="63.623047" xlink:href="#DejaVuSans-33"/>
      </g>
     </g>
    </g>
    <g id="xtick_35">
     <g id="line2d_35">
      <g>
       <use style="stroke:#000000;stroke-width:0.8;" x="756.788364" xlink:href="#m16adba3677" y="526.26652"/>
      </g>
     </g>
     <g id="text_35">
      <!-- 34 -->
      <g transform="translate(747.244614 544.664176)scale(0.15 -0.15)">
       <use xlink:href="#DejaVuSans-33"/>
       <use x="63.623047" xlink:href="#DejaVuSans-34"/>
      </g>
     </g>
    </g>
    <g id="xtick_36">
     <g id="line2d_36">
      <g>
       <use style="stroke:#000000;stroke-width:0.8;" x="776.309818" xlink:href="#m16adba3677" y="526.26652"/>
      </g>
     </g>
     <g id="text_36">
      <!-- 35 -->
      <g transform="translate(766.766068 544.664176)scale(0.15 -0.15)">
       <use xlink:href="#DejaVuSans-33"/>
       <use x="63.623047" xlink:href="#DejaVuSans-35"/>
      </g>
     </g>
    </g>
    <g id="xtick_37">
     <g id="line2d_37">
      <g>
       <use style="stroke:#000000;stroke-width:0.8;" x="795.831273" xlink:href="#m16adba3677" y="526.26652"/>
      </g>
     </g>
     <g id="text_37">
      <!-- 36 -->
      <g transform="translate(786.287523 544.664176)scale(0.15 -0.15)">
       <use xlink:href="#DejaVuSans-33"/>
       <use x="63.623047" xlink:href="#DejaVuSans-36"/>
      </g>
     </g>
    </g>
    <g id="xtick_38">
     <g id="line2d_38">
      <g>
       <use style="stroke:#000000;stroke-width:0.8;" x="815.352727" xlink:href="#m16adba3677" y="526.26652"/>
      </g>
     </g>
     <g id="text_38">
      <!-- 37 -->
      <g transform="translate(805.808977 544.664176)scale(0.15 -0.15)">
       <use xlink:href="#DejaVuSans-33"/>
       <use x="63.623047" xlink:href="#DejaVuSans-37"/>
      </g>
     </g>
    </g>
    <g id="xtick_39">
     <g id="line2d_39">
      <g>
       <use style="stroke:#000000;stroke-width:0.8;" x="834.874182" xlink:href="#m16adba3677" y="526.26652"/>
      </g>
     </g>
     <g id="text_39">
      <!-- 38 -->
      <g transform="translate(825.330432 544.664176)scale(0.15 -0.15)">
       <use xlink:href="#DejaVuSans-33"/>
       <use x="63.623047" xlink:href="#DejaVuSans-38"/>
      </g>
     </g>
    </g>
    <g id="xtick_40">
     <g id="line2d_40">
      <g>
       <use style="stroke:#000000;stroke-width:0.8;" x="854.395636" xlink:href="#m16adba3677" y="526.26652"/>
      </g>
     </g>
     <g id="text_40">
      <!-- 39 -->
      <g transform="translate(844.851886 544.664176)scale(0.15 -0.15)">
       <use xlink:href="#DejaVuSans-33"/>
       <use x="63.623047" xlink:href="#DejaVuSans-39"/>
      </g>
     </g>
    </g>
    <g id="text_41">
     <!-- $t$ -->
     <g transform="translate(479.488 566.980583)scale(0.2 -0.2)">
      <defs>
       <path d="M 2706 3500 
L 2619 3053 
L 1472 3053 
L 1100 1153 
Q 1081 1047 1072 975 
Q 1063 903 1063 863 
Q 1063 663 1183 572 
Q 1303 481 1569 481 
L 2150 481 
L 2053 0 
L 1503 0 
Q 991 0 739 200 
Q 488 400 488 806 
Q 488 878 497 964 
Q 506 1050 525 1153 
L 897 3053 
L 409 3053 
L 500 3500 
L 978 3500 
L 1172 4494 
L 1747 4494 
L 1556 3500 
L 2706 3500 
z
" id="DejaVuSans-Oblique-74" transform="scale(0.015625)"/>
      </defs>
      <use transform="translate(0 0.78125)" xlink:href="#DejaVuSans-Oblique-74"/>
     </g>
    </g>
   </g>
   <g id="matplotlib.axis_2">
    <g id="ytick_1">
     <g id="line2d_41">
      <defs>
       <path d="M 0 0 
L -3.5 0 
" id="m9ecb7322b6" style="stroke:#000000;stroke-width:0.8;"/>
      </defs>
      <g>
       <use style="stroke:#000000;stroke-width:0.8;" x="54.016" xlink:href="#m9ecb7322b6" y="526.26652"/>
      </g>
     </g>
     <g id="text_42">
      <!-- 0.0 -->
      <g transform="translate(23.161313 531.965348)scale(0.15 -0.15)">
       <defs>
        <path d="M 684 794 
L 1344 794 
L 1344 0 
L 684 0 
L 684 794 
z
" id="DejaVuSans-2e" transform="scale(0.015625)"/>
       </defs>
       <use xlink:href="#DejaVuSans-30"/>
       <use x="63.623047" xlink:href="#DejaVuSans-2e"/>
       <use x="95.410156" xlink:href="#DejaVuSans-30"/>
      </g>
     </g>
    </g>
    <g id="ytick_2">
     <g id="line2d_42">
      <g>
       <use style="stroke:#000000;stroke-width:0.8;" x="54.016" xlink:href="#m9ecb7322b6" y="426.692365"/>
      </g>
     </g>
     <g id="text_43">
      <!-- 0.2 -->
      <g transform="translate(23.161313 432.391193)scale(0.15 -0.15)">
       <use xlink:href="#DejaVuSans-30"/>
       <use x="63.623047" xlink:href="#DejaVuSans-2e"/>
       <use x="95.410156" xlink:href="#DejaVuSans-32"/>
      </g>
     </g>
    </g>
    <g id="ytick_3">
     <g id="line2d_43">
      <g>
       <use style="stroke:#000000;stroke-width:0.8;" x="54.016" xlink:href="#m9ecb7322b6" y="327.11821"/>
      </g>
     </g>
     <g id="text_44">
      <!-- 0.4 -->
      <g transform="translate(23.161313 332.817038)scale(0.15 -0.15)">
       <use xlink:href="#DejaVuSans-30"/>
       <use x="63.623047" xlink:href="#DejaVuSans-2e"/>
       <use x="95.410156" xlink:href="#DejaVuSans-34"/>
      </g>
     </g>
    </g>
    <g id="ytick_4">
     <g id="line2d_44">
      <g>
       <use style="stroke:#000000;stroke-width:0.8;" x="54.016" xlink:href="#m9ecb7322b6" y="227.544054"/>
      </g>
     </g>
     <g id="text_45">
      <!-- 0.6 -->
      <g transform="translate(23.161313 233.242883)scale(0.15 -0.15)">
       <use xlink:href="#DejaVuSans-30"/>
       <use x="63.623047" xlink:href="#DejaVuSans-2e"/>
       <use x="95.410156" xlink:href="#DejaVuSans-36"/>
      </g>
     </g>
    </g>
    <g id="ytick_5">
     <g id="line2d_45">
      <g>
       <use style="stroke:#000000;stroke-width:0.8;" x="54.016" xlink:href="#m9ecb7322b6" y="127.969899"/>
      </g>
     </g>
     <g id="text_46">
      <!-- 0.8 -->
      <g transform="translate(23.161313 133.668727)scale(0.15 -0.15)">
       <use xlink:href="#DejaVuSans-30"/>
       <use x="63.623047" xlink:href="#DejaVuSans-2e"/>
       <use x="95.410156" xlink:href="#DejaVuSans-38"/>
      </g>
     </g>
    </g>
    <g id="ytick_6">
     <g id="line2d_46">
      <g>
       <use style="stroke:#000000;stroke-width:0.8;" x="54.016" xlink:href="#m9ecb7322b6" y="28.395744"/>
      </g>
     </g>
     <g id="text_47">
      <!-- 1.0 -->
      <g transform="translate(23.161313 34.094572)scale(0.15 -0.15)">
       <use xlink:href="#DejaVuSans-31"/>
       <use x="63.623047" xlink:href="#DejaVuSans-2e"/>
       <use x="95.410156" xlink:href="#DejaVuSans-30"/>
      </g>
     </g>
    </g>
    <g id="text_48">
     <!-- $p(context)$ -->
     <g transform="translate(14.961313 329.431132)rotate(-90)scale(0.2 -0.2)">
      <defs>
       <path d="M 3175 2156 
Q 3175 2616 2975 2859 
Q 2775 3103 2400 3103 
Q 2144 3103 1911 2972 
Q 1678 2841 1497 2591 
Q 1319 2344 1212 1994 
Q 1106 1644 1106 1300 
Q 1106 863 1306 627 
Q 1506 391 1875 391 
Q 2147 391 2380 519 
Q 2613 647 2778 891 
Q 2956 1147 3065 1494 
Q 3175 1841 3175 2156 
z
M 1394 2969 
Q 1625 3272 1939 3428 
Q 2253 3584 2638 3584 
Q 3175 3584 3472 3232 
Q 3769 2881 3769 2247 
Q 3769 1728 3584 1258 
Q 3400 788 3053 416 
Q 2822 169 2531 39 
Q 2241 -91 1919 -91 
Q 1547 -91 1294 64 
Q 1041 219 916 525 
L 556 -1331 
L -19 -1331 
L 922 3500 
L 1497 3500 
L 1394 2969 
z
" id="DejaVuSans-Oblique-70" transform="scale(0.015625)"/>
       <path d="M 1984 4856 
Q 1566 4138 1362 3434 
Q 1159 2731 1159 2009 
Q 1159 1288 1364 580 
Q 1569 -128 1984 -844 
L 1484 -844 
Q 1016 -109 783 600 
Q 550 1309 550 2009 
Q 550 2706 781 3412 
Q 1013 4119 1484 4856 
L 1984 4856 
z
" id="DejaVuSans-28" transform="scale(0.015625)"/>
       <path d="M 3431 3366 
L 3316 2797 
Q 3109 2947 2876 3022 
Q 2644 3097 2394 3097 
Q 2119 3097 1870 3000 
Q 1622 2903 1453 2725 
Q 1184 2453 1037 2087 
Q 891 1722 891 1331 
Q 891 859 1127 628 
Q 1363 397 1844 397 
Q 2081 397 2348 469 
Q 2616 541 2906 684 
L 2797 116 
Q 2547 13 2283 -39 
Q 2019 -91 1741 -91 
Q 1044 -91 669 257 
Q 294 606 294 1253 
Q 294 1797 489 2255 
Q 684 2713 1069 3078 
Q 1331 3328 1684 3456 
Q 2038 3584 2456 3584 
Q 2700 3584 2940 3529 
Q 3181 3475 3431 3366 
z
" id="DejaVuSans-Oblique-63" transform="scale(0.015625)"/>
       <path d="M 1625 -91 
Q 1009 -91 651 289 
Q 294 669 294 1325 
Q 294 1706 417 2101 
Q 541 2497 738 2766 
Q 1047 3184 1428 3384 
Q 1809 3584 2291 3584 
Q 2888 3584 3255 3212 
Q 3622 2841 3622 2241 
Q 3622 1825 3500 1412 
Q 3378 1000 3181 728 
Q 2875 309 2494 109 
Q 2113 -91 1625 -91 
z
M 891 1344 
Q 891 869 1089 633 
Q 1288 397 1691 397 
Q 2269 397 2648 901 
Q 3028 1406 3028 2181 
Q 3028 2634 2825 2865 
Q 2622 3097 2228 3097 
Q 1903 3097 1650 2945 
Q 1397 2794 1197 2484 
Q 1050 2253 970 1956 
Q 891 1659 891 1344 
z
" id="DejaVuSans-Oblique-6f" transform="scale(0.015625)"/>
       <path d="M 3566 2113 
L 3156 0 
L 2578 0 
L 2988 2091 
Q 3016 2238 3031 2350 
Q 3047 2463 3047 2528 
Q 3047 2791 2881 2937 
Q 2716 3084 2419 3084 
Q 1956 3084 1622 2776 
Q 1288 2469 1184 1941 
L 800 0 
L 225 0 
L 903 3500 
L 1478 3500 
L 1363 2950 
Q 1603 3253 1940 3418 
Q 2278 3584 2650 3584 
Q 3113 3584 3367 3334 
Q 3622 3084 3622 2631 
Q 3622 2519 3608 2391 
Q 3594 2263 3566 2113 
z
" id="DejaVuSans-Oblique-6e" transform="scale(0.015625)"/>
       <path d="M 3078 2063 
Q 3088 2113 3092 2166 
Q 3097 2219 3097 2272 
Q 3097 2653 2873 2875 
Q 2650 3097 2266 3097 
Q 1838 3097 1509 2826 
Q 1181 2556 1013 2059 
L 3078 2063 
z
M 3578 1613 
L 903 1613 
Q 884 1494 878 1425 
Q 872 1356 872 1306 
Q 872 872 1139 634 
Q 1406 397 1894 397 
Q 2269 397 2603 481 
Q 2938 566 3225 728 
L 3116 159 
Q 2806 34 2476 -28 
Q 2147 -91 1806 -91 
Q 1078 -91 686 257 
Q 294 606 294 1247 
Q 294 1794 489 2264 
Q 684 2734 1063 3103 
Q 1306 3334 1642 3459 
Q 1978 3584 2356 3584 
Q 2950 3584 3301 3228 
Q 3653 2872 3653 2272 
Q 3653 2128 3634 1964 
Q 3616 1800 3578 1613 
z
" id="DejaVuSans-Oblique-65" transform="scale(0.015625)"/>
       <path d="M 3841 3500 
L 2234 1784 
L 3219 0 
L 2559 0 
L 1819 1388 
L 531 0 
L -166 0 
L 1556 1844 
L 641 3500 
L 1300 3500 
L 1972 2234 
L 3144 3500 
L 3841 3500 
z
" id="DejaVuSans-Oblique-78" transform="scale(0.015625)"/>
       <path d="M 513 4856 
L 1013 4856 
Q 1481 4119 1714 3412 
Q 1947 2706 1947 2009 
Q 1947 1309 1714 600 
Q 1481 -109 1013 -844 
L 513 -844 
Q 928 -128 1133 580 
Q 1338 1288 1338 2009 
Q 1338 2731 1133 3434 
Q 928 4138 513 4856 
z
" id="DejaVuSans-29" transform="scale(0.015625)"/>
      </defs>
      <use transform="translate(0 0.125)" xlink:href="#DejaVuSans-Oblique-70"/>
      <use transform="translate(63.476562 0.125)" xlink:href="#DejaVuSans-28"/>
      <use transform="translate(102.490234 0.125)" xlink:href="#DejaVuSans-Oblique-63"/>
      <use transform="translate(157.470703 0.125)" xlink:href="#DejaVuSans-Oblique-6f"/>
      <use transform="translate(218.652344 0.125)" xlink:href="#DejaVuSans-Oblique-6e"/>
      <use transform="translate(282.03125 0.125)" xlink:href="#DejaVuSans-Oblique-74"/>
      <use transform="translate(321.240234 0.125)" xlink:href="#DejaVuSans-Oblique-65"/>
      <use transform="translate(382.763672 0.125)" xlink:href="#DejaVuSans-Oblique-78"/>
      <use transform="translate(441.943359 0.125)" xlink:href="#DejaVuSans-Oblique-74"/>
      <use transform="translate(481.152344 0.125)" xlink:href="#DejaVuSans-29"/>
     </g>
    </g>
   </g>
   <g id="line2d_47">
    <path clip-path="url(#p1cae57e990)" d="M 93.058909 327.11821 
L 112.580364 314.016347 
L 132.101818 313.840927 
L 151.623273 321.91409 
L 171.144727 329.316849 
L 190.666182 490.448964 
L 210.187636 373.945088 
L 229.709091 348.280056 
L 249.230545 352.397752 
L 268.752 356.899439 
L 288.273455 487.690392 
L 307.794909 395.557656 
L 327.316364 369.373228 
L 346.837818 371.544148 
L 366.359273 374.49181 
L 385.880727 377.209109 
L 405.402182 485.155375 
L 424.923636 498.596143 
L 444.445091 412.309375 
L 463.966545 382.932032 
L 483.488 431.828773 
L 503.009455 489.428314 
L 522.530909 497.692131 
L 542.052364 458.318211 
L 561.573818 395.391564 
L 581.095273 382.178363 
L 600.616727 383.414558 
L 620.138182 483.254911 
L 639.659636 455.894895 
L 659.181091 444.548741 
L 678.702545 443.414126 
L 698.224 443.300664 
L 717.745455 443.289318 
L 737.266909 443.288183 
L 756.788364 443.28807 
L 776.309818 443.288059 
L 795.831273 443.288057 
L 815.352727 443.288057 
L 834.874182 443.288057 
L 854.395636 443.288057 
" style="fill:none;stroke:#0000ff;stroke-linecap:square;stroke-width:1.5;"/>
    <defs>
     <path d="M 0 3 
C 0.795609 3 1.55874 2.683901 2.12132 2.12132 
C 2.683901 1.55874 3 0.795609 3 0 
C 3 -0.795609 2.683901 -1.55874 2.12132 -2.12132 
C 1.55874 -2.683901 0.795609 -3 0 -3 
C -0.795609 -3 -1.55874 -2.683901 -2.12132 -2.12132 
C -2.683901 -1.55874 -3 -0.795609 -3 0 
C -3 0.795609 -2.683901 1.55874 -2.12132 2.12132 
C -1.55874 2.683901 -0.795609 3 0 3 
z
" id="me60106db51" style="stroke:#0000ff;"/>
    </defs>
    <g clip-path="url(#p1cae57e990)">
     <use style="fill:#0000ff;stroke:#0000ff;" x="93.058909" xlink:href="#me60106db51" y="327.11821"/>
     <use style="fill:#0000ff;stroke:#0000ff;" x="112.580364" xlink:href="#me60106db51" y="314.016347"/>
     <use style="fill:#0000ff;stroke:#0000ff;" x="132.101818" xlink:href="#me60106db51" y="313.840927"/>
     <use style="fill:#0000ff;stroke:#0000ff;" x="151.623273" xlink:href="#me60106db51" y="321.91409"/>
     <use style="fill:#0000ff;stroke:#0000ff;" x="171.144727" xlink:href="#me60106db51" y="329.316849"/>
     <use style="fill:#0000ff;stroke:#0000ff;" x="190.666182" xlink:href="#me60106db51" y="490.448964"/>
     <use style="fill:#0000ff;stroke:#0000ff;" x="210.187636" xlink:href="#me60106db51" y="373.945088"/>
     <use style="fill:#0000ff;stroke:#0000ff;" x="229.709091" xlink:href="#me60106db51" y="348.280056"/>
     <use style="fill:#0000ff;stroke:#0000ff;" x="249.230545" xlink:href="#me60106db51" y="352.397752"/>
     <use style="fill:#0000ff;stroke:#0000ff;" x="268.752" xlink:href="#me60106db51" y="356.899439"/>
     <use style="fill:#0000ff;stroke:#0000ff;" x="288.273455" xlink:href="#me60106db51" y="487.690392"/>
     <use style="fill:#0000ff;stroke:#0000ff;" x="307.794909" xlink:href="#me60106db51" y="395.557656"/>
     <use style="fill:#0000ff;stroke:#0000ff;" x="327.316364" xlink:href="#me60106db51" y="369.373228"/>
     <use style="fill:#0000ff;stroke:#0000ff;" x="346.837818" xlink:href="#me60106db51" y="371.544148"/>
     <use style="fill:#0000ff;stroke:#0000ff;" x="366.359273" xlink:href="#me60106db51" y="374.49181"/>
     <use style="fill:#0000ff;stroke:#0000ff;" x="385.880727" xlink:href="#me60106db51" y="377.209109"/>
     <use style="fill:#0000ff;stroke:#0000ff;" x="405.402182" xlink:href="#me60106db51" y="485.155375"/>
     <use style="fill:#0000ff;stroke:#0000ff;" x="424.923636" xlink:href="#me60106db51" y="498.596143"/>
     <use style="fill:#0000ff;stroke:#0000ff;" x="444.445091" xlink:href="#me60106db51" y="412.309375"/>
     <use style="fill:#0000ff;stroke:#0000ff;" x="463.966545" xlink:href="#me60106db51" y="382.932032"/>
     <use style="fill:#0000ff;stroke:#0000ff;" x="483.488" xlink:href="#me60106db51" y="431.828773"/>
     <use style="fill:#0000ff;stroke:#0000ff;" x="503.009455" xlink:href="#me60106db51" y="489.428314"/>
     <use style="fill:#0000ff;stroke:#0000ff;" x="522.530909" xlink:href="#me60106db51" y="497.692131"/>
     <use style="fill:#0000ff;stroke:#0000ff;" x="542.052364" xlink:href="#me60106db51" y="458.318211"/>
     <use style="fill:#0000ff;stroke:#0000ff;" x="561.573818" xlink:href="#me60106db51" y="395.391564"/>
     <use style="fill:#0000ff;stroke:#0000ff;" x="581.095273" xlink:href="#me60106db51" y="382.178363"/>
     <use style="fill:#0000ff;stroke:#0000ff;" x="600.616727" xlink:href="#me60106db51" y="383.414558"/>
     <use style="fill:#0000ff;stroke:#0000ff;" x="620.138182" xlink:href="#me60106db51" y="483.254911"/>
     <use style="fill:#0000ff;stroke:#0000ff;" x="639.659636" xlink:href="#me60106db51" y="455.894895"/>
     <use style="fill:#0000ff;stroke:#0000ff;" x="659.181091" xlink:href="#me60106db51" y="444.548741"/>
     <use style="fill:#0000ff;stroke:#0000ff;" x="678.702545" xlink:href="#me60106db51" y="443.414126"/>
     <use style="fill:#0000ff;stroke:#0000ff;" x="698.224" xlink:href="#me60106db51" y="443.300664"/>
     <use style="fill:#0000ff;stroke:#0000ff;" x="717.745455" xlink:href="#me60106db51" y="443.289318"/>
     <use style="fill:#0000ff;stroke:#0000ff;" x="737.266909" xlink:href="#me60106db51" y="443.288183"/>
     <use style="fill:#0000ff;stroke:#0000ff;" x="756.788364" xlink:href="#me60106db51" y="443.28807"/>
     <use style="fill:#0000ff;stroke:#0000ff;" x="776.309818" xlink:href="#me60106db51" y="443.288059"/>
     <use style="fill:#0000ff;stroke:#0000ff;" x="795.831273" xlink:href="#me60106db51" y="443.288057"/>
     <use style="fill:#0000ff;stroke:#0000ff;" x="815.352727" xlink:href="#me60106db51" y="443.288057"/>
     <use style="fill:#0000ff;stroke:#0000ff;" x="834.874182" xlink:href="#me60106db51" y="443.288057"/>
     <use style="fill:#0000ff;stroke:#0000ff;" x="854.395636" xlink:href="#me60106db51" y="443.288057"/>
    </g>
   </g>
   <g id="line2d_48">
    <path clip-path="url(#p1cae57e990)" d="M 93.058909 426.692365 
L 112.580364 502.683167 
L 132.101818 505.568351 
L 151.623273 506.522552 
L 171.144727 507.280469 
L 190.666182 251.041549 
L 210.187636 486.661816 
L 229.709091 495.222962 
L 249.230545 496.078215 
L 268.752 496.592423 
L 288.273455 241.681687 
L 307.794909 474.076617 
L 327.316364 483.981057 
L 346.837818 484.628228 
L 366.359273 484.84332 
L 385.880727 484.9695 
L 405.402182 232.879293 
L 424.923636 209.405127 
L 444.445091 462.869769 
L 463.966545 474.902435 
L 483.488 371.768879 
L 503.009455 223.75672 
L 522.530909 210.008056 
L 542.052364 345.279441 
L 561.573818 472.616677 
L 581.095273 478.184089 
L 600.616727 478.432356 
L 620.138182 234.241214 
L 639.659636 347.702757 
L 659.181091 359.048911 
L 678.702545 360.183526 
L 698.224 360.296988 
L 717.745455 360.308334 
L 737.266909 360.309469 
L 756.788364 360.309582 
L 776.309818 360.309593 
L 795.831273 360.309595 
L 815.352727 360.309595 
L 834.874182 360.309595 
L 854.395636 360.309595 
" style="fill:none;stroke:#ff0000;stroke-linecap:square;stroke-width:1.5;"/>
    <defs>
     <path d="M 0 3 
C 0.795609 3 1.55874 2.683901 2.12132 2.12132 
C 2.683901 1.55874 3 0.795609 3 0 
C 3 -0.795609 2.683901 -1.55874 2.12132 -2.12132 
C 1.55874 -2.683901 0.795609 -3 0 -3 
C -0.795609 -3 -1.55874 -2.683901 -2.12132 -2.12132 
C -2.683901 -1.55874 -3 -0.795609 -3 0 
C -3 0.795609 -2.683901 1.55874 -2.12132 2.12132 
C -1.55874 2.683901 -0.795609 3 0 3 
z
" id="mf35d51f9dc" style="stroke:#ff0000;"/>
    </defs>
    <g clip-path="url(#p1cae57e990)">
     <use style="fill:#ff0000;stroke:#ff0000;" x="93.058909" xlink:href="#mf35d51f9dc" y="426.692365"/>
     <use style="fill:#ff0000;stroke:#ff0000;" x="112.580364" xlink:href="#mf35d51f9dc" y="502.683167"/>
     <use style="fill:#ff0000;stroke:#ff0000;" x="132.101818" xlink:href="#mf35d51f9dc" y="505.568351"/>
     <use style="fill:#ff0000;stroke:#ff0000;" x="151.623273" xlink:href="#mf35d51f9dc" y="506.522552"/>
     <use style="fill:#ff0000;stroke:#ff0000;" x="171.144727" xlink:href="#mf35d51f9dc" y="507.280469"/>
     <use style="fill:#ff0000;stroke:#ff0000;" x="190.666182" xlink:href="#mf35d51f9dc" y="251.041549"/>
     <use style="fill:#ff0000;stroke:#ff0000;" x="210.187636" xlink:href="#mf35d51f9dc" y="486.661816"/>
     <use style="fill:#ff0000;stroke:#ff0000;" x="229.709091" xlink:href="#mf35d51f9dc" y="495.222962"/>
     <use style="fill:#ff0000;stroke:#ff0000;" x="249.230545" xlink:href="#mf35d51f9dc" y="496.078215"/>
     <use style="fill:#ff0000;stroke:#ff0000;" x="268.752" xlink:href="#mf35d51f9dc" y="496.592423"/>
     <use style="fill:#ff0000;stroke:#ff0000;" x="288.273455" xlink:href="#mf35d51f9dc" y="241.681687"/>
     <use style="fill:#ff0000;stroke:#ff0000;" x="307.794909" xlink:href="#mf35d51f9dc" y="474.076617"/>
     <use style="fill:#ff0000;stroke:#ff0000;" x="327.316364" xlink:href="#mf35d51f9dc" y="483.981057"/>
     <use style="fill:#ff0000;stroke:#ff0000;" x="346.837818" xlink:href="#mf35d51f9dc" y="484.628228"/>
     <use style="fill:#ff0000;stroke:#ff0000;" x="366.359273" xlink:href="#mf35d51f9dc" y="484.84332"/>
     <use style="fill:#ff0000;stroke:#ff0000;" x="385.880727" xlink:href="#mf35d51f9dc" y="484.9695"/>
     <use style="fill:#ff0000;stroke:#ff0000;" x="405.402182" xlink:href="#mf35d51f9dc" y="232.879293"/>
     <use style="fill:#ff0000;stroke:#ff0000;" x="424.923636" xlink:href="#mf35d51f9dc" y="209.405127"/>
     <use style="fill:#ff0000;stroke:#ff0000;" x="444.445091" xlink:href="#mf35d51f9dc" y="462.869769"/>
     <use style="fill:#ff0000;stroke:#ff0000;" x="463.966545" xlink:href="#mf35d51f9dc" y="474.902435"/>
     <use style="fill:#ff0000;stroke:#ff0000;" x="483.488" xlink:href="#mf35d51f9dc" y="371.768879"/>
     <use style="fill:#ff0000;stroke:#ff0000;" x="503.009455" xlink:href="#mf35d51f9dc" y="223.75672"/>
     <use style="fill:#ff0000;stroke:#ff0000;" x="522.530909" xlink:href="#mf35d51f9dc" y="210.008056"/>
     <use style="fill:#ff0000;stroke:#ff0000;" x="542.052364" xlink:href="#mf35d51f9dc" y="345.279441"/>
     <use style="fill:#ff0000;stroke:#ff0000;" x="561.573818" xlink:href="#mf35d51f9dc" y="472.616677"/>
     <use style="fill:#ff0000;stroke:#ff0000;" x="581.095273" xlink:href="#mf35d51f9dc" y="478.184089"/>
     <use style="fill:#ff0000;stroke:#ff0000;" x="600.616727" xlink:href="#mf35d51f9dc" y="478.432356"/>
     <use style="fill:#ff0000;stroke:#ff0000;" x="620.138182" xlink:href="#mf35d51f9dc" y="234.241214"/>
     <use style="fill:#ff0000;stroke:#ff0000;" x="639.659636" xlink:href="#mf35d51f9dc" y="347.702757"/>
     <use style="fill:#ff0000;stroke:#ff0000;" x="659.181091" xlink:href="#mf35d51f9dc" y="359.048911"/>
     <use style="fill:#ff0000;stroke:#ff0000;" x="678.702545" xlink:href="#mf35d51f9dc" y="360.183526"/>
     <use style="fill:#ff0000;stroke:#ff0000;" x="698.224" xlink:href="#mf35d51f9dc" y="360.296988"/>
     <use style="fill:#ff0000;stroke:#ff0000;" x="717.745455" xlink:href="#mf35d51f9dc" y="360.308334"/>
     <use style="fill:#ff0000;stroke:#ff0000;" x="737.266909" xlink:href="#mf35d51f9dc" y="360.309469"/>
     <use style="fill:#ff0000;stroke:#ff0000;" x="756.788364" xlink:href="#mf35d51f9dc" y="360.309582"/>
     <use style="fill:#ff0000;stroke:#ff0000;" x="776.309818" xlink:href="#mf35d51f9dc" y="360.309593"/>
     <use style="fill:#ff0000;stroke:#ff0000;" x="795.831273" xlink:href="#mf35d51f9dc" y="360.309595"/>
     <use style="fill:#ff0000;stroke:#ff0000;" x="815.352727" xlink:href="#mf35d51f9dc" y="360.309595"/>
     <use style="fill:#ff0000;stroke:#ff0000;" x="834.874182" xlink:href="#mf35d51f9dc" y="360.309595"/>
     <use style="fill:#ff0000;stroke:#ff0000;" x="854.395636" xlink:href="#mf35d51f9dc" y="360.309595"/>
    </g>
   </g>
   <g id="line2d_49">
    <path clip-path="url(#p1cae57e990)" d="M 93.058909 327.11821 
L 112.580364 264.229269 
L 132.101818 261.519506 
L 151.623273 252.492142 
L 171.144727 244.331466 
L 190.666182 339.438271 
L 210.187636 220.32188 
L 229.709091 237.425765 
L 249.230545 232.452817 
L 268.752 227.436922 
L 288.273455 351.556705 
L 307.794909 211.294511 
L 327.316364 227.574499 
L 346.837818 224.756408 
L 366.359273 221.593654 
L 385.880727 218.750175 
L 405.402182 362.894116 
L 424.923636 372.927513 
L 444.445091 205.74964 
L 463.966545 223.094317 
L 483.488 277.331132 
L 503.009455 367.74375 
L 522.530909 373.228597 
L 542.052364 277.331132 
L 561.573818 212.920543 
L 581.095273 220.566332 
L 600.616727 219.08187 
L 620.138182 363.432659 
L 639.659636 277.331132 
L 659.181091 277.331132 
L 678.702545 277.331132 
L 698.224 277.331132 
L 717.745455 277.331132 
L 737.266909 277.331132 
L 756.788364 277.331132 
L 776.309818 277.331132 
L 795.831273 277.331132 
L 815.352727 277.331132 
L 834.874182 277.331132 
L 854.395636 277.331132 
" style="fill:none;stroke:#808080;stroke-linecap:square;stroke-width:1.5;"/>
    <defs>
     <path d="M 0 3 
C 0.795609 3 1.55874 2.683901 2.12132 2.12132 
C 2.683901 1.55874 3 0.795609 3 0 
C 3 -0.795609 2.683901 -1.55874 2.12132 -2.12132 
C 1.55874 -2.683901 0.795609 -3 0 -3 
C -0.795609 -3 -1.55874 -2.683901 -2.12132 -2.12132 
C -2.683901 -1.55874 -3 -0.795609 -3 0 
C -3 0.795609 -2.683901 1.55874 -2.12132 2.12132 
C -1.55874 2.683901 -0.795609 3 0 3 
z
" id="m050890fb11" style="stroke:#808080;"/>
    </defs>
    <g clip-path="url(#p1cae57e990)">
     <use style="fill:#808080;stroke:#808080;" x="93.058909" xlink:href="#m050890fb11" y="327.11821"/>
     <use style="fill:#808080;stroke:#808080;" x="112.580364" xlink:href="#m050890fb11" y="264.229269"/>
     <use style="fill:#808080;stroke:#808080;" x="132.101818" xlink:href="#m050890fb11" y="261.519506"/>
     <use style="fill:#808080;stroke:#808080;" x="151.623273" xlink:href="#m050890fb11" y="252.492142"/>
     <use style="fill:#808080;stroke:#808080;" x="171.144727" xlink:href="#m050890fb11" y="244.331466"/>
     <use style="fill:#808080;stroke:#808080;" x="190.666182" xlink:href="#m050890fb11" y="339.438271"/>
     <use style="fill:#808080;stroke:#808080;" x="210.187636" xlink:href="#m050890fb11" y="220.32188"/>
     <use style="fill:#808080;stroke:#808080;" x="229.709091" xlink:href="#m050890fb11" y="237.425765"/>
     <use style="fill:#808080;stroke:#808080;" x="249.230545" xlink:href="#m050890fb11" y="232.452817"/>
     <use style="fill:#808080;stroke:#808080;" x="268.752" xlink:href="#m050890fb11" y="227.436922"/>
     <use style="fill:#808080;stroke:#808080;" x="288.273455" xlink:href="#m050890fb11" y="351.556705"/>
     <use style="fill:#808080;stroke:#808080;" x="307.794909" xlink:href="#m050890fb11" y="211.294511"/>
     <use style="fill:#808080;stroke:#808080;" x="327.316364" xlink:href="#m050890fb11" y="227.574499"/>
     <use style="fill:#808080;stroke:#808080;" x="346.837818" xlink:href="#m050890fb11" y="224.756408"/>
     <use style="fill:#808080;stroke:#808080;" x="366.359273" xlink:href="#m050890fb11" y="221.593654"/>
     <use style="fill:#808080;stroke:#808080;" x="385.880727" xlink:href="#m050890fb11" y="218.750175"/>
     <use style="fill:#808080;stroke:#808080;" x="405.402182" xlink:href="#m050890fb11" y="362.894116"/>
     <use style="fill:#808080;stroke:#808080;" x="424.923636" xlink:href="#m050890fb11" y="372.927513"/>
     <use style="fill:#808080;stroke:#808080;" x="444.445091" xlink:href="#m050890fb11" y="205.74964"/>
     <use style="fill:#808080;stroke:#808080;" x="463.966545" xlink:href="#m050890fb11" y="223.094317"/>
     <use style="fill:#808080;stroke:#808080;" x="483.488" xlink:href="#m050890fb11" y="277.331132"/>
     <use style="fill:#808080;stroke:#808080;" x="503.009455" xlink:href="#m050890fb11" y="367.74375"/>
     <use style="fill:#808080;stroke:#808080;" x="522.530909" xlink:href="#m050890fb11" y="373.228597"/>
     <use style="fill:#808080;stroke:#808080;" x="542.052364" xlink:href="#m050890fb11" y="277.331132"/>
     <use style="fill:#808080;stroke:#808080;" x="561.573818" xlink:href="#m050890fb11" y="212.920543"/>
     <use style="fill:#808080;stroke:#808080;" x="581.095273" xlink:href="#m050890fb11" y="220.566332"/>
     <use style="fill:#808080;stroke:#808080;" x="600.616727" xlink:href="#m050890fb11" y="219.08187"/>
     <use style="fill:#808080;stroke:#808080;" x="620.138182" xlink:href="#m050890fb11" y="363.432659"/>
     <use style="fill:#808080;stroke:#808080;" x="639.659636" xlink:href="#m050890fb11" y="277.331132"/>
     <use style="fill:#808080;stroke:#808080;" x="659.181091" xlink:href="#m050890fb11" y="277.331132"/>
     <use style="fill:#808080;stroke:#808080;" x="678.702545" xlink:href="#m050890fb11" y="277.331132"/>
     <use style="fill:#808080;stroke:#808080;" x="698.224" xlink:href="#m050890fb11" y="277.331132"/>
     <use style="fill:#808080;stroke:#808080;" x="717.745455" xlink:href="#m050890fb11" y="277.331132"/>
     <use style="fill:#808080;stroke:#808080;" x="737.266909" xlink:href="#m050890fb11" y="277.331132"/>
     <use style="fill:#808080;stroke:#808080;" x="756.788364" xlink:href="#m050890fb11" y="277.331132"/>
     <use style="fill:#808080;stroke:#808080;" x="776.309818" xlink:href="#m050890fb11" y="277.331132"/>
     <use style="fill:#808080;stroke:#808080;" x="795.831273" xlink:href="#m050890fb11" y="277.331132"/>
     <use style="fill:#808080;stroke:#808080;" x="815.352727" xlink:href="#m050890fb11" y="277.331132"/>
     <use style="fill:#808080;stroke:#808080;" x="834.874182" xlink:href="#m050890fb11" y="277.331132"/>
     <use style="fill:#808080;stroke:#808080;" x="854.395636" xlink:href="#m050890fb11" y="277.331132"/>
    </g>
   </g>
   <g id="patch_5">
    <path d="M 54.016 526.26652 
L 54.016 28.395744 
" style="fill:none;stroke:#000000;stroke-linecap:square;stroke-linejoin:miter;stroke-width:0.8;"/>
   </g>
   <g id="patch_6">
    <path d="M 912.96 526.26652 
L 912.96 28.395744 
" style="fill:none;stroke:#000000;stroke-linecap:square;stroke-linejoin:miter;stroke-width:0.8;"/>
   </g>
   <g id="patch_7">
    <path d="M 54.016 526.26652 
L 912.96 526.26652 
" style="fill:none;stroke:#000000;stroke-linecap:square;stroke-linejoin:miter;stroke-width:0.8;"/>
   </g>
   <g id="patch_8">
    <path d="M 54.016 28.395744 
L 912.96 28.395744 
" style="fill:none;stroke:#000000;stroke-linecap:square;stroke-linejoin:miter;stroke-width:0.8;"/>
   </g>
   <g id="text_49">
    <!-- Social anxiety: insecure-avoidant -->
    <g transform="translate(276.683313 22.395744)scale(0.25 -0.25)">
     <defs>
      <path d="M 3425 4513 
L 3425 3897 
Q 3066 4069 2747 4153 
Q 2428 4238 2131 4238 
Q 1616 4238 1336 4038 
Q 1056 3838 1056 3469 
Q 1056 3159 1242 3001 
Q 1428 2844 1947 2747 
L 2328 2669 
Q 3034 2534 3370 2195 
Q 3706 1856 3706 1288 
Q 3706 609 3251 259 
Q 2797 -91 1919 -91 
Q 1588 -91 1214 -16 
Q 841 59 441 206 
L 441 856 
Q 825 641 1194 531 
Q 1563 422 1919 422 
Q 2459 422 2753 634 
Q 3047 847 3047 1241 
Q 3047 1584 2836 1778 
Q 2625 1972 2144 2069 
L 1759 2144 
Q 1053 2284 737 2584 
Q 422 2884 422 3419 
Q 422 4038 858 4394 
Q 1294 4750 2059 4750 
Q 2388 4750 2728 4690 
Q 3069 4631 3425 4513 
z
" id="DejaVuSans-53" transform="scale(0.015625)"/>
      <path d="M 1959 3097 
Q 1497 3097 1228 2736 
Q 959 2375 959 1747 
Q 959 1119 1226 758 
Q 1494 397 1959 397 
Q 2419 397 2687 759 
Q 2956 1122 2956 1747 
Q 2956 2369 2687 2733 
Q 2419 3097 1959 3097 
z
M 1959 3584 
Q 2709 3584 3137 3096 
Q 3566 2609 3566 1747 
Q 3566 888 3137 398 
Q 2709 -91 1959 -91 
Q 1206 -91 779 398 
Q 353 888 353 1747 
Q 353 2609 779 3096 
Q 1206 3584 1959 3584 
z
" id="DejaVuSans-6f" transform="scale(0.015625)"/>
      <path d="M 3122 3366 
L 3122 2828 
Q 2878 2963 2633 3030 
Q 2388 3097 2138 3097 
Q 1578 3097 1268 2742 
Q 959 2388 959 1747 
Q 959 1106 1268 751 
Q 1578 397 2138 397 
Q 2388 397 2633 464 
Q 2878 531 3122 666 
L 3122 134 
Q 2881 22 2623 -34 
Q 2366 -91 2075 -91 
Q 1284 -91 818 406 
Q 353 903 353 1747 
Q 353 2603 823 3093 
Q 1294 3584 2113 3584 
Q 2378 3584 2631 3529 
Q 2884 3475 3122 3366 
z
" id="DejaVuSans-63" transform="scale(0.015625)"/>
      <path d="M 603 3500 
L 1178 3500 
L 1178 0 
L 603 0 
L 603 3500 
z
M 603 4863 
L 1178 4863 
L 1178 4134 
L 603 4134 
L 603 4863 
z
" id="DejaVuSans-69" transform="scale(0.015625)"/>
      <path d="M 2194 1759 
Q 1497 1759 1228 1600 
Q 959 1441 959 1056 
Q 959 750 1161 570 
Q 1363 391 1709 391 
Q 2188 391 2477 730 
Q 2766 1069 2766 1631 
L 2766 1759 
L 2194 1759 
z
M 3341 1997 
L 3341 0 
L 2766 0 
L 2766 531 
Q 2569 213 2275 61 
Q 1981 -91 1556 -91 
Q 1019 -91 701 211 
Q 384 513 384 1019 
Q 384 1609 779 1909 
Q 1175 2209 1959 2209 
L 2766 2209 
L 2766 2266 
Q 2766 2663 2505 2880 
Q 2244 3097 1772 3097 
Q 1472 3097 1187 3025 
Q 903 2953 641 2809 
L 641 3341 
Q 956 3463 1253 3523 
Q 1550 3584 1831 3584 
Q 2591 3584 2966 3190 
Q 3341 2797 3341 1997 
z
" id="DejaVuSans-61" transform="scale(0.015625)"/>
      <path d="M 603 4863 
L 1178 4863 
L 1178 0 
L 603 0 
L 603 4863 
z
" id="DejaVuSans-6c" transform="scale(0.015625)"/>
      <path id="DejaVuSans-20" transform="scale(0.015625)"/>
      <path d="M 3513 2113 
L 3513 0 
L 2938 0 
L 2938 2094 
Q 2938 2591 2744 2837 
Q 2550 3084 2163 3084 
Q 1697 3084 1428 2787 
Q 1159 2491 1159 1978 
L 1159 0 
L 581 0 
L 581 3500 
L 1159 3500 
L 1159 2956 
Q 1366 3272 1645 3428 
Q 1925 3584 2291 3584 
Q 2894 3584 3203 3211 
Q 3513 2838 3513 2113 
z
" id="DejaVuSans-6e" transform="scale(0.015625)"/>
      <path d="M 3513 3500 
L 2247 1797 
L 3578 0 
L 2900 0 
L 1881 1375 
L 863 0 
L 184 0 
L 1544 1831 
L 300 3500 
L 978 3500 
L 1906 2253 
L 2834 3500 
L 3513 3500 
z
" id="DejaVuSans-78" transform="scale(0.015625)"/>
      <path d="M 3597 1894 
L 3597 1613 
L 953 1613 
Q 991 1019 1311 708 
Q 1631 397 2203 397 
Q 2534 397 2845 478 
Q 3156 559 3463 722 
L 3463 178 
Q 3153 47 2828 -22 
Q 2503 -91 2169 -91 
Q 1331 -91 842 396 
Q 353 884 353 1716 
Q 353 2575 817 3079 
Q 1281 3584 2069 3584 
Q 2775 3584 3186 3129 
Q 3597 2675 3597 1894 
z
M 3022 2063 
Q 3016 2534 2758 2815 
Q 2500 3097 2075 3097 
Q 1594 3097 1305 2825 
Q 1016 2553 972 2059 
L 3022 2063 
z
" id="DejaVuSans-65" transform="scale(0.015625)"/>
      <path d="M 1172 4494 
L 1172 3500 
L 2356 3500 
L 2356 3053 
L 1172 3053 
L 1172 1153 
Q 1172 725 1289 603 
Q 1406 481 1766 481 
L 2356 481 
L 2356 0 
L 1766 0 
Q 1100 0 847 248 
Q 594 497 594 1153 
L 594 3053 
L 172 3053 
L 172 3500 
L 594 3500 
L 594 4494 
L 1172 4494 
z
" id="DejaVuSans-74" transform="scale(0.015625)"/>
      <path d="M 2059 -325 
Q 1816 -950 1584 -1140 
Q 1353 -1331 966 -1331 
L 506 -1331 
L 506 -850 
L 844 -850 
Q 1081 -850 1212 -737 
Q 1344 -625 1503 -206 
L 1606 56 
L 191 3500 
L 800 3500 
L 1894 763 
L 2988 3500 
L 3597 3500 
L 2059 -325 
z
" id="DejaVuSans-79" transform="scale(0.015625)"/>
      <path d="M 750 794 
L 1409 794 
L 1409 0 
L 750 0 
L 750 794 
z
M 750 3309 
L 1409 3309 
L 1409 2516 
L 750 2516 
L 750 3309 
z
" id="DejaVuSans-3a" transform="scale(0.015625)"/>
      <path d="M 2834 3397 
L 2834 2853 
Q 2591 2978 2328 3040 
Q 2066 3103 1784 3103 
Q 1356 3103 1142 2972 
Q 928 2841 928 2578 
Q 928 2378 1081 2264 
Q 1234 2150 1697 2047 
L 1894 2003 
Q 2506 1872 2764 1633 
Q 3022 1394 3022 966 
Q 3022 478 2636 193 
Q 2250 -91 1575 -91 
Q 1294 -91 989 -36 
Q 684 19 347 128 
L 347 722 
Q 666 556 975 473 
Q 1284 391 1588 391 
Q 1994 391 2212 530 
Q 2431 669 2431 922 
Q 2431 1156 2273 1281 
Q 2116 1406 1581 1522 
L 1381 1569 
Q 847 1681 609 1914 
Q 372 2147 372 2553 
Q 372 3047 722 3315 
Q 1072 3584 1716 3584 
Q 2034 3584 2315 3537 
Q 2597 3491 2834 3397 
z
" id="DejaVuSans-73" transform="scale(0.015625)"/>
      <path d="M 544 1381 
L 544 3500 
L 1119 3500 
L 1119 1403 
Q 1119 906 1312 657 
Q 1506 409 1894 409 
Q 2359 409 2629 706 
Q 2900 1003 2900 1516 
L 2900 3500 
L 3475 3500 
L 3475 0 
L 2900 0 
L 2900 538 
Q 2691 219 2414 64 
Q 2138 -91 1772 -91 
Q 1169 -91 856 284 
Q 544 659 544 1381 
z
M 1991 3584 
L 1991 3584 
z
" id="DejaVuSans-75" transform="scale(0.015625)"/>
      <path d="M 2631 2963 
Q 2534 3019 2420 3045 
Q 2306 3072 2169 3072 
Q 1681 3072 1420 2755 
Q 1159 2438 1159 1844 
L 1159 0 
L 581 0 
L 581 3500 
L 1159 3500 
L 1159 2956 
Q 1341 3275 1631 3429 
Q 1922 3584 2338 3584 
Q 2397 3584 2469 3576 
Q 2541 3569 2628 3553 
L 2631 2963 
z
" id="DejaVuSans-72" transform="scale(0.015625)"/>
      <path d="M 313 2009 
L 1997 2009 
L 1997 1497 
L 313 1497 
L 313 2009 
z
" id="DejaVuSans-2d" transform="scale(0.015625)"/>
      <path d="M 191 3500 
L 800 3500 
L 1894 563 
L 2988 3500 
L 3597 3500 
L 2284 0 
L 1503 0 
L 191 3500 
z
" id="DejaVuSans-76" transform="scale(0.015625)"/>
      <path d="M 2906 2969 
L 2906 4863 
L 3481 4863 
L 3481 0 
L 2906 0 
L 2906 525 
Q 2725 213 2448 61 
Q 2172 -91 1784 -91 
Q 1150 -91 751 415 
Q 353 922 353 1747 
Q 353 2572 751 3078 
Q 1150 3584 1784 3584 
Q 2172 3584 2448 3432 
Q 2725 3281 2906 2969 
z
M 947 1747 
Q 947 1113 1208 752 
Q 1469 391 1925 391 
Q 2381 391 2643 752 
Q 2906 1113 2906 1747 
Q 2906 2381 2643 2742 
Q 2381 3103 1925 3103 
Q 1469 3103 1208 2742 
Q 947 2381 947 1747 
z
" id="DejaVuSans-64" transform="scale(0.015625)"/>
     </defs>
     <use xlink:href="#DejaVuSans-53"/>
     <use x="63.476562" xlink:href="#DejaVuSans-6f"/>
     <use x="124.658203" xlink:href="#DejaVuSans-63"/>
     <use x="179.638672" xlink:href="#DejaVuSans-69"/>
     <use x="207.421875" xlink:href="#DejaVuSans-61"/>
     <use x="268.701172" xlink:href="#DejaVuSans-6c"/>
     <use x="296.484375" xlink:href="#DejaVuSans-20"/>
     <use x="328.271484" xlink:href="#DejaVuSans-61"/>
     <use x="389.550781" xlink:href="#DejaVuSans-6e"/>
     <use x="452.929688" xlink:href="#DejaVuSans-78"/>
     <use x="512.109375" xlink:href="#DejaVuSans-69"/>
     <use x="539.892578" xlink:href="#DejaVuSans-65"/>
     <use x="601.416016" xlink:href="#DejaVuSans-74"/>
     <use x="640.625" xlink:href="#DejaVuSans-79"/>
     <use x="692.554688" xlink:href="#DejaVuSans-3a"/>
     <use x="726.246094" xlink:href="#DejaVuSans-20"/>
     <use x="758.033203" xlink:href="#DejaVuSans-69"/>
     <use x="785.816406" xlink:href="#DejaVuSans-6e"/>
     <use x="849.195312" xlink:href="#DejaVuSans-73"/>
     <use x="901.294922" xlink:href="#DejaVuSans-65"/>
     <use x="962.818359" xlink:href="#DejaVuSans-63"/>
     <use x="1017.798828" xlink:href="#DejaVuSans-75"/>
     <use x="1081.177734" xlink:href="#DejaVuSans-72"/>
     <use x="1120.041016" xlink:href="#DejaVuSans-65"/>
     <use x="1181.564453" xlink:href="#DejaVuSans-2d"/>
     <use x="1217.648438" xlink:href="#DejaVuSans-61"/>
     <use x="1278.927734" xlink:href="#DejaVuSans-76"/>
     <use x="1338.107422" xlink:href="#DejaVuSans-6f"/>
     <use x="1399.289062" xlink:href="#DejaVuSans-69"/>
     <use x="1427.072266" xlink:href="#DejaVuSans-64"/>
     <use x="1490.548828" xlink:href="#DejaVuSans-61"/>
     <use x="1551.828125" xlink:href="#DejaVuSans-6e"/>
     <use x="1615.207031" xlink:href="#DejaVuSans-74"/>
    </g>
   </g>
   <g id="legend_1">
    <g id="patch_9">
     <path d="M 803.108438 124.464494 
L 905.96 124.464494 
Q 907.96 124.464494 907.96 122.464494 
L 907.96 35.395744 
Q 907.96 33.395744 905.96 33.395744 
L 803.108438 33.395744 
Q 801.108438 33.395744 801.108438 35.395744 
L 801.108438 122.464494 
Q 801.108438 124.464494 803.108438 124.464494 
z
" style="fill:#ffffff;opacity:0.8;stroke:#cccccc;stroke-linejoin:miter;"/>
    </g>
    <g id="line2d_50">
     <path d="M 805.108438 41.494182 
L 825.108438 41.494182 
" style="fill:none;stroke:#0000ff;stroke-linecap:square;stroke-width:1.5;"/>
    </g>
    <g id="line2d_51">
     <g>
      <use style="fill:#0000ff;stroke:#0000ff;" x="815.108438" xlink:href="#me60106db51" y="41.494182"/>
     </g>
    </g>
    <g id="text_50">
     <!-- cooperative -->
     <g transform="translate(833.108438 44.994182)scale(0.1 -0.1)">
      <defs>
       <path d="M 1159 525 
L 1159 -1331 
L 581 -1331 
L 581 3500 
L 1159 3500 
L 1159 2969 
Q 1341 3281 1617 3432 
Q 1894 3584 2278 3584 
Q 2916 3584 3314 3078 
Q 3713 2572 3713 1747 
Q 3713 922 3314 415 
Q 2916 -91 2278 -91 
Q 1894 -91 1617 61 
Q 1341 213 1159 525 
z
M 3116 1747 
Q 3116 2381 2855 2742 
Q 2594 3103 2138 3103 
Q 1681 3103 1420 2742 
Q 1159 2381 1159 1747 
Q 1159 1113 1420 752 
Q 1681 391 2138 391 
Q 2594 391 2855 752 
Q 3116 1113 3116 1747 
z
" id="DejaVuSans-70" transform="scale(0.015625)"/>
      </defs>
      <use xlink:href="#DejaVuSans-63"/>
      <use x="54.980469" xlink:href="#DejaVuSans-6f"/>
      <use x="116.162109" xlink:href="#DejaVuSans-6f"/>
      <use x="177.34375" xlink:href="#DejaVuSans-70"/>
      <use x="240.820312" xlink:href="#DejaVuSans-65"/>
      <use x="302.34375" xlink:href="#DejaVuSans-72"/>
      <use x="343.457031" xlink:href="#DejaVuSans-61"/>
      <use x="404.736328" xlink:href="#DejaVuSans-74"/>
      <use x="443.945312" xlink:href="#DejaVuSans-69"/>
      <use x="471.728516" xlink:href="#DejaVuSans-76"/>
      <use x="530.908203" xlink:href="#DejaVuSans-65"/>
     </g>
    </g>
    <g id="line2d_52">
     <path d="M 805.108438 56.172307 
L 825.108438 56.172307 
" style="fill:none;stroke:#ff0000;stroke-linecap:square;stroke-width:1.5;"/>
    </g>
    <g id="line2d_53">
     <g>
      <use style="fill:#ff0000;stroke:#ff0000;" x="815.108438" xlink:href="#mf35d51f9dc" y="56.172307"/>
     </g>
    </g>
    <g id="text_51">
     <!-- hostile -->
     <g transform="translate(833.108438 59.672307)scale(0.1 -0.1)">
      <defs>
       <path d="M 3513 2113 
L 3513 0 
L 2938 0 
L 2938 2094 
Q 2938 2591 2744 2837 
Q 2550 3084 2163 3084 
Q 1697 3084 1428 2787 
Q 1159 2491 1159 1978 
L 1159 0 
L 581 0 
L 581 4863 
L 1159 4863 
L 1159 2956 
Q 1366 3272 1645 3428 
Q 1925 3584 2291 3584 
Q 2894 3584 3203 3211 
Q 3513 2838 3513 2113 
z
" id="DejaVuSans-68" transform="scale(0.015625)"/>
      </defs>
      <use xlink:href="#DejaVuSans-68"/>
      <use x="63.378906" xlink:href="#DejaVuSans-6f"/>
      <use x="124.560547" xlink:href="#DejaVuSans-73"/>
      <use x="176.660156" xlink:href="#DejaVuSans-74"/>
      <use x="215.869141" xlink:href="#DejaVuSans-69"/>
      <use x="243.652344" xlink:href="#DejaVuSans-6c"/>
      <use x="271.435547" xlink:href="#DejaVuSans-65"/>
     </g>
    </g>
    <g id="line2d_54">
     <path d="M 805.108438 70.850432 
L 825.108438 70.850432 
" style="fill:none;stroke:#808080;stroke-linecap:square;stroke-width:1.5;"/>
    </g>
    <g id="line2d_55">
     <g>
      <use style="fill:#808080;stroke:#808080;" x="815.108438" xlink:href="#m050890fb11" y="70.850432"/>
     </g>
    </g>
    <g id="text_52">
     <!-- random -->
     <g transform="translate(833.108438 74.350432)scale(0.1 -0.1)">
      <defs>
       <path d="M 3328 2828 
Q 3544 3216 3844 3400 
Q 4144 3584 4550 3584 
Q 5097 3584 5394 3201 
Q 5691 2819 5691 2113 
L 5691 0 
L 5113 0 
L 5113 2094 
Q 5113 2597 4934 2840 
Q 4756 3084 4391 3084 
Q 3944 3084 3684 2787 
Q 3425 2491 3425 1978 
L 3425 0 
L 2847 0 
L 2847 2094 
Q 2847 2600 2669 2842 
Q 2491 3084 2119 3084 
Q 1678 3084 1418 2786 
Q 1159 2488 1159 1978 
L 1159 0 
L 581 0 
L 581 3500 
L 1159 3500 
L 1159 2956 
Q 1356 3278 1631 3431 
Q 1906 3584 2284 3584 
Q 2666 3584 2933 3390 
Q 3200 3197 3328 2828 
z
" id="DejaVuSans-6d" transform="scale(0.015625)"/>
      </defs>
      <use xlink:href="#DejaVuSans-72"/>
      <use x="41.113281" xlink:href="#DejaVuSans-61"/>
      <use x="102.392578" xlink:href="#DejaVuSans-6e"/>
      <use x="165.771484" xlink:href="#DejaVuSans-64"/>
      <use x="229.248047" xlink:href="#DejaVuSans-6f"/>
      <use x="290.429688" xlink:href="#DejaVuSans-6d"/>
     </g>
    </g>
    <g id="line2d_56">
     <path d="M 805.108438 85.528557 
L 825.108438 85.528557 
" style="fill:none;stroke:#ffffff;stroke-linecap:square;stroke-width:1.5;"/>
    </g>
    <g id="line2d_57">
     <defs>
      <path d="M -0 5 
L 5 -5 
L -5 -5 
z
" id="m28062bd7f8" style="stroke:#ffffff;stroke-linejoin:miter;"/>
     </defs>
     <g>
      <use style="fill:#ff0000;stroke:#ffffff;stroke-linejoin:miter;" x="815.108438" xlink:href="#m28062bd7f8" y="85.528557"/>
     </g>
    </g>
    <g id="text_53">
     <!-- invest - abuse -->
     <g transform="translate(833.108438 89.028557)scale(0.1 -0.1)">
      <defs>
       <path d="M 3116 1747 
Q 3116 2381 2855 2742 
Q 2594 3103 2138 3103 
Q 1681 3103 1420 2742 
Q 1159 2381 1159 1747 
Q 1159 1113 1420 752 
Q 1681 391 2138 391 
Q 2594 391 2855 752 
Q 3116 1113 3116 1747 
z
M 1159 2969 
Q 1341 3281 1617 3432 
Q 1894 3584 2278 3584 
Q 2916 3584 3314 3078 
Q 3713 2572 3713 1747 
Q 3713 922 3314 415 
Q 2916 -91 2278 -91 
Q 1894 -91 1617 61 
Q 1341 213 1159 525 
L 1159 0 
L 581 0 
L 581 4863 
L 1159 4863 
L 1159 2969 
z
" id="DejaVuSans-62" transform="scale(0.015625)"/>
      </defs>
      <use xlink:href="#DejaVuSans-69"/>
      <use x="27.783203" xlink:href="#DejaVuSans-6e"/>
      <use x="91.162109" xlink:href="#DejaVuSans-76"/>
      <use x="150.341797" xlink:href="#DejaVuSans-65"/>
      <use x="211.865234" xlink:href="#DejaVuSans-73"/>
      <use x="263.964844" xlink:href="#DejaVuSans-74"/>
      <use x="303.173828" xlink:href="#DejaVuSans-20"/>
      <use x="334.960938" xlink:href="#DejaVuSans-2d"/>
      <use x="371.044922" xlink:href="#DejaVuSans-20"/>
      <use x="402.832031" xlink:href="#DejaVuSans-61"/>
      <use x="464.111328" xlink:href="#DejaVuSans-62"/>
      <use x="527.587891" xlink:href="#DejaVuSans-75"/>
      <use x="590.966797" xlink:href="#DejaVuSans-73"/>
      <use x="643.066406" xlink:href="#DejaVuSans-65"/>
     </g>
    </g>
    <g id="line2d_58">
     <path d="M 805.108438 100.206682 
L 825.108438 100.206682 
" style="fill:none;stroke:#ffffff;stroke-linecap:square;stroke-width:1.5;"/>
    </g>
    <g id="line2d_59">
     <defs>
      <path d="M 0 -5 
L -5 5 
L 5 5 
z
" id="mef57a8fea2" style="stroke:#ffffff;stroke-linejoin:miter;"/>
     </defs>
     <g>
      <use style="fill:#0000ff;stroke:#ffffff;stroke-linejoin:miter;" x="815.108438" xlink:href="#mef57a8fea2" y="100.206682"/>
     </g>
    </g>
    <g id="text_54">
     <!-- invest - return -->
     <g transform="translate(833.108438 103.706682)scale(0.1 -0.1)">
      <use xlink:href="#DejaVuSans-69"/>
      <use x="27.783203" xlink:href="#DejaVuSans-6e"/>
      <use x="91.162109" xlink:href="#DejaVuSans-76"/>
      <use x="150.341797" xlink:href="#DejaVuSans-65"/>
      <use x="211.865234" xlink:href="#DejaVuSans-73"/>
      <use x="263.964844" xlink:href="#DejaVuSans-74"/>
      <use x="303.173828" xlink:href="#DejaVuSans-20"/>
      <use x="334.960938" xlink:href="#DejaVuSans-2d"/>
      <use x="371.044922" xlink:href="#DejaVuSans-20"/>
      <use x="402.832031" xlink:href="#DejaVuSans-72"/>
      <use x="441.695312" xlink:href="#DejaVuSans-65"/>
      <use x="503.21875" xlink:href="#DejaVuSans-74"/>
      <use x="542.427734" xlink:href="#DejaVuSans-75"/>
      <use x="605.806641" xlink:href="#DejaVuSans-72"/>
      <use x="645.169922" xlink:href="#DejaVuSans-6e"/>
     </g>
    </g>
    <g id="line2d_60">
     <path d="M 805.108438 114.884807 
L 825.108438 114.884807 
" style="fill:none;stroke:#ffffff;stroke-linecap:square;stroke-width:1.5;"/>
    </g>
    <g id="line2d_61">
     <defs>
      <path d="M -2.5 5 
L 0 2.5 
L 2.5 5 
L 5 2.5 
L 2.5 0 
L 5 -2.5 
L 2.5 -5 
L 0 -2.5 
L -2.5 -5 
L -5 -2.5 
L -2.5 0 
L -5 2.5 
z
" id="m73b7a97c73" style="stroke:#ffffff;stroke-linejoin:miter;"/>
     </defs>
     <g>
      <use style="stroke:#ffffff;stroke-linejoin:miter;" x="815.108438" xlink:href="#m73b7a97c73" y="114.884807"/>
     </g>
    </g>
    <g id="text_55">
     <!-- no invest -->
     <g transform="translate(833.108438 118.384807)scale(0.1 -0.1)">
      <use xlink:href="#DejaVuSans-6e"/>
      <use x="63.378906" xlink:href="#DejaVuSans-6f"/>
      <use x="124.560547" xlink:href="#DejaVuSans-20"/>
      <use x="156.347656" xlink:href="#DejaVuSans-69"/>
      <use x="184.130859" xlink:href="#DejaVuSans-6e"/>
      <use x="247.509766" xlink:href="#DejaVuSans-76"/>
      <use x="306.689453" xlink:href="#DejaVuSans-65"/>
      <use x="368.212891" xlink:href="#DejaVuSans-73"/>
      <use x="420.3125" xlink:href="#DejaVuSans-74"/>
     </g>
    </g>
   </g>
  </g>
 </g>
 <defs>
  <clipPath id="p1cae57e990">
   <rect height="497.870776" width="858.944" x="54.016" y="28.395744"/>
  </clipPath>
 </defs>
</svg>
