<?xml version="1.0" encoding="utf-8" standalone="no"?>
<!DOCTYPE svg PUBLIC "-//W3C//DTD SVG 1.1//EN"
  "http://www.w3.org/Graphics/SVG/1.1/DTD/svg11.dtd">
<svg height="583.2pt" version="1.1" viewBox="0 0 1152 583.2" width="1152pt" xmlns="http://www.w3.org/2000/svg" xmlns:xlink="http://www.w3.org/1999/xlink">
 <metadata>
  <rdf:RDF xmlns:cc="http://creativecommons.org/ns#" xmlns:dc="http://purl.org/dc/elements/1.1/" xmlns:rdf="http://www.w3.org/1999/02/22-rdf-syntax-ns#">
   <cc:Work>
    <dc:type rdf:resource="http://purl.org/dc/dcmitype/StillImage"/>
    <dc:date>2024-06-18T15:48:31.469645</dc:date>
    <dc:format>image/svg+xml</dc:format>
    <dc:creator>
     <cc:Agent>
      <dc:title>Matplotlib v3.4.3, https://matplotlib.org/</dc:title>
     </cc:Agent>
    </dc:creator>
   </cc:Work>
  </rdf:RDF>
 </metadata>
 <defs>
  <style type="text/css">*{stroke-linecap:butt;stroke-linejoin:round;}</style>
 </defs>
 <g id="figure_1">
  <g id="patch_1">
   <path d="M 0 583.2 
L 1152 583.2 
L 1152 0 
L 0 0 
z
" style="fill:#ffffff;"/>
  </g>
  <g id="axes_1">
   <g id="patch_2">
    <path d="M 144 519.048 
L 1036.8 519.048 
L 1036.8 69.984 
L 144 69.984 
z
" style="fill:#ffffff;"/>
   </g>
   <g id="PathCollection_1">
    <path clip-path="url(#p2248471b8c)" d="M 194.727273 150.873354 
L 200.850997 138.625905 
L 188.603548 138.625905 
z
" style="fill:#ff0000;stroke:#ff0000;"/>
    <path clip-path="url(#p2248471b8c)" d="M 215.018182 163.724327 
L 208.894457 175.971776 
L 221.141906 175.971776 
z
" style="fill:#0000ff;stroke:#0000ff;"/>
    <path clip-path="url(#p2248471b8c)" d="M 235.309091 186.406617 
L 241.432815 174.159168 
L 229.185367 174.159168 
z
" style="fill:#ff0000;stroke:#ff0000;"/>
    <path clip-path="url(#p2248471b8c)" d="M 252.538138 171.962642 
L 255.6 168.90078 
L 258.661862 171.962642 
L 261.723724 168.90078 
L 258.661862 165.838918 
L 261.723724 162.777056 
L 258.661862 159.715194 
L 255.6 162.777056 
L 252.538138 159.715194 
L 249.476276 162.777056 
L 252.538138 165.838918 
L 249.476276 168.90078 
z
" style="stroke:#000000;"/>
    <path clip-path="url(#p2248471b8c)" d="M 272.829047 190.219057 
L 275.890909 187.157195 
L 278.952771 190.219057 
L 282.014633 187.157195 
L 278.952771 184.095333 
L 282.014633 181.03347 
L 278.952771 177.971608 
L 275.890909 181.03347 
L 272.829047 177.971608 
L 269.767185 181.03347 
L 272.829047 184.095333 
L 269.767185 187.157195 
z
" style="stroke:#000000;"/>
    <path clip-path="url(#p2248471b8c)" d="M 293.119956 194.612595 
L 296.181818 191.550733 
L 299.24368 194.612595 
L 302.305543 191.550733 
L 299.24368 188.488871 
L 302.305543 185.427008 
L 299.24368 182.365146 
L 296.181818 185.427008 
L 293.119956 182.365146 
L 290.058094 185.427008 
L 293.119956 188.488871 
L 290.058094 191.550733 
z
" style="stroke:#000000;"/>
    <path clip-path="url(#p2248471b8c)" d="M 313.410865 196.811956 
L 316.472727 193.750094 
L 319.534589 196.811956 
L 322.596452 193.750094 
L 319.534589 190.688232 
L 322.596452 187.62637 
L 319.534589 184.564507 
L 316.472727 187.62637 
L 313.410865 184.564507 
L 310.349003 187.62637 
L 313.410865 190.688232 
L 310.349003 193.750094 
z
" style="stroke:#000000;"/>
    <path clip-path="url(#p2248471b8c)" d="M 333.701774 198.110003 
L 336.763636 195.048141 
L 339.825499 198.110003 
L 342.887361 195.048141 
L 339.825499 191.986279 
L 342.887361 188.924417 
L 339.825499 185.862555 
L 336.763636 188.924417 
L 333.701774 185.862555 
L 330.639912 188.924417 
L 333.701774 191.986279 
L 330.639912 195.048141 
z
" style="stroke:#000000;"/>
    <path clip-path="url(#p2248471b8c)" d="M 353.992683 198.957945 
L 357.054545 195.896083 
L 360.116408 198.957945 
L 363.17827 195.896083 
L 360.116408 192.834221 
L 363.17827 189.772359 
L 360.116408 186.710496 
L 357.054545 189.772359 
L 353.992683 186.710496 
L 350.930821 189.772359 
L 353.992683 192.834221 
L 350.930821 195.896083 
z
" style="stroke:#000000;"/>
    <path clip-path="url(#p2248471b8c)" d="M 374.283592 199.554956 
L 377.345455 196.493094 
L 380.407317 199.554956 
L 383.469179 196.493094 
L 380.407317 193.431231 
L 383.469179 190.369369 
L 380.407317 187.307507 
L 377.345455 190.369369 
L 374.283592 187.307507 
L 371.22173 190.369369 
L 374.283592 193.431231 
L 371.22173 196.493094 
z
" style="stroke:#000000;"/>
    <path clip-path="url(#p2248471b8c)" d="M 394.574501 199.997416 
L 397.636364 196.935554 
L 400.698226 199.997416 
L 403.760088 196.935554 
L 400.698226 193.873692 
L 403.760088 190.811829 
L 400.698226 187.749967 
L 397.636364 190.811829 
L 394.574501 187.749967 
L 391.512639 190.811829 
L 394.574501 193.873692 
L 391.512639 196.935554 
z
" style="stroke:#000000;"/>
    <path clip-path="url(#p2248471b8c)" d="M 414.865411 200.337002 
L 417.927273 197.27514 
L 420.989135 200.337002 
L 424.050997 197.27514 
L 420.989135 194.213277 
L 424.050997 191.151415 
L 420.989135 188.089553 
L 417.927273 191.151415 
L 414.865411 188.089553 
L 411.803548 191.151415 
L 414.865411 194.213277 
L 411.803548 197.27514 
z
" style="stroke:#000000;"/>
    <path clip-path="url(#p2248471b8c)" d="M 435.15632 200.60429 
L 438.218182 197.542428 
L 441.280044 200.60429 
L 444.341906 197.542428 
L 441.280044 194.480565 
L 444.341906 191.418703 
L 441.280044 188.356841 
L 438.218182 191.418703 
L 435.15632 188.356841 
L 432.094457 191.418703 
L 435.15632 194.480565 
L 432.094457 197.542428 
z
" style="stroke:#000000;"/>
    <path clip-path="url(#p2248471b8c)" d="M 455.447229 200.818823 
L 458.509091 197.75696 
L 461.570953 200.818823 
L 464.632815 197.75696 
L 461.570953 194.695098 
L 464.632815 191.633236 
L 461.570953 188.571374 
L 458.509091 191.633236 
L 455.447229 188.571374 
L 452.385367 191.633236 
L 455.447229 194.695098 
L 452.385367 197.75696 
z
" style="stroke:#000000;"/>
    <path clip-path="url(#p2248471b8c)" d="M 475.738138 200.993788 
L 478.8 197.931926 
L 481.861862 200.993788 
L 484.923724 197.931926 
L 481.861862 194.870064 
L 484.923724 191.808202 
L 481.861862 188.746339 
L 478.8 191.808202 
L 475.738138 188.746339 
L 472.676276 191.808202 
L 475.738138 194.870064 
L 472.676276 197.931926 
z
" style="stroke:#000000;"/>
    <path clip-path="url(#p2248471b8c)" d="M 496.029047 201.138432 
L 499.090909 198.07657 
L 502.152771 201.138432 
L 505.214633 198.07657 
L 502.152771 195.014708 
L 505.214633 191.952845 
L 502.152771 188.890983 
L 499.090909 191.952845 
L 496.029047 188.890983 
L 492.967185 191.952845 
L 496.029047 195.014708 
L 492.967185 198.07657 
z
" style="stroke:#000000;"/>
    <path clip-path="url(#p2248471b8c)" d="M 516.319956 201.259421 
L 519.381818 198.197559 
L 522.44368 201.259421 
L 525.505543 198.197559 
L 522.44368 195.135697 
L 525.505543 192.073834 
L 522.44368 189.011972 
L 519.381818 192.073834 
L 516.319956 189.011972 
L 513.258094 192.073834 
L 516.319956 195.135697 
L 513.258094 198.197559 
z
" style="stroke:#000000;"/>
    <path clip-path="url(#p2248471b8c)" d="M 536.610865 201.361673 
L 539.672727 198.29981 
L 542.734589 201.361673 
L 545.796452 198.29981 
L 542.734589 195.237948 
L 545.796452 192.176086 
L 542.734589 189.114224 
L 539.672727 192.176086 
L 536.610865 189.114224 
L 533.549003 192.176086 
L 536.610865 195.237948 
L 533.549003 198.29981 
z
" style="stroke:#000000;"/>
    <path clip-path="url(#p2248471b8c)" d="M 556.901774 201.448883 
L 559.963636 198.38702 
L 563.025499 201.448883 
L 566.087361 198.38702 
L 563.025499 195.325158 
L 566.087361 192.263296 
L 563.025499 189.201434 
L 559.963636 192.263296 
L 556.901774 189.201434 
L 553.839912 192.263296 
L 556.901774 195.325158 
L 553.839912 198.38702 
z
" style="stroke:#000000;"/>
    <path clip-path="url(#p2248471b8c)" d="M 577.192683 201.523874 
L 580.254545 198.462012 
L 583.316408 201.523874 
L 586.37827 198.462012 
L 583.316408 195.40015 
L 586.37827 192.338288 
L 583.316408 189.276425 
L 580.254545 192.338288 
L 577.192683 189.276425 
L 574.130821 192.338288 
L 577.192683 195.40015 
L 574.130821 198.462012 
z
" style="stroke:#000000;"/>
    <path clip-path="url(#p2248471b8c)" d="M 597.483592 201.588836 
L 600.545455 198.526973 
L 603.607317 201.588836 
L 606.669179 198.526973 
L 603.607317 195.465111 
L 606.669179 192.403249 
L 603.607317 189.341387 
L 600.545455 192.403249 
L 597.483592 189.341387 
L 594.42173 192.403249 
L 597.483592 195.465111 
L 594.42173 198.526973 
z
" style="stroke:#000000;"/>
    <path clip-path="url(#p2248471b8c)" d="M 617.774501 201.645484 
L 620.836364 198.583622 
L 623.898226 201.645484 
L 626.960088 198.583622 
L 623.898226 195.52176 
L 626.960088 192.459898 
L 623.898226 189.398035 
L 620.836364 192.459898 
L 617.774501 189.398035 
L 614.712639 192.459898 
L 617.774501 195.52176 
L 614.712639 198.583622 
z
" style="stroke:#000000;"/>
    <path clip-path="url(#p2248471b8c)" d="M 638.065411 201.695184 
L 641.127273 198.633322 
L 644.189135 201.695184 
L 647.250997 198.633322 
L 644.189135 195.57146 
L 647.250997 192.509597 
L 644.189135 189.447735 
L 641.127273 192.509597 
L 638.065411 189.447735 
L 635.003548 192.509597 
L 638.065411 195.57146 
L 635.003548 198.633322 
z
" style="stroke:#000000;"/>
    <path clip-path="url(#p2248471b8c)" d="M 658.35632 201.73903 
L 661.418182 198.677168 
L 664.480044 201.73903 
L 667.541906 198.677168 
L 664.480044 195.615305 
L 667.541906 192.553443 
L 664.480044 189.491581 
L 661.418182 192.553443 
L 658.35632 189.491581 
L 655.294457 192.553443 
L 658.35632 195.615305 
L 655.294457 198.677168 
z
" style="stroke:#000000;"/>
    <path clip-path="url(#p2248471b8c)" d="M 678.647229 201.777908 
L 681.709091 198.716046 
L 684.770953 201.777908 
L 687.832815 198.716046 
L 684.770953 195.654184 
L 687.832815 192.592321 
L 684.770953 189.530459 
L 681.709091 192.592321 
L 678.647229 189.530459 
L 675.585367 192.592321 
L 678.647229 195.654184 
L 675.585367 198.716046 
z
" style="stroke:#000000;"/>
    <path clip-path="url(#p2248471b8c)" d="M 698.938138 201.812543 
L 702 198.750681 
L 705.061862 201.812543 
L 708.123724 198.750681 
L 705.061862 195.688819 
L 708.123724 192.626957 
L 705.061862 189.565094 
L 702 192.626957 
L 698.938138 189.565094 
L 695.876276 192.626957 
L 698.938138 195.688819 
L 695.876276 198.750681 
z
" style="stroke:#000000;"/>
    <path clip-path="url(#p2248471b8c)" d="M 719.229047 201.843532 
L 722.290909 198.78167 
L 725.352771 201.843532 
L 728.414633 198.78167 
L 725.352771 195.719808 
L 728.414633 192.657946 
L 725.352771 189.596083 
L 722.290909 192.657946 
L 719.229047 189.596083 
L 716.167185 192.657946 
L 719.229047 195.719808 
L 716.167185 198.78167 
z
" style="stroke:#000000;"/>
    <path clip-path="url(#p2248471b8c)" d="M 739.519956 201.87137 
L 742.581818 198.809508 
L 745.64368 201.87137 
L 748.705543 198.809508 
L 745.64368 195.747646 
L 748.705543 192.685784 
L 745.64368 189.623922 
L 742.581818 192.685784 
L 739.519956 189.623922 
L 736.458094 192.685784 
L 739.519956 195.747646 
L 736.458094 198.809508 
z
" style="stroke:#000000;"/>
    <path clip-path="url(#p2248471b8c)" d="M 759.810865 201.896472 
L 762.872727 198.834609 
L 765.934589 201.896472 
L 768.996452 198.834609 
L 765.934589 195.772747 
L 768.996452 192.710885 
L 765.934589 189.649023 
L 762.872727 192.710885 
L 759.810865 189.649023 
L 756.749003 192.710885 
L 759.810865 195.772747 
L 756.749003 198.834609 
z
" style="stroke:#000000;"/>
    <path clip-path="url(#p2248471b8c)" d="M 780.101774 201.919184 
L 783.163636 198.857322 
L 786.225499 201.919184 
L 789.287361 198.857322 
L 786.225499 195.795459 
L 789.287361 192.733597 
L 786.225499 189.671735 
L 783.163636 192.733597 
L 780.101774 189.671735 
L 777.039912 192.733597 
L 780.101774 195.795459 
L 777.039912 198.857322 
z
" style="stroke:#000000;"/>
    <path clip-path="url(#p2248471b8c)" d="M 800.392683 201.939801 
L 803.454545 198.877939 
L 806.516408 201.939801 
L 809.57827 198.877939 
L 806.516408 195.816077 
L 809.57827 192.754214 
L 806.516408 189.692352 
L 803.454545 192.754214 
L 800.392683 189.692352 
L 797.330821 192.754214 
L 800.392683 195.816077 
L 797.330821 198.877939 
z
" style="stroke:#000000;"/>
    <path clip-path="url(#p2248471b8c)" d="M 820.683592 201.958574 
L 823.745455 198.896712 
L 826.807317 201.958574 
L 829.869179 198.896712 
L 826.807317 195.834849 
L 829.869179 192.772987 
L 826.807317 189.711125 
L 823.745455 192.772987 
L 820.683592 189.711125 
L 817.62173 192.772987 
L 820.683592 195.834849 
L 817.62173 198.896712 
z
" style="stroke:#000000;"/>
    <path clip-path="url(#p2248471b8c)" d="M 840.974501 201.975716 
L 844.036364 198.913854 
L 847.098226 201.975716 
L 850.160088 198.913854 
L 847.098226 195.851991 
L 850.160088 192.790129 
L 847.098226 189.728267 
L 844.036364 192.790129 
L 840.974501 189.728267 
L 837.912639 192.790129 
L 840.974501 195.851991 
L 837.912639 198.913854 
z
" style="stroke:#000000;"/>
    <path clip-path="url(#p2248471b8c)" d="M 861.265411 201.991411 
L 864.327273 198.929549 
L 867.389135 201.991411 
L 870.450997 198.929549 
L 867.389135 195.867686 
L 870.450997 192.805824 
L 867.389135 189.743962 
L 864.327273 192.805824 
L 861.265411 189.743962 
L 858.203548 192.805824 
L 861.265411 195.867686 
L 858.203548 198.929549 
z
" style="stroke:#000000;"/>
    <path clip-path="url(#p2248471b8c)" d="M 881.55632 202.005818 
L 884.618182 198.943955 
L 887.680044 202.005818 
L 890.741906 198.943955 
L 887.680044 195.882093 
L 890.741906 192.820231 
L 887.680044 189.758369 
L 884.618182 192.820231 
L 881.55632 189.758369 
L 878.494457 192.820231 
L 881.55632 195.882093 
L 878.494457 198.943955 
z
" style="stroke:#000000;"/>
    <path clip-path="url(#p2248471b8c)" d="M 901.847229 202.019073 
L 904.909091 198.957211 
L 907.970953 202.019073 
L 911.032815 198.957211 
L 907.970953 195.895349 
L 911.032815 192.833487 
L 907.970953 189.771625 
L 904.909091 192.833487 
L 901.847229 189.771625 
L 898.785367 192.833487 
L 901.847229 195.895349 
L 898.785367 198.957211 
z
" style="stroke:#000000;"/>
    <path clip-path="url(#p2248471b8c)" d="M 922.138138 202.031298 
L 925.2 198.969436 
L 928.261862 202.031298 
L 931.323724 198.969436 
L 928.261862 195.907573 
L 931.323724 192.845711 
L 928.261862 189.783849 
L 925.2 192.845711 
L 922.138138 189.783849 
L 919.076276 192.845711 
L 922.138138 195.907573 
L 919.076276 198.969436 
z
" style="stroke:#000000;"/>
    <path clip-path="url(#p2248471b8c)" d="M 942.429047 202.042595 
L 945.490909 198.980733 
L 948.552771 202.042595 
L 951.614633 198.980733 
L 948.552771 195.918871 
L 951.614633 192.857009 
L 948.552771 189.795146 
L 945.490909 192.857009 
L 942.429047 189.795146 
L 939.367185 192.857009 
L 942.429047 195.918871 
L 939.367185 198.980733 
z
" style="stroke:#000000;"/>
    <path clip-path="url(#p2248471b8c)" d="M 962.719956 202.053057 
L 965.781818 198.991195 
L 968.84368 202.053057 
L 971.905543 198.991195 
L 968.84368 195.929333 
L 971.905543 192.86747 
L 968.84368 189.805608 
L 965.781818 192.86747 
L 962.719956 189.805608 
L 959.658094 192.86747 
L 962.719956 195.929333 
L 959.658094 198.991195 
z
" style="stroke:#000000;"/>
    <path clip-path="url(#p2248471b8c)" d="M 983.010865 300.639724 
L 986.072727 297.577862 
L 989.134589 300.639724 
L 992.196452 297.577862 
L 989.134589 294.516 
L 992.196452 291.454138 
L 989.134589 288.392276 
L 986.072727 291.454138 
L 983.010865 288.392276 
L 979.949003 291.454138 
L 983.010865 294.516 
L 979.949003 297.577862 
z
" style="stroke:#000000;"/>
   </g>
   <g id="patch_3">
    <path clip-path="url(#p2248471b8c)" d="M 184.581818 519.048 
L 184.581818 69.984 
L 590.4 69.984 
L 590.4 519.048 
z
" style="fill:#ff7f50;opacity:0.3;"/>
   </g>
   <g id="patch_4">
    <path clip-path="url(#p2248471b8c)" d="M 590.4 519.048 
L 590.4 69.984 
L 996.218182 69.984 
L 996.218182 519.048 
z
" style="fill:#b0e0e6;opacity:0.3;"/>
   </g>
   <g id="matplotlib.axis_1">
    <g id="xtick_1">
     <g id="line2d_1">
      <defs>
       <path d="M 0 0 
L 0 3.5 
" id="mb52bf94a66" style="stroke:#000000;stroke-width:0.8;"/>
      </defs>
      <g>
       <use style="stroke:#000000;stroke-width:0.8;" x="184.581818" xlink:href="#mb52bf94a66" y="519.048"/>
      </g>
     </g>
     <g id="text_1">
      <!-- 0 -->
      <g transform="translate(179.809943 537.445656)scale(0.15 -0.15)">
       <defs>
        <path d="M 2034 4250 
Q 1547 4250 1301 3770 
Q 1056 3291 1056 2328 
Q 1056 1369 1301 889 
Q 1547 409 2034 409 
Q 2525 409 2770 889 
Q 3016 1369 3016 2328 
Q 3016 3291 2770 3770 
Q 2525 4250 2034 4250 
z
M 2034 4750 
Q 2819 4750 3233 4129 
Q 3647 3509 3647 2328 
Q 3647 1150 3233 529 
Q 2819 -91 2034 -91 
Q 1250 -91 836 529 
Q 422 1150 422 2328 
Q 422 3509 836 4129 
Q 1250 4750 2034 4750 
z
" id="DejaVuSans-30" transform="scale(0.015625)"/>
       </defs>
       <use xlink:href="#DejaVuSans-30"/>
      </g>
     </g>
    </g>
    <g id="xtick_2">
     <g id="line2d_2">
      <g>
       <use style="stroke:#000000;stroke-width:0.8;" x="204.872727" xlink:href="#mb52bf94a66" y="519.048"/>
      </g>
     </g>
     <g id="text_2">
      <!-- 1 -->
      <g transform="translate(200.100852 537.445656)scale(0.15 -0.15)">
       <defs>
        <path d="M 794 531 
L 1825 531 
L 1825 4091 
L 703 3866 
L 703 4441 
L 1819 4666 
L 2450 4666 
L 2450 531 
L 3481 531 
L 3481 0 
L 794 0 
L 794 531 
z
" id="DejaVuSans-31" transform="scale(0.015625)"/>
       </defs>
       <use xlink:href="#DejaVuSans-31"/>
      </g>
     </g>
    </g>
    <g id="xtick_3">
     <g id="line2d_3">
      <g>
       <use style="stroke:#000000;stroke-width:0.8;" x="225.163636" xlink:href="#mb52bf94a66" y="519.048"/>
      </g>
     </g>
     <g id="text_3">
      <!-- 2 -->
      <g transform="translate(220.391761 537.445656)scale(0.15 -0.15)">
       <defs>
        <path d="M 1228 531 
L 3431 531 
L 3431 0 
L 469 0 
L 469 531 
Q 828 903 1448 1529 
Q 2069 2156 2228 2338 
Q 2531 2678 2651 2914 
Q 2772 3150 2772 3378 
Q 2772 3750 2511 3984 
Q 2250 4219 1831 4219 
Q 1534 4219 1204 4116 
Q 875 4013 500 3803 
L 500 4441 
Q 881 4594 1212 4672 
Q 1544 4750 1819 4750 
Q 2544 4750 2975 4387 
Q 3406 4025 3406 3419 
Q 3406 3131 3298 2873 
Q 3191 2616 2906 2266 
Q 2828 2175 2409 1742 
Q 1991 1309 1228 531 
z
" id="DejaVuSans-32" transform="scale(0.015625)"/>
       </defs>
       <use xlink:href="#DejaVuSans-32"/>
      </g>
     </g>
    </g>
    <g id="xtick_4">
     <g id="line2d_4">
      <g>
       <use style="stroke:#000000;stroke-width:0.8;" x="245.454545" xlink:href="#mb52bf94a66" y="519.048"/>
      </g>
     </g>
     <g id="text_4">
      <!-- 3 -->
      <g transform="translate(240.68267 537.445656)scale(0.15 -0.15)">
       <defs>
        <path d="M 2597 2516 
Q 3050 2419 3304 2112 
Q 3559 1806 3559 1356 
Q 3559 666 3084 287 
Q 2609 -91 1734 -91 
Q 1441 -91 1130 -33 
Q 819 25 488 141 
L 488 750 
Q 750 597 1062 519 
Q 1375 441 1716 441 
Q 2309 441 2620 675 
Q 2931 909 2931 1356 
Q 2931 1769 2642 2001 
Q 2353 2234 1838 2234 
L 1294 2234 
L 1294 2753 
L 1863 2753 
Q 2328 2753 2575 2939 
Q 2822 3125 2822 3475 
Q 2822 3834 2567 4026 
Q 2313 4219 1838 4219 
Q 1578 4219 1281 4162 
Q 984 4106 628 3988 
L 628 4550 
Q 988 4650 1302 4700 
Q 1616 4750 1894 4750 
Q 2613 4750 3031 4423 
Q 3450 4097 3450 3541 
Q 3450 3153 3228 2886 
Q 3006 2619 2597 2516 
z
" id="DejaVuSans-33" transform="scale(0.015625)"/>
       </defs>
       <use xlink:href="#DejaVuSans-33"/>
      </g>
     </g>
    </g>
    <g id="xtick_5">
     <g id="line2d_5">
      <g>
       <use style="stroke:#000000;stroke-width:0.8;" x="265.745455" xlink:href="#mb52bf94a66" y="519.048"/>
      </g>
     </g>
     <g id="text_5">
      <!-- 4 -->
      <g transform="translate(260.97358 537.445656)scale(0.15 -0.15)">
       <defs>
        <path d="M 2419 4116 
L 825 1625 
L 2419 1625 
L 2419 4116 
z
M 2253 4666 
L 3047 4666 
L 3047 1625 
L 3713 1625 
L 3713 1100 
L 3047 1100 
L 3047 0 
L 2419 0 
L 2419 1100 
L 313 1100 
L 313 1709 
L 2253 4666 
z
" id="DejaVuSans-34" transform="scale(0.015625)"/>
       </defs>
       <use xlink:href="#DejaVuSans-34"/>
      </g>
     </g>
    </g>
    <g id="xtick_6">
     <g id="line2d_6">
      <g>
       <use style="stroke:#000000;stroke-width:0.8;" x="286.036364" xlink:href="#mb52bf94a66" y="519.048"/>
      </g>
     </g>
     <g id="text_6">
      <!-- 5 -->
      <g transform="translate(281.264489 537.445656)scale(0.15 -0.15)">
       <defs>
        <path d="M 691 4666 
L 3169 4666 
L 3169 4134 
L 1269 4134 
L 1269 2991 
Q 1406 3038 1543 3061 
Q 1681 3084 1819 3084 
Q 2600 3084 3056 2656 
Q 3513 2228 3513 1497 
Q 3513 744 3044 326 
Q 2575 -91 1722 -91 
Q 1428 -91 1123 -41 
Q 819 9 494 109 
L 494 744 
Q 775 591 1075 516 
Q 1375 441 1709 441 
Q 2250 441 2565 725 
Q 2881 1009 2881 1497 
Q 2881 1984 2565 2268 
Q 2250 2553 1709 2553 
Q 1456 2553 1204 2497 
Q 953 2441 691 2322 
L 691 4666 
z
" id="DejaVuSans-35" transform="scale(0.015625)"/>
       </defs>
       <use xlink:href="#DejaVuSans-35"/>
      </g>
     </g>
    </g>
    <g id="xtick_7">
     <g id="line2d_7">
      <g>
       <use style="stroke:#000000;stroke-width:0.8;" x="306.327273" xlink:href="#mb52bf94a66" y="519.048"/>
      </g>
     </g>
     <g id="text_7">
      <!-- 6 -->
      <g transform="translate(301.555398 537.445656)scale(0.15 -0.15)">
       <defs>
        <path d="M 2113 2584 
Q 1688 2584 1439 2293 
Q 1191 2003 1191 1497 
Q 1191 994 1439 701 
Q 1688 409 2113 409 
Q 2538 409 2786 701 
Q 3034 994 3034 1497 
Q 3034 2003 2786 2293 
Q 2538 2584 2113 2584 
z
M 3366 4563 
L 3366 3988 
Q 3128 4100 2886 4159 
Q 2644 4219 2406 4219 
Q 1781 4219 1451 3797 
Q 1122 3375 1075 2522 
Q 1259 2794 1537 2939 
Q 1816 3084 2150 3084 
Q 2853 3084 3261 2657 
Q 3669 2231 3669 1497 
Q 3669 778 3244 343 
Q 2819 -91 2113 -91 
Q 1303 -91 875 529 
Q 447 1150 447 2328 
Q 447 3434 972 4092 
Q 1497 4750 2381 4750 
Q 2619 4750 2861 4703 
Q 3103 4656 3366 4563 
z
" id="DejaVuSans-36" transform="scale(0.015625)"/>
       </defs>
       <use xlink:href="#DejaVuSans-36"/>
      </g>
     </g>
    </g>
    <g id="xtick_8">
     <g id="line2d_8">
      <g>
       <use style="stroke:#000000;stroke-width:0.8;" x="326.618182" xlink:href="#mb52bf94a66" y="519.048"/>
      </g>
     </g>
     <g id="text_8">
      <!-- 7 -->
      <g transform="translate(321.846307 537.445656)scale(0.15 -0.15)">
       <defs>
        <path d="M 525 4666 
L 3525 4666 
L 3525 4397 
L 1831 0 
L 1172 0 
L 2766 4134 
L 525 4134 
L 525 4666 
z
" id="DejaVuSans-37" transform="scale(0.015625)"/>
       </defs>
       <use xlink:href="#DejaVuSans-37"/>
      </g>
     </g>
    </g>
    <g id="xtick_9">
     <g id="line2d_9">
      <g>
       <use style="stroke:#000000;stroke-width:0.8;" x="346.909091" xlink:href="#mb52bf94a66" y="519.048"/>
      </g>
     </g>
     <g id="text_9">
      <!-- 8 -->
      <g transform="translate(342.137216 537.445656)scale(0.15 -0.15)">
       <defs>
        <path d="M 2034 2216 
Q 1584 2216 1326 1975 
Q 1069 1734 1069 1313 
Q 1069 891 1326 650 
Q 1584 409 2034 409 
Q 2484 409 2743 651 
Q 3003 894 3003 1313 
Q 3003 1734 2745 1975 
Q 2488 2216 2034 2216 
z
M 1403 2484 
Q 997 2584 770 2862 
Q 544 3141 544 3541 
Q 544 4100 942 4425 
Q 1341 4750 2034 4750 
Q 2731 4750 3128 4425 
Q 3525 4100 3525 3541 
Q 3525 3141 3298 2862 
Q 3072 2584 2669 2484 
Q 3125 2378 3379 2068 
Q 3634 1759 3634 1313 
Q 3634 634 3220 271 
Q 2806 -91 2034 -91 
Q 1263 -91 848 271 
Q 434 634 434 1313 
Q 434 1759 690 2068 
Q 947 2378 1403 2484 
z
M 1172 3481 
Q 1172 3119 1398 2916 
Q 1625 2713 2034 2713 
Q 2441 2713 2670 2916 
Q 2900 3119 2900 3481 
Q 2900 3844 2670 4047 
Q 2441 4250 2034 4250 
Q 1625 4250 1398 4047 
Q 1172 3844 1172 3481 
z
" id="DejaVuSans-38" transform="scale(0.015625)"/>
       </defs>
       <use xlink:href="#DejaVuSans-38"/>
      </g>
     </g>
    </g>
    <g id="xtick_10">
     <g id="line2d_10">
      <g>
       <use style="stroke:#000000;stroke-width:0.8;" x="367.2" xlink:href="#mb52bf94a66" y="519.048"/>
      </g>
     </g>
     <g id="text_10">
      <!-- 9 -->
      <g transform="translate(362.428125 537.445656)scale(0.15 -0.15)">
       <defs>
        <path d="M 703 97 
L 703 672 
Q 941 559 1184 500 
Q 1428 441 1663 441 
Q 2288 441 2617 861 
Q 2947 1281 2994 2138 
Q 2813 1869 2534 1725 
Q 2256 1581 1919 1581 
Q 1219 1581 811 2004 
Q 403 2428 403 3163 
Q 403 3881 828 4315 
Q 1253 4750 1959 4750 
Q 2769 4750 3195 4129 
Q 3622 3509 3622 2328 
Q 3622 1225 3098 567 
Q 2575 -91 1691 -91 
Q 1453 -91 1209 -44 
Q 966 3 703 97 
z
M 1959 2075 
Q 2384 2075 2632 2365 
Q 2881 2656 2881 3163 
Q 2881 3666 2632 3958 
Q 2384 4250 1959 4250 
Q 1534 4250 1286 3958 
Q 1038 3666 1038 3163 
Q 1038 2656 1286 2365 
Q 1534 2075 1959 2075 
z
" id="DejaVuSans-39" transform="scale(0.015625)"/>
       </defs>
       <use xlink:href="#DejaVuSans-39"/>
      </g>
     </g>
    </g>
    <g id="xtick_11">
     <g id="line2d_11">
      <g>
       <use style="stroke:#000000;stroke-width:0.8;" x="387.490909" xlink:href="#mb52bf94a66" y="519.048"/>
      </g>
     </g>
     <g id="text_11">
      <!-- 10 -->
      <g transform="translate(377.947159 537.445656)scale(0.15 -0.15)">
       <use xlink:href="#DejaVuSans-31"/>
       <use x="63.623047" xlink:href="#DejaVuSans-30"/>
      </g>
     </g>
    </g>
    <g id="xtick_12">
     <g id="line2d_12">
      <g>
       <use style="stroke:#000000;stroke-width:0.8;" x="407.781818" xlink:href="#mb52bf94a66" y="519.048"/>
      </g>
     </g>
     <g id="text_12">
      <!-- 11 -->
      <g transform="translate(398.238068 537.445656)scale(0.15 -0.15)">
       <use xlink:href="#DejaVuSans-31"/>
       <use x="63.623047" xlink:href="#DejaVuSans-31"/>
      </g>
     </g>
    </g>
    <g id="xtick_13">
     <g id="line2d_13">
      <g>
       <use style="stroke:#000000;stroke-width:0.8;" x="428.072727" xlink:href="#mb52bf94a66" y="519.048"/>
      </g>
     </g>
     <g id="text_13">
      <!-- 12 -->
      <g transform="translate(418.528977 537.445656)scale(0.15 -0.15)">
       <use xlink:href="#DejaVuSans-31"/>
       <use x="63.623047" xlink:href="#DejaVuSans-32"/>
      </g>
     </g>
    </g>
    <g id="xtick_14">
     <g id="line2d_14">
      <g>
       <use style="stroke:#000000;stroke-width:0.8;" x="448.363636" xlink:href="#mb52bf94a66" y="519.048"/>
      </g>
     </g>
     <g id="text_14">
      <!-- 13 -->
      <g transform="translate(438.819886 537.445656)scale(0.15 -0.15)">
       <use xlink:href="#DejaVuSans-31"/>
       <use x="63.623047" xlink:href="#DejaVuSans-33"/>
      </g>
     </g>
    </g>
    <g id="xtick_15">
     <g id="line2d_15">
      <g>
       <use style="stroke:#000000;stroke-width:0.8;" x="468.654545" xlink:href="#mb52bf94a66" y="519.048"/>
      </g>
     </g>
     <g id="text_15">
      <!-- 14 -->
      <g transform="translate(459.110795 537.445656)scale(0.15 -0.15)">
       <use xlink:href="#DejaVuSans-31"/>
       <use x="63.623047" xlink:href="#DejaVuSans-34"/>
      </g>
     </g>
    </g>
    <g id="xtick_16">
     <g id="line2d_16">
      <g>
       <use style="stroke:#000000;stroke-width:0.8;" x="488.945455" xlink:href="#mb52bf94a66" y="519.048"/>
      </g>
     </g>
     <g id="text_16">
      <!-- 15 -->
      <g transform="translate(479.401705 537.445656)scale(0.15 -0.15)">
       <use xlink:href="#DejaVuSans-31"/>
       <use x="63.623047" xlink:href="#DejaVuSans-35"/>
      </g>
     </g>
    </g>
    <g id="xtick_17">
     <g id="line2d_17">
      <g>
       <use style="stroke:#000000;stroke-width:0.8;" x="509.236364" xlink:href="#mb52bf94a66" y="519.048"/>
      </g>
     </g>
     <g id="text_17">
      <!-- 16 -->
      <g transform="translate(499.692614 537.445656)scale(0.15 -0.15)">
       <use xlink:href="#DejaVuSans-31"/>
       <use x="63.623047" xlink:href="#DejaVuSans-36"/>
      </g>
     </g>
    </g>
    <g id="xtick_18">
     <g id="line2d_18">
      <g>
       <use style="stroke:#000000;stroke-width:0.8;" x="529.527273" xlink:href="#mb52bf94a66" y="519.048"/>
      </g>
     </g>
     <g id="text_18">
      <!-- 17 -->
      <g transform="translate(519.983523 537.445656)scale(0.15 -0.15)">
       <use xlink:href="#DejaVuSans-31"/>
       <use x="63.623047" xlink:href="#DejaVuSans-37"/>
      </g>
     </g>
    </g>
    <g id="xtick_19">
     <g id="line2d_19">
      <g>
       <use style="stroke:#000000;stroke-width:0.8;" x="549.818182" xlink:href="#mb52bf94a66" y="519.048"/>
      </g>
     </g>
     <g id="text_19">
      <!-- 18 -->
      <g transform="translate(540.274432 537.445656)scale(0.15 -0.15)">
       <use xlink:href="#DejaVuSans-31"/>
       <use x="63.623047" xlink:href="#DejaVuSans-38"/>
      </g>
     </g>
    </g>
    <g id="xtick_20">
     <g id="line2d_20">
      <g>
       <use style="stroke:#000000;stroke-width:0.8;" x="570.109091" xlink:href="#mb52bf94a66" y="519.048"/>
      </g>
     </g>
     <g id="text_20">
      <!-- 19 -->
      <g transform="translate(560.565341 537.445656)scale(0.15 -0.15)">
       <use xlink:href="#DejaVuSans-31"/>
       <use x="63.623047" xlink:href="#DejaVuSans-39"/>
      </g>
     </g>
    </g>
    <g id="xtick_21">
     <g id="line2d_21">
      <g>
       <use style="stroke:#000000;stroke-width:0.8;" x="590.4" xlink:href="#mb52bf94a66" y="519.048"/>
      </g>
     </g>
     <g id="text_21">
      <!-- 20 -->
      <g transform="translate(580.85625 537.445656)scale(0.15 -0.15)">
       <use xlink:href="#DejaVuSans-32"/>
       <use x="63.623047" xlink:href="#DejaVuSans-30"/>
      </g>
     </g>
    </g>
    <g id="xtick_22">
     <g id="line2d_22">
      <g>
       <use style="stroke:#000000;stroke-width:0.8;" x="610.690909" xlink:href="#mb52bf94a66" y="519.048"/>
      </g>
     </g>
     <g id="text_22">
      <!-- 21 -->
      <g transform="translate(601.147159 537.445656)scale(0.15 -0.15)">
       <use xlink:href="#DejaVuSans-32"/>
       <use x="63.623047" xlink:href="#DejaVuSans-31"/>
      </g>
     </g>
    </g>
    <g id="xtick_23">
     <g id="line2d_23">
      <g>
       <use style="stroke:#000000;stroke-width:0.8;" x="630.981818" xlink:href="#mb52bf94a66" y="519.048"/>
      </g>
     </g>
     <g id="text_23">
      <!-- 22 -->
      <g transform="translate(621.438068 537.445656)scale(0.15 -0.15)">
       <use xlink:href="#DejaVuSans-32"/>
       <use x="63.623047" xlink:href="#DejaVuSans-32"/>
      </g>
     </g>
    </g>
    <g id="xtick_24">
     <g id="line2d_24">
      <g>
       <use style="stroke:#000000;stroke-width:0.8;" x="651.272727" xlink:href="#mb52bf94a66" y="519.048"/>
      </g>
     </g>
     <g id="text_24">
      <!-- 23 -->
      <g transform="translate(641.728977 537.445656)scale(0.15 -0.15)">
       <use xlink:href="#DejaVuSans-32"/>
       <use x="63.623047" xlink:href="#DejaVuSans-33"/>
      </g>
     </g>
    </g>
    <g id="xtick_25">
     <g id="line2d_25">
      <g>
       <use style="stroke:#000000;stroke-width:0.8;" x="671.563636" xlink:href="#mb52bf94a66" y="519.048"/>
      </g>
     </g>
     <g id="text_25">
      <!-- 24 -->
      <g transform="translate(662.019886 537.445656)scale(0.15 -0.15)">
       <use xlink:href="#DejaVuSans-32"/>
       <use x="63.623047" xlink:href="#DejaVuSans-34"/>
      </g>
     </g>
    </g>
    <g id="xtick_26">
     <g id="line2d_26">
      <g>
       <use style="stroke:#000000;stroke-width:0.8;" x="691.854545" xlink:href="#mb52bf94a66" y="519.048"/>
      </g>
     </g>
     <g id="text_26">
      <!-- 25 -->
      <g transform="translate(682.310795 537.445656)scale(0.15 -0.15)">
       <use xlink:href="#DejaVuSans-32"/>
       <use x="63.623047" xlink:href="#DejaVuSans-35"/>
      </g>
     </g>
    </g>
    <g id="xtick_27">
     <g id="line2d_27">
      <g>
       <use style="stroke:#000000;stroke-width:0.8;" x="712.145455" xlink:href="#mb52bf94a66" y="519.048"/>
      </g>
     </g>
     <g id="text_27">
      <!-- 26 -->
      <g transform="translate(702.601705 537.445656)scale(0.15 -0.15)">
       <use xlink:href="#DejaVuSans-32"/>
       <use x="63.623047" xlink:href="#DejaVuSans-36"/>
      </g>
     </g>
    </g>
    <g id="xtick_28">
     <g id="line2d_28">
      <g>
       <use style="stroke:#000000;stroke-width:0.8;" x="732.436364" xlink:href="#mb52bf94a66" y="519.048"/>
      </g>
     </g>
     <g id="text_28">
      <!-- 27 -->
      <g transform="translate(722.892614 537.445656)scale(0.15 -0.15)">
       <use xlink:href="#DejaVuSans-32"/>
       <use x="63.623047" xlink:href="#DejaVuSans-37"/>
      </g>
     </g>
    </g>
    <g id="xtick_29">
     <g id="line2d_29">
      <g>
       <use style="stroke:#000000;stroke-width:0.8;" x="752.727273" xlink:href="#mb52bf94a66" y="519.048"/>
      </g>
     </g>
     <g id="text_29">
      <!-- 28 -->
      <g transform="translate(743.183523 537.445656)scale(0.15 -0.15)">
       <use xlink:href="#DejaVuSans-32"/>
       <use x="63.623047" xlink:href="#DejaVuSans-38"/>
      </g>
     </g>
    </g>
    <g id="xtick_30">
     <g id="line2d_30">
      <g>
       <use style="stroke:#000000;stroke-width:0.8;" x="773.018182" xlink:href="#mb52bf94a66" y="519.048"/>
      </g>
     </g>
     <g id="text_30">
      <!-- 29 -->
      <g transform="translate(763.474432 537.445656)scale(0.15 -0.15)">
       <use xlink:href="#DejaVuSans-32"/>
       <use x="63.623047" xlink:href="#DejaVuSans-39"/>
      </g>
     </g>
    </g>
    <g id="xtick_31">
     <g id="line2d_31">
      <g>
       <use style="stroke:#000000;stroke-width:0.8;" x="793.309091" xlink:href="#mb52bf94a66" y="519.048"/>
      </g>
     </g>
     <g id="text_31">
      <!-- 30 -->
      <g transform="translate(783.765341 537.445656)scale(0.15 -0.15)">
       <use xlink:href="#DejaVuSans-33"/>
       <use x="63.623047" xlink:href="#DejaVuSans-30"/>
      </g>
     </g>
    </g>
    <g id="xtick_32">
     <g id="line2d_32">
      <g>
       <use style="stroke:#000000;stroke-width:0.8;" x="813.6" xlink:href="#mb52bf94a66" y="519.048"/>
      </g>
     </g>
     <g id="text_32">
      <!-- 31 -->
      <g transform="translate(804.05625 537.445656)scale(0.15 -0.15)">
       <use xlink:href="#DejaVuSans-33"/>
       <use x="63.623047" xlink:href="#DejaVuSans-31"/>
      </g>
     </g>
    </g>
    <g id="xtick_33">
     <g id="line2d_33">
      <g>
       <use style="stroke:#000000;stroke-width:0.8;" x="833.890909" xlink:href="#mb52bf94a66" y="519.048"/>
      </g>
     </g>
     <g id="text_33">
      <!-- 32 -->
      <g transform="translate(824.347159 537.445656)scale(0.15 -0.15)">
       <use xlink:href="#DejaVuSans-33"/>
       <use x="63.623047" xlink:href="#DejaVuSans-32"/>
      </g>
     </g>
    </g>
    <g id="xtick_34">
     <g id="line2d_34">
      <g>
       <use style="stroke:#000000;stroke-width:0.8;" x="854.181818" xlink:href="#mb52bf94a66" y="519.048"/>
      </g>
     </g>
     <g id="text_34">
      <!-- 33 -->
      <g transform="translate(844.638068 537.445656)scale(0.15 -0.15)">
       <use xlink:href="#DejaVuSans-33"/>
       <use x="63.623047" xlink:href="#DejaVuSans-33"/>
      </g>
     </g>
    </g>
    <g id="xtick_35">
     <g id="line2d_35">
      <g>
       <use style="stroke:#000000;stroke-width:0.8;" x="874.472727" xlink:href="#mb52bf94a66" y="519.048"/>
      </g>
     </g>
     <g id="text_35">
      <!-- 34 -->
      <g transform="translate(864.928977 537.445656)scale(0.15 -0.15)">
       <use xlink:href="#DejaVuSans-33"/>
       <use x="63.623047" xlink:href="#DejaVuSans-34"/>
      </g>
     </g>
    </g>
    <g id="xtick_36">
     <g id="line2d_36">
      <g>
       <use style="stroke:#000000;stroke-width:0.8;" x="894.763636" xlink:href="#mb52bf94a66" y="519.048"/>
      </g>
     </g>
     <g id="text_36">
      <!-- 35 -->
      <g transform="translate(885.219886 537.445656)scale(0.15 -0.15)">
       <use xlink:href="#DejaVuSans-33"/>
       <use x="63.623047" xlink:href="#DejaVuSans-35"/>
      </g>
     </g>
    </g>
    <g id="xtick_37">
     <g id="line2d_37">
      <g>
       <use style="stroke:#000000;stroke-width:0.8;" x="915.054545" xlink:href="#mb52bf94a66" y="519.048"/>
      </g>
     </g>
     <g id="text_37">
      <!-- 36 -->
      <g transform="translate(905.510795 537.445656)scale(0.15 -0.15)">
       <use xlink:href="#DejaVuSans-33"/>
       <use x="63.623047" xlink:href="#DejaVuSans-36"/>
      </g>
     </g>
    </g>
    <g id="xtick_38">
     <g id="line2d_38">
      <g>
       <use style="stroke:#000000;stroke-width:0.8;" x="935.345455" xlink:href="#mb52bf94a66" y="519.048"/>
      </g>
     </g>
     <g id="text_38">
      <!-- 37 -->
      <g transform="translate(925.801705 537.445656)scale(0.15 -0.15)">
       <use xlink:href="#DejaVuSans-33"/>
       <use x="63.623047" xlink:href="#DejaVuSans-37"/>
      </g>
     </g>
    </g>
    <g id="xtick_39">
     <g id="line2d_39">
      <g>
       <use style="stroke:#000000;stroke-width:0.8;" x="955.636364" xlink:href="#mb52bf94a66" y="519.048"/>
      </g>
     </g>
     <g id="text_39">
      <!-- 38 -->
      <g transform="translate(946.092614 537.445656)scale(0.15 -0.15)">
       <use xlink:href="#DejaVuSans-33"/>
       <use x="63.623047" xlink:href="#DejaVuSans-38"/>
      </g>
     </g>
    </g>
    <g id="xtick_40">
     <g id="line2d_40">
      <g>
       <use style="stroke:#000000;stroke-width:0.8;" x="975.927273" xlink:href="#mb52bf94a66" y="519.048"/>
      </g>
     </g>
     <g id="text_40">
      <!-- 39 -->
      <g transform="translate(966.383523 537.445656)scale(0.15 -0.15)">
       <use xlink:href="#DejaVuSans-33"/>
       <use x="63.623047" xlink:href="#DejaVuSans-39"/>
      </g>
     </g>
    </g>
    <g id="text_41">
     <!-- $t$ -->
     <g transform="translate(586.4 559.762062)scale(0.2 -0.2)">
      <defs>
       <path d="M 2706 3500 
L 2619 3053 
L 1472 3053 
L 1100 1153 
Q 1081 1047 1072 975 
Q 1063 903 1063 863 
Q 1063 663 1183 572 
Q 1303 481 1569 481 
L 2150 481 
L 2053 0 
L 1503 0 
Q 991 0 739 200 
Q 488 400 488 806 
Q 488 878 497 964 
Q 506 1050 525 1153 
L 897 3053 
L 409 3053 
L 500 3500 
L 978 3500 
L 1172 4494 
L 1747 4494 
L 1556 3500 
L 2706 3500 
z
" id="DejaVuSans-Oblique-74" transform="scale(0.015625)"/>
      </defs>
      <use transform="translate(0 0.78125)" xlink:href="#DejaVuSans-Oblique-74"/>
     </g>
    </g>
   </g>
   <g id="matplotlib.axis_2">
    <g id="ytick_1">
     <g id="line2d_41">
      <defs>
       <path d="M 0 0 
L -3.5 0 
" id="m36532d0aca" style="stroke:#000000;stroke-width:0.8;"/>
      </defs>
      <g>
       <use style="stroke:#000000;stroke-width:0.8;" x="144" xlink:href="#m36532d0aca" y="519.048"/>
      </g>
     </g>
     <g id="text_42">
      <!-- 0.0 -->
      <g transform="translate(113.145313 524.746828)scale(0.15 -0.15)">
       <defs>
        <path d="M 684 794 
L 1344 794 
L 1344 0 
L 684 0 
L 684 794 
z
" id="DejaVuSans-2e" transform="scale(0.015625)"/>
       </defs>
       <use xlink:href="#DejaVuSans-30"/>
       <use x="63.623047" xlink:href="#DejaVuSans-2e"/>
       <use x="95.410156" xlink:href="#DejaVuSans-30"/>
      </g>
     </g>
    </g>
    <g id="ytick_2">
     <g id="line2d_42">
      <g>
       <use style="stroke:#000000;stroke-width:0.8;" x="144" xlink:href="#m36532d0aca" y="429.2352"/>
      </g>
     </g>
     <g id="text_43">
      <!-- 0.2 -->
      <g transform="translate(113.145313 434.934028)scale(0.15 -0.15)">
       <use xlink:href="#DejaVuSans-30"/>
       <use x="63.623047" xlink:href="#DejaVuSans-2e"/>
       <use x="95.410156" xlink:href="#DejaVuSans-32"/>
      </g>
     </g>
    </g>
    <g id="ytick_3">
     <g id="line2d_43">
      <g>
       <use style="stroke:#000000;stroke-width:0.8;" x="144" xlink:href="#m36532d0aca" y="339.4224"/>
      </g>
     </g>
     <g id="text_44">
      <!-- 0.4 -->
      <g transform="translate(113.145313 345.121228)scale(0.15 -0.15)">
       <use xlink:href="#DejaVuSans-30"/>
       <use x="63.623047" xlink:href="#DejaVuSans-2e"/>
       <use x="95.410156" xlink:href="#DejaVuSans-34"/>
      </g>
     </g>
    </g>
    <g id="ytick_4">
     <g id="line2d_44">
      <g>
       <use style="stroke:#000000;stroke-width:0.8;" x="144" xlink:href="#m36532d0aca" y="249.6096"/>
      </g>
     </g>
     <g id="text_45">
      <!-- 0.6 -->
      <g transform="translate(113.145313 255.308428)scale(0.15 -0.15)">
       <use xlink:href="#DejaVuSans-30"/>
       <use x="63.623047" xlink:href="#DejaVuSans-2e"/>
       <use x="95.410156" xlink:href="#DejaVuSans-36"/>
      </g>
     </g>
    </g>
    <g id="ytick_5">
     <g id="line2d_45">
      <g>
       <use style="stroke:#000000;stroke-width:0.8;" x="144" xlink:href="#m36532d0aca" y="159.7968"/>
      </g>
     </g>
     <g id="text_46">
      <!-- 0.8 -->
      <g transform="translate(113.145313 165.495628)scale(0.15 -0.15)">
       <use xlink:href="#DejaVuSans-30"/>
       <use x="63.623047" xlink:href="#DejaVuSans-2e"/>
       <use x="95.410156" xlink:href="#DejaVuSans-38"/>
      </g>
     </g>
    </g>
    <g id="ytick_6">
     <g id="line2d_46">
      <g>
       <use style="stroke:#000000;stroke-width:0.8;" x="144" xlink:href="#m36532d0aca" y="69.984"/>
      </g>
     </g>
     <g id="text_47">
      <!-- 1.0 -->
      <g transform="translate(113.145313 75.682828)scale(0.15 -0.15)">
       <use xlink:href="#DejaVuSans-31"/>
       <use x="63.623047" xlink:href="#DejaVuSans-2e"/>
       <use x="95.410156" xlink:href="#DejaVuSans-30"/>
      </g>
     </g>
    </g>
    <g id="text_48">
     <!-- $p(context)$ -->
     <g transform="translate(104.945312 346.616)rotate(-90)scale(0.2 -0.2)">
      <defs>
       <path d="M 3175 2156 
Q 3175 2616 2975 2859 
Q 2775 3103 2400 3103 
Q 2144 3103 1911 2972 
Q 1678 2841 1497 2591 
Q 1319 2344 1212 1994 
Q 1106 1644 1106 1300 
Q 1106 863 1306 627 
Q 1506 391 1875 391 
Q 2147 391 2380 519 
Q 2613 647 2778 891 
Q 2956 1147 3065 1494 
Q 3175 1841 3175 2156 
z
M 1394 2969 
Q 1625 3272 1939 3428 
Q 2253 3584 2638 3584 
Q 3175 3584 3472 3232 
Q 3769 2881 3769 2247 
Q 3769 1728 3584 1258 
Q 3400 788 3053 416 
Q 2822 169 2531 39 
Q 2241 -91 1919 -91 
Q 1547 -91 1294 64 
Q 1041 219 916 525 
L 556 -1331 
L -19 -1331 
L 922 3500 
L 1497 3500 
L 1394 2969 
z
" id="DejaVuSans-Oblique-70" transform="scale(0.015625)"/>
       <path d="M 1984 4856 
Q 1566 4138 1362 3434 
Q 1159 2731 1159 2009 
Q 1159 1288 1364 580 
Q 1569 -128 1984 -844 
L 1484 -844 
Q 1016 -109 783 600 
Q 550 1309 550 2009 
Q 550 2706 781 3412 
Q 1013 4119 1484 4856 
L 1984 4856 
z
" id="DejaVuSans-28" transform="scale(0.015625)"/>
       <path d="M 3431 3366 
L 3316 2797 
Q 3109 2947 2876 3022 
Q 2644 3097 2394 3097 
Q 2119 3097 1870 3000 
Q 1622 2903 1453 2725 
Q 1184 2453 1037 2087 
Q 891 1722 891 1331 
Q 891 859 1127 628 
Q 1363 397 1844 397 
Q 2081 397 2348 469 
Q 2616 541 2906 684 
L 2797 116 
Q 2547 13 2283 -39 
Q 2019 -91 1741 -91 
Q 1044 -91 669 257 
Q 294 606 294 1253 
Q 294 1797 489 2255 
Q 684 2713 1069 3078 
Q 1331 3328 1684 3456 
Q 2038 3584 2456 3584 
Q 2700 3584 2940 3529 
Q 3181 3475 3431 3366 
z
" id="DejaVuSans-Oblique-63" transform="scale(0.015625)"/>
       <path d="M 1625 -91 
Q 1009 -91 651 289 
Q 294 669 294 1325 
Q 294 1706 417 2101 
Q 541 2497 738 2766 
Q 1047 3184 1428 3384 
Q 1809 3584 2291 3584 
Q 2888 3584 3255 3212 
Q 3622 2841 3622 2241 
Q 3622 1825 3500 1412 
Q 3378 1000 3181 728 
Q 2875 309 2494 109 
Q 2113 -91 1625 -91 
z
M 891 1344 
Q 891 869 1089 633 
Q 1288 397 1691 397 
Q 2269 397 2648 901 
Q 3028 1406 3028 2181 
Q 3028 2634 2825 2865 
Q 2622 3097 2228 3097 
Q 1903 3097 1650 2945 
Q 1397 2794 1197 2484 
Q 1050 2253 970 1956 
Q 891 1659 891 1344 
z
" id="DejaVuSans-Oblique-6f" transform="scale(0.015625)"/>
       <path d="M 3566 2113 
L 3156 0 
L 2578 0 
L 2988 2091 
Q 3016 2238 3031 2350 
Q 3047 2463 3047 2528 
Q 3047 2791 2881 2937 
Q 2716 3084 2419 3084 
Q 1956 3084 1622 2776 
Q 1288 2469 1184 1941 
L 800 0 
L 225 0 
L 903 3500 
L 1478 3500 
L 1363 2950 
Q 1603 3253 1940 3418 
Q 2278 3584 2650 3584 
Q 3113 3584 3367 3334 
Q 3622 3084 3622 2631 
Q 3622 2519 3608 2391 
Q 3594 2263 3566 2113 
z
" id="DejaVuSans-Oblique-6e" transform="scale(0.015625)"/>
       <path d="M 3078 2063 
Q 3088 2113 3092 2166 
Q 3097 2219 3097 2272 
Q 3097 2653 2873 2875 
Q 2650 3097 2266 3097 
Q 1838 3097 1509 2826 
Q 1181 2556 1013 2059 
L 3078 2063 
z
M 3578 1613 
L 903 1613 
Q 884 1494 878 1425 
Q 872 1356 872 1306 
Q 872 872 1139 634 
Q 1406 397 1894 397 
Q 2269 397 2603 481 
Q 2938 566 3225 728 
L 3116 159 
Q 2806 34 2476 -28 
Q 2147 -91 1806 -91 
Q 1078 -91 686 257 
Q 294 606 294 1247 
Q 294 1794 489 2264 
Q 684 2734 1063 3103 
Q 1306 3334 1642 3459 
Q 1978 3584 2356 3584 
Q 2950 3584 3301 3228 
Q 3653 2872 3653 2272 
Q 3653 2128 3634 1964 
Q 3616 1800 3578 1613 
z
" id="DejaVuSans-Oblique-65" transform="scale(0.015625)"/>
       <path d="M 3841 3500 
L 2234 1784 
L 3219 0 
L 2559 0 
L 1819 1388 
L 531 0 
L -166 0 
L 1556 1844 
L 641 3500 
L 1300 3500 
L 1972 2234 
L 3144 3500 
L 3841 3500 
z
" id="DejaVuSans-Oblique-78" transform="scale(0.015625)"/>
       <path d="M 513 4856 
L 1013 4856 
Q 1481 4119 1714 3412 
Q 1947 2706 1947 2009 
Q 1947 1309 1714 600 
Q 1481 -109 1013 -844 
L 513 -844 
Q 928 -128 1133 580 
Q 1338 1288 1338 2009 
Q 1338 2731 1133 3434 
Q 928 4138 513 4856 
z
" id="DejaVuSans-29" transform="scale(0.015625)"/>
      </defs>
      <use transform="translate(0 0.125)" xlink:href="#DejaVuSans-Oblique-70"/>
      <use transform="translate(63.476562 0.125)" xlink:href="#DejaVuSans-28"/>
      <use transform="translate(102.490234 0.125)" xlink:href="#DejaVuSans-Oblique-63"/>
      <use transform="translate(157.470703 0.125)" xlink:href="#DejaVuSans-Oblique-6f"/>
      <use transform="translate(218.652344 0.125)" xlink:href="#DejaVuSans-Oblique-6e"/>
      <use transform="translate(282.03125 0.125)" xlink:href="#DejaVuSans-Oblique-74"/>
      <use transform="translate(321.240234 0.125)" xlink:href="#DejaVuSans-Oblique-65"/>
      <use transform="translate(382.763672 0.125)" xlink:href="#DejaVuSans-Oblique-78"/>
      <use transform="translate(441.943359 0.125)" xlink:href="#DejaVuSans-Oblique-74"/>
      <use transform="translate(481.152344 0.125)" xlink:href="#DejaVuSans-29"/>
     </g>
    </g>
   </g>
   <g id="line2d_47">
    <path clip-path="url(#p2248471b8c)" d="M 184.581818 429.2352 
L 204.872727 478.922212 
L 225.163636 410.563138 
L 245.454545 474.353559 
L 265.745455 447.430638 
L 286.036364 446.092232 
L 306.327273 445.733927 
L 326.618182 445.531774 
L 346.909091 445.399729 
L 367.2 445.30652 
L 387.490909 445.237222 
L 407.781818 445.183857 
L 428.072727 445.141709 
L 448.363636 445.107766 
L 468.654545 445.079994 
L 488.945455 445.056963 
L 509.236364 445.037643 
L 529.527273 445.021269 
L 549.818182 445.007268 
L 570.109091 444.995199 
L 590.4 444.98472 
L 610.690909 444.975561 
L 630.981818 444.96751 
L 651.272727 444.960393 
L 671.563636 444.954071 
L 691.854545 444.948429 
L 712.145455 444.943373 
L 732.436364 444.938824 
L 752.727273 444.934716 
L 773.018182 444.930993 
L 793.309091 444.92761 
L 813.6 444.924525 
L 833.890909 444.921705 
L 854.181818 444.91912 
L 874.472727 444.916745 
L 894.763636 444.914557 
L 915.054545 444.912537 
L 935.345455 444.910668 
L 955.636364 444.908937 
L 975.927273 444.907328 
" style="fill:none;stroke:#0000ff;stroke-linecap:square;stroke-width:1.5;"/>
    <defs>
     <path d="M 0 3 
C 0.795609 3 1.55874 2.683901 2.12132 2.12132 
C 2.683901 1.55874 3 0.795609 3 0 
C 3 -0.795609 2.683901 -1.55874 2.12132 -2.12132 
C 1.55874 -2.683901 0.795609 -3 0 -3 
C -0.795609 -3 -1.55874 -2.683901 -2.12132 -2.12132 
C -2.683901 -1.55874 -3 -0.795609 -3 0 
C -3 0.795609 -2.683901 1.55874 -2.12132 2.12132 
C -1.55874 2.683901 -0.795609 3 0 3 
z
" id="m0292a1d7af" style="stroke:#0000ff;"/>
    </defs>
    <g clip-path="url(#p2248471b8c)">
     <use style="fill:#0000ff;stroke:#0000ff;" x="184.581818" xlink:href="#m0292a1d7af" y="429.2352"/>
     <use style="fill:#0000ff;stroke:#0000ff;" x="204.872727" xlink:href="#m0292a1d7af" y="478.922212"/>
     <use style="fill:#0000ff;stroke:#0000ff;" x="225.163636" xlink:href="#m0292a1d7af" y="410.563138"/>
     <use style="fill:#0000ff;stroke:#0000ff;" x="245.454545" xlink:href="#m0292a1d7af" y="474.353559"/>
     <use style="fill:#0000ff;stroke:#0000ff;" x="265.745455" xlink:href="#m0292a1d7af" y="447.430638"/>
     <use style="fill:#0000ff;stroke:#0000ff;" x="286.036364" xlink:href="#m0292a1d7af" y="446.092232"/>
     <use style="fill:#0000ff;stroke:#0000ff;" x="306.327273" xlink:href="#m0292a1d7af" y="445.733927"/>
     <use style="fill:#0000ff;stroke:#0000ff;" x="326.618182" xlink:href="#m0292a1d7af" y="445.531774"/>
     <use style="fill:#0000ff;stroke:#0000ff;" x="346.909091" xlink:href="#m0292a1d7af" y="445.399729"/>
     <use style="fill:#0000ff;stroke:#0000ff;" x="367.2" xlink:href="#m0292a1d7af" y="445.30652"/>
     <use style="fill:#0000ff;stroke:#0000ff;" x="387.490909" xlink:href="#m0292a1d7af" y="445.237222"/>
     <use style="fill:#0000ff;stroke:#0000ff;" x="407.781818" xlink:href="#m0292a1d7af" y="445.183857"/>
     <use style="fill:#0000ff;stroke:#0000ff;" x="428.072727" xlink:href="#m0292a1d7af" y="445.141709"/>
     <use style="fill:#0000ff;stroke:#0000ff;" x="448.363636" xlink:href="#m0292a1d7af" y="445.107766"/>
     <use style="fill:#0000ff;stroke:#0000ff;" x="468.654545" xlink:href="#m0292a1d7af" y="445.079994"/>
     <use style="fill:#0000ff;stroke:#0000ff;" x="488.945455" xlink:href="#m0292a1d7af" y="445.056963"/>
     <use style="fill:#0000ff;stroke:#0000ff;" x="509.236364" xlink:href="#m0292a1d7af" y="445.037643"/>
     <use style="fill:#0000ff;stroke:#0000ff;" x="529.527273" xlink:href="#m0292a1d7af" y="445.021269"/>
     <use style="fill:#0000ff;stroke:#0000ff;" x="549.818182" xlink:href="#m0292a1d7af" y="445.007268"/>
     <use style="fill:#0000ff;stroke:#0000ff;" x="570.109091" xlink:href="#m0292a1d7af" y="444.995199"/>
     <use style="fill:#0000ff;stroke:#0000ff;" x="590.4" xlink:href="#m0292a1d7af" y="444.98472"/>
     <use style="fill:#0000ff;stroke:#0000ff;" x="610.690909" xlink:href="#m0292a1d7af" y="444.975561"/>
     <use style="fill:#0000ff;stroke:#0000ff;" x="630.981818" xlink:href="#m0292a1d7af" y="444.96751"/>
     <use style="fill:#0000ff;stroke:#0000ff;" x="651.272727" xlink:href="#m0292a1d7af" y="444.960393"/>
     <use style="fill:#0000ff;stroke:#0000ff;" x="671.563636" xlink:href="#m0292a1d7af" y="444.954071"/>
     <use style="fill:#0000ff;stroke:#0000ff;" x="691.854545" xlink:href="#m0292a1d7af" y="444.948429"/>
     <use style="fill:#0000ff;stroke:#0000ff;" x="712.145455" xlink:href="#m0292a1d7af" y="444.943373"/>
     <use style="fill:#0000ff;stroke:#0000ff;" x="732.436364" xlink:href="#m0292a1d7af" y="444.938824"/>
     <use style="fill:#0000ff;stroke:#0000ff;" x="752.727273" xlink:href="#m0292a1d7af" y="444.934716"/>
     <use style="fill:#0000ff;stroke:#0000ff;" x="773.018182" xlink:href="#m0292a1d7af" y="444.930993"/>
     <use style="fill:#0000ff;stroke:#0000ff;" x="793.309091" xlink:href="#m0292a1d7af" y="444.92761"/>
     <use style="fill:#0000ff;stroke:#0000ff;" x="813.6" xlink:href="#m0292a1d7af" y="444.924525"/>
     <use style="fill:#0000ff;stroke:#0000ff;" x="833.890909" xlink:href="#m0292a1d7af" y="444.921705"/>
     <use style="fill:#0000ff;stroke:#0000ff;" x="854.181818" xlink:href="#m0292a1d7af" y="444.91912"/>
     <use style="fill:#0000ff;stroke:#0000ff;" x="874.472727" xlink:href="#m0292a1d7af" y="444.916745"/>
     <use style="fill:#0000ff;stroke:#0000ff;" x="894.763636" xlink:href="#m0292a1d7af" y="444.914557"/>
     <use style="fill:#0000ff;stroke:#0000ff;" x="915.054545" xlink:href="#m0292a1d7af" y="444.912537"/>
     <use style="fill:#0000ff;stroke:#0000ff;" x="935.345455" xlink:href="#m0292a1d7af" y="444.910668"/>
     <use style="fill:#0000ff;stroke:#0000ff;" x="955.636364" xlink:href="#m0292a1d7af" y="444.908937"/>
     <use style="fill:#0000ff;stroke:#0000ff;" x="975.927273" xlink:href="#m0292a1d7af" y="444.907328"/>
    </g>
   </g>
   <g id="line2d_48">
    <path clip-path="url(#p2248471b8c)" d="M 184.581818 159.7968 
L 204.872727 129.702459 
L 225.163636 209.993644 
L 245.454545 150.572141 
L 265.745455 181.105695 
L 286.036364 187.08497 
L 306.327273 189.892771 
L 326.618182 191.483692 
L 346.909091 192.488866 
L 367.2 193.179576 
L 387.490909 193.682887 
L 407.781818 194.064496 
L 428.072727 194.362059 
L 448.363636 194.599072 
L 468.654545 194.791124 
L 488.945455 194.949003 
L 509.236364 195.080412 
L 529.527273 195.190981 
L 549.818182 195.284915 
L 570.109091 195.365401 
L 590.4 195.434898 
L 610.690909 195.495324 
L 630.981818 195.548195 
L 651.272727 195.594724 
L 671.563636 195.635887 
L 691.854545 195.67248 
L 712.145455 195.705157 
L 732.436364 195.734458 
L 752.727273 195.760834 
L 773.018182 195.784661 
L 793.309091 195.806258 
L 813.6 195.825895 
L 833.890909 195.843803 
L 854.181818 195.860179 
L 874.472727 195.875194 
L 894.763636 195.888993 
L 915.054545 195.901705 
L 935.345455 195.913442 
L 955.636364 195.9243 
L 975.927273 195.934365 
" style="fill:none;stroke:#ff0000;stroke-linecap:square;stroke-width:1.5;"/>
    <defs>
     <path d="M 0 3 
C 0.795609 3 1.55874 2.683901 2.12132 2.12132 
C 2.683901 1.55874 3 0.795609 3 0 
C 3 -0.795609 2.683901 -1.55874 2.12132 -2.12132 
C 1.55874 -2.683901 0.795609 -3 0 -3 
C -0.795609 -3 -1.55874 -2.683901 -2.12132 -2.12132 
C -2.683901 -1.55874 -3 -0.795609 -3 0 
C -3 0.795609 -2.683901 1.55874 -2.12132 2.12132 
C -1.55874 2.683901 -0.795609 3 0 3 
z
" id="m1c331bbeae" style="stroke:#ff0000;"/>
    </defs>
    <g clip-path="url(#p2248471b8c)">
     <use style="fill:#ff0000;stroke:#ff0000;" x="184.581818" xlink:href="#m1c331bbeae" y="159.7968"/>
     <use style="fill:#ff0000;stroke:#ff0000;" x="204.872727" xlink:href="#m1c331bbeae" y="129.702459"/>
     <use style="fill:#ff0000;stroke:#ff0000;" x="225.163636" xlink:href="#m1c331bbeae" y="209.993644"/>
     <use style="fill:#ff0000;stroke:#ff0000;" x="245.454545" xlink:href="#m1c331bbeae" y="150.572141"/>
     <use style="fill:#ff0000;stroke:#ff0000;" x="265.745455" xlink:href="#m1c331bbeae" y="181.105695"/>
     <use style="fill:#ff0000;stroke:#ff0000;" x="286.036364" xlink:href="#m1c331bbeae" y="187.08497"/>
     <use style="fill:#ff0000;stroke:#ff0000;" x="306.327273" xlink:href="#m1c331bbeae" y="189.892771"/>
     <use style="fill:#ff0000;stroke:#ff0000;" x="326.618182" xlink:href="#m1c331bbeae" y="191.483692"/>
     <use style="fill:#ff0000;stroke:#ff0000;" x="346.909091" xlink:href="#m1c331bbeae" y="192.488866"/>
     <use style="fill:#ff0000;stroke:#ff0000;" x="367.2" xlink:href="#m1c331bbeae" y="193.179576"/>
     <use style="fill:#ff0000;stroke:#ff0000;" x="387.490909" xlink:href="#m1c331bbeae" y="193.682887"/>
     <use style="fill:#ff0000;stroke:#ff0000;" x="407.781818" xlink:href="#m1c331bbeae" y="194.064496"/>
     <use style="fill:#ff0000;stroke:#ff0000;" x="428.072727" xlink:href="#m1c331bbeae" y="194.362059"/>
     <use style="fill:#ff0000;stroke:#ff0000;" x="448.363636" xlink:href="#m1c331bbeae" y="194.599072"/>
     <use style="fill:#ff0000;stroke:#ff0000;" x="468.654545" xlink:href="#m1c331bbeae" y="194.791124"/>
     <use style="fill:#ff0000;stroke:#ff0000;" x="488.945455" xlink:href="#m1c331bbeae" y="194.949003"/>
     <use style="fill:#ff0000;stroke:#ff0000;" x="509.236364" xlink:href="#m1c331bbeae" y="195.080412"/>
     <use style="fill:#ff0000;stroke:#ff0000;" x="529.527273" xlink:href="#m1c331bbeae" y="195.190981"/>
     <use style="fill:#ff0000;stroke:#ff0000;" x="549.818182" xlink:href="#m1c331bbeae" y="195.284915"/>
     <use style="fill:#ff0000;stroke:#ff0000;" x="570.109091" xlink:href="#m1c331bbeae" y="195.365401"/>
     <use style="fill:#ff0000;stroke:#ff0000;" x="590.4" xlink:href="#m1c331bbeae" y="195.434898"/>
     <use style="fill:#ff0000;stroke:#ff0000;" x="610.690909" xlink:href="#m1c331bbeae" y="195.495324"/>
     <use style="fill:#ff0000;stroke:#ff0000;" x="630.981818" xlink:href="#m1c331bbeae" y="195.548195"/>
     <use style="fill:#ff0000;stroke:#ff0000;" x="651.272727" xlink:href="#m1c331bbeae" y="195.594724"/>
     <use style="fill:#ff0000;stroke:#ff0000;" x="671.563636" xlink:href="#m1c331bbeae" y="195.635887"/>
     <use style="fill:#ff0000;stroke:#ff0000;" x="691.854545" xlink:href="#m1c331bbeae" y="195.67248"/>
     <use style="fill:#ff0000;stroke:#ff0000;" x="712.145455" xlink:href="#m1c331bbeae" y="195.705157"/>
     <use style="fill:#ff0000;stroke:#ff0000;" x="732.436364" xlink:href="#m1c331bbeae" y="195.734458"/>
     <use style="fill:#ff0000;stroke:#ff0000;" x="752.727273" xlink:href="#m1c331bbeae" y="195.760834"/>
     <use style="fill:#ff0000;stroke:#ff0000;" x="773.018182" xlink:href="#m1c331bbeae" y="195.784661"/>
     <use style="fill:#ff0000;stroke:#ff0000;" x="793.309091" xlink:href="#m1c331bbeae" y="195.806258"/>
     <use style="fill:#ff0000;stroke:#ff0000;" x="813.6" xlink:href="#m1c331bbeae" y="195.825895"/>
     <use style="fill:#ff0000;stroke:#ff0000;" x="833.890909" xlink:href="#m1c331bbeae" y="195.843803"/>
     <use style="fill:#ff0000;stroke:#ff0000;" x="854.181818" xlink:href="#m1c331bbeae" y="195.860179"/>
     <use style="fill:#ff0000;stroke:#ff0000;" x="874.472727" xlink:href="#m1c331bbeae" y="195.875194"/>
     <use style="fill:#ff0000;stroke:#ff0000;" x="894.763636" xlink:href="#m1c331bbeae" y="195.888993"/>
     <use style="fill:#ff0000;stroke:#ff0000;" x="915.054545" xlink:href="#m1c331bbeae" y="195.901705"/>
     <use style="fill:#ff0000;stroke:#ff0000;" x="935.345455" xlink:href="#m1c331bbeae" y="195.913442"/>
     <use style="fill:#ff0000;stroke:#ff0000;" x="955.636364" xlink:href="#m1c331bbeae" y="195.9243"/>
     <use style="fill:#ff0000;stroke:#ff0000;" x="975.927273" xlink:href="#m1c331bbeae" y="195.934365"/>
    </g>
   </g>
   <g id="line2d_49">
    <path clip-path="url(#p2248471b8c)" d="M 184.581818 519.048 
L 204.872727 499.45533 
L 225.163636 487.523218 
L 245.454545 483.1543 
L 265.745455 479.543667 
L 286.036364 474.902798 
L 306.327273 472.453302 
L 326.618182 471.064533 
L 346.909091 470.191405 
L 367.2 469.593904 
L 387.490909 469.159891 
L 407.781818 468.831647 
L 428.072727 468.576232 
L 448.363636 468.373162 
L 468.654545 468.208882 
L 488.945455 468.074033 
L 509.236364 467.961946 
L 529.527273 467.867749 
L 549.818182 467.787817 
L 570.109091 467.7194 
L 590.4 467.660382 
L 610.690909 467.609115 
L 630.981818 467.564295 
L 651.272727 467.524883 
L 671.563636 467.490042 
L 691.854545 467.459091 
L 712.145455 467.43147 
L 732.436364 467.406718 
L 752.727273 467.384451 
L 773.018182 467.364346 
L 793.309091 467.346132 
L 813.6 467.32958 
L 833.890909 467.314492 
L 854.181818 467.300701 
L 874.472727 467.288062 
L 894.763636 467.276451 
L 915.054545 467.265758 
L 935.345455 467.25589 
L 955.636364 467.246764 
L 975.927273 467.238306 
" style="fill:none;stroke:#808080;stroke-linecap:square;stroke-width:1.5;"/>
    <defs>
     <path d="M 0 3 
C 0.795609 3 1.55874 2.683901 2.12132 2.12132 
C 2.683901 1.55874 3 0.795609 3 0 
C 3 -0.795609 2.683901 -1.55874 2.12132 -2.12132 
C 1.55874 -2.683901 0.795609 -3 0 -3 
C -0.795609 -3 -1.55874 -2.683901 -2.12132 -2.12132 
C -2.683901 -1.55874 -3 -0.795609 -3 0 
C -3 0.795609 -2.683901 1.55874 -2.12132 2.12132 
C -1.55874 2.683901 -0.795609 3 0 3 
z
" id="m730e64109b" style="stroke:#808080;"/>
    </defs>
    <g clip-path="url(#p2248471b8c)">
     <use style="fill:#808080;stroke:#808080;" x="184.581818" xlink:href="#m730e64109b" y="519.048"/>
     <use style="fill:#808080;stroke:#808080;" x="204.872727" xlink:href="#m730e64109b" y="499.45533"/>
     <use style="fill:#808080;stroke:#808080;" x="225.163636" xlink:href="#m730e64109b" y="487.523218"/>
     <use style="fill:#808080;stroke:#808080;" x="245.454545" xlink:href="#m730e64109b" y="483.1543"/>
     <use style="fill:#808080;stroke:#808080;" x="265.745455" xlink:href="#m730e64109b" y="479.543667"/>
     <use style="fill:#808080;stroke:#808080;" x="286.036364" xlink:href="#m730e64109b" y="474.902798"/>
     <use style="fill:#808080;stroke:#808080;" x="306.327273" xlink:href="#m730e64109b" y="472.453302"/>
     <use style="fill:#808080;stroke:#808080;" x="326.618182" xlink:href="#m730e64109b" y="471.064533"/>
     <use style="fill:#808080;stroke:#808080;" x="346.909091" xlink:href="#m730e64109b" y="470.191405"/>
     <use style="fill:#808080;stroke:#808080;" x="367.2" xlink:href="#m730e64109b" y="469.593904"/>
     <use style="fill:#808080;stroke:#808080;" x="387.490909" xlink:href="#m730e64109b" y="469.159891"/>
     <use style="fill:#808080;stroke:#808080;" x="407.781818" xlink:href="#m730e64109b" y="468.831647"/>
     <use style="fill:#808080;stroke:#808080;" x="428.072727" xlink:href="#m730e64109b" y="468.576232"/>
     <use style="fill:#808080;stroke:#808080;" x="448.363636" xlink:href="#m730e64109b" y="468.373162"/>
     <use style="fill:#808080;stroke:#808080;" x="468.654545" xlink:href="#m730e64109b" y="468.208882"/>
     <use style="fill:#808080;stroke:#808080;" x="488.945455" xlink:href="#m730e64109b" y="468.074033"/>
     <use style="fill:#808080;stroke:#808080;" x="509.236364" xlink:href="#m730e64109b" y="467.961946"/>
     <use style="fill:#808080;stroke:#808080;" x="529.527273" xlink:href="#m730e64109b" y="467.867749"/>
     <use style="fill:#808080;stroke:#808080;" x="549.818182" xlink:href="#m730e64109b" y="467.787817"/>
     <use style="fill:#808080;stroke:#808080;" x="570.109091" xlink:href="#m730e64109b" y="467.7194"/>
     <use style="fill:#808080;stroke:#808080;" x="590.4" xlink:href="#m730e64109b" y="467.660382"/>
     <use style="fill:#808080;stroke:#808080;" x="610.690909" xlink:href="#m730e64109b" y="467.609115"/>
     <use style="fill:#808080;stroke:#808080;" x="630.981818" xlink:href="#m730e64109b" y="467.564295"/>
     <use style="fill:#808080;stroke:#808080;" x="651.272727" xlink:href="#m730e64109b" y="467.524883"/>
     <use style="fill:#808080;stroke:#808080;" x="671.563636" xlink:href="#m730e64109b" y="467.490042"/>
     <use style="fill:#808080;stroke:#808080;" x="691.854545" xlink:href="#m730e64109b" y="467.459091"/>
     <use style="fill:#808080;stroke:#808080;" x="712.145455" xlink:href="#m730e64109b" y="467.43147"/>
     <use style="fill:#808080;stroke:#808080;" x="732.436364" xlink:href="#m730e64109b" y="467.406718"/>
     <use style="fill:#808080;stroke:#808080;" x="752.727273" xlink:href="#m730e64109b" y="467.384451"/>
     <use style="fill:#808080;stroke:#808080;" x="773.018182" xlink:href="#m730e64109b" y="467.364346"/>
     <use style="fill:#808080;stroke:#808080;" x="793.309091" xlink:href="#m730e64109b" y="467.346132"/>
     <use style="fill:#808080;stroke:#808080;" x="813.6" xlink:href="#m730e64109b" y="467.32958"/>
     <use style="fill:#808080;stroke:#808080;" x="833.890909" xlink:href="#m730e64109b" y="467.314492"/>
     <use style="fill:#808080;stroke:#808080;" x="854.181818" xlink:href="#m730e64109b" y="467.300701"/>
     <use style="fill:#808080;stroke:#808080;" x="874.472727" xlink:href="#m730e64109b" y="467.288062"/>
     <use style="fill:#808080;stroke:#808080;" x="894.763636" xlink:href="#m730e64109b" y="467.276451"/>
     <use style="fill:#808080;stroke:#808080;" x="915.054545" xlink:href="#m730e64109b" y="467.265758"/>
     <use style="fill:#808080;stroke:#808080;" x="935.345455" xlink:href="#m730e64109b" y="467.25589"/>
     <use style="fill:#808080;stroke:#808080;" x="955.636364" xlink:href="#m730e64109b" y="467.246764"/>
     <use style="fill:#808080;stroke:#808080;" x="975.927273" xlink:href="#m730e64109b" y="467.238306"/>
    </g>
   </g>
   <g id="patch_5">
    <path d="M 144 519.048 
L 144 69.984 
" style="fill:none;stroke:#000000;stroke-linecap:square;stroke-linejoin:miter;stroke-width:0.8;"/>
   </g>
   <g id="patch_6">
    <path d="M 1036.8 519.048 
L 1036.8 69.984 
" style="fill:none;stroke:#000000;stroke-linecap:square;stroke-linejoin:miter;stroke-width:0.8;"/>
   </g>
   <g id="patch_7">
    <path d="M 144 519.048 
L 1036.8 519.048 
" style="fill:none;stroke:#000000;stroke-linecap:square;stroke-linejoin:miter;stroke-width:0.8;"/>
   </g>
   <g id="patch_8">
    <path d="M 144 69.984 
L 1036.8 69.984 
" style="fill:none;stroke:#000000;stroke-linecap:square;stroke-linejoin:miter;stroke-width:0.8;"/>
   </g>
   <g id="text_49">
    <!-- Social anxiety: trauma-defeat -->
    <g transform="translate(405.398047 63.984)scale(0.25 -0.25)">
     <defs>
      <path d="M 3425 4513 
L 3425 3897 
Q 3066 4069 2747 4153 
Q 2428 4238 2131 4238 
Q 1616 4238 1336 4038 
Q 1056 3838 1056 3469 
Q 1056 3159 1242 3001 
Q 1428 2844 1947 2747 
L 2328 2669 
Q 3034 2534 3370 2195 
Q 3706 1856 3706 1288 
Q 3706 609 3251 259 
Q 2797 -91 1919 -91 
Q 1588 -91 1214 -16 
Q 841 59 441 206 
L 441 856 
Q 825 641 1194 531 
Q 1563 422 1919 422 
Q 2459 422 2753 634 
Q 3047 847 3047 1241 
Q 3047 1584 2836 1778 
Q 2625 1972 2144 2069 
L 1759 2144 
Q 1053 2284 737 2584 
Q 422 2884 422 3419 
Q 422 4038 858 4394 
Q 1294 4750 2059 4750 
Q 2388 4750 2728 4690 
Q 3069 4631 3425 4513 
z
" id="DejaVuSans-53" transform="scale(0.015625)"/>
      <path d="M 1959 3097 
Q 1497 3097 1228 2736 
Q 959 2375 959 1747 
Q 959 1119 1226 758 
Q 1494 397 1959 397 
Q 2419 397 2687 759 
Q 2956 1122 2956 1747 
Q 2956 2369 2687 2733 
Q 2419 3097 1959 3097 
z
M 1959 3584 
Q 2709 3584 3137 3096 
Q 3566 2609 3566 1747 
Q 3566 888 3137 398 
Q 2709 -91 1959 -91 
Q 1206 -91 779 398 
Q 353 888 353 1747 
Q 353 2609 779 3096 
Q 1206 3584 1959 3584 
z
" id="DejaVuSans-6f" transform="scale(0.015625)"/>
      <path d="M 3122 3366 
L 3122 2828 
Q 2878 2963 2633 3030 
Q 2388 3097 2138 3097 
Q 1578 3097 1268 2742 
Q 959 2388 959 1747 
Q 959 1106 1268 751 
Q 1578 397 2138 397 
Q 2388 397 2633 464 
Q 2878 531 3122 666 
L 3122 134 
Q 2881 22 2623 -34 
Q 2366 -91 2075 -91 
Q 1284 -91 818 406 
Q 353 903 353 1747 
Q 353 2603 823 3093 
Q 1294 3584 2113 3584 
Q 2378 3584 2631 3529 
Q 2884 3475 3122 3366 
z
" id="DejaVuSans-63" transform="scale(0.015625)"/>
      <path d="M 603 3500 
L 1178 3500 
L 1178 0 
L 603 0 
L 603 3500 
z
M 603 4863 
L 1178 4863 
L 1178 4134 
L 603 4134 
L 603 4863 
z
" id="DejaVuSans-69" transform="scale(0.015625)"/>
      <path d="M 2194 1759 
Q 1497 1759 1228 1600 
Q 959 1441 959 1056 
Q 959 750 1161 570 
Q 1363 391 1709 391 
Q 2188 391 2477 730 
Q 2766 1069 2766 1631 
L 2766 1759 
L 2194 1759 
z
M 3341 1997 
L 3341 0 
L 2766 0 
L 2766 531 
Q 2569 213 2275 61 
Q 1981 -91 1556 -91 
Q 1019 -91 701 211 
Q 384 513 384 1019 
Q 384 1609 779 1909 
Q 1175 2209 1959 2209 
L 2766 2209 
L 2766 2266 
Q 2766 2663 2505 2880 
Q 2244 3097 1772 3097 
Q 1472 3097 1187 3025 
Q 903 2953 641 2809 
L 641 3341 
Q 956 3463 1253 3523 
Q 1550 3584 1831 3584 
Q 2591 3584 2966 3190 
Q 3341 2797 3341 1997 
z
" id="DejaVuSans-61" transform="scale(0.015625)"/>
      <path d="M 603 4863 
L 1178 4863 
L 1178 0 
L 603 0 
L 603 4863 
z
" id="DejaVuSans-6c" transform="scale(0.015625)"/>
      <path id="DejaVuSans-20" transform="scale(0.015625)"/>
      <path d="M 3513 2113 
L 3513 0 
L 2938 0 
L 2938 2094 
Q 2938 2591 2744 2837 
Q 2550 3084 2163 3084 
Q 1697 3084 1428 2787 
Q 1159 2491 1159 1978 
L 1159 0 
L 581 0 
L 581 3500 
L 1159 3500 
L 1159 2956 
Q 1366 3272 1645 3428 
Q 1925 3584 2291 3584 
Q 2894 3584 3203 3211 
Q 3513 2838 3513 2113 
z
" id="DejaVuSans-6e" transform="scale(0.015625)"/>
      <path d="M 3513 3500 
L 2247 1797 
L 3578 0 
L 2900 0 
L 1881 1375 
L 863 0 
L 184 0 
L 1544 1831 
L 300 3500 
L 978 3500 
L 1906 2253 
L 2834 3500 
L 3513 3500 
z
" id="DejaVuSans-78" transform="scale(0.015625)"/>
      <path d="M 3597 1894 
L 3597 1613 
L 953 1613 
Q 991 1019 1311 708 
Q 1631 397 2203 397 
Q 2534 397 2845 478 
Q 3156 559 3463 722 
L 3463 178 
Q 3153 47 2828 -22 
Q 2503 -91 2169 -91 
Q 1331 -91 842 396 
Q 353 884 353 1716 
Q 353 2575 817 3079 
Q 1281 3584 2069 3584 
Q 2775 3584 3186 3129 
Q 3597 2675 3597 1894 
z
M 3022 2063 
Q 3016 2534 2758 2815 
Q 2500 3097 2075 3097 
Q 1594 3097 1305 2825 
Q 1016 2553 972 2059 
L 3022 2063 
z
" id="DejaVuSans-65" transform="scale(0.015625)"/>
      <path d="M 1172 4494 
L 1172 3500 
L 2356 3500 
L 2356 3053 
L 1172 3053 
L 1172 1153 
Q 1172 725 1289 603 
Q 1406 481 1766 481 
L 2356 481 
L 2356 0 
L 1766 0 
Q 1100 0 847 248 
Q 594 497 594 1153 
L 594 3053 
L 172 3053 
L 172 3500 
L 594 3500 
L 594 4494 
L 1172 4494 
z
" id="DejaVuSans-74" transform="scale(0.015625)"/>
      <path d="M 2059 -325 
Q 1816 -950 1584 -1140 
Q 1353 -1331 966 -1331 
L 506 -1331 
L 506 -850 
L 844 -850 
Q 1081 -850 1212 -737 
Q 1344 -625 1503 -206 
L 1606 56 
L 191 3500 
L 800 3500 
L 1894 763 
L 2988 3500 
L 3597 3500 
L 2059 -325 
z
" id="DejaVuSans-79" transform="scale(0.015625)"/>
      <path d="M 750 794 
L 1409 794 
L 1409 0 
L 750 0 
L 750 794 
z
M 750 3309 
L 1409 3309 
L 1409 2516 
L 750 2516 
L 750 3309 
z
" id="DejaVuSans-3a" transform="scale(0.015625)"/>
      <path d="M 2631 2963 
Q 2534 3019 2420 3045 
Q 2306 3072 2169 3072 
Q 1681 3072 1420 2755 
Q 1159 2438 1159 1844 
L 1159 0 
L 581 0 
L 581 3500 
L 1159 3500 
L 1159 2956 
Q 1341 3275 1631 3429 
Q 1922 3584 2338 3584 
Q 2397 3584 2469 3576 
Q 2541 3569 2628 3553 
L 2631 2963 
z
" id="DejaVuSans-72" transform="scale(0.015625)"/>
      <path d="M 544 1381 
L 544 3500 
L 1119 3500 
L 1119 1403 
Q 1119 906 1312 657 
Q 1506 409 1894 409 
Q 2359 409 2629 706 
Q 2900 1003 2900 1516 
L 2900 3500 
L 3475 3500 
L 3475 0 
L 2900 0 
L 2900 538 
Q 2691 219 2414 64 
Q 2138 -91 1772 -91 
Q 1169 -91 856 284 
Q 544 659 544 1381 
z
M 1991 3584 
L 1991 3584 
z
" id="DejaVuSans-75" transform="scale(0.015625)"/>
      <path d="M 3328 2828 
Q 3544 3216 3844 3400 
Q 4144 3584 4550 3584 
Q 5097 3584 5394 3201 
Q 5691 2819 5691 2113 
L 5691 0 
L 5113 0 
L 5113 2094 
Q 5113 2597 4934 2840 
Q 4756 3084 4391 3084 
Q 3944 3084 3684 2787 
Q 3425 2491 3425 1978 
L 3425 0 
L 2847 0 
L 2847 2094 
Q 2847 2600 2669 2842 
Q 2491 3084 2119 3084 
Q 1678 3084 1418 2786 
Q 1159 2488 1159 1978 
L 1159 0 
L 581 0 
L 581 3500 
L 1159 3500 
L 1159 2956 
Q 1356 3278 1631 3431 
Q 1906 3584 2284 3584 
Q 2666 3584 2933 3390 
Q 3200 3197 3328 2828 
z
" id="DejaVuSans-6d" transform="scale(0.015625)"/>
      <path d="M 313 2009 
L 1997 2009 
L 1997 1497 
L 313 1497 
L 313 2009 
z
" id="DejaVuSans-2d" transform="scale(0.015625)"/>
      <path d="M 2906 2969 
L 2906 4863 
L 3481 4863 
L 3481 0 
L 2906 0 
L 2906 525 
Q 2725 213 2448 61 
Q 2172 -91 1784 -91 
Q 1150 -91 751 415 
Q 353 922 353 1747 
Q 353 2572 751 3078 
Q 1150 3584 1784 3584 
Q 2172 3584 2448 3432 
Q 2725 3281 2906 2969 
z
M 947 1747 
Q 947 1113 1208 752 
Q 1469 391 1925 391 
Q 2381 391 2643 752 
Q 2906 1113 2906 1747 
Q 2906 2381 2643 2742 
Q 2381 3103 1925 3103 
Q 1469 3103 1208 2742 
Q 947 2381 947 1747 
z
" id="DejaVuSans-64" transform="scale(0.015625)"/>
      <path d="M 2375 4863 
L 2375 4384 
L 1825 4384 
Q 1516 4384 1395 4259 
Q 1275 4134 1275 3809 
L 1275 3500 
L 2222 3500 
L 2222 3053 
L 1275 3053 
L 1275 0 
L 697 0 
L 697 3053 
L 147 3053 
L 147 3500 
L 697 3500 
L 697 3744 
Q 697 4328 969 4595 
Q 1241 4863 1831 4863 
L 2375 4863 
z
" id="DejaVuSans-66" transform="scale(0.015625)"/>
     </defs>
     <use xlink:href="#DejaVuSans-53"/>
     <use x="63.476562" xlink:href="#DejaVuSans-6f"/>
     <use x="124.658203" xlink:href="#DejaVuSans-63"/>
     <use x="179.638672" xlink:href="#DejaVuSans-69"/>
     <use x="207.421875" xlink:href="#DejaVuSans-61"/>
     <use x="268.701172" xlink:href="#DejaVuSans-6c"/>
     <use x="296.484375" xlink:href="#DejaVuSans-20"/>
     <use x="328.271484" xlink:href="#DejaVuSans-61"/>
     <use x="389.550781" xlink:href="#DejaVuSans-6e"/>
     <use x="452.929688" xlink:href="#DejaVuSans-78"/>
     <use x="512.109375" xlink:href="#DejaVuSans-69"/>
     <use x="539.892578" xlink:href="#DejaVuSans-65"/>
     <use x="601.416016" xlink:href="#DejaVuSans-74"/>
     <use x="640.625" xlink:href="#DejaVuSans-79"/>
     <use x="692.554688" xlink:href="#DejaVuSans-3a"/>
     <use x="726.246094" xlink:href="#DejaVuSans-20"/>
     <use x="758.033203" xlink:href="#DejaVuSans-74"/>
     <use x="797.242188" xlink:href="#DejaVuSans-72"/>
     <use x="838.355469" xlink:href="#DejaVuSans-61"/>
     <use x="899.634766" xlink:href="#DejaVuSans-75"/>
     <use x="963.013672" xlink:href="#DejaVuSans-6d"/>
     <use x="1060.425781" xlink:href="#DejaVuSans-61"/>
     <use x="1121.705078" xlink:href="#DejaVuSans-2d"/>
     <use x="1157.789062" xlink:href="#DejaVuSans-64"/>
     <use x="1221.265625" xlink:href="#DejaVuSans-65"/>
     <use x="1282.789062" xlink:href="#DejaVuSans-66"/>
     <use x="1317.994141" xlink:href="#DejaVuSans-65"/>
     <use x="1379.517578" xlink:href="#DejaVuSans-61"/>
     <use x="1440.796875" xlink:href="#DejaVuSans-74"/>
    </g>
   </g>
   <g id="legend_1">
    <g id="patch_9">
     <path d="M 926.948437 166.05275 
L 1029.8 166.05275 
Q 1031.8 166.05275 1031.8 164.05275 
L 1031.8 76.984 
Q 1031.8 74.984 1029.8 74.984 
L 926.948437 74.984 
Q 924.948437 74.984 924.948437 76.984 
L 924.948437 164.05275 
Q 924.948437 166.05275 926.948437 166.05275 
z
" style="fill:#ffffff;opacity:0.8;stroke:#cccccc;stroke-linejoin:miter;"/>
    </g>
    <g id="line2d_50">
     <path d="M 928.948437 83.082438 
L 948.948437 83.082438 
" style="fill:none;stroke:#0000ff;stroke-linecap:square;stroke-width:1.5;"/>
    </g>
    <g id="line2d_51">
     <g>
      <use style="fill:#0000ff;stroke:#0000ff;" x="938.948437" xlink:href="#m0292a1d7af" y="83.082438"/>
     </g>
    </g>
    <g id="text_50">
     <!-- cooperative -->
     <g transform="translate(956.948437 86.582438)scale(0.1 -0.1)">
      <defs>
       <path d="M 1159 525 
L 1159 -1331 
L 581 -1331 
L 581 3500 
L 1159 3500 
L 1159 2969 
Q 1341 3281 1617 3432 
Q 1894 3584 2278 3584 
Q 2916 3584 3314 3078 
Q 3713 2572 3713 1747 
Q 3713 922 3314 415 
Q 2916 -91 2278 -91 
Q 1894 -91 1617 61 
Q 1341 213 1159 525 
z
M 3116 1747 
Q 3116 2381 2855 2742 
Q 2594 3103 2138 3103 
Q 1681 3103 1420 2742 
Q 1159 2381 1159 1747 
Q 1159 1113 1420 752 
Q 1681 391 2138 391 
Q 2594 391 2855 752 
Q 3116 1113 3116 1747 
z
" id="DejaVuSans-70" transform="scale(0.015625)"/>
       <path d="M 191 3500 
L 800 3500 
L 1894 563 
L 2988 3500 
L 3597 3500 
L 2284 0 
L 1503 0 
L 191 3500 
z
" id="DejaVuSans-76" transform="scale(0.015625)"/>
      </defs>
      <use xlink:href="#DejaVuSans-63"/>
      <use x="54.980469" xlink:href="#DejaVuSans-6f"/>
      <use x="116.162109" xlink:href="#DejaVuSans-6f"/>
      <use x="177.34375" xlink:href="#DejaVuSans-70"/>
      <use x="240.820312" xlink:href="#DejaVuSans-65"/>
      <use x="302.34375" xlink:href="#DejaVuSans-72"/>
      <use x="343.457031" xlink:href="#DejaVuSans-61"/>
      <use x="404.736328" xlink:href="#DejaVuSans-74"/>
      <use x="443.945312" xlink:href="#DejaVuSans-69"/>
      <use x="471.728516" xlink:href="#DejaVuSans-76"/>
      <use x="530.908203" xlink:href="#DejaVuSans-65"/>
     </g>
    </g>
    <g id="line2d_52">
     <path d="M 928.948437 97.760563 
L 948.948437 97.760563 
" style="fill:none;stroke:#ff0000;stroke-linecap:square;stroke-width:1.5;"/>
    </g>
    <g id="line2d_53">
     <g>
      <use style="fill:#ff0000;stroke:#ff0000;" x="938.948437" xlink:href="#m1c331bbeae" y="97.760563"/>
     </g>
    </g>
    <g id="text_51">
     <!-- hostile -->
     <g transform="translate(956.948437 101.260563)scale(0.1 -0.1)">
      <defs>
       <path d="M 3513 2113 
L 3513 0 
L 2938 0 
L 2938 2094 
Q 2938 2591 2744 2837 
Q 2550 3084 2163 3084 
Q 1697 3084 1428 2787 
Q 1159 2491 1159 1978 
L 1159 0 
L 581 0 
L 581 4863 
L 1159 4863 
L 1159 2956 
Q 1366 3272 1645 3428 
Q 1925 3584 2291 3584 
Q 2894 3584 3203 3211 
Q 3513 2838 3513 2113 
z
" id="DejaVuSans-68" transform="scale(0.015625)"/>
       <path d="M 2834 3397 
L 2834 2853 
Q 2591 2978 2328 3040 
Q 2066 3103 1784 3103 
Q 1356 3103 1142 2972 
Q 928 2841 928 2578 
Q 928 2378 1081 2264 
Q 1234 2150 1697 2047 
L 1894 2003 
Q 2506 1872 2764 1633 
Q 3022 1394 3022 966 
Q 3022 478 2636 193 
Q 2250 -91 1575 -91 
Q 1294 -91 989 -36 
Q 684 19 347 128 
L 347 722 
Q 666 556 975 473 
Q 1284 391 1588 391 
Q 1994 391 2212 530 
Q 2431 669 2431 922 
Q 2431 1156 2273 1281 
Q 2116 1406 1581 1522 
L 1381 1569 
Q 847 1681 609 1914 
Q 372 2147 372 2553 
Q 372 3047 722 3315 
Q 1072 3584 1716 3584 
Q 2034 3584 2315 3537 
Q 2597 3491 2834 3397 
z
" id="DejaVuSans-73" transform="scale(0.015625)"/>
      </defs>
      <use xlink:href="#DejaVuSans-68"/>
      <use x="63.378906" xlink:href="#DejaVuSans-6f"/>
      <use x="124.560547" xlink:href="#DejaVuSans-73"/>
      <use x="176.660156" xlink:href="#DejaVuSans-74"/>
      <use x="215.869141" xlink:href="#DejaVuSans-69"/>
      <use x="243.652344" xlink:href="#DejaVuSans-6c"/>
      <use x="271.435547" xlink:href="#DejaVuSans-65"/>
     </g>
    </g>
    <g id="line2d_54">
     <path d="M 928.948437 112.438688 
L 948.948437 112.438688 
" style="fill:none;stroke:#808080;stroke-linecap:square;stroke-width:1.5;"/>
    </g>
    <g id="line2d_55">
     <g>
      <use style="fill:#808080;stroke:#808080;" x="938.948437" xlink:href="#m730e64109b" y="112.438688"/>
     </g>
    </g>
    <g id="text_52">
     <!-- random -->
     <g transform="translate(956.948437 115.938688)scale(0.1 -0.1)">
      <use xlink:href="#DejaVuSans-72"/>
      <use x="41.113281" xlink:href="#DejaVuSans-61"/>
      <use x="102.392578" xlink:href="#DejaVuSans-6e"/>
      <use x="165.771484" xlink:href="#DejaVuSans-64"/>
      <use x="229.248047" xlink:href="#DejaVuSans-6f"/>
      <use x="290.429688" xlink:href="#DejaVuSans-6d"/>
     </g>
    </g>
    <g id="line2d_56">
     <path d="M 928.948437 127.116813 
L 948.948437 127.116813 
" style="fill:none;stroke:#ffffff;stroke-linecap:square;stroke-width:1.5;"/>
    </g>
    <g id="line2d_57">
     <defs>
      <path d="M -0 5 
L 5 -5 
L -5 -5 
z
" id="m7598a9955c" style="stroke:#ffffff;stroke-linejoin:miter;"/>
     </defs>
     <g>
      <use style="fill:#ff0000;stroke:#ffffff;stroke-linejoin:miter;" x="938.948437" xlink:href="#m7598a9955c" y="127.116813"/>
     </g>
    </g>
    <g id="text_53">
     <!-- invest - abuse -->
     <g transform="translate(956.948437 130.616813)scale(0.1 -0.1)">
      <defs>
       <path d="M 3116 1747 
Q 3116 2381 2855 2742 
Q 2594 3103 2138 3103 
Q 1681 3103 1420 2742 
Q 1159 2381 1159 1747 
Q 1159 1113 1420 752 
Q 1681 391 2138 391 
Q 2594 391 2855 752 
Q 3116 1113 3116 1747 
z
M 1159 2969 
Q 1341 3281 1617 3432 
Q 1894 3584 2278 3584 
Q 2916 3584 3314 3078 
Q 3713 2572 3713 1747 
Q 3713 922 3314 415 
Q 2916 -91 2278 -91 
Q 1894 -91 1617 61 
Q 1341 213 1159 525 
L 1159 0 
L 581 0 
L 581 4863 
L 1159 4863 
L 1159 2969 
z
" id="DejaVuSans-62" transform="scale(0.015625)"/>
      </defs>
      <use xlink:href="#DejaVuSans-69"/>
      <use x="27.783203" xlink:href="#DejaVuSans-6e"/>
      <use x="91.162109" xlink:href="#DejaVuSans-76"/>
      <use x="150.341797" xlink:href="#DejaVuSans-65"/>
      <use x="211.865234" xlink:href="#DejaVuSans-73"/>
      <use x="263.964844" xlink:href="#DejaVuSans-74"/>
      <use x="303.173828" xlink:href="#DejaVuSans-20"/>
      <use x="334.960938" xlink:href="#DejaVuSans-2d"/>
      <use x="371.044922" xlink:href="#DejaVuSans-20"/>
      <use x="402.832031" xlink:href="#DejaVuSans-61"/>
      <use x="464.111328" xlink:href="#DejaVuSans-62"/>
      <use x="527.587891" xlink:href="#DejaVuSans-75"/>
      <use x="590.966797" xlink:href="#DejaVuSans-73"/>
      <use x="643.066406" xlink:href="#DejaVuSans-65"/>
     </g>
    </g>
    <g id="line2d_58">
     <path d="M 928.948437 141.794938 
L 948.948437 141.794938 
" style="fill:none;stroke:#ffffff;stroke-linecap:square;stroke-width:1.5;"/>
    </g>
    <g id="line2d_59">
     <defs>
      <path d="M 0 -5 
L -5 5 
L 5 5 
z
" id="m6f18b09c48" style="stroke:#ffffff;stroke-linejoin:miter;"/>
     </defs>
     <g>
      <use style="fill:#0000ff;stroke:#ffffff;stroke-linejoin:miter;" x="938.948437" xlink:href="#m6f18b09c48" y="141.794938"/>
     </g>
    </g>
    <g id="text_54">
     <!-- invest - return -->
     <g transform="translate(956.948437 145.294938)scale(0.1 -0.1)">
      <use xlink:href="#DejaVuSans-69"/>
      <use x="27.783203" xlink:href="#DejaVuSans-6e"/>
      <use x="91.162109" xlink:href="#DejaVuSans-76"/>
      <use x="150.341797" xlink:href="#DejaVuSans-65"/>
      <use x="211.865234" xlink:href="#DejaVuSans-73"/>
      <use x="263.964844" xlink:href="#DejaVuSans-74"/>
      <use x="303.173828" xlink:href="#DejaVuSans-20"/>
      <use x="334.960938" xlink:href="#DejaVuSans-2d"/>
      <use x="371.044922" xlink:href="#DejaVuSans-20"/>
      <use x="402.832031" xlink:href="#DejaVuSans-72"/>
      <use x="441.695312" xlink:href="#DejaVuSans-65"/>
      <use x="503.21875" xlink:href="#DejaVuSans-74"/>
      <use x="542.427734" xlink:href="#DejaVuSans-75"/>
      <use x="605.806641" xlink:href="#DejaVuSans-72"/>
      <use x="645.169922" xlink:href="#DejaVuSans-6e"/>
     </g>
    </g>
    <g id="line2d_60">
     <path d="M 928.948437 156.473063 
L 948.948437 156.473063 
" style="fill:none;stroke:#ffffff;stroke-linecap:square;stroke-width:1.5;"/>
    </g>
    <g id="line2d_61">
     <defs>
      <path d="M -2.5 5 
L 0 2.5 
L 2.5 5 
L 5 2.5 
L 2.5 0 
L 5 -2.5 
L 2.5 -5 
L 0 -2.5 
L -2.5 -5 
L -5 -2.5 
L -2.5 0 
L -5 2.5 
z
" id="ma186ababc1" style="stroke:#ffffff;stroke-linejoin:miter;"/>
     </defs>
     <g>
      <use style="stroke:#ffffff;stroke-linejoin:miter;" x="938.948437" xlink:href="#ma186ababc1" y="156.473063"/>
     </g>
    </g>
    <g id="text_55">
     <!-- no invest -->
     <g transform="translate(956.948437 159.973063)scale(0.1 -0.1)">
      <use xlink:href="#DejaVuSans-6e"/>
      <use x="63.378906" xlink:href="#DejaVuSans-6f"/>
      <use x="124.560547" xlink:href="#DejaVuSans-20"/>
      <use x="156.347656" xlink:href="#DejaVuSans-69"/>
      <use x="184.130859" xlink:href="#DejaVuSans-6e"/>
      <use x="247.509766" xlink:href="#DejaVuSans-76"/>
      <use x="306.689453" xlink:href="#DejaVuSans-65"/>
      <use x="368.212891" xlink:href="#DejaVuSans-73"/>
      <use x="420.3125" xlink:href="#DejaVuSans-74"/>
     </g>
    </g>
   </g>
  </g>
 </g>
 <defs>
  <clipPath id="p2248471b8c">
   <rect height="449.064" width="892.8" x="144" y="69.984"/>
  </clipPath>
 </defs>
</svg>
