<?xml version="1.0" encoding="utf-8" standalone="no"?>
<!DOCTYPE svg PUBLIC "-//W3C//DTD SVG 1.1//EN"
  "http://www.w3.org/Graphics/SVG/1.1/DTD/svg11.dtd">
<svg height="570.96pt" version="1.1" viewBox="0 0 921.6 570.96" width="921.6pt" xmlns="http://www.w3.org/2000/svg" xmlns:xlink="http://www.w3.org/1999/xlink">
 <metadata>
  <rdf:RDF xmlns:cc="http://creativecommons.org/ns#" xmlns:dc="http://purl.org/dc/elements/1.1/" xmlns:rdf="http://www.w3.org/1999/02/22-rdf-syntax-ns#">
   <cc:Work>
    <dc:type rdf:resource="http://purl.org/dc/dcmitype/StillImage"/>
    <dc:date>2024-06-19T10:17:53.365303</dc:date>
    <dc:format>image/svg+xml</dc:format>
    <dc:creator>
     <cc:Agent>
      <dc:title>Matplotlib v3.4.3, https://matplotlib.org/</dc:title>
     </cc:Agent>
    </dc:creator>
   </cc:Work>
  </rdf:RDF>
 </metadata>
 <defs>
  <style type="text/css">*{stroke-linecap:butt;stroke-linejoin:round;}</style>
 </defs>
 <g id="figure_1">
  <g id="patch_1">
   <path d="M 0 570.96 
L 921.6 570.96 
L 921.6 0 
L 0 0 
z
" style="fill:#ffffff;"/>
  </g>
  <g id="axes_1">
   <g id="patch_2">
    <path d="M 54.016 526.26652 
L 912.96 526.26652 
L 912.96 28.395744 
L 54.016 28.395744 
z
" style="fill:#ffffff;"/>
   </g>
   <g id="PathCollection_1">
    <path clip-path="url(#p1580d8fa9c)" d="M 102.819636 168.737051 
L 96.695912 180.9845 
L 108.943361 180.9845 
z
" style="fill:#0000ff;stroke:#0000ff;"/>
    <path clip-path="url(#p1580d8fa9c)" d="M 122.341091 231.488151 
L 116.217367 243.735599 
L 128.464815 243.735599 
z
" style="fill:#0000ff;stroke:#0000ff;"/>
    <path clip-path="url(#p1580d8fa9c)" d="M 141.862545 207.565709 
L 147.98627 195.31826 
L 135.738821 195.31826 
z
" style="fill:#ff0000;stroke:#ff0000;"/>
    <path clip-path="url(#p1580d8fa9c)" d="M 161.384 146.483478 
L 167.507724 134.236029 
L 155.260276 134.236029 
z
" style="fill:#ff0000;stroke:#ff0000;"/>
    <path clip-path="url(#p1580d8fa9c)" d="M 177.843592 162.220866 
L 180.905455 159.159004 
L 183.967317 162.220866 
L 187.029179 159.159004 
L 183.967317 156.097142 
L 187.029179 153.035279 
L 183.967317 149.973417 
L 180.905455 153.035279 
L 177.843592 149.973417 
L 174.78173 153.035279 
L 177.843592 156.097142 
L 174.78173 159.159004 
z
" style="stroke:#000000;"/>
    <path clip-path="url(#p1580d8fa9c)" d="M 197.365047 190.56676 
L 200.426909 187.504898 
L 203.488771 190.56676 
L 206.550633 187.504898 
L 203.488771 184.443036 
L 206.550633 181.381173 
L 203.488771 178.319311 
L 200.426909 181.381173 
L 197.365047 178.319311 
L 194.303185 181.381173 
L 197.365047 184.443036 
L 194.303185 187.504898 
z
" style="stroke:#000000;"/>
    <path clip-path="url(#p1580d8fa9c)" d="M 216.886501 195.330855 
L 219.948364 192.268992 
L 223.010226 195.330855 
L 226.072088 192.268992 
L 223.010226 189.20713 
L 226.072088 186.145268 
L 223.010226 183.083406 
L 219.948364 186.145268 
L 216.886501 183.083406 
L 213.824639 186.145268 
L 216.886501 189.20713 
L 213.824639 192.268992 
z
" style="stroke:#000000;"/>
    <path clip-path="url(#p1580d8fa9c)" d="M 236.407956 197.102647 
L 239.469818 194.040784 
L 242.53168 197.102647 
L 245.593543 194.040784 
L 242.53168 190.978922 
L 245.593543 187.91706 
L 242.53168 184.855198 
L 239.469818 187.91706 
L 236.407956 184.855198 
L 233.346094 187.91706 
L 236.407956 190.978922 
L 233.346094 194.040784 
z
" style="stroke:#000000;"/>
    <path clip-path="url(#p1580d8fa9c)" d="M 255.929411 197.998197 
L 258.991273 194.936334 
L 262.053135 197.998197 
L 265.114997 194.936334 
L 262.053135 191.874472 
L 265.114997 188.81261 
L 262.053135 185.750748 
L 258.991273 188.81261 
L 255.929411 185.750748 
L 252.867548 188.81261 
L 255.929411 191.874472 
L 252.867548 194.936334 
z
" style="stroke:#000000;"/>
    <path clip-path="url(#p1580d8fa9c)" d="M 275.450865 198.55718 
L 278.512727 195.495317 
L 281.574589 198.55718 
L 284.636452 195.495317 
L 281.574589 192.433455 
L 284.636452 189.371593 
L 281.574589 186.309731 
L 278.512727 189.371593 
L 275.450865 186.309731 
L 272.389003 189.371593 
L 275.450865 192.433455 
L 272.389003 195.495317 
z
" style="stroke:#000000;"/>
    <path clip-path="url(#p1580d8fa9c)" d="M 294.97232 198.954292 
L 298.034182 195.892429 
L 301.096044 198.954292 
L 304.157906 195.892429 
L 301.096044 192.830567 
L 304.157906 189.768705 
L 301.096044 186.706843 
L 298.034182 189.768705 
L 294.97232 186.706843 
L 291.910457 189.768705 
L 294.97232 192.830567 
L 291.910457 195.892429 
z
" style="stroke:#000000;"/>
    <path clip-path="url(#p1580d8fa9c)" d="M 314.493774 199.255737 
L 317.555636 196.193875 
L 320.617499 199.255737 
L 323.679361 196.193875 
L 320.617499 193.132013 
L 323.679361 190.070151 
L 320.617499 187.008289 
L 317.555636 190.070151 
L 314.493774 187.008289 
L 311.431912 190.070151 
L 314.493774 193.132013 
L 311.431912 196.193875 
z
" style="stroke:#000000;"/>
    <path clip-path="url(#p1580d8fa9c)" d="M 334.015229 199.492697 
L 337.077091 196.430835 
L 340.138953 199.492697 
L 343.200815 196.430835 
L 340.138953 193.368972 
L 343.200815 190.30711 
L 340.138953 187.245248 
L 337.077091 190.30711 
L 334.015229 187.245248 
L 330.953367 190.30711 
L 334.015229 193.368972 
L 330.953367 196.430835 
z
" style="stroke:#000000;"/>
    <path clip-path="url(#p1580d8fa9c)" d="M 353.536683 199.683097 
L 356.598545 196.621235 
L 359.660408 199.683097 
L 362.72227 196.621235 
L 359.660408 193.559372 
L 362.72227 190.49751 
L 359.660408 187.435648 
L 356.598545 190.49751 
L 353.536683 187.435648 
L 350.474821 190.49751 
L 353.536683 193.559372 
L 350.474821 196.621235 
z
" style="stroke:#000000;"/>
    <path clip-path="url(#p1580d8fa9c)" d="M 373.058138 199.838611 
L 376.12 196.776749 
L 379.181862 199.838611 
L 382.243724 196.776749 
L 379.181862 193.714887 
L 382.243724 190.653024 
L 379.181862 187.591162 
L 376.12 190.653024 
L 373.058138 187.591162 
L 369.996276 190.653024 
L 373.058138 193.714887 
L 369.996276 196.776749 
z
" style="stroke:#000000;"/>
    <path clip-path="url(#p1580d8fa9c)" d="M 392.579592 199.967355 
L 395.641455 196.905492 
L 398.703317 199.967355 
L 401.765179 196.905492 
L 398.703317 193.84363 
L 401.765179 190.781768 
L 398.703317 187.719906 
L 395.641455 190.781768 
L 392.579592 187.719906 
L 389.51773 190.781768 
L 392.579592 193.84363 
L 389.51773 196.905492 
z
" style="stroke:#000000;"/>
    <path clip-path="url(#p1580d8fa9c)" d="M 412.101047 200.075178 
L 415.162909 197.013316 
L 418.224771 200.075178 
L 421.286633 197.013316 
L 418.224771 193.951454 
L 421.286633 190.889592 
L 418.224771 187.82773 
L 415.162909 190.889592 
L 412.101047 187.82773 
L 409.039185 190.889592 
L 412.101047 193.951454 
L 409.039185 197.013316 
z
" style="stroke:#000000;"/>
    <path clip-path="url(#p1580d8fa9c)" d="M 431.622501 200.166405 
L 434.684364 197.104543 
L 437.746226 200.166405 
L 440.808088 197.104543 
L 437.746226 194.042681 
L 440.808088 190.980818 
L 437.746226 187.918956 
L 434.684364 190.980818 
L 431.622501 187.918956 
L 428.560639 190.980818 
L 431.622501 194.042681 
L 428.560639 197.104543 
z
" style="stroke:#000000;"/>
    <path clip-path="url(#p1580d8fa9c)" d="M 451.143956 200.244289 
L 454.205818 197.182427 
L 457.26768 200.244289 
L 460.329543 197.182427 
L 457.26768 194.120565 
L 460.329543 191.058702 
L 457.26768 187.99684 
L 454.205818 191.058702 
L 451.143956 187.99684 
L 448.082094 191.058702 
L 451.143956 194.120565 
L 448.082094 197.182427 
z
" style="stroke:#000000;"/>
    <path clip-path="url(#p1580d8fa9c)" d="M 470.665411 200.311321 
L 473.727273 197.249459 
L 476.789135 200.311321 
L 479.850997 197.249459 
L 476.789135 194.187597 
L 479.850997 191.125734 
L 476.789135 188.063872 
L 473.727273 191.125734 
L 470.665411 188.063872 
L 467.603548 191.125734 
L 470.665411 194.187597 
L 467.603548 197.249459 
z
" style="stroke:#000000;"/>
    <path clip-path="url(#p1580d8fa9c)" d="M 490.186865 200.369434 
L 493.248727 197.307572 
L 496.310589 200.369434 
L 499.372452 197.307572 
L 496.310589 194.24571 
L 499.372452 191.183848 
L 496.310589 188.121986 
L 493.248727 191.183848 
L 490.186865 188.121986 
L 487.125003 191.183848 
L 490.186865 194.24571 
L 487.125003 197.307572 
z
" style="stroke:#000000;"/>
    <path clip-path="url(#p1580d8fa9c)" d="M 509.70832 200.420148 
L 512.770182 197.358286 
L 515.832044 200.420148 
L 518.893906 197.358286 
L 515.832044 194.296424 
L 518.893906 191.234562 
L 515.832044 188.1727 
L 512.770182 191.234562 
L 509.70832 188.1727 
L 506.646457 191.234562 
L 509.70832 194.296424 
L 506.646457 197.358286 
z
" style="stroke:#000000;"/>
    <path clip-path="url(#p1580d8fa9c)" d="M 529.229774 200.464672 
L 532.291636 197.40281 
L 535.353499 200.464672 
L 538.415361 197.40281 
L 535.353499 194.340947 
L 538.415361 191.279085 
L 535.353499 188.217223 
L 532.291636 191.279085 
L 529.229774 188.217223 
L 526.167912 191.279085 
L 529.229774 194.340947 
L 526.167912 197.40281 
z
" style="stroke:#000000;"/>
    <path clip-path="url(#p1580d8fa9c)" d="M 548.751229 200.503975 
L 551.813091 197.442113 
L 554.874953 200.503975 
L 557.936815 197.442113 
L 554.874953 194.380251 
L 557.936815 191.318388 
L 554.874953 188.256526 
L 551.813091 191.318388 
L 548.751229 188.256526 
L 545.689367 191.318388 
L 548.751229 194.380251 
L 545.689367 197.442113 
z
" style="stroke:#000000;"/>
    <path clip-path="url(#p1580d8fa9c)" d="M 568.272683 200.538845 
L 571.334545 197.476983 
L 574.396408 200.538845 
L 577.45827 197.476983 
L 574.396408 194.415121 
L 577.45827 191.353259 
L 574.396408 188.291396 
L 571.334545 191.353259 
L 568.272683 188.291396 
L 565.210821 191.353259 
L 568.272683 194.415121 
L 565.210821 197.476983 
z
" style="stroke:#000000;"/>
    <path clip-path="url(#p1580d8fa9c)" d="M 587.794138 200.569926 
L 590.856 197.508064 
L 593.917862 200.569926 
L 596.979724 197.508064 
L 593.917862 194.446202 
L 596.979724 191.384339 
L 593.917862 188.322477 
L 590.856 191.384339 
L 587.794138 188.322477 
L 584.732276 191.384339 
L 587.794138 194.446202 
L 584.732276 197.508064 
z
" style="stroke:#000000;"/>
    <path clip-path="url(#p1580d8fa9c)" d="M 607.315592 200.597749 
L 610.377455 197.535886 
L 613.439317 200.597749 
L 616.501179 197.535886 
L 613.439317 194.474024 
L 616.501179 191.412162 
L 613.439317 188.3503 
L 610.377455 191.412162 
L 607.315592 188.3503 
L 604.25373 191.412162 
L 607.315592 194.474024 
L 604.25373 197.535886 
z
" style="stroke:#000000;"/>
    <path clip-path="url(#p1580d8fa9c)" d="M 626.837047 200.622754 
L 629.898909 197.560892 
L 632.960771 200.622754 
L 636.022633 197.560892 
L 632.960771 194.499029 
L 636.022633 191.437167 
L 632.960771 188.375305 
L 629.898909 191.437167 
L 626.837047 188.375305 
L 623.775185 191.437167 
L 626.837047 194.499029 
L 623.775185 197.560892 
z
" style="stroke:#000000;"/>
    <path clip-path="url(#p1580d8fa9c)" d="M 646.358501 200.64531 
L 649.420364 197.583448 
L 652.482226 200.64531 
L 655.544088 197.583448 
L 652.482226 194.521586 
L 655.544088 191.459723 
L 652.482226 188.397861 
L 649.420364 191.459723 
L 646.358501 188.397861 
L 643.296639 191.459723 
L 646.358501 194.521586 
L 643.296639 197.583448 
z
" style="stroke:#000000;"/>
    <path clip-path="url(#p1580d8fa9c)" d="M 665.879956 200.665727 
L 668.941818 197.603865 
L 672.00368 200.665727 
L 675.065543 197.603865 
L 672.00368 194.542003 
L 675.065543 191.480141 
L 672.00368 188.418279 
L 668.941818 191.480141 
L 665.879956 188.418279 
L 662.818094 191.480141 
L 665.879956 194.542003 
L 662.818094 197.603865 
z
" style="stroke:#000000;"/>
    <path clip-path="url(#p1580d8fa9c)" d="M 685.401411 200.684268 
L 688.463273 197.622406 
L 691.525135 200.684268 
L 694.586997 197.622406 
L 691.525135 194.560544 
L 694.586997 191.498682 
L 691.525135 188.43682 
L 688.463273 191.498682 
L 685.401411 188.43682 
L 682.339548 191.498682 
L 685.401411 194.560544 
L 682.339548 197.622406 
z
" style="stroke:#000000;"/>
    <path clip-path="url(#p1580d8fa9c)" d="M 704.922865 200.701157 
L 707.984727 197.639294 
L 711.046589 200.701157 
L 714.108452 197.639294 
L 711.046589 194.577432 
L 714.108452 191.51557 
L 711.046589 188.453708 
L 707.984727 191.51557 
L 704.922865 188.453708 
L 701.861003 191.51557 
L 704.922865 194.577432 
L 701.861003 197.639294 
z
" style="stroke:#000000;"/>
    <path clip-path="url(#p1580d8fa9c)" d="M 724.44432 200.716583 
L 727.506182 197.654721 
L 730.568044 200.716583 
L 733.629906 197.654721 
L 730.568044 194.592859 
L 733.629906 191.530996 
L 730.568044 188.469134 
L 727.506182 191.530996 
L 724.44432 188.469134 
L 721.382457 191.530996 
L 724.44432 194.592859 
L 721.382457 197.654721 
z
" style="stroke:#000000;"/>
    <path clip-path="url(#p1580d8fa9c)" d="M 743.965774 200.730711 
L 747.027636 197.668849 
L 750.089499 200.730711 
L 753.151361 197.668849 
L 750.089499 194.606987 
L 753.151361 191.545125 
L 750.089499 188.483263 
L 747.027636 191.545125 
L 743.965774 188.483263 
L 740.903912 191.545125 
L 743.965774 194.606987 
L 740.903912 197.668849 
z
" style="stroke:#000000;"/>
    <path clip-path="url(#p1580d8fa9c)" d="M 763.487229 200.743684 
L 766.549091 197.681822 
L 769.610953 200.743684 
L 772.672815 197.681822 
L 769.610953 194.61996 
L 772.672815 191.558098 
L 769.610953 188.496235 
L 766.549091 191.558098 
L 763.487229 188.496235 
L 760.425367 191.558098 
L 763.487229 194.61996 
L 760.425367 197.681822 
z
" style="stroke:#000000;"/>
    <path clip-path="url(#p1580d8fa9c)" d="M 783.008683 200.755624 
L 786.070545 197.693761 
L 789.132408 200.755624 
L 792.19427 197.693761 
L 789.132408 194.631899 
L 792.19427 191.570037 
L 789.132408 188.508175 
L 786.070545 191.570037 
L 783.008683 188.508175 
L 779.946821 191.570037 
L 783.008683 194.631899 
L 779.946821 197.693761 
z
" style="stroke:#000000;"/>
    <path clip-path="url(#p1580d8fa9c)" d="M 802.530138 200.766637 
L 805.592 197.704775 
L 808.653862 200.766637 
L 811.715724 197.704775 
L 808.653862 194.642913 
L 811.715724 191.58105 
L 808.653862 188.519188 
L 805.592 191.58105 
L 802.530138 188.519188 
L 799.468276 191.58105 
L 802.530138 194.642913 
L 799.468276 197.704775 
z
" style="stroke:#000000;"/>
    <path clip-path="url(#p1580d8fa9c)" d="M 822.051592 200.776818 
L 825.113455 197.714956 
L 828.175317 200.776818 
L 831.237179 197.714956 
L 828.175317 194.653093 
L 831.237179 191.591231 
L 828.175317 188.529369 
L 825.113455 191.591231 
L 822.051592 188.529369 
L 818.98973 191.591231 
L 822.051592 194.653093 
L 818.98973 197.714956 
z
" style="stroke:#000000;"/>
    <path clip-path="url(#p1580d8fa9c)" d="M 841.573047 200.786248 
L 844.634909 197.724386 
L 847.696771 200.786248 
L 850.758633 197.724386 
L 847.696771 194.662523 
L 850.758633 191.600661 
L 847.696771 188.538799 
L 844.634909 191.600661 
L 841.573047 188.538799 
L 838.511185 191.600661 
L 841.573047 194.662523 
L 838.511185 197.724386 
z
" style="stroke:#000000;"/>
    <path clip-path="url(#p1580d8fa9c)" d="M 861.094501 283.454856 
L 864.156364 280.392994 
L 867.218226 283.454856 
L 870.280088 280.392994 
L 867.218226 277.331132 
L 870.280088 274.26927 
L 867.218226 271.207408 
L 864.156364 274.26927 
L 861.094501 271.207408 
L 858.032639 274.26927 
L 861.094501 277.331132 
L 858.032639 280.392994 
z
" style="stroke:#000000;"/>
   </g>
   <g id="patch_3">
    <path clip-path="url(#p1580d8fa9c)" d="M 93.058909 526.26652 
L 93.058909 28.395744 
L 483.488 28.395744 
L 483.488 526.26652 
z
" style="fill:#ff7f50;opacity:0.3;"/>
   </g>
   <g id="patch_4">
    <path clip-path="url(#p1580d8fa9c)" d="M 483.488 526.26652 
L 483.488 28.395744 
L 873.917091 28.395744 
L 873.917091 526.26652 
z
" style="fill:#b0e0e6;opacity:0.3;"/>
   </g>
   <g id="matplotlib.axis_1">
    <g id="xtick_1">
     <g id="line2d_1">
      <defs>
       <path d="M 0 0 
L 0 3.5 
" id="m4d023de8c1" style="stroke:#000000;stroke-width:0.8;"/>
      </defs>
      <g>
       <use style="stroke:#000000;stroke-width:0.8;" x="93.058909" xlink:href="#m4d023de8c1" y="526.26652"/>
      </g>
     </g>
     <g id="text_1">
      <!-- 0 -->
      <g transform="translate(88.287034 544.664176)scale(0.15 -0.15)">
       <defs>
        <path d="M 2034 4250 
Q 1547 4250 1301 3770 
Q 1056 3291 1056 2328 
Q 1056 1369 1301 889 
Q 1547 409 2034 409 
Q 2525 409 2770 889 
Q 3016 1369 3016 2328 
Q 3016 3291 2770 3770 
Q 2525 4250 2034 4250 
z
M 2034 4750 
Q 2819 4750 3233 4129 
Q 3647 3509 3647 2328 
Q 3647 1150 3233 529 
Q 2819 -91 2034 -91 
Q 1250 -91 836 529 
Q 422 1150 422 2328 
Q 422 3509 836 4129 
Q 1250 4750 2034 4750 
z
" id="DejaVuSans-30" transform="scale(0.015625)"/>
       </defs>
       <use xlink:href="#DejaVuSans-30"/>
      </g>
     </g>
    </g>
    <g id="xtick_2">
     <g id="line2d_2">
      <g>
       <use style="stroke:#000000;stroke-width:0.8;" x="112.580364" xlink:href="#m4d023de8c1" y="526.26652"/>
      </g>
     </g>
     <g id="text_2">
      <!-- 1 -->
      <g transform="translate(107.808489 544.664176)scale(0.15 -0.15)">
       <defs>
        <path d="M 794 531 
L 1825 531 
L 1825 4091 
L 703 3866 
L 703 4441 
L 1819 4666 
L 2450 4666 
L 2450 531 
L 3481 531 
L 3481 0 
L 794 0 
L 794 531 
z
" id="DejaVuSans-31" transform="scale(0.015625)"/>
       </defs>
       <use xlink:href="#DejaVuSans-31"/>
      </g>
     </g>
    </g>
    <g id="xtick_3">
     <g id="line2d_3">
      <g>
       <use style="stroke:#000000;stroke-width:0.8;" x="132.101818" xlink:href="#m4d023de8c1" y="526.26652"/>
      </g>
     </g>
     <g id="text_3">
      <!-- 2 -->
      <g transform="translate(127.329943 544.664176)scale(0.15 -0.15)">
       <defs>
        <path d="M 1228 531 
L 3431 531 
L 3431 0 
L 469 0 
L 469 531 
Q 828 903 1448 1529 
Q 2069 2156 2228 2338 
Q 2531 2678 2651 2914 
Q 2772 3150 2772 3378 
Q 2772 3750 2511 3984 
Q 2250 4219 1831 4219 
Q 1534 4219 1204 4116 
Q 875 4013 500 3803 
L 500 4441 
Q 881 4594 1212 4672 
Q 1544 4750 1819 4750 
Q 2544 4750 2975 4387 
Q 3406 4025 3406 3419 
Q 3406 3131 3298 2873 
Q 3191 2616 2906 2266 
Q 2828 2175 2409 1742 
Q 1991 1309 1228 531 
z
" id="DejaVuSans-32" transform="scale(0.015625)"/>
       </defs>
       <use xlink:href="#DejaVuSans-32"/>
      </g>
     </g>
    </g>
    <g id="xtick_4">
     <g id="line2d_4">
      <g>
       <use style="stroke:#000000;stroke-width:0.8;" x="151.623273" xlink:href="#m4d023de8c1" y="526.26652"/>
      </g>
     </g>
     <g id="text_4">
      <!-- 3 -->
      <g transform="translate(146.851398 544.664176)scale(0.15 -0.15)">
       <defs>
        <path d="M 2597 2516 
Q 3050 2419 3304 2112 
Q 3559 1806 3559 1356 
Q 3559 666 3084 287 
Q 2609 -91 1734 -91 
Q 1441 -91 1130 -33 
Q 819 25 488 141 
L 488 750 
Q 750 597 1062 519 
Q 1375 441 1716 441 
Q 2309 441 2620 675 
Q 2931 909 2931 1356 
Q 2931 1769 2642 2001 
Q 2353 2234 1838 2234 
L 1294 2234 
L 1294 2753 
L 1863 2753 
Q 2328 2753 2575 2939 
Q 2822 3125 2822 3475 
Q 2822 3834 2567 4026 
Q 2313 4219 1838 4219 
Q 1578 4219 1281 4162 
Q 984 4106 628 3988 
L 628 4550 
Q 988 4650 1302 4700 
Q 1616 4750 1894 4750 
Q 2613 4750 3031 4423 
Q 3450 4097 3450 3541 
Q 3450 3153 3228 2886 
Q 3006 2619 2597 2516 
z
" id="DejaVuSans-33" transform="scale(0.015625)"/>
       </defs>
       <use xlink:href="#DejaVuSans-33"/>
      </g>
     </g>
    </g>
    <g id="xtick_5">
     <g id="line2d_5">
      <g>
       <use style="stroke:#000000;stroke-width:0.8;" x="171.144727" xlink:href="#m4d023de8c1" y="526.26652"/>
      </g>
     </g>
     <g id="text_5">
      <!-- 4 -->
      <g transform="translate(166.372852 544.664176)scale(0.15 -0.15)">
       <defs>
        <path d="M 2419 4116 
L 825 1625 
L 2419 1625 
L 2419 4116 
z
M 2253 4666 
L 3047 4666 
L 3047 1625 
L 3713 1625 
L 3713 1100 
L 3047 1100 
L 3047 0 
L 2419 0 
L 2419 1100 
L 313 1100 
L 313 1709 
L 2253 4666 
z
" id="DejaVuSans-34" transform="scale(0.015625)"/>
       </defs>
       <use xlink:href="#DejaVuSans-34"/>
      </g>
     </g>
    </g>
    <g id="xtick_6">
     <g id="line2d_6">
      <g>
       <use style="stroke:#000000;stroke-width:0.8;" x="190.666182" xlink:href="#m4d023de8c1" y="526.26652"/>
      </g>
     </g>
     <g id="text_6">
      <!-- 5 -->
      <g transform="translate(185.894307 544.664176)scale(0.15 -0.15)">
       <defs>
        <path d="M 691 4666 
L 3169 4666 
L 3169 4134 
L 1269 4134 
L 1269 2991 
Q 1406 3038 1543 3061 
Q 1681 3084 1819 3084 
Q 2600 3084 3056 2656 
Q 3513 2228 3513 1497 
Q 3513 744 3044 326 
Q 2575 -91 1722 -91 
Q 1428 -91 1123 -41 
Q 819 9 494 109 
L 494 744 
Q 775 591 1075 516 
Q 1375 441 1709 441 
Q 2250 441 2565 725 
Q 2881 1009 2881 1497 
Q 2881 1984 2565 2268 
Q 2250 2553 1709 2553 
Q 1456 2553 1204 2497 
Q 953 2441 691 2322 
L 691 4666 
z
" id="DejaVuSans-35" transform="scale(0.015625)"/>
       </defs>
       <use xlink:href="#DejaVuSans-35"/>
      </g>
     </g>
    </g>
    <g id="xtick_7">
     <g id="line2d_7">
      <g>
       <use style="stroke:#000000;stroke-width:0.8;" x="210.187636" xlink:href="#m4d023de8c1" y="526.26652"/>
      </g>
     </g>
     <g id="text_7">
      <!-- 6 -->
      <g transform="translate(205.415761 544.664176)scale(0.15 -0.15)">
       <defs>
        <path d="M 2113 2584 
Q 1688 2584 1439 2293 
Q 1191 2003 1191 1497 
Q 1191 994 1439 701 
Q 1688 409 2113 409 
Q 2538 409 2786 701 
Q 3034 994 3034 1497 
Q 3034 2003 2786 2293 
Q 2538 2584 2113 2584 
z
M 3366 4563 
L 3366 3988 
Q 3128 4100 2886 4159 
Q 2644 4219 2406 4219 
Q 1781 4219 1451 3797 
Q 1122 3375 1075 2522 
Q 1259 2794 1537 2939 
Q 1816 3084 2150 3084 
Q 2853 3084 3261 2657 
Q 3669 2231 3669 1497 
Q 3669 778 3244 343 
Q 2819 -91 2113 -91 
Q 1303 -91 875 529 
Q 447 1150 447 2328 
Q 447 3434 972 4092 
Q 1497 4750 2381 4750 
Q 2619 4750 2861 4703 
Q 3103 4656 3366 4563 
z
" id="DejaVuSans-36" transform="scale(0.015625)"/>
       </defs>
       <use xlink:href="#DejaVuSans-36"/>
      </g>
     </g>
    </g>
    <g id="xtick_8">
     <g id="line2d_8">
      <g>
       <use style="stroke:#000000;stroke-width:0.8;" x="229.709091" xlink:href="#m4d023de8c1" y="526.26652"/>
      </g>
     </g>
     <g id="text_8">
      <!-- 7 -->
      <g transform="translate(224.937216 544.664176)scale(0.15 -0.15)">
       <defs>
        <path d="M 525 4666 
L 3525 4666 
L 3525 4397 
L 1831 0 
L 1172 0 
L 2766 4134 
L 525 4134 
L 525 4666 
z
" id="DejaVuSans-37" transform="scale(0.015625)"/>
       </defs>
       <use xlink:href="#DejaVuSans-37"/>
      </g>
     </g>
    </g>
    <g id="xtick_9">
     <g id="line2d_9">
      <g>
       <use style="stroke:#000000;stroke-width:0.8;" x="249.230545" xlink:href="#m4d023de8c1" y="526.26652"/>
      </g>
     </g>
     <g id="text_9">
      <!-- 8 -->
      <g transform="translate(244.45867 544.664176)scale(0.15 -0.15)">
       <defs>
        <path d="M 2034 2216 
Q 1584 2216 1326 1975 
Q 1069 1734 1069 1313 
Q 1069 891 1326 650 
Q 1584 409 2034 409 
Q 2484 409 2743 651 
Q 3003 894 3003 1313 
Q 3003 1734 2745 1975 
Q 2488 2216 2034 2216 
z
M 1403 2484 
Q 997 2584 770 2862 
Q 544 3141 544 3541 
Q 544 4100 942 4425 
Q 1341 4750 2034 4750 
Q 2731 4750 3128 4425 
Q 3525 4100 3525 3541 
Q 3525 3141 3298 2862 
Q 3072 2584 2669 2484 
Q 3125 2378 3379 2068 
Q 3634 1759 3634 1313 
Q 3634 634 3220 271 
Q 2806 -91 2034 -91 
Q 1263 -91 848 271 
Q 434 634 434 1313 
Q 434 1759 690 2068 
Q 947 2378 1403 2484 
z
M 1172 3481 
Q 1172 3119 1398 2916 
Q 1625 2713 2034 2713 
Q 2441 2713 2670 2916 
Q 2900 3119 2900 3481 
Q 2900 3844 2670 4047 
Q 2441 4250 2034 4250 
Q 1625 4250 1398 4047 
Q 1172 3844 1172 3481 
z
" id="DejaVuSans-38" transform="scale(0.015625)"/>
       </defs>
       <use xlink:href="#DejaVuSans-38"/>
      </g>
     </g>
    </g>
    <g id="xtick_10">
     <g id="line2d_10">
      <g>
       <use style="stroke:#000000;stroke-width:0.8;" x="268.752" xlink:href="#m4d023de8c1" y="526.26652"/>
      </g>
     </g>
     <g id="text_10">
      <!-- 9 -->
      <g transform="translate(263.980125 544.664176)scale(0.15 -0.15)">
       <defs>
        <path d="M 703 97 
L 703 672 
Q 941 559 1184 500 
Q 1428 441 1663 441 
Q 2288 441 2617 861 
Q 2947 1281 2994 2138 
Q 2813 1869 2534 1725 
Q 2256 1581 1919 1581 
Q 1219 1581 811 2004 
Q 403 2428 403 3163 
Q 403 3881 828 4315 
Q 1253 4750 1959 4750 
Q 2769 4750 3195 4129 
Q 3622 3509 3622 2328 
Q 3622 1225 3098 567 
Q 2575 -91 1691 -91 
Q 1453 -91 1209 -44 
Q 966 3 703 97 
z
M 1959 2075 
Q 2384 2075 2632 2365 
Q 2881 2656 2881 3163 
Q 2881 3666 2632 3958 
Q 2384 4250 1959 4250 
Q 1534 4250 1286 3958 
Q 1038 3666 1038 3163 
Q 1038 2656 1286 2365 
Q 1534 2075 1959 2075 
z
" id="DejaVuSans-39" transform="scale(0.015625)"/>
       </defs>
       <use xlink:href="#DejaVuSans-39"/>
      </g>
     </g>
    </g>
    <g id="xtick_11">
     <g id="line2d_11">
      <g>
       <use style="stroke:#000000;stroke-width:0.8;" x="288.273455" xlink:href="#m4d023de8c1" y="526.26652"/>
      </g>
     </g>
     <g id="text_11">
      <!-- 10 -->
      <g transform="translate(278.729705 544.664176)scale(0.15 -0.15)">
       <use xlink:href="#DejaVuSans-31"/>
       <use x="63.623047" xlink:href="#DejaVuSans-30"/>
      </g>
     </g>
    </g>
    <g id="xtick_12">
     <g id="line2d_12">
      <g>
       <use style="stroke:#000000;stroke-width:0.8;" x="307.794909" xlink:href="#m4d023de8c1" y="526.26652"/>
      </g>
     </g>
     <g id="text_12">
      <!-- 11 -->
      <g transform="translate(298.251159 544.664176)scale(0.15 -0.15)">
       <use xlink:href="#DejaVuSans-31"/>
       <use x="63.623047" xlink:href="#DejaVuSans-31"/>
      </g>
     </g>
    </g>
    <g id="xtick_13">
     <g id="line2d_13">
      <g>
       <use style="stroke:#000000;stroke-width:0.8;" x="327.316364" xlink:href="#m4d023de8c1" y="526.26652"/>
      </g>
     </g>
     <g id="text_13">
      <!-- 12 -->
      <g transform="translate(317.772614 544.664176)scale(0.15 -0.15)">
       <use xlink:href="#DejaVuSans-31"/>
       <use x="63.623047" xlink:href="#DejaVuSans-32"/>
      </g>
     </g>
    </g>
    <g id="xtick_14">
     <g id="line2d_14">
      <g>
       <use style="stroke:#000000;stroke-width:0.8;" x="346.837818" xlink:href="#m4d023de8c1" y="526.26652"/>
      </g>
     </g>
     <g id="text_14">
      <!-- 13 -->
      <g transform="translate(337.294068 544.664176)scale(0.15 -0.15)">
       <use xlink:href="#DejaVuSans-31"/>
       <use x="63.623047" xlink:href="#DejaVuSans-33"/>
      </g>
     </g>
    </g>
    <g id="xtick_15">
     <g id="line2d_15">
      <g>
       <use style="stroke:#000000;stroke-width:0.8;" x="366.359273" xlink:href="#m4d023de8c1" y="526.26652"/>
      </g>
     </g>
     <g id="text_15">
      <!-- 14 -->
      <g transform="translate(356.815523 544.664176)scale(0.15 -0.15)">
       <use xlink:href="#DejaVuSans-31"/>
       <use x="63.623047" xlink:href="#DejaVuSans-34"/>
      </g>
     </g>
    </g>
    <g id="xtick_16">
     <g id="line2d_16">
      <g>
       <use style="stroke:#000000;stroke-width:0.8;" x="385.880727" xlink:href="#m4d023de8c1" y="526.26652"/>
      </g>
     </g>
     <g id="text_16">
      <!-- 15 -->
      <g transform="translate(376.336977 544.664176)scale(0.15 -0.15)">
       <use xlink:href="#DejaVuSans-31"/>
       <use x="63.623047" xlink:href="#DejaVuSans-35"/>
      </g>
     </g>
    </g>
    <g id="xtick_17">
     <g id="line2d_17">
      <g>
       <use style="stroke:#000000;stroke-width:0.8;" x="405.402182" xlink:href="#m4d023de8c1" y="526.26652"/>
      </g>
     </g>
     <g id="text_17">
      <!-- 16 -->
      <g transform="translate(395.858432 544.664176)scale(0.15 -0.15)">
       <use xlink:href="#DejaVuSans-31"/>
       <use x="63.623047" xlink:href="#DejaVuSans-36"/>
      </g>
     </g>
    </g>
    <g id="xtick_18">
     <g id="line2d_18">
      <g>
       <use style="stroke:#000000;stroke-width:0.8;" x="424.923636" xlink:href="#m4d023de8c1" y="526.26652"/>
      </g>
     </g>
     <g id="text_18">
      <!-- 17 -->
      <g transform="translate(415.379886 544.664176)scale(0.15 -0.15)">
       <use xlink:href="#DejaVuSans-31"/>
       <use x="63.623047" xlink:href="#DejaVuSans-37"/>
      </g>
     </g>
    </g>
    <g id="xtick_19">
     <g id="line2d_19">
      <g>
       <use style="stroke:#000000;stroke-width:0.8;" x="444.445091" xlink:href="#m4d023de8c1" y="526.26652"/>
      </g>
     </g>
     <g id="text_19">
      <!-- 18 -->
      <g transform="translate(434.901341 544.664176)scale(0.15 -0.15)">
       <use xlink:href="#DejaVuSans-31"/>
       <use x="63.623047" xlink:href="#DejaVuSans-38"/>
      </g>
     </g>
    </g>
    <g id="xtick_20">
     <g id="line2d_20">
      <g>
       <use style="stroke:#000000;stroke-width:0.8;" x="463.966545" xlink:href="#m4d023de8c1" y="526.26652"/>
      </g>
     </g>
     <g id="text_20">
      <!-- 19 -->
      <g transform="translate(454.422795 544.664176)scale(0.15 -0.15)">
       <use xlink:href="#DejaVuSans-31"/>
       <use x="63.623047" xlink:href="#DejaVuSans-39"/>
      </g>
     </g>
    </g>
    <g id="xtick_21">
     <g id="line2d_21">
      <g>
       <use style="stroke:#000000;stroke-width:0.8;" x="483.488" xlink:href="#m4d023de8c1" y="526.26652"/>
      </g>
     </g>
     <g id="text_21">
      <!-- 20 -->
      <g transform="translate(473.94425 544.664176)scale(0.15 -0.15)">
       <use xlink:href="#DejaVuSans-32"/>
       <use x="63.623047" xlink:href="#DejaVuSans-30"/>
      </g>
     </g>
    </g>
    <g id="xtick_22">
     <g id="line2d_22">
      <g>
       <use style="stroke:#000000;stroke-width:0.8;" x="503.009455" xlink:href="#m4d023de8c1" y="526.26652"/>
      </g>
     </g>
     <g id="text_22">
      <!-- 21 -->
      <g transform="translate(493.465705 544.664176)scale(0.15 -0.15)">
       <use xlink:href="#DejaVuSans-32"/>
       <use x="63.623047" xlink:href="#DejaVuSans-31"/>
      </g>
     </g>
    </g>
    <g id="xtick_23">
     <g id="line2d_23">
      <g>
       <use style="stroke:#000000;stroke-width:0.8;" x="522.530909" xlink:href="#m4d023de8c1" y="526.26652"/>
      </g>
     </g>
     <g id="text_23">
      <!-- 22 -->
      <g transform="translate(512.987159 544.664176)scale(0.15 -0.15)">
       <use xlink:href="#DejaVuSans-32"/>
       <use x="63.623047" xlink:href="#DejaVuSans-32"/>
      </g>
     </g>
    </g>
    <g id="xtick_24">
     <g id="line2d_24">
      <g>
       <use style="stroke:#000000;stroke-width:0.8;" x="542.052364" xlink:href="#m4d023de8c1" y="526.26652"/>
      </g>
     </g>
     <g id="text_24">
      <!-- 23 -->
      <g transform="translate(532.508614 544.664176)scale(0.15 -0.15)">
       <use xlink:href="#DejaVuSans-32"/>
       <use x="63.623047" xlink:href="#DejaVuSans-33"/>
      </g>
     </g>
    </g>
    <g id="xtick_25">
     <g id="line2d_25">
      <g>
       <use style="stroke:#000000;stroke-width:0.8;" x="561.573818" xlink:href="#m4d023de8c1" y="526.26652"/>
      </g>
     </g>
     <g id="text_25">
      <!-- 24 -->
      <g transform="translate(552.030068 544.664176)scale(0.15 -0.15)">
       <use xlink:href="#DejaVuSans-32"/>
       <use x="63.623047" xlink:href="#DejaVuSans-34"/>
      </g>
     </g>
    </g>
    <g id="xtick_26">
     <g id="line2d_26">
      <g>
       <use style="stroke:#000000;stroke-width:0.8;" x="581.095273" xlink:href="#m4d023de8c1" y="526.26652"/>
      </g>
     </g>
     <g id="text_26">
      <!-- 25 -->
      <g transform="translate(571.551523 544.664176)scale(0.15 -0.15)">
       <use xlink:href="#DejaVuSans-32"/>
       <use x="63.623047" xlink:href="#DejaVuSans-35"/>
      </g>
     </g>
    </g>
    <g id="xtick_27">
     <g id="line2d_27">
      <g>
       <use style="stroke:#000000;stroke-width:0.8;" x="600.616727" xlink:href="#m4d023de8c1" y="526.26652"/>
      </g>
     </g>
     <g id="text_27">
      <!-- 26 -->
      <g transform="translate(591.072977 544.664176)scale(0.15 -0.15)">
       <use xlink:href="#DejaVuSans-32"/>
       <use x="63.623047" xlink:href="#DejaVuSans-36"/>
      </g>
     </g>
    </g>
    <g id="xtick_28">
     <g id="line2d_28">
      <g>
       <use style="stroke:#000000;stroke-width:0.8;" x="620.138182" xlink:href="#m4d023de8c1" y="526.26652"/>
      </g>
     </g>
     <g id="text_28">
      <!-- 27 -->
      <g transform="translate(610.594432 544.664176)scale(0.15 -0.15)">
       <use xlink:href="#DejaVuSans-32"/>
       <use x="63.623047" xlink:href="#DejaVuSans-37"/>
      </g>
     </g>
    </g>
    <g id="xtick_29">
     <g id="line2d_29">
      <g>
       <use style="stroke:#000000;stroke-width:0.8;" x="639.659636" xlink:href="#m4d023de8c1" y="526.26652"/>
      </g>
     </g>
     <g id="text_29">
      <!-- 28 -->
      <g transform="translate(630.115886 544.664176)scale(0.15 -0.15)">
       <use xlink:href="#DejaVuSans-32"/>
       <use x="63.623047" xlink:href="#DejaVuSans-38"/>
      </g>
     </g>
    </g>
    <g id="xtick_30">
     <g id="line2d_30">
      <g>
       <use style="stroke:#000000;stroke-width:0.8;" x="659.181091" xlink:href="#m4d023de8c1" y="526.26652"/>
      </g>
     </g>
     <g id="text_30">
      <!-- 29 -->
      <g transform="translate(649.637341 544.664176)scale(0.15 -0.15)">
       <use xlink:href="#DejaVuSans-32"/>
       <use x="63.623047" xlink:href="#DejaVuSans-39"/>
      </g>
     </g>
    </g>
    <g id="xtick_31">
     <g id="line2d_31">
      <g>
       <use style="stroke:#000000;stroke-width:0.8;" x="678.702545" xlink:href="#m4d023de8c1" y="526.26652"/>
      </g>
     </g>
     <g id="text_31">
      <!-- 30 -->
      <g transform="translate(669.158795 544.664176)scale(0.15 -0.15)">
       <use xlink:href="#DejaVuSans-33"/>
       <use x="63.623047" xlink:href="#DejaVuSans-30"/>
      </g>
     </g>
    </g>
    <g id="xtick_32">
     <g id="line2d_32">
      <g>
       <use style="stroke:#000000;stroke-width:0.8;" x="698.224" xlink:href="#m4d023de8c1" y="526.26652"/>
      </g>
     </g>
     <g id="text_32">
      <!-- 31 -->
      <g transform="translate(688.68025 544.664176)scale(0.15 -0.15)">
       <use xlink:href="#DejaVuSans-33"/>
       <use x="63.623047" xlink:href="#DejaVuSans-31"/>
      </g>
     </g>
    </g>
    <g id="xtick_33">
     <g id="line2d_33">
      <g>
       <use style="stroke:#000000;stroke-width:0.8;" x="717.745455" xlink:href="#m4d023de8c1" y="526.26652"/>
      </g>
     </g>
     <g id="text_33">
      <!-- 32 -->
      <g transform="translate(708.201705 544.664176)scale(0.15 -0.15)">
       <use xlink:href="#DejaVuSans-33"/>
       <use x="63.623047" xlink:href="#DejaVuSans-32"/>
      </g>
     </g>
    </g>
    <g id="xtick_34">
     <g id="line2d_34">
      <g>
       <use style="stroke:#000000;stroke-width:0.8;" x="737.266909" xlink:href="#m4d023de8c1" y="526.26652"/>
      </g>
     </g>
     <g id="text_34">
      <!-- 33 -->
      <g transform="translate(727.723159 544.664176)scale(0.15 -0.15)">
       <use xlink:href="#DejaVuSans-33"/>
       <use x="63.623047" xlink:href="#DejaVuSans-33"/>
      </g>
     </g>
    </g>
    <g id="xtick_35">
     <g id="line2d_35">
      <g>
       <use style="stroke:#000000;stroke-width:0.8;" x="756.788364" xlink:href="#m4d023de8c1" y="526.26652"/>
      </g>
     </g>
     <g id="text_35">
      <!-- 34 -->
      <g transform="translate(747.244614 544.664176)scale(0.15 -0.15)">
       <use xlink:href="#DejaVuSans-33"/>
       <use x="63.623047" xlink:href="#DejaVuSans-34"/>
      </g>
     </g>
    </g>
    <g id="xtick_36">
     <g id="line2d_36">
      <g>
       <use style="stroke:#000000;stroke-width:0.8;" x="776.309818" xlink:href="#m4d023de8c1" y="526.26652"/>
      </g>
     </g>
     <g id="text_36">
      <!-- 35 -->
      <g transform="translate(766.766068 544.664176)scale(0.15 -0.15)">
       <use xlink:href="#DejaVuSans-33"/>
       <use x="63.623047" xlink:href="#DejaVuSans-35"/>
      </g>
     </g>
    </g>
    <g id="xtick_37">
     <g id="line2d_37">
      <g>
       <use style="stroke:#000000;stroke-width:0.8;" x="795.831273" xlink:href="#m4d023de8c1" y="526.26652"/>
      </g>
     </g>
     <g id="text_37">
      <!-- 36 -->
      <g transform="translate(786.287523 544.664176)scale(0.15 -0.15)">
       <use xlink:href="#DejaVuSans-33"/>
       <use x="63.623047" xlink:href="#DejaVuSans-36"/>
      </g>
     </g>
    </g>
    <g id="xtick_38">
     <g id="line2d_38">
      <g>
       <use style="stroke:#000000;stroke-width:0.8;" x="815.352727" xlink:href="#m4d023de8c1" y="526.26652"/>
      </g>
     </g>
     <g id="text_38">
      <!-- 37 -->
      <g transform="translate(805.808977 544.664176)scale(0.15 -0.15)">
       <use xlink:href="#DejaVuSans-33"/>
       <use x="63.623047" xlink:href="#DejaVuSans-37"/>
      </g>
     </g>
    </g>
    <g id="xtick_39">
     <g id="line2d_39">
      <g>
       <use style="stroke:#000000;stroke-width:0.8;" x="834.874182" xlink:href="#m4d023de8c1" y="526.26652"/>
      </g>
     </g>
     <g id="text_39">
      <!-- 38 -->
      <g transform="translate(825.330432 544.664176)scale(0.15 -0.15)">
       <use xlink:href="#DejaVuSans-33"/>
       <use x="63.623047" xlink:href="#DejaVuSans-38"/>
      </g>
     </g>
    </g>
    <g id="xtick_40">
     <g id="line2d_40">
      <g>
       <use style="stroke:#000000;stroke-width:0.8;" x="854.395636" xlink:href="#m4d023de8c1" y="526.26652"/>
      </g>
     </g>
     <g id="text_40">
      <!-- 39 -->
      <g transform="translate(844.851886 544.664176)scale(0.15 -0.15)">
       <use xlink:href="#DejaVuSans-33"/>
       <use x="63.623047" xlink:href="#DejaVuSans-39"/>
      </g>
     </g>
    </g>
    <g id="text_41">
     <!-- $t$ -->
     <g transform="translate(479.488 566.980583)scale(0.2 -0.2)">
      <defs>
       <path d="M 2706 3500 
L 2619 3053 
L 1472 3053 
L 1100 1153 
Q 1081 1047 1072 975 
Q 1063 903 1063 863 
Q 1063 663 1183 572 
Q 1303 481 1569 481 
L 2150 481 
L 2053 0 
L 1503 0 
Q 991 0 739 200 
Q 488 400 488 806 
Q 488 878 497 964 
Q 506 1050 525 1153 
L 897 3053 
L 409 3053 
L 500 3500 
L 978 3500 
L 1172 4494 
L 1747 4494 
L 1556 3500 
L 2706 3500 
z
" id="DejaVuSans-Oblique-74" transform="scale(0.015625)"/>
      </defs>
      <use transform="translate(0 0.78125)" xlink:href="#DejaVuSans-Oblique-74"/>
     </g>
    </g>
   </g>
   <g id="matplotlib.axis_2">
    <g id="ytick_1">
     <g id="line2d_41">
      <defs>
       <path d="M 0 0 
L -3.5 0 
" id="m622be5cc9a" style="stroke:#000000;stroke-width:0.8;"/>
      </defs>
      <g>
       <use style="stroke:#000000;stroke-width:0.8;" x="54.016" xlink:href="#m622be5cc9a" y="526.26652"/>
      </g>
     </g>
     <g id="text_42">
      <!-- 0.0 -->
      <g transform="translate(23.161313 531.965348)scale(0.15 -0.15)">
       <defs>
        <path d="M 684 794 
L 1344 794 
L 1344 0 
L 684 0 
L 684 794 
z
" id="DejaVuSans-2e" transform="scale(0.015625)"/>
       </defs>
       <use xlink:href="#DejaVuSans-30"/>
       <use x="63.623047" xlink:href="#DejaVuSans-2e"/>
       <use x="95.410156" xlink:href="#DejaVuSans-30"/>
      </g>
     </g>
    </g>
    <g id="ytick_2">
     <g id="line2d_42">
      <g>
       <use style="stroke:#000000;stroke-width:0.8;" x="54.016" xlink:href="#m622be5cc9a" y="426.692365"/>
      </g>
     </g>
     <g id="text_43">
      <!-- 0.2 -->
      <g transform="translate(23.161313 432.391193)scale(0.15 -0.15)">
       <use xlink:href="#DejaVuSans-30"/>
       <use x="63.623047" xlink:href="#DejaVuSans-2e"/>
       <use x="95.410156" xlink:href="#DejaVuSans-32"/>
      </g>
     </g>
    </g>
    <g id="ytick_3">
     <g id="line2d_43">
      <g>
       <use style="stroke:#000000;stroke-width:0.8;" x="54.016" xlink:href="#m622be5cc9a" y="327.11821"/>
      </g>
     </g>
     <g id="text_44">
      <!-- 0.4 -->
      <g transform="translate(23.161313 332.817038)scale(0.15 -0.15)">
       <use xlink:href="#DejaVuSans-30"/>
       <use x="63.623047" xlink:href="#DejaVuSans-2e"/>
       <use x="95.410156" xlink:href="#DejaVuSans-34"/>
      </g>
     </g>
    </g>
    <g id="ytick_4">
     <g id="line2d_44">
      <g>
       <use style="stroke:#000000;stroke-width:0.8;" x="54.016" xlink:href="#m622be5cc9a" y="227.544054"/>
      </g>
     </g>
     <g id="text_45">
      <!-- 0.6 -->
      <g transform="translate(23.161313 233.242883)scale(0.15 -0.15)">
       <use xlink:href="#DejaVuSans-30"/>
       <use x="63.623047" xlink:href="#DejaVuSans-2e"/>
       <use x="95.410156" xlink:href="#DejaVuSans-36"/>
      </g>
     </g>
    </g>
    <g id="ytick_5">
     <g id="line2d_45">
      <g>
       <use style="stroke:#000000;stroke-width:0.8;" x="54.016" xlink:href="#m622be5cc9a" y="127.969899"/>
      </g>
     </g>
     <g id="text_46">
      <!-- 0.8 -->
      <g transform="translate(23.161313 133.668727)scale(0.15 -0.15)">
       <use xlink:href="#DejaVuSans-30"/>
       <use x="63.623047" xlink:href="#DejaVuSans-2e"/>
       <use x="95.410156" xlink:href="#DejaVuSans-38"/>
      </g>
     </g>
    </g>
    <g id="ytick_6">
     <g id="line2d_46">
      <g>
       <use style="stroke:#000000;stroke-width:0.8;" x="54.016" xlink:href="#m622be5cc9a" y="28.395744"/>
      </g>
     </g>
     <g id="text_47">
      <!-- 1.0 -->
      <g transform="translate(23.161313 34.094572)scale(0.15 -0.15)">
       <use xlink:href="#DejaVuSans-31"/>
       <use x="63.623047" xlink:href="#DejaVuSans-2e"/>
       <use x="95.410156" xlink:href="#DejaVuSans-30"/>
      </g>
     </g>
    </g>
    <g id="text_48">
     <!-- $p(context)$ -->
     <g transform="translate(14.961313 329.431132)rotate(-90)scale(0.2 -0.2)">
      <defs>
       <path d="M 3175 2156 
Q 3175 2616 2975 2859 
Q 2775 3103 2400 3103 
Q 2144 3103 1911 2972 
Q 1678 2841 1497 2591 
Q 1319 2344 1212 1994 
Q 1106 1644 1106 1300 
Q 1106 863 1306 627 
Q 1506 391 1875 391 
Q 2147 391 2380 519 
Q 2613 647 2778 891 
Q 2956 1147 3065 1494 
Q 3175 1841 3175 2156 
z
M 1394 2969 
Q 1625 3272 1939 3428 
Q 2253 3584 2638 3584 
Q 3175 3584 3472 3232 
Q 3769 2881 3769 2247 
Q 3769 1728 3584 1258 
Q 3400 788 3053 416 
Q 2822 169 2531 39 
Q 2241 -91 1919 -91 
Q 1547 -91 1294 64 
Q 1041 219 916 525 
L 556 -1331 
L -19 -1331 
L 922 3500 
L 1497 3500 
L 1394 2969 
z
" id="DejaVuSans-Oblique-70" transform="scale(0.015625)"/>
       <path d="M 1984 4856 
Q 1566 4138 1362 3434 
Q 1159 2731 1159 2009 
Q 1159 1288 1364 580 
Q 1569 -128 1984 -844 
L 1484 -844 
Q 1016 -109 783 600 
Q 550 1309 550 2009 
Q 550 2706 781 3412 
Q 1013 4119 1484 4856 
L 1984 4856 
z
" id="DejaVuSans-28" transform="scale(0.015625)"/>
       <path d="M 3431 3366 
L 3316 2797 
Q 3109 2947 2876 3022 
Q 2644 3097 2394 3097 
Q 2119 3097 1870 3000 
Q 1622 2903 1453 2725 
Q 1184 2453 1037 2087 
Q 891 1722 891 1331 
Q 891 859 1127 628 
Q 1363 397 1844 397 
Q 2081 397 2348 469 
Q 2616 541 2906 684 
L 2797 116 
Q 2547 13 2283 -39 
Q 2019 -91 1741 -91 
Q 1044 -91 669 257 
Q 294 606 294 1253 
Q 294 1797 489 2255 
Q 684 2713 1069 3078 
Q 1331 3328 1684 3456 
Q 2038 3584 2456 3584 
Q 2700 3584 2940 3529 
Q 3181 3475 3431 3366 
z
" id="DejaVuSans-Oblique-63" transform="scale(0.015625)"/>
       <path d="M 1625 -91 
Q 1009 -91 651 289 
Q 294 669 294 1325 
Q 294 1706 417 2101 
Q 541 2497 738 2766 
Q 1047 3184 1428 3384 
Q 1809 3584 2291 3584 
Q 2888 3584 3255 3212 
Q 3622 2841 3622 2241 
Q 3622 1825 3500 1412 
Q 3378 1000 3181 728 
Q 2875 309 2494 109 
Q 2113 -91 1625 -91 
z
M 891 1344 
Q 891 869 1089 633 
Q 1288 397 1691 397 
Q 2269 397 2648 901 
Q 3028 1406 3028 2181 
Q 3028 2634 2825 2865 
Q 2622 3097 2228 3097 
Q 1903 3097 1650 2945 
Q 1397 2794 1197 2484 
Q 1050 2253 970 1956 
Q 891 1659 891 1344 
z
" id="DejaVuSans-Oblique-6f" transform="scale(0.015625)"/>
       <path d="M 3566 2113 
L 3156 0 
L 2578 0 
L 2988 2091 
Q 3016 2238 3031 2350 
Q 3047 2463 3047 2528 
Q 3047 2791 2881 2937 
Q 2716 3084 2419 3084 
Q 1956 3084 1622 2776 
Q 1288 2469 1184 1941 
L 800 0 
L 225 0 
L 903 3500 
L 1478 3500 
L 1363 2950 
Q 1603 3253 1940 3418 
Q 2278 3584 2650 3584 
Q 3113 3584 3367 3334 
Q 3622 3084 3622 2631 
Q 3622 2519 3608 2391 
Q 3594 2263 3566 2113 
z
" id="DejaVuSans-Oblique-6e" transform="scale(0.015625)"/>
       <path d="M 3078 2063 
Q 3088 2113 3092 2166 
Q 3097 2219 3097 2272 
Q 3097 2653 2873 2875 
Q 2650 3097 2266 3097 
Q 1838 3097 1509 2826 
Q 1181 2556 1013 2059 
L 3078 2063 
z
M 3578 1613 
L 903 1613 
Q 884 1494 878 1425 
Q 872 1356 872 1306 
Q 872 872 1139 634 
Q 1406 397 1894 397 
Q 2269 397 2603 481 
Q 2938 566 3225 728 
L 3116 159 
Q 2806 34 2476 -28 
Q 2147 -91 1806 -91 
Q 1078 -91 686 257 
Q 294 606 294 1247 
Q 294 1794 489 2264 
Q 684 2734 1063 3103 
Q 1306 3334 1642 3459 
Q 1978 3584 2356 3584 
Q 2950 3584 3301 3228 
Q 3653 2872 3653 2272 
Q 3653 2128 3634 1964 
Q 3616 1800 3578 1613 
z
" id="DejaVuSans-Oblique-65" transform="scale(0.015625)"/>
       <path d="M 3841 3500 
L 2234 1784 
L 3219 0 
L 2559 0 
L 1819 1388 
L 531 0 
L -166 0 
L 1556 1844 
L 641 3500 
L 1300 3500 
L 1972 2234 
L 3144 3500 
L 3841 3500 
z
" id="DejaVuSans-Oblique-78" transform="scale(0.015625)"/>
       <path d="M 513 4856 
L 1013 4856 
Q 1481 4119 1714 3412 
Q 1947 2706 1947 2009 
Q 1947 1309 1714 600 
Q 1481 -109 1013 -844 
L 513 -844 
Q 928 -128 1133 580 
Q 1338 1288 1338 2009 
Q 1338 2731 1133 3434 
Q 928 4138 513 4856 
z
" id="DejaVuSans-29" transform="scale(0.015625)"/>
      </defs>
      <use transform="translate(0 0.125)" xlink:href="#DejaVuSans-Oblique-70"/>
      <use transform="translate(63.476562 0.125)" xlink:href="#DejaVuSans-28"/>
      <use transform="translate(102.490234 0.125)" xlink:href="#DejaVuSans-Oblique-63"/>
      <use transform="translate(157.470703 0.125)" xlink:href="#DejaVuSans-Oblique-6f"/>
      <use transform="translate(218.652344 0.125)" xlink:href="#DejaVuSans-Oblique-6e"/>
      <use transform="translate(282.03125 0.125)" xlink:href="#DejaVuSans-Oblique-74"/>
      <use transform="translate(321.240234 0.125)" xlink:href="#DejaVuSans-Oblique-65"/>
      <use transform="translate(382.763672 0.125)" xlink:href="#DejaVuSans-Oblique-78"/>
      <use transform="translate(441.943359 0.125)" xlink:href="#DejaVuSans-Oblique-74"/>
      <use transform="translate(481.152344 0.125)" xlink:href="#DejaVuSans-29"/>
     </g>
    </g>
   </g>
   <g id="line2d_47">
    <path clip-path="url(#p1580d8fa9c)" d="M 93.058909 426.692365 
L 112.580364 367.389198 
L 132.101818 356.28329 
L 151.623273 459.017451 
L 171.144727 467.901228 
L 190.666182 425.77906 
L 210.187636 424.268144 
L 229.709091 424.090635 
L 249.230545 424.004836 
L 268.752 423.946629 
L 288.273455 423.903252 
L 307.794909 423.86946 
L 327.316364 423.842446 
L 346.837818 423.820455 
L 366.359273 423.802294 
L 385.880727 423.787112 
L 405.402182 423.774286 
L 424.923636 423.763349 
L 444.445091 423.753944 
L 463.966545 423.745797 
L 483.488 423.738692 
L 503.009455 423.732457 
L 522.530909 423.726955 
L 542.052364 423.722076 
L 561.573818 423.717728 
L 581.095273 423.713836 
L 600.616727 423.71034 
L 620.138182 423.707186 
L 639.659636 423.704332 
L 659.181091 423.701741 
L 678.702545 423.69938 
L 698.224 423.697224 
L 717.745455 423.69525 
L 737.266909 423.693437 
L 756.788364 423.691769 
L 776.309818 423.69023 
L 795.831273 423.688807 
L 815.352727 423.68749 
L 834.874182 423.686267 
L 854.395636 423.68513 
" style="fill:none;stroke:#0000ff;stroke-linecap:square;stroke-width:1.5;"/>
    <defs>
     <path d="M 0 3 
C 0.795609 3 1.55874 2.683901 2.12132 2.12132 
C 2.683901 1.55874 3 0.795609 3 0 
C 3 -0.795609 2.683901 -1.55874 2.12132 -2.12132 
C 1.55874 -2.683901 0.795609 -3 0 -3 
C -0.795609 -3 -1.55874 -2.683901 -2.12132 -2.12132 
C -2.683901 -1.55874 -3 -0.795609 -3 0 
C -3 0.795609 -2.683901 1.55874 -2.12132 2.12132 
C -1.55874 2.683901 -0.795609 3 0 3 
z
" id="mfde944a955" style="stroke:#0000ff;"/>
    </defs>
    <g clip-path="url(#p1580d8fa9c)">
     <use style="fill:#0000ff;stroke:#0000ff;" x="93.058909" xlink:href="#mfde944a955" y="426.692365"/>
     <use style="fill:#0000ff;stroke:#0000ff;" x="112.580364" xlink:href="#mfde944a955" y="367.389198"/>
     <use style="fill:#0000ff;stroke:#0000ff;" x="132.101818" xlink:href="#mfde944a955" y="356.28329"/>
     <use style="fill:#0000ff;stroke:#0000ff;" x="151.623273" xlink:href="#mfde944a955" y="459.017451"/>
     <use style="fill:#0000ff;stroke:#0000ff;" x="171.144727" xlink:href="#mfde944a955" y="467.901228"/>
     <use style="fill:#0000ff;stroke:#0000ff;" x="190.666182" xlink:href="#mfde944a955" y="425.77906"/>
     <use style="fill:#0000ff;stroke:#0000ff;" x="210.187636" xlink:href="#mfde944a955" y="424.268144"/>
     <use style="fill:#0000ff;stroke:#0000ff;" x="229.709091" xlink:href="#mfde944a955" y="424.090635"/>
     <use style="fill:#0000ff;stroke:#0000ff;" x="249.230545" xlink:href="#mfde944a955" y="424.004836"/>
     <use style="fill:#0000ff;stroke:#0000ff;" x="268.752" xlink:href="#mfde944a955" y="423.946629"/>
     <use style="fill:#0000ff;stroke:#0000ff;" x="288.273455" xlink:href="#mfde944a955" y="423.903252"/>
     <use style="fill:#0000ff;stroke:#0000ff;" x="307.794909" xlink:href="#mfde944a955" y="423.86946"/>
     <use style="fill:#0000ff;stroke:#0000ff;" x="327.316364" xlink:href="#mfde944a955" y="423.842446"/>
     <use style="fill:#0000ff;stroke:#0000ff;" x="346.837818" xlink:href="#mfde944a955" y="423.820455"/>
     <use style="fill:#0000ff;stroke:#0000ff;" x="366.359273" xlink:href="#mfde944a955" y="423.802294"/>
     <use style="fill:#0000ff;stroke:#0000ff;" x="385.880727" xlink:href="#mfde944a955" y="423.787112"/>
     <use style="fill:#0000ff;stroke:#0000ff;" x="405.402182" xlink:href="#mfde944a955" y="423.774286"/>
     <use style="fill:#0000ff;stroke:#0000ff;" x="424.923636" xlink:href="#mfde944a955" y="423.763349"/>
     <use style="fill:#0000ff;stroke:#0000ff;" x="444.445091" xlink:href="#mfde944a955" y="423.753944"/>
     <use style="fill:#0000ff;stroke:#0000ff;" x="463.966545" xlink:href="#mfde944a955" y="423.745797"/>
     <use style="fill:#0000ff;stroke:#0000ff;" x="483.488" xlink:href="#mfde944a955" y="423.738692"/>
     <use style="fill:#0000ff;stroke:#0000ff;" x="503.009455" xlink:href="#mfde944a955" y="423.732457"/>
     <use style="fill:#0000ff;stroke:#0000ff;" x="522.530909" xlink:href="#mfde944a955" y="423.726955"/>
     <use style="fill:#0000ff;stroke:#0000ff;" x="542.052364" xlink:href="#mfde944a955" y="423.722076"/>
     <use style="fill:#0000ff;stroke:#0000ff;" x="561.573818" xlink:href="#mfde944a955" y="423.717728"/>
     <use style="fill:#0000ff;stroke:#0000ff;" x="581.095273" xlink:href="#mfde944a955" y="423.713836"/>
     <use style="fill:#0000ff;stroke:#0000ff;" x="600.616727" xlink:href="#mfde944a955" y="423.71034"/>
     <use style="fill:#0000ff;stroke:#0000ff;" x="620.138182" xlink:href="#mfde944a955" y="423.707186"/>
     <use style="fill:#0000ff;stroke:#0000ff;" x="639.659636" xlink:href="#mfde944a955" y="423.704332"/>
     <use style="fill:#0000ff;stroke:#0000ff;" x="659.181091" xlink:href="#mfde944a955" y="423.701741"/>
     <use style="fill:#0000ff;stroke:#0000ff;" x="678.702545" xlink:href="#mfde944a955" y="423.69938"/>
     <use style="fill:#0000ff;stroke:#0000ff;" x="698.224" xlink:href="#mfde944a955" y="423.697224"/>
     <use style="fill:#0000ff;stroke:#0000ff;" x="717.745455" xlink:href="#mfde944a955" y="423.69525"/>
     <use style="fill:#0000ff;stroke:#0000ff;" x="737.266909" xlink:href="#mfde944a955" y="423.693437"/>
     <use style="fill:#0000ff;stroke:#0000ff;" x="756.788364" xlink:href="#mfde944a955" y="423.691769"/>
     <use style="fill:#0000ff;stroke:#0000ff;" x="776.309818" xlink:href="#mfde944a955" y="423.69023"/>
     <use style="fill:#0000ff;stroke:#0000ff;" x="795.831273" xlink:href="#mfde944a955" y="423.688807"/>
     <use style="fill:#0000ff;stroke:#0000ff;" x="815.352727" xlink:href="#mfde944a955" y="423.68749"/>
     <use style="fill:#0000ff;stroke:#0000ff;" x="834.874182" xlink:href="#mfde944a955" y="423.686267"/>
     <use style="fill:#0000ff;stroke:#0000ff;" x="854.395636" xlink:href="#mfde944a955" y="423.68513"/>
    </g>
   </g>
   <g id="line2d_48">
    <path clip-path="url(#p1580d8fa9c)" d="M 93.058909 127.969899 
L 112.580364 221.751652 
L 132.101818 253.472098 
L 151.623273 149.411871 
L 171.144727 131.307636 
L 190.666182 180.886647 
L 210.187636 187.999425 
L 229.709091 190.414836 
L 249.230545 191.543009 
L 268.752 192.205935 
L 288.273455 192.660975 
L 307.794909 193.00016 
L 327.316364 193.263867 
L 346.837818 193.474078 
L 366.359273 193.644666 
L 385.880727 193.785107 
L 405.402182 193.902154 
L 424.923636 194.000754 
L 444.445091 194.084607 
L 463.966545 194.156522 
L 483.488 194.218671 
L 503.009455 194.272749 
L 522.530909 194.320099 
L 542.052364 194.361796 
L 561.573818 194.398706 
L 581.095273 194.431536 
L 600.616727 194.460867 
L 620.138182 194.487181 
L 639.659636 194.510878 
L 659.181091 194.532293 
L 678.702545 194.551712 
L 698.224 194.569376 
L 717.745455 194.585489 
L 737.266909 194.600228 
L 756.788364 194.613746 
L 776.309818 194.626173 
L 795.831273 194.637625 
L 815.352727 194.6482 
L 834.874182 194.657987 
L 854.395636 194.66706 
" style="fill:none;stroke:#ff0000;stroke-linecap:square;stroke-width:1.5;"/>
    <defs>
     <path d="M 0 3 
C 0.795609 3 1.55874 2.683901 2.12132 2.12132 
C 2.683901 1.55874 3 0.795609 3 0 
C 3 -0.795609 2.683901 -1.55874 2.12132 -2.12132 
C 1.55874 -2.683901 0.795609 -3 0 -3 
C -0.795609 -3 -1.55874 -2.683901 -2.12132 -2.12132 
C -2.683901 -1.55874 -3 -0.795609 -3 0 
C -3 0.795609 -2.683901 1.55874 -2.12132 2.12132 
C -1.55874 2.683901 -0.795609 3 0 3 
z
" id="made792f94c" style="stroke:#ff0000;"/>
    </defs>
    <g clip-path="url(#p1580d8fa9c)">
     <use style="fill:#ff0000;stroke:#ff0000;" x="93.058909" xlink:href="#made792f94c" y="127.969899"/>
     <use style="fill:#ff0000;stroke:#ff0000;" x="112.580364" xlink:href="#made792f94c" y="221.751652"/>
     <use style="fill:#ff0000;stroke:#ff0000;" x="132.101818" xlink:href="#made792f94c" y="253.472098"/>
     <use style="fill:#ff0000;stroke:#ff0000;" x="151.623273" xlink:href="#made792f94c" y="149.411871"/>
     <use style="fill:#ff0000;stroke:#ff0000;" x="171.144727" xlink:href="#made792f94c" y="131.307636"/>
     <use style="fill:#ff0000;stroke:#ff0000;" x="190.666182" xlink:href="#made792f94c" y="180.886647"/>
     <use style="fill:#ff0000;stroke:#ff0000;" x="210.187636" xlink:href="#made792f94c" y="187.999425"/>
     <use style="fill:#ff0000;stroke:#ff0000;" x="229.709091" xlink:href="#made792f94c" y="190.414836"/>
     <use style="fill:#ff0000;stroke:#ff0000;" x="249.230545" xlink:href="#made792f94c" y="191.543009"/>
     <use style="fill:#ff0000;stroke:#ff0000;" x="268.752" xlink:href="#made792f94c" y="192.205935"/>
     <use style="fill:#ff0000;stroke:#ff0000;" x="288.273455" xlink:href="#made792f94c" y="192.660975"/>
     <use style="fill:#ff0000;stroke:#ff0000;" x="307.794909" xlink:href="#made792f94c" y="193.00016"/>
     <use style="fill:#ff0000;stroke:#ff0000;" x="327.316364" xlink:href="#made792f94c" y="193.263867"/>
     <use style="fill:#ff0000;stroke:#ff0000;" x="346.837818" xlink:href="#made792f94c" y="193.474078"/>
     <use style="fill:#ff0000;stroke:#ff0000;" x="366.359273" xlink:href="#made792f94c" y="193.644666"/>
     <use style="fill:#ff0000;stroke:#ff0000;" x="385.880727" xlink:href="#made792f94c" y="193.785107"/>
     <use style="fill:#ff0000;stroke:#ff0000;" x="405.402182" xlink:href="#made792f94c" y="193.902154"/>
     <use style="fill:#ff0000;stroke:#ff0000;" x="424.923636" xlink:href="#made792f94c" y="194.000754"/>
     <use style="fill:#ff0000;stroke:#ff0000;" x="444.445091" xlink:href="#made792f94c" y="194.084607"/>
     <use style="fill:#ff0000;stroke:#ff0000;" x="463.966545" xlink:href="#made792f94c" y="194.156522"/>
     <use style="fill:#ff0000;stroke:#ff0000;" x="483.488" xlink:href="#made792f94c" y="194.218671"/>
     <use style="fill:#ff0000;stroke:#ff0000;" x="503.009455" xlink:href="#made792f94c" y="194.272749"/>
     <use style="fill:#ff0000;stroke:#ff0000;" x="522.530909" xlink:href="#made792f94c" y="194.320099"/>
     <use style="fill:#ff0000;stroke:#ff0000;" x="542.052364" xlink:href="#made792f94c" y="194.361796"/>
     <use style="fill:#ff0000;stroke:#ff0000;" x="561.573818" xlink:href="#made792f94c" y="194.398706"/>
     <use style="fill:#ff0000;stroke:#ff0000;" x="581.095273" xlink:href="#made792f94c" y="194.431536"/>
     <use style="fill:#ff0000;stroke:#ff0000;" x="600.616727" xlink:href="#made792f94c" y="194.460867"/>
     <use style="fill:#ff0000;stroke:#ff0000;" x="620.138182" xlink:href="#made792f94c" y="194.487181"/>
     <use style="fill:#ff0000;stroke:#ff0000;" x="639.659636" xlink:href="#made792f94c" y="194.510878"/>
     <use style="fill:#ff0000;stroke:#ff0000;" x="659.181091" xlink:href="#made792f94c" y="194.532293"/>
     <use style="fill:#ff0000;stroke:#ff0000;" x="678.702545" xlink:href="#made792f94c" y="194.551712"/>
     <use style="fill:#ff0000;stroke:#ff0000;" x="698.224" xlink:href="#made792f94c" y="194.569376"/>
     <use style="fill:#ff0000;stroke:#ff0000;" x="717.745455" xlink:href="#made792f94c" y="194.585489"/>
     <use style="fill:#ff0000;stroke:#ff0000;" x="737.266909" xlink:href="#made792f94c" y="194.600228"/>
     <use style="fill:#ff0000;stroke:#ff0000;" x="756.788364" xlink:href="#made792f94c" y="194.613746"/>
     <use style="fill:#ff0000;stroke:#ff0000;" x="776.309818" xlink:href="#made792f94c" y="194.626173"/>
     <use style="fill:#ff0000;stroke:#ff0000;" x="795.831273" xlink:href="#made792f94c" y="194.637625"/>
     <use style="fill:#ff0000;stroke:#ff0000;" x="815.352727" xlink:href="#made792f94c" y="194.6482"/>
     <use style="fill:#ff0000;stroke:#ff0000;" x="834.874182" xlink:href="#made792f94c" y="194.657987"/>
     <use style="fill:#ff0000;stroke:#ff0000;" x="854.395636" xlink:href="#made792f94c" y="194.66706"/>
    </g>
   </g>
   <g id="line2d_49">
    <path clip-path="url(#p1580d8fa9c)" d="M 93.058909 526.26652 
L 112.580364 491.787934 
L 132.101818 471.173396 
L 151.623273 472.499463 
L 171.144727 481.71992 
L 190.666182 474.263078 
L 210.187636 468.661215 
L 229.709091 466.423313 
L 249.230545 465.380939 
L 268.752 464.776219 
L 288.273455 464.364557 
L 307.794909 464.059165 
L 327.316364 463.822472 
L 346.837818 463.634251 
L 366.359273 463.481824 
L 385.880727 463.356565 
L 405.402182 463.252344 
L 424.923636 463.164681 
L 444.445091 463.090233 
L 463.966545 463.026464 
L 483.488 462.971421 
L 503.009455 462.923578 
L 522.530909 462.88173 
L 542.052364 462.844913 
L 561.573818 462.812351 
L 581.095273 462.783412 
L 600.616727 462.757577 
L 620.138182 462.734417 
L 639.659636 462.713574 
L 659.181091 462.69475 
L 678.702545 462.677691 
L 698.224 462.662184 
L 717.745455 462.648045 
L 737.266909 462.635119 
L 756.788364 462.623269 
L 776.309818 462.612381 
L 795.831273 462.602352 
L 815.352727 462.593094 
L 834.874182 462.584531 
L 854.395636 462.576594 
" style="fill:none;stroke:#808080;stroke-linecap:square;stroke-width:1.5;"/>
    <defs>
     <path d="M 0 3 
C 0.795609 3 1.55874 2.683901 2.12132 2.12132 
C 2.683901 1.55874 3 0.795609 3 0 
C 3 -0.795609 2.683901 -1.55874 2.12132 -2.12132 
C 1.55874 -2.683901 0.795609 -3 0 -3 
C -0.795609 -3 -1.55874 -2.683901 -2.12132 -2.12132 
C -2.683901 -1.55874 -3 -0.795609 -3 0 
C -3 0.795609 -2.683901 1.55874 -2.12132 2.12132 
C -1.55874 2.683901 -0.795609 3 0 3 
z
" id="m70a2983082" style="stroke:#808080;"/>
    </defs>
    <g clip-path="url(#p1580d8fa9c)">
     <use style="fill:#808080;stroke:#808080;" x="93.058909" xlink:href="#m70a2983082" y="526.26652"/>
     <use style="fill:#808080;stroke:#808080;" x="112.580364" xlink:href="#m70a2983082" y="491.787934"/>
     <use style="fill:#808080;stroke:#808080;" x="132.101818" xlink:href="#m70a2983082" y="471.173396"/>
     <use style="fill:#808080;stroke:#808080;" x="151.623273" xlink:href="#m70a2983082" y="472.499463"/>
     <use style="fill:#808080;stroke:#808080;" x="171.144727" xlink:href="#m70a2983082" y="481.71992"/>
     <use style="fill:#808080;stroke:#808080;" x="190.666182" xlink:href="#m70a2983082" y="474.263078"/>
     <use style="fill:#808080;stroke:#808080;" x="210.187636" xlink:href="#m70a2983082" y="468.661215"/>
     <use style="fill:#808080;stroke:#808080;" x="229.709091" xlink:href="#m70a2983082" y="466.423313"/>
     <use style="fill:#808080;stroke:#808080;" x="249.230545" xlink:href="#m70a2983082" y="465.380939"/>
     <use style="fill:#808080;stroke:#808080;" x="268.752" xlink:href="#m70a2983082" y="464.776219"/>
     <use style="fill:#808080;stroke:#808080;" x="288.273455" xlink:href="#m70a2983082" y="464.364557"/>
     <use style="fill:#808080;stroke:#808080;" x="307.794909" xlink:href="#m70a2983082" y="464.059165"/>
     <use style="fill:#808080;stroke:#808080;" x="327.316364" xlink:href="#m70a2983082" y="463.822472"/>
     <use style="fill:#808080;stroke:#808080;" x="346.837818" xlink:href="#m70a2983082" y="463.634251"/>
     <use style="fill:#808080;stroke:#808080;" x="366.359273" xlink:href="#m70a2983082" y="463.481824"/>
     <use style="fill:#808080;stroke:#808080;" x="385.880727" xlink:href="#m70a2983082" y="463.356565"/>
     <use style="fill:#808080;stroke:#808080;" x="405.402182" xlink:href="#m70a2983082" y="463.252344"/>
     <use style="fill:#808080;stroke:#808080;" x="424.923636" xlink:href="#m70a2983082" y="463.164681"/>
     <use style="fill:#808080;stroke:#808080;" x="444.445091" xlink:href="#m70a2983082" y="463.090233"/>
     <use style="fill:#808080;stroke:#808080;" x="463.966545" xlink:href="#m70a2983082" y="463.026464"/>
     <use style="fill:#808080;stroke:#808080;" x="483.488" xlink:href="#m70a2983082" y="462.971421"/>
     <use style="fill:#808080;stroke:#808080;" x="503.009455" xlink:href="#m70a2983082" y="462.923578"/>
     <use style="fill:#808080;stroke:#808080;" x="522.530909" xlink:href="#m70a2983082" y="462.88173"/>
     <use style="fill:#808080;stroke:#808080;" x="542.052364" xlink:href="#m70a2983082" y="462.844913"/>
     <use style="fill:#808080;stroke:#808080;" x="561.573818" xlink:href="#m70a2983082" y="462.812351"/>
     <use style="fill:#808080;stroke:#808080;" x="581.095273" xlink:href="#m70a2983082" y="462.783412"/>
     <use style="fill:#808080;stroke:#808080;" x="600.616727" xlink:href="#m70a2983082" y="462.757577"/>
     <use style="fill:#808080;stroke:#808080;" x="620.138182" xlink:href="#m70a2983082" y="462.734417"/>
     <use style="fill:#808080;stroke:#808080;" x="639.659636" xlink:href="#m70a2983082" y="462.713574"/>
     <use style="fill:#808080;stroke:#808080;" x="659.181091" xlink:href="#m70a2983082" y="462.69475"/>
     <use style="fill:#808080;stroke:#808080;" x="678.702545" xlink:href="#m70a2983082" y="462.677691"/>
     <use style="fill:#808080;stroke:#808080;" x="698.224" xlink:href="#m70a2983082" y="462.662184"/>
     <use style="fill:#808080;stroke:#808080;" x="717.745455" xlink:href="#m70a2983082" y="462.648045"/>
     <use style="fill:#808080;stroke:#808080;" x="737.266909" xlink:href="#m70a2983082" y="462.635119"/>
     <use style="fill:#808080;stroke:#808080;" x="756.788364" xlink:href="#m70a2983082" y="462.623269"/>
     <use style="fill:#808080;stroke:#808080;" x="776.309818" xlink:href="#m70a2983082" y="462.612381"/>
     <use style="fill:#808080;stroke:#808080;" x="795.831273" xlink:href="#m70a2983082" y="462.602352"/>
     <use style="fill:#808080;stroke:#808080;" x="815.352727" xlink:href="#m70a2983082" y="462.593094"/>
     <use style="fill:#808080;stroke:#808080;" x="834.874182" xlink:href="#m70a2983082" y="462.584531"/>
     <use style="fill:#808080;stroke:#808080;" x="854.395636" xlink:href="#m70a2983082" y="462.576594"/>
    </g>
   </g>
   <g id="patch_5">
    <path d="M 54.016 526.26652 
L 54.016 28.395744 
" style="fill:none;stroke:#000000;stroke-linecap:square;stroke-linejoin:miter;stroke-width:0.8;"/>
   </g>
   <g id="patch_6">
    <path d="M 912.96 526.26652 
L 912.96 28.395744 
" style="fill:none;stroke:#000000;stroke-linecap:square;stroke-linejoin:miter;stroke-width:0.8;"/>
   </g>
   <g id="patch_7">
    <path d="M 54.016 526.26652 
L 912.96 526.26652 
" style="fill:none;stroke:#000000;stroke-linecap:square;stroke-linejoin:miter;stroke-width:0.8;"/>
   </g>
   <g id="patch_8">
    <path d="M 54.016 28.395744 
L 912.96 28.395744 
" style="fill:none;stroke:#000000;stroke-linecap:square;stroke-linejoin:miter;stroke-width:0.8;"/>
   </g>
   <g id="text_49">
    <!-- Social anxiety: trauma-defeat -->
    <g transform="translate(298.486047 22.395744)scale(0.25 -0.25)">
     <defs>
      <path d="M 3425 4513 
L 3425 3897 
Q 3066 4069 2747 4153 
Q 2428 4238 2131 4238 
Q 1616 4238 1336 4038 
Q 1056 3838 1056 3469 
Q 1056 3159 1242 3001 
Q 1428 2844 1947 2747 
L 2328 2669 
Q 3034 2534 3370 2195 
Q 3706 1856 3706 1288 
Q 3706 609 3251 259 
Q 2797 -91 1919 -91 
Q 1588 -91 1214 -16 
Q 841 59 441 206 
L 441 856 
Q 825 641 1194 531 
Q 1563 422 1919 422 
Q 2459 422 2753 634 
Q 3047 847 3047 1241 
Q 3047 1584 2836 1778 
Q 2625 1972 2144 2069 
L 1759 2144 
Q 1053 2284 737 2584 
Q 422 2884 422 3419 
Q 422 4038 858 4394 
Q 1294 4750 2059 4750 
Q 2388 4750 2728 4690 
Q 3069 4631 3425 4513 
z
" id="DejaVuSans-53" transform="scale(0.015625)"/>
      <path d="M 1959 3097 
Q 1497 3097 1228 2736 
Q 959 2375 959 1747 
Q 959 1119 1226 758 
Q 1494 397 1959 397 
Q 2419 397 2687 759 
Q 2956 1122 2956 1747 
Q 2956 2369 2687 2733 
Q 2419 3097 1959 3097 
z
M 1959 3584 
Q 2709 3584 3137 3096 
Q 3566 2609 3566 1747 
Q 3566 888 3137 398 
Q 2709 -91 1959 -91 
Q 1206 -91 779 398 
Q 353 888 353 1747 
Q 353 2609 779 3096 
Q 1206 3584 1959 3584 
z
" id="DejaVuSans-6f" transform="scale(0.015625)"/>
      <path d="M 3122 3366 
L 3122 2828 
Q 2878 2963 2633 3030 
Q 2388 3097 2138 3097 
Q 1578 3097 1268 2742 
Q 959 2388 959 1747 
Q 959 1106 1268 751 
Q 1578 397 2138 397 
Q 2388 397 2633 464 
Q 2878 531 3122 666 
L 3122 134 
Q 2881 22 2623 -34 
Q 2366 -91 2075 -91 
Q 1284 -91 818 406 
Q 353 903 353 1747 
Q 353 2603 823 3093 
Q 1294 3584 2113 3584 
Q 2378 3584 2631 3529 
Q 2884 3475 3122 3366 
z
" id="DejaVuSans-63" transform="scale(0.015625)"/>
      <path d="M 603 3500 
L 1178 3500 
L 1178 0 
L 603 0 
L 603 3500 
z
M 603 4863 
L 1178 4863 
L 1178 4134 
L 603 4134 
L 603 4863 
z
" id="DejaVuSans-69" transform="scale(0.015625)"/>
      <path d="M 2194 1759 
Q 1497 1759 1228 1600 
Q 959 1441 959 1056 
Q 959 750 1161 570 
Q 1363 391 1709 391 
Q 2188 391 2477 730 
Q 2766 1069 2766 1631 
L 2766 1759 
L 2194 1759 
z
M 3341 1997 
L 3341 0 
L 2766 0 
L 2766 531 
Q 2569 213 2275 61 
Q 1981 -91 1556 -91 
Q 1019 -91 701 211 
Q 384 513 384 1019 
Q 384 1609 779 1909 
Q 1175 2209 1959 2209 
L 2766 2209 
L 2766 2266 
Q 2766 2663 2505 2880 
Q 2244 3097 1772 3097 
Q 1472 3097 1187 3025 
Q 903 2953 641 2809 
L 641 3341 
Q 956 3463 1253 3523 
Q 1550 3584 1831 3584 
Q 2591 3584 2966 3190 
Q 3341 2797 3341 1997 
z
" id="DejaVuSans-61" transform="scale(0.015625)"/>
      <path d="M 603 4863 
L 1178 4863 
L 1178 0 
L 603 0 
L 603 4863 
z
" id="DejaVuSans-6c" transform="scale(0.015625)"/>
      <path id="DejaVuSans-20" transform="scale(0.015625)"/>
      <path d="M 3513 2113 
L 3513 0 
L 2938 0 
L 2938 2094 
Q 2938 2591 2744 2837 
Q 2550 3084 2163 3084 
Q 1697 3084 1428 2787 
Q 1159 2491 1159 1978 
L 1159 0 
L 581 0 
L 581 3500 
L 1159 3500 
L 1159 2956 
Q 1366 3272 1645 3428 
Q 1925 3584 2291 3584 
Q 2894 3584 3203 3211 
Q 3513 2838 3513 2113 
z
" id="DejaVuSans-6e" transform="scale(0.015625)"/>
      <path d="M 3513 3500 
L 2247 1797 
L 3578 0 
L 2900 0 
L 1881 1375 
L 863 0 
L 184 0 
L 1544 1831 
L 300 3500 
L 978 3500 
L 1906 2253 
L 2834 3500 
L 3513 3500 
z
" id="DejaVuSans-78" transform="scale(0.015625)"/>
      <path d="M 3597 1894 
L 3597 1613 
L 953 1613 
Q 991 1019 1311 708 
Q 1631 397 2203 397 
Q 2534 397 2845 478 
Q 3156 559 3463 722 
L 3463 178 
Q 3153 47 2828 -22 
Q 2503 -91 2169 -91 
Q 1331 -91 842 396 
Q 353 884 353 1716 
Q 353 2575 817 3079 
Q 1281 3584 2069 3584 
Q 2775 3584 3186 3129 
Q 3597 2675 3597 1894 
z
M 3022 2063 
Q 3016 2534 2758 2815 
Q 2500 3097 2075 3097 
Q 1594 3097 1305 2825 
Q 1016 2553 972 2059 
L 3022 2063 
z
" id="DejaVuSans-65" transform="scale(0.015625)"/>
      <path d="M 1172 4494 
L 1172 3500 
L 2356 3500 
L 2356 3053 
L 1172 3053 
L 1172 1153 
Q 1172 725 1289 603 
Q 1406 481 1766 481 
L 2356 481 
L 2356 0 
L 1766 0 
Q 1100 0 847 248 
Q 594 497 594 1153 
L 594 3053 
L 172 3053 
L 172 3500 
L 594 3500 
L 594 4494 
L 1172 4494 
z
" id="DejaVuSans-74" transform="scale(0.015625)"/>
      <path d="M 2059 -325 
Q 1816 -950 1584 -1140 
Q 1353 -1331 966 -1331 
L 506 -1331 
L 506 -850 
L 844 -850 
Q 1081 -850 1212 -737 
Q 1344 -625 1503 -206 
L 1606 56 
L 191 3500 
L 800 3500 
L 1894 763 
L 2988 3500 
L 3597 3500 
L 2059 -325 
z
" id="DejaVuSans-79" transform="scale(0.015625)"/>
      <path d="M 750 794 
L 1409 794 
L 1409 0 
L 750 0 
L 750 794 
z
M 750 3309 
L 1409 3309 
L 1409 2516 
L 750 2516 
L 750 3309 
z
" id="DejaVuSans-3a" transform="scale(0.015625)"/>
      <path d="M 2631 2963 
Q 2534 3019 2420 3045 
Q 2306 3072 2169 3072 
Q 1681 3072 1420 2755 
Q 1159 2438 1159 1844 
L 1159 0 
L 581 0 
L 581 3500 
L 1159 3500 
L 1159 2956 
Q 1341 3275 1631 3429 
Q 1922 3584 2338 3584 
Q 2397 3584 2469 3576 
Q 2541 3569 2628 3553 
L 2631 2963 
z
" id="DejaVuSans-72" transform="scale(0.015625)"/>
      <path d="M 544 1381 
L 544 3500 
L 1119 3500 
L 1119 1403 
Q 1119 906 1312 657 
Q 1506 409 1894 409 
Q 2359 409 2629 706 
Q 2900 1003 2900 1516 
L 2900 3500 
L 3475 3500 
L 3475 0 
L 2900 0 
L 2900 538 
Q 2691 219 2414 64 
Q 2138 -91 1772 -91 
Q 1169 -91 856 284 
Q 544 659 544 1381 
z
M 1991 3584 
L 1991 3584 
z
" id="DejaVuSans-75" transform="scale(0.015625)"/>
      <path d="M 3328 2828 
Q 3544 3216 3844 3400 
Q 4144 3584 4550 3584 
Q 5097 3584 5394 3201 
Q 5691 2819 5691 2113 
L 5691 0 
L 5113 0 
L 5113 2094 
Q 5113 2597 4934 2840 
Q 4756 3084 4391 3084 
Q 3944 3084 3684 2787 
Q 3425 2491 3425 1978 
L 3425 0 
L 2847 0 
L 2847 2094 
Q 2847 2600 2669 2842 
Q 2491 3084 2119 3084 
Q 1678 3084 1418 2786 
Q 1159 2488 1159 1978 
L 1159 0 
L 581 0 
L 581 3500 
L 1159 3500 
L 1159 2956 
Q 1356 3278 1631 3431 
Q 1906 3584 2284 3584 
Q 2666 3584 2933 3390 
Q 3200 3197 3328 2828 
z
" id="DejaVuSans-6d" transform="scale(0.015625)"/>
      <path d="M 313 2009 
L 1997 2009 
L 1997 1497 
L 313 1497 
L 313 2009 
z
" id="DejaVuSans-2d" transform="scale(0.015625)"/>
      <path d="M 2906 2969 
L 2906 4863 
L 3481 4863 
L 3481 0 
L 2906 0 
L 2906 525 
Q 2725 213 2448 61 
Q 2172 -91 1784 -91 
Q 1150 -91 751 415 
Q 353 922 353 1747 
Q 353 2572 751 3078 
Q 1150 3584 1784 3584 
Q 2172 3584 2448 3432 
Q 2725 3281 2906 2969 
z
M 947 1747 
Q 947 1113 1208 752 
Q 1469 391 1925 391 
Q 2381 391 2643 752 
Q 2906 1113 2906 1747 
Q 2906 2381 2643 2742 
Q 2381 3103 1925 3103 
Q 1469 3103 1208 2742 
Q 947 2381 947 1747 
z
" id="DejaVuSans-64" transform="scale(0.015625)"/>
      <path d="M 2375 4863 
L 2375 4384 
L 1825 4384 
Q 1516 4384 1395 4259 
Q 1275 4134 1275 3809 
L 1275 3500 
L 2222 3500 
L 2222 3053 
L 1275 3053 
L 1275 0 
L 697 0 
L 697 3053 
L 147 3053 
L 147 3500 
L 697 3500 
L 697 3744 
Q 697 4328 969 4595 
Q 1241 4863 1831 4863 
L 2375 4863 
z
" id="DejaVuSans-66" transform="scale(0.015625)"/>
     </defs>
     <use xlink:href="#DejaVuSans-53"/>
     <use x="63.476562" xlink:href="#DejaVuSans-6f"/>
     <use x="124.658203" xlink:href="#DejaVuSans-63"/>
     <use x="179.638672" xlink:href="#DejaVuSans-69"/>
     <use x="207.421875" xlink:href="#DejaVuSans-61"/>
     <use x="268.701172" xlink:href="#DejaVuSans-6c"/>
     <use x="296.484375" xlink:href="#DejaVuSans-20"/>
     <use x="328.271484" xlink:href="#DejaVuSans-61"/>
     <use x="389.550781" xlink:href="#DejaVuSans-6e"/>
     <use x="452.929688" xlink:href="#DejaVuSans-78"/>
     <use x="512.109375" xlink:href="#DejaVuSans-69"/>
     <use x="539.892578" xlink:href="#DejaVuSans-65"/>
     <use x="601.416016" xlink:href="#DejaVuSans-74"/>
     <use x="640.625" xlink:href="#DejaVuSans-79"/>
     <use x="692.554688" xlink:href="#DejaVuSans-3a"/>
     <use x="726.246094" xlink:href="#DejaVuSans-20"/>
     <use x="758.033203" xlink:href="#DejaVuSans-74"/>
     <use x="797.242188" xlink:href="#DejaVuSans-72"/>
     <use x="838.355469" xlink:href="#DejaVuSans-61"/>
     <use x="899.634766" xlink:href="#DejaVuSans-75"/>
     <use x="963.013672" xlink:href="#DejaVuSans-6d"/>
     <use x="1060.425781" xlink:href="#DejaVuSans-61"/>
     <use x="1121.705078" xlink:href="#DejaVuSans-2d"/>
     <use x="1157.789062" xlink:href="#DejaVuSans-64"/>
     <use x="1221.265625" xlink:href="#DejaVuSans-65"/>
     <use x="1282.789062" xlink:href="#DejaVuSans-66"/>
     <use x="1317.994141" xlink:href="#DejaVuSans-65"/>
     <use x="1379.517578" xlink:href="#DejaVuSans-61"/>
     <use x="1440.796875" xlink:href="#DejaVuSans-74"/>
    </g>
   </g>
   <g id="legend_1">
    <g id="patch_9">
     <path d="M 803.108438 124.464494 
L 905.96 124.464494 
Q 907.96 124.464494 907.96 122.464494 
L 907.96 35.395744 
Q 907.96 33.395744 905.96 33.395744 
L 803.108438 33.395744 
Q 801.108438 33.395744 801.108438 35.395744 
L 801.108438 122.464494 
Q 801.108438 124.464494 803.108438 124.464494 
z
" style="fill:#ffffff;opacity:0.8;stroke:#cccccc;stroke-linejoin:miter;"/>
    </g>
    <g id="line2d_50">
     <path d="M 805.108438 41.494182 
L 825.108438 41.494182 
" style="fill:none;stroke:#0000ff;stroke-linecap:square;stroke-width:1.5;"/>
    </g>
    <g id="line2d_51">
     <g>
      <use style="fill:#0000ff;stroke:#0000ff;" x="815.108438" xlink:href="#mfde944a955" y="41.494182"/>
     </g>
    </g>
    <g id="text_50">
     <!-- cooperative -->
     <g transform="translate(833.108438 44.994182)scale(0.1 -0.1)">
      <defs>
       <path d="M 1159 525 
L 1159 -1331 
L 581 -1331 
L 581 3500 
L 1159 3500 
L 1159 2969 
Q 1341 3281 1617 3432 
Q 1894 3584 2278 3584 
Q 2916 3584 3314 3078 
Q 3713 2572 3713 1747 
Q 3713 922 3314 415 
Q 2916 -91 2278 -91 
Q 1894 -91 1617 61 
Q 1341 213 1159 525 
z
M 3116 1747 
Q 3116 2381 2855 2742 
Q 2594 3103 2138 3103 
Q 1681 3103 1420 2742 
Q 1159 2381 1159 1747 
Q 1159 1113 1420 752 
Q 1681 391 2138 391 
Q 2594 391 2855 752 
Q 3116 1113 3116 1747 
z
" id="DejaVuSans-70" transform="scale(0.015625)"/>
       <path d="M 191 3500 
L 800 3500 
L 1894 563 
L 2988 3500 
L 3597 3500 
L 2284 0 
L 1503 0 
L 191 3500 
z
" id="DejaVuSans-76" transform="scale(0.015625)"/>
      </defs>
      <use xlink:href="#DejaVuSans-63"/>
      <use x="54.980469" xlink:href="#DejaVuSans-6f"/>
      <use x="116.162109" xlink:href="#DejaVuSans-6f"/>
      <use x="177.34375" xlink:href="#DejaVuSans-70"/>
      <use x="240.820312" xlink:href="#DejaVuSans-65"/>
      <use x="302.34375" xlink:href="#DejaVuSans-72"/>
      <use x="343.457031" xlink:href="#DejaVuSans-61"/>
      <use x="404.736328" xlink:href="#DejaVuSans-74"/>
      <use x="443.945312" xlink:href="#DejaVuSans-69"/>
      <use x="471.728516" xlink:href="#DejaVuSans-76"/>
      <use x="530.908203" xlink:href="#DejaVuSans-65"/>
     </g>
    </g>
    <g id="line2d_52">
     <path d="M 805.108438 56.172307 
L 825.108438 56.172307 
" style="fill:none;stroke:#ff0000;stroke-linecap:square;stroke-width:1.5;"/>
    </g>
    <g id="line2d_53">
     <g>
      <use style="fill:#ff0000;stroke:#ff0000;" x="815.108438" xlink:href="#made792f94c" y="56.172307"/>
     </g>
    </g>
    <g id="text_51">
     <!-- hostile -->
     <g transform="translate(833.108438 59.672307)scale(0.1 -0.1)">
      <defs>
       <path d="M 3513 2113 
L 3513 0 
L 2938 0 
L 2938 2094 
Q 2938 2591 2744 2837 
Q 2550 3084 2163 3084 
Q 1697 3084 1428 2787 
Q 1159 2491 1159 1978 
L 1159 0 
L 581 0 
L 581 4863 
L 1159 4863 
L 1159 2956 
Q 1366 3272 1645 3428 
Q 1925 3584 2291 3584 
Q 2894 3584 3203 3211 
Q 3513 2838 3513 2113 
z
" id="DejaVuSans-68" transform="scale(0.015625)"/>
       <path d="M 2834 3397 
L 2834 2853 
Q 2591 2978 2328 3040 
Q 2066 3103 1784 3103 
Q 1356 3103 1142 2972 
Q 928 2841 928 2578 
Q 928 2378 1081 2264 
Q 1234 2150 1697 2047 
L 1894 2003 
Q 2506 1872 2764 1633 
Q 3022 1394 3022 966 
Q 3022 478 2636 193 
Q 2250 -91 1575 -91 
Q 1294 -91 989 -36 
Q 684 19 347 128 
L 347 722 
Q 666 556 975 473 
Q 1284 391 1588 391 
Q 1994 391 2212 530 
Q 2431 669 2431 922 
Q 2431 1156 2273 1281 
Q 2116 1406 1581 1522 
L 1381 1569 
Q 847 1681 609 1914 
Q 372 2147 372 2553 
Q 372 3047 722 3315 
Q 1072 3584 1716 3584 
Q 2034 3584 2315 3537 
Q 2597 3491 2834 3397 
z
" id="DejaVuSans-73" transform="scale(0.015625)"/>
      </defs>
      <use xlink:href="#DejaVuSans-68"/>
      <use x="63.378906" xlink:href="#DejaVuSans-6f"/>
      <use x="124.560547" xlink:href="#DejaVuSans-73"/>
      <use x="176.660156" xlink:href="#DejaVuSans-74"/>
      <use x="215.869141" xlink:href="#DejaVuSans-69"/>
      <use x="243.652344" xlink:href="#DejaVuSans-6c"/>
      <use x="271.435547" xlink:href="#DejaVuSans-65"/>
     </g>
    </g>
    <g id="line2d_54">
     <path d="M 805.108438 70.850432 
L 825.108438 70.850432 
" style="fill:none;stroke:#808080;stroke-linecap:square;stroke-width:1.5;"/>
    </g>
    <g id="line2d_55">
     <g>
      <use style="fill:#808080;stroke:#808080;" x="815.108438" xlink:href="#m70a2983082" y="70.850432"/>
     </g>
    </g>
    <g id="text_52">
     <!-- random -->
     <g transform="translate(833.108438 74.350432)scale(0.1 -0.1)">
      <use xlink:href="#DejaVuSans-72"/>
      <use x="41.113281" xlink:href="#DejaVuSans-61"/>
      <use x="102.392578" xlink:href="#DejaVuSans-6e"/>
      <use x="165.771484" xlink:href="#DejaVuSans-64"/>
      <use x="229.248047" xlink:href="#DejaVuSans-6f"/>
      <use x="290.429688" xlink:href="#DejaVuSans-6d"/>
     </g>
    </g>
    <g id="line2d_56">
     <path d="M 805.108438 85.528557 
L 825.108438 85.528557 
" style="fill:none;stroke:#ffffff;stroke-linecap:square;stroke-width:1.5;"/>
    </g>
    <g id="line2d_57">
     <defs>
      <path d="M -0 5 
L 5 -5 
L -5 -5 
z
" id="m926d3c3370" style="stroke:#ffffff;stroke-linejoin:miter;"/>
     </defs>
     <g>
      <use style="fill:#ff0000;stroke:#ffffff;stroke-linejoin:miter;" x="815.108438" xlink:href="#m926d3c3370" y="85.528557"/>
     </g>
    </g>
    <g id="text_53">
     <!-- invest - abuse -->
     <g transform="translate(833.108438 89.028557)scale(0.1 -0.1)">
      <defs>
       <path d="M 3116 1747 
Q 3116 2381 2855 2742 
Q 2594 3103 2138 3103 
Q 1681 3103 1420 2742 
Q 1159 2381 1159 1747 
Q 1159 1113 1420 752 
Q 1681 391 2138 391 
Q 2594 391 2855 752 
Q 3116 1113 3116 1747 
z
M 1159 2969 
Q 1341 3281 1617 3432 
Q 1894 3584 2278 3584 
Q 2916 3584 3314 3078 
Q 3713 2572 3713 1747 
Q 3713 922 3314 415 
Q 2916 -91 2278 -91 
Q 1894 -91 1617 61 
Q 1341 213 1159 525 
L 1159 0 
L 581 0 
L 581 4863 
L 1159 4863 
L 1159 2969 
z
" id="DejaVuSans-62" transform="scale(0.015625)"/>
      </defs>
      <use xlink:href="#DejaVuSans-69"/>
      <use x="27.783203" xlink:href="#DejaVuSans-6e"/>
      <use x="91.162109" xlink:href="#DejaVuSans-76"/>
      <use x="150.341797" xlink:href="#DejaVuSans-65"/>
      <use x="211.865234" xlink:href="#DejaVuSans-73"/>
      <use x="263.964844" xlink:href="#DejaVuSans-74"/>
      <use x="303.173828" xlink:href="#DejaVuSans-20"/>
      <use x="334.960938" xlink:href="#DejaVuSans-2d"/>
      <use x="371.044922" xlink:href="#DejaVuSans-20"/>
      <use x="402.832031" xlink:href="#DejaVuSans-61"/>
      <use x="464.111328" xlink:href="#DejaVuSans-62"/>
      <use x="527.587891" xlink:href="#DejaVuSans-75"/>
      <use x="590.966797" xlink:href="#DejaVuSans-73"/>
      <use x="643.066406" xlink:href="#DejaVuSans-65"/>
     </g>
    </g>
    <g id="line2d_58">
     <path d="M 805.108438 100.206682 
L 825.108438 100.206682 
" style="fill:none;stroke:#ffffff;stroke-linecap:square;stroke-width:1.5;"/>
    </g>
    <g id="line2d_59">
     <defs>
      <path d="M 0 -5 
L -5 5 
L 5 5 
z
" id="md97b5c4c32" style="stroke:#ffffff;stroke-linejoin:miter;"/>
     </defs>
     <g>
      <use style="fill:#0000ff;stroke:#ffffff;stroke-linejoin:miter;" x="815.108438" xlink:href="#md97b5c4c32" y="100.206682"/>
     </g>
    </g>
    <g id="text_54">
     <!-- invest - return -->
     <g transform="translate(833.108438 103.706682)scale(0.1 -0.1)">
      <use xlink:href="#DejaVuSans-69"/>
      <use x="27.783203" xlink:href="#DejaVuSans-6e"/>
      <use x="91.162109" xlink:href="#DejaVuSans-76"/>
      <use x="150.341797" xlink:href="#DejaVuSans-65"/>
      <use x="211.865234" xlink:href="#DejaVuSans-73"/>
      <use x="263.964844" xlink:href="#DejaVuSans-74"/>
      <use x="303.173828" xlink:href="#DejaVuSans-20"/>
      <use x="334.960938" xlink:href="#DejaVuSans-2d"/>
      <use x="371.044922" xlink:href="#DejaVuSans-20"/>
      <use x="402.832031" xlink:href="#DejaVuSans-72"/>
      <use x="441.695312" xlink:href="#DejaVuSans-65"/>
      <use x="503.21875" xlink:href="#DejaVuSans-74"/>
      <use x="542.427734" xlink:href="#DejaVuSans-75"/>
      <use x="605.806641" xlink:href="#DejaVuSans-72"/>
      <use x="645.169922" xlink:href="#DejaVuSans-6e"/>
     </g>
    </g>
    <g id="line2d_60">
     <path d="M 805.108438 114.884807 
L 825.108438 114.884807 
" style="fill:none;stroke:#ffffff;stroke-linecap:square;stroke-width:1.5;"/>
    </g>
    <g id="line2d_61">
     <defs>
      <path d="M -2.5 5 
L 0 2.5 
L 2.5 5 
L 5 2.5 
L 2.5 0 
L 5 -2.5 
L 2.5 -5 
L 0 -2.5 
L -2.5 -5 
L -5 -2.5 
L -2.5 0 
L -5 2.5 
z
" id="m06d7f58ab7" style="stroke:#ffffff;stroke-linejoin:miter;"/>
     </defs>
     <g>
      <use style="stroke:#ffffff;stroke-linejoin:miter;" x="815.108438" xlink:href="#m06d7f58ab7" y="114.884807"/>
     </g>
    </g>
    <g id="text_55">
     <!-- no invest -->
     <g transform="translate(833.108438 118.384807)scale(0.1 -0.1)">
      <use xlink:href="#DejaVuSans-6e"/>
      <use x="63.378906" xlink:href="#DejaVuSans-6f"/>
      <use x="124.560547" xlink:href="#DejaVuSans-20"/>
      <use x="156.347656" xlink:href="#DejaVuSans-69"/>
      <use x="184.130859" xlink:href="#DejaVuSans-6e"/>
      <use x="247.509766" xlink:href="#DejaVuSans-76"/>
      <use x="306.689453" xlink:href="#DejaVuSans-65"/>
      <use x="368.212891" xlink:href="#DejaVuSans-73"/>
      <use x="420.3125" xlink:href="#DejaVuSans-74"/>
     </g>
    </g>
   </g>
  </g>
 </g>
 <defs>
  <clipPath id="p1580d8fa9c">
   <rect height="497.870776" width="858.944" x="54.016" y="28.395744"/>
  </clipPath>
 </defs>
</svg>
