<?xml version="1.0" encoding="utf-8" standalone="no"?>
<!DOCTYPE svg PUBLIC "-//W3C//DTD SVG 1.1//EN"
  "http://www.w3.org/Graphics/SVG/1.1/DTD/svg11.dtd">
<svg height="720pt" version="1.1" viewBox="0 0 1152 720" width="1152pt" xmlns="http://www.w3.org/2000/svg" xmlns:xlink="http://www.w3.org/1999/xlink">
 <metadata>
  <rdf:RDF xmlns:cc="http://creativecommons.org/ns#" xmlns:dc="http://purl.org/dc/elements/1.1/" xmlns:rdf="http://www.w3.org/1999/02/22-rdf-syntax-ns#">
   <cc:Work>
    <dc:type rdf:resource="http://purl.org/dc/dcmitype/StillImage"/>
    <dc:date>2023-07-28T18:19:05.471598</dc:date>
    <dc:format>image/svg+xml</dc:format>
    <dc:creator>
     <cc:Agent>
      <dc:title>Matplotlib v3.4.3, https://matplotlib.org/</dc:title>
     </cc:Agent>
    </dc:creator>
   </cc:Work>
  </rdf:RDF>
 </metadata>
 <defs>
  <style type="text/css">*{stroke-linecap:butt;stroke-linejoin:round;}</style>
 </defs>
 <g id="figure_1">
  <g id="patch_1">
   <path d="M 0 720 
L 1152 720 
L 1152 0 
L 0 0 
z
" style="fill:#ffffff;"/>
  </g>
  <g id="axes_1">
   <g id="patch_2">
    <path d="M 144 640.8 
L 1036.8 640.8 
L 1036.8 86.4 
L 144 86.4 
z
" style="fill:#ffffff;"/>
   </g>
   <g id="PolyCollection_1">
    <defs>
     <path d="M 193.67188 -162.367773 
L 193.52812 -162.367773 
L 193.510432 -166.158152 
L 193.489466 -169.948531 
L 193.464894 -173.73891 
L 193.43642 -177.529289 
L 193.403799 -181.319668 
L 193.366854 -185.110047 
L 193.325492 -188.900426 
L 193.279721 -192.690804 
L 193.22966 -196.481183 
L 193.175556 -200.271562 
L 193.11778 -204.061941 
L 193.05683 -207.85232 
L 192.993327 -211.642699 
L 192.927993 -215.433078 
L 192.861638 -219.223457 
L 192.79513 -223.013836 
L 192.729362 -226.804215 
L 192.665216 -230.594594 
L 192.603526 -234.384973 
L 192.545037 -238.175352 
L 192.490364 -241.965731 
L 192.439964 -245.75611 
L 192.394101 -249.546488 
L 192.352826 -253.336867 
L 192.315968 -257.127246 
L 192.283129 -260.917625 
L 192.253695 -264.708004 
L 192.226856 -268.498383 
L 192.201636 -272.288762 
L 192.176931 -276.079141 
L 192.151558 -279.86952 
L 192.124297 -283.659899 
L 192.093947 -287.450278 
L 192.059371 -291.240657 
L 192.019538 -295.031036 
L 191.973555 -298.821415 
L 191.920698 -302.611794 
L 191.860423 -306.402173 
L 191.792372 -310.192551 
L 191.716369 -313.98293 
L 191.632406 -317.773309 
L 191.540629 -321.563688 
L 191.441315 -325.354067 
L 191.334853 -329.144446 
L 191.221723 -332.934825 
L 191.102488 -336.725204 
L 190.977775 -340.515583 
L 190.848283 -344.305962 
L 190.714773 -348.096341 
L 190.578081 -351.88672 
L 190.439126 -355.677099 
L 190.298912 -359.467478 
L 190.158541 -363.257857 
L 190.019214 -367.048236 
L 189.882231 -370.838614 
L 189.748984 -374.628993 
L 189.62095 -378.419372 
L 189.499669 -382.209751 
L 189.386728 -386.00013 
L 189.283736 -389.790509 
L 189.192299 -393.580888 
L 189.113987 -397.371267 
L 189.050315 -401.161646 
L 189.002705 -404.952025 
L 188.972459 -408.742404 
L 188.960732 -412.532783 
L 188.968498 -416.323162 
L 188.996518 -420.113541 
L 189.045311 -423.90392 
L 189.11512 -427.694298 
L 189.205885 -431.484677 
L 189.317217 -435.275056 
L 189.448377 -439.065435 
L 189.59827 -442.855814 
L 189.765441 -446.646193 
L 189.948089 -450.436572 
L 190.144097 -454.226951 
L 190.351071 -458.01733 
L 190.566395 -461.807709 
L 190.787303 -465.598088 
L 191.010951 -469.388467 
L 191.234499 -473.178846 
L 191.455198 -476.969225 
L 191.670465 -480.759604 
L 191.877958 -484.549983 
L 192.075632 -488.340361 
L 192.261791 -492.13074 
L 192.435114 -495.921119 
L 192.594664 -499.711498 
L 192.739894 -503.501877 
L 192.870615 -507.292256 
L 192.986975 -511.082635 
L 193.089409 -514.873014 
L 193.178592 -518.663393 
L 193.25539 -522.453772 
L 193.320799 -526.244151 
L 193.375903 -530.03453 
L 193.421822 -533.824909 
L 193.459671 -537.615288 
L 193.740329 -537.615288 
L 193.740329 -537.615288 
L 193.778178 -533.824909 
L 193.824097 -530.03453 
L 193.879201 -526.244151 
L 193.94461 -522.453772 
L 194.021408 -518.663393 
L 194.110591 -514.873014 
L 194.213025 -511.082635 
L 194.329385 -507.292256 
L 194.460106 -503.501877 
L 194.605336 -499.711498 
L 194.764886 -495.921119 
L 194.938209 -492.13074 
L 195.124368 -488.340361 
L 195.322042 -484.549983 
L 195.529535 -480.759604 
L 195.744802 -476.969225 
L 195.965501 -473.178846 
L 196.189049 -469.388467 
L 196.412697 -465.598088 
L 196.633605 -461.807709 
L 196.848929 -458.01733 
L 197.055903 -454.226951 
L 197.251911 -450.436572 
L 197.434559 -446.646193 
L 197.60173 -442.855814 
L 197.751623 -439.065435 
L 197.882783 -435.275056 
L 197.994115 -431.484677 
L 198.08488 -427.694298 
L 198.154689 -423.90392 
L 198.203482 -420.113541 
L 198.231502 -416.323162 
L 198.239268 -412.532783 
L 198.227541 -408.742404 
L 198.197295 -404.952025 
L 198.149685 -401.161646 
L 198.086013 -397.371267 
L 198.007701 -393.580888 
L 197.916264 -389.790509 
L 197.813272 -386.00013 
L 197.700331 -382.209751 
L 197.57905 -378.419372 
L 197.451016 -374.628993 
L 197.317769 -370.838614 
L 197.180786 -367.048236 
L 197.041459 -363.257857 
L 196.901088 -359.467478 
L 196.760874 -355.677099 
L 196.621919 -351.88672 
L 196.485227 -348.096341 
L 196.351717 -344.305962 
L 196.222225 -340.515583 
L 196.097512 -336.725204 
L 195.978277 -332.934825 
L 195.865147 -329.144446 
L 195.758685 -325.354067 
L 195.659371 -321.563688 
L 195.567594 -317.773309 
L 195.483631 -313.98293 
L 195.407628 -310.192551 
L 195.339577 -306.402173 
L 195.279302 -302.611794 
L 195.226445 -298.821415 
L 195.180462 -295.031036 
L 195.140629 -291.240657 
L 195.106053 -287.450278 
L 195.075703 -283.659899 
L 195.048442 -279.86952 
L 195.023069 -276.079141 
L 194.998364 -272.288762 
L 194.973144 -268.498383 
L 194.946305 -264.708004 
L 194.916871 -260.917625 
L 194.884032 -257.127246 
L 194.847174 -253.336867 
L 194.805899 -249.546488 
L 194.760036 -245.75611 
L 194.709636 -241.965731 
L 194.654963 -238.175352 
L 194.596474 -234.384973 
L 194.534784 -230.594594 
L 194.470638 -226.804215 
L 194.40487 -223.013836 
L 194.338362 -219.223457 
L 194.272007 -215.433078 
L 194.206673 -211.642699 
L 194.14317 -207.85232 
L 194.08222 -204.061941 
L 194.024444 -200.271562 
L 193.97034 -196.481183 
L 193.920279 -192.690804 
L 193.874508 -188.900426 
L 193.833146 -185.110047 
L 193.796201 -181.319668 
L 193.76358 -177.529289 
L 193.735106 -173.73891 
L 193.710534 -169.948531 
L 193.689568 -166.158152 
L 193.67188 -162.367773 
z
" id="mda47a6ccec" style="stroke:#484848;stroke-width:1.5;"/>
    </defs>
    <g clip-path="url(#p56c3efaba7)">
     <use style="fill:#c1505d;stroke:#484848;stroke-width:1.5;" x="0" xlink:href="#mda47a6ccec" y="720"/>
    </g>
   </g>
   <g id="PolyCollection_2">
    <defs>
     <path d="M 293.075797 -104.4 
L 292.524203 -104.4 
L 292.460703 -109.298656 
L 292.385942 -114.197311 
L 292.298768 -119.095967 
L 292.19811 -123.994623 
L 292.083033 -128.893279 
L 291.952793 -133.791934 
L 291.806901 -138.69059 
L 291.645185 -143.589246 
L 291.467849 -148.487901 
L 291.275526 -153.386557 
L 291.069322 -158.285213 
L 290.850844 -163.183869 
L 290.622215 -168.082524 
L 290.386063 -172.98118 
L 290.145495 -177.879836 
L 289.904043 -182.778491 
L 289.665591 -187.677147 
L 289.434277 -192.575803 
L 289.214379 -197.474458 
L 289.01019 -202.373114 
L 288.825874 -207.27177 
L 288.665331 -212.170426 
L 288.532056 -217.069081 
L 288.429016 -221.967737 
L 288.358536 -226.866393 
L 288.322213 -231.765048 
L 288.320857 -236.663704 
L 288.354454 -241.56236 
L 288.422172 -246.461016 
L 288.522392 -251.359671 
L 288.652765 -256.258327 
L 288.810307 -261.156983 
L 288.991501 -266.055638 
L 289.192425 -270.954294 
L 289.408887 -275.85295 
L 289.636561 -280.751606 
L 289.871122 -285.650261 
L 290.108366 -290.548917 
L 290.344328 -295.447573 
L 290.575369 -300.346228 
L 290.798249 -305.244884 
L 291.010182 -310.14354 
L 291.208859 -315.042196 
L 291.392462 -319.940851 
L 291.559652 -324.839507 
L 291.709546 -329.738163 
L 291.841681 -334.636818 
L 291.955964 -339.535474 
L 292.052628 -344.43413 
L 292.132175 -349.332785 
L 292.195327 -354.231441 
L 292.242978 -359.130097 
L 292.276149 -364.028753 
L 292.295955 -368.927408 
L 292.303569 -373.826064 
L 292.300205 -378.72472 
L 292.287095 -383.623375 
L 292.265482 -388.522031 
L 292.236608 -393.420687 
L 292.201714 -398.319343 
L 292.162032 -403.217998 
L 292.118787 -408.116654 
L 292.073191 -413.01531 
L 292.026443 -417.913965 
L 291.979718 -422.812621 
L 291.934158 -427.711277 
L 291.890864 -432.609933 
L 291.85088 -437.508588 
L 291.815175 -442.407244 
L 291.784625 -447.3059 
L 291.759998 -452.204555 
L 291.741934 -457.103211 
L 291.730929 -462.001867 
L 291.727323 -466.900523 
L 291.731289 -471.799178 
L 291.742829 -476.697834 
L 291.761775 -481.59649 
L 291.787792 -486.495145 
L 291.820394 -491.393801 
L 291.858955 -496.292457 
L 291.902734 -501.191113 
L 291.950899 -506.089768 
L 292.002553 -510.988424 
L 292.056767 -515.88708 
L 292.112602 -520.785735 
L 292.169144 -525.684391 
L 292.225524 -530.583047 
L 292.280945 -535.481702 
L 292.334696 -540.380358 
L 292.386167 -545.279014 
L 292.434858 -550.17767 
L 292.480381 -555.076325 
L 292.522463 -559.974981 
L 292.560936 -564.873637 
L 292.595733 -569.772292 
L 292.626874 -574.670948 
L 292.654456 -579.569604 
L 292.678639 -584.46826 
L 292.699627 -589.366915 
L 292.900373 -589.366915 
L 292.900373 -589.366915 
L 292.921361 -584.46826 
L 292.945544 -579.569604 
L 292.973126 -574.670948 
L 293.004267 -569.772292 
L 293.039064 -564.873637 
L 293.077537 -559.974981 
L 293.119619 -555.076325 
L 293.165142 -550.17767 
L 293.213833 -545.279014 
L 293.265304 -540.380358 
L 293.319055 -535.481702 
L 293.374476 -530.583047 
L 293.430856 -525.684391 
L 293.487398 -520.785735 
L 293.543233 -515.88708 
L 293.597447 -510.988424 
L 293.649101 -506.089768 
L 293.697266 -501.191113 
L 293.741045 -496.292457 
L 293.779606 -491.393801 
L 293.812208 -486.495145 
L 293.838225 -481.59649 
L 293.857171 -476.697834 
L 293.868711 -471.799178 
L 293.872677 -466.900523 
L 293.869071 -462.001867 
L 293.858066 -457.103211 
L 293.840002 -452.204555 
L 293.815375 -447.3059 
L 293.784825 -442.407244 
L 293.74912 -437.508588 
L 293.709136 -432.609933 
L 293.665842 -427.711277 
L 293.620282 -422.812621 
L 293.573557 -417.913965 
L 293.526809 -413.01531 
L 293.481213 -408.116654 
L 293.437968 -403.217998 
L 293.398286 -398.319343 
L 293.363392 -393.420687 
L 293.334518 -388.522031 
L 293.312905 -383.623375 
L 293.299795 -378.72472 
L 293.296431 -373.826064 
L 293.304045 -368.927408 
L 293.323851 -364.028753 
L 293.357022 -359.130097 
L 293.404673 -354.231441 
L 293.467825 -349.332785 
L 293.547372 -344.43413 
L 293.644036 -339.535474 
L 293.758319 -334.636818 
L 293.890454 -329.738163 
L 294.040348 -324.839507 
L 294.207538 -319.940851 
L 294.391141 -315.042196 
L 294.589818 -310.14354 
L 294.801751 -305.244884 
L 295.024631 -300.346228 
L 295.255672 -295.447573 
L 295.491634 -290.548917 
L 295.728878 -285.650261 
L 295.963439 -280.751606 
L 296.191113 -275.85295 
L 296.407575 -270.954294 
L 296.608499 -266.055638 
L 296.789693 -261.156983 
L 296.947235 -256.258327 
L 297.077608 -251.359671 
L 297.177828 -246.461016 
L 297.245546 -241.56236 
L 297.279143 -236.663704 
L 297.277787 -231.765048 
L 297.241464 -226.866393 
L 297.170984 -221.967737 
L 297.067944 -217.069081 
L 296.934669 -212.170426 
L 296.774126 -207.27177 
L 296.58981 -202.373114 
L 296.385621 -197.474458 
L 296.165723 -192.575803 
L 295.934409 -187.677147 
L 295.695957 -182.778491 
L 295.454505 -177.879836 
L 295.213937 -172.98118 
L 294.977785 -168.082524 
L 294.749156 -163.183869 
L 294.530678 -158.285213 
L 294.324474 -153.386557 
L 294.132151 -148.487901 
L 293.954815 -143.589246 
L 293.793099 -138.69059 
L 293.647207 -133.791934 
L 293.516967 -128.893279 
L 293.40189 -123.994623 
L 293.301232 -119.095967 
L 293.214058 -114.197311 
L 293.139297 -109.298656 
L 293.075797 -104.4 
z
" id="m1d20381e21" style="stroke:#484848;stroke-width:1.5;"/>
    </defs>
    <g clip-path="url(#p56c3efaba7)">
     <use style="fill:#de7959;stroke:#484848;stroke-width:1.5;" x="0" xlink:href="#m1d20381e21" y="720"/>
    </g>
   </g>
   <g id="PolyCollection_3">
    <defs>
     <path d="M 392.097165 -156.433382 
L 391.902835 -156.433382 
L 391.877174 -160.594805 
L 391.846269 -164.756228 
L 391.809474 -168.917651 
L 391.76617 -173.079074 
L 391.715794 -177.240497 
L 391.657869 -181.40192 
L 391.592042 -185.563343 
L 391.518113 -189.724766 
L 391.436066 -193.886189 
L 391.346097 -198.047612 
L 391.248631 -202.209035 
L 391.144332 -206.370458 
L 391.034103 -210.531881 
L 390.919076 -214.693304 
L 390.800588 -218.854727 
L 390.680142 -223.01615 
L 390.559371 -227.177573 
L 390.439978 -231.338996 
L 390.32368 -235.500419 
L 390.212147 -239.661842 
L 390.106939 -243.823265 
L 390.009447 -247.984688 
L 389.920841 -252.146111 
L 389.842025 -256.307534 
L 389.773597 -260.468957 
L 389.715828 -264.63038 
L 389.668646 -268.791803 
L 389.631635 -272.953226 
L 389.604041 -277.114649 
L 389.584796 -281.276072 
L 389.572545 -285.437495 
L 389.565686 -289.598918 
L 389.562415 -293.760341 
L 389.560782 -297.921764 
L 389.55875 -302.083187 
L 389.554258 -306.24461 
L 389.54529 -310.406033 
L 389.529943 -314.567456 
L 389.506498 -318.728879 
L 389.473484 -322.890302 
L 389.429744 -327.051725 
L 389.374492 -331.213148 
L 389.30736 -335.374571 
L 389.228441 -339.535994 
L 389.138314 -343.697417 
L 389.038055 -347.85884 
L 388.929238 -352.020263 
L 388.813912 -356.181686 
L 388.694562 -360.343109 
L 388.574054 -364.504532 
L 388.455557 -368.665955 
L 388.342451 -372.827378 
L 388.238219 -376.988801 
L 388.146325 -381.150224 
L 388.070089 -385.311647 
L 388.012552 -389.47307 
L 387.976355 -393.634493 
L 387.963618 -397.795916 
L 387.975846 -401.957339 
L 388.013851 -406.118762 
L 388.077707 -410.280185 
L 388.16674 -414.441608 
L 388.279546 -418.603031 
L 388.414051 -422.764454 
L 388.567599 -426.925877 
L 388.73707 -431.0873 
L 388.919017 -435.248723 
L 389.109813 -439.410146 
L 389.305807 -443.571569 
L 389.503469 -447.732992 
L 389.699524 -451.894415 
L 389.89106 -456.055838 
L 390.075613 -460.217261 
L 390.251218 -464.378684 
L 390.416433 -468.540107 
L 390.570326 -472.70153 
L 390.712441 -476.862953 
L 390.842742 -481.024376 
L 390.961541 -485.185799 
L 391.069415 -489.347222 
L 391.167126 -493.508646 
L 391.255542 -497.670069 
L 391.335567 -501.831492 
L 391.408083 -505.992915 
L 391.47391 -510.154338 
L 391.533774 -514.315761 
L 391.588295 -518.477184 
L 391.637985 -522.638607 
L 391.683254 -526.80003 
L 391.724426 -530.961453 
L 391.761758 -535.122876 
L 391.795458 -539.284299 
L 391.825705 -543.445722 
L 391.852667 -547.607145 
L 391.876509 -551.768568 
L 391.897409 -555.929991 
L 391.915554 -560.091414 
L 391.93115 -564.252837 
L 391.944412 -568.41426 
L 392.055588 -568.41426 
L 392.055588 -568.41426 
L 392.06885 -564.252837 
L 392.084446 -560.091414 
L 392.102591 -555.929991 
L 392.123491 -551.768568 
L 392.147333 -547.607145 
L 392.174295 -543.445722 
L 392.204542 -539.284299 
L 392.238242 -535.122876 
L 392.275574 -530.961453 
L 392.316746 -526.80003 
L 392.362015 -522.638607 
L 392.411705 -518.477184 
L 392.466226 -514.315761 
L 392.52609 -510.154338 
L 392.591917 -505.992915 
L 392.664433 -501.831492 
L 392.744458 -497.670069 
L 392.832874 -493.508646 
L 392.930585 -489.347222 
L 393.038459 -485.185799 
L 393.157258 -481.024376 
L 393.287559 -476.862953 
L 393.429674 -472.70153 
L 393.583567 -468.540107 
L 393.748782 -464.378684 
L 393.924387 -460.217261 
L 394.10894 -456.055838 
L 394.300476 -451.894415 
L 394.496531 -447.732992 
L 394.694193 -443.571569 
L 394.890187 -439.410146 
L 395.080983 -435.248723 
L 395.26293 -431.0873 
L 395.432401 -426.925877 
L 395.585949 -422.764454 
L 395.720454 -418.603031 
L 395.83326 -414.441608 
L 395.922293 -410.280185 
L 395.986149 -406.118762 
L 396.024154 -401.957339 
L 396.036382 -397.795916 
L 396.023645 -393.634493 
L 395.987448 -389.47307 
L 395.929911 -385.311647 
L 395.853675 -381.150224 
L 395.761781 -376.988801 
L 395.657549 -372.827378 
L 395.544443 -368.665955 
L 395.425946 -364.504532 
L 395.305438 -360.343109 
L 395.186088 -356.181686 
L 395.070762 -352.020263 
L 394.961945 -347.85884 
L 394.861686 -343.697417 
L 394.771559 -339.535994 
L 394.69264 -335.374571 
L 394.625508 -331.213148 
L 394.570256 -327.051725 
L 394.526516 -322.890302 
L 394.493502 -318.728879 
L 394.470057 -314.567456 
L 394.45471 -310.406033 
L 394.445742 -306.24461 
L 394.44125 -302.083187 
L 394.439218 -297.921764 
L 394.437585 -293.760341 
L 394.434314 -289.598918 
L 394.427455 -285.437495 
L 394.415204 -281.276072 
L 394.395959 -277.114649 
L 394.368365 -272.953226 
L 394.331354 -268.791803 
L 394.284172 -264.63038 
L 394.226403 -260.468957 
L 394.157975 -256.307534 
L 394.079159 -252.146111 
L 393.990553 -247.984688 
L 393.893061 -243.823265 
L 393.787853 -239.661842 
L 393.67632 -235.500419 
L 393.560022 -231.338996 
L 393.440629 -227.177573 
L 393.319858 -223.01615 
L 393.199412 -218.854727 
L 393.080924 -214.693304 
L 392.965897 -210.531881 
L 392.855668 -206.370458 
L 392.751369 -202.209035 
L 392.653903 -198.047612 
L 392.563934 -193.886189 
L 392.481887 -189.724766 
L 392.407958 -185.563343 
L 392.342131 -181.40192 
L 392.284206 -177.240497 
L 392.23383 -173.079074 
L 392.190526 -168.917651 
L 392.153731 -164.756228 
L 392.122826 -160.594805 
L 392.097165 -156.433382 
z
" id="m78e465bc05" style="stroke:#484848;stroke-width:1.5;"/>
    </defs>
    <g clip-path="url(#p56c3efaba7)">
     <use style="fill:#e9ad74;stroke:#484848;stroke-width:1.5;" x="0" xlink:href="#m78e465bc05" y="720"/>
    </g>
   </g>
   <g id="PolyCollection_4">
    <defs>
     <path d="M 590.671837 -122.663787 
L 590.128163 -122.663787 
L 590.071645 -127.570213 
L 590.00665 -132.47664 
L 589.932671 -137.383066 
L 589.849342 -142.289493 
L 589.756477 -147.195919 
L 589.654102 -152.102345 
L 589.542492 -157.008772 
L 589.422193 -161.915198 
L 589.294043 -166.821625 
L 589.159179 -171.728051 
L 589.019029 -176.634477 
L 588.875295 -181.540904 
L 588.729919 -186.44733 
L 588.585034 -191.353757 
L 588.442906 -196.260183 
L 588.305857 -201.166609 
L 588.176191 -206.073036 
L 588.056106 -210.979462 
L 587.947611 -215.885889 
L 587.852445 -220.792315 
L 587.772007 -225.698741 
L 587.707296 -230.605168 
L 587.65887 -235.511594 
L 587.626824 -240.41802 
L 587.610786 -245.324447 
L 587.609937 -250.230873 
L 587.623051 -255.1373 
L 587.648548 -260.043726 
L 587.684573 -264.950152 
L 587.729072 -269.856579 
L 587.779888 -274.763005 
L 587.834842 -279.669432 
L 587.89183 -284.575858 
L 587.948894 -289.482284 
L 588.004293 -294.388711 
L 588.056558 -299.295137 
L 588.104521 -304.201564 
L 588.147343 -309.10799 
L 588.18451 -314.014416 
L 588.215822 -318.920843 
L 588.241367 -323.827269 
L 588.261484 -328.733696 
L 588.276714 -333.640122 
L 588.287753 -338.546548 
L 588.295402 -343.452975 
L 588.300513 -348.359401 
L 588.30395 -353.265828 
L 588.30654 -358.172254 
L 588.309052 -363.07868 
L 588.312165 -367.985107 
L 588.316455 -372.891533 
L 588.32239 -377.79796 
L 588.330327 -382.704386 
L 588.34052 -387.610812 
L 588.353135 -392.517239 
L 588.368259 -397.423665 
L 588.385922 -402.330091 
L 588.406114 -407.236518 
L 588.428803 -412.142944 
L 588.453951 -417.049371 
L 588.481527 -421.955797 
L 588.511516 -426.862223 
L 588.543926 -431.76865 
L 588.578793 -436.675076 
L 588.616174 -441.581503 
L 588.656146 -446.487929 
L 588.698795 -451.394355 
L 588.744209 -456.300782 
L 588.792462 -461.207208 
L 588.8436 -466.113635 
L 588.897635 -471.020061 
L 588.954524 -475.926487 
L 589.014165 -480.832914 
L 589.076392 -485.73934 
L 589.140963 -490.645767 
L 589.207569 -495.552193 
L 589.275828 -500.458619 
L 589.345302 -505.365046 
L 589.415499 -510.271472 
L 589.485891 -515.177899 
L 589.555925 -520.084325 
L 589.625044 -524.990751 
L 589.692698 -529.897178 
L 589.758366 -534.803604 
L 589.821567 -539.71003 
L 589.881871 -544.616457 
L 589.938917 -549.522883 
L 589.992412 -554.42931 
L 590.042141 -559.335736 
L 590.087964 -564.242162 
L 590.129819 -569.148589 
L 590.167714 -574.055015 
L 590.201724 -578.961442 
L 590.231979 -583.867868 
L 590.258657 -588.774294 
L 590.281977 -593.680721 
L 590.302182 -598.587147 
L 590.319535 -603.493574 
L 590.334309 -608.4 
L 590.465691 -608.4 
L 590.465691 -608.4 
L 590.480465 -603.493574 
L 590.497818 -598.587147 
L 590.518023 -593.680721 
L 590.541343 -588.774294 
L 590.568021 -583.867868 
L 590.598276 -578.961442 
L 590.632286 -574.055015 
L 590.670181 -569.148589 
L 590.712036 -564.242162 
L 590.757859 -559.335736 
L 590.807588 -554.42931 
L 590.861083 -549.522883 
L 590.918129 -544.616457 
L 590.978433 -539.71003 
L 591.041634 -534.803604 
L 591.107302 -529.897178 
L 591.174956 -524.990751 
L 591.244075 -520.084325 
L 591.314109 -515.177899 
L 591.384501 -510.271472 
L 591.454698 -505.365046 
L 591.524172 -500.458619 
L 591.592431 -495.552193 
L 591.659037 -490.645767 
L 591.723608 -485.73934 
L 591.785835 -480.832914 
L 591.845476 -475.926487 
L 591.902365 -471.020061 
L 591.9564 -466.113635 
L 592.007538 -461.207208 
L 592.055791 -456.300782 
L 592.101205 -451.394355 
L 592.143854 -446.487929 
L 592.183826 -441.581503 
L 592.221207 -436.675076 
L 592.256074 -431.76865 
L 592.288484 -426.862223 
L 592.318473 -421.955797 
L 592.346049 -417.049371 
L 592.371197 -412.142944 
L 592.393886 -407.236518 
L 592.414078 -402.330091 
L 592.431741 -397.423665 
L 592.446865 -392.517239 
L 592.45948 -387.610812 
L 592.469673 -382.704386 
L 592.47761 -377.79796 
L 592.483545 -372.891533 
L 592.487835 -367.985107 
L 592.490948 -363.07868 
L 592.49346 -358.172254 
L 592.49605 -353.265828 
L 592.499487 -348.359401 
L 592.504598 -343.452975 
L 592.512247 -338.546548 
L 592.523286 -333.640122 
L 592.538516 -328.733696 
L 592.558633 -323.827269 
L 592.584178 -318.920843 
L 592.61549 -314.014416 
L 592.652657 -309.10799 
L 592.695479 -304.201564 
L 592.743442 -299.295137 
L 592.795707 -294.388711 
L 592.851106 -289.482284 
L 592.90817 -284.575858 
L 592.965158 -279.669432 
L 593.020112 -274.763005 
L 593.070928 -269.856579 
L 593.115427 -264.950152 
L 593.151452 -260.043726 
L 593.176949 -255.1373 
L 593.190063 -250.230873 
L 593.189214 -245.324447 
L 593.173176 -240.41802 
L 593.14113 -235.511594 
L 593.092704 -230.605168 
L 593.027993 -225.698741 
L 592.947555 -220.792315 
L 592.852389 -215.885889 
L 592.743894 -210.979462 
L 592.623809 -206.073036 
L 592.494143 -201.166609 
L 592.357094 -196.260183 
L 592.214966 -191.353757 
L 592.070081 -186.44733 
L 591.924705 -181.540904 
L 591.780971 -176.634477 
L 591.640821 -171.728051 
L 591.505957 -166.821625 
L 591.377807 -161.915198 
L 591.257508 -157.008772 
L 591.145898 -152.102345 
L 591.043523 -147.195919 
L 590.950658 -142.289493 
L 590.867329 -137.383066 
L 590.79335 -132.47664 
L 590.728355 -127.570213 
L 590.671837 -122.663787 
z
" id="m4c79bb67ae" style="stroke:#484848;stroke-width:1.5;"/>
    </defs>
    <g clip-path="url(#p56c3efaba7)">
     <use style="fill:#f7f7c6;stroke:#484848;stroke-width:1.5;" x="0" xlink:href="#m4c79bb67ae" y="720"/>
    </g>
   </g>
   <g id="PolyCollection_5">
    <defs>
     <path d="M 689.975087 -242.322394 
L 689.224913 -242.322394 
L 689.116311 -243.053373 
L 688.985733 -243.784353 
L 688.831412 -244.515332 
L 688.651974 -245.246311 
L 688.446413 -245.97729 
L 688.213943 -246.708269 
L 687.953697 -247.439248 
L 687.664268 -248.170227 
L 687.343087 -248.901206 
L 686.985684 -249.632185 
L 686.584888 -250.363164 
L 686.13008 -251.094143 
L 685.606631 -251.825123 
L 684.995653 -252.556102 
L 684.274232 -253.287081 
L 683.416253 -254.01806 
L 682.393894 -254.749039 
L 681.179797 -255.480018 
L 679.74982 -256.210997 
L 678.0862 -256.941976 
L 676.180836 -257.672955 
L 674.038355 -258.403934 
L 671.678561 -259.134913 
L 669.137902 -259.865893 
L 666.469638 -260.596872 
L 663.74251 -261.327851 
L 661.037882 -262.05883 
L 658.445476 -262.789809 
L 656.058047 -263.520788 
L 653.96543 -264.251767 
L 652.248534 -264.982746 
L 650.973859 -265.713725 
L 650.189066 -266.444704 
L 649.92 -267.175684 
L 650.169416 -267.906663 
L 650.917442 -268.637642 
L 652.12364 -269.368621 
L 653.730366 -270.0996 
L 655.667033 -270.830579 
L 657.85483 -271.561558 
L 660.211478 -272.292537 
L 662.655677 -273.023516 
L 665.110961 -273.754495 
L 667.50883 -274.485474 
L 669.791077 -275.216454 
L 671.911314 -275.947433 
L 673.835771 -276.678412 
L 675.543423 -277.409391 
L 677.025527 -278.14037 
L 678.284654 -278.871349 
L 679.333282 -279.602328 
L 680.19201 -280.333307 
L 680.887505 -281.064286 
L 681.45026 -281.795265 
L 681.9123 -282.526244 
L 682.304967 -283.257224 
L 682.656926 -283.988203 
L 682.992522 -284.719182 
L 683.3306 -285.450161 
L 683.683834 -286.18114 
L 684.058603 -286.912119 
L 684.455365 -287.643098 
L 684.869461 -288.374077 
L 685.292226 -289.105056 
L 685.71229 -289.836035 
L 686.116934 -290.567014 
L 686.493376 -291.297994 
L 686.829902 -292.028973 
L 687.116778 -292.759952 
L 687.346906 -293.490931 
L 687.516228 -294.22191 
L 687.623883 -294.952889 
L 687.672157 -295.683868 
L 687.666255 -296.414847 
L 687.61392 -297.145826 
L 687.524944 -297.876805 
L 687.410585 -298.607784 
L 687.282924 -299.338764 
L 687.154185 -300.069743 
L 687.036053 -300.800722 
L 686.939029 -301.531701 
L 686.871858 -302.26268 
L 686.841077 -302.993659 
L 686.850709 -303.724638 
L 686.902145 -304.455617 
L 686.994204 -305.186596 
L 687.123381 -305.917575 
L 687.284253 -306.648554 
L 687.46999 -307.379534 
L 687.672942 -308.110513 
L 687.885225 -308.841492 
L 688.099268 -309.572471 
L 688.308266 -310.30345 
L 688.506521 -311.034429 
L 688.689646 -311.765408 
L 688.854632 -312.496387 
L 688.999809 -313.227366 
L 689.124703 -313.958345 
L 689.229834 -314.689324 
L 689.970166 -314.689324 
L 689.970166 -314.689324 
L 690.075297 -313.958345 
L 690.200191 -313.227366 
L 690.345368 -312.496387 
L 690.510354 -311.765408 
L 690.693479 -311.034429 
L 690.891734 -310.30345 
L 691.100732 -309.572471 
L 691.314775 -308.841492 
L 691.527058 -308.110513 
L 691.73001 -307.379534 
L 691.915747 -306.648554 
L 692.076619 -305.917575 
L 692.205796 -305.186596 
L 692.297855 -304.455617 
L 692.349291 -303.724638 
L 692.358923 -302.993659 
L 692.328142 -302.26268 
L 692.260971 -301.531701 
L 692.163947 -300.800722 
L 692.045815 -300.069743 
L 691.917076 -299.338764 
L 691.789415 -298.607784 
L 691.675056 -297.876805 
L 691.58608 -297.145826 
L 691.533745 -296.414847 
L 691.527843 -295.683868 
L 691.576117 -294.952889 
L 691.683772 -294.22191 
L 691.853094 -293.490931 
L 692.083222 -292.759952 
L 692.370098 -292.028973 
L 692.706624 -291.297994 
L 693.083066 -290.567014 
L 693.48771 -289.836035 
L 693.907774 -289.105056 
L 694.330539 -288.374077 
L 694.744635 -287.643098 
L 695.141397 -286.912119 
L 695.516166 -286.18114 
L 695.8694 -285.450161 
L 696.207478 -284.719182 
L 696.543074 -283.988203 
L 696.895033 -283.257224 
L 697.2877 -282.526244 
L 697.74974 -281.795265 
L 698.312495 -281.064286 
L 699.00799 -280.333307 
L 699.866718 -279.602328 
L 700.915346 -278.871349 
L 702.174473 -278.14037 
L 703.656577 -277.409391 
L 705.364229 -276.678412 
L 707.288686 -275.947433 
L 709.408923 -275.216454 
L 711.69117 -274.485474 
L 714.089039 -273.754495 
L 716.544323 -273.023516 
L 718.988522 -272.292537 
L 721.34517 -271.561558 
L 723.532967 -270.830579 
L 725.469634 -270.0996 
L 727.07636 -269.368621 
L 728.282558 -268.637642 
L 729.030584 -267.906663 
L 729.28 -267.175684 
L 729.010934 -266.444704 
L 728.226141 -265.713725 
L 726.951466 -264.982746 
L 725.23457 -264.251767 
L 723.141953 -263.520788 
L 720.754524 -262.789809 
L 718.162118 -262.05883 
L 715.45749 -261.327851 
L 712.730362 -260.596872 
L 710.062098 -259.865893 
L 707.521439 -259.134913 
L 705.161645 -258.403934 
L 703.019164 -257.672955 
L 701.1138 -256.941976 
L 699.45018 -256.210997 
L 698.020203 -255.480018 
L 696.806106 -254.749039 
L 695.783747 -254.01806 
L 694.925768 -253.287081 
L 694.204347 -252.556102 
L 693.593369 -251.825123 
L 693.06992 -251.094143 
L 692.615112 -250.363164 
L 692.214316 -249.632185 
L 691.856913 -248.901206 
L 691.535732 -248.170227 
L 691.246303 -247.439248 
L 690.986057 -246.708269 
L 690.753587 -245.97729 
L 690.548026 -245.246311 
L 690.368588 -244.515332 
L 690.214267 -243.784353 
L 690.083689 -243.053373 
L 689.975087 -242.322394 
z
" id="ma99f353290" style="stroke:#484848;stroke-width:1.5;"/>
    </defs>
    <g clip-path="url(#p56c3efaba7)">
     <use style="fill:#dee9a4;stroke:#484848;stroke-width:1.5;" x="0" xlink:href="#ma99f353290" y="720"/>
    </g>
   </g>
   <g id="PolyCollection_6">
    <defs>
     <path d="M 791.062475 -240.632531 
L 786.537525 -240.632531 
L 786.057145 -241.27207 
L 785.50627 -241.911609 
L 784.882106 -242.551148 
L 784.183501 -243.190687 
L 783.411258 -243.830226 
L 782.568401 -244.469765 
L 781.660353 -245.109304 
L 780.695019 -245.748843 
L 779.68273 -246.388382 
L 778.636058 -247.027921 
L 777.569476 -247.66746 
L 776.498875 -248.306999 
L 775.440965 -248.946538 
L 774.412567 -249.586077 
L 773.429856 -250.225617 
L 772.507594 -250.865156 
L 771.658405 -251.504695 
L 770.892145 -252.144234 
L 770.215428 -252.783773 
L 769.631342 -253.423312 
L 769.139376 -254.062851 
L 768.735599 -254.70239 
L 768.413049 -255.341929 
L 768.162339 -255.981468 
L 767.972419 -256.621007 
L 767.831449 -257.260546 
L 767.727699 -257.900085 
L 767.650428 -258.539624 
L 767.590646 -259.179163 
L 767.541716 -259.818702 
L 767.499735 -260.458242 
L 767.463674 -261.097781 
L 767.435259 -261.73732 
L 767.418613 -262.376859 
L 767.419696 -263.016398 
L 767.445585 -263.655937 
L 767.503675 -264.295476 
L 767.600862 -264.935015 
L 767.742787 -265.574554 
L 767.933208 -266.214093 
L 768.173552 -266.853632 
L 768.462677 -267.493171 
L 768.796879 -268.13271 
L 769.170114 -268.772249 
L 769.57443 -269.411788 
L 770.000553 -270.051327 
L 770.438579 -270.690866 
L 770.878703 -271.330406 
L 771.311927 -271.969945 
L 771.730682 -272.609484 
L 772.129312 -273.249023 
L 772.504401 -273.888562 
L 772.854899 -274.528101 
L 773.182065 -275.16764 
L 773.489234 -275.807179 
L 773.781436 -276.446718 
L 774.064914 -277.086257 
L 774.346573 -277.725796 
L 774.633428 -278.365335 
L 774.932074 -279.004874 
L 775.248237 -279.644413 
L 775.586417 -280.283952 
L 775.949664 -280.923491 
L 776.339467 -281.563031 
L 776.755774 -282.20257 
L 777.197116 -282.842109 
L 777.660815 -283.481648 
L 778.143261 -284.121187 
L 778.640205 -284.760726 
L 779.147067 -285.400265 
L 779.65922 -286.039804 
L 780.172232 -286.679343 
L 780.682056 -287.318882 
L 781.185158 -287.958421 
L 781.678586 -288.59796 
L 782.159983 -289.237499 
L 782.627551 -289.877038 
L 783.079981 -290.516577 
L 783.516361 -291.156116 
L 783.936073 -291.795655 
L 784.338699 -292.435195 
L 784.723928 -293.074734 
L 785.091493 -293.714273 
L 785.441125 -294.353812 
L 785.772529 -294.993351 
L 786.085385 -295.63289 
L 786.379365 -296.272429 
L 786.654166 -296.911968 
L 786.909542 -297.551507 
L 787.145347 -298.191046 
L 787.361572 -298.830585 
L 787.558371 -299.470124 
L 787.736082 -300.109663 
L 787.895236 -300.749202 
L 788.036548 -301.388741 
L 788.160908 -302.02828 
L 788.269354 -302.66782 
L 788.363045 -303.307359 
L 788.443221 -303.946898 
L 789.156779 -303.946898 
L 789.156779 -303.946898 
L 789.236955 -303.307359 
L 789.330646 -302.66782 
L 789.439092 -302.02828 
L 789.563452 -301.388741 
L 789.704764 -300.749202 
L 789.863918 -300.109663 
L 790.041629 -299.470124 
L 790.238428 -298.830585 
L 790.454653 -298.191046 
L 790.690458 -297.551507 
L 790.945834 -296.911968 
L 791.220635 -296.272429 
L 791.514615 -295.63289 
L 791.827471 -294.993351 
L 792.158875 -294.353812 
L 792.508507 -293.714273 
L 792.876072 -293.074734 
L 793.261301 -292.435195 
L 793.663927 -291.795655 
L 794.083639 -291.156116 
L 794.520019 -290.516577 
L 794.972449 -289.877038 
L 795.440017 -289.237499 
L 795.921414 -288.59796 
L 796.414842 -287.958421 
L 796.917944 -287.318882 
L 797.427768 -286.679343 
L 797.94078 -286.039804 
L 798.452933 -285.400265 
L 798.959795 -284.760726 
L 799.456739 -284.121187 
L 799.939185 -283.481648 
L 800.402884 -282.842109 
L 800.844226 -282.20257 
L 801.260533 -281.563031 
L 801.650336 -280.923491 
L 802.013583 -280.283952 
L 802.351763 -279.644413 
L 802.667926 -279.004874 
L 802.966572 -278.365335 
L 803.253427 -277.725796 
L 803.535086 -277.086257 
L 803.818564 -276.446718 
L 804.110766 -275.807179 
L 804.417935 -275.16764 
L 804.745101 -274.528101 
L 805.095599 -273.888562 
L 805.470688 -273.249023 
L 805.869318 -272.609484 
L 806.288073 -271.969945 
L 806.721297 -271.330406 
L 807.161421 -270.690866 
L 807.599447 -270.051327 
L 808.02557 -269.411788 
L 808.429886 -268.772249 
L 808.803121 -268.13271 
L 809.137323 -267.493171 
L 809.426448 -266.853632 
L 809.666792 -266.214093 
L 809.857213 -265.574554 
L 809.999138 -264.935015 
L 810.096325 -264.295476 
L 810.154415 -263.655937 
L 810.180304 -263.016398 
L 810.181387 -262.376859 
L 810.164741 -261.73732 
L 810.136326 -261.097781 
L 810.100265 -260.458242 
L 810.058284 -259.818702 
L 810.009354 -259.179163 
L 809.949572 -258.539624 
L 809.872301 -257.900085 
L 809.768551 -257.260546 
L 809.627581 -256.621007 
L 809.437661 -255.981468 
L 809.186951 -255.341929 
L 808.864401 -254.70239 
L 808.460624 -254.062851 
L 807.968658 -253.423312 
L 807.384572 -252.783773 
L 806.707855 -252.144234 
L 805.941595 -251.504695 
L 805.092406 -250.865156 
L 804.170144 -250.225617 
L 803.187433 -249.586077 
L 802.159035 -248.946538 
L 801.101125 -248.306999 
L 800.030524 -247.66746 
L 798.963942 -247.027921 
L 797.91727 -246.388382 
L 796.904981 -245.748843 
L 795.939647 -245.109304 
L 795.031599 -244.469765 
L 794.188742 -243.830226 
L 793.416499 -243.190687 
L 792.717894 -242.551148 
L 792.09373 -241.911609 
L 791.542855 -241.27207 
L 791.062475 -240.632531 
z
" id="mae1f8697cc" style="stroke:#484848;stroke-width:1.5;"/>
    </defs>
    <g clip-path="url(#p56c3efaba7)">
     <use style="fill:#afd5ab;stroke:#484848;stroke-width:1.5;" x="0" xlink:href="#mae1f8697cc" y="720"/>
    </g>
   </g>
   <g id="PolyCollection_7">
    <defs>
     <path d="M 893.015795 -262.264462 
L 882.984205 -262.264462 
L 881.868781 -262.780939 
L 880.584366 -263.297416 
L 879.125467 -263.813893 
L 877.491506 -264.33037 
L 875.687802 -264.846847 
L 873.726387 -265.363324 
L 871.626575 -265.879802 
L 869.415212 -266.396279 
L 867.126519 -266.912756 
L 864.801495 -267.429233 
L 862.486845 -267.94571 
L 860.233458 -268.462187 
L 858.094469 -268.978664 
L 856.123009 -269.495141 
L 854.369749 -270.011618 
L 852.88039 -270.528095 
L 851.693266 -271.044572 
L 850.837218 -271.561049 
L 850.329894 -272.077526 
L 850.176616 -272.594004 
L 850.369898 -273.110481 
L 850.889672 -273.626958 
L 851.704216 -274.143435 
L 852.771738 -274.659912 
L 854.042517 -275.176389 
L 855.461458 -275.692866 
L 856.970899 -276.209343 
L 858.513493 -276.72582 
L 860.034979 -277.242297 
L 861.48667 -277.758774 
L 862.827526 -278.275251 
L 864.025699 -278.791728 
L 865.05948 -279.308206 
L 865.917622 -279.824683 
L 866.599075 -280.34116 
L 867.112167 -280.857637 
L 867.473333 -281.374114 
L 867.705504 -281.890591 
L 867.836281 -282.407068 
L 867.896012 -282.923545 
L 867.91592 -283.440022 
L 867.926364 -283.956499 
L 867.955343 -284.472976 
L 868.027296 -284.989453 
L 868.162242 -285.505931 
L 868.375261 -286.022408 
L 868.676314 -286.538885 
L 869.070357 -287.055362 
L 869.557696 -287.571839 
L 870.134535 -288.088316 
L 870.793637 -288.604793 
L 871.525048 -289.12127 
L 872.316826 -289.637747 
L 873.155733 -290.154224 
L 874.02785 -290.670701 
L 874.919117 -291.187178 
L 875.81577 -291.703655 
L 876.704694 -292.220133 
L 877.573696 -292.73661 
L 878.411718 -293.253087 
L 879.208998 -293.769564 
L 879.957201 -294.286041 
L 880.649515 -294.802518 
L 881.28074 -295.318995 
L 881.847346 -295.835472 
L 882.347512 -296.351949 
L 882.781129 -296.868426 
L 883.149771 -297.384903 
L 883.456613 -297.90138 
L 883.7063 -298.417857 
L 883.904764 -298.934335 
L 884.058988 -299.450812 
L 884.176725 -299.967289 
L 884.266188 -300.483766 
L 884.335719 -301.000243 
L 884.393453 -301.51672 
L 884.447003 -302.033197 
L 884.503175 -302.549674 
L 884.567735 -303.066151 
L 884.645231 -303.582628 
L 884.73889 -304.099105 
L 884.850585 -304.615582 
L 884.980872 -305.13206 
L 885.129091 -305.648537 
L 885.293525 -306.165014 
L 885.471598 -306.681491 
L 885.660102 -307.197968 
L 885.85543 -307.714445 
L 886.053809 -308.230922 
L 886.251514 -308.747399 
L 886.445052 -309.263876 
L 886.631313 -309.780353 
L 886.807677 -310.29683 
L 886.972079 -310.813307 
L 887.123034 -311.329784 
L 887.259634 -311.846262 
L 887.381499 -312.362739 
L 887.488725 -312.879216 
L 887.581802 -313.395693 
L 888.418198 -313.395693 
L 888.418198 -313.395693 
L 888.511275 -312.879216 
L 888.618501 -312.362739 
L 888.740366 -311.846262 
L 888.876966 -311.329784 
L 889.027921 -310.813307 
L 889.192323 -310.29683 
L 889.368687 -309.780353 
L 889.554948 -309.263876 
L 889.748486 -308.747399 
L 889.946191 -308.230922 
L 890.14457 -307.714445 
L 890.339898 -307.197968 
L 890.528402 -306.681491 
L 890.706475 -306.165014 
L 890.870909 -305.648537 
L 891.019128 -305.13206 
L 891.149415 -304.615582 
L 891.26111 -304.099105 
L 891.354769 -303.582628 
L 891.432265 -303.066151 
L 891.496825 -302.549674 
L 891.552997 -302.033197 
L 891.606547 -301.51672 
L 891.664281 -301.000243 
L 891.733812 -300.483766 
L 891.823275 -299.967289 
L 891.941012 -299.450812 
L 892.095236 -298.934335 
L 892.2937 -298.417857 
L 892.543387 -297.90138 
L 892.850229 -297.384903 
L 893.218871 -296.868426 
L 893.652488 -296.351949 
L 894.152654 -295.835472 
L 894.71926 -295.318995 
L 895.350485 -294.802518 
L 896.042799 -294.286041 
L 896.791002 -293.769564 
L 897.588282 -293.253087 
L 898.426304 -292.73661 
L 899.295306 -292.220133 
L 900.18423 -291.703655 
L 901.080883 -291.187178 
L 901.97215 -290.670701 
L 902.844267 -290.154224 
L 903.683174 -289.637747 
L 904.474952 -289.12127 
L 905.206363 -288.604793 
L 905.865465 -288.088316 
L 906.442304 -287.571839 
L 906.929643 -287.055362 
L 907.323686 -286.538885 
L 907.624739 -286.022408 
L 907.837758 -285.505931 
L 907.972704 -284.989453 
L 908.044657 -284.472976 
L 908.073636 -283.956499 
L 908.08408 -283.440022 
L 908.103988 -282.923545 
L 908.163719 -282.407068 
L 908.294496 -281.890591 
L 908.526667 -281.374114 
L 908.887833 -280.857637 
L 909.400925 -280.34116 
L 910.082378 -279.824683 
L 910.94052 -279.308206 
L 911.974301 -278.791728 
L 913.172474 -278.275251 
L 914.51333 -277.758774 
L 915.965021 -277.242297 
L 917.486507 -276.72582 
L 919.029101 -276.209343 
L 920.538542 -275.692866 
L 921.957483 -275.176389 
L 923.228262 -274.659912 
L 924.295784 -274.143435 
L 925.110328 -273.626958 
L 925.630102 -273.110481 
L 925.823384 -272.594004 
L 925.670106 -272.077526 
L 925.162782 -271.561049 
L 924.306734 -271.044572 
L 923.11961 -270.528095 
L 921.630251 -270.011618 
L 919.876991 -269.495141 
L 917.905531 -268.978664 
L 915.766542 -268.462187 
L 913.513155 -267.94571 
L 911.198505 -267.429233 
L 908.873481 -266.912756 
L 906.584788 -266.396279 
L 904.373425 -265.879802 
L 902.273613 -265.363324 
L 900.312198 -264.846847 
L 898.508494 -264.33037 
L 896.874533 -263.813893 
L 895.415634 -263.297416 
L 894.131219 -262.780939 
L 893.015795 -262.264462 
z
" id="m91d20b2cae" style="stroke:#484848;stroke-width:1.5;"/>
    </defs>
    <g clip-path="url(#p56c3efaba7)">
     <use style="fill:#72b6a1;stroke:#484848;stroke-width:1.5;" x="0" xlink:href="#m91d20b2cae" y="720"/>
    </g>
   </g>
   <g id="PolyCollection_8">
    <defs>
     <path d="M 988.234059 -231.834615 
L 986.165941 -231.834615 
L 985.908206 -233.028626 
L 985.60358 -234.222637 
L 985.248061 -235.416648 
L 984.838359 -236.610659 
L 984.372131 -237.804669 
L 983.84821 -238.99868 
L 983.266798 -240.192691 
L 982.629621 -241.386702 
L 981.940024 -242.580713 
L 981.203 -243.774723 
L 980.425157 -244.968734 
L 979.614612 -246.162745 
L 978.780837 -247.356756 
L 977.934439 -248.550767 
L 977.086922 -249.744777 
L 976.250411 -250.938788 
L 975.437367 -252.132799 
L 974.660298 -253.32681 
L 973.931469 -254.520821 
L 973.262615 -255.714831 
L 972.664652 -256.908842 
L 972.147389 -258.102853 
L 971.719239 -259.296864 
L 971.386935 -260.490875 
L 971.155248 -261.684885 
L 971.026737 -262.878896 
L 971.00154 -264.072907 
L 971.077227 -265.266918 
L 971.248751 -266.460929 
L 971.508506 -267.654939 
L 971.846512 -268.84895 
L 972.250745 -270.042961 
L 972.707594 -271.236972 
L 973.202431 -272.430983 
L 973.720271 -273.624993 
L 974.246479 -274.819004 
L 974.76747 -276.013015 
L 975.271363 -277.207026 
L 975.748526 -278.401037 
L 976.19199 -279.595047 
L 976.597676 -280.789058 
L 976.964445 -281.983069 
L 977.29394 -283.17708 
L 977.590269 -284.371091 
L 977.859526 -285.565101 
L 978.109213 -286.759112 
L 978.347593 -287.953123 
L 978.583049 -289.147134 
L 978.823462 -290.341145 
L 979.075688 -291.535155 
L 979.345139 -292.729166 
L 979.6355 -293.923177 
L 979.948589 -295.117188 
L 980.284361 -296.311199 
L 980.641023 -297.505209 
L 981.015259 -298.69922 
L 981.40253 -299.893231 
L 981.797403 -301.087242 
L 982.193912 -302.281253 
L 982.585899 -303.475263 
L 982.967326 -304.669274 
L 983.332552 -305.863285 
L 983.676552 -307.057296 
L 983.995089 -308.251307 
L 984.284839 -309.445317 
L 984.543456 -310.639328 
L 984.769613 -311.833339 
L 984.962997 -313.02735 
L 985.124269 -314.221361 
L 985.255004 -315.415371 
L 985.357599 -316.609382 
L 985.435155 -317.803393 
L 985.491344 -318.997404 
L 985.530247 -320.191415 
L 985.556188 -321.385425 
L 985.573547 -322.579436 
L 985.586588 -323.773447 
L 985.599277 -324.967458 
L 985.615129 -326.161469 
L 985.63708 -327.355479 
L 985.667382 -328.54949 
L 985.707554 -329.743501 
L 985.758356 -330.937512 
L 985.819824 -332.131523 
L 985.891328 -333.325533 
L 985.97167 -334.519544 
L 986.059209 -335.713555 
L 986.151993 -336.907566 
L 986.247903 -338.101577 
L 986.344789 -339.295587 
L 986.440591 -340.489598 
L 986.533441 -341.683609 
L 986.621738 -342.87762 
L 986.704204 -344.071631 
L 986.779901 -345.265641 
L 986.848235 -346.459652 
L 986.908933 -347.653663 
L 986.962009 -348.847674 
L 987.007714 -350.041685 
L 987.392286 -350.041685 
L 987.392286 -350.041685 
L 987.437991 -348.847674 
L 987.491067 -347.653663 
L 987.551765 -346.459652 
L 987.620099 -345.265641 
L 987.695796 -344.071631 
L 987.778262 -342.87762 
L 987.866559 -341.683609 
L 987.959409 -340.489598 
L 988.055211 -339.295587 
L 988.152097 -338.101577 
L 988.248007 -336.907566 
L 988.340791 -335.713555 
L 988.42833 -334.519544 
L 988.508672 -333.325533 
L 988.580176 -332.131523 
L 988.641644 -330.937512 
L 988.692446 -329.743501 
L 988.732618 -328.54949 
L 988.76292 -327.355479 
L 988.784871 -326.161469 
L 988.800723 -324.967458 
L 988.813412 -323.773447 
L 988.826453 -322.579436 
L 988.843812 -321.385425 
L 988.869753 -320.191415 
L 988.908656 -318.997404 
L 988.964845 -317.803393 
L 989.042401 -316.609382 
L 989.144996 -315.415371 
L 989.275731 -314.221361 
L 989.437003 -313.02735 
L 989.630387 -311.833339 
L 989.856544 -310.639328 
L 990.115161 -309.445317 
L 990.404911 -308.251307 
L 990.723448 -307.057296 
L 991.067448 -305.863285 
L 991.432674 -304.669274 
L 991.814101 -303.475263 
L 992.206088 -302.281253 
L 992.602597 -301.087242 
L 992.99747 -299.893231 
L 993.384741 -298.69922 
L 993.758977 -297.505209 
L 994.115639 -296.311199 
L 994.451411 -295.117188 
L 994.7645 -293.923177 
L 995.054861 -292.729166 
L 995.324312 -291.535155 
L 995.576538 -290.341145 
L 995.816951 -289.147134 
L 996.052407 -287.953123 
L 996.290787 -286.759112 
L 996.540474 -285.565101 
L 996.809731 -284.371091 
L 997.10606 -283.17708 
L 997.435555 -281.983069 
L 997.802324 -280.789058 
L 998.20801 -279.595047 
L 998.651474 -278.401037 
L 999.128637 -277.207026 
L 999.63253 -276.013015 
L 1000.153521 -274.819004 
L 1000.679729 -273.624993 
L 1001.197569 -272.430983 
L 1001.692406 -271.236972 
L 1002.149255 -270.042961 
L 1002.553488 -268.84895 
L 1002.891494 -267.654939 
L 1003.151249 -266.460929 
L 1003.322773 -265.266918 
L 1003.39846 -264.072907 
L 1003.373263 -262.878896 
L 1003.244752 -261.684885 
L 1003.013065 -260.490875 
L 1002.680761 -259.296864 
L 1002.252611 -258.102853 
L 1001.735348 -256.908842 
L 1001.137385 -255.714831 
L 1000.468531 -254.520821 
L 999.739702 -253.32681 
L 998.962633 -252.132799 
L 998.149589 -250.938788 
L 997.313078 -249.744777 
L 996.465561 -248.550767 
L 995.619163 -247.356756 
L 994.785388 -246.162745 
L 993.974843 -244.968734 
L 993.197 -243.774723 
L 992.459976 -242.580713 
L 991.770379 -241.386702 
L 991.133202 -240.192691 
L 990.55179 -238.99868 
L 990.027869 -237.804669 
L 989.561641 -236.610659 
L 989.151939 -235.416648 
L 988.79642 -234.222637 
L 988.491794 -233.028626 
L 988.234059 -231.834615 
z
" id="m9d9f79314b" style="stroke:#484848;stroke-width:1.5;"/>
    </defs>
    <g clip-path="url(#p56c3efaba7)">
     <use style="fill:#4483ab;stroke:#484848;stroke-width:1.5;" x="0" xlink:href="#m9d9f79314b" y="720"/>
    </g>
   </g>
   <g id="matplotlib.axis_1">
    <g id="xtick_1">
     <g id="line2d_1">
      <defs>
       <path d="M 0 0 
L 0 3.5 
" id="m0415c160bc" style="stroke:#000000;stroke-width:0.8;"/>
      </defs>
      <g>
       <use style="stroke:#000000;stroke-width:0.8;" x="193.6" xlink:href="#m0415c160bc" y="640.8"/>
      </g>
     </g>
     <g id="text_1">
      <!-- Player1_healthy -->
      <g transform="translate(153.572656 655.398438)scale(0.1 -0.1)">
       <defs>
        <path d="M 1259 4147 
L 1259 2394 
L 2053 2394 
Q 2494 2394 2734 2622 
Q 2975 2850 2975 3272 
Q 2975 3691 2734 3919 
Q 2494 4147 2053 4147 
L 1259 4147 
z
M 628 4666 
L 2053 4666 
Q 2838 4666 3239 4311 
Q 3641 3956 3641 3272 
Q 3641 2581 3239 2228 
Q 2838 1875 2053 1875 
L 1259 1875 
L 1259 0 
L 628 0 
L 628 4666 
z
" id="DejaVuSans-50" transform="scale(0.015625)"/>
        <path d="M 603 4863 
L 1178 4863 
L 1178 0 
L 603 0 
L 603 4863 
z
" id="DejaVuSans-6c" transform="scale(0.015625)"/>
        <path d="M 2194 1759 
Q 1497 1759 1228 1600 
Q 959 1441 959 1056 
Q 959 750 1161 570 
Q 1363 391 1709 391 
Q 2188 391 2477 730 
Q 2766 1069 2766 1631 
L 2766 1759 
L 2194 1759 
z
M 3341 1997 
L 3341 0 
L 2766 0 
L 2766 531 
Q 2569 213 2275 61 
Q 1981 -91 1556 -91 
Q 1019 -91 701 211 
Q 384 513 384 1019 
Q 384 1609 779 1909 
Q 1175 2209 1959 2209 
L 2766 2209 
L 2766 2266 
Q 2766 2663 2505 2880 
Q 2244 3097 1772 3097 
Q 1472 3097 1187 3025 
Q 903 2953 641 2809 
L 641 3341 
Q 956 3463 1253 3523 
Q 1550 3584 1831 3584 
Q 2591 3584 2966 3190 
Q 3341 2797 3341 1997 
z
" id="DejaVuSans-61" transform="scale(0.015625)"/>
        <path d="M 2059 -325 
Q 1816 -950 1584 -1140 
Q 1353 -1331 966 -1331 
L 506 -1331 
L 506 -850 
L 844 -850 
Q 1081 -850 1212 -737 
Q 1344 -625 1503 -206 
L 1606 56 
L 191 3500 
L 800 3500 
L 1894 763 
L 2988 3500 
L 3597 3500 
L 2059 -325 
z
" id="DejaVuSans-79" transform="scale(0.015625)"/>
        <path d="M 3597 1894 
L 3597 1613 
L 953 1613 
Q 991 1019 1311 708 
Q 1631 397 2203 397 
Q 2534 397 2845 478 
Q 3156 559 3463 722 
L 3463 178 
Q 3153 47 2828 -22 
Q 2503 -91 2169 -91 
Q 1331 -91 842 396 
Q 353 884 353 1716 
Q 353 2575 817 3079 
Q 1281 3584 2069 3584 
Q 2775 3584 3186 3129 
Q 3597 2675 3597 1894 
z
M 3022 2063 
Q 3016 2534 2758 2815 
Q 2500 3097 2075 3097 
Q 1594 3097 1305 2825 
Q 1016 2553 972 2059 
L 3022 2063 
z
" id="DejaVuSans-65" transform="scale(0.015625)"/>
        <path d="M 2631 2963 
Q 2534 3019 2420 3045 
Q 2306 3072 2169 3072 
Q 1681 3072 1420 2755 
Q 1159 2438 1159 1844 
L 1159 0 
L 581 0 
L 581 3500 
L 1159 3500 
L 1159 2956 
Q 1341 3275 1631 3429 
Q 1922 3584 2338 3584 
Q 2397 3584 2469 3576 
Q 2541 3569 2628 3553 
L 2631 2963 
z
" id="DejaVuSans-72" transform="scale(0.015625)"/>
        <path d="M 794 531 
L 1825 531 
L 1825 4091 
L 703 3866 
L 703 4441 
L 1819 4666 
L 2450 4666 
L 2450 531 
L 3481 531 
L 3481 0 
L 794 0 
L 794 531 
z
" id="DejaVuSans-31" transform="scale(0.015625)"/>
        <path d="M 3263 -1063 
L 3263 -1509 
L -63 -1509 
L -63 -1063 
L 3263 -1063 
z
" id="DejaVuSans-5f" transform="scale(0.015625)"/>
        <path d="M 3513 2113 
L 3513 0 
L 2938 0 
L 2938 2094 
Q 2938 2591 2744 2837 
Q 2550 3084 2163 3084 
Q 1697 3084 1428 2787 
Q 1159 2491 1159 1978 
L 1159 0 
L 581 0 
L 581 4863 
L 1159 4863 
L 1159 2956 
Q 1366 3272 1645 3428 
Q 1925 3584 2291 3584 
Q 2894 3584 3203 3211 
Q 3513 2838 3513 2113 
z
" id="DejaVuSans-68" transform="scale(0.015625)"/>
        <path d="M 1172 4494 
L 1172 3500 
L 2356 3500 
L 2356 3053 
L 1172 3053 
L 1172 1153 
Q 1172 725 1289 603 
Q 1406 481 1766 481 
L 2356 481 
L 2356 0 
L 1766 0 
Q 1100 0 847 248 
Q 594 497 594 1153 
L 594 3053 
L 172 3053 
L 172 3500 
L 594 3500 
L 594 4494 
L 1172 4494 
z
" id="DejaVuSans-74" transform="scale(0.015625)"/>
       </defs>
       <use xlink:href="#DejaVuSans-50"/>
       <use x="60.302734" xlink:href="#DejaVuSans-6c"/>
       <use x="88.085938" xlink:href="#DejaVuSans-61"/>
       <use x="149.365234" xlink:href="#DejaVuSans-79"/>
       <use x="208.544922" xlink:href="#DejaVuSans-65"/>
       <use x="270.068359" xlink:href="#DejaVuSans-72"/>
       <use x="311.181641" xlink:href="#DejaVuSans-31"/>
       <use x="374.804688" xlink:href="#DejaVuSans-5f"/>
       <use x="424.804688" xlink:href="#DejaVuSans-68"/>
       <use x="488.183594" xlink:href="#DejaVuSans-65"/>
       <use x="549.707031" xlink:href="#DejaVuSans-61"/>
       <use x="610.986328" xlink:href="#DejaVuSans-6c"/>
       <use x="638.769531" xlink:href="#DejaVuSans-74"/>
       <use x="677.978516" xlink:href="#DejaVuSans-68"/>
       <use x="741.357422" xlink:href="#DejaVuSans-79"/>
      </g>
     </g>
    </g>
    <g id="xtick_2">
     <g id="line2d_2">
      <g>
       <use style="stroke:#000000;stroke-width:0.8;" x="292.8" xlink:href="#m0415c160bc" y="640.8"/>
      </g>
     </g>
     <g id="text_2">
      <!-- biased_A -->
      <g transform="translate(270.396875 655.398438)scale(0.1 -0.1)">
       <defs>
        <path d="M 3116 1747 
Q 3116 2381 2855 2742 
Q 2594 3103 2138 3103 
Q 1681 3103 1420 2742 
Q 1159 2381 1159 1747 
Q 1159 1113 1420 752 
Q 1681 391 2138 391 
Q 2594 391 2855 752 
Q 3116 1113 3116 1747 
z
M 1159 2969 
Q 1341 3281 1617 3432 
Q 1894 3584 2278 3584 
Q 2916 3584 3314 3078 
Q 3713 2572 3713 1747 
Q 3713 922 3314 415 
Q 2916 -91 2278 -91 
Q 1894 -91 1617 61 
Q 1341 213 1159 525 
L 1159 0 
L 581 0 
L 581 4863 
L 1159 4863 
L 1159 2969 
z
" id="DejaVuSans-62" transform="scale(0.015625)"/>
        <path d="M 603 3500 
L 1178 3500 
L 1178 0 
L 603 0 
L 603 3500 
z
M 603 4863 
L 1178 4863 
L 1178 4134 
L 603 4134 
L 603 4863 
z
" id="DejaVuSans-69" transform="scale(0.015625)"/>
        <path d="M 2834 3397 
L 2834 2853 
Q 2591 2978 2328 3040 
Q 2066 3103 1784 3103 
Q 1356 3103 1142 2972 
Q 928 2841 928 2578 
Q 928 2378 1081 2264 
Q 1234 2150 1697 2047 
L 1894 2003 
Q 2506 1872 2764 1633 
Q 3022 1394 3022 966 
Q 3022 478 2636 193 
Q 2250 -91 1575 -91 
Q 1294 -91 989 -36 
Q 684 19 347 128 
L 347 722 
Q 666 556 975 473 
Q 1284 391 1588 391 
Q 1994 391 2212 530 
Q 2431 669 2431 922 
Q 2431 1156 2273 1281 
Q 2116 1406 1581 1522 
L 1381 1569 
Q 847 1681 609 1914 
Q 372 2147 372 2553 
Q 372 3047 722 3315 
Q 1072 3584 1716 3584 
Q 2034 3584 2315 3537 
Q 2597 3491 2834 3397 
z
" id="DejaVuSans-73" transform="scale(0.015625)"/>
        <path d="M 2906 2969 
L 2906 4863 
L 3481 4863 
L 3481 0 
L 2906 0 
L 2906 525 
Q 2725 213 2448 61 
Q 2172 -91 1784 -91 
Q 1150 -91 751 415 
Q 353 922 353 1747 
Q 353 2572 751 3078 
Q 1150 3584 1784 3584 
Q 2172 3584 2448 3432 
Q 2725 3281 2906 2969 
z
M 947 1747 
Q 947 1113 1208 752 
Q 1469 391 1925 391 
Q 2381 391 2643 752 
Q 2906 1113 2906 1747 
Q 2906 2381 2643 2742 
Q 2381 3103 1925 3103 
Q 1469 3103 1208 2742 
Q 947 2381 947 1747 
z
" id="DejaVuSans-64" transform="scale(0.015625)"/>
        <path d="M 2188 4044 
L 1331 1722 
L 3047 1722 
L 2188 4044 
z
M 1831 4666 
L 2547 4666 
L 4325 0 
L 3669 0 
L 3244 1197 
L 1141 1197 
L 716 0 
L 50 0 
L 1831 4666 
z
" id="DejaVuSans-41" transform="scale(0.015625)"/>
       </defs>
       <use xlink:href="#DejaVuSans-62"/>
       <use x="63.476562" xlink:href="#DejaVuSans-69"/>
       <use x="91.259766" xlink:href="#DejaVuSans-61"/>
       <use x="152.539062" xlink:href="#DejaVuSans-73"/>
       <use x="204.638672" xlink:href="#DejaVuSans-65"/>
       <use x="266.162109" xlink:href="#DejaVuSans-64"/>
       <use x="329.638672" xlink:href="#DejaVuSans-5f"/>
       <use x="379.638672" xlink:href="#DejaVuSans-41"/>
      </g>
     </g>
    </g>
    <g id="xtick_3">
     <g id="line2d_3">
      <g>
       <use style="stroke:#000000;stroke-width:0.8;" x="392" xlink:href="#m0415c160bc" y="640.8"/>
      </g>
     </g>
     <g id="text_3">
      <!-- biased_B -->
      <g transform="translate(369.586719 655.398438)scale(0.1 -0.1)">
       <defs>
        <path d="M 1259 2228 
L 1259 519 
L 2272 519 
Q 2781 519 3026 730 
Q 3272 941 3272 1375 
Q 3272 1813 3026 2020 
Q 2781 2228 2272 2228 
L 1259 2228 
z
M 1259 4147 
L 1259 2741 
L 2194 2741 
Q 2656 2741 2882 2914 
Q 3109 3088 3109 3444 
Q 3109 3797 2882 3972 
Q 2656 4147 2194 4147 
L 1259 4147 
z
M 628 4666 
L 2241 4666 
Q 2963 4666 3353 4366 
Q 3744 4066 3744 3513 
Q 3744 3084 3544 2831 
Q 3344 2578 2956 2516 
Q 3422 2416 3680 2098 
Q 3938 1781 3938 1306 
Q 3938 681 3513 340 
Q 3088 0 2303 0 
L 628 0 
L 628 4666 
z
" id="DejaVuSans-42" transform="scale(0.015625)"/>
       </defs>
       <use xlink:href="#DejaVuSans-62"/>
       <use x="63.476562" xlink:href="#DejaVuSans-69"/>
       <use x="91.259766" xlink:href="#DejaVuSans-61"/>
       <use x="152.539062" xlink:href="#DejaVuSans-73"/>
       <use x="204.638672" xlink:href="#DejaVuSans-65"/>
       <use x="266.162109" xlink:href="#DejaVuSans-64"/>
       <use x="329.638672" xlink:href="#DejaVuSans-5f"/>
       <use x="379.638672" xlink:href="#DejaVuSans-42"/>
      </g>
     </g>
    </g>
    <g id="xtick_4">
     <g id="line2d_4">
      <g>
       <use style="stroke:#000000;stroke-width:0.8;" x="491.2" xlink:href="#m0415c160bc" y="640.8"/>
      </g>
     </g>
     <g id="text_4">
      <!-- biased_C -->
      <g transform="translate(468.725781 655.398438)scale(0.1 -0.1)">
       <defs>
        <path d="M 4122 4306 
L 4122 3641 
Q 3803 3938 3442 4084 
Q 3081 4231 2675 4231 
Q 1875 4231 1450 3742 
Q 1025 3253 1025 2328 
Q 1025 1406 1450 917 
Q 1875 428 2675 428 
Q 3081 428 3442 575 
Q 3803 722 4122 1019 
L 4122 359 
Q 3791 134 3420 21 
Q 3050 -91 2638 -91 
Q 1578 -91 968 557 
Q 359 1206 359 2328 
Q 359 3453 968 4101 
Q 1578 4750 2638 4750 
Q 3056 4750 3426 4639 
Q 3797 4528 4122 4306 
z
" id="DejaVuSans-43" transform="scale(0.015625)"/>
       </defs>
       <use xlink:href="#DejaVuSans-62"/>
       <use x="63.476562" xlink:href="#DejaVuSans-69"/>
       <use x="91.259766" xlink:href="#DejaVuSans-61"/>
       <use x="152.539062" xlink:href="#DejaVuSans-73"/>
       <use x="204.638672" xlink:href="#DejaVuSans-65"/>
       <use x="266.162109" xlink:href="#DejaVuSans-64"/>
       <use x="329.638672" xlink:href="#DejaVuSans-5f"/>
       <use x="379.638672" xlink:href="#DejaVuSans-43"/>
      </g>
     </g>
    </g>
    <g id="xtick_5">
     <g id="line2d_5">
      <g>
       <use style="stroke:#000000;stroke-width:0.8;" x="590.4" xlink:href="#m0415c160bc" y="640.8"/>
      </g>
     </g>
     <g id="text_5">
      <!-- biased_D -->
      <g transform="translate(567.567187 655.398438)scale(0.1 -0.1)">
       <defs>
        <path d="M 1259 4147 
L 1259 519 
L 2022 519 
Q 2988 519 3436 956 
Q 3884 1394 3884 2338 
Q 3884 3275 3436 3711 
Q 2988 4147 2022 4147 
L 1259 4147 
z
M 628 4666 
L 1925 4666 
Q 3281 4666 3915 4102 
Q 4550 3538 4550 2338 
Q 4550 1131 3912 565 
Q 3275 0 1925 0 
L 628 0 
L 628 4666 
z
" id="DejaVuSans-44" transform="scale(0.015625)"/>
       </defs>
       <use xlink:href="#DejaVuSans-62"/>
       <use x="63.476562" xlink:href="#DejaVuSans-69"/>
       <use x="91.259766" xlink:href="#DejaVuSans-61"/>
       <use x="152.539062" xlink:href="#DejaVuSans-73"/>
       <use x="204.638672" xlink:href="#DejaVuSans-65"/>
       <use x="266.162109" xlink:href="#DejaVuSans-64"/>
       <use x="329.638672" xlink:href="#DejaVuSans-5f"/>
       <use x="379.638672" xlink:href="#DejaVuSans-44"/>
      </g>
     </g>
    </g>
    <g id="xtick_6">
     <g id="line2d_6">
      <g>
       <use style="stroke:#000000;stroke-width:0.8;" x="689.6" xlink:href="#m0415c160bc" y="640.8"/>
      </g>
     </g>
     <g id="text_6">
      <!-- Type1_depressed -->
      <g transform="translate(646.53125 655.398438)scale(0.1 -0.1)">
       <defs>
        <path d="M -19 4666 
L 3928 4666 
L 3928 4134 
L 2272 4134 
L 2272 0 
L 1638 0 
L 1638 4134 
L -19 4134 
L -19 4666 
z
" id="DejaVuSans-54" transform="scale(0.015625)"/>
        <path d="M 1159 525 
L 1159 -1331 
L 581 -1331 
L 581 3500 
L 1159 3500 
L 1159 2969 
Q 1341 3281 1617 3432 
Q 1894 3584 2278 3584 
Q 2916 3584 3314 3078 
Q 3713 2572 3713 1747 
Q 3713 922 3314 415 
Q 2916 -91 2278 -91 
Q 1894 -91 1617 61 
Q 1341 213 1159 525 
z
M 3116 1747 
Q 3116 2381 2855 2742 
Q 2594 3103 2138 3103 
Q 1681 3103 1420 2742 
Q 1159 2381 1159 1747 
Q 1159 1113 1420 752 
Q 1681 391 2138 391 
Q 2594 391 2855 752 
Q 3116 1113 3116 1747 
z
" id="DejaVuSans-70" transform="scale(0.015625)"/>
       </defs>
       <use xlink:href="#DejaVuSans-54"/>
       <use x="45.458984" xlink:href="#DejaVuSans-79"/>
       <use x="104.638672" xlink:href="#DejaVuSans-70"/>
       <use x="168.115234" xlink:href="#DejaVuSans-65"/>
       <use x="229.638672" xlink:href="#DejaVuSans-31"/>
       <use x="293.261719" xlink:href="#DejaVuSans-5f"/>
       <use x="343.261719" xlink:href="#DejaVuSans-64"/>
       <use x="406.738281" xlink:href="#DejaVuSans-65"/>
       <use x="468.261719" xlink:href="#DejaVuSans-70"/>
       <use x="531.738281" xlink:href="#DejaVuSans-72"/>
       <use x="570.601562" xlink:href="#DejaVuSans-65"/>
       <use x="632.125" xlink:href="#DejaVuSans-73"/>
       <use x="684.224609" xlink:href="#DejaVuSans-73"/>
       <use x="736.324219" xlink:href="#DejaVuSans-65"/>
       <use x="797.847656" xlink:href="#DejaVuSans-64"/>
      </g>
     </g>
    </g>
    <g id="xtick_7">
     <g id="line2d_7">
      <g>
       <use style="stroke:#000000;stroke-width:0.8;" x="788.8" xlink:href="#m0415c160bc" y="640.8"/>
      </g>
     </g>
     <g id="text_7">
      <!-- Type2_depressed -->
      <g transform="translate(745.73125 655.398438)scale(0.1 -0.1)">
       <defs>
        <path d="M 1228 531 
L 3431 531 
L 3431 0 
L 469 0 
L 469 531 
Q 828 903 1448 1529 
Q 2069 2156 2228 2338 
Q 2531 2678 2651 2914 
Q 2772 3150 2772 3378 
Q 2772 3750 2511 3984 
Q 2250 4219 1831 4219 
Q 1534 4219 1204 4116 
Q 875 4013 500 3803 
L 500 4441 
Q 881 4594 1212 4672 
Q 1544 4750 1819 4750 
Q 2544 4750 2975 4387 
Q 3406 4025 3406 3419 
Q 3406 3131 3298 2873 
Q 3191 2616 2906 2266 
Q 2828 2175 2409 1742 
Q 1991 1309 1228 531 
z
" id="DejaVuSans-32" transform="scale(0.015625)"/>
       </defs>
       <use xlink:href="#DejaVuSans-54"/>
       <use x="45.458984" xlink:href="#DejaVuSans-79"/>
       <use x="104.638672" xlink:href="#DejaVuSans-70"/>
       <use x="168.115234" xlink:href="#DejaVuSans-65"/>
       <use x="229.638672" xlink:href="#DejaVuSans-32"/>
       <use x="293.261719" xlink:href="#DejaVuSans-5f"/>
       <use x="343.261719" xlink:href="#DejaVuSans-64"/>
       <use x="406.738281" xlink:href="#DejaVuSans-65"/>
       <use x="468.261719" xlink:href="#DejaVuSans-70"/>
       <use x="531.738281" xlink:href="#DejaVuSans-72"/>
       <use x="570.601562" xlink:href="#DejaVuSans-65"/>
       <use x="632.125" xlink:href="#DejaVuSans-73"/>
       <use x="684.224609" xlink:href="#DejaVuSans-73"/>
       <use x="736.324219" xlink:href="#DejaVuSans-65"/>
       <use x="797.847656" xlink:href="#DejaVuSans-64"/>
      </g>
     </g>
    </g>
    <g id="xtick_8">
     <g id="line2d_8">
      <g>
       <use style="stroke:#000000;stroke-width:0.8;" x="888" xlink:href="#m0415c160bc" y="640.8"/>
      </g>
     </g>
     <g id="text_8">
      <!-- Type1_social_phobia -->
      <g transform="translate(837.050781 655.398438)scale(0.1 -0.1)">
       <defs>
        <path d="M 1959 3097 
Q 1497 3097 1228 2736 
Q 959 2375 959 1747 
Q 959 1119 1226 758 
Q 1494 397 1959 397 
Q 2419 397 2687 759 
Q 2956 1122 2956 1747 
Q 2956 2369 2687 2733 
Q 2419 3097 1959 3097 
z
M 1959 3584 
Q 2709 3584 3137 3096 
Q 3566 2609 3566 1747 
Q 3566 888 3137 398 
Q 2709 -91 1959 -91 
Q 1206 -91 779 398 
Q 353 888 353 1747 
Q 353 2609 779 3096 
Q 1206 3584 1959 3584 
z
" id="DejaVuSans-6f" transform="scale(0.015625)"/>
        <path d="M 3122 3366 
L 3122 2828 
Q 2878 2963 2633 3030 
Q 2388 3097 2138 3097 
Q 1578 3097 1268 2742 
Q 959 2388 959 1747 
Q 959 1106 1268 751 
Q 1578 397 2138 397 
Q 2388 397 2633 464 
Q 2878 531 3122 666 
L 3122 134 
Q 2881 22 2623 -34 
Q 2366 -91 2075 -91 
Q 1284 -91 818 406 
Q 353 903 353 1747 
Q 353 2603 823 3093 
Q 1294 3584 2113 3584 
Q 2378 3584 2631 3529 
Q 2884 3475 3122 3366 
z
" id="DejaVuSans-63" transform="scale(0.015625)"/>
       </defs>
       <use xlink:href="#DejaVuSans-54"/>
       <use x="45.458984" xlink:href="#DejaVuSans-79"/>
       <use x="104.638672" xlink:href="#DejaVuSans-70"/>
       <use x="168.115234" xlink:href="#DejaVuSans-65"/>
       <use x="229.638672" xlink:href="#DejaVuSans-31"/>
       <use x="293.261719" xlink:href="#DejaVuSans-5f"/>
       <use x="343.261719" xlink:href="#DejaVuSans-73"/>
       <use x="395.361328" xlink:href="#DejaVuSans-6f"/>
       <use x="456.542969" xlink:href="#DejaVuSans-63"/>
       <use x="511.523438" xlink:href="#DejaVuSans-69"/>
       <use x="539.306641" xlink:href="#DejaVuSans-61"/>
       <use x="600.585938" xlink:href="#DejaVuSans-6c"/>
       <use x="628.369141" xlink:href="#DejaVuSans-5f"/>
       <use x="678.369141" xlink:href="#DejaVuSans-70"/>
       <use x="741.845703" xlink:href="#DejaVuSans-68"/>
       <use x="805.224609" xlink:href="#DejaVuSans-6f"/>
       <use x="866.40625" xlink:href="#DejaVuSans-62"/>
       <use x="929.882812" xlink:href="#DejaVuSans-69"/>
       <use x="957.666016" xlink:href="#DejaVuSans-61"/>
      </g>
     </g>
    </g>
    <g id="xtick_9">
     <g id="line2d_9">
      <g>
       <use style="stroke:#000000;stroke-width:0.8;" x="987.2" xlink:href="#m0415c160bc" y="640.8"/>
      </g>
     </g>
     <g id="text_9">
      <!-- Type2_social_phobia -->
      <g transform="translate(936.250781 655.398438)scale(0.1 -0.1)">
       <use xlink:href="#DejaVuSans-54"/>
       <use x="45.458984" xlink:href="#DejaVuSans-79"/>
       <use x="104.638672" xlink:href="#DejaVuSans-70"/>
       <use x="168.115234" xlink:href="#DejaVuSans-65"/>
       <use x="229.638672" xlink:href="#DejaVuSans-32"/>
       <use x="293.261719" xlink:href="#DejaVuSans-5f"/>
       <use x="343.261719" xlink:href="#DejaVuSans-73"/>
       <use x="395.361328" xlink:href="#DejaVuSans-6f"/>
       <use x="456.542969" xlink:href="#DejaVuSans-63"/>
       <use x="511.523438" xlink:href="#DejaVuSans-69"/>
       <use x="539.306641" xlink:href="#DejaVuSans-61"/>
       <use x="600.585938" xlink:href="#DejaVuSans-6c"/>
       <use x="628.369141" xlink:href="#DejaVuSans-5f"/>
       <use x="678.369141" xlink:href="#DejaVuSans-70"/>
       <use x="741.845703" xlink:href="#DejaVuSans-68"/>
       <use x="805.224609" xlink:href="#DejaVuSans-6f"/>
       <use x="866.40625" xlink:href="#DejaVuSans-62"/>
       <use x="929.882812" xlink:href="#DejaVuSans-69"/>
       <use x="957.666016" xlink:href="#DejaVuSans-61"/>
      </g>
     </g>
    </g>
   </g>
   <g id="matplotlib.axis_2">
    <g id="ytick_1">
     <g id="line2d_10">
      <defs>
       <path d="M 0 0 
L -3.5 0 
" id="m85ebb2c77a" style="stroke:#000000;stroke-width:0.8;"/>
      </defs>
      <g>
       <use style="stroke:#000000;stroke-width:0.8;" x="144" xlink:href="#m85ebb2c77a" y="621.762354"/>
      </g>
     </g>
     <g id="text_10">
      <!-- 5 -->
      <g transform="translate(130.6375 625.561573)scale(0.1 -0.1)">
       <defs>
        <path d="M 691 4666 
L 3169 4666 
L 3169 4134 
L 1269 4134 
L 1269 2991 
Q 1406 3038 1543 3061 
Q 1681 3084 1819 3084 
Q 2600 3084 3056 2656 
Q 3513 2228 3513 1497 
Q 3513 744 3044 326 
Q 2575 -91 1722 -91 
Q 1428 -91 1123 -41 
Q 819 9 494 109 
L 494 744 
Q 775 591 1075 516 
Q 1375 441 1709 441 
Q 2250 441 2565 725 
Q 2881 1009 2881 1497 
Q 2881 1984 2565 2268 
Q 2250 2553 1709 2553 
Q 1456 2553 1204 2497 
Q 953 2441 691 2322 
L 691 4666 
z
" id="DejaVuSans-35" transform="scale(0.015625)"/>
       </defs>
       <use xlink:href="#DejaVuSans-35"/>
      </g>
     </g>
    </g>
    <g id="ytick_2">
     <g id="line2d_11">
      <g>
       <use style="stroke:#000000;stroke-width:0.8;" x="144" xlink:href="#m85ebb2c77a" y="559.600901"/>
      </g>
     </g>
     <g id="text_11">
      <!-- 10 -->
      <g transform="translate(124.275 563.40012)scale(0.1 -0.1)">
       <defs>
        <path d="M 2034 4250 
Q 1547 4250 1301 3770 
Q 1056 3291 1056 2328 
Q 1056 1369 1301 889 
Q 1547 409 2034 409 
Q 2525 409 2770 889 
Q 3016 1369 3016 2328 
Q 3016 3291 2770 3770 
Q 2525 4250 2034 4250 
z
M 2034 4750 
Q 2819 4750 3233 4129 
Q 3647 3509 3647 2328 
Q 3647 1150 3233 529 
Q 2819 -91 2034 -91 
Q 1250 -91 836 529 
Q 422 1150 422 2328 
Q 422 3509 836 4129 
Q 1250 4750 2034 4750 
z
" id="DejaVuSans-30" transform="scale(0.015625)"/>
       </defs>
       <use xlink:href="#DejaVuSans-31"/>
       <use x="63.623047" xlink:href="#DejaVuSans-30"/>
      </g>
     </g>
    </g>
    <g id="ytick_3">
     <g id="line2d_12">
      <g>
       <use style="stroke:#000000;stroke-width:0.8;" x="144" xlink:href="#m85ebb2c77a" y="497.439448"/>
      </g>
     </g>
     <g id="text_12">
      <!-- 15 -->
      <g transform="translate(124.275 501.238667)scale(0.1 -0.1)">
       <use xlink:href="#DejaVuSans-31"/>
       <use x="63.623047" xlink:href="#DejaVuSans-35"/>
      </g>
     </g>
    </g>
    <g id="ytick_4">
     <g id="line2d_13">
      <g>
       <use style="stroke:#000000;stroke-width:0.8;" x="144" xlink:href="#m85ebb2c77a" y="435.277995"/>
      </g>
     </g>
     <g id="text_13">
      <!-- 20 -->
      <g transform="translate(124.275 439.077214)scale(0.1 -0.1)">
       <use xlink:href="#DejaVuSans-32"/>
       <use x="63.623047" xlink:href="#DejaVuSans-30"/>
      </g>
     </g>
    </g>
    <g id="ytick_5">
     <g id="line2d_14">
      <g>
       <use style="stroke:#000000;stroke-width:0.8;" x="144" xlink:href="#m85ebb2c77a" y="373.116542"/>
      </g>
     </g>
     <g id="text_14">
      <!-- 25 -->
      <g transform="translate(124.275 376.915761)scale(0.1 -0.1)">
       <use xlink:href="#DejaVuSans-32"/>
       <use x="63.623047" xlink:href="#DejaVuSans-35"/>
      </g>
     </g>
    </g>
    <g id="ytick_6">
     <g id="line2d_15">
      <g>
       <use style="stroke:#000000;stroke-width:0.8;" x="144" xlink:href="#m85ebb2c77a" y="310.955089"/>
      </g>
     </g>
     <g id="text_15">
      <!-- 30 -->
      <g transform="translate(124.275 314.754308)scale(0.1 -0.1)">
       <defs>
        <path d="M 2597 2516 
Q 3050 2419 3304 2112 
Q 3559 1806 3559 1356 
Q 3559 666 3084 287 
Q 2609 -91 1734 -91 
Q 1441 -91 1130 -33 
Q 819 25 488 141 
L 488 750 
Q 750 597 1062 519 
Q 1375 441 1716 441 
Q 2309 441 2620 675 
Q 2931 909 2931 1356 
Q 2931 1769 2642 2001 
Q 2353 2234 1838 2234 
L 1294 2234 
L 1294 2753 
L 1863 2753 
Q 2328 2753 2575 2939 
Q 2822 3125 2822 3475 
Q 2822 3834 2567 4026 
Q 2313 4219 1838 4219 
Q 1578 4219 1281 4162 
Q 984 4106 628 3988 
L 628 4550 
Q 988 4650 1302 4700 
Q 1616 4750 1894 4750 
Q 2613 4750 3031 4423 
Q 3450 4097 3450 3541 
Q 3450 3153 3228 2886 
Q 3006 2619 2597 2516 
z
" id="DejaVuSans-33" transform="scale(0.015625)"/>
       </defs>
       <use xlink:href="#DejaVuSans-33"/>
       <use x="63.623047" xlink:href="#DejaVuSans-30"/>
      </g>
     </g>
    </g>
    <g id="ytick_7">
     <g id="line2d_16">
      <g>
       <use style="stroke:#000000;stroke-width:0.8;" x="144" xlink:href="#m85ebb2c77a" y="248.793637"/>
      </g>
     </g>
     <g id="text_16">
      <!-- 35 -->
      <g transform="translate(124.275 252.592855)scale(0.1 -0.1)">
       <use xlink:href="#DejaVuSans-33"/>
       <use x="63.623047" xlink:href="#DejaVuSans-35"/>
      </g>
     </g>
    </g>
    <g id="ytick_8">
     <g id="line2d_17">
      <g>
       <use style="stroke:#000000;stroke-width:0.8;" x="144" xlink:href="#m85ebb2c77a" y="186.632184"/>
      </g>
     </g>
     <g id="text_17">
      <!-- 40 -->
      <g transform="translate(124.275 190.431402)scale(0.1 -0.1)">
       <defs>
        <path d="M 2419 4116 
L 825 1625 
L 2419 1625 
L 2419 4116 
z
M 2253 4666 
L 3047 4666 
L 3047 1625 
L 3713 1625 
L 3713 1100 
L 3047 1100 
L 3047 0 
L 2419 0 
L 2419 1100 
L 313 1100 
L 313 1709 
L 2253 4666 
z
" id="DejaVuSans-34" transform="scale(0.015625)"/>
       </defs>
       <use xlink:href="#DejaVuSans-34"/>
       <use x="63.623047" xlink:href="#DejaVuSans-30"/>
      </g>
     </g>
    </g>
    <g id="ytick_9">
     <g id="line2d_18">
      <g>
       <use style="stroke:#000000;stroke-width:0.8;" x="144" xlink:href="#m85ebb2c77a" y="124.470731"/>
      </g>
     </g>
     <g id="text_18">
      <!-- 45 -->
      <g transform="translate(124.275 128.269949)scale(0.1 -0.1)">
       <use xlink:href="#DejaVuSans-34"/>
       <use x="63.623047" xlink:href="#DejaVuSans-35"/>
      </g>
     </g>
    </g>
   </g>
   <g id="line2d_19">
    <path clip-path="url(#p56c3efaba7)" d="M 193.6 485.007158 
L 193.6 255.009782 
" style="fill:none;stroke:#484848;stroke-linecap:square;stroke-width:1.5;"/>
   </g>
   <g id="line2d_20">
    <path clip-path="url(#p56c3efaba7)" d="M 193.6 373.116542 
L 193.6 286.090508 
" style="fill:none;stroke:#484848;stroke-linecap:square;stroke-width:4.5;"/>
   </g>
   <g id="line2d_21">
    <path clip-path="url(#p56c3efaba7)" d="M 292.8 509.871739 
L 292.8 453.926431 
" style="fill:none;stroke:#484848;stroke-linecap:square;stroke-width:1.5;"/>
   </g>
   <g id="line2d_22">
    <path clip-path="url(#p56c3efaba7)" d="M 292.8 492.777339 
L 292.8 463.250649 
" style="fill:none;stroke:#484848;stroke-linecap:square;stroke-width:4.5;"/>
   </g>
   <g id="line2d_23">
    <path clip-path="url(#p56c3efaba7)" d="M 392 485.007158 
L 392 230.145201 
" style="fill:none;stroke:#484848;stroke-linecap:square;stroke-width:1.5;"/>
   </g>
   <g id="line2d_24">
    <path clip-path="url(#p56c3efaba7)" d="M 392 424.399741 
L 392 309.401053 
" style="fill:none;stroke:#484848;stroke-linecap:square;stroke-width:4.5;"/>
   </g>
   <g id="line2d_25">
    <path clip-path="url(#p56c3efaba7)" d="M 451.52 435.277995 
L 530.88 435.277995 
" style="fill:none;stroke:#484848;stroke-linecap:square;stroke-width:1.5;"/>
   </g>
   <g id="line2d_26">
    <path clip-path="url(#p56c3efaba7)" d="M 590.4 491.223303 
L 590.4 217.71291 
" style="fill:none;stroke:#484848;stroke-linecap:square;stroke-width:1.5;"/>
   </g>
   <g id="line2d_27">
    <path clip-path="url(#p56c3efaba7)" d="M 590.4 481.899085 
L 590.4 317.171235 
" style="fill:none;stroke:#484848;stroke-linecap:square;stroke-width:4.5;"/>
   </g>
   <g id="line2d_28">
    <path clip-path="url(#p56c3efaba7)" d="M 689.6 453.926431 
L 689.6 447.710286 
" style="fill:none;stroke:#484848;stroke-linecap:square;stroke-width:1.5;"/>
   </g>
   <g id="line2d_29">
    <path clip-path="url(#p56c3efaba7)" d="M 689.6 453.926431 
L 689.6 447.710286 
" style="fill:none;stroke:#484848;stroke-linecap:square;stroke-width:4.5;"/>
   </g>
   <g id="line2d_30">
    <path clip-path="url(#p56c3efaba7)" d="M 788.8 466.358722 
L 788.8 429.06185 
" style="fill:none;stroke:#484848;stroke-linecap:square;stroke-width:1.5;"/>
   </g>
   <g id="line2d_31">
    <path clip-path="url(#p56c3efaba7)" d="M 788.8 466.358722 
L 788.8 441.494141 
" style="fill:none;stroke:#484848;stroke-linecap:square;stroke-width:4.5;"/>
   </g>
   <g id="line2d_32">
    <path clip-path="url(#p56c3efaba7)" d="M 888 447.710286 
L 888 416.629559 
" style="fill:none;stroke:#484848;stroke-linecap:square;stroke-width:1.5;"/>
   </g>
   <g id="line2d_33">
    <path clip-path="url(#p56c3efaba7)" d="M 888 447.710286 
L 888 435.277995 
" style="fill:none;stroke:#484848;stroke-linecap:square;stroke-width:4.5;"/>
   </g>
   <g id="line2d_34">
    <path clip-path="url(#p56c3efaba7)" d="M 987.2 466.358722 
L 987.2 391.764978 
" style="fill:none;stroke:#484848;stroke-linecap:square;stroke-width:1.5;"/>
   </g>
   <g id="line2d_35">
    <path clip-path="url(#p56c3efaba7)" d="M 987.2 457.034504 
L 987.2 429.06185 
" style="fill:none;stroke:#484848;stroke-linecap:square;stroke-width:4.5;"/>
   </g>
   <g id="patch_3">
    <path d="M 144 640.8 
L 144 86.4 
" style="fill:none;stroke:#000000;stroke-linecap:square;stroke-linejoin:miter;stroke-width:0.8;"/>
   </g>
   <g id="patch_4">
    <path d="M 1036.8 640.8 
L 1036.8 86.4 
" style="fill:none;stroke:#000000;stroke-linecap:square;stroke-linejoin:miter;stroke-width:0.8;"/>
   </g>
   <g id="patch_5">
    <path d="M 144 640.8 
L 1036.8 640.8 
" style="fill:none;stroke:#000000;stroke-linecap:square;stroke-linejoin:miter;stroke-width:0.8;"/>
   </g>
   <g id="patch_6">
    <path d="M 144 86.4 
L 1036.8 86.4 
" style="fill:none;stroke:#000000;stroke-linecap:square;stroke-linejoin:miter;stroke-width:0.8;"/>
   </g>
   <g id="PathCollection_1">
    <defs>
     <path d="M 0 1.5 
C 0.397805 1.5 0.77937 1.341951 1.06066 1.06066 
C 1.341951 0.77937 1.5 0.397805 1.5 0 
C 1.5 -0.397805 1.341951 -0.77937 1.06066 -1.06066 
C 0.77937 -1.341951 0.397805 -1.5 0 -1.5 
C -0.397805 -1.5 -0.77937 -1.341951 -1.06066 -1.06066 
C -1.341951 -0.77937 -1.5 -0.397805 -1.5 0 
C -1.5 0.397805 -1.341951 0.77937 -1.06066 1.06066 
C -0.77937 1.341951 -0.397805 1.5 0 1.5 
z
" id="mc60ab33dd1" style="stroke:#484848;"/>
    </defs>
    <g clip-path="url(#p56c3efaba7)">
     <use style="fill:#ffffff;stroke:#484848;" x="193.6" xlink:href="#mc60ab33dd1" y="320.279307"/>
    </g>
   </g>
   <g id="PathCollection_2">
    <g clip-path="url(#p56c3efaba7)">
     <use style="fill:#ffffff;stroke:#484848;" x="292.8" xlink:href="#mc60ab33dd1" y="481.899085"/>
    </g>
   </g>
   <g id="PathCollection_3">
    <g clip-path="url(#p56c3efaba7)">
     <use style="fill:#ffffff;stroke:#484848;" x="392" xlink:href="#mc60ab33dd1" y="338.927743"/>
    </g>
   </g>
   <g id="PathCollection_4">
    <g clip-path="url(#p56c3efaba7)">
     <use style="fill:#ffffff;stroke:#484848;" x="590.4" xlink:href="#mc60ab33dd1" y="391.764978"/>
    </g>
   </g>
   <g id="PathCollection_5">
    <g clip-path="url(#p56c3efaba7)">
     <use style="fill:#ffffff;stroke:#484848;" x="689.6" xlink:href="#mc60ab33dd1" y="453.926431"/>
    </g>
   </g>
   <g id="PathCollection_6">
    <g clip-path="url(#p56c3efaba7)">
     <use style="fill:#ffffff;stroke:#484848;" x="788.8" xlink:href="#mc60ab33dd1" y="453.926431"/>
    </g>
   </g>
   <g id="PathCollection_7">
    <g clip-path="url(#p56c3efaba7)">
     <use style="fill:#ffffff;stroke:#484848;" x="888" xlink:href="#mc60ab33dd1" y="447.710286"/>
    </g>
   </g>
   <g id="PathCollection_8">
    <g clip-path="url(#p56c3efaba7)">
     <use style="fill:#ffffff;stroke:#484848;" x="987.2" xlink:href="#mc60ab33dd1" y="453.926431"/>
    </g>
   </g>
   <g id="text_19">
    <!-- Rewards earned per agent type - hostile context first -->
    <g transform="translate(259.265234 80.4)scale(0.25 -0.25)">
     <defs>
      <path d="M 2841 2188 
Q 3044 2119 3236 1894 
Q 3428 1669 3622 1275 
L 4263 0 
L 3584 0 
L 2988 1197 
Q 2756 1666 2539 1819 
Q 2322 1972 1947 1972 
L 1259 1972 
L 1259 0 
L 628 0 
L 628 4666 
L 2053 4666 
Q 2853 4666 3247 4331 
Q 3641 3997 3641 3322 
Q 3641 2881 3436 2590 
Q 3231 2300 2841 2188 
z
M 1259 4147 
L 1259 2491 
L 2053 2491 
Q 2509 2491 2742 2702 
Q 2975 2913 2975 3322 
Q 2975 3731 2742 3939 
Q 2509 4147 2053 4147 
L 1259 4147 
z
" id="DejaVuSans-52" transform="scale(0.015625)"/>
      <path d="M 269 3500 
L 844 3500 
L 1563 769 
L 2278 3500 
L 2956 3500 
L 3675 769 
L 4391 3500 
L 4966 3500 
L 4050 0 
L 3372 0 
L 2619 2869 
L 1863 0 
L 1184 0 
L 269 3500 
z
" id="DejaVuSans-77" transform="scale(0.015625)"/>
      <path id="DejaVuSans-20" transform="scale(0.015625)"/>
      <path d="M 3513 2113 
L 3513 0 
L 2938 0 
L 2938 2094 
Q 2938 2591 2744 2837 
Q 2550 3084 2163 3084 
Q 1697 3084 1428 2787 
Q 1159 2491 1159 1978 
L 1159 0 
L 581 0 
L 581 3500 
L 1159 3500 
L 1159 2956 
Q 1366 3272 1645 3428 
Q 1925 3584 2291 3584 
Q 2894 3584 3203 3211 
Q 3513 2838 3513 2113 
z
" id="DejaVuSans-6e" transform="scale(0.015625)"/>
      <path d="M 2906 1791 
Q 2906 2416 2648 2759 
Q 2391 3103 1925 3103 
Q 1463 3103 1205 2759 
Q 947 2416 947 1791 
Q 947 1169 1205 825 
Q 1463 481 1925 481 
Q 2391 481 2648 825 
Q 2906 1169 2906 1791 
z
M 3481 434 
Q 3481 -459 3084 -895 
Q 2688 -1331 1869 -1331 
Q 1566 -1331 1297 -1286 
Q 1028 -1241 775 -1147 
L 775 -588 
Q 1028 -725 1275 -790 
Q 1522 -856 1778 -856 
Q 2344 -856 2625 -561 
Q 2906 -266 2906 331 
L 2906 616 
Q 2728 306 2450 153 
Q 2172 0 1784 0 
Q 1141 0 747 490 
Q 353 981 353 1791 
Q 353 2603 747 3093 
Q 1141 3584 1784 3584 
Q 2172 3584 2450 3431 
Q 2728 3278 2906 2969 
L 2906 3500 
L 3481 3500 
L 3481 434 
z
" id="DejaVuSans-67" transform="scale(0.015625)"/>
      <path d="M 313 2009 
L 1997 2009 
L 1997 1497 
L 313 1497 
L 313 2009 
z
" id="DejaVuSans-2d" transform="scale(0.015625)"/>
      <path d="M 3513 3500 
L 2247 1797 
L 3578 0 
L 2900 0 
L 1881 1375 
L 863 0 
L 184 0 
L 1544 1831 
L 300 3500 
L 978 3500 
L 1906 2253 
L 2834 3500 
L 3513 3500 
z
" id="DejaVuSans-78" transform="scale(0.015625)"/>
      <path d="M 2375 4863 
L 2375 4384 
L 1825 4384 
Q 1516 4384 1395 4259 
Q 1275 4134 1275 3809 
L 1275 3500 
L 2222 3500 
L 2222 3053 
L 1275 3053 
L 1275 0 
L 697 0 
L 697 3053 
L 147 3053 
L 147 3500 
L 697 3500 
L 697 3744 
Q 697 4328 969 4595 
Q 1241 4863 1831 4863 
L 2375 4863 
z
" id="DejaVuSans-66" transform="scale(0.015625)"/>
     </defs>
     <use xlink:href="#DejaVuSans-52"/>
     <use x="64.982422" xlink:href="#DejaVuSans-65"/>
     <use x="126.505859" xlink:href="#DejaVuSans-77"/>
     <use x="208.292969" xlink:href="#DejaVuSans-61"/>
     <use x="269.572266" xlink:href="#DejaVuSans-72"/>
     <use x="308.935547" xlink:href="#DejaVuSans-64"/>
     <use x="372.412109" xlink:href="#DejaVuSans-73"/>
     <use x="424.511719" xlink:href="#DejaVuSans-20"/>
     <use x="456.298828" xlink:href="#DejaVuSans-65"/>
     <use x="517.822266" xlink:href="#DejaVuSans-61"/>
     <use x="579.101562" xlink:href="#DejaVuSans-72"/>
     <use x="618.464844" xlink:href="#DejaVuSans-6e"/>
     <use x="681.84375" xlink:href="#DejaVuSans-65"/>
     <use x="743.367188" xlink:href="#DejaVuSans-64"/>
     <use x="806.84375" xlink:href="#DejaVuSans-20"/>
     <use x="838.630859" xlink:href="#DejaVuSans-70"/>
     <use x="902.107422" xlink:href="#DejaVuSans-65"/>
     <use x="963.630859" xlink:href="#DejaVuSans-72"/>
     <use x="1004.744141" xlink:href="#DejaVuSans-20"/>
     <use x="1036.53125" xlink:href="#DejaVuSans-61"/>
     <use x="1097.810547" xlink:href="#DejaVuSans-67"/>
     <use x="1161.287109" xlink:href="#DejaVuSans-65"/>
     <use x="1222.810547" xlink:href="#DejaVuSans-6e"/>
     <use x="1286.189453" xlink:href="#DejaVuSans-74"/>
     <use x="1325.398438" xlink:href="#DejaVuSans-20"/>
     <use x="1357.185547" xlink:href="#DejaVuSans-74"/>
     <use x="1396.394531" xlink:href="#DejaVuSans-79"/>
     <use x="1455.574219" xlink:href="#DejaVuSans-70"/>
     <use x="1519.050781" xlink:href="#DejaVuSans-65"/>
     <use x="1580.574219" xlink:href="#DejaVuSans-20"/>
     <use x="1612.361328" xlink:href="#DejaVuSans-2d"/>
     <use x="1648.445312" xlink:href="#DejaVuSans-20"/>
     <use x="1680.232422" xlink:href="#DejaVuSans-68"/>
     <use x="1743.611328" xlink:href="#DejaVuSans-6f"/>
     <use x="1804.792969" xlink:href="#DejaVuSans-73"/>
     <use x="1856.892578" xlink:href="#DejaVuSans-74"/>
     <use x="1896.101562" xlink:href="#DejaVuSans-69"/>
     <use x="1923.884766" xlink:href="#DejaVuSans-6c"/>
     <use x="1951.667969" xlink:href="#DejaVuSans-65"/>
     <use x="2013.191406" xlink:href="#DejaVuSans-20"/>
     <use x="2044.978516" xlink:href="#DejaVuSans-63"/>
     <use x="2099.958984" xlink:href="#DejaVuSans-6f"/>
     <use x="2161.140625" xlink:href="#DejaVuSans-6e"/>
     <use x="2224.519531" xlink:href="#DejaVuSans-74"/>
     <use x="2263.728516" xlink:href="#DejaVuSans-65"/>
     <use x="2323.501953" xlink:href="#DejaVuSans-78"/>
     <use x="2382.681641" xlink:href="#DejaVuSans-74"/>
     <use x="2421.890625" xlink:href="#DejaVuSans-20"/>
     <use x="2453.677734" xlink:href="#DejaVuSans-66"/>
     <use x="2488.882812" xlink:href="#DejaVuSans-69"/>
     <use x="2516.666016" xlink:href="#DejaVuSans-72"/>
     <use x="2557.779297" xlink:href="#DejaVuSans-73"/>
     <use x="2609.878906" xlink:href="#DejaVuSans-74"/>
    </g>
   </g>
  </g>
 </g>
 <defs>
  <clipPath id="p56c3efaba7">
   <rect height="554.4" width="892.8" x="144" y="86.4"/>
  </clipPath>
 </defs>
</svg>
