<?xml version="1.0" encoding="utf-8" standalone="no"?>
<!DOCTYPE svg PUBLIC "-//W3C//DTD SVG 1.1//EN"
  "http://www.w3.org/Graphics/SVG/1.1/DTD/svg11.dtd">
<svg height="720pt" version="1.1" viewBox="0 0 1152 720" width="1152pt" xmlns="http://www.w3.org/2000/svg" xmlns:xlink="http://www.w3.org/1999/xlink">
 <metadata>
  <rdf:RDF xmlns:cc="http://creativecommons.org/ns#" xmlns:dc="http://purl.org/dc/elements/1.1/" xmlns:rdf="http://www.w3.org/1999/02/22-rdf-syntax-ns#">
   <cc:Work>
    <dc:type rdf:resource="http://purl.org/dc/dcmitype/StillImage"/>
    <dc:date>2024-06-18T15:44:34.946938</dc:date>
    <dc:format>image/svg+xml</dc:format>
    <dc:creator>
     <cc:Agent>
      <dc:title>Matplotlib v3.4.3, https://matplotlib.org/</dc:title>
     </cc:Agent>
    </dc:creator>
   </cc:Work>
  </rdf:RDF>
 </metadata>
 <defs>
  <style type="text/css">*{stroke-linecap:butt;stroke-linejoin:round;}</style>
 </defs>
 <g id="figure_1">
  <g id="patch_1">
   <path d="M 0 720 
L 1152 720 
L 1152 0 
L 0 0 
z
" style="fill:#ffffff;"/>
  </g>
  <g id="axes_1">
   <g id="patch_2">
    <path d="M 144 640.8 
L 1036.8 640.8 
L 1036.8 86.4 
L 144 86.4 
z
" style="fill:#ffffff;"/>
   </g>
   <g id="PolyCollection_1">
    <defs>
     <path d="M 193.984908 -171.604681 
L 193.215092 -171.604681 
L 193.114091 -175.516024 
L 192.993801 -179.427367 
L 192.852573 -183.338711 
L 192.689143 -187.250054 
L 192.502776 -191.161397 
L 192.293391 -195.07274 
L 192.061681 -198.984084 
L 191.809192 -202.895427 
L 191.538366 -206.80677 
L 191.252523 -210.718113 
L 190.955784 -214.629456 
L 190.652925 -218.5408 
L 190.349164 -222.452143 
L 190.04989 -226.363486 
L 189.760339 -230.274829 
L 189.485241 -234.186173 
L 189.228463 -238.097516 
L 188.992658 -242.008859 
L 188.778966 -245.920202 
L 188.586781 -249.831546 
L 188.413611 -253.742889 
L 188.255049 -257.654232 
L 188.10486 -261.565575 
L 187.955194 -265.476919 
L 187.796915 -269.388262 
L 187.620024 -273.299605 
L 187.414151 -277.210948 
L 187.169094 -281.122292 
L 186.875359 -285.033635 
L 186.524662 -288.944978 
L 186.110371 -292.856321 
L 185.627844 -296.767664 
L 185.074652 -300.679008 
L 184.450674 -304.590351 
L 183.758058 -308.501694 
L 183.001068 -312.413037 
L 182.18583 -316.324381 
L 181.320004 -320.235724 
L 180.412419 -324.147067 
L 179.472699 -328.05841 
L 178.510906 -331.969754 
L 177.537245 -335.881097 
L 176.561819 -339.79244 
L 175.594474 -343.703783 
L 174.644723 -347.615127 
L 173.721737 -351.52647 
L 172.834398 -355.437813 
L 171.991387 -359.349156 
L 171.201282 -363.2605 
L 170.472644 -367.171843 
L 169.814046 -371.083186 
L 169.234052 -374.994529 
L 168.741097 -378.905872 
L 168.343291 -382.817216 
L 168.048125 -386.728559 
L 167.862122 -390.639902 
L 167.790433 -394.551245 
L 167.83644 -398.462589 
L 168.00139 -402.373932 
L 168.28412 -406.285275 
L 168.680888 -410.196618 
L 169.185376 -414.107962 
L 169.788839 -418.019305 
L 170.480437 -421.930648 
L 171.247703 -425.841991 
L 172.077129 -429.753335 
L 172.954812 -433.664678 
L 173.867108 -437.576021 
L 174.801241 -441.487364 
L 175.745807 -445.398707 
L 176.69114 -449.310051 
L 177.629513 -453.221394 
L 178.555164 -457.132737 
L 179.464167 -461.04408 
L 180.354162 -464.955424 
L 181.223994 -468.866767 
L 182.073301 -472.77811 
L 182.902097 -476.689453 
L 183.710392 -480.600797 
L 184.49789 -484.51214 
L 185.263773 -488.423483 
L 186.006603 -492.334826 
L 186.724316 -496.24617 
L 187.414319 -500.157513 
L 188.073653 -504.068856 
L 188.699205 -507.980199 
L 189.287942 -511.891543 
L 189.837134 -515.802886 
L 190.344563 -519.714229 
L 190.808672 -523.625572 
L 191.228675 -527.536915 
L 191.604601 -531.448259 
L 191.937283 -535.359602 
L 192.228305 -539.270945 
L 192.479898 -543.182288 
L 192.694816 -547.093632 
L 192.876197 -551.004975 
L 193.027416 -554.916318 
L 193.151946 -558.827661 
L 194.048054 -558.827661 
L 194.048054 -558.827661 
L 194.172584 -554.916318 
L 194.323803 -551.004975 
L 194.505184 -547.093632 
L 194.720102 -543.182288 
L 194.971695 -539.270945 
L 195.262717 -535.359602 
L 195.595399 -531.448259 
L 195.971325 -527.536915 
L 196.391328 -523.625572 
L 196.855437 -519.714229 
L 197.362866 -515.802886 
L 197.912058 -511.891543 
L 198.500795 -507.980199 
L 199.126347 -504.068856 
L 199.785681 -500.157513 
L 200.475684 -496.24617 
L 201.193397 -492.334826 
L 201.936227 -488.423483 
L 202.70211 -484.51214 
L 203.489608 -480.600797 
L 204.297903 -476.689453 
L 205.126699 -472.77811 
L 205.976006 -468.866767 
L 206.845838 -464.955424 
L 207.735833 -461.04408 
L 208.644836 -457.132737 
L 209.570487 -453.221394 
L 210.50886 -449.310051 
L 211.454193 -445.398707 
L 212.398759 -441.487364 
L 213.332892 -437.576021 
L 214.245188 -433.664678 
L 215.122871 -429.753335 
L 215.952297 -425.841991 
L 216.719563 -421.930648 
L 217.411161 -418.019305 
L 218.014624 -414.107962 
L 218.519112 -410.196618 
L 218.91588 -406.285275 
L 219.19861 -402.373932 
L 219.36356 -398.462589 
L 219.409567 -394.551245 
L 219.337878 -390.639902 
L 219.151875 -386.728559 
L 218.856709 -382.817216 
L 218.458903 -378.905872 
L 217.965948 -374.994529 
L 217.385954 -371.083186 
L 216.727356 -367.171843 
L 215.998718 -363.2605 
L 215.208613 -359.349156 
L 214.365602 -355.437813 
L 213.478263 -351.52647 
L 212.555277 -347.615127 
L 211.605526 -343.703783 
L 210.638181 -339.79244 
L 209.662755 -335.881097 
L 208.689094 -331.969754 
L 207.727301 -328.05841 
L 206.787581 -324.147067 
L 205.879996 -320.235724 
L 205.01417 -316.324381 
L 204.198932 -312.413037 
L 203.441942 -308.501694 
L 202.749326 -304.590351 
L 202.125348 -300.679008 
L 201.572156 -296.767664 
L 201.089629 -292.856321 
L 200.675338 -288.944978 
L 200.324641 -285.033635 
L 200.030906 -281.122292 
L 199.785849 -277.210948 
L 199.579976 -273.299605 
L 199.403085 -269.388262 
L 199.244806 -265.476919 
L 199.09514 -261.565575 
L 198.944951 -257.654232 
L 198.786389 -253.742889 
L 198.613219 -249.831546 
L 198.421034 -245.920202 
L 198.207342 -242.008859 
L 197.971537 -238.097516 
L 197.714759 -234.186173 
L 197.439661 -230.274829 
L 197.15011 -226.363486 
L 196.850836 -222.452143 
L 196.547075 -218.5408 
L 196.244216 -214.629456 
L 195.947477 -210.718113 
L 195.661634 -206.80677 
L 195.390808 -202.895427 
L 195.138319 -198.984084 
L 194.906609 -195.07274 
L 194.697224 -191.161397 
L 194.510857 -187.250054 
L 194.347427 -183.338711 
L 194.206199 -179.427367 
L 194.085909 -175.516024 
L 193.984908 -171.604681 
z
" id="m6de5c92c01" style="stroke:#484848;stroke-width:1.5;"/>
    </defs>
    <g clip-path="url(#p1c393d3097)">
     <use style="fill:#c1505d;stroke:#484848;stroke-width:1.5;" x="0" xlink:href="#m6de5c92c01" y="720"/>
    </g>
   </g>
   <g id="PolyCollection_2">
    <defs>
     <path d="M 293.33124 -245.783921 
L 292.26876 -245.783921 
L 292.111956 -248.717235 
L 291.920922 -251.650548 
L 291.691614 -254.583862 
L 291.420262 -257.517176 
L 291.103478 -260.450489 
L 290.738325 -263.383803 
L 290.322321 -266.317116 
L 289.853377 -269.25043 
L 289.329673 -272.183744 
L 288.749486 -275.117057 
L 288.110999 -278.050371 
L 287.412131 -280.983685 
L 286.650427 -283.916998 
L 285.823047 -286.850312 
L 284.926886 -289.783625 
L 283.958833 -292.716939 
L 282.916161 -295.650253 
L 281.797018 -298.583566 
L 280.60096 -301.51688 
L 279.329458 -304.450194 
L 277.98631 -307.383507 
L 276.577894 -310.316821 
L 275.113198 -313.250134 
L 273.603625 -316.183448 
L 272.062569 -319.116762 
L 270.504802 -322.050075 
L 268.945747 -324.983389 
L 267.400716 -327.916703 
L 265.884207 -330.850016 
L 264.409348 -333.78333 
L 262.987562 -336.716643 
L 261.628479 -339.649957 
L 260.340135 -342.583271 
L 259.129405 -345.516584 
L 258.002642 -348.449898 
L 256.966419 -351.383212 
L 256.02829 -354.316525 
L 255.197448 -357.249839 
L 254.485183 -360.183152 
L 253.905044 -363.116466 
L 253.472644 -366.04978 
L 253.205081 -368.983093 
L 253.12 -371.916407 
L 253.234352 -374.849721 
L 253.56297 -377.783034 
L 254.117094 -380.716348 
L 254.903013 -383.649661 
L 255.920957 -386.582975 
L 257.164391 -389.516289 
L 258.619778 -392.449602 
L 260.26685 -395.382916 
L 262.079357 -398.316229 
L 264.02622 -401.249543 
L 266.072957 -404.182857 
L 268.183253 -407.11617 
L 270.320518 -410.049484 
L 272.449329 -412.982798 
L 274.536631 -415.916111 
L 276.552671 -418.849425 
L 278.471627 -421.782738 
L 280.271967 -424.716052 
L 281.936554 -427.649366 
L 283.452572 -430.582679 
L 284.81132 -433.515993 
L 286.007923 -436.449307 
L 287.041013 -439.38262 
L 287.912391 -442.315934 
L 288.626725 -445.249247 
L 289.191248 -448.182561 
L 289.615503 -451.115875 
L 289.91109 -454.049188 
L 290.09143 -456.982502 
L 290.171516 -459.915816 
L 290.167633 -462.849129 
L 290.097033 -465.782443 
L 289.977542 -468.715756 
L 289.827107 -471.64907 
L 289.66326 -474.582384 
L 289.502551 -477.515697 
L 289.359954 -480.449011 
L 289.248291 -483.382325 
L 289.177742 -486.315638 
L 289.155463 -489.248952 
L 289.185377 -492.182265 
L 289.26815 -495.115579 
L 289.401376 -498.048893 
L 289.579947 -500.982206 
L 289.796589 -503.91552 
L 290.042506 -506.848834 
L 290.308082 -509.782147 
L 290.583572 -512.715461 
L 290.859731 -515.648774 
L 291.12833 -518.582088 
L 291.382528 -521.515402 
L 291.617095 -524.448715 
L 291.828472 -527.382029 
L 292.014713 -530.315343 
L 292.175304 -533.248656 
L 292.310925 -536.18197 
L 293.289075 -536.18197 
L 293.289075 -536.18197 
L 293.424696 -533.248656 
L 293.585287 -530.315343 
L 293.771528 -527.382029 
L 293.982905 -524.448715 
L 294.217472 -521.515402 
L 294.47167 -518.582088 
L 294.740269 -515.648774 
L 295.016428 -512.715461 
L 295.291918 -509.782147 
L 295.557494 -506.848834 
L 295.803411 -503.91552 
L 296.020053 -500.982206 
L 296.198624 -498.048893 
L 296.33185 -495.115579 
L 296.414623 -492.182265 
L 296.444537 -489.248952 
L 296.422258 -486.315638 
L 296.351709 -483.382325 
L 296.240046 -480.449011 
L 296.097449 -477.515697 
L 295.93674 -474.582384 
L 295.772893 -471.64907 
L 295.622458 -468.715756 
L 295.502967 -465.782443 
L 295.432367 -462.849129 
L 295.428484 -459.915816 
L 295.50857 -456.982502 
L 295.68891 -454.049188 
L 295.984497 -451.115875 
L 296.408752 -448.182561 
L 296.973275 -445.249247 
L 297.687609 -442.315934 
L 298.558987 -439.38262 
L 299.592077 -436.449307 
L 300.78868 -433.515993 
L 302.147428 -430.582679 
L 303.663446 -427.649366 
L 305.328033 -424.716052 
L 307.128373 -421.782738 
L 309.047329 -418.849425 
L 311.063369 -415.916111 
L 313.150671 -412.982798 
L 315.279482 -410.049484 
L 317.416747 -407.11617 
L 319.527043 -404.182857 
L 321.57378 -401.249543 
L 323.520643 -398.316229 
L 325.33315 -395.382916 
L 326.980222 -392.449602 
L 328.435609 -389.516289 
L 329.679043 -386.582975 
L 330.696987 -383.649661 
L 331.482906 -380.716348 
L 332.03703 -377.783034 
L 332.365648 -374.849721 
L 332.48 -371.916407 
L 332.394919 -368.983093 
L 332.127356 -366.04978 
L 331.694956 -363.116466 
L 331.114817 -360.183152 
L 330.402552 -357.249839 
L 329.57171 -354.316525 
L 328.633581 -351.383212 
L 327.597358 -348.449898 
L 326.470595 -345.516584 
L 325.259865 -342.583271 
L 323.971521 -339.649957 
L 322.612438 -336.716643 
L 321.190652 -333.78333 
L 319.715793 -330.850016 
L 318.199284 -327.916703 
L 316.654253 -324.983389 
L 315.095198 -322.050075 
L 313.537431 -319.116762 
L 311.996375 -316.183448 
L 310.486802 -313.250134 
L 309.022106 -310.316821 
L 307.61369 -307.383507 
L 306.270542 -304.450194 
L 304.99904 -301.51688 
L 303.802982 -298.583566 
L 302.683839 -295.650253 
L 301.641167 -292.716939 
L 300.673114 -289.783625 
L 299.776953 -286.850312 
L 298.949573 -283.916998 
L 298.187869 -280.983685 
L 297.489001 -278.050371 
L 296.850514 -275.117057 
L 296.270327 -272.183744 
L 295.746623 -269.25043 
L 295.277679 -266.317116 
L 294.861675 -263.383803 
L 294.496522 -260.450489 
L 294.179738 -257.517176 
L 293.908386 -254.583862 
L 293.679078 -251.650548 
L 293.488044 -248.717235 
L 293.33124 -245.783921 
z
" id="m6da14f5988" style="stroke:#484848;stroke-width:1.5;"/>
    </defs>
    <g clip-path="url(#p1c393d3097)">
     <use style="fill:#de7959;stroke:#484848;stroke-width:1.5;" x="0" xlink:href="#m6da14f5988" y="720"/>
    </g>
   </g>
   <g id="PolyCollection_3">
    <defs>
     <path d="M 392.31832 -149.767522 
L 391.68168 -149.767522 
L 391.606173 -153.686236 
L 391.517713 -157.60495 
L 391.415282 -161.523663 
L 391.298017 -165.442377 
L 391.16524 -169.361091 
L 391.016479 -173.279805 
L 390.851457 -177.198519 
L 390.670072 -181.117233 
L 390.472339 -185.035947 
L 390.258315 -188.954661 
L 390.028002 -192.873375 
L 389.781234 -196.792088 
L 389.517555 -200.710802 
L 389.23611 -204.629516 
L 388.935554 -208.54823 
L 388.613991 -212.466944 
L 388.268964 -216.385658 
L 387.897496 -220.304372 
L 387.496202 -224.223086 
L 387.061453 -228.141799 
L 386.589606 -232.060513 
L 386.077278 -235.979227 
L 385.521646 -239.897941 
L 384.920758 -243.816655 
L 384.273828 -247.735369 
L 383.581487 -251.654083 
L 382.84597 -255.572797 
L 382.07122 -259.491511 
L 381.262896 -263.410224 
L 380.428273 -267.328938 
L 379.576049 -271.247652 
L 378.716054 -275.166366 
L 377.858891 -279.08508 
L 377.015533 -283.003794 
L 376.196892 -286.922508 
L 375.413398 -290.841222 
L 374.674627 -294.759936 
L 373.988973 -298.678649 
L 373.363419 -302.597363 
L 372.803389 -306.516077 
L 372.312706 -310.434791 
L 371.893635 -314.353505 
L 371.54701 -318.272219 
L 371.272428 -322.190933 
L 371.068466 -326.109647 
L 370.932929 -330.028361 
L 370.863069 -333.947074 
L 370.855775 -337.865788 
L 370.907711 -341.784502 
L 371.015387 -345.703216 
L 371.175162 -349.62193 
L 371.383191 -353.540644 
L 371.63533 -357.459358 
L 371.927012 -361.378072 
L 372.25313 -365.296786 
L 372.607955 -369.215499 
L 372.985107 -373.134213 
L 373.37761 -377.052927 
L 373.778041 -380.971641 
L 374.178774 -384.890355 
L 374.572316 -388.809069 
L 374.951707 -392.727783 
L 375.310963 -396.646497 
L 375.64552 -400.565211 
L 375.952631 -404.483924 
L 376.231684 -408.402638 
L 376.484392 -412.321352 
L 376.714838 -416.240066 
L 376.929344 -420.15878 
L 377.136178 -424.077494 
L 377.345096 -427.996208 
L 377.56676 -431.914922 
L 377.812066 -435.833636 
L 378.091438 -439.752349 
L 378.414131 -443.671063 
L 378.787607 -447.589777 
L 379.217024 -451.508491 
L 379.704882 -455.427205 
L 380.250841 -459.345919 
L 380.851729 -463.264633 
L 381.501726 -467.183347 
L 382.192714 -471.102061 
L 382.914749 -475.020774 
L 383.656622 -478.939488 
L 384.406467 -482.858202 
L 385.152361 -486.776916 
L 385.882892 -490.69563 
L 386.587645 -494.614344 
L 387.257594 -498.533058 
L 387.885373 -502.451772 
L 388.46543 -506.370486 
L 388.994073 -510.289199 
L 389.469403 -514.207913 
L 389.89117 -518.126627 
L 390.260558 -522.045341 
L 390.579942 -525.964055 
L 390.852611 -529.882769 
L 391.082497 -533.801483 
L 391.273927 -537.720197 
L 392.726073 -537.720197 
L 392.726073 -537.720197 
L 392.917503 -533.801483 
L 393.147389 -529.882769 
L 393.420058 -525.964055 
L 393.739442 -522.045341 
L 394.10883 -518.126627 
L 394.530597 -514.207913 
L 395.005927 -510.289199 
L 395.53457 -506.370486 
L 396.114627 -502.451772 
L 396.742406 -498.533058 
L 397.412355 -494.614344 
L 398.117108 -490.69563 
L 398.847639 -486.776916 
L 399.593533 -482.858202 
L 400.343378 -478.939488 
L 401.085251 -475.020774 
L 401.807286 -471.102061 
L 402.498274 -467.183347 
L 403.148271 -463.264633 
L 403.749159 -459.345919 
L 404.295118 -455.427205 
L 404.782976 -451.508491 
L 405.212393 -447.589777 
L 405.585869 -443.671063 
L 405.908562 -439.752349 
L 406.187934 -435.833636 
L 406.43324 -431.914922 
L 406.654904 -427.996208 
L 406.863822 -424.077494 
L 407.070656 -420.15878 
L 407.285162 -416.240066 
L 407.515608 -412.321352 
L 407.768316 -408.402638 
L 408.047369 -404.483924 
L 408.35448 -400.565211 
L 408.689037 -396.646497 
L 409.048293 -392.727783 
L 409.427684 -388.809069 
L 409.821226 -384.890355 
L 410.221959 -380.971641 
L 410.62239 -377.052927 
L 411.014893 -373.134213 
L 411.392045 -369.215499 
L 411.74687 -365.296786 
L 412.072988 -361.378072 
L 412.36467 -357.459358 
L 412.616809 -353.540644 
L 412.824838 -349.62193 
L 412.984613 -345.703216 
L 413.092289 -341.784502 
L 413.144225 -337.865788 
L 413.136931 -333.947074 
L 413.067071 -330.028361 
L 412.931534 -326.109647 
L 412.727572 -322.190933 
L 412.45299 -318.272219 
L 412.106365 -314.353505 
L 411.687294 -310.434791 
L 411.196611 -306.516077 
L 410.636581 -302.597363 
L 410.011027 -298.678649 
L 409.325373 -294.759936 
L 408.586602 -290.841222 
L 407.803108 -286.922508 
L 406.984467 -283.003794 
L 406.141109 -279.08508 
L 405.283946 -275.166366 
L 404.423951 -271.247652 
L 403.571727 -267.328938 
L 402.737104 -263.410224 
L 401.92878 -259.491511 
L 401.15403 -255.572797 
L 400.418513 -251.654083 
L 399.726172 -247.735369 
L 399.079242 -243.816655 
L 398.478354 -239.897941 
L 397.922722 -235.979227 
L 397.410394 -232.060513 
L 396.938547 -228.141799 
L 396.503798 -224.223086 
L 396.102504 -220.304372 
L 395.731036 -216.385658 
L 395.386009 -212.466944 
L 395.064446 -208.54823 
L 394.76389 -204.629516 
L 394.482445 -200.710802 
L 394.218766 -196.792088 
L 393.971998 -192.873375 
L 393.741685 -188.954661 
L 393.527661 -185.035947 
L 393.329928 -181.117233 
L 393.148543 -177.198519 
L 392.983521 -173.279805 
L 392.83476 -169.361091 
L 392.701983 -165.442377 
L 392.584718 -161.523663 
L 392.482287 -157.60495 
L 392.393827 -153.686236 
L 392.31832 -149.767522 
z
" id="m1c8a40178a" style="stroke:#484848;stroke-width:1.5;"/>
    </defs>
    <g clip-path="url(#p1c393d3097)">
     <use style="fill:#e9ad74;stroke:#484848;stroke-width:1.5;" x="0" xlink:href="#m1c8a40178a" y="720"/>
    </g>
   </g>
   <g id="PolyCollection_4">
    <defs>
     <path d="M 491.913351 -270.579573 
L 490.486649 -270.579573 
L 490.309147 -273.358992 
L 490.097032 -276.138411 
L 489.846078 -278.917829 
L 489.552141 -281.697248 
L 489.211322 -284.476666 
L 488.820137 -287.256085 
L 488.37571 -290.035504 
L 487.875965 -292.814922 
L 487.319811 -295.594341 
L 486.70731 -298.37376 
L 486.039818 -301.153178 
L 485.32008 -303.932597 
L 484.552272 -306.712015 
L 483.741986 -309.491434 
L 482.896143 -312.270853 
L 482.022841 -315.050271 
L 481.131135 -317.82969 
L 480.230759 -320.609109 
L 479.331803 -323.388527 
L 478.444355 -326.167946 
L 477.578137 -328.947364 
L 476.742146 -331.726783 
L 475.944323 -334.506202 
L 475.191281 -337.28562 
L 474.488083 -340.065039 
L 473.838115 -342.844457 
L 473.243033 -345.623876 
L 472.702798 -348.403295 
L 472.215802 -351.182713 
L 471.779053 -353.962132 
L 471.388423 -356.741551 
L 471.038934 -359.520969 
L 470.725062 -362.300388 
L 470.441041 -365.079806 
L 470.18114 -367.859225 
L 469.939917 -370.638644 
L 469.712415 -373.418062 
L 469.494312 -376.197481 
L 469.282011 -378.976899 
L 469.072683 -381.756318 
L 468.864259 -384.535737 
L 468.655383 -387.315155 
L 468.445347 -390.094574 
L 468.234001 -392.873993 
L 468.021664 -395.653411 
L 467.809031 -398.43283 
L 467.597103 -401.212248 
L 467.387116 -403.991667 
L 467.180502 -406.771086 
L 466.978855 -409.550504 
L 466.783922 -412.329923 
L 466.597606 -415.109342 
L 466.421975 -417.88876 
L 466.259288 -420.668179 
L 466.112022 -423.447597 
L 465.982901 -426.227016 
L 465.874928 -429.006435 
L 465.791414 -431.785853 
L 465.735991 -434.565272 
L 465.712627 -437.34469 
L 465.725613 -440.124109 
L 465.779528 -442.903528 
L 465.879183 -445.682946 
L 466.029531 -448.462365 
L 466.235537 -451.241784 
L 466.502024 -454.021202 
L 466.83348 -456.800621 
L 467.233851 -459.580039 
L 467.706304 -462.359458 
L 468.253007 -465.138877 
L 468.874905 -467.918295 
L 469.571539 -470.697714 
L 470.340892 -473.477132 
L 471.17931 -476.256551 
L 472.081473 -479.03597 
L 473.040455 -481.815388 
L 474.047846 -484.594807 
L 475.093955 -487.374226 
L 476.16807 -490.153644 
L 477.25877 -492.933063 
L 478.354273 -495.712481 
L 479.442796 -498.4919 
L 480.512914 -501.271319 
L 481.553896 -504.050737 
L 482.556008 -506.830156 
L 483.510752 -509.609575 
L 484.411059 -512.388993 
L 485.251402 -515.168412 
L 486.027852 -517.94783 
L 486.738059 -520.727249 
L 487.38118 -523.506668 
L 487.957756 -526.286086 
L 488.469548 -529.065505 
L 488.919345 -531.844923 
L 489.310763 -534.624342 
L 489.648033 -537.403761 
L 489.935795 -540.183179 
L 490.178914 -542.962598 
L 490.382308 -545.742017 
L 492.017692 -545.742017 
L 492.017692 -545.742017 
L 492.221086 -542.962598 
L 492.464205 -540.183179 
L 492.751967 -537.403761 
L 493.089237 -534.624342 
L 493.480655 -531.844923 
L 493.930452 -529.065505 
L 494.442244 -526.286086 
L 495.01882 -523.506668 
L 495.661941 -520.727249 
L 496.372148 -517.94783 
L 497.148598 -515.168412 
L 497.988941 -512.388993 
L 498.889248 -509.609575 
L 499.843992 -506.830156 
L 500.846104 -504.050737 
L 501.887086 -501.271319 
L 502.957204 -498.4919 
L 504.045727 -495.712481 
L 505.14123 -492.933063 
L 506.23193 -490.153644 
L 507.306045 -487.374226 
L 508.352154 -484.594807 
L 509.359545 -481.815388 
L 510.318527 -479.03597 
L 511.22069 -476.256551 
L 512.059108 -473.477132 
L 512.828461 -470.697714 
L 513.525095 -467.918295 
L 514.146993 -465.138877 
L 514.693696 -462.359458 
L 515.166149 -459.580039 
L 515.56652 -456.800621 
L 515.897976 -454.021202 
L 516.164463 -451.241784 
L 516.370469 -448.462365 
L 516.520817 -445.682946 
L 516.620472 -442.903528 
L 516.674387 -440.124109 
L 516.687373 -437.34469 
L 516.664009 -434.565272 
L 516.608586 -431.785853 
L 516.525072 -429.006435 
L 516.417099 -426.227016 
L 516.287978 -423.447597 
L 516.140712 -420.668179 
L 515.978025 -417.88876 
L 515.802394 -415.109342 
L 515.616078 -412.329923 
L 515.421145 -409.550504 
L 515.219498 -406.771086 
L 515.012884 -403.991667 
L 514.802897 -401.212248 
L 514.590969 -398.43283 
L 514.378336 -395.653411 
L 514.165999 -392.873993 
L 513.954653 -390.094574 
L 513.744617 -387.315155 
L 513.535741 -384.535737 
L 513.327317 -381.756318 
L 513.117989 -378.976899 
L 512.905688 -376.197481 
L 512.687585 -373.418062 
L 512.460083 -370.638644 
L 512.21886 -367.859225 
L 511.958959 -365.079806 
L 511.674938 -362.300388 
L 511.361066 -359.520969 
L 511.011577 -356.741551 
L 510.620947 -353.962132 
L 510.184198 -351.182713 
L 509.697202 -348.403295 
L 509.156967 -345.623876 
L 508.561885 -342.844457 
L 507.911917 -340.065039 
L 507.208719 -337.28562 
L 506.455677 -334.506202 
L 505.657854 -331.726783 
L 504.821863 -328.947364 
L 503.955645 -326.167946 
L 503.068197 -323.388527 
L 502.169241 -320.609109 
L 501.268865 -317.82969 
L 500.377159 -315.050271 
L 499.503857 -312.270853 
L 498.658014 -309.491434 
L 497.847728 -306.712015 
L 497.07992 -303.932597 
L 496.360182 -301.153178 
L 495.69269 -298.37376 
L 495.080189 -295.594341 
L 494.524035 -292.814922 
L 494.02429 -290.035504 
L 493.579863 -287.256085 
L 493.188678 -284.476666 
L 492.847859 -281.697248 
L 492.553922 -278.917829 
L 492.302968 -276.138411 
L 492.090853 -273.358992 
L 491.913351 -270.579573 
z
" id="m6784a2172c" style="stroke:#484848;stroke-width:1.5;"/>
    </defs>
    <g clip-path="url(#p1c393d3097)">
     <use style="fill:#f0d999;stroke:#484848;stroke-width:1.5;" x="0" xlink:href="#m6784a2172c" y="720"/>
    </g>
   </g>
   <g id="PolyCollection_5">
    <defs>
     <path d="M 591.019676 -199.332665 
L 589.780324 -199.332665 
L 589.585516 -203.464658 
L 589.34371 -207.596652 
L 589.04822 -211.728645 
L 588.692766 -215.860638 
L 588.271901 -219.992632 
L 587.781484 -224.124625 
L 587.219146 -228.256618 
L 586.584717 -232.388611 
L 585.880561 -236.520605 
L 585.111771 -240.652598 
L 584.286168 -244.784591 
L 583.4141 -248.916585 
L 582.507981 -253.048578 
L 581.581629 -257.180571 
L 580.649392 -261.312564 
L 579.72515 -265.444558 
L 578.821263 -269.576551 
L 577.947566 -273.708544 
L 577.110517 -277.840538 
L 576.31259 -281.972531 
L 575.552013 -286.104524 
L 574.822893 -290.236517 
L 574.115751 -294.368511 
L 573.418443 -298.500504 
L 572.717418 -302.632497 
L 571.999182 -306.76449 
L 571.251868 -310.896484 
L 570.466746 -315.028477 
L 569.639539 -319.16047 
L 568.771407 -323.292464 
L 567.869508 -327.424457 
L 566.947064 -331.55645 
L 566.022941 -335.688443 
L 565.120756 -339.820437 
L 564.267609 -343.95243 
L 563.492543 -348.084423 
L 562.824871 -352.216417 
L 562.292502 -356.34841 
L 561.920396 -360.480403 
L 561.729257 -364.612396 
L 561.734524 -368.74439 
L 561.945718 -372.876383 
L 562.366141 -377.008376 
L 562.992895 -381.14037 
L 563.817204 -385.272363 
L 564.824946 -389.404356 
L 565.997374 -393.536349 
L 567.311944 -397.668343 
L 568.743211 -401.800336 
L 570.263756 -405.932329 
L 571.845115 -410.064323 
L 573.458679 -414.196316 
L 575.076548 -418.328309 
L 576.67232 -422.460302 
L 578.22179 -426.592296 
L 579.703537 -430.724289 
L 581.099384 -434.856282 
L 582.394696 -438.988275 
L 583.578529 -443.120269 
L 584.643609 -447.252262 
L 585.586151 -451.384255 
L 586.405557 -455.516249 
L 587.103998 -459.648242 
L 587.685941 -463.780235 
L 588.157648 -467.912228 
L 588.526693 -472.044222 
L 588.801535 -476.176215 
L 588.991167 -480.308208 
L 589.104862 -484.440202 
L 589.152004 -488.572195 
L 589.142011 -492.704188 
L 589.084314 -496.836181 
L 588.988361 -500.968175 
L 588.863629 -505.100168 
L 588.719603 -509.232161 
L 588.565696 -513.364155 
L 588.411114 -517.496148 
L 588.264647 -521.628141 
L 588.134406 -525.760134 
L 588.027532 -529.892128 
L 587.949897 -534.024121 
L 587.905848 -538.156114 
L 587.89801 -542.288108 
L 587.927181 -546.420101 
L 587.99235 -550.552094 
L 588.090817 -554.684087 
L 588.218434 -558.816081 
L 588.369927 -562.948074 
L 588.539278 -567.080067 
L 588.720141 -571.21206 
L 588.906231 -575.344054 
L 589.091687 -579.476047 
L 589.271358 -583.60804 
L 589.441005 -587.740034 
L 589.597414 -591.872027 
L 589.73842 -596.00402 
L 589.86286 -600.136013 
L 589.970456 -604.268007 
L 590.061668 -608.4 
L 590.738332 -608.4 
L 590.738332 -608.4 
L 590.829544 -604.268007 
L 590.93714 -600.136013 
L 591.06158 -596.00402 
L 591.202586 -591.872027 
L 591.358995 -587.740034 
L 591.528642 -583.60804 
L 591.708313 -579.476047 
L 591.893769 -575.344054 
L 592.079859 -571.21206 
L 592.260722 -567.080067 
L 592.430073 -562.948074 
L 592.581566 -558.816081 
L 592.709183 -554.684087 
L 592.80765 -550.552094 
L 592.872819 -546.420101 
L 592.90199 -542.288108 
L 592.894152 -538.156114 
L 592.850103 -534.024121 
L 592.772468 -529.892128 
L 592.665594 -525.760134 
L 592.535353 -521.628141 
L 592.388886 -517.496148 
L 592.234304 -513.364155 
L 592.080397 -509.232161 
L 591.936371 -505.100168 
L 591.811639 -500.968175 
L 591.715686 -496.836181 
L 591.657989 -492.704188 
L 591.647996 -488.572195 
L 591.695138 -484.440202 
L 591.808833 -480.308208 
L 591.998465 -476.176215 
L 592.273307 -472.044222 
L 592.642352 -467.912228 
L 593.114059 -463.780235 
L 593.696002 -459.648242 
L 594.394443 -455.516249 
L 595.213849 -451.384255 
L 596.156391 -447.252262 
L 597.221471 -443.120269 
L 598.405304 -438.988275 
L 599.700616 -434.856282 
L 601.096463 -430.724289 
L 602.57821 -426.592296 
L 604.12768 -422.460302 
L 605.723452 -418.328309 
L 607.341321 -414.196316 
L 608.954885 -410.064323 
L 610.536244 -405.932329 
L 612.056789 -401.800336 
L 613.488056 -397.668343 
L 614.802626 -393.536349 
L 615.975054 -389.404356 
L 616.982796 -385.272363 
L 617.807105 -381.14037 
L 618.433859 -377.008376 
L 618.854282 -372.876383 
L 619.065476 -368.74439 
L 619.070743 -364.612396 
L 618.879604 -360.480403 
L 618.507498 -356.34841 
L 617.975129 -352.216417 
L 617.307457 -348.084423 
L 616.532391 -343.95243 
L 615.679244 -339.820437 
L 614.777059 -335.688443 
L 613.852936 -331.55645 
L 612.930492 -327.424457 
L 612.028593 -323.292464 
L 611.160461 -319.16047 
L 610.333254 -315.028477 
L 609.548132 -310.896484 
L 608.800818 -306.76449 
L 608.082582 -302.632497 
L 607.381557 -298.500504 
L 606.684249 -294.368511 
L 605.977107 -290.236517 
L 605.247987 -286.104524 
L 604.48741 -281.972531 
L 603.689483 -277.840538 
L 602.852434 -273.708544 
L 601.978737 -269.576551 
L 601.07485 -265.444558 
L 600.150608 -261.312564 
L 599.218371 -257.180571 
L 598.292019 -253.048578 
L 597.3859 -248.916585 
L 596.513832 -244.784591 
L 595.688229 -240.652598 
L 594.919439 -236.520605 
L 594.215283 -232.388611 
L 593.580854 -228.256618 
L 593.018516 -224.124625 
L 592.528099 -219.992632 
L 592.107234 -215.860638 
L 591.75178 -211.728645 
L 591.45629 -207.596652 
L 591.214484 -203.464658 
L 591.019676 -199.332665 
z
" id="m78e4d3ad44" style="stroke:#484848;stroke-width:1.5;"/>
    </defs>
    <g clip-path="url(#p1c393d3097)">
     <use style="fill:#f7f7c6;stroke:#484848;stroke-width:1.5;" x="0" xlink:href="#m78e4d3ad44" y="720"/>
    </g>
   </g>
   <g id="PolyCollection_6">
    <defs>
     <path d="M 690.18496 -131.437861 
L 689.01504 -131.437861 
L 688.86561 -136.160655 
L 688.688958 -140.883449 
L 688.483114 -145.606243 
L 688.246701 -150.329037 
L 687.979099 -155.051832 
L 687.680573 -159.774626 
L 687.352371 -164.49742 
L 686.996753 -169.220214 
L 686.616957 -173.943008 
L 686.217083 -178.665802 
L 685.801898 -183.388596 
L 685.37657 -188.111391 
L 684.94634 -192.834185 
L 684.516161 -197.556979 
L 684.090328 -202.279773 
L 683.672124 -207.002567 
L 683.26353 -211.725361 
L 682.865018 -216.448155 
L 682.47545 -221.17095 
L 682.092104 -225.893744 
L 681.710832 -230.616538 
L 681.326342 -235.339332 
L 680.932578 -240.062126 
L 680.523188 -244.78492 
L 680.092022 -249.507715 
L 679.633639 -254.230509 
L 679.143766 -258.953303 
L 678.619689 -263.676097 
L 678.060533 -268.398891 
L 677.467413 -273.121685 
L 676.843459 -277.844479 
L 676.193708 -282.567274 
L 675.524877 -287.290068 
L 674.845059 -292.012862 
L 674.163352 -296.735656 
L 673.489463 -301.45845 
L 672.833322 -306.181244 
L 672.204735 -310.904038 
L 671.613076 -315.626833 
L 671.067062 -320.349627 
L 670.574588 -325.072421 
L 670.142621 -329.795215 
L 669.777152 -334.518009 
L 669.483177 -339.240803 
L 669.264708 -343.963597 
L 669.124781 -348.686392 
L 669.065467 -353.409186 
L 669.087878 -358.13198 
L 669.192161 -362.854774 
L 669.3775 -367.577568 
L 669.642118 -372.300362 
L 669.983293 -377.023156 
L 670.397399 -381.745951 
L 670.879958 -386.468745 
L 671.425731 -391.191539 
L 672.028806 -395.914333 
L 672.68271 -400.637127 
L 673.380516 -405.359921 
L 674.114945 -410.082716 
L 674.878456 -414.80551 
L 675.663326 -419.528304 
L 676.461719 -424.251098 
L 677.265752 -428.973892 
L 678.067578 -433.696686 
L 678.859471 -438.41948 
L 679.633949 -443.142275 
L 680.38392 -447.865069 
L 681.102861 -452.587863 
L 681.785008 -457.310657 
L 682.425559 -462.033451 
L 683.020862 -466.756245 
L 683.568567 -471.479039 
L 684.06773 -476.201834 
L 684.51884 -480.924628 
L 684.923766 -485.647422 
L 685.285628 -490.370216 
L 685.60858 -495.09301 
L 685.897534 -499.815804 
L 686.15784 -504.538598 
L 686.394954 -509.261393 
L 686.614108 -513.984187 
L 686.820027 -518.706981 
L 687.016693 -523.429775 
L 687.207194 -528.152569 
L 687.393645 -532.875363 
L 687.577195 -537.598157 
L 687.758105 -542.320952 
L 687.935885 -547.043746 
L 688.109473 -551.76654 
L 688.27743 -556.489334 
L 688.438141 -561.212128 
L 688.59 -565.934922 
L 688.731564 -570.657717 
L 688.861669 -575.380511 
L 688.979508 -580.103305 
L 689.084661 -584.826099 
L 689.1771 -589.548893 
L 689.25715 -594.271687 
L 689.32544 -598.994481 
L 689.87456 -598.994481 
L 689.87456 -598.994481 
L 689.94285 -594.271687 
L 690.0229 -589.548893 
L 690.115339 -584.826099 
L 690.220492 -580.103305 
L 690.338331 -575.380511 
L 690.468436 -570.657717 
L 690.61 -565.934922 
L 690.761859 -561.212128 
L 690.92257 -556.489334 
L 691.090527 -551.76654 
L 691.264115 -547.043746 
L 691.441895 -542.320952 
L 691.622805 -537.598157 
L 691.806355 -532.875363 
L 691.992806 -528.152569 
L 692.183307 -523.429775 
L 692.379973 -518.706981 
L 692.585892 -513.984187 
L 692.805046 -509.261393 
L 693.04216 -504.538598 
L 693.302466 -499.815804 
L 693.59142 -495.09301 
L 693.914372 -490.370216 
L 694.276234 -485.647422 
L 694.68116 -480.924628 
L 695.13227 -476.201834 
L 695.631433 -471.479039 
L 696.179138 -466.756245 
L 696.774441 -462.033451 
L 697.414992 -457.310657 
L 698.097139 -452.587863 
L 698.81608 -447.865069 
L 699.566051 -443.142275 
L 700.340529 -438.41948 
L 701.132422 -433.696686 
L 701.934248 -428.973892 
L 702.738281 -424.251098 
L 703.536674 -419.528304 
L 704.321544 -414.80551 
L 705.085055 -410.082716 
L 705.819484 -405.359921 
L 706.51729 -400.637127 
L 707.171194 -395.914333 
L 707.774269 -391.191539 
L 708.320042 -386.468745 
L 708.802601 -381.745951 
L 709.216707 -377.023156 
L 709.557882 -372.300362 
L 709.8225 -367.577568 
L 710.007839 -362.854774 
L 710.112122 -358.13198 
L 710.134533 -353.409186 
L 710.075219 -348.686392 
L 709.935292 -343.963597 
L 709.716823 -339.240803 
L 709.422848 -334.518009 
L 709.057379 -329.795215 
L 708.625412 -325.072421 
L 708.132938 -320.349627 
L 707.586924 -315.626833 
L 706.995265 -310.904038 
L 706.366678 -306.181244 
L 705.710537 -301.45845 
L 705.036648 -296.735656 
L 704.354941 -292.012862 
L 703.675123 -287.290068 
L 703.006292 -282.567274 
L 702.356541 -277.844479 
L 701.732587 -273.121685 
L 701.139467 -268.398891 
L 700.580311 -263.676097 
L 700.056234 -258.953303 
L 699.566361 -254.230509 
L 699.107978 -249.507715 
L 698.676812 -244.78492 
L 698.267422 -240.062126 
L 697.873658 -235.339332 
L 697.489168 -230.616538 
L 697.107896 -225.893744 
L 696.72455 -221.17095 
L 696.334982 -216.448155 
L 695.93647 -211.725361 
L 695.527876 -207.002567 
L 695.109672 -202.279773 
L 694.683839 -197.556979 
L 694.25366 -192.834185 
L 693.82343 -188.111391 
L 693.398102 -183.388596 
L 692.982917 -178.665802 
L 692.583043 -173.943008 
L 692.203247 -169.220214 
L 691.847629 -164.49742 
L 691.519427 -159.774626 
L 691.220901 -155.051832 
L 690.953299 -150.329037 
L 690.716886 -145.606243 
L 690.511042 -140.883449 
L 690.33439 -136.160655 
L 690.18496 -131.437861 
z
" id="md8df5a59a1" style="stroke:#484848;stroke-width:1.5;"/>
    </defs>
    <g clip-path="url(#p1c393d3097)">
     <use style="fill:#dee9a4;stroke:#484848;stroke-width:1.5;" x="0" xlink:href="#md8df5a59a1" y="720"/>
    </g>
   </g>
   <g id="PolyCollection_7">
    <defs>
     <path d="M 789.451316 -247.664008 
L 788.148684 -247.664008 
L 787.987924 -250.472584 
L 787.797874 -253.281159 
L 787.575902 -256.089734 
L 787.31975 -258.898309 
L 787.027671 -261.706885 
L 786.698545 -264.51546 
L 786.331969 -267.324035 
L 785.928308 -270.13261 
L 785.488697 -272.941186 
L 785.014986 -275.749761 
L 784.509625 -278.558336 
L 783.975498 -281.366911 
L 783.415707 -284.175487 
L 782.833334 -286.984062 
L 782.23119 -289.792637 
L 781.611594 -292.601212 
L 780.976192 -295.409788 
L 780.325855 -298.218363 
L 779.660673 -301.026938 
L 778.980056 -303.835513 
L 778.282948 -306.644089 
L 777.568143 -309.452664 
L 776.834676 -312.261239 
L 776.082256 -315.069814 
L 775.311703 -317.87839 
L 774.52532 -320.686965 
L 773.727172 -323.49554 
L 772.92321 -326.304115 
L 772.121208 -329.11269 
L 771.330503 -331.921266 
L 770.561529 -334.729841 
L 769.82517 -337.538416 
L 769.131978 -340.346991 
L 768.491318 -343.155567 
L 767.910513 -345.964142 
L 767.394065 -348.772717 
L 766.943057 -351.581292 
L 766.554766 -354.389868 
L 766.222589 -357.198443 
L 765.936272 -360.007018 
L 765.682472 -362.815593 
L 765.44561 -365.624169 
L 765.208965 -368.432744 
L 764.955935 -371.241319 
L 764.671353 -374.049894 
L 764.342772 -376.85847 
L 763.961586 -379.667045 
L 763.523927 -382.47562 
L 763.031225 -385.284195 
L 762.490402 -388.092771 
L 761.91368 -390.901346 
L 761.317997 -393.709921 
L 760.724095 -396.518496 
L 760.155338 -399.327072 
L 759.636351 -402.135647 
L 759.191583 -404.944222 
L 758.843903 -407.752797 
L 758.613324 -410.561373 
L 758.515941 -413.369948 
L 758.563153 -416.178523 
L 758.761204 -418.987098 
L 759.11107 -421.795674 
L 759.608658 -424.604249 
L 760.245306 -427.412824 
L 761.008516 -430.221399 
L 761.882852 -433.029975 
L 762.85093 -435.83855 
L 763.894419 -438.647125 
L 764.994998 -441.4557 
L 766.135173 -444.264276 
L 767.298957 -447.072851 
L 768.472335 -449.881426 
L 769.643541 -452.690001 
L 770.803132 -455.498577 
L 771.943884 -458.307152 
L 773.060552 -461.115727 
L 774.149529 -463.924302 
L 775.208437 -466.732878 
L 776.235725 -469.541453 
L 777.230279 -472.350028 
L 778.191097 -475.158603 
L 779.117049 -477.967179 
L 780.006723 -480.775754 
L 780.858373 -483.584329 
L 781.669949 -486.392904 
L 782.439198 -489.20148 
L 783.163814 -492.010055 
L 783.84162 -494.81863 
L 784.470749 -497.627205 
L 785.049809 -500.435781 
L 785.578019 -503.244356 
L 786.0553 -506.052931 
L 786.482313 -508.861506 
L 786.860459 -511.670082 
L 787.191819 -514.478657 
L 787.479069 -517.287232 
L 787.725367 -520.095807 
L 787.934217 -522.904383 
L 788.109332 -525.712958 
L 789.490668 -525.712958 
L 789.490668 -525.712958 
L 789.665783 -522.904383 
L 789.874633 -520.095807 
L 790.120931 -517.287232 
L 790.408181 -514.478657 
L 790.739541 -511.670082 
L 791.117687 -508.861506 
L 791.5447 -506.052931 
L 792.021981 -503.244356 
L 792.550191 -500.435781 
L 793.129251 -497.627205 
L 793.75838 -494.81863 
L 794.436186 -492.010055 
L 795.160802 -489.20148 
L 795.930051 -486.392904 
L 796.741627 -483.584329 
L 797.593277 -480.775754 
L 798.482951 -477.967179 
L 799.408903 -475.158603 
L 800.369721 -472.350028 
L 801.364275 -469.541453 
L 802.391563 -466.732878 
L 803.450471 -463.924302 
L 804.539448 -461.115727 
L 805.656116 -458.307152 
L 806.796868 -455.498577 
L 807.956459 -452.690001 
L 809.127665 -449.881426 
L 810.301043 -447.072851 
L 811.464827 -444.264276 
L 812.605002 -441.4557 
L 813.705581 -438.647125 
L 814.74907 -435.83855 
L 815.717148 -433.029975 
L 816.591484 -430.221399 
L 817.354694 -427.412824 
L 817.991342 -424.604249 
L 818.48893 -421.795674 
L 818.838796 -418.987098 
L 819.036847 -416.178523 
L 819.084059 -413.369948 
L 818.986676 -410.561373 
L 818.756097 -407.752797 
L 818.408417 -404.944222 
L 817.963649 -402.135647 
L 817.444662 -399.327072 
L 816.875905 -396.518496 
L 816.282003 -393.709921 
L 815.68632 -390.901346 
L 815.109598 -388.092771 
L 814.568775 -385.284195 
L 814.076073 -382.47562 
L 813.638414 -379.667045 
L 813.257228 -376.85847 
L 812.928647 -374.049894 
L 812.644065 -371.241319 
L 812.391035 -368.432744 
L 812.15439 -365.624169 
L 811.917528 -362.815593 
L 811.663728 -360.007018 
L 811.377411 -357.198443 
L 811.045234 -354.389868 
L 810.656943 -351.581292 
L 810.205935 -348.772717 
L 809.689487 -345.964142 
L 809.108682 -343.155567 
L 808.468022 -340.346991 
L 807.77483 -337.538416 
L 807.038471 -334.729841 
L 806.269497 -331.921266 
L 805.478792 -329.11269 
L 804.67679 -326.304115 
L 803.872828 -323.49554 
L 803.07468 -320.686965 
L 802.288297 -317.87839 
L 801.517744 -315.069814 
L 800.765324 -312.261239 
L 800.031857 -309.452664 
L 799.317052 -306.644089 
L 798.619944 -303.835513 
L 797.939327 -301.026938 
L 797.274145 -298.218363 
L 796.623808 -295.409788 
L 795.988406 -292.601212 
L 795.36881 -289.792637 
L 794.766666 -286.984062 
L 794.184293 -284.175487 
L 793.624502 -281.366911 
L 793.090375 -278.558336 
L 792.585014 -275.749761 
L 792.111303 -272.941186 
L 791.671692 -270.13261 
L 791.268031 -267.324035 
L 790.901455 -264.51546 
L 790.572329 -261.706885 
L 790.28025 -258.898309 
L 790.024098 -256.089734 
L 789.802126 -253.281159 
L 789.612076 -250.472584 
L 789.451316 -247.664008 
z
" id="m4dc6581b30" style="stroke:#484848;stroke-width:1.5;"/>
    </defs>
    <g clip-path="url(#p1c393d3097)">
     <use style="fill:#afd5ab;stroke:#484848;stroke-width:1.5;" x="0" xlink:href="#m4dc6581b30" y="720"/>
    </g>
   </g>
   <g id="PolyCollection_8">
    <defs>
     <path d="M 888.816522 -104.4 
L 887.183478 -104.4 
L 887.015086 -109.061716 
L 886.821272 -113.723432 
L 886.600314 -118.385148 
L 886.350823 -123.046863 
L 886.071839 -127.708579 
L 885.762926 -132.370295 
L 885.424259 -137.032011 
L 885.056701 -141.693727 
L 884.661856 -146.355443 
L 884.242101 -151.017158 
L 883.80059 -155.678874 
L 883.341228 -160.34059 
L 882.868612 -165.002306 
L 882.387935 -169.664022 
L 881.904865 -174.325738 
L 881.425398 -178.987454 
L 880.955686 -183.649169 
L 880.501849 -188.310885 
L 880.069792 -192.972601 
L 879.665015 -197.634317 
L 879.292436 -202.296033 
L 878.956239 -206.957749 
L 878.659746 -211.619464 
L 878.405318 -216.28118 
L 878.194293 -220.942896 
L 878.026964 -225.604612 
L 877.902587 -230.266328 
L 877.819425 -234.928044 
L 877.774818 -239.58976 
L 877.765275 -244.251475 
L 877.786585 -248.913191 
L 877.833932 -253.574907 
L 877.90202 -258.236623 
L 877.985192 -262.898339 
L 878.077546 -267.560055 
L 878.173043 -272.22177 
L 878.265609 -276.883486 
L 878.349229 -281.545202 
L 878.418034 -286.206918 
L 878.46639 -290.868634 
L 878.488983 -295.53035 
L 878.480909 -300.192066 
L 878.437768 -304.853781 
L 878.35576 -309.515497 
L 878.23179 -314.177213 
L 878.063575 -318.838929 
L 877.849743 -323.500645 
L 877.589934 -328.162361 
L 877.284883 -332.824077 
L 876.936488 -337.485792 
L 876.547853 -342.147508 
L 876.123299 -346.809224 
L 875.668341 -351.47094 
L 875.18963 -356.132656 
L 874.694856 -360.794372 
L 874.192604 -365.456087 
L 873.692188 -370.117803 
L 873.203439 -374.779519 
L 872.736483 -379.441235 
L 872.301486 -384.102951 
L 871.9084 -388.764667 
L 871.566702 -393.426383 
L 871.28515 -398.088098 
L 871.071541 -402.749814 
L 870.932511 -407.41153 
L 870.873356 -412.073246 
L 870.897889 -416.734962 
L 871.008346 -421.396678 
L 871.205334 -426.058393 
L 871.487816 -430.720109 
L 871.853156 -435.381825 
L 872.297189 -440.043541 
L 872.814352 -444.705257 
L 873.397829 -449.366973 
L 874.039745 -454.028689 
L 874.731371 -458.690404 
L 875.463354 -463.35212 
L 876.225954 -468.013836 
L 877.009283 -472.675552 
L 877.803539 -477.337268 
L 878.59923 -481.998984 
L 879.387376 -486.660699 
L 880.159684 -491.322415 
L 880.908703 -495.984131 
L 881.627936 -500.645847 
L 882.31192 -505.307563 
L 882.956274 -509.969279 
L 883.557709 -514.630995 
L 884.114002 -519.29271 
L 884.623948 -523.954426 
L 885.087286 -528.616142 
L 885.504593 -533.277858 
L 885.877182 -537.939574 
L 886.206977 -542.60129 
L 886.496389 -547.263005 
L 886.748192 -551.924721 
L 886.965408 -556.586437 
L 887.151196 -561.248153 
L 887.308757 -565.909869 
L 888.691243 -565.909869 
L 888.691243 -565.909869 
L 888.848804 -561.248153 
L 889.034592 -556.586437 
L 889.251808 -551.924721 
L 889.503611 -547.263005 
L 889.793023 -542.60129 
L 890.122818 -537.939574 
L 890.495407 -533.277858 
L 890.912714 -528.616142 
L 891.376052 -523.954426 
L 891.885998 -519.29271 
L 892.442291 -514.630995 
L 893.043726 -509.969279 
L 893.68808 -505.307563 
L 894.372064 -500.645847 
L 895.091297 -495.984131 
L 895.840316 -491.322415 
L 896.612624 -486.660699 
L 897.40077 -481.998984 
L 898.196461 -477.337268 
L 898.990717 -472.675552 
L 899.774046 -468.013836 
L 900.536646 -463.35212 
L 901.268629 -458.690404 
L 901.960255 -454.028689 
L 902.602171 -449.366973 
L 903.185648 -444.705257 
L 903.702811 -440.043541 
L 904.146844 -435.381825 
L 904.512184 -430.720109 
L 904.794666 -426.058393 
L 904.991654 -421.396678 
L 905.102111 -416.734962 
L 905.126644 -412.073246 
L 905.067489 -407.41153 
L 904.928459 -402.749814 
L 904.71485 -398.088098 
L 904.433298 -393.426383 
L 904.0916 -388.764667 
L 903.698514 -384.102951 
L 903.263517 -379.441235 
L 902.796561 -374.779519 
L 902.307812 -370.117803 
L 901.807396 -365.456087 
L 901.305144 -360.794372 
L 900.81037 -356.132656 
L 900.331659 -351.47094 
L 899.876701 -346.809224 
L 899.452147 -342.147508 
L 899.063512 -337.485792 
L 898.715117 -332.824077 
L 898.410066 -328.162361 
L 898.150257 -323.500645 
L 897.936425 -318.838929 
L 897.76821 -314.177213 
L 897.64424 -309.515497 
L 897.562232 -304.853781 
L 897.519091 -300.192066 
L 897.511017 -295.53035 
L 897.53361 -290.868634 
L 897.581966 -286.206918 
L 897.650771 -281.545202 
L 897.734391 -276.883486 
L 897.826957 -272.22177 
L 897.922454 -267.560055 
L 898.014808 -262.898339 
L 898.09798 -258.236623 
L 898.166068 -253.574907 
L 898.213415 -248.913191 
L 898.234725 -244.251475 
L 898.225182 -239.58976 
L 898.180575 -234.928044 
L 898.097413 -230.266328 
L 897.973036 -225.604612 
L 897.805707 -220.942896 
L 897.594682 -216.28118 
L 897.340254 -211.619464 
L 897.043761 -206.957749 
L 896.707564 -202.296033 
L 896.334985 -197.634317 
L 895.930208 -192.972601 
L 895.498151 -188.310885 
L 895.044314 -183.649169 
L 894.574602 -178.987454 
L 894.095135 -174.325738 
L 893.612065 -169.664022 
L 893.131388 -165.002306 
L 892.658772 -160.34059 
L 892.19941 -155.678874 
L 891.757899 -151.017158 
L 891.338144 -146.355443 
L 890.943299 -141.693727 
L 890.575741 -137.032011 
L 890.237074 -132.370295 
L 889.928161 -127.708579 
L 889.649177 -123.046863 
L 889.399686 -118.385148 
L 889.178728 -113.723432 
L 888.984914 -109.061716 
L 888.816522 -104.4 
z
" id="m1d40cda353" style="stroke:#484848;stroke-width:1.5;"/>
    </defs>
    <g clip-path="url(#p1c393d3097)">
     <use style="fill:#72b6a1;stroke:#484848;stroke-width:1.5;" x="0" xlink:href="#m1d40cda353" y="720"/>
    </g>
   </g>
   <g id="PolyCollection_9">
    <defs>
     <path d="M 988.427997 -104.450661 
L 985.972003 -104.450661 
L 985.611674 -109.458381 
L 985.17062 -114.4661 
L 984.638421 -119.47382 
L 984.005432 -124.48154 
L 983.263437 -129.489259 
L 982.406369 -134.496979 
L 981.431055 -139.504699 
L 980.337917 -144.512418 
L 979.131597 -149.520138 
L 977.821432 -154.527857 
L 976.421712 -159.535577 
L 974.951694 -164.543297 
L 973.435317 -169.551016 
L 971.9006 -174.558736 
L 970.378742 -179.566456 
L 968.902943 -184.574175 
L 967.507003 -189.581895 
L 966.223781 -194.589615 
L 965.083609 -199.597334 
L 964.112764 -204.605054 
L 963.332117 -209.612774 
L 962.756047 -214.620493 
L 962.391722 -219.628213 
L 962.238792 -224.635933 
L 962.289535 -229.643652 
L 962.529442 -234.651372 
L 962.938214 -239.659092 
L 963.491082 -244.666811 
L 964.160363 -249.674531 
L 964.917142 -254.682251 
L 965.732936 -259.68997 
L 966.581248 -264.69769 
L 967.438882 -269.70541 
L 968.286948 -274.713129 
L 969.111499 -279.720849 
L 969.90376 -284.728569 
L 970.659988 -289.736288 
L 971.380968 -294.744008 
L 972.071227 -299.751728 
L 972.738036 -304.759447 
L 973.390309 -309.767167 
L 974.037471 -314.774887 
L 974.688402 -319.782606 
L 975.35053 -324.790326 
L 976.029129 -329.798046 
L 976.726868 -334.805765 
L 977.443615 -339.813485 
L 978.176501 -344.821204 
L 978.9202 -349.828924 
L 979.6674 -354.836644 
L 980.409389 -359.844363 
L 981.136701 -364.852083 
L 981.839774 -369.859803 
L 982.509546 -374.867522 
L 983.137951 -379.875242 
L 983.718302 -384.882962 
L 984.245516 -389.890681 
L 984.716208 -394.898401 
L 985.128653 -399.906121 
L 985.482644 -404.91384 
L 985.779269 -409.92156 
L 986.020655 -414.92928 
L 986.209694 -419.936999 
L 986.349793 -424.944719 
L 986.444664 -429.952439 
L 986.498167 -434.960158 
L 986.514217 -439.967878 
L 986.496751 -444.975598 
L 986.449741 -449.983317 
L 986.37725 -454.991037 
L 986.283495 -459.998757 
L 986.17291 -465.006476 
L 986.050186 -470.014196 
L 985.920273 -475.021916 
L 985.788328 -480.029635 
L 985.659614 -485.037355 
L 985.539348 -490.045075 
L 985.432505 -495.052794 
L 985.343602 -500.060514 
L 985.276479 -505.068234 
L 985.234094 -510.075953 
L 985.218363 -515.083673 
L 985.230056 -520.091393 
L 985.268761 -525.099112 
L 985.332932 -530.106832 
L 985.419999 -535.114551 
L 985.52655 -540.122271 
L 985.648558 -545.129991 
L 985.781639 -550.13771 
L 985.921308 -555.14543 
L 986.06323 -560.15315 
L 986.203433 -565.160869 
L 986.338477 -570.168589 
L 986.465563 -575.176309 
L 986.582598 -580.184028 
L 986.68819 -585.191748 
L 986.781615 -590.199468 
L 986.862736 -595.207187 
L 986.931904 -600.214907 
L 987.468096 -600.214907 
L 987.468096 -600.214907 
L 987.537264 -595.207187 
L 987.618385 -590.199468 
L 987.71181 -585.191748 
L 987.817402 -580.184028 
L 987.934437 -575.176309 
L 988.061523 -570.168589 
L 988.196567 -565.160869 
L 988.33677 -560.15315 
L 988.478692 -555.14543 
L 988.618361 -550.13771 
L 988.751442 -545.129991 
L 988.87345 -540.122271 
L 988.980001 -535.114551 
L 989.067068 -530.106832 
L 989.131239 -525.099112 
L 989.169944 -520.091393 
L 989.181637 -515.083673 
L 989.165906 -510.075953 
L 989.123521 -505.068234 
L 989.056398 -500.060514 
L 988.967495 -495.052794 
L 988.860652 -490.045075 
L 988.740386 -485.037355 
L 988.611672 -480.029635 
L 988.479727 -475.021916 
L 988.349814 -470.014196 
L 988.22709 -465.006476 
L 988.116505 -459.998757 
L 988.02275 -454.991037 
L 987.950259 -449.983317 
L 987.903249 -444.975598 
L 987.885783 -439.967878 
L 987.901833 -434.960158 
L 987.955336 -429.952439 
L 988.050207 -424.944719 
L 988.190306 -419.936999 
L 988.379345 -414.92928 
L 988.620731 -409.92156 
L 988.917356 -404.91384 
L 989.271347 -399.906121 
L 989.683792 -394.898401 
L 990.154484 -389.890681 
L 990.681698 -384.882962 
L 991.262049 -379.875242 
L 991.890454 -374.867522 
L 992.560226 -369.859803 
L 993.263299 -364.852083 
L 993.990611 -359.844363 
L 994.7326 -354.836644 
L 995.4798 -349.828924 
L 996.223499 -344.821204 
L 996.956385 -339.813485 
L 997.673132 -334.805765 
L 998.370871 -329.798046 
L 999.04947 -324.790326 
L 999.711598 -319.782606 
L 1000.362529 -314.774887 
L 1001.009691 -309.767167 
L 1001.661964 -304.759447 
L 1002.328773 -299.751728 
L 1003.019032 -294.744008 
L 1003.740012 -289.736288 
L 1004.49624 -284.728569 
L 1005.288501 -279.720849 
L 1006.113052 -274.713129 
L 1006.961118 -269.70541 
L 1007.818752 -264.69769 
L 1008.667064 -259.68997 
L 1009.482858 -254.682251 
L 1010.239637 -249.674531 
L 1010.908918 -244.666811 
L 1011.461786 -239.659092 
L 1011.870558 -234.651372 
L 1012.110465 -229.643652 
L 1012.161208 -224.635933 
L 1012.008278 -219.628213 
L 1011.643953 -214.620493 
L 1011.067883 -209.612774 
L 1010.287236 -204.605054 
L 1009.316391 -199.597334 
L 1008.176219 -194.589615 
L 1006.892997 -189.581895 
L 1005.497057 -184.574175 
L 1004.021258 -179.566456 
L 1002.4994 -174.558736 
L 1000.964683 -169.551016 
L 999.448306 -164.543297 
L 997.978288 -159.535577 
L 996.578568 -154.527857 
L 995.268403 -149.520138 
L 994.062083 -144.512418 
L 992.968945 -139.504699 
L 991.993631 -134.496979 
L 991.136563 -129.489259 
L 990.394568 -124.48154 
L 989.761579 -119.47382 
L 989.22938 -114.4661 
L 988.788326 -109.458381 
L 988.427997 -104.450661 
z
" id="m4bd120da2a" style="stroke:#484848;stroke-width:1.5;"/>
    </defs>
    <g clip-path="url(#p1c393d3097)">
     <use style="fill:#4483ab;stroke:#484848;stroke-width:1.5;" x="0" xlink:href="#m4bd120da2a" y="720"/>
    </g>
   </g>
   <g id="matplotlib.axis_1">
    <g id="xtick_1">
     <g id="line2d_1">
      <defs>
       <path d="M 0 0 
L 0 3.5 
" id="mb10d88a71b" style="stroke:#000000;stroke-width:0.8;"/>
      </defs>
      <g>
       <use style="stroke:#000000;stroke-width:0.8;" x="193.6" xlink:href="#mb10d88a71b" y="640.8"/>
      </g>
     </g>
     <g id="text_1">
      <!-- Player1_healthy -->
      <g transform="translate(153.572656 655.398438)scale(0.1 -0.1)">
       <defs>
        <path d="M 1259 4147 
L 1259 2394 
L 2053 2394 
Q 2494 2394 2734 2622 
Q 2975 2850 2975 3272 
Q 2975 3691 2734 3919 
Q 2494 4147 2053 4147 
L 1259 4147 
z
M 628 4666 
L 2053 4666 
Q 2838 4666 3239 4311 
Q 3641 3956 3641 3272 
Q 3641 2581 3239 2228 
Q 2838 1875 2053 1875 
L 1259 1875 
L 1259 0 
L 628 0 
L 628 4666 
z
" id="DejaVuSans-50" transform="scale(0.015625)"/>
        <path d="M 603 4863 
L 1178 4863 
L 1178 0 
L 603 0 
L 603 4863 
z
" id="DejaVuSans-6c" transform="scale(0.015625)"/>
        <path d="M 2194 1759 
Q 1497 1759 1228 1600 
Q 959 1441 959 1056 
Q 959 750 1161 570 
Q 1363 391 1709 391 
Q 2188 391 2477 730 
Q 2766 1069 2766 1631 
L 2766 1759 
L 2194 1759 
z
M 3341 1997 
L 3341 0 
L 2766 0 
L 2766 531 
Q 2569 213 2275 61 
Q 1981 -91 1556 -91 
Q 1019 -91 701 211 
Q 384 513 384 1019 
Q 384 1609 779 1909 
Q 1175 2209 1959 2209 
L 2766 2209 
L 2766 2266 
Q 2766 2663 2505 2880 
Q 2244 3097 1772 3097 
Q 1472 3097 1187 3025 
Q 903 2953 641 2809 
L 641 3341 
Q 956 3463 1253 3523 
Q 1550 3584 1831 3584 
Q 2591 3584 2966 3190 
Q 3341 2797 3341 1997 
z
" id="DejaVuSans-61" transform="scale(0.015625)"/>
        <path d="M 2059 -325 
Q 1816 -950 1584 -1140 
Q 1353 -1331 966 -1331 
L 506 -1331 
L 506 -850 
L 844 -850 
Q 1081 -850 1212 -737 
Q 1344 -625 1503 -206 
L 1606 56 
L 191 3500 
L 800 3500 
L 1894 763 
L 2988 3500 
L 3597 3500 
L 2059 -325 
z
" id="DejaVuSans-79" transform="scale(0.015625)"/>
        <path d="M 3597 1894 
L 3597 1613 
L 953 1613 
Q 991 1019 1311 708 
Q 1631 397 2203 397 
Q 2534 397 2845 478 
Q 3156 559 3463 722 
L 3463 178 
Q 3153 47 2828 -22 
Q 2503 -91 2169 -91 
Q 1331 -91 842 396 
Q 353 884 353 1716 
Q 353 2575 817 3079 
Q 1281 3584 2069 3584 
Q 2775 3584 3186 3129 
Q 3597 2675 3597 1894 
z
M 3022 2063 
Q 3016 2534 2758 2815 
Q 2500 3097 2075 3097 
Q 1594 3097 1305 2825 
Q 1016 2553 972 2059 
L 3022 2063 
z
" id="DejaVuSans-65" transform="scale(0.015625)"/>
        <path d="M 2631 2963 
Q 2534 3019 2420 3045 
Q 2306 3072 2169 3072 
Q 1681 3072 1420 2755 
Q 1159 2438 1159 1844 
L 1159 0 
L 581 0 
L 581 3500 
L 1159 3500 
L 1159 2956 
Q 1341 3275 1631 3429 
Q 1922 3584 2338 3584 
Q 2397 3584 2469 3576 
Q 2541 3569 2628 3553 
L 2631 2963 
z
" id="DejaVuSans-72" transform="scale(0.015625)"/>
        <path d="M 794 531 
L 1825 531 
L 1825 4091 
L 703 3866 
L 703 4441 
L 1819 4666 
L 2450 4666 
L 2450 531 
L 3481 531 
L 3481 0 
L 794 0 
L 794 531 
z
" id="DejaVuSans-31" transform="scale(0.015625)"/>
        <path d="M 3263 -1063 
L 3263 -1509 
L -63 -1509 
L -63 -1063 
L 3263 -1063 
z
" id="DejaVuSans-5f" transform="scale(0.015625)"/>
        <path d="M 3513 2113 
L 3513 0 
L 2938 0 
L 2938 2094 
Q 2938 2591 2744 2837 
Q 2550 3084 2163 3084 
Q 1697 3084 1428 2787 
Q 1159 2491 1159 1978 
L 1159 0 
L 581 0 
L 581 4863 
L 1159 4863 
L 1159 2956 
Q 1366 3272 1645 3428 
Q 1925 3584 2291 3584 
Q 2894 3584 3203 3211 
Q 3513 2838 3513 2113 
z
" id="DejaVuSans-68" transform="scale(0.015625)"/>
        <path d="M 1172 4494 
L 1172 3500 
L 2356 3500 
L 2356 3053 
L 1172 3053 
L 1172 1153 
Q 1172 725 1289 603 
Q 1406 481 1766 481 
L 2356 481 
L 2356 0 
L 1766 0 
Q 1100 0 847 248 
Q 594 497 594 1153 
L 594 3053 
L 172 3053 
L 172 3500 
L 594 3500 
L 594 4494 
L 1172 4494 
z
" id="DejaVuSans-74" transform="scale(0.015625)"/>
       </defs>
       <use xlink:href="#DejaVuSans-50"/>
       <use x="60.302734" xlink:href="#DejaVuSans-6c"/>
       <use x="88.085938" xlink:href="#DejaVuSans-61"/>
       <use x="149.365234" xlink:href="#DejaVuSans-79"/>
       <use x="208.544922" xlink:href="#DejaVuSans-65"/>
       <use x="270.068359" xlink:href="#DejaVuSans-72"/>
       <use x="311.181641" xlink:href="#DejaVuSans-31"/>
       <use x="374.804688" xlink:href="#DejaVuSans-5f"/>
       <use x="424.804688" xlink:href="#DejaVuSans-68"/>
       <use x="488.183594" xlink:href="#DejaVuSans-65"/>
       <use x="549.707031" xlink:href="#DejaVuSans-61"/>
       <use x="610.986328" xlink:href="#DejaVuSans-6c"/>
       <use x="638.769531" xlink:href="#DejaVuSans-74"/>
       <use x="677.978516" xlink:href="#DejaVuSans-68"/>
       <use x="741.357422" xlink:href="#DejaVuSans-79"/>
      </g>
     </g>
    </g>
    <g id="xtick_2">
     <g id="line2d_2">
      <g>
       <use style="stroke:#000000;stroke-width:0.8;" x="292.8" xlink:href="#mb10d88a71b" y="640.8"/>
      </g>
     </g>
     <g id="text_2">
      <!-- biased_A -->
      <g transform="translate(270.396875 655.398438)scale(0.1 -0.1)">
       <defs>
        <path d="M 3116 1747 
Q 3116 2381 2855 2742 
Q 2594 3103 2138 3103 
Q 1681 3103 1420 2742 
Q 1159 2381 1159 1747 
Q 1159 1113 1420 752 
Q 1681 391 2138 391 
Q 2594 391 2855 752 
Q 3116 1113 3116 1747 
z
M 1159 2969 
Q 1341 3281 1617 3432 
Q 1894 3584 2278 3584 
Q 2916 3584 3314 3078 
Q 3713 2572 3713 1747 
Q 3713 922 3314 415 
Q 2916 -91 2278 -91 
Q 1894 -91 1617 61 
Q 1341 213 1159 525 
L 1159 0 
L 581 0 
L 581 4863 
L 1159 4863 
L 1159 2969 
z
" id="DejaVuSans-62" transform="scale(0.015625)"/>
        <path d="M 603 3500 
L 1178 3500 
L 1178 0 
L 603 0 
L 603 3500 
z
M 603 4863 
L 1178 4863 
L 1178 4134 
L 603 4134 
L 603 4863 
z
" id="DejaVuSans-69" transform="scale(0.015625)"/>
        <path d="M 2834 3397 
L 2834 2853 
Q 2591 2978 2328 3040 
Q 2066 3103 1784 3103 
Q 1356 3103 1142 2972 
Q 928 2841 928 2578 
Q 928 2378 1081 2264 
Q 1234 2150 1697 2047 
L 1894 2003 
Q 2506 1872 2764 1633 
Q 3022 1394 3022 966 
Q 3022 478 2636 193 
Q 2250 -91 1575 -91 
Q 1294 -91 989 -36 
Q 684 19 347 128 
L 347 722 
Q 666 556 975 473 
Q 1284 391 1588 391 
Q 1994 391 2212 530 
Q 2431 669 2431 922 
Q 2431 1156 2273 1281 
Q 2116 1406 1581 1522 
L 1381 1569 
Q 847 1681 609 1914 
Q 372 2147 372 2553 
Q 372 3047 722 3315 
Q 1072 3584 1716 3584 
Q 2034 3584 2315 3537 
Q 2597 3491 2834 3397 
z
" id="DejaVuSans-73" transform="scale(0.015625)"/>
        <path d="M 2906 2969 
L 2906 4863 
L 3481 4863 
L 3481 0 
L 2906 0 
L 2906 525 
Q 2725 213 2448 61 
Q 2172 -91 1784 -91 
Q 1150 -91 751 415 
Q 353 922 353 1747 
Q 353 2572 751 3078 
Q 1150 3584 1784 3584 
Q 2172 3584 2448 3432 
Q 2725 3281 2906 2969 
z
M 947 1747 
Q 947 1113 1208 752 
Q 1469 391 1925 391 
Q 2381 391 2643 752 
Q 2906 1113 2906 1747 
Q 2906 2381 2643 2742 
Q 2381 3103 1925 3103 
Q 1469 3103 1208 2742 
Q 947 2381 947 1747 
z
" id="DejaVuSans-64" transform="scale(0.015625)"/>
        <path d="M 2188 4044 
L 1331 1722 
L 3047 1722 
L 2188 4044 
z
M 1831 4666 
L 2547 4666 
L 4325 0 
L 3669 0 
L 3244 1197 
L 1141 1197 
L 716 0 
L 50 0 
L 1831 4666 
z
" id="DejaVuSans-41" transform="scale(0.015625)"/>
       </defs>
       <use xlink:href="#DejaVuSans-62"/>
       <use x="63.476562" xlink:href="#DejaVuSans-69"/>
       <use x="91.259766" xlink:href="#DejaVuSans-61"/>
       <use x="152.539062" xlink:href="#DejaVuSans-73"/>
       <use x="204.638672" xlink:href="#DejaVuSans-65"/>
       <use x="266.162109" xlink:href="#DejaVuSans-64"/>
       <use x="329.638672" xlink:href="#DejaVuSans-5f"/>
       <use x="379.638672" xlink:href="#DejaVuSans-41"/>
      </g>
     </g>
    </g>
    <g id="xtick_3">
     <g id="line2d_3">
      <g>
       <use style="stroke:#000000;stroke-width:0.8;" x="392" xlink:href="#mb10d88a71b" y="640.8"/>
      </g>
     </g>
     <g id="text_3">
      <!-- biased_B -->
      <g transform="translate(369.586719 655.398438)scale(0.1 -0.1)">
       <defs>
        <path d="M 1259 2228 
L 1259 519 
L 2272 519 
Q 2781 519 3026 730 
Q 3272 941 3272 1375 
Q 3272 1813 3026 2020 
Q 2781 2228 2272 2228 
L 1259 2228 
z
M 1259 4147 
L 1259 2741 
L 2194 2741 
Q 2656 2741 2882 2914 
Q 3109 3088 3109 3444 
Q 3109 3797 2882 3972 
Q 2656 4147 2194 4147 
L 1259 4147 
z
M 628 4666 
L 2241 4666 
Q 2963 4666 3353 4366 
Q 3744 4066 3744 3513 
Q 3744 3084 3544 2831 
Q 3344 2578 2956 2516 
Q 3422 2416 3680 2098 
Q 3938 1781 3938 1306 
Q 3938 681 3513 340 
Q 3088 0 2303 0 
L 628 0 
L 628 4666 
z
" id="DejaVuSans-42" transform="scale(0.015625)"/>
       </defs>
       <use xlink:href="#DejaVuSans-62"/>
       <use x="63.476562" xlink:href="#DejaVuSans-69"/>
       <use x="91.259766" xlink:href="#DejaVuSans-61"/>
       <use x="152.539062" xlink:href="#DejaVuSans-73"/>
       <use x="204.638672" xlink:href="#DejaVuSans-65"/>
       <use x="266.162109" xlink:href="#DejaVuSans-64"/>
       <use x="329.638672" xlink:href="#DejaVuSans-5f"/>
       <use x="379.638672" xlink:href="#DejaVuSans-42"/>
      </g>
     </g>
    </g>
    <g id="xtick_4">
     <g id="line2d_4">
      <g>
       <use style="stroke:#000000;stroke-width:0.8;" x="491.2" xlink:href="#mb10d88a71b" y="640.8"/>
      </g>
     </g>
     <g id="text_4">
      <!-- biased_C -->
      <g transform="translate(468.725781 655.398438)scale(0.1 -0.1)">
       <defs>
        <path d="M 4122 4306 
L 4122 3641 
Q 3803 3938 3442 4084 
Q 3081 4231 2675 4231 
Q 1875 4231 1450 3742 
Q 1025 3253 1025 2328 
Q 1025 1406 1450 917 
Q 1875 428 2675 428 
Q 3081 428 3442 575 
Q 3803 722 4122 1019 
L 4122 359 
Q 3791 134 3420 21 
Q 3050 -91 2638 -91 
Q 1578 -91 968 557 
Q 359 1206 359 2328 
Q 359 3453 968 4101 
Q 1578 4750 2638 4750 
Q 3056 4750 3426 4639 
Q 3797 4528 4122 4306 
z
" id="DejaVuSans-43" transform="scale(0.015625)"/>
       </defs>
       <use xlink:href="#DejaVuSans-62"/>
       <use x="63.476562" xlink:href="#DejaVuSans-69"/>
       <use x="91.259766" xlink:href="#DejaVuSans-61"/>
       <use x="152.539062" xlink:href="#DejaVuSans-73"/>
       <use x="204.638672" xlink:href="#DejaVuSans-65"/>
       <use x="266.162109" xlink:href="#DejaVuSans-64"/>
       <use x="329.638672" xlink:href="#DejaVuSans-5f"/>
       <use x="379.638672" xlink:href="#DejaVuSans-43"/>
      </g>
     </g>
    </g>
    <g id="xtick_5">
     <g id="line2d_5">
      <g>
       <use style="stroke:#000000;stroke-width:0.8;" x="590.4" xlink:href="#mb10d88a71b" y="640.8"/>
      </g>
     </g>
     <g id="text_5">
      <!-- biased_D -->
      <g transform="translate(567.567187 655.398438)scale(0.1 -0.1)">
       <defs>
        <path d="M 1259 4147 
L 1259 519 
L 2022 519 
Q 2988 519 3436 956 
Q 3884 1394 3884 2338 
Q 3884 3275 3436 3711 
Q 2988 4147 2022 4147 
L 1259 4147 
z
M 628 4666 
L 1925 4666 
Q 3281 4666 3915 4102 
Q 4550 3538 4550 2338 
Q 4550 1131 3912 565 
Q 3275 0 1925 0 
L 628 0 
L 628 4666 
z
" id="DejaVuSans-44" transform="scale(0.015625)"/>
       </defs>
       <use xlink:href="#DejaVuSans-62"/>
       <use x="63.476562" xlink:href="#DejaVuSans-69"/>
       <use x="91.259766" xlink:href="#DejaVuSans-61"/>
       <use x="152.539062" xlink:href="#DejaVuSans-73"/>
       <use x="204.638672" xlink:href="#DejaVuSans-65"/>
       <use x="266.162109" xlink:href="#DejaVuSans-64"/>
       <use x="329.638672" xlink:href="#DejaVuSans-5f"/>
       <use x="379.638672" xlink:href="#DejaVuSans-44"/>
      </g>
     </g>
    </g>
    <g id="xtick_6">
     <g id="line2d_6">
      <g>
       <use style="stroke:#000000;stroke-width:0.8;" x="689.6" xlink:href="#mb10d88a71b" y="640.8"/>
      </g>
     </g>
     <g id="text_6">
      <!-- Type1_depressed -->
      <g transform="translate(646.53125 655.398438)scale(0.1 -0.1)">
       <defs>
        <path d="M -19 4666 
L 3928 4666 
L 3928 4134 
L 2272 4134 
L 2272 0 
L 1638 0 
L 1638 4134 
L -19 4134 
L -19 4666 
z
" id="DejaVuSans-54" transform="scale(0.015625)"/>
        <path d="M 1159 525 
L 1159 -1331 
L 581 -1331 
L 581 3500 
L 1159 3500 
L 1159 2969 
Q 1341 3281 1617 3432 
Q 1894 3584 2278 3584 
Q 2916 3584 3314 3078 
Q 3713 2572 3713 1747 
Q 3713 922 3314 415 
Q 2916 -91 2278 -91 
Q 1894 -91 1617 61 
Q 1341 213 1159 525 
z
M 3116 1747 
Q 3116 2381 2855 2742 
Q 2594 3103 2138 3103 
Q 1681 3103 1420 2742 
Q 1159 2381 1159 1747 
Q 1159 1113 1420 752 
Q 1681 391 2138 391 
Q 2594 391 2855 752 
Q 3116 1113 3116 1747 
z
" id="DejaVuSans-70" transform="scale(0.015625)"/>
       </defs>
       <use xlink:href="#DejaVuSans-54"/>
       <use x="45.458984" xlink:href="#DejaVuSans-79"/>
       <use x="104.638672" xlink:href="#DejaVuSans-70"/>
       <use x="168.115234" xlink:href="#DejaVuSans-65"/>
       <use x="229.638672" xlink:href="#DejaVuSans-31"/>
       <use x="293.261719" xlink:href="#DejaVuSans-5f"/>
       <use x="343.261719" xlink:href="#DejaVuSans-64"/>
       <use x="406.738281" xlink:href="#DejaVuSans-65"/>
       <use x="468.261719" xlink:href="#DejaVuSans-70"/>
       <use x="531.738281" xlink:href="#DejaVuSans-72"/>
       <use x="570.601562" xlink:href="#DejaVuSans-65"/>
       <use x="632.125" xlink:href="#DejaVuSans-73"/>
       <use x="684.224609" xlink:href="#DejaVuSans-73"/>
       <use x="736.324219" xlink:href="#DejaVuSans-65"/>
       <use x="797.847656" xlink:href="#DejaVuSans-64"/>
      </g>
     </g>
    </g>
    <g id="xtick_7">
     <g id="line2d_7">
      <g>
       <use style="stroke:#000000;stroke-width:0.8;" x="788.8" xlink:href="#mb10d88a71b" y="640.8"/>
      </g>
     </g>
     <g id="text_7">
      <!-- Type2_depressed -->
      <g transform="translate(745.73125 655.398438)scale(0.1 -0.1)">
       <defs>
        <path d="M 1228 531 
L 3431 531 
L 3431 0 
L 469 0 
L 469 531 
Q 828 903 1448 1529 
Q 2069 2156 2228 2338 
Q 2531 2678 2651 2914 
Q 2772 3150 2772 3378 
Q 2772 3750 2511 3984 
Q 2250 4219 1831 4219 
Q 1534 4219 1204 4116 
Q 875 4013 500 3803 
L 500 4441 
Q 881 4594 1212 4672 
Q 1544 4750 1819 4750 
Q 2544 4750 2975 4387 
Q 3406 4025 3406 3419 
Q 3406 3131 3298 2873 
Q 3191 2616 2906 2266 
Q 2828 2175 2409 1742 
Q 1991 1309 1228 531 
z
" id="DejaVuSans-32" transform="scale(0.015625)"/>
       </defs>
       <use xlink:href="#DejaVuSans-54"/>
       <use x="45.458984" xlink:href="#DejaVuSans-79"/>
       <use x="104.638672" xlink:href="#DejaVuSans-70"/>
       <use x="168.115234" xlink:href="#DejaVuSans-65"/>
       <use x="229.638672" xlink:href="#DejaVuSans-32"/>
       <use x="293.261719" xlink:href="#DejaVuSans-5f"/>
       <use x="343.261719" xlink:href="#DejaVuSans-64"/>
       <use x="406.738281" xlink:href="#DejaVuSans-65"/>
       <use x="468.261719" xlink:href="#DejaVuSans-70"/>
       <use x="531.738281" xlink:href="#DejaVuSans-72"/>
       <use x="570.601562" xlink:href="#DejaVuSans-65"/>
       <use x="632.125" xlink:href="#DejaVuSans-73"/>
       <use x="684.224609" xlink:href="#DejaVuSans-73"/>
       <use x="736.324219" xlink:href="#DejaVuSans-65"/>
       <use x="797.847656" xlink:href="#DejaVuSans-64"/>
      </g>
     </g>
    </g>
    <g id="xtick_8">
     <g id="line2d_8">
      <g>
       <use style="stroke:#000000;stroke-width:0.8;" x="888" xlink:href="#mb10d88a71b" y="640.8"/>
      </g>
     </g>
     <g id="text_8">
      <!-- Type1_social_phobia -->
      <g transform="translate(837.050781 655.398438)scale(0.1 -0.1)">
       <defs>
        <path d="M 1959 3097 
Q 1497 3097 1228 2736 
Q 959 2375 959 1747 
Q 959 1119 1226 758 
Q 1494 397 1959 397 
Q 2419 397 2687 759 
Q 2956 1122 2956 1747 
Q 2956 2369 2687 2733 
Q 2419 3097 1959 3097 
z
M 1959 3584 
Q 2709 3584 3137 3096 
Q 3566 2609 3566 1747 
Q 3566 888 3137 398 
Q 2709 -91 1959 -91 
Q 1206 -91 779 398 
Q 353 888 353 1747 
Q 353 2609 779 3096 
Q 1206 3584 1959 3584 
z
" id="DejaVuSans-6f" transform="scale(0.015625)"/>
        <path d="M 3122 3366 
L 3122 2828 
Q 2878 2963 2633 3030 
Q 2388 3097 2138 3097 
Q 1578 3097 1268 2742 
Q 959 2388 959 1747 
Q 959 1106 1268 751 
Q 1578 397 2138 397 
Q 2388 397 2633 464 
Q 2878 531 3122 666 
L 3122 134 
Q 2881 22 2623 -34 
Q 2366 -91 2075 -91 
Q 1284 -91 818 406 
Q 353 903 353 1747 
Q 353 2603 823 3093 
Q 1294 3584 2113 3584 
Q 2378 3584 2631 3529 
Q 2884 3475 3122 3366 
z
" id="DejaVuSans-63" transform="scale(0.015625)"/>
       </defs>
       <use xlink:href="#DejaVuSans-54"/>
       <use x="45.458984" xlink:href="#DejaVuSans-79"/>
       <use x="104.638672" xlink:href="#DejaVuSans-70"/>
       <use x="168.115234" xlink:href="#DejaVuSans-65"/>
       <use x="229.638672" xlink:href="#DejaVuSans-31"/>
       <use x="293.261719" xlink:href="#DejaVuSans-5f"/>
       <use x="343.261719" xlink:href="#DejaVuSans-73"/>
       <use x="395.361328" xlink:href="#DejaVuSans-6f"/>
       <use x="456.542969" xlink:href="#DejaVuSans-63"/>
       <use x="511.523438" xlink:href="#DejaVuSans-69"/>
       <use x="539.306641" xlink:href="#DejaVuSans-61"/>
       <use x="600.585938" xlink:href="#DejaVuSans-6c"/>
       <use x="628.369141" xlink:href="#DejaVuSans-5f"/>
       <use x="678.369141" xlink:href="#DejaVuSans-70"/>
       <use x="741.845703" xlink:href="#DejaVuSans-68"/>
       <use x="805.224609" xlink:href="#DejaVuSans-6f"/>
       <use x="866.40625" xlink:href="#DejaVuSans-62"/>
       <use x="929.882812" xlink:href="#DejaVuSans-69"/>
       <use x="957.666016" xlink:href="#DejaVuSans-61"/>
      </g>
     </g>
    </g>
    <g id="xtick_9">
     <g id="line2d_9">
      <g>
       <use style="stroke:#000000;stroke-width:0.8;" x="987.2" xlink:href="#mb10d88a71b" y="640.8"/>
      </g>
     </g>
     <g id="text_9">
      <!-- Type2_social_phobia -->
      <g transform="translate(936.250781 655.398438)scale(0.1 -0.1)">
       <use xlink:href="#DejaVuSans-54"/>
       <use x="45.458984" xlink:href="#DejaVuSans-79"/>
       <use x="104.638672" xlink:href="#DejaVuSans-70"/>
       <use x="168.115234" xlink:href="#DejaVuSans-65"/>
       <use x="229.638672" xlink:href="#DejaVuSans-32"/>
       <use x="293.261719" xlink:href="#DejaVuSans-5f"/>
       <use x="343.261719" xlink:href="#DejaVuSans-73"/>
       <use x="395.361328" xlink:href="#DejaVuSans-6f"/>
       <use x="456.542969" xlink:href="#DejaVuSans-63"/>
       <use x="511.523438" xlink:href="#DejaVuSans-69"/>
       <use x="539.306641" xlink:href="#DejaVuSans-61"/>
       <use x="600.585938" xlink:href="#DejaVuSans-6c"/>
       <use x="628.369141" xlink:href="#DejaVuSans-5f"/>
       <use x="678.369141" xlink:href="#DejaVuSans-70"/>
       <use x="741.845703" xlink:href="#DejaVuSans-68"/>
       <use x="805.224609" xlink:href="#DejaVuSans-6f"/>
       <use x="866.40625" xlink:href="#DejaVuSans-62"/>
       <use x="929.882812" xlink:href="#DejaVuSans-69"/>
       <use x="957.666016" xlink:href="#DejaVuSans-61"/>
      </g>
     </g>
    </g>
   </g>
   <g id="matplotlib.axis_2">
    <g id="ytick_1">
     <g id="line2d_10">
      <defs>
       <path d="M 0 0 
L -3.5 0 
" id="mf44126fb02" style="stroke:#000000;stroke-width:0.8;"/>
      </defs>
      <g>
       <use style="stroke:#000000;stroke-width:0.8;" x="144" xlink:href="#mf44126fb02" y="616.746034"/>
      </g>
     </g>
     <g id="text_10">
      <!-- 15 -->
      <g transform="translate(124.275 620.545253)scale(0.1 -0.1)">
       <defs>
        <path d="M 691 4666 
L 3169 4666 
L 3169 4134 
L 1269 4134 
L 1269 2991 
Q 1406 3038 1543 3061 
Q 1681 3084 1819 3084 
Q 2600 3084 3056 2656 
Q 3513 2228 3513 1497 
Q 3513 744 3044 326 
Q 2575 -91 1722 -91 
Q 1428 -91 1123 -41 
Q 819 9 494 109 
L 494 744 
Q 775 591 1075 516 
Q 1375 441 1709 441 
Q 2250 441 2565 725 
Q 2881 1009 2881 1497 
Q 2881 1984 2565 2268 
Q 2250 2553 1709 2553 
Q 1456 2553 1204 2497 
Q 953 2441 691 2322 
L 691 4666 
z
" id="DejaVuSans-35" transform="scale(0.015625)"/>
       </defs>
       <use xlink:href="#DejaVuSans-31"/>
       <use x="63.623047" xlink:href="#DejaVuSans-35"/>
      </g>
     </g>
    </g>
    <g id="ytick_2">
     <g id="line2d_11">
      <g>
       <use style="stroke:#000000;stroke-width:0.8;" x="144" xlink:href="#mf44126fb02" y="530.856787"/>
      </g>
     </g>
     <g id="text_11">
      <!-- 20 -->
      <g transform="translate(124.275 534.656005)scale(0.1 -0.1)">
       <defs>
        <path d="M 2034 4250 
Q 1547 4250 1301 3770 
Q 1056 3291 1056 2328 
Q 1056 1369 1301 889 
Q 1547 409 2034 409 
Q 2525 409 2770 889 
Q 3016 1369 3016 2328 
Q 3016 3291 2770 3770 
Q 2525 4250 2034 4250 
z
M 2034 4750 
Q 2819 4750 3233 4129 
Q 3647 3509 3647 2328 
Q 3647 1150 3233 529 
Q 2819 -91 2034 -91 
Q 1250 -91 836 529 
Q 422 1150 422 2328 
Q 422 3509 836 4129 
Q 1250 4750 2034 4750 
z
" id="DejaVuSans-30" transform="scale(0.015625)"/>
       </defs>
       <use xlink:href="#DejaVuSans-32"/>
       <use x="63.623047" xlink:href="#DejaVuSans-30"/>
      </g>
     </g>
    </g>
    <g id="ytick_3">
     <g id="line2d_12">
      <g>
       <use style="stroke:#000000;stroke-width:0.8;" x="144" xlink:href="#mf44126fb02" y="444.967539"/>
      </g>
     </g>
     <g id="text_12">
      <!-- 25 -->
      <g transform="translate(124.275 448.766758)scale(0.1 -0.1)">
       <use xlink:href="#DejaVuSans-32"/>
       <use x="63.623047" xlink:href="#DejaVuSans-35"/>
      </g>
     </g>
    </g>
    <g id="ytick_4">
     <g id="line2d_13">
      <g>
       <use style="stroke:#000000;stroke-width:0.8;" x="144" xlink:href="#mf44126fb02" y="359.078291"/>
      </g>
     </g>
     <g id="text_13">
      <!-- 30 -->
      <g transform="translate(124.275 362.87751)scale(0.1 -0.1)">
       <defs>
        <path d="M 2597 2516 
Q 3050 2419 3304 2112 
Q 3559 1806 3559 1356 
Q 3559 666 3084 287 
Q 2609 -91 1734 -91 
Q 1441 -91 1130 -33 
Q 819 25 488 141 
L 488 750 
Q 750 597 1062 519 
Q 1375 441 1716 441 
Q 2309 441 2620 675 
Q 2931 909 2931 1356 
Q 2931 1769 2642 2001 
Q 2353 2234 1838 2234 
L 1294 2234 
L 1294 2753 
L 1863 2753 
Q 2328 2753 2575 2939 
Q 2822 3125 2822 3475 
Q 2822 3834 2567 4026 
Q 2313 4219 1838 4219 
Q 1578 4219 1281 4162 
Q 984 4106 628 3988 
L 628 4550 
Q 988 4650 1302 4700 
Q 1616 4750 1894 4750 
Q 2613 4750 3031 4423 
Q 3450 4097 3450 3541 
Q 3450 3153 3228 2886 
Q 3006 2619 2597 2516 
z
" id="DejaVuSans-33" transform="scale(0.015625)"/>
       </defs>
       <use xlink:href="#DejaVuSans-33"/>
       <use x="63.623047" xlink:href="#DejaVuSans-30"/>
      </g>
     </g>
    </g>
    <g id="ytick_5">
     <g id="line2d_14">
      <g>
       <use style="stroke:#000000;stroke-width:0.8;" x="144" xlink:href="#mf44126fb02" y="273.189044"/>
      </g>
     </g>
     <g id="text_14">
      <!-- 35 -->
      <g transform="translate(124.275 276.988262)scale(0.1 -0.1)">
       <use xlink:href="#DejaVuSans-33"/>
       <use x="63.623047" xlink:href="#DejaVuSans-35"/>
      </g>
     </g>
    </g>
    <g id="ytick_6">
     <g id="line2d_15">
      <g>
       <use style="stroke:#000000;stroke-width:0.8;" x="144" xlink:href="#mf44126fb02" y="187.299796"/>
      </g>
     </g>
     <g id="text_15">
      <!-- 40 -->
      <g transform="translate(124.275 191.099015)scale(0.1 -0.1)">
       <defs>
        <path d="M 2419 4116 
L 825 1625 
L 2419 1625 
L 2419 4116 
z
M 2253 4666 
L 3047 4666 
L 3047 1625 
L 3713 1625 
L 3713 1100 
L 3047 1100 
L 3047 0 
L 2419 0 
L 2419 1100 
L 313 1100 
L 313 1709 
L 2253 4666 
z
" id="DejaVuSans-34" transform="scale(0.015625)"/>
       </defs>
       <use xlink:href="#DejaVuSans-34"/>
       <use x="63.623047" xlink:href="#DejaVuSans-30"/>
      </g>
     </g>
    </g>
    <g id="ytick_7">
     <g id="line2d_16">
      <g>
       <use style="stroke:#000000;stroke-width:0.8;" x="144" xlink:href="#mf44126fb02" y="101.410548"/>
      </g>
     </g>
     <g id="text_16">
      <!-- 45 -->
      <g transform="translate(124.275 105.209767)scale(0.1 -0.1)">
       <use xlink:href="#DejaVuSans-34"/>
       <use x="63.623047" xlink:href="#DejaVuSans-35"/>
      </g>
     </g>
    </g>
   </g>
   <g id="line2d_17">
    <path clip-path="url(#p1c393d3097)" d="M 193.6 393.43399 
L 193.6 230.24442 
" style="fill:none;stroke:#484848;stroke-linecap:square;stroke-width:1.5;"/>
   </g>
   <g id="line2d_18">
    <path clip-path="url(#p1c393d3097)" d="M 193.6 363.372754 
L 193.6 305.397511 
" style="fill:none;stroke:#484848;stroke-linecap:square;stroke-width:4.5;"/>
   </g>
   <g id="line2d_19">
    <path clip-path="url(#p1c393d3097)" d="M 292.8 427.789689 
L 292.8 307.544743 
" style="fill:none;stroke:#484848;stroke-linecap:square;stroke-width:1.5;"/>
   </g>
   <g id="line2d_20">
    <path clip-path="url(#p1c393d3097)" d="M 292.8 378.403372 
L 292.8 333.311517 
" style="fill:none;stroke:#484848;stroke-linecap:square;stroke-width:4.5;"/>
   </g>
   <g id="line2d_21">
    <path clip-path="url(#p1c393d3097)" d="M 392 496.501088 
L 392 256.011194 
" style="fill:none;stroke:#484848;stroke-linecap:square;stroke-width:1.5;"/>
   </g>
   <g id="line2d_22">
    <path clip-path="url(#p1c393d3097)" d="M 392 406.317377 
L 392 313.986436 
" style="fill:none;stroke:#484848;stroke-linecap:square;stroke-width:4.5;"/>
   </g>
   <g id="line2d_23">
    <path clip-path="url(#p1c393d3097)" d="M 491.2 393.43399 
L 491.2 230.24442 
" style="fill:none;stroke:#484848;stroke-linecap:square;stroke-width:1.5;"/>
   </g>
   <g id="line2d_24">
    <path clip-path="url(#p1c393d3097)" d="M 491.2 350.489366 
L 491.2 262.452888 
" style="fill:none;stroke:#484848;stroke-linecap:square;stroke-width:4.5;"/>
   </g>
   <g id="line2d_25">
    <path clip-path="url(#p1c393d3097)" d="M 590.4 453.556464 
L 590.4 307.544743 
" style="fill:none;stroke:#484848;stroke-linecap:square;stroke-width:1.5;"/>
   </g>
   <g id="line2d_26">
    <path clip-path="url(#p1c393d3097)" d="M 590.4 397.728453 
L 590.4 333.311517 
" style="fill:none;stroke:#484848;stroke-linecap:square;stroke-width:4.5;"/>
   </g>
   <g id="line2d_27">
    <path clip-path="url(#p1c393d3097)" d="M 689.6 505.090012 
L 689.6 281.777968 
" style="fill:none;stroke:#484848;stroke-linecap:square;stroke-width:1.5;"/>
   </g>
   <g id="line2d_28">
    <path clip-path="url(#p1c393d3097)" d="M 689.6 412.759071 
L 689.6 335.458748 
" style="fill:none;stroke:#484848;stroke-linecap:square;stroke-width:4.5;"/>
   </g>
   <g id="line2d_29">
    <path clip-path="url(#p1c393d3097)" d="M 788.8 419.200765 
L 788.8 247.422269 
" style="fill:none;stroke:#484848;stroke-linecap:square;stroke-width:1.5;"/>
   </g>
   <g id="line2d_30">
    <path clip-path="url(#p1c393d3097)" d="M 788.8 361.225522 
L 788.8 296.808587 
" style="fill:none;stroke:#484848;stroke-linecap:square;stroke-width:4.5;"/>
   </g>
   <g id="line2d_31">
    <path clip-path="url(#p1c393d3097)" d="M 888 513.678937 
L 888 256.011194 
" style="fill:none;stroke:#484848;stroke-linecap:square;stroke-width:1.5;"/>
   </g>
   <g id="line2d_32">
    <path clip-path="url(#p1c393d3097)" d="M 888 457.850926 
L 888 305.397511 
" style="fill:none;stroke:#484848;stroke-linecap:square;stroke-width:4.5;"/>
   </g>
   <g id="line2d_33">
    <path clip-path="url(#p1c393d3097)" d="M 987.2 530.856787 
L 987.2 376.256141 
" style="fill:none;stroke:#484848;stroke-linecap:square;stroke-width:1.5;"/>
   </g>
   <g id="line2d_34">
    <path clip-path="url(#p1c393d3097)" d="M 987.2 505.090012 
L 987.2 423.495227 
" style="fill:none;stroke:#484848;stroke-linecap:square;stroke-width:4.5;"/>
   </g>
   <g id="patch_3">
    <path d="M 144 640.8 
L 144 86.4 
" style="fill:none;stroke:#000000;stroke-linecap:square;stroke-linejoin:miter;stroke-width:0.8;"/>
   </g>
   <g id="patch_4">
    <path d="M 1036.8 640.8 
L 1036.8 86.4 
" style="fill:none;stroke:#000000;stroke-linecap:square;stroke-linejoin:miter;stroke-width:0.8;"/>
   </g>
   <g id="patch_5">
    <path d="M 144 640.8 
L 1036.8 640.8 
" style="fill:none;stroke:#000000;stroke-linecap:square;stroke-linejoin:miter;stroke-width:0.8;"/>
   </g>
   <g id="patch_6">
    <path d="M 144 86.4 
L 1036.8 86.4 
" style="fill:none;stroke:#000000;stroke-linecap:square;stroke-linejoin:miter;stroke-width:0.8;"/>
   </g>
   <g id="PathCollection_1">
    <defs>
     <path d="M 0 1.5 
C 0.397805 1.5 0.77937 1.341951 1.06066 1.06066 
C 1.341951 0.77937 1.5 0.397805 1.5 0 
C 1.5 -0.397805 1.341951 -0.77937 1.06066 -1.06066 
C 0.77937 -1.341951 0.397805 -1.5 0 -1.5 
C -0.397805 -1.5 -0.77937 -1.341951 -1.06066 -1.06066 
C -1.341951 -0.77937 -1.5 -0.397805 -1.5 0 
C -1.5 0.397805 -1.341951 0.77937 -1.06066 1.06066 
C -0.77937 1.341951 -0.397805 1.5 0 1.5 
z
" id="m0a93810be8" style="stroke:#484848;"/>
    </defs>
    <g clip-path="url(#p1c393d3097)">
     <use style="fill:#ffffff;stroke:#484848;" x="193.6" xlink:href="#m0a93810be8" y="324.722592"/>
    </g>
   </g>
   <g id="PathCollection_2">
    <g clip-path="url(#p1c393d3097)">
     <use style="fill:#ffffff;stroke:#484848;" x="292.8" xlink:href="#m0a93810be8" y="354.783829"/>
    </g>
   </g>
   <g id="PathCollection_3">
    <g clip-path="url(#p1c393d3097)">
     <use style="fill:#ffffff;stroke:#484848;" x="392" xlink:href="#m0a93810be8" y="363.372754"/>
    </g>
   </g>
   <g id="PathCollection_4">
    <g clip-path="url(#p1c393d3097)">
     <use style="fill:#ffffff;stroke:#484848;" x="491.2" xlink:href="#m0a93810be8" y="303.25028"/>
    </g>
   </g>
   <g id="PathCollection_5">
    <g clip-path="url(#p1c393d3097)">
     <use style="fill:#ffffff;stroke:#484848;" x="590.4" xlink:href="#m0a93810be8" y="359.078291"/>
    </g>
   </g>
   <g id="PathCollection_6">
    <g clip-path="url(#p1c393d3097)">
     <use style="fill:#ffffff;stroke:#484848;" x="689.6" xlink:href="#m0a93810be8" y="371.961678"/>
    </g>
   </g>
   <g id="PathCollection_7">
    <g clip-path="url(#p1c393d3097)">
     <use style="fill:#ffffff;stroke:#484848;" x="788.8" xlink:href="#m0a93810be8" y="316.133667"/>
    </g>
   </g>
   <g id="PathCollection_8">
    <g clip-path="url(#p1c393d3097)">
     <use style="fill:#ffffff;stroke:#484848;" x="888" xlink:href="#m0a93810be8" y="341.900442"/>
    </g>
   </g>
   <g id="PathCollection_9">
    <g clip-path="url(#p1c393d3097)">
     <use style="fill:#ffffff;stroke:#484848;" x="987.2" xlink:href="#m0a93810be8" y="487.912163"/>
    </g>
   </g>
   <g id="text_17">
    <!-- Rewards earned per agent type - cooperative context first -->
    <g transform="translate(226.825781 80.4)scale(0.25 -0.25)">
     <defs>
      <path d="M 2841 2188 
Q 3044 2119 3236 1894 
Q 3428 1669 3622 1275 
L 4263 0 
L 3584 0 
L 2988 1197 
Q 2756 1666 2539 1819 
Q 2322 1972 1947 1972 
L 1259 1972 
L 1259 0 
L 628 0 
L 628 4666 
L 2053 4666 
Q 2853 4666 3247 4331 
Q 3641 3997 3641 3322 
Q 3641 2881 3436 2590 
Q 3231 2300 2841 2188 
z
M 1259 4147 
L 1259 2491 
L 2053 2491 
Q 2509 2491 2742 2702 
Q 2975 2913 2975 3322 
Q 2975 3731 2742 3939 
Q 2509 4147 2053 4147 
L 1259 4147 
z
" id="DejaVuSans-52" transform="scale(0.015625)"/>
      <path d="M 269 3500 
L 844 3500 
L 1563 769 
L 2278 3500 
L 2956 3500 
L 3675 769 
L 4391 3500 
L 4966 3500 
L 4050 0 
L 3372 0 
L 2619 2869 
L 1863 0 
L 1184 0 
L 269 3500 
z
" id="DejaVuSans-77" transform="scale(0.015625)"/>
      <path id="DejaVuSans-20" transform="scale(0.015625)"/>
      <path d="M 3513 2113 
L 3513 0 
L 2938 0 
L 2938 2094 
Q 2938 2591 2744 2837 
Q 2550 3084 2163 3084 
Q 1697 3084 1428 2787 
Q 1159 2491 1159 1978 
L 1159 0 
L 581 0 
L 581 3500 
L 1159 3500 
L 1159 2956 
Q 1366 3272 1645 3428 
Q 1925 3584 2291 3584 
Q 2894 3584 3203 3211 
Q 3513 2838 3513 2113 
z
" id="DejaVuSans-6e" transform="scale(0.015625)"/>
      <path d="M 2906 1791 
Q 2906 2416 2648 2759 
Q 2391 3103 1925 3103 
Q 1463 3103 1205 2759 
Q 947 2416 947 1791 
Q 947 1169 1205 825 
Q 1463 481 1925 481 
Q 2391 481 2648 825 
Q 2906 1169 2906 1791 
z
M 3481 434 
Q 3481 -459 3084 -895 
Q 2688 -1331 1869 -1331 
Q 1566 -1331 1297 -1286 
Q 1028 -1241 775 -1147 
L 775 -588 
Q 1028 -725 1275 -790 
Q 1522 -856 1778 -856 
Q 2344 -856 2625 -561 
Q 2906 -266 2906 331 
L 2906 616 
Q 2728 306 2450 153 
Q 2172 0 1784 0 
Q 1141 0 747 490 
Q 353 981 353 1791 
Q 353 2603 747 3093 
Q 1141 3584 1784 3584 
Q 2172 3584 2450 3431 
Q 2728 3278 2906 2969 
L 2906 3500 
L 3481 3500 
L 3481 434 
z
" id="DejaVuSans-67" transform="scale(0.015625)"/>
      <path d="M 313 2009 
L 1997 2009 
L 1997 1497 
L 313 1497 
L 313 2009 
z
" id="DejaVuSans-2d" transform="scale(0.015625)"/>
      <path d="M 191 3500 
L 800 3500 
L 1894 563 
L 2988 3500 
L 3597 3500 
L 2284 0 
L 1503 0 
L 191 3500 
z
" id="DejaVuSans-76" transform="scale(0.015625)"/>
      <path d="M 3513 3500 
L 2247 1797 
L 3578 0 
L 2900 0 
L 1881 1375 
L 863 0 
L 184 0 
L 1544 1831 
L 300 3500 
L 978 3500 
L 1906 2253 
L 2834 3500 
L 3513 3500 
z
" id="DejaVuSans-78" transform="scale(0.015625)"/>
      <path d="M 2375 4863 
L 2375 4384 
L 1825 4384 
Q 1516 4384 1395 4259 
Q 1275 4134 1275 3809 
L 1275 3500 
L 2222 3500 
L 2222 3053 
L 1275 3053 
L 1275 0 
L 697 0 
L 697 3053 
L 147 3053 
L 147 3500 
L 697 3500 
L 697 3744 
Q 697 4328 969 4595 
Q 1241 4863 1831 4863 
L 2375 4863 
z
" id="DejaVuSans-66" transform="scale(0.015625)"/>
     </defs>
     <use xlink:href="#DejaVuSans-52"/>
     <use x="64.982422" xlink:href="#DejaVuSans-65"/>
     <use x="126.505859" xlink:href="#DejaVuSans-77"/>
     <use x="208.292969" xlink:href="#DejaVuSans-61"/>
     <use x="269.572266" xlink:href="#DejaVuSans-72"/>
     <use x="308.935547" xlink:href="#DejaVuSans-64"/>
     <use x="372.412109" xlink:href="#DejaVuSans-73"/>
     <use x="424.511719" xlink:href="#DejaVuSans-20"/>
     <use x="456.298828" xlink:href="#DejaVuSans-65"/>
     <use x="517.822266" xlink:href="#DejaVuSans-61"/>
     <use x="579.101562" xlink:href="#DejaVuSans-72"/>
     <use x="618.464844" xlink:href="#DejaVuSans-6e"/>
     <use x="681.84375" xlink:href="#DejaVuSans-65"/>
     <use x="743.367188" xlink:href="#DejaVuSans-64"/>
     <use x="806.84375" xlink:href="#DejaVuSans-20"/>
     <use x="838.630859" xlink:href="#DejaVuSans-70"/>
     <use x="902.107422" xlink:href="#DejaVuSans-65"/>
     <use x="963.630859" xlink:href="#DejaVuSans-72"/>
     <use x="1004.744141" xlink:href="#DejaVuSans-20"/>
     <use x="1036.53125" xlink:href="#DejaVuSans-61"/>
     <use x="1097.810547" xlink:href="#DejaVuSans-67"/>
     <use x="1161.287109" xlink:href="#DejaVuSans-65"/>
     <use x="1222.810547" xlink:href="#DejaVuSans-6e"/>
     <use x="1286.189453" xlink:href="#DejaVuSans-74"/>
     <use x="1325.398438" xlink:href="#DejaVuSans-20"/>
     <use x="1357.185547" xlink:href="#DejaVuSans-74"/>
     <use x="1396.394531" xlink:href="#DejaVuSans-79"/>
     <use x="1455.574219" xlink:href="#DejaVuSans-70"/>
     <use x="1519.050781" xlink:href="#DejaVuSans-65"/>
     <use x="1580.574219" xlink:href="#DejaVuSans-20"/>
     <use x="1612.361328" xlink:href="#DejaVuSans-2d"/>
     <use x="1648.445312" xlink:href="#DejaVuSans-20"/>
     <use x="1680.232422" xlink:href="#DejaVuSans-63"/>
     <use x="1735.212891" xlink:href="#DejaVuSans-6f"/>
     <use x="1796.394531" xlink:href="#DejaVuSans-6f"/>
     <use x="1857.576172" xlink:href="#DejaVuSans-70"/>
     <use x="1921.052734" xlink:href="#DejaVuSans-65"/>
     <use x="1982.576172" xlink:href="#DejaVuSans-72"/>
     <use x="2023.689453" xlink:href="#DejaVuSans-61"/>
     <use x="2084.96875" xlink:href="#DejaVuSans-74"/>
     <use x="2124.177734" xlink:href="#DejaVuSans-69"/>
     <use x="2151.960938" xlink:href="#DejaVuSans-76"/>
     <use x="2211.140625" xlink:href="#DejaVuSans-65"/>
     <use x="2272.664062" xlink:href="#DejaVuSans-20"/>
     <use x="2304.451172" xlink:href="#DejaVuSans-63"/>
     <use x="2359.431641" xlink:href="#DejaVuSans-6f"/>
     <use x="2420.613281" xlink:href="#DejaVuSans-6e"/>
     <use x="2483.992188" xlink:href="#DejaVuSans-74"/>
     <use x="2523.201172" xlink:href="#DejaVuSans-65"/>
     <use x="2582.974609" xlink:href="#DejaVuSans-78"/>
     <use x="2642.154297" xlink:href="#DejaVuSans-74"/>
     <use x="2681.363281" xlink:href="#DejaVuSans-20"/>
     <use x="2713.150391" xlink:href="#DejaVuSans-66"/>
     <use x="2748.355469" xlink:href="#DejaVuSans-69"/>
     <use x="2776.138672" xlink:href="#DejaVuSans-72"/>
     <use x="2817.251953" xlink:href="#DejaVuSans-73"/>
     <use x="2869.351562" xlink:href="#DejaVuSans-74"/>
    </g>
   </g>
  </g>
 </g>
 <defs>
  <clipPath id="p1c393d3097">
   <rect height="554.4" width="892.8" x="144" y="86.4"/>
  </clipPath>
 </defs>
</svg>
