<?xml version="1.0" encoding="utf-8" standalone="no"?>
<!DOCTYPE svg PUBLIC "-//W3C//DTD SVG 1.1//EN"
  "http://www.w3.org/Graphics/SVG/1.1/DTD/svg11.dtd">
<svg height="583.2pt" version="1.1" viewBox="0 0 1152 583.2" width="1152pt" xmlns="http://www.w3.org/2000/svg" xmlns:xlink="http://www.w3.org/1999/xlink">
 <metadata>
  <rdf:RDF xmlns:cc="http://creativecommons.org/ns#" xmlns:dc="http://purl.org/dc/elements/1.1/" xmlns:rdf="http://www.w3.org/1999/02/22-rdf-syntax-ns#">
   <cc:Work>
    <dc:type rdf:resource="http://purl.org/dc/dcmitype/StillImage"/>
    <dc:date>2024-06-18T15:45:21.144069</dc:date>
    <dc:format>image/svg+xml</dc:format>
    <dc:creator>
     <cc:Agent>
      <dc:title>Matplotlib v3.4.3, https://matplotlib.org/</dc:title>
     </cc:Agent>
    </dc:creator>
   </cc:Work>
  </rdf:RDF>
 </metadata>
 <defs>
  <style type="text/css">*{stroke-linecap:butt;stroke-linejoin:round;}</style>
 </defs>
 <g id="figure_1">
  <g id="patch_1">
   <path d="M 0 583.2 
L 1152 583.2 
L 1152 0 
L 0 0 
z
" style="fill:#ffffff;"/>
  </g>
  <g id="axes_1">
   <g id="patch_2">
    <path d="M 144 519.048 
L 1036.8 519.048 
L 1036.8 69.984 
L 144 69.984 
z
" style="fill:#ffffff;"/>
   </g>
   <g id="PolyCollection_1">
    <defs>
     <path d="M 193.984908 -138.999791 
L 193.215092 -138.999791 
L 193.114091 -142.16798 
L 192.993801 -145.336168 
L 192.852573 -148.504356 
L 192.689143 -151.672544 
L 192.502776 -154.840732 
L 192.293391 -158.00892 
L 192.061681 -161.177108 
L 191.809192 -164.345296 
L 191.538366 -167.513484 
L 191.252523 -170.681672 
L 190.955784 -173.84986 
L 190.652925 -177.018048 
L 190.349164 -180.186236 
L 190.04989 -183.354424 
L 189.760339 -186.522612 
L 189.485241 -189.6908 
L 189.228463 -192.858988 
L 188.992658 -196.027176 
L 188.778966 -199.195364 
L 188.586781 -202.363552 
L 188.413611 -205.53174 
L 188.255049 -208.699928 
L 188.10486 -211.868116 
L 187.955194 -215.036304 
L 187.796915 -218.204492 
L 187.620024 -221.37268 
L 187.414151 -224.540868 
L 187.169094 -227.709056 
L 186.875359 -230.877244 
L 186.524662 -234.045432 
L 186.110371 -237.21362 
L 185.627844 -240.381808 
L 185.074652 -243.549996 
L 184.450674 -246.718184 
L 183.758058 -249.886372 
L 183.001068 -253.05456 
L 182.18583 -256.222748 
L 181.320004 -259.390936 
L 180.412419 -262.559124 
L 179.472699 -265.727312 
L 178.510906 -268.8955 
L 177.537245 -272.063688 
L 176.561819 -275.231876 
L 175.594474 -278.400064 
L 174.644723 -281.568253 
L 173.721737 -284.736441 
L 172.834398 -287.904629 
L 171.991387 -291.072817 
L 171.201282 -294.241005 
L 170.472644 -297.409193 
L 169.814046 -300.577381 
L 169.234052 -303.745569 
L 168.741097 -306.913757 
L 168.343291 -310.081945 
L 168.048125 -313.250133 
L 167.862122 -316.418321 
L 167.790433 -319.586509 
L 167.83644 -322.754697 
L 168.00139 -325.922885 
L 168.28412 -329.091073 
L 168.680888 -332.259261 
L 169.185376 -335.427449 
L 169.788839 -338.595637 
L 170.480437 -341.763825 
L 171.247703 -344.932013 
L 172.077129 -348.100201 
L 172.954812 -351.268389 
L 173.867108 -354.436577 
L 174.801241 -357.604765 
L 175.745807 -360.772953 
L 176.69114 -363.941141 
L 177.629513 -367.109329 
L 178.555164 -370.277517 
L 179.464167 -373.445705 
L 180.354162 -376.613893 
L 181.223994 -379.782081 
L 182.073301 -382.950269 
L 182.902097 -386.118457 
L 183.710392 -389.286645 
L 184.49789 -392.454833 
L 185.263773 -395.623021 
L 186.006603 -398.791209 
L 186.724316 -401.959397 
L 187.414319 -405.127585 
L 188.073653 -408.295773 
L 188.699205 -411.463961 
L 189.287942 -414.632149 
L 189.837134 -417.800337 
L 190.344563 -420.968525 
L 190.808672 -424.136714 
L 191.228675 -427.304902 
L 191.604601 -430.47309 
L 191.937283 -433.641278 
L 192.228305 -436.809466 
L 192.479898 -439.977654 
L 192.694816 -443.145842 
L 192.876197 -446.31403 
L 193.027416 -449.482218 
L 193.151946 -452.650406 
L 194.048054 -452.650406 
L 194.048054 -452.650406 
L 194.172584 -449.482218 
L 194.323803 -446.31403 
L 194.505184 -443.145842 
L 194.720102 -439.977654 
L 194.971695 -436.809466 
L 195.262717 -433.641278 
L 195.595399 -430.47309 
L 195.971325 -427.304902 
L 196.391328 -424.136714 
L 196.855437 -420.968525 
L 197.362866 -417.800337 
L 197.912058 -414.632149 
L 198.500795 -411.463961 
L 199.126347 -408.295773 
L 199.785681 -405.127585 
L 200.475684 -401.959397 
L 201.193397 -398.791209 
L 201.936227 -395.623021 
L 202.70211 -392.454833 
L 203.489608 -389.286645 
L 204.297903 -386.118457 
L 205.126699 -382.950269 
L 205.976006 -379.782081 
L 206.845838 -376.613893 
L 207.735833 -373.445705 
L 208.644836 -370.277517 
L 209.570487 -367.109329 
L 210.50886 -363.941141 
L 211.454193 -360.772953 
L 212.398759 -357.604765 
L 213.332892 -354.436577 
L 214.245188 -351.268389 
L 215.122871 -348.100201 
L 215.952297 -344.932013 
L 216.719563 -341.763825 
L 217.411161 -338.595637 
L 218.014624 -335.427449 
L 218.519112 -332.259261 
L 218.91588 -329.091073 
L 219.19861 -325.922885 
L 219.36356 -322.754697 
L 219.409567 -319.586509 
L 219.337878 -316.418321 
L 219.151875 -313.250133 
L 218.856709 -310.081945 
L 218.458903 -306.913757 
L 217.965948 -303.745569 
L 217.385954 -300.577381 
L 216.727356 -297.409193 
L 215.998718 -294.241005 
L 215.208613 -291.072817 
L 214.365602 -287.904629 
L 213.478263 -284.736441 
L 212.555277 -281.568253 
L 211.605526 -278.400064 
L 210.638181 -275.231876 
L 209.662755 -272.063688 
L 208.689094 -268.8955 
L 207.727301 -265.727312 
L 206.787581 -262.559124 
L 205.879996 -259.390936 
L 205.01417 -256.222748 
L 204.198932 -253.05456 
L 203.441942 -249.886372 
L 202.749326 -246.718184 
L 202.125348 -243.549996 
L 201.572156 -240.381808 
L 201.089629 -237.21362 
L 200.675338 -234.045432 
L 200.324641 -230.877244 
L 200.030906 -227.709056 
L 199.785849 -224.540868 
L 199.579976 -221.37268 
L 199.403085 -218.204492 
L 199.244806 -215.036304 
L 199.09514 -211.868116 
L 198.944951 -208.699928 
L 198.786389 -205.53174 
L 198.613219 -202.363552 
L 198.421034 -199.195364 
L 198.207342 -196.027176 
L 197.971537 -192.858988 
L 197.714759 -189.6908 
L 197.439661 -186.522612 
L 197.15011 -183.354424 
L 196.850836 -180.186236 
L 196.547075 -177.018048 
L 196.244216 -173.84986 
L 195.947477 -170.681672 
L 195.661634 -167.513484 
L 195.390808 -164.345296 
L 195.138319 -161.177108 
L 194.906609 -158.00892 
L 194.697224 -154.840732 
L 194.510857 -151.672544 
L 194.347427 -148.504356 
L 194.206199 -145.336168 
L 194.085909 -142.16798 
L 193.984908 -138.999791 
z
" id="m253b333c1c" style="stroke:#484848;stroke-width:1.5;"/>
    </defs>
    <g clip-path="url(#pc5e261cb5b)">
     <use style="fill:#c1505d;stroke:#484848;stroke-width:1.5;" x="0" xlink:href="#m253b333c1c" y="583.2"/>
    </g>
   </g>
   <g id="PolyCollection_2">
    <defs>
     <path d="M 293.33124 -199.084976 
L 292.26876 -199.084976 
L 292.111956 -201.46096 
L 291.920922 -203.836944 
L 291.691614 -206.212928 
L 291.420262 -208.588912 
L 291.103478 -210.964896 
L 290.738325 -213.34088 
L 290.322321 -215.716864 
L 289.853377 -218.092848 
L 289.329673 -220.468832 
L 288.749486 -222.844816 
L 288.110999 -225.2208 
L 287.412131 -227.596784 
L 286.650427 -229.972769 
L 285.823047 -232.348753 
L 284.926886 -234.724737 
L 283.958833 -237.100721 
L 282.916161 -239.476705 
L 281.797018 -241.852689 
L 280.60096 -244.228673 
L 279.329458 -246.604657 
L 277.98631 -248.980641 
L 276.577894 -251.356625 
L 275.113198 -253.732609 
L 273.603625 -256.108593 
L 272.062569 -258.484577 
L 270.504802 -260.860561 
L 268.945747 -263.236545 
L 267.400716 -265.612529 
L 265.884207 -267.988513 
L 264.409348 -270.364497 
L 262.987562 -272.740481 
L 261.628479 -275.116465 
L 260.340135 -277.492449 
L 259.129405 -279.868433 
L 258.002642 -282.244417 
L 256.966419 -284.620401 
L 256.02829 -286.996385 
L 255.197448 -289.372369 
L 254.485183 -291.748353 
L 253.905044 -294.124337 
L 253.472644 -296.500322 
L 253.205081 -298.876306 
L 253.12 -301.25229 
L 253.234352 -303.628274 
L 253.56297 -306.004258 
L 254.117094 -308.380242 
L 254.903013 -310.756226 
L 255.920957 -313.13221 
L 257.164391 -315.508194 
L 258.619778 -317.884178 
L 260.26685 -320.260162 
L 262.079357 -322.636146 
L 264.02622 -325.01213 
L 266.072957 -327.388114 
L 268.183253 -329.764098 
L 270.320518 -332.140082 
L 272.449329 -334.516066 
L 274.536631 -336.89205 
L 276.552671 -339.268034 
L 278.471627 -341.644018 
L 280.271967 -344.020002 
L 281.936554 -346.395986 
L 283.452572 -348.77197 
L 284.81132 -351.147954 
L 286.007923 -353.523938 
L 287.041013 -355.899922 
L 287.912391 -358.275906 
L 288.626725 -360.65189 
L 289.191248 -363.027874 
L 289.615503 -365.403859 
L 289.91109 -367.779843 
L 290.09143 -370.155827 
L 290.171516 -372.531811 
L 290.167633 -374.907795 
L 290.097033 -377.283779 
L 289.977542 -379.659763 
L 289.827107 -382.035747 
L 289.66326 -384.411731 
L 289.502551 -386.787715 
L 289.359954 -389.163699 
L 289.248291 -391.539683 
L 289.177742 -393.915667 
L 289.155463 -396.291651 
L 289.185377 -398.667635 
L 289.26815 -401.043619 
L 289.401376 -403.419603 
L 289.579947 -405.795587 
L 289.796589 -408.171571 
L 290.042506 -410.547555 
L 290.308082 -412.923539 
L 290.583572 -415.299523 
L 290.859731 -417.675507 
L 291.12833 -420.051491 
L 291.382528 -422.427475 
L 291.617095 -424.803459 
L 291.828472 -427.179443 
L 292.014713 -429.555427 
L 292.175304 -431.931412 
L 292.310925 -434.307396 
L 293.289075 -434.307396 
L 293.289075 -434.307396 
L 293.424696 -431.931412 
L 293.585287 -429.555427 
L 293.771528 -427.179443 
L 293.982905 -424.803459 
L 294.217472 -422.427475 
L 294.47167 -420.051491 
L 294.740269 -417.675507 
L 295.016428 -415.299523 
L 295.291918 -412.923539 
L 295.557494 -410.547555 
L 295.803411 -408.171571 
L 296.020053 -405.795587 
L 296.198624 -403.419603 
L 296.33185 -401.043619 
L 296.414623 -398.667635 
L 296.444537 -396.291651 
L 296.422258 -393.915667 
L 296.351709 -391.539683 
L 296.240046 -389.163699 
L 296.097449 -386.787715 
L 295.93674 -384.411731 
L 295.772893 -382.035747 
L 295.622458 -379.659763 
L 295.502967 -377.283779 
L 295.432367 -374.907795 
L 295.428484 -372.531811 
L 295.50857 -370.155827 
L 295.68891 -367.779843 
L 295.984497 -365.403859 
L 296.408752 -363.027874 
L 296.973275 -360.65189 
L 297.687609 -358.275906 
L 298.558987 -355.899922 
L 299.592077 -353.523938 
L 300.78868 -351.147954 
L 302.147428 -348.77197 
L 303.663446 -346.395986 
L 305.328033 -344.020002 
L 307.128373 -341.644018 
L 309.047329 -339.268034 
L 311.063369 -336.89205 
L 313.150671 -334.516066 
L 315.279482 -332.140082 
L 317.416747 -329.764098 
L 319.527043 -327.388114 
L 321.57378 -325.01213 
L 323.520643 -322.636146 
L 325.33315 -320.260162 
L 326.980222 -317.884178 
L 328.435609 -315.508194 
L 329.679043 -313.13221 
L 330.696987 -310.756226 
L 331.482906 -308.380242 
L 332.03703 -306.004258 
L 332.365648 -303.628274 
L 332.48 -301.25229 
L 332.394919 -298.876306 
L 332.127356 -296.500322 
L 331.694956 -294.124337 
L 331.114817 -291.748353 
L 330.402552 -289.372369 
L 329.57171 -286.996385 
L 328.633581 -284.620401 
L 327.597358 -282.244417 
L 326.470595 -279.868433 
L 325.259865 -277.492449 
L 323.971521 -275.116465 
L 322.612438 -272.740481 
L 321.190652 -270.364497 
L 319.715793 -267.988513 
L 318.199284 -265.612529 
L 316.654253 -263.236545 
L 315.095198 -260.860561 
L 313.537431 -258.484577 
L 311.996375 -256.108593 
L 310.486802 -253.732609 
L 309.022106 -251.356625 
L 307.61369 -248.980641 
L 306.270542 -246.604657 
L 304.99904 -244.228673 
L 303.802982 -241.852689 
L 302.683839 -239.476705 
L 301.641167 -237.100721 
L 300.673114 -234.724737 
L 299.776953 -232.348753 
L 298.949573 -229.972769 
L 298.187869 -227.596784 
L 297.489001 -225.2208 
L 296.850514 -222.844816 
L 296.270327 -220.468832 
L 295.746623 -218.092848 
L 295.277679 -215.716864 
L 294.861675 -213.34088 
L 294.496522 -210.964896 
L 294.179738 -208.588912 
L 293.908386 -206.212928 
L 293.679078 -203.836944 
L 293.488044 -201.46096 
L 293.33124 -199.084976 
z
" id="m37cd021039" style="stroke:#484848;stroke-width:1.5;"/>
    </defs>
    <g clip-path="url(#pc5e261cb5b)">
     <use style="fill:#de7959;stroke:#484848;stroke-width:1.5;" x="0" xlink:href="#m37cd021039" y="583.2"/>
    </g>
   </g>
   <g id="PolyCollection_3">
    <defs>
     <path d="M 392.31832 -121.311693 
L 391.68168 -121.311693 
L 391.606173 -124.485851 
L 391.517713 -127.660009 
L 391.415282 -130.834167 
L 391.298017 -134.008326 
L 391.16524 -137.182484 
L 391.016479 -140.356642 
L 390.851457 -143.5308 
L 390.670072 -146.704959 
L 390.472339 -149.879117 
L 390.258315 -153.053275 
L 390.028002 -156.227433 
L 389.781234 -159.401592 
L 389.517555 -162.57575 
L 389.23611 -165.749908 
L 388.935554 -168.924066 
L 388.613991 -172.098225 
L 388.268964 -175.272383 
L 387.897496 -178.446541 
L 387.496202 -181.620699 
L 387.061453 -184.794858 
L 386.589606 -187.969016 
L 386.077278 -191.143174 
L 385.521646 -194.317332 
L 384.920758 -197.491491 
L 384.273828 -200.665649 
L 383.581487 -203.839807 
L 382.84597 -207.013965 
L 382.07122 -210.188124 
L 381.262896 -213.362282 
L 380.428273 -216.53644 
L 379.576049 -219.710598 
L 378.716054 -222.884757 
L 377.858891 -226.058915 
L 377.015533 -229.233073 
L 376.196892 -232.407231 
L 375.413398 -235.58139 
L 374.674627 -238.755548 
L 373.988973 -241.929706 
L 373.363419 -245.103864 
L 372.803389 -248.278023 
L 372.312706 -251.452181 
L 371.893635 -254.626339 
L 371.54701 -257.800497 
L 371.272428 -260.974656 
L 371.068466 -264.148814 
L 370.932929 -267.322972 
L 370.863069 -270.49713 
L 370.855775 -273.671289 
L 370.907711 -276.845447 
L 371.015387 -280.019605 
L 371.175162 -283.193763 
L 371.383191 -286.367922 
L 371.63533 -289.54208 
L 371.927012 -292.716238 
L 372.25313 -295.890396 
L 372.607955 -299.064555 
L 372.985107 -302.238713 
L 373.37761 -305.412871 
L 373.778041 -308.587029 
L 374.178774 -311.761188 
L 374.572316 -314.935346 
L 374.951707 -318.109504 
L 375.310963 -321.283662 
L 375.64552 -324.457821 
L 375.952631 -327.631979 
L 376.231684 -330.806137 
L 376.484392 -333.980295 
L 376.714838 -337.154454 
L 376.929344 -340.328612 
L 377.136178 -343.50277 
L 377.345096 -346.676928 
L 377.56676 -349.851087 
L 377.812066 -353.025245 
L 378.091438 -356.199403 
L 378.414131 -359.373561 
L 378.787607 -362.54772 
L 379.217024 -365.721878 
L 379.704882 -368.896036 
L 380.250841 -372.070194 
L 380.851729 -375.244353 
L 381.501726 -378.418511 
L 382.192714 -381.592669 
L 382.914749 -384.766827 
L 383.656622 -387.940986 
L 384.406467 -391.115144 
L 385.152361 -394.289302 
L 385.882892 -397.46346 
L 386.587645 -400.637619 
L 387.257594 -403.811777 
L 387.885373 -406.985935 
L 388.46543 -410.160093 
L 388.994073 -413.334252 
L 389.469403 -416.50841 
L 389.89117 -419.682568 
L 390.260558 -422.856726 
L 390.579942 -426.030885 
L 390.852611 -429.205043 
L 391.082497 -432.379201 
L 391.273927 -435.553359 
L 392.726073 -435.553359 
L 392.726073 -435.553359 
L 392.917503 -432.379201 
L 393.147389 -429.205043 
L 393.420058 -426.030885 
L 393.739442 -422.856726 
L 394.10883 -419.682568 
L 394.530597 -416.50841 
L 395.005927 -413.334252 
L 395.53457 -410.160093 
L 396.114627 -406.985935 
L 396.742406 -403.811777 
L 397.412355 -400.637619 
L 398.117108 -397.46346 
L 398.847639 -394.289302 
L 399.593533 -391.115144 
L 400.343378 -387.940986 
L 401.085251 -384.766827 
L 401.807286 -381.592669 
L 402.498274 -378.418511 
L 403.148271 -375.244353 
L 403.749159 -372.070194 
L 404.295118 -368.896036 
L 404.782976 -365.721878 
L 405.212393 -362.54772 
L 405.585869 -359.373561 
L 405.908562 -356.199403 
L 406.187934 -353.025245 
L 406.43324 -349.851087 
L 406.654904 -346.676928 
L 406.863822 -343.50277 
L 407.070656 -340.328612 
L 407.285162 -337.154454 
L 407.515608 -333.980295 
L 407.768316 -330.806137 
L 408.047369 -327.631979 
L 408.35448 -324.457821 
L 408.689037 -321.283662 
L 409.048293 -318.109504 
L 409.427684 -314.935346 
L 409.821226 -311.761188 
L 410.221959 -308.587029 
L 410.62239 -305.412871 
L 411.014893 -302.238713 
L 411.392045 -299.064555 
L 411.74687 -295.890396 
L 412.072988 -292.716238 
L 412.36467 -289.54208 
L 412.616809 -286.367922 
L 412.824838 -283.193763 
L 412.984613 -280.019605 
L 413.092289 -276.845447 
L 413.144225 -273.671289 
L 413.136931 -270.49713 
L 413.067071 -267.322972 
L 412.931534 -264.148814 
L 412.727572 -260.974656 
L 412.45299 -257.800497 
L 412.106365 -254.626339 
L 411.687294 -251.452181 
L 411.196611 -248.278023 
L 410.636581 -245.103864 
L 410.011027 -241.929706 
L 409.325373 -238.755548 
L 408.586602 -235.58139 
L 407.803108 -232.407231 
L 406.984467 -229.233073 
L 406.141109 -226.058915 
L 405.283946 -222.884757 
L 404.423951 -219.710598 
L 403.571727 -216.53644 
L 402.737104 -213.362282 
L 401.92878 -210.188124 
L 401.15403 -207.013965 
L 400.418513 -203.839807 
L 399.726172 -200.665649 
L 399.079242 -197.491491 
L 398.478354 -194.317332 
L 397.922722 -191.143174 
L 397.410394 -187.969016 
L 396.938547 -184.794858 
L 396.503798 -181.620699 
L 396.102504 -178.446541 
L 395.731036 -175.272383 
L 395.386009 -172.098225 
L 395.064446 -168.924066 
L 394.76389 -165.749908 
L 394.482445 -162.57575 
L 394.218766 -159.401592 
L 393.971998 -156.227433 
L 393.741685 -153.053275 
L 393.527661 -149.879117 
L 393.329928 -146.704959 
L 393.148543 -143.5308 
L 392.983521 -140.356642 
L 392.83476 -137.182484 
L 392.701983 -134.008326 
L 392.584718 -130.834167 
L 392.482287 -127.660009 
L 392.393827 -124.485851 
L 392.31832 -121.311693 
z
" id="me88ee4fea0" style="stroke:#484848;stroke-width:1.5;"/>
    </defs>
    <g clip-path="url(#pc5e261cb5b)">
     <use style="fill:#e9ad74;stroke:#484848;stroke-width:1.5;" x="0" xlink:href="#me88ee4fea0" y="583.2"/>
    </g>
   </g>
   <g id="PolyCollection_4">
    <defs>
     <path d="M 491.913351 -219.169454 
L 490.486649 -219.169454 
L 490.309147 -221.420784 
L 490.097032 -223.672113 
L 489.846078 -225.923442 
L 489.552141 -228.174771 
L 489.211322 -230.4261 
L 488.820137 -232.677429 
L 488.37571 -234.928758 
L 487.875965 -237.180087 
L 487.319811 -239.431416 
L 486.70731 -241.682745 
L 486.039818 -243.934074 
L 485.32008 -246.185403 
L 484.552272 -248.436733 
L 483.741986 -250.688062 
L 482.896143 -252.939391 
L 482.022841 -255.19072 
L 481.131135 -257.442049 
L 480.230759 -259.693378 
L 479.331803 -261.944707 
L 478.444355 -264.196036 
L 477.578137 -266.447365 
L 476.742146 -268.698694 
L 475.944323 -270.950023 
L 475.191281 -273.201352 
L 474.488083 -275.452681 
L 473.838115 -277.704011 
L 473.243033 -279.95534 
L 472.702798 -282.206669 
L 472.215802 -284.457998 
L 471.779053 -286.709327 
L 471.388423 -288.960656 
L 471.038934 -291.211985 
L 470.725062 -293.463314 
L 470.441041 -295.714643 
L 470.18114 -297.965972 
L 469.939917 -300.217301 
L 469.712415 -302.46863 
L 469.494312 -304.71996 
L 469.282011 -306.971289 
L 469.072683 -309.222618 
L 468.864259 -311.473947 
L 468.655383 -313.725276 
L 468.445347 -315.976605 
L 468.234001 -318.227934 
L 468.021664 -320.479263 
L 467.809031 -322.730592 
L 467.597103 -324.981921 
L 467.387116 -327.23325 
L 467.180502 -329.484579 
L 466.978855 -331.735908 
L 466.783922 -333.987238 
L 466.597606 -336.238567 
L 466.421975 -338.489896 
L 466.259288 -340.741225 
L 466.112022 -342.992554 
L 465.982901 -345.243883 
L 465.874928 -347.495212 
L 465.791414 -349.746541 
L 465.735991 -351.99787 
L 465.712627 -354.249199 
L 465.725613 -356.500528 
L 465.779528 -358.751857 
L 465.879183 -361.003187 
L 466.029531 -363.254516 
L 466.235537 -365.505845 
L 466.502024 -367.757174 
L 466.83348 -370.008503 
L 467.233851 -372.259832 
L 467.706304 -374.511161 
L 468.253007 -376.76249 
L 468.874905 -379.013819 
L 469.571539 -381.265148 
L 470.340892 -383.516477 
L 471.17931 -385.767806 
L 472.081473 -388.019135 
L 473.040455 -390.270465 
L 474.047846 -392.521794 
L 475.093955 -394.773123 
L 476.16807 -397.024452 
L 477.25877 -399.275781 
L 478.354273 -401.52711 
L 479.442796 -403.778439 
L 480.512914 -406.029768 
L 481.553896 -408.281097 
L 482.556008 -410.532426 
L 483.510752 -412.783755 
L 484.411059 -415.035084 
L 485.251402 -417.286414 
L 486.027852 -419.537743 
L 486.738059 -421.789072 
L 487.38118 -424.040401 
L 487.957756 -426.29173 
L 488.469548 -428.543059 
L 488.919345 -430.794388 
L 489.310763 -433.045717 
L 489.648033 -435.297046 
L 489.935795 -437.548375 
L 490.178914 -439.799704 
L 490.382308 -442.051033 
L 492.017692 -442.051033 
L 492.017692 -442.051033 
L 492.221086 -439.799704 
L 492.464205 -437.548375 
L 492.751967 -435.297046 
L 493.089237 -433.045717 
L 493.480655 -430.794388 
L 493.930452 -428.543059 
L 494.442244 -426.29173 
L 495.01882 -424.040401 
L 495.661941 -421.789072 
L 496.372148 -419.537743 
L 497.148598 -417.286414 
L 497.988941 -415.035084 
L 498.889248 -412.783755 
L 499.843992 -410.532426 
L 500.846104 -408.281097 
L 501.887086 -406.029768 
L 502.957204 -403.778439 
L 504.045727 -401.52711 
L 505.14123 -399.275781 
L 506.23193 -397.024452 
L 507.306045 -394.773123 
L 508.352154 -392.521794 
L 509.359545 -390.270465 
L 510.318527 -388.019135 
L 511.22069 -385.767806 
L 512.059108 -383.516477 
L 512.828461 -381.265148 
L 513.525095 -379.013819 
L 514.146993 -376.76249 
L 514.693696 -374.511161 
L 515.166149 -372.259832 
L 515.56652 -370.008503 
L 515.897976 -367.757174 
L 516.164463 -365.505845 
L 516.370469 -363.254516 
L 516.520817 -361.003187 
L 516.620472 -358.751857 
L 516.674387 -356.500528 
L 516.687373 -354.249199 
L 516.664009 -351.99787 
L 516.608586 -349.746541 
L 516.525072 -347.495212 
L 516.417099 -345.243883 
L 516.287978 -342.992554 
L 516.140712 -340.741225 
L 515.978025 -338.489896 
L 515.802394 -336.238567 
L 515.616078 -333.987238 
L 515.421145 -331.735908 
L 515.219498 -329.484579 
L 515.012884 -327.23325 
L 514.802897 -324.981921 
L 514.590969 -322.730592 
L 514.378336 -320.479263 
L 514.165999 -318.227934 
L 513.954653 -315.976605 
L 513.744617 -313.725276 
L 513.535741 -311.473947 
L 513.327317 -309.222618 
L 513.117989 -306.971289 
L 512.905688 -304.71996 
L 512.687585 -302.46863 
L 512.460083 -300.217301 
L 512.21886 -297.965972 
L 511.958959 -295.714643 
L 511.674938 -293.463314 
L 511.361066 -291.211985 
L 511.011577 -288.960656 
L 510.620947 -286.709327 
L 510.184198 -284.457998 
L 509.697202 -282.206669 
L 509.156967 -279.95534 
L 508.561885 -277.704011 
L 507.911917 -275.452681 
L 507.208719 -273.201352 
L 506.455677 -270.950023 
L 505.657854 -268.698694 
L 504.821863 -266.447365 
L 503.955645 -264.196036 
L 503.068197 -261.944707 
L 502.169241 -259.693378 
L 501.268865 -257.442049 
L 500.377159 -255.19072 
L 499.503857 -252.939391 
L 498.658014 -250.688062 
L 497.847728 -248.436733 
L 497.07992 -246.185403 
L 496.360182 -243.934074 
L 495.69269 -241.682745 
L 495.080189 -239.431416 
L 494.524035 -237.180087 
L 494.02429 -234.928758 
L 493.579863 -232.677429 
L 493.188678 -230.4261 
L 492.847859 -228.174771 
L 492.553922 -225.923442 
L 492.302968 -223.672113 
L 492.090853 -221.420784 
L 491.913351 -219.169454 
z
" id="m816e78dfcc" style="stroke:#484848;stroke-width:1.5;"/>
    </defs>
    <g clip-path="url(#pc5e261cb5b)">
     <use style="fill:#f0d999;stroke:#484848;stroke-width:1.5;" x="0" xlink:href="#m816e78dfcc" y="583.2"/>
    </g>
   </g>
   <g id="PolyCollection_5">
    <defs>
     <path d="M 591.019676 -161.459459 
L 589.780324 -161.459459 
L 589.585516 -164.806373 
L 589.34371 -168.153288 
L 589.04822 -171.500202 
L 588.692766 -174.847117 
L 588.271901 -178.194032 
L 587.781484 -181.540946 
L 587.219146 -184.887861 
L 586.584717 -188.234775 
L 585.880561 -191.58169 
L 585.111771 -194.928604 
L 584.286168 -198.275519 
L 583.4141 -201.622433 
L 582.507981 -204.969348 
L 581.581629 -208.316263 
L 580.649392 -211.663177 
L 579.72515 -215.010092 
L 578.821263 -218.357006 
L 577.947566 -221.703921 
L 577.110517 -225.050835 
L 576.31259 -228.39775 
L 575.552013 -231.744665 
L 574.822893 -235.091579 
L 574.115751 -238.438494 
L 573.418443 -241.785408 
L 572.717418 -245.132323 
L 571.999182 -248.479237 
L 571.251868 -251.826152 
L 570.466746 -255.173066 
L 569.639539 -258.519981 
L 568.771407 -261.866896 
L 567.869508 -265.21381 
L 566.947064 -268.560725 
L 566.022941 -271.907639 
L 565.120756 -275.254554 
L 564.267609 -278.601468 
L 563.492543 -281.948383 
L 562.824871 -285.295297 
L 562.292502 -288.642212 
L 561.920396 -291.989127 
L 561.729257 -295.336041 
L 561.734524 -298.682956 
L 561.945718 -302.02987 
L 562.366141 -305.376785 
L 562.992895 -308.723699 
L 563.817204 -312.070614 
L 564.824946 -315.417528 
L 565.997374 -318.764443 
L 567.311944 -322.111358 
L 568.743211 -325.458272 
L 570.263756 -328.805187 
L 571.845115 -332.152101 
L 573.458679 -335.499016 
L 575.076548 -338.84593 
L 576.67232 -342.192845 
L 578.22179 -345.539759 
L 579.703537 -348.886674 
L 581.099384 -352.233589 
L 582.394696 -355.580503 
L 583.578529 -358.927418 
L 584.643609 -362.274332 
L 585.586151 -365.621247 
L 586.405557 -368.968161 
L 587.103998 -372.315076 
L 587.685941 -375.66199 
L 588.157648 -379.008905 
L 588.526693 -382.35582 
L 588.801535 -385.702734 
L 588.991167 -389.049649 
L 589.104862 -392.396563 
L 589.152004 -395.743478 
L 589.142011 -399.090392 
L 589.084314 -402.437307 
L 588.988361 -405.784222 
L 588.863629 -409.131136 
L 588.719603 -412.478051 
L 588.565696 -415.824965 
L 588.411114 -419.17188 
L 588.264647 -422.518794 
L 588.134406 -425.865709 
L 588.027532 -429.212623 
L 587.949897 -432.559538 
L 587.905848 -435.906453 
L 587.89801 -439.253367 
L 587.927181 -442.600282 
L 587.99235 -445.947196 
L 588.090817 -449.294111 
L 588.218434 -452.641025 
L 588.369927 -455.98794 
L 588.539278 -459.334854 
L 588.720141 -462.681769 
L 588.906231 -466.028684 
L 589.091687 -469.375598 
L 589.271358 -472.722513 
L 589.441005 -476.069427 
L 589.597414 -479.416342 
L 589.73842 -482.763256 
L 589.86286 -486.110171 
L 589.970456 -489.457085 
L 590.061668 -492.804 
L 590.738332 -492.804 
L 590.738332 -492.804 
L 590.829544 -489.457085 
L 590.93714 -486.110171 
L 591.06158 -482.763256 
L 591.202586 -479.416342 
L 591.358995 -476.069427 
L 591.528642 -472.722513 
L 591.708313 -469.375598 
L 591.893769 -466.028684 
L 592.079859 -462.681769 
L 592.260722 -459.334854 
L 592.430073 -455.98794 
L 592.581566 -452.641025 
L 592.709183 -449.294111 
L 592.80765 -445.947196 
L 592.872819 -442.600282 
L 592.90199 -439.253367 
L 592.894152 -435.906453 
L 592.850103 -432.559538 
L 592.772468 -429.212623 
L 592.665594 -425.865709 
L 592.535353 -422.518794 
L 592.388886 -419.17188 
L 592.234304 -415.824965 
L 592.080397 -412.478051 
L 591.936371 -409.131136 
L 591.811639 -405.784222 
L 591.715686 -402.437307 
L 591.657989 -399.090392 
L 591.647996 -395.743478 
L 591.695138 -392.396563 
L 591.808833 -389.049649 
L 591.998465 -385.702734 
L 592.273307 -382.35582 
L 592.642352 -379.008905 
L 593.114059 -375.66199 
L 593.696002 -372.315076 
L 594.394443 -368.968161 
L 595.213849 -365.621247 
L 596.156391 -362.274332 
L 597.221471 -358.927418 
L 598.405304 -355.580503 
L 599.700616 -352.233589 
L 601.096463 -348.886674 
L 602.57821 -345.539759 
L 604.12768 -342.192845 
L 605.723452 -338.84593 
L 607.341321 -335.499016 
L 608.954885 -332.152101 
L 610.536244 -328.805187 
L 612.056789 -325.458272 
L 613.488056 -322.111358 
L 614.802626 -318.764443 
L 615.975054 -315.417528 
L 616.982796 -312.070614 
L 617.807105 -308.723699 
L 618.433859 -305.376785 
L 618.854282 -302.02987 
L 619.065476 -298.682956 
L 619.070743 -295.336041 
L 618.879604 -291.989127 
L 618.507498 -288.642212 
L 617.975129 -285.295297 
L 617.307457 -281.948383 
L 616.532391 -278.601468 
L 615.679244 -275.254554 
L 614.777059 -271.907639 
L 613.852936 -268.560725 
L 612.930492 -265.21381 
L 612.028593 -261.866896 
L 611.160461 -258.519981 
L 610.333254 -255.173066 
L 609.548132 -251.826152 
L 608.800818 -248.479237 
L 608.082582 -245.132323 
L 607.381557 -241.785408 
L 606.684249 -238.438494 
L 605.977107 -235.091579 
L 605.247987 -231.744665 
L 604.48741 -228.39775 
L 603.689483 -225.050835 
L 602.852434 -221.703921 
L 601.978737 -218.357006 
L 601.07485 -215.010092 
L 600.150608 -211.663177 
L 599.218371 -208.316263 
L 598.292019 -204.969348 
L 597.3859 -201.622433 
L 596.513832 -198.275519 
L 595.688229 -194.928604 
L 594.919439 -191.58169 
L 594.215283 -188.234775 
L 593.580854 -184.887861 
L 593.018516 -181.540946 
L 592.528099 -178.194032 
L 592.107234 -174.847117 
L 591.75178 -171.500202 
L 591.45629 -168.153288 
L 591.214484 -164.806373 
L 591.019676 -161.459459 
z
" id="me52cc4151f" style="stroke:#484848;stroke-width:1.5;"/>
    </defs>
    <g clip-path="url(#pc5e261cb5b)">
     <use style="fill:#f7f7c6;stroke:#484848;stroke-width:1.5;" x="0" xlink:href="#me52cc4151f" y="583.2"/>
    </g>
   </g>
   <g id="PolyCollection_6">
    <defs>
     <path d="M 690.18496 -106.464667 
L 689.01504 -106.464667 
L 688.86561 -110.290131 
L 688.688958 -114.115594 
L 688.483114 -117.941057 
L 688.246701 -121.76652 
L 687.979099 -125.591984 
L 687.680573 -129.417447 
L 687.352371 -133.24291 
L 686.996753 -137.068373 
L 686.616957 -140.893837 
L 686.217083 -144.7193 
L 685.801898 -148.544763 
L 685.37657 -152.370226 
L 684.94634 -156.19569 
L 684.516161 -160.021153 
L 684.090328 -163.846616 
L 683.672124 -167.672079 
L 683.26353 -171.497543 
L 682.865018 -175.323006 
L 682.47545 -179.148469 
L 682.092104 -182.973932 
L 681.710832 -186.799396 
L 681.326342 -190.624859 
L 680.932578 -194.450322 
L 680.523188 -198.275786 
L 680.092022 -202.101249 
L 679.633639 -205.926712 
L 679.143766 -209.752175 
L 678.619689 -213.577639 
L 678.060533 -217.403102 
L 677.467413 -221.228565 
L 676.843459 -225.054028 
L 676.193708 -228.879492 
L 675.524877 -232.704955 
L 674.845059 -236.530418 
L 674.163352 -240.355881 
L 673.489463 -244.181345 
L 672.833322 -248.006808 
L 672.204735 -251.832271 
L 671.613076 -255.657734 
L 671.067062 -259.483198 
L 670.574588 -263.308661 
L 670.142621 -267.134124 
L 669.777152 -270.959587 
L 669.483177 -274.785051 
L 669.264708 -278.610514 
L 669.124781 -282.435977 
L 669.065467 -286.26144 
L 669.087878 -290.086904 
L 669.192161 -293.912367 
L 669.3775 -297.73783 
L 669.642118 -301.563294 
L 669.983293 -305.388757 
L 670.397399 -309.21422 
L 670.879958 -313.039683 
L 671.425731 -316.865147 
L 672.028806 -320.69061 
L 672.68271 -324.516073 
L 673.380516 -328.341536 
L 674.114945 -332.167 
L 674.878456 -335.992463 
L 675.663326 -339.817926 
L 676.461719 -343.643389 
L 677.265752 -347.468853 
L 678.067578 -351.294316 
L 678.859471 -355.119779 
L 679.633949 -358.945242 
L 680.38392 -362.770706 
L 681.102861 -366.596169 
L 681.785008 -370.421632 
L 682.425559 -374.247095 
L 683.020862 -378.072559 
L 683.568567 -381.898022 
L 684.06773 -385.723485 
L 684.51884 -389.548948 
L 684.923766 -393.374412 
L 685.285628 -397.199875 
L 685.60858 -401.025338 
L 685.897534 -404.850801 
L 686.15784 -408.676265 
L 686.394954 -412.501728 
L 686.614108 -416.327191 
L 686.820027 -420.152655 
L 687.016693 -423.978118 
L 687.207194 -427.803581 
L 687.393645 -431.629044 
L 687.577195 -435.454508 
L 687.758105 -439.279971 
L 687.935885 -443.105434 
L 688.109473 -446.930897 
L 688.27743 -450.756361 
L 688.438141 -454.581824 
L 688.59 -458.407287 
L 688.731564 -462.23275 
L 688.861669 -466.058214 
L 688.979508 -469.883677 
L 689.084661 -473.70914 
L 689.1771 -477.534603 
L 689.25715 -481.360067 
L 689.32544 -485.18553 
L 689.87456 -485.18553 
L 689.87456 -485.18553 
L 689.94285 -481.360067 
L 690.0229 -477.534603 
L 690.115339 -473.70914 
L 690.220492 -469.883677 
L 690.338331 -466.058214 
L 690.468436 -462.23275 
L 690.61 -458.407287 
L 690.761859 -454.581824 
L 690.92257 -450.756361 
L 691.090527 -446.930897 
L 691.264115 -443.105434 
L 691.441895 -439.279971 
L 691.622805 -435.454508 
L 691.806355 -431.629044 
L 691.992806 -427.803581 
L 692.183307 -423.978118 
L 692.379973 -420.152655 
L 692.585892 -416.327191 
L 692.805046 -412.501728 
L 693.04216 -408.676265 
L 693.302466 -404.850801 
L 693.59142 -401.025338 
L 693.914372 -397.199875 
L 694.276234 -393.374412 
L 694.68116 -389.548948 
L 695.13227 -385.723485 
L 695.631433 -381.898022 
L 696.179138 -378.072559 
L 696.774441 -374.247095 
L 697.414992 -370.421632 
L 698.097139 -366.596169 
L 698.81608 -362.770706 
L 699.566051 -358.945242 
L 700.340529 -355.119779 
L 701.132422 -351.294316 
L 701.934248 -347.468853 
L 702.738281 -343.643389 
L 703.536674 -339.817926 
L 704.321544 -335.992463 
L 705.085055 -332.167 
L 705.819484 -328.341536 
L 706.51729 -324.516073 
L 707.171194 -320.69061 
L 707.774269 -316.865147 
L 708.320042 -313.039683 
L 708.802601 -309.21422 
L 709.216707 -305.388757 
L 709.557882 -301.563294 
L 709.8225 -297.73783 
L 710.007839 -293.912367 
L 710.112122 -290.086904 
L 710.134533 -286.26144 
L 710.075219 -282.435977 
L 709.935292 -278.610514 
L 709.716823 -274.785051 
L 709.422848 -270.959587 
L 709.057379 -267.134124 
L 708.625412 -263.308661 
L 708.132938 -259.483198 
L 707.586924 -255.657734 
L 706.995265 -251.832271 
L 706.366678 -248.006808 
L 705.710537 -244.181345 
L 705.036648 -240.355881 
L 704.354941 -236.530418 
L 703.675123 -232.704955 
L 703.006292 -228.879492 
L 702.356541 -225.054028 
L 701.732587 -221.228565 
L 701.139467 -217.403102 
L 700.580311 -213.577639 
L 700.056234 -209.752175 
L 699.566361 -205.926712 
L 699.107978 -202.101249 
L 698.676812 -198.275786 
L 698.267422 -194.450322 
L 697.873658 -190.624859 
L 697.489168 -186.799396 
L 697.107896 -182.973932 
L 696.72455 -179.148469 
L 696.334982 -175.323006 
L 695.93647 -171.497543 
L 695.527876 -167.672079 
L 695.109672 -163.846616 
L 694.683839 -160.021153 
L 694.25366 -156.19569 
L 693.82343 -152.370226 
L 693.398102 -148.544763 
L 692.982917 -144.7193 
L 692.583043 -140.893837 
L 692.203247 -137.068373 
L 691.847629 -133.24291 
L 691.519427 -129.417447 
L 691.220901 -125.591984 
L 690.953299 -121.76652 
L 690.716886 -117.941057 
L 690.511042 -114.115594 
L 690.33439 -110.290131 
L 690.18496 -106.464667 
z
" id="m9971415e3a" style="stroke:#484848;stroke-width:1.5;"/>
    </defs>
    <g clip-path="url(#pc5e261cb5b)">
     <use style="fill:#dee9a4;stroke:#484848;stroke-width:1.5;" x="0" xlink:href="#m9971415e3a" y="583.2"/>
    </g>
   </g>
   <g id="PolyCollection_7">
    <defs>
     <path d="M 789.451316 -200.607847 
L 788.148684 -200.607847 
L 787.987924 -202.882793 
L 787.797874 -205.157739 
L 787.575902 -207.432685 
L 787.31975 -209.707631 
L 787.027671 -211.982577 
L 786.698545 -214.257522 
L 786.331969 -216.532468 
L 785.928308 -218.807414 
L 785.488697 -221.08236 
L 785.014986 -223.357306 
L 784.509625 -225.632252 
L 783.975498 -227.907198 
L 783.415707 -230.182144 
L 782.833334 -232.45709 
L 782.23119 -234.732036 
L 781.611594 -237.006982 
L 780.976192 -239.281928 
L 780.325855 -241.556874 
L 779.660673 -243.83182 
L 778.980056 -246.106766 
L 778.282948 -248.381712 
L 777.568143 -250.656658 
L 776.834676 -252.931604 
L 776.082256 -255.20655 
L 775.311703 -257.481496 
L 774.52532 -259.756441 
L 773.727172 -262.031387 
L 772.92321 -264.306333 
L 772.121208 -266.581279 
L 771.330503 -268.856225 
L 770.561529 -271.131171 
L 769.82517 -273.406117 
L 769.131978 -275.681063 
L 768.491318 -277.956009 
L 767.910513 -280.230955 
L 767.394065 -282.505901 
L 766.943057 -284.780847 
L 766.554766 -287.055793 
L 766.222589 -289.330739 
L 765.936272 -291.605685 
L 765.682472 -293.880631 
L 765.44561 -296.155577 
L 765.208965 -298.430523 
L 764.955935 -300.705469 
L 764.671353 -302.980414 
L 764.342772 -305.25536 
L 763.961586 -307.530306 
L 763.523927 -309.805252 
L 763.031225 -312.080198 
L 762.490402 -314.355144 
L 761.91368 -316.63009 
L 761.317997 -318.905036 
L 760.724095 -321.179982 
L 760.155338 -323.454928 
L 759.636351 -325.729874 
L 759.191583 -328.00482 
L 758.843903 -330.279766 
L 758.613324 -332.554712 
L 758.515941 -334.829658 
L 758.563153 -337.104604 
L 758.761204 -339.37955 
L 759.11107 -341.654496 
L 759.608658 -343.929442 
L 760.245306 -346.204388 
L 761.008516 -348.479333 
L 761.882852 -350.754279 
L 762.85093 -353.029225 
L 763.894419 -355.304171 
L 764.994998 -357.579117 
L 766.135173 -359.854063 
L 767.298957 -362.129009 
L 768.472335 -364.403955 
L 769.643541 -366.678901 
L 770.803132 -368.953847 
L 771.943884 -371.228793 
L 773.060552 -373.503739 
L 774.149529 -375.778685 
L 775.208437 -378.053631 
L 776.235725 -380.328577 
L 777.230279 -382.603523 
L 778.191097 -384.878469 
L 779.117049 -387.153415 
L 780.006723 -389.428361 
L 780.858373 -391.703307 
L 781.669949 -393.978252 
L 782.439198 -396.253198 
L 783.163814 -398.528144 
L 783.84162 -400.80309 
L 784.470749 -403.078036 
L 785.049809 -405.352982 
L 785.578019 -407.627928 
L 786.0553 -409.902874 
L 786.482313 -412.17782 
L 786.860459 -414.452766 
L 787.191819 -416.727712 
L 787.479069 -419.002658 
L 787.725367 -421.277604 
L 787.934217 -423.55255 
L 788.109332 -425.827496 
L 789.490668 -425.827496 
L 789.490668 -425.827496 
L 789.665783 -423.55255 
L 789.874633 -421.277604 
L 790.120931 -419.002658 
L 790.408181 -416.727712 
L 790.739541 -414.452766 
L 791.117687 -412.17782 
L 791.5447 -409.902874 
L 792.021981 -407.627928 
L 792.550191 -405.352982 
L 793.129251 -403.078036 
L 793.75838 -400.80309 
L 794.436186 -398.528144 
L 795.160802 -396.253198 
L 795.930051 -393.978252 
L 796.741627 -391.703307 
L 797.593277 -389.428361 
L 798.482951 -387.153415 
L 799.408903 -384.878469 
L 800.369721 -382.603523 
L 801.364275 -380.328577 
L 802.391563 -378.053631 
L 803.450471 -375.778685 
L 804.539448 -373.503739 
L 805.656116 -371.228793 
L 806.796868 -368.953847 
L 807.956459 -366.678901 
L 809.127665 -364.403955 
L 810.301043 -362.129009 
L 811.464827 -359.854063 
L 812.605002 -357.579117 
L 813.705581 -355.304171 
L 814.74907 -353.029225 
L 815.717148 -350.754279 
L 816.591484 -348.479333 
L 817.354694 -346.204388 
L 817.991342 -343.929442 
L 818.48893 -341.654496 
L 818.838796 -339.37955 
L 819.036847 -337.104604 
L 819.084059 -334.829658 
L 818.986676 -332.554712 
L 818.756097 -330.279766 
L 818.408417 -328.00482 
L 817.963649 -325.729874 
L 817.444662 -323.454928 
L 816.875905 -321.179982 
L 816.282003 -318.905036 
L 815.68632 -316.63009 
L 815.109598 -314.355144 
L 814.568775 -312.080198 
L 814.076073 -309.805252 
L 813.638414 -307.530306 
L 813.257228 -305.25536 
L 812.928647 -302.980414 
L 812.644065 -300.705469 
L 812.391035 -298.430523 
L 812.15439 -296.155577 
L 811.917528 -293.880631 
L 811.663728 -291.605685 
L 811.377411 -289.330739 
L 811.045234 -287.055793 
L 810.656943 -284.780847 
L 810.205935 -282.505901 
L 809.689487 -280.230955 
L 809.108682 -277.956009 
L 808.468022 -275.681063 
L 807.77483 -273.406117 
L 807.038471 -271.131171 
L 806.269497 -268.856225 
L 805.478792 -266.581279 
L 804.67679 -264.306333 
L 803.872828 -262.031387 
L 803.07468 -259.756441 
L 802.288297 -257.481496 
L 801.517744 -255.20655 
L 800.765324 -252.931604 
L 800.031857 -250.656658 
L 799.317052 -248.381712 
L 798.619944 -246.106766 
L 797.939327 -243.83182 
L 797.274145 -241.556874 
L 796.623808 -239.281928 
L 795.988406 -237.006982 
L 795.36881 -234.732036 
L 794.766666 -232.45709 
L 794.184293 -230.182144 
L 793.624502 -227.907198 
L 793.090375 -225.632252 
L 792.585014 -223.357306 
L 792.111303 -221.08236 
L 791.671692 -218.807414 
L 791.268031 -216.532468 
L 790.901455 -214.257522 
L 790.572329 -211.982577 
L 790.28025 -209.707631 
L 790.024098 -207.432685 
L 789.802126 -205.157739 
L 789.612076 -202.882793 
L 789.451316 -200.607847 
z
" id="m34548f133a" style="stroke:#484848;stroke-width:1.5;"/>
    </defs>
    <g clip-path="url(#pc5e261cb5b)">
     <use style="fill:#afd5ab;stroke:#484848;stroke-width:1.5;" x="0" xlink:href="#m34548f133a" y="583.2"/>
    </g>
   </g>
   <g id="PolyCollection_8">
    <defs>
     <path d="M 888.816522 -84.564 
L 887.183478 -84.564 
L 887.015086 -88.33999 
L 886.821272 -92.11598 
L 886.600314 -95.89197 
L 886.350823 -99.667959 
L 886.071839 -103.443949 
L 885.762926 -107.219939 
L 885.424259 -110.995929 
L 885.056701 -114.771919 
L 884.661856 -118.547909 
L 884.242101 -122.323898 
L 883.80059 -126.099888 
L 883.341228 -129.875878 
L 882.868612 -133.651868 
L 882.387935 -137.427858 
L 881.904865 -141.203848 
L 881.425398 -144.979837 
L 880.955686 -148.755827 
L 880.501849 -152.531817 
L 880.069792 -156.307807 
L 879.665015 -160.083797 
L 879.292436 -163.859787 
L 878.956239 -167.635776 
L 878.659746 -171.411766 
L 878.405318 -175.187756 
L 878.194293 -178.963746 
L 878.026964 -182.739736 
L 877.902587 -186.515726 
L 877.819425 -190.291715 
L 877.774818 -194.067705 
L 877.765275 -197.843695 
L 877.786585 -201.619685 
L 877.833932 -205.395675 
L 877.90202 -209.171665 
L 877.985192 -212.947654 
L 878.077546 -216.723644 
L 878.173043 -220.499634 
L 878.265609 -224.275624 
L 878.349229 -228.051614 
L 878.418034 -231.827604 
L 878.46639 -235.603593 
L 878.488983 -239.379583 
L 878.480909 -243.155573 
L 878.437768 -246.931563 
L 878.35576 -250.707553 
L 878.23179 -254.483543 
L 878.063575 -258.259532 
L 877.849743 -262.035522 
L 877.589934 -265.811512 
L 877.284883 -269.587502 
L 876.936488 -273.363492 
L 876.547853 -277.139482 
L 876.123299 -280.915471 
L 875.668341 -284.691461 
L 875.18963 -288.467451 
L 874.694856 -292.243441 
L 874.192604 -296.019431 
L 873.692188 -299.795421 
L 873.203439 -303.57141 
L 872.736483 -307.3474 
L 872.301486 -311.12339 
L 871.9084 -314.89938 
L 871.566702 -318.67537 
L 871.28515 -322.45136 
L 871.071541 -326.22735 
L 870.932511 -330.003339 
L 870.873356 -333.779329 
L 870.897889 -337.555319 
L 871.008346 -341.331309 
L 871.205334 -345.107299 
L 871.487816 -348.883289 
L 871.853156 -352.659278 
L 872.297189 -356.435268 
L 872.814352 -360.211258 
L 873.397829 -363.987248 
L 874.039745 -367.763238 
L 874.731371 -371.539228 
L 875.463354 -375.315217 
L 876.225954 -379.091207 
L 877.009283 -382.867197 
L 877.803539 -386.643187 
L 878.59923 -390.419177 
L 879.387376 -394.195167 
L 880.159684 -397.971156 
L 880.908703 -401.747146 
L 881.627936 -405.523136 
L 882.31192 -409.299126 
L 882.956274 -413.075116 
L 883.557709 -416.851106 
L 884.114002 -420.627095 
L 884.623948 -424.403085 
L 885.087286 -428.179075 
L 885.504593 -431.955065 
L 885.877182 -435.731055 
L 886.206977 -439.507045 
L 886.496389 -443.283034 
L 886.748192 -447.059024 
L 886.965408 -450.835014 
L 887.151196 -454.611004 
L 887.308757 -458.386994 
L 888.691243 -458.386994 
L 888.691243 -458.386994 
L 888.848804 -454.611004 
L 889.034592 -450.835014 
L 889.251808 -447.059024 
L 889.503611 -443.283034 
L 889.793023 -439.507045 
L 890.122818 -435.731055 
L 890.495407 -431.955065 
L 890.912714 -428.179075 
L 891.376052 -424.403085 
L 891.885998 -420.627095 
L 892.442291 -416.851106 
L 893.043726 -413.075116 
L 893.68808 -409.299126 
L 894.372064 -405.523136 
L 895.091297 -401.747146 
L 895.840316 -397.971156 
L 896.612624 -394.195167 
L 897.40077 -390.419177 
L 898.196461 -386.643187 
L 898.990717 -382.867197 
L 899.774046 -379.091207 
L 900.536646 -375.315217 
L 901.268629 -371.539228 
L 901.960255 -367.763238 
L 902.602171 -363.987248 
L 903.185648 -360.211258 
L 903.702811 -356.435268 
L 904.146844 -352.659278 
L 904.512184 -348.883289 
L 904.794666 -345.107299 
L 904.991654 -341.331309 
L 905.102111 -337.555319 
L 905.126644 -333.779329 
L 905.067489 -330.003339 
L 904.928459 -326.22735 
L 904.71485 -322.45136 
L 904.433298 -318.67537 
L 904.0916 -314.89938 
L 903.698514 -311.12339 
L 903.263517 -307.3474 
L 902.796561 -303.57141 
L 902.307812 -299.795421 
L 901.807396 -296.019431 
L 901.305144 -292.243441 
L 900.81037 -288.467451 
L 900.331659 -284.691461 
L 899.876701 -280.915471 
L 899.452147 -277.139482 
L 899.063512 -273.363492 
L 898.715117 -269.587502 
L 898.410066 -265.811512 
L 898.150257 -262.035522 
L 897.936425 -258.259532 
L 897.76821 -254.483543 
L 897.64424 -250.707553 
L 897.562232 -246.931563 
L 897.519091 -243.155573 
L 897.511017 -239.379583 
L 897.53361 -235.603593 
L 897.581966 -231.827604 
L 897.650771 -228.051614 
L 897.734391 -224.275624 
L 897.826957 -220.499634 
L 897.922454 -216.723644 
L 898.014808 -212.947654 
L 898.09798 -209.171665 
L 898.166068 -205.395675 
L 898.213415 -201.619685 
L 898.234725 -197.843695 
L 898.225182 -194.067705 
L 898.180575 -190.291715 
L 898.097413 -186.515726 
L 897.973036 -182.739736 
L 897.805707 -178.963746 
L 897.594682 -175.187756 
L 897.340254 -171.411766 
L 897.043761 -167.635776 
L 896.707564 -163.859787 
L 896.334985 -160.083797 
L 895.930208 -156.307807 
L 895.498151 -152.531817 
L 895.044314 -148.755827 
L 894.574602 -144.979837 
L 894.095135 -141.203848 
L 893.612065 -137.427858 
L 893.131388 -133.651868 
L 892.658772 -129.875878 
L 892.19941 -126.099888 
L 891.757899 -122.323898 
L 891.338144 -118.547909 
L 890.943299 -114.771919 
L 890.575741 -110.995929 
L 890.237074 -107.219939 
L 889.928161 -103.443949 
L 889.649177 -99.667959 
L 889.399686 -95.89197 
L 889.178728 -92.11598 
L 888.984914 -88.33999 
L 888.816522 -84.564 
z
" id="m0e9a46bbef" style="stroke:#484848;stroke-width:1.5;"/>
    </defs>
    <g clip-path="url(#pc5e261cb5b)">
     <use style="fill:#72b6a1;stroke:#484848;stroke-width:1.5;" x="0" xlink:href="#m0e9a46bbef" y="583.2"/>
    </g>
   </g>
   <g id="PolyCollection_9">
    <defs>
     <path d="M 988.427997 -84.605035 
L 985.972003 -84.605035 
L 985.611674 -88.661288 
L 985.17062 -92.717541 
L 984.638421 -96.773794 
L 984.005432 -100.830047 
L 983.263437 -104.8863 
L 982.406369 -108.942553 
L 981.431055 -112.998806 
L 980.337917 -117.055059 
L 979.131597 -121.111312 
L 977.821432 -125.167565 
L 976.421712 -129.223817 
L 974.951694 -133.28007 
L 973.435317 -137.336323 
L 971.9006 -141.392576 
L 970.378742 -145.448829 
L 968.902943 -149.505082 
L 967.507003 -153.561335 
L 966.223781 -157.617588 
L 965.083609 -161.673841 
L 964.112764 -165.730094 
L 963.332117 -169.786347 
L 962.756047 -173.8426 
L 962.391722 -177.898853 
L 962.238792 -181.955105 
L 962.289535 -186.011358 
L 962.529442 -190.067611 
L 962.938214 -194.123864 
L 963.491082 -198.180117 
L 964.160363 -202.23637 
L 964.917142 -206.292623 
L 965.732936 -210.348876 
L 966.581248 -214.405129 
L 967.438882 -218.461382 
L 968.286948 -222.517635 
L 969.111499 -226.573888 
L 969.90376 -230.630141 
L 970.659988 -234.686393 
L 971.380968 -238.742646 
L 972.071227 -242.798899 
L 972.738036 -246.855152 
L 973.390309 -250.911405 
L 974.037471 -254.967658 
L 974.688402 -259.023911 
L 975.35053 -263.080164 
L 976.029129 -267.136417 
L 976.726868 -271.19267 
L 977.443615 -275.248923 
L 978.176501 -279.305176 
L 978.9202 -283.361429 
L 979.6674 -287.417681 
L 980.409389 -291.473934 
L 981.136701 -295.530187 
L 981.839774 -299.58644 
L 982.509546 -303.642693 
L 983.137951 -307.698946 
L 983.718302 -311.755199 
L 984.245516 -315.811452 
L 984.716208 -319.867705 
L 985.128653 -323.923958 
L 985.482644 -327.980211 
L 985.779269 -332.036464 
L 986.020655 -336.092717 
L 986.209694 -340.148969 
L 986.349793 -344.205222 
L 986.444664 -348.261475 
L 986.498167 -352.317728 
L 986.514217 -356.373981 
L 986.496751 -360.430234 
L 986.449741 -364.486487 
L 986.37725 -368.54274 
L 986.283495 -372.598993 
L 986.17291 -376.655246 
L 986.050186 -380.711499 
L 985.920273 -384.767752 
L 985.788328 -388.824005 
L 985.659614 -392.880257 
L 985.539348 -396.93651 
L 985.432505 -400.992763 
L 985.343602 -405.049016 
L 985.276479 -409.105269 
L 985.234094 -413.161522 
L 985.218363 -417.217775 
L 985.230056 -421.274028 
L 985.268761 -425.330281 
L 985.332932 -429.386534 
L 985.419999 -433.442787 
L 985.52655 -437.49904 
L 985.648558 -441.555293 
L 985.781639 -445.611545 
L 985.921308 -449.667798 
L 986.06323 -453.724051 
L 986.203433 -457.780304 
L 986.338477 -461.836557 
L 986.465563 -465.89281 
L 986.582598 -469.949063 
L 986.68819 -474.005316 
L 986.781615 -478.061569 
L 986.862736 -482.117822 
L 986.931904 -486.174075 
L 987.468096 -486.174075 
L 987.468096 -486.174075 
L 987.537264 -482.117822 
L 987.618385 -478.061569 
L 987.71181 -474.005316 
L 987.817402 -469.949063 
L 987.934437 -465.89281 
L 988.061523 -461.836557 
L 988.196567 -457.780304 
L 988.33677 -453.724051 
L 988.478692 -449.667798 
L 988.618361 -445.611545 
L 988.751442 -441.555293 
L 988.87345 -437.49904 
L 988.980001 -433.442787 
L 989.067068 -429.386534 
L 989.131239 -425.330281 
L 989.169944 -421.274028 
L 989.181637 -417.217775 
L 989.165906 -413.161522 
L 989.123521 -409.105269 
L 989.056398 -405.049016 
L 988.967495 -400.992763 
L 988.860652 -396.93651 
L 988.740386 -392.880257 
L 988.611672 -388.824005 
L 988.479727 -384.767752 
L 988.349814 -380.711499 
L 988.22709 -376.655246 
L 988.116505 -372.598993 
L 988.02275 -368.54274 
L 987.950259 -364.486487 
L 987.903249 -360.430234 
L 987.885783 -356.373981 
L 987.901833 -352.317728 
L 987.955336 -348.261475 
L 988.050207 -344.205222 
L 988.190306 -340.148969 
L 988.379345 -336.092717 
L 988.620731 -332.036464 
L 988.917356 -327.980211 
L 989.271347 -323.923958 
L 989.683792 -319.867705 
L 990.154484 -315.811452 
L 990.681698 -311.755199 
L 991.262049 -307.698946 
L 991.890454 -303.642693 
L 992.560226 -299.58644 
L 993.263299 -295.530187 
L 993.990611 -291.473934 
L 994.7326 -287.417681 
L 995.4798 -283.361429 
L 996.223499 -279.305176 
L 996.956385 -275.248923 
L 997.673132 -271.19267 
L 998.370871 -267.136417 
L 999.04947 -263.080164 
L 999.711598 -259.023911 
L 1000.362529 -254.967658 
L 1001.009691 -250.911405 
L 1001.661964 -246.855152 
L 1002.328773 -242.798899 
L 1003.019032 -238.742646 
L 1003.740012 -234.686393 
L 1004.49624 -230.630141 
L 1005.288501 -226.573888 
L 1006.113052 -222.517635 
L 1006.961118 -218.461382 
L 1007.818752 -214.405129 
L 1008.667064 -210.348876 
L 1009.482858 -206.292623 
L 1010.239637 -202.23637 
L 1010.908918 -198.180117 
L 1011.461786 -194.123864 
L 1011.870558 -190.067611 
L 1012.110465 -186.011358 
L 1012.161208 -181.955105 
L 1012.008278 -177.898853 
L 1011.643953 -173.8426 
L 1011.067883 -169.786347 
L 1010.287236 -165.730094 
L 1009.316391 -161.673841 
L 1008.176219 -157.617588 
L 1006.892997 -153.561335 
L 1005.497057 -149.505082 
L 1004.021258 -145.448829 
L 1002.4994 -141.392576 
L 1000.964683 -137.336323 
L 999.448306 -133.28007 
L 997.978288 -129.223817 
L 996.578568 -125.167565 
L 995.268403 -121.111312 
L 994.062083 -117.055059 
L 992.968945 -112.998806 
L 991.993631 -108.942553 
L 991.136563 -104.8863 
L 990.394568 -100.830047 
L 989.761579 -96.773794 
L 989.22938 -92.717541 
L 988.788326 -88.661288 
L 988.427997 -84.605035 
z
" id="m2ba052e09a" style="stroke:#484848;stroke-width:1.5;"/>
    </defs>
    <g clip-path="url(#pc5e261cb5b)">
     <use style="fill:#4483ab;stroke:#484848;stroke-width:1.5;" x="0" xlink:href="#m2ba052e09a" y="583.2"/>
    </g>
   </g>
   <g id="matplotlib.axis_1">
    <g id="xtick_1">
     <g id="line2d_1">
      <defs>
       <path d="M 0 0 
L 0 3.5 
" id="m20c40c82e7" style="stroke:#000000;stroke-width:0.8;"/>
      </defs>
      <g>
       <use style="stroke:#000000;stroke-width:0.8;" x="193.6" xlink:href="#m20c40c82e7" y="519.048"/>
      </g>
     </g>
     <g id="text_1">
      <!-- Player1_healthy -->
      <g transform="translate(153.572656 533.646437)scale(0.1 -0.1)">
       <defs>
        <path d="M 1259 4147 
L 1259 2394 
L 2053 2394 
Q 2494 2394 2734 2622 
Q 2975 2850 2975 3272 
Q 2975 3691 2734 3919 
Q 2494 4147 2053 4147 
L 1259 4147 
z
M 628 4666 
L 2053 4666 
Q 2838 4666 3239 4311 
Q 3641 3956 3641 3272 
Q 3641 2581 3239 2228 
Q 2838 1875 2053 1875 
L 1259 1875 
L 1259 0 
L 628 0 
L 628 4666 
z
" id="DejaVuSans-50" transform="scale(0.015625)"/>
        <path d="M 603 4863 
L 1178 4863 
L 1178 0 
L 603 0 
L 603 4863 
z
" id="DejaVuSans-6c" transform="scale(0.015625)"/>
        <path d="M 2194 1759 
Q 1497 1759 1228 1600 
Q 959 1441 959 1056 
Q 959 750 1161 570 
Q 1363 391 1709 391 
Q 2188 391 2477 730 
Q 2766 1069 2766 1631 
L 2766 1759 
L 2194 1759 
z
M 3341 1997 
L 3341 0 
L 2766 0 
L 2766 531 
Q 2569 213 2275 61 
Q 1981 -91 1556 -91 
Q 1019 -91 701 211 
Q 384 513 384 1019 
Q 384 1609 779 1909 
Q 1175 2209 1959 2209 
L 2766 2209 
L 2766 2266 
Q 2766 2663 2505 2880 
Q 2244 3097 1772 3097 
Q 1472 3097 1187 3025 
Q 903 2953 641 2809 
L 641 3341 
Q 956 3463 1253 3523 
Q 1550 3584 1831 3584 
Q 2591 3584 2966 3190 
Q 3341 2797 3341 1997 
z
" id="DejaVuSans-61" transform="scale(0.015625)"/>
        <path d="M 2059 -325 
Q 1816 -950 1584 -1140 
Q 1353 -1331 966 -1331 
L 506 -1331 
L 506 -850 
L 844 -850 
Q 1081 -850 1212 -737 
Q 1344 -625 1503 -206 
L 1606 56 
L 191 3500 
L 800 3500 
L 1894 763 
L 2988 3500 
L 3597 3500 
L 2059 -325 
z
" id="DejaVuSans-79" transform="scale(0.015625)"/>
        <path d="M 3597 1894 
L 3597 1613 
L 953 1613 
Q 991 1019 1311 708 
Q 1631 397 2203 397 
Q 2534 397 2845 478 
Q 3156 559 3463 722 
L 3463 178 
Q 3153 47 2828 -22 
Q 2503 -91 2169 -91 
Q 1331 -91 842 396 
Q 353 884 353 1716 
Q 353 2575 817 3079 
Q 1281 3584 2069 3584 
Q 2775 3584 3186 3129 
Q 3597 2675 3597 1894 
z
M 3022 2063 
Q 3016 2534 2758 2815 
Q 2500 3097 2075 3097 
Q 1594 3097 1305 2825 
Q 1016 2553 972 2059 
L 3022 2063 
z
" id="DejaVuSans-65" transform="scale(0.015625)"/>
        <path d="M 2631 2963 
Q 2534 3019 2420 3045 
Q 2306 3072 2169 3072 
Q 1681 3072 1420 2755 
Q 1159 2438 1159 1844 
L 1159 0 
L 581 0 
L 581 3500 
L 1159 3500 
L 1159 2956 
Q 1341 3275 1631 3429 
Q 1922 3584 2338 3584 
Q 2397 3584 2469 3576 
Q 2541 3569 2628 3553 
L 2631 2963 
z
" id="DejaVuSans-72" transform="scale(0.015625)"/>
        <path d="M 794 531 
L 1825 531 
L 1825 4091 
L 703 3866 
L 703 4441 
L 1819 4666 
L 2450 4666 
L 2450 531 
L 3481 531 
L 3481 0 
L 794 0 
L 794 531 
z
" id="DejaVuSans-31" transform="scale(0.015625)"/>
        <path d="M 3263 -1063 
L 3263 -1509 
L -63 -1509 
L -63 -1063 
L 3263 -1063 
z
" id="DejaVuSans-5f" transform="scale(0.015625)"/>
        <path d="M 3513 2113 
L 3513 0 
L 2938 0 
L 2938 2094 
Q 2938 2591 2744 2837 
Q 2550 3084 2163 3084 
Q 1697 3084 1428 2787 
Q 1159 2491 1159 1978 
L 1159 0 
L 581 0 
L 581 4863 
L 1159 4863 
L 1159 2956 
Q 1366 3272 1645 3428 
Q 1925 3584 2291 3584 
Q 2894 3584 3203 3211 
Q 3513 2838 3513 2113 
z
" id="DejaVuSans-68" transform="scale(0.015625)"/>
        <path d="M 1172 4494 
L 1172 3500 
L 2356 3500 
L 2356 3053 
L 1172 3053 
L 1172 1153 
Q 1172 725 1289 603 
Q 1406 481 1766 481 
L 2356 481 
L 2356 0 
L 1766 0 
Q 1100 0 847 248 
Q 594 497 594 1153 
L 594 3053 
L 172 3053 
L 172 3500 
L 594 3500 
L 594 4494 
L 1172 4494 
z
" id="DejaVuSans-74" transform="scale(0.015625)"/>
       </defs>
       <use xlink:href="#DejaVuSans-50"/>
       <use x="60.302734" xlink:href="#DejaVuSans-6c"/>
       <use x="88.085938" xlink:href="#DejaVuSans-61"/>
       <use x="149.365234" xlink:href="#DejaVuSans-79"/>
       <use x="208.544922" xlink:href="#DejaVuSans-65"/>
       <use x="270.068359" xlink:href="#DejaVuSans-72"/>
       <use x="311.181641" xlink:href="#DejaVuSans-31"/>
       <use x="374.804688" xlink:href="#DejaVuSans-5f"/>
       <use x="424.804688" xlink:href="#DejaVuSans-68"/>
       <use x="488.183594" xlink:href="#DejaVuSans-65"/>
       <use x="549.707031" xlink:href="#DejaVuSans-61"/>
       <use x="610.986328" xlink:href="#DejaVuSans-6c"/>
       <use x="638.769531" xlink:href="#DejaVuSans-74"/>
       <use x="677.978516" xlink:href="#DejaVuSans-68"/>
       <use x="741.357422" xlink:href="#DejaVuSans-79"/>
      </g>
     </g>
    </g>
    <g id="xtick_2">
     <g id="line2d_2">
      <g>
       <use style="stroke:#000000;stroke-width:0.8;" x="292.8" xlink:href="#m20c40c82e7" y="519.048"/>
      </g>
     </g>
     <g id="text_2">
      <!-- biased_A -->
      <g transform="translate(270.396875 533.646437)scale(0.1 -0.1)">
       <defs>
        <path d="M 3116 1747 
Q 3116 2381 2855 2742 
Q 2594 3103 2138 3103 
Q 1681 3103 1420 2742 
Q 1159 2381 1159 1747 
Q 1159 1113 1420 752 
Q 1681 391 2138 391 
Q 2594 391 2855 752 
Q 3116 1113 3116 1747 
z
M 1159 2969 
Q 1341 3281 1617 3432 
Q 1894 3584 2278 3584 
Q 2916 3584 3314 3078 
Q 3713 2572 3713 1747 
Q 3713 922 3314 415 
Q 2916 -91 2278 -91 
Q 1894 -91 1617 61 
Q 1341 213 1159 525 
L 1159 0 
L 581 0 
L 581 4863 
L 1159 4863 
L 1159 2969 
z
" id="DejaVuSans-62" transform="scale(0.015625)"/>
        <path d="M 603 3500 
L 1178 3500 
L 1178 0 
L 603 0 
L 603 3500 
z
M 603 4863 
L 1178 4863 
L 1178 4134 
L 603 4134 
L 603 4863 
z
" id="DejaVuSans-69" transform="scale(0.015625)"/>
        <path d="M 2834 3397 
L 2834 2853 
Q 2591 2978 2328 3040 
Q 2066 3103 1784 3103 
Q 1356 3103 1142 2972 
Q 928 2841 928 2578 
Q 928 2378 1081 2264 
Q 1234 2150 1697 2047 
L 1894 2003 
Q 2506 1872 2764 1633 
Q 3022 1394 3022 966 
Q 3022 478 2636 193 
Q 2250 -91 1575 -91 
Q 1294 -91 989 -36 
Q 684 19 347 128 
L 347 722 
Q 666 556 975 473 
Q 1284 391 1588 391 
Q 1994 391 2212 530 
Q 2431 669 2431 922 
Q 2431 1156 2273 1281 
Q 2116 1406 1581 1522 
L 1381 1569 
Q 847 1681 609 1914 
Q 372 2147 372 2553 
Q 372 3047 722 3315 
Q 1072 3584 1716 3584 
Q 2034 3584 2315 3537 
Q 2597 3491 2834 3397 
z
" id="DejaVuSans-73" transform="scale(0.015625)"/>
        <path d="M 2906 2969 
L 2906 4863 
L 3481 4863 
L 3481 0 
L 2906 0 
L 2906 525 
Q 2725 213 2448 61 
Q 2172 -91 1784 -91 
Q 1150 -91 751 415 
Q 353 922 353 1747 
Q 353 2572 751 3078 
Q 1150 3584 1784 3584 
Q 2172 3584 2448 3432 
Q 2725 3281 2906 2969 
z
M 947 1747 
Q 947 1113 1208 752 
Q 1469 391 1925 391 
Q 2381 391 2643 752 
Q 2906 1113 2906 1747 
Q 2906 2381 2643 2742 
Q 2381 3103 1925 3103 
Q 1469 3103 1208 2742 
Q 947 2381 947 1747 
z
" id="DejaVuSans-64" transform="scale(0.015625)"/>
        <path d="M 2188 4044 
L 1331 1722 
L 3047 1722 
L 2188 4044 
z
M 1831 4666 
L 2547 4666 
L 4325 0 
L 3669 0 
L 3244 1197 
L 1141 1197 
L 716 0 
L 50 0 
L 1831 4666 
z
" id="DejaVuSans-41" transform="scale(0.015625)"/>
       </defs>
       <use xlink:href="#DejaVuSans-62"/>
       <use x="63.476562" xlink:href="#DejaVuSans-69"/>
       <use x="91.259766" xlink:href="#DejaVuSans-61"/>
       <use x="152.539062" xlink:href="#DejaVuSans-73"/>
       <use x="204.638672" xlink:href="#DejaVuSans-65"/>
       <use x="266.162109" xlink:href="#DejaVuSans-64"/>
       <use x="329.638672" xlink:href="#DejaVuSans-5f"/>
       <use x="379.638672" xlink:href="#DejaVuSans-41"/>
      </g>
     </g>
    </g>
    <g id="xtick_3">
     <g id="line2d_3">
      <g>
       <use style="stroke:#000000;stroke-width:0.8;" x="392" xlink:href="#m20c40c82e7" y="519.048"/>
      </g>
     </g>
     <g id="text_3">
      <!-- biased_B -->
      <g transform="translate(369.586719 533.646437)scale(0.1 -0.1)">
       <defs>
        <path d="M 1259 2228 
L 1259 519 
L 2272 519 
Q 2781 519 3026 730 
Q 3272 941 3272 1375 
Q 3272 1813 3026 2020 
Q 2781 2228 2272 2228 
L 1259 2228 
z
M 1259 4147 
L 1259 2741 
L 2194 2741 
Q 2656 2741 2882 2914 
Q 3109 3088 3109 3444 
Q 3109 3797 2882 3972 
Q 2656 4147 2194 4147 
L 1259 4147 
z
M 628 4666 
L 2241 4666 
Q 2963 4666 3353 4366 
Q 3744 4066 3744 3513 
Q 3744 3084 3544 2831 
Q 3344 2578 2956 2516 
Q 3422 2416 3680 2098 
Q 3938 1781 3938 1306 
Q 3938 681 3513 340 
Q 3088 0 2303 0 
L 628 0 
L 628 4666 
z
" id="DejaVuSans-42" transform="scale(0.015625)"/>
       </defs>
       <use xlink:href="#DejaVuSans-62"/>
       <use x="63.476562" xlink:href="#DejaVuSans-69"/>
       <use x="91.259766" xlink:href="#DejaVuSans-61"/>
       <use x="152.539062" xlink:href="#DejaVuSans-73"/>
       <use x="204.638672" xlink:href="#DejaVuSans-65"/>
       <use x="266.162109" xlink:href="#DejaVuSans-64"/>
       <use x="329.638672" xlink:href="#DejaVuSans-5f"/>
       <use x="379.638672" xlink:href="#DejaVuSans-42"/>
      </g>
     </g>
    </g>
    <g id="xtick_4">
     <g id="line2d_4">
      <g>
       <use style="stroke:#000000;stroke-width:0.8;" x="491.2" xlink:href="#m20c40c82e7" y="519.048"/>
      </g>
     </g>
     <g id="text_4">
      <!-- biased_C -->
      <g transform="translate(468.725781 533.646437)scale(0.1 -0.1)">
       <defs>
        <path d="M 4122 4306 
L 4122 3641 
Q 3803 3938 3442 4084 
Q 3081 4231 2675 4231 
Q 1875 4231 1450 3742 
Q 1025 3253 1025 2328 
Q 1025 1406 1450 917 
Q 1875 428 2675 428 
Q 3081 428 3442 575 
Q 3803 722 4122 1019 
L 4122 359 
Q 3791 134 3420 21 
Q 3050 -91 2638 -91 
Q 1578 -91 968 557 
Q 359 1206 359 2328 
Q 359 3453 968 4101 
Q 1578 4750 2638 4750 
Q 3056 4750 3426 4639 
Q 3797 4528 4122 4306 
z
" id="DejaVuSans-43" transform="scale(0.015625)"/>
       </defs>
       <use xlink:href="#DejaVuSans-62"/>
       <use x="63.476562" xlink:href="#DejaVuSans-69"/>
       <use x="91.259766" xlink:href="#DejaVuSans-61"/>
       <use x="152.539062" xlink:href="#DejaVuSans-73"/>
       <use x="204.638672" xlink:href="#DejaVuSans-65"/>
       <use x="266.162109" xlink:href="#DejaVuSans-64"/>
       <use x="329.638672" xlink:href="#DejaVuSans-5f"/>
       <use x="379.638672" xlink:href="#DejaVuSans-43"/>
      </g>
     </g>
    </g>
    <g id="xtick_5">
     <g id="line2d_5">
      <g>
       <use style="stroke:#000000;stroke-width:0.8;" x="590.4" xlink:href="#m20c40c82e7" y="519.048"/>
      </g>
     </g>
     <g id="text_5">
      <!-- biased_D -->
      <g transform="translate(567.567187 533.646437)scale(0.1 -0.1)">
       <defs>
        <path d="M 1259 4147 
L 1259 519 
L 2022 519 
Q 2988 519 3436 956 
Q 3884 1394 3884 2338 
Q 3884 3275 3436 3711 
Q 2988 4147 2022 4147 
L 1259 4147 
z
M 628 4666 
L 1925 4666 
Q 3281 4666 3915 4102 
Q 4550 3538 4550 2338 
Q 4550 1131 3912 565 
Q 3275 0 1925 0 
L 628 0 
L 628 4666 
z
" id="DejaVuSans-44" transform="scale(0.015625)"/>
       </defs>
       <use xlink:href="#DejaVuSans-62"/>
       <use x="63.476562" xlink:href="#DejaVuSans-69"/>
       <use x="91.259766" xlink:href="#DejaVuSans-61"/>
       <use x="152.539062" xlink:href="#DejaVuSans-73"/>
       <use x="204.638672" xlink:href="#DejaVuSans-65"/>
       <use x="266.162109" xlink:href="#DejaVuSans-64"/>
       <use x="329.638672" xlink:href="#DejaVuSans-5f"/>
       <use x="379.638672" xlink:href="#DejaVuSans-44"/>
      </g>
     </g>
    </g>
    <g id="xtick_6">
     <g id="line2d_6">
      <g>
       <use style="stroke:#000000;stroke-width:0.8;" x="689.6" xlink:href="#m20c40c82e7" y="519.048"/>
      </g>
     </g>
     <g id="text_6">
      <!-- Type1_depressed -->
      <g transform="translate(646.53125 533.646437)scale(0.1 -0.1)">
       <defs>
        <path d="M -19 4666 
L 3928 4666 
L 3928 4134 
L 2272 4134 
L 2272 0 
L 1638 0 
L 1638 4134 
L -19 4134 
L -19 4666 
z
" id="DejaVuSans-54" transform="scale(0.015625)"/>
        <path d="M 1159 525 
L 1159 -1331 
L 581 -1331 
L 581 3500 
L 1159 3500 
L 1159 2969 
Q 1341 3281 1617 3432 
Q 1894 3584 2278 3584 
Q 2916 3584 3314 3078 
Q 3713 2572 3713 1747 
Q 3713 922 3314 415 
Q 2916 -91 2278 -91 
Q 1894 -91 1617 61 
Q 1341 213 1159 525 
z
M 3116 1747 
Q 3116 2381 2855 2742 
Q 2594 3103 2138 3103 
Q 1681 3103 1420 2742 
Q 1159 2381 1159 1747 
Q 1159 1113 1420 752 
Q 1681 391 2138 391 
Q 2594 391 2855 752 
Q 3116 1113 3116 1747 
z
" id="DejaVuSans-70" transform="scale(0.015625)"/>
       </defs>
       <use xlink:href="#DejaVuSans-54"/>
       <use x="45.458984" xlink:href="#DejaVuSans-79"/>
       <use x="104.638672" xlink:href="#DejaVuSans-70"/>
       <use x="168.115234" xlink:href="#DejaVuSans-65"/>
       <use x="229.638672" xlink:href="#DejaVuSans-31"/>
       <use x="293.261719" xlink:href="#DejaVuSans-5f"/>
       <use x="343.261719" xlink:href="#DejaVuSans-64"/>
       <use x="406.738281" xlink:href="#DejaVuSans-65"/>
       <use x="468.261719" xlink:href="#DejaVuSans-70"/>
       <use x="531.738281" xlink:href="#DejaVuSans-72"/>
       <use x="570.601562" xlink:href="#DejaVuSans-65"/>
       <use x="632.125" xlink:href="#DejaVuSans-73"/>
       <use x="684.224609" xlink:href="#DejaVuSans-73"/>
       <use x="736.324219" xlink:href="#DejaVuSans-65"/>
       <use x="797.847656" xlink:href="#DejaVuSans-64"/>
      </g>
     </g>
    </g>
    <g id="xtick_7">
     <g id="line2d_7">
      <g>
       <use style="stroke:#000000;stroke-width:0.8;" x="788.8" xlink:href="#m20c40c82e7" y="519.048"/>
      </g>
     </g>
     <g id="text_7">
      <!-- Type2_depressed -->
      <g transform="translate(745.73125 533.646437)scale(0.1 -0.1)">
       <defs>
        <path d="M 1228 531 
L 3431 531 
L 3431 0 
L 469 0 
L 469 531 
Q 828 903 1448 1529 
Q 2069 2156 2228 2338 
Q 2531 2678 2651 2914 
Q 2772 3150 2772 3378 
Q 2772 3750 2511 3984 
Q 2250 4219 1831 4219 
Q 1534 4219 1204 4116 
Q 875 4013 500 3803 
L 500 4441 
Q 881 4594 1212 4672 
Q 1544 4750 1819 4750 
Q 2544 4750 2975 4387 
Q 3406 4025 3406 3419 
Q 3406 3131 3298 2873 
Q 3191 2616 2906 2266 
Q 2828 2175 2409 1742 
Q 1991 1309 1228 531 
z
" id="DejaVuSans-32" transform="scale(0.015625)"/>
       </defs>
       <use xlink:href="#DejaVuSans-54"/>
       <use x="45.458984" xlink:href="#DejaVuSans-79"/>
       <use x="104.638672" xlink:href="#DejaVuSans-70"/>
       <use x="168.115234" xlink:href="#DejaVuSans-65"/>
       <use x="229.638672" xlink:href="#DejaVuSans-32"/>
       <use x="293.261719" xlink:href="#DejaVuSans-5f"/>
       <use x="343.261719" xlink:href="#DejaVuSans-64"/>
       <use x="406.738281" xlink:href="#DejaVuSans-65"/>
       <use x="468.261719" xlink:href="#DejaVuSans-70"/>
       <use x="531.738281" xlink:href="#DejaVuSans-72"/>
       <use x="570.601562" xlink:href="#DejaVuSans-65"/>
       <use x="632.125" xlink:href="#DejaVuSans-73"/>
       <use x="684.224609" xlink:href="#DejaVuSans-73"/>
       <use x="736.324219" xlink:href="#DejaVuSans-65"/>
       <use x="797.847656" xlink:href="#DejaVuSans-64"/>
      </g>
     </g>
    </g>
    <g id="xtick_8">
     <g id="line2d_8">
      <g>
       <use style="stroke:#000000;stroke-width:0.8;" x="888" xlink:href="#m20c40c82e7" y="519.048"/>
      </g>
     </g>
     <g id="text_8">
      <!-- Type1_social_phobia -->
      <g transform="translate(837.050781 533.646437)scale(0.1 -0.1)">
       <defs>
        <path d="M 1959 3097 
Q 1497 3097 1228 2736 
Q 959 2375 959 1747 
Q 959 1119 1226 758 
Q 1494 397 1959 397 
Q 2419 397 2687 759 
Q 2956 1122 2956 1747 
Q 2956 2369 2687 2733 
Q 2419 3097 1959 3097 
z
M 1959 3584 
Q 2709 3584 3137 3096 
Q 3566 2609 3566 1747 
Q 3566 888 3137 398 
Q 2709 -91 1959 -91 
Q 1206 -91 779 398 
Q 353 888 353 1747 
Q 353 2609 779 3096 
Q 1206 3584 1959 3584 
z
" id="DejaVuSans-6f" transform="scale(0.015625)"/>
        <path d="M 3122 3366 
L 3122 2828 
Q 2878 2963 2633 3030 
Q 2388 3097 2138 3097 
Q 1578 3097 1268 2742 
Q 959 2388 959 1747 
Q 959 1106 1268 751 
Q 1578 397 2138 397 
Q 2388 397 2633 464 
Q 2878 531 3122 666 
L 3122 134 
Q 2881 22 2623 -34 
Q 2366 -91 2075 -91 
Q 1284 -91 818 406 
Q 353 903 353 1747 
Q 353 2603 823 3093 
Q 1294 3584 2113 3584 
Q 2378 3584 2631 3529 
Q 2884 3475 3122 3366 
z
" id="DejaVuSans-63" transform="scale(0.015625)"/>
       </defs>
       <use xlink:href="#DejaVuSans-54"/>
       <use x="45.458984" xlink:href="#DejaVuSans-79"/>
       <use x="104.638672" xlink:href="#DejaVuSans-70"/>
       <use x="168.115234" xlink:href="#DejaVuSans-65"/>
       <use x="229.638672" xlink:href="#DejaVuSans-31"/>
       <use x="293.261719" xlink:href="#DejaVuSans-5f"/>
       <use x="343.261719" xlink:href="#DejaVuSans-73"/>
       <use x="395.361328" xlink:href="#DejaVuSans-6f"/>
       <use x="456.542969" xlink:href="#DejaVuSans-63"/>
       <use x="511.523438" xlink:href="#DejaVuSans-69"/>
       <use x="539.306641" xlink:href="#DejaVuSans-61"/>
       <use x="600.585938" xlink:href="#DejaVuSans-6c"/>
       <use x="628.369141" xlink:href="#DejaVuSans-5f"/>
       <use x="678.369141" xlink:href="#DejaVuSans-70"/>
       <use x="741.845703" xlink:href="#DejaVuSans-68"/>
       <use x="805.224609" xlink:href="#DejaVuSans-6f"/>
       <use x="866.40625" xlink:href="#DejaVuSans-62"/>
       <use x="929.882812" xlink:href="#DejaVuSans-69"/>
       <use x="957.666016" xlink:href="#DejaVuSans-61"/>
      </g>
     </g>
    </g>
    <g id="xtick_9">
     <g id="line2d_9">
      <g>
       <use style="stroke:#000000;stroke-width:0.8;" x="987.2" xlink:href="#m20c40c82e7" y="519.048"/>
      </g>
     </g>
     <g id="text_9">
      <!-- Type2_social_phobia -->
      <g transform="translate(936.250781 533.646437)scale(0.1 -0.1)">
       <use xlink:href="#DejaVuSans-54"/>
       <use x="45.458984" xlink:href="#DejaVuSans-79"/>
       <use x="104.638672" xlink:href="#DejaVuSans-70"/>
       <use x="168.115234" xlink:href="#DejaVuSans-65"/>
       <use x="229.638672" xlink:href="#DejaVuSans-32"/>
       <use x="293.261719" xlink:href="#DejaVuSans-5f"/>
       <use x="343.261719" xlink:href="#DejaVuSans-73"/>
       <use x="395.361328" xlink:href="#DejaVuSans-6f"/>
       <use x="456.542969" xlink:href="#DejaVuSans-63"/>
       <use x="511.523438" xlink:href="#DejaVuSans-69"/>
       <use x="539.306641" xlink:href="#DejaVuSans-61"/>
       <use x="600.585938" xlink:href="#DejaVuSans-6c"/>
       <use x="628.369141" xlink:href="#DejaVuSans-5f"/>
       <use x="678.369141" xlink:href="#DejaVuSans-70"/>
       <use x="741.845703" xlink:href="#DejaVuSans-68"/>
       <use x="805.224609" xlink:href="#DejaVuSans-6f"/>
       <use x="866.40625" xlink:href="#DejaVuSans-62"/>
       <use x="929.882812" xlink:href="#DejaVuSans-69"/>
       <use x="957.666016" xlink:href="#DejaVuSans-61"/>
      </g>
     </g>
    </g>
   </g>
   <g id="matplotlib.axis_2">
    <g id="ytick_1">
     <g id="line2d_10">
      <defs>
       <path d="M 0 0 
L -3.5 0 
" id="m5c610e955e" style="stroke:#000000;stroke-width:0.8;"/>
      </defs>
      <g>
       <use style="stroke:#000000;stroke-width:0.8;" x="144" xlink:href="#m5c610e955e" y="499.564288"/>
      </g>
     </g>
     <g id="text_10">
      <!-- 15 -->
      <g transform="translate(124.275 503.363507)scale(0.1 -0.1)">
       <defs>
        <path d="M 691 4666 
L 3169 4666 
L 3169 4134 
L 1269 4134 
L 1269 2991 
Q 1406 3038 1543 3061 
Q 1681 3084 1819 3084 
Q 2600 3084 3056 2656 
Q 3513 2228 3513 1497 
Q 3513 744 3044 326 
Q 2575 -91 1722 -91 
Q 1428 -91 1123 -41 
Q 819 9 494 109 
L 494 744 
Q 775 591 1075 516 
Q 1375 441 1709 441 
Q 2250 441 2565 725 
Q 2881 1009 2881 1497 
Q 2881 1984 2565 2268 
Q 2250 2553 1709 2553 
Q 1456 2553 1204 2497 
Q 953 2441 691 2322 
L 691 4666 
z
" id="DejaVuSans-35" transform="scale(0.015625)"/>
       </defs>
       <use xlink:href="#DejaVuSans-31"/>
       <use x="63.623047" xlink:href="#DejaVuSans-35"/>
      </g>
     </g>
    </g>
    <g id="ytick_2">
     <g id="line2d_11">
      <g>
       <use style="stroke:#000000;stroke-width:0.8;" x="144" xlink:href="#m5c610e955e" y="429.993997"/>
      </g>
     </g>
     <g id="text_11">
      <!-- 20 -->
      <g transform="translate(124.275 433.793216)scale(0.1 -0.1)">
       <defs>
        <path d="M 2034 4250 
Q 1547 4250 1301 3770 
Q 1056 3291 1056 2328 
Q 1056 1369 1301 889 
Q 1547 409 2034 409 
Q 2525 409 2770 889 
Q 3016 1369 3016 2328 
Q 3016 3291 2770 3770 
Q 2525 4250 2034 4250 
z
M 2034 4750 
Q 2819 4750 3233 4129 
Q 3647 3509 3647 2328 
Q 3647 1150 3233 529 
Q 2819 -91 2034 -91 
Q 1250 -91 836 529 
Q 422 1150 422 2328 
Q 422 3509 836 4129 
Q 1250 4750 2034 4750 
z
" id="DejaVuSans-30" transform="scale(0.015625)"/>
       </defs>
       <use xlink:href="#DejaVuSans-32"/>
       <use x="63.623047" xlink:href="#DejaVuSans-30"/>
      </g>
     </g>
    </g>
    <g id="ytick_3">
     <g id="line2d_12">
      <g>
       <use style="stroke:#000000;stroke-width:0.8;" x="144" xlink:href="#m5c610e955e" y="360.423707"/>
      </g>
     </g>
     <g id="text_12">
      <!-- 25 -->
      <g transform="translate(124.275 364.222925)scale(0.1 -0.1)">
       <use xlink:href="#DejaVuSans-32"/>
       <use x="63.623047" xlink:href="#DejaVuSans-35"/>
      </g>
     </g>
    </g>
    <g id="ytick_4">
     <g id="line2d_13">
      <g>
       <use style="stroke:#000000;stroke-width:0.8;" x="144" xlink:href="#m5c610e955e" y="290.853416"/>
      </g>
     </g>
     <g id="text_13">
      <!-- 30 -->
      <g transform="translate(124.275 294.652635)scale(0.1 -0.1)">
       <defs>
        <path d="M 2597 2516 
Q 3050 2419 3304 2112 
Q 3559 1806 3559 1356 
Q 3559 666 3084 287 
Q 2609 -91 1734 -91 
Q 1441 -91 1130 -33 
Q 819 25 488 141 
L 488 750 
Q 750 597 1062 519 
Q 1375 441 1716 441 
Q 2309 441 2620 675 
Q 2931 909 2931 1356 
Q 2931 1769 2642 2001 
Q 2353 2234 1838 2234 
L 1294 2234 
L 1294 2753 
L 1863 2753 
Q 2328 2753 2575 2939 
Q 2822 3125 2822 3475 
Q 2822 3834 2567 4026 
Q 2313 4219 1838 4219 
Q 1578 4219 1281 4162 
Q 984 4106 628 3988 
L 628 4550 
Q 988 4650 1302 4700 
Q 1616 4750 1894 4750 
Q 2613 4750 3031 4423 
Q 3450 4097 3450 3541 
Q 3450 3153 3228 2886 
Q 3006 2619 2597 2516 
z
" id="DejaVuSans-33" transform="scale(0.015625)"/>
       </defs>
       <use xlink:href="#DejaVuSans-33"/>
       <use x="63.623047" xlink:href="#DejaVuSans-30"/>
      </g>
     </g>
    </g>
    <g id="ytick_5">
     <g id="line2d_14">
      <g>
       <use style="stroke:#000000;stroke-width:0.8;" x="144" xlink:href="#m5c610e955e" y="221.283125"/>
      </g>
     </g>
     <g id="text_14">
      <!-- 35 -->
      <g transform="translate(124.275 225.082344)scale(0.1 -0.1)">
       <use xlink:href="#DejaVuSans-33"/>
       <use x="63.623047" xlink:href="#DejaVuSans-35"/>
      </g>
     </g>
    </g>
    <g id="ytick_6">
     <g id="line2d_15">
      <g>
       <use style="stroke:#000000;stroke-width:0.8;" x="144" xlink:href="#m5c610e955e" y="151.712835"/>
      </g>
     </g>
     <g id="text_15">
      <!-- 40 -->
      <g transform="translate(124.275 155.512053)scale(0.1 -0.1)">
       <defs>
        <path d="M 2419 4116 
L 825 1625 
L 2419 1625 
L 2419 4116 
z
M 2253 4666 
L 3047 4666 
L 3047 1625 
L 3713 1625 
L 3713 1100 
L 3047 1100 
L 3047 0 
L 2419 0 
L 2419 1100 
L 313 1100 
L 313 1709 
L 2253 4666 
z
" id="DejaVuSans-34" transform="scale(0.015625)"/>
       </defs>
       <use xlink:href="#DejaVuSans-34"/>
       <use x="63.623047" xlink:href="#DejaVuSans-30"/>
      </g>
     </g>
    </g>
    <g id="ytick_7">
     <g id="line2d_16">
      <g>
       <use style="stroke:#000000;stroke-width:0.8;" x="144" xlink:href="#m5c610e955e" y="82.142544"/>
      </g>
     </g>
     <g id="text_16">
      <!-- 45 -->
      <g transform="translate(124.275 85.941763)scale(0.1 -0.1)">
       <use xlink:href="#DejaVuSans-34"/>
       <use x="63.623047" xlink:href="#DejaVuSans-35"/>
      </g>
     </g>
    </g>
   </g>
   <g id="line2d_17">
    <path clip-path="url(#pc5e261cb5b)" d="M 193.6 318.681532 
L 193.6 186.49798 
" style="fill:none;stroke:#484848;stroke-linecap:square;stroke-width:1.5;"/>
   </g>
   <g id="line2d_18">
    <path clip-path="url(#pc5e261cb5b)" d="M 193.6 294.33193 
L 193.6 247.371984 
" style="fill:none;stroke:#484848;stroke-linecap:square;stroke-width:4.5;"/>
   </g>
   <g id="line2d_19">
    <path clip-path="url(#pc5e261cb5b)" d="M 292.8 346.509648 
L 292.8 249.111242 
" style="fill:none;stroke:#484848;stroke-linecap:square;stroke-width:1.5;"/>
   </g>
   <g id="line2d_20">
    <path clip-path="url(#pc5e261cb5b)" d="M 292.8 306.506731 
L 292.8 269.982329 
" style="fill:none;stroke:#484848;stroke-linecap:square;stroke-width:4.5;"/>
   </g>
   <g id="line2d_21">
    <path clip-path="url(#pc5e261cb5b)" d="M 392 402.165881 
L 392 207.369067 
" style="fill:none;stroke:#484848;stroke-linecap:square;stroke-width:1.5;"/>
   </g>
   <g id="line2d_22">
    <path clip-path="url(#pc5e261cb5b)" d="M 392 329.117076 
L 392 254.329013 
" style="fill:none;stroke:#484848;stroke-linecap:square;stroke-width:4.5;"/>
   </g>
   <g id="line2d_23">
    <path clip-path="url(#pc5e261cb5b)" d="M 491.2 318.681532 
L 491.2 186.49798 
" style="fill:none;stroke:#484848;stroke-linecap:square;stroke-width:1.5;"/>
   </g>
   <g id="line2d_24">
    <path clip-path="url(#pc5e261cb5b)" d="M 491.2 283.896387 
L 491.2 212.586839 
" style="fill:none;stroke:#484848;stroke-linecap:square;stroke-width:4.5;"/>
   </g>
   <g id="line2d_25">
    <path clip-path="url(#pc5e261cb5b)" d="M 590.4 367.380736 
L 590.4 249.111242 
" style="fill:none;stroke:#484848;stroke-linecap:square;stroke-width:1.5;"/>
   </g>
   <g id="line2d_26">
    <path clip-path="url(#pc5e261cb5b)" d="M 590.4 322.160047 
L 590.4 269.982329 
" style="fill:none;stroke:#484848;stroke-linecap:square;stroke-width:4.5;"/>
   </g>
   <g id="line2d_27">
    <path clip-path="url(#pc5e261cb5b)" d="M 689.6 409.12291 
L 689.6 228.240154 
" style="fill:none;stroke:#484848;stroke-linecap:square;stroke-width:1.5;"/>
   </g>
   <g id="line2d_28">
    <path clip-path="url(#pc5e261cb5b)" d="M 689.6 334.334848 
L 689.6 271.721586 
" style="fill:none;stroke:#484848;stroke-linecap:square;stroke-width:4.5;"/>
   </g>
   <g id="line2d_29">
    <path clip-path="url(#pc5e261cb5b)" d="M 788.8 339.552619 
L 788.8 200.412038 
" style="fill:none;stroke:#484848;stroke-linecap:square;stroke-width:1.5;"/>
   </g>
   <g id="line2d_30">
    <path clip-path="url(#pc5e261cb5b)" d="M 788.8 292.592673 
L 788.8 240.414955 
" style="fill:none;stroke:#484848;stroke-linecap:square;stroke-width:4.5;"/>
   </g>
   <g id="line2d_31">
    <path clip-path="url(#pc5e261cb5b)" d="M 888 416.079939 
L 888 207.369067 
" style="fill:none;stroke:#484848;stroke-linecap:square;stroke-width:1.5;"/>
   </g>
   <g id="line2d_32">
    <path clip-path="url(#pc5e261cb5b)" d="M 888 370.85925 
L 888 247.371984 
" style="fill:none;stroke:#484848;stroke-linecap:square;stroke-width:4.5;"/>
   </g>
   <g id="line2d_33">
    <path clip-path="url(#pc5e261cb5b)" d="M 987.2 429.993997 
L 987.2 304.767474 
" style="fill:none;stroke:#484848;stroke-linecap:square;stroke-width:1.5;"/>
   </g>
   <g id="line2d_34">
    <path clip-path="url(#pc5e261cb5b)" d="M 987.2 409.12291 
L 987.2 343.031134 
" style="fill:none;stroke:#484848;stroke-linecap:square;stroke-width:4.5;"/>
   </g>
   <g id="patch_3">
    <path d="M 144 519.048 
L 144 69.984 
" style="fill:none;stroke:#000000;stroke-linecap:square;stroke-linejoin:miter;stroke-width:0.8;"/>
   </g>
   <g id="patch_4">
    <path d="M 1036.8 519.048 
L 1036.8 69.984 
" style="fill:none;stroke:#000000;stroke-linecap:square;stroke-linejoin:miter;stroke-width:0.8;"/>
   </g>
   <g id="patch_5">
    <path d="M 144 519.048 
L 1036.8 519.048 
" style="fill:none;stroke:#000000;stroke-linecap:square;stroke-linejoin:miter;stroke-width:0.8;"/>
   </g>
   <g id="patch_6">
    <path d="M 144 69.984 
L 1036.8 69.984 
" style="fill:none;stroke:#000000;stroke-linecap:square;stroke-linejoin:miter;stroke-width:0.8;"/>
   </g>
   <g id="PathCollection_1">
    <defs>
     <path d="M 0 1.5 
C 0.397805 1.5 0.77937 1.341951 1.06066 1.06066 
C 1.341951 0.77937 1.5 0.397805 1.5 0 
C 1.5 -0.397805 1.341951 -0.77937 1.06066 -1.06066 
C 0.77937 -1.341951 0.397805 -1.5 0 -1.5 
C -0.397805 -1.5 -0.77937 -1.341951 -1.06066 -1.06066 
C -1.341951 -0.77937 -1.5 -0.397805 -1.5 0 
C -1.5 0.397805 -1.341951 0.77937 -1.06066 1.06066 
C -0.77937 1.341951 -0.397805 1.5 0 1.5 
z
" id="m5e14a1afb0" style="stroke:#484848;"/>
    </defs>
    <g clip-path="url(#pc5e261cb5b)">
     <use style="fill:#ffffff;stroke:#484848;" x="193.6" xlink:href="#m5e14a1afb0" y="263.0253"/>
    </g>
   </g>
   <g id="PathCollection_2">
    <g clip-path="url(#pc5e261cb5b)">
     <use style="fill:#ffffff;stroke:#484848;" x="292.8" xlink:href="#m5e14a1afb0" y="287.374901"/>
    </g>
   </g>
   <g id="PathCollection_3">
    <g clip-path="url(#pc5e261cb5b)">
     <use style="fill:#ffffff;stroke:#484848;" x="392" xlink:href="#m5e14a1afb0" y="294.33193"/>
    </g>
   </g>
   <g id="PathCollection_4">
    <g clip-path="url(#pc5e261cb5b)">
     <use style="fill:#ffffff;stroke:#484848;" x="491.2" xlink:href="#m5e14a1afb0" y="245.632727"/>
    </g>
   </g>
   <g id="PathCollection_5">
    <g clip-path="url(#pc5e261cb5b)">
     <use style="fill:#ffffff;stroke:#484848;" x="590.4" xlink:href="#m5e14a1afb0" y="290.853416"/>
    </g>
   </g>
   <g id="PathCollection_6">
    <g clip-path="url(#pc5e261cb5b)">
     <use style="fill:#ffffff;stroke:#484848;" x="689.6" xlink:href="#m5e14a1afb0" y="301.28896"/>
    </g>
   </g>
   <g id="PathCollection_7">
    <g clip-path="url(#pc5e261cb5b)">
     <use style="fill:#ffffff;stroke:#484848;" x="788.8" xlink:href="#m5e14a1afb0" y="256.068271"/>
    </g>
   </g>
   <g id="PathCollection_8">
    <g clip-path="url(#pc5e261cb5b)">
     <use style="fill:#ffffff;stroke:#484848;" x="888" xlink:href="#m5e14a1afb0" y="276.939358"/>
    </g>
   </g>
   <g id="PathCollection_9">
    <g clip-path="url(#pc5e261cb5b)">
     <use style="fill:#ffffff;stroke:#484848;" x="987.2" xlink:href="#m5e14a1afb0" y="395.208852"/>
    </g>
   </g>
   <g id="text_17">
    <!-- Rewards earned per agent type - cooperative context first -->
    <g transform="translate(226.825781 63.984)scale(0.25 -0.25)">
     <defs>
      <path d="M 2841 2188 
Q 3044 2119 3236 1894 
Q 3428 1669 3622 1275 
L 4263 0 
L 3584 0 
L 2988 1197 
Q 2756 1666 2539 1819 
Q 2322 1972 1947 1972 
L 1259 1972 
L 1259 0 
L 628 0 
L 628 4666 
L 2053 4666 
Q 2853 4666 3247 4331 
Q 3641 3997 3641 3322 
Q 3641 2881 3436 2590 
Q 3231 2300 2841 2188 
z
M 1259 4147 
L 1259 2491 
L 2053 2491 
Q 2509 2491 2742 2702 
Q 2975 2913 2975 3322 
Q 2975 3731 2742 3939 
Q 2509 4147 2053 4147 
L 1259 4147 
z
" id="DejaVuSans-52" transform="scale(0.015625)"/>
      <path d="M 269 3500 
L 844 3500 
L 1563 769 
L 2278 3500 
L 2956 3500 
L 3675 769 
L 4391 3500 
L 4966 3500 
L 4050 0 
L 3372 0 
L 2619 2869 
L 1863 0 
L 1184 0 
L 269 3500 
z
" id="DejaVuSans-77" transform="scale(0.015625)"/>
      <path id="DejaVuSans-20" transform="scale(0.015625)"/>
      <path d="M 3513 2113 
L 3513 0 
L 2938 0 
L 2938 2094 
Q 2938 2591 2744 2837 
Q 2550 3084 2163 3084 
Q 1697 3084 1428 2787 
Q 1159 2491 1159 1978 
L 1159 0 
L 581 0 
L 581 3500 
L 1159 3500 
L 1159 2956 
Q 1366 3272 1645 3428 
Q 1925 3584 2291 3584 
Q 2894 3584 3203 3211 
Q 3513 2838 3513 2113 
z
" id="DejaVuSans-6e" transform="scale(0.015625)"/>
      <path d="M 2906 1791 
Q 2906 2416 2648 2759 
Q 2391 3103 1925 3103 
Q 1463 3103 1205 2759 
Q 947 2416 947 1791 
Q 947 1169 1205 825 
Q 1463 481 1925 481 
Q 2391 481 2648 825 
Q 2906 1169 2906 1791 
z
M 3481 434 
Q 3481 -459 3084 -895 
Q 2688 -1331 1869 -1331 
Q 1566 -1331 1297 -1286 
Q 1028 -1241 775 -1147 
L 775 -588 
Q 1028 -725 1275 -790 
Q 1522 -856 1778 -856 
Q 2344 -856 2625 -561 
Q 2906 -266 2906 331 
L 2906 616 
Q 2728 306 2450 153 
Q 2172 0 1784 0 
Q 1141 0 747 490 
Q 353 981 353 1791 
Q 353 2603 747 3093 
Q 1141 3584 1784 3584 
Q 2172 3584 2450 3431 
Q 2728 3278 2906 2969 
L 2906 3500 
L 3481 3500 
L 3481 434 
z
" id="DejaVuSans-67" transform="scale(0.015625)"/>
      <path d="M 313 2009 
L 1997 2009 
L 1997 1497 
L 313 1497 
L 313 2009 
z
" id="DejaVuSans-2d" transform="scale(0.015625)"/>
      <path d="M 191 3500 
L 800 3500 
L 1894 563 
L 2988 3500 
L 3597 3500 
L 2284 0 
L 1503 0 
L 191 3500 
z
" id="DejaVuSans-76" transform="scale(0.015625)"/>
      <path d="M 3513 3500 
L 2247 1797 
L 3578 0 
L 2900 0 
L 1881 1375 
L 863 0 
L 184 0 
L 1544 1831 
L 300 3500 
L 978 3500 
L 1906 2253 
L 2834 3500 
L 3513 3500 
z
" id="DejaVuSans-78" transform="scale(0.015625)"/>
      <path d="M 2375 4863 
L 2375 4384 
L 1825 4384 
Q 1516 4384 1395 4259 
Q 1275 4134 1275 3809 
L 1275 3500 
L 2222 3500 
L 2222 3053 
L 1275 3053 
L 1275 0 
L 697 0 
L 697 3053 
L 147 3053 
L 147 3500 
L 697 3500 
L 697 3744 
Q 697 4328 969 4595 
Q 1241 4863 1831 4863 
L 2375 4863 
z
" id="DejaVuSans-66" transform="scale(0.015625)"/>
     </defs>
     <use xlink:href="#DejaVuSans-52"/>
     <use x="64.982422" xlink:href="#DejaVuSans-65"/>
     <use x="126.505859" xlink:href="#DejaVuSans-77"/>
     <use x="208.292969" xlink:href="#DejaVuSans-61"/>
     <use x="269.572266" xlink:href="#DejaVuSans-72"/>
     <use x="308.935547" xlink:href="#DejaVuSans-64"/>
     <use x="372.412109" xlink:href="#DejaVuSans-73"/>
     <use x="424.511719" xlink:href="#DejaVuSans-20"/>
     <use x="456.298828" xlink:href="#DejaVuSans-65"/>
     <use x="517.822266" xlink:href="#DejaVuSans-61"/>
     <use x="579.101562" xlink:href="#DejaVuSans-72"/>
     <use x="618.464844" xlink:href="#DejaVuSans-6e"/>
     <use x="681.84375" xlink:href="#DejaVuSans-65"/>
     <use x="743.367188" xlink:href="#DejaVuSans-64"/>
     <use x="806.84375" xlink:href="#DejaVuSans-20"/>
     <use x="838.630859" xlink:href="#DejaVuSans-70"/>
     <use x="902.107422" xlink:href="#DejaVuSans-65"/>
     <use x="963.630859" xlink:href="#DejaVuSans-72"/>
     <use x="1004.744141" xlink:href="#DejaVuSans-20"/>
     <use x="1036.53125" xlink:href="#DejaVuSans-61"/>
     <use x="1097.810547" xlink:href="#DejaVuSans-67"/>
     <use x="1161.287109" xlink:href="#DejaVuSans-65"/>
     <use x="1222.810547" xlink:href="#DejaVuSans-6e"/>
     <use x="1286.189453" xlink:href="#DejaVuSans-74"/>
     <use x="1325.398438" xlink:href="#DejaVuSans-20"/>
     <use x="1357.185547" xlink:href="#DejaVuSans-74"/>
     <use x="1396.394531" xlink:href="#DejaVuSans-79"/>
     <use x="1455.574219" xlink:href="#DejaVuSans-70"/>
     <use x="1519.050781" xlink:href="#DejaVuSans-65"/>
     <use x="1580.574219" xlink:href="#DejaVuSans-20"/>
     <use x="1612.361328" xlink:href="#DejaVuSans-2d"/>
     <use x="1648.445312" xlink:href="#DejaVuSans-20"/>
     <use x="1680.232422" xlink:href="#DejaVuSans-63"/>
     <use x="1735.212891" xlink:href="#DejaVuSans-6f"/>
     <use x="1796.394531" xlink:href="#DejaVuSans-6f"/>
     <use x="1857.576172" xlink:href="#DejaVuSans-70"/>
     <use x="1921.052734" xlink:href="#DejaVuSans-65"/>
     <use x="1982.576172" xlink:href="#DejaVuSans-72"/>
     <use x="2023.689453" xlink:href="#DejaVuSans-61"/>
     <use x="2084.96875" xlink:href="#DejaVuSans-74"/>
     <use x="2124.177734" xlink:href="#DejaVuSans-69"/>
     <use x="2151.960938" xlink:href="#DejaVuSans-76"/>
     <use x="2211.140625" xlink:href="#DejaVuSans-65"/>
     <use x="2272.664062" xlink:href="#DejaVuSans-20"/>
     <use x="2304.451172" xlink:href="#DejaVuSans-63"/>
     <use x="2359.431641" xlink:href="#DejaVuSans-6f"/>
     <use x="2420.613281" xlink:href="#DejaVuSans-6e"/>
     <use x="2483.992188" xlink:href="#DejaVuSans-74"/>
     <use x="2523.201172" xlink:href="#DejaVuSans-65"/>
     <use x="2582.974609" xlink:href="#DejaVuSans-78"/>
     <use x="2642.154297" xlink:href="#DejaVuSans-74"/>
     <use x="2681.363281" xlink:href="#DejaVuSans-20"/>
     <use x="2713.150391" xlink:href="#DejaVuSans-66"/>
     <use x="2748.355469" xlink:href="#DejaVuSans-69"/>
     <use x="2776.138672" xlink:href="#DejaVuSans-72"/>
     <use x="2817.251953" xlink:href="#DejaVuSans-73"/>
     <use x="2869.351562" xlink:href="#DejaVuSans-74"/>
    </g>
   </g>
  </g>
 </g>
 <defs>
  <clipPath id="pc5e261cb5b">
   <rect height="449.064" width="892.8" x="144" y="69.984"/>
  </clipPath>
 </defs>
</svg>
