<?xml version="1.0" encoding="utf-8" standalone="no"?>
<!DOCTYPE svg PUBLIC "-//W3C//DTD SVG 1.1//EN"
  "http://www.w3.org/Graphics/SVG/1.1/DTD/svg11.dtd">
<svg height="597.6pt" version="1.1" viewBox="0 0 1105.92 597.6" width="1105.92pt" xmlns="http://www.w3.org/2000/svg" xmlns:xlink="http://www.w3.org/1999/xlink">
 <metadata>
  <rdf:RDF xmlns:cc="http://creativecommons.org/ns#" xmlns:dc="http://purl.org/dc/elements/1.1/" xmlns:rdf="http://www.w3.org/1999/02/22-rdf-syntax-ns#">
   <cc:Work>
    <dc:type rdf:resource="http://purl.org/dc/dcmitype/StillImage"/>
    <dc:date>2024-06-18T15:50:06.887524</dc:date>
    <dc:format>image/svg+xml</dc:format>
    <dc:creator>
     <cc:Agent>
      <dc:title>Matplotlib v3.4.3, https://matplotlib.org/</dc:title>
     </cc:Agent>
    </dc:creator>
   </cc:Work>
  </rdf:RDF>
 </metadata>
 <defs>
  <style type="text/css">*{stroke-linecap:butt;stroke-linejoin:round;}</style>
 </defs>
 <g id="figure_1">
  <g id="patch_1">
   <path d="M 0 597.6 
L 1105.92 597.6 
L 1105.92 0 
L 0 0 
z
" style="fill:#ffffff;"/>
  </g>
  <g id="axes_1">
   <g id="patch_2">
    <path d="M 138.24 531.864 
L 995.328 531.864 
L 995.328 71.712 
L 138.24 71.712 
z
" style="fill:#ffffff;"/>
   </g>
   <g id="PolyCollection_1">
    <defs>
     <path d="M 185.961623 -167.202913 
L 185.750377 -167.202913 
L 185.722515 -170.213369 
L 185.689739 -173.223825 
L 185.651907 -176.23428 
L 185.60908 -179.244736 
L 185.561575 -182.255192 
L 185.509987 -185.265648 
L 185.455206 -188.276103 
L 185.398411 -191.286559 
L 185.341038 -194.297015 
L 185.284715 -197.307471 
L 185.231185 -200.317926 
L 185.182195 -203.328382 
L 185.139377 -206.338838 
L 185.104116 -209.349294 
L 185.077428 -212.359749 
L 185.059846 -215.370205 
L 185.051328 -218.380661 
L 185.051198 -221.391117 
L 185.05812 -224.401572 
L 185.07011 -227.412028 
L 185.084582 -230.422484 
L 185.09843 -233.432939 
L 185.108136 -236.443395 
L 185.109891 -239.453851 
L 185.099741 -242.464307 
L 185.073722 -245.474762 
L 185.028004 -248.485218 
L 184.959026 -251.495674 
L 184.863615 -254.50613 
L 184.739101 -257.516585 
L 184.583408 -260.527041 
L 184.395132 -263.537497 
L 184.17361 -266.547953 
L 183.918957 -269.558408 
L 183.6321 -272.568864 
L 183.31478 -275.57932 
L 182.969547 -278.589776 
L 182.599723 -281.600231 
L 182.209354 -284.610687 
L 181.803135 -287.621143 
L 181.386316 -290.631599 
L 180.964593 -293.642054 
L 180.543977 -296.65251 
L 180.130647 -299.662966 
L 179.730796 -302.673422 
L 179.350464 -305.683877 
L 178.995374 -308.694333 
L 178.670768 -311.704789 
L 178.381262 -314.715245 
L 178.13071 -317.7257 
L 177.922102 -320.736156 
L 177.757494 -323.746612 
L 177.637967 -326.757068 
L 177.563632 -329.767523 
L 177.533661 -332.777979 
L 177.546359 -335.788435 
L 177.599253 -338.798891 
L 177.689211 -341.809346 
L 177.812567 -344.819802 
L 177.965261 -347.830258 
L 178.142976 -350.840713 
L 178.341286 -353.851169 
L 178.555791 -356.861625 
L 178.782265 -359.872081 
L 179.016783 -362.882536 
L 179.25585 -365.892992 
L 179.496515 -368.903448 
L 179.736456 -371.913904 
L 179.974044 -374.924359 
L 180.208365 -377.934815 
L 180.439197 -380.945271 
L 180.666943 -383.955727 
L 180.892516 -386.966182 
L 181.11719 -389.976638 
L 181.342417 -392.987094 
L 181.569634 -395.99755 
L 181.800075 -399.008005 
L 182.034602 -402.018461 
L 182.273574 -405.028917 
L 182.516768 -408.039373 
L 182.763343 -411.049828 
L 183.011879 -414.060284 
L 183.260444 -417.07074 
L 183.506725 -420.081196 
L 183.74817 -423.091651 
L 183.982151 -426.102107 
L 184.20613 -429.112563 
L 184.417801 -432.123019 
L 184.615212 -435.133474 
L 184.796855 -438.14393 
L 184.961715 -441.154386 
L 185.109287 -444.164842 
L 185.239556 -447.175297 
L 185.352954 -450.185753 
L 185.45029 -453.196209 
L 185.532671 -456.206665 
L 185.60142 -459.21712 
L 185.657989 -462.227576 
L 185.703882 -465.238032 
L 186.008118 -465.238032 
L 186.008118 -465.238032 
L 186.054011 -462.227576 
L 186.11058 -459.21712 
L 186.179329 -456.206665 
L 186.26171 -453.196209 
L 186.359046 -450.185753 
L 186.472444 -447.175297 
L 186.602713 -444.164842 
L 186.750285 -441.154386 
L 186.915145 -438.14393 
L 187.096788 -435.133474 
L 187.294199 -432.123019 
L 187.50587 -429.112563 
L 187.729849 -426.102107 
L 187.96383 -423.091651 
L 188.205275 -420.081196 
L 188.451556 -417.07074 
L 188.700121 -414.060284 
L 188.948657 -411.049828 
L 189.195232 -408.039373 
L 189.438426 -405.028917 
L 189.677398 -402.018461 
L 189.911925 -399.008005 
L 190.142366 -395.99755 
L 190.369583 -392.987094 
L 190.59481 -389.976638 
L 190.819484 -386.966182 
L 191.045057 -383.955727 
L 191.272803 -380.945271 
L 191.503635 -377.934815 
L 191.737956 -374.924359 
L 191.975544 -371.913904 
L 192.215485 -368.903448 
L 192.45615 -365.892992 
L 192.695217 -362.882536 
L 192.929735 -359.872081 
L 193.156209 -356.861625 
L 193.370714 -353.851169 
L 193.569024 -350.840713 
L 193.746739 -347.830258 
L 193.899433 -344.819802 
L 194.022789 -341.809346 
L 194.112747 -338.798891 
L 194.165641 -335.788435 
L 194.178339 -332.777979 
L 194.148368 -329.767523 
L 194.074033 -326.757068 
L 193.954506 -323.746612 
L 193.789898 -320.736156 
L 193.58129 -317.7257 
L 193.330738 -314.715245 
L 193.041232 -311.704789 
L 192.716626 -308.694333 
L 192.361536 -305.683877 
L 191.981204 -302.673422 
L 191.581353 -299.662966 
L 191.168023 -296.65251 
L 190.747407 -293.642054 
L 190.325684 -290.631599 
L 189.908865 -287.621143 
L 189.502646 -284.610687 
L 189.112277 -281.600231 
L 188.742453 -278.589776 
L 188.39722 -275.57932 
L 188.0799 -272.568864 
L 187.793043 -269.558408 
L 187.53839 -266.547953 
L 187.316868 -263.537497 
L 187.128592 -260.527041 
L 186.972899 -257.516585 
L 186.848385 -254.50613 
L 186.752974 -251.495674 
L 186.683996 -248.485218 
L 186.638278 -245.474762 
L 186.612259 -242.464307 
L 186.602109 -239.453851 
L 186.603864 -236.443395 
L 186.61357 -233.432939 
L 186.627418 -230.422484 
L 186.64189 -227.412028 
L 186.65388 -224.401572 
L 186.660802 -221.391117 
L 186.660672 -218.380661 
L 186.652154 -215.370205 
L 186.634572 -212.359749 
L 186.607884 -209.349294 
L 186.572623 -206.338838 
L 186.529805 -203.328382 
L 186.480815 -200.317926 
L 186.427285 -197.307471 
L 186.370962 -194.297015 
L 186.313589 -191.286559 
L 186.256794 -188.276103 
L 186.202013 -185.265648 
L 186.150425 -182.255192 
L 186.10292 -179.244736 
L 186.060093 -176.23428 
L 186.022261 -173.223825 
L 185.989485 -170.213369 
L 185.961623 -167.202913 
z
" id="m6789bebc00" style="stroke:#484848;stroke-width:1.5;"/>
    </defs>
    <g clip-path="url(#p5db699da02)">
     <use style="fill:#c1505d;stroke:#484848;stroke-width:1.5;" x="0" xlink:href="#m6789bebc00" y="597.6"/>
    </g>
   </g>
   <g id="PolyCollection_2">
    <defs>
     <path d="M 281.656329 -147.695489 
L 280.519671 -147.695489 
L 280.391164 -148.449583 
L 280.239397 -149.203678 
L 280.061565 -149.957772 
L 279.85483 -150.711866 
L 279.616399 -151.46596 
L 279.34361 -152.220054 
L 279.034024 -152.974148 
L 278.68553 -153.728242 
L 278.296457 -154.482337 
L 277.865683 -155.236431 
L 277.392744 -155.990525 
L 276.877931 -156.744619 
L 276.322375 -157.498713 
L 275.728115 -158.252807 
L 275.098136 -159.006901 
L 274.436381 -159.760996 
L 273.747733 -160.51509 
L 273.037957 -161.269184 
L 272.313612 -162.023278 
L 271.581923 -162.777372 
L 270.850634 -163.531466 
L 270.127824 -164.285561 
L 269.42171 -165.039655 
L 268.740441 -165.793749 
L 268.091886 -166.547843 
L 267.48343 -167.301937 
L 266.921786 -168.056031 
L 266.41283 -168.810125 
L 265.961462 -169.56422 
L 265.571501 -170.318314 
L 265.245617 -171.072408 
L 264.985297 -171.826502 
L 264.790837 -172.580596 
L 264.661373 -173.33469 
L 264.594929 -174.088784 
L 264.588478 -174.842879 
L 264.638024 -175.596973 
L 264.738681 -176.351067 
L 264.884754 -177.105161 
L 265.069821 -177.859255 
L 265.286804 -178.613349 
L 265.528048 -179.367444 
L 265.785388 -180.121538 
L 266.050225 -180.875632 
L 266.313616 -181.629726 
L 266.566365 -182.38382 
L 266.799145 -183.137914 
L 267.002637 -183.892008 
L 267.167697 -184.646103 
L 267.285549 -185.400197 
L 267.348005 -186.154291 
L 267.347698 -186.908385 
L 267.278342 -187.662479 
L 267.134984 -188.416573 
L 266.914258 -189.170667 
L 266.61462 -189.924762 
L 266.236551 -190.678856 
L 265.782718 -191.43295 
L 265.258079 -192.187044 
L 264.669924 -192.941138 
L 264.027842 -193.695232 
L 263.343601 -194.449327 
L 262.63096 -195.203421 
L 261.905385 -195.957515 
L 261.183696 -196.711609 
L 260.483646 -197.465703 
L 259.82344 -198.219797 
L 259.221217 -198.973891 
L 258.694509 -199.727986 
L 258.259698 -200.48208 
L 257.931494 -201.236174 
L 257.722452 -201.990268 
L 257.642556 -202.744362 
L 257.698883 -203.498456 
L 257.895357 -204.25255 
L 258.232625 -205.006645 
L 258.708035 -205.760739 
L 259.315738 -206.514833 
L 260.046903 -207.268927 
L 260.890024 -208.023021 
L 261.83133 -208.777115 
L 262.855252 -209.53121 
L 263.944948 -210.285304 
L 265.08284 -211.039398 
L 266.251165 -211.793492 
L 267.432494 -212.547586 
L 268.610212 -213.30168 
L 269.768938 -214.055774 
L 270.894868 -214.809869 
L 271.976034 -215.563963 
L 273.002485 -216.318057 
L 273.966366 -217.072151 
L 274.861928 -217.826245 
L 275.685458 -218.580339 
L 276.435142 -219.334434 
L 277.11089 -220.088528 
L 277.714109 -220.842622 
L 278.247465 -221.596716 
L 278.714629 -222.35081 
L 283.461371 -222.35081 
L 283.461371 -222.35081 
L 283.928535 -221.596716 
L 284.461891 -220.842622 
L 285.06511 -220.088528 
L 285.740858 -219.334434 
L 286.490542 -218.580339 
L 287.314072 -217.826245 
L 288.209634 -217.072151 
L 289.173515 -216.318057 
L 290.199966 -215.563963 
L 291.281132 -214.809869 
L 292.407062 -214.055774 
L 293.565788 -213.30168 
L 294.743506 -212.547586 
L 295.924835 -211.793492 
L 297.09316 -211.039398 
L 298.231052 -210.285304 
L 299.320748 -209.53121 
L 300.34467 -208.777115 
L 301.285976 -208.023021 
L 302.129097 -207.268927 
L 302.860262 -206.514833 
L 303.467965 -205.760739 
L 303.943375 -205.006645 
L 304.280643 -204.25255 
L 304.477117 -203.498456 
L 304.533444 -202.744362 
L 304.453548 -201.990268 
L 304.244506 -201.236174 
L 303.916302 -200.48208 
L 303.481491 -199.727986 
L 302.954783 -198.973891 
L 302.35256 -198.219797 
L 301.692354 -197.465703 
L 300.992304 -196.711609 
L 300.270615 -195.957515 
L 299.54504 -195.203421 
L 298.832399 -194.449327 
L 298.148158 -193.695232 
L 297.506076 -192.941138 
L 296.917921 -192.187044 
L 296.393282 -191.43295 
L 295.939449 -190.678856 
L 295.56138 -189.924762 
L 295.261742 -189.170667 
L 295.041016 -188.416573 
L 294.897658 -187.662479 
L 294.828302 -186.908385 
L 294.827995 -186.154291 
L 294.890451 -185.400197 
L 295.008303 -184.646103 
L 295.173363 -183.892008 
L 295.376855 -183.137914 
L 295.609635 -182.38382 
L 295.862384 -181.629726 
L 296.125775 -180.875632 
L 296.390612 -180.121538 
L 296.647952 -179.367444 
L 296.889196 -178.613349 
L 297.106179 -177.859255 
L 297.291246 -177.105161 
L 297.437319 -176.351067 
L 297.537976 -175.596973 
L 297.587522 -174.842879 
L 297.581071 -174.088784 
L 297.514627 -173.33469 
L 297.385163 -172.580596 
L 297.190703 -171.826502 
L 296.930383 -171.072408 
L 296.604499 -170.318314 
L 296.214538 -169.56422 
L 295.76317 -168.810125 
L 295.254214 -168.056031 
L 294.69257 -167.301937 
L 294.084114 -166.547843 
L 293.435559 -165.793749 
L 292.75429 -165.039655 
L 292.048176 -164.285561 
L 291.325366 -163.531466 
L 290.594077 -162.777372 
L 289.862388 -162.023278 
L 289.138043 -161.269184 
L 288.428267 -160.51509 
L 287.739619 -159.760996 
L 287.077864 -159.006901 
L 286.447885 -158.252807 
L 285.853625 -157.498713 
L 285.298069 -156.744619 
L 284.783256 -155.990525 
L 284.310317 -155.236431 
L 283.879543 -154.482337 
L 283.49047 -153.728242 
L 283.141976 -152.974148 
L 282.83239 -152.220054 
L 282.559601 -151.46596 
L 282.32117 -150.711866 
L 282.114435 -149.957772 
L 281.936603 -149.203678 
L 281.784836 -148.449583 
L 281.656329 -147.695489 
z
" id="mf86791a134" style="stroke:#484848;stroke-width:1.5;"/>
    </defs>
    <g clip-path="url(#p5db699da02)">
     <use style="fill:#de7959;stroke:#484848;stroke-width:1.5;" x="0" xlink:href="#mf86791a134" y="597.6"/>
    </g>
   </g>
   <g id="PolyCollection_3">
    <defs>
     <path d="M 376.397068 -86.652 
L 376.242932 -86.652 
L 376.222529 -90.877455 
L 376.198283 -95.102909 
L 376.16991 -99.328364 
L 376.137214 -103.553818 
L 376.100116 -107.779273 
L 376.058676 -112.004727 
L 376.013109 -116.230182 
L 375.963792 -120.455636 
L 375.911269 -124.681091 
L 375.856232 -128.906545 
L 375.799505 -133.132 
L 375.74201 -137.357455 
L 375.684727 -141.582909 
L 375.628649 -145.808364 
L 375.574731 -150.033818 
L 375.523844 -154.259273 
L 375.476727 -158.484727 
L 375.433948 -162.710182 
L 375.39587 -166.935636 
L 375.36263 -171.161091 
L 375.334124 -175.386545 
L 375.310001 -179.612 
L 375.289673 -183.837455 
L 375.272331 -188.062909 
L 375.256962 -192.288364 
L 375.242385 -196.513818 
L 375.227281 -200.739273 
L 375.210233 -204.964727 
L 375.189762 -209.190182 
L 375.16436 -213.415636 
L 375.132527 -217.641091 
L 375.092791 -221.866545 
L 375.043728 -226.092 
L 374.983973 -230.317455 
L 374.912226 -234.542909 
L 374.82725 -238.768364 
L 374.727881 -242.993818 
L 374.613033 -247.219273 
L 374.481717 -251.444727 
L 374.333078 -255.670182 
L 374.166445 -259.895636 
L 373.981397 -264.121091 
L 373.777844 -268.346545 
L 373.556117 -272.572 
L 373.317058 -276.797455 
L 373.062096 -281.022909 
L 372.793306 -285.248364 
L 372.513444 -289.473818 
L 372.225935 -293.699273 
L 371.934831 -297.924727 
L 371.644722 -302.150182 
L 371.360614 -306.375636 
L 371.087777 -310.601091 
L 370.831569 -314.826545 
L 370.597253 -319.052 
L 370.389809 -323.277455 
L 370.21377 -327.502909 
L 370.073054 -331.728364 
L 369.970844 -335.953818 
L 369.909481 -340.179273 
L 369.890392 -344.404727 
L 369.914051 -348.630182 
L 369.979971 -352.855636 
L 370.086729 -357.081091 
L 370.232014 -361.306545 
L 370.412716 -365.532 
L 370.625033 -369.757455 
L 370.864608 -373.982909 
L 371.126679 -378.208364 
L 371.406254 -382.433818 
L 371.698278 -386.659273 
L 371.997811 -390.884727 
L 372.300179 -395.110182 
L 372.601114 -399.335636 
L 372.896862 -403.561091 
L 373.184252 -407.786545 
L 373.460736 -412.012 
L 373.724384 -416.237455 
L 373.973849 -420.462909 
L 374.208313 -424.688364 
L 374.427398 -428.913818 
L 374.631084 -433.139273 
L 374.819615 -437.364727 
L 374.993419 -441.590182 
L 375.153031 -445.815636 
L 375.29904 -450.041091 
L 375.432053 -454.266545 
L 375.552669 -458.492 
L 375.661473 -462.717455 
L 375.75904 -466.942909 
L 375.845942 -471.168364 
L 375.922761 -475.393818 
L 375.990102 -479.619273 
L 376.048598 -483.844727 
L 376.098911 -488.070182 
L 376.141734 -492.295636 
L 376.177782 -496.521091 
L 376.207776 -500.746545 
L 376.232435 -504.972 
L 376.407565 -504.972 
L 376.407565 -504.972 
L 376.432224 -500.746545 
L 376.462218 -496.521091 
L 376.498266 -492.295636 
L 376.541089 -488.070182 
L 376.591402 -483.844727 
L 376.649898 -479.619273 
L 376.717239 -475.393818 
L 376.794058 -471.168364 
L 376.88096 -466.942909 
L 376.978527 -462.717455 
L 377.087331 -458.492 
L 377.207947 -454.266545 
L 377.34096 -450.041091 
L 377.486969 -445.815636 
L 377.646581 -441.590182 
L 377.820385 -437.364727 
L 378.008916 -433.139273 
L 378.212602 -428.913818 
L 378.431687 -424.688364 
L 378.666151 -420.462909 
L 378.915616 -416.237455 
L 379.179264 -412.012 
L 379.455748 -407.786545 
L 379.743138 -403.561091 
L 380.038886 -399.335636 
L 380.339821 -395.110182 
L 380.642189 -390.884727 
L 380.941722 -386.659273 
L 381.233746 -382.433818 
L 381.513321 -378.208364 
L 381.775392 -373.982909 
L 382.014967 -369.757455 
L 382.227284 -365.532 
L 382.407986 -361.306545 
L 382.553271 -357.081091 
L 382.660029 -352.855636 
L 382.725949 -348.630182 
L 382.749608 -344.404727 
L 382.730519 -340.179273 
L 382.669156 -335.953818 
L 382.566946 -331.728364 
L 382.42623 -327.502909 
L 382.250191 -323.277455 
L 382.042747 -319.052 
L 381.808431 -314.826545 
L 381.552223 -310.601091 
L 381.279386 -306.375636 
L 380.995278 -302.150182 
L 380.705169 -297.924727 
L 380.414065 -293.699273 
L 380.126556 -289.473818 
L 379.846694 -285.248364 
L 379.577904 -281.022909 
L 379.322942 -276.797455 
L 379.083883 -272.572 
L 378.862156 -268.346545 
L 378.658603 -264.121091 
L 378.473555 -259.895636 
L 378.306922 -255.670182 
L 378.158283 -251.444727 
L 378.026967 -247.219273 
L 377.912119 -242.993818 
L 377.81275 -238.768364 
L 377.727774 -234.542909 
L 377.656027 -230.317455 
L 377.596272 -226.092 
L 377.547209 -221.866545 
L 377.507473 -217.641091 
L 377.47564 -213.415636 
L 377.450238 -209.190182 
L 377.429767 -204.964727 
L 377.412719 -200.739273 
L 377.397615 -196.513818 
L 377.383038 -192.288364 
L 377.367669 -188.062909 
L 377.350327 -183.837455 
L 377.329999 -179.612 
L 377.305876 -175.386545 
L 377.27737 -171.161091 
L 377.24413 -166.935636 
L 377.206052 -162.710182 
L 377.163273 -158.484727 
L 377.116156 -154.259273 
L 377.065269 -150.033818 
L 377.011351 -145.808364 
L 376.955273 -141.582909 
L 376.89799 -137.357455 
L 376.840495 -133.132 
L 376.783768 -128.906545 
L 376.728731 -124.681091 
L 376.676208 -120.455636 
L 376.626891 -116.230182 
L 376.581324 -112.004727 
L 376.539884 -107.779273 
L 376.502786 -103.553818 
L 376.47009 -99.328364 
L 376.441717 -95.102909 
L 376.417471 -90.877455 
L 376.397068 -86.652 
z
" id="mfb68479ba5" style="stroke:#484848;stroke-width:1.5;"/>
    </defs>
    <g clip-path="url(#p5db699da02)">
     <use style="fill:#e9ad74;stroke:#484848;stroke-width:1.5;" x="0" xlink:href="#mfb68479ba5" y="597.6"/>
    </g>
   </g>
   <g id="PolyCollection_4">
    <defs>
     <path d="M 472.026398 -131.751932 
L 471.077602 -131.751932 
L 470.963968 -134.477288 
L 470.829164 -137.202644 
L 470.670802 -139.927999 
L 470.48659 -142.653355 
L 470.274429 -145.378711 
L 470.032525 -148.104066 
L 469.759505 -150.829422 
L 469.45454 -153.554778 
L 469.117456 -156.280134 
L 468.748849 -159.005489 
L 468.350175 -161.730845 
L 467.923819 -164.456201 
L 467.473135 -167.181556 
L 467.002453 -169.906912 
L 466.517044 -172.632268 
L 466.023044 -175.357623 
L 465.527336 -178.082979 
L 465.037395 -180.808335 
L 464.561091 -183.533691 
L 464.106475 -186.259046 
L 463.681534 -188.984402 
L 463.293944 -191.709758 
L 462.950827 -194.435113 
L 462.658517 -197.160469 
L 462.422354 -199.885825 
L 462.246519 -202.61118 
L 462.133898 -205.336536 
L 462.086013 -208.061892 
L 462.102986 -210.787248 
L 462.183567 -213.512603 
L 462.325204 -216.237959 
L 462.524157 -218.963315 
L 462.775646 -221.68867 
L 463.074027 -224.414026 
L 463.412983 -227.139382 
L 463.78572 -229.864737 
L 464.185172 -232.590093 
L 464.604182 -235.315449 
L 465.035677 -238.040805 
L 465.472822 -240.76616 
L 465.909146 -243.491516 
L 466.338651 -246.216872 
L 466.755888 -248.942227 
L 467.156022 -251.667583 
L 467.534863 -254.392939 
L 467.888891 -257.118294 
L 468.21526 -259.84365 
L 468.511789 -262.569006 
L 468.776945 -265.294362 
L 469.00982 -268.019717 
L 469.210095 -270.745073 
L 469.378006 -273.470429 
L 469.514302 -276.195784 
L 469.620198 -278.92114 
L 469.69733 -281.646496 
L 469.747702 -284.371851 
L 469.773633 -287.097207 
L 469.777706 -289.822563 
L 469.762709 -292.547919 
L 469.731585 -295.273274 
L 469.687375 -297.99863 
L 469.633162 -300.723986 
L 469.572028 -303.449341 
L 469.506998 -306.174697 
L 469.440996 -308.900053 
L 469.376803 -311.625408 
L 469.317013 -314.350764 
L 469.264 -317.07612 
L 469.219878 -319.801476 
L 469.186476 -322.526831 
L 469.165307 -325.252187 
L 469.157549 -327.977543 
L 469.164027 -330.702898 
L 469.185205 -333.428254 
L 469.221181 -336.15361 
L 469.271693 -338.878965 
L 469.336137 -341.604321 
L 469.413585 -344.329677 
L 469.502823 -347.055033 
L 469.602386 -349.780388 
L 469.710614 -352.505744 
L 469.825698 -355.2311 
L 469.945743 -357.956455 
L 470.068824 -360.681811 
L 470.193047 -363.407167 
L 470.3166 -366.132522 
L 470.437807 -368.857878 
L 470.555163 -371.583234 
L 470.66737 -374.30859 
L 470.773359 -377.033945 
L 470.872299 -379.759301 
L 470.9636 -382.484657 
L 471.046907 -385.210012 
L 471.122081 -387.935368 
L 471.18918 -390.660724 
L 471.248427 -393.386079 
L 471.300187 -396.111435 
L 471.344931 -398.836791 
L 471.383208 -401.562147 
L 471.720792 -401.562147 
L 471.720792 -401.562147 
L 471.759069 -398.836791 
L 471.803813 -396.111435 
L 471.855573 -393.386079 
L 471.91482 -390.660724 
L 471.981919 -387.935368 
L 472.057093 -385.210012 
L 472.1404 -382.484657 
L 472.231701 -379.759301 
L 472.330641 -377.033945 
L 472.43663 -374.30859 
L 472.548837 -371.583234 
L 472.666193 -368.857878 
L 472.7874 -366.132522 
L 472.910953 -363.407167 
L 473.035176 -360.681811 
L 473.158257 -357.956455 
L 473.278302 -355.2311 
L 473.393386 -352.505744 
L 473.501614 -349.780388 
L 473.601177 -347.055033 
L 473.690415 -344.329677 
L 473.767863 -341.604321 
L 473.832307 -338.878965 
L 473.882819 -336.15361 
L 473.918795 -333.428254 
L 473.939973 -330.702898 
L 473.946451 -327.977543 
L 473.938693 -325.252187 
L 473.917524 -322.526831 
L 473.884122 -319.801476 
L 473.84 -317.07612 
L 473.786987 -314.350764 
L 473.727197 -311.625408 
L 473.663004 -308.900053 
L 473.597002 -306.174697 
L 473.531972 -303.449341 
L 473.470838 -300.723986 
L 473.416625 -297.99863 
L 473.372415 -295.273274 
L 473.341291 -292.547919 
L 473.326294 -289.822563 
L 473.330367 -287.097207 
L 473.356298 -284.371851 
L 473.40667 -281.646496 
L 473.483802 -278.92114 
L 473.589698 -276.195784 
L 473.725994 -273.470429 
L 473.893905 -270.745073 
L 474.09418 -268.019717 
L 474.327055 -265.294362 
L 474.592211 -262.569006 
L 474.88874 -259.84365 
L 475.215109 -257.118294 
L 475.569137 -254.392939 
L 475.947978 -251.667583 
L 476.348112 -248.942227 
L 476.765349 -246.216872 
L 477.194854 -243.491516 
L 477.631178 -240.76616 
L 478.068323 -238.040805 
L 478.499818 -235.315449 
L 478.918828 -232.590093 
L 479.31828 -229.864737 
L 479.691017 -227.139382 
L 480.029973 -224.414026 
L 480.328354 -221.68867 
L 480.579843 -218.963315 
L 480.778796 -216.237959 
L 480.920433 -213.512603 
L 481.001014 -210.787248 
L 481.017987 -208.061892 
L 480.970102 -205.336536 
L 480.857481 -202.61118 
L 480.681646 -199.885825 
L 480.445483 -197.160469 
L 480.153173 -194.435113 
L 479.810056 -191.709758 
L 479.422466 -188.984402 
L 478.997525 -186.259046 
L 478.542909 -183.533691 
L 478.066605 -180.808335 
L 477.576664 -178.082979 
L 477.080956 -175.357623 
L 476.586956 -172.632268 
L 476.101547 -169.906912 
L 475.630865 -167.181556 
L 475.180181 -164.456201 
L 474.753825 -161.730845 
L 474.355151 -159.005489 
L 473.986544 -156.280134 
L 473.64946 -153.554778 
L 473.344495 -150.829422 
L 473.071475 -148.104066 
L 472.829571 -145.378711 
L 472.61741 -142.653355 
L 472.433198 -139.927999 
L 472.274836 -137.202644 
L 472.140032 -134.477288 
L 472.026398 -131.751932 
z
" id="mea9525b93f" style="stroke:#484848;stroke-width:1.5;"/>
    </defs>
    <g clip-path="url(#p5db699da02)">
     <use style="fill:#f0d999;stroke:#484848;stroke-width:1.5;" x="0" xlink:href="#mea9525b93f" y="597.6"/>
    </g>
   </g>
   <g id="PolyCollection_5">
    <defs>
     <path d="M 567.116945 -232.012685 
L 566.451055 -232.012685 
L 566.374408 -234.185044 
L 566.284798 -236.357402 
L 566.1812 -238.529761 
L 566.062771 -240.70212 
L 565.928918 -242.874479 
L 565.77935 -245.046837 
L 565.614139 -247.219196 
L 565.433755 -249.391555 
L 565.239096 -251.563913 
L 565.031503 -253.736272 
L 564.812737 -255.908631 
L 564.584953 -258.080989 
L 564.35064 -260.253348 
L 564.112542 -262.425707 
L 563.87356 -264.598066 
L 563.636648 -266.770424 
L 563.404695 -268.942783 
L 563.180406 -271.115142 
L 562.966199 -273.2875 
L 562.764109 -275.459859 
L 562.575714 -277.632218 
L 562.40208 -279.804577 
L 562.243743 -281.976935 
L 562.100709 -284.149294 
L 561.972479 -286.321653 
L 561.8581 -288.494011 
L 561.756227 -290.66637 
L 561.665199 -292.838729 
L 561.583115 -295.011087 
L 561.507911 -297.183446 
L 561.437427 -299.355805 
L 561.369471 -301.528164 
L 561.301863 -303.700522 
L 561.23248 -305.872881 
L 561.159285 -308.04524 
L 561.080357 -310.217598 
L 560.993924 -312.389957 
L 560.898395 -314.562316 
L 560.792408 -316.734675 
L 560.67488 -318.907033 
L 560.545077 -321.079392 
L 560.402676 -323.251751 
L 560.247843 -325.424109 
L 560.081295 -327.596468 
L 559.904352 -329.768827 
L 559.718967 -331.941185 
L 559.527724 -334.113544 
L 559.333803 -336.285903 
L 559.140906 -338.458262 
L 558.953145 -340.63062 
L 558.774899 -342.802979 
L 558.610645 -344.975338 
L 558.46477 -347.147696 
L 558.341385 -349.320055 
L 558.24415 -351.492414 
L 558.176122 -353.664773 
L 558.139633 -355.837131 
L 558.136215 -358.00949 
L 558.166574 -360.181849 
L 558.230605 -362.354207 
L 558.327451 -364.526566 
L 558.455608 -366.698925 
L 558.613043 -368.871283 
L 558.797335 -371.043642 
L 559.005817 -373.216001 
L 559.235708 -375.38836 
L 559.484234 -377.560718 
L 559.748714 -379.733077 
L 560.026627 -381.905436 
L 560.315644 -384.077794 
L 560.613637 -386.250153 
L 560.918662 -388.422512 
L 561.228924 -390.59487 
L 561.54274 -392.767229 
L 561.858492 -394.939588 
L 562.174584 -397.111947 
L 562.489413 -399.284305 
L 562.801349 -401.456664 
L 563.108732 -403.629023 
L 563.40988 -405.801381 
L 563.703113 -407.97374 
L 563.986788 -410.146099 
L 564.259338 -412.318458 
L 564.519321 -414.490816 
L 564.765457 -416.663175 
L 564.99667 -418.835534 
L 565.212119 -421.007892 
L 565.411223 -423.180251 
L 565.593664 -425.35261 
L 565.759396 -427.524968 
L 565.908629 -429.697327 
L 566.04181 -431.869686 
L 566.159596 -434.042045 
L 566.262818 -436.214403 
L 566.352447 -438.386762 
L 566.429553 -440.559121 
L 566.495268 -442.731479 
L 566.550748 -444.903838 
L 566.597148 -447.076197 
L 566.970852 -447.076197 
L 566.970852 -447.076197 
L 567.017252 -444.903838 
L 567.072732 -442.731479 
L 567.138447 -440.559121 
L 567.215553 -438.386762 
L 567.305182 -436.214403 
L 567.408404 -434.042045 
L 567.52619 -431.869686 
L 567.659371 -429.697327 
L 567.808604 -427.524968 
L 567.974336 -425.35261 
L 568.156777 -423.180251 
L 568.355881 -421.007892 
L 568.57133 -418.835534 
L 568.802543 -416.663175 
L 569.048679 -414.490816 
L 569.308662 -412.318458 
L 569.581212 -410.146099 
L 569.864887 -407.97374 
L 570.15812 -405.801381 
L 570.459268 -403.629023 
L 570.766651 -401.456664 
L 571.078587 -399.284305 
L 571.393416 -397.111947 
L 571.709508 -394.939588 
L 572.02526 -392.767229 
L 572.339076 -390.59487 
L 572.649338 -388.422512 
L 572.954363 -386.250153 
L 573.252356 -384.077794 
L 573.541373 -381.905436 
L 573.819286 -379.733077 
L 574.083766 -377.560718 
L 574.332292 -375.38836 
L 574.562183 -373.216001 
L 574.770665 -371.043642 
L 574.954957 -368.871283 
L 575.112392 -366.698925 
L 575.240549 -364.526566 
L 575.337395 -362.354207 
L 575.401426 -360.181849 
L 575.431785 -358.00949 
L 575.428367 -355.837131 
L 575.391878 -353.664773 
L 575.32385 -351.492414 
L 575.226615 -349.320055 
L 575.10323 -347.147696 
L 574.957355 -344.975338 
L 574.793101 -342.802979 
L 574.614855 -340.63062 
L 574.427094 -338.458262 
L 574.234197 -336.285903 
L 574.040276 -334.113544 
L 573.849033 -331.941185 
L 573.663648 -329.768827 
L 573.486705 -327.596468 
L 573.320157 -325.424109 
L 573.165324 -323.251751 
L 573.022923 -321.079392 
L 572.89312 -318.907033 
L 572.775592 -316.734675 
L 572.669605 -314.562316 
L 572.574076 -312.389957 
L 572.487643 -310.217598 
L 572.408715 -308.04524 
L 572.33552 -305.872881 
L 572.266137 -303.700522 
L 572.198529 -301.528164 
L 572.130573 -299.355805 
L 572.060089 -297.183446 
L 571.984885 -295.011087 
L 571.902801 -292.838729 
L 571.811773 -290.66637 
L 571.7099 -288.494011 
L 571.595521 -286.321653 
L 571.467291 -284.149294 
L 571.324257 -281.976935 
L 571.16592 -279.804577 
L 570.992286 -277.632218 
L 570.803891 -275.459859 
L 570.601801 -273.2875 
L 570.387594 -271.115142 
L 570.163305 -268.942783 
L 569.931352 -266.770424 
L 569.69444 -264.598066 
L 569.455458 -262.425707 
L 569.21736 -260.253348 
L 568.983047 -258.080989 
L 568.755263 -255.908631 
L 568.536497 -253.736272 
L 568.328904 -251.563913 
L 568.134245 -249.391555 
L 567.953861 -247.219196 
L 567.78865 -245.046837 
L 567.639082 -242.874479 
L 567.505229 -240.70212 
L 567.3868 -238.529761 
L 567.283202 -236.357402 
L 567.193592 -234.185044 
L 567.116945 -232.012685 
z
" id="mdaa5854201" style="stroke:#484848;stroke-width:1.5;"/>
    </defs>
    <g clip-path="url(#p5db699da02)">
     <use style="fill:#f7f7c6;stroke:#484848;stroke-width:1.5;" x="0" xlink:href="#mdaa5854201" y="597.6"/>
    </g>
   </g>
   <g id="PolyCollection_6">
    <defs>
     <path d="M 662.242283 -138.534505 
L 661.789717 -138.534505 
L 661.730839 -140.00376 
L 661.660688 -141.473014 
L 661.578193 -142.942269 
L 661.482429 -144.411524 
L 661.372679 -145.880779 
L 661.248469 -147.350033 
L 661.109611 -148.819288 
L 660.95621 -150.288543 
L 660.788661 -151.757797 
L 660.607608 -153.227052 
L 660.413887 -154.696307 
L 660.20843 -156.165562 
L 659.992163 -157.634816 
L 659.76587 -159.104071 
L 659.530065 -160.573326 
L 659.284867 -162.042581 
L 659.029885 -163.511835 
L 658.764145 -164.98109 
L 658.486049 -166.450345 
L 658.193386 -167.9196 
L 657.883411 -169.388854 
L 657.55296 -170.858109 
L 657.198645 -172.327364 
L 656.817077 -173.796618 
L 656.405134 -175.265873 
L 655.960242 -176.735128 
L 655.480662 -178.204383 
L 654.965749 -179.673637 
L 654.416176 -181.142892 
L 653.834097 -182.612147 
L 653.223242 -184.081402 
L 652.588923 -185.550656 
L 651.937967 -187.019911 
L 651.278553 -188.489166 
L 650.619993 -189.958421 
L 649.972432 -191.427675 
L 649.34652 -192.89693 
L 648.753049 -194.366185 
L 648.20258 -195.83544 
L 647.705085 -197.304694 
L 647.269612 -198.773949 
L 646.903979 -200.243204 
L 646.614527 -201.712458 
L 646.405918 -203.181713 
L 646.280994 -204.650968 
L 646.240703 -206.120223 
L 646.284082 -207.589477 
L 646.408308 -209.058732 
L 646.608818 -210.527987 
L 646.879483 -211.997242 
L 647.212842 -213.466496 
L 647.600382 -214.935751 
L 648.032855 -216.405006 
L 648.50062 -217.874261 
L 648.993981 -219.343515 
L 649.503521 -220.81277 
L 650.020398 -222.282025 
L 650.536601 -223.751279 
L 651.045141 -225.220534 
L 651.540184 -226.689789 
L 652.017108 -228.159044 
L 652.47251 -229.628298 
L 652.904147 -231.097553 
L 653.310848 -232.566808 
L 653.692388 -234.036063 
L 654.049359 -235.505317 
L 654.383034 -236.974572 
L 654.695241 -238.443827 
L 654.988248 -239.913082 
L 655.264659 -241.382336 
L 655.527324 -242.851591 
L 655.779249 -244.320846 
L 656.023509 -245.7901 
L 656.263148 -247.259355 
L 656.501077 -248.72861 
L 656.739963 -250.197865 
L 656.982111 -251.667119 
L 657.22935 -253.136374 
L 657.482934 -254.605629 
L 657.743463 -256.074884 
L 658.010834 -257.544138 
L 658.28424 -259.013393 
L 658.562201 -260.482648 
L 658.842645 -261.951903 
L 659.123024 -263.421157 
L 659.400464 -264.890412 
L 659.671933 -266.359667 
L 659.934407 -267.828921 
L 660.185041 -269.298176 
L 660.421312 -270.767431 
L 660.641134 -272.236686 
L 660.842941 -273.70594 
L 661.025729 -275.175195 
L 661.189058 -276.64445 
L 661.333025 -278.113705 
L 661.458204 -279.582959 
L 661.565572 -281.052214 
L 661.656414 -282.521469 
L 661.732235 -283.990724 
L 662.299765 -283.990724 
L 662.299765 -283.990724 
L 662.375586 -282.521469 
L 662.466428 -281.052214 
L 662.573796 -279.582959 
L 662.698975 -278.113705 
L 662.842942 -276.64445 
L 663.006271 -275.175195 
L 663.189059 -273.70594 
L 663.390866 -272.236686 
L 663.610688 -270.767431 
L 663.846959 -269.298176 
L 664.097593 -267.828921 
L 664.360067 -266.359667 
L 664.631536 -264.890412 
L 664.908976 -263.421157 
L 665.189355 -261.951903 
L 665.469799 -260.482648 
L 665.74776 -259.013393 
L 666.021166 -257.544138 
L 666.288537 -256.074884 
L 666.549066 -254.605629 
L 666.80265 -253.136374 
L 667.049889 -251.667119 
L 667.292037 -250.197865 
L 667.530923 -248.72861 
L 667.768852 -247.259355 
L 668.008491 -245.7901 
L 668.252751 -244.320846 
L 668.504676 -242.851591 
L 668.767341 -241.382336 
L 669.043752 -239.913082 
L 669.336759 -238.443827 
L 669.648966 -236.974572 
L 669.982641 -235.505317 
L 670.339612 -234.036063 
L 670.721152 -232.566808 
L 671.127853 -231.097553 
L 671.55949 -229.628298 
L 672.014892 -228.159044 
L 672.491816 -226.689789 
L 672.986859 -225.220534 
L 673.495399 -223.751279 
L 674.011602 -222.282025 
L 674.528479 -220.81277 
L 675.038019 -219.343515 
L 675.53138 -217.874261 
L 675.999145 -216.405006 
L 676.431618 -214.935751 
L 676.819158 -213.466496 
L 677.152517 -211.997242 
L 677.423182 -210.527987 
L 677.623692 -209.058732 
L 677.747918 -207.589477 
L 677.791297 -206.120223 
L 677.751006 -204.650968 
L 677.626082 -203.181713 
L 677.417473 -201.712458 
L 677.128021 -200.243204 
L 676.762388 -198.773949 
L 676.326915 -197.304694 
L 675.82942 -195.83544 
L 675.278951 -194.366185 
L 674.68548 -192.89693 
L 674.059568 -191.427675 
L 673.412007 -189.958421 
L 672.753447 -188.489166 
L 672.094033 -187.019911 
L 671.443077 -185.550656 
L 670.808758 -184.081402 
L 670.197903 -182.612147 
L 669.615824 -181.142892 
L 669.066251 -179.673637 
L 668.551338 -178.204383 
L 668.071758 -176.735128 
L 667.626866 -175.265873 
L 667.214923 -173.796618 
L 666.833355 -172.327364 
L 666.47904 -170.858109 
L 666.148589 -169.388854 
L 665.838614 -167.9196 
L 665.545951 -166.450345 
L 665.267855 -164.98109 
L 665.002115 -163.511835 
L 664.747133 -162.042581 
L 664.501935 -160.573326 
L 664.26613 -159.104071 
L 664.039837 -157.634816 
L 663.82357 -156.165562 
L 663.618113 -154.696307 
L 663.424392 -153.227052 
L 663.243339 -151.757797 
L 663.07579 -150.288543 
L 662.922389 -148.819288 
L 662.783531 -147.350033 
L 662.659321 -145.880779 
L 662.549571 -144.411524 
L 662.453807 -142.942269 
L 662.371312 -141.473014 
L 662.301161 -140.00376 
L 662.242283 -138.534505 
z
" id="mda1e9f78e4" style="stroke:#484848;stroke-width:1.5;"/>
    </defs>
    <g clip-path="url(#p5db699da02)">
     <use style="fill:#dee9a4;stroke:#484848;stroke-width:1.5;" x="0" xlink:href="#mda1e9f78e4" y="597.6"/>
    </g>
   </g>
   <g id="PolyCollection_7">
    <defs>
     <path d="M 757.376223 -102.699978 
L 757.119777 -102.699978 
L 757.089183 -106.719029 
L 757.053091 -110.738079 
L 757.010969 -114.75713 
L 756.962334 -118.776181 
L 756.906777 -122.795232 
L 756.843991 -126.814283 
L 756.773793 -130.833333 
L 756.696149 -134.852384 
L 756.611187 -138.871435 
L 756.519216 -142.890486 
L 756.42073 -146.909537 
L 756.316408 -150.928587 
L 756.207107 -154.947638 
L 756.093842 -158.966689 
L 755.977768 -162.98574 
L 755.860146 -167.004791 
L 755.742305 -171.023841 
L 755.625607 -175.042892 
L 755.511399 -179.061943 
L 755.400971 -183.080994 
L 755.295513 -187.100045 
L 755.196077 -191.119095 
L 755.103541 -195.138146 
L 755.018578 -199.157197 
L 754.941637 -203.176248 
L 754.87293 -207.195298 
L 754.812425 -211.214349 
L 754.759855 -215.2334 
L 754.714724 -219.252451 
L 754.676335 -223.271502 
L 754.643814 -227.290552 
L 754.616141 -231.309603 
L 754.592189 -235.328654 
L 754.570755 -239.347705 
L 754.5506 -243.366756 
L 754.530473 -247.385806 
L 754.509143 -251.404857 
L 754.485415 -255.423908 
L 754.458141 -259.442959 
L 754.426232 -263.46201 
L 754.388656 -267.48106 
L 754.344445 -271.500111 
L 754.29269 -275.519162 
L 754.232557 -279.538213 
L 754.163294 -283.557264 
L 754.084262 -287.576314 
L 753.994965 -291.595365 
L 753.8951 -295.614416 
L 753.784611 -299.633467 
L 753.66375 -303.652518 
L 753.533144 -307.671568 
L 753.393846 -311.690619 
L 753.247383 -315.70967 
L 753.095783 -319.728721 
L 752.941577 -323.747771 
L 752.787769 -327.766822 
L 752.637781 -331.785873 
L 752.495358 -335.804924 
L 752.364452 -339.823975 
L 752.249073 -343.843025 
L 752.153136 -347.862076 
L 752.080284 -351.881127 
L 752.033733 -355.900178 
L 752.016117 -359.919229 
L 752.029361 -363.938279 
L 752.07459 -367.95733 
L 752.152072 -371.976381 
L 752.2612 -375.995432 
L 752.400523 -380.014483 
L 752.567811 -384.033533 
L 752.760158 -388.052584 
L 752.974107 -392.071635 
L 753.205796 -396.090686 
L 753.451119 -400.109737 
L 753.705876 -404.128787 
L 753.965924 -408.147838 
L 754.227307 -412.166889 
L 754.486367 -416.18594 
L 754.739828 -420.204991 
L 754.984863 -424.224041 
L 755.219121 -428.243092 
L 755.440741 -432.262143 
L 755.648343 -436.281194 
L 755.841003 -440.300244 
L 756.018208 -444.319295 
L 756.179812 -448.338346 
L 756.325986 -452.357397 
L 756.457155 -456.376448 
L 756.573953 -460.395498 
L 756.677171 -464.414549 
L 756.76771 -468.4336 
L 756.846541 -472.452651 
L 756.914674 -476.471702 
L 756.973127 -480.490752 
L 757.022902 -484.509803 
L 757.064971 -488.528854 
L 757.100255 -492.547905 
L 757.129619 -496.566956 
L 757.153863 -500.586006 
L 757.342137 -500.586006 
L 757.342137 -500.586006 
L 757.366381 -496.566956 
L 757.395745 -492.547905 
L 757.431029 -488.528854 
L 757.473098 -484.509803 
L 757.522873 -480.490752 
L 757.581326 -476.471702 
L 757.649459 -472.452651 
L 757.72829 -468.4336 
L 757.818829 -464.414549 
L 757.922047 -460.395498 
L 758.038845 -456.376448 
L 758.170014 -452.357397 
L 758.316188 -448.338346 
L 758.477792 -444.319295 
L 758.654997 -440.300244 
L 758.847657 -436.281194 
L 759.055259 -432.262143 
L 759.276879 -428.243092 
L 759.511137 -424.224041 
L 759.756172 -420.204991 
L 760.009633 -416.18594 
L 760.268693 -412.166889 
L 760.530076 -408.147838 
L 760.790124 -404.128787 
L 761.044881 -400.109737 
L 761.290204 -396.090686 
L 761.521893 -392.071635 
L 761.735842 -388.052584 
L 761.928189 -384.033533 
L 762.095477 -380.014483 
L 762.2348 -375.995432 
L 762.343928 -371.976381 
L 762.42141 -367.95733 
L 762.466639 -363.938279 
L 762.479883 -359.919229 
L 762.462267 -355.900178 
L 762.415716 -351.881127 
L 762.342864 -347.862076 
L 762.246927 -343.843025 
L 762.131548 -339.823975 
L 762.000642 -335.804924 
L 761.858219 -331.785873 
L 761.708231 -327.766822 
L 761.554423 -323.747771 
L 761.400217 -319.728721 
L 761.248617 -315.70967 
L 761.102154 -311.690619 
L 760.962856 -307.671568 
L 760.83225 -303.652518 
L 760.711389 -299.633467 
L 760.6009 -295.614416 
L 760.501035 -291.595365 
L 760.411738 -287.576314 
L 760.332706 -283.557264 
L 760.263443 -279.538213 
L 760.20331 -275.519162 
L 760.151555 -271.500111 
L 760.107344 -267.48106 
L 760.069768 -263.46201 
L 760.037859 -259.442959 
L 760.010585 -255.423908 
L 759.986857 -251.404857 
L 759.965527 -247.385806 
L 759.9454 -243.366756 
L 759.925245 -239.347705 
L 759.903811 -235.328654 
L 759.879859 -231.309603 
L 759.852186 -227.290552 
L 759.819665 -223.271502 
L 759.781276 -219.252451 
L 759.736145 -215.2334 
L 759.683575 -211.214349 
L 759.62307 -207.195298 
L 759.554363 -203.176248 
L 759.477422 -199.157197 
L 759.392459 -195.138146 
L 759.299923 -191.119095 
L 759.200487 -187.100045 
L 759.095029 -183.080994 
L 758.984601 -179.061943 
L 758.870393 -175.042892 
L 758.753695 -171.023841 
L 758.635854 -167.004791 
L 758.518232 -162.98574 
L 758.402158 -158.966689 
L 758.288893 -154.947638 
L 758.179592 -150.928587 
L 758.07527 -146.909537 
L 757.976784 -142.890486 
L 757.884813 -138.871435 
L 757.799851 -134.852384 
L 757.722207 -130.833333 
L 757.652009 -126.814283 
L 757.589223 -122.795232 
L 757.533666 -118.776181 
L 757.485031 -114.75713 
L 757.442909 -110.738079 
L 757.406817 -106.719029 
L 757.376223 -102.699978 
z
" id="m727fee2d69" style="stroke:#484848;stroke-width:1.5;"/>
    </defs>
    <g clip-path="url(#p5db699da02)">
     <use style="fill:#afd5ab;stroke:#484848;stroke-width:1.5;" x="0" xlink:href="#m727fee2d69" y="597.6"/>
    </g>
   </g>
   <g id="PolyCollection_8">
    <defs>
     <path d="M 853.819265 -174.001355 
L 851.140735 -174.001355 
L 850.832226 -175.048602 
L 850.474859 -176.09585 
L 850.066612 -177.143097 
L 849.606788 -178.190344 
L 849.096283 -179.237591 
L 848.537789 -180.284839 
L 847.935922 -181.332086 
L 847.297247 -182.379333 
L 846.630171 -183.42658 
L 845.944714 -184.473828 
L 845.252135 -185.521075 
L 844.564439 -186.568322 
L 843.893785 -187.615569 
L 843.251827 -188.662817 
L 842.649038 -189.710064 
L 842.094059 -190.757311 
L 841.593134 -191.804559 
L 841.149675 -192.851806 
L 840.763995 -193.899053 
L 840.433239 -194.9463 
L 840.151528 -195.993548 
L 839.910305 -197.040795 
L 839.698867 -198.088042 
L 839.505039 -199.135289 
L 839.31595 -200.182537 
L 839.118852 -201.229784 
L 838.901919 -202.277031 
L 838.654993 -203.324278 
L 838.370202 -204.371526 
L 838.04245 -205.418773 
L 837.669725 -206.46602 
L 837.253243 -207.513267 
L 836.797416 -208.560515 
L 836.30966 -209.607762 
L 835.800064 -210.655009 
L 835.280939 -211.702256 
L 834.766286 -212.749504 
L 834.271184 -213.796751 
L 833.811149 -214.843998 
L 833.401476 -215.891246 
L 833.056584 -216.938493 
L 832.789404 -217.98574 
L 832.610825 -219.032987 
L 832.529225 -220.080235 
L 832.550117 -221.127482 
L 832.675925 -222.174729 
L 832.905915 -223.221976 
L 833.236271 -224.269224 
L 833.660349 -225.316471 
L 834.169049 -226.363718 
L 834.751327 -227.410965 
L 835.394775 -228.458213 
L 836.086258 -229.50546 
L 836.812534 -230.552707 
L 837.560836 -231.599954 
L 838.319366 -232.647202 
L 839.077667 -233.694449 
L 839.826866 -234.741696 
L 840.559778 -235.788944 
L 841.270875 -236.836191 
L 841.956152 -237.883438 
L 842.612915 -238.930685 
L 843.239515 -239.977933 
L 843.835087 -241.02518 
L 844.399293 -242.072427 
L 844.932126 -243.119674 
L 845.433765 -244.166922 
L 845.904496 -245.214169 
L 846.344701 -246.261416 
L 846.754887 -247.308663 
L 847.135755 -248.355911 
L 847.488274 -249.403158 
L 847.813747 -250.450405 
L 848.113853 -251.497652 
L 848.390652 -252.5449 
L 848.646544 -253.592147 
L 848.884192 -254.639394 
L 849.106403 -255.686641 
L 849.315992 -256.733889 
L 849.515635 -257.781136 
L 849.707728 -258.828383 
L 849.894266 -259.875631 
L 850.076754 -260.922878 
L 850.256157 -261.970125 
L 850.432896 -263.017372 
L 850.606876 -264.06462 
L 850.777556 -265.111867 
L 850.944048 -266.159114 
L 851.105224 -267.206361 
L 851.259839 -268.253609 
L 851.406645 -269.300856 
L 851.544489 -270.348103 
L 851.672405 -271.39535 
L 851.789665 -272.442598 
L 851.895817 -273.489845 
L 851.990698 -274.537092 
L 852.074423 -275.584339 
L 852.147355 -276.631587 
L 852.210071 -277.678834 
L 852.749929 -277.678834 
L 852.749929 -277.678834 
L 852.812645 -276.631587 
L 852.885577 -275.584339 
L 852.969302 -274.537092 
L 853.064183 -273.489845 
L 853.170335 -272.442598 
L 853.287595 -271.39535 
L 853.415511 -270.348103 
L 853.553355 -269.300856 
L 853.700161 -268.253609 
L 853.854776 -267.206361 
L 854.015952 -266.159114 
L 854.182444 -265.111867 
L 854.353124 -264.06462 
L 854.527104 -263.017372 
L 854.703843 -261.970125 
L 854.883246 -260.922878 
L 855.065734 -259.875631 
L 855.252272 -258.828383 
L 855.444365 -257.781136 
L 855.644008 -256.733889 
L 855.853597 -255.686641 
L 856.075808 -254.639394 
L 856.313456 -253.592147 
L 856.569348 -252.5449 
L 856.846147 -251.497652 
L 857.146253 -250.450405 
L 857.471726 -249.403158 
L 857.824245 -248.355911 
L 858.205113 -247.308663 
L 858.615299 -246.261416 
L 859.055504 -245.214169 
L 859.526235 -244.166922 
L 860.027874 -243.119674 
L 860.560707 -242.072427 
L 861.124913 -241.02518 
L 861.720485 -239.977933 
L 862.347085 -238.930685 
L 863.003848 -237.883438 
L 863.689125 -236.836191 
L 864.400222 -235.788944 
L 865.133134 -234.741696 
L 865.882333 -233.694449 
L 866.640634 -232.647202 
L 867.399164 -231.599954 
L 868.147466 -230.552707 
L 868.873742 -229.50546 
L 869.565225 -228.458213 
L 870.208673 -227.410965 
L 870.790951 -226.363718 
L 871.299651 -225.316471 
L 871.723729 -224.269224 
L 872.054085 -223.221976 
L 872.284075 -222.174729 
L 872.409883 -221.127482 
L 872.430775 -220.080235 
L 872.349175 -219.032987 
L 872.170596 -217.98574 
L 871.903416 -216.938493 
L 871.558524 -215.891246 
L 871.148851 -214.843998 
L 870.688816 -213.796751 
L 870.193714 -212.749504 
L 869.679061 -211.702256 
L 869.159936 -210.655009 
L 868.65034 -209.607762 
L 868.162584 -208.560515 
L 867.706757 -207.513267 
L 867.290275 -206.46602 
L 866.91755 -205.418773 
L 866.589798 -204.371526 
L 866.305007 -203.324278 
L 866.058081 -202.277031 
L 865.841148 -201.229784 
L 865.64405 -200.182537 
L 865.454961 -199.135289 
L 865.261133 -198.088042 
L 865.049695 -197.040795 
L 864.808472 -195.993548 
L 864.526761 -194.9463 
L 864.196005 -193.899053 
L 863.810325 -192.851806 
L 863.366866 -191.804559 
L 862.865941 -190.757311 
L 862.310962 -189.710064 
L 861.708173 -188.662817 
L 861.066215 -187.615569 
L 860.395561 -186.568322 
L 859.707865 -185.521075 
L 859.015286 -184.473828 
L 858.329829 -183.42658 
L 857.662753 -182.379333 
L 857.024078 -181.332086 
L 856.422211 -180.284839 
L 855.863717 -179.237591 
L 855.353212 -178.190344 
L 854.893388 -177.143097 
L 854.485141 -176.09585 
L 854.127774 -175.048602 
L 853.819265 -174.001355 
z
" id="m7d422ed338" style="stroke:#484848;stroke-width:1.5;"/>
    </defs>
    <g clip-path="url(#p5db699da02)">
     <use style="fill:#72b6a1;stroke:#484848;stroke-width:1.5;" x="0" xlink:href="#m7d422ed338" y="597.6"/>
    </g>
   </g>
   <g id="PolyCollection_9">
    <defs>
     <path d="M 952.432024 -202.530789 
L 942.991976 -202.530789 
L 941.916081 -203.296179 
L 940.672335 -204.061568 
L 939.254491 -204.826958 
L 937.661112 -205.592348 
L 935.896539 -206.357737 
L 933.971703 -207.123127 
L 931.904672 -207.888517 
L 929.720871 -208.653906 
L 927.452886 -209.419296 
L 925.139837 -210.184685 
L 922.826279 -210.950075 
L 920.560682 -211.715465 
L 918.393538 -212.480854 
L 916.375206 -213.246244 
L 914.553623 -214.011633 
L 912.972033 -214.777023 
L 911.666908 -215.542413 
L 910.666194 -216.307802 
L 909.988028 -217.073192 
L 909.64003 -217.838581 
L 909.6192 -218.603971 
L 909.912437 -219.369361 
L 910.497627 -220.13475 
L 911.345197 -220.90014 
L 912.420002 -221.665529 
L 913.683395 -222.430919 
L 915.095314 -223.196309 
L 916.616226 -223.961698 
L 918.208809 -224.727088 
L 919.839277 -225.492477 
L 921.478277 -226.257867 
L 923.101373 -227.023257 
L 924.68912 -227.788646 
L 926.226808 -228.554036 
L 927.703948 -229.319426 
L 929.113589 -230.084815 
L 930.451579 -230.850205 
L 931.715823 -231.615594 
L 932.905634 -232.380984 
L 934.021194 -233.146374 
L 935.063163 -233.911763 
L 936.032432 -234.677153 
L 936.929996 -235.442542 
L 937.756934 -236.207932 
L 938.514456 -236.973322 
L 939.203976 -237.738711 
L 939.827208 -238.504101 
L 940.38623 -239.26949 
L 940.883532 -240.03488 
L 941.322032 -240.80027 
L 941.70505 -241.565659 
L 942.036264 -242.331049 
L 942.319645 -243.096438 
L 942.55938 -243.861828 
L 942.759787 -244.627218 
L 942.925237 -245.392607 
L 943.060075 -246.157997 
L 943.168546 -246.923386 
L 943.254727 -247.688776 
L 943.322468 -248.454166 
L 943.375337 -249.219555 
L 943.416577 -249.984945 
L 943.449077 -250.750335 
L 943.475358 -251.515724 
L 943.497581 -252.281114 
L 943.517571 -253.046503 
L 943.536867 -253.811893 
L 943.556785 -254.577283 
L 943.578496 -255.342672 
L 943.603102 -256.108062 
L 943.631714 -256.873451 
L 943.665504 -257.638841 
L 943.70575 -258.404231 
L 943.75383 -259.16962 
L 943.811203 -259.93501 
L 943.879347 -260.700399 
L 943.959672 -261.465789 
L 944.053416 -262.231179 
L 944.161535 -262.996568 
L 944.284594 -263.761958 
L 944.422679 -264.527347 
L 944.575329 -265.292737 
L 944.741514 -266.058127 
L 944.919642 -266.823516 
L 945.107613 -267.588906 
L 945.302902 -268.354296 
L 945.502677 -269.119685 
L 945.703935 -269.885075 
L 945.903639 -270.650464 
L 946.098863 -271.415854 
L 946.286919 -272.181244 
L 946.465459 -272.946633 
L 946.632556 -273.712023 
L 946.786754 -274.477412 
L 946.927081 -275.242802 
L 947.053045 -276.008192 
L 947.164591 -276.773581 
L 947.262056 -277.538971 
L 947.346095 -278.30436 
L 948.077905 -278.30436 
L 948.077905 -278.30436 
L 948.161944 -277.538971 
L 948.259409 -276.773581 
L 948.370955 -276.008192 
L 948.496919 -275.242802 
L 948.637246 -274.477412 
L 948.791444 -273.712023 
L 948.958541 -272.946633 
L 949.137081 -272.181244 
L 949.325137 -271.415854 
L 949.520361 -270.650464 
L 949.720065 -269.885075 
L 949.921323 -269.119685 
L 950.121098 -268.354296 
L 950.316387 -267.588906 
L 950.504358 -266.823516 
L 950.682486 -266.058127 
L 950.848671 -265.292737 
L 951.001321 -264.527347 
L 951.139406 -263.761958 
L 951.262465 -262.996568 
L 951.370584 -262.231179 
L 951.464328 -261.465789 
L 951.544653 -260.700399 
L 951.612797 -259.93501 
L 951.67017 -259.16962 
L 951.71825 -258.404231 
L 951.758496 -257.638841 
L 951.792286 -256.873451 
L 951.820898 -256.108062 
L 951.845504 -255.342672 
L 951.867215 -254.577283 
L 951.887133 -253.811893 
L 951.906429 -253.046503 
L 951.926419 -252.281114 
L 951.948642 -251.515724 
L 951.974923 -250.750335 
L 952.007423 -249.984945 
L 952.048663 -249.219555 
L 952.101532 -248.454166 
L 952.169273 -247.688776 
L 952.255454 -246.923386 
L 952.363925 -246.157997 
L 952.498763 -245.392607 
L 952.664213 -244.627218 
L 952.86462 -243.861828 
L 953.104355 -243.096438 
L 953.387736 -242.331049 
L 953.71895 -241.565659 
L 954.101968 -240.80027 
L 954.540468 -240.03488 
L 955.03777 -239.26949 
L 955.596792 -238.504101 
L 956.220024 -237.738711 
L 956.909544 -236.973322 
L 957.667066 -236.207932 
L 958.494004 -235.442542 
L 959.391568 -234.677153 
L 960.360837 -233.911763 
L 961.402806 -233.146374 
L 962.518366 -232.380984 
L 963.708177 -231.615594 
L 964.972421 -230.850205 
L 966.310411 -230.084815 
L 967.720052 -229.319426 
L 969.197192 -228.554036 
L 970.73488 -227.788646 
L 972.322627 -227.023257 
L 973.945723 -226.257867 
L 975.584723 -225.492477 
L 977.215191 -224.727088 
L 978.807774 -223.961698 
L 980.328686 -223.196309 
L 981.740605 -222.430919 
L 983.003998 -221.665529 
L 984.078803 -220.90014 
L 984.926373 -220.13475 
L 985.511563 -219.369361 
L 985.8048 -218.603971 
L 985.78397 -217.838581 
L 985.435972 -217.073192 
L 984.757806 -216.307802 
L 983.757092 -215.542413 
L 982.451967 -214.777023 
L 980.870377 -214.011633 
L 979.048794 -213.246244 
L 977.030462 -212.480854 
L 974.863318 -211.715465 
L 972.597721 -210.950075 
L 970.284163 -210.184685 
L 967.971114 -209.419296 
L 965.703129 -208.653906 
L 963.519328 -207.888517 
L 961.452297 -207.123127 
L 959.527461 -206.357737 
L 957.762888 -205.592348 
L 956.169509 -204.826958 
L 954.751665 -204.061568 
L 953.507919 -203.296179 
L 952.432024 -202.530789 
z
" id="m4b2a04908d" style="stroke:#484848;stroke-width:1.5;"/>
    </defs>
    <g clip-path="url(#p5db699da02)">
     <use style="fill:#4483ab;stroke:#484848;stroke-width:1.5;" x="0" xlink:href="#m4b2a04908d" y="597.6"/>
    </g>
   </g>
   <g id="matplotlib.axis_1">
    <g id="xtick_1">
     <g id="line2d_1">
      <defs>
       <path d="M 0 0 
L 0 3.5 
" id="m5b727dbf18" style="stroke:#000000;stroke-width:0.8;"/>
      </defs>
      <g>
       <use style="stroke:#000000;stroke-width:0.8;" x="185.856" xlink:href="#m5b727dbf18" y="531.864"/>
      </g>
     </g>
     <g id="text_1">
      <!-- Player1_healthy -->
      <g transform="translate(145.828656 546.462438)scale(0.1 -0.1)">
       <defs>
        <path d="M 1259 4147 
L 1259 2394 
L 2053 2394 
Q 2494 2394 2734 2622 
Q 2975 2850 2975 3272 
Q 2975 3691 2734 3919 
Q 2494 4147 2053 4147 
L 1259 4147 
z
M 628 4666 
L 2053 4666 
Q 2838 4666 3239 4311 
Q 3641 3956 3641 3272 
Q 3641 2581 3239 2228 
Q 2838 1875 2053 1875 
L 1259 1875 
L 1259 0 
L 628 0 
L 628 4666 
z
" id="DejaVuSans-50" transform="scale(0.015625)"/>
        <path d="M 603 4863 
L 1178 4863 
L 1178 0 
L 603 0 
L 603 4863 
z
" id="DejaVuSans-6c" transform="scale(0.015625)"/>
        <path d="M 2194 1759 
Q 1497 1759 1228 1600 
Q 959 1441 959 1056 
Q 959 750 1161 570 
Q 1363 391 1709 391 
Q 2188 391 2477 730 
Q 2766 1069 2766 1631 
L 2766 1759 
L 2194 1759 
z
M 3341 1997 
L 3341 0 
L 2766 0 
L 2766 531 
Q 2569 213 2275 61 
Q 1981 -91 1556 -91 
Q 1019 -91 701 211 
Q 384 513 384 1019 
Q 384 1609 779 1909 
Q 1175 2209 1959 2209 
L 2766 2209 
L 2766 2266 
Q 2766 2663 2505 2880 
Q 2244 3097 1772 3097 
Q 1472 3097 1187 3025 
Q 903 2953 641 2809 
L 641 3341 
Q 956 3463 1253 3523 
Q 1550 3584 1831 3584 
Q 2591 3584 2966 3190 
Q 3341 2797 3341 1997 
z
" id="DejaVuSans-61" transform="scale(0.015625)"/>
        <path d="M 2059 -325 
Q 1816 -950 1584 -1140 
Q 1353 -1331 966 -1331 
L 506 -1331 
L 506 -850 
L 844 -850 
Q 1081 -850 1212 -737 
Q 1344 -625 1503 -206 
L 1606 56 
L 191 3500 
L 800 3500 
L 1894 763 
L 2988 3500 
L 3597 3500 
L 2059 -325 
z
" id="DejaVuSans-79" transform="scale(0.015625)"/>
        <path d="M 3597 1894 
L 3597 1613 
L 953 1613 
Q 991 1019 1311 708 
Q 1631 397 2203 397 
Q 2534 397 2845 478 
Q 3156 559 3463 722 
L 3463 178 
Q 3153 47 2828 -22 
Q 2503 -91 2169 -91 
Q 1331 -91 842 396 
Q 353 884 353 1716 
Q 353 2575 817 3079 
Q 1281 3584 2069 3584 
Q 2775 3584 3186 3129 
Q 3597 2675 3597 1894 
z
M 3022 2063 
Q 3016 2534 2758 2815 
Q 2500 3097 2075 3097 
Q 1594 3097 1305 2825 
Q 1016 2553 972 2059 
L 3022 2063 
z
" id="DejaVuSans-65" transform="scale(0.015625)"/>
        <path d="M 2631 2963 
Q 2534 3019 2420 3045 
Q 2306 3072 2169 3072 
Q 1681 3072 1420 2755 
Q 1159 2438 1159 1844 
L 1159 0 
L 581 0 
L 581 3500 
L 1159 3500 
L 1159 2956 
Q 1341 3275 1631 3429 
Q 1922 3584 2338 3584 
Q 2397 3584 2469 3576 
Q 2541 3569 2628 3553 
L 2631 2963 
z
" id="DejaVuSans-72" transform="scale(0.015625)"/>
        <path d="M 794 531 
L 1825 531 
L 1825 4091 
L 703 3866 
L 703 4441 
L 1819 4666 
L 2450 4666 
L 2450 531 
L 3481 531 
L 3481 0 
L 794 0 
L 794 531 
z
" id="DejaVuSans-31" transform="scale(0.015625)"/>
        <path d="M 3263 -1063 
L 3263 -1509 
L -63 -1509 
L -63 -1063 
L 3263 -1063 
z
" id="DejaVuSans-5f" transform="scale(0.015625)"/>
        <path d="M 3513 2113 
L 3513 0 
L 2938 0 
L 2938 2094 
Q 2938 2591 2744 2837 
Q 2550 3084 2163 3084 
Q 1697 3084 1428 2787 
Q 1159 2491 1159 1978 
L 1159 0 
L 581 0 
L 581 4863 
L 1159 4863 
L 1159 2956 
Q 1366 3272 1645 3428 
Q 1925 3584 2291 3584 
Q 2894 3584 3203 3211 
Q 3513 2838 3513 2113 
z
" id="DejaVuSans-68" transform="scale(0.015625)"/>
        <path d="M 1172 4494 
L 1172 3500 
L 2356 3500 
L 2356 3053 
L 1172 3053 
L 1172 1153 
Q 1172 725 1289 603 
Q 1406 481 1766 481 
L 2356 481 
L 2356 0 
L 1766 0 
Q 1100 0 847 248 
Q 594 497 594 1153 
L 594 3053 
L 172 3053 
L 172 3500 
L 594 3500 
L 594 4494 
L 1172 4494 
z
" id="DejaVuSans-74" transform="scale(0.015625)"/>
       </defs>
       <use xlink:href="#DejaVuSans-50"/>
       <use x="60.302734" xlink:href="#DejaVuSans-6c"/>
       <use x="88.085938" xlink:href="#DejaVuSans-61"/>
       <use x="149.365234" xlink:href="#DejaVuSans-79"/>
       <use x="208.544922" xlink:href="#DejaVuSans-65"/>
       <use x="270.068359" xlink:href="#DejaVuSans-72"/>
       <use x="311.181641" xlink:href="#DejaVuSans-31"/>
       <use x="374.804688" xlink:href="#DejaVuSans-5f"/>
       <use x="424.804688" xlink:href="#DejaVuSans-68"/>
       <use x="488.183594" xlink:href="#DejaVuSans-65"/>
       <use x="549.707031" xlink:href="#DejaVuSans-61"/>
       <use x="610.986328" xlink:href="#DejaVuSans-6c"/>
       <use x="638.769531" xlink:href="#DejaVuSans-74"/>
       <use x="677.978516" xlink:href="#DejaVuSans-68"/>
       <use x="741.357422" xlink:href="#DejaVuSans-79"/>
      </g>
     </g>
    </g>
    <g id="xtick_2">
     <g id="line2d_2">
      <g>
       <use style="stroke:#000000;stroke-width:0.8;" x="281.088" xlink:href="#m5b727dbf18" y="531.864"/>
      </g>
     </g>
     <g id="text_2">
      <!-- biased_A -->
      <g transform="translate(258.684875 546.462438)scale(0.1 -0.1)">
       <defs>
        <path d="M 3116 1747 
Q 3116 2381 2855 2742 
Q 2594 3103 2138 3103 
Q 1681 3103 1420 2742 
Q 1159 2381 1159 1747 
Q 1159 1113 1420 752 
Q 1681 391 2138 391 
Q 2594 391 2855 752 
Q 3116 1113 3116 1747 
z
M 1159 2969 
Q 1341 3281 1617 3432 
Q 1894 3584 2278 3584 
Q 2916 3584 3314 3078 
Q 3713 2572 3713 1747 
Q 3713 922 3314 415 
Q 2916 -91 2278 -91 
Q 1894 -91 1617 61 
Q 1341 213 1159 525 
L 1159 0 
L 581 0 
L 581 4863 
L 1159 4863 
L 1159 2969 
z
" id="DejaVuSans-62" transform="scale(0.015625)"/>
        <path d="M 603 3500 
L 1178 3500 
L 1178 0 
L 603 0 
L 603 3500 
z
M 603 4863 
L 1178 4863 
L 1178 4134 
L 603 4134 
L 603 4863 
z
" id="DejaVuSans-69" transform="scale(0.015625)"/>
        <path d="M 2834 3397 
L 2834 2853 
Q 2591 2978 2328 3040 
Q 2066 3103 1784 3103 
Q 1356 3103 1142 2972 
Q 928 2841 928 2578 
Q 928 2378 1081 2264 
Q 1234 2150 1697 2047 
L 1894 2003 
Q 2506 1872 2764 1633 
Q 3022 1394 3022 966 
Q 3022 478 2636 193 
Q 2250 -91 1575 -91 
Q 1294 -91 989 -36 
Q 684 19 347 128 
L 347 722 
Q 666 556 975 473 
Q 1284 391 1588 391 
Q 1994 391 2212 530 
Q 2431 669 2431 922 
Q 2431 1156 2273 1281 
Q 2116 1406 1581 1522 
L 1381 1569 
Q 847 1681 609 1914 
Q 372 2147 372 2553 
Q 372 3047 722 3315 
Q 1072 3584 1716 3584 
Q 2034 3584 2315 3537 
Q 2597 3491 2834 3397 
z
" id="DejaVuSans-73" transform="scale(0.015625)"/>
        <path d="M 2906 2969 
L 2906 4863 
L 3481 4863 
L 3481 0 
L 2906 0 
L 2906 525 
Q 2725 213 2448 61 
Q 2172 -91 1784 -91 
Q 1150 -91 751 415 
Q 353 922 353 1747 
Q 353 2572 751 3078 
Q 1150 3584 1784 3584 
Q 2172 3584 2448 3432 
Q 2725 3281 2906 2969 
z
M 947 1747 
Q 947 1113 1208 752 
Q 1469 391 1925 391 
Q 2381 391 2643 752 
Q 2906 1113 2906 1747 
Q 2906 2381 2643 2742 
Q 2381 3103 1925 3103 
Q 1469 3103 1208 2742 
Q 947 2381 947 1747 
z
" id="DejaVuSans-64" transform="scale(0.015625)"/>
        <path d="M 2188 4044 
L 1331 1722 
L 3047 1722 
L 2188 4044 
z
M 1831 4666 
L 2547 4666 
L 4325 0 
L 3669 0 
L 3244 1197 
L 1141 1197 
L 716 0 
L 50 0 
L 1831 4666 
z
" id="DejaVuSans-41" transform="scale(0.015625)"/>
       </defs>
       <use xlink:href="#DejaVuSans-62"/>
       <use x="63.476562" xlink:href="#DejaVuSans-69"/>
       <use x="91.259766" xlink:href="#DejaVuSans-61"/>
       <use x="152.539062" xlink:href="#DejaVuSans-73"/>
       <use x="204.638672" xlink:href="#DejaVuSans-65"/>
       <use x="266.162109" xlink:href="#DejaVuSans-64"/>
       <use x="329.638672" xlink:href="#DejaVuSans-5f"/>
       <use x="379.638672" xlink:href="#DejaVuSans-41"/>
      </g>
     </g>
    </g>
    <g id="xtick_3">
     <g id="line2d_3">
      <g>
       <use style="stroke:#000000;stroke-width:0.8;" x="376.32" xlink:href="#m5b727dbf18" y="531.864"/>
      </g>
     </g>
     <g id="text_3">
      <!-- biased_B -->
      <g transform="translate(353.906719 546.462438)scale(0.1 -0.1)">
       <defs>
        <path d="M 1259 2228 
L 1259 519 
L 2272 519 
Q 2781 519 3026 730 
Q 3272 941 3272 1375 
Q 3272 1813 3026 2020 
Q 2781 2228 2272 2228 
L 1259 2228 
z
M 1259 4147 
L 1259 2741 
L 2194 2741 
Q 2656 2741 2882 2914 
Q 3109 3088 3109 3444 
Q 3109 3797 2882 3972 
Q 2656 4147 2194 4147 
L 1259 4147 
z
M 628 4666 
L 2241 4666 
Q 2963 4666 3353 4366 
Q 3744 4066 3744 3513 
Q 3744 3084 3544 2831 
Q 3344 2578 2956 2516 
Q 3422 2416 3680 2098 
Q 3938 1781 3938 1306 
Q 3938 681 3513 340 
Q 3088 0 2303 0 
L 628 0 
L 628 4666 
z
" id="DejaVuSans-42" transform="scale(0.015625)"/>
       </defs>
       <use xlink:href="#DejaVuSans-62"/>
       <use x="63.476562" xlink:href="#DejaVuSans-69"/>
       <use x="91.259766" xlink:href="#DejaVuSans-61"/>
       <use x="152.539062" xlink:href="#DejaVuSans-73"/>
       <use x="204.638672" xlink:href="#DejaVuSans-65"/>
       <use x="266.162109" xlink:href="#DejaVuSans-64"/>
       <use x="329.638672" xlink:href="#DejaVuSans-5f"/>
       <use x="379.638672" xlink:href="#DejaVuSans-42"/>
      </g>
     </g>
    </g>
    <g id="xtick_4">
     <g id="line2d_4">
      <g>
       <use style="stroke:#000000;stroke-width:0.8;" x="471.552" xlink:href="#m5b727dbf18" y="531.864"/>
      </g>
     </g>
     <g id="text_4">
      <!-- biased_C -->
      <g transform="translate(449.077781 546.462438)scale(0.1 -0.1)">
       <defs>
        <path d="M 4122 4306 
L 4122 3641 
Q 3803 3938 3442 4084 
Q 3081 4231 2675 4231 
Q 1875 4231 1450 3742 
Q 1025 3253 1025 2328 
Q 1025 1406 1450 917 
Q 1875 428 2675 428 
Q 3081 428 3442 575 
Q 3803 722 4122 1019 
L 4122 359 
Q 3791 134 3420 21 
Q 3050 -91 2638 -91 
Q 1578 -91 968 557 
Q 359 1206 359 2328 
Q 359 3453 968 4101 
Q 1578 4750 2638 4750 
Q 3056 4750 3426 4639 
Q 3797 4528 4122 4306 
z
" id="DejaVuSans-43" transform="scale(0.015625)"/>
       </defs>
       <use xlink:href="#DejaVuSans-62"/>
       <use x="63.476562" xlink:href="#DejaVuSans-69"/>
       <use x="91.259766" xlink:href="#DejaVuSans-61"/>
       <use x="152.539062" xlink:href="#DejaVuSans-73"/>
       <use x="204.638672" xlink:href="#DejaVuSans-65"/>
       <use x="266.162109" xlink:href="#DejaVuSans-64"/>
       <use x="329.638672" xlink:href="#DejaVuSans-5f"/>
       <use x="379.638672" xlink:href="#DejaVuSans-43"/>
      </g>
     </g>
    </g>
    <g id="xtick_5">
     <g id="line2d_5">
      <g>
       <use style="stroke:#000000;stroke-width:0.8;" x="566.784" xlink:href="#m5b727dbf18" y="531.864"/>
      </g>
     </g>
     <g id="text_5">
      <!-- biased_D -->
      <g transform="translate(543.951187 546.462438)scale(0.1 -0.1)">
       <defs>
        <path d="M 1259 4147 
L 1259 519 
L 2022 519 
Q 2988 519 3436 956 
Q 3884 1394 3884 2338 
Q 3884 3275 3436 3711 
Q 2988 4147 2022 4147 
L 1259 4147 
z
M 628 4666 
L 1925 4666 
Q 3281 4666 3915 4102 
Q 4550 3538 4550 2338 
Q 4550 1131 3912 565 
Q 3275 0 1925 0 
L 628 0 
L 628 4666 
z
" id="DejaVuSans-44" transform="scale(0.015625)"/>
       </defs>
       <use xlink:href="#DejaVuSans-62"/>
       <use x="63.476562" xlink:href="#DejaVuSans-69"/>
       <use x="91.259766" xlink:href="#DejaVuSans-61"/>
       <use x="152.539062" xlink:href="#DejaVuSans-73"/>
       <use x="204.638672" xlink:href="#DejaVuSans-65"/>
       <use x="266.162109" xlink:href="#DejaVuSans-64"/>
       <use x="329.638672" xlink:href="#DejaVuSans-5f"/>
       <use x="379.638672" xlink:href="#DejaVuSans-44"/>
      </g>
     </g>
    </g>
    <g id="xtick_6">
     <g id="line2d_6">
      <g>
       <use style="stroke:#000000;stroke-width:0.8;" x="662.016" xlink:href="#m5b727dbf18" y="531.864"/>
      </g>
     </g>
     <g id="text_6">
      <!-- Type1_depressed -->
      <g transform="translate(618.94725 546.462438)scale(0.1 -0.1)">
       <defs>
        <path d="M -19 4666 
L 3928 4666 
L 3928 4134 
L 2272 4134 
L 2272 0 
L 1638 0 
L 1638 4134 
L -19 4134 
L -19 4666 
z
" id="DejaVuSans-54" transform="scale(0.015625)"/>
        <path d="M 1159 525 
L 1159 -1331 
L 581 -1331 
L 581 3500 
L 1159 3500 
L 1159 2969 
Q 1341 3281 1617 3432 
Q 1894 3584 2278 3584 
Q 2916 3584 3314 3078 
Q 3713 2572 3713 1747 
Q 3713 922 3314 415 
Q 2916 -91 2278 -91 
Q 1894 -91 1617 61 
Q 1341 213 1159 525 
z
M 3116 1747 
Q 3116 2381 2855 2742 
Q 2594 3103 2138 3103 
Q 1681 3103 1420 2742 
Q 1159 2381 1159 1747 
Q 1159 1113 1420 752 
Q 1681 391 2138 391 
Q 2594 391 2855 752 
Q 3116 1113 3116 1747 
z
" id="DejaVuSans-70" transform="scale(0.015625)"/>
       </defs>
       <use xlink:href="#DejaVuSans-54"/>
       <use x="45.458984" xlink:href="#DejaVuSans-79"/>
       <use x="104.638672" xlink:href="#DejaVuSans-70"/>
       <use x="168.115234" xlink:href="#DejaVuSans-65"/>
       <use x="229.638672" xlink:href="#DejaVuSans-31"/>
       <use x="293.261719" xlink:href="#DejaVuSans-5f"/>
       <use x="343.261719" xlink:href="#DejaVuSans-64"/>
       <use x="406.738281" xlink:href="#DejaVuSans-65"/>
       <use x="468.261719" xlink:href="#DejaVuSans-70"/>
       <use x="531.738281" xlink:href="#DejaVuSans-72"/>
       <use x="570.601562" xlink:href="#DejaVuSans-65"/>
       <use x="632.125" xlink:href="#DejaVuSans-73"/>
       <use x="684.224609" xlink:href="#DejaVuSans-73"/>
       <use x="736.324219" xlink:href="#DejaVuSans-65"/>
       <use x="797.847656" xlink:href="#DejaVuSans-64"/>
      </g>
     </g>
    </g>
    <g id="xtick_7">
     <g id="line2d_7">
      <g>
       <use style="stroke:#000000;stroke-width:0.8;" x="757.248" xlink:href="#m5b727dbf18" y="531.864"/>
      </g>
     </g>
     <g id="text_7">
      <!-- Type2_depressed -->
      <g transform="translate(714.17925 546.462438)scale(0.1 -0.1)">
       <defs>
        <path d="M 1228 531 
L 3431 531 
L 3431 0 
L 469 0 
L 469 531 
Q 828 903 1448 1529 
Q 2069 2156 2228 2338 
Q 2531 2678 2651 2914 
Q 2772 3150 2772 3378 
Q 2772 3750 2511 3984 
Q 2250 4219 1831 4219 
Q 1534 4219 1204 4116 
Q 875 4013 500 3803 
L 500 4441 
Q 881 4594 1212 4672 
Q 1544 4750 1819 4750 
Q 2544 4750 2975 4387 
Q 3406 4025 3406 3419 
Q 3406 3131 3298 2873 
Q 3191 2616 2906 2266 
Q 2828 2175 2409 1742 
Q 1991 1309 1228 531 
z
" id="DejaVuSans-32" transform="scale(0.015625)"/>
       </defs>
       <use xlink:href="#DejaVuSans-54"/>
       <use x="45.458984" xlink:href="#DejaVuSans-79"/>
       <use x="104.638672" xlink:href="#DejaVuSans-70"/>
       <use x="168.115234" xlink:href="#DejaVuSans-65"/>
       <use x="229.638672" xlink:href="#DejaVuSans-32"/>
       <use x="293.261719" xlink:href="#DejaVuSans-5f"/>
       <use x="343.261719" xlink:href="#DejaVuSans-64"/>
       <use x="406.738281" xlink:href="#DejaVuSans-65"/>
       <use x="468.261719" xlink:href="#DejaVuSans-70"/>
       <use x="531.738281" xlink:href="#DejaVuSans-72"/>
       <use x="570.601562" xlink:href="#DejaVuSans-65"/>
       <use x="632.125" xlink:href="#DejaVuSans-73"/>
       <use x="684.224609" xlink:href="#DejaVuSans-73"/>
       <use x="736.324219" xlink:href="#DejaVuSans-65"/>
       <use x="797.847656" xlink:href="#DejaVuSans-64"/>
      </g>
     </g>
    </g>
    <g id="xtick_8">
     <g id="line2d_8">
      <g>
       <use style="stroke:#000000;stroke-width:0.8;" x="852.48" xlink:href="#m5b727dbf18" y="531.864"/>
      </g>
     </g>
     <g id="text_8">
      <!-- Type1_social_phobia -->
      <g transform="translate(801.530781 546.462438)scale(0.1 -0.1)">
       <defs>
        <path d="M 1959 3097 
Q 1497 3097 1228 2736 
Q 959 2375 959 1747 
Q 959 1119 1226 758 
Q 1494 397 1959 397 
Q 2419 397 2687 759 
Q 2956 1122 2956 1747 
Q 2956 2369 2687 2733 
Q 2419 3097 1959 3097 
z
M 1959 3584 
Q 2709 3584 3137 3096 
Q 3566 2609 3566 1747 
Q 3566 888 3137 398 
Q 2709 -91 1959 -91 
Q 1206 -91 779 398 
Q 353 888 353 1747 
Q 353 2609 779 3096 
Q 1206 3584 1959 3584 
z
" id="DejaVuSans-6f" transform="scale(0.015625)"/>
        <path d="M 3122 3366 
L 3122 2828 
Q 2878 2963 2633 3030 
Q 2388 3097 2138 3097 
Q 1578 3097 1268 2742 
Q 959 2388 959 1747 
Q 959 1106 1268 751 
Q 1578 397 2138 397 
Q 2388 397 2633 464 
Q 2878 531 3122 666 
L 3122 134 
Q 2881 22 2623 -34 
Q 2366 -91 2075 -91 
Q 1284 -91 818 406 
Q 353 903 353 1747 
Q 353 2603 823 3093 
Q 1294 3584 2113 3584 
Q 2378 3584 2631 3529 
Q 2884 3475 3122 3366 
z
" id="DejaVuSans-63" transform="scale(0.015625)"/>
       </defs>
       <use xlink:href="#DejaVuSans-54"/>
       <use x="45.458984" xlink:href="#DejaVuSans-79"/>
       <use x="104.638672" xlink:href="#DejaVuSans-70"/>
       <use x="168.115234" xlink:href="#DejaVuSans-65"/>
       <use x="229.638672" xlink:href="#DejaVuSans-31"/>
       <use x="293.261719" xlink:href="#DejaVuSans-5f"/>
       <use x="343.261719" xlink:href="#DejaVuSans-73"/>
       <use x="395.361328" xlink:href="#DejaVuSans-6f"/>
       <use x="456.542969" xlink:href="#DejaVuSans-63"/>
       <use x="511.523438" xlink:href="#DejaVuSans-69"/>
       <use x="539.306641" xlink:href="#DejaVuSans-61"/>
       <use x="600.585938" xlink:href="#DejaVuSans-6c"/>
       <use x="628.369141" xlink:href="#DejaVuSans-5f"/>
       <use x="678.369141" xlink:href="#DejaVuSans-70"/>
       <use x="741.845703" xlink:href="#DejaVuSans-68"/>
       <use x="805.224609" xlink:href="#DejaVuSans-6f"/>
       <use x="866.40625" xlink:href="#DejaVuSans-62"/>
       <use x="929.882812" xlink:href="#DejaVuSans-69"/>
       <use x="957.666016" xlink:href="#DejaVuSans-61"/>
      </g>
     </g>
    </g>
    <g id="xtick_9">
     <g id="line2d_9">
      <g>
       <use style="stroke:#000000;stroke-width:0.8;" x="947.712" xlink:href="#m5b727dbf18" y="531.864"/>
      </g>
     </g>
     <g id="text_9">
      <!-- Type2_social_phobia -->
      <g transform="translate(896.762781 546.462438)scale(0.1 -0.1)">
       <use xlink:href="#DejaVuSans-54"/>
       <use x="45.458984" xlink:href="#DejaVuSans-79"/>
       <use x="104.638672" xlink:href="#DejaVuSans-70"/>
       <use x="168.115234" xlink:href="#DejaVuSans-65"/>
       <use x="229.638672" xlink:href="#DejaVuSans-32"/>
       <use x="293.261719" xlink:href="#DejaVuSans-5f"/>
       <use x="343.261719" xlink:href="#DejaVuSans-73"/>
       <use x="395.361328" xlink:href="#DejaVuSans-6f"/>
       <use x="456.542969" xlink:href="#DejaVuSans-63"/>
       <use x="511.523438" xlink:href="#DejaVuSans-69"/>
       <use x="539.306641" xlink:href="#DejaVuSans-61"/>
       <use x="600.585938" xlink:href="#DejaVuSans-6c"/>
       <use x="628.369141" xlink:href="#DejaVuSans-5f"/>
       <use x="678.369141" xlink:href="#DejaVuSans-70"/>
       <use x="741.845703" xlink:href="#DejaVuSans-68"/>
       <use x="805.224609" xlink:href="#DejaVuSans-6f"/>
       <use x="866.40625" xlink:href="#DejaVuSans-62"/>
       <use x="929.882812" xlink:href="#DejaVuSans-69"/>
       <use x="957.666016" xlink:href="#DejaVuSans-61"/>
      </g>
     </g>
    </g>
   </g>
   <g id="matplotlib.axis_2">
    <g id="ytick_1">
     <g id="line2d_10">
      <defs>
       <path d="M 0 0 
L -3.5 0 
" id="mffa8457414" style="stroke:#000000;stroke-width:0.8;"/>
      </defs>
      <g>
       <use style="stroke:#000000;stroke-width:0.8;" x="138.24" xlink:href="#mffa8457414" y="485.464252"/>
      </g>
     </g>
     <g id="text_10">
      <!-- 10 -->
      <g transform="translate(118.515 489.263471)scale(0.1 -0.1)">
       <defs>
        <path d="M 2034 4250 
Q 1547 4250 1301 3770 
Q 1056 3291 1056 2328 
Q 1056 1369 1301 889 
Q 1547 409 2034 409 
Q 2525 409 2770 889 
Q 3016 1369 3016 2328 
Q 3016 3291 2770 3770 
Q 2525 4250 2034 4250 
z
M 2034 4750 
Q 2819 4750 3233 4129 
Q 3647 3509 3647 2328 
Q 3647 1150 3233 529 
Q 2819 -91 2034 -91 
Q 1250 -91 836 529 
Q 422 1150 422 2328 
Q 422 3509 836 4129 
Q 1250 4750 2034 4750 
z
" id="DejaVuSans-30" transform="scale(0.015625)"/>
       </defs>
       <use xlink:href="#DejaVuSans-31"/>
       <use x="63.623047" xlink:href="#DejaVuSans-30"/>
      </g>
     </g>
    </g>
    <g id="ytick_2">
     <g id="line2d_11">
      <g>
       <use style="stroke:#000000;stroke-width:0.8;" x="138.24" xlink:href="#mffa8457414" y="427.154331"/>
      </g>
     </g>
     <g id="text_11">
      <!-- 15 -->
      <g transform="translate(118.515 430.953549)scale(0.1 -0.1)">
       <defs>
        <path d="M 691 4666 
L 3169 4666 
L 3169 4134 
L 1269 4134 
L 1269 2991 
Q 1406 3038 1543 3061 
Q 1681 3084 1819 3084 
Q 2600 3084 3056 2656 
Q 3513 2228 3513 1497 
Q 3513 744 3044 326 
Q 2575 -91 1722 -91 
Q 1428 -91 1123 -41 
Q 819 9 494 109 
L 494 744 
Q 775 591 1075 516 
Q 1375 441 1709 441 
Q 2250 441 2565 725 
Q 2881 1009 2881 1497 
Q 2881 1984 2565 2268 
Q 2250 2553 1709 2553 
Q 1456 2553 1204 2497 
Q 953 2441 691 2322 
L 691 4666 
z
" id="DejaVuSans-35" transform="scale(0.015625)"/>
       </defs>
       <use xlink:href="#DejaVuSans-31"/>
       <use x="63.623047" xlink:href="#DejaVuSans-35"/>
      </g>
     </g>
    </g>
    <g id="ytick_3">
     <g id="line2d_12">
      <g>
       <use style="stroke:#000000;stroke-width:0.8;" x="138.24" xlink:href="#mffa8457414" y="368.844409"/>
      </g>
     </g>
     <g id="text_12">
      <!-- 20 -->
      <g transform="translate(118.515 372.643628)scale(0.1 -0.1)">
       <use xlink:href="#DejaVuSans-32"/>
       <use x="63.623047" xlink:href="#DejaVuSans-30"/>
      </g>
     </g>
    </g>
    <g id="ytick_4">
     <g id="line2d_13">
      <g>
       <use style="stroke:#000000;stroke-width:0.8;" x="138.24" xlink:href="#mffa8457414" y="310.534488"/>
      </g>
     </g>
     <g id="text_13">
      <!-- 25 -->
      <g transform="translate(118.515 314.333707)scale(0.1 -0.1)">
       <use xlink:href="#DejaVuSans-32"/>
       <use x="63.623047" xlink:href="#DejaVuSans-35"/>
      </g>
     </g>
    </g>
    <g id="ytick_5">
     <g id="line2d_14">
      <g>
       <use style="stroke:#000000;stroke-width:0.8;" x="138.24" xlink:href="#mffa8457414" y="252.224567"/>
      </g>
     </g>
     <g id="text_14">
      <!-- 30 -->
      <g transform="translate(118.515 256.023786)scale(0.1 -0.1)">
       <defs>
        <path d="M 2597 2516 
Q 3050 2419 3304 2112 
Q 3559 1806 3559 1356 
Q 3559 666 3084 287 
Q 2609 -91 1734 -91 
Q 1441 -91 1130 -33 
Q 819 25 488 141 
L 488 750 
Q 750 597 1062 519 
Q 1375 441 1716 441 
Q 2309 441 2620 675 
Q 2931 909 2931 1356 
Q 2931 1769 2642 2001 
Q 2353 2234 1838 2234 
L 1294 2234 
L 1294 2753 
L 1863 2753 
Q 2328 2753 2575 2939 
Q 2822 3125 2822 3475 
Q 2822 3834 2567 4026 
Q 2313 4219 1838 4219 
Q 1578 4219 1281 4162 
Q 984 4106 628 3988 
L 628 4550 
Q 988 4650 1302 4700 
Q 1616 4750 1894 4750 
Q 2613 4750 3031 4423 
Q 3450 4097 3450 3541 
Q 3450 3153 3228 2886 
Q 3006 2619 2597 2516 
z
" id="DejaVuSans-33" transform="scale(0.015625)"/>
       </defs>
       <use xlink:href="#DejaVuSans-33"/>
       <use x="63.623047" xlink:href="#DejaVuSans-30"/>
      </g>
     </g>
    </g>
    <g id="ytick_6">
     <g id="line2d_15">
      <g>
       <use style="stroke:#000000;stroke-width:0.8;" x="138.24" xlink:href="#mffa8457414" y="193.914646"/>
      </g>
     </g>
     <g id="text_15">
      <!-- 35 -->
      <g transform="translate(118.515 197.713864)scale(0.1 -0.1)">
       <use xlink:href="#DejaVuSans-33"/>
       <use x="63.623047" xlink:href="#DejaVuSans-35"/>
      </g>
     </g>
    </g>
    <g id="ytick_7">
     <g id="line2d_16">
      <g>
       <use style="stroke:#000000;stroke-width:0.8;" x="138.24" xlink:href="#mffa8457414" y="135.604724"/>
      </g>
     </g>
     <g id="text_16">
      <!-- 40 -->
      <g transform="translate(118.515 139.403943)scale(0.1 -0.1)">
       <defs>
        <path d="M 2419 4116 
L 825 1625 
L 2419 1625 
L 2419 4116 
z
M 2253 4666 
L 3047 4666 
L 3047 1625 
L 3713 1625 
L 3713 1100 
L 3047 1100 
L 3047 0 
L 2419 0 
L 2419 1100 
L 313 1100 
L 313 1709 
L 2253 4666 
z
" id="DejaVuSans-34" transform="scale(0.015625)"/>
       </defs>
       <use xlink:href="#DejaVuSans-34"/>
       <use x="63.623047" xlink:href="#DejaVuSans-30"/>
      </g>
     </g>
    </g>
    <g id="ytick_8">
     <g id="line2d_17">
      <g>
       <use style="stroke:#000000;stroke-width:0.8;" x="138.24" xlink:href="#mffa8457414" y="77.294803"/>
      </g>
     </g>
     <g id="text_17">
      <!-- 45 -->
      <g transform="translate(118.515 81.094022)scale(0.1 -0.1)">
       <use xlink:href="#DejaVuSans-34"/>
       <use x="63.623047" xlink:href="#DejaVuSans-35"/>
      </g>
     </g>
    </g>
   </g>
   <g id="line2d_18">
    <path clip-path="url(#p5db699da02)" d="M 185.856 310.534488 
L 185.856 182.252661 
" style="fill:none;stroke:#484848;stroke-linecap:square;stroke-width:1.5;"/>
   </g>
   <g id="line2d_19">
    <path clip-path="url(#p5db699da02)" d="M 185.856 278.464032 
L 185.856 233.273843 
" style="fill:none;stroke:#484848;stroke-linecap:square;stroke-width:4.5;"/>
   </g>
   <g id="line2d_20">
    <path clip-path="url(#p5db699da02)" d="M 281.088 432.985323 
L 281.088 392.168378 
" style="fill:none;stroke:#484848;stroke-linecap:square;stroke-width:1.5;"/>
   </g>
   <g id="line2d_21">
    <path clip-path="url(#p5db699da02)" d="M 281.088 422.781087 
L 281.088 392.168378 
" style="fill:none;stroke:#484848;stroke-linecap:square;stroke-width:4.5;"/>
   </g>
   <g id="line2d_22">
    <path clip-path="url(#p5db699da02)" d="M 376.32 345.520441 
L 376.32 164.759685 
" style="fill:none;stroke:#484848;stroke-linecap:square;stroke-width:1.5;"/>
   </g>
   <g id="line2d_23">
    <path clip-path="url(#p5db699da02)" d="M 376.32 284.295024 
L 376.32 234.731591 
" style="fill:none;stroke:#484848;stroke-linecap:square;stroke-width:4.5;"/>
   </g>
   <g id="line2d_24">
    <path clip-path="url(#p5db699da02)" d="M 471.552 409.661354 
L 471.552 351.351433 
" style="fill:none;stroke:#484848;stroke-linecap:square;stroke-width:1.5;"/>
   </g>
   <g id="line2d_25">
    <path clip-path="url(#p5db699da02)" d="M 471.552 392.168378 
L 471.552 355.724677 
" style="fill:none;stroke:#484848;stroke-linecap:square;stroke-width:4.5;"/>
   </g>
   <g id="line2d_26">
    <path clip-path="url(#p5db699da02)" d="M 566.784 322.196472 
L 566.784 193.914646 
" style="fill:none;stroke:#484848;stroke-linecap:square;stroke-width:1.5;"/>
   </g>
   <g id="line2d_27">
    <path clip-path="url(#p5db699da02)" d="M 566.784 284.295024 
L 566.784 236.189339 
" style="fill:none;stroke:#484848;stroke-linecap:square;stroke-width:4.5;"/>
   </g>
   <g id="line2d_28">
    <path clip-path="url(#p5db699da02)" d="M 662.016 432.985323 
L 662.016 339.689449 
" style="fill:none;stroke:#484848;stroke-linecap:square;stroke-width:1.5;"/>
   </g>
   <g id="line2d_29">
    <path clip-path="url(#p5db699da02)" d="M 662.016 399.457118 
L 662.016 373.217654 
" style="fill:none;stroke:#484848;stroke-linecap:square;stroke-width:4.5;"/>
   </g>
   <g id="line2d_30">
    <path clip-path="url(#p5db699da02)" d="M 757.248 415.492346 
L 757.248 176.421669 
" style="fill:none;stroke:#484848;stroke-linecap:square;stroke-width:1.5;"/>
   </g>
   <g id="line2d_31">
    <path clip-path="url(#p5db699da02)" d="M 757.248 332.400709 
L 757.248 227.44285 
" style="fill:none;stroke:#484848;stroke-linecap:square;stroke-width:4.5;"/>
   </g>
   <g id="line2d_32">
    <path clip-path="url(#p5db699da02)" d="M 852.48 403.830362 
L 852.48 357.182425 
" style="fill:none;stroke:#484848;stroke-linecap:square;stroke-width:1.5;"/>
   </g>
   <g id="line2d_33">
    <path clip-path="url(#p5db699da02)" d="M 852.48 390.71063 
L 852.48 374.675402 
" style="fill:none;stroke:#484848;stroke-linecap:square;stroke-width:4.5;"/>
   </g>
   <g id="line2d_34">
    <path clip-path="url(#p5db699da02)" d="M 947.712 380.506394 
L 947.712 357.182425 
" style="fill:none;stroke:#484848;stroke-linecap:square;stroke-width:1.5;"/>
   </g>
   <g id="line2d_35">
    <path clip-path="url(#p5db699da02)" d="M 947.712 380.506394 
L 947.712 368.844409 
" style="fill:none;stroke:#484848;stroke-linecap:square;stroke-width:4.5;"/>
   </g>
   <g id="patch_3">
    <path d="M 138.24 531.864 
L 138.24 71.712 
" style="fill:none;stroke:#000000;stroke-linecap:square;stroke-linejoin:miter;stroke-width:0.8;"/>
   </g>
   <g id="patch_4">
    <path d="M 995.328 531.864 
L 995.328 71.712 
" style="fill:none;stroke:#000000;stroke-linecap:square;stroke-linejoin:miter;stroke-width:0.8;"/>
   </g>
   <g id="patch_5">
    <path d="M 138.24 531.864 
L 995.328 531.864 
" style="fill:none;stroke:#000000;stroke-linecap:square;stroke-linejoin:miter;stroke-width:0.8;"/>
   </g>
   <g id="patch_6">
    <path d="M 138.24 71.712 
L 995.328 71.712 
" style="fill:none;stroke:#000000;stroke-linecap:square;stroke-linejoin:miter;stroke-width:0.8;"/>
   </g>
   <g id="PathCollection_1">
    <defs>
     <path d="M 0 1.5 
C 0.397805 1.5 0.77937 1.341951 1.06066 1.06066 
C 1.341951 0.77937 1.5 0.397805 1.5 0 
C 1.5 -0.397805 1.341951 -0.77937 1.06066 -1.06066 
C 0.77937 -1.341951 0.397805 -1.5 0 -1.5 
C -0.397805 -1.5 -0.77937 -1.341951 -1.06066 -1.06066 
C -1.341951 -0.77937 -1.5 -0.397805 -1.5 0 
C -1.5 0.397805 -1.341951 0.77937 -1.06066 1.06066 
C -0.77937 1.341951 -0.397805 1.5 0 1.5 
z
" id="m089c4ae82d" style="stroke:#484848;"/>
    </defs>
    <g clip-path="url(#p5db699da02)">
     <use style="fill:#ffffff;stroke:#484848;" x="185.856" xlink:href="#m089c4ae82d" y="263.886551"/>
    </g>
   </g>
   <g id="PathCollection_2">
    <g clip-path="url(#p5db699da02)">
     <use style="fill:#ffffff;stroke:#484848;" x="281.088" xlink:href="#m089c4ae82d" y="400.914866"/>
    </g>
   </g>
   <g id="PathCollection_3">
    <g clip-path="url(#p5db699da02)">
     <use style="fill:#ffffff;stroke:#484848;" x="376.32" xlink:href="#m089c4ae82d" y="263.886551"/>
    </g>
   </g>
   <g id="PathCollection_4">
    <g clip-path="url(#p5db699da02)">
     <use style="fill:#ffffff;stroke:#484848;" x="471.552" xlink:href="#m089c4ae82d" y="389.252882"/>
    </g>
   </g>
   <g id="PathCollection_5">
    <g clip-path="url(#p5db699da02)">
     <use style="fill:#ffffff;stroke:#484848;" x="566.784" xlink:href="#m089c4ae82d" y="246.393575"/>
    </g>
   </g>
   <g id="PathCollection_6">
    <g clip-path="url(#p5db699da02)">
     <use style="fill:#ffffff;stroke:#484848;" x="662.016" xlink:href="#m089c4ae82d" y="386.337386"/>
    </g>
   </g>
   <g id="PathCollection_7">
    <g clip-path="url(#p5db699da02)">
     <use style="fill:#ffffff;stroke:#484848;" x="757.248" xlink:href="#m089c4ae82d" y="249.309071"/>
    </g>
   </g>
   <g id="PathCollection_8">
    <g clip-path="url(#p5db699da02)">
     <use style="fill:#ffffff;stroke:#484848;" x="852.48" xlink:href="#m089c4ae82d" y="374.675402"/>
    </g>
   </g>
   <g id="PathCollection_9">
    <g clip-path="url(#p5db699da02)">
     <use style="fill:#ffffff;stroke:#484848;" x="947.712" xlink:href="#m089c4ae82d" y="380.506394"/>
    </g>
   </g>
   <g id="text_18">
    <!-- Rewards earned per agent type - hostile context first -->
    <g transform="translate(235.649234 65.712)scale(0.25 -0.25)">
     <defs>
      <path d="M 2841 2188 
Q 3044 2119 3236 1894 
Q 3428 1669 3622 1275 
L 4263 0 
L 3584 0 
L 2988 1197 
Q 2756 1666 2539 1819 
Q 2322 1972 1947 1972 
L 1259 1972 
L 1259 0 
L 628 0 
L 628 4666 
L 2053 4666 
Q 2853 4666 3247 4331 
Q 3641 3997 3641 3322 
Q 3641 2881 3436 2590 
Q 3231 2300 2841 2188 
z
M 1259 4147 
L 1259 2491 
L 2053 2491 
Q 2509 2491 2742 2702 
Q 2975 2913 2975 3322 
Q 2975 3731 2742 3939 
Q 2509 4147 2053 4147 
L 1259 4147 
z
" id="DejaVuSans-52" transform="scale(0.015625)"/>
      <path d="M 269 3500 
L 844 3500 
L 1563 769 
L 2278 3500 
L 2956 3500 
L 3675 769 
L 4391 3500 
L 4966 3500 
L 4050 0 
L 3372 0 
L 2619 2869 
L 1863 0 
L 1184 0 
L 269 3500 
z
" id="DejaVuSans-77" transform="scale(0.015625)"/>
      <path id="DejaVuSans-20" transform="scale(0.015625)"/>
      <path d="M 3513 2113 
L 3513 0 
L 2938 0 
L 2938 2094 
Q 2938 2591 2744 2837 
Q 2550 3084 2163 3084 
Q 1697 3084 1428 2787 
Q 1159 2491 1159 1978 
L 1159 0 
L 581 0 
L 581 3500 
L 1159 3500 
L 1159 2956 
Q 1366 3272 1645 3428 
Q 1925 3584 2291 3584 
Q 2894 3584 3203 3211 
Q 3513 2838 3513 2113 
z
" id="DejaVuSans-6e" transform="scale(0.015625)"/>
      <path d="M 2906 1791 
Q 2906 2416 2648 2759 
Q 2391 3103 1925 3103 
Q 1463 3103 1205 2759 
Q 947 2416 947 1791 
Q 947 1169 1205 825 
Q 1463 481 1925 481 
Q 2391 481 2648 825 
Q 2906 1169 2906 1791 
z
M 3481 434 
Q 3481 -459 3084 -895 
Q 2688 -1331 1869 -1331 
Q 1566 -1331 1297 -1286 
Q 1028 -1241 775 -1147 
L 775 -588 
Q 1028 -725 1275 -790 
Q 1522 -856 1778 -856 
Q 2344 -856 2625 -561 
Q 2906 -266 2906 331 
L 2906 616 
Q 2728 306 2450 153 
Q 2172 0 1784 0 
Q 1141 0 747 490 
Q 353 981 353 1791 
Q 353 2603 747 3093 
Q 1141 3584 1784 3584 
Q 2172 3584 2450 3431 
Q 2728 3278 2906 2969 
L 2906 3500 
L 3481 3500 
L 3481 434 
z
" id="DejaVuSans-67" transform="scale(0.015625)"/>
      <path d="M 313 2009 
L 1997 2009 
L 1997 1497 
L 313 1497 
L 313 2009 
z
" id="DejaVuSans-2d" transform="scale(0.015625)"/>
      <path d="M 3513 3500 
L 2247 1797 
L 3578 0 
L 2900 0 
L 1881 1375 
L 863 0 
L 184 0 
L 1544 1831 
L 300 3500 
L 978 3500 
L 1906 2253 
L 2834 3500 
L 3513 3500 
z
" id="DejaVuSans-78" transform="scale(0.015625)"/>
      <path d="M 2375 4863 
L 2375 4384 
L 1825 4384 
Q 1516 4384 1395 4259 
Q 1275 4134 1275 3809 
L 1275 3500 
L 2222 3500 
L 2222 3053 
L 1275 3053 
L 1275 0 
L 697 0 
L 697 3053 
L 147 3053 
L 147 3500 
L 697 3500 
L 697 3744 
Q 697 4328 969 4595 
Q 1241 4863 1831 4863 
L 2375 4863 
z
" id="DejaVuSans-66" transform="scale(0.015625)"/>
     </defs>
     <use xlink:href="#DejaVuSans-52"/>
     <use x="64.982422" xlink:href="#DejaVuSans-65"/>
     <use x="126.505859" xlink:href="#DejaVuSans-77"/>
     <use x="208.292969" xlink:href="#DejaVuSans-61"/>
     <use x="269.572266" xlink:href="#DejaVuSans-72"/>
     <use x="308.935547" xlink:href="#DejaVuSans-64"/>
     <use x="372.412109" xlink:href="#DejaVuSans-73"/>
     <use x="424.511719" xlink:href="#DejaVuSans-20"/>
     <use x="456.298828" xlink:href="#DejaVuSans-65"/>
     <use x="517.822266" xlink:href="#DejaVuSans-61"/>
     <use x="579.101562" xlink:href="#DejaVuSans-72"/>
     <use x="618.464844" xlink:href="#DejaVuSans-6e"/>
     <use x="681.84375" xlink:href="#DejaVuSans-65"/>
     <use x="743.367188" xlink:href="#DejaVuSans-64"/>
     <use x="806.84375" xlink:href="#DejaVuSans-20"/>
     <use x="838.630859" xlink:href="#DejaVuSans-70"/>
     <use x="902.107422" xlink:href="#DejaVuSans-65"/>
     <use x="963.630859" xlink:href="#DejaVuSans-72"/>
     <use x="1004.744141" xlink:href="#DejaVuSans-20"/>
     <use x="1036.53125" xlink:href="#DejaVuSans-61"/>
     <use x="1097.810547" xlink:href="#DejaVuSans-67"/>
     <use x="1161.287109" xlink:href="#DejaVuSans-65"/>
     <use x="1222.810547" xlink:href="#DejaVuSans-6e"/>
     <use x="1286.189453" xlink:href="#DejaVuSans-74"/>
     <use x="1325.398438" xlink:href="#DejaVuSans-20"/>
     <use x="1357.185547" xlink:href="#DejaVuSans-74"/>
     <use x="1396.394531" xlink:href="#DejaVuSans-79"/>
     <use x="1455.574219" xlink:href="#DejaVuSans-70"/>
     <use x="1519.050781" xlink:href="#DejaVuSans-65"/>
     <use x="1580.574219" xlink:href="#DejaVuSans-20"/>
     <use x="1612.361328" xlink:href="#DejaVuSans-2d"/>
     <use x="1648.445312" xlink:href="#DejaVuSans-20"/>
     <use x="1680.232422" xlink:href="#DejaVuSans-68"/>
     <use x="1743.611328" xlink:href="#DejaVuSans-6f"/>
     <use x="1804.792969" xlink:href="#DejaVuSans-73"/>
     <use x="1856.892578" xlink:href="#DejaVuSans-74"/>
     <use x="1896.101562" xlink:href="#DejaVuSans-69"/>
     <use x="1923.884766" xlink:href="#DejaVuSans-6c"/>
     <use x="1951.667969" xlink:href="#DejaVuSans-65"/>
     <use x="2013.191406" xlink:href="#DejaVuSans-20"/>
     <use x="2044.978516" xlink:href="#DejaVuSans-63"/>
     <use x="2099.958984" xlink:href="#DejaVuSans-6f"/>
     <use x="2161.140625" xlink:href="#DejaVuSans-6e"/>
     <use x="2224.519531" xlink:href="#DejaVuSans-74"/>
     <use x="2263.728516" xlink:href="#DejaVuSans-65"/>
     <use x="2323.501953" xlink:href="#DejaVuSans-78"/>
     <use x="2382.681641" xlink:href="#DejaVuSans-74"/>
     <use x="2421.890625" xlink:href="#DejaVuSans-20"/>
     <use x="2453.677734" xlink:href="#DejaVuSans-66"/>
     <use x="2488.882812" xlink:href="#DejaVuSans-69"/>
     <use x="2516.666016" xlink:href="#DejaVuSans-72"/>
     <use x="2557.779297" xlink:href="#DejaVuSans-73"/>
     <use x="2609.878906" xlink:href="#DejaVuSans-74"/>
    </g>
   </g>
  </g>
 </g>
 <defs>
  <clipPath id="p5db699da02">
   <rect height="460.152" width="857.088" x="138.24" y="71.712"/>
  </clipPath>
 </defs>
</svg>
