<?xml version="1.0" encoding="utf-8" standalone="no"?>
<!DOCTYPE svg PUBLIC "-//W3C//DTD SVG 1.1//EN"
  "http://www.w3.org/Graphics/SVG/1.1/DTD/svg11.dtd">
<svg height="697.68pt" version="1.1" viewBox="0 0 1382.4 697.68" width="1382.4pt" xmlns="http://www.w3.org/2000/svg" xmlns:xlink="http://www.w3.org/1999/xlink">
 <metadata>
  <rdf:RDF xmlns:cc="http://creativecommons.org/ns#" xmlns:dc="http://purl.org/dc/elements/1.1/" xmlns:rdf="http://www.w3.org/1999/02/22-rdf-syntax-ns#">
   <cc:Work>
    <dc:type rdf:resource="http://purl.org/dc/dcmitype/StillImage"/>
    <dc:date>2023-09-19T09:55:06.503239</dc:date>
    <dc:format>image/svg+xml</dc:format>
    <dc:creator>
     <cc:Agent>
      <dc:title>Matplotlib v3.4.3, https://matplotlib.org/</dc:title>
     </cc:Agent>
    </dc:creator>
   </cc:Work>
  </rdf:RDF>
 </metadata>
 <defs>
  <style type="text/css">*{stroke-linecap:butt;stroke-linejoin:round;}</style>
 </defs>
 <g id="figure_1">
  <g id="patch_1">
   <path d="M 0 697.68 
L 1382.4 697.68 
L 1382.4 0 
L 0 0 
z
" style="fill:#ffffff;"/>
  </g>
  <g id="axes_1">
   <g id="patch_2">
    <path d="M 172.8 620.9352 
L 1244.16 620.9352 
L 1244.16 83.7216 
L 172.8 83.7216 
z
" style="fill:#ffffff;"/>
   </g>
   <g id="PathCollection_1">
    <path clip-path="url(#p8184d77ef7)" d="M 233.672727 503.856891 
L 227.549003 516.104339 
L 239.796452 516.104339 
z
" style="fill:#0000ff;stroke:#0000ff;"/>
    <path clip-path="url(#p8184d77ef7)" d="M 258.021818 425.920439 
L 264.145543 413.67299 
L 251.898094 413.67299 
z
" style="fill:#ff0000;stroke:#ff0000;"/>
    <path clip-path="url(#p8184d77ef7)" d="M 282.370909 224.070362 
L 288.494633 211.822914 
L 276.247185 211.822914 
z
" style="fill:#ff0000;stroke:#ff0000;"/>
    <path clip-path="url(#p8184d77ef7)" d="M 306.72 167.166694 
L 312.843724 154.919245 
L 300.596276 154.919245 
z
" style="fill:#ff0000;stroke:#ff0000;"/>
    <path clip-path="url(#p8184d77ef7)" d="M 331.069091 292.61232 
L 324.945367 304.859769 
L 337.192815 304.859769 
z
" style="fill:#0000ff;stroke:#0000ff;"/>
    <path clip-path="url(#p8184d77ef7)" d="M 355.418182 345.228592 
L 361.541906 332.981143 
L 349.294457 332.981143 
z
" style="fill:#ff0000;stroke:#ff0000;"/>
    <path clip-path="url(#p8184d77ef7)" d="M 379.767273 207.042991 
L 385.890997 194.795542 
L 373.643548 194.795542 
z
" style="fill:#ff0000;stroke:#ff0000;"/>
    <path clip-path="url(#p8184d77ef7)" d="M 404.116364 171.215622 
L 410.240088 158.968173 
L 397.992639 158.968173 
z
" style="fill:#ff0000;stroke:#ff0000;"/>
    <path clip-path="url(#p8184d77ef7)" d="M 428.465455 159.190971 
L 434.589179 146.943522 
L 422.34173 146.943522 
z
" style="fill:#ff0000;stroke:#ff0000;"/>
    <path clip-path="url(#p8184d77ef7)" d="M 452.814545 153.092391 
L 458.93827 140.844943 
L 446.690821 140.844943 
z
" style="fill:#ff0000;stroke:#ff0000;"/>
    <path clip-path="url(#p8184d77ef7)" d="M 477.163636 283.565132 
L 471.039912 295.81258 
L 483.287361 295.81258 
z
" style="fill:#0000ff;stroke:#0000ff;"/>
    <path clip-path="url(#p8184d77ef7)" d="M 501.512727 333.38027 
L 507.636452 321.132821 
L 495.389003 321.132821 
z
" style="fill:#ff0000;stroke:#ff0000;"/>
    <path clip-path="url(#p8184d77ef7)" d="M 525.861818 200.467409 
L 531.985543 188.21996 
L 519.738094 188.21996 
z
" style="fill:#ff0000;stroke:#ff0000;"/>
    <path clip-path="url(#p8184d77ef7)" d="M 550.210909 168.565896 
L 556.334633 156.318447 
L 544.087185 156.318447 
z
" style="fill:#ff0000;stroke:#ff0000;"/>
    <path clip-path="url(#p8184d77ef7)" d="M 574.56 282.765913 
L 568.436276 295.013362 
L 580.683724 295.013362 
z
" style="fill:#0000ff;stroke:#0000ff;"/>
    <path clip-path="url(#p8184d77ef7)" d="M 598.909091 327.754534 
L 605.032815 315.507086 
L 592.785367 315.507086 
z
" style="fill:#ff0000;stroke:#ff0000;"/>
    <path clip-path="url(#p8184d77ef7)" d="M 623.258182 204.274544 
L 629.381906 192.027095 
L 617.134457 192.027095 
z
" style="fill:#ff0000;stroke:#ff0000;"/>
    <path clip-path="url(#p8184d77ef7)" d="M 647.607273 175.252381 
L 653.730997 163.004933 
L 641.483548 163.004933 
z
" style="fill:#ff0000;stroke:#ff0000;"/>
    <path clip-path="url(#p8184d77ef7)" d="M 668.894501 201.628023 
L 671.956364 198.566161 
L 675.018226 201.628023 
L 678.080088 198.566161 
L 675.018226 195.504299 
L 678.080088 192.442437 
L 675.018226 189.380575 
L 671.956364 192.442437 
L 668.894501 189.380575 
L 665.832639 192.442437 
L 668.894501 195.504299 
L 665.832639 198.566161 
z
" style="stroke:#000000;"/>
    <path clip-path="url(#p8184d77ef7)" d="M 696.305455 246.103318 
L 702.429179 233.85587 
L 690.18173 233.85587 
z
" style="fill:#ff0000;stroke:#ff0000;"/>
    <path clip-path="url(#p8184d77ef7)" d="M 720.654545 356.025221 
L 714.530821 368.27267 
L 726.77827 368.27267 
z
" style="fill:#0000ff;stroke:#0000ff;"/>
    <path clip-path="url(#p8184d77ef7)" d="M 745.003636 500.111221 
L 738.879912 512.35867 
L 751.127361 512.35867 
z
" style="fill:#0000ff;stroke:#0000ff;"/>
    <path clip-path="url(#p8184d77ef7)" d="M 769.352727 544.862551 
L 763.229003 557.11 
L 775.476452 557.11 
z
" style="fill:#0000ff;stroke:#0000ff;"/>
    <path clip-path="url(#p8184d77ef7)" d="M 793.701818 421.500469 
L 799.825543 409.25302 
L 787.578094 409.25302 
z
" style="fill:#ff0000;stroke:#ff0000;"/>
    <path clip-path="url(#p8184d77ef7)" d="M 818.050909 362.007435 
L 811.927185 374.254884 
L 824.174633 374.254884 
z
" style="fill:#0000ff;stroke:#0000ff;"/>
    <path clip-path="url(#p8184d77ef7)" d="M 842.4 363.246718 
L 848.523724 350.999269 
L 836.276276 350.999269 
z
" style="fill:#ff0000;stroke:#ff0000;"/>
    <path clip-path="url(#p8184d77ef7)" d="M 866.749091 338.665044 
L 860.625367 350.912493 
L 872.872815 350.912493 
z
" style="fill:#0000ff;stroke:#0000ff;"/>
    <path clip-path="url(#p8184d77ef7)" d="M 891.098182 471.037863 
L 884.974457 483.285312 
L 897.221906 483.285312 
z
" style="fill:#0000ff;stroke:#0000ff;"/>
    <path clip-path="url(#p8184d77ef7)" d="M 915.447273 517.396664 
L 909.323548 529.644112 
L 921.570997 529.644112 
z
" style="fill:#0000ff;stroke:#0000ff;"/>
    <path clip-path="url(#p8184d77ef7)" d="M 939.796364 533.893334 
L 933.672639 546.140783 
L 945.920088 546.140783 
z
" style="fill:#0000ff;stroke:#0000ff;"/>
    <path clip-path="url(#p8184d77ef7)" d="M 964.145455 541.955147 
L 958.02173 554.202596 
L 970.269179 554.202596 
z
" style="fill:#0000ff;stroke:#0000ff;"/>
    <path clip-path="url(#p8184d77ef7)" d="M 988.494545 547.540871 
L 982.370821 559.78832 
L 994.61827 559.78832 
z
" style="fill:#0000ff;stroke:#0000ff;"/>
    <path clip-path="url(#p8184d77ef7)" d="M 1012.843636 552.180559 
L 1006.719912 564.428007 
L 1018.967361 564.428007 
z
" style="fill:#0000ff;stroke:#0000ff;"/>
    <path clip-path="url(#p8184d77ef7)" d="M 1037.192727 433.125425 
L 1043.316452 420.877977 
L 1031.069003 420.877977 
z
" style="fill:#ff0000;stroke:#ff0000;"/>
    <path clip-path="url(#p8184d77ef7)" d="M 1061.541818 375.16537 
L 1055.418094 387.412819 
L 1067.665543 387.412819 
z
" style="fill:#0000ff;stroke:#0000ff;"/>
    <path clip-path="url(#p8184d77ef7)" d="M 1085.890909 373.125267 
L 1092.014633 360.877818 
L 1079.767185 360.877818 
z
" style="fill:#ff0000;stroke:#ff0000;"/>
    <path clip-path="url(#p8184d77ef7)" d="M 1110.24 350.403814 
L 1104.116276 362.651263 
L 1116.363724 362.651263 
z
" style="fill:#0000ff;stroke:#0000ff;"/>
    <path clip-path="url(#p8184d77ef7)" d="M 1134.589091 474.332837 
L 1128.465367 486.580286 
L 1140.712815 486.580286 
z
" style="fill:#0000ff;stroke:#0000ff;"/>
    <path clip-path="url(#p8184d77ef7)" d="M 1158.938182 517.074913 
L 1152.814457 529.322361 
L 1165.061906 529.322361 
z
" style="fill:#0000ff;stroke:#0000ff;"/>
    <path clip-path="url(#p8184d77ef7)" d="M 1183.287273 346.204676 
L 1177.163548 358.452124 
L 1189.410997 358.452124 
z
" style="fill:#0000ff;stroke:#0000ff;"/>
   </g>
   <g id="patch_3">
    <path clip-path="url(#p8184d77ef7)" d="M 221.498182 620.9352 
L 221.498182 83.7216 
L 708.48 83.7216 
L 708.48 620.9352 
z
" style="fill:#ff7f50;opacity:0.3;"/>
   </g>
   <g id="patch_4">
    <path clip-path="url(#p8184d77ef7)" d="M 708.48 620.9352 
L 708.48 83.7216 
L 1195.461818 83.7216 
L 1195.461818 620.9352 
z
" style="fill:#b0e0e6;opacity:0.3;"/>
   </g>
   <g id="matplotlib.axis_1">
    <g id="xtick_1">
     <g id="line2d_1">
      <defs>
       <path d="M 0 0 
L 0 3.5 
" id="m3856e5e55b" style="stroke:#000000;stroke-width:0.8;"/>
      </defs>
      <g>
       <use style="stroke:#000000;stroke-width:0.8;" x="221.498182" xlink:href="#m3856e5e55b" y="620.9352"/>
      </g>
     </g>
     <g id="text_1">
      <!-- 0 -->
      <g transform="translate(216.726307 639.332856)scale(0.15 -0.15)">
       <defs>
        <path d="M 2034 4250 
Q 1547 4250 1301 3770 
Q 1056 3291 1056 2328 
Q 1056 1369 1301 889 
Q 1547 409 2034 409 
Q 2525 409 2770 889 
Q 3016 1369 3016 2328 
Q 3016 3291 2770 3770 
Q 2525 4250 2034 4250 
z
M 2034 4750 
Q 2819 4750 3233 4129 
Q 3647 3509 3647 2328 
Q 3647 1150 3233 529 
Q 2819 -91 2034 -91 
Q 1250 -91 836 529 
Q 422 1150 422 2328 
Q 422 3509 836 4129 
Q 1250 4750 2034 4750 
z
" id="DejaVuSans-30" transform="scale(0.015625)"/>
       </defs>
       <use xlink:href="#DejaVuSans-30"/>
      </g>
     </g>
    </g>
    <g id="xtick_2">
     <g id="line2d_2">
      <g>
       <use style="stroke:#000000;stroke-width:0.8;" x="245.847273" xlink:href="#m3856e5e55b" y="620.9352"/>
      </g>
     </g>
     <g id="text_2">
      <!-- 1 -->
      <g transform="translate(241.075398 639.332856)scale(0.15 -0.15)">
       <defs>
        <path d="M 794 531 
L 1825 531 
L 1825 4091 
L 703 3866 
L 703 4441 
L 1819 4666 
L 2450 4666 
L 2450 531 
L 3481 531 
L 3481 0 
L 794 0 
L 794 531 
z
" id="DejaVuSans-31" transform="scale(0.015625)"/>
       </defs>
       <use xlink:href="#DejaVuSans-31"/>
      </g>
     </g>
    </g>
    <g id="xtick_3">
     <g id="line2d_3">
      <g>
       <use style="stroke:#000000;stroke-width:0.8;" x="270.196364" xlink:href="#m3856e5e55b" y="620.9352"/>
      </g>
     </g>
     <g id="text_3">
      <!-- 2 -->
      <g transform="translate(265.424489 639.332856)scale(0.15 -0.15)">
       <defs>
        <path d="M 1228 531 
L 3431 531 
L 3431 0 
L 469 0 
L 469 531 
Q 828 903 1448 1529 
Q 2069 2156 2228 2338 
Q 2531 2678 2651 2914 
Q 2772 3150 2772 3378 
Q 2772 3750 2511 3984 
Q 2250 4219 1831 4219 
Q 1534 4219 1204 4116 
Q 875 4013 500 3803 
L 500 4441 
Q 881 4594 1212 4672 
Q 1544 4750 1819 4750 
Q 2544 4750 2975 4387 
Q 3406 4025 3406 3419 
Q 3406 3131 3298 2873 
Q 3191 2616 2906 2266 
Q 2828 2175 2409 1742 
Q 1991 1309 1228 531 
z
" id="DejaVuSans-32" transform="scale(0.015625)"/>
       </defs>
       <use xlink:href="#DejaVuSans-32"/>
      </g>
     </g>
    </g>
    <g id="xtick_4">
     <g id="line2d_4">
      <g>
       <use style="stroke:#000000;stroke-width:0.8;" x="294.545455" xlink:href="#m3856e5e55b" y="620.9352"/>
      </g>
     </g>
     <g id="text_4">
      <!-- 3 -->
      <g transform="translate(289.77358 639.332856)scale(0.15 -0.15)">
       <defs>
        <path d="M 2597 2516 
Q 3050 2419 3304 2112 
Q 3559 1806 3559 1356 
Q 3559 666 3084 287 
Q 2609 -91 1734 -91 
Q 1441 -91 1130 -33 
Q 819 25 488 141 
L 488 750 
Q 750 597 1062 519 
Q 1375 441 1716 441 
Q 2309 441 2620 675 
Q 2931 909 2931 1356 
Q 2931 1769 2642 2001 
Q 2353 2234 1838 2234 
L 1294 2234 
L 1294 2753 
L 1863 2753 
Q 2328 2753 2575 2939 
Q 2822 3125 2822 3475 
Q 2822 3834 2567 4026 
Q 2313 4219 1838 4219 
Q 1578 4219 1281 4162 
Q 984 4106 628 3988 
L 628 4550 
Q 988 4650 1302 4700 
Q 1616 4750 1894 4750 
Q 2613 4750 3031 4423 
Q 3450 4097 3450 3541 
Q 3450 3153 3228 2886 
Q 3006 2619 2597 2516 
z
" id="DejaVuSans-33" transform="scale(0.015625)"/>
       </defs>
       <use xlink:href="#DejaVuSans-33"/>
      </g>
     </g>
    </g>
    <g id="xtick_5">
     <g id="line2d_5">
      <g>
       <use style="stroke:#000000;stroke-width:0.8;" x="318.894545" xlink:href="#m3856e5e55b" y="620.9352"/>
      </g>
     </g>
     <g id="text_5">
      <!-- 4 -->
      <g transform="translate(314.12267 639.332856)scale(0.15 -0.15)">
       <defs>
        <path d="M 2419 4116 
L 825 1625 
L 2419 1625 
L 2419 4116 
z
M 2253 4666 
L 3047 4666 
L 3047 1625 
L 3713 1625 
L 3713 1100 
L 3047 1100 
L 3047 0 
L 2419 0 
L 2419 1100 
L 313 1100 
L 313 1709 
L 2253 4666 
z
" id="DejaVuSans-34" transform="scale(0.015625)"/>
       </defs>
       <use xlink:href="#DejaVuSans-34"/>
      </g>
     </g>
    </g>
    <g id="xtick_6">
     <g id="line2d_6">
      <g>
       <use style="stroke:#000000;stroke-width:0.8;" x="343.243636" xlink:href="#m3856e5e55b" y="620.9352"/>
      </g>
     </g>
     <g id="text_6">
      <!-- 5 -->
      <g transform="translate(338.471761 639.332856)scale(0.15 -0.15)">
       <defs>
        <path d="M 691 4666 
L 3169 4666 
L 3169 4134 
L 1269 4134 
L 1269 2991 
Q 1406 3038 1543 3061 
Q 1681 3084 1819 3084 
Q 2600 3084 3056 2656 
Q 3513 2228 3513 1497 
Q 3513 744 3044 326 
Q 2575 -91 1722 -91 
Q 1428 -91 1123 -41 
Q 819 9 494 109 
L 494 744 
Q 775 591 1075 516 
Q 1375 441 1709 441 
Q 2250 441 2565 725 
Q 2881 1009 2881 1497 
Q 2881 1984 2565 2268 
Q 2250 2553 1709 2553 
Q 1456 2553 1204 2497 
Q 953 2441 691 2322 
L 691 4666 
z
" id="DejaVuSans-35" transform="scale(0.015625)"/>
       </defs>
       <use xlink:href="#DejaVuSans-35"/>
      </g>
     </g>
    </g>
    <g id="xtick_7">
     <g id="line2d_7">
      <g>
       <use style="stroke:#000000;stroke-width:0.8;" x="367.592727" xlink:href="#m3856e5e55b" y="620.9352"/>
      </g>
     </g>
     <g id="text_7">
      <!-- 6 -->
      <g transform="translate(362.820852 639.332856)scale(0.15 -0.15)">
       <defs>
        <path d="M 2113 2584 
Q 1688 2584 1439 2293 
Q 1191 2003 1191 1497 
Q 1191 994 1439 701 
Q 1688 409 2113 409 
Q 2538 409 2786 701 
Q 3034 994 3034 1497 
Q 3034 2003 2786 2293 
Q 2538 2584 2113 2584 
z
M 3366 4563 
L 3366 3988 
Q 3128 4100 2886 4159 
Q 2644 4219 2406 4219 
Q 1781 4219 1451 3797 
Q 1122 3375 1075 2522 
Q 1259 2794 1537 2939 
Q 1816 3084 2150 3084 
Q 2853 3084 3261 2657 
Q 3669 2231 3669 1497 
Q 3669 778 3244 343 
Q 2819 -91 2113 -91 
Q 1303 -91 875 529 
Q 447 1150 447 2328 
Q 447 3434 972 4092 
Q 1497 4750 2381 4750 
Q 2619 4750 2861 4703 
Q 3103 4656 3366 4563 
z
" id="DejaVuSans-36" transform="scale(0.015625)"/>
       </defs>
       <use xlink:href="#DejaVuSans-36"/>
      </g>
     </g>
    </g>
    <g id="xtick_8">
     <g id="line2d_8">
      <g>
       <use style="stroke:#000000;stroke-width:0.8;" x="391.941818" xlink:href="#m3856e5e55b" y="620.9352"/>
      </g>
     </g>
     <g id="text_8">
      <!-- 7 -->
      <g transform="translate(387.169943 639.332856)scale(0.15 -0.15)">
       <defs>
        <path d="M 525 4666 
L 3525 4666 
L 3525 4397 
L 1831 0 
L 1172 0 
L 2766 4134 
L 525 4134 
L 525 4666 
z
" id="DejaVuSans-37" transform="scale(0.015625)"/>
       </defs>
       <use xlink:href="#DejaVuSans-37"/>
      </g>
     </g>
    </g>
    <g id="xtick_9">
     <g id="line2d_9">
      <g>
       <use style="stroke:#000000;stroke-width:0.8;" x="416.290909" xlink:href="#m3856e5e55b" y="620.9352"/>
      </g>
     </g>
     <g id="text_9">
      <!-- 8 -->
      <g transform="translate(411.519034 639.332856)scale(0.15 -0.15)">
       <defs>
        <path d="M 2034 2216 
Q 1584 2216 1326 1975 
Q 1069 1734 1069 1313 
Q 1069 891 1326 650 
Q 1584 409 2034 409 
Q 2484 409 2743 651 
Q 3003 894 3003 1313 
Q 3003 1734 2745 1975 
Q 2488 2216 2034 2216 
z
M 1403 2484 
Q 997 2584 770 2862 
Q 544 3141 544 3541 
Q 544 4100 942 4425 
Q 1341 4750 2034 4750 
Q 2731 4750 3128 4425 
Q 3525 4100 3525 3541 
Q 3525 3141 3298 2862 
Q 3072 2584 2669 2484 
Q 3125 2378 3379 2068 
Q 3634 1759 3634 1313 
Q 3634 634 3220 271 
Q 2806 -91 2034 -91 
Q 1263 -91 848 271 
Q 434 634 434 1313 
Q 434 1759 690 2068 
Q 947 2378 1403 2484 
z
M 1172 3481 
Q 1172 3119 1398 2916 
Q 1625 2713 2034 2713 
Q 2441 2713 2670 2916 
Q 2900 3119 2900 3481 
Q 2900 3844 2670 4047 
Q 2441 4250 2034 4250 
Q 1625 4250 1398 4047 
Q 1172 3844 1172 3481 
z
" id="DejaVuSans-38" transform="scale(0.015625)"/>
       </defs>
       <use xlink:href="#DejaVuSans-38"/>
      </g>
     </g>
    </g>
    <g id="xtick_10">
     <g id="line2d_10">
      <g>
       <use style="stroke:#000000;stroke-width:0.8;" x="440.64" xlink:href="#m3856e5e55b" y="620.9352"/>
      </g>
     </g>
     <g id="text_10">
      <!-- 9 -->
      <g transform="translate(435.868125 639.332856)scale(0.15 -0.15)">
       <defs>
        <path d="M 703 97 
L 703 672 
Q 941 559 1184 500 
Q 1428 441 1663 441 
Q 2288 441 2617 861 
Q 2947 1281 2994 2138 
Q 2813 1869 2534 1725 
Q 2256 1581 1919 1581 
Q 1219 1581 811 2004 
Q 403 2428 403 3163 
Q 403 3881 828 4315 
Q 1253 4750 1959 4750 
Q 2769 4750 3195 4129 
Q 3622 3509 3622 2328 
Q 3622 1225 3098 567 
Q 2575 -91 1691 -91 
Q 1453 -91 1209 -44 
Q 966 3 703 97 
z
M 1959 2075 
Q 2384 2075 2632 2365 
Q 2881 2656 2881 3163 
Q 2881 3666 2632 3958 
Q 2384 4250 1959 4250 
Q 1534 4250 1286 3958 
Q 1038 3666 1038 3163 
Q 1038 2656 1286 2365 
Q 1534 2075 1959 2075 
z
" id="DejaVuSans-39" transform="scale(0.015625)"/>
       </defs>
       <use xlink:href="#DejaVuSans-39"/>
      </g>
     </g>
    </g>
    <g id="xtick_11">
     <g id="line2d_11">
      <g>
       <use style="stroke:#000000;stroke-width:0.8;" x="464.989091" xlink:href="#m3856e5e55b" y="620.9352"/>
      </g>
     </g>
     <g id="text_11">
      <!-- 10 -->
      <g transform="translate(455.445341 639.332856)scale(0.15 -0.15)">
       <use xlink:href="#DejaVuSans-31"/>
       <use x="63.623047" xlink:href="#DejaVuSans-30"/>
      </g>
     </g>
    </g>
    <g id="xtick_12">
     <g id="line2d_12">
      <g>
       <use style="stroke:#000000;stroke-width:0.8;" x="489.338182" xlink:href="#m3856e5e55b" y="620.9352"/>
      </g>
     </g>
     <g id="text_12">
      <!-- 11 -->
      <g transform="translate(479.794432 639.332856)scale(0.15 -0.15)">
       <use xlink:href="#DejaVuSans-31"/>
       <use x="63.623047" xlink:href="#DejaVuSans-31"/>
      </g>
     </g>
    </g>
    <g id="xtick_13">
     <g id="line2d_13">
      <g>
       <use style="stroke:#000000;stroke-width:0.8;" x="513.687273" xlink:href="#m3856e5e55b" y="620.9352"/>
      </g>
     </g>
     <g id="text_13">
      <!-- 12 -->
      <g transform="translate(504.143523 639.332856)scale(0.15 -0.15)">
       <use xlink:href="#DejaVuSans-31"/>
       <use x="63.623047" xlink:href="#DejaVuSans-32"/>
      </g>
     </g>
    </g>
    <g id="xtick_14">
     <g id="line2d_14">
      <g>
       <use style="stroke:#000000;stroke-width:0.8;" x="538.036364" xlink:href="#m3856e5e55b" y="620.9352"/>
      </g>
     </g>
     <g id="text_14">
      <!-- 13 -->
      <g transform="translate(528.492614 639.332856)scale(0.15 -0.15)">
       <use xlink:href="#DejaVuSans-31"/>
       <use x="63.623047" xlink:href="#DejaVuSans-33"/>
      </g>
     </g>
    </g>
    <g id="xtick_15">
     <g id="line2d_15">
      <g>
       <use style="stroke:#000000;stroke-width:0.8;" x="562.385455" xlink:href="#m3856e5e55b" y="620.9352"/>
      </g>
     </g>
     <g id="text_15">
      <!-- 14 -->
      <g transform="translate(552.841705 639.332856)scale(0.15 -0.15)">
       <use xlink:href="#DejaVuSans-31"/>
       <use x="63.623047" xlink:href="#DejaVuSans-34"/>
      </g>
     </g>
    </g>
    <g id="xtick_16">
     <g id="line2d_16">
      <g>
       <use style="stroke:#000000;stroke-width:0.8;" x="586.734545" xlink:href="#m3856e5e55b" y="620.9352"/>
      </g>
     </g>
     <g id="text_16">
      <!-- 15 -->
      <g transform="translate(577.190795 639.332856)scale(0.15 -0.15)">
       <use xlink:href="#DejaVuSans-31"/>
       <use x="63.623047" xlink:href="#DejaVuSans-35"/>
      </g>
     </g>
    </g>
    <g id="xtick_17">
     <g id="line2d_17">
      <g>
       <use style="stroke:#000000;stroke-width:0.8;" x="611.083636" xlink:href="#m3856e5e55b" y="620.9352"/>
      </g>
     </g>
     <g id="text_17">
      <!-- 16 -->
      <g transform="translate(601.539886 639.332856)scale(0.15 -0.15)">
       <use xlink:href="#DejaVuSans-31"/>
       <use x="63.623047" xlink:href="#DejaVuSans-36"/>
      </g>
     </g>
    </g>
    <g id="xtick_18">
     <g id="line2d_18">
      <g>
       <use style="stroke:#000000;stroke-width:0.8;" x="635.432727" xlink:href="#m3856e5e55b" y="620.9352"/>
      </g>
     </g>
     <g id="text_18">
      <!-- 17 -->
      <g transform="translate(625.888977 639.332856)scale(0.15 -0.15)">
       <use xlink:href="#DejaVuSans-31"/>
       <use x="63.623047" xlink:href="#DejaVuSans-37"/>
      </g>
     </g>
    </g>
    <g id="xtick_19">
     <g id="line2d_19">
      <g>
       <use style="stroke:#000000;stroke-width:0.8;" x="659.781818" xlink:href="#m3856e5e55b" y="620.9352"/>
      </g>
     </g>
     <g id="text_19">
      <!-- 18 -->
      <g transform="translate(650.238068 639.332856)scale(0.15 -0.15)">
       <use xlink:href="#DejaVuSans-31"/>
       <use x="63.623047" xlink:href="#DejaVuSans-38"/>
      </g>
     </g>
    </g>
    <g id="xtick_20">
     <g id="line2d_20">
      <g>
       <use style="stroke:#000000;stroke-width:0.8;" x="684.130909" xlink:href="#m3856e5e55b" y="620.9352"/>
      </g>
     </g>
     <g id="text_20">
      <!-- 19 -->
      <g transform="translate(674.587159 639.332856)scale(0.15 -0.15)">
       <use xlink:href="#DejaVuSans-31"/>
       <use x="63.623047" xlink:href="#DejaVuSans-39"/>
      </g>
     </g>
    </g>
    <g id="xtick_21">
     <g id="line2d_21">
      <g>
       <use style="stroke:#000000;stroke-width:0.8;" x="708.48" xlink:href="#m3856e5e55b" y="620.9352"/>
      </g>
     </g>
     <g id="text_21">
      <!-- 20 -->
      <g transform="translate(698.93625 639.332856)scale(0.15 -0.15)">
       <use xlink:href="#DejaVuSans-32"/>
       <use x="63.623047" xlink:href="#DejaVuSans-30"/>
      </g>
     </g>
    </g>
    <g id="xtick_22">
     <g id="line2d_22">
      <g>
       <use style="stroke:#000000;stroke-width:0.8;" x="732.829091" xlink:href="#m3856e5e55b" y="620.9352"/>
      </g>
     </g>
     <g id="text_22">
      <!-- 21 -->
      <g transform="translate(723.285341 639.332856)scale(0.15 -0.15)">
       <use xlink:href="#DejaVuSans-32"/>
       <use x="63.623047" xlink:href="#DejaVuSans-31"/>
      </g>
     </g>
    </g>
    <g id="xtick_23">
     <g id="line2d_23">
      <g>
       <use style="stroke:#000000;stroke-width:0.8;" x="757.178182" xlink:href="#m3856e5e55b" y="620.9352"/>
      </g>
     </g>
     <g id="text_23">
      <!-- 22 -->
      <g transform="translate(747.634432 639.332856)scale(0.15 -0.15)">
       <use xlink:href="#DejaVuSans-32"/>
       <use x="63.623047" xlink:href="#DejaVuSans-32"/>
      </g>
     </g>
    </g>
    <g id="xtick_24">
     <g id="line2d_24">
      <g>
       <use style="stroke:#000000;stroke-width:0.8;" x="781.527273" xlink:href="#m3856e5e55b" y="620.9352"/>
      </g>
     </g>
     <g id="text_24">
      <!-- 23 -->
      <g transform="translate(771.983523 639.332856)scale(0.15 -0.15)">
       <use xlink:href="#DejaVuSans-32"/>
       <use x="63.623047" xlink:href="#DejaVuSans-33"/>
      </g>
     </g>
    </g>
    <g id="xtick_25">
     <g id="line2d_25">
      <g>
       <use style="stroke:#000000;stroke-width:0.8;" x="805.876364" xlink:href="#m3856e5e55b" y="620.9352"/>
      </g>
     </g>
     <g id="text_25">
      <!-- 24 -->
      <g transform="translate(796.332614 639.332856)scale(0.15 -0.15)">
       <use xlink:href="#DejaVuSans-32"/>
       <use x="63.623047" xlink:href="#DejaVuSans-34"/>
      </g>
     </g>
    </g>
    <g id="xtick_26">
     <g id="line2d_26">
      <g>
       <use style="stroke:#000000;stroke-width:0.8;" x="830.225455" xlink:href="#m3856e5e55b" y="620.9352"/>
      </g>
     </g>
     <g id="text_26">
      <!-- 25 -->
      <g transform="translate(820.681705 639.332856)scale(0.15 -0.15)">
       <use xlink:href="#DejaVuSans-32"/>
       <use x="63.623047" xlink:href="#DejaVuSans-35"/>
      </g>
     </g>
    </g>
    <g id="xtick_27">
     <g id="line2d_27">
      <g>
       <use style="stroke:#000000;stroke-width:0.8;" x="854.574545" xlink:href="#m3856e5e55b" y="620.9352"/>
      </g>
     </g>
     <g id="text_27">
      <!-- 26 -->
      <g transform="translate(845.030795 639.332856)scale(0.15 -0.15)">
       <use xlink:href="#DejaVuSans-32"/>
       <use x="63.623047" xlink:href="#DejaVuSans-36"/>
      </g>
     </g>
    </g>
    <g id="xtick_28">
     <g id="line2d_28">
      <g>
       <use style="stroke:#000000;stroke-width:0.8;" x="878.923636" xlink:href="#m3856e5e55b" y="620.9352"/>
      </g>
     </g>
     <g id="text_28">
      <!-- 27 -->
      <g transform="translate(869.379886 639.332856)scale(0.15 -0.15)">
       <use xlink:href="#DejaVuSans-32"/>
       <use x="63.623047" xlink:href="#DejaVuSans-37"/>
      </g>
     </g>
    </g>
    <g id="xtick_29">
     <g id="line2d_29">
      <g>
       <use style="stroke:#000000;stroke-width:0.8;" x="903.272727" xlink:href="#m3856e5e55b" y="620.9352"/>
      </g>
     </g>
     <g id="text_29">
      <!-- 28 -->
      <g transform="translate(893.728977 639.332856)scale(0.15 -0.15)">
       <use xlink:href="#DejaVuSans-32"/>
       <use x="63.623047" xlink:href="#DejaVuSans-38"/>
      </g>
     </g>
    </g>
    <g id="xtick_30">
     <g id="line2d_30">
      <g>
       <use style="stroke:#000000;stroke-width:0.8;" x="927.621818" xlink:href="#m3856e5e55b" y="620.9352"/>
      </g>
     </g>
     <g id="text_30">
      <!-- 29 -->
      <g transform="translate(918.078068 639.332856)scale(0.15 -0.15)">
       <use xlink:href="#DejaVuSans-32"/>
       <use x="63.623047" xlink:href="#DejaVuSans-39"/>
      </g>
     </g>
    </g>
    <g id="xtick_31">
     <g id="line2d_31">
      <g>
       <use style="stroke:#000000;stroke-width:0.8;" x="951.970909" xlink:href="#m3856e5e55b" y="620.9352"/>
      </g>
     </g>
     <g id="text_31">
      <!-- 30 -->
      <g transform="translate(942.427159 639.332856)scale(0.15 -0.15)">
       <use xlink:href="#DejaVuSans-33"/>
       <use x="63.623047" xlink:href="#DejaVuSans-30"/>
      </g>
     </g>
    </g>
    <g id="xtick_32">
     <g id="line2d_32">
      <g>
       <use style="stroke:#000000;stroke-width:0.8;" x="976.32" xlink:href="#m3856e5e55b" y="620.9352"/>
      </g>
     </g>
     <g id="text_32">
      <!-- 31 -->
      <g transform="translate(966.77625 639.332856)scale(0.15 -0.15)">
       <use xlink:href="#DejaVuSans-33"/>
       <use x="63.623047" xlink:href="#DejaVuSans-31"/>
      </g>
     </g>
    </g>
    <g id="xtick_33">
     <g id="line2d_33">
      <g>
       <use style="stroke:#000000;stroke-width:0.8;" x="1000.669091" xlink:href="#m3856e5e55b" y="620.9352"/>
      </g>
     </g>
     <g id="text_33">
      <!-- 32 -->
      <g transform="translate(991.125341 639.332856)scale(0.15 -0.15)">
       <use xlink:href="#DejaVuSans-33"/>
       <use x="63.623047" xlink:href="#DejaVuSans-32"/>
      </g>
     </g>
    </g>
    <g id="xtick_34">
     <g id="line2d_34">
      <g>
       <use style="stroke:#000000;stroke-width:0.8;" x="1025.018182" xlink:href="#m3856e5e55b" y="620.9352"/>
      </g>
     </g>
     <g id="text_34">
      <!-- 33 -->
      <g transform="translate(1015.474432 639.332856)scale(0.15 -0.15)">
       <use xlink:href="#DejaVuSans-33"/>
       <use x="63.623047" xlink:href="#DejaVuSans-33"/>
      </g>
     </g>
    </g>
    <g id="xtick_35">
     <g id="line2d_35">
      <g>
       <use style="stroke:#000000;stroke-width:0.8;" x="1049.367273" xlink:href="#m3856e5e55b" y="620.9352"/>
      </g>
     </g>
     <g id="text_35">
      <!-- 34 -->
      <g transform="translate(1039.823523 639.332856)scale(0.15 -0.15)">
       <use xlink:href="#DejaVuSans-33"/>
       <use x="63.623047" xlink:href="#DejaVuSans-34"/>
      </g>
     </g>
    </g>
    <g id="xtick_36">
     <g id="line2d_36">
      <g>
       <use style="stroke:#000000;stroke-width:0.8;" x="1073.716364" xlink:href="#m3856e5e55b" y="620.9352"/>
      </g>
     </g>
     <g id="text_36">
      <!-- 35 -->
      <g transform="translate(1064.172614 639.332856)scale(0.15 -0.15)">
       <use xlink:href="#DejaVuSans-33"/>
       <use x="63.623047" xlink:href="#DejaVuSans-35"/>
      </g>
     </g>
    </g>
    <g id="xtick_37">
     <g id="line2d_37">
      <g>
       <use style="stroke:#000000;stroke-width:0.8;" x="1098.065455" xlink:href="#m3856e5e55b" y="620.9352"/>
      </g>
     </g>
     <g id="text_37">
      <!-- 36 -->
      <g transform="translate(1088.521705 639.332856)scale(0.15 -0.15)">
       <use xlink:href="#DejaVuSans-33"/>
       <use x="63.623047" xlink:href="#DejaVuSans-36"/>
      </g>
     </g>
    </g>
    <g id="xtick_38">
     <g id="line2d_38">
      <g>
       <use style="stroke:#000000;stroke-width:0.8;" x="1122.414545" xlink:href="#m3856e5e55b" y="620.9352"/>
      </g>
     </g>
     <g id="text_38">
      <!-- 37 -->
      <g transform="translate(1112.870795 639.332856)scale(0.15 -0.15)">
       <use xlink:href="#DejaVuSans-33"/>
       <use x="63.623047" xlink:href="#DejaVuSans-37"/>
      </g>
     </g>
    </g>
    <g id="xtick_39">
     <g id="line2d_39">
      <g>
       <use style="stroke:#000000;stroke-width:0.8;" x="1146.763636" xlink:href="#m3856e5e55b" y="620.9352"/>
      </g>
     </g>
     <g id="text_39">
      <!-- 38 -->
      <g transform="translate(1137.219886 639.332856)scale(0.15 -0.15)">
       <use xlink:href="#DejaVuSans-33"/>
       <use x="63.623047" xlink:href="#DejaVuSans-38"/>
      </g>
     </g>
    </g>
    <g id="xtick_40">
     <g id="line2d_40">
      <g>
       <use style="stroke:#000000;stroke-width:0.8;" x="1171.112727" xlink:href="#m3856e5e55b" y="620.9352"/>
      </g>
     </g>
     <g id="text_40">
      <!-- 39 -->
      <g transform="translate(1161.568977 639.332856)scale(0.15 -0.15)">
       <use xlink:href="#DejaVuSans-33"/>
       <use x="63.623047" xlink:href="#DejaVuSans-39"/>
      </g>
     </g>
    </g>
    <g id="text_41">
     <!-- $t$ -->
     <g transform="translate(704.48 661.649262)scale(0.2 -0.2)">
      <defs>
       <path d="M 2706 3500 
L 2619 3053 
L 1472 3053 
L 1100 1153 
Q 1081 1047 1072 975 
Q 1063 903 1063 863 
Q 1063 663 1183 572 
Q 1303 481 1569 481 
L 2150 481 
L 2053 0 
L 1503 0 
Q 991 0 739 200 
Q 488 400 488 806 
Q 488 878 497 964 
Q 506 1050 525 1153 
L 897 3053 
L 409 3053 
L 500 3500 
L 978 3500 
L 1172 4494 
L 1747 4494 
L 1556 3500 
L 2706 3500 
z
" id="DejaVuSans-Oblique-74" transform="scale(0.015625)"/>
      </defs>
      <use transform="translate(0 0.78125)" xlink:href="#DejaVuSans-Oblique-74"/>
     </g>
    </g>
   </g>
   <g id="matplotlib.axis_2">
    <g id="ytick_1">
     <g id="line2d_41">
      <defs>
       <path d="M 0 0 
L -3.5 0 
" id="ma7af18996e" style="stroke:#000000;stroke-width:0.8;"/>
      </defs>
      <g>
       <use style="stroke:#000000;stroke-width:0.8;" x="172.8" xlink:href="#ma7af18996e" y="620.9352"/>
      </g>
     </g>
     <g id="text_42">
      <!-- 0.0 -->
      <g transform="translate(141.945312 626.634028)scale(0.15 -0.15)">
       <defs>
        <path d="M 684 794 
L 1344 794 
L 1344 0 
L 684 0 
L 684 794 
z
" id="DejaVuSans-2e" transform="scale(0.015625)"/>
       </defs>
       <use xlink:href="#DejaVuSans-30"/>
       <use x="63.623047" xlink:href="#DejaVuSans-2e"/>
       <use x="95.410156" xlink:href="#DejaVuSans-30"/>
      </g>
     </g>
    </g>
    <g id="ytick_2">
     <g id="line2d_42">
      <g>
       <use style="stroke:#000000;stroke-width:0.8;" x="172.8" xlink:href="#ma7af18996e" y="513.49248"/>
      </g>
     </g>
     <g id="text_43">
      <!-- 0.2 -->
      <g transform="translate(141.945312 519.191308)scale(0.15 -0.15)">
       <use xlink:href="#DejaVuSans-30"/>
       <use x="63.623047" xlink:href="#DejaVuSans-2e"/>
       <use x="95.410156" xlink:href="#DejaVuSans-32"/>
      </g>
     </g>
    </g>
    <g id="ytick_3">
     <g id="line2d_43">
      <g>
       <use style="stroke:#000000;stroke-width:0.8;" x="172.8" xlink:href="#ma7af18996e" y="406.04976"/>
      </g>
     </g>
     <g id="text_44">
      <!-- 0.4 -->
      <g transform="translate(141.945312 411.748588)scale(0.15 -0.15)">
       <use xlink:href="#DejaVuSans-30"/>
       <use x="63.623047" xlink:href="#DejaVuSans-2e"/>
       <use x="95.410156" xlink:href="#DejaVuSans-34"/>
      </g>
     </g>
    </g>
    <g id="ytick_4">
     <g id="line2d_44">
      <g>
       <use style="stroke:#000000;stroke-width:0.8;" x="172.8" xlink:href="#ma7af18996e" y="298.60704"/>
      </g>
     </g>
     <g id="text_45">
      <!-- 0.6 -->
      <g transform="translate(141.945312 304.305868)scale(0.15 -0.15)">
       <use xlink:href="#DejaVuSans-30"/>
       <use x="63.623047" xlink:href="#DejaVuSans-2e"/>
       <use x="95.410156" xlink:href="#DejaVuSans-36"/>
      </g>
     </g>
    </g>
    <g id="ytick_5">
     <g id="line2d_45">
      <g>
       <use style="stroke:#000000;stroke-width:0.8;" x="172.8" xlink:href="#ma7af18996e" y="191.16432"/>
      </g>
     </g>
     <g id="text_46">
      <!-- 0.8 -->
      <g transform="translate(141.945312 196.863148)scale(0.15 -0.15)">
       <use xlink:href="#DejaVuSans-30"/>
       <use x="63.623047" xlink:href="#DejaVuSans-2e"/>
       <use x="95.410156" xlink:href="#DejaVuSans-38"/>
      </g>
     </g>
    </g>
    <g id="ytick_6">
     <g id="line2d_46">
      <g>
       <use style="stroke:#000000;stroke-width:0.8;" x="172.8" xlink:href="#ma7af18996e" y="83.7216"/>
      </g>
     </g>
     <g id="text_47">
      <!-- 1.0 -->
      <g transform="translate(141.945312 89.420428)scale(0.15 -0.15)">
       <use xlink:href="#DejaVuSans-31"/>
       <use x="63.623047" xlink:href="#DejaVuSans-2e"/>
       <use x="95.410156" xlink:href="#DejaVuSans-30"/>
      </g>
     </g>
    </g>
    <g id="text_48">
     <!-- $p(context)$ -->
     <g transform="translate(133.745312 404.4284)rotate(-90)scale(0.2 -0.2)">
      <defs>
       <path d="M 3175 2156 
Q 3175 2616 2975 2859 
Q 2775 3103 2400 3103 
Q 2144 3103 1911 2972 
Q 1678 2841 1497 2591 
Q 1319 2344 1212 1994 
Q 1106 1644 1106 1300 
Q 1106 863 1306 627 
Q 1506 391 1875 391 
Q 2147 391 2380 519 
Q 2613 647 2778 891 
Q 2956 1147 3065 1494 
Q 3175 1841 3175 2156 
z
M 1394 2969 
Q 1625 3272 1939 3428 
Q 2253 3584 2638 3584 
Q 3175 3584 3472 3232 
Q 3769 2881 3769 2247 
Q 3769 1728 3584 1258 
Q 3400 788 3053 416 
Q 2822 169 2531 39 
Q 2241 -91 1919 -91 
Q 1547 -91 1294 64 
Q 1041 219 916 525 
L 556 -1331 
L -19 -1331 
L 922 3500 
L 1497 3500 
L 1394 2969 
z
" id="DejaVuSans-Oblique-70" transform="scale(0.015625)"/>
       <path d="M 1984 4856 
Q 1566 4138 1362 3434 
Q 1159 2731 1159 2009 
Q 1159 1288 1364 580 
Q 1569 -128 1984 -844 
L 1484 -844 
Q 1016 -109 783 600 
Q 550 1309 550 2009 
Q 550 2706 781 3412 
Q 1013 4119 1484 4856 
L 1984 4856 
z
" id="DejaVuSans-28" transform="scale(0.015625)"/>
       <path d="M 3431 3366 
L 3316 2797 
Q 3109 2947 2876 3022 
Q 2644 3097 2394 3097 
Q 2119 3097 1870 3000 
Q 1622 2903 1453 2725 
Q 1184 2453 1037 2087 
Q 891 1722 891 1331 
Q 891 859 1127 628 
Q 1363 397 1844 397 
Q 2081 397 2348 469 
Q 2616 541 2906 684 
L 2797 116 
Q 2547 13 2283 -39 
Q 2019 -91 1741 -91 
Q 1044 -91 669 257 
Q 294 606 294 1253 
Q 294 1797 489 2255 
Q 684 2713 1069 3078 
Q 1331 3328 1684 3456 
Q 2038 3584 2456 3584 
Q 2700 3584 2940 3529 
Q 3181 3475 3431 3366 
z
" id="DejaVuSans-Oblique-63" transform="scale(0.015625)"/>
       <path d="M 1625 -91 
Q 1009 -91 651 289 
Q 294 669 294 1325 
Q 294 1706 417 2101 
Q 541 2497 738 2766 
Q 1047 3184 1428 3384 
Q 1809 3584 2291 3584 
Q 2888 3584 3255 3212 
Q 3622 2841 3622 2241 
Q 3622 1825 3500 1412 
Q 3378 1000 3181 728 
Q 2875 309 2494 109 
Q 2113 -91 1625 -91 
z
M 891 1344 
Q 891 869 1089 633 
Q 1288 397 1691 397 
Q 2269 397 2648 901 
Q 3028 1406 3028 2181 
Q 3028 2634 2825 2865 
Q 2622 3097 2228 3097 
Q 1903 3097 1650 2945 
Q 1397 2794 1197 2484 
Q 1050 2253 970 1956 
Q 891 1659 891 1344 
z
" id="DejaVuSans-Oblique-6f" transform="scale(0.015625)"/>
       <path d="M 3566 2113 
L 3156 0 
L 2578 0 
L 2988 2091 
Q 3016 2238 3031 2350 
Q 3047 2463 3047 2528 
Q 3047 2791 2881 2937 
Q 2716 3084 2419 3084 
Q 1956 3084 1622 2776 
Q 1288 2469 1184 1941 
L 800 0 
L 225 0 
L 903 3500 
L 1478 3500 
L 1363 2950 
Q 1603 3253 1940 3418 
Q 2278 3584 2650 3584 
Q 3113 3584 3367 3334 
Q 3622 3084 3622 2631 
Q 3622 2519 3608 2391 
Q 3594 2263 3566 2113 
z
" id="DejaVuSans-Oblique-6e" transform="scale(0.015625)"/>
       <path d="M 3078 2063 
Q 3088 2113 3092 2166 
Q 3097 2219 3097 2272 
Q 3097 2653 2873 2875 
Q 2650 3097 2266 3097 
Q 1838 3097 1509 2826 
Q 1181 2556 1013 2059 
L 3078 2063 
z
M 3578 1613 
L 903 1613 
Q 884 1494 878 1425 
Q 872 1356 872 1306 
Q 872 872 1139 634 
Q 1406 397 1894 397 
Q 2269 397 2603 481 
Q 2938 566 3225 728 
L 3116 159 
Q 2806 34 2476 -28 
Q 2147 -91 1806 -91 
Q 1078 -91 686 257 
Q 294 606 294 1247 
Q 294 1794 489 2264 
Q 684 2734 1063 3103 
Q 1306 3334 1642 3459 
Q 1978 3584 2356 3584 
Q 2950 3584 3301 3228 
Q 3653 2872 3653 2272 
Q 3653 2128 3634 1964 
Q 3616 1800 3578 1613 
z
" id="DejaVuSans-Oblique-65" transform="scale(0.015625)"/>
       <path d="M 3841 3500 
L 2234 1784 
L 3219 0 
L 2559 0 
L 1819 1388 
L 531 0 
L -166 0 
L 1556 1844 
L 641 3500 
L 1300 3500 
L 1972 2234 
L 3144 3500 
L 3841 3500 
z
" id="DejaVuSans-Oblique-78" transform="scale(0.015625)"/>
       <path d="M 513 4856 
L 1013 4856 
Q 1481 4119 1714 3412 
Q 1947 2706 1947 2009 
Q 1947 1309 1714 600 
Q 1481 -109 1013 -844 
L 513 -844 
Q 928 -128 1133 580 
Q 1338 1288 1338 2009 
Q 1338 2731 1133 3434 
Q 928 4138 513 4856 
z
" id="DejaVuSans-29" transform="scale(0.015625)"/>
      </defs>
      <use transform="translate(0 0.125)" xlink:href="#DejaVuSans-Oblique-70"/>
      <use transform="translate(63.476562 0.125)" xlink:href="#DejaVuSans-28"/>
      <use transform="translate(102.490234 0.125)" xlink:href="#DejaVuSans-Oblique-63"/>
      <use transform="translate(157.470703 0.125)" xlink:href="#DejaVuSans-Oblique-6f"/>
      <use transform="translate(218.652344 0.125)" xlink:href="#DejaVuSans-Oblique-6e"/>
      <use transform="translate(282.03125 0.125)" xlink:href="#DejaVuSans-Oblique-74"/>
      <use transform="translate(321.240234 0.125)" xlink:href="#DejaVuSans-Oblique-65"/>
      <use transform="translate(382.763672 0.125)" xlink:href="#DejaVuSans-Oblique-78"/>
      <use transform="translate(441.943359 0.125)" xlink:href="#DejaVuSans-Oblique-74"/>
      <use transform="translate(481.152344 0.125)" xlink:href="#DejaVuSans-29"/>
     </g>
    </g>
   </g>
   <g id="line2d_47">
    <path clip-path="url(#p8184d77ef7)" d="M 221.498182 441.864 
L 245.847273 279.276928 
L 270.196364 579.978331 
L 294.545455 609.84319 
L 318.894545 614.148799 
L 343.243636 412.843964 
L 367.592727 590.78263 
L 391.941818 609.335306 
L 416.290909 612.4965 
L 440.64 613.790361 
L 464.989091 614.635553 
L 489.338182 428.902927 
L 513.687273 591.745863 
L 538.036364 609.632684 
L 562.385455 612.434374 
L 586.734545 433.840834 
L 611.083636 589.268273 
L 635.432727 607.541694 
L 659.781818 610.481962 
L 684.130909 574.637158 
L 708.48 558.528442 
L 732.829091 375.750169 
L 757.178182 280.347681 
L 781.527273 242.36022 
L 805.876364 553.465763 
L 830.225455 373.287954 
L 854.574545 567.330749 
L 878.923636 396.324105 
L 903.272727 308.523734 
L 927.621818 274.499949 
L 951.970909 258.503033 
L 976.32 247.861015 
L 1000.669091 239.075967 
L 1025.018182 231.234607 
L 1049.367273 534.576441 
L 1073.716364 353.84433 
L 1098.065455 551.64518 
L 1122.414545 375.123762 
L 1146.763636 294.92234 
L 1171.112727 266.628501 
" style="fill:none;stroke:#0000ff;stroke-linecap:square;stroke-width:1.5;"/>
    <defs>
     <path d="M 0 3 
C 0.795609 3 1.55874 2.683901 2.12132 2.12132 
C 2.683901 1.55874 3 0.795609 3 0 
C 3 -0.795609 2.683901 -1.55874 2.12132 -2.12132 
C 1.55874 -2.683901 0.795609 -3 0 -3 
C -0.795609 -3 -1.55874 -2.683901 -2.12132 -2.12132 
C -2.683901 -1.55874 -3 -0.795609 -3 0 
C -3 0.795609 -2.683901 1.55874 -2.12132 2.12132 
C -1.55874 2.683901 -0.795609 3 0 3 
z
" id="m231a9c6545" style="stroke:#0000ff;"/>
    </defs>
    <g clip-path="url(#p8184d77ef7)">
     <use style="fill:#0000ff;stroke:#0000ff;" x="221.498182" xlink:href="#m231a9c6545" y="441.864"/>
     <use style="fill:#0000ff;stroke:#0000ff;" x="245.847273" xlink:href="#m231a9c6545" y="279.276928"/>
     <use style="fill:#0000ff;stroke:#0000ff;" x="270.196364" xlink:href="#m231a9c6545" y="579.978331"/>
     <use style="fill:#0000ff;stroke:#0000ff;" x="294.545455" xlink:href="#m231a9c6545" y="609.84319"/>
     <use style="fill:#0000ff;stroke:#0000ff;" x="318.894545" xlink:href="#m231a9c6545" y="614.148799"/>
     <use style="fill:#0000ff;stroke:#0000ff;" x="343.243636" xlink:href="#m231a9c6545" y="412.843964"/>
     <use style="fill:#0000ff;stroke:#0000ff;" x="367.592727" xlink:href="#m231a9c6545" y="590.78263"/>
     <use style="fill:#0000ff;stroke:#0000ff;" x="391.941818" xlink:href="#m231a9c6545" y="609.335306"/>
     <use style="fill:#0000ff;stroke:#0000ff;" x="416.290909" xlink:href="#m231a9c6545" y="612.4965"/>
     <use style="fill:#0000ff;stroke:#0000ff;" x="440.64" xlink:href="#m231a9c6545" y="613.790361"/>
     <use style="fill:#0000ff;stroke:#0000ff;" x="464.989091" xlink:href="#m231a9c6545" y="614.635553"/>
     <use style="fill:#0000ff;stroke:#0000ff;" x="489.338182" xlink:href="#m231a9c6545" y="428.902927"/>
     <use style="fill:#0000ff;stroke:#0000ff;" x="513.687273" xlink:href="#m231a9c6545" y="591.745863"/>
     <use style="fill:#0000ff;stroke:#0000ff;" x="538.036364" xlink:href="#m231a9c6545" y="609.632684"/>
     <use style="fill:#0000ff;stroke:#0000ff;" x="562.385455" xlink:href="#m231a9c6545" y="612.434374"/>
     <use style="fill:#0000ff;stroke:#0000ff;" x="586.734545" xlink:href="#m231a9c6545" y="433.840834"/>
     <use style="fill:#0000ff;stroke:#0000ff;" x="611.083636" xlink:href="#m231a9c6545" y="589.268273"/>
     <use style="fill:#0000ff;stroke:#0000ff;" x="635.432727" xlink:href="#m231a9c6545" y="607.541694"/>
     <use style="fill:#0000ff;stroke:#0000ff;" x="659.781818" xlink:href="#m231a9c6545" y="610.481962"/>
     <use style="fill:#0000ff;stroke:#0000ff;" x="684.130909" xlink:href="#m231a9c6545" y="574.637158"/>
     <use style="fill:#0000ff;stroke:#0000ff;" x="708.48" xlink:href="#m231a9c6545" y="558.528442"/>
     <use style="fill:#0000ff;stroke:#0000ff;" x="732.829091" xlink:href="#m231a9c6545" y="375.750169"/>
     <use style="fill:#0000ff;stroke:#0000ff;" x="757.178182" xlink:href="#m231a9c6545" y="280.347681"/>
     <use style="fill:#0000ff;stroke:#0000ff;" x="781.527273" xlink:href="#m231a9c6545" y="242.36022"/>
     <use style="fill:#0000ff;stroke:#0000ff;" x="805.876364" xlink:href="#m231a9c6545" y="553.465763"/>
     <use style="fill:#0000ff;stroke:#0000ff;" x="830.225455" xlink:href="#m231a9c6545" y="373.287954"/>
     <use style="fill:#0000ff;stroke:#0000ff;" x="854.574545" xlink:href="#m231a9c6545" y="567.330749"/>
     <use style="fill:#0000ff;stroke:#0000ff;" x="878.923636" xlink:href="#m231a9c6545" y="396.324105"/>
     <use style="fill:#0000ff;stroke:#0000ff;" x="903.272727" xlink:href="#m231a9c6545" y="308.523734"/>
     <use style="fill:#0000ff;stroke:#0000ff;" x="927.621818" xlink:href="#m231a9c6545" y="274.499949"/>
     <use style="fill:#0000ff;stroke:#0000ff;" x="951.970909" xlink:href="#m231a9c6545" y="258.503033"/>
     <use style="fill:#0000ff;stroke:#0000ff;" x="976.32" xlink:href="#m231a9c6545" y="247.861015"/>
     <use style="fill:#0000ff;stroke:#0000ff;" x="1000.669091" xlink:href="#m231a9c6545" y="239.075967"/>
     <use style="fill:#0000ff;stroke:#0000ff;" x="1025.018182" xlink:href="#m231a9c6545" y="231.234607"/>
     <use style="fill:#0000ff;stroke:#0000ff;" x="1049.367273" xlink:href="#m231a9c6545" y="534.576441"/>
     <use style="fill:#0000ff;stroke:#0000ff;" x="1073.716364" xlink:href="#m231a9c6545" y="353.84433"/>
     <use style="fill:#0000ff;stroke:#0000ff;" x="1098.065455" xlink:href="#m231a9c6545" y="551.64518"/>
     <use style="fill:#0000ff;stroke:#0000ff;" x="1122.414545" xlink:href="#m231a9c6545" y="375.123762"/>
     <use style="fill:#0000ff;stroke:#0000ff;" x="1146.763636" xlink:href="#m231a9c6545" y="294.92234"/>
     <use style="fill:#0000ff;stroke:#0000ff;" x="1171.112727" xlink:href="#m231a9c6545" y="266.628501"/>
    </g>
   </g>
   <g id="line2d_48">
    <path clip-path="url(#p8184d77ef7)" d="M 221.498182 441.864 
L 245.847273 578.09723 
L 270.196364 261.496199 
L 294.545455 174.397077 
L 318.894545 147.688863 
L 343.243636 449.783227 
L 367.592727 228.426508 
L 391.941818 173.412025 
L 416.290909 156.77177 
L 440.64 149.362723 
L 464.989091 144.574611 
L 489.338182 434.803101 
L 513.687273 219.70999 
L 538.036364 168.977379 
L 562.385455 155.906963 
L 586.734545 421.872311 
L 611.083636 221.389309 
L 635.432727 174.91233 
L 659.781818 163.344984 
L 684.130909 227.663614 
L 708.48 252.295574 
L 732.829091 472.002316 
L 757.178182 540.467574 
L 781.527273 561.504977 
L 805.876364 269.248512 
L 830.225455 467.013807 
L 854.574545 247.232179 
L 878.923636 442.345358 
L 903.272727 511.977817 
L 927.621818 535.062959 
L 951.970909 544.971158 
L 976.32 551.186585 
L 1000.669091 556.142606 
L 1025.018182 560.465959 
L 1049.367273 293.537443 
L 1073.716364 469.040747 
L 1098.065455 264.962338 
L 1122.414545 448.092738 
L 1146.763636 512.820385 
L 1171.112727 533.576889 
" style="fill:none;stroke:#ff0000;stroke-linecap:square;stroke-width:1.5;"/>
    <defs>
     <path d="M 0 3 
C 0.795609 3 1.55874 2.683901 2.12132 2.12132 
C 2.683901 1.55874 3 0.795609 3 0 
C 3 -0.795609 2.683901 -1.55874 2.12132 -2.12132 
C 1.55874 -2.683901 0.795609 -3 0 -3 
C -0.795609 -3 -1.55874 -2.683901 -2.12132 -2.12132 
C -2.683901 -1.55874 -3 -0.795609 -3 0 
C -3 0.795609 -2.683901 1.55874 -2.12132 2.12132 
C -1.55874 2.683901 -0.795609 3 0 3 
z
" id="m0b63c14bc2" style="stroke:#ff0000;"/>
    </defs>
    <g clip-path="url(#p8184d77ef7)">
     <use style="fill:#ff0000;stroke:#ff0000;" x="221.498182" xlink:href="#m0b63c14bc2" y="441.864"/>
     <use style="fill:#ff0000;stroke:#ff0000;" x="245.847273" xlink:href="#m0b63c14bc2" y="578.09723"/>
     <use style="fill:#ff0000;stroke:#ff0000;" x="270.196364" xlink:href="#m0b63c14bc2" y="261.496199"/>
     <use style="fill:#ff0000;stroke:#ff0000;" x="294.545455" xlink:href="#m0b63c14bc2" y="174.397077"/>
     <use style="fill:#ff0000;stroke:#ff0000;" x="318.894545" xlink:href="#m0b63c14bc2" y="147.688863"/>
     <use style="fill:#ff0000;stroke:#ff0000;" x="343.243636" xlink:href="#m0b63c14bc2" y="449.783227"/>
     <use style="fill:#ff0000;stroke:#ff0000;" x="367.592727" xlink:href="#m0b63c14bc2" y="228.426508"/>
     <use style="fill:#ff0000;stroke:#ff0000;" x="391.941818" xlink:href="#m0b63c14bc2" y="173.412025"/>
     <use style="fill:#ff0000;stroke:#ff0000;" x="416.290909" xlink:href="#m0b63c14bc2" y="156.77177"/>
     <use style="fill:#ff0000;stroke:#ff0000;" x="440.64" xlink:href="#m0b63c14bc2" y="149.362723"/>
     <use style="fill:#ff0000;stroke:#ff0000;" x="464.989091" xlink:href="#m0b63c14bc2" y="144.574611"/>
     <use style="fill:#ff0000;stroke:#ff0000;" x="489.338182" xlink:href="#m0b63c14bc2" y="434.803101"/>
     <use style="fill:#ff0000;stroke:#ff0000;" x="513.687273" xlink:href="#m0b63c14bc2" y="219.70999"/>
     <use style="fill:#ff0000;stroke:#ff0000;" x="538.036364" xlink:href="#m0b63c14bc2" y="168.977379"/>
     <use style="fill:#ff0000;stroke:#ff0000;" x="562.385455" xlink:href="#m0b63c14bc2" y="155.906963"/>
     <use style="fill:#ff0000;stroke:#ff0000;" x="586.734545" xlink:href="#m0b63c14bc2" y="421.872311"/>
     <use style="fill:#ff0000;stroke:#ff0000;" x="611.083636" xlink:href="#m0b63c14bc2" y="221.389309"/>
     <use style="fill:#ff0000;stroke:#ff0000;" x="635.432727" xlink:href="#m0b63c14bc2" y="174.91233"/>
     <use style="fill:#ff0000;stroke:#ff0000;" x="659.781818" xlink:href="#m0b63c14bc2" y="163.344984"/>
     <use style="fill:#ff0000;stroke:#ff0000;" x="684.130909" xlink:href="#m0b63c14bc2" y="227.663614"/>
     <use style="fill:#ff0000;stroke:#ff0000;" x="708.48" xlink:href="#m0b63c14bc2" y="252.295574"/>
     <use style="fill:#ff0000;stroke:#ff0000;" x="732.829091" xlink:href="#m0b63c14bc2" y="472.002316"/>
     <use style="fill:#ff0000;stroke:#ff0000;" x="757.178182" xlink:href="#m0b63c14bc2" y="540.467574"/>
     <use style="fill:#ff0000;stroke:#ff0000;" x="781.527273" xlink:href="#m0b63c14bc2" y="561.504977"/>
     <use style="fill:#ff0000;stroke:#ff0000;" x="805.876364" xlink:href="#m0b63c14bc2" y="269.248512"/>
     <use style="fill:#ff0000;stroke:#ff0000;" x="830.225455" xlink:href="#m0b63c14bc2" y="467.013807"/>
     <use style="fill:#ff0000;stroke:#ff0000;" x="854.574545" xlink:href="#m0b63c14bc2" y="247.232179"/>
     <use style="fill:#ff0000;stroke:#ff0000;" x="878.923636" xlink:href="#m0b63c14bc2" y="442.345358"/>
     <use style="fill:#ff0000;stroke:#ff0000;" x="903.272727" xlink:href="#m0b63c14bc2" y="511.977817"/>
     <use style="fill:#ff0000;stroke:#ff0000;" x="927.621818" xlink:href="#m0b63c14bc2" y="535.062959"/>
     <use style="fill:#ff0000;stroke:#ff0000;" x="951.970909" xlink:href="#m0b63c14bc2" y="544.971158"/>
     <use style="fill:#ff0000;stroke:#ff0000;" x="976.32" xlink:href="#m0b63c14bc2" y="551.186585"/>
     <use style="fill:#ff0000;stroke:#ff0000;" x="1000.669091" xlink:href="#m0b63c14bc2" y="556.142606"/>
     <use style="fill:#ff0000;stroke:#ff0000;" x="1025.018182" xlink:href="#m0b63c14bc2" y="560.465959"/>
     <use style="fill:#ff0000;stroke:#ff0000;" x="1049.367273" xlink:href="#m0b63c14bc2" y="293.537443"/>
     <use style="fill:#ff0000;stroke:#ff0000;" x="1073.716364" xlink:href="#m0b63c14bc2" y="469.040747"/>
     <use style="fill:#ff0000;stroke:#ff0000;" x="1098.065455" xlink:href="#m0b63c14bc2" y="264.962338"/>
     <use style="fill:#ff0000;stroke:#ff0000;" x="1122.414545" xlink:href="#m0b63c14bc2" y="448.092738"/>
     <use style="fill:#ff0000;stroke:#ff0000;" x="1146.763636" xlink:href="#m0b63c14bc2" y="512.820385"/>
     <use style="fill:#ff0000;stroke:#ff0000;" x="1171.112727" xlink:href="#m0b63c14bc2" y="533.576889"/>
    </g>
   </g>
   <g id="line2d_49">
    <path clip-path="url(#p8184d77ef7)" d="M 221.498182 441.864 
L 245.847273 468.217842 
L 270.196364 484.11747 
L 294.545455 541.351733 
L 318.894545 563.754339 
L 343.243636 462.964809 
L 367.592727 506.382862 
L 391.941818 542.844669 
L 416.290909 556.32373 
L 440.64 562.438916 
L 464.989091 566.381836 
L 489.338182 461.885973 
L 513.687273 514.136148 
L 538.036364 546.981937 
L 562.385455 557.250663 
L 586.734545 469.878855 
L 611.083636 514.934418 
L 635.432727 543.137976 
L 659.781818 551.765054 
L 684.130909 523.291228 
L 708.48 514.767984 
L 732.829091 477.839514 
L 757.178182 504.776745 
L 781.527273 521.726803 
L 805.876364 502.877725 
L 830.225455 485.290239 
L 854.574545 511.029072 
L 878.923636 486.922537 
L 903.272727 505.090449 
L 927.621818 516.029092 
L 951.970909 522.117809 
L 976.32 526.5444 
L 1000.669091 530.373427 
L 1025.018182 533.891433 
L 1049.367273 497.478117 
L 1073.716364 502.706923 
L 1098.065455 508.984481 
L 1122.414545 502.3755 
L 1146.763636 517.849275 
L 1171.112727 525.38661 
" style="fill:none;stroke:#808080;stroke-linecap:square;stroke-width:1.5;"/>
    <defs>
     <path d="M 0 3 
C 0.795609 3 1.55874 2.683901 2.12132 2.12132 
C 2.683901 1.55874 3 0.795609 3 0 
C 3 -0.795609 2.683901 -1.55874 2.12132 -2.12132 
C 1.55874 -2.683901 0.795609 -3 0 -3 
C -0.795609 -3 -1.55874 -2.683901 -2.12132 -2.12132 
C -2.683901 -1.55874 -3 -0.795609 -3 0 
C -3 0.795609 -2.683901 1.55874 -2.12132 2.12132 
C -1.55874 2.683901 -0.795609 3 0 3 
z
" id="mb85891be21" style="stroke:#808080;"/>
    </defs>
    <g clip-path="url(#p8184d77ef7)">
     <use style="fill:#808080;stroke:#808080;" x="221.498182" xlink:href="#mb85891be21" y="441.864"/>
     <use style="fill:#808080;stroke:#808080;" x="245.847273" xlink:href="#mb85891be21" y="468.217842"/>
     <use style="fill:#808080;stroke:#808080;" x="270.196364" xlink:href="#mb85891be21" y="484.11747"/>
     <use style="fill:#808080;stroke:#808080;" x="294.545455" xlink:href="#mb85891be21" y="541.351733"/>
     <use style="fill:#808080;stroke:#808080;" x="318.894545" xlink:href="#mb85891be21" y="563.754339"/>
     <use style="fill:#808080;stroke:#808080;" x="343.243636" xlink:href="#mb85891be21" y="462.964809"/>
     <use style="fill:#808080;stroke:#808080;" x="367.592727" xlink:href="#mb85891be21" y="506.382862"/>
     <use style="fill:#808080;stroke:#808080;" x="391.941818" xlink:href="#mb85891be21" y="542.844669"/>
     <use style="fill:#808080;stroke:#808080;" x="416.290909" xlink:href="#mb85891be21" y="556.32373"/>
     <use style="fill:#808080;stroke:#808080;" x="440.64" xlink:href="#mb85891be21" y="562.438916"/>
     <use style="fill:#808080;stroke:#808080;" x="464.989091" xlink:href="#mb85891be21" y="566.381836"/>
     <use style="fill:#808080;stroke:#808080;" x="489.338182" xlink:href="#mb85891be21" y="461.885973"/>
     <use style="fill:#808080;stroke:#808080;" x="513.687273" xlink:href="#mb85891be21" y="514.136148"/>
     <use style="fill:#808080;stroke:#808080;" x="538.036364" xlink:href="#mb85891be21" y="546.981937"/>
     <use style="fill:#808080;stroke:#808080;" x="562.385455" xlink:href="#mb85891be21" y="557.250663"/>
     <use style="fill:#808080;stroke:#808080;" x="586.734545" xlink:href="#mb85891be21" y="469.878855"/>
     <use style="fill:#808080;stroke:#808080;" x="611.083636" xlink:href="#mb85891be21" y="514.934418"/>
     <use style="fill:#808080;stroke:#808080;" x="635.432727" xlink:href="#mb85891be21" y="543.137976"/>
     <use style="fill:#808080;stroke:#808080;" x="659.781818" xlink:href="#mb85891be21" y="551.765054"/>
     <use style="fill:#808080;stroke:#808080;" x="684.130909" xlink:href="#mb85891be21" y="523.291228"/>
     <use style="fill:#808080;stroke:#808080;" x="708.48" xlink:href="#mb85891be21" y="514.767984"/>
     <use style="fill:#808080;stroke:#808080;" x="732.829091" xlink:href="#mb85891be21" y="477.839514"/>
     <use style="fill:#808080;stroke:#808080;" x="757.178182" xlink:href="#mb85891be21" y="504.776745"/>
     <use style="fill:#808080;stroke:#808080;" x="781.527273" xlink:href="#mb85891be21" y="521.726803"/>
     <use style="fill:#808080;stroke:#808080;" x="805.876364" xlink:href="#mb85891be21" y="502.877725"/>
     <use style="fill:#808080;stroke:#808080;" x="830.225455" xlink:href="#mb85891be21" y="485.290239"/>
     <use style="fill:#808080;stroke:#808080;" x="854.574545" xlink:href="#mb85891be21" y="511.029072"/>
     <use style="fill:#808080;stroke:#808080;" x="878.923636" xlink:href="#mb85891be21" y="486.922537"/>
     <use style="fill:#808080;stroke:#808080;" x="903.272727" xlink:href="#mb85891be21" y="505.090449"/>
     <use style="fill:#808080;stroke:#808080;" x="927.621818" xlink:href="#mb85891be21" y="516.029092"/>
     <use style="fill:#808080;stroke:#808080;" x="951.970909" xlink:href="#mb85891be21" y="522.117809"/>
     <use style="fill:#808080;stroke:#808080;" x="976.32" xlink:href="#mb85891be21" y="526.5444"/>
     <use style="fill:#808080;stroke:#808080;" x="1000.669091" xlink:href="#mb85891be21" y="530.373427"/>
     <use style="fill:#808080;stroke:#808080;" x="1025.018182" xlink:href="#mb85891be21" y="533.891433"/>
     <use style="fill:#808080;stroke:#808080;" x="1049.367273" xlink:href="#mb85891be21" y="497.478117"/>
     <use style="fill:#808080;stroke:#808080;" x="1073.716364" xlink:href="#mb85891be21" y="502.706923"/>
     <use style="fill:#808080;stroke:#808080;" x="1098.065455" xlink:href="#mb85891be21" y="508.984481"/>
     <use style="fill:#808080;stroke:#808080;" x="1122.414545" xlink:href="#mb85891be21" y="502.3755"/>
     <use style="fill:#808080;stroke:#808080;" x="1146.763636" xlink:href="#mb85891be21" y="517.849275"/>
     <use style="fill:#808080;stroke:#808080;" x="1171.112727" xlink:href="#mb85891be21" y="525.38661"/>
    </g>
   </g>
   <g id="patch_5">
    <path d="M 172.8 620.9352 
L 172.8 83.7216 
" style="fill:none;stroke:#000000;stroke-linecap:square;stroke-linejoin:miter;stroke-width:0.8;"/>
   </g>
   <g id="patch_6">
    <path d="M 1244.16 620.9352 
L 1244.16 83.7216 
" style="fill:none;stroke:#000000;stroke-linecap:square;stroke-linejoin:miter;stroke-width:0.8;"/>
   </g>
   <g id="patch_7">
    <path d="M 172.8 620.9352 
L 1244.16 620.9352 
" style="fill:none;stroke:#000000;stroke-linecap:square;stroke-linejoin:miter;stroke-width:0.8;"/>
   </g>
   <g id="patch_8">
    <path d="M 172.8 83.7216 
L 1244.16 83.7216 
" style="fill:none;stroke:#000000;stroke-linecap:square;stroke-linejoin:miter;stroke-width:0.8;"/>
   </g>
   <g id="text_49">
    <!-- biased_B -->
    <g transform="translate(652.446797 77.7216)scale(0.25 -0.25)">
     <defs>
      <path d="M 3116 1747 
Q 3116 2381 2855 2742 
Q 2594 3103 2138 3103 
Q 1681 3103 1420 2742 
Q 1159 2381 1159 1747 
Q 1159 1113 1420 752 
Q 1681 391 2138 391 
Q 2594 391 2855 752 
Q 3116 1113 3116 1747 
z
M 1159 2969 
Q 1341 3281 1617 3432 
Q 1894 3584 2278 3584 
Q 2916 3584 3314 3078 
Q 3713 2572 3713 1747 
Q 3713 922 3314 415 
Q 2916 -91 2278 -91 
Q 1894 -91 1617 61 
Q 1341 213 1159 525 
L 1159 0 
L 581 0 
L 581 4863 
L 1159 4863 
L 1159 2969 
z
" id="DejaVuSans-62" transform="scale(0.015625)"/>
      <path d="M 603 3500 
L 1178 3500 
L 1178 0 
L 603 0 
L 603 3500 
z
M 603 4863 
L 1178 4863 
L 1178 4134 
L 603 4134 
L 603 4863 
z
" id="DejaVuSans-69" transform="scale(0.015625)"/>
      <path d="M 2194 1759 
Q 1497 1759 1228 1600 
Q 959 1441 959 1056 
Q 959 750 1161 570 
Q 1363 391 1709 391 
Q 2188 391 2477 730 
Q 2766 1069 2766 1631 
L 2766 1759 
L 2194 1759 
z
M 3341 1997 
L 3341 0 
L 2766 0 
L 2766 531 
Q 2569 213 2275 61 
Q 1981 -91 1556 -91 
Q 1019 -91 701 211 
Q 384 513 384 1019 
Q 384 1609 779 1909 
Q 1175 2209 1959 2209 
L 2766 2209 
L 2766 2266 
Q 2766 2663 2505 2880 
Q 2244 3097 1772 3097 
Q 1472 3097 1187 3025 
Q 903 2953 641 2809 
L 641 3341 
Q 956 3463 1253 3523 
Q 1550 3584 1831 3584 
Q 2591 3584 2966 3190 
Q 3341 2797 3341 1997 
z
" id="DejaVuSans-61" transform="scale(0.015625)"/>
      <path d="M 2834 3397 
L 2834 2853 
Q 2591 2978 2328 3040 
Q 2066 3103 1784 3103 
Q 1356 3103 1142 2972 
Q 928 2841 928 2578 
Q 928 2378 1081 2264 
Q 1234 2150 1697 2047 
L 1894 2003 
Q 2506 1872 2764 1633 
Q 3022 1394 3022 966 
Q 3022 478 2636 193 
Q 2250 -91 1575 -91 
Q 1294 -91 989 -36 
Q 684 19 347 128 
L 347 722 
Q 666 556 975 473 
Q 1284 391 1588 391 
Q 1994 391 2212 530 
Q 2431 669 2431 922 
Q 2431 1156 2273 1281 
Q 2116 1406 1581 1522 
L 1381 1569 
Q 847 1681 609 1914 
Q 372 2147 372 2553 
Q 372 3047 722 3315 
Q 1072 3584 1716 3584 
Q 2034 3584 2315 3537 
Q 2597 3491 2834 3397 
z
" id="DejaVuSans-73" transform="scale(0.015625)"/>
      <path d="M 3597 1894 
L 3597 1613 
L 953 1613 
Q 991 1019 1311 708 
Q 1631 397 2203 397 
Q 2534 397 2845 478 
Q 3156 559 3463 722 
L 3463 178 
Q 3153 47 2828 -22 
Q 2503 -91 2169 -91 
Q 1331 -91 842 396 
Q 353 884 353 1716 
Q 353 2575 817 3079 
Q 1281 3584 2069 3584 
Q 2775 3584 3186 3129 
Q 3597 2675 3597 1894 
z
M 3022 2063 
Q 3016 2534 2758 2815 
Q 2500 3097 2075 3097 
Q 1594 3097 1305 2825 
Q 1016 2553 972 2059 
L 3022 2063 
z
" id="DejaVuSans-65" transform="scale(0.015625)"/>
      <path d="M 2906 2969 
L 2906 4863 
L 3481 4863 
L 3481 0 
L 2906 0 
L 2906 525 
Q 2725 213 2448 61 
Q 2172 -91 1784 -91 
Q 1150 -91 751 415 
Q 353 922 353 1747 
Q 353 2572 751 3078 
Q 1150 3584 1784 3584 
Q 2172 3584 2448 3432 
Q 2725 3281 2906 2969 
z
M 947 1747 
Q 947 1113 1208 752 
Q 1469 391 1925 391 
Q 2381 391 2643 752 
Q 2906 1113 2906 1747 
Q 2906 2381 2643 2742 
Q 2381 3103 1925 3103 
Q 1469 3103 1208 2742 
Q 947 2381 947 1747 
z
" id="DejaVuSans-64" transform="scale(0.015625)"/>
      <path d="M 3263 -1063 
L 3263 -1509 
L -63 -1509 
L -63 -1063 
L 3263 -1063 
z
" id="DejaVuSans-5f" transform="scale(0.015625)"/>
      <path d="M 1259 2228 
L 1259 519 
L 2272 519 
Q 2781 519 3026 730 
Q 3272 941 3272 1375 
Q 3272 1813 3026 2020 
Q 2781 2228 2272 2228 
L 1259 2228 
z
M 1259 4147 
L 1259 2741 
L 2194 2741 
Q 2656 2741 2882 2914 
Q 3109 3088 3109 3444 
Q 3109 3797 2882 3972 
Q 2656 4147 2194 4147 
L 1259 4147 
z
M 628 4666 
L 2241 4666 
Q 2963 4666 3353 4366 
Q 3744 4066 3744 3513 
Q 3744 3084 3544 2831 
Q 3344 2578 2956 2516 
Q 3422 2416 3680 2098 
Q 3938 1781 3938 1306 
Q 3938 681 3513 340 
Q 3088 0 2303 0 
L 628 0 
L 628 4666 
z
" id="DejaVuSans-42" transform="scale(0.015625)"/>
     </defs>
     <use xlink:href="#DejaVuSans-62"/>
     <use x="63.476562" xlink:href="#DejaVuSans-69"/>
     <use x="91.259766" xlink:href="#DejaVuSans-61"/>
     <use x="152.539062" xlink:href="#DejaVuSans-73"/>
     <use x="204.638672" xlink:href="#DejaVuSans-65"/>
     <use x="266.162109" xlink:href="#DejaVuSans-64"/>
     <use x="329.638672" xlink:href="#DejaVuSans-5f"/>
     <use x="379.638672" xlink:href="#DejaVuSans-42"/>
    </g>
   </g>
   <g id="legend_1">
    <g id="patch_9">
     <path d="M 1145.913125 150.4341 
L 1237.16 150.4341 
Q 1239.16 150.4341 1239.16 148.4341 
L 1239.16 90.7216 
Q 1239.16 88.7216 1237.16 88.7216 
L 1145.913125 88.7216 
Q 1143.913125 88.7216 1143.913125 90.7216 
L 1143.913125 148.4341 
Q 1143.913125 150.4341 1145.913125 150.4341 
z
" style="fill:#ffffff;opacity:0.8;stroke:#cccccc;stroke-linejoin:miter;"/>
    </g>
    <g id="line2d_50">
     <path d="M 1147.913125 96.820037 
L 1167.913125 96.820037 
" style="fill:none;stroke:#0000ff;stroke-linecap:square;stroke-width:1.5;"/>
    </g>
    <g id="line2d_51">
     <g>
      <use style="fill:#0000ff;stroke:#0000ff;" x="1157.913125" xlink:href="#m231a9c6545" y="96.820037"/>
     </g>
    </g>
    <g id="text_50">
     <!-- cooperative -->
     <g transform="translate(1175.913125 100.320037)scale(0.1 -0.1)">
      <defs>
       <path d="M 3122 3366 
L 3122 2828 
Q 2878 2963 2633 3030 
Q 2388 3097 2138 3097 
Q 1578 3097 1268 2742 
Q 959 2388 959 1747 
Q 959 1106 1268 751 
Q 1578 397 2138 397 
Q 2388 397 2633 464 
Q 2878 531 3122 666 
L 3122 134 
Q 2881 22 2623 -34 
Q 2366 -91 2075 -91 
Q 1284 -91 818 406 
Q 353 903 353 1747 
Q 353 2603 823 3093 
Q 1294 3584 2113 3584 
Q 2378 3584 2631 3529 
Q 2884 3475 3122 3366 
z
" id="DejaVuSans-63" transform="scale(0.015625)"/>
       <path d="M 1959 3097 
Q 1497 3097 1228 2736 
Q 959 2375 959 1747 
Q 959 1119 1226 758 
Q 1494 397 1959 397 
Q 2419 397 2687 759 
Q 2956 1122 2956 1747 
Q 2956 2369 2687 2733 
Q 2419 3097 1959 3097 
z
M 1959 3584 
Q 2709 3584 3137 3096 
Q 3566 2609 3566 1747 
Q 3566 888 3137 398 
Q 2709 -91 1959 -91 
Q 1206 -91 779 398 
Q 353 888 353 1747 
Q 353 2609 779 3096 
Q 1206 3584 1959 3584 
z
" id="DejaVuSans-6f" transform="scale(0.015625)"/>
       <path d="M 1159 525 
L 1159 -1331 
L 581 -1331 
L 581 3500 
L 1159 3500 
L 1159 2969 
Q 1341 3281 1617 3432 
Q 1894 3584 2278 3584 
Q 2916 3584 3314 3078 
Q 3713 2572 3713 1747 
Q 3713 922 3314 415 
Q 2916 -91 2278 -91 
Q 1894 -91 1617 61 
Q 1341 213 1159 525 
z
M 3116 1747 
Q 3116 2381 2855 2742 
Q 2594 3103 2138 3103 
Q 1681 3103 1420 2742 
Q 1159 2381 1159 1747 
Q 1159 1113 1420 752 
Q 1681 391 2138 391 
Q 2594 391 2855 752 
Q 3116 1113 3116 1747 
z
" id="DejaVuSans-70" transform="scale(0.015625)"/>
       <path d="M 2631 2963 
Q 2534 3019 2420 3045 
Q 2306 3072 2169 3072 
Q 1681 3072 1420 2755 
Q 1159 2438 1159 1844 
L 1159 0 
L 581 0 
L 581 3500 
L 1159 3500 
L 1159 2956 
Q 1341 3275 1631 3429 
Q 1922 3584 2338 3584 
Q 2397 3584 2469 3576 
Q 2541 3569 2628 3553 
L 2631 2963 
z
" id="DejaVuSans-72" transform="scale(0.015625)"/>
       <path d="M 1172 4494 
L 1172 3500 
L 2356 3500 
L 2356 3053 
L 1172 3053 
L 1172 1153 
Q 1172 725 1289 603 
Q 1406 481 1766 481 
L 2356 481 
L 2356 0 
L 1766 0 
Q 1100 0 847 248 
Q 594 497 594 1153 
L 594 3053 
L 172 3053 
L 172 3500 
L 594 3500 
L 594 4494 
L 1172 4494 
z
" id="DejaVuSans-74" transform="scale(0.015625)"/>
       <path d="M 191 3500 
L 800 3500 
L 1894 563 
L 2988 3500 
L 3597 3500 
L 2284 0 
L 1503 0 
L 191 3500 
z
" id="DejaVuSans-76" transform="scale(0.015625)"/>
      </defs>
      <use xlink:href="#DejaVuSans-63"/>
      <use x="54.980469" xlink:href="#DejaVuSans-6f"/>
      <use x="116.162109" xlink:href="#DejaVuSans-6f"/>
      <use x="177.34375" xlink:href="#DejaVuSans-70"/>
      <use x="240.820312" xlink:href="#DejaVuSans-65"/>
      <use x="302.34375" xlink:href="#DejaVuSans-72"/>
      <use x="343.457031" xlink:href="#DejaVuSans-61"/>
      <use x="404.736328" xlink:href="#DejaVuSans-74"/>
      <use x="443.945312" xlink:href="#DejaVuSans-69"/>
      <use x="471.728516" xlink:href="#DejaVuSans-76"/>
      <use x="530.908203" xlink:href="#DejaVuSans-65"/>
     </g>
    </g>
    <g id="line2d_52">
     <path d="M 1147.913125 111.498162 
L 1167.913125 111.498162 
" style="fill:none;stroke:#ff0000;stroke-linecap:square;stroke-width:1.5;"/>
    </g>
    <g id="line2d_53">
     <g>
      <use style="fill:#ff0000;stroke:#ff0000;" x="1157.913125" xlink:href="#m0b63c14bc2" y="111.498162"/>
     </g>
    </g>
    <g id="text_51">
     <!-- hostile -->
     <g transform="translate(1175.913125 114.998162)scale(0.1 -0.1)">
      <defs>
       <path d="M 3513 2113 
L 3513 0 
L 2938 0 
L 2938 2094 
Q 2938 2591 2744 2837 
Q 2550 3084 2163 3084 
Q 1697 3084 1428 2787 
Q 1159 2491 1159 1978 
L 1159 0 
L 581 0 
L 581 4863 
L 1159 4863 
L 1159 2956 
Q 1366 3272 1645 3428 
Q 1925 3584 2291 3584 
Q 2894 3584 3203 3211 
Q 3513 2838 3513 2113 
z
" id="DejaVuSans-68" transform="scale(0.015625)"/>
       <path d="M 603 4863 
L 1178 4863 
L 1178 0 
L 603 0 
L 603 4863 
z
" id="DejaVuSans-6c" transform="scale(0.015625)"/>
      </defs>
      <use xlink:href="#DejaVuSans-68"/>
      <use x="63.378906" xlink:href="#DejaVuSans-6f"/>
      <use x="124.560547" xlink:href="#DejaVuSans-73"/>
      <use x="176.660156" xlink:href="#DejaVuSans-74"/>
      <use x="215.869141" xlink:href="#DejaVuSans-69"/>
      <use x="243.652344" xlink:href="#DejaVuSans-6c"/>
      <use x="271.435547" xlink:href="#DejaVuSans-65"/>
     </g>
    </g>
    <g id="line2d_54">
     <path d="M 1147.913125 126.176287 
L 1167.913125 126.176287 
" style="fill:none;stroke:#808080;stroke-linecap:square;stroke-width:1.5;"/>
    </g>
    <g id="line2d_55">
     <g>
      <use style="fill:#808080;stroke:#808080;" x="1157.913125" xlink:href="#mb85891be21" y="126.176287"/>
     </g>
    </g>
    <g id="text_52">
     <!-- random -->
     <g transform="translate(1175.913125 129.676287)scale(0.1 -0.1)">
      <defs>
       <path d="M 3513 2113 
L 3513 0 
L 2938 0 
L 2938 2094 
Q 2938 2591 2744 2837 
Q 2550 3084 2163 3084 
Q 1697 3084 1428 2787 
Q 1159 2491 1159 1978 
L 1159 0 
L 581 0 
L 581 3500 
L 1159 3500 
L 1159 2956 
Q 1366 3272 1645 3428 
Q 1925 3584 2291 3584 
Q 2894 3584 3203 3211 
Q 3513 2838 3513 2113 
z
" id="DejaVuSans-6e" transform="scale(0.015625)"/>
       <path d="M 3328 2828 
Q 3544 3216 3844 3400 
Q 4144 3584 4550 3584 
Q 5097 3584 5394 3201 
Q 5691 2819 5691 2113 
L 5691 0 
L 5113 0 
L 5113 2094 
Q 5113 2597 4934 2840 
Q 4756 3084 4391 3084 
Q 3944 3084 3684 2787 
Q 3425 2491 3425 1978 
L 3425 0 
L 2847 0 
L 2847 2094 
Q 2847 2600 2669 2842 
Q 2491 3084 2119 3084 
Q 1678 3084 1418 2786 
Q 1159 2488 1159 1978 
L 1159 0 
L 581 0 
L 581 3500 
L 1159 3500 
L 1159 2956 
Q 1356 3278 1631 3431 
Q 1906 3584 2284 3584 
Q 2666 3584 2933 3390 
Q 3200 3197 3328 2828 
z
" id="DejaVuSans-6d" transform="scale(0.015625)"/>
      </defs>
      <use xlink:href="#DejaVuSans-72"/>
      <use x="41.113281" xlink:href="#DejaVuSans-61"/>
      <use x="102.392578" xlink:href="#DejaVuSans-6e"/>
      <use x="165.771484" xlink:href="#DejaVuSans-64"/>
      <use x="229.248047" xlink:href="#DejaVuSans-6f"/>
      <use x="290.429688" xlink:href="#DejaVuSans-6d"/>
     </g>
    </g>
    <g id="PathCollection_2">
     <path d="M 1157.913125 135.605688 
L 1151.789401 147.853137 
L 1164.036849 147.853137 
z
" style="fill:#0000ff;stroke:#0000ff;"/>
    </g>
    <g id="text_53">
     <!-- action -->
     <g transform="translate(1175.913125 144.354412)scale(0.1 -0.1)">
      <use xlink:href="#DejaVuSans-61"/>
      <use x="61.279297" xlink:href="#DejaVuSans-63"/>
      <use x="116.259766" xlink:href="#DejaVuSans-74"/>
      <use x="155.46875" xlink:href="#DejaVuSans-69"/>
      <use x="183.251953" xlink:href="#DejaVuSans-6f"/>
      <use x="244.433594" xlink:href="#DejaVuSans-6e"/>
     </g>
    </g>
   </g>
  </g>
 </g>
 <defs>
  <clipPath id="p8184d77ef7">
   <rect height="537.2136" width="1071.36" x="172.8" y="83.7216"/>
  </clipPath>
 </defs>
</svg>
