<?xml version="1.0" encoding="utf-8" standalone="no"?>
<!DOCTYPE svg PUBLIC "-//W3C//DTD SVG 1.1//EN"
  "http://www.w3.org/Graphics/SVG/1.1/DTD/svg11.dtd">
<svg height="697.68pt" version="1.1" viewBox="0 0 1382.4 697.68" width="1382.4pt" xmlns="http://www.w3.org/2000/svg" xmlns:xlink="http://www.w3.org/1999/xlink">
 <metadata>
  <rdf:RDF xmlns:cc="http://creativecommons.org/ns#" xmlns:dc="http://purl.org/dc/elements/1.1/" xmlns:rdf="http://www.w3.org/1999/02/22-rdf-syntax-ns#">
   <cc:Work>
    <dc:type rdf:resource="http://purl.org/dc/dcmitype/StillImage"/>
    <dc:date>2023-09-20T12:13:01.109312</dc:date>
    <dc:format>image/svg+xml</dc:format>
    <dc:creator>
     <cc:Agent>
      <dc:title>Matplotlib v3.4.3, https://matplotlib.org/</dc:title>
     </cc:Agent>
    </dc:creator>
   </cc:Work>
  </rdf:RDF>
 </metadata>
 <defs>
  <style type="text/css">*{stroke-linecap:butt;stroke-linejoin:round;}</style>
 </defs>
 <g id="figure_1">
  <g id="patch_1">
   <path d="M 0 697.68 
L 1382.4 697.68 
L 1382.4 0 
L 0 0 
z
" style="fill:#ffffff;"/>
  </g>
  <g id="axes_1">
   <g id="patch_2">
    <path d="M 172.8 620.9352 
L 1244.16 620.9352 
L 1244.16 83.7216 
L 172.8 83.7216 
z
" style="fill:#ffffff;"/>
   </g>
   <g id="PathCollection_1">
    <path clip-path="url(#p914a349326)" d="M 233.672727 310.193204 
L 239.796452 297.945755 
L 227.549003 297.945755 
z
" style="fill:#ff0000;stroke:#ff0000;"/>
    <path clip-path="url(#p914a349326)" d="M 258.021818 346.383525 
L 251.898094 358.630974 
L 264.145543 358.630974 
z
" style="fill:#0000ff;stroke:#0000ff;"/>
    <path clip-path="url(#p914a349326)" d="M 282.370909 382.023524 
L 288.494633 369.776075 
L 276.247185 369.776075 
z
" style="fill:#ff0000;stroke:#ff0000;"/>
    <path clip-path="url(#p914a349326)" d="M 306.72 192.692853 
L 312.843724 180.445404 
L 300.596276 180.445404 
z
" style="fill:#ff0000;stroke:#ff0000;"/>
    <path clip-path="url(#p914a349326)" d="M 331.069091 147.502855 
L 337.192815 135.255406 
L 324.945367 135.255406 
z
" style="fill:#ff0000;stroke:#ff0000;"/>
    <path clip-path="url(#p914a349326)" d="M 355.418182 132.93344 
L 361.541906 120.685991 
L 349.294457 120.685991 
z
" style="fill:#ff0000;stroke:#ff0000;"/>
    <path clip-path="url(#p914a349326)" d="M 379.767273 124.983133 
L 385.890997 112.735684 
L 373.643548 112.735684 
z
" style="fill:#ff0000;stroke:#ff0000;"/>
    <path clip-path="url(#p914a349326)" d="M 404.116364 119.622891 
L 410.240088 107.375442 
L 397.992639 107.375442 
z
" style="fill:#ff0000;stroke:#ff0000;"/>
    <path clip-path="url(#p914a349326)" d="M 428.465455 115.710517 
L 434.589179 103.463068 
L 422.34173 103.463068 
z
" style="fill:#ff0000;stroke:#ff0000;"/>
    <path clip-path="url(#p914a349326)" d="M 452.814545 261.707892 
L 446.690821 273.955341 
L 458.93827 273.955341 
z
" style="fill:#0000ff;stroke:#0000ff;"/>
    <path clip-path="url(#p914a349326)" d="M 477.163636 301.609351 
L 483.287361 289.361902 
L 471.039912 289.361902 
z
" style="fill:#ff0000;stroke:#ff0000;"/>
    <path clip-path="url(#p914a349326)" d="M 501.512727 147.113772 
L 507.636452 134.866323 
L 495.389003 134.866323 
z
" style="fill:#ff0000;stroke:#ff0000;"/>
    <path clip-path="url(#p914a349326)" d="M 525.861818 121.324174 
L 531.985543 109.076726 
L 519.738094 109.076726 
z
" style="fill:#ff0000;stroke:#ff0000;"/>
    <path clip-path="url(#p914a349326)" d="M 550.210909 116.448119 
L 556.334633 104.20067 
L 544.087185 104.20067 
z
" style="fill:#ff0000;stroke:#ff0000;"/>
    <path clip-path="url(#p914a349326)" d="M 574.56 114.194414 
L 580.683724 101.946965 
L 568.436276 101.946965 
z
" style="fill:#ff0000;stroke:#ff0000;"/>
    <path clip-path="url(#p914a349326)" d="M 595.847229 142.759707 
L 598.909091 139.697845 
L 601.970953 142.759707 
L 605.032815 139.697845 
L 601.970953 136.635983 
L 605.032815 133.574121 
L 601.970953 130.512258 
L 598.909091 133.574121 
L 595.847229 130.512258 
L 592.785367 133.574121 
L 595.847229 136.635983 
L 592.785367 139.697845 
z
" style="stroke:#000000;"/>
    <path clip-path="url(#p914a349326)" d="M 623.258182 145.156738 
L 629.381906 132.90929 
L 617.134457 132.90929 
z
" style="fill:#ff0000;stroke:#ff0000;"/>
    <path clip-path="url(#p914a349326)" d="M 644.545411 144.735455 
L 647.607273 141.673593 
L 650.669135 144.735455 
L 653.730997 141.673593 
L 650.669135 138.61173 
L 653.730997 135.549868 
L 650.669135 132.488006 
L 647.607273 135.549868 
L 644.545411 132.488006 
L 641.483548 135.549868 
L 644.545411 138.61173 
L 641.483548 141.673593 
z
" style="stroke:#000000;"/>
    <path clip-path="url(#p914a349326)" d="M 671.956364 144.18127 
L 678.080088 131.933821 
L 665.832639 131.933821 
z
" style="fill:#ff0000;stroke:#ff0000;"/>
    <path clip-path="url(#p914a349326)" d="M 693.243592 142.772757 
L 696.305455 139.710894 
L 699.367317 142.772757 
L 702.429179 139.710894 
L 699.367317 136.649032 
L 702.429179 133.58717 
L 699.367317 130.525308 
L 696.305455 133.58717 
L 693.243592 130.525308 
L 690.18173 133.58717 
L 693.243592 136.649032 
L 690.18173 139.710894 
z
" style="stroke:#000000;"/>
    <path clip-path="url(#p914a349326)" d="M 720.654545 313.997306 
L 714.530821 326.244755 
L 726.77827 326.244755 
z
" style="fill:#0000ff;stroke:#0000ff;"/>
    <path clip-path="url(#p914a349326)" d="M 745.003636 519.023063 
L 738.879912 531.270512 
L 751.127361 531.270512 
z
" style="fill:#0000ff;stroke:#0000ff;"/>
    <path clip-path="url(#p914a349326)" d="M 769.352727 576.675704 
L 763.229003 588.923152 
L 775.476452 588.923152 
z
" style="fill:#0000ff;stroke:#0000ff;"/>
    <path clip-path="url(#p914a349326)" d="M 793.701818 590.626717 
L 787.578094 602.874166 
L 799.825543 602.874166 
z
" style="fill:#0000ff;stroke:#0000ff;"/>
    <path clip-path="url(#p914a349326)" d="M 818.050909 596.421384 
L 811.927185 608.668833 
L 824.174633 608.668833 
z
" style="fill:#0000ff;stroke:#0000ff;"/>
    <path clip-path="url(#p914a349326)" d="M 842.4 599.964954 
L 836.276276 612.212402 
L 848.523724 612.212402 
z
" style="fill:#0000ff;stroke:#0000ff;"/>
    <path clip-path="url(#p914a349326)" d="M 866.749091 602.440881 
L 860.625367 614.688329 
L 872.872815 614.688329 
z
" style="fill:#0000ff;stroke:#0000ff;"/>
    <path clip-path="url(#p914a349326)" d="M 891.098182 604.267095 
L 884.974457 616.514544 
L 897.221906 616.514544 
z
" style="fill:#0000ff;stroke:#0000ff;"/>
    <path clip-path="url(#p914a349326)" d="M 915.447273 605.661247 
L 909.323548 617.908696 
L 921.570997 617.908696 
z
" style="fill:#0000ff;stroke:#0000ff;"/>
    <path clip-path="url(#p914a349326)" d="M 939.796364 443.266063 
L 945.920088 431.018615 
L 933.672639 431.018615 
z
" style="fill:#ff0000;stroke:#ff0000;"/>
    <path clip-path="url(#p914a349326)" d="M 964.145455 394.962625 
L 958.02173 407.210073 
L 970.269179 407.210073 
z
" style="fill:#0000ff;stroke:#0000ff;"/>
    <path clip-path="url(#p914a349326)" d="M 988.494545 564.671298 
L 982.370821 576.918747 
L 994.61827 576.918747 
z
" style="fill:#0000ff;stroke:#0000ff;"/>
    <path clip-path="url(#p914a349326)" d="M 1012.843636 599.183511 
L 1006.719912 611.43096 
L 1018.967361 611.43096 
z
" style="fill:#0000ff;stroke:#0000ff;"/>
    <path clip-path="url(#p914a349326)" d="M 1037.192727 604.014097 
L 1031.069003 616.261546 
L 1043.316452 616.261546 
z
" style="fill:#0000ff;stroke:#0000ff;"/>
    <path clip-path="url(#p914a349326)" d="M 1061.541818 605.289718 
L 1055.418094 617.537166 
L 1067.665543 617.537166 
z
" style="fill:#0000ff;stroke:#0000ff;"/>
    <path clip-path="url(#p914a349326)" d="M 1085.890909 606.088983 
L 1079.767185 618.336431 
L 1092.014633 618.336431 
z
" style="fill:#0000ff;stroke:#0000ff;"/>
    <path clip-path="url(#p914a349326)" d="M 1110.24 606.748256 
L 1104.116276 618.995704 
L 1116.363724 618.995704 
z
" style="fill:#0000ff;stroke:#0000ff;"/>
    <path clip-path="url(#p914a349326)" d="M 1134.589091 607.317834 
L 1128.465367 619.565283 
L 1140.712815 619.565283 
z
" style="fill:#0000ff;stroke:#0000ff;"/>
    <path clip-path="url(#p914a349326)" d="M 1158.938182 607.815955 
L 1152.814457 620.063404 
L 1165.061906 620.063404 
z
" style="fill:#0000ff;stroke:#0000ff;"/>
    <path clip-path="url(#p914a349326)" d="M 1183.287273 346.204676 
L 1177.163548 358.452124 
L 1189.410997 358.452124 
z
" style="fill:#0000ff;stroke:#0000ff;"/>
   </g>
   <g id="patch_3">
    <path clip-path="url(#p914a349326)" d="M 221.498182 620.9352 
L 221.498182 83.7216 
L 708.48 83.7216 
L 708.48 620.9352 
z
" style="fill:#ff7f50;opacity:0.3;"/>
   </g>
   <g id="patch_4">
    <path clip-path="url(#p914a349326)" d="M 708.48 620.9352 
L 708.48 83.7216 
L 1195.461818 83.7216 
L 1195.461818 620.9352 
z
" style="fill:#b0e0e6;opacity:0.3;"/>
   </g>
   <g id="matplotlib.axis_1">
    <g id="xtick_1">
     <g id="line2d_1">
      <defs>
       <path d="M 0 0 
L 0 3.5 
" id="m7e69059349" style="stroke:#000000;stroke-width:0.8;"/>
      </defs>
      <g>
       <use style="stroke:#000000;stroke-width:0.8;" x="221.498182" xlink:href="#m7e69059349" y="620.9352"/>
      </g>
     </g>
     <g id="text_1">
      <!-- 0 -->
      <g transform="translate(216.726307 639.332856)scale(0.15 -0.15)">
       <defs>
        <path d="M 2034 4250 
Q 1547 4250 1301 3770 
Q 1056 3291 1056 2328 
Q 1056 1369 1301 889 
Q 1547 409 2034 409 
Q 2525 409 2770 889 
Q 3016 1369 3016 2328 
Q 3016 3291 2770 3770 
Q 2525 4250 2034 4250 
z
M 2034 4750 
Q 2819 4750 3233 4129 
Q 3647 3509 3647 2328 
Q 3647 1150 3233 529 
Q 2819 -91 2034 -91 
Q 1250 -91 836 529 
Q 422 1150 422 2328 
Q 422 3509 836 4129 
Q 1250 4750 2034 4750 
z
" id="DejaVuSans-30" transform="scale(0.015625)"/>
       </defs>
       <use xlink:href="#DejaVuSans-30"/>
      </g>
     </g>
    </g>
    <g id="xtick_2">
     <g id="line2d_2">
      <g>
       <use style="stroke:#000000;stroke-width:0.8;" x="245.847273" xlink:href="#m7e69059349" y="620.9352"/>
      </g>
     </g>
     <g id="text_2">
      <!-- 1 -->
      <g transform="translate(241.075398 639.332856)scale(0.15 -0.15)">
       <defs>
        <path d="M 794 531 
L 1825 531 
L 1825 4091 
L 703 3866 
L 703 4441 
L 1819 4666 
L 2450 4666 
L 2450 531 
L 3481 531 
L 3481 0 
L 794 0 
L 794 531 
z
" id="DejaVuSans-31" transform="scale(0.015625)"/>
       </defs>
       <use xlink:href="#DejaVuSans-31"/>
      </g>
     </g>
    </g>
    <g id="xtick_3">
     <g id="line2d_3">
      <g>
       <use style="stroke:#000000;stroke-width:0.8;" x="270.196364" xlink:href="#m7e69059349" y="620.9352"/>
      </g>
     </g>
     <g id="text_3">
      <!-- 2 -->
      <g transform="translate(265.424489 639.332856)scale(0.15 -0.15)">
       <defs>
        <path d="M 1228 531 
L 3431 531 
L 3431 0 
L 469 0 
L 469 531 
Q 828 903 1448 1529 
Q 2069 2156 2228 2338 
Q 2531 2678 2651 2914 
Q 2772 3150 2772 3378 
Q 2772 3750 2511 3984 
Q 2250 4219 1831 4219 
Q 1534 4219 1204 4116 
Q 875 4013 500 3803 
L 500 4441 
Q 881 4594 1212 4672 
Q 1544 4750 1819 4750 
Q 2544 4750 2975 4387 
Q 3406 4025 3406 3419 
Q 3406 3131 3298 2873 
Q 3191 2616 2906 2266 
Q 2828 2175 2409 1742 
Q 1991 1309 1228 531 
z
" id="DejaVuSans-32" transform="scale(0.015625)"/>
       </defs>
       <use xlink:href="#DejaVuSans-32"/>
      </g>
     </g>
    </g>
    <g id="xtick_4">
     <g id="line2d_4">
      <g>
       <use style="stroke:#000000;stroke-width:0.8;" x="294.545455" xlink:href="#m7e69059349" y="620.9352"/>
      </g>
     </g>
     <g id="text_4">
      <!-- 3 -->
      <g transform="translate(289.77358 639.332856)scale(0.15 -0.15)">
       <defs>
        <path d="M 2597 2516 
Q 3050 2419 3304 2112 
Q 3559 1806 3559 1356 
Q 3559 666 3084 287 
Q 2609 -91 1734 -91 
Q 1441 -91 1130 -33 
Q 819 25 488 141 
L 488 750 
Q 750 597 1062 519 
Q 1375 441 1716 441 
Q 2309 441 2620 675 
Q 2931 909 2931 1356 
Q 2931 1769 2642 2001 
Q 2353 2234 1838 2234 
L 1294 2234 
L 1294 2753 
L 1863 2753 
Q 2328 2753 2575 2939 
Q 2822 3125 2822 3475 
Q 2822 3834 2567 4026 
Q 2313 4219 1838 4219 
Q 1578 4219 1281 4162 
Q 984 4106 628 3988 
L 628 4550 
Q 988 4650 1302 4700 
Q 1616 4750 1894 4750 
Q 2613 4750 3031 4423 
Q 3450 4097 3450 3541 
Q 3450 3153 3228 2886 
Q 3006 2619 2597 2516 
z
" id="DejaVuSans-33" transform="scale(0.015625)"/>
       </defs>
       <use xlink:href="#DejaVuSans-33"/>
      </g>
     </g>
    </g>
    <g id="xtick_5">
     <g id="line2d_5">
      <g>
       <use style="stroke:#000000;stroke-width:0.8;" x="318.894545" xlink:href="#m7e69059349" y="620.9352"/>
      </g>
     </g>
     <g id="text_5">
      <!-- 4 -->
      <g transform="translate(314.12267 639.332856)scale(0.15 -0.15)">
       <defs>
        <path d="M 2419 4116 
L 825 1625 
L 2419 1625 
L 2419 4116 
z
M 2253 4666 
L 3047 4666 
L 3047 1625 
L 3713 1625 
L 3713 1100 
L 3047 1100 
L 3047 0 
L 2419 0 
L 2419 1100 
L 313 1100 
L 313 1709 
L 2253 4666 
z
" id="DejaVuSans-34" transform="scale(0.015625)"/>
       </defs>
       <use xlink:href="#DejaVuSans-34"/>
      </g>
     </g>
    </g>
    <g id="xtick_6">
     <g id="line2d_6">
      <g>
       <use style="stroke:#000000;stroke-width:0.8;" x="343.243636" xlink:href="#m7e69059349" y="620.9352"/>
      </g>
     </g>
     <g id="text_6">
      <!-- 5 -->
      <g transform="translate(338.471761 639.332856)scale(0.15 -0.15)">
       <defs>
        <path d="M 691 4666 
L 3169 4666 
L 3169 4134 
L 1269 4134 
L 1269 2991 
Q 1406 3038 1543 3061 
Q 1681 3084 1819 3084 
Q 2600 3084 3056 2656 
Q 3513 2228 3513 1497 
Q 3513 744 3044 326 
Q 2575 -91 1722 -91 
Q 1428 -91 1123 -41 
Q 819 9 494 109 
L 494 744 
Q 775 591 1075 516 
Q 1375 441 1709 441 
Q 2250 441 2565 725 
Q 2881 1009 2881 1497 
Q 2881 1984 2565 2268 
Q 2250 2553 1709 2553 
Q 1456 2553 1204 2497 
Q 953 2441 691 2322 
L 691 4666 
z
" id="DejaVuSans-35" transform="scale(0.015625)"/>
       </defs>
       <use xlink:href="#DejaVuSans-35"/>
      </g>
     </g>
    </g>
    <g id="xtick_7">
     <g id="line2d_7">
      <g>
       <use style="stroke:#000000;stroke-width:0.8;" x="367.592727" xlink:href="#m7e69059349" y="620.9352"/>
      </g>
     </g>
     <g id="text_7">
      <!-- 6 -->
      <g transform="translate(362.820852 639.332856)scale(0.15 -0.15)">
       <defs>
        <path d="M 2113 2584 
Q 1688 2584 1439 2293 
Q 1191 2003 1191 1497 
Q 1191 994 1439 701 
Q 1688 409 2113 409 
Q 2538 409 2786 701 
Q 3034 994 3034 1497 
Q 3034 2003 2786 2293 
Q 2538 2584 2113 2584 
z
M 3366 4563 
L 3366 3988 
Q 3128 4100 2886 4159 
Q 2644 4219 2406 4219 
Q 1781 4219 1451 3797 
Q 1122 3375 1075 2522 
Q 1259 2794 1537 2939 
Q 1816 3084 2150 3084 
Q 2853 3084 3261 2657 
Q 3669 2231 3669 1497 
Q 3669 778 3244 343 
Q 2819 -91 2113 -91 
Q 1303 -91 875 529 
Q 447 1150 447 2328 
Q 447 3434 972 4092 
Q 1497 4750 2381 4750 
Q 2619 4750 2861 4703 
Q 3103 4656 3366 4563 
z
" id="DejaVuSans-36" transform="scale(0.015625)"/>
       </defs>
       <use xlink:href="#DejaVuSans-36"/>
      </g>
     </g>
    </g>
    <g id="xtick_8">
     <g id="line2d_8">
      <g>
       <use style="stroke:#000000;stroke-width:0.8;" x="391.941818" xlink:href="#m7e69059349" y="620.9352"/>
      </g>
     </g>
     <g id="text_8">
      <!-- 7 -->
      <g transform="translate(387.169943 639.332856)scale(0.15 -0.15)">
       <defs>
        <path d="M 525 4666 
L 3525 4666 
L 3525 4397 
L 1831 0 
L 1172 0 
L 2766 4134 
L 525 4134 
L 525 4666 
z
" id="DejaVuSans-37" transform="scale(0.015625)"/>
       </defs>
       <use xlink:href="#DejaVuSans-37"/>
      </g>
     </g>
    </g>
    <g id="xtick_9">
     <g id="line2d_9">
      <g>
       <use style="stroke:#000000;stroke-width:0.8;" x="416.290909" xlink:href="#m7e69059349" y="620.9352"/>
      </g>
     </g>
     <g id="text_9">
      <!-- 8 -->
      <g transform="translate(411.519034 639.332856)scale(0.15 -0.15)">
       <defs>
        <path d="M 2034 2216 
Q 1584 2216 1326 1975 
Q 1069 1734 1069 1313 
Q 1069 891 1326 650 
Q 1584 409 2034 409 
Q 2484 409 2743 651 
Q 3003 894 3003 1313 
Q 3003 1734 2745 1975 
Q 2488 2216 2034 2216 
z
M 1403 2484 
Q 997 2584 770 2862 
Q 544 3141 544 3541 
Q 544 4100 942 4425 
Q 1341 4750 2034 4750 
Q 2731 4750 3128 4425 
Q 3525 4100 3525 3541 
Q 3525 3141 3298 2862 
Q 3072 2584 2669 2484 
Q 3125 2378 3379 2068 
Q 3634 1759 3634 1313 
Q 3634 634 3220 271 
Q 2806 -91 2034 -91 
Q 1263 -91 848 271 
Q 434 634 434 1313 
Q 434 1759 690 2068 
Q 947 2378 1403 2484 
z
M 1172 3481 
Q 1172 3119 1398 2916 
Q 1625 2713 2034 2713 
Q 2441 2713 2670 2916 
Q 2900 3119 2900 3481 
Q 2900 3844 2670 4047 
Q 2441 4250 2034 4250 
Q 1625 4250 1398 4047 
Q 1172 3844 1172 3481 
z
" id="DejaVuSans-38" transform="scale(0.015625)"/>
       </defs>
       <use xlink:href="#DejaVuSans-38"/>
      </g>
     </g>
    </g>
    <g id="xtick_10">
     <g id="line2d_10">
      <g>
       <use style="stroke:#000000;stroke-width:0.8;" x="440.64" xlink:href="#m7e69059349" y="620.9352"/>
      </g>
     </g>
     <g id="text_10">
      <!-- 9 -->
      <g transform="translate(435.868125 639.332856)scale(0.15 -0.15)">
       <defs>
        <path d="M 703 97 
L 703 672 
Q 941 559 1184 500 
Q 1428 441 1663 441 
Q 2288 441 2617 861 
Q 2947 1281 2994 2138 
Q 2813 1869 2534 1725 
Q 2256 1581 1919 1581 
Q 1219 1581 811 2004 
Q 403 2428 403 3163 
Q 403 3881 828 4315 
Q 1253 4750 1959 4750 
Q 2769 4750 3195 4129 
Q 3622 3509 3622 2328 
Q 3622 1225 3098 567 
Q 2575 -91 1691 -91 
Q 1453 -91 1209 -44 
Q 966 3 703 97 
z
M 1959 2075 
Q 2384 2075 2632 2365 
Q 2881 2656 2881 3163 
Q 2881 3666 2632 3958 
Q 2384 4250 1959 4250 
Q 1534 4250 1286 3958 
Q 1038 3666 1038 3163 
Q 1038 2656 1286 2365 
Q 1534 2075 1959 2075 
z
" id="DejaVuSans-39" transform="scale(0.015625)"/>
       </defs>
       <use xlink:href="#DejaVuSans-39"/>
      </g>
     </g>
    </g>
    <g id="xtick_11">
     <g id="line2d_11">
      <g>
       <use style="stroke:#000000;stroke-width:0.8;" x="464.989091" xlink:href="#m7e69059349" y="620.9352"/>
      </g>
     </g>
     <g id="text_11">
      <!-- 10 -->
      <g transform="translate(455.445341 639.332856)scale(0.15 -0.15)">
       <use xlink:href="#DejaVuSans-31"/>
       <use x="63.623047" xlink:href="#DejaVuSans-30"/>
      </g>
     </g>
    </g>
    <g id="xtick_12">
     <g id="line2d_12">
      <g>
       <use style="stroke:#000000;stroke-width:0.8;" x="489.338182" xlink:href="#m7e69059349" y="620.9352"/>
      </g>
     </g>
     <g id="text_12">
      <!-- 11 -->
      <g transform="translate(479.794432 639.332856)scale(0.15 -0.15)">
       <use xlink:href="#DejaVuSans-31"/>
       <use x="63.623047" xlink:href="#DejaVuSans-31"/>
      </g>
     </g>
    </g>
    <g id="xtick_13">
     <g id="line2d_13">
      <g>
       <use style="stroke:#000000;stroke-width:0.8;" x="513.687273" xlink:href="#m7e69059349" y="620.9352"/>
      </g>
     </g>
     <g id="text_13">
      <!-- 12 -->
      <g transform="translate(504.143523 639.332856)scale(0.15 -0.15)">
       <use xlink:href="#DejaVuSans-31"/>
       <use x="63.623047" xlink:href="#DejaVuSans-32"/>
      </g>
     </g>
    </g>
    <g id="xtick_14">
     <g id="line2d_14">
      <g>
       <use style="stroke:#000000;stroke-width:0.8;" x="538.036364" xlink:href="#m7e69059349" y="620.9352"/>
      </g>
     </g>
     <g id="text_14">
      <!-- 13 -->
      <g transform="translate(528.492614 639.332856)scale(0.15 -0.15)">
       <use xlink:href="#DejaVuSans-31"/>
       <use x="63.623047" xlink:href="#DejaVuSans-33"/>
      </g>
     </g>
    </g>
    <g id="xtick_15">
     <g id="line2d_15">
      <g>
       <use style="stroke:#000000;stroke-width:0.8;" x="562.385455" xlink:href="#m7e69059349" y="620.9352"/>
      </g>
     </g>
     <g id="text_15">
      <!-- 14 -->
      <g transform="translate(552.841705 639.332856)scale(0.15 -0.15)">
       <use xlink:href="#DejaVuSans-31"/>
       <use x="63.623047" xlink:href="#DejaVuSans-34"/>
      </g>
     </g>
    </g>
    <g id="xtick_16">
     <g id="line2d_16">
      <g>
       <use style="stroke:#000000;stroke-width:0.8;" x="586.734545" xlink:href="#m7e69059349" y="620.9352"/>
      </g>
     </g>
     <g id="text_16">
      <!-- 15 -->
      <g transform="translate(577.190795 639.332856)scale(0.15 -0.15)">
       <use xlink:href="#DejaVuSans-31"/>
       <use x="63.623047" xlink:href="#DejaVuSans-35"/>
      </g>
     </g>
    </g>
    <g id="xtick_17">
     <g id="line2d_17">
      <g>
       <use style="stroke:#000000;stroke-width:0.8;" x="611.083636" xlink:href="#m7e69059349" y="620.9352"/>
      </g>
     </g>
     <g id="text_17">
      <!-- 16 -->
      <g transform="translate(601.539886 639.332856)scale(0.15 -0.15)">
       <use xlink:href="#DejaVuSans-31"/>
       <use x="63.623047" xlink:href="#DejaVuSans-36"/>
      </g>
     </g>
    </g>
    <g id="xtick_18">
     <g id="line2d_18">
      <g>
       <use style="stroke:#000000;stroke-width:0.8;" x="635.432727" xlink:href="#m7e69059349" y="620.9352"/>
      </g>
     </g>
     <g id="text_18">
      <!-- 17 -->
      <g transform="translate(625.888977 639.332856)scale(0.15 -0.15)">
       <use xlink:href="#DejaVuSans-31"/>
       <use x="63.623047" xlink:href="#DejaVuSans-37"/>
      </g>
     </g>
    </g>
    <g id="xtick_19">
     <g id="line2d_19">
      <g>
       <use style="stroke:#000000;stroke-width:0.8;" x="659.781818" xlink:href="#m7e69059349" y="620.9352"/>
      </g>
     </g>
     <g id="text_19">
      <!-- 18 -->
      <g transform="translate(650.238068 639.332856)scale(0.15 -0.15)">
       <use xlink:href="#DejaVuSans-31"/>
       <use x="63.623047" xlink:href="#DejaVuSans-38"/>
      </g>
     </g>
    </g>
    <g id="xtick_20">
     <g id="line2d_20">
      <g>
       <use style="stroke:#000000;stroke-width:0.8;" x="684.130909" xlink:href="#m7e69059349" y="620.9352"/>
      </g>
     </g>
     <g id="text_20">
      <!-- 19 -->
      <g transform="translate(674.587159 639.332856)scale(0.15 -0.15)">
       <use xlink:href="#DejaVuSans-31"/>
       <use x="63.623047" xlink:href="#DejaVuSans-39"/>
      </g>
     </g>
    </g>
    <g id="xtick_21">
     <g id="line2d_21">
      <g>
       <use style="stroke:#000000;stroke-width:0.8;" x="708.48" xlink:href="#m7e69059349" y="620.9352"/>
      </g>
     </g>
     <g id="text_21">
      <!-- 20 -->
      <g transform="translate(698.93625 639.332856)scale(0.15 -0.15)">
       <use xlink:href="#DejaVuSans-32"/>
       <use x="63.623047" xlink:href="#DejaVuSans-30"/>
      </g>
     </g>
    </g>
    <g id="xtick_22">
     <g id="line2d_22">
      <g>
       <use style="stroke:#000000;stroke-width:0.8;" x="732.829091" xlink:href="#m7e69059349" y="620.9352"/>
      </g>
     </g>
     <g id="text_22">
      <!-- 21 -->
      <g transform="translate(723.285341 639.332856)scale(0.15 -0.15)">
       <use xlink:href="#DejaVuSans-32"/>
       <use x="63.623047" xlink:href="#DejaVuSans-31"/>
      </g>
     </g>
    </g>
    <g id="xtick_23">
     <g id="line2d_23">
      <g>
       <use style="stroke:#000000;stroke-width:0.8;" x="757.178182" xlink:href="#m7e69059349" y="620.9352"/>
      </g>
     </g>
     <g id="text_23">
      <!-- 22 -->
      <g transform="translate(747.634432 639.332856)scale(0.15 -0.15)">
       <use xlink:href="#DejaVuSans-32"/>
       <use x="63.623047" xlink:href="#DejaVuSans-32"/>
      </g>
     </g>
    </g>
    <g id="xtick_24">
     <g id="line2d_24">
      <g>
       <use style="stroke:#000000;stroke-width:0.8;" x="781.527273" xlink:href="#m7e69059349" y="620.9352"/>
      </g>
     </g>
     <g id="text_24">
      <!-- 23 -->
      <g transform="translate(771.983523 639.332856)scale(0.15 -0.15)">
       <use xlink:href="#DejaVuSans-32"/>
       <use x="63.623047" xlink:href="#DejaVuSans-33"/>
      </g>
     </g>
    </g>
    <g id="xtick_25">
     <g id="line2d_25">
      <g>
       <use style="stroke:#000000;stroke-width:0.8;" x="805.876364" xlink:href="#m7e69059349" y="620.9352"/>
      </g>
     </g>
     <g id="text_25">
      <!-- 24 -->
      <g transform="translate(796.332614 639.332856)scale(0.15 -0.15)">
       <use xlink:href="#DejaVuSans-32"/>
       <use x="63.623047" xlink:href="#DejaVuSans-34"/>
      </g>
     </g>
    </g>
    <g id="xtick_26">
     <g id="line2d_26">
      <g>
       <use style="stroke:#000000;stroke-width:0.8;" x="830.225455" xlink:href="#m7e69059349" y="620.9352"/>
      </g>
     </g>
     <g id="text_26">
      <!-- 25 -->
      <g transform="translate(820.681705 639.332856)scale(0.15 -0.15)">
       <use xlink:href="#DejaVuSans-32"/>
       <use x="63.623047" xlink:href="#DejaVuSans-35"/>
      </g>
     </g>
    </g>
    <g id="xtick_27">
     <g id="line2d_27">
      <g>
       <use style="stroke:#000000;stroke-width:0.8;" x="854.574545" xlink:href="#m7e69059349" y="620.9352"/>
      </g>
     </g>
     <g id="text_27">
      <!-- 26 -->
      <g transform="translate(845.030795 639.332856)scale(0.15 -0.15)">
       <use xlink:href="#DejaVuSans-32"/>
       <use x="63.623047" xlink:href="#DejaVuSans-36"/>
      </g>
     </g>
    </g>
    <g id="xtick_28">
     <g id="line2d_28">
      <g>
       <use style="stroke:#000000;stroke-width:0.8;" x="878.923636" xlink:href="#m7e69059349" y="620.9352"/>
      </g>
     </g>
     <g id="text_28">
      <!-- 27 -->
      <g transform="translate(869.379886 639.332856)scale(0.15 -0.15)">
       <use xlink:href="#DejaVuSans-32"/>
       <use x="63.623047" xlink:href="#DejaVuSans-37"/>
      </g>
     </g>
    </g>
    <g id="xtick_29">
     <g id="line2d_29">
      <g>
       <use style="stroke:#000000;stroke-width:0.8;" x="903.272727" xlink:href="#m7e69059349" y="620.9352"/>
      </g>
     </g>
     <g id="text_29">
      <!-- 28 -->
      <g transform="translate(893.728977 639.332856)scale(0.15 -0.15)">
       <use xlink:href="#DejaVuSans-32"/>
       <use x="63.623047" xlink:href="#DejaVuSans-38"/>
      </g>
     </g>
    </g>
    <g id="xtick_30">
     <g id="line2d_30">
      <g>
       <use style="stroke:#000000;stroke-width:0.8;" x="927.621818" xlink:href="#m7e69059349" y="620.9352"/>
      </g>
     </g>
     <g id="text_30">
      <!-- 29 -->
      <g transform="translate(918.078068 639.332856)scale(0.15 -0.15)">
       <use xlink:href="#DejaVuSans-32"/>
       <use x="63.623047" xlink:href="#DejaVuSans-39"/>
      </g>
     </g>
    </g>
    <g id="xtick_31">
     <g id="line2d_31">
      <g>
       <use style="stroke:#000000;stroke-width:0.8;" x="951.970909" xlink:href="#m7e69059349" y="620.9352"/>
      </g>
     </g>
     <g id="text_31">
      <!-- 30 -->
      <g transform="translate(942.427159 639.332856)scale(0.15 -0.15)">
       <use xlink:href="#DejaVuSans-33"/>
       <use x="63.623047" xlink:href="#DejaVuSans-30"/>
      </g>
     </g>
    </g>
    <g id="xtick_32">
     <g id="line2d_32">
      <g>
       <use style="stroke:#000000;stroke-width:0.8;" x="976.32" xlink:href="#m7e69059349" y="620.9352"/>
      </g>
     </g>
     <g id="text_32">
      <!-- 31 -->
      <g transform="translate(966.77625 639.332856)scale(0.15 -0.15)">
       <use xlink:href="#DejaVuSans-33"/>
       <use x="63.623047" xlink:href="#DejaVuSans-31"/>
      </g>
     </g>
    </g>
    <g id="xtick_33">
     <g id="line2d_33">
      <g>
       <use style="stroke:#000000;stroke-width:0.8;" x="1000.669091" xlink:href="#m7e69059349" y="620.9352"/>
      </g>
     </g>
     <g id="text_33">
      <!-- 32 -->
      <g transform="translate(991.125341 639.332856)scale(0.15 -0.15)">
       <use xlink:href="#DejaVuSans-33"/>
       <use x="63.623047" xlink:href="#DejaVuSans-32"/>
      </g>
     </g>
    </g>
    <g id="xtick_34">
     <g id="line2d_34">
      <g>
       <use style="stroke:#000000;stroke-width:0.8;" x="1025.018182" xlink:href="#m7e69059349" y="620.9352"/>
      </g>
     </g>
     <g id="text_34">
      <!-- 33 -->
      <g transform="translate(1015.474432 639.332856)scale(0.15 -0.15)">
       <use xlink:href="#DejaVuSans-33"/>
       <use x="63.623047" xlink:href="#DejaVuSans-33"/>
      </g>
     </g>
    </g>
    <g id="xtick_35">
     <g id="line2d_35">
      <g>
       <use style="stroke:#000000;stroke-width:0.8;" x="1049.367273" xlink:href="#m7e69059349" y="620.9352"/>
      </g>
     </g>
     <g id="text_35">
      <!-- 34 -->
      <g transform="translate(1039.823523 639.332856)scale(0.15 -0.15)">
       <use xlink:href="#DejaVuSans-33"/>
       <use x="63.623047" xlink:href="#DejaVuSans-34"/>
      </g>
     </g>
    </g>
    <g id="xtick_36">
     <g id="line2d_36">
      <g>
       <use style="stroke:#000000;stroke-width:0.8;" x="1073.716364" xlink:href="#m7e69059349" y="620.9352"/>
      </g>
     </g>
     <g id="text_36">
      <!-- 35 -->
      <g transform="translate(1064.172614 639.332856)scale(0.15 -0.15)">
       <use xlink:href="#DejaVuSans-33"/>
       <use x="63.623047" xlink:href="#DejaVuSans-35"/>
      </g>
     </g>
    </g>
    <g id="xtick_37">
     <g id="line2d_37">
      <g>
       <use style="stroke:#000000;stroke-width:0.8;" x="1098.065455" xlink:href="#m7e69059349" y="620.9352"/>
      </g>
     </g>
     <g id="text_37">
      <!-- 36 -->
      <g transform="translate(1088.521705 639.332856)scale(0.15 -0.15)">
       <use xlink:href="#DejaVuSans-33"/>
       <use x="63.623047" xlink:href="#DejaVuSans-36"/>
      </g>
     </g>
    </g>
    <g id="xtick_38">
     <g id="line2d_38">
      <g>
       <use style="stroke:#000000;stroke-width:0.8;" x="1122.414545" xlink:href="#m7e69059349" y="620.9352"/>
      </g>
     </g>
     <g id="text_38">
      <!-- 37 -->
      <g transform="translate(1112.870795 639.332856)scale(0.15 -0.15)">
       <use xlink:href="#DejaVuSans-33"/>
       <use x="63.623047" xlink:href="#DejaVuSans-37"/>
      </g>
     </g>
    </g>
    <g id="xtick_39">
     <g id="line2d_39">
      <g>
       <use style="stroke:#000000;stroke-width:0.8;" x="1146.763636" xlink:href="#m7e69059349" y="620.9352"/>
      </g>
     </g>
     <g id="text_39">
      <!-- 38 -->
      <g transform="translate(1137.219886 639.332856)scale(0.15 -0.15)">
       <use xlink:href="#DejaVuSans-33"/>
       <use x="63.623047" xlink:href="#DejaVuSans-38"/>
      </g>
     </g>
    </g>
    <g id="xtick_40">
     <g id="line2d_40">
      <g>
       <use style="stroke:#000000;stroke-width:0.8;" x="1171.112727" xlink:href="#m7e69059349" y="620.9352"/>
      </g>
     </g>
     <g id="text_40">
      <!-- 39 -->
      <g transform="translate(1161.568977 639.332856)scale(0.15 -0.15)">
       <use xlink:href="#DejaVuSans-33"/>
       <use x="63.623047" xlink:href="#DejaVuSans-39"/>
      </g>
     </g>
    </g>
    <g id="text_41">
     <!-- $t$ -->
     <g transform="translate(704.48 661.649262)scale(0.2 -0.2)">
      <defs>
       <path d="M 2706 3500 
L 2619 3053 
L 1472 3053 
L 1100 1153 
Q 1081 1047 1072 975 
Q 1063 903 1063 863 
Q 1063 663 1183 572 
Q 1303 481 1569 481 
L 2150 481 
L 2053 0 
L 1503 0 
Q 991 0 739 200 
Q 488 400 488 806 
Q 488 878 497 964 
Q 506 1050 525 1153 
L 897 3053 
L 409 3053 
L 500 3500 
L 978 3500 
L 1172 4494 
L 1747 4494 
L 1556 3500 
L 2706 3500 
z
" id="DejaVuSans-Oblique-74" transform="scale(0.015625)"/>
      </defs>
      <use transform="translate(0 0.78125)" xlink:href="#DejaVuSans-Oblique-74"/>
     </g>
    </g>
   </g>
   <g id="matplotlib.axis_2">
    <g id="ytick_1">
     <g id="line2d_41">
      <defs>
       <path d="M 0 0 
L -3.5 0 
" id="me2583cfa34" style="stroke:#000000;stroke-width:0.8;"/>
      </defs>
      <g>
       <use style="stroke:#000000;stroke-width:0.8;" x="172.8" xlink:href="#me2583cfa34" y="620.9352"/>
      </g>
     </g>
     <g id="text_42">
      <!-- 0.0 -->
      <g transform="translate(141.945312 626.634028)scale(0.15 -0.15)">
       <defs>
        <path d="M 684 794 
L 1344 794 
L 1344 0 
L 684 0 
L 684 794 
z
" id="DejaVuSans-2e" transform="scale(0.015625)"/>
       </defs>
       <use xlink:href="#DejaVuSans-30"/>
       <use x="63.623047" xlink:href="#DejaVuSans-2e"/>
       <use x="95.410156" xlink:href="#DejaVuSans-30"/>
      </g>
     </g>
    </g>
    <g id="ytick_2">
     <g id="line2d_42">
      <g>
       <use style="stroke:#000000;stroke-width:0.8;" x="172.8" xlink:href="#me2583cfa34" y="513.49248"/>
      </g>
     </g>
     <g id="text_43">
      <!-- 0.2 -->
      <g transform="translate(141.945312 519.191308)scale(0.15 -0.15)">
       <use xlink:href="#DejaVuSans-30"/>
       <use x="63.623047" xlink:href="#DejaVuSans-2e"/>
       <use x="95.410156" xlink:href="#DejaVuSans-32"/>
      </g>
     </g>
    </g>
    <g id="ytick_3">
     <g id="line2d_43">
      <g>
       <use style="stroke:#000000;stroke-width:0.8;" x="172.8" xlink:href="#me2583cfa34" y="406.04976"/>
      </g>
     </g>
     <g id="text_44">
      <!-- 0.4 -->
      <g transform="translate(141.945312 411.748588)scale(0.15 -0.15)">
       <use xlink:href="#DejaVuSans-30"/>
       <use x="63.623047" xlink:href="#DejaVuSans-2e"/>
       <use x="95.410156" xlink:href="#DejaVuSans-34"/>
      </g>
     </g>
    </g>
    <g id="ytick_4">
     <g id="line2d_44">
      <g>
       <use style="stroke:#000000;stroke-width:0.8;" x="172.8" xlink:href="#me2583cfa34" y="298.60704"/>
      </g>
     </g>
     <g id="text_45">
      <!-- 0.6 -->
      <g transform="translate(141.945312 304.305868)scale(0.15 -0.15)">
       <use xlink:href="#DejaVuSans-30"/>
       <use x="63.623047" xlink:href="#DejaVuSans-2e"/>
       <use x="95.410156" xlink:href="#DejaVuSans-36"/>
      </g>
     </g>
    </g>
    <g id="ytick_5">
     <g id="line2d_45">
      <g>
       <use style="stroke:#000000;stroke-width:0.8;" x="172.8" xlink:href="#me2583cfa34" y="191.16432"/>
      </g>
     </g>
     <g id="text_46">
      <!-- 0.8 -->
      <g transform="translate(141.945312 196.863148)scale(0.15 -0.15)">
       <use xlink:href="#DejaVuSans-30"/>
       <use x="63.623047" xlink:href="#DejaVuSans-2e"/>
       <use x="95.410156" xlink:href="#DejaVuSans-38"/>
      </g>
     </g>
    </g>
    <g id="ytick_6">
     <g id="line2d_46">
      <g>
       <use style="stroke:#000000;stroke-width:0.8;" x="172.8" xlink:href="#me2583cfa34" y="83.7216"/>
      </g>
     </g>
     <g id="text_47">
      <!-- 1.0 -->
      <g transform="translate(141.945312 89.420428)scale(0.15 -0.15)">
       <use xlink:href="#DejaVuSans-31"/>
       <use x="63.623047" xlink:href="#DejaVuSans-2e"/>
       <use x="95.410156" xlink:href="#DejaVuSans-30"/>
      </g>
     </g>
    </g>
    <g id="text_48">
     <!-- $p(context)$ -->
     <g transform="translate(133.745312 404.4284)rotate(-90)scale(0.2 -0.2)">
      <defs>
       <path d="M 3175 2156 
Q 3175 2616 2975 2859 
Q 2775 3103 2400 3103 
Q 2144 3103 1911 2972 
Q 1678 2841 1497 2591 
Q 1319 2344 1212 1994 
Q 1106 1644 1106 1300 
Q 1106 863 1306 627 
Q 1506 391 1875 391 
Q 2147 391 2380 519 
Q 2613 647 2778 891 
Q 2956 1147 3065 1494 
Q 3175 1841 3175 2156 
z
M 1394 2969 
Q 1625 3272 1939 3428 
Q 2253 3584 2638 3584 
Q 3175 3584 3472 3232 
Q 3769 2881 3769 2247 
Q 3769 1728 3584 1258 
Q 3400 788 3053 416 
Q 2822 169 2531 39 
Q 2241 -91 1919 -91 
Q 1547 -91 1294 64 
Q 1041 219 916 525 
L 556 -1331 
L -19 -1331 
L 922 3500 
L 1497 3500 
L 1394 2969 
z
" id="DejaVuSans-Oblique-70" transform="scale(0.015625)"/>
       <path d="M 1984 4856 
Q 1566 4138 1362 3434 
Q 1159 2731 1159 2009 
Q 1159 1288 1364 580 
Q 1569 -128 1984 -844 
L 1484 -844 
Q 1016 -109 783 600 
Q 550 1309 550 2009 
Q 550 2706 781 3412 
Q 1013 4119 1484 4856 
L 1984 4856 
z
" id="DejaVuSans-28" transform="scale(0.015625)"/>
       <path d="M 3431 3366 
L 3316 2797 
Q 3109 2947 2876 3022 
Q 2644 3097 2394 3097 
Q 2119 3097 1870 3000 
Q 1622 2903 1453 2725 
Q 1184 2453 1037 2087 
Q 891 1722 891 1331 
Q 891 859 1127 628 
Q 1363 397 1844 397 
Q 2081 397 2348 469 
Q 2616 541 2906 684 
L 2797 116 
Q 2547 13 2283 -39 
Q 2019 -91 1741 -91 
Q 1044 -91 669 257 
Q 294 606 294 1253 
Q 294 1797 489 2255 
Q 684 2713 1069 3078 
Q 1331 3328 1684 3456 
Q 2038 3584 2456 3584 
Q 2700 3584 2940 3529 
Q 3181 3475 3431 3366 
z
" id="DejaVuSans-Oblique-63" transform="scale(0.015625)"/>
       <path d="M 1625 -91 
Q 1009 -91 651 289 
Q 294 669 294 1325 
Q 294 1706 417 2101 
Q 541 2497 738 2766 
Q 1047 3184 1428 3384 
Q 1809 3584 2291 3584 
Q 2888 3584 3255 3212 
Q 3622 2841 3622 2241 
Q 3622 1825 3500 1412 
Q 3378 1000 3181 728 
Q 2875 309 2494 109 
Q 2113 -91 1625 -91 
z
M 891 1344 
Q 891 869 1089 633 
Q 1288 397 1691 397 
Q 2269 397 2648 901 
Q 3028 1406 3028 2181 
Q 3028 2634 2825 2865 
Q 2622 3097 2228 3097 
Q 1903 3097 1650 2945 
Q 1397 2794 1197 2484 
Q 1050 2253 970 1956 
Q 891 1659 891 1344 
z
" id="DejaVuSans-Oblique-6f" transform="scale(0.015625)"/>
       <path d="M 3566 2113 
L 3156 0 
L 2578 0 
L 2988 2091 
Q 3016 2238 3031 2350 
Q 3047 2463 3047 2528 
Q 3047 2791 2881 2937 
Q 2716 3084 2419 3084 
Q 1956 3084 1622 2776 
Q 1288 2469 1184 1941 
L 800 0 
L 225 0 
L 903 3500 
L 1478 3500 
L 1363 2950 
Q 1603 3253 1940 3418 
Q 2278 3584 2650 3584 
Q 3113 3584 3367 3334 
Q 3622 3084 3622 2631 
Q 3622 2519 3608 2391 
Q 3594 2263 3566 2113 
z
" id="DejaVuSans-Oblique-6e" transform="scale(0.015625)"/>
       <path d="M 3078 2063 
Q 3088 2113 3092 2166 
Q 3097 2219 3097 2272 
Q 3097 2653 2873 2875 
Q 2650 3097 2266 3097 
Q 1838 3097 1509 2826 
Q 1181 2556 1013 2059 
L 3078 2063 
z
M 3578 1613 
L 903 1613 
Q 884 1494 878 1425 
Q 872 1356 872 1306 
Q 872 872 1139 634 
Q 1406 397 1894 397 
Q 2269 397 2603 481 
Q 2938 566 3225 728 
L 3116 159 
Q 2806 34 2476 -28 
Q 2147 -91 1806 -91 
Q 1078 -91 686 257 
Q 294 606 294 1247 
Q 294 1794 489 2264 
Q 684 2734 1063 3103 
Q 1306 3334 1642 3459 
Q 1978 3584 2356 3584 
Q 2950 3584 3301 3228 
Q 3653 2872 3653 2272 
Q 3653 2128 3634 1964 
Q 3616 1800 3578 1613 
z
" id="DejaVuSans-Oblique-65" transform="scale(0.015625)"/>
       <path d="M 3841 3500 
L 2234 1784 
L 3219 0 
L 2559 0 
L 1819 1388 
L 531 0 
L -166 0 
L 1556 1844 
L 641 3500 
L 1300 3500 
L 1972 2234 
L 3144 3500 
L 3841 3500 
z
" id="DejaVuSans-Oblique-78" transform="scale(0.015625)"/>
       <path d="M 513 4856 
L 1013 4856 
Q 1481 4119 1714 3412 
Q 1947 2706 1947 2009 
Q 1947 1309 1714 600 
Q 1481 -109 1013 -844 
L 513 -844 
Q 928 -128 1133 580 
Q 1338 1288 1338 2009 
Q 1338 2731 1133 3434 
Q 928 4138 513 4856 
z
" id="DejaVuSans-29" transform="scale(0.015625)"/>
      </defs>
      <use transform="translate(0 0.125)" xlink:href="#DejaVuSans-Oblique-70"/>
      <use transform="translate(63.476562 0.125)" xlink:href="#DejaVuSans-28"/>
      <use transform="translate(102.490234 0.125)" xlink:href="#DejaVuSans-Oblique-63"/>
      <use transform="translate(157.470703 0.125)" xlink:href="#DejaVuSans-Oblique-6f"/>
      <use transform="translate(218.652344 0.125)" xlink:href="#DejaVuSans-Oblique-6e"/>
      <use transform="translate(282.03125 0.125)" xlink:href="#DejaVuSans-Oblique-74"/>
      <use transform="translate(321.240234 0.125)" xlink:href="#DejaVuSans-Oblique-65"/>
      <use transform="translate(382.763672 0.125)" xlink:href="#DejaVuSans-Oblique-78"/>
      <use transform="translate(441.943359 0.125)" xlink:href="#DejaVuSans-Oblique-74"/>
      <use transform="translate(481.152344 0.125)" xlink:href="#DejaVuSans-29"/>
     </g>
    </g>
   </g>
   <g id="line2d_47">
    <path clip-path="url(#p914a349326)" d="M 221.498182 298.60704 
L 245.847273 572.287417 
L 270.196364 221.750635 
L 294.545455 536.469156 
L 318.894545 589.782194 
L 343.243636 601.199639 
L 367.592727 606.164781 
L 391.941818 609.162987 
L 416.290909 611.197233 
L 440.64 612.663063 
L 464.989091 341.769563 
L 489.338182 573.926907 
L 513.687273 605.195179 
L 538.036364 609.482449 
L 562.385455 610.826425 
L 586.734545 611.728637 
L 611.083636 567.31296 
L 635.432727 608.297808 
L 659.781818 567.684398 
L 684.130909 608.884645 
L 708.48 569.801997 
L 732.829091 293.000739 
L 757.178182 177.120438 
L 781.527273 147.134055 
L 805.876364 134.386273 
L 830.225455 126.296756 
L 854.574545 120.429192 
L 878.923636 115.956384 
L 903.272727 112.442254 
L 927.621818 109.616053 
L 951.970909 493.395782 
L 976.32 201.029093 
L 1000.669091 124.077899 
L 1025.018182 112.896968 
L 1049.367273 109.968748 
L 1073.716364 108.129701 
L 1098.065455 106.594511 
L 1122.414545 105.251465 
L 1146.763636 104.062979 
L 1171.112727 103.004065 
" style="fill:none;stroke:#0000ff;stroke-linecap:square;stroke-width:1.5;"/>
    <defs>
     <path d="M 0 3 
C 0.795609 3 1.55874 2.683901 2.12132 2.12132 
C 2.683901 1.55874 3 0.795609 3 0 
C 3 -0.795609 2.683901 -1.55874 2.12132 -2.12132 
C 1.55874 -2.683901 0.795609 -3 0 -3 
C -0.795609 -3 -1.55874 -2.683901 -2.12132 -2.12132 
C -2.683901 -1.55874 -3 -0.795609 -3 0 
C -3 0.795609 -2.683901 1.55874 -2.12132 2.12132 
C -1.55874 2.683901 -0.795609 3 0 3 
z
" id="mebc272e481" style="stroke:#0000ff;"/>
    </defs>
    <g clip-path="url(#p914a349326)">
     <use style="fill:#0000ff;stroke:#0000ff;" x="221.498182" xlink:href="#mebc272e481" y="298.60704"/>
     <use style="fill:#0000ff;stroke:#0000ff;" x="245.847273" xlink:href="#mebc272e481" y="572.287417"/>
     <use style="fill:#0000ff;stroke:#0000ff;" x="270.196364" xlink:href="#mebc272e481" y="221.750635"/>
     <use style="fill:#0000ff;stroke:#0000ff;" x="294.545455" xlink:href="#mebc272e481" y="536.469156"/>
     <use style="fill:#0000ff;stroke:#0000ff;" x="318.894545" xlink:href="#mebc272e481" y="589.782194"/>
     <use style="fill:#0000ff;stroke:#0000ff;" x="343.243636" xlink:href="#mebc272e481" y="601.199639"/>
     <use style="fill:#0000ff;stroke:#0000ff;" x="367.592727" xlink:href="#mebc272e481" y="606.164781"/>
     <use style="fill:#0000ff;stroke:#0000ff;" x="391.941818" xlink:href="#mebc272e481" y="609.162987"/>
     <use style="fill:#0000ff;stroke:#0000ff;" x="416.290909" xlink:href="#mebc272e481" y="611.197233"/>
     <use style="fill:#0000ff;stroke:#0000ff;" x="440.64" xlink:href="#mebc272e481" y="612.663063"/>
     <use style="fill:#0000ff;stroke:#0000ff;" x="464.989091" xlink:href="#mebc272e481" y="341.769563"/>
     <use style="fill:#0000ff;stroke:#0000ff;" x="489.338182" xlink:href="#mebc272e481" y="573.926907"/>
     <use style="fill:#0000ff;stroke:#0000ff;" x="513.687273" xlink:href="#mebc272e481" y="605.195179"/>
     <use style="fill:#0000ff;stroke:#0000ff;" x="538.036364" xlink:href="#mebc272e481" y="609.482449"/>
     <use style="fill:#0000ff;stroke:#0000ff;" x="562.385455" xlink:href="#mebc272e481" y="610.826425"/>
     <use style="fill:#0000ff;stroke:#0000ff;" x="586.734545" xlink:href="#mebc272e481" y="611.728637"/>
     <use style="fill:#0000ff;stroke:#0000ff;" x="611.083636" xlink:href="#mebc272e481" y="567.31296"/>
     <use style="fill:#0000ff;stroke:#0000ff;" x="635.432727" xlink:href="#mebc272e481" y="608.297808"/>
     <use style="fill:#0000ff;stroke:#0000ff;" x="659.781818" xlink:href="#mebc272e481" y="567.684398"/>
     <use style="fill:#0000ff;stroke:#0000ff;" x="684.130909" xlink:href="#mebc272e481" y="608.884645"/>
     <use style="fill:#0000ff;stroke:#0000ff;" x="708.48" xlink:href="#mebc272e481" y="569.801997"/>
     <use style="fill:#0000ff;stroke:#0000ff;" x="732.829091" xlink:href="#mebc272e481" y="293.000739"/>
     <use style="fill:#0000ff;stroke:#0000ff;" x="757.178182" xlink:href="#mebc272e481" y="177.120438"/>
     <use style="fill:#0000ff;stroke:#0000ff;" x="781.527273" xlink:href="#mebc272e481" y="147.134055"/>
     <use style="fill:#0000ff;stroke:#0000ff;" x="805.876364" xlink:href="#mebc272e481" y="134.386273"/>
     <use style="fill:#0000ff;stroke:#0000ff;" x="830.225455" xlink:href="#mebc272e481" y="126.296756"/>
     <use style="fill:#0000ff;stroke:#0000ff;" x="854.574545" xlink:href="#mebc272e481" y="120.429192"/>
     <use style="fill:#0000ff;stroke:#0000ff;" x="878.923636" xlink:href="#mebc272e481" y="115.956384"/>
     <use style="fill:#0000ff;stroke:#0000ff;" x="903.272727" xlink:href="#mebc272e481" y="112.442254"/>
     <use style="fill:#0000ff;stroke:#0000ff;" x="927.621818" xlink:href="#mebc272e481" y="109.616053"/>
     <use style="fill:#0000ff;stroke:#0000ff;" x="951.970909" xlink:href="#mebc272e481" y="493.395782"/>
     <use style="fill:#0000ff;stroke:#0000ff;" x="976.32" xlink:href="#mebc272e481" y="201.029093"/>
     <use style="fill:#0000ff;stroke:#0000ff;" x="1000.669091" xlink:href="#mebc272e481" y="124.077899"/>
     <use style="fill:#0000ff;stroke:#0000ff;" x="1025.018182" xlink:href="#mebc272e481" y="112.896968"/>
     <use style="fill:#0000ff;stroke:#0000ff;" x="1049.367273" xlink:href="#mebc272e481" y="109.968748"/>
     <use style="fill:#0000ff;stroke:#0000ff;" x="1073.716364" xlink:href="#mebc272e481" y="108.129701"/>
     <use style="fill:#0000ff;stroke:#0000ff;" x="1098.065455" xlink:href="#mebc272e481" y="106.594511"/>
     <use style="fill:#0000ff;stroke:#0000ff;" x="1122.414545" xlink:href="#mebc272e481" y="105.251465"/>
     <use style="fill:#0000ff;stroke:#0000ff;" x="1146.763636" xlink:href="#mebc272e481" y="104.062979"/>
     <use style="fill:#0000ff;stroke:#0000ff;" x="1171.112727" xlink:href="#mebc272e481" y="103.004065"/>
    </g>
   </g>
   <g id="line2d_48">
    <path clip-path="url(#p914a349326)" d="M 221.498182 432.91044 
L 245.847273 175.228519 
L 270.196364 529.78598 
L 294.545455 222.01362 
L 318.894545 151.124637 
L 343.243636 131.633624 
L 367.592727 121.985806 
L 391.941818 115.733011 
L 416.290909 111.265322 
L 440.64 107.908263 
L 464.989091 427.754971 
L 489.338182 163.216283 
L 513.687273 118.763813 
L 538.036364 111.637087 
L 562.385455 109.011702 
L 586.734545 107.129677 
L 611.083636 166.142289 
L 635.432727 111.92374 
L 659.781818 165.299721 
L 684.130909 110.815369 
L 708.48 162.482695 
L 732.829091 477.759366 
L 757.178182 572.534209 
L 781.527273 593.064647 
L 805.876364 600.436236 
L 830.225455 604.653981 
L 854.574545 607.523375 
L 878.923636 609.605835 
L 903.272727 611.175803 
L 927.621818 612.394141 
L 951.970909 261.890537 
L 976.32 540.282161 
L 1000.669091 601.307885 
L 1025.018182 609.306586 
L 1049.367273 610.969056 
L 1073.716364 611.857828 
L 1098.065455 612.567586 
L 1122.414545 613.176374 
L 1146.763636 613.706743 
L 1171.112727 614.172616 
" style="fill:none;stroke:#ff0000;stroke-linecap:square;stroke-width:1.5;"/>
    <defs>
     <path d="M 0 3 
C 0.795609 3 1.55874 2.683901 2.12132 2.12132 
C 2.683901 1.55874 3 0.795609 3 0 
C 3 -0.795609 2.683901 -1.55874 2.12132 -2.12132 
C 1.55874 -2.683901 0.795609 -3 0 -3 
C -0.795609 -3 -1.55874 -2.683901 -2.12132 -2.12132 
C -2.683901 -1.55874 -3 -0.795609 -3 0 
C -3 0.795609 -2.683901 1.55874 -2.12132 2.12132 
C -1.55874 2.683901 -0.795609 3 0 3 
z
" id="mdf41eb1f7f" style="stroke:#ff0000;"/>
    </defs>
    <g clip-path="url(#p914a349326)">
     <use style="fill:#ff0000;stroke:#ff0000;" x="221.498182" xlink:href="#mdf41eb1f7f" y="432.91044"/>
     <use style="fill:#ff0000;stroke:#ff0000;" x="245.847273" xlink:href="#mdf41eb1f7f" y="175.228519"/>
     <use style="fill:#ff0000;stroke:#ff0000;" x="270.196364" xlink:href="#mdf41eb1f7f" y="529.78598"/>
     <use style="fill:#ff0000;stroke:#ff0000;" x="294.545455" xlink:href="#mdf41eb1f7f" y="222.01362"/>
     <use style="fill:#ff0000;stroke:#ff0000;" x="318.894545" xlink:href="#mdf41eb1f7f" y="151.124637"/>
     <use style="fill:#ff0000;stroke:#ff0000;" x="343.243636" xlink:href="#mdf41eb1f7f" y="131.633624"/>
     <use style="fill:#ff0000;stroke:#ff0000;" x="367.592727" xlink:href="#mdf41eb1f7f" y="121.985806"/>
     <use style="fill:#ff0000;stroke:#ff0000;" x="391.941818" xlink:href="#mdf41eb1f7f" y="115.733011"/>
     <use style="fill:#ff0000;stroke:#ff0000;" x="416.290909" xlink:href="#mdf41eb1f7f" y="111.265322"/>
     <use style="fill:#ff0000;stroke:#ff0000;" x="440.64" xlink:href="#mdf41eb1f7f" y="107.908263"/>
     <use style="fill:#ff0000;stroke:#ff0000;" x="464.989091" xlink:href="#mdf41eb1f7f" y="427.754971"/>
     <use style="fill:#ff0000;stroke:#ff0000;" x="489.338182" xlink:href="#mdf41eb1f7f" y="163.216283"/>
     <use style="fill:#ff0000;stroke:#ff0000;" x="513.687273" xlink:href="#mdf41eb1f7f" y="118.763813"/>
     <use style="fill:#ff0000;stroke:#ff0000;" x="538.036364" xlink:href="#mdf41eb1f7f" y="111.637087"/>
     <use style="fill:#ff0000;stroke:#ff0000;" x="562.385455" xlink:href="#mdf41eb1f7f" y="109.011702"/>
     <use style="fill:#ff0000;stroke:#ff0000;" x="586.734545" xlink:href="#mdf41eb1f7f" y="107.129677"/>
     <use style="fill:#ff0000;stroke:#ff0000;" x="611.083636" xlink:href="#mdf41eb1f7f" y="166.142289"/>
     <use style="fill:#ff0000;stroke:#ff0000;" x="635.432727" xlink:href="#mdf41eb1f7f" y="111.92374"/>
     <use style="fill:#ff0000;stroke:#ff0000;" x="659.781818" xlink:href="#mdf41eb1f7f" y="165.299721"/>
     <use style="fill:#ff0000;stroke:#ff0000;" x="684.130909" xlink:href="#mdf41eb1f7f" y="110.815369"/>
     <use style="fill:#ff0000;stroke:#ff0000;" x="708.48" xlink:href="#mdf41eb1f7f" y="162.482695"/>
     <use style="fill:#ff0000;stroke:#ff0000;" x="732.829091" xlink:href="#mdf41eb1f7f" y="477.759366"/>
     <use style="fill:#ff0000;stroke:#ff0000;" x="757.178182" xlink:href="#mdf41eb1f7f" y="572.534209"/>
     <use style="fill:#ff0000;stroke:#ff0000;" x="781.527273" xlink:href="#mdf41eb1f7f" y="593.064647"/>
     <use style="fill:#ff0000;stroke:#ff0000;" x="805.876364" xlink:href="#mdf41eb1f7f" y="600.436236"/>
     <use style="fill:#ff0000;stroke:#ff0000;" x="830.225455" xlink:href="#mdf41eb1f7f" y="604.653981"/>
     <use style="fill:#ff0000;stroke:#ff0000;" x="854.574545" xlink:href="#mdf41eb1f7f" y="607.523375"/>
     <use style="fill:#ff0000;stroke:#ff0000;" x="878.923636" xlink:href="#mdf41eb1f7f" y="609.605835"/>
     <use style="fill:#ff0000;stroke:#ff0000;" x="903.272727" xlink:href="#mdf41eb1f7f" y="611.175803"/>
     <use style="fill:#ff0000;stroke:#ff0000;" x="927.621818" xlink:href="#mdf41eb1f7f" y="612.394141"/>
     <use style="fill:#ff0000;stroke:#ff0000;" x="951.970909" xlink:href="#mdf41eb1f7f" y="261.890537"/>
     <use style="fill:#ff0000;stroke:#ff0000;" x="976.32" xlink:href="#mdf41eb1f7f" y="540.282161"/>
     <use style="fill:#ff0000;stroke:#ff0000;" x="1000.669091" xlink:href="#mdf41eb1f7f" y="601.307885"/>
     <use style="fill:#ff0000;stroke:#ff0000;" x="1025.018182" xlink:href="#mdf41eb1f7f" y="609.306586"/>
     <use style="fill:#ff0000;stroke:#ff0000;" x="1049.367273" xlink:href="#mdf41eb1f7f" y="610.969056"/>
     <use style="fill:#ff0000;stroke:#ff0000;" x="1073.716364" xlink:href="#mdf41eb1f7f" y="611.857828"/>
     <use style="fill:#ff0000;stroke:#ff0000;" x="1098.065455" xlink:href="#mdf41eb1f7f" y="612.567586"/>
     <use style="fill:#ff0000;stroke:#ff0000;" x="1122.414545" xlink:href="#mdf41eb1f7f" y="613.176374"/>
     <use style="fill:#ff0000;stroke:#ff0000;" x="1146.763636" xlink:href="#mdf41eb1f7f" y="613.706743"/>
     <use style="fill:#ff0000;stroke:#ff0000;" x="1171.112727" xlink:href="#mdf41eb1f7f" y="614.172616"/>
    </g>
   </g>
   <g id="line2d_49">
    <path clip-path="url(#p914a349326)" d="M 221.498182 594.07452 
L 245.847273 578.076064 
L 270.196364 574.055385 
L 294.545455 567.109224 
L 318.894545 584.685169 
L 343.243636 592.758737 
L 367.592727 597.441413 
L 391.941818 600.696002 
L 416.290909 603.129445 
L 440.64 605.020675 
L 464.989091 556.067467 
L 489.338182 588.44881 
L 513.687273 601.633008 
L 538.036364 604.472464 
L 562.385455 605.753873 
L 586.734545 606.733686 
L 611.083636 592.136752 
L 635.432727 605.370453 
L 659.781818 592.60788 
L 684.130909 605.891986 
L 708.48 593.307308 
L 732.829091 554.831895 
L 757.178182 575.937353 
L 781.527273 585.393297 
L 805.876364 590.769492 
L 830.225455 594.641263 
L 854.574545 597.639434 
L 878.923636 600.02978 
L 903.272727 601.973943 
L 927.621818 603.581806 
L 951.970909 570.30568 
L 976.32 584.280747 
L 1000.669091 600.206216 
L 1025.018182 603.388446 
L 1049.367273 604.654196 
L 1073.716364 605.604471 
L 1098.065455 606.429903 
L 1122.414545 607.164161 
L 1146.763636 607.822278 
L 1171.112727 608.415319 
" style="fill:none;stroke:#808080;stroke-linecap:square;stroke-width:1.5;"/>
    <defs>
     <path d="M 0 3 
C 0.795609 3 1.55874 2.683901 2.12132 2.12132 
C 2.683901 1.55874 3 0.795609 3 0 
C 3 -0.795609 2.683901 -1.55874 2.12132 -2.12132 
C 1.55874 -2.683901 0.795609 -3 0 -3 
C -0.795609 -3 -1.55874 -2.683901 -2.12132 -2.12132 
C -2.683901 -1.55874 -3 -0.795609 -3 0 
C -3 0.795609 -2.683901 1.55874 -2.12132 2.12132 
C -1.55874 2.683901 -0.795609 3 0 3 
z
" id="mc95737a175" style="stroke:#808080;"/>
    </defs>
    <g clip-path="url(#p914a349326)">
     <use style="fill:#808080;stroke:#808080;" x="221.498182" xlink:href="#mc95737a175" y="594.07452"/>
     <use style="fill:#808080;stroke:#808080;" x="245.847273" xlink:href="#mc95737a175" y="578.076064"/>
     <use style="fill:#808080;stroke:#808080;" x="270.196364" xlink:href="#mc95737a175" y="574.055385"/>
     <use style="fill:#808080;stroke:#808080;" x="294.545455" xlink:href="#mc95737a175" y="567.109224"/>
     <use style="fill:#808080;stroke:#808080;" x="318.894545" xlink:href="#mc95737a175" y="584.685169"/>
     <use style="fill:#808080;stroke:#808080;" x="343.243636" xlink:href="#mc95737a175" y="592.758737"/>
     <use style="fill:#808080;stroke:#808080;" x="367.592727" xlink:href="#mc95737a175" y="597.441413"/>
     <use style="fill:#808080;stroke:#808080;" x="391.941818" xlink:href="#mc95737a175" y="600.696002"/>
     <use style="fill:#808080;stroke:#808080;" x="416.290909" xlink:href="#mc95737a175" y="603.129445"/>
     <use style="fill:#808080;stroke:#808080;" x="440.64" xlink:href="#mc95737a175" y="605.020675"/>
     <use style="fill:#808080;stroke:#808080;" x="464.989091" xlink:href="#mc95737a175" y="556.067467"/>
     <use style="fill:#808080;stroke:#808080;" x="489.338182" xlink:href="#mc95737a175" y="588.44881"/>
     <use style="fill:#808080;stroke:#808080;" x="513.687273" xlink:href="#mc95737a175" y="601.633008"/>
     <use style="fill:#808080;stroke:#808080;" x="538.036364" xlink:href="#mc95737a175" y="604.472464"/>
     <use style="fill:#808080;stroke:#808080;" x="562.385455" xlink:href="#mc95737a175" y="605.753873"/>
     <use style="fill:#808080;stroke:#808080;" x="586.734545" xlink:href="#mc95737a175" y="606.733686"/>
     <use style="fill:#808080;stroke:#808080;" x="611.083636" xlink:href="#mc95737a175" y="592.136752"/>
     <use style="fill:#808080;stroke:#808080;" x="635.432727" xlink:href="#mc95737a175" y="605.370453"/>
     <use style="fill:#808080;stroke:#808080;" x="659.781818" xlink:href="#mc95737a175" y="592.60788"/>
     <use style="fill:#808080;stroke:#808080;" x="684.130909" xlink:href="#mc95737a175" y="605.891986"/>
     <use style="fill:#808080;stroke:#808080;" x="708.48" xlink:href="#mc95737a175" y="593.307308"/>
     <use style="fill:#808080;stroke:#808080;" x="732.829091" xlink:href="#mc95737a175" y="554.831895"/>
     <use style="fill:#808080;stroke:#808080;" x="757.178182" xlink:href="#mc95737a175" y="575.937353"/>
     <use style="fill:#808080;stroke:#808080;" x="781.527273" xlink:href="#mc95737a175" y="585.393297"/>
     <use style="fill:#808080;stroke:#808080;" x="805.876364" xlink:href="#mc95737a175" y="590.769492"/>
     <use style="fill:#808080;stroke:#808080;" x="830.225455" xlink:href="#mc95737a175" y="594.641263"/>
     <use style="fill:#808080;stroke:#808080;" x="854.574545" xlink:href="#mc95737a175" y="597.639434"/>
     <use style="fill:#808080;stroke:#808080;" x="878.923636" xlink:href="#mc95737a175" y="600.02978"/>
     <use style="fill:#808080;stroke:#808080;" x="903.272727" xlink:href="#mc95737a175" y="601.973943"/>
     <use style="fill:#808080;stroke:#808080;" x="927.621818" xlink:href="#mc95737a175" y="603.581806"/>
     <use style="fill:#808080;stroke:#808080;" x="951.970909" xlink:href="#mc95737a175" y="570.30568"/>
     <use style="fill:#808080;stroke:#808080;" x="976.32" xlink:href="#mc95737a175" y="584.280747"/>
     <use style="fill:#808080;stroke:#808080;" x="1000.669091" xlink:href="#mc95737a175" y="600.206216"/>
     <use style="fill:#808080;stroke:#808080;" x="1025.018182" xlink:href="#mc95737a175" y="603.388446"/>
     <use style="fill:#808080;stroke:#808080;" x="1049.367273" xlink:href="#mc95737a175" y="604.654196"/>
     <use style="fill:#808080;stroke:#808080;" x="1073.716364" xlink:href="#mc95737a175" y="605.604471"/>
     <use style="fill:#808080;stroke:#808080;" x="1098.065455" xlink:href="#mc95737a175" y="606.429903"/>
     <use style="fill:#808080;stroke:#808080;" x="1122.414545" xlink:href="#mc95737a175" y="607.164161"/>
     <use style="fill:#808080;stroke:#808080;" x="1146.763636" xlink:href="#mc95737a175" y="607.822278"/>
     <use style="fill:#808080;stroke:#808080;" x="1171.112727" xlink:href="#mc95737a175" y="608.415319"/>
    </g>
   </g>
   <g id="patch_5">
    <path d="M 172.8 620.9352 
L 172.8 83.7216 
" style="fill:none;stroke:#000000;stroke-linecap:square;stroke-linejoin:miter;stroke-width:0.8;"/>
   </g>
   <g id="patch_6">
    <path d="M 1244.16 620.9352 
L 1244.16 83.7216 
" style="fill:none;stroke:#000000;stroke-linecap:square;stroke-linejoin:miter;stroke-width:0.8;"/>
   </g>
   <g id="patch_7">
    <path d="M 172.8 620.9352 
L 1244.16 620.9352 
" style="fill:none;stroke:#000000;stroke-linecap:square;stroke-linejoin:miter;stroke-width:0.8;"/>
   </g>
   <g id="patch_8">
    <path d="M 172.8 83.7216 
L 1244.16 83.7216 
" style="fill:none;stroke:#000000;stroke-linecap:square;stroke-linejoin:miter;stroke-width:0.8;"/>
   </g>
   <g id="text_49">
    <!-- Healthy-optimistic -->
    <g transform="translate(594.146016 77.7216)scale(0.25 -0.25)">
     <defs>
      <path d="M 628 4666 
L 1259 4666 
L 1259 2753 
L 3553 2753 
L 3553 4666 
L 4184 4666 
L 4184 0 
L 3553 0 
L 3553 2222 
L 1259 2222 
L 1259 0 
L 628 0 
L 628 4666 
z
" id="DejaVuSans-48" transform="scale(0.015625)"/>
      <path d="M 3597 1894 
L 3597 1613 
L 953 1613 
Q 991 1019 1311 708 
Q 1631 397 2203 397 
Q 2534 397 2845 478 
Q 3156 559 3463 722 
L 3463 178 
Q 3153 47 2828 -22 
Q 2503 -91 2169 -91 
Q 1331 -91 842 396 
Q 353 884 353 1716 
Q 353 2575 817 3079 
Q 1281 3584 2069 3584 
Q 2775 3584 3186 3129 
Q 3597 2675 3597 1894 
z
M 3022 2063 
Q 3016 2534 2758 2815 
Q 2500 3097 2075 3097 
Q 1594 3097 1305 2825 
Q 1016 2553 972 2059 
L 3022 2063 
z
" id="DejaVuSans-65" transform="scale(0.015625)"/>
      <path d="M 2194 1759 
Q 1497 1759 1228 1600 
Q 959 1441 959 1056 
Q 959 750 1161 570 
Q 1363 391 1709 391 
Q 2188 391 2477 730 
Q 2766 1069 2766 1631 
L 2766 1759 
L 2194 1759 
z
M 3341 1997 
L 3341 0 
L 2766 0 
L 2766 531 
Q 2569 213 2275 61 
Q 1981 -91 1556 -91 
Q 1019 -91 701 211 
Q 384 513 384 1019 
Q 384 1609 779 1909 
Q 1175 2209 1959 2209 
L 2766 2209 
L 2766 2266 
Q 2766 2663 2505 2880 
Q 2244 3097 1772 3097 
Q 1472 3097 1187 3025 
Q 903 2953 641 2809 
L 641 3341 
Q 956 3463 1253 3523 
Q 1550 3584 1831 3584 
Q 2591 3584 2966 3190 
Q 3341 2797 3341 1997 
z
" id="DejaVuSans-61" transform="scale(0.015625)"/>
      <path d="M 603 4863 
L 1178 4863 
L 1178 0 
L 603 0 
L 603 4863 
z
" id="DejaVuSans-6c" transform="scale(0.015625)"/>
      <path d="M 1172 4494 
L 1172 3500 
L 2356 3500 
L 2356 3053 
L 1172 3053 
L 1172 1153 
Q 1172 725 1289 603 
Q 1406 481 1766 481 
L 2356 481 
L 2356 0 
L 1766 0 
Q 1100 0 847 248 
Q 594 497 594 1153 
L 594 3053 
L 172 3053 
L 172 3500 
L 594 3500 
L 594 4494 
L 1172 4494 
z
" id="DejaVuSans-74" transform="scale(0.015625)"/>
      <path d="M 3513 2113 
L 3513 0 
L 2938 0 
L 2938 2094 
Q 2938 2591 2744 2837 
Q 2550 3084 2163 3084 
Q 1697 3084 1428 2787 
Q 1159 2491 1159 1978 
L 1159 0 
L 581 0 
L 581 4863 
L 1159 4863 
L 1159 2956 
Q 1366 3272 1645 3428 
Q 1925 3584 2291 3584 
Q 2894 3584 3203 3211 
Q 3513 2838 3513 2113 
z
" id="DejaVuSans-68" transform="scale(0.015625)"/>
      <path d="M 2059 -325 
Q 1816 -950 1584 -1140 
Q 1353 -1331 966 -1331 
L 506 -1331 
L 506 -850 
L 844 -850 
Q 1081 -850 1212 -737 
Q 1344 -625 1503 -206 
L 1606 56 
L 191 3500 
L 800 3500 
L 1894 763 
L 2988 3500 
L 3597 3500 
L 2059 -325 
z
" id="DejaVuSans-79" transform="scale(0.015625)"/>
      <path d="M 313 2009 
L 1997 2009 
L 1997 1497 
L 313 1497 
L 313 2009 
z
" id="DejaVuSans-2d" transform="scale(0.015625)"/>
      <path d="M 1959 3097 
Q 1497 3097 1228 2736 
Q 959 2375 959 1747 
Q 959 1119 1226 758 
Q 1494 397 1959 397 
Q 2419 397 2687 759 
Q 2956 1122 2956 1747 
Q 2956 2369 2687 2733 
Q 2419 3097 1959 3097 
z
M 1959 3584 
Q 2709 3584 3137 3096 
Q 3566 2609 3566 1747 
Q 3566 888 3137 398 
Q 2709 -91 1959 -91 
Q 1206 -91 779 398 
Q 353 888 353 1747 
Q 353 2609 779 3096 
Q 1206 3584 1959 3584 
z
" id="DejaVuSans-6f" transform="scale(0.015625)"/>
      <path d="M 1159 525 
L 1159 -1331 
L 581 -1331 
L 581 3500 
L 1159 3500 
L 1159 2969 
Q 1341 3281 1617 3432 
Q 1894 3584 2278 3584 
Q 2916 3584 3314 3078 
Q 3713 2572 3713 1747 
Q 3713 922 3314 415 
Q 2916 -91 2278 -91 
Q 1894 -91 1617 61 
Q 1341 213 1159 525 
z
M 3116 1747 
Q 3116 2381 2855 2742 
Q 2594 3103 2138 3103 
Q 1681 3103 1420 2742 
Q 1159 2381 1159 1747 
Q 1159 1113 1420 752 
Q 1681 391 2138 391 
Q 2594 391 2855 752 
Q 3116 1113 3116 1747 
z
" id="DejaVuSans-70" transform="scale(0.015625)"/>
      <path d="M 603 3500 
L 1178 3500 
L 1178 0 
L 603 0 
L 603 3500 
z
M 603 4863 
L 1178 4863 
L 1178 4134 
L 603 4134 
L 603 4863 
z
" id="DejaVuSans-69" transform="scale(0.015625)"/>
      <path d="M 3328 2828 
Q 3544 3216 3844 3400 
Q 4144 3584 4550 3584 
Q 5097 3584 5394 3201 
Q 5691 2819 5691 2113 
L 5691 0 
L 5113 0 
L 5113 2094 
Q 5113 2597 4934 2840 
Q 4756 3084 4391 3084 
Q 3944 3084 3684 2787 
Q 3425 2491 3425 1978 
L 3425 0 
L 2847 0 
L 2847 2094 
Q 2847 2600 2669 2842 
Q 2491 3084 2119 3084 
Q 1678 3084 1418 2786 
Q 1159 2488 1159 1978 
L 1159 0 
L 581 0 
L 581 3500 
L 1159 3500 
L 1159 2956 
Q 1356 3278 1631 3431 
Q 1906 3584 2284 3584 
Q 2666 3584 2933 3390 
Q 3200 3197 3328 2828 
z
" id="DejaVuSans-6d" transform="scale(0.015625)"/>
      <path d="M 2834 3397 
L 2834 2853 
Q 2591 2978 2328 3040 
Q 2066 3103 1784 3103 
Q 1356 3103 1142 2972 
Q 928 2841 928 2578 
Q 928 2378 1081 2264 
Q 1234 2150 1697 2047 
L 1894 2003 
Q 2506 1872 2764 1633 
Q 3022 1394 3022 966 
Q 3022 478 2636 193 
Q 2250 -91 1575 -91 
Q 1294 -91 989 -36 
Q 684 19 347 128 
L 347 722 
Q 666 556 975 473 
Q 1284 391 1588 391 
Q 1994 391 2212 530 
Q 2431 669 2431 922 
Q 2431 1156 2273 1281 
Q 2116 1406 1581 1522 
L 1381 1569 
Q 847 1681 609 1914 
Q 372 2147 372 2553 
Q 372 3047 722 3315 
Q 1072 3584 1716 3584 
Q 2034 3584 2315 3537 
Q 2597 3491 2834 3397 
z
" id="DejaVuSans-73" transform="scale(0.015625)"/>
      <path d="M 3122 3366 
L 3122 2828 
Q 2878 2963 2633 3030 
Q 2388 3097 2138 3097 
Q 1578 3097 1268 2742 
Q 959 2388 959 1747 
Q 959 1106 1268 751 
Q 1578 397 2138 397 
Q 2388 397 2633 464 
Q 2878 531 3122 666 
L 3122 134 
Q 2881 22 2623 -34 
Q 2366 -91 2075 -91 
Q 1284 -91 818 406 
Q 353 903 353 1747 
Q 353 2603 823 3093 
Q 1294 3584 2113 3584 
Q 2378 3584 2631 3529 
Q 2884 3475 3122 3366 
z
" id="DejaVuSans-63" transform="scale(0.015625)"/>
     </defs>
     <use xlink:href="#DejaVuSans-48"/>
     <use x="75.195312" xlink:href="#DejaVuSans-65"/>
     <use x="136.71875" xlink:href="#DejaVuSans-61"/>
     <use x="197.998047" xlink:href="#DejaVuSans-6c"/>
     <use x="225.78125" xlink:href="#DejaVuSans-74"/>
     <use x="264.990234" xlink:href="#DejaVuSans-68"/>
     <use x="328.369141" xlink:href="#DejaVuSans-79"/>
     <use x="385.798828" xlink:href="#DejaVuSans-2d"/>
     <use x="423.757812" xlink:href="#DejaVuSans-6f"/>
     <use x="484.939453" xlink:href="#DejaVuSans-70"/>
     <use x="548.416016" xlink:href="#DejaVuSans-74"/>
     <use x="587.625" xlink:href="#DejaVuSans-69"/>
     <use x="615.408203" xlink:href="#DejaVuSans-6d"/>
     <use x="712.820312" xlink:href="#DejaVuSans-69"/>
     <use x="740.603516" xlink:href="#DejaVuSans-73"/>
     <use x="792.703125" xlink:href="#DejaVuSans-74"/>
     <use x="831.912109" xlink:href="#DejaVuSans-69"/>
     <use x="859.695312" xlink:href="#DejaVuSans-63"/>
    </g>
   </g>
   <g id="legend_1">
    <g id="patch_9">
     <path d="M 179.8 150.4341 
L 271.046875 150.4341 
Q 273.046875 150.4341 273.046875 148.4341 
L 273.046875 90.7216 
Q 273.046875 88.7216 271.046875 88.7216 
L 179.8 88.7216 
Q 177.8 88.7216 177.8 90.7216 
L 177.8 148.4341 
Q 177.8 150.4341 179.8 150.4341 
z
" style="fill:#ffffff;opacity:0.8;stroke:#cccccc;stroke-linejoin:miter;"/>
    </g>
    <g id="line2d_50">
     <path d="M 181.8 96.820037 
L 201.8 96.820037 
" style="fill:none;stroke:#0000ff;stroke-linecap:square;stroke-width:1.5;"/>
    </g>
    <g id="line2d_51">
     <g>
      <use style="fill:#0000ff;stroke:#0000ff;" x="191.8" xlink:href="#mebc272e481" y="96.820037"/>
     </g>
    </g>
    <g id="text_50">
     <!-- cooperative -->
     <g transform="translate(209.8 100.320037)scale(0.1 -0.1)">
      <defs>
       <path d="M 2631 2963 
Q 2534 3019 2420 3045 
Q 2306 3072 2169 3072 
Q 1681 3072 1420 2755 
Q 1159 2438 1159 1844 
L 1159 0 
L 581 0 
L 581 3500 
L 1159 3500 
L 1159 2956 
Q 1341 3275 1631 3429 
Q 1922 3584 2338 3584 
Q 2397 3584 2469 3576 
Q 2541 3569 2628 3553 
L 2631 2963 
z
" id="DejaVuSans-72" transform="scale(0.015625)"/>
       <path d="M 191 3500 
L 800 3500 
L 1894 563 
L 2988 3500 
L 3597 3500 
L 2284 0 
L 1503 0 
L 191 3500 
z
" id="DejaVuSans-76" transform="scale(0.015625)"/>
      </defs>
      <use xlink:href="#DejaVuSans-63"/>
      <use x="54.980469" xlink:href="#DejaVuSans-6f"/>
      <use x="116.162109" xlink:href="#DejaVuSans-6f"/>
      <use x="177.34375" xlink:href="#DejaVuSans-70"/>
      <use x="240.820312" xlink:href="#DejaVuSans-65"/>
      <use x="302.34375" xlink:href="#DejaVuSans-72"/>
      <use x="343.457031" xlink:href="#DejaVuSans-61"/>
      <use x="404.736328" xlink:href="#DejaVuSans-74"/>
      <use x="443.945312" xlink:href="#DejaVuSans-69"/>
      <use x="471.728516" xlink:href="#DejaVuSans-76"/>
      <use x="530.908203" xlink:href="#DejaVuSans-65"/>
     </g>
    </g>
    <g id="line2d_52">
     <path d="M 181.8 111.498162 
L 201.8 111.498162 
" style="fill:none;stroke:#ff0000;stroke-linecap:square;stroke-width:1.5;"/>
    </g>
    <g id="line2d_53">
     <g>
      <use style="fill:#ff0000;stroke:#ff0000;" x="191.8" xlink:href="#mdf41eb1f7f" y="111.498162"/>
     </g>
    </g>
    <g id="text_51">
     <!-- hostile -->
     <g transform="translate(209.8 114.998162)scale(0.1 -0.1)">
      <use xlink:href="#DejaVuSans-68"/>
      <use x="63.378906" xlink:href="#DejaVuSans-6f"/>
      <use x="124.560547" xlink:href="#DejaVuSans-73"/>
      <use x="176.660156" xlink:href="#DejaVuSans-74"/>
      <use x="215.869141" xlink:href="#DejaVuSans-69"/>
      <use x="243.652344" xlink:href="#DejaVuSans-6c"/>
      <use x="271.435547" xlink:href="#DejaVuSans-65"/>
     </g>
    </g>
    <g id="line2d_54">
     <path d="M 181.8 126.176287 
L 201.8 126.176287 
" style="fill:none;stroke:#808080;stroke-linecap:square;stroke-width:1.5;"/>
    </g>
    <g id="line2d_55">
     <g>
      <use style="fill:#808080;stroke:#808080;" x="191.8" xlink:href="#mc95737a175" y="126.176287"/>
     </g>
    </g>
    <g id="text_52">
     <!-- random -->
     <g transform="translate(209.8 129.676287)scale(0.1 -0.1)">
      <defs>
       <path d="M 3513 2113 
L 3513 0 
L 2938 0 
L 2938 2094 
Q 2938 2591 2744 2837 
Q 2550 3084 2163 3084 
Q 1697 3084 1428 2787 
Q 1159 2491 1159 1978 
L 1159 0 
L 581 0 
L 581 3500 
L 1159 3500 
L 1159 2956 
Q 1366 3272 1645 3428 
Q 1925 3584 2291 3584 
Q 2894 3584 3203 3211 
Q 3513 2838 3513 2113 
z
" id="DejaVuSans-6e" transform="scale(0.015625)"/>
       <path d="M 2906 2969 
L 2906 4863 
L 3481 4863 
L 3481 0 
L 2906 0 
L 2906 525 
Q 2725 213 2448 61 
Q 2172 -91 1784 -91 
Q 1150 -91 751 415 
Q 353 922 353 1747 
Q 353 2572 751 3078 
Q 1150 3584 1784 3584 
Q 2172 3584 2448 3432 
Q 2725 3281 2906 2969 
z
M 947 1747 
Q 947 1113 1208 752 
Q 1469 391 1925 391 
Q 2381 391 2643 752 
Q 2906 1113 2906 1747 
Q 2906 2381 2643 2742 
Q 2381 3103 1925 3103 
Q 1469 3103 1208 2742 
Q 947 2381 947 1747 
z
" id="DejaVuSans-64" transform="scale(0.015625)"/>
      </defs>
      <use xlink:href="#DejaVuSans-72"/>
      <use x="41.113281" xlink:href="#DejaVuSans-61"/>
      <use x="102.392578" xlink:href="#DejaVuSans-6e"/>
      <use x="165.771484" xlink:href="#DejaVuSans-64"/>
      <use x="229.248047" xlink:href="#DejaVuSans-6f"/>
      <use x="290.429688" xlink:href="#DejaVuSans-6d"/>
     </g>
    </g>
    <g id="PathCollection_2">
     <path d="M 191.8 147.853137 
L 197.923724 135.605688 
L 185.676276 135.605688 
z
" style="fill:#ff0000;stroke:#ff0000;"/>
    </g>
    <g id="text_53">
     <!-- action -->
     <g transform="translate(209.8 144.354412)scale(0.1 -0.1)">
      <use xlink:href="#DejaVuSans-61"/>
      <use x="61.279297" xlink:href="#DejaVuSans-63"/>
      <use x="116.259766" xlink:href="#DejaVuSans-74"/>
      <use x="155.46875" xlink:href="#DejaVuSans-69"/>
      <use x="183.251953" xlink:href="#DejaVuSans-6f"/>
      <use x="244.433594" xlink:href="#DejaVuSans-6e"/>
     </g>
    </g>
   </g>
  </g>
 </g>
 <defs>
  <clipPath id="p914a349326">
   <rect height="537.2136" width="1071.36" x="172.8" y="83.7216"/>
  </clipPath>
 </defs>
</svg>
