<?xml version="1.0" encoding="utf-8" standalone="no"?>
<!DOCTYPE svg PUBLIC "-//W3C//DTD SVG 1.1//EN"
  "http://www.w3.org/Graphics/SVG/1.1/DTD/svg11.dtd">
<svg height="697.68pt" version="1.1" viewBox="0 0 1382.4 697.68" width="1382.4pt" xmlns="http://www.w3.org/2000/svg" xmlns:xlink="http://www.w3.org/1999/xlink">
 <metadata>
  <rdf:RDF xmlns:cc="http://creativecommons.org/ns#" xmlns:dc="http://purl.org/dc/elements/1.1/" xmlns:rdf="http://www.w3.org/1999/02/22-rdf-syntax-ns#">
   <cc:Work>
    <dc:type rdf:resource="http://purl.org/dc/dcmitype/StillImage"/>
    <dc:date>2023-10-20T11:15:49.915347</dc:date>
    <dc:format>image/svg+xml</dc:format>
    <dc:creator>
     <cc:Agent>
      <dc:title>Matplotlib v3.4.3, https://matplotlib.org/</dc:title>
     </cc:Agent>
    </dc:creator>
   </cc:Work>
  </rdf:RDF>
 </metadata>
 <defs>
  <style type="text/css">*{stroke-linecap:butt;stroke-linejoin:round;}</style>
 </defs>
 <g id="figure_1">
  <g id="patch_1">
   <path d="M 0 697.68 
L 1382.4 697.68 
L 1382.4 0 
L 0 0 
z
" style="fill:#ffffff;"/>
  </g>
  <g id="axes_1">
   <g id="patch_2">
    <path d="M 172.8 620.9352 
L 1244.16 620.9352 
L 1244.16 83.7216 
L 172.8 83.7216 
z
" style="fill:#ffffff;"/>
   </g>
   <g id="PathCollection_1">
    <path clip-path="url(#p32f4d413d3)" d="M 233.672727 156.911858 
L 239.796452 144.664409 
L 227.549003 144.664409 
z
" style="fill:#ff0000;stroke:#ff0000;"/>
    <path clip-path="url(#p32f4d413d3)" d="M 258.021818 112.212509 
L 264.145543 99.965061 
L 251.898094 99.965061 
z
" style="fill:#ff0000;stroke:#ff0000;"/>
    <path clip-path="url(#p32f4d413d3)" d="M 282.370909 105.670331 
L 288.494633 93.422882 
L 276.247185 93.422882 
z
" style="fill:#ff0000;stroke:#ff0000;"/>
    <path clip-path="url(#p32f4d413d3)" d="M 303.658138 119.965901 
L 306.72 116.904039 
L 309.781862 119.965901 
L 312.843724 116.904039 
L 309.781862 113.842176 
L 312.843724 110.780314 
L 309.781862 107.718452 
L 306.72 110.780314 
L 303.658138 107.718452 
L 300.596276 110.780314 
L 303.658138 113.842176 
L 300.596276 116.904039 
z
" style="stroke:#000000;"/>
    <path clip-path="url(#p32f4d413d3)" d="M 328.007229 141.784916 
L 331.069091 138.723054 
L 334.130953 141.784916 
L 337.192815 138.723054 
L 334.130953 135.661192 
L 337.192815 132.59933 
L 334.130953 129.537467 
L 331.069091 132.59933 
L 328.007229 129.537467 
L 324.945367 132.59933 
L 328.007229 135.661192 
L 324.945367 138.723054 
z
" style="stroke:#000000;"/>
    <path clip-path="url(#p32f4d413d3)" d="M 352.35632 149.335093 
L 355.418182 146.273231 
L 358.480044 149.335093 
L 361.541906 146.273231 
L 358.480044 143.211369 
L 361.541906 140.149507 
L 358.480044 137.087645 
L 355.418182 140.149507 
L 352.35632 137.087645 
L 349.294457 140.149507 
L 352.35632 143.211369 
L 349.294457 146.273231 
z
" style="stroke:#000000;"/>
    <path clip-path="url(#p32f4d413d3)" d="M 376.705411 152.61299 
L 379.767273 149.551128 
L 382.829135 152.61299 
L 385.890997 149.551128 
L 382.829135 146.489265 
L 385.890997 143.427403 
L 382.829135 140.365541 
L 379.767273 143.427403 
L 376.705411 140.365541 
L 373.643548 143.427403 
L 376.705411 146.489265 
L 373.643548 149.551128 
z
" style="stroke:#000000;"/>
    <path clip-path="url(#p32f4d413d3)" d="M 401.054501 154.150179 
L 404.116364 151.088316 
L 407.178226 154.150179 
L 410.240088 151.088316 
L 407.178226 148.026454 
L 410.240088 144.964592 
L 407.178226 141.90273 
L 404.116364 144.964592 
L 401.054501 141.90273 
L 397.992639 144.964592 
L 401.054501 148.026454 
L 397.992639 151.088316 
z
" style="stroke:#000000;"/>
    <path clip-path="url(#p32f4d413d3)" d="M 425.403592 154.928588 
L 428.465455 151.866726 
L 431.527317 154.928588 
L 434.589179 151.866726 
L 431.527317 148.804864 
L 434.589179 145.743001 
L 431.527317 142.681139 
L 428.465455 145.743001 
L 425.403592 142.681139 
L 422.34173 145.743001 
L 425.403592 148.804864 
L 422.34173 151.866726 
z
" style="stroke:#000000;"/>
    <path clip-path="url(#p32f4d413d3)" d="M 449.752683 155.368992 
L 452.814545 152.30713 
L 455.876408 155.368992 
L 458.93827 152.30713 
L 455.876408 149.245268 
L 458.93827 146.183406 
L 455.876408 143.121544 
L 452.814545 146.183406 
L 449.752683 143.121544 
L 446.690821 146.183406 
L 449.752683 149.245268 
L 446.690821 152.30713 
z
" style="stroke:#000000;"/>
    <path clip-path="url(#p32f4d413d3)" d="M 474.101774 155.649273 
L 477.163636 152.587411 
L 480.225499 155.649273 
L 483.287361 152.587411 
L 480.225499 149.525549 
L 483.287361 146.463686 
L 480.225499 143.401824 
L 477.163636 146.463686 
L 474.101774 143.401824 
L 471.039912 146.463686 
L 474.101774 149.525549 
L 471.039912 152.587411 
z
" style="stroke:#000000;"/>
    <path clip-path="url(#p32f4d413d3)" d="M 498.450865 155.844973 
L 501.512727 152.783111 
L 504.574589 155.844973 
L 507.636452 152.783111 
L 504.574589 149.721249 
L 507.636452 146.659387 
L 504.574589 143.597525 
L 501.512727 146.659387 
L 498.450865 143.597525 
L 495.389003 146.659387 
L 498.450865 149.721249 
L 495.389003 152.783111 
z
" style="stroke:#000000;"/>
    <path clip-path="url(#p32f4d413d3)" d="M 522.799956 155.990257 
L 525.861818 152.928395 
L 528.92368 155.990257 
L 531.985543 152.928395 
L 528.92368 149.866532 
L 531.985543 146.80467 
L 528.92368 143.742808 
L 525.861818 146.80467 
L 522.799956 143.742808 
L 519.738094 146.80467 
L 522.799956 149.866532 
L 519.738094 152.928395 
z
" style="stroke:#000000;"/>
    <path clip-path="url(#p32f4d413d3)" d="M 547.149047 156.102411 
L 550.210909 153.040549 
L 553.272771 156.102411 
L 556.334633 153.040549 
L 553.272771 149.978687 
L 556.334633 146.916825 
L 553.272771 143.854962 
L 550.210909 146.916825 
L 547.149047 143.854962 
L 544.087185 146.916825 
L 547.149047 149.978687 
L 544.087185 153.040549 
z
" style="stroke:#000000;"/>
    <path clip-path="url(#p32f4d413d3)" d="M 571.498138 156.191319 
L 574.56 153.129457 
L 577.621862 156.191319 
L 580.683724 153.129457 
L 577.621862 150.067595 
L 580.683724 147.005733 
L 577.621862 143.943871 
L 574.56 147.005733 
L 571.498138 143.943871 
L 568.436276 147.005733 
L 571.498138 150.067595 
L 568.436276 153.129457 
z
" style="stroke:#000000;"/>
    <path clip-path="url(#p32f4d413d3)" d="M 595.847229 156.263207 
L 598.909091 153.201345 
L 601.970953 156.263207 
L 605.032815 153.201345 
L 601.970953 150.139483 
L 605.032815 147.07762 
L 601.970953 144.015758 
L 598.909091 147.07762 
L 595.847229 144.015758 
L 592.785367 147.07762 
L 595.847229 150.139483 
L 592.785367 153.201345 
z
" style="stroke:#000000;"/>
    <path clip-path="url(#p32f4d413d3)" d="M 620.19632 156.322259 
L 623.258182 153.260397 
L 626.320044 156.322259 
L 629.381906 153.260397 
L 626.320044 150.198535 
L 629.381906 147.136673 
L 626.320044 144.07481 
L 623.258182 147.136673 
L 620.19632 144.07481 
L 617.134457 147.136673 
L 620.19632 150.198535 
L 617.134457 153.260397 
z
" style="stroke:#000000;"/>
    <path clip-path="url(#p32f4d413d3)" d="M 644.545411 156.371414 
L 647.607273 153.309552 
L 650.669135 156.371414 
L 653.730997 153.309552 
L 650.669135 150.24769 
L 653.730997 147.185828 
L 650.669135 144.123966 
L 647.607273 147.185828 
L 644.545411 144.123966 
L 641.483548 147.185828 
L 644.545411 150.24769 
L 641.483548 153.309552 
z
" style="stroke:#000000;"/>
    <path clip-path="url(#p32f4d413d3)" d="M 668.894501 156.412799 
L 671.956364 153.350937 
L 675.018226 156.412799 
L 678.080088 153.350937 
L 675.018226 150.289075 
L 678.080088 147.227213 
L 675.018226 144.165351 
L 671.956364 147.227213 
L 668.894501 144.165351 
L 665.832639 147.227213 
L 668.894501 150.289075 
L 665.832639 153.350937 
z
" style="stroke:#000000;"/>
    <path clip-path="url(#p32f4d413d3)" d="M 693.243592 156.44799 
L 696.305455 153.386128 
L 699.367317 156.44799 
L 702.429179 153.386128 
L 699.367317 150.324266 
L 702.429179 147.262404 
L 699.367317 144.200542 
L 696.305455 147.262404 
L 693.243592 144.200542 
L 690.18173 147.262404 
L 693.243592 150.324266 
L 690.18173 153.386128 
z
" style="stroke:#000000;"/>
    <path clip-path="url(#p32f4d413d3)" d="M 717.592683 156.478178 
L 720.654545 153.416316 
L 723.716408 156.478178 
L 726.77827 153.416316 
L 723.716408 150.354454 
L 726.77827 147.292592 
L 723.716408 144.230729 
L 720.654545 147.292592 
L 717.592683 144.230729 
L 714.530821 147.292592 
L 717.592683 150.354454 
L 714.530821 153.416316 
z
" style="stroke:#000000;"/>
    <path clip-path="url(#p32f4d413d3)" d="M 741.941774 156.504277 
L 745.003636 153.442415 
L 748.065499 156.504277 
L 751.127361 153.442415 
L 748.065499 150.380553 
L 751.127361 147.318691 
L 748.065499 144.256829 
L 745.003636 147.318691 
L 741.941774 144.256829 
L 738.879912 147.318691 
L 741.941774 150.380553 
L 738.879912 153.442415 
z
" style="stroke:#000000;"/>
    <path clip-path="url(#p32f4d413d3)" d="M 766.290865 156.527001 
L 769.352727 153.465139 
L 772.414589 156.527001 
L 775.476452 153.465139 
L 772.414589 150.403276 
L 775.476452 147.341414 
L 772.414589 144.279552 
L 769.352727 147.341414 
L 766.290865 144.279552 
L 763.229003 147.341414 
L 766.290865 150.403276 
L 763.229003 153.465139 
z
" style="stroke:#000000;"/>
    <path clip-path="url(#p32f4d413d3)" d="M 790.639956 156.546911 
L 793.701818 153.485049 
L 796.76368 156.546911 
L 799.825543 153.485049 
L 796.76368 150.423187 
L 799.825543 147.361325 
L 796.76368 144.299462 
L 793.701818 147.361325 
L 790.639956 144.299462 
L 787.578094 147.361325 
L 790.639956 150.423187 
L 787.578094 153.485049 
z
" style="stroke:#000000;"/>
    <path clip-path="url(#p32f4d413d3)" d="M 814.989047 156.564457 
L 818.050909 153.502595 
L 821.112771 156.564457 
L 824.174633 153.502595 
L 821.112771 150.440733 
L 824.174633 147.378871 
L 821.112771 144.317009 
L 818.050909 147.378871 
L 814.989047 144.317009 
L 811.927185 147.378871 
L 814.989047 150.440733 
L 811.927185 153.502595 
z
" style="stroke:#000000;"/>
    <path clip-path="url(#p32f4d413d3)" d="M 839.338138 156.580002 
L 842.4 153.51814 
L 845.461862 156.580002 
L 848.523724 153.51814 
L 845.461862 150.456278 
L 848.523724 147.394416 
L 845.461862 144.332554 
L 842.4 147.394416 
L 839.338138 144.332554 
L 836.276276 147.394416 
L 839.338138 150.456278 
L 836.276276 153.51814 
z
" style="stroke:#000000;"/>
    <path clip-path="url(#p32f4d413d3)" d="M 863.687229 156.593841 
L 866.749091 153.531979 
L 869.810953 156.593841 
L 872.872815 153.531979 
L 869.810953 150.470116 
L 872.872815 147.408254 
L 869.810953 144.346392 
L 866.749091 147.408254 
L 863.687229 144.346392 
L 860.625367 147.408254 
L 863.687229 150.470116 
L 860.625367 153.531979 
z
" style="stroke:#000000;"/>
    <path clip-path="url(#p32f4d413d3)" d="M 888.03632 156.606215 
L 891.098182 153.544353 
L 894.160044 156.606215 
L 897.221906 153.544353 
L 894.160044 150.482491 
L 897.221906 147.420628 
L 894.160044 144.358766 
L 891.098182 147.420628 
L 888.03632 144.358766 
L 884.974457 147.420628 
L 888.03632 150.482491 
L 884.974457 153.544353 
z
" style="stroke:#000000;"/>
    <path clip-path="url(#p32f4d413d3)" d="M 912.385411 156.617326 
L 915.447273 153.555463 
L 918.509135 156.617326 
L 921.570997 153.555463 
L 918.509135 150.493601 
L 921.570997 147.431739 
L 918.509135 144.369877 
L 915.447273 147.431739 
L 912.385411 144.369877 
L 909.323548 147.431739 
L 912.385411 150.493601 
L 909.323548 153.555463 
z
" style="stroke:#000000;"/>
    <path clip-path="url(#p32f4d413d3)" d="M 936.734501 156.62734 
L 939.796364 153.565478 
L 942.858226 156.62734 
L 945.920088 153.565478 
L 942.858226 150.503615 
L 945.920088 147.441753 
L 942.858226 144.379891 
L 939.796364 147.441753 
L 936.734501 144.379891 
L 933.672639 147.441753 
L 936.734501 150.503615 
L 933.672639 153.565478 
z
" style="stroke:#000000;"/>
    <path clip-path="url(#p32f4d413d3)" d="M 961.083592 156.636398 
L 964.145455 153.574536 
L 967.207317 156.636398 
L 970.269179 153.574536 
L 967.207317 150.512674 
L 970.269179 147.450811 
L 967.207317 144.388949 
L 964.145455 147.450811 
L 961.083592 144.388949 
L 958.02173 147.450811 
L 961.083592 150.512674 
L 958.02173 153.574536 
z
" style="stroke:#000000;"/>
    <path clip-path="url(#p32f4d413d3)" d="M 985.432683 156.644618 
L 988.494545 153.582756 
L 991.556408 156.644618 
L 994.61827 153.582756 
L 991.556408 150.520894 
L 994.61827 147.459032 
L 991.556408 144.39717 
L 988.494545 147.459032 
L 985.432683 144.39717 
L 982.370821 147.459032 
L 985.432683 150.520894 
L 982.370821 153.582756 
z
" style="stroke:#000000;"/>
    <path clip-path="url(#p32f4d413d3)" d="M 1009.781774 156.652102 
L 1012.843636 153.590239 
L 1015.905499 156.652102 
L 1018.967361 153.590239 
L 1015.905499 150.528377 
L 1018.967361 147.466515 
L 1015.905499 144.404653 
L 1012.843636 147.466515 
L 1009.781774 144.404653 
L 1006.719912 147.466515 
L 1009.781774 150.528377 
L 1006.719912 153.590239 
z
" style="stroke:#000000;"/>
    <path clip-path="url(#p32f4d413d3)" d="M 1034.130865 156.658934 
L 1037.192727 153.597072 
L 1040.254589 156.658934 
L 1043.316452 153.597072 
L 1040.254589 150.535209 
L 1043.316452 147.473347 
L 1040.254589 144.411485 
L 1037.192727 147.473347 
L 1034.130865 144.411485 
L 1031.069003 147.473347 
L 1034.130865 150.535209 
L 1031.069003 153.597072 
z
" style="stroke:#000000;"/>
    <path clip-path="url(#p32f4d413d3)" d="M 1058.479956 156.665188 
L 1061.541818 153.603326 
L 1064.60368 156.665188 
L 1067.665543 153.603326 
L 1064.60368 150.541464 
L 1067.665543 147.479602 
L 1064.60368 144.41774 
L 1061.541818 147.479602 
L 1058.479956 144.41774 
L 1055.418094 147.479602 
L 1058.479956 150.541464 
L 1055.418094 153.603326 
z
" style="stroke:#000000;"/>
    <path clip-path="url(#p32f4d413d3)" d="M 1082.829047 156.670929 
L 1085.890909 153.609067 
L 1088.952771 156.670929 
L 1092.014633 153.609067 
L 1088.952771 150.547205 
L 1092.014633 147.485342 
L 1088.952771 144.42348 
L 1085.890909 147.485342 
L 1082.829047 144.42348 
L 1079.767185 147.485342 
L 1082.829047 150.547205 
L 1079.767185 153.609067 
z
" style="stroke:#000000;"/>
    <path clip-path="url(#p32f4d413d3)" d="M 1107.178138 156.67621 
L 1110.24 153.614348 
L 1113.301862 156.67621 
L 1116.363724 153.614348 
L 1113.301862 150.552486 
L 1116.363724 147.490624 
L 1113.301862 144.428762 
L 1110.24 147.490624 
L 1107.178138 144.428762 
L 1104.116276 147.490624 
L 1107.178138 150.552486 
L 1104.116276 153.614348 
z
" style="stroke:#000000;"/>
    <path clip-path="url(#p32f4d413d3)" d="M 1131.527229 156.681081 
L 1134.589091 153.619219 
L 1137.650953 156.681081 
L 1140.712815 153.619219 
L 1137.650953 150.557356 
L 1140.712815 147.495494 
L 1137.650953 144.433632 
L 1134.589091 147.495494 
L 1131.527229 144.433632 
L 1128.465367 147.495494 
L 1131.527229 150.557356 
L 1128.465367 153.619219 
z
" style="stroke:#000000;"/>
    <path clip-path="url(#p32f4d413d3)" d="M 1155.87632 156.685582 
L 1158.938182 153.623719 
L 1162.000044 156.685582 
L 1165.061906 153.623719 
L 1162.000044 150.561857 
L 1165.061906 147.499995 
L 1162.000044 144.438133 
L 1158.938182 147.499995 
L 1155.87632 144.438133 
L 1152.814457 147.499995 
L 1155.87632 150.561857 
L 1152.814457 153.623719 
z
" style="stroke:#000000;"/>
    <path clip-path="url(#p32f4d413d3)" d="M 1180.225411 358.452124 
L 1183.287273 355.390262 
L 1186.349135 358.452124 
L 1189.410997 355.390262 
L 1186.349135 352.3284 
L 1189.410997 349.266538 
L 1186.349135 346.204676 
L 1183.287273 349.266538 
L 1180.225411 346.204676 
L 1177.163548 349.266538 
L 1180.225411 352.3284 
L 1177.163548 355.390262 
z
" style="stroke:#000000;"/>
   </g>
   <g id="patch_3">
    <path clip-path="url(#p32f4d413d3)" d="M 221.498182 620.9352 
L 221.498182 83.7216 
L 708.48 83.7216 
L 708.48 620.9352 
z
" style="fill:#ff7f50;opacity:0.3;"/>
   </g>
   <g id="patch_4">
    <path clip-path="url(#p32f4d413d3)" d="M 708.48 620.9352 
L 708.48 83.7216 
L 1195.461818 83.7216 
L 1195.461818 620.9352 
z
" style="fill:#b0e0e6;opacity:0.3;"/>
   </g>
   <g id="matplotlib.axis_1">
    <g id="xtick_1">
     <g id="line2d_1">
      <defs>
       <path d="M 0 0 
L 0 3.5 
" id="m5e800daa5e" style="stroke:#000000;stroke-width:0.8;"/>
      </defs>
      <g>
       <use style="stroke:#000000;stroke-width:0.8;" x="221.498182" xlink:href="#m5e800daa5e" y="620.9352"/>
      </g>
     </g>
     <g id="text_1">
      <!-- 0 -->
      <g transform="translate(216.726307 639.332856)scale(0.15 -0.15)">
       <defs>
        <path d="M 2034 4250 
Q 1547 4250 1301 3770 
Q 1056 3291 1056 2328 
Q 1056 1369 1301 889 
Q 1547 409 2034 409 
Q 2525 409 2770 889 
Q 3016 1369 3016 2328 
Q 3016 3291 2770 3770 
Q 2525 4250 2034 4250 
z
M 2034 4750 
Q 2819 4750 3233 4129 
Q 3647 3509 3647 2328 
Q 3647 1150 3233 529 
Q 2819 -91 2034 -91 
Q 1250 -91 836 529 
Q 422 1150 422 2328 
Q 422 3509 836 4129 
Q 1250 4750 2034 4750 
z
" id="DejaVuSans-30" transform="scale(0.015625)"/>
       </defs>
       <use xlink:href="#DejaVuSans-30"/>
      </g>
     </g>
    </g>
    <g id="xtick_2">
     <g id="line2d_2">
      <g>
       <use style="stroke:#000000;stroke-width:0.8;" x="245.847273" xlink:href="#m5e800daa5e" y="620.9352"/>
      </g>
     </g>
     <g id="text_2">
      <!-- 1 -->
      <g transform="translate(241.075398 639.332856)scale(0.15 -0.15)">
       <defs>
        <path d="M 794 531 
L 1825 531 
L 1825 4091 
L 703 3866 
L 703 4441 
L 1819 4666 
L 2450 4666 
L 2450 531 
L 3481 531 
L 3481 0 
L 794 0 
L 794 531 
z
" id="DejaVuSans-31" transform="scale(0.015625)"/>
       </defs>
       <use xlink:href="#DejaVuSans-31"/>
      </g>
     </g>
    </g>
    <g id="xtick_3">
     <g id="line2d_3">
      <g>
       <use style="stroke:#000000;stroke-width:0.8;" x="270.196364" xlink:href="#m5e800daa5e" y="620.9352"/>
      </g>
     </g>
     <g id="text_3">
      <!-- 2 -->
      <g transform="translate(265.424489 639.332856)scale(0.15 -0.15)">
       <defs>
        <path d="M 1228 531 
L 3431 531 
L 3431 0 
L 469 0 
L 469 531 
Q 828 903 1448 1529 
Q 2069 2156 2228 2338 
Q 2531 2678 2651 2914 
Q 2772 3150 2772 3378 
Q 2772 3750 2511 3984 
Q 2250 4219 1831 4219 
Q 1534 4219 1204 4116 
Q 875 4013 500 3803 
L 500 4441 
Q 881 4594 1212 4672 
Q 1544 4750 1819 4750 
Q 2544 4750 2975 4387 
Q 3406 4025 3406 3419 
Q 3406 3131 3298 2873 
Q 3191 2616 2906 2266 
Q 2828 2175 2409 1742 
Q 1991 1309 1228 531 
z
" id="DejaVuSans-32" transform="scale(0.015625)"/>
       </defs>
       <use xlink:href="#DejaVuSans-32"/>
      </g>
     </g>
    </g>
    <g id="xtick_4">
     <g id="line2d_4">
      <g>
       <use style="stroke:#000000;stroke-width:0.8;" x="294.545455" xlink:href="#m5e800daa5e" y="620.9352"/>
      </g>
     </g>
     <g id="text_4">
      <!-- 3 -->
      <g transform="translate(289.77358 639.332856)scale(0.15 -0.15)">
       <defs>
        <path d="M 2597 2516 
Q 3050 2419 3304 2112 
Q 3559 1806 3559 1356 
Q 3559 666 3084 287 
Q 2609 -91 1734 -91 
Q 1441 -91 1130 -33 
Q 819 25 488 141 
L 488 750 
Q 750 597 1062 519 
Q 1375 441 1716 441 
Q 2309 441 2620 675 
Q 2931 909 2931 1356 
Q 2931 1769 2642 2001 
Q 2353 2234 1838 2234 
L 1294 2234 
L 1294 2753 
L 1863 2753 
Q 2328 2753 2575 2939 
Q 2822 3125 2822 3475 
Q 2822 3834 2567 4026 
Q 2313 4219 1838 4219 
Q 1578 4219 1281 4162 
Q 984 4106 628 3988 
L 628 4550 
Q 988 4650 1302 4700 
Q 1616 4750 1894 4750 
Q 2613 4750 3031 4423 
Q 3450 4097 3450 3541 
Q 3450 3153 3228 2886 
Q 3006 2619 2597 2516 
z
" id="DejaVuSans-33" transform="scale(0.015625)"/>
       </defs>
       <use xlink:href="#DejaVuSans-33"/>
      </g>
     </g>
    </g>
    <g id="xtick_5">
     <g id="line2d_5">
      <g>
       <use style="stroke:#000000;stroke-width:0.8;" x="318.894545" xlink:href="#m5e800daa5e" y="620.9352"/>
      </g>
     </g>
     <g id="text_5">
      <!-- 4 -->
      <g transform="translate(314.12267 639.332856)scale(0.15 -0.15)">
       <defs>
        <path d="M 2419 4116 
L 825 1625 
L 2419 1625 
L 2419 4116 
z
M 2253 4666 
L 3047 4666 
L 3047 1625 
L 3713 1625 
L 3713 1100 
L 3047 1100 
L 3047 0 
L 2419 0 
L 2419 1100 
L 313 1100 
L 313 1709 
L 2253 4666 
z
" id="DejaVuSans-34" transform="scale(0.015625)"/>
       </defs>
       <use xlink:href="#DejaVuSans-34"/>
      </g>
     </g>
    </g>
    <g id="xtick_6">
     <g id="line2d_6">
      <g>
       <use style="stroke:#000000;stroke-width:0.8;" x="343.243636" xlink:href="#m5e800daa5e" y="620.9352"/>
      </g>
     </g>
     <g id="text_6">
      <!-- 5 -->
      <g transform="translate(338.471761 639.332856)scale(0.15 -0.15)">
       <defs>
        <path d="M 691 4666 
L 3169 4666 
L 3169 4134 
L 1269 4134 
L 1269 2991 
Q 1406 3038 1543 3061 
Q 1681 3084 1819 3084 
Q 2600 3084 3056 2656 
Q 3513 2228 3513 1497 
Q 3513 744 3044 326 
Q 2575 -91 1722 -91 
Q 1428 -91 1123 -41 
Q 819 9 494 109 
L 494 744 
Q 775 591 1075 516 
Q 1375 441 1709 441 
Q 2250 441 2565 725 
Q 2881 1009 2881 1497 
Q 2881 1984 2565 2268 
Q 2250 2553 1709 2553 
Q 1456 2553 1204 2497 
Q 953 2441 691 2322 
L 691 4666 
z
" id="DejaVuSans-35" transform="scale(0.015625)"/>
       </defs>
       <use xlink:href="#DejaVuSans-35"/>
      </g>
     </g>
    </g>
    <g id="xtick_7">
     <g id="line2d_7">
      <g>
       <use style="stroke:#000000;stroke-width:0.8;" x="367.592727" xlink:href="#m5e800daa5e" y="620.9352"/>
      </g>
     </g>
     <g id="text_7">
      <!-- 6 -->
      <g transform="translate(362.820852 639.332856)scale(0.15 -0.15)">
       <defs>
        <path d="M 2113 2584 
Q 1688 2584 1439 2293 
Q 1191 2003 1191 1497 
Q 1191 994 1439 701 
Q 1688 409 2113 409 
Q 2538 409 2786 701 
Q 3034 994 3034 1497 
Q 3034 2003 2786 2293 
Q 2538 2584 2113 2584 
z
M 3366 4563 
L 3366 3988 
Q 3128 4100 2886 4159 
Q 2644 4219 2406 4219 
Q 1781 4219 1451 3797 
Q 1122 3375 1075 2522 
Q 1259 2794 1537 2939 
Q 1816 3084 2150 3084 
Q 2853 3084 3261 2657 
Q 3669 2231 3669 1497 
Q 3669 778 3244 343 
Q 2819 -91 2113 -91 
Q 1303 -91 875 529 
Q 447 1150 447 2328 
Q 447 3434 972 4092 
Q 1497 4750 2381 4750 
Q 2619 4750 2861 4703 
Q 3103 4656 3366 4563 
z
" id="DejaVuSans-36" transform="scale(0.015625)"/>
       </defs>
       <use xlink:href="#DejaVuSans-36"/>
      </g>
     </g>
    </g>
    <g id="xtick_8">
     <g id="line2d_8">
      <g>
       <use style="stroke:#000000;stroke-width:0.8;" x="391.941818" xlink:href="#m5e800daa5e" y="620.9352"/>
      </g>
     </g>
     <g id="text_8">
      <!-- 7 -->
      <g transform="translate(387.169943 639.332856)scale(0.15 -0.15)">
       <defs>
        <path d="M 525 4666 
L 3525 4666 
L 3525 4397 
L 1831 0 
L 1172 0 
L 2766 4134 
L 525 4134 
L 525 4666 
z
" id="DejaVuSans-37" transform="scale(0.015625)"/>
       </defs>
       <use xlink:href="#DejaVuSans-37"/>
      </g>
     </g>
    </g>
    <g id="xtick_9">
     <g id="line2d_9">
      <g>
       <use style="stroke:#000000;stroke-width:0.8;" x="416.290909" xlink:href="#m5e800daa5e" y="620.9352"/>
      </g>
     </g>
     <g id="text_9">
      <!-- 8 -->
      <g transform="translate(411.519034 639.332856)scale(0.15 -0.15)">
       <defs>
        <path d="M 2034 2216 
Q 1584 2216 1326 1975 
Q 1069 1734 1069 1313 
Q 1069 891 1326 650 
Q 1584 409 2034 409 
Q 2484 409 2743 651 
Q 3003 894 3003 1313 
Q 3003 1734 2745 1975 
Q 2488 2216 2034 2216 
z
M 1403 2484 
Q 997 2584 770 2862 
Q 544 3141 544 3541 
Q 544 4100 942 4425 
Q 1341 4750 2034 4750 
Q 2731 4750 3128 4425 
Q 3525 4100 3525 3541 
Q 3525 3141 3298 2862 
Q 3072 2584 2669 2484 
Q 3125 2378 3379 2068 
Q 3634 1759 3634 1313 
Q 3634 634 3220 271 
Q 2806 -91 2034 -91 
Q 1263 -91 848 271 
Q 434 634 434 1313 
Q 434 1759 690 2068 
Q 947 2378 1403 2484 
z
M 1172 3481 
Q 1172 3119 1398 2916 
Q 1625 2713 2034 2713 
Q 2441 2713 2670 2916 
Q 2900 3119 2900 3481 
Q 2900 3844 2670 4047 
Q 2441 4250 2034 4250 
Q 1625 4250 1398 4047 
Q 1172 3844 1172 3481 
z
" id="DejaVuSans-38" transform="scale(0.015625)"/>
       </defs>
       <use xlink:href="#DejaVuSans-38"/>
      </g>
     </g>
    </g>
    <g id="xtick_10">
     <g id="line2d_10">
      <g>
       <use style="stroke:#000000;stroke-width:0.8;" x="440.64" xlink:href="#m5e800daa5e" y="620.9352"/>
      </g>
     </g>
     <g id="text_10">
      <!-- 9 -->
      <g transform="translate(435.868125 639.332856)scale(0.15 -0.15)">
       <defs>
        <path d="M 703 97 
L 703 672 
Q 941 559 1184 500 
Q 1428 441 1663 441 
Q 2288 441 2617 861 
Q 2947 1281 2994 2138 
Q 2813 1869 2534 1725 
Q 2256 1581 1919 1581 
Q 1219 1581 811 2004 
Q 403 2428 403 3163 
Q 403 3881 828 4315 
Q 1253 4750 1959 4750 
Q 2769 4750 3195 4129 
Q 3622 3509 3622 2328 
Q 3622 1225 3098 567 
Q 2575 -91 1691 -91 
Q 1453 -91 1209 -44 
Q 966 3 703 97 
z
M 1959 2075 
Q 2384 2075 2632 2365 
Q 2881 2656 2881 3163 
Q 2881 3666 2632 3958 
Q 2384 4250 1959 4250 
Q 1534 4250 1286 3958 
Q 1038 3666 1038 3163 
Q 1038 2656 1286 2365 
Q 1534 2075 1959 2075 
z
" id="DejaVuSans-39" transform="scale(0.015625)"/>
       </defs>
       <use xlink:href="#DejaVuSans-39"/>
      </g>
     </g>
    </g>
    <g id="xtick_11">
     <g id="line2d_11">
      <g>
       <use style="stroke:#000000;stroke-width:0.8;" x="464.989091" xlink:href="#m5e800daa5e" y="620.9352"/>
      </g>
     </g>
     <g id="text_11">
      <!-- 10 -->
      <g transform="translate(455.445341 639.332856)scale(0.15 -0.15)">
       <use xlink:href="#DejaVuSans-31"/>
       <use x="63.623047" xlink:href="#DejaVuSans-30"/>
      </g>
     </g>
    </g>
    <g id="xtick_12">
     <g id="line2d_12">
      <g>
       <use style="stroke:#000000;stroke-width:0.8;" x="489.338182" xlink:href="#m5e800daa5e" y="620.9352"/>
      </g>
     </g>
     <g id="text_12">
      <!-- 11 -->
      <g transform="translate(479.794432 639.332856)scale(0.15 -0.15)">
       <use xlink:href="#DejaVuSans-31"/>
       <use x="63.623047" xlink:href="#DejaVuSans-31"/>
      </g>
     </g>
    </g>
    <g id="xtick_13">
     <g id="line2d_13">
      <g>
       <use style="stroke:#000000;stroke-width:0.8;" x="513.687273" xlink:href="#m5e800daa5e" y="620.9352"/>
      </g>
     </g>
     <g id="text_13">
      <!-- 12 -->
      <g transform="translate(504.143523 639.332856)scale(0.15 -0.15)">
       <use xlink:href="#DejaVuSans-31"/>
       <use x="63.623047" xlink:href="#DejaVuSans-32"/>
      </g>
     </g>
    </g>
    <g id="xtick_14">
     <g id="line2d_14">
      <g>
       <use style="stroke:#000000;stroke-width:0.8;" x="538.036364" xlink:href="#m5e800daa5e" y="620.9352"/>
      </g>
     </g>
     <g id="text_14">
      <!-- 13 -->
      <g transform="translate(528.492614 639.332856)scale(0.15 -0.15)">
       <use xlink:href="#DejaVuSans-31"/>
       <use x="63.623047" xlink:href="#DejaVuSans-33"/>
      </g>
     </g>
    </g>
    <g id="xtick_15">
     <g id="line2d_15">
      <g>
       <use style="stroke:#000000;stroke-width:0.8;" x="562.385455" xlink:href="#m5e800daa5e" y="620.9352"/>
      </g>
     </g>
     <g id="text_15">
      <!-- 14 -->
      <g transform="translate(552.841705 639.332856)scale(0.15 -0.15)">
       <use xlink:href="#DejaVuSans-31"/>
       <use x="63.623047" xlink:href="#DejaVuSans-34"/>
      </g>
     </g>
    </g>
    <g id="xtick_16">
     <g id="line2d_16">
      <g>
       <use style="stroke:#000000;stroke-width:0.8;" x="586.734545" xlink:href="#m5e800daa5e" y="620.9352"/>
      </g>
     </g>
     <g id="text_16">
      <!-- 15 -->
      <g transform="translate(577.190795 639.332856)scale(0.15 -0.15)">
       <use xlink:href="#DejaVuSans-31"/>
       <use x="63.623047" xlink:href="#DejaVuSans-35"/>
      </g>
     </g>
    </g>
    <g id="xtick_17">
     <g id="line2d_17">
      <g>
       <use style="stroke:#000000;stroke-width:0.8;" x="611.083636" xlink:href="#m5e800daa5e" y="620.9352"/>
      </g>
     </g>
     <g id="text_17">
      <!-- 16 -->
      <g transform="translate(601.539886 639.332856)scale(0.15 -0.15)">
       <use xlink:href="#DejaVuSans-31"/>
       <use x="63.623047" xlink:href="#DejaVuSans-36"/>
      </g>
     </g>
    </g>
    <g id="xtick_18">
     <g id="line2d_18">
      <g>
       <use style="stroke:#000000;stroke-width:0.8;" x="635.432727" xlink:href="#m5e800daa5e" y="620.9352"/>
      </g>
     </g>
     <g id="text_18">
      <!-- 17 -->
      <g transform="translate(625.888977 639.332856)scale(0.15 -0.15)">
       <use xlink:href="#DejaVuSans-31"/>
       <use x="63.623047" xlink:href="#DejaVuSans-37"/>
      </g>
     </g>
    </g>
    <g id="xtick_19">
     <g id="line2d_19">
      <g>
       <use style="stroke:#000000;stroke-width:0.8;" x="659.781818" xlink:href="#m5e800daa5e" y="620.9352"/>
      </g>
     </g>
     <g id="text_19">
      <!-- 18 -->
      <g transform="translate(650.238068 639.332856)scale(0.15 -0.15)">
       <use xlink:href="#DejaVuSans-31"/>
       <use x="63.623047" xlink:href="#DejaVuSans-38"/>
      </g>
     </g>
    </g>
    <g id="xtick_20">
     <g id="line2d_20">
      <g>
       <use style="stroke:#000000;stroke-width:0.8;" x="684.130909" xlink:href="#m5e800daa5e" y="620.9352"/>
      </g>
     </g>
     <g id="text_20">
      <!-- 19 -->
      <g transform="translate(674.587159 639.332856)scale(0.15 -0.15)">
       <use xlink:href="#DejaVuSans-31"/>
       <use x="63.623047" xlink:href="#DejaVuSans-39"/>
      </g>
     </g>
    </g>
    <g id="xtick_21">
     <g id="line2d_21">
      <g>
       <use style="stroke:#000000;stroke-width:0.8;" x="708.48" xlink:href="#m5e800daa5e" y="620.9352"/>
      </g>
     </g>
     <g id="text_21">
      <!-- 20 -->
      <g transform="translate(698.93625 639.332856)scale(0.15 -0.15)">
       <use xlink:href="#DejaVuSans-32"/>
       <use x="63.623047" xlink:href="#DejaVuSans-30"/>
      </g>
     </g>
    </g>
    <g id="xtick_22">
     <g id="line2d_22">
      <g>
       <use style="stroke:#000000;stroke-width:0.8;" x="732.829091" xlink:href="#m5e800daa5e" y="620.9352"/>
      </g>
     </g>
     <g id="text_22">
      <!-- 21 -->
      <g transform="translate(723.285341 639.332856)scale(0.15 -0.15)">
       <use xlink:href="#DejaVuSans-32"/>
       <use x="63.623047" xlink:href="#DejaVuSans-31"/>
      </g>
     </g>
    </g>
    <g id="xtick_23">
     <g id="line2d_23">
      <g>
       <use style="stroke:#000000;stroke-width:0.8;" x="757.178182" xlink:href="#m5e800daa5e" y="620.9352"/>
      </g>
     </g>
     <g id="text_23">
      <!-- 22 -->
      <g transform="translate(747.634432 639.332856)scale(0.15 -0.15)">
       <use xlink:href="#DejaVuSans-32"/>
       <use x="63.623047" xlink:href="#DejaVuSans-32"/>
      </g>
     </g>
    </g>
    <g id="xtick_24">
     <g id="line2d_24">
      <g>
       <use style="stroke:#000000;stroke-width:0.8;" x="781.527273" xlink:href="#m5e800daa5e" y="620.9352"/>
      </g>
     </g>
     <g id="text_24">
      <!-- 23 -->
      <g transform="translate(771.983523 639.332856)scale(0.15 -0.15)">
       <use xlink:href="#DejaVuSans-32"/>
       <use x="63.623047" xlink:href="#DejaVuSans-33"/>
      </g>
     </g>
    </g>
    <g id="xtick_25">
     <g id="line2d_25">
      <g>
       <use style="stroke:#000000;stroke-width:0.8;" x="805.876364" xlink:href="#m5e800daa5e" y="620.9352"/>
      </g>
     </g>
     <g id="text_25">
      <!-- 24 -->
      <g transform="translate(796.332614 639.332856)scale(0.15 -0.15)">
       <use xlink:href="#DejaVuSans-32"/>
       <use x="63.623047" xlink:href="#DejaVuSans-34"/>
      </g>
     </g>
    </g>
    <g id="xtick_26">
     <g id="line2d_26">
      <g>
       <use style="stroke:#000000;stroke-width:0.8;" x="830.225455" xlink:href="#m5e800daa5e" y="620.9352"/>
      </g>
     </g>
     <g id="text_26">
      <!-- 25 -->
      <g transform="translate(820.681705 639.332856)scale(0.15 -0.15)">
       <use xlink:href="#DejaVuSans-32"/>
       <use x="63.623047" xlink:href="#DejaVuSans-35"/>
      </g>
     </g>
    </g>
    <g id="xtick_27">
     <g id="line2d_27">
      <g>
       <use style="stroke:#000000;stroke-width:0.8;" x="854.574545" xlink:href="#m5e800daa5e" y="620.9352"/>
      </g>
     </g>
     <g id="text_27">
      <!-- 26 -->
      <g transform="translate(845.030795 639.332856)scale(0.15 -0.15)">
       <use xlink:href="#DejaVuSans-32"/>
       <use x="63.623047" xlink:href="#DejaVuSans-36"/>
      </g>
     </g>
    </g>
    <g id="xtick_28">
     <g id="line2d_28">
      <g>
       <use style="stroke:#000000;stroke-width:0.8;" x="878.923636" xlink:href="#m5e800daa5e" y="620.9352"/>
      </g>
     </g>
     <g id="text_28">
      <!-- 27 -->
      <g transform="translate(869.379886 639.332856)scale(0.15 -0.15)">
       <use xlink:href="#DejaVuSans-32"/>
       <use x="63.623047" xlink:href="#DejaVuSans-37"/>
      </g>
     </g>
    </g>
    <g id="xtick_29">
     <g id="line2d_29">
      <g>
       <use style="stroke:#000000;stroke-width:0.8;" x="903.272727" xlink:href="#m5e800daa5e" y="620.9352"/>
      </g>
     </g>
     <g id="text_29">
      <!-- 28 -->
      <g transform="translate(893.728977 639.332856)scale(0.15 -0.15)">
       <use xlink:href="#DejaVuSans-32"/>
       <use x="63.623047" xlink:href="#DejaVuSans-38"/>
      </g>
     </g>
    </g>
    <g id="xtick_30">
     <g id="line2d_30">
      <g>
       <use style="stroke:#000000;stroke-width:0.8;" x="927.621818" xlink:href="#m5e800daa5e" y="620.9352"/>
      </g>
     </g>
     <g id="text_30">
      <!-- 29 -->
      <g transform="translate(918.078068 639.332856)scale(0.15 -0.15)">
       <use xlink:href="#DejaVuSans-32"/>
       <use x="63.623047" xlink:href="#DejaVuSans-39"/>
      </g>
     </g>
    </g>
    <g id="xtick_31">
     <g id="line2d_31">
      <g>
       <use style="stroke:#000000;stroke-width:0.8;" x="951.970909" xlink:href="#m5e800daa5e" y="620.9352"/>
      </g>
     </g>
     <g id="text_31">
      <!-- 30 -->
      <g transform="translate(942.427159 639.332856)scale(0.15 -0.15)">
       <use xlink:href="#DejaVuSans-33"/>
       <use x="63.623047" xlink:href="#DejaVuSans-30"/>
      </g>
     </g>
    </g>
    <g id="xtick_32">
     <g id="line2d_32">
      <g>
       <use style="stroke:#000000;stroke-width:0.8;" x="976.32" xlink:href="#m5e800daa5e" y="620.9352"/>
      </g>
     </g>
     <g id="text_32">
      <!-- 31 -->
      <g transform="translate(966.77625 639.332856)scale(0.15 -0.15)">
       <use xlink:href="#DejaVuSans-33"/>
       <use x="63.623047" xlink:href="#DejaVuSans-31"/>
      </g>
     </g>
    </g>
    <g id="xtick_33">
     <g id="line2d_33">
      <g>
       <use style="stroke:#000000;stroke-width:0.8;" x="1000.669091" xlink:href="#m5e800daa5e" y="620.9352"/>
      </g>
     </g>
     <g id="text_33">
      <!-- 32 -->
      <g transform="translate(991.125341 639.332856)scale(0.15 -0.15)">
       <use xlink:href="#DejaVuSans-33"/>
       <use x="63.623047" xlink:href="#DejaVuSans-32"/>
      </g>
     </g>
    </g>
    <g id="xtick_34">
     <g id="line2d_34">
      <g>
       <use style="stroke:#000000;stroke-width:0.8;" x="1025.018182" xlink:href="#m5e800daa5e" y="620.9352"/>
      </g>
     </g>
     <g id="text_34">
      <!-- 33 -->
      <g transform="translate(1015.474432 639.332856)scale(0.15 -0.15)">
       <use xlink:href="#DejaVuSans-33"/>
       <use x="63.623047" xlink:href="#DejaVuSans-33"/>
      </g>
     </g>
    </g>
    <g id="xtick_35">
     <g id="line2d_35">
      <g>
       <use style="stroke:#000000;stroke-width:0.8;" x="1049.367273" xlink:href="#m5e800daa5e" y="620.9352"/>
      </g>
     </g>
     <g id="text_35">
      <!-- 34 -->
      <g transform="translate(1039.823523 639.332856)scale(0.15 -0.15)">
       <use xlink:href="#DejaVuSans-33"/>
       <use x="63.623047" xlink:href="#DejaVuSans-34"/>
      </g>
     </g>
    </g>
    <g id="xtick_36">
     <g id="line2d_36">
      <g>
       <use style="stroke:#000000;stroke-width:0.8;" x="1073.716364" xlink:href="#m5e800daa5e" y="620.9352"/>
      </g>
     </g>
     <g id="text_36">
      <!-- 35 -->
      <g transform="translate(1064.172614 639.332856)scale(0.15 -0.15)">
       <use xlink:href="#DejaVuSans-33"/>
       <use x="63.623047" xlink:href="#DejaVuSans-35"/>
      </g>
     </g>
    </g>
    <g id="xtick_37">
     <g id="line2d_37">
      <g>
       <use style="stroke:#000000;stroke-width:0.8;" x="1098.065455" xlink:href="#m5e800daa5e" y="620.9352"/>
      </g>
     </g>
     <g id="text_37">
      <!-- 36 -->
      <g transform="translate(1088.521705 639.332856)scale(0.15 -0.15)">
       <use xlink:href="#DejaVuSans-33"/>
       <use x="63.623047" xlink:href="#DejaVuSans-36"/>
      </g>
     </g>
    </g>
    <g id="xtick_38">
     <g id="line2d_38">
      <g>
       <use style="stroke:#000000;stroke-width:0.8;" x="1122.414545" xlink:href="#m5e800daa5e" y="620.9352"/>
      </g>
     </g>
     <g id="text_38">
      <!-- 37 -->
      <g transform="translate(1112.870795 639.332856)scale(0.15 -0.15)">
       <use xlink:href="#DejaVuSans-33"/>
       <use x="63.623047" xlink:href="#DejaVuSans-37"/>
      </g>
     </g>
    </g>
    <g id="xtick_39">
     <g id="line2d_39">
      <g>
       <use style="stroke:#000000;stroke-width:0.8;" x="1146.763636" xlink:href="#m5e800daa5e" y="620.9352"/>
      </g>
     </g>
     <g id="text_39">
      <!-- 38 -->
      <g transform="translate(1137.219886 639.332856)scale(0.15 -0.15)">
       <use xlink:href="#DejaVuSans-33"/>
       <use x="63.623047" xlink:href="#DejaVuSans-38"/>
      </g>
     </g>
    </g>
    <g id="xtick_40">
     <g id="line2d_40">
      <g>
       <use style="stroke:#000000;stroke-width:0.8;" x="1171.112727" xlink:href="#m5e800daa5e" y="620.9352"/>
      </g>
     </g>
     <g id="text_40">
      <!-- 39 -->
      <g transform="translate(1161.568977 639.332856)scale(0.15 -0.15)">
       <use xlink:href="#DejaVuSans-33"/>
       <use x="63.623047" xlink:href="#DejaVuSans-39"/>
      </g>
     </g>
    </g>
    <g id="text_41">
     <!-- $t$ -->
     <g transform="translate(704.48 661.649262)scale(0.2 -0.2)">
      <defs>
       <path d="M 2706 3500 
L 2619 3053 
L 1472 3053 
L 1100 1153 
Q 1081 1047 1072 975 
Q 1063 903 1063 863 
Q 1063 663 1183 572 
Q 1303 481 1569 481 
L 2150 481 
L 2053 0 
L 1503 0 
Q 991 0 739 200 
Q 488 400 488 806 
Q 488 878 497 964 
Q 506 1050 525 1153 
L 897 3053 
L 409 3053 
L 500 3500 
L 978 3500 
L 1172 4494 
L 1747 4494 
L 1556 3500 
L 2706 3500 
z
" id="DejaVuSans-Oblique-74" transform="scale(0.015625)"/>
      </defs>
      <use transform="translate(0 0.78125)" xlink:href="#DejaVuSans-Oblique-74"/>
     </g>
    </g>
   </g>
   <g id="matplotlib.axis_2">
    <g id="ytick_1">
     <g id="line2d_41">
      <defs>
       <path d="M 0 0 
L -3.5 0 
" id="m69de80fd0a" style="stroke:#000000;stroke-width:0.8;"/>
      </defs>
      <g>
       <use style="stroke:#000000;stroke-width:0.8;" x="172.8" xlink:href="#m69de80fd0a" y="620.9352"/>
      </g>
     </g>
     <g id="text_42">
      <!-- 0.0 -->
      <g transform="translate(141.945312 626.634028)scale(0.15 -0.15)">
       <defs>
        <path d="M 684 794 
L 1344 794 
L 1344 0 
L 684 0 
L 684 794 
z
" id="DejaVuSans-2e" transform="scale(0.015625)"/>
       </defs>
       <use xlink:href="#DejaVuSans-30"/>
       <use x="63.623047" xlink:href="#DejaVuSans-2e"/>
       <use x="95.410156" xlink:href="#DejaVuSans-30"/>
      </g>
     </g>
    </g>
    <g id="ytick_2">
     <g id="line2d_42">
      <g>
       <use style="stroke:#000000;stroke-width:0.8;" x="172.8" xlink:href="#m69de80fd0a" y="513.49248"/>
      </g>
     </g>
     <g id="text_43">
      <!-- 0.2 -->
      <g transform="translate(141.945312 519.191308)scale(0.15 -0.15)">
       <use xlink:href="#DejaVuSans-30"/>
       <use x="63.623047" xlink:href="#DejaVuSans-2e"/>
       <use x="95.410156" xlink:href="#DejaVuSans-32"/>
      </g>
     </g>
    </g>
    <g id="ytick_3">
     <g id="line2d_43">
      <g>
       <use style="stroke:#000000;stroke-width:0.8;" x="172.8" xlink:href="#m69de80fd0a" y="406.04976"/>
      </g>
     </g>
     <g id="text_44">
      <!-- 0.4 -->
      <g transform="translate(141.945312 411.748588)scale(0.15 -0.15)">
       <use xlink:href="#DejaVuSans-30"/>
       <use x="63.623047" xlink:href="#DejaVuSans-2e"/>
       <use x="95.410156" xlink:href="#DejaVuSans-34"/>
      </g>
     </g>
    </g>
    <g id="ytick_4">
     <g id="line2d_44">
      <g>
       <use style="stroke:#000000;stroke-width:0.8;" x="172.8" xlink:href="#m69de80fd0a" y="298.60704"/>
      </g>
     </g>
     <g id="text_45">
      <!-- 0.6 -->
      <g transform="translate(141.945312 304.305868)scale(0.15 -0.15)">
       <use xlink:href="#DejaVuSans-30"/>
       <use x="63.623047" xlink:href="#DejaVuSans-2e"/>
       <use x="95.410156" xlink:href="#DejaVuSans-36"/>
      </g>
     </g>
    </g>
    <g id="ytick_5">
     <g id="line2d_45">
      <g>
       <use style="stroke:#000000;stroke-width:0.8;" x="172.8" xlink:href="#m69de80fd0a" y="191.16432"/>
      </g>
     </g>
     <g id="text_46">
      <!-- 0.8 -->
      <g transform="translate(141.945312 196.863148)scale(0.15 -0.15)">
       <use xlink:href="#DejaVuSans-30"/>
       <use x="63.623047" xlink:href="#DejaVuSans-2e"/>
       <use x="95.410156" xlink:href="#DejaVuSans-38"/>
      </g>
     </g>
    </g>
    <g id="ytick_6">
     <g id="line2d_46">
      <g>
       <use style="stroke:#000000;stroke-width:0.8;" x="172.8" xlink:href="#m69de80fd0a" y="83.7216"/>
      </g>
     </g>
     <g id="text_47">
      <!-- 1.0 -->
      <g transform="translate(141.945312 89.420428)scale(0.15 -0.15)">
       <use xlink:href="#DejaVuSans-31"/>
       <use x="63.623047" xlink:href="#DejaVuSans-2e"/>
       <use x="95.410156" xlink:href="#DejaVuSans-30"/>
      </g>
     </g>
    </g>
    <g id="text_48">
     <!-- $p(context)$ -->
     <g transform="translate(133.745312 404.4284)rotate(-90)scale(0.2 -0.2)">
      <defs>
       <path d="M 3175 2156 
Q 3175 2616 2975 2859 
Q 2775 3103 2400 3103 
Q 2144 3103 1911 2972 
Q 1678 2841 1497 2591 
Q 1319 2344 1212 1994 
Q 1106 1644 1106 1300 
Q 1106 863 1306 627 
Q 1506 391 1875 391 
Q 2147 391 2380 519 
Q 2613 647 2778 891 
Q 2956 1147 3065 1494 
Q 3175 1841 3175 2156 
z
M 1394 2969 
Q 1625 3272 1939 3428 
Q 2253 3584 2638 3584 
Q 3175 3584 3472 3232 
Q 3769 2881 3769 2247 
Q 3769 1728 3584 1258 
Q 3400 788 3053 416 
Q 2822 169 2531 39 
Q 2241 -91 1919 -91 
Q 1547 -91 1294 64 
Q 1041 219 916 525 
L 556 -1331 
L -19 -1331 
L 922 3500 
L 1497 3500 
L 1394 2969 
z
" id="DejaVuSans-Oblique-70" transform="scale(0.015625)"/>
       <path d="M 1984 4856 
Q 1566 4138 1362 3434 
Q 1159 2731 1159 2009 
Q 1159 1288 1364 580 
Q 1569 -128 1984 -844 
L 1484 -844 
Q 1016 -109 783 600 
Q 550 1309 550 2009 
Q 550 2706 781 3412 
Q 1013 4119 1484 4856 
L 1984 4856 
z
" id="DejaVuSans-28" transform="scale(0.015625)"/>
       <path d="M 3431 3366 
L 3316 2797 
Q 3109 2947 2876 3022 
Q 2644 3097 2394 3097 
Q 2119 3097 1870 3000 
Q 1622 2903 1453 2725 
Q 1184 2453 1037 2087 
Q 891 1722 891 1331 
Q 891 859 1127 628 
Q 1363 397 1844 397 
Q 2081 397 2348 469 
Q 2616 541 2906 684 
L 2797 116 
Q 2547 13 2283 -39 
Q 2019 -91 1741 -91 
Q 1044 -91 669 257 
Q 294 606 294 1253 
Q 294 1797 489 2255 
Q 684 2713 1069 3078 
Q 1331 3328 1684 3456 
Q 2038 3584 2456 3584 
Q 2700 3584 2940 3529 
Q 3181 3475 3431 3366 
z
" id="DejaVuSans-Oblique-63" transform="scale(0.015625)"/>
       <path d="M 1625 -91 
Q 1009 -91 651 289 
Q 294 669 294 1325 
Q 294 1706 417 2101 
Q 541 2497 738 2766 
Q 1047 3184 1428 3384 
Q 1809 3584 2291 3584 
Q 2888 3584 3255 3212 
Q 3622 2841 3622 2241 
Q 3622 1825 3500 1412 
Q 3378 1000 3181 728 
Q 2875 309 2494 109 
Q 2113 -91 1625 -91 
z
M 891 1344 
Q 891 869 1089 633 
Q 1288 397 1691 397 
Q 2269 397 2648 901 
Q 3028 1406 3028 2181 
Q 3028 2634 2825 2865 
Q 2622 3097 2228 3097 
Q 1903 3097 1650 2945 
Q 1397 2794 1197 2484 
Q 1050 2253 970 1956 
Q 891 1659 891 1344 
z
" id="DejaVuSans-Oblique-6f" transform="scale(0.015625)"/>
       <path d="M 3566 2113 
L 3156 0 
L 2578 0 
L 2988 2091 
Q 3016 2238 3031 2350 
Q 3047 2463 3047 2528 
Q 3047 2791 2881 2937 
Q 2716 3084 2419 3084 
Q 1956 3084 1622 2776 
Q 1288 2469 1184 1941 
L 800 0 
L 225 0 
L 903 3500 
L 1478 3500 
L 1363 2950 
Q 1603 3253 1940 3418 
Q 2278 3584 2650 3584 
Q 3113 3584 3367 3334 
Q 3622 3084 3622 2631 
Q 3622 2519 3608 2391 
Q 3594 2263 3566 2113 
z
" id="DejaVuSans-Oblique-6e" transform="scale(0.015625)"/>
       <path d="M 3078 2063 
Q 3088 2113 3092 2166 
Q 3097 2219 3097 2272 
Q 3097 2653 2873 2875 
Q 2650 3097 2266 3097 
Q 1838 3097 1509 2826 
Q 1181 2556 1013 2059 
L 3078 2063 
z
M 3578 1613 
L 903 1613 
Q 884 1494 878 1425 
Q 872 1356 872 1306 
Q 872 872 1139 634 
Q 1406 397 1894 397 
Q 2269 397 2603 481 
Q 2938 566 3225 728 
L 3116 159 
Q 2806 34 2476 -28 
Q 2147 -91 1806 -91 
Q 1078 -91 686 257 
Q 294 606 294 1247 
Q 294 1794 489 2264 
Q 684 2734 1063 3103 
Q 1306 3334 1642 3459 
Q 1978 3584 2356 3584 
Q 2950 3584 3301 3228 
Q 3653 2872 3653 2272 
Q 3653 2128 3634 1964 
Q 3616 1800 3578 1613 
z
" id="DejaVuSans-Oblique-65" transform="scale(0.015625)"/>
       <path d="M 3841 3500 
L 2234 1784 
L 3219 0 
L 2559 0 
L 1819 1388 
L 531 0 
L -166 0 
L 1556 1844 
L 641 3500 
L 1300 3500 
L 1972 2234 
L 3144 3500 
L 3841 3500 
z
" id="DejaVuSans-Oblique-78" transform="scale(0.015625)"/>
       <path d="M 513 4856 
L 1013 4856 
Q 1481 4119 1714 3412 
Q 1947 2706 1947 2009 
Q 1947 1309 1714 600 
Q 1481 -109 1013 -844 
L 513 -844 
Q 928 -128 1133 580 
Q 1338 1288 1338 2009 
Q 1338 2731 1133 3434 
Q 928 4138 513 4856 
z
" id="DejaVuSans-29" transform="scale(0.015625)"/>
      </defs>
      <use transform="translate(0 0.125)" xlink:href="#DejaVuSans-Oblique-70"/>
      <use transform="translate(63.476562 0.125)" xlink:href="#DejaVuSans-28"/>
      <use transform="translate(102.490234 0.125)" xlink:href="#DejaVuSans-Oblique-63"/>
      <use transform="translate(157.470703 0.125)" xlink:href="#DejaVuSans-Oblique-6f"/>
      <use transform="translate(218.652344 0.125)" xlink:href="#DejaVuSans-Oblique-6e"/>
      <use transform="translate(282.03125 0.125)" xlink:href="#DejaVuSans-Oblique-74"/>
      <use transform="translate(321.240234 0.125)" xlink:href="#DejaVuSans-Oblique-65"/>
      <use transform="translate(382.763672 0.125)" xlink:href="#DejaVuSans-Oblique-78"/>
      <use transform="translate(441.943359 0.125)" xlink:href="#DejaVuSans-Oblique-74"/>
      <use transform="translate(481.152344 0.125)" xlink:href="#DejaVuSans-29"/>
     </g>
    </g>
   </g>
   <g id="line2d_47">
    <path clip-path="url(#p32f4d413d3)" d="M 221.498182 540.35316 
L 245.847273 615.982536 
L 270.196364 618.461996 
L 294.545455 619.293764 
L 318.894545 599.293533 
L 343.243636 595.581791 
L 367.592727 594.393004 
L 391.941818 593.854963 
L 416.290909 593.56703 
L 440.64 593.392438 
L 464.989091 593.274672 
L 489.338182 593.188846 
L 513.687273 593.123109 
L 538.036364 593.071139 
L 562.385455 593.029144 
L 586.734545 592.994645 
L 611.083636 592.965919 
L 635.432727 592.941726 
L 659.781818 592.921148 
L 684.130909 592.903493 
L 708.48 592.888226 
L 732.829091 592.874932 
L 757.178182 592.863283 
L 781.527273 592.853017 
L 805.876364 592.843923 
L 830.225455 592.835827 
L 854.574545 592.828588 
L 878.923636 592.822089 
L 903.272727 592.816231 
L 927.621818 592.810934 
L 951.970909 592.806127 
L 976.32 592.801752 
L 1000.669091 592.797758 
L 1025.018182 592.794102 
L 1049.367273 592.790747 
L 1073.716364 592.787661 
L 1098.065455 592.784816 
L 1122.414545 592.782187 
L 1146.763636 592.779752 
L 1171.112727 592.777494 
" style="fill:none;stroke:#0000ff;stroke-linecap:square;stroke-width:1.5;"/>
    <defs>
     <path d="M 0 3 
C 0.795609 3 1.55874 2.683901 2.12132 2.12132 
C 2.683901 1.55874 3 0.795609 3 0 
C 3 -0.795609 2.683901 -1.55874 2.12132 -2.12132 
C 1.55874 -2.683901 0.795609 -3 0 -3 
C -0.795609 -3 -1.55874 -2.683901 -2.12132 -2.12132 
C -2.683901 -1.55874 -3 -0.795609 -3 0 
C -3 0.795609 -2.683901 1.55874 -2.12132 2.12132 
C -1.55874 2.683901 -0.795609 3 0 3 
z
" id="me97db5daf0" style="stroke:#0000ff;"/>
    </defs>
    <g clip-path="url(#p32f4d413d3)">
     <use style="fill:#0000ff;stroke:#0000ff;" x="221.498182" xlink:href="#me97db5daf0" y="540.35316"/>
     <use style="fill:#0000ff;stroke:#0000ff;" x="245.847273" xlink:href="#me97db5daf0" y="615.982536"/>
     <use style="fill:#0000ff;stroke:#0000ff;" x="270.196364" xlink:href="#me97db5daf0" y="618.461996"/>
     <use style="fill:#0000ff;stroke:#0000ff;" x="294.545455" xlink:href="#me97db5daf0" y="619.293764"/>
     <use style="fill:#0000ff;stroke:#0000ff;" x="318.894545" xlink:href="#me97db5daf0" y="599.293533"/>
     <use style="fill:#0000ff;stroke:#0000ff;" x="343.243636" xlink:href="#me97db5daf0" y="595.581791"/>
     <use style="fill:#0000ff;stroke:#0000ff;" x="367.592727" xlink:href="#me97db5daf0" y="594.393004"/>
     <use style="fill:#0000ff;stroke:#0000ff;" x="391.941818" xlink:href="#me97db5daf0" y="593.854963"/>
     <use style="fill:#0000ff;stroke:#0000ff;" x="416.290909" xlink:href="#me97db5daf0" y="593.56703"/>
     <use style="fill:#0000ff;stroke:#0000ff;" x="440.64" xlink:href="#me97db5daf0" y="593.392438"/>
     <use style="fill:#0000ff;stroke:#0000ff;" x="464.989091" xlink:href="#me97db5daf0" y="593.274672"/>
     <use style="fill:#0000ff;stroke:#0000ff;" x="489.338182" xlink:href="#me97db5daf0" y="593.188846"/>
     <use style="fill:#0000ff;stroke:#0000ff;" x="513.687273" xlink:href="#me97db5daf0" y="593.123109"/>
     <use style="fill:#0000ff;stroke:#0000ff;" x="538.036364" xlink:href="#me97db5daf0" y="593.071139"/>
     <use style="fill:#0000ff;stroke:#0000ff;" x="562.385455" xlink:href="#me97db5daf0" y="593.029144"/>
     <use style="fill:#0000ff;stroke:#0000ff;" x="586.734545" xlink:href="#me97db5daf0" y="592.994645"/>
     <use style="fill:#0000ff;stroke:#0000ff;" x="611.083636" xlink:href="#me97db5daf0" y="592.965919"/>
     <use style="fill:#0000ff;stroke:#0000ff;" x="635.432727" xlink:href="#me97db5daf0" y="592.941726"/>
     <use style="fill:#0000ff;stroke:#0000ff;" x="659.781818" xlink:href="#me97db5daf0" y="592.921148"/>
     <use style="fill:#0000ff;stroke:#0000ff;" x="684.130909" xlink:href="#me97db5daf0" y="592.903493"/>
     <use style="fill:#0000ff;stroke:#0000ff;" x="708.48" xlink:href="#me97db5daf0" y="592.888226"/>
     <use style="fill:#0000ff;stroke:#0000ff;" x="732.829091" xlink:href="#me97db5daf0" y="592.874932"/>
     <use style="fill:#0000ff;stroke:#0000ff;" x="757.178182" xlink:href="#me97db5daf0" y="592.863283"/>
     <use style="fill:#0000ff;stroke:#0000ff;" x="781.527273" xlink:href="#me97db5daf0" y="592.853017"/>
     <use style="fill:#0000ff;stroke:#0000ff;" x="805.876364" xlink:href="#me97db5daf0" y="592.843923"/>
     <use style="fill:#0000ff;stroke:#0000ff;" x="830.225455" xlink:href="#me97db5daf0" y="592.835827"/>
     <use style="fill:#0000ff;stroke:#0000ff;" x="854.574545" xlink:href="#me97db5daf0" y="592.828588"/>
     <use style="fill:#0000ff;stroke:#0000ff;" x="878.923636" xlink:href="#me97db5daf0" y="592.822089"/>
     <use style="fill:#0000ff;stroke:#0000ff;" x="903.272727" xlink:href="#me97db5daf0" y="592.816231"/>
     <use style="fill:#0000ff;stroke:#0000ff;" x="927.621818" xlink:href="#me97db5daf0" y="592.810934"/>
     <use style="fill:#0000ff;stroke:#0000ff;" x="951.970909" xlink:href="#me97db5daf0" y="592.806127"/>
     <use style="fill:#0000ff;stroke:#0000ff;" x="976.32" xlink:href="#me97db5daf0" y="592.801752"/>
     <use style="fill:#0000ff;stroke:#0000ff;" x="1000.669091" xlink:href="#me97db5daf0" y="592.797758"/>
     <use style="fill:#0000ff;stroke:#0000ff;" x="1025.018182" xlink:href="#me97db5daf0" y="592.794102"/>
     <use style="fill:#0000ff;stroke:#0000ff;" x="1049.367273" xlink:href="#me97db5daf0" y="592.790747"/>
     <use style="fill:#0000ff;stroke:#0000ff;" x="1073.716364" xlink:href="#me97db5daf0" y="592.787661"/>
     <use style="fill:#0000ff;stroke:#0000ff;" x="1098.065455" xlink:href="#me97db5daf0" y="592.784816"/>
     <use style="fill:#0000ff;stroke:#0000ff;" x="1122.414545" xlink:href="#me97db5daf0" y="592.782187"/>
     <use style="fill:#0000ff;stroke:#0000ff;" x="1146.763636" xlink:href="#me97db5daf0" y="592.779752"/>
     <use style="fill:#0000ff;stroke:#0000ff;" x="1171.112727" xlink:href="#me97db5daf0" y="592.777494"/>
    </g>
   </g>
   <g id="line2d_48">
    <path clip-path="url(#p32f4d413d3)" d="M 221.498182 191.16432 
L 245.847273 110.411946 
L 270.196364 101.765623 
L 294.545455 97.327589 
L 318.894545 130.356764 
L 343.243636 140.96562 
L 367.592727 145.457118 
L 391.941818 147.521413 
L 416.290909 148.531496 
L 440.64 149.078231 
L 464.989091 149.412305 
L 489.338182 149.638792 
L 513.687273 149.803706 
L 538.036364 149.929359 
L 562.385455 150.028014 
L 586.734545 150.107176 
L 611.083636 150.171789 
L 635.432727 150.22528 
L 659.781818 150.2701 
L 684.130909 150.30805 
L 708.48 150.340482 
L 732.829091 150.368426 
L 757.178182 150.39268 
L 781.527273 150.413873 
L 805.876364 150.432501 
L 830.225455 150.448965 
L 854.574545 150.463591 
L 878.923636 150.476642 
L 903.272727 150.488339 
L 927.621818 150.498863 
L 951.970909 150.508367 
L 976.32 150.51698 
L 1000.669091 150.524808 
L 1025.018182 150.531946 
L 1049.367273 150.538473 
L 1073.716364 150.544455 
L 1098.065455 150.549954 
L 1122.414545 150.555018 
L 1146.763636 150.559694 
L 1171.112727 150.56402 
" style="fill:none;stroke:#ff0000;stroke-linecap:square;stroke-width:1.5;"/>
    <defs>
     <path d="M 0 3 
C 0.795609 3 1.55874 2.683901 2.12132 2.12132 
C 2.683901 1.55874 3 0.795609 3 0 
C 3 -0.795609 2.683901 -1.55874 2.12132 -2.12132 
C 1.55874 -2.683901 0.795609 -3 0 -3 
C -0.795609 -3 -1.55874 -2.683901 -2.12132 -2.12132 
C -2.683901 -1.55874 -3 -0.795609 -3 0 
C -3 0.795609 -2.683901 1.55874 -2.12132 2.12132 
C -1.55874 2.683901 -0.795609 3 0 3 
z
" id="mffebae44b8" style="stroke:#ff0000;"/>
    </defs>
    <g clip-path="url(#p32f4d413d3)">
     <use style="fill:#ff0000;stroke:#ff0000;" x="221.498182" xlink:href="#mffebae44b8" y="191.16432"/>
     <use style="fill:#ff0000;stroke:#ff0000;" x="245.847273" xlink:href="#mffebae44b8" y="110.411946"/>
     <use style="fill:#ff0000;stroke:#ff0000;" x="270.196364" xlink:href="#mffebae44b8" y="101.765623"/>
     <use style="fill:#ff0000;stroke:#ff0000;" x="294.545455" xlink:href="#mffebae44b8" y="97.327589"/>
     <use style="fill:#ff0000;stroke:#ff0000;" x="318.894545" xlink:href="#mffebae44b8" y="130.356764"/>
     <use style="fill:#ff0000;stroke:#ff0000;" x="343.243636" xlink:href="#mffebae44b8" y="140.96562"/>
     <use style="fill:#ff0000;stroke:#ff0000;" x="367.592727" xlink:href="#mffebae44b8" y="145.457118"/>
     <use style="fill:#ff0000;stroke:#ff0000;" x="391.941818" xlink:href="#mffebae44b8" y="147.521413"/>
     <use style="fill:#ff0000;stroke:#ff0000;" x="416.290909" xlink:href="#mffebae44b8" y="148.531496"/>
     <use style="fill:#ff0000;stroke:#ff0000;" x="440.64" xlink:href="#mffebae44b8" y="149.078231"/>
     <use style="fill:#ff0000;stroke:#ff0000;" x="464.989091" xlink:href="#mffebae44b8" y="149.412305"/>
     <use style="fill:#ff0000;stroke:#ff0000;" x="489.338182" xlink:href="#mffebae44b8" y="149.638792"/>
     <use style="fill:#ff0000;stroke:#ff0000;" x="513.687273" xlink:href="#mffebae44b8" y="149.803706"/>
     <use style="fill:#ff0000;stroke:#ff0000;" x="538.036364" xlink:href="#mffebae44b8" y="149.929359"/>
     <use style="fill:#ff0000;stroke:#ff0000;" x="562.385455" xlink:href="#mffebae44b8" y="150.028014"/>
     <use style="fill:#ff0000;stroke:#ff0000;" x="586.734545" xlink:href="#mffebae44b8" y="150.107176"/>
     <use style="fill:#ff0000;stroke:#ff0000;" x="611.083636" xlink:href="#mffebae44b8" y="150.171789"/>
     <use style="fill:#ff0000;stroke:#ff0000;" x="635.432727" xlink:href="#mffebae44b8" y="150.22528"/>
     <use style="fill:#ff0000;stroke:#ff0000;" x="659.781818" xlink:href="#mffebae44b8" y="150.2701"/>
     <use style="fill:#ff0000;stroke:#ff0000;" x="684.130909" xlink:href="#mffebae44b8" y="150.30805"/>
     <use style="fill:#ff0000;stroke:#ff0000;" x="708.48" xlink:href="#mffebae44b8" y="150.340482"/>
     <use style="fill:#ff0000;stroke:#ff0000;" x="732.829091" xlink:href="#mffebae44b8" y="150.368426"/>
     <use style="fill:#ff0000;stroke:#ff0000;" x="757.178182" xlink:href="#mffebae44b8" y="150.39268"/>
     <use style="fill:#ff0000;stroke:#ff0000;" x="781.527273" xlink:href="#mffebae44b8" y="150.413873"/>
     <use style="fill:#ff0000;stroke:#ff0000;" x="805.876364" xlink:href="#mffebae44b8" y="150.432501"/>
     <use style="fill:#ff0000;stroke:#ff0000;" x="830.225455" xlink:href="#mffebae44b8" y="150.448965"/>
     <use style="fill:#ff0000;stroke:#ff0000;" x="854.574545" xlink:href="#mffebae44b8" y="150.463591"/>
     <use style="fill:#ff0000;stroke:#ff0000;" x="878.923636" xlink:href="#mffebae44b8" y="150.476642"/>
     <use style="fill:#ff0000;stroke:#ff0000;" x="903.272727" xlink:href="#mffebae44b8" y="150.488339"/>
     <use style="fill:#ff0000;stroke:#ff0000;" x="927.621818" xlink:href="#mffebae44b8" y="150.498863"/>
     <use style="fill:#ff0000;stroke:#ff0000;" x="951.970909" xlink:href="#mffebae44b8" y="150.508367"/>
     <use style="fill:#ff0000;stroke:#ff0000;" x="976.32" xlink:href="#mffebae44b8" y="150.51698"/>
     <use style="fill:#ff0000;stroke:#ff0000;" x="1000.669091" xlink:href="#mffebae44b8" y="150.524808"/>
     <use style="fill:#ff0000;stroke:#ff0000;" x="1025.018182" xlink:href="#mffebae44b8" y="150.531946"/>
     <use style="fill:#ff0000;stroke:#ff0000;" x="1049.367273" xlink:href="#mffebae44b8" y="150.538473"/>
     <use style="fill:#ff0000;stroke:#ff0000;" x="1073.716364" xlink:href="#mffebae44b8" y="150.544455"/>
     <use style="fill:#ff0000;stroke:#ff0000;" x="1098.065455" xlink:href="#mffebae44b8" y="150.549954"/>
     <use style="fill:#ff0000;stroke:#ff0000;" x="1122.414545" xlink:href="#mffebae44b8" y="150.555018"/>
     <use style="fill:#ff0000;stroke:#ff0000;" x="1146.763636" xlink:href="#mffebae44b8" y="150.559694"/>
     <use style="fill:#ff0000;stroke:#ff0000;" x="1171.112727" xlink:href="#mffebae44b8" y="150.56402"/>
    </g>
   </g>
   <g id="line2d_49">
    <path clip-path="url(#p32f4d413d3)" d="M 221.498182 594.07452 
L 245.847273 599.197518 
L 270.196364 605.36438 
L 294.545455 608.970647 
L 318.894545 595.941703 
L 343.243636 589.044589 
L 367.592727 585.741877 
L 391.941818 584.215624 
L 416.290909 583.493474 
L 440.64 583.121331 
L 464.989091 582.905023 
L 489.338182 582.764362 
L 513.687273 582.665185 
L 538.036364 582.591503 
L 562.385455 582.534842 
L 586.734545 582.49018 
L 611.083636 582.454292 
L 635.432727 582.424994 
L 659.781818 582.400752 
L 684.130909 582.380457 
L 708.48 582.363292 
L 732.829091 582.348642 
L 757.178182 582.336036 
L 781.527273 582.32511 
L 805.876364 582.315576 
L 830.225455 582.307208 
L 854.574545 582.299822 
L 878.923636 582.293269 
L 903.272727 582.287429 
L 927.621818 582.282202 
L 951.970909 582.277505 
L 976.32 582.273268 
L 1000.669091 582.269434 
L 1025.018182 582.265952 
L 1049.367273 582.26278 
L 1073.716364 582.259883 
L 1098.065455 582.25723 
L 1122.414545 582.254795 
L 1146.763636 582.252553 
L 1171.112727 582.250486 
" style="fill:none;stroke:#808080;stroke-linecap:square;stroke-width:1.5;"/>
    <defs>
     <path d="M 0 3 
C 0.795609 3 1.55874 2.683901 2.12132 2.12132 
C 2.683901 1.55874 3 0.795609 3 0 
C 3 -0.795609 2.683901 -1.55874 2.12132 -2.12132 
C 1.55874 -2.683901 0.795609 -3 0 -3 
C -0.795609 -3 -1.55874 -2.683901 -2.12132 -2.12132 
C -2.683901 -1.55874 -3 -0.795609 -3 0 
C -3 0.795609 -2.683901 1.55874 -2.12132 2.12132 
C -1.55874 2.683901 -0.795609 3 0 3 
z
" id="mdb57171470" style="stroke:#808080;"/>
    </defs>
    <g clip-path="url(#p32f4d413d3)">
     <use style="fill:#808080;stroke:#808080;" x="221.498182" xlink:href="#mdb57171470" y="594.07452"/>
     <use style="fill:#808080;stroke:#808080;" x="245.847273" xlink:href="#mdb57171470" y="599.197518"/>
     <use style="fill:#808080;stroke:#808080;" x="270.196364" xlink:href="#mdb57171470" y="605.36438"/>
     <use style="fill:#808080;stroke:#808080;" x="294.545455" xlink:href="#mdb57171470" y="608.970647"/>
     <use style="fill:#808080;stroke:#808080;" x="318.894545" xlink:href="#mdb57171470" y="595.941703"/>
     <use style="fill:#808080;stroke:#808080;" x="343.243636" xlink:href="#mdb57171470" y="589.044589"/>
     <use style="fill:#808080;stroke:#808080;" x="367.592727" xlink:href="#mdb57171470" y="585.741877"/>
     <use style="fill:#808080;stroke:#808080;" x="391.941818" xlink:href="#mdb57171470" y="584.215624"/>
     <use style="fill:#808080;stroke:#808080;" x="416.290909" xlink:href="#mdb57171470" y="583.493474"/>
     <use style="fill:#808080;stroke:#808080;" x="440.64" xlink:href="#mdb57171470" y="583.121331"/>
     <use style="fill:#808080;stroke:#808080;" x="464.989091" xlink:href="#mdb57171470" y="582.905023"/>
     <use style="fill:#808080;stroke:#808080;" x="489.338182" xlink:href="#mdb57171470" y="582.764362"/>
     <use style="fill:#808080;stroke:#808080;" x="513.687273" xlink:href="#mdb57171470" y="582.665185"/>
     <use style="fill:#808080;stroke:#808080;" x="538.036364" xlink:href="#mdb57171470" y="582.591503"/>
     <use style="fill:#808080;stroke:#808080;" x="562.385455" xlink:href="#mdb57171470" y="582.534842"/>
     <use style="fill:#808080;stroke:#808080;" x="586.734545" xlink:href="#mdb57171470" y="582.49018"/>
     <use style="fill:#808080;stroke:#808080;" x="611.083636" xlink:href="#mdb57171470" y="582.454292"/>
     <use style="fill:#808080;stroke:#808080;" x="635.432727" xlink:href="#mdb57171470" y="582.424994"/>
     <use style="fill:#808080;stroke:#808080;" x="659.781818" xlink:href="#mdb57171470" y="582.400752"/>
     <use style="fill:#808080;stroke:#808080;" x="684.130909" xlink:href="#mdb57171470" y="582.380457"/>
     <use style="fill:#808080;stroke:#808080;" x="708.48" xlink:href="#mdb57171470" y="582.363292"/>
     <use style="fill:#808080;stroke:#808080;" x="732.829091" xlink:href="#mdb57171470" y="582.348642"/>
     <use style="fill:#808080;stroke:#808080;" x="757.178182" xlink:href="#mdb57171470" y="582.336036"/>
     <use style="fill:#808080;stroke:#808080;" x="781.527273" xlink:href="#mdb57171470" y="582.32511"/>
     <use style="fill:#808080;stroke:#808080;" x="805.876364" xlink:href="#mdb57171470" y="582.315576"/>
     <use style="fill:#808080;stroke:#808080;" x="830.225455" xlink:href="#mdb57171470" y="582.307208"/>
     <use style="fill:#808080;stroke:#808080;" x="854.574545" xlink:href="#mdb57171470" y="582.299822"/>
     <use style="fill:#808080;stroke:#808080;" x="878.923636" xlink:href="#mdb57171470" y="582.293269"/>
     <use style="fill:#808080;stroke:#808080;" x="903.272727" xlink:href="#mdb57171470" y="582.287429"/>
     <use style="fill:#808080;stroke:#808080;" x="927.621818" xlink:href="#mdb57171470" y="582.282202"/>
     <use style="fill:#808080;stroke:#808080;" x="951.970909" xlink:href="#mdb57171470" y="582.277505"/>
     <use style="fill:#808080;stroke:#808080;" x="976.32" xlink:href="#mdb57171470" y="582.273268"/>
     <use style="fill:#808080;stroke:#808080;" x="1000.669091" xlink:href="#mdb57171470" y="582.269434"/>
     <use style="fill:#808080;stroke:#808080;" x="1025.018182" xlink:href="#mdb57171470" y="582.265952"/>
     <use style="fill:#808080;stroke:#808080;" x="1049.367273" xlink:href="#mdb57171470" y="582.26278"/>
     <use style="fill:#808080;stroke:#808080;" x="1073.716364" xlink:href="#mdb57171470" y="582.259883"/>
     <use style="fill:#808080;stroke:#808080;" x="1098.065455" xlink:href="#mdb57171470" y="582.25723"/>
     <use style="fill:#808080;stroke:#808080;" x="1122.414545" xlink:href="#mdb57171470" y="582.254795"/>
     <use style="fill:#808080;stroke:#808080;" x="1146.763636" xlink:href="#mdb57171470" y="582.252553"/>
     <use style="fill:#808080;stroke:#808080;" x="1171.112727" xlink:href="#mdb57171470" y="582.250486"/>
    </g>
   </g>
   <g id="patch_5">
    <path d="M 172.8 620.9352 
L 172.8 83.7216 
" style="fill:none;stroke:#000000;stroke-linecap:square;stroke-linejoin:miter;stroke-width:0.8;"/>
   </g>
   <g id="patch_6">
    <path d="M 1244.16 620.9352 
L 1244.16 83.7216 
" style="fill:none;stroke:#000000;stroke-linecap:square;stroke-linejoin:miter;stroke-width:0.8;"/>
   </g>
   <g id="patch_7">
    <path d="M 172.8 620.9352 
L 1244.16 620.9352 
" style="fill:none;stroke:#000000;stroke-linecap:square;stroke-linejoin:miter;stroke-width:0.8;"/>
   </g>
   <g id="patch_8">
    <path d="M 172.8 83.7216 
L 1244.16 83.7216 
" style="fill:none;stroke:#000000;stroke-linecap:square;stroke-linejoin:miter;stroke-width:0.8;"/>
   </g>
   <g id="text_49">
    <!-- Depression: insensitive-pessimistic -->
    <g transform="translate(489.423359 77.7216)scale(0.25 -0.25)">
     <defs>
      <path d="M 1259 4147 
L 1259 519 
L 2022 519 
Q 2988 519 3436 956 
Q 3884 1394 3884 2338 
Q 3884 3275 3436 3711 
Q 2988 4147 2022 4147 
L 1259 4147 
z
M 628 4666 
L 1925 4666 
Q 3281 4666 3915 4102 
Q 4550 3538 4550 2338 
Q 4550 1131 3912 565 
Q 3275 0 1925 0 
L 628 0 
L 628 4666 
z
" id="DejaVuSans-44" transform="scale(0.015625)"/>
      <path d="M 3597 1894 
L 3597 1613 
L 953 1613 
Q 991 1019 1311 708 
Q 1631 397 2203 397 
Q 2534 397 2845 478 
Q 3156 559 3463 722 
L 3463 178 
Q 3153 47 2828 -22 
Q 2503 -91 2169 -91 
Q 1331 -91 842 396 
Q 353 884 353 1716 
Q 353 2575 817 3079 
Q 1281 3584 2069 3584 
Q 2775 3584 3186 3129 
Q 3597 2675 3597 1894 
z
M 3022 2063 
Q 3016 2534 2758 2815 
Q 2500 3097 2075 3097 
Q 1594 3097 1305 2825 
Q 1016 2553 972 2059 
L 3022 2063 
z
" id="DejaVuSans-65" transform="scale(0.015625)"/>
      <path d="M 1159 525 
L 1159 -1331 
L 581 -1331 
L 581 3500 
L 1159 3500 
L 1159 2969 
Q 1341 3281 1617 3432 
Q 1894 3584 2278 3584 
Q 2916 3584 3314 3078 
Q 3713 2572 3713 1747 
Q 3713 922 3314 415 
Q 2916 -91 2278 -91 
Q 1894 -91 1617 61 
Q 1341 213 1159 525 
z
M 3116 1747 
Q 3116 2381 2855 2742 
Q 2594 3103 2138 3103 
Q 1681 3103 1420 2742 
Q 1159 2381 1159 1747 
Q 1159 1113 1420 752 
Q 1681 391 2138 391 
Q 2594 391 2855 752 
Q 3116 1113 3116 1747 
z
" id="DejaVuSans-70" transform="scale(0.015625)"/>
      <path d="M 2631 2963 
Q 2534 3019 2420 3045 
Q 2306 3072 2169 3072 
Q 1681 3072 1420 2755 
Q 1159 2438 1159 1844 
L 1159 0 
L 581 0 
L 581 3500 
L 1159 3500 
L 1159 2956 
Q 1341 3275 1631 3429 
Q 1922 3584 2338 3584 
Q 2397 3584 2469 3576 
Q 2541 3569 2628 3553 
L 2631 2963 
z
" id="DejaVuSans-72" transform="scale(0.015625)"/>
      <path d="M 2834 3397 
L 2834 2853 
Q 2591 2978 2328 3040 
Q 2066 3103 1784 3103 
Q 1356 3103 1142 2972 
Q 928 2841 928 2578 
Q 928 2378 1081 2264 
Q 1234 2150 1697 2047 
L 1894 2003 
Q 2506 1872 2764 1633 
Q 3022 1394 3022 966 
Q 3022 478 2636 193 
Q 2250 -91 1575 -91 
Q 1294 -91 989 -36 
Q 684 19 347 128 
L 347 722 
Q 666 556 975 473 
Q 1284 391 1588 391 
Q 1994 391 2212 530 
Q 2431 669 2431 922 
Q 2431 1156 2273 1281 
Q 2116 1406 1581 1522 
L 1381 1569 
Q 847 1681 609 1914 
Q 372 2147 372 2553 
Q 372 3047 722 3315 
Q 1072 3584 1716 3584 
Q 2034 3584 2315 3537 
Q 2597 3491 2834 3397 
z
" id="DejaVuSans-73" transform="scale(0.015625)"/>
      <path d="M 603 3500 
L 1178 3500 
L 1178 0 
L 603 0 
L 603 3500 
z
M 603 4863 
L 1178 4863 
L 1178 4134 
L 603 4134 
L 603 4863 
z
" id="DejaVuSans-69" transform="scale(0.015625)"/>
      <path d="M 1959 3097 
Q 1497 3097 1228 2736 
Q 959 2375 959 1747 
Q 959 1119 1226 758 
Q 1494 397 1959 397 
Q 2419 397 2687 759 
Q 2956 1122 2956 1747 
Q 2956 2369 2687 2733 
Q 2419 3097 1959 3097 
z
M 1959 3584 
Q 2709 3584 3137 3096 
Q 3566 2609 3566 1747 
Q 3566 888 3137 398 
Q 2709 -91 1959 -91 
Q 1206 -91 779 398 
Q 353 888 353 1747 
Q 353 2609 779 3096 
Q 1206 3584 1959 3584 
z
" id="DejaVuSans-6f" transform="scale(0.015625)"/>
      <path d="M 3513 2113 
L 3513 0 
L 2938 0 
L 2938 2094 
Q 2938 2591 2744 2837 
Q 2550 3084 2163 3084 
Q 1697 3084 1428 2787 
Q 1159 2491 1159 1978 
L 1159 0 
L 581 0 
L 581 3500 
L 1159 3500 
L 1159 2956 
Q 1366 3272 1645 3428 
Q 1925 3584 2291 3584 
Q 2894 3584 3203 3211 
Q 3513 2838 3513 2113 
z
" id="DejaVuSans-6e" transform="scale(0.015625)"/>
      <path d="M 750 794 
L 1409 794 
L 1409 0 
L 750 0 
L 750 794 
z
M 750 3309 
L 1409 3309 
L 1409 2516 
L 750 2516 
L 750 3309 
z
" id="DejaVuSans-3a" transform="scale(0.015625)"/>
      <path id="DejaVuSans-20" transform="scale(0.015625)"/>
      <path d="M 1172 4494 
L 1172 3500 
L 2356 3500 
L 2356 3053 
L 1172 3053 
L 1172 1153 
Q 1172 725 1289 603 
Q 1406 481 1766 481 
L 2356 481 
L 2356 0 
L 1766 0 
Q 1100 0 847 248 
Q 594 497 594 1153 
L 594 3053 
L 172 3053 
L 172 3500 
L 594 3500 
L 594 4494 
L 1172 4494 
z
" id="DejaVuSans-74" transform="scale(0.015625)"/>
      <path d="M 191 3500 
L 800 3500 
L 1894 563 
L 2988 3500 
L 3597 3500 
L 2284 0 
L 1503 0 
L 191 3500 
z
" id="DejaVuSans-76" transform="scale(0.015625)"/>
      <path d="M 313 2009 
L 1997 2009 
L 1997 1497 
L 313 1497 
L 313 2009 
z
" id="DejaVuSans-2d" transform="scale(0.015625)"/>
      <path d="M 3328 2828 
Q 3544 3216 3844 3400 
Q 4144 3584 4550 3584 
Q 5097 3584 5394 3201 
Q 5691 2819 5691 2113 
L 5691 0 
L 5113 0 
L 5113 2094 
Q 5113 2597 4934 2840 
Q 4756 3084 4391 3084 
Q 3944 3084 3684 2787 
Q 3425 2491 3425 1978 
L 3425 0 
L 2847 0 
L 2847 2094 
Q 2847 2600 2669 2842 
Q 2491 3084 2119 3084 
Q 1678 3084 1418 2786 
Q 1159 2488 1159 1978 
L 1159 0 
L 581 0 
L 581 3500 
L 1159 3500 
L 1159 2956 
Q 1356 3278 1631 3431 
Q 1906 3584 2284 3584 
Q 2666 3584 2933 3390 
Q 3200 3197 3328 2828 
z
" id="DejaVuSans-6d" transform="scale(0.015625)"/>
      <path d="M 3122 3366 
L 3122 2828 
Q 2878 2963 2633 3030 
Q 2388 3097 2138 3097 
Q 1578 3097 1268 2742 
Q 959 2388 959 1747 
Q 959 1106 1268 751 
Q 1578 397 2138 397 
Q 2388 397 2633 464 
Q 2878 531 3122 666 
L 3122 134 
Q 2881 22 2623 -34 
Q 2366 -91 2075 -91 
Q 1284 -91 818 406 
Q 353 903 353 1747 
Q 353 2603 823 3093 
Q 1294 3584 2113 3584 
Q 2378 3584 2631 3529 
Q 2884 3475 3122 3366 
z
" id="DejaVuSans-63" transform="scale(0.015625)"/>
     </defs>
     <use xlink:href="#DejaVuSans-44"/>
     <use x="77.001953" xlink:href="#DejaVuSans-65"/>
     <use x="138.525391" xlink:href="#DejaVuSans-70"/>
     <use x="202.001953" xlink:href="#DejaVuSans-72"/>
     <use x="240.865234" xlink:href="#DejaVuSans-65"/>
     <use x="302.388672" xlink:href="#DejaVuSans-73"/>
     <use x="354.488281" xlink:href="#DejaVuSans-73"/>
     <use x="406.587891" xlink:href="#DejaVuSans-69"/>
     <use x="434.371094" xlink:href="#DejaVuSans-6f"/>
     <use x="495.552734" xlink:href="#DejaVuSans-6e"/>
     <use x="558.931641" xlink:href="#DejaVuSans-3a"/>
     <use x="592.623047" xlink:href="#DejaVuSans-20"/>
     <use x="624.410156" xlink:href="#DejaVuSans-69"/>
     <use x="652.193359" xlink:href="#DejaVuSans-6e"/>
     <use x="715.572266" xlink:href="#DejaVuSans-73"/>
     <use x="767.671875" xlink:href="#DejaVuSans-65"/>
     <use x="829.195312" xlink:href="#DejaVuSans-6e"/>
     <use x="892.574219" xlink:href="#DejaVuSans-73"/>
     <use x="944.673828" xlink:href="#DejaVuSans-69"/>
     <use x="972.457031" xlink:href="#DejaVuSans-74"/>
     <use x="1011.666016" xlink:href="#DejaVuSans-69"/>
     <use x="1039.449219" xlink:href="#DejaVuSans-76"/>
     <use x="1098.628906" xlink:href="#DejaVuSans-65"/>
     <use x="1160.152344" xlink:href="#DejaVuSans-2d"/>
     <use x="1196.236328" xlink:href="#DejaVuSans-70"/>
     <use x="1259.712891" xlink:href="#DejaVuSans-65"/>
     <use x="1321.236328" xlink:href="#DejaVuSans-73"/>
     <use x="1373.335938" xlink:href="#DejaVuSans-73"/>
     <use x="1425.435547" xlink:href="#DejaVuSans-69"/>
     <use x="1453.21875" xlink:href="#DejaVuSans-6d"/>
     <use x="1550.630859" xlink:href="#DejaVuSans-69"/>
     <use x="1578.414062" xlink:href="#DejaVuSans-73"/>
     <use x="1630.513672" xlink:href="#DejaVuSans-74"/>
     <use x="1669.722656" xlink:href="#DejaVuSans-69"/>
     <use x="1697.505859" xlink:href="#DejaVuSans-63"/>
    </g>
   </g>
   <g id="legend_1">
    <g id="patch_9">
     <path d="M 1145.913125 150.4341 
L 1237.16 150.4341 
Q 1239.16 150.4341 1239.16 148.4341 
L 1239.16 90.7216 
Q 1239.16 88.7216 1237.16 88.7216 
L 1145.913125 88.7216 
Q 1143.913125 88.7216 1143.913125 90.7216 
L 1143.913125 148.4341 
Q 1143.913125 150.4341 1145.913125 150.4341 
z
" style="fill:#ffffff;opacity:0.8;stroke:#cccccc;stroke-linejoin:miter;"/>
    </g>
    <g id="line2d_50">
     <path d="M 1147.913125 96.820037 
L 1167.913125 96.820037 
" style="fill:none;stroke:#0000ff;stroke-linecap:square;stroke-width:1.5;"/>
    </g>
    <g id="line2d_51">
     <g>
      <use style="fill:#0000ff;stroke:#0000ff;" x="1157.913125" xlink:href="#me97db5daf0" y="96.820037"/>
     </g>
    </g>
    <g id="text_50">
     <!-- cooperative -->
     <g transform="translate(1175.913125 100.320037)scale(0.1 -0.1)">
      <defs>
       <path d="M 2194 1759 
Q 1497 1759 1228 1600 
Q 959 1441 959 1056 
Q 959 750 1161 570 
Q 1363 391 1709 391 
Q 2188 391 2477 730 
Q 2766 1069 2766 1631 
L 2766 1759 
L 2194 1759 
z
M 3341 1997 
L 3341 0 
L 2766 0 
L 2766 531 
Q 2569 213 2275 61 
Q 1981 -91 1556 -91 
Q 1019 -91 701 211 
Q 384 513 384 1019 
Q 384 1609 779 1909 
Q 1175 2209 1959 2209 
L 2766 2209 
L 2766 2266 
Q 2766 2663 2505 2880 
Q 2244 3097 1772 3097 
Q 1472 3097 1187 3025 
Q 903 2953 641 2809 
L 641 3341 
Q 956 3463 1253 3523 
Q 1550 3584 1831 3584 
Q 2591 3584 2966 3190 
Q 3341 2797 3341 1997 
z
" id="DejaVuSans-61" transform="scale(0.015625)"/>
      </defs>
      <use xlink:href="#DejaVuSans-63"/>
      <use x="54.980469" xlink:href="#DejaVuSans-6f"/>
      <use x="116.162109" xlink:href="#DejaVuSans-6f"/>
      <use x="177.34375" xlink:href="#DejaVuSans-70"/>
      <use x="240.820312" xlink:href="#DejaVuSans-65"/>
      <use x="302.34375" xlink:href="#DejaVuSans-72"/>
      <use x="343.457031" xlink:href="#DejaVuSans-61"/>
      <use x="404.736328" xlink:href="#DejaVuSans-74"/>
      <use x="443.945312" xlink:href="#DejaVuSans-69"/>
      <use x="471.728516" xlink:href="#DejaVuSans-76"/>
      <use x="530.908203" xlink:href="#DejaVuSans-65"/>
     </g>
    </g>
    <g id="line2d_52">
     <path d="M 1147.913125 111.498162 
L 1167.913125 111.498162 
" style="fill:none;stroke:#ff0000;stroke-linecap:square;stroke-width:1.5;"/>
    </g>
    <g id="line2d_53">
     <g>
      <use style="fill:#ff0000;stroke:#ff0000;" x="1157.913125" xlink:href="#mffebae44b8" y="111.498162"/>
     </g>
    </g>
    <g id="text_51">
     <!-- hostile -->
     <g transform="translate(1175.913125 114.998162)scale(0.1 -0.1)">
      <defs>
       <path d="M 3513 2113 
L 3513 0 
L 2938 0 
L 2938 2094 
Q 2938 2591 2744 2837 
Q 2550 3084 2163 3084 
Q 1697 3084 1428 2787 
Q 1159 2491 1159 1978 
L 1159 0 
L 581 0 
L 581 4863 
L 1159 4863 
L 1159 2956 
Q 1366 3272 1645 3428 
Q 1925 3584 2291 3584 
Q 2894 3584 3203 3211 
Q 3513 2838 3513 2113 
z
" id="DejaVuSans-68" transform="scale(0.015625)"/>
       <path d="M 603 4863 
L 1178 4863 
L 1178 0 
L 603 0 
L 603 4863 
z
" id="DejaVuSans-6c" transform="scale(0.015625)"/>
      </defs>
      <use xlink:href="#DejaVuSans-68"/>
      <use x="63.378906" xlink:href="#DejaVuSans-6f"/>
      <use x="124.560547" xlink:href="#DejaVuSans-73"/>
      <use x="176.660156" xlink:href="#DejaVuSans-74"/>
      <use x="215.869141" xlink:href="#DejaVuSans-69"/>
      <use x="243.652344" xlink:href="#DejaVuSans-6c"/>
      <use x="271.435547" xlink:href="#DejaVuSans-65"/>
     </g>
    </g>
    <g id="line2d_54">
     <path d="M 1147.913125 126.176287 
L 1167.913125 126.176287 
" style="fill:none;stroke:#808080;stroke-linecap:square;stroke-width:1.5;"/>
    </g>
    <g id="line2d_55">
     <g>
      <use style="fill:#808080;stroke:#808080;" x="1157.913125" xlink:href="#mdb57171470" y="126.176287"/>
     </g>
    </g>
    <g id="text_52">
     <!-- random -->
     <g transform="translate(1175.913125 129.676287)scale(0.1 -0.1)">
      <defs>
       <path d="M 2906 2969 
L 2906 4863 
L 3481 4863 
L 3481 0 
L 2906 0 
L 2906 525 
Q 2725 213 2448 61 
Q 2172 -91 1784 -91 
Q 1150 -91 751 415 
Q 353 922 353 1747 
Q 353 2572 751 3078 
Q 1150 3584 1784 3584 
Q 2172 3584 2448 3432 
Q 2725 3281 2906 2969 
z
M 947 1747 
Q 947 1113 1208 752 
Q 1469 391 1925 391 
Q 2381 391 2643 752 
Q 2906 1113 2906 1747 
Q 2906 2381 2643 2742 
Q 2381 3103 1925 3103 
Q 1469 3103 1208 2742 
Q 947 2381 947 1747 
z
" id="DejaVuSans-64" transform="scale(0.015625)"/>
      </defs>
      <use xlink:href="#DejaVuSans-72"/>
      <use x="41.113281" xlink:href="#DejaVuSans-61"/>
      <use x="102.392578" xlink:href="#DejaVuSans-6e"/>
      <use x="165.771484" xlink:href="#DejaVuSans-64"/>
      <use x="229.248047" xlink:href="#DejaVuSans-6f"/>
      <use x="290.429688" xlink:href="#DejaVuSans-6d"/>
     </g>
    </g>
    <g id="PathCollection_2">
     <path d="M 1157.913125 147.853137 
L 1164.036849 135.605688 
L 1151.789401 135.605688 
z
" style="fill:#ff0000;stroke:#ff0000;"/>
    </g>
    <g id="text_53">
     <!-- action -->
     <g transform="translate(1175.913125 144.354412)scale(0.1 -0.1)">
      <use xlink:href="#DejaVuSans-61"/>
      <use x="61.279297" xlink:href="#DejaVuSans-63"/>
      <use x="116.259766" xlink:href="#DejaVuSans-74"/>
      <use x="155.46875" xlink:href="#DejaVuSans-69"/>
      <use x="183.251953" xlink:href="#DejaVuSans-6f"/>
      <use x="244.433594" xlink:href="#DejaVuSans-6e"/>
     </g>
    </g>
   </g>
  </g>
 </g>
 <defs>
  <clipPath id="p32f4d413d3">
   <rect height="537.2136" width="1071.36" x="172.8" y="83.7216"/>
  </clipPath>
 </defs>
</svg>
