<?xml version="1.0" encoding="utf-8" standalone="no"?>
<!DOCTYPE svg PUBLIC "-//W3C//DTD SVG 1.1//EN"
  "http://www.w3.org/Graphics/SVG/1.1/DTD/svg11.dtd">
<svg height="570.96pt" version="1.1" viewBox="0 0 921.6 570.96" width="921.6pt" xmlns="http://www.w3.org/2000/svg" xmlns:xlink="http://www.w3.org/1999/xlink">
 <metadata>
  <rdf:RDF xmlns:cc="http://creativecommons.org/ns#" xmlns:dc="http://purl.org/dc/elements/1.1/" xmlns:rdf="http://www.w3.org/1999/02/22-rdf-syntax-ns#">
   <cc:Work>
    <dc:type rdf:resource="http://purl.org/dc/dcmitype/StillImage"/>
    <dc:date>2024-06-11T17:11:25.596817</dc:date>
    <dc:format>image/svg+xml</dc:format>
    <dc:creator>
     <cc:Agent>
      <dc:title>Matplotlib v3.4.3, https://matplotlib.org/</dc:title>
     </cc:Agent>
    </dc:creator>
   </cc:Work>
  </rdf:RDF>
 </metadata>
 <defs>
  <style type="text/css">*{stroke-linecap:butt;stroke-linejoin:round;}</style>
 </defs>
 <g id="figure_1">
  <g id="patch_1">
   <path d="M 0 570.96 
L 921.6 570.96 
L 921.6 0 
L 0 0 
z
" style="fill:#ffffff;"/>
  </g>
  <g id="axes_1">
   <g id="patch_2">
    <path d="M 115.2 508.1544 
L 829.44 508.1544 
L 829.44 68.5152 
L 115.2 68.5152 
z
" style="fill:#ffffff;"/>
   </g>
   <g id="PolyCollection_1">
    <defs>
     <path d="M 154.948431 -119.891231 
L 154.811569 -119.891231 
L 154.794478 -123.409304 
L 154.774276 -126.927377 
L 154.750709 -130.44545 
L 154.723579 -133.963524 
L 154.692759 -137.481597 
L 154.658221 -140.99967 
L 154.620041 -144.517743 
L 154.57842 -148.035816 
L 154.533687 -151.553889 
L 154.486298 -155.071962 
L 154.436835 -158.590036 
L 154.385981 -162.108109 
L 154.334506 -165.626182 
L 154.283228 -169.144255 
L 154.23298 -172.662328 
L 154.184562 -176.180401 
L 154.138699 -179.698474 
L 154.095993 -183.216547 
L 154.056881 -186.734621 
L 154.021599 -190.252694 
L 153.99015 -193.770767 
L 153.962293 -197.28884 
L 153.937534 -200.806913 
L 153.915136 -204.324986 
L 153.894145 -207.843059 
L 153.873428 -211.361132 
L 153.851717 -214.879206 
L 153.827667 -218.397279 
L 153.799921 -221.915352 
L 153.767167 -225.433425 
L 153.728202 -228.951498 
L 153.681979 -232.469571 
L 153.627652 -235.987644 
L 153.564602 -239.505717 
L 153.492451 -243.023791 
L 153.411061 -246.541864 
L 153.320522 -250.059937 
L 153.221122 -253.57801 
L 153.113322 -257.096083 
L 152.997714 -260.614156 
L 152.874987 -264.132229 
L 152.745892 -267.650303 
L 152.611221 -271.168376 
L 152.471781 -274.686449 
L 152.328384 -278.204522 
L 152.18185 -281.722595 
L 152.032999 -285.240668 
L 151.882669 -288.758741 
L 151.731718 -292.276814 
L 151.581034 -295.794888 
L 151.431543 -299.312961 
L 151.284213 -302.831034 
L 151.140052 -306.349107 
L 151.000108 -309.86718 
L 150.865463 -313.385253 
L 150.737229 -316.903326 
L 150.616538 -320.421399 
L 150.504542 -323.939473 
L 150.402409 -327.457546 
L 150.311317 -330.975619 
L 150.232455 -334.493692 
L 150.167015 -338.011765 
L 150.116187 -341.529838 
L 150.08114 -345.047911 
L 150.063006 -348.565984 
L 150.062845 -352.084058 
L 150.081614 -355.602131 
L 150.120118 -359.120204 
L 150.178965 -362.638277 
L 150.25851 -366.15635 
L 150.358814 -369.674423 
L 150.479596 -373.192496 
L 150.620198 -376.71057 
L 150.779573 -380.228643 
L 150.956272 -383.746716 
L 151.148465 -387.264789 
L 151.353969 -390.782862 
L 151.5703 -394.300935 
L 151.794738 -397.819008 
L 152.024401 -401.337081 
L 152.256335 -404.855155 
L 152.487603 -408.373228 
L 152.715371 -411.891301 
L 152.936995 -415.409374 
L 153.150092 -418.927447 
L 153.3526 -422.44552 
L 153.542825 -425.963593 
L 153.719468 -429.481666 
L 153.881632 -432.99974 
L 154.028817 -436.517813 
L 154.160897 -440.035886 
L 154.278087 -443.553959 
L 154.380893 -447.072032 
L 154.470065 -450.590105 
L 154.546539 -454.108178 
L 154.611383 -457.626251 
L 154.665745 -461.144325 
L 154.710803 -464.662398 
L 154.747725 -468.180471 
L 155.012275 -468.180471 
L 155.012275 -468.180471 
L 155.049197 -464.662398 
L 155.094255 -461.144325 
L 155.148617 -457.626251 
L 155.213461 -454.108178 
L 155.289935 -450.590105 
L 155.379107 -447.072032 
L 155.481913 -443.553959 
L 155.599103 -440.035886 
L 155.731183 -436.517813 
L 155.878368 -432.99974 
L 156.040532 -429.481666 
L 156.217175 -425.963593 
L 156.4074 -422.44552 
L 156.609908 -418.927447 
L 156.823005 -415.409374 
L 157.044629 -411.891301 
L 157.272397 -408.373228 
L 157.503665 -404.855155 
L 157.735599 -401.337081 
L 157.965262 -397.819008 
L 158.1897 -394.300935 
L 158.406031 -390.782862 
L 158.611535 -387.264789 
L 158.803728 -383.746716 
L 158.980427 -380.228643 
L 159.139802 -376.71057 
L 159.280404 -373.192496 
L 159.401186 -369.674423 
L 159.50149 -366.15635 
L 159.581035 -362.638277 
L 159.639882 -359.120204 
L 159.678386 -355.602131 
L 159.697155 -352.084058 
L 159.696994 -348.565984 
L 159.67886 -345.047911 
L 159.643813 -341.529838 
L 159.592985 -338.011765 
L 159.527545 -334.493692 
L 159.448683 -330.975619 
L 159.357591 -327.457546 
L 159.255458 -323.939473 
L 159.143462 -320.421399 
L 159.022771 -316.903326 
L 158.894537 -313.385253 
L 158.759892 -309.86718 
L 158.619948 -306.349107 
L 158.475787 -302.831034 
L 158.328457 -299.312961 
L 158.178966 -295.794888 
L 158.028282 -292.276814 
L 157.877331 -288.758741 
L 157.727001 -285.240668 
L 157.57815 -281.722595 
L 157.431616 -278.204522 
L 157.288219 -274.686449 
L 157.148779 -271.168376 
L 157.014108 -267.650303 
L 156.885013 -264.132229 
L 156.762286 -260.614156 
L 156.646678 -257.096083 
L 156.538878 -253.57801 
L 156.439478 -250.059937 
L 156.348939 -246.541864 
L 156.267549 -243.023791 
L 156.195398 -239.505717 
L 156.132348 -235.987644 
L 156.078021 -232.469571 
L 156.031798 -228.951498 
L 155.992833 -225.433425 
L 155.960079 -221.915352 
L 155.932333 -218.397279 
L 155.908283 -214.879206 
L 155.886572 -211.361132 
L 155.865855 -207.843059 
L 155.844864 -204.324986 
L 155.822466 -200.806913 
L 155.797707 -197.28884 
L 155.76985 -193.770767 
L 155.738401 -190.252694 
L 155.703119 -186.734621 
L 155.664007 -183.216547 
L 155.621301 -179.698474 
L 155.575438 -176.180401 
L 155.52702 -172.662328 
L 155.476772 -169.144255 
L 155.425494 -165.626182 
L 155.374019 -162.108109 
L 155.323165 -158.590036 
L 155.273702 -155.071962 
L 155.226313 -151.553889 
L 155.18158 -148.035816 
L 155.139959 -144.517743 
L 155.101779 -140.99967 
L 155.067241 -137.481597 
L 155.036421 -133.963524 
L 155.009291 -130.44545 
L 154.985724 -126.927377 
L 154.965522 -123.409304 
L 154.948431 -119.891231 
z
" id="mf5038d9b52" style="stroke:#484848;stroke-width:1.5;"/>
    </defs>
    <g clip-path="url(#p019b6742de)">
     <use style="fill:#c1505d;stroke:#484848;stroke-width:1.5;" x="0" xlink:href="#mf5038d9b52" y="570.96"/>
    </g>
   </g>
   <g id="PolyCollection_2">
    <defs>
     <path d="M 234.50795 -82.7892 
L 233.97205 -82.7892 
L 233.918885 -86.826291 
L 233.858017 -90.863382 
L 233.78897 -94.900473 
L 233.711373 -98.937564 
L 233.624995 -102.974655 
L 233.529773 -107.011745 
L 233.425842 -111.048836 
L 233.31356 -115.085927 
L 233.193527 -119.123018 
L 233.066602 -123.160109 
L 232.933905 -127.1972 
L 232.796817 -131.234291 
L 232.656958 -135.271382 
L 232.516171 -139.308473 
L 232.376478 -143.345564 
L 232.240034 -147.382655 
L 232.109075 -151.419745 
L 231.985851 -155.456836 
L 231.872556 -159.493927 
L 231.771262 -163.531018 
L 231.683843 -167.568109 
L 231.61191 -171.6052 
L 231.556754 -175.642291 
L 231.519287 -179.679382 
L 231.500012 -183.716473 
L 231.498988 -187.753564 
L 231.515826 -191.790655 
L 231.549688 -195.827745 
L 231.599306 -199.864836 
L 231.66302 -203.901927 
L 231.738818 -207.939018 
L 231.824394 -211.976109 
L 231.917212 -216.0132 
L 232.014579 -220.050291 
L 232.113714 -224.087382 
L 232.211827 -228.124473 
L 232.306184 -232.161564 
L 232.394183 -236.198655 
L 232.473412 -240.235745 
L 232.541704 -244.272836 
L 232.597189 -248.309927 
L 232.638327 -252.347018 
L 232.663945 -256.384109 
L 232.673254 -260.4212 
L 232.665863 -264.458291 
L 232.641782 -268.495382 
L 232.601421 -272.532473 
L 232.545573 -276.569564 
L 232.475397 -280.606655 
L 232.392395 -284.643745 
L 232.298368 -288.680836 
L 232.195387 -292.717927 
L 232.085739 -296.755018 
L 231.97188 -300.792109 
L 231.85638 -304.8292 
L 231.741862 -308.866291 
L 231.630945 -312.903382 
L 231.526181 -316.940473 
L 231.429998 -320.977564 
L 231.34464 -325.014655 
L 231.272119 -329.051745 
L 231.214166 -333.088836 
L 231.172195 -337.125927 
L 231.147273 -341.163018 
L 231.140098 -345.200109 
L 231.150993 -349.2372 
L 231.179908 -353.274291 
L 231.226428 -357.311382 
L 231.2898 -361.348473 
L 231.36896 -365.385564 
L 231.462574 -369.422655 
L 231.569081 -373.459745 
L 231.686743 -377.496836 
L 231.813694 -381.533927 
L 231.947994 -385.571018 
L 232.08768 -389.608109 
L 232.230812 -393.6452 
L 232.375517 -397.682291 
L 232.52003 -401.719382 
L 232.662722 -405.756473 
L 232.802131 -409.793564 
L 232.936975 -413.830655 
L 233.06617 -417.867745 
L 233.188828 -421.904836 
L 233.304265 -425.941927 
L 233.411988 -429.979018 
L 233.511686 -434.016109 
L 233.603219 -438.0532 
L 233.686596 -442.090291 
L 233.76196 -446.127382 
L 233.829563 -450.164473 
L 233.889752 -454.201564 
L 233.942943 -458.238655 
L 233.989605 -462.275745 
L 234.030243 -466.312836 
L 234.065377 -470.349927 
L 234.095535 -474.387018 
L 234.121236 -478.424109 
L 234.142982 -482.4612 
L 234.337018 -482.4612 
L 234.337018 -482.4612 
L 234.358764 -478.424109 
L 234.384465 -474.387018 
L 234.414623 -470.349927 
L 234.449757 -466.312836 
L 234.490395 -462.275745 
L 234.537057 -458.238655 
L 234.590248 -454.201564 
L 234.650437 -450.164473 
L 234.71804 -446.127382 
L 234.793404 -442.090291 
L 234.876781 -438.0532 
L 234.968314 -434.016109 
L 235.068012 -429.979018 
L 235.175735 -425.941927 
L 235.291172 -421.904836 
L 235.41383 -417.867745 
L 235.543025 -413.830655 
L 235.677869 -409.793564 
L 235.817278 -405.756473 
L 235.95997 -401.719382 
L 236.104483 -397.682291 
L 236.249188 -393.6452 
L 236.39232 -389.608109 
L 236.532006 -385.571018 
L 236.666306 -381.533927 
L 236.793257 -377.496836 
L 236.910919 -373.459745 
L 237.017426 -369.422655 
L 237.11104 -365.385564 
L 237.1902 -361.348473 
L 237.253572 -357.311382 
L 237.300092 -353.274291 
L 237.329007 -349.2372 
L 237.339902 -345.200109 
L 237.332727 -341.163018 
L 237.307805 -337.125927 
L 237.265834 -333.088836 
L 237.207881 -329.051745 
L 237.13536 -325.014655 
L 237.050002 -320.977564 
L 236.953819 -316.940473 
L 236.849055 -312.903382 
L 236.738138 -308.866291 
L 236.62362 -304.8292 
L 236.50812 -300.792109 
L 236.394261 -296.755018 
L 236.284613 -292.717927 
L 236.181632 -288.680836 
L 236.087605 -284.643745 
L 236.004603 -280.606655 
L 235.934427 -276.569564 
L 235.878579 -272.532473 
L 235.838218 -268.495382 
L 235.814137 -264.458291 
L 235.806746 -260.4212 
L 235.816055 -256.384109 
L 235.841673 -252.347018 
L 235.882811 -248.309927 
L 235.938296 -244.272836 
L 236.006588 -240.235745 
L 236.085817 -236.198655 
L 236.173816 -232.161564 
L 236.268173 -228.124473 
L 236.366286 -224.087382 
L 236.465421 -220.050291 
L 236.562788 -216.0132 
L 236.655606 -211.976109 
L 236.741182 -207.939018 
L 236.81698 -203.901927 
L 236.880694 -199.864836 
L 236.930312 -195.827745 
L 236.964174 -191.790655 
L 236.981012 -187.753564 
L 236.979988 -183.716473 
L 236.960713 -179.679382 
L 236.923246 -175.642291 
L 236.86809 -171.6052 
L 236.796157 -167.568109 
L 236.708738 -163.531018 
L 236.607444 -159.493927 
L 236.494149 -155.456836 
L 236.370925 -151.419745 
L 236.239966 -147.382655 
L 236.103522 -143.345564 
L 235.963829 -139.308473 
L 235.823042 -135.271382 
L 235.683183 -131.234291 
L 235.546095 -127.1972 
L 235.413398 -123.160109 
L 235.286473 -119.123018 
L 235.16644 -115.085927 
L 235.054158 -111.048836 
L 234.950227 -107.011745 
L 234.855005 -102.974655 
L 234.768627 -98.937564 
L 234.69103 -94.900473 
L 234.621983 -90.863382 
L 234.561115 -86.826291 
L 234.50795 -82.7892 
z
" id="mb5610aea16" style="stroke:#484848;stroke-width:1.5;"/>
    </defs>
    <g clip-path="url(#p019b6742de)">
     <use style="fill:#de7959;stroke:#484848;stroke-width:1.5;" x="0" xlink:href="#mb5610aea16" y="570.96"/>
    </g>
   </g>
   <g id="PolyCollection_3">
    <defs>
     <path d="M 313.727009 -219.283458 
L 313.472991 -219.283458 
L 313.439456 -221.20854 
L 313.399371 -223.133622 
L 313.352071 -225.058704 
L 313.296961 -226.983786 
L 313.233547 -228.908868 
L 313.161456 -230.83395 
L 313.080458 -232.759032 
L 312.990478 -234.684115 
L 312.891595 -236.609197 
L 312.784035 -238.534279 
L 312.668152 -240.459361 
L 312.5444 -242.384443 
L 312.413296 -244.309525 
L 312.275383 -246.234607 
L 312.131188 -248.159689 
L 311.981178 -250.084772 
L 311.825724 -252.009854 
L 311.665074 -253.934936 
L 311.499319 -255.860018 
L 311.328384 -257.7851 
L 311.152019 -259.710182 
L 310.969795 -261.635264 
L 310.78112 -263.560346 
L 310.585259 -265.485429 
L 310.381361 -267.410511 
L 310.16851 -269.335593 
L 309.945769 -271.260675 
L 309.712254 -273.185757 
L 309.467204 -275.110839 
L 309.210065 -277.035921 
L 308.940574 -278.961003 
L 308.658847 -280.886086 
L 308.36545 -282.811168 
L 308.061467 -284.73625 
L 307.748548 -286.661332 
L 307.428927 -288.586414 
L 307.105428 -290.511496 
L 306.781436 -292.436578 
L 306.460843 -294.36166 
L 306.14798 -296.286743 
L 305.847515 -298.211825 
L 305.56435 -300.136907 
L 305.303496 -302.061989 
L 305.069942 -303.987071 
L 304.868517 -305.912153 
L 304.703747 -307.837235 
L 304.57971 -309.762317 
L 304.499893 -311.6874 
L 304.467047 -313.612482 
L 304.483054 -315.537564 
L 304.548804 -317.462646 
L 304.664095 -319.387728 
L 304.827563 -321.31281 
L 305.036645 -323.237892 
L 305.287598 -325.162974 
L 305.575563 -327.088057 
L 305.894694 -329.013139 
L 306.238341 -330.938221 
L 306.599286 -332.863303 
L 306.970023 -334.788385 
L 307.343067 -336.713467 
L 307.71127 -338.638549 
L 308.068133 -340.563631 
L 308.408079 -342.488714 
L 308.726679 -344.413796 
L 309.020808 -346.338878 
L 309.288726 -348.26396 
L 309.530067 -350.189042 
L 309.745754 -352.114124 
L 309.937833 -354.039206 
L 310.109258 -355.964288 
L 310.263621 -357.889371 
L 310.404876 -359.814453 
L 310.537055 -361.739535 
L 310.664007 -363.664617 
L 310.789179 -365.589699 
L 310.915436 -367.514781 
L 311.044951 -369.439863 
L 311.179138 -371.364945 
L 311.318652 -373.290028 
L 311.46343 -375.21511 
L 311.612782 -377.140192 
L 311.765497 -379.065274 
L 311.91998 -380.990356 
L 312.074386 -382.915438 
L 312.226763 -384.84052 
L 312.375169 -386.765602 
L 312.517787 -388.690685 
L 312.653011 -390.615767 
L 312.77951 -392.540849 
L 312.896268 -394.465931 
L 313.002603 -396.391013 
L 313.098164 -398.316095 
L 313.182908 -400.241177 
L 313.257073 -402.166259 
L 313.321128 -404.091342 
L 313.375725 -406.016424 
L 313.421652 -407.941506 
L 313.45978 -409.866588 
L 313.74022 -409.866588 
L 313.74022 -409.866588 
L 313.778348 -407.941506 
L 313.824275 -406.016424 
L 313.878872 -404.091342 
L 313.942927 -402.166259 
L 314.017092 -400.241177 
L 314.101836 -398.316095 
L 314.197397 -396.391013 
L 314.303732 -394.465931 
L 314.42049 -392.540849 
L 314.546989 -390.615767 
L 314.682213 -388.690685 
L 314.824831 -386.765602 
L 314.973237 -384.84052 
L 315.125614 -382.915438 
L 315.28002 -380.990356 
L 315.434503 -379.065274 
L 315.587218 -377.140192 
L 315.73657 -375.21511 
L 315.881348 -373.290028 
L 316.020862 -371.364945 
L 316.155049 -369.439863 
L 316.284564 -367.514781 
L 316.410821 -365.589699 
L 316.535993 -363.664617 
L 316.662945 -361.739535 
L 316.795124 -359.814453 
L 316.936379 -357.889371 
L 317.090742 -355.964288 
L 317.262167 -354.039206 
L 317.454246 -352.114124 
L 317.669933 -350.189042 
L 317.911274 -348.26396 
L 318.179192 -346.338878 
L 318.473321 -344.413796 
L 318.791921 -342.488714 
L 319.131867 -340.563631 
L 319.48873 -338.638549 
L 319.856933 -336.713467 
L 320.229977 -334.788385 
L 320.600714 -332.863303 
L 320.961659 -330.938221 
L 321.305306 -329.013139 
L 321.624437 -327.088057 
L 321.912402 -325.162974 
L 322.163355 -323.237892 
L 322.372437 -321.31281 
L 322.535905 -319.387728 
L 322.651196 -317.462646 
L 322.716946 -315.537564 
L 322.732953 -313.612482 
L 322.700107 -311.6874 
L 322.62029 -309.762317 
L 322.496253 -307.837235 
L 322.331483 -305.912153 
L 322.130058 -303.987071 
L 321.896504 -302.061989 
L 321.63565 -300.136907 
L 321.352485 -298.211825 
L 321.05202 -296.286743 
L 320.739157 -294.36166 
L 320.418564 -292.436578 
L 320.094572 -290.511496 
L 319.771073 -288.586414 
L 319.451452 -286.661332 
L 319.138533 -284.73625 
L 318.83455 -282.811168 
L 318.541153 -280.886086 
L 318.259426 -278.961003 
L 317.989935 -277.035921 
L 317.732796 -275.110839 
L 317.487746 -273.185757 
L 317.254231 -271.260675 
L 317.03149 -269.335593 
L 316.818639 -267.410511 
L 316.614741 -265.485429 
L 316.41888 -263.560346 
L 316.230205 -261.635264 
L 316.047981 -259.710182 
L 315.871616 -257.7851 
L 315.700681 -255.860018 
L 315.534926 -253.934936 
L 315.374276 -252.009854 
L 315.218822 -250.084772 
L 315.068812 -248.159689 
L 314.924617 -246.234607 
L 314.786704 -244.309525 
L 314.6556 -242.384443 
L 314.531848 -240.459361 
L 314.415965 -238.534279 
L 314.308405 -236.609197 
L 314.209522 -234.684115 
L 314.119542 -232.759032 
L 314.038544 -230.83395 
L 313.966453 -228.908868 
L 313.903039 -226.983786 
L 313.847929 -225.058704 
L 313.800629 -223.133622 
L 313.760544 -221.20854 
L 313.727009 -219.283458 
z
" id="mf947ffc4bd" style="stroke:#484848;stroke-width:1.5;"/>
    </defs>
    <g clip-path="url(#p019b6742de)">
     <use style="fill:#e9ad74;stroke:#484848;stroke-width:1.5;" x="0" xlink:href="#mf947ffc4bd" y="570.96"/>
    </g>
   </g>
   <g id="PolyCollection_4">
    <defs>
     <path d="M 396.049996 -203.688383 
L 389.870004 -203.688383 
L 389.161739 -204.360993 
L 388.34202 -205.033604 
L 387.40644 -205.706214 
L 386.35373 -206.378824 
L 385.186393 -207.051435 
L 383.911254 -207.724045 
L 382.53982 -208.396655 
L 381.088439 -209.069266 
L 379.578179 -209.741876 
L 378.034424 -210.414486 
L 376.486162 -211.087097 
L 374.964991 -211.759707 
L 373.503876 -212.432318 
L 372.135726 -213.104928 
L 370.891882 -213.777538 
L 369.800601 -214.450149 
L 368.885654 -215.122759 
L 368.165121 -215.795369 
L 367.650491 -216.46798 
L 367.346118 -217.14059 
L 367.249065 -217.813201 
L 367.349361 -218.485811 
L 367.630634 -219.158421 
L 368.071063 -219.831032 
L 368.644588 -220.503642 
L 369.322282 -221.176252 
L 370.073784 -221.848863 
L 370.868722 -222.521473 
L 371.67802 -223.194083 
L 372.475054 -223.866694 
L 373.23658 -224.539304 
L 373.943449 -225.211915 
L 374.581061 -225.884525 
L 375.139603 -226.557135 
L 375.614066 -227.229746 
L 376.004078 -227.902356 
L 376.313577 -228.574966 
L 376.550351 -229.247577 
L 376.725472 -229.920187 
L 376.852649 -230.592798 
L 376.947509 -231.265408 
L 377.026846 -231.938018 
L 377.107844 -232.610629 
L 377.207307 -233.283239 
L 377.340921 -233.955849 
L 377.522572 -234.62846 
L 377.763759 -235.30107 
L 378.073114 -235.973681 
L 378.456068 -236.646291 
L 378.91467 -237.318901 
L 379.447568 -237.991512 
L 380.050155 -238.664122 
L 380.714862 -239.336732 
L 381.431585 -240.009343 
L 382.188213 -240.681953 
L 382.971225 -241.354563 
L 383.766326 -242.027174 
L 384.55907 -242.699784 
L 385.335465 -243.372395 
L 386.082503 -244.045005 
L 386.788618 -244.717615 
L 387.444037 -245.390226 
L 388.041033 -246.062836 
L 388.574076 -246.735446 
L 389.039877 -247.408057 
L 389.437347 -248.080667 
L 389.767475 -248.753278 
L 390.033139 -249.425888 
L 390.238868 -250.098498 
L 390.390563 -250.771109 
L 390.495195 -251.443719 
L 390.560486 -252.116329 
L 390.594586 -252.78894 
L 390.605762 -253.46155 
L 390.602093 -254.13416 
L 390.591198 -254.806771 
L 390.579996 -255.479381 
L 390.574501 -256.151992 
L 390.57967 -256.824602 
L 390.599301 -257.497212 
L 390.635984 -258.169823 
L 390.691111 -258.842433 
L 390.764931 -259.515043 
L 390.856664 -260.187654 
L 390.964642 -260.860264 
L 391.086489 -261.532875 
L 391.219315 -262.205485 
L 391.359912 -262.878095 
L 391.504956 -263.550706 
L 391.651181 -264.223316 
L 391.795532 -264.895926 
L 391.935293 -265.568537 
L 392.068172 -266.241147 
L 392.192353 -266.913757 
L 392.306519 -267.586368 
L 392.409839 -268.258978 
L 392.501935 -268.931589 
L 392.582825 -269.604199 
L 392.652861 -270.276809 
L 393.267139 -270.276809 
L 393.267139 -270.276809 
L 393.337175 -269.604199 
L 393.418065 -268.931589 
L 393.510161 -268.258978 
L 393.613481 -267.586368 
L 393.727647 -266.913757 
L 393.851828 -266.241147 
L 393.984707 -265.568537 
L 394.124468 -264.895926 
L 394.268819 -264.223316 
L 394.415044 -263.550706 
L 394.560088 -262.878095 
L 394.700685 -262.205485 
L 394.833511 -261.532875 
L 394.955358 -260.860264 
L 395.063336 -260.187654 
L 395.155069 -259.515043 
L 395.228889 -258.842433 
L 395.284016 -258.169823 
L 395.320699 -257.497212 
L 395.34033 -256.824602 
L 395.345499 -256.151992 
L 395.340004 -255.479381 
L 395.328802 -254.806771 
L 395.317907 -254.13416 
L 395.314238 -253.46155 
L 395.325414 -252.78894 
L 395.359514 -252.116329 
L 395.424805 -251.443719 
L 395.529437 -250.771109 
L 395.681132 -250.098498 
L 395.886861 -249.425888 
L 396.152525 -248.753278 
L 396.482653 -248.080667 
L 396.880123 -247.408057 
L 397.345924 -246.735446 
L 397.878967 -246.062836 
L 398.475963 -245.390226 
L 399.131382 -244.717615 
L 399.837497 -244.045005 
L 400.584535 -243.372395 
L 401.36093 -242.699784 
L 402.153674 -242.027174 
L 402.948775 -241.354563 
L 403.731787 -240.681953 
L 404.488415 -240.009343 
L 405.205138 -239.336732 
L 405.869845 -238.664122 
L 406.472432 -237.991512 
L 407.00533 -237.318901 
L 407.463932 -236.646291 
L 407.846886 -235.973681 
L 408.156241 -235.30107 
L 408.397428 -234.62846 
L 408.579079 -233.955849 
L 408.712693 -233.283239 
L 408.812156 -232.610629 
L 408.893154 -231.938018 
L 408.972491 -231.265408 
L 409.067351 -230.592798 
L 409.194528 -229.920187 
L 409.369649 -229.247577 
L 409.606423 -228.574966 
L 409.915922 -227.902356 
L 410.305934 -227.229746 
L 410.780397 -226.557135 
L 411.338939 -225.884525 
L 411.976551 -225.211915 
L 412.68342 -224.539304 
L 413.444946 -223.866694 
L 414.24198 -223.194083 
L 415.051278 -222.521473 
L 415.846216 -221.848863 
L 416.597718 -221.176252 
L 417.275412 -220.503642 
L 417.848937 -219.831032 
L 418.289366 -219.158421 
L 418.570639 -218.485811 
L 418.670935 -217.813201 
L 418.573882 -217.14059 
L 418.269509 -216.46798 
L 417.754879 -215.795369 
L 417.034346 -215.122759 
L 416.119399 -214.450149 
L 415.028118 -213.777538 
L 413.784274 -213.104928 
L 412.416124 -212.432318 
L 410.955009 -211.759707 
L 409.433838 -211.087097 
L 407.885576 -210.414486 
L 406.341821 -209.741876 
L 404.831561 -209.069266 
L 403.38018 -208.396655 
L 402.008746 -207.724045 
L 400.733607 -207.051435 
L 399.56627 -206.378824 
L 398.51356 -205.706214 
L 397.57798 -205.033604 
L 396.758261 -204.360993 
L 396.049996 -203.688383 
z
" id="md0a2673462" style="stroke:#484848;stroke-width:1.5;"/>
    </defs>
    <g clip-path="url(#p019b6742de)">
     <use style="fill:#f0d999;stroke:#484848;stroke-width:1.5;" x="0" xlink:href="#md0a2673462" y="570.96"/>
    </g>
   </g>
   <g id="PolyCollection_5">
    <defs>
     <path d="M 472.490068 -219.592686 
L 472.149932 -219.592686 
L 472.102854 -221.834246 
L 472.046365 -224.075807 
L 471.979651 -226.317368 
L 471.902108 -228.558928 
L 471.813419 -230.800489 
L 471.713612 -233.042049 
L 471.603111 -235.28361 
L 471.482758 -237.52517 
L 471.353806 -239.766731 
L 471.21788 -242.008292 
L 471.076901 -244.249852 
L 470.932971 -246.491413 
L 470.788233 -248.732973 
L 470.64471 -250.974534 
L 470.504136 -253.216094 
L 470.36779 -255.457655 
L 470.236357 -257.699216 
L 470.109817 -259.940776 
L 469.987387 -262.182337 
L 469.867508 -264.423897 
L 469.747902 -266.665458 
L 469.625674 -268.907018 
L 469.497475 -271.148579 
L 469.359699 -273.39014 
L 469.20871 -275.6317 
L 469.041084 -277.873261 
L 468.853844 -280.114821 
L 468.644679 -282.356382 
L 468.412133 -284.597942 
L 468.155746 -286.839503 
L 467.876149 -289.081064 
L 467.575099 -291.322624 
L 467.25546 -293.564185 
L 466.921129 -295.805745 
L 466.576909 -298.047306 
L 466.228344 -300.288866 
L 465.881522 -302.530427 
L 465.542858 -304.771988 
L 465.218872 -307.013548 
L 464.91597 -309.255109 
L 464.640244 -311.496669 
L 464.397294 -313.73823 
L 464.192086 -315.97979 
L 464.028838 -318.221351 
L 463.910942 -320.462912 
L 463.840915 -322.704472 
L 463.820372 -324.946033 
L 463.850018 -327.187593 
L 463.929655 -329.429154 
L 464.058194 -331.670714 
L 464.233673 -333.912275 
L 464.453295 -336.153836 
L 464.713461 -338.395396 
L 465.009838 -340.636957 
L 465.337436 -342.878517 
L 465.690722 -345.120078 
L 466.063752 -347.361638 
L 466.450335 -349.603199 
L 466.844214 -351.84476 
L 467.239248 -354.08632 
L 467.629606 -356.327881 
L 468.009931 -358.569441 
L 468.37549 -360.811002 
L 468.722281 -363.052562 
L 469.047103 -365.294123 
L 469.347591 -367.535684 
L 469.6222 -369.777244 
L 469.870176 -372.018805 
L 470.091486 -374.260365 
L 470.286746 -376.501926 
L 470.457133 -378.743486 
L 470.604299 -380.985047 
L 470.730285 -383.226608 
L 470.837436 -385.468168 
L 470.928315 -387.709729 
L 471.005624 -389.951289 
L 471.072109 -392.19285 
L 471.130474 -394.43441 
L 471.183292 -396.675971 
L 471.232911 -398.917532 
L 471.281375 -401.159092 
L 471.330357 -403.400653 
L 471.381104 -405.642213 
L 471.434413 -407.883774 
L 471.490631 -410.125334 
L 471.549683 -412.366895 
L 471.611123 -414.608456 
L 471.67421 -416.850016 
L 471.73799 -419.091577 
L 471.801393 -421.333137 
L 471.863323 -423.574698 
L 471.922743 -425.816258 
L 471.978739 -428.057819 
L 472.030572 -430.29938 
L 472.077707 -432.54094 
L 472.119825 -434.782501 
L 472.156812 -437.024061 
L 472.188743 -439.265622 
L 472.215847 -441.507182 
L 472.424153 -441.507182 
L 472.424153 -441.507182 
L 472.451257 -439.265622 
L 472.483188 -437.024061 
L 472.520175 -434.782501 
L 472.562293 -432.54094 
L 472.609428 -430.29938 
L 472.661261 -428.057819 
L 472.717257 -425.816258 
L 472.776677 -423.574698 
L 472.838607 -421.333137 
L 472.90201 -419.091577 
L 472.96579 -416.850016 
L 473.028877 -414.608456 
L 473.090317 -412.366895 
L 473.149369 -410.125334 
L 473.205587 -407.883774 
L 473.258896 -405.642213 
L 473.309643 -403.400653 
L 473.358625 -401.159092 
L 473.407089 -398.917532 
L 473.456708 -396.675971 
L 473.509526 -394.43441 
L 473.567891 -392.19285 
L 473.634376 -389.951289 
L 473.711685 -387.709729 
L 473.802564 -385.468168 
L 473.909715 -383.226608 
L 474.035701 -380.985047 
L 474.182867 -378.743486 
L 474.353254 -376.501926 
L 474.548514 -374.260365 
L 474.769824 -372.018805 
L 475.0178 -369.777244 
L 475.292409 -367.535684 
L 475.592897 -365.294123 
L 475.917719 -363.052562 
L 476.26451 -360.811002 
L 476.630069 -358.569441 
L 477.010394 -356.327881 
L 477.400752 -354.08632 
L 477.795786 -351.84476 
L 478.189665 -349.603199 
L 478.576248 -347.361638 
L 478.949278 -345.120078 
L 479.302564 -342.878517 
L 479.630162 -340.636957 
L 479.926539 -338.395396 
L 480.186705 -336.153836 
L 480.406327 -333.912275 
L 480.581806 -331.670714 
L 480.710345 -329.429154 
L 480.789982 -327.187593 
L 480.819628 -324.946033 
L 480.799085 -322.704472 
L 480.729058 -320.462912 
L 480.611162 -318.221351 
L 480.447914 -315.97979 
L 480.242706 -313.73823 
L 479.999756 -311.496669 
L 479.72403 -309.255109 
L 479.421128 -307.013548 
L 479.097142 -304.771988 
L 478.758478 -302.530427 
L 478.411656 -300.288866 
L 478.063091 -298.047306 
L 477.718871 -295.805745 
L 477.38454 -293.564185 
L 477.064901 -291.322624 
L 476.763851 -289.081064 
L 476.484254 -286.839503 
L 476.227867 -284.597942 
L 475.995321 -282.356382 
L 475.786156 -280.114821 
L 475.598916 -277.873261 
L 475.43129 -275.6317 
L 475.280301 -273.39014 
L 475.142525 -271.148579 
L 475.014326 -268.907018 
L 474.892098 -266.665458 
L 474.772492 -264.423897 
L 474.652613 -262.182337 
L 474.530183 -259.940776 
L 474.403643 -257.699216 
L 474.27221 -255.457655 
L 474.135864 -253.216094 
L 473.99529 -250.974534 
L 473.851767 -248.732973 
L 473.707029 -246.491413 
L 473.563099 -244.249852 
L 473.42212 -242.008292 
L 473.286194 -239.766731 
L 473.157242 -237.52517 
L 473.036889 -235.28361 
L 472.926388 -233.042049 
L 472.826581 -230.800489 
L 472.737892 -228.558928 
L 472.660349 -226.317368 
L 472.593635 -224.075807 
L 472.537146 -221.834246 
L 472.490068 -219.592686 
z
" id="me82a4505a7" style="stroke:#484848;stroke-width:1.5;"/>
    </defs>
    <g clip-path="url(#p019b6742de)">
     <use style="fill:#f7f7c6;stroke:#484848;stroke-width:1.5;" x="0" xlink:href="#me82a4505a7" y="570.96"/>
    </g>
   </g>
   <g id="PolyCollection_6">
    <defs>
     <path d="M 552.004328 -148.035706 
L 551.355672 -148.035706 
L 551.259134 -150.478064 
L 551.140378 -152.920422 
L 550.996254 -155.362779 
L 550.82368 -157.805137 
L 550.619784 -160.247495 
L 550.382064 -162.689853 
L 550.108552 -165.132211 
L 549.797976 -167.574569 
L 549.449918 -170.016926 
L 549.064939 -172.459284 
L 548.644689 -174.901642 
L 548.191967 -177.344 
L 547.710743 -179.786358 
L 547.206141 -182.228716 
L 546.684361 -184.671073 
L 546.152572 -187.113431 
L 545.618755 -189.555789 
L 545.09151 -191.998147 
L 544.579842 -194.440505 
L 544.092917 -196.882863 
L 543.639808 -199.32522 
L 543.229239 -201.767578 
L 542.869325 -204.209936 
L 542.567326 -206.652294 
L 542.329428 -209.094652 
L 542.160542 -211.53701 
L 542.064149 -213.979367 
L 542.04218 -216.421725 
L 542.094953 -218.864083 
L 542.221156 -221.306441 
L 542.417888 -223.748799 
L 542.680745 -226.191157 
L 543.003966 -228.633515 
L 543.380605 -231.075872 
L 543.802754 -233.51823 
L 544.261774 -235.960588 
L 544.748559 -238.402946 
L 545.25379 -240.845304 
L 545.768195 -243.287662 
L 546.282796 -245.730019 
L 546.789139 -248.172377 
L 547.279493 -250.614735 
L 547.747035 -253.057093 
L 548.185983 -255.499451 
L 548.591714 -257.941809 
L 548.960827 -260.384166 
L 549.291172 -262.826524 
L 549.581845 -265.268882 
L 549.833131 -267.71124 
L 550.046411 -270.153598 
L 550.224036 -272.595956 
L 550.369161 -275.038313 
L 550.485557 -277.480671 
L 550.577406 -279.923029 
L 550.649077 -282.365387 
L 550.704916 -284.807745 
L 550.749039 -287.250103 
L 550.785153 -289.69246 
L 550.816409 -292.134818 
L 550.845297 -294.577176 
L 550.873587 -297.019534 
L 550.902317 -299.461892 
L 550.931834 -301.90425 
L 550.961875 -304.346607 
L 550.991684 -306.788965 
L 551.020157 -309.231323 
L 551.046002 -311.673681 
L 551.067902 -314.116039 
L 551.08467 -316.558397 
L 551.095384 -319.000754 
L 551.099494 -321.443112 
L 551.096895 -323.88547 
L 551.087957 -326.327828 
L 551.073519 -328.770186 
L 551.054841 -331.212544 
L 551.033526 -333.654902 
L 551.011409 -336.097259 
L 550.990434 -338.539617 
L 550.972521 -340.981975 
L 550.959434 -343.424333 
L 550.952667 -345.866691 
L 550.953346 -348.309049 
L 550.962168 -350.751406 
L 550.979366 -353.193764 
L 551.004715 -355.636122 
L 551.037567 -358.07848 
L 551.076914 -360.520838 
L 551.121475 -362.963196 
L 551.169795 -365.405553 
L 551.220345 -367.847911 
L 551.271619 -370.290269 
L 551.322218 -372.732627 
L 551.370922 -375.174985 
L 551.41673 -377.617343 
L 551.458892 -380.0597 
L 551.496906 -382.502058 
L 551.530515 -384.944416 
L 551.559669 -387.386774 
L 551.584499 -389.829132 
L 551.775501 -389.829132 
L 551.775501 -389.829132 
L 551.800331 -387.386774 
L 551.829485 -384.944416 
L 551.863094 -382.502058 
L 551.901108 -380.0597 
L 551.94327 -377.617343 
L 551.989078 -375.174985 
L 552.037782 -372.732627 
L 552.088381 -370.290269 
L 552.139655 -367.847911 
L 552.190205 -365.405553 
L 552.238525 -362.963196 
L 552.283086 -360.520838 
L 552.322433 -358.07848 
L 552.355285 -355.636122 
L 552.380634 -353.193764 
L 552.397832 -350.751406 
L 552.406654 -348.309049 
L 552.407333 -345.866691 
L 552.400566 -343.424333 
L 552.387479 -340.981975 
L 552.369566 -338.539617 
L 552.348591 -336.097259 
L 552.326474 -333.654902 
L 552.305159 -331.212544 
L 552.286481 -328.770186 
L 552.272043 -326.327828 
L 552.263105 -323.88547 
L 552.260506 -321.443112 
L 552.264616 -319.000754 
L 552.27533 -316.558397 
L 552.292098 -314.116039 
L 552.313998 -311.673681 
L 552.339843 -309.231323 
L 552.368316 -306.788965 
L 552.398125 -304.346607 
L 552.428166 -301.90425 
L 552.457683 -299.461892 
L 552.486413 -297.019534 
L 552.514703 -294.577176 
L 552.543591 -292.134818 
L 552.574847 -289.69246 
L 552.610961 -287.250103 
L 552.655084 -284.807745 
L 552.710923 -282.365387 
L 552.782594 -279.923029 
L 552.874443 -277.480671 
L 552.990839 -275.038313 
L 553.135964 -272.595956 
L 553.313589 -270.153598 
L 553.526869 -267.71124 
L 553.778155 -265.268882 
L 554.068828 -262.826524 
L 554.399173 -260.384166 
L 554.768286 -257.941809 
L 555.174017 -255.499451 
L 555.612965 -253.057093 
L 556.080507 -250.614735 
L 556.570861 -248.172377 
L 557.077204 -245.730019 
L 557.591805 -243.287662 
L 558.10621 -240.845304 
L 558.611441 -238.402946 
L 559.098226 -235.960588 
L 559.557246 -233.51823 
L 559.979395 -231.075872 
L 560.356034 -228.633515 
L 560.679255 -226.191157 
L 560.942112 -223.748799 
L 561.138844 -221.306441 
L 561.265047 -218.864083 
L 561.31782 -216.421725 
L 561.295851 -213.979367 
L 561.199458 -211.53701 
L 561.030572 -209.094652 
L 560.792674 -206.652294 
L 560.490675 -204.209936 
L 560.130761 -201.767578 
L 559.720192 -199.32522 
L 559.267083 -196.882863 
L 558.780158 -194.440505 
L 558.26849 -191.998147 
L 557.741245 -189.555789 
L 557.207428 -187.113431 
L 556.675639 -184.671073 
L 556.153859 -182.228716 
L 555.649257 -179.786358 
L 555.168033 -177.344 
L 554.715311 -174.901642 
L 554.295061 -172.459284 
L 553.910082 -170.016926 
L 553.562024 -167.574569 
L 553.251448 -165.132211 
L 552.977936 -162.689853 
L 552.740216 -160.247495 
L 552.53632 -157.805137 
L 552.363746 -155.362779 
L 552.219622 -152.920422 
L 552.100866 -150.478064 
L 552.004328 -148.035706 
z
" id="m5be58704d7" style="stroke:#484848;stroke-width:1.5;"/>
    </defs>
    <g clip-path="url(#p019b6742de)">
     <use style="fill:#dee9a4;stroke:#484848;stroke-width:1.5;" x="0" xlink:href="#m5be58704d7" y="570.96"/>
    </g>
   </g>
   <g id="PolyCollection_7">
    <defs>
     <path d="M 631.201482 -134.22078 
L 630.878518 -134.22078 
L 630.840033 -136.942228 
L 630.794621 -139.663675 
L 630.741614 -142.385122 
L 630.680411 -145.106569 
L 630.610516 -147.828017 
L 630.531571 -150.549464 
L 630.443391 -153.270911 
L 630.345993 -155.992358 
L 630.239624 -158.713806 
L 630.124772 -161.435253 
L 630.002173 -164.1567 
L 629.872806 -166.878147 
L 629.737871 -169.599595 
L 629.598758 -172.321042 
L 629.456997 -175.042489 
L 629.314208 -177.763936 
L 629.172034 -180.485384 
L 629.032075 -183.206831 
L 628.895821 -185.928278 
L 628.764593 -188.649725 
L 628.639486 -191.371172 
L 628.521337 -194.09262 
L 628.410695 -196.814067 
L 628.307824 -199.535514 
L 628.212712 -202.256961 
L 628.125104 -204.978409 
L 628.044543 -207.699856 
L 627.970432 -210.421303 
L 627.902089 -213.14275 
L 627.83881 -215.864198 
L 627.779925 -218.585645 
L 627.72484 -221.307092 
L 627.673071 -224.028539 
L 627.624258 -226.749987 
L 627.57816 -229.471434 
L 627.534635 -232.192881 
L 627.493603 -234.914328 
L 627.455003 -237.635776 
L 627.418741 -240.357223 
L 627.384637 -243.07867 
L 627.352377 -245.800117 
L 627.321484 -248.521565 
L 627.291295 -251.243012 
L 627.260963 -253.964459 
L 627.229478 -256.685906 
L 627.195712 -259.407353 
L 627.158482 -262.128801 
L 627.116623 -264.850248 
L 627.069086 -267.571695 
L 627.015027 -270.293142 
L 626.953901 -273.01459 
L 626.885547 -275.736037 
L 626.810256 -278.457484 
L 626.728819 -281.178931 
L 626.642548 -283.900379 
L 626.55327 -286.621826 
L 626.463286 -289.343273 
L 626.37531 -292.06472 
L 626.29237 -294.786168 
L 626.217699 -297.507615 
L 626.1546 -300.229062 
L 626.10631 -302.950509 
L 626.075855 -305.671957 
L 626.065921 -308.393404 
L 626.078733 -311.114851 
L 626.115951 -313.836298 
L 626.178606 -316.557746 
L 626.267046 -319.279193 
L 626.380929 -322.00064 
L 626.519238 -324.722087 
L 626.680326 -327.443534 
L 626.861989 -330.164982 
L 627.061558 -332.886429 
L 627.276003 -335.607876 
L 627.50205 -338.329323 
L 627.7363 -341.050771 
L 627.975339 -343.772218 
L 628.215848 -346.493665 
L 628.454695 -349.215112 
L 628.689012 -351.93656 
L 628.916257 -354.658007 
L 629.134253 -357.379454 
L 629.341212 -360.100901 
L 629.535747 -362.822349 
L 629.716859 -365.543796 
L 629.883916 -368.265243 
L 630.036631 -370.98669 
L 630.175015 -373.708138 
L 630.299343 -376.429585 
L 630.410106 -379.151032 
L 630.507968 -381.872479 
L 630.593727 -384.593927 
L 630.668271 -387.315374 
L 630.732544 -390.036821 
L 630.787515 -392.758268 
L 630.834154 -395.479715 
L 630.873405 -398.201163 
L 630.906169 -400.92261 
L 630.933297 -403.644057 
L 631.146703 -403.644057 
L 631.146703 -403.644057 
L 631.173831 -400.92261 
L 631.206595 -398.201163 
L 631.245846 -395.479715 
L 631.292485 -392.758268 
L 631.347456 -390.036821 
L 631.411729 -387.315374 
L 631.486273 -384.593927 
L 631.572032 -381.872479 
L 631.669894 -379.151032 
L 631.780657 -376.429585 
L 631.904985 -373.708138 
L 632.043369 -370.98669 
L 632.196084 -368.265243 
L 632.363141 -365.543796 
L 632.544253 -362.822349 
L 632.738788 -360.100901 
L 632.945747 -357.379454 
L 633.163743 -354.658007 
L 633.390988 -351.93656 
L 633.625305 -349.215112 
L 633.864152 -346.493665 
L 634.104661 -343.772218 
L 634.3437 -341.050771 
L 634.57795 -338.329323 
L 634.803997 -335.607876 
L 635.018442 -332.886429 
L 635.218011 -330.164982 
L 635.399674 -327.443534 
L 635.560762 -324.722087 
L 635.699071 -322.00064 
L 635.812954 -319.279193 
L 635.901394 -316.557746 
L 635.964049 -313.836298 
L 636.001267 -311.114851 
L 636.014079 -308.393404 
L 636.004145 -305.671957 
L 635.97369 -302.950509 
L 635.9254 -300.229062 
L 635.862301 -297.507615 
L 635.78763 -294.786168 
L 635.70469 -292.06472 
L 635.616714 -289.343273 
L 635.52673 -286.621826 
L 635.437452 -283.900379 
L 635.351181 -281.178931 
L 635.269744 -278.457484 
L 635.194453 -275.736037 
L 635.126099 -273.01459 
L 635.064973 -270.293142 
L 635.010914 -267.571695 
L 634.963377 -264.850248 
L 634.921518 -262.128801 
L 634.884288 -259.407353 
L 634.850522 -256.685906 
L 634.819037 -253.964459 
L 634.788705 -251.243012 
L 634.758516 -248.521565 
L 634.727623 -245.800117 
L 634.695363 -243.07867 
L 634.661259 -240.357223 
L 634.624997 -237.635776 
L 634.586397 -234.914328 
L 634.545365 -232.192881 
L 634.50184 -229.471434 
L 634.455742 -226.749987 
L 634.406929 -224.028539 
L 634.35516 -221.307092 
L 634.300075 -218.585645 
L 634.24119 -215.864198 
L 634.177911 -213.14275 
L 634.109568 -210.421303 
L 634.035457 -207.699856 
L 633.954896 -204.978409 
L 633.867288 -202.256961 
L 633.772176 -199.535514 
L 633.669305 -196.814067 
L 633.558663 -194.09262 
L 633.440514 -191.371172 
L 633.315407 -188.649725 
L 633.184179 -185.928278 
L 633.047925 -183.206831 
L 632.907966 -180.485384 
L 632.765792 -177.763936 
L 632.623003 -175.042489 
L 632.481242 -172.321042 
L 632.342129 -169.599595 
L 632.207194 -166.878147 
L 632.077827 -164.1567 
L 631.955228 -161.435253 
L 631.840376 -158.713806 
L 631.734007 -155.992358 
L 631.636609 -153.270911 
L 631.548429 -150.549464 
L 631.469484 -147.828017 
L 631.399589 -145.106569 
L 631.338386 -142.385122 
L 631.285379 -139.663675 
L 631.239967 -136.942228 
L 631.201482 -134.22078 
z
" id="mfb19fc495d" style="stroke:#484848;stroke-width:1.5;"/>
    </defs>
    <g clip-path="url(#p019b6742de)">
     <use style="fill:#afd5ab;stroke:#484848;stroke-width:1.5;" x="0" xlink:href="#mfb19fc495d" y="570.96"/>
    </g>
   </g>
   <g id="PolyCollection_8">
    <defs>
     <path d="M 711.207059 -188.066629 
L 709.592941 -188.066629 
L 709.411434 -188.824312 
L 709.201482 -189.581995 
L 708.961678 -190.339679 
L 708.691236 -191.097362 
L 708.390112 -191.855045 
L 708.059088 -192.612728 
L 707.699818 -193.370411 
L 707.314815 -194.128094 
L 706.907385 -194.885777 
L 706.481483 -195.643461 
L 706.041513 -196.401144 
L 705.592067 -197.158827 
L 705.137624 -197.91651 
L 704.682222 -198.674193 
L 704.229135 -199.431876 
L 703.780579 -200.189559 
L 703.337478 -200.947243 
L 702.899313 -201.704926 
L 702.464071 -202.462609 
L 702.028329 -203.220292 
L 701.587435 -203.977975 
L 701.13583 -204.735658 
L 700.667445 -205.493342 
L 700.176183 -206.251025 
L 699.656426 -207.008708 
L 699.10354 -207.766391 
L 698.514338 -208.524074 
L 697.887464 -209.281757 
L 697.223664 -210.03944 
L 696.525936 -210.797124 
L 695.799544 -211.554807 
L 695.051896 -212.31249 
L 694.292316 -213.070173 
L 693.531714 -213.827856 
L 692.782201 -214.585539 
L 692.056663 -215.343223 
L 691.36833 -216.100906 
L 690.730366 -216.858589 
L 690.155489 -217.616272 
L 689.655633 -218.373955 
L 689.241655 -219.131638 
L 688.923083 -219.889321 
L 688.707894 -220.647005 
L 688.602316 -221.404688 
L 688.610654 -222.162371 
L 688.73513 -222.920054 
L 688.975742 -223.677737 
L 689.330161 -224.43542 
L 689.793664 -225.193104 
L 690.359133 -225.950787 
L 691.017126 -226.70847 
L 691.756035 -227.466153 
L 692.562339 -228.223836 
L 693.420948 -228.981519 
L 694.315638 -229.739202 
L 695.229546 -230.496886 
L 696.145724 -231.254569 
L 697.047697 -232.012252 
L 697.920023 -232.769935 
L 698.748806 -233.527618 
L 699.522144 -234.285301 
L 700.230492 -235.042984 
L 700.86692 -235.800668 
L 701.427253 -236.558351 
L 701.910104 -237.316034 
L 702.316792 -238.073717 
L 702.651153 -238.8314 
L 702.919267 -239.589083 
L 703.129103 -240.346767 
L 703.290114 -241.10445 
L 703.412784 -241.862133 
L 703.508159 -242.619816 
L 703.58738 -243.377499 
L 703.661225 -244.135182 
L 703.739696 -244.892865 
L 703.831649 -245.650549 
L 703.944492 -246.408232 
L 704.083963 -247.165915 
L 704.253992 -247.923598 
L 704.456644 -248.681281 
L 704.692162 -249.438964 
L 704.959082 -250.196648 
L 705.254428 -250.954331 
L 705.573963 -251.712014 
L 705.912482 -252.469697 
L 706.264131 -253.22738 
L 706.622732 -253.985063 
L 706.982093 -254.742746 
L 707.336288 -255.50043 
L 707.679901 -256.258113 
L 708.008209 -257.015796 
L 708.31732 -257.773479 
L 708.604243 -258.531162 
L 708.866908 -259.288845 
L 709.104142 -260.046528 
L 709.315594 -260.804212 
L 709.501638 -261.561895 
L 709.663256 -262.319578 
L 709.801903 -263.077261 
L 710.998097 -263.077261 
L 710.998097 -263.077261 
L 711.136744 -262.319578 
L 711.298362 -261.561895 
L 711.484406 -260.804212 
L 711.695858 -260.046528 
L 711.933092 -259.288845 
L 712.195757 -258.531162 
L 712.48268 -257.773479 
L 712.791791 -257.015796 
L 713.120099 -256.258113 
L 713.463712 -255.50043 
L 713.817907 -254.742746 
L 714.177268 -253.985063 
L 714.535869 -253.22738 
L 714.887518 -252.469697 
L 715.226037 -251.712014 
L 715.545572 -250.954331 
L 715.840918 -250.196648 
L 716.107838 -249.438964 
L 716.343356 -248.681281 
L 716.546008 -247.923598 
L 716.716037 -247.165915 
L 716.855508 -246.408232 
L 716.968351 -245.650549 
L 717.060304 -244.892865 
L 717.138775 -244.135182 
L 717.21262 -243.377499 
L 717.291841 -242.619816 
L 717.387216 -241.862133 
L 717.509886 -241.10445 
L 717.670897 -240.346767 
L 717.880733 -239.589083 
L 718.148847 -238.8314 
L 718.483208 -238.073717 
L 718.889896 -237.316034 
L 719.372747 -236.558351 
L 719.93308 -235.800668 
L 720.569508 -235.042984 
L 721.277856 -234.285301 
L 722.051194 -233.527618 
L 722.879977 -232.769935 
L 723.752303 -232.012252 
L 724.654276 -231.254569 
L 725.570454 -230.496886 
L 726.484362 -229.739202 
L 727.379052 -228.981519 
L 728.237661 -228.223836 
L 729.043965 -227.466153 
L 729.782874 -226.70847 
L 730.440867 -225.950787 
L 731.006336 -225.193104 
L 731.469839 -224.43542 
L 731.824258 -223.677737 
L 732.06487 -222.920054 
L 732.189346 -222.162371 
L 732.197684 -221.404688 
L 732.092106 -220.647005 
L 731.876917 -219.889321 
L 731.558345 -219.131638 
L 731.144367 -218.373955 
L 730.644511 -217.616272 
L 730.069634 -216.858589 
L 729.43167 -216.100906 
L 728.743337 -215.343223 
L 728.017799 -214.585539 
L 727.268286 -213.827856 
L 726.507684 -213.070173 
L 725.748104 -212.31249 
L 725.000456 -211.554807 
L 724.274064 -210.797124 
L 723.576336 -210.03944 
L 722.912536 -209.281757 
L 722.285662 -208.524074 
L 721.69646 -207.766391 
L 721.143574 -207.008708 
L 720.623817 -206.251025 
L 720.132555 -205.493342 
L 719.66417 -204.735658 
L 719.212565 -203.977975 
L 718.771671 -203.220292 
L 718.335929 -202.462609 
L 717.900687 -201.704926 
L 717.462522 -200.947243 
L 717.019421 -200.189559 
L 716.570865 -199.431876 
L 716.117778 -198.674193 
L 715.662376 -197.91651 
L 715.207933 -197.158827 
L 714.758487 -196.401144 
L 714.318517 -195.643461 
L 713.892615 -194.885777 
L 713.485185 -194.128094 
L 713.100182 -193.370411 
L 712.740912 -192.612728 
L 712.409888 -191.855045 
L 712.108764 -191.097362 
L 711.838322 -190.339679 
L 711.598518 -189.581995 
L 711.388566 -188.824312 
L 711.207059 -188.066629 
z
" id="m35e5b61637" style="stroke:#484848;stroke-width:1.5;"/>
    </defs>
    <g clip-path="url(#p019b6742de)">
     <use style="fill:#72b6a1;stroke:#484848;stroke-width:1.5;" x="0" xlink:href="#m35e5b61637" y="570.96"/>
    </g>
   </g>
   <g id="PolyCollection_9">
    <defs>
     <path d="M 793.403657 -210.204497 
L 786.116343 -210.204497 
L 785.398406 -210.699366 
L 784.581944 -211.194234 
L 783.663062 -211.689102 
L 782.639807 -212.18397 
L 781.512549 -212.678838 
L 780.284306 -213.173706 
L 778.961004 -213.668574 
L 777.551642 -214.163442 
L 776.068328 -214.65831 
L 774.526192 -215.153178 
L 772.943141 -215.648046 
L 771.33947 -216.142914 
L 769.737326 -216.637782 
L 768.160057 -217.13265 
L 766.63145 -217.627518 
L 765.174915 -218.122386 
L 763.812654 -218.617254 
L 762.564846 -219.112122 
L 761.448922 -219.60699 
L 760.478951 -220.101858 
L 759.665189 -220.596726 
L 759.01382 -221.091595 
L 758.526898 -221.586463 
L 758.202502 -222.081331 
L 758.035086 -222.576199 
L 758.016 -223.071067 
L 758.134147 -223.565935 
L 758.376728 -224.060803 
L 758.730013 -224.555671 
L 759.180102 -225.050539 
L 759.713606 -225.545407 
L 760.318218 -226.040275 
L 760.983125 -226.535143 
L 761.69926 -227.030011 
L 762.459368 -227.524879 
L 763.257902 -228.019747 
L 764.090773 -228.514615 
L 764.954975 -229.009483 
L 765.848143 -229.504351 
L 766.768064 -229.999219 
L 767.712206 -230.494087 
L 768.677295 -230.988956 
L 769.658983 -231.483824 
L 770.651626 -231.978692 
L 771.64819 -232.47356 
L 772.640293 -232.968428 
L 773.61838 -233.463296 
L 774.572003 -233.958164 
L 775.490197 -234.453032 
L 776.361922 -234.9479 
L 777.176527 -235.442768 
L 777.924227 -235.937636 
L 778.596538 -236.432504 
L 779.186668 -236.927372 
L 779.689829 -237.42224 
L 780.103453 -237.917108 
L 780.427317 -238.411976 
L 780.663563 -238.906844 
L 780.816622 -239.401712 
L 780.893045 -239.89658 
L 780.901263 -240.391448 
L 780.851281 -240.886316 
L 780.754319 -241.381185 
L 780.622437 -241.876053 
L 780.468134 -242.370921 
L 780.303958 -242.865789 
L 780.142129 -243.360657 
L 779.99419 -243.855525 
L 779.8707 -244.350393 
L 779.780968 -244.845261 
L 779.73285 -245.340129 
L 779.732588 -245.834997 
L 779.784718 -246.329865 
L 779.892029 -246.824733 
L 780.05558 -247.319601 
L 780.274767 -247.814469 
L 780.547439 -248.309337 
L 780.87005 -248.804205 
L 781.237853 -249.299073 
L 781.645106 -249.793941 
L 782.085313 -250.288809 
L 782.551456 -250.783677 
L 783.036239 -251.278545 
L 783.532321 -251.773414 
L 784.032528 -252.268282 
L 784.530049 -252.76315 
L 785.018604 -253.258018 
L 785.492575 -253.752886 
L 785.94711 -254.247754 
L 786.378187 -254.742622 
L 786.782644 -255.23749 
L 787.158181 -255.732358 
L 787.50333 -256.227226 
L 787.817396 -256.722094 
L 788.100388 -257.216962 
L 788.352928 -257.71183 
L 788.576154 -258.206698 
L 788.771615 -258.701566 
L 788.941173 -259.196434 
L 790.578827 -259.196434 
L 790.578827 -259.196434 
L 790.748385 -258.701566 
L 790.943846 -258.206698 
L 791.167072 -257.71183 
L 791.419612 -257.216962 
L 791.702604 -256.722094 
L 792.01667 -256.227226 
L 792.361819 -255.732358 
L 792.737356 -255.23749 
L 793.141813 -254.742622 
L 793.57289 -254.247754 
L 794.027425 -253.752886 
L 794.501396 -253.258018 
L 794.989951 -252.76315 
L 795.487472 -252.268282 
L 795.987679 -251.773414 
L 796.483761 -251.278545 
L 796.968544 -250.783677 
L 797.434687 -250.288809 
L 797.874894 -249.793941 
L 798.282147 -249.299073 
L 798.64995 -248.804205 
L 798.972561 -248.309337 
L 799.245233 -247.814469 
L 799.46442 -247.319601 
L 799.627971 -246.824733 
L 799.735282 -246.329865 
L 799.787412 -245.834997 
L 799.78715 -245.340129 
L 799.739032 -244.845261 
L 799.6493 -244.350393 
L 799.52581 -243.855525 
L 799.377871 -243.360657 
L 799.216042 -242.865789 
L 799.051866 -242.370921 
L 798.897563 -241.876053 
L 798.765681 -241.381185 
L 798.668719 -240.886316 
L 798.618737 -240.391448 
L 798.626955 -239.89658 
L 798.703378 -239.401712 
L 798.856437 -238.906844 
L 799.092683 -238.411976 
L 799.416547 -237.917108 
L 799.830171 -237.42224 
L 800.333332 -236.927372 
L 800.923462 -236.432504 
L 801.595773 -235.937636 
L 802.343473 -235.442768 
L 803.158078 -234.9479 
L 804.029803 -234.453032 
L 804.947997 -233.958164 
L 805.90162 -233.463296 
L 806.879707 -232.968428 
L 807.87181 -232.47356 
L 808.868374 -231.978692 
L 809.861017 -231.483824 
L 810.842705 -230.988956 
L 811.807794 -230.494087 
L 812.751936 -229.999219 
L 813.671857 -229.504351 
L 814.565025 -229.009483 
L 815.429227 -228.514615 
L 816.262098 -228.019747 
L 817.060632 -227.524879 
L 817.82074 -227.030011 
L 818.536875 -226.535143 
L 819.201782 -226.040275 
L 819.806394 -225.545407 
L 820.339898 -225.050539 
L 820.789987 -224.555671 
L 821.143272 -224.060803 
L 821.385853 -223.565935 
L 821.504 -223.071067 
L 821.484914 -222.576199 
L 821.317498 -222.081331 
L 820.993102 -221.586463 
L 820.50618 -221.091595 
L 819.854811 -220.596726 
L 819.041049 -220.101858 
L 818.071078 -219.60699 
L 816.955154 -219.112122 
L 815.707346 -218.617254 
L 814.345085 -218.122386 
L 812.88855 -217.627518 
L 811.359943 -217.13265 
L 809.782674 -216.637782 
L 808.18053 -216.142914 
L 806.576859 -215.648046 
L 804.993808 -215.153178 
L 803.451672 -214.65831 
L 801.968358 -214.163442 
L 800.558996 -213.668574 
L 799.235694 -213.173706 
L 798.007451 -212.678838 
L 796.880193 -212.18397 
L 795.856938 -211.689102 
L 794.938056 -211.194234 
L 794.121594 -210.699366 
L 793.403657 -210.204497 
z
" id="m7212b73e58" style="stroke:#484848;stroke-width:1.5;"/>
    </defs>
    <g clip-path="url(#p019b6742de)">
     <use style="fill:#4483ab;stroke:#484848;stroke-width:1.5;" x="0" xlink:href="#m7212b73e58" y="570.96"/>
    </g>
   </g>
   <g id="matplotlib.axis_1">
    <g id="xtick_1">
     <g id="line2d_1">
      <defs>
       <path d="M 0 0 
L 0 3.5 
" id="m038ac89a88" style="stroke:#000000;stroke-width:0.8;"/>
      </defs>
      <g>
       <use style="stroke:#000000;stroke-width:0.8;" x="154.88" xlink:href="#m038ac89a88" y="508.1544"/>
      </g>
     </g>
     <g id="text_1">
      <!-- Player1_healthy -->
      <g transform="translate(114.852656 522.752838)scale(0.1 -0.1)">
       <defs>
        <path d="M 1259 4147 
L 1259 2394 
L 2053 2394 
Q 2494 2394 2734 2622 
Q 2975 2850 2975 3272 
Q 2975 3691 2734 3919 
Q 2494 4147 2053 4147 
L 1259 4147 
z
M 628 4666 
L 2053 4666 
Q 2838 4666 3239 4311 
Q 3641 3956 3641 3272 
Q 3641 2581 3239 2228 
Q 2838 1875 2053 1875 
L 1259 1875 
L 1259 0 
L 628 0 
L 628 4666 
z
" id="DejaVuSans-50" transform="scale(0.015625)"/>
        <path d="M 603 4863 
L 1178 4863 
L 1178 0 
L 603 0 
L 603 4863 
z
" id="DejaVuSans-6c" transform="scale(0.015625)"/>
        <path d="M 2194 1759 
Q 1497 1759 1228 1600 
Q 959 1441 959 1056 
Q 959 750 1161 570 
Q 1363 391 1709 391 
Q 2188 391 2477 730 
Q 2766 1069 2766 1631 
L 2766 1759 
L 2194 1759 
z
M 3341 1997 
L 3341 0 
L 2766 0 
L 2766 531 
Q 2569 213 2275 61 
Q 1981 -91 1556 -91 
Q 1019 -91 701 211 
Q 384 513 384 1019 
Q 384 1609 779 1909 
Q 1175 2209 1959 2209 
L 2766 2209 
L 2766 2266 
Q 2766 2663 2505 2880 
Q 2244 3097 1772 3097 
Q 1472 3097 1187 3025 
Q 903 2953 641 2809 
L 641 3341 
Q 956 3463 1253 3523 
Q 1550 3584 1831 3584 
Q 2591 3584 2966 3190 
Q 3341 2797 3341 1997 
z
" id="DejaVuSans-61" transform="scale(0.015625)"/>
        <path d="M 2059 -325 
Q 1816 -950 1584 -1140 
Q 1353 -1331 966 -1331 
L 506 -1331 
L 506 -850 
L 844 -850 
Q 1081 -850 1212 -737 
Q 1344 -625 1503 -206 
L 1606 56 
L 191 3500 
L 800 3500 
L 1894 763 
L 2988 3500 
L 3597 3500 
L 2059 -325 
z
" id="DejaVuSans-79" transform="scale(0.015625)"/>
        <path d="M 3597 1894 
L 3597 1613 
L 953 1613 
Q 991 1019 1311 708 
Q 1631 397 2203 397 
Q 2534 397 2845 478 
Q 3156 559 3463 722 
L 3463 178 
Q 3153 47 2828 -22 
Q 2503 -91 2169 -91 
Q 1331 -91 842 396 
Q 353 884 353 1716 
Q 353 2575 817 3079 
Q 1281 3584 2069 3584 
Q 2775 3584 3186 3129 
Q 3597 2675 3597 1894 
z
M 3022 2063 
Q 3016 2534 2758 2815 
Q 2500 3097 2075 3097 
Q 1594 3097 1305 2825 
Q 1016 2553 972 2059 
L 3022 2063 
z
" id="DejaVuSans-65" transform="scale(0.015625)"/>
        <path d="M 2631 2963 
Q 2534 3019 2420 3045 
Q 2306 3072 2169 3072 
Q 1681 3072 1420 2755 
Q 1159 2438 1159 1844 
L 1159 0 
L 581 0 
L 581 3500 
L 1159 3500 
L 1159 2956 
Q 1341 3275 1631 3429 
Q 1922 3584 2338 3584 
Q 2397 3584 2469 3576 
Q 2541 3569 2628 3553 
L 2631 2963 
z
" id="DejaVuSans-72" transform="scale(0.015625)"/>
        <path d="M 794 531 
L 1825 531 
L 1825 4091 
L 703 3866 
L 703 4441 
L 1819 4666 
L 2450 4666 
L 2450 531 
L 3481 531 
L 3481 0 
L 794 0 
L 794 531 
z
" id="DejaVuSans-31" transform="scale(0.015625)"/>
        <path d="M 3263 -1063 
L 3263 -1509 
L -63 -1509 
L -63 -1063 
L 3263 -1063 
z
" id="DejaVuSans-5f" transform="scale(0.015625)"/>
        <path d="M 3513 2113 
L 3513 0 
L 2938 0 
L 2938 2094 
Q 2938 2591 2744 2837 
Q 2550 3084 2163 3084 
Q 1697 3084 1428 2787 
Q 1159 2491 1159 1978 
L 1159 0 
L 581 0 
L 581 4863 
L 1159 4863 
L 1159 2956 
Q 1366 3272 1645 3428 
Q 1925 3584 2291 3584 
Q 2894 3584 3203 3211 
Q 3513 2838 3513 2113 
z
" id="DejaVuSans-68" transform="scale(0.015625)"/>
        <path d="M 1172 4494 
L 1172 3500 
L 2356 3500 
L 2356 3053 
L 1172 3053 
L 1172 1153 
Q 1172 725 1289 603 
Q 1406 481 1766 481 
L 2356 481 
L 2356 0 
L 1766 0 
Q 1100 0 847 248 
Q 594 497 594 1153 
L 594 3053 
L 172 3053 
L 172 3500 
L 594 3500 
L 594 4494 
L 1172 4494 
z
" id="DejaVuSans-74" transform="scale(0.015625)"/>
       </defs>
       <use xlink:href="#DejaVuSans-50"/>
       <use x="60.302734" xlink:href="#DejaVuSans-6c"/>
       <use x="88.085938" xlink:href="#DejaVuSans-61"/>
       <use x="149.365234" xlink:href="#DejaVuSans-79"/>
       <use x="208.544922" xlink:href="#DejaVuSans-65"/>
       <use x="270.068359" xlink:href="#DejaVuSans-72"/>
       <use x="311.181641" xlink:href="#DejaVuSans-31"/>
       <use x="374.804688" xlink:href="#DejaVuSans-5f"/>
       <use x="424.804688" xlink:href="#DejaVuSans-68"/>
       <use x="488.183594" xlink:href="#DejaVuSans-65"/>
       <use x="549.707031" xlink:href="#DejaVuSans-61"/>
       <use x="610.986328" xlink:href="#DejaVuSans-6c"/>
       <use x="638.769531" xlink:href="#DejaVuSans-74"/>
       <use x="677.978516" xlink:href="#DejaVuSans-68"/>
       <use x="741.357422" xlink:href="#DejaVuSans-79"/>
      </g>
     </g>
    </g>
    <g id="xtick_2">
     <g id="line2d_2">
      <g>
       <use style="stroke:#000000;stroke-width:0.8;" x="234.24" xlink:href="#m038ac89a88" y="508.1544"/>
      </g>
     </g>
     <g id="text_2">
      <!-- biased_A -->
      <g transform="translate(211.836875 522.752838)scale(0.1 -0.1)">
       <defs>
        <path d="M 3116 1747 
Q 3116 2381 2855 2742 
Q 2594 3103 2138 3103 
Q 1681 3103 1420 2742 
Q 1159 2381 1159 1747 
Q 1159 1113 1420 752 
Q 1681 391 2138 391 
Q 2594 391 2855 752 
Q 3116 1113 3116 1747 
z
M 1159 2969 
Q 1341 3281 1617 3432 
Q 1894 3584 2278 3584 
Q 2916 3584 3314 3078 
Q 3713 2572 3713 1747 
Q 3713 922 3314 415 
Q 2916 -91 2278 -91 
Q 1894 -91 1617 61 
Q 1341 213 1159 525 
L 1159 0 
L 581 0 
L 581 4863 
L 1159 4863 
L 1159 2969 
z
" id="DejaVuSans-62" transform="scale(0.015625)"/>
        <path d="M 603 3500 
L 1178 3500 
L 1178 0 
L 603 0 
L 603 3500 
z
M 603 4863 
L 1178 4863 
L 1178 4134 
L 603 4134 
L 603 4863 
z
" id="DejaVuSans-69" transform="scale(0.015625)"/>
        <path d="M 2834 3397 
L 2834 2853 
Q 2591 2978 2328 3040 
Q 2066 3103 1784 3103 
Q 1356 3103 1142 2972 
Q 928 2841 928 2578 
Q 928 2378 1081 2264 
Q 1234 2150 1697 2047 
L 1894 2003 
Q 2506 1872 2764 1633 
Q 3022 1394 3022 966 
Q 3022 478 2636 193 
Q 2250 -91 1575 -91 
Q 1294 -91 989 -36 
Q 684 19 347 128 
L 347 722 
Q 666 556 975 473 
Q 1284 391 1588 391 
Q 1994 391 2212 530 
Q 2431 669 2431 922 
Q 2431 1156 2273 1281 
Q 2116 1406 1581 1522 
L 1381 1569 
Q 847 1681 609 1914 
Q 372 2147 372 2553 
Q 372 3047 722 3315 
Q 1072 3584 1716 3584 
Q 2034 3584 2315 3537 
Q 2597 3491 2834 3397 
z
" id="DejaVuSans-73" transform="scale(0.015625)"/>
        <path d="M 2906 2969 
L 2906 4863 
L 3481 4863 
L 3481 0 
L 2906 0 
L 2906 525 
Q 2725 213 2448 61 
Q 2172 -91 1784 -91 
Q 1150 -91 751 415 
Q 353 922 353 1747 
Q 353 2572 751 3078 
Q 1150 3584 1784 3584 
Q 2172 3584 2448 3432 
Q 2725 3281 2906 2969 
z
M 947 1747 
Q 947 1113 1208 752 
Q 1469 391 1925 391 
Q 2381 391 2643 752 
Q 2906 1113 2906 1747 
Q 2906 2381 2643 2742 
Q 2381 3103 1925 3103 
Q 1469 3103 1208 2742 
Q 947 2381 947 1747 
z
" id="DejaVuSans-64" transform="scale(0.015625)"/>
        <path d="M 2188 4044 
L 1331 1722 
L 3047 1722 
L 2188 4044 
z
M 1831 4666 
L 2547 4666 
L 4325 0 
L 3669 0 
L 3244 1197 
L 1141 1197 
L 716 0 
L 50 0 
L 1831 4666 
z
" id="DejaVuSans-41" transform="scale(0.015625)"/>
       </defs>
       <use xlink:href="#DejaVuSans-62"/>
       <use x="63.476562" xlink:href="#DejaVuSans-69"/>
       <use x="91.259766" xlink:href="#DejaVuSans-61"/>
       <use x="152.539062" xlink:href="#DejaVuSans-73"/>
       <use x="204.638672" xlink:href="#DejaVuSans-65"/>
       <use x="266.162109" xlink:href="#DejaVuSans-64"/>
       <use x="329.638672" xlink:href="#DejaVuSans-5f"/>
       <use x="379.638672" xlink:href="#DejaVuSans-41"/>
      </g>
     </g>
    </g>
    <g id="xtick_3">
     <g id="line2d_3">
      <g>
       <use style="stroke:#000000;stroke-width:0.8;" x="313.6" xlink:href="#m038ac89a88" y="508.1544"/>
      </g>
     </g>
     <g id="text_3">
      <!-- biased_B -->
      <g transform="translate(291.186719 522.752838)scale(0.1 -0.1)">
       <defs>
        <path d="M 1259 2228 
L 1259 519 
L 2272 519 
Q 2781 519 3026 730 
Q 3272 941 3272 1375 
Q 3272 1813 3026 2020 
Q 2781 2228 2272 2228 
L 1259 2228 
z
M 1259 4147 
L 1259 2741 
L 2194 2741 
Q 2656 2741 2882 2914 
Q 3109 3088 3109 3444 
Q 3109 3797 2882 3972 
Q 2656 4147 2194 4147 
L 1259 4147 
z
M 628 4666 
L 2241 4666 
Q 2963 4666 3353 4366 
Q 3744 4066 3744 3513 
Q 3744 3084 3544 2831 
Q 3344 2578 2956 2516 
Q 3422 2416 3680 2098 
Q 3938 1781 3938 1306 
Q 3938 681 3513 340 
Q 3088 0 2303 0 
L 628 0 
L 628 4666 
z
" id="DejaVuSans-42" transform="scale(0.015625)"/>
       </defs>
       <use xlink:href="#DejaVuSans-62"/>
       <use x="63.476562" xlink:href="#DejaVuSans-69"/>
       <use x="91.259766" xlink:href="#DejaVuSans-61"/>
       <use x="152.539062" xlink:href="#DejaVuSans-73"/>
       <use x="204.638672" xlink:href="#DejaVuSans-65"/>
       <use x="266.162109" xlink:href="#DejaVuSans-64"/>
       <use x="329.638672" xlink:href="#DejaVuSans-5f"/>
       <use x="379.638672" xlink:href="#DejaVuSans-42"/>
      </g>
     </g>
    </g>
    <g id="xtick_4">
     <g id="line2d_4">
      <g>
       <use style="stroke:#000000;stroke-width:0.8;" x="392.96" xlink:href="#m038ac89a88" y="508.1544"/>
      </g>
     </g>
     <g id="text_4">
      <!-- biased_C -->
      <g transform="translate(370.485781 522.752838)scale(0.1 -0.1)">
       <defs>
        <path d="M 4122 4306 
L 4122 3641 
Q 3803 3938 3442 4084 
Q 3081 4231 2675 4231 
Q 1875 4231 1450 3742 
Q 1025 3253 1025 2328 
Q 1025 1406 1450 917 
Q 1875 428 2675 428 
Q 3081 428 3442 575 
Q 3803 722 4122 1019 
L 4122 359 
Q 3791 134 3420 21 
Q 3050 -91 2638 -91 
Q 1578 -91 968 557 
Q 359 1206 359 2328 
Q 359 3453 968 4101 
Q 1578 4750 2638 4750 
Q 3056 4750 3426 4639 
Q 3797 4528 4122 4306 
z
" id="DejaVuSans-43" transform="scale(0.015625)"/>
       </defs>
       <use xlink:href="#DejaVuSans-62"/>
       <use x="63.476562" xlink:href="#DejaVuSans-69"/>
       <use x="91.259766" xlink:href="#DejaVuSans-61"/>
       <use x="152.539062" xlink:href="#DejaVuSans-73"/>
       <use x="204.638672" xlink:href="#DejaVuSans-65"/>
       <use x="266.162109" xlink:href="#DejaVuSans-64"/>
       <use x="329.638672" xlink:href="#DejaVuSans-5f"/>
       <use x="379.638672" xlink:href="#DejaVuSans-43"/>
      </g>
     </g>
    </g>
    <g id="xtick_5">
     <g id="line2d_5">
      <g>
       <use style="stroke:#000000;stroke-width:0.8;" x="472.32" xlink:href="#m038ac89a88" y="508.1544"/>
      </g>
     </g>
     <g id="text_5">
      <!-- biased_D -->
      <g transform="translate(449.487188 522.752838)scale(0.1 -0.1)">
       <defs>
        <path d="M 1259 4147 
L 1259 519 
L 2022 519 
Q 2988 519 3436 956 
Q 3884 1394 3884 2338 
Q 3884 3275 3436 3711 
Q 2988 4147 2022 4147 
L 1259 4147 
z
M 628 4666 
L 1925 4666 
Q 3281 4666 3915 4102 
Q 4550 3538 4550 2338 
Q 4550 1131 3912 565 
Q 3275 0 1925 0 
L 628 0 
L 628 4666 
z
" id="DejaVuSans-44" transform="scale(0.015625)"/>
       </defs>
       <use xlink:href="#DejaVuSans-62"/>
       <use x="63.476562" xlink:href="#DejaVuSans-69"/>
       <use x="91.259766" xlink:href="#DejaVuSans-61"/>
       <use x="152.539062" xlink:href="#DejaVuSans-73"/>
       <use x="204.638672" xlink:href="#DejaVuSans-65"/>
       <use x="266.162109" xlink:href="#DejaVuSans-64"/>
       <use x="329.638672" xlink:href="#DejaVuSans-5f"/>
       <use x="379.638672" xlink:href="#DejaVuSans-44"/>
      </g>
     </g>
    </g>
    <g id="xtick_6">
     <g id="line2d_6">
      <g>
       <use style="stroke:#000000;stroke-width:0.8;" x="551.68" xlink:href="#m038ac89a88" y="508.1544"/>
      </g>
     </g>
     <g id="text_6">
      <!-- Type1_depressed -->
      <g transform="translate(508.61125 522.752838)scale(0.1 -0.1)">
       <defs>
        <path d="M -19 4666 
L 3928 4666 
L 3928 4134 
L 2272 4134 
L 2272 0 
L 1638 0 
L 1638 4134 
L -19 4134 
L -19 4666 
z
" id="DejaVuSans-54" transform="scale(0.015625)"/>
        <path d="M 1159 525 
L 1159 -1331 
L 581 -1331 
L 581 3500 
L 1159 3500 
L 1159 2969 
Q 1341 3281 1617 3432 
Q 1894 3584 2278 3584 
Q 2916 3584 3314 3078 
Q 3713 2572 3713 1747 
Q 3713 922 3314 415 
Q 2916 -91 2278 -91 
Q 1894 -91 1617 61 
Q 1341 213 1159 525 
z
M 3116 1747 
Q 3116 2381 2855 2742 
Q 2594 3103 2138 3103 
Q 1681 3103 1420 2742 
Q 1159 2381 1159 1747 
Q 1159 1113 1420 752 
Q 1681 391 2138 391 
Q 2594 391 2855 752 
Q 3116 1113 3116 1747 
z
" id="DejaVuSans-70" transform="scale(0.015625)"/>
       </defs>
       <use xlink:href="#DejaVuSans-54"/>
       <use x="45.458984" xlink:href="#DejaVuSans-79"/>
       <use x="104.638672" xlink:href="#DejaVuSans-70"/>
       <use x="168.115234" xlink:href="#DejaVuSans-65"/>
       <use x="229.638672" xlink:href="#DejaVuSans-31"/>
       <use x="293.261719" xlink:href="#DejaVuSans-5f"/>
       <use x="343.261719" xlink:href="#DejaVuSans-64"/>
       <use x="406.738281" xlink:href="#DejaVuSans-65"/>
       <use x="468.261719" xlink:href="#DejaVuSans-70"/>
       <use x="531.738281" xlink:href="#DejaVuSans-72"/>
       <use x="570.601562" xlink:href="#DejaVuSans-65"/>
       <use x="632.125" xlink:href="#DejaVuSans-73"/>
       <use x="684.224609" xlink:href="#DejaVuSans-73"/>
       <use x="736.324219" xlink:href="#DejaVuSans-65"/>
       <use x="797.847656" xlink:href="#DejaVuSans-64"/>
      </g>
     </g>
    </g>
    <g id="xtick_7">
     <g id="line2d_7">
      <g>
       <use style="stroke:#000000;stroke-width:0.8;" x="631.04" xlink:href="#m038ac89a88" y="508.1544"/>
      </g>
     </g>
     <g id="text_7">
      <!-- Type2_depressed -->
      <g transform="translate(587.97125 522.752838)scale(0.1 -0.1)">
       <defs>
        <path d="M 1228 531 
L 3431 531 
L 3431 0 
L 469 0 
L 469 531 
Q 828 903 1448 1529 
Q 2069 2156 2228 2338 
Q 2531 2678 2651 2914 
Q 2772 3150 2772 3378 
Q 2772 3750 2511 3984 
Q 2250 4219 1831 4219 
Q 1534 4219 1204 4116 
Q 875 4013 500 3803 
L 500 4441 
Q 881 4594 1212 4672 
Q 1544 4750 1819 4750 
Q 2544 4750 2975 4387 
Q 3406 4025 3406 3419 
Q 3406 3131 3298 2873 
Q 3191 2616 2906 2266 
Q 2828 2175 2409 1742 
Q 1991 1309 1228 531 
z
" id="DejaVuSans-32" transform="scale(0.015625)"/>
       </defs>
       <use xlink:href="#DejaVuSans-54"/>
       <use x="45.458984" xlink:href="#DejaVuSans-79"/>
       <use x="104.638672" xlink:href="#DejaVuSans-70"/>
       <use x="168.115234" xlink:href="#DejaVuSans-65"/>
       <use x="229.638672" xlink:href="#DejaVuSans-32"/>
       <use x="293.261719" xlink:href="#DejaVuSans-5f"/>
       <use x="343.261719" xlink:href="#DejaVuSans-64"/>
       <use x="406.738281" xlink:href="#DejaVuSans-65"/>
       <use x="468.261719" xlink:href="#DejaVuSans-70"/>
       <use x="531.738281" xlink:href="#DejaVuSans-72"/>
       <use x="570.601562" xlink:href="#DejaVuSans-65"/>
       <use x="632.125" xlink:href="#DejaVuSans-73"/>
       <use x="684.224609" xlink:href="#DejaVuSans-73"/>
       <use x="736.324219" xlink:href="#DejaVuSans-65"/>
       <use x="797.847656" xlink:href="#DejaVuSans-64"/>
      </g>
     </g>
    </g>
    <g id="xtick_8">
     <g id="line2d_8">
      <g>
       <use style="stroke:#000000;stroke-width:0.8;" x="710.4" xlink:href="#m038ac89a88" y="508.1544"/>
      </g>
     </g>
     <g id="text_8">
      <!-- Type1_social_phobia -->
      <g transform="translate(659.450781 522.752838)scale(0.1 -0.1)">
       <defs>
        <path d="M 1959 3097 
Q 1497 3097 1228 2736 
Q 959 2375 959 1747 
Q 959 1119 1226 758 
Q 1494 397 1959 397 
Q 2419 397 2687 759 
Q 2956 1122 2956 1747 
Q 2956 2369 2687 2733 
Q 2419 3097 1959 3097 
z
M 1959 3584 
Q 2709 3584 3137 3096 
Q 3566 2609 3566 1747 
Q 3566 888 3137 398 
Q 2709 -91 1959 -91 
Q 1206 -91 779 398 
Q 353 888 353 1747 
Q 353 2609 779 3096 
Q 1206 3584 1959 3584 
z
" id="DejaVuSans-6f" transform="scale(0.015625)"/>
        <path d="M 3122 3366 
L 3122 2828 
Q 2878 2963 2633 3030 
Q 2388 3097 2138 3097 
Q 1578 3097 1268 2742 
Q 959 2388 959 1747 
Q 959 1106 1268 751 
Q 1578 397 2138 397 
Q 2388 397 2633 464 
Q 2878 531 3122 666 
L 3122 134 
Q 2881 22 2623 -34 
Q 2366 -91 2075 -91 
Q 1284 -91 818 406 
Q 353 903 353 1747 
Q 353 2603 823 3093 
Q 1294 3584 2113 3584 
Q 2378 3584 2631 3529 
Q 2884 3475 3122 3366 
z
" id="DejaVuSans-63" transform="scale(0.015625)"/>
       </defs>
       <use xlink:href="#DejaVuSans-54"/>
       <use x="45.458984" xlink:href="#DejaVuSans-79"/>
       <use x="104.638672" xlink:href="#DejaVuSans-70"/>
       <use x="168.115234" xlink:href="#DejaVuSans-65"/>
       <use x="229.638672" xlink:href="#DejaVuSans-31"/>
       <use x="293.261719" xlink:href="#DejaVuSans-5f"/>
       <use x="343.261719" xlink:href="#DejaVuSans-73"/>
       <use x="395.361328" xlink:href="#DejaVuSans-6f"/>
       <use x="456.542969" xlink:href="#DejaVuSans-63"/>
       <use x="511.523438" xlink:href="#DejaVuSans-69"/>
       <use x="539.306641" xlink:href="#DejaVuSans-61"/>
       <use x="600.585938" xlink:href="#DejaVuSans-6c"/>
       <use x="628.369141" xlink:href="#DejaVuSans-5f"/>
       <use x="678.369141" xlink:href="#DejaVuSans-70"/>
       <use x="741.845703" xlink:href="#DejaVuSans-68"/>
       <use x="805.224609" xlink:href="#DejaVuSans-6f"/>
       <use x="866.40625" xlink:href="#DejaVuSans-62"/>
       <use x="929.882812" xlink:href="#DejaVuSans-69"/>
       <use x="957.666016" xlink:href="#DejaVuSans-61"/>
      </g>
     </g>
    </g>
    <g id="xtick_9">
     <g id="line2d_9">
      <g>
       <use style="stroke:#000000;stroke-width:0.8;" x="789.76" xlink:href="#m038ac89a88" y="508.1544"/>
      </g>
     </g>
     <g id="text_9">
      <!-- Type2_social_phobia -->
      <g transform="translate(738.810781 522.752838)scale(0.1 -0.1)">
       <use xlink:href="#DejaVuSans-54"/>
       <use x="45.458984" xlink:href="#DejaVuSans-79"/>
       <use x="104.638672" xlink:href="#DejaVuSans-70"/>
       <use x="168.115234" xlink:href="#DejaVuSans-65"/>
       <use x="229.638672" xlink:href="#DejaVuSans-32"/>
       <use x="293.261719" xlink:href="#DejaVuSans-5f"/>
       <use x="343.261719" xlink:href="#DejaVuSans-73"/>
       <use x="395.361328" xlink:href="#DejaVuSans-6f"/>
       <use x="456.542969" xlink:href="#DejaVuSans-63"/>
       <use x="511.523438" xlink:href="#DejaVuSans-69"/>
       <use x="539.306641" xlink:href="#DejaVuSans-61"/>
       <use x="600.585938" xlink:href="#DejaVuSans-6c"/>
       <use x="628.369141" xlink:href="#DejaVuSans-5f"/>
       <use x="678.369141" xlink:href="#DejaVuSans-70"/>
       <use x="741.845703" xlink:href="#DejaVuSans-68"/>
       <use x="805.224609" xlink:href="#DejaVuSans-6f"/>
       <use x="866.40625" xlink:href="#DejaVuSans-62"/>
       <use x="929.882812" xlink:href="#DejaVuSans-69"/>
       <use x="957.666016" xlink:href="#DejaVuSans-61"/>
      </g>
     </g>
    </g>
   </g>
   <g id="matplotlib.axis_2">
    <g id="ytick_1">
     <g id="line2d_10">
      <defs>
       <path d="M 0 0 
L -3.5 0 
" id="m2f6093e143" style="stroke:#000000;stroke-width:0.8;"/>
      </defs>
      <g>
       <use style="stroke:#000000;stroke-width:0.8;" x="115.2" xlink:href="#m2f6093e143" y="432.109002"/>
      </g>
     </g>
     <g id="text_10">
      <!-- 10 -->
      <g transform="translate(95.475 435.908221)scale(0.1 -0.1)">
       <defs>
        <path d="M 2034 4250 
Q 1547 4250 1301 3770 
Q 1056 3291 1056 2328 
Q 1056 1369 1301 889 
Q 1547 409 2034 409 
Q 2525 409 2770 889 
Q 3016 1369 3016 2328 
Q 3016 3291 2770 3770 
Q 2525 4250 2034 4250 
z
M 2034 4750 
Q 2819 4750 3233 4129 
Q 3647 3509 3647 2328 
Q 3647 1150 3233 529 
Q 2819 -91 2034 -91 
Q 1250 -91 836 529 
Q 422 1150 422 2328 
Q 422 3509 836 4129 
Q 1250 4750 2034 4750 
z
" id="DejaVuSans-30" transform="scale(0.015625)"/>
       </defs>
       <use xlink:href="#DejaVuSans-31"/>
       <use x="63.623047" xlink:href="#DejaVuSans-30"/>
      </g>
     </g>
    </g>
    <g id="ytick_2">
     <g id="line2d_11">
      <g>
       <use style="stroke:#000000;stroke-width:0.8;" x="115.2" xlink:href="#m2f6093e143" y="340.823795"/>
      </g>
     </g>
     <g id="text_11">
      <!-- 20 -->
      <g transform="translate(95.475 344.623013)scale(0.1 -0.1)">
       <use xlink:href="#DejaVuSans-32"/>
       <use x="63.623047" xlink:href="#DejaVuSans-30"/>
      </g>
     </g>
    </g>
    <g id="ytick_3">
     <g id="line2d_12">
      <g>
       <use style="stroke:#000000;stroke-width:0.8;" x="115.2" xlink:href="#m2f6093e143" y="249.538587"/>
      </g>
     </g>
     <g id="text_12">
      <!-- 30 -->
      <g transform="translate(95.475 253.337805)scale(0.1 -0.1)">
       <defs>
        <path d="M 2597 2516 
Q 3050 2419 3304 2112 
Q 3559 1806 3559 1356 
Q 3559 666 3084 287 
Q 2609 -91 1734 -91 
Q 1441 -91 1130 -33 
Q 819 25 488 141 
L 488 750 
Q 750 597 1062 519 
Q 1375 441 1716 441 
Q 2309 441 2620 675 
Q 2931 909 2931 1356 
Q 2931 1769 2642 2001 
Q 2353 2234 1838 2234 
L 1294 2234 
L 1294 2753 
L 1863 2753 
Q 2328 2753 2575 2939 
Q 2822 3125 2822 3475 
Q 2822 3834 2567 4026 
Q 2313 4219 1838 4219 
Q 1578 4219 1281 4162 
Q 984 4106 628 3988 
L 628 4550 
Q 988 4650 1302 4700 
Q 1616 4750 1894 4750 
Q 2613 4750 3031 4423 
Q 3450 4097 3450 3541 
Q 3450 3153 3228 2886 
Q 3006 2619 2597 2516 
z
" id="DejaVuSans-33" transform="scale(0.015625)"/>
       </defs>
       <use xlink:href="#DejaVuSans-33"/>
       <use x="63.623047" xlink:href="#DejaVuSans-30"/>
      </g>
     </g>
    </g>
    <g id="ytick_4">
     <g id="line2d_13">
      <g>
       <use style="stroke:#000000;stroke-width:0.8;" x="115.2" xlink:href="#m2f6093e143" y="158.253379"/>
      </g>
     </g>
     <g id="text_13">
      <!-- 40 -->
      <g transform="translate(95.475 162.052598)scale(0.1 -0.1)">
       <defs>
        <path d="M 2419 4116 
L 825 1625 
L 2419 1625 
L 2419 4116 
z
M 2253 4666 
L 3047 4666 
L 3047 1625 
L 3713 1625 
L 3713 1100 
L 3047 1100 
L 3047 0 
L 2419 0 
L 2419 1100 
L 313 1100 
L 313 1709 
L 2253 4666 
z
" id="DejaVuSans-34" transform="scale(0.015625)"/>
       </defs>
       <use xlink:href="#DejaVuSans-34"/>
       <use x="63.623047" xlink:href="#DejaVuSans-30"/>
      </g>
     </g>
    </g>
   </g>
   <g id="line2d_14">
    <path clip-path="url(#p019b6742de)" d="M 154.88 359.080836 
L 154.88 167.3819 
" style="fill:none;stroke:#484848;stroke-linecap:square;stroke-width:1.5;"/>
   </g>
   <g id="line2d_15">
    <path clip-path="url(#p019b6742de)" d="M 154.88 273.500954 
L 154.88 205.037048 
" style="fill:none;stroke:#484848;stroke-linecap:square;stroke-width:4.5;"/>
   </g>
   <g id="line2d_16">
    <path clip-path="url(#p019b6742de)" d="M 234.24 395.594919 
L 234.24 181.074681 
" style="fill:none;stroke:#484848;stroke-linecap:square;stroke-width:1.5;"/>
   </g>
   <g id="line2d_17">
    <path clip-path="url(#p019b6742de)" d="M 234.24 391.030659 
L 234.24 222.153024 
" style="fill:none;stroke:#484848;stroke-linecap:square;stroke-width:4.5;"/>
   </g>
   <g id="line2d_18">
    <path clip-path="url(#p019b6742de)" d="M 313.6 318.002493 
L 313.6 194.767462 
" style="fill:none;stroke:#484848;stroke-linecap:square;stroke-width:1.5;"/>
   </g>
   <g id="line2d_19">
    <path clip-path="url(#p019b6742de)" d="M 313.6 273.500954 
L 313.6 240.410066 
" style="fill:none;stroke:#484848;stroke-linecap:square;stroke-width:4.5;"/>
   </g>
   <g id="line2d_20">
    <path clip-path="url(#p019b6742de)" d="M 392.96 354.516576 
L 392.96 313.438232 
" style="fill:none;stroke:#484848;stroke-linecap:square;stroke-width:1.5;"/>
   </g>
   <g id="line2d_21">
    <path clip-path="url(#p019b6742de)" d="M 392.96 354.516576 
L 392.96 336.259534 
" style="fill:none;stroke:#484848;stroke-linecap:square;stroke-width:4.5;"/>
   </g>
   <g id="line2d_22">
    <path clip-path="url(#p019b6742de)" d="M 472.32 313.438232 
L 472.32 199.331722 
" style="fill:none;stroke:#484848;stroke-linecap:square;stroke-width:1.5;"/>
   </g>
   <g id="line2d_23">
    <path clip-path="url(#p019b6742de)" d="M 472.32 265.513498 
L 472.32 231.281545 
" style="fill:none;stroke:#484848;stroke-linecap:square;stroke-width:4.5;"/>
   </g>
   <g id="line2d_24">
    <path clip-path="url(#p019b6742de)" d="M 551.68 381.902138 
L 551.68 322.566753 
" style="fill:none;stroke:#484848;stroke-linecap:square;stroke-width:1.5;"/>
   </g>
   <g id="line2d_25">
    <path clip-path="url(#p019b6742de)" d="M 551.68 364.786162 
L 551.68 338.541664 
" style="fill:none;stroke:#484848;stroke-linecap:square;stroke-width:4.5;"/>
   </g>
   <g id="line2d_26">
    <path clip-path="url(#p019b6742de)" d="M 631.04 381.902138 
L 631.04 222.153024 
" style="fill:none;stroke:#484848;stroke-linecap:square;stroke-width:1.5;"/>
   </g>
   <g id="line2d_27">
    <path clip-path="url(#p019b6742de)" d="M 631.04 332.836339 
L 631.04 256.384977 
" style="fill:none;stroke:#484848;stroke-linecap:square;stroke-width:4.5;"/>
   </g>
   <g id="line2d_28">
    <path clip-path="url(#p019b6742de)" d="M 710.4 368.209357 
L 710.4 336.259534 
" style="fill:none;stroke:#484848;stroke-linecap:square;stroke-width:1.5;"/>
   </g>
   <g id="line2d_29">
    <path clip-path="url(#p019b6742de)" d="M 710.4 354.516576 
L 710.4 345.388055 
" style="fill:none;stroke:#484848;stroke-linecap:square;stroke-width:4.5;"/>
   </g>
   <g id="line2d_30">
    <path clip-path="url(#p019b6742de)" d="M 789.76 349.952315 
L 789.76 327.131013 
" style="fill:none;stroke:#484848;stroke-linecap:square;stroke-width:1.5;"/>
   </g>
   <g id="line2d_31">
    <path clip-path="url(#p019b6742de)" d="M 789.76 349.952315 
L 789.76 340.823795 
" style="fill:none;stroke:#484848;stroke-linecap:square;stroke-width:4.5;"/>
   </g>
   <g id="patch_3">
    <path d="M 115.2 508.1544 
L 115.2 68.5152 
" style="fill:none;stroke:#000000;stroke-linecap:square;stroke-linejoin:miter;stroke-width:0.8;"/>
   </g>
   <g id="patch_4">
    <path d="M 829.44 508.1544 
L 829.44 68.5152 
" style="fill:none;stroke:#000000;stroke-linecap:square;stroke-linejoin:miter;stroke-width:0.8;"/>
   </g>
   <g id="patch_5">
    <path d="M 115.2 508.1544 
L 829.44 508.1544 
" style="fill:none;stroke:#000000;stroke-linecap:square;stroke-linejoin:miter;stroke-width:0.8;"/>
   </g>
   <g id="patch_6">
    <path d="M 115.2 68.5152 
L 829.44 68.5152 
" style="fill:none;stroke:#000000;stroke-linecap:square;stroke-linejoin:miter;stroke-width:0.8;"/>
   </g>
   <g id="PathCollection_1">
    <defs>
     <path d="M 0 1.5 
C 0.397805 1.5 0.77937 1.341951 1.06066 1.06066 
C 1.341951 0.77937 1.5 0.397805 1.5 0 
C 1.5 -0.397805 1.341951 -0.77937 1.06066 -1.06066 
C 0.77937 -1.341951 0.397805 -1.5 0 -1.5 
C -0.397805 -1.5 -0.77937 -1.341951 -1.06066 -1.06066 
C -1.341951 -0.77937 -1.5 -0.397805 -1.5 0 
C -1.5 0.397805 -1.341951 0.77937 -1.06066 1.06066 
C -0.77937 1.341951 -0.397805 1.5 0 1.5 
z
" id="me701cdc6e2" style="stroke:#484848;"/>
    </defs>
    <g clip-path="url(#p019b6742de)">
     <use style="fill:#ffffff;stroke:#484848;" x="154.88" xlink:href="#me701cdc6e2" y="235.845805"/>
    </g>
   </g>
   <g id="PathCollection_2">
    <g clip-path="url(#p019b6742de)">
     <use style="fill:#ffffff;stroke:#484848;" x="234.24" xlink:href="#me701cdc6e2" y="256.384977"/>
    </g>
   </g>
   <g id="PathCollection_3">
    <g clip-path="url(#p019b6742de)">
     <use style="fill:#ffffff;stroke:#484848;" x="313.6" xlink:href="#me701cdc6e2" y="256.384977"/>
    </g>
   </g>
   <g id="PathCollection_4">
    <g clip-path="url(#p019b6742de)">
     <use style="fill:#ffffff;stroke:#484848;" x="392.96" xlink:href="#me701cdc6e2" y="349.952315"/>
    </g>
   </g>
   <g id="PathCollection_5">
    <g clip-path="url(#p019b6742de)">
     <use style="fill:#ffffff;stroke:#484848;" x="472.32" xlink:href="#me701cdc6e2" y="249.538587"/>
    </g>
   </g>
   <g id="PathCollection_6">
    <g clip-path="url(#p019b6742de)">
     <use style="fill:#ffffff;stroke:#484848;" x="551.68" xlink:href="#me701cdc6e2" y="352.234446"/>
    </g>
   </g>
   <g id="PathCollection_7">
    <g clip-path="url(#p019b6742de)">
     <use style="fill:#ffffff;stroke:#484848;" x="631.04" xlink:href="#me701cdc6e2" y="290.61693"/>
    </g>
   </g>
   <g id="PathCollection_8">
    <g clip-path="url(#p019b6742de)">
     <use style="fill:#ffffff;stroke:#484848;" x="710.4" xlink:href="#me701cdc6e2" y="345.388055"/>
    </g>
   </g>
   <g id="PathCollection_9">
    <g clip-path="url(#p019b6742de)">
     <use style="fill:#ffffff;stroke:#484848;" x="789.76" xlink:href="#me701cdc6e2" y="345.388055"/>
    </g>
   </g>
   <g id="text_14">
    <!-- Rewards earned per agent type - hostile context first -->
    <g transform="translate(141.185234 62.5152)scale(0.25 -0.25)">
     <defs>
      <path d="M 2841 2188 
Q 3044 2119 3236 1894 
Q 3428 1669 3622 1275 
L 4263 0 
L 3584 0 
L 2988 1197 
Q 2756 1666 2539 1819 
Q 2322 1972 1947 1972 
L 1259 1972 
L 1259 0 
L 628 0 
L 628 4666 
L 2053 4666 
Q 2853 4666 3247 4331 
Q 3641 3997 3641 3322 
Q 3641 2881 3436 2590 
Q 3231 2300 2841 2188 
z
M 1259 4147 
L 1259 2491 
L 2053 2491 
Q 2509 2491 2742 2702 
Q 2975 2913 2975 3322 
Q 2975 3731 2742 3939 
Q 2509 4147 2053 4147 
L 1259 4147 
z
" id="DejaVuSans-52" transform="scale(0.015625)"/>
      <path d="M 269 3500 
L 844 3500 
L 1563 769 
L 2278 3500 
L 2956 3500 
L 3675 769 
L 4391 3500 
L 4966 3500 
L 4050 0 
L 3372 0 
L 2619 2869 
L 1863 0 
L 1184 0 
L 269 3500 
z
" id="DejaVuSans-77" transform="scale(0.015625)"/>
      <path id="DejaVuSans-20" transform="scale(0.015625)"/>
      <path d="M 3513 2113 
L 3513 0 
L 2938 0 
L 2938 2094 
Q 2938 2591 2744 2837 
Q 2550 3084 2163 3084 
Q 1697 3084 1428 2787 
Q 1159 2491 1159 1978 
L 1159 0 
L 581 0 
L 581 3500 
L 1159 3500 
L 1159 2956 
Q 1366 3272 1645 3428 
Q 1925 3584 2291 3584 
Q 2894 3584 3203 3211 
Q 3513 2838 3513 2113 
z
" id="DejaVuSans-6e" transform="scale(0.015625)"/>
      <path d="M 2906 1791 
Q 2906 2416 2648 2759 
Q 2391 3103 1925 3103 
Q 1463 3103 1205 2759 
Q 947 2416 947 1791 
Q 947 1169 1205 825 
Q 1463 481 1925 481 
Q 2391 481 2648 825 
Q 2906 1169 2906 1791 
z
M 3481 434 
Q 3481 -459 3084 -895 
Q 2688 -1331 1869 -1331 
Q 1566 -1331 1297 -1286 
Q 1028 -1241 775 -1147 
L 775 -588 
Q 1028 -725 1275 -790 
Q 1522 -856 1778 -856 
Q 2344 -856 2625 -561 
Q 2906 -266 2906 331 
L 2906 616 
Q 2728 306 2450 153 
Q 2172 0 1784 0 
Q 1141 0 747 490 
Q 353 981 353 1791 
Q 353 2603 747 3093 
Q 1141 3584 1784 3584 
Q 2172 3584 2450 3431 
Q 2728 3278 2906 2969 
L 2906 3500 
L 3481 3500 
L 3481 434 
z
" id="DejaVuSans-67" transform="scale(0.015625)"/>
      <path d="M 313 2009 
L 1997 2009 
L 1997 1497 
L 313 1497 
L 313 2009 
z
" id="DejaVuSans-2d" transform="scale(0.015625)"/>
      <path d="M 3513 3500 
L 2247 1797 
L 3578 0 
L 2900 0 
L 1881 1375 
L 863 0 
L 184 0 
L 1544 1831 
L 300 3500 
L 978 3500 
L 1906 2253 
L 2834 3500 
L 3513 3500 
z
" id="DejaVuSans-78" transform="scale(0.015625)"/>
      <path d="M 2375 4863 
L 2375 4384 
L 1825 4384 
Q 1516 4384 1395 4259 
Q 1275 4134 1275 3809 
L 1275 3500 
L 2222 3500 
L 2222 3053 
L 1275 3053 
L 1275 0 
L 697 0 
L 697 3053 
L 147 3053 
L 147 3500 
L 697 3500 
L 697 3744 
Q 697 4328 969 4595 
Q 1241 4863 1831 4863 
L 2375 4863 
z
" id="DejaVuSans-66" transform="scale(0.015625)"/>
     </defs>
     <use xlink:href="#DejaVuSans-52"/>
     <use x="64.982422" xlink:href="#DejaVuSans-65"/>
     <use x="126.505859" xlink:href="#DejaVuSans-77"/>
     <use x="208.292969" xlink:href="#DejaVuSans-61"/>
     <use x="269.572266" xlink:href="#DejaVuSans-72"/>
     <use x="308.935547" xlink:href="#DejaVuSans-64"/>
     <use x="372.412109" xlink:href="#DejaVuSans-73"/>
     <use x="424.511719" xlink:href="#DejaVuSans-20"/>
     <use x="456.298828" xlink:href="#DejaVuSans-65"/>
     <use x="517.822266" xlink:href="#DejaVuSans-61"/>
     <use x="579.101562" xlink:href="#DejaVuSans-72"/>
     <use x="618.464844" xlink:href="#DejaVuSans-6e"/>
     <use x="681.84375" xlink:href="#DejaVuSans-65"/>
     <use x="743.367188" xlink:href="#DejaVuSans-64"/>
     <use x="806.84375" xlink:href="#DejaVuSans-20"/>
     <use x="838.630859" xlink:href="#DejaVuSans-70"/>
     <use x="902.107422" xlink:href="#DejaVuSans-65"/>
     <use x="963.630859" xlink:href="#DejaVuSans-72"/>
     <use x="1004.744141" xlink:href="#DejaVuSans-20"/>
     <use x="1036.53125" xlink:href="#DejaVuSans-61"/>
     <use x="1097.810547" xlink:href="#DejaVuSans-67"/>
     <use x="1161.287109" xlink:href="#DejaVuSans-65"/>
     <use x="1222.810547" xlink:href="#DejaVuSans-6e"/>
     <use x="1286.189453" xlink:href="#DejaVuSans-74"/>
     <use x="1325.398438" xlink:href="#DejaVuSans-20"/>
     <use x="1357.185547" xlink:href="#DejaVuSans-74"/>
     <use x="1396.394531" xlink:href="#DejaVuSans-79"/>
     <use x="1455.574219" xlink:href="#DejaVuSans-70"/>
     <use x="1519.050781" xlink:href="#DejaVuSans-65"/>
     <use x="1580.574219" xlink:href="#DejaVuSans-20"/>
     <use x="1612.361328" xlink:href="#DejaVuSans-2d"/>
     <use x="1648.445312" xlink:href="#DejaVuSans-20"/>
     <use x="1680.232422" xlink:href="#DejaVuSans-68"/>
     <use x="1743.611328" xlink:href="#DejaVuSans-6f"/>
     <use x="1804.792969" xlink:href="#DejaVuSans-73"/>
     <use x="1856.892578" xlink:href="#DejaVuSans-74"/>
     <use x="1896.101562" xlink:href="#DejaVuSans-69"/>
     <use x="1923.884766" xlink:href="#DejaVuSans-6c"/>
     <use x="1951.667969" xlink:href="#DejaVuSans-65"/>
     <use x="2013.191406" xlink:href="#DejaVuSans-20"/>
     <use x="2044.978516" xlink:href="#DejaVuSans-63"/>
     <use x="2099.958984" xlink:href="#DejaVuSans-6f"/>
     <use x="2161.140625" xlink:href="#DejaVuSans-6e"/>
     <use x="2224.519531" xlink:href="#DejaVuSans-74"/>
     <use x="2263.728516" xlink:href="#DejaVuSans-65"/>
     <use x="2323.501953" xlink:href="#DejaVuSans-78"/>
     <use x="2382.681641" xlink:href="#DejaVuSans-74"/>
     <use x="2421.890625" xlink:href="#DejaVuSans-20"/>
     <use x="2453.677734" xlink:href="#DejaVuSans-66"/>
     <use x="2488.882812" xlink:href="#DejaVuSans-69"/>
     <use x="2516.666016" xlink:href="#DejaVuSans-72"/>
     <use x="2557.779297" xlink:href="#DejaVuSans-73"/>
     <use x="2609.878906" xlink:href="#DejaVuSans-74"/>
    </g>
   </g>
  </g>
 </g>
 <defs>
  <clipPath id="p019b6742de">
   <rect height="439.6392" width="714.24" x="115.2" y="68.5152"/>
  </clipPath>
 </defs>
</svg>
