<?xml version="1.0" encoding="utf-8" standalone="no"?>
<!DOCTYPE svg PUBLIC "-//W3C//DTD SVG 1.1//EN"
  "http://www.w3.org/Graphics/SVG/1.1/DTD/svg11.dtd">
<svg height="720pt" version="1.1" viewBox="0 0 1152 720" width="1152pt" xmlns="http://www.w3.org/2000/svg" xmlns:xlink="http://www.w3.org/1999/xlink">
 <metadata>
  <rdf:RDF xmlns:cc="http://creativecommons.org/ns#" xmlns:dc="http://purl.org/dc/elements/1.1/" xmlns:rdf="http://www.w3.org/1999/02/22-rdf-syntax-ns#">
   <cc:Work>
    <dc:type rdf:resource="http://purl.org/dc/dcmitype/StillImage"/>
    <dc:date>2023-10-20T11:42:47.774751</dc:date>
    <dc:format>image/svg+xml</dc:format>
    <dc:creator>
     <cc:Agent>
      <dc:title>Matplotlib v3.4.3, https://matplotlib.org/</dc:title>
     </cc:Agent>
    </dc:creator>
   </cc:Work>
  </rdf:RDF>
 </metadata>
 <defs>
  <style type="text/css">*{stroke-linecap:butt;stroke-linejoin:round;}</style>
 </defs>
 <g id="figure_1">
  <g id="patch_1">
   <path d="M 0 720 
L 1152 720 
L 1152 0 
L 0 0 
z
" style="fill:#ffffff;"/>
  </g>
  <g id="axes_1">
   <g id="patch_2">
    <path d="M 144 640.8 
L 1036.8 640.8 
L 1036.8 86.4 
L 144 86.4 
z
" style="fill:#ffffff;"/>
   </g>
   <g id="PolyCollection_1">
    <defs>
     <path d="M 193.712523 -318.301268 
L 193.487477 -318.301268 
L 193.462009 -320.706215 
L 193.432162 -323.111162 
L 193.397521 -325.516109 
L 193.357708 -327.921056 
L 193.312401 -330.326002 
L 193.261355 -332.730949 
L 193.204424 -335.135896 
L 193.141578 -337.540843 
L 193.072924 -339.94579 
L 192.998722 -342.350736 
L 192.919392 -344.755683 
L 192.835527 -347.16063 
L 192.747885 -349.565577 
L 192.657384 -351.970524 
L 192.56509 -354.37547 
L 192.472187 -356.780417 
L 192.37995 -359.185364 
L 192.28971 -361.590311 
L 192.202805 -363.995258 
L 192.120537 -366.400204 
L 192.044122 -368.805151 
L 191.974643 -371.210098 
L 191.913001 -373.615045 
L 191.859876 -376.019992 
L 191.815693 -378.424938 
L 191.780598 -380.829885 
L 191.754444 -383.234832 
L 191.736792 -385.639779 
L 191.726916 -388.044725 
L 191.723833 -390.449672 
L 191.726332 -392.854619 
L 191.733022 -395.259566 
L 191.742382 -397.664513 
L 191.752814 -400.069459 
L 191.76271 -402.474406 
L 191.770504 -404.879353 
L 191.774729 -407.2843 
L 191.774071 -409.689247 
L 191.767406 -412.094193 
L 191.753838 -414.49914 
L 191.732725 -416.904087 
L 191.703687 -419.309034 
L 191.666616 -421.713981 
L 191.621671 -424.118927 
L 191.569263 -426.523874 
L 191.51004 -428.928821 
L 191.44486 -431.333768 
L 191.374762 -433.738715 
L 191.300939 -436.143661 
L 191.2247 -438.548608 
L 191.147437 -440.953555 
L 191.070592 -443.358502 
L 190.995622 -445.763449 
L 190.923965 -448.168395 
L 190.857011 -450.573342 
L 190.796066 -452.978289 
L 190.742335 -455.383236 
L 190.696891 -457.788183 
L 190.660657 -460.193129 
L 190.634398 -462.598076 
L 190.618703 -465.003023 
L 190.613989 -467.40797 
L 190.620498 -469.812916 
L 190.638306 -472.217863 
L 190.667331 -474.62281 
L 190.707348 -477.027757 
L 190.758004 -479.432704 
L 190.818833 -481.83765 
L 190.889271 -484.242597 
L 190.968675 -486.647544 
L 191.05633 -489.052491 
L 191.151459 -491.457438 
L 191.253236 -493.862384 
L 191.36079 -496.267331 
L 191.473207 -498.672278 
L 191.58954 -501.077225 
L 191.708813 -503.482172 
L 191.830027 -505.887118 
L 191.95217 -508.292065 
L 192.074229 -510.697012 
L 192.195202 -513.101959 
L 192.31412 -515.506906 
L 192.430055 -517.911852 
L 192.542147 -520.316799 
L 192.649615 -522.721746 
L 192.751779 -525.126693 
L 192.848067 -527.53164 
L 192.93803 -529.936586 
L 193.021346 -532.341533 
L 193.097823 -534.74648 
L 193.167393 -537.151427 
L 193.23011 -539.556374 
L 193.286135 -541.96132 
L 193.335724 -544.366267 
L 193.379213 -546.771214 
L 193.417001 -549.176161 
L 193.449531 -551.581108 
L 193.477275 -553.986054 
L 193.500715 -556.391001 
L 193.699285 -556.391001 
L 193.699285 -556.391001 
L 193.722725 -553.986054 
L 193.750469 -551.581108 
L 193.782999 -549.176161 
L 193.820787 -546.771214 
L 193.864276 -544.366267 
L 193.913865 -541.96132 
L 193.96989 -539.556374 
L 194.032607 -537.151427 
L 194.102177 -534.74648 
L 194.178654 -532.341533 
L 194.26197 -529.936586 
L 194.351933 -527.53164 
L 194.448221 -525.126693 
L 194.550385 -522.721746 
L 194.657853 -520.316799 
L 194.769945 -517.911852 
L 194.88588 -515.506906 
L 195.004798 -513.101959 
L 195.125771 -510.697012 
L 195.24783 -508.292065 
L 195.369973 -505.887118 
L 195.491187 -503.482172 
L 195.61046 -501.077225 
L 195.726793 -498.672278 
L 195.83921 -496.267331 
L 195.946764 -493.862384 
L 196.048541 -491.457438 
L 196.14367 -489.052491 
L 196.231325 -486.647544 
L 196.310729 -484.242597 
L 196.381167 -481.83765 
L 196.441996 -479.432704 
L 196.492652 -477.027757 
L 196.532669 -474.62281 
L 196.561694 -472.217863 
L 196.579502 -469.812916 
L 196.586011 -467.40797 
L 196.581297 -465.003023 
L 196.565602 -462.598076 
L 196.539343 -460.193129 
L 196.503109 -457.788183 
L 196.457665 -455.383236 
L 196.403934 -452.978289 
L 196.342989 -450.573342 
L 196.276035 -448.168395 
L 196.204378 -445.763449 
L 196.129408 -443.358502 
L 196.052563 -440.953555 
L 195.9753 -438.548608 
L 195.899061 -436.143661 
L 195.825238 -433.738715 
L 195.75514 -431.333768 
L 195.68996 -428.928821 
L 195.630737 -426.523874 
L 195.578329 -424.118927 
L 195.533384 -421.713981 
L 195.496313 -419.309034 
L 195.467275 -416.904087 
L 195.446162 -414.49914 
L 195.432594 -412.094193 
L 195.425929 -409.689247 
L 195.425271 -407.2843 
L 195.429496 -404.879353 
L 195.43729 -402.474406 
L 195.447186 -400.069459 
L 195.457618 -397.664513 
L 195.466978 -395.259566 
L 195.473668 -392.854619 
L 195.476167 -390.449672 
L 195.473084 -388.044725 
L 195.463208 -385.639779 
L 195.445556 -383.234832 
L 195.419402 -380.829885 
L 195.384307 -378.424938 
L 195.340124 -376.019992 
L 195.286999 -373.615045 
L 195.225357 -371.210098 
L 195.155878 -368.805151 
L 195.079463 -366.400204 
L 194.997195 -363.995258 
L 194.91029 -361.590311 
L 194.82005 -359.185364 
L 194.727813 -356.780417 
L 194.63491 -354.37547 
L 194.542616 -351.970524 
L 194.452115 -349.565577 
L 194.364473 -347.16063 
L 194.280608 -344.755683 
L 194.201278 -342.350736 
L 194.127076 -339.94579 
L 194.058422 -337.540843 
L 193.995576 -335.135896 
L 193.938645 -332.730949 
L 193.887599 -330.326002 
L 193.842292 -327.921056 
L 193.802479 -325.516109 
L 193.767838 -323.111162 
L 193.737991 -320.706215 
L 193.712523 -318.301268 
z
" id="ma1da22347d" style="stroke:#484848;stroke-width:1.5;"/>
    </defs>
    <g clip-path="url(#p1e99c0fe7f)">
     <use style="fill:#c1505d;stroke:#484848;stroke-width:1.5;" x="0" xlink:href="#ma1da22347d" y="720"/>
    </g>
   </g>
   <g id="PolyCollection_2">
    <defs>
     <path d="M 292.919064 -104.4 
L 292.680936 -104.4 
L 292.653277 -109.193615 
L 292.620681 -113.98723 
L 292.582641 -118.780845 
L 292.538688 -123.574459 
L 292.488413 -128.368074 
L 292.431492 -133.161689 
L 292.367712 -137.955304 
L 292.296999 -142.748919 
L 292.219442 -147.542534 
L 292.135315 -152.336149 
L 292.045093 -157.129763 
L 291.949463 -161.923378 
L 291.849328 -166.716993 
L 291.745801 -171.510608 
L 291.640189 -176.304223 
L 291.533972 -181.097838 
L 291.428766 -185.891453 
L 291.326283 -190.685067 
L 291.228282 -195.478682 
L 291.136519 -200.272297 
L 291.052688 -205.065912 
L 290.978366 -209.859527 
L 290.914964 -214.653142 
L 290.863676 -219.446757 
L 290.82544 -224.240371 
L 290.800908 -229.033986 
L 290.790428 -233.827601 
L 290.794035 -238.621216 
L 290.811453 -243.414831 
L 290.842113 -248.208446 
L 290.885173 -253.002061 
L 290.939557 -257.795675 
L 291.003988 -262.58929 
L 291.077037 -267.382905 
L 291.157163 -272.17652 
L 291.242765 -276.970135 
L 291.332219 -281.76375 
L 291.423924 -286.557365 
L 291.516334 -291.35098 
L 291.607991 -296.144594 
L 291.697547 -300.938209 
L 291.783787 -305.731824 
L 291.865639 -310.525439 
L 291.942185 -315.319054 
L 292.012662 -320.112669 
L 292.076471 -324.906284 
L 292.133163 -329.699898 
L 292.182447 -334.493513 
L 292.224176 -339.287128 
L 292.258343 -344.080743 
L 292.285071 -348.874358 
L 292.304607 -353.667973 
L 292.317309 -358.461588 
L 292.323638 -363.255202 
L 292.324148 -368.048817 
L 292.319467 -372.842432 
L 292.310295 -377.636047 
L 292.29738 -382.429662 
L 292.28151 -387.223277 
L 292.263496 -392.016892 
L 292.244156 -396.810506 
L 292.224298 -401.604121 
L 292.204707 -406.397736 
L 292.186127 -411.191351 
L 292.169248 -415.984966 
L 292.154693 -420.778581 
L 292.143003 -425.572196 
L 292.134632 -430.36581 
L 292.129936 -435.159425 
L 292.129168 -439.95304 
L 292.13248 -444.746655 
L 292.139916 -449.54027 
L 292.151421 -454.333885 
L 292.166846 -459.1275 
L 292.185952 -463.921114 
L 292.208426 -468.714729 
L 292.233888 -473.508344 
L 292.261909 -478.301959 
L 292.292019 -483.095574 
L 292.32373 -487.889189 
L 292.356542 -492.682804 
L 292.389962 -497.476418 
L 292.423516 -502.270033 
L 292.45676 -507.063648 
L 292.489288 -511.857263 
L 292.520743 -516.650878 
L 292.550818 -521.444493 
L 292.579264 -526.238108 
L 292.605888 -531.031722 
L 292.630552 -535.825337 
L 292.653176 -540.618952 
L 292.673724 -545.412567 
L 292.692209 -550.206182 
L 292.70868 -554.999797 
L 292.72322 -559.793412 
L 292.735936 -564.587026 
L 292.746955 -569.380641 
L 292.756418 -574.174256 
L 292.764469 -578.967871 
L 292.835531 -578.967871 
L 292.835531 -578.967871 
L 292.843582 -574.174256 
L 292.853045 -569.380641 
L 292.864064 -564.587026 
L 292.87678 -559.793412 
L 292.89132 -554.999797 
L 292.907791 -550.206182 
L 292.926276 -545.412567 
L 292.946824 -540.618952 
L 292.969448 -535.825337 
L 292.994112 -531.031722 
L 293.020736 -526.238108 
L 293.049182 -521.444493 
L 293.079257 -516.650878 
L 293.110712 -511.857263 
L 293.14324 -507.063648 
L 293.176484 -502.270033 
L 293.210038 -497.476418 
L 293.243458 -492.682804 
L 293.27627 -487.889189 
L 293.307981 -483.095574 
L 293.338091 -478.301959 
L 293.366112 -473.508344 
L 293.391574 -468.714729 
L 293.414048 -463.921114 
L 293.433154 -459.1275 
L 293.448579 -454.333885 
L 293.460084 -449.54027 
L 293.46752 -444.746655 
L 293.470832 -439.95304 
L 293.470064 -435.159425 
L 293.465368 -430.36581 
L 293.456997 -425.572196 
L 293.445307 -420.778581 
L 293.430752 -415.984966 
L 293.413873 -411.191351 
L 293.395293 -406.397736 
L 293.375702 -401.604121 
L 293.355844 -396.810506 
L 293.336504 -392.016892 
L 293.31849 -387.223277 
L 293.30262 -382.429662 
L 293.289705 -377.636047 
L 293.280533 -372.842432 
L 293.275852 -368.048817 
L 293.276362 -363.255202 
L 293.282691 -358.461588 
L 293.295393 -353.667973 
L 293.314929 -348.874358 
L 293.341657 -344.080743 
L 293.375824 -339.287128 
L 293.417553 -334.493513 
L 293.466837 -329.699898 
L 293.523529 -324.906284 
L 293.587338 -320.112669 
L 293.657815 -315.319054 
L 293.734361 -310.525439 
L 293.816213 -305.731824 
L 293.902453 -300.938209 
L 293.992009 -296.144594 
L 294.083666 -291.35098 
L 294.176076 -286.557365 
L 294.267781 -281.76375 
L 294.357235 -276.970135 
L 294.442837 -272.17652 
L 294.522963 -267.382905 
L 294.596012 -262.58929 
L 294.660443 -257.795675 
L 294.714827 -253.002061 
L 294.757887 -248.208446 
L 294.788547 -243.414831 
L 294.805965 -238.621216 
L 294.809572 -233.827601 
L 294.799092 -229.033986 
L 294.77456 -224.240371 
L 294.736324 -219.446757 
L 294.685036 -214.653142 
L 294.621634 -209.859527 
L 294.547312 -205.065912 
L 294.463481 -200.272297 
L 294.371718 -195.478682 
L 294.273717 -190.685067 
L 294.171234 -185.891453 
L 294.066028 -181.097838 
L 293.959811 -176.304223 
L 293.854199 -171.510608 
L 293.750672 -166.716993 
L 293.650537 -161.923378 
L 293.554907 -157.129763 
L 293.464685 -152.336149 
L 293.380558 -147.542534 
L 293.303001 -142.748919 
L 293.232288 -137.955304 
L 293.168508 -133.161689 
L 293.111587 -128.368074 
L 293.061312 -123.574459 
L 293.017359 -118.780845 
L 292.979319 -113.98723 
L 292.946723 -109.193615 
L 292.919064 -104.4 
z
" id="mab15d7ca79" style="stroke:#484848;stroke-width:1.5;"/>
    </defs>
    <g clip-path="url(#p1e99c0fe7f)">
     <use style="fill:#de7959;stroke:#484848;stroke-width:1.5;" x="0" xlink:href="#mab15d7ca79" y="720"/>
    </g>
   </g>
   <g id="PolyCollection_3">
    <defs>
     <path d="M 392.036102 -176.608958 
L 391.963898 -176.608958 
L 391.95455 -180.970483 
L 391.943454 -185.332009 
L 391.930474 -189.693535 
L 391.915515 -194.05506 
L 391.898536 -198.416586 
L 391.879564 -202.778112 
L 391.8587 -207.139638 
L 391.836133 -211.501163 
L 391.81214 -215.862689 
L 391.787083 -220.224215 
L 391.761401 -224.58574 
L 391.735592 -228.947266 
L 391.710194 -233.308792 
L 391.685752 -237.670317 
L 391.662788 -242.031843 
L 391.641766 -246.393369 
L 391.62305 -250.754894 
L 391.606879 -255.11642 
L 391.59333 -259.477946 
L 391.582306 -263.839471 
L 391.57352 -268.200997 
L 391.566497 -272.562523 
L 391.56059 -276.924048 
L 391.555002 -281.285574 
L 391.548828 -285.6471 
L 391.541094 -290.008625 
L 391.530814 -294.370151 
L 391.517042 -298.731677 
L 391.498925 -303.093202 
L 391.475755 -307.454728 
L 391.447007 -311.816254 
L 391.412368 -316.177779 
L 391.37176 -320.539305 
L 391.325335 -324.900831 
L 391.273469 -329.262357 
L 391.216737 -333.623882 
L 391.155871 -337.985408 
L 391.09172 -342.346934 
L 391.025194 -346.708459 
L 390.957211 -351.069985 
L 390.888645 -355.431511 
L 390.82028 -359.793036 
L 390.752769 -364.154562 
L 390.68661 -368.516088 
L 390.622133 -372.877613 
L 390.559502 -377.239139 
L 390.498737 -381.600665 
L 390.439741 -385.96219 
L 390.382349 -390.323716 
L 390.326379 -394.685242 
L 390.271695 -399.046767 
L 390.218258 -403.408293 
L 390.166187 -407.769819 
L 390.115792 -412.131344 
L 390.067607 -416.49287 
L 390.022391 -420.854396 
L 389.981117 -425.215921 
L 389.944932 -429.577447 
L 389.915103 -433.938973 
L 389.892937 -438.300499 
L 389.879705 -442.662024 
L 389.876545 -447.02355 
L 389.884386 -451.385076 
L 389.903867 -455.746601 
L 389.935286 -460.108127 
L 389.978567 -464.469653 
L 390.033251 -468.831178 
L 390.098518 -473.192704 
L 390.17323 -477.55423 
L 390.255995 -481.915755 
L 390.34524 -486.277281 
L 390.439301 -490.638807 
L 390.536504 -495.000332 
L 390.635242 -499.361858 
L 390.734036 -503.723384 
L 390.831586 -508.084909 
L 390.926802 -512.446435 
L 391.01881 -516.807961 
L 391.106951 -521.169486 
L 391.190764 -525.531012 
L 391.269956 -529.892538 
L 391.344373 -534.254063 
L 391.413963 -538.615589 
L 391.478752 -542.977115 
L 391.538811 -547.33864 
L 391.594243 -551.700166 
L 391.645164 -556.061692 
L 391.691702 -560.423218 
L 391.733989 -564.784743 
L 391.772168 -569.146269 
L 391.806391 -573.507795 
L 391.836829 -577.86932 
L 391.863669 -582.230846 
L 391.88712 -586.592372 
L 391.907411 -590.953897 
L 391.924789 -595.315423 
L 391.939512 -599.676949 
L 391.95185 -604.038474 
L 391.96207 -608.4 
L 392.03793 -608.4 
L 392.03793 -608.4 
L 392.04815 -604.038474 
L 392.060488 -599.676949 
L 392.075211 -595.315423 
L 392.092589 -590.953897 
L 392.11288 -586.592372 
L 392.136331 -582.230846 
L 392.163171 -577.86932 
L 392.193609 -573.507795 
L 392.227832 -569.146269 
L 392.266011 -564.784743 
L 392.308298 -560.423218 
L 392.354836 -556.061692 
L 392.405757 -551.700166 
L 392.461189 -547.33864 
L 392.521248 -542.977115 
L 392.586037 -538.615589 
L 392.655627 -534.254063 
L 392.730044 -529.892538 
L 392.809236 -525.531012 
L 392.893049 -521.169486 
L 392.98119 -516.807961 
L 393.073198 -512.446435 
L 393.168414 -508.084909 
L 393.265964 -503.723384 
L 393.364758 -499.361858 
L 393.463496 -495.000332 
L 393.560699 -490.638807 
L 393.65476 -486.277281 
L 393.744005 -481.915755 
L 393.82677 -477.55423 
L 393.901482 -473.192704 
L 393.966749 -468.831178 
L 394.021433 -464.469653 
L 394.064714 -460.108127 
L 394.096133 -455.746601 
L 394.115614 -451.385076 
L 394.123455 -447.02355 
L 394.120295 -442.662024 
L 394.107063 -438.300499 
L 394.084897 -433.938973 
L 394.055068 -429.577447 
L 394.018883 -425.215921 
L 393.977609 -420.854396 
L 393.932393 -416.49287 
L 393.884208 -412.131344 
L 393.833813 -407.769819 
L 393.781742 -403.408293 
L 393.728305 -399.046767 
L 393.673621 -394.685242 
L 393.617651 -390.323716 
L 393.560259 -385.96219 
L 393.501263 -381.600665 
L 393.440498 -377.239139 
L 393.377867 -372.877613 
L 393.31339 -368.516088 
L 393.247231 -364.154562 
L 393.17972 -359.793036 
L 393.111355 -355.431511 
L 393.042789 -351.069985 
L 392.974806 -346.708459 
L 392.90828 -342.346934 
L 392.844129 -337.985408 
L 392.783263 -333.623882 
L 392.726531 -329.262357 
L 392.674665 -324.900831 
L 392.62824 -320.539305 
L 392.587632 -316.177779 
L 392.552993 -311.816254 
L 392.524245 -307.454728 
L 392.501075 -303.093202 
L 392.482958 -298.731677 
L 392.469186 -294.370151 
L 392.458906 -290.008625 
L 392.451172 -285.6471 
L 392.444998 -281.285574 
L 392.43941 -276.924048 
L 392.433503 -272.562523 
L 392.42648 -268.200997 
L 392.417694 -263.839471 
L 392.40667 -259.477946 
L 392.393121 -255.11642 
L 392.37695 -250.754894 
L 392.358234 -246.393369 
L 392.337212 -242.031843 
L 392.314248 -237.670317 
L 392.289806 -233.308792 
L 392.264408 -228.947266 
L 392.238599 -224.58574 
L 392.212917 -220.224215 
L 392.18786 -215.862689 
L 392.163867 -211.501163 
L 392.1413 -207.139638 
L 392.120436 -202.778112 
L 392.101464 -198.416586 
L 392.084485 -194.05506 
L 392.069526 -189.693535 
L 392.056546 -185.332009 
L 392.04545 -180.970483 
L 392.036102 -176.608958 
z
" id="m054f240531" style="stroke:#484848;stroke-width:1.5;"/>
    </defs>
    <g clip-path="url(#p1e99c0fe7f)">
     <use style="fill:#e9ad74;stroke:#484848;stroke-width:1.5;" x="0" xlink:href="#m054f240531" y="720"/>
    </g>
   </g>
   <g id="PolyCollection_4">
    <defs>
     <path d="M 590.448742 -133.462379 
L 590.351258 -133.462379 
L 590.340114 -137.970839 
L 590.327218 -142.479299 
L 590.312499 -146.987759 
L 590.295932 -151.496219 
L 590.277549 -156.004679 
L 590.257443 -160.513139 
L 590.235776 -165.0216 
L 590.212778 -169.53006 
L 590.188743 -174.03852 
L 590.16402 -178.54698 
L 590.138998 -183.05544 
L 590.114091 -187.5639 
L 590.089715 -192.07236 
L 590.066262 -196.58082 
L 590.044078 -201.08928 
L 590.023439 -205.597741 
L 590.004527 -210.106201 
L 589.987416 -214.614661 
L 589.972064 -219.123121 
L 589.958307 -223.631581 
L 589.945866 -228.140041 
L 589.934359 -232.648501 
L 589.923318 -237.156961 
L 589.912219 -241.665421 
L 589.900502 -246.173882 
L 589.887605 -250.682342 
L 589.872991 -255.190802 
L 589.85617 -259.699262 
L 589.836719 -264.207722 
L 589.814296 -268.716182 
L 589.788648 -273.224642 
L 589.759609 -277.733102 
L 589.727097 -282.241562 
L 589.691106 -286.750022 
L 589.651693 -291.258483 
L 589.608969 -295.766943 
L 589.563085 -300.275403 
L 589.514229 -304.783863 
L 589.46262 -309.292323 
L 589.408506 -313.800783 
L 589.352172 -318.309243 
L 589.29394 -322.817703 
L 589.234184 -327.326163 
L 589.173333 -331.834624 
L 589.111877 -336.343084 
L 589.050371 -340.851544 
L 588.989434 -345.360004 
L 588.929737 -349.868464 
L 588.871991 -354.376924 
L 588.816931 -358.885384 
L 588.765288 -363.393844 
L 588.717766 -367.902304 
L 588.675016 -372.410765 
L 588.637606 -376.919225 
L 588.606006 -381.427685 
L 588.580567 -385.936145 
L 588.561516 -390.444605 
L 588.54895 -394.953065 
L 588.542846 -399.461525 
L 588.543076 -403.969985 
L 588.549421 -408.478445 
L 588.561604 -412.986906 
L 588.579307 -417.495366 
L 588.602204 -422.003826 
L 588.629976 -426.512286 
L 588.662338 -431.020746 
L 588.699039 -435.529206 
L 588.739878 -440.037666 
L 588.784692 -444.546126 
L 588.833348 -449.054586 
L 588.885729 -453.563046 
L 588.941716 -458.071507 
L 589.001162 -462.579967 
L 589.063878 -467.088427 
L 589.129609 -471.596887 
L 589.198028 -476.105347 
L 589.268723 -480.613807 
L 589.3412 -485.122267 
L 589.414892 -489.630727 
L 589.489163 -494.139187 
L 589.563337 -498.647648 
L 589.636712 -503.156108 
L 589.70859 -507.664568 
L 589.778296 -512.173028 
L 589.845208 -516.681488 
L 589.908774 -521.189948 
L 589.968531 -525.698408 
L 590.024113 -530.206868 
L 590.075265 -534.715328 
L 590.121838 -539.223789 
L 590.163788 -543.732249 
L 590.201169 -548.240709 
L 590.234121 -552.749169 
L 590.262857 -557.257629 
L 590.287646 -561.766089 
L 590.308802 -566.274549 
L 590.326661 -570.783009 
L 590.341576 -575.291469 
L 590.353897 -579.79993 
L 590.446103 -579.79993 
L 590.446103 -579.79993 
L 590.458424 -575.291469 
L 590.473339 -570.783009 
L 590.491198 -566.274549 
L 590.512354 -561.766089 
L 590.537143 -557.257629 
L 590.565879 -552.749169 
L 590.598831 -548.240709 
L 590.636212 -543.732249 
L 590.678162 -539.223789 
L 590.724735 -534.715328 
L 590.775887 -530.206868 
L 590.831469 -525.698408 
L 590.891226 -521.189948 
L 590.954792 -516.681488 
L 591.021704 -512.173028 
L 591.09141 -507.664568 
L 591.163288 -503.156108 
L 591.236663 -498.647648 
L 591.310837 -494.139187 
L 591.385108 -489.630727 
L 591.4588 -485.122267 
L 591.531277 -480.613807 
L 591.601972 -476.105347 
L 591.670391 -471.596887 
L 591.736122 -467.088427 
L 591.798838 -462.579967 
L 591.858284 -458.071507 
L 591.914271 -453.563046 
L 591.966652 -449.054586 
L 592.015308 -444.546126 
L 592.060122 -440.037666 
L 592.100961 -435.529206 
L 592.137662 -431.020746 
L 592.170024 -426.512286 
L 592.197796 -422.003826 
L 592.220693 -417.495366 
L 592.238396 -412.986906 
L 592.250579 -408.478445 
L 592.256924 -403.969985 
L 592.257154 -399.461525 
L 592.25105 -394.953065 
L 592.238484 -390.444605 
L 592.219433 -385.936145 
L 592.193994 -381.427685 
L 592.162394 -376.919225 
L 592.124984 -372.410765 
L 592.082234 -367.902304 
L 592.034712 -363.393844 
L 591.983069 -358.885384 
L 591.928009 -354.376924 
L 591.870263 -349.868464 
L 591.810566 -345.360004 
L 591.749629 -340.851544 
L 591.688123 -336.343084 
L 591.626667 -331.834624 
L 591.565816 -327.326163 
L 591.50606 -322.817703 
L 591.447828 -318.309243 
L 591.391494 -313.800783 
L 591.33738 -309.292323 
L 591.285771 -304.783863 
L 591.236915 -300.275403 
L 591.191031 -295.766943 
L 591.148307 -291.258483 
L 591.108894 -286.750022 
L 591.072903 -282.241562 
L 591.040391 -277.733102 
L 591.011352 -273.224642 
L 590.985704 -268.716182 
L 590.963281 -264.207722 
L 590.94383 -259.699262 
L 590.927009 -255.190802 
L 590.912395 -250.682342 
L 590.899498 -246.173882 
L 590.887781 -241.665421 
L 590.876682 -237.156961 
L 590.865641 -232.648501 
L 590.854134 -228.140041 
L 590.841693 -223.631581 
L 590.827936 -219.123121 
L 590.812584 -214.614661 
L 590.795473 -210.106201 
L 590.776561 -205.597741 
L 590.755922 -201.08928 
L 590.733738 -196.58082 
L 590.710285 -192.07236 
L 590.685909 -187.5639 
L 590.661002 -183.05544 
L 590.63598 -178.54698 
L 590.611257 -174.03852 
L 590.587222 -169.53006 
L 590.564224 -165.0216 
L 590.542557 -160.513139 
L 590.522451 -156.004679 
L 590.504068 -151.496219 
L 590.487501 -146.987759 
L 590.472782 -142.479299 
L 590.459886 -137.970839 
L 590.448742 -133.462379 
z
" id="m7a38cfe7c4" style="stroke:#484848;stroke-width:1.5;"/>
    </defs>
    <g clip-path="url(#p1e99c0fe7f)">
     <use style="fill:#f7f7c6;stroke:#484848;stroke-width:1.5;" x="0" xlink:href="#m7a38cfe7c4" y="720"/>
    </g>
   </g>
   <g id="PolyCollection_5">
    <defs>
     <path d="M 690.408471 -273.740425 
L 688.791529 -273.740425 
L 688.596338 -274.025951 
L 688.368708 -274.311476 
L 688.107101 -274.597002 
L 687.810817 -274.882528 
L 687.480134 -275.168053 
L 687.11637 -275.453579 
L 686.721861 -275.739105 
L 686.299829 -276.024631 
L 685.854121 -276.310156 
L 685.388814 -276.595682 
L 684.9077 -276.881208 
L 684.413666 -277.166734 
L 683.908015 -277.452259 
L 683.389778 -277.737785 
L 682.855085 -278.023311 
L 682.296672 -278.308836 
L 681.703611 -278.594362 
L 681.061323 -278.879888 
L 680.351944 -279.165414 
L 679.555088 -279.450939 
L 678.648998 -279.736465 
L 677.612078 -280.021991 
L 676.424721 -280.307517 
L 675.071337 -280.593042 
L 673.542431 -280.878568 
L 671.836567 -281.164094 
L 669.962025 -281.44962 
L 667.937978 -281.735145 
L 665.795019 -282.020671 
L 663.574922 -282.306197 
L 661.329551 -282.591722 
L 659.11894 -282.877248 
L 657.008586 -283.162774 
L 655.06614 -283.4483 
L 653.357672 -283.733825 
L 651.943811 -284.019351 
L 650.876032 -284.304877 
L 650.193394 -284.590403 
L 649.92 -284.875928 
L 650.063399 -285.161454 
L 650.614059 -285.44698 
L 651.545972 -285.732505 
L 652.818341 -286.018031 
L 654.378206 -286.303557 
L 656.163802 -286.589083 
L 658.10836 -286.874608 
L 660.144069 -287.160134 
L 662.20587 -287.44566 
L 664.234825 -287.731186 
L 666.180822 -288.016711 
L 668.004466 -288.302237 
L 669.67806 -288.587763 
L 671.185703 -288.873289 
L 672.522544 -289.158814 
L 673.693365 -289.44434 
L 674.710631 -289.729866 
L 675.592256 -290.015391 
L 676.359256 -290.300917 
L 677.033519 -290.586443 
L 677.635835 -290.871969 
L 678.184329 -291.157494 
L 678.693384 -291.44302 
L 679.173068 -291.728546 
L 679.629068 -292.014072 
L 680.063071 -292.299597 
L 680.473502 -292.585123 
L 680.856511 -292.870649 
L 681.207087 -293.156174 
L 681.520188 -293.4417 
L 681.791766 -293.727226 
L 682.019607 -294.012752 
L 682.203908 -294.298277 
L 682.347574 -294.583803 
L 682.456209 -294.869329 
L 682.537829 -295.154855 
L 682.602339 -295.44038 
L 682.660837 -295.725906 
L 682.724815 -296.011432 
L 682.805339 -296.296957 
L 682.912273 -296.582483 
L 683.053622 -296.868009 
L 683.235036 -297.153535 
L 683.459517 -297.43906 
L 683.727321 -297.724586 
L 684.036078 -298.010112 
L 684.381081 -298.295638 
L 684.755723 -298.581163 
L 685.152024 -298.866689 
L 685.561208 -299.152215 
L 685.974284 -299.437741 
L 686.382568 -299.723266 
L 686.778139 -300.008792 
L 687.154184 -300.294318 
L 687.505234 -300.579843 
L 687.827275 -300.865369 
L 688.117761 -301.150895 
L 688.375529 -301.436421 
L 688.600649 -301.721946 
L 688.794221 -302.007472 
L 690.405779 -302.007472 
L 690.405779 -302.007472 
L 690.599351 -301.721946 
L 690.824471 -301.436421 
L 691.082239 -301.150895 
L 691.372725 -300.865369 
L 691.694766 -300.579843 
L 692.045816 -300.294318 
L 692.421861 -300.008792 
L 692.817432 -299.723266 
L 693.225716 -299.437741 
L 693.638792 -299.152215 
L 694.047976 -298.866689 
L 694.444277 -298.581163 
L 694.818919 -298.295638 
L 695.163922 -298.010112 
L 695.472679 -297.724586 
L 695.740483 -297.43906 
L 695.964964 -297.153535 
L 696.146378 -296.868009 
L 696.287727 -296.582483 
L 696.394661 -296.296957 
L 696.475185 -296.011432 
L 696.539163 -295.725906 
L 696.597661 -295.44038 
L 696.662171 -295.154855 
L 696.743791 -294.869329 
L 696.852426 -294.583803 
L 696.996092 -294.298277 
L 697.180393 -294.012752 
L 697.408234 -293.727226 
L 697.679812 -293.4417 
L 697.992913 -293.156174 
L 698.343489 -292.870649 
L 698.726498 -292.585123 
L 699.136929 -292.299597 
L 699.570932 -292.014072 
L 700.026932 -291.728546 
L 700.506616 -291.44302 
L 701.015671 -291.157494 
L 701.564165 -290.871969 
L 702.166481 -290.586443 
L 702.840744 -290.300917 
L 703.607744 -290.015391 
L 704.489369 -289.729866 
L 705.506635 -289.44434 
L 706.677456 -289.158814 
L 708.014297 -288.873289 
L 709.52194 -288.587763 
L 711.195534 -288.302237 
L 713.019178 -288.016711 
L 714.965175 -287.731186 
L 716.99413 -287.44566 
L 719.055931 -287.160134 
L 721.09164 -286.874608 
L 723.036198 -286.589083 
L 724.821794 -286.303557 
L 726.381659 -286.018031 
L 727.654028 -285.732505 
L 728.585941 -285.44698 
L 729.136601 -285.161454 
L 729.28 -284.875928 
L 729.006606 -284.590403 
L 728.323968 -284.304877 
L 727.256189 -284.019351 
L 725.842328 -283.733825 
L 724.13386 -283.4483 
L 722.191414 -283.162774 
L 720.08106 -282.877248 
L 717.870449 -282.591722 
L 715.625078 -282.306197 
L 713.404981 -282.020671 
L 711.262022 -281.735145 
L 709.237975 -281.44962 
L 707.363433 -281.164094 
L 705.657569 -280.878568 
L 704.128663 -280.593042 
L 702.775279 -280.307517 
L 701.587922 -280.021991 
L 700.551002 -279.736465 
L 699.644912 -279.450939 
L 698.848056 -279.165414 
L 698.138677 -278.879888 
L 697.496389 -278.594362 
L 696.903328 -278.308836 
L 696.344915 -278.023311 
L 695.810222 -277.737785 
L 695.291985 -277.452259 
L 694.786334 -277.166734 
L 694.2923 -276.881208 
L 693.811186 -276.595682 
L 693.345879 -276.310156 
L 692.900171 -276.024631 
L 692.478139 -275.739105 
L 692.08363 -275.453579 
L 691.719866 -275.168053 
L 691.389183 -274.882528 
L 691.092899 -274.597002 
L 690.831292 -274.311476 
L 690.603662 -274.025951 
L 690.408471 -273.740425 
z
" id="m045f26e0e1" style="stroke:#484848;stroke-width:1.5;"/>
    </defs>
    <g clip-path="url(#p1e99c0fe7f)">
     <use style="fill:#dee9a4;stroke:#484848;stroke-width:1.5;" x="0" xlink:href="#m045f26e0e1" y="720"/>
    </g>
   </g>
   <g id="PolyCollection_6">
    <defs>
     <path d="M 789.776386 -257.816933 
L 787.823614 -257.816933 
L 787.600616 -258.605324 
L 787.342017 -259.393715 
L 787.045972 -260.182106 
L 786.711431 -260.970497 
L 786.338312 -261.758888 
L 785.927633 -262.547278 
L 785.481601 -263.335669 
L 785.003643 -264.12406 
L 784.498366 -264.912451 
L 783.971449 -265.700842 
L 783.429452 -266.489233 
L 782.87957 -267.277623 
L 782.329331 -268.066014 
L 781.786273 -268.854405 
L 781.257608 -269.642796 
L 780.749915 -270.431187 
L 780.268889 -271.219578 
L 779.819152 -272.007968 
L 779.40416 -272.796359 
L 779.026212 -273.58475 
L 778.686542 -274.373141 
L 778.385507 -275.161532 
L 778.122825 -275.949923 
L 777.897849 -276.738313 
L 777.709841 -277.526704 
L 777.558214 -278.315095 
L 777.442713 -279.103486 
L 777.363513 -279.891877 
L 777.32123 -280.680268 
L 777.316837 -281.468658 
L 777.351505 -282.257049 
L 777.426382 -283.04544 
L 777.542351 -283.833831 
L 777.699781 -284.622222 
L 777.89832 -285.410613 
L 778.136747 -286.199003 
L 778.412895 -286.987394 
L 778.723668 -287.775785 
L 779.065138 -288.564176 
L 779.432717 -289.352567 
L 779.821375 -290.140958 
L 780.225889 -290.929348 
L 780.64109 -291.717739 
L 781.062082 -292.50613 
L 781.484415 -293.294521 
L 781.904199 -294.082912 
L 782.318147 -294.871303 
L 782.723561 -295.659693 
L 783.118262 -296.448084 
L 783.500477 -297.236475 
L 783.868717 -298.024866 
L 784.22165 -298.813257 
L 784.557986 -299.601648 
L 784.876409 -300.390038 
L 785.175531 -301.178429 
L 785.453907 -301.96682 
L 785.710077 -302.755211 
L 785.942649 -303.543602 
L 786.150406 -304.331993 
L 786.332418 -305.120383 
L 786.488159 -305.908774 
L 786.617601 -306.697165 
L 786.721287 -307.485556 
L 786.800372 -308.273947 
L 786.856623 -309.062338 
L 786.89239 -309.850728 
L 786.910531 -310.639119 
L 786.914318 -311.42751 
L 786.907313 -312.215901 
L 786.89323 -313.004292 
L 786.875795 -313.792683 
L 786.8586 -314.581073 
L 786.844975 -315.369464 
L 786.83787 -316.157855 
L 786.839761 -316.946246 
L 786.852578 -317.734637 
L 786.877665 -318.523028 
L 786.915765 -319.311418 
L 786.967027 -320.099809 
L 787.031048 -320.8882 
L 787.106926 -321.676591 
L 787.193336 -322.464982 
L 787.288618 -323.253373 
L 787.390872 -324.041763 
L 787.498051 -324.830154 
L 787.608064 -325.618545 
L 787.718856 -326.406936 
L 787.828493 -327.195327 
L 787.935221 -327.983717 
L 788.037521 -328.772108 
L 788.13414 -329.560499 
L 788.224106 -330.34889 
L 788.306738 -331.137281 
L 788.381628 -331.925672 
L 788.448625 -332.714062 
L 788.507802 -333.502453 
L 788.55942 -334.290844 
L 788.603893 -335.079235 
L 788.641745 -335.867626 
L 788.958255 -335.867626 
L 788.958255 -335.867626 
L 788.996107 -335.079235 
L 789.04058 -334.290844 
L 789.092198 -333.502453 
L 789.151375 -332.714062 
L 789.218372 -331.925672 
L 789.293262 -331.137281 
L 789.375894 -330.34889 
L 789.46586 -329.560499 
L 789.562479 -328.772108 
L 789.664779 -327.983717 
L 789.771507 -327.195327 
L 789.881144 -326.406936 
L 789.991936 -325.618545 
L 790.101949 -324.830154 
L 790.209128 -324.041763 
L 790.311382 -323.253373 
L 790.406664 -322.464982 
L 790.493074 -321.676591 
L 790.568952 -320.8882 
L 790.632973 -320.099809 
L 790.684235 -319.311418 
L 790.722335 -318.523028 
L 790.747422 -317.734637 
L 790.760239 -316.946246 
L 790.76213 -316.157855 
L 790.755025 -315.369464 
L 790.7414 -314.581073 
L 790.724205 -313.792683 
L 790.70677 -313.004292 
L 790.692687 -312.215901 
L 790.685682 -311.42751 
L 790.689469 -310.639119 
L 790.70761 -309.850728 
L 790.743377 -309.062338 
L 790.799628 -308.273947 
L 790.878713 -307.485556 
L 790.982399 -306.697165 
L 791.111841 -305.908774 
L 791.267582 -305.120383 
L 791.449594 -304.331993 
L 791.657351 -303.543602 
L 791.889923 -302.755211 
L 792.146093 -301.96682 
L 792.424469 -301.178429 
L 792.723591 -300.390038 
L 793.042014 -299.601648 
L 793.37835 -298.813257 
L 793.731283 -298.024866 
L 794.099523 -297.236475 
L 794.481738 -296.448084 
L 794.876439 -295.659693 
L 795.281853 -294.871303 
L 795.695801 -294.082912 
L 796.115585 -293.294521 
L 796.537918 -292.50613 
L 796.95891 -291.717739 
L 797.374111 -290.929348 
L 797.778625 -290.140958 
L 798.167283 -289.352567 
L 798.534862 -288.564176 
L 798.876332 -287.775785 
L 799.187105 -286.987394 
L 799.463253 -286.199003 
L 799.70168 -285.410613 
L 799.900219 -284.622222 
L 800.057649 -283.833831 
L 800.173618 -283.04544 
L 800.248495 -282.257049 
L 800.283163 -281.468658 
L 800.27877 -280.680268 
L 800.236487 -279.891877 
L 800.157287 -279.103486 
L 800.041786 -278.315095 
L 799.890159 -277.526704 
L 799.702151 -276.738313 
L 799.477175 -275.949923 
L 799.214493 -275.161532 
L 798.913458 -274.373141 
L 798.573788 -273.58475 
L 798.19584 -272.796359 
L 797.780848 -272.007968 
L 797.331111 -271.219578 
L 796.850085 -270.431187 
L 796.342392 -269.642796 
L 795.813727 -268.854405 
L 795.270669 -268.066014 
L 794.72043 -267.277623 
L 794.170548 -266.489233 
L 793.628551 -265.700842 
L 793.101634 -264.912451 
L 792.596357 -264.12406 
L 792.118399 -263.335669 
L 791.672367 -262.547278 
L 791.261688 -261.758888 
L 790.888569 -260.970497 
L 790.554028 -260.182106 
L 790.257983 -259.393715 
L 789.999384 -258.605324 
L 789.776386 -257.816933 
z
" id="mf30e6b2efe" style="stroke:#484848;stroke-width:1.5;"/>
    </defs>
    <g clip-path="url(#p1e99c0fe7f)">
     <use style="fill:#afd5ab;stroke:#484848;stroke-width:1.5;" x="0" xlink:href="#mf30e6b2efe" y="720"/>
    </g>
   </g>
   <g id="matplotlib.axis_1">
    <g id="xtick_1">
     <g id="line2d_1">
      <defs>
       <path d="M 0 0 
L 0 3.5 
" id="m93e2a6e6f6" style="stroke:#000000;stroke-width:0.8;"/>
      </defs>
      <g>
       <use style="stroke:#000000;stroke-width:0.8;" x="193.6" xlink:href="#m93e2a6e6f6" y="640.8"/>
      </g>
     </g>
     <g id="text_1">
      <!-- Player1_healthy -->
      <g transform="translate(153.572656 655.398438)scale(0.1 -0.1)">
       <defs>
        <path d="M 1259 4147 
L 1259 2394 
L 2053 2394 
Q 2494 2394 2734 2622 
Q 2975 2850 2975 3272 
Q 2975 3691 2734 3919 
Q 2494 4147 2053 4147 
L 1259 4147 
z
M 628 4666 
L 2053 4666 
Q 2838 4666 3239 4311 
Q 3641 3956 3641 3272 
Q 3641 2581 3239 2228 
Q 2838 1875 2053 1875 
L 1259 1875 
L 1259 0 
L 628 0 
L 628 4666 
z
" id="DejaVuSans-50" transform="scale(0.015625)"/>
        <path d="M 603 4863 
L 1178 4863 
L 1178 0 
L 603 0 
L 603 4863 
z
" id="DejaVuSans-6c" transform="scale(0.015625)"/>
        <path d="M 2194 1759 
Q 1497 1759 1228 1600 
Q 959 1441 959 1056 
Q 959 750 1161 570 
Q 1363 391 1709 391 
Q 2188 391 2477 730 
Q 2766 1069 2766 1631 
L 2766 1759 
L 2194 1759 
z
M 3341 1997 
L 3341 0 
L 2766 0 
L 2766 531 
Q 2569 213 2275 61 
Q 1981 -91 1556 -91 
Q 1019 -91 701 211 
Q 384 513 384 1019 
Q 384 1609 779 1909 
Q 1175 2209 1959 2209 
L 2766 2209 
L 2766 2266 
Q 2766 2663 2505 2880 
Q 2244 3097 1772 3097 
Q 1472 3097 1187 3025 
Q 903 2953 641 2809 
L 641 3341 
Q 956 3463 1253 3523 
Q 1550 3584 1831 3584 
Q 2591 3584 2966 3190 
Q 3341 2797 3341 1997 
z
" id="DejaVuSans-61" transform="scale(0.015625)"/>
        <path d="M 2059 -325 
Q 1816 -950 1584 -1140 
Q 1353 -1331 966 -1331 
L 506 -1331 
L 506 -850 
L 844 -850 
Q 1081 -850 1212 -737 
Q 1344 -625 1503 -206 
L 1606 56 
L 191 3500 
L 800 3500 
L 1894 763 
L 2988 3500 
L 3597 3500 
L 2059 -325 
z
" id="DejaVuSans-79" transform="scale(0.015625)"/>
        <path d="M 3597 1894 
L 3597 1613 
L 953 1613 
Q 991 1019 1311 708 
Q 1631 397 2203 397 
Q 2534 397 2845 478 
Q 3156 559 3463 722 
L 3463 178 
Q 3153 47 2828 -22 
Q 2503 -91 2169 -91 
Q 1331 -91 842 396 
Q 353 884 353 1716 
Q 353 2575 817 3079 
Q 1281 3584 2069 3584 
Q 2775 3584 3186 3129 
Q 3597 2675 3597 1894 
z
M 3022 2063 
Q 3016 2534 2758 2815 
Q 2500 3097 2075 3097 
Q 1594 3097 1305 2825 
Q 1016 2553 972 2059 
L 3022 2063 
z
" id="DejaVuSans-65" transform="scale(0.015625)"/>
        <path d="M 2631 2963 
Q 2534 3019 2420 3045 
Q 2306 3072 2169 3072 
Q 1681 3072 1420 2755 
Q 1159 2438 1159 1844 
L 1159 0 
L 581 0 
L 581 3500 
L 1159 3500 
L 1159 2956 
Q 1341 3275 1631 3429 
Q 1922 3584 2338 3584 
Q 2397 3584 2469 3576 
Q 2541 3569 2628 3553 
L 2631 2963 
z
" id="DejaVuSans-72" transform="scale(0.015625)"/>
        <path d="M 794 531 
L 1825 531 
L 1825 4091 
L 703 3866 
L 703 4441 
L 1819 4666 
L 2450 4666 
L 2450 531 
L 3481 531 
L 3481 0 
L 794 0 
L 794 531 
z
" id="DejaVuSans-31" transform="scale(0.015625)"/>
        <path d="M 3263 -1063 
L 3263 -1509 
L -63 -1509 
L -63 -1063 
L 3263 -1063 
z
" id="DejaVuSans-5f" transform="scale(0.015625)"/>
        <path d="M 3513 2113 
L 3513 0 
L 2938 0 
L 2938 2094 
Q 2938 2591 2744 2837 
Q 2550 3084 2163 3084 
Q 1697 3084 1428 2787 
Q 1159 2491 1159 1978 
L 1159 0 
L 581 0 
L 581 4863 
L 1159 4863 
L 1159 2956 
Q 1366 3272 1645 3428 
Q 1925 3584 2291 3584 
Q 2894 3584 3203 3211 
Q 3513 2838 3513 2113 
z
" id="DejaVuSans-68" transform="scale(0.015625)"/>
        <path d="M 1172 4494 
L 1172 3500 
L 2356 3500 
L 2356 3053 
L 1172 3053 
L 1172 1153 
Q 1172 725 1289 603 
Q 1406 481 1766 481 
L 2356 481 
L 2356 0 
L 1766 0 
Q 1100 0 847 248 
Q 594 497 594 1153 
L 594 3053 
L 172 3053 
L 172 3500 
L 594 3500 
L 594 4494 
L 1172 4494 
z
" id="DejaVuSans-74" transform="scale(0.015625)"/>
       </defs>
       <use xlink:href="#DejaVuSans-50"/>
       <use x="60.302734" xlink:href="#DejaVuSans-6c"/>
       <use x="88.085938" xlink:href="#DejaVuSans-61"/>
       <use x="149.365234" xlink:href="#DejaVuSans-79"/>
       <use x="208.544922" xlink:href="#DejaVuSans-65"/>
       <use x="270.068359" xlink:href="#DejaVuSans-72"/>
       <use x="311.181641" xlink:href="#DejaVuSans-31"/>
       <use x="374.804688" xlink:href="#DejaVuSans-5f"/>
       <use x="424.804688" xlink:href="#DejaVuSans-68"/>
       <use x="488.183594" xlink:href="#DejaVuSans-65"/>
       <use x="549.707031" xlink:href="#DejaVuSans-61"/>
       <use x="610.986328" xlink:href="#DejaVuSans-6c"/>
       <use x="638.769531" xlink:href="#DejaVuSans-74"/>
       <use x="677.978516" xlink:href="#DejaVuSans-68"/>
       <use x="741.357422" xlink:href="#DejaVuSans-79"/>
      </g>
     </g>
    </g>
    <g id="xtick_2">
     <g id="line2d_2">
      <g>
       <use style="stroke:#000000;stroke-width:0.8;" x="292.8" xlink:href="#m93e2a6e6f6" y="640.8"/>
      </g>
     </g>
     <g id="text_2">
      <!-- biased_A -->
      <g transform="translate(270.396875 655.398438)scale(0.1 -0.1)">
       <defs>
        <path d="M 3116 1747 
Q 3116 2381 2855 2742 
Q 2594 3103 2138 3103 
Q 1681 3103 1420 2742 
Q 1159 2381 1159 1747 
Q 1159 1113 1420 752 
Q 1681 391 2138 391 
Q 2594 391 2855 752 
Q 3116 1113 3116 1747 
z
M 1159 2969 
Q 1341 3281 1617 3432 
Q 1894 3584 2278 3584 
Q 2916 3584 3314 3078 
Q 3713 2572 3713 1747 
Q 3713 922 3314 415 
Q 2916 -91 2278 -91 
Q 1894 -91 1617 61 
Q 1341 213 1159 525 
L 1159 0 
L 581 0 
L 581 4863 
L 1159 4863 
L 1159 2969 
z
" id="DejaVuSans-62" transform="scale(0.015625)"/>
        <path d="M 603 3500 
L 1178 3500 
L 1178 0 
L 603 0 
L 603 3500 
z
M 603 4863 
L 1178 4863 
L 1178 4134 
L 603 4134 
L 603 4863 
z
" id="DejaVuSans-69" transform="scale(0.015625)"/>
        <path d="M 2834 3397 
L 2834 2853 
Q 2591 2978 2328 3040 
Q 2066 3103 1784 3103 
Q 1356 3103 1142 2972 
Q 928 2841 928 2578 
Q 928 2378 1081 2264 
Q 1234 2150 1697 2047 
L 1894 2003 
Q 2506 1872 2764 1633 
Q 3022 1394 3022 966 
Q 3022 478 2636 193 
Q 2250 -91 1575 -91 
Q 1294 -91 989 -36 
Q 684 19 347 128 
L 347 722 
Q 666 556 975 473 
Q 1284 391 1588 391 
Q 1994 391 2212 530 
Q 2431 669 2431 922 
Q 2431 1156 2273 1281 
Q 2116 1406 1581 1522 
L 1381 1569 
Q 847 1681 609 1914 
Q 372 2147 372 2553 
Q 372 3047 722 3315 
Q 1072 3584 1716 3584 
Q 2034 3584 2315 3537 
Q 2597 3491 2834 3397 
z
" id="DejaVuSans-73" transform="scale(0.015625)"/>
        <path d="M 2906 2969 
L 2906 4863 
L 3481 4863 
L 3481 0 
L 2906 0 
L 2906 525 
Q 2725 213 2448 61 
Q 2172 -91 1784 -91 
Q 1150 -91 751 415 
Q 353 922 353 1747 
Q 353 2572 751 3078 
Q 1150 3584 1784 3584 
Q 2172 3584 2448 3432 
Q 2725 3281 2906 2969 
z
M 947 1747 
Q 947 1113 1208 752 
Q 1469 391 1925 391 
Q 2381 391 2643 752 
Q 2906 1113 2906 1747 
Q 2906 2381 2643 2742 
Q 2381 3103 1925 3103 
Q 1469 3103 1208 2742 
Q 947 2381 947 1747 
z
" id="DejaVuSans-64" transform="scale(0.015625)"/>
        <path d="M 2188 4044 
L 1331 1722 
L 3047 1722 
L 2188 4044 
z
M 1831 4666 
L 2547 4666 
L 4325 0 
L 3669 0 
L 3244 1197 
L 1141 1197 
L 716 0 
L 50 0 
L 1831 4666 
z
" id="DejaVuSans-41" transform="scale(0.015625)"/>
       </defs>
       <use xlink:href="#DejaVuSans-62"/>
       <use x="63.476562" xlink:href="#DejaVuSans-69"/>
       <use x="91.259766" xlink:href="#DejaVuSans-61"/>
       <use x="152.539062" xlink:href="#DejaVuSans-73"/>
       <use x="204.638672" xlink:href="#DejaVuSans-65"/>
       <use x="266.162109" xlink:href="#DejaVuSans-64"/>
       <use x="329.638672" xlink:href="#DejaVuSans-5f"/>
       <use x="379.638672" xlink:href="#DejaVuSans-41"/>
      </g>
     </g>
    </g>
    <g id="xtick_3">
     <g id="line2d_3">
      <g>
       <use style="stroke:#000000;stroke-width:0.8;" x="392" xlink:href="#m93e2a6e6f6" y="640.8"/>
      </g>
     </g>
     <g id="text_3">
      <!-- biased_B -->
      <g transform="translate(369.586719 655.398438)scale(0.1 -0.1)">
       <defs>
        <path d="M 1259 2228 
L 1259 519 
L 2272 519 
Q 2781 519 3026 730 
Q 3272 941 3272 1375 
Q 3272 1813 3026 2020 
Q 2781 2228 2272 2228 
L 1259 2228 
z
M 1259 4147 
L 1259 2741 
L 2194 2741 
Q 2656 2741 2882 2914 
Q 3109 3088 3109 3444 
Q 3109 3797 2882 3972 
Q 2656 4147 2194 4147 
L 1259 4147 
z
M 628 4666 
L 2241 4666 
Q 2963 4666 3353 4366 
Q 3744 4066 3744 3513 
Q 3744 3084 3544 2831 
Q 3344 2578 2956 2516 
Q 3422 2416 3680 2098 
Q 3938 1781 3938 1306 
Q 3938 681 3513 340 
Q 3088 0 2303 0 
L 628 0 
L 628 4666 
z
" id="DejaVuSans-42" transform="scale(0.015625)"/>
       </defs>
       <use xlink:href="#DejaVuSans-62"/>
       <use x="63.476562" xlink:href="#DejaVuSans-69"/>
       <use x="91.259766" xlink:href="#DejaVuSans-61"/>
       <use x="152.539062" xlink:href="#DejaVuSans-73"/>
       <use x="204.638672" xlink:href="#DejaVuSans-65"/>
       <use x="266.162109" xlink:href="#DejaVuSans-64"/>
       <use x="329.638672" xlink:href="#DejaVuSans-5f"/>
       <use x="379.638672" xlink:href="#DejaVuSans-42"/>
      </g>
     </g>
    </g>
    <g id="xtick_4">
     <g id="line2d_4">
      <g>
       <use style="stroke:#000000;stroke-width:0.8;" x="491.2" xlink:href="#m93e2a6e6f6" y="640.8"/>
      </g>
     </g>
     <g id="text_4">
      <!-- biased_C -->
      <g transform="translate(468.725781 655.398438)scale(0.1 -0.1)">
       <defs>
        <path d="M 4122 4306 
L 4122 3641 
Q 3803 3938 3442 4084 
Q 3081 4231 2675 4231 
Q 1875 4231 1450 3742 
Q 1025 3253 1025 2328 
Q 1025 1406 1450 917 
Q 1875 428 2675 428 
Q 3081 428 3442 575 
Q 3803 722 4122 1019 
L 4122 359 
Q 3791 134 3420 21 
Q 3050 -91 2638 -91 
Q 1578 -91 968 557 
Q 359 1206 359 2328 
Q 359 3453 968 4101 
Q 1578 4750 2638 4750 
Q 3056 4750 3426 4639 
Q 3797 4528 4122 4306 
z
" id="DejaVuSans-43" transform="scale(0.015625)"/>
       </defs>
       <use xlink:href="#DejaVuSans-62"/>
       <use x="63.476562" xlink:href="#DejaVuSans-69"/>
       <use x="91.259766" xlink:href="#DejaVuSans-61"/>
       <use x="152.539062" xlink:href="#DejaVuSans-73"/>
       <use x="204.638672" xlink:href="#DejaVuSans-65"/>
       <use x="266.162109" xlink:href="#DejaVuSans-64"/>
       <use x="329.638672" xlink:href="#DejaVuSans-5f"/>
       <use x="379.638672" xlink:href="#DejaVuSans-43"/>
      </g>
     </g>
    </g>
    <g id="xtick_5">
     <g id="line2d_5">
      <g>
       <use style="stroke:#000000;stroke-width:0.8;" x="590.4" xlink:href="#m93e2a6e6f6" y="640.8"/>
      </g>
     </g>
     <g id="text_5">
      <!-- biased_D -->
      <g transform="translate(567.567187 655.398438)scale(0.1 -0.1)">
       <defs>
        <path d="M 1259 4147 
L 1259 519 
L 2022 519 
Q 2988 519 3436 956 
Q 3884 1394 3884 2338 
Q 3884 3275 3436 3711 
Q 2988 4147 2022 4147 
L 1259 4147 
z
M 628 4666 
L 1925 4666 
Q 3281 4666 3915 4102 
Q 4550 3538 4550 2338 
Q 4550 1131 3912 565 
Q 3275 0 1925 0 
L 628 0 
L 628 4666 
z
" id="DejaVuSans-44" transform="scale(0.015625)"/>
       </defs>
       <use xlink:href="#DejaVuSans-62"/>
       <use x="63.476562" xlink:href="#DejaVuSans-69"/>
       <use x="91.259766" xlink:href="#DejaVuSans-61"/>
       <use x="152.539062" xlink:href="#DejaVuSans-73"/>
       <use x="204.638672" xlink:href="#DejaVuSans-65"/>
       <use x="266.162109" xlink:href="#DejaVuSans-64"/>
       <use x="329.638672" xlink:href="#DejaVuSans-5f"/>
       <use x="379.638672" xlink:href="#DejaVuSans-44"/>
      </g>
     </g>
    </g>
    <g id="xtick_6">
     <g id="line2d_6">
      <g>
       <use style="stroke:#000000;stroke-width:0.8;" x="689.6" xlink:href="#m93e2a6e6f6" y="640.8"/>
      </g>
     </g>
     <g id="text_6">
      <!-- Type1_depressed -->
      <g transform="translate(646.53125 655.398438)scale(0.1 -0.1)">
       <defs>
        <path d="M -19 4666 
L 3928 4666 
L 3928 4134 
L 2272 4134 
L 2272 0 
L 1638 0 
L 1638 4134 
L -19 4134 
L -19 4666 
z
" id="DejaVuSans-54" transform="scale(0.015625)"/>
        <path d="M 1159 525 
L 1159 -1331 
L 581 -1331 
L 581 3500 
L 1159 3500 
L 1159 2969 
Q 1341 3281 1617 3432 
Q 1894 3584 2278 3584 
Q 2916 3584 3314 3078 
Q 3713 2572 3713 1747 
Q 3713 922 3314 415 
Q 2916 -91 2278 -91 
Q 1894 -91 1617 61 
Q 1341 213 1159 525 
z
M 3116 1747 
Q 3116 2381 2855 2742 
Q 2594 3103 2138 3103 
Q 1681 3103 1420 2742 
Q 1159 2381 1159 1747 
Q 1159 1113 1420 752 
Q 1681 391 2138 391 
Q 2594 391 2855 752 
Q 3116 1113 3116 1747 
z
" id="DejaVuSans-70" transform="scale(0.015625)"/>
       </defs>
       <use xlink:href="#DejaVuSans-54"/>
       <use x="45.458984" xlink:href="#DejaVuSans-79"/>
       <use x="104.638672" xlink:href="#DejaVuSans-70"/>
       <use x="168.115234" xlink:href="#DejaVuSans-65"/>
       <use x="229.638672" xlink:href="#DejaVuSans-31"/>
       <use x="293.261719" xlink:href="#DejaVuSans-5f"/>
       <use x="343.261719" xlink:href="#DejaVuSans-64"/>
       <use x="406.738281" xlink:href="#DejaVuSans-65"/>
       <use x="468.261719" xlink:href="#DejaVuSans-70"/>
       <use x="531.738281" xlink:href="#DejaVuSans-72"/>
       <use x="570.601562" xlink:href="#DejaVuSans-65"/>
       <use x="632.125" xlink:href="#DejaVuSans-73"/>
       <use x="684.224609" xlink:href="#DejaVuSans-73"/>
       <use x="736.324219" xlink:href="#DejaVuSans-65"/>
       <use x="797.847656" xlink:href="#DejaVuSans-64"/>
      </g>
     </g>
    </g>
    <g id="xtick_7">
     <g id="line2d_7">
      <g>
       <use style="stroke:#000000;stroke-width:0.8;" x="788.8" xlink:href="#m93e2a6e6f6" y="640.8"/>
      </g>
     </g>
     <g id="text_7">
      <!-- Type2_depressed -->
      <g transform="translate(745.73125 655.398438)scale(0.1 -0.1)">
       <defs>
        <path d="M 1228 531 
L 3431 531 
L 3431 0 
L 469 0 
L 469 531 
Q 828 903 1448 1529 
Q 2069 2156 2228 2338 
Q 2531 2678 2651 2914 
Q 2772 3150 2772 3378 
Q 2772 3750 2511 3984 
Q 2250 4219 1831 4219 
Q 1534 4219 1204 4116 
Q 875 4013 500 3803 
L 500 4441 
Q 881 4594 1212 4672 
Q 1544 4750 1819 4750 
Q 2544 4750 2975 4387 
Q 3406 4025 3406 3419 
Q 3406 3131 3298 2873 
Q 3191 2616 2906 2266 
Q 2828 2175 2409 1742 
Q 1991 1309 1228 531 
z
" id="DejaVuSans-32" transform="scale(0.015625)"/>
       </defs>
       <use xlink:href="#DejaVuSans-54"/>
       <use x="45.458984" xlink:href="#DejaVuSans-79"/>
       <use x="104.638672" xlink:href="#DejaVuSans-70"/>
       <use x="168.115234" xlink:href="#DejaVuSans-65"/>
       <use x="229.638672" xlink:href="#DejaVuSans-32"/>
       <use x="293.261719" xlink:href="#DejaVuSans-5f"/>
       <use x="343.261719" xlink:href="#DejaVuSans-64"/>
       <use x="406.738281" xlink:href="#DejaVuSans-65"/>
       <use x="468.261719" xlink:href="#DejaVuSans-70"/>
       <use x="531.738281" xlink:href="#DejaVuSans-72"/>
       <use x="570.601562" xlink:href="#DejaVuSans-65"/>
       <use x="632.125" xlink:href="#DejaVuSans-73"/>
       <use x="684.224609" xlink:href="#DejaVuSans-73"/>
       <use x="736.324219" xlink:href="#DejaVuSans-65"/>
       <use x="797.847656" xlink:href="#DejaVuSans-64"/>
      </g>
     </g>
    </g>
    <g id="xtick_8">
     <g id="line2d_8">
      <g>
       <use style="stroke:#000000;stroke-width:0.8;" x="888" xlink:href="#m93e2a6e6f6" y="640.8"/>
      </g>
     </g>
     <g id="text_8">
      <!-- Type1_social_phobia -->
      <g transform="translate(837.050781 655.398438)scale(0.1 -0.1)">
       <defs>
        <path d="M 1959 3097 
Q 1497 3097 1228 2736 
Q 959 2375 959 1747 
Q 959 1119 1226 758 
Q 1494 397 1959 397 
Q 2419 397 2687 759 
Q 2956 1122 2956 1747 
Q 2956 2369 2687 2733 
Q 2419 3097 1959 3097 
z
M 1959 3584 
Q 2709 3584 3137 3096 
Q 3566 2609 3566 1747 
Q 3566 888 3137 398 
Q 2709 -91 1959 -91 
Q 1206 -91 779 398 
Q 353 888 353 1747 
Q 353 2609 779 3096 
Q 1206 3584 1959 3584 
z
" id="DejaVuSans-6f" transform="scale(0.015625)"/>
        <path d="M 3122 3366 
L 3122 2828 
Q 2878 2963 2633 3030 
Q 2388 3097 2138 3097 
Q 1578 3097 1268 2742 
Q 959 2388 959 1747 
Q 959 1106 1268 751 
Q 1578 397 2138 397 
Q 2388 397 2633 464 
Q 2878 531 3122 666 
L 3122 134 
Q 2881 22 2623 -34 
Q 2366 -91 2075 -91 
Q 1284 -91 818 406 
Q 353 903 353 1747 
Q 353 2603 823 3093 
Q 1294 3584 2113 3584 
Q 2378 3584 2631 3529 
Q 2884 3475 3122 3366 
z
" id="DejaVuSans-63" transform="scale(0.015625)"/>
       </defs>
       <use xlink:href="#DejaVuSans-54"/>
       <use x="45.458984" xlink:href="#DejaVuSans-79"/>
       <use x="104.638672" xlink:href="#DejaVuSans-70"/>
       <use x="168.115234" xlink:href="#DejaVuSans-65"/>
       <use x="229.638672" xlink:href="#DejaVuSans-31"/>
       <use x="293.261719" xlink:href="#DejaVuSans-5f"/>
       <use x="343.261719" xlink:href="#DejaVuSans-73"/>
       <use x="395.361328" xlink:href="#DejaVuSans-6f"/>
       <use x="456.542969" xlink:href="#DejaVuSans-63"/>
       <use x="511.523438" xlink:href="#DejaVuSans-69"/>
       <use x="539.306641" xlink:href="#DejaVuSans-61"/>
       <use x="600.585938" xlink:href="#DejaVuSans-6c"/>
       <use x="628.369141" xlink:href="#DejaVuSans-5f"/>
       <use x="678.369141" xlink:href="#DejaVuSans-70"/>
       <use x="741.845703" xlink:href="#DejaVuSans-68"/>
       <use x="805.224609" xlink:href="#DejaVuSans-6f"/>
       <use x="866.40625" xlink:href="#DejaVuSans-62"/>
       <use x="929.882812" xlink:href="#DejaVuSans-69"/>
       <use x="957.666016" xlink:href="#DejaVuSans-61"/>
      </g>
     </g>
    </g>
    <g id="xtick_9">
     <g id="line2d_9">
      <g>
       <use style="stroke:#000000;stroke-width:0.8;" x="987.2" xlink:href="#m93e2a6e6f6" y="640.8"/>
      </g>
     </g>
     <g id="text_9">
      <!-- Type2_social_phobia -->
      <g transform="translate(936.250781 655.398438)scale(0.1 -0.1)">
       <use xlink:href="#DejaVuSans-54"/>
       <use x="45.458984" xlink:href="#DejaVuSans-79"/>
       <use x="104.638672" xlink:href="#DejaVuSans-70"/>
       <use x="168.115234" xlink:href="#DejaVuSans-65"/>
       <use x="229.638672" xlink:href="#DejaVuSans-32"/>
       <use x="293.261719" xlink:href="#DejaVuSans-5f"/>
       <use x="343.261719" xlink:href="#DejaVuSans-73"/>
       <use x="395.361328" xlink:href="#DejaVuSans-6f"/>
       <use x="456.542969" xlink:href="#DejaVuSans-63"/>
       <use x="511.523438" xlink:href="#DejaVuSans-69"/>
       <use x="539.306641" xlink:href="#DejaVuSans-61"/>
       <use x="600.585938" xlink:href="#DejaVuSans-6c"/>
       <use x="628.369141" xlink:href="#DejaVuSans-5f"/>
       <use x="678.369141" xlink:href="#DejaVuSans-70"/>
       <use x="741.845703" xlink:href="#DejaVuSans-68"/>
       <use x="805.224609" xlink:href="#DejaVuSans-6f"/>
       <use x="866.40625" xlink:href="#DejaVuSans-62"/>
       <use x="929.882812" xlink:href="#DejaVuSans-69"/>
       <use x="957.666016" xlink:href="#DejaVuSans-61"/>
      </g>
     </g>
    </g>
   </g>
   <g id="matplotlib.axis_2">
    <g id="ytick_1">
     <g id="line2d_10">
      <defs>
       <path d="M 0 0 
L -3.5 0 
" id="md82a2df191" style="stroke:#000000;stroke-width:0.8;"/>
      </defs>
      <g>
       <use style="stroke:#000000;stroke-width:0.8;" x="144" xlink:href="#md82a2df191" y="536.756582"/>
      </g>
     </g>
     <g id="text_10">
      <!-- 10 -->
      <g transform="translate(124.275 540.555801)scale(0.1 -0.1)">
       <defs>
        <path d="M 2034 4250 
Q 1547 4250 1301 3770 
Q 1056 3291 1056 2328 
Q 1056 1369 1301 889 
Q 1547 409 2034 409 
Q 2525 409 2770 889 
Q 3016 1369 3016 2328 
Q 3016 3291 2770 3770 
Q 2525 4250 2034 4250 
z
M 2034 4750 
Q 2819 4750 3233 4129 
Q 3647 3509 3647 2328 
Q 3647 1150 3233 529 
Q 2819 -91 2034 -91 
Q 1250 -91 836 529 
Q 422 1150 422 2328 
Q 422 3509 836 4129 
Q 1250 4750 2034 4750 
z
" id="DejaVuSans-30" transform="scale(0.015625)"/>
       </defs>
       <use xlink:href="#DejaVuSans-31"/>
       <use x="63.623047" xlink:href="#DejaVuSans-30"/>
      </g>
     </g>
    </g>
    <g id="ytick_2">
     <g id="line2d_11">
      <g>
       <use style="stroke:#000000;stroke-width:0.8;" x="144" xlink:href="#md82a2df191" y="417.178833"/>
      </g>
     </g>
     <g id="text_11">
      <!-- 20 -->
      <g transform="translate(124.275 420.978052)scale(0.1 -0.1)">
       <use xlink:href="#DejaVuSans-32"/>
       <use x="63.623047" xlink:href="#DejaVuSans-30"/>
      </g>
     </g>
    </g>
    <g id="ytick_3">
     <g id="line2d_12">
      <g>
       <use style="stroke:#000000;stroke-width:0.8;" x="144" xlink:href="#md82a2df191" y="297.601084"/>
      </g>
     </g>
     <g id="text_12">
      <!-- 30 -->
      <g transform="translate(124.275 301.400303)scale(0.1 -0.1)">
       <defs>
        <path d="M 2597 2516 
Q 3050 2419 3304 2112 
Q 3559 1806 3559 1356 
Q 3559 666 3084 287 
Q 2609 -91 1734 -91 
Q 1441 -91 1130 -33 
Q 819 25 488 141 
L 488 750 
Q 750 597 1062 519 
Q 1375 441 1716 441 
Q 2309 441 2620 675 
Q 2931 909 2931 1356 
Q 2931 1769 2642 2001 
Q 2353 2234 1838 2234 
L 1294 2234 
L 1294 2753 
L 1863 2753 
Q 2328 2753 2575 2939 
Q 2822 3125 2822 3475 
Q 2822 3834 2567 4026 
Q 2313 4219 1838 4219 
Q 1578 4219 1281 4162 
Q 984 4106 628 3988 
L 628 4550 
Q 988 4650 1302 4700 
Q 1616 4750 1894 4750 
Q 2613 4750 3031 4423 
Q 3450 4097 3450 3541 
Q 3450 3153 3228 2886 
Q 3006 2619 2597 2516 
z
" id="DejaVuSans-33" transform="scale(0.015625)"/>
       </defs>
       <use xlink:href="#DejaVuSans-33"/>
       <use x="63.623047" xlink:href="#DejaVuSans-30"/>
      </g>
     </g>
    </g>
    <g id="ytick_4">
     <g id="line2d_13">
      <g>
       <use style="stroke:#000000;stroke-width:0.8;" x="144" xlink:href="#md82a2df191" y="178.023335"/>
      </g>
     </g>
     <g id="text_13">
      <!-- 40 -->
      <g transform="translate(124.275 181.822554)scale(0.1 -0.1)">
       <defs>
        <path d="M 2419 4116 
L 825 1625 
L 2419 1625 
L 2419 4116 
z
M 2253 4666 
L 3047 4666 
L 3047 1625 
L 3713 1625 
L 3713 1100 
L 3047 1100 
L 3047 0 
L 2419 0 
L 2419 1100 
L 313 1100 
L 313 1709 
L 2253 4666 
z
" id="DejaVuSans-34" transform="scale(0.015625)"/>
       </defs>
       <use xlink:href="#DejaVuSans-34"/>
       <use x="63.623047" xlink:href="#DejaVuSans-30"/>
      </g>
     </g>
    </g>
   </g>
   <g id="line2d_14">
    <path clip-path="url(#p1e99c0fe7f)" d="M 193.6 351.411071 
L 193.6 213.89666 
" style="fill:none;stroke:#484848;stroke-linecap:square;stroke-width:1.5;"/>
   </g>
   <g id="line2d_15">
    <path clip-path="url(#p1e99c0fe7f)" d="M 193.6 327.495521 
L 193.6 248.275262 
" style="fill:none;stroke:#484848;stroke-linecap:square;stroke-width:4.5;"/>
   </g>
   <g id="line2d_16">
    <path clip-path="url(#p1e99c0fe7f)" d="M 292.8 512.841032 
L 292.8 243.791097 
" style="fill:none;stroke:#484848;stroke-linecap:square;stroke-width:1.5;"/>
   </g>
   <g id="line2d_17">
    <path clip-path="url(#p1e99c0fe7f)" d="M 292.8 500.883257 
L 292.8 396.252727 
" style="fill:none;stroke:#484848;stroke-linecap:square;stroke-width:4.5;"/>
   </g>
   <g id="line2d_18">
    <path clip-path="url(#p1e99c0fe7f)" d="M 392 447.07327 
L 392 189.98111 
" style="fill:none;stroke:#484848;stroke-linecap:square;stroke-width:1.5;"/>
   </g>
   <g id="line2d_19">
    <path clip-path="url(#p1e99c0fe7f)" d="M 392 339.453296 
L 392 258.738315 
" style="fill:none;stroke:#484848;stroke-linecap:square;stroke-width:4.5;"/>
   </g>
   <g id="line2d_20">
    <path clip-path="url(#p1e99c0fe7f)" d="M 451.52 417.178833 
L 530.88 417.178833 
" style="fill:none;stroke:#484848;stroke-linecap:square;stroke-width:1.5;"/>
   </g>
   <g id="line2d_21">
    <path clip-path="url(#p1e99c0fe7f)" d="M 590.4 500.883257 
L 590.4 225.854434 
" style="fill:none;stroke:#484848;stroke-linecap:square;stroke-width:1.5;"/>
   </g>
   <g id="line2d_22">
    <path clip-path="url(#p1e99c0fe7f)" d="M 590.4 373.831899 
L 590.4 276.674978 
" style="fill:none;stroke:#484848;stroke-linecap:square;stroke-width:4.5;"/>
   </g>
   <g id="line2d_23">
    <path clip-path="url(#p1e99c0fe7f)" d="M 689.6 435.115495 
L 689.6 435.115495 
" style="fill:none;stroke:#484848;stroke-linecap:square;stroke-width:1.5;"/>
   </g>
   <g id="line2d_24">
    <path clip-path="url(#p1e99c0fe7f)" d="M 689.6 435.115495 
L 689.6 433.620773 
" style="fill:none;stroke:#484848;stroke-linecap:square;stroke-width:4.5;"/>
   </g>
   <g id="line2d_25">
    <path clip-path="url(#p1e99c0fe7f)" d="M 788.8 447.07327 
L 788.8 423.15772 
" style="fill:none;stroke:#484848;stroke-linecap:square;stroke-width:1.5;"/>
   </g>
   <g id="line2d_26">
    <path clip-path="url(#p1e99c0fe7f)" d="M 788.8 447.07327 
L 788.8 432.126052 
" style="fill:none;stroke:#484848;stroke-linecap:square;stroke-width:4.5;"/>
   </g>
   <g id="line2d_27">
    <path clip-path="url(#p1e99c0fe7f)" d="M 848.32 417.178833 
L 927.68 417.178833 
" style="fill:none;stroke:#484848;stroke-linecap:square;stroke-width:1.5;"/>
   </g>
   <g id="line2d_28">
    <path clip-path="url(#p1e99c0fe7f)" d="M 947.52 417.178833 
L 1026.88 417.178833 
" style="fill:none;stroke:#484848;stroke-linecap:square;stroke-width:1.5;"/>
   </g>
   <g id="patch_3">
    <path d="M 144 640.8 
L 144 86.4 
" style="fill:none;stroke:#000000;stroke-linecap:square;stroke-linejoin:miter;stroke-width:0.8;"/>
   </g>
   <g id="patch_4">
    <path d="M 1036.8 640.8 
L 1036.8 86.4 
" style="fill:none;stroke:#000000;stroke-linecap:square;stroke-linejoin:miter;stroke-width:0.8;"/>
   </g>
   <g id="patch_5">
    <path d="M 144 640.8 
L 1036.8 640.8 
" style="fill:none;stroke:#000000;stroke-linecap:square;stroke-linejoin:miter;stroke-width:0.8;"/>
   </g>
   <g id="patch_6">
    <path d="M 144 86.4 
L 1036.8 86.4 
" style="fill:none;stroke:#000000;stroke-linecap:square;stroke-linejoin:miter;stroke-width:0.8;"/>
   </g>
   <g id="PathCollection_1">
    <defs>
     <path d="M 0 1.5 
C 0.397805 1.5 0.77937 1.341951 1.06066 1.06066 
C 1.341951 0.77937 1.5 0.397805 1.5 0 
C 1.5 -0.397805 1.341951 -0.77937 1.06066 -1.06066 
C 0.77937 -1.341951 0.397805 -1.5 0 -1.5 
C -0.397805 -1.5 -0.77937 -1.341951 -1.06066 -1.06066 
C -1.341951 -0.77937 -1.5 -0.397805 -1.5 0 
C -1.5 0.397805 -1.341951 0.77937 -1.06066 1.06066 
C -0.77937 1.341951 -0.397805 1.5 0 1.5 
z
" id="m170ccca843" style="stroke:#484848;"/>
    </defs>
    <g clip-path="url(#p1e99c0fe7f)">
     <use style="fill:#ffffff;stroke:#484848;" x="193.6" xlink:href="#m170ccca843" y="261.727759"/>
    </g>
   </g>
   <g id="PathCollection_2">
    <g clip-path="url(#p1e99c0fe7f)">
     <use style="fill:#ffffff;stroke:#484848;" x="292.8" xlink:href="#m170ccca843" y="479.957151"/>
    </g>
   </g>
   <g id="PathCollection_3">
    <g clip-path="url(#p1e99c0fe7f)">
     <use style="fill:#ffffff;stroke:#484848;" x="392" xlink:href="#m170ccca843" y="276.674978"/>
    </g>
   </g>
   <g id="PathCollection_4">
    <g clip-path="url(#p1e99c0fe7f)">
     <use style="fill:#ffffff;stroke:#484848;" x="590.4" xlink:href="#m170ccca843" y="327.495521"/>
    </g>
   </g>
   <g id="PathCollection_5">
    <g clip-path="url(#p1e99c0fe7f)">
     <use style="fill:#ffffff;stroke:#484848;" x="689.6" xlink:href="#m170ccca843" y="435.115495"/>
    </g>
   </g>
   <g id="PathCollection_6">
    <g clip-path="url(#p1e99c0fe7f)">
     <use style="fill:#ffffff;stroke:#484848;" x="788.8" xlink:href="#m170ccca843" y="435.115495"/>
    </g>
   </g>
   <g id="text_14">
    <!-- Rewards earned per agent type - hostile context first -->
    <g transform="translate(259.265234 80.4)scale(0.25 -0.25)">
     <defs>
      <path d="M 2841 2188 
Q 3044 2119 3236 1894 
Q 3428 1669 3622 1275 
L 4263 0 
L 3584 0 
L 2988 1197 
Q 2756 1666 2539 1819 
Q 2322 1972 1947 1972 
L 1259 1972 
L 1259 0 
L 628 0 
L 628 4666 
L 2053 4666 
Q 2853 4666 3247 4331 
Q 3641 3997 3641 3322 
Q 3641 2881 3436 2590 
Q 3231 2300 2841 2188 
z
M 1259 4147 
L 1259 2491 
L 2053 2491 
Q 2509 2491 2742 2702 
Q 2975 2913 2975 3322 
Q 2975 3731 2742 3939 
Q 2509 4147 2053 4147 
L 1259 4147 
z
" id="DejaVuSans-52" transform="scale(0.015625)"/>
      <path d="M 269 3500 
L 844 3500 
L 1563 769 
L 2278 3500 
L 2956 3500 
L 3675 769 
L 4391 3500 
L 4966 3500 
L 4050 0 
L 3372 0 
L 2619 2869 
L 1863 0 
L 1184 0 
L 269 3500 
z
" id="DejaVuSans-77" transform="scale(0.015625)"/>
      <path id="DejaVuSans-20" transform="scale(0.015625)"/>
      <path d="M 3513 2113 
L 3513 0 
L 2938 0 
L 2938 2094 
Q 2938 2591 2744 2837 
Q 2550 3084 2163 3084 
Q 1697 3084 1428 2787 
Q 1159 2491 1159 1978 
L 1159 0 
L 581 0 
L 581 3500 
L 1159 3500 
L 1159 2956 
Q 1366 3272 1645 3428 
Q 1925 3584 2291 3584 
Q 2894 3584 3203 3211 
Q 3513 2838 3513 2113 
z
" id="DejaVuSans-6e" transform="scale(0.015625)"/>
      <path d="M 2906 1791 
Q 2906 2416 2648 2759 
Q 2391 3103 1925 3103 
Q 1463 3103 1205 2759 
Q 947 2416 947 1791 
Q 947 1169 1205 825 
Q 1463 481 1925 481 
Q 2391 481 2648 825 
Q 2906 1169 2906 1791 
z
M 3481 434 
Q 3481 -459 3084 -895 
Q 2688 -1331 1869 -1331 
Q 1566 -1331 1297 -1286 
Q 1028 -1241 775 -1147 
L 775 -588 
Q 1028 -725 1275 -790 
Q 1522 -856 1778 -856 
Q 2344 -856 2625 -561 
Q 2906 -266 2906 331 
L 2906 616 
Q 2728 306 2450 153 
Q 2172 0 1784 0 
Q 1141 0 747 490 
Q 353 981 353 1791 
Q 353 2603 747 3093 
Q 1141 3584 1784 3584 
Q 2172 3584 2450 3431 
Q 2728 3278 2906 2969 
L 2906 3500 
L 3481 3500 
L 3481 434 
z
" id="DejaVuSans-67" transform="scale(0.015625)"/>
      <path d="M 313 2009 
L 1997 2009 
L 1997 1497 
L 313 1497 
L 313 2009 
z
" id="DejaVuSans-2d" transform="scale(0.015625)"/>
      <path d="M 3513 3500 
L 2247 1797 
L 3578 0 
L 2900 0 
L 1881 1375 
L 863 0 
L 184 0 
L 1544 1831 
L 300 3500 
L 978 3500 
L 1906 2253 
L 2834 3500 
L 3513 3500 
z
" id="DejaVuSans-78" transform="scale(0.015625)"/>
      <path d="M 2375 4863 
L 2375 4384 
L 1825 4384 
Q 1516 4384 1395 4259 
Q 1275 4134 1275 3809 
L 1275 3500 
L 2222 3500 
L 2222 3053 
L 1275 3053 
L 1275 0 
L 697 0 
L 697 3053 
L 147 3053 
L 147 3500 
L 697 3500 
L 697 3744 
Q 697 4328 969 4595 
Q 1241 4863 1831 4863 
L 2375 4863 
z
" id="DejaVuSans-66" transform="scale(0.015625)"/>
     </defs>
     <use xlink:href="#DejaVuSans-52"/>
     <use x="64.982422" xlink:href="#DejaVuSans-65"/>
     <use x="126.505859" xlink:href="#DejaVuSans-77"/>
     <use x="208.292969" xlink:href="#DejaVuSans-61"/>
     <use x="269.572266" xlink:href="#DejaVuSans-72"/>
     <use x="308.935547" xlink:href="#DejaVuSans-64"/>
     <use x="372.412109" xlink:href="#DejaVuSans-73"/>
     <use x="424.511719" xlink:href="#DejaVuSans-20"/>
     <use x="456.298828" xlink:href="#DejaVuSans-65"/>
     <use x="517.822266" xlink:href="#DejaVuSans-61"/>
     <use x="579.101562" xlink:href="#DejaVuSans-72"/>
     <use x="618.464844" xlink:href="#DejaVuSans-6e"/>
     <use x="681.84375" xlink:href="#DejaVuSans-65"/>
     <use x="743.367188" xlink:href="#DejaVuSans-64"/>
     <use x="806.84375" xlink:href="#DejaVuSans-20"/>
     <use x="838.630859" xlink:href="#DejaVuSans-70"/>
     <use x="902.107422" xlink:href="#DejaVuSans-65"/>
     <use x="963.630859" xlink:href="#DejaVuSans-72"/>
     <use x="1004.744141" xlink:href="#DejaVuSans-20"/>
     <use x="1036.53125" xlink:href="#DejaVuSans-61"/>
     <use x="1097.810547" xlink:href="#DejaVuSans-67"/>
     <use x="1161.287109" xlink:href="#DejaVuSans-65"/>
     <use x="1222.810547" xlink:href="#DejaVuSans-6e"/>
     <use x="1286.189453" xlink:href="#DejaVuSans-74"/>
     <use x="1325.398438" xlink:href="#DejaVuSans-20"/>
     <use x="1357.185547" xlink:href="#DejaVuSans-74"/>
     <use x="1396.394531" xlink:href="#DejaVuSans-79"/>
     <use x="1455.574219" xlink:href="#DejaVuSans-70"/>
     <use x="1519.050781" xlink:href="#DejaVuSans-65"/>
     <use x="1580.574219" xlink:href="#DejaVuSans-20"/>
     <use x="1612.361328" xlink:href="#DejaVuSans-2d"/>
     <use x="1648.445312" xlink:href="#DejaVuSans-20"/>
     <use x="1680.232422" xlink:href="#DejaVuSans-68"/>
     <use x="1743.611328" xlink:href="#DejaVuSans-6f"/>
     <use x="1804.792969" xlink:href="#DejaVuSans-73"/>
     <use x="1856.892578" xlink:href="#DejaVuSans-74"/>
     <use x="1896.101562" xlink:href="#DejaVuSans-69"/>
     <use x="1923.884766" xlink:href="#DejaVuSans-6c"/>
     <use x="1951.667969" xlink:href="#DejaVuSans-65"/>
     <use x="2013.191406" xlink:href="#DejaVuSans-20"/>
     <use x="2044.978516" xlink:href="#DejaVuSans-63"/>
     <use x="2099.958984" xlink:href="#DejaVuSans-6f"/>
     <use x="2161.140625" xlink:href="#DejaVuSans-6e"/>
     <use x="2224.519531" xlink:href="#DejaVuSans-74"/>
     <use x="2263.728516" xlink:href="#DejaVuSans-65"/>
     <use x="2323.501953" xlink:href="#DejaVuSans-78"/>
     <use x="2382.681641" xlink:href="#DejaVuSans-74"/>
     <use x="2421.890625" xlink:href="#DejaVuSans-20"/>
     <use x="2453.677734" xlink:href="#DejaVuSans-66"/>
     <use x="2488.882812" xlink:href="#DejaVuSans-69"/>
     <use x="2516.666016" xlink:href="#DejaVuSans-72"/>
     <use x="2557.779297" xlink:href="#DejaVuSans-73"/>
     <use x="2609.878906" xlink:href="#DejaVuSans-74"/>
    </g>
   </g>
  </g>
 </g>
 <defs>
  <clipPath id="p1e99c0fe7f">
   <rect height="554.4" width="892.8" x="144" y="86.4"/>
  </clipPath>
 </defs>
</svg>
