<?xml version="1.0" encoding="utf-8" standalone="no"?>
<!DOCTYPE svg PUBLIC "-//W3C//DTD SVG 1.1//EN"
  "http://www.w3.org/Graphics/SVG/1.1/DTD/svg11.dtd">
<svg height="720pt" version="1.1" viewBox="0 0 1152 720" width="1152pt" xmlns="http://www.w3.org/2000/svg" xmlns:xlink="http://www.w3.org/1999/xlink">
 <metadata>
  <rdf:RDF xmlns:cc="http://creativecommons.org/ns#" xmlns:dc="http://purl.org/dc/elements/1.1/" xmlns:rdf="http://www.w3.org/1999/02/22-rdf-syntax-ns#">
   <cc:Work>
    <dc:type rdf:resource="http://purl.org/dc/dcmitype/StillImage"/>
    <dc:date>2023-09-18T18:05:48.342904</dc:date>
    <dc:format>image/svg+xml</dc:format>
    <dc:creator>
     <cc:Agent>
      <dc:title>Matplotlib v3.4.3, https://matplotlib.org/</dc:title>
     </cc:Agent>
    </dc:creator>
   </cc:Work>
  </rdf:RDF>
 </metadata>
 <defs>
  <style type="text/css">*{stroke-linecap:butt;stroke-linejoin:round;}</style>
 </defs>
 <g id="figure_1">
  <g id="patch_1">
   <path d="M 0 720 
L 1152 720 
L 1152 0 
L 0 0 
z
" style="fill:#ffffff;"/>
  </g>
  <g id="axes_1">
   <g id="patch_2">
    <path d="M 144 640.8 
L 1036.8 640.8 
L 1036.8 86.4 
L 144 86.4 
z
" style="fill:#ffffff;"/>
   </g>
   <g id="PolyCollection_1">
    <defs>
     <path d="M 194.385401 -153.902781 
L 192.814599 -153.902781 
L 192.612021 -157.376139 
L 192.3701 -160.849498 
L 192.084785 -164.322857 
L 191.752513 -167.796215 
L 191.370468 -171.269574 
L 190.936834 -174.742932 
L 190.451047 -178.216291 
L 189.914002 -181.68965 
L 189.328211 -185.163008 
L 188.697878 -188.636367 
L 188.028873 -192.109726 
L 187.328594 -195.583084 
L 186.605697 -199.056443 
L 185.869709 -202.529802 
L 185.130519 -206.00316 
L 184.397786 -209.476519 
L 183.680283 -212.949877 
L 182.985226 -216.423236 
L 182.317639 -219.896595 
L 181.679803 -223.369953 
L 181.070844 -226.843312 
L 180.486501 -230.316671 
L 179.919118 -233.790029 
L 179.357878 -237.263388 
L 178.789269 -240.736747 
L 178.197798 -244.210105 
L 177.56689 -247.683464 
L 176.879934 -251.156822 
L 176.121417 -254.630181 
L 175.278063 -258.10354 
L 174.339899 -261.576898 
L 173.301183 -265.050257 
L 172.161113 -268.523616 
L 170.924284 -271.996974 
L 169.600828 -275.470333 
L 168.206259 -278.943692 
L 166.760998 -282.41705 
L 165.289629 -285.890409 
L 163.819926 -289.363768 
L 162.381707 -292.837126 
L 161.005602 -296.310485 
L 159.721789 -299.783843 
L 158.558787 -303.257202 
L 157.542368 -306.730561 
L 156.694633 -310.203919 
L 156.03329 -313.677278 
L 155.571171 -317.150637 
L 155.315968 -320.623995 
L 155.270195 -324.097354 
L 155.431351 -327.570713 
L 155.792244 -331.044071 
L 156.341458 -334.51743 
L 157.063902 -337.990788 
L 157.94144 -341.464147 
L 158.953536 -344.937506 
L 160.077923 -348.410864 
L 161.291261 -351.884223 
L 162.569774 -355.357582 
L 163.889866 -358.83094 
L 165.228705 -362.304299 
L 166.564768 -365.777658 
L 167.878353 -369.251016 
L 169.152034 -372.724375 
L 170.371064 -376.197734 
L 171.523702 -379.671092 
L 172.601454 -383.144451 
L 173.599214 -386.617809 
L 174.515286 -390.091168 
L 175.351289 -393.564527 
L 176.111925 -397.037885 
L 176.804623 -400.511244 
L 177.43907 -403.984603 
L 178.02664 -407.457961 
L 178.57975 -410.93132 
L 179.111178 -414.404679 
L 179.633374 -417.878037 
L 180.157812 -421.351396 
L 180.694401 -424.824754 
L 181.251014 -428.298113 
L 181.83314 -431.771472 
L 182.443688 -435.24483 
L 183.08295 -438.718189 
L 183.748715 -442.191548 
L 184.436529 -445.664906 
L 185.140062 -449.138265 
L 185.851576 -452.611624 
L 186.562433 -456.084982 
L 187.263621 -459.558341 
L 187.946268 -463.031699 
L 188.602089 -466.505058 
L 189.223773 -469.978417 
L 189.805269 -473.451775 
L 190.341969 -476.925134 
L 190.830792 -480.398493 
L 191.270174 -483.871851 
L 191.659974 -487.34521 
L 192.001315 -490.818569 
L 192.296385 -494.291927 
L 192.548202 -497.765286 
L 194.651798 -497.765286 
L 194.651798 -497.765286 
L 194.903615 -494.291927 
L 195.198685 -490.818569 
L 195.540026 -487.34521 
L 195.929826 -483.871851 
L 196.369208 -480.398493 
L 196.858031 -476.925134 
L 197.394731 -473.451775 
L 197.976227 -469.978417 
L 198.597911 -466.505058 
L 199.253732 -463.031699 
L 199.936379 -459.558341 
L 200.637567 -456.084982 
L 201.348424 -452.611624 
L 202.059938 -449.138265 
L 202.763471 -445.664906 
L 203.451285 -442.191548 
L 204.11705 -438.718189 
L 204.756312 -435.24483 
L 205.36686 -431.771472 
L 205.948986 -428.298113 
L 206.505599 -424.824754 
L 207.042188 -421.351396 
L 207.566626 -417.878037 
L 208.088822 -414.404679 
L 208.62025 -410.93132 
L 209.17336 -407.457961 
L 209.76093 -403.984603 
L 210.395377 -400.511244 
L 211.088075 -397.037885 
L 211.848711 -393.564527 
L 212.684714 -390.091168 
L 213.600786 -386.617809 
L 214.598546 -383.144451 
L 215.676298 -379.671092 
L 216.828936 -376.197734 
L 218.047966 -372.724375 
L 219.321647 -369.251016 
L 220.635232 -365.777658 
L 221.971295 -362.304299 
L 223.310134 -358.83094 
L 224.630226 -355.357582 
L 225.908739 -351.884223 
L 227.122077 -348.410864 
L 228.246464 -344.937506 
L 229.25856 -341.464147 
L 230.136098 -337.990788 
L 230.858542 -334.51743 
L 231.407756 -331.044071 
L 231.768649 -327.570713 
L 231.929805 -324.097354 
L 231.884032 -320.623995 
L 231.628829 -317.150637 
L 231.16671 -313.677278 
L 230.505367 -310.203919 
L 229.657632 -306.730561 
L 228.641213 -303.257202 
L 227.478211 -299.783843 
L 226.194398 -296.310485 
L 224.818293 -292.837126 
L 223.380074 -289.363768 
L 221.910371 -285.890409 
L 220.439002 -282.41705 
L 218.993741 -278.943692 
L 217.599172 -275.470333 
L 216.275716 -271.996974 
L 215.038887 -268.523616 
L 213.898817 -265.050257 
L 212.860101 -261.576898 
L 211.921937 -258.10354 
L 211.078583 -254.630181 
L 210.320066 -251.156822 
L 209.63311 -247.683464 
L 209.002202 -244.210105 
L 208.410731 -240.736747 
L 207.842122 -237.263388 
L 207.280882 -233.790029 
L 206.713499 -230.316671 
L 206.129156 -226.843312 
L 205.520197 -223.369953 
L 204.882361 -219.896595 
L 204.214774 -216.423236 
L 203.519717 -212.949877 
L 202.802214 -209.476519 
L 202.069481 -206.00316 
L 201.330291 -202.529802 
L 200.594303 -199.056443 
L 199.871406 -195.583084 
L 199.171127 -192.109726 
L 198.502122 -188.636367 
L 197.871789 -185.163008 
L 197.285998 -181.68965 
L 196.748953 -178.216291 
L 196.263166 -174.742932 
L 195.829532 -171.269574 
L 195.447487 -167.796215 
L 195.115215 -164.322857 
L 194.8299 -160.849498 
L 194.587979 -157.376139 
L 194.385401 -153.902781 
z
" id="m1ab2a459af" style="stroke:#484848;stroke-width:1.5;"/>
    </defs>
    <g clip-path="url(#p8001ba8aef)">
     <use style="fill:#c1505d;stroke:#484848;stroke-width:1.5;" x="0" xlink:href="#m1ab2a459af" y="720"/>
    </g>
   </g>
   <g id="PolyCollection_2">
    <defs>
     <path d="M 293.964442 -179.804864 
L 291.635558 -179.804864 
L 291.272552 -184.134107 
L 290.819889 -188.463351 
L 290.262965 -192.792595 
L 289.586952 -197.121839 
L 288.77745 -201.451083 
L 287.821261 -205.780326 
L 286.707282 -210.10957 
L 285.427467 -214.438814 
L 283.977807 -218.768058 
L 282.359271 -223.097302 
L 280.578622 -227.426545 
L 278.649035 -231.755789 
L 276.59045 -236.085033 
L 274.429567 -240.414277 
L 272.199457 -244.743521 
L 269.938738 -249.072764 
L 267.690337 -253.402008 
L 265.499859 -257.731252 
L 263.413638 -262.060496 
L 261.476586 -266.38974 
L 259.729976 -270.718983 
L 258.209317 -275.048227 
L 256.942483 -279.377471 
L 255.948281 -283.706715 
L 255.235567 -288.035959 
L 254.803027 -292.365202 
L 254.639661 -296.694446 
L 254.725942 -301.02369 
L 255.035571 -305.352934 
L 255.537677 -309.682178 
L 256.199257 -314.011421 
L 256.987648 -318.340665 
L 257.872765 -322.669909 
L 258.82894 -326.999153 
L 259.836155 -331.328397 
L 260.8806 -335.65764 
L 261.954526 -339.986884 
L 263.055444 -344.316128 
L 264.184814 -348.645372 
L 265.346405 -352.974616 
L 266.544529 -357.303859 
L 267.782382 -361.633103 
L 269.06067 -365.962347 
L 270.376679 -370.291591 
L 271.723854 -374.620835 
L 273.091915 -378.950078 
L 274.467458 -383.279322 
L 275.834918 -387.608566 
L 277.177774 -391.93781 
L 278.479815 -396.267054 
L 279.726332 -400.596298 
L 280.905086 -404.925541 
L 282.00698 -409.254785 
L 283.02637 -413.584029 
L 283.961021 -417.913273 
L 284.81176 -422.242517 
L 285.581866 -426.57176 
L 286.276327 -430.901004 
L 286.901038 -435.230248 
L 287.462039 -439.559492 
L 287.964873 -443.888736 
L 288.414122 -448.217979 
L 288.813143 -452.547223 
L 289.164022 -456.876467 
L 289.467709 -461.205711 
L 289.724321 -465.534955 
L 289.933547 -469.864198 
L 290.09511 -474.193442 
L 290.209232 -478.522686 
L 290.277051 -482.85193 
L 290.300946 -487.181174 
L 290.284745 -491.510417 
L 290.233794 -495.839661 
L 290.154878 -500.168905 
L 290.056008 -504.498149 
L 289.946087 -508.827393 
L 289.834477 -513.156636 
L 289.730513 -517.48588 
L 289.642993 -521.815124 
L 289.579694 -526.144368 
L 289.546946 -530.473612 
L 289.549303 -534.802855 
L 289.589336 -539.132099 
L 289.667558 -543.461343 
L 289.78249 -547.790587 
L 289.930862 -552.119831 
L 290.107907 -556.449074 
L 290.307755 -560.778318 
L 290.523852 -565.107562 
L 290.749399 -569.436806 
L 290.977763 -573.76605 
L 291.202827 -578.095293 
L 291.419272 -582.424537 
L 291.622766 -586.753781 
L 291.81006 -591.083025 
L 291.979005 -595.412269 
L 292.128487 -599.741512 
L 292.258314 -604.070756 
L 292.369059 -608.4 
L 293.230941 -608.4 
L 293.230941 -608.4 
L 293.341686 -604.070756 
L 293.471513 -599.741512 
L 293.620995 -595.412269 
L 293.78994 -591.083025 
L 293.977234 -586.753781 
L 294.180728 -582.424537 
L 294.397173 -578.095293 
L 294.622237 -573.76605 
L 294.850601 -569.436806 
L 295.076148 -565.107562 
L 295.292245 -560.778318 
L 295.492093 -556.449074 
L 295.669138 -552.119831 
L 295.81751 -547.790587 
L 295.932442 -543.461343 
L 296.010664 -539.132099 
L 296.050697 -534.802855 
L 296.053054 -530.473612 
L 296.020306 -526.144368 
L 295.957007 -521.815124 
L 295.869487 -517.48588 
L 295.765523 -513.156636 
L 295.653913 -508.827393 
L 295.543992 -504.498149 
L 295.445122 -500.168905 
L 295.366206 -495.839661 
L 295.315255 -491.510417 
L 295.299054 -487.181174 
L 295.322949 -482.85193 
L 295.390768 -478.522686 
L 295.50489 -474.193442 
L 295.666453 -469.864198 
L 295.875679 -465.534955 
L 296.132291 -461.205711 
L 296.435978 -456.876467 
L 296.786857 -452.547223 
L 297.185878 -448.217979 
L 297.635127 -443.888736 
L 298.137961 -439.559492 
L 298.698962 -435.230248 
L 299.323673 -430.901004 
L 300.018134 -426.57176 
L 300.78824 -422.242517 
L 301.638979 -417.913273 
L 302.57363 -413.584029 
L 303.59302 -409.254785 
L 304.694914 -404.925541 
L 305.873668 -400.596298 
L 307.120185 -396.267054 
L 308.422226 -391.93781 
L 309.765082 -387.608566 
L 311.132542 -383.279322 
L 312.508085 -378.950078 
L 313.876146 -374.620835 
L 315.223321 -370.291591 
L 316.53933 -365.962347 
L 317.817618 -361.633103 
L 319.055471 -357.303859 
L 320.253595 -352.974616 
L 321.415186 -348.645372 
L 322.544556 -344.316128 
L 323.645474 -339.986884 
L 324.7194 -335.65764 
L 325.763845 -331.328397 
L 326.77106 -326.999153 
L 327.727235 -322.669909 
L 328.612352 -318.340665 
L 329.400743 -314.011421 
L 330.062323 -309.682178 
L 330.564429 -305.352934 
L 330.874058 -301.02369 
L 330.960339 -296.694446 
L 330.796973 -292.365202 
L 330.364433 -288.035959 
L 329.651719 -283.706715 
L 328.657517 -279.377471 
L 327.390683 -275.048227 
L 325.870024 -270.718983 
L 324.123414 -266.38974 
L 322.186362 -262.060496 
L 320.100141 -257.731252 
L 317.909663 -253.402008 
L 315.661262 -249.072764 
L 313.400543 -244.743521 
L 311.170433 -240.414277 
L 309.00955 -236.085033 
L 306.950965 -231.755789 
L 305.021378 -227.426545 
L 303.240729 -223.097302 
L 301.622193 -218.768058 
L 300.172533 -214.438814 
L 298.892718 -210.10957 
L 297.778739 -205.780326 
L 296.82255 -201.451083 
L 296.013048 -197.121839 
L 295.337035 -192.792595 
L 294.780111 -188.463351 
L 294.327448 -184.134107 
L 293.964442 -179.804864 
z
" id="m4dd6658fba" style="stroke:#484848;stroke-width:1.5;"/>
    </defs>
    <g clip-path="url(#p8001ba8aef)">
     <use style="fill:#de7959;stroke:#484848;stroke-width:1.5;" x="0" xlink:href="#m4dd6658fba" y="720"/>
    </g>
   </g>
   <g id="PolyCollection_3">
    <defs>
     <path d="M 392.844918 -104.4 
L 391.155082 -104.4 
L 390.966684 -108.70102 
L 390.747451 -113.00204 
L 390.495051 -117.30306 
L 390.207581 -121.604079 
L 389.883701 -125.905099 
L 389.522761 -130.206119 
L 389.124917 -134.507139 
L 388.691217 -138.808159 
L 388.223649 -143.109179 
L 387.725157 -147.410199 
L 387.1996 -151.711219 
L 386.651659 -156.012238 
L 386.086695 -160.313258 
L 385.510564 -164.614278 
L 384.929383 -168.915298 
L 384.349279 -173.216318 
L 383.776121 -177.517338 
L 383.215259 -181.818358 
L 382.671286 -186.119377 
L 382.147847 -190.420397 
L 381.647489 -194.721417 
L 381.171596 -199.022437 
L 380.720388 -203.323457 
L 380.292995 -207.624477 
L 379.8876 -211.925497 
L 379.501649 -216.226517 
L 379.132092 -220.527536 
L 378.775655 -224.828556 
L 378.429113 -229.129576 
L 378.08954 -233.430596 
L 377.75452 -237.731616 
L 377.422303 -242.032636 
L 377.09189 -246.333656 
L 376.763044 -250.634675 
L 376.43622 -254.935695 
L 376.11244 -259.236715 
L 375.793101 -263.537735 
L 375.479749 -267.838755 
L 375.173835 -272.139775 
L 374.876477 -276.440795 
L 374.588241 -280.741815 
L 374.308978 -285.042834 
L 374.037707 -289.343854 
L 373.772586 -293.644874 
L 373.510945 -297.945894 
L 373.24941 -302.246914 
L 372.984085 -306.547934 
L 372.710804 -310.848954 
L 372.425422 -315.149973 
L 372.124136 -319.450993 
L 371.803804 -323.752013 
L 371.462261 -328.053033 
L 371.09859 -332.354053 
L 370.71335 -336.655073 
L 370.308734 -340.956093 
L 369.88866 -345.257113 
L 369.458769 -349.558132 
L 369.026358 -353.859152 
L 368.600221 -358.160172 
L 368.190425 -362.461192 
L 367.808023 -366.762212 
L 367.464719 -371.063232 
L 367.172493 -375.364252 
L 366.94321 -379.665271 
L 366.788218 -383.966291 
L 366.717964 -388.267311 
L 366.741622 -392.568331 
L 366.866769 -396.869351 
L 367.099098 -401.170371 
L 367.442198 -405.471391 
L 367.897395 -409.772411 
L 368.463666 -414.07343 
L 369.137625 -418.37445 
L 369.913589 -422.67547 
L 370.783715 -426.97649 
L 371.738206 -431.27751 
L 372.765583 -435.57853 
L 373.853005 -439.87955 
L 374.986631 -444.180569 
L 376.152011 -448.481589 
L 377.334485 -452.782609 
L 378.519582 -457.083629 
L 379.693399 -461.384649 
L 380.84294 -465.685669 
L 381.956422 -469.986689 
L 383.023515 -474.287709 
L 384.035519 -478.588728 
L 384.98548 -482.889748 
L 385.868233 -487.190768 
L 386.680387 -491.491788 
L 387.420241 -495.792808 
L 388.087661 -500.093828 
L 388.683909 -504.394848 
L 389.211448 -508.695867 
L 389.673721 -512.996887 
L 390.074938 -517.297907 
L 390.419847 -521.598927 
L 390.713538 -525.899947 
L 390.961246 -530.200967 
L 393.038754 -530.200967 
L 393.038754 -530.200967 
L 393.286462 -525.899947 
L 393.580153 -521.598927 
L 393.925062 -517.297907 
L 394.326279 -512.996887 
L 394.788552 -508.695867 
L 395.316091 -504.394848 
L 395.912339 -500.093828 
L 396.579759 -495.792808 
L 397.319613 -491.491788 
L 398.131767 -487.190768 
L 399.01452 -482.889748 
L 399.964481 -478.588728 
L 400.976485 -474.287709 
L 402.043578 -469.986689 
L 403.15706 -465.685669 
L 404.306601 -461.384649 
L 405.480418 -457.083629 
L 406.665515 -452.782609 
L 407.847989 -448.481589 
L 409.013369 -444.180569 
L 410.146995 -439.87955 
L 411.234417 -435.57853 
L 412.261794 -431.27751 
L 413.216285 -426.97649 
L 414.086411 -422.67547 
L 414.862375 -418.37445 
L 415.536334 -414.07343 
L 416.102605 -409.772411 
L 416.557802 -405.471391 
L 416.900902 -401.170371 
L 417.133231 -396.869351 
L 417.258378 -392.568331 
L 417.282036 -388.267311 
L 417.211782 -383.966291 
L 417.05679 -379.665271 
L 416.827507 -375.364252 
L 416.535281 -371.063232 
L 416.191977 -366.762212 
L 415.809575 -362.461192 
L 415.399779 -358.160172 
L 414.973642 -353.859152 
L 414.541231 -349.558132 
L 414.11134 -345.257113 
L 413.691266 -340.956093 
L 413.28665 -336.655073 
L 412.90141 -332.354053 
L 412.537739 -328.053033 
L 412.196196 -323.752013 
L 411.875864 -319.450993 
L 411.574578 -315.149973 
L 411.289196 -310.848954 
L 411.015915 -306.547934 
L 410.75059 -302.246914 
L 410.489055 -297.945894 
L 410.227414 -293.644874 
L 409.962293 -289.343854 
L 409.691022 -285.042834 
L 409.411759 -280.741815 
L 409.123523 -276.440795 
L 408.826165 -272.139775 
L 408.520251 -267.838755 
L 408.206899 -263.537735 
L 407.88756 -259.236715 
L 407.56378 -254.935695 
L 407.236956 -250.634675 
L 406.90811 -246.333656 
L 406.577697 -242.032636 
L 406.24548 -237.731616 
L 405.91046 -233.430596 
L 405.570887 -229.129576 
L 405.224345 -224.828556 
L 404.867908 -220.527536 
L 404.498351 -216.226517 
L 404.1124 -211.925497 
L 403.707005 -207.624477 
L 403.279612 -203.323457 
L 402.828404 -199.022437 
L 402.352511 -194.721417 
L 401.852153 -190.420397 
L 401.328714 -186.119377 
L 400.784741 -181.818358 
L 400.223879 -177.517338 
L 399.650721 -173.216318 
L 399.070617 -168.915298 
L 398.489436 -164.614278 
L 397.913305 -160.313258 
L 397.348341 -156.012238 
L 396.8004 -151.711219 
L 396.274843 -147.410199 
L 395.776351 -143.109179 
L 395.308783 -138.808159 
L 394.875083 -134.507139 
L 394.477239 -130.206119 
L 394.116299 -125.905099 
L 393.792419 -121.604079 
L 393.504949 -117.30306 
L 393.252549 -113.00204 
L 393.033316 -108.70102 
L 392.844918 -104.4 
z
" id="mce2cb57e08" style="stroke:#484848;stroke-width:1.5;"/>
    </defs>
    <g clip-path="url(#p8001ba8aef)">
     <use style="fill:#e9ad74;stroke:#484848;stroke-width:1.5;" x="0" xlink:href="#mce2cb57e08" y="720"/>
    </g>
   </g>
   <g id="PolyCollection_4">
    <defs>
     <path d="M 591.139031 -169.313929 
L 589.660969 -169.313929 
L 589.483276 -172.131162 
L 589.270994 -174.948394 
L 589.019333 -177.765627 
L 588.72324 -180.582859 
L 588.377469 -183.400091 
L 587.976657 -186.217324 
L 587.515427 -189.034556 
L 586.9885 -191.851789 
L 586.390834 -194.669021 
L 585.717764 -197.486253 
L 584.96517 -200.303486 
L 584.129649 -203.120718 
L 583.208696 -205.937951 
L 582.200886 -208.755183 
L 581.106054 -211.572415 
L 579.925461 -214.389648 
L 578.661945 -217.20688 
L 577.320034 -220.024113 
L 575.90603 -222.841345 
L 574.428037 -225.658578 
L 572.89594 -228.47581 
L 571.321314 -231.293042 
L 569.717274 -234.110275 
L 568.098262 -236.927507 
L 566.479766 -239.74474 
L 564.877992 -242.561972 
L 563.309498 -245.379204 
L 561.790795 -248.196437 
L 560.33795 -251.013669 
L 558.966198 -253.830902 
L 557.689589 -256.648134 
L 556.520675 -259.465366 
L 555.470275 -262.282599 
L 554.547298 -265.099831 
L 553.758654 -267.917064 
L 553.109234 -270.734296 
L 552.601956 -273.551528 
L 552.237875 -276.368761 
L 552.016322 -279.185993 
L 551.935064 -282.003226 
L 551.990468 -284.820458 
L 552.177643 -287.637691 
L 552.490545 -290.454923 
L 552.922046 -293.272155 
L 553.463951 -296.089388 
L 554.106965 -298.90662 
L 554.840641 -301.723853 
L 555.653292 -304.541085 
L 556.531921 -307.358317 
L 557.46217 -310.17555 
L 558.428327 -312.992782 
L 559.413417 -315.810015 
L 560.39938 -318.627247 
L 561.367382 -321.444479 
L 562.298229 -324.261712 
L 563.172911 -327.078944 
L 563.973243 -329.896177 
L 564.682585 -332.713409 
L 565.286604 -335.530641 
L 565.774035 -338.347874 
L 566.13739 -341.165106 
L 566.373571 -343.982339 
L 566.484324 -346.799571 
L 566.476504 -349.616804 
L 566.362106 -352.434036 
L 566.158042 -355.251268 
L 565.885663 -358.068501 
L 565.570027 -360.885733 
L 565.238942 -363.702966 
L 564.921839 -366.520198 
L 564.648518 -369.33743 
L 564.447839 -372.154663 
L 564.346435 -374.971895 
L 564.367525 -377.789128 
L 564.529881 -380.60636 
L 564.84702 -383.423592 
L 565.32667 -386.240825 
L 565.97052 -389.058057 
L 566.774282 -391.87529 
L 567.728037 -394.692522 
L 568.816848 -397.509754 
L 570.021585 -400.326987 
L 571.319909 -403.144219 
L 572.687359 -405.961452 
L 574.098456 -408.778684 
L 575.527786 -411.595917 
L 576.950983 -414.413149 
L 578.34558 -417.230381 
L 579.691691 -420.047614 
L 580.972504 -422.864846 
L 582.174578 -425.682079 
L 583.287952 -428.499311 
L 584.306084 -431.316543 
L 585.225649 -434.133776 
L 586.046215 -436.951008 
L 586.769847 -439.768241 
L 587.400659 -442.585473 
L 587.944347 -445.402705 
L 588.407741 -448.219938 
L 592.392259 -448.219938 
L 592.392259 -448.219938 
L 592.855653 -445.402705 
L 593.399341 -442.585473 
L 594.030153 -439.768241 
L 594.753785 -436.951008 
L 595.574351 -434.133776 
L 596.493916 -431.316543 
L 597.512048 -428.499311 
L 598.625422 -425.682079 
L 599.827496 -422.864846 
L 601.108309 -420.047614 
L 602.45442 -417.230381 
L 603.849017 -414.413149 
L 605.272214 -411.595917 
L 606.701544 -408.778684 
L 608.112641 -405.961452 
L 609.480091 -403.144219 
L 610.778415 -400.326987 
L 611.983152 -397.509754 
L 613.071963 -394.692522 
L 614.025718 -391.87529 
L 614.82948 -389.058057 
L 615.47333 -386.240825 
L 615.95298 -383.423592 
L 616.270119 -380.60636 
L 616.432475 -377.789128 
L 616.453565 -374.971895 
L 616.352161 -372.154663 
L 616.151482 -369.33743 
L 615.878161 -366.520198 
L 615.561058 -363.702966 
L 615.229973 -360.885733 
L 614.914337 -358.068501 
L 614.641958 -355.251268 
L 614.437894 -352.434036 
L 614.323496 -349.616804 
L 614.315676 -346.799571 
L 614.426429 -343.982339 
L 614.66261 -341.165106 
L 615.025965 -338.347874 
L 615.513396 -335.530641 
L 616.117415 -332.713409 
L 616.826757 -329.896177 
L 617.627089 -327.078944 
L 618.501771 -324.261712 
L 619.432618 -321.444479 
L 620.40062 -318.627247 
L 621.386583 -315.810015 
L 622.371673 -312.992782 
L 623.33783 -310.17555 
L 624.268079 -307.358317 
L 625.146708 -304.541085 
L 625.959359 -301.723853 
L 626.693035 -298.90662 
L 627.336049 -296.089388 
L 627.877954 -293.272155 
L 628.309455 -290.454923 
L 628.622357 -287.637691 
L 628.809532 -284.820458 
L 628.864936 -282.003226 
L 628.783678 -279.185993 
L 628.562125 -276.368761 
L 628.198044 -273.551528 
L 627.690766 -270.734296 
L 627.041346 -267.917064 
L 626.252702 -265.099831 
L 625.329725 -262.282599 
L 624.279325 -259.465366 
L 623.110411 -256.648134 
L 621.833802 -253.830902 
L 620.46205 -251.013669 
L 619.009205 -248.196437 
L 617.490502 -245.379204 
L 615.922008 -242.561972 
L 614.320234 -239.74474 
L 612.701738 -236.927507 
L 611.082726 -234.110275 
L 609.478686 -231.293042 
L 607.90406 -228.47581 
L 606.371963 -225.658578 
L 604.89397 -222.841345 
L 603.479966 -220.024113 
L 602.138055 -217.20688 
L 600.874539 -214.389648 
L 599.693946 -211.572415 
L 598.599114 -208.755183 
L 597.591304 -205.937951 
L 596.670351 -203.120718 
L 595.83483 -200.303486 
L 595.082236 -197.486253 
L 594.409166 -194.669021 
L 593.8115 -191.851789 
L 593.284573 -189.034556 
L 592.823343 -186.217324 
L 592.422531 -183.400091 
L 592.07676 -180.582859 
L 591.780667 -177.765627 
L 591.529006 -174.948394 
L 591.316724 -172.131162 
L 591.139031 -169.313929 
z
" id="m84fd6cd455" style="stroke:#484848;stroke-width:1.5;"/>
    </defs>
    <g clip-path="url(#p8001ba8aef)">
     <use style="fill:#f7f7c6;stroke:#484848;stroke-width:1.5;" x="0" xlink:href="#m84fd6cd455" y="720"/>
    </g>
   </g>
   <g id="PolyCollection_5">
    <defs>
     <path d="M 690.12104 -166.829629 
L 689.07896 -166.829629 
L 688.949427 -170.300431 
L 688.798078 -173.771234 
L 688.624116 -177.242036 
L 688.427487 -180.712839 
L 688.209013 -184.183642 
L 687.970497 -187.654444 
L 687.714753 -191.125247 
L 687.445567 -194.59605 
L 687.167566 -198.066852 
L 686.885984 -201.537655 
L 686.606345 -205.008457 
L 686.334056 -208.47926 
L 686.073947 -211.950063 
L 685.829779 -215.420865 
L 685.603775 -218.891668 
L 685.396198 -222.36247 
L 685.205041 -225.833273 
L 685.025851 -229.304076 
L 684.851733 -232.774878 
L 684.673548 -236.245681 
L 684.480303 -239.716483 
L 684.259729 -243.187286 
L 683.999011 -246.658089 
L 683.685616 -250.128891 
L 683.308166 -253.599694 
L 682.857288 -257.070497 
L 682.326352 -260.541299 
L 681.712048 -264.012102 
L 681.014728 -267.482904 
L 680.238482 -270.953707 
L 679.390915 -274.42451 
L 678.482639 -277.895312 
L 677.526505 -281.366115 
L 676.536625 -284.836917 
L 675.527278 -288.30772 
L 674.511763 -291.778523 
L 673.501332 -295.249325 
L 672.504275 -298.720128 
L 671.525261 -302.190931 
L 670.565002 -305.661733 
L 669.620288 -309.132536 
L 668.684395 -312.603338 
L 667.747855 -316.074141 
L 666.799533 -319.544944 
L 665.827918 -323.015746 
L 664.822524 -326.486549 
L 663.775273 -329.957351 
L 662.681742 -333.428154 
L 661.542141 -336.898957 
L 660.361931 -340.369759 
L 659.152008 -343.840562 
L 657.92843 -347.311365 
L 656.711682 -350.782167 
L 655.525562 -354.25297 
L 654.395752 -357.723772 
L 653.348238 -361.194575 
L 652.407692 -364.665378 
L 651.595987 -368.13618 
L 650.930983 -371.606983 
L 650.425682 -375.077785 
L 650.087833 -378.548588 
L 649.92 -382.019391 
L 649.920069 -385.490193 
L 650.082106 -388.960996 
L 650.397463 -392.431798 
L 650.855978 -395.902601 
L 651.447142 -399.373404 
L 652.161086 -402.844206 
L 652.989287 -406.315009 
L 653.924935 -409.785812 
L 654.962927 -413.256614 
L 656.099536 -416.727417 
L 657.331797 -420.198219 
L 658.656724 -423.669022 
L 660.070475 -427.139825 
L 661.567559 -430.610627 
L 663.140208 -434.08143 
L 664.777979 -437.552232 
L 666.467644 -441.023035 
L 668.19336 -444.493838 
L 669.937115 -447.96464 
L 671.679402 -451.435443 
L 673.400025 -454.906246 
L 675.078999 -458.377048 
L 676.697419 -461.847851 
L 678.238265 -465.318653 
L 679.687053 -468.789456 
L 681.032314 -472.260259 
L 682.265866 -475.731061 
L 683.382891 -479.201864 
L 684.38182 -482.672666 
L 685.264064 -486.143469 
L 686.033629 -489.614272 
L 686.696642 -493.085074 
L 687.260849 -496.555877 
L 687.735102 -500.026679 
L 688.12888 -503.497482 
L 688.451856 -506.968285 
L 688.713539 -510.439087 
L 690.486461 -510.439087 
L 690.486461 -510.439087 
L 690.748144 -506.968285 
L 691.07112 -503.497482 
L 691.464898 -500.026679 
L 691.939151 -496.555877 
L 692.503358 -493.085074 
L 693.166371 -489.614272 
L 693.935936 -486.143469 
L 694.81818 -482.672666 
L 695.817109 -479.201864 
L 696.934134 -475.731061 
L 698.167686 -472.260259 
L 699.512947 -468.789456 
L 700.961735 -465.318653 
L 702.502581 -461.847851 
L 704.121001 -458.377048 
L 705.799975 -454.906246 
L 707.520598 -451.435443 
L 709.262885 -447.96464 
L 711.00664 -444.493838 
L 712.732356 -441.023035 
L 714.422021 -437.552232 
L 716.059792 -434.08143 
L 717.632441 -430.610627 
L 719.129525 -427.139825 
L 720.543276 -423.669022 
L 721.868203 -420.198219 
L 723.100464 -416.727417 
L 724.237073 -413.256614 
L 725.275065 -409.785812 
L 726.210713 -406.315009 
L 727.038914 -402.844206 
L 727.752858 -399.373404 
L 728.344022 -395.902601 
L 728.802537 -392.431798 
L 729.117894 -388.960996 
L 729.279931 -385.490193 
L 729.28 -382.019391 
L 729.112167 -378.548588 
L 728.774318 -375.077785 
L 728.269017 -371.606983 
L 727.604013 -368.13618 
L 726.792308 -364.665378 
L 725.851762 -361.194575 
L 724.804248 -357.723772 
L 723.674438 -354.25297 
L 722.488318 -350.782167 
L 721.27157 -347.311365 
L 720.047992 -343.840562 
L 718.838069 -340.369759 
L 717.657859 -336.898957 
L 716.518258 -333.428154 
L 715.424727 -329.957351 
L 714.377476 -326.486549 
L 713.372082 -323.015746 
L 712.400467 -319.544944 
L 711.452145 -316.074141 
L 710.515605 -312.603338 
L 709.579712 -309.132536 
L 708.634998 -305.661733 
L 707.674739 -302.190931 
L 706.695725 -298.720128 
L 705.698668 -295.249325 
L 704.688237 -291.778523 
L 703.672722 -288.30772 
L 702.663375 -284.836917 
L 701.673495 -281.366115 
L 700.717361 -277.895312 
L 699.809085 -274.42451 
L 698.961518 -270.953707 
L 698.185272 -267.482904 
L 697.487952 -264.012102 
L 696.873648 -260.541299 
L 696.342712 -257.070497 
L 695.891834 -253.599694 
L 695.514384 -250.128891 
L 695.200989 -246.658089 
L 694.940271 -243.187286 
L 694.719697 -239.716483 
L 694.526452 -236.245681 
L 694.348267 -232.774878 
L 694.174149 -229.304076 
L 693.994959 -225.833273 
L 693.803802 -222.36247 
L 693.596225 -218.891668 
L 693.370221 -215.420865 
L 693.126053 -211.950063 
L 692.865944 -208.47926 
L 692.593655 -205.008457 
L 692.314016 -201.537655 
L 692.032434 -198.066852 
L 691.754433 -194.59605 
L 691.485247 -191.125247 
L 691.229503 -187.654444 
L 690.990987 -184.183642 
L 690.772513 -180.712839 
L 690.575884 -177.242036 
L 690.401922 -173.771234 
L 690.250573 -170.300431 
L 690.12104 -166.829629 
z
" id="m38e8f0720b" style="stroke:#484848;stroke-width:1.5;"/>
    </defs>
    <g clip-path="url(#p8001ba8aef)">
     <use style="fill:#dee9a4;stroke:#484848;stroke-width:1.5;" x="0" xlink:href="#m38e8f0720b" y="720"/>
    </g>
   </g>
   <g id="PolyCollection_6">
    <defs>
     <path d="M 789.49404 -210.146763 
L 788.10596 -210.146763 
L 787.940382 -213.173459 
L 787.744558 -216.200156 
L 787.515221 -219.226852 
L 787.249223 -222.253548 
L 786.943625 -225.280245 
L 786.595791 -228.306941 
L 786.203474 -231.333637 
L 785.764892 -234.360334 
L 785.278775 -237.38703 
L 784.744399 -240.413727 
L 784.161593 -243.440423 
L 783.530717 -246.467119 
L 782.852621 -249.493816 
L 782.128584 -252.520512 
L 781.360248 -255.547208 
L 780.549545 -258.573905 
L 779.698637 -261.600601 
L 778.809876 -264.627297 
L 777.885786 -267.653994 
L 776.929085 -270.68069 
L 775.94273 -273.707386 
L 774.930003 -276.734083 
L 773.894621 -279.760779 
L 772.840849 -282.787475 
L 771.773625 -285.814172 
L 770.698664 -288.840868 
L 769.622526 -291.867565 
L 768.552641 -294.894261 
L 767.497277 -297.920957 
L 766.465434 -300.947654 
L 765.466681 -303.97435 
L 764.510917 -307.001046 
L 763.608084 -310.027743 
L 762.767834 -313.054439 
L 761.999169 -316.081135 
L 761.310074 -319.107832 
L 760.707156 -322.134528 
L 760.195311 -325.161224 
L 759.777437 -328.187921 
L 759.454198 -331.214617 
L 759.22385 -334.241314 
L 759.082152 -337.26801 
L 759.022344 -340.294706 
L 759.035213 -343.321403 
L 759.109257 -346.348099 
L 759.23092 -349.374795 
L 759.384937 -352.401492 
L 759.554761 -355.428188 
L 759.723078 -358.454884 
L 759.872402 -361.481581 
L 759.985738 -364.508277 
L 760.047289 -367.534973 
L 760.043189 -370.56167 
L 759.962226 -373.588366 
L 759.79651 -376.615062 
L 759.542073 -379.641759 
L 759.199327 -382.668455 
L 758.773368 -385.695152 
L 758.274089 -388.721848 
L 757.716067 -391.748544 
L 757.11823 -394.775241 
L 756.50329 -397.801937 
L 755.896974 -400.828633 
L 755.32707 -403.85533 
L 754.822331 -406.882026 
L 754.411306 -409.908722 
L 754.121134 -412.935419 
L 753.976388 -415.962115 
L 753.99801 -418.988811 
L 754.202412 -422.015508 
L 754.600771 -425.042204 
L 755.198573 -428.0689 
L 755.99541 -431.095597 
L 756.985044 -434.122293 
L 758.155724 -437.14899 
L 759.490735 -440.175686 
L 760.969135 -443.202382 
L 762.566648 -446.229079 
L 764.256642 -449.255775 
L 766.011165 -452.282471 
L 767.801954 -455.309168 
L 769.601403 -458.335864 
L 771.383419 -461.36256 
L 773.124159 -464.389257 
L 774.802603 -467.415953 
L 776.400969 -470.442649 
L 777.904954 -473.469346 
L 779.303825 -476.496042 
L 780.590347 -479.522738 
L 781.760597 -482.549435 
L 782.813675 -485.576131 
L 783.751332 -488.602828 
L 784.577554 -491.629524 
L 785.298126 -494.65622 
L 785.920184 -497.682917 
L 786.451801 -500.709613 
L 786.901592 -503.736309 
L 787.278378 -506.763006 
L 787.590891 -509.789702 
L 790.009109 -509.789702 
L 790.009109 -509.789702 
L 790.321622 -506.763006 
L 790.698408 -503.736309 
L 791.148199 -500.709613 
L 791.679816 -497.682917 
L 792.301874 -494.65622 
L 793.022446 -491.629524 
L 793.848668 -488.602828 
L 794.786325 -485.576131 
L 795.839403 -482.549435 
L 797.009653 -479.522738 
L 798.296175 -476.496042 
L 799.695046 -473.469346 
L 801.199031 -470.442649 
L 802.797397 -467.415953 
L 804.475841 -464.389257 
L 806.216581 -461.36256 
L 807.998597 -458.335864 
L 809.798046 -455.309168 
L 811.588835 -452.282471 
L 813.343358 -449.255775 
L 815.033352 -446.229079 
L 816.630865 -443.202382 
L 818.109265 -440.175686 
L 819.444276 -437.14899 
L 820.614956 -434.122293 
L 821.60459 -431.095597 
L 822.401427 -428.0689 
L 822.999229 -425.042204 
L 823.397588 -422.015508 
L 823.60199 -418.988811 
L 823.623612 -415.962115 
L 823.478866 -412.935419 
L 823.188694 -409.908722 
L 822.777669 -406.882026 
L 822.27293 -403.85533 
L 821.703026 -400.828633 
L 821.09671 -397.801937 
L 820.48177 -394.775241 
L 819.883933 -391.748544 
L 819.325911 -388.721848 
L 818.826632 -385.695152 
L 818.400673 -382.668455 
L 818.057927 -379.641759 
L 817.80349 -376.615062 
L 817.637774 -373.588366 
L 817.556811 -370.56167 
L 817.552711 -367.534973 
L 817.614262 -364.508277 
L 817.727598 -361.481581 
L 817.876922 -358.454884 
L 818.045239 -355.428188 
L 818.215063 -352.401492 
L 818.36908 -349.374795 
L 818.490743 -346.348099 
L 818.564787 -343.321403 
L 818.577656 -340.294706 
L 818.517848 -337.26801 
L 818.37615 -334.241314 
L 818.145802 -331.214617 
L 817.822563 -328.187921 
L 817.404689 -325.161224 
L 816.892844 -322.134528 
L 816.289926 -319.107832 
L 815.600831 -316.081135 
L 814.832166 -313.054439 
L 813.991916 -310.027743 
L 813.089083 -307.001046 
L 812.133319 -303.97435 
L 811.134566 -300.947654 
L 810.102723 -297.920957 
L 809.047359 -294.894261 
L 807.977474 -291.867565 
L 806.901336 -288.840868 
L 805.826375 -285.814172 
L 804.759151 -282.787475 
L 803.705379 -279.760779 
L 802.669997 -276.734083 
L 801.65727 -273.707386 
L 800.670915 -270.68069 
L 799.714214 -267.653994 
L 798.790124 -264.627297 
L 797.901363 -261.600601 
L 797.050455 -258.573905 
L 796.239752 -255.547208 
L 795.471416 -252.520512 
L 794.747379 -249.493816 
L 794.069283 -246.467119 
L 793.438407 -243.440423 
L 792.855601 -240.413727 
L 792.321225 -237.38703 
L 791.835108 -234.360334 
L 791.396526 -231.333637 
L 791.004209 -228.306941 
L 790.656375 -225.280245 
L 790.350777 -222.253548 
L 790.084779 -219.226852 
L 789.855442 -216.200156 
L 789.659618 -213.173459 
L 789.49404 -210.146763 
z
" id="mb21a4da1d1" style="stroke:#484848;stroke-width:1.5;"/>
    </defs>
    <g clip-path="url(#p8001ba8aef)">
     <use style="fill:#afd5ab;stroke:#484848;stroke-width:1.5;" x="0" xlink:href="#mb21a4da1d1" y="720"/>
    </g>
   </g>
   <g id="matplotlib.axis_1">
    <g id="xtick_1">
     <g id="line2d_1">
      <defs>
       <path d="M 0 0 
L 0 3.5 
" id="mba816e13b9" style="stroke:#000000;stroke-width:0.8;"/>
      </defs>
      <g>
       <use style="stroke:#000000;stroke-width:0.8;" x="193.6" xlink:href="#mba816e13b9" y="640.8"/>
      </g>
     </g>
     <g id="text_1">
      <!-- Player1_healthy -->
      <g transform="translate(153.572656 655.398438)scale(0.1 -0.1)">
       <defs>
        <path d="M 1259 4147 
L 1259 2394 
L 2053 2394 
Q 2494 2394 2734 2622 
Q 2975 2850 2975 3272 
Q 2975 3691 2734 3919 
Q 2494 4147 2053 4147 
L 1259 4147 
z
M 628 4666 
L 2053 4666 
Q 2838 4666 3239 4311 
Q 3641 3956 3641 3272 
Q 3641 2581 3239 2228 
Q 2838 1875 2053 1875 
L 1259 1875 
L 1259 0 
L 628 0 
L 628 4666 
z
" id="DejaVuSans-50" transform="scale(0.015625)"/>
        <path d="M 603 4863 
L 1178 4863 
L 1178 0 
L 603 0 
L 603 4863 
z
" id="DejaVuSans-6c" transform="scale(0.015625)"/>
        <path d="M 2194 1759 
Q 1497 1759 1228 1600 
Q 959 1441 959 1056 
Q 959 750 1161 570 
Q 1363 391 1709 391 
Q 2188 391 2477 730 
Q 2766 1069 2766 1631 
L 2766 1759 
L 2194 1759 
z
M 3341 1997 
L 3341 0 
L 2766 0 
L 2766 531 
Q 2569 213 2275 61 
Q 1981 -91 1556 -91 
Q 1019 -91 701 211 
Q 384 513 384 1019 
Q 384 1609 779 1909 
Q 1175 2209 1959 2209 
L 2766 2209 
L 2766 2266 
Q 2766 2663 2505 2880 
Q 2244 3097 1772 3097 
Q 1472 3097 1187 3025 
Q 903 2953 641 2809 
L 641 3341 
Q 956 3463 1253 3523 
Q 1550 3584 1831 3584 
Q 2591 3584 2966 3190 
Q 3341 2797 3341 1997 
z
" id="DejaVuSans-61" transform="scale(0.015625)"/>
        <path d="M 2059 -325 
Q 1816 -950 1584 -1140 
Q 1353 -1331 966 -1331 
L 506 -1331 
L 506 -850 
L 844 -850 
Q 1081 -850 1212 -737 
Q 1344 -625 1503 -206 
L 1606 56 
L 191 3500 
L 800 3500 
L 1894 763 
L 2988 3500 
L 3597 3500 
L 2059 -325 
z
" id="DejaVuSans-79" transform="scale(0.015625)"/>
        <path d="M 3597 1894 
L 3597 1613 
L 953 1613 
Q 991 1019 1311 708 
Q 1631 397 2203 397 
Q 2534 397 2845 478 
Q 3156 559 3463 722 
L 3463 178 
Q 3153 47 2828 -22 
Q 2503 -91 2169 -91 
Q 1331 -91 842 396 
Q 353 884 353 1716 
Q 353 2575 817 3079 
Q 1281 3584 2069 3584 
Q 2775 3584 3186 3129 
Q 3597 2675 3597 1894 
z
M 3022 2063 
Q 3016 2534 2758 2815 
Q 2500 3097 2075 3097 
Q 1594 3097 1305 2825 
Q 1016 2553 972 2059 
L 3022 2063 
z
" id="DejaVuSans-65" transform="scale(0.015625)"/>
        <path d="M 2631 2963 
Q 2534 3019 2420 3045 
Q 2306 3072 2169 3072 
Q 1681 3072 1420 2755 
Q 1159 2438 1159 1844 
L 1159 0 
L 581 0 
L 581 3500 
L 1159 3500 
L 1159 2956 
Q 1341 3275 1631 3429 
Q 1922 3584 2338 3584 
Q 2397 3584 2469 3576 
Q 2541 3569 2628 3553 
L 2631 2963 
z
" id="DejaVuSans-72" transform="scale(0.015625)"/>
        <path d="M 794 531 
L 1825 531 
L 1825 4091 
L 703 3866 
L 703 4441 
L 1819 4666 
L 2450 4666 
L 2450 531 
L 3481 531 
L 3481 0 
L 794 0 
L 794 531 
z
" id="DejaVuSans-31" transform="scale(0.015625)"/>
        <path d="M 3263 -1063 
L 3263 -1509 
L -63 -1509 
L -63 -1063 
L 3263 -1063 
z
" id="DejaVuSans-5f" transform="scale(0.015625)"/>
        <path d="M 3513 2113 
L 3513 0 
L 2938 0 
L 2938 2094 
Q 2938 2591 2744 2837 
Q 2550 3084 2163 3084 
Q 1697 3084 1428 2787 
Q 1159 2491 1159 1978 
L 1159 0 
L 581 0 
L 581 4863 
L 1159 4863 
L 1159 2956 
Q 1366 3272 1645 3428 
Q 1925 3584 2291 3584 
Q 2894 3584 3203 3211 
Q 3513 2838 3513 2113 
z
" id="DejaVuSans-68" transform="scale(0.015625)"/>
        <path d="M 1172 4494 
L 1172 3500 
L 2356 3500 
L 2356 3053 
L 1172 3053 
L 1172 1153 
Q 1172 725 1289 603 
Q 1406 481 1766 481 
L 2356 481 
L 2356 0 
L 1766 0 
Q 1100 0 847 248 
Q 594 497 594 1153 
L 594 3053 
L 172 3053 
L 172 3500 
L 594 3500 
L 594 4494 
L 1172 4494 
z
" id="DejaVuSans-74" transform="scale(0.015625)"/>
       </defs>
       <use xlink:href="#DejaVuSans-50"/>
       <use x="60.302734" xlink:href="#DejaVuSans-6c"/>
       <use x="88.085938" xlink:href="#DejaVuSans-61"/>
       <use x="149.365234" xlink:href="#DejaVuSans-79"/>
       <use x="208.544922" xlink:href="#DejaVuSans-65"/>
       <use x="270.068359" xlink:href="#DejaVuSans-72"/>
       <use x="311.181641" xlink:href="#DejaVuSans-31"/>
       <use x="374.804688" xlink:href="#DejaVuSans-5f"/>
       <use x="424.804688" xlink:href="#DejaVuSans-68"/>
       <use x="488.183594" xlink:href="#DejaVuSans-65"/>
       <use x="549.707031" xlink:href="#DejaVuSans-61"/>
       <use x="610.986328" xlink:href="#DejaVuSans-6c"/>
       <use x="638.769531" xlink:href="#DejaVuSans-74"/>
       <use x="677.978516" xlink:href="#DejaVuSans-68"/>
       <use x="741.357422" xlink:href="#DejaVuSans-79"/>
      </g>
     </g>
    </g>
    <g id="xtick_2">
     <g id="line2d_2">
      <g>
       <use style="stroke:#000000;stroke-width:0.8;" x="292.8" xlink:href="#mba816e13b9" y="640.8"/>
      </g>
     </g>
     <g id="text_2">
      <!-- biased_A -->
      <g transform="translate(270.396875 655.398438)scale(0.1 -0.1)">
       <defs>
        <path d="M 3116 1747 
Q 3116 2381 2855 2742 
Q 2594 3103 2138 3103 
Q 1681 3103 1420 2742 
Q 1159 2381 1159 1747 
Q 1159 1113 1420 752 
Q 1681 391 2138 391 
Q 2594 391 2855 752 
Q 3116 1113 3116 1747 
z
M 1159 2969 
Q 1341 3281 1617 3432 
Q 1894 3584 2278 3584 
Q 2916 3584 3314 3078 
Q 3713 2572 3713 1747 
Q 3713 922 3314 415 
Q 2916 -91 2278 -91 
Q 1894 -91 1617 61 
Q 1341 213 1159 525 
L 1159 0 
L 581 0 
L 581 4863 
L 1159 4863 
L 1159 2969 
z
" id="DejaVuSans-62" transform="scale(0.015625)"/>
        <path d="M 603 3500 
L 1178 3500 
L 1178 0 
L 603 0 
L 603 3500 
z
M 603 4863 
L 1178 4863 
L 1178 4134 
L 603 4134 
L 603 4863 
z
" id="DejaVuSans-69" transform="scale(0.015625)"/>
        <path d="M 2834 3397 
L 2834 2853 
Q 2591 2978 2328 3040 
Q 2066 3103 1784 3103 
Q 1356 3103 1142 2972 
Q 928 2841 928 2578 
Q 928 2378 1081 2264 
Q 1234 2150 1697 2047 
L 1894 2003 
Q 2506 1872 2764 1633 
Q 3022 1394 3022 966 
Q 3022 478 2636 193 
Q 2250 -91 1575 -91 
Q 1294 -91 989 -36 
Q 684 19 347 128 
L 347 722 
Q 666 556 975 473 
Q 1284 391 1588 391 
Q 1994 391 2212 530 
Q 2431 669 2431 922 
Q 2431 1156 2273 1281 
Q 2116 1406 1581 1522 
L 1381 1569 
Q 847 1681 609 1914 
Q 372 2147 372 2553 
Q 372 3047 722 3315 
Q 1072 3584 1716 3584 
Q 2034 3584 2315 3537 
Q 2597 3491 2834 3397 
z
" id="DejaVuSans-73" transform="scale(0.015625)"/>
        <path d="M 2906 2969 
L 2906 4863 
L 3481 4863 
L 3481 0 
L 2906 0 
L 2906 525 
Q 2725 213 2448 61 
Q 2172 -91 1784 -91 
Q 1150 -91 751 415 
Q 353 922 353 1747 
Q 353 2572 751 3078 
Q 1150 3584 1784 3584 
Q 2172 3584 2448 3432 
Q 2725 3281 2906 2969 
z
M 947 1747 
Q 947 1113 1208 752 
Q 1469 391 1925 391 
Q 2381 391 2643 752 
Q 2906 1113 2906 1747 
Q 2906 2381 2643 2742 
Q 2381 3103 1925 3103 
Q 1469 3103 1208 2742 
Q 947 2381 947 1747 
z
" id="DejaVuSans-64" transform="scale(0.015625)"/>
        <path d="M 2188 4044 
L 1331 1722 
L 3047 1722 
L 2188 4044 
z
M 1831 4666 
L 2547 4666 
L 4325 0 
L 3669 0 
L 3244 1197 
L 1141 1197 
L 716 0 
L 50 0 
L 1831 4666 
z
" id="DejaVuSans-41" transform="scale(0.015625)"/>
       </defs>
       <use xlink:href="#DejaVuSans-62"/>
       <use x="63.476562" xlink:href="#DejaVuSans-69"/>
       <use x="91.259766" xlink:href="#DejaVuSans-61"/>
       <use x="152.539062" xlink:href="#DejaVuSans-73"/>
       <use x="204.638672" xlink:href="#DejaVuSans-65"/>
       <use x="266.162109" xlink:href="#DejaVuSans-64"/>
       <use x="329.638672" xlink:href="#DejaVuSans-5f"/>
       <use x="379.638672" xlink:href="#DejaVuSans-41"/>
      </g>
     </g>
    </g>
    <g id="xtick_3">
     <g id="line2d_3">
      <g>
       <use style="stroke:#000000;stroke-width:0.8;" x="392" xlink:href="#mba816e13b9" y="640.8"/>
      </g>
     </g>
     <g id="text_3">
      <!-- biased_B -->
      <g transform="translate(369.586719 655.398438)scale(0.1 -0.1)">
       <defs>
        <path d="M 1259 2228 
L 1259 519 
L 2272 519 
Q 2781 519 3026 730 
Q 3272 941 3272 1375 
Q 3272 1813 3026 2020 
Q 2781 2228 2272 2228 
L 1259 2228 
z
M 1259 4147 
L 1259 2741 
L 2194 2741 
Q 2656 2741 2882 2914 
Q 3109 3088 3109 3444 
Q 3109 3797 2882 3972 
Q 2656 4147 2194 4147 
L 1259 4147 
z
M 628 4666 
L 2241 4666 
Q 2963 4666 3353 4366 
Q 3744 4066 3744 3513 
Q 3744 3084 3544 2831 
Q 3344 2578 2956 2516 
Q 3422 2416 3680 2098 
Q 3938 1781 3938 1306 
Q 3938 681 3513 340 
Q 3088 0 2303 0 
L 628 0 
L 628 4666 
z
" id="DejaVuSans-42" transform="scale(0.015625)"/>
       </defs>
       <use xlink:href="#DejaVuSans-62"/>
       <use x="63.476562" xlink:href="#DejaVuSans-69"/>
       <use x="91.259766" xlink:href="#DejaVuSans-61"/>
       <use x="152.539062" xlink:href="#DejaVuSans-73"/>
       <use x="204.638672" xlink:href="#DejaVuSans-65"/>
       <use x="266.162109" xlink:href="#DejaVuSans-64"/>
       <use x="329.638672" xlink:href="#DejaVuSans-5f"/>
       <use x="379.638672" xlink:href="#DejaVuSans-42"/>
      </g>
     </g>
    </g>
    <g id="xtick_4">
     <g id="line2d_4">
      <g>
       <use style="stroke:#000000;stroke-width:0.8;" x="491.2" xlink:href="#mba816e13b9" y="640.8"/>
      </g>
     </g>
     <g id="text_4">
      <!-- biased_C -->
      <g transform="translate(468.725781 655.398438)scale(0.1 -0.1)">
       <defs>
        <path d="M 4122 4306 
L 4122 3641 
Q 3803 3938 3442 4084 
Q 3081 4231 2675 4231 
Q 1875 4231 1450 3742 
Q 1025 3253 1025 2328 
Q 1025 1406 1450 917 
Q 1875 428 2675 428 
Q 3081 428 3442 575 
Q 3803 722 4122 1019 
L 4122 359 
Q 3791 134 3420 21 
Q 3050 -91 2638 -91 
Q 1578 -91 968 557 
Q 359 1206 359 2328 
Q 359 3453 968 4101 
Q 1578 4750 2638 4750 
Q 3056 4750 3426 4639 
Q 3797 4528 4122 4306 
z
" id="DejaVuSans-43" transform="scale(0.015625)"/>
       </defs>
       <use xlink:href="#DejaVuSans-62"/>
       <use x="63.476562" xlink:href="#DejaVuSans-69"/>
       <use x="91.259766" xlink:href="#DejaVuSans-61"/>
       <use x="152.539062" xlink:href="#DejaVuSans-73"/>
       <use x="204.638672" xlink:href="#DejaVuSans-65"/>
       <use x="266.162109" xlink:href="#DejaVuSans-64"/>
       <use x="329.638672" xlink:href="#DejaVuSans-5f"/>
       <use x="379.638672" xlink:href="#DejaVuSans-43"/>
      </g>
     </g>
    </g>
    <g id="xtick_5">
     <g id="line2d_5">
      <g>
       <use style="stroke:#000000;stroke-width:0.8;" x="590.4" xlink:href="#mba816e13b9" y="640.8"/>
      </g>
     </g>
     <g id="text_5">
      <!-- biased_D -->
      <g transform="translate(567.567187 655.398438)scale(0.1 -0.1)">
       <defs>
        <path d="M 1259 4147 
L 1259 519 
L 2022 519 
Q 2988 519 3436 956 
Q 3884 1394 3884 2338 
Q 3884 3275 3436 3711 
Q 2988 4147 2022 4147 
L 1259 4147 
z
M 628 4666 
L 1925 4666 
Q 3281 4666 3915 4102 
Q 4550 3538 4550 2338 
Q 4550 1131 3912 565 
Q 3275 0 1925 0 
L 628 0 
L 628 4666 
z
" id="DejaVuSans-44" transform="scale(0.015625)"/>
       </defs>
       <use xlink:href="#DejaVuSans-62"/>
       <use x="63.476562" xlink:href="#DejaVuSans-69"/>
       <use x="91.259766" xlink:href="#DejaVuSans-61"/>
       <use x="152.539062" xlink:href="#DejaVuSans-73"/>
       <use x="204.638672" xlink:href="#DejaVuSans-65"/>
       <use x="266.162109" xlink:href="#DejaVuSans-64"/>
       <use x="329.638672" xlink:href="#DejaVuSans-5f"/>
       <use x="379.638672" xlink:href="#DejaVuSans-44"/>
      </g>
     </g>
    </g>
    <g id="xtick_6">
     <g id="line2d_6">
      <g>
       <use style="stroke:#000000;stroke-width:0.8;" x="689.6" xlink:href="#mba816e13b9" y="640.8"/>
      </g>
     </g>
     <g id="text_6">
      <!-- Type1_depressed -->
      <g transform="translate(646.53125 655.398438)scale(0.1 -0.1)">
       <defs>
        <path d="M -19 4666 
L 3928 4666 
L 3928 4134 
L 2272 4134 
L 2272 0 
L 1638 0 
L 1638 4134 
L -19 4134 
L -19 4666 
z
" id="DejaVuSans-54" transform="scale(0.015625)"/>
        <path d="M 1159 525 
L 1159 -1331 
L 581 -1331 
L 581 3500 
L 1159 3500 
L 1159 2969 
Q 1341 3281 1617 3432 
Q 1894 3584 2278 3584 
Q 2916 3584 3314 3078 
Q 3713 2572 3713 1747 
Q 3713 922 3314 415 
Q 2916 -91 2278 -91 
Q 1894 -91 1617 61 
Q 1341 213 1159 525 
z
M 3116 1747 
Q 3116 2381 2855 2742 
Q 2594 3103 2138 3103 
Q 1681 3103 1420 2742 
Q 1159 2381 1159 1747 
Q 1159 1113 1420 752 
Q 1681 391 2138 391 
Q 2594 391 2855 752 
Q 3116 1113 3116 1747 
z
" id="DejaVuSans-70" transform="scale(0.015625)"/>
       </defs>
       <use xlink:href="#DejaVuSans-54"/>
       <use x="45.458984" xlink:href="#DejaVuSans-79"/>
       <use x="104.638672" xlink:href="#DejaVuSans-70"/>
       <use x="168.115234" xlink:href="#DejaVuSans-65"/>
       <use x="229.638672" xlink:href="#DejaVuSans-31"/>
       <use x="293.261719" xlink:href="#DejaVuSans-5f"/>
       <use x="343.261719" xlink:href="#DejaVuSans-64"/>
       <use x="406.738281" xlink:href="#DejaVuSans-65"/>
       <use x="468.261719" xlink:href="#DejaVuSans-70"/>
       <use x="531.738281" xlink:href="#DejaVuSans-72"/>
       <use x="570.601562" xlink:href="#DejaVuSans-65"/>
       <use x="632.125" xlink:href="#DejaVuSans-73"/>
       <use x="684.224609" xlink:href="#DejaVuSans-73"/>
       <use x="736.324219" xlink:href="#DejaVuSans-65"/>
       <use x="797.847656" xlink:href="#DejaVuSans-64"/>
      </g>
     </g>
    </g>
    <g id="xtick_7">
     <g id="line2d_7">
      <g>
       <use style="stroke:#000000;stroke-width:0.8;" x="788.8" xlink:href="#mba816e13b9" y="640.8"/>
      </g>
     </g>
     <g id="text_7">
      <!-- Type2_depressed -->
      <g transform="translate(745.73125 655.398438)scale(0.1 -0.1)">
       <defs>
        <path d="M 1228 531 
L 3431 531 
L 3431 0 
L 469 0 
L 469 531 
Q 828 903 1448 1529 
Q 2069 2156 2228 2338 
Q 2531 2678 2651 2914 
Q 2772 3150 2772 3378 
Q 2772 3750 2511 3984 
Q 2250 4219 1831 4219 
Q 1534 4219 1204 4116 
Q 875 4013 500 3803 
L 500 4441 
Q 881 4594 1212 4672 
Q 1544 4750 1819 4750 
Q 2544 4750 2975 4387 
Q 3406 4025 3406 3419 
Q 3406 3131 3298 2873 
Q 3191 2616 2906 2266 
Q 2828 2175 2409 1742 
Q 1991 1309 1228 531 
z
" id="DejaVuSans-32" transform="scale(0.015625)"/>
       </defs>
       <use xlink:href="#DejaVuSans-54"/>
       <use x="45.458984" xlink:href="#DejaVuSans-79"/>
       <use x="104.638672" xlink:href="#DejaVuSans-70"/>
       <use x="168.115234" xlink:href="#DejaVuSans-65"/>
       <use x="229.638672" xlink:href="#DejaVuSans-32"/>
       <use x="293.261719" xlink:href="#DejaVuSans-5f"/>
       <use x="343.261719" xlink:href="#DejaVuSans-64"/>
       <use x="406.738281" xlink:href="#DejaVuSans-65"/>
       <use x="468.261719" xlink:href="#DejaVuSans-70"/>
       <use x="531.738281" xlink:href="#DejaVuSans-72"/>
       <use x="570.601562" xlink:href="#DejaVuSans-65"/>
       <use x="632.125" xlink:href="#DejaVuSans-73"/>
       <use x="684.224609" xlink:href="#DejaVuSans-73"/>
       <use x="736.324219" xlink:href="#DejaVuSans-65"/>
       <use x="797.847656" xlink:href="#DejaVuSans-64"/>
      </g>
     </g>
    </g>
    <g id="xtick_8">
     <g id="line2d_8">
      <g>
       <use style="stroke:#000000;stroke-width:0.8;" x="888" xlink:href="#mba816e13b9" y="640.8"/>
      </g>
     </g>
     <g id="text_8">
      <!-- Type1_social_phobia -->
      <g transform="translate(837.050781 655.398438)scale(0.1 -0.1)">
       <defs>
        <path d="M 1959 3097 
Q 1497 3097 1228 2736 
Q 959 2375 959 1747 
Q 959 1119 1226 758 
Q 1494 397 1959 397 
Q 2419 397 2687 759 
Q 2956 1122 2956 1747 
Q 2956 2369 2687 2733 
Q 2419 3097 1959 3097 
z
M 1959 3584 
Q 2709 3584 3137 3096 
Q 3566 2609 3566 1747 
Q 3566 888 3137 398 
Q 2709 -91 1959 -91 
Q 1206 -91 779 398 
Q 353 888 353 1747 
Q 353 2609 779 3096 
Q 1206 3584 1959 3584 
z
" id="DejaVuSans-6f" transform="scale(0.015625)"/>
        <path d="M 3122 3366 
L 3122 2828 
Q 2878 2963 2633 3030 
Q 2388 3097 2138 3097 
Q 1578 3097 1268 2742 
Q 959 2388 959 1747 
Q 959 1106 1268 751 
Q 1578 397 2138 397 
Q 2388 397 2633 464 
Q 2878 531 3122 666 
L 3122 134 
Q 2881 22 2623 -34 
Q 2366 -91 2075 -91 
Q 1284 -91 818 406 
Q 353 903 353 1747 
Q 353 2603 823 3093 
Q 1294 3584 2113 3584 
Q 2378 3584 2631 3529 
Q 2884 3475 3122 3366 
z
" id="DejaVuSans-63" transform="scale(0.015625)"/>
       </defs>
       <use xlink:href="#DejaVuSans-54"/>
       <use x="45.458984" xlink:href="#DejaVuSans-79"/>
       <use x="104.638672" xlink:href="#DejaVuSans-70"/>
       <use x="168.115234" xlink:href="#DejaVuSans-65"/>
       <use x="229.638672" xlink:href="#DejaVuSans-31"/>
       <use x="293.261719" xlink:href="#DejaVuSans-5f"/>
       <use x="343.261719" xlink:href="#DejaVuSans-73"/>
       <use x="395.361328" xlink:href="#DejaVuSans-6f"/>
       <use x="456.542969" xlink:href="#DejaVuSans-63"/>
       <use x="511.523438" xlink:href="#DejaVuSans-69"/>
       <use x="539.306641" xlink:href="#DejaVuSans-61"/>
       <use x="600.585938" xlink:href="#DejaVuSans-6c"/>
       <use x="628.369141" xlink:href="#DejaVuSans-5f"/>
       <use x="678.369141" xlink:href="#DejaVuSans-70"/>
       <use x="741.845703" xlink:href="#DejaVuSans-68"/>
       <use x="805.224609" xlink:href="#DejaVuSans-6f"/>
       <use x="866.40625" xlink:href="#DejaVuSans-62"/>
       <use x="929.882812" xlink:href="#DejaVuSans-69"/>
       <use x="957.666016" xlink:href="#DejaVuSans-61"/>
      </g>
     </g>
    </g>
    <g id="xtick_9">
     <g id="line2d_9">
      <g>
       <use style="stroke:#000000;stroke-width:0.8;" x="987.2" xlink:href="#mba816e13b9" y="640.8"/>
      </g>
     </g>
     <g id="text_9">
      <!-- Type2_social_phobia -->
      <g transform="translate(936.250781 655.398438)scale(0.1 -0.1)">
       <use xlink:href="#DejaVuSans-54"/>
       <use x="45.458984" xlink:href="#DejaVuSans-79"/>
       <use x="104.638672" xlink:href="#DejaVuSans-70"/>
       <use x="168.115234" xlink:href="#DejaVuSans-65"/>
       <use x="229.638672" xlink:href="#DejaVuSans-32"/>
       <use x="293.261719" xlink:href="#DejaVuSans-5f"/>
       <use x="343.261719" xlink:href="#DejaVuSans-73"/>
       <use x="395.361328" xlink:href="#DejaVuSans-6f"/>
       <use x="456.542969" xlink:href="#DejaVuSans-63"/>
       <use x="511.523438" xlink:href="#DejaVuSans-69"/>
       <use x="539.306641" xlink:href="#DejaVuSans-61"/>
       <use x="600.585938" xlink:href="#DejaVuSans-6c"/>
       <use x="628.369141" xlink:href="#DejaVuSans-5f"/>
       <use x="678.369141" xlink:href="#DejaVuSans-70"/>
       <use x="741.845703" xlink:href="#DejaVuSans-68"/>
       <use x="805.224609" xlink:href="#DejaVuSans-6f"/>
       <use x="866.40625" xlink:href="#DejaVuSans-62"/>
       <use x="929.882812" xlink:href="#DejaVuSans-69"/>
       <use x="957.666016" xlink:href="#DejaVuSans-61"/>
      </g>
     </g>
    </g>
   </g>
   <g id="matplotlib.axis_2">
    <g id="ytick_1">
     <g id="line2d_10">
      <defs>
       <path d="M 0 0 
L -3.5 0 
" id="ma7f21ba752" style="stroke:#000000;stroke-width:0.8;"/>
      </defs>
      <g>
       <use style="stroke:#000000;stroke-width:0.8;" x="144" xlink:href="#ma7f21ba752" y="560.570188"/>
      </g>
     </g>
     <g id="text_10">
      <!-- 20 -->
      <g transform="translate(124.275 564.369407)scale(0.1 -0.1)">
       <defs>
        <path d="M 2034 4250 
Q 1547 4250 1301 3770 
Q 1056 3291 1056 2328 
Q 1056 1369 1301 889 
Q 1547 409 2034 409 
Q 2525 409 2770 889 
Q 3016 1369 3016 2328 
Q 3016 3291 2770 3770 
Q 2525 4250 2034 4250 
z
M 2034 4750 
Q 2819 4750 3233 4129 
Q 3647 3509 3647 2328 
Q 3647 1150 3233 529 
Q 2819 -91 2034 -91 
Q 1250 -91 836 529 
Q 422 1150 422 2328 
Q 422 3509 836 4129 
Q 1250 4750 2034 4750 
z
" id="DejaVuSans-30" transform="scale(0.015625)"/>
       </defs>
       <use xlink:href="#DejaVuSans-32"/>
       <use x="63.623047" xlink:href="#DejaVuSans-30"/>
      </g>
     </g>
    </g>
    <g id="ytick_2">
     <g id="line2d_11">
      <g>
       <use style="stroke:#000000;stroke-width:0.8;" x="144" xlink:href="#ma7f21ba752" y="475.23469"/>
      </g>
     </g>
     <g id="text_11">
      <!-- 25 -->
      <g transform="translate(124.275 479.033909)scale(0.1 -0.1)">
       <defs>
        <path d="M 691 4666 
L 3169 4666 
L 3169 4134 
L 1269 4134 
L 1269 2991 
Q 1406 3038 1543 3061 
Q 1681 3084 1819 3084 
Q 2600 3084 3056 2656 
Q 3513 2228 3513 1497 
Q 3513 744 3044 326 
Q 2575 -91 1722 -91 
Q 1428 -91 1123 -41 
Q 819 9 494 109 
L 494 744 
Q 775 591 1075 516 
Q 1375 441 1709 441 
Q 2250 441 2565 725 
Q 2881 1009 2881 1497 
Q 2881 1984 2565 2268 
Q 2250 2553 1709 2553 
Q 1456 2553 1204 2497 
Q 953 2441 691 2322 
L 691 4666 
z
" id="DejaVuSans-35" transform="scale(0.015625)"/>
       </defs>
       <use xlink:href="#DejaVuSans-32"/>
       <use x="63.623047" xlink:href="#DejaVuSans-35"/>
      </g>
     </g>
    </g>
    <g id="ytick_3">
     <g id="line2d_12">
      <g>
       <use style="stroke:#000000;stroke-width:0.8;" x="144" xlink:href="#ma7f21ba752" y="389.899192"/>
      </g>
     </g>
     <g id="text_12">
      <!-- 30 -->
      <g transform="translate(124.275 393.698411)scale(0.1 -0.1)">
       <defs>
        <path d="M 2597 2516 
Q 3050 2419 3304 2112 
Q 3559 1806 3559 1356 
Q 3559 666 3084 287 
Q 2609 -91 1734 -91 
Q 1441 -91 1130 -33 
Q 819 25 488 141 
L 488 750 
Q 750 597 1062 519 
Q 1375 441 1716 441 
Q 2309 441 2620 675 
Q 2931 909 2931 1356 
Q 2931 1769 2642 2001 
Q 2353 2234 1838 2234 
L 1294 2234 
L 1294 2753 
L 1863 2753 
Q 2328 2753 2575 2939 
Q 2822 3125 2822 3475 
Q 2822 3834 2567 4026 
Q 2313 4219 1838 4219 
Q 1578 4219 1281 4162 
Q 984 4106 628 3988 
L 628 4550 
Q 988 4650 1302 4700 
Q 1616 4750 1894 4750 
Q 2613 4750 3031 4423 
Q 3450 4097 3450 3541 
Q 3450 3153 3228 2886 
Q 3006 2619 2597 2516 
z
" id="DejaVuSans-33" transform="scale(0.015625)"/>
       </defs>
       <use xlink:href="#DejaVuSans-33"/>
       <use x="63.623047" xlink:href="#DejaVuSans-30"/>
      </g>
     </g>
    </g>
    <g id="ytick_4">
     <g id="line2d_13">
      <g>
       <use style="stroke:#000000;stroke-width:0.8;" x="144" xlink:href="#ma7f21ba752" y="304.563694"/>
      </g>
     </g>
     <g id="text_13">
      <!-- 35 -->
      <g transform="translate(124.275 308.362912)scale(0.1 -0.1)">
       <use xlink:href="#DejaVuSans-33"/>
       <use x="63.623047" xlink:href="#DejaVuSans-35"/>
      </g>
     </g>
    </g>
    <g id="ytick_5">
     <g id="line2d_14">
      <g>
       <use style="stroke:#000000;stroke-width:0.8;" x="144" xlink:href="#ma7f21ba752" y="219.228195"/>
      </g>
     </g>
     <g id="text_14">
      <!-- 40 -->
      <g transform="translate(124.275 223.027414)scale(0.1 -0.1)">
       <defs>
        <path d="M 2419 4116 
L 825 1625 
L 2419 1625 
L 2419 4116 
z
M 2253 4666 
L 3047 4666 
L 3047 1625 
L 3713 1625 
L 3713 1100 
L 3047 1100 
L 3047 0 
L 2419 0 
L 2419 1100 
L 313 1100 
L 313 1709 
L 2253 4666 
z
" id="DejaVuSans-34" transform="scale(0.015625)"/>
       </defs>
       <use xlink:href="#DejaVuSans-34"/>
       <use x="63.623047" xlink:href="#DejaVuSans-30"/>
      </g>
     </g>
    </g>
    <g id="ytick_6">
     <g id="line2d_15">
      <g>
       <use style="stroke:#000000;stroke-width:0.8;" x="144" xlink:href="#ma7f21ba752" y="133.892697"/>
      </g>
     </g>
     <g id="text_15">
      <!-- 45 -->
      <g transform="translate(124.275 137.691916)scale(0.1 -0.1)">
       <use xlink:href="#DejaVuSans-34"/>
       <use x="63.623047" xlink:href="#DejaVuSans-35"/>
      </g>
     </g>
    </g>
   </g>
   <g id="line2d_16">
    <path clip-path="url(#p8001ba8aef)" d="M 193.6 483.76824 
L 193.6 287.496594 
" style="fill:none;stroke:#484848;stroke-linecap:square;stroke-width:1.5;"/>
   </g>
   <g id="line2d_17">
    <path clip-path="url(#p8001ba8aef)" d="M 193.6 415.499841 
L 193.6 364.298542 
" style="fill:none;stroke:#484848;stroke-linecap:square;stroke-width:4.5;"/>
   </g>
   <g id="line2d_18">
    <path clip-path="url(#p8001ba8aef)" d="M 292.8 466.70114 
L 292.8 287.496594 
" style="fill:none;stroke:#484848;stroke-linecap:square;stroke-width:1.5;"/>
   </g>
   <g id="line2d_19">
    <path clip-path="url(#p8001ba8aef)" d="M 292.8 434.700328 
L 292.8 364.298542 
" style="fill:none;stroke:#484848;stroke-linecap:square;stroke-width:4.5;"/>
   </g>
   <g id="line2d_20">
    <path clip-path="url(#p8001ba8aef)" d="M 392 526.435989 
L 392 278.963044 
" style="fill:none;stroke:#484848;stroke-linecap:square;stroke-width:1.5;"/>
   </g>
   <g id="line2d_21">
    <path clip-path="url(#p8001ba8aef)" d="M 392 443.233878 
L 392 313.097243 
" style="fill:none;stroke:#484848;stroke-linecap:square;stroke-width:4.5;"/>
   </g>
   <g id="line2d_22">
    <path clip-path="url(#p8001ba8aef)" d="M 451.52 560.570188 
L 530.88 560.570188 
" style="fill:none;stroke:#484848;stroke-linecap:square;stroke-width:1.5;"/>
   </g>
   <g id="line2d_23">
    <path clip-path="url(#p8001ba8aef)" d="M 590.4 492.30179 
L 590.4 330.164343 
" style="fill:none;stroke:#484848;stroke-linecap:square;stroke-width:1.5;"/>
   </g>
   <g id="line2d_24">
    <path clip-path="url(#p8001ba8aef)" d="M 590.4 451.767428 
L 590.4 338.697893 
" style="fill:none;stroke:#484848;stroke-linecap:square;stroke-width:4.5;"/>
   </g>
   <g id="line2d_25">
    <path clip-path="url(#p8001ba8aef)" d="M 689.6 492.30179 
L 689.6 270.429494 
" style="fill:none;stroke:#484848;stroke-linecap:square;stroke-width:1.5;"/>
   </g>
   <g id="line2d_26">
    <path clip-path="url(#p8001ba8aef)" d="M 689.6 383.499029 
L 689.6 308.830469 
" style="fill:none;stroke:#484848;stroke-linecap:square;stroke-width:4.5;"/>
   </g>
   <g id="line2d_27">
    <path clip-path="url(#p8001ba8aef)" d="M 788.8 449.634041 
L 788.8 270.429494 
" style="fill:none;stroke:#484848;stroke-linecap:square;stroke-width:1.5;"/>
   </g>
   <g id="line2d_28">
    <path clip-path="url(#p8001ba8aef)" d="M 788.8 398.432742 
L 788.8 296.030144 
" style="fill:none;stroke:#484848;stroke-linecap:square;stroke-width:4.5;"/>
   </g>
   <g id="line2d_29">
    <path clip-path="url(#p8001ba8aef)" d="M 848.32 560.570188 
L 927.68 560.570188 
" style="fill:none;stroke:#484848;stroke-linecap:square;stroke-width:1.5;"/>
   </g>
   <g id="line2d_30">
    <path clip-path="url(#p8001ba8aef)" d="M 947.52 560.570188 
L 1026.88 560.570188 
" style="fill:none;stroke:#484848;stroke-linecap:square;stroke-width:1.5;"/>
   </g>
   <g id="patch_3">
    <path d="M 144 640.8 
L 144 86.4 
" style="fill:none;stroke:#000000;stroke-linecap:square;stroke-linejoin:miter;stroke-width:0.8;"/>
   </g>
   <g id="patch_4">
    <path d="M 1036.8 640.8 
L 1036.8 86.4 
" style="fill:none;stroke:#000000;stroke-linecap:square;stroke-linejoin:miter;stroke-width:0.8;"/>
   </g>
   <g id="patch_5">
    <path d="M 144 640.8 
L 1036.8 640.8 
" style="fill:none;stroke:#000000;stroke-linecap:square;stroke-linejoin:miter;stroke-width:0.8;"/>
   </g>
   <g id="patch_6">
    <path d="M 144 86.4 
L 1036.8 86.4 
" style="fill:none;stroke:#000000;stroke-linecap:square;stroke-linejoin:miter;stroke-width:0.8;"/>
   </g>
   <g id="PathCollection_1">
    <defs>
     <path d="M 0 1.5 
C 0.397805 1.5 0.77937 1.341951 1.06066 1.06066 
C 1.341951 0.77937 1.5 0.397805 1.5 0 
C 1.5 -0.397805 1.341951 -0.77937 1.06066 -1.06066 
C 0.77937 -1.341951 0.397805 -1.5 0 -1.5 
C -0.397805 -1.5 -0.77937 -1.341951 -1.06066 -1.06066 
C -1.341951 -0.77937 -1.5 -0.397805 -1.5 0 
C -1.5 0.397805 -1.341951 0.77937 -1.06066 1.06066 
C -0.77937 1.341951 -0.397805 1.5 0 1.5 
z
" id="mfc607e6564" style="stroke:#484848;"/>
    </defs>
    <g clip-path="url(#p8001ba8aef)">
     <use style="fill:#ffffff;stroke:#484848;" x="193.6" xlink:href="#mfc607e6564" y="389.899192"/>
    </g>
   </g>
   <g id="PathCollection_2">
    <g clip-path="url(#p8001ba8aef)">
     <use style="fill:#ffffff;stroke:#484848;" x="292.8" xlink:href="#mfc607e6564" y="415.499841"/>
    </g>
   </g>
   <g id="PathCollection_3">
    <g clip-path="url(#p8001ba8aef)">
     <use style="fill:#ffffff;stroke:#484848;" x="392" xlink:href="#mfc607e6564" y="364.298542"/>
    </g>
   </g>
   <g id="PathCollection_4">
    <g clip-path="url(#p8001ba8aef)">
     <use style="fill:#ffffff;stroke:#484848;" x="590.4" xlink:href="#mfc607e6564" y="415.499841"/>
    </g>
   </g>
   <g id="PathCollection_5">
    <g clip-path="url(#p8001ba8aef)">
     <use style="fill:#ffffff;stroke:#484848;" x="689.6" xlink:href="#mfc607e6564" y="347.231443"/>
    </g>
   </g>
   <g id="PathCollection_6">
    <g clip-path="url(#p8001ba8aef)">
     <use style="fill:#ffffff;stroke:#484848;" x="788.8" xlink:href="#mfc607e6564" y="347.231443"/>
    </g>
   </g>
   <g id="text_16">
    <!-- Rewards earned per agent type - cooperative context first -->
    <g transform="translate(226.825781 80.4)scale(0.25 -0.25)">
     <defs>
      <path d="M 2841 2188 
Q 3044 2119 3236 1894 
Q 3428 1669 3622 1275 
L 4263 0 
L 3584 0 
L 2988 1197 
Q 2756 1666 2539 1819 
Q 2322 1972 1947 1972 
L 1259 1972 
L 1259 0 
L 628 0 
L 628 4666 
L 2053 4666 
Q 2853 4666 3247 4331 
Q 3641 3997 3641 3322 
Q 3641 2881 3436 2590 
Q 3231 2300 2841 2188 
z
M 1259 4147 
L 1259 2491 
L 2053 2491 
Q 2509 2491 2742 2702 
Q 2975 2913 2975 3322 
Q 2975 3731 2742 3939 
Q 2509 4147 2053 4147 
L 1259 4147 
z
" id="DejaVuSans-52" transform="scale(0.015625)"/>
      <path d="M 269 3500 
L 844 3500 
L 1563 769 
L 2278 3500 
L 2956 3500 
L 3675 769 
L 4391 3500 
L 4966 3500 
L 4050 0 
L 3372 0 
L 2619 2869 
L 1863 0 
L 1184 0 
L 269 3500 
z
" id="DejaVuSans-77" transform="scale(0.015625)"/>
      <path id="DejaVuSans-20" transform="scale(0.015625)"/>
      <path d="M 3513 2113 
L 3513 0 
L 2938 0 
L 2938 2094 
Q 2938 2591 2744 2837 
Q 2550 3084 2163 3084 
Q 1697 3084 1428 2787 
Q 1159 2491 1159 1978 
L 1159 0 
L 581 0 
L 581 3500 
L 1159 3500 
L 1159 2956 
Q 1366 3272 1645 3428 
Q 1925 3584 2291 3584 
Q 2894 3584 3203 3211 
Q 3513 2838 3513 2113 
z
" id="DejaVuSans-6e" transform="scale(0.015625)"/>
      <path d="M 2906 1791 
Q 2906 2416 2648 2759 
Q 2391 3103 1925 3103 
Q 1463 3103 1205 2759 
Q 947 2416 947 1791 
Q 947 1169 1205 825 
Q 1463 481 1925 481 
Q 2391 481 2648 825 
Q 2906 1169 2906 1791 
z
M 3481 434 
Q 3481 -459 3084 -895 
Q 2688 -1331 1869 -1331 
Q 1566 -1331 1297 -1286 
Q 1028 -1241 775 -1147 
L 775 -588 
Q 1028 -725 1275 -790 
Q 1522 -856 1778 -856 
Q 2344 -856 2625 -561 
Q 2906 -266 2906 331 
L 2906 616 
Q 2728 306 2450 153 
Q 2172 0 1784 0 
Q 1141 0 747 490 
Q 353 981 353 1791 
Q 353 2603 747 3093 
Q 1141 3584 1784 3584 
Q 2172 3584 2450 3431 
Q 2728 3278 2906 2969 
L 2906 3500 
L 3481 3500 
L 3481 434 
z
" id="DejaVuSans-67" transform="scale(0.015625)"/>
      <path d="M 313 2009 
L 1997 2009 
L 1997 1497 
L 313 1497 
L 313 2009 
z
" id="DejaVuSans-2d" transform="scale(0.015625)"/>
      <path d="M 191 3500 
L 800 3500 
L 1894 563 
L 2988 3500 
L 3597 3500 
L 2284 0 
L 1503 0 
L 191 3500 
z
" id="DejaVuSans-76" transform="scale(0.015625)"/>
      <path d="M 3513 3500 
L 2247 1797 
L 3578 0 
L 2900 0 
L 1881 1375 
L 863 0 
L 184 0 
L 1544 1831 
L 300 3500 
L 978 3500 
L 1906 2253 
L 2834 3500 
L 3513 3500 
z
" id="DejaVuSans-78" transform="scale(0.015625)"/>
      <path d="M 2375 4863 
L 2375 4384 
L 1825 4384 
Q 1516 4384 1395 4259 
Q 1275 4134 1275 3809 
L 1275 3500 
L 2222 3500 
L 2222 3053 
L 1275 3053 
L 1275 0 
L 697 0 
L 697 3053 
L 147 3053 
L 147 3500 
L 697 3500 
L 697 3744 
Q 697 4328 969 4595 
Q 1241 4863 1831 4863 
L 2375 4863 
z
" id="DejaVuSans-66" transform="scale(0.015625)"/>
     </defs>
     <use xlink:href="#DejaVuSans-52"/>
     <use x="64.982422" xlink:href="#DejaVuSans-65"/>
     <use x="126.505859" xlink:href="#DejaVuSans-77"/>
     <use x="208.292969" xlink:href="#DejaVuSans-61"/>
     <use x="269.572266" xlink:href="#DejaVuSans-72"/>
     <use x="308.935547" xlink:href="#DejaVuSans-64"/>
     <use x="372.412109" xlink:href="#DejaVuSans-73"/>
     <use x="424.511719" xlink:href="#DejaVuSans-20"/>
     <use x="456.298828" xlink:href="#DejaVuSans-65"/>
     <use x="517.822266" xlink:href="#DejaVuSans-61"/>
     <use x="579.101562" xlink:href="#DejaVuSans-72"/>
     <use x="618.464844" xlink:href="#DejaVuSans-6e"/>
     <use x="681.84375" xlink:href="#DejaVuSans-65"/>
     <use x="743.367188" xlink:href="#DejaVuSans-64"/>
     <use x="806.84375" xlink:href="#DejaVuSans-20"/>
     <use x="838.630859" xlink:href="#DejaVuSans-70"/>
     <use x="902.107422" xlink:href="#DejaVuSans-65"/>
     <use x="963.630859" xlink:href="#DejaVuSans-72"/>
     <use x="1004.744141" xlink:href="#DejaVuSans-20"/>
     <use x="1036.53125" xlink:href="#DejaVuSans-61"/>
     <use x="1097.810547" xlink:href="#DejaVuSans-67"/>
     <use x="1161.287109" xlink:href="#DejaVuSans-65"/>
     <use x="1222.810547" xlink:href="#DejaVuSans-6e"/>
     <use x="1286.189453" xlink:href="#DejaVuSans-74"/>
     <use x="1325.398438" xlink:href="#DejaVuSans-20"/>
     <use x="1357.185547" xlink:href="#DejaVuSans-74"/>
     <use x="1396.394531" xlink:href="#DejaVuSans-79"/>
     <use x="1455.574219" xlink:href="#DejaVuSans-70"/>
     <use x="1519.050781" xlink:href="#DejaVuSans-65"/>
     <use x="1580.574219" xlink:href="#DejaVuSans-20"/>
     <use x="1612.361328" xlink:href="#DejaVuSans-2d"/>
     <use x="1648.445312" xlink:href="#DejaVuSans-20"/>
     <use x="1680.232422" xlink:href="#DejaVuSans-63"/>
     <use x="1735.212891" xlink:href="#DejaVuSans-6f"/>
     <use x="1796.394531" xlink:href="#DejaVuSans-6f"/>
     <use x="1857.576172" xlink:href="#DejaVuSans-70"/>
     <use x="1921.052734" xlink:href="#DejaVuSans-65"/>
     <use x="1982.576172" xlink:href="#DejaVuSans-72"/>
     <use x="2023.689453" xlink:href="#DejaVuSans-61"/>
     <use x="2084.96875" xlink:href="#DejaVuSans-74"/>
     <use x="2124.177734" xlink:href="#DejaVuSans-69"/>
     <use x="2151.960938" xlink:href="#DejaVuSans-76"/>
     <use x="2211.140625" xlink:href="#DejaVuSans-65"/>
     <use x="2272.664062" xlink:href="#DejaVuSans-20"/>
     <use x="2304.451172" xlink:href="#DejaVuSans-63"/>
     <use x="2359.431641" xlink:href="#DejaVuSans-6f"/>
     <use x="2420.613281" xlink:href="#DejaVuSans-6e"/>
     <use x="2483.992188" xlink:href="#DejaVuSans-74"/>
     <use x="2523.201172" xlink:href="#DejaVuSans-65"/>
     <use x="2582.974609" xlink:href="#DejaVuSans-78"/>
     <use x="2642.154297" xlink:href="#DejaVuSans-74"/>
     <use x="2681.363281" xlink:href="#DejaVuSans-20"/>
     <use x="2713.150391" xlink:href="#DejaVuSans-66"/>
     <use x="2748.355469" xlink:href="#DejaVuSans-69"/>
     <use x="2776.138672" xlink:href="#DejaVuSans-72"/>
     <use x="2817.251953" xlink:href="#DejaVuSans-73"/>
     <use x="2869.351562" xlink:href="#DejaVuSans-74"/>
    </g>
   </g>
  </g>
 </g>
 <defs>
  <clipPath id="p8001ba8aef">
   <rect height="554.4" width="892.8" x="144" y="86.4"/>
  </clipPath>
 </defs>
</svg>
