<?xml version="1.0" encoding="utf-8" standalone="no"?>
<!DOCTYPE svg PUBLIC "-//W3C//DTD SVG 1.1//EN"
  "http://www.w3.org/Graphics/SVG/1.1/DTD/svg11.dtd">
<svg height="720pt" version="1.1" viewBox="0 0 1152 720" width="1152pt" xmlns="http://www.w3.org/2000/svg" xmlns:xlink="http://www.w3.org/1999/xlink">
 <metadata>
  <rdf:RDF xmlns:cc="http://creativecommons.org/ns#" xmlns:dc="http://purl.org/dc/elements/1.1/" xmlns:rdf="http://www.w3.org/1999/02/22-rdf-syntax-ns#">
   <cc:Work>
    <dc:type rdf:resource="http://purl.org/dc/dcmitype/StillImage"/>
    <dc:date>2024-06-11T17:03:56.775799</dc:date>
    <dc:format>image/svg+xml</dc:format>
    <dc:creator>
     <cc:Agent>
      <dc:title>Matplotlib v3.4.3, https://matplotlib.org/</dc:title>
     </cc:Agent>
    </dc:creator>
   </cc:Work>
  </rdf:RDF>
 </metadata>
 <defs>
  <style type="text/css">*{stroke-linecap:butt;stroke-linejoin:round;}</style>
 </defs>
 <g id="figure_1">
  <g id="patch_1">
   <path d="M 0 720 
L 1152 720 
L 1152 0 
L 0 0 
z
" style="fill:#ffffff;"/>
  </g>
  <g id="axes_1">
   <g id="patch_2">
    <path d="M 144 640.8 
L 1036.8 640.8 
L 1036.8 86.4 
L 144 86.4 
z
" style="fill:#ffffff;"/>
   </g>
   <g id="PolyCollection_1">
    <defs>
     <path d="M 194.2419 -222.872997 
L 192.9581 -222.872997 
L 192.790146 -225.403877 
L 192.586671 -227.934757 
L 192.342404 -230.465637 
L 192.051824 -232.996517 
L 191.70927 -235.527397 
L 191.30909 -238.058277 
L 190.845806 -240.589157 
L 190.314318 -243.120038 
L 189.71012 -245.650918 
L 189.029538 -248.181798 
L 188.269977 -250.712678 
L 187.430163 -253.243558 
L 186.510376 -255.774438 
L 185.51265 -258.305318 
L 184.440935 -260.836198 
L 183.301201 -263.367078 
L 182.101475 -265.897958 
L 180.85179 -268.428838 
L 179.564053 -270.959718 
L 178.251818 -273.490598 
L 176.929968 -276.021478 
L 175.614322 -278.552358 
L 174.321177 -281.083238 
L 173.066803 -283.614118 
L 171.866928 -286.144998 
L 170.736235 -288.675878 
L 169.687899 -291.206758 
L 168.733197 -293.737638 
L 167.881217 -296.268518 
L 167.138669 -298.799398 
L 166.509829 -301.330278 
L 165.996586 -303.861158 
L 165.598612 -306.392038 
L 165.313606 -308.922919 
L 165.137608 -311.453799 
L 165.065339 -313.984679 
L 165.090544 -316.515559 
L 165.2063 -319.046439 
L 165.405281 -321.577319 
L 165.67994 -324.108199 
L 166.022634 -326.639079 
L 166.425658 -329.169959 
L 166.881239 -331.700839 
L 167.381471 -334.231719 
L 167.918247 -336.762599 
L 168.483191 -339.293479 
L 169.067634 -341.824359 
L 169.66263 -344.355239 
L 170.259051 -346.886119 
L 170.847746 -349.416999 
L 171.419776 -351.947879 
L 171.966704 -354.478759 
L 172.48092 -357.009639 
L 172.955991 -359.540519 
L 173.386987 -362.071399 
L 173.770781 -364.602279 
L 174.106271 -367.133159 
L 174.394526 -369.664039 
L 174.638824 -372.194919 
L 174.844583 -374.7258 
L 175.01918 -377.25668 
L 175.171668 -379.78756 
L 175.312403 -382.31844 
L 175.452598 -384.84932 
L 175.603832 -387.3802 
L 175.777541 -389.91108 
L 175.984515 -392.44196 
L 176.234425 -394.97284 
L 176.535416 -397.50372 
L 176.893767 -400.0346 
L 177.313654 -402.56548 
L 177.797006 -405.09636 
L 178.343469 -407.62724 
L 178.950477 -410.15812 
L 179.613408 -412.689 
L 180.325829 -415.21988 
L 181.079802 -417.75076 
L 181.866235 -420.28164 
L 182.675264 -422.81252 
L 183.496638 -425.3434 
L 184.320088 -427.87428 
L 185.135676 -430.40516 
L 185.934099 -432.93604 
L 186.706935 -435.46692 
L 187.446844 -437.9978 
L 188.147701 -440.528681 
L 188.80467 -443.059561 
L 189.414226 -445.590441 
L 189.974125 -448.121321 
L 190.48333 -450.652201 
L 190.941906 -453.183081 
L 191.350885 -455.713961 
L 191.712121 -458.244841 
L 192.02813 -460.775721 
L 192.301931 -463.306601 
L 192.536896 -465.837481 
L 192.736608 -468.368361 
L 192.904731 -470.899241 
L 193.044904 -473.430121 
L 194.155096 -473.430121 
L 194.155096 -473.430121 
L 194.295269 -470.899241 
L 194.463392 -468.368361 
L 194.663104 -465.837481 
L 194.898069 -463.306601 
L 195.17187 -460.775721 
L 195.487879 -458.244841 
L 195.849115 -455.713961 
L 196.258094 -453.183081 
L 196.71667 -450.652201 
L 197.225875 -448.121321 
L 197.785774 -445.590441 
L 198.39533 -443.059561 
L 199.052299 -440.528681 
L 199.753156 -437.9978 
L 200.493065 -435.46692 
L 201.265901 -432.93604 
L 202.064324 -430.40516 
L 202.879912 -427.87428 
L 203.703362 -425.3434 
L 204.524736 -422.81252 
L 205.333765 -420.28164 
L 206.120198 -417.75076 
L 206.874171 -415.21988 
L 207.586592 -412.689 
L 208.249523 -410.15812 
L 208.856531 -407.62724 
L 209.402994 -405.09636 
L 209.886346 -402.56548 
L 210.306233 -400.0346 
L 210.664584 -397.50372 
L 210.965575 -394.97284 
L 211.215485 -392.44196 
L 211.422459 -389.91108 
L 211.596168 -387.3802 
L 211.747402 -384.84932 
L 211.887597 -382.31844 
L 212.028332 -379.78756 
L 212.18082 -377.25668 
L 212.355417 -374.7258 
L 212.561176 -372.194919 
L 212.805474 -369.664039 
L 213.093729 -367.133159 
L 213.429219 -364.602279 
L 213.813013 -362.071399 
L 214.244009 -359.540519 
L 214.71908 -357.009639 
L 215.233296 -354.478759 
L 215.780224 -351.947879 
L 216.352254 -349.416999 
L 216.940949 -346.886119 
L 217.53737 -344.355239 
L 218.132366 -341.824359 
L 218.716809 -339.293479 
L 219.281753 -336.762599 
L 219.818529 -334.231719 
L 220.318761 -331.700839 
L 220.774342 -329.169959 
L 221.177366 -326.639079 
L 221.52006 -324.108199 
L 221.794719 -321.577319 
L 221.9937 -319.046439 
L 222.109456 -316.515559 
L 222.134661 -313.984679 
L 222.062392 -311.453799 
L 221.886394 -308.922919 
L 221.601388 -306.392038 
L 221.203414 -303.861158 
L 220.690171 -301.330278 
L 220.061331 -298.799398 
L 219.318783 -296.268518 
L 218.466803 -293.737638 
L 217.512101 -291.206758 
L 216.463765 -288.675878 
L 215.333072 -286.144998 
L 214.133197 -283.614118 
L 212.878823 -281.083238 
L 211.585678 -278.552358 
L 210.270032 -276.021478 
L 208.948182 -273.490598 
L 207.635947 -270.959718 
L 206.34821 -268.428838 
L 205.098525 -265.897958 
L 203.898799 -263.367078 
L 202.759065 -260.836198 
L 201.68735 -258.305318 
L 200.689624 -255.774438 
L 199.769837 -253.243558 
L 198.930023 -250.712678 
L 198.170462 -248.181798 
L 197.48988 -245.650918 
L 196.885682 -243.120038 
L 196.354194 -240.589157 
L 195.89091 -238.058277 
L 195.49073 -235.527397 
L 195.148176 -232.996517 
L 194.857596 -230.465637 
L 194.613329 -227.934757 
L 194.409854 -225.403877 
L 194.2419 -222.872997 
z
" id="m6bbdcd2391" style="stroke:#484848;stroke-width:1.5;"/>
    </defs>
    <g clip-path="url(#p11a349cc9a)">
     <use style="fill:#c1505d;stroke:#484848;stroke-width:1.5;" x="0" xlink:href="#m6bbdcd2391" y="720"/>
    </g>
   </g>
   <g id="PolyCollection_2">
    <defs>
     <path d="M 293.351034 -218.104865 
L 292.248966 -218.104865 
L 292.102593 -220.95075 
L 291.925062 -223.796634 
L 291.711812 -226.642519 
L 291.458099 -229.488403 
L 291.159105 -232.334288 
L 290.810055 -235.180172 
L 290.40637 -238.026057 
L 289.943824 -240.871941 
L 289.418716 -243.717826 
L 288.828053 -246.56371 
L 288.169721 -249.409595 
L 287.442666 -252.255479 
L 286.64704 -255.101364 
L 285.784341 -257.947248 
L 284.857513 -260.793133 
L 283.87101 -263.639017 
L 282.830824 -266.484902 
L 281.744453 -269.330786 
L 280.620833 -272.17667 
L 279.470209 -275.022555 
L 278.303962 -277.868439 
L 277.13438 -280.714324 
L 275.9744 -283.560208 
L 274.837304 -286.406093 
L 273.736395 -289.251977 
L 272.684657 -292.097862 
L 271.694409 -294.943746 
L 270.776966 -297.789631 
L 269.942331 -300.635515 
L 269.19891 -303.4814 
L 268.55328 -306.327284 
L 268.010008 -309.173169 
L 267.571544 -312.019053 
L 267.23818 -314.864938 
L 267.008085 -317.710822 
L 266.877421 -320.556707 
L 266.840531 -323.402591 
L 266.890191 -326.248476 
L 267.017927 -329.09436 
L 267.214364 -331.940244 
L 267.469619 -334.786129 
L 267.773683 -337.632013 
L 268.116808 -340.477898 
L 268.489854 -343.323782 
L 268.884588 -346.169667 
L 269.293917 -349.015551 
L 269.712043 -351.861436 
L 270.13453 -354.70732 
L 270.558287 -357.553205 
L 270.981468 -360.399089 
L 271.403299 -363.244974 
L 271.823854 -366.090858 
L 272.243796 -368.936743 
L 272.664112 -371.782627 
L 273.085859 -374.628512 
L 273.509949 -377.474396 
L 273.936987 -380.320281 
L 274.36718 -383.166165 
L 274.800318 -386.012049 
L 275.235823 -388.857934 
L 275.672862 -391.703818 
L 276.110506 -394.549703 
L 276.547908 -397.395587 
L 276.984485 -400.241472 
L 277.420084 -403.087356 
L 277.855091 -405.933241 
L 278.2905 -408.779125 
L 278.727902 -411.62501 
L 279.16941 -414.470894 
L 279.617517 -417.316779 
L 280.07491 -420.162663 
L 280.54424 -423.008548 
L 281.02788 -425.854432 
L 281.527695 -428.700317 
L 282.044832 -431.546201 
L 282.579555 -434.392086 
L 283.131148 -437.23797 
L 283.697868 -440.083855 
L 284.276976 -442.929739 
L 284.864832 -445.775623 
L 285.457035 -448.621508 
L 286.048623 -451.467392 
L 286.634289 -454.313277 
L 287.208612 -457.159161 
L 287.766293 -460.005046 
L 288.302368 -462.85093 
L 288.812391 -465.696815 
L 289.292592 -468.542699 
L 289.739975 -471.388584 
L 290.152389 -474.234468 
L 290.528539 -477.080353 
L 290.867969 -479.926237 
L 291.171001 -482.772122 
L 291.438652 -485.618006 
L 291.672527 -488.463891 
L 291.874702 -491.309775 
L 292.0476 -494.15566 
L 292.193876 -497.001544 
L 292.316298 -499.847429 
L 293.283702 -499.847429 
L 293.283702 -499.847429 
L 293.406124 -497.001544 
L 293.5524 -494.15566 
L 293.725298 -491.309775 
L 293.927473 -488.463891 
L 294.161348 -485.618006 
L 294.428999 -482.772122 
L 294.732031 -479.926237 
L 295.071461 -477.080353 
L 295.447611 -474.234468 
L 295.860025 -471.388584 
L 296.307408 -468.542699 
L 296.787609 -465.696815 
L 297.297632 -462.85093 
L 297.833707 -460.005046 
L 298.391388 -457.159161 
L 298.965711 -454.313277 
L 299.551377 -451.467392 
L 300.142965 -448.621508 
L 300.735168 -445.775623 
L 301.323024 -442.929739 
L 301.902132 -440.083855 
L 302.468852 -437.23797 
L 303.020445 -434.392086 
L 303.555168 -431.546201 
L 304.072305 -428.700317 
L 304.57212 -425.854432 
L 305.05576 -423.008548 
L 305.52509 -420.162663 
L 305.982483 -417.316779 
L 306.43059 -414.470894 
L 306.872098 -411.62501 
L 307.3095 -408.779125 
L 307.744909 -405.933241 
L 308.179916 -403.087356 
L 308.615515 -400.241472 
L 309.052092 -397.395587 
L 309.489494 -394.549703 
L 309.927138 -391.703818 
L 310.364177 -388.857934 
L 310.799682 -386.012049 
L 311.23282 -383.166165 
L 311.663013 -380.320281 
L 312.090051 -377.474396 
L 312.514141 -374.628512 
L 312.935888 -371.782627 
L 313.356204 -368.936743 
L 313.776146 -366.090858 
L 314.196701 -363.244974 
L 314.618532 -360.399089 
L 315.041713 -357.553205 
L 315.46547 -354.70732 
L 315.887957 -351.861436 
L 316.306083 -349.015551 
L 316.715412 -346.169667 
L 317.110146 -343.323782 
L 317.483192 -340.477898 
L 317.826317 -337.632013 
L 318.130381 -334.786129 
L 318.385636 -331.940244 
L 318.582073 -329.09436 
L 318.709809 -326.248476 
L 318.759469 -323.402591 
L 318.722579 -320.556707 
L 318.591915 -317.710822 
L 318.36182 -314.864938 
L 318.028456 -312.019053 
L 317.589992 -309.173169 
L 317.04672 -306.327284 
L 316.40109 -303.4814 
L 315.657669 -300.635515 
L 314.823034 -297.789631 
L 313.905591 -294.943746 
L 312.915343 -292.097862 
L 311.863605 -289.251977 
L 310.762696 -286.406093 
L 309.6256 -283.560208 
L 308.46562 -280.714324 
L 307.296038 -277.868439 
L 306.129791 -275.022555 
L 304.979167 -272.17667 
L 303.855547 -269.330786 
L 302.769176 -266.484902 
L 301.72899 -263.639017 
L 300.742487 -260.793133 
L 299.815659 -257.947248 
L 298.95296 -255.101364 
L 298.157334 -252.255479 
L 297.430279 -249.409595 
L 296.771947 -246.56371 
L 296.181284 -243.717826 
L 295.656176 -240.871941 
L 295.19363 -238.026057 
L 294.789945 -235.180172 
L 294.440895 -232.334288 
L 294.141901 -229.488403 
L 293.888188 -226.642519 
L 293.674938 -223.796634 
L 293.497407 -220.95075 
L 293.351034 -218.104865 
z
" id="m3fc96a3d7e" style="stroke:#484848;stroke-width:1.5;"/>
    </defs>
    <g clip-path="url(#p11a349cc9a)">
     <use style="fill:#de7959;stroke:#484848;stroke-width:1.5;" x="0" xlink:href="#m3fc96a3d7e" y="720"/>
    </g>
   </g>
   <g id="PolyCollection_3">
    <defs>
     <path d="M 392.792376 -196.148997 
L 391.207624 -196.148997 
L 390.99042 -200.313148 
L 390.727129 -204.4773 
L 390.4118 -208.641451 
L 390.038687 -212.805603 
L 389.602505 -216.969755 
L 389.098731 -221.133906 
L 388.523905 -225.298058 
L 387.875932 -229.462209 
L 387.154358 -233.626361 
L 386.360602 -237.790512 
L 385.498124 -241.954664 
L 384.572512 -246.118815 
L 383.591474 -250.282967 
L 382.564729 -254.447118 
L 381.50379 -258.61127 
L 380.421657 -262.775422 
L 379.332415 -266.939573 
L 378.250783 -271.103725 
L 377.191612 -275.267876 
L 376.169381 -279.432028 
L 375.197717 -283.596179 
L 374.288962 -287.760331 
L 373.453823 -291.924482 
L 372.701126 -296.088634 
L 372.037672 -300.252785 
L 371.468228 -304.416937 
L 370.995612 -308.581089 
L 370.620891 -312.74524 
L 370.343653 -316.909392 
L 370.16232 -321.073543 
L 370.074486 -325.237695 
L 370.077233 -329.401846 
L 370.167404 -333.565998 
L 370.3418 -337.730149 
L 370.597296 -341.894301 
L 370.930852 -346.058453 
L 371.339441 -350.222604 
L 371.819886 -354.386756 
L 372.368652 -358.550907 
L 372.981596 -362.715059 
L 373.653727 -366.87921 
L 374.378997 -371.043362 
L 375.150158 -375.207513 
L 375.958702 -379.371665 
L 376.794915 -383.535816 
L 377.648029 -387.699968 
L 378.506494 -391.86412 
L 379.358334 -396.028271 
L 380.191578 -400.192423 
L 380.994735 -404.356574 
L 381.757276 -408.520726 
L 382.470092 -412.684877 
L 383.125888 -416.849029 
L 383.71949 -421.01318 
L 384.248038 -425.177332 
L 384.711046 -429.341483 
L 385.110327 -433.505635 
L 385.449792 -437.669787 
L 385.735125 -441.833938 
L 385.973372 -445.99809 
L 386.172468 -450.162241 
L 386.340738 -454.326393 
L 386.486409 -458.490544 
L 386.617173 -462.654696 
L 386.739824 -466.818847 
L 386.86 -470.982999 
L 386.982032 -475.14715 
L 387.108918 -479.311302 
L 387.242396 -483.475454 
L 387.383105 -487.639605 
L 387.53082 -491.803757 
L 387.684712 -495.967908 
L 387.843616 -500.13206 
L 388.006279 -504.296211 
L 388.171554 -508.460363 
L 388.338545 -512.624514 
L 388.506671 -516.788666 
L 388.675676 -520.952818 
L 388.84557 -525.116969 
L 389.01654 -529.281121 
L 389.188824 -533.445272 
L 389.362589 -537.609424 
L 389.53782 -541.773575 
L 389.714232 -545.937727 
L 389.891222 -550.101878 
L 390.067863 -554.26603 
L 390.242932 -558.430181 
L 390.414973 -562.594333 
L 390.582393 -566.758485 
L 390.743556 -570.922636 
L 390.896894 -575.086788 
L 391.040998 -579.250939 
L 391.174702 -583.415091 
L 391.297134 -587.579242 
L 391.407756 -591.743394 
L 391.506363 -595.907545 
L 391.59307 -600.071697 
L 391.668279 -604.235848 
L 391.732629 -608.4 
L 392.267371 -608.4 
L 392.267371 -608.4 
L 392.331721 -604.235848 
L 392.40693 -600.071697 
L 392.493637 -595.907545 
L 392.592244 -591.743394 
L 392.702866 -587.579242 
L 392.825298 -583.415091 
L 392.959002 -579.250939 
L 393.103106 -575.086788 
L 393.256444 -570.922636 
L 393.417607 -566.758485 
L 393.585027 -562.594333 
L 393.757068 -558.430181 
L 393.932137 -554.26603 
L 394.108778 -550.101878 
L 394.285768 -545.937727 
L 394.46218 -541.773575 
L 394.637411 -537.609424 
L 394.811176 -533.445272 
L 394.98346 -529.281121 
L 395.15443 -525.116969 
L 395.324324 -520.952818 
L 395.493329 -516.788666 
L 395.661455 -512.624514 
L 395.828446 -508.460363 
L 395.993721 -504.296211 
L 396.156384 -500.13206 
L 396.315288 -495.967908 
L 396.46918 -491.803757 
L 396.616895 -487.639605 
L 396.757604 -483.475454 
L 396.891082 -479.311302 
L 397.017968 -475.14715 
L 397.14 -470.982999 
L 397.260176 -466.818847 
L 397.382827 -462.654696 
L 397.513591 -458.490544 
L 397.659262 -454.326393 
L 397.827532 -450.162241 
L 398.026628 -445.99809 
L 398.264875 -441.833938 
L 398.550208 -437.669787 
L 398.889673 -433.505635 
L 399.288954 -429.341483 
L 399.751962 -425.177332 
L 400.28051 -421.01318 
L 400.874112 -416.849029 
L 401.529908 -412.684877 
L 402.242724 -408.520726 
L 403.005265 -404.356574 
L 403.808422 -400.192423 
L 404.641666 -396.028271 
L 405.493506 -391.86412 
L 406.351971 -387.699968 
L 407.205085 -383.535816 
L 408.041298 -379.371665 
L 408.849842 -375.207513 
L 409.621003 -371.043362 
L 410.346273 -366.87921 
L 411.018404 -362.715059 
L 411.631348 -358.550907 
L 412.180114 -354.386756 
L 412.660559 -350.222604 
L 413.069148 -346.058453 
L 413.402704 -341.894301 
L 413.6582 -337.730149 
L 413.832596 -333.565998 
L 413.922767 -329.401846 
L 413.925514 -325.237695 
L 413.83768 -321.073543 
L 413.656347 -316.909392 
L 413.379109 -312.74524 
L 413.004388 -308.581089 
L 412.531772 -304.416937 
L 411.962328 -300.252785 
L 411.298874 -296.088634 
L 410.546177 -291.924482 
L 409.711038 -287.760331 
L 408.802283 -283.596179 
L 407.830619 -279.432028 
L 406.808388 -275.267876 
L 405.749217 -271.103725 
L 404.667585 -266.939573 
L 403.578343 -262.775422 
L 402.49621 -258.61127 
L 401.435271 -254.447118 
L 400.408526 -250.282967 
L 399.427488 -246.118815 
L 398.501876 -241.954664 
L 397.639398 -237.790512 
L 396.845642 -233.626361 
L 396.124068 -229.462209 
L 395.476095 -225.298058 
L 394.901269 -221.133906 
L 394.397495 -216.969755 
L 393.961313 -212.805603 
L 393.5882 -208.641451 
L 393.272871 -204.4773 
L 393.00958 -200.313148 
L 392.792376 -196.148997 
z
" id="m9468540916" style="stroke:#484848;stroke-width:1.5;"/>
    </defs>
    <g clip-path="url(#p11a349cc9a)">
     <use style="fill:#e9ad74;stroke:#484848;stroke-width:1.5;" x="0" xlink:href="#m9468540916" y="720"/>
    </g>
   </g>
   <g id="PolyCollection_4">
    <defs>
     <path d="M 491.871349 -133.196497 
L 490.528651 -133.196497 
L 490.343196 -136.591417 
L 490.119204 -139.986336 
L 489.852315 -143.381256 
L 489.5386 -146.776175 
L 489.174799 -150.171095 
L 488.758563 -153.566014 
L 488.288679 -156.960934 
L 487.765241 -160.355853 
L 487.18978 -163.750773 
L 486.565298 -167.145692 
L 485.896232 -170.540612 
L 485.188321 -173.935531 
L 484.448392 -177.330451 
L 483.684078 -180.72537 
L 482.903485 -184.12029 
L 482.11484 -187.515209 
L 481.326144 -190.910129 
L 480.54486 -194.305048 
L 479.777651 -197.699968 
L 479.0302 -201.094887 
L 478.307093 -204.489807 
L 477.611784 -207.884726 
L 476.946624 -211.279645 
L 476.312927 -214.674565 
L 475.711069 -218.069484 
L 475.140596 -221.464404 
L 474.600321 -224.859323 
L 474.088415 -228.254243 
L 473.602482 -231.649162 
L 473.139634 -235.044082 
L 472.696579 -238.439001 
L 472.269724 -241.833921 
L 471.855328 -245.22884 
L 471.449701 -248.62376 
L 471.049454 -252.018679 
L 470.651796 -255.413599 
L 470.254855 -258.808518 
L 469.858013 -262.203438 
L 469.462205 -265.598357 
L 469.070172 -268.993277 
L 468.686616 -272.388196 
L 468.31825 -275.783116 
L 467.973709 -279.178035 
L 467.66333 -282.572955 
L 467.398793 -285.967874 
L 467.192644 -289.362794 
L 467.057725 -292.757713 
L 467.006545 -296.152633 
L 467.05063 -299.547552 
L 467.199887 -302.942471 
L 467.462035 -306.337391 
L 467.842118 -309.73231 
L 468.342146 -313.12723 
L 468.960871 -316.522149 
L 469.693716 -319.917069 
L 470.532851 -323.311988 
L 471.46741 -326.706908 
L 472.483848 -330.101827 
L 473.566391 -333.496747 
L 474.697582 -336.891666 
L 475.85888 -340.286586 
L 477.031295 -343.681505 
L 478.196028 -347.076425 
L 479.33509 -350.471344 
L 480.431886 -353.866264 
L 481.471731 -357.261183 
L 482.44229 -360.656103 
L 483.333915 -364.051022 
L 484.139877 -367.445942 
L 484.856473 -370.840861 
L 485.483014 -374.235781 
L 486.021679 -377.6307 
L 486.477255 -381.02562 
L 486.856774 -384.420539 
L 487.16905 -387.815458 
L 487.424163 -391.210378 
L 487.632899 -394.605297 
L 487.806191 -398.000217 
L 487.954584 -401.395136 
L 488.087758 -404.790056 
L 488.214138 -408.184975 
L 488.340601 -411.579895 
L 488.472309 -414.974814 
L 488.612648 -418.369734 
L 488.76329 -421.764653 
L 488.924348 -425.159573 
L 489.094617 -428.554492 
L 489.271861 -431.949412 
L 489.453135 -435.344331 
L 489.635105 -438.739251 
L 489.814349 -442.13417 
L 489.987617 -445.52909 
L 490.152033 -448.924009 
L 490.305249 -452.318929 
L 490.445521 -455.713848 
L 490.571741 -459.108768 
L 490.683413 -462.503687 
L 490.780593 -465.898607 
L 490.863802 -469.293526 
L 491.536198 -469.293526 
L 491.536198 -469.293526 
L 491.619407 -465.898607 
L 491.716587 -462.503687 
L 491.828259 -459.108768 
L 491.954479 -455.713848 
L 492.094751 -452.318929 
L 492.247967 -448.924009 
L 492.412383 -445.52909 
L 492.585651 -442.13417 
L 492.764895 -438.739251 
L 492.946865 -435.344331 
L 493.128139 -431.949412 
L 493.305383 -428.554492 
L 493.475652 -425.159573 
L 493.63671 -421.764653 
L 493.787352 -418.369734 
L 493.927691 -414.974814 
L 494.059399 -411.579895 
L 494.185862 -408.184975 
L 494.312242 -404.790056 
L 494.445416 -401.395136 
L 494.593809 -398.000217 
L 494.767101 -394.605297 
L 494.975837 -391.210378 
L 495.23095 -387.815458 
L 495.543226 -384.420539 
L 495.922745 -381.02562 
L 496.378321 -377.6307 
L 496.916986 -374.235781 
L 497.543527 -370.840861 
L 498.260123 -367.445942 
L 499.066085 -364.051022 
L 499.95771 -360.656103 
L 500.928269 -357.261183 
L 501.968114 -353.866264 
L 503.06491 -350.471344 
L 504.203972 -347.076425 
L 505.368705 -343.681505 
L 506.54112 -340.286586 
L 507.702418 -336.891666 
L 508.833609 -333.496747 
L 509.916152 -330.101827 
L 510.93259 -326.706908 
L 511.867149 -323.311988 
L 512.706284 -319.917069 
L 513.439129 -316.522149 
L 514.057854 -313.12723 
L 514.557882 -309.73231 
L 514.937965 -306.337391 
L 515.200113 -302.942471 
L 515.34937 -299.547552 
L 515.393455 -296.152633 
L 515.342275 -292.757713 
L 515.207356 -289.362794 
L 515.001207 -285.967874 
L 514.73667 -282.572955 
L 514.426291 -279.178035 
L 514.08175 -275.783116 
L 513.713384 -272.388196 
L 513.329828 -268.993277 
L 512.937795 -265.598357 
L 512.541987 -262.203438 
L 512.145145 -258.808518 
L 511.748204 -255.413599 
L 511.350546 -252.018679 
L 510.950299 -248.62376 
L 510.544672 -245.22884 
L 510.130276 -241.833921 
L 509.703421 -238.439001 
L 509.260366 -235.044082 
L 508.797518 -231.649162 
L 508.311585 -228.254243 
L 507.799679 -224.859323 
L 507.259404 -221.464404 
L 506.688931 -218.069484 
L 506.087073 -214.674565 
L 505.453376 -211.279645 
L 504.788216 -207.884726 
L 504.092907 -204.489807 
L 503.3698 -201.094887 
L 502.622349 -197.699968 
L 501.85514 -194.305048 
L 501.073856 -190.910129 
L 500.28516 -187.515209 
L 499.496515 -184.12029 
L 498.715922 -180.72537 
L 497.951608 -177.330451 
L 497.211679 -173.935531 
L 496.503768 -170.540612 
L 495.834702 -167.145692 
L 495.21022 -163.750773 
L 494.634759 -160.355853 
L 494.111321 -156.960934 
L 493.641437 -153.566014 
L 493.225201 -150.171095 
L 492.8614 -146.776175 
L 492.547685 -143.381256 
L 492.280796 -139.986336 
L 492.056804 -136.591417 
L 491.871349 -133.196497 
z
" id="m4ce7378668" style="stroke:#484848;stroke-width:1.5;"/>
    </defs>
    <g clip-path="url(#p11a349cc9a)">
     <use style="fill:#f0d999;stroke:#484848;stroke-width:1.5;" x="0" xlink:href="#m4ce7378668" y="720"/>
    </g>
   </g>
   <g id="PolyCollection_5">
    <defs>
     <path d="M 591.113484 -221.912468 
L 589.686516 -221.912468 
L 589.502988 -223.806717 
L 589.282213 -225.700966 
L 589.01919 -227.595215 
L 588.708817 -229.489464 
L 588.346012 -231.383713 
L 587.925859 -233.277962 
L 587.443771 -235.172211 
L 586.895668 -237.06646 
L 586.27817 -238.960709 
L 585.588791 -240.854958 
L 584.826141 -242.749207 
L 583.990122 -244.643456 
L 583.082104 -246.537705 
L 582.105081 -248.431954 
L 581.063795 -250.326203 
L 579.9648 -252.220452 
L 578.816481 -254.114701 
L 577.628985 -256.00895 
L 576.414079 -257.903199 
L 575.184915 -259.797449 
L 573.955703 -261.691698 
L 572.741304 -263.585947 
L 571.556742 -265.480196 
L 570.416668 -267.374445 
L 569.334792 -269.268694 
L 568.323325 -271.162943 
L 567.39245 -273.057192 
L 566.549877 -274.951441 
L 565.80049 -276.84569 
L 565.14613 -278.739939 
L 564.585514 -280.634188 
L 564.114307 -282.528437 
L 563.72532 -284.422686 
L 563.408842 -286.316935 
L 563.153051 -288.211184 
L 562.944497 -290.105433 
L 562.768603 -291.999682 
L 562.610173 -293.893931 
L 562.453867 -295.788181 
L 562.284647 -297.68243 
L 562.088178 -299.576679 
L 561.851196 -301.470928 
L 561.561857 -303.365177 
L 561.210088 -305.259426 
L 560.787946 -307.153675 
L 560.29001 -309.047924 
L 559.713788 -310.942173 
L 559.06014 -312.836422 
L 558.333671 -314.730671 
L 557.543064 -316.62492 
L 556.701294 -318.519169 
L 555.825672 -320.413418 
L 554.937659 -322.307667 
L 554.062419 -324.201916 
L 553.228098 -326.096165 
L 552.464815 -327.990414 
L 551.803425 -329.884663 
L 551.274106 -331.778912 
L 550.904852 -333.673162 
L 550.72 -335.567411 
L 550.738872 -337.46166 
L 550.974675 -339.355909 
L 551.433722 -341.250158 
L 552.115064 -343.144407 
L 553.010556 -345.038656 
L 554.105349 -346.932905 
L 555.378783 -348.827154 
L 556.805588 -350.721403 
L 558.357309 -352.615652 
L 560.003827 -354.509901 
L 561.714864 -356.40415 
L 563.461364 -358.298399 
L 565.216655 -360.192648 
L 566.957318 -362.086897 
L 568.663747 -363.981146 
L 570.32038 -365.875395 
L 571.915626 -367.769644 
L 573.441557 -369.663893 
L 574.893399 -371.558143 
L 576.268924 -373.452392 
L 577.567793 -375.346641 
L 578.790931 -377.24089 
L 579.939974 -379.135139 
L 581.016835 -381.029388 
L 582.02339 -382.923637 
L 582.961303 -384.817886 
L 583.831974 -386.712135 
L 584.636569 -388.606384 
L 585.376133 -390.500633 
L 586.051729 -392.394882 
L 586.664593 -394.289131 
L 587.216269 -396.18338 
L 587.708712 -398.077629 
L 588.144349 -399.971878 
L 588.526093 -401.866127 
L 588.85731 -403.760376 
L 589.141752 -405.654625 
L 589.383458 -407.548875 
L 589.586643 -409.443124 
L 591.213357 -409.443124 
L 591.213357 -409.443124 
L 591.416542 -407.548875 
L 591.658248 -405.654625 
L 591.94269 -403.760376 
L 592.273907 -401.866127 
L 592.655651 -399.971878 
L 593.091288 -398.077629 
L 593.583731 -396.18338 
L 594.135407 -394.289131 
L 594.748271 -392.394882 
L 595.423867 -390.500633 
L 596.163431 -388.606384 
L 596.968026 -386.712135 
L 597.838697 -384.817886 
L 598.77661 -382.923637 
L 599.783165 -381.029388 
L 600.860026 -379.135139 
L 602.009069 -377.24089 
L 603.232207 -375.346641 
L 604.531076 -373.452392 
L 605.906601 -371.558143 
L 607.358443 -369.663893 
L 608.884374 -367.769644 
L 610.47962 -365.875395 
L 612.136253 -363.981146 
L 613.842682 -362.086897 
L 615.583345 -360.192648 
L 617.338636 -358.298399 
L 619.085136 -356.40415 
L 620.796173 -354.509901 
L 622.442691 -352.615652 
L 623.994412 -350.721403 
L 625.421217 -348.827154 
L 626.694651 -346.932905 
L 627.789444 -345.038656 
L 628.684936 -343.144407 
L 629.366278 -341.250158 
L 629.825325 -339.355909 
L 630.061128 -337.46166 
L 630.08 -335.567411 
L 629.895148 -333.673162 
L 629.525894 -331.778912 
L 628.996575 -329.884663 
L 628.335185 -327.990414 
L 627.571902 -326.096165 
L 626.737581 -324.201916 
L 625.862341 -322.307667 
L 624.974328 -320.413418 
L 624.098706 -318.519169 
L 623.256936 -316.62492 
L 622.466329 -314.730671 
L 621.73986 -312.836422 
L 621.086212 -310.942173 
L 620.50999 -309.047924 
L 620.012054 -307.153675 
L 619.589912 -305.259426 
L 619.238143 -303.365177 
L 618.948804 -301.470928 
L 618.711822 -299.576679 
L 618.515353 -297.68243 
L 618.346133 -295.788181 
L 618.189827 -293.893931 
L 618.031397 -291.999682 
L 617.855503 -290.105433 
L 617.646949 -288.211184 
L 617.391158 -286.316935 
L 617.07468 -284.422686 
L 616.685693 -282.528437 
L 616.214486 -280.634188 
L 615.65387 -278.739939 
L 614.99951 -276.84569 
L 614.250123 -274.951441 
L 613.40755 -273.057192 
L 612.476675 -271.162943 
L 611.465208 -269.268694 
L 610.383332 -267.374445 
L 609.243258 -265.480196 
L 608.058696 -263.585947 
L 606.844297 -261.691698 
L 605.615085 -259.797449 
L 604.385921 -257.903199 
L 603.171015 -256.00895 
L 601.983519 -254.114701 
L 600.8352 -252.220452 
L 599.736205 -250.326203 
L 598.694919 -248.431954 
L 597.717896 -246.537705 
L 596.809878 -244.643456 
L 595.973859 -242.749207 
L 595.211209 -240.854958 
L 594.52183 -238.960709 
L 593.904332 -237.06646 
L 593.356229 -235.172211 
L 592.874141 -233.277962 
L 592.453988 -231.383713 
L 592.091183 -229.489464 
L 591.78081 -227.595215 
L 591.517787 -225.700966 
L 591.297012 -223.806717 
L 591.113484 -221.912468 
z
" id="me4c580da47" style="stroke:#484848;stroke-width:1.5;"/>
    </defs>
    <g clip-path="url(#p11a349cc9a)">
     <use style="fill:#f7f7c6;stroke:#484848;stroke-width:1.5;" x="0" xlink:href="#me4c580da47" y="720"/>
    </g>
   </g>
   <g id="PolyCollection_6">
    <defs>
     <path d="M 689.882872 -147.853496 
L 689.317128 -147.853496 
L 689.247503 -151.899922 
L 689.165408 -155.946347 
L 689.069772 -159.992773 
L 688.959666 -164.039198 
L 688.834335 -168.085624 
L 688.693217 -172.132049 
L 688.535951 -176.178475 
L 688.362349 -180.2249 
L 688.172366 -184.271326 
L 687.96603 -188.317751 
L 687.743369 -192.364177 
L 687.504324 -196.410602 
L 687.248656 -200.457028 
L 686.975875 -204.503453 
L 686.68518 -208.549879 
L 686.375443 -212.596304 
L 686.045226 -216.64273 
L 685.692851 -220.689155 
L 685.316523 -224.735581 
L 684.914483 -228.782006 
L 684.485209 -232.828432 
L 684.027625 -236.874857 
L 683.541308 -240.921283 
L 683.026676 -244.967708 
L 682.485127 -249.014134 
L 681.919116 -253.06056 
L 681.332152 -257.106985 
L 680.728712 -261.153411 
L 680.114069 -265.199836 
L 679.49404 -269.246262 
L 678.874683 -273.292687 
L 678.26195 -277.339113 
L 677.66134 -281.385538 
L 677.077573 -285.431964 
L 676.514328 -289.478389 
L 675.974054 -293.524815 
L 675.457904 -297.57124 
L 674.965771 -301.617666 
L 674.496464 -305.664091 
L 674.047985 -309.710517 
L 673.617906 -313.756942 
L 673.203807 -317.803368 
L 672.803744 -321.849793 
L 672.416691 -325.896219 
L 672.042926 -329.942644 
L 671.684314 -333.98907 
L 671.344455 -338.035495 
L 671.028668 -342.081921 
L 670.743816 -346.128346 
L 670.497965 -350.174772 
L 670.29991 -354.221197 
L 670.158595 -358.267623 
L 670.082481 -362.314048 
L 670.078901 -366.360474 
L 670.153478 -370.406899 
L 670.309628 -374.453325 
L 670.548217 -378.49975 
L 670.867382 -382.546176 
L 671.262535 -386.592602 
L 671.726556 -390.639027 
L 672.250151 -394.685453 
L 672.822348 -398.731878 
L 673.431095 -402.778304 
L 674.063906 -406.824729 
L 674.708517 -410.871155 
L 675.353507 -414.91758 
L 675.988826 -418.964006 
L 676.606226 -423.010431 
L 677.199549 -427.056857 
L 677.764874 -431.103282 
L 678.300513 -435.149708 
L 678.806874 -439.196133 
L 679.286196 -443.242559 
L 679.742197 -447.288984 
L 680.179639 -451.33541 
L 680.603875 -455.381835 
L 681.020372 -459.428261 
L 681.434278 -463.474686 
L 681.850026 -467.521112 
L 682.271029 -471.567537 
L 682.699459 -475.613963 
L 683.13613 -479.660388 
L 683.580484 -483.706814 
L 684.030678 -487.753239 
L 684.483749 -491.799665 
L 684.935854 -495.84609 
L 685.382552 -499.892516 
L 685.819104 -503.938941 
L 686.240777 -507.985367 
L 686.643121 -512.031792 
L 687.022205 -516.078218 
L 687.374805 -520.124643 
L 687.698518 -524.171069 
L 687.991831 -528.217495 
L 688.254112 -532.26392 
L 688.485564 -536.310346 
L 688.687127 -540.356771 
L 688.860358 -544.403197 
L 689.007291 -548.449622 
L 690.192709 -548.449622 
L 690.192709 -548.449622 
L 690.339642 -544.403197 
L 690.512873 -540.356771 
L 690.714436 -536.310346 
L 690.945888 -532.26392 
L 691.208169 -528.217495 
L 691.501482 -524.171069 
L 691.825195 -520.124643 
L 692.177795 -516.078218 
L 692.556879 -512.031792 
L 692.959223 -507.985367 
L 693.380896 -503.938941 
L 693.817448 -499.892516 
L 694.264146 -495.84609 
L 694.716251 -491.799665 
L 695.169322 -487.753239 
L 695.619516 -483.706814 
L 696.06387 -479.660388 
L 696.500541 -475.613963 
L 696.928971 -471.567537 
L 697.349974 -467.521112 
L 697.765722 -463.474686 
L 698.179628 -459.428261 
L 698.596125 -455.381835 
L 699.020361 -451.33541 
L 699.457803 -447.288984 
L 699.913804 -443.242559 
L 700.393126 -439.196133 
L 700.899487 -435.149708 
L 701.435126 -431.103282 
L 702.000451 -427.056857 
L 702.593774 -423.010431 
L 703.211174 -418.964006 
L 703.846493 -414.91758 
L 704.491483 -410.871155 
L 705.136094 -406.824729 
L 705.768905 -402.778304 
L 706.377652 -398.731878 
L 706.949849 -394.685453 
L 707.473444 -390.639027 
L 707.937465 -386.592602 
L 708.332618 -382.546176 
L 708.651783 -378.49975 
L 708.890372 -374.453325 
L 709.046522 -370.406899 
L 709.121099 -366.360474 
L 709.117519 -362.314048 
L 709.041405 -358.267623 
L 708.90009 -354.221197 
L 708.702035 -350.174772 
L 708.456184 -346.128346 
L 708.171332 -342.081921 
L 707.855545 -338.035495 
L 707.515686 -333.98907 
L 707.157074 -329.942644 
L 706.783309 -325.896219 
L 706.396256 -321.849793 
L 705.996193 -317.803368 
L 705.582094 -313.756942 
L 705.152015 -309.710517 
L 704.703536 -305.664091 
L 704.234229 -301.617666 
L 703.742096 -297.57124 
L 703.225946 -293.524815 
L 702.685672 -289.478389 
L 702.122427 -285.431964 
L 701.53866 -281.385538 
L 700.93805 -277.339113 
L 700.325317 -273.292687 
L 699.70596 -269.246262 
L 699.085931 -265.199836 
L 698.471288 -261.153411 
L 697.867848 -257.106985 
L 697.280884 -253.06056 
L 696.714873 -249.014134 
L 696.173324 -244.967708 
L 695.658692 -240.921283 
L 695.172375 -236.874857 
L 694.714791 -232.828432 
L 694.285517 -228.782006 
L 693.883477 -224.735581 
L 693.507149 -220.689155 
L 693.154774 -216.64273 
L 692.824557 -212.596304 
L 692.51482 -208.549879 
L 692.224125 -204.503453 
L 691.951344 -200.457028 
L 691.695676 -196.410602 
L 691.456631 -192.364177 
L 691.23397 -188.317751 
L 691.027634 -184.271326 
L 690.837651 -180.2249 
L 690.664049 -176.178475 
L 690.506783 -172.132049 
L 690.365665 -168.085624 
L 690.240334 -164.039198 
L 690.130228 -159.992773 
L 690.034592 -155.946347 
L 689.952497 -151.899922 
L 689.882872 -147.853496 
z
" id="me16b9c9b95" style="stroke:#484848;stroke-width:1.5;"/>
    </defs>
    <g clip-path="url(#p11a349cc9a)">
     <use style="fill:#dee9a4;stroke:#484848;stroke-width:1.5;" x="0" xlink:href="#me16b9c9b95" y="720"/>
    </g>
   </g>
   <g id="PolyCollection_7">
    <defs>
     <path d="M 790.033268 -241.533617 
L 787.566732 -241.533617 
L 787.295092 -243.687515 
L 786.978886 -245.841413 
L 786.614439 -247.995311 
L 786.198558 -250.149208 
L 785.728714 -252.303106 
L 785.203221 -254.457004 
L 784.621395 -256.610902 
L 783.983703 -258.7648 
L 783.291866 -260.918698 
L 782.548919 -263.072595 
L 781.759222 -265.226493 
L 780.928406 -267.380391 
L 780.063259 -269.534289 
L 779.171545 -271.688187 
L 778.261779 -273.842084 
L 777.34294 -275.995982 
L 776.424164 -278.14988 
L 775.514416 -280.303778 
L 774.622166 -282.457676 
L 773.75508 -284.611574 
L 772.919769 -286.765471 
L 772.121574 -288.919369 
L 771.364439 -291.073267 
L 770.65085 -293.227165 
L 769.981863 -295.381063 
L 769.357199 -297.53496 
L 768.77542 -299.688858 
L 768.234151 -301.842756 
L 767.730337 -303.996654 
L 767.26053 -306.150552 
L 766.821157 -308.30445 
L 766.408776 -310.458347 
L 766.020287 -312.612245 
L 765.653097 -314.766143 
L 765.305213 -316.920041 
L 764.97528 -319.073939 
L 764.662558 -321.227836 
L 764.366837 -323.381734 
L 764.088317 -325.535632 
L 763.827456 -327.68953 
L 763.584809 -329.843428 
L 763.360867 -331.997325 
L 763.155911 -334.151223 
L 762.969907 -336.305121 
L 762.802432 -338.459019 
L 762.65264 -340.612917 
L 762.519286 -342.766815 
L 762.400783 -344.920712 
L 762.2953 -347.07461 
L 762.200884 -349.228508 
L 762.115609 -351.382406 
L 762.037727 -353.536304 
L 761.965822 -355.690201 
L 761.89895 -357.844099 
L 761.836765 -359.997997 
L 761.779621 -362.151895 
L 761.728644 -364.305793 
L 761.685782 -366.459691 
L 761.653815 -368.613588 
L 761.636343 -370.767486 
L 761.63774 -372.921384 
L 761.66308 -375.075282 
L 761.718035 -377.22918 
L 761.80874 -379.383077 
L 761.941641 -381.536975 
L 762.123305 -383.690873 
L 762.360214 -385.844771 
L 762.65854 -387.998669 
L 763.023902 -390.152567 
L 763.461118 -392.306464 
L 763.973963 -394.460362 
L 764.564941 -396.61426 
L 765.235079 -398.768158 
L 765.983771 -400.922056 
L 766.808661 -403.075953 
L 767.7056 -405.229851 
L 768.668662 -407.383749 
L 769.690238 -409.537647 
L 770.761205 -411.691545 
L 771.87115 -413.845442 
L 773.008668 -415.99934 
L 774.16169 -418.153238 
L 775.31785 -420.307136 
L 776.464855 -422.461034 
L 777.590856 -424.614932 
L 778.684782 -426.768829 
L 779.736639 -428.922727 
L 780.737758 -431.076625 
L 781.680971 -433.230523 
L 782.560726 -435.384421 
L 783.373126 -437.538318 
L 784.115908 -439.692216 
L 784.788359 -441.846114 
L 785.391183 -444.000012 
L 785.926326 -446.15391 
L 786.396784 -448.307808 
L 786.806382 -450.461705 
L 787.159566 -452.615603 
L 787.461188 -454.769501 
L 790.138812 -454.769501 
L 790.138812 -454.769501 
L 790.440434 -452.615603 
L 790.793618 -450.461705 
L 791.203216 -448.307808 
L 791.673674 -446.15391 
L 792.208817 -444.000012 
L 792.811641 -441.846114 
L 793.484092 -439.692216 
L 794.226874 -437.538318 
L 795.039274 -435.384421 
L 795.919029 -433.230523 
L 796.862242 -431.076625 
L 797.863361 -428.922727 
L 798.915218 -426.768829 
L 800.009144 -424.614932 
L 801.135145 -422.461034 
L 802.28215 -420.307136 
L 803.43831 -418.153238 
L 804.591332 -415.99934 
L 805.72885 -413.845442 
L 806.838795 -411.691545 
L 807.909762 -409.537647 
L 808.931338 -407.383749 
L 809.8944 -405.229851 
L 810.791339 -403.075953 
L 811.616229 -400.922056 
L 812.364921 -398.768158 
L 813.035059 -396.61426 
L 813.626037 -394.460362 
L 814.138882 -392.306464 
L 814.576098 -390.152567 
L 814.94146 -387.998669 
L 815.239786 -385.844771 
L 815.476695 -383.690873 
L 815.658359 -381.536975 
L 815.79126 -379.383077 
L 815.881965 -377.22918 
L 815.93692 -375.075282 
L 815.96226 -372.921384 
L 815.963657 -370.767486 
L 815.946185 -368.613588 
L 815.914218 -366.459691 
L 815.871356 -364.305793 
L 815.820379 -362.151895 
L 815.763235 -359.997997 
L 815.70105 -357.844099 
L 815.634178 -355.690201 
L 815.562273 -353.536304 
L 815.484391 -351.382406 
L 815.399116 -349.228508 
L 815.3047 -347.07461 
L 815.199217 -344.920712 
L 815.080714 -342.766815 
L 814.94736 -340.612917 
L 814.797568 -338.459019 
L 814.630093 -336.305121 
L 814.444089 -334.151223 
L 814.239133 -331.997325 
L 814.015191 -329.843428 
L 813.772544 -327.68953 
L 813.511683 -325.535632 
L 813.233163 -323.381734 
L 812.937442 -321.227836 
L 812.62472 -319.073939 
L 812.294787 -316.920041 
L 811.946903 -314.766143 
L 811.579713 -312.612245 
L 811.191224 -310.458347 
L 810.778843 -308.30445 
L 810.33947 -306.150552 
L 809.869663 -303.996654 
L 809.365849 -301.842756 
L 808.82458 -299.688858 
L 808.242801 -297.53496 
L 807.618137 -295.381063 
L 806.94915 -293.227165 
L 806.235561 -291.073267 
L 805.478426 -288.919369 
L 804.680231 -286.765471 
L 803.84492 -284.611574 
L 802.977834 -282.457676 
L 802.085584 -280.303778 
L 801.175836 -278.14988 
L 800.25706 -275.995982 
L 799.338221 -273.842084 
L 798.428455 -271.688187 
L 797.536741 -269.534289 
L 796.671594 -267.380391 
L 795.840778 -265.226493 
L 795.051081 -263.072595 
L 794.308134 -260.918698 
L 793.616297 -258.7648 
L 792.978605 -256.610902 
L 792.396779 -254.457004 
L 791.871286 -252.303106 
L 791.401442 -250.149208 
L 790.985561 -247.995311 
L 790.621114 -245.841413 
L 790.304908 -243.687515 
L 790.033268 -241.533617 
z
" id="m4bf6ef9e78" style="stroke:#484848;stroke-width:1.5;"/>
    </defs>
    <g clip-path="url(#p11a349cc9a)">
     <use style="fill:#afd5ab;stroke:#484848;stroke-width:1.5;" x="0" xlink:href="#m4bf6ef9e78" y="720"/>
    </g>
   </g>
   <g id="PolyCollection_8">
    <defs>
     <path d="M 888.444916 -120.544733 
L 887.555084 -120.544733 
L 887.444821 -124.778386 
L 887.314319 -129.01204 
L 887.161697 -133.245693 
L 886.985319 -137.479347 
L 886.78388 -141.713 
L 886.556495 -145.946654 
L 886.302774 -150.180307 
L 886.022874 -154.41396 
L 885.717528 -158.647614 
L 885.388045 -162.881267 
L 885.036275 -167.114921 
L 884.664556 -171.348574 
L 884.275621 -175.582228 
L 883.872496 -179.815881 
L 883.458385 -184.049535 
L 883.036555 -188.283188 
L 882.610228 -192.516842 
L 882.182492 -196.750495 
L 881.75623 -200.984149 
L 881.334081 -205.217802 
L 880.918416 -209.451456 
L 880.511339 -213.685109 
L 880.114693 -217.918762 
L 879.73007 -222.152416 
L 879.358819 -226.386069 
L 879.002026 -230.619723 
L 878.660485 -234.853376 
L 878.334639 -239.08703 
L 878.024513 -243.320683 
L 877.729629 -247.554337 
L 877.448927 -251.78799 
L 877.180708 -256.021644 
L 876.922603 -260.255297 
L 876.671592 -264.488951 
L 876.424076 -268.722604 
L 876.176014 -272.956258 
L 875.923107 -277.189911 
L 875.661046 -281.423564 
L 875.385787 -285.657218 
L 875.093841 -289.890871 
L 874.782568 -294.124525 
L 874.450435 -298.358178 
L 874.097226 -302.591832 
L 873.724194 -306.825485 
L 873.334122 -311.059139 
L 872.931311 -315.292792 
L 872.521479 -319.526446 
L 872.111579 -323.760099 
L 871.709566 -327.993753 
L 871.324097 -332.227406 
L 870.964215 -336.46106 
L 870.639012 -340.694713 
L 870.357303 -344.928366 
L 870.127314 -349.16202 
L 869.956414 -353.395673 
L 869.850874 -357.629327 
L 869.815685 -361.86298 
L 869.854422 -366.096634 
L 869.96916 -370.330287 
L 870.160433 -374.563941 
L 870.427254 -378.797594 
L 870.767165 -383.031248 
L 871.176338 -387.264901 
L 871.649712 -391.498555 
L 872.181166 -395.732208 
L 872.763713 -399.965862 
L 873.389727 -404.199515 
L 874.051174 -408.433168 
L 874.739854 -412.666822 
L 875.447634 -416.900475 
L 876.166666 -421.134129 
L 876.889574 -425.367782 
L 877.609613 -429.601436 
L 878.320781 -433.835089 
L 879.017886 -438.068743 
L 879.696572 -442.302396 
L 880.353298 -446.53605 
L 880.985284 -450.769703 
L 881.590431 -455.003357 
L 882.167222 -459.23701 
L 882.714619 -463.470664 
L 883.231961 -467.704317 
L 883.718875 -471.93797 
L 884.175204 -476.171624 
L 884.600958 -480.405277 
L 884.996278 -484.638931 
L 885.361427 -488.872584 
L 885.696795 -493.106238 
L 886.002906 -497.339891 
L 886.280443 -501.573545 
L 886.530257 -505.807198 
L 886.753384 -510.040852 
L 886.951043 -514.274505 
L 887.124632 -518.508159 
L 887.275706 -522.741812 
L 887.405951 -526.975466 
L 887.51715 -531.209119 
L 887.611141 -535.442772 
L 887.689773 -539.676426 
L 888.310227 -539.676426 
L 888.310227 -539.676426 
L 888.388859 -535.442772 
L 888.48285 -531.209119 
L 888.594049 -526.975466 
L 888.724294 -522.741812 
L 888.875368 -518.508159 
L 889.048957 -514.274505 
L 889.246616 -510.040852 
L 889.469743 -505.807198 
L 889.719557 -501.573545 
L 889.997094 -497.339891 
L 890.303205 -493.106238 
L 890.638573 -488.872584 
L 891.003722 -484.638931 
L 891.399042 -480.405277 
L 891.824796 -476.171624 
L 892.281125 -471.93797 
L 892.768039 -467.704317 
L 893.285381 -463.470664 
L 893.832778 -459.23701 
L 894.409569 -455.003357 
L 895.014716 -450.769703 
L 895.646702 -446.53605 
L 896.303428 -442.302396 
L 896.982114 -438.068743 
L 897.679219 -433.835089 
L 898.390387 -429.601436 
L 899.110426 -425.367782 
L 899.833334 -421.134129 
L 900.552366 -416.900475 
L 901.260146 -412.666822 
L 901.948826 -408.433168 
L 902.610273 -404.199515 
L 903.236287 -399.965862 
L 903.818834 -395.732208 
L 904.350288 -391.498555 
L 904.823662 -387.264901 
L 905.232835 -383.031248 
L 905.572746 -378.797594 
L 905.839567 -374.563941 
L 906.03084 -370.330287 
L 906.145578 -366.096634 
L 906.184315 -361.86298 
L 906.149126 -357.629327 
L 906.043586 -353.395673 
L 905.872686 -349.16202 
L 905.642697 -344.928366 
L 905.360988 -340.694713 
L 905.035785 -336.46106 
L 904.675903 -332.227406 
L 904.290434 -327.993753 
L 903.888421 -323.760099 
L 903.478521 -319.526446 
L 903.068689 -315.292792 
L 902.665878 -311.059139 
L 902.275806 -306.825485 
L 901.902774 -302.591832 
L 901.549565 -298.358178 
L 901.217432 -294.124525 
L 900.906159 -289.890871 
L 900.614213 -285.657218 
L 900.338954 -281.423564 
L 900.076893 -277.189911 
L 899.823986 -272.956258 
L 899.575924 -268.722604 
L 899.328408 -264.488951 
L 899.077397 -260.255297 
L 898.819292 -256.021644 
L 898.551073 -251.78799 
L 898.270371 -247.554337 
L 897.975487 -243.320683 
L 897.665361 -239.08703 
L 897.339515 -234.853376 
L 896.997974 -230.619723 
L 896.641181 -226.386069 
L 896.26993 -222.152416 
L 895.885307 -217.918762 
L 895.488661 -213.685109 
L 895.081584 -209.451456 
L 894.665919 -205.217802 
L 894.24377 -200.984149 
L 893.817508 -196.750495 
L 893.389772 -192.516842 
L 892.963445 -188.283188 
L 892.541615 -184.049535 
L 892.127504 -179.815881 
L 891.724379 -175.582228 
L 891.335444 -171.348574 
L 890.963725 -167.114921 
L 890.611955 -162.881267 
L 890.282472 -158.647614 
L 889.977126 -154.41396 
L 889.697226 -150.180307 
L 889.443505 -145.946654 
L 889.21612 -141.713 
L 889.014681 -137.479347 
L 888.838303 -133.245693 
L 888.685681 -129.01204 
L 888.555179 -124.778386 
L 888.444916 -120.544733 
z
" id="m106a932e0c" style="stroke:#484848;stroke-width:1.5;"/>
    </defs>
    <g clip-path="url(#p11a349cc9a)">
     <use style="fill:#72b6a1;stroke:#484848;stroke-width:1.5;" x="0" xlink:href="#m106a932e0c" y="720"/>
    </g>
   </g>
   <g id="PolyCollection_9">
    <defs>
     <path d="M 987.645911 -104.4 
L 986.754089 -104.4 
L 986.617538 -108.668238 
L 986.446874 -112.936477 
L 986.235959 -117.204715 
L 985.978219 -121.472953 
L 985.666802 -125.741191 
L 985.294788 -130.00943 
L 984.855467 -134.277668 
L 984.342673 -138.545906 
L 983.751165 -142.814145 
L 983.077052 -147.082383 
L 982.31824 -151.350621 
L 981.47487 -155.61886 
L 980.549719 -159.887098 
L 979.548536 -164.155336 
L 978.480263 -168.423574 
L 977.357123 -172.691813 
L 976.194519 -176.960051 
L 975.01076 -181.228289 
L 973.82657 -185.496528 
L 972.664409 -189.764766 
L 971.547625 -194.033004 
L 970.499479 -198.301242 
L 969.54209 -202.569481 
L 968.69538 -206.837719 
L 967.976068 -211.105957 
L 967.39681 -215.374196 
L 966.965517 -219.642434 
L 966.684928 -223.910672 
L 966.552446 -228.178911 
L 966.56027 -232.447149 
L 966.695808 -236.715387 
L 966.942339 -240.983625 
L 967.279904 -245.251864 
L 967.686347 -249.520102 
L 968.138471 -253.78834 
L 968.613228 -258.056579 
L 969.088888 -262.324817 
L 969.546125 -266.593055 
L 969.968963 -270.861293 
L 970.345533 -275.129532 
L 970.668606 -279.39777 
L 970.935856 -283.666008 
L 971.149866 -287.934247 
L 971.317834 -292.202485 
L 971.45102 -296.470723 
L 971.563953 -300.738962 
L 971.673432 -305.0072 
L 971.7974 -309.275438 
L 971.953743 -313.543676 
L 972.159103 -317.811915 
L 972.427786 -322.080153 
L 972.770836 -326.348391 
L 973.195328 -330.61663 
L 973.703949 -334.884868 
L 974.294865 -339.153106 
L 974.961879 -343.421344 
L 975.694874 -347.689583 
L 976.480469 -351.957821 
L 977.302849 -356.226059 
L 978.144693 -360.494298 
L 978.988135 -364.762536 
L 979.815685 -369.030774 
L 980.611056 -373.299013 
L 981.359864 -377.567251 
L 982.050151 -381.835489 
L 982.67275 -386.103727 
L 983.221463 -390.371966 
L 983.693082 -394.640204 
L 984.087275 -398.908442 
L 984.406348 -403.176681 
L 984.654923 -407.444919 
L 984.839555 -411.713157 
L 984.9683 -415.981395 
L 985.050272 -420.249634 
L 985.095192 -424.517872 
L 985.112949 -428.78611 
L 985.113193 -433.054349 
L 985.104956 -437.322587 
L 985.096337 -441.590825 
L 985.094234 -445.859064 
L 985.104158 -450.127302 
L 985.130117 -454.39554 
L 985.174585 -458.663778 
L 985.238546 -462.932017 
L 985.321613 -467.200255 
L 985.422214 -471.468493 
L 985.537819 -475.736732 
L 985.665204 -480.00497 
L 985.800726 -484.273208 
L 985.940588 -488.541446 
L 986.081082 -492.809685 
L 986.218794 -497.077923 
L 986.350762 -501.346161 
L 986.474581 -505.6144 
L 986.588459 -509.882638 
L 986.691218 -514.150876 
L 986.782265 -518.419114 
L 986.861525 -522.687353 
L 986.92935 -526.955591 
L 987.47065 -526.955591 
L 987.47065 -526.955591 
L 987.538475 -522.687353 
L 987.617735 -518.419114 
L 987.708782 -514.150876 
L 987.811541 -509.882638 
L 987.925419 -505.6144 
L 988.049238 -501.346161 
L 988.181206 -497.077923 
L 988.318918 -492.809685 
L 988.459412 -488.541446 
L 988.599274 -484.273208 
L 988.734796 -480.00497 
L 988.862181 -475.736732 
L 988.977786 -471.468493 
L 989.078387 -467.200255 
L 989.161454 -462.932017 
L 989.225415 -458.663778 
L 989.269883 -454.39554 
L 989.295842 -450.127302 
L 989.305766 -445.859064 
L 989.303663 -441.590825 
L 989.295044 -437.322587 
L 989.286807 -433.054349 
L 989.287051 -428.78611 
L 989.304808 -424.517872 
L 989.349728 -420.249634 
L 989.4317 -415.981395 
L 989.560445 -411.713157 
L 989.745077 -407.444919 
L 989.993652 -403.176681 
L 990.312725 -398.908442 
L 990.706918 -394.640204 
L 991.178537 -390.371966 
L 991.72725 -386.103727 
L 992.349849 -381.835489 
L 993.040136 -377.567251 
L 993.788944 -373.299013 
L 994.584315 -369.030774 
L 995.411865 -364.762536 
L 996.255307 -360.494298 
L 997.097151 -356.226059 
L 997.919531 -351.957821 
L 998.705126 -347.689583 
L 999.438121 -343.421344 
L 1000.105135 -339.153106 
L 1000.696051 -334.884868 
L 1001.204672 -330.61663 
L 1001.629164 -326.348391 
L 1001.972214 -322.080153 
L 1002.240897 -317.811915 
L 1002.446257 -313.543676 
L 1002.6026 -309.275438 
L 1002.726568 -305.0072 
L 1002.836047 -300.738962 
L 1002.94898 -296.470723 
L 1003.082166 -292.202485 
L 1003.250134 -287.934247 
L 1003.464144 -283.666008 
L 1003.731394 -279.39777 
L 1004.054467 -275.129532 
L 1004.431037 -270.861293 
L 1004.853875 -266.593055 
L 1005.311112 -262.324817 
L 1005.786772 -258.056579 
L 1006.261529 -253.78834 
L 1006.713653 -249.520102 
L 1007.120096 -245.251864 
L 1007.457661 -240.983625 
L 1007.704192 -236.715387 
L 1007.83973 -232.447149 
L 1007.847554 -228.178911 
L 1007.715072 -223.910672 
L 1007.434483 -219.642434 
L 1007.00319 -215.374196 
L 1006.423932 -211.105957 
L 1005.70462 -206.837719 
L 1004.85791 -202.569481 
L 1003.900521 -198.301242 
L 1002.852375 -194.033004 
L 1001.735591 -189.764766 
L 1000.57343 -185.496528 
L 999.38924 -181.228289 
L 998.205481 -176.960051 
L 997.042877 -172.691813 
L 995.919737 -168.423574 
L 994.851464 -164.155336 
L 993.850281 -159.887098 
L 992.92513 -155.61886 
L 992.08176 -151.350621 
L 991.322948 -147.082383 
L 990.648835 -142.814145 
L 990.057327 -138.545906 
L 989.544533 -134.277668 
L 989.105212 -130.00943 
L 988.733198 -125.741191 
L 988.421781 -121.472953 
L 988.164041 -117.204715 
L 987.953126 -112.936477 
L 987.782462 -108.668238 
L 987.645911 -104.4 
z
" id="m87d2c25bf6" style="stroke:#484848;stroke-width:1.5;"/>
    </defs>
    <g clip-path="url(#p11a349cc9a)">
     <use style="fill:#4483ab;stroke:#484848;stroke-width:1.5;" x="0" xlink:href="#m87d2c25bf6" y="720"/>
    </g>
   </g>
   <g id="matplotlib.axis_1">
    <g id="xtick_1">
     <g id="line2d_1">
      <defs>
       <path d="M 0 0 
L 0 3.5 
" id="m48ef86edbe" style="stroke:#000000;stroke-width:0.8;"/>
      </defs>
      <g>
       <use style="stroke:#000000;stroke-width:0.8;" x="193.6" xlink:href="#m48ef86edbe" y="640.8"/>
      </g>
     </g>
     <g id="text_1">
      <!-- Player1_healthy -->
      <g transform="translate(153.572656 655.398438)scale(0.1 -0.1)">
       <defs>
        <path d="M 1259 4147 
L 1259 2394 
L 2053 2394 
Q 2494 2394 2734 2622 
Q 2975 2850 2975 3272 
Q 2975 3691 2734 3919 
Q 2494 4147 2053 4147 
L 1259 4147 
z
M 628 4666 
L 2053 4666 
Q 2838 4666 3239 4311 
Q 3641 3956 3641 3272 
Q 3641 2581 3239 2228 
Q 2838 1875 2053 1875 
L 1259 1875 
L 1259 0 
L 628 0 
L 628 4666 
z
" id="DejaVuSans-50" transform="scale(0.015625)"/>
        <path d="M 603 4863 
L 1178 4863 
L 1178 0 
L 603 0 
L 603 4863 
z
" id="DejaVuSans-6c" transform="scale(0.015625)"/>
        <path d="M 2194 1759 
Q 1497 1759 1228 1600 
Q 959 1441 959 1056 
Q 959 750 1161 570 
Q 1363 391 1709 391 
Q 2188 391 2477 730 
Q 2766 1069 2766 1631 
L 2766 1759 
L 2194 1759 
z
M 3341 1997 
L 3341 0 
L 2766 0 
L 2766 531 
Q 2569 213 2275 61 
Q 1981 -91 1556 -91 
Q 1019 -91 701 211 
Q 384 513 384 1019 
Q 384 1609 779 1909 
Q 1175 2209 1959 2209 
L 2766 2209 
L 2766 2266 
Q 2766 2663 2505 2880 
Q 2244 3097 1772 3097 
Q 1472 3097 1187 3025 
Q 903 2953 641 2809 
L 641 3341 
Q 956 3463 1253 3523 
Q 1550 3584 1831 3584 
Q 2591 3584 2966 3190 
Q 3341 2797 3341 1997 
z
" id="DejaVuSans-61" transform="scale(0.015625)"/>
        <path d="M 2059 -325 
Q 1816 -950 1584 -1140 
Q 1353 -1331 966 -1331 
L 506 -1331 
L 506 -850 
L 844 -850 
Q 1081 -850 1212 -737 
Q 1344 -625 1503 -206 
L 1606 56 
L 191 3500 
L 800 3500 
L 1894 763 
L 2988 3500 
L 3597 3500 
L 2059 -325 
z
" id="DejaVuSans-79" transform="scale(0.015625)"/>
        <path d="M 3597 1894 
L 3597 1613 
L 953 1613 
Q 991 1019 1311 708 
Q 1631 397 2203 397 
Q 2534 397 2845 478 
Q 3156 559 3463 722 
L 3463 178 
Q 3153 47 2828 -22 
Q 2503 -91 2169 -91 
Q 1331 -91 842 396 
Q 353 884 353 1716 
Q 353 2575 817 3079 
Q 1281 3584 2069 3584 
Q 2775 3584 3186 3129 
Q 3597 2675 3597 1894 
z
M 3022 2063 
Q 3016 2534 2758 2815 
Q 2500 3097 2075 3097 
Q 1594 3097 1305 2825 
Q 1016 2553 972 2059 
L 3022 2063 
z
" id="DejaVuSans-65" transform="scale(0.015625)"/>
        <path d="M 2631 2963 
Q 2534 3019 2420 3045 
Q 2306 3072 2169 3072 
Q 1681 3072 1420 2755 
Q 1159 2438 1159 1844 
L 1159 0 
L 581 0 
L 581 3500 
L 1159 3500 
L 1159 2956 
Q 1341 3275 1631 3429 
Q 1922 3584 2338 3584 
Q 2397 3584 2469 3576 
Q 2541 3569 2628 3553 
L 2631 2963 
z
" id="DejaVuSans-72" transform="scale(0.015625)"/>
        <path d="M 794 531 
L 1825 531 
L 1825 4091 
L 703 3866 
L 703 4441 
L 1819 4666 
L 2450 4666 
L 2450 531 
L 3481 531 
L 3481 0 
L 794 0 
L 794 531 
z
" id="DejaVuSans-31" transform="scale(0.015625)"/>
        <path d="M 3263 -1063 
L 3263 -1509 
L -63 -1509 
L -63 -1063 
L 3263 -1063 
z
" id="DejaVuSans-5f" transform="scale(0.015625)"/>
        <path d="M 3513 2113 
L 3513 0 
L 2938 0 
L 2938 2094 
Q 2938 2591 2744 2837 
Q 2550 3084 2163 3084 
Q 1697 3084 1428 2787 
Q 1159 2491 1159 1978 
L 1159 0 
L 581 0 
L 581 4863 
L 1159 4863 
L 1159 2956 
Q 1366 3272 1645 3428 
Q 1925 3584 2291 3584 
Q 2894 3584 3203 3211 
Q 3513 2838 3513 2113 
z
" id="DejaVuSans-68" transform="scale(0.015625)"/>
        <path d="M 1172 4494 
L 1172 3500 
L 2356 3500 
L 2356 3053 
L 1172 3053 
L 1172 1153 
Q 1172 725 1289 603 
Q 1406 481 1766 481 
L 2356 481 
L 2356 0 
L 1766 0 
Q 1100 0 847 248 
Q 594 497 594 1153 
L 594 3053 
L 172 3053 
L 172 3500 
L 594 3500 
L 594 4494 
L 1172 4494 
z
" id="DejaVuSans-74" transform="scale(0.015625)"/>
       </defs>
       <use xlink:href="#DejaVuSans-50"/>
       <use x="60.302734" xlink:href="#DejaVuSans-6c"/>
       <use x="88.085938" xlink:href="#DejaVuSans-61"/>
       <use x="149.365234" xlink:href="#DejaVuSans-79"/>
       <use x="208.544922" xlink:href="#DejaVuSans-65"/>
       <use x="270.068359" xlink:href="#DejaVuSans-72"/>
       <use x="311.181641" xlink:href="#DejaVuSans-31"/>
       <use x="374.804688" xlink:href="#DejaVuSans-5f"/>
       <use x="424.804688" xlink:href="#DejaVuSans-68"/>
       <use x="488.183594" xlink:href="#DejaVuSans-65"/>
       <use x="549.707031" xlink:href="#DejaVuSans-61"/>
       <use x="610.986328" xlink:href="#DejaVuSans-6c"/>
       <use x="638.769531" xlink:href="#DejaVuSans-74"/>
       <use x="677.978516" xlink:href="#DejaVuSans-68"/>
       <use x="741.357422" xlink:href="#DejaVuSans-79"/>
      </g>
     </g>
    </g>
    <g id="xtick_2">
     <g id="line2d_2">
      <g>
       <use style="stroke:#000000;stroke-width:0.8;" x="292.8" xlink:href="#m48ef86edbe" y="640.8"/>
      </g>
     </g>
     <g id="text_2">
      <!-- biased_A -->
      <g transform="translate(270.396875 655.398438)scale(0.1 -0.1)">
       <defs>
        <path d="M 3116 1747 
Q 3116 2381 2855 2742 
Q 2594 3103 2138 3103 
Q 1681 3103 1420 2742 
Q 1159 2381 1159 1747 
Q 1159 1113 1420 752 
Q 1681 391 2138 391 
Q 2594 391 2855 752 
Q 3116 1113 3116 1747 
z
M 1159 2969 
Q 1341 3281 1617 3432 
Q 1894 3584 2278 3584 
Q 2916 3584 3314 3078 
Q 3713 2572 3713 1747 
Q 3713 922 3314 415 
Q 2916 -91 2278 -91 
Q 1894 -91 1617 61 
Q 1341 213 1159 525 
L 1159 0 
L 581 0 
L 581 4863 
L 1159 4863 
L 1159 2969 
z
" id="DejaVuSans-62" transform="scale(0.015625)"/>
        <path d="M 603 3500 
L 1178 3500 
L 1178 0 
L 603 0 
L 603 3500 
z
M 603 4863 
L 1178 4863 
L 1178 4134 
L 603 4134 
L 603 4863 
z
" id="DejaVuSans-69" transform="scale(0.015625)"/>
        <path d="M 2834 3397 
L 2834 2853 
Q 2591 2978 2328 3040 
Q 2066 3103 1784 3103 
Q 1356 3103 1142 2972 
Q 928 2841 928 2578 
Q 928 2378 1081 2264 
Q 1234 2150 1697 2047 
L 1894 2003 
Q 2506 1872 2764 1633 
Q 3022 1394 3022 966 
Q 3022 478 2636 193 
Q 2250 -91 1575 -91 
Q 1294 -91 989 -36 
Q 684 19 347 128 
L 347 722 
Q 666 556 975 473 
Q 1284 391 1588 391 
Q 1994 391 2212 530 
Q 2431 669 2431 922 
Q 2431 1156 2273 1281 
Q 2116 1406 1581 1522 
L 1381 1569 
Q 847 1681 609 1914 
Q 372 2147 372 2553 
Q 372 3047 722 3315 
Q 1072 3584 1716 3584 
Q 2034 3584 2315 3537 
Q 2597 3491 2834 3397 
z
" id="DejaVuSans-73" transform="scale(0.015625)"/>
        <path d="M 2906 2969 
L 2906 4863 
L 3481 4863 
L 3481 0 
L 2906 0 
L 2906 525 
Q 2725 213 2448 61 
Q 2172 -91 1784 -91 
Q 1150 -91 751 415 
Q 353 922 353 1747 
Q 353 2572 751 3078 
Q 1150 3584 1784 3584 
Q 2172 3584 2448 3432 
Q 2725 3281 2906 2969 
z
M 947 1747 
Q 947 1113 1208 752 
Q 1469 391 1925 391 
Q 2381 391 2643 752 
Q 2906 1113 2906 1747 
Q 2906 2381 2643 2742 
Q 2381 3103 1925 3103 
Q 1469 3103 1208 2742 
Q 947 2381 947 1747 
z
" id="DejaVuSans-64" transform="scale(0.015625)"/>
        <path d="M 2188 4044 
L 1331 1722 
L 3047 1722 
L 2188 4044 
z
M 1831 4666 
L 2547 4666 
L 4325 0 
L 3669 0 
L 3244 1197 
L 1141 1197 
L 716 0 
L 50 0 
L 1831 4666 
z
" id="DejaVuSans-41" transform="scale(0.015625)"/>
       </defs>
       <use xlink:href="#DejaVuSans-62"/>
       <use x="63.476562" xlink:href="#DejaVuSans-69"/>
       <use x="91.259766" xlink:href="#DejaVuSans-61"/>
       <use x="152.539062" xlink:href="#DejaVuSans-73"/>
       <use x="204.638672" xlink:href="#DejaVuSans-65"/>
       <use x="266.162109" xlink:href="#DejaVuSans-64"/>
       <use x="329.638672" xlink:href="#DejaVuSans-5f"/>
       <use x="379.638672" xlink:href="#DejaVuSans-41"/>
      </g>
     </g>
    </g>
    <g id="xtick_3">
     <g id="line2d_3">
      <g>
       <use style="stroke:#000000;stroke-width:0.8;" x="392" xlink:href="#m48ef86edbe" y="640.8"/>
      </g>
     </g>
     <g id="text_3">
      <!-- biased_B -->
      <g transform="translate(369.586719 655.398438)scale(0.1 -0.1)">
       <defs>
        <path d="M 1259 2228 
L 1259 519 
L 2272 519 
Q 2781 519 3026 730 
Q 3272 941 3272 1375 
Q 3272 1813 3026 2020 
Q 2781 2228 2272 2228 
L 1259 2228 
z
M 1259 4147 
L 1259 2741 
L 2194 2741 
Q 2656 2741 2882 2914 
Q 3109 3088 3109 3444 
Q 3109 3797 2882 3972 
Q 2656 4147 2194 4147 
L 1259 4147 
z
M 628 4666 
L 2241 4666 
Q 2963 4666 3353 4366 
Q 3744 4066 3744 3513 
Q 3744 3084 3544 2831 
Q 3344 2578 2956 2516 
Q 3422 2416 3680 2098 
Q 3938 1781 3938 1306 
Q 3938 681 3513 340 
Q 3088 0 2303 0 
L 628 0 
L 628 4666 
z
" id="DejaVuSans-42" transform="scale(0.015625)"/>
       </defs>
       <use xlink:href="#DejaVuSans-62"/>
       <use x="63.476562" xlink:href="#DejaVuSans-69"/>
       <use x="91.259766" xlink:href="#DejaVuSans-61"/>
       <use x="152.539062" xlink:href="#DejaVuSans-73"/>
       <use x="204.638672" xlink:href="#DejaVuSans-65"/>
       <use x="266.162109" xlink:href="#DejaVuSans-64"/>
       <use x="329.638672" xlink:href="#DejaVuSans-5f"/>
       <use x="379.638672" xlink:href="#DejaVuSans-42"/>
      </g>
     </g>
    </g>
    <g id="xtick_4">
     <g id="line2d_4">
      <g>
       <use style="stroke:#000000;stroke-width:0.8;" x="491.2" xlink:href="#m48ef86edbe" y="640.8"/>
      </g>
     </g>
     <g id="text_4">
      <!-- biased_C -->
      <g transform="translate(468.725781 655.398438)scale(0.1 -0.1)">
       <defs>
        <path d="M 4122 4306 
L 4122 3641 
Q 3803 3938 3442 4084 
Q 3081 4231 2675 4231 
Q 1875 4231 1450 3742 
Q 1025 3253 1025 2328 
Q 1025 1406 1450 917 
Q 1875 428 2675 428 
Q 3081 428 3442 575 
Q 3803 722 4122 1019 
L 4122 359 
Q 3791 134 3420 21 
Q 3050 -91 2638 -91 
Q 1578 -91 968 557 
Q 359 1206 359 2328 
Q 359 3453 968 4101 
Q 1578 4750 2638 4750 
Q 3056 4750 3426 4639 
Q 3797 4528 4122 4306 
z
" id="DejaVuSans-43" transform="scale(0.015625)"/>
       </defs>
       <use xlink:href="#DejaVuSans-62"/>
       <use x="63.476562" xlink:href="#DejaVuSans-69"/>
       <use x="91.259766" xlink:href="#DejaVuSans-61"/>
       <use x="152.539062" xlink:href="#DejaVuSans-73"/>
       <use x="204.638672" xlink:href="#DejaVuSans-65"/>
       <use x="266.162109" xlink:href="#DejaVuSans-64"/>
       <use x="329.638672" xlink:href="#DejaVuSans-5f"/>
       <use x="379.638672" xlink:href="#DejaVuSans-43"/>
      </g>
     </g>
    </g>
    <g id="xtick_5">
     <g id="line2d_5">
      <g>
       <use style="stroke:#000000;stroke-width:0.8;" x="590.4" xlink:href="#m48ef86edbe" y="640.8"/>
      </g>
     </g>
     <g id="text_5">
      <!-- biased_D -->
      <g transform="translate(567.567187 655.398438)scale(0.1 -0.1)">
       <defs>
        <path d="M 1259 4147 
L 1259 519 
L 2022 519 
Q 2988 519 3436 956 
Q 3884 1394 3884 2338 
Q 3884 3275 3436 3711 
Q 2988 4147 2022 4147 
L 1259 4147 
z
M 628 4666 
L 1925 4666 
Q 3281 4666 3915 4102 
Q 4550 3538 4550 2338 
Q 4550 1131 3912 565 
Q 3275 0 1925 0 
L 628 0 
L 628 4666 
z
" id="DejaVuSans-44" transform="scale(0.015625)"/>
       </defs>
       <use xlink:href="#DejaVuSans-62"/>
       <use x="63.476562" xlink:href="#DejaVuSans-69"/>
       <use x="91.259766" xlink:href="#DejaVuSans-61"/>
       <use x="152.539062" xlink:href="#DejaVuSans-73"/>
       <use x="204.638672" xlink:href="#DejaVuSans-65"/>
       <use x="266.162109" xlink:href="#DejaVuSans-64"/>
       <use x="329.638672" xlink:href="#DejaVuSans-5f"/>
       <use x="379.638672" xlink:href="#DejaVuSans-44"/>
      </g>
     </g>
    </g>
    <g id="xtick_6">
     <g id="line2d_6">
      <g>
       <use style="stroke:#000000;stroke-width:0.8;" x="689.6" xlink:href="#m48ef86edbe" y="640.8"/>
      </g>
     </g>
     <g id="text_6">
      <!-- Type1_depressed -->
      <g transform="translate(646.53125 655.398438)scale(0.1 -0.1)">
       <defs>
        <path d="M -19 4666 
L 3928 4666 
L 3928 4134 
L 2272 4134 
L 2272 0 
L 1638 0 
L 1638 4134 
L -19 4134 
L -19 4666 
z
" id="DejaVuSans-54" transform="scale(0.015625)"/>
        <path d="M 1159 525 
L 1159 -1331 
L 581 -1331 
L 581 3500 
L 1159 3500 
L 1159 2969 
Q 1341 3281 1617 3432 
Q 1894 3584 2278 3584 
Q 2916 3584 3314 3078 
Q 3713 2572 3713 1747 
Q 3713 922 3314 415 
Q 2916 -91 2278 -91 
Q 1894 -91 1617 61 
Q 1341 213 1159 525 
z
M 3116 1747 
Q 3116 2381 2855 2742 
Q 2594 3103 2138 3103 
Q 1681 3103 1420 2742 
Q 1159 2381 1159 1747 
Q 1159 1113 1420 752 
Q 1681 391 2138 391 
Q 2594 391 2855 752 
Q 3116 1113 3116 1747 
z
" id="DejaVuSans-70" transform="scale(0.015625)"/>
       </defs>
       <use xlink:href="#DejaVuSans-54"/>
       <use x="45.458984" xlink:href="#DejaVuSans-79"/>
       <use x="104.638672" xlink:href="#DejaVuSans-70"/>
       <use x="168.115234" xlink:href="#DejaVuSans-65"/>
       <use x="229.638672" xlink:href="#DejaVuSans-31"/>
       <use x="293.261719" xlink:href="#DejaVuSans-5f"/>
       <use x="343.261719" xlink:href="#DejaVuSans-64"/>
       <use x="406.738281" xlink:href="#DejaVuSans-65"/>
       <use x="468.261719" xlink:href="#DejaVuSans-70"/>
       <use x="531.738281" xlink:href="#DejaVuSans-72"/>
       <use x="570.601562" xlink:href="#DejaVuSans-65"/>
       <use x="632.125" xlink:href="#DejaVuSans-73"/>
       <use x="684.224609" xlink:href="#DejaVuSans-73"/>
       <use x="736.324219" xlink:href="#DejaVuSans-65"/>
       <use x="797.847656" xlink:href="#DejaVuSans-64"/>
      </g>
     </g>
    </g>
    <g id="xtick_7">
     <g id="line2d_7">
      <g>
       <use style="stroke:#000000;stroke-width:0.8;" x="788.8" xlink:href="#m48ef86edbe" y="640.8"/>
      </g>
     </g>
     <g id="text_7">
      <!-- Type2_depressed -->
      <g transform="translate(745.73125 655.398438)scale(0.1 -0.1)">
       <defs>
        <path d="M 1228 531 
L 3431 531 
L 3431 0 
L 469 0 
L 469 531 
Q 828 903 1448 1529 
Q 2069 2156 2228 2338 
Q 2531 2678 2651 2914 
Q 2772 3150 2772 3378 
Q 2772 3750 2511 3984 
Q 2250 4219 1831 4219 
Q 1534 4219 1204 4116 
Q 875 4013 500 3803 
L 500 4441 
Q 881 4594 1212 4672 
Q 1544 4750 1819 4750 
Q 2544 4750 2975 4387 
Q 3406 4025 3406 3419 
Q 3406 3131 3298 2873 
Q 3191 2616 2906 2266 
Q 2828 2175 2409 1742 
Q 1991 1309 1228 531 
z
" id="DejaVuSans-32" transform="scale(0.015625)"/>
       </defs>
       <use xlink:href="#DejaVuSans-54"/>
       <use x="45.458984" xlink:href="#DejaVuSans-79"/>
       <use x="104.638672" xlink:href="#DejaVuSans-70"/>
       <use x="168.115234" xlink:href="#DejaVuSans-65"/>
       <use x="229.638672" xlink:href="#DejaVuSans-32"/>
       <use x="293.261719" xlink:href="#DejaVuSans-5f"/>
       <use x="343.261719" xlink:href="#DejaVuSans-64"/>
       <use x="406.738281" xlink:href="#DejaVuSans-65"/>
       <use x="468.261719" xlink:href="#DejaVuSans-70"/>
       <use x="531.738281" xlink:href="#DejaVuSans-72"/>
       <use x="570.601562" xlink:href="#DejaVuSans-65"/>
       <use x="632.125" xlink:href="#DejaVuSans-73"/>
       <use x="684.224609" xlink:href="#DejaVuSans-73"/>
       <use x="736.324219" xlink:href="#DejaVuSans-65"/>
       <use x="797.847656" xlink:href="#DejaVuSans-64"/>
      </g>
     </g>
    </g>
    <g id="xtick_8">
     <g id="line2d_8">
      <g>
       <use style="stroke:#000000;stroke-width:0.8;" x="888" xlink:href="#m48ef86edbe" y="640.8"/>
      </g>
     </g>
     <g id="text_8">
      <!-- Type1_social_phobia -->
      <g transform="translate(837.050781 655.398438)scale(0.1 -0.1)">
       <defs>
        <path d="M 1959 3097 
Q 1497 3097 1228 2736 
Q 959 2375 959 1747 
Q 959 1119 1226 758 
Q 1494 397 1959 397 
Q 2419 397 2687 759 
Q 2956 1122 2956 1747 
Q 2956 2369 2687 2733 
Q 2419 3097 1959 3097 
z
M 1959 3584 
Q 2709 3584 3137 3096 
Q 3566 2609 3566 1747 
Q 3566 888 3137 398 
Q 2709 -91 1959 -91 
Q 1206 -91 779 398 
Q 353 888 353 1747 
Q 353 2609 779 3096 
Q 1206 3584 1959 3584 
z
" id="DejaVuSans-6f" transform="scale(0.015625)"/>
        <path d="M 3122 3366 
L 3122 2828 
Q 2878 2963 2633 3030 
Q 2388 3097 2138 3097 
Q 1578 3097 1268 2742 
Q 959 2388 959 1747 
Q 959 1106 1268 751 
Q 1578 397 2138 397 
Q 2388 397 2633 464 
Q 2878 531 3122 666 
L 3122 134 
Q 2881 22 2623 -34 
Q 2366 -91 2075 -91 
Q 1284 -91 818 406 
Q 353 903 353 1747 
Q 353 2603 823 3093 
Q 1294 3584 2113 3584 
Q 2378 3584 2631 3529 
Q 2884 3475 3122 3366 
z
" id="DejaVuSans-63" transform="scale(0.015625)"/>
       </defs>
       <use xlink:href="#DejaVuSans-54"/>
       <use x="45.458984" xlink:href="#DejaVuSans-79"/>
       <use x="104.638672" xlink:href="#DejaVuSans-70"/>
       <use x="168.115234" xlink:href="#DejaVuSans-65"/>
       <use x="229.638672" xlink:href="#DejaVuSans-31"/>
       <use x="293.261719" xlink:href="#DejaVuSans-5f"/>
       <use x="343.261719" xlink:href="#DejaVuSans-73"/>
       <use x="395.361328" xlink:href="#DejaVuSans-6f"/>
       <use x="456.542969" xlink:href="#DejaVuSans-63"/>
       <use x="511.523438" xlink:href="#DejaVuSans-69"/>
       <use x="539.306641" xlink:href="#DejaVuSans-61"/>
       <use x="600.585938" xlink:href="#DejaVuSans-6c"/>
       <use x="628.369141" xlink:href="#DejaVuSans-5f"/>
       <use x="678.369141" xlink:href="#DejaVuSans-70"/>
       <use x="741.845703" xlink:href="#DejaVuSans-68"/>
       <use x="805.224609" xlink:href="#DejaVuSans-6f"/>
       <use x="866.40625" xlink:href="#DejaVuSans-62"/>
       <use x="929.882812" xlink:href="#DejaVuSans-69"/>
       <use x="957.666016" xlink:href="#DejaVuSans-61"/>
      </g>
     </g>
    </g>
    <g id="xtick_9">
     <g id="line2d_9">
      <g>
       <use style="stroke:#000000;stroke-width:0.8;" x="987.2" xlink:href="#m48ef86edbe" y="640.8"/>
      </g>
     </g>
     <g id="text_9">
      <!-- Type2_social_phobia -->
      <g transform="translate(936.250781 655.398438)scale(0.1 -0.1)">
       <use xlink:href="#DejaVuSans-54"/>
       <use x="45.458984" xlink:href="#DejaVuSans-79"/>
       <use x="104.638672" xlink:href="#DejaVuSans-70"/>
       <use x="168.115234" xlink:href="#DejaVuSans-65"/>
       <use x="229.638672" xlink:href="#DejaVuSans-32"/>
       <use x="293.261719" xlink:href="#DejaVuSans-5f"/>
       <use x="343.261719" xlink:href="#DejaVuSans-73"/>
       <use x="395.361328" xlink:href="#DejaVuSans-6f"/>
       <use x="456.542969" xlink:href="#DejaVuSans-63"/>
       <use x="511.523438" xlink:href="#DejaVuSans-69"/>
       <use x="539.306641" xlink:href="#DejaVuSans-61"/>
       <use x="600.585938" xlink:href="#DejaVuSans-6c"/>
       <use x="628.369141" xlink:href="#DejaVuSans-5f"/>
       <use x="678.369141" xlink:href="#DejaVuSans-70"/>
       <use x="741.845703" xlink:href="#DejaVuSans-68"/>
       <use x="805.224609" xlink:href="#DejaVuSans-6f"/>
       <use x="866.40625" xlink:href="#DejaVuSans-62"/>
       <use x="929.882812" xlink:href="#DejaVuSans-69"/>
       <use x="957.666016" xlink:href="#DejaVuSans-61"/>
      </g>
     </g>
    </g>
   </g>
   <g id="matplotlib.axis_2">
    <g id="ytick_1">
     <g id="line2d_10">
      <defs>
       <path d="M 0 0 
L -3.5 0 
" id="m873fc00e35" style="stroke:#000000;stroke-width:0.8;"/>
      </defs>
      <g>
       <use style="stroke:#000000;stroke-width:0.8;" x="144" xlink:href="#m873fc00e35" y="599.164786"/>
      </g>
     </g>
     <g id="text_10">
      <!-- 15 -->
      <g transform="translate(124.275 602.964005)scale(0.1 -0.1)">
       <defs>
        <path d="M 691 4666 
L 3169 4666 
L 3169 4134 
L 1269 4134 
L 1269 2991 
Q 1406 3038 1543 3061 
Q 1681 3084 1819 3084 
Q 2600 3084 3056 2656 
Q 3513 2228 3513 1497 
Q 3513 744 3044 326 
Q 2575 -91 1722 -91 
Q 1428 -91 1123 -41 
Q 819 9 494 109 
L 494 744 
Q 775 591 1075 516 
Q 1375 441 1709 441 
Q 2250 441 2565 725 
Q 2881 1009 2881 1497 
Q 2881 1984 2565 2268 
Q 2250 2553 1709 2553 
Q 1456 2553 1204 2497 
Q 953 2441 691 2322 
L 691 4666 
z
" id="DejaVuSans-35" transform="scale(0.015625)"/>
       </defs>
       <use xlink:href="#DejaVuSans-31"/>
       <use x="63.623047" xlink:href="#DejaVuSans-35"/>
      </g>
     </g>
    </g>
    <g id="ytick_2">
     <g id="line2d_11">
      <g>
       <use style="stroke:#000000;stroke-width:0.8;" x="144" xlink:href="#m873fc00e35" y="527.000867"/>
      </g>
     </g>
     <g id="text_11">
      <!-- 20 -->
      <g transform="translate(124.275 530.800086)scale(0.1 -0.1)">
       <defs>
        <path d="M 2034 4250 
Q 1547 4250 1301 3770 
Q 1056 3291 1056 2328 
Q 1056 1369 1301 889 
Q 1547 409 2034 409 
Q 2525 409 2770 889 
Q 3016 1369 3016 2328 
Q 3016 3291 2770 3770 
Q 2525 4250 2034 4250 
z
M 2034 4750 
Q 2819 4750 3233 4129 
Q 3647 3509 3647 2328 
Q 3647 1150 3233 529 
Q 2819 -91 2034 -91 
Q 1250 -91 836 529 
Q 422 1150 422 2328 
Q 422 3509 836 4129 
Q 1250 4750 2034 4750 
z
" id="DejaVuSans-30" transform="scale(0.015625)"/>
       </defs>
       <use xlink:href="#DejaVuSans-32"/>
       <use x="63.623047" xlink:href="#DejaVuSans-30"/>
      </g>
     </g>
    </g>
    <g id="ytick_3">
     <g id="line2d_12">
      <g>
       <use style="stroke:#000000;stroke-width:0.8;" x="144" xlink:href="#m873fc00e35" y="454.836948"/>
      </g>
     </g>
     <g id="text_12">
      <!-- 25 -->
      <g transform="translate(124.275 458.636167)scale(0.1 -0.1)">
       <use xlink:href="#DejaVuSans-32"/>
       <use x="63.623047" xlink:href="#DejaVuSans-35"/>
      </g>
     </g>
    </g>
    <g id="ytick_4">
     <g id="line2d_13">
      <g>
       <use style="stroke:#000000;stroke-width:0.8;" x="144" xlink:href="#m873fc00e35" y="382.673029"/>
      </g>
     </g>
     <g id="text_13">
      <!-- 30 -->
      <g transform="translate(124.275 386.472247)scale(0.1 -0.1)">
       <defs>
        <path d="M 2597 2516 
Q 3050 2419 3304 2112 
Q 3559 1806 3559 1356 
Q 3559 666 3084 287 
Q 2609 -91 1734 -91 
Q 1441 -91 1130 -33 
Q 819 25 488 141 
L 488 750 
Q 750 597 1062 519 
Q 1375 441 1716 441 
Q 2309 441 2620 675 
Q 2931 909 2931 1356 
Q 2931 1769 2642 2001 
Q 2353 2234 1838 2234 
L 1294 2234 
L 1294 2753 
L 1863 2753 
Q 2328 2753 2575 2939 
Q 2822 3125 2822 3475 
Q 2822 3834 2567 4026 
Q 2313 4219 1838 4219 
Q 1578 4219 1281 4162 
Q 984 4106 628 3988 
L 628 4550 
Q 988 4650 1302 4700 
Q 1616 4750 1894 4750 
Q 2613 4750 3031 4423 
Q 3450 4097 3450 3541 
Q 3450 3153 3228 2886 
Q 3006 2619 2597 2516 
z
" id="DejaVuSans-33" transform="scale(0.015625)"/>
       </defs>
       <use xlink:href="#DejaVuSans-33"/>
       <use x="63.623047" xlink:href="#DejaVuSans-30"/>
      </g>
     </g>
    </g>
    <g id="ytick_5">
     <g id="line2d_14">
      <g>
       <use style="stroke:#000000;stroke-width:0.8;" x="144" xlink:href="#m873fc00e35" y="310.50911"/>
      </g>
     </g>
     <g id="text_14">
      <!-- 35 -->
      <g transform="translate(124.275 314.308328)scale(0.1 -0.1)">
       <use xlink:href="#DejaVuSans-33"/>
       <use x="63.623047" xlink:href="#DejaVuSans-35"/>
      </g>
     </g>
    </g>
    <g id="ytick_6">
     <g id="line2d_15">
      <g>
       <use style="stroke:#000000;stroke-width:0.8;" x="144" xlink:href="#m873fc00e35" y="238.345191"/>
      </g>
     </g>
     <g id="text_15">
      <!-- 40 -->
      <g transform="translate(124.275 242.144409)scale(0.1 -0.1)">
       <defs>
        <path d="M 2419 4116 
L 825 1625 
L 2419 1625 
L 2419 4116 
z
M 2253 4666 
L 3047 4666 
L 3047 1625 
L 3713 1625 
L 3713 1100 
L 3047 1100 
L 3047 0 
L 2419 0 
L 2419 1100 
L 313 1100 
L 313 1709 
L 2253 4666 
z
" id="DejaVuSans-34" transform="scale(0.015625)"/>
       </defs>
       <use xlink:href="#DejaVuSans-34"/>
       <use x="63.623047" xlink:href="#DejaVuSans-30"/>
      </g>
     </g>
    </g>
    <g id="ytick_7">
     <g id="line2d_16">
      <g>
       <use style="stroke:#000000;stroke-width:0.8;" x="144" xlink:href="#m873fc00e35" y="166.181272"/>
      </g>
     </g>
     <g id="text_16">
      <!-- 45 -->
      <g transform="translate(124.275 169.98049)scale(0.1 -0.1)">
       <use xlink:href="#DejaVuSans-34"/>
       <use x="63.623047" xlink:href="#DejaVuSans-35"/>
      </g>
     </g>
    </g>
    <g id="ytick_8">
     <g id="line2d_17">
      <g>
       <use style="stroke:#000000;stroke-width:0.8;" x="144" xlink:href="#m873fc00e35" y="94.017353"/>
      </g>
     </g>
     <g id="text_17">
      <!-- 50 -->
      <g transform="translate(124.275 97.816571)scale(0.1 -0.1)">
       <use xlink:href="#DejaVuSans-35"/>
       <use x="63.623047" xlink:href="#DejaVuSans-30"/>
      </g>
     </g>
    </g>
   </g>
   <g id="line2d_18">
    <path clip-path="url(#p11a349cc9a)" d="M 193.6 447.620556 
L 193.6 296.076326 
" style="fill:none;stroke:#484848;stroke-linecap:square;stroke-width:1.5;"/>
   </g>
   <g id="line2d_19">
    <path clip-path="url(#p11a349cc9a)" d="M 193.6 418.754988 
L 193.6 339.374677 
" style="fill:none;stroke:#484848;stroke-linecap:square;stroke-width:4.5;"/>
   </g>
   <g id="line2d_20">
    <path clip-path="url(#p11a349cc9a)" d="M 292.8 447.620556 
L 292.8 274.42715 
" style="fill:none;stroke:#484848;stroke-linecap:square;stroke-width:1.5;"/>
   </g>
   <g id="line2d_21">
    <path clip-path="url(#p11a349cc9a)" d="M 292.8 404.322204 
L 292.8 339.374677 
" style="fill:none;stroke:#484848;stroke-linecap:square;stroke-width:4.5;"/>
   </g>
   <g id="line2d_22">
    <path clip-path="url(#p11a349cc9a)" d="M 392 447.620556 
L 392 252.777974 
" style="fill:none;stroke:#484848;stroke-linecap:square;stroke-width:1.5;"/>
   </g>
   <g id="line2d_23">
    <path clip-path="url(#p11a349cc9a)" d="M 392 407.9304 
L 392 339.374677 
" style="fill:none;stroke:#484848;stroke-linecap:square;stroke-width:4.5;"/>
   </g>
   <g id="line2d_24">
    <path clip-path="url(#p11a349cc9a)" d="M 491.2 527.000867 
L 491.2 310.50911 
" style="fill:none;stroke:#484848;stroke-linecap:square;stroke-width:1.5;"/>
   </g>
   <g id="line2d_25">
    <path clip-path="url(#p11a349cc9a)" d="M 491.2 483.702515 
L 491.2 404.322204 
" style="fill:none;stroke:#484848;stroke-linecap:square;stroke-width:4.5;"/>
   </g>
   <g id="line2d_26">
    <path clip-path="url(#p11a349cc9a)" d="M 590.4 462.05334 
L 590.4 346.591069 
" style="fill:none;stroke:#484848;stroke-linecap:square;stroke-width:1.5;"/>
   </g>
   <g id="line2d_27">
    <path clip-path="url(#p11a349cc9a)" d="M 590.4 429.579576 
L 590.4 380.868931 
" style="fill:none;stroke:#484848;stroke-linecap:square;stroke-width:4.5;"/>
   </g>
   <g id="line2d_28">
    <path clip-path="url(#p11a349cc9a)" d="M 689.6 498.135299 
L 689.6 245.561583 
" style="fill:none;stroke:#484848;stroke-linecap:square;stroke-width:1.5;"/>
   </g>
   <g id="line2d_29">
    <path clip-path="url(#p11a349cc9a)" d="M 689.6 411.538596 
L 689.6 323.137796 
" style="fill:none;stroke:#484848;stroke-linecap:square;stroke-width:4.5;"/>
   </g>
   <g id="line2d_30">
    <path clip-path="url(#p11a349cc9a)" d="M 788.8 433.187772 
L 788.8 310.50911 
" style="fill:none;stroke:#484848;stroke-linecap:square;stroke-width:1.5;"/>
   </g>
   <g id="line2d_31">
    <path clip-path="url(#p11a349cc9a)" d="M 788.8 398.909911 
L 788.8 335.766481 
" style="fill:none;stroke:#484848;stroke-linecap:square;stroke-width:4.5;"/>
   </g>
   <g id="line2d_32">
    <path clip-path="url(#p11a349cc9a)" d="M 888 519.784475 
L 888 259.994366 
" style="fill:none;stroke:#484848;stroke-linecap:square;stroke-width:1.5;"/>
   </g>
   <g id="line2d_33">
    <path clip-path="url(#p11a349cc9a)" d="M 888 447.620556 
L 888 332.158285 
" style="fill:none;stroke:#484848;stroke-linecap:square;stroke-width:4.5;"/>
   </g>
   <g id="line2d_34">
    <path clip-path="url(#p11a349cc9a)" d="M 987.2 541.433651 
L 987.2 267.210758 
" style="fill:none;stroke:#484848;stroke-linecap:square;stroke-width:1.5;"/>
   </g>
   <g id="line2d_35">
    <path clip-path="url(#p11a349cc9a)" d="M 987.2 505.351691 
L 987.2 397.105813 
" style="fill:none;stroke:#484848;stroke-linecap:square;stroke-width:4.5;"/>
   </g>
   <g id="patch_3">
    <path d="M 144 640.8 
L 144 86.4 
" style="fill:none;stroke:#000000;stroke-linecap:square;stroke-linejoin:miter;stroke-width:0.8;"/>
   </g>
   <g id="patch_4">
    <path d="M 1036.8 640.8 
L 1036.8 86.4 
" style="fill:none;stroke:#000000;stroke-linecap:square;stroke-linejoin:miter;stroke-width:0.8;"/>
   </g>
   <g id="patch_5">
    <path d="M 144 640.8 
L 1036.8 640.8 
" style="fill:none;stroke:#000000;stroke-linecap:square;stroke-linejoin:miter;stroke-width:0.8;"/>
   </g>
   <g id="patch_6">
    <path d="M 144 86.4 
L 1036.8 86.4 
" style="fill:none;stroke:#000000;stroke-linecap:square;stroke-linejoin:miter;stroke-width:0.8;"/>
   </g>
   <g id="PathCollection_1">
    <defs>
     <path d="M 0 1.5 
C 0.397805 1.5 0.77937 1.341951 1.06066 1.06066 
C 1.341951 0.77937 1.5 0.397805 1.5 0 
C 1.5 -0.397805 1.341951 -0.77937 1.06066 -1.06066 
C 0.77937 -1.341951 0.397805 -1.5 0 -1.5 
C -0.397805 -1.5 -0.77937 -1.341951 -1.06066 -1.06066 
C -1.341951 -0.77937 -1.5 -0.397805 -1.5 0 
C -1.5 0.397805 -1.341951 0.77937 -1.06066 1.06066 
C -0.77937 1.341951 -0.397805 1.5 0 1.5 
z
" id="mac63be4258" style="stroke:#484848;"/>
    </defs>
    <g clip-path="url(#p11a349cc9a)">
     <use style="fill:#ffffff;stroke:#484848;" x="193.6" xlink:href="#mac63be4258" y="386.281225"/>
    </g>
   </g>
   <g id="PathCollection_2">
    <g clip-path="url(#p11a349cc9a)">
     <use style="fill:#ffffff;stroke:#484848;" x="292.8" xlink:href="#mac63be4258" y="382.673029"/>
    </g>
   </g>
   <g id="PathCollection_3">
    <g clip-path="url(#p11a349cc9a)">
     <use style="fill:#ffffff;stroke:#484848;" x="392" xlink:href="#mac63be4258" y="375.456637"/>
    </g>
   </g>
   <g id="PathCollection_4">
    <g clip-path="url(#p11a349cc9a)">
     <use style="fill:#ffffff;stroke:#484848;" x="491.2" xlink:href="#mac63be4258" y="433.187772"/>
    </g>
   </g>
   <g id="PathCollection_5">
    <g clip-path="url(#p11a349cc9a)">
     <use style="fill:#ffffff;stroke:#484848;" x="590.4" xlink:href="#mac63be4258" y="393.497617"/>
    </g>
   </g>
   <g id="PathCollection_6">
    <g clip-path="url(#p11a349cc9a)">
     <use style="fill:#ffffff;stroke:#484848;" x="689.6" xlink:href="#mac63be4258" y="353.807461"/>
    </g>
   </g>
   <g id="PathCollection_7">
    <g clip-path="url(#p11a349cc9a)">
     <use style="fill:#ffffff;stroke:#484848;" x="788.8" xlink:href="#mac63be4258" y="368.240245"/>
    </g>
   </g>
   <g id="PathCollection_8">
    <g clip-path="url(#p11a349cc9a)">
     <use style="fill:#ffffff;stroke:#484848;" x="888" xlink:href="#mac63be4258" y="375.456637"/>
    </g>
   </g>
   <g id="PathCollection_9">
    <g clip-path="url(#p11a349cc9a)">
     <use style="fill:#ffffff;stroke:#484848;" x="987.2" xlink:href="#mac63be4258" y="462.05334"/>
    </g>
   </g>
   <g id="text_18">
    <!-- Rewards earned per agent type - cooperative context first -->
    <g transform="translate(226.825781 80.4)scale(0.25 -0.25)">
     <defs>
      <path d="M 2841 2188 
Q 3044 2119 3236 1894 
Q 3428 1669 3622 1275 
L 4263 0 
L 3584 0 
L 2988 1197 
Q 2756 1666 2539 1819 
Q 2322 1972 1947 1972 
L 1259 1972 
L 1259 0 
L 628 0 
L 628 4666 
L 2053 4666 
Q 2853 4666 3247 4331 
Q 3641 3997 3641 3322 
Q 3641 2881 3436 2590 
Q 3231 2300 2841 2188 
z
M 1259 4147 
L 1259 2491 
L 2053 2491 
Q 2509 2491 2742 2702 
Q 2975 2913 2975 3322 
Q 2975 3731 2742 3939 
Q 2509 4147 2053 4147 
L 1259 4147 
z
" id="DejaVuSans-52" transform="scale(0.015625)"/>
      <path d="M 269 3500 
L 844 3500 
L 1563 769 
L 2278 3500 
L 2956 3500 
L 3675 769 
L 4391 3500 
L 4966 3500 
L 4050 0 
L 3372 0 
L 2619 2869 
L 1863 0 
L 1184 0 
L 269 3500 
z
" id="DejaVuSans-77" transform="scale(0.015625)"/>
      <path id="DejaVuSans-20" transform="scale(0.015625)"/>
      <path d="M 3513 2113 
L 3513 0 
L 2938 0 
L 2938 2094 
Q 2938 2591 2744 2837 
Q 2550 3084 2163 3084 
Q 1697 3084 1428 2787 
Q 1159 2491 1159 1978 
L 1159 0 
L 581 0 
L 581 3500 
L 1159 3500 
L 1159 2956 
Q 1366 3272 1645 3428 
Q 1925 3584 2291 3584 
Q 2894 3584 3203 3211 
Q 3513 2838 3513 2113 
z
" id="DejaVuSans-6e" transform="scale(0.015625)"/>
      <path d="M 2906 1791 
Q 2906 2416 2648 2759 
Q 2391 3103 1925 3103 
Q 1463 3103 1205 2759 
Q 947 2416 947 1791 
Q 947 1169 1205 825 
Q 1463 481 1925 481 
Q 2391 481 2648 825 
Q 2906 1169 2906 1791 
z
M 3481 434 
Q 3481 -459 3084 -895 
Q 2688 -1331 1869 -1331 
Q 1566 -1331 1297 -1286 
Q 1028 -1241 775 -1147 
L 775 -588 
Q 1028 -725 1275 -790 
Q 1522 -856 1778 -856 
Q 2344 -856 2625 -561 
Q 2906 -266 2906 331 
L 2906 616 
Q 2728 306 2450 153 
Q 2172 0 1784 0 
Q 1141 0 747 490 
Q 353 981 353 1791 
Q 353 2603 747 3093 
Q 1141 3584 1784 3584 
Q 2172 3584 2450 3431 
Q 2728 3278 2906 2969 
L 2906 3500 
L 3481 3500 
L 3481 434 
z
" id="DejaVuSans-67" transform="scale(0.015625)"/>
      <path d="M 313 2009 
L 1997 2009 
L 1997 1497 
L 313 1497 
L 313 2009 
z
" id="DejaVuSans-2d" transform="scale(0.015625)"/>
      <path d="M 191 3500 
L 800 3500 
L 1894 563 
L 2988 3500 
L 3597 3500 
L 2284 0 
L 1503 0 
L 191 3500 
z
" id="DejaVuSans-76" transform="scale(0.015625)"/>
      <path d="M 3513 3500 
L 2247 1797 
L 3578 0 
L 2900 0 
L 1881 1375 
L 863 0 
L 184 0 
L 1544 1831 
L 300 3500 
L 978 3500 
L 1906 2253 
L 2834 3500 
L 3513 3500 
z
" id="DejaVuSans-78" transform="scale(0.015625)"/>
      <path d="M 2375 4863 
L 2375 4384 
L 1825 4384 
Q 1516 4384 1395 4259 
Q 1275 4134 1275 3809 
L 1275 3500 
L 2222 3500 
L 2222 3053 
L 1275 3053 
L 1275 0 
L 697 0 
L 697 3053 
L 147 3053 
L 147 3500 
L 697 3500 
L 697 3744 
Q 697 4328 969 4595 
Q 1241 4863 1831 4863 
L 2375 4863 
z
" id="DejaVuSans-66" transform="scale(0.015625)"/>
     </defs>
     <use xlink:href="#DejaVuSans-52"/>
     <use x="64.982422" xlink:href="#DejaVuSans-65"/>
     <use x="126.505859" xlink:href="#DejaVuSans-77"/>
     <use x="208.292969" xlink:href="#DejaVuSans-61"/>
     <use x="269.572266" xlink:href="#DejaVuSans-72"/>
     <use x="308.935547" xlink:href="#DejaVuSans-64"/>
     <use x="372.412109" xlink:href="#DejaVuSans-73"/>
     <use x="424.511719" xlink:href="#DejaVuSans-20"/>
     <use x="456.298828" xlink:href="#DejaVuSans-65"/>
     <use x="517.822266" xlink:href="#DejaVuSans-61"/>
     <use x="579.101562" xlink:href="#DejaVuSans-72"/>
     <use x="618.464844" xlink:href="#DejaVuSans-6e"/>
     <use x="681.84375" xlink:href="#DejaVuSans-65"/>
     <use x="743.367188" xlink:href="#DejaVuSans-64"/>
     <use x="806.84375" xlink:href="#DejaVuSans-20"/>
     <use x="838.630859" xlink:href="#DejaVuSans-70"/>
     <use x="902.107422" xlink:href="#DejaVuSans-65"/>
     <use x="963.630859" xlink:href="#DejaVuSans-72"/>
     <use x="1004.744141" xlink:href="#DejaVuSans-20"/>
     <use x="1036.53125" xlink:href="#DejaVuSans-61"/>
     <use x="1097.810547" xlink:href="#DejaVuSans-67"/>
     <use x="1161.287109" xlink:href="#DejaVuSans-65"/>
     <use x="1222.810547" xlink:href="#DejaVuSans-6e"/>
     <use x="1286.189453" xlink:href="#DejaVuSans-74"/>
     <use x="1325.398438" xlink:href="#DejaVuSans-20"/>
     <use x="1357.185547" xlink:href="#DejaVuSans-74"/>
     <use x="1396.394531" xlink:href="#DejaVuSans-79"/>
     <use x="1455.574219" xlink:href="#DejaVuSans-70"/>
     <use x="1519.050781" xlink:href="#DejaVuSans-65"/>
     <use x="1580.574219" xlink:href="#DejaVuSans-20"/>
     <use x="1612.361328" xlink:href="#DejaVuSans-2d"/>
     <use x="1648.445312" xlink:href="#DejaVuSans-20"/>
     <use x="1680.232422" xlink:href="#DejaVuSans-63"/>
     <use x="1735.212891" xlink:href="#DejaVuSans-6f"/>
     <use x="1796.394531" xlink:href="#DejaVuSans-6f"/>
     <use x="1857.576172" xlink:href="#DejaVuSans-70"/>
     <use x="1921.052734" xlink:href="#DejaVuSans-65"/>
     <use x="1982.576172" xlink:href="#DejaVuSans-72"/>
     <use x="2023.689453" xlink:href="#DejaVuSans-61"/>
     <use x="2084.96875" xlink:href="#DejaVuSans-74"/>
     <use x="2124.177734" xlink:href="#DejaVuSans-69"/>
     <use x="2151.960938" xlink:href="#DejaVuSans-76"/>
     <use x="2211.140625" xlink:href="#DejaVuSans-65"/>
     <use x="2272.664062" xlink:href="#DejaVuSans-20"/>
     <use x="2304.451172" xlink:href="#DejaVuSans-63"/>
     <use x="2359.431641" xlink:href="#DejaVuSans-6f"/>
     <use x="2420.613281" xlink:href="#DejaVuSans-6e"/>
     <use x="2483.992188" xlink:href="#DejaVuSans-74"/>
     <use x="2523.201172" xlink:href="#DejaVuSans-65"/>
     <use x="2582.974609" xlink:href="#DejaVuSans-78"/>
     <use x="2642.154297" xlink:href="#DejaVuSans-74"/>
     <use x="2681.363281" xlink:href="#DejaVuSans-20"/>
     <use x="2713.150391" xlink:href="#DejaVuSans-66"/>
     <use x="2748.355469" xlink:href="#DejaVuSans-69"/>
     <use x="2776.138672" xlink:href="#DejaVuSans-72"/>
     <use x="2817.251953" xlink:href="#DejaVuSans-73"/>
     <use x="2869.351562" xlink:href="#DejaVuSans-74"/>
    </g>
   </g>
  </g>
 </g>
 <defs>
  <clipPath id="p11a349cc9a">
   <rect height="554.4" width="892.8" x="144" y="86.4"/>
  </clipPath>
 </defs>
</svg>
