<?xml version="1.0" encoding="utf-8" standalone="no"?>
<!DOCTYPE svg PUBLIC "-//W3C//DTD SVG 1.1//EN"
  "http://www.w3.org/Graphics/SVG/1.1/DTD/svg11.dtd">
<svg height="720pt" version="1.1" viewBox="0 0 1152 720" width="1152pt" xmlns="http://www.w3.org/2000/svg" xmlns:xlink="http://www.w3.org/1999/xlink">
 <metadata>
  <rdf:RDF xmlns:cc="http://creativecommons.org/ns#" xmlns:dc="http://purl.org/dc/elements/1.1/" xmlns:rdf="http://www.w3.org/1999/02/22-rdf-syntax-ns#">
   <cc:Work>
    <dc:type rdf:resource="http://purl.org/dc/dcmitype/StillImage"/>
    <dc:date>2024-06-11T17:11:02.713938</dc:date>
    <dc:format>image/svg+xml</dc:format>
    <dc:creator>
     <cc:Agent>
      <dc:title>Matplotlib v3.4.3, https://matplotlib.org/</dc:title>
     </cc:Agent>
    </dc:creator>
   </cc:Work>
  </rdf:RDF>
 </metadata>
 <defs>
  <style type="text/css">*{stroke-linecap:butt;stroke-linejoin:round;}</style>
 </defs>
 <g id="figure_1">
  <g id="patch_1">
   <path d="M 0 720 
L 1152 720 
L 1152 0 
L 0 0 
z
" style="fill:#ffffff;"/>
  </g>
  <g id="axes_1">
   <g id="patch_2">
    <path d="M 144 640.8 
L 1036.8 640.8 
L 1036.8 86.4 
L 144 86.4 
z
" style="fill:#ffffff;"/>
   </g>
   <g id="PolyCollection_1">
    <defs>
     <path d="M 193.685538 -151.186924 
L 193.514462 -151.186924 
L 193.493097 -155.623334 
L 193.467845 -160.059744 
L 193.438387 -164.496154 
L 193.404473 -168.932564 
L 193.365949 -173.368974 
L 193.322776 -177.805384 
L 193.275051 -182.241794 
L 193.223025 -186.678204 
L 193.167109 -191.114614 
L 193.107873 -195.551024 
L 193.046043 -199.987434 
L 192.982476 -204.423844 
L 192.918132 -208.860254 
L 192.854035 -213.296664 
L 192.791225 -217.733074 
L 192.730703 -222.169484 
L 192.673374 -226.605894 
L 192.619992 -231.042304 
L 192.571102 -235.478714 
L 192.526999 -239.915124 
L 192.487688 -244.351534 
L 192.452867 -248.787944 
L 192.421917 -253.224354 
L 192.39392 -257.660764 
L 192.367682 -262.097174 
L 192.341785 -266.533584 
L 192.314646 -270.969994 
L 192.284584 -275.406404 
L 192.249901 -279.842814 
L 192.208959 -284.279224 
L 192.160252 -288.715634 
L 192.102474 -293.152044 
L 192.034565 -297.588454 
L 191.955752 -302.024864 
L 191.865563 -306.461274 
L 191.763826 -310.897684 
L 191.650652 -315.334094 
L 191.526403 -319.770504 
L 191.391653 -324.206914 
L 191.247143 -328.643324 
L 191.093733 -333.079734 
L 190.932366 -337.516144 
L 190.764027 -341.952554 
L 190.589726 -346.388964 
L 190.410481 -350.825374 
L 190.227312 -355.261784 
L 190.041249 -359.698194 
L 189.853337 -364.134604 
L 189.664647 -368.571014 
L 189.476292 -373.007424 
L 189.289429 -377.443834 
L 189.105266 -381.880244 
L 188.925064 -386.316654 
L 188.750135 -390.753064 
L 188.581829 -395.189474 
L 188.421536 -399.625884 
L 188.270672 -404.062294 
L 188.130677 -408.498704 
L 188.003011 -412.935114 
L 187.889146 -417.371524 
L 187.790568 -421.807934 
L 187.708769 -426.244344 
L 187.645234 -430.680754 
L 187.601425 -435.117164 
L 187.578757 -439.553574 
L 187.578556 -443.989984 
L 187.602018 -448.426394 
L 187.650148 -452.862804 
L 187.723706 -457.299214 
L 187.823138 -461.735624 
L 187.948518 -466.172034 
L 188.099494 -470.608444 
L 188.275248 -475.044854 
L 188.474466 -479.481264 
L 188.69534 -483.917674 
L 188.935581 -488.354084 
L 189.192461 -492.790494 
L 189.462875 -497.226904 
L 189.743422 -501.663314 
L 190.030501 -506.099724 
L 190.320419 -510.536134 
L 190.609503 -514.972544 
L 190.894214 -519.408954 
L 191.171244 -523.845364 
L 191.437615 -528.281774 
L 191.69075 -532.718184 
L 191.928532 -537.154594 
L 192.149335 -541.591004 
L 192.35204 -546.027414 
L 192.536021 -550.463824 
L 192.701122 -554.900234 
L 192.847609 -559.336644 
L 192.976117 -563.773054 
L 193.087582 -568.209464 
L 193.183174 -572.645874 
L 193.264229 -577.082284 
L 193.332181 -581.518694 
L 193.388503 -585.955104 
L 193.434657 -590.391514 
L 193.765343 -590.391514 
L 193.765343 -590.391514 
L 193.811497 -585.955104 
L 193.867819 -581.518694 
L 193.935771 -577.082284 
L 194.016826 -572.645874 
L 194.112418 -568.209464 
L 194.223883 -563.773054 
L 194.352391 -559.336644 
L 194.498878 -554.900234 
L 194.663979 -550.463824 
L 194.84796 -546.027414 
L 195.050665 -541.591004 
L 195.271468 -537.154594 
L 195.50925 -532.718184 
L 195.762385 -528.281774 
L 196.028756 -523.845364 
L 196.305786 -519.408954 
L 196.590497 -514.972544 
L 196.879581 -510.536134 
L 197.169499 -506.099724 
L 197.456578 -501.663314 
L 197.737125 -497.226904 
L 198.007539 -492.790494 
L 198.264419 -488.354084 
L 198.50466 -483.917674 
L 198.725534 -479.481264 
L 198.924752 -475.044854 
L 199.100506 -470.608444 
L 199.251482 -466.172034 
L 199.376862 -461.735624 
L 199.476294 -457.299214 
L 199.549852 -452.862804 
L 199.597982 -448.426394 
L 199.621444 -443.989984 
L 199.621243 -439.553574 
L 199.598575 -435.117164 
L 199.554766 -430.680754 
L 199.491231 -426.244344 
L 199.409432 -421.807934 
L 199.310854 -417.371524 
L 199.196989 -412.935114 
L 199.069323 -408.498704 
L 198.929328 -404.062294 
L 198.778464 -399.625884 
L 198.618171 -395.189474 
L 198.449865 -390.753064 
L 198.274936 -386.316654 
L 198.094734 -381.880244 
L 197.910571 -377.443834 
L 197.723708 -373.007424 
L 197.535353 -368.571014 
L 197.346663 -364.134604 
L 197.158751 -359.698194 
L 196.972688 -355.261784 
L 196.789519 -350.825374 
L 196.610274 -346.388964 
L 196.435973 -341.952554 
L 196.267634 -337.516144 
L 196.106267 -333.079734 
L 195.952857 -328.643324 
L 195.808347 -324.206914 
L 195.673597 -319.770504 
L 195.549348 -315.334094 
L 195.436174 -310.897684 
L 195.334437 -306.461274 
L 195.244248 -302.024864 
L 195.165435 -297.588454 
L 195.097526 -293.152044 
L 195.039748 -288.715634 
L 194.991041 -284.279224 
L 194.950099 -279.842814 
L 194.915416 -275.406404 
L 194.885354 -270.969994 
L 194.858215 -266.533584 
L 194.832318 -262.097174 
L 194.80608 -257.660764 
L 194.778083 -253.224354 
L 194.747133 -248.787944 
L 194.712312 -244.351534 
L 194.673001 -239.915124 
L 194.628898 -235.478714 
L 194.580008 -231.042304 
L 194.526626 -226.605894 
L 194.469297 -222.169484 
L 194.408775 -217.733074 
L 194.345965 -213.296664 
L 194.281868 -208.860254 
L 194.217524 -204.423844 
L 194.153957 -199.987434 
L 194.092127 -195.551024 
L 194.032891 -191.114614 
L 193.976975 -186.678204 
L 193.924949 -182.241794 
L 193.877224 -177.805384 
L 193.834051 -173.368974 
L 193.795527 -168.932564 
L 193.761613 -164.496154 
L 193.732155 -160.059744 
L 193.706903 -155.623334 
L 193.685538 -151.186924 
z
" id="md2e7a3f8db" style="stroke:#484848;stroke-width:1.5;"/>
    </defs>
    <g clip-path="url(#p23301ded9f)">
     <use style="fill:#c1505d;stroke:#484848;stroke-width:1.5;" x="0" xlink:href="#md2e7a3f8db" y="720"/>
    </g>
   </g>
   <g id="PolyCollection_2">
    <defs>
     <path d="M 293.134938 -104.4 
L 292.465062 -104.4 
L 292.398606 -109.490909 
L 292.322521 -114.581818 
L 292.236212 -119.672727 
L 292.139216 -124.763636 
L 292.031244 -129.854545 
L 291.912216 -134.945455 
L 291.782303 -140.036364 
L 291.64195 -145.127273 
L 291.491909 -150.218182 
L 291.333252 -155.309091 
L 291.167382 -160.4 
L 290.996021 -165.490909 
L 290.821198 -170.581818 
L 290.645214 -175.672727 
L 290.470597 -180.763636 
L 290.300042 -185.854545 
L 290.136344 -190.945455 
L 289.982314 -196.036364 
L 289.840696 -201.127273 
L 289.714078 -206.218182 
L 289.604803 -211.309091 
L 289.514888 -216.4 
L 289.445942 -221.490909 
L 289.399109 -226.581818 
L 289.375015 -231.672727 
L 289.373736 -236.763636 
L 289.394783 -241.854545 
L 289.437109 -246.945455 
L 289.499133 -252.036364 
L 289.578776 -257.127273 
L 289.673523 -262.218182 
L 289.780492 -267.309091 
L 289.896515 -272.4 
L 290.018224 -277.490909 
L 290.142143 -282.581818 
L 290.264783 -287.672727 
L 290.38273 -292.763636 
L 290.492729 -297.854545 
L 290.591765 -302.945455 
L 290.67713 -308.036364 
L 290.746486 -313.127273 
L 290.797909 -318.218182 
L 290.829932 -323.309091 
L 290.841568 -328.4 
L 290.832329 -333.490909 
L 290.802228 -338.581818 
L 290.751776 -343.672727 
L 290.681966 -348.763636 
L 290.594247 -353.854545 
L 290.490493 -358.945455 
L 290.37296 -364.036364 
L 290.244233 -369.127273 
L 290.107173 -374.218182 
L 289.96485 -379.309091 
L 289.820475 -384.4 
L 289.677327 -389.490909 
L 289.538681 -394.581818 
L 289.407726 -399.672727 
L 289.287497 -404.763636 
L 289.1808 -409.854545 
L 289.090148 -414.945455 
L 289.017707 -420.036364 
L 288.965244 -425.127273 
L 288.934091 -430.218182 
L 288.925122 -435.309091 
L 288.938741 -440.4 
L 288.974884 -445.490909 
L 289.033035 -450.581818 
L 289.112249 -455.672727 
L 289.2112 -460.763636 
L 289.328217 -465.854545 
L 289.461351 -470.945455 
L 289.608428 -476.036364 
L 289.767117 -481.127273 
L 289.934993 -486.218182 
L 290.1096 -491.309091 
L 290.288515 -496.4 
L 290.469396 -501.490909 
L 290.650037 -506.581818 
L 290.828403 -511.672727 
L 291.002664 -516.763636 
L 291.171219 -521.854545 
L 291.332712 -526.945455 
L 291.486035 -532.036364 
L 291.630332 -537.127273 
L 291.764985 -542.218182 
L 291.889608 -547.309091 
L 292.004024 -552.4 
L 292.108245 -557.490909 
L 292.20245 -562.581818 
L 292.286954 -567.672727 
L 292.36219 -572.763636 
L 292.428679 -577.854545 
L 292.487007 -582.945455 
L 292.537803 -588.036364 
L 292.581721 -593.127273 
L 292.619419 -598.218182 
L 292.651545 -603.309091 
L 292.678728 -608.4 
L 292.921272 -608.4 
L 292.921272 -608.4 
L 292.948455 -603.309091 
L 292.980581 -598.218182 
L 293.018279 -593.127273 
L 293.062197 -588.036364 
L 293.112993 -582.945455 
L 293.171321 -577.854545 
L 293.23781 -572.763636 
L 293.313046 -567.672727 
L 293.39755 -562.581818 
L 293.491755 -557.490909 
L 293.595976 -552.4 
L 293.710392 -547.309091 
L 293.835015 -542.218182 
L 293.969668 -537.127273 
L 294.113965 -532.036364 
L 294.267288 -526.945455 
L 294.428781 -521.854545 
L 294.597336 -516.763636 
L 294.771597 -511.672727 
L 294.949963 -506.581818 
L 295.130604 -501.490909 
L 295.311485 -496.4 
L 295.4904 -491.309091 
L 295.665007 -486.218182 
L 295.832883 -481.127273 
L 295.991572 -476.036364 
L 296.138649 -470.945455 
L 296.271783 -465.854545 
L 296.3888 -460.763636 
L 296.487751 -455.672727 
L 296.566965 -450.581818 
L 296.625116 -445.490909 
L 296.661259 -440.4 
L 296.674878 -435.309091 
L 296.665909 -430.218182 
L 296.634756 -425.127273 
L 296.582293 -420.036364 
L 296.509852 -414.945455 
L 296.4192 -409.854545 
L 296.312503 -404.763636 
L 296.192274 -399.672727 
L 296.061319 -394.581818 
L 295.922673 -389.490909 
L 295.779525 -384.4 
L 295.63515 -379.309091 
L 295.492827 -374.218182 
L 295.355767 -369.127273 
L 295.22704 -364.036364 
L 295.109507 -358.945455 
L 295.005753 -353.854545 
L 294.918034 -348.763636 
L 294.848224 -343.672727 
L 294.797772 -338.581818 
L 294.767671 -333.490909 
L 294.758432 -328.4 
L 294.770068 -323.309091 
L 294.802091 -318.218182 
L 294.853514 -313.127273 
L 294.92287 -308.036364 
L 295.008235 -302.945455 
L 295.107271 -297.854545 
L 295.21727 -292.763636 
L 295.335217 -287.672727 
L 295.457857 -282.581818 
L 295.581776 -277.490909 
L 295.703485 -272.4 
L 295.819508 -267.309091 
L 295.926477 -262.218182 
L 296.021224 -257.127273 
L 296.100867 -252.036364 
L 296.162891 -246.945455 
L 296.205217 -241.854545 
L 296.226264 -236.763636 
L 296.224985 -231.672727 
L 296.200891 -226.581818 
L 296.154058 -221.490909 
L 296.085112 -216.4 
L 295.995197 -211.309091 
L 295.885922 -206.218182 
L 295.759304 -201.127273 
L 295.617686 -196.036364 
L 295.463656 -190.945455 
L 295.299958 -185.854545 
L 295.129403 -180.763636 
L 294.954786 -175.672727 
L 294.778802 -170.581818 
L 294.603979 -165.490909 
L 294.432618 -160.4 
L 294.266748 -155.309091 
L 294.108091 -150.218182 
L 293.95805 -145.127273 
L 293.817697 -140.036364 
L 293.687784 -134.945455 
L 293.568756 -129.854545 
L 293.460784 -124.763636 
L 293.363788 -119.672727 
L 293.277479 -114.581818 
L 293.201394 -109.490909 
L 293.134938 -104.4 
z
" id="m6231d8df03" style="stroke:#484848;stroke-width:1.5;"/>
    </defs>
    <g clip-path="url(#p23301ded9f)">
     <use style="fill:#de7959;stroke:#484848;stroke-width:1.5;" x="0" xlink:href="#m6231d8df03" y="720"/>
    </g>
   </g>
   <g id="PolyCollection_3">
    <defs>
     <path d="M 392.158761 -276.523906 
L 391.841239 -276.523906 
L 391.79932 -278.9515 
L 391.749214 -281.379094 
L 391.690088 -283.806688 
L 391.621202 -286.234283 
L 391.541934 -288.661877 
L 391.45182 -291.089471 
L 391.350572 -293.517065 
L 391.238097 -295.944659 
L 391.114494 -298.372253 
L 390.980044 -300.799847 
L 390.83519 -303.227441 
L 390.6805 -305.655035 
L 390.51662 -308.082629 
L 390.344229 -310.510224 
L 390.163985 -312.937818 
L 389.976472 -315.365412 
L 389.782155 -317.793006 
L 389.581342 -320.2206 
L 389.374148 -322.648194 
L 389.160481 -325.075788 
L 388.940024 -327.503382 
L 388.712244 -329.930976 
L 388.4764 -332.358571 
L 388.231573 -334.786165 
L 387.976702 -337.213759 
L 387.710637 -339.641353 
L 387.432211 -342.068947 
L 387.140317 -344.496541 
L 386.834005 -346.924135 
L 386.512581 -349.351729 
L 386.175718 -351.779323 
L 385.823559 -354.206917 
L 385.456812 -356.634512 
L 385.076834 -359.062106 
L 384.685684 -361.4897 
L 384.286158 -363.917294 
L 383.881785 -366.344888 
L 383.476795 -368.772482 
L 383.076054 -371.200076 
L 382.684975 -373.62767 
L 382.309393 -376.055264 
L 381.955437 -378.482859 
L 381.62937 -380.910453 
L 381.337428 -383.338047 
L 381.085646 -385.765641 
L 380.879683 -388.193235 
L 380.724637 -390.620829 
L 380.624866 -393.048423 
L 380.583808 -395.476017 
L 380.603817 -397.903611 
L 380.686005 -400.331205 
L 380.830119 -402.7588 
L 381.034454 -405.186394 
L 381.295807 -407.613988 
L 381.609497 -410.041582 
L 381.969453 -412.469176 
L 382.368367 -414.89677 
L 382.797926 -417.324364 
L 383.249107 -419.751958 
L 383.712529 -422.179552 
L 384.178833 -424.607147 
L 384.639087 -427.034741 
L 385.085166 -429.462335 
L 385.510098 -431.889929 
L 385.908348 -434.317523 
L 386.27601 -436.745117 
L 386.610908 -439.172711 
L 386.912584 -441.600305 
L 387.182192 -444.027899 
L 387.422292 -446.455493 
L 387.636572 -448.883088 
L 387.829526 -451.310682 
L 388.006095 -453.738276 
L 388.171318 -456.16587 
L 388.330009 -458.593464 
L 388.486473 -461.021058 
L 388.644295 -463.448652 
L 388.806189 -465.876246 
L 388.973923 -468.30384 
L 389.148314 -470.731435 
L 389.329288 -473.159029 
L 389.515978 -475.586623 
L 389.706872 -478.014217 
L 389.899975 -480.441811 
L 390.092983 -482.869405 
L 390.283453 -485.296999 
L 390.468961 -487.724593 
L 390.647234 -490.152187 
L 390.816264 -492.579781 
L 390.974388 -495.007376 
L 391.120336 -497.43497 
L 391.253254 -499.862564 
L 391.372705 -502.290158 
L 391.478635 -504.717752 
L 391.571342 -507.145346 
L 391.65141 -509.57294 
L 391.719657 -512.000534 
L 391.777066 -514.428128 
L 391.824726 -516.855723 
L 392.175274 -516.855723 
L 392.175274 -516.855723 
L 392.222934 -514.428128 
L 392.280343 -512.000534 
L 392.34859 -509.57294 
L 392.428658 -507.145346 
L 392.521365 -504.717752 
L 392.627295 -502.290158 
L 392.746746 -499.862564 
L 392.879664 -497.43497 
L 393.025612 -495.007376 
L 393.183736 -492.579781 
L 393.352766 -490.152187 
L 393.531039 -487.724593 
L 393.716547 -485.296999 
L 393.907017 -482.869405 
L 394.100025 -480.441811 
L 394.293128 -478.014217 
L 394.484022 -475.586623 
L 394.670712 -473.159029 
L 394.851686 -470.731435 
L 395.026077 -468.30384 
L 395.193811 -465.876246 
L 395.355705 -463.448652 
L 395.513527 -461.021058 
L 395.669991 -458.593464 
L 395.828682 -456.16587 
L 395.993905 -453.738276 
L 396.170474 -451.310682 
L 396.363428 -448.883088 
L 396.577708 -446.455493 
L 396.817808 -444.027899 
L 397.087416 -441.600305 
L 397.389092 -439.172711 
L 397.72399 -436.745117 
L 398.091652 -434.317523 
L 398.489902 -431.889929 
L 398.914834 -429.462335 
L 399.360913 -427.034741 
L 399.821167 -424.607147 
L 400.287471 -422.179552 
L 400.750893 -419.751958 
L 401.202074 -417.324364 
L 401.631633 -414.89677 
L 402.030547 -412.469176 
L 402.390503 -410.041582 
L 402.704193 -407.613988 
L 402.965546 -405.186394 
L 403.169881 -402.7588 
L 403.313995 -400.331205 
L 403.396183 -397.903611 
L 403.416192 -395.476017 
L 403.375134 -393.048423 
L 403.275363 -390.620829 
L 403.120317 -388.193235 
L 402.914354 -385.765641 
L 402.662572 -383.338047 
L 402.37063 -380.910453 
L 402.044563 -378.482859 
L 401.690607 -376.055264 
L 401.315025 -373.62767 
L 400.923946 -371.200076 
L 400.523205 -368.772482 
L 400.118215 -366.344888 
L 399.713842 -363.917294 
L 399.314316 -361.4897 
L 398.923166 -359.062106 
L 398.543188 -356.634512 
L 398.176441 -354.206917 
L 397.824282 -351.779323 
L 397.487419 -349.351729 
L 397.165995 -346.924135 
L 396.859683 -344.496541 
L 396.567789 -342.068947 
L 396.289363 -339.641353 
L 396.023298 -337.213759 
L 395.768427 -334.786165 
L 395.5236 -332.358571 
L 395.287756 -329.930976 
L 395.059976 -327.503382 
L 394.839519 -325.075788 
L 394.625852 -322.648194 
L 394.418658 -320.2206 
L 394.217845 -317.793006 
L 394.023528 -315.365412 
L 393.836015 -312.937818 
L 393.655771 -310.510224 
L 393.48338 -308.082629 
L 393.3195 -305.655035 
L 393.16481 -303.227441 
L 393.019956 -300.799847 
L 392.885506 -298.372253 
L 392.761903 -295.944659 
L 392.649428 -293.517065 
L 392.54818 -291.089471 
L 392.458066 -288.661877 
L 392.378798 -286.234283 
L 392.309912 -283.806688 
L 392.250786 -281.379094 
L 392.20068 -278.9515 
L 392.158761 -276.523906 
z
" id="m6591b83b01" style="stroke:#484848;stroke-width:1.5;"/>
    </defs>
    <g clip-path="url(#p23301ded9f)">
     <use style="fill:#e9ad74;stroke:#484848;stroke-width:1.5;" x="0" xlink:href="#m6591b83b01" y="720"/>
    </g>
   </g>
   <g id="PolyCollection_4">
    <defs>
     <path d="M 495.062495 -256.857986 
L 487.337505 -256.857986 
L 486.452174 -257.70617 
L 485.427524 -258.554355 
L 484.258051 -259.40254 
L 482.942162 -260.250724 
L 481.482992 -261.098909 
L 479.889067 -261.947093 
L 478.174775 -262.795278 
L 476.360548 -263.643462 
L 474.472723 -264.491647 
L 472.54303 -265.339832 
L 470.607703 -266.188016 
L 468.706239 -267.036201 
L 466.879845 -267.884385 
L 465.169657 -268.73257 
L 463.614852 -269.580755 
L 462.250752 -270.428939 
L 461.107067 -271.277124 
L 460.206401 -272.125308 
L 459.563114 -272.973493 
L 459.182647 -273.821677 
L 459.061331 -274.669862 
L 459.186702 -275.518047 
L 459.538293 -276.366231 
L 460.088829 -277.214416 
L 460.805736 -278.0626 
L 461.652852 -278.910785 
L 462.59223 -279.758969 
L 463.585902 -280.607154 
L 464.597525 -281.455339 
L 465.593817 -282.303523 
L 466.545725 -283.151708 
L 467.429311 -283.999892 
L 468.226326 -284.848077 
L 468.924504 -285.696261 
L 469.517583 -286.544446 
L 470.005098 -287.392631 
L 470.391971 -288.240815 
L 470.687938 -289.089 
L 470.90684 -289.937184 
L 471.065811 -290.785369 
L 471.184386 -291.633553 
L 471.283557 -292.481738 
L 471.384804 -293.329923 
L 471.509133 -294.178107 
L 471.676151 -295.026292 
L 471.903216 -295.874476 
L 472.204699 -296.722661 
L 472.591393 -297.570846 
L 473.070085 -298.41903 
L 473.643338 -299.267215 
L 474.30946 -300.115399 
L 475.062694 -300.963584 
L 475.893578 -301.811768 
L 476.789481 -302.659953 
L 477.735266 -303.508138 
L 478.714032 -304.356322 
L 479.707907 -305.204507 
L 480.698837 -306.052691 
L 481.669331 -306.900876 
L 482.603129 -307.74906 
L 483.485773 -308.597245 
L 484.305046 -309.44543 
L 485.051291 -310.293614 
L 485.717595 -311.141799 
L 486.299846 -311.989983 
L 486.796684 -312.838168 
L 487.209344 -313.686352 
L 487.541424 -314.534537 
L 487.798585 -315.382722 
L 487.988203 -316.230906 
L 488.118993 -317.079091 
L 488.200607 -317.927275 
L 488.243233 -318.77546 
L 488.257203 -319.623645 
L 488.252616 -320.471829 
L 488.238998 -321.320014 
L 488.224995 -322.168198 
L 488.218126 -323.016383 
L 488.224587 -323.864567 
L 488.249126 -324.712752 
L 488.29498 -325.560937 
L 488.363888 -326.409121 
L 488.456164 -327.257306 
L 488.570829 -328.10549 
L 488.705802 -328.953675 
L 488.858112 -329.801859 
L 489.024143 -330.650044 
L 489.19989 -331.498229 
L 489.381195 -332.346413 
L 489.563976 -333.194598 
L 489.744415 -334.042782 
L 489.919117 -334.890967 
L 490.085215 -335.739151 
L 490.240441 -336.587336 
L 490.383149 -337.435521 
L 490.512299 -338.283705 
L 490.627418 -339.13189 
L 490.728531 -339.980074 
L 490.816077 -340.828259 
L 491.583923 -340.828259 
L 491.583923 -340.828259 
L 491.671469 -339.980074 
L 491.772582 -339.13189 
L 491.887701 -338.283705 
L 492.016851 -337.435521 
L 492.159559 -336.587336 
L 492.314785 -335.739151 
L 492.480883 -334.890967 
L 492.655585 -334.042782 
L 492.836024 -333.194598 
L 493.018805 -332.346413 
L 493.20011 -331.498229 
L 493.375857 -330.650044 
L 493.541888 -329.801859 
L 493.694198 -328.953675 
L 493.829171 -328.10549 
L 493.943836 -327.257306 
L 494.036112 -326.409121 
L 494.10502 -325.560937 
L 494.150874 -324.712752 
L 494.175413 -323.864567 
L 494.181874 -323.016383 
L 494.175005 -322.168198 
L 494.161002 -321.320014 
L 494.147384 -320.471829 
L 494.142797 -319.623645 
L 494.156767 -318.77546 
L 494.199393 -317.927275 
L 494.281007 -317.079091 
L 494.411797 -316.230906 
L 494.601415 -315.382722 
L 494.858576 -314.534537 
L 495.190656 -313.686352 
L 495.603316 -312.838168 
L 496.100154 -311.989983 
L 496.682405 -311.141799 
L 497.348709 -310.293614 
L 498.094954 -309.44543 
L 498.914227 -308.597245 
L 499.796871 -307.74906 
L 500.730669 -306.900876 
L 501.701163 -306.052691 
L 502.692093 -305.204507 
L 503.685968 -304.356322 
L 504.664734 -303.508138 
L 505.610519 -302.659953 
L 506.506422 -301.811768 
L 507.337306 -300.963584 
L 508.09054 -300.115399 
L 508.756662 -299.267215 
L 509.329915 -298.41903 
L 509.808607 -297.570846 
L 510.195301 -296.722661 
L 510.496784 -295.874476 
L 510.723849 -295.026292 
L 510.890867 -294.178107 
L 511.015196 -293.329923 
L 511.116443 -292.481738 
L 511.215614 -291.633553 
L 511.334189 -290.785369 
L 511.49316 -289.937184 
L 511.712062 -289.089 
L 512.008029 -288.240815 
L 512.394902 -287.392631 
L 512.882417 -286.544446 
L 513.475496 -285.696261 
L 514.173674 -284.848077 
L 514.970689 -283.999892 
L 515.854275 -283.151708 
L 516.806183 -282.303523 
L 517.802475 -281.455339 
L 518.814098 -280.607154 
L 519.80777 -279.758969 
L 520.747148 -278.910785 
L 521.594264 -278.0626 
L 522.311171 -277.214416 
L 522.861707 -276.366231 
L 523.213298 -275.518047 
L 523.338669 -274.669862 
L 523.217353 -273.821677 
L 522.836886 -272.973493 
L 522.193599 -272.125308 
L 521.292933 -271.277124 
L 520.149248 -270.428939 
L 518.785148 -269.580755 
L 517.230343 -268.73257 
L 515.520155 -267.884385 
L 513.693761 -267.036201 
L 511.792297 -266.188016 
L 509.85697 -265.339832 
L 507.927277 -264.491647 
L 506.039452 -263.643462 
L 504.225225 -262.795278 
L 502.510933 -261.947093 
L 500.917008 -261.098909 
L 499.457838 -260.250724 
L 498.141949 -259.40254 
L 496.972476 -258.554355 
L 495.947826 -257.70617 
L 495.062495 -256.857986 
z
" id="medc1e683fd" style="stroke:#484848;stroke-width:1.5;"/>
    </defs>
    <g clip-path="url(#p23301ded9f)">
     <use style="fill:#f0d999;stroke:#484848;stroke-width:1.5;" x="0" xlink:href="#medc1e683fd" y="720"/>
    </g>
   </g>
   <g id="PolyCollection_5">
    <defs>
     <path d="M 590.612585 -276.913854 
L 590.187415 -276.913854 
L 590.128568 -279.740538 
L 590.057957 -282.567222 
L 589.974563 -285.393906 
L 589.877635 -288.22059 
L 589.766774 -291.047275 
L 589.642015 -293.873959 
L 589.503889 -296.700643 
L 589.353447 -299.527327 
L 589.192257 -302.354011 
L 589.02235 -305.180696 
L 588.846127 -308.00738 
L 588.666214 -310.834064 
L 588.485292 -313.660748 
L 588.305888 -316.487432 
L 588.13017 -319.314117 
L 587.959737 -322.140801 
L 587.795446 -324.967485 
L 587.637272 -327.794169 
L 587.484234 -330.620853 
L 587.334385 -333.447538 
L 587.184877 -336.274222 
L 587.032092 -339.100906 
L 586.871843 -341.92759 
L 586.699623 -344.754274 
L 586.510887 -347.580959 
L 586.301355 -350.407643 
L 586.067305 -353.234327 
L 585.805849 -356.061011 
L 585.515167 -358.887695 
L 585.194683 -361.71438 
L 584.845186 -364.541064 
L 584.468874 -367.367748 
L 584.069325 -370.194432 
L 583.651411 -373.021116 
L 583.221136 -375.847801 
L 582.78543 -378.674485 
L 582.351902 -381.501169 
L 581.928573 -384.327853 
L 581.52359 -387.154537 
L 581.144963 -389.981222 
L 580.800305 -392.807906 
L 580.496618 -395.63459 
L 580.240108 -398.461274 
L 580.036048 -401.287958 
L 579.888678 -404.114643 
L 579.801144 -406.941327 
L 579.775465 -409.768011 
L 579.812523 -412.594695 
L 579.912069 -415.421379 
L 580.072742 -418.248064 
L 580.292092 -421.074748 
L 580.566619 -423.901432 
L 580.891827 -426.728116 
L 581.262297 -429.5548 
L 581.671795 -432.381485 
L 582.113402 -435.208169 
L 582.579689 -438.034853 
L 583.062919 -440.861537 
L 583.555267 -443.688221 
L 584.04906 -446.514906 
L 584.537007 -449.34159 
L 585.012414 -452.168274 
L 585.469363 -454.994958 
L 585.902851 -457.821642 
L 586.308879 -460.648327 
L 586.684488 -463.475011 
L 587.02775 -466.301695 
L 587.33772 -469.128379 
L 587.614358 -471.955063 
L 587.858433 -474.781748 
L 588.071416 -477.608432 
L 588.255374 -480.435116 
L 588.412856 -483.2618 
L 588.546794 -486.088484 
L 588.660394 -488.915169 
L 588.75703 -491.741853 
L 588.840136 -494.568537 
L 588.913093 -497.395221 
L 588.979115 -500.221905 
L 589.041138 -503.04859 
L 589.101719 -505.875274 
L 589.162947 -508.701958 
L 589.22638 -511.528642 
L 589.293016 -514.355326 
L 589.363288 -517.182011 
L 589.437104 -520.008695 
L 589.513904 -522.835379 
L 589.592763 -525.662063 
L 589.672487 -528.488747 
L 589.751741 -531.315432 
L 589.829154 -534.142116 
L 589.903429 -536.9688 
L 589.973424 -539.795484 
L 590.038215 -542.622168 
L 590.097134 -545.448853 
L 590.149781 -548.275537 
L 590.196015 -551.102221 
L 590.235929 -553.928905 
L 590.269809 -556.755589 
L 590.530191 -556.755589 
L 590.530191 -556.755589 
L 590.564071 -553.928905 
L 590.603985 -551.102221 
L 590.650219 -548.275537 
L 590.702866 -545.448853 
L 590.761785 -542.622168 
L 590.826576 -539.795484 
L 590.896571 -536.9688 
L 590.970846 -534.142116 
L 591.048259 -531.315432 
L 591.127513 -528.488747 
L 591.207237 -525.662063 
L 591.286096 -522.835379 
L 591.362896 -520.008695 
L 591.436712 -517.182011 
L 591.506984 -514.355326 
L 591.57362 -511.528642 
L 591.637053 -508.701958 
L 591.698281 -505.875274 
L 591.758862 -503.04859 
L 591.820885 -500.221905 
L 591.886907 -497.395221 
L 591.959864 -494.568537 
L 592.04297 -491.741853 
L 592.139606 -488.915169 
L 592.253206 -486.088484 
L 592.387144 -483.2618 
L 592.544626 -480.435116 
L 592.728584 -477.608432 
L 592.941567 -474.781748 
L 593.185642 -471.955063 
L 593.46228 -469.128379 
L 593.77225 -466.301695 
L 594.115512 -463.475011 
L 594.491121 -460.648327 
L 594.897149 -457.821642 
L 595.330637 -454.994958 
L 595.787586 -452.168274 
L 596.262993 -449.34159 
L 596.75094 -446.514906 
L 597.244733 -443.688221 
L 597.737081 -440.861537 
L 598.220311 -438.034853 
L 598.686598 -435.208169 
L 599.128205 -432.381485 
L 599.537703 -429.5548 
L 599.908173 -426.728116 
L 600.233381 -423.901432 
L 600.507908 -421.074748 
L 600.727258 -418.248064 
L 600.887931 -415.421379 
L 600.987477 -412.594695 
L 601.024535 -409.768011 
L 600.998856 -406.941327 
L 600.911322 -404.114643 
L 600.763952 -401.287958 
L 600.559892 -398.461274 
L 600.303382 -395.63459 
L 599.999695 -392.807906 
L 599.655037 -389.981222 
L 599.27641 -387.154537 
L 598.871427 -384.327853 
L 598.448098 -381.501169 
L 598.01457 -378.674485 
L 597.578864 -375.847801 
L 597.148589 -373.021116 
L 596.730675 -370.194432 
L 596.331126 -367.367748 
L 595.954814 -364.541064 
L 595.605317 -361.71438 
L 595.284833 -358.887695 
L 594.994151 -356.061011 
L 594.732695 -353.234327 
L 594.498645 -350.407643 
L 594.289113 -347.580959 
L 594.100377 -344.754274 
L 593.928157 -341.92759 
L 593.767908 -339.100906 
L 593.615123 -336.274222 
L 593.465615 -333.447538 
L 593.315766 -330.620853 
L 593.162728 -327.794169 
L 593.004554 -324.967485 
L 592.840263 -322.140801 
L 592.66983 -319.314117 
L 592.494112 -316.487432 
L 592.314708 -313.660748 
L 592.133786 -310.834064 
L 591.953873 -308.00738 
L 591.77765 -305.180696 
L 591.607743 -302.354011 
L 591.446553 -299.527327 
L 591.296111 -296.700643 
L 591.157985 -293.873959 
L 591.033226 -291.047275 
L 590.922365 -288.22059 
L 590.825437 -285.393906 
L 590.742043 -282.567222 
L 590.671432 -279.740538 
L 590.612585 -276.913854 
z
" id="m7cf62103bb" style="stroke:#484848;stroke-width:1.5;"/>
    </defs>
    <g clip-path="url(#p23301ded9f)">
     <use style="fill:#f7f7c6;stroke:#484848;stroke-width:1.5;" x="0" xlink:href="#m7cf62103bb" y="720"/>
    </g>
   </g>
   <g id="PolyCollection_6">
    <defs>
     <path d="M 690.00541 -186.678065 
L 689.19459 -186.678065 
L 689.073918 -189.757962 
L 688.925473 -192.837858 
L 688.745318 -195.917755 
L 688.5296 -198.997651 
L 688.27473 -202.077547 
L 687.97758 -205.157444 
L 687.63569 -208.23734 
L 687.24747 -211.317237 
L 686.812397 -214.397133 
L 686.331174 -217.477029 
L 685.805862 -220.556926 
L 685.239958 -223.636822 
L 684.638429 -226.716718 
L 684.007676 -229.796615 
L 683.355451 -232.876511 
L 682.690715 -235.956408 
L 682.023443 -239.036304 
L 681.364387 -242.1162 
L 680.724802 -245.196097 
L 680.116146 -248.275993 
L 679.54976 -251.35589 
L 679.036549 -254.435786 
L 678.586656 -257.515682 
L 678.209157 -260.595579 
L 677.911785 -263.675475 
L 677.700678 -266.755372 
L 677.580186 -269.835268 
L 677.552725 -272.915164 
L 677.618691 -275.995061 
L 677.776445 -279.074957 
L 678.02236 -282.154854 
L 678.350932 -285.23475 
L 678.754957 -288.314646 
L 679.225757 -291.394543 
L 679.753442 -294.474439 
L 680.327218 -297.554335 
L 680.935699 -300.634232 
L 681.567237 -303.714128 
L 682.210244 -306.794025 
L 682.853495 -309.873921 
L 683.486423 -312.953817 
L 684.099367 -316.033714 
L 684.683793 -319.11361 
L 685.232479 -322.193507 
L 685.739643 -325.273403 
L 686.201033 -328.353299 
L 686.613965 -331.433196 
L 686.977307 -334.513092 
L 687.291414 -337.592989 
L 687.558014 -340.672885 
L 687.780045 -343.752781 
L 687.961451 -346.832678 
L 688.106947 -349.912574 
L 688.221757 -352.99247 
L 688.311346 -356.072367 
L 688.381145 -359.152263 
L 688.436299 -362.23216 
L 688.481441 -365.312056 
L 688.520512 -368.391952 
L 688.556622 -371.471849 
L 688.591984 -374.551745 
L 688.627896 -377.631642 
L 688.664792 -380.711538 
L 688.702344 -383.791434 
L 688.739605 -386.871331 
L 688.775197 -389.951227 
L 688.807503 -393.031124 
L 688.834877 -396.11102 
L 688.855837 -399.190916 
L 688.86923 -402.270813 
L 688.874368 -405.350709 
L 688.871119 -408.430605 
L 688.859946 -411.510502 
L 688.841899 -414.590398 
L 688.818552 -417.670295 
L 688.791908 -420.750191 
L 688.764261 -423.830087 
L 688.738043 -426.909984 
L 688.715651 -429.98988 
L 688.699293 -433.069777 
L 688.690834 -436.149673 
L 688.691683 -439.229569 
L 688.70271 -442.309466 
L 688.724208 -445.389362 
L 688.755894 -448.469259 
L 688.796959 -451.549155 
L 688.846142 -454.629051 
L 688.901844 -457.708948 
L 688.962244 -460.788844 
L 689.025432 -463.868741 
L 689.089523 -466.948637 
L 689.152773 -470.028533 
L 689.213652 -473.10843 
L 689.270913 -476.188326 
L 689.323615 -479.268222 
L 689.371133 -482.348119 
L 689.413143 -485.428015 
L 689.449586 -488.507912 
L 689.480624 -491.587808 
L 689.719376 -491.587808 
L 689.719376 -491.587808 
L 689.750414 -488.507912 
L 689.786857 -485.428015 
L 689.828867 -482.348119 
L 689.876385 -479.268222 
L 689.929087 -476.188326 
L 689.986348 -473.10843 
L 690.047227 -470.028533 
L 690.110477 -466.948637 
L 690.174568 -463.868741 
L 690.237756 -460.788844 
L 690.298156 -457.708948 
L 690.353858 -454.629051 
L 690.403041 -451.549155 
L 690.444106 -448.469259 
L 690.475792 -445.389362 
L 690.49729 -442.309466 
L 690.508317 -439.229569 
L 690.509166 -436.149673 
L 690.500707 -433.069777 
L 690.484349 -429.98988 
L 690.461957 -426.909984 
L 690.435739 -423.830087 
L 690.408092 -420.750191 
L 690.381448 -417.670295 
L 690.358101 -414.590398 
L 690.340054 -411.510502 
L 690.328881 -408.430605 
L 690.325632 -405.350709 
L 690.33077 -402.270813 
L 690.344163 -399.190916 
L 690.365123 -396.11102 
L 690.392497 -393.031124 
L 690.424803 -389.951227 
L 690.460395 -386.871331 
L 690.497656 -383.791434 
L 690.535208 -380.711538 
L 690.572104 -377.631642 
L 690.608016 -374.551745 
L 690.643378 -371.471849 
L 690.679488 -368.391952 
L 690.718559 -365.312056 
L 690.763701 -362.23216 
L 690.818855 -359.152263 
L 690.888654 -356.072367 
L 690.978243 -352.99247 
L 691.093053 -349.912574 
L 691.238549 -346.832678 
L 691.419955 -343.752781 
L 691.641986 -340.672885 
L 691.908586 -337.592989 
L 692.222693 -334.513092 
L 692.586035 -331.433196 
L 692.998967 -328.353299 
L 693.460357 -325.273403 
L 693.967521 -322.193507 
L 694.516207 -319.11361 
L 695.100633 -316.033714 
L 695.713577 -312.953817 
L 696.346505 -309.873921 
L 696.989756 -306.794025 
L 697.632763 -303.714128 
L 698.264301 -300.634232 
L 698.872782 -297.554335 
L 699.446558 -294.474439 
L 699.974243 -291.394543 
L 700.445043 -288.314646 
L 700.849068 -285.23475 
L 701.17764 -282.154854 
L 701.423555 -279.074957 
L 701.581309 -275.995061 
L 701.647275 -272.915164 
L 701.619814 -269.835268 
L 701.499322 -266.755372 
L 701.288215 -263.675475 
L 700.990843 -260.595579 
L 700.613344 -257.515682 
L 700.163451 -254.435786 
L 699.65024 -251.35589 
L 699.083854 -248.275993 
L 698.475198 -245.196097 
L 697.835613 -242.1162 
L 697.176557 -239.036304 
L 696.509285 -235.956408 
L 695.844549 -232.876511 
L 695.192324 -229.796615 
L 694.561571 -226.716718 
L 693.960042 -223.636822 
L 693.394138 -220.556926 
L 692.868826 -217.477029 
L 692.387603 -214.397133 
L 691.95253 -211.317237 
L 691.56431 -208.23734 
L 691.22242 -205.157444 
L 690.92527 -202.077547 
L 690.6704 -198.997651 
L 690.454682 -195.917755 
L 690.274527 -192.837858 
L 690.126082 -189.757962 
L 690.00541 -186.678065 
z
" id="m4195bcc651" style="stroke:#484848;stroke-width:1.5;"/>
    </defs>
    <g clip-path="url(#p23301ded9f)">
     <use style="fill:#dee9a4;stroke:#484848;stroke-width:1.5;" x="0" xlink:href="#m4195bcc651" y="720"/>
    </g>
   </g>
   <g id="PolyCollection_7">
    <defs>
     <path d="M 789.001852 -169.256974 
L 788.598148 -169.256974 
L 788.550041 -172.688812 
L 788.493277 -176.120649 
L 788.427018 -179.552487 
L 788.350514 -182.984325 
L 788.263145 -186.416162 
L 788.164464 -189.848 
L 788.054238 -193.279837 
L 787.932492 -196.711675 
L 787.79953 -200.143513 
L 787.655965 -203.57535 
L 787.502716 -207.007188 
L 787.341008 -210.439026 
L 787.172339 -213.870863 
L 786.998447 -217.302701 
L 786.821246 -220.734539 
L 786.64276 -224.166376 
L 786.465042 -227.598214 
L 786.290093 -231.030051 
L 786.119777 -234.461889 
L 785.955741 -237.893727 
L 785.799358 -241.325564 
L 785.651671 -244.757402 
L 785.513369 -248.18924 
L 785.38478 -251.621077 
L 785.265891 -255.052915 
L 785.15638 -258.484752 
L 785.055679 -261.91659 
L 784.96304 -265.348428 
L 784.877612 -268.780265 
L 784.798513 -272.212103 
L 784.724906 -275.643941 
L 784.656049 -279.075778 
L 784.591339 -282.507616 
L 784.530323 -285.939453 
L 784.4727 -289.371291 
L 784.418293 -292.803129 
L 784.367003 -296.234966 
L 784.318754 -299.666804 
L 784.273427 -303.098642 
L 784.230796 -306.530479 
L 784.190471 -309.962317 
L 784.151855 -313.394155 
L 784.114119 -316.825992 
L 784.076203 -320.25783 
L 784.036847 -323.689667 
L 783.99464 -327.121505 
L 783.948102 -330.553343 
L 783.895779 -333.98518 
L 783.836358 -337.417018 
L 783.768784 -340.848856 
L 783.692376 -344.280693 
L 783.606933 -347.712531 
L 783.51282 -351.144368 
L 783.411024 -354.576206 
L 783.303186 -358.008044 
L 783.191588 -361.439881 
L 783.079108 -364.871719 
L 782.969137 -368.303557 
L 782.865462 -371.735394 
L 782.772123 -375.167232 
L 782.69325 -378.599069 
L 782.632887 -382.030907 
L 782.594819 -385.462745 
L 782.582402 -388.894582 
L 782.598416 -392.32642 
L 782.644939 -395.758258 
L 782.723257 -399.190095 
L 782.833807 -402.621933 
L 782.976161 -406.05377 
L 783.149047 -409.485608 
L 783.350407 -412.917446 
L 783.577486 -416.349283 
L 783.826947 -419.781121 
L 784.095004 -423.212959 
L 784.377563 -426.644796 
L 784.670375 -430.076634 
L 784.969173 -433.508472 
L 785.26981 -436.940309 
L 785.568369 -440.372147 
L 785.861266 -443.803984 
L 786.145321 -447.235822 
L 786.417816 -450.66766 
L 786.676515 -454.099497 
L 786.919684 -457.531335 
L 787.146073 -460.963173 
L 787.354896 -464.39501 
L 787.545789 -467.826848 
L 787.718769 -471.258685 
L 787.874179 -474.690523 
L 788.012632 -478.122361 
L 788.13496 -481.554198 
L 788.242159 -484.986036 
L 788.335338 -488.417874 
L 788.415679 -491.849711 
L 788.484394 -495.281549 
L 788.542693 -498.713386 
L 788.591756 -502.145224 
L 788.632712 -505.577062 
L 788.666621 -509.008899 
L 788.933379 -509.008899 
L 788.933379 -509.008899 
L 788.967288 -505.577062 
L 789.008244 -502.145224 
L 789.057307 -498.713386 
L 789.115606 -495.281549 
L 789.184321 -491.849711 
L 789.264662 -488.417874 
L 789.357841 -484.986036 
L 789.46504 -481.554198 
L 789.587368 -478.122361 
L 789.725821 -474.690523 
L 789.881231 -471.258685 
L 790.054211 -467.826848 
L 790.245104 -464.39501 
L 790.453927 -460.963173 
L 790.680316 -457.531335 
L 790.923485 -454.099497 
L 791.182184 -450.66766 
L 791.454679 -447.235822 
L 791.738734 -443.803984 
L 792.031631 -440.372147 
L 792.33019 -436.940309 
L 792.630827 -433.508472 
L 792.929625 -430.076634 
L 793.222437 -426.644796 
L 793.504996 -423.212959 
L 793.773053 -419.781121 
L 794.022514 -416.349283 
L 794.249593 -412.917446 
L 794.450953 -409.485608 
L 794.623839 -406.05377 
L 794.766193 -402.621933 
L 794.876743 -399.190095 
L 794.955061 -395.758258 
L 795.001584 -392.32642 
L 795.017598 -388.894582 
L 795.005181 -385.462745 
L 794.967113 -382.030907 
L 794.90675 -378.599069 
L 794.827877 -375.167232 
L 794.734538 -371.735394 
L 794.630863 -368.303557 
L 794.520892 -364.871719 
L 794.408412 -361.439881 
L 794.296814 -358.008044 
L 794.188976 -354.576206 
L 794.08718 -351.144368 
L 793.993067 -347.712531 
L 793.907624 -344.280693 
L 793.831216 -340.848856 
L 793.763642 -337.417018 
L 793.704221 -333.98518 
L 793.651898 -330.553343 
L 793.60536 -327.121505 
L 793.563153 -323.689667 
L 793.523797 -320.25783 
L 793.485881 -316.825992 
L 793.448145 -313.394155 
L 793.409529 -309.962317 
L 793.369204 -306.530479 
L 793.326573 -303.098642 
L 793.281246 -299.666804 
L 793.232997 -296.234966 
L 793.181707 -292.803129 
L 793.1273 -289.371291 
L 793.069677 -285.939453 
L 793.008661 -282.507616 
L 792.943951 -279.075778 
L 792.875094 -275.643941 
L 792.801487 -272.212103 
L 792.722388 -268.780265 
L 792.63696 -265.348428 
L 792.544321 -261.91659 
L 792.44362 -258.484752 
L 792.334109 -255.052915 
L 792.21522 -251.621077 
L 792.086631 -248.18924 
L 791.948329 -244.757402 
L 791.800642 -241.325564 
L 791.644259 -237.893727 
L 791.480223 -234.461889 
L 791.309907 -231.030051 
L 791.134958 -227.598214 
L 790.95724 -224.166376 
L 790.778754 -220.734539 
L 790.601553 -217.302701 
L 790.427661 -213.870863 
L 790.258992 -210.439026 
L 790.097284 -207.007188 
L 789.944035 -203.57535 
L 789.80047 -200.143513 
L 789.667508 -196.711675 
L 789.545762 -193.279837 
L 789.435536 -189.848 
L 789.336855 -186.416162 
L 789.249486 -182.984325 
L 789.172982 -179.552487 
L 789.106723 -176.120649 
L 789.049959 -172.688812 
L 789.001852 -169.256974 
z
" id="mc38da29f5f" style="stroke:#484848;stroke-width:1.5;"/>
    </defs>
    <g clip-path="url(#p23301ded9f)">
     <use style="fill:#afd5ab;stroke:#484848;stroke-width:1.5;" x="0" xlink:href="#mc38da29f5f" y="720"/>
    </g>
   </g>
   <g id="PolyCollection_8">
    <defs>
     <path d="M 889.008824 -237.158423 
L 886.991176 -237.158423 
L 886.764293 -238.113887 
L 886.501853 -239.069351 
L 886.202097 -240.024815 
L 885.864045 -240.98028 
L 885.48764 -241.935744 
L 885.07386 -242.891208 
L 884.624772 -243.846672 
L 884.143519 -244.802137 
L 883.634232 -245.757601 
L 883.101854 -246.713065 
L 882.551891 -247.668529 
L 881.990084 -248.623994 
L 881.42203 -249.579458 
L 880.852778 -250.534922 
L 880.286419 -251.490386 
L 879.725724 -252.445851 
L 879.171848 -253.401315 
L 878.624141 -254.356779 
L 878.080089 -255.312243 
L 877.535411 -256.267708 
L 876.984294 -257.223172 
L 876.419787 -258.178636 
L 875.834306 -259.1341 
L 875.220229 -260.089565 
L 874.570532 -261.045029 
L 873.879425 -262.000493 
L 873.142922 -262.955957 
L 872.359329 -263.911422 
L 871.52958 -264.866886 
L 870.65742 -265.82235 
L 869.74943 -266.777814 
L 868.81487 -267.733279 
L 867.865395 -268.688743 
L 866.914642 -269.644207 
L 865.977751 -270.599671 
L 865.070828 -271.555136 
L 864.210412 -272.5106 
L 863.412958 -273.466064 
L 862.694362 -274.421528 
L 862.069541 -275.376993 
L 861.552069 -276.332457 
L 861.153854 -277.287921 
L 860.884867 -278.243385 
L 860.752895 -279.19885 
L 860.763318 -280.154314 
L 860.918913 -281.109778 
L 861.219678 -282.065242 
L 861.662701 -283.020707 
L 862.242079 -283.976171 
L 862.948916 -284.931635 
L 863.771407 -285.887099 
L 864.695044 -286.842564 
L 865.702924 -287.798028 
L 866.776185 -288.753492 
L 867.894547 -289.708956 
L 869.036933 -290.664421 
L 870.182155 -291.619885 
L 871.309622 -292.575349 
L 872.400029 -293.530813 
L 873.436007 -294.486278 
L 874.402679 -295.441742 
L 875.288115 -296.397206 
L 876.08365 -297.35267 
L 876.784066 -298.308135 
L 877.38763 -299.263599 
L 877.89599 -300.219063 
L 878.313941 -301.174527 
L 878.649084 -302.129992 
L 878.911379 -303.085456 
L 879.112643 -304.04092 
L 879.26598 -304.996384 
L 879.385199 -305.951849 
L 879.484224 -306.907313 
L 879.576531 -307.862777 
L 879.67462 -308.818241 
L 879.789561 -309.773706 
L 879.930614 -310.72917 
L 880.104954 -311.684634 
L 880.31749 -312.640098 
L 880.570806 -313.595563 
L 880.865203 -314.551027 
L 881.198853 -315.506491 
L 881.568035 -316.461955 
L 881.967454 -317.41742 
L 882.390602 -318.372884 
L 882.830164 -319.328348 
L 883.278415 -320.283812 
L 883.727616 -321.239277 
L 884.17036 -322.194741 
L 884.599876 -323.150205 
L 885.010262 -324.105669 
L 885.396651 -325.061134 
L 885.755304 -326.016598 
L 886.083636 -326.972062 
L 886.380178 -327.927526 
L 886.644492 -328.882991 
L 886.877048 -329.838455 
L 887.07907 -330.793919 
L 887.252379 -331.749383 
L 888.747621 -331.749383 
L 888.747621 -331.749383 
L 888.92093 -330.793919 
L 889.122952 -329.838455 
L 889.355508 -328.882991 
L 889.619822 -327.927526 
L 889.916364 -326.972062 
L 890.244696 -326.016598 
L 890.603349 -325.061134 
L 890.989738 -324.105669 
L 891.400124 -323.150205 
L 891.82964 -322.194741 
L 892.272384 -321.239277 
L 892.721585 -320.283812 
L 893.169836 -319.328348 
L 893.609398 -318.372884 
L 894.032546 -317.41742 
L 894.431965 -316.461955 
L 894.801147 -315.506491 
L 895.134797 -314.551027 
L 895.429194 -313.595563 
L 895.68251 -312.640098 
L 895.895046 -311.684634 
L 896.069386 -310.72917 
L 896.210439 -309.773706 
L 896.32538 -308.818241 
L 896.423469 -307.862777 
L 896.515776 -306.907313 
L 896.614801 -305.951849 
L 896.73402 -304.996384 
L 896.887357 -304.04092 
L 897.088621 -303.085456 
L 897.350916 -302.129992 
L 897.686059 -301.174527 
L 898.10401 -300.219063 
L 898.61237 -299.263599 
L 899.215934 -298.308135 
L 899.91635 -297.35267 
L 900.711885 -296.397206 
L 901.597321 -295.441742 
L 902.563993 -294.486278 
L 903.599971 -293.530813 
L 904.690378 -292.575349 
L 905.817845 -291.619885 
L 906.963067 -290.664421 
L 908.105453 -289.708956 
L 909.223815 -288.753492 
L 910.297076 -287.798028 
L 911.304956 -286.842564 
L 912.228593 -285.887099 
L 913.051084 -284.931635 
L 913.757921 -283.976171 
L 914.337299 -283.020707 
L 914.780322 -282.065242 
L 915.081087 -281.109778 
L 915.236682 -280.154314 
L 915.247105 -279.19885 
L 915.115133 -278.243385 
L 914.846146 -277.287921 
L 914.447931 -276.332457 
L 913.930459 -275.376993 
L 913.305638 -274.421528 
L 912.587042 -273.466064 
L 911.789588 -272.5106 
L 910.929172 -271.555136 
L 910.022249 -270.599671 
L 909.085358 -269.644207 
L 908.134605 -268.688743 
L 907.18513 -267.733279 
L 906.25057 -266.777814 
L 905.34258 -265.82235 
L 904.47042 -264.866886 
L 903.640671 -263.911422 
L 902.857078 -262.955957 
L 902.120575 -262.000493 
L 901.429468 -261.045029 
L 900.779771 -260.089565 
L 900.165694 -259.1341 
L 899.580213 -258.178636 
L 899.015706 -257.223172 
L 898.464589 -256.267708 
L 897.919911 -255.312243 
L 897.375859 -254.356779 
L 896.828152 -253.401315 
L 896.274276 -252.445851 
L 895.713581 -251.490386 
L 895.147222 -250.534922 
L 894.57797 -249.579458 
L 894.009916 -248.623994 
L 893.448109 -247.668529 
L 892.898146 -246.713065 
L 892.365768 -245.757601 
L 891.856481 -244.802137 
L 891.375228 -243.846672 
L 890.92614 -242.891208 
L 890.51236 -241.935744 
L 890.135955 -240.98028 
L 889.797903 -240.024815 
L 889.498147 -239.069351 
L 889.235707 -238.113887 
L 889.008824 -237.158423 
z
" id="mca0735fd69" style="stroke:#484848;stroke-width:1.5;"/>
    </defs>
    <g clip-path="url(#p23301ded9f)">
     <use style="fill:#72b6a1;stroke:#484848;stroke-width:1.5;" x="0" xlink:href="#mca0735fd69" y="720"/>
    </g>
   </g>
   <g id="PolyCollection_9">
    <defs>
     <path d="M 991.754571 -265.075028 
L 982.645429 -265.075028 
L 981.748008 -265.699074 
L 980.72743 -266.323119 
L 979.578827 -266.947165 
L 978.299759 -267.57121 
L 976.890686 -268.195256 
L 975.355382 -268.819301 
L 973.701255 -269.443347 
L 971.939552 -270.067392 
L 970.08541 -270.691437 
L 968.15774 -271.315483 
L 966.178926 -271.939528 
L 964.174337 -272.563574 
L 962.171658 -273.187619 
L 960.200072 -273.811665 
L 958.289312 -274.43571 
L 956.468644 -275.059756 
L 954.765817 -275.683801 
L 953.206057 -276.307847 
L 951.811152 -276.931892 
L 950.598688 -277.555938 
L 949.581486 -278.179983 
L 948.767275 -278.804028 
L 948.158623 -279.428074 
L 947.753128 -280.052119 
L 947.543858 -280.676165 
L 947.52 -281.30021 
L 947.667684 -281.924256 
L 947.97091 -282.548301 
L 948.412516 -283.172347 
L 948.975127 -283.796392 
L 949.642008 -284.420438 
L 950.397772 -285.044483 
L 951.228906 -285.668528 
L 952.124075 -286.292574 
L 953.07421 -286.916619 
L 954.072378 -287.540665 
L 955.113466 -288.16471 
L 956.193719 -288.788756 
L 957.310179 -289.412801 
L 958.46008 -290.036847 
L 959.640257 -290.660892 
L 960.846619 -291.284938 
L 962.073729 -291.908983 
L 963.314533 -292.533028 
L 964.560237 -293.157074 
L 965.800366 -293.781119 
L 967.022975 -294.405165 
L 968.215003 -295.02921 
L 969.362747 -295.653256 
L 970.452403 -296.277301 
L 971.470659 -296.901347 
L 972.405284 -297.525392 
L 973.245672 -298.149438 
L 973.983336 -298.773483 
L 974.612287 -299.397529 
L 975.129317 -300.021574 
L 975.534147 -300.645619 
L 975.829454 -301.269665 
L 976.020777 -301.89371 
L 976.116306 -302.517756 
L 976.126579 -303.141801 
L 976.064101 -303.765847 
L 975.942899 -304.389892 
L 975.778046 -305.013938 
L 975.585167 -305.637983 
L 975.379948 -306.262029 
L 975.177661 -306.886074 
L 974.992738 -307.510119 
L 974.838374 -308.134165 
L 974.72621 -308.75821 
L 974.666063 -309.382256 
L 974.665735 -310.006301 
L 974.730898 -310.630347 
L 974.865037 -311.254392 
L 975.069475 -311.878438 
L 975.343459 -312.502483 
L 975.684299 -313.126529 
L 976.087563 -313.750574 
L 976.547316 -314.37462 
L 977.056383 -314.998665 
L 977.606641 -315.62271 
L 978.18932 -316.246756 
L 978.795299 -316.870801 
L 979.415402 -317.494847 
L 980.04066 -318.118892 
L 980.662561 -318.742938 
L 981.273255 -319.366983 
L 981.865719 -319.991029 
L 982.433888 -320.615074 
L 982.972733 -321.23912 
L 983.478305 -321.863165 
L 983.947727 -322.48721 
L 984.379162 -323.111256 
L 984.771744 -323.735301 
L 985.125485 -324.359347 
L 985.44116 -324.983392 
L 985.720192 -325.607438 
L 985.964519 -326.231483 
L 986.176467 -326.855529 
L 988.223533 -326.855529 
L 988.223533 -326.855529 
L 988.435481 -326.231483 
L 988.679808 -325.607438 
L 988.95884 -324.983392 
L 989.274515 -324.359347 
L 989.628256 -323.735301 
L 990.020838 -323.111256 
L 990.452273 -322.48721 
L 990.921695 -321.863165 
L 991.427267 -321.23912 
L 991.966112 -320.615074 
L 992.534281 -319.991029 
L 993.126745 -319.366983 
L 993.737439 -318.742938 
L 994.35934 -318.118892 
L 994.984598 -317.494847 
L 995.604701 -316.870801 
L 996.21068 -316.246756 
L 996.793359 -315.62271 
L 997.343617 -314.998665 
L 997.852684 -314.37462 
L 998.312437 -313.750574 
L 998.715701 -313.126529 
L 999.056541 -312.502483 
L 999.330525 -311.878438 
L 999.534963 -311.254392 
L 999.669102 -310.630347 
L 999.734265 -310.006301 
L 999.733937 -309.382256 
L 999.67379 -308.75821 
L 999.561626 -308.134165 
L 999.407262 -307.510119 
L 999.222339 -306.886074 
L 999.020052 -306.262029 
L 998.814833 -305.637983 
L 998.621954 -305.013938 
L 998.457101 -304.389892 
L 998.335899 -303.765847 
L 998.273421 -303.141801 
L 998.283694 -302.517756 
L 998.379223 -301.89371 
L 998.570546 -301.269665 
L 998.865853 -300.645619 
L 999.270683 -300.021574 
L 999.787713 -299.397529 
L 1000.416664 -298.773483 
L 1001.154328 -298.149438 
L 1001.994716 -297.525392 
L 1002.929341 -296.901347 
L 1003.947597 -296.277301 
L 1005.037253 -295.653256 
L 1006.184997 -295.02921 
L 1007.377025 -294.405165 
L 1008.599634 -293.781119 
L 1009.839763 -293.157074 
L 1011.085467 -292.533028 
L 1012.326271 -291.908983 
L 1013.553381 -291.284938 
L 1014.759743 -290.660892 
L 1015.93992 -290.036847 
L 1017.089821 -289.412801 
L 1018.206281 -288.788756 
L 1019.286534 -288.16471 
L 1020.327622 -287.540665 
L 1021.32579 -286.916619 
L 1022.275925 -286.292574 
L 1023.171094 -285.668528 
L 1024.002228 -285.044483 
L 1024.757992 -284.420438 
L 1025.424873 -283.796392 
L 1025.987484 -283.172347 
L 1026.42909 -282.548301 
L 1026.732316 -281.924256 
L 1026.88 -281.30021 
L 1026.856142 -280.676165 
L 1026.646872 -280.052119 
L 1026.241377 -279.428074 
L 1025.632725 -278.804028 
L 1024.818514 -278.179983 
L 1023.801312 -277.555938 
L 1022.588848 -276.931892 
L 1021.193943 -276.307847 
L 1019.634183 -275.683801 
L 1017.931356 -275.059756 
L 1016.110688 -274.43571 
L 1014.199928 -273.811665 
L 1012.228342 -273.187619 
L 1010.225663 -272.563574 
L 1008.221074 -271.939528 
L 1006.24226 -271.315483 
L 1004.31459 -270.691437 
L 1002.460448 -270.067392 
L 1000.698745 -269.443347 
L 999.044618 -268.819301 
L 997.509314 -268.195256 
L 996.100241 -267.57121 
L 994.821173 -266.947165 
L 993.67257 -266.323119 
L 992.651992 -265.699074 
L 991.754571 -265.075028 
z
" id="mc345631db9" style="stroke:#484848;stroke-width:1.5;"/>
    </defs>
    <g clip-path="url(#p23301ded9f)">
     <use style="fill:#4483ab;stroke:#484848;stroke-width:1.5;" x="0" xlink:href="#mc345631db9" y="720"/>
    </g>
   </g>
   <g id="matplotlib.axis_1">
    <g id="xtick_1">
     <g id="line2d_1">
      <defs>
       <path d="M 0 0 
L 0 3.5 
" id="m029bdeea11" style="stroke:#000000;stroke-width:0.8;"/>
      </defs>
      <g>
       <use style="stroke:#000000;stroke-width:0.8;" x="193.6" xlink:href="#m029bdeea11" y="640.8"/>
      </g>
     </g>
     <g id="text_1">
      <!-- Player1_healthy -->
      <g transform="translate(153.572656 655.398438)scale(0.1 -0.1)">
       <defs>
        <path d="M 1259 4147 
L 1259 2394 
L 2053 2394 
Q 2494 2394 2734 2622 
Q 2975 2850 2975 3272 
Q 2975 3691 2734 3919 
Q 2494 4147 2053 4147 
L 1259 4147 
z
M 628 4666 
L 2053 4666 
Q 2838 4666 3239 4311 
Q 3641 3956 3641 3272 
Q 3641 2581 3239 2228 
Q 2838 1875 2053 1875 
L 1259 1875 
L 1259 0 
L 628 0 
L 628 4666 
z
" id="DejaVuSans-50" transform="scale(0.015625)"/>
        <path d="M 603 4863 
L 1178 4863 
L 1178 0 
L 603 0 
L 603 4863 
z
" id="DejaVuSans-6c" transform="scale(0.015625)"/>
        <path d="M 2194 1759 
Q 1497 1759 1228 1600 
Q 959 1441 959 1056 
Q 959 750 1161 570 
Q 1363 391 1709 391 
Q 2188 391 2477 730 
Q 2766 1069 2766 1631 
L 2766 1759 
L 2194 1759 
z
M 3341 1997 
L 3341 0 
L 2766 0 
L 2766 531 
Q 2569 213 2275 61 
Q 1981 -91 1556 -91 
Q 1019 -91 701 211 
Q 384 513 384 1019 
Q 384 1609 779 1909 
Q 1175 2209 1959 2209 
L 2766 2209 
L 2766 2266 
Q 2766 2663 2505 2880 
Q 2244 3097 1772 3097 
Q 1472 3097 1187 3025 
Q 903 2953 641 2809 
L 641 3341 
Q 956 3463 1253 3523 
Q 1550 3584 1831 3584 
Q 2591 3584 2966 3190 
Q 3341 2797 3341 1997 
z
" id="DejaVuSans-61" transform="scale(0.015625)"/>
        <path d="M 2059 -325 
Q 1816 -950 1584 -1140 
Q 1353 -1331 966 -1331 
L 506 -1331 
L 506 -850 
L 844 -850 
Q 1081 -850 1212 -737 
Q 1344 -625 1503 -206 
L 1606 56 
L 191 3500 
L 800 3500 
L 1894 763 
L 2988 3500 
L 3597 3500 
L 2059 -325 
z
" id="DejaVuSans-79" transform="scale(0.015625)"/>
        <path d="M 3597 1894 
L 3597 1613 
L 953 1613 
Q 991 1019 1311 708 
Q 1631 397 2203 397 
Q 2534 397 2845 478 
Q 3156 559 3463 722 
L 3463 178 
Q 3153 47 2828 -22 
Q 2503 -91 2169 -91 
Q 1331 -91 842 396 
Q 353 884 353 1716 
Q 353 2575 817 3079 
Q 1281 3584 2069 3584 
Q 2775 3584 3186 3129 
Q 3597 2675 3597 1894 
z
M 3022 2063 
Q 3016 2534 2758 2815 
Q 2500 3097 2075 3097 
Q 1594 3097 1305 2825 
Q 1016 2553 972 2059 
L 3022 2063 
z
" id="DejaVuSans-65" transform="scale(0.015625)"/>
        <path d="M 2631 2963 
Q 2534 3019 2420 3045 
Q 2306 3072 2169 3072 
Q 1681 3072 1420 2755 
Q 1159 2438 1159 1844 
L 1159 0 
L 581 0 
L 581 3500 
L 1159 3500 
L 1159 2956 
Q 1341 3275 1631 3429 
Q 1922 3584 2338 3584 
Q 2397 3584 2469 3576 
Q 2541 3569 2628 3553 
L 2631 2963 
z
" id="DejaVuSans-72" transform="scale(0.015625)"/>
        <path d="M 794 531 
L 1825 531 
L 1825 4091 
L 703 3866 
L 703 4441 
L 1819 4666 
L 2450 4666 
L 2450 531 
L 3481 531 
L 3481 0 
L 794 0 
L 794 531 
z
" id="DejaVuSans-31" transform="scale(0.015625)"/>
        <path d="M 3263 -1063 
L 3263 -1509 
L -63 -1509 
L -63 -1063 
L 3263 -1063 
z
" id="DejaVuSans-5f" transform="scale(0.015625)"/>
        <path d="M 3513 2113 
L 3513 0 
L 2938 0 
L 2938 2094 
Q 2938 2591 2744 2837 
Q 2550 3084 2163 3084 
Q 1697 3084 1428 2787 
Q 1159 2491 1159 1978 
L 1159 0 
L 581 0 
L 581 4863 
L 1159 4863 
L 1159 2956 
Q 1366 3272 1645 3428 
Q 1925 3584 2291 3584 
Q 2894 3584 3203 3211 
Q 3513 2838 3513 2113 
z
" id="DejaVuSans-68" transform="scale(0.015625)"/>
        <path d="M 1172 4494 
L 1172 3500 
L 2356 3500 
L 2356 3053 
L 1172 3053 
L 1172 1153 
Q 1172 725 1289 603 
Q 1406 481 1766 481 
L 2356 481 
L 2356 0 
L 1766 0 
Q 1100 0 847 248 
Q 594 497 594 1153 
L 594 3053 
L 172 3053 
L 172 3500 
L 594 3500 
L 594 4494 
L 1172 4494 
z
" id="DejaVuSans-74" transform="scale(0.015625)"/>
       </defs>
       <use xlink:href="#DejaVuSans-50"/>
       <use x="60.302734" xlink:href="#DejaVuSans-6c"/>
       <use x="88.085938" xlink:href="#DejaVuSans-61"/>
       <use x="149.365234" xlink:href="#DejaVuSans-79"/>
       <use x="208.544922" xlink:href="#DejaVuSans-65"/>
       <use x="270.068359" xlink:href="#DejaVuSans-72"/>
       <use x="311.181641" xlink:href="#DejaVuSans-31"/>
       <use x="374.804688" xlink:href="#DejaVuSans-5f"/>
       <use x="424.804688" xlink:href="#DejaVuSans-68"/>
       <use x="488.183594" xlink:href="#DejaVuSans-65"/>
       <use x="549.707031" xlink:href="#DejaVuSans-61"/>
       <use x="610.986328" xlink:href="#DejaVuSans-6c"/>
       <use x="638.769531" xlink:href="#DejaVuSans-74"/>
       <use x="677.978516" xlink:href="#DejaVuSans-68"/>
       <use x="741.357422" xlink:href="#DejaVuSans-79"/>
      </g>
     </g>
    </g>
    <g id="xtick_2">
     <g id="line2d_2">
      <g>
       <use style="stroke:#000000;stroke-width:0.8;" x="292.8" xlink:href="#m029bdeea11" y="640.8"/>
      </g>
     </g>
     <g id="text_2">
      <!-- biased_A -->
      <g transform="translate(270.396875 655.398438)scale(0.1 -0.1)">
       <defs>
        <path d="M 3116 1747 
Q 3116 2381 2855 2742 
Q 2594 3103 2138 3103 
Q 1681 3103 1420 2742 
Q 1159 2381 1159 1747 
Q 1159 1113 1420 752 
Q 1681 391 2138 391 
Q 2594 391 2855 752 
Q 3116 1113 3116 1747 
z
M 1159 2969 
Q 1341 3281 1617 3432 
Q 1894 3584 2278 3584 
Q 2916 3584 3314 3078 
Q 3713 2572 3713 1747 
Q 3713 922 3314 415 
Q 2916 -91 2278 -91 
Q 1894 -91 1617 61 
Q 1341 213 1159 525 
L 1159 0 
L 581 0 
L 581 4863 
L 1159 4863 
L 1159 2969 
z
" id="DejaVuSans-62" transform="scale(0.015625)"/>
        <path d="M 603 3500 
L 1178 3500 
L 1178 0 
L 603 0 
L 603 3500 
z
M 603 4863 
L 1178 4863 
L 1178 4134 
L 603 4134 
L 603 4863 
z
" id="DejaVuSans-69" transform="scale(0.015625)"/>
        <path d="M 2834 3397 
L 2834 2853 
Q 2591 2978 2328 3040 
Q 2066 3103 1784 3103 
Q 1356 3103 1142 2972 
Q 928 2841 928 2578 
Q 928 2378 1081 2264 
Q 1234 2150 1697 2047 
L 1894 2003 
Q 2506 1872 2764 1633 
Q 3022 1394 3022 966 
Q 3022 478 2636 193 
Q 2250 -91 1575 -91 
Q 1294 -91 989 -36 
Q 684 19 347 128 
L 347 722 
Q 666 556 975 473 
Q 1284 391 1588 391 
Q 1994 391 2212 530 
Q 2431 669 2431 922 
Q 2431 1156 2273 1281 
Q 2116 1406 1581 1522 
L 1381 1569 
Q 847 1681 609 1914 
Q 372 2147 372 2553 
Q 372 3047 722 3315 
Q 1072 3584 1716 3584 
Q 2034 3584 2315 3537 
Q 2597 3491 2834 3397 
z
" id="DejaVuSans-73" transform="scale(0.015625)"/>
        <path d="M 2906 2969 
L 2906 4863 
L 3481 4863 
L 3481 0 
L 2906 0 
L 2906 525 
Q 2725 213 2448 61 
Q 2172 -91 1784 -91 
Q 1150 -91 751 415 
Q 353 922 353 1747 
Q 353 2572 751 3078 
Q 1150 3584 1784 3584 
Q 2172 3584 2448 3432 
Q 2725 3281 2906 2969 
z
M 947 1747 
Q 947 1113 1208 752 
Q 1469 391 1925 391 
Q 2381 391 2643 752 
Q 2906 1113 2906 1747 
Q 2906 2381 2643 2742 
Q 2381 3103 1925 3103 
Q 1469 3103 1208 2742 
Q 947 2381 947 1747 
z
" id="DejaVuSans-64" transform="scale(0.015625)"/>
        <path d="M 2188 4044 
L 1331 1722 
L 3047 1722 
L 2188 4044 
z
M 1831 4666 
L 2547 4666 
L 4325 0 
L 3669 0 
L 3244 1197 
L 1141 1197 
L 716 0 
L 50 0 
L 1831 4666 
z
" id="DejaVuSans-41" transform="scale(0.015625)"/>
       </defs>
       <use xlink:href="#DejaVuSans-62"/>
       <use x="63.476562" xlink:href="#DejaVuSans-69"/>
       <use x="91.259766" xlink:href="#DejaVuSans-61"/>
       <use x="152.539062" xlink:href="#DejaVuSans-73"/>
       <use x="204.638672" xlink:href="#DejaVuSans-65"/>
       <use x="266.162109" xlink:href="#DejaVuSans-64"/>
       <use x="329.638672" xlink:href="#DejaVuSans-5f"/>
       <use x="379.638672" xlink:href="#DejaVuSans-41"/>
      </g>
     </g>
    </g>
    <g id="xtick_3">
     <g id="line2d_3">
      <g>
       <use style="stroke:#000000;stroke-width:0.8;" x="392" xlink:href="#m029bdeea11" y="640.8"/>
      </g>
     </g>
     <g id="text_3">
      <!-- biased_B -->
      <g transform="translate(369.586719 655.398438)scale(0.1 -0.1)">
       <defs>
        <path d="M 1259 2228 
L 1259 519 
L 2272 519 
Q 2781 519 3026 730 
Q 3272 941 3272 1375 
Q 3272 1813 3026 2020 
Q 2781 2228 2272 2228 
L 1259 2228 
z
M 1259 4147 
L 1259 2741 
L 2194 2741 
Q 2656 2741 2882 2914 
Q 3109 3088 3109 3444 
Q 3109 3797 2882 3972 
Q 2656 4147 2194 4147 
L 1259 4147 
z
M 628 4666 
L 2241 4666 
Q 2963 4666 3353 4366 
Q 3744 4066 3744 3513 
Q 3744 3084 3544 2831 
Q 3344 2578 2956 2516 
Q 3422 2416 3680 2098 
Q 3938 1781 3938 1306 
Q 3938 681 3513 340 
Q 3088 0 2303 0 
L 628 0 
L 628 4666 
z
" id="DejaVuSans-42" transform="scale(0.015625)"/>
       </defs>
       <use xlink:href="#DejaVuSans-62"/>
       <use x="63.476562" xlink:href="#DejaVuSans-69"/>
       <use x="91.259766" xlink:href="#DejaVuSans-61"/>
       <use x="152.539062" xlink:href="#DejaVuSans-73"/>
       <use x="204.638672" xlink:href="#DejaVuSans-65"/>
       <use x="266.162109" xlink:href="#DejaVuSans-64"/>
       <use x="329.638672" xlink:href="#DejaVuSans-5f"/>
       <use x="379.638672" xlink:href="#DejaVuSans-42"/>
      </g>
     </g>
    </g>
    <g id="xtick_4">
     <g id="line2d_4">
      <g>
       <use style="stroke:#000000;stroke-width:0.8;" x="491.2" xlink:href="#m029bdeea11" y="640.8"/>
      </g>
     </g>
     <g id="text_4">
      <!-- biased_C -->
      <g transform="translate(468.725781 655.398438)scale(0.1 -0.1)">
       <defs>
        <path d="M 4122 4306 
L 4122 3641 
Q 3803 3938 3442 4084 
Q 3081 4231 2675 4231 
Q 1875 4231 1450 3742 
Q 1025 3253 1025 2328 
Q 1025 1406 1450 917 
Q 1875 428 2675 428 
Q 3081 428 3442 575 
Q 3803 722 4122 1019 
L 4122 359 
Q 3791 134 3420 21 
Q 3050 -91 2638 -91 
Q 1578 -91 968 557 
Q 359 1206 359 2328 
Q 359 3453 968 4101 
Q 1578 4750 2638 4750 
Q 3056 4750 3426 4639 
Q 3797 4528 4122 4306 
z
" id="DejaVuSans-43" transform="scale(0.015625)"/>
       </defs>
       <use xlink:href="#DejaVuSans-62"/>
       <use x="63.476562" xlink:href="#DejaVuSans-69"/>
       <use x="91.259766" xlink:href="#DejaVuSans-61"/>
       <use x="152.539062" xlink:href="#DejaVuSans-73"/>
       <use x="204.638672" xlink:href="#DejaVuSans-65"/>
       <use x="266.162109" xlink:href="#DejaVuSans-64"/>
       <use x="329.638672" xlink:href="#DejaVuSans-5f"/>
       <use x="379.638672" xlink:href="#DejaVuSans-43"/>
      </g>
     </g>
    </g>
    <g id="xtick_5">
     <g id="line2d_5">
      <g>
       <use style="stroke:#000000;stroke-width:0.8;" x="590.4" xlink:href="#m029bdeea11" y="640.8"/>
      </g>
     </g>
     <g id="text_5">
      <!-- biased_D -->
      <g transform="translate(567.567187 655.398438)scale(0.1 -0.1)">
       <defs>
        <path d="M 1259 4147 
L 1259 519 
L 2022 519 
Q 2988 519 3436 956 
Q 3884 1394 3884 2338 
Q 3884 3275 3436 3711 
Q 2988 4147 2022 4147 
L 1259 4147 
z
M 628 4666 
L 1925 4666 
Q 3281 4666 3915 4102 
Q 4550 3538 4550 2338 
Q 4550 1131 3912 565 
Q 3275 0 1925 0 
L 628 0 
L 628 4666 
z
" id="DejaVuSans-44" transform="scale(0.015625)"/>
       </defs>
       <use xlink:href="#DejaVuSans-62"/>
       <use x="63.476562" xlink:href="#DejaVuSans-69"/>
       <use x="91.259766" xlink:href="#DejaVuSans-61"/>
       <use x="152.539062" xlink:href="#DejaVuSans-73"/>
       <use x="204.638672" xlink:href="#DejaVuSans-65"/>
       <use x="266.162109" xlink:href="#DejaVuSans-64"/>
       <use x="329.638672" xlink:href="#DejaVuSans-5f"/>
       <use x="379.638672" xlink:href="#DejaVuSans-44"/>
      </g>
     </g>
    </g>
    <g id="xtick_6">
     <g id="line2d_6">
      <g>
       <use style="stroke:#000000;stroke-width:0.8;" x="689.6" xlink:href="#m029bdeea11" y="640.8"/>
      </g>
     </g>
     <g id="text_6">
      <!-- Type1_depressed -->
      <g transform="translate(646.53125 655.398438)scale(0.1 -0.1)">
       <defs>
        <path d="M -19 4666 
L 3928 4666 
L 3928 4134 
L 2272 4134 
L 2272 0 
L 1638 0 
L 1638 4134 
L -19 4134 
L -19 4666 
z
" id="DejaVuSans-54" transform="scale(0.015625)"/>
        <path d="M 1159 525 
L 1159 -1331 
L 581 -1331 
L 581 3500 
L 1159 3500 
L 1159 2969 
Q 1341 3281 1617 3432 
Q 1894 3584 2278 3584 
Q 2916 3584 3314 3078 
Q 3713 2572 3713 1747 
Q 3713 922 3314 415 
Q 2916 -91 2278 -91 
Q 1894 -91 1617 61 
Q 1341 213 1159 525 
z
M 3116 1747 
Q 3116 2381 2855 2742 
Q 2594 3103 2138 3103 
Q 1681 3103 1420 2742 
Q 1159 2381 1159 1747 
Q 1159 1113 1420 752 
Q 1681 391 2138 391 
Q 2594 391 2855 752 
Q 3116 1113 3116 1747 
z
" id="DejaVuSans-70" transform="scale(0.015625)"/>
       </defs>
       <use xlink:href="#DejaVuSans-54"/>
       <use x="45.458984" xlink:href="#DejaVuSans-79"/>
       <use x="104.638672" xlink:href="#DejaVuSans-70"/>
       <use x="168.115234" xlink:href="#DejaVuSans-65"/>
       <use x="229.638672" xlink:href="#DejaVuSans-31"/>
       <use x="293.261719" xlink:href="#DejaVuSans-5f"/>
       <use x="343.261719" xlink:href="#DejaVuSans-64"/>
       <use x="406.738281" xlink:href="#DejaVuSans-65"/>
       <use x="468.261719" xlink:href="#DejaVuSans-70"/>
       <use x="531.738281" xlink:href="#DejaVuSans-72"/>
       <use x="570.601562" xlink:href="#DejaVuSans-65"/>
       <use x="632.125" xlink:href="#DejaVuSans-73"/>
       <use x="684.224609" xlink:href="#DejaVuSans-73"/>
       <use x="736.324219" xlink:href="#DejaVuSans-65"/>
       <use x="797.847656" xlink:href="#DejaVuSans-64"/>
      </g>
     </g>
    </g>
    <g id="xtick_7">
     <g id="line2d_7">
      <g>
       <use style="stroke:#000000;stroke-width:0.8;" x="788.8" xlink:href="#m029bdeea11" y="640.8"/>
      </g>
     </g>
     <g id="text_7">
      <!-- Type2_depressed -->
      <g transform="translate(745.73125 655.398438)scale(0.1 -0.1)">
       <defs>
        <path d="M 1228 531 
L 3431 531 
L 3431 0 
L 469 0 
L 469 531 
Q 828 903 1448 1529 
Q 2069 2156 2228 2338 
Q 2531 2678 2651 2914 
Q 2772 3150 2772 3378 
Q 2772 3750 2511 3984 
Q 2250 4219 1831 4219 
Q 1534 4219 1204 4116 
Q 875 4013 500 3803 
L 500 4441 
Q 881 4594 1212 4672 
Q 1544 4750 1819 4750 
Q 2544 4750 2975 4387 
Q 3406 4025 3406 3419 
Q 3406 3131 3298 2873 
Q 3191 2616 2906 2266 
Q 2828 2175 2409 1742 
Q 1991 1309 1228 531 
z
" id="DejaVuSans-32" transform="scale(0.015625)"/>
       </defs>
       <use xlink:href="#DejaVuSans-54"/>
       <use x="45.458984" xlink:href="#DejaVuSans-79"/>
       <use x="104.638672" xlink:href="#DejaVuSans-70"/>
       <use x="168.115234" xlink:href="#DejaVuSans-65"/>
       <use x="229.638672" xlink:href="#DejaVuSans-32"/>
       <use x="293.261719" xlink:href="#DejaVuSans-5f"/>
       <use x="343.261719" xlink:href="#DejaVuSans-64"/>
       <use x="406.738281" xlink:href="#DejaVuSans-65"/>
       <use x="468.261719" xlink:href="#DejaVuSans-70"/>
       <use x="531.738281" xlink:href="#DejaVuSans-72"/>
       <use x="570.601562" xlink:href="#DejaVuSans-65"/>
       <use x="632.125" xlink:href="#DejaVuSans-73"/>
       <use x="684.224609" xlink:href="#DejaVuSans-73"/>
       <use x="736.324219" xlink:href="#DejaVuSans-65"/>
       <use x="797.847656" xlink:href="#DejaVuSans-64"/>
      </g>
     </g>
    </g>
    <g id="xtick_8">
     <g id="line2d_8">
      <g>
       <use style="stroke:#000000;stroke-width:0.8;" x="888" xlink:href="#m029bdeea11" y="640.8"/>
      </g>
     </g>
     <g id="text_8">
      <!-- Type1_social_phobia -->
      <g transform="translate(837.050781 655.398438)scale(0.1 -0.1)">
       <defs>
        <path d="M 1959 3097 
Q 1497 3097 1228 2736 
Q 959 2375 959 1747 
Q 959 1119 1226 758 
Q 1494 397 1959 397 
Q 2419 397 2687 759 
Q 2956 1122 2956 1747 
Q 2956 2369 2687 2733 
Q 2419 3097 1959 3097 
z
M 1959 3584 
Q 2709 3584 3137 3096 
Q 3566 2609 3566 1747 
Q 3566 888 3137 398 
Q 2709 -91 1959 -91 
Q 1206 -91 779 398 
Q 353 888 353 1747 
Q 353 2609 779 3096 
Q 1206 3584 1959 3584 
z
" id="DejaVuSans-6f" transform="scale(0.015625)"/>
        <path d="M 3122 3366 
L 3122 2828 
Q 2878 2963 2633 3030 
Q 2388 3097 2138 3097 
Q 1578 3097 1268 2742 
Q 959 2388 959 1747 
Q 959 1106 1268 751 
Q 1578 397 2138 397 
Q 2388 397 2633 464 
Q 2878 531 3122 666 
L 3122 134 
Q 2881 22 2623 -34 
Q 2366 -91 2075 -91 
Q 1284 -91 818 406 
Q 353 903 353 1747 
Q 353 2603 823 3093 
Q 1294 3584 2113 3584 
Q 2378 3584 2631 3529 
Q 2884 3475 3122 3366 
z
" id="DejaVuSans-63" transform="scale(0.015625)"/>
       </defs>
       <use xlink:href="#DejaVuSans-54"/>
       <use x="45.458984" xlink:href="#DejaVuSans-79"/>
       <use x="104.638672" xlink:href="#DejaVuSans-70"/>
       <use x="168.115234" xlink:href="#DejaVuSans-65"/>
       <use x="229.638672" xlink:href="#DejaVuSans-31"/>
       <use x="293.261719" xlink:href="#DejaVuSans-5f"/>
       <use x="343.261719" xlink:href="#DejaVuSans-73"/>
       <use x="395.361328" xlink:href="#DejaVuSans-6f"/>
       <use x="456.542969" xlink:href="#DejaVuSans-63"/>
       <use x="511.523438" xlink:href="#DejaVuSans-69"/>
       <use x="539.306641" xlink:href="#DejaVuSans-61"/>
       <use x="600.585938" xlink:href="#DejaVuSans-6c"/>
       <use x="628.369141" xlink:href="#DejaVuSans-5f"/>
       <use x="678.369141" xlink:href="#DejaVuSans-70"/>
       <use x="741.845703" xlink:href="#DejaVuSans-68"/>
       <use x="805.224609" xlink:href="#DejaVuSans-6f"/>
       <use x="866.40625" xlink:href="#DejaVuSans-62"/>
       <use x="929.882812" xlink:href="#DejaVuSans-69"/>
       <use x="957.666016" xlink:href="#DejaVuSans-61"/>
      </g>
     </g>
    </g>
    <g id="xtick_9">
     <g id="line2d_9">
      <g>
       <use style="stroke:#000000;stroke-width:0.8;" x="987.2" xlink:href="#m029bdeea11" y="640.8"/>
      </g>
     </g>
     <g id="text_9">
      <!-- Type2_social_phobia -->
      <g transform="translate(936.250781 655.398438)scale(0.1 -0.1)">
       <use xlink:href="#DejaVuSans-54"/>
       <use x="45.458984" xlink:href="#DejaVuSans-79"/>
       <use x="104.638672" xlink:href="#DejaVuSans-70"/>
       <use x="168.115234" xlink:href="#DejaVuSans-65"/>
       <use x="229.638672" xlink:href="#DejaVuSans-32"/>
       <use x="293.261719" xlink:href="#DejaVuSans-5f"/>
       <use x="343.261719" xlink:href="#DejaVuSans-73"/>
       <use x="395.361328" xlink:href="#DejaVuSans-6f"/>
       <use x="456.542969" xlink:href="#DejaVuSans-63"/>
       <use x="511.523438" xlink:href="#DejaVuSans-69"/>
       <use x="539.306641" xlink:href="#DejaVuSans-61"/>
       <use x="600.585938" xlink:href="#DejaVuSans-6c"/>
       <use x="628.369141" xlink:href="#DejaVuSans-5f"/>
       <use x="678.369141" xlink:href="#DejaVuSans-70"/>
       <use x="741.845703" xlink:href="#DejaVuSans-68"/>
       <use x="805.224609" xlink:href="#DejaVuSans-6f"/>
       <use x="866.40625" xlink:href="#DejaVuSans-62"/>
       <use x="929.882812" xlink:href="#DejaVuSans-69"/>
       <use x="957.666016" xlink:href="#DejaVuSans-61"/>
      </g>
     </g>
    </g>
   </g>
   <g id="matplotlib.axis_2">
    <g id="ytick_1">
     <g id="line2d_10">
      <defs>
       <path d="M 0 0 
L -3.5 0 
" id="m055a705ce8" style="stroke:#000000;stroke-width:0.8;"/>
      </defs>
      <g>
       <use style="stroke:#000000;stroke-width:0.8;" x="144" xlink:href="#m055a705ce8" y="544.904164"/>
      </g>
     </g>
     <g id="text_10">
      <!-- 10 -->
      <g transform="translate(124.275 548.703383)scale(0.1 -0.1)">
       <defs>
        <path d="M 2034 4250 
Q 1547 4250 1301 3770 
Q 1056 3291 1056 2328 
Q 1056 1369 1301 889 
Q 1547 409 2034 409 
Q 2525 409 2770 889 
Q 3016 1369 3016 2328 
Q 3016 3291 2770 3770 
Q 2525 4250 2034 4250 
z
M 2034 4750 
Q 2819 4750 3233 4129 
Q 3647 3509 3647 2328 
Q 3647 1150 3233 529 
Q 2819 -91 2034 -91 
Q 1250 -91 836 529 
Q 422 1150 422 2328 
Q 422 3509 836 4129 
Q 1250 4750 2034 4750 
z
" id="DejaVuSans-30" transform="scale(0.015625)"/>
       </defs>
       <use xlink:href="#DejaVuSans-31"/>
       <use x="63.623047" xlink:href="#DejaVuSans-30"/>
      </g>
     </g>
    </g>
    <g id="ytick_2">
     <g id="line2d_11">
      <g>
       <use style="stroke:#000000;stroke-width:0.8;" x="144" xlink:href="#m055a705ce8" y="429.790409"/>
      </g>
     </g>
     <g id="text_11">
      <!-- 20 -->
      <g transform="translate(124.275 433.589628)scale(0.1 -0.1)">
       <use xlink:href="#DejaVuSans-32"/>
       <use x="63.623047" xlink:href="#DejaVuSans-30"/>
      </g>
     </g>
    </g>
    <g id="ytick_3">
     <g id="line2d_12">
      <g>
       <use style="stroke:#000000;stroke-width:0.8;" x="144" xlink:href="#m055a705ce8" y="314.676654"/>
      </g>
     </g>
     <g id="text_12">
      <!-- 30 -->
      <g transform="translate(124.275 318.475873)scale(0.1 -0.1)">
       <defs>
        <path d="M 2597 2516 
Q 3050 2419 3304 2112 
Q 3559 1806 3559 1356 
Q 3559 666 3084 287 
Q 2609 -91 1734 -91 
Q 1441 -91 1130 -33 
Q 819 25 488 141 
L 488 750 
Q 750 597 1062 519 
Q 1375 441 1716 441 
Q 2309 441 2620 675 
Q 2931 909 2931 1356 
Q 2931 1769 2642 2001 
Q 2353 2234 1838 2234 
L 1294 2234 
L 1294 2753 
L 1863 2753 
Q 2328 2753 2575 2939 
Q 2822 3125 2822 3475 
Q 2822 3834 2567 4026 
Q 2313 4219 1838 4219 
Q 1578 4219 1281 4162 
Q 984 4106 628 3988 
L 628 4550 
Q 988 4650 1302 4700 
Q 1616 4750 1894 4750 
Q 2613 4750 3031 4423 
Q 3450 4097 3450 3541 
Q 3450 3153 3228 2886 
Q 3006 2619 2597 2516 
z
" id="DejaVuSans-33" transform="scale(0.015625)"/>
       </defs>
       <use xlink:href="#DejaVuSans-33"/>
       <use x="63.623047" xlink:href="#DejaVuSans-30"/>
      </g>
     </g>
    </g>
    <g id="ytick_4">
     <g id="line2d_13">
      <g>
       <use style="stroke:#000000;stroke-width:0.8;" x="144" xlink:href="#m055a705ce8" y="199.562899"/>
      </g>
     </g>
     <g id="text_13">
      <!-- 40 -->
      <g transform="translate(124.275 203.362118)scale(0.1 -0.1)">
       <defs>
        <path d="M 2419 4116 
L 825 1625 
L 2419 1625 
L 2419 4116 
z
M 2253 4666 
L 3047 4666 
L 3047 1625 
L 3713 1625 
L 3713 1100 
L 3047 1100 
L 3047 0 
L 2419 0 
L 2419 1100 
L 313 1100 
L 313 1709 
L 2253 4666 
z
" id="DejaVuSans-34" transform="scale(0.015625)"/>
       </defs>
       <use xlink:href="#DejaVuSans-34"/>
       <use x="63.623047" xlink:href="#DejaVuSans-30"/>
      </g>
     </g>
    </g>
   </g>
   <g id="line2d_14">
    <path clip-path="url(#p23301ded9f)" d="M 193.6 452.81316 
L 193.6 211.074274 
" style="fill:none;stroke:#484848;stroke-linecap:square;stroke-width:1.5;"/>
   </g>
   <g id="line2d_15">
    <path clip-path="url(#p23301ded9f)" d="M 193.6 344.894015 
L 193.6 258.558698 
" style="fill:none;stroke:#484848;stroke-linecap:square;stroke-width:4.5;"/>
   </g>
   <g id="line2d_16">
    <path clip-path="url(#p23301ded9f)" d="M 292.8 498.858662 
L 292.8 228.341338 
" style="fill:none;stroke:#484848;stroke-linecap:square;stroke-width:1.5;"/>
   </g>
   <g id="line2d_17">
    <path clip-path="url(#p23301ded9f)" d="M 292.8 493.102975 
L 292.8 280.142527 
" style="fill:none;stroke:#484848;stroke-linecap:square;stroke-width:4.5;"/>
   </g>
   <g id="line2d_18">
    <path clip-path="url(#p23301ded9f)" d="M 392 401.01197 
L 392 245.608401 
" style="fill:none;stroke:#484848;stroke-linecap:square;stroke-width:1.5;"/>
   </g>
   <g id="line2d_19">
    <path clip-path="url(#p23301ded9f)" d="M 392 344.894015 
L 392 303.165279 
" style="fill:none;stroke:#484848;stroke-linecap:square;stroke-width:4.5;"/>
   </g>
   <g id="line2d_20">
    <path clip-path="url(#p23301ded9f)" d="M 491.2 447.057473 
L 491.2 395.256283 
" style="fill:none;stroke:#484848;stroke-linecap:square;stroke-width:1.5;"/>
   </g>
   <g id="line2d_21">
    <path clip-path="url(#p23301ded9f)" d="M 491.2 447.057473 
L 491.2 424.034721 
" style="fill:none;stroke:#484848;stroke-linecap:square;stroke-width:4.5;"/>
   </g>
   <g id="line2d_22">
    <path clip-path="url(#p23301ded9f)" d="M 590.4 395.256283 
L 590.4 251.364089 
" style="fill:none;stroke:#484848;stroke-linecap:square;stroke-width:1.5;"/>
   </g>
   <g id="line2d_23">
    <path clip-path="url(#p23301ded9f)" d="M 590.4 334.821561 
L 590.4 291.653903 
" style="fill:none;stroke:#484848;stroke-linecap:square;stroke-width:4.5;"/>
   </g>
   <g id="line2d_24">
    <path clip-path="url(#p23301ded9f)" d="M 689.6 481.591599 
L 689.6 406.767658 
" style="fill:none;stroke:#484848;stroke-linecap:square;stroke-width:1.5;"/>
   </g>
   <g id="line2d_25">
    <path clip-path="url(#p23301ded9f)" d="M 689.6 460.00777 
L 689.6 426.912565 
" style="fill:none;stroke:#484848;stroke-linecap:square;stroke-width:4.5;"/>
   </g>
   <g id="line2d_26">
    <path clip-path="url(#p23301ded9f)" d="M 788.8 481.591599 
L 788.8 280.142527 
" style="fill:none;stroke:#484848;stroke-linecap:square;stroke-width:1.5;"/>
   </g>
   <g id="line2d_27">
    <path clip-path="url(#p23301ded9f)" d="M 788.8 419.717956 
L 788.8 323.310186 
" style="fill:none;stroke:#484848;stroke-linecap:square;stroke-width:4.5;"/>
   </g>
   <g id="line2d_28">
    <path clip-path="url(#p23301ded9f)" d="M 888 464.324536 
L 888 424.034721 
" style="fill:none;stroke:#484848;stroke-linecap:square;stroke-width:1.5;"/>
   </g>
   <g id="line2d_29">
    <path clip-path="url(#p23301ded9f)" d="M 888 447.057473 
L 888 435.546097 
" style="fill:none;stroke:#484848;stroke-linecap:square;stroke-width:4.5;"/>
   </g>
   <g id="line2d_30">
    <path clip-path="url(#p23301ded9f)" d="M 987.2 441.301785 
L 987.2 412.523346 
" style="fill:none;stroke:#484848;stroke-linecap:square;stroke-width:1.5;"/>
   </g>
   <g id="line2d_31">
    <path clip-path="url(#p23301ded9f)" d="M 987.2 441.301785 
L 987.2 429.790409 
" style="fill:none;stroke:#484848;stroke-linecap:square;stroke-width:4.5;"/>
   </g>
   <g id="patch_3">
    <path d="M 144 640.8 
L 144 86.4 
" style="fill:none;stroke:#000000;stroke-linecap:square;stroke-linejoin:miter;stroke-width:0.8;"/>
   </g>
   <g id="patch_4">
    <path d="M 1036.8 640.8 
L 1036.8 86.4 
" style="fill:none;stroke:#000000;stroke-linecap:square;stroke-linejoin:miter;stroke-width:0.8;"/>
   </g>
   <g id="patch_5">
    <path d="M 144 640.8 
L 1036.8 640.8 
" style="fill:none;stroke:#000000;stroke-linecap:square;stroke-linejoin:miter;stroke-width:0.8;"/>
   </g>
   <g id="patch_6">
    <path d="M 144 86.4 
L 1036.8 86.4 
" style="fill:none;stroke:#000000;stroke-linecap:square;stroke-linejoin:miter;stroke-width:0.8;"/>
   </g>
   <g id="PathCollection_1">
    <defs>
     <path d="M 0 1.5 
C 0.397805 1.5 0.77937 1.341951 1.06066 1.06066 
C 1.341951 0.77937 1.5 0.397805 1.5 0 
C 1.5 -0.397805 1.341951 -0.77937 1.06066 -1.06066 
C 0.77937 -1.341951 0.397805 -1.5 0 -1.5 
C -0.397805 -1.5 -0.77937 -1.341951 -1.06066 -1.06066 
C -1.341951 -0.77937 -1.5 -0.397805 -1.5 0 
C -1.5 0.397805 -1.341951 0.77937 -1.06066 1.06066 
C -0.77937 1.341951 -0.397805 1.5 0 1.5 
z
" id="m440bdc33c5" style="stroke:#484848;"/>
    </defs>
    <g clip-path="url(#p23301ded9f)">
     <use style="fill:#ffffff;stroke:#484848;" x="193.6" xlink:href="#m440bdc33c5" y="297.409591"/>
    </g>
   </g>
   <g id="PathCollection_2">
    <g clip-path="url(#p23301ded9f)">
     <use style="fill:#ffffff;stroke:#484848;" x="292.8" xlink:href="#m440bdc33c5" y="323.310186"/>
    </g>
   </g>
   <g id="PathCollection_3">
    <g clip-path="url(#p23301ded9f)">
     <use style="fill:#ffffff;stroke:#484848;" x="392" xlink:href="#m440bdc33c5" y="323.310186"/>
    </g>
   </g>
   <g id="PathCollection_4">
    <g clip-path="url(#p23301ded9f)">
     <use style="fill:#ffffff;stroke:#484848;" x="491.2" xlink:href="#m440bdc33c5" y="441.301785"/>
    </g>
   </g>
   <g id="PathCollection_5">
    <g clip-path="url(#p23301ded9f)">
     <use style="fill:#ffffff;stroke:#484848;" x="590.4" xlink:href="#m440bdc33c5" y="314.676654"/>
    </g>
   </g>
   <g id="PathCollection_6">
    <g clip-path="url(#p23301ded9f)">
     <use style="fill:#ffffff;stroke:#484848;" x="689.6" xlink:href="#m440bdc33c5" y="444.179629"/>
    </g>
   </g>
   <g id="PathCollection_7">
    <g clip-path="url(#p23301ded9f)">
     <use style="fill:#ffffff;stroke:#484848;" x="788.8" xlink:href="#m440bdc33c5" y="366.477844"/>
    </g>
   </g>
   <g id="PathCollection_8">
    <g clip-path="url(#p23301ded9f)">
     <use style="fill:#ffffff;stroke:#484848;" x="888" xlink:href="#m440bdc33c5" y="435.546097"/>
    </g>
   </g>
   <g id="PathCollection_9">
    <g clip-path="url(#p23301ded9f)">
     <use style="fill:#ffffff;stroke:#484848;" x="987.2" xlink:href="#m440bdc33c5" y="435.546097"/>
    </g>
   </g>
   <g id="text_14">
    <!-- Rewards earned per agent type - hostile context first -->
    <g transform="translate(259.265234 80.4)scale(0.25 -0.25)">
     <defs>
      <path d="M 2841 2188 
Q 3044 2119 3236 1894 
Q 3428 1669 3622 1275 
L 4263 0 
L 3584 0 
L 2988 1197 
Q 2756 1666 2539 1819 
Q 2322 1972 1947 1972 
L 1259 1972 
L 1259 0 
L 628 0 
L 628 4666 
L 2053 4666 
Q 2853 4666 3247 4331 
Q 3641 3997 3641 3322 
Q 3641 2881 3436 2590 
Q 3231 2300 2841 2188 
z
M 1259 4147 
L 1259 2491 
L 2053 2491 
Q 2509 2491 2742 2702 
Q 2975 2913 2975 3322 
Q 2975 3731 2742 3939 
Q 2509 4147 2053 4147 
L 1259 4147 
z
" id="DejaVuSans-52" transform="scale(0.015625)"/>
      <path d="M 269 3500 
L 844 3500 
L 1563 769 
L 2278 3500 
L 2956 3500 
L 3675 769 
L 4391 3500 
L 4966 3500 
L 4050 0 
L 3372 0 
L 2619 2869 
L 1863 0 
L 1184 0 
L 269 3500 
z
" id="DejaVuSans-77" transform="scale(0.015625)"/>
      <path id="DejaVuSans-20" transform="scale(0.015625)"/>
      <path d="M 3513 2113 
L 3513 0 
L 2938 0 
L 2938 2094 
Q 2938 2591 2744 2837 
Q 2550 3084 2163 3084 
Q 1697 3084 1428 2787 
Q 1159 2491 1159 1978 
L 1159 0 
L 581 0 
L 581 3500 
L 1159 3500 
L 1159 2956 
Q 1366 3272 1645 3428 
Q 1925 3584 2291 3584 
Q 2894 3584 3203 3211 
Q 3513 2838 3513 2113 
z
" id="DejaVuSans-6e" transform="scale(0.015625)"/>
      <path d="M 2906 1791 
Q 2906 2416 2648 2759 
Q 2391 3103 1925 3103 
Q 1463 3103 1205 2759 
Q 947 2416 947 1791 
Q 947 1169 1205 825 
Q 1463 481 1925 481 
Q 2391 481 2648 825 
Q 2906 1169 2906 1791 
z
M 3481 434 
Q 3481 -459 3084 -895 
Q 2688 -1331 1869 -1331 
Q 1566 -1331 1297 -1286 
Q 1028 -1241 775 -1147 
L 775 -588 
Q 1028 -725 1275 -790 
Q 1522 -856 1778 -856 
Q 2344 -856 2625 -561 
Q 2906 -266 2906 331 
L 2906 616 
Q 2728 306 2450 153 
Q 2172 0 1784 0 
Q 1141 0 747 490 
Q 353 981 353 1791 
Q 353 2603 747 3093 
Q 1141 3584 1784 3584 
Q 2172 3584 2450 3431 
Q 2728 3278 2906 2969 
L 2906 3500 
L 3481 3500 
L 3481 434 
z
" id="DejaVuSans-67" transform="scale(0.015625)"/>
      <path d="M 313 2009 
L 1997 2009 
L 1997 1497 
L 313 1497 
L 313 2009 
z
" id="DejaVuSans-2d" transform="scale(0.015625)"/>
      <path d="M 3513 3500 
L 2247 1797 
L 3578 0 
L 2900 0 
L 1881 1375 
L 863 0 
L 184 0 
L 1544 1831 
L 300 3500 
L 978 3500 
L 1906 2253 
L 2834 3500 
L 3513 3500 
z
" id="DejaVuSans-78" transform="scale(0.015625)"/>
      <path d="M 2375 4863 
L 2375 4384 
L 1825 4384 
Q 1516 4384 1395 4259 
Q 1275 4134 1275 3809 
L 1275 3500 
L 2222 3500 
L 2222 3053 
L 1275 3053 
L 1275 0 
L 697 0 
L 697 3053 
L 147 3053 
L 147 3500 
L 697 3500 
L 697 3744 
Q 697 4328 969 4595 
Q 1241 4863 1831 4863 
L 2375 4863 
z
" id="DejaVuSans-66" transform="scale(0.015625)"/>
     </defs>
     <use xlink:href="#DejaVuSans-52"/>
     <use x="64.982422" xlink:href="#DejaVuSans-65"/>
     <use x="126.505859" xlink:href="#DejaVuSans-77"/>
     <use x="208.292969" xlink:href="#DejaVuSans-61"/>
     <use x="269.572266" xlink:href="#DejaVuSans-72"/>
     <use x="308.935547" xlink:href="#DejaVuSans-64"/>
     <use x="372.412109" xlink:href="#DejaVuSans-73"/>
     <use x="424.511719" xlink:href="#DejaVuSans-20"/>
     <use x="456.298828" xlink:href="#DejaVuSans-65"/>
     <use x="517.822266" xlink:href="#DejaVuSans-61"/>
     <use x="579.101562" xlink:href="#DejaVuSans-72"/>
     <use x="618.464844" xlink:href="#DejaVuSans-6e"/>
     <use x="681.84375" xlink:href="#DejaVuSans-65"/>
     <use x="743.367188" xlink:href="#DejaVuSans-64"/>
     <use x="806.84375" xlink:href="#DejaVuSans-20"/>
     <use x="838.630859" xlink:href="#DejaVuSans-70"/>
     <use x="902.107422" xlink:href="#DejaVuSans-65"/>
     <use x="963.630859" xlink:href="#DejaVuSans-72"/>
     <use x="1004.744141" xlink:href="#DejaVuSans-20"/>
     <use x="1036.53125" xlink:href="#DejaVuSans-61"/>
     <use x="1097.810547" xlink:href="#DejaVuSans-67"/>
     <use x="1161.287109" xlink:href="#DejaVuSans-65"/>
     <use x="1222.810547" xlink:href="#DejaVuSans-6e"/>
     <use x="1286.189453" xlink:href="#DejaVuSans-74"/>
     <use x="1325.398438" xlink:href="#DejaVuSans-20"/>
     <use x="1357.185547" xlink:href="#DejaVuSans-74"/>
     <use x="1396.394531" xlink:href="#DejaVuSans-79"/>
     <use x="1455.574219" xlink:href="#DejaVuSans-70"/>
     <use x="1519.050781" xlink:href="#DejaVuSans-65"/>
     <use x="1580.574219" xlink:href="#DejaVuSans-20"/>
     <use x="1612.361328" xlink:href="#DejaVuSans-2d"/>
     <use x="1648.445312" xlink:href="#DejaVuSans-20"/>
     <use x="1680.232422" xlink:href="#DejaVuSans-68"/>
     <use x="1743.611328" xlink:href="#DejaVuSans-6f"/>
     <use x="1804.792969" xlink:href="#DejaVuSans-73"/>
     <use x="1856.892578" xlink:href="#DejaVuSans-74"/>
     <use x="1896.101562" xlink:href="#DejaVuSans-69"/>
     <use x="1923.884766" xlink:href="#DejaVuSans-6c"/>
     <use x="1951.667969" xlink:href="#DejaVuSans-65"/>
     <use x="2013.191406" xlink:href="#DejaVuSans-20"/>
     <use x="2044.978516" xlink:href="#DejaVuSans-63"/>
     <use x="2099.958984" xlink:href="#DejaVuSans-6f"/>
     <use x="2161.140625" xlink:href="#DejaVuSans-6e"/>
     <use x="2224.519531" xlink:href="#DejaVuSans-74"/>
     <use x="2263.728516" xlink:href="#DejaVuSans-65"/>
     <use x="2323.501953" xlink:href="#DejaVuSans-78"/>
     <use x="2382.681641" xlink:href="#DejaVuSans-74"/>
     <use x="2421.890625" xlink:href="#DejaVuSans-20"/>
     <use x="2453.677734" xlink:href="#DejaVuSans-66"/>
     <use x="2488.882812" xlink:href="#DejaVuSans-69"/>
     <use x="2516.666016" xlink:href="#DejaVuSans-72"/>
     <use x="2557.779297" xlink:href="#DejaVuSans-73"/>
     <use x="2609.878906" xlink:href="#DejaVuSans-74"/>
    </g>
   </g>
  </g>
 </g>
 <defs>
  <clipPath id="p23301ded9f">
   <rect height="554.4" width="892.8" x="144" y="86.4"/>
  </clipPath>
 </defs>
</svg>
