<?xml version="1.0" encoding="utf-8" standalone="no"?>
<!DOCTYPE svg PUBLIC "-//W3C//DTD SVG 1.1//EN"
  "http://www.w3.org/Graphics/SVG/1.1/DTD/svg11.dtd">
<svg height="542.16pt" version="1.1" viewBox="0 0 1105.92 542.16" width="1105.92pt" xmlns="http://www.w3.org/2000/svg" xmlns:xlink="http://www.w3.org/1999/xlink">
 <metadata>
  <rdf:RDF xmlns:cc="http://creativecommons.org/ns#" xmlns:dc="http://purl.org/dc/elements/1.1/" xmlns:rdf="http://www.w3.org/1999/02/22-rdf-syntax-ns#">
   <cc:Work>
    <dc:type rdf:resource="http://purl.org/dc/dcmitype/StillImage"/>
    <dc:date>2023-10-20T11:40:30.743838</dc:date>
    <dc:format>image/svg+xml</dc:format>
    <dc:creator>
     <cc:Agent>
      <dc:title>Matplotlib v3.4.3, https://matplotlib.org/</dc:title>
     </cc:Agent>
    </dc:creator>
   </cc:Work>
  </rdf:RDF>
 </metadata>
 <defs>
  <style type="text/css">*{stroke-linecap:butt;stroke-linejoin:round;}</style>
 </defs>
 <g id="figure_1">
  <g id="patch_1">
   <path d="M 0 542.16 
L 1105.92 542.16 
L 1105.92 0 
L 0 0 
z
" style="fill:#ffffff;"/>
  </g>
  <g id="axes_1">
   <g id="patch_2">
    <path d="M 138.24 482.5224 
L 995.328 482.5224 
L 995.328 65.0592 
L 138.24 65.0592 
z
" style="fill:#ffffff;"/>
   </g>
   <g id="PolyCollection_1">
    <defs>
     <path d="M 186.560737 -193.726594 
L 185.151263 -193.726594 
L 184.927467 -195.877633 
L 184.645304 -198.028672 
L 184.293593 -200.179712 
L 183.860181 -202.330751 
L 183.332199 -204.481791 
L 182.696427 -206.63283 
L 181.939789 -208.783869 
L 181.049979 -210.934909 
L 180.016187 -213.085948 
L 178.829934 -215.236987 
L 177.485958 -217.388027 
L 175.983099 -219.539066 
L 174.325123 -221.690106 
L 172.521411 -223.841145 
L 170.587414 -225.992184 
L 168.544825 -228.143224 
L 166.421377 -230.294263 
L 164.250257 -232.445302 
L 162.069099 -234.596342 
L 159.918612 -236.747381 
L 157.840897 -238.898421 
L 155.877563 -241.04946 
L 154.067779 -243.200499 
L 152.446411 -245.351539 
L 151.042391 -247.502578 
L 149.877463 -249.653617 
L 148.9654 -251.804657 
L 148.311759 -253.955696 
L 147.914184 -256.106735 
L 147.7632 -258.257775 
L 147.843428 -260.408814 
L 148.135065 -262.559854 
L 148.615501 -264.710893 
L 149.260895 -266.861932 
L 150.047582 -269.012972 
L 150.953191 -271.164011 
L 151.9574 -273.31505 
L 153.042307 -275.46609 
L 154.192438 -277.617129 
L 155.394459 -279.768169 
L 156.636685 -281.919208 
L 157.908516 -284.070247 
L 159.199888 -286.221287 
L 160.500862 -288.372326 
L 161.80141 -290.523365 
L 163.091423 -292.674405 
L 164.360955 -294.825444 
L 165.600628 -296.976484 
L 166.802145 -299.127523 
L 167.958811 -301.278562 
L 169.065962 -303.429602 
L 170.121234 -305.580641 
L 171.124601 -307.73168 
L 172.078174 -309.88272 
L 172.985757 -312.033759 
L 173.852228 -314.184799 
L 174.682797 -316.335838 
L 175.482246 -318.486877 
L 176.254231 -320.637917 
L 177.000735 -322.788956 
L 177.721732 -324.939995 
L 178.415088 -327.091035 
L 179.07672 -329.242074 
L 179.700971 -331.393114 
L 180.281172 -333.544153 
L 180.810315 -335.695192 
L 181.281774 -337.846232 
L 181.690003 -339.997271 
L 182.031146 -342.14831 
L 182.30351 -344.29935 
L 182.507867 -346.450389 
L 182.647573 -348.601428 
L 182.728484 -350.752468 
L 182.758707 -352.903507 
L 182.748182 -355.054547 
L 182.708154 -357.205586 
L 182.650555 -359.356625 
L 182.587356 -361.507665 
L 182.529924 -363.658704 
L 182.488422 -365.809743 
L 182.471321 -367.960783 
L 182.485011 -370.111822 
L 182.533578 -372.262862 
L 182.618723 -374.413901 
L 182.739851 -376.56494 
L 182.894291 -378.71598 
L 183.077638 -380.867019 
L 183.284183 -383.018058 
L 183.507381 -385.169098 
L 183.740336 -387.320137 
L 183.976252 -389.471177 
L 184.208819 -391.622216 
L 184.432524 -393.773255 
L 184.64286 -395.924295 
L 184.83644 -398.075334 
L 185.011016 -400.226373 
L 185.165424 -402.377413 
L 185.299457 -404.528452 
L 185.413709 -406.679492 
L 186.298291 -406.679492 
L 186.298291 -406.679492 
L 186.412543 -404.528452 
L 186.546576 -402.377413 
L 186.700984 -400.226373 
L 186.87556 -398.075334 
L 187.06914 -395.924295 
L 187.279476 -393.773255 
L 187.503181 -391.622216 
L 187.735748 -389.471177 
L 187.971664 -387.320137 
L 188.204619 -385.169098 
L 188.427817 -383.018058 
L 188.634362 -380.867019 
L 188.817709 -378.71598 
L 188.972149 -376.56494 
L 189.093277 -374.413901 
L 189.178422 -372.262862 
L 189.226989 -370.111822 
L 189.240679 -367.960783 
L 189.223578 -365.809743 
L 189.182076 -363.658704 
L 189.124644 -361.507665 
L 189.061445 -359.356625 
L 189.003846 -357.205586 
L 188.963818 -355.054547 
L 188.953293 -352.903507 
L 188.983516 -350.752468 
L 189.064427 -348.601428 
L 189.204133 -346.450389 
L 189.40849 -344.29935 
L 189.680854 -342.14831 
L 190.021997 -339.997271 
L 190.430226 -337.846232 
L 190.901685 -335.695192 
L 191.430828 -333.544153 
L 192.011029 -331.393114 
L 192.63528 -329.242074 
L 193.296912 -327.091035 
L 193.990268 -324.939995 
L 194.711265 -322.788956 
L 195.457769 -320.637917 
L 196.229754 -318.486877 
L 197.029203 -316.335838 
L 197.859772 -314.184799 
L 198.726243 -312.033759 
L 199.633826 -309.88272 
L 200.587399 -307.73168 
L 201.590766 -305.580641 
L 202.646038 -303.429602 
L 203.753189 -301.278562 
L 204.909855 -299.127523 
L 206.111372 -296.976484 
L 207.351045 -294.825444 
L 208.620577 -292.674405 
L 209.91059 -290.523365 
L 211.211138 -288.372326 
L 212.512112 -286.221287 
L 213.803484 -284.070247 
L 215.075315 -281.919208 
L 216.317541 -279.768169 
L 217.519562 -277.617129 
L 218.669693 -275.46609 
L 219.7546 -273.31505 
L 220.758809 -271.164011 
L 221.664418 -269.012972 
L 222.451105 -266.861932 
L 223.096499 -264.710893 
L 223.576935 -262.559854 
L 223.868572 -260.408814 
L 223.9488 -258.257775 
L 223.797816 -256.106735 
L 223.400241 -253.955696 
L 222.7466 -251.804657 
L 221.834537 -249.653617 
L 220.669609 -247.502578 
L 219.265589 -245.351539 
L 217.644221 -243.200499 
L 215.834437 -241.04946 
L 213.871103 -238.898421 
L 211.793388 -236.747381 
L 209.642901 -234.596342 
L 207.461743 -232.445302 
L 205.290623 -230.294263 
L 203.167175 -228.143224 
L 201.124586 -225.992184 
L 199.190589 -223.841145 
L 197.386877 -221.690106 
L 195.728901 -219.539066 
L 194.226042 -217.388027 
L 192.882066 -215.236987 
L 191.695813 -213.085948 
L 190.662021 -210.934909 
L 189.772211 -208.783869 
L 189.015573 -206.63283 
L 188.379801 -204.481791 
L 187.851819 -202.330751 
L 187.418407 -200.179712 
L 187.066696 -198.028672 
L 186.784533 -195.877633 
L 186.560737 -193.726594 
z
" id="mda0c10ecdf" style="stroke:#484848;stroke-width:1.5;"/>
    </defs>
    <g clip-path="url(#pbee1c98cf6)">
     <use style="fill:#c1505d;stroke:#484848;stroke-width:1.5;" x="0" xlink:href="#mda0c10ecdf" y="542.16"/>
    </g>
   </g>
   <g id="PolyCollection_2">
    <defs>
     <path d="M 282.21753 -148.125304 
L 279.95847 -148.125304 
L 279.654171 -151.256616 
L 279.292159 -154.387928 
L 278.868493 -157.51924 
L 278.380804 -160.650552 
L 277.828695 -163.781864 
L 277.214058 -166.913176 
L 276.541259 -170.044489 
L 275.817145 -173.175801 
L 275.050848 -176.307113 
L 274.253363 -179.438425 
L 273.436919 -182.569737 
L 272.614176 -185.701049 
L 271.797306 -188.832361 
L 270.997031 -191.963673 
L 270.221735 -195.094985 
L 269.476723 -198.226297 
L 268.763727 -201.357609 
L 268.080738 -204.488921 
L 267.422189 -207.620234 
L 266.779509 -210.751546 
L 266.142005 -213.882858 
L 265.498006 -217.01417 
L 264.836167 -220.145482 
L 264.146818 -223.276794 
L 263.42322 -226.408106 
L 262.662619 -229.539418 
L 261.866989 -232.67073 
L 261.043399 -235.802042 
L 260.203954 -238.933354 
L 259.365337 -242.064666 
L 258.547974 -245.195978 
L 257.774902 -248.327291 
L 257.070441 -251.458603 
L 256.458775 -254.589915 
L 255.962562 -257.721227 
L 255.601669 -260.852539 
L 255.392124 -263.983851 
L 255.345354 -267.115163 
L 255.467733 -270.246475 
L 255.760455 -273.377787 
L 256.219711 -276.509099 
L 256.837127 -279.640411 
L 257.6004 -282.771723 
L 258.494078 -285.903036 
L 259.500392 -289.034348 
L 260.600103 -292.16566 
L 261.773285 -295.296972 
L 263.000019 -298.428284 
L 264.260968 -301.559596 
L 265.537821 -304.690908 
L 266.813611 -307.82222 
L 268.07292 -310.953532 
L 269.301993 -314.084844 
L 270.488775 -317.216156 
L 271.622902 -320.347468 
L 272.695658 -323.478781 
L 273.699913 -326.610093 
L 274.630057 -329.741405 
L 275.481919 -332.872717 
L 276.252696 -336.004029 
L 276.940866 -339.135341 
L 277.546105 -342.266653 
L 278.069197 -345.397965 
L 278.511943 -348.529277 
L 278.877072 -351.660589 
L 279.168154 -354.791901 
L 279.389526 -357.923213 
L 279.546222 -361.054525 
L 279.643917 -364.185838 
L 279.688881 -367.31715 
L 279.687923 -370.448462 
L 279.648336 -373.579774 
L 279.577819 -376.711086 
L 279.484365 -379.842398 
L 279.376123 -382.97371 
L 279.261214 -386.105022 
L 279.147512 -389.236334 
L 279.042401 -392.367646 
L 278.95252 -395.498958 
L 278.883511 -398.63027 
L 278.839802 -401.761583 
L 278.824438 -404.892895 
L 278.838979 -408.024207 
L 278.883487 -411.155519 
L 278.956589 -414.286831 
L 279.055633 -417.418143 
L 279.176909 -420.549455 
L 279.315932 -423.680767 
L 279.467744 -426.812079 
L 279.627235 -429.943391 
L 279.789436 -433.074703 
L 279.949776 -436.206015 
L 280.104281 -439.337328 
L 280.249717 -442.46864 
L 280.383656 -445.599952 
L 280.504483 -448.731264 
L 280.611354 -451.862576 
L 280.704106 -454.993888 
L 280.783141 -458.1252 
L 281.392859 -458.1252 
L 281.392859 -458.1252 
L 281.471894 -454.993888 
L 281.564646 -451.862576 
L 281.671517 -448.731264 
L 281.792344 -445.599952 
L 281.926283 -442.46864 
L 282.071719 -439.337328 
L 282.226224 -436.206015 
L 282.386564 -433.074703 
L 282.548765 -429.943391 
L 282.708256 -426.812079 
L 282.860068 -423.680767 
L 282.999091 -420.549455 
L 283.120367 -417.418143 
L 283.219411 -414.286831 
L 283.292513 -411.155519 
L 283.337021 -408.024207 
L 283.351562 -404.892895 
L 283.336198 -401.761583 
L 283.292489 -398.63027 
L 283.22348 -395.498958 
L 283.133599 -392.367646 
L 283.028488 -389.236334 
L 282.914786 -386.105022 
L 282.799877 -382.97371 
L 282.691635 -379.842398 
L 282.598181 -376.711086 
L 282.527664 -373.579774 
L 282.488077 -370.448462 
L 282.487119 -367.31715 
L 282.532083 -364.185838 
L 282.629778 -361.054525 
L 282.786474 -357.923213 
L 283.007846 -354.791901 
L 283.298928 -351.660589 
L 283.664057 -348.529277 
L 284.106803 -345.397965 
L 284.629895 -342.266653 
L 285.235134 -339.135341 
L 285.923304 -336.004029 
L 286.694081 -332.872717 
L 287.545943 -329.741405 
L 288.476087 -326.610093 
L 289.480342 -323.478781 
L 290.553098 -320.347468 
L 291.687225 -317.216156 
L 292.874007 -314.084844 
L 294.10308 -310.953532 
L 295.362389 -307.82222 
L 296.638179 -304.690908 
L 297.915032 -301.559596 
L 299.175981 -298.428284 
L 300.402715 -295.296972 
L 301.575897 -292.16566 
L 302.675608 -289.034348 
L 303.681922 -285.903036 
L 304.5756 -282.771723 
L 305.338873 -279.640411 
L 305.956289 -276.509099 
L 306.415545 -273.377787 
L 306.708267 -270.246475 
L 306.830646 -267.115163 
L 306.783876 -263.983851 
L 306.574331 -260.852539 
L 306.213438 -257.721227 
L 305.717225 -254.589915 
L 305.105559 -251.458603 
L 304.401098 -248.327291 
L 303.628026 -245.195978 
L 302.810663 -242.064666 
L 301.972046 -238.933354 
L 301.132601 -235.802042 
L 300.309011 -232.67073 
L 299.513381 -229.539418 
L 298.75278 -226.408106 
L 298.029182 -223.276794 
L 297.339833 -220.145482 
L 296.677994 -217.01417 
L 296.033995 -213.882858 
L 295.396491 -210.751546 
L 294.753811 -207.620234 
L 294.095262 -204.488921 
L 293.412273 -201.357609 
L 292.699277 -198.226297 
L 291.954265 -195.094985 
L 291.178969 -191.963673 
L 290.378694 -188.832361 
L 289.561824 -185.701049 
L 288.739081 -182.569737 
L 287.922637 -179.438425 
L 287.125152 -176.307113 
L 286.358855 -173.175801 
L 285.634741 -170.044489 
L 284.961942 -166.913176 
L 284.347305 -163.781864 
L 283.795196 -160.650552 
L 283.307507 -157.51924 
L 282.883841 -154.387928 
L 282.521829 -151.256616 
L 282.21753 -148.125304 
z
" id="m9781fc8437" style="stroke:#484848;stroke-width:1.5;"/>
    </defs>
    <g clip-path="url(#pbee1c98cf6)">
     <use style="fill:#de7959;stroke:#484848;stroke-width:1.5;" x="0" xlink:href="#m9781fc8437" y="542.16"/>
    </g>
   </g>
   <g id="PolyCollection_3">
    <defs>
     <path d="M 376.918571 -159.885839 
L 375.721429 -159.885839 
L 375.580691 -162.130185 
L 375.414333 -164.37453 
L 375.219565 -166.618876 
L 374.993719 -168.863222 
L 374.734355 -171.107567 
L 374.439374 -173.351913 
L 374.107139 -175.596259 
L 373.73659 -177.840604 
L 373.327347 -180.08495 
L 372.879805 -182.329296 
L 372.395197 -184.573641 
L 371.875624 -186.817987 
L 371.324063 -189.062333 
L 370.744316 -191.306678 
L 370.140934 -193.551024 
L 369.519088 -195.795369 
L 368.884414 -198.039715 
L 368.242823 -200.284061 
L 367.600296 -202.528406 
L 366.962666 -204.772752 
L 366.335418 -207.017098 
L 365.723492 -209.261443 
L 365.131138 -211.505789 
L 364.561801 -213.750135 
L 364.018065 -215.99448 
L 363.50165 -218.238826 
L 363.013476 -220.483172 
L 362.553764 -222.727517 
L 362.122192 -224.971863 
L 361.718076 -227.216209 
L 361.340565 -229.460554 
L 360.988827 -231.7049 
L 360.662221 -233.949246 
L 360.360413 -236.193591 
L 360.083454 -238.437937 
L 359.831775 -240.682283 
L 359.606128 -242.926628 
L 359.407446 -245.170974 
L 359.23665 -247.41532 
L 359.094409 -249.659665 
L 358.980865 -251.904011 
L 358.895365 -254.148357 
L 358.836199 -256.392702 
L 358.800393 -258.637048 
L 358.783565 -260.881393 
L 358.779872 -263.125739 
L 358.782056 -265.370085 
L 358.781607 -267.61443 
L 358.769031 -269.858776 
L 358.734232 -272.103122 
L 358.666973 -274.347467 
L 358.557422 -276.591813 
L 358.396723 -278.836159 
L 358.17759 -281.080504 
L 357.894866 -283.32485 
L 357.546029 -285.569196 
L 357.131597 -287.813541 
L 356.65541 -290.057887 
L 356.124764 -292.302233 
L 355.55038 -294.546578 
L 354.946192 -296.790924 
L 354.32897 -299.03527 
L 353.717784 -301.279615 
L 353.133323 -303.523961 
L 352.597113 -305.768307 
L 352.130667 -308.012652 
L 351.754604 -310.256998 
L 351.487798 -312.501344 
L 351.34658 -314.745689 
L 351.344052 -316.990035 
L 351.489549 -319.234381 
L 351.788259 -321.478726 
L 352.241033 -323.723072 
L 352.844395 -325.967418 
L 353.590728 -328.211763 
L 354.468639 -330.456109 
L 355.463469 -332.700454 
L 356.55792 -334.9448 
L 357.732759 -337.189146 
L 358.967563 -339.433491 
L 360.241463 -341.677837 
L 361.53386 -343.922183 
L 362.825069 -346.166528 
L 364.096873 -348.410874 
L 365.332976 -350.65522 
L 366.519329 -352.899565 
L 367.644338 -355.143911 
L 368.698962 -357.388257 
L 369.676693 -359.632602 
L 370.573449 -361.876948 
L 371.387389 -364.121294 
L 372.118673 -366.365639 
L 372.769178 -368.609985 
L 373.342193 -370.854331 
L 373.842117 -373.098676 
L 374.274157 -375.343022 
L 374.644052 -377.587368 
L 374.957818 -379.831713 
L 375.221542 -382.076059 
L 377.418458 -382.076059 
L 377.418458 -382.076059 
L 377.682182 -379.831713 
L 377.995948 -377.587368 
L 378.365843 -375.343022 
L 378.797883 -373.098676 
L 379.297807 -370.854331 
L 379.870822 -368.609985 
L 380.521327 -366.365639 
L 381.252611 -364.121294 
L 382.066551 -361.876948 
L 382.963307 -359.632602 
L 383.941038 -357.388257 
L 384.995662 -355.143911 
L 386.120671 -352.899565 
L 387.307024 -350.65522 
L 388.543127 -348.410874 
L 389.814931 -346.166528 
L 391.10614 -343.922183 
L 392.398537 -341.677837 
L 393.672437 -339.433491 
L 394.907241 -337.189146 
L 396.08208 -334.9448 
L 397.176531 -332.700454 
L 398.171361 -330.456109 
L 399.049272 -328.211763 
L 399.795605 -325.967418 
L 400.398967 -323.723072 
L 400.851741 -321.478726 
L 401.150451 -319.234381 
L 401.295948 -316.990035 
L 401.29342 -314.745689 
L 401.152202 -312.501344 
L 400.885396 -310.256998 
L 400.509333 -308.012652 
L 400.042887 -305.768307 
L 399.506677 -303.523961 
L 398.922216 -301.279615 
L 398.31103 -299.03527 
L 397.693808 -296.790924 
L 397.08962 -294.546578 
L 396.515236 -292.302233 
L 395.98459 -290.057887 
L 395.508403 -287.813541 
L 395.093971 -285.569196 
L 394.745134 -283.32485 
L 394.46241 -281.080504 
L 394.243277 -278.836159 
L 394.082578 -276.591813 
L 393.973027 -274.347467 
L 393.905768 -272.103122 
L 393.870969 -269.858776 
L 393.858393 -267.61443 
L 393.857944 -265.370085 
L 393.860128 -263.125739 
L 393.856435 -260.881393 
L 393.839607 -258.637048 
L 393.803801 -256.392702 
L 393.744635 -254.148357 
L 393.659135 -251.904011 
L 393.545591 -249.659665 
L 393.40335 -247.41532 
L 393.232554 -245.170974 
L 393.033872 -242.926628 
L 392.808225 -240.682283 
L 392.556546 -238.437937 
L 392.279587 -236.193591 
L 391.977779 -233.949246 
L 391.651173 -231.7049 
L 391.299435 -229.460554 
L 390.921924 -227.216209 
L 390.517808 -224.971863 
L 390.086236 -222.727517 
L 389.626524 -220.483172 
L 389.13835 -218.238826 
L 388.621935 -215.99448 
L 388.078199 -213.750135 
L 387.508862 -211.505789 
L 386.916508 -209.261443 
L 386.304582 -207.017098 
L 385.677334 -204.772752 
L 385.039704 -202.528406 
L 384.397177 -200.284061 
L 383.755586 -198.039715 
L 383.120912 -195.795369 
L 382.499066 -193.551024 
L 381.895684 -191.306678 
L 381.315937 -189.062333 
L 380.764376 -186.817987 
L 380.244803 -184.573641 
L 379.760195 -182.329296 
L 379.312653 -180.08495 
L 378.90341 -177.840604 
L 378.532861 -175.596259 
L 378.200626 -173.351913 
L 377.905645 -171.107567 
L 377.646281 -168.863222 
L 377.420435 -166.618876 
L 377.225667 -164.37453 
L 377.059309 -162.130185 
L 376.918571 -159.885839 
z
" id="m9a6bb09071" style="stroke:#484848;stroke-width:1.5;"/>
    </defs>
    <g clip-path="url(#pbee1c98cf6)">
     <use style="fill:#e9ad74;stroke:#484848;stroke-width:1.5;" x="0" xlink:href="#m9a6bb09071" y="542.16"/>
    </g>
   </g>
   <g id="PolyCollection_4">
    <defs>
     <path d="M 567.079656 -116.848658 
L 566.488344 -116.848658 
L 566.414472 -119.962442 
L 566.327806 -123.076225 
L 566.227628 -126.190009 
L 566.113522 -129.303793 
L 565.985415 -132.417576 
L 565.843584 -135.53136 
L 565.688626 -138.645144 
L 565.521373 -141.758927 
L 565.342751 -144.872711 
L 565.153586 -147.986495 
L 564.954351 -151.100278 
L 564.744882 -154.214062 
L 564.524072 -157.327846 
L 564.289577 -160.441629 
L 564.037563 -163.555413 
L 563.762527 -166.669197 
L 563.457237 -169.78298 
L 563.112804 -172.896764 
L 562.718935 -176.010547 
L 562.264347 -179.124331 
L 561.737367 -182.238115 
L 561.126678 -185.351898 
L 560.422186 -188.465682 
L 559.615954 -191.579466 
L 558.703125 -194.693249 
L 557.682784 -197.807033 
L 556.558662 -200.920817 
L 555.339617 -204.0346 
L 554.039841 -207.148384 
L 552.678737 -210.262168 
L 551.280455 -213.375951 
L 549.873095 -216.489735 
L 548.487606 -219.603519 
L 547.156453 -222.717302 
L 545.912118 -225.831086 
L 544.78555 -228.94487 
L 543.804661 -232.058653 
L 542.992977 -235.172437 
L 542.368525 -238.286221 
L 541.943048 -241.400004 
L 541.721587 -244.513788 
L 541.702439 -247.627572 
L 541.877508 -250.741355 
L 542.232976 -253.855139 
L 542.750251 -256.968922 
L 543.407103 -260.082706 
L 544.178899 -263.19649 
L 545.039839 -266.310273 
L 545.964118 -269.424057 
L 546.926938 -272.537841 
L 547.905329 -275.651624 
L 548.878746 -278.765408 
L 549.82944 -281.879192 
L 550.742632 -284.992975 
L 551.606506 -288.106759 
L 552.412084 -291.220543 
L 553.153011 -294.334326 
L 553.825315 -297.44811 
L 554.427154 -300.561894 
L 554.958599 -303.675677 
L 555.421446 -306.789461 
L 555.819063 -309.903245 
L 556.156263 -313.017028 
L 556.439175 -316.130812 
L 556.675104 -319.244596 
L 556.87236 -322.358379 
L 557.040027 -325.472163 
L 557.187699 -328.585947 
L 557.32516 -331.69973 
L 557.462029 -334.813514 
L 557.607405 -337.927298 
L 557.769505 -341.041081 
L 557.955355 -344.154865 
L 558.170522 -347.268648 
L 558.418929 -350.382432 
L 558.702755 -353.496216 
L 559.022414 -356.609999 
L 559.376628 -359.723783 
L 559.762573 -362.837567 
L 560.176087 -365.95135 
L 560.611924 -369.065134 
L 561.064047 -372.178918 
L 561.525921 -375.292701 
L 561.990813 -378.406485 
L 562.452076 -381.520269 
L 562.9034 -384.634052 
L 563.339032 -387.747836 
L 563.753948 -390.86162 
L 564.143987 -393.975403 
L 564.505923 -397.089187 
L 564.837499 -400.202971 
L 565.137414 -403.316754 
L 565.405268 -406.430538 
L 565.641476 -409.544322 
L 565.847153 -412.658105 
L 566.023989 -415.771889 
L 566.174109 -418.885673 
L 566.299936 -421.999456 
L 566.404064 -425.11324 
L 567.163936 -425.11324 
L 567.163936 -425.11324 
L 567.268064 -421.999456 
L 567.393891 -418.885673 
L 567.544011 -415.771889 
L 567.720847 -412.658105 
L 567.926524 -409.544322 
L 568.162732 -406.430538 
L 568.430586 -403.316754 
L 568.730501 -400.202971 
L 569.062077 -397.089187 
L 569.424013 -393.975403 
L 569.814052 -390.86162 
L 570.228968 -387.747836 
L 570.6646 -384.634052 
L 571.115924 -381.520269 
L 571.577187 -378.406485 
L 572.042079 -375.292701 
L 572.503953 -372.178918 
L 572.956076 -369.065134 
L 573.391913 -365.95135 
L 573.805427 -362.837567 
L 574.191372 -359.723783 
L 574.545586 -356.609999 
L 574.865245 -353.496216 
L 575.149071 -350.382432 
L 575.397478 -347.268648 
L 575.612645 -344.154865 
L 575.798495 -341.041081 
L 575.960595 -337.927298 
L 576.105971 -334.813514 
L 576.24284 -331.69973 
L 576.380301 -328.585947 
L 576.527973 -325.472163 
L 576.69564 -322.358379 
L 576.892896 -319.244596 
L 577.128825 -316.130812 
L 577.411737 -313.017028 
L 577.748937 -309.903245 
L 578.146554 -306.789461 
L 578.609401 -303.675677 
L 579.140846 -300.561894 
L 579.742685 -297.44811 
L 580.414989 -294.334326 
L 581.155916 -291.220543 
L 581.961494 -288.106759 
L 582.825368 -284.992975 
L 583.73856 -281.879192 
L 584.689254 -278.765408 
L 585.662671 -275.651624 
L 586.641062 -272.537841 
L 587.603882 -269.424057 
L 588.528161 -266.310273 
L 589.389101 -263.19649 
L 590.160897 -260.082706 
L 590.817749 -256.968922 
L 591.335024 -253.855139 
L 591.690492 -250.741355 
L 591.865561 -247.627572 
L 591.846413 -244.513788 
L 591.624952 -241.400004 
L 591.199475 -238.286221 
L 590.575023 -235.172437 
L 589.763339 -232.058653 
L 588.78245 -228.94487 
L 587.655882 -225.831086 
L 586.411547 -222.717302 
L 585.080394 -219.603519 
L 583.694905 -216.489735 
L 582.287545 -213.375951 
L 580.889263 -210.262168 
L 579.528159 -207.148384 
L 578.228383 -204.0346 
L 577.009338 -200.920817 
L 575.885216 -197.807033 
L 574.864875 -194.693249 
L 573.952046 -191.579466 
L 573.145814 -188.465682 
L 572.441322 -185.351898 
L 571.830633 -182.238115 
L 571.303653 -179.124331 
L 570.849065 -176.010547 
L 570.455196 -172.896764 
L 570.110763 -169.78298 
L 569.805473 -166.669197 
L 569.530437 -163.555413 
L 569.278423 -160.441629 
L 569.043928 -157.327846 
L 568.823118 -154.214062 
L 568.613649 -151.100278 
L 568.414414 -147.986495 
L 568.225249 -144.872711 
L 568.046627 -141.758927 
L 567.879374 -138.645144 
L 567.724416 -135.53136 
L 567.582585 -132.417576 
L 567.454478 -129.303793 
L 567.340372 -126.190009 
L 567.240194 -123.076225 
L 567.153528 -119.962442 
L 567.079656 -116.848658 
z
" id="m2b86ffcc5b" style="stroke:#484848;stroke-width:1.5;"/>
    </defs>
    <g clip-path="url(#pbee1c98cf6)">
     <use style="fill:#f7f7c6;stroke:#484848;stroke-width:1.5;" x="0" xlink:href="#m2b86ffcc5b" y="542.16"/>
    </g>
   </g>
   <g id="PolyCollection_5">
    <defs>
     <path d="M 662.32449 -78.6132 
L 661.70751 -78.6132 
L 661.620178 -81.968106 
L 661.516478 -85.323013 
L 661.395977 -88.677919 
L 661.259067 -92.032825 
L 661.107124 -95.387732 
L 660.942631 -98.742638 
L 660.769217 -102.097544 
L 660.591605 -105.452451 
L 660.415456 -108.807357 
L 660.247099 -112.162264 
L 660.093181 -115.51717 
L 659.960233 -118.872076 
L 659.854216 -122.226983 
L 659.780075 -125.581889 
L 659.741345 -128.936795 
L 659.739865 -132.291702 
L 659.775611 -135.646608 
L 659.846683 -139.001514 
L 659.949429 -142.356421 
L 660.078709 -145.711327 
L 660.228241 -149.066233 
L 660.391018 -152.42114 
L 660.559721 -155.776046 
L 660.727109 -159.130953 
L 660.886337 -162.485859 
L 661.031176 -165.840765 
L 661.15614 -169.195672 
L 661.256507 -172.550578 
L 661.328258 -175.905484 
L 661.367951 -179.260391 
L 661.372565 -182.615297 
L 661.33932 -185.970203 
L 661.265515 -189.32511 
L 661.14838 -192.680016 
L 660.98496 -196.034922 
L 660.772017 -199.389829 
L 660.505959 -202.744735 
L 660.182785 -206.099642 
L 659.798038 -209.454548 
L 659.346786 -212.809454 
L 658.823631 -216.164361 
L 658.222768 -219.519267 
L 657.538132 -222.874173 
L 656.763645 -226.22908 
L 655.893602 -229.583986 
L 654.923188 -232.938892 
L 653.849136 -236.293799 
L 652.670483 -239.648705 
L 651.389363 -243.003611 
L 650.011778 -246.358518 
L 648.548231 -249.713424 
L 647.014142 -253.068331 
L 645.429953 -256.423237 
L 643.820867 -259.778143 
L 642.21618 -263.13305 
L 640.648236 -266.487956 
L 639.15106 -269.842862 
L 637.758759 -273.197769 
L 636.503845 -276.552675 
L 635.4156 -279.907581 
L 634.518637 -283.262488 
L 633.831778 -286.617394 
L 633.367335 -289.9723 
L 633.130828 -293.327207 
L 633.121145 -296.682113 
L 633.33108 -300.03702 
L 633.748176 -303.391926 
L 634.355769 -306.746832 
L 635.134114 -310.101739 
L 636.061495 -313.456645 
L 637.115246 -316.811551 
L 638.272616 -320.166458 
L 639.511452 -323.521364 
L 640.810701 -326.87627 
L 642.150743 -330.231177 
L 643.513572 -333.586083 
L 644.882884 -336.940989 
L 646.244066 -340.295896 
L 647.584152 -343.650802 
L 648.891738 -347.005709 
L 650.156892 -350.360615 
L 651.371066 -353.715521 
L 652.527011 -357.070428 
L 653.618716 -360.425334 
L 654.641353 -363.78024 
L 655.591253 -367.135147 
L 656.465886 -370.490053 
L 657.263853 -373.844959 
L 657.984879 -377.199866 
L 658.629795 -380.554772 
L 659.200499 -383.909678 
L 659.699889 -387.264585 
L 660.131766 -390.619491 
L 660.500697 -393.974397 
L 660.811857 -397.329304 
L 661.070843 -400.68421 
L 661.283477 -404.039117 
L 661.45562 -407.394023 
L 661.592989 -410.748929 
L 662.439011 -410.748929 
L 662.439011 -410.748929 
L 662.57638 -407.394023 
L 662.748523 -404.039117 
L 662.961157 -400.68421 
L 663.220143 -397.329304 
L 663.531303 -393.974397 
L 663.900234 -390.619491 
L 664.332111 -387.264585 
L 664.831501 -383.909678 
L 665.402205 -380.554772 
L 666.047121 -377.199866 
L 666.768147 -373.844959 
L 667.566114 -370.490053 
L 668.440747 -367.135147 
L 669.390647 -363.78024 
L 670.413284 -360.425334 
L 671.504989 -357.070428 
L 672.660934 -353.715521 
L 673.875108 -350.360615 
L 675.140262 -347.005709 
L 676.447848 -343.650802 
L 677.787934 -340.295896 
L 679.149116 -336.940989 
L 680.518428 -333.586083 
L 681.881257 -330.231177 
L 683.221299 -326.87627 
L 684.520548 -323.521364 
L 685.759384 -320.166458 
L 686.916754 -316.811551 
L 687.970505 -313.456645 
L 688.897886 -310.101739 
L 689.676231 -306.746832 
L 690.283824 -303.391926 
L 690.70092 -300.03702 
L 690.910855 -296.682113 
L 690.901172 -293.327207 
L 690.664665 -289.9723 
L 690.200222 -286.617394 
L 689.513363 -283.262488 
L 688.6164 -279.907581 
L 687.528155 -276.552675 
L 686.273241 -273.197769 
L 684.88094 -269.842862 
L 683.383764 -266.487956 
L 681.81582 -263.13305 
L 680.211133 -259.778143 
L 678.602047 -256.423237 
L 677.017858 -253.068331 
L 675.483769 -249.713424 
L 674.020222 -246.358518 
L 672.642637 -243.003611 
L 671.361517 -239.648705 
L 670.182864 -236.293799 
L 669.108812 -232.938892 
L 668.138398 -229.583986 
L 667.268355 -226.22908 
L 666.493868 -222.874173 
L 665.809232 -219.519267 
L 665.208369 -216.164361 
L 664.685214 -212.809454 
L 664.233962 -209.454548 
L 663.849215 -206.099642 
L 663.526041 -202.744735 
L 663.259983 -199.389829 
L 663.04704 -196.034922 
L 662.88362 -192.680016 
L 662.766485 -189.32511 
L 662.69268 -185.970203 
L 662.659435 -182.615297 
L 662.664049 -179.260391 
L 662.703742 -175.905484 
L 662.775493 -172.550578 
L 662.87586 -169.195672 
L 663.000824 -165.840765 
L 663.145663 -162.485859 
L 663.304891 -159.130953 
L 663.472279 -155.776046 
L 663.640982 -152.42114 
L 663.803759 -149.066233 
L 663.953291 -145.711327 
L 664.082571 -142.356421 
L 664.185317 -139.001514 
L 664.256389 -135.646608 
L 664.292135 -132.291702 
L 664.290655 -128.936795 
L 664.251925 -125.581889 
L 664.177784 -122.226983 
L 664.071767 -118.872076 
L 663.938819 -115.51717 
L 663.784901 -112.162264 
L 663.616544 -108.807357 
L 663.440395 -105.452451 
L 663.262783 -102.097544 
L 663.089369 -98.742638 
L 662.924876 -95.387732 
L 662.772933 -92.032825 
L 662.636023 -88.677919 
L 662.515522 -85.323013 
L 662.411822 -81.968106 
L 662.32449 -78.6132 
z
" id="m6460914606" style="stroke:#484848;stroke-width:1.5;"/>
    </defs>
    <g clip-path="url(#pbee1c98cf6)">
     <use style="fill:#dee9a4;stroke:#484848;stroke-width:1.5;" x="0" xlink:href="#m6460914606" y="542.16"/>
    </g>
   </g>
   <g id="PolyCollection_6">
    <defs>
     <path d="M 758.414395 -185.596053 
L 756.081605 -185.596053 
L 755.770976 -187.793277 
L 755.400019 -189.9905 
L 754.963386 -192.187724 
L 754.456887 -194.384948 
L 753.877913 -196.582171 
L 753.225821 -198.779395 
L 752.502244 -200.976618 
L 751.711307 -203.173842 
L 750.85968 -205.371066 
L 749.95647 -207.568289 
L 749.012916 -209.765513 
L 748.041899 -211.962737 
L 747.057272 -214.15996 
L 746.073068 -216.357184 
L 745.102614 -218.554408 
L 744.157648 -220.751631 
L 743.247482 -222.948855 
L 742.378318 -225.146079 
L 741.552761 -227.343302 
L 740.769594 -229.540526 
L 740.023848 -231.73775 
L 739.307176 -233.934973 
L 738.608508 -236.132197 
L 737.914959 -238.329421 
L 737.212907 -240.526644 
L 736.489179 -242.723868 
L 735.73225 -244.921092 
L 734.933363 -247.118315 
L 734.087484 -249.315539 
L 733.194035 -251.512763 
L 732.257324 -253.709986 
L 731.28667 -255.90721 
L 730.296192 -258.104434 
L 729.304288 -260.301657 
L 728.332834 -262.498881 
L 727.406165 -264.696105 
L 726.5499 -266.893328 
L 725.7897 -269.090552 
L 725.150025 -271.287775 
L 724.652976 -273.484999 
L 724.317293 -275.682223 
L 724.157546 -277.879446 
L 724.183574 -280.07667 
L 724.400176 -282.273894 
L 724.80705 -284.471117 
L 725.398972 -286.668341 
L 726.16617 -288.865565 
L 727.094862 -291.062788 
L 728.167906 -293.260012 
L 729.365526 -295.457236 
L 730.666064 -297.654459 
L 732.046739 -299.851683 
L 733.484363 -302.048907 
L 734.956017 -304.24613 
L 736.439657 -306.443354 
L 737.914639 -308.640578 
L 739.362156 -310.837801 
L 740.76558 -313.035025 
L 742.110697 -315.232249 
L 743.385849 -317.429472 
L 744.581957 -319.626696 
L 745.69247 -321.82392 
L 746.713211 -324.021143 
L 747.642177 -326.218367 
L 748.479287 -328.415591 
L 749.226122 -330.612814 
L 749.885659 -332.810038 
L 750.462042 -335.007262 
L 750.960379 -337.204485 
L 751.386584 -339.401709 
L 751.747255 -341.598932 
L 752.04957 -343.796156 
L 752.301199 -345.99338 
L 752.5102 -348.190603 
L 752.684888 -350.387827 
L 752.83367 -352.585051 
L 752.96484 -354.782274 
L 753.086333 -356.979498 
L 753.205468 -359.176722 
L 753.328677 -361.373945 
L 753.461266 -363.571169 
L 753.60722 -365.768393 
L 753.769074 -367.965616 
L 753.947869 -370.16284 
L 754.143199 -372.360064 
L 754.35334 -374.557287 
L 754.575464 -376.754511 
L 754.805906 -378.951735 
L 755.040466 -381.148958 
L 755.274721 -383.346182 
L 755.504323 -385.543406 
L 755.725262 -387.740629 
L 755.934069 -389.937853 
L 756.127964 -392.135077 
L 756.304936 -394.3323 
L 756.463759 -396.529524 
L 756.603955 -398.726748 
L 756.725715 -400.923971 
L 756.829788 -403.121195 
L 757.666212 -403.121195 
L 757.666212 -403.121195 
L 757.770285 -400.923971 
L 757.892045 -398.726748 
L 758.032241 -396.529524 
L 758.191064 -394.3323 
L 758.368036 -392.135077 
L 758.561931 -389.937853 
L 758.770738 -387.740629 
L 758.991677 -385.543406 
L 759.221279 -383.346182 
L 759.455534 -381.148958 
L 759.690094 -378.951735 
L 759.920536 -376.754511 
L 760.14266 -374.557287 
L 760.352801 -372.360064 
L 760.548131 -370.16284 
L 760.726926 -367.965616 
L 760.88878 -365.768393 
L 761.034734 -363.571169 
L 761.167323 -361.373945 
L 761.290532 -359.176722 
L 761.409667 -356.979498 
L 761.53116 -354.782274 
L 761.66233 -352.585051 
L 761.811112 -350.387827 
L 761.9858 -348.190603 
L 762.194801 -345.99338 
L 762.44643 -343.796156 
L 762.748745 -341.598932 
L 763.109416 -339.401709 
L 763.535621 -337.204485 
L 764.033958 -335.007262 
L 764.610341 -332.810038 
L 765.269878 -330.612814 
L 766.016713 -328.415591 
L 766.853823 -326.218367 
L 767.782789 -324.021143 
L 768.80353 -321.82392 
L 769.914043 -319.626696 
L 771.110151 -317.429472 
L 772.385303 -315.232249 
L 773.73042 -313.035025 
L 775.133844 -310.837801 
L 776.581361 -308.640578 
L 778.056343 -306.443354 
L 779.539983 -304.24613 
L 781.011637 -302.048907 
L 782.449261 -299.851683 
L 783.829936 -297.654459 
L 785.130474 -295.457236 
L 786.328094 -293.260012 
L 787.401138 -291.062788 
L 788.32983 -288.865565 
L 789.097028 -286.668341 
L 789.68895 -284.471117 
L 790.095824 -282.273894 
L 790.312426 -280.07667 
L 790.338454 -277.879446 
L 790.178707 -275.682223 
L 789.843024 -273.484999 
L 789.345975 -271.287775 
L 788.7063 -269.090552 
L 787.9461 -266.893328 
L 787.089835 -264.696105 
L 786.163166 -262.498881 
L 785.191712 -260.301657 
L 784.199808 -258.104434 
L 783.20933 -255.90721 
L 782.238676 -253.709986 
L 781.301965 -251.512763 
L 780.408516 -249.315539 
L 779.562637 -247.118315 
L 778.76375 -244.921092 
L 778.006821 -242.723868 
L 777.283093 -240.526644 
L 776.581041 -238.329421 
L 775.887492 -236.132197 
L 775.188824 -233.934973 
L 774.472152 -231.73775 
L 773.726406 -229.540526 
L 772.943239 -227.343302 
L 772.117682 -225.146079 
L 771.248518 -222.948855 
L 770.338352 -220.751631 
L 769.393386 -218.554408 
L 768.422932 -216.357184 
L 767.438728 -214.15996 
L 766.454101 -211.962737 
L 765.483084 -209.765513 
L 764.53953 -207.568289 
L 763.63632 -205.371066 
L 762.784693 -203.173842 
L 761.993756 -200.976618 
L 761.270179 -198.779395 
L 760.618087 -196.582171 
L 760.039113 -194.384948 
L 759.532614 -192.187724 
L 759.095981 -189.9905 
L 758.725024 -187.793277 
L 758.414395 -185.596053 
z
" id="me2e078a45a" style="stroke:#484848;stroke-width:1.5;"/>
    </defs>
    <g clip-path="url(#pbee1c98cf6)">
     <use style="fill:#afd5ab;stroke:#484848;stroke-width:1.5;" x="0" xlink:href="#me2e078a45a" y="542.16"/>
    </g>
   </g>
   <g id="matplotlib.axis_1">
    <g id="xtick_1">
     <g id="line2d_1">
      <defs>
       <path d="M 0 0 
L 0 3.5 
" id="mf21ac65af2" style="stroke:#000000;stroke-width:0.8;"/>
      </defs>
      <g>
       <use style="stroke:#000000;stroke-width:0.8;" x="185.856" xlink:href="#mf21ac65af2" y="482.5224"/>
      </g>
     </g>
     <g id="text_1">
      <!-- Player1_healthy -->
      <g transform="translate(145.828656 497.120837)scale(0.1 -0.1)">
       <defs>
        <path d="M 1259 4147 
L 1259 2394 
L 2053 2394 
Q 2494 2394 2734 2622 
Q 2975 2850 2975 3272 
Q 2975 3691 2734 3919 
Q 2494 4147 2053 4147 
L 1259 4147 
z
M 628 4666 
L 2053 4666 
Q 2838 4666 3239 4311 
Q 3641 3956 3641 3272 
Q 3641 2581 3239 2228 
Q 2838 1875 2053 1875 
L 1259 1875 
L 1259 0 
L 628 0 
L 628 4666 
z
" id="DejaVuSans-50" transform="scale(0.015625)"/>
        <path d="M 603 4863 
L 1178 4863 
L 1178 0 
L 603 0 
L 603 4863 
z
" id="DejaVuSans-6c" transform="scale(0.015625)"/>
        <path d="M 2194 1759 
Q 1497 1759 1228 1600 
Q 959 1441 959 1056 
Q 959 750 1161 570 
Q 1363 391 1709 391 
Q 2188 391 2477 730 
Q 2766 1069 2766 1631 
L 2766 1759 
L 2194 1759 
z
M 3341 1997 
L 3341 0 
L 2766 0 
L 2766 531 
Q 2569 213 2275 61 
Q 1981 -91 1556 -91 
Q 1019 -91 701 211 
Q 384 513 384 1019 
Q 384 1609 779 1909 
Q 1175 2209 1959 2209 
L 2766 2209 
L 2766 2266 
Q 2766 2663 2505 2880 
Q 2244 3097 1772 3097 
Q 1472 3097 1187 3025 
Q 903 2953 641 2809 
L 641 3341 
Q 956 3463 1253 3523 
Q 1550 3584 1831 3584 
Q 2591 3584 2966 3190 
Q 3341 2797 3341 1997 
z
" id="DejaVuSans-61" transform="scale(0.015625)"/>
        <path d="M 2059 -325 
Q 1816 -950 1584 -1140 
Q 1353 -1331 966 -1331 
L 506 -1331 
L 506 -850 
L 844 -850 
Q 1081 -850 1212 -737 
Q 1344 -625 1503 -206 
L 1606 56 
L 191 3500 
L 800 3500 
L 1894 763 
L 2988 3500 
L 3597 3500 
L 2059 -325 
z
" id="DejaVuSans-79" transform="scale(0.015625)"/>
        <path d="M 3597 1894 
L 3597 1613 
L 953 1613 
Q 991 1019 1311 708 
Q 1631 397 2203 397 
Q 2534 397 2845 478 
Q 3156 559 3463 722 
L 3463 178 
Q 3153 47 2828 -22 
Q 2503 -91 2169 -91 
Q 1331 -91 842 396 
Q 353 884 353 1716 
Q 353 2575 817 3079 
Q 1281 3584 2069 3584 
Q 2775 3584 3186 3129 
Q 3597 2675 3597 1894 
z
M 3022 2063 
Q 3016 2534 2758 2815 
Q 2500 3097 2075 3097 
Q 1594 3097 1305 2825 
Q 1016 2553 972 2059 
L 3022 2063 
z
" id="DejaVuSans-65" transform="scale(0.015625)"/>
        <path d="M 2631 2963 
Q 2534 3019 2420 3045 
Q 2306 3072 2169 3072 
Q 1681 3072 1420 2755 
Q 1159 2438 1159 1844 
L 1159 0 
L 581 0 
L 581 3500 
L 1159 3500 
L 1159 2956 
Q 1341 3275 1631 3429 
Q 1922 3584 2338 3584 
Q 2397 3584 2469 3576 
Q 2541 3569 2628 3553 
L 2631 2963 
z
" id="DejaVuSans-72" transform="scale(0.015625)"/>
        <path d="M 794 531 
L 1825 531 
L 1825 4091 
L 703 3866 
L 703 4441 
L 1819 4666 
L 2450 4666 
L 2450 531 
L 3481 531 
L 3481 0 
L 794 0 
L 794 531 
z
" id="DejaVuSans-31" transform="scale(0.015625)"/>
        <path d="M 3263 -1063 
L 3263 -1509 
L -63 -1509 
L -63 -1063 
L 3263 -1063 
z
" id="DejaVuSans-5f" transform="scale(0.015625)"/>
        <path d="M 3513 2113 
L 3513 0 
L 2938 0 
L 2938 2094 
Q 2938 2591 2744 2837 
Q 2550 3084 2163 3084 
Q 1697 3084 1428 2787 
Q 1159 2491 1159 1978 
L 1159 0 
L 581 0 
L 581 4863 
L 1159 4863 
L 1159 2956 
Q 1366 3272 1645 3428 
Q 1925 3584 2291 3584 
Q 2894 3584 3203 3211 
Q 3513 2838 3513 2113 
z
" id="DejaVuSans-68" transform="scale(0.015625)"/>
        <path d="M 1172 4494 
L 1172 3500 
L 2356 3500 
L 2356 3053 
L 1172 3053 
L 1172 1153 
Q 1172 725 1289 603 
Q 1406 481 1766 481 
L 2356 481 
L 2356 0 
L 1766 0 
Q 1100 0 847 248 
Q 594 497 594 1153 
L 594 3053 
L 172 3053 
L 172 3500 
L 594 3500 
L 594 4494 
L 1172 4494 
z
" id="DejaVuSans-74" transform="scale(0.015625)"/>
       </defs>
       <use xlink:href="#DejaVuSans-50"/>
       <use x="60.302734" xlink:href="#DejaVuSans-6c"/>
       <use x="88.085938" xlink:href="#DejaVuSans-61"/>
       <use x="149.365234" xlink:href="#DejaVuSans-79"/>
       <use x="208.544922" xlink:href="#DejaVuSans-65"/>
       <use x="270.068359" xlink:href="#DejaVuSans-72"/>
       <use x="311.181641" xlink:href="#DejaVuSans-31"/>
       <use x="374.804688" xlink:href="#DejaVuSans-5f"/>
       <use x="424.804688" xlink:href="#DejaVuSans-68"/>
       <use x="488.183594" xlink:href="#DejaVuSans-65"/>
       <use x="549.707031" xlink:href="#DejaVuSans-61"/>
       <use x="610.986328" xlink:href="#DejaVuSans-6c"/>
       <use x="638.769531" xlink:href="#DejaVuSans-74"/>
       <use x="677.978516" xlink:href="#DejaVuSans-68"/>
       <use x="741.357422" xlink:href="#DejaVuSans-79"/>
      </g>
     </g>
    </g>
    <g id="xtick_2">
     <g id="line2d_2">
      <g>
       <use style="stroke:#000000;stroke-width:0.8;" x="281.088" xlink:href="#mf21ac65af2" y="482.5224"/>
      </g>
     </g>
     <g id="text_2">
      <!-- biased_A -->
      <g transform="translate(258.684875 497.120837)scale(0.1 -0.1)">
       <defs>
        <path d="M 3116 1747 
Q 3116 2381 2855 2742 
Q 2594 3103 2138 3103 
Q 1681 3103 1420 2742 
Q 1159 2381 1159 1747 
Q 1159 1113 1420 752 
Q 1681 391 2138 391 
Q 2594 391 2855 752 
Q 3116 1113 3116 1747 
z
M 1159 2969 
Q 1341 3281 1617 3432 
Q 1894 3584 2278 3584 
Q 2916 3584 3314 3078 
Q 3713 2572 3713 1747 
Q 3713 922 3314 415 
Q 2916 -91 2278 -91 
Q 1894 -91 1617 61 
Q 1341 213 1159 525 
L 1159 0 
L 581 0 
L 581 4863 
L 1159 4863 
L 1159 2969 
z
" id="DejaVuSans-62" transform="scale(0.015625)"/>
        <path d="M 603 3500 
L 1178 3500 
L 1178 0 
L 603 0 
L 603 3500 
z
M 603 4863 
L 1178 4863 
L 1178 4134 
L 603 4134 
L 603 4863 
z
" id="DejaVuSans-69" transform="scale(0.015625)"/>
        <path d="M 2834 3397 
L 2834 2853 
Q 2591 2978 2328 3040 
Q 2066 3103 1784 3103 
Q 1356 3103 1142 2972 
Q 928 2841 928 2578 
Q 928 2378 1081 2264 
Q 1234 2150 1697 2047 
L 1894 2003 
Q 2506 1872 2764 1633 
Q 3022 1394 3022 966 
Q 3022 478 2636 193 
Q 2250 -91 1575 -91 
Q 1294 -91 989 -36 
Q 684 19 347 128 
L 347 722 
Q 666 556 975 473 
Q 1284 391 1588 391 
Q 1994 391 2212 530 
Q 2431 669 2431 922 
Q 2431 1156 2273 1281 
Q 2116 1406 1581 1522 
L 1381 1569 
Q 847 1681 609 1914 
Q 372 2147 372 2553 
Q 372 3047 722 3315 
Q 1072 3584 1716 3584 
Q 2034 3584 2315 3537 
Q 2597 3491 2834 3397 
z
" id="DejaVuSans-73" transform="scale(0.015625)"/>
        <path d="M 2906 2969 
L 2906 4863 
L 3481 4863 
L 3481 0 
L 2906 0 
L 2906 525 
Q 2725 213 2448 61 
Q 2172 -91 1784 -91 
Q 1150 -91 751 415 
Q 353 922 353 1747 
Q 353 2572 751 3078 
Q 1150 3584 1784 3584 
Q 2172 3584 2448 3432 
Q 2725 3281 2906 2969 
z
M 947 1747 
Q 947 1113 1208 752 
Q 1469 391 1925 391 
Q 2381 391 2643 752 
Q 2906 1113 2906 1747 
Q 2906 2381 2643 2742 
Q 2381 3103 1925 3103 
Q 1469 3103 1208 2742 
Q 947 2381 947 1747 
z
" id="DejaVuSans-64" transform="scale(0.015625)"/>
        <path d="M 2188 4044 
L 1331 1722 
L 3047 1722 
L 2188 4044 
z
M 1831 4666 
L 2547 4666 
L 4325 0 
L 3669 0 
L 3244 1197 
L 1141 1197 
L 716 0 
L 50 0 
L 1831 4666 
z
" id="DejaVuSans-41" transform="scale(0.015625)"/>
       </defs>
       <use xlink:href="#DejaVuSans-62"/>
       <use x="63.476562" xlink:href="#DejaVuSans-69"/>
       <use x="91.259766" xlink:href="#DejaVuSans-61"/>
       <use x="152.539062" xlink:href="#DejaVuSans-73"/>
       <use x="204.638672" xlink:href="#DejaVuSans-65"/>
       <use x="266.162109" xlink:href="#DejaVuSans-64"/>
       <use x="329.638672" xlink:href="#DejaVuSans-5f"/>
       <use x="379.638672" xlink:href="#DejaVuSans-41"/>
      </g>
     </g>
    </g>
    <g id="xtick_3">
     <g id="line2d_3">
      <g>
       <use style="stroke:#000000;stroke-width:0.8;" x="376.32" xlink:href="#mf21ac65af2" y="482.5224"/>
      </g>
     </g>
     <g id="text_3">
      <!-- biased_B -->
      <g transform="translate(353.906719 497.120837)scale(0.1 -0.1)">
       <defs>
        <path d="M 1259 2228 
L 1259 519 
L 2272 519 
Q 2781 519 3026 730 
Q 3272 941 3272 1375 
Q 3272 1813 3026 2020 
Q 2781 2228 2272 2228 
L 1259 2228 
z
M 1259 4147 
L 1259 2741 
L 2194 2741 
Q 2656 2741 2882 2914 
Q 3109 3088 3109 3444 
Q 3109 3797 2882 3972 
Q 2656 4147 2194 4147 
L 1259 4147 
z
M 628 4666 
L 2241 4666 
Q 2963 4666 3353 4366 
Q 3744 4066 3744 3513 
Q 3744 3084 3544 2831 
Q 3344 2578 2956 2516 
Q 3422 2416 3680 2098 
Q 3938 1781 3938 1306 
Q 3938 681 3513 340 
Q 3088 0 2303 0 
L 628 0 
L 628 4666 
z
" id="DejaVuSans-42" transform="scale(0.015625)"/>
       </defs>
       <use xlink:href="#DejaVuSans-62"/>
       <use x="63.476562" xlink:href="#DejaVuSans-69"/>
       <use x="91.259766" xlink:href="#DejaVuSans-61"/>
       <use x="152.539062" xlink:href="#DejaVuSans-73"/>
       <use x="204.638672" xlink:href="#DejaVuSans-65"/>
       <use x="266.162109" xlink:href="#DejaVuSans-64"/>
       <use x="329.638672" xlink:href="#DejaVuSans-5f"/>
       <use x="379.638672" xlink:href="#DejaVuSans-42"/>
      </g>
     </g>
    </g>
    <g id="xtick_4">
     <g id="line2d_4">
      <g>
       <use style="stroke:#000000;stroke-width:0.8;" x="471.552" xlink:href="#mf21ac65af2" y="482.5224"/>
      </g>
     </g>
     <g id="text_4">
      <!-- biased_C -->
      <g transform="translate(449.077781 497.120837)scale(0.1 -0.1)">
       <defs>
        <path d="M 4122 4306 
L 4122 3641 
Q 3803 3938 3442 4084 
Q 3081 4231 2675 4231 
Q 1875 4231 1450 3742 
Q 1025 3253 1025 2328 
Q 1025 1406 1450 917 
Q 1875 428 2675 428 
Q 3081 428 3442 575 
Q 3803 722 4122 1019 
L 4122 359 
Q 3791 134 3420 21 
Q 3050 -91 2638 -91 
Q 1578 -91 968 557 
Q 359 1206 359 2328 
Q 359 3453 968 4101 
Q 1578 4750 2638 4750 
Q 3056 4750 3426 4639 
Q 3797 4528 4122 4306 
z
" id="DejaVuSans-43" transform="scale(0.015625)"/>
       </defs>
       <use xlink:href="#DejaVuSans-62"/>
       <use x="63.476562" xlink:href="#DejaVuSans-69"/>
       <use x="91.259766" xlink:href="#DejaVuSans-61"/>
       <use x="152.539062" xlink:href="#DejaVuSans-73"/>
       <use x="204.638672" xlink:href="#DejaVuSans-65"/>
       <use x="266.162109" xlink:href="#DejaVuSans-64"/>
       <use x="329.638672" xlink:href="#DejaVuSans-5f"/>
       <use x="379.638672" xlink:href="#DejaVuSans-43"/>
      </g>
     </g>
    </g>
    <g id="xtick_5">
     <g id="line2d_5">
      <g>
       <use style="stroke:#000000;stroke-width:0.8;" x="566.784" xlink:href="#mf21ac65af2" y="482.5224"/>
      </g>
     </g>
     <g id="text_5">
      <!-- biased_D -->
      <g transform="translate(543.951187 497.120837)scale(0.1 -0.1)">
       <defs>
        <path d="M 1259 4147 
L 1259 519 
L 2022 519 
Q 2988 519 3436 956 
Q 3884 1394 3884 2338 
Q 3884 3275 3436 3711 
Q 2988 4147 2022 4147 
L 1259 4147 
z
M 628 4666 
L 1925 4666 
Q 3281 4666 3915 4102 
Q 4550 3538 4550 2338 
Q 4550 1131 3912 565 
Q 3275 0 1925 0 
L 628 0 
L 628 4666 
z
" id="DejaVuSans-44" transform="scale(0.015625)"/>
       </defs>
       <use xlink:href="#DejaVuSans-62"/>
       <use x="63.476562" xlink:href="#DejaVuSans-69"/>
       <use x="91.259766" xlink:href="#DejaVuSans-61"/>
       <use x="152.539062" xlink:href="#DejaVuSans-73"/>
       <use x="204.638672" xlink:href="#DejaVuSans-65"/>
       <use x="266.162109" xlink:href="#DejaVuSans-64"/>
       <use x="329.638672" xlink:href="#DejaVuSans-5f"/>
       <use x="379.638672" xlink:href="#DejaVuSans-44"/>
      </g>
     </g>
    </g>
    <g id="xtick_6">
     <g id="line2d_6">
      <g>
       <use style="stroke:#000000;stroke-width:0.8;" x="662.016" xlink:href="#mf21ac65af2" y="482.5224"/>
      </g>
     </g>
     <g id="text_6">
      <!-- Type1_depressed -->
      <g transform="translate(618.94725 497.120837)scale(0.1 -0.1)">
       <defs>
        <path d="M -19 4666 
L 3928 4666 
L 3928 4134 
L 2272 4134 
L 2272 0 
L 1638 0 
L 1638 4134 
L -19 4134 
L -19 4666 
z
" id="DejaVuSans-54" transform="scale(0.015625)"/>
        <path d="M 1159 525 
L 1159 -1331 
L 581 -1331 
L 581 3500 
L 1159 3500 
L 1159 2969 
Q 1341 3281 1617 3432 
Q 1894 3584 2278 3584 
Q 2916 3584 3314 3078 
Q 3713 2572 3713 1747 
Q 3713 922 3314 415 
Q 2916 -91 2278 -91 
Q 1894 -91 1617 61 
Q 1341 213 1159 525 
z
M 3116 1747 
Q 3116 2381 2855 2742 
Q 2594 3103 2138 3103 
Q 1681 3103 1420 2742 
Q 1159 2381 1159 1747 
Q 1159 1113 1420 752 
Q 1681 391 2138 391 
Q 2594 391 2855 752 
Q 3116 1113 3116 1747 
z
" id="DejaVuSans-70" transform="scale(0.015625)"/>
       </defs>
       <use xlink:href="#DejaVuSans-54"/>
       <use x="45.458984" xlink:href="#DejaVuSans-79"/>
       <use x="104.638672" xlink:href="#DejaVuSans-70"/>
       <use x="168.115234" xlink:href="#DejaVuSans-65"/>
       <use x="229.638672" xlink:href="#DejaVuSans-31"/>
       <use x="293.261719" xlink:href="#DejaVuSans-5f"/>
       <use x="343.261719" xlink:href="#DejaVuSans-64"/>
       <use x="406.738281" xlink:href="#DejaVuSans-65"/>
       <use x="468.261719" xlink:href="#DejaVuSans-70"/>
       <use x="531.738281" xlink:href="#DejaVuSans-72"/>
       <use x="570.601562" xlink:href="#DejaVuSans-65"/>
       <use x="632.125" xlink:href="#DejaVuSans-73"/>
       <use x="684.224609" xlink:href="#DejaVuSans-73"/>
       <use x="736.324219" xlink:href="#DejaVuSans-65"/>
       <use x="797.847656" xlink:href="#DejaVuSans-64"/>
      </g>
     </g>
    </g>
    <g id="xtick_7">
     <g id="line2d_7">
      <g>
       <use style="stroke:#000000;stroke-width:0.8;" x="757.248" xlink:href="#mf21ac65af2" y="482.5224"/>
      </g>
     </g>
     <g id="text_7">
      <!-- Type2_depressed -->
      <g transform="translate(714.17925 497.120837)scale(0.1 -0.1)">
       <defs>
        <path d="M 1228 531 
L 3431 531 
L 3431 0 
L 469 0 
L 469 531 
Q 828 903 1448 1529 
Q 2069 2156 2228 2338 
Q 2531 2678 2651 2914 
Q 2772 3150 2772 3378 
Q 2772 3750 2511 3984 
Q 2250 4219 1831 4219 
Q 1534 4219 1204 4116 
Q 875 4013 500 3803 
L 500 4441 
Q 881 4594 1212 4672 
Q 1544 4750 1819 4750 
Q 2544 4750 2975 4387 
Q 3406 4025 3406 3419 
Q 3406 3131 3298 2873 
Q 3191 2616 2906 2266 
Q 2828 2175 2409 1742 
Q 1991 1309 1228 531 
z
" id="DejaVuSans-32" transform="scale(0.015625)"/>
       </defs>
       <use xlink:href="#DejaVuSans-54"/>
       <use x="45.458984" xlink:href="#DejaVuSans-79"/>
       <use x="104.638672" xlink:href="#DejaVuSans-70"/>
       <use x="168.115234" xlink:href="#DejaVuSans-65"/>
       <use x="229.638672" xlink:href="#DejaVuSans-32"/>
       <use x="293.261719" xlink:href="#DejaVuSans-5f"/>
       <use x="343.261719" xlink:href="#DejaVuSans-64"/>
       <use x="406.738281" xlink:href="#DejaVuSans-65"/>
       <use x="468.261719" xlink:href="#DejaVuSans-70"/>
       <use x="531.738281" xlink:href="#DejaVuSans-72"/>
       <use x="570.601562" xlink:href="#DejaVuSans-65"/>
       <use x="632.125" xlink:href="#DejaVuSans-73"/>
       <use x="684.224609" xlink:href="#DejaVuSans-73"/>
       <use x="736.324219" xlink:href="#DejaVuSans-65"/>
       <use x="797.847656" xlink:href="#DejaVuSans-64"/>
      </g>
     </g>
    </g>
    <g id="xtick_8">
     <g id="line2d_8">
      <g>
       <use style="stroke:#000000;stroke-width:0.8;" x="852.48" xlink:href="#mf21ac65af2" y="482.5224"/>
      </g>
     </g>
     <g id="text_8">
      <!-- Type1_social_phobia -->
      <g transform="translate(801.530781 497.120837)scale(0.1 -0.1)">
       <defs>
        <path d="M 1959 3097 
Q 1497 3097 1228 2736 
Q 959 2375 959 1747 
Q 959 1119 1226 758 
Q 1494 397 1959 397 
Q 2419 397 2687 759 
Q 2956 1122 2956 1747 
Q 2956 2369 2687 2733 
Q 2419 3097 1959 3097 
z
M 1959 3584 
Q 2709 3584 3137 3096 
Q 3566 2609 3566 1747 
Q 3566 888 3137 398 
Q 2709 -91 1959 -91 
Q 1206 -91 779 398 
Q 353 888 353 1747 
Q 353 2609 779 3096 
Q 1206 3584 1959 3584 
z
" id="DejaVuSans-6f" transform="scale(0.015625)"/>
        <path d="M 3122 3366 
L 3122 2828 
Q 2878 2963 2633 3030 
Q 2388 3097 2138 3097 
Q 1578 3097 1268 2742 
Q 959 2388 959 1747 
Q 959 1106 1268 751 
Q 1578 397 2138 397 
Q 2388 397 2633 464 
Q 2878 531 3122 666 
L 3122 134 
Q 2881 22 2623 -34 
Q 2366 -91 2075 -91 
Q 1284 -91 818 406 
Q 353 903 353 1747 
Q 353 2603 823 3093 
Q 1294 3584 2113 3584 
Q 2378 3584 2631 3529 
Q 2884 3475 3122 3366 
z
" id="DejaVuSans-63" transform="scale(0.015625)"/>
       </defs>
       <use xlink:href="#DejaVuSans-54"/>
       <use x="45.458984" xlink:href="#DejaVuSans-79"/>
       <use x="104.638672" xlink:href="#DejaVuSans-70"/>
       <use x="168.115234" xlink:href="#DejaVuSans-65"/>
       <use x="229.638672" xlink:href="#DejaVuSans-31"/>
       <use x="293.261719" xlink:href="#DejaVuSans-5f"/>
       <use x="343.261719" xlink:href="#DejaVuSans-73"/>
       <use x="395.361328" xlink:href="#DejaVuSans-6f"/>
       <use x="456.542969" xlink:href="#DejaVuSans-63"/>
       <use x="511.523438" xlink:href="#DejaVuSans-69"/>
       <use x="539.306641" xlink:href="#DejaVuSans-61"/>
       <use x="600.585938" xlink:href="#DejaVuSans-6c"/>
       <use x="628.369141" xlink:href="#DejaVuSans-5f"/>
       <use x="678.369141" xlink:href="#DejaVuSans-70"/>
       <use x="741.845703" xlink:href="#DejaVuSans-68"/>
       <use x="805.224609" xlink:href="#DejaVuSans-6f"/>
       <use x="866.40625" xlink:href="#DejaVuSans-62"/>
       <use x="929.882812" xlink:href="#DejaVuSans-69"/>
       <use x="957.666016" xlink:href="#DejaVuSans-61"/>
      </g>
     </g>
    </g>
    <g id="xtick_9">
     <g id="line2d_9">
      <g>
       <use style="stroke:#000000;stroke-width:0.8;" x="947.712" xlink:href="#mf21ac65af2" y="482.5224"/>
      </g>
     </g>
     <g id="text_9">
      <!-- Type2_social_phobia -->
      <g transform="translate(896.762781 497.120837)scale(0.1 -0.1)">
       <use xlink:href="#DejaVuSans-54"/>
       <use x="45.458984" xlink:href="#DejaVuSans-79"/>
       <use x="104.638672" xlink:href="#DejaVuSans-70"/>
       <use x="168.115234" xlink:href="#DejaVuSans-65"/>
       <use x="229.638672" xlink:href="#DejaVuSans-32"/>
       <use x="293.261719" xlink:href="#DejaVuSans-5f"/>
       <use x="343.261719" xlink:href="#DejaVuSans-73"/>
       <use x="395.361328" xlink:href="#DejaVuSans-6f"/>
       <use x="456.542969" xlink:href="#DejaVuSans-63"/>
       <use x="511.523438" xlink:href="#DejaVuSans-69"/>
       <use x="539.306641" xlink:href="#DejaVuSans-61"/>
       <use x="600.585938" xlink:href="#DejaVuSans-6c"/>
       <use x="628.369141" xlink:href="#DejaVuSans-5f"/>
       <use x="678.369141" xlink:href="#DejaVuSans-70"/>
       <use x="741.845703" xlink:href="#DejaVuSans-68"/>
       <use x="805.224609" xlink:href="#DejaVuSans-6f"/>
       <use x="866.40625" xlink:href="#DejaVuSans-62"/>
       <use x="929.882812" xlink:href="#DejaVuSans-69"/>
       <use x="957.666016" xlink:href="#DejaVuSans-61"/>
      </g>
     </g>
    </g>
   </g>
   <g id="matplotlib.axis_2">
    <g id="ytick_1">
     <g id="line2d_10">
      <defs>
       <path d="M 0 0 
L -3.5 0 
" id="me23227e23a" style="stroke:#000000;stroke-width:0.8;"/>
      </defs>
      <g>
       <use style="stroke:#000000;stroke-width:0.8;" x="138.24" xlink:href="#me23227e23a" y="452.356032"/>
      </g>
     </g>
     <g id="text_10">
      <!-- 15 -->
      <g transform="translate(118.515 456.155251)scale(0.1 -0.1)">
       <defs>
        <path d="M 691 4666 
L 3169 4666 
L 3169 4134 
L 1269 4134 
L 1269 2991 
Q 1406 3038 1543 3061 
Q 1681 3084 1819 3084 
Q 2600 3084 3056 2656 
Q 3513 2228 3513 1497 
Q 3513 744 3044 326 
Q 2575 -91 1722 -91 
Q 1428 -91 1123 -41 
Q 819 9 494 109 
L 494 744 
Q 775 591 1075 516 
Q 1375 441 1709 441 
Q 2250 441 2565 725 
Q 2881 1009 2881 1497 
Q 2881 1984 2565 2268 
Q 2250 2553 1709 2553 
Q 1456 2553 1204 2497 
Q 953 2441 691 2322 
L 691 4666 
z
" id="DejaVuSans-35" transform="scale(0.015625)"/>
       </defs>
       <use xlink:href="#DejaVuSans-31"/>
       <use x="63.623047" xlink:href="#DejaVuSans-35"/>
      </g>
     </g>
    </g>
    <g id="ytick_2">
     <g id="line2d_11">
      <g>
       <use style="stroke:#000000;stroke-width:0.8;" x="138.24" xlink:href="#me23227e23a" y="393.911844"/>
      </g>
     </g>
     <g id="text_11">
      <!-- 20 -->
      <g transform="translate(118.515 397.711063)scale(0.1 -0.1)">
       <defs>
        <path d="M 2034 4250 
Q 1547 4250 1301 3770 
Q 1056 3291 1056 2328 
Q 1056 1369 1301 889 
Q 1547 409 2034 409 
Q 2525 409 2770 889 
Q 3016 1369 3016 2328 
Q 3016 3291 2770 3770 
Q 2525 4250 2034 4250 
z
M 2034 4750 
Q 2819 4750 3233 4129 
Q 3647 3509 3647 2328 
Q 3647 1150 3233 529 
Q 2819 -91 2034 -91 
Q 1250 -91 836 529 
Q 422 1150 422 2328 
Q 422 3509 836 4129 
Q 1250 4750 2034 4750 
z
" id="DejaVuSans-30" transform="scale(0.015625)"/>
       </defs>
       <use xlink:href="#DejaVuSans-32"/>
       <use x="63.623047" xlink:href="#DejaVuSans-30"/>
      </g>
     </g>
    </g>
    <g id="ytick_3">
     <g id="line2d_12">
      <g>
       <use style="stroke:#000000;stroke-width:0.8;" x="138.24" xlink:href="#me23227e23a" y="335.467657"/>
      </g>
     </g>
     <g id="text_12">
      <!-- 25 -->
      <g transform="translate(118.515 339.266876)scale(0.1 -0.1)">
       <use xlink:href="#DejaVuSans-32"/>
       <use x="63.623047" xlink:href="#DejaVuSans-35"/>
      </g>
     </g>
    </g>
    <g id="ytick_4">
     <g id="line2d_13">
      <g>
       <use style="stroke:#000000;stroke-width:0.8;" x="138.24" xlink:href="#me23227e23a" y="277.02347"/>
      </g>
     </g>
     <g id="text_13">
      <!-- 30 -->
      <g transform="translate(118.515 280.822689)scale(0.1 -0.1)">
       <defs>
        <path d="M 2597 2516 
Q 3050 2419 3304 2112 
Q 3559 1806 3559 1356 
Q 3559 666 3084 287 
Q 2609 -91 1734 -91 
Q 1441 -91 1130 -33 
Q 819 25 488 141 
L 488 750 
Q 750 597 1062 519 
Q 1375 441 1716 441 
Q 2309 441 2620 675 
Q 2931 909 2931 1356 
Q 2931 1769 2642 2001 
Q 2353 2234 1838 2234 
L 1294 2234 
L 1294 2753 
L 1863 2753 
Q 2328 2753 2575 2939 
Q 2822 3125 2822 3475 
Q 2822 3834 2567 4026 
Q 2313 4219 1838 4219 
Q 1578 4219 1281 4162 
Q 984 4106 628 3988 
L 628 4550 
Q 988 4650 1302 4700 
Q 1616 4750 1894 4750 
Q 2613 4750 3031 4423 
Q 3450 4097 3450 3541 
Q 3450 3153 3228 2886 
Q 3006 2619 2597 2516 
z
" id="DejaVuSans-33" transform="scale(0.015625)"/>
       </defs>
       <use xlink:href="#DejaVuSans-33"/>
       <use x="63.623047" xlink:href="#DejaVuSans-30"/>
      </g>
     </g>
    </g>
    <g id="ytick_5">
     <g id="line2d_14">
      <g>
       <use style="stroke:#000000;stroke-width:0.8;" x="138.24" xlink:href="#me23227e23a" y="218.579282"/>
      </g>
     </g>
     <g id="text_14">
      <!-- 35 -->
      <g transform="translate(118.515 222.378501)scale(0.1 -0.1)">
       <use xlink:href="#DejaVuSans-33"/>
       <use x="63.623047" xlink:href="#DejaVuSans-35"/>
      </g>
     </g>
    </g>
    <g id="ytick_6">
     <g id="line2d_15">
      <g>
       <use style="stroke:#000000;stroke-width:0.8;" x="138.24" xlink:href="#me23227e23a" y="160.135095"/>
      </g>
     </g>
     <g id="text_15">
      <!-- 40 -->
      <g transform="translate(118.515 163.934314)scale(0.1 -0.1)">
       <defs>
        <path d="M 2419 4116 
L 825 1625 
L 2419 1625 
L 2419 4116 
z
M 2253 4666 
L 3047 4666 
L 3047 1625 
L 3713 1625 
L 3713 1100 
L 3047 1100 
L 3047 0 
L 2419 0 
L 2419 1100 
L 313 1100 
L 313 1709 
L 2253 4666 
z
" id="DejaVuSans-34" transform="scale(0.015625)"/>
       </defs>
       <use xlink:href="#DejaVuSans-34"/>
       <use x="63.623047" xlink:href="#DejaVuSans-30"/>
      </g>
     </g>
    </g>
    <g id="ytick_7">
     <g id="line2d_16">
      <g>
       <use style="stroke:#000000;stroke-width:0.8;" x="138.24" xlink:href="#me23227e23a" y="101.690908"/>
      </g>
     </g>
     <g id="text_16">
      <!-- 45 -->
      <g transform="translate(118.515 105.490127)scale(0.1 -0.1)">
       <use xlink:href="#DejaVuSans-34"/>
       <use x="63.623047" xlink:href="#DejaVuSans-35"/>
      </g>
     </g>
    </g>
   </g>
   <g id="line2d_17">
    <path clip-path="url(#pbee1c98cf6)" d="M 185.856 312.089982 
L 185.856 224.423701 
" style="fill:none;stroke:#484848;stroke-linecap:square;stroke-width:1.5;"/>
   </g>
   <g id="line2d_18">
    <path clip-path="url(#pbee1c98cf6)" d="M 185.856 294.556726 
L 185.856 258.029109 
" style="fill:none;stroke:#484848;stroke-linecap:square;stroke-width:4.5;"/>
   </g>
   <g id="line2d_19">
    <path clip-path="url(#pbee1c98cf6)" d="M 281.088 341.312076 
L 281.088 224.423701 
" style="fill:none;stroke:#484848;stroke-linecap:square;stroke-width:1.5;"/>
   </g>
   <g id="line2d_20">
    <path clip-path="url(#pbee1c98cf6)" d="M 281.088 298.94004 
L 281.088 259.490214 
" style="fill:none;stroke:#484848;stroke-linecap:square;stroke-width:4.5;"/>
   </g>
   <g id="line2d_21">
    <path clip-path="url(#pbee1c98cf6)" d="M 376.32 335.467657 
L 376.32 206.890445 
" style="fill:none;stroke:#484848;stroke-linecap:square;stroke-width:1.5;"/>
   </g>
   <g id="line2d_22">
    <path clip-path="url(#pbee1c98cf6)" d="M 376.32 290.173412 
L 376.32 224.423701 
" style="fill:none;stroke:#484848;stroke-linecap:square;stroke-width:4.5;"/>
   </g>
   <g id="line2d_23">
    <path clip-path="url(#pbee1c98cf6)" d="M 433.4592 393.911844 
L 509.6448 393.911844 
" style="fill:none;stroke:#484848;stroke-linecap:square;stroke-width:1.5;"/>
   </g>
   <g id="line2d_24">
    <path clip-path="url(#pbee1c98cf6)" d="M 566.784 370.53417 
L 566.784 171.823933 
" style="fill:none;stroke:#484848;stroke-linecap:square;stroke-width:1.5;"/>
   </g>
   <g id="line2d_25">
    <path clip-path="url(#pbee1c98cf6)" d="M 566.784 312.089982 
L 566.784 246.340271 
" style="fill:none;stroke:#484848;stroke-linecap:square;stroke-width:4.5;"/>
   </g>
   <g id="line2d_26">
    <path clip-path="url(#pbee1c98cf6)" d="M 662.016 306.245563 
L 662.016 183.51277 
" style="fill:none;stroke:#484848;stroke-linecap:square;stroke-width:1.5;"/>
   </g>
   <g id="line2d_27">
    <path clip-path="url(#pbee1c98cf6)" d="M 662.016 265.334632 
L 662.016 224.423701 
" style="fill:none;stroke:#484848;stroke-linecap:square;stroke-width:4.5;"/>
   </g>
   <g id="line2d_28">
    <path clip-path="url(#pbee1c98cf6)" d="M 757.248 317.934401 
L 757.248 212.734864 
" style="fill:none;stroke:#484848;stroke-linecap:square;stroke-width:1.5;"/>
   </g>
   <g id="line2d_29">
    <path clip-path="url(#pbee1c98cf6)" d="M 757.248 288.712307 
L 757.248 246.340271 
" style="fill:none;stroke:#484848;stroke-linecap:square;stroke-width:4.5;"/>
   </g>
   <g id="line2d_30">
    <path clip-path="url(#pbee1c98cf6)" d="M 814.3872 393.911844 
L 890.5728 393.911844 
" style="fill:none;stroke:#484848;stroke-linecap:square;stroke-width:1.5;"/>
   </g>
   <g id="line2d_31">
    <path clip-path="url(#pbee1c98cf6)" d="M 909.6192 393.911844 
L 985.8048 393.911844 
" style="fill:none;stroke:#484848;stroke-linecap:square;stroke-width:1.5;"/>
   </g>
   <g id="patch_3">
    <path d="M 138.24 482.5224 
L 138.24 65.0592 
" style="fill:none;stroke:#000000;stroke-linecap:square;stroke-linejoin:miter;stroke-width:0.8;"/>
   </g>
   <g id="patch_4">
    <path d="M 995.328 482.5224 
L 995.328 65.0592 
" style="fill:none;stroke:#000000;stroke-linecap:square;stroke-linejoin:miter;stroke-width:0.8;"/>
   </g>
   <g id="patch_5">
    <path d="M 138.24 482.5224 
L 995.328 482.5224 
" style="fill:none;stroke:#000000;stroke-linecap:square;stroke-linejoin:miter;stroke-width:0.8;"/>
   </g>
   <g id="patch_6">
    <path d="M 138.24 65.0592 
L 995.328 65.0592 
" style="fill:none;stroke:#000000;stroke-linecap:square;stroke-linejoin:miter;stroke-width:0.8;"/>
   </g>
   <g id="PathCollection_1">
    <defs>
     <path d="M 0 1.5 
C 0.397805 1.5 0.77937 1.341951 1.06066 1.06066 
C 1.341951 0.77937 1.5 0.397805 1.5 0 
C 1.5 -0.397805 1.341951 -0.77937 1.06066 -1.06066 
C 0.77937 -1.341951 0.397805 -1.5 0 -1.5 
C -0.397805 -1.5 -0.77937 -1.341951 -1.06066 -1.06066 
C -1.341951 -0.77937 -1.5 -0.397805 -1.5 0 
C -1.5 0.397805 -1.341951 0.77937 -1.06066 1.06066 
C -0.77937 1.341951 -0.397805 1.5 0 1.5 
z
" id="mb1ea432c33" style="stroke:#484848;"/>
    </defs>
    <g clip-path="url(#pbee1c98cf6)">
     <use style="fill:#ffffff;stroke:#484848;" x="185.856" xlink:href="#mb1ea432c33" y="277.02347"/>
    </g>
   </g>
   <g id="PathCollection_2">
    <g clip-path="url(#pbee1c98cf6)">
     <use style="fill:#ffffff;stroke:#484848;" x="281.088" xlink:href="#mb1ea432c33" y="277.02347"/>
    </g>
   </g>
   <g id="PathCollection_3">
    <g clip-path="url(#pbee1c98cf6)">
     <use style="fill:#ffffff;stroke:#484848;" x="376.32" xlink:href="#mb1ea432c33" y="250.723585"/>
    </g>
   </g>
   <g id="PathCollection_4">
    <g clip-path="url(#pbee1c98cf6)">
     <use style="fill:#ffffff;stroke:#484848;" x="566.784" xlink:href="#mb1ea432c33" y="294.556726"/>
    </g>
   </g>
   <g id="PathCollection_5">
    <g clip-path="url(#pbee1c98cf6)">
     <use style="fill:#ffffff;stroke:#484848;" x="662.016" xlink:href="#mb1ea432c33" y="247.801376"/>
    </g>
   </g>
   <g id="PathCollection_6">
    <g clip-path="url(#pbee1c98cf6)">
     <use style="fill:#ffffff;stroke:#484848;" x="757.248" xlink:href="#mb1ea432c33" y="265.334632"/>
    </g>
   </g>
   <g id="text_17">
    <!-- Rewards earned per agent type - cooperative context first -->
    <g transform="translate(203.209781 59.0592)scale(0.25 -0.25)">
     <defs>
      <path d="M 2841 2188 
Q 3044 2119 3236 1894 
Q 3428 1669 3622 1275 
L 4263 0 
L 3584 0 
L 2988 1197 
Q 2756 1666 2539 1819 
Q 2322 1972 1947 1972 
L 1259 1972 
L 1259 0 
L 628 0 
L 628 4666 
L 2053 4666 
Q 2853 4666 3247 4331 
Q 3641 3997 3641 3322 
Q 3641 2881 3436 2590 
Q 3231 2300 2841 2188 
z
M 1259 4147 
L 1259 2491 
L 2053 2491 
Q 2509 2491 2742 2702 
Q 2975 2913 2975 3322 
Q 2975 3731 2742 3939 
Q 2509 4147 2053 4147 
L 1259 4147 
z
" id="DejaVuSans-52" transform="scale(0.015625)"/>
      <path d="M 269 3500 
L 844 3500 
L 1563 769 
L 2278 3500 
L 2956 3500 
L 3675 769 
L 4391 3500 
L 4966 3500 
L 4050 0 
L 3372 0 
L 2619 2869 
L 1863 0 
L 1184 0 
L 269 3500 
z
" id="DejaVuSans-77" transform="scale(0.015625)"/>
      <path id="DejaVuSans-20" transform="scale(0.015625)"/>
      <path d="M 3513 2113 
L 3513 0 
L 2938 0 
L 2938 2094 
Q 2938 2591 2744 2837 
Q 2550 3084 2163 3084 
Q 1697 3084 1428 2787 
Q 1159 2491 1159 1978 
L 1159 0 
L 581 0 
L 581 3500 
L 1159 3500 
L 1159 2956 
Q 1366 3272 1645 3428 
Q 1925 3584 2291 3584 
Q 2894 3584 3203 3211 
Q 3513 2838 3513 2113 
z
" id="DejaVuSans-6e" transform="scale(0.015625)"/>
      <path d="M 2906 1791 
Q 2906 2416 2648 2759 
Q 2391 3103 1925 3103 
Q 1463 3103 1205 2759 
Q 947 2416 947 1791 
Q 947 1169 1205 825 
Q 1463 481 1925 481 
Q 2391 481 2648 825 
Q 2906 1169 2906 1791 
z
M 3481 434 
Q 3481 -459 3084 -895 
Q 2688 -1331 1869 -1331 
Q 1566 -1331 1297 -1286 
Q 1028 -1241 775 -1147 
L 775 -588 
Q 1028 -725 1275 -790 
Q 1522 -856 1778 -856 
Q 2344 -856 2625 -561 
Q 2906 -266 2906 331 
L 2906 616 
Q 2728 306 2450 153 
Q 2172 0 1784 0 
Q 1141 0 747 490 
Q 353 981 353 1791 
Q 353 2603 747 3093 
Q 1141 3584 1784 3584 
Q 2172 3584 2450 3431 
Q 2728 3278 2906 2969 
L 2906 3500 
L 3481 3500 
L 3481 434 
z
" id="DejaVuSans-67" transform="scale(0.015625)"/>
      <path d="M 313 2009 
L 1997 2009 
L 1997 1497 
L 313 1497 
L 313 2009 
z
" id="DejaVuSans-2d" transform="scale(0.015625)"/>
      <path d="M 191 3500 
L 800 3500 
L 1894 563 
L 2988 3500 
L 3597 3500 
L 2284 0 
L 1503 0 
L 191 3500 
z
" id="DejaVuSans-76" transform="scale(0.015625)"/>
      <path d="M 3513 3500 
L 2247 1797 
L 3578 0 
L 2900 0 
L 1881 1375 
L 863 0 
L 184 0 
L 1544 1831 
L 300 3500 
L 978 3500 
L 1906 2253 
L 2834 3500 
L 3513 3500 
z
" id="DejaVuSans-78" transform="scale(0.015625)"/>
      <path d="M 2375 4863 
L 2375 4384 
L 1825 4384 
Q 1516 4384 1395 4259 
Q 1275 4134 1275 3809 
L 1275 3500 
L 2222 3500 
L 2222 3053 
L 1275 3053 
L 1275 0 
L 697 0 
L 697 3053 
L 147 3053 
L 147 3500 
L 697 3500 
L 697 3744 
Q 697 4328 969 4595 
Q 1241 4863 1831 4863 
L 2375 4863 
z
" id="DejaVuSans-66" transform="scale(0.015625)"/>
     </defs>
     <use xlink:href="#DejaVuSans-52"/>
     <use x="64.982422" xlink:href="#DejaVuSans-65"/>
     <use x="126.505859" xlink:href="#DejaVuSans-77"/>
     <use x="208.292969" xlink:href="#DejaVuSans-61"/>
     <use x="269.572266" xlink:href="#DejaVuSans-72"/>
     <use x="308.935547" xlink:href="#DejaVuSans-64"/>
     <use x="372.412109" xlink:href="#DejaVuSans-73"/>
     <use x="424.511719" xlink:href="#DejaVuSans-20"/>
     <use x="456.298828" xlink:href="#DejaVuSans-65"/>
     <use x="517.822266" xlink:href="#DejaVuSans-61"/>
     <use x="579.101562" xlink:href="#DejaVuSans-72"/>
     <use x="618.464844" xlink:href="#DejaVuSans-6e"/>
     <use x="681.84375" xlink:href="#DejaVuSans-65"/>
     <use x="743.367188" xlink:href="#DejaVuSans-64"/>
     <use x="806.84375" xlink:href="#DejaVuSans-20"/>
     <use x="838.630859" xlink:href="#DejaVuSans-70"/>
     <use x="902.107422" xlink:href="#DejaVuSans-65"/>
     <use x="963.630859" xlink:href="#DejaVuSans-72"/>
     <use x="1004.744141" xlink:href="#DejaVuSans-20"/>
     <use x="1036.53125" xlink:href="#DejaVuSans-61"/>
     <use x="1097.810547" xlink:href="#DejaVuSans-67"/>
     <use x="1161.287109" xlink:href="#DejaVuSans-65"/>
     <use x="1222.810547" xlink:href="#DejaVuSans-6e"/>
     <use x="1286.189453" xlink:href="#DejaVuSans-74"/>
     <use x="1325.398438" xlink:href="#DejaVuSans-20"/>
     <use x="1357.185547" xlink:href="#DejaVuSans-74"/>
     <use x="1396.394531" xlink:href="#DejaVuSans-79"/>
     <use x="1455.574219" xlink:href="#DejaVuSans-70"/>
     <use x="1519.050781" xlink:href="#DejaVuSans-65"/>
     <use x="1580.574219" xlink:href="#DejaVuSans-20"/>
     <use x="1612.361328" xlink:href="#DejaVuSans-2d"/>
     <use x="1648.445312" xlink:href="#DejaVuSans-20"/>
     <use x="1680.232422" xlink:href="#DejaVuSans-63"/>
     <use x="1735.212891" xlink:href="#DejaVuSans-6f"/>
     <use x="1796.394531" xlink:href="#DejaVuSans-6f"/>
     <use x="1857.576172" xlink:href="#DejaVuSans-70"/>
     <use x="1921.052734" xlink:href="#DejaVuSans-65"/>
     <use x="1982.576172" xlink:href="#DejaVuSans-72"/>
     <use x="2023.689453" xlink:href="#DejaVuSans-61"/>
     <use x="2084.96875" xlink:href="#DejaVuSans-74"/>
     <use x="2124.177734" xlink:href="#DejaVuSans-69"/>
     <use x="2151.960938" xlink:href="#DejaVuSans-76"/>
     <use x="2211.140625" xlink:href="#DejaVuSans-65"/>
     <use x="2272.664062" xlink:href="#DejaVuSans-20"/>
     <use x="2304.451172" xlink:href="#DejaVuSans-63"/>
     <use x="2359.431641" xlink:href="#DejaVuSans-6f"/>
     <use x="2420.613281" xlink:href="#DejaVuSans-6e"/>
     <use x="2483.992188" xlink:href="#DejaVuSans-74"/>
     <use x="2523.201172" xlink:href="#DejaVuSans-65"/>
     <use x="2582.974609" xlink:href="#DejaVuSans-78"/>
     <use x="2642.154297" xlink:href="#DejaVuSans-74"/>
     <use x="2681.363281" xlink:href="#DejaVuSans-20"/>
     <use x="2713.150391" xlink:href="#DejaVuSans-66"/>
     <use x="2748.355469" xlink:href="#DejaVuSans-69"/>
     <use x="2776.138672" xlink:href="#DejaVuSans-72"/>
     <use x="2817.251953" xlink:href="#DejaVuSans-73"/>
     <use x="2869.351562" xlink:href="#DejaVuSans-74"/>
    </g>
   </g>
  </g>
 </g>
 <defs>
  <clipPath id="pbee1c98cf6">
   <rect height="417.4632" width="857.088" x="138.24" y="65.0592"/>
  </clipPath>
 </defs>
</svg>
