<?xml version="1.0" encoding="utf-8" standalone="no"?>
<!DOCTYPE svg PUBLIC "-//W3C//DTD SVG 1.1//EN"
  "http://www.w3.org/Graphics/SVG/1.1/DTD/svg11.dtd">
<svg height="720pt" version="1.1" viewBox="0 0 1152 720" width="1152pt" xmlns="http://www.w3.org/2000/svg" xmlns:xlink="http://www.w3.org/1999/xlink">
 <metadata>
  <rdf:RDF xmlns:cc="http://creativecommons.org/ns#" xmlns:dc="http://purl.org/dc/elements/1.1/" xmlns:rdf="http://www.w3.org/1999/02/22-rdf-syntax-ns#">
   <cc:Work>
    <dc:type rdf:resource="http://purl.org/dc/dcmitype/StillImage"/>
    <dc:date>2023-09-18T18:31:30.768637</dc:date>
    <dc:format>image/svg+xml</dc:format>
    <dc:creator>
     <cc:Agent>
      <dc:title>Matplotlib v3.4.3, https://matplotlib.org/</dc:title>
     </cc:Agent>
    </dc:creator>
   </cc:Work>
  </rdf:RDF>
 </metadata>
 <defs>
  <style type="text/css">*{stroke-linecap:butt;stroke-linejoin:round;}</style>
 </defs>
 <g id="figure_1">
  <g id="patch_1">
   <path d="M 0 720 
L 1152 720 
L 1152 0 
L 0 0 
z
" style="fill:#ffffff;"/>
  </g>
  <g id="axes_1">
   <g id="patch_2">
    <path d="M 144 640.8 
L 1036.8 640.8 
L 1036.8 86.4 
L 144 86.4 
z
" style="fill:#ffffff;"/>
   </g>
   <g id="PolyCollection_1">
    <defs>
     <path d="M 193.711725 -179.952182 
L 193.488275 -179.952182 
L 193.459343 -183.780385 
L 193.424976 -187.608588 
L 193.384737 -191.436791 
L 193.33831 -195.264994 
L 193.285542 -199.093198 
L 193.226489 -202.921401 
L 193.161446 -206.749604 
L 193.090987 -210.577807 
L 193.015976 -214.40601 
L 192.937571 -218.234214 
L 192.857214 -222.062417 
L 192.776596 -225.89062 
L 192.697603 -229.718823 
L 192.62225 -233.547026 
L 192.552592 -237.37523 
L 192.490633 -241.203433 
L 192.438218 -245.031636 
L 192.39694 -248.859839 
L 192.368043 -252.688042 
L 192.352344 -256.516246 
L 192.350169 -260.344449 
L 192.361319 -264.172652 
L 192.385051 -268.000855 
L 192.420091 -271.829058 
L 192.464665 -275.657262 
L 192.516557 -279.485465 
L 192.573173 -283.313668 
L 192.631627 -287.141871 
L 192.68883 -290.970074 
L 192.741575 -294.798278 
L 192.786633 -298.626481 
L 192.820834 -302.454684 
L 192.841148 -306.282887 
L 192.844762 -310.111091 
L 192.829148 -313.939294 
L 192.792123 -317.767497 
L 192.731906 -321.5957 
L 192.64717 -325.423903 
L 192.537075 -329.252107 
L 192.401299 -333.08031 
L 192.240045 -336.908513 
L 192.054038 -340.736716 
L 191.844488 -344.564919 
L 191.613039 -348.393123 
L 191.361693 -352.221326 
L 191.092713 -356.049529 
L 190.808516 -359.877732 
L 190.511558 -363.705935 
L 190.204229 -367.534139 
L 189.888767 -371.362342 
L 189.567196 -375.190545 
L 189.241311 -379.018748 
L 188.912699 -382.846951 
L 188.582812 -386.675155 
L 188.253071 -390.503358 
L 187.92501 -394.331561 
L 187.600428 -398.159764 
L 187.281544 -401.987967 
L 186.971125 -405.816171 
L 186.67257 -409.644374 
L 186.389948 -413.472577 
L 186.127949 -417.30078 
L 185.891783 -421.128983 
L 185.686986 -424.957187 
L 185.519187 -428.78539 
L 185.393819 -432.613593 
L 185.31581 -436.441796 
L 185.289285 -440.269999 
L 185.31729 -444.098203 
L 185.401567 -447.926406 
L 185.542402 -451.754609 
L 185.738551 -455.582812 
L 185.987253 -459.411015 
L 186.284325 -463.239219 
L 186.624333 -467.067422 
L 187.000822 -470.895625 
L 187.406592 -474.723828 
L 187.833991 -478.552031 
L 188.275217 -482.380235 
L 188.7226 -486.208438 
L 189.168857 -490.036641 
L 189.607312 -493.864844 
L 190.032053 -497.693047 
L 190.438058 -501.521251 
L 190.821257 -505.349454 
L 191.178551 -509.177657 
L 191.507795 -513.00586 
L 191.807743 -516.834063 
L 192.077963 -520.662267 
L 192.318743 -524.49047 
L 192.530977 -528.318673 
L 192.71605 -532.146876 
L 192.875721 -535.975079 
L 193.012015 -539.803283 
L 193.127119 -543.631486 
L 193.223291 -547.459689 
L 193.302787 -551.287892 
L 193.36779 -555.116095 
L 193.420368 -558.944299 
L 193.779632 -558.944299 
L 193.779632 -558.944299 
L 193.83221 -555.116095 
L 193.897213 -551.287892 
L 193.976709 -547.459689 
L 194.072881 -543.631486 
L 194.187985 -539.803283 
L 194.324279 -535.975079 
L 194.48395 -532.146876 
L 194.669023 -528.318673 
L 194.881257 -524.49047 
L 195.122037 -520.662267 
L 195.392257 -516.834063 
L 195.692205 -513.00586 
L 196.021449 -509.177657 
L 196.378743 -505.349454 
L 196.761942 -501.521251 
L 197.167947 -497.693047 
L 197.592688 -493.864844 
L 198.031143 -490.036641 
L 198.4774 -486.208438 
L 198.924783 -482.380235 
L 199.366009 -478.552031 
L 199.793408 -474.723828 
L 200.199178 -470.895625 
L 200.575667 -467.067422 
L 200.915675 -463.239219 
L 201.212747 -459.411015 
L 201.461449 -455.582812 
L 201.657598 -451.754609 
L 201.798433 -447.926406 
L 201.88271 -444.098203 
L 201.910715 -440.269999 
L 201.88419 -436.441796 
L 201.806181 -432.613593 
L 201.680813 -428.78539 
L 201.513014 -424.957187 
L 201.308217 -421.128983 
L 201.072051 -417.30078 
L 200.810052 -413.472577 
L 200.52743 -409.644374 
L 200.228875 -405.816171 
L 199.918456 -401.987967 
L 199.599572 -398.159764 
L 199.27499 -394.331561 
L 198.946929 -390.503358 
L 198.617188 -386.675155 
L 198.287301 -382.846951 
L 197.958689 -379.018748 
L 197.632804 -375.190545 
L 197.311233 -371.362342 
L 196.995771 -367.534139 
L 196.688442 -363.705935 
L 196.391484 -359.877732 
L 196.107287 -356.049529 
L 195.838307 -352.221326 
L 195.586961 -348.393123 
L 195.355512 -344.564919 
L 195.145962 -340.736716 
L 194.959955 -336.908513 
L 194.798701 -333.08031 
L 194.662925 -329.252107 
L 194.55283 -325.423903 
L 194.468094 -321.5957 
L 194.407877 -317.767497 
L 194.370852 -313.939294 
L 194.355238 -310.111091 
L 194.358852 -306.282887 
L 194.379166 -302.454684 
L 194.413367 -298.626481 
L 194.458425 -294.798278 
L 194.51117 -290.970074 
L 194.568373 -287.141871 
L 194.626827 -283.313668 
L 194.683443 -279.485465 
L 194.735335 -275.657262 
L 194.779909 -271.829058 
L 194.814949 -268.000855 
L 194.838681 -264.172652 
L 194.849831 -260.344449 
L 194.847656 -256.516246 
L 194.831957 -252.688042 
L 194.80306 -248.859839 
L 194.761782 -245.031636 
L 194.709367 -241.203433 
L 194.647408 -237.37523 
L 194.57775 -233.547026 
L 194.502397 -229.718823 
L 194.423404 -225.89062 
L 194.342786 -222.062417 
L 194.262429 -218.234214 
L 194.184024 -214.40601 
L 194.109013 -210.577807 
L 194.038554 -206.749604 
L 193.973511 -202.921401 
L 193.914458 -199.093198 
L 193.86169 -195.264994 
L 193.815263 -191.436791 
L 193.775024 -187.608588 
L 193.740657 -183.780385 
L 193.711725 -179.952182 
z
" id="m0f6c862658" style="stroke:#484848;stroke-width:1.5;"/>
    </defs>
    <g clip-path="url(#p1534683f3a)">
     <use style="fill:#c1505d;stroke:#484848;stroke-width:1.5;" x="0" xlink:href="#m0f6c862658" y="720"/>
    </g>
   </g>
   <g id="PolyCollection_2">
    <defs>
     <path d="M 293.405068 -129.765766 
L 292.194932 -129.765766 
L 292.059533 -133.882934 
L 291.90161 -138.000102 
L 291.719328 -142.11727 
L 291.511139 -146.234438 
L 291.275893 -150.351606 
L 291.012947 -154.468774 
L 290.722278 -158.585942 
L 290.404572 -162.70311 
L 290.061313 -166.820278 
L 289.694835 -170.937446 
L 289.308352 -175.054614 
L 288.90595 -179.171782 
L 288.492545 -183.28895 
L 288.073796 -187.406118 
L 287.655985 -191.523286 
L 287.24586 -195.640454 
L 286.850448 -199.757621 
L 286.476843 -203.874789 
L 286.131987 -207.991957 
L 285.822445 -212.109125 
L 285.554188 -216.226293 
L 285.332391 -220.343461 
L 285.161273 -224.460629 
L 285.043954 -228.577797 
L 284.982369 -232.694965 
L 284.977226 -236.812133 
L 285.027997 -240.929301 
L 285.132977 -245.046469 
L 285.28936 -249.163637 
L 285.493367 -253.280805 
L 285.740395 -257.397973 
L 286.025182 -261.515141 
L 286.34199 -265.632309 
L 286.684788 -269.749477 
L 287.047423 -273.866645 
L 287.423791 -277.983812 
L 287.80798 -282.10098 
L 288.1944 -286.218148 
L 288.577883 -290.335316 
L 288.953766 -294.452484 
L 289.317939 -298.569652 
L 289.666882 -302.68682 
L 289.997668 -306.803988 
L 290.307959 -310.921156 
L 290.595975 -315.038324 
L 290.860459 -319.155492 
L 291.100628 -323.27266 
L 291.316116 -327.389828 
L 291.50692 -331.506996 
L 291.673339 -335.624164 
L 291.815921 -339.741332 
L 291.935409 -343.8585 
L 292.032697 -347.975668 
L 292.108792 -352.092836 
L 292.164786 -356.210003 
L 292.201837 -360.327171 
L 292.221153 -364.444339 
L 292.223996 -368.561507 
L 292.211678 -372.678675 
L 292.185572 -376.795843 
L 292.147122 -380.913011 
L 292.097856 -385.030179 
L 292.03939 -389.147347 
L 291.97344 -393.264515 
L 291.901815 -397.381683 
L 291.826412 -401.498851 
L 291.749195 -405.616019 
L 291.672172 -409.733187 
L 291.597359 -413.850355 
L 291.526733 -417.967523 
L 291.462189 -422.084691 
L 291.405486 -426.201859 
L 291.358194 -430.319027 
L 291.321647 -434.436194 
L 291.296895 -438.553362 
L 291.284675 -442.67053 
L 291.285381 -446.787698 
L 291.299058 -450.904866 
L 291.3254 -455.022034 
L 291.363769 -459.139202 
L 291.413226 -463.25637 
L 291.472568 -467.373538 
L 291.540383 -471.490706 
L 291.615107 -475.607874 
L 291.695081 -479.725042 
L 291.77862 -483.84221 
L 291.864062 -487.959378 
L 291.949831 -492.076546 
L 292.034477 -496.193714 
L 292.116714 -500.310882 
L 292.195446 -504.42805 
L 292.269785 -508.545217 
L 292.339054 -512.662385 
L 292.402785 -516.779553 
L 292.460707 -520.896721 
L 292.512727 -525.013889 
L 292.558907 -529.131057 
L 292.599444 -533.248225 
L 292.634633 -537.365393 
L 292.965367 -537.365393 
L 292.965367 -537.365393 
L 293.000556 -533.248225 
L 293.041093 -529.131057 
L 293.087273 -525.013889 
L 293.139293 -520.896721 
L 293.197215 -516.779553 
L 293.260946 -512.662385 
L 293.330215 -508.545217 
L 293.404554 -504.42805 
L 293.483286 -500.310882 
L 293.565523 -496.193714 
L 293.650169 -492.076546 
L 293.735938 -487.959378 
L 293.82138 -483.84221 
L 293.904919 -479.725042 
L 293.984893 -475.607874 
L 294.059617 -471.490706 
L 294.127432 -467.373538 
L 294.186774 -463.25637 
L 294.236231 -459.139202 
L 294.2746 -455.022034 
L 294.300942 -450.904866 
L 294.314619 -446.787698 
L 294.315325 -442.67053 
L 294.303105 -438.553362 
L 294.278353 -434.436194 
L 294.241806 -430.319027 
L 294.194514 -426.201859 
L 294.137811 -422.084691 
L 294.073267 -417.967523 
L 294.002641 -413.850355 
L 293.927828 -409.733187 
L 293.850805 -405.616019 
L 293.773588 -401.498851 
L 293.698185 -397.381683 
L 293.62656 -393.264515 
L 293.56061 -389.147347 
L 293.502144 -385.030179 
L 293.452878 -380.913011 
L 293.414428 -376.795843 
L 293.388322 -372.678675 
L 293.376004 -368.561507 
L 293.378847 -364.444339 
L 293.398163 -360.327171 
L 293.435214 -356.210003 
L 293.491208 -352.092836 
L 293.567303 -347.975668 
L 293.664591 -343.8585 
L 293.784079 -339.741332 
L 293.926661 -335.624164 
L 294.09308 -331.506996 
L 294.283884 -327.389828 
L 294.499372 -323.27266 
L 294.739541 -319.155492 
L 295.004025 -315.038324 
L 295.292041 -310.921156 
L 295.602332 -306.803988 
L 295.933118 -302.68682 
L 296.282061 -298.569652 
L 296.646234 -294.452484 
L 297.022117 -290.335316 
L 297.4056 -286.218148 
L 297.79202 -282.10098 
L 298.176209 -277.983812 
L 298.552577 -273.866645 
L 298.915212 -269.749477 
L 299.25801 -265.632309 
L 299.574818 -261.515141 
L 299.859605 -257.397973 
L 300.106633 -253.280805 
L 300.31064 -249.163637 
L 300.467023 -245.046469 
L 300.572003 -240.929301 
L 300.622774 -236.812133 
L 300.617631 -232.694965 
L 300.556046 -228.577797 
L 300.438727 -224.460629 
L 300.267609 -220.343461 
L 300.045812 -216.226293 
L 299.777555 -212.109125 
L 299.468013 -207.991957 
L 299.123157 -203.874789 
L 298.749552 -199.757621 
L 298.35414 -195.640454 
L 297.944015 -191.523286 
L 297.526204 -187.406118 
L 297.107455 -183.28895 
L 296.69405 -179.171782 
L 296.291648 -175.054614 
L 295.905165 -170.937446 
L 295.538687 -166.820278 
L 295.195428 -162.70311 
L 294.877722 -158.585942 
L 294.587053 -154.468774 
L 294.324107 -150.351606 
L 294.088861 -146.234438 
L 293.880672 -142.11727 
L 293.69839 -138.000102 
L 293.540467 -133.882934 
L 293.405068 -129.765766 
z
" id="m962deb9bd6" style="stroke:#484848;stroke-width:1.5;"/>
    </defs>
    <g clip-path="url(#p1534683f3a)">
     <use style="fill:#de7959;stroke:#484848;stroke-width:1.5;" x="0" xlink:href="#m962deb9bd6" y="720"/>
    </g>
   </g>
   <g id="PolyCollection_3">
    <defs>
     <path d="M 392.085962 -145.214646 
L 391.914038 -145.214646 
L 391.893126 -149.151516 
L 391.868706 -153.088386 
L 391.840611 -157.025255 
L 391.808774 -160.962125 
L 391.773243 -164.898995 
L 391.734203 -168.835865 
L 391.691978 -172.772734 
L 391.647036 -176.709604 
L 391.599977 -180.646474 
L 391.551509 -184.583344 
L 391.502425 -188.520214 
L 391.453554 -192.457083 
L 391.405726 -196.393953 
L 391.359715 -200.330823 
L 391.316197 -204.267693 
L 391.275705 -208.204562 
L 391.238598 -212.141432 
L 391.205033 -216.078302 
L 391.17496 -220.015172 
L 391.148118 -223.952042 
L 391.124056 -227.888911 
L 391.102147 -231.825781 
L 391.081623 -235.762651 
L 391.061599 -239.699521 
L 391.041106 -243.63639 
L 391.019109 -247.57326 
L 390.994526 -251.51013 
L 390.966242 -255.447 
L 390.933115 -259.383869 
L 390.893982 -263.320739 
L 390.847673 -267.257609 
L 390.793026 -271.194479 
L 390.728916 -275.131349 
L 390.654301 -279.068218 
L 390.56827 -283.005088 
L 390.470116 -286.941958 
L 390.359396 -290.878828 
L 390.236006 -294.815697 
L 390.100233 -298.752567 
L 389.95279 -302.689437 
L 389.794822 -306.626307 
L 389.627879 -310.563177 
L 389.45385 -314.500046 
L 389.274854 -318.436916 
L 389.093111 -322.373786 
L 388.910775 -326.310656 
L 388.729775 -330.247525 
L 388.551645 -334.184395 
L 388.377388 -338.121265 
L 388.207378 -342.058135 
L 388.041306 -345.995004 
L 387.878197 -349.931874 
L 387.716487 -353.868744 
L 387.554164 -357.805614 
L 387.38897 -361.742484 
L 387.218635 -365.679353 
L 387.041141 -369.616223 
L 386.854992 -373.553093 
L 386.65945 -377.489963 
L 386.454748 -381.426832 
L 386.242224 -385.363702 
L 386.024394 -389.300572 
L 385.804938 -393.237442 
L 385.588602 -397.174312 
L 385.381022 -401.111181 
L 385.18848 -405.048051 
L 385.01761 -408.984921 
L 384.875068 -412.921791 
L 384.767199 -416.85866 
L 384.699702 -420.79553 
L 384.677339 -424.7324 
L 384.703682 -428.66927 
L 384.78093 -432.606139 
L 384.909785 -436.543009 
L 385.089418 -440.479879 
L 385.317496 -444.416749 
L 385.590289 -448.353619 
L 385.90283 -452.290488 
L 386.249134 -456.227358 
L 386.622452 -460.164228 
L 387.015546 -464.101098 
L 387.42097 -468.037967 
L 387.831353 -471.974837 
L 388.23965 -475.911707 
L 388.639373 -479.848577 
L 389.024773 -483.785447 
L 389.390974 -487.722316 
L 389.734071 -491.659186 
L 390.051159 -495.596056 
L 390.340326 -499.532926 
L 390.600605 -503.469795 
L 390.831886 -507.406665 
L 391.034806 -511.343535 
L 391.210617 -515.280405 
L 391.361053 -519.217274 
L 391.488193 -523.154144 
L 391.594326 -527.091014 
L 391.681844 -531.027884 
L 391.753134 -534.964754 
L 392.246866 -534.964754 
L 392.246866 -534.964754 
L 392.318156 -531.027884 
L 392.405674 -527.091014 
L 392.511807 -523.154144 
L 392.638947 -519.217274 
L 392.789383 -515.280405 
L 392.965194 -511.343535 
L 393.168114 -507.406665 
L 393.399395 -503.469795 
L 393.659674 -499.532926 
L 393.948841 -495.596056 
L 394.265929 -491.659186 
L 394.609026 -487.722316 
L 394.975227 -483.785447 
L 395.360627 -479.848577 
L 395.76035 -475.911707 
L 396.168647 -471.974837 
L 396.57903 -468.037967 
L 396.984454 -464.101098 
L 397.377548 -460.164228 
L 397.750866 -456.227358 
L 398.09717 -452.290488 
L 398.409711 -448.353619 
L 398.682504 -444.416749 
L 398.910582 -440.479879 
L 399.090215 -436.543009 
L 399.21907 -432.606139 
L 399.296318 -428.66927 
L 399.322661 -424.7324 
L 399.300298 -420.79553 
L 399.232801 -416.85866 
L 399.124932 -412.921791 
L 398.98239 -408.984921 
L 398.81152 -405.048051 
L 398.618978 -401.111181 
L 398.411398 -397.174312 
L 398.195062 -393.237442 
L 397.975606 -389.300572 
L 397.757776 -385.363702 
L 397.545252 -381.426832 
L 397.34055 -377.489963 
L 397.145008 -373.553093 
L 396.958859 -369.616223 
L 396.781365 -365.679353 
L 396.61103 -361.742484 
L 396.445836 -357.805614 
L 396.283513 -353.868744 
L 396.121803 -349.931874 
L 395.958694 -345.995004 
L 395.792622 -342.058135 
L 395.622612 -338.121265 
L 395.448355 -334.184395 
L 395.270225 -330.247525 
L 395.089225 -326.310656 
L 394.906889 -322.373786 
L 394.725146 -318.436916 
L 394.54615 -314.500046 
L 394.372121 -310.563177 
L 394.205178 -306.626307 
L 394.04721 -302.689437 
L 393.899767 -298.752567 
L 393.763994 -294.815697 
L 393.640604 -290.878828 
L 393.529884 -286.941958 
L 393.43173 -283.005088 
L 393.345699 -279.068218 
L 393.271084 -275.131349 
L 393.206974 -271.194479 
L 393.152327 -267.257609 
L 393.106018 -263.320739 
L 393.066885 -259.383869 
L 393.033758 -255.447 
L 393.005474 -251.51013 
L 392.980891 -247.57326 
L 392.958894 -243.63639 
L 392.938401 -239.699521 
L 392.918377 -235.762651 
L 392.897853 -231.825781 
L 392.875944 -227.888911 
L 392.851882 -223.952042 
L 392.82504 -220.015172 
L 392.794967 -216.078302 
L 392.761402 -212.141432 
L 392.724295 -208.204562 
L 392.683803 -204.267693 
L 392.640285 -200.330823 
L 392.594274 -196.393953 
L 392.546446 -192.457083 
L 392.497575 -188.520214 
L 392.448491 -184.583344 
L 392.400023 -180.646474 
L 392.352964 -176.709604 
L 392.308022 -172.772734 
L 392.265797 -168.835865 
L 392.226757 -164.898995 
L 392.191226 -160.962125 
L 392.159389 -157.025255 
L 392.131294 -153.088386 
L 392.106874 -149.151516 
L 392.085962 -145.214646 
z
" id="m41a485ea6b" style="stroke:#484848;stroke-width:1.5;"/>
    </defs>
    <g clip-path="url(#p1534683f3a)">
     <use style="fill:#e9ad74;stroke:#484848;stroke-width:1.5;" x="0" xlink:href="#m41a485ea6b" y="720"/>
    </g>
   </g>
   <g id="PolyCollection_4">
    <defs>
     <path d="M 590.695383 -104.4 
L 590.104617 -104.4 
L 590.046128 -109.490909 
L 589.979055 -114.581818 
L 589.902804 -119.672727 
L 589.816881 -124.763636 
L 589.720919 -129.854545 
L 589.614718 -134.945455 
L 589.498269 -140.036364 
L 589.37179 -145.127273 
L 589.235743 -150.218182 
L 589.090858 -155.309091 
L 588.938141 -160.4 
L 588.778878 -165.490909 
L 588.614624 -170.581818 
L 588.447183 -175.672727 
L 588.278579 -180.763636 
L 588.111012 -185.854545 
L 587.946803 -190.945455 
L 587.788336 -196.036364 
L 587.637989 -201.127273 
L 587.498059 -206.218182 
L 587.370689 -211.309091 
L 587.257796 -216.4 
L 587.161008 -221.490909 
L 587.081597 -226.581818 
L 587.020441 -231.672727 
L 586.977985 -236.763636 
L 586.954225 -241.854545 
L 586.948707 -246.945455 
L 586.96054 -252.036364 
L 586.98843 -257.127273 
L 587.030725 -262.218182 
L 587.085474 -267.309091 
L 587.150497 -272.4 
L 587.223458 -277.490909 
L 587.301944 -282.581818 
L 587.383546 -287.672727 
L 587.465929 -292.763636 
L 587.546902 -297.854545 
L 587.624475 -302.945455 
L 587.696902 -308.036364 
L 587.762721 -313.127273 
L 587.820768 -318.218182 
L 587.870184 -323.309091 
L 587.910415 -328.4 
L 587.941188 -333.490909 
L 587.962493 -338.581818 
L 587.974548 -343.672727 
L 587.977763 -348.763636 
L 587.972709 -353.854545 
L 587.960074 -358.945455 
L 587.940636 -364.036364 
L 587.915232 -369.127273 
L 587.884736 -374.218182 
L 587.850041 -379.309091 
L 587.812048 -384.4 
L 587.771661 -389.490909 
L 587.729786 -394.581818 
L 587.687333 -399.672727 
L 587.645224 -404.763636 
L 587.60439 -409.854545 
L 587.565786 -414.945455 
L 587.530382 -420.036364 
L 587.499164 -425.127273 
L 587.473128 -430.218182 
L 587.453266 -435.309091 
L 587.440548 -440.4 
L 587.435901 -445.490909 
L 587.440183 -450.581818 
L 587.454156 -455.672727 
L 587.478457 -460.763636 
L 587.513572 -465.854545 
L 587.559806 -470.945455 
L 587.617269 -476.036364 
L 587.685859 -481.127273 
L 587.765252 -486.218182 
L 587.854903 -491.309091 
L 587.954055 -496.4 
L 588.061755 -501.490909 
L 588.176875 -506.581818 
L 588.298145 -511.672727 
L 588.424183 -516.763636 
L 588.55354 -521.854545 
L 588.684733 -526.945455 
L 588.816292 -532.036364 
L 588.946794 -537.127273 
L 589.074898 -542.218182 
L 589.199381 -547.309091 
L 589.319158 -552.4 
L 589.433303 -557.490909 
L 589.54106 -562.581818 
L 589.641852 -567.672727 
L 589.735276 -572.763636 
L 589.821099 -577.854545 
L 589.899248 -582.945455 
L 589.969791 -588.036364 
L 590.032921 -593.127273 
L 590.088938 -598.218182 
L 590.138225 -603.309091 
L 590.181228 -608.4 
L 590.618772 -608.4 
L 590.618772 -608.4 
L 590.661775 -603.309091 
L 590.711062 -598.218182 
L 590.767079 -593.127273 
L 590.830209 -588.036364 
L 590.900752 -582.945455 
L 590.978901 -577.854545 
L 591.064724 -572.763636 
L 591.158148 -567.672727 
L 591.25894 -562.581818 
L 591.366697 -557.490909 
L 591.480842 -552.4 
L 591.600619 -547.309091 
L 591.725102 -542.218182 
L 591.853206 -537.127273 
L 591.983708 -532.036364 
L 592.115267 -526.945455 
L 592.24646 -521.854545 
L 592.375817 -516.763636 
L 592.501855 -511.672727 
L 592.623125 -506.581818 
L 592.738245 -501.490909 
L 592.845945 -496.4 
L 592.945097 -491.309091 
L 593.034748 -486.218182 
L 593.114141 -481.127273 
L 593.182731 -476.036364 
L 593.240194 -470.945455 
L 593.286428 -465.854545 
L 593.321543 -460.763636 
L 593.345844 -455.672727 
L 593.359817 -450.581818 
L 593.364099 -445.490909 
L 593.359452 -440.4 
L 593.346734 -435.309091 
L 593.326872 -430.218182 
L 593.300836 -425.127273 
L 593.269618 -420.036364 
L 593.234214 -414.945455 
L 593.19561 -409.854545 
L 593.154776 -404.763636 
L 593.112667 -399.672727 
L 593.070214 -394.581818 
L 593.028339 -389.490909 
L 592.987952 -384.4 
L 592.949959 -379.309091 
L 592.915264 -374.218182 
L 592.884768 -369.127273 
L 592.859364 -364.036364 
L 592.839926 -358.945455 
L 592.827291 -353.854545 
L 592.822237 -348.763636 
L 592.825452 -343.672727 
L 592.837507 -338.581818 
L 592.858812 -333.490909 
L 592.889585 -328.4 
L 592.929816 -323.309091 
L 592.979232 -318.218182 
L 593.037279 -313.127273 
L 593.103098 -308.036364 
L 593.175525 -302.945455 
L 593.253098 -297.854545 
L 593.334071 -292.763636 
L 593.416454 -287.672727 
L 593.498056 -282.581818 
L 593.576542 -277.490909 
L 593.649503 -272.4 
L 593.714526 -267.309091 
L 593.769275 -262.218182 
L 593.81157 -257.127273 
L 593.83946 -252.036364 
L 593.851293 -246.945455 
L 593.845775 -241.854545 
L 593.822015 -236.763636 
L 593.779559 -231.672727 
L 593.718403 -226.581818 
L 593.638992 -221.490909 
L 593.542204 -216.4 
L 593.429311 -211.309091 
L 593.301941 -206.218182 
L 593.162011 -201.127273 
L 593.011664 -196.036364 
L 592.853197 -190.945455 
L 592.688988 -185.854545 
L 592.521421 -180.763636 
L 592.352817 -175.672727 
L 592.185376 -170.581818 
L 592.021122 -165.490909 
L 591.861859 -160.4 
L 591.709142 -155.309091 
L 591.564257 -150.218182 
L 591.42821 -145.127273 
L 591.301731 -140.036364 
L 591.185282 -134.945455 
L 591.079081 -129.854545 
L 590.983119 -124.763636 
L 590.897196 -119.672727 
L 590.820945 -114.581818 
L 590.753872 -109.490909 
L 590.695383 -104.4 
z
" id="m4873b32da5" style="stroke:#484848;stroke-width:1.5;"/>
    </defs>
    <g clip-path="url(#p1534683f3a)">
     <use style="fill:#f7f7c6;stroke:#484848;stroke-width:1.5;" x="0" xlink:href="#m4873b32da5" y="720"/>
    </g>
   </g>
   <g id="PolyCollection_5">
    <defs>
     <path d="M 690.457915 -240.010226 
L 688.742085 -240.010226 
L 688.457077 -240.91173 
L 688.094137 -241.813234 
L 687.637762 -242.714738 
L 687.071204 -243.616243 
L 686.376948 -244.517747 
L 685.537399 -245.419251 
L 684.535754 -246.320755 
L 683.357081 -247.222259 
L 681.989546 -248.123763 
L 680.425742 -249.025267 
L 678.664039 -249.926771 
L 676.709857 -250.828275 
L 674.576736 -251.72978 
L 672.287094 -252.631284 
L 669.87255 -253.532788 
L 667.37371 -254.434292 
L 664.839375 -255.335796 
L 662.325116 -256.2373 
L 659.891282 -257.138804 
L 657.600502 -258.040308 
L 655.514823 -258.941812 
L 653.692672 -259.843316 
L 652.185829 -260.744821 
L 651.036643 -261.646325 
L 650.275681 -262.547829 
L 649.92 -263.449333 
L 649.972162 -264.350837 
L 650.420071 -265.252341 
L 651.237648 -266.153845 
L 652.386287 -267.055349 
L 653.816998 -267.956853 
L 655.473073 -268.858357 
L 657.293101 -269.759862 
L 659.214132 -270.661366 
L 661.174784 -271.56287 
L 663.118101 -272.464374 
L 664.994014 -273.365878 
L 666.761256 -274.267382 
L 668.388664 -275.168886 
L 669.855813 -276.07039 
L 671.152994 -276.971894 
L 672.280584 -277.873398 
L 673.247889 -278.774903 
L 674.071567 -279.676407 
L 674.773777 -280.577911 
L 675.380178 -281.479415 
L 675.917925 -282.380919 
L 676.413785 -283.282423 
L 676.892476 -284.183927 
L 677.375318 -285.085431 
L 677.879244 -285.986935 
L 678.416197 -286.888439 
L 678.992906 -287.789944 
L 679.611015 -288.691448 
L 680.26752 -289.592952 
L 680.955434 -290.494456 
L 681.664635 -291.39596 
L 682.382794 -292.297464 
L 683.096331 -293.198968 
L 683.791332 -294.100472 
L 684.454363 -295.001976 
L 685.073167 -295.90348 
L 685.637198 -296.804985 
L 686.138006 -297.706489 
L 686.569467 -298.607993 
L 686.927872 -299.509497 
L 687.211917 -300.411001 
L 687.422592 -301.312505 
L 687.563011 -302.214009 
L 687.638205 -303.115513 
L 687.654869 -304.017017 
L 687.621101 -304.918521 
L 687.546115 -305.820026 
L 687.439926 -306.72153 
L 687.313024 -307.623034 
L 687.17602 -308.524538 
L 687.039274 -309.426042 
L 686.912517 -310.327546 
L 686.804486 -311.22905 
L 686.722582 -312.130554 
L 686.672587 -313.032058 
L 686.658457 -313.933562 
L 686.682204 -314.835067 
L 686.743894 -315.736571 
L 686.841746 -316.638075 
L 686.972346 -317.539579 
L 687.130937 -318.441083 
L 687.311785 -319.342587 
L 687.508575 -320.244091 
L 687.714807 -321.145595 
L 687.924176 -322.047099 
L 688.130889 -322.948604 
L 688.329922 -323.850108 
L 688.517188 -324.751612 
L 688.689623 -325.653116 
L 688.845197 -326.55462 
L 688.982851 -327.456124 
L 689.102391 -328.357628 
L 689.204333 -329.259132 
L 689.995667 -329.259132 
L 689.995667 -329.259132 
L 690.097609 -328.357628 
L 690.217149 -327.456124 
L 690.354803 -326.55462 
L 690.510377 -325.653116 
L 690.682812 -324.751612 
L 690.870078 -323.850108 
L 691.069111 -322.948604 
L 691.275824 -322.047099 
L 691.485193 -321.145595 
L 691.691425 -320.244091 
L 691.888215 -319.342587 
L 692.069063 -318.441083 
L 692.227654 -317.539579 
L 692.358254 -316.638075 
L 692.456106 -315.736571 
L 692.517796 -314.835067 
L 692.541543 -313.933562 
L 692.527413 -313.032058 
L 692.477418 -312.130554 
L 692.395514 -311.22905 
L 692.287483 -310.327546 
L 692.160726 -309.426042 
L 692.02398 -308.524538 
L 691.886976 -307.623034 
L 691.760074 -306.72153 
L 691.653885 -305.820026 
L 691.578899 -304.918521 
L 691.545131 -304.017017 
L 691.561795 -303.115513 
L 691.636989 -302.214009 
L 691.777408 -301.312505 
L 691.988083 -300.411001 
L 692.272128 -299.509497 
L 692.630533 -298.607993 
L 693.061994 -297.706489 
L 693.562802 -296.804985 
L 694.126833 -295.90348 
L 694.745637 -295.001976 
L 695.408668 -294.100472 
L 696.103669 -293.198968 
L 696.817206 -292.297464 
L 697.535365 -291.39596 
L 698.244566 -290.494456 
L 698.93248 -289.592952 
L 699.588985 -288.691448 
L 700.207094 -287.789944 
L 700.783803 -286.888439 
L 701.320756 -285.986935 
L 701.824682 -285.085431 
L 702.307524 -284.183927 
L 702.786215 -283.282423 
L 703.282075 -282.380919 
L 703.819822 -281.479415 
L 704.426223 -280.577911 
L 705.128433 -279.676407 
L 705.952111 -278.774903 
L 706.919416 -277.873398 
L 708.047006 -276.971894 
L 709.344187 -276.07039 
L 710.811336 -275.168886 
L 712.438744 -274.267382 
L 714.205986 -273.365878 
L 716.081899 -272.464374 
L 718.025216 -271.56287 
L 719.985868 -270.661366 
L 721.906899 -269.759862 
L 723.726927 -268.858357 
L 725.383002 -267.956853 
L 726.813713 -267.055349 
L 727.962352 -266.153845 
L 728.779929 -265.252341 
L 729.227838 -264.350837 
L 729.28 -263.449333 
L 728.924319 -262.547829 
L 728.163357 -261.646325 
L 727.014171 -260.744821 
L 725.507328 -259.843316 
L 723.685177 -258.941812 
L 721.599498 -258.040308 
L 719.308718 -257.138804 
L 716.874884 -256.2373 
L 714.360625 -255.335796 
L 711.82629 -254.434292 
L 709.32745 -253.532788 
L 706.912906 -252.631284 
L 704.623264 -251.72978 
L 702.490143 -250.828275 
L 700.535961 -249.926771 
L 698.774258 -249.025267 
L 697.210454 -248.123763 
L 695.842919 -247.222259 
L 694.664246 -246.320755 
L 693.662601 -245.419251 
L 692.823052 -244.517747 
L 692.128796 -243.616243 
L 691.562238 -242.714738 
L 691.105863 -241.813234 
L 690.742923 -240.91173 
L 690.457915 -240.010226 
z
" id="md19b94b51a" style="stroke:#484848;stroke-width:1.5;"/>
    </defs>
    <g clip-path="url(#p1534683f3a)">
     <use style="fill:#dee9a4;stroke:#484848;stroke-width:1.5;" x="0" xlink:href="#md19b94b51a" y="720"/>
    </g>
   </g>
   <g id="PolyCollection_6">
    <defs>
     <path d="M 791.005314 -229.093028 
L 786.594686 -229.093028 
L 786.071324 -230.149181 
L 785.460583 -231.205335 
L 784.757376 -232.261488 
L 783.958587 -233.317641 
L 783.063528 -234.373795 
L 782.074325 -235.429948 
L 780.996196 -236.486101 
L 779.837581 -237.542255 
L 778.610101 -238.598408 
L 777.32833 -239.654562 
L 776.009387 -240.710715 
L 774.672352 -241.766868 
L 773.337556 -242.823022 
L 772.02578 -243.879175 
L 770.75743 -244.935328 
L 769.55174 -245.991482 
L 768.426075 -247.047635 
L 767.395377 -248.103788 
L 766.471788 -249.159942 
L 765.664474 -250.216095 
L 764.979639 -251.272248 
L 764.420711 -252.328402 
L 763.988662 -253.384555 
L 763.682397 -254.440709 
L 763.499179 -255.496862 
L 763.435023 -256.553015 
L 763.485014 -257.609169 
L 763.643543 -258.665322 
L 763.904422 -259.721475 
L 764.260905 -260.777629 
L 764.705637 -261.833782 
L 765.230549 -262.889935 
L 765.826759 -263.946089 
L 766.484503 -265.002242 
L 767.193134 -266.058395 
L 767.941216 -267.114549 
L 768.716719 -268.170702 
L 769.507314 -269.226856 
L 770.300753 -270.283009 
L 771.085308 -271.339162 
L 771.850235 -272.395316 
L 772.586222 -273.451469 
L 773.285796 -274.507622 
L 773.943637 -275.563776 
L 774.556789 -276.619929 
L 775.124738 -277.676082 
L 775.649346 -278.732236 
L 776.134652 -279.788389 
L 776.586536 -280.844542 
L 777.012274 -281.900696 
L 777.420009 -282.956849 
L 777.818172 -284.013003 
L 778.214891 -285.069156 
L 778.61743 -286.125309 
L 779.031684 -287.181463 
L 779.461789 -288.237616 
L 779.909843 -289.293769 
L 780.375787 -290.349923 
L 780.857425 -291.406076 
L 781.350597 -292.462229 
L 781.849489 -293.518383 
L 782.347045 -294.574536 
L 782.835454 -295.63069 
L 783.306681 -296.686843 
L 783.752993 -297.742996 
L 784.167453 -298.79915 
L 784.544341 -299.855303 
L 784.879482 -300.911456 
L 785.170463 -301.96761 
L 785.416728 -303.023763 
L 785.619556 -304.079916 
L 785.781919 -305.13607 
L 785.908252 -306.192223 
L 786.004146 -307.248376 
L 786.075986 -308.30453 
L 786.130564 -309.360683 
L 786.174701 -310.416837 
L 786.214878 -311.47299 
L 786.256924 -312.529143 
L 786.305766 -313.585297 
L 786.365238 -314.64145 
L 786.437985 -315.697603 
L 786.525435 -316.753757 
L 786.627848 -317.80991 
L 786.744424 -318.866063 
L 786.873474 -319.922217 
L 787.01261 -320.97837 
L 787.158967 -322.034523 
L 787.309421 -323.090677 
L 787.460799 -324.14683 
L 787.610064 -325.202984 
L 787.754463 -326.259137 
L 787.891646 -327.31529 
L 788.019733 -328.371444 
L 788.137353 -329.427597 
L 788.24364 -330.48375 
L 788.338202 -331.539904 
L 788.421067 -332.596057 
L 788.492618 -333.65221 
L 789.107382 -333.65221 
L 789.107382 -333.65221 
L 789.178933 -332.596057 
L 789.261798 -331.539904 
L 789.35636 -330.48375 
L 789.462647 -329.427597 
L 789.580267 -328.371444 
L 789.708354 -327.31529 
L 789.845537 -326.259137 
L 789.989936 -325.202984 
L 790.139201 -324.14683 
L 790.290579 -323.090677 
L 790.441033 -322.034523 
L 790.58739 -320.97837 
L 790.726526 -319.922217 
L 790.855576 -318.866063 
L 790.972152 -317.80991 
L 791.074565 -316.753757 
L 791.162015 -315.697603 
L 791.234762 -314.64145 
L 791.294234 -313.585297 
L 791.343076 -312.529143 
L 791.385122 -311.47299 
L 791.425299 -310.416837 
L 791.469436 -309.360683 
L 791.524014 -308.30453 
L 791.595854 -307.248376 
L 791.691748 -306.192223 
L 791.818081 -305.13607 
L 791.980444 -304.079916 
L 792.183272 -303.023763 
L 792.429537 -301.96761 
L 792.720518 -300.911456 
L 793.055659 -299.855303 
L 793.432547 -298.79915 
L 793.847007 -297.742996 
L 794.293319 -296.686843 
L 794.764546 -295.63069 
L 795.252955 -294.574536 
L 795.750511 -293.518383 
L 796.249403 -292.462229 
L 796.742575 -291.406076 
L 797.224213 -290.349923 
L 797.690157 -289.293769 
L 798.138211 -288.237616 
L 798.568316 -287.181463 
L 798.98257 -286.125309 
L 799.385109 -285.069156 
L 799.781828 -284.013003 
L 800.179991 -282.956849 
L 800.587726 -281.900696 
L 801.013464 -280.844542 
L 801.465348 -279.788389 
L 801.950654 -278.732236 
L 802.475262 -277.676082 
L 803.043211 -276.619929 
L 803.656363 -275.563776 
L 804.314204 -274.507622 
L 805.013778 -273.451469 
L 805.749765 -272.395316 
L 806.514692 -271.339162 
L 807.299247 -270.283009 
L 808.092686 -269.226856 
L 808.883281 -268.170702 
L 809.658784 -267.114549 
L 810.406866 -266.058395 
L 811.115497 -265.002242 
L 811.773241 -263.946089 
L 812.369451 -262.889935 
L 812.894363 -261.833782 
L 813.339095 -260.777629 
L 813.695578 -259.721475 
L 813.956457 -258.665322 
L 814.114986 -257.609169 
L 814.164977 -256.553015 
L 814.100821 -255.496862 
L 813.917603 -254.440709 
L 813.611338 -253.384555 
L 813.179289 -252.328402 
L 812.620361 -251.272248 
L 811.935526 -250.216095 
L 811.128212 -249.159942 
L 810.204623 -248.103788 
L 809.173925 -247.047635 
L 808.04826 -245.991482 
L 806.84257 -244.935328 
L 805.57422 -243.879175 
L 804.262444 -242.823022 
L 802.927648 -241.766868 
L 801.590613 -240.710715 
L 800.27167 -239.654562 
L 798.989899 -238.598408 
L 797.762419 -237.542255 
L 796.603804 -236.486101 
L 795.525675 -235.429948 
L 794.536472 -234.373795 
L 793.641413 -233.317641 
L 792.842624 -232.261488 
L 792.139417 -231.205335 
L 791.528676 -230.149181 
L 791.005314 -229.093028 
z
" id="mf84bf1690e" style="stroke:#484848;stroke-width:1.5;"/>
    </defs>
    <g clip-path="url(#p1534683f3a)">
     <use style="fill:#afd5ab;stroke:#484848;stroke-width:1.5;" x="0" xlink:href="#mf84bf1690e" y="720"/>
    </g>
   </g>
   <g id="matplotlib.axis_1">
    <g id="xtick_1">
     <g id="line2d_1">
      <defs>
       <path d="M 0 0 
L 0 3.5 
" id="m41a5d15fd9" style="stroke:#000000;stroke-width:0.8;"/>
      </defs>
      <g>
       <use style="stroke:#000000;stroke-width:0.8;" x="193.6" xlink:href="#m41a5d15fd9" y="640.8"/>
      </g>
     </g>
     <g id="text_1">
      <!-- Player1_healthy -->
      <g transform="translate(153.572656 655.398438)scale(0.1 -0.1)">
       <defs>
        <path d="M 1259 4147 
L 1259 2394 
L 2053 2394 
Q 2494 2394 2734 2622 
Q 2975 2850 2975 3272 
Q 2975 3691 2734 3919 
Q 2494 4147 2053 4147 
L 1259 4147 
z
M 628 4666 
L 2053 4666 
Q 2838 4666 3239 4311 
Q 3641 3956 3641 3272 
Q 3641 2581 3239 2228 
Q 2838 1875 2053 1875 
L 1259 1875 
L 1259 0 
L 628 0 
L 628 4666 
z
" id="DejaVuSans-50" transform="scale(0.015625)"/>
        <path d="M 603 4863 
L 1178 4863 
L 1178 0 
L 603 0 
L 603 4863 
z
" id="DejaVuSans-6c" transform="scale(0.015625)"/>
        <path d="M 2194 1759 
Q 1497 1759 1228 1600 
Q 959 1441 959 1056 
Q 959 750 1161 570 
Q 1363 391 1709 391 
Q 2188 391 2477 730 
Q 2766 1069 2766 1631 
L 2766 1759 
L 2194 1759 
z
M 3341 1997 
L 3341 0 
L 2766 0 
L 2766 531 
Q 2569 213 2275 61 
Q 1981 -91 1556 -91 
Q 1019 -91 701 211 
Q 384 513 384 1019 
Q 384 1609 779 1909 
Q 1175 2209 1959 2209 
L 2766 2209 
L 2766 2266 
Q 2766 2663 2505 2880 
Q 2244 3097 1772 3097 
Q 1472 3097 1187 3025 
Q 903 2953 641 2809 
L 641 3341 
Q 956 3463 1253 3523 
Q 1550 3584 1831 3584 
Q 2591 3584 2966 3190 
Q 3341 2797 3341 1997 
z
" id="DejaVuSans-61" transform="scale(0.015625)"/>
        <path d="M 2059 -325 
Q 1816 -950 1584 -1140 
Q 1353 -1331 966 -1331 
L 506 -1331 
L 506 -850 
L 844 -850 
Q 1081 -850 1212 -737 
Q 1344 -625 1503 -206 
L 1606 56 
L 191 3500 
L 800 3500 
L 1894 763 
L 2988 3500 
L 3597 3500 
L 2059 -325 
z
" id="DejaVuSans-79" transform="scale(0.015625)"/>
        <path d="M 3597 1894 
L 3597 1613 
L 953 1613 
Q 991 1019 1311 708 
Q 1631 397 2203 397 
Q 2534 397 2845 478 
Q 3156 559 3463 722 
L 3463 178 
Q 3153 47 2828 -22 
Q 2503 -91 2169 -91 
Q 1331 -91 842 396 
Q 353 884 353 1716 
Q 353 2575 817 3079 
Q 1281 3584 2069 3584 
Q 2775 3584 3186 3129 
Q 3597 2675 3597 1894 
z
M 3022 2063 
Q 3016 2534 2758 2815 
Q 2500 3097 2075 3097 
Q 1594 3097 1305 2825 
Q 1016 2553 972 2059 
L 3022 2063 
z
" id="DejaVuSans-65" transform="scale(0.015625)"/>
        <path d="M 2631 2963 
Q 2534 3019 2420 3045 
Q 2306 3072 2169 3072 
Q 1681 3072 1420 2755 
Q 1159 2438 1159 1844 
L 1159 0 
L 581 0 
L 581 3500 
L 1159 3500 
L 1159 2956 
Q 1341 3275 1631 3429 
Q 1922 3584 2338 3584 
Q 2397 3584 2469 3576 
Q 2541 3569 2628 3553 
L 2631 2963 
z
" id="DejaVuSans-72" transform="scale(0.015625)"/>
        <path d="M 794 531 
L 1825 531 
L 1825 4091 
L 703 3866 
L 703 4441 
L 1819 4666 
L 2450 4666 
L 2450 531 
L 3481 531 
L 3481 0 
L 794 0 
L 794 531 
z
" id="DejaVuSans-31" transform="scale(0.015625)"/>
        <path d="M 3263 -1063 
L 3263 -1509 
L -63 -1509 
L -63 -1063 
L 3263 -1063 
z
" id="DejaVuSans-5f" transform="scale(0.015625)"/>
        <path d="M 3513 2113 
L 3513 0 
L 2938 0 
L 2938 2094 
Q 2938 2591 2744 2837 
Q 2550 3084 2163 3084 
Q 1697 3084 1428 2787 
Q 1159 2491 1159 1978 
L 1159 0 
L 581 0 
L 581 4863 
L 1159 4863 
L 1159 2956 
Q 1366 3272 1645 3428 
Q 1925 3584 2291 3584 
Q 2894 3584 3203 3211 
Q 3513 2838 3513 2113 
z
" id="DejaVuSans-68" transform="scale(0.015625)"/>
        <path d="M 1172 4494 
L 1172 3500 
L 2356 3500 
L 2356 3053 
L 1172 3053 
L 1172 1153 
Q 1172 725 1289 603 
Q 1406 481 1766 481 
L 2356 481 
L 2356 0 
L 1766 0 
Q 1100 0 847 248 
Q 594 497 594 1153 
L 594 3053 
L 172 3053 
L 172 3500 
L 594 3500 
L 594 4494 
L 1172 4494 
z
" id="DejaVuSans-74" transform="scale(0.015625)"/>
       </defs>
       <use xlink:href="#DejaVuSans-50"/>
       <use x="60.302734" xlink:href="#DejaVuSans-6c"/>
       <use x="88.085938" xlink:href="#DejaVuSans-61"/>
       <use x="149.365234" xlink:href="#DejaVuSans-79"/>
       <use x="208.544922" xlink:href="#DejaVuSans-65"/>
       <use x="270.068359" xlink:href="#DejaVuSans-72"/>
       <use x="311.181641" xlink:href="#DejaVuSans-31"/>
       <use x="374.804688" xlink:href="#DejaVuSans-5f"/>
       <use x="424.804688" xlink:href="#DejaVuSans-68"/>
       <use x="488.183594" xlink:href="#DejaVuSans-65"/>
       <use x="549.707031" xlink:href="#DejaVuSans-61"/>
       <use x="610.986328" xlink:href="#DejaVuSans-6c"/>
       <use x="638.769531" xlink:href="#DejaVuSans-74"/>
       <use x="677.978516" xlink:href="#DejaVuSans-68"/>
       <use x="741.357422" xlink:href="#DejaVuSans-79"/>
      </g>
     </g>
    </g>
    <g id="xtick_2">
     <g id="line2d_2">
      <g>
       <use style="stroke:#000000;stroke-width:0.8;" x="292.8" xlink:href="#m41a5d15fd9" y="640.8"/>
      </g>
     </g>
     <g id="text_2">
      <!-- biased_A -->
      <g transform="translate(270.396875 655.398438)scale(0.1 -0.1)">
       <defs>
        <path d="M 3116 1747 
Q 3116 2381 2855 2742 
Q 2594 3103 2138 3103 
Q 1681 3103 1420 2742 
Q 1159 2381 1159 1747 
Q 1159 1113 1420 752 
Q 1681 391 2138 391 
Q 2594 391 2855 752 
Q 3116 1113 3116 1747 
z
M 1159 2969 
Q 1341 3281 1617 3432 
Q 1894 3584 2278 3584 
Q 2916 3584 3314 3078 
Q 3713 2572 3713 1747 
Q 3713 922 3314 415 
Q 2916 -91 2278 -91 
Q 1894 -91 1617 61 
Q 1341 213 1159 525 
L 1159 0 
L 581 0 
L 581 4863 
L 1159 4863 
L 1159 2969 
z
" id="DejaVuSans-62" transform="scale(0.015625)"/>
        <path d="M 603 3500 
L 1178 3500 
L 1178 0 
L 603 0 
L 603 3500 
z
M 603 4863 
L 1178 4863 
L 1178 4134 
L 603 4134 
L 603 4863 
z
" id="DejaVuSans-69" transform="scale(0.015625)"/>
        <path d="M 2834 3397 
L 2834 2853 
Q 2591 2978 2328 3040 
Q 2066 3103 1784 3103 
Q 1356 3103 1142 2972 
Q 928 2841 928 2578 
Q 928 2378 1081 2264 
Q 1234 2150 1697 2047 
L 1894 2003 
Q 2506 1872 2764 1633 
Q 3022 1394 3022 966 
Q 3022 478 2636 193 
Q 2250 -91 1575 -91 
Q 1294 -91 989 -36 
Q 684 19 347 128 
L 347 722 
Q 666 556 975 473 
Q 1284 391 1588 391 
Q 1994 391 2212 530 
Q 2431 669 2431 922 
Q 2431 1156 2273 1281 
Q 2116 1406 1581 1522 
L 1381 1569 
Q 847 1681 609 1914 
Q 372 2147 372 2553 
Q 372 3047 722 3315 
Q 1072 3584 1716 3584 
Q 2034 3584 2315 3537 
Q 2597 3491 2834 3397 
z
" id="DejaVuSans-73" transform="scale(0.015625)"/>
        <path d="M 2906 2969 
L 2906 4863 
L 3481 4863 
L 3481 0 
L 2906 0 
L 2906 525 
Q 2725 213 2448 61 
Q 2172 -91 1784 -91 
Q 1150 -91 751 415 
Q 353 922 353 1747 
Q 353 2572 751 3078 
Q 1150 3584 1784 3584 
Q 2172 3584 2448 3432 
Q 2725 3281 2906 2969 
z
M 947 1747 
Q 947 1113 1208 752 
Q 1469 391 1925 391 
Q 2381 391 2643 752 
Q 2906 1113 2906 1747 
Q 2906 2381 2643 2742 
Q 2381 3103 1925 3103 
Q 1469 3103 1208 2742 
Q 947 2381 947 1747 
z
" id="DejaVuSans-64" transform="scale(0.015625)"/>
        <path d="M 2188 4044 
L 1331 1722 
L 3047 1722 
L 2188 4044 
z
M 1831 4666 
L 2547 4666 
L 4325 0 
L 3669 0 
L 3244 1197 
L 1141 1197 
L 716 0 
L 50 0 
L 1831 4666 
z
" id="DejaVuSans-41" transform="scale(0.015625)"/>
       </defs>
       <use xlink:href="#DejaVuSans-62"/>
       <use x="63.476562" xlink:href="#DejaVuSans-69"/>
       <use x="91.259766" xlink:href="#DejaVuSans-61"/>
       <use x="152.539062" xlink:href="#DejaVuSans-73"/>
       <use x="204.638672" xlink:href="#DejaVuSans-65"/>
       <use x="266.162109" xlink:href="#DejaVuSans-64"/>
       <use x="329.638672" xlink:href="#DejaVuSans-5f"/>
       <use x="379.638672" xlink:href="#DejaVuSans-41"/>
      </g>
     </g>
    </g>
    <g id="xtick_3">
     <g id="line2d_3">
      <g>
       <use style="stroke:#000000;stroke-width:0.8;" x="392" xlink:href="#m41a5d15fd9" y="640.8"/>
      </g>
     </g>
     <g id="text_3">
      <!-- biased_B -->
      <g transform="translate(369.586719 655.398438)scale(0.1 -0.1)">
       <defs>
        <path d="M 1259 2228 
L 1259 519 
L 2272 519 
Q 2781 519 3026 730 
Q 3272 941 3272 1375 
Q 3272 1813 3026 2020 
Q 2781 2228 2272 2228 
L 1259 2228 
z
M 1259 4147 
L 1259 2741 
L 2194 2741 
Q 2656 2741 2882 2914 
Q 3109 3088 3109 3444 
Q 3109 3797 2882 3972 
Q 2656 4147 2194 4147 
L 1259 4147 
z
M 628 4666 
L 2241 4666 
Q 2963 4666 3353 4366 
Q 3744 4066 3744 3513 
Q 3744 3084 3544 2831 
Q 3344 2578 2956 2516 
Q 3422 2416 3680 2098 
Q 3938 1781 3938 1306 
Q 3938 681 3513 340 
Q 3088 0 2303 0 
L 628 0 
L 628 4666 
z
" id="DejaVuSans-42" transform="scale(0.015625)"/>
       </defs>
       <use xlink:href="#DejaVuSans-62"/>
       <use x="63.476562" xlink:href="#DejaVuSans-69"/>
       <use x="91.259766" xlink:href="#DejaVuSans-61"/>
       <use x="152.539062" xlink:href="#DejaVuSans-73"/>
       <use x="204.638672" xlink:href="#DejaVuSans-65"/>
       <use x="266.162109" xlink:href="#DejaVuSans-64"/>
       <use x="329.638672" xlink:href="#DejaVuSans-5f"/>
       <use x="379.638672" xlink:href="#DejaVuSans-42"/>
      </g>
     </g>
    </g>
    <g id="xtick_4">
     <g id="line2d_4">
      <g>
       <use style="stroke:#000000;stroke-width:0.8;" x="491.2" xlink:href="#m41a5d15fd9" y="640.8"/>
      </g>
     </g>
     <g id="text_4">
      <!-- biased_C -->
      <g transform="translate(468.725781 655.398438)scale(0.1 -0.1)">
       <defs>
        <path d="M 4122 4306 
L 4122 3641 
Q 3803 3938 3442 4084 
Q 3081 4231 2675 4231 
Q 1875 4231 1450 3742 
Q 1025 3253 1025 2328 
Q 1025 1406 1450 917 
Q 1875 428 2675 428 
Q 3081 428 3442 575 
Q 3803 722 4122 1019 
L 4122 359 
Q 3791 134 3420 21 
Q 3050 -91 2638 -91 
Q 1578 -91 968 557 
Q 359 1206 359 2328 
Q 359 3453 968 4101 
Q 1578 4750 2638 4750 
Q 3056 4750 3426 4639 
Q 3797 4528 4122 4306 
z
" id="DejaVuSans-43" transform="scale(0.015625)"/>
       </defs>
       <use xlink:href="#DejaVuSans-62"/>
       <use x="63.476562" xlink:href="#DejaVuSans-69"/>
       <use x="91.259766" xlink:href="#DejaVuSans-61"/>
       <use x="152.539062" xlink:href="#DejaVuSans-73"/>
       <use x="204.638672" xlink:href="#DejaVuSans-65"/>
       <use x="266.162109" xlink:href="#DejaVuSans-64"/>
       <use x="329.638672" xlink:href="#DejaVuSans-5f"/>
       <use x="379.638672" xlink:href="#DejaVuSans-43"/>
      </g>
     </g>
    </g>
    <g id="xtick_5">
     <g id="line2d_5">
      <g>
       <use style="stroke:#000000;stroke-width:0.8;" x="590.4" xlink:href="#m41a5d15fd9" y="640.8"/>
      </g>
     </g>
     <g id="text_5">
      <!-- biased_D -->
      <g transform="translate(567.567187 655.398438)scale(0.1 -0.1)">
       <defs>
        <path d="M 1259 4147 
L 1259 519 
L 2022 519 
Q 2988 519 3436 956 
Q 3884 1394 3884 2338 
Q 3884 3275 3436 3711 
Q 2988 4147 2022 4147 
L 1259 4147 
z
M 628 4666 
L 1925 4666 
Q 3281 4666 3915 4102 
Q 4550 3538 4550 2338 
Q 4550 1131 3912 565 
Q 3275 0 1925 0 
L 628 0 
L 628 4666 
z
" id="DejaVuSans-44" transform="scale(0.015625)"/>
       </defs>
       <use xlink:href="#DejaVuSans-62"/>
       <use x="63.476562" xlink:href="#DejaVuSans-69"/>
       <use x="91.259766" xlink:href="#DejaVuSans-61"/>
       <use x="152.539062" xlink:href="#DejaVuSans-73"/>
       <use x="204.638672" xlink:href="#DejaVuSans-65"/>
       <use x="266.162109" xlink:href="#DejaVuSans-64"/>
       <use x="329.638672" xlink:href="#DejaVuSans-5f"/>
       <use x="379.638672" xlink:href="#DejaVuSans-44"/>
      </g>
     </g>
    </g>
    <g id="xtick_6">
     <g id="line2d_6">
      <g>
       <use style="stroke:#000000;stroke-width:0.8;" x="689.6" xlink:href="#m41a5d15fd9" y="640.8"/>
      </g>
     </g>
     <g id="text_6">
      <!-- Type1_depressed -->
      <g transform="translate(646.53125 655.398438)scale(0.1 -0.1)">
       <defs>
        <path d="M -19 4666 
L 3928 4666 
L 3928 4134 
L 2272 4134 
L 2272 0 
L 1638 0 
L 1638 4134 
L -19 4134 
L -19 4666 
z
" id="DejaVuSans-54" transform="scale(0.015625)"/>
        <path d="M 1159 525 
L 1159 -1331 
L 581 -1331 
L 581 3500 
L 1159 3500 
L 1159 2969 
Q 1341 3281 1617 3432 
Q 1894 3584 2278 3584 
Q 2916 3584 3314 3078 
Q 3713 2572 3713 1747 
Q 3713 922 3314 415 
Q 2916 -91 2278 -91 
Q 1894 -91 1617 61 
Q 1341 213 1159 525 
z
M 3116 1747 
Q 3116 2381 2855 2742 
Q 2594 3103 2138 3103 
Q 1681 3103 1420 2742 
Q 1159 2381 1159 1747 
Q 1159 1113 1420 752 
Q 1681 391 2138 391 
Q 2594 391 2855 752 
Q 3116 1113 3116 1747 
z
" id="DejaVuSans-70" transform="scale(0.015625)"/>
       </defs>
       <use xlink:href="#DejaVuSans-54"/>
       <use x="45.458984" xlink:href="#DejaVuSans-79"/>
       <use x="104.638672" xlink:href="#DejaVuSans-70"/>
       <use x="168.115234" xlink:href="#DejaVuSans-65"/>
       <use x="229.638672" xlink:href="#DejaVuSans-31"/>
       <use x="293.261719" xlink:href="#DejaVuSans-5f"/>
       <use x="343.261719" xlink:href="#DejaVuSans-64"/>
       <use x="406.738281" xlink:href="#DejaVuSans-65"/>
       <use x="468.261719" xlink:href="#DejaVuSans-70"/>
       <use x="531.738281" xlink:href="#DejaVuSans-72"/>
       <use x="570.601562" xlink:href="#DejaVuSans-65"/>
       <use x="632.125" xlink:href="#DejaVuSans-73"/>
       <use x="684.224609" xlink:href="#DejaVuSans-73"/>
       <use x="736.324219" xlink:href="#DejaVuSans-65"/>
       <use x="797.847656" xlink:href="#DejaVuSans-64"/>
      </g>
     </g>
    </g>
    <g id="xtick_7">
     <g id="line2d_7">
      <g>
       <use style="stroke:#000000;stroke-width:0.8;" x="788.8" xlink:href="#m41a5d15fd9" y="640.8"/>
      </g>
     </g>
     <g id="text_7">
      <!-- Type2_depressed -->
      <g transform="translate(745.73125 655.398438)scale(0.1 -0.1)">
       <defs>
        <path d="M 1228 531 
L 3431 531 
L 3431 0 
L 469 0 
L 469 531 
Q 828 903 1448 1529 
Q 2069 2156 2228 2338 
Q 2531 2678 2651 2914 
Q 2772 3150 2772 3378 
Q 2772 3750 2511 3984 
Q 2250 4219 1831 4219 
Q 1534 4219 1204 4116 
Q 875 4013 500 3803 
L 500 4441 
Q 881 4594 1212 4672 
Q 1544 4750 1819 4750 
Q 2544 4750 2975 4387 
Q 3406 4025 3406 3419 
Q 3406 3131 3298 2873 
Q 3191 2616 2906 2266 
Q 2828 2175 2409 1742 
Q 1991 1309 1228 531 
z
" id="DejaVuSans-32" transform="scale(0.015625)"/>
       </defs>
       <use xlink:href="#DejaVuSans-54"/>
       <use x="45.458984" xlink:href="#DejaVuSans-79"/>
       <use x="104.638672" xlink:href="#DejaVuSans-70"/>
       <use x="168.115234" xlink:href="#DejaVuSans-65"/>
       <use x="229.638672" xlink:href="#DejaVuSans-32"/>
       <use x="293.261719" xlink:href="#DejaVuSans-5f"/>
       <use x="343.261719" xlink:href="#DejaVuSans-64"/>
       <use x="406.738281" xlink:href="#DejaVuSans-65"/>
       <use x="468.261719" xlink:href="#DejaVuSans-70"/>
       <use x="531.738281" xlink:href="#DejaVuSans-72"/>
       <use x="570.601562" xlink:href="#DejaVuSans-65"/>
       <use x="632.125" xlink:href="#DejaVuSans-73"/>
       <use x="684.224609" xlink:href="#DejaVuSans-73"/>
       <use x="736.324219" xlink:href="#DejaVuSans-65"/>
       <use x="797.847656" xlink:href="#DejaVuSans-64"/>
      </g>
     </g>
    </g>
    <g id="xtick_8">
     <g id="line2d_8">
      <g>
       <use style="stroke:#000000;stroke-width:0.8;" x="888" xlink:href="#m41a5d15fd9" y="640.8"/>
      </g>
     </g>
     <g id="text_8">
      <!-- Type1_social_phobia -->
      <g transform="translate(837.050781 655.398438)scale(0.1 -0.1)">
       <defs>
        <path d="M 1959 3097 
Q 1497 3097 1228 2736 
Q 959 2375 959 1747 
Q 959 1119 1226 758 
Q 1494 397 1959 397 
Q 2419 397 2687 759 
Q 2956 1122 2956 1747 
Q 2956 2369 2687 2733 
Q 2419 3097 1959 3097 
z
M 1959 3584 
Q 2709 3584 3137 3096 
Q 3566 2609 3566 1747 
Q 3566 888 3137 398 
Q 2709 -91 1959 -91 
Q 1206 -91 779 398 
Q 353 888 353 1747 
Q 353 2609 779 3096 
Q 1206 3584 1959 3584 
z
" id="DejaVuSans-6f" transform="scale(0.015625)"/>
        <path d="M 3122 3366 
L 3122 2828 
Q 2878 2963 2633 3030 
Q 2388 3097 2138 3097 
Q 1578 3097 1268 2742 
Q 959 2388 959 1747 
Q 959 1106 1268 751 
Q 1578 397 2138 397 
Q 2388 397 2633 464 
Q 2878 531 3122 666 
L 3122 134 
Q 2881 22 2623 -34 
Q 2366 -91 2075 -91 
Q 1284 -91 818 406 
Q 353 903 353 1747 
Q 353 2603 823 3093 
Q 1294 3584 2113 3584 
Q 2378 3584 2631 3529 
Q 2884 3475 3122 3366 
z
" id="DejaVuSans-63" transform="scale(0.015625)"/>
       </defs>
       <use xlink:href="#DejaVuSans-54"/>
       <use x="45.458984" xlink:href="#DejaVuSans-79"/>
       <use x="104.638672" xlink:href="#DejaVuSans-70"/>
       <use x="168.115234" xlink:href="#DejaVuSans-65"/>
       <use x="229.638672" xlink:href="#DejaVuSans-31"/>
       <use x="293.261719" xlink:href="#DejaVuSans-5f"/>
       <use x="343.261719" xlink:href="#DejaVuSans-73"/>
       <use x="395.361328" xlink:href="#DejaVuSans-6f"/>
       <use x="456.542969" xlink:href="#DejaVuSans-63"/>
       <use x="511.523438" xlink:href="#DejaVuSans-69"/>
       <use x="539.306641" xlink:href="#DejaVuSans-61"/>
       <use x="600.585938" xlink:href="#DejaVuSans-6c"/>
       <use x="628.369141" xlink:href="#DejaVuSans-5f"/>
       <use x="678.369141" xlink:href="#DejaVuSans-70"/>
       <use x="741.845703" xlink:href="#DejaVuSans-68"/>
       <use x="805.224609" xlink:href="#DejaVuSans-6f"/>
       <use x="866.40625" xlink:href="#DejaVuSans-62"/>
       <use x="929.882812" xlink:href="#DejaVuSans-69"/>
       <use x="957.666016" xlink:href="#DejaVuSans-61"/>
      </g>
     </g>
    </g>
    <g id="xtick_9">
     <g id="line2d_9">
      <g>
       <use style="stroke:#000000;stroke-width:0.8;" x="987.2" xlink:href="#m41a5d15fd9" y="640.8"/>
      </g>
     </g>
     <g id="text_9">
      <!-- Type2_social_phobia -->
      <g transform="translate(936.250781 655.398438)scale(0.1 -0.1)">
       <use xlink:href="#DejaVuSans-54"/>
       <use x="45.458984" xlink:href="#DejaVuSans-79"/>
       <use x="104.638672" xlink:href="#DejaVuSans-70"/>
       <use x="168.115234" xlink:href="#DejaVuSans-65"/>
       <use x="229.638672" xlink:href="#DejaVuSans-32"/>
       <use x="293.261719" xlink:href="#DejaVuSans-5f"/>
       <use x="343.261719" xlink:href="#DejaVuSans-73"/>
       <use x="395.361328" xlink:href="#DejaVuSans-6f"/>
       <use x="456.542969" xlink:href="#DejaVuSans-63"/>
       <use x="511.523438" xlink:href="#DejaVuSans-69"/>
       <use x="539.306641" xlink:href="#DejaVuSans-61"/>
       <use x="600.585938" xlink:href="#DejaVuSans-6c"/>
       <use x="628.369141" xlink:href="#DejaVuSans-5f"/>
       <use x="678.369141" xlink:href="#DejaVuSans-70"/>
       <use x="741.845703" xlink:href="#DejaVuSans-68"/>
       <use x="805.224609" xlink:href="#DejaVuSans-6f"/>
       <use x="866.40625" xlink:href="#DejaVuSans-62"/>
       <use x="929.882812" xlink:href="#DejaVuSans-69"/>
       <use x="957.666016" xlink:href="#DejaVuSans-61"/>
      </g>
     </g>
    </g>
   </g>
   <g id="matplotlib.axis_2">
    <g id="ytick_1">
     <g id="line2d_10">
      <defs>
       <path d="M 0 0 
L -3.5 0 
" id="m8a782a0fa3" style="stroke:#000000;stroke-width:0.8;"/>
      </defs>
      <g>
       <use style="stroke:#000000;stroke-width:0.8;" x="144" xlink:href="#m8a782a0fa3" y="634.350983"/>
      </g>
     </g>
     <g id="text_10">
      <!-- 5 -->
      <g transform="translate(130.6375 638.150202)scale(0.1 -0.1)">
       <defs>
        <path d="M 691 4666 
L 3169 4666 
L 3169 4134 
L 1269 4134 
L 1269 2991 
Q 1406 3038 1543 3061 
Q 1681 3084 1819 3084 
Q 2600 3084 3056 2656 
Q 3513 2228 3513 1497 
Q 3513 744 3044 326 
Q 2575 -91 1722 -91 
Q 1428 -91 1123 -41 
Q 819 9 494 109 
L 494 744 
Q 775 591 1075 516 
Q 1375 441 1709 441 
Q 2250 441 2565 725 
Q 2881 1009 2881 1497 
Q 2881 1984 2565 2268 
Q 2250 2553 1709 2553 
Q 1456 2553 1204 2497 
Q 953 2441 691 2322 
L 691 4666 
z
" id="DejaVuSans-35" transform="scale(0.015625)"/>
       </defs>
       <use xlink:href="#DejaVuSans-35"/>
      </g>
     </g>
    </g>
    <g id="ytick_2">
     <g id="line2d_11">
      <g>
       <use style="stroke:#000000;stroke-width:0.8;" x="144" xlink:href="#m8a782a0fa3" y="569.109782"/>
      </g>
     </g>
     <g id="text_11">
      <!-- 10 -->
      <g transform="translate(124.275 572.909001)scale(0.1 -0.1)">
       <defs>
        <path d="M 2034 4250 
Q 1547 4250 1301 3770 
Q 1056 3291 1056 2328 
Q 1056 1369 1301 889 
Q 1547 409 2034 409 
Q 2525 409 2770 889 
Q 3016 1369 3016 2328 
Q 3016 3291 2770 3770 
Q 2525 4250 2034 4250 
z
M 2034 4750 
Q 2819 4750 3233 4129 
Q 3647 3509 3647 2328 
Q 3647 1150 3233 529 
Q 2819 -91 2034 -91 
Q 1250 -91 836 529 
Q 422 1150 422 2328 
Q 422 3509 836 4129 
Q 1250 4750 2034 4750 
z
" id="DejaVuSans-30" transform="scale(0.015625)"/>
       </defs>
       <use xlink:href="#DejaVuSans-31"/>
       <use x="63.623047" xlink:href="#DejaVuSans-30"/>
      </g>
     </g>
    </g>
    <g id="ytick_3">
     <g id="line2d_12">
      <g>
       <use style="stroke:#000000;stroke-width:0.8;" x="144" xlink:href="#m8a782a0fa3" y="503.868582"/>
      </g>
     </g>
     <g id="text_12">
      <!-- 15 -->
      <g transform="translate(124.275 507.6678)scale(0.1 -0.1)">
       <use xlink:href="#DejaVuSans-31"/>
       <use x="63.623047" xlink:href="#DejaVuSans-35"/>
      </g>
     </g>
    </g>
    <g id="ytick_4">
     <g id="line2d_13">
      <g>
       <use style="stroke:#000000;stroke-width:0.8;" x="144" xlink:href="#m8a782a0fa3" y="438.627381"/>
      </g>
     </g>
     <g id="text_13">
      <!-- 20 -->
      <g transform="translate(124.275 442.4266)scale(0.1 -0.1)">
       <use xlink:href="#DejaVuSans-32"/>
       <use x="63.623047" xlink:href="#DejaVuSans-30"/>
      </g>
     </g>
    </g>
    <g id="ytick_5">
     <g id="line2d_14">
      <g>
       <use style="stroke:#000000;stroke-width:0.8;" x="144" xlink:href="#m8a782a0fa3" y="373.38618"/>
      </g>
     </g>
     <g id="text_14">
      <!-- 25 -->
      <g transform="translate(124.275 377.185399)scale(0.1 -0.1)">
       <use xlink:href="#DejaVuSans-32"/>
       <use x="63.623047" xlink:href="#DejaVuSans-35"/>
      </g>
     </g>
    </g>
    <g id="ytick_6">
     <g id="line2d_15">
      <g>
       <use style="stroke:#000000;stroke-width:0.8;" x="144" xlink:href="#m8a782a0fa3" y="308.144979"/>
      </g>
     </g>
     <g id="text_15">
      <!-- 30 -->
      <g transform="translate(124.275 311.944198)scale(0.1 -0.1)">
       <defs>
        <path d="M 2597 2516 
Q 3050 2419 3304 2112 
Q 3559 1806 3559 1356 
Q 3559 666 3084 287 
Q 2609 -91 1734 -91 
Q 1441 -91 1130 -33 
Q 819 25 488 141 
L 488 750 
Q 750 597 1062 519 
Q 1375 441 1716 441 
Q 2309 441 2620 675 
Q 2931 909 2931 1356 
Q 2931 1769 2642 2001 
Q 2353 2234 1838 2234 
L 1294 2234 
L 1294 2753 
L 1863 2753 
Q 2328 2753 2575 2939 
Q 2822 3125 2822 3475 
Q 2822 3834 2567 4026 
Q 2313 4219 1838 4219 
Q 1578 4219 1281 4162 
Q 984 4106 628 3988 
L 628 4550 
Q 988 4650 1302 4700 
Q 1616 4750 1894 4750 
Q 2613 4750 3031 4423 
Q 3450 4097 3450 3541 
Q 3450 3153 3228 2886 
Q 3006 2619 2597 2516 
z
" id="DejaVuSans-33" transform="scale(0.015625)"/>
       </defs>
       <use xlink:href="#DejaVuSans-33"/>
       <use x="63.623047" xlink:href="#DejaVuSans-30"/>
      </g>
     </g>
    </g>
    <g id="ytick_7">
     <g id="line2d_16">
      <g>
       <use style="stroke:#000000;stroke-width:0.8;" x="144" xlink:href="#m8a782a0fa3" y="242.903779"/>
      </g>
     </g>
     <g id="text_16">
      <!-- 35 -->
      <g transform="translate(124.275 246.702997)scale(0.1 -0.1)">
       <use xlink:href="#DejaVuSans-33"/>
       <use x="63.623047" xlink:href="#DejaVuSans-35"/>
      </g>
     </g>
    </g>
    <g id="ytick_8">
     <g id="line2d_17">
      <g>
       <use style="stroke:#000000;stroke-width:0.8;" x="144" xlink:href="#m8a782a0fa3" y="177.662578"/>
      </g>
     </g>
     <g id="text_17">
      <!-- 40 -->
      <g transform="translate(124.275 181.461797)scale(0.1 -0.1)">
       <defs>
        <path d="M 2419 4116 
L 825 1625 
L 2419 1625 
L 2419 4116 
z
M 2253 4666 
L 3047 4666 
L 3047 1625 
L 3713 1625 
L 3713 1100 
L 3047 1100 
L 3047 0 
L 2419 0 
L 2419 1100 
L 313 1100 
L 313 1709 
L 2253 4666 
z
" id="DejaVuSans-34" transform="scale(0.015625)"/>
       </defs>
       <use xlink:href="#DejaVuSans-34"/>
       <use x="63.623047" xlink:href="#DejaVuSans-30"/>
      </g>
     </g>
    </g>
    <g id="ytick_9">
     <g id="line2d_18">
      <g>
       <use style="stroke:#000000;stroke-width:0.8;" x="144" xlink:href="#m8a782a0fa3" y="112.421377"/>
      </g>
     </g>
     <g id="text_18">
      <!-- 45 -->
      <g transform="translate(124.275 116.220596)scale(0.1 -0.1)">
       <use xlink:href="#DejaVuSans-34"/>
       <use x="63.623047" xlink:href="#DejaVuSans-35"/>
      </g>
     </g>
    </g>
   </g>
   <g id="line2d_19">
    <path clip-path="url(#p1534683f3a)" d="M 193.6 340.76558 
L 193.6 229.855539 
" style="fill:none;stroke:#484848;stroke-linecap:square;stroke-width:1.5;"/>
   </g>
   <g id="line2d_20">
    <path clip-path="url(#p1534683f3a)" d="M 193.6 330.9794 
L 193.6 269.000259 
" style="fill:none;stroke:#484848;stroke-linecap:square;stroke-width:4.5;"/>
   </g>
   <g id="line2d_21">
    <path clip-path="url(#p1534683f3a)" d="M 292.8 503.868582 
L 292.8 432.103261 
" style="fill:none;stroke:#484848;stroke-linecap:square;stroke-width:1.5;"/>
   </g>
   <g id="line2d_22">
    <path clip-path="url(#p1534683f3a)" d="M 292.8 497.344461 
L 292.8 451.675621 
" style="fill:none;stroke:#484848;stroke-linecap:square;stroke-width:4.5;"/>
   </g>
   <g id="line2d_23">
    <path clip-path="url(#p1534683f3a)" d="M 392 445.151501 
L 392 255.952019 
" style="fill:none;stroke:#484848;stroke-linecap:square;stroke-width:1.5;"/>
   </g>
   <g id="line2d_24">
    <path clip-path="url(#p1534683f3a)" d="M 392 363.6 
L 392 280.417469 
" style="fill:none;stroke:#484848;stroke-linecap:square;stroke-width:4.5;"/>
   </g>
   <g id="line2d_25">
    <path clip-path="url(#p1534683f3a)" d="M 451.52 438.627381 
L 530.88 438.627381 
" style="fill:none;stroke:#484848;stroke-linecap:square;stroke-width:1.5;"/>
   </g>
   <g id="line2d_26">
    <path clip-path="url(#p1534683f3a)" d="M 590.4 497.344461 
L 590.4 229.855539 
" style="fill:none;stroke:#484848;stroke-linecap:square;stroke-width:1.5;"/>
   </g>
   <g id="line2d_27">
    <path clip-path="url(#p1534683f3a)" d="M 590.4 484.296221 
L 590.4 265.738199 
" style="fill:none;stroke:#484848;stroke-linecap:square;stroke-width:4.5;"/>
   </g>
   <g id="line2d_28">
    <path clip-path="url(#p1534683f3a)" d="M 689.6 464.723861 
L 689.6 438.627381 
" style="fill:none;stroke:#484848;stroke-linecap:square;stroke-width:1.5;"/>
   </g>
   <g id="line2d_29">
    <path clip-path="url(#p1534683f3a)" d="M 689.6 458.199741 
L 689.6 448.413561 
" style="fill:none;stroke:#484848;stroke-linecap:square;stroke-width:4.5;"/>
   </g>
   <g id="line2d_30">
    <path clip-path="url(#p1534683f3a)" d="M 788.8 471.247981 
L 788.8 406.00678 
" style="fill:none;stroke:#484848;stroke-linecap:square;stroke-width:1.5;"/>
   </g>
   <g id="line2d_31">
    <path clip-path="url(#p1534683f3a)" d="M 788.8 471.247981 
L 788.8 445.151501 
" style="fill:none;stroke:#484848;stroke-linecap:square;stroke-width:4.5;"/>
   </g>
   <g id="line2d_32">
    <path clip-path="url(#p1534683f3a)" d="M 848.32 438.627381 
L 927.68 438.627381 
" style="fill:none;stroke:#484848;stroke-linecap:square;stroke-width:1.5;"/>
   </g>
   <g id="line2d_33">
    <path clip-path="url(#p1534683f3a)" d="M 947.52 438.627381 
L 1026.88 438.627381 
" style="fill:none;stroke:#484848;stroke-linecap:square;stroke-width:1.5;"/>
   </g>
   <g id="patch_3">
    <path d="M 144 640.8 
L 144 86.4 
" style="fill:none;stroke:#000000;stroke-linecap:square;stroke-linejoin:miter;stroke-width:0.8;"/>
   </g>
   <g id="patch_4">
    <path d="M 1036.8 640.8 
L 1036.8 86.4 
" style="fill:none;stroke:#000000;stroke-linecap:square;stroke-linejoin:miter;stroke-width:0.8;"/>
   </g>
   <g id="patch_5">
    <path d="M 144 640.8 
L 1036.8 640.8 
" style="fill:none;stroke:#000000;stroke-linecap:square;stroke-linejoin:miter;stroke-width:0.8;"/>
   </g>
   <g id="patch_6">
    <path d="M 144 86.4 
L 1036.8 86.4 
" style="fill:none;stroke:#000000;stroke-linecap:square;stroke-linejoin:miter;stroke-width:0.8;"/>
   </g>
   <g id="PathCollection_1">
    <defs>
     <path d="M 0 1.5 
C 0.397805 1.5 0.77937 1.341951 1.06066 1.06066 
C 1.341951 0.77937 1.5 0.397805 1.5 0 
C 1.5 -0.397805 1.341951 -0.77937 1.06066 -1.06066 
C 0.77937 -1.341951 0.397805 -1.5 0 -1.5 
C -0.397805 -1.5 -0.77937 -1.341951 -1.06066 -1.06066 
C -1.341951 -0.77937 -1.5 -0.397805 -1.5 0 
C -1.5 0.397805 -1.341951 0.77937 -1.06066 1.06066 
C -0.77937 1.341951 -0.397805 1.5 0 1.5 
z
" id="m87704c595c" style="stroke:#484848;"/>
    </defs>
    <g clip-path="url(#p1534683f3a)">
     <use style="fill:#ffffff;stroke:#484848;" x="193.6" xlink:href="#m87704c595c" y="282.048499"/>
    </g>
   </g>
   <g id="PathCollection_2">
    <g clip-path="url(#p1534683f3a)">
     <use style="fill:#ffffff;stroke:#484848;" x="292.8" xlink:href="#m87704c595c" y="484.296221"/>
    </g>
   </g>
   <g id="PathCollection_3">
    <g clip-path="url(#p1534683f3a)">
     <use style="fill:#ffffff;stroke:#484848;" x="392" xlink:href="#m87704c595c" y="304.882919"/>
    </g>
   </g>
   <g id="PathCollection_4">
    <g clip-path="url(#p1534683f3a)">
     <use style="fill:#ffffff;stroke:#484848;" x="590.4" xlink:href="#m87704c595c" y="366.86206"/>
    </g>
   </g>
   <g id="PathCollection_5">
    <g clip-path="url(#p1534683f3a)">
     <use style="fill:#ffffff;stroke:#484848;" x="689.6" xlink:href="#m87704c595c" y="454.937681"/>
    </g>
   </g>
   <g id="PathCollection_6">
    <g clip-path="url(#p1534683f3a)">
     <use style="fill:#ffffff;stroke:#484848;" x="788.8" xlink:href="#m87704c595c" y="458.199741"/>
    </g>
   </g>
   <g id="text_19">
    <!-- Rewards earned per agent type - hostile context first -->
    <g transform="translate(259.265234 80.4)scale(0.25 -0.25)">
     <defs>
      <path d="M 2841 2188 
Q 3044 2119 3236 1894 
Q 3428 1669 3622 1275 
L 4263 0 
L 3584 0 
L 2988 1197 
Q 2756 1666 2539 1819 
Q 2322 1972 1947 1972 
L 1259 1972 
L 1259 0 
L 628 0 
L 628 4666 
L 2053 4666 
Q 2853 4666 3247 4331 
Q 3641 3997 3641 3322 
Q 3641 2881 3436 2590 
Q 3231 2300 2841 2188 
z
M 1259 4147 
L 1259 2491 
L 2053 2491 
Q 2509 2491 2742 2702 
Q 2975 2913 2975 3322 
Q 2975 3731 2742 3939 
Q 2509 4147 2053 4147 
L 1259 4147 
z
" id="DejaVuSans-52" transform="scale(0.015625)"/>
      <path d="M 269 3500 
L 844 3500 
L 1563 769 
L 2278 3500 
L 2956 3500 
L 3675 769 
L 4391 3500 
L 4966 3500 
L 4050 0 
L 3372 0 
L 2619 2869 
L 1863 0 
L 1184 0 
L 269 3500 
z
" id="DejaVuSans-77" transform="scale(0.015625)"/>
      <path id="DejaVuSans-20" transform="scale(0.015625)"/>
      <path d="M 3513 2113 
L 3513 0 
L 2938 0 
L 2938 2094 
Q 2938 2591 2744 2837 
Q 2550 3084 2163 3084 
Q 1697 3084 1428 2787 
Q 1159 2491 1159 1978 
L 1159 0 
L 581 0 
L 581 3500 
L 1159 3500 
L 1159 2956 
Q 1366 3272 1645 3428 
Q 1925 3584 2291 3584 
Q 2894 3584 3203 3211 
Q 3513 2838 3513 2113 
z
" id="DejaVuSans-6e" transform="scale(0.015625)"/>
      <path d="M 2906 1791 
Q 2906 2416 2648 2759 
Q 2391 3103 1925 3103 
Q 1463 3103 1205 2759 
Q 947 2416 947 1791 
Q 947 1169 1205 825 
Q 1463 481 1925 481 
Q 2391 481 2648 825 
Q 2906 1169 2906 1791 
z
M 3481 434 
Q 3481 -459 3084 -895 
Q 2688 -1331 1869 -1331 
Q 1566 -1331 1297 -1286 
Q 1028 -1241 775 -1147 
L 775 -588 
Q 1028 -725 1275 -790 
Q 1522 -856 1778 -856 
Q 2344 -856 2625 -561 
Q 2906 -266 2906 331 
L 2906 616 
Q 2728 306 2450 153 
Q 2172 0 1784 0 
Q 1141 0 747 490 
Q 353 981 353 1791 
Q 353 2603 747 3093 
Q 1141 3584 1784 3584 
Q 2172 3584 2450 3431 
Q 2728 3278 2906 2969 
L 2906 3500 
L 3481 3500 
L 3481 434 
z
" id="DejaVuSans-67" transform="scale(0.015625)"/>
      <path d="M 313 2009 
L 1997 2009 
L 1997 1497 
L 313 1497 
L 313 2009 
z
" id="DejaVuSans-2d" transform="scale(0.015625)"/>
      <path d="M 3513 3500 
L 2247 1797 
L 3578 0 
L 2900 0 
L 1881 1375 
L 863 0 
L 184 0 
L 1544 1831 
L 300 3500 
L 978 3500 
L 1906 2253 
L 2834 3500 
L 3513 3500 
z
" id="DejaVuSans-78" transform="scale(0.015625)"/>
      <path d="M 2375 4863 
L 2375 4384 
L 1825 4384 
Q 1516 4384 1395 4259 
Q 1275 4134 1275 3809 
L 1275 3500 
L 2222 3500 
L 2222 3053 
L 1275 3053 
L 1275 0 
L 697 0 
L 697 3053 
L 147 3053 
L 147 3500 
L 697 3500 
L 697 3744 
Q 697 4328 969 4595 
Q 1241 4863 1831 4863 
L 2375 4863 
z
" id="DejaVuSans-66" transform="scale(0.015625)"/>
     </defs>
     <use xlink:href="#DejaVuSans-52"/>
     <use x="64.982422" xlink:href="#DejaVuSans-65"/>
     <use x="126.505859" xlink:href="#DejaVuSans-77"/>
     <use x="208.292969" xlink:href="#DejaVuSans-61"/>
     <use x="269.572266" xlink:href="#DejaVuSans-72"/>
     <use x="308.935547" xlink:href="#DejaVuSans-64"/>
     <use x="372.412109" xlink:href="#DejaVuSans-73"/>
     <use x="424.511719" xlink:href="#DejaVuSans-20"/>
     <use x="456.298828" xlink:href="#DejaVuSans-65"/>
     <use x="517.822266" xlink:href="#DejaVuSans-61"/>
     <use x="579.101562" xlink:href="#DejaVuSans-72"/>
     <use x="618.464844" xlink:href="#DejaVuSans-6e"/>
     <use x="681.84375" xlink:href="#DejaVuSans-65"/>
     <use x="743.367188" xlink:href="#DejaVuSans-64"/>
     <use x="806.84375" xlink:href="#DejaVuSans-20"/>
     <use x="838.630859" xlink:href="#DejaVuSans-70"/>
     <use x="902.107422" xlink:href="#DejaVuSans-65"/>
     <use x="963.630859" xlink:href="#DejaVuSans-72"/>
     <use x="1004.744141" xlink:href="#DejaVuSans-20"/>
     <use x="1036.53125" xlink:href="#DejaVuSans-61"/>
     <use x="1097.810547" xlink:href="#DejaVuSans-67"/>
     <use x="1161.287109" xlink:href="#DejaVuSans-65"/>
     <use x="1222.810547" xlink:href="#DejaVuSans-6e"/>
     <use x="1286.189453" xlink:href="#DejaVuSans-74"/>
     <use x="1325.398438" xlink:href="#DejaVuSans-20"/>
     <use x="1357.185547" xlink:href="#DejaVuSans-74"/>
     <use x="1396.394531" xlink:href="#DejaVuSans-79"/>
     <use x="1455.574219" xlink:href="#DejaVuSans-70"/>
     <use x="1519.050781" xlink:href="#DejaVuSans-65"/>
     <use x="1580.574219" xlink:href="#DejaVuSans-20"/>
     <use x="1612.361328" xlink:href="#DejaVuSans-2d"/>
     <use x="1648.445312" xlink:href="#DejaVuSans-20"/>
     <use x="1680.232422" xlink:href="#DejaVuSans-68"/>
     <use x="1743.611328" xlink:href="#DejaVuSans-6f"/>
     <use x="1804.792969" xlink:href="#DejaVuSans-73"/>
     <use x="1856.892578" xlink:href="#DejaVuSans-74"/>
     <use x="1896.101562" xlink:href="#DejaVuSans-69"/>
     <use x="1923.884766" xlink:href="#DejaVuSans-6c"/>
     <use x="1951.667969" xlink:href="#DejaVuSans-65"/>
     <use x="2013.191406" xlink:href="#DejaVuSans-20"/>
     <use x="2044.978516" xlink:href="#DejaVuSans-63"/>
     <use x="2099.958984" xlink:href="#DejaVuSans-6f"/>
     <use x="2161.140625" xlink:href="#DejaVuSans-6e"/>
     <use x="2224.519531" xlink:href="#DejaVuSans-74"/>
     <use x="2263.728516" xlink:href="#DejaVuSans-65"/>
     <use x="2323.501953" xlink:href="#DejaVuSans-78"/>
     <use x="2382.681641" xlink:href="#DejaVuSans-74"/>
     <use x="2421.890625" xlink:href="#DejaVuSans-20"/>
     <use x="2453.677734" xlink:href="#DejaVuSans-66"/>
     <use x="2488.882812" xlink:href="#DejaVuSans-69"/>
     <use x="2516.666016" xlink:href="#DejaVuSans-72"/>
     <use x="2557.779297" xlink:href="#DejaVuSans-73"/>
     <use x="2609.878906" xlink:href="#DejaVuSans-74"/>
    </g>
   </g>
  </g>
 </g>
 <defs>
  <clipPath id="p1534683f3a">
   <rect height="554.4" width="892.8" x="144" y="86.4"/>
  </clipPath>
 </defs>
</svg>
