<?xml version="1.0" encoding="utf-8" standalone="no"?>
<!DOCTYPE svg PUBLIC "-//W3C//DTD SVG 1.1//EN"
  "http://www.w3.org/Graphics/SVG/1.1/DTD/svg11.dtd">
<svg height="720pt" version="1.1" viewBox="0 0 1152 720" width="1152pt" xmlns="http://www.w3.org/2000/svg" xmlns:xlink="http://www.w3.org/1999/xlink">
 <metadata>
  <rdf:RDF xmlns:cc="http://creativecommons.org/ns#" xmlns:dc="http://purl.org/dc/elements/1.1/" xmlns:rdf="http://www.w3.org/1999/02/22-rdf-syntax-ns#">
   <cc:Work>
    <dc:type rdf:resource="http://purl.org/dc/dcmitype/StillImage"/>
    <dc:date>2023-10-20T11:39:52.657609</dc:date>
    <dc:format>image/svg+xml</dc:format>
    <dc:creator>
     <cc:Agent>
      <dc:title>Matplotlib v3.4.3, https://matplotlib.org/</dc:title>
     </cc:Agent>
    </dc:creator>
   </cc:Work>
  </rdf:RDF>
 </metadata>
 <defs>
  <style type="text/css">*{stroke-linecap:butt;stroke-linejoin:round;}</style>
 </defs>
 <g id="figure_1">
  <g id="patch_1">
   <path d="M 0 720 
L 1152 720 
L 1152 0 
L 0 0 
z
" style="fill:#ffffff;"/>
  </g>
  <g id="axes_1">
   <g id="patch_2">
    <path d="M 144 640.8 
L 1036.8 640.8 
L 1036.8 86.4 
L 144 86.4 
z
" style="fill:#ffffff;"/>
   </g>
   <g id="PolyCollection_1">
    <defs>
     <path d="M 194.334101 -257.273033 
L 192.865899 -257.273033 
L 192.632778 -260.129659 
L 192.338858 -262.986285 
L 191.972492 -265.842911 
L 191.521022 -268.699537 
L 190.971041 -271.556163 
L 190.308778 -274.412789 
L 189.520614 -277.269415 
L 188.593728 -280.126041 
L 187.516861 -282.982667 
L 186.281181 -285.839293 
L 184.881206 -288.695919 
L 183.315728 -291.552545 
L 181.58867 -294.409171 
L 179.709803 -297.265797 
L 177.695223 -300.122423 
L 175.567526 -302.979049 
L 173.355601 -305.835675 
L 171.094018 -308.692301 
L 168.821978 -311.548927 
L 166.581888 -314.405553 
L 164.417601 -317.262179 
L 162.372461 -320.118805 
L 160.48727 -322.975431 
L 158.798345 -325.832057 
L 157.335824 -328.688683 
L 156.122357 -331.545309 
L 155.172292 -334.401935 
L 154.491416 -337.258561 
L 154.077275 -340.115187 
L 153.92 -342.971813 
L 154.003571 -345.828439 
L 154.30736 -348.685065 
L 154.807814 -351.541691 
L 155.480099 -354.398317 
L 156.299565 -357.254943 
L 157.242907 -360.111569 
L 158.288958 -362.968195 
L 159.41907 -365.82482 
L 160.617123 -368.681446 
L 161.869228 -371.538072 
L 163.163214 -374.394698 
L 164.488037 -377.251324 
L 165.833217 -380.10795 
L 167.188398 -382.964576 
L 168.543135 -385.821202 
L 169.886899 -388.677828 
L 171.209328 -391.534454 
L 172.500654 -394.39108 
L 173.752234 -397.247706 
L 174.957095 -400.104332 
L 176.110377 -402.960958 
L 177.209619 -405.817584 
L 178.254793 -408.67421 
L 179.248098 -411.530836 
L 180.193497 -414.387462 
L 181.096071 -417.244088 
L 181.961247 -420.100714 
L 182.794006 -422.95734 
L 183.598157 -425.813966 
L 184.375766 -428.670592 
L 185.126804 -431.527218 
L 185.84905 -434.383844 
L 186.53825 -437.24047 
L 187.188512 -440.097096 
L 187.792887 -442.953722 
L 188.344078 -445.810348 
L 188.835181 -448.666974 
L 189.26042 -451.5236 
L 189.615777 -454.380226 
L 189.899489 -457.236852 
L 190.112361 -460.093478 
L 190.257888 -462.950104 
L 190.342171 -465.80673 
L 190.373653 -468.663356 
L 190.36269 -471.519982 
L 190.320993 -474.376608 
L 190.260995 -477.233234 
L 190.195163 -480.08986 
L 190.135337 -482.946486 
L 190.092107 -485.803112 
L 190.074293 -488.659738 
L 190.088554 -491.516364 
L 190.139143 -494.37299 
L 190.227836 -497.229616 
L 190.354012 -500.086242 
L 190.514886 -502.942868 
L 190.705873 -505.799494 
L 190.921024 -508.65612 
L 191.153521 -511.512746 
L 191.396184 -514.369372 
L 191.641929 -517.225998 
L 191.884187 -520.082624 
L 192.117213 -522.93925 
L 192.336312 -525.795876 
L 192.537958 -528.652502 
L 192.719809 -531.509128 
L 192.88065 -534.365754 
L 193.020267 -537.22238 
L 193.13928 -540.079006 
L 194.06072 -540.079006 
L 194.06072 -540.079006 
L 194.179733 -537.22238 
L 194.31935 -534.365754 
L 194.480191 -531.509128 
L 194.662042 -528.652502 
L 194.863688 -525.795876 
L 195.082787 -522.93925 
L 195.315813 -520.082624 
L 195.558071 -517.225998 
L 195.803816 -514.369372 
L 196.046479 -511.512746 
L 196.278976 -508.65612 
L 196.494127 -505.799494 
L 196.685114 -502.942868 
L 196.845988 -500.086242 
L 196.972164 -497.229616 
L 197.060857 -494.37299 
L 197.111446 -491.516364 
L 197.125707 -488.659738 
L 197.107893 -485.803112 
L 197.064663 -482.946486 
L 197.004837 -480.08986 
L 196.939005 -477.233234 
L 196.879007 -474.376608 
L 196.83731 -471.519982 
L 196.826347 -468.663356 
L 196.857829 -465.80673 
L 196.942112 -462.950104 
L 197.087639 -460.093478 
L 197.300511 -457.236852 
L 197.584223 -454.380226 
L 197.93958 -451.5236 
L 198.364819 -448.666974 
L 198.855922 -445.810348 
L 199.407113 -442.953722 
L 200.011488 -440.097096 
L 200.66175 -437.24047 
L 201.35095 -434.383844 
L 202.073196 -431.527218 
L 202.824234 -428.670592 
L 203.601843 -425.813966 
L 204.405994 -422.95734 
L 205.238753 -420.100714 
L 206.103929 -417.244088 
L 207.006503 -414.387462 
L 207.951902 -411.530836 
L 208.945207 -408.67421 
L 209.990381 -405.817584 
L 211.089623 -402.960958 
L 212.242905 -400.104332 
L 213.447766 -397.247706 
L 214.699346 -394.39108 
L 215.990672 -391.534454 
L 217.313101 -388.677828 
L 218.656865 -385.821202 
L 220.011602 -382.964576 
L 221.366783 -380.10795 
L 222.711963 -377.251324 
L 224.036786 -374.394698 
L 225.330772 -371.538072 
L 226.582877 -368.681446 
L 227.78093 -365.82482 
L 228.911042 -362.968195 
L 229.957093 -360.111569 
L 230.900435 -357.254943 
L 231.719901 -354.398317 
L 232.392186 -351.541691 
L 232.89264 -348.685065 
L 233.196429 -345.828439 
L 233.28 -342.971813 
L 233.122725 -340.115187 
L 232.708584 -337.258561 
L 232.027708 -334.401935 
L 231.077643 -331.545309 
L 229.864176 -328.688683 
L 228.401655 -325.832057 
L 226.71273 -322.975431 
L 224.827539 -320.118805 
L 222.782399 -317.262179 
L 220.618112 -314.405553 
L 218.378022 -311.548927 
L 216.105982 -308.692301 
L 213.844399 -305.835675 
L 211.632474 -302.979049 
L 209.504777 -300.122423 
L 207.490197 -297.265797 
L 205.61133 -294.409171 
L 203.884272 -291.552545 
L 202.318794 -288.695919 
L 200.918819 -285.839293 
L 199.683139 -282.982667 
L 198.606272 -280.126041 
L 197.679386 -277.269415 
L 196.891222 -274.412789 
L 196.228959 -271.556163 
L 195.678978 -268.699537 
L 195.227508 -265.842911 
L 194.861142 -262.986285 
L 194.567222 -260.129659 
L 194.334101 -257.273033 
z
" id="m81238f49fa" style="stroke:#484848;stroke-width:1.5;"/>
    </defs>
    <g clip-path="url(#p7e23749c5c)">
     <use style="fill:#c1505d;stroke:#484848;stroke-width:1.5;" x="0" xlink:href="#m81238f49fa" y="720"/>
    </g>
   </g>
   <g id="PolyCollection_2">
    <defs>
     <path d="M 293.976593 -196.713551 
L 291.623407 -196.713551 
L 291.306428 -200.872 
L 290.929332 -205.030449 
L 290.488014 -209.188898 
L 289.980005 -213.347347 
L 289.404891 -217.505796 
L 288.764644 -221.664245 
L 288.063811 -225.822694 
L 287.309527 -229.981143 
L 286.5113 -234.139592 
L 285.680586 -238.298041 
L 284.830124 -242.45649 
L 283.9731 -246.614939 
L 283.122193 -250.773388 
L 282.288574 -254.931837 
L 281.480974 -259.090286 
L 280.70492 -263.248735 
L 279.962216 -267.407184 
L 279.250768 -271.565633 
L 278.56478 -275.724082 
L 277.895322 -279.882531 
L 277.231255 -284.04098 
L 276.560423 -288.199429 
L 275.871008 -292.357878 
L 275.152935 -296.516327 
L 274.399187 -300.674776 
L 273.606894 -304.833225 
L 272.778114 -308.991674 
L 271.920207 -313.150122 
L 271.045785 -317.308571 
L 270.172226 -321.46702 
L 269.320807 -325.625469 
L 268.515523 -329.783918 
L 267.781709 -333.942367 
L 267.144557 -338.100816 
L 266.627669 -342.259265 
L 266.251738 -346.417714 
L 266.033462 -350.576163 
L 265.984744 -354.734612 
L 266.112222 -358.893061 
L 266.41714 -363.05151 
L 266.895532 -367.209959 
L 267.538674 -371.368408 
L 268.33375 -375.526857 
L 269.264664 -379.685306 
L 270.312909 -383.843755 
L 271.458441 -388.002204 
L 272.680505 -392.160653 
L 273.958353 -396.319102 
L 275.271842 -400.477551 
L 276.601897 -404.636 
L 277.930845 -408.794449 
L 279.242625 -412.952898 
L 280.52291 -417.111347 
L 281.759141 -421.269796 
L 282.940523 -425.428245 
L 284.057977 -429.586694 
L 285.104076 -433.745143 
L 286.072976 -437.903592 
L 286.960332 -442.062041 
L 287.763225 -446.22049 
L 288.480069 -450.378939 
L 289.110526 -454.537388 
L 289.655413 -458.695837 
L 290.116607 -462.854286 
L 290.49695 -467.012735 
L 290.800161 -471.171184 
L 291.030757 -475.329633 
L 291.193981 -479.488082 
L 291.295747 -483.646531 
L 291.342584 -487.80498 
L 291.341586 -491.963429 
L 291.30035 -496.121878 
L 291.226895 -500.280327 
L 291.129547 -504.438776 
L 291.016795 -508.597225 
L 290.897098 -512.755673 
L 290.778658 -516.914122 
L 290.669168 -521.072571 
L 290.575542 -525.23102 
L 290.503657 -529.389469 
L 290.458127 -533.547918 
L 290.442122 -537.706367 
L 290.45727 -541.864816 
L 290.503633 -546.023265 
L 290.579781 -550.181714 
L 290.682951 -554.340163 
L 290.809281 -558.498612 
L 290.954095 -562.657061 
L 291.112233 -566.81551 
L 291.27837 -570.973959 
L 291.447329 -575.132408 
L 291.61435 -579.290857 
L 291.775293 -583.449306 
L 291.926789 -587.607755 
L 292.066308 -591.766204 
L 292.19217 -595.924653 
L 292.303494 -600.083102 
L 292.400111 -604.241551 
L 292.482439 -608.4 
L 293.117561 -608.4 
L 293.117561 -608.4 
L 293.199889 -604.241551 
L 293.296506 -600.083102 
L 293.40783 -595.924653 
L 293.533692 -591.766204 
L 293.673211 -587.607755 
L 293.824707 -583.449306 
L 293.98565 -579.290857 
L 294.152671 -575.132408 
L 294.32163 -570.973959 
L 294.487767 -566.81551 
L 294.645905 -562.657061 
L 294.790719 -558.498612 
L 294.917049 -554.340163 
L 295.020219 -550.181714 
L 295.096367 -546.023265 
L 295.14273 -541.864816 
L 295.157878 -537.706367 
L 295.141873 -533.547918 
L 295.096343 -529.389469 
L 295.024458 -525.23102 
L 294.930832 -521.072571 
L 294.821342 -516.914122 
L 294.702902 -512.755673 
L 294.583205 -508.597225 
L 294.470453 -504.438776 
L 294.373105 -500.280327 
L 294.29965 -496.121878 
L 294.258414 -491.963429 
L 294.257416 -487.80498 
L 294.304253 -483.646531 
L 294.406019 -479.488082 
L 294.569243 -475.329633 
L 294.799839 -471.171184 
L 295.10305 -467.012735 
L 295.483393 -462.854286 
L 295.944587 -458.695837 
L 296.489474 -454.537388 
L 297.119931 -450.378939 
L 297.836775 -446.22049 
L 298.639668 -442.062041 
L 299.527024 -437.903592 
L 300.495924 -433.745143 
L 301.542023 -429.586694 
L 302.659477 -425.428245 
L 303.840859 -421.269796 
L 305.07709 -417.111347 
L 306.357375 -412.952898 
L 307.669155 -408.794449 
L 308.998103 -404.636 
L 310.328158 -400.477551 
L 311.641647 -396.319102 
L 312.919495 -392.160653 
L 314.141559 -388.002204 
L 315.287091 -383.843755 
L 316.335336 -379.685306 
L 317.26625 -375.526857 
L 318.061326 -371.368408 
L 318.704468 -367.209959 
L 319.18286 -363.05151 
L 319.487778 -358.893061 
L 319.615256 -354.734612 
L 319.566538 -350.576163 
L 319.348262 -346.417714 
L 318.972331 -342.259265 
L 318.455443 -338.100816 
L 317.818291 -333.942367 
L 317.084477 -329.783918 
L 316.279193 -325.625469 
L 315.427774 -321.46702 
L 314.554215 -317.308571 
L 313.679793 -313.150122 
L 312.821886 -308.991674 
L 311.993106 -304.833225 
L 311.200813 -300.674776 
L 310.447065 -296.516327 
L 309.728992 -292.357878 
L 309.039577 -288.199429 
L 308.368745 -284.04098 
L 307.704678 -279.882531 
L 307.03522 -275.724082 
L 306.349232 -271.565633 
L 305.637784 -267.407184 
L 304.89508 -263.248735 
L 304.119026 -259.090286 
L 303.311426 -254.931837 
L 302.477807 -250.773388 
L 301.6269 -246.614939 
L 300.769876 -242.45649 
L 299.919414 -238.298041 
L 299.0887 -234.139592 
L 298.290473 -229.981143 
L 297.536189 -225.822694 
L 296.835356 -221.664245 
L 296.195109 -217.505796 
L 295.619995 -213.347347 
L 295.111986 -209.188898 
L 294.670668 -205.030449 
L 294.293572 -200.872 
L 293.976593 -196.713551 
z
" id="m9862459ceb" style="stroke:#484848;stroke-width:1.5;"/>
    </defs>
    <g clip-path="url(#p7e23749c5c)">
     <use style="fill:#de7959;stroke:#484848;stroke-width:1.5;" x="0" xlink:href="#m9862459ceb" y="720"/>
    </g>
   </g>
   <g id="PolyCollection_3">
    <defs>
     <path d="M 392.623512 -212.331791 
L 391.376488 -212.331791 
L 391.229887 -215.31233 
L 391.056597 -218.292869 
L 390.853714 -221.273408 
L 390.618457 -224.253946 
L 390.348286 -227.234485 
L 390.041014 -230.215024 
L 389.694937 -233.195563 
L 389.308948 -236.176101 
L 388.882653 -239.15664 
L 388.416464 -242.137179 
L 387.911663 -245.117717 
L 387.370442 -248.098256 
L 386.795899 -251.078795 
L 386.191996 -254.059334 
L 385.563473 -257.039872 
L 384.915717 -260.020411 
L 384.254598 -263.00095 
L 383.586274 -265.981488 
L 382.916975 -268.962027 
L 382.252778 -271.942566 
L 381.599393 -274.923105 
L 380.961971 -277.903643 
L 380.344936 -280.884182 
L 379.751876 -283.864721 
L 379.185484 -286.845259 
L 378.647552 -289.825798 
L 378.139038 -292.806337 
L 377.660171 -295.786876 
L 377.210617 -298.767414 
L 376.789663 -301.747953 
L 376.396422 -304.728492 
L 376.030029 -307.709031 
L 375.689813 -310.689569 
L 375.375431 -313.670108 
L 375.086931 -316.650647 
L 374.824766 -319.631185 
L 374.589716 -322.611724 
L 374.382756 -325.592263 
L 374.204844 -328.572802 
L 374.056676 -331.55334 
L 373.938402 -334.533879 
L 373.849339 -337.514418 
L 373.787708 -340.494956 
L 373.750409 -343.475495 
L 373.73288 -346.456034 
L 373.729033 -349.436573 
L 373.731308 -352.417111 
L 373.73084 -355.39765 
L 373.717741 -358.378189 
L 373.681491 -361.358727 
L 373.611431 -364.339266 
L 373.497315 -367.319805 
L 373.32992 -370.300344 
L 373.101656 -373.280882 
L 372.807152 -376.261421 
L 372.443781 -379.24196 
L 372.01208 -382.222498 
L 371.516052 -385.203037 
L 370.963296 -388.183576 
L 370.364979 -391.164115 
L 369.735616 -394.144653 
L 369.092677 -397.125192 
L 368.456025 -400.105731 
L 367.847212 -403.08627 
L 367.28866 -406.066808 
L 366.802778 -409.047347 
L 366.411046 -412.027886 
L 366.133123 -415.008424 
L 365.98602 -417.988963 
L 365.983388 -420.969502 
L 366.134947 -423.950041 
L 366.446103 -426.930579 
L 366.917743 -429.911118 
L 367.546245 -432.891657 
L 368.323675 -435.872195 
L 369.238165 -438.852734 
L 370.274447 -441.833273 
L 371.4145 -444.813812 
L 372.638291 -447.79435 
L 373.924544 -450.774889 
L 375.251524 -453.755428 
L 376.597771 -456.735966 
L 377.94278 -459.716505 
L 379.267576 -462.697044 
L 380.555184 -465.677583 
L 381.790968 -468.658121 
L 382.962853 -471.63866 
L 384.061419 -474.619199 
L 385.079889 -477.599738 
L 386.014009 -480.580276 
L 386.861864 -483.560815 
L 387.623618 -486.541354 
L 388.301227 -489.521892 
L 388.898117 -492.502431 
L 389.418872 -495.48297 
L 389.868914 -498.463509 
L 390.25422 -501.444047 
L 390.581061 -504.424586 
L 390.855773 -507.405125 
L 393.144227 -507.405125 
L 393.144227 -507.405125 
L 393.418939 -504.424586 
L 393.74578 -501.444047 
L 394.131086 -498.463509 
L 394.581128 -495.48297 
L 395.101883 -492.502431 
L 395.698773 -489.521892 
L 396.376382 -486.541354 
L 397.138136 -483.560815 
L 397.985991 -480.580276 
L 398.920111 -477.599738 
L 399.938581 -474.619199 
L 401.037147 -471.63866 
L 402.209032 -468.658121 
L 403.444816 -465.677583 
L 404.732424 -462.697044 
L 406.05722 -459.716505 
L 407.402229 -456.735966 
L 408.748476 -453.755428 
L 410.075456 -450.774889 
L 411.361709 -447.79435 
L 412.5855 -444.813812 
L 413.725553 -441.833273 
L 414.761835 -438.852734 
L 415.676325 -435.872195 
L 416.453755 -432.891657 
L 417.082257 -429.911118 
L 417.553897 -426.930579 
L 417.865053 -423.950041 
L 418.016612 -420.969502 
L 418.01398 -417.988963 
L 417.866877 -415.008424 
L 417.588954 -412.027886 
L 417.197222 -409.047347 
L 416.71134 -406.066808 
L 416.152788 -403.08627 
L 415.543975 -400.105731 
L 414.907323 -397.125192 
L 414.264384 -394.144653 
L 413.635021 -391.164115 
L 413.036704 -388.183576 
L 412.483948 -385.203037 
L 411.98792 -382.222498 
L 411.556219 -379.24196 
L 411.192848 -376.261421 
L 410.898344 -373.280882 
L 410.67008 -370.300344 
L 410.502685 -367.319805 
L 410.388569 -364.339266 
L 410.318509 -361.358727 
L 410.282259 -358.378189 
L 410.26916 -355.39765 
L 410.268692 -352.417111 
L 410.270967 -349.436573 
L 410.26712 -346.456034 
L 410.249591 -343.475495 
L 410.212292 -340.494956 
L 410.150661 -337.514418 
L 410.061598 -334.533879 
L 409.943324 -331.55334 
L 409.795156 -328.572802 
L 409.617244 -325.592263 
L 409.410284 -322.611724 
L 409.175234 -319.631185 
L 408.913069 -316.650647 
L 408.624569 -313.670108 
L 408.310187 -310.689569 
L 407.969971 -307.709031 
L 407.603578 -304.728492 
L 407.210337 -301.747953 
L 406.789383 -298.767414 
L 406.339829 -295.786876 
L 405.860962 -292.806337 
L 405.352448 -289.825798 
L 404.814516 -286.845259 
L 404.248124 -283.864721 
L 403.655064 -280.884182 
L 403.038029 -277.903643 
L 402.400607 -274.923105 
L 401.747222 -271.942566 
L 401.083025 -268.962027 
L 400.413726 -265.981488 
L 399.745402 -263.00095 
L 399.084283 -260.020411 
L 398.436527 -257.039872 
L 397.808004 -254.059334 
L 397.204101 -251.078795 
L 396.629558 -248.098256 
L 396.088337 -245.117717 
L 395.583536 -242.137179 
L 395.117347 -239.15664 
L 394.691052 -236.176101 
L 394.305063 -233.195563 
L 393.958986 -230.215024 
L 393.651714 -227.234485 
L 393.381543 -224.253946 
L 393.146286 -221.273408 
L 392.943403 -218.292869 
L 392.770113 -215.31233 
L 392.623512 -212.331791 
z
" id="ma7ab891f67" style="stroke:#484848;stroke-width:1.5;"/>
    </defs>
    <g clip-path="url(#p7e23749c5c)">
     <use style="fill:#e9ad74;stroke:#484848;stroke-width:1.5;" x="0" xlink:href="#ma7ab891f67" y="720"/>
    </g>
   </g>
   <g id="PolyCollection_4">
    <defs>
     <path d="M 590.707975 -155.177501 
L 590.092025 -155.177501 
L 590.015075 -159.312672 
L 589.924798 -163.447842 
L 589.820446 -167.583013 
L 589.701586 -171.718184 
L 589.568141 -175.853355 
L 589.4204 -179.988526 
L 589.258985 -184.123697 
L 589.084763 -188.258868 
L 588.898699 -192.394038 
L 588.701652 -196.529209 
L 588.494116 -200.66438 
L 588.275919 -204.799551 
L 588.045908 -208.934722 
L 587.801643 -213.069893 
L 587.539128 -217.205064 
L 587.252633 -221.340234 
L 586.934621 -225.475405 
L 586.575838 -229.610576 
L 586.165557 -233.745747 
L 585.692028 -237.880918 
L 585.143091 -242.016089 
L 584.506956 -246.15126 
L 583.773111 -250.28643 
L 582.933285 -254.421601 
L 581.982422 -258.556772 
L 580.919567 -262.691943 
L 579.748606 -266.827114 
L 578.478767 -270.962285 
L 577.124834 -275.097456 
L 575.707018 -279.232626 
L 574.250474 -283.367797 
L 572.784473 -287.502968 
L 571.341256 -291.638139 
L 569.954639 -295.77331 
L 568.658456 -299.908481 
L 567.484947 -304.043652 
L 566.463189 -308.178822 
L 565.617684 -312.313993 
L 564.967213 -316.449164 
L 564.524009 -320.584335 
L 564.293319 -324.719506 
L 564.273374 -328.854677 
L 564.455738 -332.989848 
L 564.826017 -337.125018 
L 565.364845 -341.260189 
L 566.049066 -345.39536 
L 566.85302 -349.530531 
L 567.749833 -353.665702 
L 568.712623 -357.800873 
L 569.71556 -361.936044 
L 570.734718 -366.071214 
L 571.748694 -370.206385 
L 572.739 -374.341556 
L 573.690241 -378.476727 
L 574.59011 -382.611898 
L 575.429254 -386.747069 
L 576.201054 -390.88224 
L 576.90137 -395.01741 
L 577.528286 -399.152581 
L 578.081874 -403.287752 
L 578.564006 -407.422923 
L 578.978191 -411.558094 
L 579.329441 -415.693265 
L 579.62414 -419.828436 
L 579.8699 -423.963606 
L 580.075375 -428.098777 
L 580.250028 -432.233948 
L 580.403853 -436.369119 
L 580.547041 -440.50429 
L 580.689614 -444.639461 
L 580.841047 -448.774631 
L 581.009901 -452.909802 
L 581.203495 -457.044973 
L 581.427627 -461.180144 
L 581.686385 -465.315315 
L 581.982037 -469.450486 
L 582.315015 -473.585657 
L 582.683988 -477.720827 
L 583.086014 -481.855998 
L 583.516757 -485.991169 
L 583.970754 -490.12634 
L 584.441716 -494.261511 
L 584.922834 -498.396682 
L 585.407097 -502.531853 
L 585.88758 -506.667023 
L 586.357708 -510.802194 
L 586.811491 -514.937365 
L 587.243696 -519.072536 
L 587.649987 -523.207707 
L 588.027003 -527.342878 
L 588.372395 -531.478049 
L 588.684806 -535.613219 
L 588.963821 -539.74839 
L 589.209871 -543.883561 
L 589.424118 -548.018732 
L 589.608322 -552.153903 
L 589.764697 -556.289074 
L 589.895767 -560.424245 
L 590.004233 -564.559415 
L 590.795767 -564.559415 
L 590.795767 -564.559415 
L 590.904233 -560.424245 
L 591.035303 -556.289074 
L 591.191678 -552.153903 
L 591.375882 -548.018732 
L 591.590129 -543.883561 
L 591.836179 -539.74839 
L 592.115194 -535.613219 
L 592.427605 -531.478049 
L 592.772997 -527.342878 
L 593.150013 -523.207707 
L 593.556304 -519.072536 
L 593.988509 -514.937365 
L 594.442292 -510.802194 
L 594.91242 -506.667023 
L 595.392903 -502.531853 
L 595.877166 -498.396682 
L 596.358284 -494.261511 
L 596.829246 -490.12634 
L 597.283243 -485.991169 
L 597.713986 -481.855998 
L 598.116012 -477.720827 
L 598.484985 -473.585657 
L 598.817963 -469.450486 
L 599.113615 -465.315315 
L 599.372373 -461.180144 
L 599.596505 -457.044973 
L 599.790099 -452.909802 
L 599.958953 -448.774631 
L 600.110386 -444.639461 
L 600.252959 -440.50429 
L 600.396147 -436.369119 
L 600.549972 -432.233948 
L 600.724625 -428.098777 
L 600.9301 -423.963606 
L 601.17586 -419.828436 
L 601.470559 -415.693265 
L 601.821809 -411.558094 
L 602.235994 -407.422923 
L 602.718126 -403.287752 
L 603.271714 -399.152581 
L 603.89863 -395.01741 
L 604.598946 -390.88224 
L 605.370746 -386.747069 
L 606.20989 -382.611898 
L 607.109759 -378.476727 
L 608.061 -374.341556 
L 609.051306 -370.206385 
L 610.065282 -366.071214 
L 611.08444 -361.936044 
L 612.087377 -357.800873 
L 613.050167 -353.665702 
L 613.94698 -349.530531 
L 614.750934 -345.39536 
L 615.435155 -341.260189 
L 615.973983 -337.125018 
L 616.344262 -332.989848 
L 616.526626 -328.854677 
L 616.506681 -324.719506 
L 616.275991 -320.584335 
L 615.832787 -316.449164 
L 615.182316 -312.313993 
L 614.336811 -308.178822 
L 613.315053 -304.043652 
L 612.141544 -299.908481 
L 610.845361 -295.77331 
L 609.458744 -291.638139 
L 608.015527 -287.502968 
L 606.549526 -283.367797 
L 605.092982 -279.232626 
L 603.675166 -275.097456 
L 602.321233 -270.962285 
L 601.051394 -266.827114 
L 599.880433 -262.691943 
L 598.817578 -258.556772 
L 597.866715 -254.421601 
L 597.026889 -250.28643 
L 596.293044 -246.15126 
L 595.656909 -242.016089 
L 595.107972 -237.880918 
L 594.634443 -233.745747 
L 594.224162 -229.610576 
L 593.865379 -225.475405 
L 593.547367 -221.340234 
L 593.260872 -217.205064 
L 592.998357 -213.069893 
L 592.754092 -208.934722 
L 592.524081 -204.799551 
L 592.305884 -200.66438 
L 592.098348 -196.529209 
L 591.901301 -192.394038 
L 591.715237 -188.258868 
L 591.541015 -184.123697 
L 591.3796 -179.988526 
L 591.231859 -175.853355 
L 591.098414 -171.718184 
L 590.979554 -167.583013 
L 590.875202 -163.447842 
L 590.784925 -159.312672 
L 590.707975 -155.177501 
z
" id="m424a9802da" style="stroke:#484848;stroke-width:1.5;"/>
    </defs>
    <g clip-path="url(#p7e23749c5c)">
     <use style="fill:#f7f7c6;stroke:#484848;stroke-width:1.5;" x="0" xlink:href="#m424a9802da" y="720"/>
    </g>
   </g>
   <g id="PolyCollection_5">
    <defs>
     <path d="M 689.921344 -104.4 
L 689.278656 -104.4 
L 689.187686 -108.855387 
L 689.079664 -113.310774 
L 688.954143 -117.766161 
L 688.811528 -122.221548 
L 688.653254 -126.676935 
L 688.481908 -131.132322 
L 688.301268 -135.587708 
L 688.116256 -140.043095 
L 687.932766 -144.498482 
L 687.757395 -148.953869 
L 687.597063 -153.409256 
L 687.458576 -157.864643 
L 687.348142 -162.32003 
L 687.270911 -166.775417 
L 687.230568 -171.230804 
L 687.229026 -175.686191 
L 687.266262 -180.141578 
L 687.340295 -184.596965 
L 687.447322 -189.052352 
L 687.581988 -193.507739 
L 687.737751 -197.963125 
L 687.90731 -202.418512 
L 688.083042 -206.873899 
L 688.257406 -211.329286 
L 688.423268 -215.784673 
L 688.574142 -220.24006 
L 688.704313 -224.695447 
L 688.808861 -229.150834 
L 688.883602 -233.606221 
L 688.924949 -238.061608 
L 688.929755 -242.516995 
L 688.895125 -246.972382 
L 688.818244 -251.427769 
L 688.696229 -255.883156 
L 688.526 -260.338542 
L 688.304184 -264.793929 
L 688.027041 -269.249316 
L 687.690401 -273.704703 
L 687.289623 -278.16009 
L 686.819569 -282.615477 
L 686.274616 -287.070864 
L 685.648717 -291.526251 
L 684.935554 -295.981638 
L 684.128797 -300.437025 
L 683.222502 -304.892412 
L 682.211654 -309.347799 
L 681.092851 -313.803186 
L 679.865086 -318.258573 
L 678.530587 -322.713959 
L 677.095602 -327.169346 
L 675.571074 -331.624733 
L 673.973064 -336.08012 
L 672.322868 -340.535507 
L 670.646737 -344.990894 
L 668.975187 -349.446281 
L 667.341913 -353.901668 
L 665.782354 -358.357055 
L 664.33204 -362.812442 
L 663.024839 -367.267829 
L 661.89125 -371.723216 
L 660.956913 -376.178603 
L 660.241435 -380.633989 
L 659.75764 -385.089376 
L 659.51128 -389.544763 
L 659.501193 -394.00015 
L 659.719875 -398.455537 
L 660.15435 -402.910924 
L 660.787259 -407.366311 
L 661.598035 -411.821698 
L 662.564057 -416.277085 
L 663.661715 -420.732472 
L 664.867308 -425.187859 
L 666.157762 -429.643246 
L 667.511147 -434.098633 
L 668.907024 -438.55402 
L 670.326638 -443.009406 
L 671.753004 -447.464793 
L 673.170903 -451.92018 
L 674.566825 -456.375567 
L 675.928894 -460.830954 
L 677.246763 -465.286341 
L 678.511527 -469.741728 
L 679.715637 -474.197115 
L 680.852829 -478.652502 
L 681.918076 -483.107889 
L 682.907556 -487.563276 
L 683.818632 -492.018663 
L 684.649847 -496.47405 
L 685.400916 -500.929437 
L 686.072703 -505.384823 
L 686.667186 -509.84021 
L 687.187384 -514.295597 
L 687.637256 -518.750984 
L 688.021559 -523.206371 
L 688.345685 -527.661758 
L 688.615461 -532.117145 
L 688.836956 -536.572532 
L 689.016271 -541.027919 
L 689.159364 -545.483306 
L 690.040636 -545.483306 
L 690.040636 -545.483306 
L 690.183729 -541.027919 
L 690.363044 -536.572532 
L 690.584539 -532.117145 
L 690.854315 -527.661758 
L 691.178441 -523.206371 
L 691.562744 -518.750984 
L 692.012616 -514.295597 
L 692.532814 -509.84021 
L 693.127297 -505.384823 
L 693.799084 -500.929437 
L 694.550153 -496.47405 
L 695.381368 -492.018663 
L 696.292444 -487.563276 
L 697.281924 -483.107889 
L 698.347171 -478.652502 
L 699.484363 -474.197115 
L 700.688473 -469.741728 
L 701.953237 -465.286341 
L 703.271106 -460.830954 
L 704.633175 -456.375567 
L 706.029097 -451.92018 
L 707.446996 -447.464793 
L 708.873362 -443.009406 
L 710.292976 -438.55402 
L 711.688853 -434.098633 
L 713.042238 -429.643246 
L 714.332692 -425.187859 
L 715.538285 -420.732472 
L 716.635943 -416.277085 
L 717.601965 -411.821698 
L 718.412741 -407.366311 
L 719.04565 -402.910924 
L 719.480125 -398.455537 
L 719.698807 -394.00015 
L 719.68872 -389.544763 
L 719.44236 -385.089376 
L 718.958565 -380.633989 
L 718.243087 -376.178603 
L 717.30875 -371.723216 
L 716.175161 -367.267829 
L 714.86796 -362.812442 
L 713.417646 -358.357055 
L 711.858087 -353.901668 
L 710.224813 -349.446281 
L 708.553263 -344.990894 
L 706.877132 -340.535507 
L 705.226936 -336.08012 
L 703.628926 -331.624733 
L 702.104398 -327.169346 
L 700.669413 -322.713959 
L 699.334914 -318.258573 
L 698.107149 -313.803186 
L 696.988346 -309.347799 
L 695.977498 -304.892412 
L 695.071203 -300.437025 
L 694.264446 -295.981638 
L 693.551283 -291.526251 
L 692.925384 -287.070864 
L 692.380431 -282.615477 
L 691.910377 -278.16009 
L 691.509599 -273.704703 
L 691.172959 -269.249316 
L 690.895816 -264.793929 
L 690.674 -260.338542 
L 690.503771 -255.883156 
L 690.381756 -251.427769 
L 690.304875 -246.972382 
L 690.270245 -242.516995 
L 690.275051 -238.061608 
L 690.316398 -233.606221 
L 690.391139 -229.150834 
L 690.495687 -224.695447 
L 690.625858 -220.24006 
L 690.776732 -215.784673 
L 690.942594 -211.329286 
L 691.116958 -206.873899 
L 691.29269 -202.418512 
L 691.462249 -197.963125 
L 691.618012 -193.507739 
L 691.752678 -189.052352 
L 691.859705 -184.596965 
L 691.933738 -180.141578 
L 691.970974 -175.686191 
L 691.969432 -171.230804 
L 691.929089 -166.775417 
L 691.851858 -162.32003 
L 691.741424 -157.864643 
L 691.602937 -153.409256 
L 691.442605 -148.953869 
L 691.267234 -144.498482 
L 691.083744 -140.043095 
L 690.898732 -135.587708 
L 690.718092 -131.132322 
L 690.546746 -126.676935 
L 690.388472 -122.221548 
L 690.245857 -117.766161 
L 690.120336 -113.310774 
L 690.012314 -108.855387 
L 689.921344 -104.4 
z
" id="mea19dd74d6" style="stroke:#484848;stroke-width:1.5;"/>
    </defs>
    <g clip-path="url(#p7e23749c5c)">
     <use style="fill:#dee9a4;stroke:#484848;stroke-width:1.5;" x="0" xlink:href="#mea19dd74d6" y="720"/>
    </g>
   </g>
   <g id="PolyCollection_6">
    <defs>
     <path d="M 790.014995 -246.475502 
L 787.585005 -246.475502 
L 787.261433 -249.393462 
L 786.87502 -252.311421 
L 786.420193 -255.229381 
L 785.89259 -258.147341 
L 785.289493 -261.0653 
L 784.61023 -263.98326 
L 783.856504 -266.90122 
L 783.032611 -269.819179 
L 782.1455 -272.737139 
L 781.204656 -275.655099 
L 780.221788 -278.573059 
L 779.210311 -281.491018 
L 778.184659 -284.408978 
L 777.159446 -287.326938 
L 776.148556 -290.244897 
L 775.164216 -293.162857 
L 774.216127 -296.080817 
L 773.310748 -298.998776 
L 772.450793 -301.916736 
L 771.634994 -304.834696 
L 770.858175 -307.752656 
L 770.111641 -310.670615 
L 769.383863 -313.588575 
L 768.661416 -316.506535 
L 767.930111 -319.424494 
L 767.176228 -322.342454 
L 766.387761 -325.260414 
L 765.555586 -328.178374 
L 764.674463 -331.096333 
L 763.743786 -334.014293 
L 762.768045 -336.932253 
L 761.756948 -339.850212 
L 760.7252 -342.768172 
L 759.691967 -345.686132 
L 758.680036 -348.604091 
L 757.714755 -351.522051 
L 756.822812 -354.440011 
L 756.030937 -357.357971 
L 755.364609 -360.27593 
L 754.84685 -363.19389 
L 754.49718 -366.11185 
L 754.330777 -369.029809 
L 754.35789 -371.947769 
L 754.583517 -374.865729 
L 755.007344 -377.783688 
L 755.623929 -380.701648 
L 756.423094 -383.619608 
L 757.390481 -386.537568 
L 758.508235 -389.455527 
L 759.755756 -392.373487 
L 761.110484 -395.291447 
L 762.548687 -398.209406 
L 764.046211 -401.127366 
L 765.579184 -404.045326 
L 767.124643 -406.963286 
L 768.661083 -409.881245 
L 770.168913 -412.799205 
L 771.630812 -415.717165 
L 773.031976 -418.635124 
L 774.360259 -421.553084 
L 775.606206 -424.471044 
L 776.76299 -427.389003 
L 777.826262 -430.306963 
L 778.793934 -433.224923 
L 779.665924 -436.142883 
L 780.443877 -439.060842 
L 781.130895 -441.978802 
L 781.731294 -444.896762 
L 782.250395 -447.814721 
L 782.694359 -450.732681 
L 783.070057 -453.650641 
L 783.384969 -456.5686 
L 783.647083 -459.48656 
L 783.864792 -462.40452 
L 784.046758 -465.32248 
L 784.20174 -468.240439 
L 784.338375 -471.158399 
L 784.464931 -474.076359 
L 784.589029 -476.994318 
L 784.717371 -479.912278 
L 784.855485 -482.830238 
L 785.007521 -485.748197 
L 785.176119 -488.666157 
L 785.362364 -491.584117 
L 785.565832 -494.502077 
L 785.784729 -497.420036 
L 786.016108 -500.337996 
L 786.256152 -503.255956 
L 786.500485 -506.173915 
L 786.744501 -509.091875 
L 786.98367 -512.009835 
L 787.213815 -514.927795 
L 787.431322 -517.845754 
L 787.633296 -520.763714 
L 787.817642 -523.681674 
L 787.983082 -526.599633 
L 788.12912 -529.517593 
L 788.255953 -532.435553 
L 788.364362 -535.353512 
L 789.235638 -535.353512 
L 789.235638 -535.353512 
L 789.344047 -532.435553 
L 789.47088 -529.517593 
L 789.616918 -526.599633 
L 789.782358 -523.681674 
L 789.966704 -520.763714 
L 790.168678 -517.845754 
L 790.386185 -514.927795 
L 790.61633 -512.009835 
L 790.855499 -509.091875 
L 791.099515 -506.173915 
L 791.343848 -503.255956 
L 791.583892 -500.337996 
L 791.815271 -497.420036 
L 792.034168 -494.502077 
L 792.237636 -491.584117 
L 792.423881 -488.666157 
L 792.592479 -485.748197 
L 792.744515 -482.830238 
L 792.882629 -479.912278 
L 793.010971 -476.994318 
L 793.135069 -474.076359 
L 793.261625 -471.158399 
L 793.39826 -468.240439 
L 793.553242 -465.32248 
L 793.735208 -462.40452 
L 793.952917 -459.48656 
L 794.215031 -456.5686 
L 794.529943 -453.650641 
L 794.905641 -450.732681 
L 795.349605 -447.814721 
L 795.868706 -444.896762 
L 796.469105 -441.978802 
L 797.156123 -439.060842 
L 797.934076 -436.142883 
L 798.806066 -433.224923 
L 799.773738 -430.306963 
L 800.83701 -427.389003 
L 801.993794 -424.471044 
L 803.239741 -421.553084 
L 804.568024 -418.635124 
L 805.969188 -415.717165 
L 807.431087 -412.799205 
L 808.938917 -409.881245 
L 810.475357 -406.963286 
L 812.020816 -404.045326 
L 813.553789 -401.127366 
L 815.051313 -398.209406 
L 816.489516 -395.291447 
L 817.844244 -392.373487 
L 819.091765 -389.455527 
L 820.209519 -386.537568 
L 821.176906 -383.619608 
L 821.976071 -380.701648 
L 822.592656 -377.783688 
L 823.016483 -374.865729 
L 823.24211 -371.947769 
L 823.269223 -369.029809 
L 823.10282 -366.11185 
L 822.75315 -363.19389 
L 822.235391 -360.27593 
L 821.569063 -357.357971 
L 820.777188 -354.440011 
L 819.885245 -351.522051 
L 818.919964 -348.604091 
L 817.908033 -345.686132 
L 816.8748 -342.768172 
L 815.843052 -339.850212 
L 814.831955 -336.932253 
L 813.856214 -334.014293 
L 812.925537 -331.096333 
L 812.044414 -328.178374 
L 811.212239 -325.260414 
L 810.423772 -322.342454 
L 809.669889 -319.424494 
L 808.938584 -316.506535 
L 808.216137 -313.588575 
L 807.488359 -310.670615 
L 806.741825 -307.752656 
L 805.965006 -304.834696 
L 805.149207 -301.916736 
L 804.289252 -298.998776 
L 803.383873 -296.080817 
L 802.435784 -293.162857 
L 801.451444 -290.244897 
L 800.440554 -287.326938 
L 799.415341 -284.408978 
L 798.389689 -281.491018 
L 797.378212 -278.573059 
L 796.395344 -275.655099 
L 795.4545 -272.737139 
L 794.567389 -269.819179 
L 793.743496 -266.90122 
L 792.98977 -263.98326 
L 792.310507 -261.0653 
L 791.70741 -258.147341 
L 791.179807 -255.229381 
L 790.72498 -252.311421 
L 790.338567 -249.393462 
L 790.014995 -246.475502 
z
" id="m2c0912690d" style="stroke:#484848;stroke-width:1.5;"/>
    </defs>
    <g clip-path="url(#p7e23749c5c)">
     <use style="fill:#afd5ab;stroke:#484848;stroke-width:1.5;" x="0" xlink:href="#m2c0912690d" y="720"/>
    </g>
   </g>
   <g id="matplotlib.axis_1">
    <g id="xtick_1">
     <g id="line2d_1">
      <defs>
       <path d="M 0 0 
L 0 3.5 
" id="mb0dba8580c" style="stroke:#000000;stroke-width:0.8;"/>
      </defs>
      <g>
       <use style="stroke:#000000;stroke-width:0.8;" x="193.6" xlink:href="#mb0dba8580c" y="640.8"/>
      </g>
     </g>
     <g id="text_1">
      <!-- Player1_healthy -->
      <g transform="translate(153.572656 655.398438)scale(0.1 -0.1)">
       <defs>
        <path d="M 1259 4147 
L 1259 2394 
L 2053 2394 
Q 2494 2394 2734 2622 
Q 2975 2850 2975 3272 
Q 2975 3691 2734 3919 
Q 2494 4147 2053 4147 
L 1259 4147 
z
M 628 4666 
L 2053 4666 
Q 2838 4666 3239 4311 
Q 3641 3956 3641 3272 
Q 3641 2581 3239 2228 
Q 2838 1875 2053 1875 
L 1259 1875 
L 1259 0 
L 628 0 
L 628 4666 
z
" id="DejaVuSans-50" transform="scale(0.015625)"/>
        <path d="M 603 4863 
L 1178 4863 
L 1178 0 
L 603 0 
L 603 4863 
z
" id="DejaVuSans-6c" transform="scale(0.015625)"/>
        <path d="M 2194 1759 
Q 1497 1759 1228 1600 
Q 959 1441 959 1056 
Q 959 750 1161 570 
Q 1363 391 1709 391 
Q 2188 391 2477 730 
Q 2766 1069 2766 1631 
L 2766 1759 
L 2194 1759 
z
M 3341 1997 
L 3341 0 
L 2766 0 
L 2766 531 
Q 2569 213 2275 61 
Q 1981 -91 1556 -91 
Q 1019 -91 701 211 
Q 384 513 384 1019 
Q 384 1609 779 1909 
Q 1175 2209 1959 2209 
L 2766 2209 
L 2766 2266 
Q 2766 2663 2505 2880 
Q 2244 3097 1772 3097 
Q 1472 3097 1187 3025 
Q 903 2953 641 2809 
L 641 3341 
Q 956 3463 1253 3523 
Q 1550 3584 1831 3584 
Q 2591 3584 2966 3190 
Q 3341 2797 3341 1997 
z
" id="DejaVuSans-61" transform="scale(0.015625)"/>
        <path d="M 2059 -325 
Q 1816 -950 1584 -1140 
Q 1353 -1331 966 -1331 
L 506 -1331 
L 506 -850 
L 844 -850 
Q 1081 -850 1212 -737 
Q 1344 -625 1503 -206 
L 1606 56 
L 191 3500 
L 800 3500 
L 1894 763 
L 2988 3500 
L 3597 3500 
L 2059 -325 
z
" id="DejaVuSans-79" transform="scale(0.015625)"/>
        <path d="M 3597 1894 
L 3597 1613 
L 953 1613 
Q 991 1019 1311 708 
Q 1631 397 2203 397 
Q 2534 397 2845 478 
Q 3156 559 3463 722 
L 3463 178 
Q 3153 47 2828 -22 
Q 2503 -91 2169 -91 
Q 1331 -91 842 396 
Q 353 884 353 1716 
Q 353 2575 817 3079 
Q 1281 3584 2069 3584 
Q 2775 3584 3186 3129 
Q 3597 2675 3597 1894 
z
M 3022 2063 
Q 3016 2534 2758 2815 
Q 2500 3097 2075 3097 
Q 1594 3097 1305 2825 
Q 1016 2553 972 2059 
L 3022 2063 
z
" id="DejaVuSans-65" transform="scale(0.015625)"/>
        <path d="M 2631 2963 
Q 2534 3019 2420 3045 
Q 2306 3072 2169 3072 
Q 1681 3072 1420 2755 
Q 1159 2438 1159 1844 
L 1159 0 
L 581 0 
L 581 3500 
L 1159 3500 
L 1159 2956 
Q 1341 3275 1631 3429 
Q 1922 3584 2338 3584 
Q 2397 3584 2469 3576 
Q 2541 3569 2628 3553 
L 2631 2963 
z
" id="DejaVuSans-72" transform="scale(0.015625)"/>
        <path d="M 794 531 
L 1825 531 
L 1825 4091 
L 703 3866 
L 703 4441 
L 1819 4666 
L 2450 4666 
L 2450 531 
L 3481 531 
L 3481 0 
L 794 0 
L 794 531 
z
" id="DejaVuSans-31" transform="scale(0.015625)"/>
        <path d="M 3263 -1063 
L 3263 -1509 
L -63 -1509 
L -63 -1063 
L 3263 -1063 
z
" id="DejaVuSans-5f" transform="scale(0.015625)"/>
        <path d="M 3513 2113 
L 3513 0 
L 2938 0 
L 2938 2094 
Q 2938 2591 2744 2837 
Q 2550 3084 2163 3084 
Q 1697 3084 1428 2787 
Q 1159 2491 1159 1978 
L 1159 0 
L 581 0 
L 581 4863 
L 1159 4863 
L 1159 2956 
Q 1366 3272 1645 3428 
Q 1925 3584 2291 3584 
Q 2894 3584 3203 3211 
Q 3513 2838 3513 2113 
z
" id="DejaVuSans-68" transform="scale(0.015625)"/>
        <path d="M 1172 4494 
L 1172 3500 
L 2356 3500 
L 2356 3053 
L 1172 3053 
L 1172 1153 
Q 1172 725 1289 603 
Q 1406 481 1766 481 
L 2356 481 
L 2356 0 
L 1766 0 
Q 1100 0 847 248 
Q 594 497 594 1153 
L 594 3053 
L 172 3053 
L 172 3500 
L 594 3500 
L 594 4494 
L 1172 4494 
z
" id="DejaVuSans-74" transform="scale(0.015625)"/>
       </defs>
       <use xlink:href="#DejaVuSans-50"/>
       <use x="60.302734" xlink:href="#DejaVuSans-6c"/>
       <use x="88.085938" xlink:href="#DejaVuSans-61"/>
       <use x="149.365234" xlink:href="#DejaVuSans-79"/>
       <use x="208.544922" xlink:href="#DejaVuSans-65"/>
       <use x="270.068359" xlink:href="#DejaVuSans-72"/>
       <use x="311.181641" xlink:href="#DejaVuSans-31"/>
       <use x="374.804688" xlink:href="#DejaVuSans-5f"/>
       <use x="424.804688" xlink:href="#DejaVuSans-68"/>
       <use x="488.183594" xlink:href="#DejaVuSans-65"/>
       <use x="549.707031" xlink:href="#DejaVuSans-61"/>
       <use x="610.986328" xlink:href="#DejaVuSans-6c"/>
       <use x="638.769531" xlink:href="#DejaVuSans-74"/>
       <use x="677.978516" xlink:href="#DejaVuSans-68"/>
       <use x="741.357422" xlink:href="#DejaVuSans-79"/>
      </g>
     </g>
    </g>
    <g id="xtick_2">
     <g id="line2d_2">
      <g>
       <use style="stroke:#000000;stroke-width:0.8;" x="292.8" xlink:href="#mb0dba8580c" y="640.8"/>
      </g>
     </g>
     <g id="text_2">
      <!-- biased_A -->
      <g transform="translate(270.396875 655.398438)scale(0.1 -0.1)">
       <defs>
        <path d="M 3116 1747 
Q 3116 2381 2855 2742 
Q 2594 3103 2138 3103 
Q 1681 3103 1420 2742 
Q 1159 2381 1159 1747 
Q 1159 1113 1420 752 
Q 1681 391 2138 391 
Q 2594 391 2855 752 
Q 3116 1113 3116 1747 
z
M 1159 2969 
Q 1341 3281 1617 3432 
Q 1894 3584 2278 3584 
Q 2916 3584 3314 3078 
Q 3713 2572 3713 1747 
Q 3713 922 3314 415 
Q 2916 -91 2278 -91 
Q 1894 -91 1617 61 
Q 1341 213 1159 525 
L 1159 0 
L 581 0 
L 581 4863 
L 1159 4863 
L 1159 2969 
z
" id="DejaVuSans-62" transform="scale(0.015625)"/>
        <path d="M 603 3500 
L 1178 3500 
L 1178 0 
L 603 0 
L 603 3500 
z
M 603 4863 
L 1178 4863 
L 1178 4134 
L 603 4134 
L 603 4863 
z
" id="DejaVuSans-69" transform="scale(0.015625)"/>
        <path d="M 2834 3397 
L 2834 2853 
Q 2591 2978 2328 3040 
Q 2066 3103 1784 3103 
Q 1356 3103 1142 2972 
Q 928 2841 928 2578 
Q 928 2378 1081 2264 
Q 1234 2150 1697 2047 
L 1894 2003 
Q 2506 1872 2764 1633 
Q 3022 1394 3022 966 
Q 3022 478 2636 193 
Q 2250 -91 1575 -91 
Q 1294 -91 989 -36 
Q 684 19 347 128 
L 347 722 
Q 666 556 975 473 
Q 1284 391 1588 391 
Q 1994 391 2212 530 
Q 2431 669 2431 922 
Q 2431 1156 2273 1281 
Q 2116 1406 1581 1522 
L 1381 1569 
Q 847 1681 609 1914 
Q 372 2147 372 2553 
Q 372 3047 722 3315 
Q 1072 3584 1716 3584 
Q 2034 3584 2315 3537 
Q 2597 3491 2834 3397 
z
" id="DejaVuSans-73" transform="scale(0.015625)"/>
        <path d="M 2906 2969 
L 2906 4863 
L 3481 4863 
L 3481 0 
L 2906 0 
L 2906 525 
Q 2725 213 2448 61 
Q 2172 -91 1784 -91 
Q 1150 -91 751 415 
Q 353 922 353 1747 
Q 353 2572 751 3078 
Q 1150 3584 1784 3584 
Q 2172 3584 2448 3432 
Q 2725 3281 2906 2969 
z
M 947 1747 
Q 947 1113 1208 752 
Q 1469 391 1925 391 
Q 2381 391 2643 752 
Q 2906 1113 2906 1747 
Q 2906 2381 2643 2742 
Q 2381 3103 1925 3103 
Q 1469 3103 1208 2742 
Q 947 2381 947 1747 
z
" id="DejaVuSans-64" transform="scale(0.015625)"/>
        <path d="M 2188 4044 
L 1331 1722 
L 3047 1722 
L 2188 4044 
z
M 1831 4666 
L 2547 4666 
L 4325 0 
L 3669 0 
L 3244 1197 
L 1141 1197 
L 716 0 
L 50 0 
L 1831 4666 
z
" id="DejaVuSans-41" transform="scale(0.015625)"/>
       </defs>
       <use xlink:href="#DejaVuSans-62"/>
       <use x="63.476562" xlink:href="#DejaVuSans-69"/>
       <use x="91.259766" xlink:href="#DejaVuSans-61"/>
       <use x="152.539062" xlink:href="#DejaVuSans-73"/>
       <use x="204.638672" xlink:href="#DejaVuSans-65"/>
       <use x="266.162109" xlink:href="#DejaVuSans-64"/>
       <use x="329.638672" xlink:href="#DejaVuSans-5f"/>
       <use x="379.638672" xlink:href="#DejaVuSans-41"/>
      </g>
     </g>
    </g>
    <g id="xtick_3">
     <g id="line2d_3">
      <g>
       <use style="stroke:#000000;stroke-width:0.8;" x="392" xlink:href="#mb0dba8580c" y="640.8"/>
      </g>
     </g>
     <g id="text_3">
      <!-- biased_B -->
      <g transform="translate(369.586719 655.398438)scale(0.1 -0.1)">
       <defs>
        <path d="M 1259 2228 
L 1259 519 
L 2272 519 
Q 2781 519 3026 730 
Q 3272 941 3272 1375 
Q 3272 1813 3026 2020 
Q 2781 2228 2272 2228 
L 1259 2228 
z
M 1259 4147 
L 1259 2741 
L 2194 2741 
Q 2656 2741 2882 2914 
Q 3109 3088 3109 3444 
Q 3109 3797 2882 3972 
Q 2656 4147 2194 4147 
L 1259 4147 
z
M 628 4666 
L 2241 4666 
Q 2963 4666 3353 4366 
Q 3744 4066 3744 3513 
Q 3744 3084 3544 2831 
Q 3344 2578 2956 2516 
Q 3422 2416 3680 2098 
Q 3938 1781 3938 1306 
Q 3938 681 3513 340 
Q 3088 0 2303 0 
L 628 0 
L 628 4666 
z
" id="DejaVuSans-42" transform="scale(0.015625)"/>
       </defs>
       <use xlink:href="#DejaVuSans-62"/>
       <use x="63.476562" xlink:href="#DejaVuSans-69"/>
       <use x="91.259766" xlink:href="#DejaVuSans-61"/>
       <use x="152.539062" xlink:href="#DejaVuSans-73"/>
       <use x="204.638672" xlink:href="#DejaVuSans-65"/>
       <use x="266.162109" xlink:href="#DejaVuSans-64"/>
       <use x="329.638672" xlink:href="#DejaVuSans-5f"/>
       <use x="379.638672" xlink:href="#DejaVuSans-42"/>
      </g>
     </g>
    </g>
    <g id="xtick_4">
     <g id="line2d_4">
      <g>
       <use style="stroke:#000000;stroke-width:0.8;" x="491.2" xlink:href="#mb0dba8580c" y="640.8"/>
      </g>
     </g>
     <g id="text_4">
      <!-- biased_C -->
      <g transform="translate(468.725781 655.398438)scale(0.1 -0.1)">
       <defs>
        <path d="M 4122 4306 
L 4122 3641 
Q 3803 3938 3442 4084 
Q 3081 4231 2675 4231 
Q 1875 4231 1450 3742 
Q 1025 3253 1025 2328 
Q 1025 1406 1450 917 
Q 1875 428 2675 428 
Q 3081 428 3442 575 
Q 3803 722 4122 1019 
L 4122 359 
Q 3791 134 3420 21 
Q 3050 -91 2638 -91 
Q 1578 -91 968 557 
Q 359 1206 359 2328 
Q 359 3453 968 4101 
Q 1578 4750 2638 4750 
Q 3056 4750 3426 4639 
Q 3797 4528 4122 4306 
z
" id="DejaVuSans-43" transform="scale(0.015625)"/>
       </defs>
       <use xlink:href="#DejaVuSans-62"/>
       <use x="63.476562" xlink:href="#DejaVuSans-69"/>
       <use x="91.259766" xlink:href="#DejaVuSans-61"/>
       <use x="152.539062" xlink:href="#DejaVuSans-73"/>
       <use x="204.638672" xlink:href="#DejaVuSans-65"/>
       <use x="266.162109" xlink:href="#DejaVuSans-64"/>
       <use x="329.638672" xlink:href="#DejaVuSans-5f"/>
       <use x="379.638672" xlink:href="#DejaVuSans-43"/>
      </g>
     </g>
    </g>
    <g id="xtick_5">
     <g id="line2d_5">
      <g>
       <use style="stroke:#000000;stroke-width:0.8;" x="590.4" xlink:href="#mb0dba8580c" y="640.8"/>
      </g>
     </g>
     <g id="text_5">
      <!-- biased_D -->
      <g transform="translate(567.567187 655.398438)scale(0.1 -0.1)">
       <defs>
        <path d="M 1259 4147 
L 1259 519 
L 2022 519 
Q 2988 519 3436 956 
Q 3884 1394 3884 2338 
Q 3884 3275 3436 3711 
Q 2988 4147 2022 4147 
L 1259 4147 
z
M 628 4666 
L 1925 4666 
Q 3281 4666 3915 4102 
Q 4550 3538 4550 2338 
Q 4550 1131 3912 565 
Q 3275 0 1925 0 
L 628 0 
L 628 4666 
z
" id="DejaVuSans-44" transform="scale(0.015625)"/>
       </defs>
       <use xlink:href="#DejaVuSans-62"/>
       <use x="63.476562" xlink:href="#DejaVuSans-69"/>
       <use x="91.259766" xlink:href="#DejaVuSans-61"/>
       <use x="152.539062" xlink:href="#DejaVuSans-73"/>
       <use x="204.638672" xlink:href="#DejaVuSans-65"/>
       <use x="266.162109" xlink:href="#DejaVuSans-64"/>
       <use x="329.638672" xlink:href="#DejaVuSans-5f"/>
       <use x="379.638672" xlink:href="#DejaVuSans-44"/>
      </g>
     </g>
    </g>
    <g id="xtick_6">
     <g id="line2d_6">
      <g>
       <use style="stroke:#000000;stroke-width:0.8;" x="689.6" xlink:href="#mb0dba8580c" y="640.8"/>
      </g>
     </g>
     <g id="text_6">
      <!-- Type1_depressed -->
      <g transform="translate(646.53125 655.398438)scale(0.1 -0.1)">
       <defs>
        <path d="M -19 4666 
L 3928 4666 
L 3928 4134 
L 2272 4134 
L 2272 0 
L 1638 0 
L 1638 4134 
L -19 4134 
L -19 4666 
z
" id="DejaVuSans-54" transform="scale(0.015625)"/>
        <path d="M 1159 525 
L 1159 -1331 
L 581 -1331 
L 581 3500 
L 1159 3500 
L 1159 2969 
Q 1341 3281 1617 3432 
Q 1894 3584 2278 3584 
Q 2916 3584 3314 3078 
Q 3713 2572 3713 1747 
Q 3713 922 3314 415 
Q 2916 -91 2278 -91 
Q 1894 -91 1617 61 
Q 1341 213 1159 525 
z
M 3116 1747 
Q 3116 2381 2855 2742 
Q 2594 3103 2138 3103 
Q 1681 3103 1420 2742 
Q 1159 2381 1159 1747 
Q 1159 1113 1420 752 
Q 1681 391 2138 391 
Q 2594 391 2855 752 
Q 3116 1113 3116 1747 
z
" id="DejaVuSans-70" transform="scale(0.015625)"/>
       </defs>
       <use xlink:href="#DejaVuSans-54"/>
       <use x="45.458984" xlink:href="#DejaVuSans-79"/>
       <use x="104.638672" xlink:href="#DejaVuSans-70"/>
       <use x="168.115234" xlink:href="#DejaVuSans-65"/>
       <use x="229.638672" xlink:href="#DejaVuSans-31"/>
       <use x="293.261719" xlink:href="#DejaVuSans-5f"/>
       <use x="343.261719" xlink:href="#DejaVuSans-64"/>
       <use x="406.738281" xlink:href="#DejaVuSans-65"/>
       <use x="468.261719" xlink:href="#DejaVuSans-70"/>
       <use x="531.738281" xlink:href="#DejaVuSans-72"/>
       <use x="570.601562" xlink:href="#DejaVuSans-65"/>
       <use x="632.125" xlink:href="#DejaVuSans-73"/>
       <use x="684.224609" xlink:href="#DejaVuSans-73"/>
       <use x="736.324219" xlink:href="#DejaVuSans-65"/>
       <use x="797.847656" xlink:href="#DejaVuSans-64"/>
      </g>
     </g>
    </g>
    <g id="xtick_7">
     <g id="line2d_7">
      <g>
       <use style="stroke:#000000;stroke-width:0.8;" x="788.8" xlink:href="#mb0dba8580c" y="640.8"/>
      </g>
     </g>
     <g id="text_7">
      <!-- Type2_depressed -->
      <g transform="translate(745.73125 655.398438)scale(0.1 -0.1)">
       <defs>
        <path d="M 1228 531 
L 3431 531 
L 3431 0 
L 469 0 
L 469 531 
Q 828 903 1448 1529 
Q 2069 2156 2228 2338 
Q 2531 2678 2651 2914 
Q 2772 3150 2772 3378 
Q 2772 3750 2511 3984 
Q 2250 4219 1831 4219 
Q 1534 4219 1204 4116 
Q 875 4013 500 3803 
L 500 4441 
Q 881 4594 1212 4672 
Q 1544 4750 1819 4750 
Q 2544 4750 2975 4387 
Q 3406 4025 3406 3419 
Q 3406 3131 3298 2873 
Q 3191 2616 2906 2266 
Q 2828 2175 2409 1742 
Q 1991 1309 1228 531 
z
" id="DejaVuSans-32" transform="scale(0.015625)"/>
       </defs>
       <use xlink:href="#DejaVuSans-54"/>
       <use x="45.458984" xlink:href="#DejaVuSans-79"/>
       <use x="104.638672" xlink:href="#DejaVuSans-70"/>
       <use x="168.115234" xlink:href="#DejaVuSans-65"/>
       <use x="229.638672" xlink:href="#DejaVuSans-32"/>
       <use x="293.261719" xlink:href="#DejaVuSans-5f"/>
       <use x="343.261719" xlink:href="#DejaVuSans-64"/>
       <use x="406.738281" xlink:href="#DejaVuSans-65"/>
       <use x="468.261719" xlink:href="#DejaVuSans-70"/>
       <use x="531.738281" xlink:href="#DejaVuSans-72"/>
       <use x="570.601562" xlink:href="#DejaVuSans-65"/>
       <use x="632.125" xlink:href="#DejaVuSans-73"/>
       <use x="684.224609" xlink:href="#DejaVuSans-73"/>
       <use x="736.324219" xlink:href="#DejaVuSans-65"/>
       <use x="797.847656" xlink:href="#DejaVuSans-64"/>
      </g>
     </g>
    </g>
    <g id="xtick_8">
     <g id="line2d_8">
      <g>
       <use style="stroke:#000000;stroke-width:0.8;" x="888" xlink:href="#mb0dba8580c" y="640.8"/>
      </g>
     </g>
     <g id="text_8">
      <!-- Type1_social_phobia -->
      <g transform="translate(837.050781 655.398438)scale(0.1 -0.1)">
       <defs>
        <path d="M 1959 3097 
Q 1497 3097 1228 2736 
Q 959 2375 959 1747 
Q 959 1119 1226 758 
Q 1494 397 1959 397 
Q 2419 397 2687 759 
Q 2956 1122 2956 1747 
Q 2956 2369 2687 2733 
Q 2419 3097 1959 3097 
z
M 1959 3584 
Q 2709 3584 3137 3096 
Q 3566 2609 3566 1747 
Q 3566 888 3137 398 
Q 2709 -91 1959 -91 
Q 1206 -91 779 398 
Q 353 888 353 1747 
Q 353 2609 779 3096 
Q 1206 3584 1959 3584 
z
" id="DejaVuSans-6f" transform="scale(0.015625)"/>
        <path d="M 3122 3366 
L 3122 2828 
Q 2878 2963 2633 3030 
Q 2388 3097 2138 3097 
Q 1578 3097 1268 2742 
Q 959 2388 959 1747 
Q 959 1106 1268 751 
Q 1578 397 2138 397 
Q 2388 397 2633 464 
Q 2878 531 3122 666 
L 3122 134 
Q 2881 22 2623 -34 
Q 2366 -91 2075 -91 
Q 1284 -91 818 406 
Q 353 903 353 1747 
Q 353 2603 823 3093 
Q 1294 3584 2113 3584 
Q 2378 3584 2631 3529 
Q 2884 3475 3122 3366 
z
" id="DejaVuSans-63" transform="scale(0.015625)"/>
       </defs>
       <use xlink:href="#DejaVuSans-54"/>
       <use x="45.458984" xlink:href="#DejaVuSans-79"/>
       <use x="104.638672" xlink:href="#DejaVuSans-70"/>
       <use x="168.115234" xlink:href="#DejaVuSans-65"/>
       <use x="229.638672" xlink:href="#DejaVuSans-31"/>
       <use x="293.261719" xlink:href="#DejaVuSans-5f"/>
       <use x="343.261719" xlink:href="#DejaVuSans-73"/>
       <use x="395.361328" xlink:href="#DejaVuSans-6f"/>
       <use x="456.542969" xlink:href="#DejaVuSans-63"/>
       <use x="511.523438" xlink:href="#DejaVuSans-69"/>
       <use x="539.306641" xlink:href="#DejaVuSans-61"/>
       <use x="600.585938" xlink:href="#DejaVuSans-6c"/>
       <use x="628.369141" xlink:href="#DejaVuSans-5f"/>
       <use x="678.369141" xlink:href="#DejaVuSans-70"/>
       <use x="741.845703" xlink:href="#DejaVuSans-68"/>
       <use x="805.224609" xlink:href="#DejaVuSans-6f"/>
       <use x="866.40625" xlink:href="#DejaVuSans-62"/>
       <use x="929.882812" xlink:href="#DejaVuSans-69"/>
       <use x="957.666016" xlink:href="#DejaVuSans-61"/>
      </g>
     </g>
    </g>
    <g id="xtick_9">
     <g id="line2d_9">
      <g>
       <use style="stroke:#000000;stroke-width:0.8;" x="987.2" xlink:href="#mb0dba8580c" y="640.8"/>
      </g>
     </g>
     <g id="text_9">
      <!-- Type2_social_phobia -->
      <g transform="translate(936.250781 655.398438)scale(0.1 -0.1)">
       <use xlink:href="#DejaVuSans-54"/>
       <use x="45.458984" xlink:href="#DejaVuSans-79"/>
       <use x="104.638672" xlink:href="#DejaVuSans-70"/>
       <use x="168.115234" xlink:href="#DejaVuSans-65"/>
       <use x="229.638672" xlink:href="#DejaVuSans-32"/>
       <use x="293.261719" xlink:href="#DejaVuSans-5f"/>
       <use x="343.261719" xlink:href="#DejaVuSans-73"/>
       <use x="395.361328" xlink:href="#DejaVuSans-6f"/>
       <use x="456.542969" xlink:href="#DejaVuSans-63"/>
       <use x="511.523438" xlink:href="#DejaVuSans-69"/>
       <use x="539.306641" xlink:href="#DejaVuSans-61"/>
       <use x="600.585938" xlink:href="#DejaVuSans-6c"/>
       <use x="628.369141" xlink:href="#DejaVuSans-5f"/>
       <use x="678.369141" xlink:href="#DejaVuSans-70"/>
       <use x="741.845703" xlink:href="#DejaVuSans-68"/>
       <use x="805.224609" xlink:href="#DejaVuSans-6f"/>
       <use x="866.40625" xlink:href="#DejaVuSans-62"/>
       <use x="929.882812" xlink:href="#DejaVuSans-69"/>
       <use x="957.666016" xlink:href="#DejaVuSans-61"/>
      </g>
     </g>
    </g>
   </g>
   <g id="matplotlib.axis_2">
    <g id="ytick_1">
     <g id="line2d_10">
      <defs>
       <path d="M 0 0 
L -3.5 0 
" id="mca2955d58b" style="stroke:#000000;stroke-width:0.8;"/>
      </defs>
      <g>
       <use style="stroke:#000000;stroke-width:0.8;" x="144" xlink:href="#mca2955d58b" y="600.738422"/>
      </g>
     </g>
     <g id="text_10">
      <!-- 15 -->
      <g transform="translate(124.275 604.537641)scale(0.1 -0.1)">
       <defs>
        <path d="M 691 4666 
L 3169 4666 
L 3169 4134 
L 1269 4134 
L 1269 2991 
Q 1406 3038 1543 3061 
Q 1681 3084 1819 3084 
Q 2600 3084 3056 2656 
Q 3513 2228 3513 1497 
Q 3513 744 3044 326 
Q 2575 -91 1722 -91 
Q 1428 -91 1123 -41 
Q 819 9 494 109 
L 494 744 
Q 775 591 1075 516 
Q 1375 441 1709 441 
Q 2250 441 2565 725 
Q 2881 1009 2881 1497 
Q 2881 1984 2565 2268 
Q 2250 2553 1709 2553 
Q 1456 2553 1204 2497 
Q 953 2441 691 2322 
L 691 4666 
z
" id="DejaVuSans-35" transform="scale(0.015625)"/>
       </defs>
       <use xlink:href="#DejaVuSans-31"/>
       <use x="63.623047" xlink:href="#DejaVuSans-35"/>
      </g>
     </g>
    </g>
    <g id="ytick_2">
     <g id="line2d_11">
      <g>
       <use style="stroke:#000000;stroke-width:0.8;" x="144" xlink:href="#mca2955d58b" y="523.123299"/>
      </g>
     </g>
     <g id="text_11">
      <!-- 20 -->
      <g transform="translate(124.275 526.922518)scale(0.1 -0.1)">
       <defs>
        <path d="M 2034 4250 
Q 1547 4250 1301 3770 
Q 1056 3291 1056 2328 
Q 1056 1369 1301 889 
Q 1547 409 2034 409 
Q 2525 409 2770 889 
Q 3016 1369 3016 2328 
Q 3016 3291 2770 3770 
Q 2525 4250 2034 4250 
z
M 2034 4750 
Q 2819 4750 3233 4129 
Q 3647 3509 3647 2328 
Q 3647 1150 3233 529 
Q 2819 -91 2034 -91 
Q 1250 -91 836 529 
Q 422 1150 422 2328 
Q 422 3509 836 4129 
Q 1250 4750 2034 4750 
z
" id="DejaVuSans-30" transform="scale(0.015625)"/>
       </defs>
       <use xlink:href="#DejaVuSans-32"/>
       <use x="63.623047" xlink:href="#DejaVuSans-30"/>
      </g>
     </g>
    </g>
    <g id="ytick_3">
     <g id="line2d_12">
      <g>
       <use style="stroke:#000000;stroke-width:0.8;" x="144" xlink:href="#mca2955d58b" y="445.508177"/>
      </g>
     </g>
     <g id="text_12">
      <!-- 25 -->
      <g transform="translate(124.275 449.307396)scale(0.1 -0.1)">
       <use xlink:href="#DejaVuSans-32"/>
       <use x="63.623047" xlink:href="#DejaVuSans-35"/>
      </g>
     </g>
    </g>
    <g id="ytick_4">
     <g id="line2d_13">
      <g>
       <use style="stroke:#000000;stroke-width:0.8;" x="144" xlink:href="#mca2955d58b" y="367.893054"/>
      </g>
     </g>
     <g id="text_13">
      <!-- 30 -->
      <g transform="translate(124.275 371.692273)scale(0.1 -0.1)">
       <defs>
        <path d="M 2597 2516 
Q 3050 2419 3304 2112 
Q 3559 1806 3559 1356 
Q 3559 666 3084 287 
Q 2609 -91 1734 -91 
Q 1441 -91 1130 -33 
Q 819 25 488 141 
L 488 750 
Q 750 597 1062 519 
Q 1375 441 1716 441 
Q 2309 441 2620 675 
Q 2931 909 2931 1356 
Q 2931 1769 2642 2001 
Q 2353 2234 1838 2234 
L 1294 2234 
L 1294 2753 
L 1863 2753 
Q 2328 2753 2575 2939 
Q 2822 3125 2822 3475 
Q 2822 3834 2567 4026 
Q 2313 4219 1838 4219 
Q 1578 4219 1281 4162 
Q 984 4106 628 3988 
L 628 4550 
Q 988 4650 1302 4700 
Q 1616 4750 1894 4750 
Q 2613 4750 3031 4423 
Q 3450 4097 3450 3541 
Q 3450 3153 3228 2886 
Q 3006 2619 2597 2516 
z
" id="DejaVuSans-33" transform="scale(0.015625)"/>
       </defs>
       <use xlink:href="#DejaVuSans-33"/>
       <use x="63.623047" xlink:href="#DejaVuSans-30"/>
      </g>
     </g>
    </g>
    <g id="ytick_5">
     <g id="line2d_14">
      <g>
       <use style="stroke:#000000;stroke-width:0.8;" x="144" xlink:href="#mca2955d58b" y="290.277932"/>
      </g>
     </g>
     <g id="text_14">
      <!-- 35 -->
      <g transform="translate(124.275 294.07715)scale(0.1 -0.1)">
       <use xlink:href="#DejaVuSans-33"/>
       <use x="63.623047" xlink:href="#DejaVuSans-35"/>
      </g>
     </g>
    </g>
    <g id="ytick_6">
     <g id="line2d_15">
      <g>
       <use style="stroke:#000000;stroke-width:0.8;" x="144" xlink:href="#mca2955d58b" y="212.662809"/>
      </g>
     </g>
     <g id="text_15">
      <!-- 40 -->
      <g transform="translate(124.275 216.462028)scale(0.1 -0.1)">
       <defs>
        <path d="M 2419 4116 
L 825 1625 
L 2419 1625 
L 2419 4116 
z
M 2253 4666 
L 3047 4666 
L 3047 1625 
L 3713 1625 
L 3713 1100 
L 3047 1100 
L 3047 0 
L 2419 0 
L 2419 1100 
L 313 1100 
L 313 1709 
L 2253 4666 
z
" id="DejaVuSans-34" transform="scale(0.015625)"/>
       </defs>
       <use xlink:href="#DejaVuSans-34"/>
       <use x="63.623047" xlink:href="#DejaVuSans-30"/>
      </g>
     </g>
    </g>
    <g id="ytick_7">
     <g id="line2d_16">
      <g>
       <use style="stroke:#000000;stroke-width:0.8;" x="144" xlink:href="#mca2955d58b" y="135.047686"/>
      </g>
     </g>
     <g id="text_16">
      <!-- 45 -->
      <g transform="translate(124.275 138.846905)scale(0.1 -0.1)">
       <use xlink:href="#DejaVuSans-34"/>
       <use x="63.623047" xlink:href="#DejaVuSans-35"/>
      </g>
     </g>
    </g>
   </g>
   <g id="line2d_17">
    <path clip-path="url(#p7e23749c5c)" d="M 193.6 414.462128 
L 193.6 298.039444 
" style="fill:none;stroke:#484848;stroke-linecap:square;stroke-width:1.5;"/>
   </g>
   <g id="line2d_18">
    <path clip-path="url(#p7e23749c5c)" d="M 193.6 391.177591 
L 193.6 342.668139 
" style="fill:none;stroke:#484848;stroke-linecap:square;stroke-width:4.5;"/>
   </g>
   <g id="line2d_19">
    <path clip-path="url(#p7e23749c5c)" d="M 292.8 453.269689 
L 292.8 298.039444 
" style="fill:none;stroke:#484848;stroke-linecap:square;stroke-width:1.5;"/>
   </g>
   <g id="line2d_20">
    <path clip-path="url(#p7e23749c5c)" d="M 292.8 396.998725 
L 292.8 344.608517 
" style="fill:none;stroke:#484848;stroke-linecap:square;stroke-width:4.5;"/>
   </g>
   <g id="line2d_21">
    <path clip-path="url(#p7e23749c5c)" d="M 392 445.508177 
L 392 274.754907 
" style="fill:none;stroke:#484848;stroke-linecap:square;stroke-width:1.5;"/>
   </g>
   <g id="line2d_22">
    <path clip-path="url(#p7e23749c5c)" d="M 392 385.356457 
L 392 298.039444 
" style="fill:none;stroke:#484848;stroke-linecap:square;stroke-width:4.5;"/>
   </g>
   <g id="line2d_23">
    <path clip-path="url(#p7e23749c5c)" d="M 451.52 523.123299 
L 530.88 523.123299 
" style="fill:none;stroke:#484848;stroke-linecap:square;stroke-width:1.5;"/>
   </g>
   <g id="line2d_24">
    <path clip-path="url(#p7e23749c5c)" d="M 590.4 492.07725 
L 590.4 228.185833 
" style="fill:none;stroke:#484848;stroke-linecap:square;stroke-width:1.5;"/>
   </g>
   <g id="line2d_25">
    <path clip-path="url(#p7e23749c5c)" d="M 590.4 414.462128 
L 590.4 327.145115 
" style="fill:none;stroke:#484848;stroke-linecap:square;stroke-width:4.5;"/>
   </g>
   <g id="line2d_26">
    <path clip-path="url(#p7e23749c5c)" d="M 689.6 406.700615 
L 689.6 243.708858 
" style="fill:none;stroke:#484848;stroke-linecap:square;stroke-width:1.5;"/>
   </g>
   <g id="line2d_27">
    <path clip-path="url(#p7e23749c5c)" d="M 689.6 352.37003 
L 689.6 298.039444 
" style="fill:none;stroke:#484848;stroke-linecap:square;stroke-width:4.5;"/>
   </g>
   <g id="line2d_28">
    <path clip-path="url(#p7e23749c5c)" d="M 788.8 422.22364 
L 788.8 282.516419 
" style="fill:none;stroke:#484848;stroke-linecap:square;stroke-width:1.5;"/>
   </g>
   <g id="line2d_29">
    <path clip-path="url(#p7e23749c5c)" d="M 788.8 383.416079 
L 788.8 327.145115 
" style="fill:none;stroke:#484848;stroke-linecap:square;stroke-width:4.5;"/>
   </g>
   <g id="line2d_30">
    <path clip-path="url(#p7e23749c5c)" d="M 848.32 523.123299 
L 927.68 523.123299 
" style="fill:none;stroke:#484848;stroke-linecap:square;stroke-width:1.5;"/>
   </g>
   <g id="line2d_31">
    <path clip-path="url(#p7e23749c5c)" d="M 947.52 523.123299 
L 1026.88 523.123299 
" style="fill:none;stroke:#484848;stroke-linecap:square;stroke-width:1.5;"/>
   </g>
   <g id="patch_3">
    <path d="M 144 640.8 
L 144 86.4 
" style="fill:none;stroke:#000000;stroke-linecap:square;stroke-linejoin:miter;stroke-width:0.8;"/>
   </g>
   <g id="patch_4">
    <path d="M 1036.8 640.8 
L 1036.8 86.4 
" style="fill:none;stroke:#000000;stroke-linecap:square;stroke-linejoin:miter;stroke-width:0.8;"/>
   </g>
   <g id="patch_5">
    <path d="M 144 640.8 
L 1036.8 640.8 
" style="fill:none;stroke:#000000;stroke-linecap:square;stroke-linejoin:miter;stroke-width:0.8;"/>
   </g>
   <g id="patch_6">
    <path d="M 144 86.4 
L 1036.8 86.4 
" style="fill:none;stroke:#000000;stroke-linecap:square;stroke-linejoin:miter;stroke-width:0.8;"/>
   </g>
   <g id="PathCollection_1">
    <defs>
     <path d="M 0 1.5 
C 0.397805 1.5 0.77937 1.341951 1.06066 1.06066 
C 1.341951 0.77937 1.5 0.397805 1.5 0 
C 1.5 -0.397805 1.341951 -0.77937 1.06066 -1.06066 
C 0.77937 -1.341951 0.397805 -1.5 0 -1.5 
C -0.397805 -1.5 -0.77937 -1.341951 -1.06066 -1.06066 
C -1.341951 -0.77937 -1.5 -0.397805 -1.5 0 
C -1.5 0.397805 -1.341951 0.77937 -1.06066 1.06066 
C -0.77937 1.341951 -0.397805 1.5 0 1.5 
z
" id="m9eb3cdec59" style="stroke:#484848;"/>
    </defs>
    <g clip-path="url(#p7e23749c5c)">
     <use style="fill:#ffffff;stroke:#484848;" x="193.6" xlink:href="#m9eb3cdec59" y="367.893054"/>
    </g>
   </g>
   <g id="PathCollection_2">
    <g clip-path="url(#p7e23749c5c)">
     <use style="fill:#ffffff;stroke:#484848;" x="292.8" xlink:href="#m9eb3cdec59" y="367.893054"/>
    </g>
   </g>
   <g id="PathCollection_3">
    <g clip-path="url(#p7e23749c5c)">
     <use style="fill:#ffffff;stroke:#484848;" x="392" xlink:href="#m9eb3cdec59" y="332.966249"/>
    </g>
   </g>
   <g id="PathCollection_4">
    <g clip-path="url(#p7e23749c5c)">
     <use style="fill:#ffffff;stroke:#484848;" x="590.4" xlink:href="#m9eb3cdec59" y="391.177591"/>
    </g>
   </g>
   <g id="PathCollection_5">
    <g clip-path="url(#p7e23749c5c)">
     <use style="fill:#ffffff;stroke:#484848;" x="689.6" xlink:href="#m9eb3cdec59" y="329.085493"/>
    </g>
   </g>
   <g id="PathCollection_6">
    <g clip-path="url(#p7e23749c5c)">
     <use style="fill:#ffffff;stroke:#484848;" x="788.8" xlink:href="#m9eb3cdec59" y="352.37003"/>
    </g>
   </g>
   <g id="text_17">
    <!-- Rewards earned per agent type - cooperative context first -->
    <g transform="translate(226.825781 80.4)scale(0.25 -0.25)">
     <defs>
      <path d="M 2841 2188 
Q 3044 2119 3236 1894 
Q 3428 1669 3622 1275 
L 4263 0 
L 3584 0 
L 2988 1197 
Q 2756 1666 2539 1819 
Q 2322 1972 1947 1972 
L 1259 1972 
L 1259 0 
L 628 0 
L 628 4666 
L 2053 4666 
Q 2853 4666 3247 4331 
Q 3641 3997 3641 3322 
Q 3641 2881 3436 2590 
Q 3231 2300 2841 2188 
z
M 1259 4147 
L 1259 2491 
L 2053 2491 
Q 2509 2491 2742 2702 
Q 2975 2913 2975 3322 
Q 2975 3731 2742 3939 
Q 2509 4147 2053 4147 
L 1259 4147 
z
" id="DejaVuSans-52" transform="scale(0.015625)"/>
      <path d="M 269 3500 
L 844 3500 
L 1563 769 
L 2278 3500 
L 2956 3500 
L 3675 769 
L 4391 3500 
L 4966 3500 
L 4050 0 
L 3372 0 
L 2619 2869 
L 1863 0 
L 1184 0 
L 269 3500 
z
" id="DejaVuSans-77" transform="scale(0.015625)"/>
      <path id="DejaVuSans-20" transform="scale(0.015625)"/>
      <path d="M 3513 2113 
L 3513 0 
L 2938 0 
L 2938 2094 
Q 2938 2591 2744 2837 
Q 2550 3084 2163 3084 
Q 1697 3084 1428 2787 
Q 1159 2491 1159 1978 
L 1159 0 
L 581 0 
L 581 3500 
L 1159 3500 
L 1159 2956 
Q 1366 3272 1645 3428 
Q 1925 3584 2291 3584 
Q 2894 3584 3203 3211 
Q 3513 2838 3513 2113 
z
" id="DejaVuSans-6e" transform="scale(0.015625)"/>
      <path d="M 2906 1791 
Q 2906 2416 2648 2759 
Q 2391 3103 1925 3103 
Q 1463 3103 1205 2759 
Q 947 2416 947 1791 
Q 947 1169 1205 825 
Q 1463 481 1925 481 
Q 2391 481 2648 825 
Q 2906 1169 2906 1791 
z
M 3481 434 
Q 3481 -459 3084 -895 
Q 2688 -1331 1869 -1331 
Q 1566 -1331 1297 -1286 
Q 1028 -1241 775 -1147 
L 775 -588 
Q 1028 -725 1275 -790 
Q 1522 -856 1778 -856 
Q 2344 -856 2625 -561 
Q 2906 -266 2906 331 
L 2906 616 
Q 2728 306 2450 153 
Q 2172 0 1784 0 
Q 1141 0 747 490 
Q 353 981 353 1791 
Q 353 2603 747 3093 
Q 1141 3584 1784 3584 
Q 2172 3584 2450 3431 
Q 2728 3278 2906 2969 
L 2906 3500 
L 3481 3500 
L 3481 434 
z
" id="DejaVuSans-67" transform="scale(0.015625)"/>
      <path d="M 313 2009 
L 1997 2009 
L 1997 1497 
L 313 1497 
L 313 2009 
z
" id="DejaVuSans-2d" transform="scale(0.015625)"/>
      <path d="M 191 3500 
L 800 3500 
L 1894 563 
L 2988 3500 
L 3597 3500 
L 2284 0 
L 1503 0 
L 191 3500 
z
" id="DejaVuSans-76" transform="scale(0.015625)"/>
      <path d="M 3513 3500 
L 2247 1797 
L 3578 0 
L 2900 0 
L 1881 1375 
L 863 0 
L 184 0 
L 1544 1831 
L 300 3500 
L 978 3500 
L 1906 2253 
L 2834 3500 
L 3513 3500 
z
" id="DejaVuSans-78" transform="scale(0.015625)"/>
      <path d="M 2375 4863 
L 2375 4384 
L 1825 4384 
Q 1516 4384 1395 4259 
Q 1275 4134 1275 3809 
L 1275 3500 
L 2222 3500 
L 2222 3053 
L 1275 3053 
L 1275 0 
L 697 0 
L 697 3053 
L 147 3053 
L 147 3500 
L 697 3500 
L 697 3744 
Q 697 4328 969 4595 
Q 1241 4863 1831 4863 
L 2375 4863 
z
" id="DejaVuSans-66" transform="scale(0.015625)"/>
     </defs>
     <use xlink:href="#DejaVuSans-52"/>
     <use x="64.982422" xlink:href="#DejaVuSans-65"/>
     <use x="126.505859" xlink:href="#DejaVuSans-77"/>
     <use x="208.292969" xlink:href="#DejaVuSans-61"/>
     <use x="269.572266" xlink:href="#DejaVuSans-72"/>
     <use x="308.935547" xlink:href="#DejaVuSans-64"/>
     <use x="372.412109" xlink:href="#DejaVuSans-73"/>
     <use x="424.511719" xlink:href="#DejaVuSans-20"/>
     <use x="456.298828" xlink:href="#DejaVuSans-65"/>
     <use x="517.822266" xlink:href="#DejaVuSans-61"/>
     <use x="579.101562" xlink:href="#DejaVuSans-72"/>
     <use x="618.464844" xlink:href="#DejaVuSans-6e"/>
     <use x="681.84375" xlink:href="#DejaVuSans-65"/>
     <use x="743.367188" xlink:href="#DejaVuSans-64"/>
     <use x="806.84375" xlink:href="#DejaVuSans-20"/>
     <use x="838.630859" xlink:href="#DejaVuSans-70"/>
     <use x="902.107422" xlink:href="#DejaVuSans-65"/>
     <use x="963.630859" xlink:href="#DejaVuSans-72"/>
     <use x="1004.744141" xlink:href="#DejaVuSans-20"/>
     <use x="1036.53125" xlink:href="#DejaVuSans-61"/>
     <use x="1097.810547" xlink:href="#DejaVuSans-67"/>
     <use x="1161.287109" xlink:href="#DejaVuSans-65"/>
     <use x="1222.810547" xlink:href="#DejaVuSans-6e"/>
     <use x="1286.189453" xlink:href="#DejaVuSans-74"/>
     <use x="1325.398438" xlink:href="#DejaVuSans-20"/>
     <use x="1357.185547" xlink:href="#DejaVuSans-74"/>
     <use x="1396.394531" xlink:href="#DejaVuSans-79"/>
     <use x="1455.574219" xlink:href="#DejaVuSans-70"/>
     <use x="1519.050781" xlink:href="#DejaVuSans-65"/>
     <use x="1580.574219" xlink:href="#DejaVuSans-20"/>
     <use x="1612.361328" xlink:href="#DejaVuSans-2d"/>
     <use x="1648.445312" xlink:href="#DejaVuSans-20"/>
     <use x="1680.232422" xlink:href="#DejaVuSans-63"/>
     <use x="1735.212891" xlink:href="#DejaVuSans-6f"/>
     <use x="1796.394531" xlink:href="#DejaVuSans-6f"/>
     <use x="1857.576172" xlink:href="#DejaVuSans-70"/>
     <use x="1921.052734" xlink:href="#DejaVuSans-65"/>
     <use x="1982.576172" xlink:href="#DejaVuSans-72"/>
     <use x="2023.689453" xlink:href="#DejaVuSans-61"/>
     <use x="2084.96875" xlink:href="#DejaVuSans-74"/>
     <use x="2124.177734" xlink:href="#DejaVuSans-69"/>
     <use x="2151.960938" xlink:href="#DejaVuSans-76"/>
     <use x="2211.140625" xlink:href="#DejaVuSans-65"/>
     <use x="2272.664062" xlink:href="#DejaVuSans-20"/>
     <use x="2304.451172" xlink:href="#DejaVuSans-63"/>
     <use x="2359.431641" xlink:href="#DejaVuSans-6f"/>
     <use x="2420.613281" xlink:href="#DejaVuSans-6e"/>
     <use x="2483.992188" xlink:href="#DejaVuSans-74"/>
     <use x="2523.201172" xlink:href="#DejaVuSans-65"/>
     <use x="2582.974609" xlink:href="#DejaVuSans-78"/>
     <use x="2642.154297" xlink:href="#DejaVuSans-74"/>
     <use x="2681.363281" xlink:href="#DejaVuSans-20"/>
     <use x="2713.150391" xlink:href="#DejaVuSans-66"/>
     <use x="2748.355469" xlink:href="#DejaVuSans-69"/>
     <use x="2776.138672" xlink:href="#DejaVuSans-72"/>
     <use x="2817.251953" xlink:href="#DejaVuSans-73"/>
     <use x="2869.351562" xlink:href="#DejaVuSans-74"/>
    </g>
   </g>
  </g>
 </g>
 <defs>
  <clipPath id="p7e23749c5c">
   <rect height="554.4" width="892.8" x="144" y="86.4"/>
  </clipPath>
 </defs>
</svg>
