<?xml version="1.0" encoding="utf-8" standalone="no"?>
<!DOCTYPE svg PUBLIC "-//W3C//DTD SVG 1.1//EN"
  "http://www.w3.org/Graphics/SVG/1.1/DTD/svg11.dtd">
<svg height="570.96pt" version="1.1" viewBox="0 0 921.6 570.96" width="921.6pt" xmlns="http://www.w3.org/2000/svg" xmlns:xlink="http://www.w3.org/1999/xlink">
 <metadata>
  <rdf:RDF xmlns:cc="http://creativecommons.org/ns#" xmlns:dc="http://purl.org/dc/elements/1.1/" xmlns:rdf="http://www.w3.org/1999/02/22-rdf-syntax-ns#">
   <cc:Work>
    <dc:type rdf:resource="http://purl.org/dc/dcmitype/StillImage"/>
    <dc:date>2024-06-19T10:28:39.493706</dc:date>
    <dc:format>image/svg+xml</dc:format>
    <dc:creator>
     <cc:Agent>
      <dc:title>Matplotlib v3.4.3, https://matplotlib.org/</dc:title>
     </cc:Agent>
    </dc:creator>
   </cc:Work>
  </rdf:RDF>
 </metadata>
 <defs>
  <style type="text/css">*{stroke-linecap:butt;stroke-linejoin:round;}</style>
 </defs>
 <g id="figure_1">
  <g id="patch_1">
   <path d="M 0 570.96 
L 921.6 570.96 
L 921.6 0 
L 0 0 
z
" style="fill:#ffffff;"/>
  </g>
  <g id="axes_1">
   <g id="patch_2">
    <path d="M 54.016 526.26652 
L 912.96 526.26652 
L 912.96 28.395744 
L 54.016 28.395744 
z
" style="fill:#ffffff;"/>
   </g>
   <g id="PathCollection_1">
    <path clip-path="url(#p2b70ad99fd)" d="M 102.819636 296.822619 
L 96.695912 309.070068 
L 108.943361 309.070068 
z
" style="fill:#0000ff;stroke:#0000ff;"/>
    <path clip-path="url(#p2b70ad99fd)" d="M 122.341091 306.541939 
L 128.464815 294.29449 
L 116.217367 294.29449 
z
" style="fill:#ff0000;stroke:#ff0000;"/>
    <path clip-path="url(#p2b70ad99fd)" d="M 141.862545 310.165614 
L 135.738821 322.413063 
L 147.98627 322.413063 
z
" style="fill:#0000ff;stroke:#0000ff;"/>
    <path clip-path="url(#p2b70ad99fd)" d="M 161.384 114.952108 
L 155.260276 127.199556 
L 167.507724 127.199556 
z
" style="fill:#0000ff;stroke:#0000ff;"/>
    <path clip-path="url(#p2b70ad99fd)" d="M 180.905455 66.898031 
L 174.78173 79.14548 
L 187.029179 79.14548 
z
" style="fill:#0000ff;stroke:#0000ff;"/>
    <path clip-path="url(#p2b70ad99fd)" d="M 200.426909 55.429129 
L 194.303185 67.676577 
L 206.550633 67.676577 
z
" style="fill:#0000ff;stroke:#0000ff;"/>
    <path clip-path="url(#p2b70ad99fd)" d="M 219.948364 49.712828 
L 213.824639 61.960277 
L 226.072088 61.960277 
z
" style="fill:#0000ff;stroke:#0000ff;"/>
    <path clip-path="url(#p2b70ad99fd)" d="M 239.469818 45.904349 
L 233.346094 58.151798 
L 245.593543 58.151798 
z
" style="fill:#0000ff;stroke:#0000ff;"/>
    <path clip-path="url(#p2b70ad99fd)" d="M 258.991273 219.222757 
L 265.114997 206.975308 
L 252.867548 206.975308 
z
" style="fill:#ff0000;stroke:#ff0000;"/>
    <path clip-path="url(#p2b70ad99fd)" d="M 278.512727 237.014541 
L 272.389003 249.261989 
L 284.636452 249.261989 
z
" style="fill:#0000ff;stroke:#0000ff;"/>
    <path clip-path="url(#p2b70ad99fd)" d="M 298.034182 79.800305 
L 291.910457 92.047754 
L 304.157906 92.047754 
z
" style="fill:#0000ff;stroke:#0000ff;"/>
    <path clip-path="url(#p2b70ad99fd)" d="M 317.555636 51.76675 
L 311.431912 64.014199 
L 323.679361 64.014199 
z
" style="fill:#0000ff;stroke:#0000ff;"/>
    <path clip-path="url(#p2b70ad99fd)" d="M 337.077091 47.166786 
L 330.953367 59.414235 
L 343.200815 59.414235 
z
" style="fill:#0000ff;stroke:#0000ff;"/>
    <path clip-path="url(#p2b70ad99fd)" d="M 356.598545 45.180223 
L 350.474821 57.427671 
L 362.72227 57.427671 
z
" style="fill:#0000ff;stroke:#0000ff;"/>
    <path clip-path="url(#p2b70ad99fd)" d="M 376.12 207.275067 
L 382.243724 195.027618 
L 369.996276 195.027618 
z
" style="fill:#ff0000;stroke:#ff0000;"/>
    <path clip-path="url(#p2b70ad99fd)" d="M 395.641455 223.386579 
L 389.51773 235.634028 
L 401.765179 235.634028 
z
" style="fill:#0000ff;stroke:#0000ff;"/>
    <path clip-path="url(#p2b70ad99fd)" d="M 415.162909 77.955636 
L 409.039185 90.203085 
L 421.286633 90.203085 
z
" style="fill:#0000ff;stroke:#0000ff;"/>
    <path clip-path="url(#p2b70ad99fd)" d="M 434.684364 51.645344 
L 428.560639 63.892793 
L 440.808088 63.892793 
z
" style="fill:#0000ff;stroke:#0000ff;"/>
    <path clip-path="url(#p2b70ad99fd)" d="M 454.205818 47.566227 
L 448.082094 59.813675 
L 460.329543 59.813675 
z
" style="fill:#0000ff;stroke:#0000ff;"/>
    <path clip-path="url(#p2b70ad99fd)" d="M 473.727273 81.957209 
L 479.850997 69.709761 
L 467.603548 69.709761 
z
" style="fill:#ff0000;stroke:#ff0000;"/>
    <path clip-path="url(#p2b70ad99fd)" d="M 493.248727 237.351255 
L 499.372452 225.103806 
L 487.125003 225.103806 
z
" style="fill:#ff0000;stroke:#ff0000;"/>
    <path clip-path="url(#p2b70ad99fd)" d="M 512.770182 425.496703 
L 518.893906 413.249254 
L 506.646457 413.249254 
z
" style="fill:#ff0000;stroke:#ff0000;"/>
    <path clip-path="url(#p2b70ad99fd)" d="M 532.291636 494.065939 
L 538.415361 481.81849 
L 526.167912 481.81849 
z
" style="fill:#ff0000;stroke:#ff0000;"/>
    <path clip-path="url(#p2b70ad99fd)" d="M 551.813091 510.573493 
L 557.936815 498.326045 
L 545.689367 498.326045 
z
" style="fill:#ff0000;stroke:#ff0000;"/>
    <path clip-path="url(#p2b70ad99fd)" d="M 571.334545 516.183972 
L 577.45827 503.936523 
L 565.210821 503.936523 
z
" style="fill:#ff0000;stroke:#ff0000;"/>
    <path clip-path="url(#p2b70ad99fd)" d="M 590.856 360.031687 
L 584.732276 372.279136 
L 596.979724 372.279136 
z
" style="fill:#0000ff;stroke:#0000ff;"/>
    <path clip-path="url(#p2b70ad99fd)" d="M 610.377455 333.39917 
L 616.501179 321.151721 
L 604.25373 321.151721 
z
" style="fill:#ff0000;stroke:#ff0000;"/>
    <path clip-path="url(#p2b70ad99fd)" d="M 629.898909 296.474856 
L 623.775185 308.722304 
L 636.022633 308.722304 
z
" style="fill:#0000ff;stroke:#0000ff;"/>
    <path clip-path="url(#p2b70ad99fd)" d="M 649.420364 119.541116 
L 643.296639 131.788565 
L 655.544088 131.788565 
z
" style="fill:#0000ff;stroke:#0000ff;"/>
    <path clip-path="url(#p2b70ad99fd)" d="M 668.941818 213.297004 
L 675.065543 201.049556 
L 662.818094 201.049556 
z
" style="fill:#ff0000;stroke:#ff0000;"/>
    <path clip-path="url(#p2b70ad99fd)" d="M 688.463273 227.030277 
L 682.339548 239.277726 
L 694.586997 239.277726 
z
" style="fill:#0000ff;stroke:#0000ff;"/>
    <path clip-path="url(#p2b70ad99fd)" d="M 707.984727 251.702756 
L 714.108452 239.455308 
L 701.861003 239.455308 
z
" style="fill:#ff0000;stroke:#ff0000;"/>
    <path clip-path="url(#p2b70ad99fd)" d="M 727.506182 249.028374 
L 721.382457 261.275822 
L 733.629906 261.275822 
z
" style="fill:#0000ff;stroke:#0000ff;"/>
    <path clip-path="url(#p2b70ad99fd)" d="M 747.027636 260.859106 
L 753.151361 248.611657 
L 740.903912 248.611657 
z
" style="fill:#ff0000;stroke:#ff0000;"/>
    <path clip-path="url(#p2b70ad99fd)" d="M 766.549091 409.814988 
L 772.672815 397.567539 
L 760.425367 397.567539 
z
" style="fill:#ff0000;stroke:#ff0000;"/>
    <path clip-path="url(#p2b70ad99fd)" d="M 786.070545 469.419253 
L 792.19427 457.171804 
L 779.946821 457.171804 
z
" style="fill:#ff0000;stroke:#ff0000;"/>
    <path clip-path="url(#p2b70ad99fd)" d="M 805.592 345.553539 
L 799.468276 357.800988 
L 811.715724 357.800988 
z
" style="fill:#0000ff;stroke:#0000ff;"/>
    <path clip-path="url(#p2b70ad99fd)" d="M 825.113455 313.647688 
L 831.237179 301.400239 
L 818.98973 301.400239 
z
" style="fill:#ff0000;stroke:#ff0000;"/>
    <path clip-path="url(#p2b70ad99fd)" d="M 844.634909 427.458701 
L 850.758633 415.211252 
L 838.511185 415.211252 
z
" style="fill:#ff0000;stroke:#ff0000;"/>
    <path clip-path="url(#p2b70ad99fd)" d="M 864.156364 283.454856 
L 870.280088 271.207408 
L 858.032639 271.207408 
z
" style="fill:#ff0000;stroke:#ff0000;"/>
   </g>
   <g id="patch_3">
    <path clip-path="url(#p2b70ad99fd)" d="M 93.058909 526.26652 
L 93.058909 28.395744 
L 483.488 28.395744 
L 483.488 526.26652 
z
" style="fill:#b0e0e6;opacity:0.3;"/>
   </g>
   <g id="patch_4">
    <path clip-path="url(#p2b70ad99fd)" d="M 483.488 526.26652 
L 483.488 28.395744 
L 873.917091 28.395744 
L 873.917091 526.26652 
z
" style="fill:#ff7f50;opacity:0.3;"/>
   </g>
   <g id="matplotlib.axis_1">
    <g id="xtick_1">
     <g id="line2d_1">
      <defs>
       <path d="M 0 0 
L 0 3.5 
" id="mebb89ab20b" style="stroke:#000000;stroke-width:0.8;"/>
      </defs>
      <g>
       <use style="stroke:#000000;stroke-width:0.8;" x="93.058909" xlink:href="#mebb89ab20b" y="526.26652"/>
      </g>
     </g>
     <g id="text_1">
      <!-- 0 -->
      <g transform="translate(88.287034 544.664176)scale(0.15 -0.15)">
       <defs>
        <path d="M 2034 4250 
Q 1547 4250 1301 3770 
Q 1056 3291 1056 2328 
Q 1056 1369 1301 889 
Q 1547 409 2034 409 
Q 2525 409 2770 889 
Q 3016 1369 3016 2328 
Q 3016 3291 2770 3770 
Q 2525 4250 2034 4250 
z
M 2034 4750 
Q 2819 4750 3233 4129 
Q 3647 3509 3647 2328 
Q 3647 1150 3233 529 
Q 2819 -91 2034 -91 
Q 1250 -91 836 529 
Q 422 1150 422 2328 
Q 422 3509 836 4129 
Q 1250 4750 2034 4750 
z
" id="DejaVuSans-30" transform="scale(0.015625)"/>
       </defs>
       <use xlink:href="#DejaVuSans-30"/>
      </g>
     </g>
    </g>
    <g id="xtick_2">
     <g id="line2d_2">
      <g>
       <use style="stroke:#000000;stroke-width:0.8;" x="112.580364" xlink:href="#mebb89ab20b" y="526.26652"/>
      </g>
     </g>
     <g id="text_2">
      <!-- 1 -->
      <g transform="translate(107.808489 544.664176)scale(0.15 -0.15)">
       <defs>
        <path d="M 794 531 
L 1825 531 
L 1825 4091 
L 703 3866 
L 703 4441 
L 1819 4666 
L 2450 4666 
L 2450 531 
L 3481 531 
L 3481 0 
L 794 0 
L 794 531 
z
" id="DejaVuSans-31" transform="scale(0.015625)"/>
       </defs>
       <use xlink:href="#DejaVuSans-31"/>
      </g>
     </g>
    </g>
    <g id="xtick_3">
     <g id="line2d_3">
      <g>
       <use style="stroke:#000000;stroke-width:0.8;" x="132.101818" xlink:href="#mebb89ab20b" y="526.26652"/>
      </g>
     </g>
     <g id="text_3">
      <!-- 2 -->
      <g transform="translate(127.329943 544.664176)scale(0.15 -0.15)">
       <defs>
        <path d="M 1228 531 
L 3431 531 
L 3431 0 
L 469 0 
L 469 531 
Q 828 903 1448 1529 
Q 2069 2156 2228 2338 
Q 2531 2678 2651 2914 
Q 2772 3150 2772 3378 
Q 2772 3750 2511 3984 
Q 2250 4219 1831 4219 
Q 1534 4219 1204 4116 
Q 875 4013 500 3803 
L 500 4441 
Q 881 4594 1212 4672 
Q 1544 4750 1819 4750 
Q 2544 4750 2975 4387 
Q 3406 4025 3406 3419 
Q 3406 3131 3298 2873 
Q 3191 2616 2906 2266 
Q 2828 2175 2409 1742 
Q 1991 1309 1228 531 
z
" id="DejaVuSans-32" transform="scale(0.015625)"/>
       </defs>
       <use xlink:href="#DejaVuSans-32"/>
      </g>
     </g>
    </g>
    <g id="xtick_4">
     <g id="line2d_4">
      <g>
       <use style="stroke:#000000;stroke-width:0.8;" x="151.623273" xlink:href="#mebb89ab20b" y="526.26652"/>
      </g>
     </g>
     <g id="text_4">
      <!-- 3 -->
      <g transform="translate(146.851398 544.664176)scale(0.15 -0.15)">
       <defs>
        <path d="M 2597 2516 
Q 3050 2419 3304 2112 
Q 3559 1806 3559 1356 
Q 3559 666 3084 287 
Q 2609 -91 1734 -91 
Q 1441 -91 1130 -33 
Q 819 25 488 141 
L 488 750 
Q 750 597 1062 519 
Q 1375 441 1716 441 
Q 2309 441 2620 675 
Q 2931 909 2931 1356 
Q 2931 1769 2642 2001 
Q 2353 2234 1838 2234 
L 1294 2234 
L 1294 2753 
L 1863 2753 
Q 2328 2753 2575 2939 
Q 2822 3125 2822 3475 
Q 2822 3834 2567 4026 
Q 2313 4219 1838 4219 
Q 1578 4219 1281 4162 
Q 984 4106 628 3988 
L 628 4550 
Q 988 4650 1302 4700 
Q 1616 4750 1894 4750 
Q 2613 4750 3031 4423 
Q 3450 4097 3450 3541 
Q 3450 3153 3228 2886 
Q 3006 2619 2597 2516 
z
" id="DejaVuSans-33" transform="scale(0.015625)"/>
       </defs>
       <use xlink:href="#DejaVuSans-33"/>
      </g>
     </g>
    </g>
    <g id="xtick_5">
     <g id="line2d_5">
      <g>
       <use style="stroke:#000000;stroke-width:0.8;" x="171.144727" xlink:href="#mebb89ab20b" y="526.26652"/>
      </g>
     </g>
     <g id="text_5">
      <!-- 4 -->
      <g transform="translate(166.372852 544.664176)scale(0.15 -0.15)">
       <defs>
        <path d="M 2419 4116 
L 825 1625 
L 2419 1625 
L 2419 4116 
z
M 2253 4666 
L 3047 4666 
L 3047 1625 
L 3713 1625 
L 3713 1100 
L 3047 1100 
L 3047 0 
L 2419 0 
L 2419 1100 
L 313 1100 
L 313 1709 
L 2253 4666 
z
" id="DejaVuSans-34" transform="scale(0.015625)"/>
       </defs>
       <use xlink:href="#DejaVuSans-34"/>
      </g>
     </g>
    </g>
    <g id="xtick_6">
     <g id="line2d_6">
      <g>
       <use style="stroke:#000000;stroke-width:0.8;" x="190.666182" xlink:href="#mebb89ab20b" y="526.26652"/>
      </g>
     </g>
     <g id="text_6">
      <!-- 5 -->
      <g transform="translate(185.894307 544.664176)scale(0.15 -0.15)">
       <defs>
        <path d="M 691 4666 
L 3169 4666 
L 3169 4134 
L 1269 4134 
L 1269 2991 
Q 1406 3038 1543 3061 
Q 1681 3084 1819 3084 
Q 2600 3084 3056 2656 
Q 3513 2228 3513 1497 
Q 3513 744 3044 326 
Q 2575 -91 1722 -91 
Q 1428 -91 1123 -41 
Q 819 9 494 109 
L 494 744 
Q 775 591 1075 516 
Q 1375 441 1709 441 
Q 2250 441 2565 725 
Q 2881 1009 2881 1497 
Q 2881 1984 2565 2268 
Q 2250 2553 1709 2553 
Q 1456 2553 1204 2497 
Q 953 2441 691 2322 
L 691 4666 
z
" id="DejaVuSans-35" transform="scale(0.015625)"/>
       </defs>
       <use xlink:href="#DejaVuSans-35"/>
      </g>
     </g>
    </g>
    <g id="xtick_7">
     <g id="line2d_7">
      <g>
       <use style="stroke:#000000;stroke-width:0.8;" x="210.187636" xlink:href="#mebb89ab20b" y="526.26652"/>
      </g>
     </g>
     <g id="text_7">
      <!-- 6 -->
      <g transform="translate(205.415761 544.664176)scale(0.15 -0.15)">
       <defs>
        <path d="M 2113 2584 
Q 1688 2584 1439 2293 
Q 1191 2003 1191 1497 
Q 1191 994 1439 701 
Q 1688 409 2113 409 
Q 2538 409 2786 701 
Q 3034 994 3034 1497 
Q 3034 2003 2786 2293 
Q 2538 2584 2113 2584 
z
M 3366 4563 
L 3366 3988 
Q 3128 4100 2886 4159 
Q 2644 4219 2406 4219 
Q 1781 4219 1451 3797 
Q 1122 3375 1075 2522 
Q 1259 2794 1537 2939 
Q 1816 3084 2150 3084 
Q 2853 3084 3261 2657 
Q 3669 2231 3669 1497 
Q 3669 778 3244 343 
Q 2819 -91 2113 -91 
Q 1303 -91 875 529 
Q 447 1150 447 2328 
Q 447 3434 972 4092 
Q 1497 4750 2381 4750 
Q 2619 4750 2861 4703 
Q 3103 4656 3366 4563 
z
" id="DejaVuSans-36" transform="scale(0.015625)"/>
       </defs>
       <use xlink:href="#DejaVuSans-36"/>
      </g>
     </g>
    </g>
    <g id="xtick_8">
     <g id="line2d_8">
      <g>
       <use style="stroke:#000000;stroke-width:0.8;" x="229.709091" xlink:href="#mebb89ab20b" y="526.26652"/>
      </g>
     </g>
     <g id="text_8">
      <!-- 7 -->
      <g transform="translate(224.937216 544.664176)scale(0.15 -0.15)">
       <defs>
        <path d="M 525 4666 
L 3525 4666 
L 3525 4397 
L 1831 0 
L 1172 0 
L 2766 4134 
L 525 4134 
L 525 4666 
z
" id="DejaVuSans-37" transform="scale(0.015625)"/>
       </defs>
       <use xlink:href="#DejaVuSans-37"/>
      </g>
     </g>
    </g>
    <g id="xtick_9">
     <g id="line2d_9">
      <g>
       <use style="stroke:#000000;stroke-width:0.8;" x="249.230545" xlink:href="#mebb89ab20b" y="526.26652"/>
      </g>
     </g>
     <g id="text_9">
      <!-- 8 -->
      <g transform="translate(244.45867 544.664176)scale(0.15 -0.15)">
       <defs>
        <path d="M 2034 2216 
Q 1584 2216 1326 1975 
Q 1069 1734 1069 1313 
Q 1069 891 1326 650 
Q 1584 409 2034 409 
Q 2484 409 2743 651 
Q 3003 894 3003 1313 
Q 3003 1734 2745 1975 
Q 2488 2216 2034 2216 
z
M 1403 2484 
Q 997 2584 770 2862 
Q 544 3141 544 3541 
Q 544 4100 942 4425 
Q 1341 4750 2034 4750 
Q 2731 4750 3128 4425 
Q 3525 4100 3525 3541 
Q 3525 3141 3298 2862 
Q 3072 2584 2669 2484 
Q 3125 2378 3379 2068 
Q 3634 1759 3634 1313 
Q 3634 634 3220 271 
Q 2806 -91 2034 -91 
Q 1263 -91 848 271 
Q 434 634 434 1313 
Q 434 1759 690 2068 
Q 947 2378 1403 2484 
z
M 1172 3481 
Q 1172 3119 1398 2916 
Q 1625 2713 2034 2713 
Q 2441 2713 2670 2916 
Q 2900 3119 2900 3481 
Q 2900 3844 2670 4047 
Q 2441 4250 2034 4250 
Q 1625 4250 1398 4047 
Q 1172 3844 1172 3481 
z
" id="DejaVuSans-38" transform="scale(0.015625)"/>
       </defs>
       <use xlink:href="#DejaVuSans-38"/>
      </g>
     </g>
    </g>
    <g id="xtick_10">
     <g id="line2d_10">
      <g>
       <use style="stroke:#000000;stroke-width:0.8;" x="268.752" xlink:href="#mebb89ab20b" y="526.26652"/>
      </g>
     </g>
     <g id="text_10">
      <!-- 9 -->
      <g transform="translate(263.980125 544.664176)scale(0.15 -0.15)">
       <defs>
        <path d="M 703 97 
L 703 672 
Q 941 559 1184 500 
Q 1428 441 1663 441 
Q 2288 441 2617 861 
Q 2947 1281 2994 2138 
Q 2813 1869 2534 1725 
Q 2256 1581 1919 1581 
Q 1219 1581 811 2004 
Q 403 2428 403 3163 
Q 403 3881 828 4315 
Q 1253 4750 1959 4750 
Q 2769 4750 3195 4129 
Q 3622 3509 3622 2328 
Q 3622 1225 3098 567 
Q 2575 -91 1691 -91 
Q 1453 -91 1209 -44 
Q 966 3 703 97 
z
M 1959 2075 
Q 2384 2075 2632 2365 
Q 2881 2656 2881 3163 
Q 2881 3666 2632 3958 
Q 2384 4250 1959 4250 
Q 1534 4250 1286 3958 
Q 1038 3666 1038 3163 
Q 1038 2656 1286 2365 
Q 1534 2075 1959 2075 
z
" id="DejaVuSans-39" transform="scale(0.015625)"/>
       </defs>
       <use xlink:href="#DejaVuSans-39"/>
      </g>
     </g>
    </g>
    <g id="xtick_11">
     <g id="line2d_11">
      <g>
       <use style="stroke:#000000;stroke-width:0.8;" x="288.273455" xlink:href="#mebb89ab20b" y="526.26652"/>
      </g>
     </g>
     <g id="text_11">
      <!-- 10 -->
      <g transform="translate(278.729705 544.664176)scale(0.15 -0.15)">
       <use xlink:href="#DejaVuSans-31"/>
       <use x="63.623047" xlink:href="#DejaVuSans-30"/>
      </g>
     </g>
    </g>
    <g id="xtick_12">
     <g id="line2d_12">
      <g>
       <use style="stroke:#000000;stroke-width:0.8;" x="307.794909" xlink:href="#mebb89ab20b" y="526.26652"/>
      </g>
     </g>
     <g id="text_12">
      <!-- 11 -->
      <g transform="translate(298.251159 544.664176)scale(0.15 -0.15)">
       <use xlink:href="#DejaVuSans-31"/>
       <use x="63.623047" xlink:href="#DejaVuSans-31"/>
      </g>
     </g>
    </g>
    <g id="xtick_13">
     <g id="line2d_13">
      <g>
       <use style="stroke:#000000;stroke-width:0.8;" x="327.316364" xlink:href="#mebb89ab20b" y="526.26652"/>
      </g>
     </g>
     <g id="text_13">
      <!-- 12 -->
      <g transform="translate(317.772614 544.664176)scale(0.15 -0.15)">
       <use xlink:href="#DejaVuSans-31"/>
       <use x="63.623047" xlink:href="#DejaVuSans-32"/>
      </g>
     </g>
    </g>
    <g id="xtick_14">
     <g id="line2d_14">
      <g>
       <use style="stroke:#000000;stroke-width:0.8;" x="346.837818" xlink:href="#mebb89ab20b" y="526.26652"/>
      </g>
     </g>
     <g id="text_14">
      <!-- 13 -->
      <g transform="translate(337.294068 544.664176)scale(0.15 -0.15)">
       <use xlink:href="#DejaVuSans-31"/>
       <use x="63.623047" xlink:href="#DejaVuSans-33"/>
      </g>
     </g>
    </g>
    <g id="xtick_15">
     <g id="line2d_15">
      <g>
       <use style="stroke:#000000;stroke-width:0.8;" x="366.359273" xlink:href="#mebb89ab20b" y="526.26652"/>
      </g>
     </g>
     <g id="text_15">
      <!-- 14 -->
      <g transform="translate(356.815523 544.664176)scale(0.15 -0.15)">
       <use xlink:href="#DejaVuSans-31"/>
       <use x="63.623047" xlink:href="#DejaVuSans-34"/>
      </g>
     </g>
    </g>
    <g id="xtick_16">
     <g id="line2d_16">
      <g>
       <use style="stroke:#000000;stroke-width:0.8;" x="385.880727" xlink:href="#mebb89ab20b" y="526.26652"/>
      </g>
     </g>
     <g id="text_16">
      <!-- 15 -->
      <g transform="translate(376.336977 544.664176)scale(0.15 -0.15)">
       <use xlink:href="#DejaVuSans-31"/>
       <use x="63.623047" xlink:href="#DejaVuSans-35"/>
      </g>
     </g>
    </g>
    <g id="xtick_17">
     <g id="line2d_17">
      <g>
       <use style="stroke:#000000;stroke-width:0.8;" x="405.402182" xlink:href="#mebb89ab20b" y="526.26652"/>
      </g>
     </g>
     <g id="text_17">
      <!-- 16 -->
      <g transform="translate(395.858432 544.664176)scale(0.15 -0.15)">
       <use xlink:href="#DejaVuSans-31"/>
       <use x="63.623047" xlink:href="#DejaVuSans-36"/>
      </g>
     </g>
    </g>
    <g id="xtick_18">
     <g id="line2d_18">
      <g>
       <use style="stroke:#000000;stroke-width:0.8;" x="424.923636" xlink:href="#mebb89ab20b" y="526.26652"/>
      </g>
     </g>
     <g id="text_18">
      <!-- 17 -->
      <g transform="translate(415.379886 544.664176)scale(0.15 -0.15)">
       <use xlink:href="#DejaVuSans-31"/>
       <use x="63.623047" xlink:href="#DejaVuSans-37"/>
      </g>
     </g>
    </g>
    <g id="xtick_19">
     <g id="line2d_19">
      <g>
       <use style="stroke:#000000;stroke-width:0.8;" x="444.445091" xlink:href="#mebb89ab20b" y="526.26652"/>
      </g>
     </g>
     <g id="text_19">
      <!-- 18 -->
      <g transform="translate(434.901341 544.664176)scale(0.15 -0.15)">
       <use xlink:href="#DejaVuSans-31"/>
       <use x="63.623047" xlink:href="#DejaVuSans-38"/>
      </g>
     </g>
    </g>
    <g id="xtick_20">
     <g id="line2d_20">
      <g>
       <use style="stroke:#000000;stroke-width:0.8;" x="463.966545" xlink:href="#mebb89ab20b" y="526.26652"/>
      </g>
     </g>
     <g id="text_20">
      <!-- 19 -->
      <g transform="translate(454.422795 544.664176)scale(0.15 -0.15)">
       <use xlink:href="#DejaVuSans-31"/>
       <use x="63.623047" xlink:href="#DejaVuSans-39"/>
      </g>
     </g>
    </g>
    <g id="xtick_21">
     <g id="line2d_21">
      <g>
       <use style="stroke:#000000;stroke-width:0.8;" x="483.488" xlink:href="#mebb89ab20b" y="526.26652"/>
      </g>
     </g>
     <g id="text_21">
      <!-- 20 -->
      <g transform="translate(473.94425 544.664176)scale(0.15 -0.15)">
       <use xlink:href="#DejaVuSans-32"/>
       <use x="63.623047" xlink:href="#DejaVuSans-30"/>
      </g>
     </g>
    </g>
    <g id="xtick_22">
     <g id="line2d_22">
      <g>
       <use style="stroke:#000000;stroke-width:0.8;" x="503.009455" xlink:href="#mebb89ab20b" y="526.26652"/>
      </g>
     </g>
     <g id="text_22">
      <!-- 21 -->
      <g transform="translate(493.465705 544.664176)scale(0.15 -0.15)">
       <use xlink:href="#DejaVuSans-32"/>
       <use x="63.623047" xlink:href="#DejaVuSans-31"/>
      </g>
     </g>
    </g>
    <g id="xtick_23">
     <g id="line2d_23">
      <g>
       <use style="stroke:#000000;stroke-width:0.8;" x="522.530909" xlink:href="#mebb89ab20b" y="526.26652"/>
      </g>
     </g>
     <g id="text_23">
      <!-- 22 -->
      <g transform="translate(512.987159 544.664176)scale(0.15 -0.15)">
       <use xlink:href="#DejaVuSans-32"/>
       <use x="63.623047" xlink:href="#DejaVuSans-32"/>
      </g>
     </g>
    </g>
    <g id="xtick_24">
     <g id="line2d_24">
      <g>
       <use style="stroke:#000000;stroke-width:0.8;" x="542.052364" xlink:href="#mebb89ab20b" y="526.26652"/>
      </g>
     </g>
     <g id="text_24">
      <!-- 23 -->
      <g transform="translate(532.508614 544.664176)scale(0.15 -0.15)">
       <use xlink:href="#DejaVuSans-32"/>
       <use x="63.623047" xlink:href="#DejaVuSans-33"/>
      </g>
     </g>
    </g>
    <g id="xtick_25">
     <g id="line2d_25">
      <g>
       <use style="stroke:#000000;stroke-width:0.8;" x="561.573818" xlink:href="#mebb89ab20b" y="526.26652"/>
      </g>
     </g>
     <g id="text_25">
      <!-- 24 -->
      <g transform="translate(552.030068 544.664176)scale(0.15 -0.15)">
       <use xlink:href="#DejaVuSans-32"/>
       <use x="63.623047" xlink:href="#DejaVuSans-34"/>
      </g>
     </g>
    </g>
    <g id="xtick_26">
     <g id="line2d_26">
      <g>
       <use style="stroke:#000000;stroke-width:0.8;" x="581.095273" xlink:href="#mebb89ab20b" y="526.26652"/>
      </g>
     </g>
     <g id="text_26">
      <!-- 25 -->
      <g transform="translate(571.551523 544.664176)scale(0.15 -0.15)">
       <use xlink:href="#DejaVuSans-32"/>
       <use x="63.623047" xlink:href="#DejaVuSans-35"/>
      </g>
     </g>
    </g>
    <g id="xtick_27">
     <g id="line2d_27">
      <g>
       <use style="stroke:#000000;stroke-width:0.8;" x="600.616727" xlink:href="#mebb89ab20b" y="526.26652"/>
      </g>
     </g>
     <g id="text_27">
      <!-- 26 -->
      <g transform="translate(591.072977 544.664176)scale(0.15 -0.15)">
       <use xlink:href="#DejaVuSans-32"/>
       <use x="63.623047" xlink:href="#DejaVuSans-36"/>
      </g>
     </g>
    </g>
    <g id="xtick_28">
     <g id="line2d_28">
      <g>
       <use style="stroke:#000000;stroke-width:0.8;" x="620.138182" xlink:href="#mebb89ab20b" y="526.26652"/>
      </g>
     </g>
     <g id="text_28">
      <!-- 27 -->
      <g transform="translate(610.594432 544.664176)scale(0.15 -0.15)">
       <use xlink:href="#DejaVuSans-32"/>
       <use x="63.623047" xlink:href="#DejaVuSans-37"/>
      </g>
     </g>
    </g>
    <g id="xtick_29">
     <g id="line2d_29">
      <g>
       <use style="stroke:#000000;stroke-width:0.8;" x="639.659636" xlink:href="#mebb89ab20b" y="526.26652"/>
      </g>
     </g>
     <g id="text_29">
      <!-- 28 -->
      <g transform="translate(630.115886 544.664176)scale(0.15 -0.15)">
       <use xlink:href="#DejaVuSans-32"/>
       <use x="63.623047" xlink:href="#DejaVuSans-38"/>
      </g>
     </g>
    </g>
    <g id="xtick_30">
     <g id="line2d_30">
      <g>
       <use style="stroke:#000000;stroke-width:0.8;" x="659.181091" xlink:href="#mebb89ab20b" y="526.26652"/>
      </g>
     </g>
     <g id="text_30">
      <!-- 29 -->
      <g transform="translate(649.637341 544.664176)scale(0.15 -0.15)">
       <use xlink:href="#DejaVuSans-32"/>
       <use x="63.623047" xlink:href="#DejaVuSans-39"/>
      </g>
     </g>
    </g>
    <g id="xtick_31">
     <g id="line2d_31">
      <g>
       <use style="stroke:#000000;stroke-width:0.8;" x="678.702545" xlink:href="#mebb89ab20b" y="526.26652"/>
      </g>
     </g>
     <g id="text_31">
      <!-- 30 -->
      <g transform="translate(669.158795 544.664176)scale(0.15 -0.15)">
       <use xlink:href="#DejaVuSans-33"/>
       <use x="63.623047" xlink:href="#DejaVuSans-30"/>
      </g>
     </g>
    </g>
    <g id="xtick_32">
     <g id="line2d_32">
      <g>
       <use style="stroke:#000000;stroke-width:0.8;" x="698.224" xlink:href="#mebb89ab20b" y="526.26652"/>
      </g>
     </g>
     <g id="text_32">
      <!-- 31 -->
      <g transform="translate(688.68025 544.664176)scale(0.15 -0.15)">
       <use xlink:href="#DejaVuSans-33"/>
       <use x="63.623047" xlink:href="#DejaVuSans-31"/>
      </g>
     </g>
    </g>
    <g id="xtick_33">
     <g id="line2d_33">
      <g>
       <use style="stroke:#000000;stroke-width:0.8;" x="717.745455" xlink:href="#mebb89ab20b" y="526.26652"/>
      </g>
     </g>
     <g id="text_33">
      <!-- 32 -->
      <g transform="translate(708.201705 544.664176)scale(0.15 -0.15)">
       <use xlink:href="#DejaVuSans-33"/>
       <use x="63.623047" xlink:href="#DejaVuSans-32"/>
      </g>
     </g>
    </g>
    <g id="xtick_34">
     <g id="line2d_34">
      <g>
       <use style="stroke:#000000;stroke-width:0.8;" x="737.266909" xlink:href="#mebb89ab20b" y="526.26652"/>
      </g>
     </g>
     <g id="text_34">
      <!-- 33 -->
      <g transform="translate(727.723159 544.664176)scale(0.15 -0.15)">
       <use xlink:href="#DejaVuSans-33"/>
       <use x="63.623047" xlink:href="#DejaVuSans-33"/>
      </g>
     </g>
    </g>
    <g id="xtick_35">
     <g id="line2d_35">
      <g>
       <use style="stroke:#000000;stroke-width:0.8;" x="756.788364" xlink:href="#mebb89ab20b" y="526.26652"/>
      </g>
     </g>
     <g id="text_35">
      <!-- 34 -->
      <g transform="translate(747.244614 544.664176)scale(0.15 -0.15)">
       <use xlink:href="#DejaVuSans-33"/>
       <use x="63.623047" xlink:href="#DejaVuSans-34"/>
      </g>
     </g>
    </g>
    <g id="xtick_36">
     <g id="line2d_36">
      <g>
       <use style="stroke:#000000;stroke-width:0.8;" x="776.309818" xlink:href="#mebb89ab20b" y="526.26652"/>
      </g>
     </g>
     <g id="text_36">
      <!-- 35 -->
      <g transform="translate(766.766068 544.664176)scale(0.15 -0.15)">
       <use xlink:href="#DejaVuSans-33"/>
       <use x="63.623047" xlink:href="#DejaVuSans-35"/>
      </g>
     </g>
    </g>
    <g id="xtick_37">
     <g id="line2d_37">
      <g>
       <use style="stroke:#000000;stroke-width:0.8;" x="795.831273" xlink:href="#mebb89ab20b" y="526.26652"/>
      </g>
     </g>
     <g id="text_37">
      <!-- 36 -->
      <g transform="translate(786.287523 544.664176)scale(0.15 -0.15)">
       <use xlink:href="#DejaVuSans-33"/>
       <use x="63.623047" xlink:href="#DejaVuSans-36"/>
      </g>
     </g>
    </g>
    <g id="xtick_38">
     <g id="line2d_38">
      <g>
       <use style="stroke:#000000;stroke-width:0.8;" x="815.352727" xlink:href="#mebb89ab20b" y="526.26652"/>
      </g>
     </g>
     <g id="text_38">
      <!-- 37 -->
      <g transform="translate(805.808977 544.664176)scale(0.15 -0.15)">
       <use xlink:href="#DejaVuSans-33"/>
       <use x="63.623047" xlink:href="#DejaVuSans-37"/>
      </g>
     </g>
    </g>
    <g id="xtick_39">
     <g id="line2d_39">
      <g>
       <use style="stroke:#000000;stroke-width:0.8;" x="834.874182" xlink:href="#mebb89ab20b" y="526.26652"/>
      </g>
     </g>
     <g id="text_39">
      <!-- 38 -->
      <g transform="translate(825.330432 544.664176)scale(0.15 -0.15)">
       <use xlink:href="#DejaVuSans-33"/>
       <use x="63.623047" xlink:href="#DejaVuSans-38"/>
      </g>
     </g>
    </g>
    <g id="xtick_40">
     <g id="line2d_40">
      <g>
       <use style="stroke:#000000;stroke-width:0.8;" x="854.395636" xlink:href="#mebb89ab20b" y="526.26652"/>
      </g>
     </g>
     <g id="text_40">
      <!-- 39 -->
      <g transform="translate(844.851886 544.664176)scale(0.15 -0.15)">
       <use xlink:href="#DejaVuSans-33"/>
       <use x="63.623047" xlink:href="#DejaVuSans-39"/>
      </g>
     </g>
    </g>
    <g id="text_41">
     <!-- $t$ -->
     <g transform="translate(479.488 566.980583)scale(0.2 -0.2)">
      <defs>
       <path d="M 2706 3500 
L 2619 3053 
L 1472 3053 
L 1100 1153 
Q 1081 1047 1072 975 
Q 1063 903 1063 863 
Q 1063 663 1183 572 
Q 1303 481 1569 481 
L 2150 481 
L 2053 0 
L 1503 0 
Q 991 0 739 200 
Q 488 400 488 806 
Q 488 878 497 964 
Q 506 1050 525 1153 
L 897 3053 
L 409 3053 
L 500 3500 
L 978 3500 
L 1172 4494 
L 1747 4494 
L 1556 3500 
L 2706 3500 
z
" id="DejaVuSans-Oblique-74" transform="scale(0.015625)"/>
      </defs>
      <use transform="translate(0 0.78125)" xlink:href="#DejaVuSans-Oblique-74"/>
     </g>
    </g>
   </g>
   <g id="matplotlib.axis_2">
    <g id="ytick_1">
     <g id="line2d_41">
      <defs>
       <path d="M 0 0 
L -3.5 0 
" id="m41accbc708" style="stroke:#000000;stroke-width:0.8;"/>
      </defs>
      <g>
       <use style="stroke:#000000;stroke-width:0.8;" x="54.016" xlink:href="#m41accbc708" y="526.26652"/>
      </g>
     </g>
     <g id="text_42">
      <!-- 0.0 -->
      <g transform="translate(23.161313 531.965348)scale(0.15 -0.15)">
       <defs>
        <path d="M 684 794 
L 1344 794 
L 1344 0 
L 684 0 
L 684 794 
z
" id="DejaVuSans-2e" transform="scale(0.015625)"/>
       </defs>
       <use xlink:href="#DejaVuSans-30"/>
       <use x="63.623047" xlink:href="#DejaVuSans-2e"/>
       <use x="95.410156" xlink:href="#DejaVuSans-30"/>
      </g>
     </g>
    </g>
    <g id="ytick_2">
     <g id="line2d_42">
      <g>
       <use style="stroke:#000000;stroke-width:0.8;" x="54.016" xlink:href="#m41accbc708" y="426.692365"/>
      </g>
     </g>
     <g id="text_43">
      <!-- 0.2 -->
      <g transform="translate(23.161313 432.391193)scale(0.15 -0.15)">
       <use xlink:href="#DejaVuSans-30"/>
       <use x="63.623047" xlink:href="#DejaVuSans-2e"/>
       <use x="95.410156" xlink:href="#DejaVuSans-32"/>
      </g>
     </g>
    </g>
    <g id="ytick_3">
     <g id="line2d_43">
      <g>
       <use style="stroke:#000000;stroke-width:0.8;" x="54.016" xlink:href="#m41accbc708" y="327.11821"/>
      </g>
     </g>
     <g id="text_44">
      <!-- 0.4 -->
      <g transform="translate(23.161313 332.817038)scale(0.15 -0.15)">
       <use xlink:href="#DejaVuSans-30"/>
       <use x="63.623047" xlink:href="#DejaVuSans-2e"/>
       <use x="95.410156" xlink:href="#DejaVuSans-34"/>
      </g>
     </g>
    </g>
    <g id="ytick_4">
     <g id="line2d_44">
      <g>
       <use style="stroke:#000000;stroke-width:0.8;" x="54.016" xlink:href="#m41accbc708" y="227.544054"/>
      </g>
     </g>
     <g id="text_45">
      <!-- 0.6 -->
      <g transform="translate(23.161313 233.242883)scale(0.15 -0.15)">
       <use xlink:href="#DejaVuSans-30"/>
       <use x="63.623047" xlink:href="#DejaVuSans-2e"/>
       <use x="95.410156" xlink:href="#DejaVuSans-36"/>
      </g>
     </g>
    </g>
    <g id="ytick_5">
     <g id="line2d_45">
      <g>
       <use style="stroke:#000000;stroke-width:0.8;" x="54.016" xlink:href="#m41accbc708" y="127.969899"/>
      </g>
     </g>
     <g id="text_46">
      <!-- 0.8 -->
      <g transform="translate(23.161313 133.668727)scale(0.15 -0.15)">
       <use xlink:href="#DejaVuSans-30"/>
       <use x="63.623047" xlink:href="#DejaVuSans-2e"/>
       <use x="95.410156" xlink:href="#DejaVuSans-38"/>
      </g>
     </g>
    </g>
    <g id="ytick_6">
     <g id="line2d_46">
      <g>
       <use style="stroke:#000000;stroke-width:0.8;" x="54.016" xlink:href="#m41accbc708" y="28.395744"/>
      </g>
     </g>
     <g id="text_47">
      <!-- 1.0 -->
      <g transform="translate(23.161313 34.094572)scale(0.15 -0.15)">
       <use xlink:href="#DejaVuSans-31"/>
       <use x="63.623047" xlink:href="#DejaVuSans-2e"/>
       <use x="95.410156" xlink:href="#DejaVuSans-30"/>
      </g>
     </g>
    </g>
    <g id="text_48">
     <!-- $p(context)$ -->
     <g transform="translate(14.961313 329.431132)rotate(-90)scale(0.2 -0.2)">
      <defs>
       <path d="M 3175 2156 
Q 3175 2616 2975 2859 
Q 2775 3103 2400 3103 
Q 2144 3103 1911 2972 
Q 1678 2841 1497 2591 
Q 1319 2344 1212 1994 
Q 1106 1644 1106 1300 
Q 1106 863 1306 627 
Q 1506 391 1875 391 
Q 2147 391 2380 519 
Q 2613 647 2778 891 
Q 2956 1147 3065 1494 
Q 3175 1841 3175 2156 
z
M 1394 2969 
Q 1625 3272 1939 3428 
Q 2253 3584 2638 3584 
Q 3175 3584 3472 3232 
Q 3769 2881 3769 2247 
Q 3769 1728 3584 1258 
Q 3400 788 3053 416 
Q 2822 169 2531 39 
Q 2241 -91 1919 -91 
Q 1547 -91 1294 64 
Q 1041 219 916 525 
L 556 -1331 
L -19 -1331 
L 922 3500 
L 1497 3500 
L 1394 2969 
z
" id="DejaVuSans-Oblique-70" transform="scale(0.015625)"/>
       <path d="M 1984 4856 
Q 1566 4138 1362 3434 
Q 1159 2731 1159 2009 
Q 1159 1288 1364 580 
Q 1569 -128 1984 -844 
L 1484 -844 
Q 1016 -109 783 600 
Q 550 1309 550 2009 
Q 550 2706 781 3412 
Q 1013 4119 1484 4856 
L 1984 4856 
z
" id="DejaVuSans-28" transform="scale(0.015625)"/>
       <path d="M 3431 3366 
L 3316 2797 
Q 3109 2947 2876 3022 
Q 2644 3097 2394 3097 
Q 2119 3097 1870 3000 
Q 1622 2903 1453 2725 
Q 1184 2453 1037 2087 
Q 891 1722 891 1331 
Q 891 859 1127 628 
Q 1363 397 1844 397 
Q 2081 397 2348 469 
Q 2616 541 2906 684 
L 2797 116 
Q 2547 13 2283 -39 
Q 2019 -91 1741 -91 
Q 1044 -91 669 257 
Q 294 606 294 1253 
Q 294 1797 489 2255 
Q 684 2713 1069 3078 
Q 1331 3328 1684 3456 
Q 2038 3584 2456 3584 
Q 2700 3584 2940 3529 
Q 3181 3475 3431 3366 
z
" id="DejaVuSans-Oblique-63" transform="scale(0.015625)"/>
       <path d="M 1625 -91 
Q 1009 -91 651 289 
Q 294 669 294 1325 
Q 294 1706 417 2101 
Q 541 2497 738 2766 
Q 1047 3184 1428 3384 
Q 1809 3584 2291 3584 
Q 2888 3584 3255 3212 
Q 3622 2841 3622 2241 
Q 3622 1825 3500 1412 
Q 3378 1000 3181 728 
Q 2875 309 2494 109 
Q 2113 -91 1625 -91 
z
M 891 1344 
Q 891 869 1089 633 
Q 1288 397 1691 397 
Q 2269 397 2648 901 
Q 3028 1406 3028 2181 
Q 3028 2634 2825 2865 
Q 2622 3097 2228 3097 
Q 1903 3097 1650 2945 
Q 1397 2794 1197 2484 
Q 1050 2253 970 1956 
Q 891 1659 891 1344 
z
" id="DejaVuSans-Oblique-6f" transform="scale(0.015625)"/>
       <path d="M 3566 2113 
L 3156 0 
L 2578 0 
L 2988 2091 
Q 3016 2238 3031 2350 
Q 3047 2463 3047 2528 
Q 3047 2791 2881 2937 
Q 2716 3084 2419 3084 
Q 1956 3084 1622 2776 
Q 1288 2469 1184 1941 
L 800 0 
L 225 0 
L 903 3500 
L 1478 3500 
L 1363 2950 
Q 1603 3253 1940 3418 
Q 2278 3584 2650 3584 
Q 3113 3584 3367 3334 
Q 3622 3084 3622 2631 
Q 3622 2519 3608 2391 
Q 3594 2263 3566 2113 
z
" id="DejaVuSans-Oblique-6e" transform="scale(0.015625)"/>
       <path d="M 3078 2063 
Q 3088 2113 3092 2166 
Q 3097 2219 3097 2272 
Q 3097 2653 2873 2875 
Q 2650 3097 2266 3097 
Q 1838 3097 1509 2826 
Q 1181 2556 1013 2059 
L 3078 2063 
z
M 3578 1613 
L 903 1613 
Q 884 1494 878 1425 
Q 872 1356 872 1306 
Q 872 872 1139 634 
Q 1406 397 1894 397 
Q 2269 397 2603 481 
Q 2938 566 3225 728 
L 3116 159 
Q 2806 34 2476 -28 
Q 2147 -91 1806 -91 
Q 1078 -91 686 257 
Q 294 606 294 1247 
Q 294 1794 489 2264 
Q 684 2734 1063 3103 
Q 1306 3334 1642 3459 
Q 1978 3584 2356 3584 
Q 2950 3584 3301 3228 
Q 3653 2872 3653 2272 
Q 3653 2128 3634 1964 
Q 3616 1800 3578 1613 
z
" id="DejaVuSans-Oblique-65" transform="scale(0.015625)"/>
       <path d="M 3841 3500 
L 2234 1784 
L 3219 0 
L 2559 0 
L 1819 1388 
L 531 0 
L -166 0 
L 1556 1844 
L 641 3500 
L 1300 3500 
L 1972 2234 
L 3144 3500 
L 3841 3500 
z
" id="DejaVuSans-Oblique-78" transform="scale(0.015625)"/>
       <path d="M 513 4856 
L 1013 4856 
Q 1481 4119 1714 3412 
Q 1947 2706 1947 2009 
Q 1947 1309 1714 600 
Q 1481 -109 1013 -844 
L 513 -844 
Q 928 -128 1133 580 
Q 1338 1288 1338 2009 
Q 1338 2731 1133 3434 
Q 928 4138 513 4856 
z
" id="DejaVuSans-29" transform="scale(0.015625)"/>
      </defs>
      <use transform="translate(0 0.125)" xlink:href="#DejaVuSans-Oblique-70"/>
      <use transform="translate(63.476562 0.125)" xlink:href="#DejaVuSans-28"/>
      <use transform="translate(102.490234 0.125)" xlink:href="#DejaVuSans-Oblique-63"/>
      <use transform="translate(157.470703 0.125)" xlink:href="#DejaVuSans-Oblique-6f"/>
      <use transform="translate(218.652344 0.125)" xlink:href="#DejaVuSans-Oblique-6e"/>
      <use transform="translate(282.03125 0.125)" xlink:href="#DejaVuSans-Oblique-74"/>
      <use transform="translate(321.240234 0.125)" xlink:href="#DejaVuSans-Oblique-65"/>
      <use transform="translate(382.763672 0.125)" xlink:href="#DejaVuSans-Oblique-78"/>
      <use transform="translate(441.943359 0.125)" xlink:href="#DejaVuSans-Oblique-74"/>
      <use transform="translate(481.152344 0.125)" xlink:href="#DejaVuSans-29"/>
     </g>
    </g>
   </g>
   <g id="line2d_47">
    <path clip-path="url(#p2b70ad99fd)" d="M 93.058909 476.479442 
L 112.580364 129.413244 
L 132.101818 471.423185 
L 151.623273 161.155493 
L 171.144727 80.996171 
L 190.666182 65.04734 
L 210.187636 58.058366 
L 229.709091 53.614739 
L 249.230545 50.441408 
L 268.752 375.756657 
L 288.273455 110.519873 
L 307.794909 61.328186 
L 327.316364 54.452763 
L 346.837818 52.128257 
L 366.359273 50.479637 
L 385.880727 351.823049 
L 405.402182 107.197557 
L 424.923636 60.961164 
L 444.445091 54.576973 
L 463.966545 52.802929 
L 483.488 98.864041 
L 503.009455 363.59102 
L 522.530909 475.154936 
L 542.052364 500.729493 
L 561.573818 508.170045 
L 581.095273 511.95045 
L 600.616727 220.360373 
L 620.138182 434.190518 
L 639.659636 171.006642 
L 659.181091 80.323039 
L 678.702545 334.023521 
L 698.224 132.284481 
L 717.745455 358.873583 
L 737.266909 151.430613 
L 756.788364 358.04015 
L 776.309818 449.342377 
L 795.831273 477.248679 
L 815.352727 226.105847 
L 834.874182 388.94208 
L 854.395636 453.727873 
" style="fill:none;stroke:#0000ff;stroke-linecap:square;stroke-width:1.5;"/>
    <defs>
     <path d="M 0 3 
C 0.795609 3 1.55874 2.683901 2.12132 2.12132 
C 2.683901 1.55874 3 0.795609 3 0 
C 3 -0.795609 2.683901 -1.55874 2.12132 -2.12132 
C 1.55874 -2.683901 0.795609 -3 0 -3 
C -0.795609 -3 -1.55874 -2.683901 -2.12132 -2.12132 
C -2.683901 -1.55874 -3 -0.795609 -3 0 
C -3 0.795609 -2.683901 1.55874 -2.12132 2.12132 
C -1.55874 2.683901 -0.795609 3 0 3 
z
" id="mfe8fe135c3" style="stroke:#0000ff;"/>
    </defs>
    <g clip-path="url(#p2b70ad99fd)">
     <use style="fill:#0000ff;stroke:#0000ff;" x="93.058909" xlink:href="#mfe8fe135c3" y="476.479442"/>
     <use style="fill:#0000ff;stroke:#0000ff;" x="112.580364" xlink:href="#mfe8fe135c3" y="129.413244"/>
     <use style="fill:#0000ff;stroke:#0000ff;" x="132.101818" xlink:href="#mfe8fe135c3" y="471.423185"/>
     <use style="fill:#0000ff;stroke:#0000ff;" x="151.623273" xlink:href="#mfe8fe135c3" y="161.155493"/>
     <use style="fill:#0000ff;stroke:#0000ff;" x="171.144727" xlink:href="#mfe8fe135c3" y="80.996171"/>
     <use style="fill:#0000ff;stroke:#0000ff;" x="190.666182" xlink:href="#mfe8fe135c3" y="65.04734"/>
     <use style="fill:#0000ff;stroke:#0000ff;" x="210.187636" xlink:href="#mfe8fe135c3" y="58.058366"/>
     <use style="fill:#0000ff;stroke:#0000ff;" x="229.709091" xlink:href="#mfe8fe135c3" y="53.614739"/>
     <use style="fill:#0000ff;stroke:#0000ff;" x="249.230545" xlink:href="#mfe8fe135c3" y="50.441408"/>
     <use style="fill:#0000ff;stroke:#0000ff;" x="268.752" xlink:href="#mfe8fe135c3" y="375.756657"/>
     <use style="fill:#0000ff;stroke:#0000ff;" x="288.273455" xlink:href="#mfe8fe135c3" y="110.519873"/>
     <use style="fill:#0000ff;stroke:#0000ff;" x="307.794909" xlink:href="#mfe8fe135c3" y="61.328186"/>
     <use style="fill:#0000ff;stroke:#0000ff;" x="327.316364" xlink:href="#mfe8fe135c3" y="54.452763"/>
     <use style="fill:#0000ff;stroke:#0000ff;" x="346.837818" xlink:href="#mfe8fe135c3" y="52.128257"/>
     <use style="fill:#0000ff;stroke:#0000ff;" x="366.359273" xlink:href="#mfe8fe135c3" y="50.479637"/>
     <use style="fill:#0000ff;stroke:#0000ff;" x="385.880727" xlink:href="#mfe8fe135c3" y="351.823049"/>
     <use style="fill:#0000ff;stroke:#0000ff;" x="405.402182" xlink:href="#mfe8fe135c3" y="107.197557"/>
     <use style="fill:#0000ff;stroke:#0000ff;" x="424.923636" xlink:href="#mfe8fe135c3" y="60.961164"/>
     <use style="fill:#0000ff;stroke:#0000ff;" x="444.445091" xlink:href="#mfe8fe135c3" y="54.576973"/>
     <use style="fill:#0000ff;stroke:#0000ff;" x="463.966545" xlink:href="#mfe8fe135c3" y="52.802929"/>
     <use style="fill:#0000ff;stroke:#0000ff;" x="483.488" xlink:href="#mfe8fe135c3" y="98.864041"/>
     <use style="fill:#0000ff;stroke:#0000ff;" x="503.009455" xlink:href="#mfe8fe135c3" y="363.59102"/>
     <use style="fill:#0000ff;stroke:#0000ff;" x="522.530909" xlink:href="#mfe8fe135c3" y="475.154936"/>
     <use style="fill:#0000ff;stroke:#0000ff;" x="542.052364" xlink:href="#mfe8fe135c3" y="500.729493"/>
     <use style="fill:#0000ff;stroke:#0000ff;" x="561.573818" xlink:href="#mfe8fe135c3" y="508.170045"/>
     <use style="fill:#0000ff;stroke:#0000ff;" x="581.095273" xlink:href="#mfe8fe135c3" y="511.95045"/>
     <use style="fill:#0000ff;stroke:#0000ff;" x="600.616727" xlink:href="#mfe8fe135c3" y="220.360373"/>
     <use style="fill:#0000ff;stroke:#0000ff;" x="620.138182" xlink:href="#mfe8fe135c3" y="434.190518"/>
     <use style="fill:#0000ff;stroke:#0000ff;" x="639.659636" xlink:href="#mfe8fe135c3" y="171.006642"/>
     <use style="fill:#0000ff;stroke:#0000ff;" x="659.181091" xlink:href="#mfe8fe135c3" y="80.323039"/>
     <use style="fill:#0000ff;stroke:#0000ff;" x="678.702545" xlink:href="#mfe8fe135c3" y="334.023521"/>
     <use style="fill:#0000ff;stroke:#0000ff;" x="698.224" xlink:href="#mfe8fe135c3" y="132.284481"/>
     <use style="fill:#0000ff;stroke:#0000ff;" x="717.745455" xlink:href="#mfe8fe135c3" y="358.873583"/>
     <use style="fill:#0000ff;stroke:#0000ff;" x="737.266909" xlink:href="#mfe8fe135c3" y="151.430613"/>
     <use style="fill:#0000ff;stroke:#0000ff;" x="756.788364" xlink:href="#mfe8fe135c3" y="358.04015"/>
     <use style="fill:#0000ff;stroke:#0000ff;" x="776.309818" xlink:href="#mfe8fe135c3" y="449.342377"/>
     <use style="fill:#0000ff;stroke:#0000ff;" x="795.831273" xlink:href="#mfe8fe135c3" y="477.248679"/>
     <use style="fill:#0000ff;stroke:#0000ff;" x="815.352727" xlink:href="#mfe8fe135c3" y="226.105847"/>
     <use style="fill:#0000ff;stroke:#0000ff;" x="834.874182" xlink:href="#mfe8fe135c3" y="388.94208"/>
     <use style="fill:#0000ff;stroke:#0000ff;" x="854.395636" xlink:href="#mfe8fe135c3" y="453.727873"/>
    </g>
   </g>
   <g id="line2d_48">
    <path clip-path="url(#p2b70ad99fd)" d="M 93.058909 177.756977 
L 112.580364 501.995945 
L 132.101818 191.604666 
L 151.623273 482.576768 
L 171.144727 516.981727 
L 190.666182 521.588049 
L 210.187636 522.943491 
L 229.709091 523.665624 
L 249.230545 524.134319 
L 268.752 309.126958 
L 288.273455 500.55029 
L 307.794909 520.464275 
L 327.316364 522.738545 
L 346.837818 523.262405 
L 366.359273 523.569572 
L 385.880727 320.808304 
L 405.402182 499.884367 
L 424.923636 519.669452 
L 444.445091 522.068089 
L 463.966545 522.563133 
L 483.488 497.271207 
L 503.009455 284.569941 
L 522.530909 148.270907 
L 542.052364 110.644999 
L 561.573818 95.297308 
L 581.095273 85.594778 
L 600.616727 427.997264 
L 620.138182 186.931678 
L 639.659636 450.749505 
L 659.181091 506.916138 
L 678.702545 301.281899 
L 698.224 473.508133 
L 717.745455 267.918494 
L 737.266909 458.958858 
L 756.788364 266.020936 
L 776.309818 162.017759 
L 795.831273 128.458755 
L 815.352727 403.298019 
L 834.874182 228.770617 
L 854.395636 155.103204 
" style="fill:none;stroke:#ff0000;stroke-linecap:square;stroke-width:1.5;"/>
    <defs>
     <path d="M 0 3 
C 0.795609 3 1.55874 2.683901 2.12132 2.12132 
C 2.683901 1.55874 3 0.795609 3 0 
C 3 -0.795609 2.683901 -1.55874 2.12132 -2.12132 
C 1.55874 -2.683901 0.795609 -3 0 -3 
C -0.795609 -3 -1.55874 -2.683901 -2.12132 -2.12132 
C -2.683901 -1.55874 -3 -0.795609 -3 0 
C -3 0.795609 -2.683901 1.55874 -2.12132 2.12132 
C -1.55874 2.683901 -0.795609 3 0 3 
z
" id="m92c8571b3e" style="stroke:#ff0000;"/>
    </defs>
    <g clip-path="url(#p2b70ad99fd)">
     <use style="fill:#ff0000;stroke:#ff0000;" x="93.058909" xlink:href="#m92c8571b3e" y="177.756977"/>
     <use style="fill:#ff0000;stroke:#ff0000;" x="112.580364" xlink:href="#m92c8571b3e" y="501.995945"/>
     <use style="fill:#ff0000;stroke:#ff0000;" x="132.101818" xlink:href="#m92c8571b3e" y="191.604666"/>
     <use style="fill:#ff0000;stroke:#ff0000;" x="151.623273" xlink:href="#m92c8571b3e" y="482.576768"/>
     <use style="fill:#ff0000;stroke:#ff0000;" x="171.144727" xlink:href="#m92c8571b3e" y="516.981727"/>
     <use style="fill:#ff0000;stroke:#ff0000;" x="190.666182" xlink:href="#m92c8571b3e" y="521.588049"/>
     <use style="fill:#ff0000;stroke:#ff0000;" x="210.187636" xlink:href="#m92c8571b3e" y="522.943491"/>
     <use style="fill:#ff0000;stroke:#ff0000;" x="229.709091" xlink:href="#m92c8571b3e" y="523.665624"/>
     <use style="fill:#ff0000;stroke:#ff0000;" x="249.230545" xlink:href="#m92c8571b3e" y="524.134319"/>
     <use style="fill:#ff0000;stroke:#ff0000;" x="268.752" xlink:href="#m92c8571b3e" y="309.126958"/>
     <use style="fill:#ff0000;stroke:#ff0000;" x="288.273455" xlink:href="#m92c8571b3e" y="500.55029"/>
     <use style="fill:#ff0000;stroke:#ff0000;" x="307.794909" xlink:href="#m92c8571b3e" y="520.464275"/>
     <use style="fill:#ff0000;stroke:#ff0000;" x="327.316364" xlink:href="#m92c8571b3e" y="522.738545"/>
     <use style="fill:#ff0000;stroke:#ff0000;" x="346.837818" xlink:href="#m92c8571b3e" y="523.262405"/>
     <use style="fill:#ff0000;stroke:#ff0000;" x="366.359273" xlink:href="#m92c8571b3e" y="523.569572"/>
     <use style="fill:#ff0000;stroke:#ff0000;" x="385.880727" xlink:href="#m92c8571b3e" y="320.808304"/>
     <use style="fill:#ff0000;stroke:#ff0000;" x="405.402182" xlink:href="#m92c8571b3e" y="499.884367"/>
     <use style="fill:#ff0000;stroke:#ff0000;" x="424.923636" xlink:href="#m92c8571b3e" y="519.669452"/>
     <use style="fill:#ff0000;stroke:#ff0000;" x="444.445091" xlink:href="#m92c8571b3e" y="522.068089"/>
     <use style="fill:#ff0000;stroke:#ff0000;" x="463.966545" xlink:href="#m92c8571b3e" y="522.563133"/>
     <use style="fill:#ff0000;stroke:#ff0000;" x="483.488" xlink:href="#m92c8571b3e" y="497.271207"/>
     <use style="fill:#ff0000;stroke:#ff0000;" x="503.009455" xlink:href="#m92c8571b3e" y="284.569941"/>
     <use style="fill:#ff0000;stroke:#ff0000;" x="522.530909" xlink:href="#m92c8571b3e" y="148.270907"/>
     <use style="fill:#ff0000;stroke:#ff0000;" x="542.052364" xlink:href="#m92c8571b3e" y="110.644999"/>
     <use style="fill:#ff0000;stroke:#ff0000;" x="561.573818" xlink:href="#m92c8571b3e" y="95.297308"/>
     <use style="fill:#ff0000;stroke:#ff0000;" x="581.095273" xlink:href="#m92c8571b3e" y="85.594778"/>
     <use style="fill:#ff0000;stroke:#ff0000;" x="600.616727" xlink:href="#m92c8571b3e" y="427.997264"/>
     <use style="fill:#ff0000;stroke:#ff0000;" x="620.138182" xlink:href="#m92c8571b3e" y="186.931678"/>
     <use style="fill:#ff0000;stroke:#ff0000;" x="639.659636" xlink:href="#m92c8571b3e" y="450.749505"/>
     <use style="fill:#ff0000;stroke:#ff0000;" x="659.181091" xlink:href="#m92c8571b3e" y="506.916138"/>
     <use style="fill:#ff0000;stroke:#ff0000;" x="678.702545" xlink:href="#m92c8571b3e" y="301.281899"/>
     <use style="fill:#ff0000;stroke:#ff0000;" x="698.224" xlink:href="#m92c8571b3e" y="473.508133"/>
     <use style="fill:#ff0000;stroke:#ff0000;" x="717.745455" xlink:href="#m92c8571b3e" y="267.918494"/>
     <use style="fill:#ff0000;stroke:#ff0000;" x="737.266909" xlink:href="#m92c8571b3e" y="458.958858"/>
     <use style="fill:#ff0000;stroke:#ff0000;" x="756.788364" xlink:href="#m92c8571b3e" y="266.020936"/>
     <use style="fill:#ff0000;stroke:#ff0000;" x="776.309818" xlink:href="#m92c8571b3e" y="162.017759"/>
     <use style="fill:#ff0000;stroke:#ff0000;" x="795.831273" xlink:href="#m92c8571b3e" y="128.458755"/>
     <use style="fill:#ff0000;stroke:#ff0000;" x="815.352727" xlink:href="#m92c8571b3e" y="403.298019"/>
     <use style="fill:#ff0000;stroke:#ff0000;" x="834.874182" xlink:href="#m92c8571b3e" y="228.770617"/>
     <use style="fill:#ff0000;stroke:#ff0000;" x="854.395636" xlink:href="#m92c8571b3e" y="155.103204"/>
    </g>
   </g>
   <g id="line2d_49">
    <path clip-path="url(#p2b70ad99fd)" d="M 93.058909 426.692365 
L 112.580364 449.519595 
L 132.101818 417.900934 
L 151.623273 437.196523 
L 171.144727 482.950886 
L 190.666182 494.293395 
L 210.187636 499.926927 
L 229.709091 503.648421 
L 249.230545 506.353057 
L 268.752 396.045169 
L 288.273455 469.858622 
L 307.794909 499.136323 
L 327.316364 503.737476 
L 346.837818 505.538122 
L 366.359273 506.879575 
L 385.880727 408.297431 
L 405.402182 473.846859 
L 424.923636 500.298168 
L 444.445091 504.283722 
L 463.966545 505.562722 
L 483.488 484.793535 
L 503.009455 432.767823 
L 522.530909 457.502941 
L 542.052364 469.554292 
L 561.573818 477.461431 
L 581.095273 483.383556 
L 600.616727 432.571147 
L 620.138182 459.806588 
L 639.659636 459.172637 
L 659.181091 493.689607 
L 678.702545 445.623364 
L 698.224 475.13617 
L 717.745455 454.136708 
L 737.266909 470.539313 
L 756.788364 456.867699 
L 776.309818 469.568648 
L 795.831273 475.22135 
L 815.352727 451.524918 
L 834.874182 463.216088 
L 854.395636 472.097707 
" style="fill:none;stroke:#808080;stroke-linecap:square;stroke-width:1.5;"/>
    <defs>
     <path d="M 0 3 
C 0.795609 3 1.55874 2.683901 2.12132 2.12132 
C 2.683901 1.55874 3 0.795609 3 0 
C 3 -0.795609 2.683901 -1.55874 2.12132 -2.12132 
C 1.55874 -2.683901 0.795609 -3 0 -3 
C -0.795609 -3 -1.55874 -2.683901 -2.12132 -2.12132 
C -2.683901 -1.55874 -3 -0.795609 -3 0 
C -3 0.795609 -2.683901 1.55874 -2.12132 2.12132 
C -1.55874 2.683901 -0.795609 3 0 3 
z
" id="m8d5f493727" style="stroke:#808080;"/>
    </defs>
    <g clip-path="url(#p2b70ad99fd)">
     <use style="fill:#808080;stroke:#808080;" x="93.058909" xlink:href="#m8d5f493727" y="426.692365"/>
     <use style="fill:#808080;stroke:#808080;" x="112.580364" xlink:href="#m8d5f493727" y="449.519595"/>
     <use style="fill:#808080;stroke:#808080;" x="132.101818" xlink:href="#m8d5f493727" y="417.900934"/>
     <use style="fill:#808080;stroke:#808080;" x="151.623273" xlink:href="#m8d5f493727" y="437.196523"/>
     <use style="fill:#808080;stroke:#808080;" x="171.144727" xlink:href="#m8d5f493727" y="482.950886"/>
     <use style="fill:#808080;stroke:#808080;" x="190.666182" xlink:href="#m8d5f493727" y="494.293395"/>
     <use style="fill:#808080;stroke:#808080;" x="210.187636" xlink:href="#m8d5f493727" y="499.926927"/>
     <use style="fill:#808080;stroke:#808080;" x="229.709091" xlink:href="#m8d5f493727" y="503.648421"/>
     <use style="fill:#808080;stroke:#808080;" x="249.230545" xlink:href="#m8d5f493727" y="506.353057"/>
     <use style="fill:#808080;stroke:#808080;" x="268.752" xlink:href="#m8d5f493727" y="396.045169"/>
     <use style="fill:#808080;stroke:#808080;" x="288.273455" xlink:href="#m8d5f493727" y="469.858622"/>
     <use style="fill:#808080;stroke:#808080;" x="307.794909" xlink:href="#m8d5f493727" y="499.136323"/>
     <use style="fill:#808080;stroke:#808080;" x="327.316364" xlink:href="#m8d5f493727" y="503.737476"/>
     <use style="fill:#808080;stroke:#808080;" x="346.837818" xlink:href="#m8d5f493727" y="505.538122"/>
     <use style="fill:#808080;stroke:#808080;" x="366.359273" xlink:href="#m8d5f493727" y="506.879575"/>
     <use style="fill:#808080;stroke:#808080;" x="385.880727" xlink:href="#m8d5f493727" y="408.297431"/>
     <use style="fill:#808080;stroke:#808080;" x="405.402182" xlink:href="#m8d5f493727" y="473.846859"/>
     <use style="fill:#808080;stroke:#808080;" x="424.923636" xlink:href="#m8d5f493727" y="500.298168"/>
     <use style="fill:#808080;stroke:#808080;" x="444.445091" xlink:href="#m8d5f493727" y="504.283722"/>
     <use style="fill:#808080;stroke:#808080;" x="463.966545" xlink:href="#m8d5f493727" y="505.562722"/>
     <use style="fill:#808080;stroke:#808080;" x="483.488" xlink:href="#m8d5f493727" y="484.793535"/>
     <use style="fill:#808080;stroke:#808080;" x="503.009455" xlink:href="#m8d5f493727" y="432.767823"/>
     <use style="fill:#808080;stroke:#808080;" x="522.530909" xlink:href="#m8d5f493727" y="457.502941"/>
     <use style="fill:#808080;stroke:#808080;" x="542.052364" xlink:href="#m8d5f493727" y="469.554292"/>
     <use style="fill:#808080;stroke:#808080;" x="561.573818" xlink:href="#m8d5f493727" y="477.461431"/>
     <use style="fill:#808080;stroke:#808080;" x="581.095273" xlink:href="#m8d5f493727" y="483.383556"/>
     <use style="fill:#808080;stroke:#808080;" x="600.616727" xlink:href="#m8d5f493727" y="432.571147"/>
     <use style="fill:#808080;stroke:#808080;" x="620.138182" xlink:href="#m8d5f493727" y="459.806588"/>
     <use style="fill:#808080;stroke:#808080;" x="639.659636" xlink:href="#m8d5f493727" y="459.172637"/>
     <use style="fill:#808080;stroke:#808080;" x="659.181091" xlink:href="#m8d5f493727" y="493.689607"/>
     <use style="fill:#808080;stroke:#808080;" x="678.702545" xlink:href="#m8d5f493727" y="445.623364"/>
     <use style="fill:#808080;stroke:#808080;" x="698.224" xlink:href="#m8d5f493727" y="475.13617"/>
     <use style="fill:#808080;stroke:#808080;" x="717.745455" xlink:href="#m8d5f493727" y="454.136708"/>
     <use style="fill:#808080;stroke:#808080;" x="737.266909" xlink:href="#m8d5f493727" y="470.539313"/>
     <use style="fill:#808080;stroke:#808080;" x="756.788364" xlink:href="#m8d5f493727" y="456.867699"/>
     <use style="fill:#808080;stroke:#808080;" x="776.309818" xlink:href="#m8d5f493727" y="469.568648"/>
     <use style="fill:#808080;stroke:#808080;" x="795.831273" xlink:href="#m8d5f493727" y="475.22135"/>
     <use style="fill:#808080;stroke:#808080;" x="815.352727" xlink:href="#m8d5f493727" y="451.524918"/>
     <use style="fill:#808080;stroke:#808080;" x="834.874182" xlink:href="#m8d5f493727" y="463.216088"/>
     <use style="fill:#808080;stroke:#808080;" x="854.395636" xlink:href="#m8d5f493727" y="472.097707"/>
    </g>
   </g>
   <g id="patch_5">
    <path d="M 54.016 526.26652 
L 54.016 28.395744 
" style="fill:none;stroke:#000000;stroke-linecap:square;stroke-linejoin:miter;stroke-width:0.8;"/>
   </g>
   <g id="patch_6">
    <path d="M 912.96 526.26652 
L 912.96 28.395744 
" style="fill:none;stroke:#000000;stroke-linecap:square;stroke-linejoin:miter;stroke-width:0.8;"/>
   </g>
   <g id="patch_7">
    <path d="M 54.016 526.26652 
L 912.96 526.26652 
" style="fill:none;stroke:#000000;stroke-linecap:square;stroke-linejoin:miter;stroke-width:0.8;"/>
   </g>
   <g id="patch_8">
    <path d="M 54.016 28.395744 
L 912.96 28.395744 
" style="fill:none;stroke:#000000;stroke-linecap:square;stroke-linejoin:miter;stroke-width:0.8;"/>
   </g>
   <g id="text_49">
    <!-- D: pessimistic priors -->
    <g transform="translate(356.33175 22.395744)scale(0.25 -0.25)">
     <defs>
      <path d="M 1259 4147 
L 1259 519 
L 2022 519 
Q 2988 519 3436 956 
Q 3884 1394 3884 2338 
Q 3884 3275 3436 3711 
Q 2988 4147 2022 4147 
L 1259 4147 
z
M 628 4666 
L 1925 4666 
Q 3281 4666 3915 4102 
Q 4550 3538 4550 2338 
Q 4550 1131 3912 565 
Q 3275 0 1925 0 
L 628 0 
L 628 4666 
z
" id="DejaVuSans-44" transform="scale(0.015625)"/>
      <path d="M 750 794 
L 1409 794 
L 1409 0 
L 750 0 
L 750 794 
z
M 750 3309 
L 1409 3309 
L 1409 2516 
L 750 2516 
L 750 3309 
z
" id="DejaVuSans-3a" transform="scale(0.015625)"/>
      <path id="DejaVuSans-20" transform="scale(0.015625)"/>
      <path d="M 1159 525 
L 1159 -1331 
L 581 -1331 
L 581 3500 
L 1159 3500 
L 1159 2969 
Q 1341 3281 1617 3432 
Q 1894 3584 2278 3584 
Q 2916 3584 3314 3078 
Q 3713 2572 3713 1747 
Q 3713 922 3314 415 
Q 2916 -91 2278 -91 
Q 1894 -91 1617 61 
Q 1341 213 1159 525 
z
M 3116 1747 
Q 3116 2381 2855 2742 
Q 2594 3103 2138 3103 
Q 1681 3103 1420 2742 
Q 1159 2381 1159 1747 
Q 1159 1113 1420 752 
Q 1681 391 2138 391 
Q 2594 391 2855 752 
Q 3116 1113 3116 1747 
z
" id="DejaVuSans-70" transform="scale(0.015625)"/>
      <path d="M 3597 1894 
L 3597 1613 
L 953 1613 
Q 991 1019 1311 708 
Q 1631 397 2203 397 
Q 2534 397 2845 478 
Q 3156 559 3463 722 
L 3463 178 
Q 3153 47 2828 -22 
Q 2503 -91 2169 -91 
Q 1331 -91 842 396 
Q 353 884 353 1716 
Q 353 2575 817 3079 
Q 1281 3584 2069 3584 
Q 2775 3584 3186 3129 
Q 3597 2675 3597 1894 
z
M 3022 2063 
Q 3016 2534 2758 2815 
Q 2500 3097 2075 3097 
Q 1594 3097 1305 2825 
Q 1016 2553 972 2059 
L 3022 2063 
z
" id="DejaVuSans-65" transform="scale(0.015625)"/>
      <path d="M 2834 3397 
L 2834 2853 
Q 2591 2978 2328 3040 
Q 2066 3103 1784 3103 
Q 1356 3103 1142 2972 
Q 928 2841 928 2578 
Q 928 2378 1081 2264 
Q 1234 2150 1697 2047 
L 1894 2003 
Q 2506 1872 2764 1633 
Q 3022 1394 3022 966 
Q 3022 478 2636 193 
Q 2250 -91 1575 -91 
Q 1294 -91 989 -36 
Q 684 19 347 128 
L 347 722 
Q 666 556 975 473 
Q 1284 391 1588 391 
Q 1994 391 2212 530 
Q 2431 669 2431 922 
Q 2431 1156 2273 1281 
Q 2116 1406 1581 1522 
L 1381 1569 
Q 847 1681 609 1914 
Q 372 2147 372 2553 
Q 372 3047 722 3315 
Q 1072 3584 1716 3584 
Q 2034 3584 2315 3537 
Q 2597 3491 2834 3397 
z
" id="DejaVuSans-73" transform="scale(0.015625)"/>
      <path d="M 603 3500 
L 1178 3500 
L 1178 0 
L 603 0 
L 603 3500 
z
M 603 4863 
L 1178 4863 
L 1178 4134 
L 603 4134 
L 603 4863 
z
" id="DejaVuSans-69" transform="scale(0.015625)"/>
      <path d="M 3328 2828 
Q 3544 3216 3844 3400 
Q 4144 3584 4550 3584 
Q 5097 3584 5394 3201 
Q 5691 2819 5691 2113 
L 5691 0 
L 5113 0 
L 5113 2094 
Q 5113 2597 4934 2840 
Q 4756 3084 4391 3084 
Q 3944 3084 3684 2787 
Q 3425 2491 3425 1978 
L 3425 0 
L 2847 0 
L 2847 2094 
Q 2847 2600 2669 2842 
Q 2491 3084 2119 3084 
Q 1678 3084 1418 2786 
Q 1159 2488 1159 1978 
L 1159 0 
L 581 0 
L 581 3500 
L 1159 3500 
L 1159 2956 
Q 1356 3278 1631 3431 
Q 1906 3584 2284 3584 
Q 2666 3584 2933 3390 
Q 3200 3197 3328 2828 
z
" id="DejaVuSans-6d" transform="scale(0.015625)"/>
      <path d="M 1172 4494 
L 1172 3500 
L 2356 3500 
L 2356 3053 
L 1172 3053 
L 1172 1153 
Q 1172 725 1289 603 
Q 1406 481 1766 481 
L 2356 481 
L 2356 0 
L 1766 0 
Q 1100 0 847 248 
Q 594 497 594 1153 
L 594 3053 
L 172 3053 
L 172 3500 
L 594 3500 
L 594 4494 
L 1172 4494 
z
" id="DejaVuSans-74" transform="scale(0.015625)"/>
      <path d="M 3122 3366 
L 3122 2828 
Q 2878 2963 2633 3030 
Q 2388 3097 2138 3097 
Q 1578 3097 1268 2742 
Q 959 2388 959 1747 
Q 959 1106 1268 751 
Q 1578 397 2138 397 
Q 2388 397 2633 464 
Q 2878 531 3122 666 
L 3122 134 
Q 2881 22 2623 -34 
Q 2366 -91 2075 -91 
Q 1284 -91 818 406 
Q 353 903 353 1747 
Q 353 2603 823 3093 
Q 1294 3584 2113 3584 
Q 2378 3584 2631 3529 
Q 2884 3475 3122 3366 
z
" id="DejaVuSans-63" transform="scale(0.015625)"/>
      <path d="M 2631 2963 
Q 2534 3019 2420 3045 
Q 2306 3072 2169 3072 
Q 1681 3072 1420 2755 
Q 1159 2438 1159 1844 
L 1159 0 
L 581 0 
L 581 3500 
L 1159 3500 
L 1159 2956 
Q 1341 3275 1631 3429 
Q 1922 3584 2338 3584 
Q 2397 3584 2469 3576 
Q 2541 3569 2628 3553 
L 2631 2963 
z
" id="DejaVuSans-72" transform="scale(0.015625)"/>
      <path d="M 1959 3097 
Q 1497 3097 1228 2736 
Q 959 2375 959 1747 
Q 959 1119 1226 758 
Q 1494 397 1959 397 
Q 2419 397 2687 759 
Q 2956 1122 2956 1747 
Q 2956 2369 2687 2733 
Q 2419 3097 1959 3097 
z
M 1959 3584 
Q 2709 3584 3137 3096 
Q 3566 2609 3566 1747 
Q 3566 888 3137 398 
Q 2709 -91 1959 -91 
Q 1206 -91 779 398 
Q 353 888 353 1747 
Q 353 2609 779 3096 
Q 1206 3584 1959 3584 
z
" id="DejaVuSans-6f" transform="scale(0.015625)"/>
     </defs>
     <use xlink:href="#DejaVuSans-44"/>
     <use x="77.001953" xlink:href="#DejaVuSans-3a"/>
     <use x="110.693359" xlink:href="#DejaVuSans-20"/>
     <use x="142.480469" xlink:href="#DejaVuSans-70"/>
     <use x="205.957031" xlink:href="#DejaVuSans-65"/>
     <use x="267.480469" xlink:href="#DejaVuSans-73"/>
     <use x="319.580078" xlink:href="#DejaVuSans-73"/>
     <use x="371.679688" xlink:href="#DejaVuSans-69"/>
     <use x="399.462891" xlink:href="#DejaVuSans-6d"/>
     <use x="496.875" xlink:href="#DejaVuSans-69"/>
     <use x="524.658203" xlink:href="#DejaVuSans-73"/>
     <use x="576.757812" xlink:href="#DejaVuSans-74"/>
     <use x="615.966797" xlink:href="#DejaVuSans-69"/>
     <use x="643.75" xlink:href="#DejaVuSans-63"/>
     <use x="698.730469" xlink:href="#DejaVuSans-20"/>
     <use x="730.517578" xlink:href="#DejaVuSans-70"/>
     <use x="793.994141" xlink:href="#DejaVuSans-72"/>
     <use x="835.107422" xlink:href="#DejaVuSans-69"/>
     <use x="862.890625" xlink:href="#DejaVuSans-6f"/>
     <use x="924.072266" xlink:href="#DejaVuSans-72"/>
     <use x="965.185547" xlink:href="#DejaVuSans-73"/>
    </g>
   </g>
   <g id="legend_1">
    <g id="patch_9">
     <path d="M 803.108438 109.786369 
L 905.96 109.786369 
Q 907.96 109.786369 907.96 107.786369 
L 907.96 35.395744 
Q 907.96 33.395744 905.96 33.395744 
L 803.108438 33.395744 
Q 801.108438 33.395744 801.108438 35.395744 
L 801.108438 107.786369 
Q 801.108438 109.786369 803.108438 109.786369 
z
" style="fill:#ffffff;opacity:0.8;stroke:#cccccc;stroke-linejoin:miter;"/>
    </g>
    <g id="line2d_50">
     <path d="M 805.108438 41.494182 
L 825.108438 41.494182 
" style="fill:none;stroke:#0000ff;stroke-linecap:square;stroke-width:1.5;"/>
    </g>
    <g id="line2d_51">
     <g>
      <use style="fill:#0000ff;stroke:#0000ff;" x="815.108438" xlink:href="#mfe8fe135c3" y="41.494182"/>
     </g>
    </g>
    <g id="text_50">
     <!-- cooperative -->
     <g transform="translate(833.108438 44.994182)scale(0.1 -0.1)">
      <defs>
       <path d="M 2194 1759 
Q 1497 1759 1228 1600 
Q 959 1441 959 1056 
Q 959 750 1161 570 
Q 1363 391 1709 391 
Q 2188 391 2477 730 
Q 2766 1069 2766 1631 
L 2766 1759 
L 2194 1759 
z
M 3341 1997 
L 3341 0 
L 2766 0 
L 2766 531 
Q 2569 213 2275 61 
Q 1981 -91 1556 -91 
Q 1019 -91 701 211 
Q 384 513 384 1019 
Q 384 1609 779 1909 
Q 1175 2209 1959 2209 
L 2766 2209 
L 2766 2266 
Q 2766 2663 2505 2880 
Q 2244 3097 1772 3097 
Q 1472 3097 1187 3025 
Q 903 2953 641 2809 
L 641 3341 
Q 956 3463 1253 3523 
Q 1550 3584 1831 3584 
Q 2591 3584 2966 3190 
Q 3341 2797 3341 1997 
z
" id="DejaVuSans-61" transform="scale(0.015625)"/>
       <path d="M 191 3500 
L 800 3500 
L 1894 563 
L 2988 3500 
L 3597 3500 
L 2284 0 
L 1503 0 
L 191 3500 
z
" id="DejaVuSans-76" transform="scale(0.015625)"/>
      </defs>
      <use xlink:href="#DejaVuSans-63"/>
      <use x="54.980469" xlink:href="#DejaVuSans-6f"/>
      <use x="116.162109" xlink:href="#DejaVuSans-6f"/>
      <use x="177.34375" xlink:href="#DejaVuSans-70"/>
      <use x="240.820312" xlink:href="#DejaVuSans-65"/>
      <use x="302.34375" xlink:href="#DejaVuSans-72"/>
      <use x="343.457031" xlink:href="#DejaVuSans-61"/>
      <use x="404.736328" xlink:href="#DejaVuSans-74"/>
      <use x="443.945312" xlink:href="#DejaVuSans-69"/>
      <use x="471.728516" xlink:href="#DejaVuSans-76"/>
      <use x="530.908203" xlink:href="#DejaVuSans-65"/>
     </g>
    </g>
    <g id="line2d_52">
     <path d="M 805.108438 56.172307 
L 825.108438 56.172307 
" style="fill:none;stroke:#ff0000;stroke-linecap:square;stroke-width:1.5;"/>
    </g>
    <g id="line2d_53">
     <g>
      <use style="fill:#ff0000;stroke:#ff0000;" x="815.108438" xlink:href="#m92c8571b3e" y="56.172307"/>
     </g>
    </g>
    <g id="text_51">
     <!-- hostile -->
     <g transform="translate(833.108438 59.672307)scale(0.1 -0.1)">
      <defs>
       <path d="M 3513 2113 
L 3513 0 
L 2938 0 
L 2938 2094 
Q 2938 2591 2744 2837 
Q 2550 3084 2163 3084 
Q 1697 3084 1428 2787 
Q 1159 2491 1159 1978 
L 1159 0 
L 581 0 
L 581 4863 
L 1159 4863 
L 1159 2956 
Q 1366 3272 1645 3428 
Q 1925 3584 2291 3584 
Q 2894 3584 3203 3211 
Q 3513 2838 3513 2113 
z
" id="DejaVuSans-68" transform="scale(0.015625)"/>
       <path d="M 603 4863 
L 1178 4863 
L 1178 0 
L 603 0 
L 603 4863 
z
" id="DejaVuSans-6c" transform="scale(0.015625)"/>
      </defs>
      <use xlink:href="#DejaVuSans-68"/>
      <use x="63.378906" xlink:href="#DejaVuSans-6f"/>
      <use x="124.560547" xlink:href="#DejaVuSans-73"/>
      <use x="176.660156" xlink:href="#DejaVuSans-74"/>
      <use x="215.869141" xlink:href="#DejaVuSans-69"/>
      <use x="243.652344" xlink:href="#DejaVuSans-6c"/>
      <use x="271.435547" xlink:href="#DejaVuSans-65"/>
     </g>
    </g>
    <g id="line2d_54">
     <path d="M 805.108438 70.850432 
L 825.108438 70.850432 
" style="fill:none;stroke:#808080;stroke-linecap:square;stroke-width:1.5;"/>
    </g>
    <g id="line2d_55">
     <g>
      <use style="fill:#808080;stroke:#808080;" x="815.108438" xlink:href="#m8d5f493727" y="70.850432"/>
     </g>
    </g>
    <g id="text_52">
     <!-- random -->
     <g transform="translate(833.108438 74.350432)scale(0.1 -0.1)">
      <defs>
       <path d="M 3513 2113 
L 3513 0 
L 2938 0 
L 2938 2094 
Q 2938 2591 2744 2837 
Q 2550 3084 2163 3084 
Q 1697 3084 1428 2787 
Q 1159 2491 1159 1978 
L 1159 0 
L 581 0 
L 581 3500 
L 1159 3500 
L 1159 2956 
Q 1366 3272 1645 3428 
Q 1925 3584 2291 3584 
Q 2894 3584 3203 3211 
Q 3513 2838 3513 2113 
z
" id="DejaVuSans-6e" transform="scale(0.015625)"/>
       <path d="M 2906 2969 
L 2906 4863 
L 3481 4863 
L 3481 0 
L 2906 0 
L 2906 525 
Q 2725 213 2448 61 
Q 2172 -91 1784 -91 
Q 1150 -91 751 415 
Q 353 922 353 1747 
Q 353 2572 751 3078 
Q 1150 3584 1784 3584 
Q 2172 3584 2448 3432 
Q 2725 3281 2906 2969 
z
M 947 1747 
Q 947 1113 1208 752 
Q 1469 391 1925 391 
Q 2381 391 2643 752 
Q 2906 1113 2906 1747 
Q 2906 2381 2643 2742 
Q 2381 3103 1925 3103 
Q 1469 3103 1208 2742 
Q 947 2381 947 1747 
z
" id="DejaVuSans-64" transform="scale(0.015625)"/>
      </defs>
      <use xlink:href="#DejaVuSans-72"/>
      <use x="41.113281" xlink:href="#DejaVuSans-61"/>
      <use x="102.392578" xlink:href="#DejaVuSans-6e"/>
      <use x="165.771484" xlink:href="#DejaVuSans-64"/>
      <use x="229.248047" xlink:href="#DejaVuSans-6f"/>
      <use x="290.429688" xlink:href="#DejaVuSans-6d"/>
     </g>
    </g>
    <g id="line2d_56">
     <path d="M 805.108438 85.528557 
L 825.108438 85.528557 
" style="fill:none;stroke:#ffffff;stroke-linecap:square;stroke-width:1.5;"/>
    </g>
    <g id="line2d_57">
     <defs>
      <path d="M -0 5 
L 5 -5 
L -5 -5 
z
" id="m9eb2ddec6b" style="stroke:#ffffff;stroke-linejoin:miter;"/>
     </defs>
     <g>
      <use style="fill:#ff0000;stroke:#ffffff;stroke-linejoin:miter;" x="815.108438" xlink:href="#m9eb2ddec6b" y="85.528557"/>
     </g>
    </g>
    <g id="text_53">
     <!-- invest - abuse -->
     <g transform="translate(833.108438 89.028557)scale(0.1 -0.1)">
      <defs>
       <path d="M 313 2009 
L 1997 2009 
L 1997 1497 
L 313 1497 
L 313 2009 
z
" id="DejaVuSans-2d" transform="scale(0.015625)"/>
       <path d="M 3116 1747 
Q 3116 2381 2855 2742 
Q 2594 3103 2138 3103 
Q 1681 3103 1420 2742 
Q 1159 2381 1159 1747 
Q 1159 1113 1420 752 
Q 1681 391 2138 391 
Q 2594 391 2855 752 
Q 3116 1113 3116 1747 
z
M 1159 2969 
Q 1341 3281 1617 3432 
Q 1894 3584 2278 3584 
Q 2916 3584 3314 3078 
Q 3713 2572 3713 1747 
Q 3713 922 3314 415 
Q 2916 -91 2278 -91 
Q 1894 -91 1617 61 
Q 1341 213 1159 525 
L 1159 0 
L 581 0 
L 581 4863 
L 1159 4863 
L 1159 2969 
z
" id="DejaVuSans-62" transform="scale(0.015625)"/>
       <path d="M 544 1381 
L 544 3500 
L 1119 3500 
L 1119 1403 
Q 1119 906 1312 657 
Q 1506 409 1894 409 
Q 2359 409 2629 706 
Q 2900 1003 2900 1516 
L 2900 3500 
L 3475 3500 
L 3475 0 
L 2900 0 
L 2900 538 
Q 2691 219 2414 64 
Q 2138 -91 1772 -91 
Q 1169 -91 856 284 
Q 544 659 544 1381 
z
M 1991 3584 
L 1991 3584 
z
" id="DejaVuSans-75" transform="scale(0.015625)"/>
      </defs>
      <use xlink:href="#DejaVuSans-69"/>
      <use x="27.783203" xlink:href="#DejaVuSans-6e"/>
      <use x="91.162109" xlink:href="#DejaVuSans-76"/>
      <use x="150.341797" xlink:href="#DejaVuSans-65"/>
      <use x="211.865234" xlink:href="#DejaVuSans-73"/>
      <use x="263.964844" xlink:href="#DejaVuSans-74"/>
      <use x="303.173828" xlink:href="#DejaVuSans-20"/>
      <use x="334.960938" xlink:href="#DejaVuSans-2d"/>
      <use x="371.044922" xlink:href="#DejaVuSans-20"/>
      <use x="402.832031" xlink:href="#DejaVuSans-61"/>
      <use x="464.111328" xlink:href="#DejaVuSans-62"/>
      <use x="527.587891" xlink:href="#DejaVuSans-75"/>
      <use x="590.966797" xlink:href="#DejaVuSans-73"/>
      <use x="643.066406" xlink:href="#DejaVuSans-65"/>
     </g>
    </g>
    <g id="line2d_58">
     <path d="M 805.108438 100.206682 
L 825.108438 100.206682 
" style="fill:none;stroke:#ffffff;stroke-linecap:square;stroke-width:1.5;"/>
    </g>
    <g id="line2d_59">
     <defs>
      <path d="M 0 -5 
L -5 5 
L 5 5 
z
" id="m80da75847b" style="stroke:#ffffff;stroke-linejoin:miter;"/>
     </defs>
     <g>
      <use style="fill:#0000ff;stroke:#ffffff;stroke-linejoin:miter;" x="815.108438" xlink:href="#m80da75847b" y="100.206682"/>
     </g>
    </g>
    <g id="text_54">
     <!-- invest - return -->
     <g transform="translate(833.108438 103.706682)scale(0.1 -0.1)">
      <use xlink:href="#DejaVuSans-69"/>
      <use x="27.783203" xlink:href="#DejaVuSans-6e"/>
      <use x="91.162109" xlink:href="#DejaVuSans-76"/>
      <use x="150.341797" xlink:href="#DejaVuSans-65"/>
      <use x="211.865234" xlink:href="#DejaVuSans-73"/>
      <use x="263.964844" xlink:href="#DejaVuSans-74"/>
      <use x="303.173828" xlink:href="#DejaVuSans-20"/>
      <use x="334.960938" xlink:href="#DejaVuSans-2d"/>
      <use x="371.044922" xlink:href="#DejaVuSans-20"/>
      <use x="402.832031" xlink:href="#DejaVuSans-72"/>
      <use x="441.695312" xlink:href="#DejaVuSans-65"/>
      <use x="503.21875" xlink:href="#DejaVuSans-74"/>
      <use x="542.427734" xlink:href="#DejaVuSans-75"/>
      <use x="605.806641" xlink:href="#DejaVuSans-72"/>
      <use x="645.169922" xlink:href="#DejaVuSans-6e"/>
     </g>
    </g>
   </g>
  </g>
 </g>
 <defs>
  <clipPath id="p2b70ad99fd">
   <rect height="497.870776" width="858.944" x="54.016" y="28.395744"/>
  </clipPath>
 </defs>
</svg>
