<?xml version="1.0" encoding="utf-8" standalone="no"?>
<!DOCTYPE svg PUBLIC "-//W3C//DTD SVG 1.1//EN"
  "http://www.w3.org/Graphics/SVG/1.1/DTD/svg11.dtd">
<svg height="697.68pt" version="1.1" viewBox="0 0 1382.4 697.68" width="1382.4pt" xmlns="http://www.w3.org/2000/svg" xmlns:xlink="http://www.w3.org/1999/xlink">
 <metadata>
  <rdf:RDF xmlns:cc="http://creativecommons.org/ns#" xmlns:dc="http://purl.org/dc/elements/1.1/" xmlns:rdf="http://www.w3.org/1999/02/22-rdf-syntax-ns#">
   <cc:Work>
    <dc:type rdf:resource="http://purl.org/dc/dcmitype/StillImage"/>
    <dc:date>2023-09-19T13:21:36.548986</dc:date>
    <dc:format>image/svg+xml</dc:format>
    <dc:creator>
     <cc:Agent>
      <dc:title>Matplotlib v3.4.3, https://matplotlib.org/</dc:title>
     </cc:Agent>
    </dc:creator>
   </cc:Work>
  </rdf:RDF>
 </metadata>
 <defs>
  <style type="text/css">*{stroke-linecap:butt;stroke-linejoin:round;}</style>
 </defs>
 <g id="figure_1">
  <g id="patch_1">
   <path d="M 0 697.68 
L 1382.4 697.68 
L 1382.4 0 
L 0 0 
z
" style="fill:#ffffff;"/>
  </g>
  <g id="axes_1">
   <g id="patch_2">
    <path d="M 172.8 620.9352 
L 1244.16 620.9352 
L 1244.16 83.7216 
L 172.8 83.7216 
z
" style="fill:#ffffff;"/>
   </g>
   <g id="PolyCollection_1">
    <defs>
     <path d="M 280.743948 -152.777381 
L 279.128052 -152.777381 
L 278.917923 -157.189121 
L 278.66525 -161.60086 
L 278.364514 -166.0126 
L 278.010122 -170.42434 
L 277.596515 -174.836079 
L 277.118271 -179.247819 
L 276.570198 -183.659558 
L 275.94741 -188.071298 
L 275.245372 -192.483037 
L 274.459927 -196.894777 
L 273.587291 -201.306517 
L 272.624032 -205.718256 
L 271.567038 -210.129996 
L 270.41349 -214.541735 
L 269.16087 -218.953475 
L 267.806999 -223.365215 
L 266.350151 -227.776954 
L 264.789242 -232.188694 
L 263.124109 -236.600433 
L 261.355874 -241.012173 
L 259.487384 -245.423912 
L 257.523712 -249.835652 
L 255.472666 -254.247392 
L 253.345278 -258.659131 
L 251.15621 -263.070871 
L 248.924032 -267.48261 
L 246.671307 -271.89435 
L 244.424458 -276.30609 
L 242.21337 -280.717829 
L 240.070726 -285.129569 
L 238.031086 -289.541308 
L 236.129742 -293.953048 
L 234.401407 -298.364787 
L 232.878805 -302.776527 
L 231.591265 -307.188267 
L 230.563395 -311.600006 
L 229.81394 -316.011746 
L 229.354901 -320.423485 
L 229.190981 -324.835225 
L 229.319387 -329.246965 
L 229.730015 -333.658704 
L 230.405989 -338.070444 
L 231.324505 -342.482183 
L 232.457931 -346.893923 
L 233.775056 -351.305662 
L 235.242422 -355.717402 
L 236.825628 -360.129142 
L 238.490547 -364.540881 
L 240.204377 -368.952621 
L 241.936501 -373.36436 
L 243.659118 -377.7761 
L 245.347662 -382.18784 
L 246.981033 -386.599579 
L 248.541651 -391.011319 
L 250.015409 -395.423058 
L 251.391541 -399.834798 
L 252.662449 -404.246537 
L 253.82353 -408.658277 
L 254.873002 -413.070017 
L 255.81175 -417.481756 
L 256.643174 -421.893496 
L 257.373042 -426.305235 
L 258.009318 -430.716975 
L 258.561953 -435.128715 
L 259.042634 -439.540454 
L 259.464469 -443.952194 
L 259.841622 -448.363933 
L 260.188893 -452.775673 
L 260.521264 -457.187412 
L 260.85343 -461.599152 
L 261.199317 -466.010892 
L 261.571636 -470.422631 
L 261.981474 -474.834371 
L 262.437933 -479.24611 
L 262.947861 -483.65785 
L 263.51565 -488.06959 
L 264.143133 -492.481329 
L 264.82958 -496.893069 
L 265.571779 -501.304808 
L 266.364223 -505.716548 
L 267.199372 -510.128287 
L 268.068 -514.540027 
L 268.959594 -518.951767 
L 269.862802 -523.363506 
L 270.765904 -527.775246 
L 271.657273 -532.186985 
L 272.525825 -536.598725 
L 273.361415 -541.010465 
L 274.155169 -545.422204 
L 274.899742 -549.833944 
L 275.589479 -554.245683 
L 276.220495 -558.657423 
L 276.790656 -563.069162 
L 277.299486 -567.480902 
L 277.748007 -571.892642 
L 278.138524 -576.304381 
L 278.474385 -580.716121 
L 278.759718 -585.12786 
L 278.999176 -589.5396 
L 280.872824 -589.5396 
L 280.872824 -589.5396 
L 281.112282 -585.12786 
L 281.397615 -580.716121 
L 281.733476 -576.304381 
L 282.123993 -571.892642 
L 282.572514 -567.480902 
L 283.081344 -563.069162 
L 283.651505 -558.657423 
L 284.282521 -554.245683 
L 284.972258 -549.833944 
L 285.716831 -545.422204 
L 286.510585 -541.010465 
L 287.346175 -536.598725 
L 288.214727 -532.186985 
L 289.106096 -527.775246 
L 290.009198 -523.363506 
L 290.912406 -518.951767 
L 291.804 -514.540027 
L 292.672628 -510.128287 
L 293.507777 -505.716548 
L 294.300221 -501.304808 
L 295.04242 -496.893069 
L 295.728867 -492.481329 
L 296.35635 -488.06959 
L 296.924139 -483.65785 
L 297.434067 -479.24611 
L 297.890526 -474.834371 
L 298.300364 -470.422631 
L 298.672683 -466.010892 
L 299.01857 -461.599152 
L 299.350736 -457.187412 
L 299.683107 -452.775673 
L 300.030378 -448.363933 
L 300.407531 -443.952194 
L 300.829366 -439.540454 
L 301.310047 -435.128715 
L 301.862682 -430.716975 
L 302.498958 -426.305235 
L 303.228826 -421.893496 
L 304.06025 -417.481756 
L 304.998998 -413.070017 
L 306.04847 -408.658277 
L 307.209551 -404.246537 
L 308.480459 -399.834798 
L 309.856591 -395.423058 
L 311.330349 -391.011319 
L 312.890967 -386.599579 
L 314.524338 -382.18784 
L 316.212882 -377.7761 
L 317.935499 -373.36436 
L 319.667623 -368.952621 
L 321.381453 -364.540881 
L 323.046372 -360.129142 
L 324.629578 -355.717402 
L 326.096944 -351.305662 
L 327.414069 -346.893923 
L 328.547495 -342.482183 
L 329.466011 -338.070444 
L 330.141985 -333.658704 
L 330.552613 -329.246965 
L 330.681019 -324.835225 
L 330.517099 -320.423485 
L 330.05806 -316.011746 
L 329.308605 -311.600006 
L 328.280735 -307.188267 
L 326.993195 -302.776527 
L 325.470593 -298.364787 
L 323.742258 -293.953048 
L 321.840914 -289.541308 
L 319.801274 -285.129569 
L 317.65863 -280.717829 
L 315.447542 -276.30609 
L 313.200693 -271.89435 
L 310.947968 -267.48261 
L 308.71579 -263.070871 
L 306.526722 -258.659131 
L 304.399334 -254.247392 
L 302.348288 -249.835652 
L 300.384616 -245.423912 
L 298.516126 -241.012173 
L 296.747891 -236.600433 
L 295.082758 -232.188694 
L 293.521849 -227.776954 
L 292.065001 -223.365215 
L 290.71113 -218.953475 
L 289.45851 -214.541735 
L 288.304962 -210.129996 
L 287.247968 -205.718256 
L 286.284709 -201.306517 
L 285.412073 -196.894777 
L 284.626628 -192.483037 
L 283.92459 -188.071298 
L 283.301802 -183.659558 
L 282.753729 -179.247819 
L 282.275485 -174.836079 
L 281.861878 -170.42434 
L 281.507486 -166.0126 
L 281.20675 -161.60086 
L 280.954077 -157.189121 
L 280.743948 -152.777381 
z
" id="m37fe94189e" style="stroke:#4d4d4d;stroke-width:1.5;"/>
    </defs>
    <g clip-path="url(#p3bdf747394)">
     <use style="fill:#d56b5b;stroke:#4d4d4d;stroke-width:1.5;" x="0" xlink:href="#m37fe94189e" y="697.68"/>
    </g>
   </g>
   <g id="PolyCollection_2">
    <defs>
     <path d="M 495.579608 -143.418769 
L 492.836392 -143.418769 
L 492.460945 -146.104639 
L 492.005469 -148.790509 
L 491.459174 -151.47638 
L 490.811306 -154.16225 
L 490.051525 -156.848121 
L 489.170309 -159.533991 
L 488.159396 -162.219861 
L 487.012232 -164.905732 
L 485.724398 -167.591602 
L 484.294007 -170.277472 
L 482.722029 -172.963343 
L 481.012522 -175.649213 
L 479.172743 -178.335084 
L 477.213123 -181.020954 
L 475.147074 -183.706824 
L 472.990625 -186.392695 
L 470.761884 -189.078565 
L 468.480332 -191.764435 
L 466.165972 -194.450306 
L 463.838363 -197.136176 
L 461.515598 -199.822046 
L 459.213278 -202.507917 
L 456.943564 -205.193787 
L 454.714374 -207.879658 
L 452.528816 -210.565528 
L 450.384918 -213.251398 
L 448.275717 -215.937269 
L 446.189746 -218.623139 
L 444.111922 -221.309009 
L 442.024822 -223.99488 
L 439.910288 -226.68075 
L 437.751278 -229.366621 
L 435.533858 -232.052491 
L 433.249183 -234.738361 
L 430.895348 -237.424232 
L 428.478931 -240.110102 
L 426.01612 -242.795972 
L 423.533282 -245.481843 
L 421.066904 -248.167713 
L 418.662856 -250.853583 
L 416.374973 -253.539454 
L 414.263014 -256.225324 
L 412.390097 -258.911195 
L 410.819748 -261.597065 
L 409.612736 -264.282935 
L 408.823906 -266.968806 
L 408.4992 -269.654676 
L 408.673067 -272.340546 
L 409.366423 -275.026417 
L 410.585302 -277.712287 
L 412.320262 -280.398158 
L 414.546586 -283.084028 
L 417.225231 -285.769898 
L 420.30446 -288.455769 
L 423.722015 -291.141639 
L 427.407694 -293.827509 
L 431.286155 -296.51338 
L 435.27979 -299.19925 
L 439.311516 -301.885121 
L 443.307349 -304.570991 
L 447.198686 -307.256861 
L 450.924209 -309.942732 
L 454.431403 -312.628602 
L 457.677665 -315.314472 
L 460.631031 -318.000343 
L 463.270532 -320.686213 
L 465.586207 -323.372083 
L 467.578805 -326.057954 
L 469.259176 -328.743824 
L 470.647388 -331.429695 
L 471.771558 -334.115565 
L 472.666448 -336.801435 
L 473.37182 -339.487306 
L 473.930631 -342.173176 
L 474.387102 -344.859046 
L 474.784762 -347.544917 
L 475.164542 -350.230787 
L 475.563048 -352.916658 
L 476.011078 -355.602528 
L 476.532504 -358.288398 
L 477.143569 -360.974269 
L 477.852635 -363.660139 
L 478.660401 -366.346009 
L 479.560544 -369.03188 
L 480.540735 -371.71775 
L 481.583927 -374.40362 
L 482.669813 -377.089491 
L 483.776354 -379.775361 
L 484.881233 -382.461232 
L 485.963184 -385.147102 
L 487.003078 -387.832972 
L 487.984746 -390.518843 
L 488.895504 -393.204713 
L 489.726383 -395.890583 
L 490.472098 -398.576454 
L 491.130798 -401.262324 
L 491.703644 -403.948195 
L 492.194278 -406.634065 
L 492.608248 -409.319935 
L 495.807752 -409.319935 
L 495.807752 -409.319935 
L 496.221722 -406.634065 
L 496.712356 -403.948195 
L 497.285202 -401.262324 
L 497.943902 -398.576454 
L 498.689617 -395.890583 
L 499.520496 -393.204713 
L 500.431254 -390.518843 
L 501.412922 -387.832972 
L 502.452816 -385.147102 
L 503.534767 -382.461232 
L 504.639646 -379.775361 
L 505.746187 -377.089491 
L 506.832073 -374.40362 
L 507.875265 -371.71775 
L 508.855456 -369.03188 
L 509.755599 -366.346009 
L 510.563365 -363.660139 
L 511.272431 -360.974269 
L 511.883496 -358.288398 
L 512.404922 -355.602528 
L 512.852952 -352.916658 
L 513.251458 -350.230787 
L 513.631238 -347.544917 
L 514.028898 -344.859046 
L 514.485369 -342.173176 
L 515.04418 -339.487306 
L 515.749552 -336.801435 
L 516.644442 -334.115565 
L 517.768612 -331.429695 
L 519.156824 -328.743824 
L 520.837195 -326.057954 
L 522.829793 -323.372083 
L 525.145468 -320.686213 
L 527.784969 -318.000343 
L 530.738335 -315.314472 
L 533.984597 -312.628602 
L 537.491791 -309.942732 
L 541.217314 -307.256861 
L 545.108651 -304.570991 
L 549.104484 -301.885121 
L 553.13621 -299.19925 
L 557.129845 -296.51338 
L 561.008306 -293.827509 
L 564.693985 -291.141639 
L 568.11154 -288.455769 
L 571.190769 -285.769898 
L 573.869414 -283.084028 
L 576.095738 -280.398158 
L 577.830698 -277.712287 
L 579.049577 -275.026417 
L 579.742933 -272.340546 
L 579.9168 -269.654676 
L 579.592094 -266.968806 
L 578.803264 -264.282935 
L 577.596252 -261.597065 
L 576.025903 -258.911195 
L 574.152986 -256.225324 
L 572.041027 -253.539454 
L 569.753144 -250.853583 
L 567.349096 -248.167713 
L 564.882718 -245.481843 
L 562.39988 -242.795972 
L 559.937069 -240.110102 
L 557.520652 -237.424232 
L 555.166817 -234.738361 
L 552.882142 -232.052491 
L 550.664722 -229.366621 
L 548.505712 -226.68075 
L 546.391178 -223.99488 
L 544.304078 -221.309009 
L 542.226254 -218.623139 
L 540.140283 -215.937269 
L 538.031082 -213.251398 
L 535.887184 -210.565528 
L 533.701626 -207.879658 
L 531.472436 -205.193787 
L 529.202722 -202.507917 
L 526.900402 -199.822046 
L 524.577637 -197.136176 
L 522.250028 -194.450306 
L 519.935668 -191.764435 
L 517.654116 -189.078565 
L 515.425375 -186.392695 
L 513.268926 -183.706824 
L 511.202877 -181.020954 
L 509.243257 -178.335084 
L 507.403478 -175.649213 
L 505.693971 -172.963343 
L 504.121993 -170.277472 
L 502.691602 -167.591602 
L 501.403768 -164.905732 
L 500.256604 -162.219861 
L 499.245691 -159.533991 
L 498.364475 -156.848121 
L 497.604694 -154.16225 
L 496.956826 -151.47638 
L 496.410531 -148.790509 
L 495.955055 -146.104639 
L 495.579608 -143.418769 
z
" id="mef30a5d24c" style="stroke:#4d4d4d;stroke-width:1.5;"/>
    </defs>
    <g clip-path="url(#p3bdf747394)">
     <use style="fill:#ecbd81;stroke:#4d4d4d;stroke-width:1.5;" x="0" xlink:href="#mef30a5d24c" y="697.68"/>
    </g>
   </g>
   <g id="PolyCollection_3">
    <defs>
     <path d="M 711.374274 -101.1636 
L 705.585726 -101.1636 
L 704.798622 -104.743005 
L 703.8466 -108.322409 
L 702.709146 -111.901814 
L 701.366773 -115.481218 
L 699.802022 -119.060623 
L 698.000539 -122.640027 
L 695.95219 -126.219432 
L 693.652113 -129.798836 
L 691.101664 -133.378241 
L 688.309156 -136.957646 
L 685.290327 -140.53705 
L 682.068494 -144.116455 
L 678.674327 -147.695859 
L 675.145267 -151.275264 
L 671.524568 -154.854668 
L 667.860051 -158.434073 
L 664.2026 -162.013478 
L 660.604533 -165.592882 
L 657.117924 -169.172287 
L 653.792995 -172.751691 
L 650.676679 -176.331096 
L 647.811426 -179.9105 
L 645.234315 -183.489905 
L 642.976493 -187.069309 
L 641.062934 -190.648714 
L 639.512485 -194.228119 
L 638.338148 -197.807523 
L 637.547505 -201.386928 
L 637.143233 -204.966332 
L 637.123617 -208.545737 
L 637.482994 -212.125141 
L 638.2121 -215.704546 
L 639.298278 -219.28395 
L 640.725562 -222.863355 
L 642.474648 -226.44276 
L 644.522797 -230.022164 
L 646.843726 -233.601569 
L 649.407541 -237.180973 
L 652.180765 -240.760378 
L 655.126527 -244.339782 
L 658.204923 -247.919187 
L 661.373598 -251.498592 
L 664.588517 -255.077996 
L 667.804933 -258.657401 
L 670.978494 -262.236805 
L 674.066438 -265.81621 
L 677.028817 -269.395614 
L 679.829671 -272.975019 
L 682.438077 -276.554423 
L 684.829027 -280.133828 
L 686.984053 -283.713233 
L 688.891585 -287.292637 
L 690.547012 -290.872042 
L 691.952454 -294.451446 
L 693.116249 -298.030851 
L 694.052219 -301.610255 
L 694.778746 -305.18966 
L 695.317727 -308.769064 
L 695.693471 -312.348469 
L 695.931609 -315.927874 
L 696.058067 -319.507278 
L 696.098156 -323.086683 
L 696.075815 -326.666087 
L 696.013028 -330.245492 
L 695.929426 -333.824896 
L 695.842064 -337.404301 
L 695.765359 -340.983706 
L 695.711163 -344.56311 
L 695.688936 -348.142515 
L 695.705984 -351.721919 
L 695.767728 -355.301324 
L 695.877982 -358.880728 
L 696.03919 -362.460133 
L 696.252637 -366.039537 
L 696.518597 -369.618942 
L 696.836426 -373.198347 
L 697.204618 -376.777751 
L 697.62081 -380.357156 
L 698.081778 -383.93656 
L 698.583429 -387.515965 
L 699.120807 -391.095369 
L 699.688133 -394.674774 
L 700.278889 -398.254178 
L 700.885949 -401.833583 
L 701.501751 -405.412988 
L 702.118522 -408.992392 
L 702.728517 -412.571797 
L 703.324277 -416.151201 
L 703.898882 -419.730606 
L 704.446174 -423.31001 
L 704.960951 -426.889415 
L 705.439097 -430.46882 
L 705.87767 -434.048224 
L 706.274913 -437.627629 
L 706.63022 -441.207033 
L 706.944041 -444.786438 
L 707.217752 -448.365842 
L 707.453496 -451.945247 
L 707.654002 -455.524651 
L 709.305998 -455.524651 
L 709.305998 -455.524651 
L 709.506504 -451.945247 
L 709.742248 -448.365842 
L 710.015959 -444.786438 
L 710.32978 -441.207033 
L 710.685087 -437.627629 
L 711.08233 -434.048224 
L 711.520903 -430.46882 
L 711.999049 -426.889415 
L 712.513826 -423.31001 
L 713.061118 -419.730606 
L 713.635723 -416.151201 
L 714.231483 -412.571797 
L 714.841478 -408.992392 
L 715.458249 -405.412988 
L 716.074051 -401.833583 
L 716.681111 -398.254178 
L 717.271867 -394.674774 
L 717.839193 -391.095369 
L 718.376571 -387.515965 
L 718.878222 -383.93656 
L 719.33919 -380.357156 
L 719.755382 -376.777751 
L 720.123574 -373.198347 
L 720.441403 -369.618942 
L 720.707363 -366.039537 
L 720.92081 -362.460133 
L 721.082018 -358.880728 
L 721.192272 -355.301324 
L 721.254016 -351.721919 
L 721.271064 -348.142515 
L 721.248837 -344.56311 
L 721.194641 -340.983706 
L 721.117936 -337.404301 
L 721.030574 -333.824896 
L 720.946972 -330.245492 
L 720.884185 -326.666087 
L 720.861844 -323.086683 
L 720.901933 -319.507278 
L 721.028391 -315.927874 
L 721.266529 -312.348469 
L 721.642273 -308.769064 
L 722.181254 -305.18966 
L 722.907781 -301.610255 
L 723.843751 -298.030851 
L 725.007546 -294.451446 
L 726.412988 -290.872042 
L 728.068415 -287.292637 
L 729.975947 -283.713233 
L 732.130973 -280.133828 
L 734.521923 -276.554423 
L 737.130329 -272.975019 
L 739.931183 -269.395614 
L 742.893562 -265.81621 
L 745.981506 -262.236805 
L 749.155067 -258.657401 
L 752.371483 -255.077996 
L 755.586402 -251.498592 
L 758.755077 -247.919187 
L 761.833473 -244.339782 
L 764.779235 -240.760378 
L 767.552459 -237.180973 
L 770.116274 -233.601569 
L 772.437203 -230.022164 
L 774.485352 -226.44276 
L 776.234438 -222.863355 
L 777.661722 -219.28395 
L 778.7479 -215.704546 
L 779.477006 -212.125141 
L 779.836383 -208.545737 
L 779.816767 -204.966332 
L 779.412495 -201.386928 
L 778.621852 -197.807523 
L 777.447515 -194.228119 
L 775.897066 -190.648714 
L 773.983507 -187.069309 
L 771.725685 -183.489905 
L 769.148574 -179.9105 
L 766.283321 -176.331096 
L 763.167005 -172.751691 
L 759.842076 -169.172287 
L 756.355467 -165.592882 
L 752.7574 -162.013478 
L 749.099949 -158.434073 
L 745.435432 -154.854668 
L 741.814733 -151.275264 
L 738.285673 -147.695859 
L 734.891506 -144.116455 
L 731.669673 -140.53705 
L 728.650844 -136.957646 
L 725.858336 -133.378241 
L 723.307887 -129.798836 
L 721.00781 -126.219432 
L 718.959461 -122.640027 
L 717.157978 -119.060623 
L 715.593227 -115.481218 
L 714.250854 -111.901814 
L 713.1134 -108.322409 
L 712.161378 -104.743005 
L 711.374274 -101.1636 
z
" id="m8b600324dc" style="stroke:#4d4d4d;stroke-width:1.5;"/>
    </defs>
    <g clip-path="url(#p3bdf747394)">
     <use style="fill:#f7f7c6;stroke:#4d4d4d;stroke-width:1.5;" x="0" xlink:href="#m8b600324dc" y="697.68"/>
    </g>
   </g>
   <g id="matplotlib.axis_1">
    <g id="xtick_1">
     <g id="line2d_1">
      <defs>
       <path d="M 0 0 
L 0 3.5 
" id="ma6a4d1f3f4" style="stroke:#000000;stroke-width:0.8;"/>
      </defs>
      <g>
       <use style="stroke:#000000;stroke-width:0.8;" x="279.936" xlink:href="#ma6a4d1f3f4" y="620.9352"/>
      </g>
     </g>
     <g id="text_1">
      <!-- Player1_healthy -->
      <g transform="translate(239.908656 635.533637)scale(0.1 -0.1)">
       <defs>
        <path d="M 1259 4147 
L 1259 2394 
L 2053 2394 
Q 2494 2394 2734 2622 
Q 2975 2850 2975 3272 
Q 2975 3691 2734 3919 
Q 2494 4147 2053 4147 
L 1259 4147 
z
M 628 4666 
L 2053 4666 
Q 2838 4666 3239 4311 
Q 3641 3956 3641 3272 
Q 3641 2581 3239 2228 
Q 2838 1875 2053 1875 
L 1259 1875 
L 1259 0 
L 628 0 
L 628 4666 
z
" id="DejaVuSans-50" transform="scale(0.015625)"/>
        <path d="M 603 4863 
L 1178 4863 
L 1178 0 
L 603 0 
L 603 4863 
z
" id="DejaVuSans-6c" transform="scale(0.015625)"/>
        <path d="M 2194 1759 
Q 1497 1759 1228 1600 
Q 959 1441 959 1056 
Q 959 750 1161 570 
Q 1363 391 1709 391 
Q 2188 391 2477 730 
Q 2766 1069 2766 1631 
L 2766 1759 
L 2194 1759 
z
M 3341 1997 
L 3341 0 
L 2766 0 
L 2766 531 
Q 2569 213 2275 61 
Q 1981 -91 1556 -91 
Q 1019 -91 701 211 
Q 384 513 384 1019 
Q 384 1609 779 1909 
Q 1175 2209 1959 2209 
L 2766 2209 
L 2766 2266 
Q 2766 2663 2505 2880 
Q 2244 3097 1772 3097 
Q 1472 3097 1187 3025 
Q 903 2953 641 2809 
L 641 3341 
Q 956 3463 1253 3523 
Q 1550 3584 1831 3584 
Q 2591 3584 2966 3190 
Q 3341 2797 3341 1997 
z
" id="DejaVuSans-61" transform="scale(0.015625)"/>
        <path d="M 2059 -325 
Q 1816 -950 1584 -1140 
Q 1353 -1331 966 -1331 
L 506 -1331 
L 506 -850 
L 844 -850 
Q 1081 -850 1212 -737 
Q 1344 -625 1503 -206 
L 1606 56 
L 191 3500 
L 800 3500 
L 1894 763 
L 2988 3500 
L 3597 3500 
L 2059 -325 
z
" id="DejaVuSans-79" transform="scale(0.015625)"/>
        <path d="M 3597 1894 
L 3597 1613 
L 953 1613 
Q 991 1019 1311 708 
Q 1631 397 2203 397 
Q 2534 397 2845 478 
Q 3156 559 3463 722 
L 3463 178 
Q 3153 47 2828 -22 
Q 2503 -91 2169 -91 
Q 1331 -91 842 396 
Q 353 884 353 1716 
Q 353 2575 817 3079 
Q 1281 3584 2069 3584 
Q 2775 3584 3186 3129 
Q 3597 2675 3597 1894 
z
M 3022 2063 
Q 3016 2534 2758 2815 
Q 2500 3097 2075 3097 
Q 1594 3097 1305 2825 
Q 1016 2553 972 2059 
L 3022 2063 
z
" id="DejaVuSans-65" transform="scale(0.015625)"/>
        <path d="M 2631 2963 
Q 2534 3019 2420 3045 
Q 2306 3072 2169 3072 
Q 1681 3072 1420 2755 
Q 1159 2438 1159 1844 
L 1159 0 
L 581 0 
L 581 3500 
L 1159 3500 
L 1159 2956 
Q 1341 3275 1631 3429 
Q 1922 3584 2338 3584 
Q 2397 3584 2469 3576 
Q 2541 3569 2628 3553 
L 2631 2963 
z
" id="DejaVuSans-72" transform="scale(0.015625)"/>
        <path d="M 794 531 
L 1825 531 
L 1825 4091 
L 703 3866 
L 703 4441 
L 1819 4666 
L 2450 4666 
L 2450 531 
L 3481 531 
L 3481 0 
L 794 0 
L 794 531 
z
" id="DejaVuSans-31" transform="scale(0.015625)"/>
        <path d="M 3263 -1063 
L 3263 -1509 
L -63 -1509 
L -63 -1063 
L 3263 -1063 
z
" id="DejaVuSans-5f" transform="scale(0.015625)"/>
        <path d="M 3513 2113 
L 3513 0 
L 2938 0 
L 2938 2094 
Q 2938 2591 2744 2837 
Q 2550 3084 2163 3084 
Q 1697 3084 1428 2787 
Q 1159 2491 1159 1978 
L 1159 0 
L 581 0 
L 581 4863 
L 1159 4863 
L 1159 2956 
Q 1366 3272 1645 3428 
Q 1925 3584 2291 3584 
Q 2894 3584 3203 3211 
Q 3513 2838 3513 2113 
z
" id="DejaVuSans-68" transform="scale(0.015625)"/>
        <path d="M 1172 4494 
L 1172 3500 
L 2356 3500 
L 2356 3053 
L 1172 3053 
L 1172 1153 
Q 1172 725 1289 603 
Q 1406 481 1766 481 
L 2356 481 
L 2356 0 
L 1766 0 
Q 1100 0 847 248 
Q 594 497 594 1153 
L 594 3053 
L 172 3053 
L 172 3500 
L 594 3500 
L 594 4494 
L 1172 4494 
z
" id="DejaVuSans-74" transform="scale(0.015625)"/>
       </defs>
       <use xlink:href="#DejaVuSans-50"/>
       <use x="60.302734" xlink:href="#DejaVuSans-6c"/>
       <use x="88.085938" xlink:href="#DejaVuSans-61"/>
       <use x="149.365234" xlink:href="#DejaVuSans-79"/>
       <use x="208.544922" xlink:href="#DejaVuSans-65"/>
       <use x="270.068359" xlink:href="#DejaVuSans-72"/>
       <use x="311.181641" xlink:href="#DejaVuSans-31"/>
       <use x="374.804688" xlink:href="#DejaVuSans-5f"/>
       <use x="424.804688" xlink:href="#DejaVuSans-68"/>
       <use x="488.183594" xlink:href="#DejaVuSans-65"/>
       <use x="549.707031" xlink:href="#DejaVuSans-61"/>
       <use x="610.986328" xlink:href="#DejaVuSans-6c"/>
       <use x="638.769531" xlink:href="#DejaVuSans-74"/>
       <use x="677.978516" xlink:href="#DejaVuSans-68"/>
       <use x="741.357422" xlink:href="#DejaVuSans-79"/>
      </g>
     </g>
    </g>
    <g id="xtick_2">
     <g id="line2d_2">
      <g>
       <use style="stroke:#000000;stroke-width:0.8;" x="494.208" xlink:href="#ma6a4d1f3f4" y="620.9352"/>
      </g>
     </g>
     <g id="text_2">
      <!-- Type1_depressed -->
      <g transform="translate(451.13925 635.533637)scale(0.1 -0.1)">
       <defs>
        <path d="M -19 4666 
L 3928 4666 
L 3928 4134 
L 2272 4134 
L 2272 0 
L 1638 0 
L 1638 4134 
L -19 4134 
L -19 4666 
z
" id="DejaVuSans-54" transform="scale(0.015625)"/>
        <path d="M 1159 525 
L 1159 -1331 
L 581 -1331 
L 581 3500 
L 1159 3500 
L 1159 2969 
Q 1341 3281 1617 3432 
Q 1894 3584 2278 3584 
Q 2916 3584 3314 3078 
Q 3713 2572 3713 1747 
Q 3713 922 3314 415 
Q 2916 -91 2278 -91 
Q 1894 -91 1617 61 
Q 1341 213 1159 525 
z
M 3116 1747 
Q 3116 2381 2855 2742 
Q 2594 3103 2138 3103 
Q 1681 3103 1420 2742 
Q 1159 2381 1159 1747 
Q 1159 1113 1420 752 
Q 1681 391 2138 391 
Q 2594 391 2855 752 
Q 3116 1113 3116 1747 
z
" id="DejaVuSans-70" transform="scale(0.015625)"/>
        <path d="M 2906 2969 
L 2906 4863 
L 3481 4863 
L 3481 0 
L 2906 0 
L 2906 525 
Q 2725 213 2448 61 
Q 2172 -91 1784 -91 
Q 1150 -91 751 415 
Q 353 922 353 1747 
Q 353 2572 751 3078 
Q 1150 3584 1784 3584 
Q 2172 3584 2448 3432 
Q 2725 3281 2906 2969 
z
M 947 1747 
Q 947 1113 1208 752 
Q 1469 391 1925 391 
Q 2381 391 2643 752 
Q 2906 1113 2906 1747 
Q 2906 2381 2643 2742 
Q 2381 3103 1925 3103 
Q 1469 3103 1208 2742 
Q 947 2381 947 1747 
z
" id="DejaVuSans-64" transform="scale(0.015625)"/>
        <path d="M 2834 3397 
L 2834 2853 
Q 2591 2978 2328 3040 
Q 2066 3103 1784 3103 
Q 1356 3103 1142 2972 
Q 928 2841 928 2578 
Q 928 2378 1081 2264 
Q 1234 2150 1697 2047 
L 1894 2003 
Q 2506 1872 2764 1633 
Q 3022 1394 3022 966 
Q 3022 478 2636 193 
Q 2250 -91 1575 -91 
Q 1294 -91 989 -36 
Q 684 19 347 128 
L 347 722 
Q 666 556 975 473 
Q 1284 391 1588 391 
Q 1994 391 2212 530 
Q 2431 669 2431 922 
Q 2431 1156 2273 1281 
Q 2116 1406 1581 1522 
L 1381 1569 
Q 847 1681 609 1914 
Q 372 2147 372 2553 
Q 372 3047 722 3315 
Q 1072 3584 1716 3584 
Q 2034 3584 2315 3537 
Q 2597 3491 2834 3397 
z
" id="DejaVuSans-73" transform="scale(0.015625)"/>
       </defs>
       <use xlink:href="#DejaVuSans-54"/>
       <use x="45.458984" xlink:href="#DejaVuSans-79"/>
       <use x="104.638672" xlink:href="#DejaVuSans-70"/>
       <use x="168.115234" xlink:href="#DejaVuSans-65"/>
       <use x="229.638672" xlink:href="#DejaVuSans-31"/>
       <use x="293.261719" xlink:href="#DejaVuSans-5f"/>
       <use x="343.261719" xlink:href="#DejaVuSans-64"/>
       <use x="406.738281" xlink:href="#DejaVuSans-65"/>
       <use x="468.261719" xlink:href="#DejaVuSans-70"/>
       <use x="531.738281" xlink:href="#DejaVuSans-72"/>
       <use x="570.601562" xlink:href="#DejaVuSans-65"/>
       <use x="632.125" xlink:href="#DejaVuSans-73"/>
       <use x="684.224609" xlink:href="#DejaVuSans-73"/>
       <use x="736.324219" xlink:href="#DejaVuSans-65"/>
       <use x="797.847656" xlink:href="#DejaVuSans-64"/>
      </g>
     </g>
    </g>
    <g id="xtick_3">
     <g id="line2d_3">
      <g>
       <use style="stroke:#000000;stroke-width:0.8;" x="708.48" xlink:href="#ma6a4d1f3f4" y="620.9352"/>
      </g>
     </g>
     <g id="text_3">
      <!-- Type2_depressed -->
      <g transform="translate(665.41125 635.533637)scale(0.1 -0.1)">
       <defs>
        <path d="M 1228 531 
L 3431 531 
L 3431 0 
L 469 0 
L 469 531 
Q 828 903 1448 1529 
Q 2069 2156 2228 2338 
Q 2531 2678 2651 2914 
Q 2772 3150 2772 3378 
Q 2772 3750 2511 3984 
Q 2250 4219 1831 4219 
Q 1534 4219 1204 4116 
Q 875 4013 500 3803 
L 500 4441 
Q 881 4594 1212 4672 
Q 1544 4750 1819 4750 
Q 2544 4750 2975 4387 
Q 3406 4025 3406 3419 
Q 3406 3131 3298 2873 
Q 3191 2616 2906 2266 
Q 2828 2175 2409 1742 
Q 1991 1309 1228 531 
z
" id="DejaVuSans-32" transform="scale(0.015625)"/>
       </defs>
       <use xlink:href="#DejaVuSans-54"/>
       <use x="45.458984" xlink:href="#DejaVuSans-79"/>
       <use x="104.638672" xlink:href="#DejaVuSans-70"/>
       <use x="168.115234" xlink:href="#DejaVuSans-65"/>
       <use x="229.638672" xlink:href="#DejaVuSans-32"/>
       <use x="293.261719" xlink:href="#DejaVuSans-5f"/>
       <use x="343.261719" xlink:href="#DejaVuSans-64"/>
       <use x="406.738281" xlink:href="#DejaVuSans-65"/>
       <use x="468.261719" xlink:href="#DejaVuSans-70"/>
       <use x="531.738281" xlink:href="#DejaVuSans-72"/>
       <use x="570.601562" xlink:href="#DejaVuSans-65"/>
       <use x="632.125" xlink:href="#DejaVuSans-73"/>
       <use x="684.224609" xlink:href="#DejaVuSans-73"/>
       <use x="736.324219" xlink:href="#DejaVuSans-65"/>
       <use x="797.847656" xlink:href="#DejaVuSans-64"/>
      </g>
     </g>
    </g>
    <g id="xtick_4">
     <g id="line2d_4">
      <g>
       <use style="stroke:#000000;stroke-width:0.8;" x="922.752" xlink:href="#ma6a4d1f3f4" y="620.9352"/>
      </g>
     </g>
     <g id="text_4">
      <!-- Type1_social_phobia -->
      <g transform="translate(871.802781 635.533637)scale(0.1 -0.1)">
       <defs>
        <path d="M 1959 3097 
Q 1497 3097 1228 2736 
Q 959 2375 959 1747 
Q 959 1119 1226 758 
Q 1494 397 1959 397 
Q 2419 397 2687 759 
Q 2956 1122 2956 1747 
Q 2956 2369 2687 2733 
Q 2419 3097 1959 3097 
z
M 1959 3584 
Q 2709 3584 3137 3096 
Q 3566 2609 3566 1747 
Q 3566 888 3137 398 
Q 2709 -91 1959 -91 
Q 1206 -91 779 398 
Q 353 888 353 1747 
Q 353 2609 779 3096 
Q 1206 3584 1959 3584 
z
" id="DejaVuSans-6f" transform="scale(0.015625)"/>
        <path d="M 3122 3366 
L 3122 2828 
Q 2878 2963 2633 3030 
Q 2388 3097 2138 3097 
Q 1578 3097 1268 2742 
Q 959 2388 959 1747 
Q 959 1106 1268 751 
Q 1578 397 2138 397 
Q 2388 397 2633 464 
Q 2878 531 3122 666 
L 3122 134 
Q 2881 22 2623 -34 
Q 2366 -91 2075 -91 
Q 1284 -91 818 406 
Q 353 903 353 1747 
Q 353 2603 823 3093 
Q 1294 3584 2113 3584 
Q 2378 3584 2631 3529 
Q 2884 3475 3122 3366 
z
" id="DejaVuSans-63" transform="scale(0.015625)"/>
        <path d="M 603 3500 
L 1178 3500 
L 1178 0 
L 603 0 
L 603 3500 
z
M 603 4863 
L 1178 4863 
L 1178 4134 
L 603 4134 
L 603 4863 
z
" id="DejaVuSans-69" transform="scale(0.015625)"/>
        <path d="M 3116 1747 
Q 3116 2381 2855 2742 
Q 2594 3103 2138 3103 
Q 1681 3103 1420 2742 
Q 1159 2381 1159 1747 
Q 1159 1113 1420 752 
Q 1681 391 2138 391 
Q 2594 391 2855 752 
Q 3116 1113 3116 1747 
z
M 1159 2969 
Q 1341 3281 1617 3432 
Q 1894 3584 2278 3584 
Q 2916 3584 3314 3078 
Q 3713 2572 3713 1747 
Q 3713 922 3314 415 
Q 2916 -91 2278 -91 
Q 1894 -91 1617 61 
Q 1341 213 1159 525 
L 1159 0 
L 581 0 
L 581 4863 
L 1159 4863 
L 1159 2969 
z
" id="DejaVuSans-62" transform="scale(0.015625)"/>
       </defs>
       <use xlink:href="#DejaVuSans-54"/>
       <use x="45.458984" xlink:href="#DejaVuSans-79"/>
       <use x="104.638672" xlink:href="#DejaVuSans-70"/>
       <use x="168.115234" xlink:href="#DejaVuSans-65"/>
       <use x="229.638672" xlink:href="#DejaVuSans-31"/>
       <use x="293.261719" xlink:href="#DejaVuSans-5f"/>
       <use x="343.261719" xlink:href="#DejaVuSans-73"/>
       <use x="395.361328" xlink:href="#DejaVuSans-6f"/>
       <use x="456.542969" xlink:href="#DejaVuSans-63"/>
       <use x="511.523438" xlink:href="#DejaVuSans-69"/>
       <use x="539.306641" xlink:href="#DejaVuSans-61"/>
       <use x="600.585938" xlink:href="#DejaVuSans-6c"/>
       <use x="628.369141" xlink:href="#DejaVuSans-5f"/>
       <use x="678.369141" xlink:href="#DejaVuSans-70"/>
       <use x="741.845703" xlink:href="#DejaVuSans-68"/>
       <use x="805.224609" xlink:href="#DejaVuSans-6f"/>
       <use x="866.40625" xlink:href="#DejaVuSans-62"/>
       <use x="929.882812" xlink:href="#DejaVuSans-69"/>
       <use x="957.666016" xlink:href="#DejaVuSans-61"/>
      </g>
     </g>
    </g>
    <g id="xtick_5">
     <g id="line2d_5">
      <g>
       <use style="stroke:#000000;stroke-width:0.8;" x="1137.024" xlink:href="#ma6a4d1f3f4" y="620.9352"/>
      </g>
     </g>
     <g id="text_5">
      <!-- Type2_social_phobia -->
      <g transform="translate(1086.074781 635.533637)scale(0.1 -0.1)">
       <use xlink:href="#DejaVuSans-54"/>
       <use x="45.458984" xlink:href="#DejaVuSans-79"/>
       <use x="104.638672" xlink:href="#DejaVuSans-70"/>
       <use x="168.115234" xlink:href="#DejaVuSans-65"/>
       <use x="229.638672" xlink:href="#DejaVuSans-32"/>
       <use x="293.261719" xlink:href="#DejaVuSans-5f"/>
       <use x="343.261719" xlink:href="#DejaVuSans-73"/>
       <use x="395.361328" xlink:href="#DejaVuSans-6f"/>
       <use x="456.542969" xlink:href="#DejaVuSans-63"/>
       <use x="511.523438" xlink:href="#DejaVuSans-69"/>
       <use x="539.306641" xlink:href="#DejaVuSans-61"/>
       <use x="600.585938" xlink:href="#DejaVuSans-6c"/>
       <use x="628.369141" xlink:href="#DejaVuSans-5f"/>
       <use x="678.369141" xlink:href="#DejaVuSans-70"/>
       <use x="741.845703" xlink:href="#DejaVuSans-68"/>
       <use x="805.224609" xlink:href="#DejaVuSans-6f"/>
       <use x="866.40625" xlink:href="#DejaVuSans-62"/>
       <use x="929.882812" xlink:href="#DejaVuSans-69"/>
       <use x="957.666016" xlink:href="#DejaVuSans-61"/>
      </g>
     </g>
    </g>
   </g>
   <g id="matplotlib.axis_2">
    <g id="ytick_1">
     <g id="line2d_6">
      <defs>
       <path d="M 0 0 
L -3.5 0 
" id="m8436835c8c" style="stroke:#000000;stroke-width:0.8;"/>
      </defs>
      <g>
       <use style="stroke:#000000;stroke-width:0.8;" x="172.8" xlink:href="#m8436835c8c" y="608.914152"/>
      </g>
     </g>
     <g id="text_6">
      <!-- 50 -->
      <g transform="translate(153.075 612.71337)scale(0.1 -0.1)">
       <defs>
        <path d="M 691 4666 
L 3169 4666 
L 3169 4134 
L 1269 4134 
L 1269 2991 
Q 1406 3038 1543 3061 
Q 1681 3084 1819 3084 
Q 2600 3084 3056 2656 
Q 3513 2228 3513 1497 
Q 3513 744 3044 326 
Q 2575 -91 1722 -91 
Q 1428 -91 1123 -41 
Q 819 9 494 109 
L 494 744 
Q 775 591 1075 516 
Q 1375 441 1709 441 
Q 2250 441 2565 725 
Q 2881 1009 2881 1497 
Q 2881 1984 2565 2268 
Q 2250 2553 1709 2553 
Q 1456 2553 1204 2497 
Q 953 2441 691 2322 
L 691 4666 
z
" id="DejaVuSans-35" transform="scale(0.015625)"/>
        <path d="M 2034 4250 
Q 1547 4250 1301 3770 
Q 1056 3291 1056 2328 
Q 1056 1369 1301 889 
Q 1547 409 2034 409 
Q 2525 409 2770 889 
Q 3016 1369 3016 2328 
Q 3016 3291 2770 3770 
Q 2525 4250 2034 4250 
z
M 2034 4750 
Q 2819 4750 3233 4129 
Q 3647 3509 3647 2328 
Q 3647 1150 3233 529 
Q 2819 -91 2034 -91 
Q 1250 -91 836 529 
Q 422 1150 422 2328 
Q 422 3509 836 4129 
Q 1250 4750 2034 4750 
z
" id="DejaVuSans-30" transform="scale(0.015625)"/>
       </defs>
       <use xlink:href="#DejaVuSans-35"/>
       <use x="63.623047" xlink:href="#DejaVuSans-30"/>
      </g>
     </g>
    </g>
    <g id="ytick_2">
     <g id="line2d_7">
      <g>
       <use style="stroke:#000000;stroke-width:0.8;" x="172.8" xlink:href="#m8436835c8c" y="529.923203"/>
      </g>
     </g>
     <g id="text_7">
      <!-- 60 -->
      <g transform="translate(153.075 533.722421)scale(0.1 -0.1)">
       <defs>
        <path d="M 2113 2584 
Q 1688 2584 1439 2293 
Q 1191 2003 1191 1497 
Q 1191 994 1439 701 
Q 1688 409 2113 409 
Q 2538 409 2786 701 
Q 3034 994 3034 1497 
Q 3034 2003 2786 2293 
Q 2538 2584 2113 2584 
z
M 3366 4563 
L 3366 3988 
Q 3128 4100 2886 4159 
Q 2644 4219 2406 4219 
Q 1781 4219 1451 3797 
Q 1122 3375 1075 2522 
Q 1259 2794 1537 2939 
Q 1816 3084 2150 3084 
Q 2853 3084 3261 2657 
Q 3669 2231 3669 1497 
Q 3669 778 3244 343 
Q 2819 -91 2113 -91 
Q 1303 -91 875 529 
Q 447 1150 447 2328 
Q 447 3434 972 4092 
Q 1497 4750 2381 4750 
Q 2619 4750 2861 4703 
Q 3103 4656 3366 4563 
z
" id="DejaVuSans-36" transform="scale(0.015625)"/>
       </defs>
       <use xlink:href="#DejaVuSans-36"/>
       <use x="63.623047" xlink:href="#DejaVuSans-30"/>
      </g>
     </g>
    </g>
    <g id="ytick_3">
     <g id="line2d_8">
      <g>
       <use style="stroke:#000000;stroke-width:0.8;" x="172.8" xlink:href="#m8436835c8c" y="450.932254"/>
      </g>
     </g>
     <g id="text_8">
      <!-- 70 -->
      <g transform="translate(153.075 454.731473)scale(0.1 -0.1)">
       <defs>
        <path d="M 525 4666 
L 3525 4666 
L 3525 4397 
L 1831 0 
L 1172 0 
L 2766 4134 
L 525 4134 
L 525 4666 
z
" id="DejaVuSans-37" transform="scale(0.015625)"/>
       </defs>
       <use xlink:href="#DejaVuSans-37"/>
       <use x="63.623047" xlink:href="#DejaVuSans-30"/>
      </g>
     </g>
    </g>
    <g id="ytick_4">
     <g id="line2d_9">
      <g>
       <use style="stroke:#000000;stroke-width:0.8;" x="172.8" xlink:href="#m8436835c8c" y="371.941305"/>
      </g>
     </g>
     <g id="text_9">
      <!-- 80 -->
      <g transform="translate(153.075 375.740524)scale(0.1 -0.1)">
       <defs>
        <path d="M 2034 2216 
Q 1584 2216 1326 1975 
Q 1069 1734 1069 1313 
Q 1069 891 1326 650 
Q 1584 409 2034 409 
Q 2484 409 2743 651 
Q 3003 894 3003 1313 
Q 3003 1734 2745 1975 
Q 2488 2216 2034 2216 
z
M 1403 2484 
Q 997 2584 770 2862 
Q 544 3141 544 3541 
Q 544 4100 942 4425 
Q 1341 4750 2034 4750 
Q 2731 4750 3128 4425 
Q 3525 4100 3525 3541 
Q 3525 3141 3298 2862 
Q 3072 2584 2669 2484 
Q 3125 2378 3379 2068 
Q 3634 1759 3634 1313 
Q 3634 634 3220 271 
Q 2806 -91 2034 -91 
Q 1263 -91 848 271 
Q 434 634 434 1313 
Q 434 1759 690 2068 
Q 947 2378 1403 2484 
z
M 1172 3481 
Q 1172 3119 1398 2916 
Q 1625 2713 2034 2713 
Q 2441 2713 2670 2916 
Q 2900 3119 2900 3481 
Q 2900 3844 2670 4047 
Q 2441 4250 2034 4250 
Q 1625 4250 1398 4047 
Q 1172 3844 1172 3481 
z
" id="DejaVuSans-38" transform="scale(0.015625)"/>
       </defs>
       <use xlink:href="#DejaVuSans-38"/>
       <use x="63.623047" xlink:href="#DejaVuSans-30"/>
      </g>
     </g>
    </g>
    <g id="ytick_5">
     <g id="line2d_10">
      <g>
       <use style="stroke:#000000;stroke-width:0.8;" x="172.8" xlink:href="#m8436835c8c" y="292.950356"/>
      </g>
     </g>
     <g id="text_10">
      <!-- 90 -->
      <g transform="translate(153.075 296.749575)scale(0.1 -0.1)">
       <defs>
        <path d="M 703 97 
L 703 672 
Q 941 559 1184 500 
Q 1428 441 1663 441 
Q 2288 441 2617 861 
Q 2947 1281 2994 2138 
Q 2813 1869 2534 1725 
Q 2256 1581 1919 1581 
Q 1219 1581 811 2004 
Q 403 2428 403 3163 
Q 403 3881 828 4315 
Q 1253 4750 1959 4750 
Q 2769 4750 3195 4129 
Q 3622 3509 3622 2328 
Q 3622 1225 3098 567 
Q 2575 -91 1691 -91 
Q 1453 -91 1209 -44 
Q 966 3 703 97 
z
M 1959 2075 
Q 2384 2075 2632 2365 
Q 2881 2656 2881 3163 
Q 2881 3666 2632 3958 
Q 2384 4250 1959 4250 
Q 1534 4250 1286 3958 
Q 1038 3666 1038 3163 
Q 1038 2656 1286 2365 
Q 1534 2075 1959 2075 
z
" id="DejaVuSans-39" transform="scale(0.015625)"/>
       </defs>
       <use xlink:href="#DejaVuSans-39"/>
       <use x="63.623047" xlink:href="#DejaVuSans-30"/>
      </g>
     </g>
    </g>
    <g id="ytick_6">
     <g id="line2d_11">
      <g>
       <use style="stroke:#000000;stroke-width:0.8;" x="172.8" xlink:href="#m8436835c8c" y="213.959407"/>
      </g>
     </g>
     <g id="text_11">
      <!-- 100 -->
      <g transform="translate(146.7125 217.758626)scale(0.1 -0.1)">
       <use xlink:href="#DejaVuSans-31"/>
       <use x="63.623047" xlink:href="#DejaVuSans-30"/>
       <use x="127.246094" xlink:href="#DejaVuSans-30"/>
      </g>
     </g>
    </g>
    <g id="ytick_7">
     <g id="line2d_12">
      <g>
       <use style="stroke:#000000;stroke-width:0.8;" x="172.8" xlink:href="#m8436835c8c" y="134.968458"/>
      </g>
     </g>
     <g id="text_12">
      <!-- 110 -->
      <g transform="translate(146.7125 138.767677)scale(0.1 -0.1)">
       <use xlink:href="#DejaVuSans-31"/>
       <use x="63.623047" xlink:href="#DejaVuSans-31"/>
       <use x="127.246094" xlink:href="#DejaVuSans-30"/>
      </g>
     </g>
    </g>
   </g>
   <g id="line2d_13">
    <path clip-path="url(#p3bdf747394)" d="M 279.936 462.780896 
L 279.936 190.262123 
" style="fill:none;stroke:#4d4d4d;stroke-linecap:square;stroke-width:1.5;"/>
   </g>
   <g id="line2d_14">
    <path clip-path="url(#p3bdf747394)" d="M 279.936 385.764721 
L 279.936 304.798998 
" style="fill:none;stroke:#4d4d4d;stroke-linecap:square;stroke-width:4.5;"/>
   </g>
   <g id="line2d_15">
    <path clip-path="url(#p3bdf747394)" d="M 494.208 506.225918 
L 494.208 344.294473 
" style="fill:none;stroke:#4d4d4d;stroke-linecap:square;stroke-width:1.5;"/>
   </g>
   <g id="line2d_16">
    <path clip-path="url(#p3bdf747394)" d="M 494.208 458.831349 
L 494.208 411.436779 
" style="fill:none;stroke:#4d4d4d;stroke-linecap:square;stroke-width:4.5;"/>
   </g>
   <g id="line2d_17">
    <path clip-path="url(#p3bdf747394)" d="M 708.48 529.923203 
L 708.48 375.890852 
" style="fill:none;stroke:#4d4d4d;stroke-linecap:square;stroke-width:1.5;"/>
   </g>
   <g id="line2d_18">
    <path clip-path="url(#p3bdf747394)" d="M 708.48 515.1124 
L 708.48 452.907028 
" style="fill:none;stroke:#4d4d4d;stroke-linecap:square;stroke-width:4.5;"/>
   </g>
   <g id="line2d_19">
    <path clip-path="url(#p3bdf747394)" d="M 837.0432 522.024108 
L 1008.4608 522.024108 
" style="fill:none;stroke:#4d4d4d;stroke-linecap:square;stroke-width:1.5;"/>
   </g>
   <g id="line2d_20">
    <path clip-path="url(#p3bdf747394)" d="M 1051.3152 522.024108 
L 1222.7328 522.024108 
" style="fill:none;stroke:#4d4d4d;stroke-linecap:square;stroke-width:1.5;"/>
   </g>
   <g id="patch_3">
    <path d="M 172.8 620.9352 
L 172.8 83.7216 
" style="fill:none;stroke:#000000;stroke-linecap:square;stroke-linejoin:miter;stroke-width:0.8;"/>
   </g>
   <g id="patch_4">
    <path d="M 1244.16 620.9352 
L 1244.16 83.7216 
" style="fill:none;stroke:#000000;stroke-linecap:square;stroke-linejoin:miter;stroke-width:0.8;"/>
   </g>
   <g id="patch_5">
    <path d="M 172.8 620.9352 
L 1244.16 620.9352 
" style="fill:none;stroke:#000000;stroke-linecap:square;stroke-linejoin:miter;stroke-width:0.8;"/>
   </g>
   <g id="patch_6">
    <path d="M 172.8 83.7216 
L 1244.16 83.7216 
" style="fill:none;stroke:#000000;stroke-linecap:square;stroke-linejoin:miter;stroke-width:0.8;"/>
   </g>
   <g id="PathCollection_1">
    <defs>
     <path d="M 0 1.5 
C 0.397805 1.5 0.77937 1.341951 1.06066 1.06066 
C 1.341951 0.77937 1.5 0.397805 1.5 0 
C 1.5 -0.397805 1.341951 -0.77937 1.06066 -1.06066 
C 0.77937 -1.341951 0.397805 -1.5 0 -1.5 
C -0.397805 -1.5 -0.77937 -1.341951 -1.06066 -1.06066 
C -1.341951 -0.77937 -1.5 -0.397805 -1.5 0 
C -1.5 0.397805 -1.341951 0.77937 -1.06066 1.06066 
C -0.77937 1.341951 -0.397805 1.5 0 1.5 
z
" id="mc6ff1599df" style="stroke:#4d4d4d;"/>
    </defs>
    <g clip-path="url(#p3bdf747394)">
     <use style="fill:#ffffff;stroke:#4d4d4d;" x="279.936" xlink:href="#mc6ff1599df" y="358.117889"/>
    </g>
   </g>
   <g id="PathCollection_2">
    <g clip-path="url(#p3bdf747394)">
     <use style="fill:#ffffff;stroke:#4d4d4d;" x="494.208" xlink:href="#mc6ff1599df" y="431.184517"/>
    </g>
   </g>
   <g id="PathCollection_3">
    <g clip-path="url(#p3bdf747394)">
     <use style="fill:#ffffff;stroke:#4d4d4d;" x="708.48" xlink:href="#mc6ff1599df" y="480.55386"/>
    </g>
   </g>
   <g id="text_13">
    <!-- Rewards earned per agent type - cooperative context first -->
    <g transform="translate(344.905781 77.7216)scale(0.25 -0.25)">
     <defs>
      <path d="M 2841 2188 
Q 3044 2119 3236 1894 
Q 3428 1669 3622 1275 
L 4263 0 
L 3584 0 
L 2988 1197 
Q 2756 1666 2539 1819 
Q 2322 1972 1947 1972 
L 1259 1972 
L 1259 0 
L 628 0 
L 628 4666 
L 2053 4666 
Q 2853 4666 3247 4331 
Q 3641 3997 3641 3322 
Q 3641 2881 3436 2590 
Q 3231 2300 2841 2188 
z
M 1259 4147 
L 1259 2491 
L 2053 2491 
Q 2509 2491 2742 2702 
Q 2975 2913 2975 3322 
Q 2975 3731 2742 3939 
Q 2509 4147 2053 4147 
L 1259 4147 
z
" id="DejaVuSans-52" transform="scale(0.015625)"/>
      <path d="M 269 3500 
L 844 3500 
L 1563 769 
L 2278 3500 
L 2956 3500 
L 3675 769 
L 4391 3500 
L 4966 3500 
L 4050 0 
L 3372 0 
L 2619 2869 
L 1863 0 
L 1184 0 
L 269 3500 
z
" id="DejaVuSans-77" transform="scale(0.015625)"/>
      <path id="DejaVuSans-20" transform="scale(0.015625)"/>
      <path d="M 3513 2113 
L 3513 0 
L 2938 0 
L 2938 2094 
Q 2938 2591 2744 2837 
Q 2550 3084 2163 3084 
Q 1697 3084 1428 2787 
Q 1159 2491 1159 1978 
L 1159 0 
L 581 0 
L 581 3500 
L 1159 3500 
L 1159 2956 
Q 1366 3272 1645 3428 
Q 1925 3584 2291 3584 
Q 2894 3584 3203 3211 
Q 3513 2838 3513 2113 
z
" id="DejaVuSans-6e" transform="scale(0.015625)"/>
      <path d="M 2906 1791 
Q 2906 2416 2648 2759 
Q 2391 3103 1925 3103 
Q 1463 3103 1205 2759 
Q 947 2416 947 1791 
Q 947 1169 1205 825 
Q 1463 481 1925 481 
Q 2391 481 2648 825 
Q 2906 1169 2906 1791 
z
M 3481 434 
Q 3481 -459 3084 -895 
Q 2688 -1331 1869 -1331 
Q 1566 -1331 1297 -1286 
Q 1028 -1241 775 -1147 
L 775 -588 
Q 1028 -725 1275 -790 
Q 1522 -856 1778 -856 
Q 2344 -856 2625 -561 
Q 2906 -266 2906 331 
L 2906 616 
Q 2728 306 2450 153 
Q 2172 0 1784 0 
Q 1141 0 747 490 
Q 353 981 353 1791 
Q 353 2603 747 3093 
Q 1141 3584 1784 3584 
Q 2172 3584 2450 3431 
Q 2728 3278 2906 2969 
L 2906 3500 
L 3481 3500 
L 3481 434 
z
" id="DejaVuSans-67" transform="scale(0.015625)"/>
      <path d="M 313 2009 
L 1997 2009 
L 1997 1497 
L 313 1497 
L 313 2009 
z
" id="DejaVuSans-2d" transform="scale(0.015625)"/>
      <path d="M 191 3500 
L 800 3500 
L 1894 563 
L 2988 3500 
L 3597 3500 
L 2284 0 
L 1503 0 
L 191 3500 
z
" id="DejaVuSans-76" transform="scale(0.015625)"/>
      <path d="M 3513 3500 
L 2247 1797 
L 3578 0 
L 2900 0 
L 1881 1375 
L 863 0 
L 184 0 
L 1544 1831 
L 300 3500 
L 978 3500 
L 1906 2253 
L 2834 3500 
L 3513 3500 
z
" id="DejaVuSans-78" transform="scale(0.015625)"/>
      <path d="M 2375 4863 
L 2375 4384 
L 1825 4384 
Q 1516 4384 1395 4259 
Q 1275 4134 1275 3809 
L 1275 3500 
L 2222 3500 
L 2222 3053 
L 1275 3053 
L 1275 0 
L 697 0 
L 697 3053 
L 147 3053 
L 147 3500 
L 697 3500 
L 697 3744 
Q 697 4328 969 4595 
Q 1241 4863 1831 4863 
L 2375 4863 
z
" id="DejaVuSans-66" transform="scale(0.015625)"/>
     </defs>
     <use xlink:href="#DejaVuSans-52"/>
     <use x="64.982422" xlink:href="#DejaVuSans-65"/>
     <use x="126.505859" xlink:href="#DejaVuSans-77"/>
     <use x="208.292969" xlink:href="#DejaVuSans-61"/>
     <use x="269.572266" xlink:href="#DejaVuSans-72"/>
     <use x="308.935547" xlink:href="#DejaVuSans-64"/>
     <use x="372.412109" xlink:href="#DejaVuSans-73"/>
     <use x="424.511719" xlink:href="#DejaVuSans-20"/>
     <use x="456.298828" xlink:href="#DejaVuSans-65"/>
     <use x="517.822266" xlink:href="#DejaVuSans-61"/>
     <use x="579.101562" xlink:href="#DejaVuSans-72"/>
     <use x="618.464844" xlink:href="#DejaVuSans-6e"/>
     <use x="681.84375" xlink:href="#DejaVuSans-65"/>
     <use x="743.367188" xlink:href="#DejaVuSans-64"/>
     <use x="806.84375" xlink:href="#DejaVuSans-20"/>
     <use x="838.630859" xlink:href="#DejaVuSans-70"/>
     <use x="902.107422" xlink:href="#DejaVuSans-65"/>
     <use x="963.630859" xlink:href="#DejaVuSans-72"/>
     <use x="1004.744141" xlink:href="#DejaVuSans-20"/>
     <use x="1036.53125" xlink:href="#DejaVuSans-61"/>
     <use x="1097.810547" xlink:href="#DejaVuSans-67"/>
     <use x="1161.287109" xlink:href="#DejaVuSans-65"/>
     <use x="1222.810547" xlink:href="#DejaVuSans-6e"/>
     <use x="1286.189453" xlink:href="#DejaVuSans-74"/>
     <use x="1325.398438" xlink:href="#DejaVuSans-20"/>
     <use x="1357.185547" xlink:href="#DejaVuSans-74"/>
     <use x="1396.394531" xlink:href="#DejaVuSans-79"/>
     <use x="1455.574219" xlink:href="#DejaVuSans-70"/>
     <use x="1519.050781" xlink:href="#DejaVuSans-65"/>
     <use x="1580.574219" xlink:href="#DejaVuSans-20"/>
     <use x="1612.361328" xlink:href="#DejaVuSans-2d"/>
     <use x="1648.445312" xlink:href="#DejaVuSans-20"/>
     <use x="1680.232422" xlink:href="#DejaVuSans-63"/>
     <use x="1735.212891" xlink:href="#DejaVuSans-6f"/>
     <use x="1796.394531" xlink:href="#DejaVuSans-6f"/>
     <use x="1857.576172" xlink:href="#DejaVuSans-70"/>
     <use x="1921.052734" xlink:href="#DejaVuSans-65"/>
     <use x="1982.576172" xlink:href="#DejaVuSans-72"/>
     <use x="2023.689453" xlink:href="#DejaVuSans-61"/>
     <use x="2084.96875" xlink:href="#DejaVuSans-74"/>
     <use x="2124.177734" xlink:href="#DejaVuSans-69"/>
     <use x="2151.960938" xlink:href="#DejaVuSans-76"/>
     <use x="2211.140625" xlink:href="#DejaVuSans-65"/>
     <use x="2272.664062" xlink:href="#DejaVuSans-20"/>
     <use x="2304.451172" xlink:href="#DejaVuSans-63"/>
     <use x="2359.431641" xlink:href="#DejaVuSans-6f"/>
     <use x="2420.613281" xlink:href="#DejaVuSans-6e"/>
     <use x="2483.992188" xlink:href="#DejaVuSans-74"/>
     <use x="2523.201172" xlink:href="#DejaVuSans-65"/>
     <use x="2582.974609" xlink:href="#DejaVuSans-78"/>
     <use x="2642.154297" xlink:href="#DejaVuSans-74"/>
     <use x="2681.363281" xlink:href="#DejaVuSans-20"/>
     <use x="2713.150391" xlink:href="#DejaVuSans-66"/>
     <use x="2748.355469" xlink:href="#DejaVuSans-69"/>
     <use x="2776.138672" xlink:href="#DejaVuSans-72"/>
     <use x="2817.251953" xlink:href="#DejaVuSans-73"/>
     <use x="2869.351562" xlink:href="#DejaVuSans-74"/>
    </g>
   </g>
  </g>
 </g>
 <defs>
  <clipPath id="p3bdf747394">
   <rect height="537.2136" width="1071.36" x="172.8" y="83.7216"/>
  </clipPath>
 </defs>
</svg>
