<?xml version="1.0" encoding="utf-8" standalone="no"?>
<!DOCTYPE svg PUBLIC "-//W3C//DTD SVG 1.1//EN"
  "http://www.w3.org/Graphics/SVG/1.1/DTD/svg11.dtd">
<svg height="720pt" version="1.1" viewBox="0 0 1152 720" width="1152pt" xmlns="http://www.w3.org/2000/svg" xmlns:xlink="http://www.w3.org/1999/xlink">
 <metadata>
  <rdf:RDF xmlns:cc="http://creativecommons.org/ns#" xmlns:dc="http://purl.org/dc/elements/1.1/" xmlns:rdf="http://www.w3.org/1999/02/22-rdf-syntax-ns#">
   <cc:Work>
    <dc:type rdf:resource="http://purl.org/dc/dcmitype/StillImage"/>
    <dc:date>2023-09-19T13:08:56.014970</dc:date>
    <dc:format>image/svg+xml</dc:format>
    <dc:creator>
     <cc:Agent>
      <dc:title>Matplotlib v3.4.3, https://matplotlib.org/</dc:title>
     </cc:Agent>
    </dc:creator>
   </cc:Work>
  </rdf:RDF>
 </metadata>
 <defs>
  <style type="text/css">*{stroke-linecap:butt;stroke-linejoin:round;}</style>
 </defs>
 <g id="figure_1">
  <g id="patch_1">
   <path d="M 0 720 
L 1152 720 
L 1152 0 
L 0 0 
z
" style="fill:#ffffff;"/>
  </g>
  <g id="axes_1">
   <g id="patch_2">
    <path d="M 144 640.8 
L 1036.8 640.8 
L 1036.8 86.4 
L 144 86.4 
z
" style="fill:#ffffff;"/>
   </g>
   <g id="PolyCollection_1">
    <defs>
     <path d="M 233.877359 -143.282958 
L 232.682641 -143.282958 
L 232.518802 -147.98111 
L 232.321012 -152.679261 
L 232.085306 -157.377413 
L 231.807997 -162.075565 
L 231.485854 -166.773717 
L 231.116275 -171.471869 
L 230.697444 -176.170021 
L 230.228459 -180.868173 
L 229.709401 -185.566325 
L 229.141356 -190.264477 
L 228.526353 -194.962629 
L 227.867244 -199.660781 
L 227.16751 -204.358933 
L 226.431007 -209.057085 
L 225.661674 -213.755237 
L 224.863224 -218.453389 
L 224.03884 -223.151541 
L 223.19091 -227.849693 
L 222.320833 -232.547845 
L 221.428919 -237.245996 
L 220.514401 -241.944148 
L 219.57559 -246.6423 
L 218.610154 -251.340452 
L 217.61553 -256.038604 
L 216.589432 -260.736756 
L 215.53043 -265.434908 
L 214.438548 -270.13306 
L 213.315811 -274.831212 
L 212.166696 -279.529364 
L 210.99841 -284.227516 
L 209.820949 -288.925668 
L 208.646907 -293.62382 
L 207.491009 -298.321972 
L 206.369403 -303.020124 
L 205.298744 -307.718276 
L 204.295158 -312.416428 
L 203.373176 -317.114579 
L 202.544756 -321.812731 
L 201.818514 -326.510883 
L 201.199231 -331.209035 
L 200.687749 -335.907187 
L 200.281242 -340.605339 
L 199.973875 -345.303491 
L 199.757774 -350.001643 
L 199.624206 -354.699795 
L 199.564835 -359.397947 
L 199.572906 -364.096099 
L 199.644219 -368.794251 
L 199.777771 -373.492403 
L 199.975979 -378.190555 
L 200.244463 -382.888707 
L 200.591401 -387.586859 
L 201.026523 -392.285011 
L 201.55986 -396.983163 
L 202.200389 -401.681314 
L 202.954707 -406.379466 
L 203.825897 -411.077618 
L 204.81268 -415.77577 
L 205.908965 -420.473922 
L 207.103803 -425.172074 
L 208.381775 -429.870226 
L 209.723737 -434.568378 
L 211.107861 -439.26653 
L 212.510865 -443.964682 
L 213.909308 -448.662834 
L 215.280855 -453.360986 
L 216.605394 -458.059138 
L 217.865945 -462.75729 
L 219.049303 -467.455442 
L 220.146392 -472.153594 
L 221.152329 -476.851746 
L 222.066233 -481.549898 
L 222.890817 -486.248049 
L 223.631808 -490.946201 
L 224.297263 -495.644353 
L 224.896825 -500.342505 
L 225.440988 -505.040657 
L 225.940387 -509.738809 
L 226.405184 -514.436961 
L 226.844543 -519.135113 
L 227.266236 -523.833265 
L 227.67638 -528.531417 
L 228.079302 -533.229569 
L 228.477539 -537.927721 
L 228.871939 -542.625873 
L 229.261878 -547.324025 
L 229.645525 -552.022177 
L 230.020179 -556.720329 
L 230.382603 -561.418481 
L 230.729372 -566.116633 
L 231.057175 -570.814784 
L 231.363081 -575.512936 
L 231.644734 -580.211088 
L 231.900488 -584.90924 
L 232.129465 -589.607392 
L 232.331555 -594.305544 
L 232.507361 -599.003696 
L 232.658104 -603.701848 
L 232.785492 -608.4 
L 233.774508 -608.4 
L 233.774508 -608.4 
L 233.901896 -603.701848 
L 234.052639 -599.003696 
L 234.228445 -594.305544 
L 234.430535 -589.607392 
L 234.659512 -584.90924 
L 234.915266 -580.211088 
L 235.196919 -575.512936 
L 235.502825 -570.814784 
L 235.830628 -566.116633 
L 236.177397 -561.418481 
L 236.539821 -556.720329 
L 236.914475 -552.022177 
L 237.298122 -547.324025 
L 237.688061 -542.625873 
L 238.082461 -537.927721 
L 238.480698 -533.229569 
L 238.88362 -528.531417 
L 239.293764 -523.833265 
L 239.715457 -519.135113 
L 240.154816 -514.436961 
L 240.619613 -509.738809 
L 241.119012 -505.040657 
L 241.663175 -500.342505 
L 242.262737 -495.644353 
L 242.928192 -490.946201 
L 243.669183 -486.248049 
L 244.493767 -481.549898 
L 245.407671 -476.851746 
L 246.413608 -472.153594 
L 247.510697 -467.455442 
L 248.694055 -462.75729 
L 249.954606 -458.059138 
L 251.279145 -453.360986 
L 252.650692 -448.662834 
L 254.049135 -443.964682 
L 255.452139 -439.26653 
L 256.836263 -434.568378 
L 258.178225 -429.870226 
L 259.456197 -425.172074 
L 260.651035 -420.473922 
L 261.74732 -415.77577 
L 262.734103 -411.077618 
L 263.605293 -406.379466 
L 264.359611 -401.681314 
L 265.00014 -396.983163 
L 265.533477 -392.285011 
L 265.968599 -387.586859 
L 266.315537 -382.888707 
L 266.584021 -378.190555 
L 266.782229 -373.492403 
L 266.915781 -368.794251 
L 266.987094 -364.096099 
L 266.995165 -359.397947 
L 266.935794 -354.699795 
L 266.802226 -350.001643 
L 266.586125 -345.303491 
L 266.278758 -340.605339 
L 265.872251 -335.907187 
L 265.360769 -331.209035 
L 264.741486 -326.510883 
L 264.015244 -321.812731 
L 263.186824 -317.114579 
L 262.264842 -312.416428 
L 261.261256 -307.718276 
L 260.190597 -303.020124 
L 259.068991 -298.321972 
L 257.913093 -293.62382 
L 256.739051 -288.925668 
L 255.56159 -284.227516 
L 254.393304 -279.529364 
L 253.244189 -274.831212 
L 252.121452 -270.13306 
L 251.02957 -265.434908 
L 249.970568 -260.736756 
L 248.94447 -256.038604 
L 247.949846 -251.340452 
L 246.98441 -246.6423 
L 246.045599 -241.944148 
L 245.131081 -237.245996 
L 244.239167 -232.547845 
L 243.36909 -227.849693 
L 242.52116 -223.151541 
L 241.696776 -218.453389 
L 240.898326 -213.755237 
L 240.128993 -209.057085 
L 239.39249 -204.358933 
L 238.692756 -199.660781 
L 238.033647 -194.962629 
L 237.418644 -190.264477 
L 236.850599 -185.566325 
L 236.331541 -180.868173 
L 235.862556 -176.170021 
L 235.443725 -171.471869 
L 235.074146 -166.773717 
L 234.752003 -162.075565 
L 234.474694 -157.377413 
L 234.238988 -152.679261 
L 234.041198 -147.98111 
L 233.877359 -143.282958 
z
" id="md474be7a54" style="stroke:#4d4d4d;stroke-width:1.5;"/>
    </defs>
    <g clip-path="url(#p728ec3141f)">
     <use style="fill:#d56b5b;stroke:#4d4d4d;stroke-width:1.5;" x="0" xlink:href="#md474be7a54" y="720"/>
    </g>
   </g>
   <g id="PolyCollection_2">
    <defs>
     <path d="M 414.184351 -159.709837 
L 409.495649 -159.709837 
L 408.87492 -161.896409 
L 408.132529 -164.082981 
L 407.25638 -166.269553 
L 406.236011 -168.456125 
L 405.06329 -170.642697 
L 403.733077 -172.829269 
L 402.243796 -175.015841 
L 400.597868 -177.202413 
L 398.801948 -179.388985 
L 396.866936 -181.575557 
L 394.807731 -183.762129 
L 392.642731 -185.948701 
L 390.393102 -188.135273 
L 388.081844 -190.321846 
L 385.732738 -192.508418 
L 383.369232 -194.69499 
L 381.013346 -196.881562 
L 378.684703 -199.068134 
L 376.399737 -201.254706 
L 374.171146 -203.441278 
L 372.007639 -205.62785 
L 369.91398 -207.814422 
L 367.891322 -210.000994 
L 365.937806 -212.187566 
L 364.049349 -214.374138 
L 362.220573 -216.56071 
L 360.445766 -218.747282 
L 358.719813 -220.933854 
L 357.039008 -223.120427 
L 355.401672 -225.306999 
L 353.808552 -227.493571 
L 352.262947 -229.680143 
L 350.770593 -231.866715 
L 349.339317 -234.053287 
L 347.978518 -236.239859 
L 346.698556 -238.426431 
L 345.510124 -240.613003 
L 344.423692 -242.799575 
L 343.449099 -244.986147 
L 342.595346 -247.172719 
L 341.870624 -249.359291 
L 341.282561 -251.545863 
L 340.838659 -253.732435 
L 340.546838 -255.919008 
L 340.416 -258.10558 
L 340.456496 -260.292152 
L 340.6804 -262.478724 
L 341.101492 -264.665296 
L 341.734891 -266.851868 
L 342.596326 -269.03844 
L 343.701053 -271.225012 
L 345.062501 -273.411584 
L 346.690747 -275.598156 
L 348.590959 -277.784728 
L 350.761945 -279.9713 
L 353.194979 -282.157872 
L 355.873014 -284.344444 
L 358.770388 -286.531016 
L 361.85309 -288.717589 
L 365.079584 -290.904161 
L 368.402163 -293.090733 
L 371.76875 -295.277305 
L 375.125031 -297.463877 
L 378.416775 -299.650449 
L 381.592188 -301.837021 
L 384.604152 -304.023593 
L 387.412199 -306.210165 
L 389.984111 -308.396737 
L 392.297051 -310.583309 
L 394.338177 -312.769881 
L 396.104707 -314.956453 
L 397.603473 -317.143025 
L 398.849993 -319.329597 
L 399.867144 -321.51617 
L 400.683537 -323.702742 
L 401.331692 -325.889314 
L 401.846132 -328.075886 
L 402.261521 -330.262458 
L 402.610937 -332.44903 
L 402.924379 -334.635602 
L 403.227588 -336.822174 
L 403.541212 -339.008746 
L 403.880363 -341.195318 
L 404.254536 -343.38189 
L 404.667876 -345.568462 
L 405.119746 -347.755034 
L 405.605508 -349.941606 
L 406.117463 -352.128178 
L 406.645851 -354.314751 
L 407.179847 -356.501323 
L 407.708469 -358.687895 
L 408.221366 -360.874467 
L 408.709422 -363.061039 
L 409.165194 -365.247611 
L 409.58314 -367.434183 
L 409.959693 -369.620755 
L 410.293179 -371.807327 
L 410.583624 -373.993899 
L 410.83248 -376.180471 
L 412.84752 -376.180471 
L 412.84752 -376.180471 
L 413.096376 -373.993899 
L 413.386821 -371.807327 
L 413.720307 -369.620755 
L 414.09686 -367.434183 
L 414.514806 -365.247611 
L 414.970578 -363.061039 
L 415.458634 -360.874467 
L 415.971531 -358.687895 
L 416.500153 -356.501323 
L 417.034149 -354.314751 
L 417.562537 -352.128178 
L 418.074492 -349.941606 
L 418.560254 -347.755034 
L 419.012124 -345.568462 
L 419.425464 -343.38189 
L 419.799637 -341.195318 
L 420.138788 -339.008746 
L 420.452412 -336.822174 
L 420.755621 -334.635602 
L 421.069063 -332.44903 
L 421.418479 -330.262458 
L 421.833868 -328.075886 
L 422.348308 -325.889314 
L 422.996463 -323.702742 
L 423.812856 -321.51617 
L 424.830007 -319.329597 
L 426.076527 -317.143025 
L 427.575293 -314.956453 
L 429.341823 -312.769881 
L 431.382949 -310.583309 
L 433.695889 -308.396737 
L 436.267801 -306.210165 
L 439.075848 -304.023593 
L 442.087812 -301.837021 
L 445.263225 -299.650449 
L 448.554969 -297.463877 
L 451.91125 -295.277305 
L 455.277837 -293.090733 
L 458.600416 -290.904161 
L 461.82691 -288.717589 
L 464.909612 -286.531016 
L 467.806986 -284.344444 
L 470.485021 -282.157872 
L 472.918055 -279.9713 
L 475.089041 -277.784728 
L 476.989253 -275.598156 
L 478.617499 -273.411584 
L 479.978947 -271.225012 
L 481.083674 -269.03844 
L 481.945109 -266.851868 
L 482.578508 -264.665296 
L 482.9996 -262.478724 
L 483.223504 -260.292152 
L 483.264 -258.10558 
L 483.133162 -255.919008 
L 482.841341 -253.732435 
L 482.397439 -251.545863 
L 481.809376 -249.359291 
L 481.084654 -247.172719 
L 480.230901 -244.986147 
L 479.256308 -242.799575 
L 478.169876 -240.613003 
L 476.981444 -238.426431 
L 475.701482 -236.239859 
L 474.340683 -234.053287 
L 472.909407 -231.866715 
L 471.417053 -229.680143 
L 469.871448 -227.493571 
L 468.278328 -225.306999 
L 466.640992 -223.120427 
L 464.960187 -220.933854 
L 463.234234 -218.747282 
L 461.459427 -216.56071 
L 459.630651 -214.374138 
L 457.742194 -212.187566 
L 455.788678 -210.000994 
L 453.76602 -207.814422 
L 451.672361 -205.62785 
L 449.508854 -203.441278 
L 447.280263 -201.254706 
L 444.995297 -199.068134 
L 442.666654 -196.881562 
L 440.310768 -194.69499 
L 437.947262 -192.508418 
L 435.598156 -190.321846 
L 433.286898 -188.135273 
L 431.037269 -185.948701 
L 428.872269 -183.762129 
L 426.813064 -181.575557 
L 424.878052 -179.388985 
L 423.082132 -177.202413 
L 421.436204 -175.015841 
L 419.946923 -172.829269 
L 418.61671 -170.642697 
L 417.443989 -168.456125 
L 416.42362 -166.269553 
L 415.547471 -164.082981 
L 414.80508 -161.896409 
L 414.184351 -159.709837 
z
" id="mf98214c69c" style="stroke:#4d4d4d;stroke-width:1.5;"/>
    </defs>
    <g clip-path="url(#p728ec3141f)">
     <use style="fill:#ecbd81;stroke:#4d4d4d;stroke-width:1.5;" x="0" xlink:href="#mf98214c69c" y="720"/>
    </g>
   </g>
   <g id="PolyCollection_3">
    <defs>
     <path d="M 591.815899 -104.4 
L 588.984101 -104.4 
L 588.587325 -108.56675 
L 588.105324 -112.7335 
L 587.527571 -116.900249 
L 586.844342 -121.066999 
L 586.047358 -125.233749 
L 585.130466 -129.400499 
L 584.090331 -133.567249 
L 582.927063 -137.733999 
L 581.644743 -141.900748 
L 580.251766 -146.067498 
L 578.760956 -150.234248 
L 577.189397 -154.400998 
L 575.55796 -158.567748 
L 573.890533 -162.734497 
L 572.212958 -166.901247 
L 570.551762 -171.067997 
L 568.932751 -175.234747 
L 567.379579 -179.401497 
L 565.912419 -183.568246 
L 564.546853 -187.734996 
L 563.293094 -191.901746 
L 562.155619 -196.068496 
L 561.133271 -200.235246 
L 560.219823 -204.401996 
L 559.404958 -208.568745 
L 558.675595 -212.735495 
L 558.017411 -216.902245 
L 557.416441 -221.068995 
L 556.860572 -225.235745 
L 556.340815 -229.402494 
L 555.852211 -233.569244 
L 555.39431 -237.735994 
L 554.971179 -241.902744 
L 554.590958 -246.069494 
L 554.265019 -250.236244 
L 554.006838 -254.402993 
L 553.830698 -258.569743 
L 553.750348 -262.736493 
L 553.77776 -266.903243 
L 553.922091 -271.069993 
L 554.188925 -275.236742 
L 554.579857 -279.403492 
L 555.09241 -283.570242 
L 555.720294 -287.736992 
L 556.453928 -291.903742 
L 557.281174 -296.070491 
L 558.188196 -300.237241 
L 559.160362 -304.403991 
L 560.183114 -308.570741 
L 561.242731 -312.737491 
L 562.326942 -316.904241 
L 563.425356 -321.07099 
L 564.529673 -325.23774 
L 565.633712 -329.40449 
L 566.73324 -333.57124 
L 567.825647 -337.73799 
L 568.909513 -341.904739 
L 569.984098 -346.071489 
L 571.048825 -350.238239 
L 572.102792 -354.404989 
L 573.144363 -358.571739 
L 574.170885 -362.738489 
L 575.178545 -366.905238 
L 576.162387 -371.071988 
L 577.116489 -375.238738 
L 578.03428 -379.405488 
L 578.908961 -383.572238 
L 579.734004 -387.738987 
L 580.503666 -391.905737 
L 581.213469 -396.072487 
L 581.860611 -400.239237 
L 582.444251 -404.405987 
L 582.965647 -408.572736 
L 583.428142 -412.739486 
L 583.836979 -416.906236 
L 584.198976 -421.072986 
L 584.522092 -425.239736 
L 584.814908 -429.406486 
L 585.086084 -433.573235 
L 585.343834 -437.739985 
L 585.595448 -441.906735 
L 585.84692 -446.073485 
L 586.102689 -450.240235 
L 586.365504 -454.406984 
L 586.636434 -458.573734 
L 586.914984 -462.740484 
L 587.199321 -466.907234 
L 587.486567 -471.073984 
L 587.773134 -475.240734 
L 588.055072 -479.407483 
L 588.328395 -483.574233 
L 588.589373 -487.740983 
L 588.834757 -491.907733 
L 589.06195 -496.074483 
L 589.269093 -500.241232 
L 589.455101 -504.407982 
L 589.619631 -508.574732 
L 589.763012 -512.741482 
L 589.886134 -516.908232 
L 590.913866 -516.908232 
L 590.913866 -516.908232 
L 591.036988 -512.741482 
L 591.180369 -508.574732 
L 591.344899 -504.407982 
L 591.530907 -500.241232 
L 591.73805 -496.074483 
L 591.965243 -491.907733 
L 592.210627 -487.740983 
L 592.471605 -483.574233 
L 592.744928 -479.407483 
L 593.026866 -475.240734 
L 593.313433 -471.073984 
L 593.600679 -466.907234 
L 593.885016 -462.740484 
L 594.163566 -458.573734 
L 594.434496 -454.406984 
L 594.697311 -450.240235 
L 594.95308 -446.073485 
L 595.204552 -441.906735 
L 595.456166 -437.739985 
L 595.713916 -433.573235 
L 595.985092 -429.406486 
L 596.277908 -425.239736 
L 596.601024 -421.072986 
L 596.963021 -416.906236 
L 597.371858 -412.739486 
L 597.834353 -408.572736 
L 598.355749 -404.405987 
L 598.939389 -400.239237 
L 599.586531 -396.072487 
L 600.296334 -391.905737 
L 601.065996 -387.738987 
L 601.891039 -383.572238 
L 602.76572 -379.405488 
L 603.683511 -375.238738 
L 604.637613 -371.071988 
L 605.621455 -366.905238 
L 606.629115 -362.738489 
L 607.655637 -358.571739 
L 608.697208 -354.404989 
L 609.751175 -350.238239 
L 610.815902 -346.071489 
L 611.890487 -341.904739 
L 612.974353 -337.73799 
L 614.06676 -333.57124 
L 615.166288 -329.40449 
L 616.270327 -325.23774 
L 617.374644 -321.07099 
L 618.473058 -316.904241 
L 619.557269 -312.737491 
L 620.616886 -308.570741 
L 621.639638 -304.403991 
L 622.611804 -300.237241 
L 623.518826 -296.070491 
L 624.346072 -291.903742 
L 625.079706 -287.736992 
L 625.70759 -283.570242 
L 626.220143 -279.403492 
L 626.611075 -275.236742 
L 626.877909 -271.069993 
L 627.02224 -266.903243 
L 627.049652 -262.736493 
L 626.969302 -258.569743 
L 626.793162 -254.402993 
L 626.534981 -250.236244 
L 626.209042 -246.069494 
L 625.828821 -241.902744 
L 625.40569 -237.735994 
L 624.947789 -233.569244 
L 624.459185 -229.402494 
L 623.939428 -225.235745 
L 623.383559 -221.068995 
L 622.782589 -216.902245 
L 622.124405 -212.735495 
L 621.395042 -208.568745 
L 620.580177 -204.401996 
L 619.666729 -200.235246 
L 618.644381 -196.068496 
L 617.506906 -191.901746 
L 616.253147 -187.734996 
L 614.887581 -183.568246 
L 613.420421 -179.401497 
L 611.867249 -175.234747 
L 610.248238 -171.067997 
L 608.587042 -166.901247 
L 606.909467 -162.734497 
L 605.24204 -158.567748 
L 603.610603 -154.400998 
L 602.039044 -150.234248 
L 600.548234 -146.067498 
L 599.155257 -141.900748 
L 597.872937 -137.733999 
L 596.709669 -133.567249 
L 595.669534 -129.400499 
L 594.752642 -125.233749 
L 593.955658 -121.066999 
L 593.272429 -116.900249 
L 592.694676 -112.7335 
L 592.212675 -108.56675 
L 591.815899 -104.4 
z
" id="m1cc595d379" style="stroke:#4d4d4d;stroke-width:1.5;"/>
    </defs>
    <g clip-path="url(#p728ec3141f)">
     <use style="fill:#f7f7c6;stroke:#4d4d4d;stroke-width:1.5;" x="0" xlink:href="#m1cc595d379" y="720"/>
    </g>
   </g>
   <g id="matplotlib.axis_1">
    <g id="xtick_1">
     <g id="line2d_1">
      <defs>
       <path d="M 0 0 
L 0 3.5 
" id="m38016459eb" style="stroke:#000000;stroke-width:0.8;"/>
      </defs>
      <g>
       <use style="stroke:#000000;stroke-width:0.8;" x="233.28" xlink:href="#m38016459eb" y="640.8"/>
      </g>
     </g>
     <g id="text_1">
      <!-- Player1_healthy -->
      <g transform="translate(193.252656 655.398438)scale(0.1 -0.1)">
       <defs>
        <path d="M 1259 4147 
L 1259 2394 
L 2053 2394 
Q 2494 2394 2734 2622 
Q 2975 2850 2975 3272 
Q 2975 3691 2734 3919 
Q 2494 4147 2053 4147 
L 1259 4147 
z
M 628 4666 
L 2053 4666 
Q 2838 4666 3239 4311 
Q 3641 3956 3641 3272 
Q 3641 2581 3239 2228 
Q 2838 1875 2053 1875 
L 1259 1875 
L 1259 0 
L 628 0 
L 628 4666 
z
" id="DejaVuSans-50" transform="scale(0.015625)"/>
        <path d="M 603 4863 
L 1178 4863 
L 1178 0 
L 603 0 
L 603 4863 
z
" id="DejaVuSans-6c" transform="scale(0.015625)"/>
        <path d="M 2194 1759 
Q 1497 1759 1228 1600 
Q 959 1441 959 1056 
Q 959 750 1161 570 
Q 1363 391 1709 391 
Q 2188 391 2477 730 
Q 2766 1069 2766 1631 
L 2766 1759 
L 2194 1759 
z
M 3341 1997 
L 3341 0 
L 2766 0 
L 2766 531 
Q 2569 213 2275 61 
Q 1981 -91 1556 -91 
Q 1019 -91 701 211 
Q 384 513 384 1019 
Q 384 1609 779 1909 
Q 1175 2209 1959 2209 
L 2766 2209 
L 2766 2266 
Q 2766 2663 2505 2880 
Q 2244 3097 1772 3097 
Q 1472 3097 1187 3025 
Q 903 2953 641 2809 
L 641 3341 
Q 956 3463 1253 3523 
Q 1550 3584 1831 3584 
Q 2591 3584 2966 3190 
Q 3341 2797 3341 1997 
z
" id="DejaVuSans-61" transform="scale(0.015625)"/>
        <path d="M 2059 -325 
Q 1816 -950 1584 -1140 
Q 1353 -1331 966 -1331 
L 506 -1331 
L 506 -850 
L 844 -850 
Q 1081 -850 1212 -737 
Q 1344 -625 1503 -206 
L 1606 56 
L 191 3500 
L 800 3500 
L 1894 763 
L 2988 3500 
L 3597 3500 
L 2059 -325 
z
" id="DejaVuSans-79" transform="scale(0.015625)"/>
        <path d="M 3597 1894 
L 3597 1613 
L 953 1613 
Q 991 1019 1311 708 
Q 1631 397 2203 397 
Q 2534 397 2845 478 
Q 3156 559 3463 722 
L 3463 178 
Q 3153 47 2828 -22 
Q 2503 -91 2169 -91 
Q 1331 -91 842 396 
Q 353 884 353 1716 
Q 353 2575 817 3079 
Q 1281 3584 2069 3584 
Q 2775 3584 3186 3129 
Q 3597 2675 3597 1894 
z
M 3022 2063 
Q 3016 2534 2758 2815 
Q 2500 3097 2075 3097 
Q 1594 3097 1305 2825 
Q 1016 2553 972 2059 
L 3022 2063 
z
" id="DejaVuSans-65" transform="scale(0.015625)"/>
        <path d="M 2631 2963 
Q 2534 3019 2420 3045 
Q 2306 3072 2169 3072 
Q 1681 3072 1420 2755 
Q 1159 2438 1159 1844 
L 1159 0 
L 581 0 
L 581 3500 
L 1159 3500 
L 1159 2956 
Q 1341 3275 1631 3429 
Q 1922 3584 2338 3584 
Q 2397 3584 2469 3576 
Q 2541 3569 2628 3553 
L 2631 2963 
z
" id="DejaVuSans-72" transform="scale(0.015625)"/>
        <path d="M 794 531 
L 1825 531 
L 1825 4091 
L 703 3866 
L 703 4441 
L 1819 4666 
L 2450 4666 
L 2450 531 
L 3481 531 
L 3481 0 
L 794 0 
L 794 531 
z
" id="DejaVuSans-31" transform="scale(0.015625)"/>
        <path d="M 3263 -1063 
L 3263 -1509 
L -63 -1509 
L -63 -1063 
L 3263 -1063 
z
" id="DejaVuSans-5f" transform="scale(0.015625)"/>
        <path d="M 3513 2113 
L 3513 0 
L 2938 0 
L 2938 2094 
Q 2938 2591 2744 2837 
Q 2550 3084 2163 3084 
Q 1697 3084 1428 2787 
Q 1159 2491 1159 1978 
L 1159 0 
L 581 0 
L 581 4863 
L 1159 4863 
L 1159 2956 
Q 1366 3272 1645 3428 
Q 1925 3584 2291 3584 
Q 2894 3584 3203 3211 
Q 3513 2838 3513 2113 
z
" id="DejaVuSans-68" transform="scale(0.015625)"/>
        <path d="M 1172 4494 
L 1172 3500 
L 2356 3500 
L 2356 3053 
L 1172 3053 
L 1172 1153 
Q 1172 725 1289 603 
Q 1406 481 1766 481 
L 2356 481 
L 2356 0 
L 1766 0 
Q 1100 0 847 248 
Q 594 497 594 1153 
L 594 3053 
L 172 3053 
L 172 3500 
L 594 3500 
L 594 4494 
L 1172 4494 
z
" id="DejaVuSans-74" transform="scale(0.015625)"/>
       </defs>
       <use xlink:href="#DejaVuSans-50"/>
       <use x="60.302734" xlink:href="#DejaVuSans-6c"/>
       <use x="88.085938" xlink:href="#DejaVuSans-61"/>
       <use x="149.365234" xlink:href="#DejaVuSans-79"/>
       <use x="208.544922" xlink:href="#DejaVuSans-65"/>
       <use x="270.068359" xlink:href="#DejaVuSans-72"/>
       <use x="311.181641" xlink:href="#DejaVuSans-31"/>
       <use x="374.804688" xlink:href="#DejaVuSans-5f"/>
       <use x="424.804688" xlink:href="#DejaVuSans-68"/>
       <use x="488.183594" xlink:href="#DejaVuSans-65"/>
       <use x="549.707031" xlink:href="#DejaVuSans-61"/>
       <use x="610.986328" xlink:href="#DejaVuSans-6c"/>
       <use x="638.769531" xlink:href="#DejaVuSans-74"/>
       <use x="677.978516" xlink:href="#DejaVuSans-68"/>
       <use x="741.357422" xlink:href="#DejaVuSans-79"/>
      </g>
     </g>
    </g>
    <g id="xtick_2">
     <g id="line2d_2">
      <g>
       <use style="stroke:#000000;stroke-width:0.8;" x="411.84" xlink:href="#m38016459eb" y="640.8"/>
      </g>
     </g>
     <g id="text_2">
      <!-- Type1_depressed -->
      <g transform="translate(368.77125 655.398438)scale(0.1 -0.1)">
       <defs>
        <path d="M -19 4666 
L 3928 4666 
L 3928 4134 
L 2272 4134 
L 2272 0 
L 1638 0 
L 1638 4134 
L -19 4134 
L -19 4666 
z
" id="DejaVuSans-54" transform="scale(0.015625)"/>
        <path d="M 1159 525 
L 1159 -1331 
L 581 -1331 
L 581 3500 
L 1159 3500 
L 1159 2969 
Q 1341 3281 1617 3432 
Q 1894 3584 2278 3584 
Q 2916 3584 3314 3078 
Q 3713 2572 3713 1747 
Q 3713 922 3314 415 
Q 2916 -91 2278 -91 
Q 1894 -91 1617 61 
Q 1341 213 1159 525 
z
M 3116 1747 
Q 3116 2381 2855 2742 
Q 2594 3103 2138 3103 
Q 1681 3103 1420 2742 
Q 1159 2381 1159 1747 
Q 1159 1113 1420 752 
Q 1681 391 2138 391 
Q 2594 391 2855 752 
Q 3116 1113 3116 1747 
z
" id="DejaVuSans-70" transform="scale(0.015625)"/>
        <path d="M 2906 2969 
L 2906 4863 
L 3481 4863 
L 3481 0 
L 2906 0 
L 2906 525 
Q 2725 213 2448 61 
Q 2172 -91 1784 -91 
Q 1150 -91 751 415 
Q 353 922 353 1747 
Q 353 2572 751 3078 
Q 1150 3584 1784 3584 
Q 2172 3584 2448 3432 
Q 2725 3281 2906 2969 
z
M 947 1747 
Q 947 1113 1208 752 
Q 1469 391 1925 391 
Q 2381 391 2643 752 
Q 2906 1113 2906 1747 
Q 2906 2381 2643 2742 
Q 2381 3103 1925 3103 
Q 1469 3103 1208 2742 
Q 947 2381 947 1747 
z
" id="DejaVuSans-64" transform="scale(0.015625)"/>
        <path d="M 2834 3397 
L 2834 2853 
Q 2591 2978 2328 3040 
Q 2066 3103 1784 3103 
Q 1356 3103 1142 2972 
Q 928 2841 928 2578 
Q 928 2378 1081 2264 
Q 1234 2150 1697 2047 
L 1894 2003 
Q 2506 1872 2764 1633 
Q 3022 1394 3022 966 
Q 3022 478 2636 193 
Q 2250 -91 1575 -91 
Q 1294 -91 989 -36 
Q 684 19 347 128 
L 347 722 
Q 666 556 975 473 
Q 1284 391 1588 391 
Q 1994 391 2212 530 
Q 2431 669 2431 922 
Q 2431 1156 2273 1281 
Q 2116 1406 1581 1522 
L 1381 1569 
Q 847 1681 609 1914 
Q 372 2147 372 2553 
Q 372 3047 722 3315 
Q 1072 3584 1716 3584 
Q 2034 3584 2315 3537 
Q 2597 3491 2834 3397 
z
" id="DejaVuSans-73" transform="scale(0.015625)"/>
       </defs>
       <use xlink:href="#DejaVuSans-54"/>
       <use x="45.458984" xlink:href="#DejaVuSans-79"/>
       <use x="104.638672" xlink:href="#DejaVuSans-70"/>
       <use x="168.115234" xlink:href="#DejaVuSans-65"/>
       <use x="229.638672" xlink:href="#DejaVuSans-31"/>
       <use x="293.261719" xlink:href="#DejaVuSans-5f"/>
       <use x="343.261719" xlink:href="#DejaVuSans-64"/>
       <use x="406.738281" xlink:href="#DejaVuSans-65"/>
       <use x="468.261719" xlink:href="#DejaVuSans-70"/>
       <use x="531.738281" xlink:href="#DejaVuSans-72"/>
       <use x="570.601562" xlink:href="#DejaVuSans-65"/>
       <use x="632.125" xlink:href="#DejaVuSans-73"/>
       <use x="684.224609" xlink:href="#DejaVuSans-73"/>
       <use x="736.324219" xlink:href="#DejaVuSans-65"/>
       <use x="797.847656" xlink:href="#DejaVuSans-64"/>
      </g>
     </g>
    </g>
    <g id="xtick_3">
     <g id="line2d_3">
      <g>
       <use style="stroke:#000000;stroke-width:0.8;" x="590.4" xlink:href="#m38016459eb" y="640.8"/>
      </g>
     </g>
     <g id="text_3">
      <!-- Type2_depressed -->
      <g transform="translate(547.33125 655.398438)scale(0.1 -0.1)">
       <defs>
        <path d="M 1228 531 
L 3431 531 
L 3431 0 
L 469 0 
L 469 531 
Q 828 903 1448 1529 
Q 2069 2156 2228 2338 
Q 2531 2678 2651 2914 
Q 2772 3150 2772 3378 
Q 2772 3750 2511 3984 
Q 2250 4219 1831 4219 
Q 1534 4219 1204 4116 
Q 875 4013 500 3803 
L 500 4441 
Q 881 4594 1212 4672 
Q 1544 4750 1819 4750 
Q 2544 4750 2975 4387 
Q 3406 4025 3406 3419 
Q 3406 3131 3298 2873 
Q 3191 2616 2906 2266 
Q 2828 2175 2409 1742 
Q 1991 1309 1228 531 
z
" id="DejaVuSans-32" transform="scale(0.015625)"/>
       </defs>
       <use xlink:href="#DejaVuSans-54"/>
       <use x="45.458984" xlink:href="#DejaVuSans-79"/>
       <use x="104.638672" xlink:href="#DejaVuSans-70"/>
       <use x="168.115234" xlink:href="#DejaVuSans-65"/>
       <use x="229.638672" xlink:href="#DejaVuSans-32"/>
       <use x="293.261719" xlink:href="#DejaVuSans-5f"/>
       <use x="343.261719" xlink:href="#DejaVuSans-64"/>
       <use x="406.738281" xlink:href="#DejaVuSans-65"/>
       <use x="468.261719" xlink:href="#DejaVuSans-70"/>
       <use x="531.738281" xlink:href="#DejaVuSans-72"/>
       <use x="570.601562" xlink:href="#DejaVuSans-65"/>
       <use x="632.125" xlink:href="#DejaVuSans-73"/>
       <use x="684.224609" xlink:href="#DejaVuSans-73"/>
       <use x="736.324219" xlink:href="#DejaVuSans-65"/>
       <use x="797.847656" xlink:href="#DejaVuSans-64"/>
      </g>
     </g>
    </g>
    <g id="xtick_4">
     <g id="line2d_4">
      <g>
       <use style="stroke:#000000;stroke-width:0.8;" x="768.96" xlink:href="#m38016459eb" y="640.8"/>
      </g>
     </g>
     <g id="text_4">
      <!-- Type1_social_phobia -->
      <g transform="translate(718.010781 655.398438)scale(0.1 -0.1)">
       <defs>
        <path d="M 1959 3097 
Q 1497 3097 1228 2736 
Q 959 2375 959 1747 
Q 959 1119 1226 758 
Q 1494 397 1959 397 
Q 2419 397 2687 759 
Q 2956 1122 2956 1747 
Q 2956 2369 2687 2733 
Q 2419 3097 1959 3097 
z
M 1959 3584 
Q 2709 3584 3137 3096 
Q 3566 2609 3566 1747 
Q 3566 888 3137 398 
Q 2709 -91 1959 -91 
Q 1206 -91 779 398 
Q 353 888 353 1747 
Q 353 2609 779 3096 
Q 1206 3584 1959 3584 
z
" id="DejaVuSans-6f" transform="scale(0.015625)"/>
        <path d="M 3122 3366 
L 3122 2828 
Q 2878 2963 2633 3030 
Q 2388 3097 2138 3097 
Q 1578 3097 1268 2742 
Q 959 2388 959 1747 
Q 959 1106 1268 751 
Q 1578 397 2138 397 
Q 2388 397 2633 464 
Q 2878 531 3122 666 
L 3122 134 
Q 2881 22 2623 -34 
Q 2366 -91 2075 -91 
Q 1284 -91 818 406 
Q 353 903 353 1747 
Q 353 2603 823 3093 
Q 1294 3584 2113 3584 
Q 2378 3584 2631 3529 
Q 2884 3475 3122 3366 
z
" id="DejaVuSans-63" transform="scale(0.015625)"/>
        <path d="M 603 3500 
L 1178 3500 
L 1178 0 
L 603 0 
L 603 3500 
z
M 603 4863 
L 1178 4863 
L 1178 4134 
L 603 4134 
L 603 4863 
z
" id="DejaVuSans-69" transform="scale(0.015625)"/>
        <path d="M 3116 1747 
Q 3116 2381 2855 2742 
Q 2594 3103 2138 3103 
Q 1681 3103 1420 2742 
Q 1159 2381 1159 1747 
Q 1159 1113 1420 752 
Q 1681 391 2138 391 
Q 2594 391 2855 752 
Q 3116 1113 3116 1747 
z
M 1159 2969 
Q 1341 3281 1617 3432 
Q 1894 3584 2278 3584 
Q 2916 3584 3314 3078 
Q 3713 2572 3713 1747 
Q 3713 922 3314 415 
Q 2916 -91 2278 -91 
Q 1894 -91 1617 61 
Q 1341 213 1159 525 
L 1159 0 
L 581 0 
L 581 4863 
L 1159 4863 
L 1159 2969 
z
" id="DejaVuSans-62" transform="scale(0.015625)"/>
       </defs>
       <use xlink:href="#DejaVuSans-54"/>
       <use x="45.458984" xlink:href="#DejaVuSans-79"/>
       <use x="104.638672" xlink:href="#DejaVuSans-70"/>
       <use x="168.115234" xlink:href="#DejaVuSans-65"/>
       <use x="229.638672" xlink:href="#DejaVuSans-31"/>
       <use x="293.261719" xlink:href="#DejaVuSans-5f"/>
       <use x="343.261719" xlink:href="#DejaVuSans-73"/>
       <use x="395.361328" xlink:href="#DejaVuSans-6f"/>
       <use x="456.542969" xlink:href="#DejaVuSans-63"/>
       <use x="511.523438" xlink:href="#DejaVuSans-69"/>
       <use x="539.306641" xlink:href="#DejaVuSans-61"/>
       <use x="600.585938" xlink:href="#DejaVuSans-6c"/>
       <use x="628.369141" xlink:href="#DejaVuSans-5f"/>
       <use x="678.369141" xlink:href="#DejaVuSans-70"/>
       <use x="741.845703" xlink:href="#DejaVuSans-68"/>
       <use x="805.224609" xlink:href="#DejaVuSans-6f"/>
       <use x="866.40625" xlink:href="#DejaVuSans-62"/>
       <use x="929.882812" xlink:href="#DejaVuSans-69"/>
       <use x="957.666016" xlink:href="#DejaVuSans-61"/>
      </g>
     </g>
    </g>
    <g id="xtick_5">
     <g id="line2d_5">
      <g>
       <use style="stroke:#000000;stroke-width:0.8;" x="947.52" xlink:href="#m38016459eb" y="640.8"/>
      </g>
     </g>
     <g id="text_5">
      <!-- Type2_social_phobia -->
      <g transform="translate(896.570781 655.398438)scale(0.1 -0.1)">
       <use xlink:href="#DejaVuSans-54"/>
       <use x="45.458984" xlink:href="#DejaVuSans-79"/>
       <use x="104.638672" xlink:href="#DejaVuSans-70"/>
       <use x="168.115234" xlink:href="#DejaVuSans-65"/>
       <use x="229.638672" xlink:href="#DejaVuSans-32"/>
       <use x="293.261719" xlink:href="#DejaVuSans-5f"/>
       <use x="343.261719" xlink:href="#DejaVuSans-73"/>
       <use x="395.361328" xlink:href="#DejaVuSans-6f"/>
       <use x="456.542969" xlink:href="#DejaVuSans-63"/>
       <use x="511.523438" xlink:href="#DejaVuSans-69"/>
       <use x="539.306641" xlink:href="#DejaVuSans-61"/>
       <use x="600.585938" xlink:href="#DejaVuSans-6c"/>
       <use x="628.369141" xlink:href="#DejaVuSans-5f"/>
       <use x="678.369141" xlink:href="#DejaVuSans-70"/>
       <use x="741.845703" xlink:href="#DejaVuSans-68"/>
       <use x="805.224609" xlink:href="#DejaVuSans-6f"/>
       <use x="866.40625" xlink:href="#DejaVuSans-62"/>
       <use x="929.882812" xlink:href="#DejaVuSans-69"/>
       <use x="957.666016" xlink:href="#DejaVuSans-61"/>
      </g>
     </g>
    </g>
   </g>
   <g id="matplotlib.axis_2">
    <g id="ytick_1">
     <g id="line2d_6">
      <defs>
       <path d="M 0 0 
L -3.5 0 
" id="m12a8423f62" style="stroke:#000000;stroke-width:0.8;"/>
      </defs>
      <g>
       <use style="stroke:#000000;stroke-width:0.8;" x="144" xlink:href="#m12a8423f62" y="629.634214"/>
      </g>
     </g>
     <g id="text_6">
      <!-- 50 -->
      <g transform="translate(124.275 633.433433)scale(0.1 -0.1)">
       <defs>
        <path d="M 691 4666 
L 3169 4666 
L 3169 4134 
L 1269 4134 
L 1269 2991 
Q 1406 3038 1543 3061 
Q 1681 3084 1819 3084 
Q 2600 3084 3056 2656 
Q 3513 2228 3513 1497 
Q 3513 744 3044 326 
Q 2575 -91 1722 -91 
Q 1428 -91 1123 -41 
Q 819 9 494 109 
L 494 744 
Q 775 591 1075 516 
Q 1375 441 1709 441 
Q 2250 441 2565 725 
Q 2881 1009 2881 1497 
Q 2881 1984 2565 2268 
Q 2250 2553 1709 2553 
Q 1456 2553 1204 2497 
Q 953 2441 691 2322 
L 691 4666 
z
" id="DejaVuSans-35" transform="scale(0.015625)"/>
        <path d="M 2034 4250 
Q 1547 4250 1301 3770 
Q 1056 3291 1056 2328 
Q 1056 1369 1301 889 
Q 1547 409 2034 409 
Q 2525 409 2770 889 
Q 3016 1369 3016 2328 
Q 3016 3291 2770 3770 
Q 2525 4250 2034 4250 
z
M 2034 4750 
Q 2819 4750 3233 4129 
Q 3647 3509 3647 2328 
Q 3647 1150 3233 529 
Q 2819 -91 2034 -91 
Q 1250 -91 836 529 
Q 422 1150 422 2328 
Q 422 3509 836 4129 
Q 1250 4750 2034 4750 
z
" id="DejaVuSans-30" transform="scale(0.015625)"/>
       </defs>
       <use xlink:href="#DejaVuSans-35"/>
       <use x="63.623047" xlink:href="#DejaVuSans-30"/>
      </g>
     </g>
    </g>
    <g id="ytick_2">
     <g id="line2d_7">
      <g>
       <use style="stroke:#000000;stroke-width:0.8;" x="144" xlink:href="#m12a8423f62" y="539.72061"/>
      </g>
     </g>
     <g id="text_7">
      <!-- 60 -->
      <g transform="translate(124.275 543.519829)scale(0.1 -0.1)">
       <defs>
        <path d="M 2113 2584 
Q 1688 2584 1439 2293 
Q 1191 2003 1191 1497 
Q 1191 994 1439 701 
Q 1688 409 2113 409 
Q 2538 409 2786 701 
Q 3034 994 3034 1497 
Q 3034 2003 2786 2293 
Q 2538 2584 2113 2584 
z
M 3366 4563 
L 3366 3988 
Q 3128 4100 2886 4159 
Q 2644 4219 2406 4219 
Q 1781 4219 1451 3797 
Q 1122 3375 1075 2522 
Q 1259 2794 1537 2939 
Q 1816 3084 2150 3084 
Q 2853 3084 3261 2657 
Q 3669 2231 3669 1497 
Q 3669 778 3244 343 
Q 2819 -91 2113 -91 
Q 1303 -91 875 529 
Q 447 1150 447 2328 
Q 447 3434 972 4092 
Q 1497 4750 2381 4750 
Q 2619 4750 2861 4703 
Q 3103 4656 3366 4563 
z
" id="DejaVuSans-36" transform="scale(0.015625)"/>
       </defs>
       <use xlink:href="#DejaVuSans-36"/>
       <use x="63.623047" xlink:href="#DejaVuSans-30"/>
      </g>
     </g>
    </g>
    <g id="ytick_3">
     <g id="line2d_8">
      <g>
       <use style="stroke:#000000;stroke-width:0.8;" x="144" xlink:href="#m12a8423f62" y="449.807006"/>
      </g>
     </g>
     <g id="text_8">
      <!-- 70 -->
      <g transform="translate(124.275 453.606225)scale(0.1 -0.1)">
       <defs>
        <path d="M 525 4666 
L 3525 4666 
L 3525 4397 
L 1831 0 
L 1172 0 
L 2766 4134 
L 525 4134 
L 525 4666 
z
" id="DejaVuSans-37" transform="scale(0.015625)"/>
       </defs>
       <use xlink:href="#DejaVuSans-37"/>
       <use x="63.623047" xlink:href="#DejaVuSans-30"/>
      </g>
     </g>
    </g>
    <g id="ytick_4">
     <g id="line2d_9">
      <g>
       <use style="stroke:#000000;stroke-width:0.8;" x="144" xlink:href="#m12a8423f62" y="359.893402"/>
      </g>
     </g>
     <g id="text_9">
      <!-- 80 -->
      <g transform="translate(124.275 363.692621)scale(0.1 -0.1)">
       <defs>
        <path d="M 2034 2216 
Q 1584 2216 1326 1975 
Q 1069 1734 1069 1313 
Q 1069 891 1326 650 
Q 1584 409 2034 409 
Q 2484 409 2743 651 
Q 3003 894 3003 1313 
Q 3003 1734 2745 1975 
Q 2488 2216 2034 2216 
z
M 1403 2484 
Q 997 2584 770 2862 
Q 544 3141 544 3541 
Q 544 4100 942 4425 
Q 1341 4750 2034 4750 
Q 2731 4750 3128 4425 
Q 3525 4100 3525 3541 
Q 3525 3141 3298 2862 
Q 3072 2584 2669 2484 
Q 3125 2378 3379 2068 
Q 3634 1759 3634 1313 
Q 3634 634 3220 271 
Q 2806 -91 2034 -91 
Q 1263 -91 848 271 
Q 434 634 434 1313 
Q 434 1759 690 2068 
Q 947 2378 1403 2484 
z
M 1172 3481 
Q 1172 3119 1398 2916 
Q 1625 2713 2034 2713 
Q 2441 2713 2670 2916 
Q 2900 3119 2900 3481 
Q 2900 3844 2670 4047 
Q 2441 4250 2034 4250 
Q 1625 4250 1398 4047 
Q 1172 3844 1172 3481 
z
" id="DejaVuSans-38" transform="scale(0.015625)"/>
       </defs>
       <use xlink:href="#DejaVuSans-38"/>
       <use x="63.623047" xlink:href="#DejaVuSans-30"/>
      </g>
     </g>
    </g>
    <g id="ytick_5">
     <g id="line2d_10">
      <g>
       <use style="stroke:#000000;stroke-width:0.8;" x="144" xlink:href="#m12a8423f62" y="269.979798"/>
      </g>
     </g>
     <g id="text_10">
      <!-- 90 -->
      <g transform="translate(124.275 273.779017)scale(0.1 -0.1)">
       <defs>
        <path d="M 703 97 
L 703 672 
Q 941 559 1184 500 
Q 1428 441 1663 441 
Q 2288 441 2617 861 
Q 2947 1281 2994 2138 
Q 2813 1869 2534 1725 
Q 2256 1581 1919 1581 
Q 1219 1581 811 2004 
Q 403 2428 403 3163 
Q 403 3881 828 4315 
Q 1253 4750 1959 4750 
Q 2769 4750 3195 4129 
Q 3622 3509 3622 2328 
Q 3622 1225 3098 567 
Q 2575 -91 1691 -91 
Q 1453 -91 1209 -44 
Q 966 3 703 97 
z
M 1959 2075 
Q 2384 2075 2632 2365 
Q 2881 2656 2881 3163 
Q 2881 3666 2632 3958 
Q 2384 4250 1959 4250 
Q 1534 4250 1286 3958 
Q 1038 3666 1038 3163 
Q 1038 2656 1286 2365 
Q 1534 2075 1959 2075 
z
" id="DejaVuSans-39" transform="scale(0.015625)"/>
       </defs>
       <use xlink:href="#DejaVuSans-39"/>
       <use x="63.623047" xlink:href="#DejaVuSans-30"/>
      </g>
     </g>
    </g>
    <g id="ytick_6">
     <g id="line2d_11">
      <g>
       <use style="stroke:#000000;stroke-width:0.8;" x="144" xlink:href="#m12a8423f62" y="180.066194"/>
      </g>
     </g>
     <g id="text_11">
      <!-- 100 -->
      <g transform="translate(117.9125 183.865413)scale(0.1 -0.1)">
       <use xlink:href="#DejaVuSans-31"/>
       <use x="63.623047" xlink:href="#DejaVuSans-30"/>
       <use x="127.246094" xlink:href="#DejaVuSans-30"/>
      </g>
     </g>
    </g>
    <g id="ytick_7">
     <g id="line2d_12">
      <g>
       <use style="stroke:#000000;stroke-width:0.8;" x="144" xlink:href="#m12a8423f62" y="90.15259"/>
      </g>
     </g>
     <g id="text_12">
      <!-- 110 -->
      <g transform="translate(117.9125 93.951808)scale(0.1 -0.1)">
       <use xlink:href="#DejaVuSans-31"/>
       <use x="63.623047" xlink:href="#DejaVuSans-31"/>
       <use x="127.246094" xlink:href="#DejaVuSans-30"/>
      </g>
     </g>
    </g>
   </g>
   <g id="line2d_13">
    <path clip-path="url(#p728ec3141f)" d="M 233.28 494.763808 
L 233.28 193.553234 
" style="fill:none;stroke:#4d4d4d;stroke-linecap:square;stroke-width:1.5;"/>
   </g>
   <g id="line2d_14">
    <path clip-path="url(#p728ec3141f)" d="M 233.28 392.487083 
L 233.28 309.317 
" style="fill:none;stroke:#4d4d4d;stroke-linecap:square;stroke-width:4.5;"/>
   </g>
   <g id="line2d_15">
    <path clip-path="url(#p728ec3141f)" d="M 411.84 521.737889 
L 411.84 382.371803 
" style="fill:none;stroke:#4d4d4d;stroke-linecap:square;stroke-width:1.5;"/>
   </g>
   <g id="line2d_16">
    <path clip-path="url(#p728ec3141f)" d="M 411.84 491.392048 
L 411.84 444.187406 
" style="fill:none;stroke:#4d4d4d;stroke-linecap:square;stroke-width:4.5;"/>
   </g>
   <g id="line2d_17">
    <path clip-path="url(#p728ec3141f)" d="M 590.4 539.72061 
L 590.4 278.971158 
" style="fill:none;stroke:#4d4d4d;stroke-linecap:square;stroke-width:1.5;"/>
   </g>
   <g id="line2d_18">
    <path clip-path="url(#p728ec3141f)" d="M 590.4 518.366129 
L 590.4 409.345884 
" style="fill:none;stroke:#4d4d4d;stroke-linecap:square;stroke-width:4.5;"/>
   </g>
   <g id="line2d_19">
    <path clip-path="url(#p728ec3141f)" d="M 697.536 530.72925 
L 840.384 530.72925 
" style="fill:none;stroke:#4d4d4d;stroke-linecap:square;stroke-width:1.5;"/>
   </g>
   <g id="line2d_20">
    <path clip-path="url(#p728ec3141f)" d="M 876.096 530.72925 
L 1018.944 530.72925 
" style="fill:none;stroke:#4d4d4d;stroke-linecap:square;stroke-width:1.5;"/>
   </g>
   <g id="patch_3">
    <path d="M 144 640.8 
L 144 86.4 
" style="fill:none;stroke:#000000;stroke-linecap:square;stroke-linejoin:miter;stroke-width:0.8;"/>
   </g>
   <g id="patch_4">
    <path d="M 1036.8 640.8 
L 1036.8 86.4 
" style="fill:none;stroke:#000000;stroke-linecap:square;stroke-linejoin:miter;stroke-width:0.8;"/>
   </g>
   <g id="patch_5">
    <path d="M 144 640.8 
L 1036.8 640.8 
" style="fill:none;stroke:#000000;stroke-linecap:square;stroke-linejoin:miter;stroke-width:0.8;"/>
   </g>
   <g id="patch_6">
    <path d="M 144 86.4 
L 1036.8 86.4 
" style="fill:none;stroke:#000000;stroke-linecap:square;stroke-linejoin:miter;stroke-width:0.8;"/>
   </g>
   <g id="PathCollection_1">
    <defs>
     <path d="M 0 1.5 
C 0.397805 1.5 0.77937 1.341951 1.06066 1.06066 
C 1.341951 0.77937 1.5 0.397805 1.5 0 
C 1.5 -0.397805 1.341951 -0.77937 1.06066 -1.06066 
C 0.77937 -1.341951 0.397805 -1.5 0 -1.5 
C -0.397805 -1.5 -0.77937 -1.341951 -1.06066 -1.06066 
C -1.341951 -0.77937 -1.5 -0.397805 -1.5 0 
C -1.5 0.397805 -1.341951 0.77937 -1.06066 1.06066 
C -0.77937 1.341951 -0.397805 1.5 0 1.5 
z
" id="m5fb9953c08" style="stroke:#4d4d4d;"/>
    </defs>
    <g clip-path="url(#p728ec3141f)">
     <use style="fill:#ffffff;stroke:#4d4d4d;" x="233.28" xlink:href="#m5fb9953c08" y="364.389082"/>
    </g>
   </g>
   <g id="PathCollection_2">
    <g clip-path="url(#p728ec3141f)">
     <use style="fill:#ffffff;stroke:#4d4d4d;" x="411.84" xlink:href="#m5fb9953c08" y="467.789727"/>
    </g>
   </g>
   <g id="PathCollection_3">
    <g clip-path="url(#p728ec3141f)">
     <use style="fill:#ffffff;stroke:#4d4d4d;" x="590.4" xlink:href="#m5fb9953c08" y="456.550526"/>
    </g>
   </g>
   <g id="text_13">
    <!-- Rewards earned per agent type - cooperative context first -->
    <g transform="translate(226.825781 80.4)scale(0.25 -0.25)">
     <defs>
      <path d="M 2841 2188 
Q 3044 2119 3236 1894 
Q 3428 1669 3622 1275 
L 4263 0 
L 3584 0 
L 2988 1197 
Q 2756 1666 2539 1819 
Q 2322 1972 1947 1972 
L 1259 1972 
L 1259 0 
L 628 0 
L 628 4666 
L 2053 4666 
Q 2853 4666 3247 4331 
Q 3641 3997 3641 3322 
Q 3641 2881 3436 2590 
Q 3231 2300 2841 2188 
z
M 1259 4147 
L 1259 2491 
L 2053 2491 
Q 2509 2491 2742 2702 
Q 2975 2913 2975 3322 
Q 2975 3731 2742 3939 
Q 2509 4147 2053 4147 
L 1259 4147 
z
" id="DejaVuSans-52" transform="scale(0.015625)"/>
      <path d="M 269 3500 
L 844 3500 
L 1563 769 
L 2278 3500 
L 2956 3500 
L 3675 769 
L 4391 3500 
L 4966 3500 
L 4050 0 
L 3372 0 
L 2619 2869 
L 1863 0 
L 1184 0 
L 269 3500 
z
" id="DejaVuSans-77" transform="scale(0.015625)"/>
      <path id="DejaVuSans-20" transform="scale(0.015625)"/>
      <path d="M 3513 2113 
L 3513 0 
L 2938 0 
L 2938 2094 
Q 2938 2591 2744 2837 
Q 2550 3084 2163 3084 
Q 1697 3084 1428 2787 
Q 1159 2491 1159 1978 
L 1159 0 
L 581 0 
L 581 3500 
L 1159 3500 
L 1159 2956 
Q 1366 3272 1645 3428 
Q 1925 3584 2291 3584 
Q 2894 3584 3203 3211 
Q 3513 2838 3513 2113 
z
" id="DejaVuSans-6e" transform="scale(0.015625)"/>
      <path d="M 2906 1791 
Q 2906 2416 2648 2759 
Q 2391 3103 1925 3103 
Q 1463 3103 1205 2759 
Q 947 2416 947 1791 
Q 947 1169 1205 825 
Q 1463 481 1925 481 
Q 2391 481 2648 825 
Q 2906 1169 2906 1791 
z
M 3481 434 
Q 3481 -459 3084 -895 
Q 2688 -1331 1869 -1331 
Q 1566 -1331 1297 -1286 
Q 1028 -1241 775 -1147 
L 775 -588 
Q 1028 -725 1275 -790 
Q 1522 -856 1778 -856 
Q 2344 -856 2625 -561 
Q 2906 -266 2906 331 
L 2906 616 
Q 2728 306 2450 153 
Q 2172 0 1784 0 
Q 1141 0 747 490 
Q 353 981 353 1791 
Q 353 2603 747 3093 
Q 1141 3584 1784 3584 
Q 2172 3584 2450 3431 
Q 2728 3278 2906 2969 
L 2906 3500 
L 3481 3500 
L 3481 434 
z
" id="DejaVuSans-67" transform="scale(0.015625)"/>
      <path d="M 313 2009 
L 1997 2009 
L 1997 1497 
L 313 1497 
L 313 2009 
z
" id="DejaVuSans-2d" transform="scale(0.015625)"/>
      <path d="M 191 3500 
L 800 3500 
L 1894 563 
L 2988 3500 
L 3597 3500 
L 2284 0 
L 1503 0 
L 191 3500 
z
" id="DejaVuSans-76" transform="scale(0.015625)"/>
      <path d="M 3513 3500 
L 2247 1797 
L 3578 0 
L 2900 0 
L 1881 1375 
L 863 0 
L 184 0 
L 1544 1831 
L 300 3500 
L 978 3500 
L 1906 2253 
L 2834 3500 
L 3513 3500 
z
" id="DejaVuSans-78" transform="scale(0.015625)"/>
      <path d="M 2375 4863 
L 2375 4384 
L 1825 4384 
Q 1516 4384 1395 4259 
Q 1275 4134 1275 3809 
L 1275 3500 
L 2222 3500 
L 2222 3053 
L 1275 3053 
L 1275 0 
L 697 0 
L 697 3053 
L 147 3053 
L 147 3500 
L 697 3500 
L 697 3744 
Q 697 4328 969 4595 
Q 1241 4863 1831 4863 
L 2375 4863 
z
" id="DejaVuSans-66" transform="scale(0.015625)"/>
     </defs>
     <use xlink:href="#DejaVuSans-52"/>
     <use x="64.982422" xlink:href="#DejaVuSans-65"/>
     <use x="126.505859" xlink:href="#DejaVuSans-77"/>
     <use x="208.292969" xlink:href="#DejaVuSans-61"/>
     <use x="269.572266" xlink:href="#DejaVuSans-72"/>
     <use x="308.935547" xlink:href="#DejaVuSans-64"/>
     <use x="372.412109" xlink:href="#DejaVuSans-73"/>
     <use x="424.511719" xlink:href="#DejaVuSans-20"/>
     <use x="456.298828" xlink:href="#DejaVuSans-65"/>
     <use x="517.822266" xlink:href="#DejaVuSans-61"/>
     <use x="579.101562" xlink:href="#DejaVuSans-72"/>
     <use x="618.464844" xlink:href="#DejaVuSans-6e"/>
     <use x="681.84375" xlink:href="#DejaVuSans-65"/>
     <use x="743.367188" xlink:href="#DejaVuSans-64"/>
     <use x="806.84375" xlink:href="#DejaVuSans-20"/>
     <use x="838.630859" xlink:href="#DejaVuSans-70"/>
     <use x="902.107422" xlink:href="#DejaVuSans-65"/>
     <use x="963.630859" xlink:href="#DejaVuSans-72"/>
     <use x="1004.744141" xlink:href="#DejaVuSans-20"/>
     <use x="1036.53125" xlink:href="#DejaVuSans-61"/>
     <use x="1097.810547" xlink:href="#DejaVuSans-67"/>
     <use x="1161.287109" xlink:href="#DejaVuSans-65"/>
     <use x="1222.810547" xlink:href="#DejaVuSans-6e"/>
     <use x="1286.189453" xlink:href="#DejaVuSans-74"/>
     <use x="1325.398438" xlink:href="#DejaVuSans-20"/>
     <use x="1357.185547" xlink:href="#DejaVuSans-74"/>
     <use x="1396.394531" xlink:href="#DejaVuSans-79"/>
     <use x="1455.574219" xlink:href="#DejaVuSans-70"/>
     <use x="1519.050781" xlink:href="#DejaVuSans-65"/>
     <use x="1580.574219" xlink:href="#DejaVuSans-20"/>
     <use x="1612.361328" xlink:href="#DejaVuSans-2d"/>
     <use x="1648.445312" xlink:href="#DejaVuSans-20"/>
     <use x="1680.232422" xlink:href="#DejaVuSans-63"/>
     <use x="1735.212891" xlink:href="#DejaVuSans-6f"/>
     <use x="1796.394531" xlink:href="#DejaVuSans-6f"/>
     <use x="1857.576172" xlink:href="#DejaVuSans-70"/>
     <use x="1921.052734" xlink:href="#DejaVuSans-65"/>
     <use x="1982.576172" xlink:href="#DejaVuSans-72"/>
     <use x="2023.689453" xlink:href="#DejaVuSans-61"/>
     <use x="2084.96875" xlink:href="#DejaVuSans-74"/>
     <use x="2124.177734" xlink:href="#DejaVuSans-69"/>
     <use x="2151.960938" xlink:href="#DejaVuSans-76"/>
     <use x="2211.140625" xlink:href="#DejaVuSans-65"/>
     <use x="2272.664062" xlink:href="#DejaVuSans-20"/>
     <use x="2304.451172" xlink:href="#DejaVuSans-63"/>
     <use x="2359.431641" xlink:href="#DejaVuSans-6f"/>
     <use x="2420.613281" xlink:href="#DejaVuSans-6e"/>
     <use x="2483.992188" xlink:href="#DejaVuSans-74"/>
     <use x="2523.201172" xlink:href="#DejaVuSans-65"/>
     <use x="2582.974609" xlink:href="#DejaVuSans-78"/>
     <use x="2642.154297" xlink:href="#DejaVuSans-74"/>
     <use x="2681.363281" xlink:href="#DejaVuSans-20"/>
     <use x="2713.150391" xlink:href="#DejaVuSans-66"/>
     <use x="2748.355469" xlink:href="#DejaVuSans-69"/>
     <use x="2776.138672" xlink:href="#DejaVuSans-72"/>
     <use x="2817.251953" xlink:href="#DejaVuSans-73"/>
     <use x="2869.351562" xlink:href="#DejaVuSans-74"/>
    </g>
   </g>
  </g>
 </g>
 <defs>
  <clipPath id="p728ec3141f">
   <rect height="554.4" width="892.8" x="144" y="86.4"/>
  </clipPath>
 </defs>
</svg>
