<?xml version="1.0" encoding="utf-8" standalone="no"?>
<!DOCTYPE svg PUBLIC "-//W3C//DTD SVG 1.1//EN"
  "http://www.w3.org/Graphics/SVG/1.1/DTD/svg11.dtd">
<svg height="345.6pt" version="1.1" viewBox="0 0 460.8 345.6" width="460.8pt" xmlns="http://www.w3.org/2000/svg" xmlns:xlink="http://www.w3.org/1999/xlink">
 <metadata>
  <rdf:RDF xmlns:cc="http://creativecommons.org/ns#" xmlns:dc="http://purl.org/dc/elements/1.1/" xmlns:rdf="http://www.w3.org/1999/02/22-rdf-syntax-ns#">
   <cc:Work>
    <dc:type rdf:resource="http://purl.org/dc/dcmitype/StillImage"/>
    <dc:date>2023-10-05T17:05:46.962751</dc:date>
    <dc:format>image/svg+xml</dc:format>
    <dc:creator>
     <cc:Agent>
      <dc:title>Matplotlib v3.4.1, https://matplotlib.org/</dc:title>
     </cc:Agent>
    </dc:creator>
   </cc:Work>
  </rdf:RDF>
 </metadata>
 <defs>
  <style type="text/css">*{stroke-linecap:butt;stroke-linejoin:round;}</style>
 </defs>
 <g id="figure_1">
  <g id="patch_1">
   <path d="M 0 345.6 
L 460.8 345.6 
L 460.8 0 
L 0 0 
z
" style="fill:#ffffff;"/>
  </g>
  <g id="axes_1">
   <g id="patch_2">
    <path d="M 57.6 307.584 
L 414.72 307.584 
L 414.72 41.472 
L 57.6 41.472 
z
" style="fill:#ffffff;"/>
   </g>
   <g id="patch_3">
    <path clip-path="url(#p22fa1c8f17)" d="M 73.832727 307.584 
L 73.832727 41.472 
L 236.16 41.472 
L 236.16 307.584 
z
" style="fill:#add8e6;opacity:0.2;"/>
   </g>
   <g id="patch_4">
    <path clip-path="url(#p22fa1c8f17)" d="M 236.16 307.584 
L 236.16 41.472 
L 398.487273 41.472 
L 398.487273 307.584 
z
" style="fill:#ff7f50;opacity:0.2;"/>
   </g>
   <g id="matplotlib.axis_1">
    <g id="xtick_1">
     <g id="line2d_1">
      <defs>
       <path d="M 0 0 
L 0 3.5 
" id="mcf1b68a6a6" style="stroke:#000000;stroke-width:0.8;"/>
      </defs>
      <g>
       <use style="stroke:#000000;stroke-width:0.8;" x="73.832727" xlink:href="#mcf1b68a6a6" y="307.584"/>
      </g>
     </g>
     <g id="text_1">
      <!-- 0 -->
      <g transform="translate(70.651477 322.182437)scale(0.1 -0.1)">
       <defs>
        <path d="M 2034 4250 
Q 1547 4250 1301 3770 
Q 1056 3291 1056 2328 
Q 1056 1369 1301 889 
Q 1547 409 2034 409 
Q 2525 409 2770 889 
Q 3016 1369 3016 2328 
Q 3016 3291 2770 3770 
Q 2525 4250 2034 4250 
z
M 2034 4750 
Q 2819 4750 3233 4129 
Q 3647 3509 3647 2328 
Q 3647 1150 3233 529 
Q 2819 -91 2034 -91 
Q 1250 -91 836 529 
Q 422 1150 422 2328 
Q 422 3509 836 4129 
Q 1250 4750 2034 4750 
z
" id="DejaVuSans-30" transform="scale(0.015625)"/>
       </defs>
       <use xlink:href="#DejaVuSans-30"/>
      </g>
     </g>
    </g>
    <g id="xtick_2">
     <g id="line2d_2">
      <g>
       <use style="stroke:#000000;stroke-width:0.8;" x="114.414545" xlink:href="#mcf1b68a6a6" y="307.584"/>
      </g>
     </g>
     <g id="text_2">
      <!-- 5 -->
      <g transform="translate(111.233295 322.182437)scale(0.1 -0.1)">
       <defs>
        <path d="M 691 4666 
L 3169 4666 
L 3169 4134 
L 1269 4134 
L 1269 2991 
Q 1406 3038 1543 3061 
Q 1681 3084 1819 3084 
Q 2600 3084 3056 2656 
Q 3513 2228 3513 1497 
Q 3513 744 3044 326 
Q 2575 -91 1722 -91 
Q 1428 -91 1123 -41 
Q 819 9 494 109 
L 494 744 
Q 775 591 1075 516 
Q 1375 441 1709 441 
Q 2250 441 2565 725 
Q 2881 1009 2881 1497 
Q 2881 1984 2565 2268 
Q 2250 2553 1709 2553 
Q 1456 2553 1204 2497 
Q 953 2441 691 2322 
L 691 4666 
z
" id="DejaVuSans-35" transform="scale(0.015625)"/>
       </defs>
       <use xlink:href="#DejaVuSans-35"/>
      </g>
     </g>
    </g>
    <g id="xtick_3">
     <g id="line2d_3">
      <g>
       <use style="stroke:#000000;stroke-width:0.8;" x="154.996364" xlink:href="#mcf1b68a6a6" y="307.584"/>
      </g>
     </g>
     <g id="text_3">
      <!-- 10 -->
      <g transform="translate(148.633864 322.182437)scale(0.1 -0.1)">
       <defs>
        <path d="M 794 531 
L 1825 531 
L 1825 4091 
L 703 3866 
L 703 4441 
L 1819 4666 
L 2450 4666 
L 2450 531 
L 3481 531 
L 3481 0 
L 794 0 
L 794 531 
z
" id="DejaVuSans-31" transform="scale(0.015625)"/>
       </defs>
       <use xlink:href="#DejaVuSans-31"/>
       <use x="63.623047" xlink:href="#DejaVuSans-30"/>
      </g>
     </g>
    </g>
    <g id="xtick_4">
     <g id="line2d_4">
      <g>
       <use style="stroke:#000000;stroke-width:0.8;" x="195.578182" xlink:href="#mcf1b68a6a6" y="307.584"/>
      </g>
     </g>
     <g id="text_4">
      <!-- 15 -->
      <g transform="translate(189.215682 322.182437)scale(0.1 -0.1)">
       <use xlink:href="#DejaVuSans-31"/>
       <use x="63.623047" xlink:href="#DejaVuSans-35"/>
      </g>
     </g>
    </g>
    <g id="xtick_5">
     <g id="line2d_5">
      <g>
       <use style="stroke:#000000;stroke-width:0.8;" x="236.16" xlink:href="#mcf1b68a6a6" y="307.584"/>
      </g>
     </g>
     <g id="text_5">
      <!-- 20 -->
      <g transform="translate(229.7975 322.182437)scale(0.1 -0.1)">
       <defs>
        <path d="M 1228 531 
L 3431 531 
L 3431 0 
L 469 0 
L 469 531 
Q 828 903 1448 1529 
Q 2069 2156 2228 2338 
Q 2531 2678 2651 2914 
Q 2772 3150 2772 3378 
Q 2772 3750 2511 3984 
Q 2250 4219 1831 4219 
Q 1534 4219 1204 4116 
Q 875 4013 500 3803 
L 500 4441 
Q 881 4594 1212 4672 
Q 1544 4750 1819 4750 
Q 2544 4750 2975 4387 
Q 3406 4025 3406 3419 
Q 3406 3131 3298 2873 
Q 3191 2616 2906 2266 
Q 2828 2175 2409 1742 
Q 1991 1309 1228 531 
z
" id="DejaVuSans-32" transform="scale(0.015625)"/>
       </defs>
       <use xlink:href="#DejaVuSans-32"/>
       <use x="63.623047" xlink:href="#DejaVuSans-30"/>
      </g>
     </g>
    </g>
    <g id="xtick_6">
     <g id="line2d_6">
      <g>
       <use style="stroke:#000000;stroke-width:0.8;" x="276.741818" xlink:href="#mcf1b68a6a6" y="307.584"/>
      </g>
     </g>
     <g id="text_6">
      <!-- 25 -->
      <g transform="translate(270.379318 322.182437)scale(0.1 -0.1)">
       <use xlink:href="#DejaVuSans-32"/>
       <use x="63.623047" xlink:href="#DejaVuSans-35"/>
      </g>
     </g>
    </g>
    <g id="xtick_7">
     <g id="line2d_7">
      <g>
       <use style="stroke:#000000;stroke-width:0.8;" x="317.323636" xlink:href="#mcf1b68a6a6" y="307.584"/>
      </g>
     </g>
     <g id="text_7">
      <!-- 30 -->
      <g transform="translate(310.961136 322.182437)scale(0.1 -0.1)">
       <defs>
        <path d="M 2597 2516 
Q 3050 2419 3304 2112 
Q 3559 1806 3559 1356 
Q 3559 666 3084 287 
Q 2609 -91 1734 -91 
Q 1441 -91 1130 -33 
Q 819 25 488 141 
L 488 750 
Q 750 597 1062 519 
Q 1375 441 1716 441 
Q 2309 441 2620 675 
Q 2931 909 2931 1356 
Q 2931 1769 2642 2001 
Q 2353 2234 1838 2234 
L 1294 2234 
L 1294 2753 
L 1863 2753 
Q 2328 2753 2575 2939 
Q 2822 3125 2822 3475 
Q 2822 3834 2567 4026 
Q 2313 4219 1838 4219 
Q 1578 4219 1281 4162 
Q 984 4106 628 3988 
L 628 4550 
Q 988 4650 1302 4700 
Q 1616 4750 1894 4750 
Q 2613 4750 3031 4423 
Q 3450 4097 3450 3541 
Q 3450 3153 3228 2886 
Q 3006 2619 2597 2516 
z
" id="DejaVuSans-33" transform="scale(0.015625)"/>
       </defs>
       <use xlink:href="#DejaVuSans-33"/>
       <use x="63.623047" xlink:href="#DejaVuSans-30"/>
      </g>
     </g>
    </g>
    <g id="xtick_8">
     <g id="line2d_8">
      <g>
       <use style="stroke:#000000;stroke-width:0.8;" x="357.905455" xlink:href="#mcf1b68a6a6" y="307.584"/>
      </g>
     </g>
     <g id="text_8">
      <!-- 35 -->
      <g transform="translate(351.542955 322.182437)scale(0.1 -0.1)">
       <use xlink:href="#DejaVuSans-33"/>
       <use x="63.623047" xlink:href="#DejaVuSans-35"/>
      </g>
     </g>
    </g>
    <g id="xtick_9">
     <g id="line2d_9">
      <g>
       <use style="stroke:#000000;stroke-width:0.8;" x="398.487273" xlink:href="#mcf1b68a6a6" y="307.584"/>
      </g>
     </g>
     <g id="text_9">
      <!-- 40 -->
      <g transform="translate(392.124773 322.182437)scale(0.1 -0.1)">
       <defs>
        <path d="M 2419 4116 
L 825 1625 
L 2419 1625 
L 2419 4116 
z
M 2253 4666 
L 3047 4666 
L 3047 1625 
L 3713 1625 
L 3713 1100 
L 3047 1100 
L 3047 0 
L 2419 0 
L 2419 1100 
L 313 1100 
L 313 1709 
L 2253 4666 
z
" id="DejaVuSans-34" transform="scale(0.015625)"/>
       </defs>
       <use xlink:href="#DejaVuSans-34"/>
       <use x="63.623047" xlink:href="#DejaVuSans-30"/>
      </g>
     </g>
    </g>
    <g id="text_10">
     <!-- t -->
     <g transform="translate(234.199844 335.860562)scale(0.1 -0.1)">
      <defs>
       <path d="M 1172 4494 
L 1172 3500 
L 2356 3500 
L 2356 3053 
L 1172 3053 
L 1172 1153 
Q 1172 725 1289 603 
Q 1406 481 1766 481 
L 2356 481 
L 2356 0 
L 1766 0 
Q 1100 0 847 248 
Q 594 497 594 1153 
L 594 3053 
L 172 3053 
L 172 3500 
L 594 3500 
L 594 4494 
L 1172 4494 
z
" id="DejaVuSans-74" transform="scale(0.015625)"/>
      </defs>
      <use xlink:href="#DejaVuSans-74"/>
     </g>
    </g>
   </g>
   <g id="matplotlib.axis_2">
    <g id="ytick_1">
     <g id="line2d_10">
      <defs>
       <path d="M 0 0 
L -3.5 0 
" id="m7111f8b425" style="stroke:#000000;stroke-width:0.8;"/>
      </defs>
      <g>
       <use style="stroke:#000000;stroke-width:0.8;" x="57.6" xlink:href="#m7111f8b425" y="307.584"/>
      </g>
     </g>
     <g id="text_11">
      <!-- 0.0 -->
      <g transform="translate(34.696875 311.383219)scale(0.1 -0.1)">
       <defs>
        <path d="M 684 794 
L 1344 794 
L 1344 0 
L 684 0 
L 684 794 
z
" id="DejaVuSans-2e" transform="scale(0.015625)"/>
       </defs>
       <use xlink:href="#DejaVuSans-30"/>
       <use x="63.623047" xlink:href="#DejaVuSans-2e"/>
       <use x="95.410156" xlink:href="#DejaVuSans-30"/>
      </g>
     </g>
    </g>
    <g id="ytick_2">
     <g id="line2d_11">
      <g>
       <use style="stroke:#000000;stroke-width:0.8;" x="57.6" xlink:href="#m7111f8b425" y="254.3616"/>
      </g>
     </g>
     <g id="text_12">
      <!-- 0.2 -->
      <g transform="translate(34.696875 258.160819)scale(0.1 -0.1)">
       <use xlink:href="#DejaVuSans-30"/>
       <use x="63.623047" xlink:href="#DejaVuSans-2e"/>
       <use x="95.410156" xlink:href="#DejaVuSans-32"/>
      </g>
     </g>
    </g>
    <g id="ytick_3">
     <g id="line2d_12">
      <g>
       <use style="stroke:#000000;stroke-width:0.8;" x="57.6" xlink:href="#m7111f8b425" y="201.1392"/>
      </g>
     </g>
     <g id="text_13">
      <!-- 0.4 -->
      <g transform="translate(34.696875 204.938419)scale(0.1 -0.1)">
       <use xlink:href="#DejaVuSans-30"/>
       <use x="63.623047" xlink:href="#DejaVuSans-2e"/>
       <use x="95.410156" xlink:href="#DejaVuSans-34"/>
      </g>
     </g>
    </g>
    <g id="ytick_4">
     <g id="line2d_13">
      <g>
       <use style="stroke:#000000;stroke-width:0.8;" x="57.6" xlink:href="#m7111f8b425" y="147.9168"/>
      </g>
     </g>
     <g id="text_14">
      <!-- 0.6 -->
      <g transform="translate(34.696875 151.716019)scale(0.1 -0.1)">
       <defs>
        <path d="M 2113 2584 
Q 1688 2584 1439 2293 
Q 1191 2003 1191 1497 
Q 1191 994 1439 701 
Q 1688 409 2113 409 
Q 2538 409 2786 701 
Q 3034 994 3034 1497 
Q 3034 2003 2786 2293 
Q 2538 2584 2113 2584 
z
M 3366 4563 
L 3366 3988 
Q 3128 4100 2886 4159 
Q 2644 4219 2406 4219 
Q 1781 4219 1451 3797 
Q 1122 3375 1075 2522 
Q 1259 2794 1537 2939 
Q 1816 3084 2150 3084 
Q 2853 3084 3261 2657 
Q 3669 2231 3669 1497 
Q 3669 778 3244 343 
Q 2819 -91 2113 -91 
Q 1303 -91 875 529 
Q 447 1150 447 2328 
Q 447 3434 972 4092 
Q 1497 4750 2381 4750 
Q 2619 4750 2861 4703 
Q 3103 4656 3366 4563 
z
" id="DejaVuSans-36" transform="scale(0.015625)"/>
       </defs>
       <use xlink:href="#DejaVuSans-30"/>
       <use x="63.623047" xlink:href="#DejaVuSans-2e"/>
       <use x="95.410156" xlink:href="#DejaVuSans-36"/>
      </g>
     </g>
    </g>
    <g id="ytick_5">
     <g id="line2d_14">
      <g>
       <use style="stroke:#000000;stroke-width:0.8;" x="57.6" xlink:href="#m7111f8b425" y="94.6944"/>
      </g>
     </g>
     <g id="text_15">
      <!-- 0.8 -->
      <g transform="translate(34.696875 98.493619)scale(0.1 -0.1)">
       <defs>
        <path d="M 2034 2216 
Q 1584 2216 1326 1975 
Q 1069 1734 1069 1313 
Q 1069 891 1326 650 
Q 1584 409 2034 409 
Q 2484 409 2743 651 
Q 3003 894 3003 1313 
Q 3003 1734 2745 1975 
Q 2488 2216 2034 2216 
z
M 1403 2484 
Q 997 2584 770 2862 
Q 544 3141 544 3541 
Q 544 4100 942 4425 
Q 1341 4750 2034 4750 
Q 2731 4750 3128 4425 
Q 3525 4100 3525 3541 
Q 3525 3141 3298 2862 
Q 3072 2584 2669 2484 
Q 3125 2378 3379 2068 
Q 3634 1759 3634 1313 
Q 3634 634 3220 271 
Q 2806 -91 2034 -91 
Q 1263 -91 848 271 
Q 434 634 434 1313 
Q 434 1759 690 2068 
Q 947 2378 1403 2484 
z
M 1172 3481 
Q 1172 3119 1398 2916 
Q 1625 2713 2034 2713 
Q 2441 2713 2670 2916 
Q 2900 3119 2900 3481 
Q 2900 3844 2670 4047 
Q 2441 4250 2034 4250 
Q 1625 4250 1398 4047 
Q 1172 3844 1172 3481 
z
" id="DejaVuSans-38" transform="scale(0.015625)"/>
       </defs>
       <use xlink:href="#DejaVuSans-30"/>
       <use x="63.623047" xlink:href="#DejaVuSans-2e"/>
       <use x="95.410156" xlink:href="#DejaVuSans-38"/>
      </g>
     </g>
    </g>
    <g id="ytick_6">
     <g id="line2d_15">
      <g>
       <use style="stroke:#000000;stroke-width:0.8;" x="57.6" xlink:href="#m7111f8b425" y="41.472"/>
      </g>
     </g>
     <g id="text_16">
      <!-- 1.0 -->
      <g transform="translate(34.696875 45.271219)scale(0.1 -0.1)">
       <use xlink:href="#DejaVuSans-31"/>
       <use x="63.623047" xlink:href="#DejaVuSans-2e"/>
       <use x="95.410156" xlink:href="#DejaVuSans-30"/>
      </g>
     </g>
    </g>
    <g id="text_17">
     <!-- p(context) -->
     <g transform="translate(28.617187 200.449875)rotate(-90)scale(0.1 -0.1)">
      <defs>
       <path d="M 1159 525 
L 1159 -1331 
L 581 -1331 
L 581 3500 
L 1159 3500 
L 1159 2969 
Q 1341 3281 1617 3432 
Q 1894 3584 2278 3584 
Q 2916 3584 3314 3078 
Q 3713 2572 3713 1747 
Q 3713 922 3314 415 
Q 2916 -91 2278 -91 
Q 1894 -91 1617 61 
Q 1341 213 1159 525 
z
M 3116 1747 
Q 3116 2381 2855 2742 
Q 2594 3103 2138 3103 
Q 1681 3103 1420 2742 
Q 1159 2381 1159 1747 
Q 1159 1113 1420 752 
Q 1681 391 2138 391 
Q 2594 391 2855 752 
Q 3116 1113 3116 1747 
z
" id="DejaVuSans-70" transform="scale(0.015625)"/>
       <path d="M 1984 4856 
Q 1566 4138 1362 3434 
Q 1159 2731 1159 2009 
Q 1159 1288 1364 580 
Q 1569 -128 1984 -844 
L 1484 -844 
Q 1016 -109 783 600 
Q 550 1309 550 2009 
Q 550 2706 781 3412 
Q 1013 4119 1484 4856 
L 1984 4856 
z
" id="DejaVuSans-28" transform="scale(0.015625)"/>
       <path d="M 3122 3366 
L 3122 2828 
Q 2878 2963 2633 3030 
Q 2388 3097 2138 3097 
Q 1578 3097 1268 2742 
Q 959 2388 959 1747 
Q 959 1106 1268 751 
Q 1578 397 2138 397 
Q 2388 397 2633 464 
Q 2878 531 3122 666 
L 3122 134 
Q 2881 22 2623 -34 
Q 2366 -91 2075 -91 
Q 1284 -91 818 406 
Q 353 903 353 1747 
Q 353 2603 823 3093 
Q 1294 3584 2113 3584 
Q 2378 3584 2631 3529 
Q 2884 3475 3122 3366 
z
" id="DejaVuSans-63" transform="scale(0.015625)"/>
       <path d="M 1959 3097 
Q 1497 3097 1228 2736 
Q 959 2375 959 1747 
Q 959 1119 1226 758 
Q 1494 397 1959 397 
Q 2419 397 2687 759 
Q 2956 1122 2956 1747 
Q 2956 2369 2687 2733 
Q 2419 3097 1959 3097 
z
M 1959 3584 
Q 2709 3584 3137 3096 
Q 3566 2609 3566 1747 
Q 3566 888 3137 398 
Q 2709 -91 1959 -91 
Q 1206 -91 779 398 
Q 353 888 353 1747 
Q 353 2609 779 3096 
Q 1206 3584 1959 3584 
z
" id="DejaVuSans-6f" transform="scale(0.015625)"/>
       <path d="M 3513 2113 
L 3513 0 
L 2938 0 
L 2938 2094 
Q 2938 2591 2744 2837 
Q 2550 3084 2163 3084 
Q 1697 3084 1428 2787 
Q 1159 2491 1159 1978 
L 1159 0 
L 581 0 
L 581 3500 
L 1159 3500 
L 1159 2956 
Q 1366 3272 1645 3428 
Q 1925 3584 2291 3584 
Q 2894 3584 3203 3211 
Q 3513 2838 3513 2113 
z
" id="DejaVuSans-6e" transform="scale(0.015625)"/>
       <path d="M 3597 1894 
L 3597 1613 
L 953 1613 
Q 991 1019 1311 708 
Q 1631 397 2203 397 
Q 2534 397 2845 478 
Q 3156 559 3463 722 
L 3463 178 
Q 3153 47 2828 -22 
Q 2503 -91 2169 -91 
Q 1331 -91 842 396 
Q 353 884 353 1716 
Q 353 2575 817 3079 
Q 1281 3584 2069 3584 
Q 2775 3584 3186 3129 
Q 3597 2675 3597 1894 
z
M 3022 2063 
Q 3016 2534 2758 2815 
Q 2500 3097 2075 3097 
Q 1594 3097 1305 2825 
Q 1016 2553 972 2059 
L 3022 2063 
z
" id="DejaVuSans-65" transform="scale(0.015625)"/>
       <path d="M 3513 3500 
L 2247 1797 
L 3578 0 
L 2900 0 
L 1881 1375 
L 863 0 
L 184 0 
L 1544 1831 
L 300 3500 
L 978 3500 
L 1906 2253 
L 2834 3500 
L 3513 3500 
z
" id="DejaVuSans-78" transform="scale(0.015625)"/>
       <path d="M 513 4856 
L 1013 4856 
Q 1481 4119 1714 3412 
Q 1947 2706 1947 2009 
Q 1947 1309 1714 600 
Q 1481 -109 1013 -844 
L 513 -844 
Q 928 -128 1133 580 
Q 1338 1288 1338 2009 
Q 1338 2731 1133 3434 
Q 928 4138 513 4856 
z
" id="DejaVuSans-29" transform="scale(0.015625)"/>
      </defs>
      <use xlink:href="#DejaVuSans-70"/>
      <use x="63.476562" xlink:href="#DejaVuSans-28"/>
      <use x="102.490234" xlink:href="#DejaVuSans-63"/>
      <use x="157.470703" xlink:href="#DejaVuSans-6f"/>
      <use x="218.652344" xlink:href="#DejaVuSans-6e"/>
      <use x="282.03125" xlink:href="#DejaVuSans-74"/>
      <use x="321.240234" xlink:href="#DejaVuSans-65"/>
      <use x="381.013672" xlink:href="#DejaVuSans-78"/>
      <use x="440.193359" xlink:href="#DejaVuSans-74"/>
      <use x="479.402344" xlink:href="#DejaVuSans-29"/>
     </g>
    </g>
   </g>
   <g id="line2d_16">
    <path clip-path="url(#p22fa1c8f17)" d="M 73.832727 218.88 
L 81.949091 195.81696 
L 90.065455 191.350012 
L 98.181818 192.261964 
L 106.298182 191.126431 
L 114.414545 189.60754 
L 122.530909 188.014649 
L 130.647273 186.427304 
L 138.763636 184.876921 
L 146.88 183.378579 
L 154.996364 181.939617 
L 163.112727 180.563157 
L 171.229091 179.249871 
L 179.345455 177.998963 
L 187.461818 176.808752 
L 195.578182 200.50713 
L 203.694545 179.454886 
L 211.810909 198.463212 
L 219.927273 180.797304 
L 228.043636 196.754253 
L 236.16 188.156114 
L 244.276364 195.577624 
L 252.392727 195.151862 
L 260.509091 194.542647 
L 268.625455 193.951212 
L 276.741818 193.381632 
L 284.858182 192.833169 
L 292.974545 192.304991 
L 301.090909 191.796285 
L 309.207273 191.306261 
L 317.323636 190.834152 
L 325.44 190.379218 
L 333.556364 189.940744 
L 341.672727 189.518043 
L 349.789091 189.110451 
L 357.905455 188.717335 
L 366.021818 188.338085 
L 374.138182 189.506139 
L 382.254545 189.527033 
L 390.370909 189.527873 
" style="fill:none;stroke:#add8e6;stroke-linecap:square;stroke-opacity:0.3;stroke-width:1.5;"/>
   </g>
   <g id="line2d_17">
    <path clip-path="url(#p22fa1c8f17)" d="M 73.832727 218.88 
L 81.949091 195.81696 
L 90.065455 191.350012 
L 98.181818 192.261964 
L 106.298182 191.696115 
L 114.414545 190.315455 
L 122.530909 193.568541 
L 130.647273 192.664023 
L 138.763636 191.970454 
L 146.88 192.50406 
L 154.996364 192.037364 
L 163.112727 191.027971 
L 171.229091 190.018954 
L 179.345455 194.040197 
L 187.461818 190.50738 
L 195.578182 189.55233 
L 203.694545 188.71562 
L 211.810909 187.912193 
L 219.927273 187.139305 
L 228.043636 186.396482 
L 236.16 191.281148 
L 244.276364 196.442748 
L 252.392727 195.97614 
L 260.509091 195.39754 
L 268.625455 194.837106 
L 276.741818 189.382692 
L 284.858182 194.302841 
L 292.974545 189.702273 
L 301.090909 193.974489 
L 309.207273 193.576179 
L 317.323636 193.108153 
L 325.44 192.655537 
L 333.556364 192.219121 
L 341.672727 191.798252 
L 349.789091 191.39228 
L 357.905455 191.000583 
L 366.021818 192.807549 
L 374.138182 191.13981 
L 382.254545 190.767193 
L 390.370909 190.42543 
" style="fill:none;stroke:#add8e6;stroke-linecap:square;stroke-opacity:0.3;stroke-width:1.5;"/>
   </g>
   <g id="line2d_18">
    <path clip-path="url(#p22fa1c8f17)" d="M 73.832727 218.88 
L 81.949091 195.81696 
L 90.065455 191.350012 
L 98.181818 189.583508 
L 106.298182 187.852733 
L 114.414545 186.038212 
L 122.530909 184.222558 
L 130.647273 182.452683 
L 138.763636 196.537897 
L 146.88 184.586832 
L 154.996364 182.677418 
L 163.112727 181.346487 
L 171.229091 196.797328 
L 179.345455 196.646751 
L 187.461818 184.426004 
L 195.578182 183.030681 
L 203.694545 182.074397 
L 211.810909 181.171387 
L 219.927273 196.992273 
L 228.043636 182.81749 
L 236.16 188.2432 
L 244.276364 197.965812 
L 252.392727 197.642397 
L 260.509091 197.087931 
L 268.625455 184.161782 
L 276.741818 183.251881 
L 284.858182 196.201742 
L 292.974545 195.979869 
L 301.090909 184.880671 
L 309.207273 184.136936 
L 317.323636 195.350347 
L 325.44 195.112923 
L 333.556364 194.672184 
L 341.672727 194.244017 
L 349.789091 193.83151 
L 357.905455 186.675027 
L 366.021818 193.251469 
L 374.138182 192.984249 
L 382.254545 192.616345 
L 390.370909 187.730652 
" style="fill:none;stroke:#add8e6;stroke-linecap:square;stroke-opacity:0.3;stroke-width:1.5;"/>
   </g>
   <g id="line2d_19">
    <path clip-path="url(#p22fa1c8f17)" d="M 73.832727 218.88 
L 81.949091 195.81696 
L 90.065455 191.350012 
L 98.181818 192.261964 
L 106.298182 191.126431 
L 114.414545 189.60754 
L 122.530909 188.014649 
L 130.647273 186.427304 
L 138.763636 184.876921 
L 146.88 183.378579 
L 154.996364 181.939617 
L 163.112727 180.563157 
L 171.229091 179.249871 
L 179.345455 177.998963 
L 187.461818 176.808752 
L 195.578182 175.677032 
L 203.694545 174.6013 
L 211.810909 201.903186 
L 219.927273 202.346174 
L 228.043636 178.428213 
L 236.16 186.517454 
L 244.276364 198.667734 
L 252.392727 198.497463 
L 260.509091 198.01708 
L 268.625455 181.382155 
L 276.741818 196.240451 
L 284.858182 196.11993 
L 292.974545 195.658679 
L 301.090909 195.207417 
L 309.207273 194.773168 
L 317.323636 194.355284 
L 325.44 193.953001 
L 333.556364 193.565597 
L 341.672727 193.19239 
L 349.789091 192.832737 
L 357.905455 192.486026 
L 366.021818 192.151681 
L 374.138182 191.829153 
L 382.254545 191.517925 
L 390.370909 191.217501 
" style="fill:none;stroke:#add8e6;stroke-linecap:square;stroke-opacity:0.3;stroke-width:1.5;"/>
   </g>
   <g id="line2d_20">
    <path clip-path="url(#p22fa1c8f17)" d="M 73.832727 218.88 
L 81.949091 195.81696 
L 90.065455 191.350012 
L 98.181818 189.583508 
L 106.298182 187.852733 
L 114.414545 186.038212 
L 122.530909 184.222558 
L 130.647273 182.452683 
L 138.763636 180.749611 
L 146.88 179.122161 
L 154.996364 177.573201 
L 163.112727 176.102486 
L 171.229091 174.708075 
L 179.345455 200.115711 
L 187.461818 177.800611 
L 195.578182 197.832688 
L 203.694545 179.292432 
L 211.810909 177.745654 
L 219.927273 176.843692 
L 228.043636 176.001442 
L 236.16 184.540668 
L 244.276364 197.149465 
L 252.392727 196.881396 
L 260.509091 179.207259 
L 268.625455 194.748685 
L 276.741818 194.524874 
L 284.858182 193.933429 
L 292.974545 193.356198 
L 301.090909 192.800906 
L 309.207273 182.470929 
L 317.323636 191.781832 
L 325.44 183.012673 
L 333.556364 182.337809 
L 341.672727 181.852108 
L 349.789091 192.100806 
L 357.905455 191.841298 
L 366.021818 191.399525 
L 374.138182 190.970292 
L 382.254545 183.824941 
L 390.370909 190.390711 
" style="fill:none;stroke:#add8e6;stroke-linecap:square;stroke-opacity:0.3;stroke-width:1.5;"/>
   </g>
   <g id="line2d_21">
    <path clip-path="url(#p22fa1c8f17)" d="M 73.832727 218.88 
L 81.949091 195.81696 
L 90.065455 191.350012 
L 98.181818 189.583508 
L 106.298182 187.852733 
L 114.414545 186.038212 
L 122.530909 184.222558 
L 130.647273 182.452683 
L 138.763636 180.749611 
L 146.88 179.122161 
L 154.996364 177.573201 
L 163.112727 176.102486 
L 171.229091 174.708075 
L 179.345455 173.387093 
L 187.461818 200.852182 
L 195.578182 201.378794 
L 203.694545 177.825559 
L 211.810909 198.209407 
L 219.927273 179.211409 
L 228.043636 177.753697 
L 236.16 185.649489 
L 244.276364 177.074084 
L 252.392727 198.105382 
L 260.509091 198.139972 
L 268.625455 197.640204 
L 276.741818 197.147724 
L 284.858182 180.767139 
L 292.974545 179.747524 
L 301.090909 195.936932 
L 309.207273 181.066159 
L 317.323636 194.813345 
L 325.44 194.656227 
L 333.556364 182.311245 
L 341.672727 193.499105 
L 349.789091 182.907745 
L 357.905455 182.257995 
L 366.021818 193.190608 
L 374.138182 192.988314 
L 382.254545 192.591713 
L 390.370909 192.20579 
" style="fill:none;stroke:#add8e6;stroke-linecap:square;stroke-opacity:0.3;stroke-width:1.5;"/>
   </g>
   <g id="line2d_22">
    <path clip-path="url(#p22fa1c8f17)" d="M 73.832727 218.88 
L 81.949091 195.81696 
L 90.065455 191.350012 
L 98.181818 189.583508 
L 106.298182 187.852733 
L 114.414545 186.038212 
L 122.530909 184.222558 
L 130.647273 182.452683 
L 138.763636 180.749611 
L 146.88 179.122161 
L 154.996364 177.573201 
L 163.112727 176.102486 
L 171.229091 199.385516 
L 179.345455 199.746371 
L 187.461818 199.198453 
L 195.578182 181.406678 
L 203.694545 179.761403 
L 211.810909 178.75216 
L 219.927273 177.80657 
L 228.043636 198.79814 
L 236.16 187.780988 
L 244.276364 197.761692 
L 252.392727 197.532776 
L 260.509091 197.047576 
L 268.625455 196.574156 
L 276.741818 196.118513 
L 284.858182 195.680063 
L 292.974545 195.258089 
L 301.090909 194.851895 
L 309.207273 194.46081 
L 317.323636 194.084187 
L 325.44 193.721406 
L 333.556364 193.371872 
L 341.672727 186.762213 
L 349.789091 192.953323 
L 357.905455 192.74936 
L 366.021818 192.439544 
L 374.138182 187.796143 
L 382.254545 187.220443 
L 390.370909 192.557849 
" style="fill:none;stroke:#add8e6;stroke-linecap:square;stroke-opacity:0.3;stroke-width:1.5;"/>
   </g>
   <g id="line2d_23">
    <path clip-path="url(#p22fa1c8f17)" d="M 73.832727 218.88 
L 81.949091 195.81696 
L 90.065455 191.350012 
L 98.181818 192.261964 
L 106.298182 191.126431 
L 114.414545 192.933954 
L 122.530909 191.489904 
L 130.647273 190.119437 
L 138.763636 188.761439 
L 146.88 187.430552 
L 154.996364 186.138347 
L 163.112727 184.891381 
L 171.229091 183.69299 
L 179.345455 182.544491 
L 187.461818 198.28146 
L 195.578182 184.36796 
L 203.694545 182.997363 
L 211.810909 182.092803 
L 219.927273 181.239967 
L 228.043636 180.424649 
L 236.16 188.250255 
L 244.276364 179.789671 
L 252.392727 200.543772 
L 260.509091 200.59068 
L 268.625455 200.168981 
L 276.741818 199.754774 
L 284.858182 199.357503 
L 292.974545 198.976388 
L 301.090909 198.610525 
L 309.207273 198.259086 
L 317.323636 197.92131 
L 325.44 197.596494 
L 333.556364 197.283987 
L 341.672727 196.983181 
L 349.789091 196.693509 
L 357.905455 196.414441 
L 366.021818 196.145478 
L 374.138182 195.886152 
L 382.254545 188.22303 
L 390.370909 195.44203 
" style="fill:none;stroke:#add8e6;stroke-linecap:square;stroke-opacity:0.3;stroke-width:1.5;"/>
   </g>
   <g id="line2d_24">
    <path clip-path="url(#p22fa1c8f17)" d="M 73.832727 218.88 
L 81.949091 195.81696 
L 90.065455 191.350012 
L 98.181818 192.261964 
L 106.298182 191.696115 
L 114.414545 190.315455 
L 122.530909 188.812556 
L 130.647273 187.304353 
L 138.763636 195.25777 
L 146.88 188.494166 
L 154.996364 194.618485 
L 163.112727 189.063394 
L 171.229091 187.825673 
L 179.345455 186.808244 
L 187.461818 185.835489 
L 195.578182 184.901226 
L 203.694545 184.005151 
L 211.810909 183.146669 
L 219.927273 182.32485 
L 228.043636 181.538534 
L 236.16 188.908188 
L 244.276364 202.169336 
L 252.392727 202.077078 
L 260.509091 201.684929 
L 268.625455 201.302827 
L 276.741818 200.936649 
L 284.858182 200.585581 
L 292.974545 200.248756 
L 301.090909 199.925384 
L 309.207273 199.614744 
L 317.323636 199.316168 
L 325.44 199.029042 
L 333.556364 198.752793 
L 341.672727 198.486886 
L 349.789091 188.169183 
L 357.905455 187.483821 
L 366.021818 198.144411 
L 374.138182 198.082916 
L 382.254545 188.493405 
L 390.370909 187.899487 
" style="fill:none;stroke:#add8e6;stroke-linecap:square;stroke-opacity:0.3;stroke-width:1.5;"/>
   </g>
   <g id="line2d_25">
    <path clip-path="url(#p22fa1c8f17)" d="M 73.832727 218.88 
L 81.949091 195.81696 
L 90.065455 191.350012 
L 98.181818 192.261964 
L 106.298182 191.126431 
L 114.414545 189.60754 
L 122.530909 188.014649 
L 130.647273 186.427304 
L 138.763636 195.520241 
L 146.88 195.118591 
L 154.996364 188.958905 
L 163.112727 187.56164 
L 171.229091 186.420876 
L 179.345455 185.330159 
L 187.461818 184.282178 
L 195.578182 183.276924 
L 203.694545 182.313976 
L 211.810909 198.396595 
L 219.927273 198.293431 
L 228.043636 197.740517 
L 236.16 191.057021 
L 244.276364 197.666127 
L 252.392727 197.311024 
L 260.509091 196.803592 
L 268.625455 196.310963 
L 276.741818 187.754216 
L 284.858182 186.966102 
L 292.974545 196.000165 
L 301.090909 195.750641 
L 309.207273 188.164451 
L 317.323636 195.113947 
L 325.44 194.840724 
L 333.556364 194.449736 
L 341.672727 189.371974 
L 349.789091 188.834831 
L 357.905455 194.45998 
L 366.021818 194.206036 
L 374.138182 189.570428 
L 382.254545 193.892114 
L 390.370909 193.638932 
" style="fill:none;stroke:#add8e6;stroke-linecap:square;stroke-opacity:0.3;stroke-width:1.5;"/>
   </g>
   <g id="line2d_26">
    <path clip-path="url(#p22fa1c8f17)" d="M 73.832727 218.88 
L 81.949091 195.81696 
L 90.065455 191.350012 
L 98.181818 189.583508 
L 106.298182 187.852733 
L 114.414545 186.038212 
L 122.530909 195.104037 
L 130.647273 187.58043 
L 138.763636 194.443888 
L 146.88 193.82003 
L 154.996364 192.78618 
L 163.112727 190.348051 
L 171.229091 189.257383 
L 179.345455 188.254234 
L 187.461818 187.286824 
L 195.578182 186.354515 
L 203.694545 185.457781 
L 211.810909 195.991102 
L 219.927273 186.586658 
L 228.043636 185.585619 
L 236.16 190.328457 
L 244.276364 197.716054 
L 252.392727 197.330478 
L 260.509091 196.779557 
L 268.625455 196.245039 
L 276.741818 195.730202 
L 284.858182 195.234362 
L 292.974545 188.512648 
L 301.090909 187.841685 
L 309.207273 195.087612 
L 317.323636 194.79069 
L 325.44 194.370207 
L 333.556364 193.962659 
L 341.672727 193.569742 
L 349.789091 193.190855 
L 357.905455 192.825387 
L 366.021818 192.472761 
L 374.138182 191.143568 
L 382.254545 190.721815 
L 390.370909 192.752208 
" style="fill:none;stroke:#add8e6;stroke-linecap:square;stroke-opacity:0.3;stroke-width:1.5;"/>
   </g>
   <g id="line2d_27">
    <path clip-path="url(#p22fa1c8f17)" d="M 73.832727 218.88 
L 81.949091 195.81696 
L 90.065455 191.350012 
L 98.181818 192.261964 
L 106.298182 191.696115 
L 114.414545 190.315455 
L 122.530909 188.812556 
L 130.647273 194.451033 
L 138.763636 189.697488 
L 146.88 188.244244 
L 154.996364 187.00691 
L 163.112727 195.565847 
L 171.229091 188.139994 
L 179.345455 194.845661 
L 187.461818 188.725746 
L 195.578182 187.666963 
L 203.694545 186.817999 
L 211.810909 195.576893 
L 219.927273 195.120572 
L 228.043636 188.499913 
L 236.16 191.3889 
L 244.276364 195.885156 
L 252.392727 195.375433 
L 260.509091 194.767968 
L 268.625455 194.179931 
L 276.741818 193.613207 
L 284.858182 193.067107 
L 292.974545 190.822684 
L 301.090909 192.85218 
L 309.207273 190.959395 
L 317.323636 192.723749 
L 325.44 192.300273 
L 333.556364 191.854264 
L 341.672727 191.423502 
L 349.789091 191.007962 
L 357.905455 190.60702 
L 366.021818 190.22007 
L 374.138182 189.846528 
L 382.254545 189.485839 
L 390.370909 191.813543 
" style="fill:none;stroke:#add8e6;stroke-linecap:square;stroke-opacity:0.3;stroke-width:1.5;"/>
   </g>
   <g id="line2d_28">
    <path clip-path="url(#p22fa1c8f17)" d="M 73.832727 218.88 
L 81.949091 195.81696 
L 90.065455 191.350012 
L 98.181818 189.583508 
L 106.298182 193.405448 
L 114.414545 192.609375 
L 122.530909 191.80042 
L 130.647273 190.518374 
L 138.763636 189.208187 
L 146.88 187.919383 
L 154.996364 186.666052 
L 163.112727 185.455234 
L 171.229091 184.290561 
L 179.345455 183.173588 
L 187.461818 182.104543 
L 195.578182 198.643845 
L 203.694545 183.962138 
L 211.810909 182.645411 
L 219.927273 197.849708 
L 228.043636 184.203967 
L 236.16 189.435579 
L 244.276364 198.782611 
L 252.392727 198.463974 
L 260.509091 197.929355 
L 268.625455 197.409975 
L 276.741818 196.910211 
L 284.858182 196.429301 
L 292.974545 195.966416 
L 301.090909 195.520767 
L 309.207273 195.091602 
L 317.323636 194.678205 
L 325.44 194.279894 
L 333.556364 189.315654 
L 341.672727 188.746956 
L 349.789091 194.31726 
L 357.905455 189.122961 
L 366.021818 188.608187 
L 374.138182 188.185606 
L 382.254545 187.778667 
L 390.370909 195.138658 
" style="fill:none;stroke:#add8e6;stroke-linecap:square;stroke-opacity:0.3;stroke-width:1.5;"/>
   </g>
   <g id="line2d_29">
    <path clip-path="url(#p22fa1c8f17)" d="M 73.832727 218.88 
L 81.949091 195.81696 
L 90.065455 191.350012 
L 98.181818 189.583508 
L 106.298182 187.852733 
L 114.414545 186.038212 
L 122.530909 184.222558 
L 130.647273 195.831226 
L 138.763636 186.075764 
L 146.88 184.194367 
L 154.996364 182.810209 
L 163.112727 181.504324 
L 171.229091 180.256921 
L 179.345455 179.066926 
L 187.461818 177.933178 
L 195.578182 176.853932 
L 203.694545 175.827079 
L 211.810909 174.850306 
L 219.927273 173.921213 
L 228.043636 173.037381 
L 236.16 183.80108 
L 244.276364 206.785661 
L 252.392727 174.968564 
L 260.509091 203.338386 
L 268.625455 203.751761 
L 276.741818 203.485861 
L 284.858182 203.220009 
L 292.974545 202.968791 
L 301.090909 179.048249 
L 309.207273 200.524198 
L 317.323636 200.740341 
L 325.44 200.472576 
L 333.556364 200.20632 
L 341.672727 199.951486 
L 349.789091 199.707528 
L 357.905455 199.473752 
L 366.021818 182.607046 
L 374.138182 198.161589 
L 382.254545 198.246852 
L 390.370909 198.02713 
" style="fill:none;stroke:#add8e6;stroke-linecap:square;stroke-opacity:0.3;stroke-width:1.5;"/>
   </g>
   <g id="line2d_30">
    <path clip-path="url(#p22fa1c8f17)" d="M 73.832727 218.88 
L 81.949091 195.81696 
L 90.065455 191.350012 
L 98.181818 189.583508 
L 106.298182 187.852733 
L 114.414545 186.038212 
L 122.530909 184.222558 
L 130.647273 182.452683 
L 138.763636 180.749611 
L 146.88 179.122161 
L 154.996364 177.573201 
L 163.112727 176.102486 
L 171.229091 174.708075 
L 179.345455 173.387093 
L 187.461818 172.136181 
L 195.578182 170.951751 
L 203.694545 202.33765 
L 211.810909 203.021145 
L 219.927273 175.514637 
L 228.043636 173.690859 
L 236.16 183.769376 
L 244.276364 199.10419 
L 252.392727 199.06088 
L 260.509091 198.601968 
L 268.625455 198.151318 
L 276.741818 197.719131 
L 284.858182 179.235596 
L 292.974545 195.829598 
L 301.090909 180.155339 
L 309.207273 194.703366 
L 317.323636 194.610728 
L 325.44 194.190712 
L 333.556364 193.779433 
L 341.672727 193.383506 
L 349.789091 193.002318 
L 357.905455 192.635156 
L 366.021818 183.617989 
L 374.138182 182.946161 
L 382.254545 192.370844 
L 390.370909 192.224794 
" style="fill:none;stroke:#add8e6;stroke-linecap:square;stroke-opacity:0.3;stroke-width:1.5;"/>
   </g>
   <g id="line2d_31">
    <path clip-path="url(#p22fa1c8f17)" d="M 73.832727 218.88 
L 81.949091 195.81696 
L 90.065455 191.350012 
L 98.181818 189.583508 
L 106.298182 193.405448 
L 114.414545 192.609375 
L 122.530909 191.299598 
L 130.647273 189.925364 
L 138.763636 188.555088 
L 146.88 187.212125 
L 154.996364 195.358495 
L 163.112727 194.867334 
L 171.229091 189.324939 
L 179.345455 188.124115 
L 187.461818 194.799192 
L 195.578182 188.89389 
L 203.694545 187.864644 
L 211.810909 187.026836 
L 219.927273 186.225692 
L 228.043636 185.456079 
L 236.16 190.706531 
L 244.276364 198.842228 
L 252.392727 198.522478 
L 260.509091 198.021955 
L 268.625455 197.53588 
L 276.741818 197.067822 
L 284.858182 196.617144 
L 292.974545 196.183142 
L 301.090909 195.765133 
L 309.207273 195.362457 
L 317.323636 194.974476 
L 325.44 194.600577 
L 333.556364 194.24017 
L 341.672727 193.892688 
L 349.789091 193.557586 
L 357.905455 193.234343 
L 366.021818 192.92246 
L 374.138182 192.910812 
L 382.254545 192.911784 
L 390.370909 192.91226 
" style="fill:none;stroke:#add8e6;stroke-linecap:square;stroke-opacity:0.3;stroke-width:1.5;"/>
   </g>
   <g id="line2d_32">
    <path clip-path="url(#p22fa1c8f17)" d="M 73.832727 218.88 
L 81.949091 195.81696 
L 90.065455 191.350012 
L 98.181818 192.261964 
L 106.298182 191.126431 
L 114.414545 192.933954 
L 122.530909 191.890268 
L 130.647273 190.593471 
L 138.763636 193.533145 
L 146.88 192.646179 
L 154.996364 191.99033 
L 163.112727 190.968116 
L 171.229091 189.954599 
L 179.345455 194.08249 
L 187.461818 190.454258 
L 195.578182 189.492945 
L 203.694545 188.653318 
L 211.810909 187.847226 
L 219.927273 187.071817 
L 228.043636 186.326605 
L 236.16 191.255877 
L 244.276364 186.960264 
L 252.392727 186.214279 
L 260.509091 196.295534 
L 268.625455 195.96016 
L 276.741818 195.416749 
L 284.858182 194.888895 
L 292.974545 194.380367 
L 301.090909 189.193626 
L 309.207273 193.908845 
L 317.323636 193.536999 
L 325.44 193.089237 
L 333.556364 192.656061 
L 341.672727 192.238332 
L 349.789091 191.83542 
L 357.905455 191.446698 
L 366.021818 191.071568 
L 374.138182 190.709456 
L 382.254545 190.359818 
L 390.370909 191.762729 
" style="fill:none;stroke:#add8e6;stroke-linecap:square;stroke-opacity:0.3;stroke-width:1.5;"/>
   </g>
   <g id="line2d_33">
    <path clip-path="url(#p22fa1c8f17)" d="M 73.832727 218.88 
L 81.949091 195.81696 
L 90.065455 191.350012 
L 98.181818 189.583508 
L 106.298182 187.852733 
L 114.414545 186.038212 
L 122.530909 195.104037 
L 130.647273 194.761578 
L 138.763636 188.970339 
L 146.88 193.812347 
L 154.996364 189.404609 
L 163.112727 188.133122 
L 171.229091 187.041323 
L 179.345455 194.901752 
L 187.461818 188.011106 
L 195.578182 194.250472 
L 203.694545 188.536129 
L 211.810909 187.584823 
L 219.927273 186.812989 
L 228.043636 186.075088 
L 236.16 190.553292 
L 244.276364 195.1398 
L 252.392727 187.313238 
L 260.509091 194.352787 
L 268.625455 193.894592 
L 276.741818 193.2908 
L 284.858182 192.705696 
L 292.974545 192.141875 
L 301.090909 191.598583 
L 309.207273 191.075013 
L 317.323636 190.570384 
L 325.44 191.267352 
L 333.556364 190.611916 
L 341.672727 190.155388 
L 349.789091 189.717797 
L 357.905455 189.295638 
L 366.021818 188.888228 
L 374.138182 188.494952 
L 382.254545 188.115224 
L 390.370909 190.813219 
" style="fill:none;stroke:#add8e6;stroke-linecap:square;stroke-opacity:0.3;stroke-width:1.5;"/>
   </g>
   <g id="line2d_34">
    <path clip-path="url(#p22fa1c8f17)" d="M 73.832727 218.88 
L 81.949091 195.81696 
L 90.065455 191.350012 
L 98.181818 189.583508 
L 106.298182 193.405448 
L 114.414545 190.486822 
L 122.530909 188.877541 
L 130.647273 187.376019 
L 138.763636 195.018349 
L 146.88 194.472694 
L 154.996364 189.663634 
L 163.112727 188.380398 
L 171.229091 187.293786 
L 179.345455 186.251734 
L 187.461818 185.249443 
L 195.578182 184.287212 
L 203.694545 183.364824 
L 211.810909 182.481563 
L 219.927273 198.614628 
L 228.043636 184.126386 
L 236.16 189.662587 
L 244.276364 199.533709 
L 252.392727 199.260583 
L 260.509091 198.762211 
L 268.625455 198.277781 
L 276.741818 197.811803 
L 284.858182 197.363543 
L 292.974545 196.9322 
L 301.090909 187.504287 
L 309.207273 186.778829 
L 317.323636 196.545702 
L 325.44 196.346602 
L 333.556364 187.93486 
L 341.672727 195.672694 
L 349.789091 195.44924 
L 357.905455 195.102107 
L 366.021818 194.765265 
L 374.138182 189.422122 
L 382.254545 194.404376 
L 390.370909 194.173244 
" style="fill:none;stroke:#add8e6;stroke-linecap:square;stroke-opacity:0.3;stroke-width:1.5;"/>
   </g>
   <g id="line2d_35">
    <path clip-path="url(#p22fa1c8f17)" d="M 73.832727 218.88 
L 81.949091 195.81696 
L 90.065455 191.350012 
L 98.181818 189.583508 
L 106.298182 187.852733 
L 114.414545 186.038212 
L 122.530909 184.222558 
L 130.647273 182.452683 
L 138.763636 180.749611 
L 146.88 179.122161 
L 154.996364 177.573201 
L 163.112727 176.102486 
L 171.229091 174.708075 
L 179.345455 173.387093 
L 187.461818 172.136181 
L 195.578182 170.951751 
L 203.694545 202.33765 
L 211.810909 203.021145 
L 219.927273 175.514637 
L 228.043636 173.690859 
L 236.16 183.769376 
L 244.276364 203.640903 
L 252.392727 203.924134 
L 260.509091 203.67931 
L 268.625455 203.434941 
L 276.741818 177.461201 
L 284.858182 200.624089 
L 292.974545 178.707072 
L 301.090909 198.941586 
L 309.207273 199.106846 
L 317.323636 180.322438 
L 325.44 197.287602 
L 333.556364 197.338245 
L 341.672727 197.004286 
L 349.789091 196.675072 
L 357.905455 196.358516 
L 366.021818 196.054095 
L 374.138182 195.761159 
L 382.254545 195.47911 
L 390.370909 183.876342 
" style="fill:none;stroke:#add8e6;stroke-linecap:square;stroke-opacity:0.3;stroke-width:1.5;"/>
   </g>
   <g id="line2d_36">
    <path clip-path="url(#p22fa1c8f17)" d="M 73.832727 218.88 
L 81.949091 222.42816 
L 90.065455 224.401078 
L 98.181818 224.2389 
L 106.298182 224.49388 
L 114.414545 224.947697 
L 122.530909 225.452638 
L 130.647273 225.968649 
L 138.763636 226.481384 
L 146.88 226.98391 
L 154.996364 227.472421 
L 163.112727 227.944762 
L 171.229091 228.399763 
L 179.345455 228.836875 
L 187.461818 229.255966 
L 195.578182 221.67675 
L 203.694545 228.094552 
L 211.810909 222.381211 
L 219.927273 227.623244 
L 228.043636 222.963869 
L 236.16 225.362569 
L 244.276364 223.232409 
L 252.392727 223.290925 
L 260.509091 223.445391 
L 268.625455 223.597469 
L 276.741818 223.744331 
L 284.858182 223.886127 
L 292.974545 224.023064 
L 301.090909 224.155332 
L 309.207273 224.283111 
L 317.323636 224.406567 
L 325.44 224.525859 
L 333.556364 224.641137 
L 341.672727 224.752546 
L 349.789091 224.860227 
L 357.905455 224.964314 
L 366.021818 225.064936 
L 374.138182 224.943195 
L 382.254545 224.934546 
L 390.370909 224.934124 
" style="fill:none;stroke:#ff0000;stroke-linecap:square;stroke-opacity:0.1;stroke-width:1.5;"/>
   </g>
   <g id="line2d_37">
    <path clip-path="url(#p22fa1c8f17)" d="M 73.832727 218.88 
L 81.949091 222.42816 
L 90.065455 224.401078 
L 98.181818 224.2389 
L 106.298182 224.206102 
L 114.414545 224.578835 
L 122.530909 223.67719 
L 130.647273 223.872136 
L 138.763636 223.993923 
L 146.88 223.918062 
L 154.996364 223.962363 
L 163.112727 224.247026 
L 171.229091 224.54256 
L 179.345455 223.489137 
L 187.461818 224.351726 
L 195.578182 224.649003 
L 203.694545 224.893342 
L 211.810909 225.128204 
L 219.927273 225.355347 
L 228.043636 225.574794 
L 236.16 224.217257 
L 244.276364 222.836301 
L 252.392727 222.916819 
L 260.509091 223.061177 
L 268.625455 223.202652 
L 276.741818 224.675529 
L 284.858182 223.397907 
L 292.974545 224.577715 
L 301.090909 223.4951 
L 309.207273 223.572701 
L 317.323636 223.691111 
L 325.44 223.806668 
L 333.556364 223.918482 
L 341.672727 224.026661 
L 349.789091 224.131328 
L 357.905455 224.232603 
L 366.021818 223.792744 
L 374.138182 224.18709 
L 382.254545 224.28751 
L 390.370909 224.375523 
" style="fill:none;stroke:#ff0000;stroke-linecap:square;stroke-opacity:0.1;stroke-width:1.5;"/>
   </g>
   <g id="line2d_38">
    <path clip-path="url(#p22fa1c8f17)" d="M 73.832727 218.88 
L 81.949091 222.42816 
L 90.065455 224.401078 
L 98.181818 224.976197 
L 106.298182 225.479131 
L 114.414545 226.044925 
L 122.530909 226.63777 
L 130.647273 227.232156 
L 138.763636 222.86958 
L 146.88 226.267532 
L 154.996364 227.019128 
L 163.112727 227.472373 
L 171.229091 222.858321 
L 179.345455 222.741606 
L 187.461818 226.297579 
L 195.578182 226.836553 
L 203.694545 227.149276 
L 211.810909 227.441607 
L 219.927273 222.854301 
L 228.043636 226.771272 
L 236.16 225.290193 
L 244.276364 222.58546 
L 252.392727 222.600091 
L 260.509091 222.732695 
L 268.625455 226.38984 
L 276.741818 226.733308 
L 284.858182 223.119659 
L 292.974545 223.102662 
L 301.090909 226.167779 
L 309.207273 226.438401 
L 317.323636 223.376731 
L 325.44 223.380904 
L 333.556364 223.488047 
L 341.672727 223.593938 
L 349.789091 223.696326 
L 357.905455 225.681025 
L 366.021818 223.903865 
L 374.138182 223.943054 
L 382.254545 224.034924 
L 390.370909 225.389351 
" style="fill:none;stroke:#ff0000;stroke-linecap:square;stroke-opacity:0.1;stroke-width:1.5;"/>
   </g>
   <g id="line2d_39">
    <path clip-path="url(#p22fa1c8f17)" d="M 73.832727 218.88 
L 81.949091 222.42816 
L 90.065455 224.401078 
L 98.181818 224.2389 
L 106.298182 224.49388 
L 114.414545 224.947697 
L 122.530909 225.452638 
L 130.647273 225.968649 
L 138.763636 226.481384 
L 146.88 226.98391 
L 154.996364 227.472421 
L 163.112727 227.944762 
L 171.229091 228.399763 
L 179.345455 228.836875 
L 187.461818 229.255966 
L 195.578182 229.657183 
L 203.694545 230.040865 
L 211.810909 221.282356 
L 219.927273 220.926357 
L 228.043636 228.497882 
L 236.16 226.008036 
L 244.276364 222.251678 
L 252.392727 222.195276 
L 260.509091 222.294849 
L 268.625455 227.57073 
L 276.741818 222.991255 
L 284.858182 222.922512 
L 292.974545 223.025746 
L 301.090909 223.12976 
L 309.207273 223.230014 
L 317.323636 223.326601 
L 325.44 223.419701 
L 333.556364 223.509481 
L 341.672727 223.596094 
L 349.789091 223.679682 
L 357.905455 223.760375 
L 366.021818 223.838297 
L 374.138182 223.913563 
L 382.254545 223.986283 
L 390.370909 224.056559 
" style="fill:none;stroke:#ff0000;stroke-linecap:square;stroke-opacity:0.1;stroke-width:1.5;"/>
   </g>
   <g id="line2d_40">
    <path clip-path="url(#p22fa1c8f17)" d="M 73.832727 218.88 
L 81.949091 222.42816 
L 90.065455 224.401078 
L 98.181818 224.976197 
L 106.298182 225.479131 
L 114.414545 226.044925 
L 122.530909 226.63777 
L 130.647273 227.232156 
L 138.763636 227.815707 
L 146.88 228.382292 
L 154.996364 228.928771 
L 163.112727 229.453593 
L 171.229091 229.956135 
L 179.345455 221.819794 
L 187.461818 228.582546 
L 195.578182 222.61731 
L 203.694545 228.056824 
L 211.810909 228.698825 
L 219.927273 229.011018 
L 228.043636 229.29793 
L 236.16 226.592245 
L 244.276364 222.90404 
L 252.392727 222.892505 
L 260.509091 228.091051 
L 268.625455 223.684005 
L 276.741818 223.660299 
L 284.858182 223.813124 
L 292.974545 223.965555 
L 301.090909 224.112729 
L 309.207273 227.126926 
L 317.323636 224.490961 
L 325.44 226.947267 
L 333.556364 227.187219 
L 341.672727 227.337327 
L 349.789091 224.434426 
L 357.905455 224.459996 
L 366.021818 224.575169 
L 374.138182 224.688595 
L 382.254545 226.717161 
L 390.370909 224.897279 
" style="fill:none;stroke:#ff0000;stroke-linecap:square;stroke-opacity:0.1;stroke-width:1.5;"/>
   </g>
   <g id="line2d_41">
    <path clip-path="url(#p22fa1c8f17)" d="M 73.832727 218.88 
L 81.949091 222.42816 
L 90.065455 224.401078 
L 98.181818 224.976197 
L 106.298182 225.479131 
L 114.414545 226.044925 
L 122.530909 226.63777 
L 130.647273 227.232156 
L 138.763636 227.815707 
L 146.88 228.382292 
L 154.996364 228.928771 
L 163.112727 229.453593 
L 171.229091 229.956135 
L 179.345455 230.436346 
L 187.461818 221.603255 
L 195.578182 221.202869 
L 203.694545 228.624335 
L 211.810909 222.466299 
L 219.927273 228.141301 
L 228.043636 228.74634 
L 236.16 226.257394 
L 244.276364 228.925157 
L 252.392727 222.631813 
L 260.509091 222.486864 
L 268.625455 222.596917 
L 276.741818 222.709758 
L 284.858182 227.694036 
L 292.974545 228.100019 
L 301.090909 223.232172 
L 309.207273 227.571927 
L 317.323636 223.599842 
L 325.44 223.570184 
L 333.556364 227.17892 
L 341.672727 223.990401 
L 349.789091 226.981996 
L 357.905455 227.218697 
L 366.021818 224.114104 
L 374.138182 224.119593 
L 382.254545 224.218526 
L 390.370909 224.316277 
" style="fill:none;stroke:#ff0000;stroke-linecap:square;stroke-opacity:0.1;stroke-width:1.5;"/>
   </g>
   <g id="line2d_42">
    <path clip-path="url(#p22fa1c8f17)" d="M 73.832727 218.88 
L 81.949091 222.42816 
L 90.065455 224.401078 
L 98.181818 224.976197 
L 106.298182 225.479131 
L 114.414545 226.044925 
L 122.530909 226.63777 
L 130.647273 227.232156 
L 138.763636 227.815707 
L 146.88 228.382292 
L 154.996364 228.928771 
L 163.112727 229.453593 
L 171.229091 222.034704 
L 179.345455 221.688096 
L 187.461818 221.801649 
L 195.578182 227.429762 
L 203.694545 228.115123 
L 211.810909 228.46453 
L 219.927273 228.787396 
L 228.043636 222.246943 
L 236.16 225.42815 
L 244.276364 222.447692 
L 252.392727 222.424497 
L 260.509091 222.530277 
L 268.625455 222.635717 
L 276.741818 222.737021 
L 284.858182 222.834351 
L 292.974545 222.927938 
L 301.090909 223.017989 
L 309.207273 223.10469 
L 317.323636 223.188204 
L 325.44 223.268685 
L 333.556364 223.346269 
L 341.672727 226.03647 
L 349.789091 223.554628 
L 357.905455 223.561057 
L 366.021818 223.630213 
L 374.138182 225.713536 
L 382.254545 225.906448 
L 390.370909 223.674012 
" style="fill:none;stroke:#ff0000;stroke-linecap:square;stroke-opacity:0.1;stroke-width:1.5;"/>
   </g>
   <g id="line2d_43">
    <path clip-path="url(#p22fa1c8f17)" d="M 73.832727 218.88 
L 81.949091 222.42816 
L 90.065455 224.401078 
L 98.181818 224.2389 
L 106.298182 224.49388 
L 114.414545 223.804641 
L 122.530909 224.261719 
L 130.647273 224.687758 
L 138.763636 225.112846 
L 146.88 225.53414 
L 154.996364 225.947632 
L 163.112727 226.350689 
L 171.229091 226.741672 
L 179.345455 227.119603 
L 187.461818 222.300695 
L 195.578182 226.339902 
L 203.694545 226.880689 
L 211.810909 227.177146 
L 219.927273 227.453294 
L 228.043636 227.718386 
L 236.16 225.293553 
L 244.276364 227.866118 
L 252.392727 221.784977 
L 260.509091 221.625338 
L 268.625455 221.701855 
L 276.741818 221.781082 
L 284.858182 221.856716 
L 292.974545 221.928919 
L 301.090909 221.99796 
L 309.207273 222.064074 
L 317.323636 222.127464 
L 325.44 222.188305 
L 333.556364 222.246754 
L 341.672727 222.302949 
L 349.789091 222.357016 
L 357.905455 222.409068 
L 366.021818 222.459207 
L 374.138182 222.507528 
L 382.254545 225.51868 
L 390.370909 222.72006 
" style="fill:none;stroke:#ff0000;stroke-linecap:square;stroke-opacity:0.1;stroke-width:1.5;"/>
   </g>
   <g id="line2d_44">
    <path clip-path="url(#p22fa1c8f17)" d="M 73.832727 218.88 
L 81.949091 222.42816 
L 90.065455 224.401078 
L 98.181818 224.2389 
L 106.298182 224.206102 
L 114.414545 224.578835 
L 122.530909 225.033532 
L 130.647273 225.50507 
L 138.763636 223.194155 
L 146.88 224.981411 
L 154.996364 223.372802 
L 163.112727 224.790415 
L 171.229091 225.208332 
L 179.345455 225.520685 
L 187.461818 225.818806 
L 195.578182 226.107033 
L 203.694545 226.385291 
L 211.810909 226.65348 
L 219.927273 226.911627 
L 228.043636 227.159848 
L 236.16 224.97333 
L 244.276364 221.267605 
L 252.392727 221.182987 
L 260.509091 221.24988 
L 268.625455 221.317366 
L 276.741818 221.38141 
L 284.858182 221.442253 
L 292.974545 221.500184 
L 301.090909 221.555448 
L 309.207273 221.608256 
L 317.323636 221.658788 
L 325.44 221.707201 
L 333.556364 221.753633 
L 341.672727 221.798207 
L 349.789091 225.335441 
L 357.905455 225.582714 
L 366.021818 222.01261 
L 374.138182 221.958165 
L 382.254545 225.213272 
L 390.370909 225.423527 
" style="fill:none;stroke:#ff0000;stroke-linecap:square;stroke-opacity:0.1;stroke-width:1.5;"/>
   </g>
   <g id="line2d_45">
    <path clip-path="url(#p22fa1c8f17)" d="M 73.832727 218.88 
L 81.949091 222.42816 
L 90.065455 224.401078 
L 98.181818 224.2389 
L 106.298182 224.49388 
L 114.414545 224.947697 
L 122.530909 225.452638 
L 130.647273 225.968649 
L 138.763636 223.073478 
L 146.88 223.031604 
L 154.996364 224.98982 
L 163.112727 225.488678 
L 171.229091 225.853145 
L 179.345455 226.200682 
L 187.461818 226.536923 
L 195.578182 226.861707 
L 203.694545 227.174837 
L 211.810909 222.29671 
L 219.927273 222.178651 
L 228.043636 222.300367 
L 236.16 224.34005 
L 244.276364 222.414637 
L 252.392727 222.444682 
L 260.509091 222.559013 
L 268.625455 222.671755 
L 276.741818 225.417956 
L 284.858182 225.698349 
L 292.974545 222.874985 
L 301.090909 222.873849 
L 309.207273 225.27944 
L 317.323636 223.126181 
L 325.44 223.149094 
L 333.556364 223.239366 
L 341.672727 224.937736 
L 349.789091 225.11116 
L 357.905455 223.300238 
L 366.021818 223.329375 
L 374.138182 224.867732 
L 382.254545 223.457712 
L 390.370909 223.495274 
" style="fill:none;stroke:#ff0000;stroke-linecap:square;stroke-opacity:0.1;stroke-width:1.5;"/>
   </g>
   <g id="line2d_46">
    <path clip-path="url(#p22fa1c8f17)" d="M 73.832727 218.88 
L 81.949091 222.42816 
L 90.065455 224.401078 
L 98.181818 224.976197 
L 106.298182 225.479131 
L 114.414545 226.044925 
L 122.530909 223.292361 
L 130.647273 225.321063 
L 138.763636 223.459233 
L 146.88 223.5419 
L 154.996364 223.840487 
L 163.112727 224.490139 
L 171.229091 224.830022 
L 179.345455 225.133087 
L 187.461818 225.426493 
L 195.578182 225.711108 
L 203.694545 225.986618 
L 211.810909 223.020637 
L 219.927273 225.535714 
L 228.043636 225.894906 
L 236.16 224.564151 
L 244.276364 222.542466 
L 252.392727 222.584455 
L 260.509091 222.716117 
L 268.625455 222.845776 
L 276.741818 222.970947 
L 284.858182 223.091771 
L 292.974545 225.050349 
L 301.090909 225.273934 
L 309.207273 223.209001 
L 317.323636 223.240703 
L 325.44 223.341506 
L 333.556364 223.440506 
L 341.672727 223.536233 
L 349.789091 223.628783 
L 357.905455 223.718277 
L 366.021818 223.804829 
L 374.138182 224.376563 
L 382.254545 224.494064 
L 390.370909 223.75773 
" style="fill:none;stroke:#ff0000;stroke-linecap:square;stroke-opacity:0.1;stroke-width:1.5;"/>
   </g>
   <g id="line2d_47">
    <path clip-path="url(#p22fa1c8f17)" d="M 73.832727 218.88 
L 81.949091 222.42816 
L 90.065455 224.401078 
L 98.181818 224.2389 
L 106.298182 224.206102 
L 114.414545 224.578835 
L 122.530909 225.033532 
L 130.647273 223.422396 
L 138.763636 224.635033 
L 146.88 225.123768 
L 154.996364 225.510441 
L 163.112727 223.111063 
L 171.229091 225.041011 
L 179.345455 223.323969 
L 187.461818 224.853703 
L 195.578182 225.209455 
L 203.694545 225.464467 
L 211.810909 223.153263 
L 219.927273 223.206916 
L 228.043636 224.900806 
L 236.16 224.201423 
L 244.276364 223.052184 
L 252.392727 223.152615 
L 260.509091 223.30891 
L 268.625455 223.461848 
L 276.741818 223.609825 
L 284.858182 223.752957 
L 292.974545 224.308049 
L 301.090909 223.828621 
L 309.207273 224.268292 
L 317.323636 223.863762 
L 325.44 223.963893 
L 333.556364 224.079849 
L 341.672727 224.192479 
L 349.789091 224.301477 
L 357.905455 224.406957 
L 366.021818 224.509036 
L 374.138182 224.60783 
L 382.254545 224.703451 
L 390.370909 224.083204 
" style="fill:none;stroke:#ff0000;stroke-linecap:square;stroke-opacity:0.1;stroke-width:1.5;"/>
   </g>
   <g id="line2d_48">
    <path clip-path="url(#p22fa1c8f17)" d="M 73.832727 218.88 
L 81.949091 222.42816 
L 90.065455 224.401078 
L 98.181818 224.976197 
L 106.298182 223.839354 
L 114.414545 223.952132 
L 122.530909 224.072013 
L 130.647273 224.441439 
L 138.763636 224.83776 
L 146.88 225.23379 
L 154.996364 225.623652 
L 163.112727 226.004472 
L 171.229091 226.374491 
L 179.345455 226.732633 
L 187.461818 227.07828 
L 195.578182 222.262158 
L 203.694545 226.307256 
L 211.810909 226.822434 
L 219.927273 222.562458 
L 228.043636 226.204004 
L 236.16 224.826341 
L 244.276364 222.310851 
L 252.392727 222.323943 
L 260.509091 222.448177 
L 268.625455 222.571022 
L 276.741818 222.689377 
L 284.858182 222.803414 
L 292.974545 222.913358 
L 301.090909 223.019408 
L 309.207273 223.121742 
L 317.323636 223.220523 
L 325.44 223.315901 
L 333.556364 224.888337 
L 341.672727 225.068884 
L 349.789091 223.364601 
L 357.905455 224.919399 
L 366.021818 225.082218 
L 374.138182 225.200068 
L 382.254545 225.313438 
L 390.370909 223.184082 
" style="fill:none;stroke:#ff0000;stroke-linecap:square;stroke-opacity:0.1;stroke-width:1.5;"/>
   </g>
   <g id="line2d_49">
    <path clip-path="url(#p22fa1c8f17)" d="M 73.832727 218.88 
L 81.949091 222.42816 
L 90.065455 224.401078 
L 98.181818 224.976197 
L 106.298182 225.479131 
L 114.414545 226.044925 
L 122.530909 226.63777 
L 130.647273 223.076468 
L 138.763636 225.789329 
L 146.88 226.506777 
L 154.996364 226.970944 
L 163.112727 227.405646 
L 171.229091 227.824605 
L 179.345455 228.227851 
L 187.461818 228.615107 
L 195.578182 228.986363 
L 203.694545 229.341821 
L 211.810909 229.681824 
L 219.927273 230.006817 
L 228.043636 230.317309 
L 236.16 226.767223 
L 244.276364 219.860023 
L 252.392727 229.441225 
L 260.509091 221.060458 
L 268.625455 220.772876 
L 276.741818 220.792306 
L 284.858182 220.817008 
L 292.974545 220.8387 
L 301.090909 228.235411 
L 309.207273 221.742404 
L 317.323636 221.557052 
L 325.44 221.591359 
L 333.556364 221.629159 
L 341.672727 221.664961 
L 349.789091 221.698824 
L 357.905455 221.730911 
L 366.021818 227.234992 
L 374.138182 222.239268 
L 382.254545 222.128867 
L 390.370909 222.161607 
" style="fill:none;stroke:#ff0000;stroke-linecap:square;stroke-opacity:0.1;stroke-width:1.5;"/>
   </g>
   <g id="line2d_50">
    <path clip-path="url(#p22fa1c8f17)" d="M 73.832727 218.88 
L 81.949091 222.42816 
L 90.065455 224.401078 
L 98.181818 224.976197 
L 106.298182 225.479131 
L 114.414545 226.044925 
L 122.530909 226.63777 
L 130.647273 227.232156 
L 138.763636 227.815707 
L 146.88 228.382292 
L 154.996364 228.928771 
L 163.112727 229.453593 
L 171.229091 229.956135 
L 179.345455 230.436346 
L 187.461818 230.894542 
L 195.578182 231.331274 
L 203.694545 221.168439 
L 211.810909 220.721553 
L 219.927273 229.45936 
L 228.043636 230.267687 
L 236.16 226.924999 
L 244.276364 222.219078 
L 252.392727 222.117015 
L 260.509091 222.210089 
L 268.625455 222.304464 
L 276.741818 222.394307 
L 284.858182 228.331625 
L 292.974545 223.134862 
L 301.090909 228.000619 
L 309.207273 223.526661 
L 317.323636 223.467653 
L 325.44 223.565482 
L 333.556364 223.663786 
L 341.672727 223.758613 
L 349.789091 223.850045 
L 357.905455 223.938244 
L 366.021818 226.989268 
L 374.138182 227.232765 
L 382.254545 224.104863 
L 390.370909 224.094228 
" style="fill:none;stroke:#ff0000;stroke-linecap:square;stroke-opacity:0.1;stroke-width:1.5;"/>
   </g>
   <g id="line2d_51">
    <path clip-path="url(#p22fa1c8f17)" d="M 73.832727 218.88 
L 81.949091 222.42816 
L 90.065455 224.401078 
L 98.181818 224.976197 
L 106.298182 223.839354 
L 114.414545 223.952132 
L 122.530909 224.33737 
L 130.647273 224.762987 
L 138.763636 225.194037 
L 146.88 225.621488 
L 154.996364 223.095932 
L 163.112727 223.116525 
L 171.229091 224.840652 
L 179.345455 225.255437 
L 187.461818 223.257934 
L 195.578182 224.936479 
L 203.694545 225.2866 
L 211.810909 225.541322 
L 219.927273 225.78428 
L 228.043636 226.01879 
L 236.16 224.469757 
L 244.276364 222.140152 
L 252.392727 222.150597 
L 260.509091 222.260302 
L 268.625455 222.368782 
L 276.741818 222.473341 
L 284.858182 222.574118 
L 292.974545 222.671301 
L 301.090909 222.765054 
L 309.207273 222.855528 
L 317.323636 222.942863 
L 325.44 223.027186 
L 333.556364 223.108618 
L 341.672727 223.187272 
L 349.789091 223.263256 
L 357.905455 223.336671 
L 366.021818 223.407616 
L 374.138182 223.704117 
L 382.254545 223.706329 
L 390.370909 223.706128 
" style="fill:none;stroke:#ff0000;stroke-linecap:square;stroke-opacity:0.1;stroke-width:1.5;"/>
   </g>
   <g id="line2d_52">
    <path clip-path="url(#p22fa1c8f17)" d="M 73.832727 218.88 
L 81.949091 222.42816 
L 90.065455 224.401078 
L 98.181818 224.2389 
L 106.298182 224.49388 
L 114.414545 223.804641 
L 122.530909 224.036843 
L 130.647273 224.416084 
L 138.763636 223.66413 
L 146.88 223.874234 
L 154.996364 223.964539 
L 163.112727 224.254343 
L 171.229091 224.550812 
L 179.345455 223.492487 
L 187.461818 224.357098 
L 195.578182 224.656204 
L 203.694545 224.901125 
L 211.810909 225.136506 
L 219.927273 225.364163 
L 228.043636 225.584119 
L 236.16 224.223122 
L 244.276364 225.346968 
L 252.392727 225.586073 
L 260.509091 222.936986 
L 268.625455 222.959072 
L 276.741818 223.092783 
L 284.858182 223.225034 
L 292.974545 223.352911 
L 301.090909 224.719865 
L 309.207273 223.521599 
L 317.323636 223.590916 
L 325.44 223.703699 
L 333.556364 223.813824 
L 341.672727 223.920372 
L 349.789091 224.02345 
L 357.905455 224.123179 
L 366.021818 224.219677 
L 374.138182 224.313056 
L 382.254545 224.403427 
L 390.370909 224.057652 
" style="fill:none;stroke:#ff0000;stroke-linecap:square;stroke-opacity:0.1;stroke-width:1.5;"/>
   </g>
   <g id="line2d_53">
    <path clip-path="url(#p22fa1c8f17)" d="M 73.832727 218.88 
L 81.949091 222.42816 
L 90.065455 224.401078 
L 98.181818 224.976197 
L 106.298182 225.479131 
L 114.414545 226.044925 
L 122.530909 223.292361 
L 130.647273 223.21741 
L 138.763636 224.889574 
L 146.88 223.603879 
L 154.996364 224.746063 
L 163.112727 225.167859 
L 171.229091 225.505663 
L 179.345455 223.318392 
L 187.461818 225.112836 
L 195.578182 223.513524 
L 203.694545 224.945695 
L 211.810909 225.261114 
L 219.927273 225.491155 
L 228.043636 225.710499 
L 236.16 224.478127 
L 244.276364 223.270077 
L 252.392727 225.266826 
L 260.509091 223.526475 
L 268.625455 223.606427 
L 276.741818 223.76534 
L 284.858182 223.921388 
L 292.974545 224.072442 
L 301.090909 224.21861 
L 309.207273 224.36004 
L 317.323636 224.496881 
L 325.44 224.226376 
L 333.556364 224.477263 
L 341.672727 224.601761 
L 349.789091 224.720051 
L 357.905455 224.834495 
L 366.021818 224.945259 
L 374.138182 225.052465 
L 382.254545 225.156233 
L 390.370909 224.403597 
" style="fill:none;stroke:#ff0000;stroke-linecap:square;stroke-opacity:0.1;stroke-width:1.5;"/>
   </g>
   <g id="line2d_54">
    <path clip-path="url(#p22fa1c8f17)" d="M 73.832727 218.88 
L 81.949091 222.42816 
L 90.065455 224.401078 
L 98.181818 224.976197 
L 106.298182 223.839354 
L 114.414545 224.48308 
L 122.530909 224.993994 
L 130.647273 225.464903 
L 138.763636 223.278336 
L 146.88 223.319994 
L 154.996364 224.630197 
L 163.112727 225.059288 
L 171.229091 225.393354 
L 179.345455 225.713723 
L 187.461818 226.024178 
L 195.578182 226.324417 
L 203.694545 226.614183 
L 211.810909 226.893385 
L 219.927273 222.296338 
L 228.043636 226.228995 
L 236.16 224.745415 
L 244.276364 222.050913 
L 252.392727 222.044 
L 260.509091 222.153701 
L 268.625455 222.262458 
L 276.741818 222.367067 
L 284.858182 222.467707 
L 292.974545 222.564605 
L 301.090909 225.350495 
L 309.207273 225.605878 
L 317.323636 222.773078 
L 325.44 222.76343 
L 333.556364 225.213344 
L 341.672727 223.013677 
L 349.789091 223.025607 
L 357.905455 223.104311 
L 366.021818 223.181765 
L 374.138182 224.815249 
L 382.254545 223.322375 
L 390.370909 223.352593 
" style="fill:none;stroke:#ff0000;stroke-linecap:square;stroke-opacity:0.1;stroke-width:1.5;"/>
   </g>
   <g id="line2d_55">
    <path clip-path="url(#p22fa1c8f17)" d="M 73.832727 218.88 
L 81.949091 222.42816 
L 90.065455 224.401078 
L 98.181818 224.976197 
L 106.298182 225.479131 
L 114.414545 226.044925 
L 122.530909 226.63777 
L 130.647273 227.232156 
L 138.763636 227.815707 
L 146.88 228.382292 
L 154.996364 228.928771 
L 163.112727 229.453593 
L 171.229091 229.956135 
L 179.345455 230.436346 
L 187.461818 230.894542 
L 195.578182 231.331274 
L 203.694545 221.168439 
L 211.810909 220.721553 
L 219.927273 229.45936 
L 228.043636 230.267687 
L 236.16 226.924999 
L 244.276364 220.80847 
L 252.392727 220.5779 
L 260.509091 220.588355 
L 268.625455 220.602742 
L 276.741818 228.929387 
L 284.858182 221.680451 
L 292.974545 228.482462 
L 301.090909 222.25959 
L 309.207273 222.090815 
L 317.323636 227.946545 
L 325.44 222.771074 
L 333.556364 222.659803 
L 341.672727 222.725175 
L 349.789091 222.792404 
L 357.905455 222.857078 
L 366.021818 222.919249 
L 374.138182 222.979056 
L 382.254545 223.036629 
L 390.370909 226.946106 
" style="fill:none;stroke:#ff0000;stroke-linecap:square;stroke-opacity:0.1;stroke-width:1.5;"/>
   </g>
   <g id="line2d_56">
    <path clip-path="url(#p22fa1c8f17)" d="M 73.832727 218.88 
L 81.949091 195.81696 
L 90.065455 191.350012 
L 98.181818 190.65489 
L 106.298182 190.080572 
L 114.414545 188.784319 
L 122.530909 188.518066 
L 130.647273 187.756166 
L 138.763636 188.352597 
L 146.88 186.641177 
L 154.996364 185.593109 
L 163.112727 184.537602 
L 171.229091 184.851644 
L 179.345455 186.504581 
L 187.461818 185.681896 
L 195.578182 186.513936 
L 203.694545 184.810065 
L 211.810909 189.391986 
L 219.927273 186.311376 
L 228.043636 183.867309 
L 236.16 188.252779 
L 244.276364 196.132743 
L 252.392727 196.007667 
L 260.509091 197.052412 
L 268.625455 195.995972 
L 276.741818 194.35002 
L 284.858182 194.306662 
L 292.974545 193.483886 
L 301.090909 192.107829 
L 309.207273 192.521344 
L 317.323636 194.008622 
L 325.44 194.158114 
L 333.556364 192.540233 
L 341.672727 192.587337 
L 349.789091 192.364371 
L 357.905455 191.709372 
L 366.021818 191.665103 
L 374.138182 191.416778 
L 382.254545 190.927423 
L 390.370909 191.726519 
" style="fill:none;stroke:#1f77b4;stroke-linecap:square;stroke-width:1.5;"/>
   </g>
   <g id="line2d_57">
    <path clip-path="url(#p22fa1c8f17)" d="M 73.832727 218.88 
L 81.949091 222.42816 
L 90.065455 224.401078 
L 98.181818 224.681278 
L 106.298182 224.795897 
L 114.414545 225.149027 
L 122.530909 225.242661 
L 130.647273 225.47433 
L 138.763636 225.301636 
L 146.88 225.821893 
L 154.996364 226.163135 
L 163.112727 226.5058 
L 171.229091 226.411171 
L 179.345455 225.937999 
L 187.461818 226.115991 
L 195.578182 225.882016 
L 203.694545 226.329989 
L 211.810909 224.947198 
L 219.927273 225.920455 
L 228.043636 226.633622 
L 236.16 225.294417 
L 244.276364 223.016614 
L 252.392727 222.980461 
L 260.509091 222.664305 
L 268.625455 222.956189 
L 276.741818 223.445831 
L 284.858182 223.466525 
L 292.974545 223.670791 
L 301.090909 224.070486 
L 309.207273 223.929075 
L 317.323636 223.504621 
L 325.44 223.411689 
L 333.556364 223.87419 
L 341.672727 223.902088 
L 349.789091 223.940536 
L 357.905455 224.106981 
L 366.021818 224.150721 
L 374.138182 224.268124 
L 382.254545 224.432237 
L 390.370909 224.151446 
" style="fill:none;stroke:#ff0000;stroke-linecap:square;stroke-width:1.5;"/>
   </g>
   <g id="patch_5">
    <path d="M 57.6 307.584 
L 57.6 41.472 
" style="fill:none;stroke:#000000;stroke-linecap:square;stroke-linejoin:miter;stroke-width:0.8;"/>
   </g>
   <g id="patch_6">
    <path d="M 414.72 307.584 
L 414.72 41.472 
" style="fill:none;stroke:#000000;stroke-linecap:square;stroke-linejoin:miter;stroke-width:0.8;"/>
   </g>
   <g id="patch_7">
    <path d="M 57.6 307.584 
L 414.72 307.584 
" style="fill:none;stroke:#000000;stroke-linecap:square;stroke-linejoin:miter;stroke-width:0.8;"/>
   </g>
   <g id="patch_8">
    <path d="M 57.6 41.472 
L 414.72 41.472 
" style="fill:none;stroke:#000000;stroke-linecap:square;stroke-linejoin:miter;stroke-width:0.8;"/>
   </g>
   <g id="text_18">
    <!-- biased_A -->
    <g transform="translate(209.27625 35.472)scale(0.12 -0.12)">
     <defs>
      <path d="M 3116 1747 
Q 3116 2381 2855 2742 
Q 2594 3103 2138 3103 
Q 1681 3103 1420 2742 
Q 1159 2381 1159 1747 
Q 1159 1113 1420 752 
Q 1681 391 2138 391 
Q 2594 391 2855 752 
Q 3116 1113 3116 1747 
z
M 1159 2969 
Q 1341 3281 1617 3432 
Q 1894 3584 2278 3584 
Q 2916 3584 3314 3078 
Q 3713 2572 3713 1747 
Q 3713 922 3314 415 
Q 2916 -91 2278 -91 
Q 1894 -91 1617 61 
Q 1341 213 1159 525 
L 1159 0 
L 581 0 
L 581 4863 
L 1159 4863 
L 1159 2969 
z
" id="DejaVuSans-62" transform="scale(0.015625)"/>
      <path d="M 603 3500 
L 1178 3500 
L 1178 0 
L 603 0 
L 603 3500 
z
M 603 4863 
L 1178 4863 
L 1178 4134 
L 603 4134 
L 603 4863 
z
" id="DejaVuSans-69" transform="scale(0.015625)"/>
      <path d="M 2194 1759 
Q 1497 1759 1228 1600 
Q 959 1441 959 1056 
Q 959 750 1161 570 
Q 1363 391 1709 391 
Q 2188 391 2477 730 
Q 2766 1069 2766 1631 
L 2766 1759 
L 2194 1759 
z
M 3341 1997 
L 3341 0 
L 2766 0 
L 2766 531 
Q 2569 213 2275 61 
Q 1981 -91 1556 -91 
Q 1019 -91 701 211 
Q 384 513 384 1019 
Q 384 1609 779 1909 
Q 1175 2209 1959 2209 
L 2766 2209 
L 2766 2266 
Q 2766 2663 2505 2880 
Q 2244 3097 1772 3097 
Q 1472 3097 1187 3025 
Q 903 2953 641 2809 
L 641 3341 
Q 956 3463 1253 3523 
Q 1550 3584 1831 3584 
Q 2591 3584 2966 3190 
Q 3341 2797 3341 1997 
z
" id="DejaVuSans-61" transform="scale(0.015625)"/>
      <path d="M 2834 3397 
L 2834 2853 
Q 2591 2978 2328 3040 
Q 2066 3103 1784 3103 
Q 1356 3103 1142 2972 
Q 928 2841 928 2578 
Q 928 2378 1081 2264 
Q 1234 2150 1697 2047 
L 1894 2003 
Q 2506 1872 2764 1633 
Q 3022 1394 3022 966 
Q 3022 478 2636 193 
Q 2250 -91 1575 -91 
Q 1294 -91 989 -36 
Q 684 19 347 128 
L 347 722 
Q 666 556 975 473 
Q 1284 391 1588 391 
Q 1994 391 2212 530 
Q 2431 669 2431 922 
Q 2431 1156 2273 1281 
Q 2116 1406 1581 1522 
L 1381 1569 
Q 847 1681 609 1914 
Q 372 2147 372 2553 
Q 372 3047 722 3315 
Q 1072 3584 1716 3584 
Q 2034 3584 2315 3537 
Q 2597 3491 2834 3397 
z
" id="DejaVuSans-73" transform="scale(0.015625)"/>
      <path d="M 2906 2969 
L 2906 4863 
L 3481 4863 
L 3481 0 
L 2906 0 
L 2906 525 
Q 2725 213 2448 61 
Q 2172 -91 1784 -91 
Q 1150 -91 751 415 
Q 353 922 353 1747 
Q 353 2572 751 3078 
Q 1150 3584 1784 3584 
Q 2172 3584 2448 3432 
Q 2725 3281 2906 2969 
z
M 947 1747 
Q 947 1113 1208 752 
Q 1469 391 1925 391 
Q 2381 391 2643 752 
Q 2906 1113 2906 1747 
Q 2906 2381 2643 2742 
Q 2381 3103 1925 3103 
Q 1469 3103 1208 2742 
Q 947 2381 947 1747 
z
" id="DejaVuSans-64" transform="scale(0.015625)"/>
      <path d="M 3263 -1063 
L 3263 -1509 
L -63 -1509 
L -63 -1063 
L 3263 -1063 
z
" id="DejaVuSans-5f" transform="scale(0.015625)"/>
      <path d="M 2188 4044 
L 1331 1722 
L 3047 1722 
L 2188 4044 
z
M 1831 4666 
L 2547 4666 
L 4325 0 
L 3669 0 
L 3244 1197 
L 1141 1197 
L 716 0 
L 50 0 
L 1831 4666 
z
" id="DejaVuSans-41" transform="scale(0.015625)"/>
     </defs>
     <use xlink:href="#DejaVuSans-62"/>
     <use x="63.476562" xlink:href="#DejaVuSans-69"/>
     <use x="91.259766" xlink:href="#DejaVuSans-61"/>
     <use x="152.539062" xlink:href="#DejaVuSans-73"/>
     <use x="204.638672" xlink:href="#DejaVuSans-65"/>
     <use x="266.162109" xlink:href="#DejaVuSans-64"/>
     <use x="329.638672" xlink:href="#DejaVuSans-5f"/>
     <use x="379.638672" xlink:href="#DejaVuSans-41"/>
    </g>
   </g>
   <g id="legend_1">
    <g id="patch_9">
     <path d="M 351.635625 78.82825 
L 407.72 78.82825 
Q 409.72 78.82825 409.72 76.82825 
L 409.72 48.472 
Q 409.72 46.472 407.72 46.472 
L 351.635625 46.472 
Q 349.635625 46.472 349.635625 48.472 
L 349.635625 76.82825 
Q 349.635625 78.82825 351.635625 78.82825 
z
" style="fill:#ffffff;opacity:0.8;stroke:#cccccc;stroke-linejoin:miter;"/>
    </g>
    <g id="line2d_58">
     <path d="M 353.635625 54.570437 
L 373.635625 54.570437 
" style="fill:none;stroke:#1f77b4;stroke-linecap:square;stroke-width:1.5;"/>
    </g>
    <g id="line2d_59"/>
    <g id="text_19">
     <!-- coop -->
     <g transform="translate(381.635625 58.070437)scale(0.1 -0.1)">
      <use xlink:href="#DejaVuSans-63"/>
      <use x="54.980469" xlink:href="#DejaVuSans-6f"/>
      <use x="116.162109" xlink:href="#DejaVuSans-6f"/>
      <use x="177.34375" xlink:href="#DejaVuSans-70"/>
     </g>
    </g>
    <g id="line2d_60">
     <path d="M 353.635625 69.248562 
L 373.635625 69.248562 
" style="fill:none;stroke:#ff0000;stroke-linecap:square;stroke-width:1.5;"/>
    </g>
    <g id="line2d_61"/>
    <g id="text_20">
     <!-- host -->
     <g transform="translate(381.635625 72.748562)scale(0.1 -0.1)">
      <defs>
       <path d="M 3513 2113 
L 3513 0 
L 2938 0 
L 2938 2094 
Q 2938 2591 2744 2837 
Q 2550 3084 2163 3084 
Q 1697 3084 1428 2787 
Q 1159 2491 1159 1978 
L 1159 0 
L 581 0 
L 581 4863 
L 1159 4863 
L 1159 2956 
Q 1366 3272 1645 3428 
Q 1925 3584 2291 3584 
Q 2894 3584 3203 3211 
Q 3513 2838 3513 2113 
z
" id="DejaVuSans-68" transform="scale(0.015625)"/>
      </defs>
      <use xlink:href="#DejaVuSans-68"/>
      <use x="63.378906" xlink:href="#DejaVuSans-6f"/>
      <use x="124.560547" xlink:href="#DejaVuSans-73"/>
      <use x="176.660156" xlink:href="#DejaVuSans-74"/>
     </g>
    </g>
   </g>
  </g>
 </g>
 <defs>
  <clipPath id="p22fa1c8f17">
   <rect height="266.112" width="357.12" x="57.6" y="41.472"/>
  </clipPath>
 </defs>
</svg>
