<?xml version="1.0" encoding="utf-8" standalone="no"?>
<!DOCTYPE svg PUBLIC "-//W3C//DTD SVG 1.1//EN"
  "http://www.w3.org/Graphics/SVG/1.1/DTD/svg11.dtd">
<svg height="345.6pt" version="1.1" viewBox="0 0 460.8 345.6" width="460.8pt" xmlns="http://www.w3.org/2000/svg" xmlns:xlink="http://www.w3.org/1999/xlink">
 <metadata>
  <rdf:RDF xmlns:cc="http://creativecommons.org/ns#" xmlns:dc="http://purl.org/dc/elements/1.1/" xmlns:rdf="http://www.w3.org/1999/02/22-rdf-syntax-ns#">
   <cc:Work>
    <dc:type rdf:resource="http://purl.org/dc/dcmitype/StillImage"/>
    <dc:date>2023-10-05T17:05:46.433326</dc:date>
    <dc:format>image/svg+xml</dc:format>
    <dc:creator>
     <cc:Agent>
      <dc:title>Matplotlib v3.4.1, https://matplotlib.org/</dc:title>
     </cc:Agent>
    </dc:creator>
   </cc:Work>
  </rdf:RDF>
 </metadata>
 <defs>
  <style type="text/css">*{stroke-linecap:butt;stroke-linejoin:round;}</style>
 </defs>
 <g id="figure_1">
  <g id="patch_1">
   <path d="M 0 345.6 
L 460.8 345.6 
L 460.8 0 
L 0 0 
z
" style="fill:#ffffff;"/>
  </g>
  <g id="axes_1">
   <g id="patch_2">
    <path d="M 57.6 307.584 
L 414.72 307.584 
L 414.72 41.472 
L 57.6 41.472 
z
" style="fill:#ffffff;"/>
   </g>
   <g id="patch_3">
    <path clip-path="url(#p8b41125b8c)" d="M 73.832727 307.584 
L 73.832727 41.472 
L 236.16 41.472 
L 236.16 307.584 
z
" style="fill:#add8e6;opacity:0.2;"/>
   </g>
   <g id="patch_4">
    <path clip-path="url(#p8b41125b8c)" d="M 236.16 307.584 
L 236.16 41.472 
L 398.487273 41.472 
L 398.487273 307.584 
z
" style="fill:#ff7f50;opacity:0.2;"/>
   </g>
   <g id="matplotlib.axis_1">
    <g id="xtick_1">
     <g id="line2d_1">
      <defs>
       <path d="M 0 0 
L 0 3.5 
" id="m25d3a9231f" style="stroke:#000000;stroke-width:0.8;"/>
      </defs>
      <g>
       <use style="stroke:#000000;stroke-width:0.8;" x="73.832727" xlink:href="#m25d3a9231f" y="307.584"/>
      </g>
     </g>
     <g id="text_1">
      <!-- 0 -->
      <g transform="translate(70.651477 322.182437)scale(0.1 -0.1)">
       <defs>
        <path d="M 2034 4250 
Q 1547 4250 1301 3770 
Q 1056 3291 1056 2328 
Q 1056 1369 1301 889 
Q 1547 409 2034 409 
Q 2525 409 2770 889 
Q 3016 1369 3016 2328 
Q 3016 3291 2770 3770 
Q 2525 4250 2034 4250 
z
M 2034 4750 
Q 2819 4750 3233 4129 
Q 3647 3509 3647 2328 
Q 3647 1150 3233 529 
Q 2819 -91 2034 -91 
Q 1250 -91 836 529 
Q 422 1150 422 2328 
Q 422 3509 836 4129 
Q 1250 4750 2034 4750 
z
" id="DejaVuSans-30" transform="scale(0.015625)"/>
       </defs>
       <use xlink:href="#DejaVuSans-30"/>
      </g>
     </g>
    </g>
    <g id="xtick_2">
     <g id="line2d_2">
      <g>
       <use style="stroke:#000000;stroke-width:0.8;" x="114.414545" xlink:href="#m25d3a9231f" y="307.584"/>
      </g>
     </g>
     <g id="text_2">
      <!-- 5 -->
      <g transform="translate(111.233295 322.182437)scale(0.1 -0.1)">
       <defs>
        <path d="M 691 4666 
L 3169 4666 
L 3169 4134 
L 1269 4134 
L 1269 2991 
Q 1406 3038 1543 3061 
Q 1681 3084 1819 3084 
Q 2600 3084 3056 2656 
Q 3513 2228 3513 1497 
Q 3513 744 3044 326 
Q 2575 -91 1722 -91 
Q 1428 -91 1123 -41 
Q 819 9 494 109 
L 494 744 
Q 775 591 1075 516 
Q 1375 441 1709 441 
Q 2250 441 2565 725 
Q 2881 1009 2881 1497 
Q 2881 1984 2565 2268 
Q 2250 2553 1709 2553 
Q 1456 2553 1204 2497 
Q 953 2441 691 2322 
L 691 4666 
z
" id="DejaVuSans-35" transform="scale(0.015625)"/>
       </defs>
       <use xlink:href="#DejaVuSans-35"/>
      </g>
     </g>
    </g>
    <g id="xtick_3">
     <g id="line2d_3">
      <g>
       <use style="stroke:#000000;stroke-width:0.8;" x="154.996364" xlink:href="#m25d3a9231f" y="307.584"/>
      </g>
     </g>
     <g id="text_3">
      <!-- 10 -->
      <g transform="translate(148.633864 322.182437)scale(0.1 -0.1)">
       <defs>
        <path d="M 794 531 
L 1825 531 
L 1825 4091 
L 703 3866 
L 703 4441 
L 1819 4666 
L 2450 4666 
L 2450 531 
L 3481 531 
L 3481 0 
L 794 0 
L 794 531 
z
" id="DejaVuSans-31" transform="scale(0.015625)"/>
       </defs>
       <use xlink:href="#DejaVuSans-31"/>
       <use x="63.623047" xlink:href="#DejaVuSans-30"/>
      </g>
     </g>
    </g>
    <g id="xtick_4">
     <g id="line2d_4">
      <g>
       <use style="stroke:#000000;stroke-width:0.8;" x="195.578182" xlink:href="#m25d3a9231f" y="307.584"/>
      </g>
     </g>
     <g id="text_4">
      <!-- 15 -->
      <g transform="translate(189.215682 322.182437)scale(0.1 -0.1)">
       <use xlink:href="#DejaVuSans-31"/>
       <use x="63.623047" xlink:href="#DejaVuSans-35"/>
      </g>
     </g>
    </g>
    <g id="xtick_5">
     <g id="line2d_5">
      <g>
       <use style="stroke:#000000;stroke-width:0.8;" x="236.16" xlink:href="#m25d3a9231f" y="307.584"/>
      </g>
     </g>
     <g id="text_5">
      <!-- 20 -->
      <g transform="translate(229.7975 322.182437)scale(0.1 -0.1)">
       <defs>
        <path d="M 1228 531 
L 3431 531 
L 3431 0 
L 469 0 
L 469 531 
Q 828 903 1448 1529 
Q 2069 2156 2228 2338 
Q 2531 2678 2651 2914 
Q 2772 3150 2772 3378 
Q 2772 3750 2511 3984 
Q 2250 4219 1831 4219 
Q 1534 4219 1204 4116 
Q 875 4013 500 3803 
L 500 4441 
Q 881 4594 1212 4672 
Q 1544 4750 1819 4750 
Q 2544 4750 2975 4387 
Q 3406 4025 3406 3419 
Q 3406 3131 3298 2873 
Q 3191 2616 2906 2266 
Q 2828 2175 2409 1742 
Q 1991 1309 1228 531 
z
" id="DejaVuSans-32" transform="scale(0.015625)"/>
       </defs>
       <use xlink:href="#DejaVuSans-32"/>
       <use x="63.623047" xlink:href="#DejaVuSans-30"/>
      </g>
     </g>
    </g>
    <g id="xtick_6">
     <g id="line2d_6">
      <g>
       <use style="stroke:#000000;stroke-width:0.8;" x="276.741818" xlink:href="#m25d3a9231f" y="307.584"/>
      </g>
     </g>
     <g id="text_6">
      <!-- 25 -->
      <g transform="translate(270.379318 322.182437)scale(0.1 -0.1)">
       <use xlink:href="#DejaVuSans-32"/>
       <use x="63.623047" xlink:href="#DejaVuSans-35"/>
      </g>
     </g>
    </g>
    <g id="xtick_7">
     <g id="line2d_7">
      <g>
       <use style="stroke:#000000;stroke-width:0.8;" x="317.323636" xlink:href="#m25d3a9231f" y="307.584"/>
      </g>
     </g>
     <g id="text_7">
      <!-- 30 -->
      <g transform="translate(310.961136 322.182437)scale(0.1 -0.1)">
       <defs>
        <path d="M 2597 2516 
Q 3050 2419 3304 2112 
Q 3559 1806 3559 1356 
Q 3559 666 3084 287 
Q 2609 -91 1734 -91 
Q 1441 -91 1130 -33 
Q 819 25 488 141 
L 488 750 
Q 750 597 1062 519 
Q 1375 441 1716 441 
Q 2309 441 2620 675 
Q 2931 909 2931 1356 
Q 2931 1769 2642 2001 
Q 2353 2234 1838 2234 
L 1294 2234 
L 1294 2753 
L 1863 2753 
Q 2328 2753 2575 2939 
Q 2822 3125 2822 3475 
Q 2822 3834 2567 4026 
Q 2313 4219 1838 4219 
Q 1578 4219 1281 4162 
Q 984 4106 628 3988 
L 628 4550 
Q 988 4650 1302 4700 
Q 1616 4750 1894 4750 
Q 2613 4750 3031 4423 
Q 3450 4097 3450 3541 
Q 3450 3153 3228 2886 
Q 3006 2619 2597 2516 
z
" id="DejaVuSans-33" transform="scale(0.015625)"/>
       </defs>
       <use xlink:href="#DejaVuSans-33"/>
       <use x="63.623047" xlink:href="#DejaVuSans-30"/>
      </g>
     </g>
    </g>
    <g id="xtick_8">
     <g id="line2d_8">
      <g>
       <use style="stroke:#000000;stroke-width:0.8;" x="357.905455" xlink:href="#m25d3a9231f" y="307.584"/>
      </g>
     </g>
     <g id="text_8">
      <!-- 35 -->
      <g transform="translate(351.542955 322.182437)scale(0.1 -0.1)">
       <use xlink:href="#DejaVuSans-33"/>
       <use x="63.623047" xlink:href="#DejaVuSans-35"/>
      </g>
     </g>
    </g>
    <g id="xtick_9">
     <g id="line2d_9">
      <g>
       <use style="stroke:#000000;stroke-width:0.8;" x="398.487273" xlink:href="#m25d3a9231f" y="307.584"/>
      </g>
     </g>
     <g id="text_9">
      <!-- 40 -->
      <g transform="translate(392.124773 322.182437)scale(0.1 -0.1)">
       <defs>
        <path d="M 2419 4116 
L 825 1625 
L 2419 1625 
L 2419 4116 
z
M 2253 4666 
L 3047 4666 
L 3047 1625 
L 3713 1625 
L 3713 1100 
L 3047 1100 
L 3047 0 
L 2419 0 
L 2419 1100 
L 313 1100 
L 313 1709 
L 2253 4666 
z
" id="DejaVuSans-34" transform="scale(0.015625)"/>
       </defs>
       <use xlink:href="#DejaVuSans-34"/>
       <use x="63.623047" xlink:href="#DejaVuSans-30"/>
      </g>
     </g>
    </g>
    <g id="text_10">
     <!-- t -->
     <g transform="translate(234.199844 335.860562)scale(0.1 -0.1)">
      <defs>
       <path d="M 1172 4494 
L 1172 3500 
L 2356 3500 
L 2356 3053 
L 1172 3053 
L 1172 1153 
Q 1172 725 1289 603 
Q 1406 481 1766 481 
L 2356 481 
L 2356 0 
L 1766 0 
Q 1100 0 847 248 
Q 594 497 594 1153 
L 594 3053 
L 172 3053 
L 172 3500 
L 594 3500 
L 594 4494 
L 1172 4494 
z
" id="DejaVuSans-74" transform="scale(0.015625)"/>
      </defs>
      <use xlink:href="#DejaVuSans-74"/>
     </g>
    </g>
   </g>
   <g id="matplotlib.axis_2">
    <g id="ytick_1">
     <g id="line2d_10">
      <defs>
       <path d="M 0 0 
L -3.5 0 
" id="mde91e9ba72" style="stroke:#000000;stroke-width:0.8;"/>
      </defs>
      <g>
       <use style="stroke:#000000;stroke-width:0.8;" x="57.6" xlink:href="#mde91e9ba72" y="307.584"/>
      </g>
     </g>
     <g id="text_11">
      <!-- 0.0 -->
      <g transform="translate(34.696875 311.383219)scale(0.1 -0.1)">
       <defs>
        <path d="M 684 794 
L 1344 794 
L 1344 0 
L 684 0 
L 684 794 
z
" id="DejaVuSans-2e" transform="scale(0.015625)"/>
       </defs>
       <use xlink:href="#DejaVuSans-30"/>
       <use x="63.623047" xlink:href="#DejaVuSans-2e"/>
       <use x="95.410156" xlink:href="#DejaVuSans-30"/>
      </g>
     </g>
    </g>
    <g id="ytick_2">
     <g id="line2d_11">
      <g>
       <use style="stroke:#000000;stroke-width:0.8;" x="57.6" xlink:href="#mde91e9ba72" y="254.3616"/>
      </g>
     </g>
     <g id="text_12">
      <!-- 0.2 -->
      <g transform="translate(34.696875 258.160819)scale(0.1 -0.1)">
       <use xlink:href="#DejaVuSans-30"/>
       <use x="63.623047" xlink:href="#DejaVuSans-2e"/>
       <use x="95.410156" xlink:href="#DejaVuSans-32"/>
      </g>
     </g>
    </g>
    <g id="ytick_3">
     <g id="line2d_12">
      <g>
       <use style="stroke:#000000;stroke-width:0.8;" x="57.6" xlink:href="#mde91e9ba72" y="201.1392"/>
      </g>
     </g>
     <g id="text_13">
      <!-- 0.4 -->
      <g transform="translate(34.696875 204.938419)scale(0.1 -0.1)">
       <use xlink:href="#DejaVuSans-30"/>
       <use x="63.623047" xlink:href="#DejaVuSans-2e"/>
       <use x="95.410156" xlink:href="#DejaVuSans-34"/>
      </g>
     </g>
    </g>
    <g id="ytick_4">
     <g id="line2d_13">
      <g>
       <use style="stroke:#000000;stroke-width:0.8;" x="57.6" xlink:href="#mde91e9ba72" y="147.9168"/>
      </g>
     </g>
     <g id="text_14">
      <!-- 0.6 -->
      <g transform="translate(34.696875 151.716019)scale(0.1 -0.1)">
       <defs>
        <path d="M 2113 2584 
Q 1688 2584 1439 2293 
Q 1191 2003 1191 1497 
Q 1191 994 1439 701 
Q 1688 409 2113 409 
Q 2538 409 2786 701 
Q 3034 994 3034 1497 
Q 3034 2003 2786 2293 
Q 2538 2584 2113 2584 
z
M 3366 4563 
L 3366 3988 
Q 3128 4100 2886 4159 
Q 2644 4219 2406 4219 
Q 1781 4219 1451 3797 
Q 1122 3375 1075 2522 
Q 1259 2794 1537 2939 
Q 1816 3084 2150 3084 
Q 2853 3084 3261 2657 
Q 3669 2231 3669 1497 
Q 3669 778 3244 343 
Q 2819 -91 2113 -91 
Q 1303 -91 875 529 
Q 447 1150 447 2328 
Q 447 3434 972 4092 
Q 1497 4750 2381 4750 
Q 2619 4750 2861 4703 
Q 3103 4656 3366 4563 
z
" id="DejaVuSans-36" transform="scale(0.015625)"/>
       </defs>
       <use xlink:href="#DejaVuSans-30"/>
       <use x="63.623047" xlink:href="#DejaVuSans-2e"/>
       <use x="95.410156" xlink:href="#DejaVuSans-36"/>
      </g>
     </g>
    </g>
    <g id="ytick_5">
     <g id="line2d_14">
      <g>
       <use style="stroke:#000000;stroke-width:0.8;" x="57.6" xlink:href="#mde91e9ba72" y="94.6944"/>
      </g>
     </g>
     <g id="text_15">
      <!-- 0.8 -->
      <g transform="translate(34.696875 98.493619)scale(0.1 -0.1)">
       <defs>
        <path d="M 2034 2216 
Q 1584 2216 1326 1975 
Q 1069 1734 1069 1313 
Q 1069 891 1326 650 
Q 1584 409 2034 409 
Q 2484 409 2743 651 
Q 3003 894 3003 1313 
Q 3003 1734 2745 1975 
Q 2488 2216 2034 2216 
z
M 1403 2484 
Q 997 2584 770 2862 
Q 544 3141 544 3541 
Q 544 4100 942 4425 
Q 1341 4750 2034 4750 
Q 2731 4750 3128 4425 
Q 3525 4100 3525 3541 
Q 3525 3141 3298 2862 
Q 3072 2584 2669 2484 
Q 3125 2378 3379 2068 
Q 3634 1759 3634 1313 
Q 3634 634 3220 271 
Q 2806 -91 2034 -91 
Q 1263 -91 848 271 
Q 434 634 434 1313 
Q 434 1759 690 2068 
Q 947 2378 1403 2484 
z
M 1172 3481 
Q 1172 3119 1398 2916 
Q 1625 2713 2034 2713 
Q 2441 2713 2670 2916 
Q 2900 3119 2900 3481 
Q 2900 3844 2670 4047 
Q 2441 4250 2034 4250 
Q 1625 4250 1398 4047 
Q 1172 3844 1172 3481 
z
" id="DejaVuSans-38" transform="scale(0.015625)"/>
       </defs>
       <use xlink:href="#DejaVuSans-30"/>
       <use x="63.623047" xlink:href="#DejaVuSans-2e"/>
       <use x="95.410156" xlink:href="#DejaVuSans-38"/>
      </g>
     </g>
    </g>
    <g id="ytick_6">
     <g id="line2d_15">
      <g>
       <use style="stroke:#000000;stroke-width:0.8;" x="57.6" xlink:href="#mde91e9ba72" y="41.472"/>
      </g>
     </g>
     <g id="text_16">
      <!-- 1.0 -->
      <g transform="translate(34.696875 45.271219)scale(0.1 -0.1)">
       <use xlink:href="#DejaVuSans-31"/>
       <use x="63.623047" xlink:href="#DejaVuSans-2e"/>
       <use x="95.410156" xlink:href="#DejaVuSans-30"/>
      </g>
     </g>
    </g>
    <g id="text_17">
     <!-- p(context) -->
     <g transform="translate(28.617187 200.449875)rotate(-90)scale(0.1 -0.1)">
      <defs>
       <path d="M 1159 525 
L 1159 -1331 
L 581 -1331 
L 581 3500 
L 1159 3500 
L 1159 2969 
Q 1341 3281 1617 3432 
Q 1894 3584 2278 3584 
Q 2916 3584 3314 3078 
Q 3713 2572 3713 1747 
Q 3713 922 3314 415 
Q 2916 -91 2278 -91 
Q 1894 -91 1617 61 
Q 1341 213 1159 525 
z
M 3116 1747 
Q 3116 2381 2855 2742 
Q 2594 3103 2138 3103 
Q 1681 3103 1420 2742 
Q 1159 2381 1159 1747 
Q 1159 1113 1420 752 
Q 1681 391 2138 391 
Q 2594 391 2855 752 
Q 3116 1113 3116 1747 
z
" id="DejaVuSans-70" transform="scale(0.015625)"/>
       <path d="M 1984 4856 
Q 1566 4138 1362 3434 
Q 1159 2731 1159 2009 
Q 1159 1288 1364 580 
Q 1569 -128 1984 -844 
L 1484 -844 
Q 1016 -109 783 600 
Q 550 1309 550 2009 
Q 550 2706 781 3412 
Q 1013 4119 1484 4856 
L 1984 4856 
z
" id="DejaVuSans-28" transform="scale(0.015625)"/>
       <path d="M 3122 3366 
L 3122 2828 
Q 2878 2963 2633 3030 
Q 2388 3097 2138 3097 
Q 1578 3097 1268 2742 
Q 959 2388 959 1747 
Q 959 1106 1268 751 
Q 1578 397 2138 397 
Q 2388 397 2633 464 
Q 2878 531 3122 666 
L 3122 134 
Q 2881 22 2623 -34 
Q 2366 -91 2075 -91 
Q 1284 -91 818 406 
Q 353 903 353 1747 
Q 353 2603 823 3093 
Q 1294 3584 2113 3584 
Q 2378 3584 2631 3529 
Q 2884 3475 3122 3366 
z
" id="DejaVuSans-63" transform="scale(0.015625)"/>
       <path d="M 1959 3097 
Q 1497 3097 1228 2736 
Q 959 2375 959 1747 
Q 959 1119 1226 758 
Q 1494 397 1959 397 
Q 2419 397 2687 759 
Q 2956 1122 2956 1747 
Q 2956 2369 2687 2733 
Q 2419 3097 1959 3097 
z
M 1959 3584 
Q 2709 3584 3137 3096 
Q 3566 2609 3566 1747 
Q 3566 888 3137 398 
Q 2709 -91 1959 -91 
Q 1206 -91 779 398 
Q 353 888 353 1747 
Q 353 2609 779 3096 
Q 1206 3584 1959 3584 
z
" id="DejaVuSans-6f" transform="scale(0.015625)"/>
       <path d="M 3513 2113 
L 3513 0 
L 2938 0 
L 2938 2094 
Q 2938 2591 2744 2837 
Q 2550 3084 2163 3084 
Q 1697 3084 1428 2787 
Q 1159 2491 1159 1978 
L 1159 0 
L 581 0 
L 581 3500 
L 1159 3500 
L 1159 2956 
Q 1366 3272 1645 3428 
Q 1925 3584 2291 3584 
Q 2894 3584 3203 3211 
Q 3513 2838 3513 2113 
z
" id="DejaVuSans-6e" transform="scale(0.015625)"/>
       <path d="M 3597 1894 
L 3597 1613 
L 953 1613 
Q 991 1019 1311 708 
Q 1631 397 2203 397 
Q 2534 397 2845 478 
Q 3156 559 3463 722 
L 3463 178 
Q 3153 47 2828 -22 
Q 2503 -91 2169 -91 
Q 1331 -91 842 396 
Q 353 884 353 1716 
Q 353 2575 817 3079 
Q 1281 3584 2069 3584 
Q 2775 3584 3186 3129 
Q 3597 2675 3597 1894 
z
M 3022 2063 
Q 3016 2534 2758 2815 
Q 2500 3097 2075 3097 
Q 1594 3097 1305 2825 
Q 1016 2553 972 2059 
L 3022 2063 
z
" id="DejaVuSans-65" transform="scale(0.015625)"/>
       <path d="M 3513 3500 
L 2247 1797 
L 3578 0 
L 2900 0 
L 1881 1375 
L 863 0 
L 184 0 
L 1544 1831 
L 300 3500 
L 978 3500 
L 1906 2253 
L 2834 3500 
L 3513 3500 
z
" id="DejaVuSans-78" transform="scale(0.015625)"/>
       <path d="M 513 4856 
L 1013 4856 
Q 1481 4119 1714 3412 
Q 1947 2706 1947 2009 
Q 1947 1309 1714 600 
Q 1481 -109 1013 -844 
L 513 -844 
Q 928 -128 1133 580 
Q 1338 1288 1338 2009 
Q 1338 2731 1133 3434 
Q 928 4138 513 4856 
z
" id="DejaVuSans-29" transform="scale(0.015625)"/>
      </defs>
      <use xlink:href="#DejaVuSans-70"/>
      <use x="63.476562" xlink:href="#DejaVuSans-28"/>
      <use x="102.490234" xlink:href="#DejaVuSans-63"/>
      <use x="157.470703" xlink:href="#DejaVuSans-6f"/>
      <use x="218.652344" xlink:href="#DejaVuSans-6e"/>
      <use x="282.03125" xlink:href="#DejaVuSans-74"/>
      <use x="321.240234" xlink:href="#DejaVuSans-65"/>
      <use x="381.013672" xlink:href="#DejaVuSans-78"/>
      <use x="440.193359" xlink:href="#DejaVuSans-74"/>
      <use x="479.402344" xlink:href="#DejaVuSans-29"/>
     </g>
    </g>
   </g>
   <g id="line2d_16">
    <path clip-path="url(#p8b41125b8c)" d="M 73.832727 147.9168 
L 81.949091 62.114985 
L 90.065455 52.529393 
L 98.181818 49.243182 
L 106.298182 47.532836 
L 114.414545 46.471634 
L 122.530909 45.743759 
L 130.647273 45.211415 
L 138.763636 183.466933 
L 146.88 59.304634 
L 154.996364 47.824698 
L 163.112727 46.470958 
L 171.229091 46.00615 
L 179.345455 45.669111 
L 187.461818 181.220652 
L 195.578182 267.215553 
L 203.694545 83.949941 
L 211.810909 52.087753 
L 219.927273 48.362115 
L 228.043636 47.667158 
L 236.16 66.469249 
L 244.276364 215.548268 
L 252.392727 280.128805 
L 260.509091 293.851558 
L 268.625455 298.06305 
L 276.741818 117.882494 
L 284.858182 250.766134 
L 292.974545 290.22912 
L 301.090909 297.24812 
L 309.207273 131.749422 
L 317.323636 253.061087 
L 325.44 110.182176 
L 333.556364 63.841647 
L 341.672727 197.097341 
L 349.789091 268.248908 
L 357.905455 286.924011 
L 366.021818 291.665734 
L 374.138182 293.625437 
L 382.254545 294.946633 
L 390.370909 296.022446 
" style="fill:none;stroke:#add8e6;stroke-linecap:square;stroke-opacity:0.3;stroke-width:1.5;"/>
   </g>
   <g id="line2d_17">
    <path clip-path="url(#p8b41125b8c)" d="M 73.832727 147.9168 
L 81.949091 62.114985 
L 90.065455 52.529393 
L 98.181818 49.243182 
L 106.298182 47.532836 
L 114.414545 46.471634 
L 122.530909 45.743759 
L 130.647273 45.211415 
L 138.763636 44.804276 
L 146.88 44.482397 
L 154.996364 44.221295 
L 163.112727 44.00509 
L 171.229091 43.823013 
L 179.345455 43.667495 
L 187.461818 43.533061 
L 195.578182 43.415647 
L 203.694545 43.312175 
L 211.810909 43.220268 
L 219.927273 43.138062 
L 228.043636 43.064075 
L 236.16 50.035536 
L 244.276364 241.991795 
L 252.392727 302.616977 
L 260.509091 306.099891 
L 268.625455 306.700869 
L 276.741818 128.034732 
L 284.858182 292.205944 
L 292.974545 305.964193 
L 301.090909 306.623924 
L 309.207273 306.803628 
L 317.323636 306.924033 
L 325.44 307.014301 
L 333.556364 156.114909 
L 341.672727 296.163471 
L 349.789091 306.362415 
L 357.905455 306.812596 
L 366.021818 306.899679 
L 374.138182 285.666136 
L 382.254545 107.395684 
L 390.370909 281.968813 
" style="fill:none;stroke:#add8e6;stroke-linecap:square;stroke-opacity:0.3;stroke-width:1.5;"/>
   </g>
   <g id="line2d_18">
    <path clip-path="url(#p8b41125b8c)" d="M 73.832727 147.9168 
L 81.949091 62.114985 
L 90.065455 52.529393 
L 98.181818 49.243182 
L 106.298182 47.532836 
L 114.414545 46.471634 
L 122.530909 45.743759 
L 130.647273 45.211415 
L 138.763636 44.804276 
L 146.88 44.482397 
L 154.996364 44.221295 
L 163.112727 44.00509 
L 171.229091 43.823013 
L 179.345455 43.667495 
L 187.461818 188.395688 
L 195.578182 57.387916 
L 203.694545 45.690813 
L 211.810909 44.634424 
L 219.927273 183.495748 
L 228.043636 59.381933 
L 236.16 65.748251 
L 244.276364 194.577479 
L 252.392727 265.739179 
L 260.509091 286.97495 
L 268.625455 294.410391 
L 276.741818 298.020699 
L 284.858182 115.283837 
L 292.974545 244.463144 
L 301.090909 288.543058 
L 309.207273 296.784553 
L 317.323636 128.326295 
L 325.44 247.178223 
L 333.556364 103.748867 
L 341.672727 224.591386 
L 349.789091 276.778705 
L 357.905455 289.649184 
L 366.021818 137.081347 
L 374.138182 239.281853 
L 382.254545 277.859259 
L 390.370909 134.826536 
" style="fill:none;stroke:#add8e6;stroke-linecap:square;stroke-opacity:0.3;stroke-width:1.5;"/>
   </g>
   <g id="line2d_19">
    <path clip-path="url(#p8b41125b8c)" d="M 73.832727 147.9168 
L 81.949091 62.114985 
L 90.065455 52.529393 
L 98.181818 49.243182 
L 106.298182 47.532836 
L 114.414545 46.471634 
L 122.530909 45.743759 
L 130.647273 45.211415 
L 138.763636 44.804276 
L 146.88 44.482397 
L 154.996364 44.221295 
L 163.112727 184.866471 
L 171.229091 57.869274 
L 179.345455 46.464687 
L 187.461818 45.324838 
L 195.578182 45.0198 
L 203.694545 44.807857 
L 211.810909 44.625437 
L 219.927273 44.463812 
L 228.043636 44.319365 
L 236.16 55.397655 
L 244.276364 227.913728 
L 252.392727 294.685786 
L 260.509091 302.896791 
L 268.625455 304.722069 
L 276.741818 305.53834 
L 284.858182 125.697502 
L 292.974545 280.923981 
L 301.090909 303.584471 
L 309.207273 305.297232 
L 317.323636 143.25202 
L 325.44 282.315237 
L 333.556364 303.12901 
L 341.672727 304.914902 
L 349.789091 305.29998 
L 357.905455 305.545164 
L 366.021818 305.743334 
L 374.138182 305.908997 
L 382.254545 278.639927 
L 390.370909 304.397022 
" style="fill:none;stroke:#add8e6;stroke-linecap:square;stroke-opacity:0.3;stroke-width:1.5;"/>
   </g>
   <g id="line2d_20">
    <path clip-path="url(#p8b41125b8c)" d="M 73.832727 147.9168 
L 81.949091 283.486027 
L 90.065455 109.845516 
L 98.181818 69.670189 
L 106.298182 242.403559 
L 114.414545 104.380315 
L 122.530909 72.924498 
L 130.647273 64.980199 
L 138.763636 218.861404 
L 146.88 99.343649 
L 154.996364 73.202414 
L 163.112727 67.024976 
L 171.229091 64.229608 
L 179.345455 206.251084 
L 187.461818 95.581986 
L 195.578182 72.454798 
L 203.694545 198.742639 
L 211.810909 98.174365 
L 219.927273 76.779062 
L 228.043636 191.265585 
L 236.16 149.359958 
L 244.276364 215.865667 
L 252.392727 236.095942 
L 260.509091 243.993357 
L 268.625455 117.879266 
L 276.741818 202.561362 
L 284.858182 228.561758 
L 292.974545 119.886776 
L 301.090909 197.637412 
L 309.207273 220.843294 
L 317.323636 228.212695 
L 325.44 231.57677 
L 333.556364 233.920705 
L 341.672727 235.955363 
L 349.789091 126.771419 
L 357.905455 201.818499 
L 366.021818 222.920794 
L 374.138182 128.181548 
L 382.254545 198.393496 
L 390.370909 217.555263 
" style="fill:none;stroke:#add8e6;stroke-linecap:square;stroke-opacity:0.3;stroke-width:1.5;"/>
   </g>
   <g id="line2d_21">
    <path clip-path="url(#p8b41125b8c)" d="M 73.832727 147.9168 
L 81.949091 283.486027 
L 90.065455 109.845516 
L 98.181818 69.670189 
L 106.298182 59.484931 
L 114.414545 55.084122 
L 122.530909 225.445579 
L 130.647273 88.894884 
L 138.763636 62.21022 
L 146.88 57.067583 
L 154.996364 55.02133 
L 163.112727 53.624315 
L 171.229091 52.514903 
L 179.345455 51.599264 
L 187.461818 50.829692 
L 195.578182 50.174072 
L 203.694545 49.609102 
L 211.810909 49.117371 
L 219.927273 48.685614 
L 228.043636 215.749195 
L 236.16 150.753266 
L 244.276364 269.068779 
L 252.392727 292.694974 
L 260.509091 297.778023 
L 268.625455 300.028639 
L 276.741818 124.683104 
L 284.858182 262.184703 
L 292.974545 110.28572 
L 301.090909 246.724747 
L 309.207273 287.36303 
L 317.323636 295.005771 
L 325.44 140.592583 
L 333.556364 255.324574 
L 341.672727 121.276467 
L 349.789091 239.888794 
L 357.905455 279.480236 
L 366.021818 288.787262 
L 374.138182 148.244694 
L 382.254545 247.770987 
L 390.370909 279.174317 
" style="fill:none;stroke:#add8e6;stroke-linecap:square;stroke-opacity:0.3;stroke-width:1.5;"/>
   </g>
   <g id="line2d_22">
    <path clip-path="url(#p8b41125b8c)" d="M 73.832727 147.9168 
L 81.949091 62.114985 
L 90.065455 52.529393 
L 98.181818 203.180405 
L 106.298182 70.830652 
L 114.414545 55.464874 
L 122.530909 52.247164 
L 130.647273 50.625228 
L 138.763636 186.532273 
L 146.88 68.192768 
L 154.996364 54.158045 
L 163.112727 51.889343 
L 171.229091 178.322174 
L 179.345455 69.008238 
L 187.461818 55.295373 
L 195.578182 171.784195 
L 203.694545 71.000814 
L 211.810909 57.517894 
L 219.927273 165.603724 
L 228.043636 72.642035 
L 236.16 89.911089 
L 244.276364 171.12128 
L 252.392727 204.000028 
L 260.509091 85.185058 
L 268.625455 162.639527 
L 276.741818 81.208364 
L 284.858182 68.185233 
L 292.974545 65.585535 
L 301.090909 151.555415 
L 309.207273 183.860633 
L 317.323636 87.061186 
L 325.44 154.866821 
L 333.556364 177.923796 
L 341.672727 185.767377 
L 349.789091 189.220278 
L 357.905455 92.951858 
L 366.021818 155.123711 
L 374.138182 89.542907 
L 382.254545 150.677486 
L 390.370909 168.717239 
" style="fill:none;stroke:#add8e6;stroke-linecap:square;stroke-opacity:0.3;stroke-width:1.5;"/>
   </g>
   <g id="line2d_23">
    <path clip-path="url(#p8b41125b8c)" d="M 73.832727 147.9168 
L 81.949091 62.114985 
L 90.065455 52.529393 
L 98.181818 203.180405 
L 106.298182 70.830652 
L 114.414545 55.464874 
L 122.530909 52.247164 
L 130.647273 50.625228 
L 138.763636 49.479408 
L 146.88 185.954621 
L 154.996364 66.605165 
L 163.112727 188.437152 
L 171.229091 71.940571 
L 179.345455 56.44562 
L 187.461818 172.198782 
L 195.578182 227.296248 
L 203.694545 86.743819 
L 211.810909 181.716136 
L 219.927273 82.38959 
L 228.043636 65.588985 
L 236.16 94.756722 
L 244.276364 66.155883 
L 252.392727 168.70948 
L 260.509091 210.068102 
L 268.625455 90.722705 
L 276.741818 172.854777 
L 284.858182 87.153349 
L 292.974545 165.594539 
L 301.090909 88.862038 
L 309.207273 75.253524 
L 317.323636 156.902845 
L 325.44 184.440055 
L 333.556364 193.543687 
L 341.672727 197.39483 
L 349.789091 199.812314 
L 357.905455 201.81719 
L 366.021818 203.674113 
L 374.138182 205.450281 
L 382.254545 207.162408 
L 390.370909 208.81468 
" style="fill:none;stroke:#add8e6;stroke-linecap:square;stroke-opacity:0.3;stroke-width:1.5;"/>
   </g>
   <g id="line2d_24">
    <path clip-path="url(#p8b41125b8c)" d="M 73.832727 147.9168 
L 81.949091 62.114985 
L 90.065455 221.839696 
L 98.181818 79.765002 
L 106.298182 60.550542 
L 114.414545 201.593432 
L 122.530909 80.951772 
L 130.647273 199.975298 
L 138.763636 240.875165 
L 146.88 102.365108 
L 154.996364 75.909029 
L 163.112727 69.729855 
L 171.229091 66.659423 
L 179.345455 64.345388 
L 187.461818 188.385183 
L 195.578182 86.790726 
L 203.694545 189.299065 
L 211.810909 224.569157 
L 219.927273 102.573414 
L 228.043636 188.32719 
L 236.16 150.034735 
L 244.276364 204.016718 
L 252.392727 219.810533 
L 260.509091 225.767957 
L 268.625455 114.046396 
L 276.741818 190.200103 
L 284.858182 211.60828 
L 292.974545 116.657301 
L 301.090909 97.446808 
L 309.207273 181.059359 
L 317.323636 203.248397 
L 325.44 209.414323 
L 333.556364 211.829347 
L 341.672727 213.37087 
L 349.789091 214.683367 
L 357.905455 215.908904 
L 366.021818 121.799502 
L 374.138182 103.930477 
L 382.254545 185.271766 
L 390.370909 118.293696 
" style="fill:none;stroke:#add8e6;stroke-linecap:square;stroke-opacity:0.3;stroke-width:1.5;"/>
   </g>
   <g id="line2d_25">
    <path clip-path="url(#p8b41125b8c)" d="M 73.832727 147.9168 
L 81.949091 62.114985 
L 90.065455 52.529393 
L 98.181818 49.243182 
L 106.298182 47.532836 
L 114.414545 46.471634 
L 122.530909 45.743759 
L 130.647273 45.211415 
L 138.763636 44.804276 
L 146.88 44.482397 
L 154.996364 184.050188 
L 163.112727 58.200258 
L 171.229091 194.536526 
L 179.345455 63.851887 
L 187.461818 49.219881 
L 195.578182 47.514287 
L 203.694545 47.025386 
L 211.810909 174.945781 
L 219.927273 255.982664 
L 228.043636 83.923571 
L 236.16 86.750083 
L 244.276364 213.765308 
L 252.392727 266.708324 
L 260.509091 282.361249 
L 268.625455 107.209572 
L 276.741818 222.343368 
L 284.858182 91.81299 
L 292.974545 203.618845 
L 301.090909 254.559796 
L 309.207273 110.126594 
L 317.323636 206.687269 
L 325.44 248.542261 
L 333.556364 114.035061 
L 341.672727 202.284636 
L 349.789091 101.89688 
L 357.905455 189.978596 
L 366.021818 229.017923 
L 374.138182 243.739846 
L 382.254545 120.614192 
L 390.370909 83.819923 
" style="fill:none;stroke:#add8e6;stroke-linecap:square;stroke-opacity:0.3;stroke-width:1.5;"/>
   </g>
   <g id="line2d_26">
    <path clip-path="url(#p8b41125b8c)" d="M 73.832727 147.9168 
L 81.949091 283.486027 
L 90.065455 109.845516 
L 98.181818 69.670189 
L 106.298182 59.484931 
L 114.414545 231.434492 
L 122.530909 94.868277 
L 130.647273 66.444905 
L 138.763636 216.708336 
L 146.88 97.083852 
L 154.996364 71.306565 
L 163.112727 65.370823 
L 171.229091 203.163391 
L 179.345455 253.066024 
L 187.461818 268.530081 
L 195.578182 123.958823 
L 203.694545 223.441946 
L 211.810909 255.010679 
L 219.927273 128.515299 
L 228.043636 91.841388 
L 236.16 130.398377 
L 244.276364 226.513498 
L 252.392727 253.737851 
L 260.509091 130.65576 
L 268.625455 220.099114 
L 276.741818 245.937899 
L 284.858182 253.913659 
L 292.974545 137.444962 
L 301.090909 218.795111 
L 309.207273 241.906717 
L 317.323636 248.867553 
L 325.44 251.943012 
L 333.556364 254.061425 
L 341.672727 255.884294 
L 349.789091 257.561437 
L 357.905455 259.130232 
L 366.021818 260.603623 
L 374.138182 261.989151 
L 382.254545 213.222319 
L 390.370909 121.659008 
" style="fill:none;stroke:#add8e6;stroke-linecap:square;stroke-opacity:0.3;stroke-width:1.5;"/>
   </g>
   <g id="line2d_27">
    <path clip-path="url(#p8b41125b8c)" d="M 73.832727 147.9168 
L 81.949091 62.114985 
L 90.065455 52.529393 
L 98.181818 49.243182 
L 106.298182 47.532836 
L 114.414545 46.471634 
L 122.530909 45.743759 
L 130.647273 45.211415 
L 138.763636 44.804276 
L 146.88 44.482397 
L 154.996364 184.050188 
L 163.112727 58.200258 
L 171.229091 46.82809 
L 179.345455 45.637768 
L 187.461818 179.896025 
L 195.578182 60.169467 
L 203.694545 187.568946 
L 211.810909 258.743111 
L 219.927273 85.176306 
L 228.043636 54.191577 
L 236.16 74.127374 
L 244.276364 204.76023 
L 252.392727 264.411335 
L 260.509091 281.858256 
L 268.625455 288.659123 
L 276.741818 292.536545 
L 284.858182 117.265607 
L 292.974545 237.10903 
L 301.090909 279.891405 
L 309.207273 120.176017 
L 317.323636 66.870646 
L 325.44 193.396909 
L 333.556364 259.580891 
L 341.672727 279.138109 
L 349.789091 284.973549 
L 357.905455 131.748311 
L 366.021818 231.336529 
L 374.138182 269.572251 
L 382.254545 280.480062 
L 390.370909 284.167824 
" style="fill:none;stroke:#add8e6;stroke-linecap:square;stroke-opacity:0.3;stroke-width:1.5;"/>
   </g>
   <g id="line2d_28">
    <path clip-path="url(#p8b41125b8c)" d="M 73.832727 147.9168 
L 81.949091 62.114985 
L 90.065455 52.529393 
L 98.181818 203.180405 
L 106.298182 70.830652 
L 114.414545 55.464874 
L 122.530909 191.57849 
L 130.647273 73.351698 
L 138.763636 191.249333 
L 146.88 79.424379 
L 154.996364 63.162971 
L 163.112727 59.663458 
L 171.229091 175.957165 
L 179.345455 223.049316 
L 187.461818 90.564729 
L 195.578182 68.344157 
L 203.694545 172.945652 
L 211.810909 84.613118 
L 219.927273 70.048138 
L 228.043636 66.829088 
L 236.16 99.191724 
L 244.276364 191.888067 
L 252.392727 222.410909 
L 260.509091 233.850957 
L 268.625455 240.453749 
L 276.741818 245.626503 
L 284.858182 103.646959 
L 292.974545 196.043505 
L 301.090909 227.04735 
L 309.207273 237.333178 
L 317.323636 108.864209 
L 325.44 82.075166 
L 333.556364 183.983101 
L 341.672727 218.210788 
L 349.789091 229.030847 
L 357.905455 233.418854 
L 366.021818 236.112149 
L 374.138182 113.811188 
L 382.254545 194.864312 
L 390.370909 220.381624 
" style="fill:none;stroke:#add8e6;stroke-linecap:square;stroke-opacity:0.3;stroke-width:1.5;"/>
   </g>
   <g id="line2d_29">
    <path clip-path="url(#p8b41125b8c)" d="M 73.832727 147.9168 
L 81.949091 62.114985 
L 90.065455 52.529393 
L 98.181818 49.243182 
L 106.298182 47.532836 
L 114.414545 46.471634 
L 122.530909 45.743759 
L 130.647273 45.211415 
L 138.763636 44.804276 
L 146.88 183.540908 
L 154.996364 58.662837 
L 163.112727 47.271965 
L 171.229091 46.012855 
L 179.345455 45.615712 
L 187.461818 45.330862 
L 195.578182 181.735563 
L 203.694545 59.921854 
L 211.810909 47.697995 
L 219.927273 46.419708 
L 228.043636 46.084771 
L 236.16 61.196933 
L 244.276364 213.793128 
L 252.392727 281.393232 
L 260.509091 295.779493 
L 268.625455 104.620311 
L 276.741818 245.147352 
L 284.858182 91.315145 
L 292.974545 225.240196 
L 301.090909 279.609425 
L 309.207273 291.712813 
L 317.323636 295.39479 
L 325.44 297.409229 
L 333.556364 132.825039 
L 341.672727 65.547323 
L 349.789091 202.434414 
L 357.905455 274.22891 
L 366.021818 125.192935 
L 374.138182 237.252714 
L 382.254545 110.198737 
L 390.370909 68.134038 
" style="fill:none;stroke:#add8e6;stroke-linecap:square;stroke-opacity:0.3;stroke-width:1.5;"/>
   </g>
   <g id="line2d_30">
    <path clip-path="url(#p8b41125b8c)" d="M 73.832727 147.9168 
L 81.949091 62.114985 
L 90.065455 52.529393 
L 98.181818 49.243182 
L 106.298182 47.532836 
L 114.414545 188.43134 
L 122.530909 63.312424 
L 130.647273 50.728591 
L 138.763636 48.765428 
L 146.88 181.220334 
L 154.996364 64.620598 
L 163.112727 51.813401 
L 171.229091 49.952516 
L 179.345455 49.190054 
L 187.461818 48.614822 
L 195.578182 48.127421 
L 203.694545 47.705369 
L 211.810909 47.336189 
L 219.927273 47.010641 
L 228.043636 46.721514 
L 236.16 63.387788 
L 244.276364 218.90825 
L 252.392727 281.792616 
L 260.509091 295.425849 
L 268.625455 299.722225 
L 276.741818 301.829902 
L 284.858182 303.099604 
L 292.974545 303.943131 
L 301.090909 304.5391 
L 309.207273 304.979423 
L 317.323636 305.316174 
L 325.44 130.110792 
L 333.556364 55.377875 
L 341.672727 221.342851 
L 349.789091 294.720057 
L 357.905455 128.857445 
L 366.021818 266.059593 
L 374.138182 298.382743 
L 382.254545 302.428598 
L 390.370909 303.180028 
" style="fill:none;stroke:#add8e6;stroke-linecap:square;stroke-opacity:0.3;stroke-width:1.5;"/>
   </g>
   <g id="line2d_31">
    <path clip-path="url(#p8b41125b8c)" d="M 73.832727 147.9168 
L 81.949091 62.114985 
L 90.065455 221.839696 
L 98.181818 79.765002 
L 106.298182 60.550542 
L 114.414545 55.703324 
L 122.530909 53.179404 
L 130.647273 192.67845 
L 138.763636 72.983422 
L 146.88 57.205893 
L 154.996364 54.326399 
L 163.112727 52.963029 
L 171.229091 51.934785 
L 179.345455 183.912617 
L 187.461818 70.517253 
L 195.578182 55.690537 
L 203.694545 53.439193 
L 211.810909 52.557106 
L 219.927273 51.8882 
L 228.043636 179.439658 
L 236.16 123.874738 
L 244.276364 62.696447 
L 252.392727 180.224052 
L 260.509091 233.128555 
L 268.625455 253.168607 
L 276.741818 263.438004 
L 284.858182 270.439646 
L 292.974545 104.936055 
L 301.090909 66.156453 
L 309.207273 184.832673 
L 317.323636 240.692606 
L 325.44 259.660192 
L 333.556364 110.019091 
L 341.672727 204.161581 
L 349.789091 242.740424 
L 357.905455 110.357607 
L 366.021818 198.4359 
L 374.138182 234.467355 
L 382.254545 247.329744 
L 390.370909 117.090287 
" style="fill:none;stroke:#add8e6;stroke-linecap:square;stroke-opacity:0.3;stroke-width:1.5;"/>
   </g>
   <g id="line2d_32">
    <path clip-path="url(#p8b41125b8c)" d="M 73.832727 147.9168 
L 81.949091 62.114985 
L 90.065455 52.529393 
L 98.181818 49.243182 
L 106.298182 47.532836 
L 114.414545 46.471634 
L 122.530909 45.743759 
L 130.647273 45.211415 
L 138.763636 44.804276 
L 146.88 44.482397 
L 154.996364 184.050188 
L 163.112727 58.200258 
L 171.229091 46.82809 
L 179.345455 45.637768 
L 187.461818 45.292344 
L 195.578182 45.048121 
L 203.694545 44.839152 
L 211.810909 44.655362 
L 219.927273 185.325771 
L 228.043636 59.353752 
L 236.16 65.981694 
L 244.276364 47.344051 
L 252.392727 182.701853 
L 260.509091 267.094974 
L 268.625455 289.659668 
L 276.741818 99.386992 
L 284.858182 54.35791 
L 292.974545 184.920143 
L 301.090909 266.504878 
L 309.207273 100.734381 
L 317.323636 217.993274 
L 325.44 269.737835 
L 333.556364 284.09326 
L 341.672727 289.158258 
L 349.789091 123.963568 
L 357.905455 232.652591 
L 366.021818 275.02415 
L 374.138182 286.122091 
L 382.254545 289.779232 
L 390.370909 291.797132 
" style="fill:none;stroke:#add8e6;stroke-linecap:square;stroke-opacity:0.3;stroke-width:1.5;"/>
   </g>
   <g id="line2d_33">
    <path clip-path="url(#p8b41125b8c)" d="M 73.832727 147.9168 
L 81.949091 283.486027 
L 90.065455 109.845516 
L 98.181818 265.743235 
L 106.298182 120.872836 
L 114.414545 82.248751 
L 122.530909 237.460625 
L 130.647273 275.669516 
L 138.763636 138.594624 
L 146.88 96.438419 
L 154.996364 84.408925 
L 163.112727 78.748437 
L 171.229091 223.0553 
L 179.345455 117.141382 
L 187.461818 90.027486 
L 195.578182 82.589707 
L 203.694545 79.09904 
L 211.810909 76.557824 
L 219.927273 74.405885 
L 228.043636 72.514495 
L 236.16 114.648687 
L 244.276364 243.104821 
L 252.392727 272.60455 
L 260.509091 280.419128 
L 268.625455 129.347903 
L 276.741818 86.44644 
L 284.858182 226.349429 
L 292.974545 264.862474 
L 301.090909 274.589186 
L 309.207273 278.49572 
L 317.323636 138.080499 
L 325.44 241.221534 
L 333.556364 267.909755 
L 341.672727 274.879073 
L 349.789091 277.775304 
L 357.905455 279.767355 
L 366.021818 281.457742 
L 374.138182 282.969439 
L 382.254545 144.756329 
L 390.370909 247.025032 
" style="fill:none;stroke:#add8e6;stroke-linecap:square;stroke-opacity:0.3;stroke-width:1.5;"/>
   </g>
   <g id="line2d_34">
    <path clip-path="url(#p8b41125b8c)" d="M 73.832727 147.9168 
L 81.949091 62.114985 
L 90.065455 52.529393 
L 98.181818 49.243182 
L 106.298182 47.532836 
L 114.414545 46.471634 
L 122.530909 45.743759 
L 130.647273 45.211415 
L 138.763636 44.804276 
L 146.88 44.482397 
L 154.996364 184.050188 
L 163.112727 58.200258 
L 171.229091 194.536526 
L 179.345455 63.851887 
L 187.461818 49.219881 
L 195.578182 174.004875 
L 203.694545 250.464004 
L 211.810909 276.734386 
L 219.927273 97.912246 
L 228.043636 57.711147 
L 236.16 80.385257 
L 244.276364 210.877873 
L 252.392727 267.211445 
L 260.509091 282.796729 
L 268.625455 288.57825 
L 276.741818 291.906454 
L 284.858182 294.269236 
L 292.974545 296.068571 
L 301.090909 297.481563 
L 309.207273 126.646295 
L 317.323636 248.199276 
L 325.44 286.889914 
L 333.556364 294.592246 
L 341.672727 296.589264 
L 349.789091 135.46919 
L 357.905455 248.958174 
L 366.021818 285.633801 
L 374.138182 293.43031 
L 382.254545 140.543746 
L 390.370909 246.86487 
" style="fill:none;stroke:#add8e6;stroke-linecap:square;stroke-opacity:0.3;stroke-width:1.5;"/>
   </g>
   <g id="line2d_35">
    <path clip-path="url(#p8b41125b8c)" d="M 73.832727 147.9168 
L 81.949091 283.486027 
L 90.065455 109.845516 
L 98.181818 69.670189 
L 106.298182 242.403559 
L 114.414545 285.054601 
L 122.530909 131.421558 
L 130.647273 83.089142 
L 138.763636 70.934932 
L 146.88 65.852983 
L 154.996364 62.583829 
L 163.112727 60.127354 
L 171.229091 58.185799 
L 179.345455 56.611871 
L 187.461818 220.30207 
L 195.578182 93.47558 
L 203.694545 65.303658 
L 211.810909 59.897018 
L 219.927273 58.168822 
L 228.043636 57.08582 
L 236.16 89.419851 
L 244.276364 244.118813 
L 252.392727 284.937643 
L 260.509091 120.746326 
L 268.625455 247.522947 
L 276.741818 112.122097 
L 284.858182 234.122509 
L 292.974545 271.9704 
L 301.090909 130.70222 
L 309.207273 83.420716 
L 317.323636 210.320838 
L 325.44 257.562757 
L 333.556364 130.969297 
L 341.672727 224.712643 
L 349.789091 256.139906 
L 357.905455 135.40768 
L 366.021818 221.014327 
L 374.138182 250.045567 
L 382.254545 259.538658 
L 390.370909 263.671291 
" style="fill:none;stroke:#add8e6;stroke-linecap:square;stroke-opacity:0.3;stroke-width:1.5;"/>
   </g>
   <g id="line2d_36">
    <path clip-path="url(#p8b41125b8c)" d="M 73.832727 214.4448 
L 81.949091 298.840117 
L 90.065455 304.354529 
L 98.181818 305.588959 
L 106.298182 306.146715 
L 114.414545 306.466537 
L 122.530909 306.673169 
L 130.647273 306.817157 
L 138.763636 197.326435 
L 146.88 300.220853 
L 154.996364 305.73858 
L 163.112727 306.206699 
L 171.229091 306.361649 
L 179.345455 306.473565 
L 187.461818 198.123365 
L 195.578182 108.942776 
L 203.694545 282.534039 
L 211.810909 302.855225 
L 219.927273 304.868237 
L 228.043636 305.20619 
L 236.16 291.258786 
L 244.276364 162.85884 
L 252.392727 93.146021 
L 260.509091 74.866339 
L 268.625455 67.587945 
L 276.741818 253.724243 
L 284.858182 120.833959 
L 292.974545 75.992469 
L 301.090909 66.731493 
L 309.207273 240.204252 
L 317.323636 116.120557 
L 325.44 255.727412 
L 333.556364 292.754018 
L 341.672727 173.995613 
L 349.789091 98.936918 
L 357.905455 78.148982 
L 366.021818 72.247349 
L 374.138182 69.395591 
L 382.254545 67.299462 
L 390.370909 65.530414 
" style="fill:none;stroke:#ff0000;stroke-linecap:square;stroke-opacity:0.1;stroke-width:1.5;"/>
   </g>
   <g id="line2d_37">
    <path clip-path="url(#p8b41125b8c)" d="M 73.832727 214.4448 
L 81.949091 298.840117 
L 90.065455 304.354529 
L 98.181818 305.588959 
L 106.298182 306.146715 
L 114.414545 306.466537 
L 122.530909 306.673169 
L 130.647273 306.817157 
L 138.763636 306.922933 
L 146.88 307.00374 
L 154.996364 307.06737 
L 163.112727 307.118698 
L 171.229091 307.16093 
L 179.345455 307.196252 
L 187.461818 307.22621 
L 195.578182 307.251924 
L 203.694545 307.274224 
L 211.810909 307.293739 
L 219.927273 307.310955 
L 228.043636 307.326251 
L 236.16 303.176355 
L 244.276364 152.536366 
L 252.392727 74.367248 
L 260.509091 61.111932 
L 268.625455 56.099583 
L 276.741818 251.473338 
L 284.858182 79.931444 
L 292.974545 56.997963 
L 301.090909 54.156797 
L 309.207273 52.69415 
L 317.323636 51.579044 
L 325.44 50.680403 
L 333.556364 226.260232 
L 341.672727 68.874054 
L 349.789091 52.32952 
L 357.905455 50.888806 
L 366.021818 50.264859 
L 374.138182 79.742989 
L 382.254545 264.160459 
L 390.370909 84.123369 
" style="fill:none;stroke:#ff0000;stroke-linecap:square;stroke-opacity:0.1;stroke-width:1.5;"/>
   </g>
   <g id="line2d_38">
    <path clip-path="url(#p8b41125b8c)" d="M 73.832727 214.4448 
L 81.949091 298.840117 
L 90.065455 304.354529 
L 98.181818 305.588959 
L 106.298182 306.146715 
L 114.414545 306.466537 
L 122.530909 306.673169 
L 130.647273 306.817157 
L 138.763636 306.922933 
L 146.88 307.00374 
L 154.996364 307.06737 
L 163.112727 307.118698 
L 171.229091 307.16093 
L 179.345455 307.196252 
L 187.461818 197.591133 
L 195.578182 301.235439 
L 203.694545 306.456369 
L 211.810909 306.799277 
L 219.927273 197.938321 
L 228.043636 299.489409 
L 236.16 292.104179 
L 244.276364 182.479924 
L 252.392727 109.958527 
L 260.509091 83.827443 
L 268.625455 72.436 
L 276.741818 65.990327 
L 284.858182 257.866558 
L 292.974545 125.239605 
L 301.090909 76.072255 
L 309.207273 65.746052 
L 317.323636 244.4056 
L 325.44 120.332816 
L 333.556364 261.634334 
L 341.672727 143.237401 
L 349.789091 87.766626 
L 357.905455 73.333223 
L 366.021818 233.164981 
L 374.138182 127.034789 
L 382.254545 85.872991 
L 390.370909 233.518175 
" style="fill:none;stroke:#ff0000;stroke-linecap:square;stroke-opacity:0.1;stroke-width:1.5;"/>
   </g>
   <g id="line2d_39">
    <path clip-path="url(#p8b41125b8c)" d="M 73.832727 214.4448 
L 81.949091 298.840117 
L 90.065455 304.354529 
L 98.181818 305.588959 
L 106.298182 306.146715 
L 114.414545 306.466537 
L 122.530909 306.673169 
L 130.647273 306.817157 
L 138.763636 306.922933 
L 146.88 307.00374 
L 154.996364 307.06737 
L 163.112727 198.526162 
L 171.229091 300.961027 
L 179.345455 306.206998 
L 187.461818 306.584789 
L 195.578182 306.680345 
L 203.694545 306.746771 
L 211.810909 306.803246 
L 219.927273 306.852614 
L 228.043636 306.896177 
L 236.16 299.571997 
L 244.276364 158.782977 
L 252.392727 81.995319 
L 260.509091 65.688551 
L 268.625455 59.537163 
L 276.741818 56.049497 
L 284.858182 250.870866 
L 292.974545 89.298015 
L 301.090909 58.672025 
L 309.207273 55.021419 
L 317.323636 232.941097 
L 325.44 85.098536 
L 333.556364 58.113723 
L 341.672727 54.918376 
L 349.789091 53.739048 
L 357.905455 52.841197 
L 366.021818 52.077228 
L 374.138182 51.415227 
L 382.254545 86.785556 
L 390.370909 53.311093 
" style="fill:none;stroke:#ff0000;stroke-linecap:square;stroke-opacity:0.1;stroke-width:1.5;"/>
   </g>
   <g id="line2d_40">
    <path clip-path="url(#p8b41125b8c)" d="M 73.832727 214.4448 
L 81.949091 86.800505 
L 90.065455 262.432683 
L 98.181818 293.075888 
L 106.298182 136.279397 
L 114.414545 265.765245 
L 122.530909 289.661693 
L 130.647273 294.963129 
L 138.763636 159.963471 
L 146.88 268.030317 
L 154.996364 288.308196 
L 163.112727 292.685041 
L 171.229091 294.519142 
L 179.345455 172.739584 
L 187.461818 269.679845 
L 195.578182 287.898693 
L 203.694545 178.951545 
L 211.810909 267.010988 
L 219.927273 284.174733 
L 228.043636 185.560921 
L 236.16 221.536961 
L 244.276364 159.098875 
L 252.392727 137.529153 
L 260.509091 128.318719 
L 268.625455 250.992841 
L 276.741818 170.292883 
L 284.858182 143.27197 
L 292.974545 249.067546 
L 301.090909 174.239161 
L 309.207273 150.35013 
L 317.323636 142.243727 
L 325.44 138.182454 
L 333.556364 135.178803 
L 341.672727 132.519374 
L 349.789091 244.479594 
L 357.905455 167.223173 
L 366.021818 145.415571 
L 374.138182 242.922285 
L 382.254545 170.277689 
L 390.370909 150.555415 
" style="fill:none;stroke:#ff0000;stroke-linecap:square;stroke-opacity:0.1;stroke-width:1.5;"/>
   </g>
   <g id="line2d_41">
    <path clip-path="url(#p8b41125b8c)" d="M 73.832727 214.4448 
L 81.949091 86.800505 
L 90.065455 262.432683 
L 98.181818 293.075888 
L 106.298182 299.298932 
L 114.414545 301.688883 
L 122.530909 155.430993 
L 130.647273 277.236764 
L 138.763636 296.548059 
L 146.88 299.826947 
L 154.996364 301.01244 
L 163.112727 301.787501 
L 171.229091 302.390072 
L 179.345455 302.879717 
L 187.461818 303.285798 
L 195.578182 303.627663 
L 203.694545 303.919115 
L 211.810909 304.170321 
L 219.927273 304.388924 
L 228.043636 170.096198 
L 236.16 219.640221 
L 244.276364 107.132879 
L 252.392727 78.035185 
L 260.509091 69.600004 
L 268.625455 64.997477 
L 276.741818 246.311559 
L 284.858182 109.928275 
L 292.974545 256.160008 
L 301.090909 125.944729 
L 309.207273 79.999053 
L 317.323636 70.226262 
L 325.44 230.055793 
L 333.556364 114.736999 
L 341.672727 245.017612 
L 349.789091 130.732396 
L 357.905455 87.673718 
L 366.021818 76.819141 
L 374.138182 221.563423 
L 382.254545 121.199718 
L 390.370909 87.157248 
" style="fill:none;stroke:#ff0000;stroke-linecap:square;stroke-opacity:0.1;stroke-width:1.5;"/>
   </g>
   <g id="line2d_42">
    <path clip-path="url(#p8b41125b8c)" d="M 73.832727 214.4448 
L 81.949091 298.840117 
L 90.065455 304.354529 
L 98.181818 173.836337 
L 106.298182 293.774848 
L 114.414545 302.566383 
L 122.530909 303.959659 
L 130.647273 304.629148 
L 138.763636 190.49144 
L 146.88 294.089168 
L 154.996364 302.539214 
L 163.112727 303.637555 
L 171.229091 197.546735 
L 179.345455 292.693545 
L 187.461818 301.446172 
L 195.578182 202.67225 
L 203.694545 290.733399 
L 211.810909 299.768877 
L 219.927273 207.790708 
L 228.043636 289.070067 
L 236.16 273.696067 
L 244.276364 200.891079 
L 252.392727 167.902913 
L 260.509091 279.309895 
L 268.625455 207.682045 
L 276.741818 281.986627 
L 284.858182 291.731289 
L 292.974545 293.510459 
L 301.090909 218.490457 
L 309.207273 186.917392 
L 317.323636 276.92071 
L 325.44 214.488783 
L 333.556364 191.817069 
L 341.672727 183.584595 
L 349.789091 179.57292 
L 357.905455 272.484439 
L 366.021818 212.416558 
L 374.138182 274.920393 
L 382.254545 216.571815 
L 390.370909 198.864233 
" style="fill:none;stroke:#ff0000;stroke-linecap:square;stroke-opacity:0.1;stroke-width:1.5;"/>
   </g>
   <g id="line2d_43">
    <path clip-path="url(#p8b41125b8c)" d="M 73.832727 214.4448 
L 81.949091 298.840117 
L 90.065455 304.354529 
L 98.181818 173.836337 
L 106.298182 293.774848 
L 114.414545 302.566383 
L 122.530909 303.959659 
L 130.647273 304.629148 
L 138.763636 305.086037 
L 146.88 191.888045 
L 154.996364 294.99965 
L 163.112727 187.464454 
L 171.229091 290.797634 
L 179.345455 300.783703 
L 187.461818 201.731569 
L 195.578182 145.820088 
L 203.694545 278.957434 
L 211.810909 190.418961 
L 219.927273 281.56866 
L 228.043636 293.863566 
L 236.16 269.233147 
L 244.276364 293.173497 
L 252.392727 203.468694 
L 260.509091 162.098409 
L 268.625455 274.167838 
L 276.741818 198.198493 
L 284.858182 276.626608 
L 292.974545 204.805402 
L 301.090909 274.998909 
L 309.207273 285.671657 
L 317.323636 213.126305 
L 325.44 186.170626 
L 333.556364 176.667908 
L 341.672727 172.237548 
L 349.789091 169.218494 
L 357.905455 166.628546 
L 366.021818 164.211849 
L 374.138182 161.902403 
L 382.254545 159.682825 
L 390.370909 157.547814 
" style="fill:none;stroke:#ff0000;stroke-linecap:square;stroke-opacity:0.1;stroke-width:1.5;"/>
   </g>
   <g id="line2d_44">
    <path clip-path="url(#p8b41125b8c)" d="M 73.832727 214.4448 
L 81.949091 298.840117 
L 90.065455 154.108101 
L 98.181818 287.997256 
L 106.298182 300.024132 
L 114.414545 174.211986 
L 122.530909 285.809342 
L 130.647273 174.54873 
L 138.763636 130.199747 
L 146.88 268.207743 
L 154.996364 288.395356 
L 163.112727 292.475566 
L 171.229091 294.371692 
L 179.345455 295.760147 
L 187.461818 186.325446 
L 195.578182 278.503692 
L 203.694545 184.390569 
L 211.810909 147.20738 
L 219.927273 265.307683 
L 228.043636 183.718285 
L 236.16 220.448013 
L 244.276364 167.991373 
L 252.392727 151.129348 
L 260.509091 144.196999 
L 268.625455 255.174088 
L 276.741818 180.200042 
L 284.858182 157.914881 
L 292.974545 252.759547 
L 301.090909 268.892481 
L 309.207273 188.937899 
L 317.323636 166.173393 
L 325.44 159.400335 
L 333.556364 156.424461 
L 341.672727 154.355695 
L 349.789091 152.544653 
L 357.905455 150.846825 
L 366.021818 249.60642 
L 374.138182 264.753551 
L 382.254545 182.318614 
L 390.370909 251.877183 
" style="fill:none;stroke:#ff0000;stroke-linecap:square;stroke-opacity:0.1;stroke-width:1.5;"/>
   </g>
   <g id="line2d_45">
    <path clip-path="url(#p8b41125b8c)" d="M 73.832727 214.4448 
L 81.949091 298.840117 
L 90.065455 304.354529 
L 98.181818 305.588959 
L 106.298182 306.146715 
L 114.414545 306.466537 
L 122.530909 306.673169 
L 130.647273 306.817157 
L 138.763636 306.922933 
L 146.88 307.00374 
L 154.996364 198.47048 
L 163.112727 300.788006 
L 171.229091 185.123941 
L 179.345455 296.87415 
L 187.461818 304.775227 
L 195.578182 305.509854 
L 203.694545 305.709366 
L 211.810909 201.673794 
L 219.927273 119.94466 
L 228.043636 281.784026 
L 236.16 275.075814 
L 244.276364 161.792936 
L 252.392727 106.615139 
L 260.509091 87.798092 
L 268.625455 261.910134 
L 276.741818 150.179008 
L 284.858182 272.342957 
L 292.974545 168.168992 
L 301.090909 115.90388 
L 309.207273 256.861758 
L 317.323636 164.07909 
L 325.44 121.402967 
L 333.556364 252.808663 
L 341.672727 167.593457 
L 349.789091 262.125096 
L 357.905455 179.403754 
L 366.021818 140.554578 
L 374.138182 125.346153 
L 382.254545 246.448287 
L 390.370909 276.796442 
" style="fill:none;stroke:#ff0000;stroke-linecap:square;stroke-opacity:0.1;stroke-width:1.5;"/>
   </g>
   <g id="line2d_46">
    <path clip-path="url(#p8b41125b8c)" d="M 73.832727 214.4448 
L 81.949091 86.800505 
L 90.065455 262.432683 
L 98.181818 293.075888 
L 106.298182 299.298932 
L 114.414545 148.475342 
L 122.530909 272.915409 
L 130.647273 293.90945 
L 138.763636 161.48996 
L 146.88 269.954508 
L 154.996364 289.737496 
L 163.112727 293.885708 
L 171.229091 174.512151 
L 179.345455 120.740386 
L 187.461818 102.250591 
L 195.578182 246.392839 
L 203.694545 149.962181 
L 211.810909 115.638733 
L 219.927273 241.851817 
L 228.043636 272.473692 
L 236.16 237.83708 
L 244.276364 147.063331 
L 252.392727 117.621463 
L 260.509091 238.648798 
L 268.625455 152.51962 
L 276.741818 124.993852 
L 284.858182 115.874259 
L 292.974545 232.922784 
L 301.090909 152.283493 
L 309.207273 127.850942 
L 317.323636 120.024469 
L 325.44 116.243456 
L 333.556364 113.48489 
L 341.672727 111.063889 
L 349.789091 108.823819 
L 357.905455 106.724266 
L 366.021818 104.750139 
L 374.138182 102.892002 
L 382.254545 156.848049 
L 390.370909 250.701477 
" style="fill:none;stroke:#ff0000;stroke-linecap:square;stroke-opacity:0.1;stroke-width:1.5;"/>
   </g>
   <g id="line2d_47">
    <path clip-path="url(#p8b41125b8c)" d="M 73.832727 214.4448 
L 81.949091 298.840117 
L 90.065455 304.354529 
L 98.181818 305.588959 
L 106.298182 306.146715 
L 114.414545 306.466537 
L 122.530909 306.673169 
L 130.647273 306.817157 
L 138.763636 306.922933 
L 146.88 307.00374 
L 154.996364 198.47048 
L 163.112727 300.788006 
L 171.229091 306.085375 
L 179.345455 306.484183 
L 187.461818 199.07879 
L 195.578182 298.986225 
L 203.694545 189.707448 
L 211.810909 116.573899 
L 219.927273 281.100989 
L 228.043636 301.419999 
L 236.16 285.179992 
L 244.276364 170.621824 
L 252.392727 108.875589 
L 260.509091 88.207071 
L 268.625455 78.726272 
L 276.741818 72.699783 
L 284.858182 254.210307 
L 292.974545 132.701331 
L 301.090909 86.042052 
L 309.207273 249.539938 
L 317.323636 291.252156 
L 325.44 176.259946 
L 333.556364 107.363405 
L 341.672727 86.058923 
L 349.789091 79.098221 
L 357.905455 238.659466 
L 366.021818 135.775096 
L 374.138182 95.254121 
L 382.254545 83.247794 
L 390.370909 78.798971 
" style="fill:none;stroke:#ff0000;stroke-linecap:square;stroke-opacity:0.1;stroke-width:1.5;"/>
   </g>
   <g id="line2d_48">
    <path clip-path="url(#p8b41125b8c)" d="M 73.832727 214.4448 
L 81.949091 298.840117 
L 90.065455 304.354529 
L 98.181818 173.836337 
L 106.298182 293.774848 
L 114.414545 302.566383 
L 122.530909 183.969682 
L 130.647273 290.995993 
L 138.763636 182.930812 
L 146.88 285.969129 
L 154.996364 297.027474 
L 163.112727 299.047234 
L 171.229091 197.731306 
L 179.345455 149.275025 
L 187.461818 276.186175 
L 195.578182 292.687446 
L 203.694545 198.994464 
L 211.810909 280.050582 
L 219.927273 290.995276 
L 228.043636 293.170286 
L 236.16 266.074082 
L 244.276364 182.290761 
L 252.392727 150.566287 
L 260.509091 137.708419 
L 268.625455 129.812748 
L 276.741818 123.436474 
L 284.858182 264.249463 
L 292.974545 174.210443 
L 301.090909 141.881611 
L 309.207273 130.608264 
L 317.323636 259.625685 
L 325.44 281.359382 
L 333.556364 185.105712 
L 341.672727 149.950515 
L 349.789091 138.364871 
L 357.905455 133.338423 
L 366.021818 130.063401 
L 374.138182 255.584837 
L 382.254545 172.319908 
L 390.370909 145.874319 
" style="fill:none;stroke:#ff0000;stroke-linecap:square;stroke-opacity:0.1;stroke-width:1.5;"/>
   </g>
   <g id="line2d_49">
    <path clip-path="url(#p8b41125b8c)" d="M 73.832727 214.4448 
L 81.949091 298.840117 
L 90.065455 304.354529 
L 98.181818 305.588959 
L 106.298182 306.146715 
L 114.414545 306.466537 
L 122.530909 306.673169 
L 130.647273 306.817157 
L 138.763636 306.922933 
L 146.88 198.111194 
L 154.996364 300.549907 
L 163.112727 305.933235 
L 171.229091 306.360954 
L 179.345455 306.490228 
L 187.461818 306.582796 
L 195.578182 198.148555 
L 203.694545 299.081498 
L 211.810909 305.45704 
L 219.927273 305.986571 
L 228.043636 306.116356 
L 236.16 295.426687 
L 244.276364 167.778702 
L 252.392727 95.088871 
L 260.509091 74.433993 
L 268.625455 265.820057 
L 276.741818 130.059232 
L 284.858182 273.583182 
L 292.974545 149.3926 
L 301.090909 91.076788 
L 309.207273 76.287855 
L 317.323636 70.677494 
L 325.44 67.10406 
L 333.556364 240.087268 
L 341.672727 292.005687 
L 349.789091 168.625344 
L 357.905455 92.564536 
L 366.021818 243.658213 
L 374.138182 131.722353 
L 382.254545 254.792183 
L 390.370909 289.050268 
" style="fill:none;stroke:#ff0000;stroke-linecap:square;stroke-opacity:0.1;stroke-width:1.5;"/>
   </g>
   <g id="line2d_50">
    <path clip-path="url(#p8b41125b8c)" d="M 73.832727 214.4448 
L 81.949091 298.840117 
L 90.065455 304.354529 
L 98.181818 305.588959 
L 106.298182 306.146715 
L 114.414545 189.945053 
L 122.530909 298.106681 
L 130.647273 304.631612 
L 138.763636 305.377398 
L 146.88 195.240423 
L 154.996364 296.373709 
L 163.112727 303.683665 
L 171.229091 304.526341 
L 179.345455 304.855352 
L 187.461818 305.099886 
L 195.578182 305.3037 
L 203.694545 305.477471 
L 211.810909 305.627326 
L 219.927273 305.757753 
L 228.043636 305.872197 
L 236.16 294.111929 
L 244.276364 163.990314 
L 252.392727 94.287484 
L 260.509091 74.392733 
L 268.625455 66.124836 
L 276.741818 61.329594 
L 284.858182 58.121601 
L 292.974545 55.816779 
L 301.090909 54.081869 
L 309.207273 52.730183 
L 317.323636 51.648399 
L 325.44 246.610484 
L 333.556364 300.602155 
L 341.672727 151.765662 
L 349.789091 65.485518 
L 357.905455 243.097536 
L 366.021818 99.218681 
L 374.138182 60.778494 
L 382.254545 55.441923 
L 390.370909 54.131139 
" style="fill:none;stroke:#ff0000;stroke-linecap:square;stroke-opacity:0.1;stroke-width:1.5;"/>
   </g>
   <g id="line2d_51">
    <path clip-path="url(#p8b41125b8c)" d="M 73.832727 214.4448 
L 81.949091 298.840117 
L 90.065455 154.108101 
L 98.181818 287.997256 
L 106.298182 300.024132 
L 114.414545 302.369719 
L 122.530909 303.506798 
L 130.647273 184.708831 
L 138.763636 290.883155 
L 146.88 300.924717 
L 154.996364 302.419286 
L 163.112727 303.0761 
L 171.229091 303.557736 
L 179.345455 194.087724 
L 187.461818 291.365367 
L 195.578182 301.111857 
L 203.694545 302.387669 
L 211.810909 302.841359 
L 219.927273 303.174513 
L 228.043636 198.803748 
L 236.16 244.747428 
L 244.276364 295.757724 
L 252.392727 196.320523 
L 260.509091 142.410349 
L 268.625455 120.116981 
L 276.741818 107.681565 
L 284.858182 98.703549 
L 292.974545 263.651743 
L 301.090909 293.096295 
L 309.207273 187.008067 
L 317.323636 129.276085 
L 325.44 108.685944 
L 333.556364 258.318197 
L 341.672727 165.84534 
L 349.789091 125.719212 
L 357.905455 257.194659 
L 366.021818 170.827314 
L 374.138182 133.749645 
L 382.254545 120.058533 
L 390.370909 251.254741 
" style="fill:none;stroke:#ff0000;stroke-linecap:square;stroke-opacity:0.1;stroke-width:1.5;"/>
   </g>
   <g id="line2d_52">
    <path clip-path="url(#p8b41125b8c)" d="M 73.832727 214.4448 
L 81.949091 298.840117 
L 90.065455 304.354529 
L 98.181818 305.588959 
L 106.298182 306.146715 
L 114.414545 306.466537 
L 122.530909 306.673169 
L 130.647273 306.817157 
L 138.763636 306.922933 
L 146.88 307.00374 
L 154.996364 198.47048 
L 163.112727 300.788006 
L 171.229091 306.085375 
L 179.345455 306.484183 
L 187.461818 306.594335 
L 195.578182 306.672199 
L 203.694545 306.737927 
L 211.810909 306.794899 
L 219.927273 196.581083 
L 228.043636 299.403005 
L 236.16 291.94937 
L 244.276364 305.465198 
L 252.392727 196.486698 
L 260.509091 110.40818 
L 268.625455 82.065071 
L 276.741818 270.088689 
L 284.858182 300.875188 
L 292.974545 189.745182 
L 301.090909 105.301619 
L 309.207273 266.400228 
L 317.323636 154.917647 
L 325.44 100.79354 
L 333.556364 84.325965 
L 341.672727 77.516772 
L 349.789091 246.796772 
L 357.905455 137.018961 
L 366.021818 92.166074 
L 374.138182 79.615591 
L 382.254545 74.848843 
L 390.370909 71.87767 
" style="fill:none;stroke:#ff0000;stroke-linecap:square;stroke-opacity:0.1;stroke-width:1.5;"/>
   </g>
   <g id="line2d_53">
    <path clip-path="url(#p8b41125b8c)" d="M 73.832727 214.4448 
L 81.949091 86.800505 
L 90.065455 262.432683 
L 98.181818 109.975787 
L 106.298182 252.560685 
L 114.414545 283.10192 
L 122.530909 140.106967 
L 130.647273 95.068169 
L 138.763636 235.065145 
L 146.88 270.489917 
L 154.996364 279.739554 
L 163.112727 283.808795 
L 171.229091 154.265503 
L 179.345455 251.346977 
L 187.461818 273.938051 
L 195.578182 279.768079 
L 203.694545 282.322769 
L 211.810909 284.118018 
L 219.927273 285.619445 
L 228.043636 286.931261 
L 236.16 252.275051 
L 244.276364 137.344146 
L 252.392727 102.991584 
L 260.509091 92.601337 
L 268.625455 238.522889 
L 276.741818 274.978931 
L 284.858182 152.123272 
L 292.974545 109.685054 
L 301.090909 97.896559 
L 309.207273 92.634443 
L 317.323636 231.329227 
L 325.44 133.123744 
L 333.556364 103.764717 
L 341.672727 95.443112 
L 349.789091 91.59417 
L 357.905455 88.771244 
L 366.021818 86.315344 
L 374.138182 84.090648 
L 382.254545 227.33869 
L 390.370909 123.479456 
" style="fill:none;stroke:#ff0000;stroke-linecap:square;stroke-opacity:0.1;stroke-width:1.5;"/>
   </g>
   <g id="line2d_54">
    <path clip-path="url(#p8b41125b8c)" d="M 73.832727 214.4448 
L 81.949091 298.840117 
L 90.065455 304.354529 
L 98.181818 305.588959 
L 106.298182 306.146715 
L 114.414545 306.466537 
L 122.530909 306.673169 
L 130.647273 306.817157 
L 138.763636 306.922933 
L 146.88 307.00374 
L 154.996364 198.47048 
L 163.112727 300.788006 
L 171.229091 185.123941 
L 179.345455 296.87415 
L 187.461818 304.775227 
L 195.578182 201.499904 
L 203.694545 124.621848 
L 211.810909 94.242928 
L 219.927273 271.171811 
L 228.043636 299.100017 
L 236.16 279.890677 
L 244.276364 162.490216 
L 252.392727 103.325803 
L 260.509091 85.003284 
L 268.625455 77.107484 
L 276.741818 72.072466 
L 284.858182 68.299276 
L 292.974545 65.320112 
L 301.090909 62.910714 
L 309.207273 247.117687 
L 317.323636 117.930887 
L 325.44 74.738306 
L 333.556364 65.644312 
L 341.672727 62.900971 
L 349.789091 238.051323 
L 357.905455 115.713094 
L 366.021818 75.09169 
L 374.138182 66.135769 
L 382.254545 231.940362 
L 390.370909 117.208093 
" style="fill:none;stroke:#ff0000;stroke-linecap:square;stroke-opacity:0.1;stroke-width:1.5;"/>
   </g>
   <g id="line2d_55">
    <path clip-path="url(#p8b41125b8c)" d="M 73.832727 214.4448 
L 81.949091 86.800505 
L 90.065455 262.432683 
L 98.181818 293.075888 
L 106.298182 136.279397 
L 114.414545 84.406871 
L 122.530909 242.478656 
L 130.647273 281.696458 
L 138.763636 290.48532 
L 146.88 293.864895 
L 154.996364 295.938324 
L 163.112727 297.455871 
L 171.229091 298.633033 
L 179.345455 299.572678 
L 187.461818 160.523339 
L 195.578182 270.708498 
L 203.694545 292.768626 
L 211.810909 296.780443 
L 219.927273 297.951676 
L 228.043636 298.639786 
L 236.16 273.193131 
L 244.276364 136.814555 
L 252.392727 88.443149 
L 260.509091 246.211398 
L 268.625455 129.84347 
L 276.741818 252.96521 
L 284.858182 143.021948 
L 292.974545 101.672473 
L 301.090909 236.781627 
L 309.207273 276.574784 
L 317.323636 166.093162 
L 325.44 116.631765 
L 333.556364 236.004589 
L 341.672727 150.056194 
L 349.789091 117.318033 
L 357.905455 232.045059 
L 366.021818 152.838745 
L 374.138182 122.981142 
L 382.254545 112.599346 
L 390.370909 107.661314 
" style="fill:none;stroke:#ff0000;stroke-linecap:square;stroke-opacity:0.1;stroke-width:1.5;"/>
   </g>
   <g id="line2d_56">
    <path clip-path="url(#p8b41125b8c)" d="M 73.832727 147.9168 
L 81.949091 117.457746 
L 90.065455 83.789454 
L 98.181818 90.296352 
L 106.298182 76.678561 
L 114.414545 89.428485 
L 122.530909 83.366539 
L 130.647273 80.198294 
L 138.763636 101.954784 
L 146.88 82.218596 
L 154.996364 85.032872 
L 163.112727 69.940637 
L 171.229091 95.808959 
L 179.345455 88.734233 
L 187.461818 108.914034 
L 195.578182 100.109875 
L 203.694545 102.245521 
L 211.810909 108.720569 
L 219.927273 94.817241 
L 228.043636 87.185115 
L 236.16 93.091448 
L 244.276364 194.201504 
L 252.392727 251.130776 
L 260.509091 247.836648 
L 268.625455 222.912719 
L 276.741818 201.385277 
L 284.858182 184.111972 
L 292.974545 206.287381 
L 301.090909 228.905124 
L 309.207273 203.46896 
L 317.323636 204.464073 
L 325.44 219.306504 
L 333.556364 189.341179 
L 341.672727 225.422041 
L 349.789091 226.688588 
L 357.905455 220.27067 
L 366.021818 232.179207 
L 374.138182 228.580749 
L 382.254545 212.593679 
L 390.370909 212.878054 
" style="fill:none;stroke:#1f77b4;stroke-linecap:square;stroke-width:1.5;"/>
   </g>
   <g id="line2d_57">
    <path clip-path="url(#p8b41125b8c)" d="M 73.832727 214.4448 
L 81.949091 245.830214 
L 90.065455 278.849425 
L 98.181818 271.783623 
L 106.298182 283.327865 
L 114.414545 270.79315 
L 122.530909 276.998203 
L 130.647273 278.418592 
L 138.763636 260.061522 
L 146.88 279.292202 
L 154.996364 277.893161 
L 163.112727 289.35315 
L 171.229091 266.163773 
L 179.345455 271.25074 
L 187.461818 255.158206 
L 195.578182 262.471101 
L 203.694545 259.886737 
L 211.810909 252.106352 
L 219.927273 268.016821 
L 228.043636 274.247072 
L 236.16 269.321348 
L 244.276364 180.817776 
L 252.392727 122.90775 
L 260.509091 122.342097 
L 268.625455 145.562227 
L 276.741818 167.235591 
L 284.858182 184.519043 
L 292.974545 162.355925 
L 301.090909 137.772741 
L 309.207273 163.457808 
L 317.323636 163.52955 
L 325.44 149.154538 
L 333.556364 178.054871 
L 341.672727 141.947039 
L 349.789091 140.566127 
L 357.905455 146.229995 
L 366.021818 134.374162 
L 374.138182 137.59007 
L 382.254545 154.502652 
L 390.370909 152.465942 
" style="fill:none;stroke:#ff0000;stroke-linecap:square;stroke-width:1.5;"/>
   </g>
   <g id="patch_5">
    <path d="M 57.6 307.584 
L 57.6 41.472 
" style="fill:none;stroke:#000000;stroke-linecap:square;stroke-linejoin:miter;stroke-width:0.8;"/>
   </g>
   <g id="patch_6">
    <path d="M 414.72 307.584 
L 414.72 41.472 
" style="fill:none;stroke:#000000;stroke-linecap:square;stroke-linejoin:miter;stroke-width:0.8;"/>
   </g>
   <g id="patch_7">
    <path d="M 57.6 307.584 
L 414.72 307.584 
" style="fill:none;stroke:#000000;stroke-linecap:square;stroke-linejoin:miter;stroke-width:0.8;"/>
   </g>
   <g id="patch_8">
    <path d="M 57.6 41.472 
L 414.72 41.472 
" style="fill:none;stroke:#000000;stroke-linecap:square;stroke-linejoin:miter;stroke-width:0.8;"/>
   </g>
   <g id="text_18">
    <!-- Player1_healthy -->
    <g transform="translate(188.127187 35.472)scale(0.12 -0.12)">
     <defs>
      <path d="M 1259 4147 
L 1259 2394 
L 2053 2394 
Q 2494 2394 2734 2622 
Q 2975 2850 2975 3272 
Q 2975 3691 2734 3919 
Q 2494 4147 2053 4147 
L 1259 4147 
z
M 628 4666 
L 2053 4666 
Q 2838 4666 3239 4311 
Q 3641 3956 3641 3272 
Q 3641 2581 3239 2228 
Q 2838 1875 2053 1875 
L 1259 1875 
L 1259 0 
L 628 0 
L 628 4666 
z
" id="DejaVuSans-50" transform="scale(0.015625)"/>
      <path d="M 603 4863 
L 1178 4863 
L 1178 0 
L 603 0 
L 603 4863 
z
" id="DejaVuSans-6c" transform="scale(0.015625)"/>
      <path d="M 2194 1759 
Q 1497 1759 1228 1600 
Q 959 1441 959 1056 
Q 959 750 1161 570 
Q 1363 391 1709 391 
Q 2188 391 2477 730 
Q 2766 1069 2766 1631 
L 2766 1759 
L 2194 1759 
z
M 3341 1997 
L 3341 0 
L 2766 0 
L 2766 531 
Q 2569 213 2275 61 
Q 1981 -91 1556 -91 
Q 1019 -91 701 211 
Q 384 513 384 1019 
Q 384 1609 779 1909 
Q 1175 2209 1959 2209 
L 2766 2209 
L 2766 2266 
Q 2766 2663 2505 2880 
Q 2244 3097 1772 3097 
Q 1472 3097 1187 3025 
Q 903 2953 641 2809 
L 641 3341 
Q 956 3463 1253 3523 
Q 1550 3584 1831 3584 
Q 2591 3584 2966 3190 
Q 3341 2797 3341 1997 
z
" id="DejaVuSans-61" transform="scale(0.015625)"/>
      <path d="M 2059 -325 
Q 1816 -950 1584 -1140 
Q 1353 -1331 966 -1331 
L 506 -1331 
L 506 -850 
L 844 -850 
Q 1081 -850 1212 -737 
Q 1344 -625 1503 -206 
L 1606 56 
L 191 3500 
L 800 3500 
L 1894 763 
L 2988 3500 
L 3597 3500 
L 2059 -325 
z
" id="DejaVuSans-79" transform="scale(0.015625)"/>
      <path d="M 2631 2963 
Q 2534 3019 2420 3045 
Q 2306 3072 2169 3072 
Q 1681 3072 1420 2755 
Q 1159 2438 1159 1844 
L 1159 0 
L 581 0 
L 581 3500 
L 1159 3500 
L 1159 2956 
Q 1341 3275 1631 3429 
Q 1922 3584 2338 3584 
Q 2397 3584 2469 3576 
Q 2541 3569 2628 3553 
L 2631 2963 
z
" id="DejaVuSans-72" transform="scale(0.015625)"/>
      <path d="M 3263 -1063 
L 3263 -1509 
L -63 -1509 
L -63 -1063 
L 3263 -1063 
z
" id="DejaVuSans-5f" transform="scale(0.015625)"/>
      <path d="M 3513 2113 
L 3513 0 
L 2938 0 
L 2938 2094 
Q 2938 2591 2744 2837 
Q 2550 3084 2163 3084 
Q 1697 3084 1428 2787 
Q 1159 2491 1159 1978 
L 1159 0 
L 581 0 
L 581 4863 
L 1159 4863 
L 1159 2956 
Q 1366 3272 1645 3428 
Q 1925 3584 2291 3584 
Q 2894 3584 3203 3211 
Q 3513 2838 3513 2113 
z
" id="DejaVuSans-68" transform="scale(0.015625)"/>
     </defs>
     <use xlink:href="#DejaVuSans-50"/>
     <use x="60.302734" xlink:href="#DejaVuSans-6c"/>
     <use x="88.085938" xlink:href="#DejaVuSans-61"/>
     <use x="149.365234" xlink:href="#DejaVuSans-79"/>
     <use x="208.544922" xlink:href="#DejaVuSans-65"/>
     <use x="270.068359" xlink:href="#DejaVuSans-72"/>
     <use x="311.181641" xlink:href="#DejaVuSans-31"/>
     <use x="374.804688" xlink:href="#DejaVuSans-5f"/>
     <use x="424.804688" xlink:href="#DejaVuSans-68"/>
     <use x="488.183594" xlink:href="#DejaVuSans-65"/>
     <use x="549.707031" xlink:href="#DejaVuSans-61"/>
     <use x="610.986328" xlink:href="#DejaVuSans-6c"/>
     <use x="638.769531" xlink:href="#DejaVuSans-74"/>
     <use x="677.978516" xlink:href="#DejaVuSans-68"/>
     <use x="741.357422" xlink:href="#DejaVuSans-79"/>
    </g>
   </g>
   <g id="legend_1">
    <g id="patch_9">
     <path d="M 64.6 190.706125 
L 120.684375 190.706125 
Q 122.684375 190.706125 122.684375 188.706125 
L 122.684375 160.349875 
Q 122.684375 158.349875 120.684375 158.349875 
L 64.6 158.349875 
Q 62.6 158.349875 62.6 160.349875 
L 62.6 188.706125 
Q 62.6 190.706125 64.6 190.706125 
z
" style="fill:#ffffff;opacity:0.8;stroke:#cccccc;stroke-linejoin:miter;"/>
    </g>
    <g id="line2d_58">
     <path d="M 66.6 166.448312 
L 86.6 166.448312 
" style="fill:none;stroke:#1f77b4;stroke-linecap:square;stroke-width:1.5;"/>
    </g>
    <g id="line2d_59"/>
    <g id="text_19">
     <!-- coop -->
     <g transform="translate(94.6 169.948312)scale(0.1 -0.1)">
      <use xlink:href="#DejaVuSans-63"/>
      <use x="54.980469" xlink:href="#DejaVuSans-6f"/>
      <use x="116.162109" xlink:href="#DejaVuSans-6f"/>
      <use x="177.34375" xlink:href="#DejaVuSans-70"/>
     </g>
    </g>
    <g id="line2d_60">
     <path d="M 66.6 181.126437 
L 86.6 181.126437 
" style="fill:none;stroke:#ff0000;stroke-linecap:square;stroke-width:1.5;"/>
    </g>
    <g id="line2d_61"/>
    <g id="text_20">
     <!-- host -->
     <g transform="translate(94.6 184.626437)scale(0.1 -0.1)">
      <defs>
       <path d="M 2834 3397 
L 2834 2853 
Q 2591 2978 2328 3040 
Q 2066 3103 1784 3103 
Q 1356 3103 1142 2972 
Q 928 2841 928 2578 
Q 928 2378 1081 2264 
Q 1234 2150 1697 2047 
L 1894 2003 
Q 2506 1872 2764 1633 
Q 3022 1394 3022 966 
Q 3022 478 2636 193 
Q 2250 -91 1575 -91 
Q 1294 -91 989 -36 
Q 684 19 347 128 
L 347 722 
Q 666 556 975 473 
Q 1284 391 1588 391 
Q 1994 391 2212 530 
Q 2431 669 2431 922 
Q 2431 1156 2273 1281 
Q 2116 1406 1581 1522 
L 1381 1569 
Q 847 1681 609 1914 
Q 372 2147 372 2553 
Q 372 3047 722 3315 
Q 1072 3584 1716 3584 
Q 2034 3584 2315 3537 
Q 2597 3491 2834 3397 
z
" id="DejaVuSans-73" transform="scale(0.015625)"/>
      </defs>
      <use xlink:href="#DejaVuSans-68"/>
      <use x="63.378906" xlink:href="#DejaVuSans-6f"/>
      <use x="124.560547" xlink:href="#DejaVuSans-73"/>
      <use x="176.660156" xlink:href="#DejaVuSans-74"/>
     </g>
    </g>
   </g>
  </g>
 </g>
 <defs>
  <clipPath id="p8b41125b8c">
   <rect height="266.112" width="357.12" x="57.6" y="41.472"/>
  </clipPath>
 </defs>
</svg>
