<?xml version="1.0" encoding="utf-8" standalone="no"?>
<!DOCTYPE svg PUBLIC "-//W3C//DTD SVG 1.1//EN"
  "http://www.w3.org/Graphics/SVG/1.1/DTD/svg11.dtd">
<svg height="345.6pt" version="1.1" viewBox="0 0 460.8 345.6" width="460.8pt" xmlns="http://www.w3.org/2000/svg" xmlns:xlink="http://www.w3.org/1999/xlink">
 <metadata>
  <rdf:RDF xmlns:cc="http://creativecommons.org/ns#" xmlns:dc="http://purl.org/dc/elements/1.1/" xmlns:rdf="http://www.w3.org/1999/02/22-rdf-syntax-ns#">
   <cc:Work>
    <dc:type rdf:resource="http://purl.org/dc/dcmitype/StillImage"/>
    <dc:date>2023-10-05T17:05:48.892107</dc:date>
    <dc:format>image/svg+xml</dc:format>
    <dc:creator>
     <cc:Agent>
      <dc:title>Matplotlib v3.4.1, https://matplotlib.org/</dc:title>
     </cc:Agent>
    </dc:creator>
   </cc:Work>
  </rdf:RDF>
 </metadata>
 <defs>
  <style type="text/css">*{stroke-linecap:butt;stroke-linejoin:round;}</style>
 </defs>
 <g id="figure_1">
  <g id="patch_1">
   <path d="M 0 345.6 
L 460.8 345.6 
L 460.8 0 
L 0 0 
z
" style="fill:#ffffff;"/>
  </g>
  <g id="axes_1">
   <g id="patch_2">
    <path d="M 57.6 307.584 
L 414.72 307.584 
L 414.72 41.472 
L 57.6 41.472 
z
" style="fill:#ffffff;"/>
   </g>
   <g id="patch_3">
    <path clip-path="url(#p16903bbfce)" d="M 73.832727 307.584 
L 73.832727 41.472 
L 236.16 41.472 
L 236.16 307.584 
z
" style="fill:#add8e6;opacity:0.2;"/>
   </g>
   <g id="patch_4">
    <path clip-path="url(#p16903bbfce)" d="M 236.16 307.584 
L 236.16 41.472 
L 398.487273 41.472 
L 398.487273 307.584 
z
" style="fill:#ff7f50;opacity:0.2;"/>
   </g>
   <g id="matplotlib.axis_1">
    <g id="xtick_1">
     <g id="line2d_1">
      <defs>
       <path d="M 0 0 
L 0 3.5 
" id="m84d0c02543" style="stroke:#000000;stroke-width:0.8;"/>
      </defs>
      <g>
       <use style="stroke:#000000;stroke-width:0.8;" x="73.832727" xlink:href="#m84d0c02543" y="307.584"/>
      </g>
     </g>
     <g id="text_1">
      <!-- 0 -->
      <g transform="translate(70.651477 322.182437)scale(0.1 -0.1)">
       <defs>
        <path d="M 2034 4250 
Q 1547 4250 1301 3770 
Q 1056 3291 1056 2328 
Q 1056 1369 1301 889 
Q 1547 409 2034 409 
Q 2525 409 2770 889 
Q 3016 1369 3016 2328 
Q 3016 3291 2770 3770 
Q 2525 4250 2034 4250 
z
M 2034 4750 
Q 2819 4750 3233 4129 
Q 3647 3509 3647 2328 
Q 3647 1150 3233 529 
Q 2819 -91 2034 -91 
Q 1250 -91 836 529 
Q 422 1150 422 2328 
Q 422 3509 836 4129 
Q 1250 4750 2034 4750 
z
" id="DejaVuSans-30" transform="scale(0.015625)"/>
       </defs>
       <use xlink:href="#DejaVuSans-30"/>
      </g>
     </g>
    </g>
    <g id="xtick_2">
     <g id="line2d_2">
      <g>
       <use style="stroke:#000000;stroke-width:0.8;" x="114.414545" xlink:href="#m84d0c02543" y="307.584"/>
      </g>
     </g>
     <g id="text_2">
      <!-- 5 -->
      <g transform="translate(111.233295 322.182437)scale(0.1 -0.1)">
       <defs>
        <path d="M 691 4666 
L 3169 4666 
L 3169 4134 
L 1269 4134 
L 1269 2991 
Q 1406 3038 1543 3061 
Q 1681 3084 1819 3084 
Q 2600 3084 3056 2656 
Q 3513 2228 3513 1497 
Q 3513 744 3044 326 
Q 2575 -91 1722 -91 
Q 1428 -91 1123 -41 
Q 819 9 494 109 
L 494 744 
Q 775 591 1075 516 
Q 1375 441 1709 441 
Q 2250 441 2565 725 
Q 2881 1009 2881 1497 
Q 2881 1984 2565 2268 
Q 2250 2553 1709 2553 
Q 1456 2553 1204 2497 
Q 953 2441 691 2322 
L 691 4666 
z
" id="DejaVuSans-35" transform="scale(0.015625)"/>
       </defs>
       <use xlink:href="#DejaVuSans-35"/>
      </g>
     </g>
    </g>
    <g id="xtick_3">
     <g id="line2d_3">
      <g>
       <use style="stroke:#000000;stroke-width:0.8;" x="154.996364" xlink:href="#m84d0c02543" y="307.584"/>
      </g>
     </g>
     <g id="text_3">
      <!-- 10 -->
      <g transform="translate(148.633864 322.182437)scale(0.1 -0.1)">
       <defs>
        <path d="M 794 531 
L 1825 531 
L 1825 4091 
L 703 3866 
L 703 4441 
L 1819 4666 
L 2450 4666 
L 2450 531 
L 3481 531 
L 3481 0 
L 794 0 
L 794 531 
z
" id="DejaVuSans-31" transform="scale(0.015625)"/>
       </defs>
       <use xlink:href="#DejaVuSans-31"/>
       <use x="63.623047" xlink:href="#DejaVuSans-30"/>
      </g>
     </g>
    </g>
    <g id="xtick_4">
     <g id="line2d_4">
      <g>
       <use style="stroke:#000000;stroke-width:0.8;" x="195.578182" xlink:href="#m84d0c02543" y="307.584"/>
      </g>
     </g>
     <g id="text_4">
      <!-- 15 -->
      <g transform="translate(189.215682 322.182437)scale(0.1 -0.1)">
       <use xlink:href="#DejaVuSans-31"/>
       <use x="63.623047" xlink:href="#DejaVuSans-35"/>
      </g>
     </g>
    </g>
    <g id="xtick_5">
     <g id="line2d_5">
      <g>
       <use style="stroke:#000000;stroke-width:0.8;" x="236.16" xlink:href="#m84d0c02543" y="307.584"/>
      </g>
     </g>
     <g id="text_5">
      <!-- 20 -->
      <g transform="translate(229.7975 322.182437)scale(0.1 -0.1)">
       <defs>
        <path d="M 1228 531 
L 3431 531 
L 3431 0 
L 469 0 
L 469 531 
Q 828 903 1448 1529 
Q 2069 2156 2228 2338 
Q 2531 2678 2651 2914 
Q 2772 3150 2772 3378 
Q 2772 3750 2511 3984 
Q 2250 4219 1831 4219 
Q 1534 4219 1204 4116 
Q 875 4013 500 3803 
L 500 4441 
Q 881 4594 1212 4672 
Q 1544 4750 1819 4750 
Q 2544 4750 2975 4387 
Q 3406 4025 3406 3419 
Q 3406 3131 3298 2873 
Q 3191 2616 2906 2266 
Q 2828 2175 2409 1742 
Q 1991 1309 1228 531 
z
" id="DejaVuSans-32" transform="scale(0.015625)"/>
       </defs>
       <use xlink:href="#DejaVuSans-32"/>
       <use x="63.623047" xlink:href="#DejaVuSans-30"/>
      </g>
     </g>
    </g>
    <g id="xtick_6">
     <g id="line2d_6">
      <g>
       <use style="stroke:#000000;stroke-width:0.8;" x="276.741818" xlink:href="#m84d0c02543" y="307.584"/>
      </g>
     </g>
     <g id="text_6">
      <!-- 25 -->
      <g transform="translate(270.379318 322.182437)scale(0.1 -0.1)">
       <use xlink:href="#DejaVuSans-32"/>
       <use x="63.623047" xlink:href="#DejaVuSans-35"/>
      </g>
     </g>
    </g>
    <g id="xtick_7">
     <g id="line2d_7">
      <g>
       <use style="stroke:#000000;stroke-width:0.8;" x="317.323636" xlink:href="#m84d0c02543" y="307.584"/>
      </g>
     </g>
     <g id="text_7">
      <!-- 30 -->
      <g transform="translate(310.961136 322.182437)scale(0.1 -0.1)">
       <defs>
        <path d="M 2597 2516 
Q 3050 2419 3304 2112 
Q 3559 1806 3559 1356 
Q 3559 666 3084 287 
Q 2609 -91 1734 -91 
Q 1441 -91 1130 -33 
Q 819 25 488 141 
L 488 750 
Q 750 597 1062 519 
Q 1375 441 1716 441 
Q 2309 441 2620 675 
Q 2931 909 2931 1356 
Q 2931 1769 2642 2001 
Q 2353 2234 1838 2234 
L 1294 2234 
L 1294 2753 
L 1863 2753 
Q 2328 2753 2575 2939 
Q 2822 3125 2822 3475 
Q 2822 3834 2567 4026 
Q 2313 4219 1838 4219 
Q 1578 4219 1281 4162 
Q 984 4106 628 3988 
L 628 4550 
Q 988 4650 1302 4700 
Q 1616 4750 1894 4750 
Q 2613 4750 3031 4423 
Q 3450 4097 3450 3541 
Q 3450 3153 3228 2886 
Q 3006 2619 2597 2516 
z
" id="DejaVuSans-33" transform="scale(0.015625)"/>
       </defs>
       <use xlink:href="#DejaVuSans-33"/>
       <use x="63.623047" xlink:href="#DejaVuSans-30"/>
      </g>
     </g>
    </g>
    <g id="xtick_8">
     <g id="line2d_8">
      <g>
       <use style="stroke:#000000;stroke-width:0.8;" x="357.905455" xlink:href="#m84d0c02543" y="307.584"/>
      </g>
     </g>
     <g id="text_8">
      <!-- 35 -->
      <g transform="translate(351.542955 322.182437)scale(0.1 -0.1)">
       <use xlink:href="#DejaVuSans-33"/>
       <use x="63.623047" xlink:href="#DejaVuSans-35"/>
      </g>
     </g>
    </g>
    <g id="xtick_9">
     <g id="line2d_9">
      <g>
       <use style="stroke:#000000;stroke-width:0.8;" x="398.487273" xlink:href="#m84d0c02543" y="307.584"/>
      </g>
     </g>
     <g id="text_9">
      <!-- 40 -->
      <g transform="translate(392.124773 322.182437)scale(0.1 -0.1)">
       <defs>
        <path d="M 2419 4116 
L 825 1625 
L 2419 1625 
L 2419 4116 
z
M 2253 4666 
L 3047 4666 
L 3047 1625 
L 3713 1625 
L 3713 1100 
L 3047 1100 
L 3047 0 
L 2419 0 
L 2419 1100 
L 313 1100 
L 313 1709 
L 2253 4666 
z
" id="DejaVuSans-34" transform="scale(0.015625)"/>
       </defs>
       <use xlink:href="#DejaVuSans-34"/>
       <use x="63.623047" xlink:href="#DejaVuSans-30"/>
      </g>
     </g>
    </g>
    <g id="text_10">
     <!-- t -->
     <g transform="translate(234.199844 335.860562)scale(0.1 -0.1)">
      <defs>
       <path d="M 1172 4494 
L 1172 3500 
L 2356 3500 
L 2356 3053 
L 1172 3053 
L 1172 1153 
Q 1172 725 1289 603 
Q 1406 481 1766 481 
L 2356 481 
L 2356 0 
L 1766 0 
Q 1100 0 847 248 
Q 594 497 594 1153 
L 594 3053 
L 172 3053 
L 172 3500 
L 594 3500 
L 594 4494 
L 1172 4494 
z
" id="DejaVuSans-74" transform="scale(0.015625)"/>
      </defs>
      <use xlink:href="#DejaVuSans-74"/>
     </g>
    </g>
   </g>
   <g id="matplotlib.axis_2">
    <g id="ytick_1">
     <g id="line2d_10">
      <defs>
       <path d="M 0 0 
L -3.5 0 
" id="m0d31572b52" style="stroke:#000000;stroke-width:0.8;"/>
      </defs>
      <g>
       <use style="stroke:#000000;stroke-width:0.8;" x="57.6" xlink:href="#m0d31572b52" y="307.584"/>
      </g>
     </g>
     <g id="text_11">
      <!-- 0.0 -->
      <g transform="translate(34.696875 311.383219)scale(0.1 -0.1)">
       <defs>
        <path d="M 684 794 
L 1344 794 
L 1344 0 
L 684 0 
L 684 794 
z
" id="DejaVuSans-2e" transform="scale(0.015625)"/>
       </defs>
       <use xlink:href="#DejaVuSans-30"/>
       <use x="63.623047" xlink:href="#DejaVuSans-2e"/>
       <use x="95.410156" xlink:href="#DejaVuSans-30"/>
      </g>
     </g>
    </g>
    <g id="ytick_2">
     <g id="line2d_11">
      <g>
       <use style="stroke:#000000;stroke-width:0.8;" x="57.6" xlink:href="#m0d31572b52" y="254.3616"/>
      </g>
     </g>
     <g id="text_12">
      <!-- 0.2 -->
      <g transform="translate(34.696875 258.160819)scale(0.1 -0.1)">
       <use xlink:href="#DejaVuSans-30"/>
       <use x="63.623047" xlink:href="#DejaVuSans-2e"/>
       <use x="95.410156" xlink:href="#DejaVuSans-32"/>
      </g>
     </g>
    </g>
    <g id="ytick_3">
     <g id="line2d_12">
      <g>
       <use style="stroke:#000000;stroke-width:0.8;" x="57.6" xlink:href="#m0d31572b52" y="201.1392"/>
      </g>
     </g>
     <g id="text_13">
      <!-- 0.4 -->
      <g transform="translate(34.696875 204.938419)scale(0.1 -0.1)">
       <use xlink:href="#DejaVuSans-30"/>
       <use x="63.623047" xlink:href="#DejaVuSans-2e"/>
       <use x="95.410156" xlink:href="#DejaVuSans-34"/>
      </g>
     </g>
    </g>
    <g id="ytick_4">
     <g id="line2d_13">
      <g>
       <use style="stroke:#000000;stroke-width:0.8;" x="57.6" xlink:href="#m0d31572b52" y="147.9168"/>
      </g>
     </g>
     <g id="text_14">
      <!-- 0.6 -->
      <g transform="translate(34.696875 151.716019)scale(0.1 -0.1)">
       <defs>
        <path d="M 2113 2584 
Q 1688 2584 1439 2293 
Q 1191 2003 1191 1497 
Q 1191 994 1439 701 
Q 1688 409 2113 409 
Q 2538 409 2786 701 
Q 3034 994 3034 1497 
Q 3034 2003 2786 2293 
Q 2538 2584 2113 2584 
z
M 3366 4563 
L 3366 3988 
Q 3128 4100 2886 4159 
Q 2644 4219 2406 4219 
Q 1781 4219 1451 3797 
Q 1122 3375 1075 2522 
Q 1259 2794 1537 2939 
Q 1816 3084 2150 3084 
Q 2853 3084 3261 2657 
Q 3669 2231 3669 1497 
Q 3669 778 3244 343 
Q 2819 -91 2113 -91 
Q 1303 -91 875 529 
Q 447 1150 447 2328 
Q 447 3434 972 4092 
Q 1497 4750 2381 4750 
Q 2619 4750 2861 4703 
Q 3103 4656 3366 4563 
z
" id="DejaVuSans-36" transform="scale(0.015625)"/>
       </defs>
       <use xlink:href="#DejaVuSans-30"/>
       <use x="63.623047" xlink:href="#DejaVuSans-2e"/>
       <use x="95.410156" xlink:href="#DejaVuSans-36"/>
      </g>
     </g>
    </g>
    <g id="ytick_5">
     <g id="line2d_14">
      <g>
       <use style="stroke:#000000;stroke-width:0.8;" x="57.6" xlink:href="#m0d31572b52" y="94.6944"/>
      </g>
     </g>
     <g id="text_15">
      <!-- 0.8 -->
      <g transform="translate(34.696875 98.493619)scale(0.1 -0.1)">
       <defs>
        <path d="M 2034 2216 
Q 1584 2216 1326 1975 
Q 1069 1734 1069 1313 
Q 1069 891 1326 650 
Q 1584 409 2034 409 
Q 2484 409 2743 651 
Q 3003 894 3003 1313 
Q 3003 1734 2745 1975 
Q 2488 2216 2034 2216 
z
M 1403 2484 
Q 997 2584 770 2862 
Q 544 3141 544 3541 
Q 544 4100 942 4425 
Q 1341 4750 2034 4750 
Q 2731 4750 3128 4425 
Q 3525 4100 3525 3541 
Q 3525 3141 3298 2862 
Q 3072 2584 2669 2484 
Q 3125 2378 3379 2068 
Q 3634 1759 3634 1313 
Q 3634 634 3220 271 
Q 2806 -91 2034 -91 
Q 1263 -91 848 271 
Q 434 634 434 1313 
Q 434 1759 690 2068 
Q 947 2378 1403 2484 
z
M 1172 3481 
Q 1172 3119 1398 2916 
Q 1625 2713 2034 2713 
Q 2441 2713 2670 2916 
Q 2900 3119 2900 3481 
Q 2900 3844 2670 4047 
Q 2441 4250 2034 4250 
Q 1625 4250 1398 4047 
Q 1172 3844 1172 3481 
z
" id="DejaVuSans-38" transform="scale(0.015625)"/>
       </defs>
       <use xlink:href="#DejaVuSans-30"/>
       <use x="63.623047" xlink:href="#DejaVuSans-2e"/>
       <use x="95.410156" xlink:href="#DejaVuSans-38"/>
      </g>
     </g>
    </g>
    <g id="ytick_6">
     <g id="line2d_15">
      <g>
       <use style="stroke:#000000;stroke-width:0.8;" x="57.6" xlink:href="#m0d31572b52" y="41.472"/>
      </g>
     </g>
     <g id="text_16">
      <!-- 1.0 -->
      <g transform="translate(34.696875 45.271219)scale(0.1 -0.1)">
       <use xlink:href="#DejaVuSans-31"/>
       <use x="63.623047" xlink:href="#DejaVuSans-2e"/>
       <use x="95.410156" xlink:href="#DejaVuSans-30"/>
      </g>
     </g>
    </g>
    <g id="text_17">
     <!-- p(context) -->
     <g transform="translate(28.617187 200.449875)rotate(-90)scale(0.1 -0.1)">
      <defs>
       <path d="M 1159 525 
L 1159 -1331 
L 581 -1331 
L 581 3500 
L 1159 3500 
L 1159 2969 
Q 1341 3281 1617 3432 
Q 1894 3584 2278 3584 
Q 2916 3584 3314 3078 
Q 3713 2572 3713 1747 
Q 3713 922 3314 415 
Q 2916 -91 2278 -91 
Q 1894 -91 1617 61 
Q 1341 213 1159 525 
z
M 3116 1747 
Q 3116 2381 2855 2742 
Q 2594 3103 2138 3103 
Q 1681 3103 1420 2742 
Q 1159 2381 1159 1747 
Q 1159 1113 1420 752 
Q 1681 391 2138 391 
Q 2594 391 2855 752 
Q 3116 1113 3116 1747 
z
" id="DejaVuSans-70" transform="scale(0.015625)"/>
       <path d="M 1984 4856 
Q 1566 4138 1362 3434 
Q 1159 2731 1159 2009 
Q 1159 1288 1364 580 
Q 1569 -128 1984 -844 
L 1484 -844 
Q 1016 -109 783 600 
Q 550 1309 550 2009 
Q 550 2706 781 3412 
Q 1013 4119 1484 4856 
L 1984 4856 
z
" id="DejaVuSans-28" transform="scale(0.015625)"/>
       <path d="M 3122 3366 
L 3122 2828 
Q 2878 2963 2633 3030 
Q 2388 3097 2138 3097 
Q 1578 3097 1268 2742 
Q 959 2388 959 1747 
Q 959 1106 1268 751 
Q 1578 397 2138 397 
Q 2388 397 2633 464 
Q 2878 531 3122 666 
L 3122 134 
Q 2881 22 2623 -34 
Q 2366 -91 2075 -91 
Q 1284 -91 818 406 
Q 353 903 353 1747 
Q 353 2603 823 3093 
Q 1294 3584 2113 3584 
Q 2378 3584 2631 3529 
Q 2884 3475 3122 3366 
z
" id="DejaVuSans-63" transform="scale(0.015625)"/>
       <path d="M 1959 3097 
Q 1497 3097 1228 2736 
Q 959 2375 959 1747 
Q 959 1119 1226 758 
Q 1494 397 1959 397 
Q 2419 397 2687 759 
Q 2956 1122 2956 1747 
Q 2956 2369 2687 2733 
Q 2419 3097 1959 3097 
z
M 1959 3584 
Q 2709 3584 3137 3096 
Q 3566 2609 3566 1747 
Q 3566 888 3137 398 
Q 2709 -91 1959 -91 
Q 1206 -91 779 398 
Q 353 888 353 1747 
Q 353 2609 779 3096 
Q 1206 3584 1959 3584 
z
" id="DejaVuSans-6f" transform="scale(0.015625)"/>
       <path d="M 3513 2113 
L 3513 0 
L 2938 0 
L 2938 2094 
Q 2938 2591 2744 2837 
Q 2550 3084 2163 3084 
Q 1697 3084 1428 2787 
Q 1159 2491 1159 1978 
L 1159 0 
L 581 0 
L 581 3500 
L 1159 3500 
L 1159 2956 
Q 1366 3272 1645 3428 
Q 1925 3584 2291 3584 
Q 2894 3584 3203 3211 
Q 3513 2838 3513 2113 
z
" id="DejaVuSans-6e" transform="scale(0.015625)"/>
       <path d="M 3597 1894 
L 3597 1613 
L 953 1613 
Q 991 1019 1311 708 
Q 1631 397 2203 397 
Q 2534 397 2845 478 
Q 3156 559 3463 722 
L 3463 178 
Q 3153 47 2828 -22 
Q 2503 -91 2169 -91 
Q 1331 -91 842 396 
Q 353 884 353 1716 
Q 353 2575 817 3079 
Q 1281 3584 2069 3584 
Q 2775 3584 3186 3129 
Q 3597 2675 3597 1894 
z
M 3022 2063 
Q 3016 2534 2758 2815 
Q 2500 3097 2075 3097 
Q 1594 3097 1305 2825 
Q 1016 2553 972 2059 
L 3022 2063 
z
" id="DejaVuSans-65" transform="scale(0.015625)"/>
       <path d="M 3513 3500 
L 2247 1797 
L 3578 0 
L 2900 0 
L 1881 1375 
L 863 0 
L 184 0 
L 1544 1831 
L 300 3500 
L 978 3500 
L 1906 2253 
L 2834 3500 
L 3513 3500 
z
" id="DejaVuSans-78" transform="scale(0.015625)"/>
       <path d="M 513 4856 
L 1013 4856 
Q 1481 4119 1714 3412 
Q 1947 2706 1947 2009 
Q 1947 1309 1714 600 
Q 1481 -109 1013 -844 
L 513 -844 
Q 928 -128 1133 580 
Q 1338 1288 1338 2009 
Q 1338 2731 1133 3434 
Q 928 4138 513 4856 
z
" id="DejaVuSans-29" transform="scale(0.015625)"/>
      </defs>
      <use xlink:href="#DejaVuSans-70"/>
      <use x="63.476562" xlink:href="#DejaVuSans-28"/>
      <use x="102.490234" xlink:href="#DejaVuSans-63"/>
      <use x="157.470703" xlink:href="#DejaVuSans-6f"/>
      <use x="218.652344" xlink:href="#DejaVuSans-6e"/>
      <use x="282.03125" xlink:href="#DejaVuSans-74"/>
      <use x="321.240234" xlink:href="#DejaVuSans-65"/>
      <use x="381.013672" xlink:href="#DejaVuSans-78"/>
      <use x="440.193359" xlink:href="#DejaVuSans-74"/>
      <use x="479.402344" xlink:href="#DejaVuSans-29"/>
     </g>
    </g>
   </g>
   <g id="line2d_16">
    <path clip-path="url(#p16903bbfce)" d="M 73.832727 267.6672 
L 81.949091 304.441039 
L 90.065455 206.725558 
L 98.181818 141.8518 
L 106.298182 108.729201 
L 114.414545 90.106634 
L 122.530909 78.996587 
L 130.647273 264.449502 
L 138.763636 135.478146 
L 146.88 93.629737 
L 154.996364 81.859362 
L 163.112727 76.67651 
L 171.229091 73.205101 
L 179.345455 70.46382 
L 187.461818 68.188849 
L 195.578182 66.263015 
L 203.694545 64.6121 
L 211.810909 63.182341 
L 219.927273 61.933018 
L 228.043636 60.832635 
L 236.16 97.748568 
L 244.276364 254.732711 
L 252.392727 112.042435 
L 260.509091 248.814876 
L 268.625455 282.380133 
L 276.741818 290.224853 
L 284.858182 293.491443 
L 292.974545 295.637699 
L 301.090909 232.552962 
L 309.207273 288.811606 
L 317.323636 231.442315 
L 325.44 289.480321 
L 333.556364 234.290812 
L 341.672727 113.308488 
L 349.789091 258.403164 
L 357.905455 215.804582 
L 366.021818 284.120335 
L 374.138182 231.434196 
L 382.254545 204.071032 
L 390.370909 282.856266 
" style="fill:none;stroke:#add8e6;stroke-linecap:square;stroke-opacity:0.3;stroke-width:1.5;"/>
   </g>
   <g id="line2d_17">
    <path clip-path="url(#p16903bbfce)" d="M 73.832727 267.6672 
L 81.949091 130.990571 
L 90.065455 85.508019 
L 98.181818 69.35709 
L 106.298182 61.780087 
L 114.414545 57.543147 
L 122.530909 54.854598 
L 130.647273 52.990665 
L 138.763636 51.617496 
L 146.88 50.561291 
L 154.996364 49.722342 
L 163.112727 231.075878 
L 171.229091 81.160442 
L 179.345455 55.245093 
L 187.461818 51.786388 
L 195.578182 50.876617 
L 203.694545 50.300108 
L 211.810909 217.123247 
L 219.927273 287.921192 
L 228.043636 116.313341 
L 236.16 112.872504 
L 244.276364 258.155495 
L 252.392727 292.985714 
L 260.509091 299.084686 
L 268.625455 301.11474 
L 276.741818 302.311463 
L 284.858182 253.712073 
L 292.974545 298.492525 
L 301.090909 253.804361 
L 309.207273 102.994963 
L 317.323636 258.998747 
L 325.44 296.944129 
L 333.556364 253.073015 
L 341.672727 103.167626 
L 349.789091 253.419148 
L 357.905455 220.840301 
L 366.021818 289.468498 
L 374.138182 246.276899 
L 382.254545 217.584084 
L 390.370909 90.416846 
" style="fill:none;stroke:#add8e6;stroke-linecap:square;stroke-opacity:0.3;stroke-width:1.5;"/>
   </g>
   <g id="line2d_18">
    <path clip-path="url(#p16903bbfce)" d="M 73.832727 267.6672 
L 81.949091 130.990571 
L 90.065455 85.508019 
L 98.181818 69.35709 
L 106.298182 61.780087 
L 114.414545 57.543147 
L 122.530909 54.854598 
L 130.647273 52.990665 
L 138.763636 51.617496 
L 146.88 231.555084 
L 154.996364 84.289523 
L 163.112727 57.702536 
L 171.229091 53.78758 
L 179.345455 52.593446 
L 187.461818 51.803421 
L 195.578182 51.147732 
L 203.694545 50.580511 
L 211.810909 50.083415 
L 219.927273 49.644022 
L 228.043636 49.252793 
L 236.16 69.914093 
L 244.276364 257.540943 
L 252.392727 299.777768 
L 260.509091 121.877773 
L 268.625455 61.069644 
L 276.741818 233.387147 
L 284.858182 292.886266 
L 292.974545 301.116827 
L 301.090909 302.911927 
L 309.207273 303.813137 
L 317.323636 256.836763 
L 325.44 101.422709 
L 333.556364 261.852493 
L 341.672727 299.040361 
L 349.789091 253.756034 
L 357.905455 298.804283 
L 366.021818 255.869417 
L 374.138182 299.379728 
L 382.254545 258.230689 
L 390.370909 299.909076 
" style="fill:none;stroke:#add8e6;stroke-linecap:square;stroke-opacity:0.3;stroke-width:1.5;"/>
   </g>
   <g id="line2d_19">
    <path clip-path="url(#p16903bbfce)" d="M 73.832727 267.6672 
L 81.949091 130.990571 
L 90.065455 85.508019 
L 98.181818 265.34663 
L 106.298182 295.685302 
L 114.414545 153.031738 
L 122.530909 95.916646 
L 130.647273 253.050288 
L 138.763636 134.90479 
L 146.88 97.75654 
L 154.996364 86.470502 
L 163.112727 80.823277 
L 171.229091 232.711352 
L 179.345455 122.880038 
L 187.461818 92.686093 
L 195.578182 84.524326 
L 203.694545 80.84433 
L 211.810909 78.216522 
L 219.927273 76.002199 
L 228.043636 74.058175 
L 236.16 118.07875 
L 244.276364 251.134817 
L 252.392727 280.64303 
L 260.509091 287.972145 
L 268.625455 291.228057 
L 276.741818 225.387386 
L 284.858182 283.747343 
L 292.974545 224.409696 
L 301.090909 284.68925 
L 309.207273 227.469074 
L 317.323636 286.082588 
L 325.44 230.494002 
L 333.556364 287.321191 
L 341.672727 233.213355 
L 349.789091 288.396645 
L 357.905455 235.656381 
L 366.021818 289.337714 
L 374.138182 237.865127 
L 382.254545 290.168773 
L 390.370909 239.87445 
" style="fill:none;stroke:#add8e6;stroke-linecap:square;stroke-opacity:0.3;stroke-width:1.5;"/>
   </g>
   <g id="line2d_20">
    <path clip-path="url(#p16903bbfce)" d="M 73.832727 267.6672 
L 81.949091 130.990571 
L 90.065455 85.508019 
L 98.181818 69.35709 
L 106.298182 61.780087 
L 114.414545 57.543147 
L 122.530909 54.854598 
L 130.647273 52.990665 
L 138.763636 51.617496 
L 146.88 50.561291 
L 154.996364 49.722342 
L 163.112727 49.039105 
L 171.229091 48.471415 
L 179.345455 47.991905 
L 187.461818 232.619087 
L 195.578182 78.588323 
L 203.694545 52.935403 
L 211.810909 218.863131 
L 219.927273 81.039867 
L 228.043636 55.63587 
L 236.16 77.427165 
L 244.276364 219.231487 
L 252.392727 278.624247 
L 260.509091 115.239928 
L 268.625455 233.596563 
L 276.741818 277.401487 
L 284.858182 289.033869 
L 292.974545 134.679487 
L 301.090909 240.619425 
L 309.207273 191.832712 
L 317.323636 265.236913 
L 325.44 207.701138 
L 333.556364 270.984047 
L 341.672727 212.826605 
L 349.789091 273.477829 
L 357.905455 216.057914 
L 366.021818 275.315098 
L 374.138182 218.807437 
L 382.254545 276.888819 
L 390.370909 221.295442 
" style="fill:none;stroke:#add8e6;stroke-linecap:square;stroke-opacity:0.3;stroke-width:1.5;"/>
   </g>
   <g id="line2d_21">
    <path clip-path="url(#p16903bbfce)" d="M 73.832727 267.6672 
L 81.949091 130.990571 
L 90.065455 85.508019 
L 98.181818 69.35709 
L 106.298182 61.780087 
L 114.414545 57.543147 
L 122.530909 54.854598 
L 130.647273 52.990665 
L 138.763636 51.617496 
L 146.88 50.561291 
L 154.996364 49.722342 
L 163.112727 49.039105 
L 171.229091 48.471415 
L 179.345455 47.991905 
L 187.461818 47.581254 
L 195.578182 233.446374 
L 203.694545 78.061006 
L 211.810909 52.382954 
L 219.927273 49.359143 
L 228.043636 48.739985 
L 236.16 68.247132 
L 244.276364 255.418498 
L 252.392727 299.874574 
L 260.509091 304.288912 
L 268.625455 305.3344 
L 276.741818 305.866978 
L 284.858182 306.207234 
L 292.974545 306.443278 
L 301.090909 275.363787 
L 309.207273 305.427033 
L 317.323636 276.488572 
L 325.44 305.58811 
L 333.556364 278.504986 
L 341.672727 305.753673 
L 349.789091 280.20241 
L 357.905455 305.887752 
L 366.021818 281.628942 
L 374.138182 305.998109 
L 382.254545 282.849087 
L 390.370909 306.090864 
" style="fill:none;stroke:#add8e6;stroke-linecap:square;stroke-opacity:0.3;stroke-width:1.5;"/>
   </g>
   <g id="line2d_22">
    <path clip-path="url(#p16903bbfce)" d="M 73.832727 267.6672 
L 81.949091 130.990571 
L 90.065455 286.361875 
L 98.181818 150.067848 
L 106.298182 279.030422 
L 114.414545 157.160084 
L 122.530909 114.773823 
L 130.647273 258.252593 
L 138.763636 283.886326 
L 146.88 167.574902 
L 154.996364 126.738572 
L 163.112727 112.945075 
L 171.229091 105.561901 
L 179.345455 244.391645 
L 187.461818 146.464657 
L 195.578182 118.613936 
L 203.694545 109.901166 
L 211.810909 105.394208 
L 219.927273 101.961749 
L 228.043636 235.644422 
L 236.16 196.057449 
L 244.276364 258.375387 
L 252.392727 205.966046 
L 260.509091 261.967489 
L 268.625455 209.340485 
L 276.741818 194.246337 
L 284.858182 261.591489 
L 292.974545 210.470544 
L 301.090909 196.720175 
L 309.207273 193.100213 
L 317.323636 192.168934 
L 325.44 191.929251 
L 333.556364 191.862501 
L 341.672727 191.838355 
L 349.789091 191.825026 
L 357.905455 191.814922 
L 366.021818 191.806212 
L 374.138182 191.798404 
L 382.254545 191.79132 
L 390.370909 191.784861 
" style="fill:none;stroke:#add8e6;stroke-linecap:square;stroke-opacity:0.3;stroke-width:1.5;"/>
   </g>
   <g id="line2d_23">
    <path clip-path="url(#p16903bbfce)" d="M 73.832727 267.6672 
L 81.949091 130.990571 
L 90.065455 85.508019 
L 98.181818 69.35709 
L 106.298182 61.780087 
L 114.414545 57.543147 
L 122.530909 54.854598 
L 130.647273 52.990665 
L 138.763636 232.642009 
L 146.88 86.609569 
L 154.996364 59.418522 
L 163.112727 55.153383 
L 171.229091 53.745513 
L 179.345455 52.798351 
L 187.461818 52.018872 
L 195.578182 217.770936 
L 203.694545 82.484931 
L 211.810909 227.187534 
L 219.927273 91.896139 
L 228.043636 62.63017 
L 236.16 88.901127 
L 244.276364 61.533125 
L 252.392727 203.396436 
L 260.509091 266.191615 
L 268.625455 112.730721 
L 276.741818 224.495849 
L 284.858182 266.228016 
L 292.974545 279.170182 
L 301.090909 207.923143 
L 309.207273 267.89605 
L 317.323636 204.67278 
L 325.44 268.744089 
L 333.556364 207.390365 
L 341.672727 98.659713 
L 349.789091 72.013341 
L 357.905455 211.34081 
L 366.021818 175.75333 
L 374.138182 159.317711 
L 382.254545 87.218853 
L 390.370909 214.868771 
" style="fill:none;stroke:#add8e6;stroke-linecap:square;stroke-opacity:0.3;stroke-width:1.5;"/>
   </g>
   <g id="line2d_24">
    <path clip-path="url(#p16903bbfce)" d="M 73.832727 267.6672 
L 81.949091 130.990571 
L 90.065455 85.508019 
L 98.181818 69.35709 
L 106.298182 61.780087 
L 114.414545 243.220043 
L 122.530909 100.24572 
L 130.647273 68.892068 
L 138.763636 227.528068 
L 146.88 101.563297 
L 154.996364 230.256826 
L 163.112727 110.595314 
L 171.229091 81.151154 
L 179.345455 74.158442 
L 187.461818 71.175517 
L 195.578182 69.054886 
L 203.694545 67.2774 
L 211.810909 65.73087 
L 219.927273 64.369385 
L 228.043636 63.162283 
L 236.16 97.923415 
L 244.276364 222.804235 
L 252.392727 265.017913 
L 260.509091 278.251716 
L 268.625455 284.206292 
L 276.741818 288.012071 
L 284.858182 221.245122 
L 292.974545 97.470533 
L 301.090909 229.328729 
L 309.207273 187.907031 
L 317.323636 264.914914 
L 325.44 207.935968 
L 333.556364 271.200286 
L 341.672727 213.060097 
L 349.789091 184.869741 
L 357.905455 267.119229 
L 366.021818 211.512957 
L 374.138182 185.866157 
L 382.254545 93.114084 
L 390.370909 74.688938 
" style="fill:none;stroke:#add8e6;stroke-linecap:square;stroke-opacity:0.3;stroke-width:1.5;"/>
   </g>
   <g id="line2d_25">
    <path clip-path="url(#p16903bbfce)" d="M 73.832727 267.6672 
L 81.949091 304.441039 
L 90.065455 206.725558 
L 98.181818 299.882801 
L 106.298182 199.173736 
L 114.414545 150.129733 
L 122.530909 125.11948 
L 130.647273 109.033786 
L 138.763636 97.708127 
L 146.88 89.40623 
L 154.996364 266.247654 
L 163.112727 292.630501 
L 171.229091 165.373436 
L 179.345455 274.137452 
L 187.461818 163.405008 
L 195.578182 122.274885 
L 203.694545 108.952371 
L 211.810909 103.087057 
L 219.927273 251.040807 
L 228.043636 152.129219 
L 236.16 177.95778 
L 244.276364 128.437348 
L 252.392727 249.419326 
L 260.509091 208.5358 
L 268.625455 196.317205 
L 276.741818 192.642347 
L 284.858182 191.555444 
L 292.974545 191.233813 
L 301.090909 191.132022 
L 309.207273 191.092338 
L 317.323636 191.070634 
L 325.44 191.054852 
L 333.556364 191.041679 
L 341.672727 191.030125 
L 349.789091 191.019813 
L 357.905455 191.010541 
L 366.021818 191.002165 
L 374.138182 190.994571 
L 382.254545 190.987664 
L 390.370909 190.981362 
" style="fill:none;stroke:#add8e6;stroke-linecap:square;stroke-opacity:0.3;stroke-width:1.5;"/>
   </g>
   <g id="line2d_26">
    <path clip-path="url(#p16903bbfce)" d="M 73.832727 267.6672 
L 81.949091 130.990571 
L 90.065455 286.361875 
L 98.181818 150.067848 
L 106.298182 101.557697 
L 114.414545 84.221346 
L 122.530909 75.19782 
L 130.647273 244.964216 
L 138.763636 118.123651 
L 146.88 84.841437 
L 154.996364 76.258166 
L 163.112727 229.158112 
L 171.229091 272.906174 
L 179.345455 137.24441 
L 187.461818 242.231754 
L 195.578182 131.981065 
L 203.694545 232.542235 
L 211.810909 195.412568 
L 219.927273 119.763326 
L 228.043636 100.267846 
L 236.16 146.050712 
L 244.276364 239.407464 
L 252.392727 193.127045 
L 260.509091 178.436956 
L 268.625455 249.581383 
L 276.741818 197.672959 
L 284.858182 182.163201 
L 292.974545 177.70077 
L 301.090909 176.454067 
L 309.207273 176.108299 
L 317.323636 176.006947 
L 325.44 175.970607 
L 333.556364 175.951844 
L 341.672727 175.938423 
L 349.789091 175.927187 
L 357.905455 175.91726 
L 366.021818 175.908337 
L 374.138182 175.90026 
L 382.254545 175.892919 
L 390.370909 175.886225 
" style="fill:none;stroke:#add8e6;stroke-linecap:square;stroke-opacity:0.3;stroke-width:1.5;"/>
   </g>
   <g id="line2d_27">
    <path clip-path="url(#p16903bbfce)" d="M 73.832727 267.6672 
L 81.949091 130.990571 
L 90.065455 85.508019 
L 98.181818 69.35709 
L 106.298182 61.780087 
L 114.414545 243.220043 
L 122.530909 100.24572 
L 130.647273 68.892068 
L 138.763636 62.382333 
L 146.88 59.630016 
L 154.996364 57.736896 
L 163.112727 221.180189 
L 171.229091 280.581345 
L 179.345455 121.315597 
L 187.461818 72.736715 
L 195.578182 63.587676 
L 203.694545 61.11077 
L 211.810909 59.728807 
L 219.927273 58.62493 
L 228.043636 57.666962 
L 236.16 89.658992 
L 244.276364 61.11657 
L 252.392727 56.791778 
L 260.509091 55.706221 
L 268.625455 55.062346 
L 276.741818 220.020116 
L 284.858182 281.999223 
L 292.974545 117.533805 
L 301.090909 246.099419 
L 309.207273 283.586628 
L 317.323636 129.158156 
L 325.44 244.403468 
L 333.556364 279.683138 
L 341.672727 212.96073 
L 349.789091 274.638189 
L 357.905455 212.504328 
L 366.021818 275.7267 
L 374.138182 215.175303 
L 382.254545 277.350524 
L 390.370909 217.983003 
" style="fill:none;stroke:#add8e6;stroke-linecap:square;stroke-opacity:0.3;stroke-width:1.5;"/>
   </g>
   <g id="line2d_28">
    <path clip-path="url(#p16903bbfce)" d="M 73.832727 267.6672 
L 81.949091 130.990571 
L 90.065455 85.508019 
L 98.181818 69.35709 
L 106.298182 61.780087 
L 114.414545 57.543147 
L 122.530909 54.854598 
L 130.647273 52.990665 
L 138.763636 232.642009 
L 146.88 291.811313 
L 154.996364 123.34729 
L 163.112727 258.578884 
L 171.229091 291.951135 
L 179.345455 141.064322 
L 187.461818 78.476173 
L 195.578182 224.890743 
L 203.694545 110.454274 
L 211.810909 76.803052 
L 219.927273 213.231186 
L 228.043636 111.04487 
L 236.16 133.28179 
L 244.276364 239.237026 
L 252.392727 270.695205 
L 260.509091 211.708263 
L 268.625455 184.203944 
L 276.741818 102.989484 
L 284.858182 224.226183 
L 292.974545 188.062075 
L 301.090909 173.492551 
L 309.207273 167.793465 
L 317.323636 165.628458 
L 325.44 164.822209 
L 333.556364 164.521422 
L 341.672727 164.403555 
L 349.789091 164.350797 
L 357.905455 164.321409 
L 366.021818 164.30095 
L 374.138182 164.28447 
L 382.254545 164.270226 
L 390.370909 164.257547 
" style="fill:none;stroke:#add8e6;stroke-linecap:square;stroke-opacity:0.3;stroke-width:1.5;"/>
   </g>
   <g id="line2d_29">
    <path clip-path="url(#p16903bbfce)" d="M 73.832727 267.6672 
L 81.949091 304.441039 
L 90.065455 206.725558 
L 98.181818 141.8518 
L 106.298182 289.236446 
L 114.414545 300.927481 
L 122.530909 192.322033 
L 130.647273 140.114851 
L 138.763636 118.179256 
L 146.88 105.530195 
L 154.996364 96.59892 
L 163.112727 89.783088 
L 171.229091 262.977823 
L 179.345455 147.405617 
L 187.461818 108.403404 
L 195.578182 96.580568 
L 203.694545 251.878147 
L 211.810909 146.011615 
L 219.927273 112.527643 
L 228.043636 245.607415 
L 236.16 205.626772 
L 244.276364 137.76821 
L 252.392727 244.483427 
L 260.509091 204.623227 
L 268.625455 192.519394 
L 276.741818 188.842734 
L 284.858182 187.746368 
L 292.974545 187.419509 
L 301.090909 187.315439 
L 309.207273 187.274777 
L 317.323636 187.25259 
L 325.44 187.236509 
L 333.556364 187.223112 
L 341.672727 187.211371 
L 349.789091 187.200898 
L 357.905455 187.191484 
L 366.021818 187.182982 
L 374.138182 187.175275 
L 382.254545 187.168267 
L 390.370909 187.161874 
" style="fill:none;stroke:#add8e6;stroke-linecap:square;stroke-opacity:0.3;stroke-width:1.5;"/>
   </g>
   <g id="line2d_30">
    <path clip-path="url(#p16903bbfce)" d="M 73.832727 267.6672 
L 81.949091 130.990571 
L 90.065455 85.508019 
L 98.181818 69.35709 
L 106.298182 61.780087 
L 114.414545 57.543147 
L 122.530909 54.854598 
L 130.647273 52.990665 
L 138.763636 51.617496 
L 146.88 50.561291 
L 154.996364 49.722342 
L 163.112727 49.039105 
L 171.229091 48.471415 
L 179.345455 47.991905 
L 187.461818 47.581254 
L 195.578182 47.225431 
L 203.694545 46.913986 
L 211.810909 46.63898 
L 219.927273 46.394269 
L 228.043636 237.405937 
L 236.16 170.106428 
L 244.276364 293.145251 
L 252.392727 105.294842 
L 260.509091 267.760869 
L 268.625455 299.88729 
L 276.741818 129.66142 
L 284.858182 270.447536 
L 292.974545 298.543674 
L 301.090909 302.268746 
L 309.207273 252.041837 
L 317.323636 99.864131 
L 325.44 57.689885 
L 333.556364 222.619511 
L 341.672727 92.252513 
L 349.789091 240.710171 
L 357.905455 106.616149 
L 366.021818 241.068368 
L 374.138182 200.799759 
L 382.254545 278.031788 
L 390.370909 225.702586 
" style="fill:none;stroke:#add8e6;stroke-linecap:square;stroke-opacity:0.3;stroke-width:1.5;"/>
   </g>
   <g id="line2d_31">
    <path clip-path="url(#p16903bbfce)" d="M 73.832727 267.6672 
L 81.949091 130.990571 
L 90.065455 85.508019 
L 98.181818 69.35709 
L 106.298182 61.780087 
L 114.414545 57.543147 
L 122.530909 54.854598 
L 130.647273 52.990665 
L 138.763636 51.617496 
L 146.88 50.561291 
L 154.996364 49.722342 
L 163.112727 49.039105 
L 171.229091 48.471415 
L 179.345455 47.991905 
L 187.461818 47.581254 
L 195.578182 47.225431 
L 203.694545 46.913986 
L 211.810909 235.339162 
L 219.927273 77.315008 
L 228.043636 247.534424 
L 236.16 183.192725 
L 244.276364 286.968161 
L 252.392727 300.829392 
L 260.509091 303.222574 
L 268.625455 304.256855 
L 276.741818 304.910282 
L 284.858182 153.102745 
L 292.974545 283.104851 
L 301.090909 134.519063 
L 309.207273 271.552329 
L 317.323636 231.949664 
L 325.44 101.336383 
L 333.556364 251.558921 
L 341.672727 215.654531 
L 349.789091 288.529226 
L 357.905455 242.515964 
L 366.021818 211.501717 
L 374.138182 288.360117 
L 382.254545 242.358891 
L 390.370909 212.454301 
" style="fill:none;stroke:#add8e6;stroke-linecap:square;stroke-opacity:0.3;stroke-width:1.5;"/>
   </g>
   <g id="line2d_32">
    <path clip-path="url(#p16903bbfce)" d="M 73.832727 267.6672 
L 81.949091 130.990571 
L 90.065455 85.508019 
L 98.181818 69.35709 
L 106.298182 61.780087 
L 114.414545 243.220043 
L 122.530909 291.239418 
L 130.647273 299.770105 
L 138.763636 148.672816 
L 146.88 81.810827 
L 154.996364 67.445959 
L 163.112727 63.035422 
L 171.229091 60.51737 
L 179.345455 58.627176 
L 187.461818 227.895403 
L 195.578182 99.781216 
L 203.694545 67.797934 
L 211.810909 61.649764 
L 219.927273 59.70834 
L 228.043636 58.494678 
L 236.16 93.949934 
L 244.276364 252.914552 
L 252.392727 292.223818 
L 260.509091 298.783431 
L 268.625455 300.698409 
L 276.741818 247.934772 
L 284.858182 296.218647 
L 292.974545 247.713125 
L 301.090909 104.276094 
L 309.207273 258.812267 
L 317.323636 294.886761 
L 325.44 247.622556 
L 333.556364 105.331155 
L 341.672727 253.607124 
L 349.789091 219.269413 
L 357.905455 286.789552 
L 366.021818 241.30675 
L 374.138182 214.003393 
L 382.254545 286.475213 
L 390.370909 241.270378 
" style="fill:none;stroke:#add8e6;stroke-linecap:square;stroke-opacity:0.3;stroke-width:1.5;"/>
   </g>
   <g id="line2d_33">
    <path clip-path="url(#p16903bbfce)" d="M 73.832727 267.6672 
L 81.949091 130.990571 
L 90.065455 85.508019 
L 98.181818 69.35709 
L 106.298182 251.686112 
L 114.414545 109.681581 
L 122.530909 75.243718 
L 130.647273 67.011006 
L 138.763636 228.738383 
L 146.88 103.415602 
L 154.996364 75.000531 
L 163.112727 68.633159 
L 171.229091 65.861962 
L 179.345455 63.876433 
L 187.461818 62.236878 
L 195.578182 60.837443 
L 203.694545 59.62712 
L 211.810909 58.57056 
L 219.927273 217.596748 
L 228.043636 90.365696 
L 236.16 106.27329 
L 244.276364 226.540902 
L 252.392727 267.325118 
L 260.509091 280.080709 
L 268.625455 285.804775 
L 276.741818 289.440738 
L 284.858182 224.443236 
L 292.974545 97.95469 
L 301.090909 229.563109 
L 309.207273 105.497677 
L 317.323636 225.202925 
L 325.44 186.2949 
L 333.556364 167.747231 
L 341.672727 159.188957 
L 349.789091 155.358029 
L 357.905455 153.685664 
L 366.021818 152.967307 
L 374.138182 152.658496 
L 382.254545 152.52124 
L 390.370909 152.454663 
" style="fill:none;stroke:#add8e6;stroke-linecap:square;stroke-opacity:0.3;stroke-width:1.5;"/>
   </g>
   <g id="line2d_34">
    <path clip-path="url(#p16903bbfce)" d="M 73.832727 267.6672 
L 81.949091 304.441039 
L 90.065455 206.725558 
L 98.181818 141.8518 
L 106.298182 108.729201 
L 114.414545 90.106634 
L 122.530909 78.996587 
L 130.647273 71.909654 
L 138.763636 67.081445 
L 146.88 63.605074 
L 154.996364 255.569746 
L 163.112727 117.286912 
L 171.229091 77.372718 
L 179.345455 243.487431 
L 187.461818 284.953102 
L 195.578182 146.139602 
L 203.694545 257.918739 
L 211.810909 283.455516 
L 219.927273 155.548854 
L 228.043636 103.583027 
L 236.16 142.327501 
L 244.276364 255.540047 
L 252.392727 280.523543 
L 260.509091 222.602583 
L 268.625455 126.222 
L 276.741818 247.106802 
L 284.858182 206.92312 
L 292.974545 191.172895 
L 301.090909 185.127468 
L 309.207273 182.871111 
L 317.323636 182.045874 
L 325.44 181.743611 
L 333.556364 181.627165 
L 341.672727 181.575642 
L 349.789091 181.547022 
L 357.905455 181.527044 
L 366.021818 181.51091 
L 374.138182 181.496954 
L 382.254545 181.484537 
L 390.370909 181.473354 
" style="fill:none;stroke:#add8e6;stroke-linecap:square;stroke-opacity:0.3;stroke-width:1.5;"/>
   </g>
   <g id="line2d_35">
    <path clip-path="url(#p16903bbfce)" d="M 73.832727 267.6672 
L 81.949091 130.990571 
L 90.065455 286.361875 
L 98.181818 150.067848 
L 106.298182 101.557697 
L 114.414545 261.587117 
L 122.530909 139.94955 
L 130.647273 102.949479 
L 138.763636 90.767115 
L 146.88 84.086145 
L 154.996364 79.238215 
L 163.112727 235.776739 
L 171.229091 119.654145 
L 179.345455 90.264527 
L 187.461818 82.696544 
L 195.578182 79.248433 
L 203.694545 224.637921 
L 211.810909 115.760207 
L 219.927273 89.671829 
L 228.043636 83.321267 
L 236.16 125.229437 
L 244.276364 226.472349 
L 252.392727 254.744838 
L 260.509091 189.749438 
L 268.625455 249.108106 
L 276.741818 189.98818 
L 284.858182 251.214125 
L 292.974545 192.886329 
L 301.090909 113.318876 
L 309.207273 225.754473 
L 317.323636 183.642771 
L 325.44 170.663184 
L 333.556364 166.753397 
L 341.672727 165.602685 
L 349.789091 165.266416 
L 357.905455 165.164024 
L 366.021818 165.127509 
L 374.138182 165.109637 
L 382.254545 165.097441 
L 390.370909 165.087393 
" style="fill:none;stroke:#add8e6;stroke-linecap:square;stroke-opacity:0.3;stroke-width:1.5;"/>
   </g>
   <g id="line2d_36">
    <path clip-path="url(#p16903bbfce)" d="M 73.832727 94.6944 
L 81.949091 55.778031 
L 90.065455 176.4445 
L 98.181818 242.525486 
L 106.298182 268.968635 
L 114.414545 281.52129 
L 122.530909 288.384415 
L 130.647273 125.507182 
L 138.763636 241.687152 
L 146.88 275.563756 
L 154.996364 284.260468 
L 163.112727 287.718373 
L 171.229091 289.902898 
L 179.345455 291.586029 
L 187.461818 292.964039 
L 195.578182 294.118736 
L 203.694545 295.099996 
L 211.810909 295.943233 
L 219.927273 296.674908 
L 228.043636 297.315262 
L 236.16 270.095704 
L 244.276364 134.964238 
L 252.392727 256.186996 
L 260.509091 137.963915 
L 268.625455 96.347791 
L 276.741818 84.244607 
L 284.858182 78.436652 
L 292.974545 74.298391 
L 301.090909 142.84991 
L 309.207273 82.988821 
L 317.323636 143.746776 
L 325.44 81.814137 
L 333.556364 140.68091 
L 341.672727 256.546117 
L 349.789091 118.626975 
L 357.905455 158.840211 
L 366.021818 87.100468 
L 374.138182 143.259155 
L 382.254545 169.677492 
L 390.370909 88.426152 
" style="fill:none;stroke:#ff0000;stroke-linecap:square;stroke-opacity:0.1;stroke-width:1.5;"/>
   </g>
   <g id="line2d_37">
    <path clip-path="url(#p16903bbfce)" d="M 73.832727 94.6944 
L 81.949091 252.576338 
L 90.065455 292.144472 
L 98.181818 300.260954 
L 106.298182 302.910455 
L 114.414545 304.183344 
L 122.530909 304.927787 
L 130.647273 305.413463 
L 138.763636 305.753727 
L 146.88 306.004513 
L 154.996364 306.196508 
L 163.112727 172.32003 
L 171.229091 290.074747 
L 179.345455 303.870924 
L 187.461818 305.240943 
L 195.578182 305.525896 
L 203.694545 305.6916 
L 211.810909 182.444927 
L 219.927273 92.643979 
L 228.043636 262.558233 
L 236.16 259.424766 
L 244.276364 129.070103 
L 252.392727 83.164472 
L 260.509091 72.01503 
L 268.625455 67.086311 
L 276.741818 63.744221 
L 284.858182 123.589577 
L 292.974545 68.760784 
L 301.090909 122.688799 
L 309.207273 271.905712 
L 317.323636 119.346643 
L 325.44 69.459256 
L 333.556364 122.75379 
L 341.672727 272.401692 
L 349.789091 122.991708 
L 357.905455 154.404658 
L 366.021818 77.766255 
L 374.138182 128.971296 
L 382.254545 156.993713 
L 390.370909 280.711614 
" style="fill:none;stroke:#ff0000;stroke-linecap:square;stroke-opacity:0.1;stroke-width:1.5;"/>
   </g>
   <g id="line2d_38">
    <path clip-path="url(#p16903bbfce)" d="M 73.832727 94.6944 
L 81.949091 252.576338 
L 90.065455 292.144472 
L 98.181818 300.260954 
L 106.298182 302.910455 
L 114.414545 304.183344 
L 122.530909 304.927787 
L 130.647273 305.413463 
L 138.763636 305.753727 
L 146.88 169.589786 
L 154.996364 288.407332 
L 163.112727 303.04163 
L 171.229091 304.630145 
L 179.345455 305.018164 
L 187.461818 305.256734 
L 195.578182 305.449352 
L 203.694545 305.61253 
L 211.810909 305.752878 
L 219.927273 305.874816 
L 228.043636 305.981672 
L 236.16 293.71776 
L 244.276364 142.967945 
L 252.392727 77.128057 
L 260.509091 257.203825 
L 268.625455 298.744134 
L 276.741818 164.54163 
L 284.858182 86.496972 
L 292.974545 71.023986 
L 301.090909 66.005999 
L 309.207273 62.868404 
L 317.323636 121.408744 
L 325.44 272.975841 
L 333.556364 119.469819 
L 341.672727 68.882021 
L 349.789091 123.767286 
L 357.905455 68.362112 
L 366.021818 120.925426 
L 374.138182 67.03468 
L 382.254545 117.93761 
L 390.370909 65.843936 
" style="fill:none;stroke:#ff0000;stroke-linecap:square;stroke-opacity:0.1;stroke-width:1.5;"/>
   </g>
   <g id="line2d_39">
    <path clip-path="url(#p16903bbfce)" d="M 73.832727 94.6944 
L 81.949091 252.576338 
L 90.065455 292.144472 
L 98.181818 126.426639 
L 106.298182 77.413672 
L 114.414545 237.173291 
L 122.530909 282.35269 
L 130.647273 136.185551 
L 138.763636 250.362508 
L 146.88 278.986376 
L 154.996364 286.424151 
L 163.112727 289.723825 
L 171.229091 158.659031 
L 179.345455 256.80543 
L 187.461818 280.2338 
L 195.578182 285.936751 
L 203.694545 288.214376 
L 211.810909 289.733233 
L 219.927273 290.979528 
L 228.043636 292.058418 
L 236.16 258.949019 
L 244.276364 141.19563 
L 252.392727 101.194667 
L 260.509091 89.355634 
L 268.625455 83.501274 
L 276.741818 155.465757 
L 284.858182 93.601302 
L 292.974545 156.331629 
L 301.090909 92.046437 
L 309.207273 153.055051 
L 317.323636 89.870436 
L 325.44 149.793049 
L 333.556364 87.912668 
L 341.672727 146.830114 
L 349.789091 86.187997 
L 357.905455 144.142458 
L 366.021818 84.658338 
L 374.138182 141.691227 
L 382.254545 83.290651 
L 390.370909 139.443528 
" style="fill:none;stroke:#ff0000;stroke-linecap:square;stroke-opacity:0.1;stroke-width:1.5;"/>
   </g>
   <g id="line2d_40">
    <path clip-path="url(#p16903bbfce)" d="M 73.832727 94.6944 
L 81.949091 252.576338 
L 90.065455 292.144472 
L 98.181818 300.260954 
L 106.298182 302.910455 
L 114.414545 304.183344 
L 122.530909 304.927787 
L 130.647273 305.413463 
L 138.763636 305.753727 
L 146.88 306.004513 
L 154.996364 306.196508 
L 163.112727 306.34791 
L 171.229091 306.470167 
L 179.345455 306.570828 
L 187.461818 173.992491 
L 195.578182 291.444958 
L 203.694545 304.599818 
L 211.810909 180.119129 
L 219.927273 288.993536 
L 228.043636 303.113286 
L 236.16 288.350372 
L 244.276364 170.239007 
L 252.392727 100.48238 
L 260.509091 262.552584 
L 268.625455 151.355676 
L 276.741818 100.017134 
L 284.858182 84.099174 
L 292.974545 245.680988 
L 301.090909 140.09548 
L 309.207273 186.680468 
L 317.323636 111.595024 
L 325.44 171.456413 
L 333.556364 104.694495 
L 341.672727 166.208959 
L 349.789091 101.422594 
L 357.905455 162.73388 
L 366.021818 98.918 
L 374.138182 159.728703 
L 382.254545 96.743156 
L 390.370909 156.988987 
" style="fill:none;stroke:#ff0000;stroke-linecap:square;stroke-opacity:0.1;stroke-width:1.5;"/>
   </g>
   <g id="line2d_41">
    <path clip-path="url(#p16903bbfce)" d="M 73.832727 94.6944 
L 81.949091 252.576338 
L 90.065455 292.144472 
L 98.181818 300.260954 
L 106.298182 302.910455 
L 114.414545 304.183344 
L 122.530909 304.927787 
L 130.647273 305.413463 
L 138.763636 305.753727 
L 146.88 306.004513 
L 154.996364 306.196508 
L 163.112727 306.34791 
L 171.229091 306.470167 
L 179.345455 306.570828 
L 187.461818 306.655066 
L 195.578182 174.190472 
L 203.694545 291.732529 
L 211.810909 304.766168 
L 219.927273 305.928803 
L 228.043636 306.115462 
L 236.16 294.544255 
L 244.276364 144.40796 
L 252.392727 77.333234 
L 260.509091 64.632006 
L 268.625455 59.843386 
L 276.741818 56.892235 
L 284.858182 54.789063 
L 292.974545 53.203795 
L 301.090909 96.520804 
L 309.207273 54.963908 
L 317.323636 94.533331 
L 325.44 54.13601 
L 333.556364 91.681145 
L 341.672727 53.39482 
L 349.789091 89.263704 
L 357.905455 52.782416 
L 366.021818 87.20943 
L 374.138182 52.26687 
L 382.254545 85.434931 
L 390.370909 51.824897 
" style="fill:none;stroke:#ff0000;stroke-linecap:square;stroke-opacity:0.1;stroke-width:1.5;"/>
   </g>
   <g id="line2d_42">
    <path clip-path="url(#p16903bbfce)" d="M 73.832727 94.6944 
L 81.949091 252.576338 
L 90.065455 94.628852 
L 98.181818 242.650083 
L 106.298182 105.912883 
L 114.414545 234.20188 
L 122.530909 268.761481 
L 130.647273 131.167033 
L 138.763636 94.139824 
L 146.88 220.747997 
L 154.996364 256.202136 
L 163.112727 266.573098 
L 171.229091 271.557954 
L 179.345455 145.839404 
L 187.461818 236.430713 
L 195.578182 259.71599 
L 203.694545 266.347797 
L 211.810909 269.437055 
L 219.927273 271.668227 
L 228.043636 156.261506 
L 236.16 188.617212 
L 244.276364 128.566724 
L 252.392727 178.547275 
L 260.509091 124.118008 
L 268.625455 175.253196 
L 276.741818 190.168346 
L 284.858182 124.672766 
L 292.974545 174.237813 
L 301.090909 187.78484 
L 309.207273 191.361918 
L 317.323636 192.283169 
L 325.44 192.520826 
L 333.556364 192.58749 
L 341.672727 192.611985 
L 349.789091 192.625733 
L 357.905455 192.636246 
L 366.021818 192.645339 
L 374.138182 192.6535 
L 382.254545 192.660911 
L 390.370909 192.667673 
" style="fill:none;stroke:#ff0000;stroke-linecap:square;stroke-opacity:0.1;stroke-width:1.5;"/>
   </g>
   <g id="line2d_43">
    <path clip-path="url(#p16903bbfce)" d="M 73.832727 94.6944 
L 81.949091 252.576338 
L 90.065455 292.144472 
L 98.181818 300.260954 
L 106.298182 302.910455 
L 114.414545 304.183344 
L 122.530909 304.927787 
L 130.647273 305.413463 
L 138.763636 167.347202 
L 146.88 287.152786 
L 154.996364 302.432416 
L 163.112727 304.192088 
L 171.229091 304.661343 
L 179.345455 304.956148 
L 187.461818 305.191832 
L 195.578182 180.860056 
L 203.694545 288.003848 
L 211.810909 164.81102 
L 219.927273 280.661959 
L 228.043636 299.29164 
L 236.16 280.375933 
L 244.276364 299.659489 
L 252.392727 188.031904 
L 260.509091 116.532548 
L 268.625455 263.55567 
L 276.741818 161.840547 
L 284.858182 114.334369 
L 292.974545 97.655601 
L 301.090909 173.585638 
L 309.207273 109.812064 
L 317.323636 176.030949 
L 325.44 108.267542 
L 333.556364 172.991673 
L 341.672727 273.80079 
L 349.789091 292.478704 
L 357.905455 169.88597 
L 366.021818 202.149568 
L 374.138182 216.937401 
L 382.254545 281.88307 
L 390.370909 164.34784 
" style="fill:none;stroke:#ff0000;stroke-linecap:square;stroke-opacity:0.1;stroke-width:1.5;"/>
   </g>
   <g id="line2d_44">
    <path clip-path="url(#p16903bbfce)" d="M 73.832727 94.6944 
L 81.949091 252.576338 
L 90.065455 292.144472 
L 98.181818 300.260954 
L 106.298182 302.910455 
L 114.414545 153.099313 
L 122.530909 279.36627 
L 130.647273 298.667582 
L 138.763636 165.802352 
L 146.88 276.652826 
L 154.996364 158.946306 
L 163.112727 268.787221 
L 171.229091 289.768499 
L 179.345455 294.001347 
L 187.461818 295.585964 
L 195.578182 296.644285 
L 203.694545 297.507683 
L 211.810909 298.245586 
L 219.927273 298.885453 
L 228.043636 299.445068 
L 236.16 275.077379 
L 244.276364 167.815172 
L 252.392727 117.085214 
L 260.509091 98.906983 
L 268.625455 89.833665 
L 276.741818 83.590289 
L 284.858182 158.313961 
L 292.974545 276.76229 
L 301.090909 152.598437 
L 309.207273 190.915287 
L 317.323636 110.261051 
L 325.44 171.074325 
L 333.556364 102.44339 
L 341.672727 165.698742 
L 349.789091 192.949465 
L 357.905455 106.999757 
L 366.021818 166.936051 
L 374.138182 191.732807 
L 382.254545 279.586834 
L 390.370909 292.507514 
" style="fill:none;stroke:#ff0000;stroke-linecap:square;stroke-opacity:0.1;stroke-width:1.5;"/>
   </g>
   <g id="line2d_45">
    <path clip-path="url(#p16903bbfce)" d="M 73.832727 94.6944 
L 81.949091 55.778031 
L 90.065455 176.4445 
L 98.181818 71.5872 
L 106.298182 186.722937 
L 114.414545 233.071392 
L 122.530909 252.959409 
L 130.647273 264.638356 
L 138.763636 272.530251 
L 146.88 278.173616 
L 154.996364 121.110837 
L 163.112727 82.123409 
L 171.229091 210.730432 
L 179.345455 106.168094 
L 187.461818 212.478018 
L 195.578182 248.56739 
L 203.694545 259.632789 
L 211.810909 264.161457 
L 219.927273 134.071015 
L 228.043636 220.927715 
L 236.16 198.681314 
L 244.276364 241.212492 
L 252.392727 134.766265 
L 260.509091 169.275841 
L 268.625455 180.865813 
L 276.741818 184.459132 
L 284.858182 185.531309 
L 292.974545 185.850245 
L 301.090909 185.952134 
L 309.207273 185.992571 
L 317.323636 186.015132 
L 325.44 186.031736 
L 333.556364 186.045669 
L 341.672727 186.057921 
L 349.789091 186.068872 
L 357.905455 186.078731 
L 366.021818 186.087646 
L 374.138182 186.095737 
L 382.254545 186.103104 
L 390.370909 186.109832 
" style="fill:none;stroke:#ff0000;stroke-linecap:square;stroke-opacity:0.1;stroke-width:1.5;"/>
   </g>
   <g id="line2d_46">
    <path clip-path="url(#p16903bbfce)" d="M 73.832727 94.6944 
L 81.949091 252.576338 
L 90.065455 94.628852 
L 98.181818 242.650083 
L 106.298182 280.88639 
L 114.414545 291.021164 
L 122.530909 295.490406 
L 130.647273 149.456562 
L 138.763636 263.787369 
L 146.88 287.982002 
L 154.996364 293.2216 
L 163.112727 164.324291 
L 171.229091 108.270071 
L 179.345455 244.886016 
L 187.461818 144.594345 
L 195.578182 248.842281 
L 203.694545 154.203312 
L 211.810909 188.715428 
L 219.927273 259.491002 
L 228.043636 274.790269 
L 236.16 235.679115 
L 244.276364 146.960873 
L 252.392727 190.639074 
L 260.509091 204.787645 
L 268.625455 134.902926 
L 276.741818 186.093393 
L 284.858182 201.14788 
L 292.974545 205.463333 
L 301.090909 206.668565 
L 309.207273 207.003452 
L 317.323636 207.102234 
L 325.44 207.138161 
L 333.556364 207.157039 
L 341.672727 207.170692 
L 349.789091 207.182175 
L 357.905455 207.19234 
L 366.021818 207.201487 
L 374.138182 207.209775 
L 382.254545 207.217315 
L 390.370909 207.224195 
" style="fill:none;stroke:#ff0000;stroke-linecap:square;stroke-opacity:0.1;stroke-width:1.5;"/>
   </g>
   <g id="line2d_47">
    <path clip-path="url(#p16903bbfce)" d="M 73.832727 94.6944 
L 81.949091 252.576338 
L 90.065455 292.144472 
L 98.181818 300.260954 
L 106.298182 302.910455 
L 114.414545 153.099313 
L 122.530909 279.36627 
L 130.647273 298.667582 
L 138.763636 301.604461 
L 146.88 302.643012 
L 154.996364 303.31344 
L 163.112727 175.286754 
L 171.229091 99.494146 
L 179.345455 258.889173 
L 187.461818 293.727955 
L 195.578182 299.288961 
L 203.694545 300.565093 
L 211.810909 301.193208 
L 219.927273 301.672341 
L 228.043636 302.079803 
L 236.16 280.230703 
L 244.276364 299.73354 
L 252.392727 302.30972 
L 260.509091 302.842471 
L 268.625455 303.115089 
L 276.741818 178.318425 
L 284.858182 100.099067 
L 292.974545 258.101973 
L 301.090909 142.374288 
L 309.207273 95.709245 
L 317.323636 247.772528 
L 325.44 141.794546 
L 333.556364 99.625554 
L 341.672727 168.178907 
L 349.789091 104.818225 
L 357.905455 168.250405 
L 366.021818 103.145818 
L 374.138182 165.429451 
L 382.254545 100.874296 
L 390.370909 162.484071 
" style="fill:none;stroke:#ff0000;stroke-linecap:square;stroke-opacity:0.1;stroke-width:1.5;"/>
   </g>
   <g id="line2d_48">
    <path clip-path="url(#p16903bbfce)" d="M 73.832727 94.6944 
L 81.949091 252.576338 
L 90.065455 292.144472 
L 98.181818 300.260954 
L 106.298182 302.910455 
L 114.414545 304.183344 
L 122.530909 304.927787 
L 130.647273 305.413463 
L 138.763636 167.347202 
L 146.88 85.508471 
L 154.996364 258.097667 
L 163.112727 127.928073 
L 171.229091 81.567757 
L 179.345455 241.39937 
L 187.461818 288.548077 
L 195.578182 162.600388 
L 203.694545 264.194227 
L 211.810909 289.102754 
L 219.927273 173.003824 
L 228.043636 262.708833 
L 236.16 242.434707 
L 244.276364 144.50807 
L 252.392727 107.465766 
L 260.509091 168.451203 
L 268.625455 194.663027 
L 276.741818 268.920278 
L 284.858182 157.652544 
L 292.974545 191.121826 
L 301.090909 204.688656 
L 309.207273 209.999705 
L 317.323636 212.017898 
L 325.44 212.770087 
L 333.556364 213.051314 
L 341.672727 213.162061 
L 349.789091 213.212081 
L 357.905455 213.240258 
L 366.021818 213.260052 
L 374.138182 213.276081 
L 382.254545 213.289973 
L 390.370909 213.302359 
" style="fill:none;stroke:#ff0000;stroke-linecap:square;stroke-opacity:0.1;stroke-width:1.5;"/>
   </g>
   <g id="line2d_49">
    <path clip-path="url(#p16903bbfce)" d="M 73.832727 94.6944 
L 81.949091 55.778031 
L 90.065455 176.4445 
L 98.181818 242.525486 
L 106.298182 92.12945 
L 114.414545 67.719641 
L 122.530909 190.922471 
L 130.647273 239.551265 
L 138.763636 257.187475 
L 146.88 266.450769 
L 154.996364 272.713664 
L 163.112727 277.385443 
L 171.229091 123.821956 
L 179.345455 227.472645 
L 187.461818 260.688587 
L 195.578182 270.264678 
L 203.694545 134.416945 
L 211.810909 227.174235 
L 219.927273 255.961834 
L 228.043636 139.42257 
L 236.16 172.471719 
L 244.276364 233.327651 
L 252.392727 139.178938 
L 260.509091 173.410797 
L 268.625455 184.892087 
L 276.741818 188.470613 
L 284.858182 189.54581 
L 292.974545 189.867931 
L 301.090909 189.971447 
L 309.207273 190.012616 
L 317.323636 190.035533 
L 325.44 190.052348 
L 333.556364 190.066434 
L 341.672727 190.07881 
L 349.789091 190.089867 
L 357.905455 190.099818 
L 366.021818 190.108815 
L 374.138182 190.116978 
L 382.254545 190.12441 
L 390.370909 190.131195 
" style="fill:none;stroke:#ff0000;stroke-linecap:square;stroke-opacity:0.1;stroke-width:1.5;"/>
   </g>
   <g id="line2d_50">
    <path clip-path="url(#p16903bbfce)" d="M 73.832727 94.6944 
L 81.949091 252.576338 
L 90.065455 292.144472 
L 98.181818 300.260954 
L 106.298182 302.910455 
L 114.414545 304.183344 
L 122.530909 304.927787 
L 130.647273 305.413463 
L 138.763636 305.753727 
L 146.88 306.004513 
L 154.996364 306.196508 
L 163.112727 306.34791 
L 171.229091 306.470167 
L 179.345455 306.570828 
L 187.461818 306.655066 
L 195.578182 306.726539 
L 203.694545 306.787902 
L 211.810909 306.841131 
L 219.927273 306.887722 
L 228.043636 174.089499 
L 236.16 211.651321 
L 244.276364 86.396032 
L 252.392727 271.163359 
L 260.509091 121.725666 
L 268.625455 74.267886 
L 276.741818 250.323068 
L 284.858182 114.207542 
L 292.974545 75.204463 
L 301.090909 67.630534 
L 309.207273 127.350564 
L 317.323636 272.492135 
L 325.44 300.419545 
L 333.556364 164.247031 
L 341.672727 276.673721 
L 349.789091 141.245649 
L 357.905455 264.760155 
L 366.021818 139.521335 
L 374.138182 176.090167 
L 382.254545 96.923071 
L 390.370909 152.513495 
" style="fill:none;stroke:#ff0000;stroke-linecap:square;stroke-opacity:0.1;stroke-width:1.5;"/>
   </g>
   <g id="line2d_51">
    <path clip-path="url(#p16903bbfce)" d="M 73.832727 94.6944 
L 81.949091 252.576338 
L 90.065455 292.144472 
L 98.181818 300.260954 
L 106.298182 302.910455 
L 114.414545 304.183344 
L 122.530909 304.927787 
L 130.647273 305.413463 
L 138.763636 305.753727 
L 146.88 306.004513 
L 154.996364 306.196508 
L 163.112727 306.34791 
L 171.229091 306.470167 
L 179.345455 306.570828 
L 187.461818 306.655066 
L 195.578182 306.726539 
L 203.694545 306.787902 
L 211.810909 174.275476 
L 219.927273 292.154138 
L 228.043636 149.956081 
L 236.16 199.362435 
L 244.276364 94.528857 
L 252.392727 72.038823 
L 260.509091 65.346802 
L 268.625455 61.524358 
L 276.741818 58.799759 
L 284.858182 233.113581 
L 292.974545 92.797088 
L 301.090909 244.117475 
L 309.207273 106.185121 
L 317.323636 144.534643 
L 325.44 268.96712 
L 333.556364 127.583772 
L 341.672727 160.103473 
L 349.789091 81.834613 
L 357.905455 133.662982 
L 366.021818 163.327554 
L 374.138182 81.640729 
L 382.254545 133.420951 
L 390.370909 162.047462 
" style="fill:none;stroke:#ff0000;stroke-linecap:square;stroke-opacity:0.1;stroke-width:1.5;"/>
   </g>
   <g id="line2d_52">
    <path clip-path="url(#p16903bbfce)" d="M 73.832727 94.6944 
L 81.949091 252.576338 
L 90.065455 292.144472 
L 98.181818 300.260954 
L 106.298182 302.910455 
L 114.414545 153.099313 
L 122.530909 84.669284 
L 130.647273 67.129423 
L 138.763636 238.105842 
L 146.88 289.414477 
L 154.996364 298.134185 
L 163.112727 300.306005 
L 171.229091 301.398424 
L 179.345455 302.174537 
L 187.461818 164.956755 
L 195.578182 273.862439 
L 203.694545 296.152185 
L 211.810909 299.941377 
L 219.927273 300.94829 
L 228.043636 301.50605 
L 236.16 276.256392 
L 244.276364 136.294277 
L 252.392727 81.807925 
L 260.509091 70.06289 
L 268.625455 65.766006 
L 276.741818 128.095565 
L 284.858182 71.972604 
L 292.974545 127.833279 
L 301.090909 269.021066 
L 309.207273 120.775908 
L 317.323636 72.395875 
L 325.44 127.550949 
L 333.556364 269.03252 
L 341.672727 123.828426 
L 349.789091 156.005336 
L 357.905455 81.530445 
L 366.021818 133.595779 
L 374.138182 160.633528 
L 382.254545 81.668968 
L 390.370909 133.34016 
" style="fill:none;stroke:#ff0000;stroke-linecap:square;stroke-opacity:0.1;stroke-width:1.5;"/>
   </g>
   <g id="line2d_53">
    <path clip-path="url(#p16903bbfce)" d="M 73.832727 94.6944 
L 81.949091 252.576338 
L 90.065455 292.144472 
L 98.181818 300.260954 
L 106.298182 143.103849 
L 114.414545 273.544676 
L 122.530909 295.786355 
L 130.647273 299.711339 
L 138.763636 165.533475 
L 146.88 275.357804 
L 154.996364 294.395452 
L 163.112727 297.87768 
L 171.229091 299.175746 
L 179.345455 300.046221 
L 187.461818 300.743108 
L 195.578182 301.324671 
L 203.694545 301.817908 
L 211.810909 302.240947 
L 219.927273 180.517706 
L 228.043636 281.616892 
L 236.16 268.101357 
L 244.276364 163.144981 
L 252.392727 114.271074 
L 260.509091 96.678542 
L 268.625455 87.813159 
L 276.741818 81.713277 
L 284.858182 155.423462 
L 292.974545 276.944497 
L 301.090909 152.106859 
L 309.207273 270.421279 
L 317.323636 155.67731 
L 325.44 192.471151 
L 333.556364 209.883457 
L 341.672727 217.905594 
L 349.789091 221.495329 
L 357.905455 223.062572 
L 366.021818 223.73614 
L 374.138182 224.026073 
L 382.254545 224.155282 
L 390.370909 224.21825 
" style="fill:none;stroke:#ff0000;stroke-linecap:square;stroke-opacity:0.1;stroke-width:1.5;"/>
   </g>
   <g id="line2d_54">
    <path clip-path="url(#p16903bbfce)" d="M 73.832727 94.6944 
L 81.949091 55.778031 
L 90.065455 176.4445 
L 98.181818 242.525486 
L 106.298182 268.968635 
L 114.414545 281.52129 
L 122.530909 288.384415 
L 130.647273 292.545883 
L 138.763636 295.280148 
L 146.88 297.193015 
L 154.996364 137.716801 
L 163.112727 255.455045 
L 171.229091 286.484104 
L 179.345455 145.960116 
L 187.461818 92.532551 
L 195.578182 228.73913 
L 203.694545 124.310667 
L 211.810909 92.120366 
L 219.927273 220.217135 
L 228.043636 264.411161 
L 236.16 231.677986 
L 244.276364 127.398272 
L 252.392727 96.665583 
L 260.509091 155.213479 
L 268.625455 245.555807 
L 276.741818 133.575428 
L 284.858182 170.641744 
L 292.974545 185.536297 
L 301.090909 191.279683 
L 309.207273 193.42563 
L 317.323636 194.211301 
L 325.44 194.499763 
L 333.556364 194.611504 
L 341.672727 194.661444 
L 349.789091 194.689532 
L 357.905455 194.709329 
L 366.021818 194.725407 
L 374.138182 194.739354 
L 382.254545 194.751784 
L 390.370909 194.762994 
" style="fill:none;stroke:#ff0000;stroke-linecap:square;stroke-opacity:0.1;stroke-width:1.5;"/>
   </g>
   <g id="line2d_55">
    <path clip-path="url(#p16903bbfce)" d="M 73.832727 94.6944 
L 81.949091 252.576338 
L 90.065455 94.628852 
L 98.181818 242.650083 
L 106.298182 280.88639 
L 114.414545 129.093629 
L 122.530909 248.086285 
L 130.647273 276.884872 
L 138.763636 284.772789 
L 146.88 288.609053 
L 154.996364 291.236569 
L 163.112727 158.694377 
L 171.229091 260.155306 
L 179.345455 282.567019 
L 187.461818 287.710119 
L 195.578182 289.765876 
L 203.694545 169.605317 
L 211.810909 261.521489 
L 219.927273 281.642167 
L 228.043636 286.152749 
L 236.16 254.087241 
L 244.276364 163.740866 
L 252.392727 129.825659 
L 260.509091 193.517423 
L 268.625455 135.97018 
L 276.741818 193.347999 
L 284.858182 133.436976 
L 292.974545 190.527907 
L 301.090909 263.320847 
L 309.207273 160.398185 
L 317.323636 199.420324 
L 325.44 211.617135 
L 333.556364 215.299588 
L 341.672727 216.384206 
L 349.789091 216.701643 
L 357.905455 216.798732 
L 366.021818 216.833721 
L 374.138182 216.851103 
L 382.254545 216.863096 
L 390.370909 216.873026 
" style="fill:none;stroke:#ff0000;stroke-linecap:square;stroke-opacity:0.1;stroke-width:1.5;"/>
   </g>
   <g id="line2d_56">
    <path clip-path="url(#p16903bbfce)" d="M 73.832727 267.6672 
L 81.949091 165.680664 
L 90.065455 139.879605 
L 98.181818 113.663673 
L 106.298182 120.748339 
L 114.414545 129.347882 
L 122.530909 95.354194 
L 130.647273 118.660747 
L 138.763636 124.421972 
L 146.88 99.781621 
L 154.996364 100.75442 
L 163.112727 124.85957 
L 171.229091 123.620241 
L 179.345455 107.096071 
L 187.461818 111.626081 
L 195.578182 104.502932 
L 203.694545 105.287222 
L 211.810909 123.031075 
L 219.927273 113.277483 
L 228.043636 112.684551 
L 236.16 125.041278 
L 244.276364 219.323729 
L 252.392727 237.689325 
L 260.509091 230.24496 
L 268.625455 226.233137 
L 276.741818 232.62717 
L 284.858182 246.909134 
L 292.974545 216.060815 
L 301.090909 213.374031 
L 309.207273 218.581851 
L 317.323636 215.177572 
L 325.44 200.453894 
L 333.556364 217.526914 
L 341.672727 188.514697 
L 349.789091 215.009025 
L 357.905455 211.52848 
L 366.021818 222.12081 
L 374.138182 210.6351 
L 382.254545 210.177773 
L 390.370909 201.82491 
" style="fill:none;stroke:#1f77b4;stroke-linecap:square;stroke-width:1.5;"/>
   </g>
   <g id="line2d_57">
    <path clip-path="url(#p16903bbfce)" d="M 73.832727 94.6944 
L 81.949091 213.216677 
L 90.065455 239.377134 
L 98.181818 262.8336 
L 106.298182 251.850392 
L 114.414545 246.081647 
L 122.530909 274.697602 
L 130.647273 251.171017 
L 138.763636 250.000521 
L 146.88 270.502415 
L 154.996364 268.879778 
L 163.112727 247.856449 
L 171.229091 245.311661 
L 179.345455 261.896197 
L 187.461818 258.042061 
L 195.578182 266.529769 
L 203.694545 263.064221 
L 211.810909 249.927055 
L 219.927273 256.943919 
L 228.043636 258.990108 
L 236.16 248.989334 
L 244.276364 164.806609 
L 252.392727 140.964319 
L 260.509091 147.229664 
L 268.625455 147.742872 
L 276.741818 145.631085 
L 284.858182 131.555318 
L 292.974545 159.860206 
L 301.090909 164.565395 
L 309.207273 158.591295 
L 317.323636 162.037552 
L 325.44 175.240497 
L 333.556364 160.590963 
L 341.672727 187.529025 
L 349.789091 161.682874 
L 357.905455 164.508674 
L 366.021818 154.492631 
L 374.138182 165.519231 
L 382.254545 165.480031 
L 390.370909 173.788459 
" style="fill:none;stroke:#ff0000;stroke-linecap:square;stroke-width:1.5;"/>
   </g>
   <g id="patch_5">
    <path d="M 57.6 307.584 
L 57.6 41.472 
" style="fill:none;stroke:#000000;stroke-linecap:square;stroke-linejoin:miter;stroke-width:0.8;"/>
   </g>
   <g id="patch_6">
    <path d="M 414.72 307.584 
L 414.72 41.472 
" style="fill:none;stroke:#000000;stroke-linecap:square;stroke-linejoin:miter;stroke-width:0.8;"/>
   </g>
   <g id="patch_7">
    <path d="M 57.6 307.584 
L 414.72 307.584 
" style="fill:none;stroke:#000000;stroke-linecap:square;stroke-linejoin:miter;stroke-width:0.8;"/>
   </g>
   <g id="patch_8">
    <path d="M 57.6 41.472 
L 414.72 41.472 
" style="fill:none;stroke:#000000;stroke-linecap:square;stroke-linejoin:miter;stroke-width:0.8;"/>
   </g>
   <g id="text_18">
    <!-- Type1_depressed -->
    <g transform="translate(184.4775 35.472)scale(0.12 -0.12)">
     <defs>
      <path d="M -19 4666 
L 3928 4666 
L 3928 4134 
L 2272 4134 
L 2272 0 
L 1638 0 
L 1638 4134 
L -19 4134 
L -19 4666 
z
" id="DejaVuSans-54" transform="scale(0.015625)"/>
      <path d="M 2059 -325 
Q 1816 -950 1584 -1140 
Q 1353 -1331 966 -1331 
L 506 -1331 
L 506 -850 
L 844 -850 
Q 1081 -850 1212 -737 
Q 1344 -625 1503 -206 
L 1606 56 
L 191 3500 
L 800 3500 
L 1894 763 
L 2988 3500 
L 3597 3500 
L 2059 -325 
z
" id="DejaVuSans-79" transform="scale(0.015625)"/>
      <path d="M 3263 -1063 
L 3263 -1509 
L -63 -1509 
L -63 -1063 
L 3263 -1063 
z
" id="DejaVuSans-5f" transform="scale(0.015625)"/>
      <path d="M 2906 2969 
L 2906 4863 
L 3481 4863 
L 3481 0 
L 2906 0 
L 2906 525 
Q 2725 213 2448 61 
Q 2172 -91 1784 -91 
Q 1150 -91 751 415 
Q 353 922 353 1747 
Q 353 2572 751 3078 
Q 1150 3584 1784 3584 
Q 2172 3584 2448 3432 
Q 2725 3281 2906 2969 
z
M 947 1747 
Q 947 1113 1208 752 
Q 1469 391 1925 391 
Q 2381 391 2643 752 
Q 2906 1113 2906 1747 
Q 2906 2381 2643 2742 
Q 2381 3103 1925 3103 
Q 1469 3103 1208 2742 
Q 947 2381 947 1747 
z
" id="DejaVuSans-64" transform="scale(0.015625)"/>
      <path d="M 2631 2963 
Q 2534 3019 2420 3045 
Q 2306 3072 2169 3072 
Q 1681 3072 1420 2755 
Q 1159 2438 1159 1844 
L 1159 0 
L 581 0 
L 581 3500 
L 1159 3500 
L 1159 2956 
Q 1341 3275 1631 3429 
Q 1922 3584 2338 3584 
Q 2397 3584 2469 3576 
Q 2541 3569 2628 3553 
L 2631 2963 
z
" id="DejaVuSans-72" transform="scale(0.015625)"/>
      <path d="M 2834 3397 
L 2834 2853 
Q 2591 2978 2328 3040 
Q 2066 3103 1784 3103 
Q 1356 3103 1142 2972 
Q 928 2841 928 2578 
Q 928 2378 1081 2264 
Q 1234 2150 1697 2047 
L 1894 2003 
Q 2506 1872 2764 1633 
Q 3022 1394 3022 966 
Q 3022 478 2636 193 
Q 2250 -91 1575 -91 
Q 1294 -91 989 -36 
Q 684 19 347 128 
L 347 722 
Q 666 556 975 473 
Q 1284 391 1588 391 
Q 1994 391 2212 530 
Q 2431 669 2431 922 
Q 2431 1156 2273 1281 
Q 2116 1406 1581 1522 
L 1381 1569 
Q 847 1681 609 1914 
Q 372 2147 372 2553 
Q 372 3047 722 3315 
Q 1072 3584 1716 3584 
Q 2034 3584 2315 3537 
Q 2597 3491 2834 3397 
z
" id="DejaVuSans-73" transform="scale(0.015625)"/>
     </defs>
     <use xlink:href="#DejaVuSans-54"/>
     <use x="45.458984" xlink:href="#DejaVuSans-79"/>
     <use x="104.638672" xlink:href="#DejaVuSans-70"/>
     <use x="168.115234" xlink:href="#DejaVuSans-65"/>
     <use x="229.638672" xlink:href="#DejaVuSans-31"/>
     <use x="293.261719" xlink:href="#DejaVuSans-5f"/>
     <use x="343.261719" xlink:href="#DejaVuSans-64"/>
     <use x="406.738281" xlink:href="#DejaVuSans-65"/>
     <use x="468.261719" xlink:href="#DejaVuSans-70"/>
     <use x="531.738281" xlink:href="#DejaVuSans-72"/>
     <use x="570.601562" xlink:href="#DejaVuSans-65"/>
     <use x="632.125" xlink:href="#DejaVuSans-73"/>
     <use x="684.224609" xlink:href="#DejaVuSans-73"/>
     <use x="736.324219" xlink:href="#DejaVuSans-65"/>
     <use x="797.847656" xlink:href="#DejaVuSans-64"/>
    </g>
   </g>
   <g id="legend_1">
    <g id="patch_9">
     <path d="M 351.635625 78.82825 
L 407.72 78.82825 
Q 409.72 78.82825 409.72 76.82825 
L 409.72 48.472 
Q 409.72 46.472 407.72 46.472 
L 351.635625 46.472 
Q 349.635625 46.472 349.635625 48.472 
L 349.635625 76.82825 
Q 349.635625 78.82825 351.635625 78.82825 
z
" style="fill:#ffffff;opacity:0.8;stroke:#cccccc;stroke-linejoin:miter;"/>
    </g>
    <g id="line2d_58">
     <path d="M 353.635625 54.570437 
L 373.635625 54.570437 
" style="fill:none;stroke:#1f77b4;stroke-linecap:square;stroke-width:1.5;"/>
    </g>
    <g id="line2d_59"/>
    <g id="text_19">
     <!-- coop -->
     <g transform="translate(381.635625 58.070437)scale(0.1 -0.1)">
      <use xlink:href="#DejaVuSans-63"/>
      <use x="54.980469" xlink:href="#DejaVuSans-6f"/>
      <use x="116.162109" xlink:href="#DejaVuSans-6f"/>
      <use x="177.34375" xlink:href="#DejaVuSans-70"/>
     </g>
    </g>
    <g id="line2d_60">
     <path d="M 353.635625 69.248562 
L 373.635625 69.248562 
" style="fill:none;stroke:#ff0000;stroke-linecap:square;stroke-width:1.5;"/>
    </g>
    <g id="line2d_61"/>
    <g id="text_20">
     <!-- host -->
     <g transform="translate(381.635625 72.748562)scale(0.1 -0.1)">
      <defs>
       <path d="M 3513 2113 
L 3513 0 
L 2938 0 
L 2938 2094 
Q 2938 2591 2744 2837 
Q 2550 3084 2163 3084 
Q 1697 3084 1428 2787 
Q 1159 2491 1159 1978 
L 1159 0 
L 581 0 
L 581 4863 
L 1159 4863 
L 1159 2956 
Q 1366 3272 1645 3428 
Q 1925 3584 2291 3584 
Q 2894 3584 3203 3211 
Q 3513 2838 3513 2113 
z
" id="DejaVuSans-68" transform="scale(0.015625)"/>
      </defs>
      <use xlink:href="#DejaVuSans-68"/>
      <use x="63.378906" xlink:href="#DejaVuSans-6f"/>
      <use x="124.560547" xlink:href="#DejaVuSans-73"/>
      <use x="176.660156" xlink:href="#DejaVuSans-74"/>
     </g>
    </g>
   </g>
  </g>
 </g>
 <defs>
  <clipPath id="p16903bbfce">
   <rect height="266.112" width="357.12" x="57.6" y="41.472"/>
  </clipPath>
 </defs>
</svg>
