<?xml version="1.0" encoding="utf-8" standalone="no"?>
<!DOCTYPE svg PUBLIC "-//W3C//DTD SVG 1.1//EN"
  "http://www.w3.org/Graphics/SVG/1.1/DTD/svg11.dtd">
<svg height="345.6pt" version="1.1" viewBox="0 0 460.8 345.6" width="460.8pt" xmlns="http://www.w3.org/2000/svg" xmlns:xlink="http://www.w3.org/1999/xlink">
 <metadata>
  <rdf:RDF xmlns:cc="http://creativecommons.org/ns#" xmlns:dc="http://purl.org/dc/elements/1.1/" xmlns:rdf="http://www.w3.org/1999/02/22-rdf-syntax-ns#">
   <cc:Work>
    <dc:type rdf:resource="http://purl.org/dc/dcmitype/StillImage"/>
    <dc:date>2023-10-20T11:35:47.573723</dc:date>
    <dc:format>image/svg+xml</dc:format>
    <dc:creator>
     <cc:Agent>
      <dc:title>Matplotlib v3.4.1, https://matplotlib.org/</dc:title>
     </cc:Agent>
    </dc:creator>
   </cc:Work>
  </rdf:RDF>
 </metadata>
 <defs>
  <style type="text/css">*{stroke-linecap:butt;stroke-linejoin:round;}</style>
 </defs>
 <g id="figure_1">
  <g id="patch_1">
   <path d="M 0 345.6 
L 460.8 345.6 
L 460.8 0 
L 0 0 
z
" style="fill:#ffffff;"/>
  </g>
  <g id="axes_1">
   <g id="patch_2">
    <path d="M 57.6 307.584 
L 414.72 307.584 
L 414.72 41.472 
L 57.6 41.472 
z
" style="fill:#ffffff;"/>
   </g>
   <g id="patch_3">
    <path clip-path="url(#p2bdb95d076)" d="M 73.832727 307.584 
L 73.832727 41.472 
L 236.16 41.472 
L 236.16 307.584 
z
" style="fill:#ff7f50;opacity:0.2;"/>
   </g>
   <g id="patch_4">
    <path clip-path="url(#p2bdb95d076)" d="M 236.16 307.584 
L 236.16 41.472 
L 398.487273 41.472 
L 398.487273 307.584 
z
" style="fill:#add8e6;opacity:0.2;"/>
   </g>
   <g id="matplotlib.axis_1">
    <g id="xtick_1">
     <g id="line2d_1">
      <defs>
       <path d="M 0 0 
L 0 3.5 
" id="m5435608731" style="stroke:#000000;stroke-width:0.8;"/>
      </defs>
      <g>
       <use style="stroke:#000000;stroke-width:0.8;" x="73.832727" xlink:href="#m5435608731" y="307.584"/>
      </g>
     </g>
     <g id="text_1">
      <!-- 0 -->
      <g transform="translate(70.651477 322.182437)scale(0.1 -0.1)">
       <defs>
        <path d="M 2034 4250 
Q 1547 4250 1301 3770 
Q 1056 3291 1056 2328 
Q 1056 1369 1301 889 
Q 1547 409 2034 409 
Q 2525 409 2770 889 
Q 3016 1369 3016 2328 
Q 3016 3291 2770 3770 
Q 2525 4250 2034 4250 
z
M 2034 4750 
Q 2819 4750 3233 4129 
Q 3647 3509 3647 2328 
Q 3647 1150 3233 529 
Q 2819 -91 2034 -91 
Q 1250 -91 836 529 
Q 422 1150 422 2328 
Q 422 3509 836 4129 
Q 1250 4750 2034 4750 
z
" id="DejaVuSans-30" transform="scale(0.015625)"/>
       </defs>
       <use xlink:href="#DejaVuSans-30"/>
      </g>
     </g>
    </g>
    <g id="xtick_2">
     <g id="line2d_2">
      <g>
       <use style="stroke:#000000;stroke-width:0.8;" x="114.414545" xlink:href="#m5435608731" y="307.584"/>
      </g>
     </g>
     <g id="text_2">
      <!-- 5 -->
      <g transform="translate(111.233295 322.182437)scale(0.1 -0.1)">
       <defs>
        <path d="M 691 4666 
L 3169 4666 
L 3169 4134 
L 1269 4134 
L 1269 2991 
Q 1406 3038 1543 3061 
Q 1681 3084 1819 3084 
Q 2600 3084 3056 2656 
Q 3513 2228 3513 1497 
Q 3513 744 3044 326 
Q 2575 -91 1722 -91 
Q 1428 -91 1123 -41 
Q 819 9 494 109 
L 494 744 
Q 775 591 1075 516 
Q 1375 441 1709 441 
Q 2250 441 2565 725 
Q 2881 1009 2881 1497 
Q 2881 1984 2565 2268 
Q 2250 2553 1709 2553 
Q 1456 2553 1204 2497 
Q 953 2441 691 2322 
L 691 4666 
z
" id="DejaVuSans-35" transform="scale(0.015625)"/>
       </defs>
       <use xlink:href="#DejaVuSans-35"/>
      </g>
     </g>
    </g>
    <g id="xtick_3">
     <g id="line2d_3">
      <g>
       <use style="stroke:#000000;stroke-width:0.8;" x="154.996364" xlink:href="#m5435608731" y="307.584"/>
      </g>
     </g>
     <g id="text_3">
      <!-- 10 -->
      <g transform="translate(148.633864 322.182437)scale(0.1 -0.1)">
       <defs>
        <path d="M 794 531 
L 1825 531 
L 1825 4091 
L 703 3866 
L 703 4441 
L 1819 4666 
L 2450 4666 
L 2450 531 
L 3481 531 
L 3481 0 
L 794 0 
L 794 531 
z
" id="DejaVuSans-31" transform="scale(0.015625)"/>
       </defs>
       <use xlink:href="#DejaVuSans-31"/>
       <use x="63.623047" xlink:href="#DejaVuSans-30"/>
      </g>
     </g>
    </g>
    <g id="xtick_4">
     <g id="line2d_4">
      <g>
       <use style="stroke:#000000;stroke-width:0.8;" x="195.578182" xlink:href="#m5435608731" y="307.584"/>
      </g>
     </g>
     <g id="text_4">
      <!-- 15 -->
      <g transform="translate(189.215682 322.182437)scale(0.1 -0.1)">
       <use xlink:href="#DejaVuSans-31"/>
       <use x="63.623047" xlink:href="#DejaVuSans-35"/>
      </g>
     </g>
    </g>
    <g id="xtick_5">
     <g id="line2d_5">
      <g>
       <use style="stroke:#000000;stroke-width:0.8;" x="236.16" xlink:href="#m5435608731" y="307.584"/>
      </g>
     </g>
     <g id="text_5">
      <!-- 20 -->
      <g transform="translate(229.7975 322.182437)scale(0.1 -0.1)">
       <defs>
        <path d="M 1228 531 
L 3431 531 
L 3431 0 
L 469 0 
L 469 531 
Q 828 903 1448 1529 
Q 2069 2156 2228 2338 
Q 2531 2678 2651 2914 
Q 2772 3150 2772 3378 
Q 2772 3750 2511 3984 
Q 2250 4219 1831 4219 
Q 1534 4219 1204 4116 
Q 875 4013 500 3803 
L 500 4441 
Q 881 4594 1212 4672 
Q 1544 4750 1819 4750 
Q 2544 4750 2975 4387 
Q 3406 4025 3406 3419 
Q 3406 3131 3298 2873 
Q 3191 2616 2906 2266 
Q 2828 2175 2409 1742 
Q 1991 1309 1228 531 
z
" id="DejaVuSans-32" transform="scale(0.015625)"/>
       </defs>
       <use xlink:href="#DejaVuSans-32"/>
       <use x="63.623047" xlink:href="#DejaVuSans-30"/>
      </g>
     </g>
    </g>
    <g id="xtick_6">
     <g id="line2d_6">
      <g>
       <use style="stroke:#000000;stroke-width:0.8;" x="276.741818" xlink:href="#m5435608731" y="307.584"/>
      </g>
     </g>
     <g id="text_6">
      <!-- 25 -->
      <g transform="translate(270.379318 322.182437)scale(0.1 -0.1)">
       <use xlink:href="#DejaVuSans-32"/>
       <use x="63.623047" xlink:href="#DejaVuSans-35"/>
      </g>
     </g>
    </g>
    <g id="xtick_7">
     <g id="line2d_7">
      <g>
       <use style="stroke:#000000;stroke-width:0.8;" x="317.323636" xlink:href="#m5435608731" y="307.584"/>
      </g>
     </g>
     <g id="text_7">
      <!-- 30 -->
      <g transform="translate(310.961136 322.182437)scale(0.1 -0.1)">
       <defs>
        <path d="M 2597 2516 
Q 3050 2419 3304 2112 
Q 3559 1806 3559 1356 
Q 3559 666 3084 287 
Q 2609 -91 1734 -91 
Q 1441 -91 1130 -33 
Q 819 25 488 141 
L 488 750 
Q 750 597 1062 519 
Q 1375 441 1716 441 
Q 2309 441 2620 675 
Q 2931 909 2931 1356 
Q 2931 1769 2642 2001 
Q 2353 2234 1838 2234 
L 1294 2234 
L 1294 2753 
L 1863 2753 
Q 2328 2753 2575 2939 
Q 2822 3125 2822 3475 
Q 2822 3834 2567 4026 
Q 2313 4219 1838 4219 
Q 1578 4219 1281 4162 
Q 984 4106 628 3988 
L 628 4550 
Q 988 4650 1302 4700 
Q 1616 4750 1894 4750 
Q 2613 4750 3031 4423 
Q 3450 4097 3450 3541 
Q 3450 3153 3228 2886 
Q 3006 2619 2597 2516 
z
" id="DejaVuSans-33" transform="scale(0.015625)"/>
       </defs>
       <use xlink:href="#DejaVuSans-33"/>
       <use x="63.623047" xlink:href="#DejaVuSans-30"/>
      </g>
     </g>
    </g>
    <g id="xtick_8">
     <g id="line2d_8">
      <g>
       <use style="stroke:#000000;stroke-width:0.8;" x="357.905455" xlink:href="#m5435608731" y="307.584"/>
      </g>
     </g>
     <g id="text_8">
      <!-- 35 -->
      <g transform="translate(351.542955 322.182437)scale(0.1 -0.1)">
       <use xlink:href="#DejaVuSans-33"/>
       <use x="63.623047" xlink:href="#DejaVuSans-35"/>
      </g>
     </g>
    </g>
    <g id="xtick_9">
     <g id="line2d_9">
      <g>
       <use style="stroke:#000000;stroke-width:0.8;" x="398.487273" xlink:href="#m5435608731" y="307.584"/>
      </g>
     </g>
     <g id="text_9">
      <!-- 40 -->
      <g transform="translate(392.124773 322.182437)scale(0.1 -0.1)">
       <defs>
        <path d="M 2419 4116 
L 825 1625 
L 2419 1625 
L 2419 4116 
z
M 2253 4666 
L 3047 4666 
L 3047 1625 
L 3713 1625 
L 3713 1100 
L 3047 1100 
L 3047 0 
L 2419 0 
L 2419 1100 
L 313 1100 
L 313 1709 
L 2253 4666 
z
" id="DejaVuSans-34" transform="scale(0.015625)"/>
       </defs>
       <use xlink:href="#DejaVuSans-34"/>
       <use x="63.623047" xlink:href="#DejaVuSans-30"/>
      </g>
     </g>
    </g>
    <g id="text_10">
     <!-- t -->
     <g transform="translate(234.199844 335.860562)scale(0.1 -0.1)">
      <defs>
       <path d="M 1172 4494 
L 1172 3500 
L 2356 3500 
L 2356 3053 
L 1172 3053 
L 1172 1153 
Q 1172 725 1289 603 
Q 1406 481 1766 481 
L 2356 481 
L 2356 0 
L 1766 0 
Q 1100 0 847 248 
Q 594 497 594 1153 
L 594 3053 
L 172 3053 
L 172 3500 
L 594 3500 
L 594 4494 
L 1172 4494 
z
" id="DejaVuSans-74" transform="scale(0.015625)"/>
      </defs>
      <use xlink:href="#DejaVuSans-74"/>
     </g>
    </g>
   </g>
   <g id="matplotlib.axis_2">
    <g id="ytick_1">
     <g id="line2d_10">
      <defs>
       <path d="M 0 0 
L -3.5 0 
" id="m7de1f025ff" style="stroke:#000000;stroke-width:0.8;"/>
      </defs>
      <g>
       <use style="stroke:#000000;stroke-width:0.8;" x="57.6" xlink:href="#m7de1f025ff" y="307.584"/>
      </g>
     </g>
     <g id="text_11">
      <!-- 0.0 -->
      <g transform="translate(34.696875 311.383219)scale(0.1 -0.1)">
       <defs>
        <path d="M 684 794 
L 1344 794 
L 1344 0 
L 684 0 
L 684 794 
z
" id="DejaVuSans-2e" transform="scale(0.015625)"/>
       </defs>
       <use xlink:href="#DejaVuSans-30"/>
       <use x="63.623047" xlink:href="#DejaVuSans-2e"/>
       <use x="95.410156" xlink:href="#DejaVuSans-30"/>
      </g>
     </g>
    </g>
    <g id="ytick_2">
     <g id="line2d_11">
      <g>
       <use style="stroke:#000000;stroke-width:0.8;" x="57.6" xlink:href="#m7de1f025ff" y="254.3616"/>
      </g>
     </g>
     <g id="text_12">
      <!-- 0.2 -->
      <g transform="translate(34.696875 258.160819)scale(0.1 -0.1)">
       <use xlink:href="#DejaVuSans-30"/>
       <use x="63.623047" xlink:href="#DejaVuSans-2e"/>
       <use x="95.410156" xlink:href="#DejaVuSans-32"/>
      </g>
     </g>
    </g>
    <g id="ytick_3">
     <g id="line2d_12">
      <g>
       <use style="stroke:#000000;stroke-width:0.8;" x="57.6" xlink:href="#m7de1f025ff" y="201.1392"/>
      </g>
     </g>
     <g id="text_13">
      <!-- 0.4 -->
      <g transform="translate(34.696875 204.938419)scale(0.1 -0.1)">
       <use xlink:href="#DejaVuSans-30"/>
       <use x="63.623047" xlink:href="#DejaVuSans-2e"/>
       <use x="95.410156" xlink:href="#DejaVuSans-34"/>
      </g>
     </g>
    </g>
    <g id="ytick_4">
     <g id="line2d_13">
      <g>
       <use style="stroke:#000000;stroke-width:0.8;" x="57.6" xlink:href="#m7de1f025ff" y="147.9168"/>
      </g>
     </g>
     <g id="text_14">
      <!-- 0.6 -->
      <g transform="translate(34.696875 151.716019)scale(0.1 -0.1)">
       <defs>
        <path d="M 2113 2584 
Q 1688 2584 1439 2293 
Q 1191 2003 1191 1497 
Q 1191 994 1439 701 
Q 1688 409 2113 409 
Q 2538 409 2786 701 
Q 3034 994 3034 1497 
Q 3034 2003 2786 2293 
Q 2538 2584 2113 2584 
z
M 3366 4563 
L 3366 3988 
Q 3128 4100 2886 4159 
Q 2644 4219 2406 4219 
Q 1781 4219 1451 3797 
Q 1122 3375 1075 2522 
Q 1259 2794 1537 2939 
Q 1816 3084 2150 3084 
Q 2853 3084 3261 2657 
Q 3669 2231 3669 1497 
Q 3669 778 3244 343 
Q 2819 -91 2113 -91 
Q 1303 -91 875 529 
Q 447 1150 447 2328 
Q 447 3434 972 4092 
Q 1497 4750 2381 4750 
Q 2619 4750 2861 4703 
Q 3103 4656 3366 4563 
z
" id="DejaVuSans-36" transform="scale(0.015625)"/>
       </defs>
       <use xlink:href="#DejaVuSans-30"/>
       <use x="63.623047" xlink:href="#DejaVuSans-2e"/>
       <use x="95.410156" xlink:href="#DejaVuSans-36"/>
      </g>
     </g>
    </g>
    <g id="ytick_5">
     <g id="line2d_14">
      <g>
       <use style="stroke:#000000;stroke-width:0.8;" x="57.6" xlink:href="#m7de1f025ff" y="94.6944"/>
      </g>
     </g>
     <g id="text_15">
      <!-- 0.8 -->
      <g transform="translate(34.696875 98.493619)scale(0.1 -0.1)">
       <defs>
        <path d="M 2034 2216 
Q 1584 2216 1326 1975 
Q 1069 1734 1069 1313 
Q 1069 891 1326 650 
Q 1584 409 2034 409 
Q 2484 409 2743 651 
Q 3003 894 3003 1313 
Q 3003 1734 2745 1975 
Q 2488 2216 2034 2216 
z
M 1403 2484 
Q 997 2584 770 2862 
Q 544 3141 544 3541 
Q 544 4100 942 4425 
Q 1341 4750 2034 4750 
Q 2731 4750 3128 4425 
Q 3525 4100 3525 3541 
Q 3525 3141 3298 2862 
Q 3072 2584 2669 2484 
Q 3125 2378 3379 2068 
Q 3634 1759 3634 1313 
Q 3634 634 3220 271 
Q 2806 -91 2034 -91 
Q 1263 -91 848 271 
Q 434 634 434 1313 
Q 434 1759 690 2068 
Q 947 2378 1403 2484 
z
M 1172 3481 
Q 1172 3119 1398 2916 
Q 1625 2713 2034 2713 
Q 2441 2713 2670 2916 
Q 2900 3119 2900 3481 
Q 2900 3844 2670 4047 
Q 2441 4250 2034 4250 
Q 1625 4250 1398 4047 
Q 1172 3844 1172 3481 
z
" id="DejaVuSans-38" transform="scale(0.015625)"/>
       </defs>
       <use xlink:href="#DejaVuSans-30"/>
       <use x="63.623047" xlink:href="#DejaVuSans-2e"/>
       <use x="95.410156" xlink:href="#DejaVuSans-38"/>
      </g>
     </g>
    </g>
    <g id="ytick_6">
     <g id="line2d_15">
      <g>
       <use style="stroke:#000000;stroke-width:0.8;" x="57.6" xlink:href="#m7de1f025ff" y="41.472"/>
      </g>
     </g>
     <g id="text_16">
      <!-- 1.0 -->
      <g transform="translate(34.696875 45.271219)scale(0.1 -0.1)">
       <use xlink:href="#DejaVuSans-31"/>
       <use x="63.623047" xlink:href="#DejaVuSans-2e"/>
       <use x="95.410156" xlink:href="#DejaVuSans-30"/>
      </g>
     </g>
    </g>
    <g id="text_17">
     <!-- p(context) -->
     <g transform="translate(28.617187 200.449875)rotate(-90)scale(0.1 -0.1)">
      <defs>
       <path d="M 1159 525 
L 1159 -1331 
L 581 -1331 
L 581 3500 
L 1159 3500 
L 1159 2969 
Q 1341 3281 1617 3432 
Q 1894 3584 2278 3584 
Q 2916 3584 3314 3078 
Q 3713 2572 3713 1747 
Q 3713 922 3314 415 
Q 2916 -91 2278 -91 
Q 1894 -91 1617 61 
Q 1341 213 1159 525 
z
M 3116 1747 
Q 3116 2381 2855 2742 
Q 2594 3103 2138 3103 
Q 1681 3103 1420 2742 
Q 1159 2381 1159 1747 
Q 1159 1113 1420 752 
Q 1681 391 2138 391 
Q 2594 391 2855 752 
Q 3116 1113 3116 1747 
z
" id="DejaVuSans-70" transform="scale(0.015625)"/>
       <path d="M 1984 4856 
Q 1566 4138 1362 3434 
Q 1159 2731 1159 2009 
Q 1159 1288 1364 580 
Q 1569 -128 1984 -844 
L 1484 -844 
Q 1016 -109 783 600 
Q 550 1309 550 2009 
Q 550 2706 781 3412 
Q 1013 4119 1484 4856 
L 1984 4856 
z
" id="DejaVuSans-28" transform="scale(0.015625)"/>
       <path d="M 3122 3366 
L 3122 2828 
Q 2878 2963 2633 3030 
Q 2388 3097 2138 3097 
Q 1578 3097 1268 2742 
Q 959 2388 959 1747 
Q 959 1106 1268 751 
Q 1578 397 2138 397 
Q 2388 397 2633 464 
Q 2878 531 3122 666 
L 3122 134 
Q 2881 22 2623 -34 
Q 2366 -91 2075 -91 
Q 1284 -91 818 406 
Q 353 903 353 1747 
Q 353 2603 823 3093 
Q 1294 3584 2113 3584 
Q 2378 3584 2631 3529 
Q 2884 3475 3122 3366 
z
" id="DejaVuSans-63" transform="scale(0.015625)"/>
       <path d="M 1959 3097 
Q 1497 3097 1228 2736 
Q 959 2375 959 1747 
Q 959 1119 1226 758 
Q 1494 397 1959 397 
Q 2419 397 2687 759 
Q 2956 1122 2956 1747 
Q 2956 2369 2687 2733 
Q 2419 3097 1959 3097 
z
M 1959 3584 
Q 2709 3584 3137 3096 
Q 3566 2609 3566 1747 
Q 3566 888 3137 398 
Q 2709 -91 1959 -91 
Q 1206 -91 779 398 
Q 353 888 353 1747 
Q 353 2609 779 3096 
Q 1206 3584 1959 3584 
z
" id="DejaVuSans-6f" transform="scale(0.015625)"/>
       <path d="M 3513 2113 
L 3513 0 
L 2938 0 
L 2938 2094 
Q 2938 2591 2744 2837 
Q 2550 3084 2163 3084 
Q 1697 3084 1428 2787 
Q 1159 2491 1159 1978 
L 1159 0 
L 581 0 
L 581 3500 
L 1159 3500 
L 1159 2956 
Q 1366 3272 1645 3428 
Q 1925 3584 2291 3584 
Q 2894 3584 3203 3211 
Q 3513 2838 3513 2113 
z
" id="DejaVuSans-6e" transform="scale(0.015625)"/>
       <path d="M 3597 1894 
L 3597 1613 
L 953 1613 
Q 991 1019 1311 708 
Q 1631 397 2203 397 
Q 2534 397 2845 478 
Q 3156 559 3463 722 
L 3463 178 
Q 3153 47 2828 -22 
Q 2503 -91 2169 -91 
Q 1331 -91 842 396 
Q 353 884 353 1716 
Q 353 2575 817 3079 
Q 1281 3584 2069 3584 
Q 2775 3584 3186 3129 
Q 3597 2675 3597 1894 
z
M 3022 2063 
Q 3016 2534 2758 2815 
Q 2500 3097 2075 3097 
Q 1594 3097 1305 2825 
Q 1016 2553 972 2059 
L 3022 2063 
z
" id="DejaVuSans-65" transform="scale(0.015625)"/>
       <path d="M 3513 3500 
L 2247 1797 
L 3578 0 
L 2900 0 
L 1881 1375 
L 863 0 
L 184 0 
L 1544 1831 
L 300 3500 
L 978 3500 
L 1906 2253 
L 2834 3500 
L 3513 3500 
z
" id="DejaVuSans-78" transform="scale(0.015625)"/>
       <path d="M 513 4856 
L 1013 4856 
Q 1481 4119 1714 3412 
Q 1947 2706 1947 2009 
Q 1947 1309 1714 600 
Q 1481 -109 1013 -844 
L 513 -844 
Q 928 -128 1133 580 
Q 1338 1288 1338 2009 
Q 1338 2731 1133 3434 
Q 928 4138 513 4856 
z
" id="DejaVuSans-29" transform="scale(0.015625)"/>
      </defs>
      <use xlink:href="#DejaVuSans-70"/>
      <use x="63.476562" xlink:href="#DejaVuSans-28"/>
      <use x="102.490234" xlink:href="#DejaVuSans-63"/>
      <use x="157.470703" xlink:href="#DejaVuSans-6f"/>
      <use x="218.652344" xlink:href="#DejaVuSans-6e"/>
      <use x="282.03125" xlink:href="#DejaVuSans-74"/>
      <use x="321.240234" xlink:href="#DejaVuSans-65"/>
      <use x="381.013672" xlink:href="#DejaVuSans-78"/>
      <use x="440.193359" xlink:href="#DejaVuSans-74"/>
      <use x="479.402344" xlink:href="#DejaVuSans-29"/>
     </g>
    </g>
   </g>
   <g id="line2d_16">
    <path clip-path="url(#p2bdb95d076)" d="M 73.832727 267.6672 
L 81.949091 145.544839 
L 90.065455 293.656405 
L 98.181818 302.357527 
L 106.298182 304.178148 
L 114.414545 184.541617 
L 122.530909 293.996504 
L 130.647273 271.505887 
L 138.763636 300.901213 
L 146.88 277.061016 
L 154.996364 269.868411 
L 163.112727 267.717981 
L 171.229091 267.051561 
L 179.345455 266.806745 
L 187.461818 266.684792 
L 195.578182 266.604842 
L 203.694545 266.544313 
L 211.810909 266.495728 
L 219.927273 266.455721 
L 228.043636 266.422282 
L 236.16 266.39402 
L 244.276364 266.369908 
L 252.392727 266.349165 
L 260.509091 266.331188 
L 268.625455 266.315503 
L 276.741818 266.301735 
L 284.858182 266.289582 
L 292.974545 266.278801 
L 301.090909 266.269191 
L 309.207273 266.260589 
L 317.323636 266.252858 
L 325.44 266.245884 
L 333.556364 266.23957 
L 341.672727 266.233837 
L 349.789091 157.607226 
L 357.905455 139.312142 
L 366.021818 293.668976 
L 374.138182 266.151902 
L 382.254545 261.799724 
L 390.370909 261.130495 
" style="fill:none;stroke:#add8e6;stroke-linecap:square;stroke-opacity:0.3;stroke-width:1.5;"/>
   </g>
   <g id="line2d_17">
    <path clip-path="url(#p2bdb95d076)" d="M 73.832727 267.6672 
L 81.949091 305.130668 
L 90.065455 306.358884 
L 98.181818 306.770905 
L 106.298182 296.86367 
L 114.414545 295.025036 
L 122.530909 294.436163 
L 130.647273 294.169641 
L 138.763636 294.027012 
L 146.88 293.940527 
L 154.996364 293.882191 
L 163.112727 293.839676 
L 171.229091 293.807113 
L 179.345455 293.781369 
L 187.461818 293.760567 
L 195.578182 293.743477 
L 203.694545 293.729248 
L 211.810909 293.717264 
L 219.927273 293.70707 
L 228.043636 293.698325 
L 236.16 293.690762 
L 244.276364 293.684177 
L 252.392727 293.678407 
L 260.509091 293.673321 
L 268.625455 293.668816 
L 276.741818 293.664806 
L 284.858182 293.66122 
L 292.974545 293.658001 
L 301.090909 293.655099 
L 309.207273 293.652475 
L 317.323636 293.650094 
L 325.44 293.647927 
L 333.556364 293.645948 
L 341.672727 293.644137 
L 349.789091 293.642475 
L 357.905455 293.640947 
L 366.021818 293.639537 
L 374.138182 293.638235 
L 382.254545 293.637029 
L 390.370909 293.63591 
" style="fill:none;stroke:#add8e6;stroke-linecap:square;stroke-opacity:0.3;stroke-width:1.5;"/>
   </g>
   <g id="line2d_18">
    <path clip-path="url(#p2bdb95d076)" d="M 73.832727 267.6672 
L 81.949091 305.130668 
L 90.065455 306.358884 
L 98.181818 222.7158 
L 106.298182 303.604847 
L 114.414545 285.557311 
L 122.530909 282.677868 
L 130.647273 282.051051 
L 138.763636 281.837113 
L 146.88 281.728408 
L 154.996364 281.658507 
L 163.112727 281.608127 
L 171.229091 281.569767 
L 179.345455 281.539647 
L 187.461818 281.515495 
L 195.578182 281.495809 
L 203.694545 281.479539 
L 211.810909 281.465934 
L 219.927273 281.454437 
L 228.043636 281.444633 
L 236.16 281.436204 
L 244.276364 281.428902 
L 252.392727 281.422535 
L 260.509091 281.416949 
L 268.625455 281.412022 
L 276.741818 281.407652 
L 284.858182 281.40376 
L 292.974545 281.400278 
L 301.090909 281.397149 
L 309.207273 281.394328 
L 317.323636 281.391776 
L 325.44 281.389459 
L 333.556364 281.38735 
L 341.672727 281.385423 
L 349.789091 281.38366 
L 357.905455 281.382041 
L 366.021818 281.380551 
L 374.138182 281.379178 
L 382.254545 281.377908 
L 390.370909 281.376733 
" style="fill:none;stroke:#add8e6;stroke-linecap:square;stroke-opacity:0.3;stroke-width:1.5;"/>
   </g>
   <g id="line2d_19">
    <path clip-path="url(#p2bdb95d076)" d="M 73.832727 267.6672 
L 81.949091 305.130668 
L 90.065455 306.358884 
L 98.181818 306.770905 
L 106.298182 296.86367 
L 114.414545 295.025036 
L 122.530909 294.436163 
L 130.647273 294.169641 
L 138.763636 294.027012 
L 146.88 293.940527 
L 154.996364 293.882191 
L 163.112727 293.839676 
L 171.229091 293.807113 
L 179.345455 293.781369 
L 187.461818 293.760567 
L 195.578182 293.743477 
L 203.694545 293.729248 
L 211.810909 293.717264 
L 219.927273 293.70707 
L 228.043636 293.698325 
L 236.16 293.690762 
L 244.276364 293.684177 
L 252.392727 293.678407 
L 260.509091 293.673321 
L 268.625455 293.668816 
L 276.741818 293.664806 
L 284.858182 293.66122 
L 292.974545 293.658001 
L 301.090909 293.655099 
L 309.207273 293.652475 
L 317.323636 293.650094 
L 325.44 293.647927 
L 333.556364 293.645948 
L 341.672727 293.644137 
L 349.789091 293.642475 
L 357.905455 293.640947 
L 366.021818 293.639537 
L 374.138182 293.638235 
L 382.254545 293.637029 
L 390.370909 293.63591 
" style="fill:none;stroke:#add8e6;stroke-linecap:square;stroke-opacity:0.3;stroke-width:1.5;"/>
   </g>
   <g id="line2d_20">
    <path clip-path="url(#p2bdb95d076)" d="M 73.832727 267.6672 
L 81.949091 305.130668 
L 90.065455 306.358884 
L 98.181818 222.7158 
L 106.298182 303.604847 
L 114.414545 285.557311 
L 122.530909 282.677868 
L 130.647273 282.051051 
L 138.763636 281.837113 
L 146.88 281.728408 
L 154.996364 281.658507 
L 163.112727 281.608127 
L 171.229091 281.569767 
L 179.345455 281.539647 
L 187.461818 281.515495 
L 195.578182 281.495809 
L 203.694545 281.479539 
L 211.810909 281.465934 
L 219.927273 281.454437 
L 228.043636 281.444633 
L 236.16 281.436204 
L 244.276364 281.428902 
L 252.392727 281.422535 
L 260.509091 281.416949 
L 268.625455 281.412022 
L 276.741818 281.407652 
L 284.858182 281.40376 
L 292.974545 281.400278 
L 301.090909 281.397149 
L 309.207273 281.394328 
L 317.323636 281.391776 
L 325.44 281.389459 
L 333.556364 281.38735 
L 341.672727 281.385423 
L 349.789091 281.38366 
L 357.905455 281.382041 
L 366.021818 281.380551 
L 374.138182 281.379178 
L 382.254545 281.377908 
L 390.370909 281.376733 
" style="fill:none;stroke:#add8e6;stroke-linecap:square;stroke-opacity:0.3;stroke-width:1.5;"/>
   </g>
   <g id="line2d_21">
    <path clip-path="url(#p2bdb95d076)" d="M 73.832727 267.6672 
L 81.949091 305.130668 
L 90.065455 306.358884 
L 98.181818 222.7158 
L 106.298182 303.604847 
L 114.414545 285.557311 
L 122.530909 282.677868 
L 130.647273 282.051051 
L 138.763636 281.837113 
L 146.88 281.728408 
L 154.996364 281.658507 
L 163.112727 281.608127 
L 171.229091 281.569767 
L 179.345455 281.539647 
L 187.461818 281.515495 
L 195.578182 281.495809 
L 203.694545 281.479539 
L 211.810909 281.465934 
L 219.927273 281.454437 
L 228.043636 281.444633 
L 236.16 281.436204 
L 244.276364 281.428902 
L 252.392727 281.422535 
L 260.509091 281.416949 
L 268.625455 281.412022 
L 276.741818 281.407652 
L 284.858182 281.40376 
L 292.974545 281.400278 
L 301.090909 281.397149 
L 309.207273 281.394328 
L 317.323636 281.391776 
L 325.44 281.389459 
L 333.556364 281.38735 
L 341.672727 281.385423 
L 349.789091 281.38366 
L 357.905455 281.382041 
L 366.021818 281.380551 
L 374.138182 281.379178 
L 382.254545 281.377908 
L 390.370909 281.376733 
" style="fill:none;stroke:#add8e6;stroke-linecap:square;stroke-opacity:0.3;stroke-width:1.5;"/>
   </g>
   <g id="line2d_22">
    <path clip-path="url(#p2bdb95d076)" d="M 73.832727 267.6672 
L 81.949091 145.544839 
L 90.065455 100.668011 
L 98.181818 278.646703 
L 106.298182 298.243306 
L 114.414545 301.918011 
L 122.530909 303.441151 
L 130.647273 304.322491 
L 138.763636 281.165418 
L 146.88 303.425299 
L 154.996364 282.780126 
L 163.112727 272.903644 
L 171.229091 303.287075 
L 179.345455 283.375454 
L 187.461818 274.759377 
L 195.578182 303.654067 
L 203.694545 284.2054 
L 211.810909 276.427669 
L 219.927273 273.533571 
L 228.043636 272.480805 
L 236.16 272.082982 
L 244.276364 303.648968 
L 252.392727 283.177512 
L 260.509091 276.513951 
L 268.625455 274.497022 
L 276.741818 273.896729 
L 284.858182 273.706947 
L 292.974545 273.633351 
L 301.090909 273.59337 
L 309.207273 273.56444 
L 317.323636 273.540364 
L 325.44 273.519291 
L 333.556364 273.500519 
L 341.672727 273.483668 
L 349.789091 273.468471 
L 357.905455 273.454715 
L 366.021818 273.44222 
L 374.138182 273.430837 
L 382.254545 273.420436 
L 390.370909 273.410908 
" style="fill:none;stroke:#add8e6;stroke-linecap:square;stroke-opacity:0.3;stroke-width:1.5;"/>
   </g>
   <g id="line2d_23">
    <path clip-path="url(#p2bdb95d076)" d="M 73.832727 267.6672 
L 81.949091 145.544839 
L 90.065455 293.656405 
L 98.181818 159.433415 
L 106.298182 286.226102 
L 114.414545 297.975206 
L 122.530909 300.630589 
L 130.647273 271.781202 
L 138.763636 300.004116 
L 146.88 274.54752 
L 154.996364 159.197705 
L 163.112727 117.214643 
L 171.229091 276.77755 
L 179.345455 256.994579 
L 187.461818 145.887306 
L 195.578182 275.86266 
L 203.694545 254.110704 
L 211.810909 246.981564 
L 219.927273 244.640837 
L 228.043636 243.866556 
L 236.16 243.589729 
L 244.276364 243.46865 
L 252.392727 243.398406 
L 260.509091 243.347507 
L 268.625455 243.306261 
L 276.741818 243.271287 
L 284.858182 243.241062 
L 292.974545 243.214677 
L 301.090909 243.191482 
L 309.207273 243.170975 
L 317.323636 243.15275 
L 325.44 243.136477 
L 333.556364 243.121886 
L 341.672727 243.10875 
L 349.789091 243.096882 
L 357.905455 243.086121 
L 366.021818 243.076335 
L 374.138182 243.067407 
L 382.254545 243.05924 
L 390.370909 243.051749 
" style="fill:none;stroke:#add8e6;stroke-linecap:square;stroke-opacity:0.3;stroke-width:1.5;"/>
   </g>
   <g id="line2d_24">
    <path clip-path="url(#p2bdb95d076)" d="M 73.832727 267.6672 
L 81.949091 305.130668 
L 90.065455 306.358884 
L 98.181818 306.770905 
L 106.298182 296.86367 
L 114.414545 295.025036 
L 122.530909 294.436163 
L 130.647273 294.169641 
L 138.763636 294.027012 
L 146.88 293.940527 
L 154.996364 293.882191 
L 163.112727 293.839676 
L 171.229091 293.807113 
L 179.345455 293.781369 
L 187.461818 293.760567 
L 195.578182 293.743477 
L 203.694545 293.729248 
L 211.810909 293.717264 
L 219.927273 293.70707 
L 228.043636 293.698325 
L 236.16 293.690762 
L 244.276364 293.684177 
L 252.392727 293.678407 
L 260.509091 293.673321 
L 268.625455 293.668816 
L 276.741818 293.664806 
L 284.858182 293.66122 
L 292.974545 293.658001 
L 301.090909 293.655099 
L 309.207273 293.652475 
L 317.323636 293.650094 
L 325.44 293.647927 
L 333.556364 293.645948 
L 341.672727 293.644137 
L 349.789091 293.642475 
L 357.905455 293.640947 
L 366.021818 293.639537 
L 374.138182 293.638235 
L 382.254545 293.637029 
L 390.370909 293.63591 
" style="fill:none;stroke:#add8e6;stroke-linecap:square;stroke-opacity:0.3;stroke-width:1.5;"/>
   </g>
   <g id="line2d_25">
    <path clip-path="url(#p2bdb95d076)" d="M 73.832727 267.6672 
L 81.949091 145.544839 
L 90.065455 293.656405 
L 98.181818 302.357527 
L 106.298182 304.178148 
L 114.414545 305.046508 
L 122.530909 286.035094 
L 130.647273 304.767703 
L 138.763636 288.082727 
L 146.88 282.324365 
L 154.996364 280.334131 
L 163.112727 279.618937 
L 171.229091 279.322196 
L 179.345455 279.166062 
L 187.461818 279.063768 
L 195.578182 278.98755 
L 203.694545 278.927247 
L 211.810909 278.878141 
L 219.927273 278.837465 
L 228.043636 304.728815 
L 236.16 284.700393 
L 244.276364 281.03605 
L 252.392727 280.381981 
L 260.509091 280.257215 
L 268.625455 280.222809 
L 276.741818 280.204591 
L 284.858182 280.190357 
L 292.974545 280.177999 
L 301.090909 280.16702 
L 309.207273 280.157193 
L 317.323636 280.148358 
L 325.44 280.140386 
L 333.556364 280.133167 
L 341.672727 280.126609 
L 349.789091 280.120634 
L 357.905455 280.115175 
L 366.021818 280.110173 
L 374.138182 280.105579 
L 382.254545 280.10135 
L 390.370909 280.097448 
" style="fill:none;stroke:#add8e6;stroke-linecap:square;stroke-opacity:0.3;stroke-width:1.5;"/>
   </g>
   <g id="line2d_26">
    <path clip-path="url(#p2bdb95d076)" d="M 73.832727 267.6672 
L 81.949091 145.544839 
L 90.065455 293.656405 
L 98.181818 302.357527 
L 106.298182 304.178148 
L 114.414545 305.046508 
L 122.530909 286.035094 
L 130.647273 304.767703 
L 138.763636 288.082727 
L 146.88 282.324365 
L 154.996364 280.334131 
L 163.112727 279.618937 
L 171.229091 279.322196 
L 179.345455 279.166062 
L 187.461818 279.063768 
L 195.578182 278.98755 
L 203.694545 278.927247 
L 211.810909 278.878141 
L 219.927273 278.837465 
L 228.043636 304.728815 
L 236.16 284.700393 
L 244.276364 281.03605 
L 252.392727 280.381981 
L 260.509091 280.257215 
L 268.625455 280.222809 
L 276.741818 280.204591 
L 284.858182 280.190357 
L 292.974545 280.177999 
L 301.090909 280.16702 
L 309.207273 280.157193 
L 317.323636 280.148358 
L 325.44 280.140386 
L 333.556364 280.133167 
L 341.672727 280.126609 
L 349.789091 280.120634 
L 357.905455 280.115175 
L 366.021818 280.110173 
L 374.138182 280.105579 
L 382.254545 280.10135 
L 390.370909 280.097448 
" style="fill:none;stroke:#add8e6;stroke-linecap:square;stroke-opacity:0.3;stroke-width:1.5;"/>
   </g>
   <g id="line2d_27">
    <path clip-path="url(#p2bdb95d076)" d="M 73.832727 267.6672 
L 81.949091 305.130668 
L 90.065455 306.358884 
L 98.181818 222.7158 
L 106.298182 303.604847 
L 114.414545 285.557311 
L 122.530909 282.677868 
L 130.647273 282.051051 
L 138.763636 281.837113 
L 146.88 281.728408 
L 154.996364 281.658507 
L 163.112727 281.608127 
L 171.229091 281.569767 
L 179.345455 281.539647 
L 187.461818 281.515495 
L 195.578182 281.495809 
L 203.694545 281.479539 
L 211.810909 281.465934 
L 219.927273 281.454437 
L 228.043636 281.444633 
L 236.16 281.436204 
L 244.276364 281.428902 
L 252.392727 281.422535 
L 260.509091 281.416949 
L 268.625455 281.412022 
L 276.741818 281.407652 
L 284.858182 281.40376 
L 292.974545 281.400278 
L 301.090909 281.397149 
L 309.207273 281.394328 
L 317.323636 281.391776 
L 325.44 281.389459 
L 333.556364 281.38735 
L 341.672727 281.385423 
L 349.789091 281.38366 
L 357.905455 281.382041 
L 366.021818 281.380551 
L 374.138182 281.379178 
L 382.254545 281.377908 
L 390.370909 281.376733 
" style="fill:none;stroke:#add8e6;stroke-linecap:square;stroke-opacity:0.3;stroke-width:1.5;"/>
   </g>
   <g id="line2d_28">
    <path clip-path="url(#p2bdb95d076)" d="M 73.832727 267.6672 
L 81.949091 305.130668 
L 90.065455 306.358884 
L 98.181818 306.770905 
L 106.298182 296.86367 
L 114.414545 295.025036 
L 122.530909 294.436163 
L 130.647273 294.169641 
L 138.763636 294.027012 
L 146.88 293.940527 
L 154.996364 293.882191 
L 163.112727 293.839676 
L 171.229091 293.807113 
L 179.345455 293.781369 
L 187.461818 293.760567 
L 195.578182 293.743477 
L 203.694545 293.729248 
L 211.810909 293.717264 
L 219.927273 293.70707 
L 228.043636 293.698325 
L 236.16 293.690762 
L 244.276364 293.684177 
L 252.392727 293.678407 
L 260.509091 293.673321 
L 268.625455 293.668816 
L 276.741818 293.664806 
L 284.858182 293.66122 
L 292.974545 293.658001 
L 301.090909 293.655099 
L 309.207273 293.652475 
L 317.323636 293.650094 
L 325.44 293.647927 
L 333.556364 293.645948 
L 341.672727 293.644137 
L 349.789091 293.642475 
L 357.905455 293.640947 
L 366.021818 293.639537 
L 374.138182 293.638235 
L 382.254545 293.637029 
L 390.370909 293.63591 
" style="fill:none;stroke:#add8e6;stroke-linecap:square;stroke-opacity:0.3;stroke-width:1.5;"/>
   </g>
   <g id="line2d_29">
    <path clip-path="url(#p2bdb95d076)" d="M 73.832727 267.6672 
L 81.949091 305.130668 
L 90.065455 306.358884 
L 98.181818 306.770905 
L 106.298182 296.86367 
L 114.414545 295.025036 
L 122.530909 294.436163 
L 130.647273 294.169641 
L 138.763636 294.027012 
L 146.88 293.940527 
L 154.996364 293.882191 
L 163.112727 293.839676 
L 171.229091 293.807113 
L 179.345455 293.781369 
L 187.461818 293.760567 
L 195.578182 293.743477 
L 203.694545 293.729248 
L 211.810909 293.717264 
L 219.927273 293.70707 
L 228.043636 293.698325 
L 236.16 293.690762 
L 244.276364 293.684177 
L 252.392727 293.678407 
L 260.509091 293.673321 
L 268.625455 293.668816 
L 276.741818 293.664806 
L 284.858182 293.66122 
L 292.974545 293.658001 
L 301.090909 293.655099 
L 309.207273 293.652475 
L 317.323636 293.650094 
L 325.44 293.647927 
L 333.556364 293.645948 
L 341.672727 293.644137 
L 349.789091 293.642475 
L 357.905455 293.640947 
L 366.021818 293.639537 
L 374.138182 293.638235 
L 382.254545 293.637029 
L 390.370909 293.63591 
" style="fill:none;stroke:#add8e6;stroke-linecap:square;stroke-opacity:0.3;stroke-width:1.5;"/>
   </g>
   <g id="line2d_30">
    <path clip-path="url(#p2bdb95d076)" d="M 73.832727 267.6672 
L 81.949091 305.130668 
L 90.065455 306.358884 
L 98.181818 222.7158 
L 106.298182 303.604847 
L 114.414545 285.557311 
L 122.530909 282.677868 
L 130.647273 282.051051 
L 138.763636 281.837113 
L 146.88 281.728408 
L 154.996364 281.658507 
L 163.112727 281.608127 
L 171.229091 281.569767 
L 179.345455 281.539647 
L 187.461818 281.515495 
L 195.578182 281.495809 
L 203.694545 281.479539 
L 211.810909 281.465934 
L 219.927273 281.454437 
L 228.043636 281.444633 
L 236.16 281.436204 
L 244.276364 281.428902 
L 252.392727 281.422535 
L 260.509091 281.416949 
L 268.625455 281.412022 
L 276.741818 281.407652 
L 284.858182 281.40376 
L 292.974545 281.400278 
L 301.090909 281.397149 
L 309.207273 281.394328 
L 317.323636 281.391776 
L 325.44 281.389459 
L 333.556364 281.38735 
L 341.672727 281.385423 
L 349.789091 281.38366 
L 357.905455 281.382041 
L 366.021818 281.380551 
L 374.138182 281.379178 
L 382.254545 281.377908 
L 390.370909 281.376733 
" style="fill:none;stroke:#add8e6;stroke-linecap:square;stroke-opacity:0.3;stroke-width:1.5;"/>
   </g>
   <g id="line2d_31">
    <path clip-path="url(#p2bdb95d076)" d="M 73.832727 267.6672 
L 81.949091 305.130668 
L 90.065455 306.358884 
L 98.181818 306.770905 
L 106.298182 296.86367 
L 114.414545 295.025036 
L 122.530909 294.436163 
L 130.647273 294.169641 
L 138.763636 294.027012 
L 146.88 293.940527 
L 154.996364 293.882191 
L 163.112727 293.839676 
L 171.229091 293.807113 
L 179.345455 293.781369 
L 187.461818 293.760567 
L 195.578182 293.743477 
L 203.694545 293.729248 
L 211.810909 293.717264 
L 219.927273 293.70707 
L 228.043636 293.698325 
L 236.16 293.690762 
L 244.276364 293.684177 
L 252.392727 293.678407 
L 260.509091 293.673321 
L 268.625455 293.668816 
L 276.741818 293.664806 
L 284.858182 293.66122 
L 292.974545 293.658001 
L 301.090909 293.655099 
L 309.207273 293.652475 
L 317.323636 293.650094 
L 325.44 293.647927 
L 333.556364 293.645948 
L 341.672727 293.644137 
L 349.789091 293.642475 
L 357.905455 293.640947 
L 366.021818 293.639537 
L 374.138182 293.638235 
L 382.254545 293.637029 
L 390.370909 293.63591 
" style="fill:none;stroke:#add8e6;stroke-linecap:square;stroke-opacity:0.3;stroke-width:1.5;"/>
   </g>
   <g id="line2d_32">
    <path clip-path="url(#p2bdb95d076)" d="M 73.832727 267.6672 
L 81.949091 145.544839 
L 90.065455 100.668011 
L 98.181818 278.646703 
L 106.298182 298.243306 
L 114.414545 301.918011 
L 122.530909 303.441151 
L 130.647273 304.322491 
L 138.763636 281.165418 
L 146.88 303.425299 
L 154.996364 282.780126 
L 163.112727 272.903644 
L 171.229091 303.287075 
L 179.345455 283.375454 
L 187.461818 274.759377 
L 195.578182 303.654067 
L 203.694545 284.2054 
L 211.810909 276.427669 
L 219.927273 273.533571 
L 228.043636 272.480805 
L 236.16 272.082982 
L 244.276364 147.082514 
L 252.392727 103.168803 
L 260.509091 88.417856 
L 268.625455 80.426695 
L 276.741818 74.893059 
L 284.858182 70.740603 
L 292.974545 67.509526 
L 301.090909 64.931569 
L 309.207273 270.956736 
L 317.323636 133.040795 
L 325.44 80.518644 
L 333.556364 69.855067 
L 341.672727 66.813617 
L 349.789091 65.064271 
L 357.905455 63.655575 
L 366.021818 62.429556 
L 374.138182 61.343197 
L 382.254545 60.373182 
L 390.370909 59.502096 
" style="fill:none;stroke:#add8e6;stroke-linecap:square;stroke-opacity:0.3;stroke-width:1.5;"/>
   </g>
   <g id="line2d_33">
    <path clip-path="url(#p2bdb95d076)" d="M 73.832727 267.6672 
L 81.949091 305.130668 
L 90.065455 210.149803 
L 98.181818 301.909115 
L 106.298182 304.669873 
L 114.414545 284.426944 
L 122.530909 280.695943 
L 130.647273 182.799909 
L 138.763636 299.083654 
L 146.88 278.051681 
L 154.996364 273.906226 
L 163.112727 273.001607 
L 171.229091 272.757582 
L 179.345455 272.658418 
L 187.461818 302.877056 
L 195.578182 279.270111 
L 203.694545 275.505143 
L 211.810909 274.88126 
L 219.927273 274.761586 
L 228.043636 274.723975 
L 236.16 274.701613 
L 244.276364 274.683835 
L 252.392727 274.668661 
L 260.509091 274.655477 
L 268.625455 274.643931 
L 276.741818 274.633758 
L 284.858182 274.624749 
L 292.974545 274.616731 
L 301.090909 274.609564 
L 309.207273 274.603132 
L 317.323636 274.597337 
L 325.44 274.592097 
L 333.556364 274.587344 
L 341.672727 274.58302 
L 349.789091 274.579073 
L 357.905455 274.575461 
L 366.021818 274.572147 
L 374.138182 274.5691 
L 382.254545 274.566291 
L 390.370909 274.563696 
" style="fill:none;stroke:#add8e6;stroke-linecap:square;stroke-opacity:0.3;stroke-width:1.5;"/>
   </g>
   <g id="line2d_34">
    <path clip-path="url(#p2bdb95d076)" d="M 73.832727 267.6672 
L 81.949091 305.130668 
L 90.065455 306.358884 
L 98.181818 222.7158 
L 106.298182 303.604847 
L 114.414545 285.557311 
L 122.530909 282.677868 
L 130.647273 282.051051 
L 138.763636 281.837113 
L 146.88 281.728408 
L 154.996364 281.658507 
L 163.112727 281.608127 
L 171.229091 281.569767 
L 179.345455 281.539647 
L 187.461818 281.515495 
L 195.578182 281.495809 
L 203.694545 281.479539 
L 211.810909 281.465934 
L 219.927273 281.454437 
L 228.043636 281.444633 
L 236.16 281.436204 
L 244.276364 281.428902 
L 252.392727 281.422535 
L 260.509091 281.416949 
L 268.625455 281.412022 
L 276.741818 281.407652 
L 284.858182 281.40376 
L 292.974545 281.400278 
L 301.090909 281.397149 
L 309.207273 281.394328 
L 317.323636 281.391776 
L 325.44 281.389459 
L 333.556364 281.38735 
L 341.672727 281.385423 
L 349.789091 281.38366 
L 357.905455 281.382041 
L 366.021818 281.380551 
L 374.138182 281.379178 
L 382.254545 281.377908 
L 390.370909 281.376733 
" style="fill:none;stroke:#add8e6;stroke-linecap:square;stroke-opacity:0.3;stroke-width:1.5;"/>
   </g>
   <g id="line2d_35">
    <path clip-path="url(#p2bdb95d076)" d="M 73.832727 267.6672 
L 81.949091 145.544839 
L 90.065455 293.656405 
L 98.181818 302.357527 
L 106.298182 176.017853 
L 114.414545 291.255562 
L 122.530909 300.584137 
L 130.647273 273.1818 
L 138.763636 300.589491 
L 146.88 276.127628 
L 154.996364 268.673217 
L 163.112727 266.448026 
L 171.229091 300.835085 
L 179.345455 276.710948 
L 187.461818 270.591498 
L 195.578182 269.084366 
L 203.694545 268.698995 
L 211.810909 268.575935 
L 219.927273 268.515871 
L 228.043636 268.474249 
L 236.16 268.440803 
L 244.276364 268.412638 
L 252.392727 268.388511 
L 260.509091 268.367649 
L 268.625455 268.349479 
L 276.741818 268.333553 
L 284.858182 268.319514 
L 292.974545 268.307075 
L 301.090909 268.296001 
L 309.207273 268.286097 
L 317.323636 268.277205 
L 325.44 268.269191 
L 333.556364 268.261941 
L 341.672727 268.255363 
L 349.789091 268.249375 
L 357.905455 268.243909 
L 366.021818 268.238905 
L 374.138182 268.234313 
L 382.254545 268.230089 
L 390.370909 268.226194 
" style="fill:none;stroke:#add8e6;stroke-linecap:square;stroke-opacity:0.3;stroke-width:1.5;"/>
   </g>
   <g id="line2d_36">
    <path clip-path="url(#p2bdb95d076)" d="M 73.832727 94.6944 
L 81.949091 242.643114 
L 90.065455 84.967603 
L 98.181818 63.723977 
L 106.298182 57.273519 
L 114.414545 208.692643 
L 122.530909 80.9326 
L 130.647273 105.808347 
L 138.763636 65.226844 
L 146.88 97.463304 
L 154.996364 107.263907 
L 163.112727 110.189336 
L 171.229091 111.091344 
L 179.345455 111.420213 
L 187.461818 111.582746 
L 195.578182 111.68872 
L 203.694545 111.768695 
L 211.810909 111.832753 
L 219.927273 111.885415 
L 228.043636 111.929369 
L 236.16 111.966473 
L 244.276364 111.998095 
L 252.392727 112.025272 
L 260.509091 112.048804 
L 268.625455 112.069319 
L 276.741818 112.087314 
L 284.858182 112.103187 
L 292.974545 112.11726 
L 301.090909 112.129797 
L 309.207273 112.141013 
L 317.323636 112.151089 
L 325.44 112.160175 
L 333.556364 112.168395 
L 341.672727 112.175858 
L 349.789091 237.644893 
L 357.905455 251.465228 
L 366.021818 76.881025 
L 374.138182 111.628658 
L 382.254545 116.958823 
L 390.370909 117.771308 
" style="fill:none;stroke:#ff0000;stroke-linecap:square;stroke-opacity:0.1;stroke-width:1.5;"/>
   </g>
   <g id="line2d_37">
    <path clip-path="url(#p2bdb95d076)" d="M 73.832727 94.6944 
L 81.949091 54.693224 
L 90.065455 50.410216 
L 98.181818 48.211809 
L 106.298182 64.57301 
L 114.414545 69.828171 
L 122.530909 72.053062 
L 130.647273 73.075622 
L 138.763636 73.575973 
L 146.88 73.846802 
L 154.996364 74.012287 
L 163.112727 74.124479 
L 171.229091 74.20617 
L 179.345455 74.268413 
L 187.461818 74.317283 
L 195.578182 74.356496 
L 203.694545 74.388503 
L 211.810909 74.414999 
L 219.927273 74.437201 
L 228.043636 74.456 
L 236.16 74.472065 
L 244.276364 74.485907 
L 252.392727 74.497922 
L 260.509091 74.50842 
L 268.625455 74.517648 
L 276.741818 74.525803 
L 284.858182 74.533048 
L 292.974545 74.539513 
L 301.090909 74.545307 
L 309.207273 74.550521 
L 317.323636 74.555228 
L 325.44 74.559495 
L 333.556364 74.563373 
L 341.672727 74.566908 
L 349.789091 74.570141 
L 357.905455 74.573105 
L 366.021818 74.575828 
L 374.138182 74.578337 
L 382.254545 74.580654 
L 390.370909 74.582796 
" style="fill:none;stroke:#ff0000;stroke-linecap:square;stroke-opacity:0.1;stroke-width:1.5;"/>
   </g>
   <g id="line2d_38">
    <path clip-path="url(#p2bdb95d076)" d="M 73.832727 94.6944 
L 81.949091 54.693224 
L 90.065455 50.410216 
L 98.181818 160.286837 
L 106.298182 63.125971 
L 114.414545 84.745334 
L 122.530909 89.669983 
L 130.647273 91.105685 
L 138.763636 91.63307 
L 146.88 91.882677 
L 154.996364 92.030908 
L 163.112727 92.132594 
L 171.229091 92.20779 
L 179.345455 92.265682 
L 187.461818 92.31141 
L 195.578182 92.348229 
L 203.694545 92.378341 
L 211.810909 92.403297 
L 219.927273 92.424221 
L 228.043636 92.441941 
L 236.16 92.457085 
L 244.276364 92.470131 
L 252.392727 92.481451 
L 260.509091 92.491337 
L 268.625455 92.500024 
L 276.741818 92.507698 
L 284.858182 92.514511 
L 292.974545 92.520588 
L 301.090909 92.526031 
L 309.207273 92.530926 
L 317.323636 92.535344 
L 325.44 92.539345 
L 333.556364 92.542981 
L 341.672727 92.546293 
L 349.789091 92.549321 
L 357.905455 92.552095 
L 366.021818 92.554643 
L 374.138182 92.556989 
L 382.254545 92.559154 
L 390.370909 92.561156 
" style="fill:none;stroke:#ff0000;stroke-linecap:square;stroke-opacity:0.1;stroke-width:1.5;"/>
   </g>
   <g id="line2d_39">
    <path clip-path="url(#p2bdb95d076)" d="M 73.832727 94.6944 
L 81.949091 54.693224 
L 90.065455 50.410216 
L 98.181818 48.211809 
L 106.298182 64.57301 
L 114.414545 69.828171 
L 122.530909 72.053062 
L 130.647273 73.075622 
L 138.763636 73.575973 
L 146.88 73.846802 
L 154.996364 74.012287 
L 163.112727 74.124479 
L 171.229091 74.20617 
L 179.345455 74.268413 
L 187.461818 74.317283 
L 195.578182 74.356496 
L 203.694545 74.388503 
L 211.810909 74.414999 
L 219.927273 74.437201 
L 228.043636 74.456 
L 236.16 74.472065 
L 244.276364 74.485907 
L 252.392727 74.497922 
L 260.509091 74.50842 
L 268.625455 74.517648 
L 276.741818 74.525803 
L 284.858182 74.533048 
L 292.974545 74.539513 
L 301.090909 74.545307 
L 309.207273 74.550521 
L 317.323636 74.555228 
L 325.44 74.559495 
L 333.556364 74.563373 
L 341.672727 74.566908 
L 349.789091 74.570141 
L 357.905455 74.573105 
L 366.021818 74.575828 
L 374.138182 74.578337 
L 382.254545 74.580654 
L 390.370909 74.582796 
" style="fill:none;stroke:#ff0000;stroke-linecap:square;stroke-opacity:0.1;stroke-width:1.5;"/>
   </g>
   <g id="line2d_40">
    <path clip-path="url(#p2bdb95d076)" d="M 73.832727 94.6944 
L 81.949091 54.693224 
L 90.065455 50.410216 
L 98.181818 160.286837 
L 106.298182 63.125971 
L 114.414545 84.745334 
L 122.530909 89.669983 
L 130.647273 91.105685 
L 138.763636 91.63307 
L 146.88 91.882677 
L 154.996364 92.030908 
L 163.112727 92.132594 
L 171.229091 92.20779 
L 179.345455 92.265682 
L 187.461818 92.31141 
L 195.578182 92.348229 
L 203.694545 92.378341 
L 211.810909 92.403297 
L 219.927273 92.424221 
L 228.043636 92.441941 
L 236.16 92.457085 
L 244.276364 92.470131 
L 252.392727 92.481451 
L 260.509091 92.491337 
L 268.625455 92.500024 
L 276.741818 92.507698 
L 284.858182 92.514511 
L 292.974545 92.520588 
L 301.090909 92.526031 
L 309.207273 92.530926 
L 317.323636 92.535344 
L 325.44 92.539345 
L 333.556364 92.542981 
L 341.672727 92.546293 
L 349.789091 92.549321 
L 357.905455 92.552095 
L 366.021818 92.554643 
L 374.138182 92.556989 
L 382.254545 92.559154 
L 390.370909 92.561156 
" style="fill:none;stroke:#ff0000;stroke-linecap:square;stroke-opacity:0.1;stroke-width:1.5;"/>
   </g>
   <g id="line2d_41">
    <path clip-path="url(#p2bdb95d076)" d="M 73.832727 94.6944 
L 81.949091 54.693224 
L 90.065455 50.410216 
L 98.181818 160.286837 
L 106.298182 63.125971 
L 114.414545 84.745334 
L 122.530909 89.669983 
L 130.647273 91.105685 
L 138.763636 91.63307 
L 146.88 91.882677 
L 154.996364 92.030908 
L 163.112727 92.132594 
L 171.229091 92.20779 
L 179.345455 92.265682 
L 187.461818 92.31141 
L 195.578182 92.348229 
L 203.694545 92.378341 
L 211.810909 92.403297 
L 219.927273 92.424221 
L 228.043636 92.441941 
L 236.16 92.457085 
L 244.276364 92.470131 
L 252.392727 92.481451 
L 260.509091 92.491337 
L 268.625455 92.500024 
L 276.741818 92.507698 
L 284.858182 92.514511 
L 292.974545 92.520588 
L 301.090909 92.526031 
L 309.207273 92.530926 
L 317.323636 92.535344 
L 325.44 92.539345 
L 333.556364 92.542981 
L 341.672727 92.546293 
L 349.789091 92.549321 
L 357.905455 92.552095 
L 366.021818 92.554643 
L 374.138182 92.556989 
L 382.254545 92.559154 
L 390.370909 92.561156 
" style="fill:none;stroke:#ff0000;stroke-linecap:square;stroke-opacity:0.1;stroke-width:1.5;"/>
   </g>
   <g id="line2d_42">
    <path clip-path="url(#p2bdb95d076)" d="M 73.832727 94.6944 
L 81.949091 242.643114 
L 90.065455 284.845195 
L 98.181818 111.284751 
L 106.298182 73.757662 
L 114.414545 63.536746 
L 122.530909 58.924579 
L 130.647273 56.091941 
L 138.763636 90.375782 
L 146.88 58.046894 
L 154.996364 88.144908 
L 163.112727 100.878055 
L 171.229091 58.105846 
L 179.345455 87.164142 
L 187.461818 98.200798 
L 195.578182 57.053962 
L 203.694545 85.826169 
L 211.810909 95.791721 
L 219.927273 99.327876 
L 228.043636 100.594555 
L 236.16 101.071305 
L 244.276364 56.711593 
L 252.392727 86.910149 
L 260.509091 95.40969 
L 268.625455 97.86723 
L 276.741818 98.588446 
L 284.858182 98.815747 
L 292.974545 98.904039 
L 301.090909 98.95215 
L 309.207273 98.987031 
L 317.323636 99.016077 
L 325.44 99.041505 
L 333.556364 99.064156 
L 341.672727 99.084487 
L 349.789091 99.102822 
L 357.905455 99.119419 
L 366.021818 99.134492 
L 374.138182 99.148224 
L 382.254545 99.16077 
L 390.370909 99.172264 
" style="fill:none;stroke:#ff0000;stroke-linecap:square;stroke-opacity:0.1;stroke-width:1.5;"/>
   </g>
   <g id="line2d_43">
    <path clip-path="url(#p2bdb95d076)" d="M 73.832727 94.6944 
L 81.949091 242.643114 
L 90.065455 84.967603 
L 98.181818 234.631372 
L 106.298182 96.768328 
L 114.414545 72.979977 
L 122.530909 65.92309 
L 130.647273 105.619647 
L 138.763636 67.140435 
L 146.88 102.092972 
L 154.996364 238.522368 
L 163.112727 272.147542 
L 171.229091 104.324555 
L 179.345455 123.763259 
L 187.461818 248.144956 
L 195.578182 102.896849 
L 203.694545 126.743936 
L 211.810909 135.007289 
L 219.927273 137.756201 
L 228.043636 138.668627 
L 236.16 138.995508 
L 244.276364 139.138853 
L 252.392727 139.222221 
L 260.509091 139.282717 
L 268.625455 139.331769 
L 276.741818 139.373373 
L 284.858182 139.409332 
L 292.974545 139.440724 
L 301.090909 139.468322 
L 309.207273 139.492725 
L 317.323636 139.514413 
L 325.44 139.533778 
L 333.556364 139.551143 
L 341.672727 139.566776 
L 349.789091 139.580902 
L 357.905455 139.59371 
L 366.021818 139.605359 
L 374.138182 139.615987 
L 382.254545 139.625709 
L 390.370909 139.634626 
" style="fill:none;stroke:#ff0000;stroke-linecap:square;stroke-opacity:0.1;stroke-width:1.5;"/>
   </g>
   <g id="line2d_44">
    <path clip-path="url(#p2bdb95d076)" d="M 73.832727 94.6944 
L 81.949091 54.693224 
L 90.065455 50.410216 
L 98.181818 48.211809 
L 106.298182 64.57301 
L 114.414545 69.828171 
L 122.530909 72.053062 
L 130.647273 73.075622 
L 138.763636 73.575973 
L 146.88 73.846802 
L 154.996364 74.012287 
L 163.112727 74.124479 
L 171.229091 74.20617 
L 179.345455 74.268413 
L 187.461818 74.317283 
L 195.578182 74.356496 
L 203.694545 74.388503 
L 211.810909 74.414999 
L 219.927273 74.437201 
L 228.043636 74.456 
L 236.16 74.472065 
L 244.276364 74.485907 
L 252.392727 74.497922 
L 260.509091 74.50842 
L 268.625455 74.517648 
L 276.741818 74.525803 
L 284.858182 74.533048 
L 292.974545 74.539513 
L 301.090909 74.545307 
L 309.207273 74.550521 
L 317.323636 74.555228 
L 325.44 74.559495 
L 333.556364 74.563373 
L 341.672727 74.566908 
L 349.789091 74.570141 
L 357.905455 74.573105 
L 366.021818 74.575828 
L 374.138182 74.578337 
L 382.254545 74.580654 
L 390.370909 74.582796 
" style="fill:none;stroke:#ff0000;stroke-linecap:square;stroke-opacity:0.1;stroke-width:1.5;"/>
   </g>
   <g id="line2d_45">
    <path clip-path="url(#p2bdb95d076)" d="M 73.832727 94.6944 
L 81.949091 242.643114 
L 90.065455 84.967603 
L 98.181818 63.723977 
L 106.298182 57.273519 
L 114.414545 54.097636 
L 122.530909 83.212728 
L 130.647273 55.075966 
L 138.763636 80.484993 
L 146.88 89.165303 
L 154.996364 92.120374 
L 163.112727 93.163726 
L 171.229091 93.588069 
L 179.345455 93.807258 
L 187.461818 93.949066 
L 195.578182 94.053944 
L 203.694545 94.136528 
L 211.810909 94.203543 
L 219.927273 94.258894 
L 228.043636 55.201583 
L 236.16 85.621491 
L 244.276364 91.000966 
L 252.392727 91.941862 
L 260.509091 92.118313 
L 268.625455 92.165856 
L 276.741818 92.19055 
L 284.858182 92.209713 
L 292.974545 92.226314 
L 301.090909 92.241046 
L 309.207273 92.254219 
L 317.323636 92.266051 
L 325.44 92.27672 
L 333.556364 92.286373 
L 341.672727 92.295135 
L 349.789091 92.303114 
L 357.905455 92.310401 
L 366.021818 92.317072 
L 374.138182 92.323196 
L 382.254545 92.328831 
L 390.370909 92.334028 
" style="fill:none;stroke:#ff0000;stroke-linecap:square;stroke-opacity:0.1;stroke-width:1.5;"/>
   </g>
   <g id="line2d_46">
    <path clip-path="url(#p2bdb95d076)" d="M 73.832727 94.6944 
L 81.949091 242.643114 
L 90.065455 84.967603 
L 98.181818 63.723977 
L 106.298182 57.273519 
L 114.414545 54.097636 
L 122.530909 83.212728 
L 130.647273 55.075966 
L 138.763636 80.484993 
L 146.88 89.165303 
L 154.996364 92.120374 
L 163.112727 93.163726 
L 171.229091 93.588069 
L 179.345455 93.807258 
L 187.461818 93.949066 
L 195.578182 94.053944 
L 203.694545 94.136528 
L 211.810909 94.203543 
L 219.927273 94.258894 
L 228.043636 55.201583 
L 236.16 85.621491 
L 244.276364 91.000966 
L 252.392727 91.941862 
L 260.509091 92.118313 
L 268.625455 92.165856 
L 276.741818 92.19055 
L 284.858182 92.209713 
L 292.974545 92.226314 
L 301.090909 92.241046 
L 309.207273 92.254219 
L 317.323636 92.266051 
L 325.44 92.27672 
L 333.556364 92.286373 
L 341.672727 92.295135 
L 349.789091 92.303114 
L 357.905455 92.310401 
L 366.021818 92.317072 
L 374.138182 92.323196 
L 382.254545 92.328831 
L 390.370909 92.334028 
" style="fill:none;stroke:#ff0000;stroke-linecap:square;stroke-opacity:0.1;stroke-width:1.5;"/>
   </g>
   <g id="line2d_47">
    <path clip-path="url(#p2bdb95d076)" d="M 73.832727 94.6944 
L 81.949091 54.693224 
L 90.065455 50.410216 
L 98.181818 160.286837 
L 106.298182 63.125971 
L 114.414545 84.745334 
L 122.530909 89.669983 
L 130.647273 91.105685 
L 138.763636 91.63307 
L 146.88 91.882677 
L 154.996364 92.030908 
L 163.112727 92.132594 
L 171.229091 92.20779 
L 179.345455 92.265682 
L 187.461818 92.31141 
L 195.578182 92.348229 
L 203.694545 92.378341 
L 211.810909 92.403297 
L 219.927273 92.424221 
L 228.043636 92.441941 
L 236.16 92.457085 
L 244.276364 92.470131 
L 252.392727 92.481451 
L 260.509091 92.491337 
L 268.625455 92.500024 
L 276.741818 92.507698 
L 284.858182 92.514511 
L 292.974545 92.520588 
L 301.090909 92.526031 
L 309.207273 92.530926 
L 317.323636 92.535344 
L 325.44 92.539345 
L 333.556364 92.542981 
L 341.672727 92.546293 
L 349.789091 92.549321 
L 357.905455 92.552095 
L 366.021818 92.554643 
L 374.138182 92.556989 
L 382.254545 92.559154 
L 390.370909 92.561156 
" style="fill:none;stroke:#ff0000;stroke-linecap:square;stroke-opacity:0.1;stroke-width:1.5;"/>
   </g>
   <g id="line2d_48">
    <path clip-path="url(#p2bdb95d076)" d="M 73.832727 94.6944 
L 81.949091 54.693224 
L 90.065455 50.410216 
L 98.181818 48.211809 
L 106.298182 64.57301 
L 114.414545 69.828171 
L 122.530909 72.053062 
L 130.647273 73.075622 
L 138.763636 73.575973 
L 146.88 73.846802 
L 154.996364 74.012287 
L 163.112727 74.124479 
L 171.229091 74.20617 
L 179.345455 74.268413 
L 187.461818 74.317283 
L 195.578182 74.356496 
L 203.694545 74.388503 
L 211.810909 74.414999 
L 219.927273 74.437201 
L 228.043636 74.456 
L 236.16 74.472065 
L 244.276364 74.485907 
L 252.392727 74.497922 
L 260.509091 74.50842 
L 268.625455 74.517648 
L 276.741818 74.525803 
L 284.858182 74.533048 
L 292.974545 74.539513 
L 301.090909 74.545307 
L 309.207273 74.550521 
L 317.323636 74.555228 
L 325.44 74.559495 
L 333.556364 74.563373 
L 341.672727 74.566908 
L 349.789091 74.570141 
L 357.905455 74.573105 
L 366.021818 74.575828 
L 374.138182 74.578337 
L 382.254545 74.580654 
L 390.370909 74.582796 
" style="fill:none;stroke:#ff0000;stroke-linecap:square;stroke-opacity:0.1;stroke-width:1.5;"/>
   </g>
   <g id="line2d_49">
    <path clip-path="url(#p2bdb95d076)" d="M 73.832727 94.6944 
L 81.949091 54.693224 
L 90.065455 50.410216 
L 98.181818 48.211809 
L 106.298182 64.57301 
L 114.414545 69.828171 
L 122.530909 72.053062 
L 130.647273 73.075622 
L 138.763636 73.575973 
L 146.88 73.846802 
L 154.996364 74.012287 
L 163.112727 74.124479 
L 171.229091 74.20617 
L 179.345455 74.268413 
L 187.461818 74.317283 
L 195.578182 74.356496 
L 203.694545 74.388503 
L 211.810909 74.414999 
L 219.927273 74.437201 
L 228.043636 74.456 
L 236.16 74.472065 
L 244.276364 74.485907 
L 252.392727 74.497922 
L 260.509091 74.50842 
L 268.625455 74.517648 
L 276.741818 74.525803 
L 284.858182 74.533048 
L 292.974545 74.539513 
L 301.090909 74.545307 
L 309.207273 74.550521 
L 317.323636 74.555228 
L 325.44 74.559495 
L 333.556364 74.563373 
L 341.672727 74.566908 
L 349.789091 74.570141 
L 357.905455 74.573105 
L 366.021818 74.575828 
L 374.138182 74.578337 
L 382.254545 74.580654 
L 390.370909 74.582796 
" style="fill:none;stroke:#ff0000;stroke-linecap:square;stroke-opacity:0.1;stroke-width:1.5;"/>
   </g>
   <g id="line2d_50">
    <path clip-path="url(#p2bdb95d076)" d="M 73.832727 94.6944 
L 81.949091 54.693224 
L 90.065455 50.410216 
L 98.181818 160.286837 
L 106.298182 63.125971 
L 114.414545 84.745334 
L 122.530909 89.669983 
L 130.647273 91.105685 
L 138.763636 91.63307 
L 146.88 91.882677 
L 154.996364 92.030908 
L 163.112727 92.132594 
L 171.229091 92.20779 
L 179.345455 92.265682 
L 187.461818 92.31141 
L 195.578182 92.348229 
L 203.694545 92.378341 
L 211.810909 92.403297 
L 219.927273 92.424221 
L 228.043636 92.441941 
L 236.16 92.457085 
L 244.276364 92.470131 
L 252.392727 92.481451 
L 260.509091 92.491337 
L 268.625455 92.500024 
L 276.741818 92.507698 
L 284.858182 92.514511 
L 292.974545 92.520588 
L 301.090909 92.526031 
L 309.207273 92.530926 
L 317.323636 92.535344 
L 325.44 92.539345 
L 333.556364 92.542981 
L 341.672727 92.546293 
L 349.789091 92.549321 
L 357.905455 92.552095 
L 366.021818 92.554643 
L 374.138182 92.556989 
L 382.254545 92.559154 
L 390.370909 92.561156 
" style="fill:none;stroke:#ff0000;stroke-linecap:square;stroke-opacity:0.1;stroke-width:1.5;"/>
   </g>
   <g id="line2d_51">
    <path clip-path="url(#p2bdb95d076)" d="M 73.832727 94.6944 
L 81.949091 54.693224 
L 90.065455 50.410216 
L 98.181818 48.211809 
L 106.298182 64.57301 
L 114.414545 69.828171 
L 122.530909 72.053062 
L 130.647273 73.075622 
L 138.763636 73.575973 
L 146.88 73.846802 
L 154.996364 74.012287 
L 163.112727 74.124479 
L 171.229091 74.20617 
L 179.345455 74.268413 
L 187.461818 74.317283 
L 195.578182 74.356496 
L 203.694545 74.388503 
L 211.810909 74.414999 
L 219.927273 74.437201 
L 228.043636 74.456 
L 236.16 74.472065 
L 244.276364 74.485907 
L 252.392727 74.497922 
L 260.509091 74.50842 
L 268.625455 74.517648 
L 276.741818 74.525803 
L 284.858182 74.533048 
L 292.974545 74.539513 
L 301.090909 74.545307 
L 309.207273 74.550521 
L 317.323636 74.555228 
L 325.44 74.559495 
L 333.556364 74.563373 
L 341.672727 74.566908 
L 349.789091 74.570141 
L 357.905455 74.573105 
L 366.021818 74.575828 
L 374.138182 74.578337 
L 382.254545 74.580654 
L 390.370909 74.582796 
" style="fill:none;stroke:#ff0000;stroke-linecap:square;stroke-opacity:0.1;stroke-width:1.5;"/>
   </g>
   <g id="line2d_52">
    <path clip-path="url(#p2bdb95d076)" d="M 73.832727 94.6944 
L 81.949091 242.643114 
L 90.065455 284.845195 
L 98.181818 111.284751 
L 106.298182 73.757662 
L 114.414545 63.536746 
L 122.530909 58.924579 
L 130.647273 56.091941 
L 138.763636 90.375782 
L 146.88 58.046894 
L 154.996364 88.144908 
L 163.112727 100.878055 
L 171.229091 58.105846 
L 179.345455 87.164142 
L 187.461818 98.200798 
L 195.578182 57.053962 
L 203.694545 85.826169 
L 211.810909 95.791721 
L 219.927273 99.327876 
L 228.043636 100.594555 
L 236.16 101.071305 
L 244.276364 247.071214 
L 252.392727 279.981857 
L 260.509091 288.719298 
L 268.625455 292.894697 
L 276.741818 295.588263 
L 284.858182 297.508977 
L 292.974545 298.941735 
L 301.090909 300.043864 
L 309.207273 109.848528 
L 317.323636 247.803772 
L 325.44 288.164984 
L 333.556364 295.642116 
L 341.672727 297.457535 
L 349.789091 298.35777 
L 357.905455 299.044115 
L 366.021818 299.628641 
L 374.138182 300.139004 
L 382.254545 300.588896 
L 390.370909 300.988151 
" style="fill:none;stroke:#ff0000;stroke-linecap:square;stroke-opacity:0.1;stroke-width:1.5;"/>
   </g>
   <g id="line2d_53">
    <path clip-path="url(#p2bdb95d076)" d="M 73.832727 94.6944 
L 81.949091 54.693224 
L 90.065455 172.909137 
L 98.181818 68.105397 
L 106.298182 57.815925 
L 114.414545 85.785111 
L 122.530909 92.654702 
L 130.647273 211.621771 
L 138.763636 72.283737 
L 146.88 96.152359 
L 154.996364 101.77772 
L 163.112727 103.149186 
L 171.229091 103.535592 
L 179.345455 103.690592 
L 187.461818 61.397925 
L 195.578182 93.891515 
L 203.694545 99.552336 
L 211.810909 100.533995 
L 219.927273 100.723635 
L 228.043636 100.781156 
L 236.16 100.814213 
L 244.276364 100.840191 
L 252.392727 100.862277 
L 260.509091 100.881425 
L 268.625455 100.898164 
L 276.741818 100.912887 
L 284.858182 100.925909 
L 292.974545 100.937481 
L 301.090909 100.947811 
L 309.207273 100.957073 
L 317.323636 100.965408 
L 325.44 100.972937 
L 333.556364 100.97976 
L 341.672727 100.985963 
L 349.789091 100.99162 
L 357.905455 100.996792 
L 366.021818 101.001534 
L 374.138182 101.005891 
L 382.254545 101.009906 
L 390.370909 101.013612 
" style="fill:none;stroke:#ff0000;stroke-linecap:square;stroke-opacity:0.1;stroke-width:1.5;"/>
   </g>
   <g id="line2d_54">
    <path clip-path="url(#p2bdb95d076)" d="M 73.832727 94.6944 
L 81.949091 54.693224 
L 90.065455 50.410216 
L 98.181818 160.286837 
L 106.298182 63.125971 
L 114.414545 84.745334 
L 122.530909 89.669983 
L 130.647273 91.105685 
L 138.763636 91.63307 
L 146.88 91.882677 
L 154.996364 92.030908 
L 163.112727 92.132594 
L 171.229091 92.20779 
L 179.345455 92.265682 
L 187.461818 92.31141 
L 195.578182 92.348229 
L 203.694545 92.378341 
L 211.810909 92.403297 
L 219.927273 92.424221 
L 228.043636 92.441941 
L 236.16 92.457085 
L 244.276364 92.470131 
L 252.392727 92.481451 
L 260.509091 92.491337 
L 268.625455 92.500024 
L 276.741818 92.507698 
L 284.858182 92.514511 
L 292.974545 92.520588 
L 301.090909 92.526031 
L 309.207273 92.530926 
L 317.323636 92.535344 
L 325.44 92.539345 
L 333.556364 92.542981 
L 341.672727 92.546293 
L 349.789091 92.549321 
L 357.905455 92.552095 
L 366.021818 92.554643 
L 374.138182 92.556989 
L 382.254545 92.559154 
L 390.370909 92.561156 
" style="fill:none;stroke:#ff0000;stroke-linecap:square;stroke-opacity:0.1;stroke-width:1.5;"/>
   </g>
   <g id="line2d_55">
    <path clip-path="url(#p2bdb95d076)" d="M 73.832727 94.6944 
L 81.949091 242.643114 
L 90.065455 84.967603 
L 98.181818 63.723977 
L 106.298182 216.837233 
L 114.414545 86.735833 
L 122.530909 66.598004 
L 130.647273 103.209751 
L 138.763636 65.938685 
L 146.88 99.335221 
L 154.996364 109.368988 
L 163.112727 112.329727 
L 171.229091 65.334559 
L 179.345455 98.5846 
L 187.461818 106.759751 
L 195.578182 108.740222 
L 203.694545 109.242019 
L 211.810909 109.4013 
L 219.927273 109.478734 
L 228.043636 109.532274 
L 236.16 109.575241 
L 244.276364 109.61139 
L 252.392727 109.642329 
L 260.509091 109.669062 
L 268.625455 109.692331 
L 276.741818 109.712713 
L 284.858182 109.730669 
L 292.974545 109.746572 
L 301.090909 109.760723 
L 309.207273 109.773373 
L 317.323636 109.784726 
L 325.44 109.794955 
L 333.556364 109.804204 
L 341.672727 109.812594 
L 349.789091 109.820229 
L 357.905455 109.827197 
L 366.021818 109.833574 
L 374.138182 109.839424 
L 382.254545 109.844804 
L 390.370909 109.849764 
" style="fill:none;stroke:#ff0000;stroke-linecap:square;stroke-opacity:0.1;stroke-width:1.5;"/>
   </g>
   <g id="line2d_56">
    <path clip-path="url(#p2bdb95d076)" d="M 73.832727 267.6672 
L 81.949091 249.275628 
L 90.065455 277.803723 
L 98.181818 270.249314 
L 106.298182 293.937299 
L 114.414545 287.781122 
L 122.530909 290.877193 
L 130.647273 283.738667 
L 138.763636 289.712976 
L 146.88 286.565039 
L 154.996364 277.555913 
L 163.112727 274.105712 
L 171.229091 286.74508 
L 179.345455 282.508991 
L 187.461818 277.267166 
L 195.578182 285.377046 
L 203.694545 282.118859 
L 211.810909 280.932265 
L 219.927273 280.504257 
L 228.043636 282.938202 
L 236.16 280.872736 
L 244.276364 275.820854 
L 252.392727 272.526034 
L 260.509091 271.434484 
L 268.625455 270.923477 
L 276.741818 270.608703 
L 284.858182 270.384653 
L 292.974545 270.213291 
L 301.090909 270.076935 
L 309.207273 280.371859 
L 317.323636 273.470462 
L 325.44 270.839334 
L 333.556364 270.301622 
L 341.672727 270.145442 
L 349.789091 264.623169 
L 357.905455 263.63481 
L 366.021818 271.288451 
L 374.138182 269.855619 
L 382.254545 269.587064 
L 390.370909 269.507795 
" style="fill:none;stroke:#1f77b4;stroke-linecap:square;stroke-width:1.5;"/>
   </g>
   <g id="line2d_57">
    <path clip-path="url(#p2bdb95d076)" d="M 73.832727 94.6944 
L 81.949091 120.475686 
L 90.065455 88.618007 
L 98.181818 101.559703 
L 106.298182 72.847563 
L 114.414545 80.845168 
L 122.530909 78.036064 
L 130.647273 86.684159 
L 138.763636 80.178275 
L 146.88 84.192256 
L 154.996364 95.686136 
L 163.112727 99.17209 
L 171.229091 84.307882 
L 179.345455 89.930302 
L 187.461818 95.597863 
L 195.578182 85.983073 
L 203.694545 90.391672 
L 211.810909 91.883782 
L 219.927273 92.409303 
L 228.043636 88.694568 
L 236.16 91.815596 
L 244.276364 97.455475 
L 252.392727 100.720203 
L 260.509091 101.612308 
L 268.625455 101.959563 
L 276.741818 102.142255 
L 284.858182 102.25993 
L 292.974545 102.345052 
L 301.090909 102.41064 
L 309.207273 92.909843 
L 317.323636 99.815551 
L 325.44 101.840741 
L 333.556364 102.221032 
L 341.672727 102.317635 
L 349.789091 108.641062 
L 357.905455 109.370923 
L 366.021818 100.67508 
L 374.138182 102.441777 
L 382.254545 102.734271 
L 390.370909 102.798075 
" style="fill:none;stroke:#ff0000;stroke-linecap:square;stroke-width:1.5;"/>
   </g>
   <g id="patch_5">
    <path d="M 57.6 307.584 
L 57.6 41.472 
" style="fill:none;stroke:#000000;stroke-linecap:square;stroke-linejoin:miter;stroke-width:0.8;"/>
   </g>
   <g id="patch_6">
    <path d="M 414.72 307.584 
L 414.72 41.472 
" style="fill:none;stroke:#000000;stroke-linecap:square;stroke-linejoin:miter;stroke-width:0.8;"/>
   </g>
   <g id="patch_7">
    <path d="M 57.6 307.584 
L 414.72 307.584 
" style="fill:none;stroke:#000000;stroke-linecap:square;stroke-linejoin:miter;stroke-width:0.8;"/>
   </g>
   <g id="patch_8">
    <path d="M 57.6 41.472 
L 414.72 41.472 
" style="fill:none;stroke:#000000;stroke-linecap:square;stroke-linejoin:miter;stroke-width:0.8;"/>
   </g>
   <g id="text_18">
    <!-- Type1_depressed -->
    <g transform="translate(184.4775 35.472)scale(0.12 -0.12)">
     <defs>
      <path d="M -19 4666 
L 3928 4666 
L 3928 4134 
L 2272 4134 
L 2272 0 
L 1638 0 
L 1638 4134 
L -19 4134 
L -19 4666 
z
" id="DejaVuSans-54" transform="scale(0.015625)"/>
      <path d="M 2059 -325 
Q 1816 -950 1584 -1140 
Q 1353 -1331 966 -1331 
L 506 -1331 
L 506 -850 
L 844 -850 
Q 1081 -850 1212 -737 
Q 1344 -625 1503 -206 
L 1606 56 
L 191 3500 
L 800 3500 
L 1894 763 
L 2988 3500 
L 3597 3500 
L 2059 -325 
z
" id="DejaVuSans-79" transform="scale(0.015625)"/>
      <path d="M 3263 -1063 
L 3263 -1509 
L -63 -1509 
L -63 -1063 
L 3263 -1063 
z
" id="DejaVuSans-5f" transform="scale(0.015625)"/>
      <path d="M 2906 2969 
L 2906 4863 
L 3481 4863 
L 3481 0 
L 2906 0 
L 2906 525 
Q 2725 213 2448 61 
Q 2172 -91 1784 -91 
Q 1150 -91 751 415 
Q 353 922 353 1747 
Q 353 2572 751 3078 
Q 1150 3584 1784 3584 
Q 2172 3584 2448 3432 
Q 2725 3281 2906 2969 
z
M 947 1747 
Q 947 1113 1208 752 
Q 1469 391 1925 391 
Q 2381 391 2643 752 
Q 2906 1113 2906 1747 
Q 2906 2381 2643 2742 
Q 2381 3103 1925 3103 
Q 1469 3103 1208 2742 
Q 947 2381 947 1747 
z
" id="DejaVuSans-64" transform="scale(0.015625)"/>
      <path d="M 2631 2963 
Q 2534 3019 2420 3045 
Q 2306 3072 2169 3072 
Q 1681 3072 1420 2755 
Q 1159 2438 1159 1844 
L 1159 0 
L 581 0 
L 581 3500 
L 1159 3500 
L 1159 2956 
Q 1341 3275 1631 3429 
Q 1922 3584 2338 3584 
Q 2397 3584 2469 3576 
Q 2541 3569 2628 3553 
L 2631 2963 
z
" id="DejaVuSans-72" transform="scale(0.015625)"/>
      <path d="M 2834 3397 
L 2834 2853 
Q 2591 2978 2328 3040 
Q 2066 3103 1784 3103 
Q 1356 3103 1142 2972 
Q 928 2841 928 2578 
Q 928 2378 1081 2264 
Q 1234 2150 1697 2047 
L 1894 2003 
Q 2506 1872 2764 1633 
Q 3022 1394 3022 966 
Q 3022 478 2636 193 
Q 2250 -91 1575 -91 
Q 1294 -91 989 -36 
Q 684 19 347 128 
L 347 722 
Q 666 556 975 473 
Q 1284 391 1588 391 
Q 1994 391 2212 530 
Q 2431 669 2431 922 
Q 2431 1156 2273 1281 
Q 2116 1406 1581 1522 
L 1381 1569 
Q 847 1681 609 1914 
Q 372 2147 372 2553 
Q 372 3047 722 3315 
Q 1072 3584 1716 3584 
Q 2034 3584 2315 3537 
Q 2597 3491 2834 3397 
z
" id="DejaVuSans-73" transform="scale(0.015625)"/>
     </defs>
     <use xlink:href="#DejaVuSans-54"/>
     <use x="45.458984" xlink:href="#DejaVuSans-79"/>
     <use x="104.638672" xlink:href="#DejaVuSans-70"/>
     <use x="168.115234" xlink:href="#DejaVuSans-65"/>
     <use x="229.638672" xlink:href="#DejaVuSans-31"/>
     <use x="293.261719" xlink:href="#DejaVuSans-5f"/>
     <use x="343.261719" xlink:href="#DejaVuSans-64"/>
     <use x="406.738281" xlink:href="#DejaVuSans-65"/>
     <use x="468.261719" xlink:href="#DejaVuSans-70"/>
     <use x="531.738281" xlink:href="#DejaVuSans-72"/>
     <use x="570.601562" xlink:href="#DejaVuSans-65"/>
     <use x="632.125" xlink:href="#DejaVuSans-73"/>
     <use x="684.224609" xlink:href="#DejaVuSans-73"/>
     <use x="736.324219" xlink:href="#DejaVuSans-65"/>
     <use x="797.847656" xlink:href="#DejaVuSans-64"/>
    </g>
   </g>
   <g id="legend_1">
    <g id="patch_9">
     <path d="M 351.635625 190.706125 
L 407.72 190.706125 
Q 409.72 190.706125 409.72 188.706125 
L 409.72 160.349875 
Q 409.72 158.349875 407.72 158.349875 
L 351.635625 158.349875 
Q 349.635625 158.349875 349.635625 160.349875 
L 349.635625 188.706125 
Q 349.635625 190.706125 351.635625 190.706125 
z
" style="fill:#ffffff;opacity:0.8;stroke:#cccccc;stroke-linejoin:miter;"/>
    </g>
    <g id="line2d_58">
     <path d="M 353.635625 166.448312 
L 373.635625 166.448312 
" style="fill:none;stroke:#1f77b4;stroke-linecap:square;stroke-width:1.5;"/>
    </g>
    <g id="line2d_59"/>
    <g id="text_19">
     <!-- coop -->
     <g transform="translate(381.635625 169.948312)scale(0.1 -0.1)">
      <use xlink:href="#DejaVuSans-63"/>
      <use x="54.980469" xlink:href="#DejaVuSans-6f"/>
      <use x="116.162109" xlink:href="#DejaVuSans-6f"/>
      <use x="177.34375" xlink:href="#DejaVuSans-70"/>
     </g>
    </g>
    <g id="line2d_60">
     <path d="M 353.635625 181.126437 
L 373.635625 181.126437 
" style="fill:none;stroke:#ff0000;stroke-linecap:square;stroke-width:1.5;"/>
    </g>
    <g id="line2d_61"/>
    <g id="text_20">
     <!-- host -->
     <g transform="translate(381.635625 184.626437)scale(0.1 -0.1)">
      <defs>
       <path d="M 3513 2113 
L 3513 0 
L 2938 0 
L 2938 2094 
Q 2938 2591 2744 2837 
Q 2550 3084 2163 3084 
Q 1697 3084 1428 2787 
Q 1159 2491 1159 1978 
L 1159 0 
L 581 0 
L 581 4863 
L 1159 4863 
L 1159 2956 
Q 1366 3272 1645 3428 
Q 1925 3584 2291 3584 
Q 2894 3584 3203 3211 
Q 3513 2838 3513 2113 
z
" id="DejaVuSans-68" transform="scale(0.015625)"/>
      </defs>
      <use xlink:href="#DejaVuSans-68"/>
      <use x="63.378906" xlink:href="#DejaVuSans-6f"/>
      <use x="124.560547" xlink:href="#DejaVuSans-73"/>
      <use x="176.660156" xlink:href="#DejaVuSans-74"/>
     </g>
    </g>
   </g>
  </g>
 </g>
 <defs>
  <clipPath id="p2bdb95d076">
   <rect height="266.112" width="357.12" x="57.6" y="41.472"/>
  </clipPath>
 </defs>
</svg>
