<?xml version="1.0" encoding="utf-8" standalone="no"?>
<!DOCTYPE svg PUBLIC "-//W3C//DTD SVG 1.1//EN"
  "http://www.w3.org/Graphics/SVG/1.1/DTD/svg11.dtd">
<svg height="345.6pt" version="1.1" viewBox="0 0 460.8 345.6" width="460.8pt" xmlns="http://www.w3.org/2000/svg" xmlns:xlink="http://www.w3.org/1999/xlink">
 <metadata>
  <rdf:RDF xmlns:cc="http://creativecommons.org/ns#" xmlns:dc="http://purl.org/dc/elements/1.1/" xmlns:rdf="http://www.w3.org/1999/02/22-rdf-syntax-ns#">
   <cc:Work>
    <dc:type rdf:resource="http://purl.org/dc/dcmitype/StillImage"/>
    <dc:date>2023-10-20T11:35:29.810486</dc:date>
    <dc:format>image/svg+xml</dc:format>
    <dc:creator>
     <cc:Agent>
      <dc:title>Matplotlib v3.4.1, https://matplotlib.org/</dc:title>
     </cc:Agent>
    </dc:creator>
   </cc:Work>
  </rdf:RDF>
 </metadata>
 <defs>
  <style type="text/css">*{stroke-linecap:butt;stroke-linejoin:round;}</style>
 </defs>
 <g id="figure_1">
  <g id="patch_1">
   <path d="M 0 345.6 
L 460.8 345.6 
L 460.8 0 
L 0 0 
z
" style="fill:#ffffff;"/>
  </g>
  <g id="axes_1">
   <g id="patch_2">
    <path d="M 57.6 307.584 
L 414.72 307.584 
L 414.72 41.472 
L 57.6 41.472 
z
" style="fill:#ffffff;"/>
   </g>
   <g id="patch_3">
    <path clip-path="url(#p70c078f89a)" d="M 73.832727 307.584 
L 73.832727 41.472 
L 236.16 41.472 
L 236.16 307.584 
z
" style="fill:#add8e6;opacity:0.2;"/>
   </g>
   <g id="patch_4">
    <path clip-path="url(#p70c078f89a)" d="M 236.16 307.584 
L 236.16 41.472 
L 398.487273 41.472 
L 398.487273 307.584 
z
" style="fill:#ff7f50;opacity:0.2;"/>
   </g>
   <g id="matplotlib.axis_1">
    <g id="xtick_1">
     <g id="line2d_1">
      <defs>
       <path d="M 0 0 
L 0 3.5 
" id="mb868117c98" style="stroke:#000000;stroke-width:0.8;"/>
      </defs>
      <g>
       <use style="stroke:#000000;stroke-width:0.8;" x="73.832727" xlink:href="#mb868117c98" y="307.584"/>
      </g>
     </g>
     <g id="text_1">
      <!-- 0 -->
      <g transform="translate(70.651477 322.182437)scale(0.1 -0.1)">
       <defs>
        <path d="M 2034 4250 
Q 1547 4250 1301 3770 
Q 1056 3291 1056 2328 
Q 1056 1369 1301 889 
Q 1547 409 2034 409 
Q 2525 409 2770 889 
Q 3016 1369 3016 2328 
Q 3016 3291 2770 3770 
Q 2525 4250 2034 4250 
z
M 2034 4750 
Q 2819 4750 3233 4129 
Q 3647 3509 3647 2328 
Q 3647 1150 3233 529 
Q 2819 -91 2034 -91 
Q 1250 -91 836 529 
Q 422 1150 422 2328 
Q 422 3509 836 4129 
Q 1250 4750 2034 4750 
z
" id="DejaVuSans-30" transform="scale(0.015625)"/>
       </defs>
       <use xlink:href="#DejaVuSans-30"/>
      </g>
     </g>
    </g>
    <g id="xtick_2">
     <g id="line2d_2">
      <g>
       <use style="stroke:#000000;stroke-width:0.8;" x="114.414545" xlink:href="#mb868117c98" y="307.584"/>
      </g>
     </g>
     <g id="text_2">
      <!-- 5 -->
      <g transform="translate(111.233295 322.182437)scale(0.1 -0.1)">
       <defs>
        <path d="M 691 4666 
L 3169 4666 
L 3169 4134 
L 1269 4134 
L 1269 2991 
Q 1406 3038 1543 3061 
Q 1681 3084 1819 3084 
Q 2600 3084 3056 2656 
Q 3513 2228 3513 1497 
Q 3513 744 3044 326 
Q 2575 -91 1722 -91 
Q 1428 -91 1123 -41 
Q 819 9 494 109 
L 494 744 
Q 775 591 1075 516 
Q 1375 441 1709 441 
Q 2250 441 2565 725 
Q 2881 1009 2881 1497 
Q 2881 1984 2565 2268 
Q 2250 2553 1709 2553 
Q 1456 2553 1204 2497 
Q 953 2441 691 2322 
L 691 4666 
z
" id="DejaVuSans-35" transform="scale(0.015625)"/>
       </defs>
       <use xlink:href="#DejaVuSans-35"/>
      </g>
     </g>
    </g>
    <g id="xtick_3">
     <g id="line2d_3">
      <g>
       <use style="stroke:#000000;stroke-width:0.8;" x="154.996364" xlink:href="#mb868117c98" y="307.584"/>
      </g>
     </g>
     <g id="text_3">
      <!-- 10 -->
      <g transform="translate(148.633864 322.182437)scale(0.1 -0.1)">
       <defs>
        <path d="M 794 531 
L 1825 531 
L 1825 4091 
L 703 3866 
L 703 4441 
L 1819 4666 
L 2450 4666 
L 2450 531 
L 3481 531 
L 3481 0 
L 794 0 
L 794 531 
z
" id="DejaVuSans-31" transform="scale(0.015625)"/>
       </defs>
       <use xlink:href="#DejaVuSans-31"/>
       <use x="63.623047" xlink:href="#DejaVuSans-30"/>
      </g>
     </g>
    </g>
    <g id="xtick_4">
     <g id="line2d_4">
      <g>
       <use style="stroke:#000000;stroke-width:0.8;" x="195.578182" xlink:href="#mb868117c98" y="307.584"/>
      </g>
     </g>
     <g id="text_4">
      <!-- 15 -->
      <g transform="translate(189.215682 322.182437)scale(0.1 -0.1)">
       <use xlink:href="#DejaVuSans-31"/>
       <use x="63.623047" xlink:href="#DejaVuSans-35"/>
      </g>
     </g>
    </g>
    <g id="xtick_5">
     <g id="line2d_5">
      <g>
       <use style="stroke:#000000;stroke-width:0.8;" x="236.16" xlink:href="#mb868117c98" y="307.584"/>
      </g>
     </g>
     <g id="text_5">
      <!-- 20 -->
      <g transform="translate(229.7975 322.182437)scale(0.1 -0.1)">
       <defs>
        <path d="M 1228 531 
L 3431 531 
L 3431 0 
L 469 0 
L 469 531 
Q 828 903 1448 1529 
Q 2069 2156 2228 2338 
Q 2531 2678 2651 2914 
Q 2772 3150 2772 3378 
Q 2772 3750 2511 3984 
Q 2250 4219 1831 4219 
Q 1534 4219 1204 4116 
Q 875 4013 500 3803 
L 500 4441 
Q 881 4594 1212 4672 
Q 1544 4750 1819 4750 
Q 2544 4750 2975 4387 
Q 3406 4025 3406 3419 
Q 3406 3131 3298 2873 
Q 3191 2616 2906 2266 
Q 2828 2175 2409 1742 
Q 1991 1309 1228 531 
z
" id="DejaVuSans-32" transform="scale(0.015625)"/>
       </defs>
       <use xlink:href="#DejaVuSans-32"/>
       <use x="63.623047" xlink:href="#DejaVuSans-30"/>
      </g>
     </g>
    </g>
    <g id="xtick_6">
     <g id="line2d_6">
      <g>
       <use style="stroke:#000000;stroke-width:0.8;" x="276.741818" xlink:href="#mb868117c98" y="307.584"/>
      </g>
     </g>
     <g id="text_6">
      <!-- 25 -->
      <g transform="translate(270.379318 322.182437)scale(0.1 -0.1)">
       <use xlink:href="#DejaVuSans-32"/>
       <use x="63.623047" xlink:href="#DejaVuSans-35"/>
      </g>
     </g>
    </g>
    <g id="xtick_7">
     <g id="line2d_7">
      <g>
       <use style="stroke:#000000;stroke-width:0.8;" x="317.323636" xlink:href="#mb868117c98" y="307.584"/>
      </g>
     </g>
     <g id="text_7">
      <!-- 30 -->
      <g transform="translate(310.961136 322.182437)scale(0.1 -0.1)">
       <defs>
        <path d="M 2597 2516 
Q 3050 2419 3304 2112 
Q 3559 1806 3559 1356 
Q 3559 666 3084 287 
Q 2609 -91 1734 -91 
Q 1441 -91 1130 -33 
Q 819 25 488 141 
L 488 750 
Q 750 597 1062 519 
Q 1375 441 1716 441 
Q 2309 441 2620 675 
Q 2931 909 2931 1356 
Q 2931 1769 2642 2001 
Q 2353 2234 1838 2234 
L 1294 2234 
L 1294 2753 
L 1863 2753 
Q 2328 2753 2575 2939 
Q 2822 3125 2822 3475 
Q 2822 3834 2567 4026 
Q 2313 4219 1838 4219 
Q 1578 4219 1281 4162 
Q 984 4106 628 3988 
L 628 4550 
Q 988 4650 1302 4700 
Q 1616 4750 1894 4750 
Q 2613 4750 3031 4423 
Q 3450 4097 3450 3541 
Q 3450 3153 3228 2886 
Q 3006 2619 2597 2516 
z
" id="DejaVuSans-33" transform="scale(0.015625)"/>
       </defs>
       <use xlink:href="#DejaVuSans-33"/>
       <use x="63.623047" xlink:href="#DejaVuSans-30"/>
      </g>
     </g>
    </g>
    <g id="xtick_8">
     <g id="line2d_8">
      <g>
       <use style="stroke:#000000;stroke-width:0.8;" x="357.905455" xlink:href="#mb868117c98" y="307.584"/>
      </g>
     </g>
     <g id="text_8">
      <!-- 35 -->
      <g transform="translate(351.542955 322.182437)scale(0.1 -0.1)">
       <use xlink:href="#DejaVuSans-33"/>
       <use x="63.623047" xlink:href="#DejaVuSans-35"/>
      </g>
     </g>
    </g>
    <g id="xtick_9">
     <g id="line2d_9">
      <g>
       <use style="stroke:#000000;stroke-width:0.8;" x="398.487273" xlink:href="#mb868117c98" y="307.584"/>
      </g>
     </g>
     <g id="text_9">
      <!-- 40 -->
      <g transform="translate(392.124773 322.182437)scale(0.1 -0.1)">
       <defs>
        <path d="M 2419 4116 
L 825 1625 
L 2419 1625 
L 2419 4116 
z
M 2253 4666 
L 3047 4666 
L 3047 1625 
L 3713 1625 
L 3713 1100 
L 3047 1100 
L 3047 0 
L 2419 0 
L 2419 1100 
L 313 1100 
L 313 1709 
L 2253 4666 
z
" id="DejaVuSans-34" transform="scale(0.015625)"/>
       </defs>
       <use xlink:href="#DejaVuSans-34"/>
       <use x="63.623047" xlink:href="#DejaVuSans-30"/>
      </g>
     </g>
    </g>
    <g id="text_10">
     <!-- t -->
     <g transform="translate(234.199844 335.860562)scale(0.1 -0.1)">
      <defs>
       <path d="M 1172 4494 
L 1172 3500 
L 2356 3500 
L 2356 3053 
L 1172 3053 
L 1172 1153 
Q 1172 725 1289 603 
Q 1406 481 1766 481 
L 2356 481 
L 2356 0 
L 1766 0 
Q 1100 0 847 248 
Q 594 497 594 1153 
L 594 3053 
L 172 3053 
L 172 3500 
L 594 3500 
L 594 4494 
L 1172 4494 
z
" id="DejaVuSans-74" transform="scale(0.015625)"/>
      </defs>
      <use xlink:href="#DejaVuSans-74"/>
     </g>
    </g>
   </g>
   <g id="matplotlib.axis_2">
    <g id="ytick_1">
     <g id="line2d_10">
      <defs>
       <path d="M 0 0 
L -3.5 0 
" id="m97320b64bc" style="stroke:#000000;stroke-width:0.8;"/>
      </defs>
      <g>
       <use style="stroke:#000000;stroke-width:0.8;" x="57.6" xlink:href="#m97320b64bc" y="307.584"/>
      </g>
     </g>
     <g id="text_11">
      <!-- 0.0 -->
      <g transform="translate(34.696875 311.383219)scale(0.1 -0.1)">
       <defs>
        <path d="M 684 794 
L 1344 794 
L 1344 0 
L 684 0 
L 684 794 
z
" id="DejaVuSans-2e" transform="scale(0.015625)"/>
       </defs>
       <use xlink:href="#DejaVuSans-30"/>
       <use x="63.623047" xlink:href="#DejaVuSans-2e"/>
       <use x="95.410156" xlink:href="#DejaVuSans-30"/>
      </g>
     </g>
    </g>
    <g id="ytick_2">
     <g id="line2d_11">
      <g>
       <use style="stroke:#000000;stroke-width:0.8;" x="57.6" xlink:href="#m97320b64bc" y="254.3616"/>
      </g>
     </g>
     <g id="text_12">
      <!-- 0.2 -->
      <g transform="translate(34.696875 258.160819)scale(0.1 -0.1)">
       <use xlink:href="#DejaVuSans-30"/>
       <use x="63.623047" xlink:href="#DejaVuSans-2e"/>
       <use x="95.410156" xlink:href="#DejaVuSans-32"/>
      </g>
     </g>
    </g>
    <g id="ytick_3">
     <g id="line2d_12">
      <g>
       <use style="stroke:#000000;stroke-width:0.8;" x="57.6" xlink:href="#m97320b64bc" y="201.1392"/>
      </g>
     </g>
     <g id="text_13">
      <!-- 0.4 -->
      <g transform="translate(34.696875 204.938419)scale(0.1 -0.1)">
       <use xlink:href="#DejaVuSans-30"/>
       <use x="63.623047" xlink:href="#DejaVuSans-2e"/>
       <use x="95.410156" xlink:href="#DejaVuSans-34"/>
      </g>
     </g>
    </g>
    <g id="ytick_4">
     <g id="line2d_13">
      <g>
       <use style="stroke:#000000;stroke-width:0.8;" x="57.6" xlink:href="#m97320b64bc" y="147.9168"/>
      </g>
     </g>
     <g id="text_14">
      <!-- 0.6 -->
      <g transform="translate(34.696875 151.716019)scale(0.1 -0.1)">
       <defs>
        <path d="M 2113 2584 
Q 1688 2584 1439 2293 
Q 1191 2003 1191 1497 
Q 1191 994 1439 701 
Q 1688 409 2113 409 
Q 2538 409 2786 701 
Q 3034 994 3034 1497 
Q 3034 2003 2786 2293 
Q 2538 2584 2113 2584 
z
M 3366 4563 
L 3366 3988 
Q 3128 4100 2886 4159 
Q 2644 4219 2406 4219 
Q 1781 4219 1451 3797 
Q 1122 3375 1075 2522 
Q 1259 2794 1537 2939 
Q 1816 3084 2150 3084 
Q 2853 3084 3261 2657 
Q 3669 2231 3669 1497 
Q 3669 778 3244 343 
Q 2819 -91 2113 -91 
Q 1303 -91 875 529 
Q 447 1150 447 2328 
Q 447 3434 972 4092 
Q 1497 4750 2381 4750 
Q 2619 4750 2861 4703 
Q 3103 4656 3366 4563 
z
" id="DejaVuSans-36" transform="scale(0.015625)"/>
       </defs>
       <use xlink:href="#DejaVuSans-30"/>
       <use x="63.623047" xlink:href="#DejaVuSans-2e"/>
       <use x="95.410156" xlink:href="#DejaVuSans-36"/>
      </g>
     </g>
    </g>
    <g id="ytick_5">
     <g id="line2d_14">
      <g>
       <use style="stroke:#000000;stroke-width:0.8;" x="57.6" xlink:href="#m97320b64bc" y="94.6944"/>
      </g>
     </g>
     <g id="text_15">
      <!-- 0.8 -->
      <g transform="translate(34.696875 98.493619)scale(0.1 -0.1)">
       <defs>
        <path d="M 2034 2216 
Q 1584 2216 1326 1975 
Q 1069 1734 1069 1313 
Q 1069 891 1326 650 
Q 1584 409 2034 409 
Q 2484 409 2743 651 
Q 3003 894 3003 1313 
Q 3003 1734 2745 1975 
Q 2488 2216 2034 2216 
z
M 1403 2484 
Q 997 2584 770 2862 
Q 544 3141 544 3541 
Q 544 4100 942 4425 
Q 1341 4750 2034 4750 
Q 2731 4750 3128 4425 
Q 3525 4100 3525 3541 
Q 3525 3141 3298 2862 
Q 3072 2584 2669 2484 
Q 3125 2378 3379 2068 
Q 3634 1759 3634 1313 
Q 3634 634 3220 271 
Q 2806 -91 2034 -91 
Q 1263 -91 848 271 
Q 434 634 434 1313 
Q 434 1759 690 2068 
Q 947 2378 1403 2484 
z
M 1172 3481 
Q 1172 3119 1398 2916 
Q 1625 2713 2034 2713 
Q 2441 2713 2670 2916 
Q 2900 3119 2900 3481 
Q 2900 3844 2670 4047 
Q 2441 4250 2034 4250 
Q 1625 4250 1398 4047 
Q 1172 3844 1172 3481 
z
" id="DejaVuSans-38" transform="scale(0.015625)"/>
       </defs>
       <use xlink:href="#DejaVuSans-30"/>
       <use x="63.623047" xlink:href="#DejaVuSans-2e"/>
       <use x="95.410156" xlink:href="#DejaVuSans-38"/>
      </g>
     </g>
    </g>
    <g id="ytick_6">
     <g id="line2d_15">
      <g>
       <use style="stroke:#000000;stroke-width:0.8;" x="57.6" xlink:href="#m97320b64bc" y="41.472"/>
      </g>
     </g>
     <g id="text_16">
      <!-- 1.0 -->
      <g transform="translate(34.696875 45.271219)scale(0.1 -0.1)">
       <use xlink:href="#DejaVuSans-31"/>
       <use x="63.623047" xlink:href="#DejaVuSans-2e"/>
       <use x="95.410156" xlink:href="#DejaVuSans-30"/>
      </g>
     </g>
    </g>
    <g id="text_17">
     <!-- p(context) -->
     <g transform="translate(28.617187 200.449875)rotate(-90)scale(0.1 -0.1)">
      <defs>
       <path d="M 1159 525 
L 1159 -1331 
L 581 -1331 
L 581 3500 
L 1159 3500 
L 1159 2969 
Q 1341 3281 1617 3432 
Q 1894 3584 2278 3584 
Q 2916 3584 3314 3078 
Q 3713 2572 3713 1747 
Q 3713 922 3314 415 
Q 2916 -91 2278 -91 
Q 1894 -91 1617 61 
Q 1341 213 1159 525 
z
M 3116 1747 
Q 3116 2381 2855 2742 
Q 2594 3103 2138 3103 
Q 1681 3103 1420 2742 
Q 1159 2381 1159 1747 
Q 1159 1113 1420 752 
Q 1681 391 2138 391 
Q 2594 391 2855 752 
Q 3116 1113 3116 1747 
z
" id="DejaVuSans-70" transform="scale(0.015625)"/>
       <path d="M 1984 4856 
Q 1566 4138 1362 3434 
Q 1159 2731 1159 2009 
Q 1159 1288 1364 580 
Q 1569 -128 1984 -844 
L 1484 -844 
Q 1016 -109 783 600 
Q 550 1309 550 2009 
Q 550 2706 781 3412 
Q 1013 4119 1484 4856 
L 1984 4856 
z
" id="DejaVuSans-28" transform="scale(0.015625)"/>
       <path d="M 3122 3366 
L 3122 2828 
Q 2878 2963 2633 3030 
Q 2388 3097 2138 3097 
Q 1578 3097 1268 2742 
Q 959 2388 959 1747 
Q 959 1106 1268 751 
Q 1578 397 2138 397 
Q 2388 397 2633 464 
Q 2878 531 3122 666 
L 3122 134 
Q 2881 22 2623 -34 
Q 2366 -91 2075 -91 
Q 1284 -91 818 406 
Q 353 903 353 1747 
Q 353 2603 823 3093 
Q 1294 3584 2113 3584 
Q 2378 3584 2631 3529 
Q 2884 3475 3122 3366 
z
" id="DejaVuSans-63" transform="scale(0.015625)"/>
       <path d="M 1959 3097 
Q 1497 3097 1228 2736 
Q 959 2375 959 1747 
Q 959 1119 1226 758 
Q 1494 397 1959 397 
Q 2419 397 2687 759 
Q 2956 1122 2956 1747 
Q 2956 2369 2687 2733 
Q 2419 3097 1959 3097 
z
M 1959 3584 
Q 2709 3584 3137 3096 
Q 3566 2609 3566 1747 
Q 3566 888 3137 398 
Q 2709 -91 1959 -91 
Q 1206 -91 779 398 
Q 353 888 353 1747 
Q 353 2609 779 3096 
Q 1206 3584 1959 3584 
z
" id="DejaVuSans-6f" transform="scale(0.015625)"/>
       <path d="M 3513 2113 
L 3513 0 
L 2938 0 
L 2938 2094 
Q 2938 2591 2744 2837 
Q 2550 3084 2163 3084 
Q 1697 3084 1428 2787 
Q 1159 2491 1159 1978 
L 1159 0 
L 581 0 
L 581 3500 
L 1159 3500 
L 1159 2956 
Q 1366 3272 1645 3428 
Q 1925 3584 2291 3584 
Q 2894 3584 3203 3211 
Q 3513 2838 3513 2113 
z
" id="DejaVuSans-6e" transform="scale(0.015625)"/>
       <path d="M 3597 1894 
L 3597 1613 
L 953 1613 
Q 991 1019 1311 708 
Q 1631 397 2203 397 
Q 2534 397 2845 478 
Q 3156 559 3463 722 
L 3463 178 
Q 3153 47 2828 -22 
Q 2503 -91 2169 -91 
Q 1331 -91 842 396 
Q 353 884 353 1716 
Q 353 2575 817 3079 
Q 1281 3584 2069 3584 
Q 2775 3584 3186 3129 
Q 3597 2675 3597 1894 
z
M 3022 2063 
Q 3016 2534 2758 2815 
Q 2500 3097 2075 3097 
Q 1594 3097 1305 2825 
Q 1016 2553 972 2059 
L 3022 2063 
z
" id="DejaVuSans-65" transform="scale(0.015625)"/>
       <path d="M 3513 3500 
L 2247 1797 
L 3578 0 
L 2900 0 
L 1881 1375 
L 863 0 
L 184 0 
L 1544 1831 
L 300 3500 
L 978 3500 
L 1906 2253 
L 2834 3500 
L 3513 3500 
z
" id="DejaVuSans-78" transform="scale(0.015625)"/>
       <path d="M 513 4856 
L 1013 4856 
Q 1481 4119 1714 3412 
Q 1947 2706 1947 2009 
Q 1947 1309 1714 600 
Q 1481 -109 1013 -844 
L 513 -844 
Q 928 -128 1133 580 
Q 1338 1288 1338 2009 
Q 1338 2731 1133 3434 
Q 928 4138 513 4856 
z
" id="DejaVuSans-29" transform="scale(0.015625)"/>
      </defs>
      <use xlink:href="#DejaVuSans-70"/>
      <use x="63.476562" xlink:href="#DejaVuSans-28"/>
      <use x="102.490234" xlink:href="#DejaVuSans-63"/>
      <use x="157.470703" xlink:href="#DejaVuSans-6f"/>
      <use x="218.652344" xlink:href="#DejaVuSans-6e"/>
      <use x="282.03125" xlink:href="#DejaVuSans-74"/>
      <use x="321.240234" xlink:href="#DejaVuSans-65"/>
      <use x="381.013672" xlink:href="#DejaVuSans-78"/>
      <use x="440.193359" xlink:href="#DejaVuSans-74"/>
      <use x="479.402344" xlink:href="#DejaVuSans-29"/>
     </g>
    </g>
   </g>
   <g id="line2d_16">
    <path clip-path="url(#p70c078f89a)" d="M 73.832727 267.6672 
L 81.949091 145.544839 
L 90.065455 100.668011 
L 98.181818 79.960264 
L 106.298182 69.396265 
L 114.414545 258.701044 
L 122.530909 294.036714 
L 130.647273 300.374422 
L 138.763636 151.554731 
L 146.88 87.338998 
L 154.996364 72.825901 
L 163.112727 67.810998 
L 171.229091 64.752592 
L 179.345455 62.425669 
L 187.461818 60.546114 
L 195.578182 58.991098 
L 203.694545 57.683794 
L 211.810909 239.013907 
L 219.927273 100.60136 
L 228.043636 66.722389 
L 236.16 102.517648 
L 244.276364 259.718427 
L 252.392727 293.722036 
L 260.509091 299.298861 
L 268.625455 301.009106 
L 276.741818 249.291158 
L 284.858182 296.771451 
L 292.974545 249.098025 
L 301.090909 107.612495 
L 309.207273 67.729662 
L 317.323636 243.394894 
L 325.44 111.449085 
L 333.556364 254.52374 
L 341.672727 216.817299 
L 349.789091 284.972423 
L 357.905455 237.119673 
L 366.021818 209.252771 
L 374.138182 284.285875 
L 382.254545 236.875386 
L 390.370909 210.349695 
" style="fill:none;stroke:#add8e6;stroke-linecap:square;stroke-opacity:0.3;stroke-width:1.5;"/>
   </g>
   <g id="line2d_17">
    <path clip-path="url(#p70c078f89a)" d="M 73.832727 267.6672 
L 81.949091 145.544839 
L 90.065455 100.668011 
L 98.181818 79.960264 
L 106.298182 69.396265 
L 114.414545 63.410387 
L 122.530909 253.303511 
L 130.647273 103.175169 
L 138.763636 70.825584 
L 146.88 64.411089 
L 154.996364 232.850603 
L 163.112727 101.082511 
L 171.229091 235.54969 
L 179.345455 110.383305 
L 187.461818 228.532795 
L 195.578182 115.298593 
L 203.694545 86.486489 
L 211.810909 208.768344 
L 219.927273 113.647907 
L 228.043636 90.376169 
L 236.16 126.55263 
L 244.276364 224.417005 
L 252.392727 252.240991 
L 260.509091 187.387777 
L 268.625455 246.203329 
L 276.741818 187.507738 
L 284.858182 248.378084 
L 292.974545 190.396832 
L 301.090909 250.963034 
L 309.207273 193.300657 
L 317.323636 174.555822 
L 325.44 249.287926 
L 333.556364 193.741403 
L 341.672727 176.679432 
L 349.789091 112.611528 
L 357.905455 99.446542 
L 366.021818 226.635737 
L 374.138182 184.625214 
L 382.254545 172.758291 
L 390.370909 169.520867 
" style="fill:none;stroke:#add8e6;stroke-linecap:square;stroke-opacity:0.3;stroke-width:1.5;"/>
   </g>
   <g id="line2d_18">
    <path clip-path="url(#p70c078f89a)" d="M 73.832727 267.6672 
L 81.949091 305.130668 
L 90.065455 210.149803 
L 98.181818 160.416608 
L 106.298182 128.323881 
L 114.414545 106.964008 
L 122.530909 92.935144 
L 130.647273 275.443908 
L 138.763636 145.981261 
L 146.88 274.06437 
L 154.996364 156.597899 
L 163.112727 268.056117 
L 171.229091 162.823518 
L 179.345455 129.442242 
L 187.461818 253.246719 
L 195.578182 275.036863 
L 203.694545 227.513811 
L 211.810909 213.402823 
L 219.927273 146.951135 
L 228.043636 254.198996 
L 236.16 219.510787 
L 244.276364 210.61179 
L 252.392727 208.364462 
L 260.509091 207.794979 
L 268.625455 207.63568 
L 276.741818 207.575376 
L 284.858182 207.540368 
L 292.974545 207.513524 
L 301.090909 207.4907 
L 309.207273 207.470675 
L 317.323636 207.452909 
L 325.44 207.437052 
L 333.556364 207.422835 
L 341.672727 207.410036 
L 349.789091 207.398473 
L 357.905455 207.387989 
L 366.021818 207.378454 
L 374.138182 207.369756 
L 382.254545 207.3618 
L 390.370909 207.354502 
" style="fill:none;stroke:#add8e6;stroke-linecap:square;stroke-opacity:0.3;stroke-width:1.5;"/>
   </g>
   <g id="line2d_19">
    <path clip-path="url(#p70c078f89a)" d="M 73.832727 267.6672 
L 81.949091 145.544839 
L 90.065455 100.668011 
L 98.181818 278.646703 
L 106.298182 136.79891 
L 114.414545 96.006249 
L 122.530909 82.947011 
L 130.647273 251.316628 
L 138.763636 124.666953 
L 146.88 250.938422 
L 154.996364 134.414421 
L 163.112727 102.400684 
L 171.229091 93.269073 
L 179.345455 88.693324 
L 187.461818 85.268015 
L 195.578182 82.370253 
L 203.694545 79.845606 
L 211.810909 77.623818 
L 219.927273 75.656144 
L 228.043636 73.903994 
L 236.16 117.293415 
L 244.276364 239.606561 
L 252.392727 270.010456 
L 260.509091 279.109051 
L 268.625455 283.637099 
L 276.741818 135.893657 
L 284.858182 245.237455 
L 292.974545 195.04933 
L 301.090909 175.166586 
L 309.207273 167.403477 
L 317.323636 256.545743 
L 325.44 199.553631 
L 333.556364 178.506887 
L 341.672727 170.987988 
L 349.789091 168.370385 
L 357.905455 167.470812 
L 366.021818 167.156416 
L 374.138182 167.036903 
L 382.254545 166.98173 
L 390.370909 166.94835 
" style="fill:none;stroke:#add8e6;stroke-linecap:square;stroke-opacity:0.3;stroke-width:1.5;"/>
   </g>
   <g id="line2d_20">
    <path clip-path="url(#p70c078f89a)" d="M 73.832727 267.6672 
L 81.949091 145.544839 
L 90.065455 100.668011 
L 98.181818 79.960264 
L 106.298182 69.396265 
L 114.414545 63.410387 
L 122.530909 59.631694 
L 130.647273 249.767598 
L 138.763636 98.041297 
L 146.88 249.174425 
L 154.996364 108.814796 
L 163.112727 74.715383 
L 171.229091 224.425289 
L 179.345455 106.95695 
L 187.461818 78.9676 
L 195.578182 72.683495 
L 203.694545 70.159492 
L 211.810909 68.386822 
L 219.927273 66.885534 
L 228.043636 65.561291 
L 236.16 102.17166 
L 244.276364 243.772781 
L 252.392727 105.019932 
L 260.509091 233.801604 
L 268.625455 271.06839 
L 276.741818 281.695063 
L 284.858182 286.447674 
L 292.974545 289.593136 
L 301.090909 223.16039 
L 309.207273 280.39645 
L 317.323636 220.893547 
L 325.44 281.157413 
L 333.556364 223.652654 
L 341.672727 282.658651 
L 349.789091 226.580875 
L 357.905455 284.033645 
L 366.021818 229.252805 
L 374.138182 285.238726 
L 382.254545 231.67067 
L 390.370909 286.299312 
" style="fill:none;stroke:#add8e6;stroke-linecap:square;stroke-opacity:0.3;stroke-width:1.5;"/>
   </g>
   <g id="line2d_21">
    <path clip-path="url(#p70c078f89a)" d="M 73.832727 267.6672 
L 81.949091 305.130668 
L 90.065455 210.149803 
L 98.181818 160.416608 
L 106.298182 295.160513 
L 114.414545 185.607399 
L 122.530909 146.702693 
L 130.647273 128.625273 
L 138.763636 116.509643 
L 146.88 107.285189 
L 154.996364 99.978255 
L 163.112727 94.076876 
L 171.229091 89.239521 
L 179.345455 85.221458 
L 187.461818 81.843101 
L 195.578182 78.970816 
L 203.694545 76.503912 
L 211.810909 74.365572 
L 219.927273 72.496476 
L 228.043636 70.850269 
L 236.16 118.332253 
L 244.276364 269.556693 
L 252.392727 291.443453 
L 260.509091 295.737525 
L 268.625455 141.503887 
L 276.741818 89.427543 
L 284.858182 254.486983 
L 292.974545 286.801097 
L 301.090909 146.760511 
L 309.207273 262.640502 
L 317.323636 207.745003 
L 325.44 276.386447 
L 333.556364 216.151396 
L 341.672727 278.852245 
L 349.789091 219.376621 
L 357.905455 194.869376 
L 366.021818 116.933365 
L 374.138182 253.379103 
L 382.254545 207.495565 
L 390.370909 190.144115 
" style="fill:none;stroke:#add8e6;stroke-linecap:square;stroke-opacity:0.3;stroke-width:1.5;"/>
   </g>
   <g id="line2d_22">
    <path clip-path="url(#p70c078f89a)" d="M 73.832727 267.6672 
L 81.949091 305.130668 
L 90.065455 210.149803 
L 98.181818 160.416608 
L 106.298182 128.323881 
L 114.414545 287.718934 
L 122.530909 169.507507 
L 130.647273 129.823215 
L 138.763636 114.456559 
L 146.88 105.13974 
L 154.996364 98.153467 
L 163.112727 92.558578 
L 171.229091 87.965448 
L 179.345455 84.137565 
L 187.461818 261.662079 
L 195.578182 288.742154 
L 203.694545 150.182625 
L 211.810909 104.793009 
L 219.927273 92.844846 
L 228.043636 88.532995 
L 236.16 140.326294 
L 244.276364 96.836731 
L 252.392727 255.481257 
L 260.509091 282.827428 
L 268.625455 288.520449 
L 276.741818 291.118957 
L 284.858182 225.774115 
L 292.974545 284.959264 
L 301.090909 225.845901 
L 309.207273 124.371794 
L 317.323636 263.091742 
L 325.44 216.32852 
L 333.556364 198.980605 
L 341.672727 192.621123 
L 349.789091 276.869449 
L 357.905455 221.989672 
L 366.021818 202.616827 
L 374.138182 195.970626 
L 382.254545 193.739778 
L 390.370909 192.998725 
" style="fill:none;stroke:#add8e6;stroke-linecap:square;stroke-opacity:0.3;stroke-width:1.5;"/>
   </g>
   <g id="line2d_23">
    <path clip-path="url(#p70c078f89a)" d="M 73.832727 267.6672 
L 81.949091 145.544839 
L 90.065455 100.668011 
L 98.181818 79.960264 
L 106.298182 69.396265 
L 114.414545 258.701044 
L 122.530909 294.036714 
L 130.647273 138.69766 
L 138.763636 84.447772 
L 146.88 72.351917 
L 154.996364 67.793958 
L 163.112727 64.862196 
L 171.229091 62.594805 
L 179.345455 236.398725 
L 187.461818 104.061245 
L 195.578182 242.715167 
L 203.694545 114.95736 
L 211.810909 79.776368 
L 219.927273 72.010688 
L 228.043636 69.389422 
L 236.16 110.056126 
L 244.276364 77.06261 
L 252.392727 207.991282 
L 260.509091 104.738782 
L 268.625455 212.773024 
L 276.741818 169.153964 
L 284.858182 239.99172 
L 292.974545 182.429195 
L 301.090909 101.815975 
L 309.207273 210.183198 
L 317.323636 169.655139 
L 325.44 155.217661 
L 333.556364 150.192671 
L 341.672727 148.480964 
L 349.789091 147.899589 
L 357.905455 147.693328 
L 366.021818 147.609303 
L 374.138182 147.565307 
L 382.254545 147.535245 
L 390.370909 147.51092 
" style="fill:none;stroke:#add8e6;stroke-linecap:square;stroke-opacity:0.3;stroke-width:1.5;"/>
   </g>
   <g id="line2d_24">
    <path clip-path="url(#p70c078f89a)" d="M 73.832727 267.6672 
L 81.949091 305.130668 
L 90.065455 210.149803 
L 98.181818 160.416608 
L 106.298182 128.323881 
L 114.414545 287.718934 
L 122.530909 169.507507 
L 130.647273 129.823215 
L 138.763636 275.909194 
L 146.88 169.011573 
L 154.996364 273.924802 
L 163.112727 176.623737 
L 171.229091 147.765449 
L 179.345455 138.031682 
L 187.461818 132.655442 
L 195.578182 128.459593 
L 203.694545 124.782531 
L 211.810909 257.216289 
L 219.927273 160.956282 
L 228.043636 137.754045 
L 236.16 181.139422 
L 244.276364 263.102508 
L 252.392727 274.326963 
L 260.509091 217.206203 
L 268.625455 270.861354 
L 276.741818 218.651732 
L 284.858182 206.986312 
L 292.974545 204.394414 
L 301.090909 270.662598 
L 309.207273 219.560778 
L 317.323636 209.080393 
L 325.44 206.939752 
L 333.556364 206.502958 
L 341.672727 206.406715 
L 349.789091 206.377535 
L 357.905455 206.362009 
L 366.021818 206.349912 
L 374.138182 206.339255 
L 382.254545 206.329586 
L 390.370909 206.320744 
" style="fill:none;stroke:#add8e6;stroke-linecap:square;stroke-opacity:0.3;stroke-width:1.5;"/>
   </g>
   <g id="line2d_25">
    <path clip-path="url(#p70c078f89a)" d="M 73.832727 267.6672 
L 81.949091 145.544839 
L 90.065455 100.668011 
L 98.181818 79.960264 
L 106.298182 69.396265 
L 114.414545 63.410387 
L 122.530909 59.631694 
L 130.647273 249.767598 
L 138.763636 98.041297 
L 146.88 66.987689 
L 154.996364 61.415129 
L 163.112727 59.260054 
L 171.229091 57.75142 
L 179.345455 56.519517 
L 187.461818 55.478634 
L 195.578182 54.585984 
L 203.694545 53.811968 
L 211.810909 53.134465 
L 219.927273 232.902668 
L 228.043636 86.722823 
L 236.16 98.212412 
L 244.276364 240.498524 
L 252.392727 96.632313 
L 260.509091 227.262773 
L 268.625455 273.65496 
L 276.741818 120.506023 
L 284.858182 74.064078 
L 292.974545 203.425703 
L 301.090909 258.578253 
L 309.207273 275.731795 
L 317.323636 205.250246 
L 325.44 264.867074 
L 333.556364 201.975289 
L 341.672727 265.601121 
L 349.789091 204.360636 
L 357.905455 267.603399 
L 366.021818 207.253518 
L 374.138182 269.545147 
L 382.254545 210.000386 
L 390.370909 180.9245 
" style="fill:none;stroke:#add8e6;stroke-linecap:square;stroke-opacity:0.3;stroke-width:1.5;"/>
   </g>
   <g id="line2d_26">
    <path clip-path="url(#p70c078f89a)" d="M 73.832727 267.6672 
L 81.949091 145.544839 
L 90.065455 100.668011 
L 98.181818 278.646703 
L 106.298182 136.79891 
L 114.414545 96.006249 
L 122.530909 82.947011 
L 130.647273 75.912361 
L 138.763636 71.084459 
L 146.88 67.485058 
L 154.996364 64.692387 
L 163.112727 240.986988 
L 171.229091 285.788796 
L 179.345455 130.780054 
L 187.461818 81.181564 
L 195.578182 232.785577 
L 203.694545 276.638295 
L 211.810909 138.030439 
L 219.927273 245.356732 
L 228.043636 274.484251 
L 236.16 218.726298 
L 244.276364 270.941905 
L 252.392727 219.338785 
L 260.509091 272.55264 
L 268.625455 222.102994 
L 276.741818 200.213989 
L 284.858182 270.018727 
L 292.974545 221.574848 
L 301.090909 201.927321 
L 309.207273 271.611622 
L 317.323636 222.952614 
L 325.44 204.266408 
L 333.556364 273.138634 
L 341.672727 224.330014 
L 349.789091 206.463457 
L 357.905455 200.276596 
L 366.021818 273.496604 
L 374.138182 224.540832 
L 382.254545 207.8631 
L 390.370909 202.47754 
" style="fill:none;stroke:#add8e6;stroke-linecap:square;stroke-opacity:0.3;stroke-width:1.5;"/>
   </g>
   <g id="line2d_27">
    <path clip-path="url(#p70c078f89a)" d="M 73.832727 267.6672 
L 81.949091 305.130668 
L 90.065455 210.149803 
L 98.181818 160.416608 
L 106.298182 295.160513 
L 114.414545 302.044302 
L 122.530909 195.886466 
L 130.647273 294.402506 
L 138.763636 266.847374 
L 146.88 176.023419 
L 154.996364 289.671182 
L 163.112727 262.700196 
L 171.229091 256.721135 
L 179.345455 255.35781 
L 187.461818 255.014278 
L 195.578182 254.896246 
L 203.694545 254.832603 
L 211.810909 254.78667 
L 219.927273 254.749773 
L 228.043636 254.719088 
L 236.16 254.693173 
L 244.276364 254.671065 
L 252.392727 254.652044 
L 260.509091 254.635558 
L 268.625455 254.621173 
L 276.741818 254.608545 
L 284.858182 254.597398 
L 292.974545 254.587508 
L 301.090909 254.578693 
L 309.207273 254.570802 
L 317.323636 254.563709 
L 325.44 254.557311 
L 333.556364 254.551518 
L 341.672727 254.546258 
L 349.789091 254.541466 
L 357.905455 254.537088 
L 366.021818 254.533079 
L 374.138182 254.529397 
L 382.254545 254.526007 
L 390.370909 254.522881 
" style="fill:none;stroke:#add8e6;stroke-linecap:square;stroke-opacity:0.3;stroke-width:1.5;"/>
   </g>
   <g id="line2d_28">
    <path clip-path="url(#p70c078f89a)" d="M 73.832727 267.6672 
L 81.949091 145.544839 
L 90.065455 293.656405 
L 98.181818 302.357527 
L 106.298182 176.017853 
L 114.414545 121.242273 
L 122.530909 98.587016 
L 130.647273 85.996572 
L 138.763636 77.886607 
L 146.88 257.422148 
L 154.996364 128.40965 
L 163.112727 89.964924 
L 171.229091 246.37407 
L 179.345455 131.082632 
L 187.461818 249.481458 
L 195.578182 140.663672 
L 203.694545 244.486011 
L 211.810909 208.050429 
L 219.927273 195.067081 
L 228.043636 125.210754 
L 236.16 165.738401 
L 244.276364 252.283305 
L 252.392727 207.66022 
L 260.509091 193.925262 
L 268.625455 189.785171 
L 276.741818 188.559838 
L 284.858182 188.18915 
L 292.974545 188.062031 
L 301.090909 188.004123 
L 309.207273 187.967241 
L 317.323636 187.938248 
L 325.44 187.913421 
L 333.556364 187.891522 
L 341.672727 187.871984 
L 349.789091 187.854447 
L 357.905455 187.838639 
L 366.021818 187.824336 
L 374.138182 187.81135 
L 382.254545 187.799524 
L 390.370909 187.788722 
" style="fill:none;stroke:#add8e6;stroke-linecap:square;stroke-opacity:0.3;stroke-width:1.5;"/>
   </g>
   <g id="line2d_29">
    <path clip-path="url(#p70c078f89a)" d="M 73.832727 267.6672 
L 81.949091 145.544839 
L 90.065455 100.668011 
L 98.181818 79.960264 
L 106.298182 69.396265 
L 114.414545 63.410387 
L 122.530909 59.631694 
L 130.647273 249.767598 
L 138.763636 98.041297 
L 146.88 66.987689 
L 154.996364 233.139989 
L 163.112727 100.611123 
L 171.229091 71.600488 
L 179.345455 65.877623 
L 187.461818 63.687649 
L 195.578182 62.153996 
L 203.694545 218.640083 
L 211.810909 95.741709 
L 219.927273 223.958513 
L 228.043636 103.795125 
L 236.16 120.052322 
L 244.276364 232.784852 
L 252.392727 266.364839 
L 260.509091 125.338229 
L 268.625455 85.415868 
L 276.741818 209.033387 
L 284.858182 251.666757 
L 292.974545 187.278163 
L 301.090909 161.505342 
L 309.207273 151.797736 
L 317.323636 148.271853 
L 325.44 147.016232 
L 333.556364 146.565236 
L 341.672727 146.391741 
L 349.789091 146.312719 
L 357.905455 146.266506 
L 366.021818 146.232766 
L 374.138182 146.204807 
L 382.254545 146.18032 
L 390.370909 146.158396 
" style="fill:none;stroke:#add8e6;stroke-linecap:square;stroke-opacity:0.3;stroke-width:1.5;"/>
   </g>
   <g id="line2d_30">
    <path clip-path="url(#p70c078f89a)" d="M 73.832727 267.6672 
L 81.949091 145.544839 
L 90.065455 100.668011 
L 98.181818 79.960264 
L 106.298182 69.396265 
L 114.414545 258.701044 
L 122.530909 110.390745 
L 130.647273 76.183064 
L 138.763636 68.511343 
L 146.88 65.000733 
L 154.996364 62.52807 
L 163.112727 60.574086 
L 171.229091 58.975817 
L 179.345455 57.643257 
L 187.461818 56.51562 
L 195.578182 55.549347 
L 203.694545 234.603616 
L 211.810909 90.311555 
L 219.927273 62.419489 
L 228.043636 222.504351 
L 236.16 165.610571 
L 244.276364 265.403096 
L 252.392727 287.551043 
L 260.509091 293.572118 
L 268.625455 296.4837 
L 276.741818 298.421444 
L 284.858182 299.847083 
L 292.974545 247.343935 
L 301.090909 294.686597 
L 309.207273 246.45269 
L 317.323636 295.202338 
L 325.44 249.052422 
L 333.556364 296.026481 
L 341.672727 251.574773 
L 349.789091 296.748424 
L 357.905455 253.802039 
L 366.021818 297.365407 
L 374.138182 255.772801 
L 382.254545 297.898252 
L 390.370909 257.531962 
" style="fill:none;stroke:#add8e6;stroke-linecap:square;stroke-opacity:0.3;stroke-width:1.5;"/>
   </g>
   <g id="line2d_31">
    <path clip-path="url(#p70c078f89a)" d="M 73.832727 267.6672 
L 81.949091 305.130668 
L 90.065455 210.149803 
L 98.181818 160.416608 
L 106.298182 128.323881 
L 114.414545 106.964008 
L 122.530909 92.935144 
L 130.647273 275.443908 
L 138.763636 145.981261 
L 146.88 274.06437 
L 154.996364 156.597899 
L 163.112727 118.634015 
L 171.229091 106.722235 
L 179.345455 100.86891 
L 187.461818 96.646725 
L 195.578182 93.124215 
L 203.694545 90.063528 
L 211.810909 87.368502 
L 219.927273 251.470675 
L 228.043636 132.979774 
L 236.16 156.019288 
L 244.276364 254.149292 
L 252.392727 273.11382 
L 260.509091 278.68206 
L 268.625455 213.855905 
L 276.741818 271.312857 
L 284.858182 213.663833 
L 292.974545 272.633752 
L 301.090909 216.390989 
L 309.207273 197.594812 
L 317.323636 271.352127 
L 325.44 217.119744 
L 333.556364 199.873418 
L 341.672727 272.823769 
L 349.789091 218.762664 
L 357.905455 202.259233 
L 366.021818 197.35986 
L 374.138182 195.934258 
L 382.254545 273.292713 
L 390.370909 218.797783 
" style="fill:none;stroke:#add8e6;stroke-linecap:square;stroke-opacity:0.3;stroke-width:1.5;"/>
   </g>
   <g id="line2d_32">
    <path clip-path="url(#p70c078f89a)" d="M 73.832727 267.6672 
L 81.949091 305.130668 
L 90.065455 210.149803 
L 98.181818 301.909115 
L 106.298182 204.241935 
L 114.414545 165.018607 
L 122.530909 292.376447 
L 130.647273 194.290425 
L 138.763636 161.868156 
L 146.88 147.632696 
L 154.996364 137.956611 
L 163.112727 130.1296 
L 171.229091 123.490734 
L 179.345455 117.773855 
L 187.461818 112.811728 
L 195.578182 108.477676 
L 203.694545 269.843458 
L 211.810909 154.589344 
L 219.927273 124.019836 
L 228.043636 115.584038 
L 236.16 168.505408 
L 244.276364 123.310839 
L 252.392727 263.284484 
L 260.509091 281.054602 
L 268.625455 285.040779 
L 276.741818 220.667563 
L 284.858182 280.235291 
L 292.974545 221.848092 
L 301.090909 141.424571 
L 309.207273 265.694683 
L 317.323636 217.580429 
L 325.44 204.845517 
L 333.556364 201.50251 
L 341.672727 200.635123 
L 349.789091 200.404824 
L 357.905455 200.334929 
L 366.021818 200.305286 
L 374.138182 200.286364 
L 382.254545 200.271002 
L 390.370909 200.257416 
" style="fill:none;stroke:#add8e6;stroke-linecap:square;stroke-opacity:0.3;stroke-width:1.5;"/>
   </g>
   <g id="line2d_33">
    <path clip-path="url(#p70c078f89a)" d="M 73.832727 267.6672 
L 81.949091 145.544839 
L 90.065455 100.668011 
L 98.181818 278.646703 
L 106.298182 136.79891 
L 114.414545 272.818955 
L 122.530909 146.998631 
L 130.647273 108.731044 
L 138.763636 253.121967 
L 146.88 280.164272 
L 154.996364 160.169038 
L 163.112727 121.130884 
L 171.229091 246.314913 
L 179.345455 152.235743 
L 187.461818 125.53346 
L 195.578182 238.565115 
L 203.694545 207.850035 
L 211.810909 199.600427 
L 219.927273 197.376584 
L 228.043636 196.766243 
L 236.16 196.57608 
L 244.276364 196.495003 
L 252.392727 196.4449 
L 260.509091 196.406339 
L 268.625455 196.374102 
L 276.741818 196.346384 
L 284.858182 196.322264 
L 292.974545 196.301117 
L 301.090909 196.282466 
L 309.207273 196.265928 
L 317.323636 196.251193 
L 325.44 196.238008 
L 333.556364 196.226159 
L 341.672727 196.215473 
L 349.789091 196.2058 
L 357.905455 196.197016 
L 366.021818 196.189014 
L 374.138182 196.181705 
L 382.254545 196.175009 
L 390.370909 196.16886 
" style="fill:none;stroke:#add8e6;stroke-linecap:square;stroke-opacity:0.3;stroke-width:1.5;"/>
   </g>
   <g id="line2d_34">
    <path clip-path="url(#p70c078f89a)" d="M 73.832727 267.6672 
L 81.949091 145.544839 
L 90.065455 100.668011 
L 98.181818 278.646703 
L 106.298182 136.79891 
L 114.414545 96.006249 
L 122.530909 82.947011 
L 130.647273 75.912361 
L 138.763636 71.084459 
L 146.88 67.485058 
L 154.996364 242.156237 
L 163.112727 107.672804 
L 171.229091 76.8543 
L 179.345455 70.368097 
L 187.461818 67.753478 
L 195.578182 65.90259 
L 203.694545 227.98904 
L 211.810909 102.634594 
L 219.927273 74.928285 
L 228.043636 69.418066 
L 236.16 107.151632 
L 244.276364 245.258672 
L 252.392727 279.451893 
L 260.509091 126.966851 
L 268.625455 244.19711 
L 276.741818 275.159134 
L 284.858182 283.692701 
L 292.974545 214.922547 
L 301.090909 274.403034 
L 309.207273 212.969052 
L 317.323636 275.38575 
L 325.44 215.797767 
L 333.556364 277.123236 
L 341.672727 218.793069 
L 349.789091 114.096786 
L 357.905455 85.800317 
L 366.021818 236.381907 
L 374.138182 197.367398 
L 382.254545 181.23454 
L 390.370909 174.622475 
" style="fill:none;stroke:#add8e6;stroke-linecap:square;stroke-opacity:0.3;stroke-width:1.5;"/>
   </g>
   <g id="line2d_35">
    <path clip-path="url(#p70c078f89a)" d="M 73.832727 267.6672 
L 81.949091 145.544839 
L 90.065455 293.656405 
L 98.181818 159.433415 
L 106.298182 113.646343 
L 114.414545 94.493054 
L 122.530909 83.466531 
L 130.647273 76.214582 
L 138.763636 71.101479 
L 146.88 67.319974 
L 154.996364 64.419187 
L 163.112727 62.128411 
L 171.229091 60.27617 
L 179.345455 58.749015 
L 187.461818 57.469111 
L 195.578182 245.635358 
L 203.694545 97.572016 
L 211.810909 65.770175 
L 219.927273 60.502436 
L 228.043636 59.005322 
L 236.16 93.204125 
L 244.276364 261.014438 
L 252.392727 294.276925 
L 260.509091 299.744075 
L 268.625455 301.630635 
L 276.741818 302.761951 
L 284.858182 303.562965 
L 292.974545 254.328568 
L 301.090909 102.685858 
L 309.207273 267.907912 
L 317.323636 299.206362 
L 325.44 252.448481 
L 333.556364 298.460011 
L 341.672727 254.170308 
L 349.789091 298.998682 
L 357.905455 256.457589 
L 366.021818 299.524427 
L 374.138182 258.512266 
L 382.254545 299.977693 
L 390.370909 260.332167 
" style="fill:none;stroke:#add8e6;stroke-linecap:square;stroke-opacity:0.3;stroke-width:1.5;"/>
   </g>
   <g id="line2d_36">
    <path clip-path="url(#p70c078f89a)" d="M 73.832727 94.6944 
L 81.949091 242.643114 
L 90.065455 284.845195 
L 98.181818 296.197905 
L 106.298182 300.324527 
L 114.414545 137.020817 
L 122.530909 81.085638 
L 130.647273 66.621786 
L 138.763636 236.527731 
L 146.88 286.871092 
L 154.996364 295.881112 
L 163.112727 298.405309 
L 171.229091 299.775401 
L 179.345455 300.765257 
L 187.461818 301.538665 
L 195.578182 302.161327 
L 203.694545 302.672412 
L 211.810909 158.010561 
L 219.927273 273.282487 
L 228.043636 296.777334 
L 236.16 270.307742 
L 244.276364 129.599683 
L 252.392727 80.346015 
L 260.509091 69.804931 
L 268.625455 65.763292 
L 276.741818 127.656549 
L 284.858182 71.897861 
L 292.974545 127.383444 
L 301.090909 267.410127 
L 309.207273 296.128191 
L 317.323636 142.429187 
L 325.44 263.468142 
L 333.556364 125.62428 
L 341.672727 160.235993 
L 349.789091 86.101532 
L 357.905455 139.564884 
L 366.021818 167.063959 
L 374.138182 86.731551 
L 382.254545 139.554904 
L 390.370909 165.743613 
" style="fill:none;stroke:#ff0000;stroke-linecap:square;stroke-opacity:0.1;stroke-width:1.5;"/>
   </g>
   <g id="line2d_37">
    <path clip-path="url(#p70c078f89a)" d="M 73.832727 94.6944 
L 81.949091 242.643114 
L 90.065455 284.845195 
L 98.181818 296.197905 
L 106.298182 300.324527 
L 114.414545 302.343253 
L 122.530909 143.94444 
L 130.647273 277.229473 
L 138.763636 297.690656 
L 146.88 300.728956 
L 154.996364 162.978909 
L 163.112727 276.7733 
L 171.229091 155.466605 
L 179.345455 268.833451 
L 187.461818 160.579145 
L 195.578182 264.245711 
L 203.694545 285.4517 
L 211.810909 180.349963 
L 219.927273 264.72983 
L 228.043636 282.175747 
L 236.16 252.963921 
L 244.276364 164.685929 
L 252.392727 132.25203 
L 260.509091 196.812494 
L 268.625455 138.636393 
L 276.741818 196.601114 
L 284.858182 135.961006 
L 292.974545 193.716428 
L 301.090909 132.808067 
L 309.207273 190.795486 
L 317.323636 208.387803 
L 325.44 134.511185 
L 333.556364 190.250997 
L 341.672727 206.265888 
L 349.789091 264.796485 
L 357.905455 274.66619 
L 366.021818 158.278579 
L 374.138182 198.714385 
L 382.254545 209.759054 
L 390.370909 212.755224 
" style="fill:none;stroke:#ff0000;stroke-linecap:square;stroke-opacity:0.1;stroke-width:1.5;"/>
   </g>
   <g id="line2d_38">
    <path clip-path="url(#p70c078f89a)" d="M 73.832727 94.6944 
L 81.949091 54.693224 
L 90.065455 172.909137 
L 98.181818 228.112325 
L 106.298182 254.928961 
L 114.414545 269.937156 
L 122.530909 279.06775 
L 130.647273 112.868443 
L 138.763636 232.621953 
L 146.88 109.974372 
L 154.996364 221.964412 
L 163.112727 115.417582 
L 171.229091 215.796167 
L 179.345455 245.059342 
L 187.461818 132.222531 
L 195.578182 104.464614 
L 203.694545 153.012789 
L 211.810909 167.535122 
L 219.927273 230.831353 
L 228.043636 127.599053 
L 236.16 161.353535 
L 244.276364 170.324671 
L 252.392727 172.615014 
L 260.509091 173.198461 
L 268.625455 173.362948 
L 276.741818 173.426076 
L 284.858182 173.463179 
L 292.974545 173.49179 
L 301.090909 173.516167 
L 309.207273 173.537574 
L 317.323636 173.556577 
L 325.44 173.573548 
L 333.556364 173.58877 
L 341.672727 173.60248 
L 349.789091 173.614873 
L 357.905455 173.626112 
L 366.021818 173.636338 
L 374.138182 173.64567 
L 382.254545 173.654209 
L 390.370909 173.662043 
" style="fill:none;stroke:#ff0000;stroke-linecap:square;stroke-opacity:0.1;stroke-width:1.5;"/>
   </g>
   <g id="line2d_39">
    <path clip-path="url(#p70c078f89a)" d="M 73.832727 94.6944 
L 81.949091 242.643114 
L 90.065455 284.845195 
L 98.181818 111.284751 
L 106.298182 254.305967 
L 114.414545 284.468128 
L 122.530909 291.777831 
L 130.647273 143.005828 
L 138.763636 260.021245 
L 146.88 139.691313 
L 154.996364 250.800086 
L 163.112727 275.817701 
L 171.229091 282.015266 
L 179.345455 284.777014 
L 187.461818 286.734654 
L 195.578182 288.351968 
L 203.694545 289.73954 
L 211.810909 290.945165 
L 219.927273 292.000777 
L 228.043636 292.931034 
L 236.16 261.286174 
L 244.276364 154.277352 
L 252.392727 115.146526 
L 260.509091 101.653465 
L 268.625455 94.336344 
L 276.741818 244.80852 
L 284.858182 142.209506 
L 292.974545 188.178592 
L 301.090909 206.963135 
L 309.207273 214.328956 
L 317.323636 128.233758 
L 325.44 183.703342 
L 333.556364 203.751436 
L 341.672727 210.886979 
L 349.789091 213.369696 
L 357.905455 214.223201 
L 366.021818 214.521894 
L 374.138182 214.635799 
L 382.254545 214.688669 
L 390.370909 214.720837 
" style="fill:none;stroke:#ff0000;stroke-linecap:square;stroke-opacity:0.1;stroke-width:1.5;"/>
   </g>
   <g id="line2d_40">
    <path clip-path="url(#p70c078f89a)" d="M 73.832727 94.6944 
L 81.949091 242.643114 
L 90.065455 284.845195 
L 98.181818 296.197905 
L 106.298182 300.324527 
L 114.414545 302.343253 
L 122.530909 303.519459 
L 130.647273 148.83875 
L 138.763636 280.31459 
L 146.88 143.48285 
L 154.996364 271.18462 
L 163.112727 294.2087 
L 171.229091 167.960902 
L 179.345455 271.32249 
L 187.461818 290.848963 
L 195.578182 294.656695 
L 203.694545 295.999595 
L 211.810909 296.881901 
L 219.927273 297.610154 
L 228.043636 298.242823 
L 236.16 272.181108 
L 244.276364 150.490918 
L 252.392727 269.718517 
L 260.509091 158.91428 
L 268.625455 113.371813 
L 276.741818 98.180198 
L 284.858182 90.471806 
L 292.974545 84.936651 
L 301.090909 159.199652 
L 309.207273 96.229596 
L 317.323636 160.946426 
L 325.44 94.811809 
L 333.556364 157.82624 
L 341.672727 92.503619 
L 349.789091 154.556488 
L 357.905455 90.384965 
L 366.021818 151.551691 
L 374.138182 88.508047 
L 382.254545 148.810629 
L 390.370909 86.838356 
" style="fill:none;stroke:#ff0000;stroke-linecap:square;stroke-opacity:0.1;stroke-width:1.5;"/>
   </g>
   <g id="line2d_41">
    <path clip-path="url(#p70c078f89a)" d="M 73.832727 94.6944 
L 81.949091 54.693224 
L 90.065455 172.909137 
L 98.181818 228.112325 
L 106.298182 83.99994 
L 114.414545 199.18097 
L 122.530909 234.88206 
L 130.647273 249.088415 
L 138.763636 257.878105 
L 146.88 264.378183 
L 154.996364 269.452314 
L 163.112727 273.507277 
L 171.229091 276.802067 
L 179.345455 279.51822 
L 187.461818 281.786957 
L 195.578182 283.704728 
L 203.694545 285.343443 
L 211.810909 286.757458 
L 219.927273 287.988412 
L 228.043636 289.068605 
L 236.16 252.094111 
L 244.276364 119.463252 
L 252.392727 87.767354 
L 260.509091 79.211637 
L 268.625455 229.426462 
L 276.741818 273.784023 
L 284.858182 132.63384 
L 292.974545 91.591914 
L 301.090909 224.763641 
L 309.207273 119.962452 
L 317.323636 168.893028 
L 325.44 103.455052 
L 333.556364 160.747113 
L 341.672727 100.412195 
L 349.789091 157.650794 
L 357.905455 180.720131 
L 366.021818 250.853989 
L 374.138182 128.225931 
L 382.254545 169.080789 
L 390.370909 185.178786 
" style="fill:none;stroke:#ff0000;stroke-linecap:square;stroke-opacity:0.1;stroke-width:1.5;"/>
   </g>
   <g id="line2d_42">
    <path clip-path="url(#p70c078f89a)" d="M 73.832727 94.6944 
L 81.949091 54.693224 
L 90.065455 172.909137 
L 98.181818 228.112325 
L 106.298182 254.928961 
L 114.414545 96.096419 
L 122.530909 213.280124 
L 130.647273 248.274227 
L 138.763636 260.1754 
L 146.88 266.795762 
L 154.996364 271.593269 
L 163.112727 275.375184 
L 171.229091 278.447347 
L 179.345455 280.985869 
L 187.461818 129.416922 
L 195.578182 90.878309 
L 203.694545 224.011881 
L 211.810909 263.155937 
L 219.927273 272.904742 
L 228.043636 276.149791 
L 236.16 234.316518 
L 244.276364 268.802251 
L 252.392727 134.532321 
L 260.509091 99.217732 
L 268.625455 89.858173 
L 276.741818 85.103916 
L 284.858182 152.454465 
L 292.974545 93.285406 
L 301.090909 152.484629 
L 309.207273 247.127117 
L 317.323636 118.763764 
L 325.44 161.95447 
L 333.556364 178.429326 
L 341.672727 184.496478 
L 349.789091 101.714878 
L 357.905455 156.252745 
L 366.021818 174.879323 
L 374.138182 181.232297 
L 382.254545 183.362778 
L 390.370909 184.07072 
" style="fill:none;stroke:#ff0000;stroke-linecap:square;stroke-opacity:0.1;stroke-width:1.5;"/>
   </g>
   <g id="line2d_43">
    <path clip-path="url(#p70c078f89a)" d="M 73.832727 94.6944 
L 81.949091 242.643114 
L 90.065455 284.845195 
L 98.181818 296.197905 
L 106.298182 300.324527 
L 114.414545 137.020817 
L 122.530909 81.085638 
L 130.647273 247.868388 
L 138.763636 288.964422 
L 146.88 296.13873 
L 154.996364 298.360225 
L 163.112727 299.66278 
L 171.229091 300.627972 
L 179.345455 159.741683 
L 187.461818 272.133978 
L 195.578182 147.17385 
L 203.694545 262.638049 
L 211.810909 288.655784 
L 219.927273 293.846959 
L 228.043636 295.3856 
L 236.16 265.167966 
L 244.276364 290.127768 
L 252.392727 181.243562 
L 260.509091 269.211617 
L 268.625455 173.850657 
L 276.741818 211.465063 
L 284.858182 143.364934 
L 292.974545 198.752781 
L 301.090909 271.571679 
L 309.207273 174.140415 
L 317.323636 210.779603 
L 325.44 224.022356 
L 333.556364 228.642059 
L 341.672727 230.216708 
L 349.789091 230.75214 
L 357.905455 230.94266 
L 366.021818 231.020742 
L 374.138182 231.061962 
L 382.254545 231.090313 
L 390.370909 231.113334 
" style="fill:none;stroke:#ff0000;stroke-linecap:square;stroke-opacity:0.1;stroke-width:1.5;"/>
   </g>
   <g id="line2d_44">
    <path clip-path="url(#p70c078f89a)" d="M 73.832727 94.6944 
L 81.949091 54.693224 
L 90.065455 172.909137 
L 98.181818 228.112325 
L 106.298182 254.928961 
L 114.414545 96.096419 
L 122.530909 213.280124 
L 130.647273 248.274227 
L 138.763636 109.047514 
L 146.88 211.32514 
L 154.996364 109.045503 
L 163.112727 203.439318 
L 171.229091 229.367632 
L 179.345455 237.298747 
L 187.461818 241.261543 
L 195.578182 244.222123 
L 203.694545 246.787308 
L 211.810909 130.914354 
L 219.927273 214.312049 
L 228.043636 234.595098 
L 236.16 198.378947 
L 244.276364 125.311674 
L 252.392727 110.645275 
L 260.509091 163.635618 
L 268.625455 114.816553 
L 276.741818 162.511512 
L 284.858182 173.821421 
L 292.974545 176.378281 
L 301.090909 115.322185 
L 309.207273 161.821936 
L 317.323636 171.932299 
L 325.44 174.031118 
L 333.556364 174.461881 
L 341.672727 174.557481 
L 349.789091 174.586939 
L 357.905455 174.602879 
L 366.021818 174.615386 
L 374.138182 174.626426 
L 382.254545 174.636451 
L 390.370909 174.645622 
" style="fill:none;stroke:#ff0000;stroke-linecap:square;stroke-opacity:0.1;stroke-width:1.5;"/>
   </g>
   <g id="line2d_45">
    <path clip-path="url(#p70c078f89a)" d="M 73.832727 94.6944 
L 81.949091 242.643114 
L 90.065455 284.845195 
L 98.181818 296.197905 
L 106.298182 300.324527 
L 114.414545 302.343253 
L 122.530909 303.519459 
L 130.647273 148.83875 
L 138.763636 280.31459 
L 146.88 299.346075 
L 154.996364 301.908359 
L 163.112727 302.725323 
L 171.229091 303.261588 
L 179.345455 303.686141 
L 187.461818 304.036108 
L 195.578182 304.329717 
L 203.694545 304.579285 
L 211.810909 304.793792 
L 219.927273 170.054115 
L 228.043636 285.157964 
L 236.16 273.865988 
L 244.276364 150.604746 
L 252.392727 276.914393 
L 260.509091 163.275498 
L 268.625455 107.838173 
L 276.741818 257.853619 
L 284.858182 291.354049 
L 292.974545 185.437018 
L 301.090909 124.107402 
L 309.207273 102.755681 
L 317.323636 177.074975 
L 325.44 114.502118 
L 333.556364 179.639141 
L 341.672727 113.176607 
L 349.789091 176.999843 
L 357.905455 110.470799 
L 366.021818 173.903998 
L 374.138182 107.862311 
L 382.254545 170.955706 
L 390.370909 197.871575 
" style="fill:none;stroke:#ff0000;stroke-linecap:square;stroke-opacity:0.1;stroke-width:1.5;"/>
   </g>
   <g id="line2d_46">
    <path clip-path="url(#p70c078f89a)" d="M 73.832727 94.6944 
L 81.949091 242.643114 
L 90.065455 284.845195 
L 98.181818 111.284751 
L 106.298182 254.305967 
L 114.414545 284.468128 
L 122.530909 291.777831 
L 130.647273 295.194896 
L 138.763636 297.391463 
L 146.88 298.956126 
L 154.996364 300.125249 
L 163.112727 157.975152 
L 171.229091 95.162793 
L 179.345455 251.15864 
L 187.461818 288.464739 
L 195.578182 160.903264 
L 203.694545 105.072033 
L 211.810909 243.804187 
L 219.927273 142.323248 
L 228.043636 105.956263 
L 236.16 165.181158 
L 244.276364 109.658544 
L 252.392727 164.327953 
L 260.509091 107.372376 
L 268.625455 161.339781 
L 276.741818 182.640725 
L 284.858182 110.190096 
L 292.974545 161.670395 
L 301.090909 180.773774 
L 309.207273 108.017288 
L 317.323636 160.108107 
L 325.44 178.311025 
L 333.556364 105.938665 
L 341.672727 158.55089 
L 349.789091 175.990694 
L 357.905455 181.939456 
L 366.021818 105.30541 
L 374.138182 158.16013 
L 382.254545 174.459533 
L 390.370909 179.646714 
" style="fill:none;stroke:#ff0000;stroke-linecap:square;stroke-opacity:0.1;stroke-width:1.5;"/>
   </g>
   <g id="line2d_47">
    <path clip-path="url(#p70c078f89a)" d="M 73.832727 94.6944 
L 81.949091 54.693224 
L 90.065455 172.909137 
L 98.181818 228.112325 
L 106.298182 83.99994 
L 114.414545 65.731368 
L 122.530909 187.536326 
L 130.647273 80.773581 
L 138.763636 110.605553 
L 146.88 209.651795 
L 154.996364 86.298448 
L 163.112727 115.397933 
L 171.229091 122.534266 
L 179.345455 124.246903 
L 187.461818 124.689116 
L 195.578182 124.842267 
L 203.694545 124.924786 
L 211.810909 124.984224 
L 219.927273 125.031901 
L 228.043636 125.071513 
L 236.16 125.104936 
L 244.276364 125.133429 
L 252.392727 125.157926 
L 260.509091 125.179145 
L 268.625455 125.19765 
L 276.741818 125.213885 
L 284.858182 125.228211 
L 292.974545 125.240915 
L 301.090909 125.252234 
L 309.207273 125.262363 
L 317.323636 125.271464 
L 325.44 125.279672 
L 333.556364 125.2871 
L 341.672727 125.293844 
L 349.789091 125.299986 
L 357.905455 125.305595 
L 366.021818 125.310732 
L 374.138182 125.315448 
L 382.254545 125.319788 
L 390.370909 125.323791 
" style="fill:none;stroke:#ff0000;stroke-linecap:square;stroke-opacity:0.1;stroke-width:1.5;"/>
   </g>
   <g id="line2d_48">
    <path clip-path="url(#p70c078f89a)" d="M 73.832727 94.6944 
L 81.949091 242.643114 
L 90.065455 84.967603 
L 98.181818 63.723977 
L 106.298182 216.837233 
L 114.414545 266.44286 
L 122.530909 281.714093 
L 130.647273 288.87719 
L 138.763636 293.112203 
L 146.88 134.444561 
L 154.996364 253.326845 
L 163.112727 283.106325 
L 171.229091 143.645228 
L 179.345455 249.326968 
L 187.461818 136.562852 
L 195.578182 240.154099 
L 203.694545 140.704993 
L 211.810909 174.860536 
L 219.927273 187.824659 
L 228.043636 254.051645 
L 236.16 217.006615 
L 244.276364 131.128275 
L 252.392727 175.041604 
L 260.509091 188.856958 
L 268.625455 193.040144 
L 276.741818 194.280121 
L 284.858182 194.656138 
L 292.974545 194.785808 
L 301.090909 194.845397 
L 309.207273 194.883623 
L 317.323636 194.913781 
L 325.44 194.939645 
L 333.556364 194.962477 
L 341.672727 194.982859 
L 349.789091 195.001161 
L 357.905455 195.017667 
L 366.021818 195.032608 
L 374.138182 195.046178 
L 382.254545 195.058541 
L 390.370909 195.069837 
" style="fill:none;stroke:#ff0000;stroke-linecap:square;stroke-opacity:0.1;stroke-width:1.5;"/>
   </g>
   <g id="line2d_49">
    <path clip-path="url(#p70c078f89a)" d="M 73.832727 94.6944 
L 81.949091 242.643114 
L 90.065455 284.845195 
L 98.181818 296.197905 
L 106.298182 300.324527 
L 114.414545 302.343253 
L 122.530909 303.519459 
L 130.647273 148.83875 
L 138.763636 280.31459 
L 146.88 299.346075 
L 154.996364 162.116653 
L 163.112727 277.131521 
L 171.229091 296.063578 
L 179.345455 299.139832 
L 187.461818 300.143636 
L 195.578182 300.799304 
L 203.694545 176.67336 
L 211.810909 278.73098 
L 219.927273 166.887869 
L 228.043636 272.112467 
L 236.16 257.370146 
L 244.276364 156.743525 
L 252.392727 116.566527 
L 260.509091 254.061347 
L 268.625455 284.271387 
L 276.741818 179.943514 
L 284.858182 132.232434 
L 292.974545 195.934846 
L 301.090909 219.535581 
L 309.207273 228.294754 
L 317.323636 231.467324 
L 325.44 232.597145 
L 333.556364 233.003627 
L 341.672727 233.160645 
L 349.789091 233.232682 
L 357.905455 233.275153 
L 366.021818 233.306336 
L 374.138182 233.332255 
L 382.254545 233.35499 
L 390.370909 233.375365 
" style="fill:none;stroke:#ff0000;stroke-linecap:square;stroke-opacity:0.1;stroke-width:1.5;"/>
   </g>
   <g id="line2d_50">
    <path clip-path="url(#p70c078f89a)" d="M 73.832727 94.6944 
L 81.949091 242.643114 
L 90.065455 284.845195 
L 98.181818 296.197905 
L 106.298182 300.324527 
L 114.414545 137.020817 
L 122.530909 272.724219 
L 130.647273 295.218748 
L 138.763636 298.999258 
L 146.88 300.460755 
L 154.996364 301.428248 
L 163.112727 302.165069 
L 171.229091 302.749708 
L 179.345455 303.224314 
L 187.461818 303.61648 
L 195.578182 303.945388 
L 203.694545 167.782669 
L 211.810909 282.773933 
L 219.927273 300.078427 
L 228.043636 175.060245 
L 236.16 216.945135 
L 244.276364 121.241333 
L 252.392727 91.228821 
L 260.509091 80.798311 
L 268.625455 74.850111 
L 276.741818 70.517924 
L 284.858182 67.130556 
L 292.974545 131.529078 
L 301.090909 74.012537 
L 309.207273 131.727412 
L 317.323636 72.762288 
L 325.44 128.473541 
L 333.556364 71.160272 
L 341.672727 125.353695 
L 349.789091 69.753978 
L 357.905455 122.578806 
L 366.021818 68.537123 
L 374.138182 120.104063 
L 382.254545 67.473432 
L 390.370909 117.879139 
" style="fill:none;stroke:#ff0000;stroke-linecap:square;stroke-opacity:0.1;stroke-width:1.5;"/>
   </g>
   <g id="line2d_51">
    <path clip-path="url(#p70c078f89a)" d="M 73.832727 94.6944 
L 81.949091 54.693224 
L 90.065455 172.909137 
L 98.181818 228.112325 
L 106.298182 254.928961 
L 114.414545 269.937156 
L 122.530909 279.06775 
L 130.647273 112.868443 
L 138.763636 232.621953 
L 146.88 109.974372 
L 154.996364 221.964412 
L 163.112727 254.853291 
L 171.229091 264.32875 
L 179.345455 268.576183 
L 187.461818 271.495885 
L 195.578182 273.890505 
L 203.694545 275.95593 
L 211.810909 277.765995 
L 219.927273 139.444985 
L 228.043636 239.141797 
L 236.16 220.532631 
L 244.276364 131.779357 
L 252.392727 108.082802 
L 260.509091 99.838449 
L 268.625455 165.000511 
L 276.741818 108.775481 
L 284.858182 165.340901 
L 292.974545 107.134438 
L 301.090909 162.668854 
L 309.207273 180.835321 
L 317.323636 108.656793 
L 325.44 161.979815 
L 333.556364 178.615533 
L 341.672727 106.811721 
L 349.789091 160.345332 
L 357.905455 176.276349 
L 366.021818 180.982069 
L 374.138182 182.350319 
L 382.254545 106.183115 
L 390.370909 160.272917 
" style="fill:none;stroke:#ff0000;stroke-linecap:square;stroke-opacity:0.1;stroke-width:1.5;"/>
   </g>
   <g id="line2d_52">
    <path clip-path="url(#p70c078f89a)" d="M 73.832727 94.6944 
L 81.949091 54.693224 
L 90.065455 172.909137 
L 98.181818 68.105397 
L 106.298182 181.257407 
L 114.414545 220.470641 
L 122.530909 86.08697 
L 130.647273 187.993579 
L 138.763636 218.207562 
L 146.88 229.790002 
L 154.996364 237.073301 
L 163.112727 242.82558 
L 171.229091 247.668827 
L 179.345455 251.825231 
L 187.461818 255.424668 
L 195.578182 258.562907 
L 203.694545 117.189924 
L 211.810909 217.477016 
L 219.927273 244.160566 
L 228.043636 251.233919 
L 236.16 207.060828 
L 244.276364 243.917442 
L 252.392727 124.484821 
L 260.509091 101.840093 
L 268.625455 95.25277 
L 276.741818 157.033218 
L 284.858182 101.381855 
L 292.974545 156.153975 
L 301.090909 229.424216 
L 309.207273 116.934509 
L 317.323636 160.424173 
L 325.44 172.505235 
L 333.556364 175.713884 
L 341.672727 176.549348 
L 349.789091 176.771939 
L 357.905455 176.840048 
L 366.021818 176.869337 
L 374.138182 176.888243 
L 382.254545 176.903667 
L 390.370909 176.917331 
" style="fill:none;stroke:#ff0000;stroke-linecap:square;stroke-opacity:0.1;stroke-width:1.5;"/>
   </g>
   <g id="line2d_53">
    <path clip-path="url(#p70c078f89a)" d="M 73.832727 94.6944 
L 81.949091 242.643114 
L 90.065455 284.845195 
L 98.181818 111.284751 
L 106.298182 254.305967 
L 114.414545 115.687 
L 122.530909 243.302424 
L 130.647273 273.509351 
L 138.763636 138.420105 
L 146.88 100.414261 
L 154.996364 228.532435 
L 163.112727 261.521715 
L 171.229091 143.562749 
L 179.345455 234.199351 
L 187.461818 256.517211 
L 195.578182 151.560764 
L 203.694545 179.848626 
L 211.810909 188.124133 
L 219.927273 190.408226 
L 228.043636 191.040524 
L 236.16 191.239187 
L 244.276364 191.324851 
L 252.392727 191.378251 
L 260.509091 191.41951 
L 268.625455 191.454056 
L 276.741818 191.483785 
L 284.858182 191.50967 
L 292.974545 191.532375 
L 301.090909 191.552411 
L 309.207273 191.570184 
L 317.323636 191.586024 
L 325.44 191.600206 
L 333.556364 191.612953 
L 341.672727 191.624454 
L 349.789091 191.634867 
L 357.905455 191.644327 
L 366.021818 191.652946 
L 374.138182 191.660821 
L 382.254545 191.668037 
L 390.370909 191.674665 
" style="fill:none;stroke:#ff0000;stroke-linecap:square;stroke-opacity:0.1;stroke-width:1.5;"/>
   </g>
   <g id="line2d_54">
    <path clip-path="url(#p70c078f89a)" d="M 73.832727 94.6944 
L 81.949091 242.643114 
L 90.065455 284.845195 
L 98.181818 111.284751 
L 106.298182 254.305967 
L 114.414545 284.468128 
L 122.530909 291.777831 
L 130.647273 295.194896 
L 138.763636 297.391463 
L 146.88 298.956126 
L 154.996364 155.765574 
L 163.112727 271.235034 
L 171.229091 292.565993 
L 179.345455 296.39713 
L 187.461818 297.713766 
L 195.578182 298.57833 
L 203.694545 169.827888 
L 211.810909 273.055694 
L 219.927273 292.454739 
L 228.043636 295.93714 
L 236.16 268.817165 
L 244.276364 149.95843 
L 252.392727 104.76904 
L 260.509091 251.975484 
L 268.625455 147.1453 
L 276.741818 108.437624 
L 284.858182 95.986722 
L 292.974545 169.237337 
L 301.090909 107.172744 
L 309.207273 170.842944 
L 317.323636 105.58989 
L 325.44 167.83377 
L 333.556364 103.08557 
L 341.672727 164.656722 
L 349.789091 262.654393 
L 357.905455 283.720765 
L 366.021818 150.177076 
L 374.138182 185.076573 
L 382.254545 199.992103 
L 390.370909 206.128358 
" style="fill:none;stroke:#ff0000;stroke-linecap:square;stroke-opacity:0.1;stroke-width:1.5;"/>
   </g>
   <g id="line2d_55">
    <path clip-path="url(#p70c078f89a)" d="M 73.832727 94.6944 
L 81.949091 242.643114 
L 90.065455 84.967603 
L 98.181818 234.631372 
L 106.298182 273.080215 
L 114.414545 285.003235 
L 122.530909 290.893717 
L 130.647273 294.48345 
L 138.763636 296.883144 
L 146.88 298.582649 
L 154.996364 299.839453 
L 163.112727 300.801209 
L 171.229091 301.557834 
L 179.345455 302.166793 
L 187.461818 302.666324 
L 195.578182 156.343691 
L 203.694545 276.014609 
L 211.810909 297.416146 
L 219.927273 300.574381 
L 228.043636 301.328175 
L 236.16 278.040556 
L 244.276364 135.77658 
L 252.392727 85.322763 
L 260.509091 73.447975 
L 268.625455 68.265212 
L 276.741818 64.743639 
L 284.858182 62.039426 
L 292.974545 122.673583 
L 301.090909 272.297423 
L 309.207273 114.935257 
L 317.323636 68.178701 
L 325.44 124.312748 
L 333.556364 68.500226 
L 341.672727 121.991525 
L 349.789091 67.286859 
L 357.905455 119.159435 
L 366.021818 66.140147 
L 374.138182 116.603232 
L 382.254545 65.13935 
L 390.370909 114.320663 
" style="fill:none;stroke:#ff0000;stroke-linecap:square;stroke-opacity:0.1;stroke-width:1.5;"/>
   </g>
   <g id="line2d_56">
    <path clip-path="url(#p70c078f89a)" d="M 73.832727 267.6672 
L 81.949091 201.399879 
L 90.065455 158.285478 
L 98.181818 170.025418 
L 106.298182 131.524609 
L 114.414545 162.417695 
L 122.530909 143.420344 
L 130.647273 173.483455 
L 138.763636 128.298135 
L 146.88 145.814441 
L 154.996364 142.325474 
L 163.112727 119.799008 
L 171.229091 137.962773 
L 179.345455 111.947372 
L 187.461818 125.417841 
L 195.578182 144.78039 
L 203.694545 158.222314 
L 211.810909 138.668263 
L 219.927273 141.240122 
L 228.043636 127.92397 
L 236.16 148.119497 
L 244.276364 224.074805 
L 252.392727 239.868605 
L 260.509091 232.902136 
L 268.625455 239.318736 
L 276.741818 218.395315 
L 284.858182 241.37372 
L 292.974545 227.627054 
L 301.090909 199.997272 
L 309.207273 213.081073 
L 317.323636 226.318503 
L 325.44 214.893994 
L 333.556364 218.150458 
L 341.672727 217.693404 
L 349.789091 208.760339 
L 357.905455 200.88732 
L 366.021818 210.48259 
L 374.138182 215.924854 
L 382.254545 211.29833 
L 390.370909 202.851497 
" style="fill:none;stroke:#1f77b4;stroke-linecap:square;stroke-width:1.5;"/>
   </g>
   <g id="line2d_57">
    <path clip-path="url(#p70c078f89a)" d="M 73.832727 94.6944 
L 81.949091 176.860652 
L 90.065455 225.679816 
L 98.181818 212.682952 
L 106.298182 248.919307 
L 114.414545 217.921153 
L 122.530909 233.692157 
L 130.647273 208.193059 
L 138.763636 248.375175 
L 146.88 229.96546 
L 154.996364 234.981971 
L 163.112727 254.117265 
L 171.229091 235.968034 
L 179.345455 260.612478 
L 187.461818 246.892707 
L 195.578182 229.688478 
L 203.694545 219.211541 
L 211.810909 236.349644 
L 219.927273 234.337494 
L 228.043636 244.450837 
L 236.16 229.460718 
L 244.276364 161.017501 
L 252.392727 142.377076 
L 260.509091 147.486269 
L 268.625455 140.353886 
L 276.741818 160.723025 
L 284.858182 137.666404 
L 292.974545 153.452253 
L 301.090909 179.284093 
L 309.207273 167.006553 
L 317.323636 153.997798 
L 325.44 165.293297 
L 333.556364 161.042077 
L 341.672727 162.266507 
L 349.789091 169.605778 
L 357.905455 177.560608 
L 366.021818 168.181984 
L 374.138182 163.489082 
L 382.254545 167.557303 
L 390.370909 176.360444 
" style="fill:none;stroke:#ff0000;stroke-linecap:square;stroke-width:1.5;"/>
   </g>
   <g id="patch_5">
    <path d="M 57.6 307.584 
L 57.6 41.472 
" style="fill:none;stroke:#000000;stroke-linecap:square;stroke-linejoin:miter;stroke-width:0.8;"/>
   </g>
   <g id="patch_6">
    <path d="M 414.72 307.584 
L 414.72 41.472 
" style="fill:none;stroke:#000000;stroke-linecap:square;stroke-linejoin:miter;stroke-width:0.8;"/>
   </g>
   <g id="patch_7">
    <path d="M 57.6 307.584 
L 414.72 307.584 
" style="fill:none;stroke:#000000;stroke-linecap:square;stroke-linejoin:miter;stroke-width:0.8;"/>
   </g>
   <g id="patch_8">
    <path d="M 57.6 41.472 
L 414.72 41.472 
" style="fill:none;stroke:#000000;stroke-linecap:square;stroke-linejoin:miter;stroke-width:0.8;"/>
   </g>
   <g id="text_18">
    <!-- Type1_depressed -->
    <g transform="translate(184.4775 35.472)scale(0.12 -0.12)">
     <defs>
      <path d="M -19 4666 
L 3928 4666 
L 3928 4134 
L 2272 4134 
L 2272 0 
L 1638 0 
L 1638 4134 
L -19 4134 
L -19 4666 
z
" id="DejaVuSans-54" transform="scale(0.015625)"/>
      <path d="M 2059 -325 
Q 1816 -950 1584 -1140 
Q 1353 -1331 966 -1331 
L 506 -1331 
L 506 -850 
L 844 -850 
Q 1081 -850 1212 -737 
Q 1344 -625 1503 -206 
L 1606 56 
L 191 3500 
L 800 3500 
L 1894 763 
L 2988 3500 
L 3597 3500 
L 2059 -325 
z
" id="DejaVuSans-79" transform="scale(0.015625)"/>
      <path d="M 3263 -1063 
L 3263 -1509 
L -63 -1509 
L -63 -1063 
L 3263 -1063 
z
" id="DejaVuSans-5f" transform="scale(0.015625)"/>
      <path d="M 2906 2969 
L 2906 4863 
L 3481 4863 
L 3481 0 
L 2906 0 
L 2906 525 
Q 2725 213 2448 61 
Q 2172 -91 1784 -91 
Q 1150 -91 751 415 
Q 353 922 353 1747 
Q 353 2572 751 3078 
Q 1150 3584 1784 3584 
Q 2172 3584 2448 3432 
Q 2725 3281 2906 2969 
z
M 947 1747 
Q 947 1113 1208 752 
Q 1469 391 1925 391 
Q 2381 391 2643 752 
Q 2906 1113 2906 1747 
Q 2906 2381 2643 2742 
Q 2381 3103 1925 3103 
Q 1469 3103 1208 2742 
Q 947 2381 947 1747 
z
" id="DejaVuSans-64" transform="scale(0.015625)"/>
      <path d="M 2631 2963 
Q 2534 3019 2420 3045 
Q 2306 3072 2169 3072 
Q 1681 3072 1420 2755 
Q 1159 2438 1159 1844 
L 1159 0 
L 581 0 
L 581 3500 
L 1159 3500 
L 1159 2956 
Q 1341 3275 1631 3429 
Q 1922 3584 2338 3584 
Q 2397 3584 2469 3576 
Q 2541 3569 2628 3553 
L 2631 2963 
z
" id="DejaVuSans-72" transform="scale(0.015625)"/>
      <path d="M 2834 3397 
L 2834 2853 
Q 2591 2978 2328 3040 
Q 2066 3103 1784 3103 
Q 1356 3103 1142 2972 
Q 928 2841 928 2578 
Q 928 2378 1081 2264 
Q 1234 2150 1697 2047 
L 1894 2003 
Q 2506 1872 2764 1633 
Q 3022 1394 3022 966 
Q 3022 478 2636 193 
Q 2250 -91 1575 -91 
Q 1294 -91 989 -36 
Q 684 19 347 128 
L 347 722 
Q 666 556 975 473 
Q 1284 391 1588 391 
Q 1994 391 2212 530 
Q 2431 669 2431 922 
Q 2431 1156 2273 1281 
Q 2116 1406 1581 1522 
L 1381 1569 
Q 847 1681 609 1914 
Q 372 2147 372 2553 
Q 372 3047 722 3315 
Q 1072 3584 1716 3584 
Q 2034 3584 2315 3537 
Q 2597 3491 2834 3397 
z
" id="DejaVuSans-73" transform="scale(0.015625)"/>
     </defs>
     <use xlink:href="#DejaVuSans-54"/>
     <use x="45.458984" xlink:href="#DejaVuSans-79"/>
     <use x="104.638672" xlink:href="#DejaVuSans-70"/>
     <use x="168.115234" xlink:href="#DejaVuSans-65"/>
     <use x="229.638672" xlink:href="#DejaVuSans-31"/>
     <use x="293.261719" xlink:href="#DejaVuSans-5f"/>
     <use x="343.261719" xlink:href="#DejaVuSans-64"/>
     <use x="406.738281" xlink:href="#DejaVuSans-65"/>
     <use x="468.261719" xlink:href="#DejaVuSans-70"/>
     <use x="531.738281" xlink:href="#DejaVuSans-72"/>
     <use x="570.601562" xlink:href="#DejaVuSans-65"/>
     <use x="632.125" xlink:href="#DejaVuSans-73"/>
     <use x="684.224609" xlink:href="#DejaVuSans-73"/>
     <use x="736.324219" xlink:href="#DejaVuSans-65"/>
     <use x="797.847656" xlink:href="#DejaVuSans-64"/>
    </g>
   </g>
   <g id="legend_1">
    <g id="patch_9">
     <path d="M 351.635625 78.82825 
L 407.72 78.82825 
Q 409.72 78.82825 409.72 76.82825 
L 409.72 48.472 
Q 409.72 46.472 407.72 46.472 
L 351.635625 46.472 
Q 349.635625 46.472 349.635625 48.472 
L 349.635625 76.82825 
Q 349.635625 78.82825 351.635625 78.82825 
z
" style="fill:#ffffff;opacity:0.8;stroke:#cccccc;stroke-linejoin:miter;"/>
    </g>
    <g id="line2d_58">
     <path d="M 353.635625 54.570437 
L 373.635625 54.570437 
" style="fill:none;stroke:#1f77b4;stroke-linecap:square;stroke-width:1.5;"/>
    </g>
    <g id="line2d_59"/>
    <g id="text_19">
     <!-- coop -->
     <g transform="translate(381.635625 58.070437)scale(0.1 -0.1)">
      <use xlink:href="#DejaVuSans-63"/>
      <use x="54.980469" xlink:href="#DejaVuSans-6f"/>
      <use x="116.162109" xlink:href="#DejaVuSans-6f"/>
      <use x="177.34375" xlink:href="#DejaVuSans-70"/>
     </g>
    </g>
    <g id="line2d_60">
     <path d="M 353.635625 69.248562 
L 373.635625 69.248562 
" style="fill:none;stroke:#ff0000;stroke-linecap:square;stroke-width:1.5;"/>
    </g>
    <g id="line2d_61"/>
    <g id="text_20">
     <!-- host -->
     <g transform="translate(381.635625 72.748562)scale(0.1 -0.1)">
      <defs>
       <path d="M 3513 2113 
L 3513 0 
L 2938 0 
L 2938 2094 
Q 2938 2591 2744 2837 
Q 2550 3084 2163 3084 
Q 1697 3084 1428 2787 
Q 1159 2491 1159 1978 
L 1159 0 
L 581 0 
L 581 4863 
L 1159 4863 
L 1159 2956 
Q 1366 3272 1645 3428 
Q 1925 3584 2291 3584 
Q 2894 3584 3203 3211 
Q 3513 2838 3513 2113 
z
" id="DejaVuSans-68" transform="scale(0.015625)"/>
      </defs>
      <use xlink:href="#DejaVuSans-68"/>
      <use x="63.378906" xlink:href="#DejaVuSans-6f"/>
      <use x="124.560547" xlink:href="#DejaVuSans-73"/>
      <use x="176.660156" xlink:href="#DejaVuSans-74"/>
     </g>
    </g>
   </g>
  </g>
 </g>
 <defs>
  <clipPath id="p70c078f89a">
   <rect height="266.112" width="357.12" x="57.6" y="41.472"/>
  </clipPath>
 </defs>
</svg>
