<?xml version="1.0" encoding="utf-8" standalone="no"?>
<!DOCTYPE svg PUBLIC "-//W3C//DTD SVG 1.1//EN"
  "http://www.w3.org/Graphics/SVG/1.1/DTD/svg11.dtd">
<svg height="345.6pt" version="1.1" viewBox="0 0 460.8 345.6" width="460.8pt" xmlns="http://www.w3.org/2000/svg" xmlns:xlink="http://www.w3.org/1999/xlink">
 <metadata>
  <rdf:RDF xmlns:cc="http://creativecommons.org/ns#" xmlns:dc="http://purl.org/dc/elements/1.1/" xmlns:rdf="http://www.w3.org/1999/02/22-rdf-syntax-ns#">
   <cc:Work>
    <dc:type rdf:resource="http://purl.org/dc/dcmitype/StillImage"/>
    <dc:date>2023-10-20T11:35:47.035139</dc:date>
    <dc:format>image/svg+xml</dc:format>
    <dc:creator>
     <cc:Agent>
      <dc:title>Matplotlib v3.4.1, https://matplotlib.org/</dc:title>
     </cc:Agent>
    </dc:creator>
   </cc:Work>
  </rdf:RDF>
 </metadata>
 <defs>
  <style type="text/css">*{stroke-linecap:butt;stroke-linejoin:round;}</style>
 </defs>
 <g id="figure_1">
  <g id="patch_1">
   <path d="M 0 345.6 
L 460.8 345.6 
L 460.8 0 
L 0 0 
z
" style="fill:#ffffff;"/>
  </g>
  <g id="axes_1">
   <g id="patch_2">
    <path d="M 57.6 307.584 
L 414.72 307.584 
L 414.72 41.472 
L 57.6 41.472 
z
" style="fill:#ffffff;"/>
   </g>
   <g id="patch_3">
    <path clip-path="url(#pa24633fa53)" d="M 73.832727 307.584 
L 73.832727 41.472 
L 236.16 41.472 
L 236.16 307.584 
z
" style="fill:#ff7f50;opacity:0.2;"/>
   </g>
   <g id="patch_4">
    <path clip-path="url(#pa24633fa53)" d="M 236.16 307.584 
L 236.16 41.472 
L 398.487273 41.472 
L 398.487273 307.584 
z
" style="fill:#add8e6;opacity:0.2;"/>
   </g>
   <g id="matplotlib.axis_1">
    <g id="xtick_1">
     <g id="line2d_1">
      <defs>
       <path d="M 0 0 
L 0 3.5 
" id="mfa4b7b8f5d" style="stroke:#000000;stroke-width:0.8;"/>
      </defs>
      <g>
       <use style="stroke:#000000;stroke-width:0.8;" x="73.832727" xlink:href="#mfa4b7b8f5d" y="307.584"/>
      </g>
     </g>
     <g id="text_1">
      <!-- 0 -->
      <g transform="translate(70.651477 322.182437)scale(0.1 -0.1)">
       <defs>
        <path d="M 2034 4250 
Q 1547 4250 1301 3770 
Q 1056 3291 1056 2328 
Q 1056 1369 1301 889 
Q 1547 409 2034 409 
Q 2525 409 2770 889 
Q 3016 1369 3016 2328 
Q 3016 3291 2770 3770 
Q 2525 4250 2034 4250 
z
M 2034 4750 
Q 2819 4750 3233 4129 
Q 3647 3509 3647 2328 
Q 3647 1150 3233 529 
Q 2819 -91 2034 -91 
Q 1250 -91 836 529 
Q 422 1150 422 2328 
Q 422 3509 836 4129 
Q 1250 4750 2034 4750 
z
" id="DejaVuSans-30" transform="scale(0.015625)"/>
       </defs>
       <use xlink:href="#DejaVuSans-30"/>
      </g>
     </g>
    </g>
    <g id="xtick_2">
     <g id="line2d_2">
      <g>
       <use style="stroke:#000000;stroke-width:0.8;" x="114.414545" xlink:href="#mfa4b7b8f5d" y="307.584"/>
      </g>
     </g>
     <g id="text_2">
      <!-- 5 -->
      <g transform="translate(111.233295 322.182437)scale(0.1 -0.1)">
       <defs>
        <path d="M 691 4666 
L 3169 4666 
L 3169 4134 
L 1269 4134 
L 1269 2991 
Q 1406 3038 1543 3061 
Q 1681 3084 1819 3084 
Q 2600 3084 3056 2656 
Q 3513 2228 3513 1497 
Q 3513 744 3044 326 
Q 2575 -91 1722 -91 
Q 1428 -91 1123 -41 
Q 819 9 494 109 
L 494 744 
Q 775 591 1075 516 
Q 1375 441 1709 441 
Q 2250 441 2565 725 
Q 2881 1009 2881 1497 
Q 2881 1984 2565 2268 
Q 2250 2553 1709 2553 
Q 1456 2553 1204 2497 
Q 953 2441 691 2322 
L 691 4666 
z
" id="DejaVuSans-35" transform="scale(0.015625)"/>
       </defs>
       <use xlink:href="#DejaVuSans-35"/>
      </g>
     </g>
    </g>
    <g id="xtick_3">
     <g id="line2d_3">
      <g>
       <use style="stroke:#000000;stroke-width:0.8;" x="154.996364" xlink:href="#mfa4b7b8f5d" y="307.584"/>
      </g>
     </g>
     <g id="text_3">
      <!-- 10 -->
      <g transform="translate(148.633864 322.182437)scale(0.1 -0.1)">
       <defs>
        <path d="M 794 531 
L 1825 531 
L 1825 4091 
L 703 3866 
L 703 4441 
L 1819 4666 
L 2450 4666 
L 2450 531 
L 3481 531 
L 3481 0 
L 794 0 
L 794 531 
z
" id="DejaVuSans-31" transform="scale(0.015625)"/>
       </defs>
       <use xlink:href="#DejaVuSans-31"/>
       <use x="63.623047" xlink:href="#DejaVuSans-30"/>
      </g>
     </g>
    </g>
    <g id="xtick_4">
     <g id="line2d_4">
      <g>
       <use style="stroke:#000000;stroke-width:0.8;" x="195.578182" xlink:href="#mfa4b7b8f5d" y="307.584"/>
      </g>
     </g>
     <g id="text_4">
      <!-- 15 -->
      <g transform="translate(189.215682 322.182437)scale(0.1 -0.1)">
       <use xlink:href="#DejaVuSans-31"/>
       <use x="63.623047" xlink:href="#DejaVuSans-35"/>
      </g>
     </g>
    </g>
    <g id="xtick_5">
     <g id="line2d_5">
      <g>
       <use style="stroke:#000000;stroke-width:0.8;" x="236.16" xlink:href="#mfa4b7b8f5d" y="307.584"/>
      </g>
     </g>
     <g id="text_5">
      <!-- 20 -->
      <g transform="translate(229.7975 322.182437)scale(0.1 -0.1)">
       <defs>
        <path d="M 1228 531 
L 3431 531 
L 3431 0 
L 469 0 
L 469 531 
Q 828 903 1448 1529 
Q 2069 2156 2228 2338 
Q 2531 2678 2651 2914 
Q 2772 3150 2772 3378 
Q 2772 3750 2511 3984 
Q 2250 4219 1831 4219 
Q 1534 4219 1204 4116 
Q 875 4013 500 3803 
L 500 4441 
Q 881 4594 1212 4672 
Q 1544 4750 1819 4750 
Q 2544 4750 2975 4387 
Q 3406 4025 3406 3419 
Q 3406 3131 3298 2873 
Q 3191 2616 2906 2266 
Q 2828 2175 2409 1742 
Q 1991 1309 1228 531 
z
" id="DejaVuSans-32" transform="scale(0.015625)"/>
       </defs>
       <use xlink:href="#DejaVuSans-32"/>
       <use x="63.623047" xlink:href="#DejaVuSans-30"/>
      </g>
     </g>
    </g>
    <g id="xtick_6">
     <g id="line2d_6">
      <g>
       <use style="stroke:#000000;stroke-width:0.8;" x="276.741818" xlink:href="#mfa4b7b8f5d" y="307.584"/>
      </g>
     </g>
     <g id="text_6">
      <!-- 25 -->
      <g transform="translate(270.379318 322.182437)scale(0.1 -0.1)">
       <use xlink:href="#DejaVuSans-32"/>
       <use x="63.623047" xlink:href="#DejaVuSans-35"/>
      </g>
     </g>
    </g>
    <g id="xtick_7">
     <g id="line2d_7">
      <g>
       <use style="stroke:#000000;stroke-width:0.8;" x="317.323636" xlink:href="#mfa4b7b8f5d" y="307.584"/>
      </g>
     </g>
     <g id="text_7">
      <!-- 30 -->
      <g transform="translate(310.961136 322.182437)scale(0.1 -0.1)">
       <defs>
        <path d="M 2597 2516 
Q 3050 2419 3304 2112 
Q 3559 1806 3559 1356 
Q 3559 666 3084 287 
Q 2609 -91 1734 -91 
Q 1441 -91 1130 -33 
Q 819 25 488 141 
L 488 750 
Q 750 597 1062 519 
Q 1375 441 1716 441 
Q 2309 441 2620 675 
Q 2931 909 2931 1356 
Q 2931 1769 2642 2001 
Q 2353 2234 1838 2234 
L 1294 2234 
L 1294 2753 
L 1863 2753 
Q 2328 2753 2575 2939 
Q 2822 3125 2822 3475 
Q 2822 3834 2567 4026 
Q 2313 4219 1838 4219 
Q 1578 4219 1281 4162 
Q 984 4106 628 3988 
L 628 4550 
Q 988 4650 1302 4700 
Q 1616 4750 1894 4750 
Q 2613 4750 3031 4423 
Q 3450 4097 3450 3541 
Q 3450 3153 3228 2886 
Q 3006 2619 2597 2516 
z
" id="DejaVuSans-33" transform="scale(0.015625)"/>
       </defs>
       <use xlink:href="#DejaVuSans-33"/>
       <use x="63.623047" xlink:href="#DejaVuSans-30"/>
      </g>
     </g>
    </g>
    <g id="xtick_8">
     <g id="line2d_8">
      <g>
       <use style="stroke:#000000;stroke-width:0.8;" x="357.905455" xlink:href="#mfa4b7b8f5d" y="307.584"/>
      </g>
     </g>
     <g id="text_8">
      <!-- 35 -->
      <g transform="translate(351.542955 322.182437)scale(0.1 -0.1)">
       <use xlink:href="#DejaVuSans-33"/>
       <use x="63.623047" xlink:href="#DejaVuSans-35"/>
      </g>
     </g>
    </g>
    <g id="xtick_9">
     <g id="line2d_9">
      <g>
       <use style="stroke:#000000;stroke-width:0.8;" x="398.487273" xlink:href="#mfa4b7b8f5d" y="307.584"/>
      </g>
     </g>
     <g id="text_9">
      <!-- 40 -->
      <g transform="translate(392.124773 322.182437)scale(0.1 -0.1)">
       <defs>
        <path d="M 2419 4116 
L 825 1625 
L 2419 1625 
L 2419 4116 
z
M 2253 4666 
L 3047 4666 
L 3047 1625 
L 3713 1625 
L 3713 1100 
L 3047 1100 
L 3047 0 
L 2419 0 
L 2419 1100 
L 313 1100 
L 313 1709 
L 2253 4666 
z
" id="DejaVuSans-34" transform="scale(0.015625)"/>
       </defs>
       <use xlink:href="#DejaVuSans-34"/>
       <use x="63.623047" xlink:href="#DejaVuSans-30"/>
      </g>
     </g>
    </g>
    <g id="text_10">
     <!-- t -->
     <g transform="translate(234.199844 335.860562)scale(0.1 -0.1)">
      <defs>
       <path d="M 1172 4494 
L 1172 3500 
L 2356 3500 
L 2356 3053 
L 1172 3053 
L 1172 1153 
Q 1172 725 1289 603 
Q 1406 481 1766 481 
L 2356 481 
L 2356 0 
L 1766 0 
Q 1100 0 847 248 
Q 594 497 594 1153 
L 594 3053 
L 172 3053 
L 172 3500 
L 594 3500 
L 594 4494 
L 1172 4494 
z
" id="DejaVuSans-74" transform="scale(0.015625)"/>
      </defs>
      <use xlink:href="#DejaVuSans-74"/>
     </g>
    </g>
   </g>
   <g id="matplotlib.axis_2">
    <g id="ytick_1">
     <g id="line2d_10">
      <defs>
       <path d="M 0 0 
L -3.5 0 
" id="mcb50397ba1" style="stroke:#000000;stroke-width:0.8;"/>
      </defs>
      <g>
       <use style="stroke:#000000;stroke-width:0.8;" x="57.6" xlink:href="#mcb50397ba1" y="307.584"/>
      </g>
     </g>
     <g id="text_11">
      <!-- 0.0 -->
      <g transform="translate(34.696875 311.383219)scale(0.1 -0.1)">
       <defs>
        <path d="M 684 794 
L 1344 794 
L 1344 0 
L 684 0 
L 684 794 
z
" id="DejaVuSans-2e" transform="scale(0.015625)"/>
       </defs>
       <use xlink:href="#DejaVuSans-30"/>
       <use x="63.623047" xlink:href="#DejaVuSans-2e"/>
       <use x="95.410156" xlink:href="#DejaVuSans-30"/>
      </g>
     </g>
    </g>
    <g id="ytick_2">
     <g id="line2d_11">
      <g>
       <use style="stroke:#000000;stroke-width:0.8;" x="57.6" xlink:href="#mcb50397ba1" y="254.3616"/>
      </g>
     </g>
     <g id="text_12">
      <!-- 0.2 -->
      <g transform="translate(34.696875 258.160819)scale(0.1 -0.1)">
       <use xlink:href="#DejaVuSans-30"/>
       <use x="63.623047" xlink:href="#DejaVuSans-2e"/>
       <use x="95.410156" xlink:href="#DejaVuSans-32"/>
      </g>
     </g>
    </g>
    <g id="ytick_3">
     <g id="line2d_12">
      <g>
       <use style="stroke:#000000;stroke-width:0.8;" x="57.6" xlink:href="#mcb50397ba1" y="201.1392"/>
      </g>
     </g>
     <g id="text_13">
      <!-- 0.4 -->
      <g transform="translate(34.696875 204.938419)scale(0.1 -0.1)">
       <use xlink:href="#DejaVuSans-30"/>
       <use x="63.623047" xlink:href="#DejaVuSans-2e"/>
       <use x="95.410156" xlink:href="#DejaVuSans-34"/>
      </g>
     </g>
    </g>
    <g id="ytick_4">
     <g id="line2d_13">
      <g>
       <use style="stroke:#000000;stroke-width:0.8;" x="57.6" xlink:href="#mcb50397ba1" y="147.9168"/>
      </g>
     </g>
     <g id="text_14">
      <!-- 0.6 -->
      <g transform="translate(34.696875 151.716019)scale(0.1 -0.1)">
       <defs>
        <path d="M 2113 2584 
Q 1688 2584 1439 2293 
Q 1191 2003 1191 1497 
Q 1191 994 1439 701 
Q 1688 409 2113 409 
Q 2538 409 2786 701 
Q 3034 994 3034 1497 
Q 3034 2003 2786 2293 
Q 2538 2584 2113 2584 
z
M 3366 4563 
L 3366 3988 
Q 3128 4100 2886 4159 
Q 2644 4219 2406 4219 
Q 1781 4219 1451 3797 
Q 1122 3375 1075 2522 
Q 1259 2794 1537 2939 
Q 1816 3084 2150 3084 
Q 2853 3084 3261 2657 
Q 3669 2231 3669 1497 
Q 3669 778 3244 343 
Q 2819 -91 2113 -91 
Q 1303 -91 875 529 
Q 447 1150 447 2328 
Q 447 3434 972 4092 
Q 1497 4750 2381 4750 
Q 2619 4750 2861 4703 
Q 3103 4656 3366 4563 
z
" id="DejaVuSans-36" transform="scale(0.015625)"/>
       </defs>
       <use xlink:href="#DejaVuSans-30"/>
       <use x="63.623047" xlink:href="#DejaVuSans-2e"/>
       <use x="95.410156" xlink:href="#DejaVuSans-36"/>
      </g>
     </g>
    </g>
    <g id="ytick_5">
     <g id="line2d_14">
      <g>
       <use style="stroke:#000000;stroke-width:0.8;" x="57.6" xlink:href="#mcb50397ba1" y="94.6944"/>
      </g>
     </g>
     <g id="text_15">
      <!-- 0.8 -->
      <g transform="translate(34.696875 98.493619)scale(0.1 -0.1)">
       <defs>
        <path d="M 2034 2216 
Q 1584 2216 1326 1975 
Q 1069 1734 1069 1313 
Q 1069 891 1326 650 
Q 1584 409 2034 409 
Q 2484 409 2743 651 
Q 3003 894 3003 1313 
Q 3003 1734 2745 1975 
Q 2488 2216 2034 2216 
z
M 1403 2484 
Q 997 2584 770 2862 
Q 544 3141 544 3541 
Q 544 4100 942 4425 
Q 1341 4750 2034 4750 
Q 2731 4750 3128 4425 
Q 3525 4100 3525 3541 
Q 3525 3141 3298 2862 
Q 3072 2584 2669 2484 
Q 3125 2378 3379 2068 
Q 3634 1759 3634 1313 
Q 3634 634 3220 271 
Q 2806 -91 2034 -91 
Q 1263 -91 848 271 
Q 434 634 434 1313 
Q 434 1759 690 2068 
Q 947 2378 1403 2484 
z
M 1172 3481 
Q 1172 3119 1398 2916 
Q 1625 2713 2034 2713 
Q 2441 2713 2670 2916 
Q 2900 3119 2900 3481 
Q 2900 3844 2670 4047 
Q 2441 4250 2034 4250 
Q 1625 4250 1398 4047 
Q 1172 3844 1172 3481 
z
" id="DejaVuSans-38" transform="scale(0.015625)"/>
       </defs>
       <use xlink:href="#DejaVuSans-30"/>
       <use x="63.623047" xlink:href="#DejaVuSans-2e"/>
       <use x="95.410156" xlink:href="#DejaVuSans-38"/>
      </g>
     </g>
    </g>
    <g id="ytick_6">
     <g id="line2d_15">
      <g>
       <use style="stroke:#000000;stroke-width:0.8;" x="57.6" xlink:href="#mcb50397ba1" y="41.472"/>
      </g>
     </g>
     <g id="text_16">
      <!-- 1.0 -->
      <g transform="translate(34.696875 45.271219)scale(0.1 -0.1)">
       <use xlink:href="#DejaVuSans-31"/>
       <use x="63.623047" xlink:href="#DejaVuSans-2e"/>
       <use x="95.410156" xlink:href="#DejaVuSans-30"/>
      </g>
     </g>
    </g>
    <g id="text_17">
     <!-- p(context) -->
     <g transform="translate(28.617187 200.449875)rotate(-90)scale(0.1 -0.1)">
      <defs>
       <path d="M 1159 525 
L 1159 -1331 
L 581 -1331 
L 581 3500 
L 1159 3500 
L 1159 2969 
Q 1341 3281 1617 3432 
Q 1894 3584 2278 3584 
Q 2916 3584 3314 3078 
Q 3713 2572 3713 1747 
Q 3713 922 3314 415 
Q 2916 -91 2278 -91 
Q 1894 -91 1617 61 
Q 1341 213 1159 525 
z
M 3116 1747 
Q 3116 2381 2855 2742 
Q 2594 3103 2138 3103 
Q 1681 3103 1420 2742 
Q 1159 2381 1159 1747 
Q 1159 1113 1420 752 
Q 1681 391 2138 391 
Q 2594 391 2855 752 
Q 3116 1113 3116 1747 
z
" id="DejaVuSans-70" transform="scale(0.015625)"/>
       <path d="M 1984 4856 
Q 1566 4138 1362 3434 
Q 1159 2731 1159 2009 
Q 1159 1288 1364 580 
Q 1569 -128 1984 -844 
L 1484 -844 
Q 1016 -109 783 600 
Q 550 1309 550 2009 
Q 550 2706 781 3412 
Q 1013 4119 1484 4856 
L 1984 4856 
z
" id="DejaVuSans-28" transform="scale(0.015625)"/>
       <path d="M 3122 3366 
L 3122 2828 
Q 2878 2963 2633 3030 
Q 2388 3097 2138 3097 
Q 1578 3097 1268 2742 
Q 959 2388 959 1747 
Q 959 1106 1268 751 
Q 1578 397 2138 397 
Q 2388 397 2633 464 
Q 2878 531 3122 666 
L 3122 134 
Q 2881 22 2623 -34 
Q 2366 -91 2075 -91 
Q 1284 -91 818 406 
Q 353 903 353 1747 
Q 353 2603 823 3093 
Q 1294 3584 2113 3584 
Q 2378 3584 2631 3529 
Q 2884 3475 3122 3366 
z
" id="DejaVuSans-63" transform="scale(0.015625)"/>
       <path d="M 1959 3097 
Q 1497 3097 1228 2736 
Q 959 2375 959 1747 
Q 959 1119 1226 758 
Q 1494 397 1959 397 
Q 2419 397 2687 759 
Q 2956 1122 2956 1747 
Q 2956 2369 2687 2733 
Q 2419 3097 1959 3097 
z
M 1959 3584 
Q 2709 3584 3137 3096 
Q 3566 2609 3566 1747 
Q 3566 888 3137 398 
Q 2709 -91 1959 -91 
Q 1206 -91 779 398 
Q 353 888 353 1747 
Q 353 2609 779 3096 
Q 1206 3584 1959 3584 
z
" id="DejaVuSans-6f" transform="scale(0.015625)"/>
       <path d="M 3513 2113 
L 3513 0 
L 2938 0 
L 2938 2094 
Q 2938 2591 2744 2837 
Q 2550 3084 2163 3084 
Q 1697 3084 1428 2787 
Q 1159 2491 1159 1978 
L 1159 0 
L 581 0 
L 581 3500 
L 1159 3500 
L 1159 2956 
Q 1366 3272 1645 3428 
Q 1925 3584 2291 3584 
Q 2894 3584 3203 3211 
Q 3513 2838 3513 2113 
z
" id="DejaVuSans-6e" transform="scale(0.015625)"/>
       <path d="M 3597 1894 
L 3597 1613 
L 953 1613 
Q 991 1019 1311 708 
Q 1631 397 2203 397 
Q 2534 397 2845 478 
Q 3156 559 3463 722 
L 3463 178 
Q 3153 47 2828 -22 
Q 2503 -91 2169 -91 
Q 1331 -91 842 396 
Q 353 884 353 1716 
Q 353 2575 817 3079 
Q 1281 3584 2069 3584 
Q 2775 3584 3186 3129 
Q 3597 2675 3597 1894 
z
M 3022 2063 
Q 3016 2534 2758 2815 
Q 2500 3097 2075 3097 
Q 1594 3097 1305 2825 
Q 1016 2553 972 2059 
L 3022 2063 
z
" id="DejaVuSans-65" transform="scale(0.015625)"/>
       <path d="M 3513 3500 
L 2247 1797 
L 3578 0 
L 2900 0 
L 1881 1375 
L 863 0 
L 184 0 
L 1544 1831 
L 300 3500 
L 978 3500 
L 1906 2253 
L 2834 3500 
L 3513 3500 
z
" id="DejaVuSans-78" transform="scale(0.015625)"/>
       <path d="M 513 4856 
L 1013 4856 
Q 1481 4119 1714 3412 
Q 1947 2706 1947 2009 
Q 1947 1309 1714 600 
Q 1481 -109 1013 -844 
L 513 -844 
Q 928 -128 1133 580 
Q 1338 1288 1338 2009 
Q 1338 2731 1133 3434 
Q 928 4138 513 4856 
z
" id="DejaVuSans-29" transform="scale(0.015625)"/>
      </defs>
      <use xlink:href="#DejaVuSans-70"/>
      <use x="63.476562" xlink:href="#DejaVuSans-28"/>
      <use x="102.490234" xlink:href="#DejaVuSans-63"/>
      <use x="157.470703" xlink:href="#DejaVuSans-6f"/>
      <use x="218.652344" xlink:href="#DejaVuSans-6e"/>
      <use x="282.03125" xlink:href="#DejaVuSans-74"/>
      <use x="321.240234" xlink:href="#DejaVuSans-65"/>
      <use x="381.013672" xlink:href="#DejaVuSans-78"/>
      <use x="440.193359" xlink:href="#DejaVuSans-74"/>
      <use x="479.402344" xlink:href="#DejaVuSans-29"/>
     </g>
    </g>
   </g>
   <g id="line2d_16">
    <path clip-path="url(#pa24633fa53)" d="M 73.832727 218.88 
L 81.949091 303.882811 
L 90.065455 305.909991 
L 98.181818 306.415443 
L 106.298182 306.677308 
L 114.414545 306.841262 
L 122.530909 306.955667 
L 130.647273 307.040598 
L 138.763636 307.106146 
L 146.88 307.158163 
L 154.996364 300.200577 
L 163.112727 307.022678 
L 171.229091 300.271654 
L 179.345455 203.384329 
L 187.461818 303.413381 
L 195.578182 306.578908 
L 203.694545 298.356065 
L 211.810909 306.681651 
L 219.927273 298.99465 
L 228.043636 306.733999 
L 236.16 299.324904 
L 244.276364 195.712107 
L 252.392727 301.91152 
L 260.509091 306.228596 
L 268.625455 297.808937 
L 276.741818 306.359308 
L 284.858182 298.344101 
L 292.974545 295.022653 
L 301.090909 184.233609 
L 309.207273 299.760116 
L 317.323636 195.995427 
L 325.44 298.186429 
L 333.556364 289.987558 
L 341.672727 288.726112 
L 349.789091 288.417979 
L 357.905455 288.27178 
L 366.021818 288.167 
L 374.138182 288.079051 
L 382.254545 288.000773 
L 390.370909 287.929421 
" style="fill:none;stroke:#add8e6;stroke-linecap:square;stroke-opacity:0.3;stroke-width:1.5;"/>
   </g>
   <g id="line2d_17">
    <path clip-path="url(#pa24633fa53)" d="M 73.832727 218.88 
L 81.949091 303.882811 
L 90.065455 305.909991 
L 98.181818 306.415443 
L 106.298182 224.138894 
L 114.414545 303.340729 
L 122.530909 305.618017 
L 130.647273 226.091633 
L 138.763636 302.168898 
L 146.88 304.881094 
L 154.996364 305.368178 
L 163.112727 305.631699 
L 171.229091 305.824652 
L 179.345455 305.981253 
L 187.461818 306.113135 
L 195.578182 294.221038 
L 203.694545 305.755071 
L 211.810909 294.354886 
L 219.927273 305.819158 
L 228.043636 294.831311 
L 236.16 291.551917 
L 244.276364 211.622672 
L 252.392727 169.286427 
L 260.509091 149.644208 
L 268.625455 136.835907 
L 276.741818 126.73 
L 284.858182 118.330379 
L 292.974545 111.271529 
L 301.090909 290.808244 
L 309.207273 303.983012 
L 317.323636 210.393948 
L 325.44 143.515898 
L 333.556364 120.897863 
L 341.672727 285.266831 
L 349.789091 191.637127 
L 357.905455 142.158312 
L 366.021818 125.523538 
L 374.138182 119.071861 
L 382.254545 115.277772 
L 390.370909 112.270028 
" style="fill:none;stroke:#add8e6;stroke-linecap:square;stroke-opacity:0.3;stroke-width:1.5;"/>
   </g>
   <g id="line2d_18">
    <path clip-path="url(#pa24633fa53)" d="M 73.832727 218.88 
L 81.949091 303.882811 
L 90.065455 305.909991 
L 98.181818 306.415443 
L 106.298182 306.677308 
L 114.414545 306.841262 
L 122.530909 228.63984 
L 130.647273 304.019039 
L 138.763636 306.130531 
L 146.88 306.461686 
L 154.996364 306.613542 
L 163.112727 306.715306 
L 171.229091 296.983635 
L 179.345455 203.946307 
L 187.461818 302.381379 
L 195.578182 305.932899 
L 203.694545 294.761839 
L 211.810909 305.934757 
L 219.927273 295.34367 
L 228.043636 306.013488 
L 236.16 295.791018 
L 244.276364 198.468998 
L 252.392727 148.758406 
L 260.509091 128.675349 
L 268.625455 116.512184 
L 276.741818 107.501847 
L 284.858182 289.99863 
L 292.974545 304.283868 
L 301.090909 289.374279 
L 309.207273 173.482935 
L 317.323636 117.833463 
L 325.44 103.643003 
L 333.556364 282.246573 
L 341.672727 169.930433 
L 349.789091 119.445918 
L 357.905455 106.606712 
L 366.021818 101.766057 
L 374.138182 98.545432 
L 382.254545 95.839332 
L 390.370909 273.612813 
" style="fill:none;stroke:#add8e6;stroke-linecap:square;stroke-opacity:0.3;stroke-width:1.5;"/>
   </g>
   <g id="line2d_19">
    <path clip-path="url(#pa24633fa53)" d="M 73.832727 218.88 
L 81.949091 303.882811 
L 90.065455 211.321417 
L 98.181818 301.636568 
L 106.298182 304.568792 
L 114.414545 221.074201 
L 122.530909 300.545379 
L 130.647273 303.707154 
L 138.763636 225.408423 
L 146.88 299.32923 
L 154.996364 225.65047 
L 163.112727 297.386777 
L 171.229091 301.246419 
L 179.345455 302.053892 
L 187.461818 302.557265 
L 195.578182 230.770836 
L 203.694545 201.642338 
L 211.810909 294.785239 
L 219.927273 300.211086 
L 228.043636 301.051658 
L 236.16 281.132045 
L 244.276364 223.893767 
L 252.392727 294.916273 
L 260.509091 232.399978 
L 268.625455 211.895076 
L 276.741818 205.353414 
L 284.858182 202.247173 
L 292.974545 199.955029 
L 301.090909 197.90106 
L 309.207273 195.963244 
L 317.323636 194.114069 
L 325.44 192.345163 
L 333.556364 190.652072 
L 341.672727 189.031241 
L 349.789091 187.479407 
L 357.905455 288.223254 
L 366.021818 215.466233 
L 374.138182 197.324411 
L 382.254545 192.709585 
L 390.370909 190.961719 
" style="fill:none;stroke:#add8e6;stroke-linecap:square;stroke-opacity:0.3;stroke-width:1.5;"/>
   </g>
   <g id="line2d_20">
    <path clip-path="url(#pa24633fa53)" d="M 73.832727 218.88 
L 81.949091 303.882811 
L 90.065455 305.909991 
L 98.181818 306.415443 
L 106.298182 306.677308 
L 114.414545 306.841262 
L 122.530909 306.955667 
L 130.647273 307.040598 
L 138.763636 307.106146 
L 146.88 307.158163 
L 154.996364 300.200577 
L 163.112727 307.022678 
L 171.229091 300.271654 
L 179.345455 307.044064 
L 187.461818 300.600596 
L 195.578182 307.071912 
L 203.694545 300.907672 
L 211.810909 307.096808 
L 219.927273 301.17847 
L 228.043636 307.118686 
L 236.16 301.418422 
L 244.276364 210.764857 
L 252.392727 156.250807 
L 260.509091 133.208924 
L 268.625455 119.423796 
L 276.741818 109.761895 
L 284.858182 102.539545 
L 292.974545 293.345899 
L 301.090909 177.354605 
L 309.207273 119.715551 
L 317.323636 106.174427 
L 325.44 101.148896 
L 333.556364 284.117451 
L 341.672727 170.931123 
L 349.789091 118.401029 
L 357.905455 278.976241 
L 366.021818 176.093601 
L 374.138182 126.047682 
L 382.254545 113.352551 
L 390.370909 109.380327 
" style="fill:none;stroke:#add8e6;stroke-linecap:square;stroke-opacity:0.3;stroke-width:1.5;"/>
   </g>
   <g id="line2d_21">
    <path clip-path="url(#pa24633fa53)" d="M 73.832727 218.88 
L 81.949091 303.882811 
L 90.065455 211.321417 
L 98.181818 301.636568 
L 106.298182 304.568792 
L 114.414545 305.281862 
L 122.530909 224.029921 
L 130.647273 185.802914 
L 138.763636 298.061519 
L 146.88 303.049265 
L 154.996364 303.911126 
L 163.112727 304.37226 
L 171.229091 304.710273 
L 179.345455 304.983433 
L 187.461818 305.211986 
L 195.578182 223.977826 
L 203.694545 300.23108 
L 211.810909 304.081832 
L 219.927273 304.637973 
L 228.043636 289.010145 
L 236.16 284.13131 
L 244.276364 303.706788 
L 252.392727 288.719478 
L 260.509091 304.040932 
L 268.625455 289.394085 
L 276.741818 206.693481 
L 284.858182 167.660961 
L 292.974545 151.535563 
L 301.090909 141.592872 
L 309.207273 133.602517 
L 317.323636 290.892779 
L 325.44 200.550758 
L 333.556364 155.963045 
L 341.672727 140.50641 
L 349.789091 286.271428 
L 357.905455 300.15972 
L 366.021818 277.544846 
L 374.138182 190.596381 
L 382.254545 150.975821 
L 390.370909 137.834075 
" style="fill:none;stroke:#add8e6;stroke-linecap:square;stroke-opacity:0.3;stroke-width:1.5;"/>
   </g>
   <g id="line2d_22">
    <path clip-path="url(#pa24633fa53)" d="M 73.832727 218.88 
L 81.949091 303.882811 
L 90.065455 211.321417 
L 98.181818 177.582263 
L 106.298182 162.474632 
L 114.414545 296.572406 
L 122.530909 302.491442 
L 130.647273 303.737022 
L 138.763636 304.421371 
L 146.88 304.893825 
L 154.996364 305.249822 
L 163.112727 305.529329 
L 171.229091 305.754141 
L 179.345455 305.93819 
L 187.461818 215.520973 
L 195.578182 300.369121 
L 203.694545 304.762862 
L 211.810909 305.377775 
L 219.927273 219.053709 
L 228.043636 299.423493 
L 236.16 284.012951 
L 244.276364 196.230742 
L 252.392727 155.755885 
L 260.509091 291.86872 
L 268.625455 204.127111 
L 276.741818 163.474955 
L 284.858182 148.916679 
L 292.974545 141.502993 
L 301.090909 135.985355 
L 309.207273 131.19165 
L 317.323636 126.858128 
L 325.44 122.907266 
L 333.556364 119.298644 
L 341.672727 115.999913 
L 349.789091 112.981643 
L 357.905455 110.216639 
L 366.021818 107.67995 
L 374.138182 105.348885 
L 382.254545 103.202957 
L 390.370909 101.223772 
" style="fill:none;stroke:#add8e6;stroke-linecap:square;stroke-opacity:0.3;stroke-width:1.5;"/>
   </g>
   <g id="line2d_23">
    <path clip-path="url(#pa24633fa53)" d="M 73.832727 218.88 
L 81.949091 303.882811 
L 90.065455 211.321417 
L 98.181818 301.636568 
L 106.298182 304.568792 
L 114.414545 221.074201 
L 122.530909 300.545379 
L 130.647273 303.707154 
L 138.763636 304.405206 
L 146.88 304.827819 
L 154.996364 305.143728 
L 163.112727 305.396776 
L 171.229091 305.605514 
L 179.345455 305.780562 
L 187.461818 305.929138 
L 195.578182 306.056531 
L 203.694545 294.098948 
L 211.810909 305.658409 
L 219.927273 294.208635 
L 228.043636 305.724927 
L 236.16 294.676542 
L 244.276364 305.802645 
L 252.392727 295.114177 
L 260.509091 291.801305 
L 268.625455 205.9101 
L 276.741818 301.59833 
L 284.858182 291.487246 
L 292.974545 289.158533 
L 301.090909 200.172829 
L 309.207273 299.966392 
L 317.323636 289.618918 
L 325.44 287.238699 
L 333.556364 286.614145 
L 341.672727 286.41368 
L 349.789091 286.321976 
L 357.905455 286.260572 
L 366.021818 286.209487 
L 374.138182 286.163476 
L 382.254545 286.12101 
L 390.370909 286.08151 
" style="fill:none;stroke:#add8e6;stroke-linecap:square;stroke-opacity:0.3;stroke-width:1.5;"/>
   </g>
   <g id="line2d_24">
    <path clip-path="url(#pa24633fa53)" d="M 73.832727 218.88 
L 81.949091 303.882811 
L 90.065455 305.909991 
L 98.181818 306.415443 
L 106.298182 306.677308 
L 114.414545 226.898058 
L 122.530909 179.007132 
L 130.647273 300.461143 
L 138.763636 304.952684 
L 146.88 305.620099 
L 154.996364 305.91349 
L 163.112727 306.105334 
L 171.229091 306.25337 
L 179.345455 306.374763 
L 187.461818 306.476799 
L 195.578182 295.311352 
L 203.694545 306.118989 
L 211.810909 295.316465 
L 219.927273 306.164132 
L 228.043636 295.753944 
L 236.16 291.897358 
L 244.276364 202.124672 
L 252.392727 154.228948 
L 260.509091 134.530044 
L 268.625455 122.785018 
L 276.741818 114.01712 
L 284.858182 106.99715 
L 292.974545 101.245658 
L 301.090909 96.471387 
L 309.207273 92.463762 
L 317.323636 89.064069 
L 325.44 86.15138 
L 333.556364 287.338108 
L 341.672727 164.331327 
L 349.789091 105.616768 
L 357.905455 282.31473 
L 366.021818 169.04104 
L 374.138182 113.02016 
L 382.254545 98.726757 
L 390.370909 94.544389 
" style="fill:none;stroke:#add8e6;stroke-linecap:square;stroke-opacity:0.3;stroke-width:1.5;"/>
   </g>
   <g id="line2d_25">
    <path clip-path="url(#pa24633fa53)" d="M 73.832727 218.88 
L 81.949091 303.882811 
L 90.065455 305.909991 
L 98.181818 306.415443 
L 106.298182 306.677308 
L 114.414545 226.898058 
L 122.530909 303.741843 
L 130.647273 305.914788 
L 138.763636 306.284315 
L 146.88 306.467787 
L 154.996364 306.593758 
L 163.112727 306.692275 
L 171.229091 306.773229 
L 179.345455 297.494827 
L 187.461818 306.540584 
L 195.578182 297.568883 
L 203.694545 205.128779 
L 211.810909 302.665059 
L 219.927273 306.115505 
L 228.043636 295.991294 
L 236.16 292.52993 
L 244.276364 192.428037 
L 252.392727 144.292017 
L 260.509091 124.772052 
L 268.625455 293.610017 
L 276.741818 191.153971 
L 284.858182 138.624397 
L 292.974545 121.952409 
L 301.090909 113.896393 
L 309.207273 284.206162 
L 317.323636 182.073943 
L 325.44 132.872929 
L 333.556364 118.617374 
L 341.672727 277.751168 
L 349.789091 181.814622 
L 357.905455 136.650834 
L 366.021818 123.222921 
L 374.138182 118.112933 
L 382.254545 114.912686 
L 390.370909 112.261362 
" style="fill:none;stroke:#add8e6;stroke-linecap:square;stroke-opacity:0.3;stroke-width:1.5;"/>
   </g>
   <g id="line2d_26">
    <path clip-path="url(#pa24633fa53)" d="M 73.832727 218.88 
L 81.949091 168.329484 
L 90.065455 148.730799 
L 98.181818 135.138218 
L 106.298182 124.733456 
L 114.414545 291.371382 
L 122.530909 302.100464 
L 130.647273 304.061227 
L 138.763636 304.898579 
L 146.88 305.393803 
L 154.996364 305.735101 
L 163.112727 305.988076 
L 171.229091 306.183259 
L 179.345455 306.338027 
L 187.461818 200.823212 
L 195.578182 297.51206 
L 203.694545 304.638091 
L 211.810909 305.655713 
L 219.927273 305.935892 
L 228.043636 291.546937 
L 236.16 282.921992 
L 244.276364 167.078518 
L 252.392727 120.339174 
L 260.509091 107.869718 
L 268.625455 101.822789 
L 276.741818 97.358948 
L 284.858182 93.648583 
L 292.974545 90.472444 
L 301.090909 87.721051 
L 309.207273 85.317517 
L 317.323636 83.202461 
L 325.44 81.328829 
L 333.556364 79.658889 
L 341.672727 78.162106 
L 349.789091 76.813564 
L 357.905455 75.592767 
L 366.021818 74.482732 
L 374.138182 73.469284 
L 382.254545 72.540514 
L 390.370909 71.686354 
" style="fill:none;stroke:#add8e6;stroke-linecap:square;stroke-opacity:0.3;stroke-width:1.5;"/>
   </g>
   <g id="line2d_27">
    <path clip-path="url(#pa24633fa53)" d="M 73.832727 218.88 
L 81.949091 303.882811 
L 90.065455 305.909991 
L 98.181818 306.415443 
L 106.298182 306.677308 
L 114.414545 306.841262 
L 122.530909 306.955667 
L 130.647273 229.771559 
L 138.763636 176.012888 
L 146.88 300.766793 
L 154.996364 214.268011 
L 163.112727 300.34858 
L 171.229091 304.583389 
L 179.345455 226.865773 
L 187.461818 299.913122 
L 195.578182 224.19358 
L 203.694545 298.050055 
L 211.810909 302.647692 
L 219.927273 303.450077 
L 228.043636 303.812673 
L 236.16 287.578184 
L 244.276364 211.72692 
L 252.392727 176.435496 
L 260.509091 162.07334 
L 268.625455 291.41016 
L 276.741818 212.409393 
L 284.858182 293.078082 
L 292.974545 218.72847 
L 301.090909 291.820167 
L 309.207273 275.251819 
L 317.323636 209.637615 
L 325.44 289.641084 
L 333.556364 273.647597 
L 341.672727 269.902925 
L 349.789091 268.884668 
L 357.905455 206.311878 
L 366.021818 184.497971 
L 374.138182 176.919191 
L 382.254545 172.97282 
L 390.370909 169.936874 
" style="fill:none;stroke:#add8e6;stroke-linecap:square;stroke-opacity:0.3;stroke-width:1.5;"/>
   </g>
   <g id="line2d_28">
    <path clip-path="url(#pa24633fa53)" d="M 73.832727 218.88 
L 81.949091 303.882811 
L 90.065455 305.909991 
L 98.181818 306.415443 
L 106.298182 306.677308 
L 114.414545 306.841262 
L 122.530909 306.955667 
L 130.647273 307.040598 
L 138.763636 307.106146 
L 146.88 307.158163 
L 154.996364 300.200577 
L 163.112727 201.486781 
L 171.229091 303.190125 
L 179.345455 306.494419 
L 187.461818 306.880349 
L 195.578182 298.97538 
L 203.694545 306.705943 
L 211.810909 299.033103 
L 219.927273 306.733378 
L 228.043636 299.329168 
L 236.16 296.275469 
L 244.276364 306.656992 
L 252.392727 299.296814 
L 260.509091 296.444784 
L 268.625455 188.84732 
L 276.741818 138.732211 
L 284.858182 297.606946 
L 292.974545 192.644151 
L 301.090909 139.422162 
L 309.207273 122.886864 
L 317.323636 114.301761 
L 325.44 287.243464 
L 333.556364 180.177562 
L 341.672727 129.907038 
L 349.789091 116.792014 
L 357.905455 111.362446 
L 366.021818 107.546308 
L 374.138182 104.319666 
L 382.254545 277.681413 
L 390.370909 167.222282 
" style="fill:none;stroke:#add8e6;stroke-linecap:square;stroke-opacity:0.3;stroke-width:1.5;"/>
   </g>
   <g id="line2d_29">
    <path clip-path="url(#pa24633fa53)" d="M 73.832727 218.88 
L 81.949091 303.882811 
L 90.065455 305.909991 
L 98.181818 219.51827 
L 106.298182 302.712547 
L 114.414545 305.190778 
L 122.530909 305.717645 
L 130.647273 226.167354 
L 138.763636 302.04262 
L 146.88 304.792992 
L 154.996364 305.287017 
L 163.112727 305.557372 
L 171.229091 305.756891 
L 179.345455 305.919305 
L 187.461818 229.24263 
L 195.578182 302.060351 
L 203.694545 305.033879 
L 211.810909 291.406906 
L 219.927273 304.831164 
L 228.043636 291.856351 
L 236.16 288.297991 
L 244.276364 213.196786 
L 252.392727 176.598133 
L 260.509091 159.889127 
L 268.625455 148.866426 
L 276.741818 139.805545 
L 284.858182 131.883997 
L 292.974545 124.889466 
L 301.090909 118.71813 
L 309.207273 113.28057 
L 317.323636 108.489943 
L 325.44 104.263977 
L 333.556364 100.527569 
L 341.672727 97.214056 
L 349.789091 94.265382 
L 357.905455 91.631595 
L 366.021818 89.270029 
L 374.138182 286.621653 
L 382.254545 168.595073 
L 390.370909 291.880724 
" style="fill:none;stroke:#add8e6;stroke-linecap:square;stroke-opacity:0.3;stroke-width:1.5;"/>
   </g>
   <g id="line2d_30">
    <path clip-path="url(#pa24633fa53)" d="M 73.832727 218.88 
L 81.949091 303.882811 
L 90.065455 305.909991 
L 98.181818 306.415443 
L 106.298182 306.677308 
L 114.414545 306.841262 
L 122.530909 228.63984 
L 130.647273 304.019039 
L 138.763636 222.799921 
L 146.88 180.830133 
L 154.996364 299.166067 
L 163.112727 304.312147 
L 171.229091 305.062404 
L 179.345455 226.858383 
L 187.461818 300.339459 
L 195.578182 303.998646 
L 203.694545 304.597243 
L 211.810909 304.876041 
L 219.927273 289.627982 
L 228.043636 304.237681 
L 236.16 289.681508 
L 244.276364 208.554155 
L 252.392727 169.17025 
L 260.509091 152.780673 
L 268.625455 142.775013 
L 276.741818 134.805197 
L 284.858182 127.911457 
L 292.974545 121.843662 
L 301.090909 288.453845 
L 309.207273 190.696672 
L 317.323636 144.371587 
L 325.44 129.344677 
L 333.556364 123.098581 
L 341.672727 119.056235 
L 349.789091 115.706833 
L 357.905455 112.710293 
L 366.021818 281.668243 
L 374.138182 180.048668 
L 382.254545 135.056958 
L 390.370909 121.452183 
" style="fill:none;stroke:#add8e6;stroke-linecap:square;stroke-opacity:0.3;stroke-width:1.5;"/>
   </g>
   <g id="line2d_31">
    <path clip-path="url(#pa24633fa53)" d="M 73.832727 218.88 
L 81.949091 303.882811 
L 90.065455 211.321417 
L 98.181818 301.636568 
L 106.298182 215.160644 
L 114.414545 299.433941 
L 122.530909 219.057978 
L 130.647273 297.23317 
L 138.763636 301.168685 
L 146.88 302.160462 
L 154.996364 302.808494 
L 163.112727 303.314566 
L 171.229091 303.730123 
L 179.345455 304.078647 
L 187.461818 304.374625 
L 195.578182 304.628412 
L 203.694545 304.847854 
L 211.810909 226.59059 
L 219.927273 299.955709 
L 228.043636 303.753677 
L 236.16 288.330267 
L 244.276364 284.18234 
L 252.392727 207.075159 
L 260.509091 297.91155 
L 268.625455 284.584743 
L 276.741818 281.67254 
L 284.858182 280.96882 
L 292.974545 280.755039 
L 301.090909 280.654842 
L 309.207273 280.584234 
L 317.323636 280.52416 
L 325.44 280.47002 
L 333.556364 280.420433 
L 341.672727 280.374763 
L 349.789091 280.332577 
L 357.905455 280.29352 
L 366.021818 280.257283 
L 374.138182 280.2236 
L 382.254545 280.192233 
L 390.370909 280.162973 
" style="fill:none;stroke:#add8e6;stroke-linecap:square;stroke-opacity:0.3;stroke-width:1.5;"/>
   </g>
   <g id="line2d_32">
    <path clip-path="url(#pa24633fa53)" d="M 73.832727 218.88 
L 81.949091 303.882811 
L 90.065455 305.909991 
L 98.181818 306.415443 
L 106.298182 224.138894 
L 114.414545 303.340729 
L 122.530909 305.618017 
L 130.647273 306.046326 
L 138.763636 306.275542 
L 146.88 306.435674 
L 154.996364 306.559989 
L 163.112727 306.660838 
L 171.229091 229.43342 
L 179.345455 303.420012 
L 187.461818 305.934715 
L 195.578182 294.414904 
L 203.694545 305.842472 
L 211.810909 294.897272 
L 219.927273 305.920493 
L 228.043636 295.368126 
L 236.16 292.140289 
L 244.276364 207.576172 
L 252.392727 162.995673 
L 260.509091 142.728289 
L 268.625455 129.681352 
L 276.741818 119.594172 
L 284.858182 111.397 
L 292.974545 104.645937 
L 301.090909 289.864215 
L 309.207273 184.406086 
L 317.323636 128.182122 
L 325.44 285.976869 
L 333.556364 189.110529 
L 341.672727 137.351979 
L 349.789091 120.674877 
L 357.905455 114.356478 
L 366.021818 110.609694 
L 374.138182 107.617719 
L 382.254545 104.974138 
L 390.370909 102.575415 
" style="fill:none;stroke:#add8e6;stroke-linecap:square;stroke-opacity:0.3;stroke-width:1.5;"/>
   </g>
   <g id="line2d_33">
    <path clip-path="url(#pa24633fa53)" d="M 73.832727 218.88 
L 81.949091 303.882811 
L 90.065455 305.909991 
L 98.181818 306.415443 
L 106.298182 306.677308 
L 114.414545 306.841262 
L 122.530909 306.955667 
L 130.647273 307.040598 
L 138.763636 230.504167 
L 146.88 174.294802 
L 154.996364 300.830098 
L 163.112727 305.65013 
L 171.229091 306.248847 
L 179.345455 306.445545 
L 187.461818 295.405579 
L 195.578182 306.093702 
L 203.694545 295.405324 
L 211.810909 201.519535 
L 219.927273 151.217422 
L 228.043636 296.654705 
L 236.16 285.044235 
L 244.276364 188.397367 
L 252.392727 144.150915 
L 260.509091 128.699916 
L 268.625455 120.134664 
L 276.741818 113.645522 
L 284.858182 108.249066 
L 292.974545 284.76927 
L 301.090909 302.565895 
L 309.207273 201.391923 
L 317.323636 292.700114 
L 325.44 191.710514 
L 333.556364 136.769399 
L 341.672727 120.330146 
L 349.789091 276.259291 
L 357.905455 180.791018 
L 366.021818 282.757914 
L 374.138182 298.057664 
L 382.254545 274.941877 
L 390.370909 183.584672 
" style="fill:none;stroke:#add8e6;stroke-linecap:square;stroke-opacity:0.3;stroke-width:1.5;"/>
   </g>
   <g id="line2d_34">
    <path clip-path="url(#pa24633fa53)" d="M 73.832727 218.88 
L 81.949091 168.329484 
L 90.065455 148.730799 
L 98.181818 295.821361 
L 106.298182 303.045859 
L 114.414545 304.50555 
L 122.530909 202.107723 
L 130.647273 154.207716 
L 138.763636 291.077832 
L 146.88 300.953608 
L 154.996364 302.694748 
L 163.112727 303.452481 
L 171.229091 303.947231 
L 179.345455 304.327263 
L 187.461818 304.637078 
L 195.578182 304.895962 
L 203.694545 209.296317 
L 211.810909 296.00419 
L 219.927273 201.027788 
L 228.043636 292.815549 
L 236.16 276.395442 
L 244.276364 188.188521 
L 252.392727 150.832621 
L 260.509091 284.001048 
L 268.625455 298.148173 
L 276.741818 276.860973 
L 284.858182 186.880964 
L 292.974545 149.777529 
L 301.090909 137.396742 
L 309.207273 278.064895 
L 317.323636 188.43872 
L 325.44 152.839677 
L 333.556364 141.41926 
L 341.672727 136.157434 
L 349.789091 132.387612 
L 357.905455 272.432709 
L 366.021818 183.190016 
L 374.138182 149.38543 
L 382.254545 139.087756 
L 390.370909 134.874277 
" style="fill:none;stroke:#add8e6;stroke-linecap:square;stroke-opacity:0.3;stroke-width:1.5;"/>
   </g>
   <g id="line2d_35">
    <path clip-path="url(#pa24633fa53)" d="M 73.832727 218.88 
L 81.949091 303.882811 
L 90.065455 211.321417 
L 98.181818 301.636568 
L 106.298182 304.568792 
L 114.414545 305.281862 
L 122.530909 224.029921 
L 130.647273 301.267774 
L 138.763636 304.27025 
L 146.88 304.863781 
L 154.996364 227.971252 
L 163.112727 300.570622 
L 171.229091 303.818622 
L 179.345455 304.384226 
L 187.461818 304.692413 
L 195.578182 230.251886 
L 203.694545 300.18467 
L 211.810909 303.625789 
L 219.927273 304.147451 
L 228.043636 288.760265 
L 236.16 284.685569 
L 244.276364 213.940535 
L 252.392727 182.939107 
L 260.509091 295.935354 
L 268.625455 222.622278 
L 276.741818 191.172475 
L 284.858182 179.174232 
L 292.974545 172.554634 
L 301.090909 167.359094 
L 309.207273 162.66276 
L 317.323636 158.260307 
L 325.44 154.104786 
L 333.556364 288.614416 
L 341.672727 299.02367 
L 349.789091 212.579451 
L 357.905455 175.010915 
L 366.021818 162.390629 
L 374.138182 157.127907 
L 382.254545 153.807211 
L 390.370909 284.872361 
" style="fill:none;stroke:#add8e6;stroke-linecap:square;stroke-opacity:0.3;stroke-width:1.5;"/>
   </g>
   <g id="line2d_36">
    <path clip-path="url(#pa24633fa53)" d="M 73.832727 218.88 
L 81.949091 91.159122 
L 90.065455 69.631629 
L 98.181818 62.167567 
L 106.298182 58.689393 
L 114.414545 56.546738 
L 122.530909 54.991691 
L 130.647273 53.774693 
L 138.763636 52.786422 
L 146.88 51.96556 
L 154.996364 72.940322 
L 163.112727 54.574297 
L 171.229091 73.562457 
L 179.345455 254.726888 
L 187.461818 88.487785 
L 195.578182 60.168561 
L 203.694545 79.496824 
L 211.810909 57.320613 
L 219.927273 77.527269 
L 228.043636 56.717681 
L 236.16 76.679449 
L 244.276364 259.543593 
L 252.392727 90.158111 
L 260.509091 61.125575 
L 268.625455 80.663327 
L 276.741818 58.65161 
L 284.858182 79.11139 
L 292.974545 87.186036 
L 301.090909 266.775149 
L 309.207273 93.984224 
L 317.323636 248.001438 
L 325.44 96.295437 
L 333.556364 98.937197 
L 341.672727 99.800762 
L 349.789091 100.221156 
L 357.905455 100.489211 
L 366.021818 100.693065 
L 374.138182 100.8647 
L 382.254545 101.016789 
L 390.370909 101.154796 
" style="fill:none;stroke:#ff0000;stroke-linecap:square;stroke-opacity:0.1;stroke-width:1.5;"/>
   </g>
   <g id="line2d_37">
    <path clip-path="url(#pa24633fa53)" d="M 73.832727 218.88 
L 81.949091 91.159122 
L 90.065455 69.631629 
L 98.181818 62.167567 
L 106.298182 201.165854 
L 114.414545 88.355509 
L 122.530909 71.318 
L 130.647273 197.182139 
L 138.763636 91.834436 
L 146.88 76.079034 
L 154.996364 71.226236 
L 163.112727 68.894237 
L 171.229091 67.278308 
L 179.345455 65.948953 
L 187.461818 64.792163 
L 195.578182 93.215205 
L 203.694545 68.220603 
L 211.810909 93.635757 
L 219.927273 67.81231 
L 228.043636 92.68526 
L 236.16 100.339896 
L 244.276364 221.877792 
L 252.392727 257.418154 
L 260.509091 268.423165 
L 268.625455 274.776776 
L 276.741818 279.633326 
L 284.858182 283.534817 
L 292.974545 286.690777 
L 301.090909 108.103937 
L 309.207273 71.223824 
L 317.323636 208.621505 
L 325.44 264.158847 
L 333.556364 278.714677 
L 341.672727 115.377259 
L 349.789091 222.954219 
L 357.905455 262.75003 
L 366.021818 274.216022 
L 374.138182 278.20075 
L 382.254545 280.355695 
L 390.370909 281.988261 
" style="fill:none;stroke:#ff0000;stroke-linecap:square;stroke-opacity:0.1;stroke-width:1.5;"/>
   </g>
   <g id="line2d_38">
    <path clip-path="url(#pa24633fa53)" d="M 73.832727 218.88 
L 81.949091 91.159122 
L 90.065455 69.631629 
L 98.181818 62.167567 
L 106.298182 58.689393 
L 114.414545 56.546738 
L 122.530909 199.184608 
L 130.647273 84.094185 
L 138.763636 66.144446 
L 146.88 61.194108 
L 154.996364 59.210772 
L 163.112727 57.992273 
L 171.229091 83.399744 
L 179.345455 238.554863 
L 187.461818 89.390461 
L 195.578182 65.655969 
L 203.694545 89.598297 
L 211.810909 64.197489 
L 219.927273 88.214402 
L 228.043636 63.566676 
L 236.16 87.253327 
L 244.276364 243.030141 
L 252.392727 281.193625 
L 260.509091 289.235985 
L 268.625455 293.111866 
L 276.741818 295.800603 
L 284.858182 110.123736 
L 292.974545 67.610128 
L 301.090909 95.561808 
L 309.207273 256.765287 
L 317.323636 292.326772 
L 325.44 297.427101 
L 333.556364 120.35 
L 341.672727 255.303391 
L 349.789091 288.859356 
L 357.905455 294.738083 
L 366.021818 296.486305 
L 374.138182 297.54399 
L 382.254545 298.392856 
L 390.370909 132.720757 
" style="fill:none;stroke:#ff0000;stroke-linecap:square;stroke-opacity:0.1;stroke-width:1.5;"/>
   </g>
   <g id="line2d_39">
    <path clip-path="url(#pa24633fa53)" d="M 73.832727 218.88 
L 81.949091 91.159122 
L 90.065455 222.475285 
L 98.181818 99.206025 
L 106.298182 79.839924 
L 114.414545 204.628157 
L 122.530909 99.96548 
L 130.647273 84.513878 
L 138.763636 197.856118 
L 146.88 102.515135 
L 154.996364 196.71269 
L 163.112727 107.306634 
L 171.229091 94.619877 
L 179.345455 90.414613 
L 187.461818 87.946069 
L 195.578182 189.588295 
L 203.694545 217.243764 
L 211.810909 110.004078 
L 219.927273 96.066405 
L 228.043636 92.445469 
L 236.16 124.578429 
L 244.276364 193.562492 
L 252.392727 108.900974 
L 260.509091 183.657649 
L 268.625455 202.07364 
L 276.741818 206.832361 
L 284.858182 208.79023 
L 292.974545 210.167542 
L 301.090909 211.394639 
L 309.207273 212.554988 
L 317.323636 213.665733 
L 325.44 214.731324 
L 333.556364 215.753781 
L 341.672727 216.734674 
L 349.789091 217.675492 
L 357.905455 120.759999 
L 366.021818 192.703617 
L 374.138182 208.587106 
L 382.254545 212.223635 
L 390.370909 213.410841 
" style="fill:none;stroke:#ff0000;stroke-linecap:square;stroke-opacity:0.1;stroke-width:1.5;"/>
   </g>
   <g id="line2d_40">
    <path clip-path="url(#pa24633fa53)" d="M 73.832727 218.88 
L 81.949091 91.159122 
L 90.065455 69.631629 
L 98.181818 62.167567 
L 106.298182 58.689393 
L 114.414545 56.546738 
L 122.530909 54.991691 
L 130.647273 53.774693 
L 138.763636 52.786422 
L 146.88 51.96556 
L 154.996364 72.940322 
L 163.112727 54.574297 
L 171.229091 73.562457 
L 179.345455 54.382163 
L 187.461818 72.813812 
L 195.578182 53.988843 
L 203.694545 72.0205 
L 211.810909 53.613824 
L 219.927273 71.286297 
L 228.043636 53.270931 
L 236.16 70.61197 
L 244.276364 247.783632 
L 252.392727 290.931684 
L 260.509091 297.170629 
L 268.625455 299.743377 
L 276.741818 301.426617 
L 284.858182 302.599287 
L 292.974545 104.710286 
L 301.090909 259.214043 
L 309.207273 295.659933 
L 317.323636 300.158451 
L 325.44 301.308802 
L 333.556364 119.276207 
L 341.672727 256.152329 
L 349.789091 292.853871 
L 357.905455 123.503972 
L 366.021818 247.042434 
L 374.138182 286.546105 
L 382.254545 294.274258 
L 390.370909 296.145221 
" style="fill:none;stroke:#ff0000;stroke-linecap:square;stroke-opacity:0.1;stroke-width:1.5;"/>
   </g>
   <g id="line2d_41">
    <path clip-path="url(#pa24633fa53)" d="M 73.832727 218.88 
L 81.949091 91.159122 
L 90.065455 222.475285 
L 98.181818 99.206025 
L 106.298182 79.839924 
L 114.414545 72.713823 
L 122.530909 201.641226 
L 130.647273 242.505762 
L 138.763636 105.935127 
L 146.88 85.663968 
L 154.996364 79.46376 
L 163.112727 76.383822 
L 171.229091 74.20199 
L 179.345455 72.397133 
L 187.461818 70.828878 
L 195.578182 202.585901 
L 203.694545 94.661216 
L 211.810909 78.123594 
L 219.927273 74.177208 
L 228.043636 105.976079 
L 236.16 115.628436 
L 244.276364 79.100699 
L 252.392727 107.194363 
L 260.509091 77.378222 
L 268.625455 105.854913 
L 276.741818 223.124889 
L 284.858182 254.672729 
L 292.974545 264.184389 
L 301.090909 269.559143 
L 309.207273 273.779393 
L 317.323636 109.020699 
L 325.44 221.615177 
L 333.556364 257.173535 
L 341.672727 267.259354 
L 349.789091 115.462724 
L 357.905455 83.574894 
L 366.021818 119.663882 
L 374.138182 228.159755 
L 382.254545 260.123985 
L 390.370909 268.925372 
" style="fill:none;stroke:#ff0000;stroke-linecap:square;stroke-opacity:0.1;stroke-width:1.5;"/>
   </g>
   <g id="line2d_42">
    <path clip-path="url(#pa24633fa53)" d="M 73.832727 218.88 
L 81.949091 91.159122 
L 90.065455 222.475285 
L 98.181818 257.404581 
L 106.298182 266.669835 
L 114.414545 112.263149 
L 122.530909 86.829586 
L 130.647273 78.083229 
L 138.763636 73.548214 
L 146.88 70.416959 
L 154.996364 67.951279 
L 163.112727 65.912755 
L 171.229091 64.191587 
L 179.345455 62.719505 
L 187.461818 214.478205 
L 195.578182 92.24458 
L 203.694545 71.114212 
L 211.810909 66.330129 
L 219.927273 206.568705 
L 228.043636 93.31938 
L 236.16 112.439362 
L 244.276364 229.37171 
L 252.392727 263.489552 
L 260.509091 109.436672 
L 268.625455 219.246842 
L 276.741818 254.70795 
L 284.858182 264.921095 
L 292.974545 269.471186 
L 301.090909 272.660948 
L 309.207273 275.343528 
L 317.323636 277.706068 
L 325.44 279.808898 
L 333.556364 281.686536 
L 341.672727 283.366454 
L 349.789091 284.872566 
L 357.905455 286.225949 
L 366.021818 287.445124 
L 374.138182 288.54629 
L 382.254545 289.543566 
L 390.370909 290.449235 
" style="fill:none;stroke:#ff0000;stroke-linecap:square;stroke-opacity:0.1;stroke-width:1.5;"/>
   </g>
   <g id="line2d_43">
    <path clip-path="url(#pa24633fa53)" d="M 73.832727 218.88 
L 81.949091 91.159122 
L 90.065455 222.475285 
L 98.181818 99.206025 
L 106.298182 79.839924 
L 114.414545 204.628157 
L 122.530909 99.96548 
L 130.647273 84.513878 
L 138.763636 79.003889 
L 146.88 75.916197 
L 154.996364 73.630932 
L 163.112727 71.733051 
L 171.229091 70.094721 
L 179.345455 68.659213 
L 187.461818 67.390747 
L 195.578182 66.26248 
L 203.694545 96.327872 
L 211.810909 69.718208 
L 219.927273 96.60672 
L 228.043636 69.224758 
L 236.16 95.575233 
L 244.276364 68.57901 
L 252.392727 94.557075 
L 260.509091 102.062544 
L 268.625455 236.806789 
L 276.741818 88.775012 
L 284.858182 102.997678 
L 292.974545 106.800987 
L 301.090909 239.913403 
L 309.207273 92.036565 
L 317.323636 105.972731 
L 325.44 109.730347 
L 333.556364 110.797451 
L 341.672727 111.148804 
L 349.789091 111.30803 
L 357.905455 111.412732 
L 366.021818 111.498811 
L 374.138182 111.575804 
L 382.254545 111.646501 
L 390.370909 111.711972 
" style="fill:none;stroke:#ff0000;stroke-linecap:square;stroke-opacity:0.1;stroke-width:1.5;"/>
   </g>
   <g id="line2d_44">
    <path clip-path="url(#pa24633fa53)" d="M 73.832727 218.88 
L 81.949091 91.159122 
L 90.065455 69.631629 
L 98.181818 62.167567 
L 106.298182 58.689393 
L 114.414545 199.382514 
L 122.530909 255.971292 
L 130.647273 99.763301 
L 138.763636 74.152245 
L 146.88 67.043314 
L 154.996364 64.206141 
L 163.112727 62.488641 
L 171.229091 61.159517 
L 179.345455 60.03595 
L 187.461818 59.058321 
L 195.578182 86.690881 
L 203.694545 62.53049 
L 211.810909 87.345246 
L 219.927273 62.22606 
L 228.043636 86.450325 
L 236.16 95.398591 
L 244.276364 234.508524 
L 252.392727 273.827085 
L 260.509091 283.393276 
L 268.625455 288.028973 
L 276.741818 291.289472 
L 284.858182 293.769308 
L 292.974545 295.696694 
L 301.090909 297.217994 
L 309.207273 298.436728 
L 317.323636 299.427139 
L 325.44 300.24289 
L 333.556364 116.360768 
L 341.672727 253.208839 
L 349.789091 291.023329 
L 357.905455 119.832448 
L 366.021818 245.905364 
L 374.138182 285.570987 
L 382.254545 293.592564 
L 390.370909 295.545966 
" style="fill:none;stroke:#ff0000;stroke-linecap:square;stroke-opacity:0.1;stroke-width:1.5;"/>
   </g>
   <g id="line2d_45">
    <path clip-path="url(#pa24633fa53)" d="M 73.832727 218.88 
L 81.949091 91.159122 
L 90.065455 69.631629 
L 98.181818 62.167567 
L 106.298182 58.689393 
L 114.414545 199.382514 
L 122.530909 85.864052 
L 130.647273 68.416738 
L 138.763636 63.274444 
L 146.88 61.042779 
L 154.996364 59.613929 
L 163.112727 58.487524 
L 171.229091 57.531774 
L 179.345455 82.542193 
L 187.461818 60.659438 
L 195.578182 83.134359 
L 203.694545 240.119692 
L 211.810909 87.502534 
L 219.927273 64.089967 
L 228.043636 86.909674 
L 236.16 95.13568 
L 244.276364 250.337748 
L 252.392727 284.762247 
L 260.509091 291.775334 
L 268.625455 104.442599 
L 276.741818 243.043087 
L 284.858182 281.455885 
L 292.974545 289.311918 
L 301.090909 292.350011 
L 309.207273 119.351682 
L 317.323636 243.351205 
L 325.44 280.397391 
L 333.556364 288.412371 
L 341.672727 127.280763 
L 349.789091 239.41466 
L 357.905455 275.638599 
L 366.021818 284.435238 
L 374.138182 287.249536 
L 382.254545 288.812667 
L 390.370909 290.03659 
" style="fill:none;stroke:#ff0000;stroke-linecap:square;stroke-opacity:0.1;stroke-width:1.5;"/>
   </g>
   <g id="line2d_46">
    <path clip-path="url(#pa24633fa53)" d="M 73.832727 218.88 
L 81.949091 275.925031 
L 90.065455 286.335029 
L 98.181818 290.466779 
L 106.298182 293.26266 
L 114.414545 121.149637 
L 122.530909 81.657513 
L 130.647273 69.630957 
L 138.763636 64.479679 
L 146.88 61.39448 
L 154.996364 59.171593 
L 163.112727 57.441395 
L 171.229091 56.045394 
L 179.345455 54.893746 
L 187.461818 228.821648 
L 195.578182 95.449924 
L 203.694545 65.533028 
L 211.810909 59.081287 
L 219.927273 57.214734 
L 228.043636 87.86009 
L 236.16 103.626455 
L 244.276364 260.179865 
L 252.392727 293.174509 
L 260.509091 297.736901 
L 268.625455 299.309297 
L 276.741818 300.388046 
L 284.858182 301.240371 
L 292.974545 301.933704 
L 301.090909 302.506154 
L 309.207273 302.984568 
L 317.323636 303.388754 
L 325.44 303.733603 
L 333.556364 304.030469 
L 341.672727 304.288118 
L 349.789091 304.513399 
L 357.905455 304.711721 
L 366.021818 304.887399 
L 374.138182 305.043911 
L 382.254545 305.184083 
L 390.370909 305.310232 
" style="fill:none;stroke:#ff0000;stroke-linecap:square;stroke-opacity:0.1;stroke-width:1.5;"/>
   </g>
   <g id="line2d_47">
    <path clip-path="url(#pa24633fa53)" d="M 73.832727 218.88 
L 81.949091 91.159122 
L 90.065455 69.631629 
L 98.181818 62.167567 
L 106.298182 58.689393 
L 114.414545 56.546738 
L 122.530909 54.991691 
L 130.647273 199.773662 
L 138.763636 262.762238 
L 146.88 97.843709 
L 154.996364 217.683527 
L 163.112727 95.276365 
L 171.229091 72.86156 
L 179.345455 192.3625 
L 187.461818 92.943633 
L 195.578182 194.895235 
L 203.694545 97.588332 
L 211.810909 80.1797 
L 219.927273 75.490243 
L 228.043636 73.501821 
L 236.16 104.131933 
L 244.276364 209.531534 
L 252.392727 243.361707 
L 260.509091 253.923606 
L 268.625455 109.017436 
L 276.741818 205.563404 
L 284.858182 103.560018 
L 292.974545 196.278901 
L 301.090909 105.055732 
L 309.207273 124.053706 
L 317.323636 205.22607 
L 325.44 108.296467 
L 333.556364 126.332323 
L 341.672727 131.569271 
L 349.789091 133.138547 
L 357.905455 208.850679 
L 366.021818 229.812582 
L 374.138182 236.08182 
L 382.254545 238.9932 
L 390.370909 241.112444 
" style="fill:none;stroke:#ff0000;stroke-linecap:square;stroke-opacity:0.1;stroke-width:1.5;"/>
   </g>
   <g id="line2d_48">
    <path clip-path="url(#pa24633fa53)" d="M 73.832727 218.88 
L 81.949091 91.159122 
L 90.065455 69.631629 
L 98.181818 62.167567 
L 106.298182 58.689393 
L 114.414545 56.546738 
L 122.530909 54.991691 
L 130.647273 53.774693 
L 138.763636 52.786422 
L 146.88 51.96556 
L 154.996364 72.940322 
L 163.112727 255.854112 
L 171.229091 90.344005 
L 179.345455 61.240002 
L 187.461818 55.157259 
L 195.578182 77.11912 
L 203.694545 56.986248 
L 211.810909 77.360098 
L 219.927273 56.728889 
L 228.043636 76.658697 
L 236.16 84.896933 
L 244.276364 57.617116 
L 252.392727 76.989597 
L 260.509091 84.528783 
L 268.625455 267.208652 
L 276.741818 296.670523 
L 284.858182 98.103378 
L 292.974545 254.216152 
L 301.090909 290.404447 
L 309.207273 296.066193 
L 317.323636 298.261343 
L 325.44 115.994653 
L 333.556364 253.966422 
L 341.672727 289.575333 
L 349.789091 295.505641 
L 357.905455 297.30738 
L 366.021818 298.436826 
L 374.138182 299.337962 
L 382.254545 130.643816 
L 390.370909 257.234623 
" style="fill:none;stroke:#ff0000;stroke-linecap:square;stroke-opacity:0.1;stroke-width:1.5;"/>
   </g>
   <g id="line2d_49">
    <path clip-path="url(#pa24633fa53)" d="M 73.832727 218.88 
L 81.949091 91.159122 
L 90.065455 69.631629 
L 98.181818 206.787089 
L 106.298182 92.238869 
L 114.414545 75.108863 
L 122.530909 69.172031 
L 130.647273 197.620512 
L 138.763636 92.62029 
L 146.88 77.144604 
L 154.996364 72.365062 
L 163.112727 70.019294 
L 171.229091 68.366954 
L 179.345455 66.998534 
L 187.461818 196.24946 
L 195.578182 89.619586 
L 203.694545 74.153039 
L 211.810909 101.107591 
L 219.927273 74.599323 
L 228.043636 100.42961 
L 236.16 107.900229 
L 244.276364 213.320415 
L 252.392727 244.636319 
L 260.509091 255.140459 
L 268.625455 261.472762 
L 276.741818 266.580335 
L 284.858182 270.957712 
L 292.974545 274.732556 
L 301.090909 277.982747 
L 309.207273 280.778696 
L 317.323636 283.185948 
L 325.44 285.263479 
L 333.556364 287.062698 
L 341.672727 288.627448 
L 349.789091 289.994587 
L 357.905455 291.194853 
L 366.021818 292.253767 
L 374.138182 119.20035 
L 382.254545 238.27005 
L 390.370909 104.506157 
" style="fill:none;stroke:#ff0000;stroke-linecap:square;stroke-opacity:0.1;stroke-width:1.5;"/>
   </g>
   <g id="line2d_50">
    <path clip-path="url(#pa24633fa53)" d="M 73.832727 218.88 
L 81.949091 91.159122 
L 90.065455 69.631629 
L 98.181818 62.167567 
L 106.298182 58.689393 
L 114.414545 56.546738 
L 122.530909 199.184608 
L 130.647273 84.094185 
L 138.763636 207.655441 
L 146.88 250.274844 
L 154.996364 100.796087 
L 163.112727 76.040852 
L 171.229091 69.459829 
L 179.345455 191.184211 
L 187.461818 92.200195 
L 195.578182 75.956858 
L 203.694545 71.608729 
L 211.810909 69.737954 
L 219.927273 100.33474 
L 228.043636 73.643701 
L 236.16 100.943824 
L 244.276364 216.414472 
L 252.392727 251.98398 
L 260.509091 262.709306 
L 268.625455 268.387809 
L 276.741818 272.724235 
L 284.858182 276.369812 
L 292.974545 279.48811 
L 301.090909 113.297298 
L 309.207273 225.199303 
L 317.323636 262.838191 
L 325.44 273.050982 
L 333.556364 276.791931 
L 341.672727 279.039694 
L 349.789091 280.83788 
L 357.905455 282.413111 
L 366.021818 123.192093 
L 374.138182 229.789617 
L 382.254545 266.030414 
L 390.370909 275.78133 
" style="fill:none;stroke:#ff0000;stroke-linecap:square;stroke-opacity:0.1;stroke-width:1.5;"/>
   </g>
   <g id="line2d_51">
    <path clip-path="url(#pa24633fa53)" d="M 73.832727 218.88 
L 81.949091 91.159122 
L 90.065455 222.475285 
L 98.181818 99.206025 
L 106.298182 214.844008 
L 114.414545 105.089056 
L 122.530909 207.394636 
L 130.647273 110.028864 
L 138.763636 95.731251 
L 146.88 90.27316 
L 154.996364 86.896908 
L 163.112727 84.250067 
L 171.229091 81.988369 
L 179.345455 80.002593 
L 187.461818 78.241043 
L 195.578182 76.668926 
L 203.694545 75.258907 
L 211.810909 204.519811 
L 219.927273 96.920987 
L 228.043636 81.794584 
L 236.16 111.806462 
L 244.276364 119.678514 
L 252.392727 224.381421 
L 260.509091 100.424053 
L 268.625455 119.063944 
L 276.741818 123.520492 
L 284.858182 124.651181 
L 292.974545 124.999736 
L 301.090909 125.161162 
L 309.207273 125.273087 
L 317.323636 125.36733 
L 325.44 125.45167 
L 333.556364 125.528468 
L 341.672727 125.598827 
L 349.789091 125.663499 
L 357.905455 125.723097 
L 366.021818 125.778145 
L 374.138182 125.829101 
L 382.254545 125.876364 
L 390.370909 125.920285 
" style="fill:none;stroke:#ff0000;stroke-linecap:square;stroke-opacity:0.1;stroke-width:1.5;"/>
   </g>
   <g id="line2d_52">
    <path clip-path="url(#pa24633fa53)" d="M 73.832727 218.88 
L 81.949091 91.159122 
L 90.065455 69.631629 
L 98.181818 62.167567 
L 106.298182 201.165854 
L 114.414545 88.355509 
L 122.530909 71.318 
L 130.647273 65.889795 
L 138.763636 63.32744 
L 146.88 61.622403 
L 154.996364 60.27245 
L 163.112727 59.134192 
L 171.229091 199.916029 
L 179.345455 84.665906 
L 187.461818 67.099243 
L 195.578182 91.736565 
L 203.694545 66.812658 
L 211.810909 90.829179 
L 219.927273 66.230433 
L 228.043636 89.88158 
L 236.16 97.574722 
L 244.276364 226.968778 
L 252.392727 264.263808 
L 260.509091 275.022709 
L 268.625455 280.941636 
L 276.741818 285.308471 
L 284.858182 288.705511 
L 292.974545 291.37783 
L 301.090909 109.838297 
L 309.207273 235.78302 
L 317.323636 277.043758 
L 325.44 113.678107 
L 333.556364 227.618676 
L 341.672727 268.715452 
L 349.789091 279.682247 
L 357.905455 283.309177 
L 366.021818 285.267598 
L 374.138182 286.758985 
L 382.254545 288.041973 
L 390.370909 289.182773 
" style="fill:none;stroke:#ff0000;stroke-linecap:square;stroke-opacity:0.1;stroke-width:1.5;"/>
   </g>
   <g id="line2d_53">
    <path clip-path="url(#pa24633fa53)" d="M 73.832727 218.88 
L 81.949091 91.159122 
L 90.065455 69.631629 
L 98.181818 62.167567 
L 106.298182 58.689393 
L 114.414545 56.546738 
L 122.530909 54.991691 
L 130.647273 53.774693 
L 138.763636 200.822775 
L 146.88 266.141503 
L 154.996364 97.311631 
L 163.112727 67.684632 
L 171.229091 60.638865 
L 179.345455 58.426857 
L 187.461818 85.0004 
L 195.578182 61.726125 
L 203.694545 85.730837 
L 211.810909 235.72563 
L 219.927273 278.892201 
L 228.043636 100.99529 
L 236.16 108.301394 
L 244.276364 243.241537 
L 252.392727 279.022081 
L 260.509091 286.813564 
L 268.625455 290.212194 
L 276.741818 292.601982 
L 284.858182 294.488577 
L 292.974545 120.233926 
L 301.090909 71.636418 
L 309.207273 220.036394 
L 317.323636 99.413891 
L 325.44 226.792324 
L 333.556364 272.78762 
L 341.672727 283.813959 
L 349.789091 130.311328 
L 357.905455 234.759398 
L 366.021818 114.493089 
L 374.138182 80.125375 
L 382.254545 115.316416 
L 390.370909 230.40735 
" style="fill:none;stroke:#ff0000;stroke-linecap:square;stroke-opacity:0.1;stroke-width:1.5;"/>
   </g>
   <g id="line2d_54">
    <path clip-path="url(#pa24633fa53)" d="M 73.832727 218.88 
L 81.949091 275.925031 
L 90.065455 286.335029 
L 98.181818 115.74679 
L 106.298182 81.955544 
L 114.414545 70.991324 
L 122.530909 223.962429 
L 130.647273 270.035193 
L 138.763636 119.379292 
L 146.88 87.703296 
L 154.996364 78.398716 
L 163.112727 74.368743 
L 171.229091 71.794694 
L 179.345455 69.771975 
L 187.461818 68.062266 
L 195.578182 66.580778 
L 203.694545 219.524372 
L 211.810909 101.239595 
L 219.927273 226.016931 
L 228.043636 107.78859 
L 236.16 124.99932 
L 244.276364 235.26451 
L 252.392727 266.030091 
L 260.509091 122.760911 
L 268.625455 89.054999 
L 276.741818 121.594696 
L 284.858182 235.431363 
L 292.974545 266.188053 
L 301.090909 274.121927 
L 309.207273 129.669466 
L 317.323636 232.046383 
L 325.44 261.684118 
L 333.556364 269.687613 
L 341.672727 272.941963 
L 349.789091 275.118937 
L 357.905455 136.874096 
L 366.021818 233.365282 
L 374.138182 261.777305 
L 382.254545 269.416252 
L 390.370909 272.208382 
" style="fill:none;stroke:#ff0000;stroke-linecap:square;stroke-opacity:0.1;stroke-width:1.5;"/>
   </g>
   <g id="line2d_55">
    <path clip-path="url(#pa24633fa53)" d="M 73.832727 218.88 
L 81.949091 91.159122 
L 90.065455 222.475285 
L 98.181818 99.206025 
L 106.298182 79.839924 
L 114.414545 72.713823 
L 122.530909 201.641226 
L 130.647273 96.561173 
L 138.763636 80.894659 
L 146.88 75.744253 
L 154.996364 195.884941 
L 163.112727 97.149478 
L 171.229091 82.733849 
L 179.345455 78.505619 
L 187.461818 76.382569 
L 195.578182 192.416166 
L 203.694545 96.453645 
L 211.810909 82.796812 
L 219.927273 79.327775 
L 228.043636 109.148409 
L 236.16 117.138912 
L 244.276364 210.389661 
L 252.392727 236.401044 
L 260.509091 103.361607 
L 268.625455 197.588165 
L 276.741818 225.535846 
L 284.858182 234.214618 
L 292.974545 238.621159 
L 301.090909 242.019049 
L 309.207273 245.06884 
L 317.323636 247.907271 
L 325.44 250.566243 
L 333.556364 115.344609 
L 341.672727 91.72356 
L 349.789091 198.525674 
L 357.905455 232.31218 
L 366.021818 242.204708 
L 374.138182 245.970951 
L 382.254545 248.209255 
L 390.370909 120.367045 
" style="fill:none;stroke:#ff0000;stroke-linecap:square;stroke-opacity:0.1;stroke-width:1.5;"/>
   </g>
   <g id="line2d_56">
    <path clip-path="url(#pa24633fa53)" d="M 73.832727 218.88 
L 81.949091 290.327478 
L 90.065455 261.8155 
L 98.181818 285.340641 
L 106.298182 276.738793 
L 114.414545 287.907629 
L 122.530909 273.333444 
L 130.647273 279.21887 
L 138.763636 285.610094 
L 146.88 291.874867 
L 154.996364 291.518331 
L 163.112727 299.460835 
L 171.229091 300.282443 
L 179.345455 286.905661 
L 187.461818 290.349421 
L 195.578182 286.744209 
L 203.694545 287.318275 
L 211.810909 292.410486 
L 219.927273 285.228717 
L 228.043636 298.489404 
L 236.16 289.390867 
L 244.276364 221.51268 
L 252.392727 194.953364 
L 260.509091 206.275195 
L 268.625455 196.359757 
L 276.741818 176.935065 
L 284.858182 183.79727 
L 292.974545 187.517737 
L 301.090909 196.588339 
L 309.207273 196.443934 
L 317.323636 175.556398 
L 325.44 181.274216 
L 333.556364 196.458853 
L 341.672727 187.81843 
L 349.789091 178.654208 
L 357.905455 192.016621 
L 366.021818 181.369275 
L 374.138182 172.805053 
L 382.254545 166.948462 
L 390.370909 175.717376 
" style="fill:none;stroke:#1f77b4;stroke-linecap:square;stroke-width:1.5;"/>
   </g>
   <g id="line2d_57">
    <path clip-path="url(#pa24633fa53)" d="M 73.832727 218.88 
L 81.949091 109.635713 
L 90.065455 137.155066 
L 98.181818 102.51393 
L 106.298182 109.943343 
L 114.414545 100.52946 
L 122.530909 121.501431 
L 130.647273 112.390311 
L 138.763636 104.889062 
L 146.88 91.195521 
L 154.996364 92.980881 
L 163.112727 80.778333 
L 171.229091 78.687599 
L 179.345455 99.421671 
L 187.461818 95.80018 
L 195.578182 100.785218 
L 203.694545 100.049163 
L 211.810909 93.518456 
L 219.927273 100.81658 
L 228.043636 85.11343 
L 236.16 101.748028 
L 244.276364 201.015087 
L 252.392727 221.633871 
L 260.509091 200.304048 
L 268.625455 214.3503 
L 276.741818 231.688648 
L 284.858182 220.484935 
L 292.974545 216.495003 
L 301.090909 211.238715 
L 309.207273 208.702471 
L 317.323636 231.646534 
L 325.44 221.511393 
L 333.556364 207.330668 
L 341.672727 216.076313 
L 349.789091 223.896857 
L 357.905455 208.819081 
L 366.021818 220.489068 
L 374.138182 228.13802 
L 382.254545 232.798217 
L 390.370909 225.205982 
" style="fill:none;stroke:#ff0000;stroke-linecap:square;stroke-width:1.5;"/>
   </g>
   <g id="patch_5">
    <path d="M 57.6 307.584 
L 57.6 41.472 
" style="fill:none;stroke:#000000;stroke-linecap:square;stroke-linejoin:miter;stroke-width:0.8;"/>
   </g>
   <g id="patch_6">
    <path d="M 414.72 307.584 
L 414.72 41.472 
" style="fill:none;stroke:#000000;stroke-linecap:square;stroke-linejoin:miter;stroke-width:0.8;"/>
   </g>
   <g id="patch_7">
    <path d="M 57.6 307.584 
L 414.72 307.584 
" style="fill:none;stroke:#000000;stroke-linecap:square;stroke-linejoin:miter;stroke-width:0.8;"/>
   </g>
   <g id="patch_8">
    <path d="M 57.6 41.472 
L 414.72 41.472 
" style="fill:none;stroke:#000000;stroke-linecap:square;stroke-linejoin:miter;stroke-width:0.8;"/>
   </g>
   <g id="text_18">
    <!-- biased_B -->
    <g transform="translate(209.264062 35.472)scale(0.12 -0.12)">
     <defs>
      <path d="M 3116 1747 
Q 3116 2381 2855 2742 
Q 2594 3103 2138 3103 
Q 1681 3103 1420 2742 
Q 1159 2381 1159 1747 
Q 1159 1113 1420 752 
Q 1681 391 2138 391 
Q 2594 391 2855 752 
Q 3116 1113 3116 1747 
z
M 1159 2969 
Q 1341 3281 1617 3432 
Q 1894 3584 2278 3584 
Q 2916 3584 3314 3078 
Q 3713 2572 3713 1747 
Q 3713 922 3314 415 
Q 2916 -91 2278 -91 
Q 1894 -91 1617 61 
Q 1341 213 1159 525 
L 1159 0 
L 581 0 
L 581 4863 
L 1159 4863 
L 1159 2969 
z
" id="DejaVuSans-62" transform="scale(0.015625)"/>
      <path d="M 603 3500 
L 1178 3500 
L 1178 0 
L 603 0 
L 603 3500 
z
M 603 4863 
L 1178 4863 
L 1178 4134 
L 603 4134 
L 603 4863 
z
" id="DejaVuSans-69" transform="scale(0.015625)"/>
      <path d="M 2194 1759 
Q 1497 1759 1228 1600 
Q 959 1441 959 1056 
Q 959 750 1161 570 
Q 1363 391 1709 391 
Q 2188 391 2477 730 
Q 2766 1069 2766 1631 
L 2766 1759 
L 2194 1759 
z
M 3341 1997 
L 3341 0 
L 2766 0 
L 2766 531 
Q 2569 213 2275 61 
Q 1981 -91 1556 -91 
Q 1019 -91 701 211 
Q 384 513 384 1019 
Q 384 1609 779 1909 
Q 1175 2209 1959 2209 
L 2766 2209 
L 2766 2266 
Q 2766 2663 2505 2880 
Q 2244 3097 1772 3097 
Q 1472 3097 1187 3025 
Q 903 2953 641 2809 
L 641 3341 
Q 956 3463 1253 3523 
Q 1550 3584 1831 3584 
Q 2591 3584 2966 3190 
Q 3341 2797 3341 1997 
z
" id="DejaVuSans-61" transform="scale(0.015625)"/>
      <path d="M 2834 3397 
L 2834 2853 
Q 2591 2978 2328 3040 
Q 2066 3103 1784 3103 
Q 1356 3103 1142 2972 
Q 928 2841 928 2578 
Q 928 2378 1081 2264 
Q 1234 2150 1697 2047 
L 1894 2003 
Q 2506 1872 2764 1633 
Q 3022 1394 3022 966 
Q 3022 478 2636 193 
Q 2250 -91 1575 -91 
Q 1294 -91 989 -36 
Q 684 19 347 128 
L 347 722 
Q 666 556 975 473 
Q 1284 391 1588 391 
Q 1994 391 2212 530 
Q 2431 669 2431 922 
Q 2431 1156 2273 1281 
Q 2116 1406 1581 1522 
L 1381 1569 
Q 847 1681 609 1914 
Q 372 2147 372 2553 
Q 372 3047 722 3315 
Q 1072 3584 1716 3584 
Q 2034 3584 2315 3537 
Q 2597 3491 2834 3397 
z
" id="DejaVuSans-73" transform="scale(0.015625)"/>
      <path d="M 2906 2969 
L 2906 4863 
L 3481 4863 
L 3481 0 
L 2906 0 
L 2906 525 
Q 2725 213 2448 61 
Q 2172 -91 1784 -91 
Q 1150 -91 751 415 
Q 353 922 353 1747 
Q 353 2572 751 3078 
Q 1150 3584 1784 3584 
Q 2172 3584 2448 3432 
Q 2725 3281 2906 2969 
z
M 947 1747 
Q 947 1113 1208 752 
Q 1469 391 1925 391 
Q 2381 391 2643 752 
Q 2906 1113 2906 1747 
Q 2906 2381 2643 2742 
Q 2381 3103 1925 3103 
Q 1469 3103 1208 2742 
Q 947 2381 947 1747 
z
" id="DejaVuSans-64" transform="scale(0.015625)"/>
      <path d="M 3263 -1063 
L 3263 -1509 
L -63 -1509 
L -63 -1063 
L 3263 -1063 
z
" id="DejaVuSans-5f" transform="scale(0.015625)"/>
      <path d="M 1259 2228 
L 1259 519 
L 2272 519 
Q 2781 519 3026 730 
Q 3272 941 3272 1375 
Q 3272 1813 3026 2020 
Q 2781 2228 2272 2228 
L 1259 2228 
z
M 1259 4147 
L 1259 2741 
L 2194 2741 
Q 2656 2741 2882 2914 
Q 3109 3088 3109 3444 
Q 3109 3797 2882 3972 
Q 2656 4147 2194 4147 
L 1259 4147 
z
M 628 4666 
L 2241 4666 
Q 2963 4666 3353 4366 
Q 3744 4066 3744 3513 
Q 3744 3084 3544 2831 
Q 3344 2578 2956 2516 
Q 3422 2416 3680 2098 
Q 3938 1781 3938 1306 
Q 3938 681 3513 340 
Q 3088 0 2303 0 
L 628 0 
L 628 4666 
z
" id="DejaVuSans-42" transform="scale(0.015625)"/>
     </defs>
     <use xlink:href="#DejaVuSans-62"/>
     <use x="63.476562" xlink:href="#DejaVuSans-69"/>
     <use x="91.259766" xlink:href="#DejaVuSans-61"/>
     <use x="152.539062" xlink:href="#DejaVuSans-73"/>
     <use x="204.638672" xlink:href="#DejaVuSans-65"/>
     <use x="266.162109" xlink:href="#DejaVuSans-64"/>
     <use x="329.638672" xlink:href="#DejaVuSans-5f"/>
     <use x="379.638672" xlink:href="#DejaVuSans-42"/>
    </g>
   </g>
   <g id="legend_1">
    <g id="patch_9">
     <path d="M 351.635625 78.82825 
L 407.72 78.82825 
Q 409.72 78.82825 409.72 76.82825 
L 409.72 48.472 
Q 409.72 46.472 407.72 46.472 
L 351.635625 46.472 
Q 349.635625 46.472 349.635625 48.472 
L 349.635625 76.82825 
Q 349.635625 78.82825 351.635625 78.82825 
z
" style="fill:#ffffff;opacity:0.8;stroke:#cccccc;stroke-linejoin:miter;"/>
    </g>
    <g id="line2d_58">
     <path d="M 353.635625 54.570437 
L 373.635625 54.570437 
" style="fill:none;stroke:#1f77b4;stroke-linecap:square;stroke-width:1.5;"/>
    </g>
    <g id="line2d_59"/>
    <g id="text_19">
     <!-- coop -->
     <g transform="translate(381.635625 58.070437)scale(0.1 -0.1)">
      <use xlink:href="#DejaVuSans-63"/>
      <use x="54.980469" xlink:href="#DejaVuSans-6f"/>
      <use x="116.162109" xlink:href="#DejaVuSans-6f"/>
      <use x="177.34375" xlink:href="#DejaVuSans-70"/>
     </g>
    </g>
    <g id="line2d_60">
     <path d="M 353.635625 69.248562 
L 373.635625 69.248562 
" style="fill:none;stroke:#ff0000;stroke-linecap:square;stroke-width:1.5;"/>
    </g>
    <g id="line2d_61"/>
    <g id="text_20">
     <!-- host -->
     <g transform="translate(381.635625 72.748562)scale(0.1 -0.1)">
      <defs>
       <path d="M 3513 2113 
L 3513 0 
L 2938 0 
L 2938 2094 
Q 2938 2591 2744 2837 
Q 2550 3084 2163 3084 
Q 1697 3084 1428 2787 
Q 1159 2491 1159 1978 
L 1159 0 
L 581 0 
L 581 4863 
L 1159 4863 
L 1159 2956 
Q 1366 3272 1645 3428 
Q 1925 3584 2291 3584 
Q 2894 3584 3203 3211 
Q 3513 2838 3513 2113 
z
" id="DejaVuSans-68" transform="scale(0.015625)"/>
      </defs>
      <use xlink:href="#DejaVuSans-68"/>
      <use x="63.378906" xlink:href="#DejaVuSans-6f"/>
      <use x="124.560547" xlink:href="#DejaVuSans-73"/>
      <use x="176.660156" xlink:href="#DejaVuSans-74"/>
     </g>
    </g>
   </g>
  </g>
 </g>
 <defs>
  <clipPath id="pa24633fa53">
   <rect height="266.112" width="357.12" x="57.6" y="41.472"/>
  </clipPath>
 </defs>
</svg>
