<?xml version="1.0" encoding="utf-8" standalone="no"?>
<!DOCTYPE svg PUBLIC "-//W3C//DTD SVG 1.1//EN"
  "http://www.w3.org/Graphics/SVG/1.1/DTD/svg11.dtd">
<svg xmlns:xlink="http://www.w3.org/1999/xlink" width="720pt" height="288pt" viewBox="0 0 720 288" xmlns="http://www.w3.org/2000/svg" version="1.1">
 <metadata>
  <rdf:RDF xmlns:dc="http://purl.org/dc/elements/1.1/" xmlns:cc="http://creativecommons.org/ns#" xmlns:rdf="http://www.w3.org/1999/02/22-rdf-syntax-ns#">
   <cc:Work>
    <dc:type rdf:resource="http://purl.org/dc/dcmitype/StillImage"/>
    <dc:date>2024-07-12T11:44:50.494254</dc:date>
    <dc:format>image/svg+xml</dc:format>
    <dc:creator>
     <cc:Agent>
      <dc:title>Matplotlib v3.7.2, https://matplotlib.org/</dc:title>
     </cc:Agent>
    </dc:creator>
   </cc:Work>
  </rdf:RDF>
 </metadata>
 <defs>
  <style type="text/css">*{stroke-linejoin: round; stroke-linecap: butt}</style>
 </defs>
 <g id="figure_1">
  <g id="patch_1">
   <path d="M 0 288 
L 720 288 
L 720 0 
L 0 0 
z
" style="fill: #ffffff"/>
  </g>
  <g id="axes_1">
   <g id="patch_2">
    <path d="M 90 256.32 
L 254.117647 256.32 
L 254.117647 34.56 
L 90 34.56 
z
" style="fill: #ffffff"/>
   </g>
   <g id="PolyCollection_1">
    <defs>
     <path id="mf82a591a9b" d="M 173.211392 -130.782024 
L 170.906255 -130.782024 
L 170.64185 -132.297817 
L 170.33414 -133.813609 
L 169.980301 -135.329402 
L 169.578272 -136.845194 
L 169.126933 -138.360987 
L 168.626263 -139.876779 
L 168.077442 -141.392572 
L 167.482915 -142.908364 
L 166.846372 -144.424157 
L 166.172669 -145.939949 
L 165.467668 -147.455742 
L 164.738022 -148.971534 
L 163.990899 -150.487327 
L 163.233675 -152.003119 
L 162.473622 -153.518912 
L 161.717602 -155.034704 
L 160.971802 -156.550497 
L 160.241521 -158.066289 
L 159.531036 -159.582082 
L 158.843535 -161.097874 
L 158.181125 -162.613667 
L 157.544898 -164.129459 
L 156.93503 -165.645252 
L 156.350888 -167.161044 
L 155.791114 -168.676837 
L 155.253653 -170.192629 
L 154.735704 -171.708422 
L 154.233572 -173.224214 
L 153.742432 -174.740007 
L 153.256005 -176.255799 
L 152.766179 -177.771592 
L 152.262623 -179.287384 
L 151.732444 -180.803177 
L 151.159952 -182.318969 
L 150.526602 -183.834762 
L 149.81117 -185.350554 
L 148.990214 -186.866347 
L 148.038858 -188.382139 
L 146.931889 -189.897932 
L 145.645172 -191.413724 
L 144.157308 -192.929517 
L 142.451461 -194.445309 
L 140.517255 -195.961102 
L 138.352584 -197.476894 
L 135.96522 -198.992687 
L 133.374049 -200.508479 
L 130.60981 -202.024272 
L 127.715212 -203.540064 
L 124.744367 -205.055857 
L 121.761469 -206.571649 
L 118.838779 -208.087442 
L 116.05394 -209.603234 
L 113.486781 -211.119027 
L 111.215765 -212.634819 
L 109.31429 -214.150612 
L 107.847079 -215.666404 
L 106.866888 -217.182197 
L 106.411765 -218.697989 
L 106.503034 -220.213782 
L 107.144164 -221.729574 
L 108.320587 -223.245367 
L 110.000494 -224.761159 
L 112.13655 -226.276952 
L 114.6684 -227.792744 
L 117.525803 -229.308537 
L 120.632175 -230.824329 
L 123.908298 -232.340122 
L 127.275967 -233.855914 
L 130.66134 -235.371707 
L 133.9978 -236.887499 
L 137.228195 -238.403292 
L 140.306342 -239.919084 
L 143.197789 -241.434877 
L 145.879832 -242.950669 
L 148.340877 -244.466462 
L 150.579255 -245.982254 
L 152.601633 -247.498047 
L 154.421165 -249.013839 
L 156.055559 -250.529632 
L 157.525178 -252.045424 
L 158.851311 -253.561217 
L 160.054714 -255.077009 
L 161.15445 -256.592802 
L 162.167095 -258.108594 
L 163.106274 -259.624387 
L 163.982514 -261.140179 
L 164.80337 -262.655972 
L 165.573744 -264.171764 
L 166.296354 -265.687557 
L 166.972273 -267.203349 
L 167.601482 -268.719142 
L 168.183395 -270.234934 
L 168.717307 -271.750727 
L 169.202757 -273.266519 
L 169.639784 -274.782312 
L 170.029077 -276.298104 
L 170.372037 -277.813897 
L 170.670752 -279.329689 
L 170.927921 -280.845482 
L 173.189726 -280.845482 
L 173.189726 -280.845482 
L 173.446895 -279.329689 
L 173.74561 -277.813897 
L 174.08857 -276.298104 
L 174.477863 -274.782312 
L 174.91489 -273.266519 
L 175.40034 -271.750727 
L 175.934252 -270.234934 
L 176.516165 -268.719142 
L 177.145374 -267.203349 
L 177.821293 -265.687557 
L 178.543903 -264.171764 
L 179.314277 -262.655972 
L 180.135133 -261.140179 
L 181.011374 -259.624387 
L 181.950552 -258.108594 
L 182.963197 -256.592802 
L 184.062933 -255.077009 
L 185.266336 -253.561217 
L 186.59247 -252.045424 
L 188.062088 -250.529632 
L 189.696482 -249.013839 
L 191.516014 -247.498047 
L 193.538392 -245.982254 
L 195.77677 -244.466462 
L 198.237815 -242.950669 
L 200.919858 -241.434877 
L 203.811305 -239.919084 
L 206.889453 -238.403292 
L 210.119847 -236.887499 
L 213.456307 -235.371707 
L 216.84168 -233.855914 
L 220.209349 -232.340122 
L 223.485472 -230.824329 
L 226.591844 -229.308537 
L 229.449247 -227.792744 
L 231.981097 -226.276952 
L 234.117153 -224.761159 
L 235.797061 -223.245367 
L 236.973483 -221.729574 
L 237.614613 -220.213782 
L 237.705882 -218.697989 
L 237.250759 -217.182197 
L 236.270568 -215.666404 
L 234.803357 -214.150612 
L 232.901882 -212.634819 
L 230.630866 -211.119027 
L 228.063707 -209.603234 
L 225.278868 -208.087442 
L 222.356178 -206.571649 
L 219.373281 -205.055857 
L 216.402435 -203.540064 
L 213.507838 -202.024272 
L 210.743598 -200.508479 
L 208.152427 -198.992687 
L 205.765063 -197.476894 
L 203.600392 -195.961102 
L 201.666186 -194.445309 
L 199.960339 -192.929517 
L 198.472475 -191.413724 
L 197.185758 -189.897932 
L 196.078789 -188.382139 
L 195.127433 -186.866347 
L 194.306477 -185.350554 
L 193.591045 -183.834762 
L 192.957695 -182.318969 
L 192.385203 -180.803177 
L 191.855024 -179.287384 
L 191.351468 -177.771592 
L 190.861642 -176.255799 
L 190.375215 -174.740007 
L 189.884075 -173.224214 
L 189.381943 -171.708422 
L 188.863994 -170.192629 
L 188.326533 -168.676837 
L 187.766759 -167.161044 
L 187.182617 -165.645252 
L 186.572749 -164.129459 
L 185.936522 -162.613667 
L 185.274112 -161.097874 
L 184.586611 -159.582082 
L 183.876126 -158.066289 
L 183.145845 -156.550497 
L 182.400045 -155.034704 
L 181.644025 -153.518912 
L 180.883972 -152.003119 
L 180.126748 -150.487327 
L 179.379625 -148.971534 
L 178.649979 -147.455742 
L 177.944978 -145.939949 
L 177.271275 -144.424157 
L 176.634732 -142.908364 
L 176.040205 -141.392572 
L 175.491384 -139.876779 
L 174.990714 -138.360987 
L 174.539375 -136.845194 
L 174.137346 -135.329402 
L 173.783507 -133.813609 
L 173.475797 -132.297817 
L 173.211392 -130.782024 
z
" style="stroke: #4c4c4c; stroke-opacity: 0.5; stroke-width: 1.5"/>
    </defs>
    <g clip-path="url(#p13ed168653)">
     <use xlink:href="#mf82a591a9b" x="0" y="288" style="fill: #45ba45; fill-opacity: 0.5; stroke: #4c4c4c; stroke-opacity: 0.5; stroke-width: 1.5"/>
    </g>
   </g>
   <g id="matplotlib.axis_1">
    <g id="xtick_1">
     <g id="line2d_1">
      <defs>
       <path id="mcea9b2275e" d="M 0 0 
L 0 3.5 
" style="stroke: #000000; stroke-width: 0.8"/>
      </defs>
      <g>
       <use xlink:href="#mcea9b2275e" x="172.058824" y="256.32" style="stroke: #000000; stroke-width: 0.8"/>
      </g>
     </g>
     <g id="text_1">
      <!-- 0 -->
      <g transform="translate(168.877574 270.918437) scale(0.1 -0.1)">
       <defs>
        <path id="DejaVuSans-30" d="M 2034 4250 
Q 1547 4250 1301 3770 
Q 1056 3291 1056 2328 
Q 1056 1369 1301 889 
Q 1547 409 2034 409 
Q 2525 409 2770 889 
Q 3016 1369 3016 2328 
Q 3016 3291 2770 3770 
Q 2525 4250 2034 4250 
z
M 2034 4750 
Q 2819 4750 3233 4129 
Q 3647 3509 3647 2328 
Q 3647 1150 3233 529 
Q 2819 -91 2034 -91 
Q 1250 -91 836 529 
Q 422 1150 422 2328 
Q 422 3509 836 4129 
Q 1250 4750 2034 4750 
z
" transform="scale(0.015625)"/>
       </defs>
       <use xlink:href="#DejaVuSans-30"/>
      </g>
     </g>
    </g>
   </g>
   <g id="matplotlib.axis_2">
    <g id="ytick_1">
     <g id="line2d_2">
      <defs>
       <path id="md2d9c0646d" d="M 0 0 
L -3.5 0 
" style="stroke: #000000; stroke-width: 0.8"/>
      </defs>
      <g>
       <use xlink:href="#md2d9c0646d" x="90" y="256.32" style="stroke: #000000; stroke-width: 0.8"/>
      </g>
     </g>
     <g id="text_2">
      <!-- 0.0 -->
      <g transform="translate(67.096875 260.119219) scale(0.1 -0.1)">
       <defs>
        <path id="DejaVuSans-2e" d="M 684 794 
L 1344 794 
L 1344 0 
L 684 0 
L 684 794 
z
" transform="scale(0.015625)"/>
       </defs>
       <use xlink:href="#DejaVuSans-30"/>
       <use xlink:href="#DejaVuSans-2e" x="63.623047"/>
       <use xlink:href="#DejaVuSans-30" x="95.410156"/>
      </g>
     </g>
    </g>
    <g id="ytick_2">
     <g id="line2d_3">
      <g>
       <use xlink:href="#md2d9c0646d" x="90" y="211.968" style="stroke: #000000; stroke-width: 0.8"/>
      </g>
     </g>
     <g id="text_3">
      <!-- 0.2 -->
      <g transform="translate(67.096875 215.767219) scale(0.1 -0.1)">
       <defs>
        <path id="DejaVuSans-32" d="M 1228 531 
L 3431 531 
L 3431 0 
L 469 0 
L 469 531 
Q 828 903 1448 1529 
Q 2069 2156 2228 2338 
Q 2531 2678 2651 2914 
Q 2772 3150 2772 3378 
Q 2772 3750 2511 3984 
Q 2250 4219 1831 4219 
Q 1534 4219 1204 4116 
Q 875 4013 500 3803 
L 500 4441 
Q 881 4594 1212 4672 
Q 1544 4750 1819 4750 
Q 2544 4750 2975 4387 
Q 3406 4025 3406 3419 
Q 3406 3131 3298 2873 
Q 3191 2616 2906 2266 
Q 2828 2175 2409 1742 
Q 1991 1309 1228 531 
z
" transform="scale(0.015625)"/>
       </defs>
       <use xlink:href="#DejaVuSans-30"/>
       <use xlink:href="#DejaVuSans-2e" x="63.623047"/>
       <use xlink:href="#DejaVuSans-32" x="95.410156"/>
      </g>
     </g>
    </g>
    <g id="ytick_3">
     <g id="line2d_4">
      <g>
       <use xlink:href="#md2d9c0646d" x="90" y="167.616" style="stroke: #000000; stroke-width: 0.8"/>
      </g>
     </g>
     <g id="text_4">
      <!-- 0.4 -->
      <g transform="translate(67.096875 171.415219) scale(0.1 -0.1)">
       <defs>
        <path id="DejaVuSans-34" d="M 2419 4116 
L 825 1625 
L 2419 1625 
L 2419 4116 
z
M 2253 4666 
L 3047 4666 
L 3047 1625 
L 3713 1625 
L 3713 1100 
L 3047 1100 
L 3047 0 
L 2419 0 
L 2419 1100 
L 313 1100 
L 313 1709 
L 2253 4666 
z
" transform="scale(0.015625)"/>
       </defs>
       <use xlink:href="#DejaVuSans-30"/>
       <use xlink:href="#DejaVuSans-2e" x="63.623047"/>
       <use xlink:href="#DejaVuSans-34" x="95.410156"/>
      </g>
     </g>
    </g>
    <g id="ytick_4">
     <g id="line2d_5">
      <g>
       <use xlink:href="#md2d9c0646d" x="90" y="123.264" style="stroke: #000000; stroke-width: 0.8"/>
      </g>
     </g>
     <g id="text_5">
      <!-- 0.6 -->
      <g transform="translate(67.096875 127.063219) scale(0.1 -0.1)">
       <defs>
        <path id="DejaVuSans-36" d="M 2113 2584 
Q 1688 2584 1439 2293 
Q 1191 2003 1191 1497 
Q 1191 994 1439 701 
Q 1688 409 2113 409 
Q 2538 409 2786 701 
Q 3034 994 3034 1497 
Q 3034 2003 2786 2293 
Q 2538 2584 2113 2584 
z
M 3366 4563 
L 3366 3988 
Q 3128 4100 2886 4159 
Q 2644 4219 2406 4219 
Q 1781 4219 1451 3797 
Q 1122 3375 1075 2522 
Q 1259 2794 1537 2939 
Q 1816 3084 2150 3084 
Q 2853 3084 3261 2657 
Q 3669 2231 3669 1497 
Q 3669 778 3244 343 
Q 2819 -91 2113 -91 
Q 1303 -91 875 529 
Q 447 1150 447 2328 
Q 447 3434 972 4092 
Q 1497 4750 2381 4750 
Q 2619 4750 2861 4703 
Q 3103 4656 3366 4563 
z
" transform="scale(0.015625)"/>
       </defs>
       <use xlink:href="#DejaVuSans-30"/>
       <use xlink:href="#DejaVuSans-2e" x="63.623047"/>
       <use xlink:href="#DejaVuSans-36" x="95.410156"/>
      </g>
     </g>
    </g>
    <g id="ytick_5">
     <g id="line2d_6">
      <g>
       <use xlink:href="#md2d9c0646d" x="90" y="78.912" style="stroke: #000000; stroke-width: 0.8"/>
      </g>
     </g>
     <g id="text_6">
      <!-- 0.8 -->
      <g transform="translate(67.096875 82.711219) scale(0.1 -0.1)">
       <defs>
        <path id="DejaVuSans-38" d="M 2034 2216 
Q 1584 2216 1326 1975 
Q 1069 1734 1069 1313 
Q 1069 891 1326 650 
Q 1584 409 2034 409 
Q 2484 409 2743 651 
Q 3003 894 3003 1313 
Q 3003 1734 2745 1975 
Q 2488 2216 2034 2216 
z
M 1403 2484 
Q 997 2584 770 2862 
Q 544 3141 544 3541 
Q 544 4100 942 4425 
Q 1341 4750 2034 4750 
Q 2731 4750 3128 4425 
Q 3525 4100 3525 3541 
Q 3525 3141 3298 2862 
Q 3072 2584 2669 2484 
Q 3125 2378 3379 2068 
Q 3634 1759 3634 1313 
Q 3634 634 3220 271 
Q 2806 -91 2034 -91 
Q 1263 -91 848 271 
Q 434 634 434 1313 
Q 434 1759 690 2068 
Q 947 2378 1403 2484 
z
M 1172 3481 
Q 1172 3119 1398 2916 
Q 1625 2713 2034 2713 
Q 2441 2713 2670 2916 
Q 2900 3119 2900 3481 
Q 2900 3844 2670 4047 
Q 2441 4250 2034 4250 
Q 1625 4250 1398 4047 
Q 1172 3844 1172 3481 
z
" transform="scale(0.015625)"/>
       </defs>
       <use xlink:href="#DejaVuSans-30"/>
       <use xlink:href="#DejaVuSans-2e" x="63.623047"/>
       <use xlink:href="#DejaVuSans-38" x="95.410156"/>
      </g>
     </g>
    </g>
    <g id="ytick_6">
     <g id="line2d_7">
      <g>
       <use xlink:href="#md2d9c0646d" x="90" y="34.56" style="stroke: #000000; stroke-width: 0.8"/>
      </g>
     </g>
     <g id="text_7">
      <!-- 1.0 -->
      <g transform="translate(67.096875 38.359219) scale(0.1 -0.1)">
       <defs>
        <path id="DejaVuSans-31" d="M 794 531 
L 1825 531 
L 1825 4091 
L 703 3866 
L 703 4441 
L 1819 4666 
L 2450 4666 
L 2450 531 
L 3481 531 
L 3481 0 
L 794 0 
L 794 531 
z
" transform="scale(0.015625)"/>
       </defs>
       <use xlink:href="#DejaVuSans-31"/>
       <use xlink:href="#DejaVuSans-2e" x="63.623047"/>
       <use xlink:href="#DejaVuSans-30" x="95.410156"/>
      </g>
     </g>
    </g>
    <g id="text_8">
     <!-- $p$ -->
     <g transform="translate(60.996875 148.64) rotate(-90) scale(0.1 -0.1)">
      <defs>
       <path id="DejaVuSans-Oblique-70" d="M 3175 2156 
Q 3175 2616 2975 2859 
Q 2775 3103 2400 3103 
Q 2144 3103 1911 2972 
Q 1678 2841 1497 2591 
Q 1319 2344 1212 1994 
Q 1106 1644 1106 1300 
Q 1106 863 1306 627 
Q 1506 391 1875 391 
Q 2147 391 2380 519 
Q 2613 647 2778 891 
Q 2956 1147 3065 1494 
Q 3175 1841 3175 2156 
z
M 1394 2969 
Q 1625 3272 1939 3428 
Q 2253 3584 2638 3584 
Q 3175 3584 3472 3232 
Q 3769 2881 3769 2247 
Q 3769 1728 3584 1258 
Q 3400 788 3053 416 
Q 2822 169 2531 39 
Q 2241 -91 1919 -91 
Q 1547 -91 1294 64 
Q 1041 219 916 525 
L 556 -1331 
L -19 -1331 
L 922 3500 
L 1497 3500 
L 1394 2969 
z
" transform="scale(0.015625)"/>
      </defs>
      <use xlink:href="#DejaVuSans-Oblique-70"/>
     </g>
    </g>
   </g>
   <g id="line2d_8">
    <path d="M 172.058824 97.494628 
L 172.058824 65.180076 
" clip-path="url(#p13ed168653)" style="fill: none; stroke: #4c4c4c; stroke-width: 1.5; stroke-linecap: square"/>
   </g>
   <g id="line2d_9">
    <path d="M 172.058824 79.936434 
L 172.058824 65.187714 
" clip-path="url(#p13ed168653)" style="fill: none; stroke: #4c4c4c; stroke-width: 4.5; stroke-linecap: square"/>
   </g>
   <g id="patch_3">
    <path d="M 90 256.32 
L 90 34.56 
" style="fill: none; stroke: #000000; stroke-width: 0.8; stroke-linejoin: miter; stroke-linecap: square"/>
   </g>
   <g id="patch_4">
    <path d="M 254.117647 256.32 
L 254.117647 34.56 
" style="fill: none; stroke: #000000; stroke-width: 0.8; stroke-linejoin: miter; stroke-linecap: square"/>
   </g>
   <g id="patch_5">
    <path d="M 90 256.32 
L 254.117647 256.32 
" style="fill: none; stroke: #000000; stroke-width: 0.8; stroke-linejoin: miter; stroke-linecap: square"/>
   </g>
   <g id="patch_6">
    <path d="M 90 34.56 
L 254.117647 34.56 
" style="fill: none; stroke: #000000; stroke-width: 0.8; stroke-linejoin: miter; stroke-linecap: square"/>
   </g>
   <g id="PathCollection_1">
    <defs>
     <path id="mddb239b7c2" d="M 0 1.5 
C 0.397805 1.5 0.77937 1.341951 1.06066 1.06066 
C 1.341951 0.77937 1.5 0.397805 1.5 0 
C 1.5 -0.397805 1.341951 -0.77937 1.06066 -1.06066 
C 0.77937 -1.341951 0.397805 -1.5 0 -1.5 
C -0.397805 -1.5 -0.77937 -1.341951 -1.06066 -1.06066 
C -1.341951 -0.77937 -1.5 -0.397805 -1.5 0 
C -1.5 0.397805 -1.341951 0.77937 -1.06066 1.06066 
C -0.77937 1.341951 -0.397805 1.5 0 1.5 
z
" style="stroke: #4c4c4c; stroke-opacity: 0.5"/>
    </defs>
    <g clip-path="url(#p13ed168653)">
     <use xlink:href="#mddb239b7c2" x="172.058824" y="69.781055" style="fill: #ffffff; fill-opacity: 0.5; stroke: #4c4c4c; stroke-opacity: 0.5"/>
    </g>
   </g>
   <g id="text_9">
    <!-- win -->
    <g transform="translate(161.682574 28.56) scale(0.12 -0.12)">
     <defs>
      <path id="DejaVuSans-77" d="M 269 3500 
L 844 3500 
L 1563 769 
L 2278 3500 
L 2956 3500 
L 3675 769 
L 4391 3500 
L 4966 3500 
L 4050 0 
L 3372 0 
L 2619 2869 
L 1863 0 
L 1184 0 
L 269 3500 
z
" transform="scale(0.015625)"/>
      <path id="DejaVuSans-69" d="M 603 3500 
L 1178 3500 
L 1178 0 
L 603 0 
L 603 3500 
z
M 603 4863 
L 1178 4863 
L 1178 4134 
L 603 4134 
L 603 4863 
z
" transform="scale(0.015625)"/>
      <path id="DejaVuSans-6e" d="M 3513 2113 
L 3513 0 
L 2938 0 
L 2938 2094 
Q 2938 2591 2744 2837 
Q 2550 3084 2163 3084 
Q 1697 3084 1428 2787 
Q 1159 2491 1159 1978 
L 1159 0 
L 581 0 
L 581 3500 
L 1159 3500 
L 1159 2956 
Q 1366 3272 1645 3428 
Q 1925 3584 2291 3584 
Q 2894 3584 3203 3211 
Q 3513 2838 3513 2113 
z
" transform="scale(0.015625)"/>
     </defs>
     <use xlink:href="#DejaVuSans-77"/>
     <use xlink:href="#DejaVuSans-69" x="81.787109"/>
     <use xlink:href="#DejaVuSans-6e" x="109.570312"/>
    </g>
   </g>
  </g>
  <g id="axes_2">
   <g id="patch_7">
    <path d="M 286.941176 256.32 
L 451.058824 256.32 
L 451.058824 34.56 
L 286.941176 34.56 
z
" style="fill: #ffffff"/>
   </g>
   <g id="PolyCollection_2">
    <defs>
     <path id="mb3771b8808" d="M 371.021064 -23.479624 
L 366.978936 -23.479624 
L 366.530684 -23.866155 
L 366.002165 -24.252686 
L 365.383325 -24.639216 
L 364.663723 -25.025747 
L 363.832698 -25.412278 
L 362.879575 -25.798809 
L 361.793917 -26.18534 
L 360.565811 -26.571871 
L 359.186206 -26.958401 
L 357.647282 -27.344932 
L 355.942857 -27.731463 
L 354.068822 -28.117994 
L 352.023589 -28.504525 
L 349.808542 -28.891055 
L 347.428475 -29.277586 
L 344.891984 -29.664117 
L 342.211799 -30.050648 
L 339.40503 -30.437179 
L 336.493289 -30.823709 
L 333.50266 -31.21024 
L 330.463511 -31.596771 
L 327.410104 -31.983302 
L 324.380002 -32.369833 
L 321.413273 -32.756363 
L 318.551495 -33.142894 
L 315.836583 -33.529425 
L 313.309474 -33.915956 
L 311.008722 -34.302487 
L 308.969055 -34.689018 
L 307.219966 -35.075548 
L 305.784416 -35.462079 
L 304.67771 -35.84861 
L 303.906635 -36.235141 
L 303.468898 -36.621672 
L 303.352941 -37.008202 
L 303.538134 -37.394733 
L 303.995375 -37.781264 
L 304.688077 -38.167795 
L 305.573506 -38.554326 
L 306.604414 -38.940856 
L 307.73089 -39.327387 
L 308.902343 -39.713918 
L 310.069514 -40.100449 
L 311.186422 -40.48698 
L 312.212136 -40.87351 
L 313.112302 -41.260041 
L 313.860337 -41.646572 
L 314.438242 -42.033103 
L 314.837016 -42.419634 
L 315.056637 -42.806165 
L 315.105654 -43.192695 
L 315.000417 -43.579226 
L 314.763994 -43.965757 
L 314.424868 -44.352288 
L 314.015467 -44.738819 
L 313.570634 -45.125349 
L 313.126105 -45.51188 
L 312.717077 -45.898411 
L 312.376921 -46.284942 
L 312.136103 -46.671473 
L 312.021326 -47.058003 
L 312.05493 -47.444534 
L 312.254528 -47.831065 
L 312.632883 -48.217596 
L 313.197979 -48.604127 
L 313.95326 -48.990657 
L 314.898004 -49.377188 
L 316.027765 -49.763719 
L 317.334872 -50.15025 
L 318.808931 -50.536781 
L 320.437306 -50.923312 
L 322.205568 -51.309842 
L 324.097887 -51.696373 
L 326.097375 -52.082904 
L 328.186381 -52.469435 
L 330.346741 -52.855966 
L 332.560004 -53.242496 
L 334.807637 -53.629027 
L 337.071223 -54.015558 
L 339.332667 -54.402089 
L 341.574411 -54.78862 
L 343.779645 -55.17515 
L 345.932547 -55.561681 
L 348.018499 -55.948212 
L 350.024314 -56.334743 
L 351.938429 -56.721274 
L 353.751073 -57.107804 
L 355.4544 -57.494335 
L 357.042556 -57.880866 
L 358.511716 -58.267397 
L 359.86004 -58.653928 
L 361.087596 -59.040459 
L 362.196218 -59.426989 
L 363.189323 -59.81352 
L 364.071705 -60.200051 
L 364.849287 -60.586582 
L 365.52888 -60.973113 
L 366.117927 -61.359643 
L 366.62426 -61.746174 
L 371.37574 -61.746174 
L 371.37574 -61.746174 
L 371.882073 -61.359643 
L 372.47112 -60.973113 
L 373.150713 -60.586582 
L 373.928295 -60.200051 
L 374.810677 -59.81352 
L 375.803782 -59.426989 
L 376.912404 -59.040459 
L 378.13996 -58.653928 
L 379.488284 -58.267397 
L 380.957444 -57.880866 
L 382.5456 -57.494335 
L 384.248927 -57.107804 
L 386.061571 -56.721274 
L 387.975686 -56.334743 
L 389.981501 -55.948212 
L 392.067453 -55.561681 
L 394.220355 -55.17515 
L 396.425589 -54.78862 
L 398.667333 -54.402089 
L 400.928777 -54.015558 
L 403.192363 -53.629027 
L 405.439996 -53.242496 
L 407.653259 -52.855966 
L 409.813619 -52.469435 
L 411.902625 -52.082904 
L 413.902113 -51.696373 
L 415.794432 -51.309842 
L 417.562694 -50.923312 
L 419.191069 -50.536781 
L 420.665128 -50.15025 
L 421.972235 -49.763719 
L 423.101996 -49.377188 
L 424.04674 -48.990657 
L 424.802021 -48.604127 
L 425.367117 -48.217596 
L 425.745472 -47.831065 
L 425.94507 -47.444534 
L 425.978674 -47.058003 
L 425.863897 -46.671473 
L 425.623079 -46.284942 
L 425.282923 -45.898411 
L 424.873895 -45.51188 
L 424.429366 -45.125349 
L 423.984533 -44.738819 
L 423.575132 -44.352288 
L 423.236006 -43.965757 
L 422.999583 -43.579226 
L 422.894346 -43.192695 
L 422.943363 -42.806165 
L 423.162984 -42.419634 
L 423.561758 -42.033103 
L 424.139663 -41.646572 
L 424.887698 -41.260041 
L 425.787864 -40.87351 
L 426.813578 -40.48698 
L 427.930486 -40.100449 
L 429.097657 -39.713918 
L 430.26911 -39.327387 
L 431.395586 -38.940856 
L 432.426494 -38.554326 
L 433.311923 -38.167795 
L 434.004625 -37.781264 
L 434.461866 -37.394733 
L 434.647059 -37.008202 
L 434.531102 -36.621672 
L 434.093365 -36.235141 
L 433.32229 -35.84861 
L 432.215584 -35.462079 
L 430.780034 -35.075548 
L 429.030945 -34.689018 
L 426.991278 -34.302487 
L 424.690526 -33.915956 
L 422.163417 -33.529425 
L 419.448505 -33.142894 
L 416.586727 -32.756363 
L 413.619998 -32.369833 
L 410.589896 -31.983302 
L 407.536489 -31.596771 
L 404.49734 -31.21024 
L 401.506711 -30.823709 
L 398.59497 -30.437179 
L 395.788201 -30.050648 
L 393.108016 -29.664117 
L 390.571525 -29.277586 
L 388.191458 -28.891055 
L 385.976411 -28.504525 
L 383.931178 -28.117994 
L 382.057143 -27.731463 
L 380.352718 -27.344932 
L 378.813794 -26.958401 
L 377.434189 -26.571871 
L 376.206083 -26.18534 
L 375.120425 -25.798809 
L 374.167302 -25.412278 
L 373.336277 -25.025747 
L 372.616675 -24.639216 
L 371.997835 -24.252686 
L 371.469316 -23.866155 
L 371.021064 -23.479624 
z
" style="stroke: #626262; stroke-width: 1.5"/>
    </defs>
    <g clip-path="url(#p651a8e9096)">
     <use xlink:href="#mb3771b8808" x="0" y="288" style="fill: #e8735e; stroke: #626262; stroke-width: 1.5"/>
    </g>
   </g>
   <g id="matplotlib.axis_3">
    <g id="xtick_2">
     <g id="line2d_10">
      <g>
       <use xlink:href="#mcea9b2275e" x="369" y="256.32" style="stroke: #000000; stroke-width: 0.8"/>
      </g>
     </g>
     <g id="text_10">
      <!-- 0 -->
      <g transform="translate(365.81875 270.918437) scale(0.1 -0.1)">
       <use xlink:href="#DejaVuSans-30"/>
      </g>
     </g>
    </g>
   </g>
   <g id="matplotlib.axis_4">
    <g id="ytick_7">
     <g id="line2d_11">
      <g>
       <use xlink:href="#md2d9c0646d" x="286.941176" y="256.32" style="stroke: #000000; stroke-width: 0.8"/>
      </g>
     </g>
     <g id="text_11">
      <!-- 0.0 -->
      <g transform="translate(264.038051 260.119219) scale(0.1 -0.1)">
       <use xlink:href="#DejaVuSans-30"/>
       <use xlink:href="#DejaVuSans-2e" x="63.623047"/>
       <use xlink:href="#DejaVuSans-30" x="95.410156"/>
      </g>
     </g>
    </g>
    <g id="ytick_8">
     <g id="line2d_12">
      <g>
       <use xlink:href="#md2d9c0646d" x="286.941176" y="211.968" style="stroke: #000000; stroke-width: 0.8"/>
      </g>
     </g>
     <g id="text_12">
      <!-- 0.2 -->
      <g transform="translate(264.038051 215.767219) scale(0.1 -0.1)">
       <use xlink:href="#DejaVuSans-30"/>
       <use xlink:href="#DejaVuSans-2e" x="63.623047"/>
       <use xlink:href="#DejaVuSans-32" x="95.410156"/>
      </g>
     </g>
    </g>
    <g id="ytick_9">
     <g id="line2d_13">
      <g>
       <use xlink:href="#md2d9c0646d" x="286.941176" y="167.616" style="stroke: #000000; stroke-width: 0.8"/>
      </g>
     </g>
     <g id="text_13">
      <!-- 0.4 -->
      <g transform="translate(264.038051 171.415219) scale(0.1 -0.1)">
       <use xlink:href="#DejaVuSans-30"/>
       <use xlink:href="#DejaVuSans-2e" x="63.623047"/>
       <use xlink:href="#DejaVuSans-34" x="95.410156"/>
      </g>
     </g>
    </g>
    <g id="ytick_10">
     <g id="line2d_14">
      <g>
       <use xlink:href="#md2d9c0646d" x="286.941176" y="123.264" style="stroke: #000000; stroke-width: 0.8"/>
      </g>
     </g>
     <g id="text_14">
      <!-- 0.6 -->
      <g transform="translate(264.038051 127.063219) scale(0.1 -0.1)">
       <use xlink:href="#DejaVuSans-30"/>
       <use xlink:href="#DejaVuSans-2e" x="63.623047"/>
       <use xlink:href="#DejaVuSans-36" x="95.410156"/>
      </g>
     </g>
    </g>
    <g id="ytick_11">
     <g id="line2d_15">
      <g>
       <use xlink:href="#md2d9c0646d" x="286.941176" y="78.912" style="stroke: #000000; stroke-width: 0.8"/>
      </g>
     </g>
     <g id="text_15">
      <!-- 0.8 -->
      <g transform="translate(264.038051 82.711219) scale(0.1 -0.1)">
       <use xlink:href="#DejaVuSans-30"/>
       <use xlink:href="#DejaVuSans-2e" x="63.623047"/>
       <use xlink:href="#DejaVuSans-38" x="95.410156"/>
      </g>
     </g>
    </g>
    <g id="ytick_12">
     <g id="line2d_16">
      <g>
       <use xlink:href="#md2d9c0646d" x="286.941176" y="34.56" style="stroke: #000000; stroke-width: 0.8"/>
      </g>
     </g>
     <g id="text_16">
      <!-- 1.0 -->
      <g transform="translate(264.038051 38.359219) scale(0.1 -0.1)">
       <use xlink:href="#DejaVuSans-31"/>
       <use xlink:href="#DejaVuSans-2e" x="63.623047"/>
       <use xlink:href="#DejaVuSans-30" x="95.410156"/>
      </g>
     </g>
    </g>
   </g>
   <g id="line2d_17">
    <path d="M 369 255.948878 
L 369 234.825323 
" clip-path="url(#p651a8e9096)" style="fill: none; stroke: #626262; stroke-width: 1.5; stroke-linecap: square"/>
   </g>
   <g id="line2d_18">
    <path d="M 369 251.559228 
L 369 240.934683 
" clip-path="url(#p651a8e9096)" style="fill: none; stroke: #626262; stroke-width: 4.5; stroke-linecap: square"/>
   </g>
   <g id="patch_8">
    <path d="M 286.941176 256.32 
L 286.941176 34.56 
" style="fill: none; stroke: #000000; stroke-width: 0.8; stroke-linejoin: miter; stroke-linecap: square"/>
   </g>
   <g id="patch_9">
    <path d="M 451.058824 256.32 
L 451.058824 34.56 
" style="fill: none; stroke: #000000; stroke-width: 0.8; stroke-linejoin: miter; stroke-linecap: square"/>
   </g>
   <g id="patch_10">
    <path d="M 286.941176 256.32 
L 451.058824 256.32 
" style="fill: none; stroke: #000000; stroke-width: 0.8; stroke-linejoin: miter; stroke-linecap: square"/>
   </g>
   <g id="patch_11">
    <path d="M 286.941176 34.56 
L 451.058824 34.56 
" style="fill: none; stroke: #000000; stroke-width: 0.8; stroke-linejoin: miter; stroke-linecap: square"/>
   </g>
   <g id="PathCollection_2">
    <defs>
     <path id="m673fba79a3" d="M 0 1.5 
C 0.397805 1.5 0.77937 1.341951 1.06066 1.06066 
C 1.341951 0.77937 1.5 0.397805 1.5 0 
C 1.5 -0.397805 1.341951 -0.77937 1.06066 -1.06066 
C 0.77937 -1.341951 0.397805 -1.5 0 -1.5 
C -0.397805 -1.5 -0.77937 -1.341951 -1.06066 -1.06066 
C -1.341951 -0.77937 -1.5 -0.397805 -1.5 0 
C -1.5 0.397805 -1.341951 0.77937 -1.06066 1.06066 
C -0.77937 1.341951 -0.397805 1.5 0 1.5 
z
" style="stroke: #626262"/>
    </defs>
    <g clip-path="url(#p651a8e9096)">
     <use xlink:href="#m673fba79a3" x="369" y="246.344246" style="fill: #ffffff; stroke: #626262"/>
    </g>
   </g>
   <g id="text_17">
    <!-- loss -->
    <g transform="translate(357.410625 28.56) scale(0.12 -0.12)">
     <defs>
      <path id="DejaVuSans-6c" d="M 603 4863 
L 1178 4863 
L 1178 0 
L 603 0 
L 603 4863 
z
" transform="scale(0.015625)"/>
      <path id="DejaVuSans-6f" d="M 1959 3097 
Q 1497 3097 1228 2736 
Q 959 2375 959 1747 
Q 959 1119 1226 758 
Q 1494 397 1959 397 
Q 2419 397 2687 759 
Q 2956 1122 2956 1747 
Q 2956 2369 2687 2733 
Q 2419 3097 1959 3097 
z
M 1959 3584 
Q 2709 3584 3137 3096 
Q 3566 2609 3566 1747 
Q 3566 888 3137 398 
Q 2709 -91 1959 -91 
Q 1206 -91 779 398 
Q 353 888 353 1747 
Q 353 2609 779 3096 
Q 1206 3584 1959 3584 
z
" transform="scale(0.015625)"/>
      <path id="DejaVuSans-73" d="M 2834 3397 
L 2834 2853 
Q 2591 2978 2328 3040 
Q 2066 3103 1784 3103 
Q 1356 3103 1142 2972 
Q 928 2841 928 2578 
Q 928 2378 1081 2264 
Q 1234 2150 1697 2047 
L 1894 2003 
Q 2506 1872 2764 1633 
Q 3022 1394 3022 966 
Q 3022 478 2636 193 
Q 2250 -91 1575 -91 
Q 1294 -91 989 -36 
Q 684 19 347 128 
L 347 722 
Q 666 556 975 473 
Q 1284 391 1588 391 
Q 1994 391 2212 530 
Q 2431 669 2431 922 
Q 2431 1156 2273 1281 
Q 2116 1406 1581 1522 
L 1381 1569 
Q 847 1681 609 1914 
Q 372 2147 372 2553 
Q 372 3047 722 3315 
Q 1072 3584 1716 3584 
Q 2034 3584 2315 3537 
Q 2597 3491 2834 3397 
z
" transform="scale(0.015625)"/>
     </defs>
     <use xlink:href="#DejaVuSans-6c"/>
     <use xlink:href="#DejaVuSans-6f" x="27.783203"/>
     <use xlink:href="#DejaVuSans-73" x="88.964844"/>
     <use xlink:href="#DejaVuSans-73" x="141.064453"/>
    </g>
   </g>
  </g>
  <g id="axes_3">
   <g id="patch_12">
    <path d="M 483.882353 256.32 
L 648 256.32 
L 648 34.56 
L 483.882353 34.56 
z
" style="fill: #ffffff"/>
   </g>
   <g id="PolyCollection_3">
    <defs>
     <path id="m907aa5fad3" d="M 566.997808 -10.461552 
L 564.884545 -10.461552 
L 564.635604 -11.677301 
L 564.345086 -12.893049 
L 564.010194 -14.108798 
L 563.628753 -15.324546 
L 563.199273 -16.540295 
L 562.72094 -17.756043 
L 562.193505 -18.971792 
L 561.61706 -20.187541 
L 560.991686 -21.403289 
L 560.31698 -22.619038 
L 559.591483 -23.834786 
L 558.812037 -25.050535 
L 557.973139 -26.266283 
L 557.066342 -27.482032 
L 556.079801 -28.69778 
L 554.998049 -29.913529 
L 553.802077 -31.129277 
L 552.469801 -32.345026 
L 550.976971 -33.560775 
L 549.298524 -34.776523 
L 547.410367 -35.992272 
L 545.291527 -37.20802 
L 542.926536 -38.423769 
L 540.307895 -39.639517 
L 537.438429 -40.855266 
L 534.333296 -42.071014 
L 531.021456 -43.286763 
L 527.546379 -44.502511 
L 523.965841 -45.71826 
L 520.350721 -46.934009 
L 516.782766 -48.149757 
L 513.351411 -49.365506 
L 510.149797 -50.581254 
L 507.270243 -51.797003 
L 504.799459 -53.012751 
L 502.813857 -54.2285 
L 501.375298 -55.444248 
L 500.527607 -56.659997 
L 500.294118 -57.875745 
L 500.676446 -59.091494 
L 501.654568 -60.307242 
L 503.18819 -61.522991 
L 505.219283 -62.73874 
L 507.675576 -63.954488 
L 510.474704 -65.170237 
L 513.528719 -66.385985 
L 516.748599 -67.601734 
L 520.04847 -68.817482 
L 523.34926 -70.033231 
L 526.581603 -71.248979 
L 529.687848 -72.464728 
L 532.623158 -73.680476 
L 535.355719 -74.896225 
L 537.866148 -76.111974 
L 540.146267 -77.327722 
L 542.197394 -78.543471 
L 544.028354 -79.759219 
L 545.653382 -80.974968 
L 547.090082 -82.190716 
L 548.357591 -83.406465 
L 549.475024 -84.622213 
L 550.460296 -85.837962 
L 551.329326 -87.05371 
L 552.095631 -88.269459 
L 552.770272 -89.485208 
L 553.362095 -90.700956 
L 553.878199 -91.916705 
L 554.324535 -93.132453 
L 554.706569 -94.348202 
L 555.029915 -95.56395 
L 555.300862 -96.779699 
L 555.526761 -97.995447 
L 555.716209 -99.211196 
L 555.879029 -100.426944 
L 556.02606 -101.642693 
L 556.168756 -102.858442 
L 556.318666 -104.07419 
L 556.486833 -105.289939 
L 556.68317 -106.505687 
L 556.91589 -107.721436 
L 557.191025 -108.937184 
L 557.512088 -110.152933 
L 557.879908 -111.368681 
L 558.292639 -112.58443 
L 558.74595 -113.800178 
L 559.23337 -115.015927 
L 559.746749 -116.231676 
L 560.2768 -117.447424 
L 560.813679 -118.663173 
L 561.347549 -119.878921 
L 561.869095 -121.09467 
L 562.369958 -122.310418 
L 562.84306 -123.526167 
L 563.282822 -124.741915 
L 563.685257 -125.957664 
L 564.047969 -127.173412 
L 564.37005 -128.389161 
L 564.651913 -129.60491 
L 564.895078 -130.820658 
L 566.987275 -130.820658 
L 566.987275 -130.820658 
L 567.230439 -129.60491 
L 567.512303 -128.389161 
L 567.834384 -127.173412 
L 568.197096 -125.957664 
L 568.599531 -124.741915 
L 569.039293 -123.526167 
L 569.512395 -122.310418 
L 570.013258 -121.09467 
L 570.534804 -119.878921 
L 571.068674 -118.663173 
L 571.605553 -117.447424 
L 572.135604 -116.231676 
L 572.648983 -115.015927 
L 573.136403 -113.800178 
L 573.589714 -112.58443 
L 574.002445 -111.368681 
L 574.370265 -110.152933 
L 574.691328 -108.937184 
L 574.966463 -107.721436 
L 575.199183 -106.505687 
L 575.39552 -105.289939 
L 575.563686 -104.07419 
L 575.713597 -102.858442 
L 575.856293 -101.642693 
L 576.003324 -100.426944 
L 576.166144 -99.211196 
L 576.355591 -97.995447 
L 576.581491 -96.779699 
L 576.852438 -95.56395 
L 577.175784 -94.348202 
L 577.557818 -93.132453 
L 578.004154 -91.916705 
L 578.520257 -90.700956 
L 579.112081 -89.485208 
L 579.786722 -88.269459 
L 580.553027 -87.05371 
L 581.422057 -85.837962 
L 582.407329 -84.622213 
L 583.524762 -83.406465 
L 584.79227 -82.190716 
L 586.228971 -80.974968 
L 587.853999 -79.759219 
L 589.684959 -78.543471 
L 591.736086 -77.327722 
L 594.016205 -76.111974 
L 596.526634 -74.896225 
L 599.259195 -73.680476 
L 602.194505 -72.464728 
L 605.30075 -71.248979 
L 608.533093 -70.033231 
L 611.833883 -68.817482 
L 615.133754 -67.601734 
L 618.353634 -66.385985 
L 621.407649 -65.170237 
L 624.206777 -63.954488 
L 626.66307 -62.73874 
L 628.694163 -61.522991 
L 630.227785 -60.307242 
L 631.205907 -59.091494 
L 631.588235 -57.875745 
L 631.354746 -56.659997 
L 630.507055 -55.444248 
L 629.068496 -54.2285 
L 627.082894 -53.012751 
L 624.61211 -51.797003 
L 621.732556 -50.581254 
L 618.530942 -49.365506 
L 615.099587 -48.149757 
L 611.531632 -46.934009 
L 607.916512 -45.71826 
L 604.335974 -44.502511 
L 600.860896 -43.286763 
L 597.549057 -42.071014 
L 594.443924 -40.855266 
L 591.574458 -39.639517 
L 588.955817 -38.423769 
L 586.590826 -37.20802 
L 584.471986 -35.992272 
L 582.583829 -34.776523 
L 580.905382 -33.560775 
L 579.412552 -32.345026 
L 578.080276 -31.129277 
L 576.884304 -29.913529 
L 575.802552 -28.69778 
L 574.816011 -27.482032 
L 573.909214 -26.266283 
L 573.070316 -25.050535 
L 572.29087 -23.834786 
L 571.565373 -22.619038 
L 570.890667 -21.403289 
L 570.265293 -20.187541 
L 569.688848 -18.971792 
L 569.161413 -17.756043 
L 568.68308 -16.540295 
L 568.2536 -15.324546 
L 567.872159 -14.108798 
L 567.537267 -12.893049 
L 567.246749 -11.677301 
L 566.997808 -10.461552 
z
" style="stroke: #3f3f3f; stroke-width: 1.5"/>
    </defs>
    <g clip-path="url(#p6495303d4a)">
     <use xlink:href="#m907aa5fad3" x="0" y="288" style="fill: #3274a1; stroke: #3f3f3f; stroke-width: 1.5"/>
    </g>
   </g>
   <g id="matplotlib.axis_5">
    <g id="xtick_3">
     <g id="line2d_19">
      <g>
       <use xlink:href="#mcea9b2275e" x="565.941176" y="256.32" style="stroke: #000000; stroke-width: 0.8"/>
      </g>
     </g>
     <g id="text_18">
      <!-- 0 -->
      <g transform="translate(562.759926 270.918437) scale(0.1 -0.1)">
       <use xlink:href="#DejaVuSans-30"/>
      </g>
     </g>
    </g>
   </g>
   <g id="matplotlib.axis_6">
    <g id="ytick_13">
     <g id="line2d_20">
      <g>
       <use xlink:href="#md2d9c0646d" x="483.882353" y="256.32" style="stroke: #000000; stroke-width: 0.8"/>
      </g>
     </g>
     <g id="text_19">
      <!-- 0.0 -->
      <g transform="translate(460.979228 260.119219) scale(0.1 -0.1)">
       <use xlink:href="#DejaVuSans-30"/>
       <use xlink:href="#DejaVuSans-2e" x="63.623047"/>
       <use xlink:href="#DejaVuSans-30" x="95.410156"/>
      </g>
     </g>
    </g>
    <g id="ytick_14">
     <g id="line2d_21">
      <g>
       <use xlink:href="#md2d9c0646d" x="483.882353" y="211.968" style="stroke: #000000; stroke-width: 0.8"/>
      </g>
     </g>
     <g id="text_20">
      <!-- 0.2 -->
      <g transform="translate(460.979228 215.767219) scale(0.1 -0.1)">
       <use xlink:href="#DejaVuSans-30"/>
       <use xlink:href="#DejaVuSans-2e" x="63.623047"/>
       <use xlink:href="#DejaVuSans-32" x="95.410156"/>
      </g>
     </g>
    </g>
    <g id="ytick_15">
     <g id="line2d_22">
      <g>
       <use xlink:href="#md2d9c0646d" x="483.882353" y="167.616" style="stroke: #000000; stroke-width: 0.8"/>
      </g>
     </g>
     <g id="text_21">
      <!-- 0.4 -->
      <g transform="translate(460.979228 171.415219) scale(0.1 -0.1)">
       <use xlink:href="#DejaVuSans-30"/>
       <use xlink:href="#DejaVuSans-2e" x="63.623047"/>
       <use xlink:href="#DejaVuSans-34" x="95.410156"/>
      </g>
     </g>
    </g>
    <g id="ytick_16">
     <g id="line2d_23">
      <g>
       <use xlink:href="#md2d9c0646d" x="483.882353" y="123.264" style="stroke: #000000; stroke-width: 0.8"/>
      </g>
     </g>
     <g id="text_22">
      <!-- 0.6 -->
      <g transform="translate(460.979228 127.063219) scale(0.1 -0.1)">
       <use xlink:href="#DejaVuSans-30"/>
       <use xlink:href="#DejaVuSans-2e" x="63.623047"/>
       <use xlink:href="#DejaVuSans-36" x="95.410156"/>
      </g>
     </g>
    </g>
    <g id="ytick_17">
     <g id="line2d_24">
      <g>
       <use xlink:href="#md2d9c0646d" x="483.882353" y="78.912" style="stroke: #000000; stroke-width: 0.8"/>
      </g>
     </g>
     <g id="text_23">
      <!-- 0.8 -->
      <g transform="translate(460.979228 82.711219) scale(0.1 -0.1)">
       <use xlink:href="#DejaVuSans-30"/>
       <use xlink:href="#DejaVuSans-2e" x="63.623047"/>
       <use xlink:href="#DejaVuSans-38" x="95.410156"/>
      </g>
     </g>
    </g>
    <g id="ytick_18">
     <g id="line2d_25">
      <g>
       <use xlink:href="#md2d9c0646d" x="483.882353" y="34.56" style="stroke: #000000; stroke-width: 0.8"/>
      </g>
     </g>
     <g id="text_24">
      <!-- 1.0 -->
      <g transform="translate(460.979228 38.359219) scale(0.1 -0.1)">
       <use xlink:href="#DejaVuSans-31"/>
       <use xlink:href="#DejaVuSans-2e" x="63.623047"/>
       <use xlink:href="#DejaVuSans-30" x="95.410156"/>
      </g>
     </g>
    </g>
   </g>
   <g id="line2d_26">
    <path d="M 565.941176 231.656999 
L 565.941176 230.452024 
" clip-path="url(#p6495303d4a)" style="fill: none; stroke: #3f3f3f; stroke-width: 1.5; stroke-linecap: square"/>
   </g>
   <g id="line2d_27">
    <path d="M 565.941176 231.519012 
L 565.941176 226.559031 
" clip-path="url(#p6495303d4a)" style="fill: none; stroke: #3f3f3f; stroke-width: 4.5; stroke-linecap: square"/>
   </g>
   <g id="patch_13">
    <path d="M 483.882353 256.32 
L 483.882353 34.56 
" style="fill: none; stroke: #000000; stroke-width: 0.8; stroke-linejoin: miter; stroke-linecap: square"/>
   </g>
   <g id="patch_14">
    <path d="M 648 256.32 
L 648 34.56 
" style="fill: none; stroke: #000000; stroke-width: 0.8; stroke-linejoin: miter; stroke-linecap: square"/>
   </g>
   <g id="patch_15">
    <path d="M 483.882353 256.32 
L 648 256.32 
" style="fill: none; stroke: #000000; stroke-width: 0.8; stroke-linejoin: miter; stroke-linecap: square"/>
   </g>
   <g id="patch_16">
    <path d="M 483.882353 34.56 
L 648 34.56 
" style="fill: none; stroke: #000000; stroke-width: 0.8; stroke-linejoin: miter; stroke-linecap: square"/>
   </g>
   <g id="PathCollection_3">
    <defs>
     <path id="mec08b931b4" d="M 0 1.5 
C 0.397805 1.5 0.77937 1.341951 1.06066 1.06066 
C 1.341951 0.77937 1.5 0.397805 1.5 0 
C 1.5 -0.397805 1.341951 -0.77937 1.06066 -1.06066 
C 0.77937 -1.341951 0.397805 -1.5 0 -1.5 
C -0.397805 -1.5 -0.77937 -1.341951 -1.06066 -1.06066 
C -1.341951 -0.77937 -1.5 -0.397805 -1.5 0 
C -1.5 0.397805 -1.341951 0.77937 -1.06066 1.06066 
C -0.77937 1.341951 -0.397805 1.5 0 1.5 
z
" style="stroke: #3f3f3f"/>
    </defs>
    <g clip-path="url(#p6495303d4a)">
     <use xlink:href="#mec08b931b4" x="565.941176" y="230.456127" style="fill: #ffffff; stroke: #3f3f3f"/>
    </g>
   </g>
   <g id="text_25">
    <!-- keep budget -->
    <g transform="translate(528.310864 28.56) scale(0.12 -0.12)">
     <defs>
      <path id="DejaVuSans-6b" d="M 581 4863 
L 1159 4863 
L 1159 1991 
L 2875 3500 
L 3609 3500 
L 1753 1863 
L 3688 0 
L 2938 0 
L 1159 1709 
L 1159 0 
L 581 0 
L 581 4863 
z
" transform="scale(0.015625)"/>
      <path id="DejaVuSans-65" d="M 3597 1894 
L 3597 1613 
L 953 1613 
Q 991 1019 1311 708 
Q 1631 397 2203 397 
Q 2534 397 2845 478 
Q 3156 559 3463 722 
L 3463 178 
Q 3153 47 2828 -22 
Q 2503 -91 2169 -91 
Q 1331 -91 842 396 
Q 353 884 353 1716 
Q 353 2575 817 3079 
Q 1281 3584 2069 3584 
Q 2775 3584 3186 3129 
Q 3597 2675 3597 1894 
z
M 3022 2063 
Q 3016 2534 2758 2815 
Q 2500 3097 2075 3097 
Q 1594 3097 1305 2825 
Q 1016 2553 972 2059 
L 3022 2063 
z
" transform="scale(0.015625)"/>
      <path id="DejaVuSans-70" d="M 1159 525 
L 1159 -1331 
L 581 -1331 
L 581 3500 
L 1159 3500 
L 1159 2969 
Q 1341 3281 1617 3432 
Q 1894 3584 2278 3584 
Q 2916 3584 3314 3078 
Q 3713 2572 3713 1747 
Q 3713 922 3314 415 
Q 2916 -91 2278 -91 
Q 1894 -91 1617 61 
Q 1341 213 1159 525 
z
M 3116 1747 
Q 3116 2381 2855 2742 
Q 2594 3103 2138 3103 
Q 1681 3103 1420 2742 
Q 1159 2381 1159 1747 
Q 1159 1113 1420 752 
Q 1681 391 2138 391 
Q 2594 391 2855 752 
Q 3116 1113 3116 1747 
z
" transform="scale(0.015625)"/>
      <path id="DejaVuSans-20" transform="scale(0.015625)"/>
      <path id="DejaVuSans-62" d="M 3116 1747 
Q 3116 2381 2855 2742 
Q 2594 3103 2138 3103 
Q 1681 3103 1420 2742 
Q 1159 2381 1159 1747 
Q 1159 1113 1420 752 
Q 1681 391 2138 391 
Q 2594 391 2855 752 
Q 3116 1113 3116 1747 
z
M 1159 2969 
Q 1341 3281 1617 3432 
Q 1894 3584 2278 3584 
Q 2916 3584 3314 3078 
Q 3713 2572 3713 1747 
Q 3713 922 3314 415 
Q 2916 -91 2278 -91 
Q 1894 -91 1617 61 
Q 1341 213 1159 525 
L 1159 0 
L 581 0 
L 581 4863 
L 1159 4863 
L 1159 2969 
z
" transform="scale(0.015625)"/>
      <path id="DejaVuSans-75" d="M 544 1381 
L 544 3500 
L 1119 3500 
L 1119 1403 
Q 1119 906 1312 657 
Q 1506 409 1894 409 
Q 2359 409 2629 706 
Q 2900 1003 2900 1516 
L 2900 3500 
L 3475 3500 
L 3475 0 
L 2900 0 
L 2900 538 
Q 2691 219 2414 64 
Q 2138 -91 1772 -91 
Q 1169 -91 856 284 
Q 544 659 544 1381 
z
M 1991 3584 
L 1991 3584 
z
" transform="scale(0.015625)"/>
      <path id="DejaVuSans-64" d="M 2906 2969 
L 2906 4863 
L 3481 4863 
L 3481 0 
L 2906 0 
L 2906 525 
Q 2725 213 2448 61 
Q 2172 -91 1784 -91 
Q 1150 -91 751 415 
Q 353 922 353 1747 
Q 353 2572 751 3078 
Q 1150 3584 1784 3584 
Q 2172 3584 2448 3432 
Q 2725 3281 2906 2969 
z
M 947 1747 
Q 947 1113 1208 752 
Q 1469 391 1925 391 
Q 2381 391 2643 752 
Q 2906 1113 2906 1747 
Q 2906 2381 2643 2742 
Q 2381 3103 1925 3103 
Q 1469 3103 1208 2742 
Q 947 2381 947 1747 
z
" transform="scale(0.015625)"/>
      <path id="DejaVuSans-67" d="M 2906 1791 
Q 2906 2416 2648 2759 
Q 2391 3103 1925 3103 
Q 1463 3103 1205 2759 
Q 947 2416 947 1791 
Q 947 1169 1205 825 
Q 1463 481 1925 481 
Q 2391 481 2648 825 
Q 2906 1169 2906 1791 
z
M 3481 434 
Q 3481 -459 3084 -895 
Q 2688 -1331 1869 -1331 
Q 1566 -1331 1297 -1286 
Q 1028 -1241 775 -1147 
L 775 -588 
Q 1028 -725 1275 -790 
Q 1522 -856 1778 -856 
Q 2344 -856 2625 -561 
Q 2906 -266 2906 331 
L 2906 616 
Q 2728 306 2450 153 
Q 2172 0 1784 0 
Q 1141 0 747 490 
Q 353 981 353 1791 
Q 353 2603 747 3093 
Q 1141 3584 1784 3584 
Q 2172 3584 2450 3431 
Q 2728 3278 2906 2969 
L 2906 3500 
L 3481 3500 
L 3481 434 
z
" transform="scale(0.015625)"/>
      <path id="DejaVuSans-74" d="M 1172 4494 
L 1172 3500 
L 2356 3500 
L 2356 3053 
L 1172 3053 
L 1172 1153 
Q 1172 725 1289 603 
Q 1406 481 1766 481 
L 2356 481 
L 2356 0 
L 1766 0 
Q 1100 0 847 248 
Q 594 497 594 1153 
L 594 3053 
L 172 3053 
L 172 3500 
L 594 3500 
L 594 4494 
L 1172 4494 
z
" transform="scale(0.015625)"/>
     </defs>
     <use xlink:href="#DejaVuSans-6b"/>
     <use xlink:href="#DejaVuSans-65" x="54.285156"/>
     <use xlink:href="#DejaVuSans-65" x="115.808594"/>
     <use xlink:href="#DejaVuSans-70" x="177.332031"/>
     <use xlink:href="#DejaVuSans-20" x="240.808594"/>
     <use xlink:href="#DejaVuSans-62" x="272.595703"/>
     <use xlink:href="#DejaVuSans-75" x="336.072266"/>
     <use xlink:href="#DejaVuSans-64" x="399.451172"/>
     <use xlink:href="#DejaVuSans-67" x="462.927734"/>
     <use xlink:href="#DejaVuSans-65" x="526.404297"/>
     <use xlink:href="#DejaVuSans-74" x="587.927734"/>
    </g>
   </g>
  </g>
  <g id="text_26">
   <!-- $A$: low BDI -->
   <g transform="translate(329.28 14.878125) scale(0.12 -0.12)">
    <defs>
     <path id="DejaVuSans-Oblique-41" d="M 2356 4666 
L 3072 4666 
L 3938 0 
L 3278 0 
L 3084 1197 
L 984 1197 
L 325 0 
L -341 0 
L 2356 4666 
z
M 2584 4044 
L 1275 1722 
L 2988 1722 
L 2584 4044 
z
" transform="scale(0.015625)"/>
     <path id="DejaVuSans-3a" d="M 750 794 
L 1409 794 
L 1409 0 
L 750 0 
L 750 794 
z
M 750 3309 
L 1409 3309 
L 1409 2516 
L 750 2516 
L 750 3309 
z
" transform="scale(0.015625)"/>
     <path id="DejaVuSans-42" d="M 1259 2228 
L 1259 519 
L 2272 519 
Q 2781 519 3026 730 
Q 3272 941 3272 1375 
Q 3272 1813 3026 2020 
Q 2781 2228 2272 2228 
L 1259 2228 
z
M 1259 4147 
L 1259 2741 
L 2194 2741 
Q 2656 2741 2882 2914 
Q 3109 3088 3109 3444 
Q 3109 3797 2882 3972 
Q 2656 4147 2194 4147 
L 1259 4147 
z
M 628 4666 
L 2241 4666 
Q 2963 4666 3353 4366 
Q 3744 4066 3744 3513 
Q 3744 3084 3544 2831 
Q 3344 2578 2956 2516 
Q 3422 2416 3680 2098 
Q 3938 1781 3938 1306 
Q 3938 681 3513 340 
Q 3088 0 2303 0 
L 628 0 
L 628 4666 
z
" transform="scale(0.015625)"/>
     <path id="DejaVuSans-44" d="M 1259 4147 
L 1259 519 
L 2022 519 
Q 2988 519 3436 956 
Q 3884 1394 3884 2338 
Q 3884 3275 3436 3711 
Q 2988 4147 2022 4147 
L 1259 4147 
z
M 628 4666 
L 1925 4666 
Q 3281 4666 3915 4102 
Q 4550 3538 4550 2338 
Q 4550 1131 3912 565 
Q 3275 0 1925 0 
L 628 0 
L 628 4666 
z
" transform="scale(0.015625)"/>
     <path id="DejaVuSans-49" d="M 628 4666 
L 1259 4666 
L 1259 0 
L 628 0 
L 628 4666 
z
" transform="scale(0.015625)"/>
    </defs>
    <use xlink:href="#DejaVuSans-Oblique-41" transform="translate(0 0.015625)"/>
    <use xlink:href="#DejaVuSans-3a" transform="translate(68.408203 0.015625)"/>
    <use xlink:href="#DejaVuSans-20" transform="translate(102.099609 0.015625)"/>
    <use xlink:href="#DejaVuSans-6c" transform="translate(133.886719 0.015625)"/>
    <use xlink:href="#DejaVuSans-6f" transform="translate(161.669922 0.015625)"/>
    <use xlink:href="#DejaVuSans-77" transform="translate(222.851562 0.015625)"/>
    <use xlink:href="#DejaVuSans-20" transform="translate(304.638672 0.015625)"/>
    <use xlink:href="#DejaVuSans-42" transform="translate(336.425781 0.015625)"/>
    <use xlink:href="#DejaVuSans-44" transform="translate(405.029297 0.015625)"/>
    <use xlink:href="#DejaVuSans-49" transform="translate(482.03125 0.015625)"/>
   </g>
  </g>
 </g>
 <defs>
  <clipPath id="p13ed168653">
   <rect x="90" y="34.56" width="164.117647" height="221.76"/>
  </clipPath>
  <clipPath id="p651a8e9096">
   <rect x="286.941176" y="34.56" width="164.117647" height="221.76"/>
  </clipPath>
  <clipPath id="p6495303d4a">
   <rect x="483.882353" y="34.56" width="164.117647" height="221.76"/>
  </clipPath>
 </defs>
</svg>
