<?xml version="1.0" encoding="utf-8" standalone="no"?>
<!DOCTYPE svg PUBLIC "-//W3C//DTD SVG 1.1//EN"
  "http://www.w3.org/Graphics/SVG/1.1/DTD/svg11.dtd">
<svg xmlns:xlink="http://www.w3.org/1999/xlink" width="720pt" height="288pt" viewBox="0 0 720 288" xmlns="http://www.w3.org/2000/svg" version="1.1">
 <metadata>
  <rdf:RDF xmlns:dc="http://purl.org/dc/elements/1.1/" xmlns:cc="http://creativecommons.org/ns#" xmlns:rdf="http://www.w3.org/1999/02/22-rdf-syntax-ns#">
   <cc:Work>
    <dc:type rdf:resource="http://purl.org/dc/dcmitype/StillImage"/>
    <dc:date>2024-07-10T17:18:07.759254</dc:date>
    <dc:format>image/svg+xml</dc:format>
    <dc:creator>
     <cc:Agent>
      <dc:title>Matplotlib v3.7.2, https://matplotlib.org/</dc:title>
     </cc:Agent>
    </dc:creator>
   </cc:Work>
  </rdf:RDF>
 </metadata>
 <defs>
  <style type="text/css">*{stroke-linejoin: round; stroke-linecap: butt}</style>
 </defs>
 <g id="figure_1">
  <g id="patch_1">
   <path d="M 0 288 
L 720 288 
L 720 0 
L 0 0 
z
" style="fill: #ffffff"/>
  </g>
  <g id="axes_1">
   <g id="patch_2">
    <path d="M 90 256.32 
L 254.117647 256.32 
L 254.117647 34.56 
L 90 34.56 
z
" style="fill: #ffffff"/>
   </g>
   <g id="PolyCollection_1">
    <defs>
     <path id="m0f8fff7cad" d="M 173.547792 -145.196532 
L 170.569855 -145.196532 
L 170.257578 -146.364452 
L 169.898807 -147.532371 
L 169.490923 -148.700291 
L 169.032026 -149.868211 
L 168.521066 -151.036131 
L 167.957941 -152.20405 
L 167.34355 -153.37197 
L 166.679776 -154.53989 
L 165.969413 -155.70781 
L 165.216012 -156.875729 
L 164.423659 -158.043649 
L 163.596683 -159.211569 
L 162.739321 -160.379489 
L 161.855356 -161.547408 
L 160.947747 -162.715328 
L 160.018298 -163.883248 
L 159.067392 -165.051168 
L 158.093811 -166.219088 
L 157.094699 -167.387007 
L 156.065655 -168.554927 
L 155.000993 -169.722847 
L 153.894151 -170.890767 
L 152.738236 -172.058686 
L 151.526686 -173.226606 
L 150.25398 -174.394526 
L 148.916371 -175.562446 
L 147.512566 -176.730365 
L 146.044283 -177.898285 
L 144.51665 -179.066205 
L 142.938367 -180.234125 
L 141.321625 -181.402044 
L 139.681733 -182.569964 
L 138.036488 -183.737884 
L 136.405286 -184.905804 
L 134.808045 -186.073723 
L 133.263991 -187.241643 
L 131.790405 -188.409563 
L 130.401404 -189.577483 
L 129.106873 -190.745402 
L 127.911623 -191.913322 
L 126.814851 -193.081242 
L 125.809977 -194.249162 
L 124.88488 -195.417081 
L 124.022541 -196.585001 
L 123.202087 -197.752921 
L 122.400159 -198.920841 
L 121.592556 -200.08876 
L 120.756032 -201.25668 
L 119.870146 -202.4246 
L 118.919037 -203.59252 
L 117.892994 -204.760439 
L 116.789721 -205.928359 
L 115.615184 -207.096279 
L 114.383983 -208.264199 
L 113.119191 -209.432118 
L 111.851672 -210.600038 
L 110.618884 -211.767958 
L 109.46325 -212.935878 
L 108.430185 -214.103797 
L 107.565889 -215.271717 
L 106.915058 -216.439637 
L 106.518636 -217.607557 
L 106.411765 -218.775476 
L 106.622043 -219.943396 
L 107.168195 -221.111316 
L 108.059231 -222.279236 
L 109.294126 -223.447155 
L 110.862011 -224.615075 
L 112.742863 -225.782995 
L 114.9086 -226.950915 
L 117.324513 -228.118834 
L 119.950911 -229.286754 
L 122.744882 -230.454674 
L 125.662045 -231.622594 
L 128.658206 -232.790513 
L 131.690823 -233.958433 
L 134.720231 -235.126353 
L 137.710578 -236.294273 
L 140.63048 -237.462192 
L 143.45337 -238.630112 
L 146.157609 -239.798032 
L 148.726367 -240.965952 
L 151.147332 -242.133871 
L 153.412307 -243.301791 
L 155.516724 -244.469711 
L 157.459132 -245.637631 
L 159.240694 -246.80555 
L 160.864702 -247.97347 
L 162.33615 -249.14139 
L 163.661354 -250.30931 
L 164.847627 -251.477229 
L 165.903012 -252.645149 
L 166.836053 -253.813069 
L 167.655609 -254.980989 
L 168.370691 -256.148908 
L 168.990328 -257.316828 
L 169.523446 -258.484748 
L 169.978762 -259.652668 
L 170.364692 -260.820587 
L 173.752955 -260.820587 
L 173.752955 -260.820587 
L 174.138885 -259.652668 
L 174.594201 -258.484748 
L 175.127319 -257.316828 
L 175.746956 -256.148908 
L 176.462038 -254.980989 
L 177.281594 -253.813069 
L 178.214635 -252.645149 
L 179.27002 -251.477229 
L 180.456294 -250.30931 
L 181.781497 -249.14139 
L 183.252945 -247.97347 
L 184.876953 -246.80555 
L 186.658515 -245.637631 
L 188.600923 -244.469711 
L 190.70534 -243.301791 
L 192.970315 -242.133871 
L 195.39128 -240.965952 
L 197.960038 -239.798032 
L 200.664278 -238.630112 
L 203.487168 -237.462192 
L 206.407069 -236.294273 
L 209.397417 -235.126353 
L 212.426824 -233.958433 
L 215.459441 -232.790513 
L 218.455602 -231.622594 
L 221.372765 -230.454674 
L 224.166736 -229.286754 
L 226.793134 -228.118834 
L 229.209047 -226.950915 
L 231.374784 -225.782995 
L 233.255636 -224.615075 
L 234.823521 -223.447155 
L 236.058416 -222.279236 
L 236.949452 -221.111316 
L 237.495604 -219.943396 
L 237.705882 -218.775476 
L 237.599012 -217.607557 
L 237.202589 -216.439637 
L 236.551758 -215.271717 
L 235.687462 -214.103797 
L 234.654397 -212.935878 
L 233.498763 -211.767958 
L 232.265975 -210.600038 
L 230.998456 -209.432118 
L 229.733664 -208.264199 
L 228.502463 -207.096279 
L 227.327926 -205.928359 
L 226.224653 -204.760439 
L 225.19861 -203.59252 
L 224.247501 -202.4246 
L 223.361615 -201.25668 
L 222.525091 -200.08876 
L 221.717488 -198.920841 
L 220.91556 -197.752921 
L 220.095106 -196.585001 
L 219.232768 -195.417081 
L 218.30767 -194.249162 
L 217.302796 -193.081242 
L 216.206024 -191.913322 
L 215.010774 -190.745402 
L 213.716244 -189.577483 
L 212.327242 -188.409563 
L 210.853656 -187.241643 
L 209.309602 -186.073723 
L 207.712361 -184.905804 
L 206.081159 -183.737884 
L 204.435914 -182.569964 
L 202.796023 -181.402044 
L 201.17928 -180.234125 
L 199.600997 -179.066205 
L 198.073364 -177.898285 
L 196.605081 -176.730365 
L 195.201276 -175.562446 
L 193.863667 -174.394526 
L 192.590961 -173.226606 
L 191.379411 -172.058686 
L 190.223496 -170.890767 
L 189.116654 -169.722847 
L 188.051992 -168.554927 
L 187.022948 -167.387007 
L 186.023836 -166.219088 
L 185.050255 -165.051168 
L 184.099349 -163.883248 
L 183.1699 -162.715328 
L 182.262291 -161.547408 
L 181.378326 -160.379489 
L 180.520964 -159.211569 
L 179.693988 -158.043649 
L 178.901635 -156.875729 
L 178.148234 -155.70781 
L 177.437872 -154.53989 
L 176.774097 -153.37197 
L 176.159706 -152.20405 
L 175.596581 -151.036131 
L 175.085621 -149.868211 
L 174.626724 -148.700291 
L 174.21884 -147.532371 
L 173.860069 -146.364452 
L 173.547792 -145.196532 
z
" style="stroke: #4c4c4c; stroke-opacity: 0.5; stroke-width: 1.5"/>
    </defs>
    <g clip-path="url(#pe99c6ba0ec)">
     <use xlink:href="#m0f8fff7cad" x="0" y="288" style="fill: #45ba45; fill-opacity: 0.5; stroke: #4c4c4c; stroke-opacity: 0.5; stroke-width: 1.5"/>
    </g>
   </g>
   <g id="matplotlib.axis_1">
    <g id="xtick_1">
     <g id="line2d_1">
      <defs>
       <path id="me03b1d74cc" d="M 0 0 
L 0 3.5 
" style="stroke: #000000; stroke-width: 0.8"/>
      </defs>
      <g>
       <use xlink:href="#me03b1d74cc" x="172.058824" y="256.32" style="stroke: #000000; stroke-width: 0.8"/>
      </g>
     </g>
     <g id="text_1">
      <!-- 0 -->
      <g transform="translate(168.877574 270.918437) scale(0.1 -0.1)">
       <defs>
        <path id="DejaVuSans-30" d="M 2034 4250 
Q 1547 4250 1301 3770 
Q 1056 3291 1056 2328 
Q 1056 1369 1301 889 
Q 1547 409 2034 409 
Q 2525 409 2770 889 
Q 3016 1369 3016 2328 
Q 3016 3291 2770 3770 
Q 2525 4250 2034 4250 
z
M 2034 4750 
Q 2819 4750 3233 4129 
Q 3647 3509 3647 2328 
Q 3647 1150 3233 529 
Q 2819 -91 2034 -91 
Q 1250 -91 836 529 
Q 422 1150 422 2328 
Q 422 3509 836 4129 
Q 1250 4750 2034 4750 
z
" transform="scale(0.015625)"/>
       </defs>
       <use xlink:href="#DejaVuSans-30"/>
      </g>
     </g>
    </g>
   </g>
   <g id="matplotlib.axis_2">
    <g id="ytick_1">
     <g id="line2d_2">
      <defs>
       <path id="m81d848ef75" d="M 0 0 
L -3.5 0 
" style="stroke: #000000; stroke-width: 0.8"/>
      </defs>
      <g>
       <use xlink:href="#m81d848ef75" x="90" y="256.32" style="stroke: #000000; stroke-width: 0.8"/>
      </g>
     </g>
     <g id="text_2">
      <!-- 0.0 -->
      <g transform="translate(67.096875 260.119219) scale(0.1 -0.1)">
       <defs>
        <path id="DejaVuSans-2e" d="M 684 794 
L 1344 794 
L 1344 0 
L 684 0 
L 684 794 
z
" transform="scale(0.015625)"/>
       </defs>
       <use xlink:href="#DejaVuSans-30"/>
       <use xlink:href="#DejaVuSans-2e" x="63.623047"/>
       <use xlink:href="#DejaVuSans-30" x="95.410156"/>
      </g>
     </g>
    </g>
    <g id="ytick_2">
     <g id="line2d_3">
      <g>
       <use xlink:href="#m81d848ef75" x="90" y="211.968" style="stroke: #000000; stroke-width: 0.8"/>
      </g>
     </g>
     <g id="text_3">
      <!-- 0.2 -->
      <g transform="translate(67.096875 215.767219) scale(0.1 -0.1)">
       <defs>
        <path id="DejaVuSans-32" d="M 1228 531 
L 3431 531 
L 3431 0 
L 469 0 
L 469 531 
Q 828 903 1448 1529 
Q 2069 2156 2228 2338 
Q 2531 2678 2651 2914 
Q 2772 3150 2772 3378 
Q 2772 3750 2511 3984 
Q 2250 4219 1831 4219 
Q 1534 4219 1204 4116 
Q 875 4013 500 3803 
L 500 4441 
Q 881 4594 1212 4672 
Q 1544 4750 1819 4750 
Q 2544 4750 2975 4387 
Q 3406 4025 3406 3419 
Q 3406 3131 3298 2873 
Q 3191 2616 2906 2266 
Q 2828 2175 2409 1742 
Q 1991 1309 1228 531 
z
" transform="scale(0.015625)"/>
       </defs>
       <use xlink:href="#DejaVuSans-30"/>
       <use xlink:href="#DejaVuSans-2e" x="63.623047"/>
       <use xlink:href="#DejaVuSans-32" x="95.410156"/>
      </g>
     </g>
    </g>
    <g id="ytick_3">
     <g id="line2d_4">
      <g>
       <use xlink:href="#m81d848ef75" x="90" y="167.616" style="stroke: #000000; stroke-width: 0.8"/>
      </g>
     </g>
     <g id="text_4">
      <!-- 0.4 -->
      <g transform="translate(67.096875 171.415219) scale(0.1 -0.1)">
       <defs>
        <path id="DejaVuSans-34" d="M 2419 4116 
L 825 1625 
L 2419 1625 
L 2419 4116 
z
M 2253 4666 
L 3047 4666 
L 3047 1625 
L 3713 1625 
L 3713 1100 
L 3047 1100 
L 3047 0 
L 2419 0 
L 2419 1100 
L 313 1100 
L 313 1709 
L 2253 4666 
z
" transform="scale(0.015625)"/>
       </defs>
       <use xlink:href="#DejaVuSans-30"/>
       <use xlink:href="#DejaVuSans-2e" x="63.623047"/>
       <use xlink:href="#DejaVuSans-34" x="95.410156"/>
      </g>
     </g>
    </g>
    <g id="ytick_4">
     <g id="line2d_5">
      <g>
       <use xlink:href="#m81d848ef75" x="90" y="123.264" style="stroke: #000000; stroke-width: 0.8"/>
      </g>
     </g>
     <g id="text_5">
      <!-- 0.6 -->
      <g transform="translate(67.096875 127.063219) scale(0.1 -0.1)">
       <defs>
        <path id="DejaVuSans-36" d="M 2113 2584 
Q 1688 2584 1439 2293 
Q 1191 2003 1191 1497 
Q 1191 994 1439 701 
Q 1688 409 2113 409 
Q 2538 409 2786 701 
Q 3034 994 3034 1497 
Q 3034 2003 2786 2293 
Q 2538 2584 2113 2584 
z
M 3366 4563 
L 3366 3988 
Q 3128 4100 2886 4159 
Q 2644 4219 2406 4219 
Q 1781 4219 1451 3797 
Q 1122 3375 1075 2522 
Q 1259 2794 1537 2939 
Q 1816 3084 2150 3084 
Q 2853 3084 3261 2657 
Q 3669 2231 3669 1497 
Q 3669 778 3244 343 
Q 2819 -91 2113 -91 
Q 1303 -91 875 529 
Q 447 1150 447 2328 
Q 447 3434 972 4092 
Q 1497 4750 2381 4750 
Q 2619 4750 2861 4703 
Q 3103 4656 3366 4563 
z
" transform="scale(0.015625)"/>
       </defs>
       <use xlink:href="#DejaVuSans-30"/>
       <use xlink:href="#DejaVuSans-2e" x="63.623047"/>
       <use xlink:href="#DejaVuSans-36" x="95.410156"/>
      </g>
     </g>
    </g>
    <g id="ytick_5">
     <g id="line2d_6">
      <g>
       <use xlink:href="#m81d848ef75" x="90" y="78.912" style="stroke: #000000; stroke-width: 0.8"/>
      </g>
     </g>
     <g id="text_6">
      <!-- 0.8 -->
      <g transform="translate(67.096875 82.711219) scale(0.1 -0.1)">
       <defs>
        <path id="DejaVuSans-38" d="M 2034 2216 
Q 1584 2216 1326 1975 
Q 1069 1734 1069 1313 
Q 1069 891 1326 650 
Q 1584 409 2034 409 
Q 2484 409 2743 651 
Q 3003 894 3003 1313 
Q 3003 1734 2745 1975 
Q 2488 2216 2034 2216 
z
M 1403 2484 
Q 997 2584 770 2862 
Q 544 3141 544 3541 
Q 544 4100 942 4425 
Q 1341 4750 2034 4750 
Q 2731 4750 3128 4425 
Q 3525 4100 3525 3541 
Q 3525 3141 3298 2862 
Q 3072 2584 2669 2484 
Q 3125 2378 3379 2068 
Q 3634 1759 3634 1313 
Q 3634 634 3220 271 
Q 2806 -91 2034 -91 
Q 1263 -91 848 271 
Q 434 634 434 1313 
Q 434 1759 690 2068 
Q 947 2378 1403 2484 
z
M 1172 3481 
Q 1172 3119 1398 2916 
Q 1625 2713 2034 2713 
Q 2441 2713 2670 2916 
Q 2900 3119 2900 3481 
Q 2900 3844 2670 4047 
Q 2441 4250 2034 4250 
Q 1625 4250 1398 4047 
Q 1172 3844 1172 3481 
z
" transform="scale(0.015625)"/>
       </defs>
       <use xlink:href="#DejaVuSans-30"/>
       <use xlink:href="#DejaVuSans-2e" x="63.623047"/>
       <use xlink:href="#DejaVuSans-38" x="95.410156"/>
      </g>
     </g>
    </g>
    <g id="ytick_6">
     <g id="line2d_7">
      <g>
       <use xlink:href="#m81d848ef75" x="90" y="34.56" style="stroke: #000000; stroke-width: 0.8"/>
      </g>
     </g>
     <g id="text_7">
      <!-- 1.0 -->
      <g transform="translate(67.096875 38.359219) scale(0.1 -0.1)">
       <defs>
        <path id="DejaVuSans-31" d="M 794 531 
L 1825 531 
L 1825 4091 
L 703 3866 
L 703 4441 
L 1819 4666 
L 2450 4666 
L 2450 531 
L 3481 531 
L 3481 0 
L 794 0 
L 794 531 
z
" transform="scale(0.015625)"/>
       </defs>
       <use xlink:href="#DejaVuSans-31"/>
       <use xlink:href="#DejaVuSans-2e" x="63.623047"/>
       <use xlink:href="#DejaVuSans-30" x="95.410156"/>
      </g>
     </g>
    </g>
    <g id="text_8">
     <!-- $p$ -->
     <g transform="translate(60.996875 148.64) rotate(-90) scale(0.1 -0.1)">
      <defs>
       <path id="DejaVuSans-Oblique-70" d="M 3175 2156 
Q 3175 2616 2975 2859 
Q 2775 3103 2400 3103 
Q 2144 3103 1911 2972 
Q 1678 2841 1497 2591 
Q 1319 2344 1212 1994 
Q 1106 1644 1106 1300 
Q 1106 863 1306 627 
Q 1506 391 1875 391 
Q 2147 391 2380 519 
Q 2613 647 2778 891 
Q 2956 1147 3065 1494 
Q 3175 1841 3175 2156 
z
M 1394 2969 
Q 1625 3272 1939 3428 
Q 2253 3584 2638 3584 
Q 3175 3584 3472 3232 
Q 3769 2881 3769 2247 
Q 3769 1728 3584 1258 
Q 3400 788 3053 416 
Q 2822 169 2531 39 
Q 2241 -91 1919 -91 
Q 1547 -91 1294 64 
Q 1041 219 916 525 
L 556 -1331 
L -19 -1331 
L 922 3500 
L 1497 3500 
L 1394 2969 
z
" transform="scale(0.015625)"/>
      </defs>
      <use xlink:href="#DejaVuSans-Oblique-70"/>
     </g>
    </g>
   </g>
   <g id="line2d_8">
    <path d="M 172.058824 118.52044 
L 172.058824 51.462441 
" clip-path="url(#pe99c6ba0ec)" style="fill: none; stroke: #4c4c4c; stroke-width: 1.5; stroke-linecap: square"/>
   </g>
   <g id="line2d_9">
    <path d="M 172.058824 94.964388 
L 172.058824 67.389862 
" clip-path="url(#pe99c6ba0ec)" style="fill: none; stroke: #4c4c4c; stroke-width: 4.5; stroke-linecap: square"/>
   </g>
   <g id="patch_3">
    <path d="M 90 256.32 
L 90 34.56 
" style="fill: none; stroke: #000000; stroke-width: 0.8; stroke-linejoin: miter; stroke-linecap: square"/>
   </g>
   <g id="patch_4">
    <path d="M 254.117647 256.32 
L 254.117647 34.56 
" style="fill: none; stroke: #000000; stroke-width: 0.8; stroke-linejoin: miter; stroke-linecap: square"/>
   </g>
   <g id="patch_5">
    <path d="M 90 256.32 
L 254.117647 256.32 
" style="fill: none; stroke: #000000; stroke-width: 0.8; stroke-linejoin: miter; stroke-linecap: square"/>
   </g>
   <g id="patch_6">
    <path d="M 90 34.56 
L 254.117647 34.56 
" style="fill: none; stroke: #000000; stroke-width: 0.8; stroke-linejoin: miter; stroke-linecap: square"/>
   </g>
   <g id="PathCollection_1">
    <defs>
     <path id="mb2cded5c9d" d="M 0 1.5 
C 0.397805 1.5 0.77937 1.341951 1.06066 1.06066 
C 1.341951 0.77937 1.5 0.397805 1.5 0 
C 1.5 -0.397805 1.341951 -0.77937 1.06066 -1.06066 
C 0.77937 -1.341951 0.397805 -1.5 0 -1.5 
C -0.397805 -1.5 -0.77937 -1.341951 -1.06066 -1.06066 
C -1.341951 -0.77937 -1.5 -0.397805 -1.5 0 
C -1.5 0.397805 -1.341951 0.77937 -1.06066 1.06066 
C -0.77937 1.341951 -0.397805 1.5 0 1.5 
z
" style="stroke: #4c4c4c; stroke-opacity: 0.5"/>
    </defs>
    <g clip-path="url(#pe99c6ba0ec)">
     <use xlink:href="#mb2cded5c9d" x="172.058824" y="69.13768" style="fill: #ffffff; fill-opacity: 0.5; stroke: #4c4c4c; stroke-opacity: 0.5"/>
    </g>
   </g>
   <g id="text_9">
    <!-- $p(return)$|cooperative -->
    <g transform="translate(107.378824 28.56) scale(0.12 -0.12)">
     <defs>
      <path id="DejaVuSans-28" d="M 1984 4856 
Q 1566 4138 1362 3434 
Q 1159 2731 1159 2009 
Q 1159 1288 1364 580 
Q 1569 -128 1984 -844 
L 1484 -844 
Q 1016 -109 783 600 
Q 550 1309 550 2009 
Q 550 2706 781 3412 
Q 1013 4119 1484 4856 
L 1984 4856 
z
" transform="scale(0.015625)"/>
      <path id="DejaVuSans-Oblique-72" d="M 2853 2969 
Q 2766 3016 2653 3041 
Q 2541 3066 2413 3066 
Q 1953 3066 1609 2717 
Q 1266 2369 1153 1784 
L 800 0 
L 225 0 
L 909 3500 
L 1484 3500 
L 1375 2956 
Q 1603 3259 1920 3421 
Q 2238 3584 2597 3584 
Q 2691 3584 2781 3573 
Q 2872 3563 2963 3538 
L 2853 2969 
z
" transform="scale(0.015625)"/>
      <path id="DejaVuSans-Oblique-65" d="M 3078 2063 
Q 3088 2113 3092 2166 
Q 3097 2219 3097 2272 
Q 3097 2653 2873 2875 
Q 2650 3097 2266 3097 
Q 1838 3097 1509 2826 
Q 1181 2556 1013 2059 
L 3078 2063 
z
M 3578 1613 
L 903 1613 
Q 884 1494 878 1425 
Q 872 1356 872 1306 
Q 872 872 1139 634 
Q 1406 397 1894 397 
Q 2269 397 2603 481 
Q 2938 566 3225 728 
L 3116 159 
Q 2806 34 2476 -28 
Q 2147 -91 1806 -91 
Q 1078 -91 686 257 
Q 294 606 294 1247 
Q 294 1794 489 2264 
Q 684 2734 1063 3103 
Q 1306 3334 1642 3459 
Q 1978 3584 2356 3584 
Q 2950 3584 3301 3228 
Q 3653 2872 3653 2272 
Q 3653 2128 3634 1964 
Q 3616 1800 3578 1613 
z
" transform="scale(0.015625)"/>
      <path id="DejaVuSans-Oblique-74" d="M 2706 3500 
L 2619 3053 
L 1472 3053 
L 1100 1153 
Q 1081 1047 1072 975 
Q 1063 903 1063 863 
Q 1063 663 1183 572 
Q 1303 481 1569 481 
L 2150 481 
L 2053 0 
L 1503 0 
Q 991 0 739 200 
Q 488 400 488 806 
Q 488 878 497 964 
Q 506 1050 525 1153 
L 897 3053 
L 409 3053 
L 500 3500 
L 978 3500 
L 1172 4494 
L 1747 4494 
L 1556 3500 
L 2706 3500 
z
" transform="scale(0.015625)"/>
      <path id="DejaVuSans-Oblique-75" d="M 428 1388 
L 838 3500 
L 1416 3500 
L 1006 1409 
Q 975 1256 961 1147 
Q 947 1038 947 966 
Q 947 700 1109 554 
Q 1272 409 1569 409 
Q 2031 409 2368 721 
Q 2706 1034 2809 1563 
L 3194 3500 
L 3769 3500 
L 3091 0 
L 2516 0 
L 2631 550 
Q 2388 244 2052 76 
Q 1716 -91 1338 -91 
Q 878 -91 622 161 
Q 366 413 366 863 
Q 366 956 381 1097 
Q 397 1238 428 1388 
z
" transform="scale(0.015625)"/>
      <path id="DejaVuSans-Oblique-6e" d="M 3566 2113 
L 3156 0 
L 2578 0 
L 2988 2091 
Q 3016 2238 3031 2350 
Q 3047 2463 3047 2528 
Q 3047 2791 2881 2937 
Q 2716 3084 2419 3084 
Q 1956 3084 1622 2776 
Q 1288 2469 1184 1941 
L 800 0 
L 225 0 
L 903 3500 
L 1478 3500 
L 1363 2950 
Q 1603 3253 1940 3418 
Q 2278 3584 2650 3584 
Q 3113 3584 3367 3334 
Q 3622 3084 3622 2631 
Q 3622 2519 3608 2391 
Q 3594 2263 3566 2113 
z
" transform="scale(0.015625)"/>
      <path id="DejaVuSans-29" d="M 513 4856 
L 1013 4856 
Q 1481 4119 1714 3412 
Q 1947 2706 1947 2009 
Q 1947 1309 1714 600 
Q 1481 -109 1013 -844 
L 513 -844 
Q 928 -128 1133 580 
Q 1338 1288 1338 2009 
Q 1338 2731 1133 3434 
Q 928 4138 513 4856 
z
" transform="scale(0.015625)"/>
      <path id="DejaVuSans-7c" d="M 1344 4891 
L 1344 -1509 
L 813 -1509 
L 813 4891 
L 1344 4891 
z
" transform="scale(0.015625)"/>
      <path id="DejaVuSans-63" d="M 3122 3366 
L 3122 2828 
Q 2878 2963 2633 3030 
Q 2388 3097 2138 3097 
Q 1578 3097 1268 2742 
Q 959 2388 959 1747 
Q 959 1106 1268 751 
Q 1578 397 2138 397 
Q 2388 397 2633 464 
Q 2878 531 3122 666 
L 3122 134 
Q 2881 22 2623 -34 
Q 2366 -91 2075 -91 
Q 1284 -91 818 406 
Q 353 903 353 1747 
Q 353 2603 823 3093 
Q 1294 3584 2113 3584 
Q 2378 3584 2631 3529 
Q 2884 3475 3122 3366 
z
" transform="scale(0.015625)"/>
      <path id="DejaVuSans-6f" d="M 1959 3097 
Q 1497 3097 1228 2736 
Q 959 2375 959 1747 
Q 959 1119 1226 758 
Q 1494 397 1959 397 
Q 2419 397 2687 759 
Q 2956 1122 2956 1747 
Q 2956 2369 2687 2733 
Q 2419 3097 1959 3097 
z
M 1959 3584 
Q 2709 3584 3137 3096 
Q 3566 2609 3566 1747 
Q 3566 888 3137 398 
Q 2709 -91 1959 -91 
Q 1206 -91 779 398 
Q 353 888 353 1747 
Q 353 2609 779 3096 
Q 1206 3584 1959 3584 
z
" transform="scale(0.015625)"/>
      <path id="DejaVuSans-70" d="M 1159 525 
L 1159 -1331 
L 581 -1331 
L 581 3500 
L 1159 3500 
L 1159 2969 
Q 1341 3281 1617 3432 
Q 1894 3584 2278 3584 
Q 2916 3584 3314 3078 
Q 3713 2572 3713 1747 
Q 3713 922 3314 415 
Q 2916 -91 2278 -91 
Q 1894 -91 1617 61 
Q 1341 213 1159 525 
z
M 3116 1747 
Q 3116 2381 2855 2742 
Q 2594 3103 2138 3103 
Q 1681 3103 1420 2742 
Q 1159 2381 1159 1747 
Q 1159 1113 1420 752 
Q 1681 391 2138 391 
Q 2594 391 2855 752 
Q 3116 1113 3116 1747 
z
" transform="scale(0.015625)"/>
      <path id="DejaVuSans-65" d="M 3597 1894 
L 3597 1613 
L 953 1613 
Q 991 1019 1311 708 
Q 1631 397 2203 397 
Q 2534 397 2845 478 
Q 3156 559 3463 722 
L 3463 178 
Q 3153 47 2828 -22 
Q 2503 -91 2169 -91 
Q 1331 -91 842 396 
Q 353 884 353 1716 
Q 353 2575 817 3079 
Q 1281 3584 2069 3584 
Q 2775 3584 3186 3129 
Q 3597 2675 3597 1894 
z
M 3022 2063 
Q 3016 2534 2758 2815 
Q 2500 3097 2075 3097 
Q 1594 3097 1305 2825 
Q 1016 2553 972 2059 
L 3022 2063 
z
" transform="scale(0.015625)"/>
      <path id="DejaVuSans-72" d="M 2631 2963 
Q 2534 3019 2420 3045 
Q 2306 3072 2169 3072 
Q 1681 3072 1420 2755 
Q 1159 2438 1159 1844 
L 1159 0 
L 581 0 
L 581 3500 
L 1159 3500 
L 1159 2956 
Q 1341 3275 1631 3429 
Q 1922 3584 2338 3584 
Q 2397 3584 2469 3576 
Q 2541 3569 2628 3553 
L 2631 2963 
z
" transform="scale(0.015625)"/>
      <path id="DejaVuSans-61" d="M 2194 1759 
Q 1497 1759 1228 1600 
Q 959 1441 959 1056 
Q 959 750 1161 570 
Q 1363 391 1709 391 
Q 2188 391 2477 730 
Q 2766 1069 2766 1631 
L 2766 1759 
L 2194 1759 
z
M 3341 1997 
L 3341 0 
L 2766 0 
L 2766 531 
Q 2569 213 2275 61 
Q 1981 -91 1556 -91 
Q 1019 -91 701 211 
Q 384 513 384 1019 
Q 384 1609 779 1909 
Q 1175 2209 1959 2209 
L 2766 2209 
L 2766 2266 
Q 2766 2663 2505 2880 
Q 2244 3097 1772 3097 
Q 1472 3097 1187 3025 
Q 903 2953 641 2809 
L 641 3341 
Q 956 3463 1253 3523 
Q 1550 3584 1831 3584 
Q 2591 3584 2966 3190 
Q 3341 2797 3341 1997 
z
" transform="scale(0.015625)"/>
      <path id="DejaVuSans-74" d="M 1172 4494 
L 1172 3500 
L 2356 3500 
L 2356 3053 
L 1172 3053 
L 1172 1153 
Q 1172 725 1289 603 
Q 1406 481 1766 481 
L 2356 481 
L 2356 0 
L 1766 0 
Q 1100 0 847 248 
Q 594 497 594 1153 
L 594 3053 
L 172 3053 
L 172 3500 
L 594 3500 
L 594 4494 
L 1172 4494 
z
" transform="scale(0.015625)"/>
      <path id="DejaVuSans-69" d="M 603 3500 
L 1178 3500 
L 1178 0 
L 603 0 
L 603 3500 
z
M 603 4863 
L 1178 4863 
L 1178 4134 
L 603 4134 
L 603 4863 
z
" transform="scale(0.015625)"/>
      <path id="DejaVuSans-76" d="M 191 3500 
L 800 3500 
L 1894 563 
L 2988 3500 
L 3597 3500 
L 2284 0 
L 1503 0 
L 191 3500 
z
" transform="scale(0.015625)"/>
     </defs>
     <use xlink:href="#DejaVuSans-Oblique-70" transform="translate(0 0.578125)"/>
     <use xlink:href="#DejaVuSans-28" transform="translate(63.476562 0.578125)"/>
     <use xlink:href="#DejaVuSans-Oblique-72" transform="translate(102.490234 0.578125)"/>
     <use xlink:href="#DejaVuSans-Oblique-65" transform="translate(143.603516 0.578125)"/>
     <use xlink:href="#DejaVuSans-Oblique-74" transform="translate(205.126953 0.578125)"/>
     <use xlink:href="#DejaVuSans-Oblique-75" transform="translate(244.335938 0.578125)"/>
     <use xlink:href="#DejaVuSans-Oblique-72" transform="translate(307.714844 0.578125)"/>
     <use xlink:href="#DejaVuSans-Oblique-6e" transform="translate(348.828125 0.578125)"/>
     <use xlink:href="#DejaVuSans-29" transform="translate(412.207031 0.578125)"/>
     <use xlink:href="#DejaVuSans-7c" transform="translate(451.220703 0.578125)"/>
     <use xlink:href="#DejaVuSans-63" transform="translate(484.912109 0.578125)"/>
     <use xlink:href="#DejaVuSans-6f" transform="translate(539.892578 0.578125)"/>
     <use xlink:href="#DejaVuSans-6f" transform="translate(601.074219 0.578125)"/>
     <use xlink:href="#DejaVuSans-70" transform="translate(662.255859 0.578125)"/>
     <use xlink:href="#DejaVuSans-65" transform="translate(725.732422 0.578125)"/>
     <use xlink:href="#DejaVuSans-72" transform="translate(787.255859 0.578125)"/>
     <use xlink:href="#DejaVuSans-61" transform="translate(828.369141 0.578125)"/>
     <use xlink:href="#DejaVuSans-74" transform="translate(889.648438 0.578125)"/>
     <use xlink:href="#DejaVuSans-69" transform="translate(928.857422 0.578125)"/>
     <use xlink:href="#DejaVuSans-76" transform="translate(956.640625 0.578125)"/>
     <use xlink:href="#DejaVuSans-65" transform="translate(1015.820312 0.578125)"/>
    </g>
   </g>
  </g>
  <g id="axes_2">
   <g id="patch_7">
    <path d="M 286.941176 256.32 
L 451.058824 256.32 
L 451.058824 34.56 
L 286.941176 34.56 
z
" style="fill: #ffffff"/>
   </g>
   <g id="PolyCollection_2">
    <defs>
     <path id="ma80ab6a9e2" d="M 370.811207 -22.512521 
L 367.188793 -22.512521 
L 366.816097 -22.943535 
L 366.381613 -23.374548 
L 365.878158 -23.805562 
L 365.298257 -24.236575 
L 364.634221 -24.667589 
L 363.878242 -25.098603 
L 363.022507 -25.529616 
L 362.059326 -25.96063 
L 360.981285 -26.391644 
L 359.781411 -26.822657 
L 358.453362 -27.253671 
L 356.991641 -27.684685 
L 355.391824 -28.115698 
L 353.650813 -28.546712 
L 351.767106 -28.977726 
L 349.741076 -29.408739 
L 347.575265 -29.839753 
L 345.274669 -30.270766 
L 342.847015 -30.70178 
L 340.303011 -31.132794 
L 337.656556 -31.563807 
L 334.924891 -31.994821 
L 332.128671 -32.425835 
L 329.291946 -32.856848 
L 326.442027 -33.287862 
L 323.609232 -33.718876 
L 320.826483 -34.149889 
L 318.128782 -34.580903 
L 315.552527 -35.011916 
L 313.134714 -35.44293 
L 310.912019 -35.873944 
L 308.919793 -36.304957 
L 307.190999 -36.735971 
L 305.755134 -37.166985 
L 304.637178 -37.597998 
L 303.856605 -38.029012 
L 303.426519 -38.460026 
L 303.352941 -38.891039 
L 303.634302 -39.322053 
L 304.261157 -39.753066 
L 305.216154 -40.18408 
L 306.474273 -40.615094 
L 308.003319 -41.046107 
L 309.764678 -41.477121 
L 311.714305 -41.908135 
L 313.803914 -42.339148 
L 315.982324 -42.770162 
L 318.19693 -43.201176 
L 320.395228 -43.632189 
L 322.526355 -44.063203 
L 324.542584 -44.494217 
L 326.40072 -44.92523 
L 328.063357 -45.356244 
L 329.499948 -45.787257 
L 330.687657 -46.218271 
L 331.611959 -46.649285 
L 332.266978 -47.080298 
L 332.655549 -47.511312 
L 332.789005 -47.942326 
L 332.686694 -48.373339 
L 332.375251 -48.804353 
L 331.88764 -49.235367 
L 331.262009 -49.66638 
L 330.540389 -50.097394 
L 329.767287 -50.528407 
L 328.988224 -50.959421 
L 328.248255 -51.390435 
L 327.590546 -51.821448 
L 327.055031 -52.252462 
L 326.677221 -52.683476 
L 326.487186 -53.114489 
L 326.508755 -53.545503 
L 326.758961 -53.976517 
L 327.24773 -54.40753 
L 327.977838 -54.838544 
L 328.945119 -55.269557 
L 330.138903 -55.700571 
L 331.542663 -56.131585 
L 333.134839 -56.562598 
L 334.889788 -56.993612 
L 336.778819 -57.424626 
L 338.771272 -57.855639 
L 340.835586 -58.286653 
L 342.940321 -58.717667 
L 345.055092 -59.14868 
L 347.15139 -59.579694 
L 349.203254 -60.010708 
L 351.187799 -60.441721 
L 353.085582 -60.872735 
L 354.880802 -61.303748 
L 356.561363 -61.734762 
L 358.118791 -62.165776 
L 359.548046 -62.596789 
L 360.847232 -63.027803 
L 362.017245 -63.458817 
L 363.061371 -63.88983 
L 363.984862 -64.320844 
L 364.79451 -64.751858 
L 365.498233 -65.182871 
L 372.501767 -65.182871 
L 372.501767 -65.182871 
L 373.20549 -64.751858 
L 374.015138 -64.320844 
L 374.938629 -63.88983 
L 375.982755 -63.458817 
L 377.152768 -63.027803 
L 378.451954 -62.596789 
L 379.881209 -62.165776 
L 381.438637 -61.734762 
L 383.119198 -61.303748 
L 384.914418 -60.872735 
L 386.812201 -60.441721 
L 388.796746 -60.010708 
L 390.84861 -59.579694 
L 392.944908 -59.14868 
L 395.059679 -58.717667 
L 397.164414 -58.286653 
L 399.228728 -57.855639 
L 401.221181 -57.424626 
L 403.110212 -56.993612 
L 404.865161 -56.562598 
L 406.457337 -56.131585 
L 407.861097 -55.700571 
L 409.054881 -55.269557 
L 410.022162 -54.838544 
L 410.75227 -54.40753 
L 411.241039 -53.976517 
L 411.491245 -53.545503 
L 411.512814 -53.114489 
L 411.322779 -52.683476 
L 410.944969 -52.252462 
L 410.409454 -51.821448 
L 409.751745 -51.390435 
L 409.011776 -50.959421 
L 408.232713 -50.528407 
L 407.459611 -50.097394 
L 406.737991 -49.66638 
L 406.11236 -49.235367 
L 405.624749 -48.804353 
L 405.313306 -48.373339 
L 405.210995 -47.942326 
L 405.344451 -47.511312 
L 405.733022 -47.080298 
L 406.388041 -46.649285 
L 407.312343 -46.218271 
L 408.500052 -45.787257 
L 409.936643 -45.356244 
L 411.59928 -44.92523 
L 413.457416 -44.494217 
L 415.473645 -44.063203 
L 417.604772 -43.632189 
L 419.80307 -43.201176 
L 422.017676 -42.770162 
L 424.196086 -42.339148 
L 426.285695 -41.908135 
L 428.235322 -41.477121 
L 429.996681 -41.046107 
L 431.525727 -40.615094 
L 432.783846 -40.18408 
L 433.738843 -39.753066 
L 434.365698 -39.322053 
L 434.647059 -38.891039 
L 434.573481 -38.460026 
L 434.143395 -38.029012 
L 433.362822 -37.597998 
L 432.244866 -37.166985 
L 430.809001 -36.735971 
L 429.080207 -36.304957 
L 427.087981 -35.873944 
L 424.865286 -35.44293 
L 422.447473 -35.011916 
L 419.871218 -34.580903 
L 417.173517 -34.149889 
L 414.390768 -33.718876 
L 411.557973 -33.287862 
L 408.708054 -32.856848 
L 405.871329 -32.425835 
L 403.075109 -31.994821 
L 400.343444 -31.563807 
L 397.696989 -31.132794 
L 395.152985 -30.70178 
L 392.725331 -30.270766 
L 390.424735 -29.839753 
L 388.258924 -29.408739 
L 386.232894 -28.977726 
L 384.349187 -28.546712 
L 382.608176 -28.115698 
L 381.008359 -27.684685 
L 379.546638 -27.253671 
L 378.218589 -26.822657 
L 377.018715 -26.391644 
L 375.940674 -25.96063 
L 374.977493 -25.529616 
L 374.121758 -25.098603 
L 373.365779 -24.667589 
L 372.701743 -24.236575 
L 372.121842 -23.805562 
L 371.618387 -23.374548 
L 371.183903 -22.943535 
L 370.811207 -22.512521 
z
" style="stroke: #626262; stroke-width: 1.5"/>
    </defs>
    <g clip-path="url(#pbc808869a0)">
     <use xlink:href="#ma80ab6a9e2" x="0" y="288" style="fill: #e8735e; stroke: #626262; stroke-width: 1.5"/>
    </g>
   </g>
   <g id="matplotlib.axis_3">
    <g id="xtick_2">
     <g id="line2d_10">
      <g>
       <use xlink:href="#me03b1d74cc" x="369" y="256.32" style="stroke: #000000; stroke-width: 0.8"/>
      </g>
     </g>
     <g id="text_10">
      <!-- 0 -->
      <g transform="translate(365.81875 270.918437) scale(0.1 -0.1)">
       <use xlink:href="#DejaVuSans-30"/>
      </g>
     </g>
    </g>
   </g>
   <g id="matplotlib.axis_4">
    <g id="ytick_7">
     <g id="line2d_11">
      <g>
       <use xlink:href="#m81d848ef75" x="286.941176" y="256.32" style="stroke: #000000; stroke-width: 0.8"/>
      </g>
     </g>
     <g id="text_11">
      <!-- 0.0 -->
      <g transform="translate(264.038051 260.119219) scale(0.1 -0.1)">
       <use xlink:href="#DejaVuSans-30"/>
       <use xlink:href="#DejaVuSans-2e" x="63.623047"/>
       <use xlink:href="#DejaVuSans-30" x="95.410156"/>
      </g>
     </g>
    </g>
    <g id="ytick_8">
     <g id="line2d_12">
      <g>
       <use xlink:href="#m81d848ef75" x="286.941176" y="211.968" style="stroke: #000000; stroke-width: 0.8"/>
      </g>
     </g>
     <g id="text_12">
      <!-- 0.2 -->
      <g transform="translate(264.038051 215.767219) scale(0.1 -0.1)">
       <use xlink:href="#DejaVuSans-30"/>
       <use xlink:href="#DejaVuSans-2e" x="63.623047"/>
       <use xlink:href="#DejaVuSans-32" x="95.410156"/>
      </g>
     </g>
    </g>
    <g id="ytick_9">
     <g id="line2d_13">
      <g>
       <use xlink:href="#m81d848ef75" x="286.941176" y="167.616" style="stroke: #000000; stroke-width: 0.8"/>
      </g>
     </g>
     <g id="text_13">
      <!-- 0.4 -->
      <g transform="translate(264.038051 171.415219) scale(0.1 -0.1)">
       <use xlink:href="#DejaVuSans-30"/>
       <use xlink:href="#DejaVuSans-2e" x="63.623047"/>
       <use xlink:href="#DejaVuSans-34" x="95.410156"/>
      </g>
     </g>
    </g>
    <g id="ytick_10">
     <g id="line2d_14">
      <g>
       <use xlink:href="#m81d848ef75" x="286.941176" y="123.264" style="stroke: #000000; stroke-width: 0.8"/>
      </g>
     </g>
     <g id="text_14">
      <!-- 0.6 -->
      <g transform="translate(264.038051 127.063219) scale(0.1 -0.1)">
       <use xlink:href="#DejaVuSans-30"/>
       <use xlink:href="#DejaVuSans-2e" x="63.623047"/>
       <use xlink:href="#DejaVuSans-36" x="95.410156"/>
      </g>
     </g>
    </g>
    <g id="ytick_11">
     <g id="line2d_15">
      <g>
       <use xlink:href="#m81d848ef75" x="286.941176" y="78.912" style="stroke: #000000; stroke-width: 0.8"/>
      </g>
     </g>
     <g id="text_15">
      <!-- 0.8 -->
      <g transform="translate(264.038051 82.711219) scale(0.1 -0.1)">
       <use xlink:href="#DejaVuSans-30"/>
       <use xlink:href="#DejaVuSans-2e" x="63.623047"/>
       <use xlink:href="#DejaVuSans-38" x="95.410156"/>
      </g>
     </g>
    </g>
    <g id="ytick_12">
     <g id="line2d_16">
      <g>
       <use xlink:href="#m81d848ef75" x="286.941176" y="34.56" style="stroke: #000000; stroke-width: 0.8"/>
      </g>
     </g>
     <g id="text_16">
      <!-- 1.0 -->
      <g transform="translate(264.038051 38.359219) scale(0.1 -0.1)">
       <use xlink:href="#DejaVuSans-31"/>
       <use xlink:href="#DejaVuSans-2e" x="63.623047"/>
       <use xlink:href="#DejaVuSans-30" x="95.410156"/>
      </g>
     </g>
    </g>
   </g>
   <g id="line2d_17">
    <path d="M 369 255.361044 
L 369 232.943564 
" clip-path="url(#pbc808869a0)" style="fill: none; stroke: #626262; stroke-width: 1.5; stroke-linecap: square"/>
   </g>
   <g id="line2d_18">
    <path d="M 369 249.05924 
L 369 234.754544 
" clip-path="url(#pbc808869a0)" style="fill: none; stroke: #626262; stroke-width: 4.5; stroke-linecap: square"/>
   </g>
   <g id="patch_8">
    <path d="M 286.941176 256.32 
L 286.941176 34.56 
" style="fill: none; stroke: #000000; stroke-width: 0.8; stroke-linejoin: miter; stroke-linecap: square"/>
   </g>
   <g id="patch_9">
    <path d="M 451.058824 256.32 
L 451.058824 34.56 
" style="fill: none; stroke: #000000; stroke-width: 0.8; stroke-linejoin: miter; stroke-linecap: square"/>
   </g>
   <g id="patch_10">
    <path d="M 286.941176 256.32 
L 451.058824 256.32 
" style="fill: none; stroke: #000000; stroke-width: 0.8; stroke-linejoin: miter; stroke-linecap: square"/>
   </g>
   <g id="patch_11">
    <path d="M 286.941176 34.56 
L 451.058824 34.56 
" style="fill: none; stroke: #000000; stroke-width: 0.8; stroke-linejoin: miter; stroke-linecap: square"/>
   </g>
   <g id="PathCollection_2">
    <defs>
     <path id="m35c1930d04" d="M 0 1.5 
C 0.397805 1.5 0.77937 1.341951 1.06066 1.06066 
C 1.341951 0.77937 1.5 0.397805 1.5 0 
C 1.5 -0.397805 1.341951 -0.77937 1.06066 -1.06066 
C 0.77937 -1.341951 0.397805 -1.5 0 -1.5 
C -0.397805 -1.5 -0.77937 -1.341951 -1.06066 -1.06066 
C -1.341951 -0.77937 -1.5 -0.397805 -1.5 0 
C -1.5 0.397805 -1.341951 0.77937 -1.06066 1.06066 
C -0.77937 1.341951 -0.397805 1.5 0 1.5 
z
" style="stroke: #626262"/>
    </defs>
    <g clip-path="url(#pbc808869a0)">
     <use xlink:href="#m35c1930d04" x="369" y="247.560613" style="fill: #ffffff; stroke: #626262"/>
    </g>
   </g>
   <g id="text_17">
    <!-- $p(return)$|hostile -->
    <g transform="translate(319.92 28.56) scale(0.12 -0.12)">
     <defs>
      <path id="DejaVuSans-68" d="M 3513 2113 
L 3513 0 
L 2938 0 
L 2938 2094 
Q 2938 2591 2744 2837 
Q 2550 3084 2163 3084 
Q 1697 3084 1428 2787 
Q 1159 2491 1159 1978 
L 1159 0 
L 581 0 
L 581 4863 
L 1159 4863 
L 1159 2956 
Q 1366 3272 1645 3428 
Q 1925 3584 2291 3584 
Q 2894 3584 3203 3211 
Q 3513 2838 3513 2113 
z
" transform="scale(0.015625)"/>
      <path id="DejaVuSans-73" d="M 2834 3397 
L 2834 2853 
Q 2591 2978 2328 3040 
Q 2066 3103 1784 3103 
Q 1356 3103 1142 2972 
Q 928 2841 928 2578 
Q 928 2378 1081 2264 
Q 1234 2150 1697 2047 
L 1894 2003 
Q 2506 1872 2764 1633 
Q 3022 1394 3022 966 
Q 3022 478 2636 193 
Q 2250 -91 1575 -91 
Q 1294 -91 989 -36 
Q 684 19 347 128 
L 347 722 
Q 666 556 975 473 
Q 1284 391 1588 391 
Q 1994 391 2212 530 
Q 2431 669 2431 922 
Q 2431 1156 2273 1281 
Q 2116 1406 1581 1522 
L 1381 1569 
Q 847 1681 609 1914 
Q 372 2147 372 2553 
Q 372 3047 722 3315 
Q 1072 3584 1716 3584 
Q 2034 3584 2315 3537 
Q 2597 3491 2834 3397 
z
" transform="scale(0.015625)"/>
      <path id="DejaVuSans-6c" d="M 603 4863 
L 1178 4863 
L 1178 0 
L 603 0 
L 603 4863 
z
" transform="scale(0.015625)"/>
     </defs>
     <use xlink:href="#DejaVuSans-Oblique-70" transform="translate(0 0.578125)"/>
     <use xlink:href="#DejaVuSans-28" transform="translate(63.476562 0.578125)"/>
     <use xlink:href="#DejaVuSans-Oblique-72" transform="translate(102.490234 0.578125)"/>
     <use xlink:href="#DejaVuSans-Oblique-65" transform="translate(143.603516 0.578125)"/>
     <use xlink:href="#DejaVuSans-Oblique-74" transform="translate(205.126953 0.578125)"/>
     <use xlink:href="#DejaVuSans-Oblique-75" transform="translate(244.335938 0.578125)"/>
     <use xlink:href="#DejaVuSans-Oblique-72" transform="translate(307.714844 0.578125)"/>
     <use xlink:href="#DejaVuSans-Oblique-6e" transform="translate(348.828125 0.578125)"/>
     <use xlink:href="#DejaVuSans-29" transform="translate(412.207031 0.578125)"/>
     <use xlink:href="#DejaVuSans-7c" transform="translate(451.220703 0.578125)"/>
     <use xlink:href="#DejaVuSans-68" transform="translate(484.912109 0.578125)"/>
     <use xlink:href="#DejaVuSans-6f" transform="translate(548.291016 0.578125)"/>
     <use xlink:href="#DejaVuSans-73" transform="translate(609.472656 0.578125)"/>
     <use xlink:href="#DejaVuSans-74" transform="translate(661.572266 0.578125)"/>
     <use xlink:href="#DejaVuSans-69" transform="translate(700.78125 0.578125)"/>
     <use xlink:href="#DejaVuSans-6c" transform="translate(728.564453 0.578125)"/>
     <use xlink:href="#DejaVuSans-65" transform="translate(756.347656 0.578125)"/>
    </g>
   </g>
  </g>
  <g id="axes_3">
   <g id="patch_12">
    <path d="M 483.882353 256.32 
L 648 256.32 
L 648 34.56 
L 483.882353 34.56 
z
" style="fill: #ffffff"/>
   </g>
   <g id="PolyCollection_3">
    <defs>
     <path id="md1645d7461" d="M 567.223852 -18.095993 
L 564.658501 -18.095993 
L 564.337781 -19.306149 
L 563.953307 -20.516305 
L 563.496181 -21.726461 
L 562.95692 -22.936618 
L 562.325494 -24.146774 
L 561.591374 -25.35693 
L 560.743592 -26.567086 
L 559.770826 -27.777243 
L 558.661535 -28.987399 
L 557.404142 -30.197555 
L 555.987303 -31.407711 
L 554.400278 -32.617867 
L 552.63341 -33.828024 
L 550.678736 -35.03818 
L 548.530715 -36.248336 
L 546.18706 -37.458492 
L 543.649633 -38.668648 
L 540.925361 -39.878805 
L 538.027089 -41.088961 
L 534.9743 -42.299117 
L 531.79361 -43.509273 
L 528.518958 -44.71943 
L 525.191419 -45.929586 
L 521.858593 -47.139742 
L 518.573558 -48.349898 
L 515.393392 -49.560054 
L 512.377345 -50.770211 
L 509.58473 -51.980367 
L 507.072678 -53.190523 
L 504.893877 -54.400679 
L 503.094469 -55.610836 
L 501.712219 -56.820992 
L 500.775101 -58.031148 
L 500.30036 -59.241304 
L 500.294118 -60.45146 
L 500.751505 -61.661617 
L 501.657295 -62.871773 
L 502.986944 -64.081929 
L 504.707947 -65.292085 
L 506.781397 -66.502241 
L 509.163613 -67.712398 
L 511.807755 -68.922554 
L 514.665314 -70.13271 
L 517.687443 -71.342866 
L 520.826075 -72.553023 
L 524.034827 -73.763179 
L 527.269704 -74.973335 
L 530.489627 -76.183491 
L 533.656815 -77.393647 
L 536.73706 -78.603804 
L 539.699918 -79.81396 
L 542.518837 -81.024116 
L 545.171242 -82.234272 
L 547.638569 -83.444428 
L 549.906252 -84.654585 
L 551.963667 -85.864741 
L 553.804012 -87.074897 
L 555.424134 -88.285053 
L 556.824316 -89.49521 
L 558.008007 -90.705366 
L 558.981533 -91.915522 
L 559.753798 -93.125678 
L 560.335975 -94.335834 
L 560.741223 -95.545991 
L 560.984423 -96.756147 
L 561.081931 -97.966303 
L 561.05136 -99.176459 
L 560.911363 -100.386616 
L 560.681416 -101.596772 
L 560.381578 -102.806928 
L 560.032213 -104.017084 
L 559.653674 -105.22724 
L 559.265926 -106.437397 
L 558.888134 -107.647553 
L 558.53821 -108.857709 
L 558.232351 -110.067865 
L 557.984588 -111.278021 
L 557.806381 -112.488178 
L 557.706283 -113.698334 
L 557.689714 -114.90849 
L 557.758856 -116.118646 
L 557.912686 -117.328803 
L 558.147153 -118.538959 
L 558.455489 -119.749115 
L 558.82864 -120.959271 
L 559.255782 -122.169427 
L 559.7249 -123.379584 
L 560.223387 -124.58974 
L 560.738623 -125.799896 
L 561.258518 -127.010052 
L 561.771962 -128.220209 
L 562.269197 -129.430365 
L 562.742063 -130.640521 
L 563.184144 -131.850677 
L 563.590804 -133.060833 
L 563.959132 -134.27099 
L 564.287798 -135.481146 
L 564.576867 -136.691302 
L 564.827561 -137.901458 
L 567.054791 -137.901458 
L 567.054791 -137.901458 
L 567.305486 -136.691302 
L 567.594555 -135.481146 
L 567.923221 -134.27099 
L 568.291549 -133.060833 
L 568.698209 -131.850677 
L 569.14029 -130.640521 
L 569.613156 -129.430365 
L 570.11039 -128.220209 
L 570.623835 -127.010052 
L 571.14373 -125.799896 
L 571.658966 -124.58974 
L 572.157453 -123.379584 
L 572.626571 -122.169427 
L 573.053713 -120.959271 
L 573.426864 -119.749115 
L 573.7352 -118.538959 
L 573.969667 -117.328803 
L 574.123497 -116.118646 
L 574.192639 -114.90849 
L 574.17607 -113.698334 
L 574.075972 -112.488178 
L 573.897765 -111.278021 
L 573.650002 -110.067865 
L 573.344143 -108.857709 
L 572.994219 -107.647553 
L 572.616427 -106.437397 
L 572.228679 -105.22724 
L 571.850139 -104.017084 
L 571.500775 -102.806928 
L 571.200937 -101.596772 
L 570.97099 -100.386616 
L 570.830993 -99.176459 
L 570.800422 -97.966303 
L 570.89793 -96.756147 
L 571.14113 -95.545991 
L 571.546378 -94.335834 
L 572.128555 -93.125678 
L 572.90082 -91.915522 
L 573.874346 -90.705366 
L 575.058037 -89.49521 
L 576.458218 -88.285053 
L 578.078341 -87.074897 
L 579.918686 -85.864741 
L 581.976101 -84.654585 
L 584.243784 -83.444428 
L 586.711111 -82.234272 
L 589.363516 -81.024116 
L 592.182435 -79.81396 
L 595.145293 -78.603804 
L 598.225538 -77.393647 
L 601.392726 -76.183491 
L 604.612649 -74.973335 
L 607.847526 -73.763179 
L 611.056278 -72.553023 
L 614.194909 -71.342866 
L 617.217039 -70.13271 
L 620.074598 -68.922554 
L 622.71874 -67.712398 
L 625.100956 -66.502241 
L 627.174406 -65.292085 
L 628.895409 -64.081929 
L 630.225058 -62.871773 
L 631.130848 -61.661617 
L 631.588235 -60.45146 
L 631.581993 -59.241304 
L 631.107252 -58.031148 
L 630.170134 -56.820992 
L 628.787884 -55.610836 
L 626.988476 -54.400679 
L 624.809675 -53.190523 
L 622.297622 -51.980367 
L 619.505008 -50.770211 
L 616.488961 -49.560054 
L 613.308795 -48.349898 
L 610.023759 -47.139742 
L 606.690934 -45.929586 
L 603.363395 -44.71943 
L 600.088743 -43.509273 
L 596.908053 -42.299117 
L 593.855264 -41.088961 
L 590.956992 -39.878805 
L 588.23272 -38.668648 
L 585.695293 -37.458492 
L 583.351637 -36.248336 
L 581.203617 -35.03818 
L 579.248943 -33.828024 
L 577.482075 -32.617867 
L 575.89505 -31.407711 
L 574.478211 -30.197555 
L 573.220818 -28.987399 
L 572.111527 -27.777243 
L 571.138761 -26.567086 
L 570.290978 -25.35693 
L 569.556859 -24.146774 
L 568.925433 -22.936618 
L 568.386172 -21.726461 
L 567.929046 -20.516305 
L 567.544572 -19.306149 
L 567.223852 -18.095993 
z
" style="stroke: #3f3f3f; stroke-width: 1.5"/>
    </defs>
    <g clip-path="url(#p6effb1eef8)">
     <use xlink:href="#md1645d7461" x="0" y="288" style="fill: #3274a1; stroke: #3f3f3f; stroke-width: 1.5"/>
    </g>
   </g>
   <g id="matplotlib.axis_5">
    <g id="xtick_3">
     <g id="line2d_19">
      <g>
       <use xlink:href="#me03b1d74cc" x="565.941176" y="256.32" style="stroke: #000000; stroke-width: 0.8"/>
      </g>
     </g>
     <g id="text_18">
      <!-- 0 -->
      <g transform="translate(562.759926 270.918437) scale(0.1 -0.1)">
       <use xlink:href="#DejaVuSans-30"/>
      </g>
     </g>
    </g>
   </g>
   <g id="matplotlib.axis_6">
    <g id="ytick_13">
     <g id="line2d_20">
      <g>
       <use xlink:href="#m81d848ef75" x="483.882353" y="256.32" style="stroke: #000000; stroke-width: 0.8"/>
      </g>
     </g>
     <g id="text_19">
      <!-- 0.0 -->
      <g transform="translate(460.979228 260.119219) scale(0.1 -0.1)">
       <use xlink:href="#DejaVuSans-30"/>
       <use xlink:href="#DejaVuSans-2e" x="63.623047"/>
       <use xlink:href="#DejaVuSans-30" x="95.410156"/>
      </g>
     </g>
    </g>
    <g id="ytick_14">
     <g id="line2d_21">
      <g>
       <use xlink:href="#m81d848ef75" x="483.882353" y="211.968" style="stroke: #000000; stroke-width: 0.8"/>
      </g>
     </g>
     <g id="text_20">
      <!-- 0.2 -->
      <g transform="translate(460.979228 215.767219) scale(0.1 -0.1)">
       <use xlink:href="#DejaVuSans-30"/>
       <use xlink:href="#DejaVuSans-2e" x="63.623047"/>
       <use xlink:href="#DejaVuSans-32" x="95.410156"/>
      </g>
     </g>
    </g>
    <g id="ytick_15">
     <g id="line2d_22">
      <g>
       <use xlink:href="#m81d848ef75" x="483.882353" y="167.616" style="stroke: #000000; stroke-width: 0.8"/>
      </g>
     </g>
     <g id="text_21">
      <!-- 0.4 -->
      <g transform="translate(460.979228 171.415219) scale(0.1 -0.1)">
       <use xlink:href="#DejaVuSans-30"/>
       <use xlink:href="#DejaVuSans-2e" x="63.623047"/>
       <use xlink:href="#DejaVuSans-34" x="95.410156"/>
      </g>
     </g>
    </g>
    <g id="ytick_16">
     <g id="line2d_23">
      <g>
       <use xlink:href="#m81d848ef75" x="483.882353" y="123.264" style="stroke: #000000; stroke-width: 0.8"/>
      </g>
     </g>
     <g id="text_22">
      <!-- 0.6 -->
      <g transform="translate(460.979228 127.063219) scale(0.1 -0.1)">
       <use xlink:href="#DejaVuSans-30"/>
       <use xlink:href="#DejaVuSans-2e" x="63.623047"/>
       <use xlink:href="#DejaVuSans-36" x="95.410156"/>
      </g>
     </g>
    </g>
    <g id="ytick_17">
     <g id="line2d_24">
      <g>
       <use xlink:href="#m81d848ef75" x="483.882353" y="78.912" style="stroke: #000000; stroke-width: 0.8"/>
      </g>
     </g>
     <g id="text_23">
      <!-- 0.8 -->
      <g transform="translate(460.979228 82.711219) scale(0.1 -0.1)">
       <use xlink:href="#DejaVuSans-30"/>
       <use xlink:href="#DejaVuSans-2e" x="63.623047"/>
       <use xlink:href="#DejaVuSans-38" x="95.410156"/>
      </g>
     </g>
    </g>
    <g id="ytick_18">
     <g id="line2d_25">
      <g>
       <use xlink:href="#m81d848ef75" x="483.882353" y="34.56" style="stroke: #000000; stroke-width: 0.8"/>
      </g>
     </g>
     <g id="text_24">
      <!-- 1.0 -->
      <g transform="translate(460.979228 38.359219) scale(0.1 -0.1)">
       <use xlink:href="#DejaVuSans-31"/>
       <use xlink:href="#DejaVuSans-2e" x="63.623047"/>
       <use xlink:href="#DejaVuSans-30" x="95.410156"/>
      </g>
     </g>
    </g>
   </g>
   <g id="line2d_26">
    <path d="M 565.941176 246.684033 
L 565.941176 214.850946 
" clip-path="url(#p6effb1eef8)" style="fill: none; stroke: #3f3f3f; stroke-width: 1.5; stroke-linecap: square"/>
   </g>
   <g id="line2d_27">
    <path d="M 565.941176 230.840747 
L 565.941176 217.752719 
" clip-path="url(#p6effb1eef8)" style="fill: none; stroke: #3f3f3f; stroke-width: 4.5; stroke-linecap: square"/>
   </g>
   <g id="patch_13">
    <path d="M 483.882353 256.32 
L 483.882353 34.56 
" style="fill: none; stroke: #000000; stroke-width: 0.8; stroke-linejoin: miter; stroke-linecap: square"/>
   </g>
   <g id="patch_14">
    <path d="M 648 256.32 
L 648 34.56 
" style="fill: none; stroke: #000000; stroke-width: 0.8; stroke-linejoin: miter; stroke-linecap: square"/>
   </g>
   <g id="patch_15">
    <path d="M 483.882353 256.32 
L 648 256.32 
" style="fill: none; stroke: #000000; stroke-width: 0.8; stroke-linejoin: miter; stroke-linecap: square"/>
   </g>
   <g id="patch_16">
    <path d="M 483.882353 34.56 
L 648 34.56 
" style="fill: none; stroke: #000000; stroke-width: 0.8; stroke-linejoin: miter; stroke-linecap: square"/>
   </g>
   <g id="PathCollection_3">
    <defs>
     <path id="m160c313121" d="M 0 1.5 
C 0.397805 1.5 0.77937 1.341951 1.06066 1.06066 
C 1.341951 0.77937 1.5 0.397805 1.5 0 
C 1.5 -0.397805 1.341951 -0.77937 1.06066 -1.06066 
C 0.77937 -1.341951 0.397805 -1.5 0 -1.5 
C -0.397805 -1.5 -0.77937 -1.341951 -1.06066 -1.06066 
C -1.341951 -0.77937 -1.5 -0.397805 -1.5 0 
C -1.5 0.397805 -1.341951 0.77937 -1.06066 1.06066 
C -0.77937 1.341951 -0.397805 1.5 0 1.5 
z
" style="stroke: #3f3f3f"/>
    </defs>
    <g clip-path="url(#p6effb1eef8)">
     <use xlink:href="#m160c313121" x="565.941176" y="230.666233" style="fill: #ffffff; stroke: #3f3f3f"/>
    </g>
   </g>
   <g id="text_25">
    <!-- $p(return)$|random -->
    <g transform="translate(513.561176 28.56) scale(0.12 -0.12)">
     <defs>
      <path id="DejaVuSans-6e" d="M 3513 2113 
L 3513 0 
L 2938 0 
L 2938 2094 
Q 2938 2591 2744 2837 
Q 2550 3084 2163 3084 
Q 1697 3084 1428 2787 
Q 1159 2491 1159 1978 
L 1159 0 
L 581 0 
L 581 3500 
L 1159 3500 
L 1159 2956 
Q 1366 3272 1645 3428 
Q 1925 3584 2291 3584 
Q 2894 3584 3203 3211 
Q 3513 2838 3513 2113 
z
" transform="scale(0.015625)"/>
      <path id="DejaVuSans-64" d="M 2906 2969 
L 2906 4863 
L 3481 4863 
L 3481 0 
L 2906 0 
L 2906 525 
Q 2725 213 2448 61 
Q 2172 -91 1784 -91 
Q 1150 -91 751 415 
Q 353 922 353 1747 
Q 353 2572 751 3078 
Q 1150 3584 1784 3584 
Q 2172 3584 2448 3432 
Q 2725 3281 2906 2969 
z
M 947 1747 
Q 947 1113 1208 752 
Q 1469 391 1925 391 
Q 2381 391 2643 752 
Q 2906 1113 2906 1747 
Q 2906 2381 2643 2742 
Q 2381 3103 1925 3103 
Q 1469 3103 1208 2742 
Q 947 2381 947 1747 
z
" transform="scale(0.015625)"/>
      <path id="DejaVuSans-6d" d="M 3328 2828 
Q 3544 3216 3844 3400 
Q 4144 3584 4550 3584 
Q 5097 3584 5394 3201 
Q 5691 2819 5691 2113 
L 5691 0 
L 5113 0 
L 5113 2094 
Q 5113 2597 4934 2840 
Q 4756 3084 4391 3084 
Q 3944 3084 3684 2787 
Q 3425 2491 3425 1978 
L 3425 0 
L 2847 0 
L 2847 2094 
Q 2847 2600 2669 2842 
Q 2491 3084 2119 3084 
Q 1678 3084 1418 2786 
Q 1159 2488 1159 1978 
L 1159 0 
L 581 0 
L 581 3500 
L 1159 3500 
L 1159 2956 
Q 1356 3278 1631 3431 
Q 1906 3584 2284 3584 
Q 2666 3584 2933 3390 
Q 3200 3197 3328 2828 
z
" transform="scale(0.015625)"/>
     </defs>
     <use xlink:href="#DejaVuSans-Oblique-70" transform="translate(0 0.578125)"/>
     <use xlink:href="#DejaVuSans-28" transform="translate(63.476562 0.578125)"/>
     <use xlink:href="#DejaVuSans-Oblique-72" transform="translate(102.490234 0.578125)"/>
     <use xlink:href="#DejaVuSans-Oblique-65" transform="translate(143.603516 0.578125)"/>
     <use xlink:href="#DejaVuSans-Oblique-74" transform="translate(205.126953 0.578125)"/>
     <use xlink:href="#DejaVuSans-Oblique-75" transform="translate(244.335938 0.578125)"/>
     <use xlink:href="#DejaVuSans-Oblique-72" transform="translate(307.714844 0.578125)"/>
     <use xlink:href="#DejaVuSans-Oblique-6e" transform="translate(348.828125 0.578125)"/>
     <use xlink:href="#DejaVuSans-29" transform="translate(412.207031 0.578125)"/>
     <use xlink:href="#DejaVuSans-7c" transform="translate(451.220703 0.578125)"/>
     <use xlink:href="#DejaVuSans-72" transform="translate(484.912109 0.578125)"/>
     <use xlink:href="#DejaVuSans-61" transform="translate(526.025391 0.578125)"/>
     <use xlink:href="#DejaVuSans-6e" transform="translate(587.304688 0.578125)"/>
     <use xlink:href="#DejaVuSans-64" transform="translate(650.683594 0.578125)"/>
     <use xlink:href="#DejaVuSans-6f" transform="translate(714.160156 0.578125)"/>
     <use xlink:href="#DejaVuSans-6d" transform="translate(775.341797 0.578125)"/>
    </g>
   </g>
  </g>
  <g id="text_26">
   <!-- $A$: high BDI -->
   <g transform="translate(326.46 14.88) scale(0.12 -0.12)">
    <defs>
     <path id="DejaVuSans-Oblique-41" d="M 2356 4666 
L 3072 4666 
L 3938 0 
L 3278 0 
L 3084 1197 
L 984 1197 
L 325 0 
L -341 0 
L 2356 4666 
z
M 2584 4044 
L 1275 1722 
L 2988 1722 
L 2584 4044 
z
" transform="scale(0.015625)"/>
     <path id="DejaVuSans-3a" d="M 750 794 
L 1409 794 
L 1409 0 
L 750 0 
L 750 794 
z
M 750 3309 
L 1409 3309 
L 1409 2516 
L 750 2516 
L 750 3309 
z
" transform="scale(0.015625)"/>
     <path id="DejaVuSans-20" transform="scale(0.015625)"/>
     <path id="DejaVuSans-67" d="M 2906 1791 
Q 2906 2416 2648 2759 
Q 2391 3103 1925 3103 
Q 1463 3103 1205 2759 
Q 947 2416 947 1791 
Q 947 1169 1205 825 
Q 1463 481 1925 481 
Q 2391 481 2648 825 
Q 2906 1169 2906 1791 
z
M 3481 434 
Q 3481 -459 3084 -895 
Q 2688 -1331 1869 -1331 
Q 1566 -1331 1297 -1286 
Q 1028 -1241 775 -1147 
L 775 -588 
Q 1028 -725 1275 -790 
Q 1522 -856 1778 -856 
Q 2344 -856 2625 -561 
Q 2906 -266 2906 331 
L 2906 616 
Q 2728 306 2450 153 
Q 2172 0 1784 0 
Q 1141 0 747 490 
Q 353 981 353 1791 
Q 353 2603 747 3093 
Q 1141 3584 1784 3584 
Q 2172 3584 2450 3431 
Q 2728 3278 2906 2969 
L 2906 3500 
L 3481 3500 
L 3481 434 
z
" transform="scale(0.015625)"/>
     <path id="DejaVuSans-42" d="M 1259 2228 
L 1259 519 
L 2272 519 
Q 2781 519 3026 730 
Q 3272 941 3272 1375 
Q 3272 1813 3026 2020 
Q 2781 2228 2272 2228 
L 1259 2228 
z
M 1259 4147 
L 1259 2741 
L 2194 2741 
Q 2656 2741 2882 2914 
Q 3109 3088 3109 3444 
Q 3109 3797 2882 3972 
Q 2656 4147 2194 4147 
L 1259 4147 
z
M 628 4666 
L 2241 4666 
Q 2963 4666 3353 4366 
Q 3744 4066 3744 3513 
Q 3744 3084 3544 2831 
Q 3344 2578 2956 2516 
Q 3422 2416 3680 2098 
Q 3938 1781 3938 1306 
Q 3938 681 3513 340 
Q 3088 0 2303 0 
L 628 0 
L 628 4666 
z
" transform="scale(0.015625)"/>
     <path id="DejaVuSans-44" d="M 1259 4147 
L 1259 519 
L 2022 519 
Q 2988 519 3436 956 
Q 3884 1394 3884 2338 
Q 3884 3275 3436 3711 
Q 2988 4147 2022 4147 
L 1259 4147 
z
M 628 4666 
L 1925 4666 
Q 3281 4666 3915 4102 
Q 4550 3538 4550 2338 
Q 4550 1131 3912 565 
Q 3275 0 1925 0 
L 628 0 
L 628 4666 
z
" transform="scale(0.015625)"/>
     <path id="DejaVuSans-49" d="M 628 4666 
L 1259 4666 
L 1259 0 
L 628 0 
L 628 4666 
z
" transform="scale(0.015625)"/>
    </defs>
    <use xlink:href="#DejaVuSans-Oblique-41" transform="translate(0 0.015625)"/>
    <use xlink:href="#DejaVuSans-3a" transform="translate(68.408203 0.015625)"/>
    <use xlink:href="#DejaVuSans-20" transform="translate(102.099609 0.015625)"/>
    <use xlink:href="#DejaVuSans-68" transform="translate(133.886719 0.015625)"/>
    <use xlink:href="#DejaVuSans-69" transform="translate(197.265625 0.015625)"/>
    <use xlink:href="#DejaVuSans-67" transform="translate(225.048828 0.015625)"/>
    <use xlink:href="#DejaVuSans-68" transform="translate(288.525391 0.015625)"/>
    <use xlink:href="#DejaVuSans-20" transform="translate(351.904297 0.015625)"/>
    <use xlink:href="#DejaVuSans-42" transform="translate(383.691406 0.015625)"/>
    <use xlink:href="#DejaVuSans-44" transform="translate(452.294922 0.015625)"/>
    <use xlink:href="#DejaVuSans-49" transform="translate(529.296875 0.015625)"/>
   </g>
  </g>
 </g>
 <defs>
  <clipPath id="pe99c6ba0ec">
   <rect x="90" y="34.56" width="164.117647" height="221.76"/>
  </clipPath>
  <clipPath id="pbc808869a0">
   <rect x="286.941176" y="34.56" width="164.117647" height="221.76"/>
  </clipPath>
  <clipPath id="p6effb1eef8">
   <rect x="483.882353" y="34.56" width="164.117647" height="221.76"/>
  </clipPath>
 </defs>
</svg>
