<?xml version="1.0" encoding="utf-8" standalone="no"?>
<!DOCTYPE svg PUBLIC "-//W3C//DTD SVG 1.1//EN"
  "http://www.w3.org/Graphics/SVG/1.1/DTD/svg11.dtd">
<svg xmlns:xlink="http://www.w3.org/1999/xlink" width="720pt" height="288pt" viewBox="0 0 720 288" xmlns="http://www.w3.org/2000/svg" version="1.1">
 <metadata>
  <rdf:RDF xmlns:dc="http://purl.org/dc/elements/1.1/" xmlns:cc="http://creativecommons.org/ns#" xmlns:rdf="http://www.w3.org/1999/02/22-rdf-syntax-ns#">
   <cc:Work>
    <dc:type rdf:resource="http://purl.org/dc/dcmitype/StillImage"/>
    <dc:date>2024-07-03T17:53:13.451850</dc:date>
    <dc:format>image/svg+xml</dc:format>
    <dc:creator>
     <cc:Agent>
      <dc:title>Matplotlib v3.7.2, https://matplotlib.org/</dc:title>
     </cc:Agent>
    </dc:creator>
   </cc:Work>
  </rdf:RDF>
 </metadata>
 <defs>
  <style type="text/css">*{stroke-linejoin: round; stroke-linecap: butt}</style>
 </defs>
 <g id="figure_1">
  <g id="patch_1">
   <path d="M 0 288 
L 720 288 
L 720 0 
L 0 0 
z
" style="fill: #ffffff"/>
  </g>
  <g id="axes_1">
   <g id="patch_2">
    <path d="M 90 256.32 
L 254.117647 256.32 
L 254.117647 34.56 
L 90 34.56 
z
" style="fill: #ffffff"/>
   </g>
   <g id="PolyCollection_1">
    <defs>
     <path id="m72059ac33e" d="M 174.210627 -76.157827 
L 169.90702 -76.157827 
L 169.303362 -76.798839 
L 168.56637 -77.439851 
L 167.677171 -78.080864 
L 166.617019 -78.721876 
L 165.368094 -79.362889 
L 163.914444 -80.003901 
L 162.243011 -80.644914 
L 160.344717 -81.285926 
L 158.215536 -81.926939 
L 155.85748 -82.567951 
L 153.279435 -83.208964 
L 150.49774 -83.849976 
L 147.536467 -84.490989 
L 144.427298 -85.132001 
L 141.208988 -85.773013 
L 137.926362 -86.414026 
L 134.628884 -87.055038 
L 131.368817 -87.696051 
L 128.199065 -88.337063 
L 125.170815 -88.978076 
L 122.331102 -89.619088 
L 119.720477 -90.260101 
L 117.370931 -90.901113 
L 115.304242 -91.542126 
L 113.530896 -92.183138 
L 112.04968 -92.824151 
L 110.848024 -93.465163 
L 109.903096 -94.106175 
L 109.183589 -94.747188 
L 108.652118 -95.3882 
L 108.268018 -96.029213 
L 107.990374 -96.670225 
L 107.78101 -97.311238 
L 107.607214 -97.95225 
L 107.443955 -98.593263 
L 107.2754 -99.234275 
L 107.09559 -99.875288 
L 106.908213 -100.5163 
L 106.725498 -101.157313 
L 106.566308 -101.798325 
L 106.453642 -102.439338 
L 106.411765 -103.08035 
L 106.46325 -103.721362 
L 106.626239 -104.362375 
L 106.912184 -105.003387 
L 107.324318 -105.6444 
L 107.857 -106.285412 
L 108.496035 -106.926425 
L 109.219915 -107.567437 
L 110.001897 -108.20845 
L 110.812681 -108.849462 
L 111.623448 -109.490475 
L 112.408932 -110.131487 
L 113.150217 -110.7725 
L 113.836983 -111.413512 
L 114.468955 -112.054524 
L 115.056408 -112.695537 
L 115.619679 -113.336549 
L 116.187715 -113.977562 
L 116.795798 -114.618574 
L 117.482669 -115.259587 
L 118.287307 -115.900599 
L 119.245679 -116.541612 
L 120.387744 -117.182624 
L 121.734977 -117.823637 
L 123.298618 -118.464649 
L 125.078779 -119.105662 
L 127.064445 -119.746674 
L 129.23433 -120.387686 
L 131.558471 -121.028699 
L 134.000375 -121.669711 
L 136.519505 -122.310724 
L 139.073868 -122.951736 
L 141.622482 -123.592749 
L 144.127535 -124.233761 
L 146.556083 -124.874774 
L 148.881207 -125.515786 
L 151.082599 -126.156799 
L 153.146602 -126.797811 
L 155.065784 -127.438824 
L 156.838151 -128.079836 
L 158.466128 -128.720848 
L 159.955425 -129.361861 
L 161.313924 -130.002873 
L 162.550658 -130.643886 
L 163.674974 -131.284898 
L 164.695902 -131.925911 
L 165.621738 -132.566923 
L 166.459846 -133.207936 
L 167.216617 -133.848948 
L 167.897563 -134.489961 
L 168.5075 -135.130973 
L 169.05075 -135.771986 
L 169.531359 -136.412998 
L 169.953277 -137.054011 
L 170.320488 -137.695023 
L 170.637089 -138.336035 
L 170.907316 -138.977048 
L 171.135519 -139.61806 
L 172.982128 -139.61806 
L 172.982128 -139.61806 
L 173.210331 -138.977048 
L 173.480558 -138.336035 
L 173.797159 -137.695023 
L 174.16437 -137.054011 
L 174.586288 -136.412998 
L 175.066898 -135.771986 
L 175.610148 -135.130973 
L 176.220084 -134.489961 
L 176.90103 -133.848948 
L 177.657801 -133.207936 
L 178.495909 -132.566923 
L 179.421746 -131.925911 
L 180.442673 -131.284898 
L 181.566989 -130.643886 
L 182.803723 -130.002873 
L 184.162222 -129.361861 
L 185.651519 -128.720848 
L 187.279496 -128.079836 
L 189.051864 -127.438824 
L 190.971045 -126.797811 
L 193.035048 -126.156799 
L 195.23644 -125.515786 
L 197.561564 -124.874774 
L 199.990112 -124.233761 
L 202.495165 -123.592749 
L 205.043779 -122.951736 
L 207.598142 -122.310724 
L 210.117272 -121.669711 
L 212.559176 -121.028699 
L 214.883317 -120.387686 
L 217.053202 -119.746674 
L 219.038868 -119.105662 
L 220.819029 -118.464649 
L 222.38267 -117.823637 
L 223.729903 -117.182624 
L 224.871968 -116.541612 
L 225.83034 -115.900599 
L 226.634978 -115.259587 
L 227.321849 -114.618574 
L 227.929932 -113.977562 
L 228.497968 -113.336549 
L 229.061239 -112.695537 
L 229.648692 -112.054524 
L 230.280664 -111.413512 
L 230.96743 -110.7725 
L 231.708715 -110.131487 
L 232.494199 -109.490475 
L 233.304966 -108.849462 
L 234.11575 -108.20845 
L 234.897732 -107.567437 
L 235.621612 -106.926425 
L 236.260647 -106.285412 
L 236.79333 -105.6444 
L 237.205463 -105.003387 
L 237.491409 -104.362375 
L 237.654397 -103.721362 
L 237.705882 -103.08035 
L 237.664005 -102.439338 
L 237.551339 -101.798325 
L 237.392149 -101.157313 
L 237.209434 -100.5163 
L 237.022057 -99.875288 
L 236.842247 -99.234275 
L 236.673692 -98.593263 
L 236.510434 -97.95225 
L 236.336638 -97.311238 
L 236.127273 -96.670225 
L 235.849629 -96.029213 
L 235.465529 -95.3882 
L 234.934058 -94.747188 
L 234.214551 -94.106175 
L 233.269623 -93.465163 
L 232.067967 -92.824151 
L 230.586751 -92.183138 
L 228.813405 -91.542126 
L 226.746716 -90.901113 
L 224.39717 -90.260101 
L 221.786546 -89.619088 
L 218.946833 -88.978076 
L 215.918582 -88.337063 
L 212.74883 -87.696051 
L 209.488763 -87.055038 
L 206.191285 -86.414026 
L 202.90866 -85.773013 
L 199.690349 -85.132001 
L 196.58118 -84.490989 
L 193.619907 -83.849976 
L 190.838212 -83.208964 
L 188.260167 -82.567951 
L 185.902111 -81.926939 
L 183.77293 -81.285926 
L 181.874636 -80.644914 
L 180.203203 -80.003901 
L 178.749553 -79.362889 
L 177.500628 -78.721876 
L 176.440476 -78.080864 
L 175.551277 -77.439851 
L 174.814285 -76.798839 
L 174.210627 -76.157827 
z
" style="stroke: #343434; stroke-opacity: 0.5; stroke-width: 1.5"/>
    </defs>
    <g clip-path="url(#pad86376fb1)">
     <use xlink:href="#m72059ac33e" x="0" y="288" style="fill: #2f7e2f; fill-opacity: 0.5; stroke: #343434; stroke-opacity: 0.5; stroke-width: 1.5"/>
    </g>
   </g>
   <g id="matplotlib.axis_1">
    <g id="xtick_1">
     <g id="line2d_1">
      <defs>
       <path id="m8ced630c3a" d="M 0 0 
L 0 3.5 
" style="stroke: #000000; stroke-width: 0.8"/>
      </defs>
      <g>
       <use xlink:href="#m8ced630c3a" x="172.058824" y="256.32" style="stroke: #000000; stroke-width: 0.8"/>
      </g>
     </g>
     <g id="text_1">
      <!-- 0 -->
      <g transform="translate(168.877574 270.918437) scale(0.1 -0.1)">
       <defs>
        <path id="DejaVuSans-30" d="M 2034 4250 
Q 1547 4250 1301 3770 
Q 1056 3291 1056 2328 
Q 1056 1369 1301 889 
Q 1547 409 2034 409 
Q 2525 409 2770 889 
Q 3016 1369 3016 2328 
Q 3016 3291 2770 3770 
Q 2525 4250 2034 4250 
z
M 2034 4750 
Q 2819 4750 3233 4129 
Q 3647 3509 3647 2328 
Q 3647 1150 3233 529 
Q 2819 -91 2034 -91 
Q 1250 -91 836 529 
Q 422 1150 422 2328 
Q 422 3509 836 4129 
Q 1250 4750 2034 4750 
z
" transform="scale(0.015625)"/>
       </defs>
       <use xlink:href="#DejaVuSans-30"/>
      </g>
     </g>
    </g>
   </g>
   <g id="matplotlib.axis_2">
    <g id="ytick_1">
     <g id="line2d_2">
      <defs>
       <path id="mfb65443707" d="M 0 0 
L -3.5 0 
" style="stroke: #000000; stroke-width: 0.8"/>
      </defs>
      <g>
       <use xlink:href="#mfb65443707" x="90" y="256.32" style="stroke: #000000; stroke-width: 0.8"/>
      </g>
     </g>
     <g id="text_2">
      <!-- 0.0 -->
      <g transform="translate(67.096875 260.119219) scale(0.1 -0.1)">
       <defs>
        <path id="DejaVuSans-2e" d="M 684 794 
L 1344 794 
L 1344 0 
L 684 0 
L 684 794 
z
" transform="scale(0.015625)"/>
       </defs>
       <use xlink:href="#DejaVuSans-30"/>
       <use xlink:href="#DejaVuSans-2e" x="63.623047"/>
       <use xlink:href="#DejaVuSans-30" x="95.410156"/>
      </g>
     </g>
    </g>
    <g id="ytick_2">
     <g id="line2d_3">
      <g>
       <use xlink:href="#mfb65443707" x="90" y="211.968" style="stroke: #000000; stroke-width: 0.8"/>
      </g>
     </g>
     <g id="text_3">
      <!-- 0.2 -->
      <g transform="translate(67.096875 215.767219) scale(0.1 -0.1)">
       <defs>
        <path id="DejaVuSans-32" d="M 1228 531 
L 3431 531 
L 3431 0 
L 469 0 
L 469 531 
Q 828 903 1448 1529 
Q 2069 2156 2228 2338 
Q 2531 2678 2651 2914 
Q 2772 3150 2772 3378 
Q 2772 3750 2511 3984 
Q 2250 4219 1831 4219 
Q 1534 4219 1204 4116 
Q 875 4013 500 3803 
L 500 4441 
Q 881 4594 1212 4672 
Q 1544 4750 1819 4750 
Q 2544 4750 2975 4387 
Q 3406 4025 3406 3419 
Q 3406 3131 3298 2873 
Q 3191 2616 2906 2266 
Q 2828 2175 2409 1742 
Q 1991 1309 1228 531 
z
" transform="scale(0.015625)"/>
       </defs>
       <use xlink:href="#DejaVuSans-30"/>
       <use xlink:href="#DejaVuSans-2e" x="63.623047"/>
       <use xlink:href="#DejaVuSans-32" x="95.410156"/>
      </g>
     </g>
    </g>
    <g id="ytick_3">
     <g id="line2d_4">
      <g>
       <use xlink:href="#mfb65443707" x="90" y="167.616" style="stroke: #000000; stroke-width: 0.8"/>
      </g>
     </g>
     <g id="text_4">
      <!-- 0.4 -->
      <g transform="translate(67.096875 171.415219) scale(0.1 -0.1)">
       <defs>
        <path id="DejaVuSans-34" d="M 2419 4116 
L 825 1625 
L 2419 1625 
L 2419 4116 
z
M 2253 4666 
L 3047 4666 
L 3047 1625 
L 3713 1625 
L 3713 1100 
L 3047 1100 
L 3047 0 
L 2419 0 
L 2419 1100 
L 313 1100 
L 313 1709 
L 2253 4666 
z
" transform="scale(0.015625)"/>
       </defs>
       <use xlink:href="#DejaVuSans-30"/>
       <use xlink:href="#DejaVuSans-2e" x="63.623047"/>
       <use xlink:href="#DejaVuSans-34" x="95.410156"/>
      </g>
     </g>
    </g>
    <g id="ytick_4">
     <g id="line2d_5">
      <g>
       <use xlink:href="#mfb65443707" x="90" y="123.264" style="stroke: #000000; stroke-width: 0.8"/>
      </g>
     </g>
     <g id="text_5">
      <!-- 0.6 -->
      <g transform="translate(67.096875 127.063219) scale(0.1 -0.1)">
       <defs>
        <path id="DejaVuSans-36" d="M 2113 2584 
Q 1688 2584 1439 2293 
Q 1191 2003 1191 1497 
Q 1191 994 1439 701 
Q 1688 409 2113 409 
Q 2538 409 2786 701 
Q 3034 994 3034 1497 
Q 3034 2003 2786 2293 
Q 2538 2584 2113 2584 
z
M 3366 4563 
L 3366 3988 
Q 3128 4100 2886 4159 
Q 2644 4219 2406 4219 
Q 1781 4219 1451 3797 
Q 1122 3375 1075 2522 
Q 1259 2794 1537 2939 
Q 1816 3084 2150 3084 
Q 2853 3084 3261 2657 
Q 3669 2231 3669 1497 
Q 3669 778 3244 343 
Q 2819 -91 2113 -91 
Q 1303 -91 875 529 
Q 447 1150 447 2328 
Q 447 3434 972 4092 
Q 1497 4750 2381 4750 
Q 2619 4750 2861 4703 
Q 3103 4656 3366 4563 
z
" transform="scale(0.015625)"/>
       </defs>
       <use xlink:href="#DejaVuSans-30"/>
       <use xlink:href="#DejaVuSans-2e" x="63.623047"/>
       <use xlink:href="#DejaVuSans-36" x="95.410156"/>
      </g>
     </g>
    </g>
    <g id="ytick_5">
     <g id="line2d_6">
      <g>
       <use xlink:href="#mfb65443707" x="90" y="78.912" style="stroke: #000000; stroke-width: 0.8"/>
      </g>
     </g>
     <g id="text_6">
      <!-- 0.8 -->
      <g transform="translate(67.096875 82.711219) scale(0.1 -0.1)">
       <defs>
        <path id="DejaVuSans-38" d="M 2034 2216 
Q 1584 2216 1326 1975 
Q 1069 1734 1069 1313 
Q 1069 891 1326 650 
Q 1584 409 2034 409 
Q 2484 409 2743 651 
Q 3003 894 3003 1313 
Q 3003 1734 2745 1975 
Q 2488 2216 2034 2216 
z
M 1403 2484 
Q 997 2584 770 2862 
Q 544 3141 544 3541 
Q 544 4100 942 4425 
Q 1341 4750 2034 4750 
Q 2731 4750 3128 4425 
Q 3525 4100 3525 3541 
Q 3525 3141 3298 2862 
Q 3072 2584 2669 2484 
Q 3125 2378 3379 2068 
Q 3634 1759 3634 1313 
Q 3634 634 3220 271 
Q 2806 -91 2034 -91 
Q 1263 -91 848 271 
Q 434 634 434 1313 
Q 434 1759 690 2068 
Q 947 2378 1403 2484 
z
M 1172 3481 
Q 1172 3119 1398 2916 
Q 1625 2713 2034 2713 
Q 2441 2713 2670 2916 
Q 2900 3119 2900 3481 
Q 2900 3844 2670 4047 
Q 2441 4250 2034 4250 
Q 1625 4250 1398 4047 
Q 1172 3844 1172 3481 
z
" transform="scale(0.015625)"/>
       </defs>
       <use xlink:href="#DejaVuSans-30"/>
       <use xlink:href="#DejaVuSans-2e" x="63.623047"/>
       <use xlink:href="#DejaVuSans-38" x="95.410156"/>
      </g>
     </g>
    </g>
    <g id="ytick_6">
     <g id="line2d_7">
      <g>
       <use xlink:href="#mfb65443707" x="90" y="34.56" style="stroke: #000000; stroke-width: 0.8"/>
      </g>
     </g>
     <g id="text_7">
      <!-- 1.0 -->
      <g transform="translate(67.096875 38.359219) scale(0.1 -0.1)">
       <defs>
        <path id="DejaVuSans-31" d="M 794 531 
L 1825 531 
L 1825 4091 
L 703 3866 
L 703 4441 
L 1819 4666 
L 2450 4666 
L 2450 531 
L 3481 531 
L 3481 0 
L 794 0 
L 794 531 
z
" transform="scale(0.015625)"/>
       </defs>
       <use xlink:href="#DejaVuSans-31"/>
       <use xlink:href="#DejaVuSans-2e" x="63.623047"/>
       <use xlink:href="#DejaVuSans-30" x="95.410156"/>
      </g>
     </g>
    </g>
    <g id="text_8">
     <!-- $p$ -->
     <g transform="translate(60.996875 148.64) rotate(-90) scale(0.1 -0.1)">
      <defs>
       <path id="DejaVuSans-Oblique-70" d="M 3175 2156 
Q 3175 2616 2975 2859 
Q 2775 3103 2400 3103 
Q 2144 3103 1911 2972 
Q 1678 2841 1497 2591 
Q 1319 2344 1212 1994 
Q 1106 1644 1106 1300 
Q 1106 863 1306 627 
Q 1506 391 1875 391 
Q 2147 391 2380 519 
Q 2613 647 2778 891 
Q 2956 1147 3065 1494 
Q 3175 1841 3175 2156 
z
M 1394 2969 
Q 1625 3272 1939 3428 
Q 2253 3584 2638 3584 
Q 3175 3584 3472 3232 
Q 3769 2881 3769 2247 
Q 3769 1728 3584 1258 
Q 3400 788 3053 416 
Q 2822 169 2531 39 
Q 2241 -91 1919 -91 
Q 1547 -91 1294 64 
Q 1041 219 916 525 
L 556 -1331 
L -19 -1331 
L 922 3500 
L 1497 3500 
L 1394 2969 
z
" transform="scale(0.015625)"/>
      </defs>
      <use xlink:href="#DejaVuSans-Oblique-70"/>
     </g>
    </g>
   </g>
   <g id="line2d_8">
    <path d="M 172.058824 200.049009 
L 172.058824 160.175104 
" clip-path="url(#pad86376fb1)" style="fill: none; stroke: #343434; stroke-width: 1.5; stroke-linecap: square"/>
   </g>
   <g id="line2d_9">
    <path d="M 172.058824 193.772953 
L 172.058824 172.75011 
" clip-path="url(#pad86376fb1)" style="fill: none; stroke: #343434; stroke-width: 4.5; stroke-linecap: square"/>
   </g>
   <g id="patch_3">
    <path d="M 90 256.32 
L 90 34.56 
" style="fill: none; stroke: #000000; stroke-width: 0.8; stroke-linejoin: miter; stroke-linecap: square"/>
   </g>
   <g id="patch_4">
    <path d="M 254.117647 256.32 
L 254.117647 34.56 
" style="fill: none; stroke: #000000; stroke-width: 0.8; stroke-linejoin: miter; stroke-linecap: square"/>
   </g>
   <g id="patch_5">
    <path d="M 90 256.32 
L 254.117647 256.32 
" style="fill: none; stroke: #000000; stroke-width: 0.8; stroke-linejoin: miter; stroke-linecap: square"/>
   </g>
   <g id="patch_6">
    <path d="M 90 34.56 
L 254.117647 34.56 
" style="fill: none; stroke: #000000; stroke-width: 0.8; stroke-linejoin: miter; stroke-linecap: square"/>
   </g>
   <g id="PathCollection_1">
    <defs>
     <path id="mca7fbc6356" d="M 0 1.5 
C 0.397805 1.5 0.77937 1.341951 1.06066 1.06066 
C 1.341951 0.77937 1.5 0.397805 1.5 0 
C 1.5 -0.397805 1.341951 -0.77937 1.06066 -1.06066 
C 0.77937 -1.341951 0.397805 -1.5 0 -1.5 
C -0.397805 -1.5 -0.77937 -1.341951 -1.06066 -1.06066 
C -1.341951 -0.77937 -1.5 -0.397805 -1.5 0 
C -1.5 0.397805 -1.341951 0.77937 -1.06066 1.06066 
C -0.77937 1.341951 -0.397805 1.5 0 1.5 
z
" style="stroke: #343434; stroke-opacity: 0.5"/>
    </defs>
    <g clip-path="url(#pad86376fb1)">
     <use xlink:href="#mca7fbc6356" x="172.058824" y="182.740322" style="fill: #ffffff; fill-opacity: 0.5; stroke: #343434; stroke-opacity: 0.5"/>
    </g>
   </g>
   <g id="text_9">
    <!-- $p(return)$ - coop -->
    <g transform="translate(124.538824 28.56) scale(0.12 -0.12)">
     <defs>
      <path id="DejaVuSans-28" d="M 1984 4856 
Q 1566 4138 1362 3434 
Q 1159 2731 1159 2009 
Q 1159 1288 1364 580 
Q 1569 -128 1984 -844 
L 1484 -844 
Q 1016 -109 783 600 
Q 550 1309 550 2009 
Q 550 2706 781 3412 
Q 1013 4119 1484 4856 
L 1984 4856 
z
" transform="scale(0.015625)"/>
      <path id="DejaVuSans-Oblique-72" d="M 2853 2969 
Q 2766 3016 2653 3041 
Q 2541 3066 2413 3066 
Q 1953 3066 1609 2717 
Q 1266 2369 1153 1784 
L 800 0 
L 225 0 
L 909 3500 
L 1484 3500 
L 1375 2956 
Q 1603 3259 1920 3421 
Q 2238 3584 2597 3584 
Q 2691 3584 2781 3573 
Q 2872 3563 2963 3538 
L 2853 2969 
z
" transform="scale(0.015625)"/>
      <path id="DejaVuSans-Oblique-65" d="M 3078 2063 
Q 3088 2113 3092 2166 
Q 3097 2219 3097 2272 
Q 3097 2653 2873 2875 
Q 2650 3097 2266 3097 
Q 1838 3097 1509 2826 
Q 1181 2556 1013 2059 
L 3078 2063 
z
M 3578 1613 
L 903 1613 
Q 884 1494 878 1425 
Q 872 1356 872 1306 
Q 872 872 1139 634 
Q 1406 397 1894 397 
Q 2269 397 2603 481 
Q 2938 566 3225 728 
L 3116 159 
Q 2806 34 2476 -28 
Q 2147 -91 1806 -91 
Q 1078 -91 686 257 
Q 294 606 294 1247 
Q 294 1794 489 2264 
Q 684 2734 1063 3103 
Q 1306 3334 1642 3459 
Q 1978 3584 2356 3584 
Q 2950 3584 3301 3228 
Q 3653 2872 3653 2272 
Q 3653 2128 3634 1964 
Q 3616 1800 3578 1613 
z
" transform="scale(0.015625)"/>
      <path id="DejaVuSans-Oblique-74" d="M 2706 3500 
L 2619 3053 
L 1472 3053 
L 1100 1153 
Q 1081 1047 1072 975 
Q 1063 903 1063 863 
Q 1063 663 1183 572 
Q 1303 481 1569 481 
L 2150 481 
L 2053 0 
L 1503 0 
Q 991 0 739 200 
Q 488 400 488 806 
Q 488 878 497 964 
Q 506 1050 525 1153 
L 897 3053 
L 409 3053 
L 500 3500 
L 978 3500 
L 1172 4494 
L 1747 4494 
L 1556 3500 
L 2706 3500 
z
" transform="scale(0.015625)"/>
      <path id="DejaVuSans-Oblique-75" d="M 428 1388 
L 838 3500 
L 1416 3500 
L 1006 1409 
Q 975 1256 961 1147 
Q 947 1038 947 966 
Q 947 700 1109 554 
Q 1272 409 1569 409 
Q 2031 409 2368 721 
Q 2706 1034 2809 1563 
L 3194 3500 
L 3769 3500 
L 3091 0 
L 2516 0 
L 2631 550 
Q 2388 244 2052 76 
Q 1716 -91 1338 -91 
Q 878 -91 622 161 
Q 366 413 366 863 
Q 366 956 381 1097 
Q 397 1238 428 1388 
z
" transform="scale(0.015625)"/>
      <path id="DejaVuSans-Oblique-6e" d="M 3566 2113 
L 3156 0 
L 2578 0 
L 2988 2091 
Q 3016 2238 3031 2350 
Q 3047 2463 3047 2528 
Q 3047 2791 2881 2937 
Q 2716 3084 2419 3084 
Q 1956 3084 1622 2776 
Q 1288 2469 1184 1941 
L 800 0 
L 225 0 
L 903 3500 
L 1478 3500 
L 1363 2950 
Q 1603 3253 1940 3418 
Q 2278 3584 2650 3584 
Q 3113 3584 3367 3334 
Q 3622 3084 3622 2631 
Q 3622 2519 3608 2391 
Q 3594 2263 3566 2113 
z
" transform="scale(0.015625)"/>
      <path id="DejaVuSans-29" d="M 513 4856 
L 1013 4856 
Q 1481 4119 1714 3412 
Q 1947 2706 1947 2009 
Q 1947 1309 1714 600 
Q 1481 -109 1013 -844 
L 513 -844 
Q 928 -128 1133 580 
Q 1338 1288 1338 2009 
Q 1338 2731 1133 3434 
Q 928 4138 513 4856 
z
" transform="scale(0.015625)"/>
      <path id="DejaVuSans-20" transform="scale(0.015625)"/>
      <path id="DejaVuSans-2d" d="M 313 2009 
L 1997 2009 
L 1997 1497 
L 313 1497 
L 313 2009 
z
" transform="scale(0.015625)"/>
      <path id="DejaVuSans-63" d="M 3122 3366 
L 3122 2828 
Q 2878 2963 2633 3030 
Q 2388 3097 2138 3097 
Q 1578 3097 1268 2742 
Q 959 2388 959 1747 
Q 959 1106 1268 751 
Q 1578 397 2138 397 
Q 2388 397 2633 464 
Q 2878 531 3122 666 
L 3122 134 
Q 2881 22 2623 -34 
Q 2366 -91 2075 -91 
Q 1284 -91 818 406 
Q 353 903 353 1747 
Q 353 2603 823 3093 
Q 1294 3584 2113 3584 
Q 2378 3584 2631 3529 
Q 2884 3475 3122 3366 
z
" transform="scale(0.015625)"/>
      <path id="DejaVuSans-6f" d="M 1959 3097 
Q 1497 3097 1228 2736 
Q 959 2375 959 1747 
Q 959 1119 1226 758 
Q 1494 397 1959 397 
Q 2419 397 2687 759 
Q 2956 1122 2956 1747 
Q 2956 2369 2687 2733 
Q 2419 3097 1959 3097 
z
M 1959 3584 
Q 2709 3584 3137 3096 
Q 3566 2609 3566 1747 
Q 3566 888 3137 398 
Q 2709 -91 1959 -91 
Q 1206 -91 779 398 
Q 353 888 353 1747 
Q 353 2609 779 3096 
Q 1206 3584 1959 3584 
z
" transform="scale(0.015625)"/>
      <path id="DejaVuSans-70" d="M 1159 525 
L 1159 -1331 
L 581 -1331 
L 581 3500 
L 1159 3500 
L 1159 2969 
Q 1341 3281 1617 3432 
Q 1894 3584 2278 3584 
Q 2916 3584 3314 3078 
Q 3713 2572 3713 1747 
Q 3713 922 3314 415 
Q 2916 -91 2278 -91 
Q 1894 -91 1617 61 
Q 1341 213 1159 525 
z
M 3116 1747 
Q 3116 2381 2855 2742 
Q 2594 3103 2138 3103 
Q 1681 3103 1420 2742 
Q 1159 2381 1159 1747 
Q 1159 1113 1420 752 
Q 1681 391 2138 391 
Q 2594 391 2855 752 
Q 3116 1113 3116 1747 
z
" transform="scale(0.015625)"/>
     </defs>
     <use xlink:href="#DejaVuSans-Oblique-70" transform="translate(0 0.125)"/>
     <use xlink:href="#DejaVuSans-28" transform="translate(63.476562 0.125)"/>
     <use xlink:href="#DejaVuSans-Oblique-72" transform="translate(102.490234 0.125)"/>
     <use xlink:href="#DejaVuSans-Oblique-65" transform="translate(143.603516 0.125)"/>
     <use xlink:href="#DejaVuSans-Oblique-74" transform="translate(205.126953 0.125)"/>
     <use xlink:href="#DejaVuSans-Oblique-75" transform="translate(244.335938 0.125)"/>
     <use xlink:href="#DejaVuSans-Oblique-72" transform="translate(307.714844 0.125)"/>
     <use xlink:href="#DejaVuSans-Oblique-6e" transform="translate(348.828125 0.125)"/>
     <use xlink:href="#DejaVuSans-29" transform="translate(412.207031 0.125)"/>
     <use xlink:href="#DejaVuSans-20" transform="translate(451.220703 0.125)"/>
     <use xlink:href="#DejaVuSans-2d" transform="translate(483.007812 0.125)"/>
     <use xlink:href="#DejaVuSans-20" transform="translate(519.091797 0.125)"/>
     <use xlink:href="#DejaVuSans-63" transform="translate(550.878906 0.125)"/>
     <use xlink:href="#DejaVuSans-6f" transform="translate(605.859375 0.125)"/>
     <use xlink:href="#DejaVuSans-6f" transform="translate(667.041016 0.125)"/>
     <use xlink:href="#DejaVuSans-70" transform="translate(728.222656 0.125)"/>
    </g>
   </g>
  </g>
  <g id="axes_2">
   <g id="patch_7">
    <path d="M 286.941176 256.32 
L 451.058824 256.32 
L 451.058824 34.56 
L 286.941176 34.56 
z
" style="fill: #ffffff"/>
   </g>
   <g id="PolyCollection_2">
    <defs>
     <path id="m0e534d3522" d="M 370.223704 -77.769085 
L 367.776296 -77.769085 
L 367.454088 -78.405099 
L 367.071753 -79.041113 
L 366.625163 -79.677126 
L 366.111827 -80.31314 
L 365.531361 -80.949154 
L 364.885923 -81.585168 
L 364.180547 -82.221182 
L 363.423344 -82.857196 
L 362.625521 -83.49321 
L 361.801191 -84.129224 
L 360.966956 -84.765237 
L 360.141265 -85.401251 
L 359.34356 -86.037265 
L 358.593264 -86.673279 
L 357.908659 -87.309293 
L 357.305729 -87.945307 
L 356.797051 -88.581321 
L 356.390813 -89.217335 
L 356.090048 -89.853348 
L 355.892134 -90.489362 
L 355.788619 -91.125376 
L 355.765405 -91.76139 
L 355.803274 -92.397404 
L 355.878753 -93.033418 
L 355.965259 -93.669432 
L 356.03446 -94.305446 
L 356.057766 -94.941459 
L 356.007845 -95.577473 
L 355.860064 -96.213487 
L 355.593743 -96.849501 
L 355.193129 -97.485515 
L 354.647997 -98.121529 
L 353.953839 -98.757543 
L 353.111593 -99.393557 
L 352.126941 -100.02957 
L 351.009208 -100.665584 
L 349.769981 -101.301598 
L 348.421538 -101.937612 
L 346.975281 -102.573626 
L 345.44031 -103.20964 
L 343.822323 -103.845654 
L 342.122984 -104.481668 
L 340.339875 -105.117681 
L 338.467078 -105.753695 
L 336.4964 -106.389709 
L 334.41915 -107.025723 
L 332.228328 -107.661737 
L 329.921041 -108.297751 
L 327.500886 -108.933765 
L 324.980066 -109.569779 
L 322.380973 -110.205792 
L 319.737039 -110.841806 
L 317.092703 -111.47782 
L 314.502417 -112.113834 
L 312.02871 -112.749848 
L 309.739421 -113.385862 
L 307.704276 -114.021876 
L 305.991095 -114.65789 
L 304.661893 -115.293903 
L 303.769207 -115.929917 
L 303.352941 -116.565931 
L 303.437966 -117.201945 
L 304.03267 -117.837959 
L 305.128543 -118.473973 
L 306.700809 -119.109987 
L 308.710017 -119.746001 
L 311.104448 -120.382014 
L 313.823095 -121.018028 
L 316.798997 -121.654042 
L 319.962643 -122.290056 
L 323.245223 -122.92607 
L 326.5815 -123.562084 
L 329.912157 -124.198098 
L 333.185522 -124.834112 
L 336.35862 -125.470125 
L 339.397597 -126.106139 
L 342.277559 -126.742153 
L 344.981942 -127.378167 
L 347.501534 -128.014181 
L 349.833286 -128.650195 
L 351.979018 -129.286209 
L 353.944159 -129.922223 
L 355.736578 -130.558236 
L 357.365593 -131.19425 
L 358.841179 -131.830264 
L 360.173381 -132.466278 
L 361.371943 -133.102292 
L 362.4461 -133.738306 
L 363.404515 -134.37432 
L 364.255318 -135.010334 
L 365.006196 -135.646347 
L 365.664514 -136.282361 
L 366.237424 -136.918375 
L 366.731952 -137.554389 
L 367.155048 -138.190403 
L 367.513594 -138.826417 
L 367.814373 -139.462431 
L 368.064014 -140.098445 
L 368.268919 -140.734458 
L 369.731081 -140.734458 
L 369.731081 -140.734458 
L 369.935986 -140.098445 
L 370.185627 -139.462431 
L 370.486406 -138.826417 
L 370.844952 -138.190403 
L 371.268048 -137.554389 
L 371.762576 -136.918375 
L 372.335486 -136.282361 
L 372.993804 -135.646347 
L 373.744682 -135.010334 
L 374.595485 -134.37432 
L 375.5539 -133.738306 
L 376.628057 -133.102292 
L 377.826619 -132.466278 
L 379.158821 -131.830264 
L 380.634407 -131.19425 
L 382.263422 -130.558236 
L 384.055841 -129.922223 
L 386.020982 -129.286209 
L 388.166714 -128.650195 
L 390.498466 -128.014181 
L 393.018058 -127.378167 
L 395.722441 -126.742153 
L 398.602403 -126.106139 
L 401.64138 -125.470125 
L 404.814478 -124.834112 
L 408.087843 -124.198098 
L 411.4185 -123.562084 
L 414.754777 -122.92607 
L 418.037357 -122.290056 
L 421.201003 -121.654042 
L 424.176905 -121.018028 
L 426.895552 -120.382014 
L 429.289983 -119.746001 
L 431.299191 -119.109987 
L 432.871457 -118.473973 
L 433.96733 -117.837959 
L 434.562034 -117.201945 
L 434.647059 -116.565931 
L 434.230793 -115.929917 
L 433.338107 -115.293903 
L 432.008905 -114.65789 
L 430.295724 -114.021876 
L 428.260579 -113.385862 
L 425.97129 -112.749848 
L 423.497583 -112.113834 
L 420.907297 -111.47782 
L 418.262961 -110.841806 
L 415.619027 -110.205792 
L 413.019934 -109.569779 
L 410.499114 -108.933765 
L 408.078959 -108.297751 
L 405.771672 -107.661737 
L 403.58085 -107.025723 
L 401.5036 -106.389709 
L 399.532922 -105.753695 
L 397.660125 -105.117681 
L 395.877016 -104.481668 
L 394.177677 -103.845654 
L 392.55969 -103.20964 
L 391.024719 -102.573626 
L 389.578462 -101.937612 
L 388.230019 -101.301598 
L 386.990792 -100.665584 
L 385.873059 -100.02957 
L 384.888407 -99.393557 
L 384.046161 -98.757543 
L 383.352003 -98.121529 
L 382.806871 -97.485515 
L 382.406257 -96.849501 
L 382.139936 -96.213487 
L 381.992155 -95.577473 
L 381.942234 -94.941459 
L 381.96554 -94.305446 
L 382.034741 -93.669432 
L 382.121247 -93.033418 
L 382.196726 -92.397404 
L 382.234595 -91.76139 
L 382.211381 -91.125376 
L 382.107866 -90.489362 
L 381.909952 -89.853348 
L 381.609187 -89.217335 
L 381.202949 -88.581321 
L 380.694271 -87.945307 
L 380.091341 -87.309293 
L 379.406736 -86.673279 
L 378.65644 -86.037265 
L 377.858735 -85.401251 
L 377.033044 -84.765237 
L 376.198809 -84.129224 
L 375.374479 -83.49321 
L 374.576656 -82.857196 
L 373.819453 -82.221182 
L 373.114077 -81.585168 
L 372.468639 -80.949154 
L 371.888173 -80.31314 
L 371.374837 -79.677126 
L 370.928247 -79.041113 
L 370.545912 -78.405099 
L 370.223704 -77.769085 
z
" style="stroke: #646464; stroke-width: 1.5"/>
    </defs>
    <g clip-path="url(#p8859ca50f3)">
     <use xlink:href="#m0e534d3522" x="0" y="288" style="fill: #e98966; stroke: #646464; stroke-width: 1.5"/>
    </g>
   </g>
   <g id="matplotlib.axis_3">
    <g id="xtick_2">
     <g id="line2d_10">
      <g>
       <use xlink:href="#m8ced630c3a" x="369" y="256.32" style="stroke: #000000; stroke-width: 0.8"/>
      </g>
     </g>
     <g id="text_10">
      <!-- 0 -->
      <g transform="translate(365.81875 270.918437) scale(0.1 -0.1)">
       <use xlink:href="#DejaVuSans-30"/>
      </g>
     </g>
    </g>
   </g>
   <g id="matplotlib.axis_4">
    <g id="ytick_7">
     <g id="line2d_11">
      <g>
       <use xlink:href="#mfb65443707" x="286.941176" y="256.32" style="stroke: #000000; stroke-width: 0.8"/>
      </g>
     </g>
     <g id="text_11">
      <!-- 0.0 -->
      <g transform="translate(264.038051 260.119219) scale(0.1 -0.1)">
       <use xlink:href="#DejaVuSans-30"/>
       <use xlink:href="#DejaVuSans-2e" x="63.623047"/>
       <use xlink:href="#DejaVuSans-30" x="95.410156"/>
      </g>
     </g>
    </g>
    <g id="ytick_8">
     <g id="line2d_12">
      <g>
       <use xlink:href="#mfb65443707" x="286.941176" y="211.968" style="stroke: #000000; stroke-width: 0.8"/>
      </g>
     </g>
     <g id="text_12">
      <!-- 0.2 -->
      <g transform="translate(264.038051 215.767219) scale(0.1 -0.1)">
       <use xlink:href="#DejaVuSans-30"/>
       <use xlink:href="#DejaVuSans-2e" x="63.623047"/>
       <use xlink:href="#DejaVuSans-32" x="95.410156"/>
      </g>
     </g>
    </g>
    <g id="ytick_9">
     <g id="line2d_13">
      <g>
       <use xlink:href="#mfb65443707" x="286.941176" y="167.616" style="stroke: #000000; stroke-width: 0.8"/>
      </g>
     </g>
     <g id="text_13">
      <!-- 0.4 -->
      <g transform="translate(264.038051 171.415219) scale(0.1 -0.1)">
       <use xlink:href="#DejaVuSans-30"/>
       <use xlink:href="#DejaVuSans-2e" x="63.623047"/>
       <use xlink:href="#DejaVuSans-34" x="95.410156"/>
      </g>
     </g>
    </g>
    <g id="ytick_10">
     <g id="line2d_14">
      <g>
       <use xlink:href="#mfb65443707" x="286.941176" y="123.264" style="stroke: #000000; stroke-width: 0.8"/>
      </g>
     </g>
     <g id="text_14">
      <!-- 0.6 -->
      <g transform="translate(264.038051 127.063219) scale(0.1 -0.1)">
       <use xlink:href="#DejaVuSans-30"/>
       <use xlink:href="#DejaVuSans-2e" x="63.623047"/>
       <use xlink:href="#DejaVuSans-36" x="95.410156"/>
      </g>
     </g>
    </g>
    <g id="ytick_11">
     <g id="line2d_15">
      <g>
       <use xlink:href="#mfb65443707" x="286.941176" y="78.912" style="stroke: #000000; stroke-width: 0.8"/>
      </g>
     </g>
     <g id="text_15">
      <!-- 0.8 -->
      <g transform="translate(264.038051 82.711219) scale(0.1 -0.1)">
       <use xlink:href="#DejaVuSans-30"/>
       <use xlink:href="#DejaVuSans-2e" x="63.623047"/>
       <use xlink:href="#DejaVuSans-38" x="95.410156"/>
      </g>
     </g>
    </g>
    <g id="ytick_12">
     <g id="line2d_16">
      <g>
       <use xlink:href="#mfb65443707" x="286.941176" y="34.56" style="stroke: #000000; stroke-width: 0.8"/>
      </g>
     </g>
     <g id="text_16">
      <!-- 1.0 -->
      <g transform="translate(264.038051 38.359219) scale(0.1 -0.1)">
       <use xlink:href="#DejaVuSans-31"/>
       <use xlink:href="#DejaVuSans-2e" x="63.623047"/>
       <use xlink:href="#DejaVuSans-30" x="95.410156"/>
      </g>
     </g>
    </g>
   </g>
   <g id="line2d_17">
    <path d="M 369 199.217571 
L 369 158.278886 
" clip-path="url(#p8859ca50f3)" style="fill: none; stroke: #646464; stroke-width: 1.5; stroke-linecap: square"/>
   </g>
   <g id="line2d_18">
    <path d="M 369 182.246947 
L 369 169.922243 
" clip-path="url(#p8859ca50f3)" style="fill: none; stroke: #646464; stroke-width: 4.5; stroke-linecap: square"/>
   </g>
   <g id="patch_8">
    <path d="M 286.941176 256.32 
L 286.941176 34.56 
" style="fill: none; stroke: #000000; stroke-width: 0.8; stroke-linejoin: miter; stroke-linecap: square"/>
   </g>
   <g id="patch_9">
    <path d="M 451.058824 256.32 
L 451.058824 34.56 
" style="fill: none; stroke: #000000; stroke-width: 0.8; stroke-linejoin: miter; stroke-linecap: square"/>
   </g>
   <g id="patch_10">
    <path d="M 286.941176 256.32 
L 451.058824 256.32 
" style="fill: none; stroke: #000000; stroke-width: 0.8; stroke-linejoin: miter; stroke-linecap: square"/>
   </g>
   <g id="patch_11">
    <path d="M 286.941176 34.56 
L 451.058824 34.56 
" style="fill: none; stroke: #000000; stroke-width: 0.8; stroke-linejoin: miter; stroke-linecap: square"/>
   </g>
   <g id="PathCollection_2">
    <defs>
     <path id="m7f580ca77a" d="M 0 1.5 
C 0.397805 1.5 0.77937 1.341951 1.06066 1.06066 
C 1.341951 0.77937 1.5 0.397805 1.5 0 
C 1.5 -0.397805 1.341951 -0.77937 1.06066 -1.06066 
C 0.77937 -1.341951 0.397805 -1.5 0 -1.5 
C -0.397805 -1.5 -0.77937 -1.341951 -1.06066 -1.06066 
C -1.341951 -0.77937 -1.5 -0.397805 -1.5 0 
C -1.5 0.397805 -1.341951 0.77937 -1.06066 1.06066 
C -0.77937 1.341951 -0.397805 1.5 0 1.5 
z
" style="stroke: #646464"/>
    </defs>
    <g clip-path="url(#p8859ca50f3)">
     <use xlink:href="#m7f580ca77a" x="369" y="172.683935" style="fill: #ffffff; stroke: #646464"/>
    </g>
   </g>
   <g id="text_17">
    <!-- $p(return)$ - hostile -->
    <g transform="translate(315.96 28.56) scale(0.12 -0.12)">
     <defs>
      <path id="DejaVuSans-68" d="M 3513 2113 
L 3513 0 
L 2938 0 
L 2938 2094 
Q 2938 2591 2744 2837 
Q 2550 3084 2163 3084 
Q 1697 3084 1428 2787 
Q 1159 2491 1159 1978 
L 1159 0 
L 581 0 
L 581 4863 
L 1159 4863 
L 1159 2956 
Q 1366 3272 1645 3428 
Q 1925 3584 2291 3584 
Q 2894 3584 3203 3211 
Q 3513 2838 3513 2113 
z
" transform="scale(0.015625)"/>
      <path id="DejaVuSans-73" d="M 2834 3397 
L 2834 2853 
Q 2591 2978 2328 3040 
Q 2066 3103 1784 3103 
Q 1356 3103 1142 2972 
Q 928 2841 928 2578 
Q 928 2378 1081 2264 
Q 1234 2150 1697 2047 
L 1894 2003 
Q 2506 1872 2764 1633 
Q 3022 1394 3022 966 
Q 3022 478 2636 193 
Q 2250 -91 1575 -91 
Q 1294 -91 989 -36 
Q 684 19 347 128 
L 347 722 
Q 666 556 975 473 
Q 1284 391 1588 391 
Q 1994 391 2212 530 
Q 2431 669 2431 922 
Q 2431 1156 2273 1281 
Q 2116 1406 1581 1522 
L 1381 1569 
Q 847 1681 609 1914 
Q 372 2147 372 2553 
Q 372 3047 722 3315 
Q 1072 3584 1716 3584 
Q 2034 3584 2315 3537 
Q 2597 3491 2834 3397 
z
" transform="scale(0.015625)"/>
      <path id="DejaVuSans-74" d="M 1172 4494 
L 1172 3500 
L 2356 3500 
L 2356 3053 
L 1172 3053 
L 1172 1153 
Q 1172 725 1289 603 
Q 1406 481 1766 481 
L 2356 481 
L 2356 0 
L 1766 0 
Q 1100 0 847 248 
Q 594 497 594 1153 
L 594 3053 
L 172 3053 
L 172 3500 
L 594 3500 
L 594 4494 
L 1172 4494 
z
" transform="scale(0.015625)"/>
      <path id="DejaVuSans-69" d="M 603 3500 
L 1178 3500 
L 1178 0 
L 603 0 
L 603 3500 
z
M 603 4863 
L 1178 4863 
L 1178 4134 
L 603 4134 
L 603 4863 
z
" transform="scale(0.015625)"/>
      <path id="DejaVuSans-6c" d="M 603 4863 
L 1178 4863 
L 1178 0 
L 603 0 
L 603 4863 
z
" transform="scale(0.015625)"/>
      <path id="DejaVuSans-65" d="M 3597 1894 
L 3597 1613 
L 953 1613 
Q 991 1019 1311 708 
Q 1631 397 2203 397 
Q 2534 397 2845 478 
Q 3156 559 3463 722 
L 3463 178 
Q 3153 47 2828 -22 
Q 2503 -91 2169 -91 
Q 1331 -91 842 396 
Q 353 884 353 1716 
Q 353 2575 817 3079 
Q 1281 3584 2069 3584 
Q 2775 3584 3186 3129 
Q 3597 2675 3597 1894 
z
M 3022 2063 
Q 3016 2534 2758 2815 
Q 2500 3097 2075 3097 
Q 1594 3097 1305 2825 
Q 1016 2553 972 2059 
L 3022 2063 
z
" transform="scale(0.015625)"/>
     </defs>
     <use xlink:href="#DejaVuSans-Oblique-70" transform="translate(0 0.015625)"/>
     <use xlink:href="#DejaVuSans-28" transform="translate(63.476562 0.015625)"/>
     <use xlink:href="#DejaVuSans-Oblique-72" transform="translate(102.490234 0.015625)"/>
     <use xlink:href="#DejaVuSans-Oblique-65" transform="translate(143.603516 0.015625)"/>
     <use xlink:href="#DejaVuSans-Oblique-74" transform="translate(205.126953 0.015625)"/>
     <use xlink:href="#DejaVuSans-Oblique-75" transform="translate(244.335938 0.015625)"/>
     <use xlink:href="#DejaVuSans-Oblique-72" transform="translate(307.714844 0.015625)"/>
     <use xlink:href="#DejaVuSans-Oblique-6e" transform="translate(348.828125 0.015625)"/>
     <use xlink:href="#DejaVuSans-29" transform="translate(412.207031 0.015625)"/>
     <use xlink:href="#DejaVuSans-20" transform="translate(451.220703 0.015625)"/>
     <use xlink:href="#DejaVuSans-2d" transform="translate(483.007812 0.015625)"/>
     <use xlink:href="#DejaVuSans-20" transform="translate(519.091797 0.015625)"/>
     <use xlink:href="#DejaVuSans-68" transform="translate(550.878906 0.015625)"/>
     <use xlink:href="#DejaVuSans-6f" transform="translate(614.257812 0.015625)"/>
     <use xlink:href="#DejaVuSans-73" transform="translate(675.439453 0.015625)"/>
     <use xlink:href="#DejaVuSans-74" transform="translate(727.539062 0.015625)"/>
     <use xlink:href="#DejaVuSans-69" transform="translate(766.748047 0.015625)"/>
     <use xlink:href="#DejaVuSans-6c" transform="translate(794.53125 0.015625)"/>
     <use xlink:href="#DejaVuSans-65" transform="translate(822.314453 0.015625)"/>
    </g>
   </g>
  </g>
  <g id="axes_3">
   <g id="patch_12">
    <path d="M 483.882353 256.32 
L 648 256.32 
L 648 34.56 
L 483.882353 34.56 
z
" style="fill: #ffffff"/>
   </g>
   <g id="PolyCollection_3">
    <defs>
     <path id="m9afd067ed2" d="M 570.22185 -67.208844 
L 561.660503 -67.208844 
L 560.703079 -67.891566 
L 559.595982 -68.574288 
L 558.331955 -69.257011 
L 556.907267 -69.939733 
L 555.322491 -70.622455 
L 553.583187 -71.305177 
L 551.700395 -71.987899 
L 549.690906 -72.670621 
L 547.577221 -73.353344 
L 545.387182 -74.036066 
L 543.153231 -74.718788 
L 540.911303 -75.40151 
L 538.699399 -76.084232 
L 536.555869 -76.766955 
L 534.517523 -77.449677 
L 532.617659 -78.132399 
L 530.884153 -78.815121 
L 529.337731 -79.497843 
L 527.990575 -80.180566 
L 526.845362 -80.863288 
L 525.894838 -81.54601 
L 525.121994 -82.228732 
L 524.500844 -82.911454 
L 523.997785 -83.594176 
L 523.573481 -84.276899 
L 523.185131 -84.959621 
L 522.789008 -85.642343 
L 522.343078 -86.325065 
L 521.809537 -87.007787 
L 521.157094 -87.69051 
L 520.362834 -88.373232 
L 519.413553 -89.055954 
L 518.306462 -89.738676 
L 517.049233 -90.421398 
L 515.659387 -91.10412 
L 514.16307 -91.786843 
L 512.593339 -92.469565 
L 510.988055 -93.152287 
L 509.387565 -93.835009 
L 507.832325 -94.517731 
L 506.360635 -95.200454 
L 505.006622 -95.883176 
L 503.798622 -96.565898 
L 502.758023 -97.24862 
L 501.898648 -97.931342 
L 501.226671 -98.614065 
L 500.741041 -99.296787 
L 500.434362 -99.979509 
L 500.294118 -100.662231 
L 500.304135 -101.344953 
L 500.446176 -102.027675 
L 500.701512 -102.710398 
L 501.052393 -103.39312 
L 501.483304 -104.075842 
L 501.981933 -104.758564 
L 502.53982 -105.441286 
L 503.152665 -106.124009 
L 503.820292 -106.806731 
L 504.546317 -107.489453 
L 505.337562 -108.172175 
L 506.20327 -108.854897 
L 507.154205 -109.53762 
L 508.201682 -110.220342 
L 509.356622 -110.903064 
L 510.628657 -111.585786 
L 512.02536 -112.268508 
L 513.551615 -112.95123 
L 515.209163 -113.633953 
L 516.996319 -114.316675 
L 518.90788 -114.999397 
L 520.935196 -115.682119 
L 523.066392 -116.364841 
L 525.286732 -117.047564 
L 527.579066 -117.730286 
L 529.924375 -118.413008 
L 532.302344 -119.09573 
L 534.691968 -119.778452 
L 537.072144 -120.461174 
L 539.42224 -121.143897 
L 541.72261 -121.826619 
L 543.955061 -122.509341 
L 546.103228 -123.192063 
L 548.152884 -123.874785 
L 550.092154 -124.557508 
L 551.911652 -125.24023 
L 553.604529 -125.922952 
L 555.166444 -126.605674 
L 556.595469 -127.288396 
L 557.891927 -127.971119 
L 559.058188 -128.653841 
L 560.098411 -129.336563 
L 561.018278 -130.019285 
L 561.824695 -130.702007 
L 562.525499 -131.384729 
L 563.129172 -132.067452 
L 563.644564 -132.750174 
L 564.080643 -133.432896 
L 564.446278 -134.115618 
L 564.750047 -134.79834 
L 567.132306 -134.79834 
L 567.132306 -134.79834 
L 567.436075 -134.115618 
L 567.80171 -133.432896 
L 568.237789 -132.750174 
L 568.753181 -132.067452 
L 569.356854 -131.384729 
L 570.057658 -130.702007 
L 570.864075 -130.019285 
L 571.783941 -129.336563 
L 572.824165 -128.653841 
L 573.990426 -127.971119 
L 575.286884 -127.288396 
L 576.715909 -126.605674 
L 578.277824 -125.922952 
L 579.9707 -125.24023 
L 581.790199 -124.557508 
L 583.729469 -123.874785 
L 585.779125 -123.192063 
L 587.927292 -122.509341 
L 590.159743 -121.826619 
L 592.460113 -121.143897 
L 594.810209 -120.461174 
L 597.190385 -119.778452 
L 599.580009 -119.09573 
L 601.957978 -118.413008 
L 604.303287 -117.730286 
L 606.595621 -117.047564 
L 608.81596 -116.364841 
L 610.947157 -115.682119 
L 612.974473 -114.999397 
L 614.886034 -114.316675 
L 616.67319 -113.633953 
L 618.330738 -112.95123 
L 619.856993 -112.268508 
L 621.253696 -111.585786 
L 622.525731 -110.903064 
L 623.680671 -110.220342 
L 624.728148 -109.53762 
L 625.679082 -108.854897 
L 626.544791 -108.172175 
L 627.336036 -107.489453 
L 628.062061 -106.806731 
L 628.729688 -106.124009 
L 629.342533 -105.441286 
L 629.90042 -104.758564 
L 630.399049 -104.075842 
L 630.82996 -103.39312 
L 631.180841 -102.710398 
L 631.436177 -102.027675 
L 631.578218 -101.344953 
L 631.588235 -100.662231 
L 631.44799 -99.979509 
L 631.141312 -99.296787 
L 630.655682 -98.614065 
L 629.983705 -97.931342 
L 629.12433 -97.24862 
L 628.083731 -96.565898 
L 626.875731 -95.883176 
L 625.521718 -95.200454 
L 624.050028 -94.517731 
L 622.494788 -93.835009 
L 620.894298 -93.152287 
L 619.289014 -92.469565 
L 617.719283 -91.786843 
L 616.222966 -91.10412 
L 614.83312 -90.421398 
L 613.575891 -89.738676 
L 612.4688 -89.055954 
L 611.519519 -88.373232 
L 610.725259 -87.69051 
L 610.072816 -87.007787 
L 609.539275 -86.325065 
L 609.093345 -85.642343 
L 608.697222 -84.959621 
L 608.308872 -84.276899 
L 607.884568 -83.594176 
L 607.381509 -82.911454 
L 606.760359 -82.228732 
L 605.987515 -81.54601 
L 605.036991 -80.863288 
L 603.891778 -80.180566 
L 602.544622 -79.497843 
L 600.9982 -78.815121 
L 599.264694 -78.132399 
L 597.36483 -77.449677 
L 595.326484 -76.766955 
L 593.182954 -76.084232 
L 590.97105 -75.40151 
L 588.729122 -74.718788 
L 586.495171 -74.036066 
L 584.305132 -73.353344 
L 582.191447 -72.670621 
L 580.181958 -71.987899 
L 578.299166 -71.305177 
L 576.559862 -70.622455 
L 574.975086 -69.939733 
L 573.550398 -69.257011 
L 572.286371 -68.574288 
L 571.179274 -67.891566 
L 570.22185 -67.208844 
z
" style="stroke: #3f3f3f; stroke-width: 1.5"/>
    </defs>
    <g clip-path="url(#p092f12dd8e)">
     <use xlink:href="#m9afd067ed2" x="0" y="288" style="fill: #3274a1; stroke: #3f3f3f; stroke-width: 1.5"/>
    </g>
   </g>
   <g id="matplotlib.axis_5">
    <g id="xtick_3">
     <g id="line2d_19">
      <g>
       <use xlink:href="#m8ced630c3a" x="565.941176" y="256.32" style="stroke: #000000; stroke-width: 0.8"/>
      </g>
     </g>
     <g id="text_18">
      <!-- 0 -->
      <g transform="translate(562.759926 270.918437) scale(0.1 -0.1)">
       <use xlink:href="#DejaVuSans-30"/>
      </g>
     </g>
    </g>
   </g>
   <g id="matplotlib.axis_6">
    <g id="ytick_13">
     <g id="line2d_20">
      <g>
       <use xlink:href="#mfb65443707" x="483.882353" y="256.32" style="stroke: #000000; stroke-width: 0.8"/>
      </g>
     </g>
     <g id="text_19">
      <!-- 0.0 -->
      <g transform="translate(460.979228 260.119219) scale(0.1 -0.1)">
       <use xlink:href="#DejaVuSans-30"/>
       <use xlink:href="#DejaVuSans-2e" x="63.623047"/>
       <use xlink:href="#DejaVuSans-30" x="95.410156"/>
      </g>
     </g>
    </g>
    <g id="ytick_14">
     <g id="line2d_21">
      <g>
       <use xlink:href="#mfb65443707" x="483.882353" y="211.968" style="stroke: #000000; stroke-width: 0.8"/>
      </g>
     </g>
     <g id="text_20">
      <!-- 0.2 -->
      <g transform="translate(460.979228 215.767219) scale(0.1 -0.1)">
       <use xlink:href="#DejaVuSans-30"/>
       <use xlink:href="#DejaVuSans-2e" x="63.623047"/>
       <use xlink:href="#DejaVuSans-32" x="95.410156"/>
      </g>
     </g>
    </g>
    <g id="ytick_15">
     <g id="line2d_22">
      <g>
       <use xlink:href="#mfb65443707" x="483.882353" y="167.616" style="stroke: #000000; stroke-width: 0.8"/>
      </g>
     </g>
     <g id="text_21">
      <!-- 0.4 -->
      <g transform="translate(460.979228 171.415219) scale(0.1 -0.1)">
       <use xlink:href="#DejaVuSans-30"/>
       <use xlink:href="#DejaVuSans-2e" x="63.623047"/>
       <use xlink:href="#DejaVuSans-34" x="95.410156"/>
      </g>
     </g>
    </g>
    <g id="ytick_16">
     <g id="line2d_23">
      <g>
       <use xlink:href="#mfb65443707" x="483.882353" y="123.264" style="stroke: #000000; stroke-width: 0.8"/>
      </g>
     </g>
     <g id="text_22">
      <!-- 0.6 -->
      <g transform="translate(460.979228 127.063219) scale(0.1 -0.1)">
       <use xlink:href="#DejaVuSans-30"/>
       <use xlink:href="#DejaVuSans-2e" x="63.623047"/>
       <use xlink:href="#DejaVuSans-36" x="95.410156"/>
      </g>
     </g>
    </g>
    <g id="ytick_17">
     <g id="line2d_24">
      <g>
       <use xlink:href="#mfb65443707" x="483.882353" y="78.912" style="stroke: #000000; stroke-width: 0.8"/>
      </g>
     </g>
     <g id="text_23">
      <!-- 0.8 -->
      <g transform="translate(460.979228 82.711219) scale(0.1 -0.1)">
       <use xlink:href="#DejaVuSans-30"/>
       <use xlink:href="#DejaVuSans-2e" x="63.623047"/>
       <use xlink:href="#DejaVuSans-38" x="95.410156"/>
      </g>
     </g>
    </g>
    <g id="ytick_18">
     <g id="line2d_25">
      <g>
       <use xlink:href="#mfb65443707" x="483.882353" y="34.56" style="stroke: #000000; stroke-width: 0.8"/>
      </g>
     </g>
     <g id="text_24">
      <!-- 1.0 -->
      <g transform="translate(460.979228 38.359219) scale(0.1 -0.1)">
       <use xlink:href="#DejaVuSans-31"/>
       <use xlink:href="#DejaVuSans-2e" x="63.623047"/>
       <use xlink:href="#DejaVuSans-30" x="95.410156"/>
      </g>
     </g>
    </g>
   </g>
   <g id="line2d_26">
    <path d="M 565.941176 207.392493 
L 565.941176 166.600322 
" clip-path="url(#p092f12dd8e)" style="fill: none; stroke: #3f3f3f; stroke-width: 1.5; stroke-linecap: square"/>
   </g>
   <g id="line2d_27">
    <path d="M 565.941176 194.819604 
L 565.941176 178.967661 
" clip-path="url(#p092f12dd8e)" style="fill: none; stroke: #3f3f3f; stroke-width: 4.5; stroke-linecap: square"/>
   </g>
   <g id="patch_13">
    <path d="M 483.882353 256.32 
L 483.882353 34.56 
" style="fill: none; stroke: #000000; stroke-width: 0.8; stroke-linejoin: miter; stroke-linecap: square"/>
   </g>
   <g id="patch_14">
    <path d="M 648 256.32 
L 648 34.56 
" style="fill: none; stroke: #000000; stroke-width: 0.8; stroke-linejoin: miter; stroke-linecap: square"/>
   </g>
   <g id="patch_15">
    <path d="M 483.882353 256.32 
L 648 256.32 
" style="fill: none; stroke: #000000; stroke-width: 0.8; stroke-linejoin: miter; stroke-linecap: square"/>
   </g>
   <g id="patch_16">
    <path d="M 483.882353 34.56 
L 648 34.56 
" style="fill: none; stroke: #000000; stroke-width: 0.8; stroke-linejoin: miter; stroke-linecap: square"/>
   </g>
   <g id="PathCollection_3">
    <defs>
     <path id="me5dbc6dc55" d="M 0 1.5 
C 0.397805 1.5 0.77937 1.341951 1.06066 1.06066 
C 1.341951 0.77937 1.5 0.397805 1.5 0 
C 1.5 -0.397805 1.341951 -0.77937 1.06066 -1.06066 
C 0.77937 -1.341951 0.397805 -1.5 0 -1.5 
C -0.397805 -1.5 -0.77937 -1.341951 -1.06066 -1.06066 
C -1.341951 -0.77937 -1.5 -0.397805 -1.5 0 
C -1.5 0.397805 -1.341951 0.77937 -1.06066 1.06066 
C -0.77937 1.341951 -0.397805 1.5 0 1.5 
z
" style="stroke: #3f3f3f"/>
    </defs>
    <g clip-path="url(#p092f12dd8e)">
     <use xlink:href="#me5dbc6dc55" x="565.941176" y="189.77033" style="fill: #ffffff; stroke: #3f3f3f"/>
    </g>
   </g>
   <g id="text_25">
    <!-- $p(return)$ - random -->
    <g transform="translate(509.601176 28.56) scale(0.12 -0.12)">
     <defs>
      <path id="DejaVuSans-72" d="M 2631 2963 
Q 2534 3019 2420 3045 
Q 2306 3072 2169 3072 
Q 1681 3072 1420 2755 
Q 1159 2438 1159 1844 
L 1159 0 
L 581 0 
L 581 3500 
L 1159 3500 
L 1159 2956 
Q 1341 3275 1631 3429 
Q 1922 3584 2338 3584 
Q 2397 3584 2469 3576 
Q 2541 3569 2628 3553 
L 2631 2963 
z
" transform="scale(0.015625)"/>
      <path id="DejaVuSans-61" d="M 2194 1759 
Q 1497 1759 1228 1600 
Q 959 1441 959 1056 
Q 959 750 1161 570 
Q 1363 391 1709 391 
Q 2188 391 2477 730 
Q 2766 1069 2766 1631 
L 2766 1759 
L 2194 1759 
z
M 3341 1997 
L 3341 0 
L 2766 0 
L 2766 531 
Q 2569 213 2275 61 
Q 1981 -91 1556 -91 
Q 1019 -91 701 211 
Q 384 513 384 1019 
Q 384 1609 779 1909 
Q 1175 2209 1959 2209 
L 2766 2209 
L 2766 2266 
Q 2766 2663 2505 2880 
Q 2244 3097 1772 3097 
Q 1472 3097 1187 3025 
Q 903 2953 641 2809 
L 641 3341 
Q 956 3463 1253 3523 
Q 1550 3584 1831 3584 
Q 2591 3584 2966 3190 
Q 3341 2797 3341 1997 
z
" transform="scale(0.015625)"/>
      <path id="DejaVuSans-6e" d="M 3513 2113 
L 3513 0 
L 2938 0 
L 2938 2094 
Q 2938 2591 2744 2837 
Q 2550 3084 2163 3084 
Q 1697 3084 1428 2787 
Q 1159 2491 1159 1978 
L 1159 0 
L 581 0 
L 581 3500 
L 1159 3500 
L 1159 2956 
Q 1366 3272 1645 3428 
Q 1925 3584 2291 3584 
Q 2894 3584 3203 3211 
Q 3513 2838 3513 2113 
z
" transform="scale(0.015625)"/>
      <path id="DejaVuSans-64" d="M 2906 2969 
L 2906 4863 
L 3481 4863 
L 3481 0 
L 2906 0 
L 2906 525 
Q 2725 213 2448 61 
Q 2172 -91 1784 -91 
Q 1150 -91 751 415 
Q 353 922 353 1747 
Q 353 2572 751 3078 
Q 1150 3584 1784 3584 
Q 2172 3584 2448 3432 
Q 2725 3281 2906 2969 
z
M 947 1747 
Q 947 1113 1208 752 
Q 1469 391 1925 391 
Q 2381 391 2643 752 
Q 2906 1113 2906 1747 
Q 2906 2381 2643 2742 
Q 2381 3103 1925 3103 
Q 1469 3103 1208 2742 
Q 947 2381 947 1747 
z
" transform="scale(0.015625)"/>
      <path id="DejaVuSans-6d" d="M 3328 2828 
Q 3544 3216 3844 3400 
Q 4144 3584 4550 3584 
Q 5097 3584 5394 3201 
Q 5691 2819 5691 2113 
L 5691 0 
L 5113 0 
L 5113 2094 
Q 5113 2597 4934 2840 
Q 4756 3084 4391 3084 
Q 3944 3084 3684 2787 
Q 3425 2491 3425 1978 
L 3425 0 
L 2847 0 
L 2847 2094 
Q 2847 2600 2669 2842 
Q 2491 3084 2119 3084 
Q 1678 3084 1418 2786 
Q 1159 2488 1159 1978 
L 1159 0 
L 581 0 
L 581 3500 
L 1159 3500 
L 1159 2956 
Q 1356 3278 1631 3431 
Q 1906 3584 2284 3584 
Q 2666 3584 2933 3390 
Q 3200 3197 3328 2828 
z
" transform="scale(0.015625)"/>
     </defs>
     <use xlink:href="#DejaVuSans-Oblique-70" transform="translate(0 0.015625)"/>
     <use xlink:href="#DejaVuSans-28" transform="translate(63.476562 0.015625)"/>
     <use xlink:href="#DejaVuSans-Oblique-72" transform="translate(102.490234 0.015625)"/>
     <use xlink:href="#DejaVuSans-Oblique-65" transform="translate(143.603516 0.015625)"/>
     <use xlink:href="#DejaVuSans-Oblique-74" transform="translate(205.126953 0.015625)"/>
     <use xlink:href="#DejaVuSans-Oblique-75" transform="translate(244.335938 0.015625)"/>
     <use xlink:href="#DejaVuSans-Oblique-72" transform="translate(307.714844 0.015625)"/>
     <use xlink:href="#DejaVuSans-Oblique-6e" transform="translate(348.828125 0.015625)"/>
     <use xlink:href="#DejaVuSans-29" transform="translate(412.207031 0.015625)"/>
     <use xlink:href="#DejaVuSans-20" transform="translate(451.220703 0.015625)"/>
     <use xlink:href="#DejaVuSans-2d" transform="translate(483.007812 0.015625)"/>
     <use xlink:href="#DejaVuSans-20" transform="translate(519.091797 0.015625)"/>
     <use xlink:href="#DejaVuSans-72" transform="translate(550.878906 0.015625)"/>
     <use xlink:href="#DejaVuSans-61" transform="translate(591.992188 0.015625)"/>
     <use xlink:href="#DejaVuSans-6e" transform="translate(653.271484 0.015625)"/>
     <use xlink:href="#DejaVuSans-64" transform="translate(716.650391 0.015625)"/>
     <use xlink:href="#DejaVuSans-6f" transform="translate(780.126953 0.015625)"/>
     <use xlink:href="#DejaVuSans-6d" transform="translate(841.308594 0.015625)"/>
    </g>
   </g>
  </g>
  <g id="text_26">
   <!-- $A$: all participants -->
   <g transform="translate(307.32 14.88) scale(0.12 -0.12)">
    <defs>
     <path id="DejaVuSans-Oblique-41" d="M 2356 4666 
L 3072 4666 
L 3938 0 
L 3278 0 
L 3084 1197 
L 984 1197 
L 325 0 
L -341 0 
L 2356 4666 
z
M 2584 4044 
L 1275 1722 
L 2988 1722 
L 2584 4044 
z
" transform="scale(0.015625)"/>
     <path id="DejaVuSans-3a" d="M 750 794 
L 1409 794 
L 1409 0 
L 750 0 
L 750 794 
z
M 750 3309 
L 1409 3309 
L 1409 2516 
L 750 2516 
L 750 3309 
z
" transform="scale(0.015625)"/>
    </defs>
    <use xlink:href="#DejaVuSans-Oblique-41" transform="translate(0 0.015625)"/>
    <use xlink:href="#DejaVuSans-3a" transform="translate(68.408203 0.015625)"/>
    <use xlink:href="#DejaVuSans-20" transform="translate(102.099609 0.015625)"/>
    <use xlink:href="#DejaVuSans-61" transform="translate(133.886719 0.015625)"/>
    <use xlink:href="#DejaVuSans-6c" transform="translate(195.166016 0.015625)"/>
    <use xlink:href="#DejaVuSans-6c" transform="translate(222.949219 0.015625)"/>
    <use xlink:href="#DejaVuSans-20" transform="translate(250.732422 0.015625)"/>
    <use xlink:href="#DejaVuSans-70" transform="translate(282.519531 0.015625)"/>
    <use xlink:href="#DejaVuSans-61" transform="translate(345.996094 0.015625)"/>
    <use xlink:href="#DejaVuSans-72" transform="translate(407.275391 0.015625)"/>
    <use xlink:href="#DejaVuSans-74" transform="translate(448.388672 0.015625)"/>
    <use xlink:href="#DejaVuSans-69" transform="translate(487.597656 0.015625)"/>
    <use xlink:href="#DejaVuSans-63" transform="translate(515.380859 0.015625)"/>
    <use xlink:href="#DejaVuSans-69" transform="translate(570.361328 0.015625)"/>
    <use xlink:href="#DejaVuSans-70" transform="translate(598.144531 0.015625)"/>
    <use xlink:href="#DejaVuSans-61" transform="translate(661.621094 0.015625)"/>
    <use xlink:href="#DejaVuSans-6e" transform="translate(722.900391 0.015625)"/>
    <use xlink:href="#DejaVuSans-74" transform="translate(786.279297 0.015625)"/>
    <use xlink:href="#DejaVuSans-73" transform="translate(825.488281 0.015625)"/>
   </g>
  </g>
 </g>
 <defs>
  <clipPath id="pad86376fb1">
   <rect x="90" y="34.56" width="164.117647" height="221.76"/>
  </clipPath>
  <clipPath id="p8859ca50f3">
   <rect x="286.941176" y="34.56" width="164.117647" height="221.76"/>
  </clipPath>
  <clipPath id="p092f12dd8e">
   <rect x="483.882353" y="34.56" width="164.117647" height="221.76"/>
  </clipPath>
 </defs>
</svg>
