<?xml version="1.0" encoding="utf-8" standalone="no"?>
<!DOCTYPE svg PUBLIC "-//W3C//DTD SVG 1.1//EN"
  "http://www.w3.org/Graphics/SVG/1.1/DTD/svg11.dtd">
<svg xmlns:xlink="http://www.w3.org/1999/xlink" width="460.8pt" height="345.6pt" viewBox="0 0 460.8 345.6" xmlns="http://www.w3.org/2000/svg" version="1.1">
 <metadata>
  <rdf:RDF xmlns:dc="http://purl.org/dc/elements/1.1/" xmlns:cc="http://creativecommons.org/ns#" xmlns:rdf="http://www.w3.org/1999/02/22-rdf-syntax-ns#">
   <cc:Work>
    <dc:type rdf:resource="http://purl.org/dc/dcmitype/StillImage"/>
    <dc:date>2024-07-12T11:44:53.847084</dc:date>
    <dc:format>image/svg+xml</dc:format>
    <dc:creator>
     <cc:Agent>
      <dc:title>Matplotlib v3.7.2, https://matplotlib.org/</dc:title>
     </cc:Agent>
    </dc:creator>
   </cc:Work>
  </rdf:RDF>
 </metadata>
 <defs>
  <style type="text/css">*{stroke-linejoin: round; stroke-linecap: butt}</style>
 </defs>
 <g id="figure_1">
  <g id="patch_1">
   <path d="M 0 345.6 
L 460.8 345.6 
L 460.8 0 
L 0 0 
z
" style="fill: #ffffff"/>
  </g>
  <g id="axes_1">
   <g id="patch_2">
    <path d="M 57.6 307.584 
L 414.72 307.584 
L 414.72 41.472 
L 57.6 41.472 
z
" style="fill: #ffffff"/>
   </g>
   <g id="patch_3">
    <path d="M 73.832727 307.584 
L 92.930053 307.584 
L 92.930053 132.309976 
L 73.832727 132.309976 
z
" clip-path="url(#p4197dfd329)" style="fill: #228b22; opacity: 0.4"/>
   </g>
   <g id="patch_4">
    <path d="M 112.02738 307.584 
L 131.124706 307.584 
L 131.124706 181.920128 
L 112.02738 181.920128 
z
" clip-path="url(#p4197dfd329)" style="fill: #ff4500; opacity: 0.4"/>
   </g>
   <g id="patch_5">
    <path d="M 150.222032 307.584 
L 169.319358 307.584 
L 169.319358 156.34883 
L 150.222032 156.34883 
z
" clip-path="url(#p4197dfd329)" style="fill: #8b008b; opacity: 0.4"/>
   </g>
   <g id="patch_6">
    <path d="M 188.416684 307.584 
L 207.514011 307.584 
L 207.514011 140.590246 
L 188.416684 140.590246 
z
" clip-path="url(#p4197dfd329)" style="fill: #228b22; opacity: 0.4"/>
   </g>
   <g id="patch_7">
    <path d="M 226.611337 307.584 
L 245.708663 307.584 
L 245.708663 86.85317 
L 226.611337 86.85317 
z
" clip-path="url(#p4197dfd329)" style="fill: #ff4500; opacity: 0.4"/>
   </g>
   <g id="patch_8">
    <path d="M 264.805989 307.584 
L 283.903316 307.584 
L 283.903316 115.666185 
L 264.805989 115.666185 
z
" clip-path="url(#p4197dfd329)" style="fill: #8b008b; opacity: 0.4"/>
   </g>
   <g id="patch_9">
    <path d="M 303.000642 307.584 
L 322.097968 307.584 
L 322.097968 204.25743 
L 303.000642 204.25743 
z
" clip-path="url(#p4197dfd329)" style="fill: #228b22; opacity: 0.4"/>
   </g>
   <g id="patch_10">
    <path d="M 341.195294 307.584 
L 360.29262 307.584 
L 360.29262 208.384355 
L 341.195294 208.384355 
z
" clip-path="url(#p4197dfd329)" style="fill: #ff4500; opacity: 0.4"/>
   </g>
   <g id="patch_11">
    <path d="M 379.389947 307.584 
L 398.487273 307.584 
L 398.487273 205.142638 
L 379.389947 205.142638 
z
" clip-path="url(#p4197dfd329)" style="fill: #8b008b; opacity: 0.4"/>
   </g>
   <g id="matplotlib.axis_1">
    <g id="xtick_1">
     <g id="line2d_1">
      <defs>
       <path id="m205cdb715a" d="M 0 0 
L 0 3.5 
" style="stroke: #000000; stroke-width: 0.8"/>
      </defs>
      <g>
       <use xlink:href="#m205cdb715a" x="83.38139" y="307.584" style="stroke: #000000; stroke-width: 0.8"/>
      </g>
     </g>
     <g id="text_1">
      <!-- c|c -->
      <g transform="translate(80.170684 330.145873) rotate(-45) scale(0.1 -0.1)">
       <defs>
        <path id="DejaVuSans-63" d="M 3122 3366 
L 3122 2828 
Q 2878 2963 2633 3030 
Q 2388 3097 2138 3097 
Q 1578 3097 1268 2742 
Q 959 2388 959 1747 
Q 959 1106 1268 751 
Q 1578 397 2138 397 
Q 2388 397 2633 464 
Q 2878 531 3122 666 
L 3122 134 
Q 2881 22 2623 -34 
Q 2366 -91 2075 -91 
Q 1284 -91 818 406 
Q 353 903 353 1747 
Q 353 2603 823 3093 
Q 1294 3584 2113 3584 
Q 2378 3584 2631 3529 
Q 2884 3475 3122 3366 
z
" transform="scale(0.015625)"/>
        <path id="DejaVuSans-7c" d="M 1344 4891 
L 1344 -1509 
L 813 -1509 
L 813 4891 
L 1344 4891 
z
" transform="scale(0.015625)"/>
       </defs>
       <use xlink:href="#DejaVuSans-63"/>
       <use xlink:href="#DejaVuSans-7c" x="54.980469"/>
       <use xlink:href="#DejaVuSans-63" x="88.671875"/>
      </g>
     </g>
    </g>
    <g id="xtick_2">
     <g id="line2d_2">
      <g>
       <use xlink:href="#m205cdb715a" x="121.576043" y="307.584" style="stroke: #000000; stroke-width: 0.8"/>
      </g>
     </g>
     <g id="text_2">
      <!-- h|c -->
      <g transform="translate(118.068683 330.73918) rotate(-45) scale(0.1 -0.1)">
       <defs>
        <path id="DejaVuSans-68" d="M 3513 2113 
L 3513 0 
L 2938 0 
L 2938 2094 
Q 2938 2591 2744 2837 
Q 2550 3084 2163 3084 
Q 1697 3084 1428 2787 
Q 1159 2491 1159 1978 
L 1159 0 
L 581 0 
L 581 4863 
L 1159 4863 
L 1159 2956 
Q 1366 3272 1645 3428 
Q 1925 3584 2291 3584 
Q 2894 3584 3203 3211 
Q 3513 2838 3513 2113 
z
" transform="scale(0.015625)"/>
       </defs>
       <use xlink:href="#DejaVuSans-68"/>
       <use xlink:href="#DejaVuSans-7c" x="63.378906"/>
       <use xlink:href="#DejaVuSans-63" x="97.070312"/>
      </g>
     </g>
    </g>
    <g id="xtick_3">
     <g id="line2d_3">
      <g>
       <use xlink:href="#m205cdb715a" x="159.770695" y="307.584" style="stroke: #000000; stroke-width: 0.8"/>
      </g>
     </g>
     <g id="text_3">
      <!-- r|c -->
      <g transform="translate(157.050544 329.164763) rotate(-45) scale(0.1 -0.1)">
       <defs>
        <path id="DejaVuSans-72" d="M 2631 2963 
Q 2534 3019 2420 3045 
Q 2306 3072 2169 3072 
Q 1681 3072 1420 2755 
Q 1159 2438 1159 1844 
L 1159 0 
L 581 0 
L 581 3500 
L 1159 3500 
L 1159 2956 
Q 1341 3275 1631 3429 
Q 1922 3584 2338 3584 
Q 2397 3584 2469 3576 
Q 2541 3569 2628 3553 
L 2631 2963 
z
" transform="scale(0.015625)"/>
       </defs>
       <use xlink:href="#DejaVuSans-72"/>
       <use xlink:href="#DejaVuSans-7c" x="41.113281"/>
       <use xlink:href="#DejaVuSans-63" x="74.804688"/>
      </g>
     </g>
    </g>
    <g id="xtick_4">
     <g id="line2d_4">
      <g>
       <use xlink:href="#m205cdb715a" x="197.965348" y="307.584" style="stroke: #000000; stroke-width: 0.8"/>
      </g>
     </g>
     <g id="text_4">
      <!-- c|h -->
      <g transform="translate(194.457987 330.73918) rotate(-45) scale(0.1 -0.1)">
       <use xlink:href="#DejaVuSans-63"/>
       <use xlink:href="#DejaVuSans-7c" x="54.980469"/>
       <use xlink:href="#DejaVuSans-68" x="88.671875"/>
      </g>
     </g>
    </g>
    <g id="xtick_5">
     <g id="line2d_5">
      <g>
       <use xlink:href="#m205cdb715a" x="236.16" y="307.584" style="stroke: #000000; stroke-width: 0.8"/>
      </g>
     </g>
     <g id="text_5">
      <!-- h|h -->
      <g transform="translate(232.355986 331.332487) rotate(-45) scale(0.1 -0.1)">
       <use xlink:href="#DejaVuSans-68"/>
       <use xlink:href="#DejaVuSans-7c" x="63.378906"/>
       <use xlink:href="#DejaVuSans-68" x="97.070312"/>
      </g>
     </g>
    </g>
    <g id="xtick_6">
     <g id="line2d_6">
      <g>
       <use xlink:href="#m205cdb715a" x="274.354652" y="307.584" style="stroke: #000000; stroke-width: 0.8"/>
      </g>
     </g>
     <g id="text_6">
      <!-- r|h -->
      <g transform="translate(271.337848 329.75807) rotate(-45) scale(0.1 -0.1)">
       <use xlink:href="#DejaVuSans-72"/>
       <use xlink:href="#DejaVuSans-7c" x="41.113281"/>
       <use xlink:href="#DejaVuSans-68" x="74.804688"/>
      </g>
     </g>
    </g>
    <g id="xtick_7">
     <g id="line2d_7">
      <g>
       <use xlink:href="#m205cdb715a" x="312.549305" y="307.584" style="stroke: #000000; stroke-width: 0.8"/>
      </g>
     </g>
     <g id="text_7">
      <!-- c|r -->
      <g transform="translate(309.829153 329.164763) rotate(-45) scale(0.1 -0.1)">
       <use xlink:href="#DejaVuSans-63"/>
       <use xlink:href="#DejaVuSans-7c" x="54.980469"/>
       <use xlink:href="#DejaVuSans-72" x="88.671875"/>
      </g>
     </g>
    </g>
    <g id="xtick_8">
     <g id="line2d_8">
      <g>
       <use xlink:href="#m205cdb715a" x="350.743957" y="307.584" style="stroke: #000000; stroke-width: 0.8"/>
      </g>
     </g>
     <g id="text_8">
      <!-- h|r -->
      <g transform="translate(347.727152 329.75807) rotate(-45) scale(0.1 -0.1)">
       <use xlink:href="#DejaVuSans-68"/>
       <use xlink:href="#DejaVuSans-7c" x="63.378906"/>
       <use xlink:href="#DejaVuSans-72" x="97.070312"/>
      </g>
     </g>
    </g>
    <g id="xtick_9">
     <g id="line2d_9">
      <g>
       <use xlink:href="#m205cdb715a" x="388.93861" y="307.584" style="stroke: #000000; stroke-width: 0.8"/>
      </g>
     </g>
     <g id="text_9">
      <!-- r|r -->
      <g transform="translate(386.709014 328.183652) rotate(-45) scale(0.1 -0.1)">
       <use xlink:href="#DejaVuSans-72"/>
       <use xlink:href="#DejaVuSans-7c" x="41.113281"/>
       <use xlink:href="#DejaVuSans-72" x="74.804688"/>
      </g>
     </g>
    </g>
   </g>
   <g id="matplotlib.axis_2">
    <g id="ytick_1">
     <g id="line2d_10">
      <defs>
       <path id="mcd63305770" d="M 0 0 
L -3.5 0 
" style="stroke: #000000; stroke-width: 0.8"/>
      </defs>
      <g>
       <use xlink:href="#mcd63305770" x="57.6" y="307.584" style="stroke: #000000; stroke-width: 0.8"/>
      </g>
     </g>
     <g id="text_10">
      <!-- 0.0 -->
      <g transform="translate(34.696875 311.383219) scale(0.1 -0.1)">
       <defs>
        <path id="DejaVuSans-30" d="M 2034 4250 
Q 1547 4250 1301 3770 
Q 1056 3291 1056 2328 
Q 1056 1369 1301 889 
Q 1547 409 2034 409 
Q 2525 409 2770 889 
Q 3016 1369 3016 2328 
Q 3016 3291 2770 3770 
Q 2525 4250 2034 4250 
z
M 2034 4750 
Q 2819 4750 3233 4129 
Q 3647 3509 3647 2328 
Q 3647 1150 3233 529 
Q 2819 -91 2034 -91 
Q 1250 -91 836 529 
Q 422 1150 422 2328 
Q 422 3509 836 4129 
Q 1250 4750 2034 4750 
z
" transform="scale(0.015625)"/>
        <path id="DejaVuSans-2e" d="M 684 794 
L 1344 794 
L 1344 0 
L 684 0 
L 684 794 
z
" transform="scale(0.015625)"/>
       </defs>
       <use xlink:href="#DejaVuSans-30"/>
       <use xlink:href="#DejaVuSans-2e" x="63.623047"/>
       <use xlink:href="#DejaVuSans-30" x="95.410156"/>
      </g>
     </g>
    </g>
    <g id="ytick_2">
     <g id="line2d_11">
      <g>
       <use xlink:href="#mcd63305770" x="57.6" y="263.024565" style="stroke: #000000; stroke-width: 0.8"/>
      </g>
     </g>
     <g id="text_11">
      <!-- 0.1 -->
      <g transform="translate(34.696875 266.823784) scale(0.1 -0.1)">
       <defs>
        <path id="DejaVuSans-31" d="M 794 531 
L 1825 531 
L 1825 4091 
L 703 3866 
L 703 4441 
L 1819 4666 
L 2450 4666 
L 2450 531 
L 3481 531 
L 3481 0 
L 794 0 
L 794 531 
z
" transform="scale(0.015625)"/>
       </defs>
       <use xlink:href="#DejaVuSans-30"/>
       <use xlink:href="#DejaVuSans-2e" x="63.623047"/>
       <use xlink:href="#DejaVuSans-31" x="95.410156"/>
      </g>
     </g>
    </g>
    <g id="ytick_3">
     <g id="line2d_12">
      <g>
       <use xlink:href="#mcd63305770" x="57.6" y="218.465131" style="stroke: #000000; stroke-width: 0.8"/>
      </g>
     </g>
     <g id="text_12">
      <!-- 0.2 -->
      <g transform="translate(34.696875 222.264349) scale(0.1 -0.1)">
       <defs>
        <path id="DejaVuSans-32" d="M 1228 531 
L 3431 531 
L 3431 0 
L 469 0 
L 469 531 
Q 828 903 1448 1529 
Q 2069 2156 2228 2338 
Q 2531 2678 2651 2914 
Q 2772 3150 2772 3378 
Q 2772 3750 2511 3984 
Q 2250 4219 1831 4219 
Q 1534 4219 1204 4116 
Q 875 4013 500 3803 
L 500 4441 
Q 881 4594 1212 4672 
Q 1544 4750 1819 4750 
Q 2544 4750 2975 4387 
Q 3406 4025 3406 3419 
Q 3406 3131 3298 2873 
Q 3191 2616 2906 2266 
Q 2828 2175 2409 1742 
Q 1991 1309 1228 531 
z
" transform="scale(0.015625)"/>
       </defs>
       <use xlink:href="#DejaVuSans-30"/>
       <use xlink:href="#DejaVuSans-2e" x="63.623047"/>
       <use xlink:href="#DejaVuSans-32" x="95.410156"/>
      </g>
     </g>
    </g>
    <g id="ytick_4">
     <g id="line2d_13">
      <g>
       <use xlink:href="#mcd63305770" x="57.6" y="173.905696" style="stroke: #000000; stroke-width: 0.8"/>
      </g>
     </g>
     <g id="text_13">
      <!-- 0.3 -->
      <g transform="translate(34.696875 177.704915) scale(0.1 -0.1)">
       <defs>
        <path id="DejaVuSans-33" d="M 2597 2516 
Q 3050 2419 3304 2112 
Q 3559 1806 3559 1356 
Q 3559 666 3084 287 
Q 2609 -91 1734 -91 
Q 1441 -91 1130 -33 
Q 819 25 488 141 
L 488 750 
Q 750 597 1062 519 
Q 1375 441 1716 441 
Q 2309 441 2620 675 
Q 2931 909 2931 1356 
Q 2931 1769 2642 2001 
Q 2353 2234 1838 2234 
L 1294 2234 
L 1294 2753 
L 1863 2753 
Q 2328 2753 2575 2939 
Q 2822 3125 2822 3475 
Q 2822 3834 2567 4026 
Q 2313 4219 1838 4219 
Q 1578 4219 1281 4162 
Q 984 4106 628 3988 
L 628 4550 
Q 988 4650 1302 4700 
Q 1616 4750 1894 4750 
Q 2613 4750 3031 4423 
Q 3450 4097 3450 3541 
Q 3450 3153 3228 2886 
Q 3006 2619 2597 2516 
z
" transform="scale(0.015625)"/>
       </defs>
       <use xlink:href="#DejaVuSans-30"/>
       <use xlink:href="#DejaVuSans-2e" x="63.623047"/>
       <use xlink:href="#DejaVuSans-33" x="95.410156"/>
      </g>
     </g>
    </g>
    <g id="ytick_5">
     <g id="line2d_14">
      <g>
       <use xlink:href="#mcd63305770" x="57.6" y="129.346261" style="stroke: #000000; stroke-width: 0.8"/>
      </g>
     </g>
     <g id="text_14">
      <!-- 0.4 -->
      <g transform="translate(34.696875 133.14548) scale(0.1 -0.1)">
       <defs>
        <path id="DejaVuSans-34" d="M 2419 4116 
L 825 1625 
L 2419 1625 
L 2419 4116 
z
M 2253 4666 
L 3047 4666 
L 3047 1625 
L 3713 1625 
L 3713 1100 
L 3047 1100 
L 3047 0 
L 2419 0 
L 2419 1100 
L 313 1100 
L 313 1709 
L 2253 4666 
z
" transform="scale(0.015625)"/>
       </defs>
       <use xlink:href="#DejaVuSans-30"/>
       <use xlink:href="#DejaVuSans-2e" x="63.623047"/>
       <use xlink:href="#DejaVuSans-34" x="95.410156"/>
      </g>
     </g>
    </g>
    <g id="ytick_6">
     <g id="line2d_15">
      <g>
       <use xlink:href="#mcd63305770" x="57.6" y="84.786826" style="stroke: #000000; stroke-width: 0.8"/>
      </g>
     </g>
     <g id="text_15">
      <!-- 0.5 -->
      <g transform="translate(34.696875 88.586045) scale(0.1 -0.1)">
       <defs>
        <path id="DejaVuSans-35" d="M 691 4666 
L 3169 4666 
L 3169 4134 
L 1269 4134 
L 1269 2991 
Q 1406 3038 1543 3061 
Q 1681 3084 1819 3084 
Q 2600 3084 3056 2656 
Q 3513 2228 3513 1497 
Q 3513 744 3044 326 
Q 2575 -91 1722 -91 
Q 1428 -91 1123 -41 
Q 819 9 494 109 
L 494 744 
Q 775 591 1075 516 
Q 1375 441 1709 441 
Q 2250 441 2565 725 
Q 2881 1009 2881 1497 
Q 2881 1984 2565 2268 
Q 2250 2553 1709 2553 
Q 1456 2553 1204 2497 
Q 953 2441 691 2322 
L 691 4666 
z
" transform="scale(0.015625)"/>
       </defs>
       <use xlink:href="#DejaVuSans-30"/>
       <use xlink:href="#DejaVuSans-2e" x="63.623047"/>
       <use xlink:href="#DejaVuSans-35" x="95.410156"/>
      </g>
     </g>
    </g>
    <g id="text_16">
     <!-- $p$ -->
     <g transform="translate(28.596875 177.728) rotate(-90) scale(0.1 -0.1)">
      <defs>
       <path id="DejaVuSans-Oblique-70" d="M 3175 2156 
Q 3175 2616 2975 2859 
Q 2775 3103 2400 3103 
Q 2144 3103 1911 2972 
Q 1678 2841 1497 2591 
Q 1319 2344 1212 1994 
Q 1106 1644 1106 1300 
Q 1106 863 1306 627 
Q 1506 391 1875 391 
Q 2147 391 2380 519 
Q 2613 647 2778 891 
Q 2956 1147 3065 1494 
Q 3175 1841 3175 2156 
z
M 1394 2969 
Q 1625 3272 1939 3428 
Q 2253 3584 2638 3584 
Q 3175 3584 3472 3232 
Q 3769 2881 3769 2247 
Q 3769 1728 3584 1258 
Q 3400 788 3053 416 
Q 2822 169 2531 39 
Q 2241 -91 1919 -91 
Q 1547 -91 1294 64 
Q 1041 219 916 525 
L 556 -1331 
L -19 -1331 
L 922 3500 
L 1497 3500 
L 1394 2969 
z
" transform="scale(0.015625)"/>
      </defs>
      <use xlink:href="#DejaVuSans-Oblique-70"/>
     </g>
    </g>
   </g>
   <g id="LineCollection_1">
    <path d="M 83.38139 148.67397 
L 83.38139 115.945983 
" clip-path="url(#p4197dfd329)" style="fill: none; stroke: #000000; stroke-width: 1.5"/>
    <path d="M 121.576043 211.034811 
L 121.576043 152.805445 
" clip-path="url(#p4197dfd329)" style="fill: none; stroke: #000000; stroke-width: 1.5"/>
    <path d="M 159.770695 178.365674 
L 159.770695 134.331986 
" clip-path="url(#p4197dfd329)" style="fill: none; stroke: #000000; stroke-width: 1.5"/>
    <path d="M 197.965348 155.287583 
L 197.965348 125.892909 
" clip-path="url(#p4197dfd329)" style="fill: none; stroke: #000000; stroke-width: 1.5"/>
    <path d="M 236.16 119.562339 
L 236.16 54.144 
" clip-path="url(#p4197dfd329)" style="fill: none; stroke: #000000; stroke-width: 1.5"/>
    <path d="M 274.354652 138.155493 
L 274.354652 93.176877 
" clip-path="url(#p4197dfd329)" style="fill: none; stroke: #000000; stroke-width: 1.5"/>
    <path d="M 312.549305 205.950881 
L 312.549305 202.56398 
" clip-path="url(#p4197dfd329)" style="fill: none; stroke: #000000; stroke-width: 1.5"/>
    <path d="M 350.743957 212.041697 
L 350.743957 204.727013 
" clip-path="url(#p4197dfd329)" style="fill: none; stroke: #000000; stroke-width: 1.5"/>
    <path d="M 388.93861 206.341113 
L 388.93861 203.944163 
" clip-path="url(#p4197dfd329)" style="fill: none; stroke: #000000; stroke-width: 1.5"/>
   </g>
   <g id="patch_12">
    <path d="M 57.6 307.584 
L 57.6 41.472 
" style="fill: none; stroke: #000000; stroke-width: 0.8; stroke-linejoin: miter; stroke-linecap: square"/>
   </g>
   <g id="patch_13">
    <path d="M 414.72 307.584 
L 414.72 41.472 
" style="fill: none; stroke: #000000; stroke-width: 0.8; stroke-linejoin: miter; stroke-linecap: square"/>
   </g>
   <g id="patch_14">
    <path d="M 57.6 307.584 
L 414.72 307.584 
" style="fill: none; stroke: #000000; stroke-width: 0.8; stroke-linejoin: miter; stroke-linecap: square"/>
   </g>
   <g id="patch_15">
    <path d="M 57.6 41.472 
L 414.72 41.472 
" style="fill: none; stroke: #000000; stroke-width: 0.8; stroke-linejoin: miter; stroke-linecap: square"/>
   </g>
   <g id="text_17">
    <!-- $B$ parameter optimization results, all participants -->
    <g transform="translate(88.62 35.472) scale(0.12 -0.12)">
     <defs>
      <path id="DejaVuSans-Oblique-42" d="M 1081 4666 
L 2694 4666 
Q 3350 4666 3675 4422 
Q 4000 4178 4000 3688 
Q 4000 3238 3720 2911 
Q 3441 2584 2988 2516 
Q 3375 2428 3569 2181 
Q 3763 1934 3763 1522 
Q 3763 819 3242 409 
Q 2722 0 1819 0 
L 172 0 
L 1081 4666 
z
M 1234 2228 
L 903 519 
L 1919 519 
Q 2491 519 2800 781 
Q 3109 1044 3109 1522 
Q 3109 1891 2904 2059 
Q 2700 2228 2247 2228 
L 1234 2228 
z
M 1606 4147 
L 1331 2741 
L 2272 2741 
Q 2775 2741 3058 2959 
Q 3341 3178 3341 3566 
Q 3341 3869 3150 4008 
Q 2959 4147 2541 4147 
L 1606 4147 
z
" transform="scale(0.015625)"/>
      <path id="DejaVuSans-20" transform="scale(0.015625)"/>
      <path id="DejaVuSans-70" d="M 1159 525 
L 1159 -1331 
L 581 -1331 
L 581 3500 
L 1159 3500 
L 1159 2969 
Q 1341 3281 1617 3432 
Q 1894 3584 2278 3584 
Q 2916 3584 3314 3078 
Q 3713 2572 3713 1747 
Q 3713 922 3314 415 
Q 2916 -91 2278 -91 
Q 1894 -91 1617 61 
Q 1341 213 1159 525 
z
M 3116 1747 
Q 3116 2381 2855 2742 
Q 2594 3103 2138 3103 
Q 1681 3103 1420 2742 
Q 1159 2381 1159 1747 
Q 1159 1113 1420 752 
Q 1681 391 2138 391 
Q 2594 391 2855 752 
Q 3116 1113 3116 1747 
z
" transform="scale(0.015625)"/>
      <path id="DejaVuSans-61" d="M 2194 1759 
Q 1497 1759 1228 1600 
Q 959 1441 959 1056 
Q 959 750 1161 570 
Q 1363 391 1709 391 
Q 2188 391 2477 730 
Q 2766 1069 2766 1631 
L 2766 1759 
L 2194 1759 
z
M 3341 1997 
L 3341 0 
L 2766 0 
L 2766 531 
Q 2569 213 2275 61 
Q 1981 -91 1556 -91 
Q 1019 -91 701 211 
Q 384 513 384 1019 
Q 384 1609 779 1909 
Q 1175 2209 1959 2209 
L 2766 2209 
L 2766 2266 
Q 2766 2663 2505 2880 
Q 2244 3097 1772 3097 
Q 1472 3097 1187 3025 
Q 903 2953 641 2809 
L 641 3341 
Q 956 3463 1253 3523 
Q 1550 3584 1831 3584 
Q 2591 3584 2966 3190 
Q 3341 2797 3341 1997 
z
" transform="scale(0.015625)"/>
      <path id="DejaVuSans-6d" d="M 3328 2828 
Q 3544 3216 3844 3400 
Q 4144 3584 4550 3584 
Q 5097 3584 5394 3201 
Q 5691 2819 5691 2113 
L 5691 0 
L 5113 0 
L 5113 2094 
Q 5113 2597 4934 2840 
Q 4756 3084 4391 3084 
Q 3944 3084 3684 2787 
Q 3425 2491 3425 1978 
L 3425 0 
L 2847 0 
L 2847 2094 
Q 2847 2600 2669 2842 
Q 2491 3084 2119 3084 
Q 1678 3084 1418 2786 
Q 1159 2488 1159 1978 
L 1159 0 
L 581 0 
L 581 3500 
L 1159 3500 
L 1159 2956 
Q 1356 3278 1631 3431 
Q 1906 3584 2284 3584 
Q 2666 3584 2933 3390 
Q 3200 3197 3328 2828 
z
" transform="scale(0.015625)"/>
      <path id="DejaVuSans-65" d="M 3597 1894 
L 3597 1613 
L 953 1613 
Q 991 1019 1311 708 
Q 1631 397 2203 397 
Q 2534 397 2845 478 
Q 3156 559 3463 722 
L 3463 178 
Q 3153 47 2828 -22 
Q 2503 -91 2169 -91 
Q 1331 -91 842 396 
Q 353 884 353 1716 
Q 353 2575 817 3079 
Q 1281 3584 2069 3584 
Q 2775 3584 3186 3129 
Q 3597 2675 3597 1894 
z
M 3022 2063 
Q 3016 2534 2758 2815 
Q 2500 3097 2075 3097 
Q 1594 3097 1305 2825 
Q 1016 2553 972 2059 
L 3022 2063 
z
" transform="scale(0.015625)"/>
      <path id="DejaVuSans-74" d="M 1172 4494 
L 1172 3500 
L 2356 3500 
L 2356 3053 
L 1172 3053 
L 1172 1153 
Q 1172 725 1289 603 
Q 1406 481 1766 481 
L 2356 481 
L 2356 0 
L 1766 0 
Q 1100 0 847 248 
Q 594 497 594 1153 
L 594 3053 
L 172 3053 
L 172 3500 
L 594 3500 
L 594 4494 
L 1172 4494 
z
" transform="scale(0.015625)"/>
      <path id="DejaVuSans-6f" d="M 1959 3097 
Q 1497 3097 1228 2736 
Q 959 2375 959 1747 
Q 959 1119 1226 758 
Q 1494 397 1959 397 
Q 2419 397 2687 759 
Q 2956 1122 2956 1747 
Q 2956 2369 2687 2733 
Q 2419 3097 1959 3097 
z
M 1959 3584 
Q 2709 3584 3137 3096 
Q 3566 2609 3566 1747 
Q 3566 888 3137 398 
Q 2709 -91 1959 -91 
Q 1206 -91 779 398 
Q 353 888 353 1747 
Q 353 2609 779 3096 
Q 1206 3584 1959 3584 
z
" transform="scale(0.015625)"/>
      <path id="DejaVuSans-69" d="M 603 3500 
L 1178 3500 
L 1178 0 
L 603 0 
L 603 3500 
z
M 603 4863 
L 1178 4863 
L 1178 4134 
L 603 4134 
L 603 4863 
z
" transform="scale(0.015625)"/>
      <path id="DejaVuSans-7a" d="M 353 3500 
L 3084 3500 
L 3084 2975 
L 922 459 
L 3084 459 
L 3084 0 
L 275 0 
L 275 525 
L 2438 3041 
L 353 3041 
L 353 3500 
z
" transform="scale(0.015625)"/>
      <path id="DejaVuSans-6e" d="M 3513 2113 
L 3513 0 
L 2938 0 
L 2938 2094 
Q 2938 2591 2744 2837 
Q 2550 3084 2163 3084 
Q 1697 3084 1428 2787 
Q 1159 2491 1159 1978 
L 1159 0 
L 581 0 
L 581 3500 
L 1159 3500 
L 1159 2956 
Q 1366 3272 1645 3428 
Q 1925 3584 2291 3584 
Q 2894 3584 3203 3211 
Q 3513 2838 3513 2113 
z
" transform="scale(0.015625)"/>
      <path id="DejaVuSans-73" d="M 2834 3397 
L 2834 2853 
Q 2591 2978 2328 3040 
Q 2066 3103 1784 3103 
Q 1356 3103 1142 2972 
Q 928 2841 928 2578 
Q 928 2378 1081 2264 
Q 1234 2150 1697 2047 
L 1894 2003 
Q 2506 1872 2764 1633 
Q 3022 1394 3022 966 
Q 3022 478 2636 193 
Q 2250 -91 1575 -91 
Q 1294 -91 989 -36 
Q 684 19 347 128 
L 347 722 
Q 666 556 975 473 
Q 1284 391 1588 391 
Q 1994 391 2212 530 
Q 2431 669 2431 922 
Q 2431 1156 2273 1281 
Q 2116 1406 1581 1522 
L 1381 1569 
Q 847 1681 609 1914 
Q 372 2147 372 2553 
Q 372 3047 722 3315 
Q 1072 3584 1716 3584 
Q 2034 3584 2315 3537 
Q 2597 3491 2834 3397 
z
" transform="scale(0.015625)"/>
      <path id="DejaVuSans-75" d="M 544 1381 
L 544 3500 
L 1119 3500 
L 1119 1403 
Q 1119 906 1312 657 
Q 1506 409 1894 409 
Q 2359 409 2629 706 
Q 2900 1003 2900 1516 
L 2900 3500 
L 3475 3500 
L 3475 0 
L 2900 0 
L 2900 538 
Q 2691 219 2414 64 
Q 2138 -91 1772 -91 
Q 1169 -91 856 284 
Q 544 659 544 1381 
z
M 1991 3584 
L 1991 3584 
z
" transform="scale(0.015625)"/>
      <path id="DejaVuSans-6c" d="M 603 4863 
L 1178 4863 
L 1178 0 
L 603 0 
L 603 4863 
z
" transform="scale(0.015625)"/>
      <path id="DejaVuSans-2c" d="M 750 794 
L 1409 794 
L 1409 256 
L 897 -744 
L 494 -744 
L 750 256 
L 750 794 
z
" transform="scale(0.015625)"/>
     </defs>
     <use xlink:href="#DejaVuSans-Oblique-42" transform="translate(0 0.015625)"/>
     <use xlink:href="#DejaVuSans-20" transform="translate(68.603516 0.015625)"/>
     <use xlink:href="#DejaVuSans-70" transform="translate(100.390625 0.015625)"/>
     <use xlink:href="#DejaVuSans-61" transform="translate(163.867188 0.015625)"/>
     <use xlink:href="#DejaVuSans-72" transform="translate(225.146484 0.015625)"/>
     <use xlink:href="#DejaVuSans-61" transform="translate(266.259766 0.015625)"/>
     <use xlink:href="#DejaVuSans-6d" transform="translate(327.539062 0.015625)"/>
     <use xlink:href="#DejaVuSans-65" transform="translate(424.951172 0.015625)"/>
     <use xlink:href="#DejaVuSans-74" transform="translate(486.474609 0.015625)"/>
     <use xlink:href="#DejaVuSans-65" transform="translate(525.683594 0.015625)"/>
     <use xlink:href="#DejaVuSans-72" transform="translate(587.207031 0.015625)"/>
     <use xlink:href="#DejaVuSans-20" transform="translate(628.320312 0.015625)"/>
     <use xlink:href="#DejaVuSans-6f" transform="translate(660.107422 0.015625)"/>
     <use xlink:href="#DejaVuSans-70" transform="translate(721.289062 0.015625)"/>
     <use xlink:href="#DejaVuSans-74" transform="translate(784.765625 0.015625)"/>
     <use xlink:href="#DejaVuSans-69" transform="translate(823.974609 0.015625)"/>
     <use xlink:href="#DejaVuSans-6d" transform="translate(851.757812 0.015625)"/>
     <use xlink:href="#DejaVuSans-69" transform="translate(949.169922 0.015625)"/>
     <use xlink:href="#DejaVuSans-7a" transform="translate(976.953125 0.015625)"/>
     <use xlink:href="#DejaVuSans-61" transform="translate(1029.443359 0.015625)"/>
     <use xlink:href="#DejaVuSans-74" transform="translate(1090.722656 0.015625)"/>
     <use xlink:href="#DejaVuSans-69" transform="translate(1129.931641 0.015625)"/>
     <use xlink:href="#DejaVuSans-6f" transform="translate(1157.714844 0.015625)"/>
     <use xlink:href="#DejaVuSans-6e" transform="translate(1218.896484 0.015625)"/>
     <use xlink:href="#DejaVuSans-20" transform="translate(1282.275391 0.015625)"/>
     <use xlink:href="#DejaVuSans-72" transform="translate(1314.0625 0.015625)"/>
     <use xlink:href="#DejaVuSans-65" transform="translate(1355.175781 0.015625)"/>
     <use xlink:href="#DejaVuSans-73" transform="translate(1416.699219 0.015625)"/>
     <use xlink:href="#DejaVuSans-75" transform="translate(1468.798828 0.015625)"/>
     <use xlink:href="#DejaVuSans-6c" transform="translate(1532.177734 0.015625)"/>
     <use xlink:href="#DejaVuSans-74" transform="translate(1559.960938 0.015625)"/>
     <use xlink:href="#DejaVuSans-73" transform="translate(1599.169922 0.015625)"/>
     <use xlink:href="#DejaVuSans-2c" transform="translate(1651.269531 0.015625)"/>
     <use xlink:href="#DejaVuSans-20" transform="translate(1683.056641 0.015625)"/>
     <use xlink:href="#DejaVuSans-61" transform="translate(1714.84375 0.015625)"/>
     <use xlink:href="#DejaVuSans-6c" transform="translate(1776.123047 0.015625)"/>
     <use xlink:href="#DejaVuSans-6c" transform="translate(1803.90625 0.015625)"/>
     <use xlink:href="#DejaVuSans-20" transform="translate(1831.689453 0.015625)"/>
     <use xlink:href="#DejaVuSans-70" transform="translate(1863.476562 0.015625)"/>
     <use xlink:href="#DejaVuSans-61" transform="translate(1926.953125 0.015625)"/>
     <use xlink:href="#DejaVuSans-72" transform="translate(1988.232422 0.015625)"/>
     <use xlink:href="#DejaVuSans-74" transform="translate(2029.345703 0.015625)"/>
     <use xlink:href="#DejaVuSans-69" transform="translate(2068.554688 0.015625)"/>
     <use xlink:href="#DejaVuSans-63" transform="translate(2096.337891 0.015625)"/>
     <use xlink:href="#DejaVuSans-69" transform="translate(2151.318359 0.015625)"/>
     <use xlink:href="#DejaVuSans-70" transform="translate(2179.101562 0.015625)"/>
     <use xlink:href="#DejaVuSans-61" transform="translate(2242.578125 0.015625)"/>
     <use xlink:href="#DejaVuSans-6e" transform="translate(2303.857422 0.015625)"/>
     <use xlink:href="#DejaVuSans-74" transform="translate(2367.236328 0.015625)"/>
     <use xlink:href="#DejaVuSans-73" transform="translate(2406.445312 0.015625)"/>
    </g>
   </g>
  </g>
 </g>
 <defs>
  <clipPath id="p4197dfd329">
   <rect x="57.6" y="41.472" width="357.12" height="266.112"/>
  </clipPath>
 </defs>
</svg>
