<?xml version="1.0" encoding="UTF-8" standalone="no"?>
<!-- Created with Inkscape (http://www.inkscape.org/) -->

<svg
   width="333mm"
   height="132mm"
   viewBox="0 0 333 132"
   version="1.1"
   id="svg5"
   inkscape:version="1.1.1 (3bf5ae0d25, 2021-09-20)"
   sodipodi:docname="C_bar_final.svg"
   xmlns:inkscape="http://www.inkscape.org/namespaces/inkscape"
   xmlns:sodipodi="http://sodipodi.sourceforge.net/DTD/sodipodi-0.dtd"
   xmlns:xlink="http://www.w3.org/1999/xlink"
   xmlns="http://www.w3.org/2000/svg"
   xmlns:svg="http://www.w3.org/2000/svg">
  <sodipodi:namedview
     id="namedview7"
     pagecolor="#ffffff"
     bordercolor="#666666"
     borderopacity="1.0"
     inkscape:pageshadow="2"
     inkscape:pageopacity="0.0"
     inkscape:pagecheckerboard="0"
     inkscape:document-units="mm"
     showgrid="false"
     inkscape:zoom="0.71446409"
     inkscape:cx="396.80091"
     inkscape:cy="560.56002"
     inkscape:window-width="2400"
     inkscape:window-height="1261"
     inkscape:window-x="-9"
     inkscape:window-y="-9"
     inkscape:window-maximized="1"
     inkscape:current-layer="layer1" />
  <defs
     id="defs2">
    <style
       type="text/css"
       id="style2403">*{stroke-linejoin: round; stroke-linecap: butt}</style>
    <path
       id="m2281d38e90"
       d="M 0,0 V 3.5"
       style="stroke:#000000;stroke-width:0.8" />
    <path
       id="DejaVuSans-77"
       d="m 269,3500 h 575 l 719,-2731 715,2731 h 678 l 719,-2731 716,2731 h 575 L 4050,0 H 3372 L 2619,2869 1863,0 h -679 z"
       transform="scale(0.015625)" />
    <path
       id="DejaVuSans-69"
       d="m 603,3500 h 575 V 0 H 603 Z m 0,1363 h 575 V 4134 H 603 Z"
       transform="scale(0.015625)" />
    <path
       id="DejaVuSans-6e"
       d="M 3513,2113 V 0 h -575 v 2094 q 0,497 -194,743 -194,247 -581,247 -466,0 -735,-297 -269,-296 -269,-809 V 0 H 581 v 3500 h 578 v -544 q 207,316 486,472 280,156 646,156 603,0 912,-373 310,-373 310,-1098 z"
       transform="scale(0.015625)" />
    <path
       id="DejaVuSans-6c"
       d="m 603,4863 h 575 V 0 H 603 Z"
       transform="scale(0.015625)" />
    <path
       id="DejaVuSans-6f"
       d="m 1959,3097 q -462,0 -731,-361 -269,-361 -269,-989 0,-628 267,-989 268,-361 733,-361 460,0 728,362 269,363 269,988 0,622 -269,986 -268,364 -728,364 z m 0,487 q 750,0 1178,-488 429,-487 429,-1349 Q 3566,888 3137,398 2709,-91 1959,-91 1206,-91 779,398 353,888 353,1747 q 0,862 426,1349 427,488 1180,488 z"
       transform="scale(0.015625)" />
    <path
       id="DejaVuSans-73"
       d="m 2834,3397 v -544 q -243,125 -506,187 -262,63 -544,63 -428,0 -642,-131 -214,-131 -214,-394 0,-200 153,-314 153,-114 616,-217 l 197,-44 q 612,-131 870,-370 258,-239 258,-667 0,-488 -386,-773 Q 2250,-91 1575,-91 1294,-91 989,-36 684,19 347,128 v 594 q 319,-166 628,-249 309,-82 613,-82 406,0 624,139 219,139 219,392 0,234 -158,359 -157,125 -692,241 l -200,47 q -534,112 -772,345 -237,233 -237,639 0,494 350,762 350,269 994,269 318,0 599,-47 282,-46 519,-140 z"
       transform="scale(0.015625)" />
    <path
       id="DejaVuSans-62"
       d="m 3116,1747 q 0,634 -261,995 -261,361 -717,361 -457,0 -718,-361 -261,-361 -261,-995 0,-634 261,-995 261,-361 718,-361 456,0 717,361 261,361 261,995 z M 1159,2969 q 182,312 458,463 277,152 661,152 638,0 1036,-506 399,-506 399,-1331 Q 3713,922 3314,415 2916,-91 2278,-91 1894,-91 1617,61 1341,213 1159,525 V 0 H 581 v 4863 h 578 z"
       transform="scale(0.015625)" />
    <path
       id="DejaVuSans-75"
       d="m 544,1381 v 2119 h 575 V 1403 q 0,-497 193,-746 194,-248 582,-248 465,0 735,297 271,297 271,810 v 1984 h 575 V 0 H 2900 V 538 Q 2691,219 2414,64 2138,-91 1772,-91 1169,-91 856,284 544,659 544,1381 Z m 1447,2203 z"
       transform="scale(0.015625)" />
    <path
       id="DejaVuSans-64"
       d="m 2906,2969 v 1894 h 575 V 0 H 2906 V 525 Q 2725,213 2448,61 2172,-91 1784,-91 1150,-91 751,415 353,922 353,1747 q 0,825 398,1331 399,506 1033,506 388,0 664,-152 277,-151 458,-463 z M 947,1747 q 0,-634 261,-995 261,-361 717,-361 456,0 718,361 263,361 263,995 0,634 -263,995 -262,361 -718,361 -456,0 -717,-361 -261,-361 -261,-995 z"
       transform="scale(0.015625)" />
    <path
       id="DejaVuSans-67"
       d="m 2906,1791 q 0,625 -258,968 -257,344 -723,344 -462,0 -720,-344 -258,-343 -258,-968 0,-622 258,-966 258,-344 720,-344 466,0 723,344 258,344 258,966 z M 3481,434 q 0,-893 -397,-1329 -396,-436 -1215,-436 -303,0 -572,45 -269,45 -522,139 v 559 q 253,-137 500,-202 247,-66 503,-66 566,0 847,295 281,295 281,892 V 616 Q 2728,306 2450,153 2172,0 1784,0 1141,0 747,490 353,981 353,1791 q 0,812 394,1302 394,491 1037,491 388,0 666,-153 278,-153 456,-462 v 531 h 575 z"
       transform="scale(0.015625)" />
    <path
       id="DejaVuSans-65"
       d="M 3597,1894 V 1613 H 953 q 38,-594 358,-905 320,-311 892,-311 331,0 642,81 311,81 618,244 V 178 Q 3153,47 2828,-22 2503,-91 2169,-91 1331,-91 842,396 353,884 353,1716 q 0,859 464,1363 464,505 1252,505 706,0 1117,-455 411,-454 411,-1235 z m -575,169 q -6,471 -264,752 -258,282 -683,282 -481,0 -770,-272 -289,-272 -333,-766 z"
       transform="scale(0.015625)" />
    <path
       id="DejaVuSans-74"
       d="M 1172,4494 V 3500 H 2356 V 3053 H 1172 V 1153 q 0,-428 117,-550 117,-122 477,-122 h 590 V 0 H 1766 Q 1100,0 847,248 594,497 594,1153 V 3053 H 172 v 447 h 422 v 994 z"
       transform="scale(0.015625)" />
    <path
       id="m1024f46388"
       d="M 0,0 H -3.5"
       style="stroke:#000000;stroke-width:0.8" />
    <path
       id="DejaVuSans-30"
       d="m 2034,4250 q -487,0 -733,-480 -245,-479 -245,-1442 0,-959 245,-1439 246,-480 733,-480 491,0 736,480 246,480 246,1439 0,963 -246,1442 -245,480 -736,480 z m 0,500 q 785,0 1199,-621 414,-620 414,-1801 0,-1178 -414,-1799 -414,-620 -1199,-620 -784,0 -1198,620 -414,621 -414,1799 0,1181 414,1801 414,621 1198,621 z"
       transform="scale(0.015625)" />
    <path
       id="DejaVuSans-2e"
       d="m 684,794 h 660 V 0 H 684 Z"
       transform="scale(0.015625)" />
    <path
       id="DejaVuSans-31"
       d="M 794,531 H 1825 V 4091 L 703,3866 v 575 l 1116,225 h 631 V 531 H 3481 V 0 H 794 Z"
       transform="scale(0.015625)" />
    <path
       id="DejaVuSans-32"
       d="M 1228,531 H 3431 V 0 H 469 v 531 q 359,372 979,998 621,627 780,809 303,340 423,576 121,236 121,464 0,372 -261,606 -261,235 -680,235 -297,0 -627,-103 -329,-103 -704,-313 v 638 q 381,153 712,231 332,78 607,78 725,0 1156,-363 431,-362 431,-968 0,-288 -108,-546 -107,-257 -392,-607 -78,-91 -497,-524 Q 1991,1309 1228,531 Z"
       transform="scale(0.015625)" />
    <path
       id="DejaVuSans-33"
       d="m 2597,2516 q 453,-97 707,-404 255,-306 255,-756 0,-690 -475,-1069 -475,-378 -1350,-378 -293,0 -604,58 -311,58 -642,174 v 609 q 262,-153 574,-231 313,-78 654,-78 593,0 904,234 311,234 311,681 0,413 -289,645 -289,233 -804,233 h -544 v 519 h 569 q 465,0 712,186 247,186 247,536 0,359 -255,551 -254,193 -729,193 -260,0 -557,-57 -297,-56 -653,-174 v 562 q 360,100 674,150 314,50 592,50 719,0 1137,-327 419,-326 419,-882 0,-388 -222,-655 -222,-267 -631,-370 z"
       transform="scale(0.015625)" />
    <path
       id="DejaVuSans-34"
       d="M 2419,4116 825,1625 h 1594 z m -166,550 h 794 V 1625 h 666 V 1100 H 3047 V 0 H 2419 V 1100 H 313 v 609 z"
       transform="scale(0.015625)" />
    <path
       id="DejaVuSans-35"
       d="M 691,4666 H 3169 V 4134 H 1269 V 2991 q 137,47 274,70 138,23 276,23 781,0 1237,-428 457,-428 457,-1159 Q 3513,744 3044,326 2575,-91 1722,-91 1428,-91 1123,-41 819,9 494,109 v 635 q 281,-153 581,-228 300,-75 634,-75 541,0 856,284 316,284 316,772 0,487 -316,771 -315,285 -856,285 -253,0 -505,-56 -251,-56 -513,-175 z"
       transform="scale(0.015625)" />
    <path
       id="DejaVuSans-36"
       d="m 2113,2584 q -425,0 -674,-291 -248,-290 -248,-796 0,-503 248,-796 249,-292 674,-292 425,0 673,292 248,293 248,796 0,506 -248,796 -248,291 -673,291 z m 1253,1979 v -575 q -238,112 -480,171 -242,60 -480,60 -625,0 -955,-422 -329,-422 -376,-1275 184,272 462,417 279,145 613,145 703,0 1111,-427 408,-426 408,-1160 0,-719 -425,-1154 -425,-434 -1131,-434 -810,0 -1238,620 -428,621 -428,1799 0,1106 525,1764 525,658 1409,658 238,0 480,-47 242,-47 505,-140 z"
       transform="scale(0.015625)" />
    <path
       id="DejaVuSans-Oblique-43"
       d="m 4447,4306 -128,-665 q -300,303 -636,450 -336,147 -727,147 -534,0 -939,-257 -404,-256 -698,-781 -188,-337 -287,-714 -98,-377 -98,-758 0,-637 330,-972 330,-334 958,-334 434,0 834,139 400,139 778,417 L 3688,231 Q 3316,72 2936,-9 2556,-91 2175,-91 1278,-91 773,396 269,884 269,1753 q 0,556 192,1093 192,538 552,982 381,472 870,697 489,225 1139,225 400,0 758,-111 358,-111 667,-333 z"
       transform="scale(0.015625)" />
    <path
       id="DejaVuSans-20"
       transform="scale(0.015625)"
       d="" />
    <path
       id="DejaVuSans-76"
       d="M 191,3500 H 800 L 1894,563 2988,3500 h 609 L 2284,0 h -781 z"
       transform="scale(0.015625)" />
    <path
       id="DejaVuSans-68"
       d="M 3513,2113 V 0 h -575 v 2094 q 0,497 -194,743 -194,247 -581,247 -466,0 -735,-297 -269,-296 -269,-809 V 0 H 581 v 4863 h 578 V 2956 q 207,316 486,472 280,156 646,156 603,0 912,-373 310,-373 310,-1098 z"
       transform="scale(0.015625)" />
    <path
       id="DejaVuSans-42"
       d="M 1259,2228 V 519 h 1013 q 509,0 754,211 246,211 246,645 0,438 -246,645 -245,208 -754,208 z m 0,1919 V 2741 h 935 q 462,0 688,173 227,174 227,530 0,353 -227,528 -226,175 -688,175 z m -631,519 h 1613 q 722,0 1112,-300 391,-300 391,-853 0,-429 -200,-682 -200,-253 -588,-315 466,-100 724,-418 258,-317 258,-792 0,-625 -425,-966 Q 3088,0 2303,0 H 628 Z"
       transform="scale(0.015625)" />
    <path
       id="DejaVuSans-44"
       d="M 1259,4147 V 519 h 763 q 966,0 1414,437 448,438 448,1382 0,937 -448,1373 -448,436 -1414,436 z m -631,519 h 1297 q 1356,0 1990,-564 635,-564 635,-1764 Q 4550,1131 3912,565 3275,0 1925,0 H 628 Z"
       transform="scale(0.015625)" />
    <path
       id="DejaVuSans-49"
       d="m 628,4666 h 631 V 0 H 628 Z"
       transform="scale(0.015625)" />
    <path
       id="DejaVuSans-63"
       d="m 3122,3366 v -538 q -244,135 -489,202 -245,67 -495,67 -560,0 -870,-355 -309,-354 -309,-995 0,-641 309,-996 310,-354 870,-354 250,0 495,67 245,67 489,202 V 134 Q 2881,22 2623,-34 2366,-91 2075,-91 1284,-91 818,406 353,903 353,1747 q 0,856 470,1346 471,491 1290,491 265,0 518,-55 253,-54 491,-163 z"
       transform="scale(0.015625)" />
    <path
       id="DejaVuSans-72"
       d="m 2631,2963 q -97,56 -211,82 -114,27 -251,27 -488,0 -749,-317 -261,-317 -261,-911 V 0 H 581 v 3500 h 578 v -544 q 182,319 472,473 291,155 707,155 59,0 131,-8 72,-7 159,-23 z"
       transform="scale(0.015625)" />
    <clipPath
       id="p0fac8697ca">
      <rect
         x="57.599998"
         y="41.472"
         width="357.12"
         height="266.112"
         id="rect2775" />
    </clipPath>
    <style
       type="text/css"
       id="style3078">*{stroke-linejoin: round; stroke-linecap: butt}</style>
    <path
       id="m86af2a517c"
       d="M 0,0 V 3.5"
       style="stroke:#000000;stroke-width:0.8" />
    <path
       id="DejaVuSans-77-0"
       d="m 269,3500 h 575 l 719,-2731 715,2731 h 678 l 719,-2731 716,2731 h 575 L 4050,0 H 3372 L 2619,2869 1863,0 h -679 z"
       transform="scale(0.015625)" />
    <path
       id="DejaVuSans-69-5"
       d="m 603,3500 h 575 V 0 H 603 Z m 0,1363 h 575 V 4134 H 603 Z"
       transform="scale(0.015625)" />
    <path
       id="DejaVuSans-6e-7"
       d="M 3513,2113 V 0 h -575 v 2094 q 0,497 -194,743 -194,247 -581,247 -466,0 -735,-297 -269,-296 -269,-809 V 0 H 581 v 3500 h 578 v -544 q 207,316 486,472 280,156 646,156 603,0 912,-373 310,-373 310,-1098 z"
       transform="scale(0.015625)" />
    <path
       id="DejaVuSans-6c-6"
       d="m 603,4863 h 575 V 0 H 603 Z"
       transform="scale(0.015625)" />
    <path
       id="DejaVuSans-6f-6"
       d="m 1959,3097 q -462,0 -731,-361 -269,-361 -269,-989 0,-628 267,-989 268,-361 733,-361 460,0 728,362 269,363 269,988 0,622 -269,986 -268,364 -728,364 z m 0,487 q 750,0 1178,-488 429,-487 429,-1349 Q 3566,888 3137,398 2709,-91 1959,-91 1206,-91 779,398 353,888 353,1747 q 0,862 426,1349 427,488 1180,488 z"
       transform="scale(0.015625)" />
    <path
       id="DejaVuSans-73-7"
       d="m 2834,3397 v -544 q -243,125 -506,187 -262,63 -544,63 -428,0 -642,-131 -214,-131 -214,-394 0,-200 153,-314 153,-114 616,-217 l 197,-44 q 612,-131 870,-370 258,-239 258,-667 0,-488 -386,-773 Q 2250,-91 1575,-91 1294,-91 989,-36 684,19 347,128 v 594 q 319,-166 628,-249 309,-82 613,-82 406,0 624,139 219,139 219,392 0,234 -158,359 -157,125 -692,241 l -200,47 q -534,112 -772,345 -237,233 -237,639 0,494 350,762 350,269 994,269 318,0 599,-47 282,-46 519,-140 z"
       transform="scale(0.015625)" />
    <path
       id="DejaVuSans-62-5"
       d="m 3116,1747 q 0,634 -261,995 -261,361 -717,361 -457,0 -718,-361 -261,-361 -261,-995 0,-634 261,-995 261,-361 718,-361 456,0 717,361 261,361 261,995 z M 1159,2969 q 182,312 458,463 277,152 661,152 638,0 1036,-506 399,-506 399,-1331 Q 3713,922 3314,415 2916,-91 2278,-91 1894,-91 1617,61 1341,213 1159,525 V 0 H 581 v 4863 h 578 z"
       transform="scale(0.015625)" />
    <path
       id="DejaVuSans-75-0"
       d="m 544,1381 v 2119 h 575 V 1403 q 0,-497 193,-746 194,-248 582,-248 465,0 735,297 271,297 271,810 v 1984 h 575 V 0 H 2900 V 538 Q 2691,219 2414,64 2138,-91 1772,-91 1169,-91 856,284 544,659 544,1381 Z m 1447,2203 z"
       transform="scale(0.015625)" />
    <path
       id="DejaVuSans-64-1"
       d="m 2906,2969 v 1894 h 575 V 0 H 2906 V 525 Q 2725,213 2448,61 2172,-91 1784,-91 1150,-91 751,415 353,922 353,1747 q 0,825 398,1331 399,506 1033,506 388,0 664,-152 277,-151 458,-463 z M 947,1747 q 0,-634 261,-995 261,-361 717,-361 456,0 718,361 263,361 263,995 0,634 -263,995 -262,361 -718,361 -456,0 -717,-361 -261,-361 -261,-995 z"
       transform="scale(0.015625)" />
    <path
       id="DejaVuSans-67-7"
       d="m 2906,1791 q 0,625 -258,968 -257,344 -723,344 -462,0 -720,-344 -258,-343 -258,-968 0,-622 258,-966 258,-344 720,-344 466,0 723,344 258,344 258,966 z M 3481,434 q 0,-893 -397,-1329 -396,-436 -1215,-436 -303,0 -572,45 -269,45 -522,139 v 559 q 253,-137 500,-202 247,-66 503,-66 566,0 847,295 281,295 281,892 V 616 Q 2728,306 2450,153 2172,0 1784,0 1141,0 747,490 353,981 353,1791 q 0,812 394,1302 394,491 1037,491 388,0 666,-153 278,-153 456,-462 v 531 h 575 z"
       transform="scale(0.015625)" />
    <path
       id="DejaVuSans-65-2"
       d="M 3597,1894 V 1613 H 953 q 38,-594 358,-905 320,-311 892,-311 331,0 642,81 311,81 618,244 V 178 Q 3153,47 2828,-22 2503,-91 2169,-91 1331,-91 842,396 353,884 353,1716 q 0,859 464,1363 464,505 1252,505 706,0 1117,-455 411,-454 411,-1235 z m -575,169 q -6,471 -264,752 -258,282 -683,282 -481,0 -770,-272 -289,-272 -333,-766 z"
       transform="scale(0.015625)" />
    <path
       id="DejaVuSans-74-5"
       d="M 1172,4494 V 3500 H 2356 V 3053 H 1172 V 1153 q 0,-428 117,-550 117,-122 477,-122 h 590 V 0 H 1766 Q 1100,0 847,248 594,497 594,1153 V 3053 H 172 v 447 h 422 v 994 z"
       transform="scale(0.015625)" />
    <path
       id="m133cfbb06b"
       d="M 0,0 H -3.5"
       style="stroke:#000000;stroke-width:0.8" />
    <path
       id="DejaVuSans-30-8"
       d="m 2034,4250 q -487,0 -733,-480 -245,-479 -245,-1442 0,-959 245,-1439 246,-480 733,-480 491,0 736,480 246,480 246,1439 0,963 -246,1442 -245,480 -736,480 z m 0,500 q 785,0 1199,-621 414,-620 414,-1801 0,-1178 -414,-1799 -414,-620 -1199,-620 -784,0 -1198,620 -414,621 -414,1799 0,1181 414,1801 414,621 1198,621 z"
       transform="scale(0.015625)" />
    <path
       id="DejaVuSans-2e-7"
       d="m 684,794 h 660 V 0 H 684 Z"
       transform="scale(0.015625)" />
    <path
       id="DejaVuSans-31-5"
       d="M 794,531 H 1825 V 4091 L 703,3866 v 575 l 1116,225 h 631 V 531 H 3481 V 0 H 794 Z"
       transform="scale(0.015625)" />
    <path
       id="DejaVuSans-32-8"
       d="M 1228,531 H 3431 V 0 H 469 v 531 q 359,372 979,998 621,627 780,809 303,340 423,576 121,236 121,464 0,372 -261,606 -261,235 -680,235 -297,0 -627,-103 -329,-103 -704,-313 v 638 q 381,153 712,231 332,78 607,78 725,0 1156,-363 431,-362 431,-968 0,-288 -108,-546 -107,-257 -392,-607 -78,-91 -497,-524 Q 1991,1309 1228,531 Z"
       transform="scale(0.015625)" />
    <path
       id="DejaVuSans-33-6"
       d="m 2597,2516 q 453,-97 707,-404 255,-306 255,-756 0,-690 -475,-1069 -475,-378 -1350,-378 -293,0 -604,58 -311,58 -642,174 v 609 q 262,-153 574,-231 313,-78 654,-78 593,0 904,234 311,234 311,681 0,413 -289,645 -289,233 -804,233 h -544 v 519 h 569 q 465,0 712,186 247,186 247,536 0,359 -255,551 -254,193 -729,193 -260,0 -557,-57 -297,-56 -653,-174 v 562 q 360,100 674,150 314,50 592,50 719,0 1137,-327 419,-326 419,-882 0,-388 -222,-655 -222,-267 -631,-370 z"
       transform="scale(0.015625)" />
    <path
       id="DejaVuSans-34-6"
       d="M 2419,4116 825,1625 h 1594 z m -166,550 h 794 V 1625 h 666 V 1100 H 3047 V 0 H 2419 V 1100 H 313 v 609 z"
       transform="scale(0.015625)" />
    <path
       id="DejaVuSans-35-6"
       d="M 691,4666 H 3169 V 4134 H 1269 V 2991 q 137,47 274,70 138,23 276,23 781,0 1237,-428 457,-428 457,-1159 Q 3513,744 3044,326 2575,-91 1722,-91 1428,-91 1123,-41 819,9 494,109 v 635 q 281,-153 581,-228 300,-75 634,-75 541,0 856,284 316,284 316,772 0,487 -316,771 -315,285 -856,285 -253,0 -505,-56 -251,-56 -513,-175 z"
       transform="scale(0.015625)" />
    <path
       id="DejaVuSans-36-5"
       d="m 2113,2584 q -425,0 -674,-291 -248,-290 -248,-796 0,-503 248,-796 249,-292 674,-292 425,0 673,292 248,293 248,796 0,506 -248,796 -248,291 -673,291 z m 1253,1979 v -575 q -238,112 -480,171 -242,60 -480,60 -625,0 -955,-422 -329,-422 -376,-1275 184,272 462,417 279,145 613,145 703,0 1111,-427 408,-426 408,-1160 0,-719 -425,-1154 -425,-434 -1131,-434 -810,0 -1238,620 -428,621 -428,1799 0,1106 525,1764 525,658 1409,658 238,0 480,-47 242,-47 505,-140 z"
       transform="scale(0.015625)" />
    <path
       id="DejaVuSans-Oblique-70"
       d="m 3175,2156 q 0,460 -200,703 -200,244 -575,244 -256,0 -489,-131 -233,-131 -414,-381 -178,-247 -285,-597 -106,-350 -106,-694 0,-437 200,-673 200,-236 569,-236 272,0 505,128 233,128 398,372 178,256 287,603 110,347 110,662 z m -1781,813 q 231,303 545,459 314,156 699,156 537,0 834,-352 297,-351 297,-985 0,-519 -185,-989 Q 3400,788 3053,416 2822,169 2531,39 2241,-91 1919,-91 1547,-91 1294,64 1041,219 916,525 L 556,-1331 H -19 l 941,4831 h 575 z"
       transform="scale(0.015625)" />
    <path
       id="DejaVuSans-Oblique-43-2"
       d="m 4447,4306 -128,-665 q -300,303 -636,450 -336,147 -727,147 -534,0 -939,-257 -404,-256 -698,-781 -188,-337 -287,-714 -98,-377 -98,-758 0,-637 330,-972 330,-334 958,-334 434,0 834,139 400,139 778,417 L 3688,231 Q 3316,72 2936,-9 2556,-91 2175,-91 1278,-91 773,396 269,884 269,1753 q 0,556 192,1093 192,538 552,982 381,472 870,697 489,225 1139,225 400,0 758,-111 358,-111 667,-333 z"
       transform="scale(0.015625)" />
    <path
       id="DejaVuSans-20-5"
       transform="scale(0.015625)"
       d="" />
    <path
       id="DejaVuSans-61"
       d="m 2194,1759 q -697,0 -966,-159 -269,-159 -269,-544 0,-306 202,-486 202,-179 548,-179 479,0 768,339 289,339 289,901 v 128 z m 1147,238 V 0 H 2766 V 531 Q 2569,213 2275,61 1981,-91 1556,-91 q -537,0 -855,302 -317,302 -317,808 0,590 395,890 396,300 1180,300 h 807 v 57 q 0,397 -261,614 -261,217 -733,217 -300,0 -585,-72 -284,-72 -546,-216 v 532 q 315,122 612,182 297,61 578,61 760,0 1135,-394 375,-393 375,-1193 z"
       transform="scale(0.015625)" />
    <path
       id="DejaVuSans-63-4"
       d="m 3122,3366 v -538 q -244,135 -489,202 -245,67 -495,67 -560,0 -870,-355 -309,-354 -309,-995 0,-641 309,-996 310,-354 870,-354 250,0 495,67 245,67 489,202 V 134 Q 2881,22 2623,-34 2366,-91 2075,-91 1284,-91 818,406 353,903 353,1747 q 0,856 470,1346 471,491 1290,491 265,0 518,-55 253,-54 491,-163 z"
       transform="scale(0.015625)" />
    <path
       id="DejaVuSans-72-0"
       d="m 2631,2963 q -97,56 -211,82 -114,27 -251,27 -488,0 -749,-317 -261,-317 -261,-911 V 0 H 581 v 3500 h 578 v -544 q 182,319 472,473 291,155 707,155 59,0 131,-8 72,-7 159,-23 z"
       transform="scale(0.015625)" />
    <path
       id="DejaVuSans-68-1"
       d="M 3513,2113 V 0 h -575 v 2094 q 0,497 -194,743 -194,247 -581,247 -466,0 -735,-297 -269,-296 -269,-809 V 0 H 581 v 4863 h 578 V 2956 q 207,316 486,472 280,156 646,156 603,0 912,-373 310,-373 310,-1098 z"
       transform="scale(0.015625)" />
    <path
       id="DejaVuSans-2d"
       d="M 313,2009 H 1997 V 1497 H 313 Z"
       transform="scale(0.015625)" />
    <path
       id="DejaVuSans-70"
       d="M 1159,525 V -1331 H 581 v 4831 h 578 v -531 q 182,312 458,463 277,152 661,152 638,0 1036,-506 399,-506 399,-1331 0,-825 -399,-1332 -398,-506 -1036,-506 -384,0 -661,152 -276,152 -458,464 z m 1957,1222 q 0,634 -261,995 -261,361 -717,361 -457,0 -718,-361 -261,-361 -261,-995 0,-634 261,-995 261,-361 718,-361 456,0 717,361 261,361 261,995 z"
       transform="scale(0.015625)" />
    <path
       id="DejaVuSans-6d"
       d="m 3328,2828 q 216,388 516,572 300,184 706,184 547,0 844,-383 297,-382 297,-1088 V 0 h -578 v 2094 q 0,503 -179,746 -178,244 -543,244 -447,0 -707,-297 -259,-296 -259,-809 V 0 h -578 v 2094 q 0,506 -178,748 -178,242 -550,242 -441,0 -701,-298 -259,-298 -259,-808 V 0 H 581 v 3500 h 578 v -544 q 197,322 472,475 275,153 653,153 382,0 649,-194 267,-193 395,-562 z"
       transform="scale(0.015625)" />
    <clipPath
       id="pb73b1a7570">
      <rect
         x="57.599998"
         y="41.472"
         width="357.12"
         height="266.112"
         id="rect3520" />
    </clipPath>
    <pattern
       id="hf35ce0aac2"
       patternUnits="userSpaceOnUse"
       x="0"
       y="0"
       width="72"
       height="72">
      <rect
         x="0"
         y="0"
         width="73"
         height="73"
         fill="#228b22"
         id="rect3525" />
      <path
         d="M -36 36  L 36 -36  M -24 48  L 48 -24  M -12 60  L 60 -12  M 0 72  L 72 0  M 12 84  L 84 12  M 24 96  L 96 24  M 36 108  L 108 36  "
         style="fill: #000000; stroke: #000000; stroke-width: 1.0; stroke-linecap: butt; stroke-linejoin: miter"
         id="path3527" />
    </pattern>
    <pattern
       id="hbacb280c4a"
       patternUnits="userSpaceOnUse"
       x="0"
       y="0"
       width="72"
       height="72">
      <rect
         x="0"
         y="0"
         width="73"
         height="73"
         fill="#ff7f50"
         id="rect3530" />
      <path
         d="M -36 36  L 36 -36  M -24 48  L 48 -24  M -12 60  L 60 -12  M 0 72  L 72 0  M 12 84  L 84 12  M 24 96  L 96 24  M 36 108  L 108 36  "
         style="fill: #000000; stroke: #000000; stroke-width: 1.0; stroke-linecap: butt; stroke-linejoin: miter"
         id="path3532" />
    </pattern>
    <pattern
       id="hb18b6d2522"
       patternUnits="userSpaceOnUse"
       x="0"
       y="0"
       width="72"
       height="72">
      <rect
         x="0"
         y="0"
         width="73"
         height="73"
         fill="#4682b4"
         id="rect3535" />
      <path
         d="M -36 36  L 36 -36  M -24 48  L 48 -24  M -12 60  L 60 -12  M 0 72  L 72 0  M 12 84  L 84 12  M 24 96  L 96 24  M 36 108  L 108 36  "
         style="fill: #000000; stroke: #000000; stroke-width: 1.0; stroke-linecap: butt; stroke-linejoin: miter"
         id="path3537" />
    </pattern>
    <style
       type="text/css"
       id="style7328">*{stroke-linejoin: round; stroke-linecap: butt}</style>
    <path
       id="m4b77274d6f"
       d="M 0 0  L 0 3.5  "
       style="stroke: #000000; stroke-width: 0.8" />
    <path
       id="DejaVuSans-77-3"
       d="M 269 3500  L 844 3500  L 1563 769  L 2278 3500  L 2956 3500  L 3675 769  L 4391 3500  L 4966 3500  L 4050 0  L 3372 0  L 2619 2869  L 1863 0  L 1184 0  L 269 3500  z "
       transform="scale(0.015625)" />
    <path
       id="DejaVuSans-69-4"
       d="M 603 3500  L 1178 3500  L 1178 0  L 603 0  L 603 3500  z M 603 4863  L 1178 4863  L 1178 4134  L 603 4134  L 603 4863  z "
       transform="scale(0.015625)" />
    <path
       id="DejaVuSans-6e-8"
       d="M 3513 2113  L 3513 0  L 2938 0  L 2938 2094  Q 2938 2591 2744 2837  Q 2550 3084 2163 3084  Q 1697 3084 1428 2787  Q 1159 2491 1159 1978  L 1159 0  L 581 0  L 581 3500  L 1159 3500  L 1159 2956  Q 1366 3272 1645 3428  Q 1925 3584 2291 3584  Q 2894 3584 3203 3211  Q 3513 2838 3513 2113  z "
       transform="scale(0.015625)" />
    <path
       id="DejaVuSans-6c-4"
       d="M 603 4863  L 1178 4863  L 1178 0  L 603 0  L 603 4863  z "
       transform="scale(0.015625)" />
    <path
       id="DejaVuSans-6f-5"
       d="M 1959 3097  Q 1497 3097 1228 2736  Q 959 2375 959 1747  Q 959 1119 1226 758  Q 1494 397 1959 397  Q 2419 397 2687 759  Q 2956 1122 2956 1747  Q 2956 2369 2687 2733  Q 2419 3097 1959 3097  z M 1959 3584  Q 2709 3584 3137 3096  Q 3566 2609 3566 1747  Q 3566 888 3137 398  Q 2709 -91 1959 -91  Q 1206 -91 779 398  Q 353 888 353 1747  Q 353 2609 779 3096  Q 1206 3584 1959 3584  z "
       transform="scale(0.015625)" />
    <path
       id="DejaVuSans-73-3"
       d="M 2834 3397  L 2834 2853  Q 2591 2978 2328 3040  Q 2066 3103 1784 3103  Q 1356 3103 1142 2972  Q 928 2841 928 2578  Q 928 2378 1081 2264  Q 1234 2150 1697 2047  L 1894 2003  Q 2506 1872 2764 1633  Q 3022 1394 3022 966  Q 3022 478 2636 193  Q 2250 -91 1575 -91  Q 1294 -91 989 -36  Q 684 19 347 128  L 347 722  Q 666 556 975 473  Q 1284 391 1588 391  Q 1994 391 2212 530  Q 2431 669 2431 922  Q 2431 1156 2273 1281  Q 2116 1406 1581 1522  L 1381 1569  Q 847 1681 609 1914  Q 372 2147 372 2553  Q 372 3047 722 3315  Q 1072 3584 1716 3584  Q 2034 3584 2315 3537  Q 2597 3491 2834 3397  z "
       transform="scale(0.015625)" />
    <path
       id="DejaVuSans-62-58"
       d="M 3116 1747  Q 3116 2381 2855 2742  Q 2594 3103 2138 3103  Q 1681 3103 1420 2742  Q 1159 2381 1159 1747  Q 1159 1113 1420 752  Q 1681 391 2138 391  Q 2594 391 2855 752  Q 3116 1113 3116 1747  z M 1159 2969  Q 1341 3281 1617 3432  Q 1894 3584 2278 3584  Q 2916 3584 3314 3078  Q 3713 2572 3713 1747  Q 3713 922 3314 415  Q 2916 -91 2278 -91  Q 1894 -91 1617 61  Q 1341 213 1159 525  L 1159 0  L 581 0  L 581 4863  L 1159 4863  L 1159 2969  z "
       transform="scale(0.015625)" />
    <path
       id="DejaVuSans-75-9"
       d="M 544 1381  L 544 3500  L 1119 3500  L 1119 1403  Q 1119 906 1312 657  Q 1506 409 1894 409  Q 2359 409 2629 706  Q 2900 1003 2900 1516  L 2900 3500  L 3475 3500  L 3475 0  L 2900 0  L 2900 538  Q 2691 219 2414 64  Q 2138 -91 1772 -91  Q 1169 -91 856 284  Q 544 659 544 1381  z M 1991 3584  L 1991 3584  z "
       transform="scale(0.015625)" />
    <path
       id="DejaVuSans-64-8"
       d="M 2906 2969  L 2906 4863  L 3481 4863  L 3481 0  L 2906 0  L 2906 525  Q 2725 213 2448 61  Q 2172 -91 1784 -91  Q 1150 -91 751 415  Q 353 922 353 1747  Q 353 2572 751 3078  Q 1150 3584 1784 3584  Q 2172 3584 2448 3432  Q 2725 3281 2906 2969  z M 947 1747  Q 947 1113 1208 752  Q 1469 391 1925 391  Q 2381 391 2643 752  Q 2906 1113 2906 1747  Q 2906 2381 2643 2742  Q 2381 3103 1925 3103  Q 1469 3103 1208 2742  Q 947 2381 947 1747  z "
       transform="scale(0.015625)" />
    <path
       id="DejaVuSans-67-8"
       d="M 2906 1791  Q 2906 2416 2648 2759  Q 2391 3103 1925 3103  Q 1463 3103 1205 2759  Q 947 2416 947 1791  Q 947 1169 1205 825  Q 1463 481 1925 481  Q 2391 481 2648 825  Q 2906 1169 2906 1791  z M 3481 434  Q 3481 -459 3084 -895  Q 2688 -1331 1869 -1331  Q 1566 -1331 1297 -1286  Q 1028 -1241 775 -1147  L 775 -588  Q 1028 -725 1275 -790  Q 1522 -856 1778 -856  Q 2344 -856 2625 -561  Q 2906 -266 2906 331  L 2906 616  Q 2728 306 2450 153  Q 2172 0 1784 0  Q 1141 0 747 490  Q 353 981 353 1791  Q 353 2603 747 3093  Q 1141 3584 1784 3584  Q 2172 3584 2450 3431  Q 2728 3278 2906 2969  L 2906 3500  L 3481 3500  L 3481 434  z "
       transform="scale(0.015625)" />
    <path
       id="DejaVuSans-65-29"
       d="M 3597 1894  L 3597 1613  L 953 1613  Q 991 1019 1311 708  Q 1631 397 2203 397  Q 2534 397 2845 478  Q 3156 559 3463 722  L 3463 178  Q 3153 47 2828 -22  Q 2503 -91 2169 -91  Q 1331 -91 842 396  Q 353 884 353 1716  Q 353 2575 817 3079  Q 1281 3584 2069 3584  Q 2775 3584 3186 3129  Q 3597 2675 3597 1894  z M 3022 2063  Q 3016 2534 2758 2815  Q 2500 3097 2075 3097  Q 1594 3097 1305 2825  Q 1016 2553 972 2059  L 3022 2063  z "
       transform="scale(0.015625)" />
    <path
       id="DejaVuSans-74-0"
       d="M 1172 4494  L 1172 3500  L 2356 3500  L 2356 3053  L 1172 3053  L 1172 1153  Q 1172 725 1289 603  Q 1406 481 1766 481  L 2356 481  L 2356 0  L 1766 0  Q 1100 0 847 248  Q 594 497 594 1153  L 594 3053  L 172 3053  L 172 3500  L 594 3500  L 594 4494  L 1172 4494  z "
       transform="scale(0.015625)" />
    <path
       id="m054c869854"
       d="M 0 0  L -3.5 0  "
       style="stroke: #000000; stroke-width: 0.8" />
    <path
       id="DejaVuSans-30-6"
       d="M 2034 4250  Q 1547 4250 1301 3770  Q 1056 3291 1056 2328  Q 1056 1369 1301 889  Q 1547 409 2034 409  Q 2525 409 2770 889  Q 3016 1369 3016 2328  Q 3016 3291 2770 3770  Q 2525 4250 2034 4250  z M 2034 4750  Q 2819 4750 3233 4129  Q 3647 3509 3647 2328  Q 3647 1150 3233 529  Q 2819 -91 2034 -91  Q 1250 -91 836 529  Q 422 1150 422 2328  Q 422 3509 836 4129  Q 1250 4750 2034 4750  z "
       transform="scale(0.015625)" />
    <path
       id="DejaVuSans-2e-4"
       d="M 684 794  L 1344 794  L 1344 0  L 684 0  L 684 794  z "
       transform="scale(0.015625)" />
    <path
       id="DejaVuSans-31-4"
       d="M 794 531  L 1825 531  L 1825 4091  L 703 3866  L 703 4441  L 1819 4666  L 2450 4666  L 2450 531  L 3481 531  L 3481 0  L 794 0  L 794 531  z "
       transform="scale(0.015625)" />
    <path
       id="DejaVuSans-32-9"
       d="M 1228 531  L 3431 531  L 3431 0  L 469 0  L 469 531  Q 828 903 1448 1529  Q 2069 2156 2228 2338  Q 2531 2678 2651 2914  Q 2772 3150 2772 3378  Q 2772 3750 2511 3984  Q 2250 4219 1831 4219  Q 1534 4219 1204 4116  Q 875 4013 500 3803  L 500 4441  Q 881 4594 1212 4672  Q 1544 4750 1819 4750  Q 2544 4750 2975 4387  Q 3406 4025 3406 3419  Q 3406 3131 3298 2873  Q 3191 2616 2906 2266  Q 2828 2175 2409 1742  Q 1991 1309 1228 531  z "
       transform="scale(0.015625)" />
    <path
       id="DejaVuSans-33-3"
       d="M 2597 2516  Q 3050 2419 3304 2112  Q 3559 1806 3559 1356  Q 3559 666 3084 287  Q 2609 -91 1734 -91  Q 1441 -91 1130 -33  Q 819 25 488 141  L 488 750  Q 750 597 1062 519  Q 1375 441 1716 441  Q 2309 441 2620 675  Q 2931 909 2931 1356  Q 2931 1769 2642 2001  Q 2353 2234 1838 2234  L 1294 2234  L 1294 2753  L 1863 2753  Q 2328 2753 2575 2939  Q 2822 3125 2822 3475  Q 2822 3834 2567 4026  Q 2313 4219 1838 4219  Q 1578 4219 1281 4162  Q 984 4106 628 3988  L 628 4550  Q 988 4650 1302 4700  Q 1616 4750 1894 4750  Q 2613 4750 3031 4423  Q 3450 4097 3450 3541  Q 3450 3153 3228 2886  Q 3006 2619 2597 2516  z "
       transform="scale(0.015625)" />
    <path
       id="DejaVuSans-34-5"
       d="M 2419 4116  L 825 1625  L 2419 1625  L 2419 4116  z M 2253 4666  L 3047 4666  L 3047 1625  L 3713 1625  L 3713 1100  L 3047 1100  L 3047 0  L 2419 0  L 2419 1100  L 313 1100  L 313 1709  L 2253 4666  z "
       transform="scale(0.015625)" />
    <path
       id="DejaVuSans-35-2"
       d="M 691 4666  L 3169 4666  L 3169 4134  L 1269 4134  L 1269 2991  Q 1406 3038 1543 3061  Q 1681 3084 1819 3084  Q 2600 3084 3056 2656  Q 3513 2228 3513 1497  Q 3513 744 3044 326  Q 2575 -91 1722 -91  Q 1428 -91 1123 -41  Q 819 9 494 109  L 494 744  Q 775 591 1075 516  Q 1375 441 1709 441  Q 2250 441 2565 725  Q 2881 1009 2881 1497  Q 2881 1984 2565 2268  Q 2250 2553 1709 2553  Q 1456 2553 1204 2497  Q 953 2441 691 2322  L 691 4666  z "
       transform="scale(0.015625)" />
    <path
       id="DejaVuSans-36-0"
       d="M 2113 2584  Q 1688 2584 1439 2293  Q 1191 2003 1191 1497  Q 1191 994 1439 701  Q 1688 409 2113 409  Q 2538 409 2786 701  Q 3034 994 3034 1497  Q 3034 2003 2786 2293  Q 2538 2584 2113 2584  z M 3366 4563  L 3366 3988  Q 3128 4100 2886 4159  Q 2644 4219 2406 4219  Q 1781 4219 1451 3797  Q 1122 3375 1075 2522  Q 1259 2794 1537 2939  Q 1816 3084 2150 3084  Q 2853 3084 3261 2657  Q 3669 2231 3669 1497  Q 3669 778 3244 343  Q 2819 -91 2113 -91  Q 1303 -91 875 529  Q 447 1150 447 2328  Q 447 3434 972 4092  Q 1497 4750 2381 4750  Q 2619 4750 2861 4703  Q 3103 4656 3366 4563  z "
       transform="scale(0.015625)" />
    <path
       id="DejaVuSans-Oblique-43-26"
       d="M 4447 4306  L 4319 3641  Q 4019 3944 3683 4091  Q 3347 4238 2956 4238  Q 2422 4238 2017 3981  Q 1613 3725 1319 3200  Q 1131 2863 1032 2486  Q 934 2109 934 1728  Q 934 1091 1264 756  Q 1594 422 2222 422  Q 2656 422 3056 561  Q 3456 700 3834 978  L 3688 231  Q 3316 72 2936 -9  Q 2556 -91 2175 -91  Q 1278 -91 773 396  Q 269 884 269 1753  Q 269 2309 461 2846  Q 653 3384 1013 3828  Q 1394 4300 1883 4525  Q 2372 4750 3022 4750  Q 3422 4750 3780 4639  Q 4138 4528 4447 4306  z "
       transform="scale(0.015625)" />
    <path
       id="DejaVuSans-20-9"
       transform="scale(0.015625)" />
    <path
       id="DejaVuSans-76-9"
       d="M 191 3500  L 800 3500  L 1894 563  L 2988 3500  L 3597 3500  L 2284 0  L 1503 0  L 191 3500  z "
       transform="scale(0.015625)" />
    <path
       id="DejaVuSans-68-0"
       d="M 3513 2113  L 3513 0  L 2938 0  L 2938 2094  Q 2938 2591 2744 2837  Q 2550 3084 2163 3084  Q 1697 3084 1428 2787  Q 1159 2491 1159 1978  L 1159 0  L 581 0  L 581 4863  L 1159 4863  L 1159 2956  Q 1366 3272 1645 3428  Q 1925 3584 2291 3584  Q 2894 3584 3203 3211  Q 3513 2838 3513 2113  z "
       transform="scale(0.015625)" />
    <path
       id="DejaVuSans-42-0"
       d="M 1259 2228  L 1259 519  L 2272 519  Q 2781 519 3026 730  Q 3272 941 3272 1375  Q 3272 1813 3026 2020  Q 2781 2228 2272 2228  L 1259 2228  z M 1259 4147  L 1259 2741  L 2194 2741  Q 2656 2741 2882 2914  Q 3109 3088 3109 3444  Q 3109 3797 2882 3972  Q 2656 4147 2194 4147  L 1259 4147  z M 628 4666  L 2241 4666  Q 2963 4666 3353 4366  Q 3744 4066 3744 3513  Q 3744 3084 3544 2831  Q 3344 2578 2956 2516  Q 3422 2416 3680 2098  Q 3938 1781 3938 1306  Q 3938 681 3513 340  Q 3088 0 2303 0  L 628 0  L 628 4666  z "
       transform="scale(0.015625)" />
    <path
       id="DejaVuSans-44-2"
       d="M 1259 4147  L 1259 519  L 2022 519  Q 2988 519 3436 956  Q 3884 1394 3884 2338  Q 3884 3275 3436 3711  Q 2988 4147 2022 4147  L 1259 4147  z M 628 4666  L 1925 4666  Q 3281 4666 3915 4102  Q 4550 3538 4550 2338  Q 4550 1131 3912 565  Q 3275 0 1925 0  L 628 0  L 628 4666  z "
       transform="scale(0.015625)" />
    <path
       id="DejaVuSans-49-5"
       d="M 628 4666  L 1259 4666  L 1259 0  L 628 0  L 628 4666  z "
       transform="scale(0.015625)" />
    <path
       id="DejaVuSans-63-41"
       d="M 3122 3366  L 3122 2828  Q 2878 2963 2633 3030  Q 2388 3097 2138 3097  Q 1578 3097 1268 2742  Q 959 2388 959 1747  Q 959 1106 1268 751  Q 1578 397 2138 397  Q 2388 397 2633 464  Q 2878 531 3122 666  L 3122 134  Q 2881 22 2623 -34  Q 2366 -91 2075 -91  Q 1284 -91 818 406  Q 353 903 353 1747  Q 353 2603 823 3093  Q 1294 3584 2113 3584  Q 2378 3584 2631 3529  Q 2884 3475 3122 3366  z "
       transform="scale(0.015625)" />
    <path
       id="DejaVuSans-72-1"
       d="M 2631 2963  Q 2534 3019 2420 3045  Q 2306 3072 2169 3072  Q 1681 3072 1420 2755  Q 1159 2438 1159 1844  L 1159 0  L 581 0  L 581 3500  L 1159 3500  L 1159 2956  Q 1341 3275 1631 3429  Q 1922 3584 2338 3584  Q 2397 3584 2469 3576  Q 2541 3569 2628 3553  L 2631 2963  z "
       transform="scale(0.015625)" />
    <clipPath
       id="p562a872887">
      <rect
         x="57.6"
         y="41.472"
         width="357.12"
         height="266.112"
         id="rect7700" />
    </clipPath>
  </defs>
  <g
     inkscape:label="Ebene 1"
     inkscape:groupmode="layer"
     id="layer1">
    <g
       id="figure_1-8"
       transform="matrix(0.35277778,0,0,0.35277778,164.23262,0.88413941)">
      <g
         id="patch_1-1">
        <path
           d="M 0,345.6 H 460.8 V 0 H 0 Z"
           style="fill:#ffffff"
           id="path3082" />
      </g>
      <g
         id="axes_1-1">
        <g
           id="patch_2-7">
          <path
             d="M 57.6,307.584 H 414.72 V 41.472 H 57.6 Z"
             style="fill:#ffffff"
             id="path3085" />
        </g>
        <g
           id="patch_3-6">
          <path
             d="M 73.832727,307.584 H 108.61714 V 94.76105 H 73.832727 Z"
             clip-path="url(#pb73b1a7570)"
             style="opacity:0.2;fill:#228b22"
             id="path3088" />
        </g>
        <g
           id="patch_4-2">
          <path
             d="m 189.78078,307.584 h 34.78441 v -19.30921 h -34.78441 z"
             clip-path="url(#pb73b1a7570)"
             style="opacity:0.2;fill:#ff7f50"
             id="path3091" />
        </g>
        <g
           id="patch_5-8">
          <path
             d="m 305.72883,307.584 h 34.78442 V 122.74746 h -34.78442 z"
             clip-path="url(#pb73b1a7570)"
             style="opacity:0.2;fill:#4682b4"
             id="path3094" />
        </g>
        <g
           id="patch_6-5">
          <path
             d="m 102.81974,307.584 h 34.78442 V 88.949018 h -34.78442 z"
             clip-path="url(#pb73b1a7570)"
             style="opacity:0.6;fill:url(#hf35ce0aac2)"
             id="path3097" />
        </g>
        <g
           id="patch_7-5">
          <path
             d="m 218.76779,307.584 h 34.78442 v -17.68195 h -34.78442 z"
             clip-path="url(#pb73b1a7570)"
             style="opacity:0.6;fill:url(#hbacb280c4a)"
             id="path3100" />
        </g>
        <g
           id="patch_8-8">
          <path
             d="m 334.71584,307.584 h 34.78442 V 126.93223 h -34.78442 z"
             clip-path="url(#pb73b1a7570)"
             style="opacity:0.6;fill:url(#hb18b6d2522)"
             id="path3103" />
        </g>
        <g
           id="patch_9-2">
          <path
             d="m 131.80675,307.584 h 34.78442 V 107.87836 h -34.78442 z"
             clip-path="url(#pb73b1a7570)"
             style="fill:#228b22"
             id="path3106" />
        </g>
        <g
           id="patch_10-3">
          <path
             d="m 247.7548,307.584 h 34.78442 V 290.02658 H 247.7548 Z"
             clip-path="url(#pb73b1a7570)"
             style="fill:#ff7f50"
             id="path3109" />
        </g>
        <g
           id="patch_11-7">
          <path
             d="m 363.70286,307.584 h 34.78441 V 107.87836 h -34.78441 z"
             clip-path="url(#pb73b1a7570)"
             style="fill:#4682b4"
             id="path3112" />
        </g>
        <g
           id="matplotlib.axis_1-9">
          <g
             id="xtick_1-9">
            <g
               id="line2d_1-6">
              <defs
                 id="defs3116">
                <path
                   id="path3612"
                   d="M 0,0 V 3.5"
                   style="stroke:#000000;stroke-width:0.8" />
              </defs>
              <g
                 id="g3120">
                <use
                   xlink:href="#m86af2a517c"
                   x="91.224937"
                   y="307.58401"
                   style="stroke:#000000;stroke-width:0.8"
                   id="use3118"
                   width="100%"
                   height="100%" />
              </g>
            </g>
            <g
               id="text_1-5">
              <!-- win -->
              <g
                 transform="matrix(0.1,0,0,-0.1,82.57806,322.18244)"
                 id="g3134">
                <defs
                   id="defs3126">
                  <path
                     id="path3618"
                     d="m 269,3500 h 575 l 719,-2731 715,2731 h 678 l 719,-2731 716,2731 h 575 L 4050,0 H 3372 L 2619,2869 1863,0 h -679 z"
                     transform="scale(0.015625)" />
                  <path
                     id="path3620"
                     d="m 603,3500 h 575 V 0 H 603 Z m 0,1363 h 575 V 4134 H 603 Z"
                     transform="scale(0.015625)" />
                  <path
                     id="path3622"
                     d="M 3513,2113 V 0 h -575 v 2094 q 0,497 -194,743 -194,247 -581,247 -466,0 -735,-297 -269,-296 -269,-809 V 0 H 581 v 3500 h 578 v -544 q 207,316 486,472 280,156 646,156 603,0 912,-373 310,-373 310,-1098 z"
                     transform="scale(0.015625)" />
                </defs>
                <use
                   xlink:href="#DejaVuSans-77-0"
                   id="use3128"
                   x="0"
                   y="0"
                   width="100%"
                   height="100%" />
                <use
                   xlink:href="#DejaVuSans-69-5"
                   x="81.787109"
                   id="use3130"
                   y="0"
                   width="100%"
                   height="100%" />
                <use
                   xlink:href="#DejaVuSans-6e-7"
                   x="109.57031"
                   id="use3132"
                   y="0"
                   width="100%"
                   height="100%" />
              </g>
            </g>
          </g>
          <g
             id="xtick_2-2">
            <g
               id="line2d_2-6">
              <g
                 id="g3140">
                <use
                   xlink:href="#m86af2a517c"
                   x="207.17299"
                   y="307.58401"
                   style="stroke:#000000;stroke-width:0.8"
                   id="use3138"
                   width="100%"
                   height="100%" />
              </g>
            </g>
            <g
               id="text_2-0">
              <!-- loss -->
              <g
                 transform="matrix(0.1,0,0,-0.1,197.51517,322.18244)"
                 id="g3156">
                <defs
                   id="defs3146">
                  <path
                     id="path3634"
                     d="m 603,4863 h 575 V 0 H 603 Z"
                     transform="scale(0.015625)" />
                  <path
                     id="path3636"
                     d="m 1959,3097 q -462,0 -731,-361 -269,-361 -269,-989 0,-628 267,-989 268,-361 733,-361 460,0 728,362 269,363 269,988 0,622 -269,986 -268,364 -728,364 z m 0,487 q 750,0 1178,-488 429,-487 429,-1349 Q 3566,888 3137,398 2709,-91 1959,-91 1206,-91 779,398 353,888 353,1747 q 0,862 426,1349 427,488 1180,488 z"
                     transform="scale(0.015625)" />
                  <path
                     id="path3638"
                     d="m 2834,3397 v -544 q -243,125 -506,187 -262,63 -544,63 -428,0 -642,-131 -214,-131 -214,-394 0,-200 153,-314 153,-114 616,-217 l 197,-44 q 612,-131 870,-370 258,-239 258,-667 0,-488 -386,-773 Q 2250,-91 1575,-91 1294,-91 989,-36 684,19 347,128 v 594 q 319,-166 628,-249 309,-82 613,-82 406,0 624,139 219,139 219,392 0,234 -158,359 -157,125 -692,241 l -200,47 q -534,112 -772,345 -237,233 -237,639 0,494 350,762 350,269 994,269 318,0 599,-47 282,-46 519,-140 z"
                     transform="scale(0.015625)" />
                </defs>
                <use
                   xlink:href="#DejaVuSans-6c-6"
                   id="use3148"
                   x="0"
                   y="0"
                   width="100%"
                   height="100%" />
                <use
                   xlink:href="#DejaVuSans-6f-6"
                   x="27.783203"
                   id="use3150"
                   y="0"
                   width="100%"
                   height="100%" />
                <use
                   xlink:href="#DejaVuSans-73-7"
                   x="88.964844"
                   id="use3152"
                   y="0"
                   width="100%"
                   height="100%" />
                <use
                   xlink:href="#DejaVuSans-73-7"
                   x="141.06445"
                   id="use3154"
                   y="0"
                   width="100%"
                   height="100%" />
              </g>
            </g>
          </g>
          <g
             id="xtick_3-0">
            <g
               id="line2d_3-4">
              <g
                 id="g3162">
                <use
                   xlink:href="#m86af2a517c"
                   x="323.12103"
                   y="307.58401"
                   style="stroke:#000000;stroke-width:0.8"
                   id="use3160"
                   width="100%"
                   height="100%" />
              </g>
            </g>
            <g
               id="text_3-6">
              <!-- budget -->
              <g
                 transform="matrix(0.1,0,0,-0.1,305.39291,322.18244)"
                 id="g3185">
                <defs
                   id="defs3171">
                  <path
                     id="path3651"
                     d="m 3116,1747 q 0,634 -261,995 -261,361 -717,361 -457,0 -718,-361 -261,-361 -261,-995 0,-634 261,-995 261,-361 718,-361 456,0 717,361 261,361 261,995 z M 1159,2969 q 182,312 458,463 277,152 661,152 638,0 1036,-506 399,-506 399,-1331 Q 3713,922 3314,415 2916,-91 2278,-91 1894,-91 1617,61 1341,213 1159,525 V 0 H 581 v 4863 h 578 z"
                     transform="scale(0.015625)" />
                  <path
                     id="path3653"
                     d="m 544,1381 v 2119 h 575 V 1403 q 0,-497 193,-746 194,-248 582,-248 465,0 735,297 271,297 271,810 v 1984 h 575 V 0 H 2900 V 538 Q 2691,219 2414,64 2138,-91 1772,-91 1169,-91 856,284 544,659 544,1381 Z m 1447,2203 z"
                     transform="scale(0.015625)" />
                  <path
                     id="path3655"
                     d="m 2906,2969 v 1894 h 575 V 0 H 2906 V 525 Q 2725,213 2448,61 2172,-91 1784,-91 1150,-91 751,415 353,922 353,1747 q 0,825 398,1331 399,506 1033,506 388,0 664,-152 277,-151 458,-463 z M 947,1747 q 0,-634 261,-995 261,-361 717,-361 456,0 718,361 263,361 263,995 0,634 -263,995 -262,361 -718,361 -456,0 -717,-361 -261,-361 -261,-995 z"
                     transform="scale(0.015625)" />
                  <path
                     id="path3657"
                     d="m 2906,1791 q 0,625 -258,968 -257,344 -723,344 -462,0 -720,-344 -258,-343 -258,-968 0,-622 258,-966 258,-344 720,-344 466,0 723,344 258,344 258,966 z M 3481,434 q 0,-893 -397,-1329 -396,-436 -1215,-436 -303,0 -572,45 -269,45 -522,139 v 559 q 253,-137 500,-202 247,-66 503,-66 566,0 847,295 281,295 281,892 V 616 Q 2728,306 2450,153 2172,0 1784,0 1141,0 747,490 353,981 353,1791 q 0,812 394,1302 394,491 1037,491 388,0 666,-153 278,-153 456,-462 v 531 h 575 z"
                     transform="scale(0.015625)" />
                  <path
                     id="path3659"
                     d="M 3597,1894 V 1613 H 953 q 38,-594 358,-905 320,-311 892,-311 331,0 642,81 311,81 618,244 V 178 Q 3153,47 2828,-22 2503,-91 2169,-91 1331,-91 842,396 353,884 353,1716 q 0,859 464,1363 464,505 1252,505 706,0 1117,-455 411,-454 411,-1235 z m -575,169 q -6,471 -264,752 -258,282 -683,282 -481,0 -770,-272 -289,-272 -333,-766 z"
                     transform="scale(0.015625)" />
                  <path
                     id="path3661"
                     d="M 1172,4494 V 3500 H 2356 V 3053 H 1172 V 1153 q 0,-428 117,-550 117,-122 477,-122 h 590 V 0 H 1766 Q 1100,0 847,248 594,497 594,1153 V 3053 H 172 v 447 h 422 v 994 z"
                     transform="scale(0.015625)" />
                </defs>
                <use
                   xlink:href="#DejaVuSans-62-5"
                   id="use3173"
                   x="0"
                   y="0"
                   width="100%"
                   height="100%" />
                <use
                   xlink:href="#DejaVuSans-75-0"
                   x="63.476562"
                   id="use3175"
                   y="0"
                   width="100%"
                   height="100%" />
                <use
                   xlink:href="#DejaVuSans-64-1"
                   x="126.85547"
                   id="use3177"
                   y="0"
                   width="100%"
                   height="100%" />
                <use
                   xlink:href="#DejaVuSans-67-7"
                   x="190.33203"
                   id="use3179"
                   y="0"
                   width="100%"
                   height="100%" />
                <use
                   xlink:href="#DejaVuSans-65-2"
                   x="253.80859"
                   id="use3181"
                   y="0"
                   width="100%"
                   height="100%" />
                <use
                   xlink:href="#DejaVuSans-74-5"
                   x="315.33203"
                   id="use3183"
                   y="0"
                   width="100%"
                   height="100%" />
              </g>
            </g>
          </g>
        </g>
        <g
           id="matplotlib.axis_2-1">
          <g
             id="ytick_1-0">
            <g
               id="line2d_4-2">
              <defs
                 id="defs3191">
                <path
                   id="path3674"
                   d="M 0,0 H -3.5"
                   style="stroke:#000000;stroke-width:0.8" />
              </defs>
              <g
                 id="g3195">
                <use
                   xlink:href="#m133cfbb06b"
                   x="57.599998"
                   y="307.58401"
                   style="stroke:#000000;stroke-width:0.8"
                   id="use3193"
                   width="100%"
                   height="100%" />
              </g>
            </g>
            <g
               id="text_4-4">
              <!-- 0.0 -->
              <g
                 transform="matrix(0.1,0,0,-0.1,34.696875,311.38322)"
                 id="g3208">
                <defs
                   id="defs3200">
                  <path
                     id="path3680"
                     d="m 2034,4250 q -487,0 -733,-480 -245,-479 -245,-1442 0,-959 245,-1439 246,-480 733,-480 491,0 736,480 246,480 246,1439 0,963 -246,1442 -245,480 -736,480 z m 0,500 q 785,0 1199,-621 414,-620 414,-1801 0,-1178 -414,-1799 -414,-620 -1199,-620 -784,0 -1198,620 -414,621 -414,1799 0,1181 414,1801 414,621 1198,621 z"
                     transform="scale(0.015625)" />
                  <path
                     id="path3682"
                     d="m 684,794 h 660 V 0 H 684 Z"
                     transform="scale(0.015625)" />
                </defs>
                <use
                   xlink:href="#DejaVuSans-30-8"
                   id="use3202"
                   x="0"
                   y="0"
                   width="100%"
                   height="100%" />
                <use
                   xlink:href="#DejaVuSans-2e-7"
                   x="63.623047"
                   id="use3204"
                   y="0"
                   width="100%"
                   height="100%" />
                <use
                   xlink:href="#DejaVuSans-30-8"
                   x="95.410156"
                   id="use3206"
                   y="0"
                   width="100%"
                   height="100%" />
              </g>
            </g>
          </g>
          <g
             id="ytick_2-4">
            <g
               id="line2d_5-6">
              <g
                 id="g3214">
                <use
                   xlink:href="#m133cfbb06b"
                   x="57.599998"
                   y="265.88712"
                   style="stroke:#000000;stroke-width:0.8"
                   id="use3212"
                   width="100%"
                   height="100%" />
              </g>
            </g>
            <g
               id="text_5-8">
              <!-- 0.1 -->
              <g
                 transform="matrix(0.1,0,0,-0.1,34.696875,269.68635)"
                 id="g3226">
                <defs
                   id="defs3218">
                  <path
                     id="path3694"
                     d="M 794,531 H 1825 V 4091 L 703,3866 v 575 l 1116,225 h 631 V 531 H 3481 V 0 H 794 Z"
                     transform="scale(0.015625)" />
                </defs>
                <use
                   xlink:href="#DejaVuSans-30-8"
                   id="use3220"
                   x="0"
                   y="0"
                   width="100%"
                   height="100%" />
                <use
                   xlink:href="#DejaVuSans-2e-7"
                   x="63.623047"
                   id="use3222"
                   y="0"
                   width="100%"
                   height="100%" />
                <use
                   xlink:href="#DejaVuSans-31-5"
                   x="95.410156"
                   id="use3224"
                   y="0"
                   width="100%"
                   height="100%" />
              </g>
            </g>
          </g>
          <g
             id="ytick_3-3">
            <g
               id="line2d_6-8">
              <g
                 id="g3232">
                <use
                   xlink:href="#m133cfbb06b"
                   x="57.599998"
                   y="224.19026"
                   style="stroke:#000000;stroke-width:0.8"
                   id="use3230"
                   width="100%"
                   height="100%" />
              </g>
            </g>
            <g
               id="text_6-6">
              <!-- 0.2 -->
              <g
                 transform="matrix(0.1,0,0,-0.1,34.696875,227.98948)"
                 id="g3244">
                <defs
                   id="defs3236">
                  <path
                     id="path3706"
                     d="M 1228,531 H 3431 V 0 H 469 v 531 q 359,372 979,998 621,627 780,809 303,340 423,576 121,236 121,464 0,372 -261,606 -261,235 -680,235 -297,0 -627,-103 -329,-103 -704,-313 v 638 q 381,153 712,231 332,78 607,78 725,0 1156,-363 431,-362 431,-968 0,-288 -108,-546 -107,-257 -392,-607 -78,-91 -497,-524 Q 1991,1309 1228,531 Z"
                     transform="scale(0.015625)" />
                </defs>
                <use
                   xlink:href="#DejaVuSans-30-8"
                   id="use3238"
                   x="0"
                   y="0"
                   width="100%"
                   height="100%" />
                <use
                   xlink:href="#DejaVuSans-2e-7"
                   x="63.623047"
                   id="use3240"
                   y="0"
                   width="100%"
                   height="100%" />
                <use
                   xlink:href="#DejaVuSans-32-8"
                   x="95.410156"
                   id="use3242"
                   y="0"
                   width="100%"
                   height="100%" />
              </g>
            </g>
          </g>
          <g
             id="ytick_4-1">
            <g
               id="line2d_7-6">
              <g
                 id="g3250">
                <use
                   xlink:href="#m133cfbb06b"
                   x="57.599998"
                   y="182.49339"
                   style="stroke:#000000;stroke-width:0.8"
                   id="use3248"
                   width="100%"
                   height="100%" />
              </g>
            </g>
            <g
               id="text_7-7">
              <!-- 0.3 -->
              <g
                 transform="matrix(0.1,0,0,-0.1,34.696875,186.29261)"
                 id="g3262">
                <defs
                   id="defs3254">
                  <path
                     id="path3718"
                     d="m 2597,2516 q 453,-97 707,-404 255,-306 255,-756 0,-690 -475,-1069 -475,-378 -1350,-378 -293,0 -604,58 -311,58 -642,174 v 609 q 262,-153 574,-231 313,-78 654,-78 593,0 904,234 311,234 311,681 0,413 -289,645 -289,233 -804,233 h -544 v 519 h 569 q 465,0 712,186 247,186 247,536 0,359 -255,551 -254,193 -729,193 -260,0 -557,-57 -297,-56 -653,-174 v 562 q 360,100 674,150 314,50 592,50 719,0 1137,-327 419,-326 419,-882 0,-388 -222,-655 -222,-267 -631,-370 z"
                     transform="scale(0.015625)" />
                </defs>
                <use
                   xlink:href="#DejaVuSans-30-8"
                   id="use3256"
                   x="0"
                   y="0"
                   width="100%"
                   height="100%" />
                <use
                   xlink:href="#DejaVuSans-2e-7"
                   x="63.623047"
                   id="use3258"
                   y="0"
                   width="100%"
                   height="100%" />
                <use
                   xlink:href="#DejaVuSans-33-6"
                   x="95.410156"
                   id="use3260"
                   y="0"
                   width="100%"
                   height="100%" />
              </g>
            </g>
          </g>
          <g
             id="ytick_5-5">
            <g
               id="line2d_8-4">
              <g
                 id="g3268">
                <use
                   xlink:href="#m133cfbb06b"
                   x="57.599998"
                   y="140.79652"
                   style="stroke:#000000;stroke-width:0.8"
                   id="use3266"
                   width="100%"
                   height="100%" />
              </g>
            </g>
            <g
               id="text_8-6">
              <!-- 0.4 -->
              <g
                 transform="matrix(0.1,0,0,-0.1,34.696875,144.59574)"
                 id="g3280">
                <defs
                   id="defs3272">
                  <path
                     id="path3730"
                     d="M 2419,4116 825,1625 h 1594 z m -166,550 h 794 V 1625 h 666 V 1100 H 3047 V 0 H 2419 V 1100 H 313 v 609 z"
                     transform="scale(0.015625)" />
                </defs>
                <use
                   xlink:href="#DejaVuSans-30-8"
                   id="use3274"
                   x="0"
                   y="0"
                   width="100%"
                   height="100%" />
                <use
                   xlink:href="#DejaVuSans-2e-7"
                   x="63.623047"
                   id="use3276"
                   y="0"
                   width="100%"
                   height="100%" />
                <use
                   xlink:href="#DejaVuSans-34-6"
                   x="95.410156"
                   id="use3278"
                   y="0"
                   width="100%"
                   height="100%" />
              </g>
            </g>
          </g>
          <g
             id="ytick_6-9">
            <g
               id="line2d_9-1">
              <g
                 id="g3286">
                <use
                   xlink:href="#m133cfbb06b"
                   x="57.599998"
                   y="99.099648"
                   style="stroke:#000000;stroke-width:0.8"
                   id="use3284"
                   width="100%"
                   height="100%" />
              </g>
            </g>
            <g
               id="text_9-7">
              <!-- 0.5 -->
              <g
                 transform="matrix(0.1,0,0,-0.1,34.696875,102.89887)"
                 id="g3298">
                <defs
                   id="defs3290">
                  <path
                     id="path3742"
                     d="M 691,4666 H 3169 V 4134 H 1269 V 2991 q 137,47 274,70 138,23 276,23 781,0 1237,-428 457,-428 457,-1159 Q 3513,744 3044,326 2575,-91 1722,-91 1428,-91 1123,-41 819,9 494,109 v 635 q 281,-153 581,-228 300,-75 634,-75 541,0 856,284 316,284 316,772 0,487 -316,771 -315,285 -856,285 -253,0 -505,-56 -251,-56 -513,-175 z"
                     transform="scale(0.015625)" />
                </defs>
                <use
                   xlink:href="#DejaVuSans-30-8"
                   id="use3292"
                   x="0"
                   y="0"
                   width="100%"
                   height="100%" />
                <use
                   xlink:href="#DejaVuSans-2e-7"
                   x="63.623047"
                   id="use3294"
                   y="0"
                   width="100%"
                   height="100%" />
                <use
                   xlink:href="#DejaVuSans-35-6"
                   x="95.410156"
                   id="use3296"
                   y="0"
                   width="100%"
                   height="100%" />
              </g>
            </g>
          </g>
          <g
             id="ytick_7-5">
            <g
               id="line2d_10-9">
              <g
                 id="g3304">
                <use
                   xlink:href="#m133cfbb06b"
                   x="57.599998"
                   y="57.402779"
                   style="stroke:#000000;stroke-width:0.8"
                   id="use3302"
                   width="100%"
                   height="100%" />
              </g>
            </g>
            <g
               id="text_10-1">
              <!-- 0.6 -->
              <g
                 transform="matrix(0.1,0,0,-0.1,34.696875,61.201997)"
                 id="g3316">
                <defs
                   id="defs3308">
                  <path
                     id="path3754"
                     d="m 2113,2584 q -425,0 -674,-291 -248,-290 -248,-796 0,-503 248,-796 249,-292 674,-292 425,0 673,292 248,293 248,796 0,506 -248,796 -248,291 -673,291 z m 1253,1979 v -575 q -238,112 -480,171 -242,60 -480,60 -625,0 -955,-422 -329,-422 -376,-1275 184,272 462,417 279,145 613,145 703,0 1111,-427 408,-426 408,-1160 0,-719 -425,-1154 -425,-434 -1131,-434 -810,0 -1238,620 -428,621 -428,1799 0,1106 525,1764 525,658 1409,658 238,0 480,-47 242,-47 505,-140 z"
                     transform="scale(0.015625)" />
                </defs>
                <use
                   xlink:href="#DejaVuSans-30-8"
                   id="use3310"
                   x="0"
                   y="0"
                   width="100%"
                   height="100%" />
                <use
                   xlink:href="#DejaVuSans-2e-7"
                   x="63.623047"
                   id="use3312"
                   y="0"
                   width="100%"
                   height="100%" />
                <use
                   xlink:href="#DejaVuSans-36-5"
                   x="95.410156"
                   id="use3314"
                   y="0"
                   width="100%"
                   height="100%" />
              </g>
            </g>
          </g>
          <g
             id="text_11-2">
            <!-- $p$ -->
            <g
               transform="matrix(0,-0.1,-0.1,0,28.596875,177.728)"
               id="g3325">
              <defs
                 id="defs3321">
                <path
                   id="path3763"
                   d="m 3175,2156 q 0,460 -200,703 -200,244 -575,244 -256,0 -489,-131 -233,-131 -414,-381 -178,-247 -285,-597 -106,-350 -106,-694 0,-437 200,-673 200,-236 569,-236 272,0 505,128 233,128 398,372 178,256 287,603 110,347 110,662 z m -1781,813 q 231,303 545,459 314,156 699,156 537,0 834,-352 297,-351 297,-985 0,-519 -185,-989 Q 3400,788 3053,416 2822,169 2531,39 2241,-91 1919,-91 1547,-91 1294,64 1041,219 916,525 L 556,-1331 H -19 l 941,4831 h 575 z"
                   transform="scale(0.015625)" />
              </defs>
              <use
                 xlink:href="#DejaVuSans-Oblique-70"
                 id="use3323"
                 x="0"
                 y="0"
                 width="100%"
                 height="100%" />
            </g>
          </g>
        </g>
        <g
           id="LineCollection_1-1">
          <path
             d="M 91.224935,127.69563 V 61.826471"
             clip-path="url(#pb73b1a7570)"
             style="fill:none;stroke:#000000;stroke-width:1.5"
             id="path3329" />
          <path
             d="m 207.17299,299.74994 v -22.9503"
             clip-path="url(#pb73b1a7570)"
             style="fill:none;stroke:#000000;stroke-width:1.5"
             id="path3331" />
          <path
             d="M 323.12104,164.25034 V 81.244574"
             clip-path="url(#pb73b1a7570)"
             style="fill:none;stroke:#000000;stroke-width:1.5"
             id="path3333" />
        </g>
        <g
           id="LineCollection_2-5">
          <path
             d="M 120.21195,123.75404 V 54.144"
             clip-path="url(#pb73b1a7570)"
             style="fill:none;stroke:#000000;stroke-width:1.5"
             id="path3336" />
          <path
             d="M 236.16,302.55539 V 277.2487"
             clip-path="url(#pb73b1a7570)"
             style="fill:none;stroke:#000000;stroke-width:1.5"
             id="path3338" />
          <path
             d="M 352.10805,172.65364 V 81.21082"
             clip-path="url(#pb73b1a7570)"
             style="fill:none;stroke:#000000;stroke-width:1.5"
             id="path3340" />
        </g>
        <g
           id="LineCollection_3">
          <path
             d="m 149.19896,112.78427 v -9.81183"
             clip-path="url(#pb73b1a7570)"
             style="fill:none;stroke:#000000;stroke-width:1.5"
             id="path3343" />
          <path
             d="M 265.14701,299.83842 V 280.21475"
             clip-path="url(#pb73b1a7570)"
             style="fill:none;stroke:#000000;stroke-width:1.5"
             id="path3345" />
          <path
             d="m 381.09506,112.78428 v -9.81184"
             clip-path="url(#pb73b1a7570)"
             style="fill:none;stroke:#000000;stroke-width:1.5"
             id="path3347" />
        </g>
        <g
           id="patch_12-7">
          <path
             d="M 57.6,307.584 V 41.472"
             style="fill:none;stroke:#000000;stroke-width:0.8;stroke-linecap:square;stroke-linejoin:miter"
             id="path3350" />
        </g>
        <g
           id="patch_13-7">
          <path
             d="M 414.72,307.584 V 41.472"
             style="fill:none;stroke:#000000;stroke-width:0.8;stroke-linecap:square;stroke-linejoin:miter"
             id="path3353" />
        </g>
        <g
           id="patch_14-5">
          <path
             d="M 57.6,307.584 H 414.72"
             style="fill:none;stroke:#000000;stroke-width:0.8;stroke-linecap:square;stroke-linejoin:miter"
             id="path3356" />
        </g>
        <g
           id="patch_15-4">
          <path
             d="M 57.6,41.472 H 414.72"
             style="fill:none;stroke:#000000;stroke-width:0.8;stroke-linecap:square;stroke-linejoin:miter"
             id="path3359" />
        </g>
        <g
           id="text_12-1">
          <!-- $C$ across conditions -->
          <g
             transform="matrix(0.12,0,0,-0.12,177.9,35.472)"
             id="g3407">
            <defs
               id="defs3367">
              <path
                 id="path3790"
                 d="m 4447,4306 -128,-665 q -300,303 -636,450 -336,147 -727,147 -534,0 -939,-257 -404,-256 -698,-781 -188,-337 -287,-714 -98,-377 -98,-758 0,-637 330,-972 330,-334 958,-334 434,0 834,139 400,139 778,417 L 3688,231 Q 3316,72 2936,-9 2556,-91 2175,-91 1278,-91 773,396 269,884 269,1753 q 0,556 192,1093 192,538 552,982 381,472 870,697 489,225 1139,225 400,0 758,-111 358,-111 667,-333 z"
                 transform="scale(0.015625)" />
              <path
                 id="path3792"
                 transform="scale(0.015625)"
                 d="" />
              <path
                 id="path3794"
                 d="m 2194,1759 q -697,0 -966,-159 -269,-159 -269,-544 0,-306 202,-486 202,-179 548,-179 479,0 768,339 289,339 289,901 v 128 z m 1147,238 V 0 H 2766 V 531 Q 2569,213 2275,61 1981,-91 1556,-91 q -537,0 -855,302 -317,302 -317,808 0,590 395,890 396,300 1180,300 h 807 v 57 q 0,397 -261,614 -261,217 -733,217 -300,0 -585,-72 -284,-72 -546,-216 v 532 q 315,122 612,182 297,61 578,61 760,0 1135,-394 375,-393 375,-1193 z"
                 transform="scale(0.015625)" />
              <path
                 id="path3796"
                 d="m 3122,3366 v -538 q -244,135 -489,202 -245,67 -495,67 -560,0 -870,-355 -309,-354 -309,-995 0,-641 309,-996 310,-354 870,-354 250,0 495,67 245,67 489,202 V 134 Q 2881,22 2623,-34 2366,-91 2075,-91 1284,-91 818,406 353,903 353,1747 q 0,856 470,1346 471,491 1290,491 265,0 518,-55 253,-54 491,-163 z"
                 transform="scale(0.015625)" />
              <path
                 id="path3798"
                 d="m 2631,2963 q -97,56 -211,82 -114,27 -251,27 -488,0 -749,-317 -261,-317 -261,-911 V 0 H 581 v 3500 h 578 v -544 q 182,319 472,473 291,155 707,155 59,0 131,-8 72,-7 159,-23 z"
                 transform="scale(0.015625)" />
            </defs>
            <use
               xlink:href="#DejaVuSans-Oblique-43-2"
               transform="translate(0,0.015625)"
               id="use3369"
               x="0"
               y="0"
               width="100%"
               height="100%" />
            <use
               xlink:href="#DejaVuSans-20-5"
               transform="translate(69.824219,0.015625)"
               id="use3371"
               x="0"
               y="0"
               width="100%"
               height="100%" />
            <use
               xlink:href="#DejaVuSans-61"
               transform="translate(101.61133,0.015625)"
               id="use3373"
               x="0"
               y="0"
               width="100%"
               height="100%" />
            <use
               xlink:href="#DejaVuSans-63-4"
               transform="translate(162.89062,0.015625)"
               id="use3375"
               x="0"
               y="0"
               width="100%"
               height="100%" />
            <use
               xlink:href="#DejaVuSans-72-0"
               transform="translate(217.87109,0.015625)"
               id="use3377"
               x="0"
               y="0"
               width="100%"
               height="100%" />
            <use
               xlink:href="#DejaVuSans-6f-6"
               transform="translate(258.98437,0.015625)"
               id="use3379"
               x="0"
               y="0"
               width="100%"
               height="100%" />
            <use
               xlink:href="#DejaVuSans-73-7"
               transform="translate(320.16602,0.015625)"
               id="use3381"
               x="0"
               y="0"
               width="100%"
               height="100%" />
            <use
               xlink:href="#DejaVuSans-73-7"
               transform="translate(372.26562,0.015625)"
               id="use3383"
               x="0"
               y="0"
               width="100%"
               height="100%" />
            <use
               xlink:href="#DejaVuSans-20-5"
               transform="translate(424.36523,0.015625)"
               id="use3385"
               x="0"
               y="0"
               width="100%"
               height="100%" />
            <use
               xlink:href="#DejaVuSans-63-4"
               transform="translate(456.15234,0.015625)"
               id="use3387"
               x="0"
               y="0"
               width="100%"
               height="100%" />
            <use
               xlink:href="#DejaVuSans-6f-6"
               transform="translate(511.13281,0.015625)"
               id="use3389"
               x="0"
               y="0"
               width="100%"
               height="100%" />
            <use
               xlink:href="#DejaVuSans-6e-7"
               transform="translate(572.31445,0.015625)"
               id="use3391"
               x="0"
               y="0"
               width="100%"
               height="100%" />
            <use
               xlink:href="#DejaVuSans-64-1"
               transform="translate(635.69336,0.015625)"
               id="use3393"
               x="0"
               y="0"
               width="100%"
               height="100%" />
            <use
               xlink:href="#DejaVuSans-69-5"
               transform="translate(699.16992,0.015625)"
               id="use3395"
               x="0"
               y="0"
               width="100%"
               height="100%" />
            <use
               xlink:href="#DejaVuSans-74-5"
               transform="translate(726.95312,0.015625)"
               id="use3397"
               x="0"
               y="0"
               width="100%"
               height="100%" />
            <use
               xlink:href="#DejaVuSans-69-5"
               transform="translate(766.16211,0.015625)"
               id="use3399"
               x="0"
               y="0"
               width="100%"
               height="100%" />
            <use
               xlink:href="#DejaVuSans-6f-6"
               transform="translate(793.94531,0.015625)"
               id="use3401"
               x="0"
               y="0"
               width="100%"
               height="100%" />
            <use
               xlink:href="#DejaVuSans-6e-7"
               transform="translate(855.12695,0.015625)"
               id="use3403"
               x="0"
               y="0"
               width="100%"
               height="100%" />
            <use
               xlink:href="#DejaVuSans-73-7"
               transform="translate(918.50586,0.015625)"
               id="use3405"
               x="0"
               y="0"
               width="100%"
               height="100%" />
          </g>
        </g>
        <g
           id="legend_1-9">
          <g
             id="patch_16">
            <path
               d="m 182.74906,93.506375 h 106.82188 q 2,0 2,-2 V 48.472 q 0,-2 -2,-2 H 182.74906 q -2,0 -2,2 v 43.034375 q 0,2 2,2 z"
               style="opacity:0.8;fill:#ffffff;stroke:#cccccc;stroke-linejoin:miter"
               id="path3410" />
          </g>
          <g
             id="patch_17">
            <path
               d="m 184.74906,58.070438 h 20 v -7 h -20 z"
               style="opacity:0.2;fill:#228b22"
               id="path3413" />
          </g>
          <g
             id="text_13-3">
            <!-- hostile-to-coop -->
            <g
               transform="matrix(0.1,0,0,-0.1,212.74906,58.070438)"
               id="g3451">
              <defs
                 id="defs3419">
                <path
                   id="path3826"
                   d="M 3513,2113 V 0 h -575 v 2094 q 0,497 -194,743 -194,247 -581,247 -466,0 -735,-297 -269,-296 -269,-809 V 0 H 581 v 4863 h 578 V 2956 q 207,316 486,472 280,156 646,156 603,0 912,-373 310,-373 310,-1098 z"
                   transform="scale(0.015625)" />
                <path
                   id="path3828"
                   d="M 313,2009 H 1997 V 1497 H 313 Z"
                   transform="scale(0.015625)" />
                <path
                   id="path3830"
                   d="M 1159,525 V -1331 H 581 v 4831 h 578 v -531 q 182,312 458,463 277,152 661,152 638,0 1036,-506 399,-506 399,-1331 0,-825 -399,-1332 -398,-506 -1036,-506 -384,0 -661,152 -276,152 -458,464 z m 1957,1222 q 0,634 -261,995 -261,361 -717,361 -457,0 -718,-361 -261,-361 -261,-995 0,-634 261,-995 261,-361 718,-361 456,0 717,361 261,361 261,995 z"
                   transform="scale(0.015625)" />
              </defs>
              <use
                 xlink:href="#DejaVuSans-68-1"
                 id="use3421"
                 x="0"
                 y="0"
                 width="100%"
                 height="100%" />
              <use
                 xlink:href="#DejaVuSans-6f-6"
                 x="63.378906"
                 id="use3423"
                 y="0"
                 width="100%"
                 height="100%" />
              <use
                 xlink:href="#DejaVuSans-73-7"
                 x="124.56055"
                 id="use3425"
                 y="0"
                 width="100%"
                 height="100%" />
              <use
                 xlink:href="#DejaVuSans-74-5"
                 x="176.66016"
                 id="use3427"
                 y="0"
                 width="100%"
                 height="100%" />
              <use
                 xlink:href="#DejaVuSans-69-5"
                 x="215.86914"
                 id="use3429"
                 y="0"
                 width="100%"
                 height="100%" />
              <use
                 xlink:href="#DejaVuSans-6c-6"
                 x="243.65234"
                 id="use3431"
                 y="0"
                 width="100%"
                 height="100%" />
              <use
                 xlink:href="#DejaVuSans-65-2"
                 x="271.43555"
                 id="use3433"
                 y="0"
                 width="100%"
                 height="100%" />
              <use
                 xlink:href="#DejaVuSans-2d"
                 x="332.95898"
                 id="use3435"
                 y="0"
                 width="100%"
                 height="100%" />
              <use
                 xlink:href="#DejaVuSans-74-5"
                 x="369.04297"
                 id="use3437"
                 y="0"
                 width="100%"
                 height="100%" />
              <use
                 xlink:href="#DejaVuSans-6f-6"
                 x="408.25195"
                 id="use3439"
                 y="0"
                 width="100%"
                 height="100%" />
              <use
                 xlink:href="#DejaVuSans-2d"
                 x="471.30859"
                 id="use3441"
                 y="0"
                 width="100%"
                 height="100%" />
              <use
                 xlink:href="#DejaVuSans-63-4"
                 x="507.39258"
                 id="use3443"
                 y="0"
                 width="100%"
                 height="100%" />
              <use
                 xlink:href="#DejaVuSans-6f-6"
                 x="562.37305"
                 id="use3445"
                 y="0"
                 width="100%"
                 height="100%" />
              <use
                 xlink:href="#DejaVuSans-6f-6"
                 x="623.55469"
                 id="use3447"
                 y="0"
                 width="100%"
                 height="100%" />
              <use
                 xlink:href="#DejaVuSans-70"
                 x="684.73633"
                 id="use3449"
                 y="0"
                 width="100%"
                 height="100%" />
            </g>
          </g>
          <g
             id="patch_18">
            <path
               d="m 184.74906,72.748563 h 20 v -7 h -20 z"
               style="opacity:0.6;fill:url(#hf35ce0aac2)"
               id="path3454" />
          </g>
          <g
             id="text_14">
            <!-- coop-to-hostile -->
            <g
               transform="matrix(0.1,0,0,-0.1,212.74906,72.748563)"
               id="g3487">
              <use
                 xlink:href="#DejaVuSans-63-4"
                 id="use3457"
                 x="0"
                 y="0"
                 width="100%"
                 height="100%" />
              <use
                 xlink:href="#DejaVuSans-6f-6"
                 x="54.980469"
                 id="use3459"
                 y="0"
                 width="100%"
                 height="100%" />
              <use
                 xlink:href="#DejaVuSans-6f-6"
                 x="116.16211"
                 id="use3461"
                 y="0"
                 width="100%"
                 height="100%" />
              <use
                 xlink:href="#DejaVuSans-70"
                 x="177.34375"
                 id="use3463"
                 y="0"
                 width="100%"
                 height="100%" />
              <use
                 xlink:href="#DejaVuSans-2d"
                 x="240.82031"
                 id="use3465"
                 y="0"
                 width="100%"
                 height="100%" />
              <use
                 xlink:href="#DejaVuSans-74-5"
                 x="276.9043"
                 id="use3467"
                 y="0"
                 width="100%"
                 height="100%" />
              <use
                 xlink:href="#DejaVuSans-6f-6"
                 x="316.11328"
                 id="use3469"
                 y="0"
                 width="100%"
                 height="100%" />
              <use
                 xlink:href="#DejaVuSans-2d"
                 x="379.16992"
                 id="use3471"
                 y="0"
                 width="100%"
                 height="100%" />
              <use
                 xlink:href="#DejaVuSans-68-1"
                 x="415.25391"
                 id="use3473"
                 y="0"
                 width="100%"
                 height="100%" />
              <use
                 xlink:href="#DejaVuSans-6f-6"
                 x="478.63281"
                 id="use3475"
                 y="0"
                 width="100%"
                 height="100%" />
              <use
                 xlink:href="#DejaVuSans-73-7"
                 x="539.81445"
                 id="use3477"
                 y="0"
                 width="100%"
                 height="100%" />
              <use
                 xlink:href="#DejaVuSans-74-5"
                 x="591.91406"
                 id="use3479"
                 y="0"
                 width="100%"
                 height="100%" />
              <use
                 xlink:href="#DejaVuSans-69-5"
                 x="631.12305"
                 id="use3481"
                 y="0"
                 width="100%"
                 height="100%" />
              <use
                 xlink:href="#DejaVuSans-6c-6"
                 x="658.90625"
                 id="use3483"
                 y="0"
                 width="100%"
                 height="100%" />
              <use
                 xlink:href="#DejaVuSans-65-2"
                 x="686.68945"
                 id="use3485"
                 y="0"
                 width="100%"
                 height="100%" />
            </g>
          </g>
          <g
             id="patch_19">
            <path
               d="m 184.74906,87.426688 h 20 v -7 h -20 z"
               style="fill:#228b22"
               id="path3490" />
          </g>
          <g
             id="text_15">
            <!-- ambiguous -->
            <g
               transform="matrix(0.1,0,0,-0.1,212.74906,87.426688)"
               id="g3514">
              <defs
                 id="defs3494">
                <path
                   id="path3871"
                   d="m 3328,2828 q 216,388 516,572 300,184 706,184 547,0 844,-383 297,-382 297,-1088 V 0 h -578 v 2094 q 0,503 -179,746 -178,244 -543,244 -447,0 -707,-297 -259,-296 -259,-809 V 0 h -578 v 2094 q 0,506 -178,748 -178,242 -550,242 -441,0 -701,-298 -259,-298 -259,-808 V 0 H 581 v 3500 h 578 v -544 q 197,322 472,475 275,153 653,153 382,0 649,-194 267,-193 395,-562 z"
                   transform="scale(0.015625)" />
              </defs>
              <use
                 xlink:href="#DejaVuSans-61"
                 id="use3496"
                 x="0"
                 y="0"
                 width="100%"
                 height="100%" />
              <use
                 xlink:href="#DejaVuSans-6d"
                 x="61.279297"
                 id="use3498"
                 y="0"
                 width="100%"
                 height="100%" />
              <use
                 xlink:href="#DejaVuSans-62-5"
                 x="158.69141"
                 id="use3500"
                 y="0"
                 width="100%"
                 height="100%" />
              <use
                 xlink:href="#DejaVuSans-69-5"
                 x="222.16797"
                 id="use3502"
                 y="0"
                 width="100%"
                 height="100%" />
              <use
                 xlink:href="#DejaVuSans-67-7"
                 x="249.95117"
                 id="use3504"
                 y="0"
                 width="100%"
                 height="100%" />
              <use
                 xlink:href="#DejaVuSans-75-0"
                 x="313.42773"
                 id="use3506"
                 y="0"
                 width="100%"
                 height="100%" />
              <use
                 xlink:href="#DejaVuSans-6f-6"
                 x="376.80664"
                 id="use3508"
                 y="0"
                 width="100%"
                 height="100%" />
              <use
                 xlink:href="#DejaVuSans-75-0"
                 x="437.98828"
                 id="use3510"
                 y="0"
                 width="100%"
                 height="100%" />
              <use
                 xlink:href="#DejaVuSans-73-7"
                 x="501.36719"
                 id="use3512"
                 y="0"
                 width="100%"
                 height="100%" />
            </g>
          </g>
        </g>
      </g>
    </g>
    <text
       xml:space="preserve"
       style="font-size:7.76111px;line-height:1.25;font-family:sans-serif;stroke-width:0.264583"
       x="167.75685"
       y="16.109095"
       id="text5566"><tspan
         sodipodi:role="line"
         id="tspan5564"
         style="font-size:7.76111px;stroke-width:0.264583"
         x="167.75685"
         y="16.109095">B</tspan></text>
    <text
       xml:space="preserve"
       style="font-size:7.76111px;line-height:1.25;font-family:sans-serif;stroke-width:0.264583"
       x="4.4438901"
       y="16.109095"
       id="text9213"><tspan
         sodipodi:role="line"
         id="tspan9211"
         style="font-size:7.76111px;stroke-width:0.264583"
         x="4.4438901"
         y="16.109095">A</tspan></text>
  </g>
</svg>
