<?xml version="1.0" encoding="utf-8" standalone="no"?>
<!DOCTYPE svg PUBLIC "-//W3C//DTD SVG 1.1//EN"
  "http://www.w3.org/Graphics/SVG/1.1/DTD/svg11.dtd">
<svg xmlns:xlink="http://www.w3.org/1999/xlink" width="720pt" height="288pt" viewBox="0 0 720 288" xmlns="http://www.w3.org/2000/svg" version="1.1">
 <metadata>
  <rdf:RDF xmlns:dc="http://purl.org/dc/elements/1.1/" xmlns:cc="http://creativecommons.org/ns#" xmlns:rdf="http://www.w3.org/1999/02/22-rdf-syntax-ns#">
   <cc:Work>
    <dc:type rdf:resource="http://purl.org/dc/dcmitype/StillImage"/>
    <dc:date>2024-07-10T16:59:08.058484</dc:date>
    <dc:format>image/svg+xml</dc:format>
    <dc:creator>
     <cc:Agent>
      <dc:title>Matplotlib v3.7.2, https://matplotlib.org/</dc:title>
     </cc:Agent>
    </dc:creator>
   </cc:Work>
  </rdf:RDF>
 </metadata>
 <defs>
  <style type="text/css">*{stroke-linejoin: round; stroke-linecap: butt}</style>
 </defs>
 <g id="figure_1">
  <g id="patch_1">
   <path d="M 0 288 
L 720 288 
L 720 0 
L 0 0 
z
" style="fill: #ffffff"/>
  </g>
  <g id="axes_1">
   <g id="patch_2">
    <path d="M 90 256.32 
L 254.117647 256.32 
L 254.117647 34.56 
L 90 34.56 
z
" style="fill: #ffffff"/>
   </g>
   <g id="PolyCollection_1">
    <defs>
     <path id="mc769b3a897" d="M 177.852137 -117.469419 
L 166.26551 -117.469419 
L 164.962043 -118.342057 
L 163.442345 -119.214696 
L 161.689848 -120.087334 
L 159.69129 -120.959972 
L 157.437896 -121.83261 
L 154.926563 -122.705248 
L 152.161 -123.577887 
L 149.15275 -124.450525 
L 145.921995 -125.323163 
L 142.498101 -126.195801 
L 138.919797 -127.068439 
L 135.234951 -127.941077 
L 131.499898 -128.813716 
L 127.778295 -129.686354 
L 124.139529 -130.558992 
L 120.656707 -131.43163 
L 117.404311 -132.304268 
L 114.455602 -133.176907 
L 111.879917 -134.049545 
L 109.739976 -134.922183 
L 108.089356 -135.794821 
L 106.970267 -136.667459 
L 106.411765 -137.540098 
L 106.4285 -138.412736 
L 107.020079 -139.285374 
L 108.171081 -140.158012 
L 109.851722 -141.03065 
L 112.019132 -141.903289 
L 114.619169 -142.775927 
L 117.588657 -143.648565 
L 120.857926 -144.521203 
L 124.35351 -145.393841 
L 128.000851 -146.266479 
L 131.726885 -147.139118 
L 135.462379 -148.011756 
L 139.143914 -148.884394 
L 142.715464 -149.757032 
L 146.129505 -150.62967 
L 149.347661 -151.502309 
L 152.340896 -152.374947 
L 155.089301 -153.247585 
L 157.581522 -154.120223 
L 159.813914 -154.992861 
L 161.789498 -155.8655 
L 163.516791 -156.738138 
L 165.008593 -157.610776 
L 166.280791 -158.483414 
L 167.351235 -159.356052 
L 168.238734 -160.22869 
L 168.962189 -161.101329 
L 169.539895 -161.973967 
L 169.989 -162.846605 
L 170.325137 -163.719243 
L 170.562199 -164.591881 
L 170.712254 -165.46452 
L 170.785583 -166.337158 
L 170.790807 -167.209796 
L 170.735093 -168.082434 
L 170.624417 -168.955072 
L 170.463855 -169.827711 
L 170.257898 -170.700349 
L 170.010754 -171.572987 
L 169.726641 -172.445625 
L 169.410038 -173.318263 
L 169.065894 -174.190902 
L 168.699777 -175.06354 
L 168.317958 -175.936178 
L 167.927426 -176.808816 
L 167.535826 -177.681454 
L 167.151333 -178.554092 
L 166.78246 -179.426731 
L 166.437812 -180.299369 
L 166.125803 -181.172007 
L 165.854352 -182.044645 
L 165.630574 -182.917283 
L 165.460487 -183.789922 
L 165.348757 -184.66256 
L 165.298495 -185.535198 
L 165.311116 -186.407836 
L 165.38628 -187.280474 
L 165.521908 -188.153113 
L 165.71428 -189.025751 
L 165.958207 -189.898389 
L 166.247262 -190.771027 
L 166.574063 -191.643665 
L 166.930586 -192.516303 
L 167.308489 -193.388942 
L 167.699432 -194.26158 
L 168.095375 -195.134218 
L 168.488841 -196.006856 
L 168.873125 -196.879494 
L 169.24246 -197.752133 
L 169.592111 -198.624771 
L 169.918429 -199.497409 
L 170.218837 -200.370047 
L 170.491779 -201.242685 
L 170.736635 -202.115324 
L 170.953598 -202.987962 
L 171.143543 -203.8606 
L 172.974104 -203.8606 
L 172.974104 -203.8606 
L 173.16405 -202.987962 
L 173.381012 -202.115324 
L 173.625868 -201.242685 
L 173.898811 -200.370047 
L 174.199218 -199.497409 
L 174.525536 -198.624771 
L 174.875188 -197.752133 
L 175.244522 -196.879494 
L 175.628806 -196.006856 
L 176.022272 -195.134218 
L 176.418215 -194.26158 
L 176.809158 -193.388942 
L 177.187061 -192.516303 
L 177.543584 -191.643665 
L 177.870385 -190.771027 
L 178.15944 -189.898389 
L 178.403367 -189.025751 
L 178.595739 -188.153113 
L 178.731367 -187.280474 
L 178.806531 -186.407836 
L 178.819152 -185.535198 
L 178.76889 -184.66256 
L 178.65716 -183.789922 
L 178.487073 -182.917283 
L 178.263295 -182.044645 
L 177.991844 -181.172007 
L 177.679835 -180.299369 
L 177.335187 -179.426731 
L 176.966314 -178.554092 
L 176.581821 -177.681454 
L 176.190221 -176.808816 
L 175.799689 -175.936178 
L 175.417871 -175.06354 
L 175.051753 -174.190902 
L 174.707609 -173.318263 
L 174.391006 -172.445625 
L 174.106893 -171.572987 
L 173.859749 -170.700349 
L 173.653792 -169.827711 
L 173.49323 -168.955072 
L 173.382554 -168.082434 
L 173.32684 -167.209796 
L 173.332064 -166.337158 
L 173.405393 -165.46452 
L 173.555448 -164.591881 
L 173.79251 -163.719243 
L 174.128647 -162.846605 
L 174.577752 -161.973967 
L 175.155458 -161.101329 
L 175.878913 -160.22869 
L 176.766412 -159.356052 
L 177.836856 -158.483414 
L 179.109054 -157.610776 
L 180.600856 -156.738138 
L 182.328149 -155.8655 
L 184.303733 -154.992861 
L 186.536125 -154.120223 
L 189.028346 -153.247585 
L 191.776751 -152.374947 
L 194.769986 -151.502309 
L 197.988142 -150.62967 
L 201.402183 -149.757032 
L 204.973733 -148.884394 
L 208.655268 -148.011756 
L 212.390762 -147.139118 
L 216.116796 -146.266479 
L 219.764137 -145.393841 
L 223.259721 -144.521203 
L 226.52899 -143.648565 
L 229.498478 -142.775927 
L 232.098515 -141.903289 
L 234.265925 -141.03065 
L 235.946566 -140.158012 
L 237.097568 -139.285374 
L 237.689147 -138.412736 
L 237.705882 -137.540098 
L 237.14738 -136.667459 
L 236.028291 -135.794821 
L 234.377671 -134.922183 
L 232.23773 -134.049545 
L 229.662045 -133.176907 
L 226.713336 -132.304268 
L 223.46094 -131.43163 
L 219.978118 -130.558992 
L 216.339352 -129.686354 
L 212.617749 -128.813716 
L 208.882696 -127.941077 
L 205.19785 -127.068439 
L 201.619546 -126.195801 
L 198.195652 -125.323163 
L 194.964898 -124.450525 
L 191.956647 -123.577887 
L 189.191084 -122.705248 
L 186.679751 -121.83261 
L 184.426357 -120.959972 
L 182.427799 -120.087334 
L 180.675302 -119.214696 
L 179.155604 -118.342057 
L 177.852137 -117.469419 
z
" style="stroke: #343434; stroke-opacity: 0.5; stroke-width: 1.5"/>
    </defs>
    <g clip-path="url(#pa728d26871)">
     <use xlink:href="#mc769b3a897" x="0" y="288" style="fill: #2f7e2f; fill-opacity: 0.5; stroke: #343434; stroke-opacity: 0.5; stroke-width: 1.5"/>
    </g>
   </g>
   <g id="matplotlib.axis_1">
    <g id="xtick_1">
     <g id="line2d_1">
      <defs>
       <path id="m3f37254db3" d="M 0 0 
L 0 3.5 
" style="stroke: #000000; stroke-width: 0.8"/>
      </defs>
      <g>
       <use xlink:href="#m3f37254db3" x="172.058824" y="256.32" style="stroke: #000000; stroke-width: 0.8"/>
      </g>
     </g>
     <g id="text_1">
      <!-- 0 -->
      <g transform="translate(168.877574 270.918437) scale(0.1 -0.1)">
       <defs>
        <path id="DejaVuSans-30" d="M 2034 4250 
Q 1547 4250 1301 3770 
Q 1056 3291 1056 2328 
Q 1056 1369 1301 889 
Q 1547 409 2034 409 
Q 2525 409 2770 889 
Q 3016 1369 3016 2328 
Q 3016 3291 2770 3770 
Q 2525 4250 2034 4250 
z
M 2034 4750 
Q 2819 4750 3233 4129 
Q 3647 3509 3647 2328 
Q 3647 1150 3233 529 
Q 2819 -91 2034 -91 
Q 1250 -91 836 529 
Q 422 1150 422 2328 
Q 422 3509 836 4129 
Q 1250 4750 2034 4750 
z
" transform="scale(0.015625)"/>
       </defs>
       <use xlink:href="#DejaVuSans-30"/>
      </g>
     </g>
    </g>
   </g>
   <g id="matplotlib.axis_2">
    <g id="ytick_1">
     <g id="line2d_2">
      <defs>
       <path id="m372a460226" d="M 0 0 
L -3.5 0 
" style="stroke: #000000; stroke-width: 0.8"/>
      </defs>
      <g>
       <use xlink:href="#m372a460226" x="90" y="256.32" style="stroke: #000000; stroke-width: 0.8"/>
      </g>
     </g>
     <g id="text_2">
      <!-- 0.0 -->
      <g transform="translate(67.096875 260.119219) scale(0.1 -0.1)">
       <defs>
        <path id="DejaVuSans-2e" d="M 684 794 
L 1344 794 
L 1344 0 
L 684 0 
L 684 794 
z
" transform="scale(0.015625)"/>
       </defs>
       <use xlink:href="#DejaVuSans-30"/>
       <use xlink:href="#DejaVuSans-2e" x="63.623047"/>
       <use xlink:href="#DejaVuSans-30" x="95.410156"/>
      </g>
     </g>
    </g>
    <g id="ytick_2">
     <g id="line2d_3">
      <g>
       <use xlink:href="#m372a460226" x="90" y="211.968" style="stroke: #000000; stroke-width: 0.8"/>
      </g>
     </g>
     <g id="text_3">
      <!-- 0.2 -->
      <g transform="translate(67.096875 215.767219) scale(0.1 -0.1)">
       <defs>
        <path id="DejaVuSans-32" d="M 1228 531 
L 3431 531 
L 3431 0 
L 469 0 
L 469 531 
Q 828 903 1448 1529 
Q 2069 2156 2228 2338 
Q 2531 2678 2651 2914 
Q 2772 3150 2772 3378 
Q 2772 3750 2511 3984 
Q 2250 4219 1831 4219 
Q 1534 4219 1204 4116 
Q 875 4013 500 3803 
L 500 4441 
Q 881 4594 1212 4672 
Q 1544 4750 1819 4750 
Q 2544 4750 2975 4387 
Q 3406 4025 3406 3419 
Q 3406 3131 3298 2873 
Q 3191 2616 2906 2266 
Q 2828 2175 2409 1742 
Q 1991 1309 1228 531 
z
" transform="scale(0.015625)"/>
       </defs>
       <use xlink:href="#DejaVuSans-30"/>
       <use xlink:href="#DejaVuSans-2e" x="63.623047"/>
       <use xlink:href="#DejaVuSans-32" x="95.410156"/>
      </g>
     </g>
    </g>
    <g id="ytick_3">
     <g id="line2d_4">
      <g>
       <use xlink:href="#m372a460226" x="90" y="167.616" style="stroke: #000000; stroke-width: 0.8"/>
      </g>
     </g>
     <g id="text_4">
      <!-- 0.4 -->
      <g transform="translate(67.096875 171.415219) scale(0.1 -0.1)">
       <defs>
        <path id="DejaVuSans-34" d="M 2419 4116 
L 825 1625 
L 2419 1625 
L 2419 4116 
z
M 2253 4666 
L 3047 4666 
L 3047 1625 
L 3713 1625 
L 3713 1100 
L 3047 1100 
L 3047 0 
L 2419 0 
L 2419 1100 
L 313 1100 
L 313 1709 
L 2253 4666 
z
" transform="scale(0.015625)"/>
       </defs>
       <use xlink:href="#DejaVuSans-30"/>
       <use xlink:href="#DejaVuSans-2e" x="63.623047"/>
       <use xlink:href="#DejaVuSans-34" x="95.410156"/>
      </g>
     </g>
    </g>
    <g id="ytick_4">
     <g id="line2d_5">
      <g>
       <use xlink:href="#m372a460226" x="90" y="123.264" style="stroke: #000000; stroke-width: 0.8"/>
      </g>
     </g>
     <g id="text_5">
      <!-- 0.6 -->
      <g transform="translate(67.096875 127.063219) scale(0.1 -0.1)">
       <defs>
        <path id="DejaVuSans-36" d="M 2113 2584 
Q 1688 2584 1439 2293 
Q 1191 2003 1191 1497 
Q 1191 994 1439 701 
Q 1688 409 2113 409 
Q 2538 409 2786 701 
Q 3034 994 3034 1497 
Q 3034 2003 2786 2293 
Q 2538 2584 2113 2584 
z
M 3366 4563 
L 3366 3988 
Q 3128 4100 2886 4159 
Q 2644 4219 2406 4219 
Q 1781 4219 1451 3797 
Q 1122 3375 1075 2522 
Q 1259 2794 1537 2939 
Q 1816 3084 2150 3084 
Q 2853 3084 3261 2657 
Q 3669 2231 3669 1497 
Q 3669 778 3244 343 
Q 2819 -91 2113 -91 
Q 1303 -91 875 529 
Q 447 1150 447 2328 
Q 447 3434 972 4092 
Q 1497 4750 2381 4750 
Q 2619 4750 2861 4703 
Q 3103 4656 3366 4563 
z
" transform="scale(0.015625)"/>
       </defs>
       <use xlink:href="#DejaVuSans-30"/>
       <use xlink:href="#DejaVuSans-2e" x="63.623047"/>
       <use xlink:href="#DejaVuSans-36" x="95.410156"/>
      </g>
     </g>
    </g>
    <g id="ytick_5">
     <g id="line2d_6">
      <g>
       <use xlink:href="#m372a460226" x="90" y="78.912" style="stroke: #000000; stroke-width: 0.8"/>
      </g>
     </g>
     <g id="text_6">
      <!-- 0.8 -->
      <g transform="translate(67.096875 82.711219) scale(0.1 -0.1)">
       <defs>
        <path id="DejaVuSans-38" d="M 2034 2216 
Q 1584 2216 1326 1975 
Q 1069 1734 1069 1313 
Q 1069 891 1326 650 
Q 1584 409 2034 409 
Q 2484 409 2743 651 
Q 3003 894 3003 1313 
Q 3003 1734 2745 1975 
Q 2488 2216 2034 2216 
z
M 1403 2484 
Q 997 2584 770 2862 
Q 544 3141 544 3541 
Q 544 4100 942 4425 
Q 1341 4750 2034 4750 
Q 2731 4750 3128 4425 
Q 3525 4100 3525 3541 
Q 3525 3141 3298 2862 
Q 3072 2584 2669 2484 
Q 3125 2378 3379 2068 
Q 3634 1759 3634 1313 
Q 3634 634 3220 271 
Q 2806 -91 2034 -91 
Q 1263 -91 848 271 
Q 434 634 434 1313 
Q 434 1759 690 2068 
Q 947 2378 1403 2484 
z
M 1172 3481 
Q 1172 3119 1398 2916 
Q 1625 2713 2034 2713 
Q 2441 2713 2670 2916 
Q 2900 3119 2900 3481 
Q 2900 3844 2670 4047 
Q 2441 4250 2034 4250 
Q 1625 4250 1398 4047 
Q 1172 3844 1172 3481 
z
" transform="scale(0.015625)"/>
       </defs>
       <use xlink:href="#DejaVuSans-30"/>
       <use xlink:href="#DejaVuSans-2e" x="63.623047"/>
       <use xlink:href="#DejaVuSans-38" x="95.410156"/>
      </g>
     </g>
    </g>
    <g id="ytick_6">
     <g id="line2d_7">
      <g>
       <use xlink:href="#m372a460226" x="90" y="34.56" style="stroke: #000000; stroke-width: 0.8"/>
      </g>
     </g>
     <g id="text_7">
      <!-- 1.0 -->
      <g transform="translate(67.096875 38.359219) scale(0.1 -0.1)">
       <defs>
        <path id="DejaVuSans-31" d="M 794 531 
L 1825 531 
L 1825 4091 
L 703 3866 
L 703 4441 
L 1819 4666 
L 2450 4666 
L 2450 531 
L 3481 531 
L 3481 0 
L 794 0 
L 794 531 
z
" transform="scale(0.015625)"/>
       </defs>
       <use xlink:href="#DejaVuSans-31"/>
       <use xlink:href="#DejaVuSans-2e" x="63.623047"/>
       <use xlink:href="#DejaVuSans-30" x="95.410156"/>
      </g>
     </g>
    </g>
    <g id="text_8">
     <!-- $p$ -->
     <g transform="translate(60.996875 148.64) rotate(-90) scale(0.1 -0.1)">
      <defs>
       <path id="DejaVuSans-Oblique-70" d="M 3175 2156 
Q 3175 2616 2975 2859 
Q 2775 3103 2400 3103 
Q 2144 3103 1911 2972 
Q 1678 2841 1497 2591 
Q 1319 2344 1212 1994 
Q 1106 1644 1106 1300 
Q 1106 863 1306 627 
Q 1506 391 1875 391 
Q 2147 391 2380 519 
Q 2613 647 2778 891 
Q 2956 1147 3065 1494 
Q 3175 1841 3175 2156 
z
M 1394 2969 
Q 1625 3272 1939 3428 
Q 2253 3584 2638 3584 
Q 3175 3584 3472 3232 
Q 3769 2881 3769 2247 
Q 3769 1728 3584 1258 
Q 3400 788 3053 416 
Q 2822 169 2531 39 
Q 2241 -91 1919 -91 
Q 1547 -91 1294 64 
Q 1041 219 916 525 
L 556 -1331 
L -19 -1331 
L 922 3500 
L 1497 3500 
L 1394 2969 
z
" transform="scale(0.015625)"/>
      </defs>
      <use xlink:href="#DejaVuSans-Oblique-70"/>
     </g>
    </g>
   </g>
   <g id="line2d_8">
    <path d="M 172.058824 152.467456 
L 172.058824 147.275025 
" clip-path="url(#pa728d26871)" style="fill: none; stroke: #343434; stroke-width: 1.5; stroke-linecap: square"/>
   </g>
   <g id="line2d_9">
    <path d="M 172.058824 152.467456 
L 172.058824 147.929413 
" clip-path="url(#pa728d26871)" style="fill: none; stroke: #343434; stroke-width: 4.5; stroke-linecap: square"/>
   </g>
   <g id="patch_3">
    <path d="M 90 256.32 
L 90 34.56 
" style="fill: none; stroke: #000000; stroke-width: 0.8; stroke-linejoin: miter; stroke-linecap: square"/>
   </g>
   <g id="patch_4">
    <path d="M 254.117647 256.32 
L 254.117647 34.56 
" style="fill: none; stroke: #000000; stroke-width: 0.8; stroke-linejoin: miter; stroke-linecap: square"/>
   </g>
   <g id="patch_5">
    <path d="M 90 256.32 
L 254.117647 256.32 
" style="fill: none; stroke: #000000; stroke-width: 0.8; stroke-linejoin: miter; stroke-linecap: square"/>
   </g>
   <g id="patch_6">
    <path d="M 90 34.56 
L 254.117647 34.56 
" style="fill: none; stroke: #000000; stroke-width: 0.8; stroke-linejoin: miter; stroke-linecap: square"/>
   </g>
   <g id="PathCollection_1">
    <defs>
     <path id="m1b49303105" d="M 0 1.5 
C 0.397805 1.5 0.77937 1.341951 1.06066 1.06066 
C 1.341951 0.77937 1.5 0.397805 1.5 0 
C 1.5 -0.397805 1.341951 -0.77937 1.06066 -1.06066 
C 0.77937 -1.341951 0.397805 -1.5 0 -1.5 
C -0.397805 -1.5 -0.77937 -1.341951 -1.06066 -1.06066 
C -1.341951 -0.77937 -1.5 -0.397805 -1.5 0 
C -1.5 0.397805 -1.341951 0.77937 -1.06066 1.06066 
C -0.77937 1.341951 -0.397805 1.5 0 1.5 
z
" style="stroke: #343434; stroke-opacity: 0.5"/>
    </defs>
    <g clip-path="url(#pa728d26871)">
     <use xlink:href="#m1b49303105" x="172.058824" y="148.361329" style="fill: #ffffff; fill-opacity: 0.5; stroke: #343434; stroke-opacity: 0.5"/>
    </g>
   </g>
   <g id="text_9">
    <!-- win -->
    <g transform="translate(161.682574 28.56) scale(0.12 -0.12)">
     <defs>
      <path id="DejaVuSans-77" d="M 269 3500 
L 844 3500 
L 1563 769 
L 2278 3500 
L 2956 3500 
L 3675 769 
L 4391 3500 
L 4966 3500 
L 4050 0 
L 3372 0 
L 2619 2869 
L 1863 0 
L 1184 0 
L 269 3500 
z
" transform="scale(0.015625)"/>
      <path id="DejaVuSans-69" d="M 603 3500 
L 1178 3500 
L 1178 0 
L 603 0 
L 603 3500 
z
M 603 4863 
L 1178 4863 
L 1178 4134 
L 603 4134 
L 603 4863 
z
" transform="scale(0.015625)"/>
      <path id="DejaVuSans-6e" d="M 3513 2113 
L 3513 0 
L 2938 0 
L 2938 2094 
Q 2938 2591 2744 2837 
Q 2550 3084 2163 3084 
Q 1697 3084 1428 2787 
Q 1159 2491 1159 1978 
L 1159 0 
L 581 0 
L 581 3500 
L 1159 3500 
L 1159 2956 
Q 1366 3272 1645 3428 
Q 1925 3584 2291 3584 
Q 2894 3584 3203 3211 
Q 3513 2838 3513 2113 
z
" transform="scale(0.015625)"/>
     </defs>
     <use xlink:href="#DejaVuSans-77"/>
     <use xlink:href="#DejaVuSans-69" x="81.787109"/>
     <use xlink:href="#DejaVuSans-6e" x="109.570312"/>
    </g>
   </g>
  </g>
  <g id="axes_2">
   <g id="patch_7">
    <path d="M 286.941176 256.32 
L 451.058824 256.32 
L 451.058824 34.56 
L 286.941176 34.56 
z
" style="fill: #ffffff"/>
   </g>
   <g id="PolyCollection_2">
    <defs>
     <path id="m53053a7c0d" d="M 373.002584 -28.441934 
L 364.997416 -28.441934 
L 364.103272 -28.755103 
L 363.055527 -29.068272 
L 361.839152 -29.381441 
L 360.440247 -29.69461 
L 358.846726 -30.007779 
L 357.049067 -30.320948 
L 355.041084 -30.634116 
L 352.820701 -30.947285 
L 350.390677 -31.260454 
L 347.759234 -31.573623 
L 344.940558 -31.886792 
L 341.955105 -32.199961 
L 338.82968 -32.513129 
L 335.597249 -32.826298 
L 332.296469 -33.139467 
L 328.970902 -33.452636 
L 325.667948 -33.765805 
L 322.437491 -34.078974 
L 319.330319 -34.392142 
L 316.396369 -34.705311 
L 313.682872 -35.01848 
L 311.232482 -35.331649 
L 309.081491 -35.644818 
L 307.258216 -35.957987 
L 305.781654 -36.271155 
L 304.660496 -36.584324 
L 303.892547 -36.897493 
L 303.464626 -37.210662 
L 303.352941 -37.523831 
L 303.523962 -37.837 
L 303.935742 -38.150168 
L 304.539651 -38.463337 
L 305.282424 -38.776506 
L 306.108456 -39.089675 
L 306.962198 -39.402844 
L 307.790586 -39.716013 
L 308.545337 -40.029182 
L 309.185036 -40.34235 
L 309.676907 -40.655519 
L 309.998165 -40.968688 
L 310.136917 -41.281857 
L 310.092548 -41.595026 
L 309.875582 -41.908195 
L 309.507041 -42.221363 
L 309.01732 -42.534532 
L 308.444648 -42.847701 
L 307.83321 -43.16087 
L 307.231015 -43.474039 
L 306.687628 -43.787208 
L 306.251871 -44.100376 
L 305.969594 -44.413545 
L 305.881642 -44.726714 
L 306.022092 -45.039883 
L 306.416862 -45.353052 
L 307.082729 -45.666221 
L 308.026813 -45.979389 
L 309.246533 -46.292558 
L 310.730018 -46.605727 
L 312.456947 -46.918896 
L 314.399747 -47.232065 
L 316.52508 -47.545234 
L 318.795535 -47.858402 
L 321.171406 -48.171571 
L 323.612483 -48.48474 
L 326.07974 -48.797909 
L 328.536843 -49.111078 
L 330.951419 -49.424247 
L 333.29601 -49.737415 
L 335.548709 -50.050584 
L 337.693451 -50.363753 
L 339.71998 -50.676922 
L 341.623521 -50.990091 
L 343.404201 -51.30326 
L 345.066283 -51.616429 
L 346.617271 -51.929597 
L 348.066957 -52.242766 
L 349.426462 -52.555935 
L 350.707352 -52.869104 
L 351.92084 -53.182273 
L 353.077147 -53.495442 
L 354.185009 -53.80861 
L 355.251365 -54.121779 
L 356.28121 -54.434948 
L 357.277597 -54.748117 
L 358.241777 -55.061286 
L 359.173434 -55.374455 
L 360.071001 -55.687623 
L 360.932012 -56.000792 
L 361.753469 -56.313961 
L 362.532188 -56.62713 
L 363.265121 -56.940299 
L 363.949617 -57.253468 
L 364.583627 -57.566636 
L 365.165846 -57.879805 
L 365.695783 -58.192974 
L 366.173785 -58.506143 
L 366.600996 -58.819312 
L 366.979288 -59.132481 
L 367.311151 -59.445649 
L 370.688849 -59.445649 
L 370.688849 -59.445649 
L 371.020712 -59.132481 
L 371.399004 -58.819312 
L 371.826215 -58.506143 
L 372.304217 -58.192974 
L 372.834154 -57.879805 
L 373.416373 -57.566636 
L 374.050383 -57.253468 
L 374.734879 -56.940299 
L 375.467812 -56.62713 
L 376.246531 -56.313961 
L 377.067988 -56.000792 
L 377.928999 -55.687623 
L 378.826566 -55.374455 
L 379.758223 -55.061286 
L 380.722403 -54.748117 
L 381.71879 -54.434948 
L 382.748635 -54.121779 
L 383.814991 -53.80861 
L 384.922853 -53.495442 
L 386.07916 -53.182273 
L 387.292648 -52.869104 
L 388.573538 -52.555935 
L 389.933043 -52.242766 
L 391.382729 -51.929597 
L 392.933717 -51.616429 
L 394.595799 -51.30326 
L 396.376479 -50.990091 
L 398.28002 -50.676922 
L 400.306549 -50.363753 
L 402.451291 -50.050584 
L 404.70399 -49.737415 
L 407.048581 -49.424247 
L 409.463157 -49.111078 
L 411.92026 -48.797909 
L 414.387517 -48.48474 
L 416.828594 -48.171571 
L 419.204465 -47.858402 
L 421.47492 -47.545234 
L 423.600253 -47.232065 
L 425.543053 -46.918896 
L 427.269982 -46.605727 
L 428.753467 -46.292558 
L 429.973187 -45.979389 
L 430.917271 -45.666221 
L 431.583138 -45.353052 
L 431.977908 -45.039883 
L 432.118358 -44.726714 
L 432.030406 -44.413545 
L 431.748129 -44.100376 
L 431.312372 -43.787208 
L 430.768985 -43.474039 
L 430.16679 -43.16087 
L 429.555352 -42.847701 
L 428.98268 -42.534532 
L 428.492959 -42.221363 
L 428.124418 -41.908195 
L 427.907452 -41.595026 
L 427.863083 -41.281857 
L 428.001835 -40.968688 
L 428.323093 -40.655519 
L 428.814964 -40.34235 
L 429.454663 -40.029182 
L 430.209414 -39.716013 
L 431.037802 -39.402844 
L 431.891544 -39.089675 
L 432.717576 -38.776506 
L 433.460349 -38.463337 
L 434.064258 -38.150168 
L 434.476038 -37.837 
L 434.647059 -37.523831 
L 434.535374 -37.210662 
L 434.107453 -36.897493 
L 433.339504 -36.584324 
L 432.218346 -36.271155 
L 430.741784 -35.957987 
L 428.918509 -35.644818 
L 426.767518 -35.331649 
L 424.317128 -35.01848 
L 421.603631 -34.705311 
L 418.669681 -34.392142 
L 415.562509 -34.078974 
L 412.332052 -33.765805 
L 409.029098 -33.452636 
L 405.703531 -33.139467 
L 402.402751 -32.826298 
L 399.17032 -32.513129 
L 396.044895 -32.199961 
L 393.059442 -31.886792 
L 390.240766 -31.573623 
L 387.609323 -31.260454 
L 385.179299 -30.947285 
L 382.958916 -30.634116 
L 380.950933 -30.320948 
L 379.153274 -30.007779 
L 377.559753 -29.69461 
L 376.160848 -29.381441 
L 374.944473 -29.068272 
L 373.896728 -28.755103 
L 373.002584 -28.441934 
z
" style="stroke: #646464; stroke-width: 1.5"/>
    </defs>
    <g clip-path="url(#p10a161d3e8)">
     <use xlink:href="#m53053a7c0d" x="0" y="288" style="fill: #e98966; stroke: #646464; stroke-width: 1.5"/>
    </g>
   </g>
   <g id="matplotlib.axis_3">
    <g id="xtick_2">
     <g id="line2d_10">
      <g>
       <use xlink:href="#m3f37254db3" x="369" y="256.32" style="stroke: #000000; stroke-width: 0.8"/>
      </g>
     </g>
     <g id="text_10">
      <!-- 0 -->
      <g transform="translate(365.81875 270.918437) scale(0.1 -0.1)">
       <use xlink:href="#DejaVuSans-30"/>
      </g>
     </g>
    </g>
   </g>
   <g id="matplotlib.axis_4">
    <g id="ytick_7">
     <g id="line2d_11">
      <g>
       <use xlink:href="#m372a460226" x="286.941176" y="256.32" style="stroke: #000000; stroke-width: 0.8"/>
      </g>
     </g>
     <g id="text_11">
      <!-- 0.0 -->
      <g transform="translate(264.038051 260.119219) scale(0.1 -0.1)">
       <use xlink:href="#DejaVuSans-30"/>
       <use xlink:href="#DejaVuSans-2e" x="63.623047"/>
       <use xlink:href="#DejaVuSans-30" x="95.410156"/>
      </g>
     </g>
    </g>
    <g id="ytick_8">
     <g id="line2d_12">
      <g>
       <use xlink:href="#m372a460226" x="286.941176" y="211.968" style="stroke: #000000; stroke-width: 0.8"/>
      </g>
     </g>
     <g id="text_12">
      <!-- 0.2 -->
      <g transform="translate(264.038051 215.767219) scale(0.1 -0.1)">
       <use xlink:href="#DejaVuSans-30"/>
       <use xlink:href="#DejaVuSans-2e" x="63.623047"/>
       <use xlink:href="#DejaVuSans-32" x="95.410156"/>
      </g>
     </g>
    </g>
    <g id="ytick_9">
     <g id="line2d_13">
      <g>
       <use xlink:href="#m372a460226" x="286.941176" y="167.616" style="stroke: #000000; stroke-width: 0.8"/>
      </g>
     </g>
     <g id="text_13">
      <!-- 0.4 -->
      <g transform="translate(264.038051 171.415219) scale(0.1 -0.1)">
       <use xlink:href="#DejaVuSans-30"/>
       <use xlink:href="#DejaVuSans-2e" x="63.623047"/>
       <use xlink:href="#DejaVuSans-34" x="95.410156"/>
      </g>
     </g>
    </g>
    <g id="ytick_10">
     <g id="line2d_14">
      <g>
       <use xlink:href="#m372a460226" x="286.941176" y="123.264" style="stroke: #000000; stroke-width: 0.8"/>
      </g>
     </g>
     <g id="text_14">
      <!-- 0.6 -->
      <g transform="translate(264.038051 127.063219) scale(0.1 -0.1)">
       <use xlink:href="#DejaVuSans-30"/>
       <use xlink:href="#DejaVuSans-2e" x="63.623047"/>
       <use xlink:href="#DejaVuSans-36" x="95.410156"/>
      </g>
     </g>
    </g>
    <g id="ytick_11">
     <g id="line2d_15">
      <g>
       <use xlink:href="#m372a460226" x="286.941176" y="78.912" style="stroke: #000000; stroke-width: 0.8"/>
      </g>
     </g>
     <g id="text_15">
      <!-- 0.8 -->
      <g transform="translate(264.038051 82.711219) scale(0.1 -0.1)">
       <use xlink:href="#DejaVuSans-30"/>
       <use xlink:href="#DejaVuSans-2e" x="63.623047"/>
       <use xlink:href="#DejaVuSans-38" x="95.410156"/>
      </g>
     </g>
    </g>
    <g id="ytick_12">
     <g id="line2d_16">
      <g>
       <use xlink:href="#m372a460226" x="286.941176" y="34.56" style="stroke: #000000; stroke-width: 0.8"/>
      </g>
     </g>
     <g id="text_16">
      <!-- 1.0 -->
      <g transform="translate(264.038051 38.359219) scale(0.1 -0.1)">
       <use xlink:href="#DejaVuSans-31"/>
       <use xlink:href="#DejaVuSans-2e" x="63.623047"/>
       <use xlink:href="#DejaVuSans-30" x="95.410156"/>
      </g>
     </g>
    </g>
   </g>
   <g id="line2d_17">
    <path d="M 369 252.649948 
L 369 235.462468 
" clip-path="url(#p10a161d3e8)" style="fill: none; stroke: #646464; stroke-width: 1.5; stroke-linecap: square"/>
   </g>
   <g id="line2d_18">
    <path d="M 369 251.053175 
L 369 242.265087 
" clip-path="url(#p10a161d3e8)" style="fill: none; stroke: #646464; stroke-width: 4.5; stroke-linecap: square"/>
   </g>
   <g id="patch_8">
    <path d="M 286.941176 256.32 
L 286.941176 34.56 
" style="fill: none; stroke: #000000; stroke-width: 0.8; stroke-linejoin: miter; stroke-linecap: square"/>
   </g>
   <g id="patch_9">
    <path d="M 451.058824 256.32 
L 451.058824 34.56 
" style="fill: none; stroke: #000000; stroke-width: 0.8; stroke-linejoin: miter; stroke-linecap: square"/>
   </g>
   <g id="patch_10">
    <path d="M 286.941176 256.32 
L 451.058824 256.32 
" style="fill: none; stroke: #000000; stroke-width: 0.8; stroke-linejoin: miter; stroke-linecap: square"/>
   </g>
   <g id="patch_11">
    <path d="M 286.941176 34.56 
L 451.058824 34.56 
" style="fill: none; stroke: #000000; stroke-width: 0.8; stroke-linejoin: miter; stroke-linecap: square"/>
   </g>
   <g id="PathCollection_2">
    <defs>
     <path id="ma4307d763d" d="M 0 1.5 
C 0.397805 1.5 0.77937 1.341951 1.06066 1.06066 
C 1.341951 0.77937 1.5 0.397805 1.5 0 
C 1.5 -0.397805 1.341951 -0.77937 1.06066 -1.06066 
C 0.77937 -1.341951 0.397805 -1.5 0 -1.5 
C -0.397805 -1.5 -0.77937 -1.341951 -1.06066 -1.06066 
C -1.341951 -0.77937 -1.5 -0.397805 -1.5 0 
C -1.5 0.397805 -1.341951 0.77937 -1.06066 1.06066 
C -0.77937 1.341951 -0.397805 1.5 0 1.5 
z
" style="stroke: #646464"/>
    </defs>
    <g clip-path="url(#p10a161d3e8)">
     <use xlink:href="#ma4307d763d" x="369" y="245.315578" style="fill: #ffffff; stroke: #646464"/>
    </g>
   </g>
   <g id="text_17">
    <!-- loss -->
    <g transform="translate(357.410625 28.56) scale(0.12 -0.12)">
     <defs>
      <path id="DejaVuSans-6c" d="M 603 4863 
L 1178 4863 
L 1178 0 
L 603 0 
L 603 4863 
z
" transform="scale(0.015625)"/>
      <path id="DejaVuSans-6f" d="M 1959 3097 
Q 1497 3097 1228 2736 
Q 959 2375 959 1747 
Q 959 1119 1226 758 
Q 1494 397 1959 397 
Q 2419 397 2687 759 
Q 2956 1122 2956 1747 
Q 2956 2369 2687 2733 
Q 2419 3097 1959 3097 
z
M 1959 3584 
Q 2709 3584 3137 3096 
Q 3566 2609 3566 1747 
Q 3566 888 3137 398 
Q 2709 -91 1959 -91 
Q 1206 -91 779 398 
Q 353 888 353 1747 
Q 353 2609 779 3096 
Q 1206 3584 1959 3584 
z
" transform="scale(0.015625)"/>
      <path id="DejaVuSans-73" d="M 2834 3397 
L 2834 2853 
Q 2591 2978 2328 3040 
Q 2066 3103 1784 3103 
Q 1356 3103 1142 2972 
Q 928 2841 928 2578 
Q 928 2378 1081 2264 
Q 1234 2150 1697 2047 
L 1894 2003 
Q 2506 1872 2764 1633 
Q 3022 1394 3022 966 
Q 3022 478 2636 193 
Q 2250 -91 1575 -91 
Q 1294 -91 989 -36 
Q 684 19 347 128 
L 347 722 
Q 666 556 975 473 
Q 1284 391 1588 391 
Q 1994 391 2212 530 
Q 2431 669 2431 922 
Q 2431 1156 2273 1281 
Q 2116 1406 1581 1522 
L 1381 1569 
Q 847 1681 609 1914 
Q 372 2147 372 2553 
Q 372 3047 722 3315 
Q 1072 3584 1716 3584 
Q 2034 3584 2315 3537 
Q 2597 3491 2834 3397 
z
" transform="scale(0.015625)"/>
     </defs>
     <use xlink:href="#DejaVuSans-6c"/>
     <use xlink:href="#DejaVuSans-6f" x="27.783203"/>
     <use xlink:href="#DejaVuSans-73" x="88.964844"/>
     <use xlink:href="#DejaVuSans-73" x="141.064453"/>
    </g>
   </g>
  </g>
  <g id="axes_3">
   <g id="patch_12">
    <path d="M 483.882353 256.32 
L 648 256.32 
L 648 34.56 
L 483.882353 34.56 
z
" style="fill: #ffffff"/>
   </g>
   <g id="PolyCollection_3">
    <defs>
     <path id="m6fcbd5d5d4" d="M 566.84675 -56.098392 
L 565.035603 -56.098392 
L 564.847636 -57.179131 
L 564.632928 -58.259871 
L 564.390612 -59.34061 
L 564.120497 -60.421349 
L 563.823199 -61.502088 
L 563.500258 -62.582827 
L 563.154226 -63.663567 
L 562.788718 -64.744306 
L 562.408421 -65.825045 
L 562.019048 -66.905784 
L 561.627234 -67.986524 
L 561.240386 -69.067263 
L 560.866462 -70.148002 
L 560.513719 -71.228741 
L 560.190414 -72.30948 
L 559.904491 -73.39022 
L 559.663254 -74.470959 
L 559.473062 -75.551698 
L 559.33905 -76.632437 
L 559.264896 -77.713176 
L 559.252651 -78.793916 
L 559.30265 -79.874655 
L 559.413486 -80.955394 
L 559.58208 -82.036133 
L 559.803812 -83.116872 
L 560.072729 -84.197612 
L 560.381798 -85.278351 
L 560.723194 -86.35909 
L 561.088615 -87.439829 
L 561.469577 -88.520569 
L 561.857704 -89.601308 
L 562.244973 -90.682047 
L 562.623903 -91.762786 
L 562.987693 -92.843525 
L 563.330281 -93.924265 
L 563.646336 -95.005004 
L 563.931181 -96.085743 
L 564.180651 -97.166482 
L 564.390887 -98.247221 
L 564.558089 -99.327961 
L 564.678228 -100.4087 
L 564.746737 -101.489439 
L 564.758198 -102.570178 
L 564.706027 -103.650917 
L 564.582203 -104.731657 
L 564.37703 -105.812396 
L 564.078973 -106.893135 
L 563.674583 -107.973874 
L 563.14853 -109.054613 
L 562.483777 -110.135353 
L 561.66189 -111.216092 
L 560.663529 -112.296831 
L 559.469098 -113.37757 
L 558.05958 -114.45831 
L 556.417519 -115.539049 
L 554.528154 -116.619788 
L 552.380638 -117.700527 
L 549.969311 -118.781266 
L 547.294959 -119.862006 
L 544.365966 -120.942745 
L 541.199305 -122.023484 
L 537.821257 -123.104223 
L 534.267787 -124.184962 
L 530.584517 -125.265702 
L 526.826219 -126.346441 
L 523.055823 -127.42718 
L 519.342926 -128.507919 
L 515.761834 -129.588658 
L 512.389215 -130.669398 
L 509.301437 -131.750137 
L 506.571745 -132.830876 
L 504.267391 -133.911615 
L 502.446896 -134.992355 
L 501.157582 -136.073094 
L 500.433538 -137.153833 
L 500.294118 -138.234572 
L 500.743084 -139.315311 
L 501.768442 -140.396051 
L 503.342966 -141.47679 
L 505.425405 -142.557529 
L 507.962274 -143.638268 
L 510.890134 -144.719007 
L 514.138222 -145.799747 
L 517.631277 -146.880486 
L 521.292408 -147.961225 
L 525.045857 -149.041964 
L 528.819513 -150.122703 
L 532.547071 -151.203443 
L 536.169756 -152.284182 
L 539.637566 -153.364921 
L 542.910014 -154.44566 
L 545.956385 -155.5264 
L 548.755559 -156.607139 
L 551.295451 -157.687878 
L 553.572159 -158.768617 
L 555.588886 -159.849356 
L 557.354741 -160.930096 
L 558.883483 -162.010835 
L 560.192283 -163.091574 
L 571.69007 -163.091574 
L 571.69007 -163.091574 
L 572.99887 -162.010835 
L 574.527612 -160.930096 
L 576.293467 -159.849356 
L 578.310194 -158.768617 
L 580.586902 -157.687878 
L 583.126794 -156.607139 
L 585.925968 -155.5264 
L 588.972339 -154.44566 
L 592.244787 -153.364921 
L 595.712597 -152.284182 
L 599.335282 -151.203443 
L 603.06284 -150.122703 
L 606.836496 -149.041964 
L 610.589945 -147.961225 
L 614.251076 -146.880486 
L 617.744131 -145.799747 
L 620.992218 -144.719007 
L 623.920079 -143.638268 
L 626.456948 -142.557529 
L 628.539387 -141.47679 
L 630.113911 -140.396051 
L 631.139269 -139.315311 
L 631.588235 -138.234572 
L 631.448815 -137.153833 
L 630.724771 -136.073094 
L 629.435457 -134.992355 
L 627.614962 -133.911615 
L 625.310608 -132.830876 
L 622.580916 -131.750137 
L 619.493138 -130.669398 
L 616.120519 -129.588658 
L 612.539427 -128.507919 
L 608.82653 -127.42718 
L 605.056134 -126.346441 
L 601.297836 -125.265702 
L 597.614566 -124.184962 
L 594.061096 -123.104223 
L 590.683048 -122.023484 
L 587.516387 -120.942745 
L 584.587394 -119.862006 
L 581.913042 -118.781266 
L 579.501715 -117.700527 
L 577.354199 -116.619788 
L 575.464834 -115.539049 
L 573.822773 -114.45831 
L 572.413255 -113.37757 
L 571.218824 -112.296831 
L 570.220463 -111.216092 
L 569.398576 -110.135353 
L 568.733823 -109.054613 
L 568.20777 -107.973874 
L 567.80338 -106.893135 
L 567.505323 -105.812396 
L 567.30015 -104.731657 
L 567.176326 -103.650917 
L 567.124155 -102.570178 
L 567.135616 -101.489439 
L 567.204125 -100.4087 
L 567.324264 -99.327961 
L 567.491465 -98.247221 
L 567.701702 -97.166482 
L 567.951172 -96.085743 
L 568.236017 -95.005004 
L 568.552072 -93.924265 
L 568.89466 -92.843525 
L 569.25845 -91.762786 
L 569.63738 -90.682047 
L 570.024648 -89.601308 
L 570.412776 -88.520569 
L 570.793738 -87.439829 
L 571.159159 -86.35909 
L 571.500555 -85.278351 
L 571.809624 -84.197612 
L 572.078541 -83.116872 
L 572.300273 -82.036133 
L 572.468867 -80.955394 
L 572.579703 -79.874655 
L 572.629702 -78.793916 
L 572.617457 -77.713176 
L 572.543303 -76.632437 
L 572.409291 -75.551698 
L 572.219099 -74.470959 
L 571.977862 -73.39022 
L 571.691939 -72.30948 
L 571.368634 -71.228741 
L 571.015891 -70.148002 
L 570.641967 -69.067263 
L 570.255119 -67.986524 
L 569.863305 -66.905784 
L 569.473932 -65.825045 
L 569.093634 -64.744306 
L 568.728127 -63.663567 
L 568.382095 -62.582827 
L 568.059154 -61.502088 
L 567.761856 -60.421349 
L 567.491741 -59.34061 
L 567.249425 -58.259871 
L 567.034717 -57.179131 
L 566.84675 -56.098392 
z
" style="stroke: #3f3f3f; stroke-width: 1.5"/>
    </defs>
    <g clip-path="url(#p1aa949283b)">
     <use xlink:href="#m6fcbd5d5d4" x="0" y="288" style="fill: #3274a1; stroke: #3f3f3f; stroke-width: 1.5"/>
    </g>
   </g>
   <g id="matplotlib.axis_5">
    <g id="xtick_3">
     <g id="line2d_19">
      <g>
       <use xlink:href="#m3f37254db3" x="565.941176" y="256.32" style="stroke: #000000; stroke-width: 0.8"/>
      </g>
     </g>
     <g id="text_18">
      <!-- 0 -->
      <g transform="translate(562.759926 270.918437) scale(0.1 -0.1)">
       <use xlink:href="#DejaVuSans-30"/>
      </g>
     </g>
    </g>
   </g>
   <g id="matplotlib.axis_6">
    <g id="ytick_13">
     <g id="line2d_20">
      <g>
       <use xlink:href="#m372a460226" x="483.882353" y="256.32" style="stroke: #000000; stroke-width: 0.8"/>
      </g>
     </g>
     <g id="text_19">
      <!-- 0.0 -->
      <g transform="translate(460.979228 260.119219) scale(0.1 -0.1)">
       <use xlink:href="#DejaVuSans-30"/>
       <use xlink:href="#DejaVuSans-2e" x="63.623047"/>
       <use xlink:href="#DejaVuSans-30" x="95.410156"/>
      </g>
     </g>
    </g>
    <g id="ytick_14">
     <g id="line2d_21">
      <g>
       <use xlink:href="#m372a460226" x="483.882353" y="211.968" style="stroke: #000000; stroke-width: 0.8"/>
      </g>
     </g>
     <g id="text_20">
      <!-- 0.2 -->
      <g transform="translate(460.979228 215.767219) scale(0.1 -0.1)">
       <use xlink:href="#DejaVuSans-30"/>
       <use xlink:href="#DejaVuSans-2e" x="63.623047"/>
       <use xlink:href="#DejaVuSans-32" x="95.410156"/>
      </g>
     </g>
    </g>
    <g id="ytick_15">
     <g id="line2d_22">
      <g>
       <use xlink:href="#m372a460226" x="483.882353" y="167.616" style="stroke: #000000; stroke-width: 0.8"/>
      </g>
     </g>
     <g id="text_21">
      <!-- 0.4 -->
      <g transform="translate(460.979228 171.415219) scale(0.1 -0.1)">
       <use xlink:href="#DejaVuSans-30"/>
       <use xlink:href="#DejaVuSans-2e" x="63.623047"/>
       <use xlink:href="#DejaVuSans-34" x="95.410156"/>
      </g>
     </g>
    </g>
    <g id="ytick_16">
     <g id="line2d_23">
      <g>
       <use xlink:href="#m372a460226" x="483.882353" y="123.264" style="stroke: #000000; stroke-width: 0.8"/>
      </g>
     </g>
     <g id="text_22">
      <!-- 0.6 -->
      <g transform="translate(460.979228 127.063219) scale(0.1 -0.1)">
       <use xlink:href="#DejaVuSans-30"/>
       <use xlink:href="#DejaVuSans-2e" x="63.623047"/>
       <use xlink:href="#DejaVuSans-36" x="95.410156"/>
      </g>
     </g>
    </g>
    <g id="ytick_17">
     <g id="line2d_24">
      <g>
       <use xlink:href="#m372a460226" x="483.882353" y="78.912" style="stroke: #000000; stroke-width: 0.8"/>
      </g>
     </g>
     <g id="text_23">
      <!-- 0.8 -->
      <g transform="translate(460.979228 82.711219) scale(0.1 -0.1)">
       <use xlink:href="#DejaVuSans-30"/>
       <use xlink:href="#DejaVuSans-2e" x="63.623047"/>
       <use xlink:href="#DejaVuSans-38" x="95.410156"/>
      </g>
     </g>
    </g>
    <g id="ytick_18">
     <g id="line2d_25">
      <g>
       <use xlink:href="#m372a460226" x="483.882353" y="34.56" style="stroke: #000000; stroke-width: 0.8"/>
      </g>
     </g>
     <g id="text_24">
      <!-- 1.0 -->
      <g transform="translate(460.979228 38.359219) scale(0.1 -0.1)">
       <use xlink:href="#DejaVuSans-31"/>
       <use xlink:href="#DejaVuSans-2e" x="63.623047"/>
       <use xlink:href="#DejaVuSans-30" x="95.410156"/>
      </g>
     </g>
    </g>
   </g>
   <g id="line2d_26">
    <path d="M 565.941176 152.467457 
L 565.941176 147.275027 
" clip-path="url(#p1aa949283b)" style="fill: none; stroke: #3f3f3f; stroke-width: 1.5; stroke-linecap: square"/>
   </g>
   <g id="line2d_27">
    <path d="M 565.941176 152.467457 
L 565.941176 148.073413 
" clip-path="url(#p1aa949283b)" style="fill: none; stroke: #3f3f3f; stroke-width: 4.5; stroke-linecap: square"/>
   </g>
   <g id="patch_13">
    <path d="M 483.882353 256.32 
L 483.882353 34.56 
" style="fill: none; stroke: #000000; stroke-width: 0.8; stroke-linejoin: miter; stroke-linecap: square"/>
   </g>
   <g id="patch_14">
    <path d="M 648 256.32 
L 648 34.56 
" style="fill: none; stroke: #000000; stroke-width: 0.8; stroke-linejoin: miter; stroke-linecap: square"/>
   </g>
   <g id="patch_15">
    <path d="M 483.882353 256.32 
L 648 256.32 
" style="fill: none; stroke: #000000; stroke-width: 0.8; stroke-linejoin: miter; stroke-linecap: square"/>
   </g>
   <g id="patch_16">
    <path d="M 483.882353 34.56 
L 648 34.56 
" style="fill: none; stroke: #000000; stroke-width: 0.8; stroke-linejoin: miter; stroke-linecap: square"/>
   </g>
   <g id="PathCollection_3">
    <defs>
     <path id="m7f0cea8c11" d="M 0 1.5 
C 0.397805 1.5 0.77937 1.341951 1.06066 1.06066 
C 1.341951 0.77937 1.5 0.397805 1.5 0 
C 1.5 -0.397805 1.341951 -0.77937 1.06066 -1.06066 
C 0.77937 -1.341951 0.397805 -1.5 0 -1.5 
C -0.397805 -1.5 -0.77937 -1.341951 -1.06066 -1.06066 
C -1.341951 -0.77937 -1.5 -0.397805 -1.5 0 
C -1.5 0.397805 -1.341951 0.77937 -1.06066 1.06066 
C -0.77937 1.341951 -0.397805 1.5 0 1.5 
z
" style="stroke: #3f3f3f"/>
    </defs>
    <g clip-path="url(#p1aa949283b)">
     <use xlink:href="#m7f0cea8c11" x="565.941176" y="150.942212" style="fill: #ffffff; stroke: #3f3f3f"/>
    </g>
   </g>
   <g id="text_25">
    <!-- keep budget -->
    <g transform="translate(528.310864 28.56) scale(0.12 -0.12)">
     <defs>
      <path id="DejaVuSans-6b" d="M 581 4863 
L 1159 4863 
L 1159 1991 
L 2875 3500 
L 3609 3500 
L 1753 1863 
L 3688 0 
L 2938 0 
L 1159 1709 
L 1159 0 
L 581 0 
L 581 4863 
z
" transform="scale(0.015625)"/>
      <path id="DejaVuSans-65" d="M 3597 1894 
L 3597 1613 
L 953 1613 
Q 991 1019 1311 708 
Q 1631 397 2203 397 
Q 2534 397 2845 478 
Q 3156 559 3463 722 
L 3463 178 
Q 3153 47 2828 -22 
Q 2503 -91 2169 -91 
Q 1331 -91 842 396 
Q 353 884 353 1716 
Q 353 2575 817 3079 
Q 1281 3584 2069 3584 
Q 2775 3584 3186 3129 
Q 3597 2675 3597 1894 
z
M 3022 2063 
Q 3016 2534 2758 2815 
Q 2500 3097 2075 3097 
Q 1594 3097 1305 2825 
Q 1016 2553 972 2059 
L 3022 2063 
z
" transform="scale(0.015625)"/>
      <path id="DejaVuSans-70" d="M 1159 525 
L 1159 -1331 
L 581 -1331 
L 581 3500 
L 1159 3500 
L 1159 2969 
Q 1341 3281 1617 3432 
Q 1894 3584 2278 3584 
Q 2916 3584 3314 3078 
Q 3713 2572 3713 1747 
Q 3713 922 3314 415 
Q 2916 -91 2278 -91 
Q 1894 -91 1617 61 
Q 1341 213 1159 525 
z
M 3116 1747 
Q 3116 2381 2855 2742 
Q 2594 3103 2138 3103 
Q 1681 3103 1420 2742 
Q 1159 2381 1159 1747 
Q 1159 1113 1420 752 
Q 1681 391 2138 391 
Q 2594 391 2855 752 
Q 3116 1113 3116 1747 
z
" transform="scale(0.015625)"/>
      <path id="DejaVuSans-20" transform="scale(0.015625)"/>
      <path id="DejaVuSans-62" d="M 3116 1747 
Q 3116 2381 2855 2742 
Q 2594 3103 2138 3103 
Q 1681 3103 1420 2742 
Q 1159 2381 1159 1747 
Q 1159 1113 1420 752 
Q 1681 391 2138 391 
Q 2594 391 2855 752 
Q 3116 1113 3116 1747 
z
M 1159 2969 
Q 1341 3281 1617 3432 
Q 1894 3584 2278 3584 
Q 2916 3584 3314 3078 
Q 3713 2572 3713 1747 
Q 3713 922 3314 415 
Q 2916 -91 2278 -91 
Q 1894 -91 1617 61 
Q 1341 213 1159 525 
L 1159 0 
L 581 0 
L 581 4863 
L 1159 4863 
L 1159 2969 
z
" transform="scale(0.015625)"/>
      <path id="DejaVuSans-75" d="M 544 1381 
L 544 3500 
L 1119 3500 
L 1119 1403 
Q 1119 906 1312 657 
Q 1506 409 1894 409 
Q 2359 409 2629 706 
Q 2900 1003 2900 1516 
L 2900 3500 
L 3475 3500 
L 3475 0 
L 2900 0 
L 2900 538 
Q 2691 219 2414 64 
Q 2138 -91 1772 -91 
Q 1169 -91 856 284 
Q 544 659 544 1381 
z
M 1991 3584 
L 1991 3584 
z
" transform="scale(0.015625)"/>
      <path id="DejaVuSans-64" d="M 2906 2969 
L 2906 4863 
L 3481 4863 
L 3481 0 
L 2906 0 
L 2906 525 
Q 2725 213 2448 61 
Q 2172 -91 1784 -91 
Q 1150 -91 751 415 
Q 353 922 353 1747 
Q 353 2572 751 3078 
Q 1150 3584 1784 3584 
Q 2172 3584 2448 3432 
Q 2725 3281 2906 2969 
z
M 947 1747 
Q 947 1113 1208 752 
Q 1469 391 1925 391 
Q 2381 391 2643 752 
Q 2906 1113 2906 1747 
Q 2906 2381 2643 2742 
Q 2381 3103 1925 3103 
Q 1469 3103 1208 2742 
Q 947 2381 947 1747 
z
" transform="scale(0.015625)"/>
      <path id="DejaVuSans-67" d="M 2906 1791 
Q 2906 2416 2648 2759 
Q 2391 3103 1925 3103 
Q 1463 3103 1205 2759 
Q 947 2416 947 1791 
Q 947 1169 1205 825 
Q 1463 481 1925 481 
Q 2391 481 2648 825 
Q 2906 1169 2906 1791 
z
M 3481 434 
Q 3481 -459 3084 -895 
Q 2688 -1331 1869 -1331 
Q 1566 -1331 1297 -1286 
Q 1028 -1241 775 -1147 
L 775 -588 
Q 1028 -725 1275 -790 
Q 1522 -856 1778 -856 
Q 2344 -856 2625 -561 
Q 2906 -266 2906 331 
L 2906 616 
Q 2728 306 2450 153 
Q 2172 0 1784 0 
Q 1141 0 747 490 
Q 353 981 353 1791 
Q 353 2603 747 3093 
Q 1141 3584 1784 3584 
Q 2172 3584 2450 3431 
Q 2728 3278 2906 2969 
L 2906 3500 
L 3481 3500 
L 3481 434 
z
" transform="scale(0.015625)"/>
      <path id="DejaVuSans-74" d="M 1172 4494 
L 1172 3500 
L 2356 3500 
L 2356 3053 
L 1172 3053 
L 1172 1153 
Q 1172 725 1289 603 
Q 1406 481 1766 481 
L 2356 481 
L 2356 0 
L 1766 0 
Q 1100 0 847 248 
Q 594 497 594 1153 
L 594 3053 
L 172 3053 
L 172 3500 
L 594 3500 
L 594 4494 
L 1172 4494 
z
" transform="scale(0.015625)"/>
     </defs>
     <use xlink:href="#DejaVuSans-6b"/>
     <use xlink:href="#DejaVuSans-65" x="54.285156"/>
     <use xlink:href="#DejaVuSans-65" x="115.808594"/>
     <use xlink:href="#DejaVuSans-70" x="177.332031"/>
     <use xlink:href="#DejaVuSans-20" x="240.808594"/>
     <use xlink:href="#DejaVuSans-62" x="272.595703"/>
     <use xlink:href="#DejaVuSans-75" x="336.072266"/>
     <use xlink:href="#DejaVuSans-64" x="399.451172"/>
     <use xlink:href="#DejaVuSans-67" x="462.927734"/>
     <use xlink:href="#DejaVuSans-65" x="526.404297"/>
     <use xlink:href="#DejaVuSans-74" x="587.927734"/>
    </g>
   </g>
  </g>
  <g id="text_26">
   <!-- $C$: high BDI score -->
   <g transform="translate(308.22 14.88) scale(0.12 -0.12)">
    <defs>
     <path id="DejaVuSans-Oblique-43" d="M 4447 4306 
L 4319 3641 
Q 4019 3944 3683 4091 
Q 3347 4238 2956 4238 
Q 2422 4238 2017 3981 
Q 1613 3725 1319 3200 
Q 1131 2863 1032 2486 
Q 934 2109 934 1728 
Q 934 1091 1264 756 
Q 1594 422 2222 422 
Q 2656 422 3056 561 
Q 3456 700 3834 978 
L 3688 231 
Q 3316 72 2936 -9 
Q 2556 -91 2175 -91 
Q 1278 -91 773 396 
Q 269 884 269 1753 
Q 269 2309 461 2846 
Q 653 3384 1013 3828 
Q 1394 4300 1883 4525 
Q 2372 4750 3022 4750 
Q 3422 4750 3780 4639 
Q 4138 4528 4447 4306 
z
" transform="scale(0.015625)"/>
     <path id="DejaVuSans-3a" d="M 750 794 
L 1409 794 
L 1409 0 
L 750 0 
L 750 794 
z
M 750 3309 
L 1409 3309 
L 1409 2516 
L 750 2516 
L 750 3309 
z
" transform="scale(0.015625)"/>
     <path id="DejaVuSans-68" d="M 3513 2113 
L 3513 0 
L 2938 0 
L 2938 2094 
Q 2938 2591 2744 2837 
Q 2550 3084 2163 3084 
Q 1697 3084 1428 2787 
Q 1159 2491 1159 1978 
L 1159 0 
L 581 0 
L 581 4863 
L 1159 4863 
L 1159 2956 
Q 1366 3272 1645 3428 
Q 1925 3584 2291 3584 
Q 2894 3584 3203 3211 
Q 3513 2838 3513 2113 
z
" transform="scale(0.015625)"/>
     <path id="DejaVuSans-42" d="M 1259 2228 
L 1259 519 
L 2272 519 
Q 2781 519 3026 730 
Q 3272 941 3272 1375 
Q 3272 1813 3026 2020 
Q 2781 2228 2272 2228 
L 1259 2228 
z
M 1259 4147 
L 1259 2741 
L 2194 2741 
Q 2656 2741 2882 2914 
Q 3109 3088 3109 3444 
Q 3109 3797 2882 3972 
Q 2656 4147 2194 4147 
L 1259 4147 
z
M 628 4666 
L 2241 4666 
Q 2963 4666 3353 4366 
Q 3744 4066 3744 3513 
Q 3744 3084 3544 2831 
Q 3344 2578 2956 2516 
Q 3422 2416 3680 2098 
Q 3938 1781 3938 1306 
Q 3938 681 3513 340 
Q 3088 0 2303 0 
L 628 0 
L 628 4666 
z
" transform="scale(0.015625)"/>
     <path id="DejaVuSans-44" d="M 1259 4147 
L 1259 519 
L 2022 519 
Q 2988 519 3436 956 
Q 3884 1394 3884 2338 
Q 3884 3275 3436 3711 
Q 2988 4147 2022 4147 
L 1259 4147 
z
M 628 4666 
L 1925 4666 
Q 3281 4666 3915 4102 
Q 4550 3538 4550 2338 
Q 4550 1131 3912 565 
Q 3275 0 1925 0 
L 628 0 
L 628 4666 
z
" transform="scale(0.015625)"/>
     <path id="DejaVuSans-49" d="M 628 4666 
L 1259 4666 
L 1259 0 
L 628 0 
L 628 4666 
z
" transform="scale(0.015625)"/>
     <path id="DejaVuSans-63" d="M 3122 3366 
L 3122 2828 
Q 2878 2963 2633 3030 
Q 2388 3097 2138 3097 
Q 1578 3097 1268 2742 
Q 959 2388 959 1747 
Q 959 1106 1268 751 
Q 1578 397 2138 397 
Q 2388 397 2633 464 
Q 2878 531 3122 666 
L 3122 134 
Q 2881 22 2623 -34 
Q 2366 -91 2075 -91 
Q 1284 -91 818 406 
Q 353 903 353 1747 
Q 353 2603 823 3093 
Q 1294 3584 2113 3584 
Q 2378 3584 2631 3529 
Q 2884 3475 3122 3366 
z
" transform="scale(0.015625)"/>
     <path id="DejaVuSans-72" d="M 2631 2963 
Q 2534 3019 2420 3045 
Q 2306 3072 2169 3072 
Q 1681 3072 1420 2755 
Q 1159 2438 1159 1844 
L 1159 0 
L 581 0 
L 581 3500 
L 1159 3500 
L 1159 2956 
Q 1341 3275 1631 3429 
Q 1922 3584 2338 3584 
Q 2397 3584 2469 3576 
Q 2541 3569 2628 3553 
L 2631 2963 
z
" transform="scale(0.015625)"/>
    </defs>
    <use xlink:href="#DejaVuSans-Oblique-43" transform="translate(0 0.015625)"/>
    <use xlink:href="#DejaVuSans-3a" transform="translate(69.824219 0.015625)"/>
    <use xlink:href="#DejaVuSans-20" transform="translate(103.515625 0.015625)"/>
    <use xlink:href="#DejaVuSans-68" transform="translate(135.302734 0.015625)"/>
    <use xlink:href="#DejaVuSans-69" transform="translate(198.681641 0.015625)"/>
    <use xlink:href="#DejaVuSans-67" transform="translate(226.464844 0.015625)"/>
    <use xlink:href="#DejaVuSans-68" transform="translate(289.941406 0.015625)"/>
    <use xlink:href="#DejaVuSans-20" transform="translate(353.320312 0.015625)"/>
    <use xlink:href="#DejaVuSans-42" transform="translate(385.107422 0.015625)"/>
    <use xlink:href="#DejaVuSans-44" transform="translate(453.710938 0.015625)"/>
    <use xlink:href="#DejaVuSans-49" transform="translate(530.712891 0.015625)"/>
    <use xlink:href="#DejaVuSans-20" transform="translate(560.205078 0.015625)"/>
    <use xlink:href="#DejaVuSans-73" transform="translate(591.992188 0.015625)"/>
    <use xlink:href="#DejaVuSans-63" transform="translate(644.091797 0.015625)"/>
    <use xlink:href="#DejaVuSans-6f" transform="translate(699.072266 0.015625)"/>
    <use xlink:href="#DejaVuSans-72" transform="translate(760.253906 0.015625)"/>
    <use xlink:href="#DejaVuSans-65" transform="translate(801.367188 0.015625)"/>
   </g>
  </g>
 </g>
 <defs>
  <clipPath id="pa728d26871">
   <rect x="90" y="34.56" width="164.117647" height="221.76"/>
  </clipPath>
  <clipPath id="p10a161d3e8">
   <rect x="286.941176" y="34.56" width="164.117647" height="221.76"/>
  </clipPath>
  <clipPath id="p1aa949283b">
   <rect x="483.882353" y="34.56" width="164.117647" height="221.76"/>
  </clipPath>
 </defs>
</svg>
