<?xml version="1.0" encoding="utf-8" standalone="no"?>
<!DOCTYPE svg PUBLIC "-//W3C//DTD SVG 1.1//EN"
  "http://www.w3.org/Graphics/SVG/1.1/DTD/svg11.dtd">
<svg xmlns:xlink="http://www.w3.org/1999/xlink" width="720pt" height="288pt" viewBox="0 0 720 288" xmlns="http://www.w3.org/2000/svg" version="1.1">
 <metadata>
  <rdf:RDF xmlns:dc="http://purl.org/dc/elements/1.1/" xmlns:cc="http://creativecommons.org/ns#" xmlns:rdf="http://www.w3.org/1999/02/22-rdf-syntax-ns#">
   <cc:Work>
    <dc:type rdf:resource="http://purl.org/dc/dcmitype/StillImage"/>
    <dc:date>2024-07-05T14:55:32.470852</dc:date>
    <dc:format>image/svg+xml</dc:format>
    <dc:creator>
     <cc:Agent>
      <dc:title>Matplotlib v3.7.2, https://matplotlib.org/</dc:title>
     </cc:Agent>
    </dc:creator>
   </cc:Work>
  </rdf:RDF>
 </metadata>
 <defs>
  <style type="text/css">*{stroke-linejoin: round; stroke-linecap: butt}</style>
 </defs>
 <g id="figure_1">
  <g id="patch_1">
   <path d="M 0 288 
L 720 288 
L 720 0 
L 0 0 
z
" style="fill: #ffffff"/>
  </g>
  <g id="axes_1">
   <g id="patch_2">
    <path d="M 90 256.32 
L 254.117647 256.32 
L 254.117647 34.56 
L 90 34.56 
z
" style="fill: #ffffff"/>
   </g>
   <g id="PolyCollection_1">
    <defs>
     <path id="me08bb74e8d" d="M 172.94736 -105.599997 
L 171.170287 -105.599997 
L 170.990173 -105.599997 
L 170.784979 -105.599997 
L 170.553893 -105.599997 
L 170.296699 -105.599997 
L 170.013903 -105.599997 
L 169.706829 -105.599997 
L 169.377706 -105.599997 
L 169.029711 -105.599997 
L 168.666989 -105.599997 
L 168.294613 -105.599997 
L 167.918513 -105.599997 
L 167.54534 -105.599997 
L 167.182297 -105.599997 
L 166.836915 -105.599997 
L 166.516808 -105.599997 
L 166.229393 -105.599997 
L 165.981611 -105.599997 
L 165.779648 -105.599997 
L 165.628678 -105.599998 
L 165.532643 -105.599998 
L 165.494083 -105.599998 
L 165.514021 -105.599998 
L 165.59192 -105.599998 
L 165.725702 -105.599998 
L 165.911843 -105.599998 
L 166.145517 -105.599998 
L 166.420805 -105.599998 
L 166.730933 -105.599998 
L 167.068541 -105.599998 
L 167.425953 -105.599998 
L 167.795449 -105.599998 
L 168.169505 -105.599998 
L 168.540999 -105.599998 
L 168.903378 -105.599998 
L 169.250759 -105.599998 
L 169.577979 -105.599998 
L 169.880581 -105.599998 
L 170.154744 -105.599998 
L 170.397151 -105.599998 
L 170.60481 -105.599998 
L 170.77484 -105.599998 
L 170.904207 -105.599998 
L 170.989451 -105.599999 
L 171.026395 -105.599999 
L 171.009852 -105.599999 
L 170.933351 -105.599999 
L 170.788884 -105.599999 
L 170.566708 -105.599999 
L 170.255208 -105.599999 
L 169.840843 -105.599999 
L 169.308198 -105.599999 
L 168.640163 -105.599999 
L 167.818253 -105.599999 
L 166.823089 -105.599999 
L 165.635041 -105.599999 
L 164.235038 -105.599999 
L 162.605539 -105.599999 
L 160.731634 -105.599999 
L 158.602243 -105.599999 
L 156.211369 -105.599999 
L 153.559325 -105.599999 
L 150.65389 -105.599999 
L 147.511288 -105.599999 
L 144.15691 -105.599999 
L 140.625716 -105.599999 
L 136.962234 -105.6 
L 133.220091 -105.6 
L 129.461075 -105.6 
L 125.753699 -105.6 
L 122.171304 -105.6 
L 118.78977 -105.6 
L 115.68492 -105.6 
L 112.92973 -105.6 
L 110.591506 -105.6 
L 108.729157 -105.6 
L 107.390735 -105.6 
L 106.611376 -105.6 
L 106.411765 -105.6 
L 106.797228 -105.6 
L 107.757492 -105.6 
L 109.267145 -105.6 
L 111.286747 -105.6 
L 113.764547 -105.6 
L 116.638686 -105.6 
L 119.839752 -105.6 
L 123.293563 -105.6 
L 126.923995 -105.6 
L 130.65572 -105.6 
L 134.416721 -105.6 
L 138.140478 -105.600001 
L 141.767703 -105.600001 
L 145.247648 -105.600001 
L 148.538883 -105.600001 
L 151.609617 -105.600001 
L 154.43758 -105.600001 
L 157.009518 -105.600001 
L 159.320383 -105.600001 
L 161.372314 -105.600001 
L 163.173456 -105.600001 
L 180.944191 -105.600001 
L 180.944191 -105.600001 
L 182.745333 -105.600001 
L 184.797264 -105.600001 
L 187.108129 -105.600001 
L 189.680067 -105.600001 
L 192.50803 -105.600001 
L 195.578764 -105.600001 
L 198.869999 -105.600001 
L 202.349944 -105.600001 
L 205.977169 -105.600001 
L 209.700926 -105.6 
L 213.461927 -105.6 
L 217.193652 -105.6 
L 220.824084 -105.6 
L 224.277895 -105.6 
L 227.478961 -105.6 
L 230.3531 -105.6 
L 232.8309 -105.6 
L 234.850502 -105.6 
L 236.360155 -105.6 
L 237.320419 -105.6 
L 237.705882 -105.6 
L 237.506271 -105.6 
L 236.726912 -105.6 
L 235.38849 -105.6 
L 233.526141 -105.6 
L 231.187917 -105.6 
L 228.432727 -105.6 
L 225.327877 -105.6 
L 221.946343 -105.6 
L 218.363948 -105.6 
L 214.656572 -105.6 
L 210.897556 -105.6 
L 207.155413 -105.6 
L 203.491931 -105.599999 
L 199.960737 -105.599999 
L 196.606359 -105.599999 
L 193.463757 -105.599999 
L 190.558322 -105.599999 
L 187.906278 -105.599999 
L 185.515404 -105.599999 
L 183.386013 -105.599999 
L 181.512108 -105.599999 
L 179.88261 -105.599999 
L 178.482606 -105.599999 
L 177.294558 -105.599999 
L 176.299394 -105.599999 
L 175.477484 -105.599999 
L 174.809449 -105.599999 
L 174.276804 -105.599999 
L 173.862439 -105.599999 
L 173.550939 -105.599999 
L 173.328763 -105.599999 
L 173.184296 -105.599999 
L 173.107795 -105.599999 
L 173.091252 -105.599999 
L 173.128196 -105.599999 
L 173.21344 -105.599998 
L 173.342807 -105.599998 
L 173.512837 -105.599998 
L 173.720496 -105.599998 
L 173.962903 -105.599998 
L 174.237066 -105.599998 
L 174.539668 -105.599998 
L 174.866888 -105.599998 
L 175.214269 -105.599998 
L 175.576648 -105.599998 
L 175.948142 -105.599998 
L 176.322198 -105.599998 
L 176.691694 -105.599998 
L 177.049106 -105.599998 
L 177.386714 -105.599998 
L 177.696842 -105.599998 
L 177.97213 -105.599998 
L 178.205804 -105.599998 
L 178.391945 -105.599998 
L 178.525727 -105.599998 
L 178.603626 -105.599998 
L 178.623564 -105.599998 
L 178.585004 -105.599998 
L 178.488969 -105.599998 
L 178.337999 -105.599997 
L 178.136036 -105.599997 
L 177.888254 -105.599997 
L 177.600839 -105.599997 
L 177.280732 -105.599997 
L 176.93535 -105.599997 
L 176.572307 -105.599997 
L 176.199134 -105.599997 
L 175.823034 -105.599997 
L 175.450658 -105.599997 
L 175.087936 -105.599997 
L 174.739941 -105.599997 
L 174.410818 -105.599997 
L 174.103744 -105.599997 
L 173.820948 -105.599997 
L 173.563754 -105.599997 
L 173.332668 -105.599997 
L 173.127475 -105.599997 
L 172.94736 -105.599997 
z
" style="stroke: #343434; stroke-opacity: 0.5; stroke-width: 1.5"/>
    </defs>
    <g clip-path="url(#pb8284d736a)">
     <use xlink:href="#me08bb74e8d" x="0" y="288" style="fill: #2f7e2f; fill-opacity: 0.5; stroke: #343434; stroke-opacity: 0.5; stroke-width: 1.5"/>
    </g>
   </g>
   <g id="matplotlib.axis_1">
    <g id="xtick_1">
     <g id="line2d_1">
      <defs>
       <path id="m2165273fed" d="M 0 0 
L 0 3.5 
" style="stroke: #000000; stroke-width: 0.8"/>
      </defs>
      <g>
       <use xlink:href="#m2165273fed" x="172.058824" y="256.32" style="stroke: #000000; stroke-width: 0.8"/>
      </g>
     </g>
     <g id="text_1">
      <!-- 0 -->
      <g transform="translate(168.877574 270.918437) scale(0.1 -0.1)">
       <defs>
        <path id="DejaVuSans-30" d="M 2034 4250 
Q 1547 4250 1301 3770 
Q 1056 3291 1056 2328 
Q 1056 1369 1301 889 
Q 1547 409 2034 409 
Q 2525 409 2770 889 
Q 3016 1369 3016 2328 
Q 3016 3291 2770 3770 
Q 2525 4250 2034 4250 
z
M 2034 4750 
Q 2819 4750 3233 4129 
Q 3647 3509 3647 2328 
Q 3647 1150 3233 529 
Q 2819 -91 2034 -91 
Q 1250 -91 836 529 
Q 422 1150 422 2328 
Q 422 3509 836 4129 
Q 1250 4750 2034 4750 
z
" transform="scale(0.015625)"/>
       </defs>
       <use xlink:href="#DejaVuSans-30"/>
      </g>
     </g>
    </g>
   </g>
   <g id="matplotlib.axis_2">
    <g id="ytick_1">
     <g id="line2d_2">
      <defs>
       <path id="m777a3c2302" d="M 0 0 
L -3.5 0 
" style="stroke: #000000; stroke-width: 0.8"/>
      </defs>
      <g>
       <use xlink:href="#m777a3c2302" x="90" y="256.32" style="stroke: #000000; stroke-width: 0.8"/>
      </g>
     </g>
     <g id="text_2">
      <!-- 0.0 -->
      <g transform="translate(67.096875 260.119219) scale(0.1 -0.1)">
       <defs>
        <path id="DejaVuSans-2e" d="M 684 794 
L 1344 794 
L 1344 0 
L 684 0 
L 684 794 
z
" transform="scale(0.015625)"/>
       </defs>
       <use xlink:href="#DejaVuSans-30"/>
       <use xlink:href="#DejaVuSans-2e" x="63.623047"/>
       <use xlink:href="#DejaVuSans-30" x="95.410156"/>
      </g>
     </g>
    </g>
    <g id="ytick_2">
     <g id="line2d_3">
      <g>
       <use xlink:href="#m777a3c2302" x="90" y="211.968" style="stroke: #000000; stroke-width: 0.8"/>
      </g>
     </g>
     <g id="text_3">
      <!-- 0.2 -->
      <g transform="translate(67.096875 215.767219) scale(0.1 -0.1)">
       <defs>
        <path id="DejaVuSans-32" d="M 1228 531 
L 3431 531 
L 3431 0 
L 469 0 
L 469 531 
Q 828 903 1448 1529 
Q 2069 2156 2228 2338 
Q 2531 2678 2651 2914 
Q 2772 3150 2772 3378 
Q 2772 3750 2511 3984 
Q 2250 4219 1831 4219 
Q 1534 4219 1204 4116 
Q 875 4013 500 3803 
L 500 4441 
Q 881 4594 1212 4672 
Q 1544 4750 1819 4750 
Q 2544 4750 2975 4387 
Q 3406 4025 3406 3419 
Q 3406 3131 3298 2873 
Q 3191 2616 2906 2266 
Q 2828 2175 2409 1742 
Q 1991 1309 1228 531 
z
" transform="scale(0.015625)"/>
       </defs>
       <use xlink:href="#DejaVuSans-30"/>
       <use xlink:href="#DejaVuSans-2e" x="63.623047"/>
       <use xlink:href="#DejaVuSans-32" x="95.410156"/>
      </g>
     </g>
    </g>
    <g id="ytick_3">
     <g id="line2d_4">
      <g>
       <use xlink:href="#m777a3c2302" x="90" y="167.616" style="stroke: #000000; stroke-width: 0.8"/>
      </g>
     </g>
     <g id="text_4">
      <!-- 0.4 -->
      <g transform="translate(67.096875 171.415219) scale(0.1 -0.1)">
       <defs>
        <path id="DejaVuSans-34" d="M 2419 4116 
L 825 1625 
L 2419 1625 
L 2419 4116 
z
M 2253 4666 
L 3047 4666 
L 3047 1625 
L 3713 1625 
L 3713 1100 
L 3047 1100 
L 3047 0 
L 2419 0 
L 2419 1100 
L 313 1100 
L 313 1709 
L 2253 4666 
z
" transform="scale(0.015625)"/>
       </defs>
       <use xlink:href="#DejaVuSans-30"/>
       <use xlink:href="#DejaVuSans-2e" x="63.623047"/>
       <use xlink:href="#DejaVuSans-34" x="95.410156"/>
      </g>
     </g>
    </g>
    <g id="ytick_4">
     <g id="line2d_5">
      <g>
       <use xlink:href="#m777a3c2302" x="90" y="123.264" style="stroke: #000000; stroke-width: 0.8"/>
      </g>
     </g>
     <g id="text_5">
      <!-- 0.6 -->
      <g transform="translate(67.096875 127.063219) scale(0.1 -0.1)">
       <defs>
        <path id="DejaVuSans-36" d="M 2113 2584 
Q 1688 2584 1439 2293 
Q 1191 2003 1191 1497 
Q 1191 994 1439 701 
Q 1688 409 2113 409 
Q 2538 409 2786 701 
Q 3034 994 3034 1497 
Q 3034 2003 2786 2293 
Q 2538 2584 2113 2584 
z
M 3366 4563 
L 3366 3988 
Q 3128 4100 2886 4159 
Q 2644 4219 2406 4219 
Q 1781 4219 1451 3797 
Q 1122 3375 1075 2522 
Q 1259 2794 1537 2939 
Q 1816 3084 2150 3084 
Q 2853 3084 3261 2657 
Q 3669 2231 3669 1497 
Q 3669 778 3244 343 
Q 2819 -91 2113 -91 
Q 1303 -91 875 529 
Q 447 1150 447 2328 
Q 447 3434 972 4092 
Q 1497 4750 2381 4750 
Q 2619 4750 2861 4703 
Q 3103 4656 3366 4563 
z
" transform="scale(0.015625)"/>
       </defs>
       <use xlink:href="#DejaVuSans-30"/>
       <use xlink:href="#DejaVuSans-2e" x="63.623047"/>
       <use xlink:href="#DejaVuSans-36" x="95.410156"/>
      </g>
     </g>
    </g>
    <g id="ytick_5">
     <g id="line2d_6">
      <g>
       <use xlink:href="#m777a3c2302" x="90" y="78.912" style="stroke: #000000; stroke-width: 0.8"/>
      </g>
     </g>
     <g id="text_6">
      <!-- 0.8 -->
      <g transform="translate(67.096875 82.711219) scale(0.1 -0.1)">
       <defs>
        <path id="DejaVuSans-38" d="M 2034 2216 
Q 1584 2216 1326 1975 
Q 1069 1734 1069 1313 
Q 1069 891 1326 650 
Q 1584 409 2034 409 
Q 2484 409 2743 651 
Q 3003 894 3003 1313 
Q 3003 1734 2745 1975 
Q 2488 2216 2034 2216 
z
M 1403 2484 
Q 997 2584 770 2862 
Q 544 3141 544 3541 
Q 544 4100 942 4425 
Q 1341 4750 2034 4750 
Q 2731 4750 3128 4425 
Q 3525 4100 3525 3541 
Q 3525 3141 3298 2862 
Q 3072 2584 2669 2484 
Q 3125 2378 3379 2068 
Q 3634 1759 3634 1313 
Q 3634 634 3220 271 
Q 2806 -91 2034 -91 
Q 1263 -91 848 271 
Q 434 634 434 1313 
Q 434 1759 690 2068 
Q 947 2378 1403 2484 
z
M 1172 3481 
Q 1172 3119 1398 2916 
Q 1625 2713 2034 2713 
Q 2441 2713 2670 2916 
Q 2900 3119 2900 3481 
Q 2900 3844 2670 4047 
Q 2441 4250 2034 4250 
Q 1625 4250 1398 4047 
Q 1172 3844 1172 3481 
z
" transform="scale(0.015625)"/>
       </defs>
       <use xlink:href="#DejaVuSans-30"/>
       <use xlink:href="#DejaVuSans-2e" x="63.623047"/>
       <use xlink:href="#DejaVuSans-38" x="95.410156"/>
      </g>
     </g>
    </g>
    <g id="ytick_6">
     <g id="line2d_7">
      <g>
       <use xlink:href="#m777a3c2302" x="90" y="34.56" style="stroke: #000000; stroke-width: 0.8"/>
      </g>
     </g>
     <g id="text_7">
      <!-- 1.0 -->
      <g transform="translate(67.096875 38.359219) scale(0.1 -0.1)">
       <defs>
        <path id="DejaVuSans-31" d="M 794 531 
L 1825 531 
L 1825 4091 
L 703 3866 
L 703 4441 
L 1819 4666 
L 2450 4666 
L 2450 531 
L 3481 531 
L 3481 0 
L 794 0 
L 794 531 
z
" transform="scale(0.015625)"/>
       </defs>
       <use xlink:href="#DejaVuSans-31"/>
       <use xlink:href="#DejaVuSans-2e" x="63.623047"/>
       <use xlink:href="#DejaVuSans-30" x="95.410156"/>
      </g>
     </g>
    </g>
    <g id="text_8">
     <!-- $p$ -->
     <g transform="translate(60.996875 148.64) rotate(-90) scale(0.1 -0.1)">
      <defs>
       <path id="DejaVuSans-Oblique-70" d="M 3175 2156 
Q 3175 2616 2975 2859 
Q 2775 3103 2400 3103 
Q 2144 3103 1911 2972 
Q 1678 2841 1497 2591 
Q 1319 2344 1212 1994 
Q 1106 1644 1106 1300 
Q 1106 863 1306 627 
Q 1506 391 1875 391 
Q 2147 391 2380 519 
Q 2613 647 2778 891 
Q 2956 1147 3065 1494 
Q 3175 1841 3175 2156 
z
M 1394 2969 
Q 1625 3272 1939 3428 
Q 2253 3584 2638 3584 
Q 3175 3584 3472 3232 
Q 3769 2881 3769 2247 
Q 3769 1728 3584 1258 
Q 3400 788 3053 416 
Q 2822 169 2531 39 
Q 2241 -91 1919 -91 
Q 1547 -91 1294 64 
Q 1041 219 916 525 
L 556 -1331 
L -19 -1331 
L 922 3500 
L 1497 3500 
L 1394 2969 
z
" transform="scale(0.015625)"/>
      </defs>
      <use xlink:href="#DejaVuSans-Oblique-70"/>
     </g>
    </g>
   </g>
   <g id="line2d_8">
    <path d="M 172.058824 182.4 
L 172.058824 182.4 
" clip-path="url(#pb8284d736a)" style="fill: none; stroke: #343434; stroke-width: 1.5; stroke-linecap: square"/>
   </g>
   <g id="line2d_9">
    <path d="M 172.058824 182.4 
L 172.058824 182.4 
" clip-path="url(#pb8284d736a)" style="fill: none; stroke: #343434; stroke-width: 4.5; stroke-linecap: square"/>
   </g>
   <g id="patch_3">
    <path d="M 90 256.32 
L 90 34.56 
" style="fill: none; stroke: #000000; stroke-width: 0.8; stroke-linejoin: miter; stroke-linecap: square"/>
   </g>
   <g id="patch_4">
    <path d="M 254.117647 256.32 
L 254.117647 34.56 
" style="fill: none; stroke: #000000; stroke-width: 0.8; stroke-linejoin: miter; stroke-linecap: square"/>
   </g>
   <g id="patch_5">
    <path d="M 90 256.32 
L 254.117647 256.32 
" style="fill: none; stroke: #000000; stroke-width: 0.8; stroke-linejoin: miter; stroke-linecap: square"/>
   </g>
   <g id="patch_6">
    <path d="M 90 34.56 
L 254.117647 34.56 
" style="fill: none; stroke: #000000; stroke-width: 0.8; stroke-linejoin: miter; stroke-linecap: square"/>
   </g>
   <g id="PathCollection_1">
    <defs>
     <path id="mf434977244" d="M 0 1.5 
C 0.397805 1.5 0.77937 1.341951 1.06066 1.06066 
C 1.341951 0.77937 1.5 0.397805 1.5 0 
C 1.5 -0.397805 1.341951 -0.77937 1.06066 -1.06066 
C 0.77937 -1.341951 0.397805 -1.5 0 -1.5 
C -0.397805 -1.5 -0.77937 -1.341951 -1.06066 -1.06066 
C -1.341951 -0.77937 -1.5 -0.397805 -1.5 0 
C -1.5 0.397805 -1.341951 0.77937 -1.06066 1.06066 
C -0.77937 1.341951 -0.397805 1.5 0 1.5 
z
" style="stroke: #343434; stroke-opacity: 0.5"/>
    </defs>
    <g clip-path="url(#pb8284d736a)">
     <use xlink:href="#mf434977244" x="172.058824" y="182.4" style="fill: #ffffff; fill-opacity: 0.5; stroke: #343434; stroke-opacity: 0.5"/>
    </g>
   </g>
   <g id="text_9">
    <!-- win -->
    <g transform="translate(161.682574 28.56) scale(0.12 -0.12)">
     <defs>
      <path id="DejaVuSans-77" d="M 269 3500 
L 844 3500 
L 1563 769 
L 2278 3500 
L 2956 3500 
L 3675 769 
L 4391 3500 
L 4966 3500 
L 4050 0 
L 3372 0 
L 2619 2869 
L 1863 0 
L 1184 0 
L 269 3500 
z
" transform="scale(0.015625)"/>
      <path id="DejaVuSans-69" d="M 603 3500 
L 1178 3500 
L 1178 0 
L 603 0 
L 603 3500 
z
M 603 4863 
L 1178 4863 
L 1178 4134 
L 603 4134 
L 603 4863 
z
" transform="scale(0.015625)"/>
      <path id="DejaVuSans-6e" d="M 3513 2113 
L 3513 0 
L 2938 0 
L 2938 2094 
Q 2938 2591 2744 2837 
Q 2550 3084 2163 3084 
Q 1697 3084 1428 2787 
Q 1159 2491 1159 1978 
L 1159 0 
L 581 0 
L 581 3500 
L 1159 3500 
L 1159 2956 
Q 1366 3272 1645 3428 
Q 1925 3584 2291 3584 
Q 2894 3584 3203 3211 
Q 3513 2838 3513 2113 
z
" transform="scale(0.015625)"/>
     </defs>
     <use xlink:href="#DejaVuSans-77"/>
     <use xlink:href="#DejaVuSans-69" x="81.787109"/>
     <use xlink:href="#DejaVuSans-6e" x="109.570312"/>
    </g>
   </g>
  </g>
  <g id="axes_2">
   <g id="patch_7">
    <path d="M 286.941176 256.32 
L 451.058824 256.32 
L 451.058824 34.56 
L 286.941176 34.56 
z
" style="fill: #ffffff"/>
   </g>
   <g id="PolyCollection_2">
    <defs>
     <path id="mc27fadabfd" d="M 369.888537 -105.599997 
L 368.111463 -105.599997 
L 367.931349 -105.599997 
L 367.726156 -105.599997 
L 367.495069 -105.599997 
L 367.237876 -105.599997 
L 366.955079 -105.599997 
L 366.648006 -105.599997 
L 366.318882 -105.599997 
L 365.970888 -105.599997 
L 365.608165 -105.599997 
L 365.23579 -105.599997 
L 364.859689 -105.599997 
L 364.486517 -105.599997 
L 364.123473 -105.599997 
L 363.778092 -105.599997 
L 363.457985 -105.599997 
L 363.17057 -105.599997 
L 362.922788 -105.599997 
L 362.720825 -105.599997 
L 362.569854 -105.599998 
L 362.473819 -105.599998 
L 362.435259 -105.599998 
L 362.455197 -105.599998 
L 362.533096 -105.599998 
L 362.666879 -105.599998 
L 362.85302 -105.599998 
L 363.086694 -105.599998 
L 363.361981 -105.599998 
L 363.67211 -105.599998 
L 364.009717 -105.599998 
L 364.36713 -105.599998 
L 364.736626 -105.599998 
L 365.110681 -105.599998 
L 365.482176 -105.599998 
L 365.844554 -105.599998 
L 366.191935 -105.599998 
L 366.519155 -105.599998 
L 366.821758 -105.599998 
L 367.095921 -105.599998 
L 367.338327 -105.599998 
L 367.545987 -105.599998 
L 367.716016 -105.599998 
L 367.845383 -105.599998 
L 367.930627 -105.599999 
L 367.967571 -105.599999 
L 367.951029 -105.599999 
L 367.874527 -105.599999 
L 367.73006 -105.599999 
L 367.507884 -105.599999 
L 367.196385 -105.599999 
L 366.782019 -105.599999 
L 366.249374 -105.599999 
L 365.581339 -105.599999 
L 364.759429 -105.599999 
L 363.764266 -105.599999 
L 362.576217 -105.599999 
L 361.176214 -105.599999 
L 359.546715 -105.599999 
L 357.672811 -105.599999 
L 355.543421 -105.599999 
L 353.152546 -105.599999 
L 350.500502 -105.599999 
L 347.595068 -105.599999 
L 344.452465 -105.599999 
L 341.098086 -105.599999 
L 337.566893 -105.599999 
L 333.903412 -105.6 
L 330.161269 -105.6 
L 326.402253 -105.6 
L 322.694877 -105.6 
L 319.11248 -105.6 
L 315.730947 -105.6 
L 312.626097 -105.6 
L 309.870907 -105.6 
L 307.532683 -105.6 
L 305.670334 -105.6 
L 304.331912 -105.6 
L 303.552552 -105.6 
L 303.352941 -105.6 
L 303.738404 -105.6 
L 304.698669 -105.6 
L 306.208321 -105.6 
L 308.227923 -105.6 
L 310.705724 -105.6 
L 313.579862 -105.6 
L 316.780928 -105.6 
L 320.234739 -105.6 
L 323.86517 -105.6 
L 327.596895 -105.6 
L 331.357897 -105.6 
L 335.081653 -105.600001 
L 338.708879 -105.600001 
L 342.188823 -105.600001 
L 345.480058 -105.600001 
L 348.550793 -105.600001 
L 351.378756 -105.600001 
L 353.950694 -105.600001 
L 356.261559 -105.600001 
L 358.31349 -105.600001 
L 360.114632 -105.600001 
L 377.885368 -105.600001 
L 377.885368 -105.600001 
L 379.68651 -105.600001 
L 381.738441 -105.600001 
L 384.049306 -105.600001 
L 386.621244 -105.600001 
L 389.449207 -105.600001 
L 392.519942 -105.600001 
L 395.811177 -105.600001 
L 399.291121 -105.600001 
L 402.918347 -105.600001 
L 406.642103 -105.6 
L 410.403105 -105.6 
L 414.13483 -105.6 
L 417.765261 -105.6 
L 421.219072 -105.6 
L 424.420138 -105.6 
L 427.294276 -105.6 
L 429.772077 -105.6 
L 431.791679 -105.6 
L 433.301331 -105.6 
L 434.261596 -105.6 
L 434.647059 -105.6 
L 434.447448 -105.6 
L 433.668088 -105.6 
L 432.329666 -105.6 
L 430.467317 -105.6 
L 428.129093 -105.6 
L 425.373903 -105.6 
L 422.269053 -105.6 
L 418.88752 -105.6 
L 415.305123 -105.6 
L 411.597747 -105.6 
L 407.838731 -105.6 
L 404.096588 -105.6 
L 400.433107 -105.599999 
L 396.901914 -105.599999 
L 393.547535 -105.599999 
L 390.404932 -105.599999 
L 387.499498 -105.599999 
L 384.847454 -105.599999 
L 382.456579 -105.599999 
L 380.327189 -105.599999 
L 378.453285 -105.599999 
L 376.823786 -105.599999 
L 375.423783 -105.599999 
L 374.235734 -105.599999 
L 373.240571 -105.599999 
L 372.418661 -105.599999 
L 371.750626 -105.599999 
L 371.217981 -105.599999 
L 370.803615 -105.599999 
L 370.492116 -105.599999 
L 370.26994 -105.599999 
L 370.125473 -105.599999 
L 370.048971 -105.599999 
L 370.032429 -105.599999 
L 370.069373 -105.599999 
L 370.154617 -105.599998 
L 370.283984 -105.599998 
L 370.454013 -105.599998 
L 370.661673 -105.599998 
L 370.904079 -105.599998 
L 371.178242 -105.599998 
L 371.480845 -105.599998 
L 371.808065 -105.599998 
L 372.155446 -105.599998 
L 372.517824 -105.599998 
L 372.889319 -105.599998 
L 373.263374 -105.599998 
L 373.63287 -105.599998 
L 373.990283 -105.599998 
L 374.32789 -105.599998 
L 374.638019 -105.599998 
L 374.913306 -105.599998 
L 375.14698 -105.599998 
L 375.333121 -105.599998 
L 375.466904 -105.599998 
L 375.544803 -105.599998 
L 375.564741 -105.599998 
L 375.526181 -105.599998 
L 375.430146 -105.599998 
L 375.279175 -105.599997 
L 375.077212 -105.599997 
L 374.82943 -105.599997 
L 374.542015 -105.599997 
L 374.221908 -105.599997 
L 373.876527 -105.599997 
L 373.513483 -105.599997 
L 373.140311 -105.599997 
L 372.76421 -105.599997 
L 372.391835 -105.599997 
L 372.029112 -105.599997 
L 371.681118 -105.599997 
L 371.351994 -105.599997 
L 371.044921 -105.599997 
L 370.762124 -105.599997 
L 370.504931 -105.599997 
L 370.273844 -105.599997 
L 370.068651 -105.599997 
L 369.888537 -105.599997 
z
" style="stroke: #646464; stroke-width: 1.5"/>
    </defs>
    <g clip-path="url(#p9eae41e8c7)">
     <use xlink:href="#mc27fadabfd" x="0" y="288" style="fill: #e98966; stroke: #646464; stroke-width: 1.5"/>
    </g>
   </g>
   <g id="matplotlib.axis_3">
    <g id="xtick_2">
     <g id="line2d_10">
      <g>
       <use xlink:href="#m2165273fed" x="369" y="256.32" style="stroke: #000000; stroke-width: 0.8"/>
      </g>
     </g>
     <g id="text_10">
      <!-- 0 -->
      <g transform="translate(365.81875 270.918437) scale(0.1 -0.1)">
       <use xlink:href="#DejaVuSans-30"/>
      </g>
     </g>
    </g>
   </g>
   <g id="matplotlib.axis_4">
    <g id="ytick_7">
     <g id="line2d_11">
      <g>
       <use xlink:href="#m777a3c2302" x="286.941176" y="256.32" style="stroke: #000000; stroke-width: 0.8"/>
      </g>
     </g>
     <g id="text_11">
      <!-- 0.0 -->
      <g transform="translate(264.038051 260.119219) scale(0.1 -0.1)">
       <use xlink:href="#DejaVuSans-30"/>
       <use xlink:href="#DejaVuSans-2e" x="63.623047"/>
       <use xlink:href="#DejaVuSans-30" x="95.410156"/>
      </g>
     </g>
    </g>
    <g id="ytick_8">
     <g id="line2d_12">
      <g>
       <use xlink:href="#m777a3c2302" x="286.941176" y="211.968" style="stroke: #000000; stroke-width: 0.8"/>
      </g>
     </g>
     <g id="text_12">
      <!-- 0.2 -->
      <g transform="translate(264.038051 215.767219) scale(0.1 -0.1)">
       <use xlink:href="#DejaVuSans-30"/>
       <use xlink:href="#DejaVuSans-2e" x="63.623047"/>
       <use xlink:href="#DejaVuSans-32" x="95.410156"/>
      </g>
     </g>
    </g>
    <g id="ytick_9">
     <g id="line2d_13">
      <g>
       <use xlink:href="#m777a3c2302" x="286.941176" y="167.616" style="stroke: #000000; stroke-width: 0.8"/>
      </g>
     </g>
     <g id="text_13">
      <!-- 0.4 -->
      <g transform="translate(264.038051 171.415219) scale(0.1 -0.1)">
       <use xlink:href="#DejaVuSans-30"/>
       <use xlink:href="#DejaVuSans-2e" x="63.623047"/>
       <use xlink:href="#DejaVuSans-34" x="95.410156"/>
      </g>
     </g>
    </g>
    <g id="ytick_10">
     <g id="line2d_14">
      <g>
       <use xlink:href="#m777a3c2302" x="286.941176" y="123.264" style="stroke: #000000; stroke-width: 0.8"/>
      </g>
     </g>
     <g id="text_14">
      <!-- 0.6 -->
      <g transform="translate(264.038051 127.063219) scale(0.1 -0.1)">
       <use xlink:href="#DejaVuSans-30"/>
       <use xlink:href="#DejaVuSans-2e" x="63.623047"/>
       <use xlink:href="#DejaVuSans-36" x="95.410156"/>
      </g>
     </g>
    </g>
    <g id="ytick_11">
     <g id="line2d_15">
      <g>
       <use xlink:href="#m777a3c2302" x="286.941176" y="78.912" style="stroke: #000000; stroke-width: 0.8"/>
      </g>
     </g>
     <g id="text_15">
      <!-- 0.8 -->
      <g transform="translate(264.038051 82.711219) scale(0.1 -0.1)">
       <use xlink:href="#DejaVuSans-30"/>
       <use xlink:href="#DejaVuSans-2e" x="63.623047"/>
       <use xlink:href="#DejaVuSans-38" x="95.410156"/>
      </g>
     </g>
    </g>
    <g id="ytick_12">
     <g id="line2d_16">
      <g>
       <use xlink:href="#m777a3c2302" x="286.941176" y="34.56" style="stroke: #000000; stroke-width: 0.8"/>
      </g>
     </g>
     <g id="text_16">
      <!-- 1.0 -->
      <g transform="translate(264.038051 38.359219) scale(0.1 -0.1)">
       <use xlink:href="#DejaVuSans-31"/>
       <use xlink:href="#DejaVuSans-2e" x="63.623047"/>
       <use xlink:href="#DejaVuSans-30" x="95.410156"/>
      </g>
     </g>
    </g>
   </g>
   <g id="line2d_17">
    <path d="M 369 182.4 
L 369 182.4 
" clip-path="url(#p9eae41e8c7)" style="fill: none; stroke: #646464; stroke-width: 1.5; stroke-linecap: square"/>
   </g>
   <g id="line2d_18">
    <path d="M 369 182.4 
L 369 182.4 
" clip-path="url(#p9eae41e8c7)" style="fill: none; stroke: #646464; stroke-width: 4.5; stroke-linecap: square"/>
   </g>
   <g id="patch_8">
    <path d="M 286.941176 256.32 
L 286.941176 34.56 
" style="fill: none; stroke: #000000; stroke-width: 0.8; stroke-linejoin: miter; stroke-linecap: square"/>
   </g>
   <g id="patch_9">
    <path d="M 451.058824 256.32 
L 451.058824 34.56 
" style="fill: none; stroke: #000000; stroke-width: 0.8; stroke-linejoin: miter; stroke-linecap: square"/>
   </g>
   <g id="patch_10">
    <path d="M 286.941176 256.32 
L 451.058824 256.32 
" style="fill: none; stroke: #000000; stroke-width: 0.8; stroke-linejoin: miter; stroke-linecap: square"/>
   </g>
   <g id="patch_11">
    <path d="M 286.941176 34.56 
L 451.058824 34.56 
" style="fill: none; stroke: #000000; stroke-width: 0.8; stroke-linejoin: miter; stroke-linecap: square"/>
   </g>
   <g id="PathCollection_2">
    <defs>
     <path id="md6eceac9aa" d="M 0 1.5 
C 0.397805 1.5 0.77937 1.341951 1.06066 1.06066 
C 1.341951 0.77937 1.5 0.397805 1.5 0 
C 1.5 -0.397805 1.341951 -0.77937 1.06066 -1.06066 
C 0.77937 -1.341951 0.397805 -1.5 0 -1.5 
C -0.397805 -1.5 -0.77937 -1.341951 -1.06066 -1.06066 
C -1.341951 -0.77937 -1.5 -0.397805 -1.5 0 
C -1.5 0.397805 -1.341951 0.77937 -1.06066 1.06066 
C -0.77937 1.341951 -0.397805 1.5 0 1.5 
z
" style="stroke: #646464"/>
    </defs>
    <g clip-path="url(#p9eae41e8c7)">
     <use xlink:href="#md6eceac9aa" x="369" y="182.4" style="fill: #ffffff; stroke: #646464"/>
    </g>
   </g>
   <g id="text_17">
    <!-- loss -->
    <g transform="translate(357.410625 28.56) scale(0.12 -0.12)">
     <defs>
      <path id="DejaVuSans-6c" d="M 603 4863 
L 1178 4863 
L 1178 0 
L 603 0 
L 603 4863 
z
" transform="scale(0.015625)"/>
      <path id="DejaVuSans-6f" d="M 1959 3097 
Q 1497 3097 1228 2736 
Q 959 2375 959 1747 
Q 959 1119 1226 758 
Q 1494 397 1959 397 
Q 2419 397 2687 759 
Q 2956 1122 2956 1747 
Q 2956 2369 2687 2733 
Q 2419 3097 1959 3097 
z
M 1959 3584 
Q 2709 3584 3137 3096 
Q 3566 2609 3566 1747 
Q 3566 888 3137 398 
Q 2709 -91 1959 -91 
Q 1206 -91 779 398 
Q 353 888 353 1747 
Q 353 2609 779 3096 
Q 1206 3584 1959 3584 
z
" transform="scale(0.015625)"/>
      <path id="DejaVuSans-73" d="M 2834 3397 
L 2834 2853 
Q 2591 2978 2328 3040 
Q 2066 3103 1784 3103 
Q 1356 3103 1142 2972 
Q 928 2841 928 2578 
Q 928 2378 1081 2264 
Q 1234 2150 1697 2047 
L 1894 2003 
Q 2506 1872 2764 1633 
Q 3022 1394 3022 966 
Q 3022 478 2636 193 
Q 2250 -91 1575 -91 
Q 1294 -91 989 -36 
Q 684 19 347 128 
L 347 722 
Q 666 556 975 473 
Q 1284 391 1588 391 
Q 1994 391 2212 530 
Q 2431 669 2431 922 
Q 2431 1156 2273 1281 
Q 2116 1406 1581 1522 
L 1381 1569 
Q 847 1681 609 1914 
Q 372 2147 372 2553 
Q 372 3047 722 3315 
Q 1072 3584 1716 3584 
Q 2034 3584 2315 3537 
Q 2597 3491 2834 3397 
z
" transform="scale(0.015625)"/>
     </defs>
     <use xlink:href="#DejaVuSans-6c"/>
     <use xlink:href="#DejaVuSans-6f" x="27.783203"/>
     <use xlink:href="#DejaVuSans-73" x="88.964844"/>
     <use xlink:href="#DejaVuSans-73" x="141.064453"/>
    </g>
   </g>
  </g>
  <g id="axes_3">
   <g id="patch_12">
    <path d="M 483.882353 256.32 
L 648 256.32 
L 648 34.56 
L 483.882353 34.56 
z
" style="fill: #ffffff"/>
   </g>
   <g id="PolyCollection_3">
    <defs>
     <path id="m29548a7391" d="M 574.826544 -105.599998 
L 557.055809 -105.599998 
L 555.254666 -105.599998 
L 553.202736 -105.599998 
L 550.89187 -105.599998 
L 548.319933 -105.599999 
L 545.491969 -105.599999 
L 542.421235 -105.599999 
L 539.13 -105.599999 
L 535.650055 -105.599999 
L 532.022829 -105.599999 
L 528.299074 -105.599999 
L 524.538071 -105.599999 
L 520.806347 -105.599999 
L 517.175916 -105.599999 
L 513.722104 -105.599999 
L 510.521038 -105.599999 
L 507.6469 -105.6 
L 505.1691 -105.6 
L 503.149498 -105.6 
L 501.639845 -105.6 
L 500.679581 -105.6 
L 500.294118 -105.6 
L 500.493729 -105.6 
L 501.273088 -105.6 
L 502.61151 -105.6 
L 504.47386 -105.6 
L 506.812084 -105.6 
L 509.567274 -105.6 
L 512.672124 -105.600001 
L 516.053658 -105.600001 
L 519.636053 -105.600001 
L 523.343429 -105.600001 
L 527.102445 -105.600001 
L 530.844588 -105.600001 
L 534.50807 -105.600001 
L 538.039263 -105.600001 
L 541.393641 -105.600001 
L 544.536244 -105.600001 
L 547.441678 -105.600001 
L 550.093722 -105.600002 
L 552.484597 -105.600002 
L 554.613988 -105.600002 
L 556.487892 -105.600002 
L 558.117391 -105.600002 
L 559.517394 -105.600002 
L 560.705442 -105.600002 
L 561.700606 -105.600002 
L 562.522515 -105.600002 
L 563.190551 -105.600002 
L 563.723196 -105.600002 
L 564.137561 -105.600002 
L 564.449061 -105.600003 
L 564.671237 -105.600003 
L 564.815704 -105.600003 
L 564.892205 -105.600003 
L 564.908748 -105.600003 
L 564.871804 -105.600003 
L 564.78656 -105.600003 
L 564.657193 -105.600003 
L 564.487163 -105.600003 
L 564.279504 -105.600003 
L 564.037097 -105.600003 
L 563.762934 -105.600003 
L 563.460332 -105.600004 
L 563.133112 -105.600004 
L 562.785731 -105.600004 
L 562.423352 -105.600004 
L 562.051858 -105.600004 
L 561.677802 -105.600004 
L 561.308306 -105.600004 
L 560.950894 -105.600004 
L 560.613286 -105.600004 
L 560.303158 -105.600004 
L 560.02787 -105.600004 
L 559.794196 -105.600004 
L 559.608055 -105.600005 
L 559.474273 -105.600005 
L 559.396374 -105.600005 
L 559.376436 -105.600005 
L 559.414996 -105.600005 
L 559.511031 -105.600005 
L 559.662001 -105.600005 
L 559.863964 -105.600005 
L 560.111746 -105.600005 
L 560.399161 -105.600005 
L 560.719268 -105.600005 
L 561.06465 -105.600005 
L 561.427693 -105.600006 
L 561.800866 -105.600006 
L 562.176966 -105.600006 
L 562.549342 -105.600006 
L 562.912064 -105.600006 
L 563.260059 -105.600006 
L 563.589182 -105.600006 
L 563.896256 -105.600006 
L 564.179052 -105.600006 
L 564.436246 -105.600006 
L 564.667332 -105.600006 
L 564.872525 -105.600006 
L 565.05264 -105.600007 
L 566.829713 -105.600007 
L 566.829713 -105.600007 
L 567.009828 -105.600006 
L 567.215021 -105.600006 
L 567.446107 -105.600006 
L 567.703301 -105.600006 
L 567.986097 -105.600006 
L 568.293171 -105.600006 
L 568.622294 -105.600006 
L 568.970289 -105.600006 
L 569.333011 -105.600006 
L 569.705387 -105.600006 
L 570.081487 -105.600006 
L 570.45466 -105.600006 
L 570.817703 -105.600005 
L 571.163085 -105.600005 
L 571.483192 -105.600005 
L 571.770607 -105.600005 
L 572.018388 -105.600005 
L 572.220352 -105.600005 
L 572.371322 -105.600005 
L 572.467357 -105.600005 
L 572.505917 -105.600005 
L 572.485979 -105.600005 
L 572.40808 -105.600005 
L 572.274298 -105.600005 
L 572.088157 -105.600004 
L 571.854483 -105.600004 
L 571.579195 -105.600004 
L 571.269067 -105.600004 
L 570.931459 -105.600004 
L 570.574047 -105.600004 
L 570.204551 -105.600004 
L 569.830495 -105.600004 
L 569.459001 -105.600004 
L 569.096622 -105.600004 
L 568.749241 -105.600004 
L 568.422021 -105.600004 
L 568.119419 -105.600003 
L 567.845256 -105.600003 
L 567.602849 -105.600003 
L 567.39519 -105.600003 
L 567.22516 -105.600003 
L 567.095793 -105.600003 
L 567.010549 -105.600003 
L 566.973605 -105.600003 
L 566.990148 -105.600003 
L 567.066649 -105.600003 
L 567.211116 -105.600003 
L 567.433292 -105.600003 
L 567.744792 -105.600002 
L 568.159157 -105.600002 
L 568.691802 -105.600002 
L 569.359837 -105.600002 
L 570.181747 -105.600002 
L 571.176911 -105.600002 
L 572.364959 -105.600002 
L 573.764962 -105.600002 
L 575.394461 -105.600002 
L 577.268365 -105.600002 
L 579.397756 -105.600002 
L 581.788631 -105.600002 
L 584.440674 -105.600001 
L 587.346109 -105.600001 
L 590.488712 -105.600001 
L 593.84309 -105.600001 
L 597.374283 -105.600001 
L 601.037765 -105.600001 
L 604.779908 -105.600001 
L 608.538924 -105.600001 
L 612.2463 -105.600001 
L 615.828695 -105.600001 
L 619.210229 -105.600001 
L 622.315079 -105.6 
L 625.070269 -105.6 
L 627.408493 -105.6 
L 629.270843 -105.6 
L 630.609265 -105.6 
L 631.388624 -105.6 
L 631.588235 -105.6 
L 631.202772 -105.6 
L 630.242508 -105.6 
L 628.732855 -105.6 
L 626.713253 -105.6 
L 624.235453 -105.6 
L 621.361315 -105.599999 
L 618.160249 -105.599999 
L 614.706437 -105.599999 
L 611.076006 -105.599999 
L 607.344282 -105.599999 
L 603.583279 -105.599999 
L 599.859524 -105.599999 
L 596.232298 -105.599999 
L 592.752353 -105.599999 
L 589.461118 -105.599999 
L 586.390384 -105.599999 
L 583.56242 -105.599999 
L 580.990483 -105.599998 
L 578.679617 -105.599998 
L 576.627687 -105.599998 
L 574.826544 -105.599998 
z
" style="stroke: #3f3f3f; stroke-width: 1.5"/>
    </defs>
    <g clip-path="url(#p6e92c7d72f)">
     <use xlink:href="#m29548a7391" x="0" y="288" style="fill: #3274a1; stroke: #3f3f3f; stroke-width: 1.5"/>
    </g>
   </g>
   <g id="matplotlib.axis_5">
    <g id="xtick_3">
     <g id="line2d_19">
      <g>
       <use xlink:href="#m2165273fed" x="565.941176" y="256.32" style="stroke: #000000; stroke-width: 0.8"/>
      </g>
     </g>
     <g id="text_18">
      <!-- 0 -->
      <g transform="translate(562.759926 270.918437) scale(0.1 -0.1)">
       <use xlink:href="#DejaVuSans-30"/>
      </g>
     </g>
    </g>
   </g>
   <g id="matplotlib.axis_6">
    <g id="ytick_13">
     <g id="line2d_20">
      <g>
       <use xlink:href="#m777a3c2302" x="483.882353" y="256.32" style="stroke: #000000; stroke-width: 0.8"/>
      </g>
     </g>
     <g id="text_19">
      <!-- 0.0 -->
      <g transform="translate(460.979228 260.119219) scale(0.1 -0.1)">
       <use xlink:href="#DejaVuSans-30"/>
       <use xlink:href="#DejaVuSans-2e" x="63.623047"/>
       <use xlink:href="#DejaVuSans-30" x="95.410156"/>
      </g>
     </g>
    </g>
    <g id="ytick_14">
     <g id="line2d_21">
      <g>
       <use xlink:href="#m777a3c2302" x="483.882353" y="211.968" style="stroke: #000000; stroke-width: 0.8"/>
      </g>
     </g>
     <g id="text_20">
      <!-- 0.2 -->
      <g transform="translate(460.979228 215.767219) scale(0.1 -0.1)">
       <use xlink:href="#DejaVuSans-30"/>
       <use xlink:href="#DejaVuSans-2e" x="63.623047"/>
       <use xlink:href="#DejaVuSans-32" x="95.410156"/>
      </g>
     </g>
    </g>
    <g id="ytick_15">
     <g id="line2d_22">
      <g>
       <use xlink:href="#m777a3c2302" x="483.882353" y="167.616" style="stroke: #000000; stroke-width: 0.8"/>
      </g>
     </g>
     <g id="text_21">
      <!-- 0.4 -->
      <g transform="translate(460.979228 171.415219) scale(0.1 -0.1)">
       <use xlink:href="#DejaVuSans-30"/>
       <use xlink:href="#DejaVuSans-2e" x="63.623047"/>
       <use xlink:href="#DejaVuSans-34" x="95.410156"/>
      </g>
     </g>
    </g>
    <g id="ytick_16">
     <g id="line2d_23">
      <g>
       <use xlink:href="#m777a3c2302" x="483.882353" y="123.264" style="stroke: #000000; stroke-width: 0.8"/>
      </g>
     </g>
     <g id="text_22">
      <!-- 0.6 -->
      <g transform="translate(460.979228 127.063219) scale(0.1 -0.1)">
       <use xlink:href="#DejaVuSans-30"/>
       <use xlink:href="#DejaVuSans-2e" x="63.623047"/>
       <use xlink:href="#DejaVuSans-36" x="95.410156"/>
      </g>
     </g>
    </g>
    <g id="ytick_17">
     <g id="line2d_24">
      <g>
       <use xlink:href="#m777a3c2302" x="483.882353" y="78.912" style="stroke: #000000; stroke-width: 0.8"/>
      </g>
     </g>
     <g id="text_23">
      <!-- 0.8 -->
      <g transform="translate(460.979228 82.711219) scale(0.1 -0.1)">
       <use xlink:href="#DejaVuSans-30"/>
       <use xlink:href="#DejaVuSans-2e" x="63.623047"/>
       <use xlink:href="#DejaVuSans-38" x="95.410156"/>
      </g>
     </g>
    </g>
    <g id="ytick_18">
     <g id="line2d_25">
      <g>
       <use xlink:href="#m777a3c2302" x="483.882353" y="34.56" style="stroke: #000000; stroke-width: 0.8"/>
      </g>
     </g>
     <g id="text_24">
      <!-- 1.0 -->
      <g transform="translate(460.979228 38.359219) scale(0.1 -0.1)">
       <use xlink:href="#DejaVuSans-31"/>
       <use xlink:href="#DejaVuSans-2e" x="63.623047"/>
       <use xlink:href="#DejaVuSans-30" x="95.410156"/>
      </g>
     </g>
    </g>
   </g>
   <g id="line2d_26">
    <path d="M 565.941176 182.4 
L 565.941176 182.4 
" clip-path="url(#p6e92c7d72f)" style="fill: none; stroke: #3f3f3f; stroke-width: 1.5; stroke-linecap: square"/>
   </g>
   <g id="line2d_27">
    <path d="M 565.941176 182.4 
L 565.941176 182.4 
" clip-path="url(#p6e92c7d72f)" style="fill: none; stroke: #3f3f3f; stroke-width: 4.5; stroke-linecap: square"/>
   </g>
   <g id="patch_13">
    <path d="M 483.882353 256.32 
L 483.882353 34.56 
" style="fill: none; stroke: #000000; stroke-width: 0.8; stroke-linejoin: miter; stroke-linecap: square"/>
   </g>
   <g id="patch_14">
    <path d="M 648 256.32 
L 648 34.56 
" style="fill: none; stroke: #000000; stroke-width: 0.8; stroke-linejoin: miter; stroke-linecap: square"/>
   </g>
   <g id="patch_15">
    <path d="M 483.882353 256.32 
L 648 256.32 
" style="fill: none; stroke: #000000; stroke-width: 0.8; stroke-linejoin: miter; stroke-linecap: square"/>
   </g>
   <g id="patch_16">
    <path d="M 483.882353 34.56 
L 648 34.56 
" style="fill: none; stroke: #000000; stroke-width: 0.8; stroke-linejoin: miter; stroke-linecap: square"/>
   </g>
   <g id="PathCollection_3">
    <defs>
     <path id="m1d397e9931" d="M 0 1.5 
C 0.397805 1.5 0.77937 1.341951 1.06066 1.06066 
C 1.341951 0.77937 1.5 0.397805 1.5 0 
C 1.5 -0.397805 1.341951 -0.77937 1.06066 -1.06066 
C 0.77937 -1.341951 0.397805 -1.5 0 -1.5 
C -0.397805 -1.5 -0.77937 -1.341951 -1.06066 -1.06066 
C -1.341951 -0.77937 -1.5 -0.397805 -1.5 0 
C -1.5 0.397805 -1.341951 0.77937 -1.06066 1.06066 
C -0.77937 1.341951 -0.397805 1.5 0 1.5 
z
" style="stroke: #3f3f3f"/>
    </defs>
    <g clip-path="url(#p6e92c7d72f)">
     <use xlink:href="#m1d397e9931" x="565.941176" y="182.4" style="fill: #ffffff; stroke: #3f3f3f"/>
    </g>
   </g>
   <g id="text_25">
    <!-- keep budget -->
    <g transform="translate(528.310864 28.56) scale(0.12 -0.12)">
     <defs>
      <path id="DejaVuSans-6b" d="M 581 4863 
L 1159 4863 
L 1159 1991 
L 2875 3500 
L 3609 3500 
L 1753 1863 
L 3688 0 
L 2938 0 
L 1159 1709 
L 1159 0 
L 581 0 
L 581 4863 
z
" transform="scale(0.015625)"/>
      <path id="DejaVuSans-65" d="M 3597 1894 
L 3597 1613 
L 953 1613 
Q 991 1019 1311 708 
Q 1631 397 2203 397 
Q 2534 397 2845 478 
Q 3156 559 3463 722 
L 3463 178 
Q 3153 47 2828 -22 
Q 2503 -91 2169 -91 
Q 1331 -91 842 396 
Q 353 884 353 1716 
Q 353 2575 817 3079 
Q 1281 3584 2069 3584 
Q 2775 3584 3186 3129 
Q 3597 2675 3597 1894 
z
M 3022 2063 
Q 3016 2534 2758 2815 
Q 2500 3097 2075 3097 
Q 1594 3097 1305 2825 
Q 1016 2553 972 2059 
L 3022 2063 
z
" transform="scale(0.015625)"/>
      <path id="DejaVuSans-70" d="M 1159 525 
L 1159 -1331 
L 581 -1331 
L 581 3500 
L 1159 3500 
L 1159 2969 
Q 1341 3281 1617 3432 
Q 1894 3584 2278 3584 
Q 2916 3584 3314 3078 
Q 3713 2572 3713 1747 
Q 3713 922 3314 415 
Q 2916 -91 2278 -91 
Q 1894 -91 1617 61 
Q 1341 213 1159 525 
z
M 3116 1747 
Q 3116 2381 2855 2742 
Q 2594 3103 2138 3103 
Q 1681 3103 1420 2742 
Q 1159 2381 1159 1747 
Q 1159 1113 1420 752 
Q 1681 391 2138 391 
Q 2594 391 2855 752 
Q 3116 1113 3116 1747 
z
" transform="scale(0.015625)"/>
      <path id="DejaVuSans-20" transform="scale(0.015625)"/>
      <path id="DejaVuSans-62" d="M 3116 1747 
Q 3116 2381 2855 2742 
Q 2594 3103 2138 3103 
Q 1681 3103 1420 2742 
Q 1159 2381 1159 1747 
Q 1159 1113 1420 752 
Q 1681 391 2138 391 
Q 2594 391 2855 752 
Q 3116 1113 3116 1747 
z
M 1159 2969 
Q 1341 3281 1617 3432 
Q 1894 3584 2278 3584 
Q 2916 3584 3314 3078 
Q 3713 2572 3713 1747 
Q 3713 922 3314 415 
Q 2916 -91 2278 -91 
Q 1894 -91 1617 61 
Q 1341 213 1159 525 
L 1159 0 
L 581 0 
L 581 4863 
L 1159 4863 
L 1159 2969 
z
" transform="scale(0.015625)"/>
      <path id="DejaVuSans-75" d="M 544 1381 
L 544 3500 
L 1119 3500 
L 1119 1403 
Q 1119 906 1312 657 
Q 1506 409 1894 409 
Q 2359 409 2629 706 
Q 2900 1003 2900 1516 
L 2900 3500 
L 3475 3500 
L 3475 0 
L 2900 0 
L 2900 538 
Q 2691 219 2414 64 
Q 2138 -91 1772 -91 
Q 1169 -91 856 284 
Q 544 659 544 1381 
z
M 1991 3584 
L 1991 3584 
z
" transform="scale(0.015625)"/>
      <path id="DejaVuSans-64" d="M 2906 2969 
L 2906 4863 
L 3481 4863 
L 3481 0 
L 2906 0 
L 2906 525 
Q 2725 213 2448 61 
Q 2172 -91 1784 -91 
Q 1150 -91 751 415 
Q 353 922 353 1747 
Q 353 2572 751 3078 
Q 1150 3584 1784 3584 
Q 2172 3584 2448 3432 
Q 2725 3281 2906 2969 
z
M 947 1747 
Q 947 1113 1208 752 
Q 1469 391 1925 391 
Q 2381 391 2643 752 
Q 2906 1113 2906 1747 
Q 2906 2381 2643 2742 
Q 2381 3103 1925 3103 
Q 1469 3103 1208 2742 
Q 947 2381 947 1747 
z
" transform="scale(0.015625)"/>
      <path id="DejaVuSans-67" d="M 2906 1791 
Q 2906 2416 2648 2759 
Q 2391 3103 1925 3103 
Q 1463 3103 1205 2759 
Q 947 2416 947 1791 
Q 947 1169 1205 825 
Q 1463 481 1925 481 
Q 2391 481 2648 825 
Q 2906 1169 2906 1791 
z
M 3481 434 
Q 3481 -459 3084 -895 
Q 2688 -1331 1869 -1331 
Q 1566 -1331 1297 -1286 
Q 1028 -1241 775 -1147 
L 775 -588 
Q 1028 -725 1275 -790 
Q 1522 -856 1778 -856 
Q 2344 -856 2625 -561 
Q 2906 -266 2906 331 
L 2906 616 
Q 2728 306 2450 153 
Q 2172 0 1784 0 
Q 1141 0 747 490 
Q 353 981 353 1791 
Q 353 2603 747 3093 
Q 1141 3584 1784 3584 
Q 2172 3584 2450 3431 
Q 2728 3278 2906 2969 
L 2906 3500 
L 3481 3500 
L 3481 434 
z
" transform="scale(0.015625)"/>
      <path id="DejaVuSans-74" d="M 1172 4494 
L 1172 3500 
L 2356 3500 
L 2356 3053 
L 1172 3053 
L 1172 1153 
Q 1172 725 1289 603 
Q 1406 481 1766 481 
L 2356 481 
L 2356 0 
L 1766 0 
Q 1100 0 847 248 
Q 594 497 594 1153 
L 594 3053 
L 172 3053 
L 172 3500 
L 594 3500 
L 594 4494 
L 1172 4494 
z
" transform="scale(0.015625)"/>
     </defs>
     <use xlink:href="#DejaVuSans-6b"/>
     <use xlink:href="#DejaVuSans-65" x="54.285156"/>
     <use xlink:href="#DejaVuSans-65" x="115.808594"/>
     <use xlink:href="#DejaVuSans-70" x="177.332031"/>
     <use xlink:href="#DejaVuSans-20" x="240.808594"/>
     <use xlink:href="#DejaVuSans-62" x="272.595703"/>
     <use xlink:href="#DejaVuSans-75" x="336.072266"/>
     <use xlink:href="#DejaVuSans-64" x="399.451172"/>
     <use xlink:href="#DejaVuSans-67" x="462.927734"/>
     <use xlink:href="#DejaVuSans-65" x="526.404297"/>
     <use xlink:href="#DejaVuSans-74" x="587.927734"/>
    </g>
   </g>
  </g>
  <g id="text_26">
   <!-- $C$: high BDI score -->
   <g transform="translate(308.22 14.88) scale(0.12 -0.12)">
    <defs>
     <path id="DejaVuSans-Oblique-43" d="M 4447 4306 
L 4319 3641 
Q 4019 3944 3683 4091 
Q 3347 4238 2956 4238 
Q 2422 4238 2017 3981 
Q 1613 3725 1319 3200 
Q 1131 2863 1032 2486 
Q 934 2109 934 1728 
Q 934 1091 1264 756 
Q 1594 422 2222 422 
Q 2656 422 3056 561 
Q 3456 700 3834 978 
L 3688 231 
Q 3316 72 2936 -9 
Q 2556 -91 2175 -91 
Q 1278 -91 773 396 
Q 269 884 269 1753 
Q 269 2309 461 2846 
Q 653 3384 1013 3828 
Q 1394 4300 1883 4525 
Q 2372 4750 3022 4750 
Q 3422 4750 3780 4639 
Q 4138 4528 4447 4306 
z
" transform="scale(0.015625)"/>
     <path id="DejaVuSans-3a" d="M 750 794 
L 1409 794 
L 1409 0 
L 750 0 
L 750 794 
z
M 750 3309 
L 1409 3309 
L 1409 2516 
L 750 2516 
L 750 3309 
z
" transform="scale(0.015625)"/>
     <path id="DejaVuSans-68" d="M 3513 2113 
L 3513 0 
L 2938 0 
L 2938 2094 
Q 2938 2591 2744 2837 
Q 2550 3084 2163 3084 
Q 1697 3084 1428 2787 
Q 1159 2491 1159 1978 
L 1159 0 
L 581 0 
L 581 4863 
L 1159 4863 
L 1159 2956 
Q 1366 3272 1645 3428 
Q 1925 3584 2291 3584 
Q 2894 3584 3203 3211 
Q 3513 2838 3513 2113 
z
" transform="scale(0.015625)"/>
     <path id="DejaVuSans-42" d="M 1259 2228 
L 1259 519 
L 2272 519 
Q 2781 519 3026 730 
Q 3272 941 3272 1375 
Q 3272 1813 3026 2020 
Q 2781 2228 2272 2228 
L 1259 2228 
z
M 1259 4147 
L 1259 2741 
L 2194 2741 
Q 2656 2741 2882 2914 
Q 3109 3088 3109 3444 
Q 3109 3797 2882 3972 
Q 2656 4147 2194 4147 
L 1259 4147 
z
M 628 4666 
L 2241 4666 
Q 2963 4666 3353 4366 
Q 3744 4066 3744 3513 
Q 3744 3084 3544 2831 
Q 3344 2578 2956 2516 
Q 3422 2416 3680 2098 
Q 3938 1781 3938 1306 
Q 3938 681 3513 340 
Q 3088 0 2303 0 
L 628 0 
L 628 4666 
z
" transform="scale(0.015625)"/>
     <path id="DejaVuSans-44" d="M 1259 4147 
L 1259 519 
L 2022 519 
Q 2988 519 3436 956 
Q 3884 1394 3884 2338 
Q 3884 3275 3436 3711 
Q 2988 4147 2022 4147 
L 1259 4147 
z
M 628 4666 
L 1925 4666 
Q 3281 4666 3915 4102 
Q 4550 3538 4550 2338 
Q 4550 1131 3912 565 
Q 3275 0 1925 0 
L 628 0 
L 628 4666 
z
" transform="scale(0.015625)"/>
     <path id="DejaVuSans-49" d="M 628 4666 
L 1259 4666 
L 1259 0 
L 628 0 
L 628 4666 
z
" transform="scale(0.015625)"/>
     <path id="DejaVuSans-63" d="M 3122 3366 
L 3122 2828 
Q 2878 2963 2633 3030 
Q 2388 3097 2138 3097 
Q 1578 3097 1268 2742 
Q 959 2388 959 1747 
Q 959 1106 1268 751 
Q 1578 397 2138 397 
Q 2388 397 2633 464 
Q 2878 531 3122 666 
L 3122 134 
Q 2881 22 2623 -34 
Q 2366 -91 2075 -91 
Q 1284 -91 818 406 
Q 353 903 353 1747 
Q 353 2603 823 3093 
Q 1294 3584 2113 3584 
Q 2378 3584 2631 3529 
Q 2884 3475 3122 3366 
z
" transform="scale(0.015625)"/>
     <path id="DejaVuSans-72" d="M 2631 2963 
Q 2534 3019 2420 3045 
Q 2306 3072 2169 3072 
Q 1681 3072 1420 2755 
Q 1159 2438 1159 1844 
L 1159 0 
L 581 0 
L 581 3500 
L 1159 3500 
L 1159 2956 
Q 1341 3275 1631 3429 
Q 1922 3584 2338 3584 
Q 2397 3584 2469 3576 
Q 2541 3569 2628 3553 
L 2631 2963 
z
" transform="scale(0.015625)"/>
    </defs>
    <use xlink:href="#DejaVuSans-Oblique-43" transform="translate(0 0.015625)"/>
    <use xlink:href="#DejaVuSans-3a" transform="translate(69.824219 0.015625)"/>
    <use xlink:href="#DejaVuSans-20" transform="translate(103.515625 0.015625)"/>
    <use xlink:href="#DejaVuSans-68" transform="translate(135.302734 0.015625)"/>
    <use xlink:href="#DejaVuSans-69" transform="translate(198.681641 0.015625)"/>
    <use xlink:href="#DejaVuSans-67" transform="translate(226.464844 0.015625)"/>
    <use xlink:href="#DejaVuSans-68" transform="translate(289.941406 0.015625)"/>
    <use xlink:href="#DejaVuSans-20" transform="translate(353.320312 0.015625)"/>
    <use xlink:href="#DejaVuSans-42" transform="translate(385.107422 0.015625)"/>
    <use xlink:href="#DejaVuSans-44" transform="translate(453.710938 0.015625)"/>
    <use xlink:href="#DejaVuSans-49" transform="translate(530.712891 0.015625)"/>
    <use xlink:href="#DejaVuSans-20" transform="translate(560.205078 0.015625)"/>
    <use xlink:href="#DejaVuSans-73" transform="translate(591.992188 0.015625)"/>
    <use xlink:href="#DejaVuSans-63" transform="translate(644.091797 0.015625)"/>
    <use xlink:href="#DejaVuSans-6f" transform="translate(699.072266 0.015625)"/>
    <use xlink:href="#DejaVuSans-72" transform="translate(760.253906 0.015625)"/>
    <use xlink:href="#DejaVuSans-65" transform="translate(801.367188 0.015625)"/>
   </g>
  </g>
 </g>
 <defs>
  <clipPath id="pb8284d736a">
   <rect x="90" y="34.56" width="164.117647" height="221.76"/>
  </clipPath>
  <clipPath id="p9eae41e8c7">
   <rect x="286.941176" y="34.56" width="164.117647" height="221.76"/>
  </clipPath>
  <clipPath id="p6e92c7d72f">
   <rect x="483.882353" y="34.56" width="164.117647" height="221.76"/>
  </clipPath>
 </defs>
</svg>
