<?xml version="1.0" encoding="utf-8" standalone="no"?>
<!DOCTYPE svg PUBLIC "-//W3C//DTD SVG 1.1//EN"
  "http://www.w3.org/Graphics/SVG/1.1/DTD/svg11.dtd">
<svg xmlns:xlink="http://www.w3.org/1999/xlink" width="720pt" height="288pt" viewBox="0 0 720 288" xmlns="http://www.w3.org/2000/svg" version="1.1">
 <metadata>
  <rdf:RDF xmlns:dc="http://purl.org/dc/elements/1.1/" xmlns:cc="http://creativecommons.org/ns#" xmlns:rdf="http://www.w3.org/1999/02/22-rdf-syntax-ns#">
   <cc:Work>
    <dc:type rdf:resource="http://purl.org/dc/dcmitype/StillImage"/>
    <dc:date>2024-07-03T17:53:10.904043</dc:date>
    <dc:format>image/svg+xml</dc:format>
    <dc:creator>
     <cc:Agent>
      <dc:title>Matplotlib v3.7.2, https://matplotlib.org/</dc:title>
     </cc:Agent>
    </dc:creator>
   </cc:Work>
  </rdf:RDF>
 </metadata>
 <defs>
  <style type="text/css">*{stroke-linejoin: round; stroke-linecap: butt}</style>
 </defs>
 <g id="figure_1">
  <g id="patch_1">
   <path d="M 0 288 
L 720 288 
L 720 0 
L 0 0 
z
" style="fill: #ffffff"/>
  </g>
  <g id="axes_1">
   <g id="patch_2">
    <path d="M 90 256.32 
L 254.117647 256.32 
L 254.117647 34.56 
L 90 34.56 
z
" style="fill: #ffffff"/>
   </g>
   <g id="PolyCollection_1">
    <defs>
     <path id="m213c182da5" d="M 179.50076 -91.823035 
L 164.616887 -91.823035 
L 163.008435 -92.489158 
L 161.15534 -93.155281 
L 159.045531 -93.821404 
L 156.67229 -94.487526 
L 154.035505 -95.153649 
L 151.142825 -95.819772 
L 148.01061 -96.485894 
L 144.664596 -97.152017 
L 141.140199 -97.81814 
L 137.482379 -98.484263 
L 133.74502 -99.150385 
L 129.989807 -99.816508 
L 126.284616 -100.482631 
L 122.70146 -101.148753 
L 119.314075 -101.814876 
L 116.195261 -102.480999 
L 113.414115 -103.147122 
L 111.033308 -103.813244 
L 109.106569 -104.479367 
L 107.676508 -105.14549 
L 106.772938 -105.811613 
L 106.411765 -106.477735 
L 106.594524 -107.143858 
L 107.308584 -107.809981 
L 108.527983 -108.476103 
L 110.214841 -109.142226 
L 112.321241 -109.808349 
L 114.791454 -110.474472 
L 117.564369 -111.140594 
L 120.575977 -111.806717 
L 123.761769 -112.47284 
L 127.058932 -113.138963 
L 130.408239 -113.805085 
L 133.755568 -114.471208 
L 137.05302 -115.137331 
L 140.259618 -115.803453 
L 143.341614 -116.469576 
L 146.272453 -117.135699 
L 149.032443 -117.801822 
L 151.608202 -118.467944 
L 153.99195 -119.134067 
L 156.180714 -119.80019 
L 158.175502 -120.466312 
L 159.980495 -121.132435 
L 161.602289 -121.798558 
L 163.049214 -122.464681 
L 164.330744 -123.130803 
L 165.457004 -123.796926 
L 166.43836 -124.463049 
L 167.285104 -125.129172 
L 168.007207 -125.795294 
L 168.614139 -126.461417 
L 169.114755 -127.12754 
L 169.51722 -127.793662 
L 169.828983 -128.459785 
L 170.056795 -129.125908 
L 170.206754 -129.792031 
L 170.284397 -130.458153 
L 170.294806 -131.124276 
L 170.242759 -131.790399 
L 170.132879 -132.456522 
L 169.969812 -133.122644 
L 169.758399 -133.788767 
L 169.503835 -134.45489 
L 169.211815 -135.121012 
L 168.888638 -135.787135 
L 168.541271 -136.453258 
L 168.177358 -137.119381 
L 167.805164 -137.785503 
L 167.433464 -138.451626 
L 167.071367 -139.117749 
L 166.728086 -139.783872 
L 166.412662 -140.449994 
L 166.133672 -141.116117 
L 165.898908 -141.78224 
L 165.715088 -142.448362 
L 165.587576 -143.114485 
L 165.520162 -143.780608 
L 165.514909 -144.446731 
L 165.572063 -145.112853 
L 165.690058 -145.778976 
L 165.865596 -146.445099 
L 166.093814 -147.111221 
L 166.368507 -147.777344 
L 166.682418 -148.443467 
L 167.027557 -149.10959 
L 167.395537 -149.775712 
L 167.777915 -150.441835 
L 168.166501 -151.107958 
L 168.553641 -151.774081 
L 168.932448 -152.440203 
L 169.296971 -153.106326 
L 169.642314 -153.772449 
L 169.964686 -154.438571 
L 170.261399 -155.104694 
L 170.530818 -155.770817 
L 170.772271 -156.43694 
L 170.985924 -157.103062 
L 171.172649 -157.769185 
L 172.944998 -157.769185 
L 172.944998 -157.769185 
L 173.131723 -157.103062 
L 173.345376 -156.43694 
L 173.586829 -155.770817 
L 173.856248 -155.104694 
L 174.152961 -154.438571 
L 174.475333 -153.772449 
L 174.820676 -153.106326 
L 175.185199 -152.440203 
L 175.564006 -151.774081 
L 175.951146 -151.107958 
L 176.339732 -150.441835 
L 176.72211 -149.775712 
L 177.09009 -149.10959 
L 177.435229 -148.443467 
L 177.74914 -147.777344 
L 178.023833 -147.111221 
L 178.252051 -146.445099 
L 178.42759 -145.778976 
L 178.545584 -145.112853 
L 178.602738 -144.446731 
L 178.597485 -143.780608 
L 178.530071 -143.114485 
L 178.402559 -142.448362 
L 178.218739 -141.78224 
L 177.983976 -141.116117 
L 177.704985 -140.449994 
L 177.389561 -139.783872 
L 177.04628 -139.117749 
L 176.684183 -138.451626 
L 176.312483 -137.785503 
L 175.940289 -137.119381 
L 175.576376 -136.453258 
L 175.229009 -135.787135 
L 174.905832 -135.121012 
L 174.613812 -134.45489 
L 174.359248 -133.788767 
L 174.147835 -133.122644 
L 173.984768 -132.456522 
L 173.874888 -131.790399 
L 173.822841 -131.124276 
L 173.833251 -130.458153 
L 173.910893 -129.792031 
L 174.060852 -129.125908 
L 174.288664 -128.459785 
L 174.600427 -127.793662 
L 175.002892 -127.12754 
L 175.503508 -126.461417 
L 176.110441 -125.795294 
L 176.832543 -125.129172 
L 177.679287 -124.463049 
L 178.660643 -123.796926 
L 179.786903 -123.130803 
L 181.068433 -122.464681 
L 182.515358 -121.798558 
L 184.137152 -121.132435 
L 185.942145 -120.466312 
L 187.936933 -119.80019 
L 190.125697 -119.134067 
L 192.509445 -118.467944 
L 195.085204 -117.801822 
L 197.845194 -117.135699 
L 200.776033 -116.469576 
L 203.858029 -115.803453 
L 207.064627 -115.137331 
L 210.362079 -114.471208 
L 213.709409 -113.805085 
L 217.058715 -113.138963 
L 220.355878 -112.47284 
L 223.54167 -111.806717 
L 226.553278 -111.140594 
L 229.326193 -110.474472 
L 231.796406 -109.808349 
L 233.902806 -109.142226 
L 235.589664 -108.476103 
L 236.809063 -107.809981 
L 237.523123 -107.143858 
L 237.705882 -106.477735 
L 237.344709 -105.811613 
L 236.441139 -105.14549 
L 235.011078 -104.479367 
L 233.084339 -103.813244 
L 230.703533 -103.147122 
L 227.922386 -102.480999 
L 224.803572 -101.814876 
L 221.416187 -101.148753 
L 217.833031 -100.482631 
L 214.12784 -99.816508 
L 210.372627 -99.150385 
L 206.635268 -98.484263 
L 202.977448 -97.81814 
L 199.453051 -97.152017 
L 196.107037 -96.485894 
L 192.974822 -95.819772 
L 190.082142 -95.153649 
L 187.445357 -94.487526 
L 185.072116 -93.821404 
L 182.962307 -93.155281 
L 181.109212 -92.489158 
L 179.50076 -91.823035 
z
" style="stroke: #343434; stroke-opacity: 0.5; stroke-width: 1.5"/>
    </defs>
    <g clip-path="url(#p369adf733c)">
     <use xlink:href="#m213c182da5" x="0" y="288" style="fill: #2f7e2f; fill-opacity: 0.5; stroke: #343434; stroke-opacity: 0.5; stroke-width: 1.5"/>
    </g>
   </g>
   <g id="matplotlib.axis_1">
    <g id="xtick_1">
     <g id="line2d_1">
      <defs>
       <path id="m1d51f983c5" d="M 0 0 
L 0 3.5 
" style="stroke: #000000; stroke-width: 0.8"/>
      </defs>
      <g>
       <use xlink:href="#m1d51f983c5" x="172.058824" y="256.32" style="stroke: #000000; stroke-width: 0.8"/>
      </g>
     </g>
     <g id="text_1">
      <!-- 0 -->
      <g transform="translate(168.877574 270.918437) scale(0.1 -0.1)">
       <defs>
        <path id="DejaVuSans-30" d="M 2034 4250 
Q 1547 4250 1301 3770 
Q 1056 3291 1056 2328 
Q 1056 1369 1301 889 
Q 1547 409 2034 409 
Q 2525 409 2770 889 
Q 3016 1369 3016 2328 
Q 3016 3291 2770 3770 
Q 2525 4250 2034 4250 
z
M 2034 4750 
Q 2819 4750 3233 4129 
Q 3647 3509 3647 2328 
Q 3647 1150 3233 529 
Q 2819 -91 2034 -91 
Q 1250 -91 836 529 
Q 422 1150 422 2328 
Q 422 3509 836 4129 
Q 1250 4750 2034 4750 
z
" transform="scale(0.015625)"/>
       </defs>
       <use xlink:href="#DejaVuSans-30"/>
      </g>
     </g>
    </g>
   </g>
   <g id="matplotlib.axis_2">
    <g id="ytick_1">
     <g id="line2d_2">
      <defs>
       <path id="md66ef3ab63" d="M 0 0 
L -3.5 0 
" style="stroke: #000000; stroke-width: 0.8"/>
      </defs>
      <g>
       <use xlink:href="#md66ef3ab63" x="90" y="256.32" style="stroke: #000000; stroke-width: 0.8"/>
      </g>
     </g>
     <g id="text_2">
      <!-- 0.0 -->
      <g transform="translate(67.096875 260.119219) scale(0.1 -0.1)">
       <defs>
        <path id="DejaVuSans-2e" d="M 684 794 
L 1344 794 
L 1344 0 
L 684 0 
L 684 794 
z
" transform="scale(0.015625)"/>
       </defs>
       <use xlink:href="#DejaVuSans-30"/>
       <use xlink:href="#DejaVuSans-2e" x="63.623047"/>
       <use xlink:href="#DejaVuSans-30" x="95.410156"/>
      </g>
     </g>
    </g>
    <g id="ytick_2">
     <g id="line2d_3">
      <g>
       <use xlink:href="#md66ef3ab63" x="90" y="211.968" style="stroke: #000000; stroke-width: 0.8"/>
      </g>
     </g>
     <g id="text_3">
      <!-- 0.2 -->
      <g transform="translate(67.096875 215.767219) scale(0.1 -0.1)">
       <defs>
        <path id="DejaVuSans-32" d="M 1228 531 
L 3431 531 
L 3431 0 
L 469 0 
L 469 531 
Q 828 903 1448 1529 
Q 2069 2156 2228 2338 
Q 2531 2678 2651 2914 
Q 2772 3150 2772 3378 
Q 2772 3750 2511 3984 
Q 2250 4219 1831 4219 
Q 1534 4219 1204 4116 
Q 875 4013 500 3803 
L 500 4441 
Q 881 4594 1212 4672 
Q 1544 4750 1819 4750 
Q 2544 4750 2975 4387 
Q 3406 4025 3406 3419 
Q 3406 3131 3298 2873 
Q 3191 2616 2906 2266 
Q 2828 2175 2409 1742 
Q 1991 1309 1228 531 
z
" transform="scale(0.015625)"/>
       </defs>
       <use xlink:href="#DejaVuSans-30"/>
       <use xlink:href="#DejaVuSans-2e" x="63.623047"/>
       <use xlink:href="#DejaVuSans-32" x="95.410156"/>
      </g>
     </g>
    </g>
    <g id="ytick_3">
     <g id="line2d_4">
      <g>
       <use xlink:href="#md66ef3ab63" x="90" y="167.616" style="stroke: #000000; stroke-width: 0.8"/>
      </g>
     </g>
     <g id="text_4">
      <!-- 0.4 -->
      <g transform="translate(67.096875 171.415219) scale(0.1 -0.1)">
       <defs>
        <path id="DejaVuSans-34" d="M 2419 4116 
L 825 1625 
L 2419 1625 
L 2419 4116 
z
M 2253 4666 
L 3047 4666 
L 3047 1625 
L 3713 1625 
L 3713 1100 
L 3047 1100 
L 3047 0 
L 2419 0 
L 2419 1100 
L 313 1100 
L 313 1709 
L 2253 4666 
z
" transform="scale(0.015625)"/>
       </defs>
       <use xlink:href="#DejaVuSans-30"/>
       <use xlink:href="#DejaVuSans-2e" x="63.623047"/>
       <use xlink:href="#DejaVuSans-34" x="95.410156"/>
      </g>
     </g>
    </g>
    <g id="ytick_4">
     <g id="line2d_5">
      <g>
       <use xlink:href="#md66ef3ab63" x="90" y="123.264" style="stroke: #000000; stroke-width: 0.8"/>
      </g>
     </g>
     <g id="text_5">
      <!-- 0.6 -->
      <g transform="translate(67.096875 127.063219) scale(0.1 -0.1)">
       <defs>
        <path id="DejaVuSans-36" d="M 2113 2584 
Q 1688 2584 1439 2293 
Q 1191 2003 1191 1497 
Q 1191 994 1439 701 
Q 1688 409 2113 409 
Q 2538 409 2786 701 
Q 3034 994 3034 1497 
Q 3034 2003 2786 2293 
Q 2538 2584 2113 2584 
z
M 3366 4563 
L 3366 3988 
Q 3128 4100 2886 4159 
Q 2644 4219 2406 4219 
Q 1781 4219 1451 3797 
Q 1122 3375 1075 2522 
Q 1259 2794 1537 2939 
Q 1816 3084 2150 3084 
Q 2853 3084 3261 2657 
Q 3669 2231 3669 1497 
Q 3669 778 3244 343 
Q 2819 -91 2113 -91 
Q 1303 -91 875 529 
Q 447 1150 447 2328 
Q 447 3434 972 4092 
Q 1497 4750 2381 4750 
Q 2619 4750 2861 4703 
Q 3103 4656 3366 4563 
z
" transform="scale(0.015625)"/>
       </defs>
       <use xlink:href="#DejaVuSans-30"/>
       <use xlink:href="#DejaVuSans-2e" x="63.623047"/>
       <use xlink:href="#DejaVuSans-36" x="95.410156"/>
      </g>
     </g>
    </g>
    <g id="ytick_5">
     <g id="line2d_6">
      <g>
       <use xlink:href="#md66ef3ab63" x="90" y="78.912" style="stroke: #000000; stroke-width: 0.8"/>
      </g>
     </g>
     <g id="text_6">
      <!-- 0.8 -->
      <g transform="translate(67.096875 82.711219) scale(0.1 -0.1)">
       <defs>
        <path id="DejaVuSans-38" d="M 2034 2216 
Q 1584 2216 1326 1975 
Q 1069 1734 1069 1313 
Q 1069 891 1326 650 
Q 1584 409 2034 409 
Q 2484 409 2743 651 
Q 3003 894 3003 1313 
Q 3003 1734 2745 1975 
Q 2488 2216 2034 2216 
z
M 1403 2484 
Q 997 2584 770 2862 
Q 544 3141 544 3541 
Q 544 4100 942 4425 
Q 1341 4750 2034 4750 
Q 2731 4750 3128 4425 
Q 3525 4100 3525 3541 
Q 3525 3141 3298 2862 
Q 3072 2584 2669 2484 
Q 3125 2378 3379 2068 
Q 3634 1759 3634 1313 
Q 3634 634 3220 271 
Q 2806 -91 2034 -91 
Q 1263 -91 848 271 
Q 434 634 434 1313 
Q 434 1759 690 2068 
Q 947 2378 1403 2484 
z
M 1172 3481 
Q 1172 3119 1398 2916 
Q 1625 2713 2034 2713 
Q 2441 2713 2670 2916 
Q 2900 3119 2900 3481 
Q 2900 3844 2670 4047 
Q 2441 4250 2034 4250 
Q 1625 4250 1398 4047 
Q 1172 3844 1172 3481 
z
" transform="scale(0.015625)"/>
       </defs>
       <use xlink:href="#DejaVuSans-30"/>
       <use xlink:href="#DejaVuSans-2e" x="63.623047"/>
       <use xlink:href="#DejaVuSans-38" x="95.410156"/>
      </g>
     </g>
    </g>
    <g id="ytick_6">
     <g id="line2d_7">
      <g>
       <use xlink:href="#md66ef3ab63" x="90" y="34.56" style="stroke: #000000; stroke-width: 0.8"/>
      </g>
     </g>
     <g id="text_7">
      <!-- 1.0 -->
      <g transform="translate(67.096875 38.359219) scale(0.1 -0.1)">
       <defs>
        <path id="DejaVuSans-31" d="M 794 531 
L 1825 531 
L 1825 4091 
L 703 3866 
L 703 4441 
L 1819 4666 
L 2450 4666 
L 2450 531 
L 3481 531 
L 3481 0 
L 794 0 
L 794 531 
z
" transform="scale(0.015625)"/>
       </defs>
       <use xlink:href="#DejaVuSans-31"/>
       <use xlink:href="#DejaVuSans-2e" x="63.623047"/>
       <use xlink:href="#DejaVuSans-30" x="95.410156"/>
      </g>
     </g>
    </g>
    <g id="text_8">
     <!-- $p$ -->
     <g transform="translate(60.996875 148.64) rotate(-90) scale(0.1 -0.1)">
      <defs>
       <path id="DejaVuSans-Oblique-70" d="M 3175 2156 
Q 3175 2616 2975 2859 
Q 2775 3103 2400 3103 
Q 2144 3103 1911 2972 
Q 1678 2841 1497 2591 
Q 1319 2344 1212 1994 
Q 1106 1644 1106 1300 
Q 1106 863 1306 627 
Q 1506 391 1875 391 
Q 2147 391 2380 519 
Q 2613 647 2778 891 
Q 2956 1147 3065 1494 
Q 3175 1841 3175 2156 
z
M 1394 2969 
Q 1625 3272 1939 3428 
Q 2253 3584 2638 3584 
Q 3175 3584 3472 3232 
Q 3769 2881 3769 2247 
Q 3769 1728 3584 1258 
Q 3400 788 3053 416 
Q 2822 169 2531 39 
Q 2241 -91 1919 -91 
Q 1547 -91 1294 64 
Q 1041 219 916 525 
L 556 -1331 
L -19 -1331 
L 922 3500 
L 1497 3500 
L 1394 2969 
z
" transform="scale(0.015625)"/>
      </defs>
      <use xlink:href="#DejaVuSans-Oblique-70"/>
     </g>
    </g>
   </g>
   <g id="line2d_8">
    <path d="M 172.058824 182.58323 
L 172.058824 176.457584 
" clip-path="url(#p369adf733c)" style="fill: none; stroke: #343434; stroke-width: 1.5; stroke-linecap: square"/>
   </g>
   <g id="line2d_9">
    <path d="M 172.058824 182.583227 
L 172.058824 179.282644 
" clip-path="url(#p369adf733c)" style="fill: none; stroke: #343434; stroke-width: 4.5; stroke-linecap: square"/>
   </g>
   <g id="patch_3">
    <path d="M 90 256.32 
L 90 34.56 
" style="fill: none; stroke: #000000; stroke-width: 0.8; stroke-linejoin: miter; stroke-linecap: square"/>
   </g>
   <g id="patch_4">
    <path d="M 254.117647 256.32 
L 254.117647 34.56 
" style="fill: none; stroke: #000000; stroke-width: 0.8; stroke-linejoin: miter; stroke-linecap: square"/>
   </g>
   <g id="patch_5">
    <path d="M 90 256.32 
L 254.117647 256.32 
" style="fill: none; stroke: #000000; stroke-width: 0.8; stroke-linejoin: miter; stroke-linecap: square"/>
   </g>
   <g id="patch_6">
    <path d="M 90 34.56 
L 254.117647 34.56 
" style="fill: none; stroke: #000000; stroke-width: 0.8; stroke-linejoin: miter; stroke-linecap: square"/>
   </g>
   <g id="PathCollection_1">
    <defs>
     <path id="mca77f31e8e" d="M 0 1.5 
C 0.397805 1.5 0.77937 1.341951 1.06066 1.06066 
C 1.341951 0.77937 1.5 0.397805 1.5 0 
C 1.5 -0.397805 1.341951 -0.77937 1.06066 -1.06066 
C 0.77937 -1.341951 0.397805 -1.5 0 -1.5 
C -0.397805 -1.5 -0.77937 -1.341951 -1.06066 -1.06066 
C -1.341951 -0.77937 -1.5 -0.397805 -1.5 0 
C -1.5 0.397805 -1.341951 0.77937 -1.06066 1.06066 
C -0.77937 1.341951 -0.397805 1.5 0 1.5 
z
" style="stroke: #343434; stroke-opacity: 0.5"/>
    </defs>
    <g clip-path="url(#p369adf733c)">
     <use xlink:href="#mca77f31e8e" x="172.058824" y="182.424198" style="fill: #ffffff; fill-opacity: 0.5; stroke: #343434; stroke-opacity: 0.5"/>
    </g>
   </g>
   <g id="text_9">
    <!-- win -->
    <g transform="translate(161.682574 28.56) scale(0.12 -0.12)">
     <defs>
      <path id="DejaVuSans-77" d="M 269 3500 
L 844 3500 
L 1563 769 
L 2278 3500 
L 2956 3500 
L 3675 769 
L 4391 3500 
L 4966 3500 
L 4050 0 
L 3372 0 
L 2619 2869 
L 1863 0 
L 1184 0 
L 269 3500 
z
" transform="scale(0.015625)"/>
      <path id="DejaVuSans-69" d="M 603 3500 
L 1178 3500 
L 1178 0 
L 603 0 
L 603 3500 
z
M 603 4863 
L 1178 4863 
L 1178 4134 
L 603 4134 
L 603 4863 
z
" transform="scale(0.015625)"/>
      <path id="DejaVuSans-6e" d="M 3513 2113 
L 3513 0 
L 2938 0 
L 2938 2094 
Q 2938 2591 2744 2837 
Q 2550 3084 2163 3084 
Q 1697 3084 1428 2787 
Q 1159 2491 1159 1978 
L 1159 0 
L 581 0 
L 581 3500 
L 1159 3500 
L 1159 2956 
Q 1366 3272 1645 3428 
Q 1925 3584 2291 3584 
Q 2894 3584 3203 3211 
Q 3513 2838 3513 2113 
z
" transform="scale(0.015625)"/>
     </defs>
     <use xlink:href="#DejaVuSans-77"/>
     <use xlink:href="#DejaVuSans-69" x="81.787109"/>
     <use xlink:href="#DejaVuSans-6e" x="109.570312"/>
    </g>
   </g>
  </g>
  <g id="axes_2">
   <g id="patch_7">
    <path d="M 286.941176 256.32 
L 451.058824 256.32 
L 451.058824 34.56 
L 286.941176 34.56 
z
" style="fill: #ffffff"/>
   </g>
   <g id="PolyCollection_2">
    <defs>
     <path id="m5ea690b188" d="M 370.007144 -81.50433 
L 367.992856 -81.50433 
L 367.790101 -81.838289 
L 367.55864 -82.172248 
L 367.297132 -82.506207 
L 367.004754 -82.840166 
L 366.681302 -83.174124 
L 366.327283 -83.508083 
L 365.94398 -83.842042 
L 365.533496 -84.176001 
L 365.098758 -84.50996 
L 364.643488 -84.843918 
L 364.172128 -85.177877 
L 363.68973 -85.511836 
L 363.201806 -85.845795 
L 362.71415 -86.179754 
L 362.23264 -86.513712 
L 361.763023 -86.847671 
L 361.31071 -87.18163 
L 360.880578 -87.515589 
L 360.476809 -87.849548 
L 360.10276 -88.183506 
L 359.760879 -88.517465 
L 359.452675 -88.851424 
L 359.178735 -89.185383 
L 358.938787 -89.519342 
L 358.731803 -89.8533 
L 358.556122 -90.187259 
L 358.409589 -90.521218 
L 358.289687 -90.855177 
L 358.19365 -91.189136 
L 358.118539 -91.523094 
L 358.06128 -91.857053 
L 358.018647 -92.191012 
L 357.9872 -92.524971 
L 357.963168 -92.85893 
L 357.942303 -93.192888 
L 357.919704 -93.526847 
L 357.889637 -93.860806 
L 357.845366 -94.194765 
L 357.779004 -94.528724 
L 357.681425 -94.862682 
L 357.54222 -95.196641 
L 357.349731 -95.5306 
L 357.091156 -95.864559 
L 356.752734 -96.198518 
L 356.319998 -96.532476 
L 355.778097 -96.866435 
L 355.112171 -97.200394 
L 354.307772 -97.534353 
L 353.351318 -97.868312 
L 352.23057 -98.20227 
L 350.935117 -98.536229 
L 349.456866 -98.870188 
L 347.79053 -99.204147 
L 345.934094 -99.538106 
L 343.889271 -99.872064 
L 341.661917 -100.206023 
L 339.262411 -100.539982 
L 336.705962 -100.873941 
L 334.012851 -101.2079 
L 331.208552 -101.541859 
L 328.323726 -101.875817 
L 325.394061 -102.209776 
L 322.459917 -102.543735 
L 319.565767 -102.877694 
L 316.759421 -103.211653 
L 314.091029 -103.545611 
L 311.611867 -103.87957 
L 309.372955 -104.213529 
L 307.423523 -104.547488 
L 305.809405 -104.881447 
L 304.571422 -105.215405 
L 303.743834 -105.549364 
L 303.352941 -105.883323 
L 303.415926 -106.217282 
L 303.93999 -106.551241 
L 304.921861 -106.885199 
L 306.347701 -107.219158 
L 308.193433 -107.553117 
L 310.425477 -107.887076 
L 313.001871 -108.221035 
L 315.873714 -108.554993 
L 318.986861 -108.888952 
L 322.283783 -109.222911 
L 325.705495 -109.55687 
L 329.193466 -109.890829 
L 332.691401 -110.224787 
L 336.146839 -110.558746 
L 339.512483 -110.892705 
L 342.747233 -111.226664 
L 345.816883 -111.560623 
L 348.694494 -111.894581 
L 351.360439 -112.22854 
L 353.802173 -112.562499 
L 356.013744 -112.896458 
L 357.995128 -113.230417 
L 359.751412 -113.564375 
L 361.291909 -113.898334 
L 362.629236 -114.232293 
L 363.778414 -114.566252 
L 374.221586 -114.566252 
L 374.221586 -114.566252 
L 375.370764 -114.232293 
L 376.708091 -113.898334 
L 378.248588 -113.564375 
L 380.004872 -113.230417 
L 381.986256 -112.896458 
L 384.197827 -112.562499 
L 386.639561 -112.22854 
L 389.305506 -111.894581 
L 392.183117 -111.560623 
L 395.252767 -111.226664 
L 398.487517 -110.892705 
L 401.853161 -110.558746 
L 405.308599 -110.224787 
L 408.806534 -109.890829 
L 412.294505 -109.55687 
L 415.716217 -109.222911 
L 419.013139 -108.888952 
L 422.126286 -108.554993 
L 424.998129 -108.221035 
L 427.574523 -107.887076 
L 429.806567 -107.553117 
L 431.652299 -107.219158 
L 433.078139 -106.885199 
L 434.06001 -106.551241 
L 434.584074 -106.217282 
L 434.647059 -105.883323 
L 434.256166 -105.549364 
L 433.428578 -105.215405 
L 432.190595 -104.881447 
L 430.576477 -104.547488 
L 428.627045 -104.213529 
L 426.388133 -103.87957 
L 423.908971 -103.545611 
L 421.240579 -103.211653 
L 418.434233 -102.877694 
L 415.540083 -102.543735 
L 412.605939 -102.209776 
L 409.676274 -101.875817 
L 406.791448 -101.541859 
L 403.987149 -101.2079 
L 401.294038 -100.873941 
L 398.737589 -100.539982 
L 396.338083 -100.206023 
L 394.110729 -99.872064 
L 392.065906 -99.538106 
L 390.20947 -99.204147 
L 388.543134 -98.870188 
L 387.064883 -98.536229 
L 385.76943 -98.20227 
L 384.648682 -97.868312 
L 383.692228 -97.534353 
L 382.887829 -97.200394 
L 382.221903 -96.866435 
L 381.680002 -96.532476 
L 381.247266 -96.198518 
L 380.908844 -95.864559 
L 380.650269 -95.5306 
L 380.45778 -95.196641 
L 380.318575 -94.862682 
L 380.220996 -94.528724 
L 380.154634 -94.194765 
L 380.110363 -93.860806 
L 380.080296 -93.526847 
L 380.057697 -93.192888 
L 380.036832 -92.85893 
L 380.0128 -92.524971 
L 379.981353 -92.191012 
L 379.93872 -91.857053 
L 379.881461 -91.523094 
L 379.80635 -91.189136 
L 379.710313 -90.855177 
L 379.590411 -90.521218 
L 379.443878 -90.187259 
L 379.268197 -89.8533 
L 379.061213 -89.519342 
L 378.821265 -89.185383 
L 378.547325 -88.851424 
L 378.239121 -88.517465 
L 377.89724 -88.183506 
L 377.523191 -87.849548 
L 377.119422 -87.515589 
L 376.68929 -87.18163 
L 376.236977 -86.847671 
L 375.76736 -86.513712 
L 375.28585 -86.179754 
L 374.798194 -85.845795 
L 374.31027 -85.511836 
L 373.827872 -85.177877 
L 373.356512 -84.843918 
L 372.901242 -84.50996 
L 372.466504 -84.176001 
L 372.05602 -83.842042 
L 371.672717 -83.508083 
L 371.318698 -83.174124 
L 370.995246 -82.840166 
L 370.702868 -82.506207 
L 370.44136 -82.172248 
L 370.209899 -81.838289 
L 370.007144 -81.50433 
z
" style="stroke: #646464; stroke-width: 1.5"/>
    </defs>
    <g clip-path="url(#paf56dee128)">
     <use xlink:href="#m5ea690b188" x="0" y="288" style="fill: #e98966; stroke: #646464; stroke-width: 1.5"/>
    </g>
   </g>
   <g id="matplotlib.axis_3">
    <g id="xtick_2">
     <g id="line2d_10">
      <g>
       <use xlink:href="#m1d51f983c5" x="369" y="256.32" style="stroke: #000000; stroke-width: 0.8"/>
      </g>
     </g>
     <g id="text_10">
      <!-- 0 -->
      <g transform="translate(365.81875 270.918437) scale(0.1 -0.1)">
       <use xlink:href="#DejaVuSans-30"/>
      </g>
     </g>
    </g>
   </g>
   <g id="matplotlib.axis_4">
    <g id="ytick_7">
     <g id="line2d_11">
      <g>
       <use xlink:href="#md66ef3ab63" x="286.941176" y="256.32" style="stroke: #000000; stroke-width: 0.8"/>
      </g>
     </g>
     <g id="text_11">
      <!-- 0.0 -->
      <g transform="translate(264.038051 260.119219) scale(0.1 -0.1)">
       <use xlink:href="#DejaVuSans-30"/>
       <use xlink:href="#DejaVuSans-2e" x="63.623047"/>
       <use xlink:href="#DejaVuSans-30" x="95.410156"/>
      </g>
     </g>
    </g>
    <g id="ytick_8">
     <g id="line2d_12">
      <g>
       <use xlink:href="#md66ef3ab63" x="286.941176" y="211.968" style="stroke: #000000; stroke-width: 0.8"/>
      </g>
     </g>
     <g id="text_12">
      <!-- 0.2 -->
      <g transform="translate(264.038051 215.767219) scale(0.1 -0.1)">
       <use xlink:href="#DejaVuSans-30"/>
       <use xlink:href="#DejaVuSans-2e" x="63.623047"/>
       <use xlink:href="#DejaVuSans-32" x="95.410156"/>
      </g>
     </g>
    </g>
    <g id="ytick_9">
     <g id="line2d_13">
      <g>
       <use xlink:href="#md66ef3ab63" x="286.941176" y="167.616" style="stroke: #000000; stroke-width: 0.8"/>
      </g>
     </g>
     <g id="text_13">
      <!-- 0.4 -->
      <g transform="translate(264.038051 171.415219) scale(0.1 -0.1)">
       <use xlink:href="#DejaVuSans-30"/>
       <use xlink:href="#DejaVuSans-2e" x="63.623047"/>
       <use xlink:href="#DejaVuSans-34" x="95.410156"/>
      </g>
     </g>
    </g>
    <g id="ytick_10">
     <g id="line2d_14">
      <g>
       <use xlink:href="#md66ef3ab63" x="286.941176" y="123.264" style="stroke: #000000; stroke-width: 0.8"/>
      </g>
     </g>
     <g id="text_14">
      <!-- 0.6 -->
      <g transform="translate(264.038051 127.063219) scale(0.1 -0.1)">
       <use xlink:href="#DejaVuSans-30"/>
       <use xlink:href="#DejaVuSans-2e" x="63.623047"/>
       <use xlink:href="#DejaVuSans-36" x="95.410156"/>
      </g>
     </g>
    </g>
    <g id="ytick_11">
     <g id="line2d_15">
      <g>
       <use xlink:href="#md66ef3ab63" x="286.941176" y="78.912" style="stroke: #000000; stroke-width: 0.8"/>
      </g>
     </g>
     <g id="text_15">
      <!-- 0.8 -->
      <g transform="translate(264.038051 82.711219) scale(0.1 -0.1)">
       <use xlink:href="#DejaVuSans-30"/>
       <use xlink:href="#DejaVuSans-2e" x="63.623047"/>
       <use xlink:href="#DejaVuSans-38" x="95.410156"/>
      </g>
     </g>
    </g>
    <g id="ytick_12">
     <g id="line2d_16">
      <g>
       <use xlink:href="#md66ef3ab63" x="286.941176" y="34.56" style="stroke: #000000; stroke-width: 0.8"/>
      </g>
     </g>
     <g id="text_16">
      <!-- 1.0 -->
      <g transform="translate(264.038051 38.359219) scale(0.1 -0.1)">
       <use xlink:href="#DejaVuSans-31"/>
       <use xlink:href="#DejaVuSans-2e" x="63.623047"/>
       <use xlink:href="#DejaVuSans-30" x="95.410156"/>
      </g>
     </g>
    </g>
   </g>
   <g id="line2d_17">
    <path d="M 369 186.552077 
L 369 180.616324 
" clip-path="url(#paf56dee128)" style="fill: none; stroke: #646464; stroke-width: 1.5; stroke-linecap: square"/>
   </g>
   <g id="line2d_18">
    <path d="M 369 185.475218 
L 369 181.179997 
" clip-path="url(#paf56dee128)" style="fill: none; stroke: #646464; stroke-width: 4.5; stroke-linecap: square"/>
   </g>
   <g id="patch_8">
    <path d="M 286.941176 256.32 
L 286.941176 34.56 
" style="fill: none; stroke: #000000; stroke-width: 0.8; stroke-linejoin: miter; stroke-linecap: square"/>
   </g>
   <g id="patch_9">
    <path d="M 451.058824 256.32 
L 451.058824 34.56 
" style="fill: none; stroke: #000000; stroke-width: 0.8; stroke-linejoin: miter; stroke-linecap: square"/>
   </g>
   <g id="patch_10">
    <path d="M 286.941176 256.32 
L 451.058824 256.32 
" style="fill: none; stroke: #000000; stroke-width: 0.8; stroke-linejoin: miter; stroke-linecap: square"/>
   </g>
   <g id="patch_11">
    <path d="M 286.941176 34.56 
L 451.058824 34.56 
" style="fill: none; stroke: #000000; stroke-width: 0.8; stroke-linejoin: miter; stroke-linecap: square"/>
   </g>
   <g id="PathCollection_2">
    <defs>
     <path id="me7bb0d6ca4" d="M 0 1.5 
C 0.397805 1.5 0.77937 1.341951 1.06066 1.06066 
C 1.341951 0.77937 1.5 0.397805 1.5 0 
C 1.5 -0.397805 1.341951 -0.77937 1.06066 -1.06066 
C 0.77937 -1.341951 0.397805 -1.5 0 -1.5 
C -0.397805 -1.5 -0.77937 -1.341951 -1.06066 -1.06066 
C -1.341951 -0.77937 -1.5 -0.397805 -1.5 0 
C -1.5 0.397805 -1.341951 0.77937 -1.06066 1.06066 
C -0.77937 1.341951 -0.397805 1.5 0 1.5 
z
" style="stroke: #646464"/>
    </defs>
    <g clip-path="url(#paf56dee128)">
     <use xlink:href="#me7bb0d6ca4" x="369" y="181.675048" style="fill: #ffffff; stroke: #646464"/>
    </g>
   </g>
   <g id="text_17">
    <!-- loss -->
    <g transform="translate(357.410625 28.56) scale(0.12 -0.12)">
     <defs>
      <path id="DejaVuSans-6c" d="M 603 4863 
L 1178 4863 
L 1178 0 
L 603 0 
L 603 4863 
z
" transform="scale(0.015625)"/>
      <path id="DejaVuSans-6f" d="M 1959 3097 
Q 1497 3097 1228 2736 
Q 959 2375 959 1747 
Q 959 1119 1226 758 
Q 1494 397 1959 397 
Q 2419 397 2687 759 
Q 2956 1122 2956 1747 
Q 2956 2369 2687 2733 
Q 2419 3097 1959 3097 
z
M 1959 3584 
Q 2709 3584 3137 3096 
Q 3566 2609 3566 1747 
Q 3566 888 3137 398 
Q 2709 -91 1959 -91 
Q 1206 -91 779 398 
Q 353 888 353 1747 
Q 353 2609 779 3096 
Q 1206 3584 1959 3584 
z
" transform="scale(0.015625)"/>
      <path id="DejaVuSans-73" d="M 2834 3397 
L 2834 2853 
Q 2591 2978 2328 3040 
Q 2066 3103 1784 3103 
Q 1356 3103 1142 2972 
Q 928 2841 928 2578 
Q 928 2378 1081 2264 
Q 1234 2150 1697 2047 
L 1894 2003 
Q 2506 1872 2764 1633 
Q 3022 1394 3022 966 
Q 3022 478 2636 193 
Q 2250 -91 1575 -91 
Q 1294 -91 989 -36 
Q 684 19 347 128 
L 347 722 
Q 666 556 975 473 
Q 1284 391 1588 391 
Q 1994 391 2212 530 
Q 2431 669 2431 922 
Q 2431 1156 2273 1281 
Q 2116 1406 1581 1522 
L 1381 1569 
Q 847 1681 609 1914 
Q 372 2147 372 2553 
Q 372 3047 722 3315 
Q 1072 3584 1716 3584 
Q 2034 3584 2315 3537 
Q 2597 3491 2834 3397 
z
" transform="scale(0.015625)"/>
     </defs>
     <use xlink:href="#DejaVuSans-6c"/>
     <use xlink:href="#DejaVuSans-6f" x="27.783203"/>
     <use xlink:href="#DejaVuSans-73" x="88.964844"/>
     <use xlink:href="#DejaVuSans-73" x="141.064453"/>
    </g>
   </g>
  </g>
  <g id="axes_3">
   <g id="patch_12">
    <path d="M 483.882353 256.32 
L 648 256.32 
L 648 34.56 
L 483.882353 34.56 
z
" style="fill: #ffffff"/>
   </g>
   <g id="PolyCollection_3">
    <defs>
     <path id="m219c24a715" d="M 566.857698 -76.06961 
L 565.024655 -76.06961 
L 564.820406 -76.475831 
L 564.585175 -76.882052 
L 564.317973 -77.288273 
L 564.018726 -77.694493 
L 563.688457 -78.100714 
L 563.329445 -78.506935 
L 562.945331 -78.913156 
L 562.541168 -79.319377 
L 562.1234 -79.725597 
L 561.69976 -80.131818 
L 561.279076 -80.538039 
L 560.870999 -80.94426 
L 560.485657 -81.350481 
L 560.133246 -81.756702 
L 559.823582 -82.162922 
L 559.56565 -82.569143 
L 559.367159 -82.975364 
L 559.234149 -83.381585 
L 559.17067 -83.787806 
L 559.178551 -84.194027 
L 559.257287 -84.600247 
L 559.404032 -85.006468 
L 559.613717 -85.412689 
L 559.879266 -85.81891 
L 560.191902 -86.225131 
L 560.541516 -86.631351 
L 560.917072 -87.037572 
L 561.307011 -87.443793 
L 561.699646 -87.850014 
L 562.083502 -88.256235 
L 562.447594 -88.662456 
L 562.781628 -89.068676 
L 563.076122 -89.474897 
L 563.322436 -89.881118 
L 563.512741 -90.287339 
L 563.639907 -90.69356 
L 563.69735 -91.09978 
L 563.67884 -91.506001 
L 563.578283 -91.912222 
L 563.389501 -92.318443 
L 563.106013 -92.724664 
L 562.720839 -93.130885 
L 562.226322 -93.537105 
L 561.614002 -93.943326 
L 560.874535 -94.349547 
L 559.997682 -94.755768 
L 558.972388 -95.161989 
L 557.786955 -95.568209 
L 556.429349 -95.97443 
L 554.887641 -96.380651 
L 553.1506 -96.786872 
L 551.208454 -97.193093 
L 549.053786 -97.599314 
L 546.682565 -98.005534 
L 544.095264 -98.411755 
L 541.297994 -98.817976 
L 538.303592 -99.224197 
L 535.132574 -99.630418 
L 531.813837 -100.036638 
L 528.385041 -100.442859 
L 524.892558 -100.84908 
L 521.390945 -101.255301 
L 517.941892 -101.661522 
L 514.612638 -102.067743 
L 511.473914 -102.473963 
L 508.597477 -102.880184 
L 506.053359 -103.286405 
L 503.906985 -103.692626 
L 502.216327 -104.098847 
L 501.029272 -104.505067 
L 500.381371 -104.911288 
L 500.294118 -105.317509 
L 500.773875 -105.72373 
L 501.811512 -106.129951 
L 503.382777 -106.536172 
L 505.449378 -106.942392 
L 507.960689 -107.348613 
L 510.855974 -107.754834 
L 514.066987 -108.161055 
L 517.520773 -108.567276 
L 521.142523 -108.973496 
L 524.85832 -109.379717 
L 528.59763 -109.785938 
L 532.295444 -110.192159 
L 535.893983 -110.59838 
L 539.34392 -111.004601 
L 542.605121 -111.410821 
L 545.646905 -111.817042 
L 548.44789 -112.223263 
L 550.995465 -112.629484 
L 553.284991 -113.035705 
L 555.318779 -113.441925 
L 557.104954 -113.848146 
L 558.656259 -114.254367 
L 559.98888 -114.660588 
L 561.121332 -115.066809 
L 562.073453 -115.47303 
L 562.865533 -115.87925 
L 563.517594 -116.285471 
L 568.364759 -116.285471 
L 568.364759 -116.285471 
L 569.01682 -115.87925 
L 569.8089 -115.47303 
L 570.761021 -115.066809 
L 571.893473 -114.660588 
L 573.226094 -114.254367 
L 574.777399 -113.848146 
L 576.563574 -113.441925 
L 578.597362 -113.035705 
L 580.886888 -112.629484 
L 583.434463 -112.223263 
L 586.235447 -111.817042 
L 589.277232 -111.410821 
L 592.538433 -111.004601 
L 595.98837 -110.59838 
L 599.586909 -110.192159 
L 603.284723 -109.785938 
L 607.024033 -109.379717 
L 610.739829 -108.973496 
L 614.36158 -108.567276 
L 617.815366 -108.161055 
L 621.026379 -107.754834 
L 623.921664 -107.348613 
L 626.432975 -106.942392 
L 628.499576 -106.536172 
L 630.070841 -106.129951 
L 631.108478 -105.72373 
L 631.588235 -105.317509 
L 631.500982 -104.911288 
L 630.85308 -104.505067 
L 629.666026 -104.098847 
L 627.975368 -103.692626 
L 625.828994 -103.286405 
L 623.284876 -102.880184 
L 620.408439 -102.473963 
L 617.269715 -102.067743 
L 613.940461 -101.661522 
L 610.491408 -101.255301 
L 606.989795 -100.84908 
L 603.497312 -100.442859 
L 600.068515 -100.036638 
L 596.749779 -99.630418 
L 593.578761 -99.224197 
L 590.584359 -98.817976 
L 587.787089 -98.411755 
L 585.199788 -98.005534 
L 582.828567 -97.599314 
L 580.673899 -97.193093 
L 578.731753 -96.786872 
L 576.994712 -96.380651 
L 575.453004 -95.97443 
L 574.095398 -95.568209 
L 572.909965 -95.161989 
L 571.884671 -94.755768 
L 571.007818 -94.349547 
L 570.268351 -93.943326 
L 569.656031 -93.537105 
L 569.161514 -93.130885 
L 568.77634 -92.724664 
L 568.492852 -92.318443 
L 568.30407 -91.912222 
L 568.203513 -91.506001 
L 568.185003 -91.09978 
L 568.242446 -90.69356 
L 568.369612 -90.287339 
L 568.559917 -89.881118 
L 568.806231 -89.474897 
L 569.100725 -89.068676 
L 569.434759 -88.662456 
L 569.798851 -88.256235 
L 570.182707 -87.850014 
L 570.575342 -87.443793 
L 570.965281 -87.037572 
L 571.340837 -86.631351 
L 571.690451 -86.225131 
L 572.003087 -85.81891 
L 572.268636 -85.412689 
L 572.478321 -85.006468 
L 572.625066 -84.600247 
L 572.703802 -84.194027 
L 572.711683 -83.787806 
L 572.648203 -83.381585 
L 572.515194 -82.975364 
L 572.316703 -82.569143 
L 572.058771 -82.162922 
L 571.749107 -81.756702 
L 571.396696 -81.350481 
L 571.011354 -80.94426 
L 570.603277 -80.538039 
L 570.182593 -80.131818 
L 569.758953 -79.725597 
L 569.341185 -79.319377 
L 568.937022 -78.913156 
L 568.552907 -78.506935 
L 568.193896 -78.100714 
L 567.863627 -77.694493 
L 567.56438 -77.288273 
L 567.297178 -76.882052 
L 567.061947 -76.475831 
L 566.857698 -76.06961 
z
" style="stroke: #3f3f3f; stroke-width: 1.5"/>
    </defs>
    <g clip-path="url(#p2f4c14effa)">
     <use xlink:href="#m219c24a715" x="0" y="288" style="fill: #3274a1; stroke: #3f3f3f; stroke-width: 1.5"/>
    </g>
   </g>
   <g id="matplotlib.axis_5">
    <g id="xtick_3">
     <g id="line2d_19">
      <g>
       <use xlink:href="#m1d51f983c5" x="565.941176" y="256.32" style="stroke: #000000; stroke-width: 0.8"/>
      </g>
     </g>
     <g id="text_18">
      <!-- 0 -->
      <g transform="translate(562.759926 270.918437) scale(0.1 -0.1)">
       <use xlink:href="#DejaVuSans-30"/>
      </g>
     </g>
    </g>
   </g>
   <g id="matplotlib.axis_6">
    <g id="ytick_13">
     <g id="line2d_20">
      <g>
       <use xlink:href="#md66ef3ab63" x="483.882353" y="256.32" style="stroke: #000000; stroke-width: 0.8"/>
      </g>
     </g>
     <g id="text_19">
      <!-- 0.0 -->
      <g transform="translate(460.979228 260.119219) scale(0.1 -0.1)">
       <use xlink:href="#DejaVuSans-30"/>
       <use xlink:href="#DejaVuSans-2e" x="63.623047"/>
       <use xlink:href="#DejaVuSans-30" x="95.410156"/>
      </g>
     </g>
    </g>
    <g id="ytick_14">
     <g id="line2d_21">
      <g>
       <use xlink:href="#md66ef3ab63" x="483.882353" y="211.968" style="stroke: #000000; stroke-width: 0.8"/>
      </g>
     </g>
     <g id="text_20">
      <!-- 0.2 -->
      <g transform="translate(460.979228 215.767219) scale(0.1 -0.1)">
       <use xlink:href="#DejaVuSans-30"/>
       <use xlink:href="#DejaVuSans-2e" x="63.623047"/>
       <use xlink:href="#DejaVuSans-32" x="95.410156"/>
      </g>
     </g>
    </g>
    <g id="ytick_15">
     <g id="line2d_22">
      <g>
       <use xlink:href="#md66ef3ab63" x="483.882353" y="167.616" style="stroke: #000000; stroke-width: 0.8"/>
      </g>
     </g>
     <g id="text_21">
      <!-- 0.4 -->
      <g transform="translate(460.979228 171.415219) scale(0.1 -0.1)">
       <use xlink:href="#DejaVuSans-30"/>
       <use xlink:href="#DejaVuSans-2e" x="63.623047"/>
       <use xlink:href="#DejaVuSans-34" x="95.410156"/>
      </g>
     </g>
    </g>
    <g id="ytick_16">
     <g id="line2d_23">
      <g>
       <use xlink:href="#md66ef3ab63" x="483.882353" y="123.264" style="stroke: #000000; stroke-width: 0.8"/>
      </g>
     </g>
     <g id="text_22">
      <!-- 0.6 -->
      <g transform="translate(460.979228 127.063219) scale(0.1 -0.1)">
       <use xlink:href="#DejaVuSans-30"/>
       <use xlink:href="#DejaVuSans-2e" x="63.623047"/>
       <use xlink:href="#DejaVuSans-36" x="95.410156"/>
      </g>
     </g>
    </g>
    <g id="ytick_17">
     <g id="line2d_24">
      <g>
       <use xlink:href="#md66ef3ab63" x="483.882353" y="78.912" style="stroke: #000000; stroke-width: 0.8"/>
      </g>
     </g>
     <g id="text_23">
      <!-- 0.8 -->
      <g transform="translate(460.979228 82.711219) scale(0.1 -0.1)">
       <use xlink:href="#DejaVuSans-30"/>
       <use xlink:href="#DejaVuSans-2e" x="63.623047"/>
       <use xlink:href="#DejaVuSans-38" x="95.410156"/>
      </g>
     </g>
    </g>
    <g id="ytick_18">
     <g id="line2d_25">
      <g>
       <use xlink:href="#md66ef3ab63" x="483.882353" y="34.56" style="stroke: #000000; stroke-width: 0.8"/>
      </g>
     </g>
     <g id="text_24">
      <!-- 1.0 -->
      <g transform="translate(460.979228 38.359219) scale(0.1 -0.1)">
       <use xlink:href="#DejaVuSans-31"/>
       <use xlink:href="#DejaVuSans-2e" x="63.623047"/>
       <use xlink:href="#DejaVuSans-30" x="95.410156"/>
      </g>
     </g>
    </g>
   </g>
   <g id="line2d_26">
    <path d="M 565.941176 184.006527 
L 565.941176 180.423592 
" clip-path="url(#p2f4c14effa)" style="fill: none; stroke: #3f3f3f; stroke-width: 1.5; stroke-linecap: square"/>
   </g>
   <g id="line2d_27">
    <path d="M 565.941176 183.585898 
L 565.941176 182.012366 
" clip-path="url(#p2f4c14effa)" style="fill: none; stroke: #3f3f3f; stroke-width: 4.5; stroke-linecap: square"/>
   </g>
   <g id="patch_13">
    <path d="M 483.882353 256.32 
L 483.882353 34.56 
" style="fill: none; stroke: #000000; stroke-width: 0.8; stroke-linejoin: miter; stroke-linecap: square"/>
   </g>
   <g id="patch_14">
    <path d="M 648 256.32 
L 648 34.56 
" style="fill: none; stroke: #000000; stroke-width: 0.8; stroke-linejoin: miter; stroke-linecap: square"/>
   </g>
   <g id="patch_15">
    <path d="M 483.882353 256.32 
L 648 256.32 
" style="fill: none; stroke: #000000; stroke-width: 0.8; stroke-linejoin: miter; stroke-linecap: square"/>
   </g>
   <g id="patch_16">
    <path d="M 483.882353 34.56 
L 648 34.56 
" style="fill: none; stroke: #000000; stroke-width: 0.8; stroke-linejoin: miter; stroke-linecap: square"/>
   </g>
   <g id="PathCollection_3">
    <defs>
     <path id="mfd0c3e21d5" d="M 0 1.5 
C 0.397805 1.5 0.77937 1.341951 1.06066 1.06066 
C 1.341951 0.77937 1.5 0.397805 1.5 0 
C 1.5 -0.397805 1.341951 -0.77937 1.06066 -1.06066 
C 0.77937 -1.341951 0.397805 -1.5 0 -1.5 
C -0.397805 -1.5 -0.77937 -1.341951 -1.06066 -1.06066 
C -1.341951 -0.77937 -1.5 -0.397805 -1.5 0 
C -1.5 0.397805 -1.341951 0.77937 -1.06066 1.06066 
C -0.77937 1.341951 -0.397805 1.5 0 1.5 
z
" style="stroke: #3f3f3f"/>
    </defs>
    <g clip-path="url(#p2f4c14effa)">
     <use xlink:href="#mfd0c3e21d5" x="565.941176" y="183.436774" style="fill: #ffffff; stroke: #3f3f3f"/>
    </g>
   </g>
   <g id="text_25">
    <!-- keep budget -->
    <g transform="translate(528.310864 28.56) scale(0.12 -0.12)">
     <defs>
      <path id="DejaVuSans-6b" d="M 581 4863 
L 1159 4863 
L 1159 1991 
L 2875 3500 
L 3609 3500 
L 1753 1863 
L 3688 0 
L 2938 0 
L 1159 1709 
L 1159 0 
L 581 0 
L 581 4863 
z
" transform="scale(0.015625)"/>
      <path id="DejaVuSans-65" d="M 3597 1894 
L 3597 1613 
L 953 1613 
Q 991 1019 1311 708 
Q 1631 397 2203 397 
Q 2534 397 2845 478 
Q 3156 559 3463 722 
L 3463 178 
Q 3153 47 2828 -22 
Q 2503 -91 2169 -91 
Q 1331 -91 842 396 
Q 353 884 353 1716 
Q 353 2575 817 3079 
Q 1281 3584 2069 3584 
Q 2775 3584 3186 3129 
Q 3597 2675 3597 1894 
z
M 3022 2063 
Q 3016 2534 2758 2815 
Q 2500 3097 2075 3097 
Q 1594 3097 1305 2825 
Q 1016 2553 972 2059 
L 3022 2063 
z
" transform="scale(0.015625)"/>
      <path id="DejaVuSans-70" d="M 1159 525 
L 1159 -1331 
L 581 -1331 
L 581 3500 
L 1159 3500 
L 1159 2969 
Q 1341 3281 1617 3432 
Q 1894 3584 2278 3584 
Q 2916 3584 3314 3078 
Q 3713 2572 3713 1747 
Q 3713 922 3314 415 
Q 2916 -91 2278 -91 
Q 1894 -91 1617 61 
Q 1341 213 1159 525 
z
M 3116 1747 
Q 3116 2381 2855 2742 
Q 2594 3103 2138 3103 
Q 1681 3103 1420 2742 
Q 1159 2381 1159 1747 
Q 1159 1113 1420 752 
Q 1681 391 2138 391 
Q 2594 391 2855 752 
Q 3116 1113 3116 1747 
z
" transform="scale(0.015625)"/>
      <path id="DejaVuSans-20" transform="scale(0.015625)"/>
      <path id="DejaVuSans-62" d="M 3116 1747 
Q 3116 2381 2855 2742 
Q 2594 3103 2138 3103 
Q 1681 3103 1420 2742 
Q 1159 2381 1159 1747 
Q 1159 1113 1420 752 
Q 1681 391 2138 391 
Q 2594 391 2855 752 
Q 3116 1113 3116 1747 
z
M 1159 2969 
Q 1341 3281 1617 3432 
Q 1894 3584 2278 3584 
Q 2916 3584 3314 3078 
Q 3713 2572 3713 1747 
Q 3713 922 3314 415 
Q 2916 -91 2278 -91 
Q 1894 -91 1617 61 
Q 1341 213 1159 525 
L 1159 0 
L 581 0 
L 581 4863 
L 1159 4863 
L 1159 2969 
z
" transform="scale(0.015625)"/>
      <path id="DejaVuSans-75" d="M 544 1381 
L 544 3500 
L 1119 3500 
L 1119 1403 
Q 1119 906 1312 657 
Q 1506 409 1894 409 
Q 2359 409 2629 706 
Q 2900 1003 2900 1516 
L 2900 3500 
L 3475 3500 
L 3475 0 
L 2900 0 
L 2900 538 
Q 2691 219 2414 64 
Q 2138 -91 1772 -91 
Q 1169 -91 856 284 
Q 544 659 544 1381 
z
M 1991 3584 
L 1991 3584 
z
" transform="scale(0.015625)"/>
      <path id="DejaVuSans-64" d="M 2906 2969 
L 2906 4863 
L 3481 4863 
L 3481 0 
L 2906 0 
L 2906 525 
Q 2725 213 2448 61 
Q 2172 -91 1784 -91 
Q 1150 -91 751 415 
Q 353 922 353 1747 
Q 353 2572 751 3078 
Q 1150 3584 1784 3584 
Q 2172 3584 2448 3432 
Q 2725 3281 2906 2969 
z
M 947 1747 
Q 947 1113 1208 752 
Q 1469 391 1925 391 
Q 2381 391 2643 752 
Q 2906 1113 2906 1747 
Q 2906 2381 2643 2742 
Q 2381 3103 1925 3103 
Q 1469 3103 1208 2742 
Q 947 2381 947 1747 
z
" transform="scale(0.015625)"/>
      <path id="DejaVuSans-67" d="M 2906 1791 
Q 2906 2416 2648 2759 
Q 2391 3103 1925 3103 
Q 1463 3103 1205 2759 
Q 947 2416 947 1791 
Q 947 1169 1205 825 
Q 1463 481 1925 481 
Q 2391 481 2648 825 
Q 2906 1169 2906 1791 
z
M 3481 434 
Q 3481 -459 3084 -895 
Q 2688 -1331 1869 -1331 
Q 1566 -1331 1297 -1286 
Q 1028 -1241 775 -1147 
L 775 -588 
Q 1028 -725 1275 -790 
Q 1522 -856 1778 -856 
Q 2344 -856 2625 -561 
Q 2906 -266 2906 331 
L 2906 616 
Q 2728 306 2450 153 
Q 2172 0 1784 0 
Q 1141 0 747 490 
Q 353 981 353 1791 
Q 353 2603 747 3093 
Q 1141 3584 1784 3584 
Q 2172 3584 2450 3431 
Q 2728 3278 2906 2969 
L 2906 3500 
L 3481 3500 
L 3481 434 
z
" transform="scale(0.015625)"/>
      <path id="DejaVuSans-74" d="M 1172 4494 
L 1172 3500 
L 2356 3500 
L 2356 3053 
L 1172 3053 
L 1172 1153 
Q 1172 725 1289 603 
Q 1406 481 1766 481 
L 2356 481 
L 2356 0 
L 1766 0 
Q 1100 0 847 248 
Q 594 497 594 1153 
L 594 3053 
L 172 3053 
L 172 3500 
L 594 3500 
L 594 4494 
L 1172 4494 
z
" transform="scale(0.015625)"/>
     </defs>
     <use xlink:href="#DejaVuSans-6b"/>
     <use xlink:href="#DejaVuSans-65" x="54.285156"/>
     <use xlink:href="#DejaVuSans-65" x="115.808594"/>
     <use xlink:href="#DejaVuSans-70" x="177.332031"/>
     <use xlink:href="#DejaVuSans-20" x="240.808594"/>
     <use xlink:href="#DejaVuSans-62" x="272.595703"/>
     <use xlink:href="#DejaVuSans-75" x="336.072266"/>
     <use xlink:href="#DejaVuSans-64" x="399.451172"/>
     <use xlink:href="#DejaVuSans-67" x="462.927734"/>
     <use xlink:href="#DejaVuSans-65" x="526.404297"/>
     <use xlink:href="#DejaVuSans-74" x="587.927734"/>
    </g>
   </g>
  </g>
  <g id="text_26">
   <!-- $C$: low BDI score -->
   <g transform="translate(311.04 14.878125) scale(0.12 -0.12)">
    <defs>
     <path id="DejaVuSans-Oblique-43" d="M 4447 4306 
L 4319 3641 
Q 4019 3944 3683 4091 
Q 3347 4238 2956 4238 
Q 2422 4238 2017 3981 
Q 1613 3725 1319 3200 
Q 1131 2863 1032 2486 
Q 934 2109 934 1728 
Q 934 1091 1264 756 
Q 1594 422 2222 422 
Q 2656 422 3056 561 
Q 3456 700 3834 978 
L 3688 231 
Q 3316 72 2936 -9 
Q 2556 -91 2175 -91 
Q 1278 -91 773 396 
Q 269 884 269 1753 
Q 269 2309 461 2846 
Q 653 3384 1013 3828 
Q 1394 4300 1883 4525 
Q 2372 4750 3022 4750 
Q 3422 4750 3780 4639 
Q 4138 4528 4447 4306 
z
" transform="scale(0.015625)"/>
     <path id="DejaVuSans-3a" d="M 750 794 
L 1409 794 
L 1409 0 
L 750 0 
L 750 794 
z
M 750 3309 
L 1409 3309 
L 1409 2516 
L 750 2516 
L 750 3309 
z
" transform="scale(0.015625)"/>
     <path id="DejaVuSans-42" d="M 1259 2228 
L 1259 519 
L 2272 519 
Q 2781 519 3026 730 
Q 3272 941 3272 1375 
Q 3272 1813 3026 2020 
Q 2781 2228 2272 2228 
L 1259 2228 
z
M 1259 4147 
L 1259 2741 
L 2194 2741 
Q 2656 2741 2882 2914 
Q 3109 3088 3109 3444 
Q 3109 3797 2882 3972 
Q 2656 4147 2194 4147 
L 1259 4147 
z
M 628 4666 
L 2241 4666 
Q 2963 4666 3353 4366 
Q 3744 4066 3744 3513 
Q 3744 3084 3544 2831 
Q 3344 2578 2956 2516 
Q 3422 2416 3680 2098 
Q 3938 1781 3938 1306 
Q 3938 681 3513 340 
Q 3088 0 2303 0 
L 628 0 
L 628 4666 
z
" transform="scale(0.015625)"/>
     <path id="DejaVuSans-44" d="M 1259 4147 
L 1259 519 
L 2022 519 
Q 2988 519 3436 956 
Q 3884 1394 3884 2338 
Q 3884 3275 3436 3711 
Q 2988 4147 2022 4147 
L 1259 4147 
z
M 628 4666 
L 1925 4666 
Q 3281 4666 3915 4102 
Q 4550 3538 4550 2338 
Q 4550 1131 3912 565 
Q 3275 0 1925 0 
L 628 0 
L 628 4666 
z
" transform="scale(0.015625)"/>
     <path id="DejaVuSans-49" d="M 628 4666 
L 1259 4666 
L 1259 0 
L 628 0 
L 628 4666 
z
" transform="scale(0.015625)"/>
     <path id="DejaVuSans-63" d="M 3122 3366 
L 3122 2828 
Q 2878 2963 2633 3030 
Q 2388 3097 2138 3097 
Q 1578 3097 1268 2742 
Q 959 2388 959 1747 
Q 959 1106 1268 751 
Q 1578 397 2138 397 
Q 2388 397 2633 464 
Q 2878 531 3122 666 
L 3122 134 
Q 2881 22 2623 -34 
Q 2366 -91 2075 -91 
Q 1284 -91 818 406 
Q 353 903 353 1747 
Q 353 2603 823 3093 
Q 1294 3584 2113 3584 
Q 2378 3584 2631 3529 
Q 2884 3475 3122 3366 
z
" transform="scale(0.015625)"/>
     <path id="DejaVuSans-72" d="M 2631 2963 
Q 2534 3019 2420 3045 
Q 2306 3072 2169 3072 
Q 1681 3072 1420 2755 
Q 1159 2438 1159 1844 
L 1159 0 
L 581 0 
L 581 3500 
L 1159 3500 
L 1159 2956 
Q 1341 3275 1631 3429 
Q 1922 3584 2338 3584 
Q 2397 3584 2469 3576 
Q 2541 3569 2628 3553 
L 2631 2963 
z
" transform="scale(0.015625)"/>
    </defs>
    <use xlink:href="#DejaVuSans-Oblique-43" transform="translate(0 0.015625)"/>
    <use xlink:href="#DejaVuSans-3a" transform="translate(69.824219 0.015625)"/>
    <use xlink:href="#DejaVuSans-20" transform="translate(103.515625 0.015625)"/>
    <use xlink:href="#DejaVuSans-6c" transform="translate(135.302734 0.015625)"/>
    <use xlink:href="#DejaVuSans-6f" transform="translate(163.085938 0.015625)"/>
    <use xlink:href="#DejaVuSans-77" transform="translate(224.267578 0.015625)"/>
    <use xlink:href="#DejaVuSans-20" transform="translate(306.054688 0.015625)"/>
    <use xlink:href="#DejaVuSans-42" transform="translate(337.841797 0.015625)"/>
    <use xlink:href="#DejaVuSans-44" transform="translate(406.445312 0.015625)"/>
    <use xlink:href="#DejaVuSans-49" transform="translate(483.447266 0.015625)"/>
    <use xlink:href="#DejaVuSans-20" transform="translate(512.939453 0.015625)"/>
    <use xlink:href="#DejaVuSans-73" transform="translate(544.726562 0.015625)"/>
    <use xlink:href="#DejaVuSans-63" transform="translate(596.826172 0.015625)"/>
    <use xlink:href="#DejaVuSans-6f" transform="translate(651.806641 0.015625)"/>
    <use xlink:href="#DejaVuSans-72" transform="translate(712.988281 0.015625)"/>
    <use xlink:href="#DejaVuSans-65" transform="translate(754.101562 0.015625)"/>
   </g>
  </g>
 </g>
 <defs>
  <clipPath id="p369adf733c">
   <rect x="90" y="34.56" width="164.117647" height="221.76"/>
  </clipPath>
  <clipPath id="paf56dee128">
   <rect x="286.941176" y="34.56" width="164.117647" height="221.76"/>
  </clipPath>
  <clipPath id="p2f4c14effa">
   <rect x="483.882353" y="34.56" width="164.117647" height="221.76"/>
  </clipPath>
 </defs>
</svg>
