<?xml version="1.0" encoding="utf-8" standalone="no"?>
<!DOCTYPE svg PUBLIC "-//W3C//DTD SVG 1.1//EN"
  "http://www.w3.org/Graphics/SVG/1.1/DTD/svg11.dtd">
<svg xmlns:xlink="http://www.w3.org/1999/xlink" width="720pt" height="288pt" viewBox="0 0 720 288" xmlns="http://www.w3.org/2000/svg" version="1.1">
 <metadata>
  <rdf:RDF xmlns:dc="http://purl.org/dc/elements/1.1/" xmlns:cc="http://creativecommons.org/ns#" xmlns:rdf="http://www.w3.org/1999/02/22-rdf-syntax-ns#">
   <cc:Work>
    <dc:type rdf:resource="http://purl.org/dc/dcmitype/StillImage"/>
    <dc:date>2024-07-05T14:55:27.656822</dc:date>
    <dc:format>image/svg+xml</dc:format>
    <dc:creator>
     <cc:Agent>
      <dc:title>Matplotlib v3.7.2, https://matplotlib.org/</dc:title>
     </cc:Agent>
    </dc:creator>
   </cc:Work>
  </rdf:RDF>
 </metadata>
 <defs>
  <style type="text/css">*{stroke-linejoin: round; stroke-linecap: butt}</style>
 </defs>
 <g id="figure_1">
  <g id="patch_1">
   <path d="M 0 288 
L 720 288 
L 720 0 
L 0 0 
z
" style="fill: #ffffff"/>
  </g>
  <g id="axes_1">
   <g id="patch_2">
    <path d="M 90 256.32 
L 254.117647 256.32 
L 254.117647 34.56 
L 90 34.56 
z
" style="fill: #ffffff"/>
   </g>
   <g id="PolyCollection_1">
    <defs>
     <path id="mb226f385bb" d="M 172.429436 -105.599997 
L 171.688211 -105.599997 
L 171.576348 -105.599997 
L 171.442323 -105.599997 
L 171.285621 -105.599997 
L 171.107001 -105.599997 
L 170.908762 -105.599997 
L 170.694904 -105.599997 
L 170.47116 -105.599997 
L 170.24485 -105.599997 
L 170.024568 -105.599997 
L 169.819677 -105.599997 
L 169.639678 -105.599997 
L 169.493489 -105.599998 
L 169.388719 -105.599998 
L 169.331008 -105.599998 
L 169.323529 -105.599998 
L 169.366697 -105.599998 
L 169.458129 -105.599998 
L 169.592865 -105.599998 
L 169.763814 -105.599998 
L 169.962369 -105.599998 
L 170.179121 -105.599998 
L 170.404597 -105.599998 
L 170.629919 -105.599998 
L 170.84735 -105.599998 
L 171.050669 -105.599998 
L 171.235363 -105.599998 
L 171.398646 -105.599998 
L 171.539329 -105.599998 
L 171.657584 -105.599998 
L 171.754645 -105.599998 
L 171.832486 -105.599998 
L 171.893518 -105.599998 
L 171.940323 -105.599998 
L 171.975445 -105.599998 
L 172.001241 -105.599998 
L 172.019791 -105.599998 
L 172.032853 -105.599998 
L 172.041864 -105.599998 
L 172.047952 -105.599998 
L 172.051984 -105.599998 
L 172.054599 -105.599999 
L 172.05626 -105.599999 
L 172.057293 -105.599999 
L 172.057917 -105.599999 
L 172.058279 -105.599999 
L 172.058464 -105.599999 
L 172.058518 -105.599999 
L 172.058445 -105.599999 
L 172.058206 -105.599999 
L 172.057704 -105.599999 
L 172.056752 -105.599999 
L 172.055018 -105.599999 
L 172.051939 -105.599999 
L 172.04659 -105.599999 
L 172.03748 -105.599999 
L 172.022273 -105.599999 
L 171.997386 -105.599999 
L 171.957461 -105.599999 
L 171.89468 -105.599999 
L 171.797923 -105.599999 
L 171.651792 -105.599999 
L 171.435543 -105.599999 
L 171.122035 -105.599999 
L 170.676842 -105.599999 
L 170.057741 -105.599999 
L 169.214819 -105.599999 
L 168.091498 -105.599999 
L 166.626721 -105.599999 
L 164.758529 -105.599999 
L 162.42907 -105.6 
L 159.590948 -105.6 
L 156.214559 -105.6 
L 152.295765 -105.6 
L 147.863101 -105.6 
L 142.983441 -105.6 
L 137.765094 -105.6 
L 132.357374 -105.6 
L 126.945957 -105.6 
L 121.74389 -105.6 
L 116.978591 -105.6 
L 112.875814 -105.6 
L 109.642136 -105.6 
L 107.447775 -105.6 
L 106.411765 -105.6 
L 106.591263 -105.6 
L 107.976324 -105.6 
L 110.490812 -105.6 
L 113.999332 -105.6 
L 118.319312 -105.6 
L 123.236703 -105.6 
L 128.523485 -105.6 
L 133.954907 -105.6 
L 139.324775 -105.6 
L 144.457351 -105.6 
L 149.215087 -105.6 
L 153.501964 -105.6 
L 157.262829 -105.6 
L 160.479416 -105.6 
L 163.164133 -105.600001 
L 180.953514 -105.600001 
L 180.953514 -105.600001 
L 183.638231 -105.6 
L 186.854818 -105.6 
L 190.615683 -105.6 
L 194.90256 -105.6 
L 199.660296 -105.6 
L 204.792873 -105.6 
L 210.16274 -105.6 
L 215.594162 -105.6 
L 220.880944 -105.6 
L 225.798335 -105.6 
L 230.118315 -105.6 
L 233.626835 -105.6 
L 236.141323 -105.6 
L 237.526384 -105.6 
L 237.705882 -105.6 
L 236.669872 -105.6 
L 234.475511 -105.6 
L 231.241833 -105.6 
L 227.139056 -105.6 
L 222.373757 -105.6 
L 217.17169 -105.6 
L 211.760273 -105.6 
L 206.352553 -105.6 
L 201.134206 -105.6 
L 196.254546 -105.6 
L 191.821882 -105.6 
L 187.903088 -105.6 
L 184.526699 -105.6 
L 181.688577 -105.6 
L 179.359118 -105.599999 
L 177.490926 -105.599999 
L 176.026149 -105.599999 
L 174.902828 -105.599999 
L 174.059906 -105.599999 
L 173.440805 -105.599999 
L 172.995613 -105.599999 
L 172.682104 -105.599999 
L 172.465855 -105.599999 
L 172.319724 -105.599999 
L 172.222967 -105.599999 
L 172.160186 -105.599999 
L 172.120261 -105.599999 
L 172.095374 -105.599999 
L 172.080167 -105.599999 
L 172.071057 -105.599999 
L 172.065708 -105.599999 
L 172.062629 -105.599999 
L 172.060895 -105.599999 
L 172.059943 -105.599999 
L 172.059441 -105.599999 
L 172.059202 -105.599999 
L 172.059129 -105.599999 
L 172.059183 -105.599999 
L 172.059368 -105.599999 
L 172.05973 -105.599999 
L 172.060354 -105.599999 
L 172.061387 -105.599999 
L 172.063049 -105.599999 
L 172.065664 -105.599998 
L 172.069695 -105.599998 
L 172.075783 -105.599998 
L 172.084794 -105.599998 
L 172.097856 -105.599998 
L 172.116406 -105.599998 
L 172.142202 -105.599998 
L 172.177324 -105.599998 
L 172.224129 -105.599998 
L 172.285161 -105.599998 
L 172.363002 -105.599998 
L 172.460063 -105.599998 
L 172.578318 -105.599998 
L 172.719001 -105.599998 
L 172.882284 -105.599998 
L 173.066978 -105.599998 
L 173.270297 -105.599998 
L 173.487728 -105.599998 
L 173.71305 -105.599998 
L 173.938526 -105.599998 
L 174.155278 -105.599998 
L 174.353833 -105.599998 
L 174.524782 -105.599998 
L 174.659518 -105.599998 
L 174.75095 -105.599998 
L 174.794118 -105.599998 
L 174.786639 -105.599998 
L 174.728928 -105.599998 
L 174.624158 -105.599998 
L 174.47797 -105.599997 
L 174.297971 -105.599997 
L 174.093079 -105.599997 
L 173.872797 -105.599997 
L 173.646488 -105.599997 
L 173.422743 -105.599997 
L 173.208886 -105.599997 
L 173.010647 -105.599997 
L 172.832027 -105.599997 
L 172.675324 -105.599997 
L 172.541299 -105.599997 
L 172.429436 -105.599997 
z
" style="stroke: #343434; stroke-opacity: 0.5; stroke-width: 1.5"/>
    </defs>
    <g clip-path="url(#p75e03bdf92)">
     <use xlink:href="#mb226f385bb" x="0" y="288" style="fill: #2f7e2f; fill-opacity: 0.5; stroke: #343434; stroke-opacity: 0.5; stroke-width: 1.5"/>
    </g>
   </g>
   <g id="matplotlib.axis_1">
    <g id="xtick_1">
     <g id="line2d_1">
      <defs>
       <path id="m3b2c4afc9c" d="M 0 0 
L 0 3.5 
" style="stroke: #000000; stroke-width: 0.8"/>
      </defs>
      <g>
       <use xlink:href="#m3b2c4afc9c" x="172.058824" y="256.32" style="stroke: #000000; stroke-width: 0.8"/>
      </g>
     </g>
     <g id="text_1">
      <!-- 0 -->
      <g transform="translate(168.877574 270.918437) scale(0.1 -0.1)">
       <defs>
        <path id="DejaVuSans-30" d="M 2034 4250 
Q 1547 4250 1301 3770 
Q 1056 3291 1056 2328 
Q 1056 1369 1301 889 
Q 1547 409 2034 409 
Q 2525 409 2770 889 
Q 3016 1369 3016 2328 
Q 3016 3291 2770 3770 
Q 2525 4250 2034 4250 
z
M 2034 4750 
Q 2819 4750 3233 4129 
Q 3647 3509 3647 2328 
Q 3647 1150 3233 529 
Q 2819 -91 2034 -91 
Q 1250 -91 836 529 
Q 422 1150 422 2328 
Q 422 3509 836 4129 
Q 1250 4750 2034 4750 
z
" transform="scale(0.015625)"/>
       </defs>
       <use xlink:href="#DejaVuSans-30"/>
      </g>
     </g>
    </g>
   </g>
   <g id="matplotlib.axis_2">
    <g id="ytick_1">
     <g id="line2d_2">
      <defs>
       <path id="mf4709e9761" d="M 0 0 
L -3.5 0 
" style="stroke: #000000; stroke-width: 0.8"/>
      </defs>
      <g>
       <use xlink:href="#mf4709e9761" x="90" y="256.32" style="stroke: #000000; stroke-width: 0.8"/>
      </g>
     </g>
     <g id="text_2">
      <!-- 0.0 -->
      <g transform="translate(67.096875 260.119219) scale(0.1 -0.1)">
       <defs>
        <path id="DejaVuSans-2e" d="M 684 794 
L 1344 794 
L 1344 0 
L 684 0 
L 684 794 
z
" transform="scale(0.015625)"/>
       </defs>
       <use xlink:href="#DejaVuSans-30"/>
       <use xlink:href="#DejaVuSans-2e" x="63.623047"/>
       <use xlink:href="#DejaVuSans-30" x="95.410156"/>
      </g>
     </g>
    </g>
    <g id="ytick_2">
     <g id="line2d_3">
      <g>
       <use xlink:href="#mf4709e9761" x="90" y="211.968" style="stroke: #000000; stroke-width: 0.8"/>
      </g>
     </g>
     <g id="text_3">
      <!-- 0.2 -->
      <g transform="translate(67.096875 215.767219) scale(0.1 -0.1)">
       <defs>
        <path id="DejaVuSans-32" d="M 1228 531 
L 3431 531 
L 3431 0 
L 469 0 
L 469 531 
Q 828 903 1448 1529 
Q 2069 2156 2228 2338 
Q 2531 2678 2651 2914 
Q 2772 3150 2772 3378 
Q 2772 3750 2511 3984 
Q 2250 4219 1831 4219 
Q 1534 4219 1204 4116 
Q 875 4013 500 3803 
L 500 4441 
Q 881 4594 1212 4672 
Q 1544 4750 1819 4750 
Q 2544 4750 2975 4387 
Q 3406 4025 3406 3419 
Q 3406 3131 3298 2873 
Q 3191 2616 2906 2266 
Q 2828 2175 2409 1742 
Q 1991 1309 1228 531 
z
" transform="scale(0.015625)"/>
       </defs>
       <use xlink:href="#DejaVuSans-30"/>
       <use xlink:href="#DejaVuSans-2e" x="63.623047"/>
       <use xlink:href="#DejaVuSans-32" x="95.410156"/>
      </g>
     </g>
    </g>
    <g id="ytick_3">
     <g id="line2d_4">
      <g>
       <use xlink:href="#mf4709e9761" x="90" y="167.616" style="stroke: #000000; stroke-width: 0.8"/>
      </g>
     </g>
     <g id="text_4">
      <!-- 0.4 -->
      <g transform="translate(67.096875 171.415219) scale(0.1 -0.1)">
       <defs>
        <path id="DejaVuSans-34" d="M 2419 4116 
L 825 1625 
L 2419 1625 
L 2419 4116 
z
M 2253 4666 
L 3047 4666 
L 3047 1625 
L 3713 1625 
L 3713 1100 
L 3047 1100 
L 3047 0 
L 2419 0 
L 2419 1100 
L 313 1100 
L 313 1709 
L 2253 4666 
z
" transform="scale(0.015625)"/>
       </defs>
       <use xlink:href="#DejaVuSans-30"/>
       <use xlink:href="#DejaVuSans-2e" x="63.623047"/>
       <use xlink:href="#DejaVuSans-34" x="95.410156"/>
      </g>
     </g>
    </g>
    <g id="ytick_4">
     <g id="line2d_5">
      <g>
       <use xlink:href="#mf4709e9761" x="90" y="123.264" style="stroke: #000000; stroke-width: 0.8"/>
      </g>
     </g>
     <g id="text_5">
      <!-- 0.6 -->
      <g transform="translate(67.096875 127.063219) scale(0.1 -0.1)">
       <defs>
        <path id="DejaVuSans-36" d="M 2113 2584 
Q 1688 2584 1439 2293 
Q 1191 2003 1191 1497 
Q 1191 994 1439 701 
Q 1688 409 2113 409 
Q 2538 409 2786 701 
Q 3034 994 3034 1497 
Q 3034 2003 2786 2293 
Q 2538 2584 2113 2584 
z
M 3366 4563 
L 3366 3988 
Q 3128 4100 2886 4159 
Q 2644 4219 2406 4219 
Q 1781 4219 1451 3797 
Q 1122 3375 1075 2522 
Q 1259 2794 1537 2939 
Q 1816 3084 2150 3084 
Q 2853 3084 3261 2657 
Q 3669 2231 3669 1497 
Q 3669 778 3244 343 
Q 2819 -91 2113 -91 
Q 1303 -91 875 529 
Q 447 1150 447 2328 
Q 447 3434 972 4092 
Q 1497 4750 2381 4750 
Q 2619 4750 2861 4703 
Q 3103 4656 3366 4563 
z
" transform="scale(0.015625)"/>
       </defs>
       <use xlink:href="#DejaVuSans-30"/>
       <use xlink:href="#DejaVuSans-2e" x="63.623047"/>
       <use xlink:href="#DejaVuSans-36" x="95.410156"/>
      </g>
     </g>
    </g>
    <g id="ytick_5">
     <g id="line2d_6">
      <g>
       <use xlink:href="#mf4709e9761" x="90" y="78.912" style="stroke: #000000; stroke-width: 0.8"/>
      </g>
     </g>
     <g id="text_6">
      <!-- 0.8 -->
      <g transform="translate(67.096875 82.711219) scale(0.1 -0.1)">
       <defs>
        <path id="DejaVuSans-38" d="M 2034 2216 
Q 1584 2216 1326 1975 
Q 1069 1734 1069 1313 
Q 1069 891 1326 650 
Q 1584 409 2034 409 
Q 2484 409 2743 651 
Q 3003 894 3003 1313 
Q 3003 1734 2745 1975 
Q 2488 2216 2034 2216 
z
M 1403 2484 
Q 997 2584 770 2862 
Q 544 3141 544 3541 
Q 544 4100 942 4425 
Q 1341 4750 2034 4750 
Q 2731 4750 3128 4425 
Q 3525 4100 3525 3541 
Q 3525 3141 3298 2862 
Q 3072 2584 2669 2484 
Q 3125 2378 3379 2068 
Q 3634 1759 3634 1313 
Q 3634 634 3220 271 
Q 2806 -91 2034 -91 
Q 1263 -91 848 271 
Q 434 634 434 1313 
Q 434 1759 690 2068 
Q 947 2378 1403 2484 
z
M 1172 3481 
Q 1172 3119 1398 2916 
Q 1625 2713 2034 2713 
Q 2441 2713 2670 2916 
Q 2900 3119 2900 3481 
Q 2900 3844 2670 4047 
Q 2441 4250 2034 4250 
Q 1625 4250 1398 4047 
Q 1172 3844 1172 3481 
z
" transform="scale(0.015625)"/>
       </defs>
       <use xlink:href="#DejaVuSans-30"/>
       <use xlink:href="#DejaVuSans-2e" x="63.623047"/>
       <use xlink:href="#DejaVuSans-38" x="95.410156"/>
      </g>
     </g>
    </g>
    <g id="ytick_6">
     <g id="line2d_7">
      <g>
       <use xlink:href="#mf4709e9761" x="90" y="34.56" style="stroke: #000000; stroke-width: 0.8"/>
      </g>
     </g>
     <g id="text_7">
      <!-- 1.0 -->
      <g transform="translate(67.096875 38.359219) scale(0.1 -0.1)">
       <defs>
        <path id="DejaVuSans-31" d="M 794 531 
L 1825 531 
L 1825 4091 
L 703 3866 
L 703 4441 
L 1819 4666 
L 2450 4666 
L 2450 531 
L 3481 531 
L 3481 0 
L 794 0 
L 794 531 
z
" transform="scale(0.015625)"/>
       </defs>
       <use xlink:href="#DejaVuSans-31"/>
       <use xlink:href="#DejaVuSans-2e" x="63.623047"/>
       <use xlink:href="#DejaVuSans-30" x="95.410156"/>
      </g>
     </g>
    </g>
    <g id="text_8">
     <!-- $p$ -->
     <g transform="translate(60.996875 148.64) rotate(-90) scale(0.1 -0.1)">
      <defs>
       <path id="DejaVuSans-Oblique-70" d="M 3175 2156 
Q 3175 2616 2975 2859 
Q 2775 3103 2400 3103 
Q 2144 3103 1911 2972 
Q 1678 2841 1497 2591 
Q 1319 2344 1212 1994 
Q 1106 1644 1106 1300 
Q 1106 863 1306 627 
Q 1506 391 1875 391 
Q 2147 391 2380 519 
Q 2613 647 2778 891 
Q 2956 1147 3065 1494 
Q 3175 1841 3175 2156 
z
M 1394 2969 
Q 1625 3272 1939 3428 
Q 2253 3584 2638 3584 
Q 3175 3584 3472 3232 
Q 3769 2881 3769 2247 
Q 3769 1728 3584 1258 
Q 3400 788 3053 416 
Q 2822 169 2531 39 
Q 2241 -91 1919 -91 
Q 1547 -91 1294 64 
Q 1041 219 916 525 
L 556 -1331 
L -19 -1331 
L 922 3500 
L 1497 3500 
L 1394 2969 
z
" transform="scale(0.015625)"/>
      </defs>
      <use xlink:href="#DejaVuSans-Oblique-70"/>
     </g>
    </g>
   </g>
   <g id="line2d_8">
    <path d="M 172.058824 182.4 
L 172.058824 182.4 
" clip-path="url(#p75e03bdf92)" style="fill: none; stroke: #343434; stroke-width: 1.5; stroke-linecap: square"/>
   </g>
   <g id="line2d_9">
    <path d="M 172.058824 182.4 
L 172.058824 182.4 
" clip-path="url(#p75e03bdf92)" style="fill: none; stroke: #343434; stroke-width: 4.5; stroke-linecap: square"/>
   </g>
   <g id="patch_3">
    <path d="M 90 256.32 
L 90 34.56 
" style="fill: none; stroke: #000000; stroke-width: 0.8; stroke-linejoin: miter; stroke-linecap: square"/>
   </g>
   <g id="patch_4">
    <path d="M 254.117647 256.32 
L 254.117647 34.56 
" style="fill: none; stroke: #000000; stroke-width: 0.8; stroke-linejoin: miter; stroke-linecap: square"/>
   </g>
   <g id="patch_5">
    <path d="M 90 256.32 
L 254.117647 256.32 
" style="fill: none; stroke: #000000; stroke-width: 0.8; stroke-linejoin: miter; stroke-linecap: square"/>
   </g>
   <g id="patch_6">
    <path d="M 90 34.56 
L 254.117647 34.56 
" style="fill: none; stroke: #000000; stroke-width: 0.8; stroke-linejoin: miter; stroke-linecap: square"/>
   </g>
   <g id="PathCollection_1">
    <defs>
     <path id="m9c674a74dc" d="M 0 1.5 
C 0.397805 1.5 0.77937 1.341951 1.06066 1.06066 
C 1.341951 0.77937 1.5 0.397805 1.5 0 
C 1.5 -0.397805 1.341951 -0.77937 1.06066 -1.06066 
C 0.77937 -1.341951 0.397805 -1.5 0 -1.5 
C -0.397805 -1.5 -0.77937 -1.341951 -1.06066 -1.06066 
C -1.341951 -0.77937 -1.5 -0.397805 -1.5 0 
C -1.5 0.397805 -1.341951 0.77937 -1.06066 1.06066 
C -0.77937 1.341951 -0.397805 1.5 0 1.5 
z
" style="stroke: #343434; stroke-opacity: 0.5"/>
    </defs>
    <g clip-path="url(#p75e03bdf92)">
     <use xlink:href="#m9c674a74dc" x="172.058824" y="182.4" style="fill: #ffffff; fill-opacity: 0.5; stroke: #343434; stroke-opacity: 0.5"/>
    </g>
   </g>
   <g id="text_9">
    <!-- win -->
    <g transform="translate(161.682574 28.56) scale(0.12 -0.12)">
     <defs>
      <path id="DejaVuSans-77" d="M 269 3500 
L 844 3500 
L 1563 769 
L 2278 3500 
L 2956 3500 
L 3675 769 
L 4391 3500 
L 4966 3500 
L 4050 0 
L 3372 0 
L 2619 2869 
L 1863 0 
L 1184 0 
L 269 3500 
z
" transform="scale(0.015625)"/>
      <path id="DejaVuSans-69" d="M 603 3500 
L 1178 3500 
L 1178 0 
L 603 0 
L 603 3500 
z
M 603 4863 
L 1178 4863 
L 1178 4134 
L 603 4134 
L 603 4863 
z
" transform="scale(0.015625)"/>
      <path id="DejaVuSans-6e" d="M 3513 2113 
L 3513 0 
L 2938 0 
L 2938 2094 
Q 2938 2591 2744 2837 
Q 2550 3084 2163 3084 
Q 1697 3084 1428 2787 
Q 1159 2491 1159 1978 
L 1159 0 
L 581 0 
L 581 3500 
L 1159 3500 
L 1159 2956 
Q 1366 3272 1645 3428 
Q 1925 3584 2291 3584 
Q 2894 3584 3203 3211 
Q 3513 2838 3513 2113 
z
" transform="scale(0.015625)"/>
     </defs>
     <use xlink:href="#DejaVuSans-77"/>
     <use xlink:href="#DejaVuSans-69" x="81.787109"/>
     <use xlink:href="#DejaVuSans-6e" x="109.570312"/>
    </g>
   </g>
  </g>
  <g id="axes_2">
   <g id="patch_7">
    <path d="M 286.941176 256.32 
L 451.058824 256.32 
L 451.058824 34.56 
L 286.941176 34.56 
z
" style="fill: #ffffff"/>
   </g>
   <g id="PolyCollection_2">
    <defs>
     <path id="m04711448b8" d="M 369.370612 -105.599997 
L 368.629388 -105.599997 
L 368.517524 -105.599997 
L 368.3835 -105.599997 
L 368.226797 -105.599997 
L 368.048177 -105.599997 
L 367.849938 -105.599997 
L 367.636081 -105.599997 
L 367.412336 -105.599997 
L 367.186027 -105.599997 
L 366.965744 -105.599997 
L 366.760853 -105.599997 
L 366.580854 -105.599997 
L 366.434666 -105.599998 
L 366.329896 -105.599998 
L 366.272185 -105.599998 
L 366.264706 -105.599998 
L 366.307873 -105.599998 
L 366.399305 -105.599998 
L 366.534042 -105.599998 
L 366.704991 -105.599998 
L 366.903545 -105.599998 
L 367.120298 -105.599998 
L 367.345774 -105.599998 
L 367.571096 -105.599998 
L 367.788527 -105.599998 
L 367.991846 -105.599998 
L 368.17654 -105.599998 
L 368.339823 -105.599998 
L 368.480506 -105.599998 
L 368.598761 -105.599998 
L 368.695821 -105.599998 
L 368.773663 -105.599998 
L 368.834695 -105.599998 
L 368.8815 -105.599998 
L 368.916622 -105.599998 
L 368.942418 -105.599998 
L 368.960967 -105.599998 
L 368.97403 -105.599998 
L 368.98304 -105.599998 
L 368.989129 -105.599998 
L 368.99316 -105.599998 
L 368.995775 -105.599999 
L 368.997437 -105.599999 
L 368.998469 -105.599999 
L 368.999094 -105.599999 
L 368.999455 -105.599999 
L 368.99964 -105.599999 
L 368.999694 -105.599999 
L 368.999621 -105.599999 
L 368.999382 -105.599999 
L 368.998881 -105.599999 
L 368.997929 -105.599999 
L 368.996194 -105.599999 
L 368.993116 -105.599999 
L 368.987766 -105.599999 
L 368.978657 -105.599999 
L 368.96345 -105.599999 
L 368.938563 -105.599999 
L 368.898638 -105.599999 
L 368.835856 -105.599999 
L 368.739099 -105.599999 
L 368.592968 -105.599999 
L 368.376719 -105.599999 
L 368.06321 -105.599999 
L 367.618018 -105.599999 
L 366.998916 -105.599999 
L 366.155994 -105.599999 
L 365.032671 -105.599999 
L 363.567895 -105.599999 
L 361.699702 -105.599999 
L 359.37024 -105.6 
L 356.532118 -105.6 
L 353.155727 -105.6 
L 349.236933 -105.6 
L 344.804266 -105.6 
L 339.924605 -105.6 
L 334.70626 -105.6 
L 329.298537 -105.6 
L 323.887121 -105.6 
L 318.685055 -105.6 
L 313.919757 -105.6 
L 309.816982 -105.6 
L 306.583307 -105.6 
L 304.388948 -105.6 
L 303.352941 -105.6 
L 303.532443 -105.6 
L 304.917507 -105.6 
L 307.431997 -105.6 
L 310.940521 -105.6 
L 315.260501 -105.6 
L 320.177896 -105.6 
L 325.464678 -105.6 
L 330.896098 -105.6 
L 336.265967 -105.6 
L 341.398545 -105.6 
L 346.156277 -105.6 
L 350.443153 -105.6 
L 354.204014 -105.6 
L 357.420602 -105.6 
L 360.105317 -105.600001 
L 377.894683 -105.600001 
L 377.894683 -105.600001 
L 380.579398 -105.6 
L 383.795986 -105.6 
L 387.556847 -105.6 
L 391.843723 -105.6 
L 396.601455 -105.6 
L 401.734033 -105.6 
L 407.103902 -105.6 
L 412.535322 -105.6 
L 417.822104 -105.6 
L 422.739499 -105.6 
L 427.059479 -105.6 
L 430.568003 -105.6 
L 433.082493 -105.6 
L 434.467557 -105.6 
L 434.647059 -105.6 
L 433.611052 -105.6 
L 431.416693 -105.6 
L 428.183018 -105.6 
L 424.080243 -105.6 
L 419.314945 -105.6 
L 414.112879 -105.6 
L 408.701463 -105.6 
L 403.29374 -105.6 
L 398.075395 -105.6 
L 393.195734 -105.6 
L 388.763067 -105.6 
L 384.844273 -105.6 
L 381.467882 -105.6 
L 378.62976 -105.6 
L 376.300298 -105.599999 
L 374.432105 -105.599999 
L 372.967329 -105.599999 
L 371.844006 -105.599999 
L 371.001084 -105.599999 
L 370.381982 -105.599999 
L 369.93679 -105.599999 
L 369.623281 -105.599999 
L 369.407032 -105.599999 
L 369.260901 -105.599999 
L 369.164144 -105.599999 
L 369.101362 -105.599999 
L 369.061437 -105.599999 
L 369.03655 -105.599999 
L 369.021343 -105.599999 
L 369.012234 -105.599999 
L 369.006884 -105.599999 
L 369.003806 -105.599999 
L 369.002071 -105.599999 
L 369.001119 -105.599999 
L 369.000618 -105.599999 
L 369.000379 -105.599999 
L 369.000306 -105.599999 
L 369.00036 -105.599999 
L 369.000545 -105.599999 
L 369.000906 -105.599999 
L 369.001531 -105.599999 
L 369.002563 -105.599999 
L 369.004225 -105.599999 
L 369.00684 -105.599998 
L 369.010871 -105.599998 
L 369.01696 -105.599998 
L 369.02597 -105.599998 
L 369.039033 -105.599998 
L 369.057582 -105.599998 
L 369.083378 -105.599998 
L 369.1185 -105.599998 
L 369.165305 -105.599998 
L 369.226337 -105.599998 
L 369.304179 -105.599998 
L 369.401239 -105.599998 
L 369.519494 -105.599998 
L 369.660177 -105.599998 
L 369.82346 -105.599998 
L 370.008154 -105.599998 
L 370.211473 -105.599998 
L 370.428904 -105.599998 
L 370.654226 -105.599998 
L 370.879702 -105.599998 
L 371.096455 -105.599998 
L 371.295009 -105.599998 
L 371.465958 -105.599998 
L 371.600695 -105.599998 
L 371.692127 -105.599998 
L 371.735294 -105.599998 
L 371.727815 -105.599998 
L 371.670104 -105.599998 
L 371.565334 -105.599998 
L 371.419146 -105.599997 
L 371.239147 -105.599997 
L 371.034256 -105.599997 
L 370.813973 -105.599997 
L 370.587664 -105.599997 
L 370.363919 -105.599997 
L 370.150062 -105.599997 
L 369.951823 -105.599997 
L 369.773203 -105.599997 
L 369.6165 -105.599997 
L 369.482476 -105.599997 
L 369.370612 -105.599997 
z
" style="stroke: #646464; stroke-width: 1.5"/>
    </defs>
    <g clip-path="url(#pce3035c45f)">
     <use xlink:href="#m04711448b8" x="0" y="288" style="fill: #e98966; stroke: #646464; stroke-width: 1.5"/>
    </g>
   </g>
   <g id="matplotlib.axis_3">
    <g id="xtick_2">
     <g id="line2d_10">
      <g>
       <use xlink:href="#m3b2c4afc9c" x="369" y="256.32" style="stroke: #000000; stroke-width: 0.8"/>
      </g>
     </g>
     <g id="text_10">
      <!-- 0 -->
      <g transform="translate(365.81875 270.918437) scale(0.1 -0.1)">
       <use xlink:href="#DejaVuSans-30"/>
      </g>
     </g>
    </g>
   </g>
   <g id="matplotlib.axis_4">
    <g id="ytick_7">
     <g id="line2d_11">
      <g>
       <use xlink:href="#mf4709e9761" x="286.941176" y="256.32" style="stroke: #000000; stroke-width: 0.8"/>
      </g>
     </g>
     <g id="text_11">
      <!-- 0.0 -->
      <g transform="translate(264.038051 260.119219) scale(0.1 -0.1)">
       <use xlink:href="#DejaVuSans-30"/>
       <use xlink:href="#DejaVuSans-2e" x="63.623047"/>
       <use xlink:href="#DejaVuSans-30" x="95.410156"/>
      </g>
     </g>
    </g>
    <g id="ytick_8">
     <g id="line2d_12">
      <g>
       <use xlink:href="#mf4709e9761" x="286.941176" y="211.968" style="stroke: #000000; stroke-width: 0.8"/>
      </g>
     </g>
     <g id="text_12">
      <!-- 0.2 -->
      <g transform="translate(264.038051 215.767219) scale(0.1 -0.1)">
       <use xlink:href="#DejaVuSans-30"/>
       <use xlink:href="#DejaVuSans-2e" x="63.623047"/>
       <use xlink:href="#DejaVuSans-32" x="95.410156"/>
      </g>
     </g>
    </g>
    <g id="ytick_9">
     <g id="line2d_13">
      <g>
       <use xlink:href="#mf4709e9761" x="286.941176" y="167.616" style="stroke: #000000; stroke-width: 0.8"/>
      </g>
     </g>
     <g id="text_13">
      <!-- 0.4 -->
      <g transform="translate(264.038051 171.415219) scale(0.1 -0.1)">
       <use xlink:href="#DejaVuSans-30"/>
       <use xlink:href="#DejaVuSans-2e" x="63.623047"/>
       <use xlink:href="#DejaVuSans-34" x="95.410156"/>
      </g>
     </g>
    </g>
    <g id="ytick_10">
     <g id="line2d_14">
      <g>
       <use xlink:href="#mf4709e9761" x="286.941176" y="123.264" style="stroke: #000000; stroke-width: 0.8"/>
      </g>
     </g>
     <g id="text_14">
      <!-- 0.6 -->
      <g transform="translate(264.038051 127.063219) scale(0.1 -0.1)">
       <use xlink:href="#DejaVuSans-30"/>
       <use xlink:href="#DejaVuSans-2e" x="63.623047"/>
       <use xlink:href="#DejaVuSans-36" x="95.410156"/>
      </g>
     </g>
    </g>
    <g id="ytick_11">
     <g id="line2d_15">
      <g>
       <use xlink:href="#mf4709e9761" x="286.941176" y="78.912" style="stroke: #000000; stroke-width: 0.8"/>
      </g>
     </g>
     <g id="text_15">
      <!-- 0.8 -->
      <g transform="translate(264.038051 82.711219) scale(0.1 -0.1)">
       <use xlink:href="#DejaVuSans-30"/>
       <use xlink:href="#DejaVuSans-2e" x="63.623047"/>
       <use xlink:href="#DejaVuSans-38" x="95.410156"/>
      </g>
     </g>
    </g>
    <g id="ytick_12">
     <g id="line2d_16">
      <g>
       <use xlink:href="#mf4709e9761" x="286.941176" y="34.56" style="stroke: #000000; stroke-width: 0.8"/>
      </g>
     </g>
     <g id="text_16">
      <!-- 1.0 -->
      <g transform="translate(264.038051 38.359219) scale(0.1 -0.1)">
       <use xlink:href="#DejaVuSans-31"/>
       <use xlink:href="#DejaVuSans-2e" x="63.623047"/>
       <use xlink:href="#DejaVuSans-30" x="95.410156"/>
      </g>
     </g>
    </g>
   </g>
   <g id="line2d_17">
    <path d="M 369 182.4 
L 369 182.4 
" clip-path="url(#pce3035c45f)" style="fill: none; stroke: #646464; stroke-width: 1.5; stroke-linecap: square"/>
   </g>
   <g id="line2d_18">
    <path d="M 369 182.4 
L 369 182.4 
" clip-path="url(#pce3035c45f)" style="fill: none; stroke: #646464; stroke-width: 4.5; stroke-linecap: square"/>
   </g>
   <g id="patch_8">
    <path d="M 286.941176 256.32 
L 286.941176 34.56 
" style="fill: none; stroke: #000000; stroke-width: 0.8; stroke-linejoin: miter; stroke-linecap: square"/>
   </g>
   <g id="patch_9">
    <path d="M 451.058824 256.32 
L 451.058824 34.56 
" style="fill: none; stroke: #000000; stroke-width: 0.8; stroke-linejoin: miter; stroke-linecap: square"/>
   </g>
   <g id="patch_10">
    <path d="M 286.941176 256.32 
L 451.058824 256.32 
" style="fill: none; stroke: #000000; stroke-width: 0.8; stroke-linejoin: miter; stroke-linecap: square"/>
   </g>
   <g id="patch_11">
    <path d="M 286.941176 34.56 
L 451.058824 34.56 
" style="fill: none; stroke: #000000; stroke-width: 0.8; stroke-linejoin: miter; stroke-linecap: square"/>
   </g>
   <g id="PathCollection_2">
    <defs>
     <path id="m39ce201904" d="M 0 1.5 
C 0.397805 1.5 0.77937 1.341951 1.06066 1.06066 
C 1.341951 0.77937 1.5 0.397805 1.5 0 
C 1.5 -0.397805 1.341951 -0.77937 1.06066 -1.06066 
C 0.77937 -1.341951 0.397805 -1.5 0 -1.5 
C -0.397805 -1.5 -0.77937 -1.341951 -1.06066 -1.06066 
C -1.341951 -0.77937 -1.5 -0.397805 -1.5 0 
C -1.5 0.397805 -1.341951 0.77937 -1.06066 1.06066 
C -0.77937 1.341951 -0.397805 1.5 0 1.5 
z
" style="stroke: #646464"/>
    </defs>
    <g clip-path="url(#pce3035c45f)">
     <use xlink:href="#m39ce201904" x="369" y="182.4" style="fill: #ffffff; stroke: #646464"/>
    </g>
   </g>
   <g id="text_17">
    <!-- loss -->
    <g transform="translate(357.410625 28.56) scale(0.12 -0.12)">
     <defs>
      <path id="DejaVuSans-6c" d="M 603 4863 
L 1178 4863 
L 1178 0 
L 603 0 
L 603 4863 
z
" transform="scale(0.015625)"/>
      <path id="DejaVuSans-6f" d="M 1959 3097 
Q 1497 3097 1228 2736 
Q 959 2375 959 1747 
Q 959 1119 1226 758 
Q 1494 397 1959 397 
Q 2419 397 2687 759 
Q 2956 1122 2956 1747 
Q 2956 2369 2687 2733 
Q 2419 3097 1959 3097 
z
M 1959 3584 
Q 2709 3584 3137 3096 
Q 3566 2609 3566 1747 
Q 3566 888 3137 398 
Q 2709 -91 1959 -91 
Q 1206 -91 779 398 
Q 353 888 353 1747 
Q 353 2609 779 3096 
Q 1206 3584 1959 3584 
z
" transform="scale(0.015625)"/>
      <path id="DejaVuSans-73" d="M 2834 3397 
L 2834 2853 
Q 2591 2978 2328 3040 
Q 2066 3103 1784 3103 
Q 1356 3103 1142 2972 
Q 928 2841 928 2578 
Q 928 2378 1081 2264 
Q 1234 2150 1697 2047 
L 1894 2003 
Q 2506 1872 2764 1633 
Q 3022 1394 3022 966 
Q 3022 478 2636 193 
Q 2250 -91 1575 -91 
Q 1294 -91 989 -36 
Q 684 19 347 128 
L 347 722 
Q 666 556 975 473 
Q 1284 391 1588 391 
Q 1994 391 2212 530 
Q 2431 669 2431 922 
Q 2431 1156 2273 1281 
Q 2116 1406 1581 1522 
L 1381 1569 
Q 847 1681 609 1914 
Q 372 2147 372 2553 
Q 372 3047 722 3315 
Q 1072 3584 1716 3584 
Q 2034 3584 2315 3537 
Q 2597 3491 2834 3397 
z
" transform="scale(0.015625)"/>
     </defs>
     <use xlink:href="#DejaVuSans-6c"/>
     <use xlink:href="#DejaVuSans-6f" x="27.783203"/>
     <use xlink:href="#DejaVuSans-73" x="88.964844"/>
     <use xlink:href="#DejaVuSans-73" x="141.064453"/>
    </g>
   </g>
  </g>
  <g id="axes_3">
   <g id="patch_12">
    <path d="M 483.882353 256.32 
L 648 256.32 
L 648 34.56 
L 483.882353 34.56 
z
" style="fill: #ffffff"/>
   </g>
   <g id="PolyCollection_3">
    <defs>
     <path id="m8b9eedb7b9" d="M 574.835872 -105.599999 
L 557.046481 -105.599999 
L 554.361763 -105.599999 
L 551.145173 -105.599999 
L 547.384309 -105.599999 
L 543.09743 -105.599999 
L 538.339694 -105.599999 
L 533.207115 -105.599999 
L 527.837248 -105.599999 
L 522.405828 -105.6 
L 517.119048 -105.6 
L 512.201654 -105.6 
L 507.881677 -105.6 
L 504.373158 -105.6 
L 501.858672 -105.6 
L 500.473614 -105.6 
L 500.294118 -105.6 
L 501.33013 -105.6 
L 503.524493 -105.6 
L 506.758174 -105.6 
L 510.860951 -105.6 
L 515.626251 -105.6 
L 520.828318 -105.6 
L 526.239735 -105.600001 
L 531.647456 -105.600001 
L 536.865801 -105.600001 
L 541.745462 -105.600001 
L 546.178125 -105.600001 
L 550.096917 -105.600001 
L 553.473306 -105.600001 
L 556.311426 -105.600001 
L 558.640885 -105.600001 
L 560.509077 -105.600001 
L 561.973852 -105.600001 
L 563.097174 -105.600001 
L 563.940095 -105.600001 
L 564.559196 -105.600001 
L 565.004388 -105.600001 
L 565.317896 -105.600002 
L 565.534145 -105.600002 
L 565.680276 -105.600002 
L 565.777033 -105.600002 
L 565.839814 -105.600002 
L 565.879739 -105.600002 
L 565.904626 -105.600002 
L 565.919833 -105.600002 
L 565.928943 -105.600002 
L 565.934292 -105.600002 
L 565.937371 -105.600002 
L 565.939105 -105.600002 
L 565.940057 -105.600002 
L 565.940559 -105.600002 
L 565.940798 -105.600002 
L 565.940871 -105.600003 
L 565.940817 -105.600003 
L 565.940632 -105.600003 
L 565.94027 -105.600003 
L 565.939646 -105.600003 
L 565.938613 -105.600003 
L 565.936951 -105.600003 
L 565.934336 -105.600003 
L 565.930305 -105.600003 
L 565.924217 -105.600003 
L 565.915206 -105.600003 
L 565.902144 -105.600003 
L 565.883594 -105.600003 
L 565.857798 -105.600003 
L 565.822676 -105.600004 
L 565.775871 -105.600004 
L 565.714839 -105.600004 
L 565.636998 -105.600004 
L 565.539937 -105.600004 
L 565.421682 -105.600004 
L 565.280999 -105.600004 
L 565.117716 -105.600004 
L 564.933022 -105.600004 
L 564.729703 -105.600004 
L 564.512272 -105.600004 
L 564.28695 -105.600004 
L 564.061474 -105.600004 
L 563.844722 -105.600004 
L 563.646167 -105.600004 
L 563.475218 -105.600005 
L 563.340482 -105.600005 
L 563.24905 -105.600005 
L 563.205882 -105.600005 
L 563.213361 -105.600005 
L 563.271072 -105.600005 
L 563.375842 -105.600005 
L 563.52203 -105.600005 
L 563.702029 -105.600005 
L 563.906921 -105.600005 
L 564.127203 -105.600005 
L 564.353512 -105.600005 
L 564.577257 -105.600005 
L 564.791114 -105.600005 
L 564.989353 -105.600006 
L 565.167973 -105.600006 
L 565.324676 -105.600006 
L 565.458701 -105.600006 
L 565.570564 -105.600006 
L 566.311789 -105.600006 
L 566.311789 -105.600006 
L 566.423652 -105.600006 
L 566.557677 -105.600006 
L 566.71438 -105.600006 
L 566.893 -105.600006 
L 567.091239 -105.600005 
L 567.305096 -105.600005 
L 567.52884 -105.600005 
L 567.75515 -105.600005 
L 567.975432 -105.600005 
L 568.180323 -105.600005 
L 568.360323 -105.600005 
L 568.506511 -105.600005 
L 568.611281 -105.600005 
L 568.668992 -105.600005 
L 568.676471 -105.600005 
L 568.633303 -105.600005 
L 568.541871 -105.600005 
L 568.407135 -105.600005 
L 568.236186 -105.600004 
L 568.037631 -105.600004 
L 567.820879 -105.600004 
L 567.595403 -105.600004 
L 567.370081 -105.600004 
L 567.15265 -105.600004 
L 566.949331 -105.600004 
L 566.764637 -105.600004 
L 566.601354 -105.600004 
L 566.460671 -105.600004 
L 566.342416 -105.600004 
L 566.245355 -105.600004 
L 566.167514 -105.600004 
L 566.106482 -105.600004 
L 566.059677 -105.600004 
L 566.024555 -105.600003 
L 565.998759 -105.600003 
L 565.980209 -105.600003 
L 565.967147 -105.600003 
L 565.958136 -105.600003 
L 565.952048 -105.600003 
L 565.948016 -105.600003 
L 565.945402 -105.600003 
L 565.94374 -105.600003 
L 565.942707 -105.600003 
L 565.942083 -105.600003 
L 565.941721 -105.600003 
L 565.941536 -105.600003 
L 565.941482 -105.600003 
L 565.941555 -105.600002 
L 565.941794 -105.600002 
L 565.942296 -105.600002 
L 565.943248 -105.600002 
L 565.944982 -105.600002 
L 565.948061 -105.600002 
L 565.95341 -105.600002 
L 565.96252 -105.600002 
L 565.977727 -105.600002 
L 566.002614 -105.600002 
L 566.042539 -105.600002 
L 566.10532 -105.600002 
L 566.202077 -105.600002 
L 566.348208 -105.600002 
L 566.564457 -105.600002 
L 566.877965 -105.600001 
L 567.323157 -105.600001 
L 567.942258 -105.600001 
L 568.785179 -105.600001 
L 569.908501 -105.600001 
L 571.373276 -105.600001 
L 573.241467 -105.600001 
L 575.570927 -105.600001 
L 578.409047 -105.600001 
L 581.785436 -105.600001 
L 585.704228 -105.600001 
L 590.136891 -105.600001 
L 595.016552 -105.600001 
L 600.234897 -105.600001 
L 605.642618 -105.600001 
L 611.054035 -105.6 
L 616.256102 -105.6 
L 621.021402 -105.6 
L 625.124179 -105.6 
L 628.35786 -105.6 
L 630.552223 -105.6 
L 631.588235 -105.6 
L 631.408739 -105.6 
L 630.023681 -105.6 
L 627.509195 -105.6 
L 624.000676 -105.6 
L 619.680699 -105.6 
L 614.763305 -105.6 
L 609.476525 -105.6 
L 604.045105 -105.599999 
L 598.675238 -105.599999 
L 593.542659 -105.599999 
L 588.784923 -105.599999 
L 584.498044 -105.599999 
L 580.73718 -105.599999 
L 577.52059 -105.599999 
L 574.835872 -105.599999 
z
" style="stroke: #3f3f3f; stroke-width: 1.5"/>
    </defs>
    <g clip-path="url(#pecee8d04b9)">
     <use xlink:href="#m8b9eedb7b9" x="0" y="288" style="fill: #3274a1; stroke: #3f3f3f; stroke-width: 1.5"/>
    </g>
   </g>
   <g id="matplotlib.axis_5">
    <g id="xtick_3">
     <g id="line2d_19">
      <g>
       <use xlink:href="#m3b2c4afc9c" x="565.941176" y="256.32" style="stroke: #000000; stroke-width: 0.8"/>
      </g>
     </g>
     <g id="text_18">
      <!-- 0 -->
      <g transform="translate(562.759926 270.918437) scale(0.1 -0.1)">
       <use xlink:href="#DejaVuSans-30"/>
      </g>
     </g>
    </g>
   </g>
   <g id="matplotlib.axis_6">
    <g id="ytick_13">
     <g id="line2d_20">
      <g>
       <use xlink:href="#mf4709e9761" x="483.882353" y="256.32" style="stroke: #000000; stroke-width: 0.8"/>
      </g>
     </g>
     <g id="text_19">
      <!-- 0.0 -->
      <g transform="translate(460.979228 260.119219) scale(0.1 -0.1)">
       <use xlink:href="#DejaVuSans-30"/>
       <use xlink:href="#DejaVuSans-2e" x="63.623047"/>
       <use xlink:href="#DejaVuSans-30" x="95.410156"/>
      </g>
     </g>
    </g>
    <g id="ytick_14">
     <g id="line2d_21">
      <g>
       <use xlink:href="#mf4709e9761" x="483.882353" y="211.968" style="stroke: #000000; stroke-width: 0.8"/>
      </g>
     </g>
     <g id="text_20">
      <!-- 0.2 -->
      <g transform="translate(460.979228 215.767219) scale(0.1 -0.1)">
       <use xlink:href="#DejaVuSans-30"/>
       <use xlink:href="#DejaVuSans-2e" x="63.623047"/>
       <use xlink:href="#DejaVuSans-32" x="95.410156"/>
      </g>
     </g>
    </g>
    <g id="ytick_15">
     <g id="line2d_22">
      <g>
       <use xlink:href="#mf4709e9761" x="483.882353" y="167.616" style="stroke: #000000; stroke-width: 0.8"/>
      </g>
     </g>
     <g id="text_21">
      <!-- 0.4 -->
      <g transform="translate(460.979228 171.415219) scale(0.1 -0.1)">
       <use xlink:href="#DejaVuSans-30"/>
       <use xlink:href="#DejaVuSans-2e" x="63.623047"/>
       <use xlink:href="#DejaVuSans-34" x="95.410156"/>
      </g>
     </g>
    </g>
    <g id="ytick_16">
     <g id="line2d_23">
      <g>
       <use xlink:href="#mf4709e9761" x="483.882353" y="123.264" style="stroke: #000000; stroke-width: 0.8"/>
      </g>
     </g>
     <g id="text_22">
      <!-- 0.6 -->
      <g transform="translate(460.979228 127.063219) scale(0.1 -0.1)">
       <use xlink:href="#DejaVuSans-30"/>
       <use xlink:href="#DejaVuSans-2e" x="63.623047"/>
       <use xlink:href="#DejaVuSans-36" x="95.410156"/>
      </g>
     </g>
    </g>
    <g id="ytick_17">
     <g id="line2d_24">
      <g>
       <use xlink:href="#mf4709e9761" x="483.882353" y="78.912" style="stroke: #000000; stroke-width: 0.8"/>
      </g>
     </g>
     <g id="text_23">
      <!-- 0.8 -->
      <g transform="translate(460.979228 82.711219) scale(0.1 -0.1)">
       <use xlink:href="#DejaVuSans-30"/>
       <use xlink:href="#DejaVuSans-2e" x="63.623047"/>
       <use xlink:href="#DejaVuSans-38" x="95.410156"/>
      </g>
     </g>
    </g>
    <g id="ytick_18">
     <g id="line2d_25">
      <g>
       <use xlink:href="#mf4709e9761" x="483.882353" y="34.56" style="stroke: #000000; stroke-width: 0.8"/>
      </g>
     </g>
     <g id="text_24">
      <!-- 1.0 -->
      <g transform="translate(460.979228 38.359219) scale(0.1 -0.1)">
       <use xlink:href="#DejaVuSans-31"/>
       <use xlink:href="#DejaVuSans-2e" x="63.623047"/>
       <use xlink:href="#DejaVuSans-30" x="95.410156"/>
      </g>
     </g>
    </g>
   </g>
   <g id="line2d_26">
    <path d="M 565.941176 182.4 
L 565.941176 182.4 
" clip-path="url(#pecee8d04b9)" style="fill: none; stroke: #3f3f3f; stroke-width: 1.5; stroke-linecap: square"/>
   </g>
   <g id="line2d_27">
    <path d="M 565.941176 182.4 
L 565.941176 182.4 
" clip-path="url(#pecee8d04b9)" style="fill: none; stroke: #3f3f3f; stroke-width: 4.5; stroke-linecap: square"/>
   </g>
   <g id="patch_13">
    <path d="M 483.882353 256.32 
L 483.882353 34.56 
" style="fill: none; stroke: #000000; stroke-width: 0.8; stroke-linejoin: miter; stroke-linecap: square"/>
   </g>
   <g id="patch_14">
    <path d="M 648 256.32 
L 648 34.56 
" style="fill: none; stroke: #000000; stroke-width: 0.8; stroke-linejoin: miter; stroke-linecap: square"/>
   </g>
   <g id="patch_15">
    <path d="M 483.882353 256.32 
L 648 256.32 
" style="fill: none; stroke: #000000; stroke-width: 0.8; stroke-linejoin: miter; stroke-linecap: square"/>
   </g>
   <g id="patch_16">
    <path d="M 483.882353 34.56 
L 648 34.56 
" style="fill: none; stroke: #000000; stroke-width: 0.8; stroke-linejoin: miter; stroke-linecap: square"/>
   </g>
   <g id="PathCollection_3">
    <defs>
     <path id="m8ba25e3c88" d="M 0 1.5 
C 0.397805 1.5 0.77937 1.341951 1.06066 1.06066 
C 1.341951 0.77937 1.5 0.397805 1.5 0 
C 1.5 -0.397805 1.341951 -0.77937 1.06066 -1.06066 
C 0.77937 -1.341951 0.397805 -1.5 0 -1.5 
C -0.397805 -1.5 -0.77937 -1.341951 -1.06066 -1.06066 
C -1.341951 -0.77937 -1.5 -0.397805 -1.5 0 
C -1.5 0.397805 -1.341951 0.77937 -1.06066 1.06066 
C -0.77937 1.341951 -0.397805 1.5 0 1.5 
z
" style="stroke: #3f3f3f"/>
    </defs>
    <g clip-path="url(#pecee8d04b9)">
     <use xlink:href="#m8ba25e3c88" x="565.941176" y="182.4" style="fill: #ffffff; stroke: #3f3f3f"/>
    </g>
   </g>
   <g id="text_25">
    <!-- keep budget -->
    <g transform="translate(528.310864 28.56) scale(0.12 -0.12)">
     <defs>
      <path id="DejaVuSans-6b" d="M 581 4863 
L 1159 4863 
L 1159 1991 
L 2875 3500 
L 3609 3500 
L 1753 1863 
L 3688 0 
L 2938 0 
L 1159 1709 
L 1159 0 
L 581 0 
L 581 4863 
z
" transform="scale(0.015625)"/>
      <path id="DejaVuSans-65" d="M 3597 1894 
L 3597 1613 
L 953 1613 
Q 991 1019 1311 708 
Q 1631 397 2203 397 
Q 2534 397 2845 478 
Q 3156 559 3463 722 
L 3463 178 
Q 3153 47 2828 -22 
Q 2503 -91 2169 -91 
Q 1331 -91 842 396 
Q 353 884 353 1716 
Q 353 2575 817 3079 
Q 1281 3584 2069 3584 
Q 2775 3584 3186 3129 
Q 3597 2675 3597 1894 
z
M 3022 2063 
Q 3016 2534 2758 2815 
Q 2500 3097 2075 3097 
Q 1594 3097 1305 2825 
Q 1016 2553 972 2059 
L 3022 2063 
z
" transform="scale(0.015625)"/>
      <path id="DejaVuSans-70" d="M 1159 525 
L 1159 -1331 
L 581 -1331 
L 581 3500 
L 1159 3500 
L 1159 2969 
Q 1341 3281 1617 3432 
Q 1894 3584 2278 3584 
Q 2916 3584 3314 3078 
Q 3713 2572 3713 1747 
Q 3713 922 3314 415 
Q 2916 -91 2278 -91 
Q 1894 -91 1617 61 
Q 1341 213 1159 525 
z
M 3116 1747 
Q 3116 2381 2855 2742 
Q 2594 3103 2138 3103 
Q 1681 3103 1420 2742 
Q 1159 2381 1159 1747 
Q 1159 1113 1420 752 
Q 1681 391 2138 391 
Q 2594 391 2855 752 
Q 3116 1113 3116 1747 
z
" transform="scale(0.015625)"/>
      <path id="DejaVuSans-20" transform="scale(0.015625)"/>
      <path id="DejaVuSans-62" d="M 3116 1747 
Q 3116 2381 2855 2742 
Q 2594 3103 2138 3103 
Q 1681 3103 1420 2742 
Q 1159 2381 1159 1747 
Q 1159 1113 1420 752 
Q 1681 391 2138 391 
Q 2594 391 2855 752 
Q 3116 1113 3116 1747 
z
M 1159 2969 
Q 1341 3281 1617 3432 
Q 1894 3584 2278 3584 
Q 2916 3584 3314 3078 
Q 3713 2572 3713 1747 
Q 3713 922 3314 415 
Q 2916 -91 2278 -91 
Q 1894 -91 1617 61 
Q 1341 213 1159 525 
L 1159 0 
L 581 0 
L 581 4863 
L 1159 4863 
L 1159 2969 
z
" transform="scale(0.015625)"/>
      <path id="DejaVuSans-75" d="M 544 1381 
L 544 3500 
L 1119 3500 
L 1119 1403 
Q 1119 906 1312 657 
Q 1506 409 1894 409 
Q 2359 409 2629 706 
Q 2900 1003 2900 1516 
L 2900 3500 
L 3475 3500 
L 3475 0 
L 2900 0 
L 2900 538 
Q 2691 219 2414 64 
Q 2138 -91 1772 -91 
Q 1169 -91 856 284 
Q 544 659 544 1381 
z
M 1991 3584 
L 1991 3584 
z
" transform="scale(0.015625)"/>
      <path id="DejaVuSans-64" d="M 2906 2969 
L 2906 4863 
L 3481 4863 
L 3481 0 
L 2906 0 
L 2906 525 
Q 2725 213 2448 61 
Q 2172 -91 1784 -91 
Q 1150 -91 751 415 
Q 353 922 353 1747 
Q 353 2572 751 3078 
Q 1150 3584 1784 3584 
Q 2172 3584 2448 3432 
Q 2725 3281 2906 2969 
z
M 947 1747 
Q 947 1113 1208 752 
Q 1469 391 1925 391 
Q 2381 391 2643 752 
Q 2906 1113 2906 1747 
Q 2906 2381 2643 2742 
Q 2381 3103 1925 3103 
Q 1469 3103 1208 2742 
Q 947 2381 947 1747 
z
" transform="scale(0.015625)"/>
      <path id="DejaVuSans-67" d="M 2906 1791 
Q 2906 2416 2648 2759 
Q 2391 3103 1925 3103 
Q 1463 3103 1205 2759 
Q 947 2416 947 1791 
Q 947 1169 1205 825 
Q 1463 481 1925 481 
Q 2391 481 2648 825 
Q 2906 1169 2906 1791 
z
M 3481 434 
Q 3481 -459 3084 -895 
Q 2688 -1331 1869 -1331 
Q 1566 -1331 1297 -1286 
Q 1028 -1241 775 -1147 
L 775 -588 
Q 1028 -725 1275 -790 
Q 1522 -856 1778 -856 
Q 2344 -856 2625 -561 
Q 2906 -266 2906 331 
L 2906 616 
Q 2728 306 2450 153 
Q 2172 0 1784 0 
Q 1141 0 747 490 
Q 353 981 353 1791 
Q 353 2603 747 3093 
Q 1141 3584 1784 3584 
Q 2172 3584 2450 3431 
Q 2728 3278 2906 2969 
L 2906 3500 
L 3481 3500 
L 3481 434 
z
" transform="scale(0.015625)"/>
      <path id="DejaVuSans-74" d="M 1172 4494 
L 1172 3500 
L 2356 3500 
L 2356 3053 
L 1172 3053 
L 1172 1153 
Q 1172 725 1289 603 
Q 1406 481 1766 481 
L 2356 481 
L 2356 0 
L 1766 0 
Q 1100 0 847 248 
Q 594 497 594 1153 
L 594 3053 
L 172 3053 
L 172 3500 
L 594 3500 
L 594 4494 
L 1172 4494 
z
" transform="scale(0.015625)"/>
     </defs>
     <use xlink:href="#DejaVuSans-6b"/>
     <use xlink:href="#DejaVuSans-65" x="54.285156"/>
     <use xlink:href="#DejaVuSans-65" x="115.808594"/>
     <use xlink:href="#DejaVuSans-70" x="177.332031"/>
     <use xlink:href="#DejaVuSans-20" x="240.808594"/>
     <use xlink:href="#DejaVuSans-62" x="272.595703"/>
     <use xlink:href="#DejaVuSans-75" x="336.072266"/>
     <use xlink:href="#DejaVuSans-64" x="399.451172"/>
     <use xlink:href="#DejaVuSans-67" x="462.927734"/>
     <use xlink:href="#DejaVuSans-65" x="526.404297"/>
     <use xlink:href="#DejaVuSans-74" x="587.927734"/>
    </g>
   </g>
  </g>
  <g id="text_26">
   <!-- $C$: all participants -->
   <g transform="translate(307.2 14.88) scale(0.12 -0.12)">
    <defs>
     <path id="DejaVuSans-Oblique-43" d="M 4447 4306 
L 4319 3641 
Q 4019 3944 3683 4091 
Q 3347 4238 2956 4238 
Q 2422 4238 2017 3981 
Q 1613 3725 1319 3200 
Q 1131 2863 1032 2486 
Q 934 2109 934 1728 
Q 934 1091 1264 756 
Q 1594 422 2222 422 
Q 2656 422 3056 561 
Q 3456 700 3834 978 
L 3688 231 
Q 3316 72 2936 -9 
Q 2556 -91 2175 -91 
Q 1278 -91 773 396 
Q 269 884 269 1753 
Q 269 2309 461 2846 
Q 653 3384 1013 3828 
Q 1394 4300 1883 4525 
Q 2372 4750 3022 4750 
Q 3422 4750 3780 4639 
Q 4138 4528 4447 4306 
z
" transform="scale(0.015625)"/>
     <path id="DejaVuSans-3a" d="M 750 794 
L 1409 794 
L 1409 0 
L 750 0 
L 750 794 
z
M 750 3309 
L 1409 3309 
L 1409 2516 
L 750 2516 
L 750 3309 
z
" transform="scale(0.015625)"/>
     <path id="DejaVuSans-61" d="M 2194 1759 
Q 1497 1759 1228 1600 
Q 959 1441 959 1056 
Q 959 750 1161 570 
Q 1363 391 1709 391 
Q 2188 391 2477 730 
Q 2766 1069 2766 1631 
L 2766 1759 
L 2194 1759 
z
M 3341 1997 
L 3341 0 
L 2766 0 
L 2766 531 
Q 2569 213 2275 61 
Q 1981 -91 1556 -91 
Q 1019 -91 701 211 
Q 384 513 384 1019 
Q 384 1609 779 1909 
Q 1175 2209 1959 2209 
L 2766 2209 
L 2766 2266 
Q 2766 2663 2505 2880 
Q 2244 3097 1772 3097 
Q 1472 3097 1187 3025 
Q 903 2953 641 2809 
L 641 3341 
Q 956 3463 1253 3523 
Q 1550 3584 1831 3584 
Q 2591 3584 2966 3190 
Q 3341 2797 3341 1997 
z
" transform="scale(0.015625)"/>
     <path id="DejaVuSans-72" d="M 2631 2963 
Q 2534 3019 2420 3045 
Q 2306 3072 2169 3072 
Q 1681 3072 1420 2755 
Q 1159 2438 1159 1844 
L 1159 0 
L 581 0 
L 581 3500 
L 1159 3500 
L 1159 2956 
Q 1341 3275 1631 3429 
Q 1922 3584 2338 3584 
Q 2397 3584 2469 3576 
Q 2541 3569 2628 3553 
L 2631 2963 
z
" transform="scale(0.015625)"/>
     <path id="DejaVuSans-63" d="M 3122 3366 
L 3122 2828 
Q 2878 2963 2633 3030 
Q 2388 3097 2138 3097 
Q 1578 3097 1268 2742 
Q 959 2388 959 1747 
Q 959 1106 1268 751 
Q 1578 397 2138 397 
Q 2388 397 2633 464 
Q 2878 531 3122 666 
L 3122 134 
Q 2881 22 2623 -34 
Q 2366 -91 2075 -91 
Q 1284 -91 818 406 
Q 353 903 353 1747 
Q 353 2603 823 3093 
Q 1294 3584 2113 3584 
Q 2378 3584 2631 3529 
Q 2884 3475 3122 3366 
z
" transform="scale(0.015625)"/>
    </defs>
    <use xlink:href="#DejaVuSans-Oblique-43" transform="translate(0 0.015625)"/>
    <use xlink:href="#DejaVuSans-3a" transform="translate(69.824219 0.015625)"/>
    <use xlink:href="#DejaVuSans-20" transform="translate(103.515625 0.015625)"/>
    <use xlink:href="#DejaVuSans-61" transform="translate(135.302734 0.015625)"/>
    <use xlink:href="#DejaVuSans-6c" transform="translate(196.582031 0.015625)"/>
    <use xlink:href="#DejaVuSans-6c" transform="translate(224.365234 0.015625)"/>
    <use xlink:href="#DejaVuSans-20" transform="translate(252.148438 0.015625)"/>
    <use xlink:href="#DejaVuSans-70" transform="translate(283.935547 0.015625)"/>
    <use xlink:href="#DejaVuSans-61" transform="translate(347.412109 0.015625)"/>
    <use xlink:href="#DejaVuSans-72" transform="translate(408.691406 0.015625)"/>
    <use xlink:href="#DejaVuSans-74" transform="translate(449.804688 0.015625)"/>
    <use xlink:href="#DejaVuSans-69" transform="translate(489.013672 0.015625)"/>
    <use xlink:href="#DejaVuSans-63" transform="translate(516.796875 0.015625)"/>
    <use xlink:href="#DejaVuSans-69" transform="translate(571.777344 0.015625)"/>
    <use xlink:href="#DejaVuSans-70" transform="translate(599.560547 0.015625)"/>
    <use xlink:href="#DejaVuSans-61" transform="translate(663.037109 0.015625)"/>
    <use xlink:href="#DejaVuSans-6e" transform="translate(724.316406 0.015625)"/>
    <use xlink:href="#DejaVuSans-74" transform="translate(787.695312 0.015625)"/>
    <use xlink:href="#DejaVuSans-73" transform="translate(826.904297 0.015625)"/>
   </g>
  </g>
 </g>
 <defs>
  <clipPath id="p75e03bdf92">
   <rect x="90" y="34.56" width="164.117647" height="221.76"/>
  </clipPath>
  <clipPath id="pce3035c45f">
   <rect x="286.941176" y="34.56" width="164.117647" height="221.76"/>
  </clipPath>
  <clipPath id="pecee8d04b9">
   <rect x="483.882353" y="34.56" width="164.117647" height="221.76"/>
  </clipPath>
 </defs>
</svg>
