<?xml version="1.0" encoding="utf-8" standalone="no"?>
<!DOCTYPE svg PUBLIC "-//W3C//DTD SVG 1.1//EN"
  "http://www.w3.org/Graphics/SVG/1.1/DTD/svg11.dtd">
<svg xmlns:xlink="http://www.w3.org/1999/xlink" width="460.8pt" height="345.6pt" viewBox="0 0 460.8 345.6" xmlns="http://www.w3.org/2000/svg" version="1.1">
 <metadata>
  <rdf:RDF xmlns:dc="http://purl.org/dc/elements/1.1/" xmlns:cc="http://creativecommons.org/ns#" xmlns:rdf="http://www.w3.org/1999/02/22-rdf-syntax-ns#">
   <cc:Work>
    <dc:type rdf:resource="http://purl.org/dc/dcmitype/StillImage"/>
    <dc:date>2024-07-12T12:14:22.496565</dc:date>
    <dc:format>image/svg+xml</dc:format>
    <dc:creator>
     <cc:Agent>
      <dc:title>Matplotlib v3.7.2, https://matplotlib.org/</dc:title>
     </cc:Agent>
    </dc:creator>
   </cc:Work>
  </rdf:RDF>
 </metadata>
 <defs>
  <style type="text/css">*{stroke-linejoin: round; stroke-linecap: butt}</style>
 </defs>
 <g id="figure_1">
  <g id="patch_1">
   <path d="M 0 345.6 
L 460.8 345.6 
L 460.8 0 
L 0 0 
z
" style="fill: #ffffff"/>
  </g>
  <g id="axes_1">
   <g id="patch_2">
    <path d="M 57.6 307.584 
L 414.72 307.584 
L 414.72 41.472 
L 57.6 41.472 
z
" style="fill: #ffffff"/>
   </g>
   <g id="patch_3">
    <path d="M 73.832727 307.584 
L 108.617143 307.584 
L 108.617143 190.918442 
L 73.832727 190.918442 
z
" clip-path="url(#p32fcc518c3)" style="fill: #00fa9a; opacity: 0.2"/>
   </g>
   <g id="patch_4">
    <path d="M 189.780779 307.584 
L 224.565195 307.584 
L 224.565195 139.345065 
L 189.780779 139.345065 
z
" clip-path="url(#p32fcc518c3)" style="fill: #ff0000; opacity: 0.2"/>
   </g>
   <g id="patch_5">
    <path d="M 305.728831 307.584 
L 340.513247 307.584 
L 340.513247 183.085416 
L 305.728831 183.085416 
z
" clip-path="url(#p32fcc518c3)" style="fill: #9370db; opacity: 0.2"/>
   </g>
   <g id="patch_6">
    <path d="M 102.81974 307.584 
L 137.604156 307.584 
L 137.604156 175.9467 
L 102.81974 175.9467 
z
" clip-path="url(#p32fcc518c3)" style="fill: url(#h75c387868b); opacity: 0.6"/>
   </g>
   <g id="patch_7">
    <path d="M 218.767792 307.584 
L 253.552208 307.584 
L 253.552208 165.719849 
L 218.767792 165.719849 
z
" clip-path="url(#p32fcc518c3)" style="fill: url(#h5e2077a87c); opacity: 0.6"/>
   </g>
   <g id="patch_8">
    <path d="M 334.715844 307.584 
L 369.50026 307.584 
L 369.50026 171.682374 
L 334.715844 171.682374 
z
" clip-path="url(#p32fcc518c3)" style="fill: url(#hf884313acb); opacity: 0.6"/>
   </g>
   <g id="patch_9">
    <path d="M 131.806753 307.584 
L 166.591169 307.584 
L 166.591169 158.852736 
L 131.806753 158.852736 
z
" clip-path="url(#p32fcc518c3)" style="fill: #00fa9a"/>
   </g>
   <g id="patch_10">
    <path d="M 247.754805 307.584 
L 282.539221 307.584 
L 282.539221 178.347247 
L 247.754805 178.347247 
z
" clip-path="url(#p32fcc518c3)" style="fill: #ff0000"/>
   </g>
   <g id="patch_11">
    <path d="M 363.702857 307.584 
L 398.487273 307.584 
L 398.487273 176.14894 
L 363.702857 176.14894 
z
" clip-path="url(#p32fcc518c3)" style="fill: #9370db"/>
   </g>
   <g id="matplotlib.axis_1">
    <g id="xtick_1">
     <g id="line2d_1">
      <defs>
       <path id="m07bee46142" d="M 0 0 
L 0 3.5 
" style="stroke: #000000; stroke-width: 0.8"/>
      </defs>
      <g>
       <use xlink:href="#m07bee46142" x="91.224935" y="307.584" style="stroke: #000000; stroke-width: 0.8"/>
      </g>
     </g>
     <g id="text_1">
      <!-- coop. -->
      <g transform="translate(77.593685 322.182437) scale(0.1 -0.1)">
       <defs>
        <path id="DejaVuSans-63" d="M 3122 3366 
L 3122 2828 
Q 2878 2963 2633 3030 
Q 2388 3097 2138 3097 
Q 1578 3097 1268 2742 
Q 959 2388 959 1747 
Q 959 1106 1268 751 
Q 1578 397 2138 397 
Q 2388 397 2633 464 
Q 2878 531 3122 666 
L 3122 134 
Q 2881 22 2623 -34 
Q 2366 -91 2075 -91 
Q 1284 -91 818 406 
Q 353 903 353 1747 
Q 353 2603 823 3093 
Q 1294 3584 2113 3584 
Q 2378 3584 2631 3529 
Q 2884 3475 3122 3366 
z
" transform="scale(0.015625)"/>
        <path id="DejaVuSans-6f" d="M 1959 3097 
Q 1497 3097 1228 2736 
Q 959 2375 959 1747 
Q 959 1119 1226 758 
Q 1494 397 1959 397 
Q 2419 397 2687 759 
Q 2956 1122 2956 1747 
Q 2956 2369 2687 2733 
Q 2419 3097 1959 3097 
z
M 1959 3584 
Q 2709 3584 3137 3096 
Q 3566 2609 3566 1747 
Q 3566 888 3137 398 
Q 2709 -91 1959 -91 
Q 1206 -91 779 398 
Q 353 888 353 1747 
Q 353 2609 779 3096 
Q 1206 3584 1959 3584 
z
" transform="scale(0.015625)"/>
        <path id="DejaVuSans-70" d="M 1159 525 
L 1159 -1331 
L 581 -1331 
L 581 3500 
L 1159 3500 
L 1159 2969 
Q 1341 3281 1617 3432 
Q 1894 3584 2278 3584 
Q 2916 3584 3314 3078 
Q 3713 2572 3713 1747 
Q 3713 922 3314 415 
Q 2916 -91 2278 -91 
Q 1894 -91 1617 61 
Q 1341 213 1159 525 
z
M 3116 1747 
Q 3116 2381 2855 2742 
Q 2594 3103 2138 3103 
Q 1681 3103 1420 2742 
Q 1159 2381 1159 1747 
Q 1159 1113 1420 752 
Q 1681 391 2138 391 
Q 2594 391 2855 752 
Q 3116 1113 3116 1747 
z
" transform="scale(0.015625)"/>
        <path id="DejaVuSans-2e" d="M 684 794 
L 1344 794 
L 1344 0 
L 684 0 
L 684 794 
z
" transform="scale(0.015625)"/>
       </defs>
       <use xlink:href="#DejaVuSans-63"/>
       <use xlink:href="#DejaVuSans-6f" x="54.980469"/>
       <use xlink:href="#DejaVuSans-6f" x="116.162109"/>
       <use xlink:href="#DejaVuSans-70" x="177.34375"/>
       <use xlink:href="#DejaVuSans-2e" x="240.820312"/>
      </g>
     </g>
    </g>
    <g id="xtick_2">
     <g id="line2d_2">
      <g>
       <use xlink:href="#m07bee46142" x="207.172987" y="307.584" style="stroke: #000000; stroke-width: 0.8"/>
      </g>
     </g>
     <g id="text_2">
      <!-- hostile -->
      <g transform="translate(190.525331 322.182437) scale(0.1 -0.1)">
       <defs>
        <path id="DejaVuSans-68" d="M 3513 2113 
L 3513 0 
L 2938 0 
L 2938 2094 
Q 2938 2591 2744 2837 
Q 2550 3084 2163 3084 
Q 1697 3084 1428 2787 
Q 1159 2491 1159 1978 
L 1159 0 
L 581 0 
L 581 4863 
L 1159 4863 
L 1159 2956 
Q 1366 3272 1645 3428 
Q 1925 3584 2291 3584 
Q 2894 3584 3203 3211 
Q 3513 2838 3513 2113 
z
" transform="scale(0.015625)"/>
        <path id="DejaVuSans-73" d="M 2834 3397 
L 2834 2853 
Q 2591 2978 2328 3040 
Q 2066 3103 1784 3103 
Q 1356 3103 1142 2972 
Q 928 2841 928 2578 
Q 928 2378 1081 2264 
Q 1234 2150 1697 2047 
L 1894 2003 
Q 2506 1872 2764 1633 
Q 3022 1394 3022 966 
Q 3022 478 2636 193 
Q 2250 -91 1575 -91 
Q 1294 -91 989 -36 
Q 684 19 347 128 
L 347 722 
Q 666 556 975 473 
Q 1284 391 1588 391 
Q 1994 391 2212 530 
Q 2431 669 2431 922 
Q 2431 1156 2273 1281 
Q 2116 1406 1581 1522 
L 1381 1569 
Q 847 1681 609 1914 
Q 372 2147 372 2553 
Q 372 3047 722 3315 
Q 1072 3584 1716 3584 
Q 2034 3584 2315 3537 
Q 2597 3491 2834 3397 
z
" transform="scale(0.015625)"/>
        <path id="DejaVuSans-74" d="M 1172 4494 
L 1172 3500 
L 2356 3500 
L 2356 3053 
L 1172 3053 
L 1172 1153 
Q 1172 725 1289 603 
Q 1406 481 1766 481 
L 2356 481 
L 2356 0 
L 1766 0 
Q 1100 0 847 248 
Q 594 497 594 1153 
L 594 3053 
L 172 3053 
L 172 3500 
L 594 3500 
L 594 4494 
L 1172 4494 
z
" transform="scale(0.015625)"/>
        <path id="DejaVuSans-69" d="M 603 3500 
L 1178 3500 
L 1178 0 
L 603 0 
L 603 3500 
z
M 603 4863 
L 1178 4863 
L 1178 4134 
L 603 4134 
L 603 4863 
z
" transform="scale(0.015625)"/>
        <path id="DejaVuSans-6c" d="M 603 4863 
L 1178 4863 
L 1178 0 
L 603 0 
L 603 4863 
z
" transform="scale(0.015625)"/>
        <path id="DejaVuSans-65" d="M 3597 1894 
L 3597 1613 
L 953 1613 
Q 991 1019 1311 708 
Q 1631 397 2203 397 
Q 2534 397 2845 478 
Q 3156 559 3463 722 
L 3463 178 
Q 3153 47 2828 -22 
Q 2503 -91 2169 -91 
Q 1331 -91 842 396 
Q 353 884 353 1716 
Q 353 2575 817 3079 
Q 1281 3584 2069 3584 
Q 2775 3584 3186 3129 
Q 3597 2675 3597 1894 
z
M 3022 2063 
Q 3016 2534 2758 2815 
Q 2500 3097 2075 3097 
Q 1594 3097 1305 2825 
Q 1016 2553 972 2059 
L 3022 2063 
z
" transform="scale(0.015625)"/>
       </defs>
       <use xlink:href="#DejaVuSans-68"/>
       <use xlink:href="#DejaVuSans-6f" x="63.378906"/>
       <use xlink:href="#DejaVuSans-73" x="124.560547"/>
       <use xlink:href="#DejaVuSans-74" x="176.660156"/>
       <use xlink:href="#DejaVuSans-69" x="215.869141"/>
       <use xlink:href="#DejaVuSans-6c" x="243.652344"/>
       <use xlink:href="#DejaVuSans-65" x="271.435547"/>
      </g>
     </g>
    </g>
    <g id="xtick_3">
     <g id="line2d_3">
      <g>
       <use xlink:href="#m07bee46142" x="323.121039" y="307.584" style="stroke: #000000; stroke-width: 0.8"/>
      </g>
     </g>
     <g id="text_3">
      <!-- random -->
      <g transform="translate(303.728851 322.182437) scale(0.1 -0.1)">
       <defs>
        <path id="DejaVuSans-72" d="M 2631 2963 
Q 2534 3019 2420 3045 
Q 2306 3072 2169 3072 
Q 1681 3072 1420 2755 
Q 1159 2438 1159 1844 
L 1159 0 
L 581 0 
L 581 3500 
L 1159 3500 
L 1159 2956 
Q 1341 3275 1631 3429 
Q 1922 3584 2338 3584 
Q 2397 3584 2469 3576 
Q 2541 3569 2628 3553 
L 2631 2963 
z
" transform="scale(0.015625)"/>
        <path id="DejaVuSans-61" d="M 2194 1759 
Q 1497 1759 1228 1600 
Q 959 1441 959 1056 
Q 959 750 1161 570 
Q 1363 391 1709 391 
Q 2188 391 2477 730 
Q 2766 1069 2766 1631 
L 2766 1759 
L 2194 1759 
z
M 3341 1997 
L 3341 0 
L 2766 0 
L 2766 531 
Q 2569 213 2275 61 
Q 1981 -91 1556 -91 
Q 1019 -91 701 211 
Q 384 513 384 1019 
Q 384 1609 779 1909 
Q 1175 2209 1959 2209 
L 2766 2209 
L 2766 2266 
Q 2766 2663 2505 2880 
Q 2244 3097 1772 3097 
Q 1472 3097 1187 3025 
Q 903 2953 641 2809 
L 641 3341 
Q 956 3463 1253 3523 
Q 1550 3584 1831 3584 
Q 2591 3584 2966 3190 
Q 3341 2797 3341 1997 
z
" transform="scale(0.015625)"/>
        <path id="DejaVuSans-6e" d="M 3513 2113 
L 3513 0 
L 2938 0 
L 2938 2094 
Q 2938 2591 2744 2837 
Q 2550 3084 2163 3084 
Q 1697 3084 1428 2787 
Q 1159 2491 1159 1978 
L 1159 0 
L 581 0 
L 581 3500 
L 1159 3500 
L 1159 2956 
Q 1366 3272 1645 3428 
Q 1925 3584 2291 3584 
Q 2894 3584 3203 3211 
Q 3513 2838 3513 2113 
z
" transform="scale(0.015625)"/>
        <path id="DejaVuSans-64" d="M 2906 2969 
L 2906 4863 
L 3481 4863 
L 3481 0 
L 2906 0 
L 2906 525 
Q 2725 213 2448 61 
Q 2172 -91 1784 -91 
Q 1150 -91 751 415 
Q 353 922 353 1747 
Q 353 2572 751 3078 
Q 1150 3584 1784 3584 
Q 2172 3584 2448 3432 
Q 2725 3281 2906 2969 
z
M 947 1747 
Q 947 1113 1208 752 
Q 1469 391 1925 391 
Q 2381 391 2643 752 
Q 2906 1113 2906 1747 
Q 2906 2381 2643 2742 
Q 2381 3103 1925 3103 
Q 1469 3103 1208 2742 
Q 947 2381 947 1747 
z
" transform="scale(0.015625)"/>
        <path id="DejaVuSans-6d" d="M 3328 2828 
Q 3544 3216 3844 3400 
Q 4144 3584 4550 3584 
Q 5097 3584 5394 3201 
Q 5691 2819 5691 2113 
L 5691 0 
L 5113 0 
L 5113 2094 
Q 5113 2597 4934 2840 
Q 4756 3084 4391 3084 
Q 3944 3084 3684 2787 
Q 3425 2491 3425 1978 
L 3425 0 
L 2847 0 
L 2847 2094 
Q 2847 2600 2669 2842 
Q 2491 3084 2119 3084 
Q 1678 3084 1418 2786 
Q 1159 2488 1159 1978 
L 1159 0 
L 581 0 
L 581 3500 
L 1159 3500 
L 1159 2956 
Q 1356 3278 1631 3431 
Q 1906 3584 2284 3584 
Q 2666 3584 2933 3390 
Q 3200 3197 3328 2828 
z
" transform="scale(0.015625)"/>
       </defs>
       <use xlink:href="#DejaVuSans-72"/>
       <use xlink:href="#DejaVuSans-61" x="41.113281"/>
       <use xlink:href="#DejaVuSans-6e" x="102.392578"/>
       <use xlink:href="#DejaVuSans-64" x="165.771484"/>
       <use xlink:href="#DejaVuSans-6f" x="229.248047"/>
       <use xlink:href="#DejaVuSans-6d" x="290.429688"/>
      </g>
     </g>
    </g>
   </g>
   <g id="matplotlib.axis_2">
    <g id="ytick_1">
     <g id="line2d_4">
      <defs>
       <path id="mde7abdc80e" d="M 0 0 
L -3.5 0 
" style="stroke: #000000; stroke-width: 0.8"/>
      </defs>
      <g>
       <use xlink:href="#mde7abdc80e" x="57.6" y="307.584" style="stroke: #000000; stroke-width: 0.8"/>
      </g>
     </g>
     <g id="text_4">
      <!-- 0.0 -->
      <g transform="translate(34.696875 311.383219) scale(0.1 -0.1)">
       <defs>
        <path id="DejaVuSans-30" d="M 2034 4250 
Q 1547 4250 1301 3770 
Q 1056 3291 1056 2328 
Q 1056 1369 1301 889 
Q 1547 409 2034 409 
Q 2525 409 2770 889 
Q 3016 1369 3016 2328 
Q 3016 3291 2770 3770 
Q 2525 4250 2034 4250 
z
M 2034 4750 
Q 2819 4750 3233 4129 
Q 3647 3509 3647 2328 
Q 3647 1150 3233 529 
Q 2819 -91 2034 -91 
Q 1250 -91 836 529 
Q 422 1150 422 2328 
Q 422 3509 836 4129 
Q 1250 4750 2034 4750 
z
" transform="scale(0.015625)"/>
       </defs>
       <use xlink:href="#DejaVuSans-30"/>
       <use xlink:href="#DejaVuSans-2e" x="63.623047"/>
       <use xlink:href="#DejaVuSans-30" x="95.410156"/>
      </g>
     </g>
    </g>
    <g id="ytick_2">
     <g id="line2d_5">
      <g>
       <use xlink:href="#mde7abdc80e" x="57.6" y="266.643692" style="stroke: #000000; stroke-width: 0.8"/>
      </g>
     </g>
     <g id="text_5">
      <!-- 0.1 -->
      <g transform="translate(34.696875 270.442911) scale(0.1 -0.1)">
       <defs>
        <path id="DejaVuSans-31" d="M 794 531 
L 1825 531 
L 1825 4091 
L 703 3866 
L 703 4441 
L 1819 4666 
L 2450 4666 
L 2450 531 
L 3481 531 
L 3481 0 
L 794 0 
L 794 531 
z
" transform="scale(0.015625)"/>
       </defs>
       <use xlink:href="#DejaVuSans-30"/>
       <use xlink:href="#DejaVuSans-2e" x="63.623047"/>
       <use xlink:href="#DejaVuSans-31" x="95.410156"/>
      </g>
     </g>
    </g>
    <g id="ytick_3">
     <g id="line2d_6">
      <g>
       <use xlink:href="#mde7abdc80e" x="57.6" y="225.703385" style="stroke: #000000; stroke-width: 0.8"/>
      </g>
     </g>
     <g id="text_6">
      <!-- 0.2 -->
      <g transform="translate(34.696875 229.502603) scale(0.1 -0.1)">
       <defs>
        <path id="DejaVuSans-32" d="M 1228 531 
L 3431 531 
L 3431 0 
L 469 0 
L 469 531 
Q 828 903 1448 1529 
Q 2069 2156 2228 2338 
Q 2531 2678 2651 2914 
Q 2772 3150 2772 3378 
Q 2772 3750 2511 3984 
Q 2250 4219 1831 4219 
Q 1534 4219 1204 4116 
Q 875 4013 500 3803 
L 500 4441 
Q 881 4594 1212 4672 
Q 1544 4750 1819 4750 
Q 2544 4750 2975 4387 
Q 3406 4025 3406 3419 
Q 3406 3131 3298 2873 
Q 3191 2616 2906 2266 
Q 2828 2175 2409 1742 
Q 1991 1309 1228 531 
z
" transform="scale(0.015625)"/>
       </defs>
       <use xlink:href="#DejaVuSans-30"/>
       <use xlink:href="#DejaVuSans-2e" x="63.623047"/>
       <use xlink:href="#DejaVuSans-32" x="95.410156"/>
      </g>
     </g>
    </g>
    <g id="ytick_4">
     <g id="line2d_7">
      <g>
       <use xlink:href="#mde7abdc80e" x="57.6" y="184.763077" style="stroke: #000000; stroke-width: 0.8"/>
      </g>
     </g>
     <g id="text_7">
      <!-- 0.3 -->
      <g transform="translate(34.696875 188.562296) scale(0.1 -0.1)">
       <defs>
        <path id="DejaVuSans-33" d="M 2597 2516 
Q 3050 2419 3304 2112 
Q 3559 1806 3559 1356 
Q 3559 666 3084 287 
Q 2609 -91 1734 -91 
Q 1441 -91 1130 -33 
Q 819 25 488 141 
L 488 750 
Q 750 597 1062 519 
Q 1375 441 1716 441 
Q 2309 441 2620 675 
Q 2931 909 2931 1356 
Q 2931 1769 2642 2001 
Q 2353 2234 1838 2234 
L 1294 2234 
L 1294 2753 
L 1863 2753 
Q 2328 2753 2575 2939 
Q 2822 3125 2822 3475 
Q 2822 3834 2567 4026 
Q 2313 4219 1838 4219 
Q 1578 4219 1281 4162 
Q 984 4106 628 3988 
L 628 4550 
Q 988 4650 1302 4700 
Q 1616 4750 1894 4750 
Q 2613 4750 3031 4423 
Q 3450 4097 3450 3541 
Q 3450 3153 3228 2886 
Q 3006 2619 2597 2516 
z
" transform="scale(0.015625)"/>
       </defs>
       <use xlink:href="#DejaVuSans-30"/>
       <use xlink:href="#DejaVuSans-2e" x="63.623047"/>
       <use xlink:href="#DejaVuSans-33" x="95.410156"/>
      </g>
     </g>
    </g>
    <g id="ytick_5">
     <g id="line2d_8">
      <g>
       <use xlink:href="#mde7abdc80e" x="57.6" y="143.822769" style="stroke: #000000; stroke-width: 0.8"/>
      </g>
     </g>
     <g id="text_8">
      <!-- 0.4 -->
      <g transform="translate(34.696875 147.621988) scale(0.1 -0.1)">
       <defs>
        <path id="DejaVuSans-34" d="M 2419 4116 
L 825 1625 
L 2419 1625 
L 2419 4116 
z
M 2253 4666 
L 3047 4666 
L 3047 1625 
L 3713 1625 
L 3713 1100 
L 3047 1100 
L 3047 0 
L 2419 0 
L 2419 1100 
L 313 1100 
L 313 1709 
L 2253 4666 
z
" transform="scale(0.015625)"/>
       </defs>
       <use xlink:href="#DejaVuSans-30"/>
       <use xlink:href="#DejaVuSans-2e" x="63.623047"/>
       <use xlink:href="#DejaVuSans-34" x="95.410156"/>
      </g>
     </g>
    </g>
    <g id="ytick_6">
     <g id="line2d_9">
      <g>
       <use xlink:href="#mde7abdc80e" x="57.6" y="102.882462" style="stroke: #000000; stroke-width: 0.8"/>
      </g>
     </g>
     <g id="text_9">
      <!-- 0.5 -->
      <g transform="translate(34.696875 106.68168) scale(0.1 -0.1)">
       <defs>
        <path id="DejaVuSans-35" d="M 691 4666 
L 3169 4666 
L 3169 4134 
L 1269 4134 
L 1269 2991 
Q 1406 3038 1543 3061 
Q 1681 3084 1819 3084 
Q 2600 3084 3056 2656 
Q 3513 2228 3513 1497 
Q 3513 744 3044 326 
Q 2575 -91 1722 -91 
Q 1428 -91 1123 -41 
Q 819 9 494 109 
L 494 744 
Q 775 591 1075 516 
Q 1375 441 1709 441 
Q 2250 441 2565 725 
Q 2881 1009 2881 1497 
Q 2881 1984 2565 2268 
Q 2250 2553 1709 2553 
Q 1456 2553 1204 2497 
Q 953 2441 691 2322 
L 691 4666 
z
" transform="scale(0.015625)"/>
       </defs>
       <use xlink:href="#DejaVuSans-30"/>
       <use xlink:href="#DejaVuSans-2e" x="63.623047"/>
       <use xlink:href="#DejaVuSans-35" x="95.410156"/>
      </g>
     </g>
    </g>
    <g id="ytick_7">
     <g id="line2d_10">
      <g>
       <use xlink:href="#mde7abdc80e" x="57.6" y="61.942154" style="stroke: #000000; stroke-width: 0.8"/>
      </g>
     </g>
     <g id="text_10">
      <!-- 0.6 -->
      <g transform="translate(34.696875 65.741373) scale(0.1 -0.1)">
       <defs>
        <path id="DejaVuSans-36" d="M 2113 2584 
Q 1688 2584 1439 2293 
Q 1191 2003 1191 1497 
Q 1191 994 1439 701 
Q 1688 409 2113 409 
Q 2538 409 2786 701 
Q 3034 994 3034 1497 
Q 3034 2003 2786 2293 
Q 2538 2584 2113 2584 
z
M 3366 4563 
L 3366 3988 
Q 3128 4100 2886 4159 
Q 2644 4219 2406 4219 
Q 1781 4219 1451 3797 
Q 1122 3375 1075 2522 
Q 1259 2794 1537 2939 
Q 1816 3084 2150 3084 
Q 2853 3084 3261 2657 
Q 3669 2231 3669 1497 
Q 3669 778 3244 343 
Q 2819 -91 2113 -91 
Q 1303 -91 875 529 
Q 447 1150 447 2328 
Q 447 3434 972 4092 
Q 1497 4750 2381 4750 
Q 2619 4750 2861 4703 
Q 3103 4656 3366 4563 
z
" transform="scale(0.015625)"/>
       </defs>
       <use xlink:href="#DejaVuSans-30"/>
       <use xlink:href="#DejaVuSans-2e" x="63.623047"/>
       <use xlink:href="#DejaVuSans-36" x="95.410156"/>
      </g>
     </g>
    </g>
    <g id="text_11">
     <!-- $p$ -->
     <g transform="translate(28.596875 177.728) rotate(-90) scale(0.1 -0.1)">
      <defs>
       <path id="DejaVuSans-Oblique-70" d="M 3175 2156 
Q 3175 2616 2975 2859 
Q 2775 3103 2400 3103 
Q 2144 3103 1911 2972 
Q 1678 2841 1497 2591 
Q 1319 2344 1212 1994 
Q 1106 1644 1106 1300 
Q 1106 863 1306 627 
Q 1506 391 1875 391 
Q 2147 391 2380 519 
Q 2613 647 2778 891 
Q 2956 1147 3065 1494 
Q 3175 1841 3175 2156 
z
M 1394 2969 
Q 1625 3272 1939 3428 
Q 2253 3584 2638 3584 
Q 3175 3584 3472 3232 
Q 3769 2881 3769 2247 
Q 3769 1728 3584 1258 
Q 3400 788 3053 416 
Q 2822 169 2531 39 
Q 2241 -91 1919 -91 
Q 1547 -91 1294 64 
Q 1041 219 916 525 
L 556 -1331 
L -19 -1331 
L 922 3500 
L 1497 3500 
L 1394 2969 
z
" transform="scale(0.015625)"/>
      </defs>
      <use xlink:href="#DejaVuSans-Oblique-70"/>
     </g>
    </g>
   </g>
   <g id="LineCollection_1">
    <path d="M 91.224935 234.442985 
L 91.224935 147.393899 
" clip-path="url(#p32fcc518c3)" style="fill: none; stroke: #000000; stroke-width: 1.5"/>
    <path d="M 207.172987 213.67179 
L 207.172987 65.018339 
" clip-path="url(#p32fcc518c3)" style="fill: none; stroke: #000000; stroke-width: 1.5"/>
    <path d="M 323.121039 213.956769 
L 323.121039 152.214064 
" clip-path="url(#p32fcc518c3)" style="fill: none; stroke: #000000; stroke-width: 1.5"/>
   </g>
   <g id="LineCollection_2">
    <path d="M 120.211948 180.391537 
L 120.211948 171.501863 
" clip-path="url(#p32fcc518c3)" style="fill: none; stroke: #000000; stroke-width: 1.5"/>
    <path d="M 236.16 170.809598 
L 236.16 160.6301 
" clip-path="url(#p32fcc518c3)" style="fill: none; stroke: #000000; stroke-width: 1.5"/>
    <path d="M 352.108052 172.344315 
L 352.108052 171.020433 
" clip-path="url(#p32fcc518c3)" style="fill: none; stroke: #000000; stroke-width: 1.5"/>
   </g>
   <g id="LineCollection_3">
    <path d="M 149.198961 207.408601 
L 149.198961 110.296871 
" clip-path="url(#p32fcc518c3)" style="fill: none; stroke: #000000; stroke-width: 1.5"/>
    <path d="M 265.147013 214.609116 
L 265.147013 142.085378 
" clip-path="url(#p32fcc518c3)" style="fill: none; stroke: #000000; stroke-width: 1.5"/>
    <path d="M 381.095065 188.642384 
L 381.095065 163.655496 
" clip-path="url(#p32fcc518c3)" style="fill: none; stroke: #000000; stroke-width: 1.5"/>
   </g>
   <g id="patch_12">
    <path d="M 57.6 307.584 
L 57.6 41.472 
" style="fill: none; stroke: #000000; stroke-width: 0.8; stroke-linejoin: miter; stroke-linecap: square"/>
   </g>
   <g id="patch_13">
    <path d="M 414.72 307.584 
L 414.72 41.472 
" style="fill: none; stroke: #000000; stroke-width: 0.8; stroke-linejoin: miter; stroke-linecap: square"/>
   </g>
   <g id="patch_14">
    <path d="M 57.6 307.584 
L 414.72 307.584 
" style="fill: none; stroke: #000000; stroke-width: 0.8; stroke-linejoin: miter; stroke-linecap: square"/>
   </g>
   <g id="patch_15">
    <path d="M 57.6 41.472 
L 414.72 41.472 
" style="fill: none; stroke: #000000; stroke-width: 0.8; stroke-linejoin: miter; stroke-linecap: square"/>
   </g>
   <g id="text_12">
    <!-- $D$ across conditions -->
    <g transform="translate(177.48 35.472) scale(0.12 -0.12)">
     <defs>
      <path id="DejaVuSans-Oblique-44" d="M 1081 4666 
L 2438 4666 
Q 3519 4666 4070 4208 
Q 4622 3750 4622 2847 
Q 4622 2250 4412 1698 
Q 4203 1147 3834 769 
Q 3463 381 2891 190 
Q 2319 0 1538 0 
L 172 0 
L 1081 4666 
z
M 1613 4147 
L 909 519 
L 1734 519 
Q 2794 519 3375 1128 
Q 3956 1738 3956 2847 
Q 3956 3519 3581 3833 
Q 3206 4147 2406 4147 
L 1613 4147 
z
" transform="scale(0.015625)"/>
      <path id="DejaVuSans-20" transform="scale(0.015625)"/>
     </defs>
     <use xlink:href="#DejaVuSans-Oblique-44" transform="translate(0 0.015625)"/>
     <use xlink:href="#DejaVuSans-20" transform="translate(77.001953 0.015625)"/>
     <use xlink:href="#DejaVuSans-61" transform="translate(108.789062 0.015625)"/>
     <use xlink:href="#DejaVuSans-63" transform="translate(170.068359 0.015625)"/>
     <use xlink:href="#DejaVuSans-72" transform="translate(225.048828 0.015625)"/>
     <use xlink:href="#DejaVuSans-6f" transform="translate(266.162109 0.015625)"/>
     <use xlink:href="#DejaVuSans-73" transform="translate(327.34375 0.015625)"/>
     <use xlink:href="#DejaVuSans-73" transform="translate(379.443359 0.015625)"/>
     <use xlink:href="#DejaVuSans-20" transform="translate(431.542969 0.015625)"/>
     <use xlink:href="#DejaVuSans-63" transform="translate(463.330078 0.015625)"/>
     <use xlink:href="#DejaVuSans-6f" transform="translate(518.310547 0.015625)"/>
     <use xlink:href="#DejaVuSans-6e" transform="translate(579.492188 0.015625)"/>
     <use xlink:href="#DejaVuSans-64" transform="translate(642.871094 0.015625)"/>
     <use xlink:href="#DejaVuSans-69" transform="translate(706.347656 0.015625)"/>
     <use xlink:href="#DejaVuSans-74" transform="translate(734.130859 0.015625)"/>
     <use xlink:href="#DejaVuSans-69" transform="translate(773.339844 0.015625)"/>
     <use xlink:href="#DejaVuSans-6f" transform="translate(801.123047 0.015625)"/>
     <use xlink:href="#DejaVuSans-6e" transform="translate(862.304688 0.015625)"/>
     <use xlink:href="#DejaVuSans-73" transform="translate(925.683594 0.015625)"/>
    </g>
   </g>
   <g id="legend_1">
    <g id="patch_16">
     <path d="M 300.898125 93.506375 
L 407.72 93.506375 
Q 409.72 93.506375 409.72 91.506375 
L 409.72 48.472 
Q 409.72 46.472 407.72 46.472 
L 300.898125 46.472 
Q 298.898125 46.472 298.898125 48.472 
L 298.898125 91.506375 
Q 298.898125 93.506375 300.898125 93.506375 
z
" style="fill: #ffffff; opacity: 0.8; stroke: #cccccc; stroke-linejoin: miter"/>
    </g>
    <g id="patch_17">
     <path d="M 302.898125 58.070438 
L 322.898125 58.070438 
L 322.898125 51.070438 
L 302.898125 51.070438 
z
" style="fill: #00fa9a; opacity: 0.2"/>
    </g>
    <g id="text_13">
     <!-- hostile-to-coop -->
     <g transform="translate(330.898125 58.070438) scale(0.1 -0.1)">
      <defs>
       <path id="DejaVuSans-2d" d="M 313 2009 
L 1997 2009 
L 1997 1497 
L 313 1497 
L 313 2009 
z
" transform="scale(0.015625)"/>
      </defs>
      <use xlink:href="#DejaVuSans-68"/>
      <use xlink:href="#DejaVuSans-6f" x="63.378906"/>
      <use xlink:href="#DejaVuSans-73" x="124.560547"/>
      <use xlink:href="#DejaVuSans-74" x="176.660156"/>
      <use xlink:href="#DejaVuSans-69" x="215.869141"/>
      <use xlink:href="#DejaVuSans-6c" x="243.652344"/>
      <use xlink:href="#DejaVuSans-65" x="271.435547"/>
      <use xlink:href="#DejaVuSans-2d" x="332.958984"/>
      <use xlink:href="#DejaVuSans-74" x="369.042969"/>
      <use xlink:href="#DejaVuSans-6f" x="408.251953"/>
      <use xlink:href="#DejaVuSans-2d" x="471.308594"/>
      <use xlink:href="#DejaVuSans-63" x="507.392578"/>
      <use xlink:href="#DejaVuSans-6f" x="562.373047"/>
      <use xlink:href="#DejaVuSans-6f" x="623.554688"/>
      <use xlink:href="#DejaVuSans-70" x="684.736328"/>
     </g>
    </g>
    <g id="patch_18">
     <path d="M 302.898125 72.748563 
L 322.898125 72.748563 
L 322.898125 65.748563 
L 302.898125 65.748563 
z
" style="fill: url(#h75c387868b); opacity: 0.6"/>
    </g>
    <g id="text_14">
     <!-- coop-to-hostile -->
     <g transform="translate(330.898125 72.748563) scale(0.1 -0.1)">
      <use xlink:href="#DejaVuSans-63"/>
      <use xlink:href="#DejaVuSans-6f" x="54.980469"/>
      <use xlink:href="#DejaVuSans-6f" x="116.162109"/>
      <use xlink:href="#DejaVuSans-70" x="177.34375"/>
      <use xlink:href="#DejaVuSans-2d" x="240.820312"/>
      <use xlink:href="#DejaVuSans-74" x="276.904297"/>
      <use xlink:href="#DejaVuSans-6f" x="316.113281"/>
      <use xlink:href="#DejaVuSans-2d" x="379.169922"/>
      <use xlink:href="#DejaVuSans-68" x="415.253906"/>
      <use xlink:href="#DejaVuSans-6f" x="478.632812"/>
      <use xlink:href="#DejaVuSans-73" x="539.814453"/>
      <use xlink:href="#DejaVuSans-74" x="591.914062"/>
      <use xlink:href="#DejaVuSans-69" x="631.123047"/>
      <use xlink:href="#DejaVuSans-6c" x="658.90625"/>
      <use xlink:href="#DejaVuSans-65" x="686.689453"/>
     </g>
    </g>
    <g id="patch_19">
     <path d="M 302.898125 87.426688 
L 322.898125 87.426688 
L 322.898125 80.426688 
L 302.898125 80.426688 
z
" style="fill: #00fa9a"/>
    </g>
    <g id="text_15">
     <!-- ambiguous -->
     <g transform="translate(330.898125 87.426688) scale(0.1 -0.1)">
      <defs>
       <path id="DejaVuSans-62" d="M 3116 1747 
Q 3116 2381 2855 2742 
Q 2594 3103 2138 3103 
Q 1681 3103 1420 2742 
Q 1159 2381 1159 1747 
Q 1159 1113 1420 752 
Q 1681 391 2138 391 
Q 2594 391 2855 752 
Q 3116 1113 3116 1747 
z
M 1159 2969 
Q 1341 3281 1617 3432 
Q 1894 3584 2278 3584 
Q 2916 3584 3314 3078 
Q 3713 2572 3713 1747 
Q 3713 922 3314 415 
Q 2916 -91 2278 -91 
Q 1894 -91 1617 61 
Q 1341 213 1159 525 
L 1159 0 
L 581 0 
L 581 4863 
L 1159 4863 
L 1159 2969 
z
" transform="scale(0.015625)"/>
       <path id="DejaVuSans-67" d="M 2906 1791 
Q 2906 2416 2648 2759 
Q 2391 3103 1925 3103 
Q 1463 3103 1205 2759 
Q 947 2416 947 1791 
Q 947 1169 1205 825 
Q 1463 481 1925 481 
Q 2391 481 2648 825 
Q 2906 1169 2906 1791 
z
M 3481 434 
Q 3481 -459 3084 -895 
Q 2688 -1331 1869 -1331 
Q 1566 -1331 1297 -1286 
Q 1028 -1241 775 -1147 
L 775 -588 
Q 1028 -725 1275 -790 
Q 1522 -856 1778 -856 
Q 2344 -856 2625 -561 
Q 2906 -266 2906 331 
L 2906 616 
Q 2728 306 2450 153 
Q 2172 0 1784 0 
Q 1141 0 747 490 
Q 353 981 353 1791 
Q 353 2603 747 3093 
Q 1141 3584 1784 3584 
Q 2172 3584 2450 3431 
Q 2728 3278 2906 2969 
L 2906 3500 
L 3481 3500 
L 3481 434 
z
" transform="scale(0.015625)"/>
       <path id="DejaVuSans-75" d="M 544 1381 
L 544 3500 
L 1119 3500 
L 1119 1403 
Q 1119 906 1312 657 
Q 1506 409 1894 409 
Q 2359 409 2629 706 
Q 2900 1003 2900 1516 
L 2900 3500 
L 3475 3500 
L 3475 0 
L 2900 0 
L 2900 538 
Q 2691 219 2414 64 
Q 2138 -91 1772 -91 
Q 1169 -91 856 284 
Q 544 659 544 1381 
z
M 1991 3584 
L 1991 3584 
z
" transform="scale(0.015625)"/>
      </defs>
      <use xlink:href="#DejaVuSans-61"/>
      <use xlink:href="#DejaVuSans-6d" x="61.279297"/>
      <use xlink:href="#DejaVuSans-62" x="158.691406"/>
      <use xlink:href="#DejaVuSans-69" x="222.167969"/>
      <use xlink:href="#DejaVuSans-67" x="249.951172"/>
      <use xlink:href="#DejaVuSans-75" x="313.427734"/>
      <use xlink:href="#DejaVuSans-6f" x="376.806641"/>
      <use xlink:href="#DejaVuSans-75" x="437.988281"/>
      <use xlink:href="#DejaVuSans-73" x="501.367188"/>
     </g>
    </g>
   </g>
  </g>
 </g>
 <defs>
  <clipPath id="p32fcc518c3">
   <rect x="57.6" y="41.472" width="357.12" height="266.112"/>
  </clipPath>
 </defs>
 <defs>
  <pattern id="h75c387868b" patternUnits="userSpaceOnUse" x="0" y="0" width="72" height="72">
   <rect x="0" y="0" width="73" height="73" fill="#00fa9a"/>
   <path d="M -36 36 
L 36 -36 
M -24 48 
L 48 -24 
M -12 60 
L 60 -12 
M 0 72 
L 72 0 
M 12 84 
L 84 12 
M 24 96 
L 96 24 
M 36 108 
L 108 36 
" style="fill: #000000; stroke: #000000; stroke-width: 1.0; stroke-linecap: butt; stroke-linejoin: miter"/>
  </pattern>
  <pattern id="h5e2077a87c" patternUnits="userSpaceOnUse" x="0" y="0" width="72" height="72">
   <rect x="0" y="0" width="73" height="73" fill="#ff0000"/>
   <path d="M -36 36 
L 36 -36 
M -24 48 
L 48 -24 
M -12 60 
L 60 -12 
M 0 72 
L 72 0 
M 12 84 
L 84 12 
M 24 96 
L 96 24 
M 36 108 
L 108 36 
" style="fill: #000000; stroke: #000000; stroke-width: 1.0; stroke-linecap: butt; stroke-linejoin: miter"/>
  </pattern>
  <pattern id="hf884313acb" patternUnits="userSpaceOnUse" x="0" y="0" width="72" height="72">
   <rect x="0" y="0" width="73" height="73" fill="#9370db"/>
   <path d="M -36 36 
L 36 -36 
M -24 48 
L 48 -24 
M -12 60 
L 60 -12 
M 0 72 
L 72 0 
M 12 84 
L 84 12 
M 24 96 
L 96 24 
M 36 108 
L 108 36 
" style="fill: #000000; stroke: #000000; stroke-width: 1.0; stroke-linecap: butt; stroke-linejoin: miter"/>
  </pattern>
 </defs>
</svg>
