<?xml version="1.0" encoding="utf-8" standalone="no"?>
<!DOCTYPE svg PUBLIC "-//W3C//DTD SVG 1.1//EN"
  "http://www.w3.org/Graphics/SVG/1.1/DTD/svg11.dtd">
<svg xmlns:xlink="http://www.w3.org/1999/xlink" width="432pt" height="216pt" viewBox="0 0 432 216" xmlns="http://www.w3.org/2000/svg" version="1.1">
 <metadata>
  <rdf:RDF xmlns:dc="http://purl.org/dc/elements/1.1/" xmlns:cc="http://creativecommons.org/ns#" xmlns:rdf="http://www.w3.org/1999/02/22-rdf-syntax-ns#">
   <cc:Work>
    <dc:type rdf:resource="http://purl.org/dc/dcmitype/StillImage"/>
    <dc:date>2024-07-10T17:24:47.650287</dc:date>
    <dc:format>image/svg+xml</dc:format>
    <dc:creator>
     <cc:Agent>
      <dc:title>Matplotlib v3.7.2, https://matplotlib.org/</dc:title>
     </cc:Agent>
    </dc:creator>
   </cc:Work>
  </rdf:RDF>
 </metadata>
 <defs>
  <style type="text/css">*{stroke-linejoin: round; stroke-linecap: butt}</style>
 </defs>
 <g id="figure_1">
  <g id="patch_1">
   <path d="M 0 216 
L 432 216 
L 432 0 
L 0 0 
z
" style="fill: #ffffff"/>
  </g>
  <g id="axes_1">
   <g id="patch_2">
    <path d="M 62.57 174.04 
L 225.02 174.04 
L 225.02 35.28 
L 62.57 35.28 
z
" style="fill: #ffffff"/>
   </g>
   <g id="PolyCollection_1">
    <defs>
     <path id="m95d9a69fa3" d="M 152.086091 -48.267273 
L 135.503909 -48.267273 
L 133.524579 -49.541469 
L 131.223424 -50.815666 
L 128.58873 -52.089862 
L 125.619148 -53.364059 
L 122.325859 -54.638255 
L 118.734349 -55.912452 
L 114.885586 -57.186648 
L 110.836413 -58.460845 
L 106.658987 -59.735041 
L 102.439183 -61.009238 
L 98.273943 -62.283434 
L 94.267651 -63.557631 
L 90.527694 -64.831827 
L 87.159479 -66.106024 
L 84.261228 -67.38022 
L 81.918922 -68.654417 
L 80.201761 -69.928613 
L 79.158511 -71.20281 
L 78.815 -72.477006 
L 79.172971 -73.751203 
L 80.210365 -75.025399 
L 81.882993 -76.299596 
L 84.127437 -77.573792 
L 86.864939 -78.847989 
L 90.005927 -80.122185 
L 93.454846 -81.396382 
L 97.114917 -82.670579 
L 100.892504 -83.944775 
L 104.700824 -85.218972 
L 108.462829 -86.493168 
L 112.113152 -87.767365 
L 115.599127 -89.041561 
L 118.88095 -90.315758 
L 121.931108 -91.589954 
L 124.733249 -92.864151 
L 127.280676 -94.138347 
L 129.574643 -95.412544 
L 131.622608 -96.68674 
L 133.436575 -97.960937 
L 135.031616 -99.235133 
L 136.424612 -100.50933 
L 137.633255 -101.783526 
L 138.675292 -103.057723 
L 139.567974 -104.331919 
L 140.327706 -105.606116 
L 140.969816 -106.880312 
L 141.508439 -108.154509 
L 141.956463 -109.428705 
L 142.32551 -110.702902 
L 142.625946 -111.977098 
L 142.866888 -113.251295 
L 143.056226 -114.525491 
L 143.200637 -115.799688 
L 143.305605 -117.073884 
L 143.375451 -118.348081 
L 143.413378 -119.622277 
L 143.421526 -120.896474 
L 143.401059 -122.17067 
L 143.352279 -123.444867 
L 143.274772 -124.719063 
L 143.167586 -125.99326 
L 143.029445 -127.267456 
L 142.858998 -128.541653 
L 142.655085 -129.815849 
L 142.417022 -131.090046 
L 142.144893 -132.364242 
L 141.839813 -133.638439 
L 141.504168 -134.912635 
L 141.141786 -136.186832 
L 140.758045 -137.461028 
L 140.359867 -138.735225 
L 139.955623 -140.009421 
L 139.554911 -141.283618 
L 139.168231 -142.557815 
L 138.806561 -143.832011 
L 138.480863 -145.106208 
L 138.201538 -146.380404 
L 137.977884 -147.654601 
L 137.817586 -148.928797 
L 137.726278 -150.202994 
L 137.707215 -151.47719 
L 137.76108 -152.751387 
L 137.885948 -154.025583 
L 138.077395 -155.29978 
L 138.328763 -156.573976 
L 138.631541 -157.848173 
L 138.975843 -159.122369 
L 139.350945 -160.396566 
L 139.745832 -161.670762 
L 140.149726 -162.944959 
L 140.552556 -164.219155 
L 140.945341 -165.493352 
L 141.320479 -166.767548 
L 141.671914 -168.041745 
L 141.99521 -169.315941 
L 142.287511 -170.590138 
L 142.547431 -171.864334 
L 142.774876 -173.138531 
L 142.970825 -174.412727 
L 144.619175 -174.412727 
L 144.619175 -174.412727 
L 144.815124 -173.138531 
L 145.042569 -171.864334 
L 145.302489 -170.590138 
L 145.59479 -169.315941 
L 145.918086 -168.041745 
L 146.269521 -166.767548 
L 146.644659 -165.493352 
L 147.037444 -164.219155 
L 147.440274 -162.944959 
L 147.844168 -161.670762 
L 148.239055 -160.396566 
L 148.614157 -159.122369 
L 148.958459 -157.848173 
L 149.261237 -156.573976 
L 149.512605 -155.29978 
L 149.704052 -154.025583 
L 149.82892 -152.751387 
L 149.882785 -151.47719 
L 149.863722 -150.202994 
L 149.772414 -148.928797 
L 149.612116 -147.654601 
L 149.388462 -146.380404 
L 149.109137 -145.106208 
L 148.783439 -143.832011 
L 148.421769 -142.557815 
L 148.035089 -141.283618 
L 147.634377 -140.009421 
L 147.230133 -138.735225 
L 146.831955 -137.461028 
L 146.448214 -136.186832 
L 146.085832 -134.912635 
L 145.750187 -133.638439 
L 145.445107 -132.364242 
L 145.172978 -131.090046 
L 144.934915 -129.815849 
L 144.731002 -128.541653 
L 144.560555 -127.267456 
L 144.422414 -125.99326 
L 144.315228 -124.719063 
L 144.237721 -123.444867 
L 144.188941 -122.17067 
L 144.168474 -120.896474 
L 144.176622 -119.622277 
L 144.214549 -118.348081 
L 144.284395 -117.073884 
L 144.389363 -115.799688 
L 144.533774 -114.525491 
L 144.723112 -113.251295 
L 144.964054 -111.977098 
L 145.26449 -110.702902 
L 145.633537 -109.428705 
L 146.081561 -108.154509 
L 146.620184 -106.880312 
L 147.262294 -105.606116 
L 148.022026 -104.331919 
L 148.914708 -103.057723 
L 149.956745 -101.783526 
L 151.165388 -100.50933 
L 152.558384 -99.235133 
L 154.153425 -97.960937 
L 155.967392 -96.68674 
L 158.015357 -95.412544 
L 160.309324 -94.138347 
L 162.856751 -92.864151 
L 165.658892 -91.589954 
L 168.70905 -90.315758 
L 171.990873 -89.041561 
L 175.476848 -87.767365 
L 179.127171 -86.493168 
L 182.889176 -85.218972 
L 186.697496 -83.944775 
L 190.475083 -82.670579 
L 194.135154 -81.396382 
L 197.584073 -80.122185 
L 200.725061 -78.847989 
L 203.462563 -77.573792 
L 205.707007 -76.299596 
L 207.379635 -75.025399 
L 208.417029 -73.751203 
L 208.775 -72.477006 
L 208.431489 -71.20281 
L 207.388239 -69.928613 
L 205.671078 -68.654417 
L 203.328772 -67.38022 
L 200.430521 -66.106024 
L 197.062306 -64.831827 
L 193.322349 -63.557631 
L 189.316057 -62.283434 
L 185.150817 -61.009238 
L 180.931013 -59.735041 
L 176.753587 -58.460845 
L 172.704414 -57.186648 
L 168.855651 -55.912452 
L 165.264141 -54.638255 
L 161.970852 -53.364059 
L 159.00127 -52.089862 
L 156.366576 -50.815666 
L 154.065421 -49.541469 
L 152.086091 -48.267273 
z
" style="stroke: #6f6f6f; stroke-width: 1.5"/>
    </defs>
    <g clip-path="url(#p256e4e740f)">
     <use xlink:href="#m95d9a69fa3" x="0" y="216" style="fill: #94c9de; stroke: #6f6f6f; stroke-width: 1.5"/>
    </g>
   </g>
   <g id="matplotlib.axis_1">
    <g id="xtick_1">
     <g id="line2d_1">
      <defs>
       <path id="m596db2bf16" d="M 0 0 
L 0 3.5 
" style="stroke: #000000; stroke-width: 0.8"/>
      </defs>
      <g>
       <use xlink:href="#m596db2bf16" x="143.795" y="174.04" style="stroke: #000000; stroke-width: 0.8"/>
      </g>
     </g>
     <g id="text_1">
      <!-- 0 -->
      <g transform="translate(140.61375 188.638438) scale(0.1 -0.1)">
       <defs>
        <path id="DejaVuSans-30" d="M 2034 4250 
Q 1547 4250 1301 3770 
Q 1056 3291 1056 2328 
Q 1056 1369 1301 889 
Q 1547 409 2034 409 
Q 2525 409 2770 889 
Q 3016 1369 3016 2328 
Q 3016 3291 2770 3770 
Q 2525 4250 2034 4250 
z
M 2034 4750 
Q 2819 4750 3233 4129 
Q 3647 3509 3647 2328 
Q 3647 1150 3233 529 
Q 2819 -91 2034 -91 
Q 1250 -91 836 529 
Q 422 1150 422 2328 
Q 422 3509 836 4129 
Q 1250 4750 2034 4750 
z
" transform="scale(0.015625)"/>
       </defs>
       <use xlink:href="#DejaVuSans-30"/>
      </g>
     </g>
    </g>
   </g>
   <g id="matplotlib.axis_2">
    <g id="ytick_1">
     <g id="line2d_2">
      <defs>
       <path id="mc1800ed9d3" d="M 0 0 
L -3.5 0 
" style="stroke: #000000; stroke-width: 0.8"/>
      </defs>
      <g>
       <use xlink:href="#mc1800ed9d3" x="62.57" y="144.492511" style="stroke: #000000; stroke-width: 0.8"/>
      </g>
     </g>
     <g id="text_2">
      <!-- 0.0 -->
      <g transform="translate(39.666875 148.291729) scale(0.1 -0.1)">
       <defs>
        <path id="DejaVuSans-2e" d="M 684 794 
L 1344 794 
L 1344 0 
L 684 0 
L 684 794 
z
" transform="scale(0.015625)"/>
       </defs>
       <use xlink:href="#DejaVuSans-30"/>
       <use xlink:href="#DejaVuSans-2e" x="63.623047"/>
       <use xlink:href="#DejaVuSans-30" x="95.410156"/>
      </g>
     </g>
    </g>
    <g id="ytick_2">
     <g id="line2d_3">
      <g>
       <use xlink:href="#mc1800ed9d3" x="62.57" y="104.66" style="stroke: #000000; stroke-width: 0.8"/>
      </g>
     </g>
     <g id="text_3">
      <!-- 0.5 -->
      <g transform="translate(39.666875 108.459219) scale(0.1 -0.1)">
       <defs>
        <path id="DejaVuSans-35" d="M 691 4666 
L 3169 4666 
L 3169 4134 
L 1269 4134 
L 1269 2991 
Q 1406 3038 1543 3061 
Q 1681 3084 1819 3084 
Q 2600 3084 3056 2656 
Q 3513 2228 3513 1497 
Q 3513 744 3044 326 
Q 2575 -91 1722 -91 
Q 1428 -91 1123 -41 
Q 819 9 494 109 
L 494 744 
Q 775 591 1075 516 
Q 1375 441 1709 441 
Q 2250 441 2565 725 
Q 2881 1009 2881 1497 
Q 2881 1984 2565 2268 
Q 2250 2553 1709 2553 
Q 1456 2553 1204 2497 
Q 953 2441 691 2322 
L 691 4666 
z
" transform="scale(0.015625)"/>
       </defs>
       <use xlink:href="#DejaVuSans-30"/>
       <use xlink:href="#DejaVuSans-2e" x="63.623047"/>
       <use xlink:href="#DejaVuSans-35" x="95.410156"/>
      </g>
     </g>
    </g>
    <g id="ytick_3">
     <g id="line2d_4">
      <g>
       <use xlink:href="#mc1800ed9d3" x="62.57" y="64.82749" style="stroke: #000000; stroke-width: 0.8"/>
      </g>
     </g>
     <g id="text_4">
      <!-- 1.0 -->
      <g transform="translate(39.666875 68.626709) scale(0.1 -0.1)">
       <defs>
        <path id="DejaVuSans-31" d="M 794 531 
L 1825 531 
L 1825 4091 
L 703 3866 
L 703 4441 
L 1819 4666 
L 2450 4666 
L 2450 531 
L 3481 531 
L 3481 0 
L 794 0 
L 794 531 
z
" transform="scale(0.015625)"/>
       </defs>
       <use xlink:href="#DejaVuSans-31"/>
       <use xlink:href="#DejaVuSans-2e" x="63.623047"/>
       <use xlink:href="#DejaVuSans-30" x="95.410156"/>
      </g>
     </g>
    </g>
    <g id="text_5">
     <!-- $ϵ$ -->
     <g transform="translate(33.587188 107.76) rotate(-90) scale(0.1 -0.1)">
      <defs>
       <path id="DejaVuSans-Oblique-3f5" d="M 3306 2944 
Q 3200 2984 3091 3016 
Q 2797 3097 2466 3097 
Q 1894 3097 1516 2788 
Q 1163 2500 1003 1972 
L 3119 1972 
L 3031 1522 
L 916 1522 
Q 869 994 1109 706 
Q 1369 397 1941 397 
Q 2341 397 2597 478 
L 2844 556 
L 2741 34 
L 2484 -22 
Q 2147 -91 1813 -91 
Q 975 -91 581 397 
Q 184 884 353 1746 
Q 522 2609 1106 3097 
Q 1688 3584 2525 3584 
Q 2841 3584 3172 3516 
Q 3291 3491 3406 3453 
L 3306 2944 
z
" transform="scale(0.015625)"/>
      </defs>
      <use xlink:href="#DejaVuSans-Oblique-3f5"/>
     </g>
    </g>
   </g>
   <g id="line2d_5">
    <path d="M 143.795 144.49251 
L 143.795 144.49251 
" clip-path="url(#p256e4e740f)" style="fill: none; stroke: #6f6f6f; stroke-width: 1.5; stroke-linecap: square"/>
   </g>
   <g id="line2d_6">
    <path d="M 143.795 144.49251 
L 143.795 144.49251 
" clip-path="url(#p256e4e740f)" style="fill: none; stroke: #6f6f6f; stroke-width: 4.5; stroke-linecap: square"/>
   </g>
   <g id="patch_3">
    <path d="M 62.57 174.04 
L 62.57 35.28 
" style="fill: none; stroke: #000000; stroke-width: 0.8; stroke-linejoin: miter; stroke-linecap: square"/>
   </g>
   <g id="patch_4">
    <path d="M 225.02 174.04 
L 225.02 35.28 
" style="fill: none; stroke: #000000; stroke-width: 0.8; stroke-linejoin: miter; stroke-linecap: square"/>
   </g>
   <g id="patch_5">
    <path d="M 62.57 174.04 
L 225.02 174.04 
" style="fill: none; stroke: #000000; stroke-width: 0.8; stroke-linejoin: miter; stroke-linecap: square"/>
   </g>
   <g id="patch_6">
    <path d="M 62.57 35.28 
L 225.02 35.28 
" style="fill: none; stroke: #000000; stroke-width: 0.8; stroke-linejoin: miter; stroke-linecap: square"/>
   </g>
   <g id="PathCollection_1">
    <defs>
     <path id="m3c254bd8a7" d="M 0 1.5 
C 0.397805 1.5 0.77937 1.341951 1.06066 1.06066 
C 1.341951 0.77937 1.5 0.397805 1.5 0 
C 1.5 -0.397805 1.341951 -0.77937 1.06066 -1.06066 
C 0.77937 -1.341951 0.397805 -1.5 0 -1.5 
C -0.397805 -1.5 -0.77937 -1.341951 -1.06066 -1.06066 
C -1.341951 -0.77937 -1.5 -0.397805 -1.5 0 
C -1.5 0.397805 -1.341951 0.77937 -1.06066 1.06066 
C -0.77937 1.341951 -0.397805 1.5 0 1.5 
z
" style="stroke: #6f6f6f"/>
    </defs>
    <g clip-path="url(#p256e4e740f)">
     <use xlink:href="#m3c254bd8a7" x="143.795" y="144.49251" style="fill: #ffffff; stroke: #6f6f6f"/>
    </g>
   </g>
  </g>
  <g id="axes_2">
   <g id="patch_7">
    <path d="M 258.75 174.04 
L 421.2 174.04 
L 421.2 35.28 
L 258.75 35.28 
z
" style="fill: #ffffff"/>
   </g>
   <g id="patch_8">
    <path d="M 266.134091 174.04 
L 270.898021 174.04 
L 270.898021 41.88762 
L 266.134091 41.88762 
z
" clip-path="url(#p4581fcff8f)" style="fill: #87ceeb"/>
   </g>
   <g id="patch_9">
    <path d="M 272.089003 174.04 
L 276.852933 174.04 
L 276.852933 174.04 
L 272.089003 174.04 
z
" clip-path="url(#p4581fcff8f)" style="fill: #87ceeb"/>
   </g>
   <g id="patch_10">
    <path d="M 278.043915 174.04 
L 282.807845 174.04 
L 282.807845 174.04 
L 278.043915 174.04 
z
" clip-path="url(#p4581fcff8f)" style="fill: #87ceeb"/>
   </g>
   <g id="patch_11">
    <path d="M 283.998827 174.04 
L 288.762757 174.04 
L 288.762757 154.664406 
L 283.998827 154.664406 
z
" clip-path="url(#p4581fcff8f)" style="fill: #87ceeb"/>
   </g>
   <g id="patch_12">
    <path d="M 289.953739 174.04 
L 294.717669 174.04 
L 294.717669 174.04 
L 289.953739 174.04 
z
" clip-path="url(#p4581fcff8f)" style="fill: #87ceeb"/>
   </g>
   <g id="patch_13">
    <path d="M 295.908651 174.04 
L 300.672581 174.04 
L 300.672581 174.04 
L 295.908651 174.04 
z
" clip-path="url(#p4581fcff8f)" style="fill: #87ceeb"/>
   </g>
   <g id="patch_14">
    <path d="M 301.863563 174.04 
L 306.627493 174.04 
L 306.627493 174.04 
L 301.863563 174.04 
z
" clip-path="url(#p4581fcff8f)" style="fill: #87ceeb"/>
   </g>
   <g id="patch_15">
    <path d="M 307.818475 174.04 
L 312.582405 174.04 
L 312.582405 174.04 
L 307.818475 174.04 
z
" clip-path="url(#p4581fcff8f)" style="fill: #87ceeb"/>
   </g>
   <g id="patch_16">
    <path d="M 313.773387 174.04 
L 318.537317 174.04 
L 318.537317 174.04 
L 313.773387 174.04 
z
" clip-path="url(#p4581fcff8f)" style="fill: #87ceeb"/>
   </g>
   <g id="patch_17">
    <path d="M 319.728299 174.04 
L 324.492229 174.04 
L 324.492229 174.04 
L 319.728299 174.04 
z
" clip-path="url(#p4581fcff8f)" style="fill: #87ceeb"/>
   </g>
   <g id="patch_18">
    <path d="M 325.683211 174.04 
L 330.447141 174.04 
L 330.447141 174.04 
L 325.683211 174.04 
z
" clip-path="url(#p4581fcff8f)" style="fill: #87ceeb"/>
   </g>
   <g id="patch_19">
    <path d="M 331.638123 174.04 
L 336.402053 174.04 
L 336.402053 174.04 
L 331.638123 174.04 
z
" clip-path="url(#p4581fcff8f)" style="fill: #87ceeb"/>
   </g>
   <g id="patch_20">
    <path d="M 337.593035 174.04 
L 342.356965 174.04 
L 342.356965 148.528823 
L 337.593035 148.528823 
z
" clip-path="url(#p4581fcff8f)" style="fill: #87ceeb"/>
   </g>
   <g id="patch_21">
    <path d="M 343.547947 174.04 
L 348.311877 174.04 
L 348.311877 174.04 
L 343.547947 174.04 
z
" clip-path="url(#p4581fcff8f)" style="fill: #87ceeb"/>
   </g>
   <g id="patch_22">
    <path d="M 349.502859 174.04 
L 354.266789 174.04 
L 354.266789 174.04 
L 349.502859 174.04 
z
" clip-path="url(#p4581fcff8f)" style="fill: #87ceeb"/>
   </g>
   <g id="patch_23">
    <path d="M 355.457771 174.04 
L 360.221701 174.04 
L 360.221701 174.04 
L 355.457771 174.04 
z
" clip-path="url(#p4581fcff8f)" style="fill: #87ceeb"/>
   </g>
   <g id="patch_24">
    <path d="M 361.412683 174.04 
L 366.176613 174.04 
L 366.176613 41.887619 
L 361.412683 41.887619 
z
" clip-path="url(#p4581fcff8f)" style="fill: #87ceeb"/>
   </g>
   <g id="patch_25">
    <path d="M 367.367595 174.04 
L 372.131525 174.04 
L 372.131525 174.04 
L 367.367595 174.04 
z
" clip-path="url(#p4581fcff8f)" style="fill: #87ceeb"/>
   </g>
   <g id="patch_26">
    <path d="M 373.322507 174.04 
L 378.086437 174.04 
L 378.086437 174.04 
L 373.322507 174.04 
z
" clip-path="url(#p4581fcff8f)" style="fill: #87ceeb"/>
   </g>
   <g id="patch_27">
    <path d="M 379.277419 174.04 
L 384.041349 174.04 
L 384.041349 174.04 
L 379.277419 174.04 
z
" clip-path="url(#p4581fcff8f)" style="fill: #87ceeb"/>
   </g>
   <g id="patch_28">
    <path d="M 385.232331 174.04 
L 389.996261 174.04 
L 389.996261 174.04 
L 385.232331 174.04 
z
" clip-path="url(#p4581fcff8f)" style="fill: #87ceeb"/>
   </g>
   <g id="patch_29">
    <path d="M 391.187243 174.04 
L 395.951173 174.04 
L 395.951173 174.04 
L 391.187243 174.04 
z
" clip-path="url(#p4581fcff8f)" style="fill: #87ceeb"/>
   </g>
   <g id="patch_30">
    <path d="M 397.142155 174.04 
L 401.906085 174.04 
L 401.906085 142.202096 
L 397.142155 142.202096 
z
" clip-path="url(#p4581fcff8f)" style="fill: #87ceeb"/>
   </g>
   <g id="patch_31">
    <path d="M 403.097067 174.04 
L 407.860997 174.04 
L 407.860997 174.04 
L 403.097067 174.04 
z
" clip-path="url(#p4581fcff8f)" style="fill: #87ceeb"/>
   </g>
   <g id="patch_32">
    <path d="M 409.051979 174.04 
L 413.815909 174.04 
L 413.815909 174.04 
L 409.051979 174.04 
z
" clip-path="url(#p4581fcff8f)" style="fill: #87ceeb"/>
   </g>
   <g id="matplotlib.axis_3">
    <g id="xtick_2">
     <g id="line2d_7">
      <g>
       <use xlink:href="#m596db2bf16" x="268.516056" y="174.04" style="stroke: #000000; stroke-width: 0.8"/>
      </g>
     </g>
     <g id="text_6">
      <!-- 0 -->
      <g transform="translate(265.334806 188.638438) scale(0.1 -0.1)">
       <use xlink:href="#DejaVuSans-30"/>
      </g>
     </g>
    </g>
    <g id="xtick_3">
     <g id="line2d_8">
      <g>
       <use xlink:href="#m596db2bf16" x="328.065176" y="174.04" style="stroke: #000000; stroke-width: 0.8"/>
      </g>
     </g>
     <g id="text_7">
      <!-- 10 -->
      <g transform="translate(321.702676 188.638438) scale(0.1 -0.1)">
       <use xlink:href="#DejaVuSans-31"/>
       <use xlink:href="#DejaVuSans-30" x="63.623047"/>
      </g>
     </g>
    </g>
    <g id="xtick_4">
     <g id="line2d_9">
      <g>
       <use xlink:href="#m596db2bf16" x="387.614296" y="174.04" style="stroke: #000000; stroke-width: 0.8"/>
      </g>
     </g>
     <g id="text_8">
      <!-- 20 -->
      <g transform="translate(381.251796 188.638438) scale(0.1 -0.1)">
       <defs>
        <path id="DejaVuSans-32" d="M 1228 531 
L 3431 531 
L 3431 0 
L 469 0 
L 469 531 
Q 828 903 1448 1529 
Q 2069 2156 2228 2338 
Q 2531 2678 2651 2914 
Q 2772 3150 2772 3378 
Q 2772 3750 2511 3984 
Q 2250 4219 1831 4219 
Q 1534 4219 1204 4116 
Q 875 4013 500 3803 
L 500 4441 
Q 881 4594 1212 4672 
Q 1544 4750 1819 4750 
Q 2544 4750 2975 4387 
Q 3406 4025 3406 3419 
Q 3406 3131 3298 2873 
Q 3191 2616 2906 2266 
Q 2828 2175 2409 1742 
Q 1991 1309 1228 531 
z
" transform="scale(0.015625)"/>
       </defs>
       <use xlink:href="#DejaVuSans-32"/>
       <use xlink:href="#DejaVuSans-30" x="63.623047"/>
      </g>
     </g>
    </g>
    <g id="text_9">
     <!-- participant -->
     <g transform="translate(312.826562 202.316563) scale(0.1 -0.1)">
      <defs>
       <path id="DejaVuSans-70" d="M 1159 525 
L 1159 -1331 
L 581 -1331 
L 581 3500 
L 1159 3500 
L 1159 2969 
Q 1341 3281 1617 3432 
Q 1894 3584 2278 3584 
Q 2916 3584 3314 3078 
Q 3713 2572 3713 1747 
Q 3713 922 3314 415 
Q 2916 -91 2278 -91 
Q 1894 -91 1617 61 
Q 1341 213 1159 525 
z
M 3116 1747 
Q 3116 2381 2855 2742 
Q 2594 3103 2138 3103 
Q 1681 3103 1420 2742 
Q 1159 2381 1159 1747 
Q 1159 1113 1420 752 
Q 1681 391 2138 391 
Q 2594 391 2855 752 
Q 3116 1113 3116 1747 
z
" transform="scale(0.015625)"/>
       <path id="DejaVuSans-61" d="M 2194 1759 
Q 1497 1759 1228 1600 
Q 959 1441 959 1056 
Q 959 750 1161 570 
Q 1363 391 1709 391 
Q 2188 391 2477 730 
Q 2766 1069 2766 1631 
L 2766 1759 
L 2194 1759 
z
M 3341 1997 
L 3341 0 
L 2766 0 
L 2766 531 
Q 2569 213 2275 61 
Q 1981 -91 1556 -91 
Q 1019 -91 701 211 
Q 384 513 384 1019 
Q 384 1609 779 1909 
Q 1175 2209 1959 2209 
L 2766 2209 
L 2766 2266 
Q 2766 2663 2505 2880 
Q 2244 3097 1772 3097 
Q 1472 3097 1187 3025 
Q 903 2953 641 2809 
L 641 3341 
Q 956 3463 1253 3523 
Q 1550 3584 1831 3584 
Q 2591 3584 2966 3190 
Q 3341 2797 3341 1997 
z
" transform="scale(0.015625)"/>
       <path id="DejaVuSans-72" d="M 2631 2963 
Q 2534 3019 2420 3045 
Q 2306 3072 2169 3072 
Q 1681 3072 1420 2755 
Q 1159 2438 1159 1844 
L 1159 0 
L 581 0 
L 581 3500 
L 1159 3500 
L 1159 2956 
Q 1341 3275 1631 3429 
Q 1922 3584 2338 3584 
Q 2397 3584 2469 3576 
Q 2541 3569 2628 3553 
L 2631 2963 
z
" transform="scale(0.015625)"/>
       <path id="DejaVuSans-74" d="M 1172 4494 
L 1172 3500 
L 2356 3500 
L 2356 3053 
L 1172 3053 
L 1172 1153 
Q 1172 725 1289 603 
Q 1406 481 1766 481 
L 2356 481 
L 2356 0 
L 1766 0 
Q 1100 0 847 248 
Q 594 497 594 1153 
L 594 3053 
L 172 3053 
L 172 3500 
L 594 3500 
L 594 4494 
L 1172 4494 
z
" transform="scale(0.015625)"/>
       <path id="DejaVuSans-69" d="M 603 3500 
L 1178 3500 
L 1178 0 
L 603 0 
L 603 3500 
z
M 603 4863 
L 1178 4863 
L 1178 4134 
L 603 4134 
L 603 4863 
z
" transform="scale(0.015625)"/>
       <path id="DejaVuSans-63" d="M 3122 3366 
L 3122 2828 
Q 2878 2963 2633 3030 
Q 2388 3097 2138 3097 
Q 1578 3097 1268 2742 
Q 959 2388 959 1747 
Q 959 1106 1268 751 
Q 1578 397 2138 397 
Q 2388 397 2633 464 
Q 2878 531 3122 666 
L 3122 134 
Q 2881 22 2623 -34 
Q 2366 -91 2075 -91 
Q 1284 -91 818 406 
Q 353 903 353 1747 
Q 353 2603 823 3093 
Q 1294 3584 2113 3584 
Q 2378 3584 2631 3529 
Q 2884 3475 3122 3366 
z
" transform="scale(0.015625)"/>
       <path id="DejaVuSans-6e" d="M 3513 2113 
L 3513 0 
L 2938 0 
L 2938 2094 
Q 2938 2591 2744 2837 
Q 2550 3084 2163 3084 
Q 1697 3084 1428 2787 
Q 1159 2491 1159 1978 
L 1159 0 
L 581 0 
L 581 3500 
L 1159 3500 
L 1159 2956 
Q 1366 3272 1645 3428 
Q 1925 3584 2291 3584 
Q 2894 3584 3203 3211 
Q 3513 2838 3513 2113 
z
" transform="scale(0.015625)"/>
      </defs>
      <use xlink:href="#DejaVuSans-70"/>
      <use xlink:href="#DejaVuSans-61" x="63.476562"/>
      <use xlink:href="#DejaVuSans-72" x="124.755859"/>
      <use xlink:href="#DejaVuSans-74" x="165.869141"/>
      <use xlink:href="#DejaVuSans-69" x="205.078125"/>
      <use xlink:href="#DejaVuSans-63" x="232.861328"/>
      <use xlink:href="#DejaVuSans-69" x="287.841797"/>
      <use xlink:href="#DejaVuSans-70" x="315.625"/>
      <use xlink:href="#DejaVuSans-61" x="379.101562"/>
      <use xlink:href="#DejaVuSans-6e" x="440.380859"/>
      <use xlink:href="#DejaVuSans-74" x="503.759766"/>
     </g>
    </g>
   </g>
   <g id="matplotlib.axis_4">
    <g id="ytick_4">
     <g id="line2d_10">
      <g>
       <use xlink:href="#mc1800ed9d3" x="258.75" y="174.04" style="stroke: #000000; stroke-width: 0.8"/>
      </g>
     </g>
     <g id="text_10">
      <!-- 0.0 -->
      <g transform="translate(235.846875 177.839219) scale(0.1 -0.1)">
       <use xlink:href="#DejaVuSans-30"/>
       <use xlink:href="#DejaVuSans-2e" x="63.623047"/>
       <use xlink:href="#DejaVuSans-30" x="95.410156"/>
      </g>
     </g>
    </g>
    <g id="ytick_5">
     <g id="line2d_11">
      <g>
       <use xlink:href="#mc1800ed9d3" x="258.75" y="147.609524" style="stroke: #000000; stroke-width: 0.8"/>
      </g>
     </g>
     <g id="text_11">
      <!-- 0.2 -->
      <g transform="translate(235.846875 151.408743) scale(0.1 -0.1)">
       <use xlink:href="#DejaVuSans-30"/>
       <use xlink:href="#DejaVuSans-2e" x="63.623047"/>
       <use xlink:href="#DejaVuSans-32" x="95.410156"/>
      </g>
     </g>
    </g>
    <g id="ytick_6">
     <g id="line2d_12">
      <g>
       <use xlink:href="#mc1800ed9d3" x="258.75" y="121.179048" style="stroke: #000000; stroke-width: 0.8"/>
      </g>
     </g>
     <g id="text_12">
      <!-- 0.4 -->
      <g transform="translate(235.846875 124.978266) scale(0.1 -0.1)">
       <defs>
        <path id="DejaVuSans-34" d="M 2419 4116 
L 825 1625 
L 2419 1625 
L 2419 4116 
z
M 2253 4666 
L 3047 4666 
L 3047 1625 
L 3713 1625 
L 3713 1100 
L 3047 1100 
L 3047 0 
L 2419 0 
L 2419 1100 
L 313 1100 
L 313 1709 
L 2253 4666 
z
" transform="scale(0.015625)"/>
       </defs>
       <use xlink:href="#DejaVuSans-30"/>
       <use xlink:href="#DejaVuSans-2e" x="63.623047"/>
       <use xlink:href="#DejaVuSans-34" x="95.410156"/>
      </g>
     </g>
    </g>
    <g id="ytick_7">
     <g id="line2d_13">
      <g>
       <use xlink:href="#mc1800ed9d3" x="258.75" y="94.748571" style="stroke: #000000; stroke-width: 0.8"/>
      </g>
     </g>
     <g id="text_13">
      <!-- 0.6 -->
      <g transform="translate(235.846875 98.54779) scale(0.1 -0.1)">
       <defs>
        <path id="DejaVuSans-36" d="M 2113 2584 
Q 1688 2584 1439 2293 
Q 1191 2003 1191 1497 
Q 1191 994 1439 701 
Q 1688 409 2113 409 
Q 2538 409 2786 701 
Q 3034 994 3034 1497 
Q 3034 2003 2786 2293 
Q 2538 2584 2113 2584 
z
M 3366 4563 
L 3366 3988 
Q 3128 4100 2886 4159 
Q 2644 4219 2406 4219 
Q 1781 4219 1451 3797 
Q 1122 3375 1075 2522 
Q 1259 2794 1537 2939 
Q 1816 3084 2150 3084 
Q 2853 3084 3261 2657 
Q 3669 2231 3669 1497 
Q 3669 778 3244 343 
Q 2819 -91 2113 -91 
Q 1303 -91 875 529 
Q 447 1150 447 2328 
Q 447 3434 972 4092 
Q 1497 4750 2381 4750 
Q 2619 4750 2861 4703 
Q 3103 4656 3366 4563 
z
" transform="scale(0.015625)"/>
       </defs>
       <use xlink:href="#DejaVuSans-30"/>
       <use xlink:href="#DejaVuSans-2e" x="63.623047"/>
       <use xlink:href="#DejaVuSans-36" x="95.410156"/>
      </g>
     </g>
    </g>
    <g id="ytick_8">
     <g id="line2d_14">
      <g>
       <use xlink:href="#mc1800ed9d3" x="258.75" y="68.318095" style="stroke: #000000; stroke-width: 0.8"/>
      </g>
     </g>
     <g id="text_14">
      <!-- 0.8 -->
      <g transform="translate(235.846875 72.117314) scale(0.1 -0.1)">
       <defs>
        <path id="DejaVuSans-38" d="M 2034 2216 
Q 1584 2216 1326 1975 
Q 1069 1734 1069 1313 
Q 1069 891 1326 650 
Q 1584 409 2034 409 
Q 2484 409 2743 651 
Q 3003 894 3003 1313 
Q 3003 1734 2745 1975 
Q 2488 2216 2034 2216 
z
M 1403 2484 
Q 997 2584 770 2862 
Q 544 3141 544 3541 
Q 544 4100 942 4425 
Q 1341 4750 2034 4750 
Q 2731 4750 3128 4425 
Q 3525 4100 3525 3541 
Q 3525 3141 3298 2862 
Q 3072 2584 2669 2484 
Q 3125 2378 3379 2068 
Q 3634 1759 3634 1313 
Q 3634 634 3220 271 
Q 2806 -91 2034 -91 
Q 1263 -91 848 271 
Q 434 634 434 1313 
Q 434 1759 690 2068 
Q 947 2378 1403 2484 
z
M 1172 3481 
Q 1172 3119 1398 2916 
Q 1625 2713 2034 2713 
Q 2441 2713 2670 2916 
Q 2900 3119 2900 3481 
Q 2900 3844 2670 4047 
Q 2441 4250 2034 4250 
Q 1625 4250 1398 4047 
Q 1172 3844 1172 3481 
z
" transform="scale(0.015625)"/>
       </defs>
       <use xlink:href="#DejaVuSans-30"/>
       <use xlink:href="#DejaVuSans-2e" x="63.623047"/>
       <use xlink:href="#DejaVuSans-38" x="95.410156"/>
      </g>
     </g>
    </g>
    <g id="ytick_9">
     <g id="line2d_15">
      <g>
       <use xlink:href="#mc1800ed9d3" x="258.75" y="41.887619" style="stroke: #000000; stroke-width: 0.8"/>
      </g>
     </g>
     <g id="text_15">
      <!-- 1.0 -->
      <g transform="translate(235.846875 45.686838) scale(0.1 -0.1)">
       <use xlink:href="#DejaVuSans-31"/>
       <use xlink:href="#DejaVuSans-2e" x="63.623047"/>
       <use xlink:href="#DejaVuSans-30" x="95.410156"/>
      </g>
     </g>
    </g>
   </g>
   <g id="patch_33">
    <path d="M 258.75 174.04 
L 258.75 35.28 
" style="fill: none; stroke: #000000; stroke-width: 0.8; stroke-linejoin: miter; stroke-linecap: square"/>
   </g>
   <g id="patch_34">
    <path d="M 421.2 174.04 
L 421.2 35.28 
" style="fill: none; stroke: #000000; stroke-width: 0.8; stroke-linejoin: miter; stroke-linecap: square"/>
   </g>
   <g id="patch_35">
    <path d="M 258.75 174.04 
L 421.2 174.04 
" style="fill: none; stroke: #000000; stroke-width: 0.8; stroke-linejoin: miter; stroke-linecap: square"/>
   </g>
   <g id="patch_36">
    <path d="M 258.75 35.28 
L 421.2 35.28 
" style="fill: none; stroke: #000000; stroke-width: 0.8; stroke-linejoin: miter; stroke-linecap: square"/>
   </g>
  </g>
  <g id="text_16">
   <!-- Weighting factor $\epsilon$ -->
   <g transform="translate(160.8 13.44) scale(0.12 -0.12)">
    <defs>
     <path id="DejaVuSans-57" d="M 213 4666 
L 850 4666 
L 1831 722 
L 2809 4666 
L 3519 4666 
L 4500 722 
L 5478 4666 
L 6119 4666 
L 4947 0 
L 4153 0 
L 3169 4050 
L 2175 0 
L 1381 0 
L 213 4666 
z
" transform="scale(0.015625)"/>
     <path id="DejaVuSans-65" d="M 3597 1894 
L 3597 1613 
L 953 1613 
Q 991 1019 1311 708 
Q 1631 397 2203 397 
Q 2534 397 2845 478 
Q 3156 559 3463 722 
L 3463 178 
Q 3153 47 2828 -22 
Q 2503 -91 2169 -91 
Q 1331 -91 842 396 
Q 353 884 353 1716 
Q 353 2575 817 3079 
Q 1281 3584 2069 3584 
Q 2775 3584 3186 3129 
Q 3597 2675 3597 1894 
z
M 3022 2063 
Q 3016 2534 2758 2815 
Q 2500 3097 2075 3097 
Q 1594 3097 1305 2825 
Q 1016 2553 972 2059 
L 3022 2063 
z
" transform="scale(0.015625)"/>
     <path id="DejaVuSans-67" d="M 2906 1791 
Q 2906 2416 2648 2759 
Q 2391 3103 1925 3103 
Q 1463 3103 1205 2759 
Q 947 2416 947 1791 
Q 947 1169 1205 825 
Q 1463 481 1925 481 
Q 2391 481 2648 825 
Q 2906 1169 2906 1791 
z
M 3481 434 
Q 3481 -459 3084 -895 
Q 2688 -1331 1869 -1331 
Q 1566 -1331 1297 -1286 
Q 1028 -1241 775 -1147 
L 775 -588 
Q 1028 -725 1275 -790 
Q 1522 -856 1778 -856 
Q 2344 -856 2625 -561 
Q 2906 -266 2906 331 
L 2906 616 
Q 2728 306 2450 153 
Q 2172 0 1784 0 
Q 1141 0 747 490 
Q 353 981 353 1791 
Q 353 2603 747 3093 
Q 1141 3584 1784 3584 
Q 2172 3584 2450 3431 
Q 2728 3278 2906 2969 
L 2906 3500 
L 3481 3500 
L 3481 434 
z
" transform="scale(0.015625)"/>
     <path id="DejaVuSans-68" d="M 3513 2113 
L 3513 0 
L 2938 0 
L 2938 2094 
Q 2938 2591 2744 2837 
Q 2550 3084 2163 3084 
Q 1697 3084 1428 2787 
Q 1159 2491 1159 1978 
L 1159 0 
L 581 0 
L 581 4863 
L 1159 4863 
L 1159 2956 
Q 1366 3272 1645 3428 
Q 1925 3584 2291 3584 
Q 2894 3584 3203 3211 
Q 3513 2838 3513 2113 
z
" transform="scale(0.015625)"/>
     <path id="DejaVuSans-20" transform="scale(0.015625)"/>
     <path id="DejaVuSans-66" d="M 2375 4863 
L 2375 4384 
L 1825 4384 
Q 1516 4384 1395 4259 
Q 1275 4134 1275 3809 
L 1275 3500 
L 2222 3500 
L 2222 3053 
L 1275 3053 
L 1275 0 
L 697 0 
L 697 3053 
L 147 3053 
L 147 3500 
L 697 3500 
L 697 3744 
Q 697 4328 969 4595 
Q 1241 4863 1831 4863 
L 2375 4863 
z
" transform="scale(0.015625)"/>
     <path id="DejaVuSans-6f" d="M 1959 3097 
Q 1497 3097 1228 2736 
Q 959 2375 959 1747 
Q 959 1119 1226 758 
Q 1494 397 1959 397 
Q 2419 397 2687 759 
Q 2956 1122 2956 1747 
Q 2956 2369 2687 2733 
Q 2419 3097 1959 3097 
z
M 1959 3584 
Q 2709 3584 3137 3096 
Q 3566 2609 3566 1747 
Q 3566 888 3137 398 
Q 2709 -91 1959 -91 
Q 1206 -91 779 398 
Q 353 888 353 1747 
Q 353 2609 779 3096 
Q 1206 3584 1959 3584 
z
" transform="scale(0.015625)"/>
     <path id="DejaVuSans-Oblique-3b5" d="M 1263 1888 
Q 925 1963 778 2166 
Q 669 2309 669 2503 
Q 669 3034 1175 3344 
Q 1575 3588 2188 3588 
Q 2425 3588 2684 3550 
Q 2944 3513 3234 3438 
L 3134 2916 
Q 2847 3006 2606 3047 
Q 2359 3088 2138 3088 
Q 1766 3088 1522 2944 
Q 1228 2772 1228 2522 
Q 1228 2356 1381 2241 
Q 1563 2103 1925 2103 
L 2409 2103 
L 2319 1628 
L 1856 1628 
Q 1425 1628 1172 1469 
Q 828 1253 828 916 
Q 828 703 1013 563 
Q 1244 388 1716 388 
Q 2006 388 2284 444 
Q 2563 503 2806 619 
L 2700 84 
Q 2403 -3 2131 -47 
Q 1859 -91 1609 -91 
Q 866 -91 516 194 
Q 250 413 250 781 
Q 250 1278 600 1584 
Q 859 1813 1263 1888 
z
" transform="scale(0.015625)"/>
    </defs>
    <use xlink:href="#DejaVuSans-57" transform="translate(0 0.015625)"/>
    <use xlink:href="#DejaVuSans-65" transform="translate(98.876953 0.015625)"/>
    <use xlink:href="#DejaVuSans-69" transform="translate(160.400391 0.015625)"/>
    <use xlink:href="#DejaVuSans-67" transform="translate(188.183594 0.015625)"/>
    <use xlink:href="#DejaVuSans-68" transform="translate(251.660156 0.015625)"/>
    <use xlink:href="#DejaVuSans-74" transform="translate(315.039062 0.015625)"/>
    <use xlink:href="#DejaVuSans-69" transform="translate(354.248047 0.015625)"/>
    <use xlink:href="#DejaVuSans-6e" transform="translate(382.03125 0.015625)"/>
    <use xlink:href="#DejaVuSans-67" transform="translate(445.410156 0.015625)"/>
    <use xlink:href="#DejaVuSans-20" transform="translate(508.886719 0.015625)"/>
    <use xlink:href="#DejaVuSans-66" transform="translate(540.673828 0.015625)"/>
    <use xlink:href="#DejaVuSans-61" transform="translate(575.878906 0.015625)"/>
    <use xlink:href="#DejaVuSans-63" transform="translate(637.158203 0.015625)"/>
    <use xlink:href="#DejaVuSans-74" transform="translate(692.138672 0.015625)"/>
    <use xlink:href="#DejaVuSans-6f" transform="translate(731.347656 0.015625)"/>
    <use xlink:href="#DejaVuSans-72" transform="translate(792.529297 0.015625)"/>
    <use xlink:href="#DejaVuSans-20" transform="translate(833.642578 0.015625)"/>
    <use xlink:href="#DejaVuSans-Oblique-3b5" transform="translate(865.429688 0.015625)"/>
   </g>
  </g>
 </g>
 <defs>
  <clipPath id="p256e4e740f">
   <rect x="62.57" y="35.28" width="162.45" height="138.76"/>
  </clipPath>
  <clipPath id="p4581fcff8f">
   <rect x="258.75" y="35.28" width="162.45" height="138.76"/>
  </clipPath>
 </defs>
</svg>
