<?xml version="1.0" encoding="utf-8" standalone="no"?>
<!DOCTYPE svg PUBLIC "-//W3C//DTD SVG 1.1//EN"
  "http://www.w3.org/Graphics/SVG/1.1/DTD/svg11.dtd">
<svg xmlns:xlink="http://www.w3.org/1999/xlink" width="460.8pt" height="345.6pt" viewBox="0 0 460.8 345.6" xmlns="http://www.w3.org/2000/svg" version="1.1">
 <metadata>
  <rdf:RDF xmlns:dc="http://purl.org/dc/elements/1.1/" xmlns:cc="http://creativecommons.org/ns#" xmlns:rdf="http://www.w3.org/1999/02/22-rdf-syntax-ns#">
   <cc:Work>
    <dc:type rdf:resource="http://purl.org/dc/dcmitype/StillImage"/>
    <dc:date>2024-06-18T15:37:23.675966</dc:date>
    <dc:format>image/svg+xml</dc:format>
    <dc:creator>
     <cc:Agent>
      <dc:title>Matplotlib v3.7.2, https://matplotlib.org/</dc:title>
     </cc:Agent>
    </dc:creator>
   </cc:Work>
  </rdf:RDF>
 </metadata>
 <defs>
  <style type="text/css">*{stroke-linejoin: round; stroke-linecap: butt}</style>
 </defs>
 <g id="figure_1">
  <g id="patch_1">
   <path d="M 0 345.6 
L 460.8 345.6 
L 460.8 0 
L 0 0 
z
" style="fill: #ffffff"/>
  </g>
  <g id="axes_1">
   <g id="patch_2">
    <path d="M 57.6 307.584 
L 414.72 307.584 
L 414.72 41.472 
L 57.6 41.472 
z
" style="fill: #ffffff"/>
   </g>
   <g id="patch_3">
    <path d="M 73.832727 307.584 
L 73.832727 41.472 
L 236.16 41.472 
L 236.16 307.584 
z
" clip-path="url(#p908c0ceee9)" style="fill: #ff7f50; opacity: 0.2"/>
   </g>
   <g id="patch_4">
    <path d="M 236.16 307.584 
L 236.16 41.472 
L 398.487273 41.472 
L 398.487273 307.584 
z
" clip-path="url(#p908c0ceee9)" style="fill: #add8e6; opacity: 0.2"/>
   </g>
   <g id="matplotlib.axis_1">
    <g id="xtick_1">
     <g id="line2d_1">
      <defs>
       <path id="m01fd999277" d="M 0 0 
L 0 3.5 
" style="stroke: #000000; stroke-width: 0.8"/>
      </defs>
      <g>
       <use xlink:href="#m01fd999277" x="73.832727" y="307.584" style="stroke: #000000; stroke-width: 0.8"/>
      </g>
     </g>
     <g id="text_1">
      <!-- 0 -->
      <g transform="translate(70.651477 322.182437) scale(0.1 -0.1)">
       <defs>
        <path id="DejaVuSans-30" d="M 2034 4250 
Q 1547 4250 1301 3770 
Q 1056 3291 1056 2328 
Q 1056 1369 1301 889 
Q 1547 409 2034 409 
Q 2525 409 2770 889 
Q 3016 1369 3016 2328 
Q 3016 3291 2770 3770 
Q 2525 4250 2034 4250 
z
M 2034 4750 
Q 2819 4750 3233 4129 
Q 3647 3509 3647 2328 
Q 3647 1150 3233 529 
Q 2819 -91 2034 -91 
Q 1250 -91 836 529 
Q 422 1150 422 2328 
Q 422 3509 836 4129 
Q 1250 4750 2034 4750 
z
" transform="scale(0.015625)"/>
       </defs>
       <use xlink:href="#DejaVuSans-30"/>
      </g>
     </g>
    </g>
    <g id="xtick_2">
     <g id="line2d_2">
      <g>
       <use xlink:href="#m01fd999277" x="114.414545" y="307.584" style="stroke: #000000; stroke-width: 0.8"/>
      </g>
     </g>
     <g id="text_2">
      <!-- 5 -->
      <g transform="translate(111.233295 322.182437) scale(0.1 -0.1)">
       <defs>
        <path id="DejaVuSans-35" d="M 691 4666 
L 3169 4666 
L 3169 4134 
L 1269 4134 
L 1269 2991 
Q 1406 3038 1543 3061 
Q 1681 3084 1819 3084 
Q 2600 3084 3056 2656 
Q 3513 2228 3513 1497 
Q 3513 744 3044 326 
Q 2575 -91 1722 -91 
Q 1428 -91 1123 -41 
Q 819 9 494 109 
L 494 744 
Q 775 591 1075 516 
Q 1375 441 1709 441 
Q 2250 441 2565 725 
Q 2881 1009 2881 1497 
Q 2881 1984 2565 2268 
Q 2250 2553 1709 2553 
Q 1456 2553 1204 2497 
Q 953 2441 691 2322 
L 691 4666 
z
" transform="scale(0.015625)"/>
       </defs>
       <use xlink:href="#DejaVuSans-35"/>
      </g>
     </g>
    </g>
    <g id="xtick_3">
     <g id="line2d_3">
      <g>
       <use xlink:href="#m01fd999277" x="154.996364" y="307.584" style="stroke: #000000; stroke-width: 0.8"/>
      </g>
     </g>
     <g id="text_3">
      <!-- 10 -->
      <g transform="translate(148.633864 322.182437) scale(0.1 -0.1)">
       <defs>
        <path id="DejaVuSans-31" d="M 794 531 
L 1825 531 
L 1825 4091 
L 703 3866 
L 703 4441 
L 1819 4666 
L 2450 4666 
L 2450 531 
L 3481 531 
L 3481 0 
L 794 0 
L 794 531 
z
" transform="scale(0.015625)"/>
       </defs>
       <use xlink:href="#DejaVuSans-31"/>
       <use xlink:href="#DejaVuSans-30" x="63.623047"/>
      </g>
     </g>
    </g>
    <g id="xtick_4">
     <g id="line2d_4">
      <g>
       <use xlink:href="#m01fd999277" x="195.578182" y="307.584" style="stroke: #000000; stroke-width: 0.8"/>
      </g>
     </g>
     <g id="text_4">
      <!-- 15 -->
      <g transform="translate(189.215682 322.182437) scale(0.1 -0.1)">
       <use xlink:href="#DejaVuSans-31"/>
       <use xlink:href="#DejaVuSans-35" x="63.623047"/>
      </g>
     </g>
    </g>
    <g id="xtick_5">
     <g id="line2d_5">
      <g>
       <use xlink:href="#m01fd999277" x="236.16" y="307.584" style="stroke: #000000; stroke-width: 0.8"/>
      </g>
     </g>
     <g id="text_5">
      <!-- 20 -->
      <g transform="translate(229.7975 322.182437) scale(0.1 -0.1)">
       <defs>
        <path id="DejaVuSans-32" d="M 1228 531 
L 3431 531 
L 3431 0 
L 469 0 
L 469 531 
Q 828 903 1448 1529 
Q 2069 2156 2228 2338 
Q 2531 2678 2651 2914 
Q 2772 3150 2772 3378 
Q 2772 3750 2511 3984 
Q 2250 4219 1831 4219 
Q 1534 4219 1204 4116 
Q 875 4013 500 3803 
L 500 4441 
Q 881 4594 1212 4672 
Q 1544 4750 1819 4750 
Q 2544 4750 2975 4387 
Q 3406 4025 3406 3419 
Q 3406 3131 3298 2873 
Q 3191 2616 2906 2266 
Q 2828 2175 2409 1742 
Q 1991 1309 1228 531 
z
" transform="scale(0.015625)"/>
       </defs>
       <use xlink:href="#DejaVuSans-32"/>
       <use xlink:href="#DejaVuSans-30" x="63.623047"/>
      </g>
     </g>
    </g>
    <g id="xtick_6">
     <g id="line2d_6">
      <g>
       <use xlink:href="#m01fd999277" x="276.741818" y="307.584" style="stroke: #000000; stroke-width: 0.8"/>
      </g>
     </g>
     <g id="text_6">
      <!-- 25 -->
      <g transform="translate(270.379318 322.182437) scale(0.1 -0.1)">
       <use xlink:href="#DejaVuSans-32"/>
       <use xlink:href="#DejaVuSans-35" x="63.623047"/>
      </g>
     </g>
    </g>
    <g id="xtick_7">
     <g id="line2d_7">
      <g>
       <use xlink:href="#m01fd999277" x="317.323636" y="307.584" style="stroke: #000000; stroke-width: 0.8"/>
      </g>
     </g>
     <g id="text_7">
      <!-- 30 -->
      <g transform="translate(310.961136 322.182437) scale(0.1 -0.1)">
       <defs>
        <path id="DejaVuSans-33" d="M 2597 2516 
Q 3050 2419 3304 2112 
Q 3559 1806 3559 1356 
Q 3559 666 3084 287 
Q 2609 -91 1734 -91 
Q 1441 -91 1130 -33 
Q 819 25 488 141 
L 488 750 
Q 750 597 1062 519 
Q 1375 441 1716 441 
Q 2309 441 2620 675 
Q 2931 909 2931 1356 
Q 2931 1769 2642 2001 
Q 2353 2234 1838 2234 
L 1294 2234 
L 1294 2753 
L 1863 2753 
Q 2328 2753 2575 2939 
Q 2822 3125 2822 3475 
Q 2822 3834 2567 4026 
Q 2313 4219 1838 4219 
Q 1578 4219 1281 4162 
Q 984 4106 628 3988 
L 628 4550 
Q 988 4650 1302 4700 
Q 1616 4750 1894 4750 
Q 2613 4750 3031 4423 
Q 3450 4097 3450 3541 
Q 3450 3153 3228 2886 
Q 3006 2619 2597 2516 
z
" transform="scale(0.015625)"/>
       </defs>
       <use xlink:href="#DejaVuSans-33"/>
       <use xlink:href="#DejaVuSans-30" x="63.623047"/>
      </g>
     </g>
    </g>
    <g id="xtick_8">
     <g id="line2d_8">
      <g>
       <use xlink:href="#m01fd999277" x="357.905455" y="307.584" style="stroke: #000000; stroke-width: 0.8"/>
      </g>
     </g>
     <g id="text_8">
      <!-- 35 -->
      <g transform="translate(351.542955 322.182437) scale(0.1 -0.1)">
       <use xlink:href="#DejaVuSans-33"/>
       <use xlink:href="#DejaVuSans-35" x="63.623047"/>
      </g>
     </g>
    </g>
    <g id="xtick_9">
     <g id="line2d_9">
      <g>
       <use xlink:href="#m01fd999277" x="398.487273" y="307.584" style="stroke: #000000; stroke-width: 0.8"/>
      </g>
     </g>
     <g id="text_9">
      <!-- 40 -->
      <g transform="translate(392.124773 322.182437) scale(0.1 -0.1)">
       <defs>
        <path id="DejaVuSans-34" d="M 2419 4116 
L 825 1625 
L 2419 1625 
L 2419 4116 
z
M 2253 4666 
L 3047 4666 
L 3047 1625 
L 3713 1625 
L 3713 1100 
L 3047 1100 
L 3047 0 
L 2419 0 
L 2419 1100 
L 313 1100 
L 313 1709 
L 2253 4666 
z
" transform="scale(0.015625)"/>
       </defs>
       <use xlink:href="#DejaVuSans-34"/>
       <use xlink:href="#DejaVuSans-30" x="63.623047"/>
      </g>
     </g>
    </g>
    <g id="text_10">
     <!-- t -->
     <g transform="translate(234.199844 335.860562) scale(0.1 -0.1)">
      <defs>
       <path id="DejaVuSans-74" d="M 1172 4494 
L 1172 3500 
L 2356 3500 
L 2356 3053 
L 1172 3053 
L 1172 1153 
Q 1172 725 1289 603 
Q 1406 481 1766 481 
L 2356 481 
L 2356 0 
L 1766 0 
Q 1100 0 847 248 
Q 594 497 594 1153 
L 594 3053 
L 172 3053 
L 172 3500 
L 594 3500 
L 594 4494 
L 1172 4494 
z
" transform="scale(0.015625)"/>
      </defs>
      <use xlink:href="#DejaVuSans-74"/>
     </g>
    </g>
   </g>
   <g id="matplotlib.axis_2">
    <g id="ytick_1">
     <g id="line2d_10">
      <defs>
       <path id="m40ce31d2ab" d="M 0 0 
L -3.5 0 
" style="stroke: #000000; stroke-width: 0.8"/>
      </defs>
      <g>
       <use xlink:href="#m40ce31d2ab" x="57.6" y="307.584" style="stroke: #000000; stroke-width: 0.8"/>
      </g>
     </g>
     <g id="text_11">
      <!-- 0.0 -->
      <g transform="translate(34.696875 311.383219) scale(0.1 -0.1)">
       <defs>
        <path id="DejaVuSans-2e" d="M 684 794 
L 1344 794 
L 1344 0 
L 684 0 
L 684 794 
z
" transform="scale(0.015625)"/>
       </defs>
       <use xlink:href="#DejaVuSans-30"/>
       <use xlink:href="#DejaVuSans-2e" x="63.623047"/>
       <use xlink:href="#DejaVuSans-30" x="95.410156"/>
      </g>
     </g>
    </g>
    <g id="ytick_2">
     <g id="line2d_11">
      <g>
       <use xlink:href="#m40ce31d2ab" x="57.6" y="254.3616" style="stroke: #000000; stroke-width: 0.8"/>
      </g>
     </g>
     <g id="text_12">
      <!-- 0.2 -->
      <g transform="translate(34.696875 258.160819) scale(0.1 -0.1)">
       <use xlink:href="#DejaVuSans-30"/>
       <use xlink:href="#DejaVuSans-2e" x="63.623047"/>
       <use xlink:href="#DejaVuSans-32" x="95.410156"/>
      </g>
     </g>
    </g>
    <g id="ytick_3">
     <g id="line2d_12">
      <g>
       <use xlink:href="#m40ce31d2ab" x="57.6" y="201.1392" style="stroke: #000000; stroke-width: 0.8"/>
      </g>
     </g>
     <g id="text_13">
      <!-- 0.4 -->
      <g transform="translate(34.696875 204.938419) scale(0.1 -0.1)">
       <use xlink:href="#DejaVuSans-30"/>
       <use xlink:href="#DejaVuSans-2e" x="63.623047"/>
       <use xlink:href="#DejaVuSans-34" x="95.410156"/>
      </g>
     </g>
    </g>
    <g id="ytick_4">
     <g id="line2d_13">
      <g>
       <use xlink:href="#m40ce31d2ab" x="57.6" y="147.9168" style="stroke: #000000; stroke-width: 0.8"/>
      </g>
     </g>
     <g id="text_14">
      <!-- 0.6 -->
      <g transform="translate(34.696875 151.716019) scale(0.1 -0.1)">
       <defs>
        <path id="DejaVuSans-36" d="M 2113 2584 
Q 1688 2584 1439 2293 
Q 1191 2003 1191 1497 
Q 1191 994 1439 701 
Q 1688 409 2113 409 
Q 2538 409 2786 701 
Q 3034 994 3034 1497 
Q 3034 2003 2786 2293 
Q 2538 2584 2113 2584 
z
M 3366 4563 
L 3366 3988 
Q 3128 4100 2886 4159 
Q 2644 4219 2406 4219 
Q 1781 4219 1451 3797 
Q 1122 3375 1075 2522 
Q 1259 2794 1537 2939 
Q 1816 3084 2150 3084 
Q 2853 3084 3261 2657 
Q 3669 2231 3669 1497 
Q 3669 778 3244 343 
Q 2819 -91 2113 -91 
Q 1303 -91 875 529 
Q 447 1150 447 2328 
Q 447 3434 972 4092 
Q 1497 4750 2381 4750 
Q 2619 4750 2861 4703 
Q 3103 4656 3366 4563 
z
" transform="scale(0.015625)"/>
       </defs>
       <use xlink:href="#DejaVuSans-30"/>
       <use xlink:href="#DejaVuSans-2e" x="63.623047"/>
       <use xlink:href="#DejaVuSans-36" x="95.410156"/>
      </g>
     </g>
    </g>
    <g id="ytick_5">
     <g id="line2d_14">
      <g>
       <use xlink:href="#m40ce31d2ab" x="57.6" y="94.6944" style="stroke: #000000; stroke-width: 0.8"/>
      </g>
     </g>
     <g id="text_15">
      <!-- 0.8 -->
      <g transform="translate(34.696875 98.493619) scale(0.1 -0.1)">
       <defs>
        <path id="DejaVuSans-38" d="M 2034 2216 
Q 1584 2216 1326 1975 
Q 1069 1734 1069 1313 
Q 1069 891 1326 650 
Q 1584 409 2034 409 
Q 2484 409 2743 651 
Q 3003 894 3003 1313 
Q 3003 1734 2745 1975 
Q 2488 2216 2034 2216 
z
M 1403 2484 
Q 997 2584 770 2862 
Q 544 3141 544 3541 
Q 544 4100 942 4425 
Q 1341 4750 2034 4750 
Q 2731 4750 3128 4425 
Q 3525 4100 3525 3541 
Q 3525 3141 3298 2862 
Q 3072 2584 2669 2484 
Q 3125 2378 3379 2068 
Q 3634 1759 3634 1313 
Q 3634 634 3220 271 
Q 2806 -91 2034 -91 
Q 1263 -91 848 271 
Q 434 634 434 1313 
Q 434 1759 690 2068 
Q 947 2378 1403 2484 
z
M 1172 3481 
Q 1172 3119 1398 2916 
Q 1625 2713 2034 2713 
Q 2441 2713 2670 2916 
Q 2900 3119 2900 3481 
Q 2900 3844 2670 4047 
Q 2441 4250 2034 4250 
Q 1625 4250 1398 4047 
Q 1172 3844 1172 3481 
z
" transform="scale(0.015625)"/>
       </defs>
       <use xlink:href="#DejaVuSans-30"/>
       <use xlink:href="#DejaVuSans-2e" x="63.623047"/>
       <use xlink:href="#DejaVuSans-38" x="95.410156"/>
      </g>
     </g>
    </g>
    <g id="ytick_6">
     <g id="line2d_15">
      <g>
       <use xlink:href="#m40ce31d2ab" x="57.6" y="41.472" style="stroke: #000000; stroke-width: 0.8"/>
      </g>
     </g>
     <g id="text_16">
      <!-- 1.0 -->
      <g transform="translate(34.696875 45.271219) scale(0.1 -0.1)">
       <use xlink:href="#DejaVuSans-31"/>
       <use xlink:href="#DejaVuSans-2e" x="63.623047"/>
       <use xlink:href="#DejaVuSans-30" x="95.410156"/>
      </g>
     </g>
    </g>
    <g id="text_17">
     <!-- p(context) -->
     <g transform="translate(28.617187 200.449875) rotate(-90) scale(0.1 -0.1)">
      <defs>
       <path id="DejaVuSans-70" d="M 1159 525 
L 1159 -1331 
L 581 -1331 
L 581 3500 
L 1159 3500 
L 1159 2969 
Q 1341 3281 1617 3432 
Q 1894 3584 2278 3584 
Q 2916 3584 3314 3078 
Q 3713 2572 3713 1747 
Q 3713 922 3314 415 
Q 2916 -91 2278 -91 
Q 1894 -91 1617 61 
Q 1341 213 1159 525 
z
M 3116 1747 
Q 3116 2381 2855 2742 
Q 2594 3103 2138 3103 
Q 1681 3103 1420 2742 
Q 1159 2381 1159 1747 
Q 1159 1113 1420 752 
Q 1681 391 2138 391 
Q 2594 391 2855 752 
Q 3116 1113 3116 1747 
z
" transform="scale(0.015625)"/>
       <path id="DejaVuSans-28" d="M 1984 4856 
Q 1566 4138 1362 3434 
Q 1159 2731 1159 2009 
Q 1159 1288 1364 580 
Q 1569 -128 1984 -844 
L 1484 -844 
Q 1016 -109 783 600 
Q 550 1309 550 2009 
Q 550 2706 781 3412 
Q 1013 4119 1484 4856 
L 1984 4856 
z
" transform="scale(0.015625)"/>
       <path id="DejaVuSans-63" d="M 3122 3366 
L 3122 2828 
Q 2878 2963 2633 3030 
Q 2388 3097 2138 3097 
Q 1578 3097 1268 2742 
Q 959 2388 959 1747 
Q 959 1106 1268 751 
Q 1578 397 2138 397 
Q 2388 397 2633 464 
Q 2878 531 3122 666 
L 3122 134 
Q 2881 22 2623 -34 
Q 2366 -91 2075 -91 
Q 1284 -91 818 406 
Q 353 903 353 1747 
Q 353 2603 823 3093 
Q 1294 3584 2113 3584 
Q 2378 3584 2631 3529 
Q 2884 3475 3122 3366 
z
" transform="scale(0.015625)"/>
       <path id="DejaVuSans-6f" d="M 1959 3097 
Q 1497 3097 1228 2736 
Q 959 2375 959 1747 
Q 959 1119 1226 758 
Q 1494 397 1959 397 
Q 2419 397 2687 759 
Q 2956 1122 2956 1747 
Q 2956 2369 2687 2733 
Q 2419 3097 1959 3097 
z
M 1959 3584 
Q 2709 3584 3137 3096 
Q 3566 2609 3566 1747 
Q 3566 888 3137 398 
Q 2709 -91 1959 -91 
Q 1206 -91 779 398 
Q 353 888 353 1747 
Q 353 2609 779 3096 
Q 1206 3584 1959 3584 
z
" transform="scale(0.015625)"/>
       <path id="DejaVuSans-6e" d="M 3513 2113 
L 3513 0 
L 2938 0 
L 2938 2094 
Q 2938 2591 2744 2837 
Q 2550 3084 2163 3084 
Q 1697 3084 1428 2787 
Q 1159 2491 1159 1978 
L 1159 0 
L 581 0 
L 581 3500 
L 1159 3500 
L 1159 2956 
Q 1366 3272 1645 3428 
Q 1925 3584 2291 3584 
Q 2894 3584 3203 3211 
Q 3513 2838 3513 2113 
z
" transform="scale(0.015625)"/>
       <path id="DejaVuSans-65" d="M 3597 1894 
L 3597 1613 
L 953 1613 
Q 991 1019 1311 708 
Q 1631 397 2203 397 
Q 2534 397 2845 478 
Q 3156 559 3463 722 
L 3463 178 
Q 3153 47 2828 -22 
Q 2503 -91 2169 -91 
Q 1331 -91 842 396 
Q 353 884 353 1716 
Q 353 2575 817 3079 
Q 1281 3584 2069 3584 
Q 2775 3584 3186 3129 
Q 3597 2675 3597 1894 
z
M 3022 2063 
Q 3016 2534 2758 2815 
Q 2500 3097 2075 3097 
Q 1594 3097 1305 2825 
Q 1016 2553 972 2059 
L 3022 2063 
z
" transform="scale(0.015625)"/>
       <path id="DejaVuSans-78" d="M 3513 3500 
L 2247 1797 
L 3578 0 
L 2900 0 
L 1881 1375 
L 863 0 
L 184 0 
L 1544 1831 
L 300 3500 
L 978 3500 
L 1906 2253 
L 2834 3500 
L 3513 3500 
z
" transform="scale(0.015625)"/>
       <path id="DejaVuSans-29" d="M 513 4856 
L 1013 4856 
Q 1481 4119 1714 3412 
Q 1947 2706 1947 2009 
Q 1947 1309 1714 600 
Q 1481 -109 1013 -844 
L 513 -844 
Q 928 -128 1133 580 
Q 1338 1288 1338 2009 
Q 1338 2731 1133 3434 
Q 928 4138 513 4856 
z
" transform="scale(0.015625)"/>
      </defs>
      <use xlink:href="#DejaVuSans-70"/>
      <use xlink:href="#DejaVuSans-28" x="63.476562"/>
      <use xlink:href="#DejaVuSans-63" x="102.490234"/>
      <use xlink:href="#DejaVuSans-6f" x="157.470703"/>
      <use xlink:href="#DejaVuSans-6e" x="218.652344"/>
      <use xlink:href="#DejaVuSans-74" x="282.03125"/>
      <use xlink:href="#DejaVuSans-65" x="321.240234"/>
      <use xlink:href="#DejaVuSans-78" x="381.013672"/>
      <use xlink:href="#DejaVuSans-74" x="440.193359"/>
      <use xlink:href="#DejaVuSans-29" x="479.402344"/>
     </g>
    </g>
   </g>
   <g id="line2d_16">
    <path d="M 73.832727 267.6672 
L 81.949091 307.253892 
L 90.065455 307.369661 
L 98.181818 307.379215 
L 106.298182 307.384582 
L 114.414545 177.157248 
L 122.530909 146.478328 
L 130.647273 305.490678 
L 138.763636 306.930516 
L 146.88 292.39562 
L 154.996364 289.506223 
L 163.112727 288.539184 
L 171.229091 181.005874 
L 179.345455 304.826807 
L 187.461818 289.811921 
L 195.578182 287.633857 
L 203.694545 287.280283 
L 211.810909 287.198895 
L 219.927273 287.16649 
L 228.043636 287.148094 
L 236.16 287.136375 
L 244.276364 287.128701 
L 252.392727 287.123646 
L 260.509091 287.120312 
L 268.625455 287.118112 
L 276.741818 287.116661 
L 284.858182 287.115703 
L 292.974545 287.115072 
L 301.090909 287.114655 
L 309.207273 287.11438 
L 317.323636 287.114198 
L 325.44 287.114078 
L 333.556364 287.113999 
L 341.672727 287.113947 
L 349.789091 287.113913 
L 357.905455 287.11389 
L 366.021818 287.113875 
L 374.138182 287.113865 
L 382.254545 287.113859 
L 390.370909 287.113854 
" clip-path="url(#p908c0ceee9)" style="fill: none; stroke: #add8e6; stroke-opacity: 0.3; stroke-width: 1.5; stroke-linecap: square"/>
   </g>
   <g id="line2d_17">
    <path d="M 73.832727 267.6672 
L 81.949091 307.253892 
L 90.065455 307.369661 
L 98.181818 307.379215 
L 106.298182 307.384582 
L 114.414545 307.388422 
L 122.530909 307.391479 
L 130.647273 307.394025 
L 138.763636 307.396189 
L 146.88 307.39805 
L 154.996364 307.399664 
L 163.112727 307.401073 
L 171.229091 293.66915 
L 179.345455 307.350807 
L 187.461818 307.396871 
L 195.578182 293.598602 
L 203.694545 307.351187 
L 211.810909 307.397694 
L 219.927273 293.596783 
L 228.043636 307.352402 
L 236.16 293.34827 
L 244.276364 132.390257 
L 252.392727 128.300717 
L 260.509091 132.314811 
L 268.625455 137.026958 
L 276.741818 142.072542 
L 284.858182 147.292053 
L 292.974545 152.570626 
L 301.090909 157.816982 
L 309.207273 162.956339 
L 317.323636 167.928389 
L 325.44 306.631801 
L 333.556364 182.768792 
L 341.672727 306.127263 
L 349.789091 290.120701 
L 357.905455 287.760589 
L 366.021818 287.353106 
L 374.138182 287.245431 
L 382.254545 287.196982 
L 390.370909 287.168183 
" clip-path="url(#p908c0ceee9)" style="fill: none; stroke: #add8e6; stroke-opacity: 0.3; stroke-width: 1.5; stroke-linecap: square"/>
   </g>
   <g id="line2d_18">
    <path d="M 73.832727 267.6672 
L 81.949091 307.253892 
L 90.065455 307.369661 
L 98.181818 190.69953 
L 106.298182 157.684191 
L 114.414545 305.555827 
L 122.530909 306.910392 
L 130.647273 292.287106 
L 138.763636 306.893155 
L 146.88 292.67988 
L 154.996364 191.65697 
L 163.112727 305.146541 
L 171.229091 290.464595 
L 179.345455 288.126421 
L 187.461818 287.613962 
L 195.578182 306.410314 
L 203.694545 292.078045 
L 211.810909 289.300282 
L 219.927273 288.403806 
L 228.043636 287.943569 
L 236.16 287.658303 
L 244.276364 306.414506 
L 252.392727 292.096018 
L 260.509091 289.314273 
L 268.625455 288.413336 
L 276.741818 287.949899 
L 284.858182 287.662486 
L 292.974545 306.414722 
L 301.090909 292.096867 
L 309.207273 289.314932 
L 317.323636 288.413785 
L 325.44 287.950197 
L 333.556364 287.662683 
L 341.672727 192.652826 
L 349.789091 170.033121 
L 357.905455 303.374133 
L 366.021818 288.698778 
L 374.138182 286.877715 
L 382.254545 286.778335 
L 390.370909 286.867279 
" clip-path="url(#p908c0ceee9)" style="fill: none; stroke: #add8e6; stroke-opacity: 0.3; stroke-width: 1.5; stroke-linecap: square"/>
   </g>
   <g id="line2d_19">
    <path d="M 73.832727 267.6672 
L 81.949091 307.253892 
L 90.065455 307.369661 
L 98.181818 307.379215 
L 106.298182 183.571284 
L 114.414545 306.131872 
L 122.530909 307.044004 
L 130.647273 292.824971 
L 138.763636 306.991199 
L 146.88 292.911414 
L 154.996364 306.994479 
L 163.112727 292.931619 
L 171.229091 306.995178 
L 179.345455 292.935864 
L 187.461818 306.995325 
L 195.578182 292.936755 
L 203.694545 175.925806 
L 211.810909 152.883327 
L 219.927273 304.416735 
L 228.043636 289.385467 
L 236.16 287.330626 
L 244.276364 287.077145 
L 252.392727 287.064433 
L 260.509091 287.077711 
L 268.625455 287.089508 
L 276.741818 287.097719 
L 284.858182 287.103195 
L 292.974545 287.106817 
L 301.090909 287.109208 
L 309.207273 287.110786 
L 317.323636 287.111827 
L 325.44 287.112514 
L 333.556364 287.112967 
L 341.672727 287.113266 
L 349.789091 287.113463 
L 357.905455 287.113594 
L 366.021818 287.11368 
L 374.138182 287.113736 
L 382.254545 287.113774 
L 390.370909 287.113798 
" clip-path="url(#p908c0ceee9)" style="fill: none; stroke: #add8e6; stroke-opacity: 0.3; stroke-width: 1.5; stroke-linecap: square"/>
   </g>
   <g id="line2d_20">
    <path d="M 73.832727 267.6672 
L 81.949091 307.253892 
L 90.065455 307.369661 
L 98.181818 307.379215 
L 106.298182 307.384582 
L 114.414545 307.388422 
L 122.530909 307.391479 
L 130.647273 307.394025 
L 138.763636 307.396189 
L 146.88 307.39805 
L 154.996364 153.831976 
L 163.112727 305.823631 
L 171.229091 291.109164 
L 179.345455 288.579446 
L 187.461818 287.916759 
L 195.578182 287.620608 
L 203.694545 287.444986 
L 211.810909 287.331883 
L 219.927273 306.857117 
L 228.043636 292.44132 
L 236.16 289.549573 
L 244.276364 288.569636 
L 252.392727 288.053173 
L 260.509091 287.730647 
L 268.625455 287.520399 
L 276.741818 287.382035 
L 284.858182 165.325844 
L 292.974545 150.223789 
L 301.090909 151.783248 
L 309.207273 155.590079 
L 317.323636 304.693766 
L 325.44 289.210168 
L 333.556364 287.164761 
L 341.672727 286.960668 
L 349.789091 286.986594 
L 357.905455 287.026214 
L 366.021818 287.055511 
L 374.138182 287.075284 
L 382.254545 287.088392 
L 390.370909 287.09705 
" clip-path="url(#p908c0ceee9)" style="fill: none; stroke: #add8e6; stroke-opacity: 0.3; stroke-width: 1.5; stroke-linecap: square"/>
   </g>
   <g id="line2d_21">
    <path d="M 73.832727 267.6672 
L 81.949091 307.253892 
L 90.065455 198.320593 
L 98.181818 306.247253 
L 106.298182 307.048507 
L 114.414545 214.738293 
L 122.530909 305.671147 
L 130.647273 291.133167 
L 138.763636 288.612752 
L 146.88 306.492923 
L 154.996364 292.072409 
L 163.112727 289.288131 
L 171.229091 288.394607 
L 179.345455 306.493137 
L 187.461818 292.083008 
L 195.578182 289.296591 
L 203.694545 288.400395 
L 211.810909 306.493418 
L 219.927273 292.08426 
L 228.043636 289.297567 
L 236.16 288.40106 
L 244.276364 204.016557 
L 252.392727 179.778531 
L 260.509091 177.454171 
L 268.625455 180.19789 
L 276.741818 183.969562 
L 284.858182 187.873375 
L 292.974545 304.383158 
L 301.090909 288.763052 
L 309.207273 286.8358 
L 317.323636 286.738857 
L 325.44 286.839574 
L 333.556364 286.929115 
L 341.672727 286.991432 
L 349.789091 287.033002 
L 357.905455 287.060494 
L 366.021818 287.078643 
L 374.138182 287.090618 
L 382.254545 287.09852 
L 390.370909 287.103734 
" clip-path="url(#p908c0ceee9)" style="fill: none; stroke: #add8e6; stroke-opacity: 0.3; stroke-width: 1.5; stroke-linecap: square"/>
   </g>
   <g id="line2d_22">
    <path d="M 73.832727 267.6672 
L 81.949091 307.253892 
L 90.065455 307.369661 
L 98.181818 307.379215 
L 106.298182 183.571284 
L 114.414545 306.131872 
L 122.530909 307.044004 
L 130.647273 292.824971 
L 138.763636 306.991199 
L 146.88 292.911414 
L 154.996364 306.994479 
L 163.112727 292.931619 
L 171.229091 175.931903 
L 179.345455 304.984256 
L 187.461818 290.327983 
L 195.578182 288.032142 
L 203.694545 306.466315 
L 211.810909 292.238159 
L 219.927273 289.423193 
L 228.043636 288.487325 
L 236.16 287.999014 
L 244.276364 306.477854 
L 252.392727 292.29208 
L 260.509091 289.465263 
L 268.625455 288.515993 
L 276.741818 288.018057 
L 284.858182 306.478801 
L 292.974545 292.295704 
L 301.090909 289.468074 
L 309.207273 288.517907 
L 317.323636 288.019329 
L 325.44 180.45512 
L 333.556364 303.771517 
L 341.672727 289.368008 
L 349.789091 287.376341 
L 357.905455 287.115332 
L 366.021818 287.090754 
L 374.138182 287.095235 
L 382.254545 287.101093 
L 390.370909 287.105365 
" clip-path="url(#p908c0ceee9)" style="fill: none; stroke: #add8e6; stroke-opacity: 0.3; stroke-width: 1.5; stroke-linecap: square"/>
   </g>
   <g id="line2d_23">
    <path d="M 73.832727 267.6672 
L 81.949091 307.253892 
L 90.065455 307.369661 
L 98.181818 307.379215 
L 106.298182 307.384582 
L 114.414545 177.157248 
L 122.530909 306.069548 
L 130.647273 307.039402 
L 138.763636 292.834773 
L 146.88 289.847473 
L 154.996364 306.94307 
L 163.112727 292.721111 
L 171.229091 172.161084 
L 179.345455 304.867267 
L 187.461818 290.190495 
L 195.578182 287.932974 
L 203.694545 287.484558 
L 211.810909 287.334647 
L 219.927273 287.256196 
L 228.043636 287.207302 
L 236.16 287.175443 
L 244.276364 287.154479 
L 252.392727 287.140655 
L 260.509091 287.131535 
L 268.625455 287.125517 
L 276.741818 287.121547 
L 284.858182 287.118927 
L 292.974545 287.117199 
L 301.090909 287.116058 
L 309.207273 287.115306 
L 317.323636 287.114809 
L 325.44 287.114482 
L 333.556364 287.114265 
L 341.672727 287.114123 
L 349.789091 287.114029 
L 357.905455 287.113967 
L 366.021818 287.113926 
L 374.138182 287.113899 
L 382.254545 287.113881 
L 390.370909 287.113869 
" clip-path="url(#p908c0ceee9)" style="fill: none; stroke: #add8e6; stroke-opacity: 0.3; stroke-width: 1.5; stroke-linecap: square"/>
   </g>
   <g id="line2d_24">
    <path d="M 73.832727 267.6672 
L 81.949091 307.253892 
L 90.065455 307.369661 
L 98.181818 307.379215 
L 106.298182 307.384582 
L 114.414545 177.157248 
L 122.530909 306.069548 
L 130.647273 307.039402 
L 138.763636 292.834773 
L 146.88 289.847473 
L 154.996364 172.426559 
L 163.112727 304.805564 
L 171.229091 289.944384 
L 179.345455 287.741793 
L 187.461818 287.354379 
L 195.578182 287.248187 
L 203.694545 287.19907 
L 211.810909 287.169598 
L 219.927273 287.150565 
L 228.043636 287.138064 
L 236.16 287.129824 
L 244.276364 287.124388 
L 252.392727 287.120802 
L 260.509091 287.118436 
L 268.625455 287.116874 
L 276.741818 287.115844 
L 284.858182 287.115164 
L 292.974545 287.114716 
L 301.090909 287.11442 
L 309.207273 287.114225 
L 317.323636 287.114096 
L 325.44 287.114011 
L 333.556364 287.113955 
L 341.672727 287.113918 
L 349.789091 287.113894 
L 357.905455 287.113877 
L 366.021818 287.113867 
L 374.138182 287.11386 
L 382.254545 287.113855 
L 390.370909 287.113852 
" clip-path="url(#p908c0ceee9)" style="fill: none; stroke: #add8e6; stroke-opacity: 0.3; stroke-width: 1.5; stroke-linecap: square"/>
   </g>
   <g id="line2d_25">
    <path d="M 73.832727 267.6672 
L 81.949091 307.253892 
L 90.065455 307.369661 
L 98.181818 307.379215 
L 106.298182 307.384582 
L 114.414545 307.388422 
L 122.530909 307.391479 
L 130.647273 166.279606 
L 138.763636 305.957533 
L 146.88 291.238614 
L 154.996364 171.409022 
L 163.112727 304.670248 
L 171.229091 289.73065 
L 179.345455 287.583322 
L 187.461818 287.247373 
L 195.578182 287.177241 
L 203.694545 287.152211 
L 211.810909 287.138674 
L 219.927273 287.13016 
L 228.043636 287.1246 
L 236.16 287.12094 
L 244.276364 287.118527 
L 252.392727 287.116934 
L 260.509091 287.115884 
L 268.625455 287.115191 
L 276.741818 287.114733 
L 284.858182 287.114431 
L 292.974545 287.114232 
L 301.090909 287.114101 
L 309.207273 287.114014 
L 317.323636 287.113957 
L 325.44 287.113919 
L 333.556364 287.113894 
L 341.672727 287.113878 
L 349.789091 287.113867 
L 357.905455 287.11386 
L 366.021818 287.113855 
L 374.138182 287.113852 
L 382.254545 287.11385 
L 390.370909 287.113849 
" clip-path="url(#p908c0ceee9)" style="fill: none; stroke: #add8e6; stroke-opacity: 0.3; stroke-width: 1.5; stroke-linecap: square"/>
   </g>
   <g id="line2d_26">
    <path d="M 73.832727 267.6672 
L 81.949091 307.253892 
L 90.065455 198.320593 
L 98.181818 306.247253 
L 106.298182 218.513399 
L 114.414545 305.570088 
L 122.530909 306.670021 
L 130.647273 292.223635 
L 138.763636 289.392731 
L 146.88 288.464298 
L 154.996364 306.513809 
L 163.112727 292.104014 
L 171.229091 289.311484 
L 179.345455 288.410366 
L 187.461818 203.270154 
L 195.578182 304.585248 
L 203.694545 289.956015 
L 211.810909 287.771476 
L 219.927273 287.37705 
L 228.043636 287.263578 
L 236.16 287.209285 
L 244.276364 287.176347 
L 252.392727 287.155019 
L 260.509091 287.141003 
L 268.625455 287.131763 
L 276.741818 287.125668 
L 284.858182 287.121646 
L 292.974545 287.118993 
L 301.090909 287.117242 
L 309.207273 287.116087 
L 317.323636 287.115324 
L 325.44 287.114822 
L 333.556364 287.11449 
L 341.672727 287.114271 
L 349.789091 287.114126 
L 357.905455 287.114031 
L 366.021818 287.113968 
L 374.138182 287.113927 
L 382.254545 287.113899 
L 390.370909 287.113881 
" clip-path="url(#p908c0ceee9)" style="fill: none; stroke: #add8e6; stroke-opacity: 0.3; stroke-width: 1.5; stroke-linecap: square"/>
   </g>
   <g id="line2d_27">
    <path d="M 73.832727 267.6672 
L 81.949091 307.253892 
L 90.065455 307.369661 
L 98.181818 307.379215 
L 106.298182 183.571284 
L 114.414545 151.451961 
L 122.530909 305.517322 
L 130.647273 214.025712 
L 138.763636 305.221439 
L 146.88 289.970338 
L 154.996364 287.724087 
L 163.112727 287.337813 
L 171.229091 287.236573 
L 179.345455 287.19131 
L 187.461818 287.164465 
L 195.578182 287.147176 
L 203.694545 287.135828 
L 211.810909 287.128348 
L 219.927273 287.123415 
L 228.043636 287.12016 
L 236.16 287.118012 
L 244.276364 287.116595 
L 252.392727 287.11566 
L 260.509091 287.115043 
L 268.625455 287.114636 
L 276.741818 287.114367 
L 284.858182 287.11419 
L 292.974545 287.114073 
L 301.090909 287.113996 
L 309.207273 287.113945 
L 317.323636 287.113911 
L 325.44 287.113889 
L 333.556364 287.113875 
L 341.672727 287.113865 
L 349.789091 287.113858 
L 357.905455 287.113854 
L 366.021818 287.113852 
L 374.138182 287.11385 
L 382.254545 287.113848 
L 390.370909 287.113848 
" clip-path="url(#p908c0ceee9)" style="fill: none; stroke: #add8e6; stroke-opacity: 0.3; stroke-width: 1.5; stroke-linecap: square"/>
   </g>
   <g id="line2d_28">
    <path d="M 73.832727 267.6672 
L 81.949091 307.253892 
L 90.065455 307.369661 
L 98.181818 307.379215 
L 106.298182 307.384582 
L 114.414545 307.388422 
L 122.530909 307.391479 
L 130.647273 166.279606 
L 138.763636 305.957533 
L 146.88 291.238614 
L 154.996364 306.923536 
L 163.112727 292.668291 
L 171.229091 289.725006 
L 179.345455 169.833504 
L 187.461818 304.673326 
L 195.578182 289.848858 
L 203.694545 287.677604 
L 211.810909 287.311864 
L 219.927273 287.220112 
L 228.043636 287.180543 
L 236.16 287.157374 
L 244.276364 287.142499 
L 252.392727 287.132742 
L 260.509091 287.126312 
L 268.625455 287.122071 
L 276.741818 287.119273 
L 284.858182 287.117427 
L 292.974545 287.116209 
L 301.090909 287.115405 
L 309.207273 287.114875 
L 317.323636 287.114525 
L 325.44 287.114294 
L 333.556364 287.114142 
L 341.672727 287.114041 
L 349.789091 287.113975 
L 357.905455 287.113931 
L 366.021818 287.113902 
L 374.138182 287.113883 
L 382.254545 287.113871 
L 390.370909 287.113862 
" clip-path="url(#p908c0ceee9)" style="fill: none; stroke: #add8e6; stroke-opacity: 0.3; stroke-width: 1.5; stroke-linecap: square"/>
   </g>
   <g id="line2d_29">
    <path d="M 73.832727 267.6672 
L 81.949091 307.253892 
L 90.065455 307.369661 
L 98.181818 307.379215 
L 106.298182 307.384582 
L 114.414545 307.388422 
L 122.530909 307.391479 
L 130.647273 307.394025 
L 138.763636 161.677076 
L 146.88 305.90855 
L 154.996364 291.190832 
L 163.112727 288.636925 
L 171.229091 306.891649 
L 179.345455 292.573285 
L 187.461818 289.651951 
L 195.578182 288.639332 
L 203.694545 306.898987 
L 211.810909 292.620112 
L 219.927273 289.688733 
L 228.043636 288.664426 
L 236.16 288.116133 
L 244.276364 175.16544 
L 252.392727 155.643203 
L 260.509091 156.594933 
L 268.625455 160.338628 
L 276.741818 164.65527 
L 284.858182 169.133054 
L 292.974545 173.613112 
L 301.090909 178.003149 
L 309.207273 182.242673 
L 317.323636 305.439709 
L 325.44 289.168698 
L 333.556364 287.062586 
L 341.672727 286.882764 
L 349.789091 286.933722 
L 357.905455 286.991122 
L 366.021818 287.032328 
L 374.138182 287.059984 
L 382.254545 287.078297 
L 390.370909 287.090389 
" clip-path="url(#p908c0ceee9)" style="fill: none; stroke: #add8e6; stroke-opacity: 0.3; stroke-width: 1.5; stroke-linecap: square"/>
   </g>
   <g id="line2d_30">
    <path d="M 73.832727 267.6672 
L 81.949091 307.253892 
L 90.065455 307.369661 
L 98.181818 307.379215 
L 106.298182 183.571284 
L 114.414545 306.131872 
L 122.530909 307.044004 
L 130.647273 292.824971 
L 138.763636 306.991199 
L 146.88 292.911414 
L 154.996364 306.994479 
L 163.112727 292.931619 
L 171.229091 306.995178 
L 179.345455 292.935864 
L 187.461818 306.995325 
L 195.578182 292.936755 
L 203.694545 306.995355 
L 211.810909 292.936942 
L 219.927273 306.995362 
L 228.043636 292.936982 
L 236.16 289.933314 
L 244.276364 184.614599 
L 252.392727 160.462848 
L 260.509091 160.147413 
L 268.625455 304.557585 
L 276.741818 289.12595 
L 284.858182 287.109983 
L 292.974545 286.924636 
L 301.090909 286.962836 
L 309.207273 287.01054 
L 317.323636 287.045169 
L 325.44 287.068461 
L 333.556364 287.08389 
L 341.672727 287.09408 
L 349.789091 287.100804 
L 357.905455 287.105241 
L 366.021818 287.108168 
L 374.138182 287.1101 
L 382.254545 287.111374 
L 390.370909 287.112215 
" clip-path="url(#p908c0ceee9)" style="fill: none; stroke: #add8e6; stroke-opacity: 0.3; stroke-width: 1.5; stroke-linecap: square"/>
   </g>
   <g id="line2d_31">
    <path d="M 73.832727 267.6672 
L 81.949091 307.253892 
L 90.065455 307.369661 
L 98.181818 307.379215 
L 106.298182 183.571284 
L 114.414545 151.451961 
L 122.530909 305.517322 
L 130.647273 306.920431 
L 138.763636 292.345509 
L 146.88 289.467067 
L 154.996364 306.861388 
L 163.112727 292.546867 
L 171.229091 289.633615 
L 179.345455 306.867183 
L 187.461818 292.579149 
L 195.578182 289.658905 
L 203.694545 306.868052 
L 211.810909 292.583985 
L 219.927273 289.662693 
L 228.043636 306.868183 
L 236.16 292.584708 
L 244.276364 289.66326 
L 252.392727 306.868202 
L 260.509091 292.584817 
L 268.625455 289.663345 
L 276.741818 185.41587 
L 284.858182 161.777529 
L 292.974545 161.532292 
L 301.090909 165.077586 
L 309.207273 304.674732 
L 317.323636 289.036743 
L 325.44 287.027782 
L 333.556364 286.867127 
L 341.672727 286.924432 
L 349.789091 286.985136 
L 357.905455 287.028399 
L 366.021818 287.057394 
L 374.138182 287.076588 
L 382.254545 287.089262 
L 390.370909 287.097625 
" clip-path="url(#p908c0ceee9)" style="fill: none; stroke: #add8e6; stroke-opacity: 0.3; stroke-width: 1.5; stroke-linecap: square"/>
   </g>
   <g id="line2d_32">
    <path d="M 73.832727 267.6672 
L 81.949091 307.253892 
L 90.065455 198.320593 
L 98.181818 306.247253 
L 106.298182 307.048507 
L 114.414545 307.120558 
L 122.530909 293.196072 
L 130.647273 307.026393 
L 138.763636 292.964792 
L 146.88 307.018986 
L 154.996364 292.917161 
L 163.112727 307.017406 
L 171.229091 292.906947 
L 179.345455 307.017067 
L 187.461818 292.904755 
L 195.578182 179.850758 
L 203.694545 305.149233 
L 211.810909 290.410155 
L 219.927273 306.539439 
L 228.043636 292.284763 
L 236.16 289.453712 
L 244.276364 182.944034 
L 252.392727 161.00813 
L 260.509091 161.476779 
L 268.625455 303.551035 
L 276.741818 288.727288 
L 284.858182 286.88416 
L 292.974545 286.780854 
L 301.090909 286.868698 
L 309.207273 286.94853 
L 317.323636 287.004269 
L 325.44 287.041476 
L 333.556364 287.066086 
L 341.672727 287.082332 
L 349.789091 287.093053 
L 357.905455 287.100127 
L 366.021818 287.104794 
L 374.138182 287.107873 
L 382.254545 287.109905 
L 390.370909 287.111246 
" clip-path="url(#p908c0ceee9)" style="fill: none; stroke: #add8e6; stroke-opacity: 0.3; stroke-width: 1.5; stroke-linecap: square"/>
   </g>
   <g id="line2d_33">
    <path d="M 73.832727 267.6672 
L 81.949091 307.253892 
L 90.065455 198.320593 
L 98.181818 306.247253 
L 106.298182 307.048507 
L 114.414545 307.120558 
L 122.530909 293.196072 
L 130.647273 307.026393 
L 138.763636 292.964792 
L 146.88 307.018986 
L 154.996364 292.917161 
L 163.112727 307.017406 
L 171.229091 292.906947 
L 179.345455 307.017067 
L 187.461818 292.904755 
L 195.578182 179.850758 
L 203.694545 305.149233 
L 211.810909 290.410155 
L 219.927273 306.539439 
L 228.043636 292.284763 
L 236.16 289.453712 
L 244.276364 182.944034 
L 252.392727 161.00813 
L 260.509091 161.476779 
L 268.625455 165.291466 
L 276.741818 169.613698 
L 284.858182 173.991467 
L 292.974545 178.306779 
L 301.090909 182.501313 
L 309.207273 186.536463 
L 317.323636 190.385727 
L 325.44 194.032159 
L 333.556364 304.898817 
L 341.672727 288.761025 
L 349.789091 286.786479 
L 357.905455 286.699589 
L 366.021818 286.812722 
L 374.138182 286.911265 
L 382.254545 286.979635 
L 390.370909 287.025216 
" clip-path="url(#p908c0ceee9)" style="fill: none; stroke: #add8e6; stroke-opacity: 0.3; stroke-width: 1.5; stroke-linecap: square"/>
   </g>
   <g id="line2d_34">
    <path d="M 73.832727 267.6672 
L 81.949091 307.253892 
L 90.065455 307.369661 
L 98.181818 190.69953 
L 106.298182 306.195035 
L 114.414545 307.04797 
L 122.530909 292.805643 
L 130.647273 180.615193 
L 138.763636 305.091068 
L 146.88 290.368955 
L 154.996364 306.512777 
L 163.112727 292.272676 
L 171.229091 289.446509 
L 179.345455 306.549447 
L 187.461818 292.480939 
L 195.578182 289.609728 
L 203.694545 306.557474 
L 211.810909 292.512869 
L 219.927273 289.634529 
L 228.043636 306.558689 
L 236.16 292.517701 
L 244.276364 289.638282 
L 252.392727 183.424491 
L 260.509091 161.478912 
L 268.625455 303.315827 
L 276.741818 288.834217 
L 284.858182 286.991459 
L 292.974545 286.856802 
L 301.090909 286.919532 
L 309.207273 286.982171 
L 317.323636 287.02648 
L 325.44 287.056133 
L 333.556364 287.075757 
L 341.672727 287.088714 
L 349.789091 287.097263 
L 357.905455 287.102905 
L 366.021818 287.106627 
L 374.138182 287.109083 
L 382.254545 287.110703 
L 390.370909 287.111772 
" clip-path="url(#p908c0ceee9)" style="fill: none; stroke: #add8e6; stroke-opacity: 0.3; stroke-width: 1.5; stroke-linecap: square"/>
   </g>
   <g id="line2d_35">
    <path d="M 73.832727 267.6672 
L 81.949091 307.253892 
L 90.065455 307.369661 
L 98.181818 307.379215 
L 106.298182 183.571284 
L 114.414545 151.451961 
L 122.530909 305.517322 
L 130.647273 306.920431 
L 138.763636 292.345509 
L 146.88 289.467067 
L 154.996364 306.861388 
L 163.112727 292.546867 
L 171.229091 289.633615 
L 179.345455 306.867183 
L 187.461818 292.579149 
L 195.578182 289.658905 
L 203.694545 306.868052 
L 211.810909 292.583985 
L 219.927273 289.662693 
L 228.043636 306.868183 
L 236.16 292.584708 
L 244.276364 289.66326 
L 252.392727 306.868202 
L 260.509091 292.584817 
L 268.625455 289.663345 
L 276.741818 185.41587 
L 284.858182 304.957812 
L 292.974545 290.082784 
L 301.090909 287.838429 
L 309.207273 287.418886 
L 317.323636 287.290854 
L 325.44 287.227236 
L 333.556364 287.188185 
L 341.672727 287.162829 
L 349.789091 287.146156 
L 357.905455 287.135163 
L 366.021818 287.127911 
L 374.138182 287.123126 
L 382.254545 287.119969 
L 390.370909 287.117886 
" clip-path="url(#p908c0ceee9)" style="fill: none; stroke: #add8e6; stroke-opacity: 0.3; stroke-width: 1.5; stroke-linecap: square"/>
   </g>
   <g id="line2d_36">
    <path d="M 73.832727 94.6944 
L 81.949091 51.385877 
L 90.065455 49.04194 
L 98.181818 48.319384 
L 106.298182 48.02907 
L 114.414545 221.557095 
L 122.530909 271.998997 
L 130.647273 81.8675 
L 138.763636 59.973055 
L 146.88 81.599576 
L 154.996364 89.825273 
L 163.112727 94.405378 
L 171.229091 244.287623 
L 179.345455 84.758191 
L 187.461818 99.031387 
L 195.578182 101.478097 
L 203.694545 102.115194 
L 211.810909 102.398551 
L 219.927273 102.566306 
L 228.043636 102.674299 
L 236.16 102.745176 
L 244.276364 102.791888 
L 252.392727 102.822702 
L 260.509091 102.843032 
L 268.625455 102.856445 
L 276.741818 102.865296 
L 284.858182 102.871136 
L 292.974545 102.874989 
L 301.090909 102.877531 
L 309.207273 102.879208 
L 317.323636 102.880315 
L 325.44 102.881045 
L 333.556364 102.881527 
L 341.672727 102.881845 
L 349.789091 102.882055 
L 357.905455 102.882193 
L 366.021818 102.882284 
L 374.138182 102.882345 
L 382.254545 102.882384 
L 390.370909 102.882411 
" clip-path="url(#p908c0ceee9)" style="fill: none; stroke: #ff0000; stroke-opacity: 0.1; stroke-width: 1.5; stroke-linecap: square"/>
   </g>
   <g id="line2d_37">
    <path d="M 73.832727 94.6944 
L 81.949091 51.385877 
L 90.065455 49.04194 
L 98.181818 48.319384 
L 106.298182 48.02907 
L 114.414545 47.870549 
L 122.530909 47.761577 
L 130.647273 47.677792 
L 138.763636 47.610468 
L 146.88 47.555462 
L 154.996364 47.510247 
L 163.112727 47.473039 
L 171.229091 72.483369 
L 179.345455 50.559871 
L 187.461818 48.176413 
L 195.578182 73.008589 
L 203.694545 50.662183 
L 211.810909 48.195022 
L 219.927273 73.022998 
L 228.043636 50.657505 
L 236.16 74.84495 
L 244.276364 294.290806 
L 252.392727 304.145483 
L 260.509091 304.410556 
L 268.625455 304.52721 
L 276.741818 304.649146 
L 284.858182 304.774425 
L 292.974545 304.900045 
L 301.090909 305.023725 
L 309.207273 305.143658 
L 317.323636 305.258428 
L 325.44 80.460424 
L 333.556364 285.105973 
L 341.672727 82.320622 
L 349.789091 97.918461 
L 357.905455 100.813231 
L 366.021818 101.686247 
L 374.138182 102.116894 
L 382.254545 102.380657 
L 390.370909 102.551833 
" clip-path="url(#p908c0ceee9)" style="fill: none; stroke: #ff0000; stroke-opacity: 0.1; stroke-width: 1.5; stroke-linecap: square"/>
   </g>
   <g id="line2d_38">
    <path d="M 73.832727 94.6944 
L 81.949091 51.385877 
L 90.065455 49.04194 
L 98.181818 204.680899 
L 106.298182 257.119103 
L 114.414545 81.707434 
L 122.530909 61.048136 
L 130.647273 82.394818 
L 138.763636 57.111776 
L 146.88 79.433067 
L 154.996364 218.880767 
L 163.112727 78.391316 
L 171.229091 94.432084 
L 179.345455 98.387591 
L 187.461818 100.068225 
L 195.578182 62.888707 
L 203.694545 83.500203 
L 211.810909 91.076077 
L 219.927273 95.230213 
L 228.043636 97.852753 
L 236.16 99.566528 
L 244.276364 62.711072 
L 252.392727 83.369282 
L 260.509091 90.987772 
L 268.625455 95.171679 
L 276.741818 97.814094 
L 284.858182 99.541015 
L 292.974545 62.702689 
L 301.090909 83.363114 
L 309.207273 90.983612 
L 317.323636 95.168922 
L 325.44 97.812273 
L 333.556364 99.539813 
L 341.672727 231.804931 
L 349.789091 265.281761 
L 357.905455 95.163285 
L 366.021818 106.036237 
L 374.138182 106.119506 
L 382.254545 105.180373 
L 390.370909 104.421364 
" clip-path="url(#p908c0ceee9)" style="fill: none; stroke: #ff0000; stroke-opacity: 0.1; stroke-width: 1.5; stroke-linecap: square"/>
   </g>
   <g id="line2d_39">
    <path d="M 73.832727 94.6944 
L 81.949091 51.385877 
L 90.065455 49.04194 
L 98.181818 48.319384 
L 106.298182 213.341884 
L 114.414545 69.483816 
L 122.530909 55.736296 
L 130.647273 78.484424 
L 138.763636 54.845455 
L 146.88 77.787251 
L 154.996364 54.645054 
L 163.112727 77.638754 
L 171.229091 54.60295 
L 179.345455 77.607561 
L 187.461818 54.594109 
L 195.578182 77.601011 
L 203.694545 239.565762 
L 211.810909 277.112379 
L 219.927273 88.817692 
L 228.043636 101.850473 
L 236.16 103.357862 
L 244.276364 103.358241 
L 252.392727 103.21911 
L 260.509091 103.107771 
L 268.625455 103.031569 
L 276.741818 102.980906 
L 284.858182 102.947425 
L 292.974545 102.925326 
L 301.090909 102.910744 
L 309.207273 102.901123 
L 317.323636 102.894774 
L 325.44 102.890586 
L 333.556364 102.887822 
L 341.672727 102.885998 
L 349.789091 102.884795 
L 357.905455 102.884001 
L 366.021818 102.883477 
L 374.138182 102.883132 
L 382.254545 102.882904 
L 390.370909 102.882753 
" clip-path="url(#p908c0ceee9)" style="fill: none; stroke: #ff0000; stroke-opacity: 0.1; stroke-width: 1.5; stroke-linecap: square"/>
   </g>
   <g id="line2d_40">
    <path d="M 73.832727 94.6944 
L 81.949091 51.385877 
L 90.065455 49.04194 
L 98.181818 48.319384 
L 106.298182 48.02907 
L 114.414545 47.870549 
L 122.530909 47.761577 
L 130.647273 47.677792 
L 138.763636 47.610468 
L 146.88 47.555462 
L 154.996364 251.685272 
L 163.112727 72.284172 
L 171.229091 90.224126 
L 179.345455 95.586135 
L 187.461818 98.216296 
L 195.578182 99.82444 
L 203.694545 100.867664 
L 211.810909 101.553491 
L 219.927273 59.479357 
L 228.043636 81.188932 
L 236.16 89.542425 
L 244.276364 94.217084 
L 252.392727 97.184113 
L 260.509091 99.12533 
L 268.625455 100.403854 
L 276.741818 101.24711 
L 284.858182 273.590481 
L 292.974545 294.485616 
L 301.090909 295.851988 
L 309.207273 296.157652 
L 317.323636 90.709201 
L 325.44 103.421472 
L 333.556364 104.439697 
L 341.672727 104.078391 
L 349.789091 103.695161 
L 357.905455 103.421998 
L 366.021818 103.238916 
L 374.138182 103.117718 
L 382.254545 103.037695 
L 390.370909 102.984887 
" clip-path="url(#p908c0ceee9)" style="fill: none; stroke: #ff0000; stroke-opacity: 0.1; stroke-width: 1.5; stroke-linecap: square"/>
   </g>
   <g id="line2d_41">
    <path d="M 73.832727 94.6944 
L 81.949091 51.385877 
L 90.065455 197.129724 
L 98.181818 69.460727 
L 106.298182 56.411311 
L 114.414545 180.221655 
L 122.530909 71.967908 
L 130.647273 89.903062 
L 138.763636 95.358538 
L 146.88 62.986376 
L 154.996364 83.61889 
L 163.112727 91.161992 
L 171.229091 95.287966 
L 179.345455 62.880492 
L 187.461818 83.539594 
L 195.578182 91.10835 
L 203.694545 95.252387 
L 211.810909 62.868104 
L 219.927273 83.530458 
L 228.043636 91.102187 
L 236.16 95.248302 
L 244.276364 209.71773 
L 252.392727 244.936281 
L 260.509091 251.762793 
L 268.625455 252.169609 
L 276.741818 251.311996 
L 284.858182 250.266438 
L 292.974545 95.025056 
L 301.090909 106.487529 
L 309.207273 106.493326 
L 317.323636 105.437684 
L 325.44 104.592635 
L 333.556364 104.014242 
L 341.672727 103.629695 
L 349.789091 103.375558 
L 357.905455 103.20782 
L 366.021818 103.097137 
L 374.138182 103.024106 
L 382.254545 102.97592 
L 390.370909 102.944126 
" clip-path="url(#p908c0ceee9)" style="fill: none; stroke: #ff0000; stroke-opacity: 0.1; stroke-width: 1.5; stroke-linecap: square"/>
   </g>
   <g id="line2d_42">
    <path d="M 73.832727 94.6944 
L 81.949091 51.385877 
L 90.065455 49.04194 
L 98.181818 48.319384 
L 106.298182 213.341884 
L 114.414545 69.483816 
L 122.530909 55.736296 
L 130.647273 78.484424 
L 138.763636 54.845455 
L 146.88 77.787251 
L 154.996364 54.645054 
L 163.112727 77.638754 
L 171.229091 239.592301 
L 179.345455 79.676301 
L 187.461818 95.306567 
L 195.578182 98.968316 
L 203.694545 61.315568 
L 211.810909 82.351149 
L 219.927273 90.302349 
L 228.043636 94.717518 
L 236.16 97.514167 
L 244.276364 60.782126 
L 252.392727 81.957414 
L 260.509091 90.036704 
L 268.625455 94.541423 
L 276.741818 97.397863 
L 284.858182 60.746359 
L 292.974545 81.93111 
L 301.090909 90.01897 
L 309.207273 94.529668 
L 317.323636 97.3901 
L 325.44 249.263167 
L 333.556364 88.66968 
L 341.672727 101.384594 
L 349.789091 102.99885 
L 357.905455 103.114125 
L 366.021818 103.057026 
L 374.138182 103.000685 
L 382.254545 102.960893 
L 390.370909 102.934271 
" clip-path="url(#p908c0ceee9)" style="fill: none; stroke: #ff0000; stroke-opacity: 0.1; stroke-width: 1.5; stroke-linecap: square"/>
   </g>
   <g id="line2d_43">
    <path d="M 73.832727 94.6944 
L 81.949091 51.385877 
L 90.065455 49.04194 
L 98.181818 48.319384 
L 106.298182 48.02907 
L 114.414545 221.557095 
L 122.530909 70.019238 
L 130.647273 55.635975 
L 138.763636 78.406652 
L 146.88 87.672114 
L 154.996364 56.724429 
L 163.112727 79.17001 
L 171.229091 246.608285 
L 179.345455 80.992681 
L 187.461818 96.229508 
L 195.578182 99.584903 
L 203.694545 100.859813 
L 211.810909 101.569367 
L 219.927273 102.019081 
L 228.043636 102.313218 
L 236.16 102.50693 
L 244.276364 102.634691 
L 252.392727 102.718982 
L 260.509091 102.774597 
L 268.625455 102.811291 
L 276.741818 102.835503 
L 284.858182 102.851478 
L 292.974545 102.862018 
L 301.090909 102.868973 
L 309.207273 102.873562 
L 317.323636 102.876589 
L 325.44 102.878587 
L 333.556364 102.879905 
L 341.672727 102.880775 
L 349.789091 102.881349 
L 357.905455 102.881727 
L 366.021818 102.881977 
L 374.138182 102.882142 
L 382.254545 102.882251 
L 390.370909 102.882322 
" clip-path="url(#p908c0ceee9)" style="fill: none; stroke: #ff0000; stroke-opacity: 0.1; stroke-width: 1.5; stroke-linecap: square"/>
   </g>
   <g id="line2d_44">
    <path d="M 73.832727 94.6944 
L 81.949091 51.385877 
L 90.065455 49.04194 
L 98.181818 48.319384 
L 106.298182 48.02907 
L 114.414545 221.557095 
L 122.530909 70.019238 
L 130.647273 55.635975 
L 138.763636 78.406652 
L 146.88 87.672114 
L 154.996364 251.202972 
L 163.112727 83.422941 
L 171.229091 98.018266 
L 179.345455 100.791111 
L 187.461818 101.659319 
L 195.578182 102.097397 
L 203.694545 102.367551 
L 211.810909 102.543151 
L 219.927273 102.658643 
L 228.043636 102.734793 
L 236.16 102.78503 
L 244.276364 102.818175 
L 252.392727 102.840045 
L 260.509091 102.854475 
L 268.625455 102.863996 
L 276.741818 102.870278 
L 284.858182 102.874423 
L 292.974545 102.877157 
L 301.090909 102.878962 
L 309.207273 102.880152 
L 317.323636 102.880938 
L 325.44 102.881456 
L 333.556364 102.881798 
L 341.672727 102.882024 
L 349.789091 102.882173 
L 357.905455 102.882271 
L 366.021818 102.882336 
L 374.138182 102.882379 
L 382.254545 102.882407 
L 390.370909 102.882425 
" clip-path="url(#p908c0ceee9)" style="fill: none; stroke: #ff0000; stroke-opacity: 0.1; stroke-width: 1.5; stroke-linecap: square"/>
   </g>
   <g id="line2d_45">
    <path d="M 73.832727 94.6944 
L 81.949091 51.385877 
L 90.065455 49.04194 
L 98.181818 48.319384 
L 106.298182 48.02907 
L 114.414545 47.870549 
L 122.530909 47.761577 
L 130.647273 235.666886 
L 138.763636 71.056631 
L 146.88 89.377117 
L 154.996364 258.011724 
L 163.112727 85.492619 
L 171.229091 99.496101 
L 179.345455 101.781933 
L 187.461818 102.315277 
L 195.578182 102.530513 
L 203.694545 102.653367 
L 211.810909 102.731741 
L 219.927273 102.783077 
L 228.043636 102.816895 
L 236.16 102.839202 
L 244.276364 102.853918 
L 252.392727 102.863629 
L 260.509091 102.870035 
L 268.625455 102.874263 
L 276.741818 102.877052 
L 284.858182 102.878892 
L 292.974545 102.880106 
L 301.090909 102.880908 
L 309.207273 102.881436 
L 317.323636 102.881785 
L 325.44 102.882015 
L 333.556364 102.882167 
L 341.672727 102.882267 
L 349.789091 102.882333 
L 357.905455 102.882377 
L 366.021818 102.882406 
L 374.138182 102.882425 
L 382.254545 102.882437 
L 390.370909 102.882446 
" clip-path="url(#p908c0ceee9)" style="fill: none; stroke: #ff0000; stroke-opacity: 0.1; stroke-width: 1.5; stroke-linecap: square"/>
   </g>
   <g id="line2d_46">
    <path d="M 73.832727 94.6944 
L 81.949091 51.385877 
L 90.065455 197.129724 
L 98.181818 69.460727 
L 106.298182 186.670172 
L 114.414545 77.131108 
L 122.530909 61.562665 
L 130.647273 82.64851 
L 138.763636 90.517382 
L 146.88 94.862038 
L 154.996364 62.680763 
L 163.112727 83.401167 
L 171.229091 91.016083 
L 179.345455 95.191379 
L 187.461818 210.558883 
L 195.578182 83.196477 
L 203.694545 97.727245 
L 211.810909 100.579241 
L 219.927273 101.516743 
L 228.043636 102.002935 
L 236.16 102.305169 
L 244.276364 102.501984 
L 252.392727 102.631479 
L 260.509091 102.71687 
L 268.625455 102.773204 
L 276.741818 102.810373 
L 284.858182 102.834897 
L 292.974545 102.851078 
L 301.090909 102.861754 
L 309.207273 102.868799 
L 317.323636 102.873447 
L 325.44 102.876514 
L 333.556364 102.878537 
L 341.672727 102.879872 
L 349.789091 102.880753 
L 357.905455 102.881334 
L 366.021818 102.881718 
L 374.138182 102.881971 
L 382.254545 102.882138 
L 390.370909 102.882248 
" clip-path="url(#p908c0ceee9)" style="fill: none; stroke: #ff0000; stroke-opacity: 0.1; stroke-width: 1.5; stroke-linecap: square"/>
   </g>
   <g id="line2d_47">
    <path d="M 73.832727 94.6944 
L 81.949091 51.385877 
L 90.065455 49.04194 
L 98.181818 48.319384 
L 106.298182 213.341884 
L 114.414545 265.268534 
L 122.530909 81.792757 
L 130.647273 205.418333 
L 138.763636 83.371343 
L 146.88 98.208299 
L 154.996364 100.94791 
L 163.112727 101.76718 
L 171.229091 102.169182 
L 179.345455 102.415002 
L 187.461818 102.574472 
L 195.578182 102.67931 
L 203.694545 102.748429 
L 211.810909 102.794027 
L 219.927273 102.824112 
L 228.043636 102.843962 
L 236.16 102.857059 
L 244.276364 102.865701 
L 252.392727 102.871403 
L 260.509091 102.875165 
L 268.625455 102.877647 
L 276.741818 102.879285 
L 284.858182 102.880366 
L 292.974545 102.881079 
L 301.090909 102.881549 
L 309.207273 102.881859 
L 317.323636 102.882064 
L 325.44 102.882199 
L 333.556364 102.882289 
L 341.672727 102.882347 
L 349.789091 102.882386 
L 357.905455 102.882412 
L 366.021818 102.882429 
L 374.138182 102.88244 
L 382.254545 102.882447 
L 390.370909 102.882452 
" clip-path="url(#p908c0ceee9)" style="fill: none; stroke: #ff0000; stroke-opacity: 0.1; stroke-width: 1.5; stroke-linecap: square"/>
   </g>
   <g id="line2d_48">
    <path d="M 73.832727 94.6944 
L 81.949091 51.385877 
L 90.065455 49.04194 
L 98.181818 48.319384 
L 106.298182 48.02907 
L 114.414545 47.870549 
L 122.530909 47.761577 
L 130.647273 235.666886 
L 138.763636 71.056631 
L 146.88 89.377117 
L 154.996364 57.242855 
L 163.112727 79.548087 
L 171.229091 88.436625 
L 179.345455 257.026283 
L 187.461818 84.312085 
L 195.578182 98.612393 
L 203.694545 101.184167 
L 211.810909 101.918807 
L 219.927273 102.26863 
L 228.043636 102.480534 
L 236.16 102.617699 
L 244.276364 102.70783 
L 252.392727 102.767247 
L 260.509091 102.806443 
L 268.625455 102.832304 
L 276.741818 102.849367 
L 284.858182 102.860626 
L 292.974545 102.868054 
L 301.090909 102.872955 
L 309.207273 102.876189 
L 317.323636 102.878323 
L 325.44 102.879731 
L 333.556364 102.88066 
L 341.672727 102.881273 
L 349.789091 102.881677 
L 357.905455 102.881944 
L 366.021818 102.88212 
L 374.138182 102.882236 
L 382.254545 102.882313 
L 390.370909 102.882363 
" clip-path="url(#p908c0ceee9)" style="fill: none; stroke: #ff0000; stroke-opacity: 0.1; stroke-width: 1.5; stroke-linecap: square"/>
   </g>
   <g id="line2d_49">
    <path d="M 73.832727 94.6944 
L 81.949091 51.385877 
L 90.065455 49.04194 
L 98.181818 48.319384 
L 106.298182 48.02907 
L 114.414545 47.870549 
L 122.530909 47.761577 
L 130.647273 47.677792 
L 138.763636 241.617676 
L 146.88 71.509956 
L 154.996364 89.69017 
L 163.112727 95.230585 
L 171.229091 58.176971 
L 179.345455 80.231135 
L 187.461818 88.896658 
L 195.578182 93.789067 
L 203.694545 57.712377 
L 211.810909 79.886725 
L 219.927273 88.664105 
L 228.043636 93.634882 
L 236.16 96.799596 
L 244.276364 255.704608 
L 252.392727 284.822862 
L 260.509091 287.85029 
L 268.625455 288.373646 
L 276.741818 288.775699 
L 284.858182 289.231874 
L 292.974545 289.727448 
L 301.090909 290.240673 
L 309.207273 290.755225 
L 317.323636 91.496871 
L 325.44 104.422493 
L 333.556364 105.167654 
L 341.672727 104.568162 
L 349.789091 104.019642 
L 357.905455 103.636279 
L 366.021818 103.380326 
L 374.138182 103.211025 
L 382.254545 103.09926 
L 390.370909 103.025508 
" clip-path="url(#p908c0ceee9)" style="fill: none; stroke: #ff0000; stroke-opacity: 0.1; stroke-width: 1.5; stroke-linecap: square"/>
   </g>
   <g id="line2d_50">
    <path d="M 73.832727 94.6944 
L 81.949091 51.385877 
L 90.065455 49.04194 
L 98.181818 48.319384 
L 106.298182 213.341884 
L 114.414545 69.483816 
L 122.530909 55.736296 
L 130.647273 78.484424 
L 138.763636 54.845455 
L 146.88 77.787251 
L 154.996364 54.645054 
L 163.112727 77.638754 
L 171.229091 54.60295 
L 179.345455 77.607561 
L 187.461818 54.594109 
L 195.578182 77.601011 
L 203.694545 54.592253 
L 211.810909 77.599635 
L 219.927273 54.591863 
L 228.043636 77.599346 
L 236.16 87.12285 
L 244.276364 232.652297 
L 252.392727 269.620262 
L 260.509091 275.097208 
L 268.625455 91.483295 
L 276.741818 103.927143 
L 284.858182 104.77263 
L 292.974545 104.297963 
L 301.090909 103.840022 
L 309.207273 103.517576 
L 317.323636 103.301979 
L 325.44 103.159327 
L 333.556364 103.065149 
L 341.672727 103.003001 
L 349.789091 102.961995 
L 357.905455 102.934938 
L 366.021818 102.917086 
L 374.138182 102.905307 
L 382.254545 102.897535 
L 390.370909 102.892407 
" clip-path="url(#p908c0ceee9)" style="fill: none; stroke: #ff0000; stroke-opacity: 0.1; stroke-width: 1.5; stroke-linecap: square"/>
   </g>
   <g id="line2d_51">
    <path d="M 73.832727 94.6944 
L 81.949091 51.385877 
L 90.065455 49.04194 
L 98.181818 48.319384 
L 106.298182 213.341884 
L 114.414545 265.268534 
L 122.530909 81.792757 
L 130.647273 60.469126 
L 138.763636 81.966081 
L 146.88 90.072591 
L 154.996364 58.426024 
L 163.112727 80.401281 
L 171.229091 89.009738 
L 179.345455 58.106098 
L 187.461818 80.164524 
L 195.578182 88.849925 
L 203.694545 58.05818 
L 211.810909 80.129064 
L 219.927273 88.82599 
L 228.043636 58.051006 
L 236.16 80.123755 
L 244.276364 88.822406 
L 252.392727 58.049932 
L 260.509091 80.12296 
L 268.625455 88.82187 
L 276.741818 233.564774 
L 284.858182 269.862188 
L 292.974545 275.179721 
L 301.090909 275.803947 
L 309.207273 92.433936 
L 317.323636 104.704554 
L 325.44 105.306624 
L 333.556364 104.653248 
L 341.672727 104.074856 
L 349.789091 103.672579 
L 357.905455 103.404259 
L 366.021818 103.226814 
L 374.138182 103.109677 
L 382.254545 103.032381 
L 390.370909 102.98138 
" clip-path="url(#p908c0ceee9)" style="fill: none; stroke: #ff0000; stroke-opacity: 0.1; stroke-width: 1.5; stroke-linecap: square"/>
   </g>
   <g id="line2d_52">
    <path d="M 73.832727 94.6944 
L 81.949091 51.385877 
L 90.065455 197.129724 
L 98.181818 69.460727 
L 106.298182 56.411311 
L 114.414545 52.063559 
L 122.530909 75.771976 
L 130.647273 54.329277 
L 138.763636 77.419473 
L 146.88 54.801881 
L 154.996364 77.769853 
L 163.112727 54.903228 
L 171.229091 77.844995 
L 179.345455 54.924981 
L 187.461818 77.861123 
L 195.578182 233.541357 
L 203.694545 78.937071 
L 211.810909 94.842881 
L 219.927273 60.886089 
L 228.043636 82.069258 
L 236.16 90.116563 
L 244.276364 239.635094 
L 252.392727 274.14854 
L 260.509091 278.791313 
L 268.625455 94.966635 
L 276.741818 105.986046 
L 284.858182 106.097543 
L 292.974545 105.167445 
L 301.090909 104.413053 
L 309.207273 103.895574 
L 317.323636 103.551372 
L 325.44 103.323877 
L 333.556364 103.17372 
L 341.672727 103.074637 
L 349.789091 103.009261 
L 357.905455 102.966125 
L 366.021818 102.937663 
L 374.138182 102.918884 
L 382.254545 102.906493 
L 390.370909 102.898318 
" clip-path="url(#p908c0ceee9)" style="fill: none; stroke: #ff0000; stroke-opacity: 0.1; stroke-width: 1.5; stroke-linecap: square"/>
   </g>
   <g id="line2d_53">
    <path d="M 73.832727 94.6944 
L 81.949091 51.385877 
L 90.065455 197.129724 
L 98.181818 69.460727 
L 106.298182 56.411311 
L 114.414545 52.063559 
L 122.530909 75.771976 
L 130.647273 54.329277 
L 138.763636 77.419473 
L 146.88 54.801881 
L 154.996364 77.769853 
L 163.112727 54.903228 
L 171.229091 77.844995 
L 179.345455 54.924981 
L 187.461818 77.861123 
L 195.578182 233.541357 
L 203.694545 78.937071 
L 211.810909 94.842881 
L 219.927273 60.886089 
L 228.043636 82.069258 
L 236.16 90.116563 
L 244.276364 239.635094 
L 252.392727 274.14854 
L 260.509091 278.791313 
L 268.625455 279.359432 
L 276.741818 279.500203 
L 284.858182 279.661849 
L 292.974545 279.884213 
L 301.090909 280.157219 
L 309.207273 280.465906 
L 317.323636 280.796047 
L 325.44 281.135007 
L 333.556364 95.303161 
L 341.672727 106.97972 
L 349.789091 106.861354 
L 357.905455 105.686579 
L 366.021818 104.757708 
L 374.138182 104.123278 
L 382.254545 103.701654 
L 390.370909 103.42304 
" clip-path="url(#p908c0ceee9)" style="fill: none; stroke: #ff0000; stroke-opacity: 0.1; stroke-width: 1.5; stroke-linecap: square"/>
   </g>
   <g id="line2d_54">
    <path d="M 73.832727 94.6944 
L 81.949091 51.385877 
L 90.065455 49.04194 
L 98.181818 204.680899 
L 106.298182 69.109412 
L 114.414545 55.931556 
L 122.530909 78.633051 
L 130.647273 233.584675 
L 138.763636 79.31998 
L 146.88 95.098072 
L 154.996364 60.993631 
L 163.112727 82.135251 
L 171.229091 90.15941 
L 179.345455 58.929329 
L 187.461818 80.607193 
L 195.578182 89.127911 
L 203.694545 58.614042 
L 211.810909 80.375142 
L 219.927273 88.971435 
L 228.043636 58.566334 
L 236.16 80.340029 
L 244.276364 88.947757 
L 252.392727 238.393523 
L 260.509091 273.528345 
L 268.625455 93.779748 
L 276.741818 104.966516 
L 284.858182 105.391706 
L 292.974545 104.697082 
L 301.090909 104.102053 
L 309.207273 103.690282 
L 317.323636 103.415906 
L 325.44 103.234494 
L 333.556364 103.114744 
L 341.672727 103.035724 
L 349.789091 102.983586 
L 357.905455 102.949184 
L 366.021818 102.926486 
L 374.138182 102.911509 
L 382.254545 102.901627 
L 390.370909 102.895107 
" clip-path="url(#p908c0ceee9)" style="fill: none; stroke: #ff0000; stroke-opacity: 0.1; stroke-width: 1.5; stroke-linecap: square"/>
   </g>
   <g id="line2d_55">
    <path d="M 73.832727 94.6944 
L 81.949091 51.385877 
L 90.065455 49.04194 
L 98.181818 48.319384 
L 106.298182 213.341884 
L 114.414545 265.268534 
L 122.530909 81.792757 
L 130.647273 60.469126 
L 138.763636 81.966081 
L 146.88 90.072591 
L 154.996364 58.426024 
L 163.112727 80.401281 
L 171.229091 89.009738 
L 179.345455 58.106098 
L 187.461818 80.164524 
L 195.578182 88.849925 
L 203.694545 58.05818 
L 211.810909 80.129064 
L 219.927273 88.82599 
L 228.043636 58.051006 
L 236.16 80.123755 
L 244.276364 88.822406 
L 252.392727 58.049932 
L 260.509091 80.12296 
L 268.625455 88.82187 
L 276.741818 233.564774 
L 284.858182 82.11507 
L 292.974545 97.121099 
L 301.090909 100.194355 
L 309.207273 101.264903 
L 317.323636 101.837064 
L 325.44 102.195768 
L 333.556364 102.429806 
L 341.672727 102.583856 
L 349.789091 102.685448 
L 357.905455 102.752472 
L 366.021818 102.796693 
L 374.138182 102.825871 
L 382.254545 102.845123 
L 390.370909 102.857825 
" clip-path="url(#p908c0ceee9)" style="fill: none; stroke: #ff0000; stroke-opacity: 0.1; stroke-width: 1.5; stroke-linecap: square"/>
   </g>
   <g id="line2d_56">
    <path d="M 73.832727 267.6672 
L 81.949091 307.253892 
L 90.065455 285.559848 
L 98.181818 295.484854 
L 106.298182 258.202125 
L 114.414545 259.415932 
L 122.530909 296.585407 
L 130.647273 277.548207 
L 138.763636 293.389496 
L 146.88 295.747759 
L 154.996364 275.232574 
L 163.112727 296.46693 
L 171.229091 275.704706 
L 179.345455 291.93757 
L 187.461818 289.107102 
L 195.578182 279.983685 
L 203.694545 290.801934 
L 211.810909 284.537823 
L 219.927273 293.196438 
L 228.043636 292.577799 
L 236.16 288.948904 
L 244.276364 256.47702 
L 252.392727 245.638681 
L 260.509091 242.978493 
L 268.625455 264.749474 
L 276.741818 252.905303 
L 284.858182 253.119935 
L 292.974545 258.345128 
L 301.090909 257.550743 
L 309.207273 265.097133 
L 317.323636 278.296786 
L 325.44 278.331041 
L 333.556364 283.622545 
L 341.672727 283.500384 
L 349.789091 281.380175 
L 357.905455 287.920516 
L 366.021818 287.176883 
L 374.138182 287.089659 
L 382.254545 287.088665 
L 390.370909 287.095939 
" clip-path="url(#p908c0ceee9)" style="fill: none; stroke: #1f77b4; stroke-width: 1.5; stroke-linecap: square"/>
   </g>
   <g id="line2d_57">
    <path d="M 73.832727 94.6944 
L 81.949091 51.385877 
L 90.065455 78.659497 
L 98.181818 68.183804 
L 106.298182 117.320824 
L 114.414545 120.369997 
L 122.530909 74.409411 
L 130.647273 98.325304 
L 138.763636 79.236236 
L 146.88 77.800873 
L 154.996364 103.267091 
L 163.112727 78.870451 
L 171.229091 107.665188 
L 179.345455 86.524236 
L 187.461818 90.836569 
L 195.578182 104.943953 
L 203.694545 89.286435 
L 211.810909 98.274825 
L 219.927273 86.933561 
L 228.043636 87.263855 
L 236.16 94.173681 
L 244.276364 138.923545 
L 252.392727 154.578038 
L 260.509091 160.673797 
L 268.625455 134.767049 
L 276.741818 151.283671 
L 284.858182 152.452541 
L 292.974545 145.906965 
L 301.090909 148.126501 
L 309.207273 139.618682 
L 317.323636 120.305818 
L 325.44 118.068985 
L 333.556364 111.08658 
L 341.672727 108.67973 
L 349.789091 111.126059 
L 357.905455 102.655428 
L 366.021818 103.155854 
L 374.138182 103.122176 
L 382.254545 103.048945 
L 390.370909 102.993474 
" clip-path="url(#p908c0ceee9)" style="fill: none; stroke: #ff0000; stroke-width: 1.5; stroke-linecap: square"/>
   </g>
   <g id="patch_5">
    <path d="M 57.6 307.584 
L 57.6 41.472 
" style="fill: none; stroke: #000000; stroke-width: 0.8; stroke-linejoin: miter; stroke-linecap: square"/>
   </g>
   <g id="patch_6">
    <path d="M 414.72 307.584 
L 414.72 41.472 
" style="fill: none; stroke: #000000; stroke-width: 0.8; stroke-linejoin: miter; stroke-linecap: square"/>
   </g>
   <g id="patch_7">
    <path d="M 57.6 307.584 
L 414.72 307.584 
" style="fill: none; stroke: #000000; stroke-width: 0.8; stroke-linejoin: miter; stroke-linecap: square"/>
   </g>
   <g id="patch_8">
    <path d="M 57.6 41.472 
L 414.72 41.472 
" style="fill: none; stroke: #000000; stroke-width: 0.8; stroke-linejoin: miter; stroke-linecap: square"/>
   </g>
   <g id="text_18">
    <!-- Type1_depressed -->
    <g transform="translate(184.4775 35.472) scale(0.12 -0.12)">
     <defs>
      <path id="DejaVuSans-54" d="M -19 4666 
L 3928 4666 
L 3928 4134 
L 2272 4134 
L 2272 0 
L 1638 0 
L 1638 4134 
L -19 4134 
L -19 4666 
z
" transform="scale(0.015625)"/>
      <path id="DejaVuSans-79" d="M 2059 -325 
Q 1816 -950 1584 -1140 
Q 1353 -1331 966 -1331 
L 506 -1331 
L 506 -850 
L 844 -850 
Q 1081 -850 1212 -737 
Q 1344 -625 1503 -206 
L 1606 56 
L 191 3500 
L 800 3500 
L 1894 763 
L 2988 3500 
L 3597 3500 
L 2059 -325 
z
" transform="scale(0.015625)"/>
      <path id="DejaVuSans-5f" d="M 3263 -1063 
L 3263 -1509 
L -63 -1509 
L -63 -1063 
L 3263 -1063 
z
" transform="scale(0.015625)"/>
      <path id="DejaVuSans-64" d="M 2906 2969 
L 2906 4863 
L 3481 4863 
L 3481 0 
L 2906 0 
L 2906 525 
Q 2725 213 2448 61 
Q 2172 -91 1784 -91 
Q 1150 -91 751 415 
Q 353 922 353 1747 
Q 353 2572 751 3078 
Q 1150 3584 1784 3584 
Q 2172 3584 2448 3432 
Q 2725 3281 2906 2969 
z
M 947 1747 
Q 947 1113 1208 752 
Q 1469 391 1925 391 
Q 2381 391 2643 752 
Q 2906 1113 2906 1747 
Q 2906 2381 2643 2742 
Q 2381 3103 1925 3103 
Q 1469 3103 1208 2742 
Q 947 2381 947 1747 
z
" transform="scale(0.015625)"/>
      <path id="DejaVuSans-72" d="M 2631 2963 
Q 2534 3019 2420 3045 
Q 2306 3072 2169 3072 
Q 1681 3072 1420 2755 
Q 1159 2438 1159 1844 
L 1159 0 
L 581 0 
L 581 3500 
L 1159 3500 
L 1159 2956 
Q 1341 3275 1631 3429 
Q 1922 3584 2338 3584 
Q 2397 3584 2469 3576 
Q 2541 3569 2628 3553 
L 2631 2963 
z
" transform="scale(0.015625)"/>
      <path id="DejaVuSans-73" d="M 2834 3397 
L 2834 2853 
Q 2591 2978 2328 3040 
Q 2066 3103 1784 3103 
Q 1356 3103 1142 2972 
Q 928 2841 928 2578 
Q 928 2378 1081 2264 
Q 1234 2150 1697 2047 
L 1894 2003 
Q 2506 1872 2764 1633 
Q 3022 1394 3022 966 
Q 3022 478 2636 193 
Q 2250 -91 1575 -91 
Q 1294 -91 989 -36 
Q 684 19 347 128 
L 347 722 
Q 666 556 975 473 
Q 1284 391 1588 391 
Q 1994 391 2212 530 
Q 2431 669 2431 922 
Q 2431 1156 2273 1281 
Q 2116 1406 1581 1522 
L 1381 1569 
Q 847 1681 609 1914 
Q 372 2147 372 2553 
Q 372 3047 722 3315 
Q 1072 3584 1716 3584 
Q 2034 3584 2315 3537 
Q 2597 3491 2834 3397 
z
" transform="scale(0.015625)"/>
     </defs>
     <use xlink:href="#DejaVuSans-54"/>
     <use xlink:href="#DejaVuSans-79" x="45.458984"/>
     <use xlink:href="#DejaVuSans-70" x="104.638672"/>
     <use xlink:href="#DejaVuSans-65" x="168.115234"/>
     <use xlink:href="#DejaVuSans-31" x="229.638672"/>
     <use xlink:href="#DejaVuSans-5f" x="293.261719"/>
     <use xlink:href="#DejaVuSans-64" x="343.261719"/>
     <use xlink:href="#DejaVuSans-65" x="406.738281"/>
     <use xlink:href="#DejaVuSans-70" x="468.261719"/>
     <use xlink:href="#DejaVuSans-72" x="531.738281"/>
     <use xlink:href="#DejaVuSans-65" x="570.601562"/>
     <use xlink:href="#DejaVuSans-73" x="632.125"/>
     <use xlink:href="#DejaVuSans-73" x="684.224609"/>
     <use xlink:href="#DejaVuSans-65" x="736.324219"/>
     <use xlink:href="#DejaVuSans-64" x="797.847656"/>
    </g>
   </g>
   <g id="legend_1">
    <g id="patch_9">
     <path d="M 351.635625 78.82825 
L 407.72 78.82825 
Q 409.72 78.82825 409.72 76.82825 
L 409.72 48.472 
Q 409.72 46.472 407.72 46.472 
L 351.635625 46.472 
Q 349.635625 46.472 349.635625 48.472 
L 349.635625 76.82825 
Q 349.635625 78.82825 351.635625 78.82825 
z
" style="fill: #ffffff; opacity: 0.8; stroke: #cccccc; stroke-linejoin: miter"/>
    </g>
    <g id="line2d_58">
     <path d="M 353.635625 54.570437 
L 363.635625 54.570437 
L 373.635625 54.570437 
" style="fill: none; stroke: #1f77b4; stroke-width: 1.5; stroke-linecap: square"/>
    </g>
    <g id="text_19">
     <!-- coop -->
     <g transform="translate(381.635625 58.070437) scale(0.1 -0.1)">
      <use xlink:href="#DejaVuSans-63"/>
      <use xlink:href="#DejaVuSans-6f" x="54.980469"/>
      <use xlink:href="#DejaVuSans-6f" x="116.162109"/>
      <use xlink:href="#DejaVuSans-70" x="177.34375"/>
     </g>
    </g>
    <g id="line2d_59">
     <path d="M 353.635625 69.248562 
L 363.635625 69.248562 
L 373.635625 69.248562 
" style="fill: none; stroke: #ff0000; stroke-width: 1.5; stroke-linecap: square"/>
    </g>
    <g id="text_20">
     <!-- host -->
     <g transform="translate(381.635625 72.748562) scale(0.1 -0.1)">
      <defs>
       <path id="DejaVuSans-68" d="M 3513 2113 
L 3513 0 
L 2938 0 
L 2938 2094 
Q 2938 2591 2744 2837 
Q 2550 3084 2163 3084 
Q 1697 3084 1428 2787 
Q 1159 2491 1159 1978 
L 1159 0 
L 581 0 
L 581 4863 
L 1159 4863 
L 1159 2956 
Q 1366 3272 1645 3428 
Q 1925 3584 2291 3584 
Q 2894 3584 3203 3211 
Q 3513 2838 3513 2113 
z
" transform="scale(0.015625)"/>
      </defs>
      <use xlink:href="#DejaVuSans-68"/>
      <use xlink:href="#DejaVuSans-6f" x="63.378906"/>
      <use xlink:href="#DejaVuSans-73" x="124.560547"/>
      <use xlink:href="#DejaVuSans-74" x="176.660156"/>
     </g>
    </g>
   </g>
  </g>
 </g>
 <defs>
  <clipPath id="p908c0ceee9">
   <rect x="57.6" y="41.472" width="357.12" height="266.112"/>
  </clipPath>
 </defs>
</svg>
