<?xml version="1.0" encoding="utf-8" standalone="no"?>
<!DOCTYPE svg PUBLIC "-//W3C//DTD SVG 1.1//EN"
  "http://www.w3.org/Graphics/SVG/1.1/DTD/svg11.dtd">
<svg xmlns:xlink="http://www.w3.org/1999/xlink" width="460.8pt" height="345.6pt" viewBox="0 0 460.8 345.6" xmlns="http://www.w3.org/2000/svg" version="1.1">
 <metadata>
  <rdf:RDF xmlns:dc="http://purl.org/dc/elements/1.1/" xmlns:cc="http://creativecommons.org/ns#" xmlns:rdf="http://www.w3.org/1999/02/22-rdf-syntax-ns#">
   <cc:Work>
    <dc:type rdf:resource="http://purl.org/dc/dcmitype/StillImage"/>
    <dc:date>2024-06-18T15:36:59.570925</dc:date>
    <dc:format>image/svg+xml</dc:format>
    <dc:creator>
     <cc:Agent>
      <dc:title>Matplotlib v3.7.2, https://matplotlib.org/</dc:title>
     </cc:Agent>
    </dc:creator>
   </cc:Work>
  </rdf:RDF>
 </metadata>
 <defs>
  <style type="text/css">*{stroke-linejoin: round; stroke-linecap: butt}</style>
 </defs>
 <g id="figure_1">
  <g id="patch_1">
   <path d="M 0 345.6 
L 460.8 345.6 
L 460.8 0 
L 0 0 
z
" style="fill: #ffffff"/>
  </g>
  <g id="axes_1">
   <g id="patch_2">
    <path d="M 57.6 307.584 
L 414.72 307.584 
L 414.72 41.472 
L 57.6 41.472 
z
" style="fill: #ffffff"/>
   </g>
   <g id="patch_3">
    <path d="M 73.832727 307.584 
L 73.832727 41.472 
L 236.16 41.472 
L 236.16 307.584 
z
" clip-path="url(#p606fd0c10c)" style="fill: #add8e6; opacity: 0.2"/>
   </g>
   <g id="patch_4">
    <path d="M 236.16 307.584 
L 236.16 41.472 
L 398.487273 41.472 
L 398.487273 307.584 
z
" clip-path="url(#p606fd0c10c)" style="fill: #ff7f50; opacity: 0.2"/>
   </g>
   <g id="matplotlib.axis_1">
    <g id="xtick_1">
     <g id="line2d_1">
      <defs>
       <path id="m04ea008112" d="M 0 0 
L 0 3.5 
" style="stroke: #000000; stroke-width: 0.8"/>
      </defs>
      <g>
       <use xlink:href="#m04ea008112" x="73.832727" y="307.584" style="stroke: #000000; stroke-width: 0.8"/>
      </g>
     </g>
     <g id="text_1">
      <!-- 0 -->
      <g transform="translate(70.651477 322.182437) scale(0.1 -0.1)">
       <defs>
        <path id="DejaVuSans-30" d="M 2034 4250 
Q 1547 4250 1301 3770 
Q 1056 3291 1056 2328 
Q 1056 1369 1301 889 
Q 1547 409 2034 409 
Q 2525 409 2770 889 
Q 3016 1369 3016 2328 
Q 3016 3291 2770 3770 
Q 2525 4250 2034 4250 
z
M 2034 4750 
Q 2819 4750 3233 4129 
Q 3647 3509 3647 2328 
Q 3647 1150 3233 529 
Q 2819 -91 2034 -91 
Q 1250 -91 836 529 
Q 422 1150 422 2328 
Q 422 3509 836 4129 
Q 1250 4750 2034 4750 
z
" transform="scale(0.015625)"/>
       </defs>
       <use xlink:href="#DejaVuSans-30"/>
      </g>
     </g>
    </g>
    <g id="xtick_2">
     <g id="line2d_2">
      <g>
       <use xlink:href="#m04ea008112" x="114.414545" y="307.584" style="stroke: #000000; stroke-width: 0.8"/>
      </g>
     </g>
     <g id="text_2">
      <!-- 5 -->
      <g transform="translate(111.233295 322.182437) scale(0.1 -0.1)">
       <defs>
        <path id="DejaVuSans-35" d="M 691 4666 
L 3169 4666 
L 3169 4134 
L 1269 4134 
L 1269 2991 
Q 1406 3038 1543 3061 
Q 1681 3084 1819 3084 
Q 2600 3084 3056 2656 
Q 3513 2228 3513 1497 
Q 3513 744 3044 326 
Q 2575 -91 1722 -91 
Q 1428 -91 1123 -41 
Q 819 9 494 109 
L 494 744 
Q 775 591 1075 516 
Q 1375 441 1709 441 
Q 2250 441 2565 725 
Q 2881 1009 2881 1497 
Q 2881 1984 2565 2268 
Q 2250 2553 1709 2553 
Q 1456 2553 1204 2497 
Q 953 2441 691 2322 
L 691 4666 
z
" transform="scale(0.015625)"/>
       </defs>
       <use xlink:href="#DejaVuSans-35"/>
      </g>
     </g>
    </g>
    <g id="xtick_3">
     <g id="line2d_3">
      <g>
       <use xlink:href="#m04ea008112" x="154.996364" y="307.584" style="stroke: #000000; stroke-width: 0.8"/>
      </g>
     </g>
     <g id="text_3">
      <!-- 10 -->
      <g transform="translate(148.633864 322.182437) scale(0.1 -0.1)">
       <defs>
        <path id="DejaVuSans-31" d="M 794 531 
L 1825 531 
L 1825 4091 
L 703 3866 
L 703 4441 
L 1819 4666 
L 2450 4666 
L 2450 531 
L 3481 531 
L 3481 0 
L 794 0 
L 794 531 
z
" transform="scale(0.015625)"/>
       </defs>
       <use xlink:href="#DejaVuSans-31"/>
       <use xlink:href="#DejaVuSans-30" x="63.623047"/>
      </g>
     </g>
    </g>
    <g id="xtick_4">
     <g id="line2d_4">
      <g>
       <use xlink:href="#m04ea008112" x="195.578182" y="307.584" style="stroke: #000000; stroke-width: 0.8"/>
      </g>
     </g>
     <g id="text_4">
      <!-- 15 -->
      <g transform="translate(189.215682 322.182437) scale(0.1 -0.1)">
       <use xlink:href="#DejaVuSans-31"/>
       <use xlink:href="#DejaVuSans-35" x="63.623047"/>
      </g>
     </g>
    </g>
    <g id="xtick_5">
     <g id="line2d_5">
      <g>
       <use xlink:href="#m04ea008112" x="236.16" y="307.584" style="stroke: #000000; stroke-width: 0.8"/>
      </g>
     </g>
     <g id="text_5">
      <!-- 20 -->
      <g transform="translate(229.7975 322.182437) scale(0.1 -0.1)">
       <defs>
        <path id="DejaVuSans-32" d="M 1228 531 
L 3431 531 
L 3431 0 
L 469 0 
L 469 531 
Q 828 903 1448 1529 
Q 2069 2156 2228 2338 
Q 2531 2678 2651 2914 
Q 2772 3150 2772 3378 
Q 2772 3750 2511 3984 
Q 2250 4219 1831 4219 
Q 1534 4219 1204 4116 
Q 875 4013 500 3803 
L 500 4441 
Q 881 4594 1212 4672 
Q 1544 4750 1819 4750 
Q 2544 4750 2975 4387 
Q 3406 4025 3406 3419 
Q 3406 3131 3298 2873 
Q 3191 2616 2906 2266 
Q 2828 2175 2409 1742 
Q 1991 1309 1228 531 
z
" transform="scale(0.015625)"/>
       </defs>
       <use xlink:href="#DejaVuSans-32"/>
       <use xlink:href="#DejaVuSans-30" x="63.623047"/>
      </g>
     </g>
    </g>
    <g id="xtick_6">
     <g id="line2d_6">
      <g>
       <use xlink:href="#m04ea008112" x="276.741818" y="307.584" style="stroke: #000000; stroke-width: 0.8"/>
      </g>
     </g>
     <g id="text_6">
      <!-- 25 -->
      <g transform="translate(270.379318 322.182437) scale(0.1 -0.1)">
       <use xlink:href="#DejaVuSans-32"/>
       <use xlink:href="#DejaVuSans-35" x="63.623047"/>
      </g>
     </g>
    </g>
    <g id="xtick_7">
     <g id="line2d_7">
      <g>
       <use xlink:href="#m04ea008112" x="317.323636" y="307.584" style="stroke: #000000; stroke-width: 0.8"/>
      </g>
     </g>
     <g id="text_7">
      <!-- 30 -->
      <g transform="translate(310.961136 322.182437) scale(0.1 -0.1)">
       <defs>
        <path id="DejaVuSans-33" d="M 2597 2516 
Q 3050 2419 3304 2112 
Q 3559 1806 3559 1356 
Q 3559 666 3084 287 
Q 2609 -91 1734 -91 
Q 1441 -91 1130 -33 
Q 819 25 488 141 
L 488 750 
Q 750 597 1062 519 
Q 1375 441 1716 441 
Q 2309 441 2620 675 
Q 2931 909 2931 1356 
Q 2931 1769 2642 2001 
Q 2353 2234 1838 2234 
L 1294 2234 
L 1294 2753 
L 1863 2753 
Q 2328 2753 2575 2939 
Q 2822 3125 2822 3475 
Q 2822 3834 2567 4026 
Q 2313 4219 1838 4219 
Q 1578 4219 1281 4162 
Q 984 4106 628 3988 
L 628 4550 
Q 988 4650 1302 4700 
Q 1616 4750 1894 4750 
Q 2613 4750 3031 4423 
Q 3450 4097 3450 3541 
Q 3450 3153 3228 2886 
Q 3006 2619 2597 2516 
z
" transform="scale(0.015625)"/>
       </defs>
       <use xlink:href="#DejaVuSans-33"/>
       <use xlink:href="#DejaVuSans-30" x="63.623047"/>
      </g>
     </g>
    </g>
    <g id="xtick_8">
     <g id="line2d_8">
      <g>
       <use xlink:href="#m04ea008112" x="357.905455" y="307.584" style="stroke: #000000; stroke-width: 0.8"/>
      </g>
     </g>
     <g id="text_8">
      <!-- 35 -->
      <g transform="translate(351.542955 322.182437) scale(0.1 -0.1)">
       <use xlink:href="#DejaVuSans-33"/>
       <use xlink:href="#DejaVuSans-35" x="63.623047"/>
      </g>
     </g>
    </g>
    <g id="xtick_9">
     <g id="line2d_9">
      <g>
       <use xlink:href="#m04ea008112" x="398.487273" y="307.584" style="stroke: #000000; stroke-width: 0.8"/>
      </g>
     </g>
     <g id="text_9">
      <!-- 40 -->
      <g transform="translate(392.124773 322.182437) scale(0.1 -0.1)">
       <defs>
        <path id="DejaVuSans-34" d="M 2419 4116 
L 825 1625 
L 2419 1625 
L 2419 4116 
z
M 2253 4666 
L 3047 4666 
L 3047 1625 
L 3713 1625 
L 3713 1100 
L 3047 1100 
L 3047 0 
L 2419 0 
L 2419 1100 
L 313 1100 
L 313 1709 
L 2253 4666 
z
" transform="scale(0.015625)"/>
       </defs>
       <use xlink:href="#DejaVuSans-34"/>
       <use xlink:href="#DejaVuSans-30" x="63.623047"/>
      </g>
     </g>
    </g>
    <g id="text_10">
     <!-- t -->
     <g transform="translate(234.199844 335.860562) scale(0.1 -0.1)">
      <defs>
       <path id="DejaVuSans-74" d="M 1172 4494 
L 1172 3500 
L 2356 3500 
L 2356 3053 
L 1172 3053 
L 1172 1153 
Q 1172 725 1289 603 
Q 1406 481 1766 481 
L 2356 481 
L 2356 0 
L 1766 0 
Q 1100 0 847 248 
Q 594 497 594 1153 
L 594 3053 
L 172 3053 
L 172 3500 
L 594 3500 
L 594 4494 
L 1172 4494 
z
" transform="scale(0.015625)"/>
      </defs>
      <use xlink:href="#DejaVuSans-74"/>
     </g>
    </g>
   </g>
   <g id="matplotlib.axis_2">
    <g id="ytick_1">
     <g id="line2d_10">
      <defs>
       <path id="mf653d5530c" d="M 0 0 
L -3.5 0 
" style="stroke: #000000; stroke-width: 0.8"/>
      </defs>
      <g>
       <use xlink:href="#mf653d5530c" x="57.6" y="307.584" style="stroke: #000000; stroke-width: 0.8"/>
      </g>
     </g>
     <g id="text_11">
      <!-- 0.0 -->
      <g transform="translate(34.696875 311.383219) scale(0.1 -0.1)">
       <defs>
        <path id="DejaVuSans-2e" d="M 684 794 
L 1344 794 
L 1344 0 
L 684 0 
L 684 794 
z
" transform="scale(0.015625)"/>
       </defs>
       <use xlink:href="#DejaVuSans-30"/>
       <use xlink:href="#DejaVuSans-2e" x="63.623047"/>
       <use xlink:href="#DejaVuSans-30" x="95.410156"/>
      </g>
     </g>
    </g>
    <g id="ytick_2">
     <g id="line2d_11">
      <g>
       <use xlink:href="#mf653d5530c" x="57.6" y="254.3616" style="stroke: #000000; stroke-width: 0.8"/>
      </g>
     </g>
     <g id="text_12">
      <!-- 0.2 -->
      <g transform="translate(34.696875 258.160819) scale(0.1 -0.1)">
       <use xlink:href="#DejaVuSans-30"/>
       <use xlink:href="#DejaVuSans-2e" x="63.623047"/>
       <use xlink:href="#DejaVuSans-32" x="95.410156"/>
      </g>
     </g>
    </g>
    <g id="ytick_3">
     <g id="line2d_12">
      <g>
       <use xlink:href="#mf653d5530c" x="57.6" y="201.1392" style="stroke: #000000; stroke-width: 0.8"/>
      </g>
     </g>
     <g id="text_13">
      <!-- 0.4 -->
      <g transform="translate(34.696875 204.938419) scale(0.1 -0.1)">
       <use xlink:href="#DejaVuSans-30"/>
       <use xlink:href="#DejaVuSans-2e" x="63.623047"/>
       <use xlink:href="#DejaVuSans-34" x="95.410156"/>
      </g>
     </g>
    </g>
    <g id="ytick_4">
     <g id="line2d_13">
      <g>
       <use xlink:href="#mf653d5530c" x="57.6" y="147.9168" style="stroke: #000000; stroke-width: 0.8"/>
      </g>
     </g>
     <g id="text_14">
      <!-- 0.6 -->
      <g transform="translate(34.696875 151.716019) scale(0.1 -0.1)">
       <defs>
        <path id="DejaVuSans-36" d="M 2113 2584 
Q 1688 2584 1439 2293 
Q 1191 2003 1191 1497 
Q 1191 994 1439 701 
Q 1688 409 2113 409 
Q 2538 409 2786 701 
Q 3034 994 3034 1497 
Q 3034 2003 2786 2293 
Q 2538 2584 2113 2584 
z
M 3366 4563 
L 3366 3988 
Q 3128 4100 2886 4159 
Q 2644 4219 2406 4219 
Q 1781 4219 1451 3797 
Q 1122 3375 1075 2522 
Q 1259 2794 1537 2939 
Q 1816 3084 2150 3084 
Q 2853 3084 3261 2657 
Q 3669 2231 3669 1497 
Q 3669 778 3244 343 
Q 2819 -91 2113 -91 
Q 1303 -91 875 529 
Q 447 1150 447 2328 
Q 447 3434 972 4092 
Q 1497 4750 2381 4750 
Q 2619 4750 2861 4703 
Q 3103 4656 3366 4563 
z
" transform="scale(0.015625)"/>
       </defs>
       <use xlink:href="#DejaVuSans-30"/>
       <use xlink:href="#DejaVuSans-2e" x="63.623047"/>
       <use xlink:href="#DejaVuSans-36" x="95.410156"/>
      </g>
     </g>
    </g>
    <g id="ytick_5">
     <g id="line2d_14">
      <g>
       <use xlink:href="#mf653d5530c" x="57.6" y="94.6944" style="stroke: #000000; stroke-width: 0.8"/>
      </g>
     </g>
     <g id="text_15">
      <!-- 0.8 -->
      <g transform="translate(34.696875 98.493619) scale(0.1 -0.1)">
       <defs>
        <path id="DejaVuSans-38" d="M 2034 2216 
Q 1584 2216 1326 1975 
Q 1069 1734 1069 1313 
Q 1069 891 1326 650 
Q 1584 409 2034 409 
Q 2484 409 2743 651 
Q 3003 894 3003 1313 
Q 3003 1734 2745 1975 
Q 2488 2216 2034 2216 
z
M 1403 2484 
Q 997 2584 770 2862 
Q 544 3141 544 3541 
Q 544 4100 942 4425 
Q 1341 4750 2034 4750 
Q 2731 4750 3128 4425 
Q 3525 4100 3525 3541 
Q 3525 3141 3298 2862 
Q 3072 2584 2669 2484 
Q 3125 2378 3379 2068 
Q 3634 1759 3634 1313 
Q 3634 634 3220 271 
Q 2806 -91 2034 -91 
Q 1263 -91 848 271 
Q 434 634 434 1313 
Q 434 1759 690 2068 
Q 947 2378 1403 2484 
z
M 1172 3481 
Q 1172 3119 1398 2916 
Q 1625 2713 2034 2713 
Q 2441 2713 2670 2916 
Q 2900 3119 2900 3481 
Q 2900 3844 2670 4047 
Q 2441 4250 2034 4250 
Q 1625 4250 1398 4047 
Q 1172 3844 1172 3481 
z
" transform="scale(0.015625)"/>
       </defs>
       <use xlink:href="#DejaVuSans-30"/>
       <use xlink:href="#DejaVuSans-2e" x="63.623047"/>
       <use xlink:href="#DejaVuSans-38" x="95.410156"/>
      </g>
     </g>
    </g>
    <g id="ytick_6">
     <g id="line2d_15">
      <g>
       <use xlink:href="#mf653d5530c" x="57.6" y="41.472" style="stroke: #000000; stroke-width: 0.8"/>
      </g>
     </g>
     <g id="text_16">
      <!-- 1.0 -->
      <g transform="translate(34.696875 45.271219) scale(0.1 -0.1)">
       <use xlink:href="#DejaVuSans-31"/>
       <use xlink:href="#DejaVuSans-2e" x="63.623047"/>
       <use xlink:href="#DejaVuSans-30" x="95.410156"/>
      </g>
     </g>
    </g>
    <g id="text_17">
     <!-- p(context) -->
     <g transform="translate(28.617187 200.449875) rotate(-90) scale(0.1 -0.1)">
      <defs>
       <path id="DejaVuSans-70" d="M 1159 525 
L 1159 -1331 
L 581 -1331 
L 581 3500 
L 1159 3500 
L 1159 2969 
Q 1341 3281 1617 3432 
Q 1894 3584 2278 3584 
Q 2916 3584 3314 3078 
Q 3713 2572 3713 1747 
Q 3713 922 3314 415 
Q 2916 -91 2278 -91 
Q 1894 -91 1617 61 
Q 1341 213 1159 525 
z
M 3116 1747 
Q 3116 2381 2855 2742 
Q 2594 3103 2138 3103 
Q 1681 3103 1420 2742 
Q 1159 2381 1159 1747 
Q 1159 1113 1420 752 
Q 1681 391 2138 391 
Q 2594 391 2855 752 
Q 3116 1113 3116 1747 
z
" transform="scale(0.015625)"/>
       <path id="DejaVuSans-28" d="M 1984 4856 
Q 1566 4138 1362 3434 
Q 1159 2731 1159 2009 
Q 1159 1288 1364 580 
Q 1569 -128 1984 -844 
L 1484 -844 
Q 1016 -109 783 600 
Q 550 1309 550 2009 
Q 550 2706 781 3412 
Q 1013 4119 1484 4856 
L 1984 4856 
z
" transform="scale(0.015625)"/>
       <path id="DejaVuSans-63" d="M 3122 3366 
L 3122 2828 
Q 2878 2963 2633 3030 
Q 2388 3097 2138 3097 
Q 1578 3097 1268 2742 
Q 959 2388 959 1747 
Q 959 1106 1268 751 
Q 1578 397 2138 397 
Q 2388 397 2633 464 
Q 2878 531 3122 666 
L 3122 134 
Q 2881 22 2623 -34 
Q 2366 -91 2075 -91 
Q 1284 -91 818 406 
Q 353 903 353 1747 
Q 353 2603 823 3093 
Q 1294 3584 2113 3584 
Q 2378 3584 2631 3529 
Q 2884 3475 3122 3366 
z
" transform="scale(0.015625)"/>
       <path id="DejaVuSans-6f" d="M 1959 3097 
Q 1497 3097 1228 2736 
Q 959 2375 959 1747 
Q 959 1119 1226 758 
Q 1494 397 1959 397 
Q 2419 397 2687 759 
Q 2956 1122 2956 1747 
Q 2956 2369 2687 2733 
Q 2419 3097 1959 3097 
z
M 1959 3584 
Q 2709 3584 3137 3096 
Q 3566 2609 3566 1747 
Q 3566 888 3137 398 
Q 2709 -91 1959 -91 
Q 1206 -91 779 398 
Q 353 888 353 1747 
Q 353 2609 779 3096 
Q 1206 3584 1959 3584 
z
" transform="scale(0.015625)"/>
       <path id="DejaVuSans-6e" d="M 3513 2113 
L 3513 0 
L 2938 0 
L 2938 2094 
Q 2938 2591 2744 2837 
Q 2550 3084 2163 3084 
Q 1697 3084 1428 2787 
Q 1159 2491 1159 1978 
L 1159 0 
L 581 0 
L 581 3500 
L 1159 3500 
L 1159 2956 
Q 1366 3272 1645 3428 
Q 1925 3584 2291 3584 
Q 2894 3584 3203 3211 
Q 3513 2838 3513 2113 
z
" transform="scale(0.015625)"/>
       <path id="DejaVuSans-65" d="M 3597 1894 
L 3597 1613 
L 953 1613 
Q 991 1019 1311 708 
Q 1631 397 2203 397 
Q 2534 397 2845 478 
Q 3156 559 3463 722 
L 3463 178 
Q 3153 47 2828 -22 
Q 2503 -91 2169 -91 
Q 1331 -91 842 396 
Q 353 884 353 1716 
Q 353 2575 817 3079 
Q 1281 3584 2069 3584 
Q 2775 3584 3186 3129 
Q 3597 2675 3597 1894 
z
M 3022 2063 
Q 3016 2534 2758 2815 
Q 2500 3097 2075 3097 
Q 1594 3097 1305 2825 
Q 1016 2553 972 2059 
L 3022 2063 
z
" transform="scale(0.015625)"/>
       <path id="DejaVuSans-78" d="M 3513 3500 
L 2247 1797 
L 3578 0 
L 2900 0 
L 1881 1375 
L 863 0 
L 184 0 
L 1544 1831 
L 300 3500 
L 978 3500 
L 1906 2253 
L 2834 3500 
L 3513 3500 
z
" transform="scale(0.015625)"/>
       <path id="DejaVuSans-29" d="M 513 4856 
L 1013 4856 
Q 1481 4119 1714 3412 
Q 1947 2706 1947 2009 
Q 1947 1309 1714 600 
Q 1481 -109 1013 -844 
L 513 -844 
Q 928 -128 1133 580 
Q 1338 1288 1338 2009 
Q 1338 2731 1133 3434 
Q 928 4138 513 4856 
z
" transform="scale(0.015625)"/>
      </defs>
      <use xlink:href="#DejaVuSans-70"/>
      <use xlink:href="#DejaVuSans-28" x="63.476562"/>
      <use xlink:href="#DejaVuSans-63" x="102.490234"/>
      <use xlink:href="#DejaVuSans-6f" x="157.470703"/>
      <use xlink:href="#DejaVuSans-6e" x="218.652344"/>
      <use xlink:href="#DejaVuSans-74" x="282.03125"/>
      <use xlink:href="#DejaVuSans-65" x="321.240234"/>
      <use xlink:href="#DejaVuSans-78" x="381.013672"/>
      <use xlink:href="#DejaVuSans-74" x="440.193359"/>
      <use xlink:href="#DejaVuSans-29" x="479.402344"/>
     </g>
    </g>
   </g>
   <g id="line2d_16">
    <path d="M 73.832727 267.6672 
L 81.949091 146.966914 
L 90.065455 136.896144 
L 98.181818 142.621533 
L 106.298182 148.711813 
L 114.414545 154.339116 
L 122.530909 159.654262 
L 130.647273 164.750511 
L 138.763636 169.65307 
L 146.88 306.306859 
L 154.996364 216.226449 
L 163.112727 192.460518 
L 171.229091 305.641337 
L 179.345455 232.110374 
L 187.461818 209.265644 
L 195.578182 206.022997 
L 203.694545 304.928105 
L 211.810909 288.901451 
L 219.927273 286.896111 
L 228.043636 286.774304 
L 236.16 286.862353 
L 244.276364 286.944059 
L 252.392727 287.00128 
L 260.509091 287.039498 
L 268.625455 287.06478 
L 276.741818 287.081471 
L 284.858182 287.092484 
L 292.974545 287.099751 
L 301.090909 287.104546 
L 309.207273 287.10771 
L 317.323636 287.109798 
L 325.44 287.111175 
L 333.556364 287.112084 
L 341.672727 287.112683 
L 349.789091 287.113079 
L 357.905455 287.11334 
L 366.021818 287.113512 
L 374.138182 287.113626 
L 382.254545 287.113701 
L 390.370909 287.11375 
" clip-path="url(#p606fd0c10c)" style="fill: none; stroke: #add8e6; stroke-opacity: 0.3; stroke-width: 1.5; stroke-linecap: square"/>
   </g>
   <g id="line2d_17">
    <path d="M 73.832727 267.6672 
L 81.949091 146.966914 
L 90.065455 136.896144 
L 98.181818 142.621533 
L 106.298182 305.649871 
L 114.414545 207.616209 
L 122.530909 180.633617 
L 130.647273 178.493126 
L 138.763636 181.440462 
L 146.88 185.337163 
L 154.996364 189.330907 
L 163.112727 193.21197 
L 171.229091 305.135107 
L 179.345455 237.742781 
L 187.461818 216.704314 
L 195.578182 213.419013 
L 203.694545 214.884035 
L 211.810909 217.417285 
L 219.927273 220.093338 
L 228.043636 222.692323 
L 236.16 271.26968 
L 244.276364 305.926732 
L 252.392727 290.333775 
L 260.509091 287.949597 
L 268.625455 287.484604 
L 276.741818 287.333145 
L 284.858182 287.25499 
L 292.974545 287.206476 
L 301.090909 287.174894 
L 309.207273 287.154116 
L 317.323636 287.140415 
L 325.44 287.131377 
L 333.556364 287.125413 
L 341.672727 287.121478 
L 349.789091 287.118882 
L 357.905455 287.117169 
L 366.021818 287.116038 
L 374.138182 287.115293 
L 382.254545 287.114801 
L 390.370909 287.114476 
" clip-path="url(#p606fd0c10c)" style="fill: none; stroke: #add8e6; stroke-opacity: 0.3; stroke-width: 1.5; stroke-linecap: square"/>
   </g>
   <g id="line2d_18">
    <path d="M 73.832727 267.6672 
L 81.949091 146.966914 
L 90.065455 305.648263 
L 98.181818 201.682691 
L 106.298182 173.497259 
L 114.414545 171.791283 
L 122.530909 175.16289 
L 130.647273 179.402741 
L 138.763636 183.712443 
L 146.88 187.90621 
L 154.996364 191.923058 
L 163.112727 195.736708 
L 171.229091 199.335742 
L 179.345455 202.717475 
L 187.461818 205.885082 
L 195.578182 208.845746 
L 203.694545 211.609309 
L 211.810909 214.187239 
L 219.927273 216.591852 
L 228.043636 305.486605 
L 236.16 289.03603 
L 244.276364 306.710744 
L 252.392727 292.491953 
L 260.509091 289.603618 
L 268.625455 288.608189 
L 276.741818 288.079017 
L 284.858182 287.747756 
L 292.974545 287.531696 
L 301.090909 287.389489 
L 309.207273 287.295709 
L 317.323636 287.23384 
L 325.44 306.730719 
L 333.556364 292.634597 
L 341.672727 289.715886 
L 349.789091 288.684809 
L 357.905455 288.129927 
L 366.021818 287.781397 
L 374.138182 287.553899 
L 382.254545 287.40414 
L 390.370909 287.305377 
" clip-path="url(#p606fd0c10c)" style="fill: none; stroke: #add8e6; stroke-opacity: 0.3; stroke-width: 1.5; stroke-linecap: square"/>
   </g>
   <g id="line2d_19">
    <path d="M 73.832727 267.6672 
L 81.949091 146.966914 
L 90.065455 305.648263 
L 98.181818 306.988509 
L 106.298182 196.290827 
L 114.414545 165.55167 
L 122.530909 304.190543 
L 130.647273 221.911332 
L 138.763636 195.623753 
L 146.88 191.925102 
L 154.996364 194.0808 
L 163.112727 197.54316 
L 171.229091 201.195155 
L 179.345455 204.75819 
L 187.461818 208.160332 
L 195.578182 211.384193 
L 203.694545 214.428853 
L 211.810909 217.299497 
L 219.927273 220.004098 
L 228.043636 304.144311 
L 236.16 288.528083 
L 244.276364 286.669917 
L 252.392727 286.627886 
L 260.509091 286.766142 
L 268.625455 286.880634 
L 276.741818 286.959439 
L 284.858182 287.011893 
L 292.974545 287.046566 
L 301.090909 287.069453 
L 309.207273 287.084555 
L 317.323636 287.094519 
L 325.44 287.101094 
L 333.556364 287.105432 
L 341.672727 287.108295 
L 349.789091 287.110183 
L 357.905455 287.111429 
L 366.021818 287.112252 
L 374.138182 287.112794 
L 382.254545 287.113152 
L 390.370909 287.113388 
" clip-path="url(#p606fd0c10c)" style="fill: none; stroke: #add8e6; stroke-opacity: 0.3; stroke-width: 1.5; stroke-linecap: square"/>
   </g>
   <g id="line2d_20">
    <path d="M 73.832727 267.6672 
L 81.949091 146.966914 
L 90.065455 136.896144 
L 98.181818 305.459122 
L 106.298182 205.99696 
L 114.414545 178.497197 
L 122.530909 176.346742 
L 130.647273 179.386727 
L 138.763636 304.503796 
L 146.88 231.676937 
L 154.996364 208.909407 
L 163.112727 205.630186 
L 171.229091 207.567388 
L 179.345455 210.686069 
L 187.461818 213.959946 
L 195.578182 217.136481 
L 203.694545 220.158986 
L 211.810909 223.021028 
L 219.927273 225.729335 
L 228.043636 304.298596 
L 236.16 288.662174 
L 244.276364 286.762919 
L 252.392727 286.689884 
L 260.509091 286.807137 
L 268.625455 286.907696 
L 276.741818 286.977296 
L 284.858182 287.023675 
L 292.974545 287.05434 
L 301.090909 287.074582 
L 309.207273 287.087939 
L 317.323636 287.096753 
L 325.44 287.102568 
L 333.556364 287.106405 
L 341.672727 287.108936 
L 349.789091 287.110606 
L 357.905455 287.111709 
L 366.021818 287.112436 
L 374.138182 287.112916 
L 382.254545 287.113232 
L 390.370909 287.113441 
" clip-path="url(#p606fd0c10c)" style="fill: none; stroke: #add8e6; stroke-opacity: 0.3; stroke-width: 1.5; stroke-linecap: square"/>
   </g>
   <g id="line2d_21">
    <path d="M 73.832727 267.6672 
L 81.949091 146.966914 
L 90.065455 136.896144 
L 98.181818 142.621533 
L 106.298182 148.711813 
L 114.414545 305.831991 
L 122.530909 209.228156 
L 130.647273 182.825685 
L 138.763636 180.776837 
L 146.88 183.669267 
L 154.996364 187.457192 
L 163.112727 191.317594 
L 171.229091 195.053752 
L 179.345455 305.315843 
L 187.461818 306.826235 
L 195.578182 292.207827 
L 203.694545 289.365635 
L 211.810909 218.489013 
L 219.927273 199.74349 
L 228.043636 304.979458 
L 236.16 289.55247 
L 244.276364 287.412176 
L 252.392727 287.126937 
L 260.509091 287.096724 
L 268.625455 287.098937 
L 276.741818 287.103503 
L 284.858182 287.106951 
L 292.974545 287.109286 
L 301.090909 287.110836 
L 309.207273 287.11186 
L 317.323636 287.112536 
L 325.44 287.112981 
L 333.556364 287.113276 
L 341.672727 287.11347 
L 349.789091 287.113598 
L 357.905455 287.113682 
L 366.021818 287.113738 
L 374.138182 287.113775 
L 382.254545 287.113799 
L 390.370909 287.113815 
" clip-path="url(#p606fd0c10c)" style="fill: none; stroke: #add8e6; stroke-opacity: 0.3; stroke-width: 1.5; stroke-linecap: square"/>
   </g>
   <g id="line2d_22">
    <path d="M 73.832727 267.6672 
L 81.949091 146.966914 
L 90.065455 136.896144 
L 98.181818 142.621533 
L 106.298182 148.711813 
L 114.414545 154.339116 
L 122.530909 159.654262 
L 130.647273 306.109791 
L 138.763636 307.166818 
L 146.88 208.210992 
L 154.996364 179.585679 
L 163.112727 178.315199 
L 171.229091 181.984019 
L 179.345455 305.443024 
L 187.461818 306.86743 
L 195.578182 292.166604 
L 203.694545 289.328846 
L 211.810909 288.418466 
L 219.927273 287.952654 
L 228.043636 287.664215 
L 236.16 287.476552 
L 244.276364 287.353102 
L 252.392727 287.2717 
L 260.509091 287.217998 
L 268.625455 287.182566 
L 276.741818 287.159188 
L 284.858182 287.143763 
L 292.974545 287.133586 
L 301.090909 287.12687 
L 309.207273 287.12244 
L 317.323636 287.119516 
L 325.44 287.117587 
L 333.556364 287.116315 
L 341.672727 287.115475 
L 349.789091 287.114921 
L 357.905455 287.114555 
L 366.021818 287.114314 
L 374.138182 287.114155 
L 382.254545 287.11405 
L 390.370909 287.113981 
" clip-path="url(#p606fd0c10c)" style="fill: none; stroke: #add8e6; stroke-opacity: 0.3; stroke-width: 1.5; stroke-linecap: square"/>
   </g>
   <g id="line2d_23">
    <path d="M 73.832727 267.6672 
L 81.949091 146.966914 
L 90.065455 136.896144 
L 98.181818 142.621533 
L 106.298182 148.711813 
L 114.414545 305.831991 
L 122.530909 209.228156 
L 130.647273 305.546964 
L 138.763636 223.550041 
L 146.88 197.443469 
L 154.996364 193.910824 
L 163.112727 196.138678 
L 171.229091 199.606469 
L 179.345455 203.227973 
L 187.461818 206.743793 
L 195.578182 210.093326 
L 203.694545 213.266132 
L 211.810909 216.265736 
L 219.927273 219.100192 
L 228.043636 221.779276 
L 236.16 271.34988 
L 244.276364 306.064283 
L 252.392727 290.360749 
L 260.509091 287.958453 
L 268.625455 287.489193 
L 276.741818 287.335998 
L 284.858182 287.256848 
L 292.974545 287.207698 
L 301.090909 287.1757 
L 309.207273 287.154648 
L 317.323636 287.140766 
L 325.44 287.131608 
L 333.556364 287.125566 
L 341.672727 287.121579 
L 349.789091 287.118948 
L 357.905455 287.117212 
L 366.021818 287.116067 
L 374.138182 287.115312 
L 382.254545 287.114813 
L 390.370909 287.114484 
" clip-path="url(#p606fd0c10c)" style="fill: none; stroke: #add8e6; stroke-opacity: 0.3; stroke-width: 1.5; stroke-linecap: square"/>
   </g>
   <g id="line2d_24">
    <path d="M 73.832727 267.6672 
L 81.949091 146.966914 
L 90.065455 136.896144 
L 98.181818 142.621533 
L 106.298182 148.711813 
L 114.414545 305.831991 
L 122.530909 209.228156 
L 130.647273 305.546964 
L 138.763636 223.550041 
L 146.88 197.443469 
L 154.996364 193.910824 
L 163.112727 196.138678 
L 171.229091 304.252216 
L 179.345455 288.67474 
L 187.461818 286.777262 
L 195.578182 286.700196 
L 203.694545 286.81406 
L 211.810909 286.91228 
L 219.927273 286.980323 
L 228.043636 287.025673 
L 236.16 287.055658 
L 244.276364 287.075452 
L 252.392727 287.088513 
L 260.509091 287.097131 
L 268.625455 287.102818 
L 276.741818 287.106569 
L 284.858182 287.109045 
L 292.974545 287.110678 
L 301.090909 287.111756 
L 309.207273 287.112467 
L 317.323636 287.112936 
L 325.44 287.113246 
L 333.556364 287.11345 
L 341.672727 287.113585 
L 349.789091 287.113674 
L 357.905455 287.113732 
L 366.021818 287.113771 
L 374.138182 287.113797 
L 382.254545 287.113813 
L 390.370909 287.113825 
" clip-path="url(#p606fd0c10c)" style="fill: none; stroke: #add8e6; stroke-opacity: 0.3; stroke-width: 1.5; stroke-linecap: square"/>
   </g>
   <g id="line2d_25">
    <path d="M 73.832727 267.6672 
L 81.949091 146.966914 
L 90.065455 136.896144 
L 98.181818 142.621533 
L 106.298182 148.711813 
L 114.414545 154.339116 
L 122.530909 305.983431 
L 130.647273 307.127272 
L 138.763636 307.233858 
L 146.88 200.127181 
L 154.996364 170.010669 
L 163.112727 169.589069 
L 171.229091 173.87935 
L 179.345455 305.308712 
L 187.461818 289.253413 
L 195.578182 287.142474 
L 203.694545 286.938839 
L 211.810909 286.971192 
L 219.927273 287.015911 
L 228.043636 287.048694 
L 236.16 287.070783 
L 244.276364 287.085422 
L 252.392727 287.09509 
L 260.509091 287.101471 
L 268.625455 287.105681 
L 276.741818 287.108459 
L 284.858182 287.110291 
L 292.974545 287.111501 
L 301.090909 287.112299 
L 309.207273 287.112825 
L 317.323636 287.113172 
L 325.44 287.113402 
L 333.556364 287.113553 
L 341.672727 287.113653 
L 349.789091 287.113718 
L 357.905455 287.113762 
L 366.021818 287.113791 
L 374.138182 287.113809 
L 382.254545 287.113822 
L 390.370909 287.11383 
" clip-path="url(#p606fd0c10c)" style="fill: none; stroke: #add8e6; stroke-opacity: 0.3; stroke-width: 1.5; stroke-linecap: square"/>
   </g>
   <g id="line2d_26">
    <path d="M 73.832727 267.6672 
L 81.949091 307.253892 
L 90.065455 198.320593 
L 98.181818 165.358497 
L 106.298182 163.178549 
L 114.414545 166.983033 
L 122.530909 171.653209 
L 130.647273 176.313464 
L 138.763636 180.821243 
L 146.88 185.149961 
L 154.996364 189.289525 
L 163.112727 193.23329 
L 171.229091 196.97764 
L 179.345455 200.522396 
L 187.461818 203.870688 
L 195.578182 207.028431 
L 203.694545 210.003667 
L 211.810909 212.805912 
L 219.927273 215.445574 
L 228.043636 217.933479 
L 236.16 269.963226 
L 244.276364 306.89126 
L 252.392727 307.252924 
L 260.509091 292.865399 
L 268.625455 289.852224 
L 276.741818 307.214285 
L 284.858182 292.972892 
L 292.974545 289.941793 
L 301.090909 307.215948 
L 309.207273 292.986824 
L 317.323636 289.952784 
L 325.44 307.216149 
L 333.556364 292.988512 
L 341.672727 289.954116 
L 349.789091 307.216174 
L 357.905455 292.988717 
L 366.021818 289.954277 
L 374.138182 239.631209 
L 382.254545 223.459107 
L 390.370909 306.420335 
" clip-path="url(#p606fd0c10c)" style="fill: none; stroke: #add8e6; stroke-opacity: 0.3; stroke-width: 1.5; stroke-linecap: square"/>
   </g>
   <g id="line2d_27">
    <path d="M 73.832727 267.6672 
L 81.949091 146.966914 
L 90.065455 136.896144 
L 98.181818 142.621533 
L 106.298182 148.711813 
L 114.414545 154.339116 
L 122.530909 159.654262 
L 130.647273 164.750511 
L 138.763636 169.65307 
L 146.88 174.355392 
L 154.996364 178.840625 
L 163.112727 306.450971 
L 171.229091 307.278578 
L 179.345455 214.939509 
L 187.461818 189.074953 
L 195.578182 188.800915 
L 203.694545 192.630836 
L 211.810909 196.464841 
L 219.927273 199.875166 
L 228.043636 202.940526 
L 236.16 266.515941 
L 244.276364 222.921521 
L 252.392727 306.29896 
L 260.509091 307.153486 
L 268.625455 292.770768 
L 276.741818 289.785717 
L 284.858182 288.728077 
L 292.974545 288.158083 
L 301.090909 287.799919 
L 309.207273 287.566113 
L 317.323636 287.412198 
L 325.44 307.095576 
L 333.556364 292.83369 
L 341.672727 289.841412 
L 349.789091 288.766813 
L 357.905455 288.18392 
L 366.021818 287.817006 
L 374.138182 287.577392 
L 382.254545 287.419641 
L 390.370909 307.095745 
" clip-path="url(#p606fd0c10c)" style="fill: none; stroke: #add8e6; stroke-opacity: 0.3; stroke-width: 1.5; stroke-linecap: square"/>
   </g>
   <g id="line2d_28">
    <path d="M 73.832727 267.6672 
L 81.949091 146.966914 
L 90.065455 136.896144 
L 98.181818 142.621533 
L 106.298182 148.711813 
L 114.414545 154.339116 
L 122.530909 159.654262 
L 130.647273 164.750511 
L 138.763636 306.216317 
L 146.88 214.465722 
L 154.996364 190.027553 
L 163.112727 188.372874 
L 171.229091 191.127046 
L 179.345455 305.523527 
L 187.461818 235.126855 
L 195.578182 213.321731 
L 203.694545 210.090605 
L 211.810909 211.638581 
L 219.927273 214.20139 
L 228.043636 304.97999 
L 236.16 288.797016 
L 244.276364 286.807764 
L 252.392727 286.713287 
L 260.509091 286.821712 
L 268.625455 286.91719 
L 276.741818 286.983544 
L 284.858182 287.027795 
L 292.974545 287.057058 
L 301.090909 287.076376 
L 309.207273 287.089123 
L 317.323636 287.097533 
L 325.44 287.103083 
L 333.556364 287.106744 
L 341.672727 287.10916 
L 349.789091 287.110754 
L 357.905455 287.111806 
L 366.021818 287.1125 
L 374.138182 287.112958 
L 382.254545 287.11326 
L 390.370909 287.11346 
" clip-path="url(#p606fd0c10c)" style="fill: none; stroke: #add8e6; stroke-opacity: 0.3; stroke-width: 1.5; stroke-linecap: square"/>
   </g>
   <g id="line2d_29">
    <path d="M 73.832727 267.6672 
L 81.949091 146.966914 
L 90.065455 136.896144 
L 98.181818 142.621533 
L 106.298182 148.711813 
L 114.414545 154.339116 
L 122.530909 159.654262 
L 130.647273 164.750511 
L 138.763636 306.216317 
L 146.88 214.465722 
L 154.996364 190.027553 
L 163.112727 305.496571 
L 171.229091 231.076141 
L 179.345455 305.541546 
L 187.461818 290.134141 
L 195.578182 287.82552 
L 203.694545 287.403808 
L 211.810909 287.279986 
L 219.927273 222.513682 
L 228.043636 204.164639 
L 236.16 270.122783 
L 244.276364 305.938396 
L 252.392727 290.536299 
L 260.509091 288.110538 
L 268.625455 287.594623 
L 276.741818 287.406273 
L 284.858182 287.303316 
L 292.974545 287.238373 
L 301.090909 287.195941 
L 309.207273 287.168004 
L 317.323636 287.149578 
L 325.44 287.137422 
L 333.556364 287.129402 
L 341.672727 287.12411 
L 349.789091 287.120618 
L 357.905455 287.118314 
L 366.021818 287.116794 
L 374.138182 287.115791 
L 382.254545 287.11513 
L 390.370909 287.114693 
" clip-path="url(#p606fd0c10c)" style="fill: none; stroke: #add8e6; stroke-opacity: 0.3; stroke-width: 1.5; stroke-linecap: square"/>
   </g>
   <g id="line2d_30">
    <path d="M 73.832727 267.6672 
L 81.949091 146.966914 
L 90.065455 305.648263 
L 98.181818 201.682691 
L 106.298182 173.497259 
L 114.414545 171.791283 
L 122.530909 175.16289 
L 130.647273 179.402741 
L 138.763636 183.712443 
L 146.88 187.90621 
L 154.996364 191.923058 
L 163.112727 195.736708 
L 171.229091 199.335742 
L 179.345455 202.717475 
L 187.461818 305.232785 
L 195.578182 306.801953 
L 203.694545 292.287134 
L 211.810909 289.431327 
L 219.927273 288.489301 
L 228.043636 306.789294 
L 236.16 292.731051 
L 244.276364 289.787631 
L 252.392727 288.733282 
L 260.509091 306.798395 
L 268.625455 292.769345 
L 276.741818 289.817424 
L 284.858182 288.753575 
L 292.974545 306.799149 
L 301.090909 292.772514 
L 309.207273 289.81989 
L 317.323636 288.755255 
L 325.44 306.799211 
L 333.556364 292.772777 
L 341.672727 289.820094 
L 349.789091 288.755394 
L 357.905455 306.799216 
L 366.021818 292.772798 
L 374.138182 289.820111 
L 382.254545 288.755405 
L 390.370909 223.61264 
" clip-path="url(#p606fd0c10c)" style="fill: none; stroke: #add8e6; stroke-opacity: 0.3; stroke-width: 1.5; stroke-linecap: square"/>
   </g>
   <g id="line2d_31">
    <path d="M 73.832727 267.6672 
L 81.949091 307.253892 
L 90.065455 307.369661 
L 98.181818 190.69953 
L 106.298182 157.684191 
L 114.414545 156.538483 
L 122.530909 160.670759 
L 130.647273 165.365194 
L 138.763636 305.878087 
L 146.88 225.274023 
L 154.996364 198.774713 
L 163.112727 194.633537 
L 171.229091 196.445929 
L 179.345455 199.614123 
L 187.461818 202.988004 
L 195.578182 206.282032 
L 203.694545 209.426283 
L 211.810909 212.40684 
L 219.927273 215.225517 
L 228.043636 217.889109 
L 236.16 270.955629 
L 244.276364 235.783794 
L 252.392727 305.481972 
L 260.509091 289.390425 
L 268.625455 287.236057 
L 276.741818 287.001032 
L 284.858182 287.01229 
L 292.974545 287.043037 
L 301.090909 287.066592 
L 309.207273 287.082593 
L 317.323636 287.093215 
L 325.44 287.100232 
L 333.556364 287.104863 
L 341.672727 287.107919 
L 349.789091 287.109935 
L 357.905455 287.111266 
L 366.021818 287.112144 
L 374.138182 287.112723 
L 382.254545 287.113105 
L 390.370909 287.113357 
" clip-path="url(#p606fd0c10c)" style="fill: none; stroke: #add8e6; stroke-opacity: 0.3; stroke-width: 1.5; stroke-linecap: square"/>
   </g>
   <g id="line2d_32">
    <path d="M 73.832727 267.6672 
L 81.949091 307.253892 
L 90.065455 198.320593 
L 98.181818 165.358497 
L 106.298182 163.178549 
L 114.414545 166.983033 
L 122.530909 171.653209 
L 130.647273 176.313464 
L 138.763636 180.821243 
L 146.88 185.149961 
L 154.996364 306.174069 
L 163.112727 237.243045 
L 171.229091 214.350154 
L 179.345455 305.726801 
L 187.461818 289.588062 
L 195.578182 235.212258 
L 203.694545 218.233911 
L 211.810909 215.600786 
L 219.927273 217.208339 
L 228.043636 219.92395 
L 236.16 273.069825 
L 244.276364 306.228937 
L 252.392727 290.276497 
L 260.509091 287.875821 
L 268.625455 287.430881 
L 276.741818 287.296991 
L 284.858182 287.231037 
L 292.974545 287.190658 
L 301.090909 287.164455 
L 309.207273 287.147228 
L 317.323636 287.135871 
L 325.44 287.128378 
L 333.556364 287.123434 
L 341.672727 287.120172 
L 349.789091 287.11802 
L 357.905455 287.1166 
L 366.021818 287.115663 
L 374.138182 287.115045 
L 382.254545 287.114637 
L 390.370909 287.114368 
" clip-path="url(#p606fd0c10c)" style="fill: none; stroke: #add8e6; stroke-opacity: 0.3; stroke-width: 1.5; stroke-linecap: square"/>
   </g>
   <g id="line2d_33">
    <path d="M 73.832727 267.6672 
L 81.949091 146.966914 
L 90.065455 136.896144 
L 98.181818 142.621533 
L 106.298182 305.649871 
L 114.414545 207.616209 
L 122.530909 180.633617 
L 130.647273 304.636364 
L 138.763636 227.651343 
L 146.88 304.673182 
L 154.996364 289.636405 
L 163.112727 287.507654 
L 171.229091 287.195556 
L 179.345455 287.142787 
L 187.461818 287.129441 
L 195.578182 287.123645 
L 203.694545 287.120242 
L 211.810909 287.118057 
L 219.927273 287.116623 
L 228.043636 287.115678 
L 236.16 287.115055 
L 244.276364 287.114644 
L 252.392727 287.114372 
L 260.509091 287.114193 
L 268.625455 287.114075 
L 276.741818 287.113997 
L 284.858182 287.113946 
L 292.974545 287.113912 
L 301.090909 287.11389 
L 309.207273 287.113875 
L 317.323636 287.113865 
L 325.44 287.113859 
L 333.556364 287.113854 
L 341.672727 287.113852 
L 349.789091 287.11385 
L 357.905455 287.113849 
L 366.021818 287.113848 
L 374.138182 287.113847 
L 382.254545 287.113847 
L 390.370909 287.113847 
" clip-path="url(#p606fd0c10c)" style="fill: none; stroke: #add8e6; stroke-opacity: 0.3; stroke-width: 1.5; stroke-linecap: square"/>
   </g>
   <g id="line2d_34">
    <path d="M 73.832727 267.6672 
L 81.949091 146.966914 
L 90.065455 305.648263 
L 98.181818 201.682691 
L 106.298182 173.497259 
L 114.414545 304.127492 
L 122.530909 225.037543 
L 130.647273 304.130159 
L 138.763636 289.471836 
L 146.88 287.426229 
L 154.996364 287.145639 
L 163.112727 287.110385 
L 171.229091 287.108136 
L 179.345455 287.109598 
L 187.461818 287.110976 
L 195.578182 287.111943 
L 203.694545 287.112589 
L 211.810909 287.113017 
L 219.927273 287.113299 
L 228.043636 287.113485 
L 236.16 287.113608 
L 244.276364 287.113689 
L 252.392727 287.113742 
L 260.509091 287.113778 
L 268.625455 287.113801 
L 276.741818 287.113816 
L 284.858182 287.113826 
L 292.974545 287.113833 
L 301.090909 287.113838 
L 309.207273 287.113841 
L 317.323636 287.113842 
L 325.44 287.113844 
L 333.556364 287.113845 
L 341.672727 287.113845 
L 349.789091 287.113845 
L 357.905455 287.113846 
L 366.021818 287.113846 
L 374.138182 287.113846 
L 382.254545 287.113846 
L 390.370909 287.113846 
" clip-path="url(#p606fd0c10c)" style="fill: none; stroke: #add8e6; stroke-opacity: 0.3; stroke-width: 1.5; stroke-linecap: square"/>
   </g>
   <g id="line2d_35">
    <path d="M 73.832727 267.6672 
L 81.949091 146.966914 
L 90.065455 305.648263 
L 98.181818 201.682691 
L 106.298182 173.497259 
L 114.414545 171.791283 
L 122.530909 304.171771 
L 130.647273 227.487703 
L 138.763636 203.607346 
L 146.88 200.34352 
L 154.996364 202.505493 
L 163.112727 205.881888 
L 171.229091 209.414323 
L 179.345455 212.840269 
L 187.461818 216.097789 
L 195.578182 303.897016 
L 203.694545 288.476265 
L 211.810909 286.651338 
L 219.927273 286.617816 
L 228.043636 286.759804 
L 236.16 286.876495 
L 244.276364 286.956714 
L 252.392727 287.010096 
L 260.509091 287.04538 
L 268.625455 287.06867 
L 276.741818 287.084039 
L 284.858182 287.094179 
L 292.974545 287.10087 
L 301.090909 287.105284 
L 309.207273 287.108197 
L 317.323636 287.110119 
L 325.44 287.111387 
L 333.556364 287.112223 
L 341.672727 287.112775 
L 349.789091 287.11314 
L 357.905455 287.11338 
L 366.021818 287.113539 
L 374.138182 287.113643 
L 382.254545 287.113712 
L 390.370909 287.113758 
" clip-path="url(#p606fd0c10c)" style="fill: none; stroke: #add8e6; stroke-opacity: 0.3; stroke-width: 1.5; stroke-linecap: square"/>
   </g>
   <g id="line2d_36">
    <path d="M 73.832727 94.6944 
L 81.949091 259.657934 
L 90.065455 286.018974 
L 98.181818 288.619358 
L 106.298182 288.926419 
L 114.414545 288.970722 
L 122.530909 288.980678 
L 130.647273 289.001562 
L 138.763636 289.046165 
L 146.88 86.883219 
L 154.996364 222.130937 
L 163.112727 261.073873 
L 171.229091 90.597853 
L 179.345455 196.322777 
L 187.461818 232.766451 
L 195.578182 241.606871 
L 203.694545 93.913547 
L 211.810909 105.953618 
L 219.927273 106.169011 
L 228.043636 105.227619 
L 236.16 104.454582 
L 244.276364 103.923231 
L 252.392727 103.569656 
L 260.509091 103.335946 
L 268.625455 103.181683 
L 276.741818 103.079892 
L 284.858182 103.012728 
L 292.974545 102.968412 
L 301.090909 102.939172 
L 309.207273 102.91988 
L 317.323636 102.90715 
L 325.44 102.898751 
L 333.556364 102.89321 
L 341.672727 102.889553 
L 349.789091 102.887141 
L 357.905455 102.885549 
L 366.021818 102.884499 
L 374.138182 102.883806 
L 382.254545 102.883348 
L 390.370909 102.883047 
" clip-path="url(#p606fd0c10c)" style="fill: none; stroke: #ff0000; stroke-opacity: 0.1; stroke-width: 1.5; stroke-linecap: square"/>
   </g>
   <g id="line2d_37">
    <path d="M 73.832727 94.6944 
L 81.949091 259.657934 
L 90.065455 286.018974 
L 98.181818 288.619358 
L 106.298182 84.012504 
L 114.414545 221.705288 
L 122.530909 259.745836 
L 130.647273 265.530787 
L 138.763636 265.5177 
L 146.88 264.700946 
L 154.996364 263.871953 
L 163.112727 263.120948 
L 171.229091 94.640514 
L 179.345455 190.025881 
L 187.461818 223.416521 
L 195.578182 232.041144 
L 203.694545 233.323343 
L 211.810909 232.468059 
L 219.927273 230.924517 
L 228.043636 229.113357 
L 236.16 162.123796 
L 244.276364 80.089616 
L 252.392727 96.134915 
L 260.509091 99.592762 
L 268.625455 100.87485 
L 276.741818 101.58067 
L 284.858182 102.026732 
L 292.974545 102.318294 
L 301.090909 102.510282 
L 309.207273 102.636904 
L 317.323636 102.720442 
L 325.44 102.77556 
L 333.556364 102.811927 
L 341.672727 102.835922 
L 349.789091 102.851755 
L 357.905455 102.862201 
L 366.021818 102.869093 
L 374.138182 102.873641 
L 382.254545 102.876642 
L 390.370909 102.878622 
" clip-path="url(#p606fd0c10c)" style="fill: none; stroke: #ff0000; stroke-opacity: 0.1; stroke-width: 1.5; stroke-linecap: square"/>
   </g>
   <g id="line2d_38">
    <path d="M 73.832727 94.6944 
L 81.949091 259.657934 
L 90.065455 73.450348 
L 98.181818 218.805064 
L 106.298182 260.339029 
L 114.414545 266.865021 
L 122.530909 267.121082 
L 130.647273 266.462805 
L 138.763636 265.751298 
L 146.88 265.105573 
L 154.996364 264.526994 
L 163.112727 264.000568 
L 171.229091 263.510741 
L 179.345455 263.043551 
L 187.461818 262.58681 
L 195.578182 262.130058 
L 203.694545 261.664488 
L 211.810909 261.182839 
L 219.927273 260.679245 
L 228.043636 92.847001 
L 236.16 105.460884 
L 244.276364 58.899844 
L 252.392727 80.673792 
L 260.509091 89.183918 
L 268.625455 93.977929 
L 276.741818 97.025951 
L 284.858182 99.020922 
L 292.974545 100.334957 
L 301.090909 101.20165 
L 309.207273 101.773457 
L 317.323636 102.150733 
L 325.44 57.48339 
L 333.556364 79.622438 
L 341.672727 88.473857 
L 349.789091 93.50713 
L 357.905455 96.714992 
L 366.021818 98.815704 
L 374.138182 100.199547 
L 382.254545 101.112305 
L 390.370909 101.714506 
" clip-path="url(#p606fd0c10c)" style="fill: none; stroke: #ff0000; stroke-opacity: 0.1; stroke-width: 1.5; stroke-linecap: square"/>
   </g>
   <g id="line2d_39">
    <path d="M 73.832727 94.6944 
L 81.949091 259.657934 
L 90.065455 73.450348 
L 98.181818 55.711442 
L 106.298182 207.868684 
L 114.414545 257.48875 
L 122.530909 87.718089 
L 130.647273 198.326916 
L 138.763636 234.492873 
L 146.88 241.907933 
L 154.996364 242.16093 
L 163.112727 240.86528 
L 171.229091 239.295196 
L 179.345455 237.717476 
L 187.461818 236.175001 
L 195.578182 234.663815 
L 203.694545 233.172096 
L 211.810909 231.688166 
L 219.927273 230.201817 
L 228.043636 97.255328 
L 236.16 108.028867 
L 244.276364 107.520096 
L 252.392727 106.116526 
L 260.509091 105.040732 
L 268.625455 104.309927 
L 276.741818 103.824794 
L 284.858182 103.504287 
L 292.974545 103.292756 
L 301.090909 103.153178 
L 309.207273 103.061083 
L 317.323636 103.000317 
L 325.44 102.960224 
L 333.556364 102.93377 
L 341.672727 102.916315 
L 349.789091 102.904798 
L 357.905455 102.897199 
L 366.021818 102.892186 
L 374.138182 102.888878 
L 382.254545 102.886695 
L 390.370909 102.885255 
" clip-path="url(#p606fd0c10c)" style="fill: none; stroke: #ff0000; stroke-opacity: 0.1; stroke-width: 1.5; stroke-linecap: square"/>
   </g>
   <g id="line2d_40">
    <path d="M 73.832727 94.6944 
L 81.949091 259.657934 
L 90.065455 286.018974 
L 98.181818 81.653756 
L 106.298182 220.427164 
L 114.414545 259.101667 
L 122.530909 264.993736 
L 130.647273 264.960198 
L 138.763636 95.00879 
L 146.88 193.830711 
L 154.996364 226.2944 
L 163.112727 233.321536 
L 171.229091 233.42079 
L 179.345455 231.761938 
L 187.461818 229.648293 
L 195.578182 227.399979 
L 203.694545 225.092154 
L 211.810909 222.73908 
L 219.927273 220.340295 
L 228.043636 95.991558 
L 236.16 107.165896 
L 244.276364 106.946618 
L 252.392727 105.737569 
L 260.509091 104.790613 
L 268.625455 104.144885 
L 276.741818 103.715896 
L 284.858182 103.432435 
L 292.974545 103.245348 
L 301.090909 103.121898 
L 309.207273 103.040444 
L 317.323636 102.986699 
L 325.44 102.951238 
L 333.556364 102.927841 
L 341.672727 102.912403 
L 349.789091 102.902217 
L 357.905455 102.895497 
L 366.021818 102.891062 
L 374.138182 102.888136 
L 382.254545 102.886206 
L 390.370909 102.884932 
" clip-path="url(#p606fd0c10c)" style="fill: none; stroke: #ff0000; stroke-opacity: 0.1; stroke-width: 1.5; stroke-linecap: square"/>
   </g>
   <g id="line2d_41">
    <path d="M 73.832727 94.6944 
L 81.949091 259.657934 
L 90.065455 286.018974 
L 98.181818 288.619358 
L 106.298182 288.926419 
L 114.414545 85.15696 
L 122.530909 222.303649 
L 130.647273 260.247978 
L 138.763636 266.133262 
L 146.88 266.23441 
L 154.996364 265.519188 
L 163.112727 264.777478 
L 171.229091 264.10094 
L 179.345455 94.210623 
L 187.461818 61.798844 
L 195.578182 82.911563 
L 203.694545 90.705977 
L 211.810909 201.480558 
L 219.927273 241.571649 
L 228.043636 87.429028 
L 236.16 101.118473 
L 244.276364 102.900713 
L 252.392727 103.060232 
L 260.509091 103.02299 
L 268.625455 102.97844 
L 276.741818 102.946246 
L 284.858182 102.924611 
L 292.974545 102.910281 
L 301.090909 102.900818 
L 309.207273 102.894574 
L 317.323636 102.890453 
L 325.44 102.887734 
L 333.556364 102.885941 
L 341.672727 102.884757 
L 349.789091 102.883976 
L 357.905455 102.883461 
L 366.021818 102.883121 
L 374.138182 102.882897 
L 382.254545 102.882749 
L 390.370909 102.882651 
" clip-path="url(#p606fd0c10c)" style="fill: none; stroke: #ff0000; stroke-opacity: 0.1; stroke-width: 1.5; stroke-linecap: square"/>
   </g>
   <g id="line2d_42">
    <path d="M 73.832727 94.6944 
L 81.949091 259.657934 
L 90.065455 286.018974 
L 98.181818 288.619358 
L 106.298182 288.926419 
L 114.414545 288.970722 
L 122.530909 288.980678 
L 130.647273 86.345136 
L 138.763636 57.503102 
L 146.88 199.389946 
L 154.996364 250.620788 
L 163.112727 261.915848 
L 171.229091 264.109067 
L 179.345455 91.327358 
L 187.461818 62.231679 
L 195.578182 83.258845 
L 203.694545 90.943766 
L 211.810909 95.14669 
L 219.927273 97.798173 
L 228.043636 99.53059 
L 236.16 100.671261 
L 244.276364 101.423549 
L 252.392727 101.919868 
L 260.509091 102.247336 
L 268.625455 102.463401 
L 276.741818 102.605962 
L 284.858182 102.700025 
L 292.974545 102.762089 
L 301.090909 102.803039 
L 309.207273 102.830058 
L 317.323636 102.847885 
L 325.44 102.859648 
L 333.556364 102.867409 
L 341.672727 102.87253 
L 349.789091 102.875908 
L 357.905455 102.878138 
L 366.021818 102.879609 
L 374.138182 102.880579 
L 382.254545 102.88122 
L 390.370909 102.881642 
" clip-path="url(#p606fd0c10c)" style="fill: none; stroke: #ff0000; stroke-opacity: 0.1; stroke-width: 1.5; stroke-linecap: square"/>
   </g>
   <g id="line2d_43">
    <path d="M 73.832727 94.6944 
L 81.949091 259.657934 
L 90.065455 286.018974 
L 98.181818 288.619358 
L 106.298182 288.926419 
L 114.414545 85.15696 
L 122.530909 222.303649 
L 130.647273 84.128934 
L 138.763636 196.868041 
L 146.88 234.509532 
L 154.996364 242.416261 
L 163.112727 242.732715 
L 171.229091 241.302511 
L 179.345455 239.487398 
L 187.461818 237.592537 
L 195.578182 235.679851 
L 203.694545 233.755848 
L 211.810909 231.81511 
L 219.927273 229.850373 
L 228.043636 227.854835 
L 236.16 160.677728 
L 244.276364 79.888648 
L 252.392727 96.059841 
L 260.509091 99.551293 
L 268.625455 100.848619 
L 276.741818 101.563521 
L 284.858182 102.015439 
L 292.974545 102.310846 
L 301.090909 102.505369 
L 309.207273 102.633662 
L 317.323636 102.718303 
L 325.44 102.774148 
L 333.556364 102.810996 
L 341.672727 102.835308 
L 349.789091 102.851349 
L 357.905455 102.861933 
L 366.021818 102.868917 
L 374.138182 102.873525 
L 382.254545 102.876565 
L 390.370909 102.878571 
" clip-path="url(#p606fd0c10c)" style="fill: none; stroke: #ff0000; stroke-opacity: 0.1; stroke-width: 1.5; stroke-linecap: square"/>
   </g>
   <g id="line2d_44">
    <path d="M 73.832727 94.6944 
L 81.949091 259.657934 
L 90.065455 286.018974 
L 98.181818 288.619358 
L 106.298182 288.926419 
L 114.414545 85.15696 
L 122.530909 222.303649 
L 130.647273 84.128934 
L 138.763636 196.868041 
L 146.88 234.509532 
L 154.996364 242.416261 
L 163.112727 242.732715 
L 171.229091 95.842713 
L 179.345455 107.028753 
L 187.461818 106.850672 
L 195.578182 105.673498 
L 203.694545 104.748231 
L 211.810909 104.116906 
L 219.927273 103.697434 
L 228.043636 103.420253 
L 236.16 103.23731 
L 244.276364 103.116594 
L 252.392727 103.036944 
L 260.509091 102.984391 
L 268.625455 102.949715 
L 276.741818 102.926836 
L 284.858182 102.91174 
L 292.974545 102.90178 
L 301.090909 102.895208 
L 309.207273 102.890872 
L 317.323636 102.888011 
L 325.44 102.886123 
L 333.556364 102.884877 
L 341.672727 102.884055 
L 349.789091 102.883513 
L 357.905455 102.883155 
L 366.021818 102.882919 
L 374.138182 102.882764 
L 382.254545 102.882661 
L 390.370909 102.882593 
" clip-path="url(#p606fd0c10c)" style="fill: none; stroke: #ff0000; stroke-opacity: 0.1; stroke-width: 1.5; stroke-linecap: square"/>
   </g>
   <g id="line2d_45">
    <path d="M 73.832727 94.6944 
L 81.949091 259.657934 
L 90.065455 286.018974 
L 98.181818 288.619358 
L 106.298182 288.926419 
L 114.414545 288.970722 
L 122.530909 85.864935 
L 130.647273 58.012495 
L 138.763636 50.371296 
L 146.88 199.935393 
L 154.996364 254.382182 
L 163.112727 265.978668 
L 171.229091 268.371257 
L 179.345455 90.584231 
L 187.461818 103.665965 
L 195.578182 104.646851 
L 203.694545 104.221499 
L 211.810909 103.790485 
L 219.927273 103.48502 
L 228.043636 103.280516 
L 236.16 103.145168 
L 244.276364 103.055807 
L 252.392727 102.996837 
L 260.509091 102.957928 
L 268.625455 102.932255 
L 276.741818 102.915316 
L 284.858182 102.904139 
L 292.974545 102.896764 
L 301.090909 102.891899 
L 309.207273 102.888688 
L 317.323636 102.88657 
L 325.44 102.885172 
L 333.556364 102.88425 
L 341.672727 102.883642 
L 349.789091 102.88324 
L 357.905455 102.882975 
L 366.021818 102.882801 
L 374.138182 102.882685 
L 382.254545 102.882609 
L 390.370909 102.882559 
" clip-path="url(#p606fd0c10c)" style="fill: none; stroke: #ff0000; stroke-opacity: 0.1; stroke-width: 1.5; stroke-linecap: square"/>
   </g>
   <g id="line2d_46">
    <path d="M 73.832727 94.6944 
L 81.949091 51.385877 
L 90.065455 197.129724 
L 98.181818 248.283247 
L 106.298182 258.143769 
L 114.414545 258.963141 
L 122.530909 257.960612 
L 130.647273 256.572142 
L 138.763636 255.108013 
L 146.88 253.646428 
L 154.996364 252.209051 
L 163.112727 250.799764 
L 171.229091 249.415301 
L 179.345455 248.049151 
L 187.461818 246.693423 
L 195.578182 245.339888 
L 203.694545 243.980581 
L 211.810909 242.608144 
L 219.927273 241.216012 
L 228.043636 239.798476 
L 236.16 167.52027 
L 244.276364 76.480298 
L 252.392727 55.436471 
L 260.509091 78.374461 
L 268.625455 87.664816 
L 276.741818 54.342218 
L 284.858182 77.53252 
L 292.974545 87.092481 
L 301.090909 54.203733 
L 309.207273 77.429571 
L 317.323636 87.022931 
L 325.44 54.186954 
L 333.556364 77.417098 
L 341.672727 87.014505 
L 349.789091 54.184921 
L 357.905455 77.415587 
L 366.021818 87.013484 
L 374.138182 168.226736 
L 382.254545 205.418327 
L 390.370909 76.905582 
" clip-path="url(#p606fd0c10c)" style="fill: none; stroke: #ff0000; stroke-opacity: 0.1; stroke-width: 1.5; stroke-linecap: square"/>
   </g>
   <g id="line2d_47">
    <path d="M 73.832727 94.6944 
L 81.949091 259.657934 
L 90.065455 286.018974 
L 98.181818 288.619358 
L 106.298182 288.926419 
L 114.414545 288.970722 
L 122.530909 288.980678 
L 130.647273 289.001562 
L 138.763636 289.046165 
L 146.88 289.115563 
L 154.996364 289.205376 
L 163.112727 86.956664 
L 171.229091 55.092296 
L 179.345455 193.492264 
L 187.461818 248.058393 
L 195.578182 262.012261 
L 203.694545 265.634362 
L 211.810909 266.652322 
L 219.927273 266.86756 
L 228.043636 266.774853 
L 236.16 179.506429 
L 244.276364 244.016343 
L 252.392727 87.046098 
L 260.509091 56.333066 
L 268.625455 78.992217 
L 276.741818 88.076085 
L 284.858182 93.247208 
L 292.974545 96.543849 
L 301.090909 98.702832 
L 309.207273 100.12508 
L 317.323636 101.063172 
L 325.44 55.674883 
L 333.556364 78.466729 
L 341.672727 87.716576 
L 349.789091 93.008209 
L 357.905455 96.385904 
L 366.021818 98.598584 
L 374.138182 100.056291 
L 382.254545 101.017784 
L 390.370909 55.664678 
" clip-path="url(#p606fd0c10c)" style="fill: none; stroke: #ff0000; stroke-opacity: 0.1; stroke-width: 1.5; stroke-linecap: square"/>
   </g>
   <g id="line2d_48">
    <path d="M 73.832727 94.6944 
L 81.949091 259.657934 
L 90.065455 286.018974 
L 98.181818 288.619358 
L 106.298182 288.926419 
L 114.414545 288.970722 
L 122.530909 288.980678 
L 130.647273 289.001562 
L 138.763636 86.675182 
L 146.88 222.394945 
L 154.996364 260.982038 
L 163.112727 267.591965 
L 171.229091 268.19185 
L 179.345455 93.28575 
L 187.461818 194.747155 
L 195.578182 229.997873 
L 203.694545 238.884767 
L 211.810909 240.273681 
L 219.927273 239.589808 
L 228.043636 94.98383 
L 236.16 106.784867 
L 244.276364 106.735009 
L 252.392727 105.603527 
L 260.509091 104.702953 
L 268.625455 104.087157 
L 276.741818 103.677822 
L 284.858182 103.407316 
L 292.974545 103.228774 
L 301.090909 103.110962 
L 309.207273 103.033228 
L 317.323636 102.981939 
L 325.44 102.948097 
L 333.556364 102.925769 
L 341.672727 102.911036 
L 349.789091 102.901315 
L 357.905455 102.894901 
L 366.021818 102.890669 
L 374.138182 102.887877 
L 382.254545 102.886035 
L 390.370909 102.884819 
" clip-path="url(#p606fd0c10c)" style="fill: none; stroke: #ff0000; stroke-opacity: 0.1; stroke-width: 1.5; stroke-linecap: square"/>
   </g>
   <g id="line2d_49">
    <path d="M 73.832727 94.6944 
L 81.949091 259.657934 
L 90.065455 286.018974 
L 98.181818 288.619358 
L 106.298182 288.926419 
L 114.414545 288.970722 
L 122.530909 288.980678 
L 130.647273 289.001562 
L 138.763636 86.675182 
L 146.88 222.394945 
L 154.996364 260.982038 
L 163.112727 91.29965 
L 171.229091 196.710035 
L 179.345455 81.893362 
L 187.461818 97.275872 
L 195.578182 100.338681 
L 203.694545 101.366047 
L 211.810909 101.90463 
L 219.927273 198.010301 
L 228.043636 231.318493 
L 236.16 153.587422 
L 244.276364 78.070204 
L 252.392727 94.62677 
L 260.509091 98.573042 
L 268.625455 100.198578 
L 276.741818 101.133976 
L 284.858182 101.731932 
L 292.974545 102.123773 
L 301.090909 102.381935 
L 309.207273 102.552219 
L 317.323636 102.664566 
L 325.44 102.738693 
L 333.556364 102.787602 
L 341.672727 102.819872 
L 349.789091 102.841165 
L 357.905455 102.855214 
L 366.021818 102.864483 
L 374.138182 102.870599 
L 382.254545 102.874635 
L 390.370909 102.877297 
" clip-path="url(#p606fd0c10c)" style="fill: none; stroke: #ff0000; stroke-opacity: 0.1; stroke-width: 1.5; stroke-linecap: square"/>
   </g>
   <g id="line2d_50">
    <path d="M 73.832727 94.6944 
L 81.949091 259.657934 
L 90.065455 73.450348 
L 98.181818 218.805064 
L 106.298182 260.339029 
L 114.414545 266.865021 
L 122.530909 267.121082 
L 130.647273 266.462805 
L 138.763636 265.751298 
L 146.88 265.105573 
L 154.996364 264.526994 
L 163.112727 264.000568 
L 171.229091 263.510741 
L 179.345455 263.043551 
L 187.461818 94.784404 
L 195.578182 60.993635 
L 203.694545 82.2943 
L 211.810909 90.286649 
L 219.927273 94.710216 
L 228.043636 56.54814 
L 236.16 78.953217 
L 244.276364 88.024991 
L 252.392727 93.20994 
L 260.509091 56.169751 
L 268.625455 78.67443 
L 276.741818 87.836962 
L 284.858182 93.085305 
L 292.974545 56.138431 
L 301.090909 78.651355 
L 309.207273 87.821399 
L 317.323636 93.074989 
L 325.44 56.135839 
L 333.556364 78.649446 
L 341.672727 87.820111 
L 349.789091 93.074135 
L 357.905455 56.135625 
L 366.021818 78.649288 
L 374.138182 87.820005 
L 382.254545 93.074065 
L 390.370909 198.37044 
" clip-path="url(#p606fd0c10c)" style="fill: none; stroke: #ff0000; stroke-opacity: 0.1; stroke-width: 1.5; stroke-linecap: square"/>
   </g>
   <g id="line2d_51">
    <path d="M 73.832727 94.6944 
L 81.949091 51.385877 
L 90.065455 49.04194 
L 98.181818 204.680899 
L 106.298182 257.119103 
L 114.414545 266.555718 
L 122.530909 267.679122 
L 130.647273 267.333721 
L 138.763636 87.772919 
L 146.88 195.924923 
L 154.996364 232.279167 
L 163.112727 240.087664 
L 171.229091 240.521636 
L 179.345455 239.289153 
L 187.461818 237.728905 
L 195.578182 236.131919 
L 203.694545 234.549575 
L 211.810909 232.981677 
L 219.927273 231.419004 
L 228.043636 229.852269 
L 236.16 160.036212 
L 244.276364 204.304247 
L 252.392727 89.300739 
L 260.509091 102.798639 
L 268.625455 104.071713 
L 276.741818 103.841616 
L 284.858182 103.539779 
L 292.974545 103.319594 
L 301.090909 103.171366 
L 309.207273 103.07315 
L 317.323636 103.008289 
L 325.44 102.965485 
L 333.556364 102.937241 
L 341.672727 102.918605 
L 349.789091 102.90631 
L 357.905455 102.898197 
L 366.021818 102.892844 
L 374.138182 102.889312 
L 382.254545 102.886981 
L 390.370909 102.885444 
" clip-path="url(#p606fd0c10c)" style="fill: none; stroke: #ff0000; stroke-opacity: 0.1; stroke-width: 1.5; stroke-linecap: square"/>
   </g>
   <g id="line2d_52">
    <path d="M 73.832727 94.6944 
L 81.949091 51.385877 
L 90.065455 197.129724 
L 98.181818 248.283247 
L 106.298182 258.143769 
L 114.414545 258.963141 
L 122.530909 257.960612 
L 130.647273 256.572142 
L 138.763636 255.108013 
L 146.88 253.646428 
L 154.996364 89.333126 
L 163.112727 180.664615 
L 171.229091 212.900993 
L 179.345455 87.446779 
L 187.461818 101.542825 
L 195.578182 176.331223 
L 203.694545 203.378395 
L 211.810909 210.715797 
L 219.927273 211.371593 
L 228.043636 209.72772 
L 236.16 146.061963 
L 244.276364 80.813495 
L 252.392727 96.844036 
L 260.509091 100.093101 
L 268.625455 101.209527 
L 276.741818 101.80213 
L 284.858182 102.172943 
L 292.974545 102.414777 
L 301.090909 102.573945 
L 309.207273 102.678909 
L 317.323636 102.748157 
L 325.44 102.793847 
L 333.556364 102.823993 
L 341.672727 102.843883 
L 349.789091 102.857007 
L 357.905455 102.865667 
L 366.021818 102.87138 
L 374.138182 102.87515 
L 382.254545 102.877637 
L 390.370909 102.879278 
" clip-path="url(#p606fd0c10c)" style="fill: none; stroke: #ff0000; stroke-opacity: 0.1; stroke-width: 1.5; stroke-linecap: square"/>
   </g>
   <g id="line2d_53">
    <path d="M 73.832727 94.6944 
L 81.949091 259.657934 
L 90.065455 286.018974 
L 98.181818 288.619358 
L 106.298182 84.012504 
L 114.414545 221.705288 
L 122.530909 259.745836 
L 130.647273 93.503733 
L 138.763636 196.821634 
L 146.88 86.436545 
L 154.996364 100.205659 
L 163.112727 102.262267 
L 171.229091 102.63391 
L 179.345455 102.740988 
L 187.461818 102.792274 
L 195.578182 102.823398 
L 203.694545 102.843553 
L 211.810909 102.856798 
L 219.927273 102.86553 
L 228.043636 102.87129 
L 236.16 102.87509 
L 244.276364 102.877598 
L 252.392727 102.879253 
L 260.509091 102.880344 
L 268.625455 102.881065 
L 276.741818 102.88154 
L 284.858182 102.881853 
L 292.974545 102.88206 
L 301.090909 102.882197 
L 309.207273 102.882287 
L 317.323636 102.882346 
L 325.44 102.882385 
L 333.556364 102.882411 
L 341.672727 102.882428 
L 349.789091 102.88244 
L 357.905455 102.882447 
L 366.021818 102.882452 
L 374.138182 102.882455 
L 382.254545 102.882457 
L 390.370909 102.882459 
" clip-path="url(#p606fd0c10c)" style="fill: none; stroke: #ff0000; stroke-opacity: 0.1; stroke-width: 1.5; stroke-linecap: square"/>
   </g>
   <g id="line2d_54">
    <path d="M 73.832727 94.6944 
L 81.949091 259.657934 
L 90.065455 73.450348 
L 98.181818 218.805064 
L 106.298182 260.339029 
L 114.414545 92.474587 
L 122.530909 198.183353 
L 130.647273 87.810715 
L 138.763636 100.937623 
L 146.88 102.720728 
L 154.996364 102.932972 
L 163.112727 102.93783 
L 171.229091 102.922084 
L 179.345455 102.909038 
L 187.461818 102.900058 
L 195.578182 102.89408 
L 203.694545 102.890129 
L 211.810909 102.887521 
L 219.927273 102.8858 
L 228.043636 102.884664 
L 236.16 102.883915 
L 244.276364 102.88342 
L 252.392727 102.883094 
L 260.509091 102.882879 
L 268.625455 102.882737 
L 276.741818 102.882643 
L 284.858182 102.882581 
L 292.974545 102.882541 
L 301.090909 102.882514 
L 309.207273 102.882496 
L 317.323636 102.882484 
L 325.44 102.882477 
L 333.556364 102.882471 
L 341.672727 102.882468 
L 349.789091 102.882466 
L 357.905455 102.882464 
L 366.021818 102.882463 
L 374.138182 102.882463 
L 382.254545 102.882462 
L 390.370909 102.882462 
" clip-path="url(#p606fd0c10c)" style="fill: none; stroke: #ff0000; stroke-opacity: 0.1; stroke-width: 1.5; stroke-linecap: square"/>
   </g>
   <g id="line2d_55">
    <path d="M 73.832727 94.6944 
L 81.949091 259.657934 
L 90.065455 73.450348 
L 98.181818 218.805064 
L 106.298182 260.339029 
L 114.414545 266.865021 
L 122.530909 94.273896 
L 130.647273 197.39382 
L 138.763636 230.353739 
L 146.88 236.967962 
L 154.996364 236.792131 
L 163.112727 235.042354 
L 171.229091 232.953561 
L 179.345455 230.798947 
L 187.461818 228.628207 
L 195.578182 97.649862 
L 203.694545 108.188755 
L 211.810909 107.611512 
L 219.927273 106.17487 
L 228.043636 105.078951 
L 236.16 104.335105 
L 244.276364 103.841401 
L 252.392727 103.515244 
L 260.509091 103.299985 
L 268.625455 103.157948 
L 276.741818 103.06423 
L 284.858182 103.002394 
L 292.974545 102.961594 
L 301.090909 102.934674 
L 309.207273 102.916911 
L 317.323636 102.905192 
L 325.44 102.897459 
L 333.556364 102.892357 
L 341.672727 102.888991 
L 349.789091 102.88677 
L 357.905455 102.885304 
L 366.021818 102.884337 
L 374.138182 102.883699 
L 382.254545 102.883278 
L 390.370909 102.883 
" clip-path="url(#p606fd0c10c)" style="fill: none; stroke: #ff0000; stroke-opacity: 0.1; stroke-width: 1.5; stroke-linecap: square"/>
   </g>
   <g id="line2d_56">
    <path d="M 73.832727 267.6672 
L 81.949091 171.009961 
L 90.065455 193.750295 
L 98.181818 175.471589 
L 106.298182 176.501208 
L 114.414545 195.640892 
L 122.530909 197.8628 
L 130.647273 217.950087 
L 138.763636 231.563018 
L 146.88 213.462829 
L 154.996364 207.484522 
L 163.112727 215.887434 
L 171.229091 229.697989 
L 179.345455 250.883161 
L 187.461818 247.839857 
L 195.578182 247.426215 
L 203.694545 250.725407 
L 211.810909 247.219694 
L 219.927273 244.195701 
L 228.043636 267.375171 
L 236.16 282.006215 
L 244.276364 287.177458 
L 252.392727 290.93096 
L 260.509091 289.746345 
L 268.625455 287.939637 
L 276.741818 288.45306 
L 284.858182 287.610431 
L 292.974545 288.318417 
L 301.090909 288.453759 
L 309.207273 287.576998 
L 317.323636 287.360426 
L 325.44 291.084245 
L 333.556364 288.253272 
L 341.672727 287.658125 
L 349.789091 288.362548 
L 357.905455 288.496372 
L 366.021818 287.607487 
L 374.138182 284.920297 
L 382.254545 284.043051 
L 390.370909 285.912821 
" clip-path="url(#p606fd0c10c)" style="fill: none; stroke: #1f77b4; stroke-width: 1.5; stroke-linecap: square"/>
   </g>
   <g id="line2d_57">
    <path d="M 73.832727 94.6944 
L 81.949091 228.417126 
L 90.065455 212.139041 
L 98.181818 244.432289 
L 106.298182 250.571069 
L 114.414545 231.342393 
L 122.530909 234.009126 
L 130.647273 207.489975 
L 138.763636 188.590517 
L 146.88 215.768062 
L 154.996364 228.189422 
L 163.112727 218.108148 
L 171.229091 199.0022 
L 179.345455 169.222949 
L 187.461818 170.594214 
L 195.578182 171.226265 
L 203.694545 167.777571 
L 211.810909 174.458012 
L 219.927273 180.991411 
L 228.043636 144.089439 
L 236.16 122.931423 
L 244.276364 106.790586 
L 252.392727 96.532568 
L 260.509091 95.940807 
L 268.625455 99.124095 
L 276.741818 98.586215 
L 284.858182 100.396845 
L 292.974545 99.27647 
L 301.090909 98.920901 
L 309.207273 100.648243 
L 317.323636 101.461531 
L 325.44 93.473405 
L 333.556364 98.009389 
L 341.672727 99.854341 
L 349.789091 98.992788 
L 357.905455 98.63732 
L 366.021818 100.458995 
L 374.138182 105.120552 
L 382.254545 107.336733 
L 390.370909 103.938492 
" clip-path="url(#p606fd0c10c)" style="fill: none; stroke: #ff0000; stroke-width: 1.5; stroke-linecap: square"/>
   </g>
   <g id="patch_5">
    <path d="M 57.6 307.584 
L 57.6 41.472 
" style="fill: none; stroke: #000000; stroke-width: 0.8; stroke-linejoin: miter; stroke-linecap: square"/>
   </g>
   <g id="patch_6">
    <path d="M 414.72 307.584 
L 414.72 41.472 
" style="fill: none; stroke: #000000; stroke-width: 0.8; stroke-linejoin: miter; stroke-linecap: square"/>
   </g>
   <g id="patch_7">
    <path d="M 57.6 307.584 
L 414.72 307.584 
" style="fill: none; stroke: #000000; stroke-width: 0.8; stroke-linejoin: miter; stroke-linecap: square"/>
   </g>
   <g id="patch_8">
    <path d="M 57.6 41.472 
L 414.72 41.472 
" style="fill: none; stroke: #000000; stroke-width: 0.8; stroke-linejoin: miter; stroke-linecap: square"/>
   </g>
   <g id="text_18">
    <!-- Type1_depressed -->
    <g transform="translate(184.4775 35.472) scale(0.12 -0.12)">
     <defs>
      <path id="DejaVuSans-54" d="M -19 4666 
L 3928 4666 
L 3928 4134 
L 2272 4134 
L 2272 0 
L 1638 0 
L 1638 4134 
L -19 4134 
L -19 4666 
z
" transform="scale(0.015625)"/>
      <path id="DejaVuSans-79" d="M 2059 -325 
Q 1816 -950 1584 -1140 
Q 1353 -1331 966 -1331 
L 506 -1331 
L 506 -850 
L 844 -850 
Q 1081 -850 1212 -737 
Q 1344 -625 1503 -206 
L 1606 56 
L 191 3500 
L 800 3500 
L 1894 763 
L 2988 3500 
L 3597 3500 
L 2059 -325 
z
" transform="scale(0.015625)"/>
      <path id="DejaVuSans-5f" d="M 3263 -1063 
L 3263 -1509 
L -63 -1509 
L -63 -1063 
L 3263 -1063 
z
" transform="scale(0.015625)"/>
      <path id="DejaVuSans-64" d="M 2906 2969 
L 2906 4863 
L 3481 4863 
L 3481 0 
L 2906 0 
L 2906 525 
Q 2725 213 2448 61 
Q 2172 -91 1784 -91 
Q 1150 -91 751 415 
Q 353 922 353 1747 
Q 353 2572 751 3078 
Q 1150 3584 1784 3584 
Q 2172 3584 2448 3432 
Q 2725 3281 2906 2969 
z
M 947 1747 
Q 947 1113 1208 752 
Q 1469 391 1925 391 
Q 2381 391 2643 752 
Q 2906 1113 2906 1747 
Q 2906 2381 2643 2742 
Q 2381 3103 1925 3103 
Q 1469 3103 1208 2742 
Q 947 2381 947 1747 
z
" transform="scale(0.015625)"/>
      <path id="DejaVuSans-72" d="M 2631 2963 
Q 2534 3019 2420 3045 
Q 2306 3072 2169 3072 
Q 1681 3072 1420 2755 
Q 1159 2438 1159 1844 
L 1159 0 
L 581 0 
L 581 3500 
L 1159 3500 
L 1159 2956 
Q 1341 3275 1631 3429 
Q 1922 3584 2338 3584 
Q 2397 3584 2469 3576 
Q 2541 3569 2628 3553 
L 2631 2963 
z
" transform="scale(0.015625)"/>
      <path id="DejaVuSans-73" d="M 2834 3397 
L 2834 2853 
Q 2591 2978 2328 3040 
Q 2066 3103 1784 3103 
Q 1356 3103 1142 2972 
Q 928 2841 928 2578 
Q 928 2378 1081 2264 
Q 1234 2150 1697 2047 
L 1894 2003 
Q 2506 1872 2764 1633 
Q 3022 1394 3022 966 
Q 3022 478 2636 193 
Q 2250 -91 1575 -91 
Q 1294 -91 989 -36 
Q 684 19 347 128 
L 347 722 
Q 666 556 975 473 
Q 1284 391 1588 391 
Q 1994 391 2212 530 
Q 2431 669 2431 922 
Q 2431 1156 2273 1281 
Q 2116 1406 1581 1522 
L 1381 1569 
Q 847 1681 609 1914 
Q 372 2147 372 2553 
Q 372 3047 722 3315 
Q 1072 3584 1716 3584 
Q 2034 3584 2315 3537 
Q 2597 3491 2834 3397 
z
" transform="scale(0.015625)"/>
     </defs>
     <use xlink:href="#DejaVuSans-54"/>
     <use xlink:href="#DejaVuSans-79" x="45.458984"/>
     <use xlink:href="#DejaVuSans-70" x="104.638672"/>
     <use xlink:href="#DejaVuSans-65" x="168.115234"/>
     <use xlink:href="#DejaVuSans-31" x="229.638672"/>
     <use xlink:href="#DejaVuSans-5f" x="293.261719"/>
     <use xlink:href="#DejaVuSans-64" x="343.261719"/>
     <use xlink:href="#DejaVuSans-65" x="406.738281"/>
     <use xlink:href="#DejaVuSans-70" x="468.261719"/>
     <use xlink:href="#DejaVuSans-72" x="531.738281"/>
     <use xlink:href="#DejaVuSans-65" x="570.601562"/>
     <use xlink:href="#DejaVuSans-73" x="632.125"/>
     <use xlink:href="#DejaVuSans-73" x="684.224609"/>
     <use xlink:href="#DejaVuSans-65" x="736.324219"/>
     <use xlink:href="#DejaVuSans-64" x="797.847656"/>
    </g>
   </g>
   <g id="legend_1">
    <g id="patch_9">
     <path d="M 351.635625 190.706125 
L 407.72 190.706125 
Q 409.72 190.706125 409.72 188.706125 
L 409.72 160.349875 
Q 409.72 158.349875 407.72 158.349875 
L 351.635625 158.349875 
Q 349.635625 158.349875 349.635625 160.349875 
L 349.635625 188.706125 
Q 349.635625 190.706125 351.635625 190.706125 
z
" style="fill: #ffffff; opacity: 0.8; stroke: #cccccc; stroke-linejoin: miter"/>
    </g>
    <g id="line2d_58">
     <path d="M 353.635625 166.448312 
L 363.635625 166.448312 
L 373.635625 166.448312 
" style="fill: none; stroke: #1f77b4; stroke-width: 1.5; stroke-linecap: square"/>
    </g>
    <g id="text_19">
     <!-- coop -->
     <g transform="translate(381.635625 169.948312) scale(0.1 -0.1)">
      <use xlink:href="#DejaVuSans-63"/>
      <use xlink:href="#DejaVuSans-6f" x="54.980469"/>
      <use xlink:href="#DejaVuSans-6f" x="116.162109"/>
      <use xlink:href="#DejaVuSans-70" x="177.34375"/>
     </g>
    </g>
    <g id="line2d_59">
     <path d="M 353.635625 181.126437 
L 363.635625 181.126437 
L 373.635625 181.126437 
" style="fill: none; stroke: #ff0000; stroke-width: 1.5; stroke-linecap: square"/>
    </g>
    <g id="text_20">
     <!-- host -->
     <g transform="translate(381.635625 184.626437) scale(0.1 -0.1)">
      <defs>
       <path id="DejaVuSans-68" d="M 3513 2113 
L 3513 0 
L 2938 0 
L 2938 2094 
Q 2938 2591 2744 2837 
Q 2550 3084 2163 3084 
Q 1697 3084 1428 2787 
Q 1159 2491 1159 1978 
L 1159 0 
L 581 0 
L 581 4863 
L 1159 4863 
L 1159 2956 
Q 1366 3272 1645 3428 
Q 1925 3584 2291 3584 
Q 2894 3584 3203 3211 
Q 3513 2838 3513 2113 
z
" transform="scale(0.015625)"/>
      </defs>
      <use xlink:href="#DejaVuSans-68"/>
      <use xlink:href="#DejaVuSans-6f" x="63.378906"/>
      <use xlink:href="#DejaVuSans-73" x="124.560547"/>
      <use xlink:href="#DejaVuSans-74" x="176.660156"/>
     </g>
    </g>
   </g>
  </g>
 </g>
 <defs>
  <clipPath id="p606fd0c10c">
   <rect x="57.6" y="41.472" width="357.12" height="266.112"/>
  </clipPath>
 </defs>
</svg>
