<?xml version="1.0" encoding="utf-8" standalone="no"?>
<!DOCTYPE svg PUBLIC "-//W3C//DTD SVG 1.1//EN"
  "http://www.w3.org/Graphics/SVG/1.1/DTD/svg11.dtd">
<svg xmlns:xlink="http://www.w3.org/1999/xlink" width="460.8pt" height="345.6pt" viewBox="0 0 460.8 345.6" xmlns="http://www.w3.org/2000/svg" version="1.1">
 <metadata>
  <rdf:RDF xmlns:dc="http://purl.org/dc/elements/1.1/" xmlns:cc="http://creativecommons.org/ns#" xmlns:rdf="http://www.w3.org/1999/02/22-rdf-syntax-ns#">
   <cc:Work>
    <dc:type rdf:resource="http://purl.org/dc/dcmitype/StillImage"/>
    <dc:date>2024-06-18T15:36:56.901786</dc:date>
    <dc:format>image/svg+xml</dc:format>
    <dc:creator>
     <cc:Agent>
      <dc:title>Matplotlib v3.7.2, https://matplotlib.org/</dc:title>
     </cc:Agent>
    </dc:creator>
   </cc:Work>
  </rdf:RDF>
 </metadata>
 <defs>
  <style type="text/css">*{stroke-linejoin: round; stroke-linecap: butt}</style>
 </defs>
 <g id="figure_1">
  <g id="patch_1">
   <path d="M 0 345.6 
L 460.8 345.6 
L 460.8 0 
L 0 0 
z
" style="fill: #ffffff"/>
  </g>
  <g id="axes_1">
   <g id="patch_2">
    <path d="M 57.6 307.584 
L 414.72 307.584 
L 414.72 41.472 
L 57.6 41.472 
z
" style="fill: #ffffff"/>
   </g>
   <g id="patch_3">
    <path d="M 73.832727 307.584 
L 73.832727 41.472 
L 236.16 41.472 
L 236.16 307.584 
z
" clip-path="url(#pb75f09311d)" style="fill: #add8e6; opacity: 0.2"/>
   </g>
   <g id="patch_4">
    <path d="M 236.16 307.584 
L 236.16 41.472 
L 398.487273 41.472 
L 398.487273 307.584 
z
" clip-path="url(#pb75f09311d)" style="fill: #ff7f50; opacity: 0.2"/>
   </g>
   <g id="matplotlib.axis_1">
    <g id="xtick_1">
     <g id="line2d_1">
      <defs>
       <path id="m532a9e7d8e" d="M 0 0 
L 0 3.5 
" style="stroke: #000000; stroke-width: 0.8"/>
      </defs>
      <g>
       <use xlink:href="#m532a9e7d8e" x="73.832727" y="307.584" style="stroke: #000000; stroke-width: 0.8"/>
      </g>
     </g>
     <g id="text_1">
      <!-- 0 -->
      <g transform="translate(70.651477 322.182437) scale(0.1 -0.1)">
       <defs>
        <path id="DejaVuSans-30" d="M 2034 4250 
Q 1547 4250 1301 3770 
Q 1056 3291 1056 2328 
Q 1056 1369 1301 889 
Q 1547 409 2034 409 
Q 2525 409 2770 889 
Q 3016 1369 3016 2328 
Q 3016 3291 2770 3770 
Q 2525 4250 2034 4250 
z
M 2034 4750 
Q 2819 4750 3233 4129 
Q 3647 3509 3647 2328 
Q 3647 1150 3233 529 
Q 2819 -91 2034 -91 
Q 1250 -91 836 529 
Q 422 1150 422 2328 
Q 422 3509 836 4129 
Q 1250 4750 2034 4750 
z
" transform="scale(0.015625)"/>
       </defs>
       <use xlink:href="#DejaVuSans-30"/>
      </g>
     </g>
    </g>
    <g id="xtick_2">
     <g id="line2d_2">
      <g>
       <use xlink:href="#m532a9e7d8e" x="114.414545" y="307.584" style="stroke: #000000; stroke-width: 0.8"/>
      </g>
     </g>
     <g id="text_2">
      <!-- 5 -->
      <g transform="translate(111.233295 322.182437) scale(0.1 -0.1)">
       <defs>
        <path id="DejaVuSans-35" d="M 691 4666 
L 3169 4666 
L 3169 4134 
L 1269 4134 
L 1269 2991 
Q 1406 3038 1543 3061 
Q 1681 3084 1819 3084 
Q 2600 3084 3056 2656 
Q 3513 2228 3513 1497 
Q 3513 744 3044 326 
Q 2575 -91 1722 -91 
Q 1428 -91 1123 -41 
Q 819 9 494 109 
L 494 744 
Q 775 591 1075 516 
Q 1375 441 1709 441 
Q 2250 441 2565 725 
Q 2881 1009 2881 1497 
Q 2881 1984 2565 2268 
Q 2250 2553 1709 2553 
Q 1456 2553 1204 2497 
Q 953 2441 691 2322 
L 691 4666 
z
" transform="scale(0.015625)"/>
       </defs>
       <use xlink:href="#DejaVuSans-35"/>
      </g>
     </g>
    </g>
    <g id="xtick_3">
     <g id="line2d_3">
      <g>
       <use xlink:href="#m532a9e7d8e" x="154.996364" y="307.584" style="stroke: #000000; stroke-width: 0.8"/>
      </g>
     </g>
     <g id="text_3">
      <!-- 10 -->
      <g transform="translate(148.633864 322.182437) scale(0.1 -0.1)">
       <defs>
        <path id="DejaVuSans-31" d="M 794 531 
L 1825 531 
L 1825 4091 
L 703 3866 
L 703 4441 
L 1819 4666 
L 2450 4666 
L 2450 531 
L 3481 531 
L 3481 0 
L 794 0 
L 794 531 
z
" transform="scale(0.015625)"/>
       </defs>
       <use xlink:href="#DejaVuSans-31"/>
       <use xlink:href="#DejaVuSans-30" x="63.623047"/>
      </g>
     </g>
    </g>
    <g id="xtick_4">
     <g id="line2d_4">
      <g>
       <use xlink:href="#m532a9e7d8e" x="195.578182" y="307.584" style="stroke: #000000; stroke-width: 0.8"/>
      </g>
     </g>
     <g id="text_4">
      <!-- 15 -->
      <g transform="translate(189.215682 322.182437) scale(0.1 -0.1)">
       <use xlink:href="#DejaVuSans-31"/>
       <use xlink:href="#DejaVuSans-35" x="63.623047"/>
      </g>
     </g>
    </g>
    <g id="xtick_5">
     <g id="line2d_5">
      <g>
       <use xlink:href="#m532a9e7d8e" x="236.16" y="307.584" style="stroke: #000000; stroke-width: 0.8"/>
      </g>
     </g>
     <g id="text_5">
      <!-- 20 -->
      <g transform="translate(229.7975 322.182437) scale(0.1 -0.1)">
       <defs>
        <path id="DejaVuSans-32" d="M 1228 531 
L 3431 531 
L 3431 0 
L 469 0 
L 469 531 
Q 828 903 1448 1529 
Q 2069 2156 2228 2338 
Q 2531 2678 2651 2914 
Q 2772 3150 2772 3378 
Q 2772 3750 2511 3984 
Q 2250 4219 1831 4219 
Q 1534 4219 1204 4116 
Q 875 4013 500 3803 
L 500 4441 
Q 881 4594 1212 4672 
Q 1544 4750 1819 4750 
Q 2544 4750 2975 4387 
Q 3406 4025 3406 3419 
Q 3406 3131 3298 2873 
Q 3191 2616 2906 2266 
Q 2828 2175 2409 1742 
Q 1991 1309 1228 531 
z
" transform="scale(0.015625)"/>
       </defs>
       <use xlink:href="#DejaVuSans-32"/>
       <use xlink:href="#DejaVuSans-30" x="63.623047"/>
      </g>
     </g>
    </g>
    <g id="xtick_6">
     <g id="line2d_6">
      <g>
       <use xlink:href="#m532a9e7d8e" x="276.741818" y="307.584" style="stroke: #000000; stroke-width: 0.8"/>
      </g>
     </g>
     <g id="text_6">
      <!-- 25 -->
      <g transform="translate(270.379318 322.182437) scale(0.1 -0.1)">
       <use xlink:href="#DejaVuSans-32"/>
       <use xlink:href="#DejaVuSans-35" x="63.623047"/>
      </g>
     </g>
    </g>
    <g id="xtick_7">
     <g id="line2d_7">
      <g>
       <use xlink:href="#m532a9e7d8e" x="317.323636" y="307.584" style="stroke: #000000; stroke-width: 0.8"/>
      </g>
     </g>
     <g id="text_7">
      <!-- 30 -->
      <g transform="translate(310.961136 322.182437) scale(0.1 -0.1)">
       <defs>
        <path id="DejaVuSans-33" d="M 2597 2516 
Q 3050 2419 3304 2112 
Q 3559 1806 3559 1356 
Q 3559 666 3084 287 
Q 2609 -91 1734 -91 
Q 1441 -91 1130 -33 
Q 819 25 488 141 
L 488 750 
Q 750 597 1062 519 
Q 1375 441 1716 441 
Q 2309 441 2620 675 
Q 2931 909 2931 1356 
Q 2931 1769 2642 2001 
Q 2353 2234 1838 2234 
L 1294 2234 
L 1294 2753 
L 1863 2753 
Q 2328 2753 2575 2939 
Q 2822 3125 2822 3475 
Q 2822 3834 2567 4026 
Q 2313 4219 1838 4219 
Q 1578 4219 1281 4162 
Q 984 4106 628 3988 
L 628 4550 
Q 988 4650 1302 4700 
Q 1616 4750 1894 4750 
Q 2613 4750 3031 4423 
Q 3450 4097 3450 3541 
Q 3450 3153 3228 2886 
Q 3006 2619 2597 2516 
z
" transform="scale(0.015625)"/>
       </defs>
       <use xlink:href="#DejaVuSans-33"/>
       <use xlink:href="#DejaVuSans-30" x="63.623047"/>
      </g>
     </g>
    </g>
    <g id="xtick_8">
     <g id="line2d_8">
      <g>
       <use xlink:href="#m532a9e7d8e" x="357.905455" y="307.584" style="stroke: #000000; stroke-width: 0.8"/>
      </g>
     </g>
     <g id="text_8">
      <!-- 35 -->
      <g transform="translate(351.542955 322.182437) scale(0.1 -0.1)">
       <use xlink:href="#DejaVuSans-33"/>
       <use xlink:href="#DejaVuSans-35" x="63.623047"/>
      </g>
     </g>
    </g>
    <g id="xtick_9">
     <g id="line2d_9">
      <g>
       <use xlink:href="#m532a9e7d8e" x="398.487273" y="307.584" style="stroke: #000000; stroke-width: 0.8"/>
      </g>
     </g>
     <g id="text_9">
      <!-- 40 -->
      <g transform="translate(392.124773 322.182437) scale(0.1 -0.1)">
       <defs>
        <path id="DejaVuSans-34" d="M 2419 4116 
L 825 1625 
L 2419 1625 
L 2419 4116 
z
M 2253 4666 
L 3047 4666 
L 3047 1625 
L 3713 1625 
L 3713 1100 
L 3047 1100 
L 3047 0 
L 2419 0 
L 2419 1100 
L 313 1100 
L 313 1709 
L 2253 4666 
z
" transform="scale(0.015625)"/>
       </defs>
       <use xlink:href="#DejaVuSans-34"/>
       <use xlink:href="#DejaVuSans-30" x="63.623047"/>
      </g>
     </g>
    </g>
    <g id="text_10">
     <!-- t -->
     <g transform="translate(234.199844 335.860562) scale(0.1 -0.1)">
      <defs>
       <path id="DejaVuSans-74" d="M 1172 4494 
L 1172 3500 
L 2356 3500 
L 2356 3053 
L 1172 3053 
L 1172 1153 
Q 1172 725 1289 603 
Q 1406 481 1766 481 
L 2356 481 
L 2356 0 
L 1766 0 
Q 1100 0 847 248 
Q 594 497 594 1153 
L 594 3053 
L 172 3053 
L 172 3500 
L 594 3500 
L 594 4494 
L 1172 4494 
z
" transform="scale(0.015625)"/>
      </defs>
      <use xlink:href="#DejaVuSans-74"/>
     </g>
    </g>
   </g>
   <g id="matplotlib.axis_2">
    <g id="ytick_1">
     <g id="line2d_10">
      <defs>
       <path id="ma2e20f9c88" d="M 0 0 
L -3.5 0 
" style="stroke: #000000; stroke-width: 0.8"/>
      </defs>
      <g>
       <use xlink:href="#ma2e20f9c88" x="57.6" y="307.584" style="stroke: #000000; stroke-width: 0.8"/>
      </g>
     </g>
     <g id="text_11">
      <!-- 0.0 -->
      <g transform="translate(34.696875 311.383219) scale(0.1 -0.1)">
       <defs>
        <path id="DejaVuSans-2e" d="M 684 794 
L 1344 794 
L 1344 0 
L 684 0 
L 684 794 
z
" transform="scale(0.015625)"/>
       </defs>
       <use xlink:href="#DejaVuSans-30"/>
       <use xlink:href="#DejaVuSans-2e" x="63.623047"/>
       <use xlink:href="#DejaVuSans-30" x="95.410156"/>
      </g>
     </g>
    </g>
    <g id="ytick_2">
     <g id="line2d_11">
      <g>
       <use xlink:href="#ma2e20f9c88" x="57.6" y="254.3616" style="stroke: #000000; stroke-width: 0.8"/>
      </g>
     </g>
     <g id="text_12">
      <!-- 0.2 -->
      <g transform="translate(34.696875 258.160819) scale(0.1 -0.1)">
       <use xlink:href="#DejaVuSans-30"/>
       <use xlink:href="#DejaVuSans-2e" x="63.623047"/>
       <use xlink:href="#DejaVuSans-32" x="95.410156"/>
      </g>
     </g>
    </g>
    <g id="ytick_3">
     <g id="line2d_12">
      <g>
       <use xlink:href="#ma2e20f9c88" x="57.6" y="201.1392" style="stroke: #000000; stroke-width: 0.8"/>
      </g>
     </g>
     <g id="text_13">
      <!-- 0.4 -->
      <g transform="translate(34.696875 204.938419) scale(0.1 -0.1)">
       <use xlink:href="#DejaVuSans-30"/>
       <use xlink:href="#DejaVuSans-2e" x="63.623047"/>
       <use xlink:href="#DejaVuSans-34" x="95.410156"/>
      </g>
     </g>
    </g>
    <g id="ytick_4">
     <g id="line2d_13">
      <g>
       <use xlink:href="#ma2e20f9c88" x="57.6" y="147.9168" style="stroke: #000000; stroke-width: 0.8"/>
      </g>
     </g>
     <g id="text_14">
      <!-- 0.6 -->
      <g transform="translate(34.696875 151.716019) scale(0.1 -0.1)">
       <defs>
        <path id="DejaVuSans-36" d="M 2113 2584 
Q 1688 2584 1439 2293 
Q 1191 2003 1191 1497 
Q 1191 994 1439 701 
Q 1688 409 2113 409 
Q 2538 409 2786 701 
Q 3034 994 3034 1497 
Q 3034 2003 2786 2293 
Q 2538 2584 2113 2584 
z
M 3366 4563 
L 3366 3988 
Q 3128 4100 2886 4159 
Q 2644 4219 2406 4219 
Q 1781 4219 1451 3797 
Q 1122 3375 1075 2522 
Q 1259 2794 1537 2939 
Q 1816 3084 2150 3084 
Q 2853 3084 3261 2657 
Q 3669 2231 3669 1497 
Q 3669 778 3244 343 
Q 2819 -91 2113 -91 
Q 1303 -91 875 529 
Q 447 1150 447 2328 
Q 447 3434 972 4092 
Q 1497 4750 2381 4750 
Q 2619 4750 2861 4703 
Q 3103 4656 3366 4563 
z
" transform="scale(0.015625)"/>
       </defs>
       <use xlink:href="#DejaVuSans-30"/>
       <use xlink:href="#DejaVuSans-2e" x="63.623047"/>
       <use xlink:href="#DejaVuSans-36" x="95.410156"/>
      </g>
     </g>
    </g>
    <g id="ytick_5">
     <g id="line2d_14">
      <g>
       <use xlink:href="#ma2e20f9c88" x="57.6" y="94.6944" style="stroke: #000000; stroke-width: 0.8"/>
      </g>
     </g>
     <g id="text_15">
      <!-- 0.8 -->
      <g transform="translate(34.696875 98.493619) scale(0.1 -0.1)">
       <defs>
        <path id="DejaVuSans-38" d="M 2034 2216 
Q 1584 2216 1326 1975 
Q 1069 1734 1069 1313 
Q 1069 891 1326 650 
Q 1584 409 2034 409 
Q 2484 409 2743 651 
Q 3003 894 3003 1313 
Q 3003 1734 2745 1975 
Q 2488 2216 2034 2216 
z
M 1403 2484 
Q 997 2584 770 2862 
Q 544 3141 544 3541 
Q 544 4100 942 4425 
Q 1341 4750 2034 4750 
Q 2731 4750 3128 4425 
Q 3525 4100 3525 3541 
Q 3525 3141 3298 2862 
Q 3072 2584 2669 2484 
Q 3125 2378 3379 2068 
Q 3634 1759 3634 1313 
Q 3634 634 3220 271 
Q 2806 -91 2034 -91 
Q 1263 -91 848 271 
Q 434 634 434 1313 
Q 434 1759 690 2068 
Q 947 2378 1403 2484 
z
M 1172 3481 
Q 1172 3119 1398 2916 
Q 1625 2713 2034 2713 
Q 2441 2713 2670 2916 
Q 2900 3119 2900 3481 
Q 2900 3844 2670 4047 
Q 2441 4250 2034 4250 
Q 1625 4250 1398 4047 
Q 1172 3844 1172 3481 
z
" transform="scale(0.015625)"/>
       </defs>
       <use xlink:href="#DejaVuSans-30"/>
       <use xlink:href="#DejaVuSans-2e" x="63.623047"/>
       <use xlink:href="#DejaVuSans-38" x="95.410156"/>
      </g>
     </g>
    </g>
    <g id="ytick_6">
     <g id="line2d_15">
      <g>
       <use xlink:href="#ma2e20f9c88" x="57.6" y="41.472" style="stroke: #000000; stroke-width: 0.8"/>
      </g>
     </g>
     <g id="text_16">
      <!-- 1.0 -->
      <g transform="translate(34.696875 45.271219) scale(0.1 -0.1)">
       <use xlink:href="#DejaVuSans-31"/>
       <use xlink:href="#DejaVuSans-2e" x="63.623047"/>
       <use xlink:href="#DejaVuSans-30" x="95.410156"/>
      </g>
     </g>
    </g>
    <g id="text_17">
     <!-- p(context) -->
     <g transform="translate(28.617187 200.449875) rotate(-90) scale(0.1 -0.1)">
      <defs>
       <path id="DejaVuSans-70" d="M 1159 525 
L 1159 -1331 
L 581 -1331 
L 581 3500 
L 1159 3500 
L 1159 2969 
Q 1341 3281 1617 3432 
Q 1894 3584 2278 3584 
Q 2916 3584 3314 3078 
Q 3713 2572 3713 1747 
Q 3713 922 3314 415 
Q 2916 -91 2278 -91 
Q 1894 -91 1617 61 
Q 1341 213 1159 525 
z
M 3116 1747 
Q 3116 2381 2855 2742 
Q 2594 3103 2138 3103 
Q 1681 3103 1420 2742 
Q 1159 2381 1159 1747 
Q 1159 1113 1420 752 
Q 1681 391 2138 391 
Q 2594 391 2855 752 
Q 3116 1113 3116 1747 
z
" transform="scale(0.015625)"/>
       <path id="DejaVuSans-28" d="M 1984 4856 
Q 1566 4138 1362 3434 
Q 1159 2731 1159 2009 
Q 1159 1288 1364 580 
Q 1569 -128 1984 -844 
L 1484 -844 
Q 1016 -109 783 600 
Q 550 1309 550 2009 
Q 550 2706 781 3412 
Q 1013 4119 1484 4856 
L 1984 4856 
z
" transform="scale(0.015625)"/>
       <path id="DejaVuSans-63" d="M 3122 3366 
L 3122 2828 
Q 2878 2963 2633 3030 
Q 2388 3097 2138 3097 
Q 1578 3097 1268 2742 
Q 959 2388 959 1747 
Q 959 1106 1268 751 
Q 1578 397 2138 397 
Q 2388 397 2633 464 
Q 2878 531 3122 666 
L 3122 134 
Q 2881 22 2623 -34 
Q 2366 -91 2075 -91 
Q 1284 -91 818 406 
Q 353 903 353 1747 
Q 353 2603 823 3093 
Q 1294 3584 2113 3584 
Q 2378 3584 2631 3529 
Q 2884 3475 3122 3366 
z
" transform="scale(0.015625)"/>
       <path id="DejaVuSans-6f" d="M 1959 3097 
Q 1497 3097 1228 2736 
Q 959 2375 959 1747 
Q 959 1119 1226 758 
Q 1494 397 1959 397 
Q 2419 397 2687 759 
Q 2956 1122 2956 1747 
Q 2956 2369 2687 2733 
Q 2419 3097 1959 3097 
z
M 1959 3584 
Q 2709 3584 3137 3096 
Q 3566 2609 3566 1747 
Q 3566 888 3137 398 
Q 2709 -91 1959 -91 
Q 1206 -91 779 398 
Q 353 888 353 1747 
Q 353 2609 779 3096 
Q 1206 3584 1959 3584 
z
" transform="scale(0.015625)"/>
       <path id="DejaVuSans-6e" d="M 3513 2113 
L 3513 0 
L 2938 0 
L 2938 2094 
Q 2938 2591 2744 2837 
Q 2550 3084 2163 3084 
Q 1697 3084 1428 2787 
Q 1159 2491 1159 1978 
L 1159 0 
L 581 0 
L 581 3500 
L 1159 3500 
L 1159 2956 
Q 1366 3272 1645 3428 
Q 1925 3584 2291 3584 
Q 2894 3584 3203 3211 
Q 3513 2838 3513 2113 
z
" transform="scale(0.015625)"/>
       <path id="DejaVuSans-65" d="M 3597 1894 
L 3597 1613 
L 953 1613 
Q 991 1019 1311 708 
Q 1631 397 2203 397 
Q 2534 397 2845 478 
Q 3156 559 3463 722 
L 3463 178 
Q 3153 47 2828 -22 
Q 2503 -91 2169 -91 
Q 1331 -91 842 396 
Q 353 884 353 1716 
Q 353 2575 817 3079 
Q 1281 3584 2069 3584 
Q 2775 3584 3186 3129 
Q 3597 2675 3597 1894 
z
M 3022 2063 
Q 3016 2534 2758 2815 
Q 2500 3097 2075 3097 
Q 1594 3097 1305 2825 
Q 1016 2553 972 2059 
L 3022 2063 
z
" transform="scale(0.015625)"/>
       <path id="DejaVuSans-78" d="M 3513 3500 
L 2247 1797 
L 3578 0 
L 2900 0 
L 1881 1375 
L 863 0 
L 184 0 
L 1544 1831 
L 300 3500 
L 978 3500 
L 1906 2253 
L 2834 3500 
L 3513 3500 
z
" transform="scale(0.015625)"/>
       <path id="DejaVuSans-29" d="M 513 4856 
L 1013 4856 
Q 1481 4119 1714 3412 
Q 1947 2706 1947 2009 
Q 1947 1309 1714 600 
Q 1481 -109 1013 -844 
L 513 -844 
Q 928 -128 1133 580 
Q 1338 1288 1338 2009 
Q 1338 2731 1133 3434 
Q 928 4138 513 4856 
z
" transform="scale(0.015625)"/>
      </defs>
      <use xlink:href="#DejaVuSans-70"/>
      <use xlink:href="#DejaVuSans-28" x="63.476562"/>
      <use xlink:href="#DejaVuSans-63" x="102.490234"/>
      <use xlink:href="#DejaVuSans-6f" x="157.470703"/>
      <use xlink:href="#DejaVuSans-6e" x="218.652344"/>
      <use xlink:href="#DejaVuSans-74" x="282.03125"/>
      <use xlink:href="#DejaVuSans-65" x="321.240234"/>
      <use xlink:href="#DejaVuSans-78" x="381.013672"/>
      <use xlink:href="#DejaVuSans-74" x="440.193359"/>
      <use xlink:href="#DejaVuSans-29" x="479.402344"/>
     </g>
    </g>
   </g>
   <g id="line2d_16">
    <path d="M 73.832727 218.88 
L 81.949091 186.94656 
L 90.065455 182.103792 
L 98.181818 183.434183 
L 106.298182 181.791501 
L 114.414545 179.753118 
L 122.530909 177.654917 
L 130.647273 175.582686 
L 138.763636 187.445507 
L 146.88 177.163106 
L 154.996364 175.187556 
L 163.112727 173.582199 
L 171.229091 188.409387 
L 179.345455 175.30502 
L 187.461818 173.676557 
L 195.578182 172.426825 
L 203.694545 171.24136 
L 211.810909 170.109317 
L 219.927273 169.028747 
L 228.043636 167.99772 
L 236.16 177.918802 
L 244.276364 196.037231 
L 252.392727 195.84243 
L 260.509091 195.32008 
L 268.625455 194.812444 
L 276.741818 171.540321 
L 284.858182 192.50872 
L 292.974545 192.376317 
L 301.090909 191.879458 
L 309.207273 191.395308 
L 317.323636 174.608079 
L 325.44 189.986723 
L 333.556364 189.782571 
L 341.672727 189.337347 
L 349.789091 188.904667 
L 357.905455 188.487992 
L 366.021818 188.086625 
L 374.138182 187.699844 
L 382.254545 178.29251 
L 390.370909 187.11571 
" clip-path="url(#pb75f09311d)" style="fill: none; stroke: #add8e6; stroke-opacity: 0.3; stroke-width: 1.5; stroke-linecap: square"/>
   </g>
   <g id="line2d_17">
    <path d="M 73.832727 218.88 
L 81.949091 186.94656 
L 90.065455 182.103792 
L 98.181818 179.761618 
L 106.298182 177.398101 
L 114.414545 174.975866 
L 122.530909 187.025426 
L 130.647273 176.780374 
L 138.763636 186.025655 
L 146.88 177.664468 
L 154.996364 175.82602 
L 163.112727 186.169471 
L 171.229091 177.09468 
L 179.345455 175.558205 
L 187.461818 186.195099 
L 195.578182 176.753609 
L 203.694545 175.454195 
L 211.810909 174.399479 
L 219.927273 173.394016 
L 228.043636 172.431505 
L 236.16 179.577235 
L 244.276364 191.618641 
L 252.392727 191.093606 
L 260.509091 173.702193 
L 268.625455 189.212311 
L 276.741818 188.750466 
L 284.858182 188.045305 
L 292.974545 176.09674 
L 301.090909 186.892522 
L 309.207273 186.403824 
L 317.323636 177.369731 
L 325.44 185.591548 
L 333.556364 185.102615 
L 341.672727 178.409765 
L 349.789091 184.536518 
L 357.905455 184.060239 
L 366.021818 179.266384 
L 374.138182 183.676174 
L 382.254545 183.219566 
L 390.370909 182.722299 
" clip-path="url(#pb75f09311d)" style="fill: none; stroke: #add8e6; stroke-opacity: 0.3; stroke-width: 1.5; stroke-linecap: square"/>
   </g>
   <g id="line2d_18">
    <path d="M 73.832727 218.88 
L 81.949091 186.94656 
L 90.065455 182.103792 
L 98.181818 183.434183 
L 106.298182 182.418737 
L 114.414545 180.523643 
L 122.530909 184.907386 
L 130.647273 183.605435 
L 138.763636 182.009876 
L 146.88 180.415401 
L 154.996364 185.010143 
L 163.112727 183.914146 
L 171.229091 182.143142 
L 179.345455 180.862392 
L 187.461818 179.63654 
L 195.578182 185.617982 
L 203.694545 180.253665 
L 211.810909 179.108512 
L 219.927273 178.096006 
L 228.043636 177.125309 
L 236.16 182.311408 
L 244.276364 189.869667 
L 252.392727 176.985512 
L 260.509091 188.683571 
L 268.625455 177.768792 
L 276.741818 187.790139 
L 284.858182 178.432188 
L 292.974545 187.038929 
L 301.090909 186.486267 
L 309.207273 185.830459 
L 317.323636 180.188143 
L 325.44 185.331289 
L 333.556364 184.80239 
L 341.672727 184.224403 
L 349.789091 183.666447 
L 357.905455 183.128563 
L 366.021818 182.609886 
L 374.138182 183.007569 
L 382.254545 182.629611 
L 390.370909 182.994381 
" clip-path="url(#pb75f09311d)" style="fill: none; stroke: #add8e6; stroke-opacity: 0.3; stroke-width: 1.5; stroke-linecap: square"/>
   </g>
   <g id="line2d_19">
    <path d="M 73.832727 218.88 
L 81.949091 186.94656 
L 90.065455 182.103792 
L 98.181818 179.761618 
L 106.298182 177.398101 
L 114.414545 174.975866 
L 122.530909 172.588942 
L 130.647273 170.285745 
L 138.763636 168.086953 
L 146.88 166.000123 
L 154.996364 164.026295 
L 163.112727 162.163089 
L 171.229091 160.40629 
L 179.345455 158.750737 
L 187.461818 157.190836 
L 195.578182 155.720873 
L 203.694545 196.581066 
L 211.810909 159.907206 
L 219.927273 192.756251 
L 228.043636 162.072217 
L 236.16 172.037223 
L 244.276364 193.838297 
L 252.392727 193.781198 
L 260.509091 193.182234 
L 268.625455 192.594457 
L 276.741818 192.030908 
L 284.858182 166.308178 
L 292.974545 189.286717 
L 301.090909 189.284746 
L 309.207273 188.739557 
L 317.323636 188.203003 
L 325.44 187.687221 
L 333.556364 170.122262 
L 341.672727 186.157176 
L 349.789091 170.920859 
L 357.905455 185.236304 
L 366.021818 171.629019 
L 374.138182 184.435284 
L 382.254545 184.225511 
L 390.370909 183.771566 
" clip-path="url(#pb75f09311d)" style="fill: none; stroke: #add8e6; stroke-opacity: 0.3; stroke-width: 1.5; stroke-linecap: square"/>
   </g>
   <g id="line2d_20">
    <path d="M 73.832727 218.88 
L 81.949091 186.94656 
L 90.065455 182.103792 
L 98.181818 179.761618 
L 106.298182 184.854261 
L 114.414545 183.624499 
L 122.530909 181.870696 
L 130.647273 180.059837 
L 138.763636 178.265215 
L 146.88 176.514473 
L 154.996364 174.822063 
L 163.112727 173.195608 
L 171.229091 171.638635 
L 179.345455 190.093858 
L 187.461818 173.683363 
L 195.578182 172.013269 
L 203.694545 170.797146 
L 211.810909 190.267777 
L 219.927273 172.713301 
L 228.043636 171.336564 
L 236.16 179.196977 
L 244.276364 170.396725 
L 252.392727 190.733104 
L 260.509091 190.385296 
L 268.625455 172.827815 
L 276.741818 188.525619 
L 284.858182 188.091598 
L 292.974545 187.404253 
L 301.090909 186.738349 
L 309.207273 175.804766 
L 317.323636 185.748133 
L 325.44 185.290811 
L 333.556364 176.965448 
L 341.672727 176.26952 
L 349.789091 185.140811 
L 357.905455 176.891168 
L 366.021818 184.599142 
L 374.138182 184.178991 
L 382.254545 177.786714 
L 390.370909 177.238293 
" clip-path="url(#pb75f09311d)" style="fill: none; stroke: #add8e6; stroke-opacity: 0.3; stroke-width: 1.5; stroke-linecap: square"/>
   </g>
   <g id="line2d_21">
    <path d="M 73.832727 218.88 
L 81.949091 186.94656 
L 90.065455 182.103792 
L 98.181818 179.761618 
L 106.298182 177.398101 
L 114.414545 174.975866 
L 122.530909 172.588942 
L 130.647273 170.285745 
L 138.763636 168.086953 
L 146.88 166.000123 
L 154.996364 164.026295 
L 163.112727 162.163089 
L 171.229091 160.40629 
L 179.345455 158.750737 
L 187.461818 157.190836 
L 195.578182 155.720873 
L 203.694545 154.335203 
L 211.810909 153.028362 
L 219.927273 151.795136 
L 228.043636 199.501029 
L 236.16 170.835187 
L 244.276364 199.371514 
L 252.392727 199.861598 
L 260.509091 159.56915 
L 268.625455 157.477335 
L 276.741818 195.496893 
L 284.858182 196.149106 
L 292.974545 195.787263 
L 301.090909 195.416906 
L 309.207273 195.064095 
L 317.323636 194.728218 
L 325.44 194.408078 
L 333.556364 194.102585 
L 341.672727 193.810757 
L 349.789091 193.531708 
L 357.905455 193.264632 
L 366.021818 166.959713 
L 374.138182 191.083914 
L 382.254545 191.435428 
L 390.370909 191.182831 
" clip-path="url(#pb75f09311d)" style="fill: none; stroke: #add8e6; stroke-opacity: 0.3; stroke-width: 1.5; stroke-linecap: square"/>
   </g>
   <g id="line2d_22">
    <path d="M 73.832727 218.88 
L 81.949091 186.94656 
L 90.065455 182.103792 
L 98.181818 179.761618 
L 106.298182 184.854261 
L 114.414545 180.701365 
L 122.530909 178.596808 
L 130.647273 176.620907 
L 138.763636 174.702842 
L 146.88 172.854687 
L 154.996364 171.085 
L 163.112727 169.397347 
L 171.229091 190.777968 
L 179.345455 171.879012 
L 187.461818 170.018454 
L 195.578182 168.724545 
L 203.694545 167.507228 
L 211.810909 166.34888 
L 219.927273 192.474458 
L 228.043636 168.84301 
L 236.16 177.239506 
L 244.276364 193.582697 
L 252.392727 169.213973 
L 260.509091 191.038658 
L 268.625455 170.581551 
L 276.741818 169.447785 
L 284.858182 189.825196 
L 292.974545 189.494181 
L 301.090909 188.807401 
L 309.207273 188.140886 
L 317.323636 187.500291 
L 325.44 186.884422 
L 333.556364 186.292045 
L 341.672727 185.722009 
L 349.789091 175.31343 
L 357.905455 184.8624 
L 366.021818 184.487691 
L 374.138182 183.979082 
L 382.254545 183.486447 
L 390.370909 183.011265 
" clip-path="url(#pb75f09311d)" style="fill: none; stroke: #add8e6; stroke-opacity: 0.3; stroke-width: 1.5; stroke-linecap: square"/>
   </g>
   <g id="line2d_23">
    <path d="M 73.832727 218.88 
L 81.949091 186.94656 
L 90.065455 182.103792 
L 98.181818 179.761618 
L 106.298182 184.854261 
L 114.414545 180.701365 
L 122.530909 178.596808 
L 130.647273 176.620907 
L 138.763636 174.702842 
L 146.88 172.854687 
L 154.996364 171.085 
L 163.112727 189.82275 
L 171.229091 173.344571 
L 179.345455 171.476606 
L 187.461818 170.12171 
L 195.578182 168.844121 
L 203.694545 167.627698 
L 211.810909 166.469773 
L 219.927273 165.367868 
L 228.043636 164.319383 
L 236.16 175.798213 
L 244.276364 165.447813 
L 252.392727 191.064534 
L 260.509091 190.865364 
L 268.625455 168.360703 
L 276.741818 188.367561 
L 284.858182 188.031298 
L 292.974545 187.331292 
L 301.090909 186.65135 
L 309.207273 171.684489 
L 317.323636 185.231495 
L 325.44 184.834753 
L 333.556364 173.061486 
L 341.672727 183.796734 
L 349.789091 183.380483 
L 357.905455 174.200876 
L 366.021818 182.622316 
L 374.138182 174.654135 
L 382.254545 174.03309 
L 390.370909 182.620144 
" clip-path="url(#pb75f09311d)" style="fill: none; stroke: #add8e6; stroke-opacity: 0.3; stroke-width: 1.5; stroke-linecap: square"/>
   </g>
   <g id="line2d_24">
    <path d="M 73.832727 218.88 
L 81.949091 186.94656 
L 90.065455 182.103792 
L 98.181818 183.434183 
L 106.298182 181.791501 
L 114.414545 184.007262 
L 122.530909 182.123986 
L 130.647273 180.322606 
L 138.763636 178.544168 
L 146.88 176.80891 
L 154.996364 175.130944 
L 163.112727 173.51794 
L 171.229091 171.973491 
L 179.345455 190.168858 
L 187.461818 173.989426 
L 195.578182 172.337313 
L 203.694545 171.130405 
L 211.810909 190.35545 
L 219.927273 173.022047 
L 228.043636 171.659894 
L 236.16 179.429875 
L 244.276364 192.532052 
L 252.392727 172.192247 
L 260.509091 190.503862 
L 268.625455 190.113868 
L 276.741818 189.413145 
L 284.858182 188.733269 
L 292.974545 188.079352 
L 301.090909 187.450363 
L 309.207273 186.845198 
L 317.323636 186.2628 
L 325.44 185.702158 
L 333.556364 185.162307 
L 341.672727 184.642324 
L 349.789091 184.141328 
L 357.905455 180.061688 
L 366.021818 183.88826 
L 374.138182 183.487514 
L 382.254545 182.351252 
L 390.370909 182.336594 
" clip-path="url(#pb75f09311d)" style="fill: none; stroke: #add8e6; stroke-opacity: 0.3; stroke-width: 1.5; stroke-linecap: square"/>
   </g>
   <g id="line2d_25">
    <path d="M 73.832727 218.88 
L 81.949091 186.94656 
L 90.065455 182.103792 
L 98.181818 179.761618 
L 106.298182 177.398101 
L 114.414545 186.009894 
L 122.530909 185.087354 
L 130.647273 183.547424 
L 138.763636 181.954496 
L 146.88 180.373016 
L 154.996364 178.82515 
L 163.112727 177.323101 
L 171.229091 175.873811 
L 179.345455 187.552205 
L 187.461818 177.174218 
L 195.578182 175.736343 
L 203.694545 187.463299 
L 211.810909 176.934769 
L 219.927273 175.713468 
L 228.043636 174.738068 
L 236.16 180.96469 
L 244.276364 190.692895 
L 252.392727 190.124295 
L 260.509091 175.695467 
L 268.625455 188.635136 
L 276.741818 176.533513 
L 284.858182 187.643667 
L 292.974545 187.124234 
L 301.090909 177.898945 
L 309.207273 186.260698 
L 317.323636 185.739726 
L 325.44 185.117448 
L 333.556364 184.516353 
L 341.672727 183.93728 
L 349.789091 183.37928 
L 357.905455 182.84142 
L 366.021818 182.322814 
L 374.138182 181.822617 
L 382.254545 182.426858 
L 390.370909 182.434171 
" clip-path="url(#pb75f09311d)" style="fill: none; stroke: #add8e6; stroke-opacity: 0.3; stroke-width: 1.5; stroke-linecap: square"/>
   </g>
   <g id="line2d_26">
    <path d="M 73.832727 218.88 
L 81.949091 186.94656 
L 90.065455 182.103792 
L 98.181818 183.434183 
L 106.298182 182.418737 
L 114.414545 180.523643 
L 122.530909 184.907386 
L 130.647273 183.605435 
L 138.763636 182.604906 
L 146.88 183.386374 
L 154.996364 182.678839 
L 163.112727 183.295176 
L 171.229091 182.042876 
L 179.345455 180.771398 
L 187.461818 179.539421 
L 195.578182 178.351219 
L 203.694545 177.207981 
L 211.810909 187.5471 
L 219.927273 186.887464 
L 228.043636 179.141367 
L 236.16 182.784959 
L 244.276364 188.006155 
L 252.392727 187.334405 
L 260.509091 186.588753 
L 268.625455 180.043407 
L 276.741818 185.996746 
L 284.858182 185.414484 
L 292.974545 184.759287 
L 301.090909 184.126964 
L 309.207273 183.518161 
L 317.323636 182.931959 
L 325.44 182.367434 
L 333.556364 183.452635 
L 341.672727 183.466079 
L 349.789091 183.466881 
L 357.905455 183.467461 
L 366.021818 183.467993 
L 374.138182 183.468482 
L 382.254545 183.468935 
L 390.370909 183.469353 
" clip-path="url(#pb75f09311d)" style="fill: none; stroke: #add8e6; stroke-opacity: 0.3; stroke-width: 1.5; stroke-linecap: square"/>
   </g>
   <g id="line2d_27">
    <path d="M 73.832727 218.88 
L 81.949091 186.94656 
L 90.065455 182.103792 
L 98.181818 179.761618 
L 106.298182 184.854261 
L 114.414545 180.701365 
L 122.530909 184.568134 
L 130.647273 181.126875 
L 138.763636 179.362487 
L 146.88 177.702611 
L 154.996364 176.096647 
L 163.112727 174.550073 
L 171.229091 173.067 
L 179.345455 171.648989 
L 187.461818 190.367853 
L 195.578182 173.668369 
L 203.694545 188.733491 
L 211.810909 174.829964 
L 219.927273 187.38005 
L 228.043636 175.78507 
L 236.16 180.642822 
L 244.276364 174.561588 
L 252.392727 187.509807 
L 260.509091 175.635016 
L 268.625455 186.412122 
L 276.741818 185.7716 
L 284.858182 184.970428 
L 292.974545 177.7843 
L 301.090909 184.222956 
L 309.207273 183.593347 
L 317.323636 178.845098 
L 325.44 183.116182 
L 333.556364 182.513331 
L 341.672727 181.869077 
L 349.789091 181.247359 
L 357.905455 180.648081 
L 366.021818 180.070268 
L 374.138182 179.512981 
L 382.254545 178.975326 
L 390.370909 181.082095 
" clip-path="url(#pb75f09311d)" style="fill: none; stroke: #add8e6; stroke-opacity: 0.3; stroke-width: 1.5; stroke-linecap: square"/>
   </g>
   <g id="line2d_28">
    <path d="M 73.832727 218.88 
L 81.949091 186.94656 
L 90.065455 182.103792 
L 98.181818 183.434183 
L 106.298182 181.791501 
L 114.414545 179.753118 
L 122.530909 177.654917 
L 130.647273 186.403731 
L 138.763636 178.853595 
L 146.88 176.904905 
L 154.996364 175.235365 
L 163.112727 187.728917 
L 171.229091 176.732896 
L 179.345455 175.096004 
L 187.461818 187.57995 
L 195.578182 176.457812 
L 203.694545 175.086821 
L 211.810909 174.002943 
L 219.927273 172.971152 
L 228.043636 189.100328 
L 236.16 180.959922 
L 244.276364 189.410492 
L 252.392727 188.762772 
L 260.509091 175.958587 
L 268.625455 187.398257 
L 276.741818 176.724127 
L 284.858182 186.492461 
L 292.974545 177.376128 
L 301.090909 185.730897 
L 309.207273 185.152195 
L 317.323636 184.46844 
L 325.44 183.808134 
L 333.556364 183.172184 
L 341.672727 182.559542 
L 349.789091 181.969181 
L 357.905455 181.400121 
L 366.021818 180.85143 
L 374.138182 182.23682 
L 382.254545 181.78006 
L 390.370909 181.386949 
" clip-path="url(#pb75f09311d)" style="fill: none; stroke: #add8e6; stroke-opacity: 0.3; stroke-width: 1.5; stroke-linecap: square"/>
   </g>
   <g id="line2d_29">
    <path d="M 73.832727 218.88 
L 81.949091 186.94656 
L 90.065455 182.103792 
L 98.181818 183.434183 
L 106.298182 181.791501 
L 114.414545 179.753118 
L 122.530909 185.279984 
L 130.647273 180.525356 
L 138.763636 184.842153 
L 146.88 180.930054 
L 154.996364 179.325631 
L 163.112727 177.847175 
L 171.229091 186.555846 
L 179.345455 178.853399 
L 187.461818 177.447729 
L 195.578182 176.257315 
L 203.694545 175.119625 
L 211.810909 174.029476 
L 219.927273 189.384133 
L 228.043636 175.497713 
L 236.16 181.234506 
L 244.276364 190.60541 
L 252.392727 190.019691 
L 260.509091 176.148662 
L 268.625455 188.579342 
L 276.741818 188.066114 
L 284.858182 177.665292 
L 292.974545 187.062903 
L 301.090909 178.263466 
L 309.207273 186.383449 
L 317.323636 178.777485 
L 325.44 185.806002 
L 333.556364 185.288055 
L 341.672727 179.754593 
L 349.789091 184.805428 
L 357.905455 184.307151 
L 366.021818 183.761523 
L 374.138182 183.234453 
L 382.254545 182.725953 
L 390.370909 181.92903 
" clip-path="url(#pb75f09311d)" style="fill: none; stroke: #add8e6; stroke-opacity: 0.3; stroke-width: 1.5; stroke-linecap: square"/>
   </g>
   <g id="line2d_30">
    <path d="M 73.832727 218.88 
L 81.949091 186.94656 
L 90.065455 182.103792 
L 98.181818 179.761618 
L 106.298182 177.398101 
L 114.414545 174.975866 
L 122.530909 172.588942 
L 130.647273 170.285745 
L 138.763636 168.086953 
L 146.88 166.000123 
L 154.996364 164.026295 
L 163.112727 191.737606 
L 171.229091 191.854956 
L 179.345455 169.12164 
L 187.461818 166.983661 
L 195.578182 165.588502 
L 203.694545 164.283194 
L 211.810909 163.043045 
L 219.927273 161.864394 
L 228.043636 193.350767 
L 236.16 175.843648 
L 244.276364 193.536537 
L 252.392727 166.24184 
L 260.509091 190.687948 
L 268.625455 167.734208 
L 276.741818 166.438739 
L 284.858182 189.298975 
L 292.974545 189.091758 
L 301.090909 188.42249 
L 309.207273 187.770124 
L 317.323636 187.143345 
L 325.44 186.541032 
L 333.556364 185.961948 
L 341.672727 185.404936 
L 349.789091 184.868911 
L 357.905455 184.352858 
L 366.021818 183.855822 
L 374.138182 183.376904 
L 382.254545 174.695951 
L 390.370909 182.772028 
" clip-path="url(#pb75f09311d)" style="fill: none; stroke: #add8e6; stroke-opacity: 0.3; stroke-width: 1.5; stroke-linecap: square"/>
   </g>
   <g id="line2d_31">
    <path d="M 73.832727 218.88 
L 81.949091 186.94656 
L 90.065455 182.103792 
L 98.181818 179.761618 
L 106.298182 177.398101 
L 114.414545 174.975866 
L 122.530909 172.588942 
L 130.647273 170.285745 
L 138.763636 168.086953 
L 146.88 166.000123 
L 154.996364 164.026295 
L 163.112727 162.163089 
L 171.229091 160.40629 
L 179.345455 158.750737 
L 187.461818 157.190836 
L 195.578182 155.720873 
L 203.694545 154.335203 
L 211.810909 197.557299 
L 219.927273 198.423968 
L 228.043636 160.064273 
L 236.16 171.906189 
L 244.276364 198.136923 
L 252.392727 160.984022 
L 260.509091 158.998104 
L 268.625455 158.087879 
L 276.741818 195.769044 
L 284.858182 161.269072 
L 292.974545 192.61265 
L 301.090909 162.931401 
L 309.207273 189.946859 
L 317.323636 190.041277 
L 325.44 189.477358 
L 333.556364 188.920997 
L 341.672727 188.387197 
L 349.789091 187.875003 
L 357.905455 167.328829 
L 366.021818 185.953101 
L 374.138182 185.896896 
L 382.254545 168.722058 
L 390.370909 167.808557 
" clip-path="url(#pb75f09311d)" style="fill: none; stroke: #add8e6; stroke-opacity: 0.3; stroke-width: 1.5; stroke-linecap: square"/>
   </g>
   <g id="line2d_32">
    <path d="M 73.832727 218.88 
L 81.949091 186.94656 
L 90.065455 182.103792 
L 98.181818 179.761618 
L 106.298182 177.398101 
L 114.414545 174.975866 
L 122.530909 172.588942 
L 130.647273 170.285745 
L 138.763636 168.086953 
L 146.88 166.000123 
L 154.996364 164.026295 
L 163.112727 191.737606 
L 171.229091 191.854956 
L 179.345455 169.12164 
L 187.461818 188.777507 
L 195.578182 170.60973 
L 203.694545 168.879831 
L 211.810909 187.869138 
L 219.927273 170.811856 
L 228.043636 169.373084 
L 236.16 177.100849 
L 244.276364 168.41069 
L 252.392727 188.464835 
L 260.509091 188.089097 
L 268.625455 187.308859 
L 276.741818 186.549594 
L 284.858182 185.819276 
L 292.974545 185.116892 
L 301.090909 184.441263 
L 309.207273 183.791244 
L 317.323636 183.165727 
L 325.44 182.563645 
L 333.556364 176.296706 
L 341.672727 182.093203 
L 349.789091 181.64375 
L 357.905455 181.114479 
L 366.021818 180.602795 
L 374.138182 180.10943 
L 382.254545 179.669683 
L 390.370909 179.663617 
" clip-path="url(#pb75f09311d)" style="fill: none; stroke: #add8e6; stroke-opacity: 0.3; stroke-width: 1.5; stroke-linecap: square"/>
   </g>
   <g id="line2d_33">
    <path d="M 73.832727 218.88 
L 81.949091 186.94656 
L 90.065455 182.103792 
L 98.181818 179.761618 
L 106.298182 177.398101 
L 114.414545 174.975866 
L 122.530909 172.588942 
L 130.647273 187.981749 
L 138.763636 174.792856 
L 146.88 186.655419 
L 154.996364 175.88853 
L 163.112727 174.035859 
L 171.229091 186.508201 
L 179.345455 175.52137 
L 187.461818 173.98886 
L 195.578182 172.777503 
L 203.694545 171.626194 
L 211.810909 188.188996 
L 219.927273 173.303193 
L 228.043636 172.026794 
L 236.16 178.866131 
L 244.276364 171.079804 
L 252.392727 188.878431 
L 260.509091 188.389288 
L 268.625455 187.59151 
L 276.741818 186.817843 
L 284.858182 174.823791 
L 292.974545 185.612153 
L 301.090909 185.077097 
L 309.207273 184.385519 
L 317.323636 176.772428 
L 325.44 183.6964 
L 333.556364 183.168484 
L 341.672727 182.555962 
L 349.789091 178.299214 
L 357.905455 182.203836 
L 366.021818 178.534974 
L 374.138182 181.964942 
L 382.254545 178.741356 
L 390.370909 181.757795 
" clip-path="url(#pb75f09311d)" style="fill: none; stroke: #add8e6; stroke-opacity: 0.3; stroke-width: 1.5; stroke-linecap: square"/>
   </g>
   <g id="line2d_34">
    <path d="M 73.832727 218.88 
L 81.949091 186.94656 
L 90.065455 182.103792 
L 98.181818 183.434183 
L 106.298182 182.418737 
L 114.414545 180.523643 
L 122.530909 184.907386 
L 130.647273 183.605435 
L 138.763636 182.009876 
L 146.88 180.415401 
L 154.996364 178.855526 
L 163.112727 177.342708 
L 171.229091 175.883684 
L 179.345455 174.481918 
L 187.461818 173.13876 
L 195.578182 171.854168 
L 203.694545 190.792556 
L 211.810909 173.744052 
L 219.927273 172.317174 
L 228.043636 171.293824 
L 236.16 179.739499 
L 244.276364 193.946979 
L 252.392727 193.588348 
L 260.509091 172.792975 
L 268.625455 191.413092 
L 276.741818 173.931555 
L 284.858182 189.971884 
L 292.974545 174.903795 
L 301.090909 174.003007 
L 309.207273 189.381854 
L 317.323636 189.018971 
L 325.44 175.741293 
L 333.556364 187.809216 
L 341.672727 187.416543 
L 349.789091 186.86572 
L 357.905455 177.435626 
L 366.021818 176.80962 
L 374.138182 186.587327 
L 382.254545 186.223844 
L 390.370909 177.900594 
" clip-path="url(#pb75f09311d)" style="fill: none; stroke: #add8e6; stroke-opacity: 0.3; stroke-width: 1.5; stroke-linecap: square"/>
   </g>
   <g id="line2d_35">
    <path d="M 73.832727 218.88 
L 81.949091 186.94656 
L 90.065455 182.103792 
L 98.181818 179.761618 
L 106.298182 177.398101 
L 114.414545 174.975866 
L 122.530909 187.025426 
L 130.647273 186.34534 
L 138.763636 178.594802 
L 146.88 176.633401 
L 154.996364 174.962105 
L 163.112727 173.364096 
L 171.229091 171.833522 
L 179.345455 170.371278 
L 187.461818 190.149098 
L 195.578182 189.771932 
L 203.694545 173.742126 
L 211.810909 172.232803 
L 219.927273 188.667005 
L 228.043636 173.810493 
L 236.16 179.91172 
L 244.276364 189.939131 
L 252.392727 173.672626 
L 260.509091 188.359009 
L 268.625455 174.64163 
L 276.741818 187.173695 
L 284.858182 186.641417 
L 292.974545 185.91364 
L 301.090909 185.209559 
L 309.207273 177.43778 
L 317.323636 184.491936 
L 325.44 177.877558 
L 333.556364 184.010651 
L 341.672727 183.490366 
L 349.789091 182.89898 
L 357.905455 182.327714 
L 366.021818 181.776962 
L 374.138182 181.245832 
L 382.254545 180.733454 
L 390.370909 180.239008 
" clip-path="url(#pb75f09311d)" style="fill: none; stroke: #add8e6; stroke-opacity: 0.3; stroke-width: 1.5; stroke-linecap: square"/>
   </g>
   <g id="line2d_36">
    <path d="M 73.832727 218.88 
L 81.949091 222.42816 
L 90.065455 225.039817 
L 98.181818 224.729661 
L 106.298182 225.108327 
L 114.414545 225.759971 
L 122.530909 226.473082 
L 130.647273 227.198021 
L 138.763636 223.179488 
L 146.88 226.349923 
L 154.996364 227.155811 
L 163.112727 227.720477 
L 171.229091 222.984764 
L 179.345455 226.871657 
L 187.461818 227.548222 
L 195.578182 227.978785 
L 203.694545 228.385528 
L 211.810909 228.77682 
L 219.927273 229.152995 
L 228.043636 229.514265 
L 236.16 226.260725 
L 244.276364 220.776307 
L 252.392727 220.623347 
L 260.509091 220.689679 
L 268.625455 220.756772 
L 276.741818 228.248986 
L 284.858182 221.739304 
L 292.974545 221.584502 
L 301.090909 221.662268 
L 309.207273 221.741929 
L 317.323636 227.327756 
L 325.44 222.353175 
L 333.556364 222.276324 
L 341.672727 222.354567 
L 349.789091 222.433112 
L 357.905455 222.508934 
L 366.021818 222.582111 
L 374.138182 222.652766 
L 382.254545 226.328854 
L 390.370909 222.941276 
" clip-path="url(#pb75f09311d)" style="fill: none; stroke: #ff0000; stroke-opacity: 0.1; stroke-width: 1.5; stroke-linecap: square"/>
   </g>
   <g id="line2d_37">
    <path d="M 73.832727 218.88 
L 81.949091 222.42816 
L 90.065455 225.039817 
L 98.181818 225.801004 
L 106.298182 226.534539 
L 114.414545 227.35331 
L 122.530909 223.460525 
L 130.647273 226.352257 
L 138.763636 223.75469 
L 146.88 226.00435 
L 154.996364 226.712299 
L 163.112727 223.760549 
L 171.229091 226.117921 
L 179.345455 226.703903 
L 187.461818 223.80326 
L 195.578182 226.172162 
L 203.694545 226.661037 
L 211.810909 227.001392 
L 219.927273 227.32536 
L 228.043636 227.637509 
L 236.16 225.552735 
L 244.276364 222.241569 
L 252.392727 222.260221 
L 260.509091 227.10708 
L 268.625455 223.01015 
L 276.741818 223.009453 
L 284.858182 223.175674 
L 292.974545 226.407353 
L 301.090909 223.625474 
L 309.207273 223.677499 
L 317.323636 226.029965 
L 325.44 223.984921 
L 333.556364 224.059365 
L 341.672727 225.731974 
L 349.789091 224.268008 
L 357.905455 224.354867 
L 366.021818 225.494927 
L 374.138182 224.492345 
L 382.254545 224.585233 
L 390.370909 224.710522 
" clip-path="url(#pb75f09311d)" style="fill: none; stroke: #ff0000; stroke-opacity: 0.1; stroke-width: 1.5; stroke-linecap: square"/>
   </g>
   <g id="line2d_38">
    <path d="M 73.832727 218.88 
L 81.949091 222.42816 
L 90.065455 225.039817 
L 98.181818 224.729661 
L 106.298182 224.725696 
L 114.414545 225.275541 
L 122.530909 224.013107 
L 130.647273 224.299869 
L 138.763636 224.801494 
L 146.88 225.316275 
L 154.996364 223.803526 
L 163.112727 224.038053 
L 171.229091 224.693566 
L 179.345455 225.096796 
L 187.461818 225.478418 
L 195.578182 223.634727 
L 203.694545 225.188949 
L 211.810909 225.578329 
L 219.927273 225.890083 
L 228.043636 226.189753 
L 236.16 224.643077 
L 244.276364 222.44755 
L 252.392727 226.094469 
L 260.509091 222.892344 
L 268.625455 225.825034 
L 276.741818 223.184396 
L 284.858182 225.602765 
L 292.974545 223.422273 
L 301.090909 223.499496 
L 309.207273 223.659001 
L 317.323636 225.123266 
L 325.44 223.849219 
L 333.556364 223.948358 
L 341.672727 224.091101 
L 349.789091 224.230287 
L 357.905455 224.365203 
L 366.021818 224.495965 
L 374.138182 224.4175 
L 382.254545 224.490072 
L 390.370909 224.420226 
" clip-path="url(#pb75f09311d)" style="fill: none; stroke: #ff0000; stroke-opacity: 0.1; stroke-width: 1.5; stroke-linecap: square"/>
   </g>
   <g id="line2d_39">
    <path d="M 73.832727 218.88 
L 81.949091 222.42816 
L 90.065455 225.039817 
L 98.181818 225.801004 
L 106.298182 226.534539 
L 114.414545 227.35331 
L 122.530909 228.202288 
L 130.647273 229.048544 
L 138.763636 229.876147 
L 146.88 230.677062 
L 154.996364 231.44715 
L 163.112727 232.184432 
L 171.229091 232.88822 
L 179.345455 233.55864 
L 187.461818 234.196341 
L 195.578182 234.802312 
L 203.694545 220.5089 
L 211.810909 232.66391 
L 219.927273 222.030397 
L 228.043636 231.789923 
L 236.16 228.617348 
L 244.276364 221.815912 
L 252.392727 221.623277 
L 260.509091 221.727337 
L 268.625455 221.833525 
L 276.741818 221.933569 
L 284.858182 230.497766 
L 292.974545 223.104461 
L 301.090909 222.920504 
L 309.207273 223.027782 
L 317.323636 223.1386 
L 325.44 223.24521 
L 333.556364 229.297772 
L 341.672727 223.912751 
L 349.789091 228.979103 
L 357.905455 224.265299 
L 366.021818 228.699905 
L 374.138182 224.566078 
L 382.254545 224.537689 
L 390.370909 224.642966 
" clip-path="url(#pb75f09311d)" style="fill: none; stroke: #ff0000; stroke-opacity: 0.1; stroke-width: 1.5; stroke-linecap: square"/>
   </g>
   <g id="line2d_40">
    <path d="M 73.832727 218.88 
L 81.949091 222.42816 
L 90.065455 225.039817 
L 98.181818 225.801004 
L 106.298182 224.190973 
L 114.414545 224.376862 
L 122.530909 224.92638 
L 130.647273 225.52301 
L 138.763636 226.125269 
L 146.88 226.721856 
L 154.996364 227.306825 
L 163.112727 227.876498 
L 171.229091 228.428561 
L 179.345455 222.407202 
L 187.461818 227.41483 
L 195.578182 228.141428 
L 203.694545 228.568561 
L 211.810909 222.516778 
L 219.927273 227.665805 
L 228.043636 228.26149 
L 236.16 225.813178 
L 244.276364 228.508303 
L 252.392727 222.543445 
L 260.509091 222.454821 
L 268.625455 227.600193 
L 276.741818 223.210995 
L 284.858182 223.201602 
L 292.974545 223.362556 
L 301.090909 223.521972 
L 309.207273 226.73341 
L 317.323636 223.924673 
L 325.44 223.974271 
L 333.556364 226.378121 
L 341.672727 226.623134 
L 349.789091 224.115962 
L 357.905455 226.369514 
L 366.021818 224.291127 
L 374.138182 224.352839 
L 382.254545 226.107412 
L 390.370909 226.287913 
" clip-path="url(#pb75f09311d)" style="fill: none; stroke: #ff0000; stroke-opacity: 0.1; stroke-width: 1.5; stroke-linecap: square"/>
   </g>
   <g id="line2d_41">
    <path d="M 73.832727 218.88 
L 81.949091 222.42816 
L 90.065455 225.039817 
L 98.181818 225.801004 
L 106.298182 226.534539 
L 114.414545 227.35331 
L 122.530909 228.202288 
L 130.647273 229.048544 
L 138.763636 229.876147 
L 146.88 230.677062 
L 154.996364 231.44715 
L 163.112727 232.184432 
L 171.229091 232.88822 
L 179.345455 233.55864 
L 187.461818 234.196341 
L 195.578182 234.802312 
L 203.694545 235.377747 
L 211.810909 235.923969 
L 219.927273 236.442361 
L 228.043636 219.622198 
L 236.16 228.821288 
L 244.276364 219.816313 
L 252.392727 219.393253 
L 260.509091 232.951971 
L 268.625455 234.006978 
L 276.741818 221.378596 
L 284.858182 220.89594 
L 292.974545 220.908423 
L 301.090909 220.931804 
L 309.207273 220.951774 
L 317.323636 220.968517 
L 325.44 220.98252 
L 333.556364 220.994194 
L 341.672727 221.00388 
L 349.789091 221.011863 
L 357.905455 221.018382 
L 366.021818 230.820713 
L 374.138182 221.980449 
L 382.254545 221.698073 
L 390.370909 221.710321 
" clip-path="url(#pb75f09311d)" style="fill: none; stroke: #ff0000; stroke-opacity: 0.1; stroke-width: 1.5; stroke-linecap: square"/>
   </g>
   <g id="line2d_42">
    <path d="M 73.832727 218.88 
L 81.949091 222.42816 
L 90.065455 225.039817 
L 98.181818 225.801004 
L 106.298182 224.190973 
L 114.414545 225.146307 
L 122.530909 225.87454 
L 130.647273 226.540306 
L 138.763636 227.198532 
L 146.88 227.845222 
L 154.996364 228.475089 
L 163.112727 229.084814 
L 171.229091 222.309694 
L 179.345455 227.858781 
L 187.461818 228.691384 
L 195.578182 229.155701 
L 203.694545 229.588734 
L 211.810909 230.003786 
L 219.927273 221.999463 
L 228.043636 228.833318 
L 236.16 226.41304 
L 244.276364 221.733246 
L 252.392727 228.674002 
L 260.509091 222.672751 
L 268.625455 228.191747 
L 276.741818 228.683109 
L 284.858182 223.144313 
L 292.974545 223.088826 
L 301.090909 223.246633 
L 309.207273 223.403946 
L 317.323636 223.555983 
L 325.44 223.702907 
L 333.556364 223.844952 
L 341.672727 223.98233 
L 349.789091 226.90278 
L 357.905455 224.317378 
L 366.021818 224.358517 
L 374.138182 224.482785 
L 382.254545 224.604785 
L 390.370909 224.723016 
" clip-path="url(#pb75f09311d)" style="fill: none; stroke: #ff0000; stroke-opacity: 0.1; stroke-width: 1.5; stroke-linecap: square"/>
   </g>
   <g id="line2d_43">
    <path d="M 73.832727 218.88 
L 81.949091 222.42816 
L 90.065455 225.039817 
L 98.181818 225.801004 
L 106.298182 224.190973 
L 114.414545 225.146307 
L 122.530909 225.87454 
L 130.647273 226.540306 
L 138.763636 227.198532 
L 146.88 227.845222 
L 154.996364 228.475089 
L 163.112727 222.589492 
L 171.229091 227.354343 
L 179.345455 228.16759 
L 187.461818 228.647702 
L 195.578182 229.097439 
L 203.694545 229.529155 
L 211.810909 229.943365 
L 219.927273 230.340345 
L 228.043636 230.720486 
L 236.16 226.892515 
L 244.276364 230.159307 
L 252.392727 222.490228 
L 260.509091 222.329923 
L 268.625455 229.02286 
L 276.741818 223.345989 
L 284.858182 223.28929 
L 292.974545 223.453777 
L 301.090909 223.617705 
L 309.207273 228.011909 
L 317.323636 224.190654 
L 325.44 224.208753 
L 333.556364 227.571026 
L 341.672727 224.618214 
L 349.789091 224.66563 
L 357.905455 227.216708 
L 366.021818 224.959402 
L 374.138182 227.06354 
L 382.254545 227.279589 
L 390.370909 224.993126 
" clip-path="url(#pb75f09311d)" style="fill: none; stroke: #ff0000; stroke-opacity: 0.1; stroke-width: 1.5; stroke-linecap: square"/>
   </g>
   <g id="line2d_44">
    <path d="M 73.832727 218.88 
L 81.949091 222.42816 
L 90.065455 225.039817 
L 98.181818 224.729661 
L 106.298182 225.108327 
L 114.414545 224.186158 
L 122.530909 224.821835 
L 130.647273 225.416339 
L 138.763636 226.009718 
L 146.88 226.597378 
L 154.996364 227.173794 
L 163.112727 227.735313 
L 171.229091 228.279622 
L 179.345455 222.387167 
L 187.461818 227.284168 
L 195.578182 227.999197 
L 203.694545 228.420518 
L 211.810909 222.489719 
L 219.927273 227.533064 
L 228.043636 228.119568 
L 236.16 225.717429 
L 244.276364 221.891215 
L 252.392727 227.75461 
L 260.509091 222.648054 
L 268.625455 222.59445 
L 276.741818 222.749897 
L 284.858182 222.90481 
L 292.974545 223.0544 
L 301.090909 223.198847 
L 309.207273 223.338397 
L 317.323636 223.473267 
L 325.44 223.603654 
L 333.556364 223.729735 
L 341.672727 223.851676 
L 349.789091 223.969631 
L 357.905455 225.642149 
L 366.021818 224.103397 
L 374.138182 224.172142 
L 382.254545 224.744092 
L 390.370909 224.755065 
" clip-path="url(#pb75f09311d)" style="fill: none; stroke: #ff0000; stroke-opacity: 0.1; stroke-width: 1.5; stroke-linecap: square"/>
   </g>
   <g id="line2d_45">
    <path d="M 73.832727 218.88 
L 81.949091 222.42816 
L 90.065455 225.039817 
L 98.181818 225.801004 
L 106.298182 226.534539 
L 114.414545 223.787274 
L 122.530909 223.826334 
L 130.647273 224.295158 
L 138.763636 224.803126 
L 146.88 225.313144 
L 154.996364 225.817709 
L 163.112727 226.312874 
L 171.229091 226.796038 
L 179.345455 223.157789 
L 187.461818 226.168443 
L 195.578182 226.72931 
L 203.694545 223.265935 
L 211.810909 226.183196 
L 219.927273 226.651256 
L 228.043636 226.964194 
L 236.16 225.121 
L 244.276364 222.357352 
L 252.392727 222.401825 
L 260.509091 226.547909 
L 268.625455 223.011627 
L 276.741818 226.261049 
L 284.858182 223.336391 
L 292.974545 223.385851 
L 301.090909 225.851838 
L 309.207273 223.718831 
L 317.323636 223.794821 
L 325.44 223.94776 
L 333.556364 224.097475 
L 341.672727 224.24255 
L 349.789091 224.383108 
L 357.905455 224.519293 
L 366.021818 224.651244 
L 374.138182 224.779094 
L 382.254545 224.660315 
L 390.370909 224.655699 
" clip-path="url(#pb75f09311d)" style="fill: none; stroke: #ff0000; stroke-opacity: 0.1; stroke-width: 1.5; stroke-linecap: square"/>
   </g>
   <g id="line2d_46">
    <path d="M 73.832727 218.88 
L 81.949091 222.42816 
L 90.065455 225.039817 
L 98.181818 224.729661 
L 106.298182 224.725696 
L 114.414545 225.275541 
L 122.530909 224.013107 
L 130.647273 224.299869 
L 138.763636 224.473641 
L 146.88 224.372195 
L 154.996364 224.429656 
L 163.112727 224.373746 
L 171.229091 224.734515 
L 179.345455 225.126529 
L 187.461818 225.510485 
L 195.578182 225.883953 
L 203.694545 226.246318 
L 211.810909 223.101195 
L 219.927273 223.160632 
L 228.043636 225.524052 
L 236.16 224.487072 
L 244.276364 222.937695 
L 252.392727 223.052456 
L 260.509091 223.234243 
L 268.625455 225.270505 
L 276.741818 223.495195 
L 284.858182 223.59188 
L 292.974545 223.753651 
L 301.090909 223.911607 
L 309.207273 224.064454 
L 317.323636 224.212326 
L 325.44 224.355374 
L 333.556364 224.225525 
L 341.672727 224.217051 
L 349.789091 224.216499 
L 357.905455 224.216128 
L 366.021818 224.215789 
L 374.138182 224.215477 
L 382.254545 224.215189 
L 390.370909 224.214923 
" clip-path="url(#pb75f09311d)" style="fill: none; stroke: #ff0000; stroke-opacity: 0.1; stroke-width: 1.5; stroke-linecap: square"/>
   </g>
   <g id="line2d_47">
    <path d="M 73.832727 218.88 
L 81.949091 222.42816 
L 90.065455 225.039817 
L 98.181818 225.801004 
L 106.298182 224.190973 
L 114.414545 225.146307 
L 122.530909 224.134533 
L 130.647273 224.922395 
L 138.763636 225.514912 
L 146.88 226.058515 
L 154.996364 226.590864 
L 163.112727 227.110803 
L 171.229091 227.615964 
L 179.345455 228.104779 
L 187.461818 222.442591 
L 195.578182 227.145533 
L 203.694545 223.010089 
L 211.810909 226.731025 
L 219.927273 223.46978 
L 228.043636 226.402589 
L 236.16 225.192944 
L 244.276364 226.821342 
L 252.392727 223.511312 
L 260.509091 226.405087 
L 268.625455 223.855127 
L 276.741818 223.95173 
L 284.858182 224.162832 
L 292.974545 225.797877 
L 301.090909 224.432872 
L 309.207273 224.563345 
L 317.323636 225.504497 
L 325.44 224.72422 
L 333.556364 224.862779 
L 341.672727 225.036219 
L 349.789091 225.205155 
L 357.905455 225.368974 
L 366.021818 225.527813 
L 374.138182 225.681816 
L 382.254545 225.831127 
L 390.370909 225.107377 
" clip-path="url(#pb75f09311d)" style="fill: none; stroke: #ff0000; stroke-opacity: 0.1; stroke-width: 1.5; stroke-linecap: square"/>
   </g>
   <g id="line2d_48">
    <path d="M 73.832727 218.88 
L 81.949091 222.42816 
L 90.065455 225.039817 
L 98.181818 224.729661 
L 106.298182 225.108327 
L 114.414545 225.759971 
L 122.530909 226.473082 
L 130.647273 223.477187 
L 138.763636 225.803256 
L 146.88 226.558449 
L 154.996364 227.136119 
L 163.112727 223.140265 
L 171.229091 226.390448 
L 179.345455 227.048283 
L 187.461818 223.273442 
L 195.578182 226.412023 
L 203.694545 226.952054 
L 211.810909 227.309574 
L 219.927273 227.648912 
L 228.043636 222.939049 
L 236.16 225.082206 
L 244.276364 222.847756 
L 252.392727 222.934833 
L 260.509091 226.518407 
L 268.625455 223.484759 
L 276.741818 226.2613 
L 284.858182 223.776318 
L 292.974545 226.046793 
L 301.090909 224.013467 
L 309.207273 224.109666 
L 317.323636 224.284767 
L 325.44 224.456157 
L 333.556364 224.622308 
L 341.672727 224.78335 
L 349.789091 224.939436 
L 357.905455 225.090714 
L 366.021818 225.23733 
L 374.138182 224.782162 
L 382.254545 224.889407 
L 390.370909 225.08825 
" clip-path="url(#pb75f09311d)" style="fill: none; stroke: #ff0000; stroke-opacity: 0.1; stroke-width: 1.5; stroke-linecap: square"/>
   </g>
   <g id="line2d_49">
    <path d="M 73.832727 218.88 
L 81.949091 222.42816 
L 90.065455 225.039817 
L 98.181818 224.729661 
L 106.298182 225.108327 
L 114.414545 225.759971 
L 122.530909 223.802214 
L 130.647273 225.286302 
L 138.763636 223.904226 
L 146.88 225.096567 
L 154.996364 225.651979 
L 163.112727 226.137374 
L 171.229091 223.441953 
L 179.345455 225.650707 
L 187.461818 226.170346 
L 195.578182 226.556259 
L 203.694545 226.925401 
L 211.810909 227.281867 
L 219.927273 222.727538 
L 228.043636 226.61319 
L 236.16 225.037006 
L 244.276364 222.394594 
L 252.392727 222.446959 
L 260.509091 226.406098 
L 268.625455 223.033617 
L 276.741818 223.062699 
L 284.858182 225.945111 
L 292.974545 223.460156 
L 301.090909 225.746903 
L 309.207273 223.675435 
L 317.323636 225.580003 
L 325.44 223.852968 
L 333.556364 223.93916 
L 341.672727 225.30654 
L 349.789091 224.114407 
L 357.905455 224.210187 
L 366.021818 224.3456 
L 374.138182 224.477681 
L 382.254545 224.605815 
L 390.370909 224.759019 
" clip-path="url(#pb75f09311d)" style="fill: none; stroke: #ff0000; stroke-opacity: 0.1; stroke-width: 1.5; stroke-linecap: square"/>
   </g>
   <g id="line2d_50">
    <path d="M 73.832727 218.88 
L 81.949091 222.42816 
L 90.065455 225.039817 
L 98.181818 225.801004 
L 106.298182 226.534539 
L 114.414545 227.35331 
L 122.530909 228.202288 
L 130.647273 229.048544 
L 138.763636 229.876147 
L 146.88 230.677062 
L 154.996364 231.44715 
L 163.112727 222.008901 
L 171.229091 221.566223 
L 179.345455 229.12631 
L 187.461818 230.139502 
L 195.578182 230.669268 
L 203.694545 231.159488 
L 211.810909 231.628486 
L 219.927273 232.07731 
L 228.043636 221.712073 
L 236.16 226.942041 
L 244.276364 221.700306 
L 252.392727 230.099539 
L 260.509091 222.814639 
L 268.625455 229.541219 
L 276.741818 230.125772 
L 284.858182 223.385694 
L 292.974545 223.275578 
L 301.090909 223.427516 
L 309.207273 223.580431 
L 317.323636 223.727953 
L 325.44 223.87024 
L 333.556364 224.007562 
L 341.672727 224.140162 
L 349.789091 224.268256 
L 357.905455 224.392043 
L 366.021818 224.511708 
L 374.138182 224.627419 
L 382.254545 227.591681 
L 390.370909 224.895665 
" clip-path="url(#pb75f09311d)" style="fill: none; stroke: #ff0000; stroke-opacity: 0.1; stroke-width: 1.5; stroke-linecap: square"/>
   </g>
   <g id="line2d_51">
    <path d="M 73.832727 218.88 
L 81.949091 222.42816 
L 90.065455 225.039817 
L 98.181818 225.801004 
L 106.298182 226.534539 
L 114.414545 227.35331 
L 122.530909 228.202288 
L 130.647273 229.048544 
L 138.763636 229.876147 
L 146.88 230.677062 
L 154.996364 231.44715 
L 163.112727 232.184432 
L 171.229091 232.88822 
L 179.345455 233.55864 
L 187.461818 234.196341 
L 195.578182 234.802312 
L 203.694545 235.377747 
L 211.810909 220.210073 
L 219.927273 219.500902 
L 228.043636 232.710065 
L 236.16 228.705392 
L 244.276364 220.090862 
L 252.392727 232.327103 
L 260.509091 233.321488 
L 268.625455 233.68137 
L 276.741818 221.279713 
L 284.858182 232.170261 
L 292.974545 222.441771 
L 301.090909 231.525875 
L 309.207273 223.405811 
L 317.323636 223.198293 
L 325.44 223.310216 
L 333.556364 223.426384 
L 341.672727 223.538146 
L 349.789091 223.645578 
L 357.905455 230.181726 
L 366.021818 224.416782 
L 374.138182 224.31622 
L 382.254545 229.704717 
L 390.370909 230.084573 
" clip-path="url(#pb75f09311d)" style="fill: none; stroke: #ff0000; stroke-opacity: 0.1; stroke-width: 1.5; stroke-linecap: square"/>
   </g>
   <g id="line2d_52">
    <path d="M 73.832727 218.88 
L 81.949091 222.42816 
L 90.065455 225.039817 
L 98.181818 225.801004 
L 106.298182 226.534539 
L 114.414545 227.35331 
L 122.530909 228.202288 
L 130.647273 229.048544 
L 138.763636 229.876147 
L 146.88 230.677062 
L 154.996364 231.44715 
L 163.112727 222.008901 
L 171.229091 221.566223 
L 179.345455 229.12631 
L 187.461818 223.022054 
L 195.578182 228.559426 
L 203.694545 229.329051 
L 211.810909 223.464932 
L 219.927273 228.427435 
L 228.043636 229.049084 
L 236.16 226.643691 
L 244.276364 229.31647 
L 252.392727 223.428424 
L 260.509091 223.367886 
L 268.625455 223.56084 
L 276.741818 223.753574 
L 284.858182 223.939621 
L 292.974545 224.119181 
L 301.090909 224.292562 
L 309.207273 224.46004 
L 317.323636 224.62186 
L 325.44 224.778249 
L 333.556364 226.908939 
L 341.672727 224.993098 
L 349.789091 225.07374 
L 357.905455 225.211661 
L 366.021818 225.346258 
L 374.138182 225.476508 
L 382.254545 225.779537 
L 390.370909 225.784396 
" clip-path="url(#pb75f09311d)" style="fill: none; stroke: #ff0000; stroke-opacity: 0.1; stroke-width: 1.5; stroke-linecap: square"/>
   </g>
   <g id="line2d_53">
    <path d="M 73.832727 218.88 
L 81.949091 222.42816 
L 90.065455 225.039817 
L 98.181818 225.801004 
L 106.298182 226.534539 
L 114.414545 227.35331 
L 122.530909 228.202288 
L 130.647273 223.164277 
L 138.763636 227.019889 
L 146.88 223.607273 
L 154.996364 226.59923 
L 163.112727 227.347315 
L 171.229091 223.732081 
L 179.345455 226.654083 
L 187.461818 227.261087 
L 195.578182 227.669454 
L 203.694545 228.05668 
L 211.810909 223.316779 
L 219.927273 227.299377 
L 228.043636 227.825859 
L 236.16 225.850012 
L 244.276364 228.079477 
L 252.392727 223.231333 
L 260.509091 223.221789 
L 268.625455 223.419859 
L 276.741818 223.616316 
L 284.858182 226.877823 
L 292.974545 224.091856 
L 301.090909 224.162391 
L 309.207273 224.340957 
L 317.323636 226.314001 
L 325.44 224.60494 
L 333.556364 224.704452 
L 341.672727 224.86542 
L 349.789091 225.88895 
L 357.905455 224.995397 
L 366.021818 225.816814 
L 374.138182 225.064733 
L 382.254545 225.755056 
L 390.370909 225.122996 
" clip-path="url(#pb75f09311d)" style="fill: none; stroke: #ff0000; stroke-opacity: 0.1; stroke-width: 1.5; stroke-linecap: square"/>
   </g>
   <g id="line2d_54">
    <path d="M 73.832727 218.88 
L 81.949091 222.42816 
L 90.065455 225.039817 
L 98.181818 224.729661 
L 106.298182 224.725696 
L 114.414545 225.275541 
L 122.530909 224.013107 
L 130.647273 224.299869 
L 138.763636 224.801494 
L 146.88 225.316275 
L 154.996364 225.825821 
L 163.112727 226.325661 
L 171.229091 226.813211 
L 179.345455 227.286763 
L 187.461818 227.745217 
L 195.578182 228.187916 
L 203.694545 222.210537 
L 211.810909 227.283761 
L 219.927273 227.897705 
L 228.043636 228.246229 
L 236.16 225.569565 
L 244.276364 221.341435 
L 252.392727 221.273076 
L 260.509091 227.587763 
L 268.625455 222.179875 
L 276.741818 227.181106 
L 284.858182 222.671199 
L 292.974545 226.839777 
L 301.090909 227.201204 
L 309.207273 222.92556 
L 317.323636 222.904633 
L 325.44 226.571155 
L 333.556364 223.365661 
L 341.672727 223.383866 
L 349.789091 223.507817 
L 357.905455 226.09586 
L 366.021818 226.317332 
L 374.138182 223.684031 
L 382.254545 223.715224 
L 390.370909 225.952889 
" clip-path="url(#pb75f09311d)" style="fill: none; stroke: #ff0000; stroke-opacity: 0.1; stroke-width: 1.5; stroke-linecap: square"/>
   </g>
   <g id="line2d_55">
    <path d="M 73.832727 218.88 
L 81.949091 222.42816 
L 90.065455 225.039817 
L 98.181818 225.801004 
L 106.298182 226.534539 
L 114.414545 227.35331 
L 122.530909 223.460525 
L 130.647273 223.381896 
L 138.763636 225.758725 
L 146.88 226.515595 
L 154.996364 227.089168 
L 163.112727 227.6397 
L 171.229091 228.173622 
L 179.345455 228.689775 
L 187.461818 222.524533 
L 195.578182 222.38555 
L 203.694545 227.284728 
L 211.810909 227.927628 
L 219.927273 223.036747 
L 228.043636 227.208544 
L 236.16 225.52057 
L 244.276364 222.682856 
L 252.392727 227.211602 
L 260.509091 223.269202 
L 268.625455 226.877125 
L 276.741818 223.658192 
L 284.858182 223.708474 
L 292.974545 223.892354 
L 301.090909 224.073402 
L 309.207273 226.085699 
L 317.323636 224.348612 
L 325.44 225.944945 
L 333.556364 224.495592 
L 341.672727 224.596396 
L 349.789091 224.749909 
L 357.905455 224.899748 
L 366.021818 225.04499 
L 374.138182 225.185761 
L 382.254545 225.322202 
L 390.370909 225.454452 
" clip-path="url(#pb75f09311d)" style="fill: none; stroke: #ff0000; stroke-opacity: 0.1; stroke-width: 1.5; stroke-linecap: square"/>
   </g>
   <g id="line2d_56">
    <path d="M 73.832727 218.88 
L 81.949091 186.94656 
L 90.065455 182.103792 
L 98.181818 181.047016 
L 106.298182 180.521109 
L 114.414545 178.819148 
L 122.530909 179.787013 
L 130.647273 178.708141 
L 138.763636 177.257302 
L 146.88 175.363876 
L 154.996364 173.5073 
L 163.112727 177.252552 
L 171.229091 177.440425 
L 179.345455 174.2068 
L 187.461818 175.202036 
L 195.578182 171.747659 
L 203.694545 174.109914 
L 211.810909 175.998717 
L 219.927273 177.318584 
L 228.043636 174.473421 
L 236.16 178.214968 
L 244.276364 187.051062 
L 252.392727 184.817464 
L 260.509091 182.529666 
L 268.625455 180.579736 
L 276.741818 184.05677 
L 284.858182 184.30678 
L 292.974545 186.012639 
L 301.090909 184.49677 
L 309.207273 185.376491 
L 317.323636 184.061814 
L 325.44 185.091475 
L 333.556364 183.525214 
L 341.672727 184.165241 
L 349.789091 183.342798 
L 357.905455 181.881072 
L 366.021818 181.107817 
L 374.138182 183.28296 
L 382.254545 180.78118 
L 390.370909 181.671814 
" clip-path="url(#pb75f09311d)" style="fill: none; stroke: #1f77b4; stroke-width: 1.5; stroke-linecap: square"/>
   </g>
   <g id="line2d_57">
    <path d="M 73.832727 218.88 
L 81.949091 222.42816 
L 90.065455 225.039817 
L 98.181818 225.426034 
L 106.298182 225.509257 
L 114.414545 225.986112 
L 122.530909 225.719032 
L 130.647273 226.011989 
L 138.763636 226.486386 
L 146.88 227.145177 
L 154.996364 227.773937 
L 163.112727 226.588202 
L 171.229091 226.48317 
L 179.345455 227.507017 
L 187.461818 227.285735 
L 195.578182 228.339253 
L 203.694545 227.602358 
L 211.810909 226.966829 
L 219.927273 226.513873 
L 228.043636 227.294172 
L 236.16 226.144142 
L 244.276364 223.497993 
L 252.392727 224.168766 
L 260.509091 224.908424 
L 268.625455 225.537882 
L 276.741818 224.419582 
L 284.858182 224.400853 
L 292.974545 223.774571 
L 301.090909 224.243217 
L 309.207273 223.973794 
L 317.323636 224.311222 
L 325.44 224.016043 
L 333.556364 224.537784 
L 341.672727 224.263621 
L 349.789091 224.528461 
L 357.905455 224.962008 
L 366.021818 225.261886 
L 374.138182 224.523567 
L 382.254545 225.322304 
L 390.370909 225.015233 
" clip-path="url(#pb75f09311d)" style="fill: none; stroke: #ff0000; stroke-width: 1.5; stroke-linecap: square"/>
   </g>
   <g id="patch_5">
    <path d="M 57.6 307.584 
L 57.6 41.472 
" style="fill: none; stroke: #000000; stroke-width: 0.8; stroke-linejoin: miter; stroke-linecap: square"/>
   </g>
   <g id="patch_6">
    <path d="M 414.72 307.584 
L 414.72 41.472 
" style="fill: none; stroke: #000000; stroke-width: 0.8; stroke-linejoin: miter; stroke-linecap: square"/>
   </g>
   <g id="patch_7">
    <path d="M 57.6 307.584 
L 414.72 307.584 
" style="fill: none; stroke: #000000; stroke-width: 0.8; stroke-linejoin: miter; stroke-linecap: square"/>
   </g>
   <g id="patch_8">
    <path d="M 57.6 41.472 
L 414.72 41.472 
" style="fill: none; stroke: #000000; stroke-width: 0.8; stroke-linejoin: miter; stroke-linecap: square"/>
   </g>
   <g id="text_18">
    <!-- biased_A -->
    <g transform="translate(209.27625 35.472) scale(0.12 -0.12)">
     <defs>
      <path id="DejaVuSans-62" d="M 3116 1747 
Q 3116 2381 2855 2742 
Q 2594 3103 2138 3103 
Q 1681 3103 1420 2742 
Q 1159 2381 1159 1747 
Q 1159 1113 1420 752 
Q 1681 391 2138 391 
Q 2594 391 2855 752 
Q 3116 1113 3116 1747 
z
M 1159 2969 
Q 1341 3281 1617 3432 
Q 1894 3584 2278 3584 
Q 2916 3584 3314 3078 
Q 3713 2572 3713 1747 
Q 3713 922 3314 415 
Q 2916 -91 2278 -91 
Q 1894 -91 1617 61 
Q 1341 213 1159 525 
L 1159 0 
L 581 0 
L 581 4863 
L 1159 4863 
L 1159 2969 
z
" transform="scale(0.015625)"/>
      <path id="DejaVuSans-69" d="M 603 3500 
L 1178 3500 
L 1178 0 
L 603 0 
L 603 3500 
z
M 603 4863 
L 1178 4863 
L 1178 4134 
L 603 4134 
L 603 4863 
z
" transform="scale(0.015625)"/>
      <path id="DejaVuSans-61" d="M 2194 1759 
Q 1497 1759 1228 1600 
Q 959 1441 959 1056 
Q 959 750 1161 570 
Q 1363 391 1709 391 
Q 2188 391 2477 730 
Q 2766 1069 2766 1631 
L 2766 1759 
L 2194 1759 
z
M 3341 1997 
L 3341 0 
L 2766 0 
L 2766 531 
Q 2569 213 2275 61 
Q 1981 -91 1556 -91 
Q 1019 -91 701 211 
Q 384 513 384 1019 
Q 384 1609 779 1909 
Q 1175 2209 1959 2209 
L 2766 2209 
L 2766 2266 
Q 2766 2663 2505 2880 
Q 2244 3097 1772 3097 
Q 1472 3097 1187 3025 
Q 903 2953 641 2809 
L 641 3341 
Q 956 3463 1253 3523 
Q 1550 3584 1831 3584 
Q 2591 3584 2966 3190 
Q 3341 2797 3341 1997 
z
" transform="scale(0.015625)"/>
      <path id="DejaVuSans-73" d="M 2834 3397 
L 2834 2853 
Q 2591 2978 2328 3040 
Q 2066 3103 1784 3103 
Q 1356 3103 1142 2972 
Q 928 2841 928 2578 
Q 928 2378 1081 2264 
Q 1234 2150 1697 2047 
L 1894 2003 
Q 2506 1872 2764 1633 
Q 3022 1394 3022 966 
Q 3022 478 2636 193 
Q 2250 -91 1575 -91 
Q 1294 -91 989 -36 
Q 684 19 347 128 
L 347 722 
Q 666 556 975 473 
Q 1284 391 1588 391 
Q 1994 391 2212 530 
Q 2431 669 2431 922 
Q 2431 1156 2273 1281 
Q 2116 1406 1581 1522 
L 1381 1569 
Q 847 1681 609 1914 
Q 372 2147 372 2553 
Q 372 3047 722 3315 
Q 1072 3584 1716 3584 
Q 2034 3584 2315 3537 
Q 2597 3491 2834 3397 
z
" transform="scale(0.015625)"/>
      <path id="DejaVuSans-64" d="M 2906 2969 
L 2906 4863 
L 3481 4863 
L 3481 0 
L 2906 0 
L 2906 525 
Q 2725 213 2448 61 
Q 2172 -91 1784 -91 
Q 1150 -91 751 415 
Q 353 922 353 1747 
Q 353 2572 751 3078 
Q 1150 3584 1784 3584 
Q 2172 3584 2448 3432 
Q 2725 3281 2906 2969 
z
M 947 1747 
Q 947 1113 1208 752 
Q 1469 391 1925 391 
Q 2381 391 2643 752 
Q 2906 1113 2906 1747 
Q 2906 2381 2643 2742 
Q 2381 3103 1925 3103 
Q 1469 3103 1208 2742 
Q 947 2381 947 1747 
z
" transform="scale(0.015625)"/>
      <path id="DejaVuSans-5f" d="M 3263 -1063 
L 3263 -1509 
L -63 -1509 
L -63 -1063 
L 3263 -1063 
z
" transform="scale(0.015625)"/>
      <path id="DejaVuSans-41" d="M 2188 4044 
L 1331 1722 
L 3047 1722 
L 2188 4044 
z
M 1831 4666 
L 2547 4666 
L 4325 0 
L 3669 0 
L 3244 1197 
L 1141 1197 
L 716 0 
L 50 0 
L 1831 4666 
z
" transform="scale(0.015625)"/>
     </defs>
     <use xlink:href="#DejaVuSans-62"/>
     <use xlink:href="#DejaVuSans-69" x="63.476562"/>
     <use xlink:href="#DejaVuSans-61" x="91.259766"/>
     <use xlink:href="#DejaVuSans-73" x="152.539062"/>
     <use xlink:href="#DejaVuSans-65" x="204.638672"/>
     <use xlink:href="#DejaVuSans-64" x="266.162109"/>
     <use xlink:href="#DejaVuSans-5f" x="329.638672"/>
     <use xlink:href="#DejaVuSans-41" x="379.638672"/>
    </g>
   </g>
   <g id="legend_1">
    <g id="patch_9">
     <path d="M 351.635625 78.82825 
L 407.72 78.82825 
Q 409.72 78.82825 409.72 76.82825 
L 409.72 48.472 
Q 409.72 46.472 407.72 46.472 
L 351.635625 46.472 
Q 349.635625 46.472 349.635625 48.472 
L 349.635625 76.82825 
Q 349.635625 78.82825 351.635625 78.82825 
z
" style="fill: #ffffff; opacity: 0.8; stroke: #cccccc; stroke-linejoin: miter"/>
    </g>
    <g id="line2d_58">
     <path d="M 353.635625 54.570437 
L 363.635625 54.570437 
L 373.635625 54.570437 
" style="fill: none; stroke: #1f77b4; stroke-width: 1.5; stroke-linecap: square"/>
    </g>
    <g id="text_19">
     <!-- coop -->
     <g transform="translate(381.635625 58.070437) scale(0.1 -0.1)">
      <use xlink:href="#DejaVuSans-63"/>
      <use xlink:href="#DejaVuSans-6f" x="54.980469"/>
      <use xlink:href="#DejaVuSans-6f" x="116.162109"/>
      <use xlink:href="#DejaVuSans-70" x="177.34375"/>
     </g>
    </g>
    <g id="line2d_59">
     <path d="M 353.635625 69.248562 
L 363.635625 69.248562 
L 373.635625 69.248562 
" style="fill: none; stroke: #ff0000; stroke-width: 1.5; stroke-linecap: square"/>
    </g>
    <g id="text_20">
     <!-- host -->
     <g transform="translate(381.635625 72.748562) scale(0.1 -0.1)">
      <defs>
       <path id="DejaVuSans-68" d="M 3513 2113 
L 3513 0 
L 2938 0 
L 2938 2094 
Q 2938 2591 2744 2837 
Q 2550 3084 2163 3084 
Q 1697 3084 1428 2787 
Q 1159 2491 1159 1978 
L 1159 0 
L 581 0 
L 581 4863 
L 1159 4863 
L 1159 2956 
Q 1366 3272 1645 3428 
Q 1925 3584 2291 3584 
Q 2894 3584 3203 3211 
Q 3513 2838 3513 2113 
z
" transform="scale(0.015625)"/>
      </defs>
      <use xlink:href="#DejaVuSans-68"/>
      <use xlink:href="#DejaVuSans-6f" x="63.378906"/>
      <use xlink:href="#DejaVuSans-73" x="124.560547"/>
      <use xlink:href="#DejaVuSans-74" x="176.660156"/>
     </g>
    </g>
   </g>
  </g>
 </g>
 <defs>
  <clipPath id="pb75f09311d">
   <rect x="57.6" y="41.472" width="357.12" height="266.112"/>
  </clipPath>
 </defs>
</svg>
