<?xml version="1.0" encoding="utf-8" standalone="no"?>
<!DOCTYPE svg PUBLIC "-//W3C//DTD SVG 1.1//EN"
  "http://www.w3.org/Graphics/SVG/1.1/DTD/svg11.dtd">
<svg xmlns:xlink="http://www.w3.org/1999/xlink" width="460.8pt" height="345.6pt" viewBox="0 0 460.8 345.6" xmlns="http://www.w3.org/2000/svg" version="1.1">
 <metadata>
  <rdf:RDF xmlns:dc="http://purl.org/dc/elements/1.1/" xmlns:cc="http://creativecommons.org/ns#" xmlns:rdf="http://www.w3.org/1999/02/22-rdf-syntax-ns#">
   <cc:Work>
    <dc:type rdf:resource="http://purl.org/dc/dcmitype/StillImage"/>
    <dc:date>2024-06-18T15:37:20.621487</dc:date>
    <dc:format>image/svg+xml</dc:format>
    <dc:creator>
     <cc:Agent>
      <dc:title>Matplotlib v3.7.2, https://matplotlib.org/</dc:title>
     </cc:Agent>
    </dc:creator>
   </cc:Work>
  </rdf:RDF>
 </metadata>
 <defs>
  <style type="text/css">*{stroke-linejoin: round; stroke-linecap: butt}</style>
 </defs>
 <g id="figure_1">
  <g id="patch_1">
   <path d="M 0 345.6 
L 460.8 345.6 
L 460.8 0 
L 0 0 
z
" style="fill: #ffffff"/>
  </g>
  <g id="axes_1">
   <g id="patch_2">
    <path d="M 57.6 307.584 
L 414.72 307.584 
L 414.72 41.472 
L 57.6 41.472 
z
" style="fill: #ffffff"/>
   </g>
   <g id="patch_3">
    <path d="M 73.832727 307.584 
L 73.832727 41.472 
L 236.16 41.472 
L 236.16 307.584 
z
" clip-path="url(#pb52ad8d9cd)" style="fill: #ff7f50; opacity: 0.2"/>
   </g>
   <g id="patch_4">
    <path d="M 236.16 307.584 
L 236.16 41.472 
L 398.487273 41.472 
L 398.487273 307.584 
z
" clip-path="url(#pb52ad8d9cd)" style="fill: #add8e6; opacity: 0.2"/>
   </g>
   <g id="matplotlib.axis_1">
    <g id="xtick_1">
     <g id="line2d_1">
      <defs>
       <path id="mb476495005" d="M 0 0 
L 0 3.5 
" style="stroke: #000000; stroke-width: 0.8"/>
      </defs>
      <g>
       <use xlink:href="#mb476495005" x="73.832727" y="307.584" style="stroke: #000000; stroke-width: 0.8"/>
      </g>
     </g>
     <g id="text_1">
      <!-- 0 -->
      <g transform="translate(70.651477 322.182437) scale(0.1 -0.1)">
       <defs>
        <path id="DejaVuSans-30" d="M 2034 4250 
Q 1547 4250 1301 3770 
Q 1056 3291 1056 2328 
Q 1056 1369 1301 889 
Q 1547 409 2034 409 
Q 2525 409 2770 889 
Q 3016 1369 3016 2328 
Q 3016 3291 2770 3770 
Q 2525 4250 2034 4250 
z
M 2034 4750 
Q 2819 4750 3233 4129 
Q 3647 3509 3647 2328 
Q 3647 1150 3233 529 
Q 2819 -91 2034 -91 
Q 1250 -91 836 529 
Q 422 1150 422 2328 
Q 422 3509 836 4129 
Q 1250 4750 2034 4750 
z
" transform="scale(0.015625)"/>
       </defs>
       <use xlink:href="#DejaVuSans-30"/>
      </g>
     </g>
    </g>
    <g id="xtick_2">
     <g id="line2d_2">
      <g>
       <use xlink:href="#mb476495005" x="114.414545" y="307.584" style="stroke: #000000; stroke-width: 0.8"/>
      </g>
     </g>
     <g id="text_2">
      <!-- 5 -->
      <g transform="translate(111.233295 322.182437) scale(0.1 -0.1)">
       <defs>
        <path id="DejaVuSans-35" d="M 691 4666 
L 3169 4666 
L 3169 4134 
L 1269 4134 
L 1269 2991 
Q 1406 3038 1543 3061 
Q 1681 3084 1819 3084 
Q 2600 3084 3056 2656 
Q 3513 2228 3513 1497 
Q 3513 744 3044 326 
Q 2575 -91 1722 -91 
Q 1428 -91 1123 -41 
Q 819 9 494 109 
L 494 744 
Q 775 591 1075 516 
Q 1375 441 1709 441 
Q 2250 441 2565 725 
Q 2881 1009 2881 1497 
Q 2881 1984 2565 2268 
Q 2250 2553 1709 2553 
Q 1456 2553 1204 2497 
Q 953 2441 691 2322 
L 691 4666 
z
" transform="scale(0.015625)"/>
       </defs>
       <use xlink:href="#DejaVuSans-35"/>
      </g>
     </g>
    </g>
    <g id="xtick_3">
     <g id="line2d_3">
      <g>
       <use xlink:href="#mb476495005" x="154.996364" y="307.584" style="stroke: #000000; stroke-width: 0.8"/>
      </g>
     </g>
     <g id="text_3">
      <!-- 10 -->
      <g transform="translate(148.633864 322.182437) scale(0.1 -0.1)">
       <defs>
        <path id="DejaVuSans-31" d="M 794 531 
L 1825 531 
L 1825 4091 
L 703 3866 
L 703 4441 
L 1819 4666 
L 2450 4666 
L 2450 531 
L 3481 531 
L 3481 0 
L 794 0 
L 794 531 
z
" transform="scale(0.015625)"/>
       </defs>
       <use xlink:href="#DejaVuSans-31"/>
       <use xlink:href="#DejaVuSans-30" x="63.623047"/>
      </g>
     </g>
    </g>
    <g id="xtick_4">
     <g id="line2d_4">
      <g>
       <use xlink:href="#mb476495005" x="195.578182" y="307.584" style="stroke: #000000; stroke-width: 0.8"/>
      </g>
     </g>
     <g id="text_4">
      <!-- 15 -->
      <g transform="translate(189.215682 322.182437) scale(0.1 -0.1)">
       <use xlink:href="#DejaVuSans-31"/>
       <use xlink:href="#DejaVuSans-35" x="63.623047"/>
      </g>
     </g>
    </g>
    <g id="xtick_5">
     <g id="line2d_5">
      <g>
       <use xlink:href="#mb476495005" x="236.16" y="307.584" style="stroke: #000000; stroke-width: 0.8"/>
      </g>
     </g>
     <g id="text_5">
      <!-- 20 -->
      <g transform="translate(229.7975 322.182437) scale(0.1 -0.1)">
       <defs>
        <path id="DejaVuSans-32" d="M 1228 531 
L 3431 531 
L 3431 0 
L 469 0 
L 469 531 
Q 828 903 1448 1529 
Q 2069 2156 2228 2338 
Q 2531 2678 2651 2914 
Q 2772 3150 2772 3378 
Q 2772 3750 2511 3984 
Q 2250 4219 1831 4219 
Q 1534 4219 1204 4116 
Q 875 4013 500 3803 
L 500 4441 
Q 881 4594 1212 4672 
Q 1544 4750 1819 4750 
Q 2544 4750 2975 4387 
Q 3406 4025 3406 3419 
Q 3406 3131 3298 2873 
Q 3191 2616 2906 2266 
Q 2828 2175 2409 1742 
Q 1991 1309 1228 531 
z
" transform="scale(0.015625)"/>
       </defs>
       <use xlink:href="#DejaVuSans-32"/>
       <use xlink:href="#DejaVuSans-30" x="63.623047"/>
      </g>
     </g>
    </g>
    <g id="xtick_6">
     <g id="line2d_6">
      <g>
       <use xlink:href="#mb476495005" x="276.741818" y="307.584" style="stroke: #000000; stroke-width: 0.8"/>
      </g>
     </g>
     <g id="text_6">
      <!-- 25 -->
      <g transform="translate(270.379318 322.182437) scale(0.1 -0.1)">
       <use xlink:href="#DejaVuSans-32"/>
       <use xlink:href="#DejaVuSans-35" x="63.623047"/>
      </g>
     </g>
    </g>
    <g id="xtick_7">
     <g id="line2d_7">
      <g>
       <use xlink:href="#mb476495005" x="317.323636" y="307.584" style="stroke: #000000; stroke-width: 0.8"/>
      </g>
     </g>
     <g id="text_7">
      <!-- 30 -->
      <g transform="translate(310.961136 322.182437) scale(0.1 -0.1)">
       <defs>
        <path id="DejaVuSans-33" d="M 2597 2516 
Q 3050 2419 3304 2112 
Q 3559 1806 3559 1356 
Q 3559 666 3084 287 
Q 2609 -91 1734 -91 
Q 1441 -91 1130 -33 
Q 819 25 488 141 
L 488 750 
Q 750 597 1062 519 
Q 1375 441 1716 441 
Q 2309 441 2620 675 
Q 2931 909 2931 1356 
Q 2931 1769 2642 2001 
Q 2353 2234 1838 2234 
L 1294 2234 
L 1294 2753 
L 1863 2753 
Q 2328 2753 2575 2939 
Q 2822 3125 2822 3475 
Q 2822 3834 2567 4026 
Q 2313 4219 1838 4219 
Q 1578 4219 1281 4162 
Q 984 4106 628 3988 
L 628 4550 
Q 988 4650 1302 4700 
Q 1616 4750 1894 4750 
Q 2613 4750 3031 4423 
Q 3450 4097 3450 3541 
Q 3450 3153 3228 2886 
Q 3006 2619 2597 2516 
z
" transform="scale(0.015625)"/>
       </defs>
       <use xlink:href="#DejaVuSans-33"/>
       <use xlink:href="#DejaVuSans-30" x="63.623047"/>
      </g>
     </g>
    </g>
    <g id="xtick_8">
     <g id="line2d_8">
      <g>
       <use xlink:href="#mb476495005" x="357.905455" y="307.584" style="stroke: #000000; stroke-width: 0.8"/>
      </g>
     </g>
     <g id="text_8">
      <!-- 35 -->
      <g transform="translate(351.542955 322.182437) scale(0.1 -0.1)">
       <use xlink:href="#DejaVuSans-33"/>
       <use xlink:href="#DejaVuSans-35" x="63.623047"/>
      </g>
     </g>
    </g>
    <g id="xtick_9">
     <g id="line2d_9">
      <g>
       <use xlink:href="#mb476495005" x="398.487273" y="307.584" style="stroke: #000000; stroke-width: 0.8"/>
      </g>
     </g>
     <g id="text_9">
      <!-- 40 -->
      <g transform="translate(392.124773 322.182437) scale(0.1 -0.1)">
       <defs>
        <path id="DejaVuSans-34" d="M 2419 4116 
L 825 1625 
L 2419 1625 
L 2419 4116 
z
M 2253 4666 
L 3047 4666 
L 3047 1625 
L 3713 1625 
L 3713 1100 
L 3047 1100 
L 3047 0 
L 2419 0 
L 2419 1100 
L 313 1100 
L 313 1709 
L 2253 4666 
z
" transform="scale(0.015625)"/>
       </defs>
       <use xlink:href="#DejaVuSans-34"/>
       <use xlink:href="#DejaVuSans-30" x="63.623047"/>
      </g>
     </g>
    </g>
    <g id="text_10">
     <!-- t -->
     <g transform="translate(234.199844 335.860562) scale(0.1 -0.1)">
      <defs>
       <path id="DejaVuSans-74" d="M 1172 4494 
L 1172 3500 
L 2356 3500 
L 2356 3053 
L 1172 3053 
L 1172 1153 
Q 1172 725 1289 603 
Q 1406 481 1766 481 
L 2356 481 
L 2356 0 
L 1766 0 
Q 1100 0 847 248 
Q 594 497 594 1153 
L 594 3053 
L 172 3053 
L 172 3500 
L 594 3500 
L 594 4494 
L 1172 4494 
z
" transform="scale(0.015625)"/>
      </defs>
      <use xlink:href="#DejaVuSans-74"/>
     </g>
    </g>
   </g>
   <g id="matplotlib.axis_2">
    <g id="ytick_1">
     <g id="line2d_10">
      <defs>
       <path id="m7474c21a17" d="M 0 0 
L -3.5 0 
" style="stroke: #000000; stroke-width: 0.8"/>
      </defs>
      <g>
       <use xlink:href="#m7474c21a17" x="57.6" y="307.584" style="stroke: #000000; stroke-width: 0.8"/>
      </g>
     </g>
     <g id="text_11">
      <!-- 0.0 -->
      <g transform="translate(34.696875 311.383219) scale(0.1 -0.1)">
       <defs>
        <path id="DejaVuSans-2e" d="M 684 794 
L 1344 794 
L 1344 0 
L 684 0 
L 684 794 
z
" transform="scale(0.015625)"/>
       </defs>
       <use xlink:href="#DejaVuSans-30"/>
       <use xlink:href="#DejaVuSans-2e" x="63.623047"/>
       <use xlink:href="#DejaVuSans-30" x="95.410156"/>
      </g>
     </g>
    </g>
    <g id="ytick_2">
     <g id="line2d_11">
      <g>
       <use xlink:href="#m7474c21a17" x="57.6" y="254.3616" style="stroke: #000000; stroke-width: 0.8"/>
      </g>
     </g>
     <g id="text_12">
      <!-- 0.2 -->
      <g transform="translate(34.696875 258.160819) scale(0.1 -0.1)">
       <use xlink:href="#DejaVuSans-30"/>
       <use xlink:href="#DejaVuSans-2e" x="63.623047"/>
       <use xlink:href="#DejaVuSans-32" x="95.410156"/>
      </g>
     </g>
    </g>
    <g id="ytick_3">
     <g id="line2d_12">
      <g>
       <use xlink:href="#m7474c21a17" x="57.6" y="201.1392" style="stroke: #000000; stroke-width: 0.8"/>
      </g>
     </g>
     <g id="text_13">
      <!-- 0.4 -->
      <g transform="translate(34.696875 204.938419) scale(0.1 -0.1)">
       <use xlink:href="#DejaVuSans-30"/>
       <use xlink:href="#DejaVuSans-2e" x="63.623047"/>
       <use xlink:href="#DejaVuSans-34" x="95.410156"/>
      </g>
     </g>
    </g>
    <g id="ytick_4">
     <g id="line2d_13">
      <g>
       <use xlink:href="#m7474c21a17" x="57.6" y="147.9168" style="stroke: #000000; stroke-width: 0.8"/>
      </g>
     </g>
     <g id="text_14">
      <!-- 0.6 -->
      <g transform="translate(34.696875 151.716019) scale(0.1 -0.1)">
       <defs>
        <path id="DejaVuSans-36" d="M 2113 2584 
Q 1688 2584 1439 2293 
Q 1191 2003 1191 1497 
Q 1191 994 1439 701 
Q 1688 409 2113 409 
Q 2538 409 2786 701 
Q 3034 994 3034 1497 
Q 3034 2003 2786 2293 
Q 2538 2584 2113 2584 
z
M 3366 4563 
L 3366 3988 
Q 3128 4100 2886 4159 
Q 2644 4219 2406 4219 
Q 1781 4219 1451 3797 
Q 1122 3375 1075 2522 
Q 1259 2794 1537 2939 
Q 1816 3084 2150 3084 
Q 2853 3084 3261 2657 
Q 3669 2231 3669 1497 
Q 3669 778 3244 343 
Q 2819 -91 2113 -91 
Q 1303 -91 875 529 
Q 447 1150 447 2328 
Q 447 3434 972 4092 
Q 1497 4750 2381 4750 
Q 2619 4750 2861 4703 
Q 3103 4656 3366 4563 
z
" transform="scale(0.015625)"/>
       </defs>
       <use xlink:href="#DejaVuSans-30"/>
       <use xlink:href="#DejaVuSans-2e" x="63.623047"/>
       <use xlink:href="#DejaVuSans-36" x="95.410156"/>
      </g>
     </g>
    </g>
    <g id="ytick_5">
     <g id="line2d_14">
      <g>
       <use xlink:href="#m7474c21a17" x="57.6" y="94.6944" style="stroke: #000000; stroke-width: 0.8"/>
      </g>
     </g>
     <g id="text_15">
      <!-- 0.8 -->
      <g transform="translate(34.696875 98.493619) scale(0.1 -0.1)">
       <defs>
        <path id="DejaVuSans-38" d="M 2034 2216 
Q 1584 2216 1326 1975 
Q 1069 1734 1069 1313 
Q 1069 891 1326 650 
Q 1584 409 2034 409 
Q 2484 409 2743 651 
Q 3003 894 3003 1313 
Q 3003 1734 2745 1975 
Q 2488 2216 2034 2216 
z
M 1403 2484 
Q 997 2584 770 2862 
Q 544 3141 544 3541 
Q 544 4100 942 4425 
Q 1341 4750 2034 4750 
Q 2731 4750 3128 4425 
Q 3525 4100 3525 3541 
Q 3525 3141 3298 2862 
Q 3072 2584 2669 2484 
Q 3125 2378 3379 2068 
Q 3634 1759 3634 1313 
Q 3634 634 3220 271 
Q 2806 -91 2034 -91 
Q 1263 -91 848 271 
Q 434 634 434 1313 
Q 434 1759 690 2068 
Q 947 2378 1403 2484 
z
M 1172 3481 
Q 1172 3119 1398 2916 
Q 1625 2713 2034 2713 
Q 2441 2713 2670 2916 
Q 2900 3119 2900 3481 
Q 2900 3844 2670 4047 
Q 2441 4250 2034 4250 
Q 1625 4250 1398 4047 
Q 1172 3844 1172 3481 
z
" transform="scale(0.015625)"/>
       </defs>
       <use xlink:href="#DejaVuSans-30"/>
       <use xlink:href="#DejaVuSans-2e" x="63.623047"/>
       <use xlink:href="#DejaVuSans-38" x="95.410156"/>
      </g>
     </g>
    </g>
    <g id="ytick_6">
     <g id="line2d_15">
      <g>
       <use xlink:href="#m7474c21a17" x="57.6" y="41.472" style="stroke: #000000; stroke-width: 0.8"/>
      </g>
     </g>
     <g id="text_16">
      <!-- 1.0 -->
      <g transform="translate(34.696875 45.271219) scale(0.1 -0.1)">
       <use xlink:href="#DejaVuSans-31"/>
       <use xlink:href="#DejaVuSans-2e" x="63.623047"/>
       <use xlink:href="#DejaVuSans-30" x="95.410156"/>
      </g>
     </g>
    </g>
    <g id="text_17">
     <!-- p(context) -->
     <g transform="translate(28.617187 200.449875) rotate(-90) scale(0.1 -0.1)">
      <defs>
       <path id="DejaVuSans-70" d="M 1159 525 
L 1159 -1331 
L 581 -1331 
L 581 3500 
L 1159 3500 
L 1159 2969 
Q 1341 3281 1617 3432 
Q 1894 3584 2278 3584 
Q 2916 3584 3314 3078 
Q 3713 2572 3713 1747 
Q 3713 922 3314 415 
Q 2916 -91 2278 -91 
Q 1894 -91 1617 61 
Q 1341 213 1159 525 
z
M 3116 1747 
Q 3116 2381 2855 2742 
Q 2594 3103 2138 3103 
Q 1681 3103 1420 2742 
Q 1159 2381 1159 1747 
Q 1159 1113 1420 752 
Q 1681 391 2138 391 
Q 2594 391 2855 752 
Q 3116 1113 3116 1747 
z
" transform="scale(0.015625)"/>
       <path id="DejaVuSans-28" d="M 1984 4856 
Q 1566 4138 1362 3434 
Q 1159 2731 1159 2009 
Q 1159 1288 1364 580 
Q 1569 -128 1984 -844 
L 1484 -844 
Q 1016 -109 783 600 
Q 550 1309 550 2009 
Q 550 2706 781 3412 
Q 1013 4119 1484 4856 
L 1984 4856 
z
" transform="scale(0.015625)"/>
       <path id="DejaVuSans-63" d="M 3122 3366 
L 3122 2828 
Q 2878 2963 2633 3030 
Q 2388 3097 2138 3097 
Q 1578 3097 1268 2742 
Q 959 2388 959 1747 
Q 959 1106 1268 751 
Q 1578 397 2138 397 
Q 2388 397 2633 464 
Q 2878 531 3122 666 
L 3122 134 
Q 2881 22 2623 -34 
Q 2366 -91 2075 -91 
Q 1284 -91 818 406 
Q 353 903 353 1747 
Q 353 2603 823 3093 
Q 1294 3584 2113 3584 
Q 2378 3584 2631 3529 
Q 2884 3475 3122 3366 
z
" transform="scale(0.015625)"/>
       <path id="DejaVuSans-6f" d="M 1959 3097 
Q 1497 3097 1228 2736 
Q 959 2375 959 1747 
Q 959 1119 1226 758 
Q 1494 397 1959 397 
Q 2419 397 2687 759 
Q 2956 1122 2956 1747 
Q 2956 2369 2687 2733 
Q 2419 3097 1959 3097 
z
M 1959 3584 
Q 2709 3584 3137 3096 
Q 3566 2609 3566 1747 
Q 3566 888 3137 398 
Q 2709 -91 1959 -91 
Q 1206 -91 779 398 
Q 353 888 353 1747 
Q 353 2609 779 3096 
Q 1206 3584 1959 3584 
z
" transform="scale(0.015625)"/>
       <path id="DejaVuSans-6e" d="M 3513 2113 
L 3513 0 
L 2938 0 
L 2938 2094 
Q 2938 2591 2744 2837 
Q 2550 3084 2163 3084 
Q 1697 3084 1428 2787 
Q 1159 2491 1159 1978 
L 1159 0 
L 581 0 
L 581 3500 
L 1159 3500 
L 1159 2956 
Q 1366 3272 1645 3428 
Q 1925 3584 2291 3584 
Q 2894 3584 3203 3211 
Q 3513 2838 3513 2113 
z
" transform="scale(0.015625)"/>
       <path id="DejaVuSans-65" d="M 3597 1894 
L 3597 1613 
L 953 1613 
Q 991 1019 1311 708 
Q 1631 397 2203 397 
Q 2534 397 2845 478 
Q 3156 559 3463 722 
L 3463 178 
Q 3153 47 2828 -22 
Q 2503 -91 2169 -91 
Q 1331 -91 842 396 
Q 353 884 353 1716 
Q 353 2575 817 3079 
Q 1281 3584 2069 3584 
Q 2775 3584 3186 3129 
Q 3597 2675 3597 1894 
z
M 3022 2063 
Q 3016 2534 2758 2815 
Q 2500 3097 2075 3097 
Q 1594 3097 1305 2825 
Q 1016 2553 972 2059 
L 3022 2063 
z
" transform="scale(0.015625)"/>
       <path id="DejaVuSans-78" d="M 3513 3500 
L 2247 1797 
L 3578 0 
L 2900 0 
L 1881 1375 
L 863 0 
L 184 0 
L 1544 1831 
L 300 3500 
L 978 3500 
L 1906 2253 
L 2834 3500 
L 3513 3500 
z
" transform="scale(0.015625)"/>
       <path id="DejaVuSans-29" d="M 513 4856 
L 1013 4856 
Q 1481 4119 1714 3412 
Q 1947 2706 1947 2009 
Q 1947 1309 1714 600 
Q 1481 -109 1013 -844 
L 513 -844 
Q 928 -128 1133 580 
Q 1338 1288 1338 2009 
Q 1338 2731 1133 3434 
Q 928 4138 513 4856 
z
" transform="scale(0.015625)"/>
      </defs>
      <use xlink:href="#DejaVuSans-70"/>
      <use xlink:href="#DejaVuSans-28" x="63.476562"/>
      <use xlink:href="#DejaVuSans-63" x="102.490234"/>
      <use xlink:href="#DejaVuSans-6f" x="157.470703"/>
      <use xlink:href="#DejaVuSans-6e" x="218.652344"/>
      <use xlink:href="#DejaVuSans-74" x="282.03125"/>
      <use xlink:href="#DejaVuSans-65" x="321.240234"/>
      <use xlink:href="#DejaVuSans-78" x="381.013672"/>
      <use xlink:href="#DejaVuSans-74" x="440.193359"/>
      <use xlink:href="#DejaVuSans-29" x="479.402344"/>
     </g>
    </g>
   </g>
   <g id="line2d_16">
    <path d="M 73.832727 147.9168 
L 81.949091 53.862343 
L 90.065455 47.558781 
L 98.181818 241.389165 
L 106.298182 294.948803 
L 114.414545 302.595672 
L 122.530909 304.512623 
L 130.647273 305.36049 
L 138.763636 123.146235 
L 146.88 275.033317 
L 154.996364 109.0262 
L 163.112727 259.343891 
L 171.229091 295.007162 
L 179.345455 143.81156 
L 187.461818 75.481085 
L 195.578182 230.402139 
L 203.694545 282.549505 
L 211.810909 293.449766 
L 219.927273 296.118328 
L 228.043636 259.552482 
L 236.16 238.044296 
L 244.276364 110.345674 
L 252.392727 73.076916 
L 260.509091 228.233139 
L 268.625455 113.525911 
L 276.741818 78.286371 
L 284.858182 69.78066 
L 292.974545 66.499093 
L 301.090909 64.328473 
L 309.207273 62.555774 
L 317.323636 217.99997 
L 325.44 276.488544 
L 333.556364 137.702567 
L 341.672727 82.551593 
L 349.789091 69.677713 
L 357.905455 66.166062 
L 366.021818 64.468702 
L 374.138182 63.190999 
L 382.254545 62.078757 
L 390.370909 61.077394 
" clip-path="url(#pb52ad8d9cd)" style="fill: none; stroke: #add8e6; stroke-opacity: 0.3; stroke-width: 1.5; stroke-linecap: square"/>
   </g>
   <g id="line2d_17">
    <path d="M 73.832727 147.9168 
L 81.949091 301.175595 
L 90.065455 306.336319 
L 98.181818 118.98439 
L 106.298182 60.693326 
L 114.414545 51.878049 
L 122.530909 49.097278 
L 130.647273 256.627964 
L 138.763636 301.603887 
L 146.88 305.082154 
L 154.996364 305.737381 
L 163.112727 306.087316 
L 171.229091 306.328888 
L 179.345455 152.68078 
L 187.461818 288.860238 
L 195.578182 304.277775 
L 203.694545 305.551249 
L 211.810909 281.414091 
L 219.927273 304.284058 
L 228.043636 281.772318 
L 236.16 264.925872 
L 244.276364 105.871796 
L 252.392727 58.913285 
L 260.509091 52.766069 
L 268.625455 51.096531 
L 276.741818 50.042487 
L 284.858182 244.62085 
L 292.974545 96.089338 
L 301.090909 57.015704 
L 309.207273 51.746957 
L 317.323636 50.559365 
L 325.44 49.873518 
L 333.556364 49.312362 
L 341.672727 48.825559 
L 349.789091 48.39748 
L 357.905455 48.018106 
L 366.021818 47.679696 
L 374.138182 47.376054 
L 382.254545 237.498012 
L 390.370909 90.316864 
" clip-path="url(#pb52ad8d9cd)" style="fill: none; stroke: #add8e6; stroke-opacity: 0.3; stroke-width: 1.5; stroke-linecap: square"/>
   </g>
   <g id="line2d_18">
    <path d="M 73.832727 147.9168 
L 81.949091 301.175595 
L 90.065455 306.336319 
L 98.181818 306.926677 
L 106.298182 307.139919 
L 114.414545 307.250756 
L 122.530909 307.318486 
L 130.647273 307.363998 
L 138.763636 307.396584 
L 146.88 307.421008 
L 154.996364 296.829891 
L 163.112727 307.323679 
L 171.229091 297.530649 
L 179.345455 95.523267 
L 187.461818 52.474014 
L 195.578182 273.615962 
L 203.694545 305.4743 
L 211.810909 293.103343 
L 219.927273 306.542675 
L 228.043636 294.799083 
L 236.16 285.268618 
L 244.276364 92.56084 
L 252.392727 52.978396 
L 260.509091 49.766516 
L 268.625455 48.482331 
L 276.741818 248.713372 
L 284.858182 75.977855 
L 292.974545 50.716032 
L 301.090909 48.702028 
L 309.207273 47.988352 
L 317.323636 47.44184 
L 325.44 46.98596 
L 333.556364 46.598793 
L 341.672727 46.265897 
L 349.789091 45.976635 
L 357.905455 45.722968 
L 366.021818 233.175654 
L 374.138182 69.942336 
L 382.254545 251.415813 
L 390.370909 87.303141 
" clip-path="url(#pb52ad8d9cd)" style="fill: none; stroke: #add8e6; stroke-opacity: 0.3; stroke-width: 1.5; stroke-linecap: square"/>
   </g>
   <g id="line2d_19">
    <path d="M 73.832727 147.9168 
L 81.949091 53.862343 
L 90.065455 255.988789 
L 98.181818 296.847072 
L 106.298182 302.86034 
L 114.414545 114.340141 
L 122.530909 59.629792 
L 130.647273 238.718893 
L 138.763636 291.47512 
L 146.88 126.336357 
L 154.996364 257.105848 
L 163.112727 289.101478 
L 171.229091 295.426058 
L 179.345455 297.495921 
L 187.461818 298.736699 
L 195.578182 299.68125 
L 203.694545 266.253234 
L 211.810909 295.985809 
L 219.927273 265.699823 
L 228.043636 296.43456 
L 236.16 267.295045 
L 244.276364 297.072023 
L 252.392727 268.835713 
L 260.509091 115.4159 
L 268.625455 70.011268 
L 276.741818 62.02568 
L 284.858182 59.029747 
L 292.974545 56.981869 
L 301.090909 55.365823 
L 309.207273 54.047181 
L 317.323636 52.952467 
L 325.44 52.031063 
L 333.556364 51.246217 
L 341.672727 50.570619 
L 349.789091 49.983605 
L 357.905455 49.469288 
L 366.021818 49.015283 
L 374.138182 48.611804 
L 382.254545 48.251033 
L 390.370909 47.926653 
" clip-path="url(#pb52ad8d9cd)" style="fill: none; stroke: #add8e6; stroke-opacity: 0.3; stroke-width: 1.5; stroke-linecap: square"/>
   </g>
   <g id="line2d_20">
    <path d="M 73.832727 147.9168 
L 81.949091 301.175595 
L 90.065455 306.336319 
L 98.181818 306.926677 
L 106.298182 130.749377 
L 114.414545 295.899927 
L 122.530909 305.574671 
L 130.647273 306.29619 
L 138.763636 306.535479 
L 146.88 306.69465 
L 154.996364 306.813338 
L 163.112727 290.09504 
L 171.229091 306.402974 
L 179.345455 290.978943 
L 187.461818 306.502376 
L 195.578182 292.054948 
L 203.694545 116.718766 
L 211.810909 290.973468 
L 219.927273 305.449749 
L 228.043636 289.816516 
L 236.16 280.107249 
L 244.276364 104.824323 
L 252.392727 281.206769 
L 260.509091 123.638519 
L 268.625455 68.789862 
L 276.741818 59.90038 
L 284.858182 56.652546 
L 292.974545 54.525994 
L 301.090909 52.932817 
L 309.207273 51.688525 
L 317.323636 50.690927 
L 325.44 49.874353 
L 333.556364 241.821237 
L 341.672727 86.995054 
L 349.789091 54.464432 
L 357.905455 232.101028 
L 366.021818 91.425157 
L 374.138182 57.475126 
L 382.254545 52.899093 
L 390.370909 51.847961 
" clip-path="url(#pb52ad8d9cd)" style="fill: none; stroke: #add8e6; stroke-opacity: 0.3; stroke-width: 1.5; stroke-linecap: square"/>
   </g>
   <g id="line2d_21">
    <path d="M 73.832727 147.9168 
L 81.949091 301.175595 
L 90.065455 306.336319 
L 98.181818 306.926677 
L 106.298182 307.139919 
L 114.414545 307.250756 
L 122.530909 307.318486 
L 130.647273 146.292069 
L 138.763636 299.6278 
L 146.88 306.516879 
L 154.996364 161.103234 
L 163.112727 296.500775 
L 171.229091 305.457758 
L 179.345455 285.443382 
L 187.461818 305.216481 
L 195.578182 286.557136 
L 203.694545 305.395523 
L 211.810909 287.728929 
L 219.927273 305.551212 
L 228.043636 288.725179 
L 236.16 279.699615 
L 244.276364 305.339037 
L 252.392727 288.888754 
L 260.509091 280.664267 
L 268.625455 305.466227 
L 276.741818 289.260117 
L 284.858182 281.616871 
L 292.974545 132.386778 
L 301.090909 75.113142 
L 309.207273 281.507775 
L 317.323636 272.052965 
L 325.44 125.573421 
L 333.556364 73.425089 
L 341.672727 63.380605 
L 349.789091 59.61977 
L 357.905455 57.16947 
L 366.021818 55.314666 
L 374.138182 53.849571 
L 382.254545 259.579486 
L 390.370909 111.986083 
" clip-path="url(#pb52ad8d9cd)" style="fill: none; stroke: #add8e6; stroke-opacity: 0.3; stroke-width: 1.5; stroke-linecap: square"/>
   </g>
   <g id="line2d_22">
    <path d="M 73.832727 147.9168 
L 81.949091 301.175595 
L 90.065455 306.336319 
L 98.181818 306.926677 
L 106.298182 307.139919 
L 114.414545 307.250756 
L 122.530909 307.318486 
L 130.647273 307.363998 
L 138.763636 307.396584 
L 146.88 307.421008 
L 154.996364 296.829891 
L 163.112727 307.323679 
L 171.229091 297.530649 
L 179.345455 307.347697 
L 187.461818 298.226758 
L 195.578182 307.367796 
L 203.694545 298.796569 
L 211.810909 100.690172 
L 219.927273 53.19097 
L 228.043636 278.266219 
L 236.16 269.374753 
L 244.276364 94.884537 
L 252.392727 54.772116 
L 260.509091 50.6068 
L 268.625455 49.104267 
L 276.741818 251.197335 
L 284.858182 87.783742 
L 292.974545 53.207713 
L 301.090909 49.757367 
L 309.207273 48.821582 
L 317.323636 48.175991 
L 325.44 47.645647 
L 333.556364 47.197563 
L 341.672727 46.813766 
L 349.789091 234.814466 
L 357.905455 81.0689 
L 366.021818 50.724676 
L 374.138182 226.433339 
L 382.254545 85.559039 
L 390.370909 53.213131 
" clip-path="url(#pb52ad8d9cd)" style="fill: none; stroke: #add8e6; stroke-opacity: 0.3; stroke-width: 1.5; stroke-linecap: square"/>
   </g>
   <g id="line2d_23">
    <path d="M 73.832727 147.9168 
L 81.949091 301.175595 
L 90.065455 306.336319 
L 98.181818 118.98439 
L 106.298182 60.693326 
L 114.414545 51.878049 
L 122.530909 49.097278 
L 130.647273 256.627964 
L 138.763636 301.603887 
L 146.88 305.082154 
L 154.996364 143.184946 
L 163.112727 283.195937 
L 171.229091 302.206676 
L 179.345455 304.233754 
L 187.461818 159.370896 
L 195.578182 281.849779 
L 203.694545 142.555485 
L 211.810909 270.648744 
L 219.927273 296.195356 
L 228.043636 300.17284 
L 236.16 266.258696 
L 244.276364 128.742682 
L 252.392727 263.105029 
L 260.509091 136.891259 
L 268.625455 84.290539 
L 276.741818 70.89863 
L 284.858182 66.487541 
L 292.974545 63.996241 
L 301.090909 62.087208 
L 309.207273 60.485732 
L 317.323636 59.108103 
L 325.44 57.91014 
L 333.556364 56.860378 
L 341.672727 55.93431 
L 349.789091 55.112348 
L 357.905455 54.378661 
L 366.021818 232.770154 
L 374.138182 103.295914 
L 382.254545 253.391856 
L 390.370909 292.414692 
" clip-path="url(#pb52ad8d9cd)" style="fill: none; stroke: #add8e6; stroke-opacity: 0.3; stroke-width: 1.5; stroke-linecap: square"/>
   </g>
   <g id="line2d_24">
    <path d="M 73.832727 147.9168 
L 81.949091 53.862343 
L 90.065455 255.988789 
L 98.181818 296.847072 
L 106.298182 302.86034 
L 114.414545 304.566632 
L 122.530909 122.516013 
L 130.647273 275.200246 
L 138.763636 300.055819 
L 146.88 303.098955 
L 154.996364 145.583061 
L 163.112727 274.917089 
L 171.229091 297.886246 
L 179.345455 155.066447 
L 187.461818 271.174068 
L 195.578182 294.190329 
L 203.694545 263.806619 
L 211.810909 293.843355 
L 219.927273 265.000618 
L 228.043636 294.572217 
L 236.16 266.583753 
L 244.276364 132.842646 
L 252.392727 85.062077 
L 260.509091 73.142023 
L 268.625455 243.721387 
L 276.741818 126.006244 
L 284.858182 85.719692 
L 292.974545 75.210456 
L 301.090909 70.935762 
L 309.207273 68.091689 
L 317.323636 65.796864 
L 325.44 63.85138 
L 333.556364 62.176605 
L 341.672727 60.722477 
L 349.789091 232.977928 
L 357.905455 287.218909 
L 366.021818 145.522825 
L 374.138182 82.519169 
L 382.254545 67.956757 
L 390.370909 64.345607 
" clip-path="url(#pb52ad8d9cd)" style="fill: none; stroke: #add8e6; stroke-opacity: 0.3; stroke-width: 1.5; stroke-linecap: square"/>
   </g>
   <g id="line2d_25">
    <path d="M 73.832727 147.9168 
L 81.949091 301.175595 
L 90.065455 306.336319 
L 98.181818 306.926677 
L 106.298182 307.139919 
L 114.414545 307.250756 
L 122.530909 143.002723 
L 130.647273 298.891552 
L 138.763636 139.83618 
L 146.88 292.044311 
L 154.996364 304.501787 
L 163.112727 305.560279 
L 171.229091 283.181359 
L 179.345455 304.692057 
L 187.461818 284.0931 
L 195.578182 304.909633 
L 203.694545 285.47557 
L 211.810909 305.113402 
L 219.927273 286.649639 
L 228.043636 305.281054 
L 236.16 287.649216 
L 244.276364 137.865057 
L 252.392727 74.610645 
L 260.509091 275.103655 
L 268.625455 302.419372 
L 276.741818 282.851448 
L 284.858182 271.688954 
L 292.974545 124.184404 
L 301.090909 72.492629 
L 309.207273 62.772681 
L 317.323636 59.174608 
L 325.44 56.82474 
L 333.556364 253.973016 
L 341.672727 112.47487 
L 349.789091 67.066205 
L 357.905455 59.240483 
L 366.021818 57.031643 
L 374.138182 55.68673 
L 382.254545 54.600291 
L 390.370909 53.672471 
" clip-path="url(#pb52ad8d9cd)" style="fill: none; stroke: #add8e6; stroke-opacity: 0.3; stroke-width: 1.5; stroke-linecap: square"/>
   </g>
   <g id="line2d_26">
    <path d="M 73.832727 147.9168 
L 81.949091 301.175595 
L 90.065455 306.336319 
L 98.181818 118.98439 
L 106.298182 292.429024 
L 114.414545 126.409001 
L 122.530909 282.999719 
L 130.647273 301.039863 
L 138.763636 303.327715 
L 146.88 304.137474 
L 154.996364 304.665017 
L 163.112727 167.47967 
L 171.229091 287.75272 
L 179.345455 157.730011 
L 187.461818 280.430438 
L 195.578182 162.33454 
L 203.694545 275.70071 
L 211.810909 294.49984 
L 219.927273 264.330559 
L 228.043636 293.700847 
L 236.16 265.220382 
L 244.276364 154.80577 
L 252.392727 108.51611 
L 260.509091 93.114318 
L 268.625455 85.714082 
L 276.741818 80.640062 
L 284.858182 250.784954 
L 292.974545 288.785684 
L 301.090909 253.790935 
L 309.207273 137.671494 
L 317.323636 94.641789 
L 325.44 248.731635 
L 333.556364 142.830263 
L 341.672727 102.757216 
L 349.789091 90.667978 
L 357.905455 85.853476 
L 366.021818 239.54467 
L 374.138182 279.746085 
L 382.254545 240.813888 
L 390.370909 136.731611 
" clip-path="url(#pb52ad8d9cd)" style="fill: none; stroke: #add8e6; stroke-opacity: 0.3; stroke-width: 1.5; stroke-linecap: square"/>
   </g>
   <g id="line2d_27">
    <path d="M 73.832727 147.9168 
L 81.949091 301.175595 
L 90.065455 306.336319 
L 98.181818 118.98439 
L 106.298182 60.693326 
L 114.414545 271.058677 
L 122.530909 302.196943 
L 130.647273 141.611082 
L 138.763636 281.652561 
L 146.88 300.458758 
L 154.996364 302.913508 
L 163.112727 162.528664 
L 171.229091 281.26466 
L 179.345455 298.919868 
L 187.461818 301.478963 
L 195.578182 302.290279 
L 203.694545 272.818441 
L 211.810909 130.317844 
L 219.927273 272.008565 
L 228.043636 296.975057 
L 236.16 268.396729 
L 244.276364 128.522536 
L 252.392727 266.517294 
L 260.509091 250.172595 
L 268.625455 120.461578 
L 276.741818 259.187714 
L 284.858182 244.675326 
L 292.974545 238.043841 
L 301.090909 117.557294 
L 309.207273 83.356361 
L 317.323636 74.920484 
L 325.44 70.916775 
L 333.556364 67.97142 
L 341.672727 65.544575 
L 349.789091 63.493206 
L 357.905455 61.740533 
L 366.021818 60.230645 
L 374.138182 58.920048 
L 382.254545 57.774378 
L 390.370909 56.76626 
" clip-path="url(#pb52ad8d9cd)" style="fill: none; stroke: #add8e6; stroke-opacity: 0.3; stroke-width: 1.5; stroke-linecap: square"/>
   </g>
   <g id="line2d_28">
    <path d="M 73.832727 147.9168 
L 81.949091 301.175595 
L 90.065455 97.637624 
L 98.181818 284.386334 
L 106.298182 302.832782 
L 114.414545 304.905446 
L 122.530909 305.623043 
L 130.647273 306.037678 
L 138.763636 306.313374 
L 146.88 306.509433 
L 154.996364 306.65543 
L 163.112727 289.487839 
L 171.229091 306.134164 
L 179.345455 290.341407 
L 187.461818 306.254621 
L 195.578182 291.455496 
L 203.694545 116.165463 
L 211.810909 287.984019 
L 219.927273 304.997401 
L 228.043636 289.001242 
L 236.16 278.686481 
L 244.276364 104.176393 
L 252.392727 60.435372 
L 260.509091 54.826384 
L 268.625455 52.505909 
L 276.741818 50.936315 
L 284.858182 49.77118 
L 292.974545 247.663297 
L 301.090909 83.262823 
L 309.207273 53.209558 
L 317.323636 233.877171 
L 325.44 296.589879 
L 333.556364 274.809842 
L 341.672727 301.956264 
L 349.789091 279.587513 
L 357.905455 262.159425 
L 366.021818 95.568209 
L 374.138182 255.961236 
L 382.254545 103.387067 
L 390.370909 60.479207 
" clip-path="url(#pb52ad8d9cd)" style="fill: none; stroke: #add8e6; stroke-opacity: 0.3; stroke-width: 1.5; stroke-linecap: square"/>
   </g>
   <g id="line2d_29">
    <path d="M 73.832727 147.9168 
L 81.949091 301.175595 
L 90.065455 306.336319 
L 98.181818 306.926677 
L 106.298182 307.139919 
L 114.414545 307.250756 
L 122.530909 307.318486 
L 130.647273 307.363998 
L 138.763636 307.396584 
L 146.88 307.421008 
L 154.996364 296.829891 
L 163.112727 307.323679 
L 171.229091 297.530649 
L 179.345455 307.347697 
L 187.461818 298.226758 
L 195.578182 307.367796 
L 203.694545 298.796569 
L 211.810909 307.383972 
L 219.927273 299.273072 
L 228.043636 307.397322 
L 236.16 299.679284 
L 244.276364 294.682121 
L 252.392727 96.628319 
L 260.509091 296.117819 
L 268.625455 306.848171 
L 276.741818 298.063161 
L 284.858182 291.989273 
L 292.974545 288.284106 
L 301.090909 89.106657 
L 309.207273 53.879358 
L 317.323636 50.393934 
L 325.44 48.760605 
L 333.556364 47.670636 
L 341.672727 46.882275 
L 349.789091 46.283989 
L 357.905455 45.813708 
L 366.021818 45.433898 
L 374.138182 45.12047 
L 382.254545 44.85723 
L 390.370909 44.63288 
" clip-path="url(#pb52ad8d9cd)" style="fill: none; stroke: #add8e6; stroke-opacity: 0.3; stroke-width: 1.5; stroke-linecap: square"/>
   </g>
   <g id="line2d_30">
    <path d="M 73.832727 147.9168 
L 81.949091 301.175595 
L 90.065455 306.336319 
L 98.181818 306.926677 
L 106.298182 307.139919 
L 114.414545 307.250756 
L 122.530909 143.002723 
L 130.647273 298.891552 
L 138.763636 306.324184 
L 146.88 306.758049 
L 154.996364 306.878973 
L 163.112727 290.489011 
L 171.229091 306.509901 
L 179.345455 291.365546 
L 187.461818 306.600253 
L 195.578182 292.416219 
L 203.694545 306.68011 
L 211.810909 293.289603 
L 219.927273 120.086801 
L 228.043636 293.275045 
L 236.16 281.478135 
L 244.276364 108.094296 
L 252.392727 61.302652 
L 260.509091 54.975613 
L 268.625455 52.428593 
L 276.741818 50.761497 
L 284.858182 255.000395 
L 292.974545 90.245368 
L 301.090909 55.072394 
L 309.207273 51.38999 
L 317.323636 50.295535 
L 325.44 49.52 
L 333.556364 48.879868 
L 341.672727 48.337935 
L 349.789091 47.873169 
L 357.905455 238.800089 
L 366.021818 83.186188 
L 374.138182 52.029317 
L 382.254545 48.951038 
L 390.370909 48.357103 
" clip-path="url(#pb52ad8d9cd)" style="fill: none; stroke: #add8e6; stroke-opacity: 0.3; stroke-width: 1.5; stroke-linecap: square"/>
   </g>
   <g id="line2d_31">
    <path d="M 73.832727 147.9168 
L 81.949091 301.175595 
L 90.065455 306.336319 
L 98.181818 306.926677 
L 106.298182 307.139919 
L 114.414545 138.132227 
L 122.530909 297.762667 
L 130.647273 306.037515 
L 138.763636 306.575278 
L 146.88 160.487085 
L 154.996364 295.434858 
L 163.112727 305.058212 
L 171.229091 305.841804 
L 179.345455 285.291258 
L 187.461818 305.067114 
L 195.578182 286.039236 
L 203.694545 128.169985 
L 211.810909 287.578738 
L 219.927273 272.427863 
L 228.043636 302.901997 
L 236.16 282.525477 
L 244.276364 303.722625 
L 252.392727 283.887003 
L 260.509091 273.710888 
L 268.625455 122.499805 
L 276.741818 283.464897 
L 284.858182 270.728813 
L 292.974545 265.269587 
L 301.090909 118.969298 
L 309.207273 75.002742 
L 317.323636 65.915506 
L 325.44 259.316002 
L 333.556364 297.329303 
L 341.672727 273.911547 
L 349.789091 260.956256 
L 357.905455 254.282848 
L 366.021818 109.510278 
L 374.138182 70.848012 
L 382.254545 64.054399 
L 390.370909 61.298352 
" clip-path="url(#pb52ad8d9cd)" style="fill: none; stroke: #add8e6; stroke-opacity: 0.3; stroke-width: 1.5; stroke-linecap: square"/>
   </g>
   <g id="line2d_32">
    <path d="M 73.832727 147.9168 
L 81.949091 301.175595 
L 90.065455 306.336319 
L 98.181818 306.926677 
L 106.298182 307.139919 
L 114.414545 307.250756 
L 122.530909 307.318486 
L 130.647273 307.363998 
L 138.763636 307.396584 
L 146.88 150.042594 
L 154.996364 300.486326 
L 163.112727 306.755766 
L 171.229091 292.075139 
L 179.345455 306.677718 
L 187.461818 293.035031 
L 195.578182 306.752964 
L 203.694545 293.917473 
L 211.810909 306.815563 
L 219.927273 294.656084 
L 228.043636 287.254419 
L 236.16 283.26469 
L 244.276364 306.592912 
L 252.392727 294.166488 
L 260.509091 287.476568 
L 268.625455 111.069633 
L 276.741818 60.361691 
L 284.858182 280.99063 
L 292.974545 118.885748 
L 301.090909 63.677211 
L 309.207273 55.933887 
L 317.323636 258.242087 
L 325.44 110.584256 
L 333.556364 63.905084 
L 341.672727 56.658069 
L 349.789091 54.538394 
L 357.905455 241.512647 
L 366.021818 297.408965 
L 374.138182 277.597773 
L 382.254545 263.161815 
L 390.370909 300.627918 
" clip-path="url(#pb52ad8d9cd)" style="fill: none; stroke: #add8e6; stroke-opacity: 0.3; stroke-width: 1.5; stroke-linecap: square"/>
   </g>
   <g id="line2d_33">
    <path d="M 73.832727 147.9168 
L 81.949091 301.175595 
L 90.065455 97.637624 
L 98.181818 284.386334 
L 106.298182 302.832782 
L 114.414545 304.905446 
L 122.530909 305.623043 
L 130.647273 306.037678 
L 138.763636 306.313374 
L 146.88 306.509433 
L 154.996364 162.658187 
L 163.112727 293.441487 
L 171.229091 304.784814 
L 179.345455 283.86749 
L 187.461818 304.510868 
L 195.578182 285.008851 
L 203.694545 304.741616 
L 211.810909 286.250868 
L 219.927273 304.944143 
L 228.043636 287.309499 
L 236.16 277.265643 
L 244.276364 132.86622 
L 252.392727 74.899764 
L 260.509091 62.695749 
L 268.625455 58.172683 
L 276.741818 55.436133 
L 284.858182 259.151515 
L 292.974545 301.163154 
L 301.090909 278.802196 
L 309.207273 123.107259 
L 317.323636 64.543721 
L 325.44 56.106902 
L 333.556364 54.052126 
L 341.672727 52.828243 
L 349.789091 51.853794 
L 357.905455 51.03718 
L 366.021818 245.470226 
L 374.138182 99.130324 
L 382.254545 58.677954 
L 390.370909 238.639102 
" clip-path="url(#pb52ad8d9cd)" style="fill: none; stroke: #add8e6; stroke-opacity: 0.3; stroke-width: 1.5; stroke-linecap: square"/>
   </g>
   <g id="line2d_34">
    <path d="M 73.832727 147.9168 
L 81.949091 301.175595 
L 90.065455 306.336319 
L 98.181818 306.926677 
L 106.298182 307.139919 
L 114.414545 307.250756 
L 122.530909 307.318486 
L 130.647273 307.363998 
L 138.763636 307.396584 
L 146.88 150.042594 
L 154.996364 300.486326 
L 163.112727 306.755766 
L 171.229091 292.075139 
L 179.345455 306.677718 
L 187.461818 293.035031 
L 195.578182 306.752964 
L 203.694545 293.917473 
L 211.810909 116.666581 
L 219.927273 292.475652 
L 228.043636 280.77257 
L 236.16 275.586571 
L 244.276364 107.858066 
L 252.392727 62.314019 
L 260.509091 267.188022 
L 268.625455 112.99112 
L 276.741818 65.788951 
L 284.858182 58.248982 
L 292.974545 55.592441 
L 301.090909 53.830839 
L 309.207273 52.474979 
L 317.323636 51.390323 
L 325.44 50.503378 
L 333.556364 49.76542 
L 341.672727 49.142389 
L 349.789091 48.609755 
L 357.905455 48.149422 
L 366.021818 47.74777 
L 374.138182 47.394358 
L 382.254545 47.08106 
L 390.370909 46.801458 
" clip-path="url(#pb52ad8d9cd)" style="fill: none; stroke: #add8e6; stroke-opacity: 0.3; stroke-width: 1.5; stroke-linecap: square"/>
   </g>
   <g id="line2d_35">
    <path d="M 73.832727 147.9168 
L 81.949091 301.175595 
L 90.065455 306.336319 
L 98.181818 306.926677 
L 106.298182 130.749377 
L 114.414545 295.899927 
L 122.530909 305.574671 
L 130.647273 153.561103 
L 138.763636 75.56592 
L 146.88 270.323844 
L 154.996364 300.560965 
L 163.112727 303.703305 
L 171.229091 304.389484 
L 179.345455 304.787274 
L 187.461818 279.696083 
L 195.578182 303.36098 
L 203.694545 280.240614 
L 211.810909 303.619178 
L 219.927273 281.648124 
L 228.043636 303.890887 
L 236.16 282.883143 
L 244.276364 132.23996 
L 252.392727 284.315283 
L 260.509091 269.110264 
L 268.625455 122.64575 
L 276.741818 276.664623 
L 284.858182 263.087201 
L 292.974545 298.690904 
L 301.090909 275.535807 
L 309.207273 263.690602 
L 317.323636 299.01591 
L 325.44 275.939452 
L 333.556364 264.722562 
L 341.672727 124.674278 
L 349.789091 79.145584 
L 357.905455 69.377453 
L 366.021818 65.306507 
L 374.138182 62.492317 
L 382.254545 60.270198 
L 390.370909 58.456289 
" clip-path="url(#pb52ad8d9cd)" style="fill: none; stroke: #add8e6; stroke-opacity: 0.3; stroke-width: 1.5; stroke-linecap: square"/>
   </g>
   <g id="line2d_36">
    <path d="M 73.832727 214.4448 
L 81.949091 303.902028 
L 90.065455 306.423219 
L 98.181818 134.789406 
L 106.298182 69.452196 
L 114.414545 56.395048 
L 122.530909 52.000524 
L 130.647273 49.73978 
L 138.763636 252.874077 
L 146.88 89.476507 
L 154.996364 259.507886 
L 163.112727 106.223359 
L 171.229091 62.893779 
L 179.345455 227.127381 
L 187.461818 285.444319 
L 195.578182 137.081858 
L 203.694545 77.141005 
L 211.810909 64.115409 
L 219.927273 60.642551 
L 228.043636 102.893335 
L 236.16 124.98186 
L 244.276364 256.190348 
L 252.392727 287.888472 
L 260.509091 136.564803 
L 268.625455 251.983741 
L 276.741818 282.8425 
L 284.858182 289.8586 
L 292.974545 292.310365 
L 301.090909 293.826676 
L 309.207273 295.031876 
L 317.323636 149.0747 
L 325.44 83.330848 
L 333.556364 227.588185 
L 341.672727 277.176212 
L 349.789091 288.459075 
L 357.905455 291.343858 
L 366.021818 292.617765 
L 374.138182 293.534064 
L 382.254545 294.319511 
L 390.370909 295.021448 
" clip-path="url(#pb52ad8d9cd)" style="fill: none; stroke: #ff0000; stroke-opacity: 0.1; stroke-width: 1.5; stroke-linecap: square"/>
   </g>
   <g id="line2d_37">
    <path d="M 73.832727 214.4448 
L 81.949091 65.696574 
L 90.065455 51.875872 
L 98.181818 252.917183 
L 106.298182 298.355719 
L 114.414545 303.681423 
L 122.530909 304.981379 
L 130.647273 123.318744 
L 138.763636 59.594306 
L 146.88 52.72714 
L 154.996364 50.723861 
L 163.112727 49.450042 
L 171.229091 48.503397 
L 179.345455 222.682226 
L 187.461818 73.659489 
L 195.578182 51.643163 
L 203.694545 49.369759 
L 211.810909 79.776379 
L 219.927273 50.996605 
L 228.043636 79.058999 
L 236.16 96.415695 
L 244.276364 260.287947 
L 252.392727 298.216924 
L 260.509091 302.636846 
L 268.625455 303.588509 
L 276.741818 304.119416 
L 284.858182 125.723257 
L 292.974545 266.169759 
L 301.090909 298.458969 
L 309.207273 302.562254 
L 317.323636 303.334788 
L 325.44 303.719351 
L 333.556364 304.021632 
L 341.672727 304.279802 
L 349.789091 304.504175 
L 357.905455 304.700925 
L 366.021818 304.874713 
L 374.138182 305.029222 
L 382.254545 135.466029 
L 390.370909 269.106272 
" clip-path="url(#pb52ad8d9cd)" style="fill: none; stroke: #ff0000; stroke-opacity: 0.1; stroke-width: 1.5; stroke-linecap: square"/>
   </g>
   <g id="line2d_38">
    <path d="M 73.832727 214.4448 
L 81.949091 65.696574 
L 90.065455 51.875872 
L 98.181818 48.392805 
L 106.298182 46.788511 
L 114.414545 45.836088 
L 122.530909 45.196473 
L 130.647273 44.734232 
L 138.763636 44.383194 
L 146.88 44.106815 
L 154.996364 59.178632 
L 163.112727 44.375487 
L 171.229091 58.155946 
L 179.345455 280.92757 
L 187.461818 306.25514 
L 195.578182 100.971908 
L 203.694545 47.830005 
L 211.810909 63.811278 
L 219.927273 45.531428 
L 228.043636 61.720412 
L 236.16 72.028025 
L 244.276364 279.13143 
L 252.392727 305.38479 
L 260.509091 306.51351 
L 268.625455 306.754954 
L 276.741818 124.40369 
L 284.858182 287.349892 
L 292.974545 305.280454 
L 301.090909 306.276727 
L 309.207273 306.469933 
L 317.323636 306.597799 
L 325.44 306.700019 
L 333.556364 306.784054 
L 341.672727 306.854249 
L 349.789091 306.913666 
L 357.905455 306.964539 
L 366.021818 143.360743 
L 374.138182 289.195242 
L 382.254545 115.171112 
L 390.370909 273.80117 
" clip-path="url(#pb52ad8d9cd)" style="fill: none; stroke: #ff0000; stroke-opacity: 0.1; stroke-width: 1.5; stroke-linecap: square"/>
   </g>
   <g id="line2d_39">
    <path d="M 73.832727 214.4448 
L 81.949091 303.902028 
L 90.065455 118.443891 
L 98.181818 66.202266 
L 106.298182 55.416433 
L 114.414545 259.707434 
L 122.530909 299.601384 
L 130.647273 133.403107 
L 138.763636 69.149984 
L 146.88 245.174323 
L 154.996364 109.228678 
L 163.112727 71.073337 
L 171.229091 62.921211 
L 179.345455 59.890226 
L 187.461818 57.927308 
L 195.578182 56.386109 
L 203.694545 96.408492 
L 211.810909 60.613625 
L 219.927273 96.63306 
L 228.043636 59.894864 
L 236.16 94.678746 
L 244.276364 58.979871 
L 252.392727 92.814529 
L 260.509091 256.471459 
L 268.625455 292.527074 
L 276.741818 298.121187 
L 284.858182 299.890532 
L 292.974545 301.001446 
L 301.090909 301.843849 
L 309.207273 302.511199 
L 317.323636 303.051223 
L 325.44 303.49549 
L 333.556364 303.8662 
L 341.672727 304.179397 
L 349.789091 304.446922 
L 357.905455 304.677668 
L 366.021818 304.878429 
L 374.138182 305.054471 
L 382.254545 305.209925 
L 390.370909 305.348077 
" clip-path="url(#pb52ad8d9cd)" style="fill: none; stroke: #ff0000; stroke-opacity: 0.1; stroke-width: 1.5; stroke-linecap: square"/>
   </g>
   <g id="line2d_40">
    <path d="M 73.832727 214.4448 
L 81.949091 65.696574 
L 90.065455 51.875872 
L 98.181818 48.392805 
L 106.298182 242.768882 
L 114.414545 70.104559 
L 122.530909 50.77039 
L 130.647273 48.555298 
L 138.763636 47.605191 
L 146.88 46.918562 
L 154.996364 46.379927 
L 163.112727 68.774108 
L 171.229091 47.121565 
L 179.345455 67.516147 
L 187.461818 46.775904 
L 195.578182 66.072828 
L 203.694545 258.284857 
L 211.810909 72.04901 
L 219.927273 48.104493 
L 228.043636 68.593499 
L 236.16 79.263324 
L 244.276364 269.141652 
L 252.392727 82.381369 
L 260.509091 249.908534 
L 268.625455 295.061054 
L 276.741818 301.040875 
L 284.858182 302.633064 
L 292.974545 303.539082 
L 301.090909 304.176771 
L 309.207273 304.652697 
L 317.323636 305.019942 
L 325.44 305.310712 
L 333.556364 132.635211 
L 341.672727 275.168756 
L 349.789091 301.682464 
L 357.905455 139.873773 
L 366.021818 270.370787 
L 374.138182 299.117084 
L 382.254545 302.746129 
L 390.370909 303.40396 
" clip-path="url(#pb52ad8d9cd)" style="fill: none; stroke: #ff0000; stroke-opacity: 0.1; stroke-width: 1.5; stroke-linecap: square"/>
   </g>
   <g id="line2d_41">
    <path d="M 73.832727 214.4448 
L 81.949091 65.696574 
L 90.065455 51.875872 
L 98.181818 48.392805 
L 106.298182 46.788511 
L 114.414545 45.836088 
L 122.530909 45.196473 
L 130.647273 230.484225 
L 138.763636 62.947564 
L 146.88 47.26187 
L 154.996364 212.687171 
L 163.112727 65.474747 
L 171.229091 48.997032 
L 179.345455 73.836256 
L 187.461818 49.222121 
L 195.578182 72.4144 
L 203.694545 48.795149 
L 211.810909 70.942715 
L 219.927273 48.422897 
L 228.043636 69.682318 
L 236.16 79.684983 
L 244.276364 48.738202 
L 252.392727 69.3874 
L 260.509091 78.502729 
L 268.625455 48.446301 
L 276.741818 68.867527 
L 284.858182 77.346303 
L 292.974545 238.747464 
L 301.090909 287.92639 
L 309.207273 82.306339 
L 317.323636 87.73485 
L 325.44 243.954382 
L 333.556364 288.888197 
L 341.672727 296.537231 
L 349.789091 298.911537 
L 357.905455 300.321916 
L 366.021818 301.346846 
L 374.138182 302.133569 
L 382.254545 108.52118 
L 390.370909 251.296045 
" clip-path="url(#pb52ad8d9cd)" style="fill: none; stroke: #ff0000; stroke-opacity: 0.1; stroke-width: 1.5; stroke-linecap: square"/>
   </g>
   <g id="line2d_42">
    <path d="M 73.832727 214.4448 
L 81.949091 65.696574 
L 90.065455 51.875872 
L 98.181818 48.392805 
L 106.298182 46.788511 
L 114.414545 45.836088 
L 122.530909 45.196473 
L 130.647273 44.734232 
L 138.763636 44.383194 
L 146.88 44.106815 
L 154.996364 59.178632 
L 163.112727 44.375487 
L 171.229091 58.155946 
L 179.345455 44.190085 
L 187.461818 57.162696 
L 195.578182 44.036265 
L 203.694545 56.342288 
L 211.810909 276.827945 
L 219.927273 305.940045 
L 228.043636 93.611162 
L 236.16 89.463898 
L 244.276364 271.448938 
L 252.392727 303.146047 
L 260.509091 305.416734 
L 268.625455 305.919188 
L 276.741818 121.097654 
L 284.858182 274.760724 
L 292.974545 302.722676 
L 301.090909 305.083072 
L 309.207273 305.500959 
L 317.323636 305.740304 
L 325.44 305.928243 
L 333.556364 306.082754 
L 341.672727 306.212012 
L 349.789091 139.197739 
L 357.905455 278.05238 
L 366.021818 303.163514 
L 374.138182 144.03098 
L 382.254545 273.371947 
L 390.370909 301.084017 
" clip-path="url(#pb52ad8d9cd)" style="fill: none; stroke: #ff0000; stroke-opacity: 0.1; stroke-width: 1.5; stroke-linecap: square"/>
   </g>
   <g id="line2d_43">
    <path d="M 73.832727 214.4448 
L 81.949091 65.696574 
L 90.065455 51.875872 
L 98.181818 252.917183 
L 106.298182 298.355719 
L 114.414545 303.681423 
L 122.530909 304.981379 
L 130.647273 123.318744 
L 138.763636 59.594306 
L 146.88 52.72714 
L 154.996364 229.35171 
L 163.112727 82.463487 
L 171.229091 56.451018 
L 179.345455 52.912601 
L 187.461818 212.713739 
L 195.578182 81.895802 
L 203.694545 225.118274 
L 211.810909 94.314644 
L 219.927273 63.173417 
L 228.043636 57.840434 
L 236.16 97.312306 
L 244.276364 238.789561 
L 252.392727 100.744181 
L 260.509091 230.197573 
L 268.625455 276.488269 
L 276.741818 287.860944 
L 284.858182 291.334794 
L 292.974545 293.157635 
L 301.090909 294.508341 
L 309.207273 295.62426 
L 317.323636 296.574389 
L 325.44 297.393471 
L 333.556364 298.105625 
L 341.672727 298.72936 
L 349.789091 299.279304 
L 357.905455 299.767163 
L 366.021818 139.241973 
L 374.138182 256.88886 
L 382.254545 113.347175 
L 390.370909 68.062213 
" clip-path="url(#pb52ad8d9cd)" style="fill: none; stroke: #ff0000; stroke-opacity: 0.1; stroke-width: 1.5; stroke-linecap: square"/>
   </g>
   <g id="line2d_44">
    <path d="M 73.832727 214.4448 
L 81.949091 303.902028 
L 90.065455 118.443891 
L 98.181818 66.202266 
L 106.298182 55.416433 
L 114.414545 51.490243 
L 122.530909 253.06207 
L 130.647273 90.492311 
L 138.763636 57.284466 
L 146.88 52.562194 
L 154.996364 229.265394 
L 163.112727 88.644406 
L 171.229091 59.198484 
L 179.345455 217.608029 
L 187.461818 91.933176 
L 195.578182 63.504909 
L 203.694545 98.925661 
L 211.810909 63.749687 
L 219.927273 97.443586 
L 228.043636 62.729966 
L 236.16 95.571487 
L 244.276364 238.287947 
L 252.392727 279.672844 
L 260.509091 289.132275 
L 268.625455 122.185613 
L 276.741818 241.466892 
L 284.858182 277.323941 
L 292.974545 286.12446 
L 301.090909 289.356134 
L 309.207273 291.364558 
L 317.323636 292.939346 
L 325.44 294.25336 
L 333.556364 295.370598 
L 341.672727 296.330067 
L 349.789091 136.784666 
L 357.905455 72.419357 
L 366.021818 219.684722 
L 374.138182 276.689901 
L 382.254545 289.617098 
L 390.370909 292.63475 
" clip-path="url(#pb52ad8d9cd)" style="fill: none; stroke: #ff0000; stroke-opacity: 0.1; stroke-width: 1.5; stroke-linecap: square"/>
   </g>
   <g id="line2d_45">
    <path d="M 73.832727 214.4448 
L 81.949091 65.696574 
L 90.065455 51.875872 
L 98.181818 48.392805 
L 106.298182 46.788511 
L 114.414545 45.836088 
L 122.530909 232.805198 
L 130.647273 64.421792 
L 138.763636 231.740908 
L 146.88 72.397903 
L 154.996364 51.187255 
L 163.112727 48.915312 
L 171.229091 76.954081 
L 179.345455 50.272761 
L 187.461818 75.731626 
L 195.578182 49.773497 
L 203.694545 74.002364 
L 211.810909 49.315187 
L 219.927273 72.524155 
L 228.043636 48.931966 
L 236.16 71.256428 
L 244.276364 234.390533 
L 252.392727 288.433312 
L 260.509091 90.582096 
L 268.625455 52.493949 
L 276.741818 76.474885 
L 284.858182 88.49086 
L 292.974545 246.230755 
L 301.090909 290.148694 
L 309.207273 297.402619 
L 317.323636 299.600024 
L 325.44 300.89835 
L 333.556364 113.936158 
L 341.672727 252.385766 
L 349.789091 291.84689 
L 357.905455 298.230744 
L 366.021818 299.746977 
L 374.138182 300.559217 
L 382.254545 301.189423 
L 390.370909 301.717872 
" clip-path="url(#pb52ad8d9cd)" style="fill: none; stroke: #ff0000; stroke-opacity: 0.1; stroke-width: 1.5; stroke-linecap: square"/>
   </g>
   <g id="line2d_46">
    <path d="M 73.832727 214.4448 
L 81.949091 65.696574 
L 90.065455 51.875872 
L 98.181818 252.917183 
L 106.298182 76.147698 
L 114.414545 244.156924 
L 122.530909 86.024807 
L 130.647273 59.031656 
L 138.763636 54.692348 
L 146.88 52.805434 
L 154.996364 51.469035 
L 163.112727 207.070484 
L 171.229091 75.689163 
L 179.345455 213.400063 
L 187.461818 84.078598 
L 195.578182 207.576517 
L 203.694545 88.967304 
L 211.810909 64.947985 
L 219.927273 99.766057 
L 228.043636 65.807307 
L 236.16 98.671449 
L 244.276364 215.682797 
L 252.392727 257.786631 
L 260.509091 271.078436 
L 268.625455 277.015958 
L 276.741818 280.896344 
L 284.858182 117.802303 
L 292.974545 71.679575 
L 301.090909 110.268743 
L 309.207273 229.67097 
L 317.323636 268.484468 
L 325.44 117.88531 
L 333.556364 223.74374 
L 341.672727 260.488376 
L 349.789091 271.240505 
L 357.905455 275.262077 
L 366.021818 128.388386 
L 374.138182 81.847971 
L 382.254545 123.428026 
L 390.370909 228.821807 
" clip-path="url(#pb52ad8d9cd)" style="fill: none; stroke: #ff0000; stroke-opacity: 0.1; stroke-width: 1.5; stroke-linecap: square"/>
   </g>
   <g id="line2d_47">
    <path d="M 73.832727 214.4448 
L 81.949091 65.696574 
L 90.065455 51.875872 
L 98.181818 252.917183 
L 106.298182 298.355719 
L 114.414545 105.040699 
L 122.530909 58.088696 
L 130.647273 230.656365 
L 138.763636 85.671416 
L 146.88 59.375642 
L 154.996364 55.125021 
L 163.112727 210.154253 
L 171.229091 83.605475 
L 179.345455 60.222662 
L 187.461818 56.326854 
L 195.578182 54.81787 
L 203.694545 90.657593 
L 211.810909 241.064267 
L 219.927273 92.089779 
L 228.043636 60.837328 
L 236.16 95.06385 
L 244.276364 243.888701 
L 252.392727 96.948932 
L 260.509091 114.222159 
L 268.625455 251.384569 
L 276.741818 104.340905 
L 284.858182 119.981906 
L 292.974545 126.909696 
L 301.090909 254.538215 
L 309.207273 283.025585 
L 317.323636 289.374013 
L 325.44 292.049323 
L 333.556364 293.904381 
L 341.672727 295.389306 
L 349.789091 296.618023 
L 357.905455 297.648442 
L 366.021818 298.521221 
L 374.138182 299.267134 
L 382.254545 299.909934 
L 390.370909 300.468145 
" clip-path="url(#pb52ad8d9cd)" style="fill: none; stroke: #ff0000; stroke-opacity: 0.1; stroke-width: 1.5; stroke-linecap: square"/>
   </g>
   <g id="line2d_48">
    <path d="M 73.832727 214.4448 
L 81.949091 65.696574 
L 90.065455 271.260252 
L 98.181818 88.532695 
L 106.298182 58.406434 
L 114.414545 53.286574 
L 122.530909 50.993807 
L 130.647273 49.510122 
L 138.763636 48.447465 
L 146.88 47.64606 
L 154.996364 47.019424 
L 163.112727 70.587476 
L 171.229091 47.809402 
L 179.345455 69.277534 
L 187.461818 47.413159 
L 195.578182 67.735957 
L 203.694545 261.064308 
L 211.810909 75.346311 
L 219.927273 48.974285 
L 228.043636 70.40648 
L 236.16 81.629084 
L 244.276364 271.482042 
L 252.392727 301.985239 
L 260.509091 304.612287 
L 268.625455 305.342833 
L 276.741818 305.776954 
L 284.858182 306.077467 
L 292.974545 124.959765 
L 301.090909 281.578309 
L 309.207273 303.63867 
L 317.323636 137.183319 
L 325.44 59.464298 
L 333.556364 85.571401 
L 341.672727 52.549601 
L 349.789091 80.435724 
L 357.905455 98.404626 
L 366.021818 272.137857 
L 374.138182 107.249427 
L 382.254545 263.572423 
L 390.370909 298.316473 
" clip-path="url(#pb52ad8d9cd)" style="fill: none; stroke: #ff0000; stroke-opacity: 0.1; stroke-width: 1.5; stroke-linecap: square"/>
   </g>
   <g id="line2d_49">
    <path d="M 73.832727 214.4448 
L 81.949091 65.696574 
L 90.065455 51.875872 
L 98.181818 48.392805 
L 106.298182 46.788511 
L 114.414545 45.836088 
L 122.530909 45.196473 
L 130.647273 44.734232 
L 138.763636 44.383194 
L 146.88 44.106815 
L 154.996364 59.178632 
L 163.112727 44.375487 
L 171.229091 58.155946 
L 179.345455 44.190085 
L 187.461818 57.162696 
L 195.578182 44.036265 
L 203.694545 56.342288 
L 211.810909 43.909185 
L 219.927273 55.650532 
L 228.043636 43.801822 
L 236.16 55.056492 
L 244.276364 60.607262 
L 252.392727 278.430236 
L 260.509091 66.210741 
L 268.625455 44.802884 
L 276.741818 57.032863 
L 284.858182 63.77893 
L 292.974545 67.819576 
L 301.090909 285.100185 
L 309.207273 305.966177 
L 317.323636 306.756227 
L 325.44 306.974015 
L 333.556364 307.102058 
L 341.672727 307.187488 
L 349.789091 307.24829 
L 357.905455 307.293604 
L 366.021818 307.328578 
L 374.138182 307.356325 
L 382.254545 307.378836 
L 390.370909 307.397436 
" clip-path="url(#pb52ad8d9cd)" style="fill: none; stroke: #ff0000; stroke-opacity: 0.1; stroke-width: 1.5; stroke-linecap: square"/>
   </g>
   <g id="line2d_50">
    <path d="M 73.832727 214.4448 
L 81.949091 65.696574 
L 90.065455 51.875872 
L 98.181818 48.392805 
L 106.298182 46.788511 
L 114.414545 45.836088 
L 122.530909 232.805198 
L 130.647273 64.421792 
L 138.763636 48.048008 
L 146.88 46.596496 
L 154.996364 46.056992 
L 163.112727 67.801621 
L 171.229091 46.784717 
L 179.345455 66.58708 
L 187.461818 46.462626 
L 195.578182 65.195097 
L 203.694545 46.182799 
L 211.810909 64.028585 
L 219.927273 254.376561 
L 228.043636 68.85879 
L 236.16 77.52626 
L 244.276364 264.987583 
L 252.392727 300.770691 
L 260.509091 304.093827 
L 268.625455 305.000877 
L 276.741818 305.522562 
L 284.858182 116.83584 
L 292.974545 274.271387 
L 301.090909 302.099311 
L 309.207273 304.536383 
L 317.323636 305.019117 
L 325.44 305.310745 
L 333.556364 305.541738 
L 341.672727 305.732193 
L 349.789091 305.891811 
L 357.905455 135.676822 
L 366.021818 277.274718 
L 374.138182 302.653941 
L 382.254545 304.975999 
L 390.370909 305.301729 
" clip-path="url(#pb52ad8d9cd)" style="fill: none; stroke: #ff0000; stroke-opacity: 0.1; stroke-width: 1.5; stroke-linecap: square"/>
   </g>
   <g id="line2d_51">
    <path d="M 73.832727 214.4448 
L 81.949091 65.696574 
L 90.065455 51.875872 
L 98.181818 48.392805 
L 106.298182 46.788511 
L 114.414545 236.616241 
L 122.530909 66.62469 
L 130.647273 49.142838 
L 138.763636 47.404167 
L 146.88 213.420136 
L 154.996364 67.14571 
L 163.112727 50.127453 
L 171.229091 48.355034 
L 179.345455 74.46742 
L 187.461818 49.615533 
L 195.578182 73.440138 
L 203.694545 244.049251 
L 211.810909 75.365447 
L 219.927273 88.654769 
L 228.043636 52.294225 
L 236.16 77.308847 
L 244.276364 50.968049 
L 252.392727 75.655289 
L 260.509091 86.813029 
L 268.625455 249.396366 
L 276.741818 78.30466 
L 284.858182 90.15999 
L 292.974545 96.020395 
L 301.090909 253.263645 
L 309.207273 289.968298 
L 317.323636 296.396149 
L 325.44 106.583373 
L 333.556364 58.455791 
L 341.672727 86.376348 
L 349.789091 100.196044 
L 357.905455 107.273548 
L 366.021818 260.55345 
L 374.138182 292.512658 
L 382.254545 297.380631 
L 390.370909 298.990554 
" clip-path="url(#pb52ad8d9cd)" style="fill: none; stroke: #ff0000; stroke-opacity: 0.1; stroke-width: 1.5; stroke-linecap: square"/>
   </g>
   <g id="line2d_52">
    <path d="M 73.832727 214.4448 
L 81.949091 65.696574 
L 90.065455 51.875872 
L 98.181818 48.392805 
L 106.298182 46.788511 
L 114.414545 45.836088 
L 122.530909 45.196473 
L 130.647273 44.734232 
L 138.763636 44.383194 
L 146.88 228.516579 
L 154.996364 61.210137 
L 163.112727 46.21058 
L 171.229091 65.354768 
L 179.345455 46.150095 
L 187.461818 64.06888 
L 195.578182 45.876731 
L 203.694545 62.895949 
L 211.810909 45.647058 
L 219.927273 61.906103 
L 228.043636 70.18827 
L 236.16 74.581238 
L 244.276364 46.042795 
L 252.392727 62.345186 
L 260.509091 69.823815 
L 268.625455 261.822348 
L 276.741818 300.797511 
L 284.858182 84.723404 
L 292.974545 250.556466 
L 301.090909 296.710793 
L 309.207273 302.123543 
L 317.323636 109.810683 
L 325.44 254.378197 
L 333.556364 294.968307 
L 341.672727 300.674405 
L 349.789091 301.982053 
L 357.905455 127.253238 
L 366.021818 57.719026 
L 374.138182 80.42019 
L 382.254545 95.40606 
L 390.370909 53.471454 
" clip-path="url(#pb52ad8d9cd)" style="fill: none; stroke: #ff0000; stroke-opacity: 0.1; stroke-width: 1.5; stroke-linecap: square"/>
   </g>
   <g id="line2d_53">
    <path d="M 73.832727 214.4448 
L 81.949091 65.696574 
L 90.065455 271.260252 
L 98.181818 88.532695 
L 106.298182 58.406434 
L 114.414545 53.286574 
L 122.530909 50.993807 
L 130.647273 49.510122 
L 138.763636 48.447465 
L 146.88 47.64606 
L 154.996364 216.186309 
L 163.112727 69.196638 
L 171.229091 50.6393 
L 179.345455 77.39572 
L 187.461818 50.831617 
L 195.578182 75.851748 
L 203.694545 50.305453 
L 211.810909 74.235121 
L 219.927273 49.84686 
L 228.043636 72.848631 
L 236.16 83.765126 
L 244.276364 239.294928 
L 252.392727 288.143614 
L 260.509091 297.154218 
L 268.625455 299.930151 
L 276.741818 301.449101 
L 284.858182 110.834107 
L 292.974545 54.961117 
L 301.090909 81.799978 
L 309.207273 245.955229 
L 317.323636 294.389562 
L 325.44 300.835065 
L 333.556364 302.108183 
L 341.672727 302.76135 
L 349.789091 303.258924 
L 357.905455 303.666726 
L 366.021818 125.342849 
L 374.138182 263.20903 
L 382.254545 297.297794 
L 390.370909 130.177465 
" clip-path="url(#pb52ad8d9cd)" style="fill: none; stroke: #ff0000; stroke-opacity: 0.1; stroke-width: 1.5; stroke-linecap: square"/>
   </g>
   <g id="line2d_54">
    <path d="M 73.832727 214.4448 
L 81.949091 65.696574 
L 90.065455 51.875872 
L 98.181818 48.392805 
L 106.298182 46.788511 
L 114.414545 45.836088 
L 122.530909 45.196473 
L 130.647273 44.734232 
L 138.763636 44.383194 
L 146.88 228.516579 
L 154.996364 61.210137 
L 163.112727 46.21058 
L 171.229091 65.354768 
L 179.345455 46.150095 
L 187.461818 64.06888 
L 195.578182 45.876731 
L 203.694545 62.895949 
L 211.810909 257.559082 
L 219.927273 70.648358 
L 228.043636 78.075823 
L 236.16 83.53168 
L 244.276364 263.016928 
L 252.392727 299.547547 
L 260.509091 100.964584 
L 268.625455 255.542461 
L 276.741818 295.560997 
L 284.858182 300.970666 
L 292.974545 302.394181 
L 301.090909 303.220212 
L 309.207273 303.823786 
L 317.323636 304.289657 
L 325.44 304.659247 
L 333.556364 304.958661 
L 341.672727 305.205497 
L 349.789091 305.41204 
L 357.905455 305.587103 
L 366.021818 305.737153 
L 374.138182 305.867037 
L 382.254545 305.980449 
L 390.370909 306.08025 
" clip-path="url(#pb52ad8d9cd)" style="fill: none; stroke: #ff0000; stroke-opacity: 0.1; stroke-width: 1.5; stroke-linecap: square"/>
   </g>
   <g id="line2d_55">
    <path d="M 73.832727 214.4448 
L 81.949091 65.696574 
L 90.065455 51.875872 
L 98.181818 48.392805 
L 106.298182 242.768882 
L 114.414545 70.104559 
L 122.530909 50.77039 
L 130.647273 219.240883 
L 138.763636 286.290386 
L 146.88 101.542299 
L 154.996364 58.19665 
L 163.112727 52.889155 
L 171.229091 51.420581 
L 179.345455 50.458207 
L 187.461818 81.686701 
L 195.578182 52.415933 
L 203.694545 80.825292 
L 211.810909 51.879102 
L 219.927273 79.067689 
L 228.043636 51.344815 
L 236.16 77.52193 
L 244.276364 239.448456 
L 252.392727 77.40936 
L 260.509091 92.372011 
L 268.625455 248.381527 
L 276.741818 85.403224 
L 284.858182 98.804487 
L 292.974545 57.25584 
L 301.090909 85.342055 
L 309.207273 97.988856 
L 317.323636 56.766547 
L 325.44 84.782781 
L 333.556364 96.768427 
L 341.672727 247.071902 
L 349.789091 285.361438 
L 357.905455 292.760417 
L 366.021818 295.427587 
L 374.138182 297.141961 
L 382.254545 298.450476 
L 390.370909 299.492765 
" clip-path="url(#pb52ad8d9cd)" style="fill: none; stroke: #ff0000; stroke-opacity: 0.1; stroke-width: 1.5; stroke-linecap: square"/>
   </g>
   <g id="line2d_56">
    <path d="M 73.832727 147.9168 
L 81.949091 264.078607 
L 90.065455 267.49282 
L 98.181818 262.799349 
L 106.298182 250.330104 
L 114.414545 251.023762 
L 122.530909 241.006205 
L 130.647273 271.702591 
L 138.763636 274.346987 
L 146.88 269.871053 
L 154.996364 260.214253 
L 163.112727 282.623628 
L 171.229091 298.265845 
L 179.345455 258.51399 
L 187.461818 265.423544 
L 195.578182 285.934304 
L 203.694545 257.186264 
L 211.810909 266.367864 
L 219.927273 269.576535 
L 228.043636 291.593568 
L 236.16 275.009682 
L 244.276364 164.195476 
L 252.392727 154.7216 
L 260.509091 164.780818 
L 268.625455 124.112251 
L 276.741818 150.024355 
L 284.858182 176.189336 
L 292.974545 148.321102 
L 301.090909 99.91682 
L 309.207273 86.971124 
L 317.323636 108.359478 
L 325.44 114.701383 
L 333.556364 116.612518 
L 341.672727 88.861377 
L 349.789091 97.055011 
L 357.905455 116.964033 
L 366.021818 115.826791 
L 374.138182 102.881049 
L 382.254545 118.112958 
L 390.370909 98.344709 
" clip-path="url(#pb52ad8d9cd)" style="fill: none; stroke: #1f77b4; stroke-width: 1.5; stroke-linecap: square"/>
   </g>
   <g id="line2d_57">
    <path d="M 73.832727 214.4448 
L 81.949091 101.427392 
L 90.065455 93.198479 
L 98.181818 99.412446 
L 106.298182 108.747358 
L 114.414545 108.71202 
L 122.530909 118.284128 
L 130.647273 90.445947 
L 138.763636 84.085401 
L 146.88 90.881568 
L 154.996364 101.47436 
L 163.112727 76.719675 
L 171.229091 58.626081 
L 179.345455 102.263112 
L 187.461818 92.927053 
L 195.578182 72.830186 
L 203.694545 103.820202 
L 211.810909 94.474901 
L 219.927273 89.519662 
L 228.043636 66.971022 
L 236.16 85.265635 
L 244.276364 202.540299 
L 252.392727 207.35463 
L 260.509091 197.663583 
L 268.625455 237.703431 
L 276.741818 211.069035 
L 284.858182 186.234053 
L 292.974545 213.105605 
L 301.090909 261.276354 
L 309.207273 272.50621 
L 317.323636 250.906855 
L 325.44 243.895329 
L 333.556364 242.520065 
L 341.672727 269.064466 
L 349.789091 261.483565 
L 357.905455 242.358946 
L 366.021818 245.385865 
L 374.138182 255.487914 
L 382.254545 241.637008 
L 390.370909 259.499695 
" clip-path="url(#pb52ad8d9cd)" style="fill: none; stroke: #ff0000; stroke-width: 1.5; stroke-linecap: square"/>
   </g>
   <g id="patch_5">
    <path d="M 57.6 307.584 
L 57.6 41.472 
" style="fill: none; stroke: #000000; stroke-width: 0.8; stroke-linejoin: miter; stroke-linecap: square"/>
   </g>
   <g id="patch_6">
    <path d="M 414.72 307.584 
L 414.72 41.472 
" style="fill: none; stroke: #000000; stroke-width: 0.8; stroke-linejoin: miter; stroke-linecap: square"/>
   </g>
   <g id="patch_7">
    <path d="M 57.6 307.584 
L 414.72 307.584 
" style="fill: none; stroke: #000000; stroke-width: 0.8; stroke-linejoin: miter; stroke-linecap: square"/>
   </g>
   <g id="patch_8">
    <path d="M 57.6 41.472 
L 414.72 41.472 
" style="fill: none; stroke: #000000; stroke-width: 0.8; stroke-linejoin: miter; stroke-linecap: square"/>
   </g>
   <g id="text_18">
    <!-- Player1_healthy -->
    <g transform="translate(188.127187 35.472) scale(0.12 -0.12)">
     <defs>
      <path id="DejaVuSans-50" d="M 1259 4147 
L 1259 2394 
L 2053 2394 
Q 2494 2394 2734 2622 
Q 2975 2850 2975 3272 
Q 2975 3691 2734 3919 
Q 2494 4147 2053 4147 
L 1259 4147 
z
M 628 4666 
L 2053 4666 
Q 2838 4666 3239 4311 
Q 3641 3956 3641 3272 
Q 3641 2581 3239 2228 
Q 2838 1875 2053 1875 
L 1259 1875 
L 1259 0 
L 628 0 
L 628 4666 
z
" transform="scale(0.015625)"/>
      <path id="DejaVuSans-6c" d="M 603 4863 
L 1178 4863 
L 1178 0 
L 603 0 
L 603 4863 
z
" transform="scale(0.015625)"/>
      <path id="DejaVuSans-61" d="M 2194 1759 
Q 1497 1759 1228 1600 
Q 959 1441 959 1056 
Q 959 750 1161 570 
Q 1363 391 1709 391 
Q 2188 391 2477 730 
Q 2766 1069 2766 1631 
L 2766 1759 
L 2194 1759 
z
M 3341 1997 
L 3341 0 
L 2766 0 
L 2766 531 
Q 2569 213 2275 61 
Q 1981 -91 1556 -91 
Q 1019 -91 701 211 
Q 384 513 384 1019 
Q 384 1609 779 1909 
Q 1175 2209 1959 2209 
L 2766 2209 
L 2766 2266 
Q 2766 2663 2505 2880 
Q 2244 3097 1772 3097 
Q 1472 3097 1187 3025 
Q 903 2953 641 2809 
L 641 3341 
Q 956 3463 1253 3523 
Q 1550 3584 1831 3584 
Q 2591 3584 2966 3190 
Q 3341 2797 3341 1997 
z
" transform="scale(0.015625)"/>
      <path id="DejaVuSans-79" d="M 2059 -325 
Q 1816 -950 1584 -1140 
Q 1353 -1331 966 -1331 
L 506 -1331 
L 506 -850 
L 844 -850 
Q 1081 -850 1212 -737 
Q 1344 -625 1503 -206 
L 1606 56 
L 191 3500 
L 800 3500 
L 1894 763 
L 2988 3500 
L 3597 3500 
L 2059 -325 
z
" transform="scale(0.015625)"/>
      <path id="DejaVuSans-72" d="M 2631 2963 
Q 2534 3019 2420 3045 
Q 2306 3072 2169 3072 
Q 1681 3072 1420 2755 
Q 1159 2438 1159 1844 
L 1159 0 
L 581 0 
L 581 3500 
L 1159 3500 
L 1159 2956 
Q 1341 3275 1631 3429 
Q 1922 3584 2338 3584 
Q 2397 3584 2469 3576 
Q 2541 3569 2628 3553 
L 2631 2963 
z
" transform="scale(0.015625)"/>
      <path id="DejaVuSans-5f" d="M 3263 -1063 
L 3263 -1509 
L -63 -1509 
L -63 -1063 
L 3263 -1063 
z
" transform="scale(0.015625)"/>
      <path id="DejaVuSans-68" d="M 3513 2113 
L 3513 0 
L 2938 0 
L 2938 2094 
Q 2938 2591 2744 2837 
Q 2550 3084 2163 3084 
Q 1697 3084 1428 2787 
Q 1159 2491 1159 1978 
L 1159 0 
L 581 0 
L 581 4863 
L 1159 4863 
L 1159 2956 
Q 1366 3272 1645 3428 
Q 1925 3584 2291 3584 
Q 2894 3584 3203 3211 
Q 3513 2838 3513 2113 
z
" transform="scale(0.015625)"/>
     </defs>
     <use xlink:href="#DejaVuSans-50"/>
     <use xlink:href="#DejaVuSans-6c" x="60.302734"/>
     <use xlink:href="#DejaVuSans-61" x="88.085938"/>
     <use xlink:href="#DejaVuSans-79" x="149.365234"/>
     <use xlink:href="#DejaVuSans-65" x="208.544922"/>
     <use xlink:href="#DejaVuSans-72" x="270.068359"/>
     <use xlink:href="#DejaVuSans-31" x="311.181641"/>
     <use xlink:href="#DejaVuSans-5f" x="374.804688"/>
     <use xlink:href="#DejaVuSans-68" x="424.804688"/>
     <use xlink:href="#DejaVuSans-65" x="488.183594"/>
     <use xlink:href="#DejaVuSans-61" x="549.707031"/>
     <use xlink:href="#DejaVuSans-6c" x="610.986328"/>
     <use xlink:href="#DejaVuSans-74" x="638.769531"/>
     <use xlink:href="#DejaVuSans-68" x="677.978516"/>
     <use xlink:href="#DejaVuSans-79" x="741.357422"/>
    </g>
   </g>
   <g id="legend_1">
    <g id="patch_9">
     <path d="M 351.635625 190.706125 
L 407.72 190.706125 
Q 409.72 190.706125 409.72 188.706125 
L 409.72 160.349875 
Q 409.72 158.349875 407.72 158.349875 
L 351.635625 158.349875 
Q 349.635625 158.349875 349.635625 160.349875 
L 349.635625 188.706125 
Q 349.635625 190.706125 351.635625 190.706125 
z
" style="fill: #ffffff; opacity: 0.8; stroke: #cccccc; stroke-linejoin: miter"/>
    </g>
    <g id="line2d_58">
     <path d="M 353.635625 166.448312 
L 363.635625 166.448312 
L 373.635625 166.448312 
" style="fill: none; stroke: #1f77b4; stroke-width: 1.5; stroke-linecap: square"/>
    </g>
    <g id="text_19">
     <!-- coop -->
     <g transform="translate(381.635625 169.948312) scale(0.1 -0.1)">
      <use xlink:href="#DejaVuSans-63"/>
      <use xlink:href="#DejaVuSans-6f" x="54.980469"/>
      <use xlink:href="#DejaVuSans-6f" x="116.162109"/>
      <use xlink:href="#DejaVuSans-70" x="177.34375"/>
     </g>
    </g>
    <g id="line2d_59">
     <path d="M 353.635625 181.126437 
L 363.635625 181.126437 
L 373.635625 181.126437 
" style="fill: none; stroke: #ff0000; stroke-width: 1.5; stroke-linecap: square"/>
    </g>
    <g id="text_20">
     <!-- host -->
     <g transform="translate(381.635625 184.626437) scale(0.1 -0.1)">
      <defs>
       <path id="DejaVuSans-73" d="M 2834 3397 
L 2834 2853 
Q 2591 2978 2328 3040 
Q 2066 3103 1784 3103 
Q 1356 3103 1142 2972 
Q 928 2841 928 2578 
Q 928 2378 1081 2264 
Q 1234 2150 1697 2047 
L 1894 2003 
Q 2506 1872 2764 1633 
Q 3022 1394 3022 966 
Q 3022 478 2636 193 
Q 2250 -91 1575 -91 
Q 1294 -91 989 -36 
Q 684 19 347 128 
L 347 722 
Q 666 556 975 473 
Q 1284 391 1588 391 
Q 1994 391 2212 530 
Q 2431 669 2431 922 
Q 2431 1156 2273 1281 
Q 2116 1406 1581 1522 
L 1381 1569 
Q 847 1681 609 1914 
Q 372 2147 372 2553 
Q 372 3047 722 3315 
Q 1072 3584 1716 3584 
Q 2034 3584 2315 3537 
Q 2597 3491 2834 3397 
z
" transform="scale(0.015625)"/>
      </defs>
      <use xlink:href="#DejaVuSans-68"/>
      <use xlink:href="#DejaVuSans-6f" x="63.378906"/>
      <use xlink:href="#DejaVuSans-73" x="124.560547"/>
      <use xlink:href="#DejaVuSans-74" x="176.660156"/>
     </g>
    </g>
   </g>
  </g>
 </g>
 <defs>
  <clipPath id="pb52ad8d9cd">
   <rect x="57.6" y="41.472" width="357.12" height="266.112"/>
  </clipPath>
 </defs>
</svg>
