<?xml version="1.0" encoding="utf-8" standalone="no"?>
<!DOCTYPE svg PUBLIC "-//W3C//DTD SVG 1.1//EN"
  "http://www.w3.org/Graphics/SVG/1.1/DTD/svg11.dtd">
<svg xmlns:xlink="http://www.w3.org/1999/xlink" width="460.8pt" height="345.6pt" viewBox="0 0 460.8 345.6" xmlns="http://www.w3.org/2000/svg" version="1.1">
 <metadata>
  <rdf:RDF xmlns:dc="http://purl.org/dc/elements/1.1/" xmlns:cc="http://creativecommons.org/ns#" xmlns:rdf="http://www.w3.org/1999/02/22-rdf-syntax-ns#">
   <cc:Work>
    <dc:type rdf:resource="http://purl.org/dc/dcmitype/StillImage"/>
    <dc:date>2024-06-18T15:36:57.402181</dc:date>
    <dc:format>image/svg+xml</dc:format>
    <dc:creator>
     <cc:Agent>
      <dc:title>Matplotlib v3.7.2, https://matplotlib.org/</dc:title>
     </cc:Agent>
    </dc:creator>
   </cc:Work>
  </rdf:RDF>
 </metadata>
 <defs>
  <style type="text/css">*{stroke-linejoin: round; stroke-linecap: butt}</style>
 </defs>
 <g id="figure_1">
  <g id="patch_1">
   <path d="M 0 345.6 
L 460.8 345.6 
L 460.8 0 
L 0 0 
z
" style="fill: #ffffff"/>
  </g>
  <g id="axes_1">
   <g id="patch_2">
    <path d="M 57.6 307.584 
L 414.72 307.584 
L 414.72 41.472 
L 57.6 41.472 
z
" style="fill: #ffffff"/>
   </g>
   <g id="patch_3">
    <path d="M 73.832727 307.584 
L 73.832727 41.472 
L 236.16 41.472 
L 236.16 307.584 
z
" clip-path="url(#p3f2316ec89)" style="fill: #add8e6; opacity: 0.2"/>
   </g>
   <g id="patch_4">
    <path d="M 236.16 307.584 
L 236.16 41.472 
L 398.487273 41.472 
L 398.487273 307.584 
z
" clip-path="url(#p3f2316ec89)" style="fill: #ff7f50; opacity: 0.2"/>
   </g>
   <g id="matplotlib.axis_1">
    <g id="xtick_1">
     <g id="line2d_1">
      <defs>
       <path id="m499d0d8e13" d="M 0 0 
L 0 3.5 
" style="stroke: #000000; stroke-width: 0.8"/>
      </defs>
      <g>
       <use xlink:href="#m499d0d8e13" x="73.832727" y="307.584" style="stroke: #000000; stroke-width: 0.8"/>
      </g>
     </g>
     <g id="text_1">
      <!-- 0 -->
      <g transform="translate(70.651477 322.182437) scale(0.1 -0.1)">
       <defs>
        <path id="DejaVuSans-30" d="M 2034 4250 
Q 1547 4250 1301 3770 
Q 1056 3291 1056 2328 
Q 1056 1369 1301 889 
Q 1547 409 2034 409 
Q 2525 409 2770 889 
Q 3016 1369 3016 2328 
Q 3016 3291 2770 3770 
Q 2525 4250 2034 4250 
z
M 2034 4750 
Q 2819 4750 3233 4129 
Q 3647 3509 3647 2328 
Q 3647 1150 3233 529 
Q 2819 -91 2034 -91 
Q 1250 -91 836 529 
Q 422 1150 422 2328 
Q 422 3509 836 4129 
Q 1250 4750 2034 4750 
z
" transform="scale(0.015625)"/>
       </defs>
       <use xlink:href="#DejaVuSans-30"/>
      </g>
     </g>
    </g>
    <g id="xtick_2">
     <g id="line2d_2">
      <g>
       <use xlink:href="#m499d0d8e13" x="114.414545" y="307.584" style="stroke: #000000; stroke-width: 0.8"/>
      </g>
     </g>
     <g id="text_2">
      <!-- 5 -->
      <g transform="translate(111.233295 322.182437) scale(0.1 -0.1)">
       <defs>
        <path id="DejaVuSans-35" d="M 691 4666 
L 3169 4666 
L 3169 4134 
L 1269 4134 
L 1269 2991 
Q 1406 3038 1543 3061 
Q 1681 3084 1819 3084 
Q 2600 3084 3056 2656 
Q 3513 2228 3513 1497 
Q 3513 744 3044 326 
Q 2575 -91 1722 -91 
Q 1428 -91 1123 -41 
Q 819 9 494 109 
L 494 744 
Q 775 591 1075 516 
Q 1375 441 1709 441 
Q 2250 441 2565 725 
Q 2881 1009 2881 1497 
Q 2881 1984 2565 2268 
Q 2250 2553 1709 2553 
Q 1456 2553 1204 2497 
Q 953 2441 691 2322 
L 691 4666 
z
" transform="scale(0.015625)"/>
       </defs>
       <use xlink:href="#DejaVuSans-35"/>
      </g>
     </g>
    </g>
    <g id="xtick_3">
     <g id="line2d_3">
      <g>
       <use xlink:href="#m499d0d8e13" x="154.996364" y="307.584" style="stroke: #000000; stroke-width: 0.8"/>
      </g>
     </g>
     <g id="text_3">
      <!-- 10 -->
      <g transform="translate(148.633864 322.182437) scale(0.1 -0.1)">
       <defs>
        <path id="DejaVuSans-31" d="M 794 531 
L 1825 531 
L 1825 4091 
L 703 3866 
L 703 4441 
L 1819 4666 
L 2450 4666 
L 2450 531 
L 3481 531 
L 3481 0 
L 794 0 
L 794 531 
z
" transform="scale(0.015625)"/>
       </defs>
       <use xlink:href="#DejaVuSans-31"/>
       <use xlink:href="#DejaVuSans-30" x="63.623047"/>
      </g>
     </g>
    </g>
    <g id="xtick_4">
     <g id="line2d_4">
      <g>
       <use xlink:href="#m499d0d8e13" x="195.578182" y="307.584" style="stroke: #000000; stroke-width: 0.8"/>
      </g>
     </g>
     <g id="text_4">
      <!-- 15 -->
      <g transform="translate(189.215682 322.182437) scale(0.1 -0.1)">
       <use xlink:href="#DejaVuSans-31"/>
       <use xlink:href="#DejaVuSans-35" x="63.623047"/>
      </g>
     </g>
    </g>
    <g id="xtick_5">
     <g id="line2d_5">
      <g>
       <use xlink:href="#m499d0d8e13" x="236.16" y="307.584" style="stroke: #000000; stroke-width: 0.8"/>
      </g>
     </g>
     <g id="text_5">
      <!-- 20 -->
      <g transform="translate(229.7975 322.182437) scale(0.1 -0.1)">
       <defs>
        <path id="DejaVuSans-32" d="M 1228 531 
L 3431 531 
L 3431 0 
L 469 0 
L 469 531 
Q 828 903 1448 1529 
Q 2069 2156 2228 2338 
Q 2531 2678 2651 2914 
Q 2772 3150 2772 3378 
Q 2772 3750 2511 3984 
Q 2250 4219 1831 4219 
Q 1534 4219 1204 4116 
Q 875 4013 500 3803 
L 500 4441 
Q 881 4594 1212 4672 
Q 1544 4750 1819 4750 
Q 2544 4750 2975 4387 
Q 3406 4025 3406 3419 
Q 3406 3131 3298 2873 
Q 3191 2616 2906 2266 
Q 2828 2175 2409 1742 
Q 1991 1309 1228 531 
z
" transform="scale(0.015625)"/>
       </defs>
       <use xlink:href="#DejaVuSans-32"/>
       <use xlink:href="#DejaVuSans-30" x="63.623047"/>
      </g>
     </g>
    </g>
    <g id="xtick_6">
     <g id="line2d_6">
      <g>
       <use xlink:href="#m499d0d8e13" x="276.741818" y="307.584" style="stroke: #000000; stroke-width: 0.8"/>
      </g>
     </g>
     <g id="text_6">
      <!-- 25 -->
      <g transform="translate(270.379318 322.182437) scale(0.1 -0.1)">
       <use xlink:href="#DejaVuSans-32"/>
       <use xlink:href="#DejaVuSans-35" x="63.623047"/>
      </g>
     </g>
    </g>
    <g id="xtick_7">
     <g id="line2d_7">
      <g>
       <use xlink:href="#m499d0d8e13" x="317.323636" y="307.584" style="stroke: #000000; stroke-width: 0.8"/>
      </g>
     </g>
     <g id="text_7">
      <!-- 30 -->
      <g transform="translate(310.961136 322.182437) scale(0.1 -0.1)">
       <defs>
        <path id="DejaVuSans-33" d="M 2597 2516 
Q 3050 2419 3304 2112 
Q 3559 1806 3559 1356 
Q 3559 666 3084 287 
Q 2609 -91 1734 -91 
Q 1441 -91 1130 -33 
Q 819 25 488 141 
L 488 750 
Q 750 597 1062 519 
Q 1375 441 1716 441 
Q 2309 441 2620 675 
Q 2931 909 2931 1356 
Q 2931 1769 2642 2001 
Q 2353 2234 1838 2234 
L 1294 2234 
L 1294 2753 
L 1863 2753 
Q 2328 2753 2575 2939 
Q 2822 3125 2822 3475 
Q 2822 3834 2567 4026 
Q 2313 4219 1838 4219 
Q 1578 4219 1281 4162 
Q 984 4106 628 3988 
L 628 4550 
Q 988 4650 1302 4700 
Q 1616 4750 1894 4750 
Q 2613 4750 3031 4423 
Q 3450 4097 3450 3541 
Q 3450 3153 3228 2886 
Q 3006 2619 2597 2516 
z
" transform="scale(0.015625)"/>
       </defs>
       <use xlink:href="#DejaVuSans-33"/>
       <use xlink:href="#DejaVuSans-30" x="63.623047"/>
      </g>
     </g>
    </g>
    <g id="xtick_8">
     <g id="line2d_8">
      <g>
       <use xlink:href="#m499d0d8e13" x="357.905455" y="307.584" style="stroke: #000000; stroke-width: 0.8"/>
      </g>
     </g>
     <g id="text_8">
      <!-- 35 -->
      <g transform="translate(351.542955 322.182437) scale(0.1 -0.1)">
       <use xlink:href="#DejaVuSans-33"/>
       <use xlink:href="#DejaVuSans-35" x="63.623047"/>
      </g>
     </g>
    </g>
    <g id="xtick_9">
     <g id="line2d_9">
      <g>
       <use xlink:href="#m499d0d8e13" x="398.487273" y="307.584" style="stroke: #000000; stroke-width: 0.8"/>
      </g>
     </g>
     <g id="text_9">
      <!-- 40 -->
      <g transform="translate(392.124773 322.182437) scale(0.1 -0.1)">
       <defs>
        <path id="DejaVuSans-34" d="M 2419 4116 
L 825 1625 
L 2419 1625 
L 2419 4116 
z
M 2253 4666 
L 3047 4666 
L 3047 1625 
L 3713 1625 
L 3713 1100 
L 3047 1100 
L 3047 0 
L 2419 0 
L 2419 1100 
L 313 1100 
L 313 1709 
L 2253 4666 
z
" transform="scale(0.015625)"/>
       </defs>
       <use xlink:href="#DejaVuSans-34"/>
       <use xlink:href="#DejaVuSans-30" x="63.623047"/>
      </g>
     </g>
    </g>
    <g id="text_10">
     <!-- t -->
     <g transform="translate(234.199844 335.860562) scale(0.1 -0.1)">
      <defs>
       <path id="DejaVuSans-74" d="M 1172 4494 
L 1172 3500 
L 2356 3500 
L 2356 3053 
L 1172 3053 
L 1172 1153 
Q 1172 725 1289 603 
Q 1406 481 1766 481 
L 2356 481 
L 2356 0 
L 1766 0 
Q 1100 0 847 248 
Q 594 497 594 1153 
L 594 3053 
L 172 3053 
L 172 3500 
L 594 3500 
L 594 4494 
L 1172 4494 
z
" transform="scale(0.015625)"/>
      </defs>
      <use xlink:href="#DejaVuSans-74"/>
     </g>
    </g>
   </g>
   <g id="matplotlib.axis_2">
    <g id="ytick_1">
     <g id="line2d_10">
      <defs>
       <path id="m455da47f9f" d="M 0 0 
L -3.5 0 
" style="stroke: #000000; stroke-width: 0.8"/>
      </defs>
      <g>
       <use xlink:href="#m455da47f9f" x="57.6" y="307.584" style="stroke: #000000; stroke-width: 0.8"/>
      </g>
     </g>
     <g id="text_11">
      <!-- 0.0 -->
      <g transform="translate(34.696875 311.383219) scale(0.1 -0.1)">
       <defs>
        <path id="DejaVuSans-2e" d="M 684 794 
L 1344 794 
L 1344 0 
L 684 0 
L 684 794 
z
" transform="scale(0.015625)"/>
       </defs>
       <use xlink:href="#DejaVuSans-30"/>
       <use xlink:href="#DejaVuSans-2e" x="63.623047"/>
       <use xlink:href="#DejaVuSans-30" x="95.410156"/>
      </g>
     </g>
    </g>
    <g id="ytick_2">
     <g id="line2d_11">
      <g>
       <use xlink:href="#m455da47f9f" x="57.6" y="254.3616" style="stroke: #000000; stroke-width: 0.8"/>
      </g>
     </g>
     <g id="text_12">
      <!-- 0.2 -->
      <g transform="translate(34.696875 258.160819) scale(0.1 -0.1)">
       <use xlink:href="#DejaVuSans-30"/>
       <use xlink:href="#DejaVuSans-2e" x="63.623047"/>
       <use xlink:href="#DejaVuSans-32" x="95.410156"/>
      </g>
     </g>
    </g>
    <g id="ytick_3">
     <g id="line2d_12">
      <g>
       <use xlink:href="#m455da47f9f" x="57.6" y="201.1392" style="stroke: #000000; stroke-width: 0.8"/>
      </g>
     </g>
     <g id="text_13">
      <!-- 0.4 -->
      <g transform="translate(34.696875 204.938419) scale(0.1 -0.1)">
       <use xlink:href="#DejaVuSans-30"/>
       <use xlink:href="#DejaVuSans-2e" x="63.623047"/>
       <use xlink:href="#DejaVuSans-34" x="95.410156"/>
      </g>
     </g>
    </g>
    <g id="ytick_4">
     <g id="line2d_13">
      <g>
       <use xlink:href="#m455da47f9f" x="57.6" y="147.9168" style="stroke: #000000; stroke-width: 0.8"/>
      </g>
     </g>
     <g id="text_14">
      <!-- 0.6 -->
      <g transform="translate(34.696875 151.716019) scale(0.1 -0.1)">
       <defs>
        <path id="DejaVuSans-36" d="M 2113 2584 
Q 1688 2584 1439 2293 
Q 1191 2003 1191 1497 
Q 1191 994 1439 701 
Q 1688 409 2113 409 
Q 2538 409 2786 701 
Q 3034 994 3034 1497 
Q 3034 2003 2786 2293 
Q 2538 2584 2113 2584 
z
M 3366 4563 
L 3366 3988 
Q 3128 4100 2886 4159 
Q 2644 4219 2406 4219 
Q 1781 4219 1451 3797 
Q 1122 3375 1075 2522 
Q 1259 2794 1537 2939 
Q 1816 3084 2150 3084 
Q 2853 3084 3261 2657 
Q 3669 2231 3669 1497 
Q 3669 778 3244 343 
Q 2819 -91 2113 -91 
Q 1303 -91 875 529 
Q 447 1150 447 2328 
Q 447 3434 972 4092 
Q 1497 4750 2381 4750 
Q 2619 4750 2861 4703 
Q 3103 4656 3366 4563 
z
" transform="scale(0.015625)"/>
       </defs>
       <use xlink:href="#DejaVuSans-30"/>
       <use xlink:href="#DejaVuSans-2e" x="63.623047"/>
       <use xlink:href="#DejaVuSans-36" x="95.410156"/>
      </g>
     </g>
    </g>
    <g id="ytick_5">
     <g id="line2d_14">
      <g>
       <use xlink:href="#m455da47f9f" x="57.6" y="94.6944" style="stroke: #000000; stroke-width: 0.8"/>
      </g>
     </g>
     <g id="text_15">
      <!-- 0.8 -->
      <g transform="translate(34.696875 98.493619) scale(0.1 -0.1)">
       <defs>
        <path id="DejaVuSans-38" d="M 2034 2216 
Q 1584 2216 1326 1975 
Q 1069 1734 1069 1313 
Q 1069 891 1326 650 
Q 1584 409 2034 409 
Q 2484 409 2743 651 
Q 3003 894 3003 1313 
Q 3003 1734 2745 1975 
Q 2488 2216 2034 2216 
z
M 1403 2484 
Q 997 2584 770 2862 
Q 544 3141 544 3541 
Q 544 4100 942 4425 
Q 1341 4750 2034 4750 
Q 2731 4750 3128 4425 
Q 3525 4100 3525 3541 
Q 3525 3141 3298 2862 
Q 3072 2584 2669 2484 
Q 3125 2378 3379 2068 
Q 3634 1759 3634 1313 
Q 3634 634 3220 271 
Q 2806 -91 2034 -91 
Q 1263 -91 848 271 
Q 434 634 434 1313 
Q 434 1759 690 2068 
Q 947 2378 1403 2484 
z
M 1172 3481 
Q 1172 3119 1398 2916 
Q 1625 2713 2034 2713 
Q 2441 2713 2670 2916 
Q 2900 3119 2900 3481 
Q 2900 3844 2670 4047 
Q 2441 4250 2034 4250 
Q 1625 4250 1398 4047 
Q 1172 3844 1172 3481 
z
" transform="scale(0.015625)"/>
       </defs>
       <use xlink:href="#DejaVuSans-30"/>
       <use xlink:href="#DejaVuSans-2e" x="63.623047"/>
       <use xlink:href="#DejaVuSans-38" x="95.410156"/>
      </g>
     </g>
    </g>
    <g id="ytick_6">
     <g id="line2d_15">
      <g>
       <use xlink:href="#m455da47f9f" x="57.6" y="41.472" style="stroke: #000000; stroke-width: 0.8"/>
      </g>
     </g>
     <g id="text_16">
      <!-- 1.0 -->
      <g transform="translate(34.696875 45.271219) scale(0.1 -0.1)">
       <use xlink:href="#DejaVuSans-31"/>
       <use xlink:href="#DejaVuSans-2e" x="63.623047"/>
       <use xlink:href="#DejaVuSans-30" x="95.410156"/>
      </g>
     </g>
    </g>
    <g id="text_17">
     <!-- p(context) -->
     <g transform="translate(28.617187 200.449875) rotate(-90) scale(0.1 -0.1)">
      <defs>
       <path id="DejaVuSans-70" d="M 1159 525 
L 1159 -1331 
L 581 -1331 
L 581 3500 
L 1159 3500 
L 1159 2969 
Q 1341 3281 1617 3432 
Q 1894 3584 2278 3584 
Q 2916 3584 3314 3078 
Q 3713 2572 3713 1747 
Q 3713 922 3314 415 
Q 2916 -91 2278 -91 
Q 1894 -91 1617 61 
Q 1341 213 1159 525 
z
M 3116 1747 
Q 3116 2381 2855 2742 
Q 2594 3103 2138 3103 
Q 1681 3103 1420 2742 
Q 1159 2381 1159 1747 
Q 1159 1113 1420 752 
Q 1681 391 2138 391 
Q 2594 391 2855 752 
Q 3116 1113 3116 1747 
z
" transform="scale(0.015625)"/>
       <path id="DejaVuSans-28" d="M 1984 4856 
Q 1566 4138 1362 3434 
Q 1159 2731 1159 2009 
Q 1159 1288 1364 580 
Q 1569 -128 1984 -844 
L 1484 -844 
Q 1016 -109 783 600 
Q 550 1309 550 2009 
Q 550 2706 781 3412 
Q 1013 4119 1484 4856 
L 1984 4856 
z
" transform="scale(0.015625)"/>
       <path id="DejaVuSans-63" d="M 3122 3366 
L 3122 2828 
Q 2878 2963 2633 3030 
Q 2388 3097 2138 3097 
Q 1578 3097 1268 2742 
Q 959 2388 959 1747 
Q 959 1106 1268 751 
Q 1578 397 2138 397 
Q 2388 397 2633 464 
Q 2878 531 3122 666 
L 3122 134 
Q 2881 22 2623 -34 
Q 2366 -91 2075 -91 
Q 1284 -91 818 406 
Q 353 903 353 1747 
Q 353 2603 823 3093 
Q 1294 3584 2113 3584 
Q 2378 3584 2631 3529 
Q 2884 3475 3122 3366 
z
" transform="scale(0.015625)"/>
       <path id="DejaVuSans-6f" d="M 1959 3097 
Q 1497 3097 1228 2736 
Q 959 2375 959 1747 
Q 959 1119 1226 758 
Q 1494 397 1959 397 
Q 2419 397 2687 759 
Q 2956 1122 2956 1747 
Q 2956 2369 2687 2733 
Q 2419 3097 1959 3097 
z
M 1959 3584 
Q 2709 3584 3137 3096 
Q 3566 2609 3566 1747 
Q 3566 888 3137 398 
Q 2709 -91 1959 -91 
Q 1206 -91 779 398 
Q 353 888 353 1747 
Q 353 2609 779 3096 
Q 1206 3584 1959 3584 
z
" transform="scale(0.015625)"/>
       <path id="DejaVuSans-6e" d="M 3513 2113 
L 3513 0 
L 2938 0 
L 2938 2094 
Q 2938 2591 2744 2837 
Q 2550 3084 2163 3084 
Q 1697 3084 1428 2787 
Q 1159 2491 1159 1978 
L 1159 0 
L 581 0 
L 581 3500 
L 1159 3500 
L 1159 2956 
Q 1366 3272 1645 3428 
Q 1925 3584 2291 3584 
Q 2894 3584 3203 3211 
Q 3513 2838 3513 2113 
z
" transform="scale(0.015625)"/>
       <path id="DejaVuSans-65" d="M 3597 1894 
L 3597 1613 
L 953 1613 
Q 991 1019 1311 708 
Q 1631 397 2203 397 
Q 2534 397 2845 478 
Q 3156 559 3463 722 
L 3463 178 
Q 3153 47 2828 -22 
Q 2503 -91 2169 -91 
Q 1331 -91 842 396 
Q 353 884 353 1716 
Q 353 2575 817 3079 
Q 1281 3584 2069 3584 
Q 2775 3584 3186 3129 
Q 3597 2675 3597 1894 
z
M 3022 2063 
Q 3016 2534 2758 2815 
Q 2500 3097 2075 3097 
Q 1594 3097 1305 2825 
Q 1016 2553 972 2059 
L 3022 2063 
z
" transform="scale(0.015625)"/>
       <path id="DejaVuSans-78" d="M 3513 3500 
L 2247 1797 
L 3578 0 
L 2900 0 
L 1881 1375 
L 863 0 
L 184 0 
L 1544 1831 
L 300 3500 
L 978 3500 
L 1906 2253 
L 2834 3500 
L 3513 3500 
z
" transform="scale(0.015625)"/>
       <path id="DejaVuSans-29" d="M 513 4856 
L 1013 4856 
Q 1481 4119 1714 3412 
Q 1947 2706 1947 2009 
Q 1947 1309 1714 600 
Q 1481 -109 1013 -844 
L 513 -844 
Q 928 -128 1133 580 
Q 1338 1288 1338 2009 
Q 1338 2731 1133 3434 
Q 928 4138 513 4856 
z
" transform="scale(0.015625)"/>
      </defs>
      <use xlink:href="#DejaVuSans-70"/>
      <use xlink:href="#DejaVuSans-28" x="63.476562"/>
      <use xlink:href="#DejaVuSans-63" x="102.490234"/>
      <use xlink:href="#DejaVuSans-6f" x="157.470703"/>
      <use xlink:href="#DejaVuSans-6e" x="218.652344"/>
      <use xlink:href="#DejaVuSans-74" x="282.03125"/>
      <use xlink:href="#DejaVuSans-65" x="321.240234"/>
      <use xlink:href="#DejaVuSans-78" x="381.013672"/>
      <use xlink:href="#DejaVuSans-74" x="440.193359"/>
      <use xlink:href="#DejaVuSans-29" x="479.402344"/>
     </g>
    </g>
   </g>
   <g id="line2d_16">
    <path d="M 73.832727 218.88 
L 81.949091 306.667093 
L 90.065455 187.709493 
L 98.181818 146.310391 
L 106.298182 127.417113 
L 114.414545 114.736206 
L 122.530909 105.424603 
L 130.647273 98.369207 
L 138.763636 92.889033 
L 146.88 297.627717 
L 154.996364 161.019157 
L 163.112727 110.969947 
L 171.229091 289.691261 
L 179.345455 166.272762 
L 187.461818 119.766553 
L 195.578182 281.410245 
L 203.694545 169.557558 
L 211.810909 127.927407 
L 219.927273 116.407573 
L 228.043636 112.3407 
L 236.16 169.65855 
L 244.276364 286.099723 
L 252.392727 170.185863 
L 260.509091 129.153199 
L 268.625455 272.689553 
L 276.741818 292.214002 
L 284.858182 296.141458 
L 292.974545 185.126736 
L 301.090909 137.914601 
L 309.207273 269.164331 
L 317.323636 173.185295 
L 325.44 270.549996 
L 333.556364 286.863989 
L 341.672727 290.767969 
L 349.789091 292.51507 
L 357.905455 293.755869 
L 366.021818 190.605001 
L 374.138182 275.047219 
L 382.254545 289.191518 
L 390.370909 292.358573 
" clip-path="url(#p3f2316ec89)" style="fill: none; stroke: #add8e6; stroke-opacity: 0.3; stroke-width: 1.5; stroke-linecap: square"/>
   </g>
   <g id="line2d_17">
    <path d="M 73.832727 218.88 
L 81.949091 146.078309 
L 90.065455 122.040149 
L 98.181818 106.577179 
L 106.298182 300.04178 
L 114.414545 162.417347 
L 122.530909 115.773013 
L 130.647273 102.975533 
L 138.763636 96.75771 
L 146.88 288.983593 
L 154.996364 158.426273 
L 163.112727 113.091543 
L 171.229091 102.124266 
L 179.345455 278.30778 
L 187.461818 158.717697 
L 195.578182 117.707475 
L 203.694545 107.555263 
L 211.810909 103.9669 
L 219.927273 268.432321 
L 228.043636 156.543484 
L 236.16 180.207638 
L 244.276364 279.588782 
L 252.392727 294.217327 
L 260.509091 297.703317 
L 268.625455 299.305217 
L 276.741818 185.125125 
L 284.858182 129.808296 
L 292.974545 267.209347 
L 301.090909 291.286582 
L 309.207273 183.93747 
L 317.323636 274.181038 
L 325.44 290.554589 
L 333.556364 187.823665 
L 341.672727 272.049367 
L 349.789091 288.196076 
L 357.905455 292.172484 
L 366.021818 293.73993 
L 374.138182 294.746557 
L 382.254545 295.570531 
L 390.370909 296.296266 
" clip-path="url(#p3f2316ec89)" style="fill: none; stroke: #add8e6; stroke-opacity: 0.3; stroke-width: 1.5; stroke-linecap: square"/>
   </g>
   <g id="line2d_18">
    <path d="M 73.832727 218.88 
L 81.949091 146.078309 
L 90.065455 122.040149 
L 98.181818 106.577179 
L 106.298182 300.04178 
L 114.414545 162.417347 
L 122.530909 297.05439 
L 130.647273 173.153442 
L 138.763636 126.00859 
L 146.88 112.661658 
L 154.996364 106.499922 
L 163.112727 102.127741 
L 171.229091 282.898024 
L 179.345455 300.358897 
L 187.461818 179.590028 
L 195.578182 287.117029 
L 203.694545 299.1654 
L 211.810909 187.202982 
L 219.927273 284.770697 
L 228.043636 179.817068 
L 236.16 207.149702 
L 244.276364 285.833057 
L 252.392727 295.816663 
L 260.509091 298.074173 
L 268.625455 299.132535 
L 276.741818 195.591632 
L 284.858182 283.649585 
L 292.974545 295.46046 
L 301.090909 196.221393 
L 309.207273 281.182484 
L 317.323636 293.46085 
L 325.44 296.002381 
L 333.556364 200.066853 
L 341.672727 280.224409 
L 349.789091 292.332375 
L 357.905455 260.419068 
L 366.021818 290.225413 
L 374.138182 260.027303 
L 382.254545 290.45651 
L 390.370909 260.688673 
" clip-path="url(#p3f2316ec89)" style="fill: none; stroke: #add8e6; stroke-opacity: 0.3; stroke-width: 1.5; stroke-linecap: square"/>
   </g>
   <g id="line2d_19">
    <path d="M 73.832727 218.88 
L 81.949091 146.078309 
L 90.065455 122.040149 
L 98.181818 106.577179 
L 106.298182 96.035694 
L 114.414545 88.657552 
L 122.530909 83.288388 
L 130.647273 296.82756 
L 138.763636 148.117733 
L 146.88 98.550782 
L 154.996364 87.733149 
L 163.112727 83.792248 
L 171.229091 81.27527 
L 179.345455 284.926943 
L 187.461818 145.033724 
L 195.578182 97.47967 
L 203.694545 87.484486 
L 211.810909 84.536234 
L 219.927273 82.863148 
L 228.043636 81.505696 
L 236.16 133.33328 
L 244.276364 281.272366 
L 252.392727 300.563901 
L 260.509091 303.506607 
L 268.625455 304.455273 
L 276.741818 304.996281 
L 284.858182 305.38082 
L 292.974545 305.67382 
L 301.090909 305.904167 
L 309.207273 306.089187 
L 317.323636 306.240435 
L 325.44 283.350562 
L 333.556364 304.997189 
L 341.672727 282.438013 
L 349.789091 136.336379 
L 357.905455 284.316658 
L 366.021818 303.776688 
L 374.138182 280.320448 
L 382.254545 134.217857 
L 390.370909 279.881653 
" clip-path="url(#p3f2316ec89)" style="fill: none; stroke: #add8e6; stroke-opacity: 0.3; stroke-width: 1.5; stroke-linecap: square"/>
   </g>
   <g id="line2d_20">
    <path d="M 73.832727 218.88 
L 81.949091 146.078309 
L 90.065455 122.040149 
L 98.181818 106.577179 
L 106.298182 300.04178 
L 114.414545 162.417347 
L 122.530909 115.773013 
L 130.647273 102.975533 
L 138.763636 96.75771 
L 146.88 92.36459 
L 154.996364 88.844472 
L 163.112727 85.908386 
L 171.229091 83.413815 
L 179.345455 81.26745 
L 187.461818 79.401423 
L 195.578182 77.764407 
L 203.694545 76.316771 
L 211.810909 75.027444 
L 219.927273 73.871746 
L 228.043636 72.829835 
L 236.16 124.07367 
L 244.276364 299.236737 
L 252.392727 138.674232 
L 260.509091 294.702972 
L 268.625455 304.925715 
L 276.741818 306.045294 
L 284.858182 306.400112 
L 292.974545 306.605508 
L 301.090909 306.752211 
L 309.207273 306.863941 
L 317.323636 306.951648 
L 325.44 307.021998 
L 333.556364 181.717015 
L 341.672727 299.49657 
L 349.789091 306.205938 
L 357.905455 183.526075 
L 366.021818 297.805879 
L 374.138182 305.687138 
L 382.254545 280.642807 
L 390.370909 305.274275 
" clip-path="url(#p3f2316ec89)" style="fill: none; stroke: #add8e6; stroke-opacity: 0.3; stroke-width: 1.5; stroke-linecap: square"/>
   </g>
   <g id="line2d_21">
    <path d="M 73.832727 218.88 
L 81.949091 146.078309 
L 90.065455 122.040149 
L 98.181818 301.639458 
L 106.298182 168.864814 
L 114.414545 124.06142 
L 122.530909 294.395743 
L 130.647273 173.895682 
L 138.763636 130.549201 
L 146.88 117.966449 
L 154.996364 111.871047 
L 163.112727 283.364581 
L 171.229091 299.538299 
L 179.345455 302.226336 
L 187.461818 188.753834 
L 195.578182 132.656238 
L 203.694545 117.099585 
L 211.810909 111.584145 
L 219.927273 108.237085 
L 228.043636 105.505635 
L 236.16 171.151076 
L 244.276364 289.860323 
L 252.392727 166.701376 
L 260.509091 284.416533 
L 268.625455 297.768541 
L 276.741818 300.31848 
L 284.858182 185.303813 
L 292.974545 284.86012 
L 301.090909 297.123757 
L 309.207273 299.524075 
L 317.323636 300.46394 
L 325.44 301.088705 
L 333.556364 301.599783 
L 341.672727 190.576541 
L 349.789091 286.084019 
L 357.905455 298.280606 
L 366.021818 300.44095 
L 374.138182 266.703759 
L 382.254545 297.276753 
L 390.370909 265.122138 
" clip-path="url(#p3f2316ec89)" style="fill: none; stroke: #add8e6; stroke-opacity: 0.3; stroke-width: 1.5; stroke-linecap: square"/>
   </g>
   <g id="line2d_22">
    <path d="M 73.832727 218.88 
L 81.949091 146.078309 
L 90.065455 122.040149 
L 98.181818 106.577179 
L 106.298182 300.04178 
L 114.414545 305.954702 
L 122.530909 306.615531 
L 130.647273 306.86231 
L 138.763636 188.205356 
L 146.88 117.547902 
L 154.996364 293.870667 
L 163.112727 171.956804 
L 171.229091 120.076559 
L 179.345455 106.021993 
L 187.461818 100.092771 
L 195.578182 282.512332 
L 203.694545 164.964286 
L 211.810909 118.298371 
L 219.927273 106.180159 
L 228.043636 101.762628 
L 236.16 167.923084 
L 244.276364 289.995618 
L 252.392727 301.847611 
L 260.509091 303.698746 
L 268.625455 304.317778 
L 276.741818 304.692405 
L 284.858182 304.982362 
L 292.974545 305.222557 
L 301.090909 191.042127 
L 309.207273 292.880955 
L 317.323636 174.639372 
L 325.44 116.543348 
L 333.556364 275.842047 
L 341.672727 298.832651 
L 349.789091 269.008128 
L 357.905455 299.320068 
L 366.021818 270.490642 
L 374.138182 162.131007 
L 382.254545 115.855976 
L 390.370909 271.616557 
" clip-path="url(#p3f2316ec89)" style="fill: none; stroke: #add8e6; stroke-opacity: 0.3; stroke-width: 1.5; stroke-linecap: square"/>
   </g>
   <g id="line2d_23">
    <path d="M 73.832727 218.88 
L 81.949091 146.078309 
L 90.065455 122.040149 
L 98.181818 106.577179 
L 106.298182 96.035694 
L 114.414545 88.657552 
L 122.530909 83.288388 
L 130.647273 79.225246 
L 138.763636 296.227669 
L 146.88 144.718921 
L 154.996364 94.665083 
L 163.112727 84.257013 
L 171.229091 80.747541 
L 179.345455 78.586946 
L 187.461818 76.845491 
L 195.578182 284.405873 
L 203.694545 140.682834 
L 211.810909 92.482705 
L 219.927273 82.833145 
L 228.043636 272.796514 
L 236.16 226.96384 
L 244.276364 295.767712 
L 252.392727 170.877258 
L 260.509091 282.796021 
L 268.625455 299.041197 
L 276.741818 301.97722 
L 284.858182 303.03564 
L 292.974545 303.688766 
L 301.090909 304.181541 
L 309.207273 191.692798 
L 317.323636 288.16038 
L 325.44 301.394906 
L 333.556364 303.448295 
L 341.672727 194.622277 
L 349.789091 287.060866 
L 357.905455 300.646048 
L 366.021818 302.851973 
L 374.138182 272.422147 
L 382.254545 299.950799 
L 390.370909 270.478483 
" clip-path="url(#p3f2316ec89)" style="fill: none; stroke: #add8e6; stroke-opacity: 0.3; stroke-width: 1.5; stroke-linecap: square"/>
   </g>
   <g id="line2d_24">
    <path d="M 73.832727 218.88 
L 81.949091 146.078309 
L 90.065455 122.040149 
L 98.181818 106.577179 
L 106.298182 96.035694 
L 114.414545 88.657552 
L 122.530909 83.288388 
L 130.647273 79.225246 
L 138.763636 296.227669 
L 146.88 144.718921 
L 154.996364 94.665083 
L 163.112727 84.257013 
L 171.229091 284.7893 
L 179.345455 147.495648 
L 187.461818 99.601446 
L 195.578182 275.006238 
L 203.694545 150.995482 
L 211.810909 276.95155 
L 219.927273 160.289033 
L 228.043636 114.763149 
L 236.16 159.879517 
L 244.276364 277.155925 
L 252.392727 163.205112 
L 260.509091 271.361404 
L 268.625455 291.097585 
L 276.741818 295.723178 
L 284.858182 297.631017 
L 292.974545 298.8683 
L 301.090909 187.261742 
L 309.207273 277.730091 
L 317.323636 293.989925 
L 325.44 186.631248 
L 333.556364 274.674414 
L 341.672727 291.621444 
L 349.789091 295.454004 
L 357.905455 296.829038 
L 366.021818 297.669992 
L 374.138182 298.346411 
L 382.254545 262.78397 
L 390.370909 158.895663 
" clip-path="url(#p3f2316ec89)" style="fill: none; stroke: #add8e6; stroke-opacity: 0.3; stroke-width: 1.5; stroke-linecap: square"/>
   </g>
   <g id="line2d_25">
    <path d="M 73.832727 218.88 
L 81.949091 306.667093 
L 90.065455 187.709493 
L 98.181818 304.992452 
L 106.298182 195.856335 
L 114.414545 154.632769 
L 122.530909 137.629724 
L 130.647273 126.632242 
L 138.763636 118.142104 
L 146.88 111.270436 
L 154.996364 105.609516 
L 163.112727 294.686469 
L 171.229091 168.686518 
L 179.345455 124.0816 
L 187.461818 112.13816 
L 195.578182 107.398031 
L 203.694545 104.253118 
L 211.810909 101.629792 
L 219.927273 285.333899 
L 228.043636 161.56026 
L 236.16 187.826399 
L 244.276364 286.917755 
L 252.392727 297.199543 
L 260.509091 177.140581 
L 268.625455 282.20604 
L 276.741818 294.871401 
L 284.858182 297.458124 
L 292.974545 298.663974 
L 301.090909 299.539303 
L 309.207273 300.264182 
L 317.323636 185.797497 
L 325.44 284.668423 
L 333.556364 296.974584 
L 341.672727 299.133517 
L 349.789091 299.929217 
L 357.905455 189.349455 
L 366.021818 284.009846 
L 374.138182 296.581002 
L 382.254545 298.762735 
L 390.370909 263.07878 
" clip-path="url(#p3f2316ec89)" style="fill: none; stroke: #add8e6; stroke-opacity: 0.3; stroke-width: 1.5; stroke-linecap: square"/>
   </g>
   <g id="line2d_26">
    <path d="M 73.832727 218.88 
L 81.949091 146.078309 
L 90.065455 303.474911 
L 98.181818 176.172355 
L 106.298182 133.643618 
L 114.414545 297.29679 
L 122.530909 180.045778 
L 130.647273 137.96867 
L 138.763636 124.506812 
L 146.88 288.074317 
L 154.996364 177.279771 
L 163.112727 139.25051 
L 171.229091 128.170192 
L 179.345455 123.00129 
L 187.461818 119.220315 
L 195.578182 278.105398 
L 203.694545 169.208224 
L 211.810909 135.265684 
L 219.927273 126.279049 
L 228.043636 122.732589 
L 236.16 181.035924 
L 244.276364 283.587001 
L 252.392727 294.688059 
L 260.509091 297.340772 
L 268.625455 298.734752 
L 276.741818 299.760019 
L 284.858182 182.874373 
L 292.974545 133.842159 
L 301.090909 121.001321 
L 309.207273 274.062624 
L 317.323636 293.662043 
L 325.44 182.9433 
L 333.556364 138.366049 
L 341.672727 270.777562 
L 349.789091 290.147497 
L 357.905455 294.037929 
L 366.021818 295.453237 
L 374.138182 189.067163 
L 382.254545 277.88779 
L 390.370909 291.243011 
" clip-path="url(#p3f2316ec89)" style="fill: none; stroke: #add8e6; stroke-opacity: 0.3; stroke-width: 1.5; stroke-linecap: square"/>
   </g>
   <g id="line2d_27">
    <path d="M 73.832727 218.88 
L 81.949091 146.078309 
L 90.065455 122.040149 
L 98.181818 106.577179 
L 106.298182 96.035694 
L 114.414545 298.702111 
L 122.530909 305.894668 
L 130.647273 173.67952 
L 138.763636 111.255561 
L 146.88 96.184174 
L 154.996364 90.297885 
L 163.112727 86.471292 
L 171.229091 83.440236 
L 179.345455 80.900516 
L 187.461818 78.728256 
L 195.578182 286.359658 
L 203.694545 144.624162 
L 211.810909 287.378787 
L 219.927273 155.867281 
L 228.043636 103.140775 
L 236.16 153.086157 
L 244.276364 287.052588 
L 252.392727 301.279559 
L 260.509091 303.454706 
L 268.625455 182.096534 
L 276.741818 288.485847 
L 284.858182 300.902866 
L 292.974545 302.9382 
L 301.090909 187.883702 
L 309.207273 117.345472 
L 317.323636 271.759174 
L 325.44 296.692588 
L 333.556364 300.805709 
L 341.672727 301.900247 
L 349.789091 302.456482 
L 357.905455 302.874371 
L 366.021818 270.524165 
L 374.138182 299.727472 
L 382.254545 188.380397 
L 390.370909 118.332303 
" clip-path="url(#p3f2316ec89)" style="fill: none; stroke: #add8e6; stroke-opacity: 0.3; stroke-width: 1.5; stroke-linecap: square"/>
   </g>
   <g id="line2d_28">
    <path d="M 73.832727 218.88 
L 81.949091 146.078309 
L 90.065455 122.040149 
L 98.181818 301.639458 
L 106.298182 168.864814 
L 114.414545 124.06142 
L 122.530909 110.050988 
L 130.647273 102.421408 
L 138.763636 96.894236 
L 146.88 92.506821 
L 154.996364 88.90438 
L 163.112727 85.890195 
L 171.229091 83.332241 
L 179.345455 81.135401 
L 187.461818 79.228952 
L 195.578182 77.559241 
L 203.694545 288.007713 
L 211.810909 139.511783 
L 219.927273 92.329451 
L 228.043636 83.190128 
L 236.16 135.883622 
L 244.276364 292.310259 
L 252.392727 303.922051 
L 260.509091 305.359173 
L 268.625455 305.856889 
L 276.741818 306.154662 
L 284.858182 306.368825 
L 292.974545 178.96559 
L 301.090909 98.312895 
L 309.207273 282.194885 
L 317.323636 148.275025 
L 325.44 285.487021 
L 333.556364 302.314808 
L 341.672727 304.500832 
L 349.789091 305.023227 
L 357.905455 305.293846 
L 366.021818 305.500464 
L 374.138182 278.131227 
L 382.254545 146.592134 
L 390.370909 284.910818 
" clip-path="url(#p3f2316ec89)" style="fill: none; stroke: #add8e6; stroke-opacity: 0.3; stroke-width: 1.5; stroke-linecap: square"/>
   </g>
   <g id="line2d_29">
    <path d="M 73.832727 218.88 
L 81.949091 146.078309 
L 90.065455 122.040149 
L 98.181818 106.577179 
L 106.298182 96.035694 
L 114.414545 88.657552 
L 122.530909 83.288388 
L 130.647273 79.225246 
L 138.763636 76.045313 
L 146.88 73.487186 
L 154.996364 295.507386 
L 163.112727 139.338317 
L 171.229091 293.106029 
L 179.345455 150.74337 
L 187.461818 96.389206 
L 195.578182 84.756715 
L 203.694545 81.416423 
L 211.810909 79.597081 
L 219.927273 78.153205 
L 228.043636 76.881996 
L 236.16 128.852995 
L 244.276364 292.507188 
L 252.392727 304.476556 
L 260.509091 305.774611 
L 268.625455 306.189772 
L 276.741818 306.431875 
L 284.858182 306.604729 
L 292.974545 306.736214 
L 301.090909 306.839333 
L 309.207273 306.921994 
L 317.323636 306.989462 
L 325.44 307.045387 
L 333.556364 287.830685 
L 341.672727 306.495422 
L 349.789091 287.302139 
L 357.905455 133.750846 
L 366.021818 293.262608 
L 374.138182 305.873965 
L 382.254545 285.740775 
L 390.370909 305.992445 
" clip-path="url(#p3f2316ec89)" style="fill: none; stroke: #add8e6; stroke-opacity: 0.3; stroke-width: 1.5; stroke-linecap: square"/>
   </g>
   <g id="line2d_30">
    <path d="M 73.832727 218.88 
L 81.949091 146.078309 
L 90.065455 122.040149 
L 98.181818 301.639458 
L 106.298182 168.864814 
L 114.414545 124.06142 
L 122.530909 294.395743 
L 130.647273 173.895682 
L 138.763636 130.549201 
L 146.88 117.966449 
L 154.996364 111.871047 
L 163.112727 107.422774 
L 171.229091 103.70765 
L 179.345455 100.495639 
L 187.461818 97.684383 
L 195.578182 95.205037 
L 203.694545 93.004367 
L 211.810909 91.039663 
L 219.927273 89.276201 
L 228.043636 87.685506 
L 236.16 145.529804 
L 244.276364 294.612982 
L 252.392727 303.840816 
L 260.509091 305.147397 
L 268.625455 305.660844 
L 276.741818 170.597357 
L 284.858182 102.826163 
L 292.974545 284.416659 
L 301.090909 302.267255 
L 309.207273 304.465983 
L 317.323636 305.050281 
L 325.44 181.607424 
L 333.556364 292.847049 
L 341.672727 166.776203 
L 349.789091 287.252729 
L 357.905455 301.116179 
L 366.021818 303.220105 
L 374.138182 303.821634 
L 382.254545 304.162954 
L 390.370909 304.432235 
" clip-path="url(#p3f2316ec89)" style="fill: none; stroke: #add8e6; stroke-opacity: 0.3; stroke-width: 1.5; stroke-linecap: square"/>
   </g>
   <g id="line2d_31">
    <path d="M 73.832727 218.88 
L 81.949091 146.078309 
L 90.065455 122.040149 
L 98.181818 106.577179 
L 106.298182 96.035694 
L 114.414545 88.657552 
L 122.530909 83.288388 
L 130.647273 79.225246 
L 138.763636 76.045313 
L 146.88 73.487186 
L 154.996364 295.507386 
L 163.112727 139.338317 
L 171.229091 88.630896 
L 179.345455 78.851715 
L 187.461818 75.963416 
L 195.578182 74.312435 
L 203.694545 72.990163 
L 211.810909 71.832468 
L 219.927273 70.796466 
L 228.043636 284.428479 
L 236.16 233.292015 
L 244.276364 301.866485 
L 252.392727 305.637661 
L 260.509091 306.222599 
L 268.625455 181.888539 
L 276.741818 295.852797 
L 284.858182 304.931019 
L 292.974545 305.938665 
L 301.090909 306.229239 
L 309.207273 306.402696 
L 317.323636 306.535472 
L 325.44 192.347107 
L 333.556364 296.757632 
L 341.672727 169.749679 
L 349.789091 291.060939 
L 357.905455 304.016361 
L 366.021818 276.788567 
L 374.138182 303.520829 
L 382.254545 277.27237 
L 390.370909 150.770112 
" clip-path="url(#p3f2316ec89)" style="fill: none; stroke: #add8e6; stroke-opacity: 0.3; stroke-width: 1.5; stroke-linecap: square"/>
   </g>
   <g id="line2d_32">
    <path d="M 73.832727 218.88 
L 81.949091 146.078309 
L 90.065455 303.474911 
L 98.181818 306.320911 
L 106.298182 186.622139 
L 114.414545 302.046077 
L 122.530909 189.436432 
L 130.647273 142.960844 
L 138.763636 294.858874 
L 146.88 302.917346 
L 154.996364 199.47262 
L 163.112727 151.12828 
L 171.229091 134.775098 
L 179.345455 287.362671 
L 187.461818 188.068839 
L 195.578182 287.780075 
L 203.694545 194.866199 
L 211.810909 160.153169 
L 219.927273 279.568252 
L 228.043636 195.357009 
L 236.16 228.138992 
L 244.276364 177.152549 
L 252.392727 273.898672 
L 260.509091 286.118307 
L 268.625455 288.787256 
L 276.741818 290.073011 
L 284.858182 291.049282 
L 292.974545 291.90183 
L 301.090909 292.672462 
L 309.207273 261.110184 
L 317.323636 289.493963 
L 325.44 260.604132 
L 333.556364 289.776259 
L 341.672727 261.378712 
L 349.789091 290.193499 
L 357.905455 262.167829 
L 366.021818 290.589589 
L 374.138182 262.914218 
L 382.254545 187.537282 
L 390.370909 280.638664 
" clip-path="url(#p3f2316ec89)" style="fill: none; stroke: #add8e6; stroke-opacity: 0.3; stroke-width: 1.5; stroke-linecap: square"/>
   </g>
   <g id="line2d_33">
    <path d="M 73.832727 218.88 
L 81.949091 306.667093 
L 90.065455 187.709493 
L 98.181818 146.310391 
L 106.298182 127.417113 
L 114.414545 114.736206 
L 122.530909 105.424603 
L 130.647273 98.369207 
L 138.763636 92.889033 
L 146.88 297.627717 
L 154.996364 161.019157 
L 163.112727 110.969947 
L 171.229091 98.76647 
L 179.345455 94.292299 
L 187.461818 287.672325 
L 195.578182 159.784013 
L 203.694545 113.295496 
L 211.810909 101.803046 
L 219.927273 98.069403 
L 228.043636 277.790039 
L 236.16 230.338067 
L 244.276364 293.760024 
L 252.392727 300.377461 
L 260.509091 301.97434 
L 268.625455 302.838902 
L 276.741818 303.470446 
L 284.858182 303.97067 
L 292.974545 304.377539 
L 301.090909 304.713338 
L 309.207273 304.993715 
L 317.323636 305.230256 
L 325.44 305.431714 
L 333.556364 305.604792 
L 341.672727 279.34567 
L 349.789091 152.881577 
L 357.905455 100.60427 
L 366.021818 279.695539 
L 374.138182 302.266018 
L 382.254545 274.891878 
L 390.370909 150.953505 
" clip-path="url(#p3f2316ec89)" style="fill: none; stroke: #add8e6; stroke-opacity: 0.3; stroke-width: 1.5; stroke-linecap: square"/>
   </g>
   <g id="line2d_34">
    <path d="M 73.832727 218.88 
L 81.949091 146.078309 
L 90.065455 122.040149 
L 98.181818 301.639458 
L 106.298182 168.864814 
L 114.414545 124.06142 
L 122.530909 110.050988 
L 130.647273 102.421408 
L 138.763636 291.082396 
L 146.88 162.942774 
L 154.996364 289.550537 
L 163.112727 301.107803 
L 171.229091 186.457475 
L 179.345455 131.586621 
L 187.461818 116.170877 
L 195.578182 110.48508 
L 203.694545 106.948002 
L 211.810909 104.055255 
L 219.927273 101.503767 
L 228.043636 274.966946 
L 236.16 233.504269 
L 244.276364 144.205357 
L 252.392727 274.702325 
L 260.509091 293.502469 
L 268.625455 297.33862 
L 276.741818 298.85917 
L 284.858182 186.197798 
L 292.974545 131.215592 
L 301.090909 268.632647 
L 309.207273 291.286054 
L 317.323636 295.803143 
L 325.44 297.324266 
L 333.556364 298.225603 
L 341.672727 190.004591 
L 349.789091 279.196149 
L 357.905455 293.721752 
L 366.021818 189.570541 
L 374.138182 276.530938 
L 382.254545 291.602704 
L 390.370909 294.841656 
" clip-path="url(#p3f2316ec89)" style="fill: none; stroke: #add8e6; stroke-opacity: 0.3; stroke-width: 1.5; stroke-linecap: square"/>
   </g>
   <g id="line2d_35">
    <path d="M 73.832727 218.88 
L 81.949091 146.078309 
L 90.065455 303.474911 
L 98.181818 306.320911 
L 106.298182 306.761191 
L 114.414545 192.663856 
L 122.530909 134.692182 
L 130.647273 114.453605 
L 138.763636 103.294678 
L 146.88 95.47915 
L 154.996364 89.554962 
L 163.112727 291.846741 
L 171.229091 160.710211 
L 179.345455 108.051716 
L 187.461818 94.988066 
L 195.578182 90.198093 
L 203.694545 87.151704 
L 211.810909 84.677419 
L 219.927273 82.534884 
L 228.043636 80.646154 
L 236.16 143.413038 
L 244.276364 295.481366 
L 252.392727 304.717413 
L 260.509091 305.721178 
L 268.625455 306.055359 
L 276.741818 306.261221 
L 284.858182 177.074383 
L 292.974545 296.802258 
L 301.090909 304.909002 
L 309.207273 305.793164 
L 317.323636 183.371716 
L 325.44 295.377635 
L 333.556364 304.307176 
L 341.672727 305.35288 
L 349.789091 277.041522 
L 357.905455 145.379216 
L 366.021818 288.390939 
L 374.138182 157.81247 
L 382.254545 97.992526 
L 390.370909 273.106965 
" clip-path="url(#p3f2316ec89)" style="fill: none; stroke: #add8e6; stroke-opacity: 0.3; stroke-width: 1.5; stroke-linecap: square"/>
   </g>
   <g id="line2d_36">
    <path d="M 73.832727 218.88 
L 81.949091 83.514878 
L 90.065455 246.855107 
L 98.181818 280.475758 
L 106.298182 287.59279 
L 114.414545 291.294831 
L 122.530909 293.98108 
L 130.647273 296.016858 
L 138.763636 297.580137 
L 146.88 110.847971 
L 154.996364 256.675724 
L 163.112727 288.652837 
L 171.229091 123.18151 
L 179.345455 250.224433 
L 187.461818 281.818994 
L 195.578182 132.774764 
L 203.694545 245.357241 
L 211.810909 275.206589 
L 219.927273 281.851756 
L 228.043636 283.912284 
L 236.16 240.360296 
L 244.276364 122.971453 
L 252.392727 240.530998 
L 260.509091 271.729177 
L 268.625455 143.173914 
L 276.741818 105.600591 
L 284.858182 94.437428 
L 292.974545 225.455038 
L 301.090909 264.277517 
L 309.207273 144.311547 
L 317.323636 236.501724 
L 325.44 139.980766 
L 333.556364 111.958886 
L 341.672727 103.309976 
L 349.789091 99.04788 
L 357.905455 95.882265 
L 366.021818 220.947191 
L 374.138182 129.800555 
L 382.254545 105.148301 
L 390.370909 98.307093 
" clip-path="url(#p3f2316ec89)" style="fill: none; stroke: #ff0000; stroke-opacity: 0.1; stroke-width: 1.5; stroke-linecap: square"/>
   </g>
   <g id="line2d_37">
    <path d="M 73.832727 218.88 
L 81.949091 292.409854 
L 90.065455 299.008719 
L 98.181818 301.10066 
L 106.298182 105.173098 
L 114.414545 267.095983 
L 122.530909 294.402051 
L 130.647273 297.776241 
L 138.763636 299.128829 
L 146.88 124.696341 
L 154.996364 263.963601 
L 163.112727 291.533372 
L 171.229091 295.590219 
L 179.345455 139.004584 
L 187.461818 260.498377 
L 195.578182 287.118405 
L 203.694545 291.84837 
L 211.810909 293.242072 
L 219.927273 150.393054 
L 228.043636 259.291353 
L 236.16 235.254171 
L 244.276364 128.703019 
L 252.392727 96.861553 
L 260.509091 86.590554 
L 268.625455 81.360433 
L 276.741818 231.637513 
L 284.858182 276.037403 
L 292.974545 145.625697 
L 301.090909 100.237969 
L 309.207273 231.057813 
L 317.323636 131.725643 
L 325.44 100.839239 
L 333.556364 226.156349 
L 341.672727 133.977051 
L 349.789091 105.137534 
L 357.905455 96.541903 
L 366.021818 92.809761 
L 374.138182 90.269465 
L 382.254545 88.119608 
L 390.370909 86.181179 
" clip-path="url(#p3f2316ec89)" style="fill: none; stroke: #ff0000; stroke-opacity: 0.1; stroke-width: 1.5; stroke-linecap: square"/>
   </g>
   <g id="line2d_38">
    <path d="M 73.832727 218.88 
L 81.949091 292.409854 
L 90.065455 299.008719 
L 98.181818 301.10066 
L 106.298182 105.173098 
L 114.414545 267.095983 
L 122.530909 113.071419 
L 130.647273 255.417546 
L 138.763636 286.053507 
L 146.88 291.175798 
L 154.996364 293.153459 
L 163.112727 294.596232 
L 171.229091 134.735953 
L 179.345455 89.368296 
L 187.461818 239.366401 
L 195.578182 123.101259 
L 203.694545 91.605329 
L 211.810909 230.589309 
L 219.927273 125.478136 
L 228.043636 236.611976 
L 236.16 208.899081 
L 244.276364 122.680161 
L 252.392727 100.26368 
L 260.509091 93.239653 
L 268.625455 89.663292 
L 276.741818 220.633478 
L 284.858182 124.5783 
L 292.974545 99.733385 
L 301.090909 218.849004 
L 309.207273 127.767728 
L 317.323636 103.868532 
L 325.44 97.397468 
L 333.556364 214.448375 
L 341.672727 128.077202 
L 349.789091 105.633635 
L 357.905455 146.792558 
L 366.021818 109.13091 
L 374.138182 147.334689 
L 382.254545 108.635985 
L 390.370909 146.523139 
" clip-path="url(#p3f2316ec89)" style="fill: none; stroke: #ff0000; stroke-opacity: 0.1; stroke-width: 1.5; stroke-linecap: square"/>
   </g>
   <g id="line2d_39">
    <path d="M 73.832727 218.88 
L 81.949091 292.409854 
L 90.065455 299.008719 
L 98.181818 301.10066 
L 106.298182 302.459254 
L 114.414545 303.419412 
L 122.530909 304.112481 
L 130.647273 110.69831 
L 138.763636 274.225123 
L 146.88 299.267471 
L 154.996364 301.639273 
L 163.112727 302.315181 
L 171.229091 302.80534 
L 179.345455 130.497907 
L 187.461818 271.604705 
L 195.578182 297.085238 
L 203.694545 300.247571 
L 211.810909 300.966742 
L 219.927273 301.392818 
L 228.043636 301.748553 
L 236.16 268.854212 
L 244.276364 125.697173 
L 252.392727 79.162073 
L 260.509091 67.736538 
L 268.625455 63.262533 
L 276.741818 60.449662 
L 284.858182 58.323311 
L 292.974545 56.624714 
L 301.090909 55.234867 
L 309.207273 54.078708 
L 317.323636 53.103678 
L 325.44 95.31115 
L 333.556364 57.306231 
L 341.672727 96.292578 
L 349.789091 276.400776 
L 357.905455 110.553407 
L 366.021818 61.159412 
L 374.138182 99.563453 
L 382.254545 278.26531 
L 390.370909 115.416944 
" clip-path="url(#p3f2316ec89)" style="fill: none; stroke: #ff0000; stroke-opacity: 0.1; stroke-width: 1.5; stroke-linecap: square"/>
   </g>
   <g id="line2d_40">
    <path d="M 73.832727 218.88 
L 81.949091 292.409854 
L 90.065455 299.008719 
L 98.181818 301.10066 
L 106.298182 105.173098 
L 114.414545 267.095983 
L 122.530909 294.402051 
L 130.647273 297.776241 
L 138.763636 299.128829 
L 146.88 300.146895 
L 154.996364 300.966534 
L 163.112727 301.635195 
L 171.229091 302.187973 
L 179.345455 302.650937 
L 187.461818 303.043319 
L 195.578182 303.37945 
L 203.694545 303.670162 
L 211.810909 303.92376 
L 219.927273 304.1467 
L 228.043636 304.344063 
L 236.16 274.363969 
L 244.276364 108.377063 
L 252.392727 270.090606 
L 260.509091 116.609972 
L 268.625455 73.748017 
L 276.741818 64.19493 
L 284.858182 60.521141 
L 292.974545 58.16823 
L 301.090909 56.367123 
L 309.207273 54.918138 
L 317.323636 53.726332 
L 325.44 52.730439 
L 333.556364 236.372214 
L 341.672727 89.372263 
L 349.789091 58.925416 
L 357.905455 229.845584 
L 366.021818 91.569935 
L 374.138182 61.36383 
L 382.254545 101.59863 
L 390.370909 61.838056 
" clip-path="url(#p3f2316ec89)" style="fill: none; stroke: #ff0000; stroke-opacity: 0.1; stroke-width: 1.5; stroke-linecap: square"/>
   </g>
   <g id="line2d_41">
    <path d="M 73.832727 218.88 
L 81.949091 292.409854 
L 90.065455 299.008719 
L 98.181818 103.886106 
L 106.298182 264.024322 
L 114.414545 291.559857 
L 122.530909 118.102333 
L 130.647273 254.827556 
L 138.763636 283.871487 
L 146.88 289.026471 
L 154.996364 291.137394 
L 163.112727 133.976776 
L 171.229091 91.846672 
L 179.345455 79.691391 
L 187.461818 231.94965 
L 195.578182 276.810766 
L 203.694545 285.72274 
L 211.810909 288.247181 
L 219.927273 289.670247 
L 228.043636 290.809677 
L 236.16 242.508795 
L 244.276364 118.933352 
L 252.392727 246.920769 
L 260.509091 127.600625 
L 268.625455 94.433523 
L 276.741818 85.178756 
L 284.858182 228.317007 
L 292.974545 123.083368 
L 301.090909 94.570045 
L 309.207273 86.818901 
L 317.323636 83.462621 
L 325.44 81.121888 
L 333.556364 79.136106 
L 341.672727 225.089221 
L 349.789091 117.138732 
L 357.905455 88.979395 
L 366.021818 82.372759 
L 374.138182 133.218204 
L 382.254545 90.179132 
L 390.370909 135.384224 
" clip-path="url(#p3f2316ec89)" style="fill: none; stroke: #ff0000; stroke-opacity: 0.1; stroke-width: 1.5; stroke-linecap: square"/>
   </g>
   <g id="line2d_42">
    <path d="M 73.832727 218.88 
L 81.949091 292.409854 
L 90.065455 299.008719 
L 98.181818 301.10066 
L 106.298182 105.173098 
L 114.414545 69.512552 
L 122.530909 60.101462 
L 130.647273 56.517856 
L 138.763636 238.253913 
L 146.88 292.16962 
L 154.996364 115.118093 
L 163.112727 253.978567 
L 171.229091 288.135606 
L 179.345455 293.876529 
L 187.461818 295.77993 
L 195.578182 130.791973 
L 203.694545 253.600829 
L 211.810909 285.685677 
L 219.927273 291.826418 
L 228.043636 293.636389 
L 236.16 243.969636 
L 244.276364 112.214819 
L 252.392727 77.22729 
L 260.509091 68.894266 
L 268.625455 65.798832 
L 276.741818 63.830678 
L 284.858182 62.245434 
L 292.974545 60.886415 
L 301.090909 224.920929 
L 309.207273 99.97288 
L 317.323636 238.543128 
L 325.44 283.149378 
L 333.556364 132.452255 
L 341.672727 80.677588 
L 349.789091 122.324033 
L 357.905455 77.662991 
L 366.021818 120.04055 
L 374.138182 247.41382 
L 382.254545 283.283449 
L 390.370909 134.045099 
" clip-path="url(#p3f2316ec89)" style="fill: none; stroke: #ff0000; stroke-opacity: 0.1; stroke-width: 1.5; stroke-linecap: square"/>
   </g>
   <g id="line2d_43">
    <path d="M 73.832727 218.88 
L 81.949091 292.409854 
L 90.065455 299.008719 
L 98.181818 301.10066 
L 106.298182 302.459254 
L 114.414545 303.419412 
L 122.530909 304.112481 
L 130.647273 304.625589 
L 138.763636 112.31776 
L 146.88 275.89873 
L 154.996364 300.201945 
L 163.112727 302.378101 
L 171.229091 302.941876 
L 179.345455 303.342703 
L 187.461818 303.679022 
L 195.578182 132.082185 
L 203.694545 273.863418 
L 211.810909 298.552703 
L 219.927273 301.452977 
L 228.043636 144.816033 
L 236.16 181.69387 
L 244.276364 93.400904 
L 252.392727 243.26334 
L 260.509091 121.976756 
L 268.625455 85.224445 
L 276.741818 75.298986 
L 284.858182 70.937162 
L 292.974545 67.96085 
L 301.090909 65.574481 
L 309.207273 225.482342 
L 317.323636 106.131382 
L 325.44 74.659823 
L 333.556364 67.8812 
L 341.672727 220.197697 
L 349.789091 106.598982 
L 357.905455 76.16593 
L 366.021818 69.565033 
L 374.138182 118.724583 
L 382.254545 76.385351 
L 390.370909 121.046115 
" clip-path="url(#p3f2316ec89)" style="fill: none; stroke: #ff0000; stroke-opacity: 0.1; stroke-width: 1.5; stroke-linecap: square"/>
   </g>
   <g id="line2d_44">
    <path d="M 73.832727 218.88 
L 81.949091 292.409854 
L 90.065455 299.008719 
L 98.181818 301.10066 
L 106.298182 302.459254 
L 114.414545 303.419412 
L 122.530909 304.112481 
L 130.647273 304.625589 
L 138.763636 112.31776 
L 146.88 275.89873 
L 154.996364 300.201945 
L 163.112727 302.378101 
L 171.229091 129.774224 
L 179.345455 270.566774 
L 187.461818 296.478153 
L 195.578182 141.226285 
L 203.694545 265.464198 
L 211.810909 134.295998 
L 219.927273 255.96915 
L 228.043636 285.976359 
L 236.16 249.942354 
L 244.276364 131.378255 
L 252.392727 250.410894 
L 260.509091 139.697956 
L 268.625455 102.692073 
L 276.741818 91.069276 
L 284.858182 85.581182 
L 292.974545 81.746475 
L 301.090909 229.079201 
L 309.207273 124.894448 
L 317.323636 93.458518 
L 325.44 227.745589 
L 333.556364 128.81217 
L 341.672727 98.139541 
L 349.789091 89.566585 
L 357.905455 86.063171 
L 366.021818 83.739719 
L 374.138182 81.790944 
L 382.254545 136.045589 
L 390.370909 252.863441 
" clip-path="url(#p3f2316ec89)" style="fill: none; stroke: #ff0000; stroke-opacity: 0.1; stroke-width: 1.5; stroke-linecap: square"/>
   </g>
   <g id="line2d_45">
    <path d="M 73.832727 218.88 
L 81.949091 83.514878 
L 90.065455 246.855107 
L 98.181818 94.173817 
L 106.298182 234.751755 
L 114.414545 267.592005 
L 122.530909 275.551683 
L 130.647273 279.98333 
L 138.763636 283.440307 
L 146.88 286.249371 
L 154.996364 288.543532 
L 163.112727 116.48943 
L 171.229091 245.955379 
L 179.345455 277.174752 
L 187.461818 283.390529 
L 195.578182 285.53221 
L 203.694545 286.947743 
L 211.810909 288.133035 
L 219.927273 130.790938 
L 228.043636 247.68254 
L 236.16 222.84083 
L 244.276364 120.934572 
L 252.392727 96.440752 
L 260.509091 231.239665 
L 268.625455 127.268062 
L 276.741818 101.173202 
L 284.858182 93.340564 
L 292.974545 89.353822 
L 301.090909 86.359493 
L 309.207273 83.787325 
L 317.323636 225.494611 
L 325.44 118.449536 
L 333.556364 92.687593 
L 341.672727 86.404326 
L 349.789091 83.793992 
L 357.905455 222.103919 
L 366.021818 117.519873 
L 374.138182 92.277122 
L 382.254545 86.450998 
L 390.370909 137.035921 
" clip-path="url(#p3f2316ec89)" style="fill: none; stroke: #ff0000; stroke-opacity: 0.1; stroke-width: 1.5; stroke-linecap: square"/>
   </g>
   <g id="line2d_46">
    <path d="M 73.832727 218.88 
L 81.949091 292.409854 
L 90.065455 102.567772 
L 98.181818 260.604279 
L 106.298182 287.778036 
L 114.414545 114.015572 
L 122.530909 250.087557 
L 130.647273 279.244358 
L 138.763636 284.949268 
L 146.88 127.966501 
L 154.996364 246.712372 
L 163.112727 274.114824 
L 171.229091 279.905129 
L 179.345455 282.2557 
L 187.461818 283.964868 
L 195.578182 141.966516 
L 203.694545 248.746188 
L 211.810909 273.388311 
L 219.927273 278.670573 
L 228.043636 280.500249 
L 236.16 235.853141 
L 244.276364 131.480222 
L 252.392727 104.630976 
L 260.509091 95.650577 
L 268.625455 90.712597 
L 276.741818 86.952727 
L 284.858182 232.97329 
L 292.974545 272.195002 
L 301.090909 280.516084 
L 309.207273 142.920441 
L 317.323636 102.660553 
L 325.44 231.537547 
L 333.556364 267.393086 
L 341.672727 144.851666 
L 349.789091 108.441455 
L 357.905455 98.751659 
L 366.021818 94.889197 
L 374.138182 225.422138 
L 382.254545 130.100242 
L 390.370909 104.434244 
" clip-path="url(#p3f2316ec89)" style="fill: none; stroke: #ff0000; stroke-opacity: 0.1; stroke-width: 1.5; stroke-linecap: square"/>
   </g>
   <g id="line2d_47">
    <path d="M 73.832727 218.88 
L 81.949091 292.409854 
L 90.065455 299.008719 
L 98.181818 301.10066 
L 106.298182 302.459254 
L 114.414545 106.98221 
L 122.530909 68.760389 
L 130.647273 249.759334 
L 138.763636 293.448285 
L 146.88 298.502228 
L 154.996364 299.846862 
L 163.112727 300.74173 
L 171.229091 301.457168 
L 179.345455 302.045053 
L 187.461818 302.535082 
L 195.578182 130.327376 
L 203.694545 268.994145 
L 211.810909 123.30723 
L 219.927273 257.831431 
L 228.043636 290.813586 
L 236.16 253.209183 
L 244.276364 119.898204 
L 252.392727 82.315013 
L 260.509091 72.752039 
L 268.625455 230.200722 
L 276.741818 113.390205 
L 284.858182 81.801828 
L 292.974545 73.955898 
L 301.090909 223.70462 
L 309.207273 277.999122 
L 317.323636 140.465084 
L 325.44 91.110065 
L 333.556364 79.204119 
L 341.672727 75.413871 
L 349.789091 73.275573 
L 357.905455 71.577438 
L 366.021818 122.844521 
L 374.138182 79.585507 
L 382.254545 223.581923 
L 390.370909 276.954238 
" clip-path="url(#p3f2316ec89)" style="fill: none; stroke: #ff0000; stroke-opacity: 0.1; stroke-width: 1.5; stroke-linecap: square"/>
   </g>
   <g id="line2d_48">
    <path d="M 73.832727 218.88 
L 81.949091 292.409854 
L 90.065455 299.008719 
L 98.181818 103.886106 
L 106.298182 264.024322 
L 114.414545 291.559857 
L 122.530909 295.4996 
L 130.647273 297.309928 
L 138.763636 298.678222 
L 146.88 299.761996 
L 154.996364 300.63108 
L 163.112727 301.33811 
L 171.229091 301.921698 
L 179.345455 302.409881 
L 187.461818 302.823206 
L 195.578182 303.17695 
L 203.694545 131.543618 
L 211.810909 273.319048 
L 219.927273 297.949212 
L 228.043636 300.902573 
L 236.16 267.0582 
L 244.276364 116.922097 
L 252.392727 76.254354 
L 260.509091 66.525135 
L 268.625455 62.524067 
L 276.741818 59.912931 
L 284.858182 57.909451 
L 292.974545 236.943832 
L 301.090909 293.345585 
L 309.207273 130.667684 
L 317.323636 261.491787 
L 325.44 116.917105 
L 333.556364 73.068381 
L 341.672727 64.460572 
L 349.789091 61.912084 
L 357.905455 60.40942 
L 366.021818 59.194315 
L 374.138182 107.072103 
L 382.254545 262.542395 
L 390.370909 111.716939 
" clip-path="url(#p3f2316ec89)" style="fill: none; stroke: #ff0000; stroke-opacity: 0.1; stroke-width: 1.5; stroke-linecap: square"/>
   </g>
   <g id="line2d_49">
    <path d="M 73.832727 218.88 
L 81.949091 292.409854 
L 90.065455 299.008719 
L 98.181818 301.10066 
L 106.298182 302.459254 
L 114.414545 303.419412 
L 122.530909 304.112481 
L 130.647273 304.625589 
L 138.763636 305.015898 
L 146.88 305.320429 
L 154.996364 114.999218 
L 163.112727 278.499508 
L 171.229091 119.211121 
L 179.345455 268.253762 
L 187.461818 296.995558 
L 195.578182 300.508462 
L 203.694545 301.279596 
L 211.810909 301.724755 
L 219.927273 302.091242 
L 228.043636 302.412348 
L 236.16 270.257192 
L 244.276364 115.894455 
L 252.392727 74.089677 
L 260.509091 64.621004 
L 268.625455 60.879355 
L 276.741818 58.470181 
L 284.858182 56.629454 
L 292.974545 55.15173 
L 301.090909 53.938281 
L 309.207273 52.925575 
L 317.323636 52.068877 
L 325.44 51.335579 
L 333.556364 89.133109 
L 341.672727 54.472736 
L 349.789091 89.639155 
L 357.905455 277.86235 
L 366.021818 102.469009 
L 374.138182 57.640643 
L 382.254545 92.37347 
L 390.370909 55.663934 
" clip-path="url(#p3f2316ec89)" style="fill: none; stroke: #ff0000; stroke-opacity: 0.1; stroke-width: 1.5; stroke-linecap: square"/>
   </g>
   <g id="line2d_50">
    <path d="M 73.832727 218.88 
L 81.949091 292.409854 
L 90.065455 299.008719 
L 98.181818 103.886106 
L 106.298182 264.024322 
L 114.414545 291.559857 
L 122.530909 118.102333 
L 130.647273 254.827556 
L 138.763636 283.871487 
L 146.88 289.026471 
L 154.996364 291.137394 
L 163.112727 292.706825 
L 171.229091 294.01578 
L 179.345455 295.127393 
L 187.461818 296.079753 
L 195.578182 296.902249 
L 203.694545 297.618006 
L 211.810909 298.245309 
L 219.927273 298.79872 
L 228.043636 299.289927 
L 236.16 261.965082 
L 244.276364 116.865544 
L 252.392727 79.282989 
L 260.509091 69.582177 
L 268.625455 65.352723 
L 276.741818 240.959392 
L 284.858182 290.304328 
L 292.974545 133.494748 
L 301.090909 80.898814 
L 309.207273 69.62029 
L 317.323636 66.063985 
L 325.44 230.661382 
L 333.556364 106.029733 
L 341.672727 242.485295 
L 349.789091 116.42312 
L 357.905455 80.35907 
L 366.021818 72.37733 
L 374.138182 69.692884 
L 382.254545 68.021243 
L 390.370909 66.637178 
" clip-path="url(#p3f2316ec89)" style="fill: none; stroke: #ff0000; stroke-opacity: 0.1; stroke-width: 1.5; stroke-linecap: square"/>
   </g>
   <g id="line2d_51">
    <path d="M 73.832727 218.88 
L 81.949091 292.409854 
L 90.065455 299.008719 
L 98.181818 301.10066 
L 106.298182 302.459254 
L 114.414545 303.419412 
L 122.530909 304.112481 
L 130.647273 304.625589 
L 138.763636 305.015898 
L 146.88 305.320429 
L 154.996364 114.999218 
L 163.112727 278.499508 
L 171.229091 301.546366 
L 179.345455 303.44114 
L 187.461818 303.856045 
L 195.578182 304.137245 
L 203.694545 304.375501 
L 211.810909 304.583023 
L 219.927273 304.765531 
L 228.043636 134.005023 
L 236.16 172.868024 
L 244.276364 80.882274 
L 252.392727 64.204234 
L 260.509091 59.441784 
L 268.625455 233.618881 
L 276.741818 97.95165 
L 284.858182 66.69998 
L 292.974545 60.512457 
L 301.090909 58.234961 
L 309.207273 56.718468 
L 317.323636 55.491172 
L 325.44 224.227903 
L 333.556364 90.714424 
L 341.672727 240.07245 
L 349.789091 102.025214 
L 357.905455 66.709421 
L 366.021818 108.749969 
L 374.138182 66.860678 
L 382.254545 107.782519 
L 390.370909 252.682557 
" clip-path="url(#p3f2316ec89)" style="fill: none; stroke: #ff0000; stroke-opacity: 0.1; stroke-width: 1.5; stroke-linecap: square"/>
   </g>
   <g id="line2d_52">
    <path d="M 73.832727 218.88 
L 81.949091 292.409854 
L 90.065455 102.567772 
L 98.181818 72.236311 
L 106.298182 243.589813 
L 114.414545 101.113625 
L 122.530909 240.618963 
L 130.647273 274.357645 
L 138.763636 116.850909 
L 146.88 88.254333 
L 154.996364 222.2021 
L 163.112727 262.00065 
L 171.229091 271.576572 
L 179.345455 126.786052 
L 187.461818 230.152754 
L 195.578182 124.407354 
L 203.694545 222.019553 
L 211.810909 249.88807 
L 219.927273 136.173825 
L 228.043636 219.894474 
L 236.16 188.638949 
L 244.276364 235.089154 
L 252.392727 141.761584 
L 260.509091 120.890262 
L 268.625455 114.73742 
L 276.741818 111.673799 
L 284.858182 109.364093 
L 292.974545 107.325719 
L 301.090909 105.452061 
L 309.207273 148.474656 
L 317.323636 112.110367 
L 325.44 149.452601 
L 333.556364 111.55619 
L 341.672727 148.497246 
L 349.789091 110.686063 
L 357.905455 147.491474 
L 366.021818 109.846692 
L 374.138182 146.525761 
L 382.254545 229.547771 
L 390.370909 126.536312 
" clip-path="url(#p3f2316ec89)" style="fill: none; stroke: #ff0000; stroke-opacity: 0.1; stroke-width: 1.5; stroke-linecap: square"/>
   </g>
   <g id="line2d_53">
    <path d="M 73.832727 218.88 
L 81.949091 83.514878 
L 90.065455 246.855107 
L 98.181818 280.475758 
L 106.298182 287.59279 
L 114.414545 291.294831 
L 122.530909 293.98108 
L 130.647273 296.016858 
L 138.763636 297.580137 
L 146.88 110.847971 
L 154.996364 256.675724 
L 163.112727 288.652837 
L 171.229091 293.620819 
L 179.345455 295.10948 
L 187.461818 126.198621 
L 195.578182 254.13558 
L 203.694545 284.920714 
L 211.810909 290.601839 
L 219.927273 292.162679 
L 228.043636 138.095934 
L 236.16 179.231889 
L 244.276364 102.331675 
L 252.392727 83.978628 
L 260.509091 77.508037 
L 268.625455 73.636958 
L 276.741818 70.641258 
L 284.858182 68.146943 
L 292.974545 66.025776 
L 301.090909 64.203534 
L 309.207273 62.62573 
L 317.323636 61.24976 
L 325.44 60.041744 
L 333.556364 58.97451 
L 341.672727 106.611154 
L 349.789091 261.775952 
L 357.905455 294.832797 
L 366.021818 120.754799 
L 374.138182 68.74075 
L 382.254545 112.769372 
L 390.370909 263.317537 
" clip-path="url(#p3f2316ec89)" style="fill: none; stroke: #ff0000; stroke-opacity: 0.1; stroke-width: 1.5; stroke-linecap: square"/>
   </g>
   <g id="line2d_54">
    <path d="M 73.832727 218.88 
L 81.949091 292.409854 
L 90.065455 299.008719 
L 98.181818 103.886106 
L 106.298182 264.024322 
L 114.414545 291.559857 
L 122.530909 295.4996 
L 130.647273 297.309928 
L 138.763636 122.073454 
L 146.88 260.92951 
L 154.996364 123.451377 
L 163.112727 87.469454 
L 171.229091 235.174588 
L 179.345455 277.513579 
L 187.461818 285.877697 
L 195.578182 288.356697 
L 203.694545 289.822139 
L 211.810909 291.008316 
L 219.927273 292.040267 
L 228.043636 145.379492 
L 236.16 179.201268 
L 244.276364 263.703745 
L 252.392727 140.878624 
L 260.509091 102.907269 
L 268.625455 91.748919 
L 276.741818 86.781188 
L 284.858182 228.983925 
L 292.974545 272.181575 
L 301.090909 145.935788 
L 309.207273 104.506931 
L 317.323636 93.275279 
L 325.44 88.980968 
L 333.556364 86.265247 
L 341.672727 225.47886 
L 349.789091 125.268098 
L 357.905455 97.055883 
L 366.021818 224.291058 
L 374.138182 128.713765 
L 382.254545 101.18023 
L 390.370909 93.920006 
" clip-path="url(#p3f2316ec89)" style="fill: none; stroke: #ff0000; stroke-opacity: 0.1; stroke-width: 1.5; stroke-linecap: square"/>
   </g>
   <g id="line2d_55">
    <path d="M 73.832727 218.88 
L 81.949091 292.409854 
L 90.065455 102.567772 
L 98.181818 72.236311 
L 106.298182 63.039035 
L 114.414545 237.161353 
L 122.530909 284.319054 
L 130.647273 291.998383 
L 138.763636 295.069698 
L 146.88 297.182745 
L 154.996364 298.763332 
L 163.112727 118.694305 
L 171.229091 258.141514 
L 179.345455 290.256221 
L 187.461818 295.364181 
L 195.578182 296.887584 
L 203.694545 297.857999 
L 211.810909 298.64645 
L 219.927273 299.318484 
L 228.043636 299.899562 
L 236.16 258.10553 
L 244.276364 109.437638 
L 252.392727 73.888253 
L 260.509091 65.944297 
L 268.625455 62.926809 
L 276.741818 60.963006 
L 284.858182 233.808826 
L 292.974545 99.286749 
L 301.090909 69.147216 
L 309.207273 63.265519 
L 317.323636 226.071407 
L 325.44 99.699176 
L 333.556364 70.649122 
L 341.672727 64.965919 
L 349.789091 110.473149 
L 357.905455 257.133129 
L 366.021818 111.962183 
L 374.138182 248.058731 
L 382.254545 288.760897 
L 390.370909 136.593196 
" clip-path="url(#p3f2316ec89)" style="fill: none; stroke: #ff0000; stroke-opacity: 0.1; stroke-width: 1.5; stroke-linecap: square"/>
   </g>
   <g id="line2d_56">
    <path d="M 73.832727 218.88 
L 81.949091 170.166627 
L 90.065455 159.105765 
L 98.181818 182.937852 
L 106.298182 176.477902 
L 114.414545 160.37771 
L 122.530909 160.954967 
L 130.647273 137.238142 
L 138.763636 149.36521 
L 146.88 156.354204 
L 154.996364 155.108475 
L 163.112727 148.358796 
L 171.229091 157.716868 
L 179.345455 155.29838 
L 187.461818 124.702788 
L 195.578182 174.400164 
L 203.694545 138.479362 
L 211.810909 126.746094 
L 219.927273 137.179838 
L 228.043636 147.312229 
L 236.16 177.062082 
L 244.276364 276.71319 
L 252.392727 263.341473 
L 260.509091 282.658455 
L 268.625455 286.519345 
L 276.741818 282.375071 
L 284.858182 258.629567 
L 292.974545 269.425715 
L 301.090909 250.534431 
L 309.207273 273.195314 
L 317.323636 265.162046 
L 325.44 262.133337 
L 333.556364 271.54218 
L 341.672727 262.802228 
L 349.789091 275.783892 
L 357.905455 257.078898 
L 366.021818 281.230603 
L 374.138182 269.583946 
L 382.254545 244.838513 
L 390.370909 255.945639 
" clip-path="url(#p3f2316ec89)" style="fill: none; stroke: #1f77b4; stroke-width: 1.5; stroke-linecap: square"/>
   </g>
   <g id="line2d_57">
    <path d="M 73.832727 218.88 
L 81.949091 261.075608 
L 90.065455 261.719535 
L 98.181818 224.337663 
L 106.298182 234.794471 
L 114.414545 248.179571 
L 122.530909 240.852153 
L 130.647273 265.417014 
L 138.763636 254.443545 
L 146.88 246.4245 
L 154.996364 249.051009 
L 163.112727 253.532577 
L 171.229091 243.686275 
L 179.345455 243.979828 
L 187.461818 274.572842 
L 195.578182 227.535427 
L 203.694545 262.275253 
L 211.810909 270.177771 
L 219.927273 259.638708 
L 228.043636 253.00112 
L 236.16 231.753784 
L 244.276364 128.889789 
L 252.392727 131.122814 
L 260.509091 106.056887 
L 268.625455 100.648179 
L 276.741818 104.33817 
L 284.858182 129.047053 
L 292.974545 119.285574 
L 301.090909 138.542379 
L 309.207273 117.140712 
L 317.323636 124.848222 
L 325.44 130.767467 
L 333.556364 119.009965 
L 341.672727 131.44236 
L 349.789091 116.224371 
L 357.905455 134.138688 
L 366.021818 108.811711 
L 374.138182 120.003481 
L 382.254545 148.538621 
L 390.370909 138.854868 
" clip-path="url(#p3f2316ec89)" style="fill: none; stroke: #ff0000; stroke-width: 1.5; stroke-linecap: square"/>
   </g>
   <g id="patch_5">
    <path d="M 57.6 307.584 
L 57.6 41.472 
" style="fill: none; stroke: #000000; stroke-width: 0.8; stroke-linejoin: miter; stroke-linecap: square"/>
   </g>
   <g id="patch_6">
    <path d="M 414.72 307.584 
L 414.72 41.472 
" style="fill: none; stroke: #000000; stroke-width: 0.8; stroke-linejoin: miter; stroke-linecap: square"/>
   </g>
   <g id="patch_7">
    <path d="M 57.6 307.584 
L 414.72 307.584 
" style="fill: none; stroke: #000000; stroke-width: 0.8; stroke-linejoin: miter; stroke-linecap: square"/>
   </g>
   <g id="patch_8">
    <path d="M 57.6 41.472 
L 414.72 41.472 
" style="fill: none; stroke: #000000; stroke-width: 0.8; stroke-linejoin: miter; stroke-linecap: square"/>
   </g>
   <g id="text_18">
    <!-- biased_B -->
    <g transform="translate(209.264062 35.472) scale(0.12 -0.12)">
     <defs>
      <path id="DejaVuSans-62" d="M 3116 1747 
Q 3116 2381 2855 2742 
Q 2594 3103 2138 3103 
Q 1681 3103 1420 2742 
Q 1159 2381 1159 1747 
Q 1159 1113 1420 752 
Q 1681 391 2138 391 
Q 2594 391 2855 752 
Q 3116 1113 3116 1747 
z
M 1159 2969 
Q 1341 3281 1617 3432 
Q 1894 3584 2278 3584 
Q 2916 3584 3314 3078 
Q 3713 2572 3713 1747 
Q 3713 922 3314 415 
Q 2916 -91 2278 -91 
Q 1894 -91 1617 61 
Q 1341 213 1159 525 
L 1159 0 
L 581 0 
L 581 4863 
L 1159 4863 
L 1159 2969 
z
" transform="scale(0.015625)"/>
      <path id="DejaVuSans-69" d="M 603 3500 
L 1178 3500 
L 1178 0 
L 603 0 
L 603 3500 
z
M 603 4863 
L 1178 4863 
L 1178 4134 
L 603 4134 
L 603 4863 
z
" transform="scale(0.015625)"/>
      <path id="DejaVuSans-61" d="M 2194 1759 
Q 1497 1759 1228 1600 
Q 959 1441 959 1056 
Q 959 750 1161 570 
Q 1363 391 1709 391 
Q 2188 391 2477 730 
Q 2766 1069 2766 1631 
L 2766 1759 
L 2194 1759 
z
M 3341 1997 
L 3341 0 
L 2766 0 
L 2766 531 
Q 2569 213 2275 61 
Q 1981 -91 1556 -91 
Q 1019 -91 701 211 
Q 384 513 384 1019 
Q 384 1609 779 1909 
Q 1175 2209 1959 2209 
L 2766 2209 
L 2766 2266 
Q 2766 2663 2505 2880 
Q 2244 3097 1772 3097 
Q 1472 3097 1187 3025 
Q 903 2953 641 2809 
L 641 3341 
Q 956 3463 1253 3523 
Q 1550 3584 1831 3584 
Q 2591 3584 2966 3190 
Q 3341 2797 3341 1997 
z
" transform="scale(0.015625)"/>
      <path id="DejaVuSans-73" d="M 2834 3397 
L 2834 2853 
Q 2591 2978 2328 3040 
Q 2066 3103 1784 3103 
Q 1356 3103 1142 2972 
Q 928 2841 928 2578 
Q 928 2378 1081 2264 
Q 1234 2150 1697 2047 
L 1894 2003 
Q 2506 1872 2764 1633 
Q 3022 1394 3022 966 
Q 3022 478 2636 193 
Q 2250 -91 1575 -91 
Q 1294 -91 989 -36 
Q 684 19 347 128 
L 347 722 
Q 666 556 975 473 
Q 1284 391 1588 391 
Q 1994 391 2212 530 
Q 2431 669 2431 922 
Q 2431 1156 2273 1281 
Q 2116 1406 1581 1522 
L 1381 1569 
Q 847 1681 609 1914 
Q 372 2147 372 2553 
Q 372 3047 722 3315 
Q 1072 3584 1716 3584 
Q 2034 3584 2315 3537 
Q 2597 3491 2834 3397 
z
" transform="scale(0.015625)"/>
      <path id="DejaVuSans-64" d="M 2906 2969 
L 2906 4863 
L 3481 4863 
L 3481 0 
L 2906 0 
L 2906 525 
Q 2725 213 2448 61 
Q 2172 -91 1784 -91 
Q 1150 -91 751 415 
Q 353 922 353 1747 
Q 353 2572 751 3078 
Q 1150 3584 1784 3584 
Q 2172 3584 2448 3432 
Q 2725 3281 2906 2969 
z
M 947 1747 
Q 947 1113 1208 752 
Q 1469 391 1925 391 
Q 2381 391 2643 752 
Q 2906 1113 2906 1747 
Q 2906 2381 2643 2742 
Q 2381 3103 1925 3103 
Q 1469 3103 1208 2742 
Q 947 2381 947 1747 
z
" transform="scale(0.015625)"/>
      <path id="DejaVuSans-5f" d="M 3263 -1063 
L 3263 -1509 
L -63 -1509 
L -63 -1063 
L 3263 -1063 
z
" transform="scale(0.015625)"/>
      <path id="DejaVuSans-42" d="M 1259 2228 
L 1259 519 
L 2272 519 
Q 2781 519 3026 730 
Q 3272 941 3272 1375 
Q 3272 1813 3026 2020 
Q 2781 2228 2272 2228 
L 1259 2228 
z
M 1259 4147 
L 1259 2741 
L 2194 2741 
Q 2656 2741 2882 2914 
Q 3109 3088 3109 3444 
Q 3109 3797 2882 3972 
Q 2656 4147 2194 4147 
L 1259 4147 
z
M 628 4666 
L 2241 4666 
Q 2963 4666 3353 4366 
Q 3744 4066 3744 3513 
Q 3744 3084 3544 2831 
Q 3344 2578 2956 2516 
Q 3422 2416 3680 2098 
Q 3938 1781 3938 1306 
Q 3938 681 3513 340 
Q 3088 0 2303 0 
L 628 0 
L 628 4666 
z
" transform="scale(0.015625)"/>
     </defs>
     <use xlink:href="#DejaVuSans-62"/>
     <use xlink:href="#DejaVuSans-69" x="63.476562"/>
     <use xlink:href="#DejaVuSans-61" x="91.259766"/>
     <use xlink:href="#DejaVuSans-73" x="152.539062"/>
     <use xlink:href="#DejaVuSans-65" x="204.638672"/>
     <use xlink:href="#DejaVuSans-64" x="266.162109"/>
     <use xlink:href="#DejaVuSans-5f" x="329.638672"/>
     <use xlink:href="#DejaVuSans-42" x="379.638672"/>
    </g>
   </g>
   <g id="legend_1">
    <g id="patch_9">
     <path d="M 64.6 78.82825 
L 120.684375 78.82825 
Q 122.684375 78.82825 122.684375 76.82825 
L 122.684375 48.472 
Q 122.684375 46.472 120.684375 46.472 
L 64.6 46.472 
Q 62.6 46.472 62.6 48.472 
L 62.6 76.82825 
Q 62.6 78.82825 64.6 78.82825 
z
" style="fill: #ffffff; opacity: 0.8; stroke: #cccccc; stroke-linejoin: miter"/>
    </g>
    <g id="line2d_58">
     <path d="M 66.6 54.570437 
L 76.6 54.570437 
L 86.6 54.570437 
" style="fill: none; stroke: #1f77b4; stroke-width: 1.5; stroke-linecap: square"/>
    </g>
    <g id="text_19">
     <!-- coop -->
     <g transform="translate(94.6 58.070437) scale(0.1 -0.1)">
      <use xlink:href="#DejaVuSans-63"/>
      <use xlink:href="#DejaVuSans-6f" x="54.980469"/>
      <use xlink:href="#DejaVuSans-6f" x="116.162109"/>
      <use xlink:href="#DejaVuSans-70" x="177.34375"/>
     </g>
    </g>
    <g id="line2d_59">
     <path d="M 66.6 69.248562 
L 76.6 69.248562 
L 86.6 69.248562 
" style="fill: none; stroke: #ff0000; stroke-width: 1.5; stroke-linecap: square"/>
    </g>
    <g id="text_20">
     <!-- host -->
     <g transform="translate(94.6 72.748562) scale(0.1 -0.1)">
      <defs>
       <path id="DejaVuSans-68" d="M 3513 2113 
L 3513 0 
L 2938 0 
L 2938 2094 
Q 2938 2591 2744 2837 
Q 2550 3084 2163 3084 
Q 1697 3084 1428 2787 
Q 1159 2491 1159 1978 
L 1159 0 
L 581 0 
L 581 4863 
L 1159 4863 
L 1159 2956 
Q 1366 3272 1645 3428 
Q 1925 3584 2291 3584 
Q 2894 3584 3203 3211 
Q 3513 2838 3513 2113 
z
" transform="scale(0.015625)"/>
      </defs>
      <use xlink:href="#DejaVuSans-68"/>
      <use xlink:href="#DejaVuSans-6f" x="63.378906"/>
      <use xlink:href="#DejaVuSans-73" x="124.560547"/>
      <use xlink:href="#DejaVuSans-74" x="176.660156"/>
     </g>
    </g>
   </g>
  </g>
 </g>
 <defs>
  <clipPath id="p3f2316ec89">
   <rect x="57.6" y="41.472" width="357.12" height="266.112"/>
  </clipPath>
 </defs>
</svg>
