<?xml version="1.0" encoding="utf-8" standalone="no"?>
<!DOCTYPE svg PUBLIC "-//W3C//DTD SVG 1.1//EN"
  "http://www.w3.org/Graphics/SVG/1.1/DTD/svg11.dtd">
<svg xmlns:xlink="http://www.w3.org/1999/xlink" width="460.8pt" height="345.6pt" viewBox="0 0 460.8 345.6" xmlns="http://www.w3.org/2000/svg" version="1.1">
 <metadata>
  <rdf:RDF xmlns:dc="http://purl.org/dc/elements/1.1/" xmlns:cc="http://creativecommons.org/ns#" xmlns:rdf="http://www.w3.org/1999/02/22-rdf-syntax-ns#">
   <cc:Work>
    <dc:type rdf:resource="http://purl.org/dc/dcmitype/StillImage"/>
    <dc:date>2024-06-18T15:37:00.786506</dc:date>
    <dc:format>image/svg+xml</dc:format>
    <dc:creator>
     <cc:Agent>
      <dc:title>Matplotlib v3.7.2, https://matplotlib.org/</dc:title>
     </cc:Agent>
    </dc:creator>
   </cc:Work>
  </rdf:RDF>
 </metadata>
 <defs>
  <style type="text/css">*{stroke-linejoin: round; stroke-linecap: butt}</style>
 </defs>
 <g id="figure_1">
  <g id="patch_1">
   <path d="M 0 345.6 
L 460.8 345.6 
L 460.8 0 
L 0 0 
z
" style="fill: #ffffff"/>
  </g>
  <g id="axes_1">
   <g id="patch_2">
    <path d="M 57.6 307.584 
L 414.72 307.584 
L 414.72 41.472 
L 57.6 41.472 
z
" style="fill: #ffffff"/>
   </g>
   <g id="patch_3">
    <path d="M 73.832727 307.584 
L 73.832727 41.472 
L 236.16 41.472 
L 236.16 307.584 
z
" clip-path="url(#pe52b885bd5)" style="fill: #add8e6; opacity: 0.2"/>
   </g>
   <g id="patch_4">
    <path d="M 236.16 307.584 
L 236.16 41.472 
L 398.487273 41.472 
L 398.487273 307.584 
z
" clip-path="url(#pe52b885bd5)" style="fill: #ff7f50; opacity: 0.2"/>
   </g>
   <g id="matplotlib.axis_1">
    <g id="xtick_1">
     <g id="line2d_1">
      <defs>
       <path id="md024a41a55" d="M 0 0 
L 0 3.5 
" style="stroke: #000000; stroke-width: 0.8"/>
      </defs>
      <g>
       <use xlink:href="#md024a41a55" x="73.832727" y="307.584" style="stroke: #000000; stroke-width: 0.8"/>
      </g>
     </g>
     <g id="text_1">
      <!-- 0 -->
      <g transform="translate(70.651477 322.182437) scale(0.1 -0.1)">
       <defs>
        <path id="DejaVuSans-30" d="M 2034 4250 
Q 1547 4250 1301 3770 
Q 1056 3291 1056 2328 
Q 1056 1369 1301 889 
Q 1547 409 2034 409 
Q 2525 409 2770 889 
Q 3016 1369 3016 2328 
Q 3016 3291 2770 3770 
Q 2525 4250 2034 4250 
z
M 2034 4750 
Q 2819 4750 3233 4129 
Q 3647 3509 3647 2328 
Q 3647 1150 3233 529 
Q 2819 -91 2034 -91 
Q 1250 -91 836 529 
Q 422 1150 422 2328 
Q 422 3509 836 4129 
Q 1250 4750 2034 4750 
z
" transform="scale(0.015625)"/>
       </defs>
       <use xlink:href="#DejaVuSans-30"/>
      </g>
     </g>
    </g>
    <g id="xtick_2">
     <g id="line2d_2">
      <g>
       <use xlink:href="#md024a41a55" x="114.414545" y="307.584" style="stroke: #000000; stroke-width: 0.8"/>
      </g>
     </g>
     <g id="text_2">
      <!-- 5 -->
      <g transform="translate(111.233295 322.182437) scale(0.1 -0.1)">
       <defs>
        <path id="DejaVuSans-35" d="M 691 4666 
L 3169 4666 
L 3169 4134 
L 1269 4134 
L 1269 2991 
Q 1406 3038 1543 3061 
Q 1681 3084 1819 3084 
Q 2600 3084 3056 2656 
Q 3513 2228 3513 1497 
Q 3513 744 3044 326 
Q 2575 -91 1722 -91 
Q 1428 -91 1123 -41 
Q 819 9 494 109 
L 494 744 
Q 775 591 1075 516 
Q 1375 441 1709 441 
Q 2250 441 2565 725 
Q 2881 1009 2881 1497 
Q 2881 1984 2565 2268 
Q 2250 2553 1709 2553 
Q 1456 2553 1204 2497 
Q 953 2441 691 2322 
L 691 4666 
z
" transform="scale(0.015625)"/>
       </defs>
       <use xlink:href="#DejaVuSans-35"/>
      </g>
     </g>
    </g>
    <g id="xtick_3">
     <g id="line2d_3">
      <g>
       <use xlink:href="#md024a41a55" x="154.996364" y="307.584" style="stroke: #000000; stroke-width: 0.8"/>
      </g>
     </g>
     <g id="text_3">
      <!-- 10 -->
      <g transform="translate(148.633864 322.182437) scale(0.1 -0.1)">
       <defs>
        <path id="DejaVuSans-31" d="M 794 531 
L 1825 531 
L 1825 4091 
L 703 3866 
L 703 4441 
L 1819 4666 
L 2450 4666 
L 2450 531 
L 3481 531 
L 3481 0 
L 794 0 
L 794 531 
z
" transform="scale(0.015625)"/>
       </defs>
       <use xlink:href="#DejaVuSans-31"/>
       <use xlink:href="#DejaVuSans-30" x="63.623047"/>
      </g>
     </g>
    </g>
    <g id="xtick_4">
     <g id="line2d_4">
      <g>
       <use xlink:href="#md024a41a55" x="195.578182" y="307.584" style="stroke: #000000; stroke-width: 0.8"/>
      </g>
     </g>
     <g id="text_4">
      <!-- 15 -->
      <g transform="translate(189.215682 322.182437) scale(0.1 -0.1)">
       <use xlink:href="#DejaVuSans-31"/>
       <use xlink:href="#DejaVuSans-35" x="63.623047"/>
      </g>
     </g>
    </g>
    <g id="xtick_5">
     <g id="line2d_5">
      <g>
       <use xlink:href="#md024a41a55" x="236.16" y="307.584" style="stroke: #000000; stroke-width: 0.8"/>
      </g>
     </g>
     <g id="text_5">
      <!-- 20 -->
      <g transform="translate(229.7975 322.182437) scale(0.1 -0.1)">
       <defs>
        <path id="DejaVuSans-32" d="M 1228 531 
L 3431 531 
L 3431 0 
L 469 0 
L 469 531 
Q 828 903 1448 1529 
Q 2069 2156 2228 2338 
Q 2531 2678 2651 2914 
Q 2772 3150 2772 3378 
Q 2772 3750 2511 3984 
Q 2250 4219 1831 4219 
Q 1534 4219 1204 4116 
Q 875 4013 500 3803 
L 500 4441 
Q 881 4594 1212 4672 
Q 1544 4750 1819 4750 
Q 2544 4750 2975 4387 
Q 3406 4025 3406 3419 
Q 3406 3131 3298 2873 
Q 3191 2616 2906 2266 
Q 2828 2175 2409 1742 
Q 1991 1309 1228 531 
z
" transform="scale(0.015625)"/>
       </defs>
       <use xlink:href="#DejaVuSans-32"/>
       <use xlink:href="#DejaVuSans-30" x="63.623047"/>
      </g>
     </g>
    </g>
    <g id="xtick_6">
     <g id="line2d_6">
      <g>
       <use xlink:href="#md024a41a55" x="276.741818" y="307.584" style="stroke: #000000; stroke-width: 0.8"/>
      </g>
     </g>
     <g id="text_6">
      <!-- 25 -->
      <g transform="translate(270.379318 322.182437) scale(0.1 -0.1)">
       <use xlink:href="#DejaVuSans-32"/>
       <use xlink:href="#DejaVuSans-35" x="63.623047"/>
      </g>
     </g>
    </g>
    <g id="xtick_7">
     <g id="line2d_7">
      <g>
       <use xlink:href="#md024a41a55" x="317.323636" y="307.584" style="stroke: #000000; stroke-width: 0.8"/>
      </g>
     </g>
     <g id="text_7">
      <!-- 30 -->
      <g transform="translate(310.961136 322.182437) scale(0.1 -0.1)">
       <defs>
        <path id="DejaVuSans-33" d="M 2597 2516 
Q 3050 2419 3304 2112 
Q 3559 1806 3559 1356 
Q 3559 666 3084 287 
Q 2609 -91 1734 -91 
Q 1441 -91 1130 -33 
Q 819 25 488 141 
L 488 750 
Q 750 597 1062 519 
Q 1375 441 1716 441 
Q 2309 441 2620 675 
Q 2931 909 2931 1356 
Q 2931 1769 2642 2001 
Q 2353 2234 1838 2234 
L 1294 2234 
L 1294 2753 
L 1863 2753 
Q 2328 2753 2575 2939 
Q 2822 3125 2822 3475 
Q 2822 3834 2567 4026 
Q 2313 4219 1838 4219 
Q 1578 4219 1281 4162 
Q 984 4106 628 3988 
L 628 4550 
Q 988 4650 1302 4700 
Q 1616 4750 1894 4750 
Q 2613 4750 3031 4423 
Q 3450 4097 3450 3541 
Q 3450 3153 3228 2886 
Q 3006 2619 2597 2516 
z
" transform="scale(0.015625)"/>
       </defs>
       <use xlink:href="#DejaVuSans-33"/>
       <use xlink:href="#DejaVuSans-30" x="63.623047"/>
      </g>
     </g>
    </g>
    <g id="xtick_8">
     <g id="line2d_8">
      <g>
       <use xlink:href="#md024a41a55" x="357.905455" y="307.584" style="stroke: #000000; stroke-width: 0.8"/>
      </g>
     </g>
     <g id="text_8">
      <!-- 35 -->
      <g transform="translate(351.542955 322.182437) scale(0.1 -0.1)">
       <use xlink:href="#DejaVuSans-33"/>
       <use xlink:href="#DejaVuSans-35" x="63.623047"/>
      </g>
     </g>
    </g>
    <g id="xtick_9">
     <g id="line2d_9">
      <g>
       <use xlink:href="#md024a41a55" x="398.487273" y="307.584" style="stroke: #000000; stroke-width: 0.8"/>
      </g>
     </g>
     <g id="text_9">
      <!-- 40 -->
      <g transform="translate(392.124773 322.182437) scale(0.1 -0.1)">
       <defs>
        <path id="DejaVuSans-34" d="M 2419 4116 
L 825 1625 
L 2419 1625 
L 2419 4116 
z
M 2253 4666 
L 3047 4666 
L 3047 1625 
L 3713 1625 
L 3713 1100 
L 3047 1100 
L 3047 0 
L 2419 0 
L 2419 1100 
L 313 1100 
L 313 1709 
L 2253 4666 
z
" transform="scale(0.015625)"/>
       </defs>
       <use xlink:href="#DejaVuSans-34"/>
       <use xlink:href="#DejaVuSans-30" x="63.623047"/>
      </g>
     </g>
    </g>
    <g id="text_10">
     <!-- t -->
     <g transform="translate(234.199844 335.860562) scale(0.1 -0.1)">
      <defs>
       <path id="DejaVuSans-74" d="M 1172 4494 
L 1172 3500 
L 2356 3500 
L 2356 3053 
L 1172 3053 
L 1172 1153 
Q 1172 725 1289 603 
Q 1406 481 1766 481 
L 2356 481 
L 2356 0 
L 1766 0 
Q 1100 0 847 248 
Q 594 497 594 1153 
L 594 3053 
L 172 3053 
L 172 3500 
L 594 3500 
L 594 4494 
L 1172 4494 
z
" transform="scale(0.015625)"/>
      </defs>
      <use xlink:href="#DejaVuSans-74"/>
     </g>
    </g>
   </g>
   <g id="matplotlib.axis_2">
    <g id="ytick_1">
     <g id="line2d_10">
      <defs>
       <path id="m080627edcd" d="M 0 0 
L -3.5 0 
" style="stroke: #000000; stroke-width: 0.8"/>
      </defs>
      <g>
       <use xlink:href="#m080627edcd" x="57.6" y="307.584" style="stroke: #000000; stroke-width: 0.8"/>
      </g>
     </g>
     <g id="text_11">
      <!-- 0.0 -->
      <g transform="translate(34.696875 311.383219) scale(0.1 -0.1)">
       <defs>
        <path id="DejaVuSans-2e" d="M 684 794 
L 1344 794 
L 1344 0 
L 684 0 
L 684 794 
z
" transform="scale(0.015625)"/>
       </defs>
       <use xlink:href="#DejaVuSans-30"/>
       <use xlink:href="#DejaVuSans-2e" x="63.623047"/>
       <use xlink:href="#DejaVuSans-30" x="95.410156"/>
      </g>
     </g>
    </g>
    <g id="ytick_2">
     <g id="line2d_11">
      <g>
       <use xlink:href="#m080627edcd" x="57.6" y="254.3616" style="stroke: #000000; stroke-width: 0.8"/>
      </g>
     </g>
     <g id="text_12">
      <!-- 0.2 -->
      <g transform="translate(34.696875 258.160819) scale(0.1 -0.1)">
       <use xlink:href="#DejaVuSans-30"/>
       <use xlink:href="#DejaVuSans-2e" x="63.623047"/>
       <use xlink:href="#DejaVuSans-32" x="95.410156"/>
      </g>
     </g>
    </g>
    <g id="ytick_3">
     <g id="line2d_12">
      <g>
       <use xlink:href="#m080627edcd" x="57.6" y="201.1392" style="stroke: #000000; stroke-width: 0.8"/>
      </g>
     </g>
     <g id="text_13">
      <!-- 0.4 -->
      <g transform="translate(34.696875 204.938419) scale(0.1 -0.1)">
       <use xlink:href="#DejaVuSans-30"/>
       <use xlink:href="#DejaVuSans-2e" x="63.623047"/>
       <use xlink:href="#DejaVuSans-34" x="95.410156"/>
      </g>
     </g>
    </g>
    <g id="ytick_4">
     <g id="line2d_13">
      <g>
       <use xlink:href="#m080627edcd" x="57.6" y="147.9168" style="stroke: #000000; stroke-width: 0.8"/>
      </g>
     </g>
     <g id="text_14">
      <!-- 0.6 -->
      <g transform="translate(34.696875 151.716019) scale(0.1 -0.1)">
       <defs>
        <path id="DejaVuSans-36" d="M 2113 2584 
Q 1688 2584 1439 2293 
Q 1191 2003 1191 1497 
Q 1191 994 1439 701 
Q 1688 409 2113 409 
Q 2538 409 2786 701 
Q 3034 994 3034 1497 
Q 3034 2003 2786 2293 
Q 2538 2584 2113 2584 
z
M 3366 4563 
L 3366 3988 
Q 3128 4100 2886 4159 
Q 2644 4219 2406 4219 
Q 1781 4219 1451 3797 
Q 1122 3375 1075 2522 
Q 1259 2794 1537 2939 
Q 1816 3084 2150 3084 
Q 2853 3084 3261 2657 
Q 3669 2231 3669 1497 
Q 3669 778 3244 343 
Q 2819 -91 2113 -91 
Q 1303 -91 875 529 
Q 447 1150 447 2328 
Q 447 3434 972 4092 
Q 1497 4750 2381 4750 
Q 2619 4750 2861 4703 
Q 3103 4656 3366 4563 
z
" transform="scale(0.015625)"/>
       </defs>
       <use xlink:href="#DejaVuSans-30"/>
       <use xlink:href="#DejaVuSans-2e" x="63.623047"/>
       <use xlink:href="#DejaVuSans-36" x="95.410156"/>
      </g>
     </g>
    </g>
    <g id="ytick_5">
     <g id="line2d_14">
      <g>
       <use xlink:href="#m080627edcd" x="57.6" y="94.6944" style="stroke: #000000; stroke-width: 0.8"/>
      </g>
     </g>
     <g id="text_15">
      <!-- 0.8 -->
      <g transform="translate(34.696875 98.493619) scale(0.1 -0.1)">
       <defs>
        <path id="DejaVuSans-38" d="M 2034 2216 
Q 1584 2216 1326 1975 
Q 1069 1734 1069 1313 
Q 1069 891 1326 650 
Q 1584 409 2034 409 
Q 2484 409 2743 651 
Q 3003 894 3003 1313 
Q 3003 1734 2745 1975 
Q 2488 2216 2034 2216 
z
M 1403 2484 
Q 997 2584 770 2862 
Q 544 3141 544 3541 
Q 544 4100 942 4425 
Q 1341 4750 2034 4750 
Q 2731 4750 3128 4425 
Q 3525 4100 3525 3541 
Q 3525 3141 3298 2862 
Q 3072 2584 2669 2484 
Q 3125 2378 3379 2068 
Q 3634 1759 3634 1313 
Q 3634 634 3220 271 
Q 2806 -91 2034 -91 
Q 1263 -91 848 271 
Q 434 634 434 1313 
Q 434 1759 690 2068 
Q 947 2378 1403 2484 
z
M 1172 3481 
Q 1172 3119 1398 2916 
Q 1625 2713 2034 2713 
Q 2441 2713 2670 2916 
Q 2900 3119 2900 3481 
Q 2900 3844 2670 4047 
Q 2441 4250 2034 4250 
Q 1625 4250 1398 4047 
Q 1172 3844 1172 3481 
z
" transform="scale(0.015625)"/>
       </defs>
       <use xlink:href="#DejaVuSans-30"/>
       <use xlink:href="#DejaVuSans-2e" x="63.623047"/>
       <use xlink:href="#DejaVuSans-38" x="95.410156"/>
      </g>
     </g>
    </g>
    <g id="ytick_6">
     <g id="line2d_15">
      <g>
       <use xlink:href="#m080627edcd" x="57.6" y="41.472" style="stroke: #000000; stroke-width: 0.8"/>
      </g>
     </g>
     <g id="text_16">
      <!-- 1.0 -->
      <g transform="translate(34.696875 45.271219) scale(0.1 -0.1)">
       <use xlink:href="#DejaVuSans-31"/>
       <use xlink:href="#DejaVuSans-2e" x="63.623047"/>
       <use xlink:href="#DejaVuSans-30" x="95.410156"/>
      </g>
     </g>
    </g>
    <g id="text_17">
     <!-- p(context) -->
     <g transform="translate(28.617187 200.449875) rotate(-90) scale(0.1 -0.1)">
      <defs>
       <path id="DejaVuSans-70" d="M 1159 525 
L 1159 -1331 
L 581 -1331 
L 581 3500 
L 1159 3500 
L 1159 2969 
Q 1341 3281 1617 3432 
Q 1894 3584 2278 3584 
Q 2916 3584 3314 3078 
Q 3713 2572 3713 1747 
Q 3713 922 3314 415 
Q 2916 -91 2278 -91 
Q 1894 -91 1617 61 
Q 1341 213 1159 525 
z
M 3116 1747 
Q 3116 2381 2855 2742 
Q 2594 3103 2138 3103 
Q 1681 3103 1420 2742 
Q 1159 2381 1159 1747 
Q 1159 1113 1420 752 
Q 1681 391 2138 391 
Q 2594 391 2855 752 
Q 3116 1113 3116 1747 
z
" transform="scale(0.015625)"/>
       <path id="DejaVuSans-28" d="M 1984 4856 
Q 1566 4138 1362 3434 
Q 1159 2731 1159 2009 
Q 1159 1288 1364 580 
Q 1569 -128 1984 -844 
L 1484 -844 
Q 1016 -109 783 600 
Q 550 1309 550 2009 
Q 550 2706 781 3412 
Q 1013 4119 1484 4856 
L 1984 4856 
z
" transform="scale(0.015625)"/>
       <path id="DejaVuSans-63" d="M 3122 3366 
L 3122 2828 
Q 2878 2963 2633 3030 
Q 2388 3097 2138 3097 
Q 1578 3097 1268 2742 
Q 959 2388 959 1747 
Q 959 1106 1268 751 
Q 1578 397 2138 397 
Q 2388 397 2633 464 
Q 2878 531 3122 666 
L 3122 134 
Q 2881 22 2623 -34 
Q 2366 -91 2075 -91 
Q 1284 -91 818 406 
Q 353 903 353 1747 
Q 353 2603 823 3093 
Q 1294 3584 2113 3584 
Q 2378 3584 2631 3529 
Q 2884 3475 3122 3366 
z
" transform="scale(0.015625)"/>
       <path id="DejaVuSans-6f" d="M 1959 3097 
Q 1497 3097 1228 2736 
Q 959 2375 959 1747 
Q 959 1119 1226 758 
Q 1494 397 1959 397 
Q 2419 397 2687 759 
Q 2956 1122 2956 1747 
Q 2956 2369 2687 2733 
Q 2419 3097 1959 3097 
z
M 1959 3584 
Q 2709 3584 3137 3096 
Q 3566 2609 3566 1747 
Q 3566 888 3137 398 
Q 2709 -91 1959 -91 
Q 1206 -91 779 398 
Q 353 888 353 1747 
Q 353 2609 779 3096 
Q 1206 3584 1959 3584 
z
" transform="scale(0.015625)"/>
       <path id="DejaVuSans-6e" d="M 3513 2113 
L 3513 0 
L 2938 0 
L 2938 2094 
Q 2938 2591 2744 2837 
Q 2550 3084 2163 3084 
Q 1697 3084 1428 2787 
Q 1159 2491 1159 1978 
L 1159 0 
L 581 0 
L 581 3500 
L 1159 3500 
L 1159 2956 
Q 1366 3272 1645 3428 
Q 1925 3584 2291 3584 
Q 2894 3584 3203 3211 
Q 3513 2838 3513 2113 
z
" transform="scale(0.015625)"/>
       <path id="DejaVuSans-65" d="M 3597 1894 
L 3597 1613 
L 953 1613 
Q 991 1019 1311 708 
Q 1631 397 2203 397 
Q 2534 397 2845 478 
Q 3156 559 3463 722 
L 3463 178 
Q 3153 47 2828 -22 
Q 2503 -91 2169 -91 
Q 1331 -91 842 396 
Q 353 884 353 1716 
Q 353 2575 817 3079 
Q 1281 3584 2069 3584 
Q 2775 3584 3186 3129 
Q 3597 2675 3597 1894 
z
M 3022 2063 
Q 3016 2534 2758 2815 
Q 2500 3097 2075 3097 
Q 1594 3097 1305 2825 
Q 1016 2553 972 2059 
L 3022 2063 
z
" transform="scale(0.015625)"/>
       <path id="DejaVuSans-78" d="M 3513 3500 
L 2247 1797 
L 3578 0 
L 2900 0 
L 1881 1375 
L 863 0 
L 184 0 
L 1544 1831 
L 300 3500 
L 978 3500 
L 1906 2253 
L 2834 3500 
L 3513 3500 
z
" transform="scale(0.015625)"/>
       <path id="DejaVuSans-29" d="M 513 4856 
L 1013 4856 
Q 1481 4119 1714 3412 
Q 1947 2706 1947 2009 
Q 1947 1309 1714 600 
Q 1481 -109 1013 -844 
L 513 -844 
Q 928 -128 1133 580 
Q 1338 1288 1338 2009 
Q 1338 2731 1133 3434 
Q 928 4138 513 4856 
z
" transform="scale(0.015625)"/>
      </defs>
      <use xlink:href="#DejaVuSans-70"/>
      <use xlink:href="#DejaVuSans-28" x="63.476562"/>
      <use xlink:href="#DejaVuSans-63" x="102.490234"/>
      <use xlink:href="#DejaVuSans-6f" x="157.470703"/>
      <use xlink:href="#DejaVuSans-6e" x="218.652344"/>
      <use xlink:href="#DejaVuSans-74" x="282.03125"/>
      <use xlink:href="#DejaVuSans-65" x="321.240234"/>
      <use xlink:href="#DejaVuSans-78" x="381.013672"/>
      <use xlink:href="#DejaVuSans-74" x="440.193359"/>
      <use xlink:href="#DejaVuSans-29" x="479.402344"/>
     </g>
    </g>
   </g>
   <g id="line2d_16">
    <path d="M 73.832727 201.1392 
L 81.949091 194.136253 
L 90.065455 194.04249 
L 98.181818 287.185733 
L 106.298182 219.231071 
L 114.414545 285.344268 
L 122.530909 267.420554 
L 130.647273 263.650855 
L 138.763636 263.273886 
L 146.88 263.236189 
L 154.996364 263.232419 
L 163.112727 263.232042 
L 171.229091 263.232004 
L 179.345455 263.232 
L 187.461818 263.232 
L 195.578182 263.232 
L 203.694545 263.232 
L 211.810909 263.232 
L 219.927273 263.232 
L 228.043636 263.232 
L 236.16 263.232 
L 244.276364 263.232 
L 252.392727 263.232 
L 260.509091 263.232 
L 268.625455 263.232 
L 276.741818 263.232 
L 284.858182 263.232 
L 292.974545 263.232 
L 301.090909 263.232 
L 309.207273 263.232 
L 317.323636 263.232 
L 325.44 263.232 
L 333.556364 263.232 
L 341.672727 263.232 
L 349.789091 263.232 
L 357.905455 263.232 
L 366.021818 263.232 
L 374.138182 263.232 
L 382.254545 263.232 
L 390.370909 263.232 
" clip-path="url(#pe52b885bd5)" style="fill: none; stroke: #add8e6; stroke-opacity: 0.3; stroke-width: 1.5; stroke-linecap: square"/>
   </g>
   <g id="line2d_17">
    <path d="M 73.832727 201.1392 
L 81.949091 290.16576 
L 90.065455 216.425957 
L 98.181818 204.619235 
L 106.298182 285.807525 
L 114.414545 226.400137 
L 122.530909 284.216004 
L 130.647273 267.255836 
L 138.763636 263.634384 
L 146.88 263.272238 
L 154.996364 263.236024 
L 163.112727 263.232402 
L 171.229091 263.23204 
L 179.345455 263.232004 
L 187.461818 263.232 
L 195.578182 263.232 
L 203.694545 263.232 
L 211.810909 263.232 
L 219.927273 263.232 
L 228.043636 263.232 
L 236.16 263.232 
L 244.276364 263.232 
L 252.392727 263.232 
L 260.509091 263.232 
L 268.625455 263.232 
L 276.741818 263.232 
L 284.858182 263.232 
L 292.974545 263.232 
L 301.090909 263.232 
L 309.207273 263.232 
L 317.323636 263.232 
L 325.44 263.232 
L 333.556364 263.232 
L 341.672727 263.232 
L 349.789091 263.232 
L 357.905455 263.232 
L 366.021818 263.232 
L 374.138182 263.232 
L 382.254545 263.232 
L 390.370909 263.232 
" clip-path="url(#pe52b885bd5)" style="fill: none; stroke: #add8e6; stroke-opacity: 0.3; stroke-width: 1.5; stroke-linecap: square"/>
   </g>
   <g id="line2d_18">
    <path d="M 73.832727 201.1392 
L 81.949091 194.136253 
L 90.065455 286.676753 
L 98.181818 214.736413 
L 106.298182 204.278532 
L 114.414545 284.379202 
L 122.530909 267.405168 
L 130.647273 263.649317 
L 138.763636 263.273732 
L 146.88 263.236173 
L 154.996364 263.232417 
L 163.112727 263.232042 
L 171.229091 263.232004 
L 179.345455 263.232 
L 187.461818 263.232 
L 195.578182 263.232 
L 203.694545 263.232 
L 211.810909 263.232 
L 219.927273 263.232 
L 228.043636 263.232 
L 236.16 263.232 
L 244.276364 263.232 
L 252.392727 263.232 
L 260.509091 263.232 
L 268.625455 263.232 
L 276.741818 263.232 
L 284.858182 263.232 
L 292.974545 263.232 
L 301.090909 263.232 
L 309.207273 263.232 
L 317.323636 263.232 
L 325.44 263.232 
L 333.556364 263.232 
L 341.672727 263.232 
L 349.789091 263.232 
L 357.905455 263.232 
L 366.021818 263.232 
L 374.138182 263.232 
L 382.254545 263.232 
L 390.370909 263.232 
" clip-path="url(#pe52b885bd5)" style="fill: none; stroke: #add8e6; stroke-opacity: 0.3; stroke-width: 1.5; stroke-linecap: square"/>
   </g>
   <g id="line2d_19">
    <path d="M 73.832727 201.1392 
L 81.949091 194.136253 
L 90.065455 194.04249 
L 98.181818 287.185733 
L 106.298182 219.231071 
L 114.414545 207.621802 
L 122.530909 284.966581 
L 130.647273 267.857646 
L 138.763636 288.940234 
L 146.88 268.617726 
L 154.996364 288.978761 
L 163.112727 268.625096 
L 171.229091 288.979134 
L 179.345455 268.625167 
L 187.461818 288.979138 
L 195.578182 268.625168 
L 203.694545 216.516214 
L 211.810909 210.464939 
L 219.927273 213.109118 
L 228.043636 215.756766 
L 236.16 256.105936 
L 244.276364 227.87148 
L 252.392727 285.23534 
L 260.509091 292.02225 
L 268.625455 270.271324 
L 276.741818 289.4744 
L 284.858182 269.783173 
L 292.974545 289.449789 
L 301.090909 269.778458 
L 309.207273 289.449552 
L 317.323636 269.778412 
L 325.44 289.449549 
L 333.556364 269.778412 
L 341.672727 289.449549 
L 349.789091 269.778412 
L 357.905455 289.449549 
L 366.021818 269.778412 
L 374.138182 225.964666 
L 382.254545 218.745774 
L 390.370909 220.324057 
" clip-path="url(#pe52b885bd5)" style="fill: none; stroke: #add8e6; stroke-opacity: 0.3; stroke-width: 1.5; stroke-linecap: square"/>
   </g>
   <g id="line2d_20">
    <path d="M 73.832727 201.1392 
L 81.949091 194.136253 
L 90.065455 194.04249 
L 98.181818 198.357597 
L 106.298182 202.314373 
L 114.414545 205.838285 
L 122.530909 208.968671 
L 130.647273 211.748287 
L 138.763636 289.887277 
L 146.88 234.793558 
L 154.996364 218.545175 
L 163.112727 287.750618 
L 171.229091 294.40453 
L 179.345455 238.800116 
L 187.461818 222.169104 
L 195.578182 223.157943 
L 203.694545 224.643265 
L 211.810909 226.02348 
L 219.927273 227.289765 
L 228.043636 228.453147 
L 236.16 256.43078 
L 244.276364 237.521196 
L 252.392727 287.420035 
L 260.509091 249.288797 
L 268.625455 286.362817 
L 276.741818 292.994619 
L 284.858182 271.442036 
L 292.974545 290.001389 
L 301.090909 270.871902 
L 309.207273 289.972926 
L 317.323636 270.86648 
L 325.44 289.972655 
L 333.556364 270.866429 
L 341.672727 237.465554 
L 349.789091 285.878157 
L 357.905455 269.767586 
L 366.021818 263.885559 
L 374.138182 263.297356 
L 382.254545 263.238536 
L 390.370909 263.232654 
" clip-path="url(#pe52b885bd5)" style="fill: none; stroke: #add8e6; stroke-opacity: 0.3; stroke-width: 1.5; stroke-linecap: square"/>
   </g>
   <g id="line2d_21">
    <path d="M 73.832727 201.1392 
L 81.949091 194.136253 
L 90.065455 194.04249 
L 98.181818 198.357597 
L 106.298182 202.314373 
L 114.414545 205.838285 
L 122.530909 208.968671 
L 130.647273 211.748287 
L 138.763636 214.218114 
L 146.88 216.415837 
L 154.996364 218.375256 
L 163.112727 220.126219 
L 171.229091 221.694823 
L 179.345455 291.736135 
L 187.461818 244.946511 
L 195.578182 290.234195 
L 203.694545 244.008568 
L 211.810909 227.02201 
L 219.927273 288.040343 
L 228.043636 245.972691 
L 236.16 257.705099 
L 244.276364 234.970305 
L 252.392727 229.823365 
L 260.509091 285.741588 
L 268.625455 269.553457 
L 276.741818 289.24212 
L 284.858182 270.213633 
L 292.974545 237.12492 
L 301.090909 285.365879 
L 309.207273 269.183293 
L 317.323636 263.827129 
L 325.44 263.291513 
L 333.556364 263.237951 
L 341.672727 263.232595 
L 349.789091 263.23206 
L 357.905455 263.232006 
L 366.021818 263.232001 
L 374.138182 263.232 
L 382.254545 263.232 
L 390.370909 263.232 
" clip-path="url(#pe52b885bd5)" style="fill: none; stroke: #add8e6; stroke-opacity: 0.3; stroke-width: 1.5; stroke-linecap: square"/>
   </g>
   <g id="line2d_22">
    <path d="M 73.832727 201.1392 
L 81.949091 194.136253 
L 90.065455 194.04249 
L 98.181818 198.357597 
L 106.298182 202.314373 
L 114.414545 205.838285 
L 122.530909 208.968671 
L 130.647273 211.748287 
L 138.763636 214.218114 
L 146.88 216.415837 
L 154.996364 218.375256 
L 163.112727 220.126219 
L 171.229091 221.694823 
L 179.345455 223.103749 
L 187.461818 224.372646 
L 195.578182 225.51851 
L 203.694545 226.556037 
L 211.810909 227.497948 
L 219.927273 228.355264 
L 228.043636 229.137556 
L 236.16 255.216354 
L 244.276364 297.184173 
L 252.392727 301.131938 
L 260.509091 301.463971 
L 268.625455 255.606282 
L 276.741818 293.735571 
L 284.858182 252.089425 
L 292.974545 231.073157 
L 301.090909 291.717145 
L 309.207273 298.455207 
L 317.323636 299.085134 
L 325.44 252.820188 
L 333.556364 231.104309 
L 341.672727 290.431384 
L 349.789091 297.297756 
L 357.905455 297.964761 
L 366.021818 251.778455 
L 374.138182 289.937492 
L 382.254545 271.907655 
L 390.370909 264.099566 
" clip-path="url(#pe52b885bd5)" style="fill: none; stroke: #add8e6; stroke-opacity: 0.3; stroke-width: 1.5; stroke-linecap: square"/>
   </g>
   <g id="line2d_23">
    <path d="M 73.832727 201.1392 
L 81.949091 194.136253 
L 90.065455 286.676753 
L 98.181818 292.407787 
L 106.298182 212.621952 
L 114.414545 256.686921 
L 122.530909 262.577492 
L 130.647273 263.166549 
L 138.763636 263.225455 
L 146.88 263.231345 
L 154.996364 263.231935 
L 163.112727 263.231993 
L 171.229091 263.231999 
L 179.345455 263.232 
L 187.461818 263.232 
L 195.578182 263.232 
L 203.694545 263.232 
L 211.810909 263.232 
L 219.927273 263.232 
L 228.043636 263.232 
L 236.16 263.232 
L 244.276364 263.232 
L 252.392727 263.232 
L 260.509091 263.232 
L 268.625455 263.232 
L 276.741818 263.232 
L 284.858182 263.232 
L 292.974545 263.232 
L 301.090909 263.232 
L 309.207273 263.232 
L 317.323636 263.232 
L 325.44 263.232 
L 333.556364 263.232 
L 341.672727 263.232 
L 349.789091 263.232 
L 357.905455 263.232 
L 366.021818 263.232 
L 374.138182 263.232 
L 382.254545 263.232 
L 390.370909 263.232 
" clip-path="url(#pe52b885bd5)" style="fill: none; stroke: #add8e6; stroke-opacity: 0.3; stroke-width: 1.5; stroke-linecap: square"/>
   </g>
   <g id="line2d_24">
    <path d="M 73.832727 201.1392 
L 81.949091 194.136253 
L 90.065455 194.04249 
L 98.181818 198.357597 
L 106.298182 287.850008 
L 114.414545 293.893993 
L 122.530909 221.479591 
L 130.647273 286.228153 
L 138.763636 267.682958 
L 146.88 263.677096 
L 154.996364 263.27651 
L 163.112727 263.236451 
L 171.229091 263.232445 
L 179.345455 263.232045 
L 187.461818 263.232004 
L 195.578182 263.232 
L 203.694545 263.232 
L 211.810909 263.232 
L 219.927273 263.232 
L 228.043636 263.232 
L 236.16 263.232 
L 244.276364 263.232 
L 252.392727 263.232 
L 260.509091 263.232 
L 268.625455 263.232 
L 276.741818 263.232 
L 284.858182 263.232 
L 292.974545 263.232 
L 301.090909 263.232 
L 309.207273 263.232 
L 317.323636 263.232 
L 325.44 263.232 
L 333.556364 263.232 
L 341.672727 263.232 
L 349.789091 263.232 
L 357.905455 263.232 
L 366.021818 263.232 
L 374.138182 263.232 
L 382.254545 263.232 
L 390.370909 263.232 
" clip-path="url(#pe52b885bd5)" style="fill: none; stroke: #add8e6; stroke-opacity: 0.3; stroke-width: 1.5; stroke-linecap: square"/>
   </g>
   <g id="line2d_25">
    <path d="M 73.832727 201.1392 
L 81.949091 290.16576 
L 90.065455 294.045631 
L 98.181818 213.527676 
L 106.298182 200.482956 
L 114.414545 203.584318 
L 122.530909 286.591291 
L 130.647273 226.089272 
L 138.763636 214.285291 
L 146.88 216.244951 
L 154.996364 218.514883 
L 163.112727 220.585525 
L 171.229091 222.458854 
L 179.345455 224.15512 
L 187.461818 225.693535 
L 195.578182 227.091464 
L 203.694545 228.36443 
L 211.810909 229.526223 
L 219.927273 230.589046 
L 228.043636 231.56367 
L 236.16 256.389189 
L 244.276364 291.467732 
L 252.392727 253.674761 
L 260.509091 236.199504 
L 268.625455 286.523837 
L 276.741818 253.624713 
L 284.858182 285.688271 
L 292.974545 292.607192 
L 301.090909 253.527969 
L 309.207273 284.892145 
L 317.323636 269.848838 
L 325.44 242.499085 
L 333.556364 236.467017 
L 341.672727 283.791668 
L 349.789091 269.530175 
L 357.905455 263.861818 
L 366.021818 263.294982 
L 374.138182 263.238298 
L 382.254545 263.23263 
L 390.370909 263.232063 
" clip-path="url(#pe52b885bd5)" style="fill: none; stroke: #add8e6; stroke-opacity: 0.3; stroke-width: 1.5; stroke-linecap: square"/>
   </g>
   <g id="line2d_26">
    <path d="M 73.832727 201.1392 
L 81.949091 194.136253 
L 90.065455 194.04249 
L 98.181818 198.357597 
L 106.298182 202.314373 
L 114.414545 205.838285 
L 122.530909 288.966967 
L 130.647273 295.195271 
L 138.763636 228.586137 
L 146.88 211.995108 
L 154.996364 286.921375 
L 163.112727 232.647963 
L 171.229091 219.216712 
L 179.345455 285.011062 
L 187.461818 268.598648 
L 195.578182 263.768665 
L 203.694545 263.285666 
L 211.810909 263.237367 
L 219.927273 263.232537 
L 228.043636 263.232054 
L 236.16 263.232005 
L 244.276364 263.232001 
L 252.392727 263.232 
L 260.509091 263.232 
L 268.625455 263.232 
L 276.741818 263.232 
L 284.858182 263.232 
L 292.974545 263.232 
L 301.090909 263.232 
L 309.207273 263.232 
L 317.323636 263.232 
L 325.44 263.232 
L 333.556364 263.232 
L 341.672727 263.232 
L 349.789091 263.232 
L 357.905455 263.232 
L 366.021818 263.232 
L 374.138182 263.232 
L 382.254545 263.232 
L 390.370909 263.232 
" clip-path="url(#pe52b885bd5)" style="fill: none; stroke: #add8e6; stroke-opacity: 0.3; stroke-width: 1.5; stroke-linecap: square"/>
   </g>
   <g id="line2d_27">
    <path d="M 73.832727 201.1392 
L 81.949091 194.136253 
L 90.065455 194.04249 
L 98.181818 198.357597 
L 106.298182 287.850008 
L 114.414545 222.815555 
L 122.530909 210.10825 
L 130.647273 285.654927 
L 138.763636 230.746929 
L 146.88 218.871015 
L 154.996364 220.617953 
L 163.112727 222.698422 
L 171.229091 284.129211 
L 179.345455 268.724543 
L 187.461818 288.084792 
L 195.578182 269.450453 
L 203.694545 288.123717 
L 211.810909 269.457596 
L 219.927273 230.775347 
L 228.043636 224.323847 
L 236.16 256.77097 
L 244.276364 287.584197 
L 252.392727 291.685602 
L 260.509091 270.498244 
L 268.625455 263.958624 
L 276.741818 263.304662 
L 284.858182 263.239266 
L 292.974545 263.232727 
L 301.090909 263.232073 
L 309.207273 263.232007 
L 317.323636 263.232001 
L 325.44 263.232 
L 333.556364 263.232 
L 341.672727 263.232 
L 349.789091 263.232 
L 357.905455 263.232 
L 366.021818 263.232 
L 374.138182 263.232 
L 382.254545 263.232 
L 390.370909 263.232 
" clip-path="url(#pe52b885bd5)" style="fill: none; stroke: #add8e6; stroke-opacity: 0.3; stroke-width: 1.5; stroke-linecap: square"/>
   </g>
   <g id="line2d_28">
    <path d="M 73.832727 201.1392 
L 81.949091 194.136253 
L 90.065455 194.04249 
L 98.181818 287.185733 
L 106.298182 219.231071 
L 114.414545 285.344268 
L 122.530909 267.420554 
L 130.647273 263.650855 
L 138.763636 263.273886 
L 146.88 263.236189 
L 154.996364 263.232419 
L 163.112727 263.232042 
L 171.229091 263.232004 
L 179.345455 263.232 
L 187.461818 263.232 
L 195.578182 263.232 
L 203.694545 263.232 
L 211.810909 263.232 
L 219.927273 263.232 
L 228.043636 263.232 
L 236.16 263.232 
L 244.276364 263.232 
L 252.392727 263.232 
L 260.509091 263.232 
L 268.625455 263.232 
L 276.741818 263.232 
L 284.858182 263.232 
L 292.974545 263.232 
L 301.090909 263.232 
L 309.207273 263.232 
L 317.323636 263.232 
L 325.44 263.232 
L 333.556364 263.232 
L 341.672727 263.232 
L 349.789091 263.232 
L 357.905455 263.232 
L 366.021818 263.232 
L 374.138182 263.232 
L 382.254545 263.232 
L 390.370909 263.232 
" clip-path="url(#pe52b885bd5)" style="fill: none; stroke: #add8e6; stroke-opacity: 0.3; stroke-width: 1.5; stroke-linecap: square"/>
   </g>
   <g id="line2d_29">
    <path d="M 73.832727 201.1392 
L 81.949091 194.136253 
L 90.065455 286.676753 
L 98.181818 214.736413 
L 106.298182 204.278532 
L 114.414545 207.46229 
L 122.530909 210.7474 
L 130.647273 213.698782 
L 138.763636 216.335322 
L 146.88 218.690555 
L 154.996364 220.796591 
L 163.112727 222.682825 
L 171.229091 224.375624 
L 179.345455 225.898336 
L 187.461818 227.271473 
L 195.578182 228.51296 
L 203.694545 229.638424 
L 211.810909 230.661466 
L 219.927273 231.593927 
L 228.043636 232.446121 
L 236.16 255.888418 
L 244.276364 292.069663 
L 252.392727 296.838129 
L 260.509091 297.409844 
L 268.625455 297.642551 
L 276.741818 297.818801 
L 284.858182 297.964581 
L 292.974545 298.086462 
L 301.090909 298.188611 
L 309.207273 298.274251 
L 317.323636 298.345948 
L 325.44 298.405775 
L 333.556364 298.455424 
L 341.672727 273.987036 
L 349.789091 295.021445 
L 357.905455 273.240639 
L 366.021818 294.993378 
L 374.138182 273.234539 
L 382.254545 294.993148 
L 390.370909 273.234489 
" clip-path="url(#pe52b885bd5)" style="fill: none; stroke: #add8e6; stroke-opacity: 0.3; stroke-width: 1.5; stroke-linecap: square"/>
   </g>
   <g id="line2d_30">
    <path d="M 73.832727 201.1392 
L 81.949091 194.136253 
L 90.065455 194.04249 
L 98.181818 198.357597 
L 106.298182 287.850008 
L 114.414545 222.815555 
L 122.530909 210.10825 
L 130.647273 212.604696 
L 138.763636 286.036946 
L 146.88 292.527806 
L 154.996364 232.841788 
L 163.112727 284.886311 
L 171.229091 267.912362 
L 179.345455 263.700036 
L 187.461818 263.278804 
L 195.578182 263.23668 
L 203.694545 263.232468 
L 211.810909 263.232047 
L 219.927273 263.232005 
L 228.043636 263.232 
L 236.16 263.232 
L 244.276364 263.232 
L 252.392727 263.232 
L 260.509091 263.232 
L 268.625455 263.232 
L 276.741818 263.232 
L 284.858182 263.232 
L 292.974545 263.232 
L 301.090909 263.232 
L 309.207273 263.232 
L 317.323636 263.232 
L 325.44 263.232 
L 333.556364 263.232 
L 341.672727 263.232 
L 349.789091 263.232 
L 357.905455 263.232 
L 366.021818 263.232 
L 374.138182 263.232 
L 382.254545 263.232 
L 390.370909 263.232 
" clip-path="url(#pe52b885bd5)" style="fill: none; stroke: #add8e6; stroke-opacity: 0.3; stroke-width: 1.5; stroke-linecap: square"/>
   </g>
   <g id="line2d_31">
    <path d="M 73.832727 201.1392 
L 81.949091 290.16576 
L 90.065455 216.425957 
L 98.181818 204.619235 
L 106.298182 207.777248 
L 114.414545 211.038374 
L 122.530909 213.951225 
L 130.647273 287.191943 
L 138.763636 235.063106 
L 146.88 221.634981 
L 154.996364 285.135704 
L 163.112727 239.672074 
L 171.229091 227.519255 
L 179.345455 228.51895 
L 187.461818 283.38626 
L 195.578182 268.712634 
L 203.694545 235.708865 
L 211.810909 229.791378 
L 219.927273 230.831126 
L 228.043636 232.091612 
L 236.16 257.31676 
L 244.276364 286.808421 
L 252.392727 291.308776 
L 260.509091 270.967187 
L 268.625455 287.993737 
L 276.741818 270.372575 
L 284.858182 287.961132 
L 292.974545 270.366726 
L 301.090909 287.960811 
L 309.207273 270.366669 
L 317.323636 287.960808 
L 325.44 270.366668 
L 333.556364 287.960808 
L 341.672727 270.366668 
L 349.789091 287.960808 
L 357.905455 270.366668 
L 366.021818 287.960808 
L 374.138182 270.366668 
L 382.254545 287.960808 
L 390.370909 270.366668 
" clip-path="url(#pe52b885bd5)" style="fill: none; stroke: #add8e6; stroke-opacity: 0.3; stroke-width: 1.5; stroke-linecap: square"/>
   </g>
   <g id="line2d_32">
    <path d="M 73.832727 201.1392 
L 81.949091 194.136253 
L 90.065455 194.04249 
L 98.181818 198.357597 
L 106.298182 202.314373 
L 114.414545 205.838285 
L 122.530909 288.966967 
L 130.647273 229.283031 
L 138.763636 214.64092 
L 146.88 216.574317 
L 154.996364 218.745497 
L 163.112727 220.707965 
L 171.229091 287.77566 
L 179.345455 241.406356 
L 187.461818 286.529321 
L 195.578182 241.546165 
L 203.694545 228.203164 
L 211.810909 228.918176 
L 219.927273 230.167906 
L 228.043636 284.671969 
L 236.16 269.426969 
L 244.276364 287.402716 
L 252.392727 269.628891 
L 260.509091 263.871689 
L 268.625455 287.092982 
L 276.741818 269.573563 
L 284.858182 263.866156 
L 292.974545 287.092673 
L 301.090909 269.573508 
L 309.207273 263.866151 
L 317.323636 287.092672 
L 325.44 269.573508 
L 333.556364 263.866151 
L 341.672727 287.092672 
L 349.789091 269.573508 
L 357.905455 263.866151 
L 366.021818 287.092672 
L 374.138182 269.573508 
L 382.254545 263.866151 
L 390.370909 238.394587 
" clip-path="url(#pe52b885bd5)" style="fill: none; stroke: #add8e6; stroke-opacity: 0.3; stroke-width: 1.5; stroke-linecap: square"/>
   </g>
   <g id="line2d_33">
    <path d="M 73.832727 201.1392 
L 81.949091 194.136253 
L 90.065455 194.04249 
L 98.181818 287.185733 
L 106.298182 219.231071 
L 114.414545 207.621802 
L 122.530909 284.966581 
L 130.647273 267.857646 
L 138.763636 216.40504 
L 146.88 284.177466 
L 154.996364 267.460808 
L 163.112727 263.654881 
L 171.229091 263.274288 
L 179.345455 263.236229 
L 187.461818 263.232423 
L 195.578182 263.232042 
L 203.694545 263.232004 
L 211.810909 263.232 
L 219.927273 263.232 
L 228.043636 263.232 
L 236.16 263.232 
L 244.276364 263.232 
L 252.392727 263.232 
L 260.509091 263.232 
L 268.625455 263.232 
L 276.741818 263.232 
L 284.858182 263.232 
L 292.974545 263.232 
L 301.090909 263.232 
L 309.207273 263.232 
L 317.323636 263.232 
L 325.44 263.232 
L 333.556364 263.232 
L 341.672727 263.232 
L 349.789091 263.232 
L 357.905455 263.232 
L 366.021818 263.232 
L 374.138182 263.232 
L 382.254545 263.232 
L 390.370909 263.232 
" clip-path="url(#pe52b885bd5)" style="fill: none; stroke: #add8e6; stroke-opacity: 0.3; stroke-width: 1.5; stroke-linecap: square"/>
   </g>
   <g id="line2d_34">
    <path d="M 73.832727 201.1392 
L 81.949091 290.16576 
L 90.065455 216.425957 
L 98.181818 204.619235 
L 106.298182 285.807525 
L 114.414545 226.400137 
L 122.530909 215.564457 
L 130.647273 283.681962 
L 138.763636 267.630026 
L 146.88 263.671803 
L 154.996364 263.27598 
L 163.112727 263.236398 
L 171.229091 263.23244 
L 179.345455 263.232044 
L 187.461818 263.232004 
L 195.578182 263.232 
L 203.694545 263.232 
L 211.810909 263.232 
L 219.927273 263.232 
L 228.043636 263.232 
L 236.16 263.232 
L 244.276364 263.232 
L 252.392727 263.232 
L 260.509091 263.232 
L 268.625455 263.232 
L 276.741818 263.232 
L 284.858182 263.232 
L 292.974545 263.232 
L 301.090909 263.232 
L 309.207273 263.232 
L 317.323636 263.232 
L 325.44 263.232 
L 333.556364 263.232 
L 341.672727 263.232 
L 349.789091 263.232 
L 357.905455 263.232 
L 366.021818 263.232 
L 374.138182 263.232 
L 382.254545 263.232 
L 390.370909 263.232 
" clip-path="url(#pe52b885bd5)" style="fill: none; stroke: #add8e6; stroke-opacity: 0.3; stroke-width: 1.5; stroke-linecap: square"/>
   </g>
   <g id="line2d_35">
    <path d="M 73.832727 201.1392 
L 81.949091 290.16576 
L 90.065455 216.425957 
L 98.181818 204.619235 
L 106.298182 207.777248 
L 114.414545 211.038374 
L 122.530909 286.76848 
L 130.647273 232.409947 
L 138.763636 219.771844 
L 146.88 221.436851 
L 154.996364 223.438883 
L 163.112727 225.258468 
L 171.229091 226.898437 
L 179.345455 228.379179 
L 187.461818 229.719411 
L 195.578182 230.935627 
L 203.694545 232.042283 
L 211.810909 233.052026 
L 219.927273 233.975906 
L 228.043636 234.82358 
L 236.16 256.520681 
L 244.276364 291.070075 
L 252.392727 296.123743 
L 260.509091 296.79507 
L 268.625455 297.097362 
L 276.741818 297.331743 
L 284.858182 297.527502 
L 292.974545 297.692769 
L 301.090909 297.832845 
L 309.207273 297.951843 
L 317.323636 298.053045 
L 325.44 249.021306 
L 333.556364 289.59908 
L 341.672727 271.84343 
L 349.789091 264.093143 
L 357.905455 263.318114 
L 366.021818 263.240611 
L 374.138182 263.232861 
L 382.254545 263.232086 
L 390.370909 263.232009 
" clip-path="url(#pe52b885bd5)" style="fill: none; stroke: #add8e6; stroke-opacity: 0.3; stroke-width: 1.5; stroke-linecap: square"/>
   </g>
   <g id="line2d_36">
    <path d="M 73.832727 254.3616 
L 81.949091 294.978695 
L 90.065455 296.520826 
L 98.181818 171.090121 
L 106.298182 285.318423 
L 114.414545 176.994464 
L 122.530909 214.691446 
L 130.647273 218.461145 
L 138.763636 218.838114 
L 146.88 218.875811 
L 154.996364 218.879581 
L 163.112727 218.879958 
L 171.229091 218.879996 
L 179.345455 218.88 
L 187.461818 218.88 
L 195.578182 218.88 
L 203.694545 218.88 
L 211.810909 218.88 
L 219.927273 218.88 
L 228.043636 218.88 
L 236.16 218.88 
L 244.276364 218.88 
L 252.392727 218.88 
L 260.509091 218.88 
L 268.625455 218.88 
L 276.741818 218.88 
L 284.858182 218.88 
L 292.974545 218.88 
L 301.090909 218.88 
L 309.207273 218.88 
L 317.323636 218.88 
L 325.44 218.88 
L 333.556364 218.88 
L 341.672727 218.88 
L 349.789091 218.88 
L 357.905455 218.88 
L 366.021818 218.88 
L 374.138182 218.88 
L 382.254545 218.88 
L 390.370909 218.88 
" clip-path="url(#pe52b885bd5)" style="fill: none; stroke: #ff0000; stroke-opacity: 0.1; stroke-width: 1.5; stroke-linecap: square"/>
   </g>
   <g id="line2d_37">
    <path d="M 73.832727 254.3616 
L 81.949091 167.75424 
L 90.065455 285.358307 
L 98.181818 290.313056 
L 106.298182 173.115312 
L 114.414545 278.338387 
L 122.530909 178.641643 
L 130.647273 214.856164 
L 138.763636 218.477616 
L 146.88 218.839762 
L 154.996364 218.875976 
L 163.112727 218.879598 
L 171.229091 218.87996 
L 179.345455 218.879996 
L 187.461818 218.88 
L 195.578182 218.88 
L 203.694545 218.88 
L 211.810909 218.88 
L 219.927273 218.88 
L 228.043636 218.88 
L 236.16 218.88 
L 244.276364 218.88 
L 252.392727 218.88 
L 260.509091 218.88 
L 268.625455 218.88 
L 276.741818 218.88 
L 284.858182 218.88 
L 292.974545 218.88 
L 301.090909 218.88 
L 309.207273 218.88 
L 317.323636 218.88 
L 325.44 218.88 
L 333.556364 218.88 
L 341.672727 218.88 
L 349.789091 218.88 
L 357.905455 218.88 
L 366.021818 218.88 
L 374.138182 218.88 
L 382.254545 218.88 
L 390.370909 218.88 
" clip-path="url(#pe52b885bd5)" style="fill: none; stroke: #ff0000; stroke-opacity: 0.1; stroke-width: 1.5; stroke-linecap: square"/>
   </g>
   <g id="line2d_38">
    <path d="M 73.832727 254.3616 
L 81.949091 294.978695 
L 90.065455 176.563678 
L 98.181818 284.630896 
L 106.298182 289.40546 
L 114.414545 177.148324 
L 122.530909 214.706832 
L 130.647273 218.462683 
L 138.763636 218.838268 
L 146.88 218.875827 
L 154.996364 218.879583 
L 163.112727 218.879958 
L 171.229091 218.879996 
L 179.345455 218.88 
L 187.461818 218.88 
L 195.578182 218.88 
L 203.694545 218.88 
L 211.810909 218.88 
L 219.927273 218.88 
L 228.043636 218.88 
L 236.16 218.88 
L 244.276364 218.88 
L 252.392727 218.88 
L 260.509091 218.88 
L 268.625455 218.88 
L 276.741818 218.88 
L 284.858182 218.88 
L 292.974545 218.88 
L 301.090909 218.88 
L 309.207273 218.88 
L 317.323636 218.88 
L 325.44 218.88 
L 333.556364 218.88 
L 341.672727 218.88 
L 349.789091 218.88 
L 357.905455 218.88 
L 366.021818 218.88 
L 374.138182 218.88 
L 382.254545 218.88 
L 390.370909 218.88 
" clip-path="url(#pe52b885bd5)" style="fill: none; stroke: #ff0000; stroke-opacity: 0.1; stroke-width: 1.5; stroke-linecap: square"/>
   </g>
   <g id="line2d_39">
    <path d="M 73.832727 254.3616 
L 81.949091 294.978695 
L 90.065455 296.520826 
L 98.181818 171.090121 
L 106.298182 285.318423 
L 114.414545 290.004654 
L 122.530909 172.62354 
L 130.647273 214.254354 
L 138.763636 165.022736 
L 146.88 213.494274 
L 154.996364 164.949043 
L 163.112727 213.486904 
L 171.229091 164.948328 
L 179.345455 213.486833 
L 187.461818 164.948321 
L 195.578182 213.486832 
L 203.694545 286.201605 
L 211.810909 289.276537 
L 219.927273 289.787047 
L 228.043636 290.140637 
L 236.16 226.006064 
L 244.276364 287.042321 
L 252.392727 160.002864 
L 260.509091 148.486765 
L 268.625455 211.840676 
L 276.741818 153.368269 
L 284.858182 212.328827 
L 292.974545 153.415422 
L 301.090909 212.333542 
L 309.207273 153.415878 
L 317.323636 212.333588 
L 325.44 153.415882 
L 333.556364 212.333588 
L 341.672727 153.415882 
L 349.789091 212.333588 
L 357.905455 153.415882 
L 366.021818 212.333588 
L 374.138182 286.679197 
L 382.254545 289.407731 
L 390.370909 289.684617 
" clip-path="url(#pe52b885bd5)" style="fill: none; stroke: #ff0000; stroke-opacity: 0.1; stroke-width: 1.5; stroke-linecap: square"/>
   </g>
   <g id="line2d_40">
    <path d="M 73.832727 254.3616 
L 81.949091 294.978695 
L 90.065455 296.520826 
L 98.181818 297.030846 
L 106.298182 297.435953 
L 114.414545 297.771022 
L 122.530909 298.048411 
L 130.647273 298.277617 
L 138.763636 145.741657 
L 146.88 287.448246 
L 154.996364 291.963449 
L 163.112727 151.597746 
L 171.229091 139.400854 
L 179.345455 280.511526 
L 187.461818 286.289496 
L 195.578182 286.641133 
L 203.694545 286.758801 
L 211.810909 286.834072 
L 219.927273 286.877376 
L 228.043636 286.892201 
L 236.16 225.68122 
L 244.276364 283.64299 
L 252.392727 140.327001 
L 260.509091 273.703336 
L 268.625455 148.682086 
L 276.741818 136.779636 
L 284.858182 210.669964 
L 292.974545 142.480983 
L 301.090909 211.240098 
L 309.207273 142.535197 
L 317.323636 211.24552 
L 325.44 142.535713 
L 333.556364 211.245571 
L 341.672727 278.001476 
L 349.789091 153.524145 
L 357.905455 212.344414 
L 366.021818 218.226441 
L 374.138182 218.814644 
L 382.254545 218.873464 
L 390.370909 218.879346 
" clip-path="url(#pe52b885bd5)" style="fill: none; stroke: #ff0000; stroke-opacity: 0.1; stroke-width: 1.5; stroke-linecap: square"/>
   </g>
   <g id="line2d_41">
    <path d="M 73.832727 254.3616 
L 81.949091 294.978695 
L 90.065455 296.520826 
L 98.181818 297.030846 
L 106.298182 297.435953 
L 114.414545 297.771022 
L 122.530909 298.048411 
L 130.647273 298.277617 
L 138.763636 298.466248 
L 146.88 298.620455 
L 154.996364 298.745247 
L 163.112727 298.844726 
L 171.229091 298.922269 
L 179.345455 125.238524 
L 187.461818 288.231 
L 195.578182 136.625538 
L 203.694545 281.00147 
L 211.810909 286.479297 
L 219.927273 144.406086 
L 228.043636 274.149011 
L 236.16 224.406901 
L 244.276364 276.134502 
L 252.392727 278.514067 
L 260.509091 155.665426 
L 268.625455 212.558543 
L 276.741818 149.063667 
L 284.858182 211.898367 
L 292.974545 274.389284 
L 301.090909 159.367074 
L 309.207273 212.928707 
L 317.323636 218.284871 
L 325.44 218.820487 
L 333.556364 218.874049 
L 341.672727 218.879405 
L 349.789091 218.87994 
L 357.905455 218.879994 
L 366.021818 218.879999 
L 374.138182 218.88 
L 382.254545 218.88 
L 390.370909 218.88 
" clip-path="url(#pe52b885bd5)" style="fill: none; stroke: #ff0000; stroke-opacity: 0.1; stroke-width: 1.5; stroke-linecap: square"/>
   </g>
   <g id="line2d_42">
    <path d="M 73.832727 254.3616 
L 81.949091 294.978695 
L 90.065455 296.520826 
L 98.181818 297.030846 
L 106.298182 297.435953 
L 114.414545 297.771022 
L 122.530909 298.048411 
L 130.647273 298.277617 
L 138.763636 298.466248 
L 146.88 298.620455 
L 154.996364 298.745247 
L 163.112727 298.844726 
L 171.229091 298.922269 
L 179.345455 298.980675 
L 187.461818 299.022273 
L 195.578182 299.049008 
L 203.694545 299.062516 
L 211.810909 299.064177 
L 219.927273 299.05516 
L 228.043636 299.036458 
L 236.16 226.895646 
L 244.276364 92.891105 
L 252.392727 84.860156 
L 260.509091 84.32132 
L 268.625455 292.067526 
L 276.741818 108.840146 
L 284.858182 286.38022 
L 292.974545 291.54748 
L 301.090909 117.292485 
L 309.207273 103.677076 
L 317.323636 102.563295 
L 325.44 283.159436 
L 333.556364 289.197971 
L 341.672727 124.449304 
L 349.789091 110.878293 
L 357.905455 109.783416 
L 366.021818 280.799963 
L 374.138182 132.123447 
L 382.254545 210.204345 
L 390.370909 218.012434 
" clip-path="url(#pe52b885bd5)" style="fill: none; stroke: #ff0000; stroke-opacity: 0.1; stroke-width: 1.5; stroke-linecap: square"/>
   </g>
   <g id="line2d_43">
    <path d="M 73.832727 254.3616 
L 81.949091 294.978695 
L 90.065455 176.563678 
L 98.181818 166.963656 
L 106.298182 284.330794 
L 114.414545 225.425079 
L 122.530909 219.534508 
L 130.647273 218.945451 
L 138.763636 218.886545 
L 146.88 218.880655 
L 154.996364 218.880065 
L 163.112727 218.880007 
L 171.229091 218.880001 
L 179.345455 218.88 
L 187.461818 218.88 
L 195.578182 218.88 
L 203.694545 218.88 
L 211.810909 218.88 
L 219.927273 218.88 
L 228.043636 218.88 
L 236.16 218.88 
L 244.276364 218.88 
L 252.392727 218.88 
L 260.509091 218.88 
L 268.625455 218.88 
L 276.741818 218.88 
L 284.858182 218.88 
L 292.974545 218.88 
L 301.090909 218.88 
L 309.207273 218.88 
L 317.323636 218.88 
L 325.44 218.88 
L 333.556364 218.88 
L 341.672727 218.88 
L 349.789091 218.88 
L 357.905455 218.88 
L 366.021818 218.88 
L 374.138182 218.88 
L 382.254545 218.88 
L 390.370909 218.88 
" clip-path="url(#pe52b885bd5)" style="fill: none; stroke: #ff0000; stroke-opacity: 0.1; stroke-width: 1.5; stroke-linecap: square"/>
   </g>
   <g id="line2d_44">
    <path d="M 73.832727 254.3616 
L 81.949091 294.978695 
L 90.065455 296.520826 
L 98.181818 297.030846 
L 106.298182 165.722349 
L 114.414545 154.977511 
L 122.530909 285.843503 
L 130.647273 174.370419 
L 138.763636 214.429042 
L 146.88 218.434904 
L 154.996364 218.83549 
L 163.112727 218.875549 
L 171.229091 218.879555 
L 179.345455 218.879955 
L 187.461818 218.879996 
L 195.578182 218.88 
L 203.694545 218.88 
L 211.810909 218.88 
L 219.927273 218.88 
L 228.043636 218.88 
L 236.16 218.88 
L 244.276364 218.88 
L 252.392727 218.88 
L 260.509091 218.88 
L 268.625455 218.88 
L 276.741818 218.88 
L 284.858182 218.88 
L 292.974545 218.88 
L 301.090909 218.88 
L 309.207273 218.88 
L 317.323636 218.88 
L 325.44 218.88 
L 333.556364 218.88 
L 341.672727 218.88 
L 349.789091 218.88 
L 357.905455 218.88 
L 366.021818 218.88 
L 374.138182 218.88 
L 382.254545 218.88 
L 390.370909 218.88 
" clip-path="url(#pe52b885bd5)" style="fill: none; stroke: #ff0000; stroke-opacity: 0.1; stroke-width: 1.5; stroke-linecap: square"/>
   </g>
   <g id="line2d_45">
    <path d="M 73.832727 254.3616 
L 81.949091 167.75424 
L 90.065455 161.693068 
L 98.181818 285.601064 
L 106.298182 290.796306 
L 114.414545 291.538989 
L 122.530909 170.308117 
L 130.647273 279.940014 
L 138.763636 285.184654 
L 146.88 285.824213 
L 154.996364 286.206849 
L 163.112727 286.512976 
L 171.229091 286.758389 
L 179.345455 286.951173 
L 187.461818 287.097917 
L 195.578182 287.204163 
L 203.694545 287.274602 
L 211.810909 287.31322 
L 219.927273 287.323417 
L 228.043636 287.308109 
L 236.16 225.722811 
L 244.276364 122.709586 
L 252.392727 275.400697 
L 260.509091 281.933331 
L 268.625455 136.6007 
L 276.741818 269.764633 
L 284.858182 144.817496 
L 292.974545 132.693613 
L 301.090909 265.743245 
L 309.207273 152.711616 
L 317.323636 212.263162 
L 325.44 269.563466 
L 333.556364 272.623032 
L 341.672727 155.898248 
L 349.789091 212.581825 
L 357.905455 218.250182 
L 366.021818 218.817018 
L 374.138182 218.873702 
L 382.254545 218.87937 
L 390.370909 218.879937 
" clip-path="url(#pe52b885bd5)" style="fill: none; stroke: #ff0000; stroke-opacity: 0.1; stroke-width: 1.5; stroke-linecap: square"/>
   </g>
   <g id="line2d_46">
    <path d="M 73.832727 254.3616 
L 81.949091 294.978695 
L 90.065455 296.520826 
L 98.181818 297.030846 
L 106.298182 297.435953 
L 114.414545 297.771022 
L 122.530909 155.3826 
L 130.647273 143.734299 
L 138.763636 286.961158 
L 146.88 291.889995 
L 154.996364 161.50932 
L 163.112727 280.517506 
L 171.229091 285.683865 
L 179.345455 165.21352 
L 187.461818 213.513352 
L 195.578182 218.343335 
L 203.694545 218.826334 
L 211.810909 218.874633 
L 219.927273 218.879463 
L 228.043636 218.879946 
L 236.16 218.879995 
L 244.276364 218.879999 
L 252.392727 218.88 
L 260.509091 218.88 
L 268.625455 218.88 
L 276.741818 218.88 
L 284.858182 218.88 
L 292.974545 218.88 
L 301.090909 218.88 
L 309.207273 218.88 
L 317.323636 218.88 
L 325.44 218.88 
L 333.556364 218.88 
L 341.672727 218.88 
L 349.789091 218.88 
L 357.905455 218.88 
L 366.021818 218.88 
L 374.138182 218.88 
L 382.254545 218.88 
L 390.370909 218.88 
" clip-path="url(#pe52b885bd5)" style="fill: none; stroke: #ff0000; stroke-opacity: 0.1; stroke-width: 1.5; stroke-linecap: square"/>
   </g>
   <g id="line2d_47">
    <path d="M 73.832727 254.3616 
L 81.949091 294.978695 
L 90.065455 296.520826 
L 98.181818 297.030846 
L 106.298182 165.722349 
L 114.414545 285.918386 
L 122.530909 290.540371 
L 130.647273 168.239683 
L 138.763636 278.598706 
L 146.88 283.853059 
L 154.996364 284.389011 
L 163.112727 284.668412 
L 171.229091 163.954575 
L 179.345455 213.387457 
L 187.461818 156.695471 
L 195.578182 212.661547 
L 203.694545 156.624036 
L 211.810909 212.654404 
L 219.927273 280.445423 
L 228.043636 283.490304 
L 236.16 225.34103 
L 244.276364 152.685071 
L 252.392727 146.21756 
L 260.509091 211.613756 
L 268.625455 218.153376 
L 276.741818 218.807338 
L 284.858182 218.872734 
L 292.974545 218.879273 
L 301.090909 218.879927 
L 309.207273 218.879993 
L 317.323636 218.879999 
L 325.44 218.88 
L 333.556364 218.88 
L 341.672727 218.88 
L 349.789091 218.88 
L 357.905455 218.88 
L 366.021818 218.88 
L 374.138182 218.88 
L 382.254545 218.88 
L 390.370909 218.88 
" clip-path="url(#pe52b885bd5)" style="fill: none; stroke: #ff0000; stroke-opacity: 0.1; stroke-width: 1.5; stroke-linecap: square"/>
   </g>
   <g id="line2d_48">
    <path d="M 73.832727 254.3616 
L 81.949091 294.978695 
L 90.065455 296.520826 
L 98.181818 171.090121 
L 106.298182 285.318423 
L 114.414545 176.994464 
L 122.530909 214.691446 
L 130.647273 218.461145 
L 138.763636 218.838114 
L 146.88 218.875811 
L 154.996364 218.879581 
L 163.112727 218.879958 
L 171.229091 218.879996 
L 179.345455 218.88 
L 187.461818 218.88 
L 195.578182 218.88 
L 203.694545 218.88 
L 211.810909 218.88 
L 219.927273 218.88 
L 228.043636 218.88 
L 236.16 218.88 
L 244.276364 218.88 
L 252.392727 218.88 
L 260.509091 218.88 
L 268.625455 218.88 
L 276.741818 218.88 
L 284.858182 218.88 
L 292.974545 218.88 
L 301.090909 218.88 
L 309.207273 218.88 
L 317.323636 218.88 
L 325.44 218.88 
L 333.556364 218.88 
L 341.672727 218.88 
L 349.789091 218.88 
L 357.905455 218.88 
L 366.021818 218.88 
L 374.138182 218.88 
L 382.254545 218.88 
L 390.370909 218.88 
" clip-path="url(#pe52b885bd5)" style="fill: none; stroke: #ff0000; stroke-opacity: 0.1; stroke-width: 1.5; stroke-linecap: square"/>
   </g>
   <g id="line2d_49">
    <path d="M 73.832727 254.3616 
L 81.949091 294.978695 
L 90.065455 176.563678 
L 98.181818 284.630896 
L 106.298182 289.40546 
L 114.414545 290.146431 
L 122.530909 290.652015 
L 130.647273 291.064733 
L 138.763636 291.4023 
L 146.88 291.676012 
L 154.996364 291.89503 
L 163.112727 292.066899 
L 171.229091 292.197866 
L 179.345455 292.29313 
L 187.461818 292.357037 
L 195.578182 292.393233 
L 203.694545 292.404795 
L 211.810909 292.394325 
L 219.927273 292.364037 
L 228.043636 292.315821 
L 236.16 226.223582 
L 244.276364 117.825057 
L 252.392727 108.966113 
L 260.509091 108.1375 
L 268.625455 108.0502 
L 276.741818 108.148495 
L 284.858182 108.369581 
L 292.974545 108.69073 
L 301.090909 109.095771 
L 309.207273 109.571814 
L 317.323636 110.108349 
L 325.44 110.696703 
L 333.556364 111.329637 
L 341.672727 208.124964 
L 349.789091 118.793605 
L 357.905455 208.871361 
L 366.021818 118.854612 
L 374.138182 208.877461 
L 382.254545 118.855111 
L 390.370909 208.877511 
" clip-path="url(#pe52b885bd5)" style="fill: none; stroke: #ff0000; stroke-opacity: 0.1; stroke-width: 1.5; stroke-linecap: square"/>
   </g>
   <g id="line2d_50">
    <path d="M 73.832727 254.3616 
L 81.949091 294.978695 
L 90.065455 296.520826 
L 98.181818 297.030846 
L 106.298182 165.722349 
L 114.414545 285.918386 
L 122.530909 290.540371 
L 130.647273 291.076215 
L 138.763636 163.815595 
L 146.88 152.740105 
L 154.996364 279.185762 
L 163.112727 172.076382 
L 171.229091 214.199638 
L 179.345455 218.411964 
L 187.461818 218.833196 
L 195.578182 218.87532 
L 203.694545 218.879532 
L 211.810909 218.879953 
L 219.927273 218.879995 
L 228.043636 218.88 
L 236.16 218.88 
L 244.276364 218.88 
L 252.392727 218.88 
L 260.509091 218.88 
L 268.625455 218.88 
L 276.741818 218.88 
L 284.858182 218.88 
L 292.974545 218.88 
L 301.090909 218.88 
L 309.207273 218.88 
L 317.323636 218.88 
L 325.44 218.88 
L 333.556364 218.88 
L 341.672727 218.88 
L 349.789091 218.88 
L 357.905455 218.88 
L 366.021818 218.88 
L 374.138182 218.88 
L 382.254545 218.88 
L 390.370909 218.88 
" clip-path="url(#pe52b885bd5)" style="fill: none; stroke: #ff0000; stroke-opacity: 0.1; stroke-width: 1.5; stroke-linecap: square"/>
   </g>
   <g id="line2d_51">
    <path d="M 73.832727 254.3616 
L 81.949091 167.75424 
L 90.065455 285.358307 
L 98.181818 290.313056 
L 106.298182 291.035147 
L 114.414545 291.522014 
L 122.530909 291.917243 
L 130.647273 158.599211 
L 138.763636 279.852078 
L 146.88 285.190146 
L 154.996364 162.928827 
L 163.112727 272.9609 
L 171.229091 278.688565 
L 179.345455 279.130107 
L 187.461818 164.073662 
L 195.578182 213.399366 
L 203.694545 274.627796 
L 211.810909 277.769188 
L 219.927273 277.99051 
L 228.043636 278.032404 
L 236.16 224.79524 
L 244.276364 148.771524 
L 252.392727 141.528135 
L 260.509091 211.144813 
L 268.625455 147.474254 
L 276.741818 211.739425 
L 284.858182 147.532736 
L 292.974545 211.745274 
L 301.090909 147.533312 
L 309.207273 211.745331 
L 317.323636 147.533317 
L 325.44 211.745332 
L 333.556364 147.533317 
L 341.672727 211.745332 
L 349.789091 147.533317 
L 357.905455 211.745332 
L 366.021818 147.533317 
L 374.138182 211.745332 
L 382.254545 147.533317 
L 390.370909 211.745332 
" clip-path="url(#pe52b885bd5)" style="fill: none; stroke: #ff0000; stroke-opacity: 0.1; stroke-width: 1.5; stroke-linecap: square"/>
   </g>
   <g id="line2d_52">
    <path d="M 73.832727 254.3616 
L 81.949091 294.978695 
L 90.065455 296.520826 
L 98.181818 297.030846 
L 106.298182 297.435953 
L 114.414545 297.771022 
L 122.530909 155.3826 
L 130.647273 286.826754 
L 138.763636 291.371259 
L 146.88 291.762085 
L 154.996364 291.982066 
L 163.112727 292.152599 
L 171.229091 147.688036 
L 179.345455 280.119703 
L 187.461818 156.466832 
L 195.578182 273.358246 
L 203.694545 279.140171 
L 211.810909 279.428593 
L 219.927273 279.430526 
L 228.043636 156.930312 
L 236.16 212.685031 
L 244.276364 154.911086 
L 252.392727 212.483109 
L 260.509091 218.240311 
L 268.625455 155.464368 
L 276.741818 212.538437 
L 284.858182 218.245844 
L 292.974545 155.46492 
L 301.090909 212.538492 
L 309.207273 218.245849 
L 317.323636 155.464921 
L 325.44 212.538492 
L 333.556364 218.245849 
L 341.672727 155.464921 
L 349.789091 212.538492 
L 357.905455 218.245849 
L 366.021818 155.464921 
L 374.138182 212.538492 
L 382.254545 218.245849 
L 390.370909 270.881841 
" clip-path="url(#pe52b885bd5)" style="fill: none; stroke: #ff0000; stroke-opacity: 0.1; stroke-width: 1.5; stroke-linecap: square"/>
   </g>
   <g id="line2d_53">
    <path d="M 73.832727 254.3616 
L 81.949091 294.978695 
L 90.065455 296.520826 
L 98.181818 171.090121 
L 106.298182 285.318423 
L 114.414545 290.004654 
L 122.530909 172.62354 
L 130.647273 214.254354 
L 138.763636 286.23132 
L 146.88 176.591925 
L 154.996364 214.651192 
L 163.112727 218.457119 
L 171.229091 218.837712 
L 179.345455 218.875771 
L 187.461818 218.879577 
L 195.578182 218.879958 
L 203.694545 218.879996 
L 211.810909 218.88 
L 219.927273 218.88 
L 228.043636 218.88 
L 236.16 218.88 
L 244.276364 218.88 
L 252.392727 218.88 
L 260.509091 218.88 
L 268.625455 218.88 
L 276.741818 218.88 
L 284.858182 218.88 
L 292.974545 218.88 
L 301.090909 218.88 
L 309.207273 218.88 
L 317.323636 218.88 
L 325.44 218.88 
L 333.556364 218.88 
L 341.672727 218.88 
L 349.789091 218.88 
L 357.905455 218.88 
L 366.021818 218.88 
L 374.138182 218.88 
L 382.254545 218.88 
L 390.370909 218.88 
" clip-path="url(#pe52b885bd5)" style="fill: none; stroke: #ff0000; stroke-opacity: 0.1; stroke-width: 1.5; stroke-linecap: square"/>
   </g>
   <g id="line2d_54">
    <path d="M 73.832727 254.3616 
L 81.949091 167.75424 
L 90.065455 285.358307 
L 98.181818 290.313056 
L 106.298182 173.115312 
L 114.414545 278.338387 
L 122.530909 283.708363 
L 130.647273 174.899744 
L 138.763636 214.481974 
L 146.88 218.440197 
L 154.996364 218.83602 
L 163.112727 218.875602 
L 171.229091 218.87956 
L 179.345455 218.879956 
L 187.461818 218.879996 
L 195.578182 218.88 
L 203.694545 218.88 
L 211.810909 218.88 
L 219.927273 218.88 
L 228.043636 218.88 
L 236.16 218.88 
L 244.276364 218.88 
L 252.392727 218.88 
L 260.509091 218.88 
L 268.625455 218.88 
L 276.741818 218.88 
L 284.858182 218.88 
L 292.974545 218.88 
L 301.090909 218.88 
L 309.207273 218.88 
L 317.323636 218.88 
L 325.44 218.88 
L 333.556364 218.88 
L 341.672727 218.88 
L 349.789091 218.88 
L 357.905455 218.88 
L 366.021818 218.88 
L 374.138182 218.88 
L 382.254545 218.88 
L 390.370909 218.88 
" clip-path="url(#pe52b885bd5)" style="fill: none; stroke: #ff0000; stroke-opacity: 0.1; stroke-width: 1.5; stroke-linecap: square"/>
   </g>
   <g id="line2d_55">
    <path d="M 73.832727 254.3616 
L 81.949091 167.75424 
L 90.065455 285.358307 
L 98.181818 290.313056 
L 106.298182 291.035147 
L 114.414545 291.522014 
L 122.530909 163.306022 
L 130.647273 279.443724 
L 138.763636 284.778789 
L 146.88 285.309369 
L 154.996364 285.586331 
L 163.112727 285.795158 
L 171.229091 285.950441 
L 179.345455 286.059089 
L 187.461818 286.126724 
L 195.578182 286.158092 
L 203.694545 286.157225 
L 211.810909 286.127559 
L 219.927273 286.072038 
L 228.043636 285.993191 
L 236.16 225.591319 
L 244.276364 118.747976 
L 252.392727 109.610539 
L 260.509091 108.543531 
L 268.625455 108.258969 
L 276.741818 108.186393 
L 284.858182 108.257853 
L 292.974545 108.447423 
L 301.090909 108.736422 
L 309.207273 109.109907 
L 317.323636 109.555674 
L 325.44 288.558 
L 333.556364 132.7657 
L 341.672727 210.26857 
L 349.789091 218.018857 
L 357.905455 218.793886 
L 366.021818 218.871389 
L 374.138182 218.879139 
L 382.254545 218.879914 
L 390.370909 218.879991 
" clip-path="url(#pe52b885bd5)" style="fill: none; stroke: #ff0000; stroke-opacity: 0.1; stroke-width: 1.5; stroke-linecap: square"/>
   </g>
   <g id="line2d_56">
    <path d="M 73.832727 201.1392 
L 81.949091 218.143629 
L 90.065455 217.41448 
L 98.181818 224.474447 
L 106.298182 228.043885 
L 114.414545 229.081921 
L 122.530909 248.956591 
L 130.647273 252.218578 
L 138.763636 246.05648 
L 146.88 244.097852 
L 154.996364 248.073282 
L 163.112727 248.602798 
L 171.229091 254.647932 
L 179.345455 254.695954 
L 187.461818 257.944304 
L 195.578182 255.332325 
L 203.694545 249.308955 
L 211.810909 247.237033 
L 219.927273 248.852415 
L 228.043636 249.578051 
L 236.16 260.504558 
L 244.276364 268.313498 
L 252.392727 271.759529 
L 260.509091 269.828907 
L 268.625455 271.721149 
L 276.741818 272.489638 
L 284.858182 269.604759 
L 292.974545 269.45239 
L 301.090909 271.01846 
L 309.207273 272.898202 
L 317.323636 272.020523 
L 325.44 266.047612 
L 333.556364 265.344379 
L 341.672727 268.160628 
L 349.789091 269.895873 
L 357.905455 267.530965 
L 366.021818 267.040444 
L 374.138182 263.881469 
L 382.254545 264.298039 
L 390.370909 260.745005 
" clip-path="url(#pe52b885bd5)" style="fill: none; stroke: #1f77b4; stroke-width: 1.5; stroke-linecap: square"/>
   </g>
   <g id="line2d_57">
    <path d="M 73.832727 254.3616 
L 81.949091 263.172581 
L 90.065455 269.553362 
L 98.181818 262.1843 
L 106.298182 260.392972 
L 114.414545 263.682363 
L 122.530909 232.96197 
L 130.647273 233.036147 
L 138.763636 243.934121 
L 146.88 248.712165 
L 154.996364 242.240184 
L 163.112727 244.006634 
L 171.229091 230.415594 
L 179.345455 234.540969 
L 187.461818 228.234742 
L 195.578182 234.461788 
L 203.694545 245.899944 
L 211.810909 249.306798 
L 219.927273 245.627554 
L 228.043636 246.15442 
L 236.16 221.607442 
L 244.276364 197.208061 
L 252.392727 192.335512 
L 260.509091 199.529505 
L 268.625455 196.397535 
L 276.741818 193.301822 
L 284.858182 202.808681 
L 292.974545 199.32772 
L 301.090909 197.578018 
L 309.207273 191.081068 
L 317.323636 194.351635 
L 325.44 214.935676 
L 333.556364 211.091436 
L 341.672727 206.196405 
L 349.789091 200.638103 
L 357.905455 208.900516 
L 366.021818 209.873062 
L 374.138182 216.754571 
L 382.254545 213.371955 
L 390.370909 224.12005 
" clip-path="url(#pe52b885bd5)" style="fill: none; stroke: #ff0000; stroke-width: 1.5; stroke-linecap: square"/>
   </g>
   <g id="patch_5">
    <path d="M 57.6 307.584 
L 57.6 41.472 
" style="fill: none; stroke: #000000; stroke-width: 0.8; stroke-linejoin: miter; stroke-linecap: square"/>
   </g>
   <g id="patch_6">
    <path d="M 414.72 307.584 
L 414.72 41.472 
" style="fill: none; stroke: #000000; stroke-width: 0.8; stroke-linejoin: miter; stroke-linecap: square"/>
   </g>
   <g id="patch_7">
    <path d="M 57.6 307.584 
L 414.72 307.584 
" style="fill: none; stroke: #000000; stroke-width: 0.8; stroke-linejoin: miter; stroke-linecap: square"/>
   </g>
   <g id="patch_8">
    <path d="M 57.6 41.472 
L 414.72 41.472 
" style="fill: none; stroke: #000000; stroke-width: 0.8; stroke-linejoin: miter; stroke-linecap: square"/>
   </g>
   <g id="text_18">
    <!-- Type1_social_phobia -->
    <g transform="translate(175.020938 35.472) scale(0.12 -0.12)">
     <defs>
      <path id="DejaVuSans-54" d="M -19 4666 
L 3928 4666 
L 3928 4134 
L 2272 4134 
L 2272 0 
L 1638 0 
L 1638 4134 
L -19 4134 
L -19 4666 
z
" transform="scale(0.015625)"/>
      <path id="DejaVuSans-79" d="M 2059 -325 
Q 1816 -950 1584 -1140 
Q 1353 -1331 966 -1331 
L 506 -1331 
L 506 -850 
L 844 -850 
Q 1081 -850 1212 -737 
Q 1344 -625 1503 -206 
L 1606 56 
L 191 3500 
L 800 3500 
L 1894 763 
L 2988 3500 
L 3597 3500 
L 2059 -325 
z
" transform="scale(0.015625)"/>
      <path id="DejaVuSans-5f" d="M 3263 -1063 
L 3263 -1509 
L -63 -1509 
L -63 -1063 
L 3263 -1063 
z
" transform="scale(0.015625)"/>
      <path id="DejaVuSans-73" d="M 2834 3397 
L 2834 2853 
Q 2591 2978 2328 3040 
Q 2066 3103 1784 3103 
Q 1356 3103 1142 2972 
Q 928 2841 928 2578 
Q 928 2378 1081 2264 
Q 1234 2150 1697 2047 
L 1894 2003 
Q 2506 1872 2764 1633 
Q 3022 1394 3022 966 
Q 3022 478 2636 193 
Q 2250 -91 1575 -91 
Q 1294 -91 989 -36 
Q 684 19 347 128 
L 347 722 
Q 666 556 975 473 
Q 1284 391 1588 391 
Q 1994 391 2212 530 
Q 2431 669 2431 922 
Q 2431 1156 2273 1281 
Q 2116 1406 1581 1522 
L 1381 1569 
Q 847 1681 609 1914 
Q 372 2147 372 2553 
Q 372 3047 722 3315 
Q 1072 3584 1716 3584 
Q 2034 3584 2315 3537 
Q 2597 3491 2834 3397 
z
" transform="scale(0.015625)"/>
      <path id="DejaVuSans-69" d="M 603 3500 
L 1178 3500 
L 1178 0 
L 603 0 
L 603 3500 
z
M 603 4863 
L 1178 4863 
L 1178 4134 
L 603 4134 
L 603 4863 
z
" transform="scale(0.015625)"/>
      <path id="DejaVuSans-61" d="M 2194 1759 
Q 1497 1759 1228 1600 
Q 959 1441 959 1056 
Q 959 750 1161 570 
Q 1363 391 1709 391 
Q 2188 391 2477 730 
Q 2766 1069 2766 1631 
L 2766 1759 
L 2194 1759 
z
M 3341 1997 
L 3341 0 
L 2766 0 
L 2766 531 
Q 2569 213 2275 61 
Q 1981 -91 1556 -91 
Q 1019 -91 701 211 
Q 384 513 384 1019 
Q 384 1609 779 1909 
Q 1175 2209 1959 2209 
L 2766 2209 
L 2766 2266 
Q 2766 2663 2505 2880 
Q 2244 3097 1772 3097 
Q 1472 3097 1187 3025 
Q 903 2953 641 2809 
L 641 3341 
Q 956 3463 1253 3523 
Q 1550 3584 1831 3584 
Q 2591 3584 2966 3190 
Q 3341 2797 3341 1997 
z
" transform="scale(0.015625)"/>
      <path id="DejaVuSans-6c" d="M 603 4863 
L 1178 4863 
L 1178 0 
L 603 0 
L 603 4863 
z
" transform="scale(0.015625)"/>
      <path id="DejaVuSans-68" d="M 3513 2113 
L 3513 0 
L 2938 0 
L 2938 2094 
Q 2938 2591 2744 2837 
Q 2550 3084 2163 3084 
Q 1697 3084 1428 2787 
Q 1159 2491 1159 1978 
L 1159 0 
L 581 0 
L 581 4863 
L 1159 4863 
L 1159 2956 
Q 1366 3272 1645 3428 
Q 1925 3584 2291 3584 
Q 2894 3584 3203 3211 
Q 3513 2838 3513 2113 
z
" transform="scale(0.015625)"/>
      <path id="DejaVuSans-62" d="M 3116 1747 
Q 3116 2381 2855 2742 
Q 2594 3103 2138 3103 
Q 1681 3103 1420 2742 
Q 1159 2381 1159 1747 
Q 1159 1113 1420 752 
Q 1681 391 2138 391 
Q 2594 391 2855 752 
Q 3116 1113 3116 1747 
z
M 1159 2969 
Q 1341 3281 1617 3432 
Q 1894 3584 2278 3584 
Q 2916 3584 3314 3078 
Q 3713 2572 3713 1747 
Q 3713 922 3314 415 
Q 2916 -91 2278 -91 
Q 1894 -91 1617 61 
Q 1341 213 1159 525 
L 1159 0 
L 581 0 
L 581 4863 
L 1159 4863 
L 1159 2969 
z
" transform="scale(0.015625)"/>
     </defs>
     <use xlink:href="#DejaVuSans-54"/>
     <use xlink:href="#DejaVuSans-79" x="45.458984"/>
     <use xlink:href="#DejaVuSans-70" x="104.638672"/>
     <use xlink:href="#DejaVuSans-65" x="168.115234"/>
     <use xlink:href="#DejaVuSans-31" x="229.638672"/>
     <use xlink:href="#DejaVuSans-5f" x="293.261719"/>
     <use xlink:href="#DejaVuSans-73" x="343.261719"/>
     <use xlink:href="#DejaVuSans-6f" x="395.361328"/>
     <use xlink:href="#DejaVuSans-63" x="456.542969"/>
     <use xlink:href="#DejaVuSans-69" x="511.523438"/>
     <use xlink:href="#DejaVuSans-61" x="539.306641"/>
     <use xlink:href="#DejaVuSans-6c" x="600.585938"/>
     <use xlink:href="#DejaVuSans-5f" x="628.369141"/>
     <use xlink:href="#DejaVuSans-70" x="678.369141"/>
     <use xlink:href="#DejaVuSans-68" x="741.845703"/>
     <use xlink:href="#DejaVuSans-6f" x="805.224609"/>
     <use xlink:href="#DejaVuSans-62" x="866.40625"/>
     <use xlink:href="#DejaVuSans-69" x="929.882812"/>
     <use xlink:href="#DejaVuSans-61" x="957.666016"/>
    </g>
   </g>
   <g id="legend_1">
    <g id="patch_9">
     <path d="M 351.635625 78.82825 
L 407.72 78.82825 
Q 409.72 78.82825 409.72 76.82825 
L 409.72 48.472 
Q 409.72 46.472 407.72 46.472 
L 351.635625 46.472 
Q 349.635625 46.472 349.635625 48.472 
L 349.635625 76.82825 
Q 349.635625 78.82825 351.635625 78.82825 
z
" style="fill: #ffffff; opacity: 0.8; stroke: #cccccc; stroke-linejoin: miter"/>
    </g>
    <g id="line2d_58">
     <path d="M 353.635625 54.570437 
L 363.635625 54.570437 
L 373.635625 54.570437 
" style="fill: none; stroke: #1f77b4; stroke-width: 1.5; stroke-linecap: square"/>
    </g>
    <g id="text_19">
     <!-- coop -->
     <g transform="translate(381.635625 58.070437) scale(0.1 -0.1)">
      <use xlink:href="#DejaVuSans-63"/>
      <use xlink:href="#DejaVuSans-6f" x="54.980469"/>
      <use xlink:href="#DejaVuSans-6f" x="116.162109"/>
      <use xlink:href="#DejaVuSans-70" x="177.34375"/>
     </g>
    </g>
    <g id="line2d_59">
     <path d="M 353.635625 69.248562 
L 363.635625 69.248562 
L 373.635625 69.248562 
" style="fill: none; stroke: #ff0000; stroke-width: 1.5; stroke-linecap: square"/>
    </g>
    <g id="text_20">
     <!-- host -->
     <g transform="translate(381.635625 72.748562) scale(0.1 -0.1)">
      <use xlink:href="#DejaVuSans-68"/>
      <use xlink:href="#DejaVuSans-6f" x="63.378906"/>
      <use xlink:href="#DejaVuSans-73" x="124.560547"/>
      <use xlink:href="#DejaVuSans-74" x="176.660156"/>
     </g>
    </g>
   </g>
  </g>
 </g>
 <defs>
  <clipPath id="pe52b885bd5">
   <rect x="57.6" y="41.472" width="357.12" height="266.112"/>
  </clipPath>
 </defs>
</svg>
