<?xml version="1.0" encoding="utf-8" standalone="no"?>
<!DOCTYPE svg PUBLIC "-//W3C//DTD SVG 1.1//EN"
  "http://www.w3.org/Graphics/SVG/1.1/DTD/svg11.dtd">
<svg xmlns:xlink="http://www.w3.org/1999/xlink" width="460.8pt" height="345.6pt" viewBox="0 0 460.8 345.6" xmlns="http://www.w3.org/2000/svg" version="1.1">
 <metadata>
  <rdf:RDF xmlns:dc="http://purl.org/dc/elements/1.1/" xmlns:cc="http://creativecommons.org/ns#" xmlns:rdf="http://www.w3.org/1999/02/22-rdf-syntax-ns#">
   <cc:Work>
    <dc:type rdf:resource="http://purl.org/dc/dcmitype/StillImage"/>
    <dc:date>2024-06-18T15:36:58.725105</dc:date>
    <dc:format>image/svg+xml</dc:format>
    <dc:creator>
     <cc:Agent>
      <dc:title>Matplotlib v3.7.2, https://matplotlib.org/</dc:title>
     </cc:Agent>
    </dc:creator>
   </cc:Work>
  </rdf:RDF>
 </metadata>
 <defs>
  <style type="text/css">*{stroke-linejoin: round; stroke-linecap: butt}</style>
 </defs>
 <g id="figure_1">
  <g id="patch_1">
   <path d="M 0 345.6 
L 460.8 345.6 
L 460.8 0 
L 0 0 
z
" style="fill: #ffffff"/>
  </g>
  <g id="axes_1">
   <g id="patch_2">
    <path d="M 57.6 307.584 
L 414.72 307.584 
L 414.72 41.472 
L 57.6 41.472 
z
" style="fill: #ffffff"/>
   </g>
   <g id="patch_3">
    <path d="M 73.832727 307.584 
L 73.832727 41.472 
L 236.16 41.472 
L 236.16 307.584 
z
" clip-path="url(#p4759f17ed1)" style="fill: #add8e6; opacity: 0.2"/>
   </g>
   <g id="patch_4">
    <path d="M 236.16 307.584 
L 236.16 41.472 
L 398.487273 41.472 
L 398.487273 307.584 
z
" clip-path="url(#p4759f17ed1)" style="fill: #ff7f50; opacity: 0.2"/>
   </g>
   <g id="matplotlib.axis_1">
    <g id="xtick_1">
     <g id="line2d_1">
      <defs>
       <path id="m0373a4c2f6" d="M 0 0 
L 0 3.5 
" style="stroke: #000000; stroke-width: 0.8"/>
      </defs>
      <g>
       <use xlink:href="#m0373a4c2f6" x="73.832727" y="307.584" style="stroke: #000000; stroke-width: 0.8"/>
      </g>
     </g>
     <g id="text_1">
      <!-- 0 -->
      <g transform="translate(70.651477 322.182437) scale(0.1 -0.1)">
       <defs>
        <path id="DejaVuSans-30" d="M 2034 4250 
Q 1547 4250 1301 3770 
Q 1056 3291 1056 2328 
Q 1056 1369 1301 889 
Q 1547 409 2034 409 
Q 2525 409 2770 889 
Q 3016 1369 3016 2328 
Q 3016 3291 2770 3770 
Q 2525 4250 2034 4250 
z
M 2034 4750 
Q 2819 4750 3233 4129 
Q 3647 3509 3647 2328 
Q 3647 1150 3233 529 
Q 2819 -91 2034 -91 
Q 1250 -91 836 529 
Q 422 1150 422 2328 
Q 422 3509 836 4129 
Q 1250 4750 2034 4750 
z
" transform="scale(0.015625)"/>
       </defs>
       <use xlink:href="#DejaVuSans-30"/>
      </g>
     </g>
    </g>
    <g id="xtick_2">
     <g id="line2d_2">
      <g>
       <use xlink:href="#m0373a4c2f6" x="114.414545" y="307.584" style="stroke: #000000; stroke-width: 0.8"/>
      </g>
     </g>
     <g id="text_2">
      <!-- 5 -->
      <g transform="translate(111.233295 322.182437) scale(0.1 -0.1)">
       <defs>
        <path id="DejaVuSans-35" d="M 691 4666 
L 3169 4666 
L 3169 4134 
L 1269 4134 
L 1269 2991 
Q 1406 3038 1543 3061 
Q 1681 3084 1819 3084 
Q 2600 3084 3056 2656 
Q 3513 2228 3513 1497 
Q 3513 744 3044 326 
Q 2575 -91 1722 -91 
Q 1428 -91 1123 -41 
Q 819 9 494 109 
L 494 744 
Q 775 591 1075 516 
Q 1375 441 1709 441 
Q 2250 441 2565 725 
Q 2881 1009 2881 1497 
Q 2881 1984 2565 2268 
Q 2250 2553 1709 2553 
Q 1456 2553 1204 2497 
Q 953 2441 691 2322 
L 691 4666 
z
" transform="scale(0.015625)"/>
       </defs>
       <use xlink:href="#DejaVuSans-35"/>
      </g>
     </g>
    </g>
    <g id="xtick_3">
     <g id="line2d_3">
      <g>
       <use xlink:href="#m0373a4c2f6" x="154.996364" y="307.584" style="stroke: #000000; stroke-width: 0.8"/>
      </g>
     </g>
     <g id="text_3">
      <!-- 10 -->
      <g transform="translate(148.633864 322.182437) scale(0.1 -0.1)">
       <defs>
        <path id="DejaVuSans-31" d="M 794 531 
L 1825 531 
L 1825 4091 
L 703 3866 
L 703 4441 
L 1819 4666 
L 2450 4666 
L 2450 531 
L 3481 531 
L 3481 0 
L 794 0 
L 794 531 
z
" transform="scale(0.015625)"/>
       </defs>
       <use xlink:href="#DejaVuSans-31"/>
       <use xlink:href="#DejaVuSans-30" x="63.623047"/>
      </g>
     </g>
    </g>
    <g id="xtick_4">
     <g id="line2d_4">
      <g>
       <use xlink:href="#m0373a4c2f6" x="195.578182" y="307.584" style="stroke: #000000; stroke-width: 0.8"/>
      </g>
     </g>
     <g id="text_4">
      <!-- 15 -->
      <g transform="translate(189.215682 322.182437) scale(0.1 -0.1)">
       <use xlink:href="#DejaVuSans-31"/>
       <use xlink:href="#DejaVuSans-35" x="63.623047"/>
      </g>
     </g>
    </g>
    <g id="xtick_5">
     <g id="line2d_5">
      <g>
       <use xlink:href="#m0373a4c2f6" x="236.16" y="307.584" style="stroke: #000000; stroke-width: 0.8"/>
      </g>
     </g>
     <g id="text_5">
      <!-- 20 -->
      <g transform="translate(229.7975 322.182437) scale(0.1 -0.1)">
       <defs>
        <path id="DejaVuSans-32" d="M 1228 531 
L 3431 531 
L 3431 0 
L 469 0 
L 469 531 
Q 828 903 1448 1529 
Q 2069 2156 2228 2338 
Q 2531 2678 2651 2914 
Q 2772 3150 2772 3378 
Q 2772 3750 2511 3984 
Q 2250 4219 1831 4219 
Q 1534 4219 1204 4116 
Q 875 4013 500 3803 
L 500 4441 
Q 881 4594 1212 4672 
Q 1544 4750 1819 4750 
Q 2544 4750 2975 4387 
Q 3406 4025 3406 3419 
Q 3406 3131 3298 2873 
Q 3191 2616 2906 2266 
Q 2828 2175 2409 1742 
Q 1991 1309 1228 531 
z
" transform="scale(0.015625)"/>
       </defs>
       <use xlink:href="#DejaVuSans-32"/>
       <use xlink:href="#DejaVuSans-30" x="63.623047"/>
      </g>
     </g>
    </g>
    <g id="xtick_6">
     <g id="line2d_6">
      <g>
       <use xlink:href="#m0373a4c2f6" x="276.741818" y="307.584" style="stroke: #000000; stroke-width: 0.8"/>
      </g>
     </g>
     <g id="text_6">
      <!-- 25 -->
      <g transform="translate(270.379318 322.182437) scale(0.1 -0.1)">
       <use xlink:href="#DejaVuSans-32"/>
       <use xlink:href="#DejaVuSans-35" x="63.623047"/>
      </g>
     </g>
    </g>
    <g id="xtick_7">
     <g id="line2d_7">
      <g>
       <use xlink:href="#m0373a4c2f6" x="317.323636" y="307.584" style="stroke: #000000; stroke-width: 0.8"/>
      </g>
     </g>
     <g id="text_7">
      <!-- 30 -->
      <g transform="translate(310.961136 322.182437) scale(0.1 -0.1)">
       <defs>
        <path id="DejaVuSans-33" d="M 2597 2516 
Q 3050 2419 3304 2112 
Q 3559 1806 3559 1356 
Q 3559 666 3084 287 
Q 2609 -91 1734 -91 
Q 1441 -91 1130 -33 
Q 819 25 488 141 
L 488 750 
Q 750 597 1062 519 
Q 1375 441 1716 441 
Q 2309 441 2620 675 
Q 2931 909 2931 1356 
Q 2931 1769 2642 2001 
Q 2353 2234 1838 2234 
L 1294 2234 
L 1294 2753 
L 1863 2753 
Q 2328 2753 2575 2939 
Q 2822 3125 2822 3475 
Q 2822 3834 2567 4026 
Q 2313 4219 1838 4219 
Q 1578 4219 1281 4162 
Q 984 4106 628 3988 
L 628 4550 
Q 988 4650 1302 4700 
Q 1616 4750 1894 4750 
Q 2613 4750 3031 4423 
Q 3450 4097 3450 3541 
Q 3450 3153 3228 2886 
Q 3006 2619 2597 2516 
z
" transform="scale(0.015625)"/>
       </defs>
       <use xlink:href="#DejaVuSans-33"/>
       <use xlink:href="#DejaVuSans-30" x="63.623047"/>
      </g>
     </g>
    </g>
    <g id="xtick_8">
     <g id="line2d_8">
      <g>
       <use xlink:href="#m0373a4c2f6" x="357.905455" y="307.584" style="stroke: #000000; stroke-width: 0.8"/>
      </g>
     </g>
     <g id="text_8">
      <!-- 35 -->
      <g transform="translate(351.542955 322.182437) scale(0.1 -0.1)">
       <use xlink:href="#DejaVuSans-33"/>
       <use xlink:href="#DejaVuSans-35" x="63.623047"/>
      </g>
     </g>
    </g>
    <g id="xtick_9">
     <g id="line2d_9">
      <g>
       <use xlink:href="#m0373a4c2f6" x="398.487273" y="307.584" style="stroke: #000000; stroke-width: 0.8"/>
      </g>
     </g>
     <g id="text_9">
      <!-- 40 -->
      <g transform="translate(392.124773 322.182437) scale(0.1 -0.1)">
       <defs>
        <path id="DejaVuSans-34" d="M 2419 4116 
L 825 1625 
L 2419 1625 
L 2419 4116 
z
M 2253 4666 
L 3047 4666 
L 3047 1625 
L 3713 1625 
L 3713 1100 
L 3047 1100 
L 3047 0 
L 2419 0 
L 2419 1100 
L 313 1100 
L 313 1709 
L 2253 4666 
z
" transform="scale(0.015625)"/>
       </defs>
       <use xlink:href="#DejaVuSans-34"/>
       <use xlink:href="#DejaVuSans-30" x="63.623047"/>
      </g>
     </g>
    </g>
    <g id="text_10">
     <!-- t -->
     <g transform="translate(234.199844 335.860562) scale(0.1 -0.1)">
      <defs>
       <path id="DejaVuSans-74" d="M 1172 4494 
L 1172 3500 
L 2356 3500 
L 2356 3053 
L 1172 3053 
L 1172 1153 
Q 1172 725 1289 603 
Q 1406 481 1766 481 
L 2356 481 
L 2356 0 
L 1766 0 
Q 1100 0 847 248 
Q 594 497 594 1153 
L 594 3053 
L 172 3053 
L 172 3500 
L 594 3500 
L 594 4494 
L 1172 4494 
z
" transform="scale(0.015625)"/>
      </defs>
      <use xlink:href="#DejaVuSans-74"/>
     </g>
    </g>
   </g>
   <g id="matplotlib.axis_2">
    <g id="ytick_1">
     <g id="line2d_10">
      <defs>
       <path id="mdb519b3ed0" d="M 0 0 
L -3.5 0 
" style="stroke: #000000; stroke-width: 0.8"/>
      </defs>
      <g>
       <use xlink:href="#mdb519b3ed0" x="57.6" y="307.584" style="stroke: #000000; stroke-width: 0.8"/>
      </g>
     </g>
     <g id="text_11">
      <!-- 0.0 -->
      <g transform="translate(34.696875 311.383219) scale(0.1 -0.1)">
       <defs>
        <path id="DejaVuSans-2e" d="M 684 794 
L 1344 794 
L 1344 0 
L 684 0 
L 684 794 
z
" transform="scale(0.015625)"/>
       </defs>
       <use xlink:href="#DejaVuSans-30"/>
       <use xlink:href="#DejaVuSans-2e" x="63.623047"/>
       <use xlink:href="#DejaVuSans-30" x="95.410156"/>
      </g>
     </g>
    </g>
    <g id="ytick_2">
     <g id="line2d_11">
      <g>
       <use xlink:href="#mdb519b3ed0" x="57.6" y="254.3616" style="stroke: #000000; stroke-width: 0.8"/>
      </g>
     </g>
     <g id="text_12">
      <!-- 0.2 -->
      <g transform="translate(34.696875 258.160819) scale(0.1 -0.1)">
       <use xlink:href="#DejaVuSans-30"/>
       <use xlink:href="#DejaVuSans-2e" x="63.623047"/>
       <use xlink:href="#DejaVuSans-32" x="95.410156"/>
      </g>
     </g>
    </g>
    <g id="ytick_3">
     <g id="line2d_12">
      <g>
       <use xlink:href="#mdb519b3ed0" x="57.6" y="201.1392" style="stroke: #000000; stroke-width: 0.8"/>
      </g>
     </g>
     <g id="text_13">
      <!-- 0.4 -->
      <g transform="translate(34.696875 204.938419) scale(0.1 -0.1)">
       <use xlink:href="#DejaVuSans-30"/>
       <use xlink:href="#DejaVuSans-2e" x="63.623047"/>
       <use xlink:href="#DejaVuSans-34" x="95.410156"/>
      </g>
     </g>
    </g>
    <g id="ytick_4">
     <g id="line2d_13">
      <g>
       <use xlink:href="#mdb519b3ed0" x="57.6" y="147.9168" style="stroke: #000000; stroke-width: 0.8"/>
      </g>
     </g>
     <g id="text_14">
      <!-- 0.6 -->
      <g transform="translate(34.696875 151.716019) scale(0.1 -0.1)">
       <defs>
        <path id="DejaVuSans-36" d="M 2113 2584 
Q 1688 2584 1439 2293 
Q 1191 2003 1191 1497 
Q 1191 994 1439 701 
Q 1688 409 2113 409 
Q 2538 409 2786 701 
Q 3034 994 3034 1497 
Q 3034 2003 2786 2293 
Q 2538 2584 2113 2584 
z
M 3366 4563 
L 3366 3988 
Q 3128 4100 2886 4159 
Q 2644 4219 2406 4219 
Q 1781 4219 1451 3797 
Q 1122 3375 1075 2522 
Q 1259 2794 1537 2939 
Q 1816 3084 2150 3084 
Q 2853 3084 3261 2657 
Q 3669 2231 3669 1497 
Q 3669 778 3244 343 
Q 2819 -91 2113 -91 
Q 1303 -91 875 529 
Q 447 1150 447 2328 
Q 447 3434 972 4092 
Q 1497 4750 2381 4750 
Q 2619 4750 2861 4703 
Q 3103 4656 3366 4563 
z
" transform="scale(0.015625)"/>
       </defs>
       <use xlink:href="#DejaVuSans-30"/>
       <use xlink:href="#DejaVuSans-2e" x="63.623047"/>
       <use xlink:href="#DejaVuSans-36" x="95.410156"/>
      </g>
     </g>
    </g>
    <g id="ytick_5">
     <g id="line2d_14">
      <g>
       <use xlink:href="#mdb519b3ed0" x="57.6" y="94.6944" style="stroke: #000000; stroke-width: 0.8"/>
      </g>
     </g>
     <g id="text_15">
      <!-- 0.8 -->
      <g transform="translate(34.696875 98.493619) scale(0.1 -0.1)">
       <defs>
        <path id="DejaVuSans-38" d="M 2034 2216 
Q 1584 2216 1326 1975 
Q 1069 1734 1069 1313 
Q 1069 891 1326 650 
Q 1584 409 2034 409 
Q 2484 409 2743 651 
Q 3003 894 3003 1313 
Q 3003 1734 2745 1975 
Q 2488 2216 2034 2216 
z
M 1403 2484 
Q 997 2584 770 2862 
Q 544 3141 544 3541 
Q 544 4100 942 4425 
Q 1341 4750 2034 4750 
Q 2731 4750 3128 4425 
Q 3525 4100 3525 3541 
Q 3525 3141 3298 2862 
Q 3072 2584 2669 2484 
Q 3125 2378 3379 2068 
Q 3634 1759 3634 1313 
Q 3634 634 3220 271 
Q 2806 -91 2034 -91 
Q 1263 -91 848 271 
Q 434 634 434 1313 
Q 434 1759 690 2068 
Q 947 2378 1403 2484 
z
M 1172 3481 
Q 1172 3119 1398 2916 
Q 1625 2713 2034 2713 
Q 2441 2713 2670 2916 
Q 2900 3119 2900 3481 
Q 2900 3844 2670 4047 
Q 2441 4250 2034 4250 
Q 1625 4250 1398 4047 
Q 1172 3844 1172 3481 
z
" transform="scale(0.015625)"/>
       </defs>
       <use xlink:href="#DejaVuSans-30"/>
       <use xlink:href="#DejaVuSans-2e" x="63.623047"/>
       <use xlink:href="#DejaVuSans-38" x="95.410156"/>
      </g>
     </g>
    </g>
    <g id="ytick_6">
     <g id="line2d_15">
      <g>
       <use xlink:href="#mdb519b3ed0" x="57.6" y="41.472" style="stroke: #000000; stroke-width: 0.8"/>
      </g>
     </g>
     <g id="text_16">
      <!-- 1.0 -->
      <g transform="translate(34.696875 45.271219) scale(0.1 -0.1)">
       <use xlink:href="#DejaVuSans-31"/>
       <use xlink:href="#DejaVuSans-2e" x="63.623047"/>
       <use xlink:href="#DejaVuSans-30" x="95.410156"/>
      </g>
     </g>
    </g>
    <g id="text_17">
     <!-- p(context) -->
     <g transform="translate(28.617187 200.449875) rotate(-90) scale(0.1 -0.1)">
      <defs>
       <path id="DejaVuSans-70" d="M 1159 525 
L 1159 -1331 
L 581 -1331 
L 581 3500 
L 1159 3500 
L 1159 2969 
Q 1341 3281 1617 3432 
Q 1894 3584 2278 3584 
Q 2916 3584 3314 3078 
Q 3713 2572 3713 1747 
Q 3713 922 3314 415 
Q 2916 -91 2278 -91 
Q 1894 -91 1617 61 
Q 1341 213 1159 525 
z
M 3116 1747 
Q 3116 2381 2855 2742 
Q 2594 3103 2138 3103 
Q 1681 3103 1420 2742 
Q 1159 2381 1159 1747 
Q 1159 1113 1420 752 
Q 1681 391 2138 391 
Q 2594 391 2855 752 
Q 3116 1113 3116 1747 
z
" transform="scale(0.015625)"/>
       <path id="DejaVuSans-28" d="M 1984 4856 
Q 1566 4138 1362 3434 
Q 1159 2731 1159 2009 
Q 1159 1288 1364 580 
Q 1569 -128 1984 -844 
L 1484 -844 
Q 1016 -109 783 600 
Q 550 1309 550 2009 
Q 550 2706 781 3412 
Q 1013 4119 1484 4856 
L 1984 4856 
z
" transform="scale(0.015625)"/>
       <path id="DejaVuSans-63" d="M 3122 3366 
L 3122 2828 
Q 2878 2963 2633 3030 
Q 2388 3097 2138 3097 
Q 1578 3097 1268 2742 
Q 959 2388 959 1747 
Q 959 1106 1268 751 
Q 1578 397 2138 397 
Q 2388 397 2633 464 
Q 2878 531 3122 666 
L 3122 134 
Q 2881 22 2623 -34 
Q 2366 -91 2075 -91 
Q 1284 -91 818 406 
Q 353 903 353 1747 
Q 353 2603 823 3093 
Q 1294 3584 2113 3584 
Q 2378 3584 2631 3529 
Q 2884 3475 3122 3366 
z
" transform="scale(0.015625)"/>
       <path id="DejaVuSans-6f" d="M 1959 3097 
Q 1497 3097 1228 2736 
Q 959 2375 959 1747 
Q 959 1119 1226 758 
Q 1494 397 1959 397 
Q 2419 397 2687 759 
Q 2956 1122 2956 1747 
Q 2956 2369 2687 2733 
Q 2419 3097 1959 3097 
z
M 1959 3584 
Q 2709 3584 3137 3096 
Q 3566 2609 3566 1747 
Q 3566 888 3137 398 
Q 2709 -91 1959 -91 
Q 1206 -91 779 398 
Q 353 888 353 1747 
Q 353 2609 779 3096 
Q 1206 3584 1959 3584 
z
" transform="scale(0.015625)"/>
       <path id="DejaVuSans-6e" d="M 3513 2113 
L 3513 0 
L 2938 0 
L 2938 2094 
Q 2938 2591 2744 2837 
Q 2550 3084 2163 3084 
Q 1697 3084 1428 2787 
Q 1159 2491 1159 1978 
L 1159 0 
L 581 0 
L 581 3500 
L 1159 3500 
L 1159 2956 
Q 1366 3272 1645 3428 
Q 1925 3584 2291 3584 
Q 2894 3584 3203 3211 
Q 3513 2838 3513 2113 
z
" transform="scale(0.015625)"/>
       <path id="DejaVuSans-65" d="M 3597 1894 
L 3597 1613 
L 953 1613 
Q 991 1019 1311 708 
Q 1631 397 2203 397 
Q 2534 397 2845 478 
Q 3156 559 3463 722 
L 3463 178 
Q 3153 47 2828 -22 
Q 2503 -91 2169 -91 
Q 1331 -91 842 396 
Q 353 884 353 1716 
Q 353 2575 817 3079 
Q 1281 3584 2069 3584 
Q 2775 3584 3186 3129 
Q 3597 2675 3597 1894 
z
M 3022 2063 
Q 3016 2534 2758 2815 
Q 2500 3097 2075 3097 
Q 1594 3097 1305 2825 
Q 1016 2553 972 2059 
L 3022 2063 
z
" transform="scale(0.015625)"/>
       <path id="DejaVuSans-78" d="M 3513 3500 
L 2247 1797 
L 3578 0 
L 2900 0 
L 1881 1375 
L 863 0 
L 184 0 
L 1544 1831 
L 300 3500 
L 978 3500 
L 1906 2253 
L 2834 3500 
L 3513 3500 
z
" transform="scale(0.015625)"/>
       <path id="DejaVuSans-29" d="M 513 4856 
L 1013 4856 
Q 1481 4119 1714 3412 
Q 1947 2706 1947 2009 
Q 1947 1309 1714 600 
Q 1481 -109 1013 -844 
L 513 -844 
Q 928 -128 1133 580 
Q 1338 1288 1338 2009 
Q 1338 2731 1133 3434 
Q 928 4138 513 4856 
z
" transform="scale(0.015625)"/>
      </defs>
      <use xlink:href="#DejaVuSans-70"/>
      <use xlink:href="#DejaVuSans-28" x="63.476562"/>
      <use xlink:href="#DejaVuSans-63" x="102.490234"/>
      <use xlink:href="#DejaVuSans-6f" x="157.470703"/>
      <use xlink:href="#DejaVuSans-6e" x="218.652344"/>
      <use xlink:href="#DejaVuSans-74" x="282.03125"/>
      <use xlink:href="#DejaVuSans-65" x="321.240234"/>
      <use xlink:href="#DejaVuSans-78" x="381.013672"/>
      <use xlink:href="#DejaVuSans-74" x="440.193359"/>
      <use xlink:href="#DejaVuSans-29" x="479.402344"/>
     </g>
    </g>
   </g>
   <g id="line2d_16">
    <path d="M 73.832727 280.9728 
L 81.949091 95.465868 
L 90.065455 278.27023 
L 98.181818 302.84024 
L 106.298182 147.152052 
L 114.414545 283.350795 
L 122.530909 301.258026 
L 130.647273 164.518119 
L 138.763636 93.462918 
L 146.88 76.069366 
L 154.996364 69.236136 
L 163.112727 65.064208 
L 171.229091 62.060304 
L 179.345455 59.763695 
L 187.461818 57.948702 
L 195.578182 56.479095 
L 203.694545 55.265637 
L 211.810909 54.247215 
L 219.927273 53.380584 
L 228.043636 52.634313 
L 236.16 82.472234 
L 244.276364 253.268712 
L 252.392727 297.303171 
L 260.509091 302.827378 
L 268.625455 150.866545 
L 276.741818 71.301619 
L 284.858182 57.391461 
L 292.974545 222.140181 
L 301.090909 96.276663 
L 309.207273 241.273542 
L 317.323636 288.530297 
L 325.44 147.838361 
L 333.556364 258.143035 
L 341.672727 288.885387 
L 349.789091 295.359548 
L 357.905455 297.249328 
L 366.021818 161.910116 
L 374.138182 261.987357 
L 382.254545 289.349898 
L 390.370909 295.161668 
" clip-path="url(#p4759f17ed1)" style="fill: none; stroke: #add8e6; stroke-opacity: 0.3; stroke-width: 1.5; stroke-linecap: square"/>
   </g>
   <g id="line2d_17">
    <path d="M 73.832727 280.9728 
L 81.949091 306.069722 
L 90.065455 155.499815 
L 98.181818 79.326517 
L 106.298182 62.123628 
L 114.414545 56.166258 
L 122.530909 258.08295 
L 130.647273 105.677022 
L 138.763636 265.586885 
L 146.88 123.986554 
L 154.996364 75.827633 
L 163.112727 65.718686 
L 171.229091 230.249531 
L 179.345455 110.763984 
L 187.461818 241.458985 
L 195.578182 123.962264 
L 203.694545 85.739442 
L 211.810909 76.228689 
L 219.927273 72.896316 
L 228.043636 70.896251 
L 236.16 109.688733 
L 244.276364 246.172537 
L 252.392727 281.770087 
L 260.509091 140.693977 
L 268.625455 249.229148 
L 276.741818 278.23098 
L 284.858182 285.774967 
L 292.974545 288.900038 
L 301.090909 290.991989 
L 309.207273 155.822739 
L 317.323636 256.00548 
L 325.44 282.118277 
L 333.556364 288.302653 
L 341.672727 290.512428 
L 349.789091 291.901441 
L 357.905455 293.036038 
L 366.021818 294.026847 
L 374.138182 162.278378 
L 382.254545 97.771179 
L 390.370909 81.163624 
" clip-path="url(#p4759f17ed1)" style="fill: none; stroke: #add8e6; stroke-opacity: 0.3; stroke-width: 1.5; stroke-linecap: square"/>
   </g>
   <g id="line2d_18">
    <path d="M 73.832727 280.9728 
L 81.949091 95.465868 
L 90.065455 59.628059 
L 98.181818 52.897037 
L 106.298182 50.166948 
L 114.414545 48.598323 
L 122.530909 47.558721 
L 130.647273 46.812943 
L 138.763636 225.705509 
L 146.88 298.698138 
L 154.996364 120.2355 
L 163.112727 270.144206 
L 171.229091 108.425019 
L 179.345455 60.064246 
L 187.461818 53.335182 
L 195.578182 51.90218 
L 203.694545 51.135068 
L 211.810909 50.521026 
L 219.927273 49.991317 
L 228.043636 49.526601 
L 236.16 70.855634 
L 244.276364 230.501376 
L 252.392727 291.862994 
L 260.509091 129.463415 
L 268.625455 257.461763 
L 276.741818 112.627647 
L 284.858182 240.375227 
L 292.974545 284.993504 
L 301.090909 294.586598 
L 309.207273 297.333549 
L 317.323636 298.800414 
L 325.44 153.880619 
L 333.556364 260.631034 
L 341.672727 290.898153 
L 349.789091 152.293076 
L 357.905455 255.343543 
L 366.021818 287.01196 
L 374.138182 294.047173 
L 382.254545 296.039432 
L 390.370909 251.648372 
" clip-path="url(#p4759f17ed1)" style="fill: none; stroke: #add8e6; stroke-opacity: 0.3; stroke-width: 1.5; stroke-linecap: square"/>
   </g>
   <g id="line2d_19">
    <path d="M 73.832727 280.9728 
L 81.949091 95.465868 
L 90.065455 59.628059 
L 98.181818 52.897037 
L 106.298182 50.166948 
L 114.414545 48.598323 
L 122.530909 47.558721 
L 130.647273 46.812943 
L 138.763636 46.249084 
L 146.88 225.418875 
L 154.996364 71.923116 
L 163.112727 50.250853 
L 171.229091 48.145895 
L 179.345455 211.943637 
L 187.461818 74.169234 
L 195.578182 52.236566 
L 203.694545 49.819596 
L 211.810909 201.885226 
L 219.927273 75.526021 
L 228.043636 54.006436 
L 236.16 73.281049 
L 244.276364 232.588183 
L 252.392727 289.866787 
L 260.509091 299.398033 
L 268.625455 301.920196 
L 276.741818 303.210916 
L 284.858182 304.049174 
L 292.974545 304.638827 
L 301.090909 305.073089 
L 309.207273 149.18598 
L 317.323636 64.247006 
L 325.44 225.592989 
L 333.556364 293.511747 
L 341.672727 302.731469 
L 349.789091 303.962945 
L 357.905455 304.378059 
L 366.021818 272.168166 
L 374.138182 301.440565 
L 382.254545 270.878282 
L 390.370909 108.180109 
" clip-path="url(#p4759f17ed1)" style="fill: none; stroke: #add8e6; stroke-opacity: 0.3; stroke-width: 1.5; stroke-linecap: square"/>
   </g>
   <g id="line2d_20">
    <path d="M 73.832727 280.9728 
L 81.949091 95.465868 
L 90.065455 59.628059 
L 98.181818 52.897037 
L 106.298182 239.000011 
L 114.414545 297.522056 
L 122.530909 304.223181 
L 130.647273 144.769789 
L 138.763636 277.707399 
L 146.88 126.357052 
L 154.996364 72.142187 
L 163.112727 62.400532 
L 171.229091 59.301999 
L 179.345455 57.378125 
L 187.461818 225.092735 
L 195.578182 96.16062 
L 203.694545 239.195487 
L 211.810909 110.931056 
L 219.927273 72.671557 
L 228.043636 64.993263 
L 236.16 102.871485 
L 244.276364 245.274022 
L 252.392727 286.341426 
L 260.509091 294.770125 
L 268.625455 297.267472 
L 276.741818 298.66782 
L 284.858182 153.915836 
L 292.974545 82.464726 
L 301.090909 230.581853 
L 309.207273 114.568787 
L 317.323636 239.309635 
L 325.44 280.069041 
L 333.556364 151.326971 
L 341.672727 93.024984 
L 349.789091 77.958511 
L 357.905455 73.785039 
L 366.021818 71.955459 
L 374.138182 70.667416 
L 382.254545 213.872936 
L 390.370909 113.326363 
" clip-path="url(#p4759f17ed1)" style="fill: none; stroke: #add8e6; stroke-opacity: 0.3; stroke-width: 1.5; stroke-linecap: square"/>
   </g>
   <g id="line2d_21">
    <path d="M 73.832727 280.9728 
L 81.949091 95.465868 
L 90.065455 278.27023 
L 98.181818 302.84024 
L 106.298182 147.152052 
L 114.414545 78.096633 
L 122.530909 64.809365 
L 130.647273 59.83577 
L 138.763636 56.86729 
L 146.88 236.510032 
L 154.996364 95.211223 
L 163.112727 63.931125 
L 171.229091 58.816577 
L 179.345455 221.561454 
L 187.461818 94.89756 
L 195.578182 65.974163 
L 203.694545 213.976334 
L 211.810909 276.119567 
L 219.927273 291.312024 
L 228.043636 145.437871 
L 236.16 146.235628 
L 244.276364 84.376908 
L 252.392727 210.902276 
L 260.509091 263.688206 
L 268.625455 279.557881 
L 276.741818 284.803685 
L 284.858182 147.50557 
L 292.974545 238.07847 
L 301.090909 270.363256 
L 309.207273 145.107785 
L 317.323636 232.316693 
L 325.44 130.728667 
L 333.556364 221.708281 
L 341.672727 255.574611 
L 349.789091 147.189027 
L 357.905455 223.84003 
L 366.021818 251.735717 
L 374.138182 261.092268 
L 382.254545 216.583301 
L 390.370909 251.045908 
" clip-path="url(#p4759f17ed1)" style="fill: none; stroke: #add8e6; stroke-opacity: 0.3; stroke-width: 1.5; stroke-linecap: square"/>
   </g>
   <g id="line2d_22">
    <path d="M 73.832727 280.9728 
L 81.949091 306.069722 
L 90.065455 155.499815 
L 98.181818 79.326517 
L 106.298182 62.123628 
L 114.414545 265.083867 
L 122.530909 114.331495 
L 130.647273 70.532176 
L 138.763636 61.89529 
L 146.88 58.693142 
L 154.996364 239.219919 
L 163.112727 292.83137 
L 171.229091 300.91107 
L 179.345455 158.894146 
L 187.461818 273.914008 
L 195.578182 296.532488 
L 203.694545 164.967793 
L 211.810909 92.539439 
L 219.927273 73.8531 
L 228.043636 68.642782 
L 236.16 113.572198 
L 244.276364 246.158956 
L 252.392727 284.734083 
L 260.509091 293.163397 
L 268.625455 295.656785 
L 276.741818 297.015187 
L 284.858182 298.048047 
L 292.974545 298.907473 
L 301.090909 299.639506 
L 309.207273 261.9873 
L 317.323636 294.647495 
L 325.44 259.826576 
L 333.556364 126.970937 
L 341.672727 77.968553 
L 349.789091 237.017418 
L 357.905455 286.975308 
L 366.021818 252.604385 
L 374.138182 124.97858 
L 382.254545 252.109519 
L 390.370909 287.612207 
" clip-path="url(#p4759f17ed1)" style="fill: none; stroke: #add8e6; stroke-opacity: 0.3; stroke-width: 1.5; stroke-linecap: square"/>
   </g>
   <g id="line2d_23">
    <path d="M 73.832727 280.9728 
L 81.949091 306.069722 
L 90.065455 307.060307 
L 98.181818 173.620848 
L 106.298182 84.134424 
L 114.414545 63.428643 
L 122.530909 56.684012 
L 130.647273 53.385088 
L 138.763636 51.373129 
L 146.88 49.999529 
L 154.996364 48.995746 
L 163.112727 253.318637 
L 171.229091 94.665895 
L 179.345455 56.471164 
L 187.461818 51.432223 
L 195.578182 50.310534 
L 203.694545 234.133605 
L 211.810909 92.91602 
L 219.927273 58.179301 
L 228.043636 52.932676 
L 236.16 77.983646 
L 244.276364 55.079999 
L 252.392727 51.743807 
L 260.509091 50.969194 
L 268.625455 50.53157 
L 276.741818 227.914308 
L 284.858182 91.416766 
L 292.974545 58.254185 
L 301.090909 222.20184 
L 309.207273 289.945154 
L 317.323636 300.155722 
L 325.44 302.1099 
L 333.556364 303.03559 
L 341.672727 157.015647 
L 349.789091 276.437344 
L 357.905455 299.44828 
L 366.021818 302.438165 
L 374.138182 303.199051 
L 382.254545 303.66857 
L 390.370909 304.046292 
" clip-path="url(#p4759f17ed1)" style="fill: none; stroke: #add8e6; stroke-opacity: 0.3; stroke-width: 1.5; stroke-linecap: square"/>
   </g>
   <g id="line2d_24">
    <path d="M 73.832727 280.9728 
L 81.949091 95.465868 
L 90.065455 59.628059 
L 98.181818 52.897037 
L 106.298182 50.166948 
L 114.414545 232.491463 
L 122.530909 79.482101 
L 130.647273 241.710617 
L 138.763636 92.577444 
L 146.88 61.187246 
L 154.996364 56.59756 
L 163.112727 55.005933 
L 171.229091 53.895618 
L 179.345455 52.985064 
L 187.461818 209.931122 
L 195.578182 81.501473 
L 203.694545 221.274207 
L 211.810909 91.071981 
L 219.927273 62.769304 
L 228.043636 195.857868 
L 236.16 153.410057 
L 244.276364 248.105771 
L 252.392727 276.900593 
L 260.509091 285.719313 
L 268.625455 289.923107 
L 276.741818 292.725793 
L 284.858182 294.833795 
L 292.974545 296.48396 
L 301.090909 144.251387 
L 309.207273 77.35497 
L 317.323636 216.782562 
L 325.44 275.724371 
L 333.556364 290.025653 
L 341.672727 293.607685 
L 349.789091 295.12818 
L 357.905455 296.181719 
L 366.021818 251.220935 
L 374.138182 288.599172 
L 382.254545 296.123312 
L 390.370909 254.184653 
" clip-path="url(#p4759f17ed1)" style="fill: none; stroke: #add8e6; stroke-opacity: 0.3; stroke-width: 1.5; stroke-linecap: square"/>
   </g>
   <g id="line2d_25">
    <path d="M 73.832727 280.9728 
L 81.949091 95.465868 
L 90.065455 59.628059 
L 98.181818 52.897037 
L 106.298182 50.166948 
L 114.414545 48.598323 
L 122.530909 228.768061 
L 130.647273 76.411792 
L 138.763636 53.35791 
L 146.88 50.665896 
L 154.996364 49.733195 
L 163.112727 49.061067 
L 171.229091 214.492048 
L 179.345455 75.760412 
L 187.461818 228.177353 
L 195.578182 86.44085 
L 203.694545 57.604784 
L 211.810909 53.829241 
L 219.927273 196.107923 
L 228.043636 80.455642 
L 236.16 91.823061 
L 244.276364 230.426626 
L 252.392727 280.350949 
L 260.509091 292.100888 
L 268.625455 296.149743 
L 276.741818 298.429632 
L 284.858182 299.998555 
L 292.974545 301.153042 
L 301.090909 302.03256 
L 309.207273 302.720083 
L 317.323636 303.269143 
L 325.44 303.715709 
L 333.556364 304.084688 
L 341.672727 270.753314 
L 349.789091 300.995071 
L 357.905455 269.522813 
L 366.021818 301.120096 
L 374.138182 270.758773 
L 382.254545 301.440604 
L 390.370909 272.02704 
" clip-path="url(#p4759f17ed1)" style="fill: none; stroke: #add8e6; stroke-opacity: 0.3; stroke-width: 1.5; stroke-linecap: square"/>
   </g>
   <g id="line2d_26">
    <path d="M 73.832727 280.9728 
L 81.949091 306.069722 
L 90.065455 155.499815 
L 98.181818 79.326517 
L 106.298182 62.123628 
L 114.414545 56.166258 
L 122.530909 258.08295 
L 130.647273 105.677022 
L 138.763636 65.276682 
L 146.88 58.246302 
L 154.996364 55.90105 
L 163.112727 54.414398 
L 171.229091 53.261048 
L 179.345455 234.933611 
L 187.461818 95.569441 
L 195.578182 249.44035 
L 203.694545 111.767887 
L 211.810909 69.474158 
L 219.927273 61.292087 
L 228.043636 213.482765 
L 236.16 172.181691 
L 244.276364 266.68265 
L 252.392727 131.050178 
L 260.509091 243.21428 
L 268.625455 277.609073 
L 276.741818 145.068216 
L 284.858182 242.275518 
L 292.974545 272.989498 
L 301.090909 148.690206 
L 309.207273 98.036346 
L 317.323636 214.339092 
L 325.44 257.603726 
L 333.556364 270.916097 
L 341.672727 275.868624 
L 349.789091 155.130792 
L 357.905455 236.561261 
L 366.021818 139.655901 
L 374.138182 225.910566 
L 382.254545 255.507156 
L 390.370909 264.926754 
" clip-path="url(#p4759f17ed1)" style="fill: none; stroke: #add8e6; stroke-opacity: 0.3; stroke-width: 1.5; stroke-linecap: square"/>
   </g>
   <g id="line2d_27">
    <path d="M 73.832727 280.9728 
L 81.949091 95.465868 
L 90.065455 59.628059 
L 98.181818 52.897037 
L 106.298182 50.166948 
L 114.414545 232.491463 
L 122.530909 79.482101 
L 130.647273 55.205445 
L 138.763636 52.083517 
L 146.88 216.332893 
L 154.996364 80.394306 
L 163.112727 226.705957 
L 171.229091 90.681573 
L 179.345455 62.122385 
L 187.461818 57.847891 
L 195.578182 56.4946 
L 203.694545 55.565967 
L 211.810909 54.778965 
L 219.927273 54.087766 
L 228.043636 202.120117 
L 236.16 152.119839 
L 244.276364 259.743611 
L 252.392727 102.330398 
L 260.509091 224.948669 
L 268.625455 272.997711 
L 276.741818 285.961442 
L 284.858182 290.700462 
L 292.974545 293.464206 
L 301.090909 295.469473 
L 309.207273 297.026344 
L 317.323636 138.692845 
L 325.44 250.454799 
L 333.556364 286.65032 
L 341.672727 294.319163 
L 349.789091 296.410939 
L 357.905455 297.489927 
L 366.021818 146.997631 
L 374.138182 253.329422 
L 382.254545 287.278141 
L 390.370909 245.108269 
" clip-path="url(#p4759f17ed1)" style="fill: none; stroke: #add8e6; stroke-opacity: 0.3; stroke-width: 1.5; stroke-linecap: square"/>
   </g>
   <g id="line2d_28">
    <path d="M 73.832727 280.9728 
L 81.949091 95.465868 
L 90.065455 59.628059 
L 98.181818 52.897037 
L 106.298182 50.166948 
L 114.414545 48.598323 
L 122.530909 228.768061 
L 130.647273 76.411792 
L 138.763636 53.35791 
L 146.88 50.665896 
L 154.996364 49.733195 
L 163.112727 49.061067 
L 171.229091 48.507877 
L 179.345455 48.040198 
L 187.461818 47.639025 
L 195.578182 47.290859 
L 203.694545 46.985662 
L 211.810909 46.715794 
L 219.927273 220.659696 
L 228.043636 73.129753 
L 236.16 76.02573 
L 244.276364 237.192047 
L 252.392727 293.680174 
L 260.509091 301.719402 
L 268.625455 131.470354 
L 276.741818 263.472049 
L 284.858182 109.462171 
L 292.974545 244.462808 
L 301.090909 290.427508 
L 309.207273 298.59784 
L 317.323636 300.625118 
L 325.44 150.909216 
L 333.556364 262.912452 
L 341.672727 293.884297 
L 349.789091 299.314386 
L 357.905455 300.698781 
L 366.021818 301.446687 
L 374.138182 302.024503 
L 382.254545 264.449461 
L 390.370909 297.387709 
" clip-path="url(#p4759f17ed1)" style="fill: none; stroke: #add8e6; stroke-opacity: 0.3; stroke-width: 1.5; stroke-linecap: square"/>
   </g>
   <g id="line2d_29">
    <path d="M 73.832727 280.9728 
L 81.949091 95.465868 
L 90.065455 278.27023 
L 98.181818 112.432105 
L 106.298182 69.586936 
L 114.414545 61.062283 
L 122.530909 57.326676 
L 130.647273 54.951557 
L 138.763636 53.255411 
L 146.88 51.975007 
L 154.996364 50.971671 
L 163.112727 50.162976 
L 171.229091 226.430906 
L 179.345455 80.53948 
L 187.461818 55.245867 
L 195.578182 52.219572 
L 203.694545 51.406108 
L 211.810909 50.855947 
L 219.927273 50.384397 
L 228.043636 49.966169 
L 236.16 69.438803 
L 244.276364 256.016728 
L 252.392727 92.807044 
L 260.509091 255.844548 
L 268.625455 297.442777 
L 276.741818 302.667272 
L 284.858182 303.977325 
L 292.974545 149.781947 
L 301.090909 277.801572 
L 309.207273 300.897325 
L 317.323636 303.608834 
L 325.44 160.693662 
L 333.556364 73.84587 
L 341.672727 233.139267 
L 349.789091 291.78875 
L 357.905455 300.900363 
L 366.021818 302.436124 
L 374.138182 303.044333 
L 382.254545 303.484664 
L 390.370909 267.384535 
" clip-path="url(#p4759f17ed1)" style="fill: none; stroke: #add8e6; stroke-opacity: 0.3; stroke-width: 1.5; stroke-linecap: square"/>
   </g>
   <g id="line2d_30">
    <path d="M 73.832727 280.9728 
L 81.949091 95.465868 
L 90.065455 59.628059 
L 98.181818 52.897037 
L 106.298182 50.166948 
L 114.414545 48.598323 
L 122.530909 47.558721 
L 130.647273 46.812943 
L 138.763636 46.249084 
L 146.88 45.806305 
L 154.996364 225.620201 
L 163.112727 71.212721 
L 171.229091 242.106069 
L 179.345455 297.823415 
L 187.461818 124.595484 
L 195.578182 59.915359 
L 203.694545 51.669747 
L 211.810909 205.436918 
L 219.927273 81.316003 
L 228.043636 56.395459 
L 236.16 79.191988 
L 244.276364 237.583637 
L 252.392727 291.027971 
L 260.509091 129.343293 
L 268.625455 254.370596 
L 276.741818 290.549191 
L 284.858182 297.401739 
L 292.974545 299.481686 
L 301.090909 300.691833 
L 309.207273 152.876283 
L 317.323636 265.309418 
L 325.44 294.218595 
L 333.556364 299.212879 
L 341.672727 158.807532 
L 349.789091 264.332271 
L 357.905455 292.619612 
L 366.021818 297.932256 
L 374.138182 256.210266 
L 382.254545 119.085684 
L 390.370909 246.353757 
" clip-path="url(#p4759f17ed1)" style="fill: none; stroke: #add8e6; stroke-opacity: 0.3; stroke-width: 1.5; stroke-linecap: square"/>
   </g>
   <g id="line2d_31">
    <path d="M 73.832727 280.9728 
L 81.949091 95.465868 
L 90.065455 59.628059 
L 98.181818 52.897037 
L 106.298182 50.166948 
L 114.414545 48.598323 
L 122.530909 47.558721 
L 130.647273 46.812943 
L 138.763636 46.249084 
L 146.88 45.806305 
L 154.996364 45.448471 
L 163.112727 226.161319 
L 171.229091 300.635616 
L 179.345455 119.976949 
L 187.461818 55.296414 
L 195.578182 48.512121 
L 203.694545 214.384181 
L 211.810909 77.521672 
L 219.927273 52.737346 
L 228.043636 49.761187 
L 236.16 69.446439 
L 244.276364 245.841206 
L 252.392727 297.984109 
L 260.509091 303.55514 
L 268.625455 304.678961 
L 276.741818 305.263292 
L 284.858182 305.662186 
L 292.974545 305.953514 
L 301.090909 306.174334 
L 309.207273 306.346543 
L 317.323636 306.484001 
L 325.44 306.59587 
L 333.556364 283.657261 
L 341.672727 305.576739 
L 349.789091 283.674849 
L 357.905455 106.244563 
L 366.021818 274.523291 
L 374.138182 304.254583 
L 382.254545 281.56761 
L 390.370909 304.822467 
" clip-path="url(#p4759f17ed1)" style="fill: none; stroke: #add8e6; stroke-opacity: 0.3; stroke-width: 1.5; stroke-linecap: square"/>
   </g>
   <g id="line2d_32">
    <path d="M 73.832727 280.9728 
L 81.949091 306.069722 
L 90.065455 155.499815 
L 98.181818 79.326517 
L 106.298182 62.123628 
L 114.414545 265.083867 
L 122.530909 114.331495 
L 130.647273 70.532176 
L 138.763636 61.89529 
L 146.88 241.586987 
L 154.996364 108.832276 
L 163.112727 72.149543 
L 171.229091 64.619916 
L 179.345455 61.98035 
L 187.461818 60.287871 
L 195.578182 58.929935 
L 203.694545 226.950083 
L 211.810909 100.90934 
L 219.927273 68.784391 
L 228.043636 62.608538 
L 236.16 94.786183 
L 244.276364 249.797012 
L 252.392727 289.666936 
L 260.509091 296.989108 
L 268.625455 146.846088 
L 276.741818 264.225659 
L 284.858182 131.358641 
L 292.974545 251.245017 
L 301.090909 284.369022 
L 309.207273 291.824732 
L 317.323636 294.356217 
L 325.44 295.897169 
L 333.556364 297.105508 
L 341.672727 298.113818 
L 349.789091 298.969849 
L 357.905455 299.703199 
L 366.021818 300.336124 
L 374.138182 258.668566 
L 382.254545 295.223387 
L 390.370909 300.476253 
" clip-path="url(#p4759f17ed1)" style="fill: none; stroke: #add8e6; stroke-opacity: 0.3; stroke-width: 1.5; stroke-linecap: square"/>
   </g>
   <g id="line2d_33">
    <path d="M 73.832727 280.9728 
L 81.949091 95.465868 
L 90.065455 59.628059 
L 98.181818 251.15817 
L 106.298182 92.955524 
L 114.414545 62.32598 
L 122.530909 231.446252 
L 130.647273 288.379197 
L 138.763636 129.729646 
L 146.88 74.709431 
L 154.996364 65.234481 
L 163.112727 218.769147 
L 171.229091 277.645048 
L 179.345455 132.415988 
L 187.461818 81.132659 
L 195.578182 70.969096 
L 203.694545 67.832546 
L 211.810909 65.921244 
L 219.927273 210.817946 
L 228.043636 100.728625 
L 236.16 121.838616 
L 244.276364 240.780886 
L 252.392727 276.472122 
L 260.509091 286.007946 
L 268.625455 289.740404 
L 276.741818 292.079827 
L 284.858182 293.879771 
L 292.974545 148.931692 
L 301.090909 253.375699 
L 309.207273 283.682153 
L 317.323636 290.750567 
L 325.44 292.995802 
L 333.556364 294.265623 
L 341.672727 295.260839 
L 349.789091 251.339191 
L 357.905455 288.014835 
L 366.021818 247.966842 
L 374.138182 118.418511 
L 382.254545 246.966155 
L 390.370909 284.710623 
" clip-path="url(#p4759f17ed1)" style="fill: none; stroke: #add8e6; stroke-opacity: 0.3; stroke-width: 1.5; stroke-linecap: square"/>
   </g>
   <g id="line2d_34">
    <path d="M 73.832727 280.9728 
L 81.949091 95.465868 
L 90.065455 59.628059 
L 98.181818 52.897037 
L 106.298182 50.166948 
L 114.414545 232.491463 
L 122.530909 297.280404 
L 130.647273 123.896931 
L 138.763636 62.639903 
L 146.88 54.808078 
L 154.996364 52.907062 
L 163.112727 51.769985 
L 171.229091 219.632953 
L 179.345455 83.373565 
L 187.461818 233.468605 
L 195.578182 96.184344 
L 203.694545 62.883675 
L 211.810909 204.941809 
L 219.927273 91.272044 
L 228.043636 65.259018 
L 236.16 94.504547 
L 244.276364 230.316066 
L 252.392727 278.168185 
L 260.509091 289.834648 
L 268.625455 293.776952 
L 276.741818 296.026546 
L 284.858182 297.658755 
L 292.974545 146.447286 
L 301.090909 256.909771 
L 309.207273 288.82095 
L 317.323636 295.371519 
L 325.44 297.250121 
L 333.556364 154.251738 
L 341.672727 258.00482 
L 349.789091 288.278588 
L 357.905455 294.706085 
L 366.021818 251.336571 
L 374.138182 288.141966 
L 382.254545 248.061565 
L 390.370909 288.006611 
" clip-path="url(#p4759f17ed1)" style="fill: none; stroke: #add8e6; stroke-opacity: 0.3; stroke-width: 1.5; stroke-linecap: square"/>
   </g>
   <g id="line2d_35">
    <path d="M 73.832727 280.9728 
L 81.949091 95.465868 
L 90.065455 278.27023 
L 98.181818 112.432105 
L 106.298182 269.815461 
L 114.414545 122.488034 
L 122.530909 79.539359 
L 130.647273 240.834916 
L 138.763636 284.861326 
L 146.88 294.426503 
L 154.996364 156.725639 
L 163.112727 95.928811 
L 171.229091 81.487407 
L 179.345455 76.071006 
L 187.461818 72.599034 
L 195.578182 69.868146 
L 203.694545 67.60233 
L 211.810909 227.626741 
L 219.927273 108.24473 
L 228.043636 77.258926 
L 236.16 117.203554 
L 244.276364 251.121439 
L 252.392727 285.099118 
L 260.509091 142.363552 
L 268.625455 252.075373 
L 276.741818 281.369203 
L 284.858182 288.637604 
L 292.974545 291.327027 
L 301.090909 155.462292 
L 309.207273 254.978128 
L 317.323636 281.749919 
L 325.44 288.302743 
L 333.556364 290.561263 
L 341.672727 160.820637 
L 349.789091 255.180139 
L 357.905455 280.969724 
L 366.021818 287.307177 
L 374.138182 242.018254 
L 382.254545 131.309698 
L 390.370909 244.198854 
" clip-path="url(#p4759f17ed1)" style="fill: none; stroke: #add8e6; stroke-opacity: 0.3; stroke-width: 1.5; stroke-linecap: square"/>
   </g>
   <g id="line2d_36">
    <path d="M 73.832727 121.3056 
L 81.949091 294.611374 
L 90.065455 128.707192 
L 98.181818 74.202496 
L 106.298182 261.777062 
L 114.414545 112.503129 
L 122.530909 75.381111 
L 130.647273 241.184487 
L 138.763636 287.695861 
L 146.88 297.40118 
L 154.996364 300.296838 
L 163.112727 301.784177 
L 171.229091 302.76726 
L 179.345455 303.477848 
L 187.461818 304.014907 
L 195.578182 304.433591 
L 203.694545 304.768079 
L 211.810909 305.040743 
L 219.927273 305.26681 
L 228.043636 305.456971 
L 236.16 288.950817 
L 244.276364 149.413986 
L 252.392727 81.997556 
L 260.509091 71.086181 
L 268.625455 241.785776 
L 276.741818 293.923813 
L 284.858182 302.597441 
L 292.974545 183.199636 
L 301.090909 277.364055 
L 309.207273 152.588431 
L 317.323636 91.481935 
L 325.44 238.9277 
L 333.556364 129.516975 
L 341.672727 90.718223 
L 349.789091 81.458363 
L 357.905455 77.972382 
L 366.021818 227.254766 
L 374.138182 122.368639 
L 382.254545 88.205167 
L 390.370909 80.192543 
" clip-path="url(#p4759f17ed1)" style="fill: none; stroke: #ff0000; stroke-opacity: 0.1; stroke-width: 1.5; stroke-linecap: square"/>
   </g>
   <g id="line2d_37">
    <path d="M 73.832727 121.3056 
L 81.949091 66.706652 
L 90.065455 248.258544 
L 98.181818 295.292272 
L 106.298182 302.962888 
L 114.414545 304.826333 
L 122.530909 154.395185 
L 130.647273 276.971722 
L 138.763636 129.344485 
L 146.88 262.487739 
L 154.996364 293.37056 
L 163.112727 299.281037 
L 171.229091 169.02545 
L 179.345455 269.553815 
L 187.461818 150.265791 
L 195.578182 258.923146 
L 203.694545 285.732415 
L 211.810909 292.057785 
L 219.927273 294.049424 
L 228.043636 295.129109 
L 236.16 267.031052 
L 244.276364 148.136464 
L 252.392727 102.843632 
L 260.509091 243.415041 
L 268.625455 141.253336 
L 276.741818 105.820584 
L 284.858182 95.312782 
L 292.974545 90.085665 
L 301.090909 86.188867 
L 309.207273 231.827639 
L 317.323636 128.595208 
L 325.44 96.721261 
L 333.556364 88.359215 
L 341.672727 84.768414 
L 349.789091 82.217727 
L 357.905455 80.031164 
L 366.021818 78.073021 
L 374.138182 227.8161 
L 382.254545 275.990003 
L 390.370909 288.032012 
" clip-path="url(#p4759f17ed1)" style="fill: none; stroke: #ff0000; stroke-opacity: 0.1; stroke-width: 1.5; stroke-linecap: square"/>
   </g>
   <g id="line2d_38">
    <path d="M 73.832727 121.3056 
L 81.949091 294.611374 
L 90.065455 305.91305 
L 98.181818 306.896531 
L 106.298182 307.140804 
L 114.414545 307.255294 
L 122.530909 307.323034 
L 130.647273 307.367877 
L 138.763636 201.690051 
L 146.88 85.872894 
L 154.996364 277.561699 
L 163.112727 125.569274 
L 171.229091 277.698567 
L 179.345455 302.174052 
L 187.461818 305.173489 
L 195.578182 305.664858 
L 203.694545 305.864023 
L 211.810909 306.009967 
L 219.927273 306.131972 
L 228.043636 306.236689 
L 236.16 294.860963 
L 244.276364 169.528941 
L 252.392727 90.712204 
L 260.509091 259.600265 
L 268.625455 133.017611 
L 276.741818 267.046827 
L 284.858182 150.891139 
L 292.974545 98.391002 
L 301.090909 85.181021 
L 309.207273 80.023519 
L 317.323636 76.574909 
L 325.44 237.177862 
L 333.556364 123.143829 
L 341.672727 86.465389 
L 349.789091 234.912652 
L 357.905455 128.331966 
L 366.021818 91.207485 
L 374.138182 82.109214 
L 382.254545 78.858109 
L 390.370909 132.682395 
" clip-path="url(#p4759f17ed1)" style="fill: none; stroke: #ff0000; stroke-opacity: 0.1; stroke-width: 1.5; stroke-linecap: square"/>
   </g>
   <g id="line2d_39">
    <path d="M 73.832727 121.3056 
L 81.949091 294.611374 
L 90.065455 305.91305 
L 98.181818 306.896531 
L 106.298182 307.140804 
L 114.414545 307.255294 
L 122.530909 307.323034 
L 130.647273 307.367877 
L 138.763636 307.399721 
L 146.88 203.478174 
L 154.996364 301.199239 
L 163.112727 306.715504 
L 171.229091 307.125064 
L 179.345455 201.012207 
L 187.461818 299.638172 
L 195.578182 306.155547 
L 203.694545 306.746202 
L 211.810909 202.198431 
L 219.927273 298.183096 
L 228.043636 305.50333 
L 236.16 293.825264 
L 244.276364 165.318247 
L 252.392727 94.303409 
L 260.509091 77.589233 
L 268.625455 70.478499 
L 276.741818 65.911909 
L 284.858182 62.608202 
L 292.974545 60.101084 
L 301.090909 58.137062 
L 309.207273 254.815434 
L 317.323636 300.594774 
L 325.44 163.623932 
L 333.556364 74.825594 
L 341.672727 61.213049 
L 349.789091 58.65646 
L 357.905455 57.344251 
L 366.021818 105.015853 
L 374.138182 61.170451 
L 382.254545 105.448276 
L 390.370909 277.67945 
" clip-path="url(#p4759f17ed1)" style="fill: none; stroke: #ff0000; stroke-opacity: 0.1; stroke-width: 1.5; stroke-linecap: square"/>
   </g>
   <g id="line2d_40">
    <path d="M 73.832727 121.3056 
L 81.949091 294.611374 
L 90.065455 305.91305 
L 98.181818 306.896531 
L 106.298182 182.130916 
L 114.414545 85.460492 
L 122.530909 68.001127 
L 130.647273 262.739847 
L 138.763636 113.297528 
L 146.88 266.293551 
L 154.996364 297.847557 
L 163.112727 302.658944 
L 171.229091 303.784122 
L 179.345455 304.352745 
L 187.461818 181.494251 
L 195.578182 282.130583 
L 203.694545 156.02303 
L 211.810909 271.249648 
L 219.927273 295.561641 
L 228.043636 300.048726 
L 236.16 274.102354 
L 244.276364 149.773731 
L 252.392727 95.663606 
L 260.509091 82.805015 
L 268.625455 77.845921 
L 276.741818 74.516893 
L 284.858182 238.917721 
L 292.974545 288.113887 
L 301.090909 161.596937 
L 309.207273 265.082124 
L 317.323636 148.441049 
L 325.44 98.323232 
L 333.556364 236.144113 
L 341.672727 279.661334 
L 349.789091 290.528704 
L 357.905455 293.336538 
L 366.021818 294.421716 
L 374.138182 295.121441 
L 382.254545 178.271616 
L 390.370909 263.369464 
" clip-path="url(#p4759f17ed1)" style="fill: none; stroke: #ff0000; stroke-opacity: 0.1; stroke-width: 1.5; stroke-linecap: square"/>
   </g>
   <g id="line2d_41">
    <path d="M 73.832727 121.3056 
L 81.949091 294.611374 
L 90.065455 128.707192 
L 98.181818 74.202496 
L 106.298182 261.777062 
L 114.414545 298.321806 
L 122.530909 303.564477 
L 130.647273 304.863351 
L 138.763636 305.489602 
L 146.88 178.642321 
L 154.996364 286.67127 
L 163.112727 302.321672 
L 171.229091 304.43576 
L 179.345455 186.270635 
L 187.461818 285.521278 
L 195.578182 300.949047 
L 203.694545 187.409736 
L 211.810909 108.995046 
L 219.927273 87.631187 
L 228.043636 250.779784 
L 236.16 237.913937 
L 244.276364 289.576947 
L 252.392727 181.630709 
L 260.509091 119.733698 
L 268.625455 99.983704 
L 276.741818 92.520197 
L 284.858182 246.068852 
L 292.974545 147.498273 
L 301.090909 109.422504 
L 309.207273 245.155941 
L 317.323636 153.00037 
L 325.44 254.299735 
L 333.556364 164.190307 
L 341.672727 126.099276 
L 349.789091 240.59075 
L 357.905455 161.099331 
L 366.021818 130.098494 
L 374.138182 119.298186 
L 382.254545 169.680943 
L 390.370909 130.10797 
" clip-path="url(#p4759f17ed1)" style="fill: none; stroke: #ff0000; stroke-opacity: 0.1; stroke-width: 1.5; stroke-linecap: square"/>
   </g>
   <g id="line2d_42">
    <path d="M 73.832727 121.3056 
L 81.949091 66.706652 
L 90.065455 248.258544 
L 98.181818 295.292272 
L 106.298182 302.962888 
L 114.414545 144.664316 
L 122.530909 271.776404 
L 130.647273 297.741682 
L 138.763636 302.093175 
L 146.88 303.330038 
L 154.996364 166.643685 
L 163.112727 88.115586 
L 171.229091 73.127879 
L 179.345455 235.98711 
L 187.461818 111.806241 
L 195.578182 78.821762 
L 203.694545 227.014235 
L 211.810909 279.870724 
L 219.927273 292.93131 
L 228.043636 296.237093 
L 236.16 263.18267 
L 244.276364 142.110615 
L 252.392727 93.34906 
L 260.509091 81.472405 
L 268.625455 77.107299 
L 276.741818 74.280001 
L 284.858182 71.968587 
L 292.974545 69.971079 
L 301.090909 68.219394 
L 309.207273 118.249663 
L 317.323636 74.484234 
L 325.44 119.825529 
L 333.556364 257.459655 
L 341.672727 291.321667 
L 349.789091 145.828156 
L 357.905455 83.128179 
L 366.021818 126.681763 
L 374.138182 259.056164 
L 382.254545 125.114218 
L 390.370909 81.358457 
" clip-path="url(#p4759f17ed1)" style="fill: none; stroke: #ff0000; stroke-opacity: 0.1; stroke-width: 1.5; stroke-linecap: square"/>
   </g>
   <g id="line2d_43">
    <path d="M 73.832727 121.3056 
L 81.949091 66.706652 
L 90.065455 57.100104 
L 98.181818 233.267478 
L 106.298182 292.366776 
L 114.414545 302.41353 
L 122.530909 304.652977 
L 130.647273 305.519789 
L 138.763636 305.98644 
L 146.88 306.28082 
L 154.996364 306.483766 
L 163.112727 162.397168 
L 171.229091 281.387861 
L 179.345455 302.853033 
L 187.461818 305.398368 
L 195.578182 305.816228 
L 203.694545 171.761711 
L 211.810909 281.05177 
L 219.927273 301.606131 
L 228.043636 304.489999 
L 236.16 288.491387 
L 244.276364 303.087387 
L 252.392727 304.919501 
L 260.509091 305.253888 
L 268.625455 305.402583 
L 276.741818 174.688631 
L 284.858182 280.587494 
L 292.974545 300.968239 
L 301.090909 172.950313 
L 309.207273 87.776949 
L 317.323636 72.182442 
L 325.44 67.559418 
L 333.556364 64.619895 
L 341.672727 233.069202 
L 349.789091 100.57461 
L 357.905455 69.543736 
L 366.021818 64.402981 
L 374.138182 62.365104 
L 382.254545 60.837781 
L 390.370909 59.534512 
" clip-path="url(#p4759f17ed1)" style="fill: none; stroke: #ff0000; stroke-opacity: 0.1; stroke-width: 1.5; stroke-linecap: square"/>
   </g>
   <g id="line2d_44">
    <path d="M 73.832727 121.3056 
L 81.949091 294.611374 
L 90.065455 305.91305 
L 98.181818 306.896531 
L 106.298182 307.140804 
L 114.414545 190.379921 
L 122.530909 298.944627 
L 130.647273 161.824728 
L 138.763636 291.846047 
L 146.88 304.011103 
L 154.996364 305.445461 
L 163.112727 305.806393 
L 171.229091 306.021042 
L 179.345455 306.186969 
L 187.461818 196.653476 
L 195.578182 294.803395 
L 203.694545 175.997118 
L 211.810909 288.900399 
L 219.927273 302.166794 
L 228.043636 199.746132 
L 236.16 233.38268 
L 244.276364 141.359284 
L 252.392727 107.300204 
L 260.509091 94.574165 
L 268.625455 87.206435 
L 276.741818 81.762056 
L 284.858182 77.421566 
L 292.974545 73.872156 
L 301.090909 252.604856 
L 309.207273 293.676014 
L 317.323636 168.840736 
L 325.44 98.866471 
L 333.556364 80.912843 
L 341.672727 75.675132 
L 349.789091 72.967134 
L 357.905455 70.899428 
L 366.021818 130.351032 
L 374.138182 79.836437 
L 382.254545 69.897436 
L 390.370909 126.009325 
" clip-path="url(#p4759f17ed1)" style="fill: none; stroke: #ff0000; stroke-opacity: 0.1; stroke-width: 1.5; stroke-linecap: square"/>
   </g>
   <g id="line2d_45">
    <path d="M 73.832727 121.3056 
L 81.949091 294.611374 
L 90.065455 305.91305 
L 98.181818 306.896531 
L 106.298182 307.140804 
L 114.414545 307.255294 
L 122.530909 195.632812 
L 130.647273 299.878934 
L 138.763636 306.31838 
L 146.88 306.864365 
L 154.996364 306.983518 
L 163.112727 307.055147 
L 171.229091 199.055329 
L 179.345455 298.980143 
L 187.461818 171.602838 
L 195.578182 293.147626 
L 203.694545 304.376354 
L 211.810909 305.653191 
L 219.927273 202.455182 
L 228.043636 294.519745 
L 236.16 281.285431 
L 244.276364 163.032599 
L 252.392727 104.279585 
L 260.509091 87.013573 
L 268.625455 78.959375 
L 276.741818 73.584479 
L 284.858182 69.550501 
L 292.974545 66.396199 
L 301.090909 63.869751 
L 309.207273 61.807438 
L 317.323636 60.096567 
L 325.44 58.657206 
L 333.556364 57.431328 
L 341.672727 106.846746 
L 349.789091 61.428319 
L 357.905455 107.180094 
L 366.021818 60.838233 
L 374.138182 105.181243 
L 382.254545 60.040244 
L 390.370909 103.231563 
" clip-path="url(#p4759f17ed1)" style="fill: none; stroke: #ff0000; stroke-opacity: 0.1; stroke-width: 1.5; stroke-linecap: square"/>
   </g>
   <g id="line2d_46">
    <path d="M 73.832727 121.3056 
L 81.949091 66.706652 
L 90.065455 248.258544 
L 98.181818 295.292272 
L 106.298182 302.962888 
L 114.414545 304.826333 
L 122.530909 154.395185 
L 130.647273 276.971722 
L 138.763636 299.946882 
L 146.88 303.390933 
L 154.996364 304.257988 
L 163.112727 304.72137 
L 171.229091 305.058878 
L 179.345455 173.568244 
L 187.461818 281.012388 
L 195.578182 144.852944 
L 203.694545 268.967481 
L 211.810909 295.710068 
L 219.927273 300.597098 
L 228.043636 183.267145 
L 236.16 212.112741 
L 244.276364 119.903198 
L 252.392727 252.00647 
L 260.509091 145.902614 
L 268.625455 105.649012 
L 276.741818 239.963301 
L 284.858182 144.900565 
L 292.974545 109.932232 
L 301.090909 235.799273 
L 309.207273 273.736627 
L 317.323636 172.949542 
L 325.44 126.191653 
L 333.556364 110.842874 
L 341.672727 104.36038 
L 349.789091 230.217692 
L 357.905455 146.813001 
L 366.021818 241.259823 
L 374.138182 157.665233 
L 382.254545 126.08685 
L 390.370909 115.443185 
" clip-path="url(#p4759f17ed1)" style="fill: none; stroke: #ff0000; stroke-opacity: 0.1; stroke-width: 1.5; stroke-linecap: square"/>
   </g>
   <g id="line2d_47">
    <path d="M 73.832727 121.3056 
L 81.949091 294.611374 
L 90.065455 305.91305 
L 98.181818 306.896531 
L 106.298182 307.140804 
L 114.414545 190.379921 
L 122.530909 298.944627 
L 130.647273 306.050741 
L 138.763636 306.700138 
L 146.88 194.047386 
L 154.996364 297.402767 
L 163.112727 171.97772 
L 171.229091 291.391299 
L 179.345455 303.260689 
L 187.461818 304.781555 
L 195.578182 305.157187 
L 203.694545 305.379633 
L 211.810909 305.558909 
L 219.927273 305.711666 
L 228.043636 200.045739 
L 236.16 234.620539 
L 244.276364 129.255456 
L 252.392727 282.505274 
L 260.509091 167.260904 
L 268.625455 111.761778 
L 276.741818 94.536089 
L 284.858182 86.604278 
L 292.974545 81.232738 
L 301.090909 77.03679 
L 309.207273 73.618559 
L 317.323636 257.170685 
L 325.44 131.243458 
L 333.556364 86.590753 
L 341.672727 76.303271 
L 349.789091 72.814466 
L 357.905455 70.641665 
L 366.021818 248.254521 
L 374.138182 125.474835 
L 382.254545 83.613639 
L 390.370909 136.349577 
" clip-path="url(#p4759f17ed1)" style="fill: none; stroke: #ff0000; stroke-opacity: 0.1; stroke-width: 1.5; stroke-linecap: square"/>
   </g>
   <g id="line2d_48">
    <path d="M 73.832727 121.3056 
L 81.949091 294.611374 
L 90.065455 305.91305 
L 98.181818 306.896531 
L 106.298182 307.140804 
L 114.414545 307.255294 
L 122.530909 195.632812 
L 130.647273 299.878934 
L 138.763636 306.31838 
L 146.88 306.864365 
L 154.996364 306.983518 
L 163.112727 307.055147 
L 171.229091 307.110833 
L 179.345455 307.156132 
L 187.461818 307.193714 
L 195.578182 307.225366 
L 203.694545 307.252365 
L 211.810909 307.27565 
L 219.927273 200.609119 
L 228.043636 299.826068 
L 236.16 291.137084 
L 244.276364 160.516412 
L 252.392727 89.181689 
L 260.509091 73.625443 
L 268.625455 267.098149 
L 276.741818 123.549735 
L 284.858182 273.939436 
L 292.974545 144.021274 
L 301.090909 87.735746 
L 309.207273 75.627437 
L 317.323636 71.186356 
L 325.44 243.786974 
L 333.556364 118.788275 
L 341.672727 79.911176 
L 349.789091 71.960382 
L 357.905455 69.083713 
L 366.021818 67.118027 
L 374.138182 65.473353 
L 382.254545 116.833681 
L 390.370909 71.022523 
" clip-path="url(#p4759f17ed1)" style="fill: none; stroke: #ff0000; stroke-opacity: 0.1; stroke-width: 1.5; stroke-linecap: square"/>
   </g>
   <g id="line2d_49">
    <path d="M 73.832727 121.3056 
L 81.949091 294.611374 
L 90.065455 128.707192 
L 98.181818 284.231821 
L 106.298182 302.621277 
L 114.414545 305.083357 
L 122.530909 305.80784 
L 130.647273 306.193821 
L 138.763636 306.444338 
L 146.88 306.620669 
L 154.996364 306.751203 
L 163.112727 306.851482 
L 171.229091 196.394367 
L 179.345455 295.643245 
L 187.461818 305.299151 
L 195.578182 306.275294 
L 203.694545 306.45165 
L 211.810909 306.544667 
L 219.927273 306.619765 
L 228.043636 306.6846 
L 236.16 297.374975 
L 244.276364 155.626393 
L 252.392727 288.209878 
L 260.509091 146.896512 
L 268.625455 87.163358 
L 276.741818 75.547373 
L 284.858182 70.280391 
L 292.974545 251.002327 
L 301.090909 109.689125 
L 309.207273 74.779345 
L 317.323636 68.855752 
L 325.44 238.040532 
L 333.556364 292.825272 
L 341.672727 163.303632 
L 349.789091 86.135345 
L 357.905455 72.399753 
L 366.021818 69.050321 
L 374.138182 67.105851 
L 382.254545 65.508369 
L 390.370909 116.69208 
" clip-path="url(#p4759f17ed1)" style="fill: none; stroke: #ff0000; stroke-opacity: 0.1; stroke-width: 1.5; stroke-linecap: square"/>
   </g>
   <g id="line2d_50">
    <path d="M 73.832727 121.3056 
L 81.949091 294.611374 
L 90.065455 305.91305 
L 98.181818 306.896531 
L 106.298182 307.140804 
L 114.414545 307.255294 
L 122.530909 307.323034 
L 130.647273 307.367877 
L 138.763636 307.399721 
L 146.88 307.423475 
L 154.996364 204.774849 
L 163.112727 301.415334 
L 171.229091 162.962009 
L 179.345455 84.35113 
L 187.461818 274.012972 
L 195.578182 302.777449 
L 203.694545 305.903081 
L 211.810909 197.115787 
L 219.927273 292.562962 
L 228.043636 303.98334 
L 236.16 289.387341 
L 244.276364 158.110668 
L 252.392727 90.507434 
L 260.509091 262.11275 
L 268.625455 135.11607 
L 276.741818 89.699916 
L 284.858182 78.994761 
L 292.974545 74.352608 
L 301.090909 71.074019 
L 309.207273 242.634188 
L 317.323636 116.801757 
L 325.44 79.668847 
L 333.556364 72.197465 
L 341.672727 234.501952 
L 349.789091 116.3845 
L 357.905455 80.865911 
L 366.021818 73.404971 
L 374.138182 126.830489 
L 382.254545 262.683873 
L 390.370909 134.792677 
" clip-path="url(#p4759f17ed1)" style="fill: none; stroke: #ff0000; stroke-opacity: 0.1; stroke-width: 1.5; stroke-linecap: square"/>
   </g>
   <g id="line2d_51">
    <path d="M 73.832727 121.3056 
L 81.949091 294.611374 
L 90.065455 305.91305 
L 98.181818 306.896531 
L 106.298182 307.140804 
L 114.414545 307.255294 
L 122.530909 307.323034 
L 130.647273 307.367877 
L 138.763636 307.399721 
L 146.88 307.423475 
L 154.996364 307.441857 
L 163.112727 205.720528 
L 171.229091 84.579758 
L 179.345455 277.880169 
L 187.461818 304.440656 
L 195.578182 306.715548 
L 203.694545 199.501613 
L 211.810909 295.176367 
L 219.927273 305.29592 
L 228.043636 306.350376 
L 236.16 295.793771 
L 244.276364 157.516275 
L 252.392727 84.66254 
L 260.509091 72.413417 
L 268.625455 67.563937 
L 276.741818 64.249535 
L 284.858182 61.720677 
L 292.974545 59.720631 
L 301.090909 58.100394 
L 309.207273 56.762263 
L 317.323636 55.639169 
L 325.44 54.683566 
L 333.556364 93.434422 
L 341.672727 56.26063 
L 349.789091 92.483316 
L 357.905455 282.997699 
L 366.021818 104.84845 
L 374.138182 57.986443 
L 382.254545 94.085076 
L 390.370909 56.653345 
" clip-path="url(#p4759f17ed1)" style="fill: none; stroke: #ff0000; stroke-opacity: 0.1; stroke-width: 1.5; stroke-linecap: square"/>
   </g>
   <g id="line2d_52">
    <path d="M 73.832727 121.3056 
L 81.949091 66.706652 
L 90.065455 248.258544 
L 98.181818 295.292272 
L 106.298182 302.962888 
L 114.414545 144.664316 
L 122.530909 271.776404 
L 130.647273 297.741682 
L 138.763636 302.093175 
L 146.88 162.813603 
L 154.996364 273.145771 
L 163.112727 295.931544 
L 171.229091 300.162595 
L 179.345455 301.382109 
L 187.461818 302.063768 
L 195.578182 302.58225 
L 203.694545 175.978681 
L 211.810909 276.299511 
L 219.927273 296.630238 
L 228.043636 300.311324 
L 236.16 278.645997 
L 244.276364 146.988987 
L 252.392727 93.221309 
L 260.509091 80.856882 
L 268.625455 241.426219 
L 276.741818 123.554523 
L 284.858182 250.588463 
L 292.974545 137.714559 
L 301.090909 96.596905 
L 309.207273 85.994813 
L 317.323636 81.449565 
L 325.44 78.234996 
L 333.556364 75.546388 
L 341.672727 73.212438 
L 349.789091 71.164895 
L 357.905455 69.357822 
L 366.021818 67.754731 
L 374.138182 122.717989 
L 382.254545 74.211894 
L 390.370909 66.542413 
" clip-path="url(#p4759f17ed1)" style="fill: none; stroke: #ff0000; stroke-opacity: 0.1; stroke-width: 1.5; stroke-linecap: square"/>
   </g>
   <g id="line2d_53">
    <path d="M 73.832727 121.3056 
L 81.949091 294.611374 
L 90.065455 305.91305 
L 98.181818 167.004052 
L 106.298182 294.168617 
L 114.414545 304.765094 
L 122.530909 177.720406 
L 130.647273 96.425494 
L 138.763636 271.115622 
L 146.88 298.806761 
L 154.996364 302.86462 
L 163.112727 183.933686 
L 171.229091 107.435354 
L 179.345455 263.541581 
L 187.461818 293.861332 
L 195.578182 299.314646 
L 203.694545 300.705063 
L 211.810909 301.422738 
L 219.927273 189.444497 
L 228.043636 280.720171 
L 236.16 260.964632 
L 244.276364 152.951018 
L 252.392727 108.195732 
L 260.509091 94.657569 
L 268.625455 88.261554 
L 276.741818 83.742674 
L 284.858182 80.058439 
L 292.974545 246.916569 
L 301.090909 132.031467 
L 309.207273 93.141703 
L 317.323636 83.301306 
L 325.44 79.565828 
L 333.556364 77.127989 
L 341.672727 75.103422 
L 349.789091 132.790155 
L 357.905455 84.161783 
L 366.021818 135.588825 
L 374.138182 269.241131 
L 382.254545 135.216505 
L 390.370909 87.346344 
" clip-path="url(#p4759f17ed1)" style="fill: none; stroke: #ff0000; stroke-opacity: 0.1; stroke-width: 1.5; stroke-linecap: square"/>
   </g>
   <g id="line2d_54">
    <path d="M 73.832727 121.3056 
L 81.949091 294.611374 
L 90.065455 305.91305 
L 98.181818 306.896531 
L 106.298182 307.140804 
L 114.414545 190.379921 
L 122.530909 86.331729 
L 130.647273 275.842809 
L 138.763636 302.938656 
L 146.88 305.712729 
L 154.996364 306.164951 
L 163.112727 306.369069 
L 171.229091 192.168656 
L 179.345455 292.833122 
L 187.461818 165.111714 
L 195.578182 284.666199 
L 203.694545 301.60988 
L 211.810909 192.891199 
L 219.927273 286.198463 
L 228.043636 300.270415 
L 236.16 280.072424 
L 244.276364 164.254036 
L 252.392727 106.7075 
L 260.509091 90.355883 
L 268.625455 83.237271 
L 276.741818 78.442204 
L 284.858182 74.674716 
L 292.974545 248.839673 
L 301.090909 126.507737 
L 309.207273 85.991518 
L 317.323636 76.711124 
L 325.44 73.31237 
L 333.556364 240.111242 
L 341.672727 122.87655 
L 349.789091 84.885206 
L 357.905455 76.17258 
L 366.021818 131.471007 
L 374.138182 83.991539 
L 382.254545 134.104892 
L 390.370909 83.799222 
" clip-path="url(#p4759f17ed1)" style="fill: none; stroke: #ff0000; stroke-opacity: 0.1; stroke-width: 1.5; stroke-linecap: square"/>
   </g>
   <g id="line2d_55">
    <path d="M 73.832727 121.3056 
L 81.949091 294.611374 
L 90.065455 128.707192 
L 98.181818 284.231821 
L 106.298182 133.537281 
L 114.414545 274.989113 
L 122.530909 297.642357 
L 130.647273 166.251801 
L 138.763636 102.262855 
L 146.88 86.002914 
L 154.996364 247.550322 
L 163.112727 286.553476 
L 171.229091 294.953933 
L 179.345455 297.524529 
L 187.461818 298.940873 
L 195.578182 299.979714 
L 203.694545 300.805849 
L 211.810909 178.398919 
L 219.927273 275.484134 
L 228.043636 294.946513 
L 236.16 266.637651 
L 244.276364 147.111999 
L 252.392727 100.079483 
L 260.509091 249.448203 
L 268.625455 142.68674 
L 276.741818 104.086933 
L 284.858182 93.391445 
L 292.974545 88.611092 
L 301.090909 238.519744 
L 309.207273 135.537282 
L 317.323636 100.923576 
L 325.44 91.690175 
L 333.556364 87.916686 
L 341.672727 233.30554 
L 349.789091 132.92673 
L 357.905455 100.187646 
L 366.021818 91.590129 
L 374.138182 146.43695 
L 382.254545 256.050727 
L 390.370909 143.811143 
" clip-path="url(#p4759f17ed1)" style="fill: none; stroke: #ff0000; stroke-opacity: 0.1; stroke-width: 1.5; stroke-linecap: square"/>
   </g>
   <g id="line2d_56">
    <path d="M 73.832727 280.9728 
L 81.949091 148.116832 
L 90.065455 134.902457 
L 98.181818 105.080007 
L 106.298182 87.489675 
L 114.414545 129.99195 
L 122.530909 147.206569 
L 130.647273 105.999059 
L 138.763636 104.019036 
L 146.88 122.097477 
L 154.996364 89.544528 
L 163.112727 117.203127 
L 171.229091 141.798618 
L 179.345455 113.143144 
L 187.461818 119.70197 
L 195.578182 88.566231 
L 203.694545 116.508007 
L 211.810909 110.223602 
L 219.927273 100.314193 
L 228.043636 89.304713 
L 236.16 103.446556 
L 244.276364 227.351419 
L 252.392727 244.50312 
L 260.509091 241.330726 
L 268.625455 249.478625 
L 276.741818 259.580514 
L 284.858182 236.716178 
L 292.974545 239.004954 
L 301.090909 251.268523 
L 309.207273 230.419327 
L 317.323636 259.267599 
L 325.44 247.826311 
L 333.556364 250.55598 
L 341.672727 244.738398 
L 349.789091 253.133116 
L 357.905455 264.883425 
L 366.021818 249.806523 
L 374.138182 244.553485 
L 382.254545 248.538528 
L 390.370909 248.088603 
" clip-path="url(#p4759f17ed1)" style="fill: none; stroke: #1f77b4; stroke-width: 1.5; stroke-linecap: square"/>
   </g>
   <g id="line2d_57">
    <path d="M 73.832727 121.3056 
L 81.949091 237.635194 
L 90.065455 246.50033 
L 98.181818 268.363728 
L 106.298182 285.224889 
L 114.414545 249.859467 
L 122.530909 234.494611 
L 130.647273 270.277652 
L 138.763636 268.189039 
L 146.88 254.688425 
L 154.996364 284.992072 
L 163.112727 258.611713 
L 171.229091 238.332301 
L 179.345455 265.399475 
L 187.461818 257.414347 
L 195.578182 279.519619 
L 203.694545 259.91241 
L 211.810909 264.871076 
L 219.927273 272.25687 
L 228.043636 281.727663 
L 236.16 271.488686 
L 244.276364 165.678632 
L 252.392727 137.613839 
L 260.509091 140.303682 
L 268.625455 132.150231 
L 276.741818 119.071384 
L 284.858182 140.553873 
L 292.974545 141.047046 
L 301.090909 128.431298 
L 309.207273 149.441344 
L 317.323636 117.964053 
L 325.44 131.520037 
L 333.556364 126.599256 
L 341.672727 132.748871 
L 349.789091 123.046278 
L 357.905455 109.077432 
L 366.021818 126.934307 
L 374.138182 131.86234 
L 382.254545 128.036965 
L 390.370909 127.73251 
" clip-path="url(#p4759f17ed1)" style="fill: none; stroke: #ff0000; stroke-width: 1.5; stroke-linecap: square"/>
   </g>
   <g id="patch_5">
    <path d="M 57.6 307.584 
L 57.6 41.472 
" style="fill: none; stroke: #000000; stroke-width: 0.8; stroke-linejoin: miter; stroke-linecap: square"/>
   </g>
   <g id="patch_6">
    <path d="M 414.72 307.584 
L 414.72 41.472 
" style="fill: none; stroke: #000000; stroke-width: 0.8; stroke-linejoin: miter; stroke-linecap: square"/>
   </g>
   <g id="patch_7">
    <path d="M 57.6 307.584 
L 414.72 307.584 
" style="fill: none; stroke: #000000; stroke-width: 0.8; stroke-linejoin: miter; stroke-linecap: square"/>
   </g>
   <g id="patch_8">
    <path d="M 57.6 41.472 
L 414.72 41.472 
" style="fill: none; stroke: #000000; stroke-width: 0.8; stroke-linejoin: miter; stroke-linecap: square"/>
   </g>
   <g id="text_18">
    <!-- biased_D -->
    <g transform="translate(208.760625 35.472) scale(0.12 -0.12)">
     <defs>
      <path id="DejaVuSans-62" d="M 3116 1747 
Q 3116 2381 2855 2742 
Q 2594 3103 2138 3103 
Q 1681 3103 1420 2742 
Q 1159 2381 1159 1747 
Q 1159 1113 1420 752 
Q 1681 391 2138 391 
Q 2594 391 2855 752 
Q 3116 1113 3116 1747 
z
M 1159 2969 
Q 1341 3281 1617 3432 
Q 1894 3584 2278 3584 
Q 2916 3584 3314 3078 
Q 3713 2572 3713 1747 
Q 3713 922 3314 415 
Q 2916 -91 2278 -91 
Q 1894 -91 1617 61 
Q 1341 213 1159 525 
L 1159 0 
L 581 0 
L 581 4863 
L 1159 4863 
L 1159 2969 
z
" transform="scale(0.015625)"/>
      <path id="DejaVuSans-69" d="M 603 3500 
L 1178 3500 
L 1178 0 
L 603 0 
L 603 3500 
z
M 603 4863 
L 1178 4863 
L 1178 4134 
L 603 4134 
L 603 4863 
z
" transform="scale(0.015625)"/>
      <path id="DejaVuSans-61" d="M 2194 1759 
Q 1497 1759 1228 1600 
Q 959 1441 959 1056 
Q 959 750 1161 570 
Q 1363 391 1709 391 
Q 2188 391 2477 730 
Q 2766 1069 2766 1631 
L 2766 1759 
L 2194 1759 
z
M 3341 1997 
L 3341 0 
L 2766 0 
L 2766 531 
Q 2569 213 2275 61 
Q 1981 -91 1556 -91 
Q 1019 -91 701 211 
Q 384 513 384 1019 
Q 384 1609 779 1909 
Q 1175 2209 1959 2209 
L 2766 2209 
L 2766 2266 
Q 2766 2663 2505 2880 
Q 2244 3097 1772 3097 
Q 1472 3097 1187 3025 
Q 903 2953 641 2809 
L 641 3341 
Q 956 3463 1253 3523 
Q 1550 3584 1831 3584 
Q 2591 3584 2966 3190 
Q 3341 2797 3341 1997 
z
" transform="scale(0.015625)"/>
      <path id="DejaVuSans-73" d="M 2834 3397 
L 2834 2853 
Q 2591 2978 2328 3040 
Q 2066 3103 1784 3103 
Q 1356 3103 1142 2972 
Q 928 2841 928 2578 
Q 928 2378 1081 2264 
Q 1234 2150 1697 2047 
L 1894 2003 
Q 2506 1872 2764 1633 
Q 3022 1394 3022 966 
Q 3022 478 2636 193 
Q 2250 -91 1575 -91 
Q 1294 -91 989 -36 
Q 684 19 347 128 
L 347 722 
Q 666 556 975 473 
Q 1284 391 1588 391 
Q 1994 391 2212 530 
Q 2431 669 2431 922 
Q 2431 1156 2273 1281 
Q 2116 1406 1581 1522 
L 1381 1569 
Q 847 1681 609 1914 
Q 372 2147 372 2553 
Q 372 3047 722 3315 
Q 1072 3584 1716 3584 
Q 2034 3584 2315 3537 
Q 2597 3491 2834 3397 
z
" transform="scale(0.015625)"/>
      <path id="DejaVuSans-64" d="M 2906 2969 
L 2906 4863 
L 3481 4863 
L 3481 0 
L 2906 0 
L 2906 525 
Q 2725 213 2448 61 
Q 2172 -91 1784 -91 
Q 1150 -91 751 415 
Q 353 922 353 1747 
Q 353 2572 751 3078 
Q 1150 3584 1784 3584 
Q 2172 3584 2448 3432 
Q 2725 3281 2906 2969 
z
M 947 1747 
Q 947 1113 1208 752 
Q 1469 391 1925 391 
Q 2381 391 2643 752 
Q 2906 1113 2906 1747 
Q 2906 2381 2643 2742 
Q 2381 3103 1925 3103 
Q 1469 3103 1208 2742 
Q 947 2381 947 1747 
z
" transform="scale(0.015625)"/>
      <path id="DejaVuSans-5f" d="M 3263 -1063 
L 3263 -1509 
L -63 -1509 
L -63 -1063 
L 3263 -1063 
z
" transform="scale(0.015625)"/>
      <path id="DejaVuSans-44" d="M 1259 4147 
L 1259 519 
L 2022 519 
Q 2988 519 3436 956 
Q 3884 1394 3884 2338 
Q 3884 3275 3436 3711 
Q 2988 4147 2022 4147 
L 1259 4147 
z
M 628 4666 
L 1925 4666 
Q 3281 4666 3915 4102 
Q 4550 3538 4550 2338 
Q 4550 1131 3912 565 
Q 3275 0 1925 0 
L 628 0 
L 628 4666 
z
" transform="scale(0.015625)"/>
     </defs>
     <use xlink:href="#DejaVuSans-62"/>
     <use xlink:href="#DejaVuSans-69" x="63.476562"/>
     <use xlink:href="#DejaVuSans-61" x="91.259766"/>
     <use xlink:href="#DejaVuSans-73" x="152.539062"/>
     <use xlink:href="#DejaVuSans-65" x="204.638672"/>
     <use xlink:href="#DejaVuSans-64" x="266.162109"/>
     <use xlink:href="#DejaVuSans-5f" x="329.638672"/>
     <use xlink:href="#DejaVuSans-44" x="379.638672"/>
    </g>
   </g>
   <g id="legend_1">
    <g id="patch_9">
     <path d="M 351.635625 190.706125 
L 407.72 190.706125 
Q 409.72 190.706125 409.72 188.706125 
L 409.72 160.349875 
Q 409.72 158.349875 407.72 158.349875 
L 351.635625 158.349875 
Q 349.635625 158.349875 349.635625 160.349875 
L 349.635625 188.706125 
Q 349.635625 190.706125 351.635625 190.706125 
z
" style="fill: #ffffff; opacity: 0.8; stroke: #cccccc; stroke-linejoin: miter"/>
    </g>
    <g id="line2d_58">
     <path d="M 353.635625 166.448312 
L 363.635625 166.448312 
L 373.635625 166.448312 
" style="fill: none; stroke: #1f77b4; stroke-width: 1.5; stroke-linecap: square"/>
    </g>
    <g id="text_19">
     <!-- coop -->
     <g transform="translate(381.635625 169.948312) scale(0.1 -0.1)">
      <use xlink:href="#DejaVuSans-63"/>
      <use xlink:href="#DejaVuSans-6f" x="54.980469"/>
      <use xlink:href="#DejaVuSans-6f" x="116.162109"/>
      <use xlink:href="#DejaVuSans-70" x="177.34375"/>
     </g>
    </g>
    <g id="line2d_59">
     <path d="M 353.635625 181.126437 
L 363.635625 181.126437 
L 373.635625 181.126437 
" style="fill: none; stroke: #ff0000; stroke-width: 1.5; stroke-linecap: square"/>
    </g>
    <g id="text_20">
     <!-- host -->
     <g transform="translate(381.635625 184.626437) scale(0.1 -0.1)">
      <defs>
       <path id="DejaVuSans-68" d="M 3513 2113 
L 3513 0 
L 2938 0 
L 2938 2094 
Q 2938 2591 2744 2837 
Q 2550 3084 2163 3084 
Q 1697 3084 1428 2787 
Q 1159 2491 1159 1978 
L 1159 0 
L 581 0 
L 581 4863 
L 1159 4863 
L 1159 2956 
Q 1366 3272 1645 3428 
Q 1925 3584 2291 3584 
Q 2894 3584 3203 3211 
Q 3513 2838 3513 2113 
z
" transform="scale(0.015625)"/>
      </defs>
      <use xlink:href="#DejaVuSans-68"/>
      <use xlink:href="#DejaVuSans-6f" x="63.378906"/>
      <use xlink:href="#DejaVuSans-73" x="124.560547"/>
      <use xlink:href="#DejaVuSans-74" x="176.660156"/>
     </g>
    </g>
   </g>
  </g>
 </g>
 <defs>
  <clipPath id="p4759f17ed1">
   <rect x="57.6" y="41.472" width="357.12" height="266.112"/>
  </clipPath>
 </defs>
</svg>
