<?xml version="1.0" encoding="utf-8" standalone="no"?>
<!DOCTYPE svg PUBLIC "-//W3C//DTD SVG 1.1//EN"
  "http://www.w3.org/Graphics/SVG/1.1/DTD/svg11.dtd">
<svg xmlns:xlink="http://www.w3.org/1999/xlink" width="460.8pt" height="345.6pt" viewBox="0 0 460.8 345.6" xmlns="http://www.w3.org/2000/svg" version="1.1">
 <metadata>
  <rdf:RDF xmlns:dc="http://purl.org/dc/elements/1.1/" xmlns:cc="http://creativecommons.org/ns#" xmlns:rdf="http://www.w3.org/1999/02/22-rdf-syntax-ns#">
   <cc:Work>
    <dc:type rdf:resource="http://purl.org/dc/dcmitype/StillImage"/>
    <dc:date>2024-06-18T15:36:56.302357</dc:date>
    <dc:format>image/svg+xml</dc:format>
    <dc:creator>
     <cc:Agent>
      <dc:title>Matplotlib v3.7.2, https://matplotlib.org/</dc:title>
     </cc:Agent>
    </dc:creator>
   </cc:Work>
  </rdf:RDF>
 </metadata>
 <defs>
  <style type="text/css">*{stroke-linejoin: round; stroke-linecap: butt}</style>
 </defs>
 <g id="figure_1">
  <g id="patch_1">
   <path d="M 0 345.6 
L 460.8 345.6 
L 460.8 0 
L 0 0 
z
" style="fill: #ffffff"/>
  </g>
  <g id="axes_1">
   <g id="patch_2">
    <path d="M 57.6 307.584 
L 414.72 307.584 
L 414.72 41.472 
L 57.6 41.472 
z
" style="fill: #ffffff"/>
   </g>
   <g id="patch_3">
    <path d="M 73.832727 307.584 
L 73.832727 41.472 
L 236.16 41.472 
L 236.16 307.584 
z
" clip-path="url(#p9ce4343ec8)" style="fill: #add8e6; opacity: 0.2"/>
   </g>
   <g id="patch_4">
    <path d="M 236.16 307.584 
L 236.16 41.472 
L 398.487273 41.472 
L 398.487273 307.584 
z
" clip-path="url(#p9ce4343ec8)" style="fill: #ff7f50; opacity: 0.2"/>
   </g>
   <g id="matplotlib.axis_1">
    <g id="xtick_1">
     <g id="line2d_1">
      <defs>
       <path id="m697ea697a6" d="M 0 0 
L 0 3.5 
" style="stroke: #000000; stroke-width: 0.8"/>
      </defs>
      <g>
       <use xlink:href="#m697ea697a6" x="73.832727" y="307.584" style="stroke: #000000; stroke-width: 0.8"/>
      </g>
     </g>
     <g id="text_1">
      <!-- 0 -->
      <g transform="translate(70.651477 322.182437) scale(0.1 -0.1)">
       <defs>
        <path id="DejaVuSans-30" d="M 2034 4250 
Q 1547 4250 1301 3770 
Q 1056 3291 1056 2328 
Q 1056 1369 1301 889 
Q 1547 409 2034 409 
Q 2525 409 2770 889 
Q 3016 1369 3016 2328 
Q 3016 3291 2770 3770 
Q 2525 4250 2034 4250 
z
M 2034 4750 
Q 2819 4750 3233 4129 
Q 3647 3509 3647 2328 
Q 3647 1150 3233 529 
Q 2819 -91 2034 -91 
Q 1250 -91 836 529 
Q 422 1150 422 2328 
Q 422 3509 836 4129 
Q 1250 4750 2034 4750 
z
" transform="scale(0.015625)"/>
       </defs>
       <use xlink:href="#DejaVuSans-30"/>
      </g>
     </g>
    </g>
    <g id="xtick_2">
     <g id="line2d_2">
      <g>
       <use xlink:href="#m697ea697a6" x="114.414545" y="307.584" style="stroke: #000000; stroke-width: 0.8"/>
      </g>
     </g>
     <g id="text_2">
      <!-- 5 -->
      <g transform="translate(111.233295 322.182437) scale(0.1 -0.1)">
       <defs>
        <path id="DejaVuSans-35" d="M 691 4666 
L 3169 4666 
L 3169 4134 
L 1269 4134 
L 1269 2991 
Q 1406 3038 1543 3061 
Q 1681 3084 1819 3084 
Q 2600 3084 3056 2656 
Q 3513 2228 3513 1497 
Q 3513 744 3044 326 
Q 2575 -91 1722 -91 
Q 1428 -91 1123 -41 
Q 819 9 494 109 
L 494 744 
Q 775 591 1075 516 
Q 1375 441 1709 441 
Q 2250 441 2565 725 
Q 2881 1009 2881 1497 
Q 2881 1984 2565 2268 
Q 2250 2553 1709 2553 
Q 1456 2553 1204 2497 
Q 953 2441 691 2322 
L 691 4666 
z
" transform="scale(0.015625)"/>
       </defs>
       <use xlink:href="#DejaVuSans-35"/>
      </g>
     </g>
    </g>
    <g id="xtick_3">
     <g id="line2d_3">
      <g>
       <use xlink:href="#m697ea697a6" x="154.996364" y="307.584" style="stroke: #000000; stroke-width: 0.8"/>
      </g>
     </g>
     <g id="text_3">
      <!-- 10 -->
      <g transform="translate(148.633864 322.182437) scale(0.1 -0.1)">
       <defs>
        <path id="DejaVuSans-31" d="M 794 531 
L 1825 531 
L 1825 4091 
L 703 3866 
L 703 4441 
L 1819 4666 
L 2450 4666 
L 2450 531 
L 3481 531 
L 3481 0 
L 794 0 
L 794 531 
z
" transform="scale(0.015625)"/>
       </defs>
       <use xlink:href="#DejaVuSans-31"/>
       <use xlink:href="#DejaVuSans-30" x="63.623047"/>
      </g>
     </g>
    </g>
    <g id="xtick_4">
     <g id="line2d_4">
      <g>
       <use xlink:href="#m697ea697a6" x="195.578182" y="307.584" style="stroke: #000000; stroke-width: 0.8"/>
      </g>
     </g>
     <g id="text_4">
      <!-- 15 -->
      <g transform="translate(189.215682 322.182437) scale(0.1 -0.1)">
       <use xlink:href="#DejaVuSans-31"/>
       <use xlink:href="#DejaVuSans-35" x="63.623047"/>
      </g>
     </g>
    </g>
    <g id="xtick_5">
     <g id="line2d_5">
      <g>
       <use xlink:href="#m697ea697a6" x="236.16" y="307.584" style="stroke: #000000; stroke-width: 0.8"/>
      </g>
     </g>
     <g id="text_5">
      <!-- 20 -->
      <g transform="translate(229.7975 322.182437) scale(0.1 -0.1)">
       <defs>
        <path id="DejaVuSans-32" d="M 1228 531 
L 3431 531 
L 3431 0 
L 469 0 
L 469 531 
Q 828 903 1448 1529 
Q 2069 2156 2228 2338 
Q 2531 2678 2651 2914 
Q 2772 3150 2772 3378 
Q 2772 3750 2511 3984 
Q 2250 4219 1831 4219 
Q 1534 4219 1204 4116 
Q 875 4013 500 3803 
L 500 4441 
Q 881 4594 1212 4672 
Q 1544 4750 1819 4750 
Q 2544 4750 2975 4387 
Q 3406 4025 3406 3419 
Q 3406 3131 3298 2873 
Q 3191 2616 2906 2266 
Q 2828 2175 2409 1742 
Q 1991 1309 1228 531 
z
" transform="scale(0.015625)"/>
       </defs>
       <use xlink:href="#DejaVuSans-32"/>
       <use xlink:href="#DejaVuSans-30" x="63.623047"/>
      </g>
     </g>
    </g>
    <g id="xtick_6">
     <g id="line2d_6">
      <g>
       <use xlink:href="#m697ea697a6" x="276.741818" y="307.584" style="stroke: #000000; stroke-width: 0.8"/>
      </g>
     </g>
     <g id="text_6">
      <!-- 25 -->
      <g transform="translate(270.379318 322.182437) scale(0.1 -0.1)">
       <use xlink:href="#DejaVuSans-32"/>
       <use xlink:href="#DejaVuSans-35" x="63.623047"/>
      </g>
     </g>
    </g>
    <g id="xtick_7">
     <g id="line2d_7">
      <g>
       <use xlink:href="#m697ea697a6" x="317.323636" y="307.584" style="stroke: #000000; stroke-width: 0.8"/>
      </g>
     </g>
     <g id="text_7">
      <!-- 30 -->
      <g transform="translate(310.961136 322.182437) scale(0.1 -0.1)">
       <defs>
        <path id="DejaVuSans-33" d="M 2597 2516 
Q 3050 2419 3304 2112 
Q 3559 1806 3559 1356 
Q 3559 666 3084 287 
Q 2609 -91 1734 -91 
Q 1441 -91 1130 -33 
Q 819 25 488 141 
L 488 750 
Q 750 597 1062 519 
Q 1375 441 1716 441 
Q 2309 441 2620 675 
Q 2931 909 2931 1356 
Q 2931 1769 2642 2001 
Q 2353 2234 1838 2234 
L 1294 2234 
L 1294 2753 
L 1863 2753 
Q 2328 2753 2575 2939 
Q 2822 3125 2822 3475 
Q 2822 3834 2567 4026 
Q 2313 4219 1838 4219 
Q 1578 4219 1281 4162 
Q 984 4106 628 3988 
L 628 4550 
Q 988 4650 1302 4700 
Q 1616 4750 1894 4750 
Q 2613 4750 3031 4423 
Q 3450 4097 3450 3541 
Q 3450 3153 3228 2886 
Q 3006 2619 2597 2516 
z
" transform="scale(0.015625)"/>
       </defs>
       <use xlink:href="#DejaVuSans-33"/>
       <use xlink:href="#DejaVuSans-30" x="63.623047"/>
      </g>
     </g>
    </g>
    <g id="xtick_8">
     <g id="line2d_8">
      <g>
       <use xlink:href="#m697ea697a6" x="357.905455" y="307.584" style="stroke: #000000; stroke-width: 0.8"/>
      </g>
     </g>
     <g id="text_8">
      <!-- 35 -->
      <g transform="translate(351.542955 322.182437) scale(0.1 -0.1)">
       <use xlink:href="#DejaVuSans-33"/>
       <use xlink:href="#DejaVuSans-35" x="63.623047"/>
      </g>
     </g>
    </g>
    <g id="xtick_9">
     <g id="line2d_9">
      <g>
       <use xlink:href="#m697ea697a6" x="398.487273" y="307.584" style="stroke: #000000; stroke-width: 0.8"/>
      </g>
     </g>
     <g id="text_9">
      <!-- 40 -->
      <g transform="translate(392.124773 322.182437) scale(0.1 -0.1)">
       <defs>
        <path id="DejaVuSans-34" d="M 2419 4116 
L 825 1625 
L 2419 1625 
L 2419 4116 
z
M 2253 4666 
L 3047 4666 
L 3047 1625 
L 3713 1625 
L 3713 1100 
L 3047 1100 
L 3047 0 
L 2419 0 
L 2419 1100 
L 313 1100 
L 313 1709 
L 2253 4666 
z
" transform="scale(0.015625)"/>
       </defs>
       <use xlink:href="#DejaVuSans-34"/>
       <use xlink:href="#DejaVuSans-30" x="63.623047"/>
      </g>
     </g>
    </g>
    <g id="text_10">
     <!-- t -->
     <g transform="translate(234.199844 335.860562) scale(0.1 -0.1)">
      <defs>
       <path id="DejaVuSans-74" d="M 1172 4494 
L 1172 3500 
L 2356 3500 
L 2356 3053 
L 1172 3053 
L 1172 1153 
Q 1172 725 1289 603 
Q 1406 481 1766 481 
L 2356 481 
L 2356 0 
L 1766 0 
Q 1100 0 847 248 
Q 594 497 594 1153 
L 594 3053 
L 172 3053 
L 172 3500 
L 594 3500 
L 594 4494 
L 1172 4494 
z
" transform="scale(0.015625)"/>
      </defs>
      <use xlink:href="#DejaVuSans-74"/>
     </g>
    </g>
   </g>
   <g id="matplotlib.axis_2">
    <g id="ytick_1">
     <g id="line2d_10">
      <defs>
       <path id="m4c42f1c4c5" d="M 0 0 
L -3.5 0 
" style="stroke: #000000; stroke-width: 0.8"/>
      </defs>
      <g>
       <use xlink:href="#m4c42f1c4c5" x="57.6" y="307.584" style="stroke: #000000; stroke-width: 0.8"/>
      </g>
     </g>
     <g id="text_11">
      <!-- 0.0 -->
      <g transform="translate(34.696875 311.383219) scale(0.1 -0.1)">
       <defs>
        <path id="DejaVuSans-2e" d="M 684 794 
L 1344 794 
L 1344 0 
L 684 0 
L 684 794 
z
" transform="scale(0.015625)"/>
       </defs>
       <use xlink:href="#DejaVuSans-30"/>
       <use xlink:href="#DejaVuSans-2e" x="63.623047"/>
       <use xlink:href="#DejaVuSans-30" x="95.410156"/>
      </g>
     </g>
    </g>
    <g id="ytick_2">
     <g id="line2d_11">
      <g>
       <use xlink:href="#m4c42f1c4c5" x="57.6" y="254.3616" style="stroke: #000000; stroke-width: 0.8"/>
      </g>
     </g>
     <g id="text_12">
      <!-- 0.2 -->
      <g transform="translate(34.696875 258.160819) scale(0.1 -0.1)">
       <use xlink:href="#DejaVuSans-30"/>
       <use xlink:href="#DejaVuSans-2e" x="63.623047"/>
       <use xlink:href="#DejaVuSans-32" x="95.410156"/>
      </g>
     </g>
    </g>
    <g id="ytick_3">
     <g id="line2d_12">
      <g>
       <use xlink:href="#m4c42f1c4c5" x="57.6" y="201.1392" style="stroke: #000000; stroke-width: 0.8"/>
      </g>
     </g>
     <g id="text_13">
      <!-- 0.4 -->
      <g transform="translate(34.696875 204.938419) scale(0.1 -0.1)">
       <use xlink:href="#DejaVuSans-30"/>
       <use xlink:href="#DejaVuSans-2e" x="63.623047"/>
       <use xlink:href="#DejaVuSans-34" x="95.410156"/>
      </g>
     </g>
    </g>
    <g id="ytick_4">
     <g id="line2d_13">
      <g>
       <use xlink:href="#m4c42f1c4c5" x="57.6" y="147.9168" style="stroke: #000000; stroke-width: 0.8"/>
      </g>
     </g>
     <g id="text_14">
      <!-- 0.6 -->
      <g transform="translate(34.696875 151.716019) scale(0.1 -0.1)">
       <defs>
        <path id="DejaVuSans-36" d="M 2113 2584 
Q 1688 2584 1439 2293 
Q 1191 2003 1191 1497 
Q 1191 994 1439 701 
Q 1688 409 2113 409 
Q 2538 409 2786 701 
Q 3034 994 3034 1497 
Q 3034 2003 2786 2293 
Q 2538 2584 2113 2584 
z
M 3366 4563 
L 3366 3988 
Q 3128 4100 2886 4159 
Q 2644 4219 2406 4219 
Q 1781 4219 1451 3797 
Q 1122 3375 1075 2522 
Q 1259 2794 1537 2939 
Q 1816 3084 2150 3084 
Q 2853 3084 3261 2657 
Q 3669 2231 3669 1497 
Q 3669 778 3244 343 
Q 2819 -91 2113 -91 
Q 1303 -91 875 529 
Q 447 1150 447 2328 
Q 447 3434 972 4092 
Q 1497 4750 2381 4750 
Q 2619 4750 2861 4703 
Q 3103 4656 3366 4563 
z
" transform="scale(0.015625)"/>
       </defs>
       <use xlink:href="#DejaVuSans-30"/>
       <use xlink:href="#DejaVuSans-2e" x="63.623047"/>
       <use xlink:href="#DejaVuSans-36" x="95.410156"/>
      </g>
     </g>
    </g>
    <g id="ytick_5">
     <g id="line2d_14">
      <g>
       <use xlink:href="#m4c42f1c4c5" x="57.6" y="94.6944" style="stroke: #000000; stroke-width: 0.8"/>
      </g>
     </g>
     <g id="text_15">
      <!-- 0.8 -->
      <g transform="translate(34.696875 98.493619) scale(0.1 -0.1)">
       <defs>
        <path id="DejaVuSans-38" d="M 2034 2216 
Q 1584 2216 1326 1975 
Q 1069 1734 1069 1313 
Q 1069 891 1326 650 
Q 1584 409 2034 409 
Q 2484 409 2743 651 
Q 3003 894 3003 1313 
Q 3003 1734 2745 1975 
Q 2488 2216 2034 2216 
z
M 1403 2484 
Q 997 2584 770 2862 
Q 544 3141 544 3541 
Q 544 4100 942 4425 
Q 1341 4750 2034 4750 
Q 2731 4750 3128 4425 
Q 3525 4100 3525 3541 
Q 3525 3141 3298 2862 
Q 3072 2584 2669 2484 
Q 3125 2378 3379 2068 
Q 3634 1759 3634 1313 
Q 3634 634 3220 271 
Q 2806 -91 2034 -91 
Q 1263 -91 848 271 
Q 434 634 434 1313 
Q 434 1759 690 2068 
Q 947 2378 1403 2484 
z
M 1172 3481 
Q 1172 3119 1398 2916 
Q 1625 2713 2034 2713 
Q 2441 2713 2670 2916 
Q 2900 3119 2900 3481 
Q 2900 3844 2670 4047 
Q 2441 4250 2034 4250 
Q 1625 4250 1398 4047 
Q 1172 3844 1172 3481 
z
" transform="scale(0.015625)"/>
       </defs>
       <use xlink:href="#DejaVuSans-30"/>
       <use xlink:href="#DejaVuSans-2e" x="63.623047"/>
       <use xlink:href="#DejaVuSans-38" x="95.410156"/>
      </g>
     </g>
    </g>
    <g id="ytick_6">
     <g id="line2d_15">
      <g>
       <use xlink:href="#m4c42f1c4c5" x="57.6" y="41.472" style="stroke: #000000; stroke-width: 0.8"/>
      </g>
     </g>
     <g id="text_16">
      <!-- 1.0 -->
      <g transform="translate(34.696875 45.271219) scale(0.1 -0.1)">
       <use xlink:href="#DejaVuSans-31"/>
       <use xlink:href="#DejaVuSans-2e" x="63.623047"/>
       <use xlink:href="#DejaVuSans-30" x="95.410156"/>
      </g>
     </g>
    </g>
    <g id="text_17">
     <!-- p(context) -->
     <g transform="translate(28.617187 200.449875) rotate(-90) scale(0.1 -0.1)">
      <defs>
       <path id="DejaVuSans-70" d="M 1159 525 
L 1159 -1331 
L 581 -1331 
L 581 3500 
L 1159 3500 
L 1159 2969 
Q 1341 3281 1617 3432 
Q 1894 3584 2278 3584 
Q 2916 3584 3314 3078 
Q 3713 2572 3713 1747 
Q 3713 922 3314 415 
Q 2916 -91 2278 -91 
Q 1894 -91 1617 61 
Q 1341 213 1159 525 
z
M 3116 1747 
Q 3116 2381 2855 2742 
Q 2594 3103 2138 3103 
Q 1681 3103 1420 2742 
Q 1159 2381 1159 1747 
Q 1159 1113 1420 752 
Q 1681 391 2138 391 
Q 2594 391 2855 752 
Q 3116 1113 3116 1747 
z
" transform="scale(0.015625)"/>
       <path id="DejaVuSans-28" d="M 1984 4856 
Q 1566 4138 1362 3434 
Q 1159 2731 1159 2009 
Q 1159 1288 1364 580 
Q 1569 -128 1984 -844 
L 1484 -844 
Q 1016 -109 783 600 
Q 550 1309 550 2009 
Q 550 2706 781 3412 
Q 1013 4119 1484 4856 
L 1984 4856 
z
" transform="scale(0.015625)"/>
       <path id="DejaVuSans-63" d="M 3122 3366 
L 3122 2828 
Q 2878 2963 2633 3030 
Q 2388 3097 2138 3097 
Q 1578 3097 1268 2742 
Q 959 2388 959 1747 
Q 959 1106 1268 751 
Q 1578 397 2138 397 
Q 2388 397 2633 464 
Q 2878 531 3122 666 
L 3122 134 
Q 2881 22 2623 -34 
Q 2366 -91 2075 -91 
Q 1284 -91 818 406 
Q 353 903 353 1747 
Q 353 2603 823 3093 
Q 1294 3584 2113 3584 
Q 2378 3584 2631 3529 
Q 2884 3475 3122 3366 
z
" transform="scale(0.015625)"/>
       <path id="DejaVuSans-6f" d="M 1959 3097 
Q 1497 3097 1228 2736 
Q 959 2375 959 1747 
Q 959 1119 1226 758 
Q 1494 397 1959 397 
Q 2419 397 2687 759 
Q 2956 1122 2956 1747 
Q 2956 2369 2687 2733 
Q 2419 3097 1959 3097 
z
M 1959 3584 
Q 2709 3584 3137 3096 
Q 3566 2609 3566 1747 
Q 3566 888 3137 398 
Q 2709 -91 1959 -91 
Q 1206 -91 779 398 
Q 353 888 353 1747 
Q 353 2609 779 3096 
Q 1206 3584 1959 3584 
z
" transform="scale(0.015625)"/>
       <path id="DejaVuSans-6e" d="M 3513 2113 
L 3513 0 
L 2938 0 
L 2938 2094 
Q 2938 2591 2744 2837 
Q 2550 3084 2163 3084 
Q 1697 3084 1428 2787 
Q 1159 2491 1159 1978 
L 1159 0 
L 581 0 
L 581 3500 
L 1159 3500 
L 1159 2956 
Q 1366 3272 1645 3428 
Q 1925 3584 2291 3584 
Q 2894 3584 3203 3211 
Q 3513 2838 3513 2113 
z
" transform="scale(0.015625)"/>
       <path id="DejaVuSans-65" d="M 3597 1894 
L 3597 1613 
L 953 1613 
Q 991 1019 1311 708 
Q 1631 397 2203 397 
Q 2534 397 2845 478 
Q 3156 559 3463 722 
L 3463 178 
Q 3153 47 2828 -22 
Q 2503 -91 2169 -91 
Q 1331 -91 842 396 
Q 353 884 353 1716 
Q 353 2575 817 3079 
Q 1281 3584 2069 3584 
Q 2775 3584 3186 3129 
Q 3597 2675 3597 1894 
z
M 3022 2063 
Q 3016 2534 2758 2815 
Q 2500 3097 2075 3097 
Q 1594 3097 1305 2825 
Q 1016 2553 972 2059 
L 3022 2063 
z
" transform="scale(0.015625)"/>
       <path id="DejaVuSans-78" d="M 3513 3500 
L 2247 1797 
L 3578 0 
L 2900 0 
L 1881 1375 
L 863 0 
L 184 0 
L 1544 1831 
L 300 3500 
L 978 3500 
L 1906 2253 
L 2834 3500 
L 3513 3500 
z
" transform="scale(0.015625)"/>
       <path id="DejaVuSans-29" d="M 513 4856 
L 1013 4856 
Q 1481 4119 1714 3412 
Q 1947 2706 1947 2009 
Q 1947 1309 1714 600 
Q 1481 -109 1013 -844 
L 513 -844 
Q 928 -128 1133 580 
Q 1338 1288 1338 2009 
Q 1338 2731 1133 3434 
Q 928 4138 513 4856 
z
" transform="scale(0.015625)"/>
      </defs>
      <use xlink:href="#DejaVuSans-70"/>
      <use xlink:href="#DejaVuSans-28" x="63.476562"/>
      <use xlink:href="#DejaVuSans-63" x="102.490234"/>
      <use xlink:href="#DejaVuSans-6f" x="157.470703"/>
      <use xlink:href="#DejaVuSans-6e" x="218.652344"/>
      <use xlink:href="#DejaVuSans-74" x="282.03125"/>
      <use xlink:href="#DejaVuSans-65" x="321.240234"/>
      <use xlink:href="#DejaVuSans-78" x="381.013672"/>
      <use xlink:href="#DejaVuSans-74" x="440.193359"/>
      <use xlink:href="#DejaVuSans-29" x="479.402344"/>
     </g>
    </g>
   </g>
   <g id="line2d_16">
    <path d="M 73.832727 147.9168 
L 81.949091 301.175595 
L 90.065455 97.637624 
L 98.181818 57.0919 
L 106.298182 50.720066 
L 114.414545 48.420919 
L 122.530909 47.122045 
L 130.647273 46.262119 
L 138.763636 45.64612 
L 146.88 45.181562 
L 154.996364 44.817892 
L 163.112727 244.949744 
L 171.229091 76.696926 
L 179.345455 49.086772 
L 187.461818 46.34157 
L 195.578182 45.830308 
L 203.694545 224.119699 
L 211.810909 76.826837 
L 219.927273 50.680503 
L 228.043636 47.553455 
L 236.16 66.622668 
L 244.276364 249.606275 
L 252.392727 297.971289 
L 260.509091 302.940197 
L 268.625455 304.165642 
L 276.741818 304.860453 
L 284.858182 139.688551 
L 292.974545 282.239916 
L 301.090909 302.574574 
L 309.207273 304.407087 
L 317.323636 152.122703 
L 325.44 281.84437 
L 333.556364 301.855399 
L 341.672727 303.877642 
L 349.789091 304.354689 
L 357.905455 267.736518 
L 366.021818 110.467993 
L 374.138182 57.242299 
L 382.254545 227.689962 
L 390.370909 294.082301 
" clip-path="url(#p9ce4343ec8)" style="fill: none; stroke: #add8e6; stroke-opacity: 0.3; stroke-width: 1.5; stroke-linecap: square"/>
   </g>
   <g id="line2d_17">
    <path d="M 73.832727 147.9168 
L 81.949091 53.862343 
L 90.065455 255.988789 
L 98.181818 74.281071 
L 106.298182 242.33297 
L 114.414545 84.491268 
L 122.530909 230.641325 
L 130.647273 92.487953 
L 138.763636 66.20547 
L 146.88 60.663166 
L 154.996364 58.044288 
L 163.112727 56.161779 
L 171.229091 54.669498 
L 179.345455 53.451444 
L 187.461818 52.439655 
L 195.578182 51.5872 
L 203.694545 50.860148 
L 211.810909 50.23337 
L 219.927273 49.687895 
L 228.043636 49.209167 
L 236.16 73.453394 
L 244.276364 243.131152 
L 252.392727 290.728177 
L 260.509091 104.533353 
L 268.625455 248.646752 
L 276.741818 288.360367 
L 284.858182 295.76184 
L 292.974545 298.239 
L 301.090909 299.751577 
L 309.207273 131.034446 
L 317.323636 261.686982 
L 325.44 293.281644 
L 333.556364 298.354737 
L 341.672727 299.73838 
L 349.789091 300.565343 
L 357.905455 301.223239 
L 366.021818 255.902608 
L 374.138182 99.160291 
L 382.254545 249.417527 
L 390.370909 292.974374 
" clip-path="url(#p9ce4343ec8)" style="fill: none; stroke: #add8e6; stroke-opacity: 0.3; stroke-width: 1.5; stroke-linecap: square"/>
   </g>
   <g id="line2d_18">
    <path d="M 73.832727 147.9168 
L 81.949091 53.862343 
L 90.065455 47.558781 
L 98.181818 241.389165 
L 106.298182 67.460767 
L 114.414545 49.925707 
L 122.530909 47.735654 
L 130.647273 46.789486 
L 138.763636 46.127736 
L 146.88 45.622005 
L 154.996364 209.949603 
L 163.112727 64.195914 
L 171.229091 48.329933 
L 179.345455 46.796486 
L 187.461818 46.3366 
L 195.578182 197.991247 
L 203.694545 65.361192 
L 211.810909 205.637055 
L 219.927273 272.026725 
L 228.043636 95.1953 
L 236.16 98.120377 
L 244.276364 57.82691 
L 252.392727 175.350943 
L 260.509091 243.126548 
L 268.625455 94.451576 
L 276.741818 193.470683 
L 284.858182 240.840112 
L 292.974545 100.956008 
L 301.090909 190.119922 
L 309.207273 231.425355 
L 317.323636 103.985029 
L 325.44 185.561154 
L 333.556364 94.419762 
L 341.672727 175.350626 
L 349.789091 211.281884 
L 357.905455 225.350222 
L 366.021818 231.608566 
L 374.138182 235.327096 
L 382.254545 112.793361 
L 390.370909 81.252754 
" clip-path="url(#p9ce4343ec8)" style="fill: none; stroke: #add8e6; stroke-opacity: 0.3; stroke-width: 1.5; stroke-linecap: square"/>
   </g>
   <g id="line2d_19">
    <path d="M 73.832727 147.9168 
L 81.949091 53.862343 
L 90.065455 47.558781 
L 98.181818 45.740824 
L 106.298182 44.824145 
L 114.414545 44.257084 
L 122.530909 43.867711 
L 130.647273 43.582271 
L 138.763636 43.363275 
L 146.88 43.1895 
L 154.996364 43.047977 
L 163.112727 42.930309 
L 171.229091 42.830809 
L 179.345455 42.745479 
L 187.461818 42.671427 
L 195.578182 228.297893 
L 203.694545 58.324576 
L 211.810909 44.170353 
L 219.927273 43.329393 
L 228.043636 43.206062 
L 236.16 52.358256 
L 244.276364 43.598119 
L 252.392727 218.155897 
L 260.509091 299.010332 
L 268.625455 305.023015 
L 276.741818 305.991274 
L 284.858182 306.423923 
L 292.974545 306.67891 
L 301.090909 123.10832 
L 309.207273 287.722404 
L 317.323636 110.828038 
L 325.44 276.867065 
L 333.556364 111.080268 
L 341.672727 269.15812 
L 349.789091 113.27956 
L 357.905455 56.735243 
L 366.021818 209.026747 
L 374.138182 85.994837 
L 382.254545 233.384184 
L 390.370909 290.395916 
" clip-path="url(#p9ce4343ec8)" style="fill: none; stroke: #add8e6; stroke-opacity: 0.3; stroke-width: 1.5; stroke-linecap: square"/>
   </g>
   <g id="line2d_20">
    <path d="M 73.832727 147.9168 
L 81.949091 53.862343 
L 90.065455 47.558781 
L 98.181818 45.740824 
L 106.298182 44.824145 
L 114.414545 44.257084 
L 122.530909 43.867711 
L 130.647273 43.582271 
L 138.763636 223.871172 
L 146.88 59.079261 
L 154.996364 45.513362 
L 163.112727 44.517551 
L 171.229091 44.246308 
L 179.345455 44.04687 
L 187.461818 43.877713 
L 195.578182 43.731316 
L 203.694545 43.603274 
L 211.810909 43.490299 
L 219.927273 43.38985 
L 228.043636 43.299927 
L 236.16 52.916709 
L 244.276364 257.450111 
L 252.392727 70.021541 
L 260.509091 256.213592 
L 268.625455 79.588407 
L 276.741818 249.728026 
L 284.858182 297.760982 
L 292.974545 116.282361 
L 301.090909 263.183529 
L 309.207273 297.377971 
L 317.323636 131.025046 
L 325.44 62.80756 
L 333.556364 209.744774 
L 341.672727 89.234754 
L 349.789091 225.646212 
L 357.905455 281.959054 
L 366.021818 132.131194 
L 374.138182 70.822227 
L 382.254545 198.397945 
L 390.370909 95.231869 
" clip-path="url(#p9ce4343ec8)" style="fill: none; stroke: #add8e6; stroke-opacity: 0.3; stroke-width: 1.5; stroke-linecap: square"/>
   </g>
   <g id="line2d_21">
    <path d="M 73.832727 147.9168 
L 81.949091 53.862343 
L 90.065455 47.558781 
L 98.181818 241.389165 
L 106.298182 67.460767 
L 114.414545 233.185177 
L 122.530909 76.549353 
L 130.647273 54.69926 
L 138.763636 51.466415 
L 146.88 50.102527 
L 154.996364 49.130593 
L 163.112727 201.533553 
L 171.229091 70.84461 
L 179.345455 52.959051 
L 187.461818 50.614351 
L 195.578182 49.801389 
L 203.694545 49.207421 
L 211.810909 48.702317 
L 219.927273 48.262141 
L 228.043636 47.874846 
L 236.16 69.038911 
L 244.276364 49.300161 
L 252.392727 202.573058 
L 260.509091 277.031484 
L 268.625455 292.877749 
L 276.741818 297.416501 
L 284.858182 299.7133 
L 292.974545 301.202695 
L 301.090909 302.255062 
L 309.207273 303.033604 
L 317.323636 303.629166 
L 325.44 125.719511 
L 333.556364 267.244517 
L 341.672727 104.500757 
L 349.789091 249.559088 
L 357.905455 293.49638 
L 366.021818 134.335936 
L 374.138182 65.110342 
L 382.254545 209.705693 
L 390.370909 279.929346 
" clip-path="url(#p9ce4343ec8)" style="fill: none; stroke: #add8e6; stroke-opacity: 0.3; stroke-width: 1.5; stroke-linecap: square"/>
   </g>
   <g id="line2d_22">
    <path d="M 73.832727 147.9168 
L 81.949091 53.862343 
L 90.065455 47.558781 
L 98.181818 45.740824 
L 106.298182 233.456327 
L 114.414545 63.94567 
L 122.530909 48.26409 
L 130.647273 46.597986 
L 138.763636 45.928134 
L 146.88 45.445116 
L 154.996364 45.063713 
L 163.112727 44.753666 
L 171.229091 44.496468 
L 179.345455 44.279567 
L 187.461818 44.094107 
L 195.578182 43.933654 
L 203.694545 213.864063 
L 211.810909 61.445011 
L 219.927273 223.721074 
L 228.043636 69.103906 
L 236.16 74.949094 
L 244.276364 236.789685 
L 252.392727 290.218554 
L 260.509091 102.394667 
L 268.625455 55.140638 
L 276.741818 201.223144 
L 284.858182 276.701325 
L 292.974545 292.551206 
L 301.090909 296.61726 
L 309.207273 298.639323 
L 317.323636 300.033191 
L 325.44 301.083269 
L 333.556364 301.901662 
L 341.672727 302.554073 
L 349.789091 303.083885 
L 357.905455 135.464668 
L 366.021818 267.496236 
L 374.138182 297.988061 
L 382.254545 257.078421 
L 390.370909 296.896413 
" clip-path="url(#p9ce4343ec8)" style="fill: none; stroke: #add8e6; stroke-opacity: 0.3; stroke-width: 1.5; stroke-linecap: square"/>
   </g>
   <g id="line2d_23">
    <path d="M 73.832727 147.9168 
L 81.949091 301.175595 
L 90.065455 97.637624 
L 98.181818 57.0919 
L 106.298182 50.720066 
L 114.414545 48.420919 
L 122.530909 47.122045 
L 130.647273 247.381456 
L 138.763636 299.891797 
L 146.88 120.722422 
L 154.996364 59.439803 
L 163.112727 51.059312 
L 171.229091 49.409654 
L 179.345455 48.593943 
L 187.461818 47.975941 
L 195.578182 226.745611 
L 203.694545 84.887541 
L 211.810909 54.665074 
L 219.927273 50.294198 
L 228.043636 49.3316 
L 236.16 73.670451 
L 244.276364 253.160177 
L 252.392727 297.371663 
L 260.509091 302.261181 
L 268.625455 136.714211 
L 276.741818 274.127559 
L 284.858182 123.834176 
L 292.974545 67.192883 
L 301.090909 225.26075 
L 309.207273 285.617398 
L 317.323636 296.266369 
L 325.44 298.634218 
L 333.556364 299.792646 
L 341.672727 300.654849 
L 349.789091 301.359565 
L 357.905455 155.080577 
L 366.021818 271.883706 
L 374.138182 296.483294 
L 382.254545 300.121569 
L 390.370909 257.219371 
" clip-path="url(#p9ce4343ec8)" style="fill: none; stroke: #add8e6; stroke-opacity: 0.3; stroke-width: 1.5; stroke-linecap: square"/>
   </g>
   <g id="line2d_24">
    <path d="M 73.832727 147.9168 
L 81.949091 53.862343 
L 90.065455 47.558781 
L 98.181818 45.740824 
L 106.298182 44.824145 
L 114.414545 44.257084 
L 122.530909 43.867711 
L 130.647273 224.550019 
L 138.763636 59.662424 
L 146.88 45.923668 
L 154.996364 44.84878 
L 163.112727 44.524647 
L 171.229091 44.285062 
L 179.345455 44.084366 
L 187.461818 43.912691 
L 195.578182 210.750726 
L 203.694545 60.790971 
L 211.810909 45.950614 
L 219.927273 44.809687 
L 228.043636 44.581523 
L 236.16 58.383356 
L 244.276364 45.315031 
L 252.392727 205.244097 
L 260.509091 289.115035 
L 268.625455 300.804003 
L 276.741818 303.246518 
L 284.858182 304.361807 
L 292.974545 117.111012 
L 301.090909 270.416923 
L 309.207273 301.024785 
L 317.323636 303.929373 
L 325.44 304.574284 
L 333.556364 304.968973 
L 341.672727 305.274059 
L 349.789091 270.708951 
L 357.905455 303.26393 
L 366.021818 270.906759 
L 374.138182 303.451211 
L 382.254545 272.600752 
L 390.370909 303.70471 
" clip-path="url(#p9ce4343ec8)" style="fill: none; stroke: #add8e6; stroke-opacity: 0.3; stroke-width: 1.5; stroke-linecap: square"/>
   </g>
   <g id="line2d_25">
    <path d="M 73.832727 147.9168 
L 81.949091 53.862343 
L 90.065455 47.558781 
L 98.181818 45.740824 
L 106.298182 44.824145 
L 114.414545 44.257084 
L 122.530909 43.867711 
L 130.647273 43.582271 
L 138.763636 223.871172 
L 146.88 59.079261 
L 154.996364 226.13809 
L 163.112727 66.405142 
L 171.229091 216.914924 
L 179.345455 71.184886 
L 187.461818 207.052238 
L 195.578182 74.962589 
L 203.694545 53.870079 
L 211.810909 50.985844 
L 219.927273 50.157616 
L 228.043636 49.604156 
L 236.16 73.17874 
L 244.276364 218.429562 
L 252.392727 275.72156 
L 260.509091 289.302951 
L 268.625455 294.076754 
L 276.741818 296.780049 
L 284.858182 298.634619 
L 292.974545 299.994675 
L 301.090909 301.028674 
L 309.207273 301.836203 
L 317.323636 302.480975 
L 325.44 303.005521 
L 333.556364 303.43916 
L 341.672727 264.09495 
L 349.789091 86.216164 
L 357.905455 246.392953 
L 366.021818 295.756659 
L 374.138182 257.843049 
L 382.254545 297.501652 
L 390.370909 260.327502 
" clip-path="url(#p9ce4343ec8)" style="fill: none; stroke: #add8e6; stroke-opacity: 0.3; stroke-width: 1.5; stroke-linecap: square"/>
   </g>
   <g id="line2d_26">
    <path d="M 73.832727 147.9168 
L 81.949091 53.862343 
L 90.065455 255.988789 
L 98.181818 74.281071 
L 106.298182 52.829065 
L 114.414545 223.272971 
L 122.530909 76.115339 
L 130.647273 55.544434 
L 138.763636 52.26696 
L 146.88 50.805482 
L 154.996364 202.091535 
L 163.112727 73.508967 
L 171.229091 54.997265 
L 179.345455 52.312794 
L 187.461818 51.291656 
L 195.578182 50.538354 
L 203.694545 49.903106 
L 211.810909 49.354393 
L 219.927273 195.256008 
L 228.043636 268.586527 
L 236.16 186.243716 
L 244.276364 269.899702 
L 252.392727 288.571944 
L 260.509091 107.244487 
L 268.625455 60.307149 
L 276.741818 201.358082 
L 284.858182 267.289356 
L 292.974545 284.097619 
L 301.090909 118.013007 
L 309.207273 230.406176 
L 317.323636 101.307526 
L 325.44 67.238284 
L 333.556364 60.664272 
L 341.672727 58.956056 
L 349.789091 188.943991 
L 357.905455 89.506197 
L 366.021818 203.056646 
L 374.138182 252.861947 
L 382.254545 268.740279 
L 390.370909 274.453242 
" clip-path="url(#p9ce4343ec8)" style="fill: none; stroke: #add8e6; stroke-opacity: 0.3; stroke-width: 1.5; stroke-linecap: square"/>
   </g>
   <g id="line2d_27">
    <path d="M 73.832727 147.9168 
L 81.949091 53.862343 
L 90.065455 47.558781 
L 98.181818 45.740824 
L 106.298182 44.824145 
L 114.414545 44.257084 
L 122.530909 43.867711 
L 130.647273 43.582271 
L 138.763636 43.363275 
L 146.88 43.1895 
L 154.996364 224.033309 
L 163.112727 58.445823 
L 171.229091 44.933719 
L 179.345455 208.587965 
L 187.461818 290.839961 
L 195.578182 301.882144 
L 203.694545 304.102702 
L 211.810909 113.753328 
L 219.927273 52.289994 
L 228.043636 211.169328 
L 236.16 177.603331 
L 244.276364 64.03238 
L 252.392727 214.847401 
L 260.509091 283.947376 
L 268.625455 296.377731 
L 276.741818 299.04303 
L 284.858182 300.277434 
L 292.974545 123.738966 
L 301.090909 252.193209 
L 309.207273 100.152531 
L 317.323636 231.268239 
L 325.44 282.343111 
L 333.556364 293.29996 
L 341.672727 245.735787 
L 349.789091 286.963984 
L 357.905455 242.993946 
L 366.021818 286.974355 
L 374.138182 244.135929 
L 382.254545 97.429882 
L 390.370909 231.913935 
" clip-path="url(#p9ce4343ec8)" style="fill: none; stroke: #add8e6; stroke-opacity: 0.3; stroke-width: 1.5; stroke-linecap: square"/>
   </g>
   <g id="line2d_28">
    <path d="M 73.832727 147.9168 
L 81.949091 301.175595 
L 90.065455 97.637624 
L 98.181818 57.0919 
L 106.298182 50.720066 
L 114.414545 254.849379 
L 122.530909 89.482079 
L 130.647273 56.701146 
L 138.763636 51.890618 
L 146.88 228.658323 
L 154.996364 87.716682 
L 163.112727 58.804351 
L 171.229091 54.08751 
L 179.345455 52.594571 
L 187.461818 51.630451 
L 195.578182 213.717201 
L 203.694545 84.89538 
L 211.810909 58.62998 
L 219.927273 54.301171 
L 228.043636 53.115269 
L 236.16 80.554779 
L 244.276364 239.658863 
L 252.392727 286.692371 
L 260.509091 295.39144 
L 268.625455 298.252882 
L 276.741818 132.205936 
L 284.858182 261.435499 
L 292.974545 291.92282 
L 301.090909 297.199173 
L 309.207273 298.883588 
L 317.323636 299.950116 
L 325.44 146.310856 
L 333.556364 266.647669 
L 341.672727 294.004239 
L 349.789091 298.42733 
L 357.905455 152.637532 
L 366.021818 265.04395 
L 374.138182 292.264549 
L 382.254545 246.968796 
L 390.370909 289.608609 
" clip-path="url(#p9ce4343ec8)" style="fill: none; stroke: #add8e6; stroke-opacity: 0.3; stroke-width: 1.5; stroke-linecap: square"/>
   </g>
   <g id="line2d_29">
    <path d="M 73.832727 147.9168 
L 81.949091 301.175595 
L 90.065455 97.637624 
L 98.181818 57.0919 
L 106.298182 50.720066 
L 114.414545 48.420919 
L 122.530909 47.122045 
L 130.647273 247.381456 
L 138.763636 81.961391 
L 146.88 251.98654 
L 154.996364 294.947839 
L 163.112727 126.982128 
L 171.229091 65.994914 
L 179.345455 55.496061 
L 187.461818 53.140095 
L 195.578182 52.004476 
L 203.694545 51.154343 
L 211.810909 50.445077 
L 219.927273 49.837482 
L 228.043636 49.310539 
L 236.16 74.411969 
L 244.276364 257.746881 
L 252.392727 298.699057 
L 260.509091 302.87362 
L 268.625455 303.915814 
L 276.741818 304.542684 
L 284.858182 305.000136 
L 292.974545 144.590761 
L 301.090909 283.852422 
L 309.207273 130.41906 
L 317.323636 273.39114 
L 325.44 299.762825 
L 333.556364 302.742816 
L 341.672727 303.401661 
L 349.789091 303.799905 
L 357.905455 266.249276 
L 366.021818 300.83113 
L 374.138182 265.434958 
L 382.254545 300.964913 
L 390.370909 266.754727 
" clip-path="url(#p9ce4343ec8)" style="fill: none; stroke: #add8e6; stroke-opacity: 0.3; stroke-width: 1.5; stroke-linecap: square"/>
   </g>
   <g id="line2d_30">
    <path d="M 73.832727 147.9168 
L 81.949091 53.862343 
L 90.065455 47.558781 
L 98.181818 241.389165 
L 106.298182 67.460767 
L 114.414545 49.925707 
L 122.530909 47.735654 
L 130.647273 212.639647 
L 138.763636 67.969474 
L 146.88 50.956039 
L 154.996364 48.882235 
L 163.112727 197.764189 
L 171.229091 270.406981 
L 179.345455 93.514442 
L 187.461818 57.256257 
L 195.578182 52.443906 
L 203.694545 51.255337 
L 211.810909 50.528826 
L 219.927273 49.928466 
L 228.043636 49.406897 
L 236.16 73.903438 
L 244.276364 208.876959 
L 252.392727 269.822561 
L 260.509091 285.893486 
L 268.625455 109.505332 
L 276.741818 226.572264 
L 284.858182 272.424193 
L 292.974545 284.684368 
L 301.090909 289.023818 
L 309.207273 291.528307 
L 317.323636 293.392938 
L 325.44 294.893988 
L 333.556364 296.134183 
L 341.672727 297.173451 
L 349.789091 248.397318 
L 357.905455 290.111689 
L 366.021818 245.35715 
L 374.138182 290.10796 
L 382.254545 246.660279 
L 390.370909 290.785106 
" clip-path="url(#p9ce4343ec8)" style="fill: none; stroke: #add8e6; stroke-opacity: 0.3; stroke-width: 1.5; stroke-linecap: square"/>
   </g>
   <g id="line2d_31">
    <path d="M 73.832727 147.9168 
L 81.949091 301.175595 
L 90.065455 306.336319 
L 98.181818 118.98439 
L 106.298182 60.693326 
L 114.414545 51.878049 
L 122.530909 49.097278 
L 130.647273 47.606123 
L 138.763636 253.70554 
L 146.88 301.869231 
L 154.996364 305.321143 
L 163.112727 141.259895 
L 171.229091 283.682097 
L 179.345455 128.626231 
L 187.461818 66.320886 
L 195.578182 55.292684 
L 203.694545 229.559249 
L 211.810909 101.80338 
L 219.927273 247.303524 
L 228.043636 289.038803 
L 236.16 242.269162 
L 244.276364 287.43954 
L 252.392727 295.726444 
L 260.509091 166.835661 
L 268.625455 265.717339 
L 276.741818 289.51644 
L 284.858182 294.49936 
L 292.974545 296.107091 
L 301.090909 255.583452 
L 309.207273 290.222018 
L 317.323636 253.240226 
L 325.44 131.710436 
L 333.556364 255.667764 
L 341.672727 141.115067 
L 349.789091 253.255924 
L 357.905455 283.737195 
L 366.021818 246.845177 
L 374.138182 227.066997 
L 382.254545 278.590027 
L 390.370909 244.131781 
" clip-path="url(#p9ce4343ec8)" style="fill: none; stroke: #add8e6; stroke-opacity: 0.3; stroke-width: 1.5; stroke-linecap: square"/>
   </g>
   <g id="line2d_32">
    <path d="M 73.832727 147.9168 
L 81.949091 53.862343 
L 90.065455 47.558781 
L 98.181818 45.740824 
L 106.298182 44.824145 
L 114.414545 228.785735 
L 122.530909 61.860973 
L 130.647273 47.20006 
L 138.763636 45.827569 
L 146.88 208.522912 
L 154.996364 63.838394 
L 163.112727 48.498351 
L 171.229091 196.263729 
L 179.345455 66.450475 
L 187.461818 50.564865 
L 195.578182 186.109887 
L 203.694545 258.889627 
L 211.810909 90.193862 
L 219.927273 205.724424 
L 228.043636 256.616201 
L 236.16 183.066415 
L 244.276364 75.166503 
L 252.392727 193.11826 
L 260.509091 246.516453 
L 268.625455 263.936649 
L 276.741818 105.497265 
L 284.858182 204.256243 
L 292.974545 245.124474 
L 301.090909 258.845169 
L 309.207273 264.52766 
L 317.323636 267.97587 
L 325.44 270.67311 
L 333.556364 115.726268 
L 341.672727 212.127606 
L 349.789091 250.003589 
L 357.905455 198.813942 
L 366.021818 246.651833 
L 374.138182 198.150641 
L 382.254545 247.54841 
L 390.370909 199.354849 
" clip-path="url(#p9ce4343ec8)" style="fill: none; stroke: #add8e6; stroke-opacity: 0.3; stroke-width: 1.5; stroke-linecap: square"/>
   </g>
   <g id="line2d_33">
    <path d="M 73.832727 147.9168 
L 81.949091 53.862343 
L 90.065455 47.558781 
L 98.181818 45.740824 
L 106.298182 44.824145 
L 114.414545 44.257084 
L 122.530909 43.867711 
L 130.647273 43.582271 
L 138.763636 43.363275 
L 146.88 43.1895 
L 154.996364 43.047977 
L 163.112727 42.930309 
L 171.229091 42.830809 
L 179.345455 226.239557 
L 187.461818 58.220216 
L 195.578182 44.401282 
L 203.694545 43.551831 
L 211.810909 43.406472 
L 219.927273 43.308539 
L 228.043636 212.759553 
L 236.16 143.933133 
L 244.276364 287.022443 
L 252.392727 303.051147 
L 260.509091 304.940907 
L 268.625455 113.993292 
L 276.741818 277.228998 
L 284.858182 105.40936 
L 292.974545 264.116643 
L 301.090909 299.367191 
L 309.207273 303.059105 
L 317.323636 303.918689 
L 325.44 304.438777 
L 333.556364 144.843956 
L 341.672727 62.173375 
L 349.789091 49.167989 
L 357.905455 207.941622 
L 366.021818 83.78675 
L 374.138182 237.661134 
L 382.254545 292.466416 
L 390.370909 143.614465 
" clip-path="url(#p9ce4343ec8)" style="fill: none; stroke: #add8e6; stroke-opacity: 0.3; stroke-width: 1.5; stroke-linecap: square"/>
   </g>
   <g id="line2d_34">
    <path d="M 73.832727 147.9168 
L 81.949091 53.862343 
L 90.065455 255.988789 
L 98.181818 74.281071 
L 106.298182 52.829065 
L 114.414545 49.547155 
L 122.530909 48.080302 
L 130.647273 47.108821 
L 138.763636 212.192884 
L 146.88 67.734249 
L 154.996364 50.364549 
L 163.112727 48.383316 
L 171.229091 47.686733 
L 179.345455 47.175067 
L 187.461818 46.748639 
L 195.578182 46.384927 
L 203.694545 46.070909 
L 211.810909 45.797084 
L 219.927273 45.556221 
L 228.043636 45.342719 
L 236.16 61.028477 
L 244.276364 246.023875 
L 252.392727 298.214599 
L 260.509091 303.477886 
L 268.625455 304.747866 
L 276.741818 118.733677 
L 284.858182 276.341377 
L 292.974545 107.287133 
L 301.090909 262.496273 
L 309.207273 298.39824 
L 317.323636 302.50628 
L 325.44 303.437289 
L 333.556364 303.986054 
L 341.672727 304.408792 
L 349.789091 146.348885 
L 357.905455 277.737765 
L 366.021818 301.181632 
L 374.138182 262.685237 
L 382.254545 299.91636 
L 390.370909 263.226185 
" clip-path="url(#p9ce4343ec8)" style="fill: none; stroke: #add8e6; stroke-opacity: 0.3; stroke-width: 1.5; stroke-linecap: square"/>
   </g>
   <g id="line2d_35">
    <path d="M 73.832727 147.9168 
L 81.949091 53.862343 
L 90.065455 47.558781 
L 98.181818 45.740824 
L 106.298182 44.824145 
L 114.414545 44.257084 
L 122.530909 43.867711 
L 130.647273 43.582271 
L 138.763636 43.363275 
L 146.88 43.1895 
L 154.996364 43.047977 
L 163.112727 42.930309 
L 171.229091 225.344127 
L 179.345455 58.23117 
L 187.461818 232.847105 
L 195.578182 66.270979 
L 203.694545 225.411408 
L 211.810909 71.236047 
L 219.927273 215.818297 
L 228.043636 74.757439 
L 236.16 82.710392 
L 244.276364 225.35566 
L 252.392727 279.377223 
L 260.509091 291.525504 
L 268.625455 295.678442 
L 276.741818 298.027264 
L 284.858182 299.645145 
L 292.974545 300.836008 
L 301.090909 128.611363 
L 309.207273 259.315076 
L 317.323636 293.883426 
L 325.44 299.237908 
L 333.556364 300.529909 
L 341.672727 301.246748 
L 349.789091 258.618126 
L 357.905455 296.516495 
L 366.021818 256.864617 
L 374.138182 296.639951 
L 382.254545 258.281551 
L 390.370909 297.124094 
" clip-path="url(#p9ce4343ec8)" style="fill: none; stroke: #add8e6; stroke-opacity: 0.3; stroke-width: 1.5; stroke-linecap: square"/>
   </g>
   <g id="line2d_36">
    <path d="M 73.832727 214.4448 
L 81.949091 65.696574 
L 90.065455 271.260252 
L 98.181818 300.755253 
L 106.298182 304.246563 
L 114.414545 305.26604 
L 122.530909 305.791721 
L 130.647273 306.122034 
L 138.763636 306.349643 
L 146.88 306.515974 
L 154.996364 306.642769 
L 163.112727 141.447233 
L 171.229091 285.419165 
L 179.345455 303.98477 
L 187.461818 305.686162 
L 195.578182 305.950668 
L 203.694545 157.988021 
L 211.810909 284.279567 
L 219.927273 302.66883 
L 228.043636 304.76291 
L 236.16 290.205771 
L 244.276364 128.834602 
L 252.392727 70.54396 
L 260.509091 61.885933 
L 268.625455 58.426151 
L 276.741818 56.06742 
L 284.858182 233.168149 
L 292.974545 84.483394 
L 301.090909 58.753084 
L 309.207273 55.532862 
L 317.323636 220.471584 
L 325.44 83.195575 
L 333.556364 58.672043 
L 341.672727 55.555471 
L 349.789091 54.402622 
L 357.905455 98.271307 
L 366.021818 255.899313 
L 374.138182 297.736415 
L 382.254545 141.730158 
L 390.370909 66.041212 
" clip-path="url(#p9ce4343ec8)" style="fill: none; stroke: #ff0000; stroke-opacity: 0.1; stroke-width: 1.5; stroke-linecap: square"/>
   </g>
   <g id="line2d_37">
    <path d="M 73.832727 214.4448 
L 81.949091 303.902028 
L 90.065455 118.443891 
L 98.181818 291.150563 
L 106.298182 130.532519 
L 114.414545 282.087171 
L 122.530909 140.780036 
L 130.647273 274.410348 
L 138.763636 294.058479 
L 146.88 297.749121 
L 154.996364 299.333284 
L 163.112727 300.422275 
L 171.229091 301.26379 
L 179.345455 301.937027 
L 187.461818 302.486629 
L 195.578182 302.942602 
L 203.694545 303.326159 
L 211.810909 303.652711 
L 219.927273 303.933691 
L 228.043636 304.177734 
L 236.16 285.646611 
L 244.276364 135.492062 
L 252.392727 78.104499 
L 260.509091 260.697741 
L 268.625455 125.404155 
L 276.741818 79.446064 
L 284.858182 69.446716 
L 292.974545 65.261818 
L 301.090909 62.38508 
L 309.207273 238.239848 
L 317.323636 106.319415 
L 325.44 69.733637 
L 333.556364 63.157823 
L 341.672727 60.885377 
L 349.789091 59.328252 
L 357.905455 58.031155 
L 366.021818 110.191036 
L 374.138182 266.120572 
L 382.254545 116.449422 
L 390.370909 66.905447 
" clip-path="url(#p9ce4343ec8)" style="fill: none; stroke: #ff0000; stroke-opacity: 0.1; stroke-width: 1.5; stroke-linecap: square"/>
   </g>
   <g id="line2d_38">
    <path d="M 73.832727 214.4448 
L 81.949091 303.902028 
L 90.065455 306.423219 
L 98.181818 134.789406 
L 106.298182 295.553829 
L 114.414545 304.978316 
L 122.530909 305.855532 
L 130.647273 306.186939 
L 138.763636 306.406128 
L 146.88 306.567137 
L 154.996364 167.402757 
L 163.112727 295.830362 
L 171.229091 305.061665 
L 179.345455 305.818361 
L 187.461818 306.01074 
L 195.578182 177.460973 
L 203.694545 294.043206 
L 211.810909 166.909031 
L 219.927273 96.378646 
L 228.043636 270.748569 
L 236.16 263.096915 
L 244.276364 298.069844 
L 252.392727 193.040528 
L 260.509091 123.897413 
L 268.625455 269.576869 
L 276.741818 173.639097 
L 284.858182 125.367457 
L 292.974545 263.262266 
L 301.090909 176.003283 
L 309.207273 134.234004 
L 317.323636 259.982638 
L 325.44 179.790218 
L 333.556364 267.40035 
L 341.672727 189.673326 
L 349.789091 153.873522 
L 357.905455 139.465842 
L 366.021818 132.713468 
L 374.138182 128.472664 
L 382.254545 252.339418 
L 390.370909 278.67818 
" clip-path="url(#p9ce4343ec8)" style="fill: none; stroke: #ff0000; stroke-opacity: 0.1; stroke-width: 1.5; stroke-linecap: square"/>
   </g>
   <g id="line2d_39">
    <path d="M 73.832727 214.4448 
L 81.949091 303.902028 
L 90.065455 306.423219 
L 98.181818 306.871304 
L 106.298182 307.069238 
L 114.414545 307.182015 
L 122.530909 307.254796 
L 130.647273 307.305571 
L 138.763636 307.342958 
L 146.88 307.371603 
L 154.996364 307.394233 
L 163.112727 307.412549 
L 171.229091 307.427668 
L 179.345455 307.440356 
L 187.461818 307.451151 
L 195.578182 158.396173 
L 203.694545 301.118556 
L 211.810909 306.937501 
L 219.927273 307.209779 
L 228.043636 307.2432 
L 236.16 300.87506 
L 244.276364 307.078419 
L 252.392727 163.818674 
L 260.509091 71.038407 
L 268.625455 58.597464 
L 276.741818 54.399057 
L 284.858182 51.983839 
L 292.974545 50.374224 
L 301.090909 254.283893 
L 309.207273 76.181319 
L 317.323636 257.735267 
L 325.44 87.907795 
L 333.556364 254.398606 
L 341.672727 95.833727 
L 349.789091 250.5136 
L 357.905455 296.844608 
L 366.021818 160.531806 
L 374.138182 272.373122 
L 382.254545 133.050943 
L 390.370909 71.32948 
" clip-path="url(#p9ce4343ec8)" style="fill: none; stroke: #ff0000; stroke-opacity: 0.1; stroke-width: 1.5; stroke-linecap: square"/>
   </g>
   <g id="line2d_40">
    <path d="M 73.832727 214.4448 
L 81.949091 303.902028 
L 90.065455 306.423219 
L 98.181818 306.871304 
L 106.298182 307.069238 
L 114.414545 307.182015 
L 122.530909 307.254796 
L 130.647273 307.305571 
L 138.763636 157.199614 
L 146.88 300.457703 
L 154.996364 306.549893 
L 163.112727 306.889018 
L 171.229091 306.968375 
L 179.345455 307.024131 
L 187.461818 307.07039 
L 195.578182 307.109688 
L 203.694545 307.14348 
L 211.810909 307.172834 
L 219.927273 307.198557 
L 228.043636 307.221277 
L 236.16 300.534224 
L 244.276364 124.032902 
L 252.392727 292.362133 
L 260.509091 121.2577 
L 268.625455 283.928182 
L 276.741818 125.50083 
L 284.858182 70.748937 
L 292.974545 253.902635 
L 301.090909 108.384236 
L 309.207273 69.591649 
L 317.323636 239.144004 
L 325.44 292.531905 
L 333.556364 162.36494 
L 341.672727 271.101293 
L 349.789091 145.017646 
L 357.905455 86.322552 
L 366.021818 234.866996 
L 374.138182 285.338364 
L 382.254545 171.443794 
L 390.370909 264.758964 
" clip-path="url(#p9ce4343ec8)" style="fill: none; stroke: #ff0000; stroke-opacity: 0.1; stroke-width: 1.5; stroke-linecap: square"/>
   </g>
   <g id="line2d_41">
    <path d="M 73.832727 214.4448 
L 81.949091 303.902028 
L 90.065455 306.423219 
L 98.181818 134.789406 
L 106.298182 295.553829 
L 114.414545 139.872367 
L 122.530909 287.852879 
L 130.647273 301.923895 
L 138.763636 303.674781 
L 146.88 304.330215 
L 154.996364 304.774435 
L 163.112727 172.827606 
L 171.229091 290.050351 
L 179.345455 302.163027 
L 187.461818 303.582838 
L 195.578182 304.014203 
L 203.694545 304.313252 
L 211.810909 304.562934 
L 219.927273 304.777726 
L 228.043636 304.964559 
L 236.16 288.753576 
L 244.276364 303.945519 
L 252.392727 174.47481 
L 260.509091 92.772721 
L 268.625455 72.892644 
L 276.741818 65.756218 
L 284.858182 61.565126 
L 292.974545 58.62293 
L 301.090909 56.424166 
L 309.207273 54.721085 
L 317.323636 53.366079 
L 325.44 246.402156 
L 333.556364 96.188225 
L 341.672727 260.459902 
L 349.789091 115.1784 
L 357.905455 65.449127 
L 366.021818 233.922873 
L 374.138182 291.396853 
L 382.254545 157.457075 
L 390.370909 80.534607 
" clip-path="url(#p9ce4343ec8)" style="fill: none; stroke: #ff0000; stroke-opacity: 0.1; stroke-width: 1.5; stroke-linecap: square"/>
   </g>
   <g id="line2d_42">
    <path d="M 73.832727 214.4448 
L 81.949091 303.902028 
L 90.065455 306.423219 
L 98.181818 306.871304 
L 106.298182 143.887256 
L 114.414545 297.66243 
L 122.530909 305.613835 
L 130.647273 306.244079 
L 138.763636 306.466423 
L 146.88 306.61911 
L 154.996364 306.73567 
L 163.112727 306.827744 
L 171.229091 306.902219 
L 179.345455 306.963627 
L 187.461818 307.015078 
L 195.578182 307.058777 
L 203.694545 166.962066 
L 211.810909 297.601783 
L 219.927273 151.855809 
L 228.043636 291.537597 
L 236.16 282.978784 
L 244.276364 137.16322 
L 252.392727 78.242838 
L 260.509091 264.880435 
L 268.625455 299.377656 
L 276.741818 171.459425 
L 284.858182 91.605281 
L 292.974545 73.015147 
L 301.090909 67.012229 
L 309.207273 63.461568 
L 317.323636 60.817948 
L 325.44 58.729536 
L 333.556364 57.038109 
L 341.672727 55.643741 
L 349.789091 54.47711 
L 357.905455 238.384841 
L 366.021818 94.981763 
L 374.138182 60.363912 
L 382.254545 107.87023 
L 390.370909 61.367677 
" clip-path="url(#p9ce4343ec8)" style="fill: none; stroke: #ff0000; stroke-opacity: 0.1; stroke-width: 1.5; stroke-linecap: square"/>
   </g>
   <g id="line2d_43">
    <path d="M 73.832727 214.4448 
L 81.949091 65.696574 
L 90.065455 271.260252 
L 98.181818 300.755253 
L 106.298182 304.246563 
L 114.414545 305.26604 
L 122.530909 305.791721 
L 130.647273 135.341619 
L 138.763636 64.914257 
L 146.88 250.047928 
L 154.996364 296.945704 
L 163.112727 302.924839 
L 171.229091 303.94946 
L 179.345455 304.390243 
L 187.461818 304.709351 
L 195.578182 153.242372 
L 203.694545 276.517718 
L 211.810909 299.688247 
L 219.927273 302.913716 
L 228.043636 303.549923 
L 236.16 284.446421 
L 244.276364 123.453217 
L 252.392727 69.299047 
L 260.509091 61.408349 
L 268.625455 232.179782 
L 276.741818 95.114892 
L 284.858182 241.302919 
L 292.974545 288.674602 
L 301.090909 148.374149 
L 309.207273 81.22046 
L 317.323636 68.238761 
L 325.44 64.616714 
L 333.556364 62.460388 
L 341.672727 60.73253 
L 349.789091 59.264846 
L 357.905455 215.479226 
L 366.021818 93.005876 
L 374.138182 64.853448 
L 382.254545 60.224325 
L 390.370909 109.101937 
" clip-path="url(#p9ce4343ec8)" style="fill: none; stroke: #ff0000; stroke-opacity: 0.1; stroke-width: 1.5; stroke-linecap: square"/>
   </g>
   <g id="line2d_44">
    <path d="M 73.832727 214.4448 
L 81.949091 303.902028 
L 90.065455 306.423219 
L 98.181818 306.871304 
L 106.298182 307.069238 
L 114.414545 307.182015 
L 122.530909 307.254796 
L 130.647273 155.641734 
L 138.763636 300.118648 
L 146.88 306.420834 
L 154.996364 306.792735 
L 163.112727 306.889751 
L 171.229091 306.958391 
L 179.345455 307.01453 
L 187.461818 307.061582 
L 195.578182 168.033191 
L 203.694545 298.227919 
L 211.810909 306.055728 
L 219.927273 306.572813 
L 228.043636 306.661647 
L 236.16 296.443561 
L 244.276364 306.259912 
L 252.392727 171.894529 
L 260.509091 80.513194 
L 268.625455 63.713452 
L 276.741818 58.249656 
L 284.858182 55.137708 
L 292.974545 255.28966 
L 301.090909 95.112927 
L 309.207273 58.804128 
L 317.323636 54.4421 
L 325.44 52.91054 
L 333.556364 51.805394 
L 341.672727 50.906048 
L 349.789091 93.112583 
L 357.905455 53.07599 
L 366.021818 92.36669 
L 374.138182 52.573893 
L 382.254545 90.236449 
L 390.370909 52.038065 
" clip-path="url(#p9ce4343ec8)" style="fill: none; stroke: #ff0000; stroke-opacity: 0.1; stroke-width: 1.5; stroke-linecap: square"/>
   </g>
   <g id="line2d_45">
    <path d="M 73.832727 214.4448 
L 81.949091 303.902028 
L 90.065455 306.423219 
L 98.181818 306.871304 
L 106.298182 307.069238 
L 114.414545 307.182015 
L 122.530909 307.254796 
L 130.647273 307.305571 
L 138.763636 157.199614 
L 146.88 300.457703 
L 154.996364 149.145708 
L 163.112727 294.759675 
L 171.229091 155.434999 
L 179.345455 290.143202 
L 187.461818 163.503233 
L 195.578182 286.27428 
L 203.694545 300.897539 
L 211.810909 302.757893 
L 219.927273 303.25006 
L 228.043636 303.564088 
L 236.16 284.555279 
L 244.276364 154.072528 
L 252.392727 93.385181 
L 260.509091 76.897678 
L 268.625455 69.887948 
L 276.741818 65.431682 
L 284.858182 62.173918 
L 292.974545 59.672141 
L 301.090909 57.695665 
L 309.207273 56.099764 
L 317.323636 54.787519 
L 325.44 53.69166 
L 333.556364 52.764183 
L 341.672727 99.678587 
L 349.789091 279.931704 
L 357.905455 116.533003 
L 366.021818 61.039747 
L 374.138182 105.409321 
L 382.254545 58.910093 
L 390.370909 102.609959 
" clip-path="url(#p9ce4343ec8)" style="fill: none; stroke: #ff0000; stroke-opacity: 0.1; stroke-width: 1.5; stroke-linecap: square"/>
   </g>
   <g id="line2d_46">
    <path d="M 73.832727 214.4448 
L 81.949091 303.902028 
L 90.065455 118.443891 
L 98.181818 291.150563 
L 106.298182 303.750232 
L 114.414545 151.146756 
L 122.530909 288.056077 
L 130.647273 301.558308 
L 138.763636 303.358188 
L 146.88 304.064028 
L 154.996364 172.363314 
L 163.112727 288.301607 
L 171.229091 301.11026 
L 179.345455 302.762456 
L 187.461818 303.313085 
L 195.578182 303.698901 
L 203.694545 304.017898 
L 211.810909 304.289534 
L 219.927273 180.707627 
L 228.043636 100.960093 
L 236.16 183.385373 
L 244.276364 97.262464 
L 252.392727 75.526179 
L 260.509091 260.630745 
L 268.625455 296.383644 
L 276.741818 168.773913 
L 284.858182 98.1046 
L 292.974545 79.157306 
L 301.090909 249.778539 
L 309.207273 136.327639 
L 317.323636 262.315776 
L 325.44 290.297132 
L 333.556364 295.542527 
L 341.672727 296.818945 
L 349.789091 179.803243 
L 357.905455 271.308944 
L 366.021818 164.51205 
L 374.138182 112.509959 
L 382.254545 95.410276 
L 390.370909 88.836411 
" clip-path="url(#p9ce4343ec8)" style="fill: none; stroke: #ff0000; stroke-opacity: 0.1; stroke-width: 1.5; stroke-linecap: square"/>
   </g>
   <g id="line2d_47">
    <path d="M 73.832727 214.4448 
L 81.949091 303.902028 
L 90.065455 306.423219 
L 98.181818 306.871304 
L 106.298182 307.069238 
L 114.414545 307.182015 
L 122.530909 307.254796 
L 130.647273 307.305571 
L 138.763636 307.342958 
L 146.88 307.371603 
L 154.996364 158.736595 
L 163.112727 300.855579 
L 171.229091 306.724494 
L 179.345455 168.311368 
L 187.461818 77.569802 
L 195.578182 60.824598 
L 203.694545 55.552134 
L 211.810909 259.760545 
L 219.927273 302.111607 
L 228.043636 159.719963 
L 236.16 187.210962 
L 244.276364 293.943395 
L 252.392727 152.015527 
L 260.509091 77.474148 
L 268.625455 63.066045 
L 276.741818 59.307532 
L 284.858182 57.241451 
L 292.974545 247.654219 
L 301.090909 110.185016 
L 309.207273 263.78284 
L 317.323636 131.832179 
L 325.44 76.982511 
L 333.556364 64.806778 
L 341.672727 118.025807 
L 349.789091 71.413921 
L 357.905455 120.352114 
L 366.021818 71.190643 
L 374.138182 118.940276 
L 382.254545 266.268779 
L 390.370909 129.320294 
" clip-path="url(#p9ce4343ec8)" style="fill: none; stroke: #ff0000; stroke-opacity: 0.1; stroke-width: 1.5; stroke-linecap: square"/>
   </g>
   <g id="line2d_48">
    <path d="M 73.832727 214.4448 
L 81.949091 65.696574 
L 90.065455 271.260252 
L 98.181818 300.755253 
L 106.298182 304.246563 
L 114.414545 125.503967 
L 122.530909 276.114028 
L 130.647273 299.829765 
L 138.763636 302.918936 
L 146.88 149.721161 
L 154.996364 275.95063 
L 163.112727 297.711645 
L 171.229091 301.022311 
L 179.345455 301.950814 
L 187.461818 302.509165 
L 195.578182 164.152021 
L 203.694545 276.870574 
L 211.810909 297.131068 
L 219.927273 300.334732 
L 228.043636 301.131492 
L 236.16 279.323108 
L 244.276364 137.409199 
L 252.392727 83.308883 
L 260.509091 71.417603 
L 268.625455 66.445241 
L 276.741818 236.816764 
L 284.858182 108.464383 
L 292.974545 73.229936 
L 301.090909 66.17779 
L 309.207273 63.321274 
L 317.323636 61.283627 
L 325.44 224.682267 
L 333.556364 99.476359 
L 341.672727 68.029663 
L 349.789091 62.409375 
L 357.905455 218.116237 
L 366.021818 100.138651 
L 374.138182 69.344493 
L 382.254545 119.732998 
L 390.370909 72.112479 
" clip-path="url(#p9ce4343ec8)" style="fill: none; stroke: #ff0000; stroke-opacity: 0.1; stroke-width: 1.5; stroke-linecap: square"/>
   </g>
   <g id="line2d_49">
    <path d="M 73.832727 214.4448 
L 81.949091 65.696574 
L 90.065455 271.260252 
L 98.181818 300.755253 
L 106.298182 304.246563 
L 114.414545 305.26604 
L 122.530909 305.791721 
L 130.647273 135.341619 
L 138.763636 281.616445 
L 146.88 122.839908 
L 154.996364 70.360855 
L 163.112727 243.638733 
L 171.229091 291.783506 
L 179.345455 299.692341 
L 187.461818 301.31405 
L 195.578182 302.017635 
L 203.694545 302.522706 
L 211.810909 302.937305 
L 219.927273 303.288675 
L 228.043636 303.590617 
L 236.16 283.881333 
L 244.276364 119.00028 
L 252.392727 67.435376 
L 260.509091 60.347766 
L 268.625455 57.649787 
L 276.741818 55.740221 
L 284.858182 54.237454 
L 292.974545 226.629295 
L 301.090909 81.437828 
L 309.207273 236.200904 
L 317.323636 93.050897 
L 325.44 61.177225 
L 333.556364 56.933976 
L 341.672727 55.584566 
L 349.789091 54.613048 
L 357.905455 98.753626 
L 366.021818 58.048782 
L 374.138182 99.212615 
L 382.254545 57.677407 
L 390.370909 97.61412 
" clip-path="url(#p9ce4343ec8)" style="fill: none; stroke: #ff0000; stroke-opacity: 0.1; stroke-width: 1.5; stroke-linecap: square"/>
   </g>
   <g id="line2d_50">
    <path d="M 73.832727 214.4448 
L 81.949091 303.902028 
L 90.065455 306.423219 
L 98.181818 134.789406 
L 106.298182 295.553829 
L 114.414545 304.978316 
L 122.530909 305.855532 
L 130.647273 162.281132 
L 138.763636 293.573304 
L 146.88 303.88379 
L 154.996364 304.935502 
L 163.112727 175.546788 
L 171.229091 97.150424 
L 179.345455 272.961574 
L 187.461818 299.111106 
L 195.578182 302.311422 
L 203.694545 303.015151 
L 211.810909 303.412268 
L 219.927273 303.732321 
L 228.043636 304.006696 
L 236.16 284.557205 
L 244.276364 161.972375 
L 252.392727 96.805293 
L 260.509091 78.070478 
L 268.625455 257.137523 
L 276.741818 140.824901 
L 284.858182 91.723818 
L 292.974545 77.763903 
L 301.090909 72.210891 
L 309.207273 68.710184 
L 317.323636 65.994243 
L 325.44 63.756176 
L 333.556364 61.873451 
L 341.672727 60.270734 
L 349.789091 115.743254 
L 357.905455 67.769802 
L 366.021818 118.319312 
L 374.138182 67.555654 
L 382.254545 116.706875 
L 390.370909 66.630733 
" clip-path="url(#p9ce4343ec8)" style="fill: none; stroke: #ff0000; stroke-opacity: 0.1; stroke-width: 1.5; stroke-linecap: square"/>
   </g>
   <g id="line2d_51">
    <path d="M 73.832727 214.4448 
L 81.949091 65.696574 
L 90.065455 51.875872 
L 98.181818 252.917183 
L 106.298182 298.355719 
L 114.414545 303.681423 
L 122.530909 304.981379 
L 130.647273 305.601374 
L 138.763636 127.371374 
L 146.88 59.512646 
L 154.996364 52.573569 
L 163.112727 230.948931 
L 171.229091 81.910837 
L 179.345455 238.657318 
L 187.461818 290.783096 
L 195.578182 299.622153 
L 203.694545 144.236541 
L 211.810909 260.230039 
L 219.927273 121.14251 
L 228.043636 73.103111 
L 236.16 123.439092 
L 244.276364 75.100616 
L 252.392727 65.020105 
L 260.509091 200.418625 
L 268.625455 98.844633 
L 276.741818 71.846029 
L 284.858182 65.739188 
L 292.974545 63.453975 
L 301.090909 108.828605 
L 309.207273 69.914231 
L 317.323636 110.937847 
L 325.44 233.572832 
L 333.556364 107.495447 
L 341.672727 224.228555 
L 349.789091 109.819661 
L 357.905455 76.396345 
L 366.021818 117.109194 
L 374.138182 136.759125 
L 382.254545 81.882789 
L 390.370909 119.683675 
" clip-path="url(#p9ce4343ec8)" style="fill: none; stroke: #ff0000; stroke-opacity: 0.1; stroke-width: 1.5; stroke-linecap: square"/>
   </g>
   <g id="line2d_52">
    <path d="M 73.832727 214.4448 
L 81.949091 303.902028 
L 90.065455 306.423219 
L 98.181818 306.871304 
L 106.298182 307.069238 
L 114.414545 149.56396 
L 122.530909 298.867394 
L 130.647273 305.994513 
L 138.763636 306.493485 
L 146.88 166.642591 
L 154.996364 296.317301 
L 163.112727 305.008372 
L 171.229091 176.221781 
L 179.345455 293.554511 
L 187.461818 303.553654 
L 195.578182 184.660807 
L 203.694545 109.166979 
L 211.810909 274.744107 
L 219.927273 162.733217 
L 228.043636 109.801209 
L 236.16 185.104559 
L 244.276364 285.990509 
L 252.392727 172.590595 
L 260.509091 117.873929 
L 268.625455 99.256776 
L 276.741818 261.392433 
L 284.858182 160.049337 
L 292.974545 117.984437 
L 301.090909 103.406876 
L 309.207273 96.965127 
L 317.323636 92.831612 
L 325.44 89.512092 
L 333.556364 252.692298 
L 341.672727 149.865525 
L 349.789091 110.621224 
L 357.905455 165.842565 
L 366.021818 113.929119 
L 374.138182 166.253357 
L 382.254545 112.85225 
L 390.370909 164.885124 
" clip-path="url(#p9ce4343ec8)" style="fill: none; stroke: #ff0000; stroke-opacity: 0.1; stroke-width: 1.5; stroke-linecap: square"/>
   </g>
   <g id="line2d_53">
    <path d="M 73.832727 214.4448 
L 81.949091 303.902028 
L 90.065455 306.423219 
L 98.181818 306.871304 
L 106.298182 307.069238 
L 114.414545 307.182015 
L 122.530909 307.254796 
L 130.647273 307.305571 
L 138.763636 307.342958 
L 146.88 307.371603 
L 154.996364 307.394233 
L 163.112727 307.412549 
L 171.229091 307.427668 
L 179.345455 158.940112 
L 187.461818 301.087199 
L 195.578182 306.875491 
L 203.694545 307.152975 
L 211.810909 307.19281 
L 219.927273 307.217829 
L 228.043636 167.742364 
L 236.16 224.848366 
L 244.276364 84.963472 
L 252.392727 62.579649 
L 260.509091 57.131088 
L 268.625455 258.130865 
L 276.741818 90.663951 
L 284.858182 260.827964 
L 292.974545 104.266953 
L 301.090909 63.555569 
L 309.207273 58.051852 
L 317.323636 56.023099 
L 325.44 54.560113 
L 333.556364 227.670865 
L 341.672727 293.247102 
L 349.789091 303.253219 
L 357.905455 162.185374 
L 366.021818 275.398218 
L 374.138182 128.556226 
L 382.254545 68.698588 
L 390.370909 224.215467 
" clip-path="url(#p9ce4343ec8)" style="fill: none; stroke: #ff0000; stroke-opacity: 0.1; stroke-width: 1.5; stroke-linecap: square"/>
   </g>
   <g id="line2d_54">
    <path d="M 73.832727 214.4448 
L 81.949091 303.902028 
L 90.065455 118.443891 
L 98.181818 291.150563 
L 106.298182 303.750232 
L 114.414545 305.185474 
L 122.530909 305.738092 
L 130.647273 306.079872 
L 138.763636 164.964185 
L 146.88 293.408378 
L 154.996364 304.12452 
L 163.112727 305.156317 
L 171.229091 305.463144 
L 179.345455 305.675854 
L 187.461818 305.848989 
L 195.578182 305.993981 
L 203.694545 306.117134 
L 211.810909 306.222935 
L 219.927273 306.314733 
L 228.043636 306.395079 
L 236.16 295.045845 
L 244.276364 133.760246 
L 252.392727 69.412974 
L 260.509091 59.633322 
L 268.625455 55.864297 
L 276.741818 252.12697 
L 284.858182 91.422581 
L 292.974545 258.077652 
L 301.090909 106.231329 
L 309.207273 63.823959 
L 317.323636 57.935728 
L 325.44 55.967146 
L 333.556364 54.584076 
L 341.672727 53.454802 
L 349.789091 225.564505 
L 357.905455 85.412373 
L 366.021818 57.441327 
L 374.138182 102.004495 
L 382.254545 58.675815 
L 390.370909 101.092829 
" clip-path="url(#p9ce4343ec8)" style="fill: none; stroke: #ff0000; stroke-opacity: 0.1; stroke-width: 1.5; stroke-linecap: square"/>
   </g>
   <g id="line2d_55">
    <path d="M 73.832727 214.4448 
L 81.949091 303.902028 
L 90.065455 306.423219 
L 98.181818 306.871304 
L 106.298182 307.069238 
L 114.414545 307.182015 
L 122.530909 307.254796 
L 130.647273 307.305571 
L 138.763636 307.342958 
L 146.88 307.371603 
L 154.996364 307.394233 
L 163.112727 307.412549 
L 171.229091 159.050755 
L 179.345455 301.041428 
L 187.461818 144.492466 
L 195.578182 295.021919 
L 203.694545 148.620442 
L 211.810909 290.170808 
L 219.927273 156.258159 
L 228.043636 286.351708 
L 236.16 276.131689 
L 244.276364 146.407145 
L 252.392727 89.811674 
L 260.509091 74.889027 
L 268.625455 68.519398 
L 276.741818 64.421558 
L 284.858182 61.400399 
L 292.974545 59.065486 
L 301.090909 243.669283 
L 309.207273 105.080579 
L 317.323636 66.679603 
L 325.44 60.146282 
L 333.556364 58.123362 
L 341.672727 56.802647 
L 349.789091 106.729723 
L 357.905455 61.825025 
L 366.021818 107.970793 
L 374.138182 61.43079 
L 382.254545 106.201863 
L 390.370909 60.674539 
" clip-path="url(#p9ce4343ec8)" style="fill: none; stroke: #ff0000; stroke-opacity: 0.1; stroke-width: 1.5; stroke-linecap: square"/>
   </g>
   <g id="line2d_56">
    <path d="M 73.832727 147.9168 
L 81.949091 115.690656 
L 90.065455 101.777928 
L 98.181818 85.301506 
L 106.298182 70.299824 
L 114.414545 87.243458 
L 122.530909 61.200108 
L 130.647273 86.72218 
L 138.763636 100.096899 
L 146.88 93.255488 
L 154.996364 109.464287 
L 163.112727 85.026963 
L 171.229091 98.947604 
L 179.345455 74.32286 
L 187.461818 79.208821 
L 195.578182 112.133889 
L 203.694545 112.484143 
L 211.810909 67.862761 
L 219.927273 101.78416 
L 228.043636 102.453161 
L 236.16 99.920838 
L 244.276364 190.791499 
L 252.392727 252.573889 
L 260.509091 252.728808 
L 268.625455 221.196062 
L 276.741818 248.396511 
L 284.858182 258.514937 
L 292.974545 226.247727 
L 301.090909 250.975083 
L 309.207273 260.451517 
L 317.323636 244.341066 
L 325.44 241.671259 
L 333.556364 241.652237 
L 341.672727 231.73905 
L 349.789091 232.499119 
L 357.905455 228.647422 
L 366.021818 230.805482 
L 374.138182 216.821601 
L 382.254545 244.812899 
L 390.370909 247.649077 
" clip-path="url(#p9ce4343ec8)" style="fill: none; stroke: #1f77b4; stroke-width: 1.5; stroke-linecap: square"/>
   </g>
   <g id="line2d_57">
    <path d="M 73.832727 214.4448 
L 81.949091 244.350664 
L 90.065455 258.466359 
L 98.181818 274.779992 
L 106.298182 287.02388 
L 114.414545 271.53662 
L 122.530909 294.393676 
L 130.647273 272.319533 
L 138.763636 260.302767 
L 146.88 265.436232 
L 154.996364 250.093397 
L 163.112727 274.911206 
L 171.229091 259.865063 
L 179.345455 284.021353 
L 187.461818 277.207988 
L 195.578182 249.783093 
L 203.694545 248.390522 
L 211.810909 289.285482 
L 219.927273 256.530052 
L 228.043636 255.861692 
L 236.16 260.023187 
L 244.276364 177.710596 
L 252.392727 115.983623 
L 260.509091 113.656815 
L 268.625455 142.764126 
L 276.741818 117.348931 
L 284.858182 105.585561 
L 292.974545 137.992099 
L 301.090909 114.495522 
L 309.207273 102.513264 
L 317.323636 118.709496 
L 325.44 120.008176 
L 333.556364 120.27246 
L 341.672727 128.839917 
L 349.789091 130.253573 
L 357.905455 134.791003 
L 366.021818 132.678883 
L 374.138182 144.360278 
L 382.254545 118.690977 
L 390.370909 113.92156 
" clip-path="url(#p9ce4343ec8)" style="fill: none; stroke: #ff0000; stroke-width: 1.5; stroke-linecap: square"/>
   </g>
   <g id="patch_5">
    <path d="M 57.6 307.584 
L 57.6 41.472 
" style="fill: none; stroke: #000000; stroke-width: 0.8; stroke-linejoin: miter; stroke-linecap: square"/>
   </g>
   <g id="patch_6">
    <path d="M 414.72 307.584 
L 414.72 41.472 
" style="fill: none; stroke: #000000; stroke-width: 0.8; stroke-linejoin: miter; stroke-linecap: square"/>
   </g>
   <g id="patch_7">
    <path d="M 57.6 307.584 
L 414.72 307.584 
" style="fill: none; stroke: #000000; stroke-width: 0.8; stroke-linejoin: miter; stroke-linecap: square"/>
   </g>
   <g id="patch_8">
    <path d="M 57.6 41.472 
L 414.72 41.472 
" style="fill: none; stroke: #000000; stroke-width: 0.8; stroke-linejoin: miter; stroke-linecap: square"/>
   </g>
   <g id="text_18">
    <!-- Player1_healthy -->
    <g transform="translate(188.127187 35.472) scale(0.12 -0.12)">
     <defs>
      <path id="DejaVuSans-50" d="M 1259 4147 
L 1259 2394 
L 2053 2394 
Q 2494 2394 2734 2622 
Q 2975 2850 2975 3272 
Q 2975 3691 2734 3919 
Q 2494 4147 2053 4147 
L 1259 4147 
z
M 628 4666 
L 2053 4666 
Q 2838 4666 3239 4311 
Q 3641 3956 3641 3272 
Q 3641 2581 3239 2228 
Q 2838 1875 2053 1875 
L 1259 1875 
L 1259 0 
L 628 0 
L 628 4666 
z
" transform="scale(0.015625)"/>
      <path id="DejaVuSans-6c" d="M 603 4863 
L 1178 4863 
L 1178 0 
L 603 0 
L 603 4863 
z
" transform="scale(0.015625)"/>
      <path id="DejaVuSans-61" d="M 2194 1759 
Q 1497 1759 1228 1600 
Q 959 1441 959 1056 
Q 959 750 1161 570 
Q 1363 391 1709 391 
Q 2188 391 2477 730 
Q 2766 1069 2766 1631 
L 2766 1759 
L 2194 1759 
z
M 3341 1997 
L 3341 0 
L 2766 0 
L 2766 531 
Q 2569 213 2275 61 
Q 1981 -91 1556 -91 
Q 1019 -91 701 211 
Q 384 513 384 1019 
Q 384 1609 779 1909 
Q 1175 2209 1959 2209 
L 2766 2209 
L 2766 2266 
Q 2766 2663 2505 2880 
Q 2244 3097 1772 3097 
Q 1472 3097 1187 3025 
Q 903 2953 641 2809 
L 641 3341 
Q 956 3463 1253 3523 
Q 1550 3584 1831 3584 
Q 2591 3584 2966 3190 
Q 3341 2797 3341 1997 
z
" transform="scale(0.015625)"/>
      <path id="DejaVuSans-79" d="M 2059 -325 
Q 1816 -950 1584 -1140 
Q 1353 -1331 966 -1331 
L 506 -1331 
L 506 -850 
L 844 -850 
Q 1081 -850 1212 -737 
Q 1344 -625 1503 -206 
L 1606 56 
L 191 3500 
L 800 3500 
L 1894 763 
L 2988 3500 
L 3597 3500 
L 2059 -325 
z
" transform="scale(0.015625)"/>
      <path id="DejaVuSans-72" d="M 2631 2963 
Q 2534 3019 2420 3045 
Q 2306 3072 2169 3072 
Q 1681 3072 1420 2755 
Q 1159 2438 1159 1844 
L 1159 0 
L 581 0 
L 581 3500 
L 1159 3500 
L 1159 2956 
Q 1341 3275 1631 3429 
Q 1922 3584 2338 3584 
Q 2397 3584 2469 3576 
Q 2541 3569 2628 3553 
L 2631 2963 
z
" transform="scale(0.015625)"/>
      <path id="DejaVuSans-5f" d="M 3263 -1063 
L 3263 -1509 
L -63 -1509 
L -63 -1063 
L 3263 -1063 
z
" transform="scale(0.015625)"/>
      <path id="DejaVuSans-68" d="M 3513 2113 
L 3513 0 
L 2938 0 
L 2938 2094 
Q 2938 2591 2744 2837 
Q 2550 3084 2163 3084 
Q 1697 3084 1428 2787 
Q 1159 2491 1159 1978 
L 1159 0 
L 581 0 
L 581 4863 
L 1159 4863 
L 1159 2956 
Q 1366 3272 1645 3428 
Q 1925 3584 2291 3584 
Q 2894 3584 3203 3211 
Q 3513 2838 3513 2113 
z
" transform="scale(0.015625)"/>
     </defs>
     <use xlink:href="#DejaVuSans-50"/>
     <use xlink:href="#DejaVuSans-6c" x="60.302734"/>
     <use xlink:href="#DejaVuSans-61" x="88.085938"/>
     <use xlink:href="#DejaVuSans-79" x="149.365234"/>
     <use xlink:href="#DejaVuSans-65" x="208.544922"/>
     <use xlink:href="#DejaVuSans-72" x="270.068359"/>
     <use xlink:href="#DejaVuSans-31" x="311.181641"/>
     <use xlink:href="#DejaVuSans-5f" x="374.804688"/>
     <use xlink:href="#DejaVuSans-68" x="424.804688"/>
     <use xlink:href="#DejaVuSans-65" x="488.183594"/>
     <use xlink:href="#DejaVuSans-61" x="549.707031"/>
     <use xlink:href="#DejaVuSans-6c" x="610.986328"/>
     <use xlink:href="#DejaVuSans-74" x="638.769531"/>
     <use xlink:href="#DejaVuSans-68" x="677.978516"/>
     <use xlink:href="#DejaVuSans-79" x="741.357422"/>
    </g>
   </g>
   <g id="legend_1">
    <g id="patch_9">
     <path d="M 64.6 190.706125 
L 120.684375 190.706125 
Q 122.684375 190.706125 122.684375 188.706125 
L 122.684375 160.349875 
Q 122.684375 158.349875 120.684375 158.349875 
L 64.6 158.349875 
Q 62.6 158.349875 62.6 160.349875 
L 62.6 188.706125 
Q 62.6 190.706125 64.6 190.706125 
z
" style="fill: #ffffff; opacity: 0.8; stroke: #cccccc; stroke-linejoin: miter"/>
    </g>
    <g id="line2d_58">
     <path d="M 66.6 166.448312 
L 76.6 166.448312 
L 86.6 166.448312 
" style="fill: none; stroke: #1f77b4; stroke-width: 1.5; stroke-linecap: square"/>
    </g>
    <g id="text_19">
     <!-- coop -->
     <g transform="translate(94.6 169.948312) scale(0.1 -0.1)">
      <use xlink:href="#DejaVuSans-63"/>
      <use xlink:href="#DejaVuSans-6f" x="54.980469"/>
      <use xlink:href="#DejaVuSans-6f" x="116.162109"/>
      <use xlink:href="#DejaVuSans-70" x="177.34375"/>
     </g>
    </g>
    <g id="line2d_59">
     <path d="M 66.6 181.126437 
L 76.6 181.126437 
L 86.6 181.126437 
" style="fill: none; stroke: #ff0000; stroke-width: 1.5; stroke-linecap: square"/>
    </g>
    <g id="text_20">
     <!-- host -->
     <g transform="translate(94.6 184.626437) scale(0.1 -0.1)">
      <defs>
       <path id="DejaVuSans-73" d="M 2834 3397 
L 2834 2853 
Q 2591 2978 2328 3040 
Q 2066 3103 1784 3103 
Q 1356 3103 1142 2972 
Q 928 2841 928 2578 
Q 928 2378 1081 2264 
Q 1234 2150 1697 2047 
L 1894 2003 
Q 2506 1872 2764 1633 
Q 3022 1394 3022 966 
Q 3022 478 2636 193 
Q 2250 -91 1575 -91 
Q 1294 -91 989 -36 
Q 684 19 347 128 
L 347 722 
Q 666 556 975 473 
Q 1284 391 1588 391 
Q 1994 391 2212 530 
Q 2431 669 2431 922 
Q 2431 1156 2273 1281 
Q 2116 1406 1581 1522 
L 1381 1569 
Q 847 1681 609 1914 
Q 372 2147 372 2553 
Q 372 3047 722 3315 
Q 1072 3584 1716 3584 
Q 2034 3584 2315 3537 
Q 2597 3491 2834 3397 
z
" transform="scale(0.015625)"/>
      </defs>
      <use xlink:href="#DejaVuSans-68"/>
      <use xlink:href="#DejaVuSans-6f" x="63.378906"/>
      <use xlink:href="#DejaVuSans-73" x="124.560547"/>
      <use xlink:href="#DejaVuSans-74" x="176.660156"/>
     </g>
    </g>
   </g>
  </g>
 </g>
 <defs>
  <clipPath id="p9ce4343ec8">
   <rect x="57.6" y="41.472" width="357.12" height="266.112"/>
  </clipPath>
 </defs>
</svg>
