<?xml version="1.0" encoding="utf-8" standalone="no"?>
<!DOCTYPE svg PUBLIC "-//W3C//DTD SVG 1.1//EN"
  "http://www.w3.org/Graphics/SVG/1.1/DTD/svg11.dtd">
<svg xmlns:xlink="http://www.w3.org/1999/xlink" width="460.8pt" height="345.6pt" viewBox="0 0 460.8 345.6" xmlns="http://www.w3.org/2000/svg" version="1.1">
 <metadata>
  <rdf:RDF xmlns:dc="http://purl.org/dc/elements/1.1/" xmlns:cc="http://creativecommons.org/ns#" xmlns:rdf="http://www.w3.org/1999/02/22-rdf-syntax-ns#">
   <cc:Work>
    <dc:type rdf:resource="http://purl.org/dc/dcmitype/StillImage"/>
    <dc:date>2024-06-19T11:04:00.839619</dc:date>
    <dc:format>image/svg+xml</dc:format>
    <dc:creator>
     <cc:Agent>
      <dc:title>Matplotlib v3.7.2, https://matplotlib.org/</dc:title>
     </cc:Agent>
    </dc:creator>
   </cc:Work>
  </rdf:RDF>
 </metadata>
 <defs>
  <style type="text/css">*{stroke-linejoin: round; stroke-linecap: butt}</style>
 </defs>
 <g id="figure_1">
  <g id="patch_1">
   <path d="M 0 345.6 
L 460.8 345.6 
L 460.8 0 
L 0 0 
z
" style="fill: #ffffff"/>
  </g>
  <g id="axes_1">
   <g id="patch_2">
    <path d="M 57.6 307.584 
L 414.72 307.584 
L 414.72 41.472 
L 57.6 41.472 
z
" style="fill: #ffffff"/>
   </g>
   <g id="patch_3">
    <path d="M 73.832727 307.584 
L 73.832727 41.472 
L 236.16 41.472 
L 236.16 307.584 
z
" clip-path="url(#p0e5fc53441)" style="fill: #ff7f50; opacity: 0.2"/>
   </g>
   <g id="patch_4">
    <path d="M 236.16 307.584 
L 236.16 41.472 
L 398.487273 41.472 
L 398.487273 307.584 
z
" clip-path="url(#p0e5fc53441)" style="fill: #add8e6; opacity: 0.2"/>
   </g>
   <g id="matplotlib.axis_1">
    <g id="xtick_1">
     <g id="line2d_1">
      <defs>
       <path id="mc432a949e2" d="M 0 0 
L 0 3.5 
" style="stroke: #000000; stroke-width: 0.8"/>
      </defs>
      <g>
       <use xlink:href="#mc432a949e2" x="73.832727" y="307.584" style="stroke: #000000; stroke-width: 0.8"/>
      </g>
     </g>
     <g id="text_1">
      <!-- 0 -->
      <g transform="translate(70.651477 322.182437) scale(0.1 -0.1)">
       <defs>
        <path id="DejaVuSans-30" d="M 2034 4250 
Q 1547 4250 1301 3770 
Q 1056 3291 1056 2328 
Q 1056 1369 1301 889 
Q 1547 409 2034 409 
Q 2525 409 2770 889 
Q 3016 1369 3016 2328 
Q 3016 3291 2770 3770 
Q 2525 4250 2034 4250 
z
M 2034 4750 
Q 2819 4750 3233 4129 
Q 3647 3509 3647 2328 
Q 3647 1150 3233 529 
Q 2819 -91 2034 -91 
Q 1250 -91 836 529 
Q 422 1150 422 2328 
Q 422 3509 836 4129 
Q 1250 4750 2034 4750 
z
" transform="scale(0.015625)"/>
       </defs>
       <use xlink:href="#DejaVuSans-30"/>
      </g>
     </g>
    </g>
    <g id="xtick_2">
     <g id="line2d_2">
      <g>
       <use xlink:href="#mc432a949e2" x="114.414545" y="307.584" style="stroke: #000000; stroke-width: 0.8"/>
      </g>
     </g>
     <g id="text_2">
      <!-- 5 -->
      <g transform="translate(111.233295 322.182437) scale(0.1 -0.1)">
       <defs>
        <path id="DejaVuSans-35" d="M 691 4666 
L 3169 4666 
L 3169 4134 
L 1269 4134 
L 1269 2991 
Q 1406 3038 1543 3061 
Q 1681 3084 1819 3084 
Q 2600 3084 3056 2656 
Q 3513 2228 3513 1497 
Q 3513 744 3044 326 
Q 2575 -91 1722 -91 
Q 1428 -91 1123 -41 
Q 819 9 494 109 
L 494 744 
Q 775 591 1075 516 
Q 1375 441 1709 441 
Q 2250 441 2565 725 
Q 2881 1009 2881 1497 
Q 2881 1984 2565 2268 
Q 2250 2553 1709 2553 
Q 1456 2553 1204 2497 
Q 953 2441 691 2322 
L 691 4666 
z
" transform="scale(0.015625)"/>
       </defs>
       <use xlink:href="#DejaVuSans-35"/>
      </g>
     </g>
    </g>
    <g id="xtick_3">
     <g id="line2d_3">
      <g>
       <use xlink:href="#mc432a949e2" x="154.996364" y="307.584" style="stroke: #000000; stroke-width: 0.8"/>
      </g>
     </g>
     <g id="text_3">
      <!-- 10 -->
      <g transform="translate(148.633864 322.182437) scale(0.1 -0.1)">
       <defs>
        <path id="DejaVuSans-31" d="M 794 531 
L 1825 531 
L 1825 4091 
L 703 3866 
L 703 4441 
L 1819 4666 
L 2450 4666 
L 2450 531 
L 3481 531 
L 3481 0 
L 794 0 
L 794 531 
z
" transform="scale(0.015625)"/>
       </defs>
       <use xlink:href="#DejaVuSans-31"/>
       <use xlink:href="#DejaVuSans-30" x="63.623047"/>
      </g>
     </g>
    </g>
    <g id="xtick_4">
     <g id="line2d_4">
      <g>
       <use xlink:href="#mc432a949e2" x="195.578182" y="307.584" style="stroke: #000000; stroke-width: 0.8"/>
      </g>
     </g>
     <g id="text_4">
      <!-- 15 -->
      <g transform="translate(189.215682 322.182437) scale(0.1 -0.1)">
       <use xlink:href="#DejaVuSans-31"/>
       <use xlink:href="#DejaVuSans-35" x="63.623047"/>
      </g>
     </g>
    </g>
    <g id="xtick_5">
     <g id="line2d_5">
      <g>
       <use xlink:href="#mc432a949e2" x="236.16" y="307.584" style="stroke: #000000; stroke-width: 0.8"/>
      </g>
     </g>
     <g id="text_5">
      <!-- 20 -->
      <g transform="translate(229.7975 322.182437) scale(0.1 -0.1)">
       <defs>
        <path id="DejaVuSans-32" d="M 1228 531 
L 3431 531 
L 3431 0 
L 469 0 
L 469 531 
Q 828 903 1448 1529 
Q 2069 2156 2228 2338 
Q 2531 2678 2651 2914 
Q 2772 3150 2772 3378 
Q 2772 3750 2511 3984 
Q 2250 4219 1831 4219 
Q 1534 4219 1204 4116 
Q 875 4013 500 3803 
L 500 4441 
Q 881 4594 1212 4672 
Q 1544 4750 1819 4750 
Q 2544 4750 2975 4387 
Q 3406 4025 3406 3419 
Q 3406 3131 3298 2873 
Q 3191 2616 2906 2266 
Q 2828 2175 2409 1742 
Q 1991 1309 1228 531 
z
" transform="scale(0.015625)"/>
       </defs>
       <use xlink:href="#DejaVuSans-32"/>
       <use xlink:href="#DejaVuSans-30" x="63.623047"/>
      </g>
     </g>
    </g>
    <g id="xtick_6">
     <g id="line2d_6">
      <g>
       <use xlink:href="#mc432a949e2" x="276.741818" y="307.584" style="stroke: #000000; stroke-width: 0.8"/>
      </g>
     </g>
     <g id="text_6">
      <!-- 25 -->
      <g transform="translate(270.379318 322.182437) scale(0.1 -0.1)">
       <use xlink:href="#DejaVuSans-32"/>
       <use xlink:href="#DejaVuSans-35" x="63.623047"/>
      </g>
     </g>
    </g>
    <g id="xtick_7">
     <g id="line2d_7">
      <g>
       <use xlink:href="#mc432a949e2" x="317.323636" y="307.584" style="stroke: #000000; stroke-width: 0.8"/>
      </g>
     </g>
     <g id="text_7">
      <!-- 30 -->
      <g transform="translate(310.961136 322.182437) scale(0.1 -0.1)">
       <defs>
        <path id="DejaVuSans-33" d="M 2597 2516 
Q 3050 2419 3304 2112 
Q 3559 1806 3559 1356 
Q 3559 666 3084 287 
Q 2609 -91 1734 -91 
Q 1441 -91 1130 -33 
Q 819 25 488 141 
L 488 750 
Q 750 597 1062 519 
Q 1375 441 1716 441 
Q 2309 441 2620 675 
Q 2931 909 2931 1356 
Q 2931 1769 2642 2001 
Q 2353 2234 1838 2234 
L 1294 2234 
L 1294 2753 
L 1863 2753 
Q 2328 2753 2575 2939 
Q 2822 3125 2822 3475 
Q 2822 3834 2567 4026 
Q 2313 4219 1838 4219 
Q 1578 4219 1281 4162 
Q 984 4106 628 3988 
L 628 4550 
Q 988 4650 1302 4700 
Q 1616 4750 1894 4750 
Q 2613 4750 3031 4423 
Q 3450 4097 3450 3541 
Q 3450 3153 3228 2886 
Q 3006 2619 2597 2516 
z
" transform="scale(0.015625)"/>
       </defs>
       <use xlink:href="#DejaVuSans-33"/>
       <use xlink:href="#DejaVuSans-30" x="63.623047"/>
      </g>
     </g>
    </g>
    <g id="xtick_8">
     <g id="line2d_8">
      <g>
       <use xlink:href="#mc432a949e2" x="357.905455" y="307.584" style="stroke: #000000; stroke-width: 0.8"/>
      </g>
     </g>
     <g id="text_8">
      <!-- 35 -->
      <g transform="translate(351.542955 322.182437) scale(0.1 -0.1)">
       <use xlink:href="#DejaVuSans-33"/>
       <use xlink:href="#DejaVuSans-35" x="63.623047"/>
      </g>
     </g>
    </g>
    <g id="xtick_9">
     <g id="line2d_9">
      <g>
       <use xlink:href="#mc432a949e2" x="398.487273" y="307.584" style="stroke: #000000; stroke-width: 0.8"/>
      </g>
     </g>
     <g id="text_9">
      <!-- 40 -->
      <g transform="translate(392.124773 322.182437) scale(0.1 -0.1)">
       <defs>
        <path id="DejaVuSans-34" d="M 2419 4116 
L 825 1625 
L 2419 1625 
L 2419 4116 
z
M 2253 4666 
L 3047 4666 
L 3047 1625 
L 3713 1625 
L 3713 1100 
L 3047 1100 
L 3047 0 
L 2419 0 
L 2419 1100 
L 313 1100 
L 313 1709 
L 2253 4666 
z
" transform="scale(0.015625)"/>
       </defs>
       <use xlink:href="#DejaVuSans-34"/>
       <use xlink:href="#DejaVuSans-30" x="63.623047"/>
      </g>
     </g>
    </g>
    <g id="text_10">
     <!-- t -->
     <g transform="translate(234.199844 335.860562) scale(0.1 -0.1)">
      <defs>
       <path id="DejaVuSans-74" d="M 1172 4494 
L 1172 3500 
L 2356 3500 
L 2356 3053 
L 1172 3053 
L 1172 1153 
Q 1172 725 1289 603 
Q 1406 481 1766 481 
L 2356 481 
L 2356 0 
L 1766 0 
Q 1100 0 847 248 
Q 594 497 594 1153 
L 594 3053 
L 172 3053 
L 172 3500 
L 594 3500 
L 594 4494 
L 1172 4494 
z
" transform="scale(0.015625)"/>
      </defs>
      <use xlink:href="#DejaVuSans-74"/>
     </g>
    </g>
   </g>
   <g id="matplotlib.axis_2">
    <g id="ytick_1">
     <g id="line2d_10">
      <defs>
       <path id="m4770d0f5e8" d="M 0 0 
L -3.5 0 
" style="stroke: #000000; stroke-width: 0.8"/>
      </defs>
      <g>
       <use xlink:href="#m4770d0f5e8" x="57.6" y="307.584" style="stroke: #000000; stroke-width: 0.8"/>
      </g>
     </g>
     <g id="text_11">
      <!-- 0.0 -->
      <g transform="translate(34.696875 311.383219) scale(0.1 -0.1)">
       <defs>
        <path id="DejaVuSans-2e" d="M 684 794 
L 1344 794 
L 1344 0 
L 684 0 
L 684 794 
z
" transform="scale(0.015625)"/>
       </defs>
       <use xlink:href="#DejaVuSans-30"/>
       <use xlink:href="#DejaVuSans-2e" x="63.623047"/>
       <use xlink:href="#DejaVuSans-30" x="95.410156"/>
      </g>
     </g>
    </g>
    <g id="ytick_2">
     <g id="line2d_11">
      <g>
       <use xlink:href="#m4770d0f5e8" x="57.6" y="254.3616" style="stroke: #000000; stroke-width: 0.8"/>
      </g>
     </g>
     <g id="text_12">
      <!-- 0.2 -->
      <g transform="translate(34.696875 258.160819) scale(0.1 -0.1)">
       <use xlink:href="#DejaVuSans-30"/>
       <use xlink:href="#DejaVuSans-2e" x="63.623047"/>
       <use xlink:href="#DejaVuSans-32" x="95.410156"/>
      </g>
     </g>
    </g>
    <g id="ytick_3">
     <g id="line2d_12">
      <g>
       <use xlink:href="#m4770d0f5e8" x="57.6" y="201.1392" style="stroke: #000000; stroke-width: 0.8"/>
      </g>
     </g>
     <g id="text_13">
      <!-- 0.4 -->
      <g transform="translate(34.696875 204.938419) scale(0.1 -0.1)">
       <use xlink:href="#DejaVuSans-30"/>
       <use xlink:href="#DejaVuSans-2e" x="63.623047"/>
       <use xlink:href="#DejaVuSans-34" x="95.410156"/>
      </g>
     </g>
    </g>
    <g id="ytick_4">
     <g id="line2d_13">
      <g>
       <use xlink:href="#m4770d0f5e8" x="57.6" y="147.9168" style="stroke: #000000; stroke-width: 0.8"/>
      </g>
     </g>
     <g id="text_14">
      <!-- 0.6 -->
      <g transform="translate(34.696875 151.716019) scale(0.1 -0.1)">
       <defs>
        <path id="DejaVuSans-36" d="M 2113 2584 
Q 1688 2584 1439 2293 
Q 1191 2003 1191 1497 
Q 1191 994 1439 701 
Q 1688 409 2113 409 
Q 2538 409 2786 701 
Q 3034 994 3034 1497 
Q 3034 2003 2786 2293 
Q 2538 2584 2113 2584 
z
M 3366 4563 
L 3366 3988 
Q 3128 4100 2886 4159 
Q 2644 4219 2406 4219 
Q 1781 4219 1451 3797 
Q 1122 3375 1075 2522 
Q 1259 2794 1537 2939 
Q 1816 3084 2150 3084 
Q 2853 3084 3261 2657 
Q 3669 2231 3669 1497 
Q 3669 778 3244 343 
Q 2819 -91 2113 -91 
Q 1303 -91 875 529 
Q 447 1150 447 2328 
Q 447 3434 972 4092 
Q 1497 4750 2381 4750 
Q 2619 4750 2861 4703 
Q 3103 4656 3366 4563 
z
" transform="scale(0.015625)"/>
       </defs>
       <use xlink:href="#DejaVuSans-30"/>
       <use xlink:href="#DejaVuSans-2e" x="63.623047"/>
       <use xlink:href="#DejaVuSans-36" x="95.410156"/>
      </g>
     </g>
    </g>
    <g id="ytick_5">
     <g id="line2d_14">
      <g>
       <use xlink:href="#m4770d0f5e8" x="57.6" y="94.6944" style="stroke: #000000; stroke-width: 0.8"/>
      </g>
     </g>
     <g id="text_15">
      <!-- 0.8 -->
      <g transform="translate(34.696875 98.493619) scale(0.1 -0.1)">
       <defs>
        <path id="DejaVuSans-38" d="M 2034 2216 
Q 1584 2216 1326 1975 
Q 1069 1734 1069 1313 
Q 1069 891 1326 650 
Q 1584 409 2034 409 
Q 2484 409 2743 651 
Q 3003 894 3003 1313 
Q 3003 1734 2745 1975 
Q 2488 2216 2034 2216 
z
M 1403 2484 
Q 997 2584 770 2862 
Q 544 3141 544 3541 
Q 544 4100 942 4425 
Q 1341 4750 2034 4750 
Q 2731 4750 3128 4425 
Q 3525 4100 3525 3541 
Q 3525 3141 3298 2862 
Q 3072 2584 2669 2484 
Q 3125 2378 3379 2068 
Q 3634 1759 3634 1313 
Q 3634 634 3220 271 
Q 2806 -91 2034 -91 
Q 1263 -91 848 271 
Q 434 634 434 1313 
Q 434 1759 690 2068 
Q 947 2378 1403 2484 
z
M 1172 3481 
Q 1172 3119 1398 2916 
Q 1625 2713 2034 2713 
Q 2441 2713 2670 2916 
Q 2900 3119 2900 3481 
Q 2900 3844 2670 4047 
Q 2441 4250 2034 4250 
Q 1625 4250 1398 4047 
Q 1172 3844 1172 3481 
z
" transform="scale(0.015625)"/>
       </defs>
       <use xlink:href="#DejaVuSans-30"/>
       <use xlink:href="#DejaVuSans-2e" x="63.623047"/>
       <use xlink:href="#DejaVuSans-38" x="95.410156"/>
      </g>
     </g>
    </g>
    <g id="ytick_6">
     <g id="line2d_15">
      <g>
       <use xlink:href="#m4770d0f5e8" x="57.6" y="41.472" style="stroke: #000000; stroke-width: 0.8"/>
      </g>
     </g>
     <g id="text_16">
      <!-- 1.0 -->
      <g transform="translate(34.696875 45.271219) scale(0.1 -0.1)">
       <use xlink:href="#DejaVuSans-31"/>
       <use xlink:href="#DejaVuSans-2e" x="63.623047"/>
       <use xlink:href="#DejaVuSans-30" x="95.410156"/>
      </g>
     </g>
    </g>
    <g id="text_17">
     <!-- p(context) -->
     <g transform="translate(28.617187 200.449875) rotate(-90) scale(0.1 -0.1)">
      <defs>
       <path id="DejaVuSans-70" d="M 1159 525 
L 1159 -1331 
L 581 -1331 
L 581 3500 
L 1159 3500 
L 1159 2969 
Q 1341 3281 1617 3432 
Q 1894 3584 2278 3584 
Q 2916 3584 3314 3078 
Q 3713 2572 3713 1747 
Q 3713 922 3314 415 
Q 2916 -91 2278 -91 
Q 1894 -91 1617 61 
Q 1341 213 1159 525 
z
M 3116 1747 
Q 3116 2381 2855 2742 
Q 2594 3103 2138 3103 
Q 1681 3103 1420 2742 
Q 1159 2381 1159 1747 
Q 1159 1113 1420 752 
Q 1681 391 2138 391 
Q 2594 391 2855 752 
Q 3116 1113 3116 1747 
z
" transform="scale(0.015625)"/>
       <path id="DejaVuSans-28" d="M 1984 4856 
Q 1566 4138 1362 3434 
Q 1159 2731 1159 2009 
Q 1159 1288 1364 580 
Q 1569 -128 1984 -844 
L 1484 -844 
Q 1016 -109 783 600 
Q 550 1309 550 2009 
Q 550 2706 781 3412 
Q 1013 4119 1484 4856 
L 1984 4856 
z
" transform="scale(0.015625)"/>
       <path id="DejaVuSans-63" d="M 3122 3366 
L 3122 2828 
Q 2878 2963 2633 3030 
Q 2388 3097 2138 3097 
Q 1578 3097 1268 2742 
Q 959 2388 959 1747 
Q 959 1106 1268 751 
Q 1578 397 2138 397 
Q 2388 397 2633 464 
Q 2878 531 3122 666 
L 3122 134 
Q 2881 22 2623 -34 
Q 2366 -91 2075 -91 
Q 1284 -91 818 406 
Q 353 903 353 1747 
Q 353 2603 823 3093 
Q 1294 3584 2113 3584 
Q 2378 3584 2631 3529 
Q 2884 3475 3122 3366 
z
" transform="scale(0.015625)"/>
       <path id="DejaVuSans-6f" d="M 1959 3097 
Q 1497 3097 1228 2736 
Q 959 2375 959 1747 
Q 959 1119 1226 758 
Q 1494 397 1959 397 
Q 2419 397 2687 759 
Q 2956 1122 2956 1747 
Q 2956 2369 2687 2733 
Q 2419 3097 1959 3097 
z
M 1959 3584 
Q 2709 3584 3137 3096 
Q 3566 2609 3566 1747 
Q 3566 888 3137 398 
Q 2709 -91 1959 -91 
Q 1206 -91 779 398 
Q 353 888 353 1747 
Q 353 2609 779 3096 
Q 1206 3584 1959 3584 
z
" transform="scale(0.015625)"/>
       <path id="DejaVuSans-6e" d="M 3513 2113 
L 3513 0 
L 2938 0 
L 2938 2094 
Q 2938 2591 2744 2837 
Q 2550 3084 2163 3084 
Q 1697 3084 1428 2787 
Q 1159 2491 1159 1978 
L 1159 0 
L 581 0 
L 581 3500 
L 1159 3500 
L 1159 2956 
Q 1366 3272 1645 3428 
Q 1925 3584 2291 3584 
Q 2894 3584 3203 3211 
Q 3513 2838 3513 2113 
z
" transform="scale(0.015625)"/>
       <path id="DejaVuSans-65" d="M 3597 1894 
L 3597 1613 
L 953 1613 
Q 991 1019 1311 708 
Q 1631 397 2203 397 
Q 2534 397 2845 478 
Q 3156 559 3463 722 
L 3463 178 
Q 3153 47 2828 -22 
Q 2503 -91 2169 -91 
Q 1331 -91 842 396 
Q 353 884 353 1716 
Q 353 2575 817 3079 
Q 1281 3584 2069 3584 
Q 2775 3584 3186 3129 
Q 3597 2675 3597 1894 
z
M 3022 2063 
Q 3016 2534 2758 2815 
Q 2500 3097 2075 3097 
Q 1594 3097 1305 2825 
Q 1016 2553 972 2059 
L 3022 2063 
z
" transform="scale(0.015625)"/>
       <path id="DejaVuSans-78" d="M 3513 3500 
L 2247 1797 
L 3578 0 
L 2900 0 
L 1881 1375 
L 863 0 
L 184 0 
L 1544 1831 
L 300 3500 
L 978 3500 
L 1906 2253 
L 2834 3500 
L 3513 3500 
z
" transform="scale(0.015625)"/>
       <path id="DejaVuSans-29" d="M 513 4856 
L 1013 4856 
Q 1481 4119 1714 3412 
Q 1947 2706 1947 2009 
Q 1947 1309 1714 600 
Q 1481 -109 1013 -844 
L 513 -844 
Q 928 -128 1133 580 
Q 1338 1288 1338 2009 
Q 1338 2731 1133 3434 
Q 928 4138 513 4856 
z
" transform="scale(0.015625)"/>
      </defs>
      <use xlink:href="#DejaVuSans-70"/>
      <use xlink:href="#DejaVuSans-28" x="63.476562"/>
      <use xlink:href="#DejaVuSans-63" x="102.490234"/>
      <use xlink:href="#DejaVuSans-6f" x="157.470703"/>
      <use xlink:href="#DejaVuSans-6e" x="218.652344"/>
      <use xlink:href="#DejaVuSans-74" x="282.03125"/>
      <use xlink:href="#DejaVuSans-65" x="321.240234"/>
      <use xlink:href="#DejaVuSans-78" x="381.013672"/>
      <use xlink:href="#DejaVuSans-74" x="440.193359"/>
      <use xlink:href="#DejaVuSans-29" x="479.402344"/>
     </g>
    </g>
   </g>
   <g id="line2d_16">
    <path d="M 73.832727 218.88 
L 81.949091 186.94656 
L 90.065455 182.103792 
L 98.181818 179.761618 
L 106.298182 184.854261 
L 114.414545 180.701365 
L 122.530909 178.596808 
L 130.647273 176.620907 
L 138.763636 174.702842 
L 146.88 172.854687 
L 154.996364 171.085 
L 163.112727 169.397347 
L 171.229091 167.792181 
L 179.345455 166.268073 
L 187.461818 177.205967 
L 195.578182 177.544837 
L 203.694545 177.561796 
L 211.810909 177.567741 
L 219.927273 177.57251 
L 228.043636 177.576567 
L 236.16 177.580053 
L 244.276364 177.58307 
L 252.392727 177.585699 
L 260.509091 177.588003 
L 268.625455 177.590034 
L 276.741818 177.591834 
L 284.858182 177.593436 
L 292.974545 177.594869 
L 301.090909 177.596155 
L 309.207273 177.597314 
L 317.323636 177.598362 
L 325.44 177.599313 
L 333.556364 177.600178 
L 341.672727 177.600967 
L 349.789091 177.60169 
L 357.905455 177.602353 
L 366.021818 177.602963 
L 374.138182 177.603525 
L 382.254545 177.604044 
L 390.370909 177.604524 
" clip-path="url(#p0e5fc53441)" style="fill: none; stroke: #add8e6; stroke-opacity: 0.3; stroke-width: 1.5; stroke-linecap: square"/>
   </g>
   <g id="line2d_17">
    <path d="M 73.832727 218.88 
L 81.949091 186.94656 
L 90.065455 182.103792 
L 98.181818 179.761618 
L 106.298182 177.398101 
L 114.414545 174.975866 
L 122.530909 172.588942 
L 130.647273 187.981749 
L 138.763636 174.792856 
L 146.88 172.482366 
L 154.996364 170.70141 
L 163.112727 169.020919 
L 171.229091 167.422464 
L 179.345455 165.904084 
L 187.461818 176.565176 
L 195.578182 176.90179 
L 203.694545 176.918948 
L 211.810909 176.925022 
L 219.927273 176.929897 
L 228.043636 176.934044 
L 236.16 176.937607 
L 244.276364 176.940691 
L 252.392727 176.943378 
L 260.509091 176.945734 
L 268.625455 176.94781 
L 276.741818 176.94965 
L 284.858182 176.951288 
L 292.974545 176.952753 
L 301.090909 176.954068 
L 309.207273 176.955253 
L 317.323636 176.956324 
L 325.44 176.957296 
L 333.556364 176.95818 
L 341.672727 176.958988 
L 349.789091 176.959727 
L 357.905455 176.960404 
L 366.021818 176.961028 
L 374.138182 176.961602 
L 382.254545 176.962133 
L 390.370909 176.962625 
" clip-path="url(#p0e5fc53441)" style="fill: none; stroke: #add8e6; stroke-opacity: 0.3; stroke-width: 1.5; stroke-linecap: square"/>
   </g>
   <g id="line2d_18">
    <path d="M 73.832727 218.88 
L 81.949091 186.94656 
L 90.065455 182.103792 
L 98.181818 179.761618 
L 106.298182 177.398101 
L 114.414545 186.009894 
L 122.530909 185.087354 
L 130.647273 180.551909 
L 138.763636 178.686195 
L 146.88 176.976759 
L 154.996364 186.55571 
L 163.112727 178.163599 
L 171.229091 176.546254 
L 179.345455 175.190699 
L 187.461818 173.897015 
L 195.578182 172.658697 
L 203.694545 171.474881 
L 211.810909 179.802169 
L 219.927273 180.006157 
L 228.043636 180.01501 
L 236.16 180.018412 
L 244.276364 180.021249 
L 252.392727 180.023718 
L 260.509091 180.025883 
L 268.625455 180.027791 
L 276.741818 180.029481 
L 284.858182 180.030986 
L 292.974545 180.032331 
L 301.090909 180.033538 
L 309.207273 180.034626 
L 317.323636 180.03561 
L 325.44 180.036503 
L 333.556364 180.037315 
L 341.672727 180.038056 
L 349.789091 180.038734 
L 357.905455 180.039356 
L 366.021818 180.039928 
L 374.138182 180.040456 
L 382.254545 180.040943 
L 390.370909 180.041394 
" clip-path="url(#p0e5fc53441)" style="fill: none; stroke: #add8e6; stroke-opacity: 0.3; stroke-width: 1.5; stroke-linecap: square"/>
   </g>
   <g id="line2d_19">
    <path d="M 73.832727 218.88 
L 81.949091 186.94656 
L 90.065455 182.103792 
L 98.181818 179.761618 
L 106.298182 184.854261 
L 114.414545 180.701365 
L 122.530909 178.596808 
L 130.647273 176.620907 
L 138.763636 174.702842 
L 146.88 172.854687 
L 154.996364 171.085 
L 163.112727 189.82275 
L 171.229091 173.344571 
L 179.345455 188.153665 
L 187.461818 174.573728 
L 195.578182 186.769238 
L 203.694545 175.573247 
L 211.810909 174.278497 
L 219.927273 173.26856 
L 228.043636 179.66784 
L 236.16 179.814234 
L 244.276364 179.820545 
L 252.392727 179.823202 
L 260.509091 179.825465 
L 268.625455 179.827458 
L 276.741818 179.829224 
L 284.858182 179.830796 
L 292.974545 179.832201 
L 301.090909 179.833462 
L 309.207273 179.834599 
L 317.323636 179.835627 
L 325.44 179.836559 
L 333.556364 179.837407 
L 341.672727 179.838181 
L 349.789091 179.83889 
L 357.905455 179.83954 
L 366.021818 179.840138 
L 374.138182 179.840689 
L 382.254545 179.841197 
L 390.370909 179.841669 
" clip-path="url(#p0e5fc53441)" style="fill: none; stroke: #add8e6; stroke-opacity: 0.3; stroke-width: 1.5; stroke-linecap: square"/>
   </g>
   <g id="line2d_20">
    <path d="M 73.832727 218.88 
L 81.949091 186.94656 
L 90.065455 182.103792 
L 98.181818 179.761618 
L 106.298182 177.398101 
L 114.414545 174.975866 
L 122.530909 172.588942 
L 130.647273 170.285745 
L 138.763636 188.917532 
L 146.88 172.845538 
L 154.996364 187.274725 
L 163.112727 174.132835 
L 171.229091 172.273133 
L 179.345455 186.849808 
L 187.461818 173.956731 
L 195.578182 172.427294 
L 203.694545 171.265737 
L 211.810909 178.481113 
L 219.927273 178.668188 
L 228.043636 178.677026 
L 236.16 178.680644 
L 244.276364 178.683673 
L 252.392727 178.686308 
L 260.509091 178.688619 
L 268.625455 178.690656 
L 276.741818 178.69246 
L 284.858182 178.694066 
L 292.974545 178.695502 
L 301.090909 178.696791 
L 309.207273 178.697953 
L 317.323636 178.699003 
L 325.44 178.699956 
L 333.556364 178.700823 
L 341.672727 178.701615 
L 349.789091 178.702339 
L 357.905455 178.703003 
L 366.021818 178.703614 
L 374.138182 178.704178 
L 382.254545 178.704698 
L 390.370909 178.705179 
" clip-path="url(#p0e5fc53441)" style="fill: none; stroke: #add8e6; stroke-opacity: 0.3; stroke-width: 1.5; stroke-linecap: square"/>
   </g>
   <g id="line2d_21">
    <path d="M 73.832727 218.88 
L 81.949091 186.94656 
L 90.065455 182.103792 
L 98.181818 183.434183 
L 106.298182 182.418737 
L 114.414545 180.523643 
L 122.530909 178.521696 
L 130.647273 176.53393 
L 138.763636 174.59948 
L 146.88 172.736433 
L 154.996364 170.953371 
L 163.112727 169.253632 
L 171.229091 167.637484 
L 179.345455 166.103353 
L 187.461818 177.204993 
L 195.578182 177.549446 
L 203.694545 177.566602 
L 211.810909 177.572562 
L 219.927273 177.577339 
L 228.043636 177.581403 
L 236.16 177.584894 
L 244.276364 177.587915 
L 252.392727 177.590548 
L 260.509091 177.592856 
L 268.625455 177.59489 
L 276.741818 177.596693 
L 284.858182 177.598297 
L 292.974545 177.599732 
L 301.090909 177.60102 
L 309.207273 177.602181 
L 317.323636 177.60323 
L 325.44 177.604182 
L 333.556364 177.605049 
L 341.672727 177.605839 
L 349.789091 177.606563 
L 357.905455 177.607227 
L 366.021818 177.607838 
L 374.138182 177.6084 
L 382.254545 177.60892 
L 390.370909 177.609402 
" clip-path="url(#p0e5fc53441)" style="fill: none; stroke: #add8e6; stroke-opacity: 0.3; stroke-width: 1.5; stroke-linecap: square"/>
   </g>
   <g id="line2d_22">
    <path d="M 73.832727 218.88 
L 81.949091 186.94656 
L 90.065455 182.103792 
L 98.181818 179.761618 
L 106.298182 177.398101 
L 114.414545 174.975866 
L 122.530909 172.588942 
L 130.647273 170.285745 
L 138.763636 168.086953 
L 146.88 166.000123 
L 154.996364 164.026295 
L 163.112727 162.163089 
L 171.229091 174.551534 
L 179.345455 175.016235 
L 187.461818 175.043239 
L 195.578182 175.052452 
L 203.694545 175.059612 
L 211.810909 175.065582 
L 219.927273 175.070625 
L 228.043636 175.074922 
L 236.16 175.078615 
L 244.276364 175.081811 
L 252.392727 175.084597 
L 260.509091 175.087039 
L 268.625455 175.089191 
L 276.741818 175.091099 
L 284.858182 175.092797 
L 292.974545 175.094316 
L 301.090909 175.095679 
L 309.207273 175.096908 
L 317.323636 175.098019 
L 325.44 175.099027 
L 333.556364 175.099944 
L 341.672727 175.100782 
L 349.789091 175.101548 
L 357.905455 175.102251 
L 366.021818 175.102897 
L 374.138182 175.103493 
L 382.254545 175.104044 
L 390.370909 175.104554 
" clip-path="url(#p0e5fc53441)" style="fill: none; stroke: #add8e6; stroke-opacity: 0.3; stroke-width: 1.5; stroke-linecap: square"/>
   </g>
   <g id="line2d_23">
    <path d="M 73.832727 218.88 
L 81.949091 186.94656 
L 90.065455 182.103792 
L 98.181818 179.761618 
L 106.298182 177.398101 
L 114.414545 186.009894 
L 122.530909 178.772045 
L 130.647273 176.55131 
L 138.763636 174.627795 
L 146.88 172.785637 
L 154.996364 171.021619 
L 163.112727 169.338908 
L 171.229091 167.738083 
L 179.345455 166.217824 
L 187.461818 177.047104 
L 195.578182 177.383737 
L 203.694545 177.400672 
L 211.810909 177.406637 
L 219.927273 177.411425 
L 228.043636 177.415497 
L 236.16 177.418996 
L 244.276364 177.422025 
L 252.392727 177.424664 
L 260.509091 177.426977 
L 268.625455 177.429016 
L 276.741818 177.430823 
L 284.858182 177.432431 
L 292.974545 177.433869 
L 301.090909 177.43516 
L 309.207273 177.436324 
L 317.323636 177.437376 
L 325.44 177.43833 
L 333.556364 177.439199 
L 341.672727 177.439991 
L 349.789091 177.440717 
L 357.905455 177.441382 
L 366.021818 177.441994 
L 374.138182 177.442559 
L 382.254545 177.44308 
L 390.370909 177.443562 
" clip-path="url(#p0e5fc53441)" style="fill: none; stroke: #add8e6; stroke-opacity: 0.3; stroke-width: 1.5; stroke-linecap: square"/>
   </g>
   <g id="line2d_24">
    <path d="M 73.832727 218.88 
L 81.949091 186.94656 
L 90.065455 182.103792 
L 98.181818 179.761618 
L 106.298182 177.398101 
L 114.414545 174.975866 
L 122.530909 172.588942 
L 130.647273 170.285745 
L 138.763636 188.917532 
L 146.88 172.845538 
L 154.996364 170.524512 
L 163.112727 168.82142 
L 171.229091 189.198564 
L 179.345455 171.231572 
L 187.461818 169.384132 
L 195.578182 177.671841 
L 203.694545 177.917833 
L 211.810909 177.930658 
L 219.927273 177.935736 
L 228.043636 177.939896 
L 236.16 177.943464 
L 244.276364 177.946553 
L 252.392727 177.949244 
L 260.509091 177.951603 
L 268.625455 177.953682 
L 276.741818 177.955525 
L 284.858182 177.957165 
L 292.974545 177.958631 
L 301.090909 177.959948 
L 309.207273 177.961134 
L 317.323636 177.962206 
L 325.44 177.963179 
L 333.556364 177.964065 
L 341.672727 177.964873 
L 349.789091 177.965613 
L 357.905455 177.966291 
L 366.021818 177.966915 
L 374.138182 177.96749 
L 382.254545 177.968021 
L 390.370909 177.968513 
" clip-path="url(#p0e5fc53441)" style="fill: none; stroke: #add8e6; stroke-opacity: 0.3; stroke-width: 1.5; stroke-linecap: square"/>
   </g>
   <g id="line2d_25">
    <path d="M 73.832727 218.88 
L 81.949091 186.94656 
L 90.065455 182.103792 
L 98.181818 183.434183 
L 106.298182 182.418737 
L 114.414545 180.523643 
L 122.530909 178.521696 
L 130.647273 176.53393 
L 138.763636 174.59948 
L 146.88 172.736433 
L 154.996364 170.953371 
L 163.112727 190.109868 
L 171.229091 173.255749 
L 179.345455 171.367435 
L 187.461818 170.004283 
L 195.578182 168.719426 
L 203.694545 178.214525 
L 211.810909 178.473913 
L 219.927273 178.485656 
L 228.043636 178.489898 
L 236.16 178.493386 
L 244.276364 178.496399 
L 252.392727 178.499025 
L 260.509091 178.501327 
L 268.625455 178.503356 
L 276.741818 178.505153 
L 284.858182 178.506754 
L 292.974545 178.508184 
L 301.090909 178.509469 
L 309.207273 178.510626 
L 317.323636 178.511672 
L 325.44 178.512622 
L 333.556364 178.513486 
L 341.672727 178.514274 
L 349.789091 178.514996 
L 357.905455 178.515658 
L 366.021818 178.516266 
L 374.138182 178.516828 
L 382.254545 178.517346 
L 390.370909 178.517826 
" clip-path="url(#p0e5fc53441)" style="fill: none; stroke: #add8e6; stroke-opacity: 0.3; stroke-width: 1.5; stroke-linecap: square"/>
   </g>
   <g id="line2d_26">
    <path d="M 73.832727 218.88 
L 81.949091 186.94656 
L 90.065455 182.103792 
L 98.181818 179.761618 
L 106.298182 184.854261 
L 114.414545 183.624499 
L 122.530909 181.870696 
L 130.647273 180.059837 
L 138.763636 185.009294 
L 146.88 180.675954 
L 154.996364 179.036527 
L 163.112727 177.538807 
L 171.229091 176.097133 
L 179.345455 174.711518 
L 187.461818 173.383324 
L 195.578182 172.112626 
L 203.694545 170.898568 
L 211.810909 179.824375 
L 219.927273 180.042895 
L 228.043636 180.052103 
L 236.16 180.055498 
L 244.276364 180.058322 
L 252.392727 180.060779 
L 260.509091 180.062933 
L 268.625455 180.064831 
L 276.741818 180.066513 
L 284.858182 180.06801 
L 292.974545 180.069348 
L 301.090909 180.07055 
L 309.207273 180.071632 
L 317.323636 180.072611 
L 325.44 180.073499 
L 333.556364 180.074307 
L 341.672727 180.075044 
L 349.789091 180.075719 
L 357.905455 180.076338 
L 366.021818 180.076907 
L 374.138182 180.077432 
L 382.254545 180.077917 
L 390.370909 180.078366 
" clip-path="url(#p0e5fc53441)" style="fill: none; stroke: #add8e6; stroke-opacity: 0.3; stroke-width: 1.5; stroke-linecap: square"/>
   </g>
   <g id="line2d_27">
    <path d="M 73.832727 218.88 
L 81.949091 186.94656 
L 90.065455 182.103792 
L 98.181818 179.761618 
L 106.298182 177.398101 
L 114.414545 174.975866 
L 122.530909 172.588942 
L 130.647273 170.285745 
L 138.763636 168.086953 
L 146.88 166.000123 
L 154.996364 190.789889 
L 163.112727 169.144306 
L 171.229091 166.829107 
L 179.345455 165.281102 
L 187.461818 175.757535 
L 195.578182 176.101874 
L 203.694545 176.119895 
L 211.810909 176.12627 
L 219.927273 176.131379 
L 228.043636 176.135725 
L 236.16 176.139459 
L 244.276364 176.142691 
L 252.392727 176.145508 
L 260.509091 176.147976 
L 268.625455 176.150153 
L 276.741818 176.152081 
L 284.858182 176.153798 
L 292.974545 176.155333 
L 301.090909 176.156711 
L 309.207273 176.157953 
L 317.323636 176.159076 
L 325.44 176.160094 
L 333.556364 176.161021 
L 341.672727 176.161867 
L 349.789091 176.162642 
L 357.905455 176.163352 
L 366.021818 176.164006 
L 374.138182 176.164608 
L 382.254545 176.165164 
L 390.370909 176.165679 
" clip-path="url(#p0e5fc53441)" style="fill: none; stroke: #add8e6; stroke-opacity: 0.3; stroke-width: 1.5; stroke-linecap: square"/>
   </g>
   <g id="line2d_28">
    <path d="M 73.832727 218.88 
L 81.949091 186.94656 
L 90.065455 182.103792 
L 98.181818 179.761618 
L 106.298182 177.398101 
L 114.414545 174.975866 
L 122.530909 172.588942 
L 130.647273 170.285745 
L 138.763636 168.086953 
L 146.88 166.000123 
L 154.996364 164.026295 
L 163.112727 162.163089 
L 171.229091 174.551534 
L 179.345455 175.016235 
L 187.461818 175.043239 
L 195.578182 175.052452 
L 203.694545 175.059612 
L 211.810909 175.065582 
L 219.927273 175.070625 
L 228.043636 175.074922 
L 236.16 175.078615 
L 244.276364 175.081811 
L 252.392727 175.084597 
L 260.509091 175.087039 
L 268.625455 175.089191 
L 276.741818 175.091099 
L 284.858182 175.092797 
L 292.974545 175.094316 
L 301.090909 175.095679 
L 309.207273 175.096908 
L 317.323636 175.098019 
L 325.44 175.099027 
L 333.556364 175.099944 
L 341.672727 175.100782 
L 349.789091 175.101548 
L 357.905455 175.102251 
L 366.021818 175.102897 
L 374.138182 175.103493 
L 382.254545 175.104044 
L 390.370909 175.104554 
" clip-path="url(#p0e5fc53441)" style="fill: none; stroke: #add8e6; stroke-opacity: 0.3; stroke-width: 1.5; stroke-linecap: square"/>
   </g>
   <g id="line2d_29">
    <path d="M 73.832727 218.88 
L 81.949091 186.94656 
L 90.065455 182.103792 
L 98.181818 179.761618 
L 106.298182 177.398101 
L 114.414545 174.975866 
L 122.530909 172.588942 
L 130.647273 170.285745 
L 138.763636 168.086953 
L 146.88 166.000123 
L 154.996364 190.789889 
L 163.112727 169.144306 
L 171.229091 188.541346 
L 179.345455 170.752694 
L 187.461818 168.887992 
L 195.578182 177.11651 
L 203.694545 177.368187 
L 211.810909 177.381527 
L 219.927273 177.386786 
L 228.043636 177.391089 
L 236.16 177.394781 
L 244.276364 177.397976 
L 252.392727 177.40076 
L 260.509091 177.403201 
L 268.625455 177.405352 
L 276.741818 177.407258 
L 284.858182 177.408955 
L 292.974545 177.410472 
L 301.090909 177.411833 
L 309.207273 177.41306 
L 317.323636 177.41417 
L 325.44 177.415177 
L 333.556364 177.416093 
L 341.672727 177.416929 
L 349.789091 177.417694 
L 357.905455 177.418396 
L 366.021818 177.419041 
L 374.138182 177.419637 
L 382.254545 177.420186 
L 390.370909 177.420695 
" clip-path="url(#p0e5fc53441)" style="fill: none; stroke: #add8e6; stroke-opacity: 0.3; stroke-width: 1.5; stroke-linecap: square"/>
   </g>
   <g id="line2d_30">
    <path d="M 73.832727 218.88 
L 81.949091 186.94656 
L 90.065455 182.103792 
L 98.181818 179.761618 
L 106.298182 184.854261 
L 114.414545 180.701365 
L 122.530909 184.568134 
L 130.647273 183.208477 
L 138.763636 182.574891 
L 146.88 183.030122 
L 154.996364 181.623711 
L 163.112727 180.18429 
L 171.229091 178.784319 
L 179.345455 185.877681 
L 187.461818 179.552838 
L 195.578182 178.238495 
L 203.694545 177.09384 
L 211.810909 175.997608 
L 219.927273 187.954684 
L 228.043636 187.352472 
L 236.16 182.625185 
L 244.276364 187.538745 
L 252.392727 186.847519 
L 260.509091 186.086836 
L 268.625455 179.825899 
L 276.741818 178.966602 
L 284.858182 186.179778 
L 292.974545 185.629607 
L 301.090909 184.989845 
L 309.207273 184.372134 
L 317.323636 183.777315 
L 325.44 183.204468 
L 333.556364 182.652672 
L 341.672727 183.009838 
L 349.789091 182.70283 
L 357.905455 182.964874 
L 366.021818 182.748238 
L 374.138182 182.284643 
L 382.254545 181.833687 
L 390.370909 181.398409 
" clip-path="url(#p0e5fc53441)" style="fill: none; stroke: #add8e6; stroke-opacity: 0.3; stroke-width: 1.5; stroke-linecap: square"/>
   </g>
   <g id="line2d_31">
    <path d="M 73.832727 218.88 
L 81.949091 186.94656 
L 90.065455 182.103792 
L 98.181818 183.434183 
L 106.298182 181.791501 
L 114.414545 179.753118 
L 122.530909 177.654917 
L 130.647273 175.582686 
L 138.763636 173.571634 
L 146.88 171.63861 
L 154.996364 189.407442 
L 163.112727 173.847581 
L 171.229091 171.860909 
L 179.345455 188.774748 
L 187.461818 173.756847 
L 195.578182 172.137314 
L 203.694545 170.941196 
L 211.810909 178.972903 
L 219.927273 179.178989 
L 228.043636 179.188245 
L 236.16 179.191824 
L 244.276364 179.194807 
L 252.392727 179.197404 
L 260.509091 179.199679 
L 268.625455 179.201685 
L 276.741818 179.203463 
L 284.858182 179.205045 
L 292.974545 179.206459 
L 301.090909 179.207729 
L 309.207273 179.208873 
L 317.323636 179.209907 
L 325.44 179.210846 
L 333.556364 179.2117 
L 341.672727 179.212479 
L 349.789091 179.213192 
L 357.905455 179.213847 
L 366.021818 179.214448 
L 374.138182 179.215003 
L 382.254545 179.215515 
L 390.370909 179.215989 
" clip-path="url(#p0e5fc53441)" style="fill: none; stroke: #add8e6; stroke-opacity: 0.3; stroke-width: 1.5; stroke-linecap: square"/>
   </g>
   <g id="line2d_32">
    <path d="M 73.832727 218.88 
L 81.949091 186.94656 
L 90.065455 182.103792 
L 98.181818 179.761618 
L 106.298182 177.398101 
L 114.414545 174.975866 
L 122.530909 172.588942 
L 130.647273 170.285745 
L 138.763636 168.086953 
L 146.88 166.000123 
L 154.996364 164.026295 
L 163.112727 191.737606 
L 171.229091 167.407595 
L 179.345455 165.100582 
L 187.461818 175.499756 
L 195.578182 175.84725 
L 203.694545 175.865644 
L 211.810909 175.872148 
L 219.927273 175.877358 
L 228.043636 175.88179 
L 236.16 175.885597 
L 244.276364 175.888893 
L 252.392727 175.891764 
L 260.509091 175.894282 
L 268.625455 175.896501 
L 276.741818 175.898467 
L 284.858182 175.900218 
L 292.974545 175.901783 
L 301.090909 175.903188 
L 309.207273 175.904454 
L 317.323636 175.905599 
L 325.44 175.906638 
L 333.556364 175.907583 
L 341.672727 175.908446 
L 349.789091 175.909235 
L 357.905455 175.90996 
L 366.021818 175.910626 
L 374.138182 175.91124 
L 382.254545 175.911807 
L 390.370909 175.912332 
" clip-path="url(#p0e5fc53441)" style="fill: none; stroke: #add8e6; stroke-opacity: 0.3; stroke-width: 1.5; stroke-linecap: square"/>
   </g>
   <g id="line2d_33">
    <path d="M 73.832727 218.88 
L 81.949091 186.94656 
L 90.065455 182.103792 
L 98.181818 183.434183 
L 106.298182 182.418737 
L 114.414545 180.523643 
L 122.530909 178.521696 
L 130.647273 186.074622 
L 138.763636 179.565465 
L 146.88 177.719213 
L 154.996364 176.105103 
L 163.112727 187.506955 
L 171.229091 177.481426 
L 179.345455 175.914794 
L 187.461818 174.644574 
L 195.578182 173.435197 
L 203.694545 172.278683 
L 211.810909 180.1865 
L 219.927273 180.378361 
L 228.043636 180.386841 
L 236.16 180.390201 
L 244.276364 180.39301 
L 252.392727 180.395454 
L 260.509091 180.397597 
L 268.625455 180.399486 
L 276.741818 180.401159 
L 284.858182 180.402649 
L 292.974545 180.40398 
L 301.090909 180.405176 
L 309.207273 180.406253 
L 317.323636 180.407227 
L 325.44 180.40811 
L 333.556364 180.408914 
L 341.672727 180.409648 
L 349.789091 180.410319 
L 357.905455 180.410935 
L 366.021818 180.411501 
L 374.138182 180.412023 
L 382.254545 180.412505 
L 390.370909 180.412952 
" clip-path="url(#p0e5fc53441)" style="fill: none; stroke: #add8e6; stroke-opacity: 0.3; stroke-width: 1.5; stroke-linecap: square"/>
   </g>
   <g id="line2d_34">
    <path d="M 73.832727 218.88 
L 81.949091 186.94656 
L 90.065455 182.103792 
L 98.181818 179.761618 
L 106.298182 177.398101 
L 114.414545 174.975866 
L 122.530909 187.025426 
L 130.647273 186.34534 
L 138.763636 178.594802 
L 146.88 176.633401 
L 154.996364 174.962105 
L 163.112727 187.239929 
L 171.229091 176.441129 
L 179.345455 174.805143 
L 187.461818 173.496016 
L 195.578182 172.251071 
L 203.694545 188.982937 
L 211.810909 173.963146 
L 219.927273 180.075124 
L 228.043636 180.219159 
L 236.16 180.225904 
L 244.276364 180.228883 
L 252.392727 180.231408 
L 260.509091 180.23362 
L 268.625455 180.23557 
L 276.741818 180.237297 
L 284.858182 180.238835 
L 292.974545 180.24021 
L 301.090909 180.241443 
L 309.207273 180.242555 
L 317.323636 180.243561 
L 325.44 180.244472 
L 333.556364 180.245302 
L 341.672727 180.24606 
L 349.789091 180.246753 
L 357.905455 180.247388 
L 366.021818 180.247973 
L 374.138182 180.248512 
L 382.254545 180.24901 
L 390.370909 180.24947 
" clip-path="url(#p0e5fc53441)" style="fill: none; stroke: #add8e6; stroke-opacity: 0.3; stroke-width: 1.5; stroke-linecap: square"/>
   </g>
   <g id="line2d_35">
    <path d="M 73.832727 218.88 
L 81.949091 186.94656 
L 90.065455 182.103792 
L 98.181818 179.761618 
L 106.298182 177.398101 
L 114.414545 174.975866 
L 122.530909 172.588942 
L 130.647273 170.285745 
L 138.763636 168.086953 
L 146.88 166.000123 
L 154.996364 164.026295 
L 163.112727 191.737606 
L 171.229091 191.854956 
L 179.345455 169.12164 
L 187.461818 188.777507 
L 195.578182 170.60973 
L 203.694545 168.879831 
L 211.810909 177.254594 
L 219.927273 177.494361 
L 228.043636 177.505521 
L 236.16 177.509617 
L 244.276364 177.513009 
L 252.392727 177.515961 
L 260.509091 177.518548 
L 268.625455 177.520829 
L 276.741818 177.522849 
L 284.858182 177.524647 
L 292.974545 177.526255 
L 301.090909 177.527699 
L 309.207273 177.528999 
L 317.323636 177.530175 
L 325.44 177.531242 
L 333.556364 177.532213 
L 341.672727 177.533099 
L 349.789091 177.53391 
L 357.905455 177.534654 
L 366.021818 177.535338 
L 374.138182 177.535968 
L 382.254545 177.536551 
L 390.370909 177.53709 
" clip-path="url(#p0e5fc53441)" style="fill: none; stroke: #add8e6; stroke-opacity: 0.3; stroke-width: 1.5; stroke-linecap: square"/>
   </g>
   <g id="line2d_36">
    <path d="M 73.832727 218.88 
L 81.949091 222.42816 
L 90.065455 225.039817 
L 98.181818 225.801004 
L 106.298182 224.190973 
L 114.414545 225.146307 
L 122.530909 225.87454 
L 130.647273 226.540306 
L 138.763636 227.198532 
L 146.88 227.845222 
L 154.996364 228.475089 
L 163.112727 229.084814 
L 171.229091 229.672472 
L 179.345455 230.237066 
L 187.461818 226.495249 
L 195.578182 226.259417 
L 203.694545 226.246592 
L 211.810909 226.242888 
L 219.927273 226.24 
L 228.043636 226.237553 
L 236.16 226.235458 
L 244.276364 226.233649 
L 252.392727 226.232077 
L 260.509091 226.230702 
L 268.625455 226.229493 
L 276.741818 226.228423 
L 284.858182 226.227473 
L 292.974545 226.226624 
L 301.090909 226.225864 
L 309.207273 226.22518 
L 317.323636 226.224562 
L 325.44 226.224002 
L 333.556364 226.223493 
L 341.672727 226.223029 
L 349.789091 226.222605 
L 357.905455 226.222217 
L 366.021818 226.221859 
L 374.138182 226.221531 
L 382.254545 226.221227 
L 390.370909 226.220946 
" clip-path="url(#p0e5fc53441)" style="fill: none; stroke: #ff0000; stroke-opacity: 0.1; stroke-width: 1.5; stroke-linecap: square"/>
   </g>
   <g id="line2d_37">
    <path d="M 73.832727 218.88 
L 81.949091 222.42816 
L 90.065455 225.039817 
L 98.181818 225.801004 
L 106.298182 226.534539 
L 114.414545 227.35331 
L 122.530909 228.202288 
L 130.647273 223.164277 
L 138.763636 227.019889 
L 146.88 228.010773 
L 154.996364 228.65914 
L 163.112727 229.269684 
L 171.229091 229.857546 
L 179.345455 230.42244 
L 187.461818 226.773902 
L 195.578182 226.541909 
L 203.694545 226.529088 
L 211.810909 226.525342 
L 219.927273 226.522419 
L 228.043636 226.519943 
L 236.16 226.517823 
L 244.276364 226.515992 
L 252.392727 226.514401 
L 260.509091 226.51301 
L 268.625455 226.511786 
L 276.741818 226.510703 
L 284.858182 226.509741 
L 292.974545 226.508882 
L 301.090909 226.508113 
L 309.207273 226.50742 
L 317.323636 226.506795 
L 325.44 226.506228 
L 333.556364 226.505713 
L 341.672727 226.505244 
L 349.789091 226.504814 
L 357.905455 226.504421 
L 366.021818 226.504059 
L 374.138182 226.503727 
L 382.254545 226.503419 
L 390.370909 226.503135 
" clip-path="url(#p0e5fc53441)" style="fill: none; stroke: #ff0000; stroke-opacity: 0.1; stroke-width: 1.5; stroke-linecap: square"/>
   </g>
   <g id="line2d_38">
    <path d="M 73.832727 218.88 
L 81.949091 222.42816 
L 90.065455 225.039817 
L 98.181818 225.801004 
L 106.298182 226.534539 
L 114.414545 223.787274 
L 122.530909 223.826334 
L 130.647273 225.136299 
L 138.763636 225.795725 
L 146.88 226.366126 
L 154.996364 223.529503 
L 163.112727 225.784958 
L 171.229091 226.395054 
L 179.345455 226.844124 
L 187.461818 227.273364 
L 195.578182 227.688176 
L 203.694545 228.088366 
L 211.810909 225.493321 
L 219.927273 225.35034 
L 228.043636 225.343559 
L 236.16 225.341407 
L 244.276364 225.339649 
L 252.392727 225.338123 
L 260.509091 225.336789 
L 268.625455 225.335615 
L 276.741818 225.334577 
L 284.858182 225.333655 
L 292.974545 225.332832 
L 301.090909 225.332095 
L 309.207273 225.331431 
L 317.323636 225.330831 
L 325.44 225.330288 
L 333.556364 225.329795 
L 341.672727 225.329345 
L 349.789091 225.328933 
L 357.905455 225.328556 
L 366.021818 225.32821 
L 374.138182 225.327891 
L 382.254545 225.327597 
L 390.370909 225.327324 
" clip-path="url(#p0e5fc53441)" style="fill: none; stroke: #ff0000; stroke-opacity: 0.1; stroke-width: 1.5; stroke-linecap: square"/>
   </g>
   <g id="line2d_39">
    <path d="M 73.832727 218.88 
L 81.949091 222.42816 
L 90.065455 225.039817 
L 98.181818 225.801004 
L 106.298182 224.190973 
L 114.414545 225.146307 
L 122.530909 225.87454 
L 130.647273 226.540306 
L 138.763636 227.198532 
L 146.88 227.845222 
L 154.996364 228.475089 
L 163.112727 222.589492 
L 171.229091 227.354343 
L 179.345455 223.180825 
L 187.461818 226.903401 
L 195.578182 223.663974 
L 203.694545 226.550402 
L 211.810909 227.053865 
L 219.927273 227.383267 
L 228.043636 225.551679 
L 236.16 225.453175 
L 244.276364 225.448544 
L 252.392727 225.446913 
L 260.509091 225.445547 
L 268.625455 225.444348 
L 276.741818 225.443287 
L 284.858182 225.442344 
L 292.974545 225.441503 
L 301.090909 225.440749 
L 309.207273 225.44007 
L 317.323636 225.439458 
L 325.44 225.438902 
L 333.556364 225.438398 
L 341.672727 225.437938 
L 349.789091 225.437517 
L 357.905455 225.437132 
L 366.021818 225.436778 
L 374.138182 225.436452 
L 382.254545 225.436151 
L 390.370909 225.435873 
" clip-path="url(#p0e5fc53441)" style="fill: none; stroke: #ff0000; stroke-opacity: 0.1; stroke-width: 1.5; stroke-linecap: square"/>
   </g>
   <g id="line2d_40">
    <path d="M 73.832727 218.88 
L 81.949091 222.42816 
L 90.065455 225.039817 
L 98.181818 225.801004 
L 106.298182 226.534539 
L 114.414545 227.35331 
L 122.530909 228.202288 
L 130.647273 229.048544 
L 138.763636 222.877513 
L 146.88 227.699357 
L 154.996364 223.462337 
L 163.112727 227.20748 
L 171.229091 227.988401 
L 179.345455 223.700739 
L 187.461818 227.203605 
L 195.578182 227.829792 
L 203.694545 228.227512 
L 211.810909 226.048393 
L 219.927273 225.922126 
L 228.043636 225.915653 
L 236.16 225.913437 
L 244.276364 225.911619 
L 252.392727 225.91004 
L 260.509091 225.90866 
L 268.625455 225.907446 
L 276.741818 225.906372 
L 284.858182 225.905418 
L 292.974545 225.904567 
L 301.090909 225.903804 
L 309.207273 225.903117 
L 317.323636 225.902497 
L 325.44 225.901935 
L 333.556364 225.901424 
L 341.672727 225.900959 
L 349.789091 225.900533 
L 357.905455 225.900143 
L 366.021818 225.899784 
L 374.138182 225.899454 
L 382.254545 225.89915 
L 390.370909 225.898868 
" clip-path="url(#p0e5fc53441)" style="fill: none; stroke: #ff0000; stroke-opacity: 0.1; stroke-width: 1.5; stroke-linecap: square"/>
   </g>
   <g id="line2d_41">
    <path d="M 73.832727 218.88 
L 81.949091 222.42816 
L 90.065455 225.039817 
L 98.181818 224.729661 
L 106.298182 224.725696 
L 114.414545 225.275541 
L 122.530909 225.924353 
L 130.647273 226.592398 
L 138.763636 227.258484 
L 146.88 227.912788 
L 154.996364 228.549746 
L 163.112727 229.166077 
L 171.229091 229.759903 
L 179.345455 230.330263 
L 187.461818 226.510578 
L 195.578182 226.270576 
L 203.694545 226.257585 
L 211.810909 226.25387 
L 219.927273 226.250977 
L 228.043636 226.248526 
L 236.16 226.246427 
L 244.276364 226.244616 
L 252.392727 226.243041 
L 260.509091 226.241664 
L 268.625455 226.240453 
L 276.741818 226.239381 
L 284.858182 226.238429 
L 292.974545 226.23758 
L 301.090909 226.236818 
L 309.207273 226.236133 
L 317.323636 226.235514 
L 325.44 226.234953 
L 333.556364 226.234443 
L 341.672727 226.233979 
L 349.789091 226.233554 
L 357.905455 226.233164 
L 366.021818 226.232807 
L 374.138182 226.232477 
L 382.254545 226.232173 
L 390.370909 226.231892 
" clip-path="url(#p0e5fc53441)" style="fill: none; stroke: #ff0000; stroke-opacity: 0.1; stroke-width: 1.5; stroke-linecap: square"/>
   </g>
   <g id="line2d_42">
    <path d="M 73.832727 218.88 
L 81.949091 222.42816 
L 90.065455 225.039817 
L 98.181818 225.801004 
L 106.298182 226.534539 
L 114.414545 227.35331 
L 122.530909 228.202288 
L 130.647273 229.048544 
L 138.763636 229.876147 
L 146.88 230.677062 
L 154.996364 231.44715 
L 163.112727 232.184432 
L 171.229091 227.653548 
L 179.345455 227.331863 
L 187.461818 227.311762 
L 195.578182 227.306079 
L 203.694545 227.301808 
L 211.810909 227.298266 
L 219.927273 227.295286 
L 228.043636 227.292755 
L 236.16 227.290586 
L 244.276364 227.288714 
L 252.392727 227.287087 
L 260.509091 227.285664 
L 268.625455 227.284412 
L 276.741818 227.283304 
L 284.858182 227.28232 
L 292.974545 227.281442 
L 301.090909 227.280655 
L 309.207273 227.279946 
L 317.323636 227.279306 
L 325.44 227.278727 
L 333.556364 227.2782 
L 341.672727 227.277719 
L 349.789091 227.27728 
L 357.905455 227.276878 
L 366.021818 227.276508 
L 374.138182 227.276167 
L 382.254545 227.275853 
L 390.370909 227.275562 
" clip-path="url(#p0e5fc53441)" style="fill: none; stroke: #ff0000; stroke-opacity: 0.1; stroke-width: 1.5; stroke-linecap: square"/>
   </g>
   <g id="line2d_43">
    <path d="M 73.832727 218.88 
L 81.949091 222.42816 
L 90.065455 225.039817 
L 98.181818 225.801004 
L 106.298182 226.534539 
L 114.414545 223.787274 
L 122.530909 225.716221 
L 130.647273 226.564902 
L 138.763636 227.233338 
L 146.88 227.878905 
L 154.996364 228.507238 
L 163.112727 229.115566 
L 171.229091 229.70196 
L 179.345455 230.265401 
L 187.461818 226.562509 
L 195.578182 226.32869 
L 203.694545 226.315917 
L 211.810909 226.312208 
L 219.927273 226.309314 
L 228.043636 226.306863 
L 236.16 226.304764 
L 244.276364 226.302952 
L 252.392727 226.301377 
L 260.509091 226.299999 
L 268.625455 226.298788 
L 276.741818 226.297716 
L 284.858182 226.296764 
L 292.974545 226.295914 
L 301.090909 226.295152 
L 309.207273 226.294466 
L 317.323636 226.293847 
L 325.44 226.293286 
L 333.556364 226.292777 
L 341.672727 226.292312 
L 349.789091 226.291887 
L 357.905455 226.291498 
L 366.021818 226.29114 
L 374.138182 226.29081 
L 382.254545 226.290506 
L 390.370909 226.290225 
" clip-path="url(#p0e5fc53441)" style="fill: none; stroke: #ff0000; stroke-opacity: 0.1; stroke-width: 1.5; stroke-linecap: square"/>
   </g>
   <g id="line2d_44">
    <path d="M 73.832727 218.88 
L 81.949091 222.42816 
L 90.065455 225.039817 
L 98.181818 225.801004 
L 106.298182 226.534539 
L 114.414545 227.35331 
L 122.530909 228.202288 
L 130.647273 229.048544 
L 138.763636 222.877513 
L 146.88 227.699357 
L 154.996364 228.734067 
L 163.112727 229.365915 
L 171.229091 222.92598 
L 179.345455 228.179815 
L 187.461818 229.00179 
L 195.578182 226.377851 
L 203.694545 226.211391 
L 211.810909 226.20201 
L 219.927273 226.198902 
L 228.043636 226.196413 
L 236.16 226.194285 
L 244.276364 226.192448 
L 252.392727 226.190852 
L 260.509091 226.189456 
L 268.625455 226.188228 
L 276.741818 226.187142 
L 284.858182 226.186177 
L 292.974545 226.185316 
L 301.090909 226.184543 
L 309.207273 226.183849 
L 317.323636 226.183221 
L 325.44 226.182653 
L 333.556364 226.182136 
L 341.672727 226.181665 
L 349.789091 226.181235 
L 357.905455 226.18084 
L 366.021818 226.180478 
L 374.138182 226.180144 
L 382.254545 226.179836 
L 390.370909 226.179551 
" clip-path="url(#p0e5fc53441)" style="fill: none; stroke: #ff0000; stroke-opacity: 0.1; stroke-width: 1.5; stroke-linecap: square"/>
   </g>
   <g id="line2d_45">
    <path d="M 73.832727 218.88 
L 81.949091 222.42816 
L 90.065455 225.039817 
L 98.181818 224.729661 
L 106.298182 224.725696 
L 114.414545 225.275541 
L 122.530909 225.924353 
L 130.647273 226.592398 
L 138.763636 227.258484 
L 146.88 227.912788 
L 154.996364 228.549746 
L 163.112727 222.48245 
L 171.229091 227.402745 
L 179.345455 228.229701 
L 187.461818 228.714417 
L 195.578182 229.168174 
L 203.694545 226.093567 
L 211.810909 225.915537 
L 219.927273 225.906732 
L 228.043636 225.904114 
L 236.16 225.902014 
L 244.276364 225.900205 
L 252.392727 225.898634 
L 260.509091 225.897259 
L 268.625455 225.89605 
L 276.741818 225.89498 
L 284.858182 225.89403 
L 292.974545 225.893182 
L 301.090909 225.892422 
L 309.207273 225.891738 
L 317.323636 225.89112 
L 325.44 225.890561 
L 333.556364 225.890052 
L 341.672727 225.889588 
L 349.789091 225.889164 
L 357.905455 225.888776 
L 366.021818 225.888419 
L 374.138182 225.88809 
L 382.254545 225.887787 
L 390.370909 225.887506 
" clip-path="url(#p0e5fc53441)" style="fill: none; stroke: #ff0000; stroke-opacity: 0.1; stroke-width: 1.5; stroke-linecap: square"/>
   </g>
   <g id="line2d_46">
    <path d="M 73.832727 218.88 
L 81.949091 222.42816 
L 90.065455 225.039817 
L 98.181818 225.801004 
L 106.298182 224.190973 
L 114.414545 224.376862 
L 122.530909 224.92638 
L 130.647273 225.52301 
L 138.763636 223.838119 
L 146.88 225.180248 
L 154.996364 225.756558 
L 163.112727 226.251574 
L 171.229091 226.731181 
L 179.345455 227.197018 
L 187.461818 227.64811 
L 195.578182 228.083794 
L 203.694545 228.503732 
L 211.810909 225.571594 
L 219.927273 225.415853 
L 228.043636 225.408703 
L 236.16 225.406538 
L 244.276364 225.404777 
L 252.392727 225.40325 
L 260.509091 225.401914 
L 268.625455 225.400739 
L 276.741818 225.3997 
L 284.858182 225.398776 
L 292.974545 225.397952 
L 301.090909 225.397213 
L 309.207273 225.396549 
L 317.323636 225.395949 
L 325.44 225.395405 
L 333.556364 225.39491 
L 341.672727 225.39446 
L 349.789091 225.394048 
L 357.905455 225.393671 
L 366.021818 225.393324 
L 374.138182 225.393004 
L 382.254545 225.392709 
L 390.370909 225.392437 
" clip-path="url(#p0e5fc53441)" style="fill: none; stroke: #ff0000; stroke-opacity: 0.1; stroke-width: 1.5; stroke-linecap: square"/>
   </g>
   <g id="line2d_47">
    <path d="M 73.832727 218.88 
L 81.949091 222.42816 
L 90.065455 225.039817 
L 98.181818 225.801004 
L 106.298182 226.534539 
L 114.414545 227.35331 
L 122.530909 228.202288 
L 130.647273 229.048544 
L 138.763636 229.876147 
L 146.88 230.677062 
L 154.996364 222.302071 
L 163.112727 229.047554 
L 171.229091 230.140681 
L 179.345455 230.733637 
L 187.461818 227.13887 
L 195.578182 226.905918 
L 203.694545 226.892738 
L 211.810909 226.888876 
L 219.927273 226.885868 
L 228.043636 226.88332 
L 236.16 226.881138 
L 244.276364 226.879254 
L 252.392727 226.877617 
L 260.509091 226.876185 
L 268.625455 226.874925 
L 276.741818 226.873811 
L 284.858182 226.872821 
L 292.974545 226.871937 
L 301.090909 226.871145 
L 309.207273 226.870432 
L 317.323636 226.869789 
L 325.44 226.869206 
L 333.556364 226.868676 
L 341.672727 226.868192 
L 349.789091 226.86775 
L 357.905455 226.867346 
L 366.021818 226.866974 
L 374.138182 226.866631 
L 382.254545 226.866315 
L 390.370909 226.866022 
" clip-path="url(#p0e5fc53441)" style="fill: none; stroke: #ff0000; stroke-opacity: 0.1; stroke-width: 1.5; stroke-linecap: square"/>
   </g>
   <g id="line2d_48">
    <path d="M 73.832727 218.88 
L 81.949091 222.42816 
L 90.065455 225.039817 
L 98.181818 225.801004 
L 106.298182 226.534539 
L 114.414545 227.35331 
L 122.530909 228.202288 
L 130.647273 229.048544 
L 138.763636 229.876147 
L 146.88 230.677062 
L 154.996364 231.44715 
L 163.112727 232.184432 
L 171.229091 227.653548 
L 179.345455 227.331863 
L 187.461818 227.311762 
L 195.578182 227.306079 
L 203.694545 227.301808 
L 211.810909 227.298266 
L 219.927273 227.295286 
L 228.043636 227.292755 
L 236.16 227.290586 
L 244.276364 227.288714 
L 252.392727 227.287087 
L 260.509091 227.285664 
L 268.625455 227.284412 
L 276.741818 227.283304 
L 284.858182 227.28232 
L 292.974545 227.281442 
L 301.090909 227.280655 
L 309.207273 227.279946 
L 317.323636 227.279306 
L 325.44 227.278727 
L 333.556364 227.2782 
L 341.672727 227.277719 
L 349.789091 227.27728 
L 357.905455 227.276878 
L 366.021818 227.276508 
L 374.138182 227.276167 
L 382.254545 227.275853 
L 390.370909 227.275562 
" clip-path="url(#p0e5fc53441)" style="fill: none; stroke: #ff0000; stroke-opacity: 0.1; stroke-width: 1.5; stroke-linecap: square"/>
   </g>
   <g id="line2d_49">
    <path d="M 73.832727 218.88 
L 81.949091 222.42816 
L 90.065455 225.039817 
L 98.181818 225.801004 
L 106.298182 226.534539 
L 114.414545 227.35331 
L 122.530909 228.202288 
L 130.647273 229.048544 
L 138.763636 229.876147 
L 146.88 230.677062 
L 154.996364 222.302071 
L 163.112727 229.047554 
L 171.229091 223.154548 
L 179.345455 228.426566 
L 187.461818 229.258507 
L 195.578182 226.628828 
L 203.694545 226.460493 
L 211.810909 226.450873 
L 219.927273 226.447695 
L 228.043636 226.445153 
L 236.16 226.442979 
L 244.276364 226.441104 
L 252.392727 226.439474 
L 260.509091 226.438048 
L 268.625455 226.436794 
L 276.741818 226.435685 
L 284.858182 226.434699 
L 292.974545 226.433819 
L 301.090909 226.433031 
L 309.207273 226.432321 
L 317.323636 226.43168 
L 325.44 226.4311 
L 333.556364 226.430572 
L 341.672727 226.430091 
L 349.789091 226.429651 
L 357.905455 226.429248 
L 366.021818 226.428878 
L 374.138182 226.428537 
L 382.254545 226.428222 
L 390.370909 226.427931 
" clip-path="url(#p0e5fc53441)" style="fill: none; stroke: #ff0000; stroke-opacity: 0.1; stroke-width: 1.5; stroke-linecap: square"/>
   </g>
   <g id="line2d_50">
    <path d="M 73.832727 218.88 
L 81.949091 222.42816 
L 90.065455 225.039817 
L 98.181818 225.801004 
L 106.298182 224.190973 
L 114.414545 225.146307 
L 122.530909 224.134533 
L 130.647273 224.458532 
L 138.763636 224.488221 
L 146.88 224.507009 
L 154.996364 224.925542 
L 163.112727 225.38376 
L 171.229091 225.834915 
L 179.345455 223.557219 
L 187.461818 225.457918 
L 195.578182 225.926221 
L 203.694545 226.291573 
L 211.810909 226.642308 
L 219.927273 223.046983 
L 228.043636 223.080118 
L 236.16 224.498784 
L 244.276364 223.116181 
L 252.392727 223.242896 
L 260.509091 223.432309 
L 268.625455 225.364054 
L 276.741818 225.653249 
L 284.858182 223.518253 
L 292.974545 223.599247 
L 301.090909 223.755871 
L 309.207273 223.909025 
L 317.323636 224.057247 
L 325.44 224.20067 
L 333.556364 224.339447 
L 341.672727 224.545383 
L 349.789091 224.339498 
L 357.905455 224.544447 
L 366.021818 224.336869 
L 374.138182 224.448154 
L 382.254545 224.559841 
L 390.370909 224.668053 
" clip-path="url(#p0e5fc53441)" style="fill: none; stroke: #ff0000; stroke-opacity: 0.1; stroke-width: 1.5; stroke-linecap: square"/>
   </g>
   <g id="line2d_51">
    <path d="M 73.832727 218.88 
L 81.949091 222.42816 
L 90.065455 225.039817 
L 98.181818 224.729661 
L 106.298182 225.108327 
L 114.414545 225.759971 
L 122.530909 226.473082 
L 130.647273 227.198021 
L 138.763636 227.916617 
L 146.88 228.619687 
L 154.996364 222.616783 
L 163.112727 227.475656 
L 171.229091 228.349706 
L 179.345455 222.951996 
L 187.461818 227.429832 
L 195.578182 228.121834 
L 203.694545 228.53985 
L 211.810909 225.963417 
L 219.927273 225.820917 
L 228.043636 225.81398 
L 236.16 225.811758 
L 244.276364 225.809943 
L 252.392727 225.808368 
L 260.509091 225.806992 
L 268.625455 225.80578 
L 276.741818 225.804709 
L 284.858182 225.803758 
L 292.974545 225.802908 
L 301.090909 225.802147 
L 309.207273 225.801462 
L 317.323636 225.800843 
L 325.44 225.800282 
L 333.556364 225.799773 
L 341.672727 225.799308 
L 349.789091 225.798884 
L 357.905455 225.798495 
L 366.021818 225.798137 
L 374.138182 225.797808 
L 382.254545 225.797504 
L 390.370909 225.797223 
" clip-path="url(#p0e5fc53441)" style="fill: none; stroke: #ff0000; stroke-opacity: 0.1; stroke-width: 1.5; stroke-linecap: square"/>
   </g>
   <g id="line2d_52">
    <path d="M 73.832727 218.88 
L 81.949091 222.42816 
L 90.065455 225.039817 
L 98.181818 225.801004 
L 106.298182 226.534539 
L 114.414545 227.35331 
L 122.530909 228.202288 
L 130.647273 229.048544 
L 138.763636 229.876147 
L 146.88 230.677062 
L 154.996364 231.44715 
L 163.112727 222.008901 
L 171.229091 229.702319 
L 179.345455 230.815405 
L 187.461818 227.25684 
L 195.578182 227.023682 
L 203.694545 227.010347 
L 211.810909 227.006435 
L 219.927273 227.003388 
L 228.043636 227.000809 
L 236.16 226.998599 
L 244.276364 226.996692 
L 252.392727 226.995034 
L 260.509091 226.993584 
L 268.625455 226.992308 
L 276.741818 226.99118 
L 284.858182 226.990178 
L 292.974545 226.989283 
L 301.090909 226.988481 
L 309.207273 226.987759 
L 317.323636 226.987107 
L 325.44 226.986517 
L 333.556364 226.98598 
L 341.672727 226.985491 
L 349.789091 226.985043 
L 357.905455 226.984633 
L 366.021818 226.984257 
L 374.138182 226.98391 
L 382.254545 226.983589 
L 390.370909 226.983293 
" clip-path="url(#p0e5fc53441)" style="fill: none; stroke: #ff0000; stroke-opacity: 0.1; stroke-width: 1.5; stroke-linecap: square"/>
   </g>
   <g id="line2d_53">
    <path d="M 73.832727 218.88 
L 81.949091 222.42816 
L 90.065455 225.039817 
L 98.181818 224.729661 
L 106.298182 224.725696 
L 114.414545 225.275541 
L 122.530909 225.924353 
L 130.647273 223.662265 
L 138.763636 225.368883 
L 146.88 226.046844 
L 154.996364 226.586215 
L 163.112727 223.260465 
L 171.229091 225.927979 
L 179.345455 226.532866 
L 187.461818 226.952005 
L 195.578182 227.350758 
L 203.694545 227.735411 
L 211.810909 225.329618 
L 219.927273 225.195255 
L 228.043636 225.188769 
L 236.16 225.186636 
L 244.276364 225.184888 
L 252.392727 225.183371 
L 260.509091 225.182044 
L 268.625455 225.180877 
L 276.741818 225.179846 
L 284.858182 225.178929 
L 292.974545 225.17811 
L 301.090909 225.177377 
L 309.207273 225.176717 
L 317.323636 225.176121 
L 325.44 225.175581 
L 333.556364 225.17509 
L 341.672727 225.174643 
L 349.789091 225.174234 
L 357.905455 225.173859 
L 366.021818 225.173515 
L 374.138182 225.173198 
L 382.254545 225.172905 
L 390.370909 225.172634 
" clip-path="url(#p0e5fc53441)" style="fill: none; stroke: #ff0000; stroke-opacity: 0.1; stroke-width: 1.5; stroke-linecap: square"/>
   </g>
   <g id="line2d_54">
    <path d="M 73.832727 218.88 
L 81.949091 222.42816 
L 90.065455 225.039817 
L 98.181818 225.801004 
L 106.298182 226.534539 
L 114.414545 227.35331 
L 122.530909 223.460525 
L 130.647273 223.381896 
L 138.763636 225.758725 
L 146.88 226.515595 
L 154.996364 227.089168 
L 163.112727 223.363889 
L 171.229091 226.367986 
L 179.345455 227.016574 
L 187.461818 227.459228 
L 195.578182 227.87965 
L 203.694545 222.945572 
L 211.810909 227.088615 
L 219.927273 225.431988 
L 228.043636 225.334837 
L 236.16 225.329867 
L 244.276364 225.328012 
L 252.392727 225.326464 
L 260.509091 225.325111 
L 268.625455 225.323922 
L 276.741818 225.32287 
L 284.858182 225.321935 
L 292.974545 225.321101 
L 301.090909 225.320353 
L 309.207273 225.31968 
L 317.323636 225.319073 
L 325.44 225.318522 
L 333.556364 225.318022 
L 341.672727 225.317566 
L 349.789091 225.317149 
L 357.905455 225.316767 
L 366.021818 225.316416 
L 374.138182 225.316092 
L 382.254545 225.315794 
L 390.370909 225.315518 
" clip-path="url(#p0e5fc53441)" style="fill: none; stroke: #ff0000; stroke-opacity: 0.1; stroke-width: 1.5; stroke-linecap: square"/>
   </g>
   <g id="line2d_55">
    <path d="M 73.832727 218.88 
L 81.949091 222.42816 
L 90.065455 225.039817 
L 98.181818 225.801004 
L 106.298182 226.534539 
L 114.414545 227.35331 
L 122.530909 228.202288 
L 130.647273 229.048544 
L 138.763636 229.876147 
L 146.88 230.677062 
L 154.996364 231.44715 
L 163.112727 222.008901 
L 171.229091 221.566223 
L 179.345455 229.12631 
L 187.461818 223.022054 
L 195.578182 228.559426 
L 203.694545 229.329051 
L 211.810909 226.609419 
L 219.927273 226.452217 
L 228.043636 226.4443 
L 236.16 226.441885 
L 244.276364 226.439931 
L 252.392727 226.438236 
L 260.509091 226.436753 
L 268.625455 226.435449 
L 276.741818 226.434296 
L 284.858182 226.433271 
L 292.974545 226.432357 
L 301.090909 226.431537 
L 309.207273 226.430799 
L 317.323636 226.430133 
L 325.44 226.429529 
L 333.556364 226.428981 
L 341.672727 226.428481 
L 349.789091 226.428024 
L 357.905455 226.427605 
L 366.021818 226.42722 
L 374.138182 226.426865 
L 382.254545 226.426538 
L 390.370909 226.426235 
" clip-path="url(#p0e5fc53441)" style="fill: none; stroke: #ff0000; stroke-opacity: 0.1; stroke-width: 1.5; stroke-linecap: square"/>
   </g>
   <g id="line2d_56">
    <path d="M 73.832727 218.88 
L 81.949091 186.94656 
L 90.065455 182.103792 
L 98.181818 180.496131 
L 106.298182 179.862099 
L 114.414545 178.441554 
L 122.530909 177.051888 
L 130.647273 176.247578 
L 138.763636 175.619218 
L 146.88 172.240806 
L 154.996364 175.448728 
L 163.112727 176.523442 
L 171.229091 174.980473 
L 179.345455 173.882944 
L 187.461818 175.1841 
L 195.578182 175.279064 
L 203.694545 175.622112 
L 211.810909 177.207427 
L 219.927273 178.125833 
L 228.043636 178.427999 
L 236.16 178.202349 
L 244.276364 178.451104 
L 252.392727 178.419077 
L 260.509091 178.383261 
L 268.625455 178.072169 
L 276.741818 178.030937 
L 284.858182 178.393137 
L 292.974545 178.367008 
L 301.090909 178.336257 
L 309.207273 178.306487 
L 317.323636 178.277754 
L 325.44 178.250027 
L 333.556364 178.22327 
L 341.672727 178.241888 
L 349.789091 178.227233 
L 357.905455 178.240973 
L 366.021818 178.230728 
L 374.138182 178.208089 
L 382.254545 178.186041 
L 390.370909 178.164739 
" clip-path="url(#p0e5fc53441)" style="fill: none; stroke: #1f77b4; stroke-width: 1.5; stroke-linecap: square"/>
   </g>
   <g id="line2d_57">
    <path d="M 73.832727 218.88 
L 81.949091 222.42816 
L 90.065455 225.039817 
L 98.181818 225.586736 
L 106.298182 225.723189 
L 114.414545 226.125501 
L 122.530909 226.59399 
L 130.647273 226.887148 
L 138.763636 227.067273 
L 146.88 228.205115 
L 154.996364 227.215448 
L 163.112727 226.814178 
L 171.229091 227.207052 
L 179.345455 227.620585 
L 187.461818 227.084285 
L 195.578182 227.061041 
L 203.694545 226.94164 
L 211.810909 226.409756 
L 219.927273 226.118741 
L 228.043636 226.02049 
L 236.16 226.084407 
L 244.276364 226.013394 
L 252.392727 226.018217 
L 260.509091 226.026368 
L 268.625455 226.121794 
L 276.741818 226.135227 
L 284.858182 226.027565 
L 292.974545 226.0308 
L 301.090909 226.037901 
L 309.207273 226.044902 
L 317.323636 226.05172 
L 325.44 226.058354 
L 333.556364 226.064804 
L 341.672727 226.074656 
L 349.789091 226.063954 
L 357.905455 226.073829 
L 366.021818 226.063107 
L 374.138182 226.068355 
L 382.254545 226.073648 
L 390.370909 226.07879 
" clip-path="url(#p0e5fc53441)" style="fill: none; stroke: #ff0000; stroke-width: 1.5; stroke-linecap: square"/>
   </g>
   <g id="patch_5">
    <path d="M 57.6 307.584 
L 57.6 41.472 
" style="fill: none; stroke: #000000; stroke-width: 0.8; stroke-linejoin: miter; stroke-linecap: square"/>
   </g>
   <g id="patch_6">
    <path d="M 414.72 307.584 
L 414.72 41.472 
" style="fill: none; stroke: #000000; stroke-width: 0.8; stroke-linejoin: miter; stroke-linecap: square"/>
   </g>
   <g id="patch_7">
    <path d="M 57.6 307.584 
L 414.72 307.584 
" style="fill: none; stroke: #000000; stroke-width: 0.8; stroke-linejoin: miter; stroke-linecap: square"/>
   </g>
   <g id="patch_8">
    <path d="M 57.6 41.472 
L 414.72 41.472 
" style="fill: none; stroke: #000000; stroke-width: 0.8; stroke-linejoin: miter; stroke-linecap: square"/>
   </g>
   <g id="text_18">
    <!-- biased_A -->
    <g transform="translate(209.27625 35.472) scale(0.12 -0.12)">
     <defs>
      <path id="DejaVuSans-62" d="M 3116 1747 
Q 3116 2381 2855 2742 
Q 2594 3103 2138 3103 
Q 1681 3103 1420 2742 
Q 1159 2381 1159 1747 
Q 1159 1113 1420 752 
Q 1681 391 2138 391 
Q 2594 391 2855 752 
Q 3116 1113 3116 1747 
z
M 1159 2969 
Q 1341 3281 1617 3432 
Q 1894 3584 2278 3584 
Q 2916 3584 3314 3078 
Q 3713 2572 3713 1747 
Q 3713 922 3314 415 
Q 2916 -91 2278 -91 
Q 1894 -91 1617 61 
Q 1341 213 1159 525 
L 1159 0 
L 581 0 
L 581 4863 
L 1159 4863 
L 1159 2969 
z
" transform="scale(0.015625)"/>
      <path id="DejaVuSans-69" d="M 603 3500 
L 1178 3500 
L 1178 0 
L 603 0 
L 603 3500 
z
M 603 4863 
L 1178 4863 
L 1178 4134 
L 603 4134 
L 603 4863 
z
" transform="scale(0.015625)"/>
      <path id="DejaVuSans-61" d="M 2194 1759 
Q 1497 1759 1228 1600 
Q 959 1441 959 1056 
Q 959 750 1161 570 
Q 1363 391 1709 391 
Q 2188 391 2477 730 
Q 2766 1069 2766 1631 
L 2766 1759 
L 2194 1759 
z
M 3341 1997 
L 3341 0 
L 2766 0 
L 2766 531 
Q 2569 213 2275 61 
Q 1981 -91 1556 -91 
Q 1019 -91 701 211 
Q 384 513 384 1019 
Q 384 1609 779 1909 
Q 1175 2209 1959 2209 
L 2766 2209 
L 2766 2266 
Q 2766 2663 2505 2880 
Q 2244 3097 1772 3097 
Q 1472 3097 1187 3025 
Q 903 2953 641 2809 
L 641 3341 
Q 956 3463 1253 3523 
Q 1550 3584 1831 3584 
Q 2591 3584 2966 3190 
Q 3341 2797 3341 1997 
z
" transform="scale(0.015625)"/>
      <path id="DejaVuSans-73" d="M 2834 3397 
L 2834 2853 
Q 2591 2978 2328 3040 
Q 2066 3103 1784 3103 
Q 1356 3103 1142 2972 
Q 928 2841 928 2578 
Q 928 2378 1081 2264 
Q 1234 2150 1697 2047 
L 1894 2003 
Q 2506 1872 2764 1633 
Q 3022 1394 3022 966 
Q 3022 478 2636 193 
Q 2250 -91 1575 -91 
Q 1294 -91 989 -36 
Q 684 19 347 128 
L 347 722 
Q 666 556 975 473 
Q 1284 391 1588 391 
Q 1994 391 2212 530 
Q 2431 669 2431 922 
Q 2431 1156 2273 1281 
Q 2116 1406 1581 1522 
L 1381 1569 
Q 847 1681 609 1914 
Q 372 2147 372 2553 
Q 372 3047 722 3315 
Q 1072 3584 1716 3584 
Q 2034 3584 2315 3537 
Q 2597 3491 2834 3397 
z
" transform="scale(0.015625)"/>
      <path id="DejaVuSans-64" d="M 2906 2969 
L 2906 4863 
L 3481 4863 
L 3481 0 
L 2906 0 
L 2906 525 
Q 2725 213 2448 61 
Q 2172 -91 1784 -91 
Q 1150 -91 751 415 
Q 353 922 353 1747 
Q 353 2572 751 3078 
Q 1150 3584 1784 3584 
Q 2172 3584 2448 3432 
Q 2725 3281 2906 2969 
z
M 947 1747 
Q 947 1113 1208 752 
Q 1469 391 1925 391 
Q 2381 391 2643 752 
Q 2906 1113 2906 1747 
Q 2906 2381 2643 2742 
Q 2381 3103 1925 3103 
Q 1469 3103 1208 2742 
Q 947 2381 947 1747 
z
" transform="scale(0.015625)"/>
      <path id="DejaVuSans-5f" d="M 3263 -1063 
L 3263 -1509 
L -63 -1509 
L -63 -1063 
L 3263 -1063 
z
" transform="scale(0.015625)"/>
      <path id="DejaVuSans-41" d="M 2188 4044 
L 1331 1722 
L 3047 1722 
L 2188 4044 
z
M 1831 4666 
L 2547 4666 
L 4325 0 
L 3669 0 
L 3244 1197 
L 1141 1197 
L 716 0 
L 50 0 
L 1831 4666 
z
" transform="scale(0.015625)"/>
     </defs>
     <use xlink:href="#DejaVuSans-62"/>
     <use xlink:href="#DejaVuSans-69" x="63.476562"/>
     <use xlink:href="#DejaVuSans-61" x="91.259766"/>
     <use xlink:href="#DejaVuSans-73" x="152.539062"/>
     <use xlink:href="#DejaVuSans-65" x="204.638672"/>
     <use xlink:href="#DejaVuSans-64" x="266.162109"/>
     <use xlink:href="#DejaVuSans-5f" x="329.638672"/>
     <use xlink:href="#DejaVuSans-41" x="379.638672"/>
    </g>
   </g>
   <g id="legend_1">
    <g id="patch_9">
     <path d="M 351.635625 78.82825 
L 407.72 78.82825 
Q 409.72 78.82825 409.72 76.82825 
L 409.72 48.472 
Q 409.72 46.472 407.72 46.472 
L 351.635625 46.472 
Q 349.635625 46.472 349.635625 48.472 
L 349.635625 76.82825 
Q 349.635625 78.82825 351.635625 78.82825 
z
" style="fill: #ffffff; opacity: 0.8; stroke: #cccccc; stroke-linejoin: miter"/>
    </g>
    <g id="line2d_58">
     <path d="M 353.635625 54.570437 
L 363.635625 54.570437 
L 373.635625 54.570437 
" style="fill: none; stroke: #1f77b4; stroke-width: 1.5; stroke-linecap: square"/>
    </g>
    <g id="text_19">
     <!-- coop -->
     <g transform="translate(381.635625 58.070437) scale(0.1 -0.1)">
      <use xlink:href="#DejaVuSans-63"/>
      <use xlink:href="#DejaVuSans-6f" x="54.980469"/>
      <use xlink:href="#DejaVuSans-6f" x="116.162109"/>
      <use xlink:href="#DejaVuSans-70" x="177.34375"/>
     </g>
    </g>
    <g id="line2d_59">
     <path d="M 353.635625 69.248562 
L 363.635625 69.248562 
L 373.635625 69.248562 
" style="fill: none; stroke: #ff0000; stroke-width: 1.5; stroke-linecap: square"/>
    </g>
    <g id="text_20">
     <!-- host -->
     <g transform="translate(381.635625 72.748562) scale(0.1 -0.1)">
      <defs>
       <path id="DejaVuSans-68" d="M 3513 2113 
L 3513 0 
L 2938 0 
L 2938 2094 
Q 2938 2591 2744 2837 
Q 2550 3084 2163 3084 
Q 1697 3084 1428 2787 
Q 1159 2491 1159 1978 
L 1159 0 
L 581 0 
L 581 4863 
L 1159 4863 
L 1159 2956 
Q 1366 3272 1645 3428 
Q 1925 3584 2291 3584 
Q 2894 3584 3203 3211 
Q 3513 2838 3513 2113 
z
" transform="scale(0.015625)"/>
      </defs>
      <use xlink:href="#DejaVuSans-68"/>
      <use xlink:href="#DejaVuSans-6f" x="63.378906"/>
      <use xlink:href="#DejaVuSans-73" x="124.560547"/>
      <use xlink:href="#DejaVuSans-74" x="176.660156"/>
     </g>
    </g>
   </g>
  </g>
 </g>
 <defs>
  <clipPath id="p0e5fc53441">
   <rect x="57.6" y="41.472" width="357.12" height="266.112"/>
  </clipPath>
 </defs>
</svg>
