<?xml version="1.0" encoding="utf-8" standalone="no"?>
<!DOCTYPE svg PUBLIC "-//W3C//DTD SVG 1.1//EN"
  "http://www.w3.org/Graphics/SVG/1.1/DTD/svg11.dtd">
<svg xmlns:xlink="http://www.w3.org/1999/xlink" width="460.8pt" height="345.6pt" viewBox="0 0 460.8 345.6" xmlns="http://www.w3.org/2000/svg" version="1.1">
 <metadata>
  <rdf:RDF xmlns:dc="http://purl.org/dc/elements/1.1/" xmlns:cc="http://creativecommons.org/ns#" xmlns:rdf="http://www.w3.org/1999/02/22-rdf-syntax-ns#">
   <cc:Work>
    <dc:type rdf:resource="http://purl.org/dc/dcmitype/StillImage"/>
    <dc:date>2024-06-19T11:02:14.536330</dc:date>
    <dc:format>image/svg+xml</dc:format>
    <dc:creator>
     <cc:Agent>
      <dc:title>Matplotlib v3.7.2, https://matplotlib.org/</dc:title>
     </cc:Agent>
    </dc:creator>
   </cc:Work>
  </rdf:RDF>
 </metadata>
 <defs>
  <style type="text/css">*{stroke-linejoin: round; stroke-linecap: butt}</style>
 </defs>
 <g id="figure_1">
  <g id="patch_1">
   <path d="M 0 345.6 
L 460.8 345.6 
L 460.8 0 
L 0 0 
z
" style="fill: #ffffff"/>
  </g>
  <g id="axes_1">
   <g id="patch_2">
    <path d="M 57.6 307.584 
L 414.72 307.584 
L 414.72 41.472 
L 57.6 41.472 
z
" style="fill: #ffffff"/>
   </g>
   <g id="patch_3">
    <path d="M 73.832727 307.584 
L 73.832727 41.472 
L 236.16 41.472 
L 236.16 307.584 
z
" clip-path="url(#p0c048b19af)" style="fill: #add8e6; opacity: 0.2"/>
   </g>
   <g id="patch_4">
    <path d="M 236.16 307.584 
L 236.16 41.472 
L 398.487273 41.472 
L 398.487273 307.584 
z
" clip-path="url(#p0c048b19af)" style="fill: #ff7f50; opacity: 0.2"/>
   </g>
   <g id="matplotlib.axis_1">
    <g id="xtick_1">
     <g id="line2d_1">
      <defs>
       <path id="m8182cda978" d="M 0 0 
L 0 3.5 
" style="stroke: #000000; stroke-width: 0.8"/>
      </defs>
      <g>
       <use xlink:href="#m8182cda978" x="73.832727" y="307.584" style="stroke: #000000; stroke-width: 0.8"/>
      </g>
     </g>
     <g id="text_1">
      <!-- 0 -->
      <g transform="translate(70.651477 322.182437) scale(0.1 -0.1)">
       <defs>
        <path id="DejaVuSans-30" d="M 2034 4250 
Q 1547 4250 1301 3770 
Q 1056 3291 1056 2328 
Q 1056 1369 1301 889 
Q 1547 409 2034 409 
Q 2525 409 2770 889 
Q 3016 1369 3016 2328 
Q 3016 3291 2770 3770 
Q 2525 4250 2034 4250 
z
M 2034 4750 
Q 2819 4750 3233 4129 
Q 3647 3509 3647 2328 
Q 3647 1150 3233 529 
Q 2819 -91 2034 -91 
Q 1250 -91 836 529 
Q 422 1150 422 2328 
Q 422 3509 836 4129 
Q 1250 4750 2034 4750 
z
" transform="scale(0.015625)"/>
       </defs>
       <use xlink:href="#DejaVuSans-30"/>
      </g>
     </g>
    </g>
    <g id="xtick_2">
     <g id="line2d_2">
      <g>
       <use xlink:href="#m8182cda978" x="114.414545" y="307.584" style="stroke: #000000; stroke-width: 0.8"/>
      </g>
     </g>
     <g id="text_2">
      <!-- 5 -->
      <g transform="translate(111.233295 322.182437) scale(0.1 -0.1)">
       <defs>
        <path id="DejaVuSans-35" d="M 691 4666 
L 3169 4666 
L 3169 4134 
L 1269 4134 
L 1269 2991 
Q 1406 3038 1543 3061 
Q 1681 3084 1819 3084 
Q 2600 3084 3056 2656 
Q 3513 2228 3513 1497 
Q 3513 744 3044 326 
Q 2575 -91 1722 -91 
Q 1428 -91 1123 -41 
Q 819 9 494 109 
L 494 744 
Q 775 591 1075 516 
Q 1375 441 1709 441 
Q 2250 441 2565 725 
Q 2881 1009 2881 1497 
Q 2881 1984 2565 2268 
Q 2250 2553 1709 2553 
Q 1456 2553 1204 2497 
Q 953 2441 691 2322 
L 691 4666 
z
" transform="scale(0.015625)"/>
       </defs>
       <use xlink:href="#DejaVuSans-35"/>
      </g>
     </g>
    </g>
    <g id="xtick_3">
     <g id="line2d_3">
      <g>
       <use xlink:href="#m8182cda978" x="154.996364" y="307.584" style="stroke: #000000; stroke-width: 0.8"/>
      </g>
     </g>
     <g id="text_3">
      <!-- 10 -->
      <g transform="translate(148.633864 322.182437) scale(0.1 -0.1)">
       <defs>
        <path id="DejaVuSans-31" d="M 794 531 
L 1825 531 
L 1825 4091 
L 703 3866 
L 703 4441 
L 1819 4666 
L 2450 4666 
L 2450 531 
L 3481 531 
L 3481 0 
L 794 0 
L 794 531 
z
" transform="scale(0.015625)"/>
       </defs>
       <use xlink:href="#DejaVuSans-31"/>
       <use xlink:href="#DejaVuSans-30" x="63.623047"/>
      </g>
     </g>
    </g>
    <g id="xtick_4">
     <g id="line2d_4">
      <g>
       <use xlink:href="#m8182cda978" x="195.578182" y="307.584" style="stroke: #000000; stroke-width: 0.8"/>
      </g>
     </g>
     <g id="text_4">
      <!-- 15 -->
      <g transform="translate(189.215682 322.182437) scale(0.1 -0.1)">
       <use xlink:href="#DejaVuSans-31"/>
       <use xlink:href="#DejaVuSans-35" x="63.623047"/>
      </g>
     </g>
    </g>
    <g id="xtick_5">
     <g id="line2d_5">
      <g>
       <use xlink:href="#m8182cda978" x="236.16" y="307.584" style="stroke: #000000; stroke-width: 0.8"/>
      </g>
     </g>
     <g id="text_5">
      <!-- 20 -->
      <g transform="translate(229.7975 322.182437) scale(0.1 -0.1)">
       <defs>
        <path id="DejaVuSans-32" d="M 1228 531 
L 3431 531 
L 3431 0 
L 469 0 
L 469 531 
Q 828 903 1448 1529 
Q 2069 2156 2228 2338 
Q 2531 2678 2651 2914 
Q 2772 3150 2772 3378 
Q 2772 3750 2511 3984 
Q 2250 4219 1831 4219 
Q 1534 4219 1204 4116 
Q 875 4013 500 3803 
L 500 4441 
Q 881 4594 1212 4672 
Q 1544 4750 1819 4750 
Q 2544 4750 2975 4387 
Q 3406 4025 3406 3419 
Q 3406 3131 3298 2873 
Q 3191 2616 2906 2266 
Q 2828 2175 2409 1742 
Q 1991 1309 1228 531 
z
" transform="scale(0.015625)"/>
       </defs>
       <use xlink:href="#DejaVuSans-32"/>
       <use xlink:href="#DejaVuSans-30" x="63.623047"/>
      </g>
     </g>
    </g>
    <g id="xtick_6">
     <g id="line2d_6">
      <g>
       <use xlink:href="#m8182cda978" x="276.741818" y="307.584" style="stroke: #000000; stroke-width: 0.8"/>
      </g>
     </g>
     <g id="text_6">
      <!-- 25 -->
      <g transform="translate(270.379318 322.182437) scale(0.1 -0.1)">
       <use xlink:href="#DejaVuSans-32"/>
       <use xlink:href="#DejaVuSans-35" x="63.623047"/>
      </g>
     </g>
    </g>
    <g id="xtick_7">
     <g id="line2d_7">
      <g>
       <use xlink:href="#m8182cda978" x="317.323636" y="307.584" style="stroke: #000000; stroke-width: 0.8"/>
      </g>
     </g>
     <g id="text_7">
      <!-- 30 -->
      <g transform="translate(310.961136 322.182437) scale(0.1 -0.1)">
       <defs>
        <path id="DejaVuSans-33" d="M 2597 2516 
Q 3050 2419 3304 2112 
Q 3559 1806 3559 1356 
Q 3559 666 3084 287 
Q 2609 -91 1734 -91 
Q 1441 -91 1130 -33 
Q 819 25 488 141 
L 488 750 
Q 750 597 1062 519 
Q 1375 441 1716 441 
Q 2309 441 2620 675 
Q 2931 909 2931 1356 
Q 2931 1769 2642 2001 
Q 2353 2234 1838 2234 
L 1294 2234 
L 1294 2753 
L 1863 2753 
Q 2328 2753 2575 2939 
Q 2822 3125 2822 3475 
Q 2822 3834 2567 4026 
Q 2313 4219 1838 4219 
Q 1578 4219 1281 4162 
Q 984 4106 628 3988 
L 628 4550 
Q 988 4650 1302 4700 
Q 1616 4750 1894 4750 
Q 2613 4750 3031 4423 
Q 3450 4097 3450 3541 
Q 3450 3153 3228 2886 
Q 3006 2619 2597 2516 
z
" transform="scale(0.015625)"/>
       </defs>
       <use xlink:href="#DejaVuSans-33"/>
       <use xlink:href="#DejaVuSans-30" x="63.623047"/>
      </g>
     </g>
    </g>
    <g id="xtick_8">
     <g id="line2d_8">
      <g>
       <use xlink:href="#m8182cda978" x="357.905455" y="307.584" style="stroke: #000000; stroke-width: 0.8"/>
      </g>
     </g>
     <g id="text_8">
      <!-- 35 -->
      <g transform="translate(351.542955 322.182437) scale(0.1 -0.1)">
       <use xlink:href="#DejaVuSans-33"/>
       <use xlink:href="#DejaVuSans-35" x="63.623047"/>
      </g>
     </g>
    </g>
    <g id="xtick_9">
     <g id="line2d_9">
      <g>
       <use xlink:href="#m8182cda978" x="398.487273" y="307.584" style="stroke: #000000; stroke-width: 0.8"/>
      </g>
     </g>
     <g id="text_9">
      <!-- 40 -->
      <g transform="translate(392.124773 322.182437) scale(0.1 -0.1)">
       <defs>
        <path id="DejaVuSans-34" d="M 2419 4116 
L 825 1625 
L 2419 1625 
L 2419 4116 
z
M 2253 4666 
L 3047 4666 
L 3047 1625 
L 3713 1625 
L 3713 1100 
L 3047 1100 
L 3047 0 
L 2419 0 
L 2419 1100 
L 313 1100 
L 313 1709 
L 2253 4666 
z
" transform="scale(0.015625)"/>
       </defs>
       <use xlink:href="#DejaVuSans-34"/>
       <use xlink:href="#DejaVuSans-30" x="63.623047"/>
      </g>
     </g>
    </g>
    <g id="text_10">
     <!-- t -->
     <g transform="translate(234.199844 335.860562) scale(0.1 -0.1)">
      <defs>
       <path id="DejaVuSans-74" d="M 1172 4494 
L 1172 3500 
L 2356 3500 
L 2356 3053 
L 1172 3053 
L 1172 1153 
Q 1172 725 1289 603 
Q 1406 481 1766 481 
L 2356 481 
L 2356 0 
L 1766 0 
Q 1100 0 847 248 
Q 594 497 594 1153 
L 594 3053 
L 172 3053 
L 172 3500 
L 594 3500 
L 594 4494 
L 1172 4494 
z
" transform="scale(0.015625)"/>
      </defs>
      <use xlink:href="#DejaVuSans-74"/>
     </g>
    </g>
   </g>
   <g id="matplotlib.axis_2">
    <g id="ytick_1">
     <g id="line2d_10">
      <defs>
       <path id="m074a3f081f" d="M 0 0 
L -3.5 0 
" style="stroke: #000000; stroke-width: 0.8"/>
      </defs>
      <g>
       <use xlink:href="#m074a3f081f" x="57.6" y="307.584" style="stroke: #000000; stroke-width: 0.8"/>
      </g>
     </g>
     <g id="text_11">
      <!-- 0.0 -->
      <g transform="translate(34.696875 311.383219) scale(0.1 -0.1)">
       <defs>
        <path id="DejaVuSans-2e" d="M 684 794 
L 1344 794 
L 1344 0 
L 684 0 
L 684 794 
z
" transform="scale(0.015625)"/>
       </defs>
       <use xlink:href="#DejaVuSans-30"/>
       <use xlink:href="#DejaVuSans-2e" x="63.623047"/>
       <use xlink:href="#DejaVuSans-30" x="95.410156"/>
      </g>
     </g>
    </g>
    <g id="ytick_2">
     <g id="line2d_11">
      <g>
       <use xlink:href="#m074a3f081f" x="57.6" y="254.3616" style="stroke: #000000; stroke-width: 0.8"/>
      </g>
     </g>
     <g id="text_12">
      <!-- 0.2 -->
      <g transform="translate(34.696875 258.160819) scale(0.1 -0.1)">
       <use xlink:href="#DejaVuSans-30"/>
       <use xlink:href="#DejaVuSans-2e" x="63.623047"/>
       <use xlink:href="#DejaVuSans-32" x="95.410156"/>
      </g>
     </g>
    </g>
    <g id="ytick_3">
     <g id="line2d_12">
      <g>
       <use xlink:href="#m074a3f081f" x="57.6" y="201.1392" style="stroke: #000000; stroke-width: 0.8"/>
      </g>
     </g>
     <g id="text_13">
      <!-- 0.4 -->
      <g transform="translate(34.696875 204.938419) scale(0.1 -0.1)">
       <use xlink:href="#DejaVuSans-30"/>
       <use xlink:href="#DejaVuSans-2e" x="63.623047"/>
       <use xlink:href="#DejaVuSans-34" x="95.410156"/>
      </g>
     </g>
    </g>
    <g id="ytick_4">
     <g id="line2d_13">
      <g>
       <use xlink:href="#m074a3f081f" x="57.6" y="147.9168" style="stroke: #000000; stroke-width: 0.8"/>
      </g>
     </g>
     <g id="text_14">
      <!-- 0.6 -->
      <g transform="translate(34.696875 151.716019) scale(0.1 -0.1)">
       <defs>
        <path id="DejaVuSans-36" d="M 2113 2584 
Q 1688 2584 1439 2293 
Q 1191 2003 1191 1497 
Q 1191 994 1439 701 
Q 1688 409 2113 409 
Q 2538 409 2786 701 
Q 3034 994 3034 1497 
Q 3034 2003 2786 2293 
Q 2538 2584 2113 2584 
z
M 3366 4563 
L 3366 3988 
Q 3128 4100 2886 4159 
Q 2644 4219 2406 4219 
Q 1781 4219 1451 3797 
Q 1122 3375 1075 2522 
Q 1259 2794 1537 2939 
Q 1816 3084 2150 3084 
Q 2853 3084 3261 2657 
Q 3669 2231 3669 1497 
Q 3669 778 3244 343 
Q 2819 -91 2113 -91 
Q 1303 -91 875 529 
Q 447 1150 447 2328 
Q 447 3434 972 4092 
Q 1497 4750 2381 4750 
Q 2619 4750 2861 4703 
Q 3103 4656 3366 4563 
z
" transform="scale(0.015625)"/>
       </defs>
       <use xlink:href="#DejaVuSans-30"/>
       <use xlink:href="#DejaVuSans-2e" x="63.623047"/>
       <use xlink:href="#DejaVuSans-36" x="95.410156"/>
      </g>
     </g>
    </g>
    <g id="ytick_5">
     <g id="line2d_14">
      <g>
       <use xlink:href="#m074a3f081f" x="57.6" y="94.6944" style="stroke: #000000; stroke-width: 0.8"/>
      </g>
     </g>
     <g id="text_15">
      <!-- 0.8 -->
      <g transform="translate(34.696875 98.493619) scale(0.1 -0.1)">
       <defs>
        <path id="DejaVuSans-38" d="M 2034 2216 
Q 1584 2216 1326 1975 
Q 1069 1734 1069 1313 
Q 1069 891 1326 650 
Q 1584 409 2034 409 
Q 2484 409 2743 651 
Q 3003 894 3003 1313 
Q 3003 1734 2745 1975 
Q 2488 2216 2034 2216 
z
M 1403 2484 
Q 997 2584 770 2862 
Q 544 3141 544 3541 
Q 544 4100 942 4425 
Q 1341 4750 2034 4750 
Q 2731 4750 3128 4425 
Q 3525 4100 3525 3541 
Q 3525 3141 3298 2862 
Q 3072 2584 2669 2484 
Q 3125 2378 3379 2068 
Q 3634 1759 3634 1313 
Q 3634 634 3220 271 
Q 2806 -91 2034 -91 
Q 1263 -91 848 271 
Q 434 634 434 1313 
Q 434 1759 690 2068 
Q 947 2378 1403 2484 
z
M 1172 3481 
Q 1172 3119 1398 2916 
Q 1625 2713 2034 2713 
Q 2441 2713 2670 2916 
Q 2900 3119 2900 3481 
Q 2900 3844 2670 4047 
Q 2441 4250 2034 4250 
Q 1625 4250 1398 4047 
Q 1172 3844 1172 3481 
z
" transform="scale(0.015625)"/>
       </defs>
       <use xlink:href="#DejaVuSans-30"/>
       <use xlink:href="#DejaVuSans-2e" x="63.623047"/>
       <use xlink:href="#DejaVuSans-38" x="95.410156"/>
      </g>
     </g>
    </g>
    <g id="ytick_6">
     <g id="line2d_15">
      <g>
       <use xlink:href="#m074a3f081f" x="57.6" y="41.472" style="stroke: #000000; stroke-width: 0.8"/>
      </g>
     </g>
     <g id="text_16">
      <!-- 1.0 -->
      <g transform="translate(34.696875 45.271219) scale(0.1 -0.1)">
       <use xlink:href="#DejaVuSans-31"/>
       <use xlink:href="#DejaVuSans-2e" x="63.623047"/>
       <use xlink:href="#DejaVuSans-30" x="95.410156"/>
      </g>
     </g>
    </g>
    <g id="text_17">
     <!-- p(context) -->
     <g transform="translate(28.617187 200.449875) rotate(-90) scale(0.1 -0.1)">
      <defs>
       <path id="DejaVuSans-70" d="M 1159 525 
L 1159 -1331 
L 581 -1331 
L 581 3500 
L 1159 3500 
L 1159 2969 
Q 1341 3281 1617 3432 
Q 1894 3584 2278 3584 
Q 2916 3584 3314 3078 
Q 3713 2572 3713 1747 
Q 3713 922 3314 415 
Q 2916 -91 2278 -91 
Q 1894 -91 1617 61 
Q 1341 213 1159 525 
z
M 3116 1747 
Q 3116 2381 2855 2742 
Q 2594 3103 2138 3103 
Q 1681 3103 1420 2742 
Q 1159 2381 1159 1747 
Q 1159 1113 1420 752 
Q 1681 391 2138 391 
Q 2594 391 2855 752 
Q 3116 1113 3116 1747 
z
" transform="scale(0.015625)"/>
       <path id="DejaVuSans-28" d="M 1984 4856 
Q 1566 4138 1362 3434 
Q 1159 2731 1159 2009 
Q 1159 1288 1364 580 
Q 1569 -128 1984 -844 
L 1484 -844 
Q 1016 -109 783 600 
Q 550 1309 550 2009 
Q 550 2706 781 3412 
Q 1013 4119 1484 4856 
L 1984 4856 
z
" transform="scale(0.015625)"/>
       <path id="DejaVuSans-63" d="M 3122 3366 
L 3122 2828 
Q 2878 2963 2633 3030 
Q 2388 3097 2138 3097 
Q 1578 3097 1268 2742 
Q 959 2388 959 1747 
Q 959 1106 1268 751 
Q 1578 397 2138 397 
Q 2388 397 2633 464 
Q 2878 531 3122 666 
L 3122 134 
Q 2881 22 2623 -34 
Q 2366 -91 2075 -91 
Q 1284 -91 818 406 
Q 353 903 353 1747 
Q 353 2603 823 3093 
Q 1294 3584 2113 3584 
Q 2378 3584 2631 3529 
Q 2884 3475 3122 3366 
z
" transform="scale(0.015625)"/>
       <path id="DejaVuSans-6f" d="M 1959 3097 
Q 1497 3097 1228 2736 
Q 959 2375 959 1747 
Q 959 1119 1226 758 
Q 1494 397 1959 397 
Q 2419 397 2687 759 
Q 2956 1122 2956 1747 
Q 2956 2369 2687 2733 
Q 2419 3097 1959 3097 
z
M 1959 3584 
Q 2709 3584 3137 3096 
Q 3566 2609 3566 1747 
Q 3566 888 3137 398 
Q 2709 -91 1959 -91 
Q 1206 -91 779 398 
Q 353 888 353 1747 
Q 353 2609 779 3096 
Q 1206 3584 1959 3584 
z
" transform="scale(0.015625)"/>
       <path id="DejaVuSans-6e" d="M 3513 2113 
L 3513 0 
L 2938 0 
L 2938 2094 
Q 2938 2591 2744 2837 
Q 2550 3084 2163 3084 
Q 1697 3084 1428 2787 
Q 1159 2491 1159 1978 
L 1159 0 
L 581 0 
L 581 3500 
L 1159 3500 
L 1159 2956 
Q 1366 3272 1645 3428 
Q 1925 3584 2291 3584 
Q 2894 3584 3203 3211 
Q 3513 2838 3513 2113 
z
" transform="scale(0.015625)"/>
       <path id="DejaVuSans-65" d="M 3597 1894 
L 3597 1613 
L 953 1613 
Q 991 1019 1311 708 
Q 1631 397 2203 397 
Q 2534 397 2845 478 
Q 3156 559 3463 722 
L 3463 178 
Q 3153 47 2828 -22 
Q 2503 -91 2169 -91 
Q 1331 -91 842 396 
Q 353 884 353 1716 
Q 353 2575 817 3079 
Q 1281 3584 2069 3584 
Q 2775 3584 3186 3129 
Q 3597 2675 3597 1894 
z
M 3022 2063 
Q 3016 2534 2758 2815 
Q 2500 3097 2075 3097 
Q 1594 3097 1305 2825 
Q 1016 2553 972 2059 
L 3022 2063 
z
" transform="scale(0.015625)"/>
       <path id="DejaVuSans-78" d="M 3513 3500 
L 2247 1797 
L 3578 0 
L 2900 0 
L 1881 1375 
L 863 0 
L 184 0 
L 1544 1831 
L 300 3500 
L 978 3500 
L 1906 2253 
L 2834 3500 
L 3513 3500 
z
" transform="scale(0.015625)"/>
       <path id="DejaVuSans-29" d="M 513 4856 
L 1013 4856 
Q 1481 4119 1714 3412 
Q 1947 2706 1947 2009 
Q 1947 1309 1714 600 
Q 1481 -109 1013 -844 
L 513 -844 
Q 928 -128 1133 580 
Q 1338 1288 1338 2009 
Q 1338 2731 1133 3434 
Q 928 4138 513 4856 
z
" transform="scale(0.015625)"/>
      </defs>
      <use xlink:href="#DejaVuSans-70"/>
      <use xlink:href="#DejaVuSans-28" x="63.476562"/>
      <use xlink:href="#DejaVuSans-63" x="102.490234"/>
      <use xlink:href="#DejaVuSans-6f" x="157.470703"/>
      <use xlink:href="#DejaVuSans-6e" x="218.652344"/>
      <use xlink:href="#DejaVuSans-74" x="282.03125"/>
      <use xlink:href="#DejaVuSans-65" x="321.240234"/>
      <use xlink:href="#DejaVuSans-78" x="381.013672"/>
      <use xlink:href="#DejaVuSans-74" x="440.193359"/>
      <use xlink:href="#DejaVuSans-29" x="479.402344"/>
     </g>
    </g>
   </g>
   <g id="line2d_16">
    <path d="M 73.832727 218.88 
L 81.949091 146.078309 
L 90.065455 303.474911 
L 98.181818 306.320911 
L 106.298182 306.761191 
L 114.414545 306.95657 
L 122.530909 196.336454 
L 130.647273 134.160887 
L 138.763636 298.782138 
L 146.88 305.335798 
L 154.996364 199.314685 
L 163.112727 299.324016 
L 171.229091 304.537866 
L 179.345455 305.307243 
L 187.461818 305.608878 
L 195.578182 288.223963 
L 203.694545 304.882488 
L 211.810909 288.098425 
L 219.927273 304.96148 
L 228.043636 288.778247 
L 236.16 281.863635 
L 244.276364 178.63022 
L 252.392727 130.841676 
L 260.509091 114.48966 
L 268.625455 105.903131 
L 276.741818 99.632465 
L 284.858182 94.529867 
L 292.974545 90.252162 
L 301.090909 86.621591 
L 309.207273 285.035094 
L 317.323636 164.440906 
L 325.44 108.013189 
L 333.556364 280.365953 
L 341.672727 169.848314 
L 349.789091 116.639766 
L 357.905455 101.514088 
L 366.021818 271.996063 
L 374.138182 169.504039 
L 382.254545 121.855141 
L 390.370909 107.465667 
" clip-path="url(#p0c048b19af)" style="fill: none; stroke: #add8e6; stroke-opacity: 0.3; stroke-width: 1.5; stroke-linecap: square"/>
   </g>
   <g id="line2d_17">
    <path d="M 73.832727 218.88 
L 81.949091 306.667093 
L 90.065455 307.207796 
L 98.181818 307.32727 
L 106.298182 307.386617 
L 114.414545 307.422926 
L 122.530909 307.447979 
L 130.647273 307.466453 
L 138.763636 307.480648 
L 146.88 300.612901 
L 154.996364 307.446654 
L 163.112727 300.759797 
L 171.229091 307.452939 
L 179.345455 301.118527 
L 187.461818 307.460551 
L 195.578182 301.44303 
L 203.694545 184.166095 
L 211.810909 305.706779 
L 219.927273 307.254945 
L 228.043636 300.013418 
L 236.16 296.998383 
L 244.276364 169.002132 
L 252.392727 117.725941 
L 260.509091 99.493594 
L 268.625455 89.322091 
L 276.741818 82.527634 
L 284.858182 77.608518 
L 292.974545 73.875423 
L 301.090909 70.945417 
L 309.207273 68.584313 
L 317.323636 66.640483 
L 325.44 293.634682 
L 333.556364 306.716299 
L 341.672727 295.788537 
L 349.789091 137.826158 
L 357.905455 77.477696 
L 366.021818 68.436634 
L 374.138182 66.208131 
L 382.254545 64.955963 
L 390.370909 63.931929 
" clip-path="url(#p0c048b19af)" style="fill: none; stroke: #add8e6; stroke-opacity: 0.3; stroke-width: 1.5; stroke-linecap: square"/>
   </g>
   <g id="line2d_18">
    <path d="M 73.832727 218.88 
L 81.949091 146.078309 
L 90.065455 303.474911 
L 98.181818 306.320911 
L 106.298182 186.622139 
L 114.414545 302.046077 
L 122.530909 305.535438 
L 130.647273 306.086765 
L 138.763636 306.347573 
L 146.88 203.802305 
L 154.996364 301.34623 
L 163.112727 198.439743 
L 171.229091 298.720029 
L 179.345455 303.941323 
L 187.461818 304.719179 
L 195.578182 285.880123 
L 203.694545 304.014155 
L 211.810909 286.053169 
L 219.927273 304.140105 
L 228.043636 286.807256 
L 236.16 280.765945 
L 244.276364 188.613939 
L 252.392727 146.681817 
L 260.509091 293.400764 
L 268.625455 202.440057 
L 276.741818 158.570032 
L 284.858182 142.667586 
L 292.974545 134.727406 
L 301.090909 128.959835 
L 309.207273 285.50675 
L 317.323636 194.204579 
L 325.44 153.043254 
L 333.556364 139.034703 
L 341.672727 133.083774 
L 349.789091 129.288234 
L 357.905455 126.159411 
L 366.021818 123.334881 
L 374.138182 120.720348 
L 382.254545 118.284136 
L 390.370909 116.009397 
" clip-path="url(#p0c048b19af)" style="fill: none; stroke: #add8e6; stroke-opacity: 0.3; stroke-width: 1.5; stroke-linecap: square"/>
   </g>
   <g id="line2d_19">
    <path d="M 73.832727 218.88 
L 81.949091 306.667093 
L 90.065455 187.709493 
L 98.181818 304.992452 
L 106.298182 306.555685 
L 114.414545 306.836229 
L 122.530909 306.983063 
L 130.647273 307.079014 
L 138.763636 307.148848 
L 146.88 307.202472 
L 154.996364 307.244963 
L 163.112727 297.203028 
L 171.229091 307.127622 
L 179.345455 297.347515 
L 187.461818 307.147531 
L 195.578182 297.837823 
L 203.694545 307.171772 
L 211.810909 298.287828 
L 219.927273 307.193178 
L 228.043636 298.68306 
L 236.16 295.306006 
L 244.276364 186.266773 
L 252.392727 130.696422 
L 260.509091 109.262504 
L 268.625455 97.285819 
L 276.741818 298.440995 
L 284.858182 184.327829 
L 292.974545 117.664191 
L 301.090909 100.0072 
L 309.207273 93.331738 
L 317.323636 89.086048 
L 325.44 85.727307 
L 333.556364 82.908052 
L 341.672727 80.494173 
L 349.789091 78.403647 
L 357.905455 76.576575 
L 366.021818 74.966921 
L 374.138182 73.538584 
L 382.254545 72.262884 
L 390.370909 71.116782 
" clip-path="url(#p0c048b19af)" style="fill: none; stroke: #add8e6; stroke-opacity: 0.3; stroke-width: 1.5; stroke-linecap: square"/>
   </g>
   <g id="line2d_20">
    <path d="M 73.832727 218.88 
L 81.949091 306.667093 
L 90.065455 307.207796 
L 98.181818 307.32727 
L 106.298182 307.386617 
L 114.414545 307.422926 
L 122.530909 307.447979 
L 130.647273 307.466453 
L 138.763636 307.480648 
L 146.88 300.612901 
L 154.996364 307.446654 
L 163.112727 300.759797 
L 171.229091 307.452939 
L 179.345455 301.118527 
L 187.461818 182.127453 
L 195.578182 128.887223 
L 203.694545 303.529197 
L 211.810909 307.054425 
L 219.927273 298.651386 
L 228.043636 307.156349 
L 236.16 299.527961 
L 244.276364 307.187428 
L 252.392727 299.852529 
L 260.509091 295.589286 
L 268.625455 307.126433 
L 276.741818 299.713104 
L 284.858182 295.664053 
L 292.974545 166.436222 
L 301.090909 302.388418 
L 309.207273 182.259682 
L 317.323636 121.708755 
L 325.44 295.458852 
L 333.556364 305.68253 
L 341.672727 295.712914 
L 349.789091 290.1562 
L 357.905455 287.247168 
L 366.021818 285.728677 
L 374.138182 284.910769 
L 382.254545 284.44028 
L 390.370909 284.141899 
" clip-path="url(#p0c048b19af)" style="fill: none; stroke: #add8e6; stroke-opacity: 0.3; stroke-width: 1.5; stroke-linecap: square"/>
   </g>
   <g id="line2d_21">
    <path d="M 73.832727 218.88 
L 81.949091 146.078309 
L 90.065455 303.474911 
L 98.181818 306.320911 
L 106.298182 186.622139 
L 114.414545 302.046077 
L 122.530909 305.535438 
L 130.647273 306.086765 
L 138.763636 306.347573 
L 146.88 306.51758 
L 154.996364 205.005142 
L 163.112727 301.648898 
L 171.229091 305.466614 
L 179.345455 288.617694 
L 187.461818 177.727453 
L 195.578182 298.398175 
L 203.694545 304.54561 
L 211.810909 286.954936 
L 219.927273 304.392587 
L 228.043636 287.672331 
L 236.16 281.323094 
L 244.276364 175.398927 
L 252.392727 129.904998 
L 260.509091 113.86728 
L 268.625455 104.872054 
L 276.741818 287.077325 
L 284.858182 302.493147 
L 292.974545 281.199554 
L 301.090909 165.112949 
L 309.207273 289.620535 
L 317.323636 272.165804 
L 325.44 158.938882 
L 333.556364 285.947416 
L 341.672727 269.351576 
L 349.789091 263.570091 
L 357.905455 154.715459 
L 366.021818 115.611187 
L 374.138182 104.783392 
L 382.254545 99.732842 
L 390.370909 273.295813 
" clip-path="url(#p0c048b19af)" style="fill: none; stroke: #add8e6; stroke-opacity: 0.3; stroke-width: 1.5; stroke-linecap: square"/>
   </g>
   <g id="line2d_22">
    <path d="M 73.832727 218.88 
L 81.949091 146.078309 
L 90.065455 303.474911 
L 98.181818 306.320911 
L 106.298182 306.761191 
L 114.414545 192.663856 
L 122.530909 302.701332 
L 130.647273 305.880623 
L 138.763636 200.282358 
L 146.88 301.016734 
L 154.996364 305.005354 
L 163.112727 206.085649 
L 171.229091 299.442745 
L 179.345455 203.530233 
L 187.461818 158.203783 
L 195.578182 141.142007 
L 203.694545 289.961808 
L 211.810909 300.669321 
L 219.927273 302.145996 
L 228.043636 302.710557 
L 236.16 278.717874 
L 244.276364 182.336048 
L 252.392727 141.27095 
L 260.509091 286.683094 
L 268.625455 191.325554 
L 276.741818 150.831941 
L 284.858182 282.566476 
L 292.974545 194.688114 
L 301.090909 158.842576 
L 309.207273 146.63252 
L 317.323636 141.07336 
L 325.44 137.2627 
L 333.556364 134.00246 
L 341.672727 275.869147 
L 349.789091 293.071684 
L 357.905455 197.333558 
L 366.021818 156.763574 
L 374.138182 143.708681 
L 382.254545 138.739777 
L 390.370909 135.887975 
" clip-path="url(#p0c048b19af)" style="fill: none; stroke: #add8e6; stroke-opacity: 0.3; stroke-width: 1.5; stroke-linecap: square"/>
   </g>
   <g id="line2d_23">
    <path d="M 73.832727 218.88 
L 81.949091 306.667093 
L 90.065455 307.207796 
L 98.181818 307.32727 
L 106.298182 200.85883 
L 114.414545 305.738446 
L 122.530909 306.921282 
L 130.647273 307.087727 
L 138.763636 307.168333 
L 146.88 210.996793 
L 154.996364 149.927079 
L 163.112727 302.231177 
L 171.229091 306.144282 
L 179.345455 306.533184 
L 187.461818 291.380427 
L 195.578182 306.255728 
L 203.694545 291.667442 
L 211.810909 184.777445 
L 219.927273 301.745599 
L 228.043636 286.026116 
L 236.16 281.80954 
L 244.276364 178.763124 
L 252.392727 299.414847 
L 260.509091 283.387923 
L 268.625455 178.593975 
L 276.741818 297.157541 
L 284.858182 281.183251 
L 292.974545 276.90862 
L 301.090909 275.561843 
L 309.207273 302.929565 
L 317.323636 284.507538 
L 325.44 278.547722 
L 333.556364 276.617168 
L 341.672727 275.963741 
L 349.789091 275.708436 
L 357.905455 275.577491 
L 366.021818 275.487457 
L 374.138182 275.413203 
L 382.254545 275.34706 
L 390.370909 275.286499 
" clip-path="url(#p0c048b19af)" style="fill: none; stroke: #add8e6; stroke-opacity: 0.3; stroke-width: 1.5; stroke-linecap: square"/>
   </g>
   <g id="line2d_24">
    <path d="M 73.832727 218.88 
L 81.949091 306.667093 
L 90.065455 307.207796 
L 98.181818 307.32727 
L 106.298182 307.386617 
L 114.414545 307.422926 
L 122.530909 307.447979 
L 130.647273 307.466453 
L 138.763636 307.480648 
L 146.88 300.612901 
L 154.996364 307.446654 
L 163.112727 300.759797 
L 171.229091 307.452939 
L 179.345455 301.118527 
L 187.461818 307.460551 
L 195.578182 301.44303 
L 203.694545 307.467224 
L 211.810909 301.724432 
L 219.927273 307.473006 
L 228.043636 301.970525 
L 236.16 299.754787 
L 244.276364 307.463915 
L 252.392727 301.988918 
L 260.509091 299.901103 
L 268.625455 184.914247 
L 276.741818 129.78377 
L 284.858182 107.196495 
L 292.974545 94.423057 
L 301.090909 86.197218 
L 309.207273 80.471883 
L 317.323636 76.259645 
L 325.44 73.02867 
L 333.556364 70.46899 
L 341.672727 68.388486 
L 349.789091 66.662004 
L 357.905455 65.204597 
L 366.021818 297.930979 
L 374.138182 146.669923 
L 382.254545 80.336536 
L 390.370909 69.840574 
" clip-path="url(#p0c048b19af)" style="fill: none; stroke: #add8e6; stroke-opacity: 0.3; stroke-width: 1.5; stroke-linecap: square"/>
   </g>
   <g id="line2d_25">
    <path d="M 73.832727 218.88 
L 81.949091 306.667093 
L 90.065455 187.709493 
L 98.181818 304.992452 
L 106.298182 306.555685 
L 114.414545 306.836229 
L 122.530909 207.317817 
L 130.647273 304.195063 
L 138.763636 306.186716 
L 146.88 306.486675 
L 154.996364 306.640773 
L 163.112727 306.748762 
L 171.229091 306.833792 
L 179.345455 293.78452 
L 187.461818 306.602976 
L 195.578182 293.96965 
L 203.694545 306.643766 
L 211.810909 294.560212 
L 219.927273 191.068115 
L 228.043636 303.248792 
L 236.16 289.973813 
L 244.276364 182.586438 
L 252.392727 132.40778 
L 260.509091 113.829422 
L 268.625455 103.248171 
L 276.741818 293.249996 
L 284.858182 182.414195 
L 292.974545 295.485809 
L 301.090909 278.730973 
L 309.207273 171.592659 
L 317.323636 122.268165 
L 325.44 107.8244 
L 333.556364 101.560994 
L 341.672727 97.233279 
L 349.789091 281.280316 
L 357.905455 171.04911 
L 366.021818 119.039558 
L 374.138182 104.651499 
L 382.254545 99.656768 
L 390.370909 96.704911 
" clip-path="url(#p0c048b19af)" style="fill: none; stroke: #add8e6; stroke-opacity: 0.3; stroke-width: 1.5; stroke-linecap: square"/>
   </g>
   <g id="line2d_26">
    <path d="M 73.832727 218.88 
L 81.949091 146.078309 
L 90.065455 303.474911 
L 98.181818 176.172355 
L 106.298182 300.868419 
L 114.414545 186.201538 
L 122.530909 297.905468 
L 130.647273 303.34166 
L 138.763636 304.367803 
L 146.88 304.889039 
L 154.996364 305.245467 
L 163.112727 305.518169 
L 171.229091 305.736738 
L 179.345455 305.916111 
L 187.461818 290.107852 
L 195.578182 305.293923 
L 203.694545 290.06083 
L 211.810909 305.373176 
L 219.927273 290.730702 
L 228.043636 305.479753 
L 236.16 291.369771 
L 244.276364 183.5751 
L 252.392727 130.785972 
L 260.509091 113.070697 
L 268.625455 103.743058 
L 276.741818 97.030645 
L 284.858182 91.695373 
L 292.974545 87.322322 
L 301.090909 83.681686 
L 309.207273 285.852555 
L 317.323636 161.74912 
L 325.44 103.358997 
L 333.556364 89.761773 
L 341.672727 85.569985 
L 349.789091 83.136915 
L 357.905455 81.168015 
L 366.021818 277.335093 
L 374.138182 302.605089 
L 382.254545 305.153552 
L 390.370909 281.762849 
" clip-path="url(#p0c048b19af)" style="fill: none; stroke: #add8e6; stroke-opacity: 0.3; stroke-width: 1.5; stroke-linecap: square"/>
   </g>
   <g id="line2d_27">
    <path d="M 73.832727 218.88 
L 81.949091 306.667093 
L 90.065455 307.207796 
L 98.181818 307.32727 
L 106.298182 307.386617 
L 114.414545 307.422926 
L 122.530909 307.447979 
L 130.647273 307.466453 
L 138.763636 209.142674 
L 146.88 143.842394 
L 154.996364 303.894724 
L 163.112727 194.269624 
L 171.229091 137.423883 
L 179.345455 299.278863 
L 187.461818 305.733432 
L 195.578182 289.548127 
L 203.694545 180.313746 
L 211.810909 299.077053 
L 219.927273 305.166874 
L 228.043636 288.363014 
L 236.16 280.828965 
L 244.276364 174.41002 
L 252.392727 296.428029 
L 260.509091 279.799562 
L 268.625455 172.79356 
L 276.741818 293.672041 
L 284.858182 277.271924 
L 292.974545 272.533925 
L 301.090909 168.186687 
L 309.207273 129.410485 
L 317.323636 285.413106 
L 325.44 270.489775 
L 333.556364 266.430238 
L 341.672727 164.996871 
L 349.789091 286.352252 
L 357.905455 269.981637 
L 366.021818 265.062706 
L 374.138182 263.309199 
L 382.254545 262.611206 
L 390.370909 262.292385 
" clip-path="url(#p0c048b19af)" style="fill: none; stroke: #add8e6; stroke-opacity: 0.3; stroke-width: 1.5; stroke-linecap: square"/>
   </g>
   <g id="line2d_28">
    <path d="M 73.832727 218.88 
L 81.949091 306.667093 
L 90.065455 307.207796 
L 98.181818 307.32727 
L 106.298182 307.386617 
L 114.414545 307.422926 
L 122.530909 307.447979 
L 130.647273 307.466453 
L 138.763636 307.480648 
L 146.88 300.612901 
L 154.996364 177.561463 
L 163.112727 305.367104 
L 171.229091 307.165136 
L 179.345455 298.462757 
L 187.461818 307.224583 
L 195.578182 299.333842 
L 203.694545 307.252201 
L 211.810909 299.732035 
L 219.927273 307.269102 
L 228.043636 300.052825 
L 236.16 296.72999 
L 244.276364 176.4532 
L 252.392727 121.533809 
L 260.509091 300.907809 
L 268.625455 184.281447 
L 276.741818 123.406354 
L 284.858182 295.100147 
L 292.974545 186.164296 
L 301.090909 128.899134 
L 309.207273 112.830726 
L 317.323636 105.891968 
L 325.44 101.074316 
L 333.556364 97.123335 
L 341.672727 283.80149 
L 349.789091 169.039358 
L 357.905455 115.718416 
L 366.021818 279.28507 
L 374.138182 174.835164 
L 382.254545 123.9396 
L 390.370909 110.082387 
" clip-path="url(#p0c048b19af)" style="fill: none; stroke: #add8e6; stroke-opacity: 0.3; stroke-width: 1.5; stroke-linecap: square"/>
   </g>
   <g id="line2d_29">
    <path d="M 73.832727 218.88 
L 81.949091 306.667093 
L 90.065455 307.207796 
L 98.181818 307.32727 
L 106.298182 307.386617 
L 114.414545 307.422926 
L 122.530909 307.447979 
L 130.647273 307.466453 
L 138.763636 307.480648 
L 146.88 300.612901 
L 154.996364 307.446654 
L 163.112727 300.759797 
L 171.229091 307.452939 
L 179.345455 301.118527 
L 187.461818 307.460551 
L 195.578182 301.44303 
L 203.694545 184.166095 
L 211.810909 305.706779 
L 219.927273 307.254945 
L 228.043636 300.013418 
L 236.16 296.998383 
L 244.276364 169.002132 
L 252.392727 117.725941 
L 260.509091 99.493594 
L 268.625455 298.913869 
L 276.741818 169.294961 
L 284.858182 110.000433 
L 292.974545 95.88746 
L 301.090909 89.804034 
L 309.207273 85.630533 
L 317.323636 82.303751 
L 325.44 287.341612 
L 333.556364 305.376742 
L 341.672727 292.918144 
L 349.789091 155.939005 
L 357.905455 93.957665 
L 366.021818 280.771907 
L 374.138182 303.975962 
L 382.254545 290.37495 
L 390.370909 279.731873 
" clip-path="url(#p0c048b19af)" style="fill: none; stroke: #add8e6; stroke-opacity: 0.3; stroke-width: 1.5; stroke-linecap: square"/>
   </g>
   <g id="line2d_30">
    <path d="M 73.832727 218.88 
L 81.949091 146.078309 
L 90.065455 303.474911 
L 98.181818 306.320911 
L 106.298182 306.761191 
L 114.414545 306.95657 
L 122.530909 307.071104 
L 130.647273 307.149272 
L 138.763636 307.206947 
L 146.88 201.677256 
L 154.996364 303.724391 
L 163.112727 306.529714 
L 171.229091 293.896809 
L 179.345455 306.530399 
L 187.461818 294.750543 
L 195.578182 306.596824 
L 203.694545 295.344445 
L 211.810909 306.64822 
L 219.927273 295.851919 
L 228.043636 291.148766 
L 236.16 289.126218 
L 244.276364 177.331288 
L 252.392727 124.884042 
L 260.509091 106.467047 
L 268.625455 96.369923 
L 276.741818 293.669483 
L 284.858182 177.793567 
L 292.974545 116.597277 
L 301.090909 99.983744 
L 309.207273 285.499586 
L 317.323636 176.638517 
L 325.44 120.637321 
L 333.556364 104.800163 
L 341.672727 278.251978 
L 349.789091 177.079687 
L 357.905455 285.928112 
L 366.021818 192.713997 
L 374.138182 138.654767 
L 382.254545 274.326025 
L 390.370909 188.972205 
" clip-path="url(#p0c048b19af)" style="fill: none; stroke: #add8e6; stroke-opacity: 0.3; stroke-width: 1.5; stroke-linecap: square"/>
   </g>
   <g id="line2d_31">
    <path d="M 73.832727 218.88 
L 81.949091 306.667093 
L 90.065455 307.207796 
L 98.181818 307.32727 
L 106.298182 307.386617 
L 114.414545 307.422926 
L 122.530909 206.456516 
L 130.647273 145.716863 
L 138.763636 303.816835 
L 146.88 306.722707 
L 154.996364 307.005824 
L 163.112727 307.102701 
L 171.229091 295.201897 
L 179.345455 306.926861 
L 187.461818 295.325312 
L 195.578182 306.952608 
L 203.694545 295.875443 
L 211.810909 306.985881 
L 219.927273 296.3884 
L 228.043636 307.015605 
L 236.16 296.842039 
L 244.276364 186.054674 
L 252.392727 127.036665 
L 260.509091 107.24033 
L 268.625455 96.95675 
L 276.741818 89.934111 
L 284.858182 84.653208 
L 292.974545 80.517178 
L 301.090909 77.193798 
L 309.207273 74.469016 
L 317.323636 293.329955 
L 325.44 159.867121 
L 333.556364 93.643544 
L 341.672727 80.143045 
L 349.789091 76.608396 
L 357.905455 74.728258 
L 366.021818 73.237261 
L 374.138182 71.930722 
L 382.254545 284.588538 
L 390.370909 151.977359 
" clip-path="url(#p0c048b19af)" style="fill: none; stroke: #add8e6; stroke-opacity: 0.3; stroke-width: 1.5; stroke-linecap: square"/>
   </g>
   <g id="line2d_32">
    <path d="M 73.832727 218.88 
L 81.949091 306.667093 
L 90.065455 307.207796 
L 98.181818 307.32727 
L 106.298182 200.85883 
L 114.414545 305.738446 
L 122.530909 306.921282 
L 130.647273 307.087727 
L 138.763636 307.168333 
L 146.88 307.22167 
L 154.996364 211.778468 
L 163.112727 305.139858 
L 171.229091 306.759678 
L 179.345455 293.725593 
L 187.461818 306.705098 
L 195.578182 294.396775 
L 203.694545 306.753589 
L 211.810909 294.992601 
L 219.927273 291.0294 
L 228.043636 306.717892 
L 236.16 295.146088 
L 244.276364 291.457436 
L 252.392727 188.713332 
L 260.509091 137.721651 
L 268.625455 116.770237 
L 276.741818 299.023464 
L 284.858182 196.480521 
L 292.974545 136.808736 
L 301.090909 116.776328 
L 309.207273 107.716161 
L 317.323636 101.604833 
L 325.44 96.712007 
L 333.556364 92.596926 
L 341.672727 288.973003 
L 349.789091 178.119082 
L 357.905455 118.539789 
L 366.021818 101.358508 
L 374.138182 95.724795 
L 382.254545 281.914846 
L 390.370909 176.625409 
" clip-path="url(#p0c048b19af)" style="fill: none; stroke: #add8e6; stroke-opacity: 0.3; stroke-width: 1.5; stroke-linecap: square"/>
   </g>
   <g id="line2d_33">
    <path d="M 73.832727 218.88 
L 81.949091 306.667093 
L 90.065455 307.207796 
L 98.181818 307.32727 
L 106.298182 307.386617 
L 114.414545 307.422926 
L 122.530909 307.447979 
L 130.647273 307.466453 
L 138.763636 307.480648 
L 146.88 300.612901 
L 154.996364 307.446654 
L 163.112727 300.759797 
L 171.229091 307.452939 
L 179.345455 301.118527 
L 187.461818 307.460551 
L 195.578182 301.44303 
L 203.694545 307.467224 
L 211.810909 301.724432 
L 219.927273 185.998453 
L 228.043636 305.796567 
L 236.16 296.207287 
L 244.276364 174.843612 
L 252.392727 121.587734 
L 260.509091 102.543833 
L 268.625455 91.862618 
L 276.741818 84.679269 
L 284.858182 79.464441 
L 292.974545 75.504643 
L 301.090909 72.397853 
L 309.207273 69.896232 
L 317.323636 67.838637 
L 325.44 66.116059 
L 333.556364 64.652293 
L 341.672727 63.392547 
L 349.789091 62.296451 
L 357.905455 61.333622 
L 366.021818 293.62153 
L 374.138182 133.653952 
L 382.254545 296.211523 
L 390.370909 306.622416 
" clip-path="url(#p0c048b19af)" style="fill: none; stroke: #add8e6; stroke-opacity: 0.3; stroke-width: 1.5; stroke-linecap: square"/>
   </g>
   <g id="line2d_34">
    <path d="M 73.832727 218.88 
L 81.949091 306.667093 
L 90.065455 187.709493 
L 98.181818 304.992452 
L 106.298182 306.555685 
L 114.414545 306.836229 
L 122.530909 306.983063 
L 130.647273 307.079014 
L 138.763636 307.148848 
L 146.88 307.202472 
L 154.996364 307.244963 
L 163.112727 297.203028 
L 171.229091 307.127622 
L 179.345455 297.347515 
L 187.461818 307.147531 
L 195.578182 297.837823 
L 203.694545 186.778088 
L 211.810909 304.368827 
L 219.927273 306.850153 
L 228.043636 296.485542 
L 236.16 292.251242 
L 244.276364 306.753457 
L 252.392727 296.62886 
L 260.509091 292.61986 
L 268.625455 174.998427 
L 276.741818 122.409222 
L 284.858182 299.067009 
L 292.974545 287.977869 
L 301.090909 166.696164 
L 309.207273 115.970375 
L 317.323636 101.627736 
L 325.44 94.384079 
L 333.556364 89.163144 
L 341.672727 84.992251 
L 349.789091 81.554075 
L 357.905455 78.672885 
L 366.021818 76.227469 
L 374.138182 74.128786 
L 382.254545 72.309823 
L 390.370909 70.719325 
" clip-path="url(#p0c048b19af)" style="fill: none; stroke: #add8e6; stroke-opacity: 0.3; stroke-width: 1.5; stroke-linecap: square"/>
   </g>
   <g id="line2d_35">
    <path d="M 73.832727 218.88 
L 81.949091 306.667093 
L 90.065455 307.207796 
L 98.181818 307.32727 
L 106.298182 307.386617 
L 114.414545 307.422926 
L 122.530909 307.447979 
L 130.647273 307.466453 
L 138.763636 307.480648 
L 146.88 300.612901 
L 154.996364 307.446654 
L 163.112727 300.759797 
L 171.229091 307.452939 
L 179.345455 301.118527 
L 187.461818 307.460551 
L 195.578182 301.44303 
L 203.694545 184.166095 
L 211.810909 305.706779 
L 219.927273 307.254945 
L 228.043636 300.013418 
L 236.16 296.998383 
L 244.276364 169.002132 
L 252.392727 117.725941 
L 260.509091 99.493594 
L 268.625455 89.322091 
L 276.741818 82.527634 
L 284.858182 296.207502 
L 292.974545 156.325457 
L 301.090909 296.124448 
L 309.207273 167.562844 
L 317.323636 103.904787 
L 325.44 90.398088 
L 333.556364 85.824706 
L 341.672727 82.895167 
L 349.789091 80.504157 
L 357.905455 78.441289 
L 366.021818 76.633242 
L 374.138182 75.035018 
L 382.254545 279.99185 
L 390.370909 141.209785 
" clip-path="url(#p0c048b19af)" style="fill: none; stroke: #add8e6; stroke-opacity: 0.3; stroke-width: 1.5; stroke-linecap: square"/>
   </g>
   <g id="line2d_36">
    <path d="M 73.832727 218.88 
L 81.949091 292.409854 
L 90.065455 102.567772 
L 98.181818 72.236311 
L 106.298182 63.039035 
L 114.414545 59.279376 
L 122.530909 234.910981 
L 130.647273 285.681486 
L 138.763636 107.460019 
L 146.88 74.379089 
L 154.996364 225.339443 
L 163.112727 101.674903 
L 171.229091 77.446055 
L 179.345455 71.001198 
L 187.461818 68.480306 
L 195.578182 103.150597 
L 203.694545 73.127756 
L 211.810909 104.109165 
L 219.927273 72.728034 
L 228.043636 102.997606 
L 236.16 114.927624 
L 244.276364 244.875257 
L 252.392727 278.211699 
L 260.509091 285.972407 
L 268.625455 289.466839 
L 276.741818 291.905506 
L 284.858182 293.822023 
L 292.974545 295.375158 
L 301.090909 296.651977 
L 309.207273 123.186551 
L 317.323636 248.443428 
L 325.44 285.079842 
L 333.556364 126.413204 
L 341.672727 240.976278 
L 349.789091 278.427519 
L 357.905455 287.422711 
L 366.021818 135.882977 
L 374.138182 238.520724 
L 382.254545 273.645643 
L 390.370909 283.032092 
" clip-path="url(#p0c048b19af)" style="fill: none; stroke: #ff0000; stroke-opacity: 0.1; stroke-width: 1.5; stroke-linecap: square"/>
   </g>
   <g id="line2d_37">
    <path d="M 73.832727 218.88 
L 81.949091 83.514878 
L 90.065455 63.452277 
L 98.181818 57.092606 
L 106.298182 54.349719 
L 114.414545 52.718705 
L 122.530909 51.552457 
L 130.647273 50.647048 
L 138.763636 49.915481 
L 146.88 70.189114 
L 154.996364 52.219097 
L 163.112727 70.669328 
L 171.229091 52.043035 
L 179.345455 69.873856 
L 187.461818 51.691549 
L 195.578182 69.056548 
L 203.694545 273.776831 
L 211.810909 85.53054 
L 219.927273 56.550826 
L 228.043636 73.744486 
L 236.16 81.375469 
L 244.276364 281.850645 
L 252.392727 302.882455 
L 260.509091 304.536566 
L 268.625455 305.300223 
L 276.741818 305.793207 
L 284.858182 306.128731 
L 292.974545 306.367591 
L 301.090909 306.544325 
L 309.207273 306.679359 
L 317.323636 306.78532 
L 325.44 111.388848 
L 333.556364 56.686515 
L 341.672727 78.557129 
L 349.789091 289.771481 
L 357.905455 306.284768 
L 366.021818 306.816358 
L 374.138182 306.91191 
L 382.254545 306.969859 
L 390.370909 307.017003 
" clip-path="url(#p0c048b19af)" style="fill: none; stroke: #ff0000; stroke-opacity: 0.1; stroke-width: 1.5; stroke-linecap: square"/>
   </g>
   <g id="line2d_38">
    <path d="M 73.832727 218.88 
L 81.949091 292.409854 
L 90.065455 102.567772 
L 98.181818 72.236311 
L 106.298182 243.589813 
L 114.414545 101.113625 
L 122.530909 77.31307 
L 130.647273 70.011371 
L 138.763636 66.74759 
L 146.88 224.202117 
L 154.996364 99.198648 
L 163.112727 227.95799 
L 171.229091 105.785791 
L 179.345455 83.518914 
L 187.461818 77.540171 
L 195.578182 112.037423 
L 203.694545 81.330886 
L 211.810909 112.445303 
L 219.927273 80.7761 
L 228.043636 111.287749 
L 236.16 121.509172 
L 244.276364 234.056258 
L 252.392727 264.521185 
L 260.509091 110.481539 
L 268.625455 217.983253 
L 276.741818 252.388555 
L 284.858182 262.590438 
L 292.974545 267.196219 
L 301.090909 270.407506 
L 309.207273 122.220958 
L 317.323636 219.167978 
L 325.44 251.850006 
L 333.556364 261.658922 
L 341.672727 265.458478 
L 349.789091 267.727298 
L 357.905455 269.538868 
L 366.021818 271.150009 
L 374.138182 272.627337 
L 382.254545 273.993261 
L 390.370909 275.25962 
" clip-path="url(#p0c048b19af)" style="fill: none; stroke: #ff0000; stroke-opacity: 0.1; stroke-width: 1.5; stroke-linecap: square"/>
   </g>
   <g id="line2d_39">
    <path d="M 73.832727 218.88 
L 81.949091 83.514878 
L 90.065455 246.855107 
L 98.181818 94.173817 
L 106.298182 72.911164 
L 114.414545 65.868773 
L 122.530909 62.574477 
L 130.647273 60.454981 
L 138.763636 58.843908 
L 146.88 57.535525 
L 154.996364 56.441792 
L 163.112727 83.743378 
L 171.229091 59.590484 
L 179.345455 84.205989 
L 187.461818 59.230545 
L 195.578182 83.11867 
L 203.694545 58.670431 
L 211.810909 82.026983 
L 219.927273 58.149495 
L 228.043636 81.028471 
L 236.16 89.590681 
L 244.276364 260.499257 
L 252.392727 292.590866 
L 260.509091 297.790508 
L 268.625455 300.196778 
L 276.741818 96.597442 
L 284.858182 250.160758 
L 292.974545 290.935107 
L 301.090909 297.225153 
L 309.207273 299.073088 
L 317.323636 300.186227 
L 325.44 301.0342 
L 333.556364 301.71811 
L 341.672727 302.281861 
L 349.789091 302.753286 
L 357.905455 303.152238 
L 366.021818 303.493431 
L 374.138182 303.78799 
L 382.254545 304.044452 
L 390.370909 304.26946 
" clip-path="url(#p0c048b19af)" style="fill: none; stroke: #ff0000; stroke-opacity: 0.1; stroke-width: 1.5; stroke-linecap: square"/>
   </g>
   <g id="line2d_40">
    <path d="M 73.832727 218.88 
L 81.949091 83.514878 
L 90.065455 63.452277 
L 98.181818 57.092606 
L 106.298182 54.349719 
L 114.414545 52.718705 
L 122.530909 51.552457 
L 130.647273 50.647048 
L 138.763636 49.915481 
L 146.88 70.189114 
L 154.996364 52.219097 
L 163.112727 70.669328 
L 171.229091 52.043035 
L 179.345455 69.873856 
L 187.461818 275.118114 
L 195.578182 302.023347 
L 203.694545 92.042788 
L 211.810909 57.132613 
L 219.927273 75.875254 
L 228.043636 53.520394 
L 236.16 73.363141 
L 244.276364 52.949807 
L 252.392727 72.510624 
L 260.509091 82.101969 
L 268.625455 53.835557 
L 276.741818 72.930485 
L 284.858182 81.879655 
L 292.974545 280.765504 
L 301.090909 90.308112 
L 309.207273 261.644708 
L 317.323636 296.611181 
L 325.44 104.813759 
L 333.556364 61.333771 
L 341.672727 81.145339 
L 349.789091 91.067768 
L 357.905455 96.09807 
L 366.021818 98.69413 
L 374.138182 100.084642 
L 382.254545 100.881013 
L 390.370909 101.383819 
" clip-path="url(#p0c048b19af)" style="fill: none; stroke: #ff0000; stroke-opacity: 0.1; stroke-width: 1.5; stroke-linecap: square"/>
   </g>
   <g id="line2d_41">
    <path d="M 73.832727 218.88 
L 81.949091 292.409854 
L 90.065455 102.567772 
L 98.181818 72.236311 
L 106.298182 243.589813 
L 114.414545 101.113625 
L 122.530909 77.31307 
L 130.647273 70.011371 
L 138.763636 66.74759 
L 146.88 64.655443 
L 154.996364 224.629584 
L 163.112727 97.625617 
L 171.229091 75.270107 
L 179.345455 106.200835 
L 187.461818 250.785437 
L 195.578182 104.45274 
L 203.694545 78.201801 
L 211.810909 109.313182 
L 219.927273 77.431954 
L 228.043636 108.046444 
L 236.16 119.025632 
L 244.276364 249.796546 
L 252.392727 279.530193 
L 260.509091 286.589963 
L 268.625455 290.08184 
L 276.741818 119.692242 
L 284.858182 81.214482 
L 292.974545 115.481472 
L 301.090909 254.415268 
L 309.207273 112.771741 
L 317.323636 129.316304 
L 325.44 258.707853 
L 333.556364 117.313202 
L 341.672727 132.775289 
L 349.789091 139.351167 
L 357.905455 261.400495 
L 366.021818 285.472573 
L 374.138182 290.38473 
L 382.254545 292.3881 
L 390.370909 134.448458 
" clip-path="url(#p0c048b19af)" style="fill: none; stroke: #ff0000; stroke-opacity: 0.1; stroke-width: 1.5; stroke-linecap: square"/>
   </g>
   <g id="line2d_42">
    <path d="M 73.832727 218.88 
L 81.949091 292.409854 
L 90.065455 102.567772 
L 98.181818 72.236311 
L 106.298182 63.039035 
L 114.414545 237.161353 
L 122.530909 97.317258 
L 130.647273 73.761099 
L 138.763636 225.688571 
L 146.88 100.760285 
L 154.996364 79.078405 
L 163.112727 215.324832 
L 171.229091 103.143347 
L 179.345455 216.343449 
L 187.461818 252.704686 
L 195.578182 263.246885 
L 203.694545 120.356729 
L 211.810909 93.090502 
L 219.927273 86.116285 
L 228.043636 83.328034 
L 236.16 121.446173 
L 244.276364 232.988432 
L 252.392727 264.096509 
L 260.509091 121.227473 
L 268.625455 223.699149 
L 276.741818 255.201901 
L 284.858182 125.921817 
L 292.974545 218.199927 
L 301.090909 247.306978 
L 309.207273 256.019452 
L 317.323636 259.632481 
L 325.44 261.974234 
L 333.556364 263.929081 
L 341.672727 134.940615 
L 349.789091 103.389576 
L 357.905455 210.565414 
L 366.021818 245.240129 
L 374.138182 255.235664 
L 382.254545 258.716464 
L 390.370909 260.560494 
" clip-path="url(#p0c048b19af)" style="fill: none; stroke: #ff0000; stroke-opacity: 0.1; stroke-width: 1.5; stroke-linecap: square"/>
   </g>
   <g id="line2d_43">
    <path d="M 73.832727 218.88 
L 81.949091 83.514878 
L 90.065455 63.452277 
L 98.181818 57.092606 
L 106.298182 226.357578 
L 114.414545 85.091125 
L 122.530909 66.090697 
L 130.647273 60.611286 
L 138.763636 58.360969 
L 146.88 213.337955 
L 154.996364 270.141886 
L 163.112727 96.058549 
L 171.229091 70.026848 
L 179.345455 63.766118 
L 187.461818 94.532598 
L 195.578182 66.544566 
L 203.694545 94.72392 
L 211.810909 240.114085 
L 219.927273 91.5495 
L 228.043636 107.679554 
L 236.16 113.314307 
L 244.276364 242.626714 
L 252.392727 95.078269 
L 260.509091 111.498108 
L 268.625455 242.574581 
L 276.741818 98.262505 
L 284.858182 114.546234 
L 292.974545 120.12338 
L 301.090909 122.113817 
L 309.207273 77.349934 
L 317.323636 107.633295 
L 325.44 117.287765 
L 333.556364 120.385913 
L 341.672727 121.426024 
L 349.789091 121.828241 
L 357.905455 122.031952 
L 366.021818 122.170553 
L 374.138182 122.284121 
L 382.254545 122.384869 
L 390.370909 122.47683 
" clip-path="url(#p0c048b19af)" style="fill: none; stroke: #ff0000; stroke-opacity: 0.1; stroke-width: 1.5; stroke-linecap: square"/>
   </g>
   <g id="line2d_44">
    <path d="M 73.832727 218.88 
L 81.949091 83.514878 
L 90.065455 63.452277 
L 98.181818 57.092606 
L 106.298182 54.349719 
L 114.414545 52.718705 
L 122.530909 51.552457 
L 130.647273 50.647048 
L 138.763636 49.915481 
L 146.88 70.189114 
L 154.996364 52.219097 
L 163.112727 70.669328 
L 171.229091 52.043035 
L 179.345455 69.873856 
L 187.461818 51.691549 
L 195.578182 69.056548 
L 203.694545 51.359476 
L 211.810909 68.310941 
L 219.927273 51.058166 
L 228.043636 67.633636 
L 236.16 74.666429 
L 244.276364 51.663133 
L 252.392727 67.833279 
L 260.509091 74.32356 
L 268.625455 273.866891 
L 276.741818 300.895907 
L 284.858182 303.441833 
L 292.974545 304.577829 
L 301.090909 305.284043 
L 309.207273 305.747663 
L 317.323636 306.067875 
L 325.44 306.299262 
L 333.556364 306.472865 
L 341.672727 306.607194 
L 349.789091 306.713812 
L 357.905455 306.800247 
L 366.021818 101.771576 
L 374.138182 278.541885 
L 382.254545 304.342778 
L 390.370909 305.899572 
" clip-path="url(#p0c048b19af)" style="fill: none; stroke: #ff0000; stroke-opacity: 0.1; stroke-width: 1.5; stroke-linecap: square"/>
   </g>
   <g id="line2d_45">
    <path d="M 73.832727 218.88 
L 81.949091 83.514878 
L 90.065455 246.855107 
L 98.181818 94.173817 
L 106.298182 72.911164 
L 114.414545 65.868773 
L 122.530909 218.182521 
L 130.647273 92.117937 
L 138.763636 74.325624 
L 146.88 68.960173 
L 154.996364 66.492213 
L 163.112727 64.829332 
L 171.229091 63.485062 
L 179.345455 94.526202 
L 187.461818 67.110477 
L 195.578182 94.941833 
L 203.694545 66.651112 
L 211.810909 93.773932 
L 219.927273 244.989609 
L 228.043636 89.783915 
L 236.16 104.887738 
L 244.276364 250.797218 
L 252.392727 282.873721 
L 260.509091 289.945591 
L 268.625455 293.446949 
L 276.741818 107.99814 
L 284.858182 242.805499 
L 292.974545 101.836459 
L 301.090909 118.426535 
L 309.207273 248.763837 
L 317.323636 282.090311 
L 325.44 289.137617 
L 333.556364 291.724887 
L 341.672727 293.402966 
L 349.789091 125.04325 
L 357.905455 244.859308 
L 366.021818 280.51207 
L 374.138182 288.526016 
L 382.254545 290.931738 
L 390.370909 292.223424 
" clip-path="url(#p0c048b19af)" style="fill: none; stroke: #ff0000; stroke-opacity: 0.1; stroke-width: 1.5; stroke-linecap: square"/>
   </g>
   <g id="line2d_46">
    <path d="M 73.832727 218.88 
L 81.949091 292.409854 
L 90.065455 102.567772 
L 98.181818 260.604279 
L 106.298182 107.982577 
L 114.414545 246.399166 
L 122.530909 113.655131 
L 130.647273 89.288207 
L 138.763636 81.285754 
L 146.88 77.31134 
L 154.996364 74.578119 
L 163.112727 72.388371 
L 171.229091 70.537334 
L 179.345455 68.940179 
L 187.461818 104.742383 
L 195.578182 73.503008 
L 203.694545 105.377954 
L 211.810909 72.914926 
L 219.927273 104.057545 
L 228.043636 72.070911 
L 236.16 102.723625 
L 244.276364 255.723681 
L 252.392727 286.77739 
L 260.509091 292.771346 
L 268.625455 295.530923 
L 276.741818 297.447611 
L 284.858182 298.902454 
L 292.974545 300.039074 
L 301.090909 300.943816 
L 309.207273 122.269548 
L 317.323636 260.886263 
L 325.44 292.840187 
L 333.556364 298.044258 
L 341.672727 299.37574 
L 349.789091 300.091871 
L 357.905455 300.651286 
L 366.021818 133.897097 
L 374.138182 75.695334 
L 382.254545 66.010596 
L 390.370909 110.702687 
" clip-path="url(#p0c048b19af)" style="fill: none; stroke: #ff0000; stroke-opacity: 0.1; stroke-width: 1.5; stroke-linecap: square"/>
   </g>
   <g id="line2d_47">
    <path d="M 73.832727 218.88 
L 81.949091 83.514878 
L 90.065455 63.452277 
L 98.181818 57.092606 
L 106.298182 54.349719 
L 114.414545 52.718705 
L 122.530909 51.552457 
L 130.647273 50.647048 
L 138.763636 224.813293 
L 146.88 286.600149 
L 154.996364 93.843443 
L 163.112727 240.512439 
L 171.229091 282.888785 
L 179.345455 103.007206 
L 187.461818 67.717261 
L 195.578182 95.379643 
L 203.694545 244.331961 
L 211.810909 96.731464 
L 219.927273 67.89541 
L 228.043636 97.600376 
L 236.16 110.859734 
L 244.276364 247.802388 
L 252.392727 100.02341 
L 260.509091 114.755486 
L 268.625455 249.62673 
L 276.741818 103.761106 
L 284.858182 118.375745 
L 292.974545 124.344229 
L 301.090909 253.24157 
L 309.207273 281.869967 
L 317.323636 116.97826 
L 325.44 127.587403 
L 333.556364 132.145694 
L 341.672727 255.134802 
L 349.789091 112.031111 
L 357.905455 127.597627 
L 366.021818 133.819075 
L 374.138182 136.275973 
L 382.254545 137.285348 
L 390.370909 137.749663 
" clip-path="url(#p0c048b19af)" style="fill: none; stroke: #ff0000; stroke-opacity: 0.1; stroke-width: 1.5; stroke-linecap: square"/>
   </g>
   <g id="line2d_48">
    <path d="M 73.832727 218.88 
L 81.949091 83.514878 
L 90.065455 63.452277 
L 98.181818 57.092606 
L 106.298182 54.349719 
L 114.414545 52.718705 
L 122.530909 51.552457 
L 130.647273 50.647048 
L 138.763636 49.915481 
L 146.88 70.189114 
L 154.996364 277.40348 
L 163.112727 90.465688 
L 171.229091 59.172649 
L 179.345455 78.487315 
L 187.461818 55.463813 
L 195.578182 75.825639 
L 203.694545 54.770596 
L 211.810909 74.816683 
L 219.927273 54.359186 
L 228.043636 74.005669 
L 236.16 82.659825 
L 244.276364 270.737269 
L 252.392727 299.390435 
L 260.509091 95.614123 
L 268.625455 256.322661 
L 276.741818 293.643606 
L 284.858182 106.658289 
L 292.974545 245.536107 
L 301.090909 286.557527 
L 309.207273 293.922525 
L 317.323636 296.263201 
L 325.44 297.71917 
L 333.556364 298.848286 
L 341.672727 124.802024 
L 349.789091 250.702264 
L 357.905455 288.495808 
L 366.021818 126.959177 
L 374.138182 242.033241 
L 382.254545 281.801204 
L 390.370909 290.73326 
" clip-path="url(#p0c048b19af)" style="fill: none; stroke: #ff0000; stroke-opacity: 0.1; stroke-width: 1.5; stroke-linecap: square"/>
   </g>
   <g id="line2d_49">
    <path d="M 73.832727 218.88 
L 81.949091 83.514878 
L 90.065455 63.452277 
L 98.181818 57.092606 
L 106.298182 54.349719 
L 114.414545 52.718705 
L 122.530909 51.552457 
L 130.647273 50.647048 
L 138.763636 49.915481 
L 146.88 70.189114 
L 154.996364 52.219097 
L 163.112727 70.669328 
L 171.229091 52.043035 
L 179.345455 69.873856 
L 187.461818 51.691549 
L 195.578182 69.056548 
L 203.694545 273.776831 
L 211.810909 85.53054 
L 219.927273 56.550826 
L 228.043636 73.744486 
L 236.16 81.375469 
L 244.276364 281.850645 
L 252.392727 302.882455 
L 260.509091 304.536566 
L 268.625455 98.720449 
L 276.741818 271.493474 
L 284.858182 300.366684 
L 292.974545 302.971869 
L 301.090909 303.799459 
L 309.207273 304.354773 
L 317.323636 304.777573 
L 325.44 120.259381 
L 333.556364 61.159511 
L 341.672727 84.020871 
L 349.789091 272.126296 
L 357.905455 302.759718 
L 366.021818 126.419084 
L 374.138182 63.518089 
L 382.254545 87.857514 
L 390.370909 102.87656 
" clip-path="url(#p0c048b19af)" style="fill: none; stroke: #ff0000; stroke-opacity: 0.1; stroke-width: 1.5; stroke-linecap: square"/>
   </g>
   <g id="line2d_50">
    <path d="M 73.832727 218.88 
L 81.949091 292.409854 
L 90.065455 102.567772 
L 98.181818 72.236311 
L 106.298182 63.039035 
L 114.414545 59.279376 
L 122.530909 57.115528 
L 130.647273 55.578717 
L 138.763636 54.381641 
L 146.88 235.109753 
L 154.996364 91.236169 
L 163.112727 65.402377 
L 171.229091 90.627813 
L 179.345455 63.379258 
L 187.461818 88.742756 
L 195.578182 62.623603 
L 203.694545 87.559656 
L 211.810909 62.027292 
L 219.927273 86.512012 
L 228.043636 96.606384 
L 236.16 100.817472 
L 244.276364 255.227208 
L 252.392727 288.547395 
L 260.509091 294.696803 
L 268.625455 297.46328 
L 276.741818 106.578543 
L 284.858182 246.725741 
L 292.974545 286.670673 
L 301.090909 293.982313 
L 309.207273 118.227987 
L 317.323636 241.384824 
L 325.44 281.218277 
L 333.556364 289.952059 
L 341.672727 126.518742 
L 349.789091 236.569625 
L 357.905455 108.892067 
L 366.021818 219.188571 
L 374.138182 264.296356 
L 382.254545 127.090984 
L 390.370909 220.320772 
" clip-path="url(#p0c048b19af)" style="fill: none; stroke: #ff0000; stroke-opacity: 0.1; stroke-width: 1.5; stroke-linecap: square"/>
   </g>
   <g id="line2d_51">
    <path d="M 73.832727 218.88 
L 81.949091 83.514878 
L 90.065455 63.452277 
L 98.181818 57.092606 
L 106.298182 54.349719 
L 114.414545 52.718705 
L 122.530909 223.81542 
L 130.647273 282.39728 
L 138.763636 94.657336 
L 146.88 65.499393 
L 154.996364 58.526224 
L 163.112727 56.320094 
L 171.229091 84.170655 
L 179.345455 59.462992 
L 187.461818 84.744818 
L 195.578182 59.174286 
L 203.694545 83.718064 
L 211.810909 58.659816 
L 219.927273 82.662279 
L 228.043636 58.172683 
L 236.16 81.689123 
L 244.276364 248.668615 
L 252.392727 289.287004 
L 260.509091 295.78962 
L 268.625455 298.387079 
L 276.741818 300.081108 
L 284.858182 301.299064 
L 292.974545 302.208056 
L 301.090909 302.905878 
L 309.207273 303.454639 
L 317.323636 108.756222 
L 325.44 257.915702 
L 333.556364 296.067341 
L 341.672727 301.077158 
L 349.789091 302.064817 
L 357.905455 302.541855 
L 366.021818 302.908951 
L 374.138182 303.223123 
L 382.254545 121.681646 
L 390.370909 257.318231 
" clip-path="url(#p0c048b19af)" style="fill: none; stroke: #ff0000; stroke-opacity: 0.1; stroke-width: 1.5; stroke-linecap: square"/>
   </g>
   <g id="line2d_52">
    <path d="M 73.832727 218.88 
L 81.949091 83.514878 
L 90.065455 63.452277 
L 98.181818 57.092606 
L 106.298182 226.357578 
L 114.414545 85.091125 
L 122.530909 66.090697 
L 130.647273 60.611286 
L 138.763636 58.360969 
L 146.88 56.977814 
L 154.996364 214.176711 
L 163.112727 84.046861 
L 171.229091 65.39328 
L 179.345455 91.494186 
L 187.461818 64.78411 
L 195.578182 90.291157 
L 203.694545 64.164775 
L 211.810909 89.175706 
L 219.927273 98.130352 
L 228.043636 64.90182 
L 236.16 89.244603 
L 244.276364 97.389492 
L 252.392727 241.214898 
L 260.509091 277.473751 
L 268.625455 286.413817 
L 276.741818 95.188336 
L 284.858182 226.585182 
L 292.974545 271.291114 
L 301.090909 282.273884 
L 309.207273 286.498762 
L 317.323636 289.185999 
L 325.44 291.265025 
L 333.556364 292.961586 
L 341.672727 113.018265 
L 349.789091 233.244987 
L 357.905455 276.642566 
L 366.021818 287.067628 
L 374.138182 290.042529 
L 382.254545 121.205754 
L 390.370909 230.463847 
" clip-path="url(#p0c048b19af)" style="fill: none; stroke: #ff0000; stroke-opacity: 0.1; stroke-width: 1.5; stroke-linecap: square"/>
   </g>
   <g id="line2d_53">
    <path d="M 73.832727 218.88 
L 81.949091 83.514878 
L 90.065455 63.452277 
L 98.181818 57.092606 
L 106.298182 54.349719 
L 114.414545 52.718705 
L 122.530909 51.552457 
L 130.647273 50.647048 
L 138.763636 49.915481 
L 146.88 70.189114 
L 154.996364 52.219097 
L 163.112727 70.669328 
L 171.229091 52.043035 
L 179.345455 69.873856 
L 187.461818 51.691549 
L 195.578182 69.056548 
L 203.694545 51.359476 
L 211.810909 68.310941 
L 219.927273 272.502522 
L 228.043636 84.082461 
L 236.16 87.397851 
L 244.276364 272.24846 
L 252.392727 299.69176 
L 260.509091 302.562953 
L 268.625455 303.812415 
L 276.741818 304.617845 
L 284.858182 305.16918 
L 292.974545 305.563084 
L 301.090909 305.855169 
L 309.207273 306.078645 
L 317.323636 306.254173 
L 325.44 306.395115 
L 333.556364 306.510421 
L 341.672727 306.606274 
L 349.789091 306.68706 
L 357.905455 306.755969 
L 366.021818 115.530073 
L 374.138182 281.915206 
L 382.254545 101.729038 
L 390.370909 56.293388 
" clip-path="url(#p0c048b19af)" style="fill: none; stroke: #ff0000; stroke-opacity: 0.1; stroke-width: 1.5; stroke-linecap: square"/>
   </g>
   <g id="line2d_54">
    <path d="M 73.832727 218.88 
L 81.949091 83.514878 
L 90.065455 246.855107 
L 98.181818 94.173817 
L 106.298182 72.911164 
L 114.414545 65.868773 
L 122.530909 62.574477 
L 130.647273 60.454981 
L 138.763636 58.843908 
L 146.88 57.535525 
L 154.996364 56.441792 
L 163.112727 83.743378 
L 171.229091 59.590484 
L 179.345455 84.205989 
L 187.461818 59.230545 
L 195.578182 83.11867 
L 203.694545 260.194107 
L 211.810909 87.871629 
L 219.927273 62.299198 
L 228.043636 86.337194 
L 236.16 95.761837 
L 244.276364 62.081292 
L 252.392727 86.051574 
L 260.509091 94.937302 
L 268.625455 267.308487 
L 276.741818 295.046299 
L 284.858182 96.92881 
L 292.974545 103.719466 
L 301.090909 270.514881 
L 309.207273 296.536859 
L 317.323636 299.984439 
L 325.44 301.409133 
L 333.556364 302.385179 
L 341.672727 303.121481 
L 349.789091 303.695159 
L 357.905455 304.151709 
L 366.021818 304.521491 
L 374.138182 304.825638 
L 382.254545 305.079226 
L 390.370909 305.293228 
" clip-path="url(#p0c048b19af)" style="fill: none; stroke: #ff0000; stroke-opacity: 0.1; stroke-width: 1.5; stroke-linecap: square"/>
   </g>
   <g id="line2d_55">
    <path d="M 73.832727 218.88 
L 81.949091 83.514878 
L 90.065455 63.452277 
L 98.181818 57.092606 
L 106.298182 54.349719 
L 114.414545 52.718705 
L 122.530909 51.552457 
L 130.647273 50.647048 
L 138.763636 49.915481 
L 146.88 70.189114 
L 154.996364 52.219097 
L 163.112727 70.669328 
L 171.229091 52.043035 
L 179.345455 69.873856 
L 187.461818 51.691549 
L 195.578182 69.056548 
L 203.694545 273.776831 
L 211.810909 85.53054 
L 219.927273 56.550826 
L 228.043636 73.744486 
L 236.16 81.375469 
L 244.276364 281.850645 
L 252.392727 302.882455 
L 260.509091 304.536566 
L 268.625455 305.300223 
L 276.741818 305.793207 
L 284.858182 103.786377 
L 292.974545 277.55965 
L 301.090909 103.014098 
L 309.207273 262.090999 
L 317.323636 297.973085 
L 325.44 301.92479 
L 333.556364 302.836168 
L 341.672727 303.375384 
L 349.789091 303.798492 
L 357.905455 304.149104 
L 366.021818 304.444848 
L 374.138182 304.697159 
L 382.254545 132.624582 
L 390.370909 271.438812 
" clip-path="url(#p0c048b19af)" style="fill: none; stroke: #ff0000; stroke-opacity: 0.1; stroke-width: 1.5; stroke-linecap: square"/>
   </g>
   <g id="line2d_56">
    <path d="M 73.832727 218.88 
L 81.949091 258.490458 
L 90.065455 288.163185 
L 98.181818 300.167712 
L 106.298182 284.113027 
L 114.414545 294.78313 
L 122.530909 290.812604 
L 130.647273 290.03415 
L 138.763636 296.173976 
L 146.88 280.86021 
L 154.996364 276.780973 
L 163.112727 286.868513 
L 171.229091 296.315117 
L 179.345455 295.698049 
L 187.461818 283.890739 
L 195.578182 282.388488 
L 203.694545 272.111366 
L 211.810909 294.210138 
L 219.927273 291.141065 
L 228.043636 298.207673 
L 236.16 290.92697 
L 244.276364 203.2566 
L 252.392727 173.69181 
L 260.509091 182.46313 
L 268.625455 149.552176 
L 276.741818 187.631599 
L 284.858182 192.919277 
L 292.974545 161.064986 
L 301.090909 147.655595 
L 309.207273 167.040163 
L 317.323636 150.632885 
L 325.44 154.092952 
L 333.556364 163.633871 
L 341.672727 183.383421 
L 349.789091 164.161796 
L 357.905455 139.566242 
L 366.021818 185.277136 
L 374.138182 156.198101 
L 382.254545 191.351665 
L 390.370909 173.183872 
" clip-path="url(#p0c048b19af)" style="fill: none; stroke: #1f77b4; stroke-width: 1.5; stroke-linecap: square"/>
   </g>
   <g id="line2d_57">
    <path d="M 73.832727 218.88 
L 81.949091 146.183371 
L 90.065455 102.69735 
L 98.181818 76.616297 
L 106.298182 97.243771 
L 114.414545 82.330172 
L 122.530909 88.468649 
L 130.647273 83.307819 
L 138.763636 78.996277 
L 146.88 103.709418 
L 154.996364 110.042125 
L 163.112727 100.205489 
L 171.229091 78.969345 
L 179.345455 84.389148 
L 187.461818 96.469288 
L 195.578182 100.73574 
L 203.694545 124.463599 
L 211.810909 91.370839 
L 219.927273 91.837269 
L 228.043636 83.015838 
L 236.16 96.400569 
L 244.276364 218.784148 
L 252.392727 234.843879 
L 260.509091 217.10711 
L 268.625455 257.466906 
L 276.741818 213.765851 
L 284.858182 208.36545 
L 292.974545 241.038098 
L 301.090909 250.588615 
L 309.207273 234.4381 
L 317.323636 248.918922 
L 325.44 243.305378 
L 333.556364 224.427349 
L 341.672727 208.731096 
L 349.789091 232.354254 
L 357.905455 251.539589 
L 366.021818 210.29799 
L 374.138182 236.171383 
L 382.254545 200.533203 
L 390.370909 218.488061 
" clip-path="url(#p0c048b19af)" style="fill: none; stroke: #ff0000; stroke-width: 1.5; stroke-linecap: square"/>
   </g>
   <g id="patch_5">
    <path d="M 57.6 307.584 
L 57.6 41.472 
" style="fill: none; stroke: #000000; stroke-width: 0.8; stroke-linejoin: miter; stroke-linecap: square"/>
   </g>
   <g id="patch_6">
    <path d="M 414.72 307.584 
L 414.72 41.472 
" style="fill: none; stroke: #000000; stroke-width: 0.8; stroke-linejoin: miter; stroke-linecap: square"/>
   </g>
   <g id="patch_7">
    <path d="M 57.6 307.584 
L 414.72 307.584 
" style="fill: none; stroke: #000000; stroke-width: 0.8; stroke-linejoin: miter; stroke-linecap: square"/>
   </g>
   <g id="patch_8">
    <path d="M 57.6 41.472 
L 414.72 41.472 
" style="fill: none; stroke: #000000; stroke-width: 0.8; stroke-linejoin: miter; stroke-linecap: square"/>
   </g>
   <g id="text_18">
    <!-- biased_B -->
    <g transform="translate(209.264062 35.472) scale(0.12 -0.12)">
     <defs>
      <path id="DejaVuSans-62" d="M 3116 1747 
Q 3116 2381 2855 2742 
Q 2594 3103 2138 3103 
Q 1681 3103 1420 2742 
Q 1159 2381 1159 1747 
Q 1159 1113 1420 752 
Q 1681 391 2138 391 
Q 2594 391 2855 752 
Q 3116 1113 3116 1747 
z
M 1159 2969 
Q 1341 3281 1617 3432 
Q 1894 3584 2278 3584 
Q 2916 3584 3314 3078 
Q 3713 2572 3713 1747 
Q 3713 922 3314 415 
Q 2916 -91 2278 -91 
Q 1894 -91 1617 61 
Q 1341 213 1159 525 
L 1159 0 
L 581 0 
L 581 4863 
L 1159 4863 
L 1159 2969 
z
" transform="scale(0.015625)"/>
      <path id="DejaVuSans-69" d="M 603 3500 
L 1178 3500 
L 1178 0 
L 603 0 
L 603 3500 
z
M 603 4863 
L 1178 4863 
L 1178 4134 
L 603 4134 
L 603 4863 
z
" transform="scale(0.015625)"/>
      <path id="DejaVuSans-61" d="M 2194 1759 
Q 1497 1759 1228 1600 
Q 959 1441 959 1056 
Q 959 750 1161 570 
Q 1363 391 1709 391 
Q 2188 391 2477 730 
Q 2766 1069 2766 1631 
L 2766 1759 
L 2194 1759 
z
M 3341 1997 
L 3341 0 
L 2766 0 
L 2766 531 
Q 2569 213 2275 61 
Q 1981 -91 1556 -91 
Q 1019 -91 701 211 
Q 384 513 384 1019 
Q 384 1609 779 1909 
Q 1175 2209 1959 2209 
L 2766 2209 
L 2766 2266 
Q 2766 2663 2505 2880 
Q 2244 3097 1772 3097 
Q 1472 3097 1187 3025 
Q 903 2953 641 2809 
L 641 3341 
Q 956 3463 1253 3523 
Q 1550 3584 1831 3584 
Q 2591 3584 2966 3190 
Q 3341 2797 3341 1997 
z
" transform="scale(0.015625)"/>
      <path id="DejaVuSans-73" d="M 2834 3397 
L 2834 2853 
Q 2591 2978 2328 3040 
Q 2066 3103 1784 3103 
Q 1356 3103 1142 2972 
Q 928 2841 928 2578 
Q 928 2378 1081 2264 
Q 1234 2150 1697 2047 
L 1894 2003 
Q 2506 1872 2764 1633 
Q 3022 1394 3022 966 
Q 3022 478 2636 193 
Q 2250 -91 1575 -91 
Q 1294 -91 989 -36 
Q 684 19 347 128 
L 347 722 
Q 666 556 975 473 
Q 1284 391 1588 391 
Q 1994 391 2212 530 
Q 2431 669 2431 922 
Q 2431 1156 2273 1281 
Q 2116 1406 1581 1522 
L 1381 1569 
Q 847 1681 609 1914 
Q 372 2147 372 2553 
Q 372 3047 722 3315 
Q 1072 3584 1716 3584 
Q 2034 3584 2315 3537 
Q 2597 3491 2834 3397 
z
" transform="scale(0.015625)"/>
      <path id="DejaVuSans-64" d="M 2906 2969 
L 2906 4863 
L 3481 4863 
L 3481 0 
L 2906 0 
L 2906 525 
Q 2725 213 2448 61 
Q 2172 -91 1784 -91 
Q 1150 -91 751 415 
Q 353 922 353 1747 
Q 353 2572 751 3078 
Q 1150 3584 1784 3584 
Q 2172 3584 2448 3432 
Q 2725 3281 2906 2969 
z
M 947 1747 
Q 947 1113 1208 752 
Q 1469 391 1925 391 
Q 2381 391 2643 752 
Q 2906 1113 2906 1747 
Q 2906 2381 2643 2742 
Q 2381 3103 1925 3103 
Q 1469 3103 1208 2742 
Q 947 2381 947 1747 
z
" transform="scale(0.015625)"/>
      <path id="DejaVuSans-5f" d="M 3263 -1063 
L 3263 -1509 
L -63 -1509 
L -63 -1063 
L 3263 -1063 
z
" transform="scale(0.015625)"/>
      <path id="DejaVuSans-42" d="M 1259 2228 
L 1259 519 
L 2272 519 
Q 2781 519 3026 730 
Q 3272 941 3272 1375 
Q 3272 1813 3026 2020 
Q 2781 2228 2272 2228 
L 1259 2228 
z
M 1259 4147 
L 1259 2741 
L 2194 2741 
Q 2656 2741 2882 2914 
Q 3109 3088 3109 3444 
Q 3109 3797 2882 3972 
Q 2656 4147 2194 4147 
L 1259 4147 
z
M 628 4666 
L 2241 4666 
Q 2963 4666 3353 4366 
Q 3744 4066 3744 3513 
Q 3744 3084 3544 2831 
Q 3344 2578 2956 2516 
Q 3422 2416 3680 2098 
Q 3938 1781 3938 1306 
Q 3938 681 3513 340 
Q 3088 0 2303 0 
L 628 0 
L 628 4666 
z
" transform="scale(0.015625)"/>
     </defs>
     <use xlink:href="#DejaVuSans-62"/>
     <use xlink:href="#DejaVuSans-69" x="63.476562"/>
     <use xlink:href="#DejaVuSans-61" x="91.259766"/>
     <use xlink:href="#DejaVuSans-73" x="152.539062"/>
     <use xlink:href="#DejaVuSans-65" x="204.638672"/>
     <use xlink:href="#DejaVuSans-64" x="266.162109"/>
     <use xlink:href="#DejaVuSans-5f" x="329.638672"/>
     <use xlink:href="#DejaVuSans-42" x="379.638672"/>
    </g>
   </g>
   <g id="legend_1">
    <g id="patch_9">
     <path d="M 64.6 190.706125 
L 120.684375 190.706125 
Q 122.684375 190.706125 122.684375 188.706125 
L 122.684375 160.349875 
Q 122.684375 158.349875 120.684375 158.349875 
L 64.6 158.349875 
Q 62.6 158.349875 62.6 160.349875 
L 62.6 188.706125 
Q 62.6 190.706125 64.6 190.706125 
z
" style="fill: #ffffff; opacity: 0.8; stroke: #cccccc; stroke-linejoin: miter"/>
    </g>
    <g id="line2d_58">
     <path d="M 66.6 166.448312 
L 76.6 166.448312 
L 86.6 166.448312 
" style="fill: none; stroke: #1f77b4; stroke-width: 1.5; stroke-linecap: square"/>
    </g>
    <g id="text_19">
     <!-- coop -->
     <g transform="translate(94.6 169.948312) scale(0.1 -0.1)">
      <use xlink:href="#DejaVuSans-63"/>
      <use xlink:href="#DejaVuSans-6f" x="54.980469"/>
      <use xlink:href="#DejaVuSans-6f" x="116.162109"/>
      <use xlink:href="#DejaVuSans-70" x="177.34375"/>
     </g>
    </g>
    <g id="line2d_59">
     <path d="M 66.6 181.126437 
L 76.6 181.126437 
L 86.6 181.126437 
" style="fill: none; stroke: #ff0000; stroke-width: 1.5; stroke-linecap: square"/>
    </g>
    <g id="text_20">
     <!-- host -->
     <g transform="translate(94.6 184.626437) scale(0.1 -0.1)">
      <defs>
       <path id="DejaVuSans-68" d="M 3513 2113 
L 3513 0 
L 2938 0 
L 2938 2094 
Q 2938 2591 2744 2837 
Q 2550 3084 2163 3084 
Q 1697 3084 1428 2787 
Q 1159 2491 1159 1978 
L 1159 0 
L 581 0 
L 581 4863 
L 1159 4863 
L 1159 2956 
Q 1366 3272 1645 3428 
Q 1925 3584 2291 3584 
Q 2894 3584 3203 3211 
Q 3513 2838 3513 2113 
z
" transform="scale(0.015625)"/>
      </defs>
      <use xlink:href="#DejaVuSans-68"/>
      <use xlink:href="#DejaVuSans-6f" x="63.378906"/>
      <use xlink:href="#DejaVuSans-73" x="124.560547"/>
      <use xlink:href="#DejaVuSans-74" x="176.660156"/>
     </g>
    </g>
   </g>
  </g>
 </g>
 <defs>
  <clipPath id="p0c048b19af">
   <rect x="57.6" y="41.472" width="357.12" height="266.112"/>
  </clipPath>
 </defs>
</svg>
